<?xml version="1.0" encoding="UTF-8"?>
<svg width="70px" height="66px" viewBox="0 0 70 66" version="1.1" xmlns="http://www.w3.org/2000/svg"
     xmlns:xlink="http://www.w3.org/1999/xlink">
    <!-- Generator: Sketch 55.2 (78181) - https://sketchapp.com -->
    <title>line-chart</title>
    <desc>Created with Sketch.</desc>
    <g id="Symbols" stroke="none" stroke-width="1" fill="none" fill-rule="evenodd">
        <g id="Icon-/-Line-Chart" transform="translate(0.000000, -7.000000)">
            <g id="line-chart" transform="translate(0.000000, 7.000000)">
                <path
                    d="M6.783,57.0564706 L17.57,32.2729412 C17.913,31.4894118 18.76,31.0658824 19.586,31.2705882 L38.99,36.1270588 C39.662,36.2964706 40.362,36.0494118 40.789,35.4988235 L58.086,13.1435294 C58.674,12.3741176 59.773,12.2329412 60.536,12.8329412 C60.963,13.1647059 61.215,13.68 61.2081421,14.2235294 L61.2081421,57.7482353 C61.2081421,58.7223529 60.424,59.5058824 59.465,59.5058824 L8.379,59.5058824 C7.413,59.5058824 6.636,58.7152941 6.636,57.7411765 C6.636,57.5152941 6.685,57.2752941 6.783,57.0564706 Z"
                    id="Path" fill="#FFC83A"></path>
                <path
                    d="M3.325,57.7411765 C3.493,57.8188235 3.668,57.8541176 3.85,57.8541176 C4.368,57.8541176 4.837,57.5435294 5.047,57.0635294 L15.757,32.4635294 C15.939,32.4917647 16.121,32.5129412 16.31,32.5129412 C17.913,32.5129412 19.397,31.6517647 20.209,30.2611765 L33.789,33.6564706 C34.384,36.12 36.848,37.6376471 39.291,37.0376471 C41.279,36.5505882 42.707,34.7788235 42.77,32.7176471 C42.763,32.0188235 42.602,31.3270588 42.287,30.6988235 L57.519,10.32 C59.829,11.3788235 62.545,10.3552941 63.602,8.02588235 C64.659,5.69647059 63.637,2.95764706 61.327,1.89176471 C59.017,0.832941176 56.301,1.85647059 55.244,4.18588235 C54.607,5.59764706 54.712,7.24235294 55.531,8.55529412 L40.495,28.7435294 C39.809,28.3482353 39.032,28.1505882 38.241,28.1505882 C36.4,28.1576471 34.748,29.28 34.041,30.9952941 L20.839,27.6917647 C20.727,25.1647059 18.599,23.2023529 16.093,23.3152941 C13.587,23.4282353 11.641,25.5741176 11.753,28.1011765 C11.809,29.3788235 12.39,30.5717647 13.356,31.3976471 L2.618,55.9976471 C2.331,56.6682353 2.639,57.4447059 3.304,57.7341176 C3.311,57.7341176 3.318,57.7341176 3.325,57.7411765 Z M59.346,4.17882353 C60.417,4.17176471 61.285,5.04705882 61.292,6.12705882 C61.299,7.20705882 60.431,8.08235294 59.36,8.08941176 C58.296,8.09647059 57.428,7.23529412 57.414,6.16235294 C57.4,5.08235294 58.254,4.2 59.325,4.18588235 C59.332,4.17882353 59.339,4.17882353 59.346,4.17882353 Z M38.234,30.8047059 C39.305,30.8047059 40.173,31.68 40.173,32.76 C40.173,33.84 39.305,34.7152941 38.234,34.7152941 C37.163,34.7152941 36.295,33.84 36.295,32.76 C36.295,31.6729412 37.163,30.8047059 38.234,30.8047059 C38.234,30.8047059 38.234,30.8047059 38.234,30.8047059 Z M16.303,25.9694118 C17.374,25.9694118 18.242,26.8447059 18.242,27.9247059 C18.242,29.0047059 17.374,29.88 16.303,29.88 C15.232,29.88 14.364,29.0047059 14.364,27.9247059 C14.364,27.9247059 14.364,27.9247059 14.364,27.9247059 C14.364,26.8447059 15.232,25.9694118 16.303,25.9694118 Z"
                    id="Shape" fill="#006648"></path>
                <path
                    d="M68.691,0 C67.97,0 67.382,0.592941176 67.382,1.32 L67.382,63.36 L1.309,63.36 C0.588,63.36 0,63.9529412 0,64.68 C0,65.4070588 0.588,66 1.309,66 L68.691,66 C69.412,66 70,65.4070588 70,64.68 L70,1.32 C70,0.592941176 69.412,0 68.691,0 Z"
                    id="Path" fill="#006648"></path>
                <path
                    d="M39.543,41.8164706 C39.543,41.0894118 38.955,40.4964706 38.234,40.4964706 C37.513,40.4964706 36.925,41.0894118 36.925,41.8164706 L36.925,42.6988235 C36.925,43.4258824 37.513,44.0188235 38.234,44.0188235 C38.955,44.0188235 39.543,43.4258824 39.543,42.6988235 L39.543,41.8164706 Z"
                    id="Path" fill="#006648"></path>
                <path
                    d="M39.543,47.9788235 C39.543,47.2517647 38.955,46.6588235 38.234,46.6588235 C37.513,46.6588235 36.925,47.2517647 36.925,47.9788235 L36.925,48.8611765 C36.925,49.5882353 37.513,50.1811765 38.234,50.1811765 C38.955,50.1811765 39.543,49.5882353 39.543,48.8611765 L39.543,48.8611765 L39.543,47.9788235 Z"
                    id="Path" fill="#006648"></path>
                <path
                    d="M38.234,52.8 C37.513,52.8 36.925,53.3929412 36.925,54.12 L36.925,55.0023529 C36.925,55.7294118 37.513,56.3223529 38.234,56.3223529 C38.955,56.3223529 39.543,55.7294118 39.543,55.0023529 L39.543,54.12 C39.543,53.3929412 38.955,52.8 38.234,52.8 Z"
                    id="Path" fill="#006648"></path>
            </g>
        </g>
    </g>
</svg>
