<?xml version="1.0" encoding="UTF-8"?>
<svg width="74px" height="62px" viewBox="0 0 74 62" version="1.1" xmlns="http://www.w3.org/2000/svg"
     xmlns:xlink="http://www.w3.org/1999/xlink">
    <!-- Generator: Sketch 55.2 (78181) - https://sketchapp.com -->
    <title>Icon / Entrepreneur</title>
    <desc>Created with Sketch.</desc>
    <g id="Final-Comps" stroke="none" stroke-width="1" fill="none" fill-rule="evenodd">
        <g id="Sell-Dot-07-Programs" transform="translate(-577.000000, -1047.000000)">
            <g id="Card-2" transform="translate(523.000000, 992.000000)">
                <g id="Icon-/-Amazon-Custom" transform="translate(54.000000, 46.000000)">
                    <g id="Amazon_Custom" transform="translate(0.000000, 9.000000)">
                        <ellipse id="Oval" fill="#B1D7EA" cx="24.235" cy="18.8927981" rx="5.3946"
                                 ry="5.33624557"></ellipse>
                        <ellipse id="Oval" fill="#B1D7EA" cx="52.7842" cy="32.9837072" rx="5.3946"
                                 ry="5.33624557"></ellipse>
                        <circle id="Oval" fill="#B1D7EA"
                                transform="translate(38.472016, 47.081873) rotate(-45.000000) translate(-38.472016, -47.081873) "
                                cx="38.4720161" cy="47.0818726" r="5.36545237"></circle>
                        <g id="Group" fill="#3B9CFF">
                            <path
                                d="M11.1666,18.1022432 L16.206,18.1022432 C16.909,21.6743802 20.4018,24.0021251 24.0056,23.3140496 C26.6696,22.8016529 28.7564,20.7447462 29.2744,18.1022432 L62.826,18.1022432 C63.5216,18.1022432 64.084,17.5459268 64.084,16.8578512 C64.084,16.1697757 63.5216,15.6134593 62.826,15.6134593 L29.304,15.6134593 C28.601,12.0413223 25.1082,9.71357733 21.5044,10.4016529 C18.8404,10.9140496 16.7536,12.9709563 16.2356,15.6134593 L11.1962,15.6134593 C10.5006,15.6134593 9.9382,16.1697757 9.9382,16.8578512 C9.9382,17.5459268 10.5006,18.1022432 11.1962,18.1022432 L11.1666,18.1022432 Z M22.7624,12.7659976 C25.049,12.7659976 26.899,14.5959858 26.899,16.8578512 C26.899,19.1197166 25.049,20.9497048 22.7624,20.9497048 C20.4758,20.9497048 18.6258,19.1197166 18.6258,16.8578512 C18.6332,14.6033058 20.4832,12.7733176 22.7624,12.7659976 Z"
                                id="Shape"></path>
                            <ellipse id="Oval" cx="22.7624" cy="16.8578512" rx="1.961" ry="1.93978749"></ellipse>
                            <path
                                d="M11.1666,32.1931523 L44.7774,32.1931523 C45.4804,35.7652893 48.9732,38.0930342 52.577,37.4049587 C55.241,36.892562 57.3278,34.8356553 57.8458,32.1931523 L62.8408,32.1931523 C63.5364,32.1931523 64.0988,31.6368359 64.0988,30.9487603 C64.0988,30.2606848 63.5364,29.7043684 62.8408,29.7043684 L57.8458,29.7043684 C57.1428,26.1322314 53.65,23.8044864 50.0462,24.492562 C47.3822,25.0049587 45.2954,27.0618654 44.7774,29.7043684 L11.1666,29.7043684 C10.471,29.7043684 9.9086,30.2606848 9.9086,30.9487603 C9.9086,31.6368359 10.471,32.1931523 11.1666,32.1931523 Z M51.3116,26.8569067 C53.5982,26.8569067 55.4482,28.6868949 55.4482,30.9487603 C55.4482,33.2106257 53.5982,35.0406139 51.3116,35.0406139 C49.025,35.0406139 47.175,33.2106257 47.175,30.9487603 C47.1824,28.6868949 49.0324,26.8642267 51.3116,26.8569067 Z"
                                id="Shape"></path>
                            <ellipse id="Oval" cx="51.3116" cy="30.9487603" rx="1.961" ry="1.93978749"></ellipse>
                            <path
                                d="M11.1666,46.2913813 L30.4954,46.2913813 C31.1984,49.8635183 34.6912,52.1912633 38.295,51.5031877 C40.959,50.990791 43.0458,48.9338843 43.5638,46.2913813 L62.8926,46.2913813 C63.5882,46.2913813 64.1506,45.7350649 64.1506,45.0469894 C64.1506,44.3589138 63.5882,43.8025974 62.8926,43.8025974 L43.5638,43.8025974 C42.8608,40.2304604 39.368,37.9027155 35.7642,38.590791 C33.1002,39.1031877 31.0134,41.1600945 30.4954,43.8025974 L11.1666,43.8025974 C10.471,43.8025974 9.9086,44.3589138 9.9086,45.0469894 C9.9086,45.7350649 10.471,46.2913813 11.1666,46.2913813 Z M36.9778,40.9478158 C39.2644,40.9478158 41.1144,42.777804 41.1144,45.0396694 C41.1144,47.3015348 39.2644,49.131523 36.9778,49.131523 C34.6912,49.131523 32.8412,47.3015348 32.8412,45.0396694 C32.8486,42.777804 34.6912,40.9551358 36.9778,40.9478158 Z"
                                id="Shape"></path>
                            <ellipse id="Oval" cx="37" cy="45.0469894" rx="1.961" ry="1.93978749"></ellipse>
                            <path
                                d="M72.742,0 L1.258,0 C0.5624,0 0,0.556316411 0,1.24439197 L0,60.7482881 C0,61.4363636 0.5624,61.99268 1.258,61.99268 L72.742,61.99268 C73.4376,61.99268 74,61.4363636 74,60.7482881 L74,1.24439197 C74,0.556316411 73.4376,0 72.742,0 Z M71.4766,59.5038961 L2.5234,59.5038961 L2.5234,2.4961039 L71.484,2.4961039 L71.4766,59.5038961 L71.4766,59.5038961 Z"
                                id="Shape"></path>
                        </g>
                    </g>
                </g>
            </g>
        </g>
    </g>
</svg>
