<?xml version="1.0" encoding="UTF-8"?>
<svg width="66px" height="80px" viewBox="0 0 66 80" version="1.1" xmlns="http://www.w3.org/2000/svg"
     xmlns:xlink="http://www.w3.org/1999/xlink">
    <!-- Generator: Sketch 55.2 (78181) - https://sketchapp.com -->
    <title>Special_Product</title>
    <desc>Created with Sketch.</desc>
    <g id="Symbols" stroke="none" stroke-width="1" fill="none" fill-rule="evenodd">
        <g id="Icon-/-Customer-Service-Copy">
            <g id="Special_Product">
                <path
                    d="M35.97,4.22368421 L40.1214,12.9605263 C40.3524,13.4539474 40.8276,13.7960526 41.3688,13.8552632 L50.4504,14.8421053 C50.9388,14.9407895 51.2556,15.4078947 51.1566,15.8947368 C51.1236,16.0657895 51.0378,16.2236842 50.919,16.3486842 L44.1408,22.1842105 C43.7118,22.5460526 43.5138,23.1118421 43.6194,23.6644737 L45.4146,33.2894737 C45.474,33.7828947 45.1176,34.2236842 44.6226,34.2828947 C44.4444,34.3026316 44.2596,34.2697368 44.1012,34.1842105 L36.0162,28.9473684 C35.4948,28.6052632 34.8216,28.6052632 34.3002,28.9473684 L26.202,34.1907895 C25.7598,34.4210526 25.2186,34.2565789 24.9876,33.8157895 C24.9018,33.6578947 24.8688,33.4736842 24.8886,33.2960526 L26.6838,23.6710526 C26.7894,23.1184211 26.5914,22.5592105 26.1624,22.1907895 L19.3842,16.3552632 C19.041,16 19.0476,15.4342105 19.404,15.0855263 C19.5294,14.9605263 19.6878,14.8815789 19.866,14.8486842 L29.1192,13.8618421 C29.6736,13.8092105 30.1554,13.4671053 30.3864,12.9671053 L34.3728,4.25657895 C34.5906,3.80921053 35.1318,3.63157895 35.574,3.84868421 C35.739,3.92763158 35.8776,4.05921053 35.97,4.22368421 Z"
                    id="Path" fill="#00C2FF"></path>
                <path
                    d="M59.862,44.0328947 L38.0292,44.0328947 L37.0458,49.9210526 L37.0458,58.4736842 L28.9542,58.4736842 L28.9542,49.9210526 L27.9708,44.0328947 L13.4904,44.0328947 C13.0482,44.0328947 12.6852,44.3881579 12.6852,44.8289474 C12.6852,44.8947368 12.6918,44.9605263 12.705,45.0197368 L14.5002,52.6118421 C14.5068,52.6776316 14.5068,52.7368421 14.5002,52.8026316 L14.5002,79.1710526 C14.5002,79.6118421 14.8566,79.9671053 15.2988,79.9671053 L57.9744,79.9671053 C58.4166,79.9671053 58.773,79.6118421 58.773,79.1710526 L58.773,52.8092105 C58.7664,52.7434211 58.7664,52.6842105 58.773,52.6184211 L60.5682,45.0263158 C60.6804,44.5986842 60.423,44.1644737 59.994,44.0526316 C59.9544,44.0394737 59.9082,44.0328947 59.862,44.0328947 Z"
                    id="Path" fill="#00C2FF"></path>
                <path
                    d="M23.1132,20.9605263 L21.2586,30.7105263 C21.0342,31.9078947 21.8262,33.0592105 23.0274,33.2828947 C23.5818,33.3881579 24.156,33.2763158 24.6312,32.9671053 L32.868,27.6447368 L41.1048,32.9671053 C42.1344,33.625 43.5006,33.3289474 44.1606,32.3092105 C44.4642,31.8355263 44.5764,31.2631579 44.4774,30.7105263 L42.6162,20.9605263 L49.4604,15.0328947 C50.3844,14.2368421 50.49,12.8486842 49.6914,11.9210526 C49.3284,11.5 48.8136,11.2302632 48.2526,11.1644737 L39.0786,10.1710526 L34.881,1.32894737 C34.518,0.552631579 33.7326,0.0592105263 32.8746,0.0657244879 L32.8746,0.0657244879 C32.01,0.0657244879 31.2312,0.572368421 30.8814,1.35526316 L26.8422,10.1842105 L17.4438,11.1776316 C16.2294,11.3026316 15.345,12.3881579 15.477,13.5986842 C15.5364,14.1578947 15.807,14.6710526 16.236,15.0394737 L23.1132,20.9605263 Z M27.8784,12.7763158 C28.3536,12.7302632 28.7694,12.4276316 28.9674,11.9934211 L32.8944,3.42105263 L36.9798,12.0065789 C37.1778,12.4276316 37.587,12.7171053 38.049,12.7697368 L46.8996,13.7302632 L40.2732,19.4342105 C39.9102,19.7434211 39.7386,20.2236842 39.8244,20.6907895 L41.6196,30.0921053 L33.6072,24.9144737 C33.1584,24.625 32.5842,24.625 32.142,24.9144737 L24.1296,30.0921053 L25.9248,20.6907895 C26.0172,20.2171053 25.8522,19.7302632 25.4826,19.4210526 L18.8826,13.75 L27.8784,12.7763158 Z"
                    id="Shape" fill="#3B9CFF"></path>
                <path
                    d="M65.7228,41.7565789 C65.2674,41.1710526 64.4226,41.0657895 63.8352,41.5131579 L57.3408,46.5131579 L58.5354,41.5657895 C58.707,40.8421053 58.2648,40.1184211 57.5388,39.9473684 C57.4332,39.9210526 57.3276,39.9078947 57.222,39.9078947 L8.778,39.9078947 C8.0322,39.9078947 7.4316,40.5065789 7.425,41.25 C7.425,41.3552632 7.4382,41.4605263 7.4646,41.5657895 L8.6592,46.5197368 L2.178,41.5131579 C1.5906,41.0592105 0.7392,41.1644737 0.2838,41.75 C-0.1716,42.3355263 -0.066,43.1842105 0.5214,43.6381579 L0.5214,43.6381579 L9.5106,50.5855263 L9.5106,77.1513158 C9.5106,77.8947368 10.1112,78.4934211 10.857,78.4934211 L55.1232,78.4934211 C55.869,78.4934211 56.4696,77.8947368 56.4696,77.1513158 L56.4696,50.5855263 L65.472,43.6381579 C66.0594,43.1842105 66.1716,42.3421053 65.7228,41.7565789 Z M54.0342,48.5855263 L38.6694,48.5855263 L39.666,42.5986842 L55.5192,42.5986842 L54.0342,48.5855263 Z M30.2676,51.2763158 L35.6598,51.2763158 L35.6598,57.1381579 L30.2676,57.1381579 L30.2676,51.2763158 L30.2676,51.2763158 Z M36.8676,42.5986842 L35.871,48.5855263 L30.096,48.5855263 L29.0994,42.5986842 L36.8676,42.5986842 Z M26.3406,42.5986842 L27.3372,48.5855263 L11.9328,48.5855263 L10.4874,42.5986842 L26.3406,42.5986842 Z M53.7834,75.8355263 L12.2232,75.8355263 L12.2232,51.2763158 L27.6078,51.2763158 L27.6078,58.4473684 C27.6078,59.1907895 28.2084,59.7894737 28.9542,59.7894737 L37.0458,59.7894737 C37.7916,59.7894737 38.3922,59.1907895 38.3922,58.4473684 L38.3922,51.2763158 L53.7768,51.2763158 L53.7768,75.8355263 L53.7834,75.8355263 Z"
                    id="Shape" fill="#3B9CFF"></path>
            </g>
        </g>
    </g>
</svg>
