<svg xmlns="http://www.w3.org/2000/svg" viewBox="0 0 110 110">
    <defs>
        <style>
            .cls-1{fill:#3B9CFF;}.cls-2{fill:none;stroke:#FBD13E;stroke-linecap:round;stroke-miterlimit:10;stroke-width:2px;}
        </style>
    </defs>
    <title>megaphone-promotion-orange</title>
    <g id="Row_5" data-name="Row 5">
        <path class="cls-1"
              d="M67.21,75,32.05,61.51l.42-24.95,35.59-9.79a2.7,2.7,0,0,1,3.26,2.73l-.63,42.86A2.71,2.71,0,0,1,67.21,75Z"/>
        <path class="cls-1"
              d="M8.78,36.87a3,3,0,0,0-2.95,3V58.88a3,3,0,0,0,2.95,2.95h5.37V79.1a2.8,2.8,0,0,0,2.1,2.73l5.58,1.37a2.78,2.78,0,0,0,3.48-2.74V61.83h3.26v-25Z"/>
        <line class="cls-2" x1="104.17" y1="50.88" x2="80.59" y2="50.88"/>
        <line class="cls-2" x1="101.43" y1="70.04" x2="79.95" y2="60.35"/>
        <line class="cls-2" x1="79.95" y1="41.4" x2="101.43" y2="31.71"/>
    </g>
</svg>
