<?xml version="1.0" encoding="UTF-8"?>
<!DOCTYPE svg PUBLIC "-//W3C//DTD SVG 1.1//EN" "http://www.w3.org/Graphics/SVG/1.1/DTD/svg11.dtd">
<!-- Creator: CorelDRAW 2018 (64-Bit Evaluation Version) -->
<svg xmlns="http://www.w3.org/2000/svg" xml:space="preserve" width="421.217mm" height="238.578mm" version="1.1"
     style="shape-rendering:geometricPrecision; text-rendering:geometricPrecision; image-rendering:optimizeQuality; fill-rule:evenodd; clip-rule:evenodd"
     viewBox="0 0 42121.66 23857.78"
     xmlns:xlink="http://www.w3.org/1999/xlink">
 <defs>
  <style type="text/css">
   <![CDATA[
    .str5 {stroke:#3B9CFF;stroke-width:20;stroke-miterlimit:22.9256;stroke-opacity:0.450980}
    .str2 {stroke:#FBD13E;stroke-width:20;stroke-miterlimit:22.9256;stroke-opacity:0.501961}
    .str1 {stroke:#3B9CFF;stroke-width:20;stroke-miterlimit:22.9256}
    .str4 {stroke:none;stroke-width:20;stroke-miterlimit:22.9256}
    .str0 {stroke:#FBD13E;stroke-width:20;stroke-miterlimit:22.9256}
    .str3 {stroke:none;stroke-width:20;stroke-miterlimit:22.9256}
    .fil15 {fill:none}
    .fil5 {fill:none}
    .fil11 {fill:#F3FAFE}
    .fil17 {fill:#CFDBE2}
    .fil13 {fill:#C0C6CB}
    .fil14 {fill:#8BA1BB}
    .fil19 {fill:#666364}
    .fil10 {fill:#3B9CFF}
    .fil9 {fill:#e7f2fd}
    .fil21 {fill:#e7f2fd}
    .fil8 {fill:#FBD13E}
    .fil16 {fill:#FBD13E}
    .fil20 {fill:#FBD13E}
    .fil6 {fill:#FBD13E}
    .fil18 {fill:#FBD13E}
    .fil7 {fill:#fbf0c8}
    .fil0 {fill:#fbf0c8}
    .fil22 {fill:#3B9CFF;fill-opacity:1}
    .fil12 {fill:#3B9CFF;}
    .fil1 {fill:#3B9CFF;fill-opacity:1}
    .fil4 {fill:none;fill-opacity:1}
    .fil2 {fill:#FBD13E;fill-opacity:1}
    .fil3 {fill:none;fill-opacity:1}
   ]]>
  </style>
 </defs>
    <g id="Layer_x0020_1">
  <metadata id="CorelCorpID_0Corel-Layer"/>
        <g id="_2048505006992">
   <rect class="fil15" x="6076.22" y="19828.77" width="4966.2" height="3990.64"/>
            <polygon class="fil1" points="42121.66,0 38846.12,0 38846.12,4268.92 42121.66,4268.92 "/>
            <polygon class="fil2" points="38846.12,4268.92 42121.66,4268.92 42121.66,14217.25 38846.12,14217.25 "/>
            <polygon class="fil1" points="42121.66,14217.25 38846.12,14217.25 38846.12,23847.78 42121.66,23847.78 "/>
            <polygon class="fil2" points="39713.95,15127.43 40306.62,15127.43 40306.62,23847.78 39713.95,23847.78 "/>
            <polygon class="fil3" points="32979.97,0 38846.12,0 38846.12,23847.78 32979.97,23847.78 "/>
            <polygon class="fil3" points="28001.05,15736.1 32983.22,15736.1 32983.22,23817.7 28001.05,23817.7 "/>
            <polygon class="fil4" points="28001.05,5940.51 32977,5940.51 32977,15736.1 28001.05,15736.1 "/>
            <polygon class="fil3" points="28001.05,0 32979.97,0 32979.97,5924.65 28001.05,5924.65 "/>
            <polygon class="fil4" points="21965.56,0 28001.05,0 28001.05,23800.44 21965.56,23800.44 "/>
            <polygon class="fil4" points="17023.16,20667.87 21965.55,20667.87 21965.55,23847.78 17023.16,23847.78 "/>
            <polygon class="fil3" points="17023.16,10804.2 21965.56,10804.2 21965.56,20667.87 17023.16,20667.87 "/>
            <polygon class="fil4" points="17023.16,1109.86 21965.56,1109.86 21965.56,10804.2 17023.16,10804.2 "/>
            <polygon class="fil2" points="17023.16,0 21965.56,0 21965.56,1109.86 17023.16,1109.86 "/>
            <polygon class="fil3" points="11040.66,0 17023.16,0 17023.16,23847.78 11040.66,23847.78 "/>
            <polygon class="fil5" points="6035.09,19828.77 11042.41,19828.77 11042.41,23819.41 6035.09,23819.41 "/>
            <polygon class="fil4" points="6035.09,10017.57 11042.41,10017.57 11042.41,19828.77 6035.09,19828.77 "/>
            <polygon class="fil3" points="6035.09,0 11040.66,0 11040.66,10017.57 6035.09,10017.57 "/>
            <polygon class="fil4" points="-0,0 6035.09,0 6035.09,23819.41 -0,23819.41 "/>
            <g>
    <path class="fil6"
          d="M24161.02 3858.34l34.68 2400.19c744.04,361.06 1494.29,302.71 2247.59,34.69l-8.69 -2424.47c-731.52,-271.17 -1486.54,-303.45 -2273.58,-10.41z"/>
                <path class="fil7"
                      d="M26418.98 4581.55l22.62 1238.24c-1442.92,178.81 -855.53,-1069.16 -22.62,-1238.24z"/>
                <path class="fil7"
                      d="M24292.79 3936.42c655.55,-197.86 1311.09,-189.48 1966.65,10.41 -660.08,209.67 -1315.8,214.62 -1966.65,-10.41z"/>
                <path class="fil6"
                      d="M24168.16 4352.58l5.06 350.26c-351.91,-10.29 -405.43,576.49 9.09,627.97l4.3 298.07c-890.42,30.19 -872.17,-1226.7 -18.45,-1276.3z"/>
   </g>
            <g>
    <polygon class="fil6 str0"
             points="2636.55,20278.08 2588.92,20463.29 3906.55,20436.83 3260.97,22892.17 1953.92,22918.63 1943.34,23278.46 3329.76,23379.01 4091.76,20463.29 3959.47,20288.66 "/>
                <polygon class="fil7 str0"
                         points="2588.92,20463.29 1953.92,22918.63 3260.97,22892.17 3906.55,20436.83 "/>
   </g>
            <path class="fil8 str1"
                  d="M19547.7 12273.99c396.99,699.42 160.82,2471.96 -521.67,2167.73l15.87 232.84 185.21 42.33c61.8,654.45 -1478.2,525.62 -1820.33,-84.67l148.16 -21.16 372.61 -1060 -118.61 -384.63 502.71 -201.09 -89.96 -545.04 418.05 -243.41 907.96 97.1z"/>
            <g>
    <rect class="fil6" x="33874.7" y="175.12" width="3723.4" height="2562.03"/>
                <rect class="fil0" x="33980.27" y="344.05" width="3434.82" height="2210.11"/>
                <rect class="fil6" x="35180.34" y="2737.16" width="1108.57" height="429.35"/>
                <polygon class="fil6" points="35180.34,3166.51 34874.16,3426.95 36000.34,3458.62 36288.92,3166.51 "/>
   </g>
            <g>
    <rect class="fil6" x="23116.67" y="10234.48" width="3733.26" height="2568.82"/>
                <rect class="fil0" x="23222.52" y="10403.86" width="3443.91" height="2215.96"/>
                <rect class="fil6" x="24425.77" y="12803.3" width="1111.51" height="430.49"/>
                <polygon class="fil6"
                         points="24425.77,13233.79 24118.78,13494.92 25247.93,13526.68 25537.28,13233.79 "/>
   </g>
            <g>
    <polygon class="fil0 str0" points="34286.56,6258 36842.13,6108.99 37058.2,9677.87 34517.53,9864.13 "/>
                <polygon class="fil6 str0"
                         points="36842.13,6108.99 36998.6,6265.46 37222.12,9811.98 34517.53,9864.13 37058.2,9677.87 "/>
                <polygon class="fil6 str0"
                         points="34666.54,8351.65 36775.08,8195.18 36879.39,9499.05 34741.05,9640.61 "/>
                <rect class="fil0 str0" transform="matrix(1.40681 -0.0578171 0.0578171 1.40681 35081.9 8557.22)"
                      width="904.88" height="66.15"/>
                <rect class="fil0 str0" transform="matrix(1.40681 -0.0578171 0.0578171 1.40681 35088 8795.6)"
                      width="1047.75" height="68.79"/>
                <rect class="fil0 str0" transform="matrix(1.40681 -0.0578171 0.0578171 1.40681 35121 9055.24)"
                      width="907.53" height="68.79"/>
                <rect class="fil0 str0" transform="matrix(1.40681 -0.0578171 0.0578171 1.40681 35361.9 9291.42)"
                      width="605.89" height="71.44"/>
                <ellipse class="fil6 str0" cx="35638.86" cy="7271.29" rx="1058" ry="637.03"/>
   </g>
            <g>
    <polygon class="fil0" points="23545.95,16746.7 26048.54,16600.78 26260.13,20095.67 23772.13,20278.07 "/>
                <polygon class="fil6"
                         points="26048.54,16600.78 26201.76,16754.01 26420.65,20227 23772.13,20278.07 26260.13,20095.67 "/>
                <polygon class="fil6"
                         points="23918.05,18796.94 25982.88,18643.72 26085.02,19920.56 23991.01,20059.18 "/>
                <rect class="fil0" transform="matrix(1.37764 -0.0566184 0.0566184 1.37764 24324.8 18998.3)"
                      width="904.88" height="66.15"/>
                <rect class="fil0" transform="matrix(1.37764 -0.0566184 0.0566184 1.37764 24330.8 19231.7)"
                      width="1047.75" height="68.79"/>
                <rect class="fil0" transform="matrix(1.37764 -0.0566184 0.0566184 1.37764 24363.1 19485.9)"
                      width="907.53" height="68.79"/>
                <rect class="fil0" transform="matrix(1.37764 -0.0566184 0.0566184 1.37764 24599 19717.2)" width="605.89"
                      height="71.44"/>
                <ellipse class="fil6" cx="24870.21" cy="17738.98" rx="1036.06" ry="623.83"/>
   </g>
            <g>
    <path class="fil6"
          d="M36471.28 12649.58l-1171.79 8.43 46.79 5882.25 232.28 164.86 383.3 1.53 0 247.41c-252.49,6.84 -449.6,64.3 -449.6,134.2 0,74.5 223.93,134.88 500.18,134.88 276.25,0 500.19,-60.38 500.19,-134.88 0,-67.8 -185.52,-123.91 -427.12,-133.44l0 -247.67 665.8 2.65 -43.05 -5813.88 -236.98 -246.34z"/>
                <polygon class="fil0"
                         points="35299.49,12658.01 35554.27,12867.83 36674.54,12882.81 36457.23,12650.51 "/>
                <polygon class="fil0" points="35343.6,12784.56 35500.97,12923.19 35500.96,13618.22 35343.6,13494.58 "/>
                <polygon class="fil0" points="35343.6,13621.82 35500.97,13775.13 35500.96,14543.75 35343.6,14407.02 "/>
                <polygon class="fil0" points="35343.6,14554.74 35500.97,14724.84 35500.96,15577.6 35343.6,15425.91 "/>
                <polygon class="fil0" points="35343.6,15561.16 35500.97,15725.27 35500.96,16548 35343.6,16401.64 "/>
                <polygon class="fil0" points="35347.27,16576.6 35504.64,16740.71 35504.62,17563.44 35347.27,17417.09 "/>
                <polygon class="fil0" points="35350.94,17592.04 35508.3,17756.15 35508.29,18578.88 35350.94,18432.53 "/>
                <rect class="fil0" x="35582.34" y="12933.35" width="1116.52" height="721.24"/>
                <rect class="fil0" x="35580.45" y="13764.18" width="1120.29" height="817.73"/>
                <rect class="fil0" x="35580.45" y="14719.59" width="1120.29" height="884.23"/>
                <rect class="fil0" x="35580.45" y="15712.15" width="1120.29" height="899.53"/>
                <rect class="fil0" x="35584.12" y="16727.59" width="1120.29" height="899.53"/>
                <rect class="fil0" x="35587.79" y="17743.03" width="1120.29" height="899.53"/>
   </g>
            <g>
    <path class="fil9 str1"
          d="M13011.26 16678.4l0.18 1117.01 5.62 9.74c14.9,1.39 112.4,2.58 120.15,-1.27 4.41,-8.27 2.28,-19.66 2.76,-30.98 0.46,-11.04 2.68,-18.36 5.01,-27.93 3.99,-16.32 -2.32,-13.12 7.69,-25.19 3.69,-4.44 1.07,-0.42 3.29,-5.1 1.72,-3.62 0.2,-2.1 2.39,-5.9l17.89 -18.94c15.47,-14.09 10.81,-6.52 16.8,-12.29 4.41,-4.23 1.19,-4.63 8.07,-7.78 7.1,-3.26 18.45,-3.86 26.25,-7.01 13.85,-5.58 48.36,-6.37 58.55,-2.39l12.03 4.49c15.78,4.67 23.7,10.46 35.89,21.37 17.08,15.28 32.51,27.31 38.78,51.1 9.38,35.54 -5.64,63.68 14.59,67.2l1248.69 -0.05c11.89,0 40.87,-1.42 50.79,0.79 23.7,5.26 20.58,3.71 50.18,3.6l313.21 -0.2c0,-18.65 -2.54,-81.48 1.28,-94.56 3.83,-19 0.42,-226.73 0.29,-264.79l-1.87 -529.78c-0.28,-86.68 -3.44,-178.15 -0.9,-264.09l-316.13 -0.17c-8.95,0.03 -17.91,0.25 -26.87,0.31 -20.41,0.17 -15.86,3.2 -21.54,4.85 -8.85,2.58 -967.61,0.74 -1097.26,0.74 -42.25,0 -173.61,-2.11 -204.58,0.18 -9.04,29.41 -6.63,13.63 -6.62,49.97l-0.02 698.82c0.09,20.08 1.64,33.66 -5.63,47.13 -0.22,0.41 -2.8,5.29 -2.88,5.47l-5.73 12.71c-6.21,11.47 -4.55,7.62 -14.04,12.25 -1.59,16.73 -0.35,9.1 -5.58,20.19l-2.18 7.96c-9.41,-3.25 5.4,-0.65 -7.02,-4.48 -12.84,-3.96 -9.27,6.92 -18.45,10.84l-7.79 2.61c-24.87,8.77 -103.76,1.77 -108.92,-2.64 -3.09,-5.69 -2.56,-13.15 -6.54,-18.84l-10.87 -3.7c-8.91,-2.51 -4.79,-0.13 -9.69,-4.67l-20.14 -22.4c-1.31,-2.61 -0.89,-2.84 -2.48,-5.89 -4.96,-9.53 -9.52,-8.11 -10.64,-21.5 -2.73,-32.88 -0.26,-77.19 -0.26,-111.31l0.02 -643.16c0.02,-4.45 0.3,-10.26 0.03,-14.55 -0.36,-5.6 -0.62,-10.43 -4.09,-11.67 -0.39,-0.13 -1.13,-0.44 -1.61,-0.61 -0.48,-0.15 -1.09,-0.39 -1.63,-0.55 -0.64,-0.2 -2.61,-0.74 -3.31,-0.9l-25.63 -1.27c-115.03,0.37 -71.38,-3.44 -89.53,17.23z"/>
                <path class="fil10 str1"
                      d="M13161.36 16442.86c9.94,-10.54 14.06,-19.63 26.07,-30.34 9.61,-8.56 5.63,-4.7 10.39,-14.38 7.38,-0.55 14.25,-0.33 19.26,-2.84l62.98 -5.69c11.34,1.73 1.91,0.04 7.67,2.66 6.25,2.85 9.18,2.91 15.38,5.03 21.37,7.34 16.85,10.97 26.25,15.17 8.47,3.79 9.71,-0.53 15.04,7.72 2.76,4.28 3.12,9.67 5.98,14.75 26.44,47.05 5.8,31.48 16.5,66.3 1.66,5.41 2.95,4.43 2.76,18.42 -0.12,8.71 -2.02,12.93 -2.02,18.51l0.01 61.85c0.07,38.87 4.46,51.59 -11.39,54.3l-204.22 -0.38c-7.66,-12.8 -6.36,-6.37 -6.54,-27.11l0.14 -105.15c-0.14,-34.7 3.7,-28.16 4.12,-43.22 0.09,-3.52 -0.3,-9.46 0.02,-12.63 0.81,-8.02 2.46,-6.21 6.24,-14.52l5.36 -8.45zm-149.02 1366.79l-0.9 -14.24 -0.18 -1117.01c-2.21,-39.01 10.74,-26.97 112.23,-26.98l14.11 1.96c5.93,1.88 4.25,2.25 7.22,8.12 6.44,12.71 3.03,73.38 3.03,89l0 618.43c0,39.83 -3.06,60.67 10.94,90.95 4.14,8.95 9.35,13.92 16.01,20.51 5.67,5.6 2.44,3.42 5.9,8.84 5.61,8.76 12.56,5.83 20.08,10.95l15.1 6.07c15.4,4.08 17.27,10.11 37.71,13.17 23.95,3.59 42.31,-4.95 60.34,-15.73l14.76 -10.05c0.32,-0.27 0.74,-0.71 1.05,-1 10.53,-9.63 8.7,-11.1 15.78,-21.24 3.61,-5.16 1.92,-0.14 7.12,-7.1 1.08,-1.44 14.22,-34.52 14.69,-36.39 5.32,-21.11 -2.53,-759.57 1.51,-765.52 1.09,-1.59 7.51,-10.26 10.2,-12.87 7.06,-6.84 8.95,-4.81 17.17,-2.66 19.78,5.15 1057.52,1.06 1262.35,1.67l22.44 -0.73c0.62,-0.12 1.34,-0.38 1.83,-0.48l3.74 -18.43c-1.69,-43.14 0.01,-86.72 0.01,-129.88 0,-39.92 3.41,-287.05 -1.76,-304.31 -2.39,-7.97 -2.74,-5.01 -6.81,-9.89l-3.64 -7.79c-1.06,-7.75 0.95,-9.18 -1.73,-17.34 -5.06,-15.42 -1.71,-25.38 -9.59,-36.13 -8.18,-11.15 -4.81,-27.91 -5.72,-41.91 -9.05,-3.12 -1.57,-4.03 -13.21,-5.22 -0.1,-29.81 -13.99,-30.9 -16.75,-48.05l-1.55 -9.34c-0.21,-0.56 -0.47,-1.06 -0.72,-1.58 -0.23,-0.48 -0.57,-0.94 -0.84,-1.38 -8.37,-13.95 -13.25,-13.53 -13.92,-35.78l-9.53 -4.83c-0.3,-0.28 -0.66,-0.77 -0.95,-1.07l-6.48 -6.12c-3.48,-2.9 -4.47,-5.61 -9.35,-7.29 1.83,-7.69 2.28,-3.77 0.1,-11.36l-7.88 -15.45c-6,-6.9 -14.45,-11.86 -19.38,-19.54 -4.98,-7.76 -4.17,-10.91 -11.95,-17.46 -5.99,-5.05 -4.81,-11.45 -14.15,-13.59 -1.87,-0.42 -3.65,-0.66 -5.52,-0.98 -4.04,-0.67 -5.83,-1.41 -11.32,-1.63l-3.74 -18.68c-2.35,-5.83 -6.04,-6.61 -9.57,-9.25 -23.26,-17.39 -9.46,-3.28 -24.53,-22.55 -5.97,-7.64 -14.91,-11.55 -24.41,-12.18 -4.46,-0.29 -1.18,0.47 -4.14,-1.22l-11.78 -4.28c-1.1,-15.12 -1.19,-3.18 -7.4,-16.77l-2.31 -4.36c-9.33,-12.54 -25.26,-1.37 -34.61,-13.67 -0.11,-0.15 -0.42,-0.62 -0.52,-0.78 -8.92,-14.99 4.07,-13.04 -27.02,-13.92 -5.69,-22.04 -39.43,-13.15 -42.4,-15.61l-4.6 -7.59c-8.77,-8.58 -34.78,-8.09 -47.97,-11.57l-3.23 -1.98c-0.2,-0.16 -0.6,-0.63 -0.82,-0.81 -7.46,-5.86 -14.75,-5.76 -24.57,-12.35 -12.31,-8.27 -40.92,-3.73 -57.74,-3.69 -45.07,0.11 -15.25,-5.37 -38.87,-7.46 -35.64,-3.17 -103.73,1.05 -144.52,0 -60.88,-1.57 -128.6,-1.26 -189.57,-0.08 -26.2,0.51 -72.65,-4.91 -93.96,1.64 -12.5,3.83 -23.98,-1.87 -39.96,-2.02l-29.61 3.03c-4.1,1.95 -4.08,4.22 -9.81,2.6 1.82,-4.36 5.19,-2.11 8.23,-6.54 4.23,-6.16 4.03,-34.5 1.66,-43.07l-2.64 -6.04 0.52 47.99c-115.65,6.23 -187.11,-0.03 -295.21,47.94 -166.18,73.74 -262.27,195.73 -313.29,372.52 -13.92,48.24 -24.64,94.04 -24.64,147.91l-0.03 344.26c-0.03,29.88 -3.29,51.59 -3.29,80.39l0.52 1107.17c1.15,10.61 -1.84,5.85 4.24,9.7z"/>
                <path class="fil10 str1"
                      d="M13360.84 17803.51c1.43,11.64 8.08,6.43 11.06,12.74 3.06,6.47 2.71,110.66 -10.71,137.21 -5.14,10.16 -6.51,5.67 -12.83,13.71 -15.6,19.88 -7.99,6.65 -21.18,15.7 -7.83,5.38 -0.6,3.97 -15.72,10.9l-17.54 9.58c-8.82,7.16 -4.06,5.46 -19.94,5.86 -8.7,0.23 -17.62,0.74 -26.21,-0.43 -5.48,-0.74 -16.18,-2.5 -22.76,-4.09 -17.46,-4.22 -23.45,-3.87 -29.3,-10.99 -10.35,-12.59 -16.34,-12.34 -32.04,-30l-12.14 -16.73c-4.15,-5.46 -8.78,-33.68 -9.1,-44.05 -0.57,-17.81 0.17,-35.83 0,-53.68 -0.15,-16.88 -3.26,-30.14 9.91,-41.14 12.57,-10.5 179.31,3.16 208.5,-4.59zm-350 8.94c-2.57,225.01 -0.24,461.31 0.14,688.19 0.04,21.53 -3.74,100.45 2.57,114.06 4.99,10.73 12.05,18.4 18.74,38.62 8.58,25.89 8.42,9.1 16.62,32.54l1.33 3.27c0.11,-0.31 0.4,1.15 0.75,1.64 4.76,2.97 7.54,2.42 11.54,6.83 4.13,4.56 1.78,4.75 6.26,10.21 2.4,2.93 17.3,14.05 19.8,15.47 11.96,6.79 9.94,10.55 19.92,15.1 27.76,12.66 4.16,8.43 22.74,12.21 29.29,5.95 25.12,13.45 56.01,14.15 22.57,0.52 45.47,0.13 68.07,0.1l1388.81 -2.4c54.39,-0.2 234.37,2.43 274.38,-3.97 22.29,-3.56 16.59,-4.32 38.04,-15.29 16.21,-8.29 34.47,-24.65 47.47,-37.08 27.86,-26.65 28.34,-38.4 42.05,-63.18 9.72,-17.56 1.62,-17.85 10.16,-23.33l0 -201.46 -2.66 0c-6.1,22.65 0.85,125.45 -0.91,160.85 -0.39,7.93 0.25,19.47 -0.56,26.46l-24.58 60.56c-11.42,14.91 -9.47,16.26 -13.92,20.82l-7.71 6.82c-0.32,0.33 -0.72,0.79 -1.03,1.13l-4.69 5.42c-3.55,3.57 -2.8,2.53 -6.62,5.41 -15.55,11.74 1.06,2.05 -23.53,17.64 -12.27,7.78 -9.6,13.46 -32.79,19.98 -42.43,11.93 -26.06,15.11 -76.75,15.11 -95.03,0 -235.17,6.26 -318.93,1 5.27,-2.1 6.28,-1.5 11.42,-3.2 9.49,-3.13 -2.08,1.6 7.36,-5.26l40.6 -20.96c5.74,-2.35 12.12,-2.03 14.8,-16.5 24.37,-1.05 12.23,-9.45 21.62,-17.45 1.7,-1.45 9.8,-4.1 12.53,-6.04 6.99,-4.99 3.66,-3.84 6.39,-12.28l11.58 -27.71c2.45,-6.77 0.68,-9.69 3.48,-15.12 2.82,-5.47 4.22,4.65 4.66,-13.65 10.18,-1.21 11.4,-5.01 11.76,-15.22 0.28,-7.86 -0.14,-16.88 -0.14,-24.9l0.53 -752.56c-0.87,-14.24 -4.01,-13.1 -23.39,-12.91 -212.7,2.18 -436.13,0.03 -649.09,0.03 -193.93,0 -395.79,-1.77 -589.32,0.05 -10.5,0.09 -33.59,2.14 -39.27,1.87 -13.95,-0.66 -10.67,-17.69 -26.24,-14.01 7.16,-23.35 2.62,-45.61 0.04,-53.04l-5.06 -16.91c-2.34,-16.3 -2.25,-6.59 -11.9,-13.99 -1.09,-23.65 -5.27,-7.73 -18.67,-20.61l-3.25 -3.18c-0.31,-0.29 -0.8,-0.68 -1.11,-0.97l-2.08 -1.89c-3.28,-3.32 -5.48,-7.58 -13.52,-11.76 -16.28,-8.46 -51.3,-8.37 -68.67,-6.85 -15.75,1.39 -14.66,5.8 -17.93,8.22 -9.74,7.24 -14.45,0.42 -20.76,9.96 -8.52,12.88 5,-1.37 -4.95,3.3l-13.58 11.09c-5.14,4.24 -17.09,16.76 -19.02,23.01 -16.37,52.92 -6.72,50.96 -11.69,73.99 -13.35,6.15 -5.69,15.72 -24.3,13.27l-79.33 -1.44c-13.25,0.57 -16.71,4.16 -28.45,-0.5 -0.62,-0.25 -1.34,-0.62 -1.85,-0.84l-3.92 -1.92z"/>
                <path class="fil10 str1"
                      d="M13643.52 15651.77l2.64 6.04c2.37,8.57 2.57,36.91 -1.66,43.07 -3.04,4.43 -6.41,2.18 -8.23,6.54 5.73,1.62 5.71,-0.65 9.81,-2.6l29.61 -3.03c15.98,0.15 27.46,5.85 39.96,2.02 21.31,-6.55 67.76,-1.13 93.96,-1.64 60.97,-1.18 128.69,-1.49 189.57,0.08 40.79,1.05 108.88,-3.17 144.52,0 23.62,2.09 -6.2,7.57 38.87,7.46 16.82,-0.04 45.43,-4.58 57.74,3.69 9.82,6.59 17.11,6.49 24.57,12.35 0.22,0.18 0.62,0.65 0.82,0.81l3.23 1.98c13.19,3.48 39.2,2.99 47.97,11.57l4.6 7.59c2.97,2.46 36.71,-6.43 42.4,15.61 31.09,0.88 18.1,-1.07 27.02,13.92 0.1,0.16 0.41,0.63 0.52,0.78 9.35,12.3 25.28,1.13 34.61,13.67l2.31 4.36c6.21,13.59 6.3,1.65 7.4,16.77l11.78 4.28c2.96,1.69 -0.32,0.93 4.14,1.22 9.5,0.63 18.44,4.54 24.41,12.18 15.07,19.27 1.27,5.16 24.53,22.55 3.53,2.64 7.22,3.42 9.57,9.25l3.74 18.68c5.49,0.22 7.28,0.96 11.32,1.63 1.87,0.32 3.65,0.56 5.52,0.98 9.34,2.14 8.16,8.54 14.15,13.59 7.78,6.55 6.97,9.7 11.95,17.46 4.93,7.68 13.38,12.64 19.38,19.54l7.88 15.45c2.18,7.59 1.73,3.67 -0.1,11.36 4.88,1.68 5.87,4.39 9.35,7.29l6.48 6.12c0.29,0.3 0.65,0.79 0.95,1.07l9.53 4.83c0.67,22.25 5.55,21.83 13.92,35.78 0.27,0.44 0.61,0.9 0.84,1.38 0.25,0.52 0.51,1.02 0.72,1.58l1.55 9.34c2.76,17.15 16.65,18.24 16.75,48.05 11.64,1.19 4.16,2.1 13.21,5.22 0.91,14 -2.46,30.76 5.72,41.91 7.88,10.75 4.53,20.71 9.59,36.13 2.68,8.16 0.67,9.59 1.73,17.34l3.64 7.79c4.07,4.88 4.42,1.92 6.81,9.89 5.17,17.26 1.76,264.39 1.76,304.31 0,43.16 -1.7,86.74 -0.01,129.88l-3.74 18.43c-0.49,0.1 -1.21,0.36 -1.83,0.48l-22.44 0.73c-204.83,-0.61 -1242.57,3.48 -1262.35,-1.67 -8.22,-2.15 -10.11,-4.18 -17.17,2.66 -2.69,2.61 -9.11,11.28 -10.2,12.87 -4.04,5.95 3.81,744.41 -1.51,765.52 -0.47,1.87 -13.61,34.95 -14.69,36.39 -5.2,6.96 -3.51,1.94 -7.12,7.1 -7.08,10.14 -5.25,11.61 -15.78,21.24 -0.31,0.29 -0.73,0.73 -1.05,1l-14.76 10.05c-18.03,10.78 -36.39,19.32 -60.34,15.73 -20.44,-3.06 -22.31,-9.09 -37.71,-13.17l-15.1 -6.07c-7.52,-5.12 -14.47,-2.19 -20.08,-10.95 -3.46,-5.42 -0.23,-3.24 -5.9,-8.84 -6.66,-6.59 -11.87,-11.56 -16.01,-20.51 -14,-30.28 -10.94,-51.12 -10.94,-90.95l0 -618.43c0,-15.62 3.41,-76.29 -3.03,-89 -2.97,-5.87 -1.29,-6.24 -7.22,-8.12l-14.11 -1.96c-101.49,0.01 -114.44,-12.03 -112.23,26.98 18.15,-20.67 -25.5,-16.86 89.53,-17.23l25.63 1.27c0.7,0.16 2.67,0.7 3.31,0.9 0.54,0.16 1.15,0.4 1.63,0.55 0.48,0.17 1.22,0.48 1.61,0.61 3.47,1.24 3.73,6.07 4.09,11.67 0.27,4.29 -0.01,10.1 -0.03,14.55l-0.02 643.16c0,34.12 -2.47,78.43 0.26,111.31 1.12,13.39 5.68,11.97 10.64,21.5 1.59,3.05 1.17,3.28 2.48,5.89l20.14 22.4c4.9,4.54 0.78,2.16 9.69,4.67l10.87 3.7c3.98,5.69 3.45,13.15 6.54,18.84 5.16,4.41 84.05,11.41 108.92,2.64l7.79 -2.61c9.18,-3.92 5.61,-14.8 18.45,-10.84 12.42,3.83 -2.39,1.23 7.02,4.48l2.18 -7.96c5.23,-11.09 3.99,-3.46 5.58,-20.19 9.49,-4.63 7.83,-0.78 14.04,-12.25l5.73 -12.71c0.08,-0.18 2.66,-5.06 2.88,-5.47 7.27,-13.47 5.72,-27.05 5.63,-47.13l0.02 -698.82c-0.01,-36.34 -2.42,-20.56 6.62,-49.97 30.97,-2.29 162.33,-0.18 204.58,-0.18 129.65,0 1088.41,1.84 1097.26,-0.74 5.68,-1.65 1.13,-4.68 21.54,-4.85 8.96,-0.06 17.92,-0.28 26.87,-0.31l316.13 0.17c1.65,-63.81 -0.54,-131.34 -0.8,-195.61 -0.26,-65.97 -0.49,-131.93 -0.71,-197.9 -0.24,-68.56 3.53,-123.01 -17.05,-180.73 -17.61,-49.38 -20.1,-59.08 -45.61,-102.64 -27.23,-46.5 -72.35,-100.92 -112.16,-132.63 -83.92,-66.85 -154.55,-103.88 -265.98,-129.68 -83.67,-19.38 -160.62,-13.11 -179.81,-17.8 -3.4,-57.33 0.19,-167.53 -0.47,-236.42 -0.11,-11.24 -0.05,-10.4 -2.85,-15.15 2.41,41.5 0.68,88.41 0.68,130.66 0,41.66 0.91,86.57 -0.66,127.89 -7.86,-1.42 -6.52,-5.56 -18.7,-6.43 -6.15,-0.45 -16.92,0.58 -24.37,0.48 -62.8,-0.79 -132.55,-0.01 -193.78,-4.21 -14.93,-1.02 -33.66,0.37 -49.36,0.14 -96.11,-1.37 -197.73,0.74 -294.66,0.03l-173.09 -0.17c-3.57,0.03 -9.18,0.4 -12.44,0.18 -3.39,-0.22 -2.78,-0.29 -5.54,-0.84 -0.43,-0.09 -1.35,0.11 -1.65,-0.55 -0.3,-0.64 -1.11,-0.33 -1.61,-0.6l-1.14 -229.39c0.44,-18.26 1.99,-15.15 6.64,-24.02l13.11 -33.02c-12.68,6.68 -21.84,23.93 -24.04,43.3 -2.25,19.75 -0.69,46.91 -0.52,67.43 0.34,44.39 1.74,89.87 1.22,134z"/>
                <path class="fil10 str1"
                      d="M13011.44 17795.41l0.9 14.24 -1.5 2.8 3.92 1.92c0.51,0.22 1.23,0.59 1.85,0.84 11.74,4.66 15.2,1.07 28.45,0.5l79.33 1.44c18.61,2.45 10.95,-7.12 24.3,-13.27 4.97,-23.03 -4.68,-21.07 11.69,-73.99 1.93,-6.25 13.88,-18.77 19.02,-23.01l13.58 -11.09c9.95,-4.67 -3.57,9.58 4.95,-3.3 6.31,-9.54 11.02,-2.72 20.76,-9.96 3.27,-2.42 2.18,-6.83 17.93,-8.22 17.37,-1.52 52.39,-1.61 68.67,6.85 8.04,4.18 10.24,8.44 13.52,11.76l2.08 1.89c0.31,0.29 0.8,0.68 1.11,0.97l3.25 3.18c13.4,12.88 17.58,-3.04 18.67,20.61 9.65,7.4 9.56,-2.31 11.9,13.99l5.06 16.91c2.58,7.43 7.12,29.69 -0.04,53.04 15.57,-3.68 12.29,13.35 26.24,14.01 5.68,0.27 28.77,-1.78 39.27,-1.87 193.53,-1.82 395.39,-0.05 589.32,-0.05 212.96,0 436.39,2.15 649.09,-0.03 19.38,-0.19 22.52,-1.33 23.39,12.91l-0.53 752.56c0,8.02 0.42,17.04 0.14,24.9 -0.36,10.21 -1.58,14.01 -11.76,15.22 -0.44,18.3 -1.84,8.18 -4.66,13.65 -2.8,5.43 -1.03,8.35 -3.48,15.12l-11.58 27.71c-2.73,8.44 0.6,7.29 -6.39,12.28 -2.73,1.94 -10.83,4.59 -12.53,6.04 -9.39,8 2.75,16.4 -21.62,17.45 -2.68,14.47 -9.06,14.15 -14.8,16.5l-40.6 20.96c-9.44,6.86 2.13,2.13 -7.36,5.26 -5.14,1.7 -6.15,1.1 -11.42,3.2 83.76,5.26 223.9,-1 318.93,-1 50.69,0 34.32,-3.18 76.75,-15.11 23.19,-6.52 20.52,-12.2 32.79,-19.98 24.59,-15.59 7.98,-5.9 23.53,-17.64 3.82,-2.88 3.07,-1.84 6.62,-5.41l4.69 -5.42c0.31,-0.34 0.71,-0.8 1.03,-1.13l7.71 -6.82c4.45,-4.56 2.5,-5.91 13.92,-20.82l24.58 -60.56c0.81,-6.99 0.17,-18.53 0.56,-26.46 1.76,-35.4 -5.19,-138.2 0.91,-160.85 5.05,-18.59 0.94,-147.34 0.82,-177.22 -0.24,-59.1 -0.38,-118.19 -0.63,-177.29 -0.16,-38.12 2.08,-341.35 -2.42,-349.51 -3.82,13.08 -1.28,75.91 -1.28,94.56l-313.21 0.2c-29.6,0.11 -26.48,1.66 -50.18,-3.6 -9.92,-2.21 -38.9,-0.79 -50.79,-0.79l-1248.69 0.05c-20.23,-3.52 -5.21,-31.66 -14.59,-67.2 -6.27,-23.79 -21.7,-35.82 -38.78,-51.1 -12.19,-10.91 -20.11,-16.7 -35.89,-21.37l-12.03 -4.49c-10.19,-3.98 -44.7,-3.19 -58.55,2.39 -7.8,3.15 -19.15,3.75 -26.25,7.01 -6.88,3.15 -3.66,3.55 -8.07,7.78 -5.99,5.77 -1.33,-1.8 -16.8,12.29l-17.89 18.94c-2.19,3.8 -0.67,2.28 -2.39,5.9 -2.22,4.68 0.4,0.66 -3.29,5.1 -10.01,12.07 -3.7,8.87 -7.69,25.19 -2.33,9.57 -4.55,16.89 -5.01,27.93 -0.48,11.32 1.65,22.71 -2.76,30.98 -7.75,3.85 -105.25,2.66 -120.15,1.27l-5.62 -9.74z"/>
                <path class="fil10 str1"
                      d="M14164.03 15114.7c2.3,-3.64 4.87,-14.25 25.43,-17.97l0.69 50.25c-4.25,0.55 -6.87,0.84 -10.15,1.58 -5.88,1.32 3.69,4.03 -5.07,0.81 -1.44,15.51 -4.13,9 -5.26,19.46 -2.88,-6.66 -3.18,-7.94 -13.86,-7.65 -7.3,0.19 -9.1,1.7 -15.96,4.88 -29.71,13.8 -20.68,6.29 -27.34,17.25 -38.9,1.18 -12.22,7.28 -55.63,4.76 -0.18,-0.28 -0.48,-0.7 -0.55,-0.82l-3.42 -14.11c-0.51,-4.52 0.86,-22.12 5.03,-27.36 3.92,-4.93 1.56,-2.03 6.89,-5.69 7.43,-5.11 32.32,-11.89 37.35,-12.31 42.4,-3.55 35.65,-13.18 61.85,-13.08zm-384.57 245.29c-32.03,-2.88 -105.3,28.59 -112.6,47.05l-13.11 33.02c-4.65,8.87 -6.2,5.76 -6.64,24.02l1.14 229.39c0.5,0.27 1.31,-0.04 1.61,0.6 0.3,0.66 1.22,0.46 1.65,0.55 2.76,0.55 2.15,0.62 5.54,0.84 3.26,0.22 8.87,-0.15 12.44,-0.18l173.09 0.17c96.93,0.71 198.55,-1.4 294.66,-0.03 15.7,0.23 34.43,-1.16 49.36,-0.14 61.23,4.2 130.98,3.42 193.78,4.21 7.45,0.1 18.22,-0.93 24.37,-0.48 12.18,0.87 10.84,5.01 18.7,6.43 1.57,-41.32 0.66,-86.23 0.66,-127.89 0,-42.25 1.73,-89.16 -0.68,-130.66 -0.13,-29.69 -31.77,-72.62 -71.67,-85.6 -22.28,-7.25 -45.85,-5.61 -72.34,-5.85 -18.59,-0.17 -64.65,-3.17 -79.53,0.23 -14.65,-3.62 -8.09,-9.89 -7.63,-25.4 1.25,-42.14 2.06,-225.41 -2.03,-240.76 -21.48,3.3 -9.92,8.96 -24.31,11.97 -7.28,1.52 -9.62,-0.07 -15.6,2.95 -7.53,3.81 -0.6,2.82 -10.8,5.63 -5.75,1.59 -9.86,1.13 -16.2,2.61 -7.72,1.79 -4.81,2.83 -12.65,5.49 -15.89,5.39 -12.51,-2.86 -24.94,9.85 -9.12,0.33 -21.56,-0.09 -28.2,3.04 -31.69,14.92 -8.12,4.93 -35.25,9.86 -6,1.09 -5.33,2.15 -10.33,3.92l-54.06 5.71c-10.56,0.76 -17.02,3.25 -26.73,3.34 -18.12,0.17 -9.71,-6.21 -24.65,1.08 -8.37,4.08 -15.79,1.89 -26.54,2.36l-0.35 156.38c-0.23,34.4 7.8,18.26 3.49,33.91 -3.73,13.53 -13.72,11.84 -28.14,11.7 -14.34,-0.13 -66.99,2.3 -75.51,0.68z"/>
                <path class="fil10 str1"
                      d="M13637.72 14976.79c10.56,-9.81 4.43,-11.5 23.84,-13.7 11.43,-1.3 26.55,-2.43 32.62,4.42 5.58,6.28 7.11,20.29 3.77,29.95 -3.22,9.34 -10.46,14.58 -18.96,18.84 -16,8.04 -38.72,23.14 -56.12,8.06 -8.08,-7 -6.06,-17.71 -5.34,-30.74l20.19 -16.83zm230.28 377.25c10.88,-11.71 7.16,-28.16 7.17,-46.53 0.01,-27.72 3.64,-140 -5.86,-150.37 -2.75,-1.72 2.21,-0.22 -4.48,-1.67 -2.37,-0.51 -3.2,-0.51 -5.61,-0.64 -21.93,-1.17 -54.48,1 -82.66,-0.68 -35.13,-2.1 -18.58,-6.24 -38.92,-7.04 -31.36,-1.23 -89.08,-11.63 -113.46,-29.47 -22.82,-16.68 -12.29,-11.45 -23.12,-24.13 -9.18,-10.75 -12.68,-14.19 -11.19,-32.81 4.09,1.15 20.12,21.3 32.16,23 14.22,2.02 8.81,-4.2 24.54,3.61 6.11,3.03 2.29,2.07 12.63,2.36 15.41,0.43 6.98,1.22 16.81,3.1l19.74 1.13c6.75,0.81 14.66,2.56 21.6,4.96 16.54,5.73 142.67,2.01 160.22,0.42 18.23,-1.66 31.05,-3.37 51.72,-4 17.86,-0.54 4.02,-6.79 45.17,-8.29l0 -3.18c29.37,-1.38 17.78,-2.59 29.15,-4.2 25.45,-3.6 28.8,-3.63 52.25,-11.81 17.64,-6.16 27.86,-1.26 50.36,-13.8 7.78,-4.34 2.17,-6.19 22.83,-7.51 19.22,-1.24 12.57,-5.01 23.2,-8.22 17.53,-5.3 7.65,1.8 17.96,-12.17 21.91,-1.32 37.9,-14.15 73.05,-22.45 13.81,-3.26 13.2,-0.7 24.94,-6.02 4.58,-2.07 1.35,0.07 5.66,-2.76 9.77,-6.41 0.97,-4.71 15.51,-6.6 18.37,-2.37 17.65,0.37 26.17,-5.35 11.45,-7.7 10.19,-3.16 25.81,-4.71 12.93,-1.28 4.42,-1.7 12.86,-3.53 3.59,-0.78 9.9,-0.85 13.75,-0.97 45.21,-1.42 77.16,-1.56 120.79,4.78l41.57 5.99c10.17,2.21 -0.88,1.44 10.97,3.52l54.62 7.06c-0.34,0.1 -3.61,0.94 -4.28,1.35 -5.33,3.21 -2.04,-1.72 -1.07,1.81 14.46,0.55 14.17,-1.25 23.47,5.51 9.98,7.26 9.4,3.93 21.6,7.34 7.21,2.02 12.7,5.8 21.33,7.67 7.84,1.69 18.32,2.36 24.68,4.39 12.81,4.09 27.39,15.93 45.8,9.26 8.53,-3.08 10.01,-6.04 20.53,-8.13 15.34,-3.04 7.77,0.23 15.68,-10.42 19.17,0.57 34.9,22.46 48.27,27.74 -1.29,7.33 -4.81,12.47 -10.3,17.29 -58.75,51.66 -30.06,43.13 -64.28,31.31 -3.97,-1.37 -8.19,-1.88 -11.93,-3.21 -5.68,-2.02 -2.62,-1.58 -8.86,-4.9 -25.86,-13.77 -58.48,-23.28 -86.85,-30.74 -5.67,-1.5 -15.74,-6.16 -20.73,-7.05 -8.93,-1.6 -18.4,-0.73 -26.61,-3.11 -10.38,-3 -8.87,-5.47 -23.64,-6.46 -10.12,-0.68 -17.77,-1.06 -27.96,-2.31 -9.36,-1.15 -15.95,-2.93 -22.89,-5.24 -9.68,-3.24 -12.8,-3.39 -23.42,-4.78 -13.96,-1.82 -38.12,0.6 -54.63,0.89 -24.06,0.43 -38.61,-1 -48.93,9.94 38.67,-2.1 68.38,-6.09 108.41,-1.75 36.12,3.92 65.37,8.73 99.05,16.1 31.7,6.94 59.68,16.67 89.09,26.38 22.71,7.5 70.1,29.92 82.09,32.88 20.49,-15.64 43.43,-43.84 63.09,-63.6 -32.82,-32.35 -106.9,-66.24 -160.69,-83.02 -90.61,-28.26 -178.84,-34.79 -275.44,-33.24 -19.85,0.32 -37.71,3.1 -57.68,3.59 -35.03,0.86 -75.39,9.28 -109.42,14.44 -172.55,26.17 -276.84,35.31 -448.62,-0.24 -32.17,-6.65 -80.66,-25.36 -118.84,-13.93 -3.42,1.02 -3.67,1.37 -5.97,2.42 -22.28,10.15 -43.44,23.84 -56.45,44.88 -11.21,18.13 -8.76,26.4 -15.78,46.24 -7.1,20.04 7.83,56.02 18.83,71.37 13.87,19.34 9.4,18.07 31.75,30.56 5.76,3.22 11.44,8.1 19,11.31 59.71,25.38 159.53,22.26 222.96,20.75 1.38,36.96 4.24,164.46 1.73,195.69z"/>
                <path class="fil10 str1"
                      d="M13868 15354.04c-15.41,-0.89 -78.2,-2.44 -88.54,5.95 8.52,1.62 61.17,-0.81 75.51,-0.68 14.42,0.14 24.41,1.83 28.14,-11.7 4.31,-15.65 -3.72,0.49 -3.49,-33.91l0.35 -156.38c10.75,-0.47 18.17,1.72 26.54,-2.36 14.94,-7.29 6.53,-0.91 24.65,-1.08 9.71,-0.09 16.17,-2.58 26.73,-3.34l54.06 -5.71c5,-1.77 4.33,-2.83 10.33,-3.92 27.13,-4.93 3.56,5.06 35.25,-9.86 6.64,-3.13 19.08,-2.71 28.2,-3.04 12.43,-12.71 9.05,-4.46 24.94,-9.85 7.84,-2.66 4.93,-3.7 12.65,-5.49 6.34,-1.48 10.45,-1.02 16.2,-2.61 10.2,-2.81 3.27,-1.82 10.8,-5.63 5.98,-3.02 8.32,-1.43 15.6,-2.95 14.39,-3.01 2.83,-8.67 24.31,-11.97 4.09,15.35 3.28,198.62 2.03,240.76 -0.46,15.51 -7.02,21.78 7.63,25.4 -4.55,-14.65 -2.56,-240.99 0.81,-264.61 24.39,-22.52 134,-53.99 180.19,-57.85 10.32,-10.94 24.87,-9.51 48.93,-9.94 16.51,-0.29 40.67,-2.71 54.63,-0.89 10.62,1.39 13.74,1.54 23.42,4.78 6.94,2.31 13.53,4.09 22.89,5.24 10.19,1.25 17.84,1.63 27.96,2.31 14.77,0.99 13.26,3.46 23.64,6.46 8.21,2.38 17.68,1.51 26.61,3.11 4.99,0.89 15.06,5.55 20.73,7.05 28.37,7.46 60.99,16.97 86.85,30.74 6.24,3.32 3.18,2.88 8.86,4.9 3.74,1.33 7.96,1.84 11.93,3.21 34.22,11.82 5.53,20.35 64.28,-31.31 5.49,-4.82 9.01,-9.96 10.3,-17.29 -13.37,-5.28 -29.1,-27.17 -48.27,-27.74 -7.91,10.65 -0.34,7.38 -15.68,10.42 -10.52,2.09 -12,5.05 -20.53,8.13 -18.41,6.67 -32.99,-5.17 -45.8,-9.26 -6.36,-2.03 -16.84,-2.7 -24.68,-4.39 -8.63,-1.87 -14.12,-5.65 -21.33,-7.67 -12.2,-3.41 -11.62,-0.08 -21.6,-7.34 -9.3,-6.76 -9.01,-4.96 -23.47,-5.51 -0.97,-3.53 -4.26,1.4 1.07,-1.81 0.67,-0.41 3.94,-1.25 4.28,-1.35l-54.62 -7.06c-11.85,-2.08 -0.8,-1.31 -10.97,-3.52l-41.57 -5.99c-43.63,-6.34 -75.58,-6.2 -120.79,-4.78 -3.85,0.12 -10.16,0.19 -13.75,0.97 -8.44,1.83 0.07,2.25 -12.86,3.53 -15.62,1.55 -14.36,-2.99 -25.81,4.71 -8.52,5.72 -7.8,2.98 -26.17,5.35 -14.54,1.89 -5.74,0.19 -15.51,6.6 -4.31,2.83 -1.08,0.69 -5.66,2.76 -11.74,5.32 -11.13,2.76 -24.94,6.02 -35.15,8.3 -51.14,21.13 -73.05,22.45 -10.31,13.97 -0.43,6.87 -17.96,12.17 -10.63,3.21 -3.98,6.98 -23.2,8.22 -20.66,1.32 -15.05,3.17 -22.83,7.51 -22.5,12.54 -32.72,7.64 -50.36,13.8 -23.45,8.18 -26.8,8.21 -52.25,11.81 -11.37,1.61 0.22,2.82 -29.15,4.2l0 3.18c-41.15,1.5 -27.31,7.75 -45.17,8.29 -20.67,0.63 -33.49,2.34 -51.72,4 -17.55,1.59 -143.68,5.31 -160.22,-0.42 -6.94,-2.4 -14.85,-4.15 -21.6,-4.96l-19.74 -1.13c-9.83,-1.88 -1.4,-2.67 -16.81,-3.1 -10.34,-0.29 -6.52,0.67 -12.63,-2.36 -15.73,-7.81 -10.32,-1.59 -24.54,-3.61 -12.04,-1.7 -28.07,-21.85 -32.16,-23 -1.49,18.62 2.01,22.06 11.19,32.81 10.83,12.68 0.3,7.45 23.12,24.13 24.38,17.84 82.1,28.24 113.46,29.47 20.34,0.8 3.79,4.94 38.92,7.04 28.18,1.68 60.73,-0.49 82.66,0.68 2.41,0.13 3.24,0.13 5.61,0.64 6.69,1.45 1.73,-0.05 4.48,1.67 9.5,10.37 5.87,122.65 5.86,150.37 -0.01,18.37 3.71,34.82 -7.17,46.53z"/>
                <path class="fil7 str1"
                      d="M13197.82 16398.14c-4.76,9.68 -0.78,5.82 -10.39,14.38 -12.01,10.71 -16.13,19.8 -26.07,30.34l-5.36 8.45c-3.78,8.31 -5.43,6.5 -6.24,14.52 -0.32,3.17 0.07,9.11 -0.02,12.63 -0.42,15.06 -4.26,8.52 -4.12,43.22l-0.14 105.15c0.18,20.74 -1.12,14.31 6.54,27.11l204.22 0.38c15.85,-2.71 11.46,-15.43 11.39,-54.3l-0.01 -61.85c0,-5.58 1.9,-9.8 2.02,-18.51 0.19,-13.99 -1.1,-13.01 -2.76,-18.42 -10.7,-34.82 9.94,-19.25 -16.5,-66.3 -2.86,-5.08 -3.22,-10.47 -5.98,-14.75 -5.33,-8.25 -6.57,-3.93 -15.04,-7.72 -9.4,-4.2 -4.88,-7.83 -26.25,-15.17 -6.2,-2.12 -9.13,-2.18 -15.38,-5.03 -5.76,-2.62 3.67,-0.93 -7.67,-2.66l-62.98 5.69c-5.01,2.51 -11.88,2.29 -19.26,2.84z"/>
                <path class="fil7 str1"
                      d="M13360.84 17803.51c-29.19,7.75 -195.93,-5.91 -208.5,4.59 -13.17,11 -10.06,24.26 -9.91,41.14 0.17,17.85 -0.57,35.87 0,53.68 0.32,10.37 4.95,38.59 9.1,44.05l12.14 16.73c15.7,17.66 21.69,17.41 32.04,30 5.85,7.12 11.84,6.77 29.3,10.99 6.58,1.59 17.28,3.35 22.76,4.09 8.59,1.17 17.51,0.66 26.21,0.43 15.88,-0.4 11.12,1.3 19.94,-5.86l17.54 -9.58c15.12,-6.93 7.89,-5.52 15.72,-10.9 13.19,-9.05 5.58,4.18 21.18,-15.7 6.32,-8.04 7.69,-3.55 12.83,-13.71 13.42,-26.55 13.77,-130.74 10.71,-137.21 -2.98,-6.31 -9.63,-1.1 -11.06,-12.74z"/>
                <path class="fil10 str1"
                      d="M14164.03 15114.7c-26.2,-0.1 -19.45,9.53 -61.85,13.08 -5.03,0.42 -29.92,7.2 -37.35,12.31 -5.33,3.66 -2.97,0.76 -6.89,5.69 -4.17,5.24 -5.54,22.84 -5.03,27.36l3.42 14.11c0.07,0.12 0.37,0.54 0.55,0.82 43.41,2.52 16.73,-3.58 55.63,-4.76 6.66,-10.96 -2.37,-3.45 27.34,-17.25 6.86,-3.18 8.66,-4.69 15.96,-4.88 10.68,-0.29 10.98,0.99 13.86,7.65 1.13,-10.46 3.82,-3.95 5.26,-19.46 8.76,3.22 -0.81,0.51 5.07,-0.81 3.28,-0.74 5.9,-1.03 10.15,-1.58l-0.69 -50.25c-20.56,3.72 -23.13,14.33 -25.43,17.97z"/>
                <path class="fil11 str1"
                      d="M13617.53 14993.62c-0.72,13.03 -2.74,23.74 5.34,30.74 17.4,15.08 40.12,-0.02 56.12,-8.06 8.5,-4.26 15.74,-9.5 18.96,-18.84 3.34,-9.66 1.81,-23.67 -3.77,-29.95 -6.07,-6.85 -21.19,-5.72 -32.62,-4.42 -19.41,2.2 -13.28,3.89 -23.84,13.7l-20.19 16.83z"/>
   </g>
            <g>
    <path class="fil6"
          d="M3415.8 2823.5c-159.59,0 -288.94,-126.44 -288.94,-274.16l0 -23.68c0,-148.02 128.61,-273.75 293.67,-273.75 151.74,0 279.22,134.1 277.83,287.89 -1.39,154.36 -128.25,283.7 -282.56,283.7zm843.22 -804.7c-21.17,142.04 -160.14,263.37 -327.31,236.62 -142.06,-22.73 -264.11,-155.15 -237.44,-328.04 21.83,-141.51 158.83,-263.43 328.57,-236.55 142.84,22.61 261.46,158.31 236.18,327.97zm-1848.95 1110.47l206.93 204.99c43.68,45.16 28.84,9.19 57,42.39 6.42,7.57 19.15,21.26 23.57,28.65 41.02,68.46 76.58,68.74 124.48,135.3 31.04,-4.65 420.43,-200 491.91,-240.47 53.9,-30.52 102.04,-60.95 152.85,-93.42 154.88,-98.93 287.79,-197.11 424.88,-309.29l130.92 -115.25c53.08,-44.69 137.29,-127.42 186.29,-178.37 67.66,-70.35 112.32,-125.83 172.67,-192.02 87.66,-96.15 243.13,-315.47 307.54,-426.56 30.22,-52.12 59.94,-102.94 88.04,-158.39 20.87,-41.18 69.32,-128.31 78.95,-170.37 -40.41,-19.65 -123.45,-90.34 -161.92,-120.63 -77.09,-60.71 -229.58,-211.07 -284.96,-283.48l-126.88 -158.59c-154.29,50.27 -490.57,267.81 -612.29,364.64 -46.41,36.91 -90.74,69.65 -133.22,108.24 -23.75,21.58 -110.11,92.64 -130.42,115.91 -37.77,43.27 -147.29,136.9 -211.59,214.71l-84.56 95.43c-142.62,154.38 -345.75,454.52 -455.98,642.79 -50.91,86.98 -238.58,434.01 -244.21,493.79z"/>
                <path class="fil6"
                      d="M2132.56 3012.61c84.94,0 146.35,5.34 231.41,10.7 24.64,-64.46 166.63,-320.85 175.92,-358.78 -168.19,5.11 -335.69,13.65 -502,21.24 -155.15,7.08 -119.58,-12.68 -196.75,64.73 -45.28,45.42 -87.47,87.15 -132.6,132.57 -174.92,176.02 -348,347.76 -523.68,523.06 -41.02,40.94 -92.37,86.12 -128.98,131.44 -64.91,80.35 -28.25,119.87 75.55,51.96 25.89,-16.94 45.87,-36.74 71.04,-56.78 116.72,-92.89 416.05,-349.14 516.41,-407.18 114.7,-66.34 256.78,-112.96 413.68,-112.96z"/>
                <path class="fil6"
                      d="M2924.16 3585.5c14.69,209.24 30.58,372.27 -64.78,572.17 -69.2,145.06 -264.9,367.05 -372.82,498.5 -23.12,28.16 -203.16,227.9 -157.1,263.73 52.43,19.68 157.67,-101.89 179.09,-123.3l732.12 -731.26c21.53,-21.03 15.36,-25.63 17.22,-63.94 9.57,-197.08 12.16,-398.43 25.84,-594.58l-359.57 178.68z"/>
                <path class="fil6"
                      d="M5011.56 1041.49l0 -102.73 -116.48 0c-8.26,3.58 -119.71,12.58 -142.76,16.05 -89.75,13.51 -331.71,69.5 -388.84,107.11 18.13,52.66 251.87,302.41 303.18,345.03 24.13,20.05 44.1,38.98 70.22,62.31 22.61,20.21 123.45,101.68 151.74,113 45.25,-131.7 85.54,-246.7 106.7,-390.51 3.19,-21.67 13.04,-142.41 16.24,-150.26z"/>
                <path class="fil6"
                      d="M3374.94 2335.4c-277.08,52.24 -185.46,461.7 80.02,404.57 100.19,-21.56 182.44,-118.08 159.82,-242.25 -18.1,-99.37 -117.5,-185.38 -239.84,-162.32z"/>
                <path class="fil6"
                      d="M4097.67 2140.44c71.11,-50.2 122.18,-168.01 55.09,-276.27 -44.97,-72.58 -160.96,-135.3 -273.95,-73.67 -226.78,123.68 -65.63,465.01 167.9,376.92 0.49,-1.2 0.99,-2.81 1.27,-3.66l6.72 -21.41c13.92,-4.54 26.72,-2.34 31.48,-14.6 -7.28,-14.34 -11.5,-12.16 -29.8,-6.2 4.84,-9.78 16.68,-14.04 26.93,-7.93 20.71,12.36 2.58,9.27 14.36,26.82z"/>
                <path class="fil6"
                      d="M2366.52 3292.66l151.99 158.27c26.83,-9.7 43.69,-52.48 90.52,31.61 -9.96,5.37 -9.69,-11.08 -26.28,30.21l69.28 69.99c18.53,-6.78 43.54,-33.28 52.96,-48.1 -50.59,-69.41 -60.19,-42.47 -105.57,-102.26 -12.12,-15.97 -22.02,-24.53 -35.74,-39.95 -43.26,-48.61 -99.19,-101.46 -147.01,-147.27l-50.15 47.5z"/>
   </g>
            <g>
    <path class="fil6 str0"
          d="M2998.14 8097.08c-25.18,7.77 -25.07,2.31 -40.72,4.61 -20.79,3.05 -24.73,7.91 -39.12,31.88 -7.12,11.85 -18.96,31.93 -22.89,41.34 -23.96,57.45 -66.68,145.5 -65.94,207.78 29.37,27.91 41.68,13.33 71.92,24.87 14.6,-7.12 89.83,-8.4 113.21,-11.74 21.13,-3.03 33.75,-1.97 57.39,-1.37 70.15,1.77 169.45,-0.81 232.58,5.55l522.82 63.59c97.99,14.3 117.51,28.98 178.83,43.91 82.39,20.08 125,54.95 178.24,80.49 38.94,18.69 80.04,53.98 121.09,80.19 81.59,52.09 170.18,140.73 233.6,206.67 54.87,57.05 51.72,39.06 112.3,37.17 35.62,-1.12 96.42,-1.48 105.35,-36.08 6.02,-23.34 -28.69,-98.55 -39.08,-113.1 -45.79,-64.12 -127.11,-159.4 -187.3,-211.09 -113.68,-97.64 -124.99,-106.85 -248.96,-187.73 -64.62,-42.16 -231.16,-114.85 -297.09,-132.33l-409.65 -78.06c-20.36,-3.34 -39.82,-6.7 -58.1,-8.36l-518.48 -48.19z"/>
                <path class="fil12 str2"
                      d="M1806.13 7870.62c52.1,28.72 182.77,91.89 219.74,122.03 -10.29,14.5 -20.9,28.5 -31.98,42.41 -48.45,60.83 -47.08,30.33 -100.76,-2.98 -25.84,-16.04 -37.78,-19.43 -65.81,-42.07 -91.03,-73.51 -61.7,-23.15 -21.19,-119.39zm109.77 -130.6c17.11,-24.79 48.78,-46.62 71.28,-63.11 37.2,23.48 145.27,155.04 155.96,183.25 -20.94,27.99 -46.62,55.43 -71.81,70.33l-141.75 -174.98c-11.24,-15.97 11.27,-12.7 -13.68,-15.49zm414.06 1146.09c9.62,-55.05 -41.19,-61.81 71.1,-132.39 25.34,-15.93 42.36,-25.98 65.21,-40.32 24.74,-15.52 48.37,-26.35 71.7,-39.34 -14.13,-13.87 -18.92,-34.41 -24.53,-52.66 -30.64,-99.84 -86.13,-192.9 -137.92,-283.22 -14.96,-26.11 -5.48,-20.08 -35.96,-47.74l79.07 -93.19c72.87,51.53 217.76,90.28 308.32,116.55l100.05 20.77c-34.72,68.79 38.35,91.98 74.39,72.99 -30.24,-11.54 -42.55,3.04 -71.92,-24.87 -0.74,-62.28 41.98,-150.33 65.94,-207.78 3.93,-9.41 15.77,-29.49 22.89,-41.34 14.39,-23.97 18.33,-28.83 39.12,-31.88 15.65,-2.3 15.54,3.16 40.72,-4.61 -50.74,-33.07 -83.2,25.42 -108.53,42.08 -30.53,-11.97 -51.89,-11.43 -81.65,-13.43l-169.26 -15.53 -81.09 -26.76c-28.88,-12.88 -54.09,-23.31 -86.31,-46.53 -21.82,-15.71 -27.17,-15.61 -45.59,-25.55 -16.38,-8.84 -28.31,-21.47 -45.49,-29.61 -58.98,-27.96 -33.23,-23.88 -68.47,-64.67l-98.5 -114.38c-31.45,-29.53 -22.06,-16.53 -29.22,-36.38 -6.74,-18.67 -44,-43.63 -72.59,-76.03 -26.21,-29.69 -39.46,-45.31 -75.94,-75.74 -72.49,-60.48 -37.75,-43.45 -71.46,-72.57 -115.66,-99.94 -236.63,-201.84 -355.63,-297.71 -24.47,5 -27.08,3.19 -48.06,34.85 64.74,71.97 175.32,221.45 243.42,311.04 32.93,43.31 26.58,52.37 31.86,60.89l74.58 85.76c14.49,23.73 -1.85,9.81 25.65,39.28l125.8 164.94 -29.02 30.64c-34.64,-2.03 -150.93,-69.39 -188.28,-94.19 -29.53,-19.61 -19.04,-7.97 -45.72,-17.36 -8.41,-2.96 -37.83,-17.92 -43.37,-20.96 -17.96,-9.85 -29.64,-20.18 -48.3,-28.5 -22.02,-9.82 -26.38,-5.33 -42.8,-10.89l-94.97 -51.29c-19.67,-9.31 -28.6,-13.74 -47.69,-27.28 -26.02,-18.44 -22.08,-12.43 -44.49,-22.46 -8.21,-3.68 -105.62,-67.7 -129.07,-74.82 -0.83,-0.25 -2.42,-0.48 -3.18,-0.68 -18.87,-4.93 -24.77,-13.87 -46.59,-30.9 -41.07,51.77 -29.41,33.48 116.24,165.22 132.55,119.9 241.44,191.35 363.93,291.22l179.98 123.19c180.23,106.93 117.78,63.36 227.18,198.73 109.27,135.23 97.89,163.34 140.46,321.45 3.49,12.98 7.79,28.63 10.73,40.75 2.91,11.97 11.46,28.19 9.25,41.14 -8.24,23.01 -29.67,27.12 -31.72,56.17 -1.48,20.86 3.26,40.07 15.73,55.9z"/>
                <path class="fil6 str0"
                      d="M2537.97 8674.06c-23.33,12.99 -46.96,23.82 -71.7,39.34 -22.85,14.34 -39.87,24.39 -65.21,40.32 -112.29,70.58 -61.48,77.34 -71.1,132.39 8.39,27.98 21.15,67.94 25.6,96.16 4.35,27.55 11.46,35.35 12.98,61l210.1 698.46c35.59,87.16 32.35,72.62 66.79,142.04l56.92 99.98c115.17,168.73 395.83,449.11 609.84,503.29 35.88,9.09 77.43,23.84 82.38,-33.26 3.1,-35.63 1.09,-67.1 -4.47,-98.67 -10.72,-60.83 -6.97,-48.31 -65.98,-86.96 -136.06,-89.11 -374.08,-320.67 -439.44,-464.25l-16.11 -39.99c-6.92,-18.58 -13.16,-26.63 -22.85,-47.94l-33.86 -95.32c-6.6,-17.2 -12.07,-31.44 -15.32,-47.67 -5.23,-26.14 -29.62,-78.37 -43.64,-144.34l-25.51 -96.08c-8.28,-25.31 -25.41,-74.53 -24,-92.64 -9.27,-13.95 -5.52,-6.76 -10.48,-18.91l-23.94 -100.37c-5.09,-21.5 -8.24,-37.96 -12.66,-59.46 -5.19,-25.2 -10.33,-37.05 -7.19,-56.56 -11.22,-12.51 -5.64,4.3 -9.83,-21.93l-8.87 -55.82c-7.28,-50.92 -15.69,-52.51 -4.69,-79.15 1.27,-28.46 -7.94,-58.33 -8.34,-90.97 -0.68,-54.38 -1.66,-69.58 -34.89,-93.77 -12.12,3.61 -36.2,10.98 -44.53,11.08z"/>
                <path class="fil6 str0"
                      d="M1915.9 7740.02c24.95,2.79 2.44,-0.48 13.68,15.49l141.75 174.98c25.19,-14.9 50.87,-42.34 71.81,-70.33 -10.69,-28.21 -118.76,-159.77 -155.96,-183.25 -22.5,16.49 -54.17,38.32 -71.28,63.11z"/>
                <path class="fil6 str0"
                      d="M1806.13 7870.62c-40.51,96.24 -69.84,45.88 21.19,119.39 28.03,22.64 39.97,26.03 65.81,42.07 53.68,33.31 52.31,63.81 100.76,2.98 11.08,-13.91 21.69,-27.91 31.98,-42.41 -36.97,-30.14 -167.64,-93.31 -219.74,-122.03z"/>
                <path class="fil13 str0"
                      d="M2703.39 9239.92c3.72,-22.93 -3.53,-43.1 -10.1,-64.92l-24.98 -114.91c-6.44,-35.15 -6.38,-48.39 -19.19,-55.47 -3.14,19.51 2,31.36 7.19,56.56 4.42,21.5 7.57,37.96 12.66,59.46l23.94 100.37c4.96,12.15 1.21,4.96 10.48,18.91z"/>
                <path class="fil14 str0"
                      d="M2649.12 9004.62c3.33,-11.71 -12.49,-136.21 -23.39,-156.9 -11,26.64 -2.59,28.23 4.69,79.15l8.87 55.82c4.19,26.23 -1.39,9.42 9.83,21.93z"/>
   </g>
            <g>
    <path class="fil7"
          d="M1739.61 14539.27l37.04 243.42c0,0 44.97,359.84 60.85,378.36 15.88,18.52 82.03,357.19 82.03,357.19l29.1 298.98 134.94 246.07 510.65 -13.23 833.44 -37.05 148.17 -10.58 108.48 -478.9 60.86 -349.25 63.5 -394.23 42.33 -277.82 -349.25 -58.21 -423.34 0 -251.36 121.71 -285.75 113.77 -320.15 -10.58 -272.52 -105.83 -209.02 -23.82z"/>
                <g>
     <path class="fil6"
           d="M3197.27 16731.44l223.41 -2.08 3.35 74.68 -227.01 0.43 0.25 -73.03zm-1013.73 -0.6l223.69 -1.37 2.12 73.62 -226.15 1.64 0.34 -73.89zm1313.35 -615.9l59.07 454.65 -1516.04 1.04c9.73,-130.22 29.74,-310.94 51.57,-437.02 7.47,-43.17 32.41,-29.24 82.47,-28.78l1272 -0.49c15.29,-0.02 38.66,-0.71 50.93,10.6zm780.16 -943.38c-7.84,15.49 -2.83,5.95 -9.62,17.35 -2.28,3.84 -7.57,12.51 -9.22,14.86l-23.81 25.82c-20.02,47.15 -107.81,104.75 -174.52,133.26 -85.87,36.69 -165.48,40.19 -268.42,36.72l66.64 -512.41c8.73,-37.68 47.74,-111.59 71.78,-216.49 22.75,-99.31 25.82,-167 25.94,-273.33 134.36,1.48 289.75,131.46 348.6,268.93 56.27,131.44 55.86,400.14 -27.37,505.29zm-591.71 -172.71l-26.01 173.07c5.29,62.46 -49.11,318.44 -64.35,395.79 -25.54,129.62 -62.15,257.11 -86.1,377.55l-1410.98 0.83c-33.72,-10.54 -146.65,-605.35 -141.71,-649.54 -6.58,-8.17 -3.57,-1.89 -8.79,-16.4 -3.42,-9.51 -4.23,-15.34 -5.85,-24.69 -3.17,-18.23 -6.06,-38.49 -8.88,-56.99l-36.17 -321.54c-9.15,-90.03 -76.73,-170.62 -85.4,-286.71 183.41,34.99 516.53,326.22 962.38,72.93 142.36,-80.87 226.98,-174.32 466.63,-159.06 95.27,6.07 415.78,67.67 539.91,86.39 1.95,109.17 -72.75,193.54 -82.66,296.09 -3.66,37.9 -6.61,78.49 -12.02,112.28zm-1916.18 -1080.08l2028.55 0.67 -1.64 511.03c-180.96,-13.59 -373.12,-75.97 -555.99,-85.49 -476.65,-24.79 -546.5,355.73 -995,240.63 -56.76,-14.56 -405.47,-152.34 -449.78,-178.88l-26.14 -487.96zm-24.23 1079.53l25.64 161.12 -0.58 26.92c3.95,6.87 2.84,-5.03 8.14,19.33 2.53,11.65 1.35,10.71 2.43,21.73 2.01,20.36 3.34,29.78 6.6,50.88 19.2,124.38 42.31,251.55 68.37,375.73 105.03,500.61 109.58,214.4 40.04,781.48 -11.39,92.82 -50.15,236.38 88,284.26 30.56,10.59 26.44,-1.15 39.93,22.78 0.57,212.11 71,221.26 272.35,221.26 86.07,0 156.75,10.67 215.19,-36.55 61.34,-49.55 51.59,-98.28 57.41,-193.83l468.44 -3.97c8.19,100.76 -4.18,142.45 57.24,196.87 55.35,49.04 131.47,37.41 214.26,37.41 238.43,0 263.07,-17.46 275.14,-235.47 113.86,-28.99 140.56,-101.12 123.6,-235.19 -8.15,-64.35 -62.67,-433.26 -51.99,-484.56l106.1 -449.19c203.82,-12.63 309.92,14.02 508.65,-138.51 278.39,-213.68 306.57,-671.67 101.75,-950.94 -38.42,-52.38 -108.63,-115.3 -173.51,-153.74 -89.3,-52.91 -135.26,-55.78 -241.12,-85.03l-0.29 -309.93c63.11,-8.79 104.27,-13.08 106.78,-78.09 2.51,-64.8 -47.36,-83.55 -107.64,-83.72l-2276.69 0.19c-61.89,-0.15 -121.78,-5.2 -142.26,49.08 -25.78,68.3 23.96,95.79 70.11,113.7 26.35,265.4 12.19,624.6 79.9,834.05 24.22,74.91 71.45,148.62 58.01,241.93z"/>
                    <path class="fil6"
                          d="M2354.29 13525.71c37.97,-199.74 335.74,-153.94 482.09,-153.94 157.85,0 436.27,-45.71 481.45,153.9l-963.54 0.04zm-168.62 -0.1c-168.78,0.52 -337.71,0.24 -506.49,0.01 -74.65,-0.09 -170.94,4.02 -144.8,103.04 19.3,73.17 126.61,55.85 205.71,55.85 217.76,0 2234.12,11.14 2277.84,-7.32 69.32,-29.28 58.73,-136.08 -18.49,-149.63l-512.32 -1.71c-104.88,-358.97 -371.97,-312.6 -650.74,-312.6 -275.2,0 -548.12,-46.63 -650.71,312.36z"/>
                    <path class="fil6"
                          d="M2229.56 16261.46c-76.33,17.36 -87.13,105.9 -29.48,142.85 29.12,18.65 184.52,19.77 223.37,9.31 67.49,-18.16 74.54,-112.79 18.12,-144.32 -28.72,-16.05 -174.7,-16.33 -212.01,-7.84z"/>
                    <path class="fil6"
                          d="M3180.84 16261.04c-79.59,18.26 -87.32,110.01 -29.95,144.17 29.67,17.66 185.58,18.8 224.09,8.27 66.05,-18.08 68.98,-112.48 17.42,-143.39 -27.45,-16.46 -174.56,-17.53 -211.56,-9.05z"/>
                    <path class="fil6"
                          d="M2737.4 16417.55c103.36,0 208.62,18.96 216.61,-70.82 9.51,-106.68 -107.43,-87.44 -201.38,-87.42 -161.83,0.03 -143.54,158.24 -15.23,158.24z"/>
    </g>
   </g>
            <g>
    <polygon class="fil10 str1"
             points="12426.39,2014.64 14126.98,2339.55 15634,1859.1 15644.36,2716.31 14140.8,3207.13 12419.47,2792.34 "/>
                <polygon class="fil8 str1" points="13926.5,1582.58 12426.39,2014.64 14126.98,2339.55 15634,1859.1 "/>
   </g>
            <g>
    <path class="fil10"
          d="M13525.24 23455.71l135.28 -3.91c31.12,-32.38 26.73,-45.73 68.9,-73.87 43.21,-28.8 67.93,-25.93 105.55,-44.11 0.39,-2.6 -61.92,-227.08 -70.51,-277.62 -16.31,-96 -41.02,-218 -47.01,-306.46l137.49 -16.95c20.78,27.69 51.7,255.3 44.58,276.43l42.97 108.28c15.1,-31.4 9.34,-50.34 2.62,-86.67 -28.36,-153.42 9.94,-6.93 -32.89,-98.49 -6.71,-14.39 -18.65,-127.94 -10.74,-154.05l2.89 -56.91c57.1,-35.01 198.48,-46.33 278.16,-69.31 23.32,-16.16 25.74,-18.43 68.83,-24.21 24.06,-3.23 46.81,-5.53 71.13,-7.47 205.14,-16.5 174.7,-21.62 402.42,-25.01 2.77,-0.03 41.48,-0.01 41.49,-0.01 21.41,2.6 -2.71,-2.43 20.66,3.68 29.49,7.69 9.44,-2.02 29.94,12.44 87.99,7.2 174.34,24.09 251.5,42.87 44.95,10.94 206.88,59.87 226.58,59.22 42.36,18.87 144.16,55.9 161.2,73.84 58.88,42.19 186.19,116.54 291.41,67.28 5.66,-32.05 14.98,-21.79 -58.03,-72.63 -216.39,-150.68 -425.49,-231.75 -709.16,-295.26 -253.31,-56.73 -585.66,-41 -860.37,-12.34 -87.18,9.09 -166.95,42.64 -252.27,48.56 -22.66,-47.82 -16.56,-134.49 -32.24,-193.06 -8.06,-30.14 -20.16,-47.41 -27.87,-87.97 -6.41,-33.68 -11.59,-63.59 -20.06,-96.98 -33.29,-131.26 -59.05,-246.23 -92.97,-377.19 -28.58,-110.26 -70.15,-245.13 -105.37,-356.62 -77.07,-243.99 -101.46,-454.44 -223.15,-715.93 -62.01,-133.27 -110.95,-191.98 -340.66,-183.7 -234.89,8.46 -684.97,94.22 -710.87,336.19 -22.27,207.98 122.73,547.58 196.19,732.37 91.58,230.33 167.88,456.24 232.62,705.21 65.94,253.53 103.54,509.6 167.12,759.22 21.13,82.99 23.01,101.74 84.85,155.43 40.92,35.53 94.14,80.49 142.5,110.16 59.63,36.6 303.99,155.42 387.29,145.55z"/>
                <path class="fil10"
                      d="M15124.17 22994.76l32.5 18.87c2.92,1.89 12.41,8.6 14.45,10.05 2,1.42 5.32,7.08 6.73,5.59 1.41,-1.5 4.88,3.58 6.67,5.74 -75.28,38.52 -27.97,262.43 -402.3,241.09l-6.09 -84.81c-43.83,-11.58 -71.43,-12.2 -112.58,2.65 -0.18,14.29 1.38,31.17 0.65,44.67l-10.95 47.35c-23.62,19.16 -231.28,21.79 -265.64,23.02 -96.79,3.48 -184.84,4.49 -281.25,-4.57 -155.21,-14.54 -151.16,10.66 -206.84,-295.19 7.12,-21.13 -23.8,-248.74 -44.58,-276.43l-137.49 16.95c5.99,88.46 30.7,210.46 47.01,306.46 8.59,50.54 70.9,275.02 70.51,277.62 -37.62,18.18 -62.34,15.31 -105.55,44.11 -42.17,28.14 -37.78,41.49 -68.9,73.87l-135.28 3.91c42.31,25.07 66.03,-6.75 244.54,28.3 73.08,14.36 166.18,27.66 255.91,24.69 11.15,71.81 -13.45,169.01 7.41,229.65l63.5 15.62c0.57,22.26 -2.84,59.99 -3.13,66.58l0.1 11.78 251.79 0 -4.27 -80.55c118.32,-18.31 54.13,-30.5 74.51,-248.07 172.4,-4.71 328.06,-29.03 504.08,-33.43 112.34,-2.81 592.07,-40.95 685.8,-89.37 78.22,-40.43 140.48,-230.55 -276.35,-338.76l95.93 -257.69 31.22 2.96c-17.04,-17.94 -118.84,-54.97 -161.2,-73.84 3.09,55.73 -28.89,114.9 -50.89,169.22 -10.57,26.09 -18.89,50.77 -30.06,79.75 -19.18,49.75 -22.54,37.79 -89.96,32.21z"/>
                <path class="fil10"
                      d="M14182.53 22652.07l130.81 -14.6c-5.69,67.42 -23.03,102.5 -48.47,153.65 -25.5,51.31 -40.02,118.37 -72.14,131.15 -29.88,9.71 -223.5,16.53 -263.17,10.02l-14.11 -126.04c-8.62,-29.25 1.78,-12.31 -13.97,-27.96 -7.91,26.11 4.03,139.66 10.74,154.05 42.83,91.56 4.53,-54.93 32.89,98.49 6.72,36.33 12.48,55.27 -2.62,86.67l-42.97 -108.28c55.68,305.85 51.63,280.65 206.84,295.19 96.41,9.06 184.46,8.05 281.25,4.57 34.36,-1.23 242.02,-3.86 265.64,-23.02l10.95 -47.35c0.73,-13.5 -0.83,-30.38 -0.65,-44.67 41.15,-14.85 68.75,-14.23 112.58,-2.65l6.09 84.81c374.33,21.34 327.02,-202.57 402.3,-241.09 -1.79,-2.16 -5.26,-7.24 -6.67,-5.74 -1.41,1.49 -4.73,-4.17 -6.73,-5.59 -2.04,-1.45 -11.53,-8.16 -14.45,-10.05l-32.5 -18.87c-28.64,-15.62 -294.38,-53.08 -350.04,-58.94 -156.61,-16.48 -266.32,-8.51 -421.56,-15.56 2.49,-29.15 90.31,-214.56 108.99,-291.28 56.55,3.93 46.74,9.77 95.91,31.09 29.21,12.64 44.57,22.68 68.74,34.59 57.61,28.4 97.39,26.93 163.29,3.2 0.17,-52.72 -56.41,-26.59 -78.64,-89.54l106.14 3.17c-20.5,-14.46 -0.45,-4.75 -29.94,-12.44 -23.37,-6.11 0.75,-1.08 -20.66,-3.68 -0.01,0 -38.72,-0.02 -41.49,0.01 -227.72,3.39 -197.28,8.51 -402.42,25.01 -24.32,1.94 -47.07,4.24 -71.13,7.47 -43.09,5.78 -45.51,8.05 -68.83,24.21z"/>
   </g>
            <path class="fil6"
                  d="M7808.6 17202.09c-220.73,852.09 -288.18,1734.83 -226.69,2643.37l1238.25 -21.17 52.92 -486.83 68.77 13.23 21.14 486.83 1232.96 -2.64c48.21,-964.44 -105.03,-1854.27 -437.82,-2677.61l-385.14 -266.02 -629.61 213.12 -635.01 0 -299.77 97.72z"/>
            <path class="fil15 str3" d="M7684.07 17773.6c383.14,-31.68 644.43,-249.51 773.56,-669.23"/>
            <path class="fil15 str3"
                  d="M8865.09 17040.87c153.78,515.93 151.91,1031.86 121.71,1547.81 233.45,-83.09 371.2,-441.14 216.28,-1639.92l-337.99 92.11z"/>
            <path class="fil15 str3" d="M9372.99 16891.25c141.46,387.42 342.85,718.22 611.3,985.7"/>
            <path class="fil9 str1"
                  d="M7987.78 4339.56l384.85 537.12 730.25 -674.69 47.62 227.54c553.07,79.48 1012.42,262.71 1367.91,560.91 252.58,19.04 423,127.36 513.29,322.79l-0.05 2307.19 -952.5 -1682.75 584.88 1033.3 -950.06 3067.76 -1497.54 -5.29 -1330.9 -534.44 -328.05 -3333.76 -523.89 285.74 5.29 -1066.27c612.23,-392.4 1239.42,-691.5 1879.87,-907.53l69.03 -137.62z"/>
            <polygon class="fil0 str0"
                     points="8950.72,12782.47 8223.05,13019.31 8238.93,13273.31 8371.22,13503.5 8373.86,14061.79 8137.69,13958.76 8167.49,13728.42 7770.61,13463.83 7761.82,13184.54 7728.28,12601.29 7670.07,11929.24 7670.07,11394.78 7955.82,11267.78 8262.74,11490.03 8527.32,11273.08 8813.07,11230.74 9035.32,11590.58 9172.91,11934.54 9196.71,12447.82 9085.58,12696.53 "/>
            <path class="fil6"
                  d="M7998.22 13285.17c-162.8,-586.62 -260.58,-1194.89 -211.67,-1852.08 216.87,160.35 493.91,233.16 788.46,280.46l15.88 -198.44 42.33 214.31 166.69 44.98c12.04,-127.03 -19.97,-252.2 -92.61,-375.71 449.58,417.73 569.97,874.36 243.42,1383.78l301.63 243.42 13.23 153.45c235.8,-700 170.79,-1397.23 -362.49,-2090.18 -458.17,-553.07 -1090.96,-633.19 -1636.44,-222.25 -272.32,237.12 -414.72,598.1 -383.65,1124.49 37.08,654.37 464.3,1048.64 1115.22,1293.77z"/>
            <path class="fil15 str0" d="M8810.41 12273.21c181.61,176.4 232.1,284.9 18.52,256.65"/>
            <path class="fil0 str0"
                  d="M8156.61 16606.56c185.4,1.33 276.73,-74.39 399.65,-82.14 -44.99,65.21 -344.85,171.75 -399.65,82.14zm244.84 121.64c77.19,-32.68 484.05,-2.81 623.02,-538.22 6.08,-23.4 8.92,-40.54 14.32,-64.23l21.15 -64.13c1.17,-2.67 3.22,-7.15 5.29,-10.47 2.32,393.12 -261.35,724.94 -663.78,677.05zm-1018.36 -1023.27c-16.6,-137.84 -4.46,-233.76 63.18,-338.31 44.59,-68.93 123.53,-168.81 189.54,-200.14 -16.03,35.57 -57.44,82.58 -85.33,118.02 -152.96,194.34 -126.7,261.45 -154.51,386.96 -5.32,24.02 -5.89,21.67 -12.88,33.47zm-109.04 -998.47c-55.7,83.91 -255.28,97.82 -320.32,-0.95 176.78,29.13 144.15,28.49 320.32,0.95zm-63.66 237.41c28.21,-56.43 143.47,-128.19 198.01,-210.82 78.18,-118.47 63.63,-161.79 115.81,-286.95 38.46,213.57 -126.65,422.92 -313.82,497.77zm335.63 1277.78c52.24,-2.98 42.87,-0.38 79.09,41.74 24.44,28.42 37.99,44.43 62.27,70.76 26.52,28.77 98.93,80.74 111.47,133.03 41.06,15.35 259.25,209.48 352.31,277.12 159.68,116.07 270.66,125.86 515.94,110.67 210.53,-13.02 336.43,-69.54 443.78,-182.18 162.46,-170.47 48.68,-280.85 94.53,-496.1 -0.78,-96.95 7.42,-213.13 -33.17,-291.66 -22.43,12.19 -2.97,10.86 -33,2.41 -7.86,-2.21 -175.09,-112.49 -289.5,-72.93l-3.62 192.65c-28.18,1.15 -274.77,-128.35 -407.98,-171.47 -297.72,-96.36 -776.88,-58.65 -732.02,-449.9 9.65,-84.13 48.02,-163.65 38.57,-256.56 -8.89,-87.49 -55.95,-167.27 -137.41,-168.08 -64.39,56.74 -43.71,165.51 -128.86,151.34 -78.62,-13.09 -60.11,-139.63 -43.15,-219.57 42.16,-198.79 154.66,-224.98 251.48,-332.07l38.17 12.7c-61.37,-106.9 -167.76,-173.1 -307.08,-380 -45.9,-68.17 -83.03,-133.7 -116.4,-215.19 -15.21,-37.13 -55.2,-234.8 -73.66,-247.46 -359.4,374.61 -447.64,651.78 -236.57,1286.08 121.18,364.15 361.15,958.53 575.79,1171.59l-20.98 33.08z"/>
            <path class="fil6"
                  d="M8378.99 13376.65c173.27,70.31 322.52,294.68 410.34,478.31 58.21,121.72 86.33,181.89 105.23,332.31 49.51,393.93 59.54,439.28 -87.58,378.83 -183.03,-75.21 -313.17,-127.36 -485.7,-229.83 -58.66,-34.84 -122.74,-84.99 -184.15,-106.04 13.67,47.92 10.75,25.53 -30.41,60.77l-168.8 109.81c-173.54,93.35 -128.91,138.49 -178.18,199.84 62.2,138.72 305.92,373.23 458.73,474.25 94.31,62.34 188.96,110.79 293.65,170.31 88.89,50.52 212.6,109.64 285.68,171.37 34.89,19.63 24.15,13.96 40.06,38.42 58.04,12.31 25.33,30.49 89.46,42.96 137.66,-7.58 229.61,51.9 344.93,53.12 99.33,-47.2 417.02,-220.81 466.43,-285.15 38.69,-149.91 61.59,-256.59 14.4,-413.8 -42.29,-140.89 -121.01,-213.63 -159.72,-313.45 -28.21,-13.86 -126.03,-138.7 -145.58,-170.67 -17.65,-13.5 -9.45,-1.97 -23.95,-21.78 -15.07,-20.6 -4.04,-6.6 -12.88,-32.98 -91.09,-40.88 -247.84,-409.18 -381.53,-578.95 -257.42,-326.91 -449.87,-324.31 -561.97,-393.47l174.13 1.06c-80.27,-29.72 -212.88,-9.2 -306.99,-8.21 15.43,24.3 23.22,28.83 44.4,42.97z"/>
            <path class="fil6"
                  d="M9205.41 16176.69c-45.85,215.25 67.93,325.63 -94.53,496.1 -107.35,112.64 -233.25,169.16 -443.78,182.18 -245.28,15.19 -356.26,5.4 -515.94,-110.67 -93.06,-67.64 -311.25,-261.77 -352.31,-277.12 -8.67,68.15 -116.77,234.31 -156.24,300.18 -62.67,104.57 -161.14,195.7 -34.2,293l41.9 39.88c15.38,13.48 29.19,24.43 51.32,40.04 118.05,83.25 261.08,125.01 408.82,148.81 199.69,32.17 491.26,48.77 697.7,37.05 1.9,-282.91 277.51,-285.87 431.5,-471.7 96.57,-116.52 115.26,-248.07 164.71,-284.89 50.55,-37.65 273.87,-24.62 329.59,-113.17l-16.65 -146.4c-12.33,-15.69 -2.72,3.2 -16.33,-29.33l-35.48 -167.76 -460.08 63.8z"/>
            <path class="fil0"
                  d="M8870.89 15605.87c-1.07,-33.59 18.53,-34.99 21.12,-37.43 30.34,37.71 30.81,37.23 0,75.68 -2.6,-3 -20.37,-14.5 -21.12,-38.25zm-446.6 -65.92c8.9,-49.29 10.92,-46 49.93,-73.31 54.48,-38.14 168.63,-121.64 231.78,-72.01 -48.4,23.58 -97.6,40.51 -146.29,66.05 -49.94,26.2 -89.39,60.48 -135.42,79.27zm-666.13 -162.6c19.39,-59.32 41.1,-83.19 105,-103.82 -17.1,66.34 -38.72,97.43 -105,103.82zm43.64 140.09c19.3,-50.88 47.19,-72.54 76.49,-116.06 189.37,-281.24 99.41,-330.84 153.33,-410.65 18.16,130.69 10.72,210.22 -45.44,318.61 -36.82,71.05 -109.78,171.33 -184.38,208.1zm1370.44 367.59l6.1 -21.34c-29.13,-24.54 -39.68,-78.33 -58.16,-114.7 -22.18,-43.64 -32.25,-56.5 -62.48,-97.43 -31.45,-36.28 -107.69,-110.28 -130.38,-153.6 -64.13,-12.47 -31.42,-30.65 -89.46,-42.96 -59.64,-11.75 -143.46,56.36 -154.12,88.05l79.54 -28.33c-62.45,147.56 -208.75,35.47 -74.06,-45.4 22.63,-13.59 33.87,-14.15 55.84,-21.67 56.4,-19.32 33.73,-9.31 52.74,-31.07 -73.08,-61.73 -196.79,-120.85 -285.68,-171.37 -104.69,-59.52 -199.34,-107.97 -293.65,-170.31 -152.81,-101.02 -396.53,-335.53 -458.73,-474.25 -14.71,-12.48 -14.19,-16.47 -34.82,-27.1l-38.17 -12.7c-96.82,107.09 -209.32,133.28 -251.48,332.07 -16.96,79.94 -35.47,206.48 43.15,219.57 85.15,14.17 64.47,-94.6 128.86,-151.34 81.46,0.81 128.52,80.59 137.41,168.08 9.45,92.91 -28.92,172.43 -38.57,256.56 -44.86,391.25 434.3,353.54 732.02,449.9 133.21,43.12 379.8,172.62 407.98,171.47l3.62 -192.65c114.41,-39.56 281.64,70.72 289.5,72.93 30.03,8.45 10.57,9.78 33,-2.41z"/>
            <path class="fil0 str0"
                  d="M10345.17 15322.39c17.54,-9.78 36.76,-16.82 58.21,-21.5 67.48,-14.72 103.99,-5.68 161.58,11.68 -41.67,30.26 -69.74,14.74 -138.35,27.95 -51.85,9.98 -83.25,23.69 -136.36,30.01l54.92 -48.14zm-18.84 -35.76c30.67,-50.81 144.96,-146.88 252.85,-90.63 -30.83,24.73 -93.1,27.67 -134.26,44.17 -48.03,19.25 -76.22,45.79 -118.59,46.46zm-83.38 -94.57c-29.91,-50.36 -0.03,-79.45 26.5,-104.27 4.25,8.14 8.22,3.92 10.19,27.35 3.07,36.51 -14.38,58.43 -36.69,76.92zm-370.84 -77.1c-28.95,-71.43 0,-135.41 59.43,-151.22 -4.35,29.87 -13.45,49.46 -23.9,81.34 -14.65,44.69 -9.38,47.23 -35.53,69.88zm-133.43 150.97l123.5 -89.9c93.63,-45.18 199.88,-62.72 300.57,-5.6 42.36,24.03 66.79,43.36 95.45,89.22 49.72,79.56 34.22,80.54 1.73,136.75l93.64 229.97c35.69,210.2 -32.34,334.6 -187.79,392.05 -112.01,41.39 -433.18,52.56 -500.29,94.47l35.48 167.76c13.61,32.53 4,13.64 16.33,29.33 0.14,-4.41 1.46,-24.26 1.85,-27.07l7.27 -19.18c320.04,75.65 587.43,118.24 859.05,-63.54 322.36,-215.72 311.99,-629.36 225.45,-709.35l-261.56 -42.72c29.89,-86.03 105.87,-68.09 157.59,-80.66 70.54,-17.15 44.05,17.22 42.67,-49.47 -73.85,-82.92 -138.91,-227.62 -226.98,-272.23 -70.57,25.41 -146.38,85.54 -182.99,91.91 -31.85,-58.59 5.23,-60.24 -3.85,-141.93 -121.66,-16.64 -96.33,43.85 -159.07,93.1 -41.33,-15.29 -39.96,-30.93 -69.29,-75.21 -107.28,-161.96 -338.69,-396.59 -514.08,-474.95 38.71,99.82 117.43,172.56 159.72,313.45 47.19,157.21 24.29,263.89 -14.4,413.8z"/>
            <path class="fil16"
                  d="M9862.18 15176.03l88.39 84.76c24.36,77.83 -270.26,253.16 -350.49,311.75 -98.76,72.11 -318.98,214.94 -435.95,230.22l14.21 60.93 -6.1 21.34c40.59,78.53 32.39,194.71 33.17,291.66l460.08 -63.8c67.11,-41.91 388.28,-53.08 500.29,-94.47 155.45,-57.45 223.48,-181.85 187.79,-392.05 -54.59,-51.62 -42.64,-34.84 -124.88,-8.32 -171.04,55.15 -292.91,56.77 -474.27,50.28 11.41,-82.83 109.71,-165.15 177.36,-201.44 95.55,-51.25 202.39,-55.9 328.15,-70.49 32.49,-56.21 47.99,-57.19 -1.73,-136.75 -28.66,-45.86 -53.09,-65.19 -95.45,-89.22 -100.69,-57.12 -206.94,-39.58 -300.57,5.6z"/>
            <path class="fil0 str0"
                  d="M9954.12 14795.32c16.97,-42.7 24.23,-34.37 45.14,-67.4 5.87,-9.27 14.97,-32.41 20.1,-44.56l24.93 -45.59c51.04,80.94 -19.44,149.83 -90.17,157.55zm-479.35 -531.08c-3.85,-6.81 -41,30.7 -8.81,-52.95 13.15,-34.21 31.42,-29.68 35.3,-31.82 32.37,66 -6.52,71.81 -26.49,84.77zm-63.82 49.01l198.49 -6.94c-58.61,70.73 -154.43,11.69 -161.66,61.7 19.55,31.97 117.37,156.81 145.58,170.67 175.39,78.36 406.8,312.99 514.08,474.95 29.33,44.28 27.96,59.92 69.29,75.21 62.74,-49.25 37.41,-109.74 159.07,-93.1 9.08,81.69 -28,83.34 3.85,141.93 36.61,-6.37 112.42,-66.5 182.99,-91.91 -29.65,-103.36 -734.67,-660.54 -834.44,-751.78 -496.04,-453.58 -296.35,-327.5 -511.9,-679.71l-116.63 -174.52c-22.97,-22.82 -7.41,-6.43 -29.19,-24.1l-24.45 -20.31c-107.56,-37.66 -238.64,-52.44 -364.45,-53.45l-174.13 -1.06c112.1,69.16 304.55,66.56 561.97,393.47 133.69,169.77 290.44,538.07 381.53,578.95z"/>
            <path class="fil6"
                  d="M8808.15 17326.14l56.5 -1.12c230.64,-42.27 292.01,-42.01 469.74,-150.5 90.44,-55.21 140.05,-13.53 245.76,-4.4 113.11,9.78 186.7,-12.71 279.7,-42.45 46.59,-13.55 39.88,-15.36 77.93,-48.1 2.54,-71.58 -110.54,-336.22 -151.63,-472.24 -14.86,-49.18 -23.52,-116.72 -52.2,-150.95 -55.72,88.55 -279.04,75.52 -329.59,113.17 -49.45,36.82 -68.14,168.37 -164.71,284.89 -153.99,185.83 -429.6,188.79 -431.5,471.7z"/>
            <path class="fil0"
                  d="M7968.09 13866.81l-76.44 165.84c15.92,26.79 26.73,31.42 56.61,54.15 30.96,23.55 41.91,32.19 68.17,51.27 28.92,21.02 105.23,64.63 120.7,92.16 61.41,21.05 125.49,71.2 184.15,106.04 172.53,102.47 302.67,154.62 485.7,229.83 147.12,60.45 137.09,15.1 87.58,-378.83 -18.9,-150.42 -47.02,-210.59 -105.23,-332.31 -87.82,-183.63 -237.07,-408 -410.34,-478.31l-0.25 40.28c28.13,89.97 249.81,384.2 187.33,672.28 -202.79,35.53 -505.73,-186.27 -597.98,-222.4z"/>
            <path class="fil6"
                  d="M7227.78 13730.9c18.46,12.66 58.45,210.33 73.66,247.46 33.37,81.49 70.5,147.02 116.4,215.19 139.32,206.9 245.71,273.1 307.08,380 20.63,10.63 20.11,14.62 34.82,27.1 49.27,-61.35 4.64,-106.49 178.18,-199.84l168.8 -109.81c41.16,-35.24 44.08,-12.85 30.41,-60.77 -15.47,-27.53 -91.78,-71.14 -120.7,-92.16 -26.26,-19.08 -37.21,-27.72 -68.17,-51.27 -29.88,-22.73 -40.69,-27.36 -56.61,-54.15 -75.17,-30.51 -197.14,-153.8 -262.94,-208.82 -43.5,-36.38 -77.47,-70.89 -118.77,-106.37 -37.8,-32.45 -98.28,-69.55 -90.61,-139.86l-191.55 153.3z"/>
            <path class="fil16"
                  d="M9738.68 15265.93c-49.41,64.34 -367.1,237.95 -466.43,285.15 -28.95,24.22 -60.13,32.51 -94.05,50.55 -54.89,29.2 -60.09,40.92 -120.5,49.93 30.23,40.93 40.3,53.79 62.48,97.43 18.48,36.37 29.03,90.16 58.16,114.7l-14.21 -60.93c116.97,-15.28 337.19,-158.11 435.95,-230.22 80.23,-58.59 374.85,-233.92 350.49,-311.75l-88.39 -84.76 -123.5 89.9z"/>
            <path class="fil17"
                  d="M7419.33 13577.6c-7.67,70.31 52.81,107.41 90.61,139.86 41.3,35.48 75.27,69.99 118.77,106.37 65.8,55.02 187.77,178.31 262.94,208.82l76.44 -165.84c-14.33,-25.98 -170.11,-137.87 -247.82,-213.23l-77.74 -88.72c-27.37,-16.75 -48.09,-35.06 -52.16,-89.62l-171.04 102.36z"/>
            <path class="fil16"
                  d="M10353.57 15626.37l-93.64 -229.97c-125.76,14.59 -232.6,19.24 -328.15,70.49 -67.65,36.29 -165.95,118.61 -177.36,201.44 181.36,6.49 303.23,4.87 474.27,-50.28 82.24,-26.52 70.29,-43.3 124.88,8.32z"/>
            <path class="fil18"
                  d="M8401.45 16728.2c402.43,47.89 666.1,-283.93 663.78,-677.05 -2.07,3.32 -4.12,7.8 -5.29,10.47l-21.15 64.13c-5.4,23.69 -8.24,40.83 -14.32,64.23 -138.97,535.41 -545.83,505.54 -623.02,538.22z"/>
            <path class="fil16"
                  d="M9057.7 15651.56c60.41,-9.01 65.61,-20.73 120.5,-49.93 33.92,-18.04 65.1,-26.33 94.05,-50.55 -115.32,-1.22 -207.27,-60.7 -344.93,-53.12 22.69,43.32 98.93,117.32 130.38,153.6z"/>
            <path class="fil0 str0"
                  d="M10810.92 15490.84c11.42,-24.52 14.86,18.23 -1.11,-41.09 -3.69,-13.71 -14.45,-35.05 -20.38,-46.61 -19.05,-37.17 -28.76,-41.72 -39.81,-85.15 1.38,66.69 27.87,32.32 -42.67,49.47 -51.72,12.57 -127.7,-5.37 -157.59,80.66l261.56 42.72z"/>
            <path class="fil18"
                  d="M7210.39 14943.87c187.17,-74.85 352.28,-284.2 313.82,-497.77 -52.18,125.16 -37.63,168.48 -115.81,286.95 -54.54,82.63 -169.8,154.39 -198.01,210.82z"/>
            <path class="fil18"
                  d="M7801.8 15517.44c74.6,-36.77 147.56,-137.05 184.38,-208.1 56.16,-108.39 63.6,-187.92 45.44,-318.61 -53.92,79.81 36.04,129.41 -153.33,410.65 -29.3,43.52 -57.19,65.18 -76.49,116.06z"/>
            <path class="fil18"
                  d="M7383.09 15704.93c6.99,-11.8 7.56,-9.45 12.88,-33.47 27.81,-125.51 1.55,-192.62 154.51,-386.96 27.89,-35.44 69.3,-82.45 85.33,-118.02 -66.01,31.33 -144.95,131.21 -189.54,200.14 -67.64,104.55 -79.78,200.47 -63.18,338.31z"/>
            <path class="fil18"
                  d="M8156.61 16606.56c54.8,89.61 354.66,-16.93 399.65,-82.14 -122.92,7.75 -214.25,83.47 -399.65,82.14z"/>
            <path class="fil18"
                  d="M8837.86 15455c-15.91,-24.46 -5.17,-18.79 -40.06,-38.42 -19.01,21.76 3.66,11.75 -52.74,31.07 -21.97,7.52 -33.21,8.08 -55.84,21.67 -134.69,80.87 11.61,192.96 74.06,45.4l-79.54 28.33c10.66,-31.69 94.48,-99.8 154.12,-88.05z"/>
            <path class="fil18"
                  d="M7274.05 14706.46c-176.17,27.54 -143.54,28.18 -320.32,-0.95 65.04,98.77 264.62,84.86 320.32,0.95z"/>
            <path class="fil18"
                  d="M8424.29 15539.95c46.03,-18.79 85.48,-53.07 135.42,-79.27 48.69,-25.54 97.89,-42.47 146.29,-66.05 -63.15,-49.63 -177.3,33.87 -231.78,72.01 -39.01,27.31 -41.03,24.02 -49.93,73.31z"/>
            <path class="fil18"
                  d="M10326.33 15286.63c42.37,-0.67 70.56,-27.21 118.59,-46.46 41.16,-16.5 103.43,-19.44 134.26,-44.17 -107.89,-56.25 -222.18,39.82 -252.85,90.63z"/>
            <path class="fil18"
                  d="M10290.25 15370.53c53.11,-6.32 84.51,-20.03 136.36,-30.01 68.61,-13.21 96.68,2.31 138.35,-27.95 -57.59,-17.36 -94.1,-26.4 -161.58,-11.68 -21.45,4.68 -40.67,11.72 -58.21,21.5l-54.92 48.14z"/>
            <path class="fil18"
                  d="M9954.12 14795.32c70.73,-7.72 141.21,-76.61 90.17,-157.55l-24.93 45.59c-5.13,12.15 -14.23,35.29 -20.1,44.56 -20.91,33.03 -28.17,24.7 -45.14,67.4z"/>
            <path class="fil18"
                  d="M9410.95 14313.25c8.84,26.38 -2.19,12.38 12.88,32.98 14.5,19.81 6.3,8.28 23.95,21.78 7.23,-50.01 103.05,9.03 161.66,-61.7l-198.49 6.94z"/>
            <path class="fil18"
                  d="M9872.11 15114.96c26.15,-22.65 20.88,-25.19 35.53,-69.88 10.45,-31.88 19.55,-51.47 23.9,-81.34 -59.43,15.81 -88.38,79.79 -59.43,151.22z"/>
            <path class="fil18"
                  d="M7758.16 15377.35c66.28,-6.39 87.9,-37.48 105,-103.82 -63.9,20.63 -85.61,44.5 -105,103.82z"/>
            <path class="fil18"
                  d="M9474.77 14264.24c19.97,-12.96 58.86,-18.77 26.49,-84.77 -3.88,2.14 -22.15,-2.39 -35.3,31.82 -32.19,83.65 4.96,46.14 8.81,52.95z"/>
            <path class="fil18"
                  d="M10242.95 15192.06c22.31,-18.49 39.76,-40.41 36.69,-76.92 -1.97,-23.43 -5.94,-19.21 -10.19,-27.35 -26.53,24.82 -56.41,53.91 -26.5,104.27z"/>
            <path class="fil18"
                  d="M8892.01 15644.12c30.81,-38.45 30.34,-37.97 0,-75.68 -2.59,2.44 -22.19,3.84 -21.12,37.43 0.75,23.75 18.52,35.25 21.12,38.25z"/>
            <path class="fil19"
                  d="M3033.73 15819.17c-5.35,-18.83 7.15,-13 -11.78,-17.03 -29.87,-6.35 -0.98,-20.69 -20.58,5.58l32.36 11.45z"/>
            <polygon class="fil6 str3"
                     points="8373.86,14061.79 8043.09,14151.78 7402.8,13659.65 7524.51,13252.19 7763.72,13244.67 7770.61,13463.83 7601.24,13360.67 8167.49,13728.42 "/>
            <polygon class="fil6 str3"
                     points="8274.41,13335.05 8471.67,13352.72 8638.36,13522.05 8638.36,14138.53 8373.86,14061.79 8371.22,13503.5 "/>
            <g>
    <path class="fil10 str1"
          d="M7380.65 21052.34c-4.81,23.08 1.83,8.19 -9.32,23.56 -14.29,19.72 -21.18,6.16 -46.57,38.94 -21.88,28.26 -28.13,44.21 -57.93,61.88 -55.9,72.74 -119.65,209.01 -143.54,305.78 -1.01,4.08 -5.42,25.13 -6.37,28.02 -0.71,2.15 -1.46,4.19 -2.19,6.16l-9.57 19.1c-85.76,438.16 -42.31,537.14 -34.52,929.37 1.21,60.81 -8.58,140.25 3.06,195.18 38.47,181.41 223.06,35.78 248.7,30.16 2.4,25.7 -3.77,46.97 -12.61,71.86 -11.39,32.07 -16.58,46.63 -39.74,65.94 -4.05,53.52 -115.91,115.82 -40.73,191.09 91.92,92.03 220.45,-19.39 166.71,247.49 -26.59,132.06 -109.94,142.67 133.08,218.22l48.28 8.24c8.16,-81.51 9.15,-152.67 17.12,-235.03 6.36,-65.8 24.49,-185.76 3.27,-243.98 -15.7,-5.71 -46.21,-54.14 -56.5,-70.84 -30.26,-49.1 -21.15,-60.07 -22.42,-121.74 -1.91,-92.28 -1.64,-185.69 1.84,-278.14 11.26,-299.37 30.05,-700.7 138.63,-972.54 44.94,-112.52 149.18,-242.6 295.33,-264.86 18.54,-35.41 257.97,-8.02 367.17,50.17 37.28,350.39 179.75,579.02 485.12,713.04 27.58,12.1 104.29,28.9 116.09,53.94 42.2,89.58 110.49,450.63 99.78,584.81 -5.81,72.83 -188.1,432.82 -232.16,448.8 -10.89,27.21 -19.41,28.87 -22.31,56.97 -2.23,21.7 -0.03,55.45 -0.1,78.49 -0.15,53.11 -3.12,103.35 -0.57,156.87 25.48,4.05 80.22,23.79 92.74,42.58 54.18,18.86 68.84,-9.37 104.22,-38.42 76.89,-63.14 166.39,-191.56 192.92,-277.21 105.68,-2.08 267.57,35.87 233.56,-217.22 -12.76,-94.92 -38.76,-92.95 14.51,-111.52 14.07,-32.86 184.34,-94.1 168.79,-382.39 -2.39,-44.23 -23.44,-142.15 -20.26,-162.61 -9.02,-9.62 -3.82,0.17 -12.57,-18.85 -5.46,-11.89 -31.22,-102.08 -63.14,-172.29 -28.5,-62.7 -68.66,-121.58 -92.75,-181.09 32.59,-69.86 52.67,-63.73 46.8,-192.87 -7.1,-156.44 -118.67,-388.01 -196.35,-510.62 -264.15,-416.96 -745.4,-726.81 -1241.05,-503.85 -55.21,24.84 -95.44,58.63 -158.31,75.45 -140.07,37.48 -285.11,106.68 -397.23,196.26 -15.04,12.01 -52.11,40.59 -58.91,57.7z"/>
                <path class="fil9 str1"
                      d="M7597.78 23014.32c56.44,23.15 -6.77,10.64 53.68,74.38 216.43,228.21 543.8,525.85 877.18,328.08 62.38,-37.01 232.6,-167.83 239.07,-252.69 6.14,-5.13 17.3,-5.39 22.95,-7.13 44.06,-15.98 226.35,-375.97 232.16,-448.8 10.71,-134.18 -57.58,-495.23 -99.78,-584.81 -11.8,-25.04 -88.51,-41.84 -116.09,-53.94 -305.37,-134.02 -447.84,-362.65 -485.12,-713.04 -109.2,-58.19 -348.63,-85.58 -367.17,-50.17 -146.15,22.26 -250.39,152.34 -295.33,264.86 -108.58,271.84 -127.37,673.17 -138.63,972.54 -3.48,92.45 -3.75,185.86 -1.84,278.14 1.27,61.67 -7.84,72.64 22.42,121.74 10.29,16.7 40.8,65.13 56.5,70.84z"/>
                <path class="fil9 str1"
                      d="M7529.11 23485.09l47.51 19.1c4.57,68.22 99.62,176.22 142.25,238.27l53.96 76.95 676.28 0c31.62,-72.83 68.91,-153.1 105.12,-212.75 40.45,-66.63 103.46,-183.42 213.45,-157.37 -2.55,-53.52 0.42,-103.76 0.57,-156.87 0.07,-23.04 -2.13,-56.79 0.1,-78.49 2.9,-28.1 11.42,-29.76 22.31,-56.97 -5.65,1.74 -16.81,2 -22.95,7.13 -6.47,84.86 -176.69,215.68 -239.07,252.69 -333.38,197.77 -660.75,-99.87 -877.18,-328.08 -60.45,-63.74 2.76,-51.23 -53.68,-74.38 21.22,58.22 3.09,178.18 -3.27,243.98 -7.97,82.36 -8.96,153.52 -17.12,235.03l-48.28 -8.24z"/>
                <path class="fil8 str1"
                      d="M9172.06 23819.41c9.7,-42.54 0.77,-59.52 -107.65,-167.6l-139.64 -123.98c-45.37,-27.55 -42.89,16.29 -64.35,-35.96 -12.52,-18.79 -67.26,-38.53 -92.74,-42.58 -109.99,-26.05 -173,90.74 -213.45,157.37 -36.21,59.65 -73.5,139.92 -105.12,212.75l722.95 0z"/>
   </g>
            <g>
    <path class="fil10 str1"
          d="M14167.47 6946.9l1005.42 10.59c289.87,422.5 302.01,771.47 219.12,1750.33l-240.3 2266.05 -216.96 7.93 -267.26 -3230.57 -79.38 7.94c-158.37,670.67 -380.5,1277.58 -637.66,1849.46 -34.43,515.61 -171.95,962.52 -375.71,1365.25l-243.42 -1.32c48.35,-830.39 169.87,-1680.82 384.73,-2566.06 107.96,-444.8 2.6,-951.93 451.42,-1459.6z"/>
                <polygon class="fil8 str1"
                         points="13331.32,10972.56 13172.41,11639.44 12627.37,11769.08 13283.54,11795.54 13574.74,10973.88 "/>
                <polygon class="fil8 str1"
                         points="15151.71,10973.87 14934.75,10981.8 14968.91,11689.71 14545.57,11787.6 15140.89,11790.25 "/>
   </g>
            <path class="fil0 str0"
                  d="M19484.78 5265.6l783.16 -418.04c-108.73,-304.33 -152.31,-623.46 -105.83,-963.09 241.89,-223.19 317.27,-404.74 248.72,-550.34 -189.12,-181.98 -373.54,-105.58 -555.62,100.54 82.36,-787.95 4.47,-1359.23 -534.48,-1307.02 -396.97,114.59 -663.14,118.27 -735.54,-42.33 -237.35,307.65 -323.59,773.62 -264.58,1391.71 18.1,414.9 96.52,796.9 269.87,1127.12 168.64,188.86 359.64,163.1 563.56,13.25 -10.94,149.44 -55.21,273 -129.64,373.06l460.38 275.14z"/>
            <path class="fil18"
                  d="M18585.19 2085.32c632.01,-459.65 1444.9,-408.08 1772.63,132.37 200.66,330.12 234.97,696.52 47.58,1111.29 -171.22,-163.1 -354.4,-131.27 -550.19,105.69 65.4,-673.07 7.82,-1115.8 -219.39,-1240.77 -149.25,-85.06 -298.35,-94.63 -447.29,-31.07 -280.01,71.59 -508.91,80.07 -603.34,-77.51z"/>
            <path class="fil20 str0"
                  d="M19024.4 4990.46l-73.03 -10.51c-367.4,1459.9 -605.49,3168.5 -605.98,5334.03 496.96,173.15 1172.55,201.68 1965.86,134.93 -129.5,-2374.61 -74.29,-4195.02 219.54,-5299.62l-142.91 -336.03 -111.13 0 -8.81 34.3 -783.16 418.04 -460.38 -275.14z"/>
            <path class="fil18"
                  d="M19511.02 5401.96c-147.44,-96.67 -307.66,-152.89 -476.25,-182.56l1.33 396.87c183.66,-9.17 345.04,-56.09 482.86,-142.87 106.03,111.23 256.44,157.75 447.15,145.52l0 -365.12c-162.75,1.51 -313.52,54.91 -455.09,148.16z"/>
            <path class="fil15" d="M19463.73 5505.38c-176.14,1632.23 -215.62,3290.1 -165.96,4964.68"/>
            <path class="fil0 str0"
                  d="M18908.81 5152.6l-1140.38 216.31c-74.01,1814.3 -13.35,3631.73 251.32,5389.58l320.15 5.29c-17.5,-2078.26 191.72,-3957.56 568.91,-5611.18z"/>
            <path class="fil0 str0"
                  d="M21258.21 10777.02l142.78 -3.91c-11.93,-760.14 6.64,-1523.66 121.81,-2297.96 66.15,-491.43 -83.38,-1075.37 -349.25,-1709.22 -94.9,528.25 -127.76,1048.03 -111.13,1561.05 68.87,866.46 134.19,1684.03 195.79,2450.04z"/>
            <path class="fil18"
                  d="M20530.79 5149.29l1441.8 261.98 -7.03 5392.93 -564.57 -31.09c-28.06,-765.72 21.44,-1531.73 121.81,-2297.96 73.22,-520.27 -97.69,-1104.22 -349.25,-1709.22 -88.25,520.35 -121.66,1040.71 -111.13,1561.05l195.79 2450.04 -910.17 -15.87 -36.79 -312.24c-167.25,-2516.31 -54.16,-4267.61 219.54,-5299.62z"/>
            <path class="fil18"
                  d="M17764.46 5469.71c-497.73,1316.52 -741.74,2528.66 -717.35,3577.06 736.06,103.1 1480.86,83.79 2231.04,-10.68l1445.6 -158.78 -35.97 -476.13 -2910.66 -175.14 -12.66 -2756.33z"/>
            <path class="fil15"
                  d="M18345.39 10313.98c484.02,166.54 1152.72,201.99 1965.86,134.93l36.79 312.24 -2008.14 2.63 5.49 -449.8z"/>
            <path class="fil10"
                  d="M19198.12 12478.48c-430.4,79.38 -860.77,-317.53 -1272.65,-306.94 -140.56,-8.5 -129.32,-260.49 15.86,-291.05 218.26,-92.75 485.52,-124.18 788.45,-111.08l-87.31 -166.69c120.75,-24.85 224.99,8.1 317.5,82.02l-21.16 -156.1c164.28,-5.28 316.37,58.19 452.44,211.66l-37.05 -127c391.31,212.61 360.11,778.69 -156.08,865.18z"/>
            <path class="fil21 str1"
                  d="M17882.51 12159.4c-352.8,551.55 -257.86,1021.69 87.89,1446.23 -224.49,-361.9 -4.24,-664.36 301.63,-436.56 121.33,-155.7 139.7,-406.99 63.5,-746.13 6.69,-58 65.63,-88.25 185.22,-86.29 -198.33,-104.78 -409.08,-170.15 -638.24,-177.25z"/>
            <path class="fil10"
                  d="M19298.54 13825.24c-117.37,-26.06 -200.21,-12.82 -190.5,105.83 72.19,-16.21 135.97,-50.84 190.5,-105.83z"/>
            <path class="fil10"
                  d="M19465.23 13829.21c11.34,62.5 49.08,89.2 109.81,84.67 -22.56,-61.61 -59.05,-90.11 -109.81,-84.67z"/>
            <path class="fil15" d="M19424.19 13269.59c174.6,374.46 204.19,611.07 -193.14,441.86"/>
            <path class="fil10"
                  d="M19429.42 14820.03l-202.31 -103.14c68.42,620.21 -1418.32,565.4 -1820.33,-84.67l-295.11 81.98c441.28,997.02 2488.54,918.53 2317.75,105.83z"/>
            <path class="fil21 str1"
                  d="M19429.42 14820.03l1037.16 285.73c445.86,854.46 461.04,1633.94 -109.1,2290.87 47.46,823.21 8.11,1603.01 -113.76,2341.56 99.33,115.15 87.36,197.47 -28.5,249.12 -1002.34,213.71 -2024.51,169.95 -3069.19,-166.69 -83.71,-67.74 -99.74,-150.12 -52.91,-246.06l-21.17 -304.27 -39.72 -5.29 3.95 -4527.02 75.49 -23.78c834.66,674.56 1624.25,885.01 2317.75,105.83z"/>
            <path class="fil15" d="M17487.21 19683.03c831.15,259.66 1624.2,290.69 2391.84,169.33"/>
            <path class="fil15" d="M19233.46 19593.07c151.3,91.29 321.42,118.62 508,89.96"/>
            <path class="fil15" d="M18288.89 17346.75c224.16,-117 479.64,-171.38 767.3,-161.39"/>
            <path class="fil15" d="M19035.02 17023.96c238.13,11.45 435.69,83.77 603.25,201.08"/>
            <path class="fil10"
                  d="M17146.03 19820.62l-5.48 796.41 3058.59 15.87 16.08 -645.59c-1044.52,213.31 -2067.45,155.88 -3069.19,-166.69z"/>
            <path class="fil18"
                  d="M20535.41 23807.78l-189.93 0c-3.16,-48.29 -5.15,-95.03 -10.14,-146.59 -5.79,-59.92 -22.3,-169.18 -2.98,-222.21 14.3,-5.2 42.09,-49.31 51.46,-64.52 27.56,-44.71 19.26,-54.71 20.42,-110.87 1.74,-84.05 1.49,-169.13 -1.68,-253.33 -10.25,-272.65 -27.36,-638.18 -126.26,-885.76 -40.93,-102.48 -135.87,-220.95 -268.98,-241.23 -16.88,-32.25 -234.95,-7.3 -334.4,45.7 -33.96,319.12 -163.72,527.35 -441.84,649.41 -25.12,11.02 -94.98,26.33 -105.73,49.13 -38.43,81.59 -100.63,410.42 -90.88,532.63 5.29,66.33 171.32,394.2 211.45,408.76 9.92,24.78 17.68,26.29 20.32,51.88 2.03,19.77 0.02,50.51 0.09,71.49 0.11,39.23 1.91,76.74 1.35,115.51l-213.83 0c-60.62,-62.17 -121.73,-155.58 -142.09,-221.32 -96.26,-1.9 -243.7,32.67 -212.73,-197.84 11.63,-86.45 35.31,-84.66 -13.21,-101.57 -12.82,-29.93 -167.89,-85.71 -153.73,-348.27 2.18,-40.29 21.35,-129.47 18.45,-148.1 8.22,-8.77 3.48,0.15 11.45,-17.17 4.97,-10.83 28.43,-92.97 57.51,-156.92 25.95,-57.1 62.53,-110.73 84.47,-164.93 -29.68,-63.63 -47.97,-58.04 -42.62,-175.66 6.46,-142.48 108.08,-353.39 178.83,-465.06 240.58,-379.76 678.89,-661.96 1130.31,-458.89 50.29,22.62 86.93,53.39 144.19,68.71 127.57,34.14 259.67,97.16 361.78,178.75 13.7,10.94 47.46,36.97 53.66,52.55 4.38,21.02 -1.67,7.46 8.49,21.46 13.01,17.96 19.29,5.61 42.41,35.47 19.93,25.74 25.62,40.26 52.76,56.36 50.91,66.25 108.98,190.36 130.73,278.49 0.92,3.72 4.94,22.89 5.81,25.52 0.64,1.96 1.33,3.82 1.99,5.61l8.72 17.4c78.11,399.06 38.53,489.21 31.44,846.44 -1.1,55.39 7.81,127.74 -2.79,177.77 -35.04,165.22 -203.16,32.59 -226.51,27.47 -2.19,23.4 3.43,42.78 11.49,65.45 10.37,29.2 15.1,42.47 36.19,60.05 3.69,48.75 105.57,105.49 37.1,174.04 -83.72,83.82 -200.78,-17.66 -151.84,225.41 15.38,76.37 51.57,108.15 19.3,138.78z"/>
            <path class="fil0"
                  d="M19911.79 23807.78l-423.29 0 -3.94 -2.25c-56.82,-33.7 -211.85,-152.85 -217.74,-230.14 -5.59,-4.67 -15.76,-4.91 -20.9,-6.49 -40.13,-14.56 -206.16,-342.43 -211.45,-408.76 -9.75,-122.21 52.45,-451.04 90.88,-532.63 10.75,-22.8 80.61,-38.11 105.73,-49.13 278.12,-122.06 407.88,-330.29 441.84,-649.41 99.45,-53 317.52,-77.95 334.4,-45.7 133.11,20.28 228.05,138.75 268.98,241.23 98.9,247.58 116.01,613.11 126.26,885.76 3.17,84.2 3.42,169.28 1.68,253.33 -1.16,56.16 7.14,66.16 -20.42,110.87 -9.37,15.21 -37.16,59.32 -51.46,64.52 -51.4,21.09 6.17,9.69 -48.89,67.75 -101.47,106.98 -229.7,230.72 -371.68,301.05z"/>
            <path class="fil18"
                  d="M20345.48 23807.78l-433.69 0c141.98,-70.32 270.21,-194.07 371.68,-301.05 55.06,-58.06 -2.51,-46.66 48.89,-67.75 -19.32,53.03 -2.81,162.29 2.98,222.21 4.99,51.56 6.98,98.3 10.14,146.59zm-856.98 0l-220.82 0c0.56,-38.77 -1.24,-76.28 -1.35,-115.51 -0.07,-20.98 1.94,-51.72 -0.09,-71.49 -2.64,-25.59 -10.4,-27.1 -20.32,-51.88 5.14,1.58 15.31,1.82 20.9,6.49 5.89,77.29 160.92,196.44 217.74,230.14l3.94 2.25z"/>
            <path class="fil10"
                  d="M31073.35 0c-619.27,883.86 -770.66,1621.51 -486.83,2223.12l-436.57 193.15c244.06,225.13 394.46,543.93 455.08,952.51l206.38 -42.34 -444.5 1090.09 -550.36 1550.45 3122.08 -42.33 31.75 -2614.09c-695.75,212.3 -1314.22,165.18 -1812.41,-285.75l153.46 -169.33c520.91,187.93 1075.42,221.27 1666.88,84.67l0 -2940.15 -127.02 0c-419.79,262.99 -783.18,315.61 -1047.76,0l-730.18 0z"/>
            <ellipse class="fil21 str1" cx="32283.62" cy="3108.15" rx="429.95" ry="440.53"/>
            <path class="fil8 str1"
                  d="M30149.95 2416.27c-583.38,261.3 -1152.58,544.69 -1672.39,904.87 -175.6,31.08 -332.39,131.22 -465.67,317.5l238.13 -42.34c-41.93,128.97 -160.81,197.47 -301.63,248.71 270.01,311.14 500.84,122.97 714.38,-285.75 650.76,26.81 1298.53,-26.79 1942.26,-190.48 -52.69,-427.44 -227.91,-741.43 -455.08,-952.51z"/>
            <polyline class="fil15 str1" points="28284.6,3989.25 28474.84,4273.64 28313.44,4734.01 "/>
            <line class="fil15 str1" x1="28474.84" y1="4273.64" x2="28982.84" y2="4294.8"/>
            <line class="fil15 str1" x1="29030.46" y1="4831.91" x2="28794.98" y2="4980.08"/>
            <path class="fil21 str1"
                  d="M28982.81 4231.3l47.62 878.41 -716.99 -375.7 -314.89 285.75 -37.04 920.75 3011.11 10.8 375.57 -741.05c-811.81,-805.14 -1610.07,-1331.99 -2365.38,-978.96z"/>
            <polygon class="fil10 str1" points="29607.22,4308.02 29165.37,4620.23 29538.43,5154.69 29969.7,4874.23 "/>
            <polygon class="fil10 str1" points="29112.44,5437.79 28686.46,5720.9 28850.5,5943.7 29443.17,5945.83 "/>
            <polygon class="fil10 str1" points="28141.55,4889.99 28329.27,5152.04 27984.48,5369.4 27998.55,5019.76 "/>
            <polygon class="fil10 str1" points="30345.41,5451.02 29917.55,5682.43 30049.03,5948 30705.23,5950.36 "/>
            <path class="fil10 str1"
                  d="M30516.32 4502.58l-152.39 85.89 420.69 579.44 328.53 -182.82c-184.15,-177.73 -382.92,-338.76 -596.83,-482.51z"/>
            <path class="fil0 str0"
                  d="M31716.1 7695.69c-184.17,508.03 -149.45,1054.68 26.24,1626.2l190.44 -55.57 283.11 -10.58 169.33 137.58 177.27 10.59 275.17 -52.92 82.03 -235.48 10.56 -1391.71 -243.42 -261.94 -275.17 -13.23 -238.12 66.15 -293.69 60.85 -163.75 120.06z"/>
            <path class="fil15 str0" d="M31975.16 8517.55c-242.54,396.46 -306.45,661.3 121.71,563.57"/>
            <path class="fil18"
                  d="M32975.3 6898.31l5.29 2619.38c-570.84,264.09 -1040.24,419.2 -1137.71,174.62l-100.54 -370.42c236.28,-254.04 483.37,-252.19 740.83,-5.29l343.96 -158.75 47.62 -1359.96c-169.93,-221.64 -396.27,-302.22 -693.2,-206.37 -181.45,121.52 -377.72,143.06 -587.38,74.08 -71.31,-118.76 -83.91,-249.9 -21.17,-396.88 150.26,-221.59 370.08,-300.52 661.46,-232.83 236.27,-230.82 483.38,-273.67 740.84,-137.58z"/>
            <path class="fil0 str0"
                  d="M32304.7 9779.36l101.63 22.75 -13.23 455.08 -193.15 121.71 227.54 378.36 558.28 -489.48 -5.18 -750.09c-230.83,112.59 -456.76,202.79 -675.89,261.67z"/>
            <polygon class="fil20 str0"
                     points="32396.9,10126.37 31058.25,10650.09 30698.42,11951.85 31195.84,12179.39 31412.8,11528.51 31195.84,12179.39 31508.02,15185.08 32973.81,15148.04 32985.77,10267.78 32427.49,10757.26 32199.95,10378.9 32393.1,10257.19 "/>
            <ellipse class="fil18 str0" cx="32424.1" cy="10890.23" rx="58.21" ry="54.24"/>
            <ellipse class="fil18 str0" cx="32380.44" cy="11218.31" rx="56.88" ry="54.24"/>
            <path class="fil0 str0"
                  d="M30867.27 12029.09l-54.52 1169.65c-405.7,830.79 -578.56,1693.33 -867.84,2540l423.34 -10.58 999.7 -1891.63 -172.11 -1657.14 -328.57 -150.3z"/>
            <polygon class="fil18 str0" points="31564.26,15183.65 31590.57,15736.1 32977,15736.1 32973.85,15130.2 "/>
            <g>
    <path class="fil10 str1"
          d="M32974.33 16566.87l5.29 984.25c-758.73,98.05 -1474.37,318.21 -2148.42,656.17 -138.43,23.54 -138.49,-31.48 -15.88,-156.1 -273.31,-820.12 -30.09,-1385.62 698.5,-1711.86 654.94,-193.11 1158.34,-143.8 1460.51,227.54z"/>
                <path class="fil21 str1"
                      d="M31643.68 17864.23l-0.31 406.55 -63.44 3.89c-138.1,-217.8 -295,-243.8 -468.38,-101.79l-70.53 -66.36c196.24,-91.48 397.34,-171.74 602.66,-242.29z"/>
                <path class="fil8 str1"
                      d="M31111.55 18172.88c-100.31,143.48 12.96,368.91 250,525.2 -1.17,350.88 -49.14,678.34 -134.96,986.9l791.1 428.62 465.67 -298.98 -116.42 -150.81 2.65 -190.5c283.67,186.96 488.03,132.31 616.48,-153.46l-6.45 -1768.73c-469.75,56.66 -913.1,164.9 -1335.94,313.11l-0.31 406.55 -63.44 3.89c-150.34,-227.03 -307.23,-235.21 -468.38,-101.79z"/>
                <path class="fil10 str1"
                      d="M32483.36 19814.62l-465.67 298.98 -807.51 -435.78 -86.91 -37.9 -185.21 359.83c-1408.44,612.23 -2301.1,1756.64 -2820.52,3286.12l1034.53 74.09 698.5 -1000.13 298.98 1439.34 2833.67 18.53 -5.31 -3705.52c-187.16,23.53 -349.71,-88.26 -494.55,-297.56z"/>
                <polygon class="fil15 str4"
                         points="31226.59,19684.98 31123.27,19639.92 30938.06,19999.75 31729.17,20531.57 32017.69,20113.6 32335.07,20539.51 32618.18,19978.59 32483.36,19814.62 32017.69,20113.6 "/>
                <polygon class="fil8 str1"
                         points="29152.07,23359.96 29152.07,23810.73 28001.05,23800.44 28117.54,23285.87 "/>
   </g>
            <g>
    <path class="fil6 str0"
          d="M36652.61 23847.78l-982.15 0c-10.1,-127.14 -15.09,-254.27 -15.16,-381.41l980.24 13.34c10.71,122.69 16.67,245.38 17.07,368.07z"/>
                <path class="fil6 str0"
                      d="M36985.29 21407.97l-589.68 2067.41 202.21 3.81c64.4,-58.98 113.56,-127.33 153.81,-201.17l-62.5 -91.55 62.01 -79.2 58.2 33.39c54.87,-54.68 93.08,-111.33 117.51,-169.6l-110.41 -49.98 72.61 -107.4 110.35 25.58c260.22,-481.16 222.96,-685.67 126.85,-1043.88l-98.11 105.69 -50.49 -33.45 132.4 -139.67c0.26,-92.1 -17.54,-283.73 -124.76,-319.98z"/>
                <path class="fil0 str0"
                      d="M36976.97 21422.98l-581.36 2052.43 -101.1 -0.35c-226.27,-782.67 110.02,-1541.04 682.46,-2052.08z"/>
                <path class="fil6 str0"
                      d="M35646.78 21073.21l566.07 2400.74 284.58 4.26c243.7,-1098.28 -221.02,-2190.5 -374.14,-2082.4l-115.38 81.45 -41.18 -34.62 36.24 -167.72c14.96,-69.23 -225.17,-156.37 -356.19,-201.71z"/>
                <path class="fil0 str0"
                      d="M35646.78 21073.21l573.27 2400.84 -357.99 -4.87c-387.19,-863.62 -448.91,-1660.18 -215.28,-2395.97z"/>
                <path class="fil6 str0"
                      d="M34968.47 22139.38l980.38 1330.98 163.17 2.21c15.82,-59.95 12.04,-118.51 -3.27,-176.24l-116.69 -23.34 0 -70.03 73.36 -6.66c10.47,-53.51 5.09,-100.95 -13.35,-143.37l-130.02 20 -10.01 -90.01 113.37 -33.35c-90.65,-413.87 -320.57,-658.63 -660.18,-770.2l-13.34 100.02 -66.68 3.34 20.01 -133.36c-106.8,-31.65 -218.83,-36.13 -336.75,-9.99z"/>
                <path class="fil0 str0"
                      d="M34968.47 22139.38l980.38 1330.98 -293.55 -3.99c-596.43,-359.5 -722.13,-825.11 -686.83,-1326.99z"/>
   </g>
            <polygon class="fil9 str1" points="11038.06,9477.82 10336.86,10017.57 11040.66,10017.57 "/>
            <polyline class="fil15 str1" points="7884.5,2570.85 7852.75,3195.27 7971.82,3277.29 "/>
            <path class="fil15 str1" d="M7828.93 3597.44c130.75,45.82 234.39,44.17 280.46,-58.21"/>
            <polygon class="fil9 str1"
                     points="7330.06,2454.95 6762.67,2475.59 7069.59,3888.47 7595.5,3892.62 7488.86,3619.86 7154.26,3634.47 6894.96,2576.13 7333.03,2560.49 "/>
            <polygon class="fil10" points="8215,4656.68 8613.16,4654.46 8372.63,4876.68 "/>
            <polygon class="fil10" points="8372.63,4876.68 7826.02,8472.41 8207.02,8715.83 8588.02,8535.91 "/>
            <polygon class="fil10" points="8216.43,10033.44 6885.53,9499 6892.03,10017.57 "/>
            <path class="fil8 str1"
                  d="M7333.03 2560.49l-438.07 15.64 259.3 1058.34 334.6 -14.61c-100.61,-333.68 -149.4,-688.06 -155.83,-1059.37z"/>
            <path class="fil8 str1"
                  d="M6709.75 3324.91l23.81 -211.67 248.71 -283.11c43.46,6.61 66.79,32.18 50.27,95.25l-169.33 190.5 -34.4 206.38 254.01 -82.02c75.47,-20.7 111.52,18.91 127,89.96 80.53,39.64 93.21,91.78 39.68,156.1l-293.68 44.98 288.39 50.27c104.33,29.1 106.44,59.03 -13.23,89.96l-312.21 15.88 -47.63 235.47 -52.92 140.24 -764.66 1248.84 -26.46 -873.13 534.47 -564.88c7.19,-188.05 52.81,-371.51 148.18,-549.02z"/>
            <path class="fil10"
                  d="M8715.37 1593.21c26.29,-57.75 7.23,-78.04 -47.63,-68.79 -432.34,242.32 -871.19,311.56 -1317.63,179.92l-21.16 682.62c-161.53,-279.04 -221.35,-568.77 -259.3,-867.83 -58.38,-151.16 -45.69,-296.86 79.38,-433.92 154.92,35.26 225.77,-68.26 234.87,-129.73 48.9,-167.51 311.53,-220.48 553.59,-44.9 172.84,187.5 384.54,214.73 613.84,169.34 336.61,-21.29 525.92,157.1 545.04,566.21 12.13,334.79 -22.36,661.11 -87.84,981.8l-88.71 -3.55c35.11,-316.32 -38.45,-538.47 -215.04,-671.34 -125.49,-102.5 -154.95,-195.6 -100.54,-280.45l111.13 -79.38z"/>
            <path class="fil0 str0"
                  d="M20530.79 5149.29l720.9 130.99 -78.14 1485.65c-186.45,1133.82 -26.58,2619.18 84.66,4011.09l-910.17 -15.87c-218.4,-2455.19 -126.17,-4316.83 182.75,-5611.86z"/>
            <ellipse class="fil0" cx="32058.5" cy="9423.75" rx="207.69" ry="96.57"/>
            <path class="fil15 str1" d="M19424.19 13269.59c110.91,303.8 91.12,490.89 -193.14,441.86"/>
            <path class="fil22 str5"
                  d="M7350.11 1704.34l-21.16 682.62c8.37,704.53 110.74,1258.66 330.75,1624.52 97.47,108.04 221.79,138.93 375.71,84.67 64.89,111.43 56.82,195.49 -47.63,243.41l248.71 137.59c341.43,-121.74 577.59,-331.56 746.13,-597.96l-68.79 -836.09c175.61,24.43 261.83,-114.39 275.16,-386.29 -12.21,-109.51 -69.23,-140.58 -166.11,-101.93l-14.35 73.05 -88.71 -3.55c52.75,-318.5 -31.41,-532.76 -215.04,-671.34l193.17 -333.4 -63.5 -216.96 -428.62 0 -338.67 132.3 -402.17 137.58 -232.83 0 -82.05 31.78z"/>
            <path class="fil15 str1"
                  d="M7664.99 1672.56l402.17 -137.58 338.67 -132.3 428.62 0 63.5 216.96 -193.17 333.4c183.63,138.58 267.79,352.84 215.04,671.34l88.71 3.55 14.35 -73.05c96.88,-38.65 153.9,-7.58 166.11,101.93 -13.33,271.9 -99.55,410.72 -275.16,386.29l68.79 836.09c-168.54,266.4 -404.7,476.22 -746.13,597.96l-248.71 -137.59c104.45,-47.92 112.52,-131.98 47.63,-243.41 -153.92,54.26 -278.24,23.37 -375.71,-84.67 -220.01,-365.86 -322.38,-919.99 -330.75,-1624.52l21.16 -682.62 82.05 -31.78 232.83 0z"/>
  </g>
 </g>
</svg>
