<?xml version="1.0" encoding="UTF-8"?>
<!DOCTYPE svg PUBLIC "-//W3C//DTD SVG 1.1//EN" "http://www.w3.org/Graphics/SVG/1.1/DTD/svg11.dtd">
<!-- Creator: CorelDRAW 2018 (64-Bit Evaluation Version) -->
<svg xmlns="http://www.w3.org/2000/svg" xml:space="preserve" width="453.78mm" height="240.336mm" version="1.1" style="shape-rendering:geometricPrecision; text-rendering:geometricPrecision; image-rendering:optimizeQuality; fill-rule:evenodd; clip-rule:evenodd"
viewBox="0 0 45388.86 24039.37"
 xmlns:xlink="http://www.w3.org/1999/xlink">
 <defs>
  <style type="text/css">
   <![CDATA[
    .str0 {stroke:#1B9BD9;stroke-width:20;stroke-miterlimit:22.9256}
    .fil29 {fill:#FEFEFE}
    .fil15 {fill:#EEEEEF}
    .fil12 {fill:#EAEDEE}
    .fil26 {fill:#EAEAEA}
    .fil5 {fill:#E5EAE9}
    .fil23 {fill:#E2EAEC}
    .fil4 {fill:#DDE1E0}
    .fil6 {fill:#D4DEDC}
    .fil18 {fill:#C3DDDE}
    .fil9 {fill:#BEDDE0}
    .fil20 {fill:#C1BDBC}
    .fil11 {fill:#B9DDE0}
    .fil21 {fill:#B6DDE4}
    .fil25 {fill:#92C7CE}
    .fil27 {fill:#88D2DA}
    .fil28 {fill:#94A29C}
    .fil19 {fill:#73ABAF}
    .fil31 {fill:#6C8D92}
    .fil22 {fill:#687A82}
    .fil32 {fill:#4E8D95}
    .fil24 {fill:#097C85}
    .fil30 {fill:#19636D}
    .fil13 {fill:#1B9BD9}
    .fil7 {fill:#1B9BD9}
    .fil17 {fill:#98C9E5}
    .fil3 {fill:#98C9E5}
    .fil10 {fill:#EEFAFF}
    .fil14 {fill:#EEFAFF}
    .fil2 {fill:#F0BECA}
    .fil34 {fill:#F50A2B}
    .fil8 {fill:#F50A2B}
    .fil16 {fill:#FFEFEF}
    .fil0 {fill:none;fill-opacity:0.600000}
    .fil1 {fill:#EEFAFF;fill-opacity:0.800000}
    .fil33 {fill:#1B9BD9}
   ]]>
  </style>
 </defs>
 <g id="Layer_x0020_1">
  <metadata id="CorelCorpID_0Corel-Layer"/>
  <g id="_2048505506672">
   <path class="fil0" d="M-0 0l45378.04 0 0 1391.36 0 157.78 0 474.59 0 157.77 0 4484.6 0 3816.02 0 557.07 0 3169.64 0 3675.18 0 848.29 0 35.87 0 583.72 0 39.59 0 3075.41 0 418.13 0 291.02 0 235.3 0 277.43c-7531.41,0 -15062.81,0 -22594.22,0 -3770.97,0 -7541.95,0 -11312.91,0 -1173.71,0 -11046.45,-66.7 -11260.93,27.02l-12.55 314.11 -39.28 0 -158.16 0 0 -24029.89z"/>
   <path class="fil1" d="M20817.29 1332.09c3873.62,0 7013.81,3140.14 7013.81,7013.74 0,3873.63 -3140.19,7013.77 -7013.81,7013.77 -3873.61,0 -7013.8,-3140.14 -7013.8,-7013.77 0,-3873.6 3140.19,-7013.74 7013.8,-7013.74zm4054.84 1611.26c-1796.24,-1857.07 -4929.15,-2315.7 -7260.13,0 -1155.48,1477.35 -1279.44,3067.01 -443.64,4761.23 529.85,1027.66 1872.95,1892.66 2809.43,2838.99l-3149.51 3193.89c2050.58,2116.71 5133.18,2052.97 7156.65,133.07 987.1,-1239.58 1201.34,-2526.01 887.19,-3844.47 -156.47,-673.41 -459.66,-1273.43 -931.54,-1789.15l-2232.75 -2070.1 3164.3 -3223.46zm-7016.11 280.98l5427.7 4857.84c1825.38,1967.29 1697.9,3757.04 486.89,5448.28l-5371.05 -4930.29c-1785.95,-1750.29 -1793.79,-3546.72 -543.54,-5375.83z"/>
   <path class="fil2" d="M7835.9 18119.45l-5.51 1030.7c82.03,29.83 62.3,5.43 126.61,85.01 44.94,55.62 43.3,72.79 60.63,136.74l378.79 -9.42 31.86 141.56 -2.45 -149.99 580.97 3.58 1394.21 8.96 51.57 -17.39 240.46 -2.74c198.06,74.59 6911.51,14.87 7761.54,14.87 1295.61,0 2591.23,0 3886.84,0 1292.25,0 2611.89,-26.93 3900.85,3.44l49.77 -11.87 252.65 -1.08c84,58.3 42.32,69.7 147.71,70.24 42.12,-82.65 32.4,-68.05 325.74,-63.7l762.37 1.1c167.95,4.14 223.61,-2.85 204.52,199.99l3.09 -207.2 546.94 -6.99c50.42,57.92 25.37,-60.67 35.94,95.39l49.96 -97.54c174.28,0.88 323.46,0.76 421.23,-118.28l25.8 -38.26c163.51,-264.91 98.94,-658.73 98.94,-1072.86 -310.58,-134.32 308.26,-223.58 -1232.25,-218.71 -1252.1,3.96 -2756.43,-75.9 -4013.24,-77.04 -1819.48,-1.66 -3647.06,5.22 -5466.85,-9.89 -2279.31,-18.92 -4555.47,3.09 -6825.67,37.33l-2720.58 -2.2c-793.03,34.22 -678.61,-46.04 -1000.62,217.06l-71.82 59.18z"/>
   <path class="fil3" d="M38852.32 10912.99c-175.56,-50.85 -391.73,48.37 -568.85,65.39l-163.22 56.72c-136.08,150.23 -64.16,1367.67 -67.37,1643.83 -6.59,567.5 2.34,1139.08 2.38,1707.39 0.08,1143.3 -24.5,2303.57 -3.28,3444.75l7326.05 52.93 0 -7123.35 -3896.33 -10.88c-5.47,-1.92 -15.74,-5.54 -22.65,-10.08l-126.02 10.16c-481.41,-14.76 -1844.54,-25.77 -2346.47,110.26l-107.26 39.43c-5.28,-7.94 -18.68,7.79 -27,13.45z"/>
   <path class="fil4" d="M209.99 23715.77c214.47,-93.71 10087.22,-27.02 11260.93,-27.02 3770.96,0 7541.94,0 11312.91,0 7531.41,0 15062.81,0 22594.22,0l0 -277.43 0 -235.3 -20603.24 0c107.04,-132.24 -34.96,-54.91 183.11,-102.34l414.55 -62.15c218.25,-7.51 439.84,-2.2 660.35,-12.39 394.48,-18.24 883.83,-45.62 1239.14,-91.54l997.11 -51.46c96.75,-16.68 90.54,-48.65 263.68,-57.55 206.43,-10.61 434,25.37 629.84,-20.44 139.05,-32.54 538.54,-31.08 555.82,-72.8 4.24,-10.23 16.54,-6.27 23.9,-11.08 -684.95,37.75 -385.15,-35.51 -637.1,-58 -192.72,-17.2 -491.92,1.04 -696.52,1.04l-17949.51 0.21c-271.24,-0.19 -739.16,65.11 -937.47,21.45 -208.1,-45.82 -752.53,-128.54 -962,-22.69 -110.8,55.98 84.73,27.25 -123.07,63.33 -125.07,21.72 -251.21,-33.75 -401.27,14.6l-49.66 28.54c222.93,54.99 213.51,60.29 446.03,28 8.05,9.28 35.39,82.33 39.4,89.12 -384.78,-50.07 -760.32,-74.86 -1140.8,-127.68 -206.48,-28.67 -385.71,-41.87 -581.88,-70.07 -86.85,-12.48 -443.17,-69.24 -541.52,-60.35 5.92,7.24 15.51,14.56 20.95,18.65l-6012.48 79.22 -57.23 1330.27 39.28 0 12.55 -314.11zm31295.67 -1201.5c-234.37,152.94 -675.16,173.6 -1013.48,224.99 -163.75,24.87 -391.99,24.54 -565.27,34.75 -100.32,5.92 -199.03,8.63 -298.83,17.89 -127.34,11.8 -187.8,16.01 -262.69,90.19l16012.66 2.91 0 -418.13 -13588.13 0c-85.52,-19.5 -40.84,-47.32 -81.23,-138.09 -29.47,-66.2 61.75,-60.49 -76.62,-94.51 26.14,63.93 31.61,115.05 31.61,214.69 -120.4,23.7 -16.3,26.38 -158.01,65.31z"/>
   <path class="fil5" d="M5799.83 22560.95c191.86,3.83 171.79,88.52 407.09,40.8 98.35,-8.88 454.67,47.87 541.52,60.35 196.17,28.2 375.4,41.4 581.88,70.07 380.48,52.82 756.02,77.61 1140.8,127.68 -4.01,-6.79 -31.35,-79.84 -39.4,-89.12 -232.52,32.3 -223.09,27 -446.03,-28l49.66 -28.54c150.06,-48.35 276.2,7.11 401.27,-14.6 207.8,-36.08 12.27,-7.34 123.07,-63.33 209.47,-105.86 753.9,-23.14 962,22.69 198.32,43.66 666.23,-21.64 937.47,-21.45l17949.51 -0.21c204.6,0 503.8,-18.24 696.52,-1.04 251.95,22.5 -47.85,95.75 637.1,58 -7.35,4.81 -19.65,0.85 -23.9,11.08 -17.28,41.72 -416.77,40.26 -555.82,72.8 -195.84,45.81 -423.41,9.83 -629.84,20.44 -173.14,8.9 -166.93,40.87 -263.68,57.55l-997.11 51.46c-355.3,45.92 -844.65,73.3 -1239.14,91.54 -220.5,10.19 -442.1,4.88 -660.35,12.39l-414.55 62.15c-218.07,47.43 -76.08,-29.9 -183.11,102.34l20603.24 0 0 -291.02 -16012.66 -2.91c74.89,-74.18 135.35,-78.39 262.69,-90.19 99.8,-9.26 198.51,-11.97 298.83,-17.89 173.28,-10.21 401.53,-9.88 565.27,-34.75 338.32,-51.39 779.12,-72.06 1013.48,-224.99 30.84,-101.91 48.53,-145.72 31.6,-286.79 -135.34,-47.93 -1892.62,-46.2 -2247.49,-33.89 -193.84,6.73 -88.81,46.28 -255.14,14.3 -130.4,-25.07 -240.03,-5.65 -373.16,-3.83 -243.99,-85.88 166.49,92.07 -61.04,-38.55 -156.34,-89.75 -759.55,-95.25 -918.33,-53.33l-157.58 34c-383.89,31.78 -77.74,25.26 -316.08,58.77 -276.03,38.82 -438.43,-34.34 -518.31,-48.47 -140.34,-24.82 -230.51,29.55 -305.87,43.54 -362.23,67.28 -2379.31,-63.81 -3043.54,41.87l-13702.63 -37.83c-447.5,0 -1385.75,-32.67 -1741.3,-9.81 -122.17,7.85 -251.4,0.92 -375.93,0.99l-2217.14 63.29c260.22,2.26 123.37,34.11 290.25,69.09 15.01,-148.93 20.45,-104.11 216.08,-95.58 18.4,213.94 21.55,119.03 -10.23,328.91z"/>
   <path class="fil3" d="M28103.35 20235.53l-61.3 -465.54 -57.02 -210.54c-25.43,182.69 50.49,268.45 33.51,448.76 -72.51,-12.15 -233.46,-122.69 -297.15,-159.1 -141.76,-81.05 -220.08,-64.3 -352.18,-122.76 -117.69,-52.09 -140.04,-131.57 -291.74,-167.72 -201.32,-47.98 -287.47,-19.39 -385.06,-136.57 -105.39,-0.54 -63.71,-11.93 -147.71,-70.24l-38.81 305.85c-256.11,37.5 -220.36,-54.11 -213.84,-304.77l-49.77 11.87c-1288.96,-30.37 -2608.6,-3.44 -3900.85,-3.44 -1295.61,0 -2591.23,0 -3886.84,0 -850.03,0 -7563.48,59.71 -7761.54,-14.87l-25.86 320.3 -195.84 -13.18 -18.76 -304.37 -51.57 17.39 -22.25 133.27c-179.08,-130.08 -595.73,69.69 -749,133.21 -205.2,85.05 -426.49,253.4 -642.63,260.41l-1.26 -169.57c-34.37,41.07 -16.72,5.83 -40.55,74.53 -44.44,128.1 -3.16,319.22 -102.78,553.76 -471.26,49.94 -195.45,-152.6 -353.02,-346.22 -44.67,319.61 -95.41,125.22 -545.73,408.06 110.69,58.27 3396.08,49.14 3938.2,37.52l3886.57 9.41c2658.11,-13.05 5375.66,-32.34 8027.73,4.27 240.23,3.31 339.29,41.03 611.93,6.16l4317.43 -14.06c45.56,2.87 116.61,10.02 160.2,3.47 146.02,-21.94 96.91,12.87 115.54,-79.55 -104.2,-3.92 -110.04,-45.49 -249.24,-75.57 -86.08,-18.59 -71.46,4.17 -155.73,-38.5 -218.89,-110.83 -35.76,-273.72 -49.81,-514.38l-23.36 0c-47.59,163.05 -60.96,249.82 -77.05,422.14 -21.85,233.99 -35.7,187.92 -270.33,191.15l-72.51 -130.57z"/>
   <path class="fil3" d="M29704.28 17730.74c-4.9,-3.14 5735.67,111 5791.89,18.99 149.34,-244.31 436.72,-939.21 571.36,-1162.85l339.69 -645.59c114.81,-216.28 233.48,-435.15 346.62,-664.37 116.88,-236.76 68.17,-519.29 68.1,-890.6 -0.06,-326.71 -0.47,-653.48 -0.98,-980.17 -0.8,-513.63 28.81,-1523.12 1.61,-1967.61l-100.01 -7.51c-175.5,2.3 -823.8,271.95 -1025.37,351.09 -190.6,74.83 -308.96,123.41 -488.08,205.69 -1310.59,601.94 -5196.06,3693.66 -5504.82,5742.93z"/>
   <path class="fil6" d="M17624.46 14306.39c-444.25,55.37 -935.47,243.73 -1288.56,326.98 -213.2,50.26 -421.81,145.17 -619.03,211.02 -132.09,44.1 -504.84,-74.17 -540.48,-205.6 -320.24,6.46 -499.04,7.01 -770.1,-68.26 -9.13,-2.53 -17.53,-4.21 -26.81,-6.59 -319.42,-81.9 -591.49,-74.19 -980.95,-67.33l-1342.76 92.21c-151.02,38.45 -248.95,47.39 -436.88,62.46 -407.42,80.71 -782.95,15.37 -882.62,97.53 83.79,106.44 87.99,274.49 43.91,398.75 110.73,-4.29 234.15,-16.62 344.01,-6.51 149.1,13.73 100.55,35.91 443.55,58.14 177.73,11.52 133.95,49.43 471.47,66.6 251.99,12.82 428.5,11.65 649.01,55.36 199.48,39.54 437.63,75.96 646.83,86.93 230.04,12.06 362.74,75.58 599.54,81.96 899.62,24.25 586.67,77.39 1263.17,135.61 187.12,16.1 483.81,16.8 619.48,84.54 165.98,2.53 259,30.88 393.86,61.98 468.42,13.96 964.76,139.77 1372.19,111.41 389,-63.43 1014.73,27 1440.08,25.39 432.79,-1.63 638.48,35.09 1032.18,-77.99 138.85,-39.88 -23.13,-56.1 324.79,-53.84 2.69,-122.63 44.8,-191.12 -14.39,-301.72 -93.3,-174.32 -109.16,53.73 -117.56,-298.66l-124.18 -63.24c-51.89,-436.46 1.92,-302.62 -138.11,-492.79 -84.42,-114.66 -54.79,-205.96 -363.43,-245.3 -639.47,-81.51 -458.09,-64.85 -1233.76,-53.97 -155.87,2.18 -194.58,38.18 -342.36,47.15 -205.29,12.46 -341.33,44.74 -422.09,-62.23z"/>
   <path class="fil7" d="M45378.04 19351.88l0 -583.72c-984.77,0 -9876.4,-46.87 -10002.98,24.61 -52.25,56.17 2.32,-32.8 -35.07,61.94 -59.75,151.45 -79.46,353.84 -55.66,496l10093.71 1.17z"/>
   <path class="fil2" d="M7827.43 17394.25l8.47 725.2 71.82 -59.18c322.01,-263.1 207.59,-182.84 1000.62,-217.06l2720.58 2.2c2270.2,-34.24 4546.35,-56.25 6825.67,-37.33 1819.79,15.11 3647.37,8.23 5466.85,9.89 1256.81,1.14 2761.14,81 4013.24,77.04 1540.52,-4.87 921.67,84.39 1232.25,218.71l-12.37 -541.02 -6.48 -157.58c10.77,-141.29 47.05,-182.34 52.59,-339.74 4.3,-122.01 -0.22,-257.46 -0.28,-380.98 -0.21,-437.24 -4.26,-345.69 -159.54,-636.98l-29.38 -58.41 -16.45 -1079.18c16.09,-238.34 56.41,-699.71 -64.03,-863.66l-62.6 -98.59c-263.26,-520.7 -149.42,-156.57 -287.69,-361.51 -59.41,-139.4 -418.51,-310.12 -587.45,-359.29l-590.23 -128.12c-567.62,-171.63 -3447.21,-77.67 -4368.09,-87.3 -300.97,-3.15 -240.12,48.85 -267.57,100.06l16.57 322.35c32.71,131.65 46.67,248.28 16,381.4 57.89,-68.34 19.76,-46 33.93,-133.33 15.39,-94.96 6.07,-109.35 49.84,-164.6 252.83,440.74 64.85,858.65 108.77,1107.6 4.2,-6.23 10.14,-23.1 12.7,-18.64l54.28 -64.44c5.69,-6.35 15.71,-15.97 23.45,-24.08l133.46 346.64 610.12 -58.24 916.57 -17.64 15.21 30.68 16.54 0c5.26,-4.19 11.82,-11.4 14.35,-14.21l220.68 -57.6c56.01,-87.97 68.77,-129.24 162.36,-233.55 131.34,-146.38 32.5,249.53 101.8,-142.12 620.08,6.3 -22.83,-21.94 383.4,59.32l103.83 -293.39 110.41 -29.11c12.02,312.25 -49.62,225.04 -157.22,479.23 -48.39,114.32 -192.71,315.74 -281.2,357.91 -253.01,461.27 -148.08,554.47 -765.27,695.02 -373.75,85.1 -757.55,160.24 -1157.89,227.06 -374.73,14.84 -708.57,52.3 -1107.16,43.99 -236.72,-4.93 -283.03,-60.35 -377.14,-210.98 -48.98,-78.39 -179.11,-311.21 -202.22,-336.53l-168.38 254.03c-73.7,62.65 -116.09,90.46 -200.51,128.26l-95.31 7.69c-96.51,16.84 -185.25,15.31 -274.8,30.95 -106.55,18.61 -98.13,42.7 -228.34,57.24 -1.54,-1.67 -49.26,-41.75 -63.8,-65.78 -38.24,70.19 -201.27,110.3 -295.66,126.45 -323.78,55.39 -927.65,40.59 -1252.16,36.49 -287.45,-3.63 -582.7,14.15 -866.83,-11.2 -162.7,-14.52 -703.57,26.53 -794.46,-54.7 -407.43,28.37 -903.77,-97.44 -1372.19,-111.41 -134.86,-31.11 -227.88,-59.45 -393.86,-61.98 -135.67,-67.74 -432.35,-68.44 -619.48,-84.54 -676.5,-58.22 -363.55,-111.37 -1263.17,-135.61 -236.81,-6.38 -369.5,-69.9 -599.54,-81.96 -209.2,-10.97 -447.36,-47.39 -646.83,-86.93 -220.51,-43.71 -397.02,-42.54 -649.01,-55.36 -337.52,-17.16 -293.74,-55.07 -471.47,-66.6 -342.99,-22.24 -294.45,-44.41 -443.55,-58.14 -109.87,-10.11 -233.29,2.22 -344.01,6.51 -41.3,28.64 -36.07,29.52 -71.29,59.27 -15.57,13.16 -36.88,41.81 -40.98,34.76 -3.64,-6.27 -13.95,12.52 -21.4,18.21 -100.46,70.97 -210.85,162.75 -288.65,264.59 -68.93,-18.22 -56.91,-7.02 -131.95,9.26 -60.33,84.57 -22.68,22.25 -87.83,84.36 -48.76,46.49 -15.56,22.19 -57.16,67.83 -64.04,70.25 -106.31,64.84 -185.67,81.79l7.29 -135.92c100.11,-106.25 -8.27,-92.43 137.6,-190.73 21.64,-158.85 211.76,-305.72 319.12,-422.32l-96.31 -126.47 100.19 -253.41 213.39 0.5 44.82 25.87c4.61,3.06 15.41,9.63 20.98,13.43l93.94 70.23c99.67,-82.16 475.2,-16.82 882.62,-97.53 187.93,-15.07 285.87,-24.02 436.88,-62.46l1342.76 -92.21c389.46,-6.86 661.54,-14.57 980.95,67.33 9.27,2.38 17.67,4.06 26.81,6.59 271.06,75.27 449.87,74.72 770.1,68.26 94.69,-49.11 61.95,-54.13 193.23,-42.1 3.21,-133.73 -12.5,-165.47 33.49,-287.01 27.1,-71.63 7.93,35.55 44.31,-115.25 5.02,-20.81 9.01,-76.27 14.02,-104.21 232.75,-337.17 96.9,-309.86 268.38,-568.61 82.29,-124.16 197.79,-343.18 191.09,-479.14 -933.17,-91.14 -4626.19,33.83 -5824.97,-8.76 -173.5,1.12 -920.05,73.4 -1043.54,207.81 -228.03,60.08 -5.58,77.35 -228.8,88.08 -285.94,25.41 -729.79,521.86 -747.66,815.66 10.92,140.78 -44.47,220.62 -54.76,366.06 -11.64,164.66 23.19,253.63 -9.86,429.77 -43.76,233.23 -23.18,584.18 -19.87,834.77l-8.19 248.48c-70.03,65.63 -166.61,125.81 -195.07,207.9 -29.21,84.25 -22.71,301.25 -22.6,398.97 0.35,319.07 2.92,499.71 61.83,763.04z"/>
   <path class="fil8" d="M21114.04 12915.81l-8.69 99.26c62.85,481.18 -129.47,948.6 -460.62,1284.19 -128.56,104.27 -342.97,71.87 -531.43,67.67 15.65,270.31 43.05,185.8 117.56,386.38 53.08,142.88 93.41,236.43 160.41,379.24 67.56,144.02 275.65,574.24 401.14,654.02 14.53,24.03 62.25,64.11 63.8,65.78 469.01,-52.38 692.14,-62.98 967.34,-478.17l-113.14 -285.23 -44.44 -175.4c-63.57,-60.53 -84.46,-110.11 -99.42,-228.99 109.43,2.21 213.68,33.25 333.04,32.52 140.77,-0.86 221.71,-43.41 352.44,-42.65l106.22 316.74c873.73,-46.83 822.43,-946.22 525.46,-1463.9 -43.77,55.25 -34.45,69.64 -49.84,164.6 -14.16,87.33 23.97,65 -33.93,133.33 -228.87,349.03 -834.56,-977.35 -880.04,-1147.46 -130.36,-129.93 -5.63,-161.07 -208.21,-222.32 -96.31,-29.13 -236.2,-30.43 -325.29,-3.41 -89.58,27.17 -136.92,76.28 -196.79,179.02 -43.33,74.39 -70.71,177.42 -75.56,284.81z"/>
   <path class="fil3" d="M22609.5 21066.59c-338.01,-5.75 -226.06,-6.23 -316.2,69.33 -48.66,40.79 25.45,-0.7 -50.75,39.02 -9.55,4.98 -56.39,20.1 -68.72,23.49l-779.53 144.31c-472.55,19.68 -1013.32,-34.68 -1454.52,-4.72 -105.19,125.84 -4.41,102.9 -193.58,193.87l-755.1 456.62 7374.82 -2.62c5.41,-2.2 15.33,-6.89 21.83,-12.08l-3720.28 -8.39c284.37,4.56 1503.01,-111.68 1814.3,-218.2 249.75,-85.47 299.28,-134.02 268.36,-431.51 211.87,12.21 963,89.1 1059.89,78.53 271.75,5.8 241.07,7.37 440.85,-94.08 54.45,-27.65 104.4,-63.71 163.6,-89.76 128.01,-56.36 164.45,11.85 134.88,-104.17 -143.66,-153.27 -676.42,-287.31 -778.49,-466.81 -299.86,19.26 -601.09,2.89 -901.44,9.17l-664.19 -5.61c-8.05,-0.23 -92.45,-0.74 -96.28,-0.25 -137.92,17.61 -53.5,-5.63 -124.18,38.28 236.57,47.38 886.08,102.61 975.45,281.94 -63.74,109.02 -90.61,81.12 -205.43,136.5 -164,79.12 -79.77,15.91 -138.17,162.73 -291.94,15 -738.72,-38.95 -1074.64,-44.36 -472.58,-7.62 -820.52,-164.88 -932.5,-151.2z"/>
   <path class="fil2" d="M16773.69 14329.53l1408.56 -115.65c799.2,-10.04 1077.36,-14.24 1849.37,70.81 553,397.18 1184.53,-379.61 1073.74,-1269.61 -262.59,34.38 -2442.78,8.98 -2935.18,14.18l-1061.88 12.52c-157.55,41.49 -144.99,85.68 -167.51,212.76l-82.22 265.52c-41.31,86.9 -62.01,169.95 -108.19,270.21 -76.32,165.74 -221.8,299.22 -236.8,547.93l260.11 -8.68z"/>
   <path class="fil9" d="M4074.56 9066.88c16.83,449.06 124.02,846.09 198.58,1267.88l296.25 1537.89 319.33 999.06c134.65,416.12 159.46,420.73 205.7,846.61 31.49,289.98 172.8,523.86 501.34,540.76 -13.53,-180.64 -107.36,-197.03 -157.68,-378.66l93.49 -30.38c8.28,-2.48 17.52,-4.5 25.96,-7.06l79.29 -25.8c-59.8,-169.18 -124.17,-166.06 -235.91,-252.94 9.98,-309.92 -8.68,-631.61 -47.41,-927.86 -30.23,-231.18 -110.83,-708.93 -100.9,-918.04 -100.17,-34.59 -26.93,41.86 -85.3,-125.29l-67.82 -493.71c-6.13,-512.03 23.75,-964.48 -65.62,-1460.66 -44.08,-244.79 -25.38,-459.46 -29.2,-737.66l-718.21 2.62c-90.21,186.51 -96.12,143.51 -146.82,223.59 -5.56,-8.93 -23.09,-24.19 -26.48,-27.49l-38.6 -32.88z"/>
   <path class="fil10" d="M6978.15 12035.39c28.48,246.03 -95.23,418.95 -179.37,644.97 -70.75,190.05 -98.36,464.3 -192.69,589.47l-159.48 -54.92c56.09,102.95 77.8,406.95 74.17,541.41 -71.97,-4.63 -26.42,9.74 -89.59,-16.22 -37.87,-15.55 -53.9,-29.87 -84.09,-57.14l17.01 91.76 144.86 35.28 -18.82 206.07c-5.07,183.89 132.45,486.87 194.98,670.85 36.51,107.45 190.56,566.59 235.34,638.35l55.6 -105.05c47.02,-236.62 114.74,-366.9 177.62,-596.73 55.7,-203.6 125.14,-423.55 181.56,-615.02 121.74,-413.13 218.78,-761.58 350.74,-1203.37l615.41 -2067.03c86.7,-339.73 120.17,-213.67 198.92,-178.8l-42.43 -114.47c-234.54,21.71 -576.6,437.38 -732.31,605.38 -148.13,159.8 -469.22,666.25 -542.76,743.43 61.84,77.78 175.71,136.49 212.44,251.21 -158.84,6.98 -260.38,27.74 -417.11,-9.43z"/>
   <path class="fil3" d="M29113.06 11382.42l25.08 169.67c82.93,124.49 161.08,546.55 189.39,684.25 66.78,324.93 82.04,377.01 81.85,758.76 -0.13,248.22 -13.84,1552.46 -52.78,1672.26 -20.37,525 97.21,618.6 -34.01,756.08l-156.45 164.36c56.02,57.97 132.87,71.07 170.78,94.86 -13.38,123.16 6.25,22.06 -28.87,80.12l-25.58 34.76c-96.36,120.88 -113.54,62.65 -131.98,253.29 593.43,-23.98 521.95,-470.97 665.93,-1083.91 49.12,-209.12 35.13,-350.86 124.35,-441.79 -23.06,-181.45 34.43,-239.85 55.81,-443.79 31.47,-289.75 105.99,-506.86 128.52,-800.4 50.71,-660.83 -60.81,-2083.64 -174.35,-2711.2l-938.91 241.78 101.22 570.89z"/>
   <path class="fil7" d="M37003.8 16762.41l821.77 -6.33c79.87,25.74 28.02,-7.45 61.37,33.39 19.72,90.57 15.79,76.73 52.06,157.78l11.96 477.7 1.45 407.7 -1012.82 3.75 -14.13 -953.13c43.7,-184.54 -24.95,-63.98 78.34,-120.86zm-954.14 142.3c38.44,-78.4 6.21,-49.45 106.77,-113.27 7.52,-4.77 16.93,-8.66 24.09,-12.73l51.92 -25.1 512.24 -0.09 81.05 31.78 7.6 1047.46 -1085.49 13.78 -137.61 -8.53c15.81,-101.54 409.26,-902.98 439.43,-933.3zm162.02 -277.74c9.6,-144.54 224.57,-485.73 283.95,-598.5 100.93,-191.71 211.07,-468.98 326.78,-530.57l-1.83 1108.63c-154.17,52.59 -436.28,24.24 -608.9,20.43zm1442.58 -1069.35c-13.12,105.7 -38.44,102.66 -111.36,189.14 -45.4,53.84 -74.26,92.27 -122.06,161.49 -36.58,52.95 -182.67,267.83 -244.51,312.09 -44.8,119 -109.43,216.53 -237.58,256.37l7.42 -1251.35 910.98 -1.28 46.78 91.81c71.06,161.86 41.18,332.74 40.21,556.48 -0.86,197.52 43.4,567.81 -24.56,723.76 -122.74,83.21 -721.38,45.29 -913.19,23.37 24.54,-169.64 628.52,-880.62 748.8,-1069.39 0.51,-0.79 38.7,-74.92 39.43,-77.38l-0.68 -69.48c-63.73,104.37 -51.68,83.65 -139.69,154.37zm225.78 -1803.51l40.23 80.81c39.88,109.82 55.36,1169.26 -6.38,1240.47 -81.85,64.25 -779.65,60.37 -905.38,6.53 13.47,-195.19 129.17,-112.3 125.68,-233.38 -2.75,-95.51 108.69,5.3 -35.29,-57.03 -57.7,118.64 -62.11,125.76 -150.62,190.5 -49.4,-361.87 -0.29,-870.13 1.93,-1249 135.77,-31.9 889.25,-87.42 929.82,21.11zm-876.25 -1571.43c108.59,-15.35 827.83,-19.75 879.73,22.14 28.31,109.94 28.54,69.75 33.87,84.65 60.63,169.53 38.99,429.27 37.77,610.8 -0.94,140 41.67,608.53 -61.25,669.41 -74.03,34.98 -354.72,20.5 -447.56,19.78 -147.05,-1.14 -297.24,1.76 -442.4,-16.81 -106.42,-204.12 -63.17,-740.54 -68.11,-1084.08 -2.07,-143.55 -45.9,-269.09 67.95,-305.88zm921.98 -1111.9c-161.86,0.55 -68.03,1.12 -102.57,41.34l97.31 13.5c67.99,58.95 31.71,303.44 31.61,415.03 -0.13,158.1 0,316.2 0,474.29 -147,86.59 -757.62,72.99 -948.17,44.44 -56.59,-113.88 -158.2,-519.33 -40.12,-666.27l63.79 -62.78c-127.1,6.05 -116.07,-0.7 -196.56,44.77l-59.55 9.69c-86.95,15.41 -26.87,-5.54 -48.96,46.23l100.01 7.51c27.2,444.49 -2.41,1453.98 -1.61,1967.61 0.51,326.7 0.92,653.47 0.98,980.17 0.07,371.31 48.78,653.85 -68.1,890.6 -113.15,229.21 -231.82,448.09 -346.62,664.37l-339.69 645.59c-134.63,223.63 -422.02,918.54 -571.36,1162.85 -56.28,92.09 -1.05,97.74 -138.51,59.48l54.31 81.24 139.22 -9.79 1170.82 2.61c134.96,-0.12 243.77,-8.34 371.98,1.3l841.09 -6.39 111.53 17.61 31.6 -0.66 -26.22 -64.07c-21.22,-1141.18 3.36,-2301.45 3.28,-3444.75 -0.04,-568.31 -8.97,-1139.89 -2.38,-1707.39 3.21,-276.17 -68.72,-1493.61 67.37,-1643.83 -90.21,7.48 -122.28,24.9 -194.48,35.68z"/>
   <path class="fil3" d="M15043.62 21979.47c183.11,-172.37 358.77,-251.96 693.48,-254.33 158.01,-1.12 274.94,25.21 400.58,74.58 92.43,36.31 239.54,145.17 276.51,150.58 -406.86,77.6 -1015.42,-36.77 -1370.56,29.18zm-2940.86 -724.23c-7.21,7.03 -17.57,13.91 -23.95,18.42 -98.5,69.65 -182.06,93.48 -228.79,193.58l221.14 20.28c237.36,39.73 994.89,-147.59 1327.1,-156.83 255.4,-7.1 483.64,0.95 674.49,91.21 206.02,97.43 230.53,280.97 214.19,568.97 236.92,-6.05 528.29,20.09 756.68,-11.4 112.09,62.03 1042.38,48.6 1263.03,30.31 209.33,-17.36 385.64,-31.18 599.51,-37.74 174.59,-5.35 548.78,34.5 667.48,15.5 -63.97,-112.81 -299.68,-158.92 -413.84,-234.44 -242.02,-160.09 -164.98,-155.24 -190.28,-406.53l-0.16 -79.86c-462.96,36.93 -1100.12,159.35 -1671.47,68.76 -130.16,-20.63 -193.04,-89.08 -324.07,-105.36 -141.77,-17.6 -280.96,10.97 -422.89,-27.06l-586.68 -254.4c-3.24,-13.69 -11.13,-15.91 -16.18,-24.21 -211.93,-155.89 -711.46,-76.62 -964.57,39.85 -350.68,161.37 -480,189.98 -880.75,290.93z"/>
   <path class="fil8" d="M16969.53 21346.58c25.3,251.29 -51.74,246.44 190.28,406.53 114.16,75.52 349.87,121.63 413.84,234.44l1417.48 0.96 755.1 -456.62c47.37,-104.09 60.33,-97.99 106.52,-189.55 -17.75,-53.55 -12.19,-36.19 -32.9,-71.46l-36 -39.03c-236.81,13.09 -641.39,-204.46 -847.14,-309.24 -447.63,-227.95 -243.41,-299.48 -924.36,-267.65l21.74 -11.07c-196.52,415.28 -815.08,576.02 -1064.54,702.7z"/>
   <path class="fil10" d="M4891.7 15858.21c177.64,-28.21 123.6,-70.97 249.79,-136.87l27.62 176.1c2.8,7.91 7.89,19.09 13.34,27.81l241.12 -19.35c-61.11,-224.87 -193.29,-560.81 -276.93,-757.29 -235.55,-238.22 -1163.76,-1624.37 -1457.61,-2019.28 -117.33,-157.68 -373.06,-494.34 -456.74,-671.72l107.78 -64.51 -145.99 6.12c-69.73,384.32 34.87,1008.47 142.56,1400.07 59.59,216.67 149.28,157.05 202.26,161.88l68.66 14.11c-22.79,216.28 -22.16,3.73 -66.29,168.23 -21.3,79.38 -17.06,119.16 11.01,194.96 162.75,439.34 932.35,1308.7 1339.42,1519.74z"/>
   <path class="fil11" d="M12997.36 10393.98c-3.31,52.28 48.27,17.18 -41.41,58.22 32.94,-56.42 24.31,-54.17 47.9,-133.34l-1506.16 3.98 -4.3 1214.55c186,-5.86 28.35,41.16 147.29,-71.76l132.42 -56.1 -80.67 103.02c446.62,19.86 2872.75,71.8 3169.21,7.04 47.75,-201.78 44.34,-1029.23 -24.09,-1168.04 -165.63,-95.9 -690.42,-45.75 -935.63,-44.74 -168.37,0.69 -337.93,0.01 -506.07,2.69 -236.18,3.78 -228.45,4.34 -398.49,84.47zm-423.4 437.52l-12.81 10.2c-24.16,109.34 -16.29,96.85 -96.18,178.78 -40.46,41.5 -26.74,22.43 -63.95,62.51l-96.21 94.2c-74.13,49.05 -144.13,51.63 -216.43,129.08 -49.48,53.01 -39.18,27.01 -66.38,107.92 32.7,28.98 -37.56,79.18 298.53,66.35 705.82,-26.96 1637.66,39.01 2478.62,8.78 33.81,-343.93 -25.93,-658.71 -30.95,-941.9 -156.63,-38.57 -111.49,16.35 -91.99,-155.39 -389.4,-21.77 -860.36,-19.42 -1250.48,-5.01 -163.93,6.06 -144.08,10.21 -260.02,64.72 -220.97,103.87 -309.27,374.88 -591.75,379.76z"/>
   <path class="fil12" d="M12997.36 10393.98c170.03,-80.13 162.31,-80.69 398.49,-84.47 168.14,-2.68 337.7,-2 506.07,-2.69 245.21,-1.01 770,-51.16 935.63,44.74 68.43,138.81 71.84,966.26 24.09,1168.04 -296.45,64.76 -2722.59,12.82 -3169.21,-7.04l80.67 -103.02 -132.42 56.1c15.08,102.06 4.05,80.06 50.14,138.27 -129.96,153.69 -364.89,155.94 -578.9,197.58 -33.05,10.56 -76.92,23.47 -101.99,37.97 -66.78,38.62 -19.88,4.78 -65.61,57.39l4280.08 -9.94 7.04 -1897.02 -1582.17 -16.8c119.34,177.09 -92.12,-26.41 71.15,76.51 82.77,52.16 120.57,38.37 276.27,29.66 137.27,-7.68 210.09,-14.33 347.63,6.99 -24.71,22.55 -5.43,22.83 -68.96,42.62 -152.62,47.57 -751.41,-77.43 -825.04,-61.23 -57.05,12.55 -79.56,31.88 -177.8,41.73 -129.8,13.01 -275.19,11.47 -407.87,15.9 -5.23,203.54 -39.26,150.85 183.89,150.85l-51.19 117.88z"/>
   <path class="fil13 str0" d="M32760.95 6231.15l-2594.94 17.72 103.61 12375.23 514.38 346.84 848.83 3.21 0 520.49c-559.13,14.39 -995.66,135.28 -995.66,282.34 0,156.74 495.92,283.77 1107.66,283.77 611.76,0 1107.67,-127.03 1107.67,-283.77 0,-142.64 -410.84,-260.67 -945.86,-280.73l0 -521.05 1474.41 5.57 -95.33 -12231.38 -524.8 -518.25z"/>
   <polygon class="fil14 str0" points="30166.01,6248.87 30730.23,6690.3 33211.08,6721.81 32729.84,6233.12 "/>
   <polygon class="fil14 str0" points="30263.7,6515.12 30612.2,6806.78 30612.16,8268.99 30263.7,8008.88 "/>
   <polygon class="fil14 str0" points="30263.7,8276.56 30612.2,8599.1 30612.16,10216.16 30263.7,9928.5 "/>
   <polygon class="fil14 str0" points="30263.7,10239.27 30612.2,10597.13 30612.16,12391.19 30263.7,12072.05 "/>
   <polygon class="fil14 str0" points="30263.7,12356.61 30612.2,12701.85 30612.16,14432.73 30263.7,14124.83 "/>
   <polygon class="fil14 str0" points="30271.83,14492.91 30620.32,14838.16 30620.28,16569.04 30271.83,16261.14 "/>
   <polygon class="fil14 str0" points="30279.95,16629.22 30628.44,16974.47 30628.4,18705.35 30279.95,18397.45 "/>
   <rect class="fil14 str0" x="30792.38" y="6828.14" width="2472.54" height="1517.35"/>
   <rect class="fil14 str0" x="30788.21" y="8576.07" width="2480.88" height="1720.36"/>
   <rect class="fil14 str0" x="30788.21" y="10586.09" width="2480.88" height="1860.26"/>
   <rect class="fil14 str0" x="30788.21" y="12674.25" width="2480.88" height="1892.46"/>
   <rect class="fil14 str0" x="30796.34" y="14810.56" width="2480.88" height="1892.46"/>
   <rect class="fil14 str0" x="30804.46" y="16946.87" width="2480.88" height="1892.46"/>
   <path class="fil7" d="M6976.07 15220.22l-9.49 51.25 23.41 364.73c54.57,15.99 -0.34,-23.71 78.77,84.92 73.85,101.4 55.87,51.42 74.96,181.65l175.89 45.05c153.49,-21.61 73.94,-13.01 164.51,-58.25 2.49,-114.59 -14.09,-170.79 -94.07,-266.26 -3.49,-4.16 -9.97,-11.73 -13.38,-15.41 -3.21,-3.46 -10.83,-10.43 -13.76,-13.31l-28.36 -21.91c-17.77,-156.99 -14.55,-46.61 28.34,-86.03 140.67,49.11 165.14,101.78 316,99.62l230.75 -307.35c-65.05,-158.1 -195.2,-232.82 -259.91,-385.11l250.21 33.27 86.47 -1.45c3.5,-244.72 -53.11,-622.79 89.56,-780.36 17.86,-293.8 461.72,-790.26 747.66,-815.66 68.92,-112.56 102.91,-198.1 113.26,-389.21 84.72,-131.5 18.96,-1111.92 -67.15,-1288.48 -107.68,-3.05 -201.54,12.89 -289.87,-48l100.02 -77.05 140.67 -72.35c4.03,-355.97 -301.91,-684.6 -320.22,-895.24 -78.75,-34.87 -112.22,-160.93 -198.92,178.8l-615.41 2067.03c-131.96,441.79 -229,790.24 -350.74,1203.37 -56.42,191.47 -125.86,411.42 -181.56,615.02 -62.88,229.83 -130.6,360.12 -177.62,596.73z"/>
   <path class="fil8" d="M29113.06 11382.42l-101.22 -570.89 938.91 -241.78 174.63 1933.78 156.65 91.68 33.69 33.6c103.18,80.4 143.23,67.06 348.46,226.95 150.01,116.88 191.44,64.28 392.24,223.94l-24.77 141.56 92.56 -67.45c365.7,-254.26 998.65,-1054.16 1013.45,-1294.28 8.68,-5.94 46.43,-31.33 53.82,-34.32 56.76,-23.01 -24.09,-4.62 85,-25.82 -75.62,-168.3 -228.41,-254.97 -365.3,-379.88l-777.25 -678.63c-139.16,-109.13 -261.68,-221.48 -349.96,-326.57 -46.45,-20.98 -59.87,-24.41 -92.96,-53.65 -64.5,-57.02 5.42,33.95 -47.32,-67.82 -161.39,-84.25 -258.69,-207.88 -424.97,-356.68l-114.67 -95.84c-204.62,-212.95 -95.24,-68.67 -269.26,-234.7 -90.47,-86.31 -285.94,-231.71 -444.32,-230.15l-1045.01 -0.77c-30.26,66.05 -8.9,56.82 -63.37,110.75l-68.13 31.46 -47.18 120.64c1.23,110.8 0.78,72.73 -29.29,190.95 -5.74,22.59 -18.6,59.13 -22.3,70.7 -2.28,7.11 -5.24,15.16 -7.53,22.24 -2.34,7.21 -5.09,15.48 -7.44,22.77 -50.56,156.43 -91.78,209.08 -101.84,363.87 -7.93,121.85 1.34,281.43 -0.49,413.35 -4.36,313.24 53.42,57.39 112.42,353.76 12.85,9.54 169.85,124.68 217.07,160.38 76.18,57.59 102,71.01 181.3,140.8 72.35,63.68 306.06,285.69 396.58,307.9 107.61,55.23 28.6,14.51 108.25,72.99 130.25,95.62 87.29,73.74 239.47,130.71l-114.87 -335.89 -25.08 -169.67z"/>
   <path class="fil8" d="M10216.46 21984.96l4070.48 5.91c16.34,-288 -8.17,-471.53 -214.19,-568.97 -190.86,-90.26 -419.09,-98.31 -674.49,-91.21 -332.21,9.24 -1089.74,196.56 -1327.1,156.83 -77.77,62.24 -157.91,51.19 -252.64,43.76 -99.93,-149.93 12.55,38.09 -43.84,-150.7 -2.11,-7.06 -7.81,-12.72 -9.4,-27.58 -1.6,-15.05 -4.55,-19.57 -10.08,-30.39l-473.72 21.3 -280 -1.42c-127.22,126.72 -305.7,34.92 -512.58,218.98 -99.77,88.77 -264.21,226.2 -272.43,423.48z"/>
   <path class="fil3" d="M4891.7 15858.21l2660.78 25.21c24.74,1318.64 -89.48,2642.06 -545.02,3977.26l-1657.35 29.77c-462.87,-1344.09 -560.15,-2688.16 -458.42,-4032.23z"/>
   <path class="fil3" d="M27993.24 13236.79c168.94,49.16 528.04,219.88 587.45,359.29l76.11 16.04c67.63,-510.03 304.88,-1479.53 248.49,-1927.83 -90.52,-22.22 -324.24,-244.23 -396.58,-307.9l-362.6 -281.62 -152.87 2142.02z"/>
   <path class="fil7" d="M13999.1 20940.96l-51.02 -16.5c5.05,8.29 12.94,10.51 16.18,24.21l586.68 254.4c141.93,38.03 281.12,9.45 422.89,27.06 131.03,16.27 193.91,84.72 324.07,105.36 571.35,90.59 1208.51,-31.83 1671.47,-68.76l0.16 79.86c249.46,-126.68 868.03,-287.42 1064.54,-702.7 -949.45,-30.49 -2041.55,-28.43 -2989.09,-14.25 84.97,89.92 203.8,80.26 318.78,113.98 128.34,37.65 190.76,69.62 215.82,187.69 -202.56,335.83 -1282.71,167.11 -1580.48,9.66z"/>
   <path class="fil7" d="M19783.84 21231.85l36 39.03c20.7,35.27 15.14,17.9 32.9,71.46 -46.18,91.55 -59.14,85.45 -106.52,189.55 189.17,-90.96 88.39,-68.03 193.58,-193.87 441.2,-29.96 981.96,24.41 1454.52,4.72l779.53 -144.31c12.32,-3.38 59.16,-18.5 68.72,-23.49 76.2,-39.72 2.09,1.77 50.75,-39.02 90.13,-75.56 -21.82,-75.08 316.2,-69.33 -71.76,-75.47 -531.89,-255.62 -641.69,-299.79 -158.71,-63.84 -139.98,-75.23 -155.89,-134.15 -644.9,-16.54 -1336.76,49.44 -1984.7,5.28 -35.64,230.45 1.31,139.37 56.86,285.01 38.11,99.89 21.83,170.4 16.22,285.15l-116.47 23.77z"/>
   <path class="fil3" d="M4946.01 6382.06l-10.46 67.91c119.28,0.46 24.6,216.05 67.73,394.82 45.26,187.6 -22.81,67.61 70.59,123.83 83.2,86.54 -108.94,-21.2 130.9,73.65 25.28,9.99 55.34,21.67 63.22,26.14l51.47 38.99c11.06,7.68 15.01,15.01 58.15,38.06 151.62,81.02 190.11,57.03 293.34,29.97l-16.77 -81.04 284.71 -14.22c73.5,-95.37 60.48,-77.23 116.38,-202.75 80.16,-180.01 28.88,-75.93 196.92,-147.23 23.18,-241.73 67.27,-409.11 87.58,-626.9 23.28,-249.66 25.32,-497.63 52.23,-744.41l-942.7 227.9 -146.69 14.6 -56.93 203.97c-128.08,-18.26 -174.49,-125.18 -266.26,-32.39 -222.26,208 159.99,611.46 -33.38,609.1z"/>
   <path class="fil3" d="M26667.07 8317.75c14.51,394.21 129.73,870.27 227.12,1230.96l170.76 38.57c136.52,405.31 148.41,224.87 418.89,267.82 82.32,13.07 332.68,242.4 419.23,287.32 68.96,-75.58 87,-156.29 123.93,-247.78 18.33,-45.43 34.54,-91.72 54.57,-133.63 25.27,-52.87 5.5,-20.59 34.75,-63.73 31.73,-46.78 14.9,-26.13 50.48,-59.71l47.18 -120.64 -0.84 -116.1 -154.7 -106.72 48.63 -84.92c-167.41,-119.25 -18.77,-176.86 25.87,-342.87 32.28,-120.08 -2.35,-246.37 -35.42,-361.02 -224.17,-50.88 -95.63,31.44 -297.08,32.04l-58.66 -164.88c-79.85,-35.11 -181.41,-22.1 -282.46,-52.16 -118.81,-35.35 -121.78,-32.53 -251.62,-42.69 -228.85,-10.28 -270.5,-79.02 -519.48,-60.27l-21.16 100.4z"/>
   <path class="fil15" d="M11111.92 11801.48c214.01,-41.64 448.94,-43.89 578.9,-197.58 -46.09,-58.21 -35.06,-36.21 -50.14,-138.27 -118.94,112.92 38.72,65.9 -147.29,71.76l4.3 -1214.55 1506.16 -3.98c-23.6,79.17 -14.96,76.92 -47.9,133.34 89.68,-41.04 38.1,-5.94 41.41,-58.22l51.19 -117.88c-223.15,0 -189.13,52.69 -183.89,-150.85 132.68,-4.43 278.07,-2.89 407.87,-15.9 98.24,-9.85 120.75,-29.18 177.8,-41.73 73.63,-16.19 672.42,108.81 825.04,61.23 63.53,-19.79 44.25,-20.07 68.96,-42.62 -137.54,-21.33 -210.36,-14.67 -347.63,-6.99 -155.7,8.71 -193.5,22.51 -276.27,-29.66 -163.27,-102.91 48.19,100.58 -71.15,-76.51l-139.69 -2.16 -3.08 -85.54 -45.79 32.98c-243.39,139.27 -1967.75,-38.37 -2332.89,61.58l-15.9 1821.54z"/>
   <path class="fil7" d="M36947.68 9203.71c124.11,-52.91 774.79,-32.7 954.43,-6.85 87.27,164.82 59.64,409.86 60.6,636.42 0.79,186.5 56.36,545.45 -23.34,679.29 -26.46,84.89 29.97,21.17 -84.23,45.43l-882.79 -7.11c-114.93,-225.31 -62.27,-383.18 -66.69,-654.38 -1.83,-112.82 -12.74,-229.11 -14.52,-347.91 -0.7,-46.5 -6.23,-152.55 -2.69,-192.46 4.39,-49.47 -0.58,-40 16.37,-85.91 31.54,-85.47 -12.91,-25.55 42.85,-66.53zm2957.69 23.98c9,-83.46 601.95,-48.92 708.18,-28.79 144.85,92.27 87.9,1246.49 71.24,1329.99 -153.88,59.08 -595.79,44.21 -773.59,19.03 -64.58,-214.79 -80.3,-1276.09 -5.82,-1320.23zm-930.27 8.9l0.83 -14.34c16.95,-15.75 -45.21,-31.01 142.56,-41.98l619.22 18.98c107.73,169.63 50.44,1061.43 47.08,1342.46 -196.57,48.03 -581.09,38.58 -790.01,13.11 -79.17,-187.85 -43.4,-394.15 -44.52,-626.69 -0.97,-201.56 -62.02,-529.11 24.84,-691.54zm-138.31 -39.97c81.4,428.52 60.3,72.61 61.26,636.66 0.39,226.14 29.28,477.52 -14.62,695.61 -156.21,61.8 -624.45,43.09 -805.05,15.5 -78.02,-175.64 -44.73,-795.55 -46.71,-1060.06 -1.87,-248.87 -33.8,-305.66 233.51,-300.84 166.65,3 420.66,-13.13 571.62,13.13zm-2005.71 2178.48c80.49,-45.47 69.46,-38.72 196.56,-44.77 97.3,-22.68 15.68,6.69 50.38,-44.23l-148.42 23.14 0.03 -661.7 972.39 -10.28c-69.01,173.85 -132.84,221.45 -235.59,363.16 -196.16,270.52 -170.68,97.33 -339.31,236.1l262.14 -54.54 163.93 -75.62c-173.45,1.44 -51.86,13.19 -96.71,-51.48 71.29,-53.6 65.17,-52.96 119.49,-132.38 141.11,-206.31 66.06,-113.13 163.83,-159.3l-14.01 307.59c72.2,-10.78 104.26,-28.2 194.48,-35.68l163.22 -56.72 -234.28 31.34 -3.25 -322.9c36.59,-70.7 -3.56,-64 284.58,-59.04 116.16,2 231.93,-0.86 348.24,0.27l2060.92 -4.92 13.54 -1423.32 675.52 -3.12c87.08,-0.54 172.43,-5.67 240.41,-59 -50.96,-58.57 33.19,-15.55 -63.03,-52.33l-779.95 -0.52c-352,10.34 -571.42,23.94 -932.03,-8.15l-741.81 -6.62 -124.35 1.55 -791.79 -6.07 -107.36 -3.8c-41.64,32.85 30.04,5.86 -59.56,23.35l-243.29 1.62c-105.81,-1.07 -215.09,-1.78 -316.45,-1.48 -213.25,0.62 -472.05,-7.65 -679.73,10.63 23.54,321.21 61.88,2062.83 1.24,2279.25z"/>
   <path class="fil8" d="M5421.68 17507.6c19.47,177.88 -109.4,1065.8 -141,1434.17l-47.81 182.61c23.87,154.39 0.59,361.33 -39.03,510.72l-37.97 296.22c-4.99,65.92 -18.76,150.98 -18.27,213.01 0.13,17.39 4.28,75.97 8.28,91.14 39.28,148.98 -8.09,35.51 53.79,100.1l-32.24 -265.55c163.01,1.65 289.53,-9.77 429.29,52.24l-15.88 -108.07c56.32,-387 202.42,-927.75 289.85,-1331.11 90.34,-416.79 231.83,-912.09 292.09,-1346.01l92.88 -333.1c22.54,-44.54 20.4,-37.62 41.82,-63.56 15.06,1079.62 -125.46,2398.7 -70.92,3287.03l31.55 -8.07 -11.48 -257.74 441.04 47.37 5.72 -41.47c-130.22,-31.8 -11.99,-452.57 20.14,-739.08 13.48,-120.18 58.66,-671.3 128.15,-754.13 -11.49,-106.54 132.89,-1256.68 169.14,-1337.41l127.12 -862.83 16.25 -313.58 165.41 -12.71 -175.89 -45.05c-19.08,-130.23 -1.11,-80.25 -74.96,-181.65 -79.11,-108.63 -24.2,-68.93 -78.77,-84.92l-23.41 -364.73 9.49 -51.25 -55.6 105.05c-44.78,-71.77 -198.83,-530.91 -235.34,-638.35 -62.52,-183.98 -200.05,-486.96 -194.98,-670.85 -126.36,4.22 -54.41,29.15 -110.02,-67.77 -31.18,-54.34 -18.19,-115.61 -16.02,-173.58l-17.01 -91.76c-175.99,-283.68 -472.52,-1456.03 -722.35,-1961.38l-315.75 11.51 -56.41 -14.74c-9.92,209.11 70.68,686.86 100.9,918.04 38.73,296.25 57.39,617.94 47.41,927.86 111.74,86.88 176.1,83.76 235.91,252.94l-79.29 25.8c-8.43,2.56 -17.67,4.58 -25.96,7.06l-93.49 30.38c50.32,181.63 144.14,198.02 157.68,378.66 -328.54,-16.89 -469.85,-250.78 -501.34,-540.76 -46.24,-425.88 -71.05,-430.49 -205.7,-846.61l-319.33 -999.06c-41.78,-129.13 -49.42,-276.74 -485.61,-254.9l2.32 505.11 99.56 467.38 105.79 121.66c40.82,82.52 -13.63,148.56 133.03,477.9 20.65,46.4 41.38,110.38 63.09,154.96 179.87,369.44 65.43,215.56 161.04,443.78 48.98,116.91 71.09,175.73 111.39,297.01 132.56,398.9 124.21,238.75 221.22,588.25 61.89,222.95 96.71,235.83 175.69,271.3 -29.14,89.61 -14.09,92.92 -10.27,203.5 83.64,196.48 215.81,532.42 276.93,757.29l103.25 251.2c72.8,319.5 17.58,391.97 -14.24,700.66 -17.94,174.04 2.57,524.27 -90.89,649.85z"/>
   <path class="fil7" d="M5146.64 15148.6c-3.82,-110.58 -18.86,-113.89 10.27,-203.5 -78.98,-35.48 -113.8,-48.35 -175.69,-271.3 -97.01,-349.5 -88.66,-189.36 -221.22,-588.25 -40.3,-121.28 -62.4,-180.1 -111.39,-297.01 -95.61,-228.21 18.83,-74.34 -161.04,-443.78 -21.71,-44.58 -42.43,-108.56 -63.09,-154.96 -146.66,-329.35 -92.21,-395.38 -133.03,-477.9l-105.79 -121.66c-54.36,49.93 -68.09,106.68 -140.5,150.1l-8.94 -313.22 -696.16 -34.02 -107.78 64.51c83.68,177.38 339.41,514.04 456.74,671.72 293.85,394.91 1222.06,1781.06 1457.61,2019.28z"/>
   <path class="fil8" d="M22609.5 21066.59c111.99,-13.68 459.92,143.57 932.5,151.2 335.92,5.41 782.7,59.36 1074.64,44.36 58.4,-146.82 -25.83,-83.61 138.17,-162.73 114.82,-55.38 141.69,-27.49 205.43,-136.5 -89.37,-179.32 -738.89,-234.56 -975.45,-281.94 -480.67,-149.19 -1637.64,58.59 -2172.87,-48.33 15.9,58.92 -2.82,70.32 155.89,134.15 109.81,44.17 569.94,224.32 641.69,299.79z"/>
   <path class="fil7" d="M6364.12 13774.71l141.47 72.42c94.32,-125.17 222.44,-976.72 293.19,-1166.77 84.14,-226.02 207.85,-398.95 179.37,-644.97 -21.06,-213.06 -251.46,-705.52 -343.88,-872.24 -68.18,-123 -158.46,-272.78 -237.9,-392.82 -69.1,-104.41 -176.29,-215.97 -256.88,-320.91 -142.26,-7.54 -16.7,505.2 3.8,643.75 34.05,230.07 99.11,472.21 123.78,673.16 53.62,436.73 3.47,1638.29 97.04,2008.38z"/>
   <path class="fil16" d="M41333.05 10749.85l126.02 -10.16 228.88 -16.22c9.63,-249.52 -5.45,-566.82 -7.43,-826.98 -3.98,-524.32 98.91,-329.34 118.87,-478.66 0.54,-4.02 0.48,-13.56 0.48,-17.78l-43.63 -148.13c-8.39,-1 -19.21,0.12 -25.34,0.34l-903.31 11.74c-3.16,470.73 39.73,1002.59 -29.86,1454.44 -125.29,0 -480.68,46.38 -539.11,-31.3l821.93 -3.62c246.3,-1.31 211.79,17.86 252.49,66.34z"/>
   <path class="fil10" d="M5309.01 11733.09l315.75 -11.51c249.83,505.35 546.36,1677.7 722.35,1961.38l-80.03 -1916.62c-24.67,-200.95 -89.73,-443.09 -123.78,-673.16 -20.5,-138.55 -146.06,-651.3 -3.8,-643.75l-3.69 -45.68c-149.7,-11.78 -82.9,-12.2 -127.13,-67.71 -81.47,542.66 -1.08,907.26 -222.92,1366.41 -150.39,-17.93 -311.83,-86.45 -476.74,30.65z"/>
   <path class="fil7" d="M38128.86 9061.73l-543.03 -14.97c-11.84,-161.79 56.61,-137.35 205.58,-137 114.97,0.26 231.32,-3.33 350.12,5.33l-12.67 146.64zm2224.71 -0.85c-473.45,0.1 -315.77,20.5 -357.53,-81.29 47.04,-48.35 -72.56,-65.54 164.62,-72.77l449.34 0.91c197.46,18.2 86.65,-21.1 133.56,71.86 -43.12,99.72 31.94,78.36 -165.4,87.02 -60.89,2.67 -157.25,-5.75 -224.59,-5.73zm-3582.05 2323.91l59.55 -9.69c60.64,-216.42 22.3,-1958.05 -1.24,-2279.25 207.68,-18.28 466.48,-10.01 679.73,-10.63 101.35,-0.3 210.64,0.41 316.45,1.48l243.29 -1.62c89.6,-17.48 17.92,9.5 59.56,-23.35l107.36 3.8 -0.83 -149.34 795.28 -0.19 -2.66 155.6 124.35 -1.55 -20.39 -158.89 788.01 2.06 -25.81 163.45c360.62,32.09 580.03,18.49 932.03,8.15 -40.97,-148.8 -45.54,-38.58 8.94,-168.47l373.14 3.36c147.51,-34.64 71.77,19.27 156.37,-97.16 -142.15,-0.94 -442.42,48.14 -539.29,-32.68 102.56,-29.41 105.27,-5.58 191.34,-16.57 124.4,-15.88 125.13,-22.55 177.08,-71.12 -293.56,-62.42 -1311.02,-22.4 -1693.39,-22.4 -530.22,0 -1166.78,-33.17 -1683.61,17.75 -266.92,18.24 -266.41,130.48 -338.22,345.44 -215.89,14.19 -472,-33.64 -672.46,44.19 -31.3,164.51 11.01,917.74 8.9,1157.15 -1.72,193.78 33.96,1029.09 -43.47,1140.47z"/>
   <path class="fil8" d="M26387.76 21973.8c-49.57,-115.97 -125.32,-250.41 -220.24,-349.59 -53.73,-56.15 -88.76,-81.63 -166.24,-120.56 -38.05,-19.1 -81.05,-35.39 -107.01,-50.07 -8.31,-4.69 -36.27,-23.17 -42.29,-27.05l-41.94 -32.31c-96.89,10.57 -848.02,-66.32 -1059.89,-78.53 30.92,297.49 -18.61,346.04 -268.36,431.51 -311.29,106.53 -1529.93,222.76 -1814.3,218.2l3720.28 8.39z"/>
   <path class="fil7" d="M8375.38 21978.12l1841.08 6.84c8.22,-197.28 172.66,-334.71 272.43,-423.48 206.88,-184.06 385.36,-92.26 512.58,-218.98 -391.7,2.59 -434.55,170.34 -668.17,-136.98 -62.55,-2.38 -163.29,-0.45 -221.14,-16.42 -172.97,-47.75 -96.12,1.59 -70.17,-73.14 -144.53,27.13 -307.71,135.91 -432.03,202.78 -121.38,65.29 -266.79,145.06 -411.85,219.34 -159.08,81.46 -714.72,341.61 -822.74,440.04z"/>
   <path class="fil8" d="M11395.02 8315.6l0 600.75 -621.54 0.46 621.54 -0.46 0 -600.75zm-975.36 -569.13l0 1075.03c0,211.16 34.56,198.21 575.04,187.21l540.05 -21.99 -8.45 -1463.14c-163.93,-5.84 -409.43,-23.64 -561.38,41.64 -251.77,108.14 161.18,-36.56 -65.02,32.03l-41.12 -26.35c-4.77,-2.38 -15.07,-9.23 -21.13,-11.89 -25.44,-11.21 19.92,-17.18 -97.11,-27.71 -60.93,-5.47 -171.45,11.78 -251.45,10.65 -60.15,127.08 -69.43,94.98 -69.43,204.51z"/>
   <path class="fil7" d="M25810.04 21394.22l41.94 32.31c6.02,3.88 33.98,22.36 42.29,27.05 25.96,14.68 68.96,30.97 107.01,50.07 77.48,38.93 112.51,64.41 166.24,120.56 94.92,99.18 170.67,233.63 220.24,349.59l1830.74 4.54 -1669.13 -872.14c29.57,116.03 -6.87,47.81 -134.88,104.17 -59.19,26.06 -109.15,62.11 -163.6,89.76 -199.78,101.45 -169.09,99.88 -440.85,94.08z"/>
   <path class="fil7" d="M38046.61 17895.8l-111.53 -17.61 8.94 191.14 -957.03 -3.84 107 -180.9c-128.21,-9.64 -237.02,-1.42 -371.98,-1.3 27.63,53.84 51.74,97.44 72.99,186.84l-1303.33 0.32c16.37,-77.58 38.02,-132.88 59.52,-189.78l-139.22 9.79c-25.87,76.98 -53.78,135.02 -58.41,226.93 -18.02,357.67 -42.55,252.67 1366,252.67l1107.07 2.29c36.53,-1.49 59.56,-2.32 95.9,-8.57 104.65,-18.01 103.11,-24.13 117.8,-117.87l6.28 -350.11z"/>
   <path class="fil3" d="M10041.99 21115.95c-25.96,74.73 -102.8,25.39 70.17,73.14 57.85,15.97 158.59,14.04 221.14,16.42 233.62,307.32 276.47,139.57 668.17,136.98l280 1.42c7.77,-9.54 24.12,-28.31 31.51,-19.28l546.63 -73.9 -149.38 -96.51c-254.07,-128.2 -54.27,-97.43 -310.64,-128.07 -99.64,-246.31 184.09,-232.4 285.91,-244.32 228.95,-45.44 423.93,-114.21 726.91,-113.95l0 -35.17c-185.6,-43.24 -542.43,22.83 -783.5,15.29 -265.74,-8.31 -541.21,21.32 -802.52,-16.29 -69.52,135.87 -49.95,80.8 -180.89,138.4 -67.93,29.88 -135.56,66.79 -210.58,105.92 -94.22,49.14 -350.16,175.72 -392.92,239.92z"/>
   <path class="fil14" d="M3461.03 21951.79c-93.61,-179.19 -145.44,-88.22 -226.15,-185.18 -84.37,-101.37 -7.49,-195.62 -161.47,-213.3 -50.6,-5.81 -0.51,106.89 -168.34,-80.79 -60.11,-67.23 18.86,-13.41 -70.14,-59.08 -7.02,-3.6 -49.4,-15.75 -72.39,-25.16 -229.54,-93.89 -158.16,-80.57 -153.11,-556.8l401.01 18.49 54.79 -221.38 505.59 3.22 77.14 -126.1c93.78,-191.47 -53.49,-51.4 195.74,-153.42l221.97 -102.38c87.45,-27.95 8.03,-32.89 142.28,-58.19 378.7,-71.4 184.21,-142.28 322.14,-85.97 63.67,26 52.08,50.39 223.26,48.41 40.96,-122.53 -41.04,-53.92 49.89,-121.03l189.61 74.13 163.02 -175.92 37.97 -296.22c-55.79,61.37 -73.78,58.94 -68.02,165.87 -245.87,18.26 -389.05,100.03 -634.44,136.93 -153.22,23.04 -153.98,20.49 -279.4,87.11 -128.49,68.27 -994.41,251.84 -1475.81,550.1 -315.48,195.45 -493.68,484.81 -185.19,807.3 44.8,46.84 156.7,176.35 181.79,195.43 55.38,42.09 160.56,70.8 233.67,113.88 172.55,101.66 259.99,186.7 494.59,260.06z"/>
   <path class="fil7" d="M18140.88 14189.61c-109.77,31.15 -132.17,47.24 -252.39,64.9 -89.12,13.08 -160.26,42 -264.02,51.88 80.76,106.98 216.8,74.7 422.09,62.23 147.79,-8.97 186.49,-44.97 342.36,-47.15 775.67,-10.87 594.29,-27.54 1233.76,53.97 308.63,39.34 279.01,130.64 363.43,245.3 140.03,190.17 86.22,56.32 138.11,492.79l124.18 63.24c8.4,352.39 24.26,124.34 117.56,298.66 59.19,110.61 17.08,179.09 14.39,301.72 -347.91,-2.26 -185.93,13.96 -324.79,53.84 -393.69,113.08 -599.38,76.36 -1032.18,77.99 -425.35,1.61 -1051.08,-88.81 -1440.08,-25.39 90.89,81.23 631.76,40.18 794.46,54.7 284.13,25.36 579.38,7.57 866.83,11.2 324.51,4.1 928.38,18.9 1252.16,-36.49 94.39,-16.15 257.42,-56.26 295.66,-126.45 -125.49,-79.78 -333.58,-509.99 -401.14,-654.02 -67,-142.81 -107.33,-236.36 -160.41,-379.24 -74.51,-200.58 -101.9,-116.07 -117.56,-386.38 -136.34,-45.84 -43.1,14.83 -81.69,-82.24 -702.93,-77.86 -1174.67,-112.02 -1890.74,-95.07z"/>
   <path class="fil17" d="M37176.34 16220.34c-273.16,16.3 -96.52,16.62 -166.6,69.18 -3.28,2.45 -12.82,86.42 -9.57,-12.77 3.75,-114.45 3.62,-226.36 3.63,-341.07 0.01,-221.35 0,-442.7 0,-665.17l695.21 1.28c-38.21,200.39 -81.11,101.82 -44.74,285.84 88.01,-70.72 75.97,-49.99 139.69,-154.37l0.68 69.48c-0.73,2.46 -38.92,76.59 -39.43,77.38 -120.28,188.78 -724.26,899.75 -748.8,1069.39 191.81,21.93 790.45,59.84 913.19,-23.37 67.96,-155.96 23.7,-526.25 24.56,-723.76 0.97,-223.74 30.85,-394.62 -40.21,-556.48l-46.78 -91.81 -910.98 1.28 -7.42 1251.35c128.15,-39.84 192.78,-137.37 237.58,-256.37z"/>
   <path class="fil17" d="M37098.92 14791.51c143.97,62.33 32.54,-38.48 35.29,57.03 3.49,121.08 -112.21,38.19 -125.68,233.38 125.73,53.84 823.53,57.71 905.38,-6.53 61.74,-71.21 46.26,-1130.65 6.38,-1240.47l-40.23 -80.81 -86.09 0 -499.27 705.4c-35.5,45.92 -10.23,9.45 -40.74,58.11 -3.8,6.06 -7.8,14.54 -11.46,20.62l-22.08 40.07c-116.6,184.31 -85.89,37.38 -121.5,213.19z"/>
   <path class="fil8" d="M11685.5 20781.84c-67.42,83.51 -79.5,55.9 -110.73,149.47 101.14,208.75 333.02,97.06 394.51,327.61l133.47 -3.67c400.75,-100.95 530.07,-129.56 880.75,-290.93 253.11,-116.47 752.64,-195.74 964.57,-39.85l51.02 16.5c-16.25,-111.63 -32.89,14.54 -107.32,-163.42 -14.55,-34.81 -7.17,-46.1 -19.24,-83.54 -398.94,-74.69 -1039.07,-29.13 -1460.13,-26.12 -302.98,-0.26 -497.96,68.51 -726.91,113.95z"/>
   <path class="fil8" d="M29424.61 19950.98c175.7,-63.59 51.87,40.18 232.75,-47.43 100.81,-48.83 94.18,-73.48 169.37,-65.68 54.51,5.65 8.68,-11.81 77.46,27.48 -28.43,-171.73 -127.51,-331.95 -122.49,-479.61 -40.56,-38.09 -17.03,-7.75 -47.59,-60.19l-104.07 -343.46c-55.82,-183.54 -308.6,-1067.91 -431.18,-1189.72 36.74,-67.28 34.51,-15.23 -47.39,-47.12 -3.61,409.03 2.83,817.33 -1.16,1226.73 -3.12,320.16 266.4,625.14 324.01,884.31l-49.69 94.7z"/>
   <path class="fil9" d="M13196.99 8684.96l2276.06 12.07 15.96 -1270.54c-263.72,105.69 -1070.38,1232.36 -1129.5,1252.62l-1162.53 5.85z"/>
   <path class="fil7" d="M13999.1 20940.96c297.77,157.45 1377.92,326.17 1580.48,-9.66 -25.07,-118.08 -87.48,-150.05 -215.82,-187.69 -114.98,-33.72 -233.81,-24.06 -318.78,-113.98l-2632.57 3.09 0 35.17c421.06,-3.01 1061.19,-48.57 1460.13,26.12 12.07,37.44 4.69,48.73 19.24,83.54 74.43,177.96 91.06,51.79 107.32,163.42z"/>
   <path class="fil14" d="M29148.07 17415.12l6.48 157.58c-5.72,55.13 41.18,106.36 44.29,219.65 122.58,121.81 375.36,1006.18 431.18,1189.72l104.07 343.46c30.56,52.44 7.03,22.11 47.59,60.19l11.25 -77c252.94,17.41 370.89,-53.33 531.94,59.94 6.73,4.73 16.09,13.25 21.49,17.31 5.46,4.12 13.5,13.04 21.36,18.07l-1117.84 -1876.16c-180.77,-298.94 199.52,-1153.82 -209.04,-1470.49 155.28,291.29 159.33,199.74 159.54,636.98 0.06,123.52 4.58,258.97 0.28,380.98 -5.54,157.4 -41.82,198.45 -52.59,339.74z"/>
   <path class="fil16" d="M37939.38 10512.58l-11.08 -1202.12c-103.79,55.91 -664.13,857.82 -833.71,1056.57 -69.39,81.31 -64.78,46.71 -99.3,160.77l944.1 -15.22z"/>
   <path class="fil16" d="M36947.68 9203.71l-4.82 1202.83c93.23,-53.12 872.45,-1063.64 915.68,-1191.88l-910.86 -10.94z"/>
   <path class="fil17" d="M37098.92 14791.51c35.61,-175.81 4.9,-28.88 121.5,-213.19l22.08 -40.07c3.66,-6.08 7.66,-14.56 11.46,-20.62 30.51,-48.66 5.24,-12.19 40.74,-58.11l499.27 -705.4 86.09 0c-40.57,-108.53 -794.05,-53 -929.82,-21.11 -2.22,378.87 -51.33,887.13 -1.93,1249 88.5,-64.74 92.91,-71.86 150.62,-190.5z"/>
   <path class="fil17" d="M37883.53 12204.81c-51.9,-41.89 -771.14,-37.49 -879.73,-22.14 -81.66,205.26 -52.44,906.79 -30.09,1151.14 153.76,-53.36 27.82,24.3 130.95,-108.38l525.84 -737.93c54.74,-70.33 173.8,-240.59 253.03,-282.71z"/>
   <path class="fil18" d="M10419.65 7746.48c0,-109.53 9.27,-77.43 69.43,-204.51 80,1.13 190.52,-16.12 251.45,-10.65 117.04,10.52 71.68,16.49 97.11,27.71 6.05,2.66 16.35,9.51 21.13,11.89l41.12 26.35c226.19,-68.59 -186.75,76.11 65.02,-32.03 151.96,-65.28 397.45,-47.48 561.38,-41.64l8.45 1463.14 -540.05 21.99c-540.48,10.99 -575.04,23.95 -575.04,-187.21l0 -1075.03zm-103.21 -266.75c-79.21,209.62 -47.34,1303.35 -16.07,1603.71l1306.4 -1.8c17.38,-263.23 34.48,-1440.76 -28.77,-1601.91 -129.58,-52.51 -1130.66,-50.72 -1261.56,0z"/>
   <path class="fil17" d="M37589.26 11181.97c-33.13,113.15 22.42,10.26 -70.08,146.65l-232.18 305.88c-35.2,50.01 -88.69,125.18 -146.52,199.8 -78.35,101.1 -124.96,103.56 -120.75,185.7 159.81,26.28 766.19,40.11 875.31,-1.43 63.97,-101.28 25.48,-725.16 25.48,-892.95l-97.31 -13.5 -70.02 -5.77 -163.93 75.62z"/>
   <path class="fil3" d="M19783.84 21231.85l116.47 -23.77c5.6,-114.75 21.89,-185.25 -16.22,-285.15 -55.55,-145.63 -92.5,-54.55 -56.86,-285.01 -530.68,-6.93 -833.58,40.52 -1342.54,-36.86 -163.2,-24.81 -363.45,-46.09 -472.34,53.88 680.95,-31.83 476.73,39.7 924.36,267.65 205.75,104.78 610.34,322.34 847.14,309.24z"/>
   <path class="fil17" d="M37893.92 13569.67c9.05,-282.79 78.12,-926.17 -5.15,-1178.87 -81.46,71.97 -126.3,209.79 -204.02,307.85l-645.32 835.09 854.49 35.93z"/>
   <path class="fil19" d="M12918.99 8958.19l1306.27 13.17 1567.45 13.6 14.94 -1880.1c-17.73,6.54 -28.18,6.82 -30.71,17.61l-50.41 45.14c15.23,153.94 12.77,1630.26 -12.41,1721.88 -372.18,62.19 -987.19,-13.75 -1401.4,19.8 -254.7,20.62 -470.67,21.37 -726.81,20.75 -265.55,-0.63 -640.31,58.06 -643.72,-74.6l7.73 -2107.6 46.79 -30.89c116.32,-42.94 1210.88,-14.91 1347.61,-14.91 337.54,0 1161.82,-40.05 1440.58,23.14 -108.89,-94.78 -505.14,-57.72 -713.77,-57.75 -421.03,-0.05 -1970.26,-35.64 -2170.01,35.48 -43.14,206.96 -39.43,2176.95 17.86,2255.27z"/>
   <path class="fil17" d="M35747.84 17846.55l870.59 -42.48c-7.6,-63.66 -212.99,-374.04 -265.29,-461.89l-117.67 -235.04c-3.06,-6.5 -6.84,-14.82 -9.96,-21.23 -46.08,-94.35 -65.67,-170.62 -175.84,-181.2 -30.18,30.33 -423.62,831.76 -439.43,933.3l137.61 8.53z"/>
   <path class="fil17" d="M37886.94 16789.46c-33.36,-40.84 18.49,-7.65 -61.37,-33.39l-821.77 6.33c-59.08,188.79 -47.4,836.11 -23.84,1047.04 143.63,-12.62 259.63,-255.08 431.65,-482.74 110.33,-146.01 327.39,-455.28 475.32,-537.25z"/>
   <path class="fil2" d="M24368.1 15212.09c-74.7,12.26 -1070.51,-36.81 -1485.28,24.58 -162.54,24.05 4.94,179.88 -10.37,190.24 226.38,6.66 1575.02,23.36 1726.55,-21.88 200.49,-242.21 527.26,-700.35 653.8,-1038.78 759.12,-3.11 730.07,7.43 0,0l-463.56 746.03c-60.78,97.82 -245.08,70.92 -421.13,99.81z"/>
   <path class="fil3" d="M22930.06 15302.62c-73.16,-25.79 -102.51,-60.44 -152.84,-117.53 -84.71,-96.08 -101.61,-134.73 -102.91,-261.04 109.66,-46.45 244.61,-153.36 318.16,-289.2 4.2,-6.23 10.14,-23.1 12.7,-18.64l54.28 -64.44c5.69,-6.35 15.71,-15.97 23.45,-24.08l133.46 346.64 610.12 -58.24 1220.92 -60.64 -247.71 391.47c-15.79,24.97 -371.28,55.26 -431.58,65.17 -368.36,60.47 -1087.79,193.12 -1438.04,90.53z"/>
   <path class="fil17" d="M37176.34 16220.34c61.83,-44.26 207.93,-259.14 244.51,-312.09 47.8,-69.22 76.66,-107.65 122.06,-161.49 72.92,-86.47 98.23,-83.44 111.36,-189.14 -36.37,-184.01 6.53,-85.45 44.74,-285.84l-695.21 -1.28c0,222.47 0.01,443.82 0,665.17 -0.01,114.71 0.12,226.62 -3.63,341.07 -3.25,99.19 6.29,15.22 9.57,12.77 70.08,-52.55 -106.56,-52.87 166.6,-69.18z"/>
   <path class="fil20" d="M16773.69 14329.53c-126.02,61.86 -220.42,40.7 -353.29,72.74 -118.76,28.63 -218.66,72.88 -315.12,104.04 -262.44,84.81 -426.7,129.27 -735.66,90.38 -131.27,-12.03 -98.53,-7.01 -193.23,42.1 35.64,131.43 408.39,249.7 540.48,205.6 197.22,-65.85 405.83,-160.76 619.03,-211.02 353.08,-83.25 844.31,-271.6 1288.56,-326.98 103.76,-9.88 174.9,-38.8 264.02,-51.88 120.22,-17.65 183.99,-9.48 293.76,-40.63 -293.65,-67.33 -1055.59,102.29 -1408.56,115.65z"/>
   <path class="fil16" d="M37078.01 11286.1l187.98 -15.89c17.57,-46.35 -32.87,-35.3 61.12,-33.7 168.63,-138.76 143.15,34.43 339.31,-236.1 102.74,-141.7 166.58,-189.31 235.59,-363.16l-972.39 10.28 -0.03 661.7 148.42 -23.14z"/>
   <path class="fil16" d="M39760.31 9341.92c-87.01,61.44 -717.15,1068.73 -742.43,1186.28l744.68 -17.32 -2.25 -1168.96z"/>
   <path class="fil16" d="M38842.08 9351.74c-66.47,57.3 -61.76,55.29 -117.94,146.9 -26.31,42.89 -55.15,92.13 -82.95,138.39 -125.13,208.31 -499.54,745.82 -538.97,885.92l747.34 2.04 -7.48 -1173.25z"/>
   <path class="fil16" d="M38060.09 10393.51c43.63,-32.87 724.57,-1084.18 735.2,-1174.74 -153.85,-11.37 -310.65,-0.87 -465.5,-4.44 -259.98,-5.99 -274.27,-56.16 -271.27,204.69 3.61,314.21 -15.73,669.37 1.58,974.49z"/>
   <path class="fil16" d="M38975.92 9222.25l-0.83 14.34 -4.72 1163.59c86.85,-87.54 730.77,-1101.8 745.85,-1185.2l-740.3 7.27z"/>
   <path class="fil21" d="M15576.37 7290.77c24.39,262.26 6.55,510.83 5.05,771.89l-20.8 715.67c-200.24,46.54 -2190.57,27 -2432.32,-14.54l140.23 35.05c38.23,3.81 117.38,1.8 159.15,1.79 94.91,-0.03 189.74,0.59 284.64,0.71 185.73,0.24 417.59,-23.29 581.16,20.16 -77.16,91.88 -183.44,72.71 -327.97,71.8 -266.56,-1.69 -888.96,35.56 -1023.32,-37.84 3.41,132.66 378.17,73.97 643.72,74.6 256.14,0.61 472.11,-0.13 726.81,-20.75 414.22,-33.56 1029.23,42.39 1401.4,-19.8 25.19,-91.62 27.65,-1567.94 12.41,-1721.88l-54.78 113.81 -95.38 9.34z"/>
   <path class="fil16" d="M40640.23 9354.98c-134.19,115.82 -263.77,416.77 -368.5,582.58 -81.15,128.47 -305.44,462 -336.36,586.27l714.88 -1.45 -10.02 -1167.4z"/>
   <path class="fil3" d="M22261.43 12002.79c83.41,17.74 80.75,-7.88 159.63,149.39 151.6,302.27 -120.77,455.34 -351.72,368.06 40.86,42.32 32.95,31.56 50.72,108.76l-204.07 -43.64 3.9 92.36c45.48,170.11 651.17,1496.5 880.04,1147.46 30.67,-133.12 16.7,-249.75 -16,-381.4l-135.86 -509.5c-64.33,402.65 9.25,255.58 14.87,503.16 0.95,41.89 0.85,50.86 -4.9,91.3 -8.99,63.35 -6.5,45.21 -24.73,77.61 -196.88,45.73 -325.97,-336.32 -432.38,-592.22 -83.92,-201.82 -29.99,-180.21 -85.2,-265.96 68.64,-59.2 84.56,-50.6 158.91,-67.81 459.86,-106.43 409.32,-741.42 3.58,-768.5 -36.83,55.12 -80.41,-76.26 -16.78,90.94z"/>
   <path class="fil16" d="M39905.37 9227.69l-12.49 1150.45c83.2,-71.86 674.1,-1062.38 696.05,-1161.35l-683.55 10.89z"/>
   <path class="fil8" d="M4028.62 11255.27l55.16 362.48 485.61 254.9 -296.25 -1537.89c-74.56,-421.79 -181.74,-818.83 -198.58,-1267.88l38.6 32.88c3.39,3.3 20.91,18.55 26.48,27.49 50.69,-80.08 56.6,-37.08 146.82,-223.59l718.21 -2.62c3.82,278.2 -14.88,492.87 29.2,737.66 89.36,496.18 59.48,948.63 65.62,1460.66l67.82 493.71c58.37,167.15 -14.87,90.7 85.3,125.29l56.41 14.74 446.97 -7.49c221.84,-459.15 171.23,-846.9 252.7,-1389.56 44.23,55.5 -22.57,55.92 127.13,67.71 -202.97,-359.98 281.76,-2024.59 -124.91,-2634.94 -128.05,-192.18 -370.28,-274.07 -339.95,-593.38 -103.23,27.07 -141.72,51.05 -293.34,-29.97 -43.14,-23.05 -47.09,-30.38 -58.15,-38.06l-51.47 -38.99c-7.87,-4.47 -37.94,-16.14 -63.22,-26.14 -239.84,-94.84 -47.7,12.89 -130.9,-73.65 -93.39,-56.22 -25.33,63.78 -70.59,-123.83 -43.13,-178.77 51.55,-394.36 -67.73,-394.82 43.71,93.44 -0.61,360.33 -37.6,481.4 -45.86,150.13 -54.81,62.98 -94.36,189.36 -128.63,411.07 2.42,78.77 -388.42,428.61 -80.12,71.72 -198.35,200.67 -282.45,236.33 -54.06,44.28 -76.77,66.56 -117.55,158.59 -113.3,255.63 -32.2,2446.64 -25.43,2900.83l11.7 341.28c15,74.03 -2.01,26.47 27.18,68.91z"/>
   <path class="fil17" d="M36211.68 16626.97c172.61,3.8 454.73,32.16 608.9,-20.43l1.83 -1108.63c-115.71,61.58 -225.84,338.86 -326.78,530.57 -59.37,112.78 -274.35,453.96 -283.95,598.5z"/>
   <path class="fil22" d="M26549.37 21106.2l1669.13 872.14c116.01,17.8 266.92,49.23 377.37,-3.64l-44.21 -15.75c-143.22,-31.22 -132.8,0.77 -245.4,-43.93 -12.77,-90.92 -53.01,56.51 19.61,-33.95 46.71,-58.19 -3.99,45.26 55.92,-61.52 -460.9,-7.09 -326.75,-64.27 -352.32,-133.04 -128.96,-6.89 -198.65,13.37 -263.03,-77.33 -99.23,-12.85 -4.01,19.44 3.79,-16.93l-277.88 -87.04c116.55,-71.44 77.53,10.49 117.98,-85.91 -146.43,-13.6 -221.11,14.39 -339.27,-48.43 -22.64,-82.11 -44.14,49.22 12.61,-30.91 42.7,-60.29 -9.95,47.45 47.89,-55.34l-281.38 -22.09c-35.96,-82.44 -8.62,-1.32 -3.75,-56.24 13.39,-151 17.59,85.34 13.53,-59.49l-270.69 -56.67c-0.15,-2.58 -1.6,-14.49 -1.65,-17.45 -2.29,-158.09 50.23,45.03 9.43,-55.72 -98.04,-9.09 -189.45,0.5 -277.48,-35.39 -114.41,-46.63 -19.82,-15.91 16.48,-101.13 -209.84,-17.06 -180.12,-3.55 -345.18,-75.59 63.6,-38.25 -100.89,49.64 48.14,-16.74l86.94 -44.98c-80.43,-6.05 -212.81,-1.84 -282.34,-21.04 -104.71,-28.92 -17.86,-20.41 25.12,-99.26l-297.86 16.59c102.06,179.5 634.82,313.54 778.49,466.81z"/>
   <path class="fil14" d="M9010.87 19445.4l-25 278.53 1.26 169.57c216.14,-7.01 437.43,-175.36 642.63,-260.41 153.27,-63.53 569.92,-263.29 749,-133.21l22.25 -133.27 -1394.21 -8.96 4.07 87.76z"/>
   <path class="fil22" d="M8375.38 21978.12c108.02,-98.43 663.66,-358.59 822.74,-440.04 145.05,-74.28 290.47,-154.06 411.85,-219.34 124.32,-66.87 287.5,-175.65 432.03,-202.78 42.76,-64.2 298.7,-190.78 392.92,-239.92 75.02,-39.13 142.65,-76.04 210.58,-105.92 130.94,-57.6 111.38,-2.53 180.89,-138.4l-302.88 -14.97c41.77,93.76 314.47,125.27 -267.86,118.76 19.62,16.42 -29.39,81.94 147.39,47.49 -104.15,87.19 -178.86,80.6 -347.07,95.81 26.93,68.05 279.6,108.02 -259.86,133.38 -16.2,34.67 8.44,-11.16 -4.06,39.97 -1.45,5.93 -8.05,30.32 -10.18,37.03 -1.54,4.87 -6.75,17.19 -8.2,21.39 -1.53,4.45 -4.84,15.68 -9.15,22.56l-231.51 10.48c-3.39,62.3 31.57,45.24 15.61,104.02l-288.33 37.04c54.44,97.03 170.96,50.95 22.39,105.48 -93.77,34.42 -204.55,20.38 -304.64,27.55 59.45,121.48 -13.23,-19.03 66.06,48.46 36.53,31.1 105.69,-15.44 14.03,47.19 -43.95,30.04 -186,35.06 -241.63,39.41 -46.88,109.18 118.67,57.71 11.94,54.48 -74.1,93.87 -157.65,69.25 -296.34,90.31 -14.16,42.37 40.01,-3.87 0,94.07l-319.01 32.75c70.58,133.01 -83.75,-125.54 42.41,42.52 54.1,72.07 53.5,-38.84 24.35,44.73 -98.66,45.77 -37.67,14.88 -128.22,28.52 -37.26,5.61 -48.92,3.5 -85.92,11.38l-71.24 23.18c106.18,51.09 254.98,26.59 380.92,3.42z"/>
   <path class="fil17" d="M37950.97 17424.94l-11.96 -477.7c-127.98,7.82 -390.68,470.1 -545.49,637.86 -66.87,72.47 -146.27,143.18 -195.43,219.02 181.97,37.19 536.78,76.12 696.1,-1.9l39.43 -347.37c4.18,-9.55 9.82,-21.19 17.35,-29.91z"/>
   <path class="fil7" d="M37893.92 13569.67l-854.49 -35.93 645.32 -835.09c77.72,-98.06 122.56,-235.89 204.02,-307.85 83.27,252.7 14.2,896.08 5.15,1178.87zm0 0c102.92,-60.88 60.31,-529.41 61.25,-669.41 1.22,-181.52 22.87,-441.27 -37.77,-610.8 -5.33,-14.9 -5.56,25.29 -33.87,-84.65 -79.23,42.12 -198.29,212.38 -253.03,282.71l-525.84 737.93c-103.13,132.67 22.81,55.01 -130.95,108.38 -22.36,-244.36 -51.57,-945.89 30.09,-1151.14 -113.85,36.79 -70.02,162.33 -67.95,305.88 4.94,343.54 -38.31,879.96 68.11,1084.08 145.15,18.57 295.35,15.67 442.4,16.81 92.83,0.72 373.53,15.19 447.56,-19.78z"/>
   <path class="fil7" d="M26751.65 7436.76c42.34,107.06 190.97,-20.08 264.39,194.09 54.55,159.11 -24.29,235.34 -90.67,345.62l-308.75 8.93c5.1,171.98 4.92,35.4 -40.76,90.04 -195.46,-24.26 -327.48,-52.44 -487.77,-83.21 -87.71,-16.84 -172.25,-27.97 -249.72,-46.02 -111.9,-26.08 -149.73,-70.33 -215.1,21.6 84.67,115.2 810.12,205.23 994.5,216.82l49.3 133.12 21.16 -100.4c248.98,-18.74 290.63,49.99 519.48,60.27 129.84,10.16 132.81,7.34 251.62,42.69 101.04,30.07 202.61,17.05 282.46,52.16l480.05 35.08 -11.68 309.03c78.32,-120.45 -9.59,-193.74 90.02,-328.43 93.73,-567.54 -129.35,-1004.72 -593.06,-1124.83l-499.41 -17.09c-227.43,19.29 -288.08,44.11 -456.06,190.53z"/>
   <path class="fil17" d="M36744.68 16753.52l-512.24 0.09c-2.57,118.45 121.59,274.51 176.01,388.2l28.73 65.07c40.11,80.76 276.72,531.19 345.73,531.08 0,-305.45 64.49,-741.87 -38.23,-984.43z"/>
   <path class="fil8" d="M8457.74 19648.32l31.78 357.67c157.58,193.63 -118.24,396.16 353.02,346.22 99.62,-234.55 58.34,-425.66 102.78,-553.76 23.83,-68.7 6.18,-33.46 40.55,-74.53l25 -278.53c-7.84,7.82 -14.63,19.13 -20.18,26.39 -5.32,6.95 -13.07,17.04 -19.41,25.25 -72.64,93.79 -53.43,86.24 -163.73,130.3 -140.81,56.25 -170.76,50.79 -349.8,21z"/>
   <path class="fil7" d="M37939.38 10512.58l-944.1 15.22c34.53,-114.06 29.92,-79.46 99.3,-160.77 169.58,-198.75 729.91,-1000.66 833.71,-1056.57l11.08 1202.12zm-991.7 -1308.86l910.86 10.94c-43.23,128.24 -822.45,1138.76 -915.68,1191.88l4.82 -1202.83zm991.7 1308.86c79.7,-133.84 24.13,-492.79 23.34,-679.29 -0.96,-226.56 26.67,-471.6 -60.6,-636.42 -179.63,-25.85 -830.32,-46.06 -954.43,6.85 -55.76,40.98 -11.31,-18.94 -42.85,66.53 -16.95,45.91 -11.98,36.44 -16.37,85.91 -3.54,39.91 1.99,145.95 2.69,192.46 1.78,118.8 12.69,235.1 14.52,347.91 4.41,271.19 -48.24,429.06 66.69,654.38l882.79 7.11c114.2,-24.27 57.77,39.46 84.23,-45.43z"/>
   <path class="fil7" d="M40640.23 9354.98l10.02 1167.4 -714.88 1.45c30.92,-124.27 255.21,-457.8 336.36,-586.27 104.72,-165.81 234.31,-466.76 368.5,-582.58zm-734.87 -127.29l683.55 -10.89c-21.95,98.96 -612.85,1089.49 -696.05,1161.35l12.49 -1150.45zm0 0c-74.48,44.14 -58.75,1105.44 5.82,1320.23 177.8,25.18 619.72,40.05 773.59,-19.03 16.66,-83.5 73.62,-1237.72 -71.24,-1329.99 -106.23,-20.13 -699.18,-54.67 -708.18,28.79z"/>
   <path class="fil7" d="M38842.08 9351.74l7.48 1173.25 -747.34 -2.04c39.43,-140.1 413.84,-677.61 538.97,-885.92 27.8,-46.26 56.64,-95.5 82.95,-138.39 56.17,-91.6 51.47,-89.59 117.94,-146.9zm-782 1041.77c-17.31,-305.12 2.03,-660.28 -1.58,-974.49 -2.99,-260.85 11.29,-210.68 271.27,-204.69 154.85,3.57 311.65,-6.93 465.5,4.44 -10.62,90.56 -691.56,1141.87 -735.2,1174.74zm776.7 -1196.89c-150.96,-26.27 -404.97,-10.13 -571.62,-13.13 -267.3,-4.82 -235.38,51.97 -233.51,300.84 1.98,264.51 -31.31,884.42 46.71,1060.06 180.6,27.59 648.84,46.3 805.05,-15.5 43.9,-218.08 15.01,-469.46 14.62,-695.61 -0.96,-564.05 20.13,-208.14 -61.26,-636.66z"/>
   <path class="fil8" d="M28042.05 19769.99l61.3 465.54 72.51 130.57c234.64,-3.22 248.49,42.84 270.33,-191.15 16.08,-172.32 29.46,-259.09 77.05,-422.14l11.67 -74.41c-74.21,28.94 -160.55,54.46 -251.66,68.51 -29.08,4.48 -84.35,10.25 -112.44,12.97l-94.99 7.66c-6.97,-10.73 -22.5,2.37 -33.78,2.44z"/>
   <path class="fil7" d="M39760.31 9341.92l2.25 1168.96 -744.68 17.32c25.28,-117.55 655.42,-1124.84 742.43,-1186.28zm-785.22 -105.33c-86.86,162.44 -25.81,489.99 -24.84,691.54 1.12,232.54 -34.65,438.83 44.52,626.69 208.92,25.47 593.44,34.92 790.01,-13.11 3.36,-281.03 60.64,-1172.83 -47.08,-1342.46l-619.22 -18.98c-187.77,10.97 -125.61,26.23 -142.56,41.98l740.3 -7.27c-15.07,83.4 -659,1097.66 -745.85,1185.2l4.72 -1163.59z"/>
   <path class="fil23" d="M36722.02 17883.27l-1170.82 -2.61c-21.51,56.89 -43.15,112.2 -59.52,189.78l1303.33 -0.32c-21.25,-89.4 -45.36,-133 -72.99,-186.84z"/>
   <path class="fil8" d="M15043.62 21979.47c355.13,-65.95 963.7,48.42 1370.56,-29.18 -36.97,-5.4 -184.07,-114.27 -276.51,-150.58 -125.64,-49.37 -242.57,-75.7 -400.58,-74.58 -334.71,2.37 -510.36,81.96 -693.48,254.33z"/>
   <path class="fil7" d="M37950.97 17424.94c-7.53,8.72 -13.17,20.35 -17.35,29.91l-39.43 347.37c-159.32,78.02 -514.12,39.09 -696.1,1.9 49.15,-75.84 128.56,-146.55 195.43,-219.02 154.81,-167.76 417.51,-630.04 545.49,-637.86 -36.27,-81.05 -32.34,-67.21 -52.06,-157.78 -147.94,81.97 -365,391.23 -475.32,537.25 -172.02,227.65 -288.02,470.11 -431.65,482.74 -23.57,-210.93 -35.25,-858.25 23.84,-1047.04 -103.28,56.88 -34.64,-63.69 -78.34,120.86l14.13 953.13 1012.82 -3.75 -1.45 -407.7z"/>
   <path class="fil24" d="M24995.68 14802.85l22.19 226.44c31.82,-31.88 -6.43,-77.22 67.22,-146.6 61.1,-57.56 -66.84,-53.97 93.69,-39.09 153.38,14.22 41.57,-21.76 95.55,57.57l99.08 -11.33c78.07,-151.61 211.5,-356.84 306.85,-513.44l-57.07 -11.68 -370.4 1.53c-50.53,79.68 -240.79,336.2 -257.11,436.6z"/>
   <path class="fil7" d="M36049.67 16904.71c110.18,10.58 129.76,86.85 175.84,181.2 3.12,6.4 6.9,14.72 9.96,21.23l117.67 235.04c52.3,87.85 257.69,398.23 265.29,461.89l-870.59 42.48 1085.49 -13.78 -7.6 -1047.46 -81.05 -31.78c102.71,242.57 38.23,678.98 38.23,984.43 -69.02,0.11 -305.62,-450.32 -345.73,-531.08l-28.73 -65.07c-54.42,-113.7 -178.58,-269.75 -176.01,-388.2l-51.92 25.1c-7.15,4.07 -16.56,7.96 -24.09,12.73 -100.55,63.82 -68.33,34.87 -106.77,113.27z"/>
   <path class="fil8" d="M27985.02 19559.45l57.02 210.54c11.28,-0.07 26.81,-13.17 33.78,-2.44l94.99 -7.66c28.09,-2.72 83.36,-8.49 112.44,-12.97 91.11,-14.04 177.45,-39.57 251.66,-68.51l-11.67 74.41 23.36 0c-25.39,-125.44 9.13,-180.41 24.4,-312.16 -10.57,-156.07 14.48,-37.47 -35.94,-95.39l-546.94 6.99 -3.09 207.2z"/>
   <path class="fil3" d="M21665.97 14913.54l44.44 175.4 113.14 285.23c23.11,25.32 153.24,258.14 202.22,336.53 94.11,150.63 140.42,206.05 377.14,210.98 398.6,8.31 732.43,-29.15 1107.16,-43.99 400.34,-66.83 784.14,-141.96 1157.89,-227.06 617.2,-140.54 512.26,-233.75 765.27,-695.02l-116.64 -21.15 -138.28 201.47c-3.65,5.2 -9.26,12.5 -12.75,17.9 -3.59,5.57 -8.13,13.7 -11.57,19.49 -59.35,99.86 45.66,-73.92 -20.8,42.58l-51.28 77.16 -521.06 124.07c-151.54,45.23 -932.7,-10.04 -1159.09,-16.7l-416.45 9.56 -527.11 -1.4 -99.94 -417.45 -106.22 -316.74c-130.73,-0.76 -211.67,41.79 -352.44,42.65 -119.36,0.73 -223.61,-30.31 -333.04,-32.52 14.96,118.89 35.86,168.46 99.42,228.99z"/>
   <path class="fil25" d="M6385.32 5146.49c-47.87,-196.85 -27.21,-457.06 -205.36,-566.3 -23.23,133.23 -261.58,94.16 -216.46,381.16 34.99,222.49 218.62,213.55 421.82,185.13z"/>
   <path class="fil7" d="M37589.26 11181.97l-262.14 54.54c-93.99,-1.6 -43.55,-12.65 -61.12,33.7l146.53 17.51c-41.64,123.06 -360.09,551.65 -452.85,585.58l4.16 -480.18c-118.08,146.94 -16.47,552.39 40.12,666.27 190.55,28.55 801.17,42.15 948.17,-44.44 0,-158.1 -0.13,-316.2 0,-474.29 0.1,-111.59 36.38,-356.07 -31.61,-415.03 0,167.79 38.49,791.67 -25.48,892.95 -109.12,41.54 -715.5,27.71 -875.31,1.43 -4.21,-82.14 42.4,-84.6 120.75,-185.7 57.83,-74.62 111.33,-149.79 146.52,-199.8l232.18 -305.88c92.49,-136.39 36.95,-33.51 70.08,-146.65z"/>
   <path class="fil7" d="M5199.67 20335.59c104.36,32.43 663.94,46.79 767.47,-5.04 -34.88,-108.63 -27.33,-75.05 -159.09,-121.73 -79.09,-28.02 -148.05,-59.75 -211.33,-86.54 -139.76,-62.01 -266.28,-50.59 -429.29,-52.24l32.24 265.55z"/>
   <path class="fil2" d="M22930.06 15302.62c-73.16,-25.79 -102.51,-60.44 -152.84,-117.53 -210.39,-238.64 44.31,-218.77 -418.98,-193.95l99.94 417.45 527.11 1.4c-29.42,-64 -5.77,-32.35 -55.23,-107.38z"/>
   <polygon class="fil26" points="37935.09,17878.18 37093.99,17884.57 36987,18065.48 37944.03,18069.32 "/>
   <path class="fil7" d="M6258.11 20219.4c101.37,32.65 672.84,41.82 780.65,-15.32 -32.54,-102.46 -35.41,-77.26 -155.67,-115.51 -101.43,-32.26 -110.2,-35.29 -195.43,-79.54l-441.04 -47.37 11.48 257.74z"/>
   <path class="fil27" d="M26616.62 7985.4l308.75 -8.93c66.39,-110.29 145.22,-186.51 90.67,-345.62 -73.43,-214.17 -222.05,-87.03 -264.39,-194.09 -5.77,5.83 -12.35,8.35 -14.28,20.03 -10.26,62.33 -21.43,-93.42 -75.82,379.56l-44.93 149.05z"/>
   <path class="fil3" d="M11281.47 21343.92l473.72 -21.3c5.53,10.81 8.48,15.33 10.08,30.39 1.59,14.85 7.29,20.51 9.4,27.58 56.39,188.79 -56.09,0.77 43.84,150.7 94.73,7.43 174.87,18.48 252.64,-43.76l-221.14 -20.28c46.73,-100.09 130.29,-123.93 228.79,-193.58 6.37,-4.51 16.73,-11.39 23.95,-18.42l-133.47 3.67c-61.49,-230.54 -293.37,-118.86 -394.51,-327.61 31.23,-93.56 43.31,-65.96 110.73,-149.47 -101.81,11.92 -385.55,-1.99 -285.91,244.32 256.37,30.64 56.57,-0.13 310.64,128.07l149.38 96.51 -546.63 73.9c-7.39,-9.02 -23.74,9.74 -31.51,19.28z"/>
   <path class="fil8" d="M32137.67 11859.56c-14.8,240.12 -647.75,1040.02 -1013.45,1294.28l-92.56 67.45c-23.16,87.45 -285.25,252.59 -364.96,326.11 -54.09,49.88 -292.6,279.79 -388.88,301.57 -53.65,88.32 -2.22,21.63 -70.08,90.86 -22.77,23.23 -51.1,41.8 -73.14,58.14 -55.6,41.23 -75.94,68.2 -138.02,83.39 -21.39,203.94 -78.87,262.33 -55.81,443.79 -89.22,90.92 -75.23,232.67 -124.35,441.79 -143.97,612.94 -72.5,1059.93 -665.93,1083.91 18.44,-190.64 35.62,-132.41 131.98,-253.29l25.58 -34.76c35.12,-58.06 15.48,43.04 28.87,-80.12 -37.91,-23.8 -114.76,-36.89 -170.78,-94.86l156.45 -164.36c131.22,-137.48 13.63,-231.09 34.01,-756.08l-83.35 30.38c-35.77,69.25 -176.71,176.4 -278.23,222.08l16.45 1079.18 29.38 58.41c408.56,316.68 28.27,1171.55 209.04,1470.49l1117.84 1876.16 323.94 509.26c-93.84,66 -49.17,47.65 -76.11,81.64 166.91,-26.09 132.64,34.4 268.65,-6.14 92.19,-27.49 101.87,-60.31 238.13,-77.23l-10.49 170.08 36.97 13.69c40.34,-235.01 -50.43,-257.62 -95.96,-460.26 -31.22,-10.17 -38.28,27.85 -41.6,-87.19 -43.3,-36.19 -24.72,3.75 -56.87,-56.01 -44.74,-83.19 -10.38,-18.33 -18.39,-69.54l-400.97 -824.51c-73.88,-218.25 -296.49,-547.66 -310.19,-732.66l-302.38 -598.44c-367.09,-790.08 -377.08,-590.33 -31.56,-891.38 51.4,-44.79 78.47,-76.16 127.61,-124.17l191.25 -134.81c18.7,-79.61 239.59,-249.78 318.98,-320.43 99.73,-86.65 143.98,-130.94 268.9,-199.54 53.17,-107.77 981.8,-889.49 1201.09,-1096.38 71.9,-67.84 127.37,-111.6 205.1,-174.53 197.07,-159.56 401.88,-402.79 439.9,-696.12 33.38,-257.45 41.17,-449.07 7.02,-706.61 -58.85,-443.75 -186.44,-804.91 -374.23,-1123.37 -109.09,21.2 -28.24,2.81 -85,25.82 -7.39,2.99 -45.14,28.38 -53.82,34.32z"/>
   <path class="fil7" d="M30615.55 19994.97c-119.75,-11.17 -222.93,-5.32 -307.98,51.02 52.48,96.21 149.56,85.3 368.8,129.84 136.65,27.77 295.94,97.82 427.97,42.18l7.5 -136.33 10.49 -170.08c-136.25,16.91 -145.93,49.74 -238.13,77.23 -136.01,40.54 -101.74,-19.94 -268.65,6.14z"/>
   <path class="fil8" d="M8428.28 19504.04l29.46 144.28c179.04,29.8 208.99,35.26 349.8,-21 110.3,-44.06 91.09,-36.51 163.73,-130.3 6.34,-8.2 14.09,-18.29 19.41,-25.25 5.55,-7.25 12.34,-18.56 20.18,-26.39l-4.07 -87.76 -580.97 -3.58 2.45 149.99z"/>
   <path class="fil7" d="M29424.61 19950.98l-317.07 111.75c-12.45,157.49 -12,43.7 27.95,91.52l758.99 -45.29 9.7 -243.61c-68.78,-39.29 -22.95,-21.83 -77.46,-27.48 -75.19,-7.8 -68.56,16.84 -169.37,65.68 -180.87,87.61 -57.04,-16.15 -232.75,47.43z"/>
   <path class="fil17" d="M37078.01 11286.1c-34.7,50.92 46.92,21.56 -50.38,44.23l-63.79 62.78 -4.16 480.18c92.76,-33.93 411.21,-462.52 452.85,-585.58l-146.53 -17.51 -187.98 15.89z"/>
   <path class="fil3" d="M25623.19 14364.72l57.07 11.68c-95.35,156.61 -228.78,361.84 -306.85,513.44l-99.08 11.33 -53.96 -3.78 95.98 22.2 1.46 90.19 115.42 -54.17c88.49,-42.17 232.81,-243.59 281.2,-357.91 107.6,-254.19 227.13,-377.88 157.22,-479.23 -130.74,-28.35 -134.09,91.34 -248.45,246.25z"/>
   <path class="fil28" d="M10646.52 15259.82c7.44,-5.69 17.75,-24.49 21.4,-18.21 4.1,7.05 25.41,-21.6 40.98,-34.76 35.22,-29.76 29.99,-30.64 71.29,-59.27 44.08,-124.26 39.88,-292.31 -43.91,-398.75l-93.94 -70.23c-5.56,-3.8 -16.36,-10.37 -20.98,-13.43l-44.82 -25.87c4.99,166.73 -77.16,198.07 -119.85,347.76 48.99,57.35 59.8,56.35 114.47,109.07 80.39,77.52 68.58,32.28 75.37,163.69z"/>
   <polygon class="fil16" points="39152.36,9070.05 39894.16,9076.67 39919.97,8913.23 39131.96,8911.16 "/>
   <polygon class="fil16" points="38236.22,9065.53 39028.01,9071.6 39030.67,8916.01 38235.39,8916.2 "/>
   <path class="fil29" d="M39996.05 8979.59c41.76,101.79 -115.93,81.39 357.53,81.29 67.35,-0.02 163.7,8.4 224.59,5.73 197.34,-8.66 122.28,12.7 165.4,-87.02 -46.91,-92.95 63.9,-53.65 -133.56,-71.86l-449.34 -0.91c-237.18,7.23 -117.58,24.42 -164.62,72.77z"/>
   <path class="fil30" d="M28107.08 9209.21l103.07 -492.62 11.68 -309.03 -480.05 -35.08 58.66 164.88c201.45,-0.6 72.91,-82.92 297.08,-32.04 33.07,114.65 67.7,240.94 35.42,361.02 -44.64,166.01 -193.28,223.62 -25.87,342.87z"/>
   <path class="fil3" d="M22000.33 12489.25c0,64 -11.43,39.51 69.01,30.99 230.96,87.28 503.32,-65.79 351.72,-368.06 -78.88,-157.27 -76.22,-131.64 -159.63,-149.39 9.44,76.14 15.13,229.44 -11.55,332.73 -41.56,160.87 -67.28,164.62 -249.55,153.73z"/>
   <path class="fil16" d="M38128.86 9061.73l12.67 -146.64c-118.81,-8.66 -235.16,-5.07 -350.12,-5.33 -148.97,-0.35 -217.42,-24.79 -205.58,137l543.03 14.97z"/>
   <rect class="fil7" x="12964.29" y="6726.44" width="2749.84" height="2163.06"/>
   <path class="fil8" d="M26544.69 19351.82l-252.65 1.08c-6.52,250.66 -42.27,342.27 213.84,304.77l38.81 -305.85z"/>
   <polygon class="fil8" points="10693.04,19346.46 10452.58,19349.2 10471.35,19653.58 10667.18,19666.76 "/>
   <path class="fil16" d="M37753.19 11106.35l70.02 5.77c34.55,-40.22 -59.28,-40.79 102.57,-41.34l14.01 -307.59c-97.77,46.17 -22.72,-47.01 -163.83,159.3 -54.32,79.42 -48.2,78.78 -119.49,132.38 44.85,64.68 -76.74,52.92 96.71,51.48z"/>
   <path class="fil31" d="M17166.1 9580.18l46.15 -36.02c105.39,-69.49 114.87,-46.74 199.36,-1.64 -27.16,-85.61 -114.25,-242.39 -172.41,-314.82 -84.57,20.58 -4.29,-31.21 -61.13,36.32l-11.96 316.16z"/>
   <rect class="fil7" x="22842.28" y="7801.93" width="1258.24" height="830.54"/>
   <path class="fil32" d="M21735.69 12184.05c15.55,84.4 19.41,111.37 60.17,154.64l76.59 55.51c7.08,5.22 17.69,13.03 23.67,17.46 6.23,4.61 16.18,12.49 24.19,18.85 -69.27,-240.1 25.38,-277.29 93.7,-445.48 -90.19,27.62 -172.87,29.32 -202.95,289.51 -4.79,-9.37 -27.64,-38.5 -31.61,-43.55 -3.9,-4.97 -17.39,-8.72 -20.68,-23.18 -3.51,-15.41 -16.18,-15.15 -23.08,-23.78z"/>
   <path class="fil7" d="M6490.16 14016.06l18.82 -206.07 -144.86 -35.28c-2.17,57.97 -15.15,119.24 16.02,173.58 55.6,96.91 -16.34,71.99 110.02,67.77z"/>
   <path class="fil7" d="M4946.01 6382.06c193.37,2.36 -188.89,-401.1 33.38,-609.1 91.77,-92.79 138.18,14.12 266.26,32.39l56.93 -203.97 146.69 -14.6 942.7 -227.9c250.69,-69.87 811.3,-157.04 986.52,-299.95 -107.75,-79.65 -298.55,14.2 -487.14,67.15 -134.21,37.68 -331.53,104.17 -476.5,112.82l-29.54 -92.4c-203.2,28.42 -386.83,37.36 -421.82,-185.13 -45.12,-287 193.24,-247.93 216.46,-381.16 -179.73,-157.07 -544.93,-149.21 -787.03,-102.92 -282.06,53.92 -465.93,185 -570.76,380.65 -296.57,553.5 76.88,1035.24 123.83,1524.14z"/>
   <path class="fil8" d="M11127.82 9979.94l4096.58 0 0 1906.96 -4096.58 0 0 -1906.96zm369.87 342.9l3363.94 0 0 1196.76 -3363.94 0 0 -1196.76z"/>
   <path class="fil7" d="M10243.44 7438.79l1363.33 0 0 1642.84 -1363.33 0 0 -1642.84zm194.15 200.5l957.43 0 0 1277.06 -957.43 0 0 -1277.06z"/>
   <path class="fil8" d="M12876.67 6625.01l2916.05 0 0 2359.95 -2916.05 0 0 -2359.95zm87.62 101.43l2740.81 0 0 2157.08 -2740.81 0 0 -2157.08z"/>
   <path class="fil8" d="M13157.7 6872.81l2402.92 0 0 1905.52 -2402.92 0 0 -1905.52zm63.89 66.66l2275.15 0 0 1772.22 -2275.15 0 0 -1772.22z"/>
   <path class="fil7" d="M17912.93 3664.47l2895.05 0 0 4175.31 -2895.05 0 0 -4175.31zm548.37 544.23l1789.5 0 0 3065.51 -1789.5 0 0 -3065.51z"/>
   <polygon class="fil33" points="26348.48,2568.46 29704.94,2568.46 29704.94,5925.44 26348.48,5925.44 "/>
   <path class="fil8" d="M22399.39 7333.55l2240.13 0 0 1719.64 -2240.13 0 0 -1719.64zm1701.13 468.38l-1258.24 0 0 830.54 1258.24 0 0 -830.54z"/>
   <path class="fil7" d="M21274.91 11936.52c121.53,137.98 130.12,264.89 460.78,247.53 6.89,8.62 19.56,8.36 23.08,23.78 3.29,14.45 16.78,18.2 20.68,23.18 3.97,5.05 26.82,34.18 31.61,43.55 30.08,-260.19 112.76,-261.89 202.95,-289.51 -68.33,168.19 -162.97,205.38 -93.7,445.48 29.91,38.54 19.34,30.8 80.02,58.73 182.27,10.89 207.99,7.14 249.55,-153.73 26.69,-103.28 21,-256.59 11.55,-332.73 -232.31,-12.9 -260.59,-216.32 -190.76,-367.27 156.55,-48.4 187.81,22.57 312.82,74.16 16.49,-261.77 -58.27,-338.34 115.08,-486.87 95.3,-81.66 239.7,-166.4 411.65,-177.61 90.37,154.58 45.41,102.22 234.42,162.64 101.09,543.96 411.19,-51.13 380.3,712.74 -13.7,338.93 -31.23,319.94 74,323.8 79.42,-137.46 40.1,-157.63 167.85,-257.92 246.33,-193.38 261.79,-366 157.41,-642.49 -66.02,-174.84 16.42,-132.58 63.93,-324.92l3.07 -269.72c-24.08,-217.09 -152.01,-228.2 -259.52,-344.92 -369.22,-70.99 -132.08,-51.99 -323.46,-278.27 -93.74,-110.85 -178.66,-135.26 -279.58,-204.03l-42.04 -33.59 -50.13 15.8c-144.85,-3.34 -381.23,64.51 -450.58,35.48 -0.1,-0.05 -627.12,-491.71 -860.14,226.22 -275.74,12.09 -397.35,63.03 -507.8,249.84 -138.77,234.72 -51.37,340.84 13.74,555.68 -327.15,365.68 -190.71,470.49 -15.33,682.93 81.61,98.85 49.4,130.66 58.55,282.04z"/>
   <path class="fil3" d="M22261.43 12002.79c-63.63,-167.2 -20.04,-35.82 16.78,-90.94 405.74,27.09 456.28,662.08 -3.58,768.5 -74.35,17.2 -90.27,8.6 -158.91,67.81 55.21,85.75 1.28,64.15 85.2,265.96 106.42,255.9 235.51,637.95 432.38,592.22 18.22,-32.4 15.73,-14.26 24.73,-77.61 5.75,-40.44 5.85,-49.41 4.9,-91.3 -5.62,-247.58 -79.2,-100.51 -14.87,-503.16l11.49 -436.12c169.81,52.32 314.67,160.93 532.82,46.89l312.76 -186.31c6.3,-4.75 43.07,-39.61 50.58,-48.57 36.25,-43.26 4.87,5.63 43.22,-65.78 -105.23,-3.86 -87.7,15.13 -74,-323.8 30.89,-763.87 -279.21,-168.78 -380.3,-712.74 -189.01,-60.41 -144.04,-8.06 -234.42,-162.64 -171.95,11.21 -316.35,95.95 -411.65,177.61 -173.35,148.53 -98.58,225.09 -115.08,486.87 -125.01,-51.59 -156.28,-122.56 -312.82,-74.16 -69.84,150.95 -41.55,354.36 190.76,367.27z"/>
   <path class="fil7" d="M20031.62 14284.69l744.94 1490.33c-648.57,496.01 -5045.06,7.18 -9996.37,-627.44l-43.91 -398.75c1240.81,-54.79 3103.54,-486.72 3722.43,-164.39 230.6,78.5 469.44,99.34 717.7,54.35 1449.61,-459.47 3082.56,-548.11 4855.22,-354.1z"/>
   <path class="fil7" d="M17127.52 10448.85l433.13 80.04c-349.02,1269.77 -437.06,2726.33 -1047.08,3809.32l-1215.44 291.7c491.94,-1440.83 1072.79,-2846.09 1829.39,-4181.06z"/>
   <polygon class="fil3" points="17127.52,10448.85 17142.42,10164.25 17492.44,10162.49 17614.36,10436.59 17560.66,10528.89 "/>
   <path class="fil8" d="M17142.42 10164.25l35.65 -900.22c17.69,-87.64 60.24,-56.59 117.64,45.42 124.35,199.45 193.22,443.74 202.89,735.82 360.52,-99.76 420.62,334.27 115.77,391.32l-121.92 -274.1 -350.02 1.76z"/>
   <polygon class="fil3" points="10736.27,14748.83 10576.53,14639.3 10469.48,15001.7 10646.52,15259.82 10780.18,15147.57 "/>
   <path class="fil8" d="M10576.53 14639.3c-382.85,-30.83 -496.04,74.96 -217.27,379.38 -202.8,165.89 -359.23,379.2 -458.74,650.78 -45.75,136.18 -5.76,165.2 160.23,36.75l587.03 -447.45 -178.3 -257.06 107.06 -362.4z"/>
   <polygon class="fil8" points="25680.26,14376.4 25252.79,14366.25 24549.88,15483.07 24963.61,15476.11 "/>
   <rect class="fil16" x="7464.09" y="15900.1" width="22111.2" height="1943.1" rx="1014.58" ry="971.55"/>
   <rect class="fil7" x="11497.69" y="10322.84" width="3363.94" height="1196.76"/>
   <rect class="fil8" x="18461.3" y="4208.7" width="1789.5" height="3065.51"/>
   <rect class="fil7" y="22240.2" width="45388.86" height="1799.17"/>
   <path class="fil34" d="M42728.25 10996.7c-404.28,390.24 -1041.14,386.26 -1402.36,12.04l-57.91 -59.99c-361.97,-374.98 -343.59,-1007.99 74.54,-1411.62 384.4,-371.06 1035.27,-343.07 1407.82,49.9 373.94,394.43 368.84,1032.32 -22.08,1409.67zm168.33 -4100.5c293.73,411.59 238.37,1058.77 -250.53,1399.8 -415.45,289.82 -1048.47,252.79 -1403.68,-250.4 -290.72,-411.86 -241.81,-1055.73 253.91,-1402.71 417.15,-291.99 1049.47,-238.31 1400.3,253.31zm-1968.39 7334.48l1025.48 13.24c221.1,7.61 95.55,-47.23 248.08,-31.98 34.74,3.47 100.47,7.03 129.76,14.93 271.31,73.12 362.08,-13.12 646.18,38.36 67.25,-87.68 576.01,-1534.76 658.11,-1812.07 61.92,-209.12 109.45,-403.95 158.78,-610.42 150.43,-629.37 247.02,-1203.11 319.99,-1822.52l49.83 -612.09c25.2,-243.03 36.21,-658.51 35.76,-907.43 -0.64,-343.64 -23.17,-593.4 -32.15,-908.66 -13.03,-457.94 -155.52,-1393.71 -264,-1832.64 -50.9,-205.94 -99.87,-407.36 -164.29,-616.56 -47.82,-155.35 -138.15,-494.53 -216.62,-624.64 -150.41,49.02 -533.64,73.02 -705.15,90.34 -343.76,34.73 -1097.73,26.71 -1415.12,-21.31l-709.21 -91.47c-267.93,504.63 -587.85,1878.07 -659.45,2421 -27.29,206.99 -59.54,398.32 -72.78,599.95 -7.4,112.77 -52.39,503.95 -46.95,612.6 10.15,201.96 -38.35,706.95 -10.96,1061.33l19.13 448.53c16.21,739.82 235.59,1996.92 416.75,2743.38 83.7,344.85 456.91,1682.86 588.82,1848.1z"/>
   <path class="fil34" d="M39939.89 14613.75c215.19,-207.72 383.81,-344.35 612.42,-538.77 -95.23,-223.55 -362.5,-1220.29 -431.68,-1339.09 -413.59,424.22 -817.04,855.44 -1219.79,1281.36 -375.73,397.34 -333.95,260.31 -340.14,645.13 -3.63,225.76 -8.44,434.65 -11.71,660.07 -12.69,873.68 -31.2,1731.96 -47.55,2605.65 -3.82,204.01 -23.41,444.05 -5.34,648.37 32.04,362.28 221.56,372.75 318.45,-53.13 24.18,-106.21 26.36,-205.23 41.14,-317.55 68.53,-520.74 200.19,-1901.86 312.48,-2294.31 128.36,-448.55 374.26,-914.07 771.73,-1297.74z"/>
   <path class="fil34" d="M43346.17 14129.29c548.88,494.17 987.82,868.29 1235.05,1607.85 179.42,536.74 226.51,1577.63 274.57,2174.53 10.29,127.89 42.63,1074.16 246.92,1052.28 180.94,-78.37 150.28,-643.7 152.16,-750.3l66.5 -3642.78c3.12,-105.92 -23.79,-102.49 -112.74,-204.07 -457.7,-522.68 -943.48,-1039.08 -1388.51,-1569.45l-473.94 1331.94z"/>
   <path class="fil34" d="M42413.12 2580.17l-251.21 -260.24 -295.1 284.86c-12.15,29.25 -272.46,324.6 -322.38,389.75 -194.34,253.69 -670.38,987.19 -723.13,1222.19 174.71,89.06 1377.55,150.16 1611.74,132.66 110.16,-8.21 207.05,-9.09 330.28,-13.84 106.7,-4.12 561.37,-44.31 660.7,-84.82 -207.4,-444.28 -386.56,-834.14 -684.61,-1250.19 -44.91,-62.69 -315.21,-392.65 -326.29,-420.37z"/>
   <path class="fil34" d="M41431.17 9860.14c-574.17,809.87 659.21,1623.11 1192.04,829.19 201.09,-299.61 173.42,-745.27 -187.51,-1004.5 -288.87,-207.47 -750.99,-182.3 -1004.53,175.31z"/>
   <path class="fil34" d="M42785.28 7598.9c57.39,-301.04 -101.3,-724.37 -536,-834.59 -291.42,-73.9 -738.62,50.86 -874.16,483.29 -272.04,867.87 970.86,1338.48 1347.06,544.28 -1.69,-4.23 -4.38,-9.55 -5.73,-12.4l-35.34 -70.65c24.16,-45.56 61.98,-71.28 44.06,-113.98 -53.52,-18.53 -58.86,-2.68 -90.65,57.18 -11.67,-36.64 7.9,-76.39 48.8,-85.95 82.7,-19.35 29.2,17.17 101.95,32.82z"/>
   <path class="fil34" d="M41217.43 14751.08l772.05 29.26c44.24,-90.16 -17.66,-239.78 306.59,-141.27 -12.1,37.96 -51.63,-4.36 7.32,140.79l346.64 7.88c30.36,-62.48 28.93,-190.77 16.54,-251.34 -297.9,-52.13 -256.35,39.6 -517.5,-0.91 -69.77,-10.82 -115.79,-8.28 -188.23,-13.78 -228.45,-17.34 -499.37,-14.49 -732.53,-13.59l-10.88 242.97z"/>
   <polygon class="fil7" points="36960.35,14973.14 37842.15,13723.83 37930.18,13692.41 37891.81,13777.75 37008.52,15081.92 "/>
   <polygon class="fil7" points="36953.52,16471.77 37006.41,16619.5 37903.95,15315.89 37930.13,15210.8 37857.17,15224.08 "/>
  </g>
 </g>
</svg>
