<svg xmlns="http://www.w3.org/2000/svg" xmlns:xlink="http://www.w3.org/1999/xlink" width="24" height="24" viewBox="0 0 24 24">
    <defs>
        <path id="5au7mp0r8a" d="M.086 11.04c0 6.049 4.904 10.997 10.952 10.952 6.133-.047 10.99-4.925 10.953-10.953C21.952 4.992 17.088.09 11.038.087 4.99.087.086 4.991.086 11.039z"/>
        <path id="p0nwf59buc" d="M.086 11.04c0 6.049 4.904 10.997 10.952 10.952 6.133-.047 10.99-4.925 10.953-10.953C21.952 4.992 17.088.09 11.038.087 4.99.087.086 4.991.086 11.039z"/>
        <path id="8059kfuybe" d="M.086 11.04c0 6.049 4.904 10.997 10.952 10.952 6.133-.047 10.99-4.925 10.953-10.953C21.952 4.992 17.088.09 11.038.087 4.99.087.086 4.991.086 11.039z"/>
        <path id="20s69gocpg" d="M.086 11.04c0 6.049 4.904 10.997 10.952 10.952 6.133-.047 10.99-4.925 10.953-10.953C21.952 4.992 17.088.09 11.038.087 4.99.087.086 4.991.086 11.039z"/>
        <path id="nbrdezd6oi" d="M.086 11.04c0 6.049 4.904 10.996 10.952 10.952 6.133-.047 10.99-4.925 10.953-10.953C21.952 4.992 17.088.09 11.038.087 4.989.087.086 4.99.086 11.039z"/>
        <path id="2ueoya76mk" d="M.086 11.04c0 6.049 4.904 10.997 10.952 10.952 6.133-.047 10.99-4.925 10.953-10.953C21.952 4.992 17.088.09 11.038.087 4.99.087.086 4.991.086 11.039"/>
        <path id="fxfe7wyu0m" d="M.086 11.04c0 6.049 4.904 10.997 10.952 10.952 6.133-.047 10.99-4.925 10.953-10.953C21.952 4.992 17.088.09 11.038.087 4.99.087.086 4.991.086 11.039"/>
        <path id="c817e5ifgo" d="M.247 3.826c-.724 2.688.869 5.454 3.557 6.178 2.688.724 5.454-.869 6.178-3.557.724-2.688-.868-5.455-3.557-6.178C5.986.15 5.545.094 5.111.094 2.888.094.853 1.576.247 3.826"/>
        <path id="nteg3bvqdq" d="M1.667.673C-.012 1.842-.425 4.15.744 5.829c1.158 1.663 3.439 2.086 5.117.95l.037-.027.007.008c1.66-1.146 2.091-3.413.97-5.09-.015-.02-.022-.033-.03-.045l-.022-.03C6.103.563 4.95.009 3.78.009c-.73 0-1.468.216-2.113.665z"/>
    </defs>
    <g fill="none" fill-rule="evenodd">
        <g>
            <g>
                <path fill="#97B8E8" d="M20.494 20.471c-4.64 4.697-12.182 4.713-16.967 0-4.72-4.648-4.685-12.275 0-16.959 4.685-4.683 12.281-4.683 16.967 0 4.692 4.684 4.658 12.247 0 16.96" transform="translate(-40 -162) translate(40 162)"/>
                <g>
                    <g>
                        <g transform="translate(-40 -162) translate(40 162) translate(1 1)">
                            <mask id="xdsvodiv0b" fill="#fff">
                                <use xlink:href="#5au7mp0r8a"/>
                            </mask>
                            <path fill="#6D8ABA" d="M-7.429 3.511L-2.754 0.431 15.264 27.777 10.589 30.857z" mask="url(#xdsvodiv0b)"/>
                        </g>
                        <g transform="translate(-40 -162) translate(40 162) translate(1 1)">
                            <mask id="ep7k79r74d" fill="#fff">
                                <use xlink:href="#p0nwf59buc"/>
                            </mask>
                            <path fill="#4870A5" d="M-2.752 0.43L1.922 -2.65 19.94 24.697 15.265 27.777z" mask="url(#ep7k79r74d)"/>
                        </g>
                        <g transform="translate(-40 -162) translate(40 162) translate(1 1)">
                            <mask id="evfzbgxnnf" fill="#fff">
                                <use xlink:href="#8059kfuybe"/>
                            </mask>
                            <path fill="#255AA0" d="M1.923 -2.649L6.597 -5.729 24.615 21.617 19.941 24.697z" mask="url(#evfzbgxnnf)"/>
                        </g>
                        <g transform="translate(-40 -162) translate(40 162) translate(1 1)">
                            <mask id="81o9p5pbdh" fill="#fff">
                                <use xlink:href="#20s69gocpg"/>
                            </mask>
                            <path fill="#032E67" d="M6.597 -5.73L11.28 -8.815 29.298 18.531 24.615 21.617z" mask="url(#81o9p5pbdh)"/>
                        </g>
                    </g>
                    <g>
                        <path fill="#FFBD99" d="M1.989 5.741c1.199-2.625.14-4.7-.582-5.688.07.23.104.47.102.711 1.272 1.828.522 4.812.48 4.977" transform="translate(-40 -162) translate(40 162) translate(1 1) translate(11.619 9.238)"/>
                        <path fill="#FFE4D6" d="M.366 4.597c.666-1.46.078-2.616-.323-3.164.038.128.058.261.057.395.707 1.016.29 2.677.266 2.769" transform="translate(-40 -162) translate(40 162) translate(1 1) translate(11.619 9.238)"/>
                    </g>
                    <g transform="translate(-40 -162) translate(40 162) translate(1 1) translate(.381 .381)">
                        <mask id="zot84dsw8j" fill="#fff">
                            <use xlink:href="#nbrdezd6oi"/>
                        </mask>
                        <path fill="#00172F" d="M18.81 5.07c-1.561-2.305-4.695-2.908-7-1.346-1.38.935-2.21 2.493-2.214 4.16-5.524.823-8.047 7.766-8.047 7.766 1.142-1.408 2.414-1.098 2.414-1.098-3.165 3.251-2.857 6.286-2.857 6.286.882-1.584 2.244-1.1 6.38-1.98 4.137-.879 5.186-5.01 5.186-5.01.703.879-.176 2.9-.176 2.9 1.143-1.406 1.583-2.706 1.65-3.834 2.771.272 5.238-1.753 5.51-4.524.116-1.171-.183-2.346-.843-3.32h-.003z" mask="url(#zot84dsw8j)"/>
                    </g>
                    <g>
                        <g transform="translate(-40 -162) translate(40 162) translate(1 1)">
                            <mask id="h6ue3iiuvl" fill="#fff">
                                <use xlink:href="#2ueoya76mk"/>
                            </mask>
                            <path fill="#B8873D" d="M11.156 7.82C4.55 7.401 1.55 15.65 1.55 15.65c1.142-1.408 2.414-1.098 2.414-1.098-3.165 3.251-2.857 6.285-2.857 6.285.882-1.583 2.244-1.1 6.38-1.979 4.137-.879 5.186-5.01 5.186-5.01.703.879-.176 2.9-.176 2.9 2.792-3.448 1.412-6.257.535-7.457.197.654.177 1.554-.652 2.578 0 0 .4-.92.08-1.321" mask="url(#h6ue3iiuvl)"/>
                        </g>
                        <g transform="translate(-40 -162) translate(40 162) translate(1 1)">
                            <mask id="wb7hbzb1fn" fill="#fff">
                                <use xlink:href="#fxfe7wyu0m"/>
                            </mask>
                            <path fill="#E1BE86" d="M10.622 9.852c-3.674-.232-5.344 4.355-5.344 4.355.635-.782 1.345-.61 1.345-.61-1.76 1.809-1.59 3.495-1.59 3.495.49-.88 1.247-.612 3.545-1.1 2.298-.489 2.884-2.787 2.884-2.787.391.489-.095 1.613-.095 1.613 1.552-1.918.784-3.48.297-4.147.11.363.348.055-.113.625 0 0-.027.297-.205.074" mask="url(#wb7hbzb1fn)"/>
                        </g>
                    </g>
                    <path fill="#D68B00" d="M9.77 6.587c.725-2.688 3.49-4.28 6.179-3.556 2.688.723 4.28 3.49 3.557 6.178-.724 2.688-3.49 4.28-6.178 3.557-2.689-.724-4.281-3.49-3.557-6.179" transform="translate(-40 -162) translate(40 162) translate(1 1)"/>
                    <g transform="translate(-40 -162) translate(40 162) translate(1 1) translate(9.524 2.762)">
                        <mask id="z765x12urp" fill="#fff">
                            <use xlink:href="#c817e5ifgo"/>
                        </mask>
                        <path fill="#EAD8BF" d="M-.036 3.975C.687 1.287 3.454-.305 6.142.42c2.688.723 4.28 3.49 3.557 6.178-.724 2.688-3.49 4.28-6.178 3.557C.832 9.43-.76 6.664-.036 3.975" mask="url(#z765x12urp)"/>
                    </g>
                    <path fill="#89662D" d="M17.702 5.816l-.022-.03c-1.17-1.679-3.477-2.092-5.156-.923-1.679 1.17-2.092 3.478-.923 5.156 1.158 1.664 3.439 2.087 5.117.95l.037-.027.007.009c1.66-1.147 2.092-3.413.97-5.09-.015-.02-.022-.033-.03-.045" transform="translate(-40 -162) translate(40 162) translate(1 1)"/>
                    <g transform="translate(-40 -162) translate(40 162) translate(1 1) translate(10.857 4.19)">
                        <mask id="k42wkxb0ar" fill="#fff">
                            <use xlink:href="#nteg3bvqdq"/>
                        </mask>
                        <path fill="#C9A060" d="M7.176 1.4l-.022-.03C5.985-.31 3.677-.722 1.998.447.32 1.616-.094 3.924 1.075 5.603c1.159 1.663 3.44 2.087 5.117.95l.038-.028.006.01c1.663-1.149 2.093-3.42.965-5.098L7.176 1.4z" mask="url(#k42wkxb0ar)"/>
                    </g>
                    <path fill="#A25A0E" d="M15.998 7.576c-.124-.068-.26-.112-.402-.127-.156-.016-.314-.012-.47.012-.167.025-.348.06-.542.107-.053.012-.102.023-.149.032-.046.01-.113.02-.162.026-.075.011-.152.011-.227 0-.06-.008-.118-.03-.168-.064-.049-.035-.092-.078-.127-.127-.035-.05-.063-.105-.082-.163-.016-.056-.02-.115-.01-.173.01-.059.034-.114.07-.163.044-.058.098-.108.16-.147h.004c.118-.084.266-.114.406-.081.166.054.308.165.4.314l.681-.462c-.093-.133-.207-.25-.34-.344-.237-.17-.533-.242-.823-.198-.16.02-.314.065-.46.133l-.315-.465-.207.14-.178.121.315.465c-.12.095-.225.208-.31.335-.079.114-.135.24-.167.375-.028.126-.028.256 0 .381.03.136.088.264.17.375.088.128.202.234.335.312.124.068.26.11.401.126.156.015.314.01.47-.016.167-.026.348-.064.541-.114l.025-.006c.09-.024.18-.041.272-.053.075-.01.151-.01.226 0 .063.01.122.033.174.068.054.039.1.087.137.142.036.05.062.106.076.166.014.057.014.116 0 .173-.017.062-.046.12-.087.17-.05.062-.11.114-.176.157l-.049.03c-.05.029-.105.053-.16.072-.074.025-.153.033-.23.025-.084-.01-.164-.039-.234-.085-.091-.062-.17-.141-.232-.232l-.686.465c.105.154.242.284.402.381.136.082.288.134.446.154.154.017.31.007.46-.032.135-.026.265-.07.388-.132l.291.43.18-.118.209-.137-.293-.433c.14-.108.264-.233.372-.372.08-.111.14-.237.172-.371.03-.125.033-.255.007-.381-.03-.138-.09-.268-.174-.381-.086-.126-.199-.233-.33-.31" transform="translate(-40 -162) translate(40 162) translate(1 1)"/>
                </g>
            </g>
        </g>
    </g>
</svg>
