<svg xmlns="http://www.w3.org/2000/svg" xmlns:xlink="http://www.w3.org/1999/xlink" width="24" height="24" viewBox="0 0 24 24">
    <defs>
        <path id="7fbc5sid5a" d="M.085 11.04c0 6.049 4.904 10.997 10.952 10.952 6.133-.047 10.99-4.925 10.953-10.953C21.95 4.992 17.087.09 11.037.087 4.988.087.085 4.991.085 11.039z"/>
        <path id="6bbdvcmt9c" d="M.085 11.04c0 6.049 4.904 10.997 10.952 10.952 6.133-.047 10.99-4.925 10.953-10.953C21.95 4.992 17.087.09 11.037.087 4.988.087.085 4.991.085 11.039z"/>
        <path id="2e9ykaauee" d="M.085 11.04c0 6.049 4.904 10.997 10.952 10.952 6.133-.047 10.99-4.925 10.953-10.953C21.95 4.992 17.087.09 11.037.087 4.988.087.085 4.991.085 11.039z"/>
        <path id="b9qmcgp6bg" d="M.085 11.04c0 6.049 4.904 10.997 10.952 10.952 6.133-.047 10.99-4.925 10.953-10.953C21.95 4.992 17.087.09 11.037.087 4.988.087.085 4.991.085 11.039z"/>
        <path id="8igaluapni" d="M1.53 1.083C-.273 2.64-.472 5.367 1.087 7.172c1.558 1.804 4.284 2.003 6.089.445 1.804-1.559 2.003-4.285.445-6.09C6.766.54 5.562.033 4.35.033c-.999 0-2.003.346-2.82 1.05"/>
        <path id="x4f8clzt2k" d="M3.17.042C1.418.065.017 1.503.04 3.255c.022 1.735 1.436 3.13 3.171 3.13h.04v.009c1.727-.015 3.122-1.416 3.13-3.143v-.078C6.36 1.435 4.945.043 3.212.043H3.17z"/>
        <path id="92q5coibpm" d="M.37 1.978c-.734 1.665.02 3.611 1.686 4.345 1.666.735 3.612-.02 4.346-1.686S6.382 1.025 4.716.29c-.433-.19-.884-.28-1.328-.28C2.12.01.913.743.37 1.977"/>
        <path id="q010ik6yao" d="M1.53.205C.289.705-.312 2.116.188 3.357.683 4.587 2.075 5.189 3.31 4.71l.028-.012v.007c1.225-.488 1.832-1.87 1.361-3.102-.002-.01-.005-.018-.009-.027V1.57l-.01-.023C4.3.603 3.394.029 2.435.029c-.302 0-.608.057-.904.176"/>
        <path id="ttu6hrjfwq" d="M1.86.173C.48.643-.256 2.141.214 3.52.684 4.9 2.182 5.635 3.561 5.165c1.379-.47 2.115-1.968 1.645-3.346C4.833.722 3.808.03 2.71.03c-.282 0-.569.046-.85.142"/>
        <path id="qv8fi7dtes" d="M.015 1.855C-.065 2.913.723 3.839 1.78 3.93h.024v.006c1.052.081 1.974-.697 2.072-1.747l.003-.021v-.006-.019C3.96 1.076 3.159.146 2.091.066 2.042.063 1.994.061 1.945.061.94.06.09.836.015 1.855z"/>
    </defs>
    <g fill="none" fill-rule="evenodd">
        <g>
            <g>
                <path fill="#3B9CFF" d="M20.494 20.471c-4.64 4.697-12.182 4.713-16.967 0-4.72-4.648-4.685-12.275 0-16.959 4.685-4.683 12.281-4.683 16.967 0 4.692 4.684 4.658 12.247 0 16.96" transform="translate(-40 -210) translate(40 210)"/>
                <g>
                    <g>
                        <g transform="translate(-40 -210) translate(40 210) translate(1 1)">
                            <mask id="vxc5hbgk2b" fill="#fff">
                                <use xlink:href="#7fbc5sid5a"/>
                            </mask>
                            <path fill="#FFFFFF" opacity="0.15" d="M-7.429 3.511L-2.754 0.431 15.264 27.777 10.589 30.857z" mask="url(#vxc5hbgk2b)"/>
                        </g>
                        <g transform="translate(-40 -210) translate(40 210) translate(1 1)">
                            <mask id="hnb5znnmed" fill="#fff">
                                <use xlink:href="#6bbdvcmt9c"/>
                            </mask>
                            <path fill="#FFFFFF" opacity="0.3" d="M-2.753 0.431L1.921 -2.649 19.939 24.698 15.264 27.778z" mask="url(#hnb5znnmed)"/>
                        </g>
                        <g transform="translate(-40 -210) translate(40 210) translate(1 1)">
                            <mask id="2mnz2p58uf" fill="#fff">
                                <use xlink:href="#2e9ykaauee"/>
                            </mask>
                            <path fill="#FFFFFF" opacity="0.45" d="M1.921 -2.65L6.596 -5.73 24.614 21.616 19.939 24.696z" mask="url(#2mnz2p58uf)"/>
                        </g>
                        <g transform="translate(-40 -210) translate(40 210) translate(1 1)">
                            <mask id="63jgzpdmwh" fill="#fff">
                                <use xlink:href="#b9qmcgp6bg"/>
                            </mask>
                            <path fill="#FFFFFF" opacity="0.6" d="M6.596 -5.73L11.279 -8.815 29.297 18.531 24.614 21.617z" mask="url(#63jgzpdmwh)"/>
                        </g>
                    </g>
                    <g>
                        <path fill="#3B9CFF" d="M8.098 10.203c1.765-1.597 4.49-1.462 6.088.302 1.597 1.765 1.462 4.49-.303 6.088-1.764 1.597-4.49 1.462-6.087-.303-1.597-1.764-1.462-4.49.302-6.087" transform="translate(-40 -210) translate(40 210) translate(1 1) translate(2.857 2.667)"/>
                        <path fill="#3B9CFF" d="M11.17 7.688l-6.111 3.126c1.568-.924 2.09-2.944 1.167-4.512-.365-.62-.924-1.104-1.59-1.377l8.286 2.678.424-1.313-3.367-1.088c1.393.396 2.844-.413 3.24-1.806.395-1.394-.413-2.844-1.807-3.24-1.393-.396-2.844.413-3.24 1.807-.377 1.329.342 2.723 1.643 3.187L2.578 2.814l-.426 1.31 2 .645C2.382 4.347.604 5.44.182 7.212c-.422 1.77.672 3.548 2.443 3.97.65.155 1.333.108 1.957-.134.046-.018.095-.037.136-.057l-3.186 1.632.356.694 9.637-4.931-.355-.698z" transform="translate(-40 -210) translate(40 210) translate(1 1) translate(2.857 2.667)"/>
                        <path fill="#3B9CFF" d="M7.815 9.845c1.805-1.559 4.53-1.36 6.09.445 1.558 1.804 1.359 4.53-.445 6.089-1.805 1.558-4.531 1.359-6.09-.445-1.558-1.805-1.359-4.531.445-6.09" transform="translate(-40 -210) translate(40 210) translate(1 1) translate(2.857 2.667)"/>
                    </g>
                    <g transform="translate(-40 -210) translate(40 210) translate(1 1) translate(9.143 11.429)">
                        <mask id="2yf25nc1xj" fill="#fff">
                            <use xlink:href="#8igaluapni"/>
                        </mask>
                        <path fill="#00C2FF" d="M1.149 1.083c1.804-1.559 4.53-1.36 6.09.445 1.558 1.804 1.359 4.53-.446 6.09C4.99 9.175 2.263 8.976.704 7.171c-1.559-1.804-1.36-4.53.445-6.089" mask="url(#2yf25nc1xj)"/>
                    </g>
                    <g>
                        <path fill="#00C2FF" d="M.009 9.855L9.645 4.924 10 5.618.364 10.549zM.629 1.362L1.053.05 11.822 3.528 11.399 4.841z" transform="translate(-40 -210) translate(40 210) translate(1 1) translate(4 5.048)"/>
                        <path fill="#00C2FF" d="M12.668 10.728v-.031c-.023-1.752-1.461-3.153-3.213-3.13-1.75.022-3.152 1.46-3.13 3.211.023 1.736 1.436 3.131 3.172 3.13h.04v.01c1.727-.016 3.122-1.416 3.13-3.143v-.047" transform="translate(-40 -210) translate(40 210) translate(1 1) translate(4 5.048)"/>
                    </g>
                    <g transform="translate(-40 -210) translate(40 210) translate(1 1) translate(10.286 12.571)">
                        <mask id="hu46hzji3l" fill="#fff">
                            <use xlink:href="#x4f8clzt2k"/>
                        </mask>
                        <path fill="#00C2FF" d="M6.724 3.204v-.04C6.702 1.41 5.264.008 3.512.03 1.76.053.357 1.491.38 3.243.4 4.98 1.816 6.376 3.552 6.376h.04v.008C5.32 6.37 6.715 4.97 6.724 3.241v-.037z" mask="url(#hu46hzji3l)"/>
                    </g>
                    <g>
                        <path fill="#3B9CFF" d="M12.138 9.253c-.054-.11-.13-.207-.224-.286-.103-.087-.217-.16-.339-.217-.13-.063-.276-.125-.435-.19-.044-.017-.084-.033-.121-.05-.037-.015-.09-.04-.128-.058-.058-.03-.113-.066-.161-.11-.039-.035-.069-.078-.088-.126-.018-.049-.028-.1-.029-.151-.001-.052.006-.105.021-.155.014-.047.039-.089.073-.124.035-.037.079-.064.127-.081.06-.02.122-.03.185-.029.124-.003.243.048.327.139.092.118.139.264.132.414h.706c-.003-.139-.028-.276-.076-.407-.087-.236-.262-.428-.49-.535-.122-.063-.253-.106-.388-.128v-.48h-.4v.48c-.13.01-.259.04-.38.089-.11.045-.212.11-.299.19-.083.076-.148.169-.19.273-.044.11-.064.229-.06.347.001.132.03.262.088.381.054.11.13.207.223.286.104.086.218.158.34.214.144.068.29.128.44.18l.02.008c.075.027.148.059.218.095.059.03.112.066.16.11.041.036.074.081.096.131.02.054.03.11.031.168.002.052-.007.104-.025.153-.018.046-.047.088-.084.121-.042.036-.09.064-.143.08-.065.02-.133.028-.201.027h-.048c-.05-.004-.1-.013-.15-.026-.064-.019-.123-.051-.174-.095-.054-.047-.097-.106-.125-.173-.035-.087-.053-.181-.053-.276H9.81c0 .16.035.319.1.465.058.123.14.233.243.323.1.087.216.154.341.199.108.047.222.08.338.095v.445h.399v-.448c.152-.01.302-.04.446-.088.11-.04.213-.102.301-.18.083-.075.148-.167.19-.27.045-.113.065-.234.06-.355-.002-.13-.032-.258-.089-.375" transform="translate(-40 -210) translate(40 210) translate(1 1) translate(2.476 6.952)"/>
                        <path fill="#3B9CFF" d="M.369 1.978C1.103.313 3.049-.442 4.715.292c1.665.734 2.42 2.68 1.686 4.346-.734 1.665-2.68 2.42-4.346 1.686C.39 5.59-.365 3.644.37 1.978" transform="translate(-40 -210) translate(40 210) translate(1 1) translate(2.476 6.952)"/>
                    </g>
                    <g transform="translate(-40 -210) translate(40 210) translate(1 1) translate(2.476 6.952)">
                        <mask id="ij44w004gn" fill="#fff">
                            <use xlink:href="#92q5coibpm"/>
                        </mask>
                        <path fill="#00C2FF" d="M.098 2.082C.833.417 2.778-.338 4.444.396s2.421 2.68 1.687 4.346c-.735 1.666-2.68 2.42-4.346 1.686S-.635 3.748.098 2.082" mask="url(#ij44w004gn)"/>
                    </g>
                    <path fill="#00C2FF" d="M8.119 9.385V9.38l-.01-.023c-.5-1.24-1.91-1.84-3.15-1.341-1.242.5-1.842 1.91-1.342 3.151.495 1.23 1.886 1.833 3.122 1.353l.028-.011v.007c1.225-.488 1.831-1.87 1.36-3.102l-.008-.028" transform="translate(-40 -210) translate(40 210) translate(1 1)"/>
                    <g transform="translate(-40 -210) translate(40 210) translate(1 1) translate(3.429 7.81)">
                        <mask id="9v1m2rgw6p" fill="#fff">
                            <use xlink:href="#q010ik6yao"/>
                        </mask>
                        <path fill="#3B9CFF" d="M4.935 1.48l-.008-.022C4.427.218 3.017-.384 1.776.116.535.616-.066 2.026.433 3.266.928 4.497 2.32 5.1 3.556 4.62l.028-.011v.007c1.225-.489 1.831-1.87 1.36-3.102-.002-.02-.005-.028-.009-.034" mask="url(#9v1m2rgw6p)"/>
                    </g>
                    <g>
                        <path fill="#00C2FF" d="M2.014 7.968c-.069-.062-.15-.11-.237-.14-.097-.033-.198-.055-.3-.062-.112-.009-.232-.012-.363-.011H1.02c-.039 0-.075 0-.107-.007-.05-.004-.099-.015-.145-.033C.73 7.7.697 7.678.67 7.649.646 7.62.625 7.589.61 7.554c-.015-.037-.025-.076-.028-.116-.003-.037.003-.074.017-.108.016-.037.04-.069.069-.095.036-.031.078-.055.123-.07.087-.038.186-.035.27.007.1.058.173.15.21.258l.501-.19c-.039-.1-.095-.19-.165-.27-.063-.07-.14-.129-.225-.172-.086-.044-.18-.07-.276-.08-.105-.01-.21-.005-.313.018L.66 6.393l-.152.06-.13.05.132.343c-.091.043-.174.1-.247.168-.067.06-.121.134-.161.215-.038.076-.058.16-.06.246.001.09.02.18.055.262.037.094.094.18.168.248.069.062.15.11.237.14.097.031.198.05.3.057.112.009.233.01.364.008h.016c.06-.002.12 0 .18.006.05.004.099.015.145.034.039.015.073.038.102.068.029.033.052.07.068.11.016.037.024.076.024.116 0 .038-.009.076-.026.11-.02.036-.047.069-.08.095-.04.032-.087.057-.136.074-.011.005-.023.009-.034.012-.037.01-.075.019-.114.022-.05.005-.101 0-.15-.017-.051-.018-.098-.048-.136-.088-.048-.054-.085-.116-.11-.184l-.503.195c.045.114.113.217.2.303.076.072.165.128.263.163.096.034.196.05.297.048.09.003.18-.007.267-.028l.123.316.131-.048.154-.058-.123-.319c.102-.048.198-.11.286-.182.067-.059.123-.13.164-.211.038-.076.059-.16.06-.245.001-.092-.018-.184-.055-.268-.035-.093-.091-.177-.164-.246" transform="translate(-40 -210) translate(40 210) translate(1 1) translate(4.762 2.286)"/>
                        <path fill="#00C2FF" d="M7.574.173C8.952-.297 10.45.44 10.92 1.82c.47 1.378-.267 2.877-1.646 3.346-1.378.47-2.877-.266-3.347-1.645-.47-1.379.267-2.877 1.646-3.347" transform="translate(-40 -210) translate(40 210) translate(1 1) translate(4.762 2.286)"/>
                    </g>
                    <g transform="translate(-40 -210) translate(40 210) translate(1 1) translate(10.476 2.286)">
                        <mask id="7r4mxtlqnr" fill="#fff">
                            <use xlink:href="#ttu6hrjfwq"/>
                        </mask>
                        <path fill="#3B9CFF" d="M1.628.154c1.379-.47 2.877.266 3.347 1.645.47 1.379-.267 2.877-1.645 3.347C1.95 5.616.453 4.879-.017 3.5-.487 2.122.25.623 1.628.154" mask="url(#7r4mxtlqnr)"/>
                    </g>
                    <path fill="#00C2FF" d="M15.118 5.12v-.005-.02c.08-1.067-.721-1.997-1.788-2.076-1.068-.08-1.998.72-2.077 1.788-.08 1.059.708 1.984 1.766 2.075h.024v.006c1.052.081 1.974-.696 2.072-1.747l.003-.02z" transform="translate(-40 -210) translate(40 210) translate(1 1)"/>
                    <g transform="translate(-40 -210) translate(40 210) translate(1 1) translate(11.238 2.952)">
                        <mask id="g7jvzp4xet" fill="#fff">
                            <use xlink:href="#qv8fi7dtes"/>
                        </mask>
                        <path fill="#00C2FF" d="M4.089 2.186v-.02c.08-1.067-.722-1.997-1.79-2.077C1.234.01.304.81.224 1.878.144 2.936.931 3.86 1.988 3.953h.024v.004c1.053.082 1.977-.697 2.074-1.748l.003-.023z" mask="url(#g7jvzp4xet)"/>
                    </g>
                    <path fill="#3B9CFF" d="M13.846 5.273c-.028-.069-.07-.132-.121-.184-.057-.058-.121-.109-.19-.15-.077-.045-.163-.096-.256-.137l-.071-.035-.075-.043c-.035-.02-.067-.046-.095-.075-.021-.024-.037-.052-.047-.082-.008-.031-.011-.063-.01-.095.003-.033.01-.065.022-.095.011-.028.028-.052.05-.072.024-.02.053-.035.083-.043.037-.01.076-.011.113-.006.076.004.145.041.191.1.05.077.07.169.058.26l.43.038c.005-.085-.003-.17-.025-.253-.02-.073-.055-.142-.101-.202-.046-.059-.102-.109-.167-.147-.07-.044-.148-.076-.23-.095l.025-.293-.13-.011-.111-.01-.026.293c-.08-.002-.16.01-.236.033-.069.02-.134.052-.19.095-.055.042-.099.095-.13.156-.032.065-.05.136-.054.209-.006.08.005.16.034.236.027.069.068.131.12.183.059.058.125.108.196.149.084.048.17.093.258.133l.012.006c.044.02.087.042.128.067.035.02.067.046.095.075.023.025.04.054.049.085.01.034.013.069.01.104 0 .033-.009.066-.024.095-.013.028-.032.052-.057.07-.028.02-.06.034-.095.04-.04.01-.082.011-.124.006h-.028c-.03-.005-.06-.013-.09-.023-.038-.015-.073-.037-.102-.066-.03-.032-.053-.07-.066-.112-.017-.055-.023-.113-.018-.171l-.43-.037c-.007.097.005.194.037.286.029.078.073.15.132.21.056.058.123.105.196.14.063.033.131.058.202.073l-.026.264.111.012.13.013.025-.272c.092.002.183-.008.273-.029.069-.02.133-.052.19-.095.054-.042.098-.094.129-.154.033-.066.052-.139.055-.213.007-.078-.003-.157-.03-.231" transform="translate(-40 -210) translate(40 210) translate(1 1)"/>
                </g>
            </g>
        </g>
    </g>
</svg>
