<svg xmlns="http://www.w3.org/2000/svg" xmlns:xlink="http://www.w3.org/1999/xlink" width="24" height="24" viewBox="0 0 24 24">
    <defs>
        <path id="wj2py7aqha" d="M.021 11.022c0 6.048 4.903 10.951 10.951 10.951 6.049 0 10.952-4.903 10.952-10.951C21.924 4.974 17.02.07 10.972.07 4.924.07.021 4.974.021 11.022z"/>
        <path id="34uu33fx9c" d="M.021 11.022c0 6.048 4.903 10.951 10.951 10.951 6.049 0 10.952-4.903 10.952-10.951C21.924 4.974 17.02.07 10.972.07 4.924.07.021 4.974.021 11.022z"/>
        <path id="xdcm0j1ome" d="M.021 11.022c0 6.048 4.903 10.951 10.951 10.951 6.049 0 10.952-4.903 10.952-10.951C21.924 4.974 17.02.07 10.972.07 4.924.07.021 4.974.021 11.022z"/>
        <path id="tglek11jig" d="M.021 11.022c0 6.048 4.903 10.951 10.951 10.951 6.049 0 10.952-4.903 10.952-10.951C21.924 4.974 17.02.07 10.972.07 4.924.07.021 4.974.021 11.022z"/>
        <path id="2w3ehshs4i" d="M.021 11.022c0 6.048 4.903 10.951 10.951 10.951 6.049 0 10.952-4.903 10.952-10.951C21.924 4.974 17.02.07 10.972.07 4.924.07.021 4.974.021 11.022z"/>
        <path id="06umx7c0ok" d="M.021 11.022c0 6.048 4.903 10.951 10.951 10.951 6.049 0 10.952-4.903 10.952-10.951C21.924 4.974 17.02.07 10.972.07 4.924.07.021 4.974.021 11.022z"/>
        <path id="z0zyg3f6bm" d="M3.75.174c-.02.028-.032.061-.032.096v2.033c-.817.619-1.46 1.44-1.865 2.38-.129.305-.232.619-.308.94H.597c-.303 0-.55.244-.552.547v1.574c.002.303.249.548.552.548h.947c.137.578.362 1.13.666 1.64.451.75 1.062 1.39 1.788 1.878l1.042 1.893c.092.189.283.309.493.31h.972c.165-.001.298-.137.297-.303 0-.026-.004-.052-.012-.078l-.103-.857c.203.021.407.032.612.032h1.69c.209 0 .418-.011.626-.034l-.105.857c-.044.16.049.326.208.37.026.007.052.011.078.011h.972c.21-.001.401-.121.494-.31l1.048-1.91c.938-.635 1.674-1.525 2.122-2.564.708-1.651.607-3.537-.273-5.103l-.005.002c-1.049-1.87-3.025-3.027-5.168-3.028h-1.69c-.604 0-1.204.094-1.78.277C5.158.744 4.576.328 4.17.104 4.118.074 4.06.06 4.004.06c-.095 0-.188.04-.254.114z"/>
        <path id="wda4avtilo" d="M.32 1.816l-.309 1.76.533 3.17S4.3 6.13 6.989 8.737L9.23 4.562l-.924-2.746-3.42-1.73"/>
        <path id="i296j4d6hq" d="M1.295.916C.098 1.95-.256 3.596.295 4.99c.97-.068 3.45-.052 5.513 1.582.075-.055.148-.114.22-.175 1.513-1.307 1.68-3.593.373-5.106C5.685.46 4.676.036 3.661.036c-.84 0-1.681.29-2.366.88"/>
        <path id="f3ftoo83ms" d="M.32 1.816l-.309 1.76.533 3.17S4.3 6.13 6.989 8.737L9.23 4.562l-.924-2.746-3.42-1.73L.32 1.816z"/>
        <path id="3vmqt0gr6u" d="M2.676.041C1.207.06.032 1.265.05 2.734c.006.472.134.914.354 1.295.98.052 2.316.28 3.595 1.011.814-.449 1.366-1.313 1.37-2.307v-.065C5.352 1.21 4.165.04 2.71.04h-.034"/>
        <path id="q23ioa32lw" d="M.32 1.816l-.309 1.76.533 3.17S4.3 6.13 6.989 8.737L9.23 4.562l-.924-2.746-3.42-1.73"/>
    </defs>
    <g fill="none" fill-rule="evenodd">
        <g>
            <g>
                <path fill="#3B9CFF" d="M24 12c.041 6.608-5.281 11.949-12 12-6.627.049-12-5.373-12-12S5.373 0 12 0s11.958 5.373 12 12" transform="translate(-40 -458) translate(40 458)"/>
                <g>
                    <g>
                        <g transform="translate(-40 -458) translate(40 458) translate(1 .995)">
                            <mask id="f1vvsp4zdb" fill="#fff">
                                <use xlink:href="#wj2py7aqha"/>
                            </mask>
                            <path fill="#FFFFFF" opacity="0.9" d="M20.25 1.776L27.2 -5.01 29.802 -2.346 25.58 1.776 31.167 7.23 25.58 12.685 31.167 18.139 25.58 23.593 29.802 27.716 27.2 30.381 20.25 23.593 25.835 18.139 20.25 12.685 25.835 7.23z" mask="url(#f1vvsp4zdb)"/>
                        </g>
                        <g transform="translate(-40 -458) translate(40 458) translate(1 .995)">
                            <mask id="6jpgt06i8d" fill="#fff">
                                <use xlink:href="#34uu33fx9c"/>
                            </mask>
                            <path fill="#FFFFFF" opacity="0.6" d="M14.918 1.776L21.869 -5.01 24.471 -2.346 20.249 1.776 25.835 7.23 20.249 12.685 25.835 18.139 20.249 23.593 24.471 27.716 21.869 30.381 14.919 23.593 20.505 18.139 14.919 12.685 20.505 7.23z" mask="url(#6jpgt06i8d)"/>
                        </g>
                        <g transform="translate(-40 -458) translate(40 458) translate(1 .995)">
                            <mask id="h77l9gxfwf" fill="#fff">
                                <use xlink:href="#xdcm0j1ome"/>
                            </mask>
                            <path fill="#FFFFFF" opacity="0.45" d="M9.648 1.776L16.599 -5.01 19.2 -2.346 14.979 1.776 20.565 7.23 14.979 12.685 20.565 18.139 14.979 23.593 19.2 27.716 16.598 30.381 9.648 23.593 15.234 18.139 9.648 12.685 15.234 7.23z" mask="url(#h77l9gxfwf)"/>
                        </g>
                        <g transform="translate(-40 -458) translate(40 458) translate(1 .995)">
                            <mask id="f43rvtp65h" fill="#fff">
                                <use xlink:href="#tglek11jig"/>
                            </mask>
                            <path fill="#FFFFFF" opacity="0.3" d="M4.315 1.776L11.267 -5.01 13.869 -2.346 9.647 1.776 15.232 7.23 9.647 12.685 15.232 18.139 9.647 23.593 13.869 27.716 11.267 30.381 4.316 23.593 9.902 18.139 4.316 12.685 9.902 7.23z" mask="url(#f43rvtp65h)"/>
                        </g>
                        <g transform="translate(-40 -458) translate(40 458) translate(1 .995)">
                            <mask id="mhne29ryoj" fill="#fff">
                                <use xlink:href="#2w3ehshs4i"/>
                            </mask>
                            <path fill="#FFFFFF" opacity="0.24" d="M-1.015 1.776L5.936 -5.01 8.537 -2.346 4.316 1.776 9.902 7.23 4.315 12.685 9.902 18.139 4.315 23.593 8.537 27.716 5.935 30.381 -1.015 23.593 4.571 18.139 -1.015 12.685 4.571 7.23z" mask="url(#mhne29ryoj)"/>
                        </g>
                        <g transform="translate(-40 -458) translate(40 458) translate(1 .995)">
                            <mask id="y9xfcq6bhl" fill="#fff">
                                <use xlink:href="#06umx7c0ok"/>
                            </mask>
                            <path fill="#FFFFFF" opacity="0.09" d="M-6.286 1.776L0.665 -5.01 3.267 -2.346 -0.954 1.776 4.631 7.23 -0.955 12.685 4.631 18.139 -0.955 23.593 3.267 27.716 0.665 30.381 -6.286 23.593 -0.699 18.139 -6.286 12.685 -0.699 7.23z" mask="url(#y9xfcq6bhl)"/>
                        </g>
                    </g>
                    <g>
                        <path fill="#3B9CFF" d="M14.535 7.078c-.268-.476-.6-.914-.988-1.299 1.17-1.62.804-3.883-.817-5.053-.615-.444-1.355-.684-2.115-.684h-.319c-1.999 0-3.619 1.62-3.619 3.619 0 .16.011.318.033.476-.275.044-.547.108-.813.19-.357-.627-.94-1.04-1.346-1.267-.139-.079-.314-.05-.42.07-.02.028-.03.062-.031.096v2.03c-.817.619-1.46 1.44-1.865 2.381-.13.304-.232.619-.308.94H.974c-.303 0-.55.244-.552.548v1.573c.002.304.249.548.552.548h.952c.136.577.361 1.13.666 1.639.45.75 1.061 1.392 1.788 1.88l1.041 1.89c.092.19.284.31.494.312h.972c.166-.003.299-.14.296-.306 0-.025-.004-.05-.01-.075l-.104-.857c.203.02.407.031.612.031H9.37c.209 0 .418-.011.626-.033l-.104.857c-.044.16.049.325.208.37.026.007.052.01.078.01h.972c.21 0 .401-.122.493-.31l1.047-1.911c.939-.634 1.675-1.524 2.123-2.564.708-1.651.606-3.537-.274-5.103l-.004.002z" transform="translate(-40 -458) translate(40 458) translate(1 .995) translate(2.952 2.286)"/>
                        <path fill="#00C2FF" d="M14.154 6.697C13.105 4.828 11.13 3.671 8.986 3.67h-1.69c-.604 0-1.204.094-1.78.277-.358-.632-.94-1.048-1.346-1.272-.139-.078-.314-.049-.42.07-.02.028-.032.062-.032.096v2.033c-.817.62-1.46 1.44-1.865 2.381-.129.304-.232.618-.308.94H.597c-.303-.001-.55.243-.552.547v1.573c.002.304.249.549.552.549h.947c.137.577.362 1.13.666 1.639.451.75 1.062 1.391 1.788 1.879l1.042 1.892c.092.19.283.31.493.31h.972c.165-.001.298-.137.297-.302 0-.027-.004-.053-.012-.078l-.103-.857c.203.02.407.031.612.031h1.69c.209 0 .418-.011.626-.033l-.105.857c-.044.16.049.325.208.37.026.007.052.01.078.01h.972c.21 0 .401-.12.494-.31l1.048-1.91c.938-.634 1.674-1.524 2.122-2.564.708-1.65.607-3.537-.273-5.103l-.005.002z" transform="translate(-40 -458) translate(40 458) translate(1 .995) translate(2.952 2.286)"/>
                    </g>
                    <g transform="translate(-40 -458) translate(40 458) translate(1 .995) translate(2.952 4.857)">
                        <mask id="zinafd951n" fill="#fff">
                            <use xlink:href="#z0zyg3f6bm"/>
                        </mask>
                        <path fill="#FFFFFF" opacity="0.3" d="M-0.465 14.122L15.593 14.122 15.593 6.431 -0.465 6.431z" mask="url(#zinafd951n)"/>
                    </g>
                    <g transform="translate(-40 -458) translate(40 458) translate(1 .995) translate(8.857 .19)">
                        <mask id="aji4ldlqqp" fill="#fff">
                            <use xlink:href="#wda4avtilo"/>
                        </mask>
                        <path fill="#FFFFFF" opacity="0.3" d="M1.963 2.632c1.513-1.307 3.799-1.14 5.106.373s1.14 3.799-.373 5.106-3.8 1.14-5.106-.373c-1.307-1.513-1.14-3.8.373-5.106" mask="url(#aji4ldlqqp)"/>
                    </g>
                    <g transform="translate(-40 -458) translate(40 458) translate(1 .995) translate(9.524 1.905)">
                        <mask id="muqjas3air" fill="#fff">
                            <use xlink:href="#i296j4d6hq"/>
                        </mask>
                        <path fill="#00C2FF" opacity="1" d="M.977.917c1.513-1.306 3.799-1.14 5.106.374 1.306 1.513 1.14 3.799-.374 5.105C4.196 7.703 1.91 7.536.604 6.023-.703 4.51-.536 2.224.977.917" mask="url(#muqjas3air)"/>
                    </g>
                    <g transform="translate(-40 -458) translate(40 458) translate(1 .995) translate(8.857 .19)">
                        <mask id="y1er06avut" fill="#fff">
                            <use xlink:href="#f3ftoo83ms"/>
                        </mask>
                        <path fill="#FFFFFF" opacity="0.15" d="M6.989 5.368v-.034C6.97 3.865 5.764 2.69 4.296 2.708 2.826 2.726 1.65 3.932 1.669 5.4c.018 1.456 1.204 2.627 2.66 2.627h.034v.007C5.812 8.023 6.98 6.85 6.989 5.4v-.032z" mask="url(#y1er06avut)"/>
                    </g>
                    <g transform="translate(-40 -458) translate(40 458) translate(1 .995) translate(10.476 2.857)">
                        <mask id="ikjr4ef86v" fill="#fff">
                            <use xlink:href="#3vmqt0gr6u"/>
                        </mask>
                        <path fill="#FFFFFF" opacity="0.3" d="M5.658 2.701v-.033C5.64 1.198 4.434.023 2.965.04 1.496.06.32 1.265.338 2.734.357 4.191 1.543 5.361 3 5.361h.032v.008C4.48 5.356 5.65 4.182 5.658 2.733v-.032" mask="url(#ikjr4ef86v)"/>
                    </g>
                    <g transform="translate(-40 -458) translate(40 458) translate(1 .995) translate(8.857 .19)">
                        <mask id="dqaxt6hgsx" fill="#fff">
                            <use xlink:href="#q23ioa32lw"/>
                        </mask>
                        <path fill="#3B9CFF" opacity="0.9" d="M5.268 5.728c-.048-.091-.113-.172-.19-.238-.088-.072-.184-.133-.287-.18-.109-.054-.231-.105-.364-.157-.038-.013-.07-.026-.102-.04-.032-.013-.075-.034-.107-.05-.05-.025-.095-.057-.135-.095-.032-.03-.057-.066-.074-.106-.015-.04-.023-.084-.023-.127-.002-.044.003-.088.017-.13.012-.039.032-.075.06-.104.03-.03.067-.053.107-.068.05-.017.102-.025.155-.023.104-.003.204.04.274.116.077.098.116.221.11.346h.592c-.002-.116-.024-.231-.064-.34-.036-.098-.09-.188-.16-.265-.072-.076-.156-.139-.25-.185-.102-.052-.212-.088-.326-.106v-.4h-.334v.404c-.11.008-.218.032-.32.073-.092.037-.177.09-.25.157-.069.063-.122.141-.158.228-.036.093-.053.192-.048.292 0 .11.024.219.072.319.047.09.112.17.19.236.087.072.183.132.286.18.11.052.233.102.369.151l.016.006c.062.022.123.048.183.077.049.025.094.057.134.095.033.031.06.069.077.11.02.044.032.09.036.138.002.044-.005.088-.022.128-.014.04-.039.075-.07.102-.035.03-.076.053-.12.067-.054.016-.111.024-.168.022h-.04c-.043-.003-.085-.01-.125-.022-.114-.031-.207-.113-.252-.222-.029-.073-.044-.152-.044-.231h-.591c0 .134.028.267.084.39.048.103.118.195.203.27.085.073.182.13.286.167.092.04.188.065.286.078v.373H4.515V6.79c.126-.007.25-.031.37-.071.093-.034.178-.085.25-.151.07-.063.124-.14.16-.226.037-.095.054-.196.05-.297-.003-.11-.029-.22-.077-.318" mask="url(#dqaxt6hgsx)"/>
                    </g>
                    <path fill="#3B9CFF" opacity="0.9" d="M6.097 9.525c-.002-.192.151-.349.343-.35.191-.003.348.15.35.342.003.192-.151.349-.342.35h-.004c-.19.002-.346-.152-.347-.342" transform="translate(-40 -458) translate(40 458) translate(1 .995)"/>
                </g>
            </g>
        </g>
    </g>
</svg>
