<svg xmlns="http://www.w3.org/2000/svg" xmlns:xlink="http://www.w3.org/1999/xlink" width="24" height="24" viewBox="0 0 24 24">
    <defs>
        <path id="eyrmle6qsa" d="M22 11c.038 6.057-4.841 10.953-11 11-6.075.045-11-4.925-11-11S4.925 0 11 0 21.96 4.925 22 11"/>
        <path id="swotrbvrpc" d="M6.63 8.535c-.016.771.043 1.537.125 2.298l-1.116 1.082s-1.959 1.539-.858 4.657c0 0 .02.056.059.145.066.16.25.236.41.169.091-.038.16-.117.184-.213.102-.423.328-.805.65-1.098.248-.215.653-.58 1.056-.94l.149 1.77h5.52l.155-1.79c.405.38.819.743 1.07.96.32.293.545.675.647 1.097.042.169.213.27.381.228.096-.025.175-.093.213-.184.038-.089.059-.145.059-.145 1.1-3.117-.858-4.655-.858-4.656l-1.113-1.085c.085-.774.146-1.549.128-2.328-1.065-.34-2.2-.523-3.379-.523-1.216 0-2.386.195-3.481.556z"/>
        <path id="3f6rwi66xe" d="M-.999 19.08c0 6.131 4.975 11.102 11.111 11.102 6.137 0 11.111-4.97 11.111-11.102 0-6.13-4.974-11.1-11.11-11.1C3.975 7.98-1 12.95-1 19.08z"/>
        <path id="rsyx987eeg" d="M7.289 16.476L8.558 16.478 8.369 17.468 10.166 17.477 11.964 17.468 11.775 16.483 12.849 16.484 12.93 14.999 7.166 14.962z"/>
        <path id="6fio2kwawi" d="M.054 11.148c0 6.131 4.975 11.102 11.11 11.102 6.137 0 11.112-4.97 11.112-11.102 0-6.13-4.975-11.1-11.111-11.1-6.136 0-11.11 4.97-11.11 11.1z"/>
        <path id="v9je5oinzk" d="M.054 11.148c0 6.131 4.975 11.102 11.11 11.102 6.137 0 11.112-4.97 11.112-11.102 0-6.13-4.975-11.1-11.111-11.1-6.136 0-11.11 4.97-11.11 11.1z"/>
    </defs>
    <g fill="none" fill-rule="evenodd">
        <g>
            <g>
                <path fill="#3B9CFF" d="M20.494 20.471c-4.64 4.697-12.182 4.713-16.967 0-4.72-4.648-4.685-12.275 0-16.959 4.685-4.683 12.281-4.683 16.967 0 4.691 4.684 4.658 12.247 0 16.96" transform="translate(-40 -606) translate(40 606)"/>
                <g transform="translate(-40 -606) translate(40 606) translate(1 1)">
                    <mask id="dzaofk29fb" fill="#fff">
                        <use xlink:href="#eyrmle6qsa"/>
                    </mask>
                    <use fill="#3B9CFF" xlink:href="#eyrmle6qsa"/>
                    <g mask="url(#dzaofk29fb)">
                        <g>
                            <path fill="#FFFFFF" opacity="0.45" d="M28.858 3.548L30.565 4.989 16.267 27.704 12.951 24.241z" transform="translate(-7.333 -1.833)"/>
                            <path fill="#FFFFFF" opacity="0.6" d="M30.185 4.617L31.167 5.344 19.517 31.167 16.16 27.704z" transform="translate(-7.333 -1.833)"/>
                            <path fill="#FFFFFF" opacity="0.45" d="M27.704 2.65L26.227 1.154 3.463 14.903 6.987 18.469z" transform="translate(-7.333 -1.833)"/>
                            <path fill="#FFFFFF" opacity="0.3" d="M26.549 1.43L25.095 0 0 11.615 3.444 15.006z" transform="translate(-7.333 -1.833)"/>
                            <path fill="#FFFFFF" opacity="0.15" d="M28.858 3.548L28.358 3.053 28.106 2.804 27.606 2.309 6.926 18.364 9.184 20.767 10.124 21.67 12.951 24.241z" transform="translate(-7.333 -1.833)"/>
                        </g>
                    </g>
                    <g mask="url(#dzaofk29fb)">
                        <g transform="translate(.917 -8.25)">
                            <path fill="#3B9CFF" d="M14.862 12.301l-1.113-1.085c.121-1.097.193-2.193.061-3.305-.235-1.896-.864-3.722-1.844-5.361-.37-.622-.913-1.388-1.442-1.787-.623.502-1.157 1.104-1.58 1.782-.984 1.637-1.616 3.461-1.856 5.356-.135 1.117-.065 2.222.052 3.319l-1.115 1.081s-1.958 1.54-.858 4.657c0 0 .021.057.059.145.067.16.25.236.41.17.092-.038.16-.117.184-.213.102-.423.329-.806.65-1.099.249-.214.654-.58 1.057-.94l.028.327.122 1.514h1.27l-.193.99 1.797.01 1.797-.01-.193-.985h1.073l.08-1.465c.012-.132.024-.353.035-.483.408.367.82.735 1.071.952.36.318.549.815.646 1.186.043.168.214.27.382.227.096-.024.175-.092.213-.183l.059-.145c1.107-3.116-.852-4.654-.852-4.655"/>
                            <path fill="#FBD13E" d="M14.476 11.915l-1.113-1.085c.12-1.097.193-2.194.06-3.306-.235-1.896-.863-3.721-1.844-5.36-.37-.623-.912-1.388-1.442-1.787-.622.501-1.156 1.103-1.58 1.782-.983 1.637-1.616 3.46-1.856 5.355-.135 1.117-.064 2.223.054 3.32l-1.116 1.08s-1.959 1.54-.858 4.658c0 0 .02.056.059.145.066.16.25.236.41.169.091-.038.16-.117.184-.213.102-.423.328-.805.65-1.098.248-.215.653-.58 1.056-.94l.149 1.77h5.52l.155-1.79c.405.38.819.743 1.07.96.32.293.545.675.647 1.097.042.169.213.27.381.228.096-.025.175-.093.213-.184.038-.089.059-.145.059-.145 1.1-3.117-.858-4.655-.858-4.656"/>
                            <mask id="yznwycx33d" fill="#fff">
                                <use xlink:href="#swotrbvrpc"/>
                            </mask>
                            <path fill="#FBD13E" d="M10.054 0L10.049 14.98 12.929 14.98 14.006 5.051 14.006 2.939 11.743 0.769z" mask="url(#yznwycx33d)"/>
                            <mask id="bfebw2vq0f" fill="#fff">
                                <use xlink:href="#3f6rwi66xe"/>
                            </mask>
                            <path fill="#FBD13E" d="M12.93 14.999L7.166 14.961 7.289 16.476 8.559 16.478 8.369 17.468 10.165 17.477 11.963 17.468 11.774 16.483 12.849 16.484z" mask="url(#bfebw2vq0f)"/>
                            <mask id="oezdofuh6h" fill="#fff">
                                <use xlink:href="#rsyx987eeg"/>
                            </mask>
                            <path fill="#FBD13E" d="M10.049 17.592L13.364 17.592 13.364 14.961 10.049 14.961z" mask="url(#oezdofuh6h)"/>
                            <g mask="url(#oezdofuh6h)">
                                <g transform="translate(-1.053 7.932)">
                                    <mask id="bmxoxo2qsj" fill="#fff">
                                        <use xlink:href="#6fio2kwawi"/>
                                    </mask>
                                    <path fill="#FBD13E" d="M14.415 2.898L14.016 6.691 15.087 7.643 15.528 3.983z" mask="url(#bmxoxo2qsj)"/>
                                </g>
                            </g>
                            <g mask="url(#oezdofuh6h)">
                                <g transform="translate(-1.053 7.932)">
                                    <mask id="ugaqct3jzl" fill="#fff">
                                        <use xlink:href="#v9je5oinzk"/>
                                    </mask>
                                    <path fill="#FBD13E" d="M7.801 2.898L8.201 6.691 7.13 7.643 6.688 3.983z" mask="url(#ugaqct3jzl)"/>
                                </g>
                            </g>
                            <path fill="#FBD13E" d="M19.01 27.628c.037.006-.064-.605-.087-.686-.105-.381-.277-.709-.61-.927-.512-.335-1.063.05-1.52-.203-.31-.174-.366-.565-.798-.667-.729-.173-1.13.386-1.559.874-.063-.176-.116-.387-.251-.526-.193-.202-.556-.114-.69-.244-.06-.06-.077-.304-.102-.396-.081-.29-.15-.58-.223-.864l-.646-2.512c-.339-1.322-.68-2.645-1.022-3.97 0-.013-.007-.027-.01-.04H8.616c0 .013-.007.027-.011.04l-1.021 3.97-.647 2.513c-.074.29-.142.58-.222.864-.026.096-.043.336-.103.396-.135.13-.498.042-.69.244-.135.141-.188.35-.252.526-.429-.483-.829-1.047-1.557-.874-.433.102-.49.493-.8.667-.451.253-1.006-.132-1.518.203-.335.218-.506.546-.612.927-.022.08-.123.692-.086.686-1.774.337-.466 3.131-.466 3.131h18.841s1.311-2.795-.463-3.132"/>
                            <path fill="#FBD13E" d="M16.375 28.09c-.773-.113-1.458.367-1.458.367.034-.6-.517-1.063-.517-1.063-.85-.633-1.528.347-1.528.347l-2-10.264H9.229L7.272 27.504c-.264-.243-.753-.535-1.32-.114 0 0-.551.467-.517 1.063 0 0-.683-.483-1.457-.366L2.696 29.42l3.812 1.343.337-.278 2.381 1.902h1.643l2.512-2.006.462.382 3.807-1.34-1.275-1.332z"/>
                            <path fill="#FFFFFF" d="M9.719 17.472L8.524 23.522 9.289 22.525 10.053 27.575 10.053 27.576 10.053 27.575 10.819 22.525 11.584 23.522 10.389 17.472z"/>
                            <path fill="#FBD13E" d="M13.878 8.908l-.01-.28-.38-.126.006.29.384.116z"/>
                        </g>
                    </g>
                </g>
            </g>
        </g>
    </g>
</svg>
