<?xml version="1.0" encoding="UTF-8"?>
<!DOCTYPE svg PUBLIC "-//W3C//DTD SVG 1.1//EN" "http://www.w3.org/Graphics/SVG/1.1/DTD/svg11.dtd">
<!-- Creator: CorelDRAW 2018 (64-Bit Evaluation Version) -->
<svg xmlns="http://www.w3.org/2000/svg" xml:space="preserve" width="80.4616mm" height="47.9052mm" version="1.1" style="shape-rendering:geometricPrecision; text-rendering:geometricPrecision; image-rendering:optimizeQuality; fill-rule:evenodd; clip-rule:evenodd"
viewBox="0 0 9516.83 5666.13"
 xmlns:xlink="http://www.w3.org/1999/xlink">
 <defs>
  <style type="text/css">
   <![CDATA[
    .fil1 {fill:#1D9CD3;fill-rule:nonzero}
    .fil0 {fill:#006648;fill-rule:nonzero}
    .fil2 {fill:#FBD13D;fill-rule:nonzero}
    .fil3 {fill:#5AEEBC;fill-rule:nonzero}
   ]]>
  </style>
 </defs>
 <g id="Layer_x0020_1">
  <metadata id="CorelCorpID_0Corel-Layer"/>
  <g id="_1852490027088">
   <g>
    <path class="fil0" d="M4125.08 3765.33l57.79 -91.09 57.79 36.68 156.32 332.08 -115.58 54.41 -156.32 -332.08zm0 0l-42.88 -91.09 100.67 0 -57.79 91.09zm1191.98 -91.13l56.35 93.97 -56.35 33.79 -1134.19 0.05 0 -127.76 1134.19 -0.05zm0 0l106.53 0 -50.19 93.97 -56.35 -93.97zm-122.06 428.09l-56.51 33.79 -56.18 -93.97 178.41 -334.12 112.7 60.18 -178.41 334.12zm0 0l-18.1 33.89 -38.42 -0.09 56.51 -33.79zm-855.98 31.79l-57.62 -36.68 57.96 -91.09 799.46 2 -0.33 127.76 -799.46 -2zm0 0l-40.4 -0.11 -17.22 -36.57 57.62 36.68z"/>
   </g>
   <g>
    <path class="fil0" d="M6070.81 3034.45l-460.1 -577.5 99.92 -79.6 460.1 577.5 11.69 56.55 -111.61 23.05zm99.92 -79.6l20.17 25.31 -8.48 31.24 -11.69 -56.55zm-413.93 1135.93l302.32 -1112.88 123.29 33.5 -302.32 1112.88 -112.02 22.53 -11.27 -56.03zm123.29 33.5l-33.48 123.26 -78.54 -100.73 112.02 -22.53zm-451.96 -621.18l440.69 565.16 -100.75 78.56 -440.69 -565.16 -9.28 -62.1 110.03 -16.46zm-100.75 78.56l-22.17 -28.42 12.88 -33.67 9.28 62.1zm383.24 -1204.31l-99.92 79.6 113.83 -38.62 -1.11 38.55 -1.89 38.38 -2.63 38.18 -3.36 38 -4.05 37.8 -4.71 37.64 -5.37 37.43 -5.96 37.25 -6.55 37.06 -7.11 36.9 -7.65 36.73 -8.14 36.51 -8.62 36.36 -9.08 36.17 -9.5 36.02 -9.9 35.84 -10.28 35.66 -10.61 35.51 -10.94 35.34 -11.24 35.18 -11.51 35.02 -11.74 34.88 -11.97 34.69 -12.15 34.56 -12.31 34.4 -12.47 34.27 -12.57 34.11 -12.66 33.97 -12.74 33.83 -12.75 33.69 -12.79 33.54 -12.77 33.41 -119.32 -45.63 12.73 -33.32 12.71 -33.38 12.68 -33.45 12.6 -33.5 12.51 -33.57 12.41 -33.64 12.25 -33.7 12.08 -33.76 11.91 -33.85 11.69 -33.91 11.46 -33.98 11.18 -34.05 10.91 -34.13 10.59 -34.21 10.25 -34.3 9.9 -34.38 9.52 -34.44 9.12 -34.55 8.68 -34.63 8.24 -34.7 7.76 -34.81 7.27 -34.88 6.73 -34.99 6.2 -35.09 5.65 -35.19 5.04 -35.26 4.42 -35.39 3.81 -35.48 3.15 -35.59 2.46 -35.7 1.75 -35.83 1.04 -35.94 113.83 -38.62zm-113.83 38.62l3.28 -177.38 110.55 138.76 -113.83 38.62z"/>
   </g>
   <g>
    <path class="fil0" d="M3317.68 2978.4l465.06 -609.62 101.58 77.5 -465.06 609.62 -112.01 -20.51 10.43 -56.99zm-10.43 56.99l-9.27 -31.14 19.71 -25.84 -10.43 56.99zm320.77 1076.8l-320.77 -1076.8 122.44 -36.48 320.77 1076.8 -11.22 57.99 -111.22 -21.51zm111.22 21.51l-76.24 95.9 -34.97 -117.41 111.22 21.51zm436.13 -548.57l-436.13 548.57 -99.99 -79.51 436.13 -548.57 109.84 17.42 -9.85 62.08zm9.85 -62.08l12.62 33.82 -22.47 28.27 9.85 -62.08zm-300.9 -1076.77l-101.58 -77.5 114.65 37 1.28 33.89 2 33.95 2.67 34 3.34 34.09 3.97 34.13 4.59 34.19 5.2 34.27 5.78 34.32 6.35 34.43 6.87 34.45 7.42 34.53 7.91 34.61 8.4 34.68 8.84 34.75 9.28 34.81 9.7 34.86 10.1 34.95 10.48 35.03 10.81 35.07 11.15 35.14 11.47 35.22 11.74 35.28 12.01 35.35 12.27 35.41 12.49 35.5 12.67 35.55 12.87 35.64 13.01 35.7 13.14 35.74 13.26 35.84 13.34 35.91 13.41 35.97 -119.7 44.66 -13.44 -36.06 -13.41 -36.05 -13.33 -36.05 -13.26 -36.05 -13.13 -36.05 -13.01 -36.04 -12.86 -36.05 -12.68 -36.04 -12.48 -36.07 -12.27 -36.06 -12.01 -36.06 -11.73 -36.07 -11.46 -36.09 -11.14 -36.11 -10.79 -36.1 -10.46 -36.13 -10.05 -36.16 -9.64 -36.16 -9.21 -36.19 -8.75 -36.19 -8.29 -36.22 -7.77 -36.28 -7.25 -36.28 -6.68 -36.3 -6.14 -36.33 -5.51 -36.37 -4.9 -36.39 -4.23 -36.43 -3.57 -36.45 -2.86 -36.49 -2.14 -36.52 -1.4 -36.56 114.65 37zm-101.58 -77.5l109.68 -143.77 4.97 180.76 -114.65 -37z"/>
   </g>
   <g>
    <path class="fil0" d="M4125.22 3481.47l0.31 127.76 -58.3 -37.28 -48.65 -111.35 -43.98 -111.71 -39.34 -112.06 -34.73 -112.32 -30.13 -112.57 -25.56 -112.74 -20.99 -112.9 -16.5 -112.97 -11.97 -113.03 -7.51 -113.01 -3.06 -112.97 1.35 -112.86 5.75 -112.72 10.11 -112.52 14.43 -112.28 18.72 -112 23.02 -111.64 27.23 -111.28 31.44 -110.85 35.6 -110.38 39.74 -109.88 43.83 -109.31 47.91 -108.73 51.95 -108.09 55.95 -107.43 59.93 -106.71 63.86 -105.97 67.79 -105.18 71.64 -104.33 75.5 -103.48 79.31 -102.59 83.1 -101.64 97.98 82.11 -80.93 98.99 -77.15 99.8 -73.37 100.57 -69.56 101.31 -65.73 101.99 -61.85 102.63 -57.99 103.26 -54.08 103.81 -50.15 104.36 -46.19 104.83 -42.23 105.29 -38.23 105.72 -34.23 106.1 -30.18 106.43 -26.12 106.73 -22.05 107.01 -17.94 107.24 -13.81 107.46 -9.66 107.64 -5.49 107.77 -1.3 107.87 2.92 107.98 7.18 108.02 11.45 108.04 15.77 108.02 20.1 108 24.47 107.92 28.85 107.81 33.28 107.68 37.75 107.51 42.25 107.31 46.78 107.09 -58.3 -37.28zm0.31 127.76l-41.16 0.09 -17.14 -37.38 58.3 37.28zm1252.39 -2.97l-1252.39 2.97 -0.31 -127.76 1252.39 -2.97 57.38 92.42 -57.07 35.34zm57.07 -35.34l-17.62 35.25 -39.45 0.09 57.07 -35.34zm-644.03 -3434.35l-97.98 -82.11 95.1 -3.22 76.27 81.98 73.88 85.05 71.4 88 68.79 90.83 66.06 93.51 63.21 96.08 60.23 98.53 57.12 100.84 53.91 103.03 50.54 105.11 47.07 107.03 43.48 108.87 39.74 110.54 35.89 112.12 31.91 113.56 27.8 114.87 23.55 116.07 19.17 117.11 14.69 118.04 10.04 118.85 5.3 119.51 0.39 120.05 -4.62 120.45 -9.78 120.73 -15.07 120.86 -20.47 120.86 -26.02 120.69 -31.67 120.43 -37.47 120.02 -43.4 119.45 -49.42 118.73 -55.58 117.9 -114.45 -57.08 53.07 -112.58 47.17 -113.31 41.39 -113.94 35.74 -114.46 30.21 -114.85 24.81 -115.13 19.53 -115.3 14.38 -115.34 9.33 -115.29 4.44 -115.08 -0.39 -114.78 -5.06 -114.35 -9.62 -113.78 -14.08 -113.1 -18.39 -112.3 -22.6 -111.36 -26.68 -110.31 -30.66 -109.11 -34.51 -107.79 -38.23 -106.33 -41.82 -104.76 -45.32 -103.06 -48.67 -101.21 -51.92 -99.22 -55.03 -97.15 -58 -94.91 -60.87 -92.53 -63.62 -90.06 -66.21 -87.42 -68.71 -84.69 -71.06 -81.79 -73.28 -78.78 95.1 -3.22zm-97.98 -82.11l45.75 -54.47 49.35 51.25 -95.1 3.22z"/>
   </g>
   <g>
    <polygon class="fil0" points="5299.78,938.88 4217.27,936.56 4217.55,808.8 5300.07,811.11 "/>
   </g>
   <g>
    <path class="fil0" d="M5084.75 2349.18l-127.76 0 0 0 -0.26 -10.24 -0.77 -10.04 -1.27 -9.86 -1.76 -9.73 -2.21 -9.55 -2.68 -9.36 -3.13 -9.18 -3.55 -8.95 -3.97 -8.72 -4.4 -8.53 -4.8 -8.28 -5.2 -8.03 -5.57 -7.78 -5.94 -7.5 -6.29 -7.2 -6.61 -6.88 -6.95 -6.58 -7.3 -6.27 -7.57 -5.9 -7.83 -5.52 -8.13 -5.17 -8.4 -4.78 -8.63 -4.4 -8.85 -3.96 -9.07 -3.55 -9.32 -3.12 -9.49 -2.68 -9.66 -2.21 -9.89 -1.75 -10.03 -1.27 -10.2 -0.77 -10.41 -0.26 0 -127.76 16.77 0.43 16.61 1.24 16.39 2.07 16.13 2.86 15.88 3.63 15.57 4.39 15.21 5.11 14.91 5.82 14.55 6.54 14.12 7.17 13.72 7.83 13.31 8.46 12.87 9.07 12.37 9.66 11.86 10.2 11.4 10.76 10.87 11.31 10.29 11.79 9.75 12.3 9.14 12.75 8.54 13.21 7.92 13.67 7.26 14.06 6.6 14.47 5.89 14.84 5.17 15.16 4.44 15.51 3.68 15.79 2.9 16.07 2.09 16.35 1.27 16.55 0.43 16.72 0 0zm-327.91 325.8l0 -127.76 0 0 10.41 -0.26 10.2 -0.77 10.03 -1.27 9.89 -1.75 9.66 -2.21 9.49 -2.68 9.32 -3.12 9.07 -3.55 8.85 -3.96 8.63 -4.4 8.4 -4.78 8.13 -5.17 7.83 -5.52 7.57 -5.9 7.3 -6.27 6.95 -6.58 6.61 -6.88 6.29 -7.2 5.94 -7.5 5.57 -7.78 5.2 -8.03 4.8 -8.28 4.4 -8.53 3.97 -8.72 3.55 -8.95 3.13 -9.18 2.68 -9.36 2.21 -9.55 1.76 -9.73 1.27 -9.86 0.77 -10.04 0.26 -10.24 127.76 0 -0.43 16.72 -1.27 16.55 -2.09 16.35 -2.9 16.07 -3.68 15.79 -4.44 15.51 -5.17 15.16 -5.89 14.84 -6.6 14.47 -7.26 14.06 -7.92 13.67 -8.54 13.21 -9.14 12.75 -9.75 12.3 -10.29 11.79 -10.87 11.31 -11.4 10.76 -11.86 10.2 -12.37 9.66 -12.87 9.07 -13.31 8.46 -13.72 7.83 -14.12 7.17 -14.55 6.54 -14.91 5.82 -15.21 5.11 -15.57 4.39 -15.88 3.63 -16.13 2.86 -16.39 2.07 -16.61 1.24 -16.77 0.43 0 0zm-327.93 -325.8l127.76 0 0 0 0.26 10.24 0.77 10.04 1.27 9.86 1.76 9.73 2.21 9.55 2.68 9.36 3.13 9.18 3.55 8.95 3.97 8.72 4.4 8.53 4.8 8.28 5.2 8.03 5.57 7.78 5.94 7.5 6.27 7.18 6.65 6.91 6.97 6.59 7.27 6.26 7.55 5.89 7.87 5.54 8.13 5.17 8.37 4.78 8.65 4.39 8.87 3.99 9.05 3.54 9.32 3.12 9.5 2.68 9.68 2.21 9.86 1.75 10.04 1.27 10.2 0.77 10.41 0.26 0 127.76 -16.77 -0.43 -16.61 -1.24 -16.41 -2.07 -16.13 -2.86 -15.87 -3.63 -15.55 -4.39 -15.23 -5.11 -14.91 -5.83 -14.52 -6.52 -14.13 -7.18 -13.74 -7.83 -13.28 -8.46 -12.86 -9.06 -12.4 -9.68 -11.89 -10.21 -11.37 -10.75 -10.86 -11.28 -10.31 -11.82 -9.75 -12.3 -9.14 -12.75 -8.54 -13.21 -7.92 -13.67 -7.26 -14.06 -6.6 -14.47 -5.89 -14.84 -5.17 -15.16 -4.44 -15.51 -3.68 -15.79 -2.9 -16.07 -2.09 -16.35 -1.27 -16.55 -0.43 -16.72 0 0zm327.93 -325.8l0 127.76 0 0 -10.41 0.26 -10.2 0.77 -10.04 1.27 -9.86 1.75 -9.68 2.21 -9.5 2.68 -9.32 3.12 -9.05 3.54 -8.87 3.99 -8.65 4.39 -8.37 4.78 -8.13 5.17 -7.87 5.54 -7.55 5.89 -7.27 6.26 -6.97 6.59 -6.65 6.91 -6.27 7.18 -5.94 7.5 -5.57 7.78 -5.2 8.03 -4.8 8.28 -4.4 8.53 -3.97 8.72 -3.55 8.95 -3.13 9.18 -2.68 9.36 -2.21 9.55 -1.76 9.73 -1.27 9.86 -0.77 10.04 -0.26 10.24 -127.76 0 0.43 -16.72 1.27 -16.55 2.09 -16.35 2.9 -16.07 3.68 -15.79 4.44 -15.51 5.17 -15.16 5.89 -14.84 6.6 -14.47 7.26 -14.06 7.92 -13.67 8.54 -13.21 9.14 -12.75 9.75 -12.3 10.31 -11.82 10.86 -11.28 11.37 -10.75 11.89 -10.21 12.4 -9.68 12.86 -9.06 13.28 -8.46 13.74 -7.83 14.13 -7.18 14.52 -6.52 14.91 -5.83 15.23 -5.11 15.55 -4.39 15.87 -3.63 16.13 -2.86 16.41 -2.07 16.61 -1.24 16.77 -0.43 0 0z"/>
   </g>
   <g>
    <path class="fil0" d="M5367.96 2349.16l-127.76 0 0 0 -0.63 -24.52 -1.87 -24.15 -3.05 -23.79 -4.23 -23.38 -5.38 -22.98 -6.48 -22.54 -7.56 -22.06 -8.62 -21.57 -9.64 -21.05 -10.65 -20.51 -11.6 -19.92 -12.56 -19.31 -13.45 -18.69 -14.34 -17.99 -15.18 -17.3 -15.99 -16.56 -16.8 -15.79 -17.54 -15.01 -18.27 -14.16 -18.95 -13.31 -19.63 -12.42 -20.24 -11.48 -20.84 -10.54 -21.42 -9.56 -21.95 -8.54 -22.46 -7.5 -22.95 -6.43 -23.41 -5.33 -23.83 -4.2 -24.24 -3.04 -24.63 -1.86 -24.98 -0.62 0 -127.98 31.34 0.78 30.97 2.33 30.53 3.82 30.08 5.31 29.53 6.73 29 8.11 28.37 9.49 27.75 10.79 27.07 12.09 26.35 13.31 25.58 14.54 24.79 15.68 23.94 16.81 23.08 17.9 22.18 18.96 21.22 19.95 20.25 20.96 19.22 21.89 18.17 22.82 17.04 23.68 15.92 24.5 14.75 25.34 13.53 26.07 12.27 26.78 10.99 27.49 9.64 28.14 8.26 28.72 6.85 29.27 5.39 29.82 3.9 30.27 2.37 30.7 0.79 31.07 0 0zm-611.12 604.1l0 -127.98 0 0 24.98 -0.62 24.63 -1.86 24.24 -3.04 23.83 -4.2 23.41 -5.33 22.95 -6.43 22.46 -7.5 21.95 -8.54 21.42 -9.56 20.84 -10.54 20.24 -11.48 19.63 -12.42 18.95 -13.31 18.27 -14.16 17.54 -15.01 16.78 -15.79 16 -16.57 15.18 -17.29 14.34 -18 13.45 -18.68 12.56 -19.33 11.6 -19.92 10.65 -20.5 9.64 -21.07 8.62 -21.56 7.56 -22.06 6.48 -22.54 5.38 -22.99 4.23 -23.37 3.05 -23.8 1.87 -24.15 0.63 -24.52 127.76 0 -0.79 31.07 -2.37 30.7 -3.9 30.28 -5.39 29.81 -6.85 29.29 -8.26 28.72 -9.64 28.14 -10.99 27.48 -12.27 26.79 -13.53 26.08 -14.75 25.31 -15.92 24.51 -17.04 23.67 -18.17 22.83 -19.22 21.88 -20.24 20.95 -21.23 19.98 -22.18 18.96 -23.08 17.9 -23.94 16.81 -24.79 15.68 -25.58 14.54 -26.35 13.31 -27.07 12.09 -27.75 10.79 -28.37 9.49 -29 8.11 -29.53 6.73 -30.08 5.31 -30.53 3.82 -30.97 2.33 -31.34 0.78 0 0zm-611.13 -604.1l127.76 0 0 0 0.63 24.52 1.87 24.15 3.05 23.8 4.23 23.37 5.38 22.99 6.48 22.54 7.56 22.06 8.62 21.56 9.64 21.07 10.65 20.5 11.6 19.92 12.55 19.33 13.47 18.68 14.32 18.01 15.18 17.28 16 16.57 16.78 15.79 17.54 15.01 18.26 14.15 18.97 13.32 19.62 12.42 20.24 11.48 20.85 10.54 21.41 9.56 21.95 8.54 22.46 7.5 22.96 6.43 23.41 5.33 23.83 4.2 24.24 3.04 24.63 1.86 24.98 0.62 0 127.98 -31.34 -0.78 -30.97 -2.33 -30.53 -3.82 -30.08 -5.31 -29.53 -6.73 -28.99 -8.11 -28.4 -9.49 -27.75 -10.79 -27.06 -12.09 -26.34 -13.31 -25.61 -14.54 -24.78 -15.68 -23.94 -16.8 -23.09 -17.91 -22.18 -18.96 -21.23 -19.98 -20.24 -20.95 -19.22 -21.89 -18.16 -22.82 -17.04 -23.67 -15.93 -24.51 -14.75 -25.31 -13.53 -26.08 -12.27 -26.79 -10.99 -27.48 -9.64 -28.14 -8.26 -28.72 -6.85 -29.29 -5.39 -29.81 -3.9 -30.28 -2.37 -30.7 -0.79 -31.07 0 0zm611.13 -604.09l0 127.98 0 0 -24.98 0.62 -24.63 1.86 -24.24 3.04 -23.83 4.2 -23.41 5.33 -22.96 6.43 -22.46 7.5 -21.95 8.54 -21.41 9.56 -20.85 10.54 -20.24 11.48 -19.62 12.42 -18.97 13.32 -18.26 14.15 -17.54 15.01 -16.8 15.79 -15.99 16.56 -15.18 17.29 -14.32 18 -13.47 18.69 -12.55 19.31 -11.6 19.92 -10.65 20.51 -9.64 21.05 -8.62 21.57 -7.56 22.06 -6.48 22.54 -5.38 22.98 -4.23 23.38 -3.05 23.79 -1.87 24.15 -0.63 24.52 -127.76 0 0.79 -31.07 2.37 -30.7 3.9 -30.27 5.39 -29.82 6.85 -29.27 8.26 -28.72 9.64 -28.14 10.99 -27.49 12.27 -26.78 13.53 -26.07 14.75 -25.34 15.93 -24.5 17.04 -23.68 18.16 -22.8 19.22 -21.91 20.25 -20.96 21.22 -19.95 22.18 -18.96 23.09 -17.91 23.94 -16.8 24.78 -15.68 25.61 -14.54 26.34 -13.31 27.06 -12.09 27.75 -10.79 28.4 -9.49 28.99 -8.11 29.53 -6.73 30.08 -5.31 30.53 -3.82 30.97 -2.33 31.34 -0.78 0 0z"/>
   </g>
   <g>
    <path class="fil1" d="M4052.53 4625.67l126.68 16.65 -74.63 54.55 -25.05 -3.52 -24.68 -1.58 -24.32 0.28 -23.9 2.07 -23.43 3.78 -22.85 5.46 -22.26 7.07 -21.57 8.6 -20.79 10.08 -19.95 11.5 -19.02 12.83 -17.99 14.09 -16.9 15.31 -15.73 16.43 -14.48 17.48 -13.15 18.46 -11.74 19.35 -10.28 20.2 -8.75 20.98 -7.14 21.69 -5.48 22.38 -3.76 23.03 -1.96 23.61 -0.06 24.19 1.9 24.76 3.99 25.29 6.17 25.83 8.49 26.3 10.92 26.77 13.51 27.18 16.23 27.55 19.1 27.89 -102.95 75.65 -23.9 -34.89 -20.75 -35.23 -17.62 -35.46 -14.54 -35.59 -11.47 -35.6 -8.49 -35.48 -5.57 -35.27 -2.68 -34.88 0.08 -34.38 2.79 -33.76 5.37 -32.96 7.87 -32.1 10.24 -31.08 12.49 -29.97 14.63 -28.77 16.67 -27.46 18.57 -26.06 20.37 -24.6 22.07 -23.05 23.64 -21.41 25.16 -19.72 26.54 -17.9 27.81 -16.01 29.03 -14.08 30.11 -12.01 31.08 -9.86 32.01 -7.64 32.75 -5.3 33.39 -2.9 33.95 -0.38 34.34 2.2 34.58 4.87 -74.63 54.55zm126.68 16.65l-8.73 66.39 -65.9 -11.84 74.63 -54.55zm470.31 -140.03l-113.33 58.97 -9.2 -16.17 -9.91 -14.6 -10.56 -13.15 -11.12 -11.77 -11.64 -10.46 -12.11 -9.2 -12.5 -7.96 -12.87 -6.78 -13.24 -5.63 -13.5 -4.51 -13.73 -3.38 -13.87 -2.26 -13.99 -1.15 -14.05 -0.06 -14 1.06 -13.93 2.15 -13.78 3.23 -13.53 4.32 -13.21 5.39 -12.88 6.47 -12.42 7.52 -11.92 8.6 -11.41 9.68 -10.8 10.76 -10.14 11.86 -9.41 13 -8.63 14.17 -7.78 15.39 -6.84 16.63 -5.82 17.93 -4.7 19.27 -3.47 20.69 -126.68 -16.65 4.98 -29.65 6.92 -28.42 8.8 -27.13 10.6 -25.76 12.3 -24.33 13.91 -22.83 15.4 -21.28 16.78 -19.65 18.04 -17.98 19.15 -16.28 20.2 -14.56 21.1 -12.77 21.85 -10.99 22.51 -9.18 23.04 -7.35 23.45 -5.52 23.77 -3.67 23.99 -1.8 24.08 0.08 24.07 1.98 23.93 3.91 23.67 5.82 23.29 7.77 22.79 9.72 22.17 11.67 21.4 13.64 20.49 15.57 19.44 17.46 18.26 19.34 16.97 21.17 15.59 22.97 14.05 24.66z"/>
   </g>
   <g>
    <path class="fil1" d="M5389.49 4489.8l-17.53 126.56 -53.91 -50.94 -4.42 -19.65 -5.29 -18.53 -6.06 -17.42 -6.75 -16.26 -7.4 -15.14 -7.95 -13.98 -8.43 -12.81 -8.82 -11.64 -9.17 -10.47 -9.39 -9.3 -9.55 -8.14 -9.65 -6.99 -9.69 -5.89 -9.64 -4.79 -9.6 -3.77 -9.49 -2.77 -9.41 -1.81 -9.36 -0.89 -9.27 0.02 -9.32 0.96 -9.41 1.9 -9.52 2.93 -9.71 4.05 -9.91 5.26 -10.08 6.59 -10.25 8.05 -10.36 9.64 -10.41 11.32 -10.34 13.07 -10.2 14.91 -9.97 16.85 -9.64 18.84 -115.39 -54.83 13.07 -25.56 14.09 -23.81 15.07 -22.06 16.06 -20.28 16.98 -18.46 17.91 -16.64 18.79 -14.77 19.59 -12.81 20.32 -10.8 20.92 -8.71 21.4 -6.58 21.72 -4.41 21.86 -2.24 21.86 -0.07 21.61 2.05 21.29 4.08 20.79 6.06 20.18 7.91 19.5 9.69 18.72 11.38 17.88 12.95 17.02 14.48 16.06 15.9 15.1 17.28 14.1 18.57 13.07 19.86 11.97 21.05 10.86 22.21 9.71 23.36 8.49 24.42 7.25 25.49 5.96 26.46 -53.91 -50.94zm-17.53 126.56l-45.11 -6.25 -8.8 -44.7 53.91 50.94zm371.81 315.97l-10.62 127.31 -58.54 -65.85 0.43 -22.02 -0.25 -21.25 -0.91 -20.49 -1.58 -19.73 -2.22 -18.98 -2.85 -18.23 -3.48 -17.46 -4.07 -16.71 -4.66 -15.94 -5.23 -15.23 -5.81 -14.52 -6.36 -13.84 -6.92 -13.19 -7.46 -12.54 -8.02 -11.93 -8.59 -11.35 -9.18 -10.8 -9.78 -10.29 -10.42 -9.79 -11.08 -9.31 -11.78 -8.85 -12.49 -8.36 -13.25 -7.89 -14.08 -7.46 -14.83 -6.97 -15.67 -6.47 -16.51 -5.98 -17.35 -5.45 -18.25 -4.92 -19.14 -4.4 -19.98 -3.82 -20.88 -3.24 17.53 -126.56 25.13 3.9 24.47 4.7 23.75 5.44 23.12 6.25 22.46 7.06 21.76 7.88 21.09 8.72 20.37 9.57 19.61 10.4 18.9 11.27 18.12 12.15 17.32 12.99 16.5 13.85 15.62 14.69 14.75 15.49 13.84 16.31 12.92 17.08 11.97 17.8 11.01 18.5 10.07 19.17 9.11 19.82 8.17 20.44 7.24 21.03 6.32 21.62 5.39 22.15 4.52 22.71 3.63 23.24 2.79 23.76 1.94 24.32 1.12 24.84 0.3 25.35 -0.5 25.88 -58.54 -65.85zm-10.62 127.31l-60.62 -5.06 2.08 -60.78 58.54 65.85zm153.89 541.44l-75.7 -102.93 19.73 -15.42 18.13 -16.04 16.61 -16.57 15.06 -17.02 13.54 -17.39 12.03 -17.66 10.54 -17.86 9.06 -17.98 7.63 -18.03 6.17 -17.93 4.75 -17.82 3.37 -17.62 2 -17.29 0.66 -16.95 -0.63 -16.54 -1.92 -16.04 -3.16 -15.52 -4.39 -14.95 -5.59 -14.35 -6.81 -13.77 -8.04 -13.14 -9.31 -12.51 -10.61 -11.86 -11.99 -11.2 -13.45 -10.49 -15 -9.73 -16.61 -8.87 -18.31 -7.94 -20.13 -6.88 -21.93 -5.72 -23.83 -4.42 -25.77 -2.99 10.62 -127.31 34.08 3.96 32.59 6.03 31.01 8.09 29.38 10.08 27.75 12.01 26.02 13.91 24.2 15.7 22.3 17.4 20.34 18.98 18.3 20.45 16.19 21.79 14.03 22.91 11.85 23.92 9.66 24.76 7.46 25.43 5.29 25.95 3.15 26.35 1.03 26.61 -1.04 26.77 -3.11 26.83 -5.12 26.73 -7.1 26.6 -9.06 26.35 -10.99 26 -12.89 25.57 -14.8 25.07 -16.67 24.45 -18.49 23.75 -20.33 22.98 -22.14 22.11 -23.93 21.15 -25.69 20.08z"/>
   </g>
   <g>
    <path class="fil1" d="M4708.33 5365.91l126.77 -15.85 -118.81 39.68 -3.31 -5.25 -3.54 -4.7 -3.81 -4.27 -4.07 -3.87 -4.39 -3.54 -4.77 -3.26 -5.1 -2.95 -5.49 -2.65 -5.91 -2.37 -6.29 -2.05 -6.61 -1.69 -6.97 -1.32 -7.26 -0.95 -7.53 -0.56 -7.75 -0.17 -7.83 0.25 -7.97 0.67 -8.05 1.06 -7.98 1.45 -7.92 1.87 -7.83 2.22 -7.66 2.6 -7.39 2.9 -7.14 3.24 -6.8 3.5 -6.4 3.75 -6.04 3.99 -5.57 4.14 -5.05 4.25 -4.57 4.34 -4.01 4.38 -3.51 4.4 -102.69 -76.03 9.17 -11.5 9.88 -10.74 10.48 -10.02 11.04 -9.28 11.51 -8.56 11.91 -7.87 12.36 -7.23 12.69 -6.53 12.99 -5.89 13.31 -5.24 13.51 -4.57 13.74 -3.93 13.96 -3.26 14.16 -2.59 14.21 -1.89 14.36 -1.19 14.5 -0.46 14.49 0.31 14.51 1.08 14.52 1.92 14.47 2.77 14.39 3.68 14.22 4.62 14 5.61 13.77 6.67 13.38 7.75 12.88 8.82 12.36 9.97 11.64 11.08 10.83 12.15 9.95 13.21 8.92 14.19 -118.81 39.68zm126.77 -15.85l39.5 316.06 -158.31 -276.38 118.81 -39.68zm512.72 -194.89l-104.56 73.43 -15.71 -20.71 -16.18 -18.27 -16.61 -16.03 -16.94 -13.89 -17.17 -11.85 -17.4 -9.96 -17.51 -8.14 -17.64 -6.43 -17.68 -4.8 -17.67 -3.23 -17.62 -1.7 -17.52 -0.24 -17.38 1.19 -17.11 2.57 -16.76 3.93 -16.33 5.23 -15.85 6.49 -15.22 7.69 -14.51 8.85 -13.74 9.96 -12.86 11 -11.92 11.99 -10.87 12.93 -9.77 13.81 -8.62 14.7 -7.38 15.52 -6.08 16.33 -4.72 17.17 -3.28 18 -1.74 18.89 -0.08 19.74 1.7 20.71 -126.77 15.85 -2.6 -31.47 0.13 -30.86 2.76 -30.05 5.29 -29.12 7.7 -28.06 10.01 -26.88 12.16 -25.55 14.13 -24.14 16.01 -22.66 17.73 -21.07 19.28 -19.42 20.71 -17.72 22.02 -15.97 23.22 -14.15 24.26 -12.25 25.19 -10.33 26.03 -8.33 26.74 -6.25 27.29 -4.1 27.74 -1.9 28.07 0.38 28.27 2.74 28.27 5.17 28.14 7.64 27.83 10.17 27.37 12.73 26.74 15.33 25.95 17.91 25 20.51 23.94 23.08 22.73 25.68 21.38 28.21z"/>
   </g>
   <g>
    <g>
     <path class="fil2" d="M2535.91 1154.01l-2.13 -271.5 127.76 -0.99 2.13 271.5 -63.78 64.38 -63.99 -63.39zm127.76 -0.99l0.51 64.27 -64.28 0.11 63.78 -64.38zm-731.55 -62.32l667.56 -1.06 0.21 127.76 -667.56 1.06 -56.17 -94.5 55.96 -33.26zm-55.96 33.26l18.13 -33.2 37.83 -0.06 -55.96 33.26zm-239.55 438.66l239.55 -438.66 112.13 61.24 -239.55 438.66 -112.13 -61.24z"/>
    </g>
    <g>
     <path class="fil3" d="M941.55 2822.93l614.31 -1111.53 111.82 61.79 -614.31 1111.53 -111.74 0.15 -0.08 -61.94zm0.08 61.94l-17.21 -30.95 17.13 -30.99 0.08 61.94zm948.62 1705.63l-948.62 -1705.63 111.65 -62.1 948.62 1705.63 -55.83 94.93 -55.83 -32.83zm55.83 32.83l-37.57 0 -18.26 -32.83 55.83 32.83zm657.98 0l-657.98 0 0 -127.76 657.98 0 63.86 65.45 -63.86 62.31zm0 -127.76l65.47 0 -1.61 65.45 -63.86 -65.45zm-70.25 322.09l6.39 -259.79 127.72 3.15 -6.39 259.79 -127.72 -3.15z"/>
    </g>
    <g>
     <polygon class="fil2" points="2166.31,2915.56 633.15,2911.3 633.51,2783.54 2166.66,2787.8 "/>
    </g>
    <g>
     <polygon class="fil2" points="2108.99,3207.8 2103.67,2537.04 2231.43,2536.02 2236.75,3206.79 "/>
    </g>
    <g>
     <path class="fil2" d="M2531.24 4966.12l-136.29 221.45 -108.82 -66.97 136.29 -221.45 55.5 -30.39 53.32 97.35zm-108.82 -66.97l19.08 -31.01 36.42 0.63 -55.5 30.39zm302.45 101.61l-249.13 -4.26 2.18 -127.74 249.13 4.26 54.31 32.05 -56.49 95.69zm2.18 -127.74l36.26 0.62 18.05 31.44 -54.31 -32.05zm67.02 310.75l-123.51 -215.06 110.8 -63.63 123.51 215.06 -0.67 64.76 -110.13 -1.12zm110.8 -63.63l18.7 32.56 -19.37 32.2 0.67 -64.76zm-248.54 228.86l138.41 -229.98 109.45 65.88 -138.41 229.98 -55.37 30.94 -54.09 -96.82zm109.45 65.88l-18.84 31.31 -36.52 -0.37 55.37 -30.94zm-269.15 -98.96l215.06 2.14 -1.28 127.76 -215.06 -2.14 -51.97 -27.65 53.25 -100.11zm-1.28 127.76l-33.15 -0.33 -18.82 -27.32 51.97 27.65zm-102.2 -325.82l155.45 225.71 -105.22 72.46 -155.45 -225.71 -1.8 -69.71 107.02 -2.74zm-105.22 72.46l-23.61 -34.28 21.81 -35.44 1.8 69.71z"/>
    </g>
    <g>
     <path class="fil2" d="M2530.18 361.36l-136.29 221.45 -108.82 -66.97 136.29 -221.45 55.5 -30.39 53.32 97.35zm-108.82 -66.97l19.08 -31.01 36.42 0.63 -55.5 30.39zm302.45 101.61l-249.13 -4.26 2.18 -127.74 249.13 4.26 54.31 32.05 -56.49 95.69zm2.18 -127.74l36.26 0.62 18.05 31.44 -54.31 -32.05zm67.02 310.75l-123.51 -215.06 110.8 -63.63 123.51 215.06 -0.67 64.76 -110.13 -1.12zm110.8 -63.63l18.7 32.56 -19.37 32.2 0.67 -64.76zm-248.54 228.86l138.41 -229.98 109.45 65.88 -138.41 229.98 -55.37 30.94 -54.09 -96.82zm109.45 65.88l-18.84 31.31 -36.52 -0.37 55.37 -30.94zm-269.15 -98.96l215.06 2.14 -1.28 127.76 -215.06 -2.14 -51.97 -27.65 53.25 -100.11zm-1.28 127.76l-33.15 -0.33 -18.82 -27.32 51.97 27.65zm-102.2 -325.82l155.45 225.71 -105.22 72.46 -155.45 -225.71 -1.8 -69.71 107.02 -2.74zm-105.22 72.46l-23.61 -34.28 21.81 -35.44 1.8 69.71z"/>
    </g>
    <g>
     <path class="fil2" d="M324.89 2660.07l-227.84 136.27 -65.57 -109.64 227.84 -136.27 66.69 0.67 -1.11 108.97zm-65.57 -109.64l33.56 -20.07 33.13 20.75 -66.69 -0.67zm226.74 251.64l-227.85 -142.67 67.8 -108.3 227.85 142.67 29.97 55.41 -97.77 52.88zm67.8 -108.3l30.69 19.22 -0.72 36.19 -29.97 -55.41zm-102.03 267.95l4.26 -215.06 127.74 2.53 -4.26 215.06 -28.8 52.13 -98.94 -54.66zm127.74 2.53l-0.66 33.65 -28.14 18.48 28.8 -52.13zm-316.13 88.01l217.19 -142.67 70.14 106.78 -217.19 142.67 -71.29 -0.77 1.15 -106.01zm70.14 106.78l-35.9 23.58 -35.39 -24.35 71.29 0.77zm-230.96 -265.72l232.11 159.71 -72.43 105.24 -232.11 -159.71 -27.67 -51.96 100.1 -53.28zm-72.43 105.24l-27.32 -18.79 -0.34 -33.17 27.67 51.96zm97.97 -257.7l2.13 204.42 -127.76 1.32 -2.13 -204.42 31.1 -55.48 96.67 54.16zm-127.76 1.32l-0.38 -36.65 31.47 -18.83 -31.1 55.48z"/>
    </g>
   </g>
   <g>
    <g>
     <path class="fil2" d="M6980.93 1177.49l-63.99 63.39 -63.78 -64.38 2.12 -271.5 127.76 0.99 -2.12 271.5zm-63.99 63.39l-64.27 -0.11 0.5 -64.27 63.78 64.38zm667.77 -126.7l55.96 33.27 -56.17 94.49 -667.56 -1.06 0.21 -127.76 667.56 1.06zm0 0l37.83 0.06 18.13 33.21 -55.96 -33.27zm295.49 471.93l-112.13 61.22 -239.54 -438.66 112.13 -61.22 239.54 438.66z"/>
    </g>
    <g>
     <path class="fil3" d="M8575.29 2846.39l-0.08 61.95 -111.74 -0.14 -614.32 -1111.53 111.82 -61.81 614.32 1111.53zm0 0l17.14 31 -17.22 30.95 0.08 -61.95zm-948.72 1767.58l-55.83 32.83 -55.83 -94.93 948.64 -1705.63 111.65 62.1 -948.64 1705.63zm0 0l-18.26 32.83 -37.57 0 55.83 -32.83zm-713.8 32.83l-63.86 -62.31 63.86 -65.45 657.97 0 0 127.76 -657.97 0zm-63.86 -62.31l-1.61 -65.45 65.47 0 -63.86 65.45zm134.1 256.63l-127.72 3.15 -6.39 -259.77 127.72 -3.15 6.39 259.77z"/>
    </g>
    <g>
     <polygon class="fil2" points="7350.53,2939.04 7350.18,2811.28 8883.33,2807.02 8883.69,2934.78 "/>
    </g>
    <g>
     <polygon class="fil2" points="7407.84,3231.27 7280.07,3230.25 7285.41,2559.5 7413.17,2560.51 "/>
    </g>
    <g>
     <path class="fil2" d="M6985.6 4989.6l53.32 -97.35 55.5 30.39 136.28 221.45 -108.82 66.97 -136.28 -221.45zm53.32 -97.35l36.42 -0.63 19.08 31.01 -55.5 -30.39zm-246.95 132l-56.49 -95.69 54.31 -32.05 249.13 -4.26 2.18 127.74 -249.13 4.26zm-56.49 -95.69l18.05 -31.44 36.26 -0.62 -54.31 32.05zm-12.7 278.7l-110.13 1.12 -0.67 -64.76 123.51 -215.06 110.8 63.63 -123.51 215.06zm-110.13 1.12l-19.37 -32.2 18.7 -32.56 0.67 64.76zm247.86 164.09l-54.1 96.82 -55.35 -30.94 -138.41 -229.97 109.45 -65.88 138.41 229.97zm-54.1 96.82l-36.51 0.37 -18.84 -31.31 55.35 30.94zm213.81 -129.89l53.24 100.11 -51.98 27.65 -215.06 2.13 -1.25 -127.76 215.06 -2.13zm53.24 100.11l-18.82 27.32 -33.17 0.33 51.98 -27.65zm50.22 -298.17l107.02 2.74 -1.8 69.71 -155.44 225.71 -105.22 -72.46 155.44 -225.71zm107.02 2.74l21.81 35.44 -23.61 34.28 1.8 -69.71z"/>
    </g>
    <g>
     <path class="fil2" d="M6986.66 384.84l53.32 -97.35 55.5 30.39 136.28 221.45 -108.82 66.97 -136.28 -221.45zm53.32 -97.35l36.42 -0.63 19.08 31.01 -55.5 -30.39zm-246.96 132l-56.49 -95.67 54.31 -32.07 249.14 -4.26 2.18 127.74 -249.14 4.26zm-56.49 -95.67l18.06 -31.45 36.25 -0.62 -54.31 32.07zm-12.69 278.67l-110.13 1.14 -0.67 -64.75 123.49 -215.06 110.8 63.61 -123.49 215.06zm-110.13 1.14l-19.37 -32.18 18.7 -32.56 0.67 64.75zm247.86 164.1l-54.09 96.82 -55.37 -30.94 -138.41 -229.98 109.45 -65.88 138.41 229.98zm-54.09 96.82l-36.52 0.37 -18.84 -31.31 55.37 30.94zm213.79 -129.9l53.25 100.11 -51.97 27.65 -215.06 2.14 -1.28 -127.76 215.06 -2.14zm53.25 100.11l-18.82 27.32 -33.15 0.33 51.97 -27.65zm50.22 -298.17l107.02 2.74 -1.8 69.71 -155.44 225.71 -105.22 -72.46 155.44 -225.71zm107.02 2.74l21.81 35.44 -23.61 34.28 1.8 -69.71z"/>
    </g>
    <g>
     <path class="fil2" d="M9191.94 2683.54l-1.11 -108.97 66.69 -0.67 227.84 136.28 -65.57 109.64 -227.84 -136.28zm-1.11 -108.97l33.13 -20.75 33.56 20.07 -66.69 0.67zm-160.04 250.96l-97.77 -52.88 29.97 -55.41 227.84 -142.67 67.8 108.3 -227.84 142.67zm-97.77 -52.88l-0.72 -36.19 30.69 -19.22 -29.97 55.41zm132 212.55l-98.94 54.66 -28.8 -52.13 -4.26 -215.08 127.74 -2.53 4.26 215.08zm-98.94 54.66l-28.14 -18.48 -0.66 -33.65 28.8 52.13zm287.33 35.89l1.15 106.01 -71.29 0.77 -217.19 -142.67 70.14 -106.78 217.19 142.67zm1.15 106.01l-35.39 24.35 -35.9 -23.58 71.29 -0.77zm159.68 -264.95l100.1 53.28 -27.67 51.96 -232.11 159.71 -72.43 -105.24 232.11 -159.71zm100.1 53.28l-0.34 33.17 -27.32 18.79 27.67 -51.96zm-125.65 -205.74l96.67 -54.16 31.1 55.48 -2.12 204.42 -127.76 -1.32 2.12 -204.42zm96.67 -54.16l31.47 18.83 -0.38 36.65 -31.1 -55.48z"/>
    </g>
   </g>
  </g>
 </g>
</svg>
