<svg id="Layer_1" data-name="Layer 1" xmlns="http://www.w3.org/2000/svg" viewBox="0 0 292.26 157.22"><defs><style>.cls-1{fill:#ffcabc;}.cls-2{fill:#FFCABC;}.cls-3{fill:#e2f8ff;}.cls-4{fill:#00C2FF;}.cls-5{fill:#3A9CFF;}.cls-6{fill:#3A9CFF;}.cls-7{fill:#00C2FF;}</style></defs><title>Artboard 11</title><path class="cls-1" d="M86.22,49H6.09A6.09,6.09,0,0,1,0,42.88V6.1A6.09,6.09,0,0,1,6.09,0h97.24a6.1,6.1,0,0,1,6.09,6.1V34.39a1.5,1.5,0,0,1-3,0V6.1A3.1,3.1,0,0,0,103.33,3H6.09A3.11,3.11,0,0,0,3,6.1V42.87A3.1,3.1,0,0,0,6.09,46H86.22a1.5,1.5,0,0,1,0,3Z"/><path class="cls-2" d="M97.94,105.65H11a5.61,5.61,0,0,1-5.61-5.6V67.16A5.62,5.62,0,0,1,11,61.55H89.29a1.5,1.5,0,0,1,0,3H11a2.61,2.61,0,0,0-2.61,2.61v32.89a2.61,2.61,0,0,0,2.61,2.6H97.94a1.5,1.5,0,0,1,0,3Z"/><path class="cls-3" d="M90.91,157.22H18.51a6.76,6.76,0,0,1-6.75-6.75V123.62a6.76,6.76,0,0,1,6.75-6.75h72.4a6.76,6.76,0,0,1,6.75,6.75v26.84a6.75,6.75,0,0,1-6.75,6.75Zm-72.4-37.35a3.76,3.76,0,0,0-3.75,3.75v26.85a3.76,3.76,0,0,0,3.75,3.75h72.4a3.77,3.77,0,0,0,3.75-3.76V123.62a3.76,3.76,0,0,0-3.75-3.75Z"/><path class="cls-2" d="M156.91,68.94c2.3,7.55,5.1,19.18,1.74,30.48-3.44,11.61-21,24.89-21,24.89l4.31,6.84s25.63-14.21,30.71-17.24c-3.58-9.77-3.51-13-3.83-17.75s-12-27.22-12-27.22m35.45,63.14L158,151.21a3.51,3.51,0,0,1-4.76-1.36l-4.73-8.5a3.51,3.51,0,0,1,1.36-4.77l34.38-19.13a3.5,3.5,0,0,1,4.76,1.36l4.73,8.51a3.5,3.5,0,0,1-1.36,4.76"/><path class="cls-4" d="M140.24,130.4a1.52,1.52,0,0,1-1.28-.7L135,123.43l-.06-.1c-1.13-2.14-8.13-7.34-14-9.23a18.13,18.13,0,0,1-10.52-8.84c-4.12-7.77-10.34-19.53-10.95-20.73a4,4,0,0,1-.15-3.26,3.82,3.82,0,0,1,2.22-2.2c2.71-1,5.82-.24,8.5,1.13L93,48a6.75,6.75,0,0,1,2.81-9.12l.54-.29a6.77,6.77,0,0,1,9.12,2.81l7.54,14.27a5.63,5.63,0,0,1,2.64-3.09l.58-.31c3.79-2,7.45-.77,10,3.39,0,0,0,0,0,.05s.08-.24.13-.37a6,6,0,0,1,3.26-3.47c3.73-1.69,7.55-.58,9.29,2.72l1.8,3.13a5.94,5.94,0,0,1,2.92-3.49,5.57,5.57,0,0,1,4.31-.44c3,.93,5,4.13,5.69,5.46l5,9.45L167.39,85c2,3.72,3.37,14.27,3.17,18.68-.1,2.31,2.13,6.38,3.32,8.56,1,1.82,1.27,2.31,1,3.06a1.6,1.6,0,0,1-.75.92,1.49,1.49,0,0,1-2-.63,1.53,1.53,0,0,1-.17-.55c-.14-.29-.44-.85-.72-1.35-1.43-2.62-3.83-7-3.69-10.15.2-4.29-1.29-14.23-2.82-17.13l-8.67-16.39-5-9.44c-.85-1.62-2.33-3.51-3.92-4a2.49,2.49,0,0,0-2,.22,2.92,2.92,0,0,0-1.5,1.85c-.52,1.8.21,4.28,1.16,5.94h0a1.49,1.49,0,0,1-.55,2.05,1.51,1.51,0,0,1-2.05-.55h0L136.38,56c-1-1.92-3.14-2.47-5.42-1.43a3,3,0,0,0-1.69,1.77c-.66,1.82,0,4.66.95,6.66a1.5,1.5,0,0,1-2.68,1.34l-3.81-7.17c-1.74-2.77-3.72-3.51-6.06-2.28l-.58.31c-1.75.92-2,4.27-.94,6.31l4.21,8a1.51,1.51,0,0,1-.63,2,1.48,1.48,0,0,1-2-.63L113.53,63l0-.08L102.86,42.77a3.74,3.74,0,0,0-5.06-1.56l-.55.29a3.74,3.74,0,0,0-1.56,5.06l20.56,38.89h0a1.5,1.5,0,0,1-2.65,1.4c-1-1.85-7.15-6.39-11-5a.83.83,0,0,0-.47.47,1,1,0,0,0,0,.82c.59,1.18,7.06,13.39,10.92,20.68a15.2,15.2,0,0,0,8.79,7.39c5.87,1.89,13.89,7.33,15.68,10.62l3.92,6.23a1.49,1.49,0,0,1-.47,2.07A1.42,1.42,0,0,1,140.24,130.4Zm32.53-16.79a1.51,1.51,0,0,0-.32.22A1.51,1.51,0,0,1,172.77,113.61Z"/><path class="cls-5" d="M183.49,129l-34.93,19.43a3.5,3.5,0,0,1-4.76-1.36h0l-5.47-9.82a3.5,3.5,0,0,1,1.36-4.76h0l34.92-19.44a3.51,3.51,0,0,1,4.77,1.36l5.46,9.83a3.51,3.51,0,0,1-1.35,4.76"/><path class="cls-4" d="M219.81,128.62a63.75,63.75,0,0,1-20.67-3.44,1.5,1.5,0,0,1,1-2.84,60.59,60.59,0,0,0,19.7,3.28c1.94,0,3.89-.09,5.81-.27l-7.08-59h-49a1.5,1.5,0,0,1,0-3h49.68L257.36,17A60.56,60.56,0,0,0,220,4h-.09a60.87,60.87,0,0,0-57.39,40.67,1.5,1.5,0,1,1-2.83-1A63.87,63.87,0,0,1,219.87,1h.1a63.79,63.79,0,0,1,39.25,13.58,3,3,0,0,1,.45,4.3L221.44,65.29l7.33,61.22a1.51,1.51,0,0,1-1.31,1.67,66,66,0,0,1-7.59.44Z"/><path class="cls-1" d="M292.26,64.25a52.25,52.25,0,0,0-18.45-39.91.77.77,0,0,0-1.09.09h0L240.44,63.58a.77.77,0,0,0,.1,1.08l.08,0,42.73,27.35a.77.77,0,0,0,1.07-.23h0a52.13,52.13,0,0,0,7.84-27.57"/><path class="cls-6" d="M284.69,66A53.61,53.61,0,0,0,265.75,25a.79.79,0,0,0-1.12.1h0L231.52,65.27a.78.78,0,0,0,.18,1.16l43.84,28.06a.79.79,0,0,0,1.1-.24h0A53.48,53.48,0,0,0,284.69,66"/><path class="cls-2" d="M237.41,87.56l5.05,42.15a.67.67,0,0,0,.75.58h0a44.51,44.51,0,0,0,31.17-19.56.67.67,0,0,0-.19-.93h0L238.43,86.92a.66.66,0,0,0-.92.2.67.67,0,0,0-.1.44"/><path class="cls-5" d="M229.7,75.41,235.53,124a.77.77,0,0,0,.86.68,51.46,51.46,0,0,0,35.95-22.56.76.76,0,0,0-.22-1.07h0L230.87,74.68a.75.75,0,0,0-1.05.23.74.74,0,0,0-.12.5"/><path class="cls-7" d="M39.61,131.5a2.67,2.67,0,0,0-2.69,2.8H34A5.56,5.56,0,0,1,39.61,129c3.38,0,5.35,1.9,5.35,4.89,0,2.06-1.7,3.76-3.43,5.71l-3.62,4h7.33v2.49H34v-1.86l5-5.55c1.73-1.92,3.18-3.35,3.18-4.8a2.35,2.35,0,0,0-2.58-2.39m11.2,7.25H48.64v-9.5h9.5v2.52H51v4.09a4.94,4.94,0,0,1,2.89-.87c3.15,0,5.32,2.3,5.32,5.68a5.41,5.41,0,0,1-5.57,5.71,5.55,5.55,0,0,1-5.9-5.33h2.77a3,3,0,1,0,3.07-3.62,3.44,3.44,0,0,0-2.74,1.32m13.67-1.07c0,3.54,1.1,6.12,3.59,6.12s3.57-2.58,3.57-6.12-1.09-6.12-3.57-6.12-3.59,2.58-3.59,6.12m-2.78,0c0-5.14,2.56-8.71,6.37-8.71s6.37,3.57,6.37,8.71-2.55,8.7-6.37,8.7-6.37-3.57-6.37-8.7"/><path class="cls-5" d="M34.31,85.83H31.92V75.35H42.41v2.78H34.5v4.52a5.44,5.44,0,0,1,3.18-1c3.49,0,5.88,2.55,5.88,6.28a6,6,0,0,1-6.15,6.3,6.13,6.13,0,0,1-6.52-5.88H34a3.26,3.26,0,0,0,3.46,3.15c2,0,3.21-1.48,3.21-3.57s-1.24-3.58-3.27-3.58a3.89,3.89,0,0,0-3,1.45m15.1-1.18c0,3.91,1.21,6.76,4,6.76s3.94-2.85,3.94-6.76-1.21-6.76-3.94-6.76-4,2.85-4,6.76m-3.06,0c0-5.67,2.82-9.61,7-9.61s7,3.94,7,9.61-2.82,9.61-7,9.61-7-3.94-7-9.61m20.18,0c0,3.91,1.21,6.76,4,6.76s3.94-2.85,3.94-6.76-1.21-6.76-3.94-6.76-4,2.85-4,6.76m-3.06,0c0-5.67,2.82-9.61,7-9.61s7,3.94,7,9.61-2.82,9.61-7,9.61-7-3.94-7-9.61"/><path class="cls-6" d="M27.32,34.39H24.25V19.57l-4.36,2.21V18.59l5.58-2.81h1.85Zm5.39.06A1.9,1.9,0,0,1,31,32.51a2,2,0,0,1,2.06-2,2,2,0,0,1,2.06,2.27,4.79,4.79,0,0,1-.87,2.43L32.5,37.81h-2Zm7.46-9.37c0,3.91,1.21,6.76,4,6.76s3.94-2.85,3.94-6.76-1.22-6.76-3.94-6.76-4,2.85-4,6.76m-3.07,0c0-5.67,2.82-9.61,7-9.61s7,3.94,7,9.61-2.82,9.61-7,9.61-7-3.94-7-9.61m20.19,0c0,3.91,1.21,6.76,4,6.76S65.2,29,65.2,25.08,64,18.32,61.26,18.32s-4,2.85-4,6.76m-3.06,0c0-5.67,2.82-9.61,7-9.61s7,3.94,7,9.61-2.82,9.61-7,9.61-7-3.94-7-9.61m20.18,0c0,3.91,1.22,6.76,4,6.76s3.94-2.85,3.94-6.76-1.22-6.76-3.94-6.76-4,2.85-4,6.76m-3.07,0c0-5.67,2.82-9.61,7-9.61s7,3.94,7,9.61-2.82,9.61-7,9.61-7-3.94-7-9.61"/></svg>
