<?xml version="1.0" encoding="UTF-8"?>
<!DOCTYPE svg PUBLIC "-//W3C//DTD SVG 1.1//EN" "http://www.w3.org/Graphics/SVG/1.1/DTD/svg11.dtd">
<!-- Creator: CorelDRAW 2018 (64-Bit Evaluation Version) -->
<svg xmlns="http://www.w3.org/2000/svg" xml:space="preserve" width="79.3798mm" height="45.8545mm" version="1.1" style="shape-rendering:geometricPrecision; text-rendering:geometricPrecision; image-rendering:optimizeQuality; fill-rule:evenodd; clip-rule:evenodd"
viewBox="0 0 7016.83 4053.34"
 xmlns:xlink="http://www.w3.org/1999/xlink">
 <defs>
  <style type="text/css">
   <![CDATA[
    .fil1 {fill:#1D9CD3;fill-rule:nonzero}
    .fil2 {fill:#3A9CFF;fill-rule:nonzero}
    .fil0 {fill:#5AEEBC;fill-rule:nonzero}
    .fil3 {fill:#FBD13D;fill-rule:nonzero}
   ]]>
  </style>
 </defs>
 <g id="Layer_x0020_1">
  <metadata id="CorelCorpID_0Corel-Layer"/>
  <g>
   <path class="fil0" d="M4315.28 3031.26l-606.38 0 0 -79.79 606.38 0 39.89 39.89 -39.89 39.89zm0 -79.79l39.89 0 0 39.89 -39.89 -39.89zm-39.89 767.55l0 -727.66 79.79 0 0 727.66 -39.89 39.89 -39.89 -39.89zm79.79 0l0 39.89 -39.89 0 39.89 -39.89zm-646.27 -39.89l606.38 0 0 79.79 -606.38 0 -39.89 -39.89 39.89 -39.89zm0 79.79l-39.89 0 0 -39.89 39.89 39.89zm39.89 -767.55l0 727.66 -79.79 0 0 -727.66 39.89 -39.89 39.89 39.89zm-79.79 0l0 -39.89 39.89 0 -39.89 39.89z"/>
  </g>
  <g>
   <path class="fil1" d="M5196.12 2386.59l-593.61 0 0 -79.79 593.61 0 39.89 39.89 -39.89 39.89zm0 -79.79l39.89 0 0 39.89 -39.89 -39.89zm-39.89 1399.45l0 -1359.56 79.79 0 0 1359.56 -39.89 39.89 -39.89 -39.89zm79.79 0l0 39.89 -39.89 0 39.89 -39.89zm-633.5 -39.89l593.61 0 0 79.79 -593.61 0 -39.89 -39.89 39.89 -39.89zm0 79.79l-39.89 0 0 -39.89 39.89 39.89zm39.89 -1399.45l0 1359.56 -79.79 0 0 -1359.56 39.89 -39.89 39.89 39.89zm-79.79 0l0 -39.89 39.89 0 -39.89 39.89z"/>
  </g>
  <g>
   <path class="fil2" d="M6038.66 1122.77l-631.9 0 0 -79.79 631.9 0 39.89 39.89 -39.89 39.89zm0 -79.79l39.89 0 0 39.89 -39.89 -39.89zm-39.89 2663.27l0 -2623.38 79.79 0 0 2623.38 -39.89 39.89 -39.89 -39.89zm79.79 0l0 39.89 -39.89 0 39.89 -39.89zm-671.8 -39.89l631.9 0 0 79.79 -631.9 0 -39.89 -39.89 39.89 -39.89zm0 79.79l-39.89 0 0 -39.89 39.89 39.89zm39.89 -2663.27l0 2623.38 -79.79 0 0 -2623.38 39.89 -39.89 39.89 39.89zm-79.79 0l0 -39.89 39.89 0 -39.89 39.89z"/>
  </g>
  <g>
   <polygon class="fil2" points="300,3742.96 -0,3739.77 0.85,3659.99 300.85,3663.18 "/>
  </g>
  <g>
   <polygon class="fil2" points="919.01,3744.55 465.81,3738.17 466.94,3658.39 920.14,3664.77 "/>
  </g>
  <g>
   <polygon class="fil2" points="3284.37,3742.96 1091.85,3739.77 1091.97,3659.99 3284.5,3663.18 "/>
  </g>
  <g>
   <polygon class="fil2" points="2169.21,4050.94 1859.63,4052.54 1859.23,3972.76 2168.8,3971.16 "/>
  </g>
  <g>
   <polygon class="fil2" points="2796.4,4050.14 2328.86,4053.34 2328.31,3973.55 2795.86,3970.35 "/>
  </g>
  <g>
   <polygon class="fil2" points="7016.83,4051.74 2944.54,4051.74 2944.54,3971.95 7016.83,3971.95 "/>
  </g>
  <g>
   <polygon class="fil3" points="1429.05,1749.23 1738.62,1353.5 1801.47,1402.66 1491.9,1798.4 "/>
  </g>
  <g>
   <polygon class="fil3" points="3484.34,1728.5 3793.91,1332.76 3856.76,1381.92 3547.19,1777.66 "/>
  </g>
  <g>
   <polygon class="fil3" points="1336.66,1618.2 1531.34,1372.46 1593.87,1421.99 1399.19,1667.73 "/>
  </g>
  <g>
   <polygon class="fil3" points="3391.95,1597.46 3586.63,1351.72 3649.16,1401.26 3454.48,1647 "/>
  </g>
  <g>
   <path class="fil3" d="M2480.15 1674.88l-79.79 0 0 0 -0.78 -31.03 -2.31 -30.58 -3.81 -30.13 -5.26 -29.64 -6.68 -29.12 -8.05 -28.54 -9.4 -27.95 -10.71 -27.32 -11.97 -26.65 -13.2 -25.94 -14.41 -25.2 -15.55 -24.41 -16.68 -23.59 -17.76 -22.74 -18.78 -21.83 -19.8 -20.9 -20.77 -19.92 -21.7 -18.91 -22.58 -17.86 -23.44 -16.77 -24.25 -15.65 -25.02 -14.47 -25.76 -13.28 -26.46 -12.03 -27.11 -10.77 -27.74 -9.44 -28.33 -8.1 -28.9 -6.71 -29.39 -5.29 -29.9 -3.82 -30.36 -2.32 -30.77 -0.78 0 -79.61 34.84 0.88 34.4 2.64 33.91 4.33 33.39 5.99 32.8 7.63 32.17 9.19 31.5 10.71 30.79 12.22 30.01 13.66 29.22 15.06 28.37 16.42 27.48 17.73 26.55 19 25.58 20.22 24.57 21.42 23.51 22.56 22.42 23.65 21.28 24.72 20.09 25.73 18.87 26.7 17.62 27.65 16.3 28.53 14.95 29.38 13.56 30.17 12.13 30.95 10.65 31.66 9.11 32.33 7.57 32.95 5.95 33.55 4.3 34.09 2.61 34.56 0.88 35 0 0zm-677.39 681.28l0 -79.61 0 0 30.77 -0.78 30.36 -2.32 29.9 -3.82 29.39 -5.29 28.9 -6.71 28.33 -8.1 27.74 -9.44 27.11 -10.77 26.46 -12.03 25.76 -13.28 25.02 -14.47 24.25 -15.65 23.44 -16.77 22.58 -17.86 21.7 -18.91 20.77 -19.92 19.8 -20.9 18.78 -21.83 17.76 -22.74 16.68 -23.59 15.56 -24.41 14.4 -25.19 13.2 -25.94 11.97 -26.66 10.71 -27.32 9.4 -27.94 8.05 -28.55 6.68 -29.12 5.26 -29.63 3.81 -30.13 2.31 -30.59 0.78 -31.02 79.79 0 -0.88 35 -2.61 34.57 -4.3 34.09 -5.95 33.54 -7.57 32.95 -9.11 32.34 -10.65 31.67 -12.13 30.93 -13.56 30.18 -14.95 29.38 -16.31 28.53 -17.61 27.63 -18.87 26.7 -20.09 25.73 -21.28 24.72 -22.42 23.65 -23.51 22.56 -24.57 21.42 -25.58 20.22 -26.55 19 -27.48 17.73 -28.37 16.42 -29.22 15.06 -30.01 13.66 -30.79 12.22 -31.5 10.71 -32.17 9.19 -32.8 7.63 -33.39 5.99 -33.91 4.33 -34.4 2.64 -34.84 0.88 0 0zm-677.38 -681.28l79.79 0 0 0 0.78 31.02 2.31 30.59 3.81 30.13 5.26 29.63 6.68 29.12 8.05 28.55 9.4 27.95 10.7 27.31 11.98 26.65 13.2 25.94 14.4 25.19 15.57 24.41 16.66 23.6 17.76 22.74 18.79 21.83 19.8 20.9 20.77 19.92 21.7 18.91 22.58 17.86 23.43 16.77 24.24 15.65 25.03 14.47 25.75 13.28 26.46 12.03 27.12 10.77 27.74 9.44 28.33 8.1 28.89 6.71 29.39 5.29 29.9 3.82 30.36 2.32 30.77 0.78 0 79.61 -34.84 -0.88 -34.4 -2.64 -33.91 -4.33 -33.39 -5.99 -32.79 -7.63 -32.17 -9.19 -31.5 -10.71 -30.78 -12.22 -30.03 -13.66 -29.21 -15.06 -28.37 -16.42 -27.49 -17.73 -26.55 -19 -25.58 -20.22 -24.57 -21.42 -23.51 -22.56 -22.42 -23.65 -21.29 -24.72 -20.09 -25.74 -18.87 -26.7 -17.6 -27.63 -16.31 -28.53 -14.95 -29.37 -13.57 -30.19 -12.12 -30.94 -10.65 -31.66 -9.11 -32.34 -7.57 -32.95 -5.95 -33.54 -4.3 -34.09 -2.61 -34.57 -0.88 -35 0 0zm677.38 -681.29l0 79.61 0 0 -30.77 0.78 -30.36 2.32 -29.9 3.82 -29.39 5.29 -28.89 6.71 -28.33 8.1 -27.74 9.44 -27.12 10.77 -26.46 12.03 -25.75 13.28 -25.03 14.47 -24.24 15.65 -23.43 16.77 -22.58 17.86 -21.7 18.91 -20.77 19.92 -19.8 20.9 -18.79 21.83 -17.76 22.74 -16.66 23.59 -15.56 24.42 -14.41 25.2 -13.2 25.94 -11.98 26.64 -10.7 27.32 -9.4 27.95 -8.05 28.54 -6.68 29.12 -5.26 29.64 -3.81 30.13 -2.31 30.58 -0.78 31.03 -79.79 0 0.88 -35 2.61 -34.56 4.3 -34.09 5.95 -33.55 7.57 -32.95 9.11 -32.33 10.65 -31.66 12.12 -30.95 13.57 -30.18 14.95 -29.37 16.3 -28.53 17.61 -27.64 18.87 -26.7 20.09 -25.74 21.29 -24.72 22.42 -23.65 23.51 -22.56 24.57 -21.42 25.58 -20.22 26.55 -19 27.49 -17.73 28.37 -16.42 29.21 -15.06 30.03 -13.66 30.78 -12.22 31.5 -10.71 32.17 -9.19 32.79 -7.63 33.39 -5.99 33.91 -4.33 34.4 -2.64 34.84 -0.88 0 0z"/>
  </g>
  <g>
   <path class="fil3" d="M3127.99 1622.23l0 0 0.88 -35 2.61 -34.57 4.3 -34.09 5.95 -33.54 7.57 -32.95 9.11 -32.34 10.65 -31.66 12.12 -30.94 13.57 -30.19 14.95 -29.37 16.31 -28.53 17.6 -27.63 18.87 -26.7 20.09 -25.74 21.29 -24.72 22.42 -23.65 23.51 -22.56 24.57 -21.42 25.58 -20.22 26.55 -19 27.49 -17.73 28.37 -16.42 29.21 -15.06 30.03 -13.66 30.78 -12.22 31.5 -10.71 32.17 -9.19 32.79 -7.63 33.39 -5.99 33.91 -4.33 34.4 -2.64 34.84 -0.88 0 79.61 -30.77 0.78 -30.36 2.32 -29.9 3.82 -29.39 5.29 -28.89 6.71 -28.33 8.1 -27.74 9.44 -27.12 10.77 -26.46 12.03 -25.75 13.28 -25.03 14.47 -24.24 15.65 -23.43 16.77 -22.58 17.86 -21.7 18.91 -20.77 19.92 -19.8 20.9 -18.79 21.83 -17.76 22.74 -16.66 23.6 -15.57 24.41 -14.4 25.19 -13.2 25.94 -11.98 26.65 -10.7 27.31 -9.4 27.95 -8.05 28.55 -6.68 29.12 -5.26 29.63 -3.81 30.13 -2.31 30.59 -0.78 31.02 0 0 -79.79 0zm677.38 681.29l0 0 -34.84 -0.88 -34.4 -2.64 -33.91 -4.33 -33.39 -5.99 -32.79 -7.63 -32.17 -9.19 -31.5 -10.71 -30.78 -12.22 -30.03 -13.66 -29.21 -15.06 -28.37 -16.42 -27.49 -17.73 -26.55 -19 -25.58 -20.22 -24.57 -21.42 -23.51 -22.56 -22.42 -23.65 -21.29 -24.72 -20.09 -25.74 -18.87 -26.7 -17.61 -27.64 -16.3 -28.53 -14.95 -29.37 -13.57 -30.18 -12.12 -30.95 -10.65 -31.66 -9.11 -32.33 -7.57 -32.95 -5.95 -33.55 -4.3 -34.09 -2.61 -34.56 -0.88 -35 79.79 0 0.78 31.03 2.31 30.58 3.81 30.13 5.26 29.64 6.68 29.12 8.05 28.54 9.4 27.95 10.7 27.32 11.98 26.64 13.2 25.94 14.41 25.2 15.56 24.42 16.66 23.59 17.76 22.74 18.79 21.83 19.8 20.9 20.77 19.92 21.7 18.91 22.58 17.86 23.43 16.77 24.24 15.65 25.03 14.47 25.75 13.28 26.46 12.03 27.12 10.77 27.74 9.44 28.33 8.1 28.89 6.71 29.39 5.29 29.9 3.82 30.36 2.32 30.77 0.78 0 0 0 79.61zm677.39 -681.29l0 0 -0.88 35 -2.61 34.56 -4.3 34.09 -5.95 33.55 -7.57 32.95 -9.11 32.33 -10.65 31.66 -12.12 30.95 -13.57 30.18 -14.95 29.37 -16.3 28.53 -17.62 27.65 -18.87 26.7 -20.09 25.73 -21.28 24.72 -22.42 23.65 -23.51 22.56 -24.57 21.42 -25.58 20.22 -26.55 19 -27.48 17.73 -28.37 16.42 -29.22 15.06 -30.01 13.66 -30.79 12.22 -31.5 10.71 -32.17 9.19 -32.8 7.63 -33.39 5.99 -33.91 4.33 -34.4 2.64 -34.84 0.88 0 -79.61 30.77 -0.78 30.36 -2.32 29.9 -3.82 29.39 -5.29 28.9 -6.71 28.33 -8.1 27.74 -9.44 27.11 -10.77 26.46 -12.03 25.76 -13.28 25.02 -14.47 24.25 -15.65 23.44 -16.77 22.58 -17.86 21.7 -18.91 20.77 -19.92 19.8 -20.9 18.78 -21.83 17.76 -22.74 16.68 -23.59 15.55 -24.41 14.41 -25.2 13.2 -25.94 11.98 -26.64 10.7 -27.32 9.4 -27.95 8.05 -28.54 6.68 -29.12 5.26 -29.64 3.81 -30.13 2.31 -30.58 0.78 -31.03 0 0 79.79 0zm-677.39 -681.28l0 0 34.84 0.88 34.4 2.64 33.91 4.33 33.39 5.99 32.8 7.63 32.17 9.19 31.5 10.71 30.79 12.22 30.01 13.66 29.22 15.06 28.37 16.42 27.48 17.73 26.55 19 25.58 20.22 24.57 21.42 23.51 22.56 22.42 23.65 21.28 24.72 20.09 25.73 18.87 26.7 17.61 27.63 16.31 28.53 14.95 29.37 13.57 30.19 12.12 30.94 10.65 31.66 9.11 32.34 7.57 32.95 5.95 33.54 4.3 34.09 2.61 34.57 0.88 35 -79.79 0 -0.78 -31.02 -2.31 -30.59 -3.81 -30.13 -5.26 -29.63 -6.68 -29.12 -8.05 -28.55 -9.4 -27.95 -10.7 -27.31 -11.98 -26.65 -13.2 -25.94 -14.4 -25.19 -15.56 -24.41 -16.68 -23.59 -17.76 -22.74 -18.78 -21.83 -19.8 -20.9 -20.77 -19.92 -21.7 -18.91 -22.58 -17.86 -23.44 -16.77 -24.25 -15.65 -25.02 -14.47 -25.76 -13.28 -26.46 -12.03 -27.11 -10.77 -27.74 -9.44 -28.33 -8.1 -28.9 -6.71 -29.39 -5.29 -29.9 -3.82 -30.36 -2.32 -30.77 -0.78 0 0 0 -79.61z"/>
  </g>
  <g>
   <path class="fil1" d="M2668.43 1669.32l-79.79 0 0 0 -1.03 -40.75 -3.04 -40.18 -4.99 -39.59 -6.91 -38.95 -8.78 -38.26 -10.59 -37.52 -12.35 -36.74 -14.07 -35.91 -15.73 -35.02 -17.36 -34.09 -18.92 -33.12 -20.45 -32.08 -21.91 -31.01 -23.33 -29.88 -24.7 -28.69 -26.03 -27.47 -27.29 -26.18 -28.51 -24.85 -29.68 -23.48 -30.81 -22.04 -31.87 -20.56 -32.88 -19.03 -33.86 -17.45 -34.77 -15.81 -35.65 -14.15 -36.46 -12.41 -37.25 -10.64 -37.97 -8.82 -38.66 -6.95 -39.29 -5.02 -39.88 -3.06 -40.45 -1.03 0 -79.61 44.5 1.13 43.95 3.36 43.32 5.55 42.62 7.66 41.9 9.72 41.09 11.74 40.23 13.7 39.31 15.6 38.35 17.44 37.33 19.23 36.24 20.98 35.1 22.65 33.92 24.26 32.69 25.85 31.39 27.36 30.03 28.82 28.63 30.21 27.19 31.57 25.68 32.88 24.11 34.12 22.5 35.31 20.83 36.45 19.09 37.52 17.33 38.56 15.49 39.53 13.6 40.45 11.65 41.29 9.66 42.11 7.6 42.85 5.51 43.53 3.34 44.18 1.11 44.73 0 0zm-865.28 870.36l0 -79.61 0 0 40.45 -1.03 39.88 -3.06 39.29 -5.02 38.66 -6.95 37.97 -8.82 37.25 -10.64 36.46 -12.41 35.65 -14.15 34.77 -15.81 33.86 -17.45 32.88 -19.04 31.87 -20.54 30.81 -22.05 29.68 -23.47 28.51 -24.86 27.29 -26.18 26.03 -27.47 24.7 -28.69 23.34 -29.87 21.9 -31.01 20.45 -32.08 18.92 -33.12 17.35 -34.1 15.74 -35.02 14.07 -35.9 12.35 -36.74 10.59 -37.52 8.78 -38.27 6.91 -38.95 4.99 -39.59 3.04 -40.18 1.03 -40.75 79.79 0 -1.11 44.73 -3.34 44.18 -5.51 43.53 -7.6 42.85 -9.66 42.1 -11.65 41.31 -13.6 40.45 -15.49 39.52 -17.32 38.56 -19.1 37.53 -20.83 36.45 -22.5 35.31 -24.11 34.12 -25.67 32.87 -27.19 31.57 -28.63 30.21 -30.03 28.82 -31.39 27.37 -32.69 25.84 -33.92 24.27 -35.1 22.65 -36.24 20.97 -37.33 19.23 -38.35 17.44 -39.31 15.6 -40.23 13.7 -41.09 11.74 -41.9 9.72 -42.62 7.66 -43.32 5.55 -43.95 3.36 -44.5 1.13 0 0zm-865.28 -870.36l79.79 0 0 0 1.03 40.75 3.04 40.18 4.99 39.59 6.91 38.95 8.78 38.27 10.59 37.52 12.35 36.74 14.07 35.9 15.74 35.02 17.35 34.1 18.92 33.12 20.45 32.08 21.9 31.01 23.34 29.87 24.7 28.69 26.03 27.47 27.29 26.18 28.51 24.86 29.68 23.47 30.81 22.05 31.87 20.54 32.88 19.04 33.86 17.45 34.77 15.81 35.65 14.15 36.46 12.41 37.25 10.64 37.97 8.82 38.66 6.95 39.29 5.02 39.88 3.06 40.45 1.03 0 79.61 -44.5 -1.13 -43.95 -3.36 -43.32 -5.55 -42.62 -7.66 -41.9 -9.72 -41.09 -11.74 -40.23 -13.7 -39.31 -15.6 -38.35 -17.44 -37.33 -19.23 -36.24 -20.97 -35.1 -22.65 -33.92 -24.27 -32.69 -25.84 -31.39 -27.37 -30.03 -28.82 -28.63 -30.21 -27.19 -31.57 -25.67 -32.87 -24.11 -34.12 -22.5 -35.31 -20.83 -36.45 -19.1 -37.53 -17.32 -38.56 -15.49 -39.52 -13.6 -40.45 -11.65 -41.31 -9.66 -42.1 -7.6 -42.85 -5.51 -43.53 -3.34 -44.18 -1.11 -44.73 0 0zm865.28 -870.36l0 79.61 0 0 -40.45 1.03 -39.88 3.06 -39.29 5.02 -38.66 6.95 -37.97 8.82 -37.25 10.64 -36.46 12.41 -35.65 14.15 -34.77 15.81 -33.86 17.45 -32.88 19.03 -31.87 20.56 -30.81 22.04 -29.68 23.48 -28.51 24.85 -27.29 26.18 -26.03 27.47 -24.7 28.69 -23.33 29.88 -21.91 31.01 -20.45 32.08 -18.92 33.12 -17.36 34.09 -15.73 35.02 -14.07 35.91 -12.35 36.74 -10.59 37.52 -8.78 38.26 -6.91 38.95 -4.99 39.59 -3.04 40.18 -1.03 40.75 -79.79 0 1.11 -44.73 3.34 -44.18 5.51 -43.53 7.6 -42.85 9.66 -42.11 11.65 -41.29 13.6 -40.45 15.49 -39.53 17.33 -38.56 19.09 -37.52 20.83 -36.45 22.5 -35.31 24.11 -34.12 25.68 -32.88 27.19 -31.57 28.63 -30.21 30.03 -28.82 31.39 -27.36 32.69 -25.85 33.92 -24.26 35.1 -22.65 36.24 -20.98 37.33 -19.23 38.35 -17.44 39.31 -15.6 40.23 -13.7 41.09 -11.74 41.9 -9.72 42.62 -7.66 43.32 -5.55 43.95 -3.36 44.5 -1.13 0 0z"/>
  </g>
  <g>
   <path class="fil1" d="M2939.7 1616.68l0 0 1.12 -44.73 3.33 -44.17 5.51 -43.54 7.6 -42.85 9.66 -42.11 11.65 -41.29 13.6 -40.45 15.49 -39.53 17.33 -38.56 19.09 -37.52 20.83 -36.45 22.5 -35.31 24.11 -34.12 25.68 -32.88 27.17 -31.57 28.64 -30.23 30.05 -28.82 31.38 -27.35 32.68 -25.85 33.92 -24.26 35.11 -22.65 36.24 -20.98 37.32 -19.23 38.35 -17.44 39.32 -15.6 40.23 -13.7 41.09 -11.74 41.9 -9.72 42.62 -7.66 43.32 -5.55 43.95 -3.36 44.5 -1.13 0 79.61 -40.45 1.03 -39.88 3.06 -39.29 5.02 -38.66 6.95 -37.97 8.82 -37.25 10.64 -36.46 12.41 -35.66 14.15 -34.77 15.81 -33.86 17.45 -32.88 19.03 -31.88 20.56 -30.79 22.04 -29.69 23.48 -28.52 24.86 -27.29 26.18 -26.02 27.46 -24.7 28.7 -23.35 29.88 -21.9 31.01 -20.45 32.08 -18.92 33.12 -17.36 34.09 -15.73 35.02 -14.07 35.91 -12.35 36.74 -10.59 37.52 -8.78 38.26 -6.91 38.95 -4.99 39.58 -3.03 40.19 -1.03 40.75 0 0 -79.79 0zm865.29 870.36l0 0 -44.5 -1.13 -43.95 -3.36 -43.32 -5.55 -42.62 -7.66 -41.9 -9.72 -41.09 -11.74 -40.23 -13.7 -39.32 -15.6 -38.35 -17.44 -37.32 -19.23 -36.24 -20.98 -35.11 -22.65 -33.92 -24.26 -32.68 -25.85 -31.38 -27.35 -30.05 -28.82 -28.64 -30.23 -27.17 -31.57 -25.68 -32.88 -24.11 -34.12 -22.5 -35.31 -20.83 -36.45 -19.09 -37.52 -17.33 -38.56 -15.49 -39.53 -13.6 -40.45 -11.65 -41.29 -9.66 -42.11 -7.6 -42.85 -5.51 -43.54 -3.33 -44.17 -1.12 -44.73 79.79 0 1.03 40.75 3.03 40.19 4.99 39.58 6.91 38.95 8.78 38.26 10.59 37.52 12.35 36.74 14.07 35.91 15.73 35.02 17.36 34.09 18.92 33.12 20.45 32.08 21.9 31.01 23.35 29.88 24.7 28.7 26.02 27.46 27.29 26.18 28.52 24.86 29.69 23.48 30.79 22.04 31.88 20.56 32.88 19.03 33.86 17.45 34.77 15.81 35.66 14.15 36.46 12.41 37.25 10.64 37.97 8.82 38.66 6.95 39.29 5.02 39.88 3.06 40.45 1.03 0 0 0 79.61zm865.28 -870.36l0 0 -1.11 44.73 -3.34 44.18 -5.51 43.53 -7.6 42.85 -9.66 42.11 -11.65 41.29 -13.6 40.45 -15.49 39.53 -17.33 38.56 -19.09 37.52 -20.83 36.45 -22.5 35.31 -24.11 34.12 -25.68 32.88 -27.19 31.57 -28.63 30.21 -30.03 28.82 -31.39 27.36 -32.69 25.85 -33.92 24.26 -35.1 22.65 -36.24 20.98 -37.33 19.23 -38.35 17.44 -39.31 15.6 -40.23 13.7 -41.09 11.74 -41.9 9.72 -42.62 7.66 -43.32 5.55 -43.95 3.36 -44.5 1.13 0 -79.61 40.45 -1.03 39.88 -3.06 39.29 -5.02 38.66 -6.95 37.97 -8.82 37.25 -10.64 36.46 -12.41 35.65 -14.15 34.77 -15.81 33.86 -17.45 32.88 -19.03 31.87 -20.56 30.81 -22.04 29.68 -23.48 28.51 -24.85 27.29 -26.18 26.03 -27.47 24.7 -28.69 23.33 -29.88 21.91 -31.01 20.45 -32.08 18.92 -33.12 17.36 -34.09 15.73 -35.02 14.07 -35.91 12.35 -36.74 10.59 -37.52 8.78 -38.26 6.91 -38.95 4.99 -39.59 3.04 -40.18 1.03 -40.75 0 0 79.79 0zm-865.28 -870.36l0 0 44.5 1.13 43.95 3.36 43.32 5.55 42.62 7.66 41.9 9.72 41.09 11.74 40.23 13.7 39.31 15.6 38.35 17.44 37.33 19.23 36.24 20.98 35.1 22.65 33.92 24.26 32.69 25.85 31.39 27.36 30.03 28.82 28.63 30.21 27.19 31.57 25.68 32.88 24.11 34.12 22.5 35.31 20.83 36.45 19.09 37.52 17.33 38.56 15.49 39.53 13.6 40.45 11.65 41.29 9.66 42.11 7.6 42.85 5.51 43.53 3.34 44.18 1.11 44.73 -79.79 0 -1.03 -40.75 -3.04 -40.18 -4.99 -39.59 -6.91 -38.95 -8.78 -38.26 -10.59 -37.52 -12.35 -36.74 -14.07 -35.91 -15.73 -35.02 -17.36 -34.09 -18.92 -33.12 -20.45 -32.08 -21.91 -31.01 -23.33 -29.88 -24.7 -28.69 -26.03 -27.47 -27.29 -26.18 -28.51 -24.85 -29.68 -23.48 -30.81 -22.04 -31.87 -20.56 -32.88 -19.03 -33.86 -17.45 -34.77 -15.81 -35.65 -14.15 -36.46 -12.41 -37.25 -10.64 -37.97 -8.82 -38.66 -6.95 -39.29 -5.02 -39.88 -3.06 -40.45 -1.03 0 0 0 -79.61z"/>
  </g>
  <g>
   <path class="fil1" d="M1717.85 323.49l-514.57 834.74 -67.92 -41.86 514.57 -834.74 1.43 -2.16 66.49 44.02zm-67.92 -41.86l0.65 -1.06 0.78 -1.1 -1.43 2.16zm871.61 -36.86l-79.57 -5.69 15.7 34.64 -26.6 -19.69 -26.42 -18.61 -26.22 -17.48 -26.01 -16.32 -25.79 -15.13 -25.55 -13.9 -25.3 -12.65 -25.03 -11.38 -24.76 -10.07 -24.46 -8.73 -24.19 -7.39 -23.87 -6.03 -23.56 -4.64 -23.25 -3.24 -22.97 -1.82 -22.67 -0.41 -22.42 1.04 -22.18 2.5 -21.98 4 -21.82 5.53 -21.68 7.11 -21.6 8.74 -21.52 10.43 -21.47 12.18 -21.44 13.99 -21.37 15.87 -21.36 17.83 -21.31 19.83 -21.24 21.88 -21.17 23.98 -21.07 26.14 -20.98 28.35 -65.06 -46.18 22.87 -30.91 23.23 -28.83 23.61 -26.74 23.98 -24.69 24.35 -22.66 24.75 -20.66 25.14 -18.66 25.52 -16.66 25.89 -14.69 26.24 -12.71 26.56 -10.76 26.86 -8.8 27.11 -6.88 27.32 -4.98 27.48 -3.1 27.61 -1.29 27.69 0.5 27.76 2.21 27.79 3.87 27.82 5.47 27.83 7.02 27.83 8.5 27.84 9.94 27.85 11.32 27.84 12.65 27.86 13.94 27.9 15.18 27.91 16.37 27.95 17.54 27.97 18.66 28.03 19.72 28.07 20.78 15.7 34.64zm-15.7 -34.64l17.24 13.06 -1.54 21.58 -15.7 -34.64zm-70.26 118.3l6.38 -89.35 79.57 5.69 -6.38 89.35 -34.61 36.71 -44.97 -42.4zm79.57 5.69l-2.32 32.49 -32.29 4.23 34.61 -36.71zm-137.17 109l-76.52 -22.63 0.1 -0.3 2.49 -7.68 2.75 -7.47 3 -7.22 3.26 -7.03 3.5 -6.78 3.76 -6.57 4 -6.3 4.21 -6.04 4.46 -5.83 4.68 -5.56 4.86 -5.28 5.05 -5.01 5.25 -4.76 5.38 -4.47 5.55 -4.23 5.7 -3.97 5.79 -3.69 5.88 -3.44 6.02 -3.22 6.07 -2.96 6.13 -2.74 6.24 -2.55 6.28 -2.32 6.36 -2.14 6.34 -1.93 6.39 -1.78 6.51 -1.62 6.47 -1.45 6.51 -1.31 6.54 -1.17 6.58 -1.04 6.6 -0.93 10.36 79.11 -5.19 0.72 -5.07 0.81 -4.95 0.88 -4.84 0.97 -4.7 1.04 -4.51 1.12 -4.43 1.23 -4.3 1.31 -4.1 1.38 -3.97 1.48 -3.8 1.54 -3.69 1.66 -3.54 1.72 -3.37 1.8 -3.26 1.9 -3.12 1.99 -2.96 2.06 -2.85 2.17 -2.75 2.28 -2.62 2.38 -2.54 2.52 -2.44 2.64 -2.33 2.78 -2.25 2.93 -2.19 3.16 -2.1 3.31 -2.01 3.51 -1.94 3.76 -1.85 3.99 -1.76 4.25 -1.67 4.5 -1.56 4.8 0.1 -0.3zm-76.52 -22.63l0.1 -0.3 -0.29 0.96 0.19 -0.66zm-149.11 503.98l149.11 -503.98 76.52 22.63 -149.11 503.98 -76.52 -22.63z"/>
  </g>
  <g>
   <path class="fil1" d="M3840.44 293.42l65.29 -45.85 0.23 0.33 565.63 813.99 -65.52 45.52 -565.63 -813.99zm65.29 -45.85l0.12 0.17 0.11 0.16 -0.23 -0.33zm-873.11 -23.81l15.7 -34.64 28.03 -20.77 28 -19.8 27.98 -18.78 27.95 -17.71 27.93 -16.6 27.92 -15.45 27.9 -14.25 27.89 -13.01 27.9 -11.71 27.88 -10.36 27.89 -8.96 27.89 -7.5 27.89 -5.99 27.89 -4.39 27.84 -2.76 27.82 -1.05 27.73 0.72 27.63 2.55 27.47 4.42 27.29 6.35 27.04 8.29 26.76 10.28 26.44 12.28 26.08 14.29 25.7 16.32 25.31 18.35 24.89 20.38 24.49 22.45 24.09 24.55 23.69 26.63 23.3 28.77 22.91 30.93 -65.06 46.18 -20.95 -28.28 -21.06 -26 -21.16 -23.8 -21.24 -21.63 -21.31 -19.54 -21.36 -17.5 -21.4 -15.52 -21.45 -13.61 -21.5 -11.78 -21.56 -10.02 -21.65 -8.32 -21.75 -6.68 -21.91 -5.09 -22.1 -3.55 -22.31 -2.05 -22.57 -0.58 -22.83 0.86 -23.14 2.3 -23.43 3.7 -23.73 5.09 -24.07 6.48 -24.35 7.83 -24.64 9.16 -24.93 10.47 -25.18 11.76 -25.46 12.99 -25.67 14.21 -25.9 15.4 -26.11 16.55 -26.3 17.64 -26.48 18.72 -26.65 19.75 15.7 -34.64 -79.57 5.69zm0 0l-1.55 -21.58 17.25 -13.06 -15.7 34.64zm85.96 83.66l-44.97 42.4 -34.61 -36.71 -6.39 -89.35 79.57 -5.69 6.39 89.35zm-44.97 42.4l-32.28 -4.23 -2.32 -32.49 34.61 36.71zm102.56 72.29l0.1 0.3 -1.56 -4.8 -1.67 -4.5 -1.76 -4.25 -1.85 -3.99 -1.94 -3.76 -2.02 -3.54 -2.09 -3.31 -2.17 -3.11 -2.27 -2.94 -2.34 -2.8 -2.4 -2.61 -2.55 -2.52 -2.63 -2.4 -2.75 -2.28 -2.85 -2.17 -2.97 -2.07 -3.1 -1.98 -3.25 -1.89 -3.39 -1.82 -3.53 -1.71 -3.69 -1.65 -3.81 -1.55 -3.98 -1.48 -4.09 -1.38 -4.29 -1.3 -4.45 -1.24 -4.5 -1.12 -4.71 -1.04 -4.83 -0.97 -4.95 -0.88 -5.07 -0.81 -5.19 -0.72 10.36 -79.11 6.6 0.93 6.58 1.04 6.54 1.17 6.51 1.31 6.48 1.45 6.5 1.62 6.39 1.77 6.36 1.94 6.36 2.14 6.28 2.32 6.23 2.54 6.15 2.75 6.07 2.97 5.99 3.2 5.9 3.45 5.79 3.69 5.69 3.96 5.55 4.23 5.38 4.47 5.23 4.75 5.06 5.01 4.9 5.31 4.66 5.54 4.45 5.81 4.23 6.08 3.99 6.3 3.75 6.54 3.5 6.78 3.26 7.03 3 7.22 2.75 7.47 2.49 7.68 0.1 0.3 -76.52 22.63zm76.42 -22.93l0.1 0.3 0.2 0.68 -0.3 -0.98zm149.2 504.28l-76.52 22.63 -149.11 -503.98 76.52 -22.63 149.11 503.98z"/>
  </g>
  <g>
   <polygon class="fil1" points="3003.97,1478.68 2967.66,1549.72 2955.03,1543.43 2942.56,1537.56 2930.24,1532.12 2918.08,1527.09 2906.08,1522.47 2894.26,1518.27 2882.57,1514.49 2871.08,1511.11 2859.75,1508.15 2848.58,1505.59 2837.58,1503.43 2826.76,1501.69 2816.09,1500.33 2805.59,1499.37 2795.26,1498.79 2785.08,1498.61 2775.07,1498.8 2765.21,1499.39 2755.47,1500.36 2745.86,1501.7 2736.4,1503.42 2727.06,1505.52 2717.82,1508 2708.71,1510.88 2699.66,1514.14 2690.73,1517.79 2681.88,1521.85 2673.08,1526.32 2664.36,1531.21 2655.71,1536.5 2647.13,1542.23 2638.6,1548.4 2590.62,1484.67 2601.55,1476.75 2612.69,1469.3 2624.02,1462.36 2635.5,1455.94 2647.16,1450.02 2659.01,1444.58 2671.02,1439.67 2683.18,1435.28 2695.49,1431.42 2707.93,1428.07 2720.51,1425.24 2733.2,1422.92 2746.01,1421.14 2758.9,1419.85 2771.91,1419.09 2785.03,1418.82 2798.2,1419.06 2811.46,1419.79 2824.79,1421.02 2838.16,1422.72 2851.63,1424.9 2865.18,1427.55 2878.75,1430.67 2892.42,1434.23 2906.14,1438.26 2919.91,1442.73 2933.76,1447.64 2947.66,1452.99 2961.64,1458.77 2975.69,1464.99 2989.79,1471.62 "/>
  </g>
  <g>
   <polygon class="fil1" points="3111.89,198.86 3041.53,236.47 3031.47,219.36 3020.25,203.36 3007.91,188.44 2994.52,174.58 2980.13,161.79 2964.82,150.08 2948.64,139.44 2931.68,129.91 2914.01,121.48 2895.72,114.2 2876.89,108.06 2857.6,103.1 2837.97,99.29 2818.08,96.7 2798.01,95.32 2777.88,95.13 2757.78,96.17 2737.8,98.43 2718.02,101.9 2698.57,106.61 2679.49,112.51 2660.93,119.63 2642.92,127.98 2625.55,137.53 2608.91,148.27 2593.06,160.23 2578.06,173.41 2563.99,187.81 2550.89,203.47 2538.83,220.41 2527.89,238.66 2518.13,258.29 2445.36,225.55 2457.88,200.38 2472.04,176.76 2487.72,154.73 2504.8,134.31 2523.15,115.52 2542.66,98.38 2563.21,82.88 2584.66,69.02 2606.91,56.79 2629.85,46.16 2653.38,37.13 2677.37,29.68 2701.74,23.8 2726.4,19.46 2751.23,16.64 2776.18,15.36 2801.12,15.58 2826,17.31 2850.7,20.53 2875.14,25.25 2899.22,31.46 2922.85,39.17 2945.96,48.38 2968.41,59.08 2990.13,71.29 3011.01,85.02 3030.93,100.27 3049.76,117.02 3067.4,135.26 3083.72,155.01 3098.59,176.23 "/>
  </g>
  <g>
   <path class="fil1" d="M2442.35 304.5l58.15 54.63 7.97 -12.52 -7.27 18.93 -6.49 18.45 -5.73 17.97 -4.97 17.49 -4.23 17.02 -3.49 16.55 -2.78 16.07 -2.06 15.59 -1.38 15.12 -0.69 14.65 -0.04 14.21 0.61 13.74 1.25 13.3 1.87 12.87 2.48 12.45 3.09 12.07 3.68 11.72 4.27 11.37 4.85 11.04 5.45 10.73 6.05 10.44 6.67 10.18 7.28 9.93 7.93 9.69 8.57 9.47 9.22 9.21 9.88 8.98 10.57 8.77 11.24 8.53 11.92 8.28 12.61 8.05 13.31 7.8 -39.11 69.55 -15.82 -9.28 -15.21 -9.7 -14.58 -10.14 -13.95 -10.58 -13.29 -11.01 -12.64 -11.49 -11.94 -11.95 -11.24 -12.4 -10.53 -12.87 -9.79 -13.34 -9.03 -13.79 -8.26 -14.24 -7.45 -14.67 -6.64 -15.09 -5.81 -15.49 -4.99 -15.88 -4.15 -16.25 -3.31 -16.59 -2.46 -16.94 -1.62 -17.26 -0.79 -17.56 0.04 -17.86 0.87 -18.18 1.68 -18.47 2.48 -18.78 3.3 -19.08 4.09 -19.36 4.88 -19.68 5.67 -20 6.47 -20.3 7.27 -20.64 8.04 -20.96 7.97 -12.52zm-7.97 12.52l2.8 -7.01 5.17 -5.51 -7.97 12.52zm684.27 -8.34l-79.72 3.18 18.39 32.03 -19.99 -12.46 -19.85 -11.77 -19.68 -11.05 -19.54 -10.32 -19.37 -9.58 -19.17 -8.8 -19.01 -8.03 -18.8 -7.24 -18.62 -6.44 -18.4 -5.61 -18.21 -4.8 -17.98 -3.96 -17.78 -3.12 -17.56 -2.27 -17.35 -1.41 -17.16 -0.56 -16.96 0.3 -16.76 1.19 -16.63 2.09 -16.47 2.98 -16.33 3.92 -16.23 4.86 -16.13 5.83 -16.07 6.83 -15.99 7.86 -15.95 8.93 -15.92 10.03 -15.87 11.16 -15.82 12.33 -15.8 13.54 -15.75 14.77 -15.7 16.03 -58.15 -54.63 18.02 -18.4 18.3 -17.16 18.55 -15.91 18.85 -14.68 19.12 -13.44 19.37 -12.21 19.62 -11 19.88 -9.77 20.1 -8.55 20.3 -7.34 20.49 -6.13 20.68 -4.96 20.8 -3.77 20.91 -2.63 21.02 -1.49 21.08 -0.39 21.14 0.68 21.19 1.73 21.21 2.75 21.24 3.72 21.25 4.68 21.27 5.6 21.28 6.5 21.29 7.35 21.31 8.19 21.32 9.02 21.33 9.79 21.35 10.55 21.37 11.29 21.41 12.02 21.43 12.71 21.45 13.38 18.39 32.03zm-18.39 -32.03l17.56 11.22 0.83 20.81 -18.39 -32.03zm-255.18 530.32l64.76 -46.6 -52.65 -11.06 12.53 -7.73 12 -8.07 11.5 -8.44 11 -8.78 10.5 -9.13 10.03 -9.49 9.57 -9.86 9.12 -10.21 8.67 -10.58 8.25 -10.97 7.81 -11.33 7.4 -11.73 6.98 -12.12 6.59 -12.53 6.16 -12.92 5.76 -13.34 5.37 -13.75 4.97 -14.18 4.56 -14.6 4.17 -15 3.76 -15.43 3.36 -15.85 2.96 -16.28 2.55 -16.7 2.17 -17.1 1.75 -17.54 1.37 -17.95 0.96 -18.36 0.57 -18.76 0.17 -19.16 -0.22 -19.59 -0.6 -19.96 79.72 -3.18 0.65 21.48 0.24 21.14 -0.19 20.83 -0.63 20.49 -1.05 20.16 -1.51 19.84 -1.96 19.5 -2.41 19.17 -2.89 18.84 -3.37 18.51 -3.85 18.17 -4.34 17.82 -4.84 17.48 -5.36 17.11 -5.87 16.76 -6.39 16.41 -6.93 16.03 -7.47 15.65 -8.02 15.26 -8.56 14.88 -9.13 14.45 -9.67 14.04 -10.25 13.6 -10.79 13.18 -11.37 12.72 -11.91 12.26 -12.47 11.81 -13.03 11.32 -13.58 10.85 -14.12 10.35 -14.66 9.87 -15.2 9.37 -52.65 -11.06zm52.65 11.06l-31.37 18.51 -21.28 -29.57 52.65 11.06zm-324.66 -1.18l39.11 -69.55 -52.27 11.95 9.64 -13.37 9.75 -12.62 9.86 -11.85 10.01 -11.09 10.17 -10.34 10.35 -9.57 10.55 -8.79 10.78 -8 11.05 -7.2 11.28 -6.32 11.55 -5.45 11.83 -4.5 12.06 -3.52 12.23 -2.47 12.36 -1.41 12.43 -0.31 12.4 0.79 12.27 1.87 12.11 2.88 11.9 3.88 11.62 4.8 11.38 5.68 11.11 6.51 10.86 7.3 10.63 8.05 10.42 8.79 10.24 9.49 10.07 10.19 9.94 10.9 9.8 11.58 9.7 12.26 9.6 12.95 -64.76 46.6 -8.2 -11.06 -8.11 -10.25 -8 -9.46 -7.87 -8.64 -7.73 -7.82 -7.57 -7.04 -7.38 -6.22 -7.18 -5.44 -6.94 -4.67 -6.69 -3.92 -6.43 -3.21 -6.19 -2.55 -5.9 -1.94 -5.69 -1.36 -5.53 -0.84 -5.4 -0.34 -5.36 0.13 -5.45 0.63 -5.57 1.12 -5.75 1.68 -5.98 2.27 -6.25 2.95 -6.52 3.65 -6.75 4.4 -7.03 5.22 -7.26 6.05 -7.45 6.89 -7.63 7.76 -7.8 8.65 -7.94 9.53 -8.05 10.41 -8.16 11.32 -52.27 11.95zm52.27 -11.95l-20.71 29.7 -31.56 -17.75 52.27 -11.95z"/>
  </g>
  <g>
   <path class="fil1" d="M2726.19 369.68l5.75 79.57 0.19 -0.01 -4.94 0.57 -4.7 0.9 -4.48 1.23 -4.27 1.53 -4.1 1.84 -3.9 2.09 -3.71 2.39 -3.56 2.67 -3.35 2.9 -3.14 3.15 -2.94 3.4 -2.73 3.63 -2.46 3.78 -2.23 4.03 -1.97 4.18 -1.67 4.3 -1.4 4.49 -1.1 4.56 -0.78 4.65 -0.47 4.76 -0.13 4.8 0.2 4.84 0.55 4.9 0.91 4.93 1.28 4.95 1.67 4.96 2.09 5 2.54 5.02 2.99 5.02 3.48 5.01 4.04 5.02 4.61 5.01 -56.87 55.95 -8.19 -8.9 -7.43 -9.25 -6.67 -9.57 -5.87 -9.83 -5.07 -10.04 -4.29 -10.22 -3.51 -10.39 -2.71 -10.47 -1.94 -10.48 -1.18 -10.48 -0.43 -10.45 0.29 -10.35 1 -10.21 1.68 -10.08 2.37 -9.88 3.01 -9.62 3.65 -9.41 4.27 -9.08 4.86 -8.77 5.48 -8.45 6.04 -8.02 6.59 -7.61 7.17 -7.18 7.68 -6.67 8.18 -6.12 8.7 -5.57 9.17 -4.94 9.58 -4.28 10.02 -3.58 10.35 -2.84 10.68 -2.07 10.95 -1.26 0.19 -0.01zm-0.19 0.01l0.19 -0.01 -1.18 0.09 0.99 -0.08zm91.09 260.07l-40.43 -68.77 4.67 -3.05 4.04 -3.2 3.47 -3.33 2.99 -3.49 2.58 -3.66 2.17 -3.81 1.82 -4.02 1.49 -4.24 1.13 -4.44 0.77 -4.58 0.39 -4.78 0.03 -4.91 -0.37 -4.98 -0.75 -5.02 -1.15 -5.03 -1.54 -4.99 -1.9 -4.91 -2.24 -4.73 -2.61 -4.55 -2.93 -4.37 -3.2 -4.07 -3.47 -3.77 -3.77 -3.47 -4.01 -3.16 -4.23 -2.78 -4.48 -2.42 -4.76 -2.06 -5.04 -1.68 -5.35 -1.27 -5.72 -0.82 -6.13 -0.34 -6.61 0.19 -5.75 -79.57 13.33 -0.41 13.05 0.73 12.68 1.83 12.26 2.9 11.72 3.89 11.15 4.84 10.55 5.69 9.89 6.5 9.16 7.17 8.47 7.81 7.75 8.4 7.02 8.89 6.25 9.3 5.52 9.7 4.78 10.07 4 10.32 3.24 10.56 2.46 10.79 1.65 10.96 0.81 11.09 -0.04 11.15 -0.94 11.18 -1.87 11.17 -2.83 11.07 -3.82 10.87 -4.84 10.65 -5.9 10.32 -6.93 9.83 -7.97 9.29 -8.98 8.62 -9.91 7.87 -10.8 7.03z"/>
  </g>
 </g>
</svg>
