<?xml version="1.0" encoding="UTF-8"?>
<!DOCTYPE svg PUBLIC "-//W3C//DTD SVG 1.1//EN" "http://www.w3.org/Graphics/SVG/1.1/DTD/svg11.dtd">
<!-- Creator: CorelDRAW 2018 (64-Bit Evaluation Version) -->
<svg xmlns="http://www.w3.org/2000/svg" xml:space="preserve" width="79.5927mm" height="53.068mm" version="1.1" style="shape-rendering:geometricPrecision; text-rendering:geometricPrecision; image-rendering:optimizeQuality; fill-rule:evenodd; clip-rule:evenodd"
viewBox="0 0 7357.93 4905.86"
 xmlns:xlink="http://www.w3.org/1999/xlink">
 <defs>
  <style type="text/css">
   <![CDATA[
    .fil0 {fill:none;}
    .fil1 {fill:#FBD13E;fill-rule:nonzero}
   ]]>
  </style>
      <mask id="id0">
  <linearGradient id="id1" gradientUnits="userSpaceOnUse" x1="1937.12" y1="730.18" x2="4848.31" y2="5927.47">
   <stop offset="0" style="stop-opacity:1; stop-color:white"/>
   <stop offset="1" style="stop-opacity:0; stop-color:white"/>
  </linearGradient>
       <rect style="fill:url(#id1)" x="662.26" y="730.17" width="791.11" height="469.79"/>
      </mask>
      <mask id="id2">
  <linearGradient id="id3" gradientUnits="userSpaceOnUse" x1="2056.15" y1="686.76" x2="4756.4" y2="5740.39">
   <stop offset="0" style="stop-opacity:1; stop-color:white"/>
   <stop offset="1" style="stop-opacity:0; stop-color:white"/>
  </linearGradient>
       <rect style="fill:url(#id3)" x="672.43" y="965.41" width="416.31" height="664.65"/>
      </mask>
      <mask id="id4">
  <linearGradient id="id5" gradientUnits="userSpaceOnUse" x1="2025.14" y1="685.51" x2="4638.66" y2="5618.83">
   <stop offset="0" style="stop-opacity:1; stop-color:white"/>
   <stop offset="1" style="stop-opacity:0; stop-color:white"/>
  </linearGradient>
       <rect style="fill:url(#id5)" x="1055.28" y="965.8" width="381.01" height="646.38"/>
      </mask>
      <mask id="id6">
  <linearGradient id="id7" gradientUnits="userSpaceOnUse" x1="1719.39" y1="806.21" x2="4630.58" y2="6003.51">
   <stop offset="0" style="stop-opacity:1; stop-color:white"/>
   <stop offset="1" style="stop-opacity:0; stop-color:white"/>
  </linearGradient>
       <rect style="fill:url(#id7)" x="2629.66" y="43.18" width="791.11" height="469.79"/>
      </mask>
      <mask id="id8">
  <linearGradient id="id9" gradientUnits="userSpaceOnUse" x1="1844.07" y1="725.75" x2="4544.33" y2="5779.37">
   <stop offset="0" style="stop-opacity:1; stop-color:white"/>
   <stop offset="1" style="stop-opacity:0; stop-color:white"/>
  </linearGradient>
       <rect style="fill:url(#id9)" x="2639.82" y="278.43" width="416.32" height="664.65"/>
      </mask>
      <mask id="id10">
  <linearGradient id="id11" gradientUnits="userSpaceOnUse" x1="1854.75" y1="704.55" x2="4468.27" y2="5637.87">
   <stop offset="0" style="stop-opacity:1; stop-color:white"/>
   <stop offset="1" style="stop-opacity:0; stop-color:white"/>
  </linearGradient>
       <rect style="fill:url(#id11)" x="3022.67" y="278.82" width="381.02" height="646.38"/>
      </mask>
      <mask id="id12">
  <linearGradient id="id13" gradientUnits="userSpaceOnUse" x1="1893.79" y1="652.38" x2="4804.98" y2="5849.68">
   <stop offset="0" style="stop-opacity:1; stop-color:white"/>
   <stop offset="1" style="stop-opacity:0; stop-color:white"/>
  </linearGradient>
       <rect style="fill:url(#id13)" x="1053.75" y="1433.06" width="791.11" height="469.79"/>
      </mask>
      <mask id="id14">
  <linearGradient id="id15" gradientUnits="userSpaceOnUse" x1="2013.94" y1="646.87" x2="4714.2" y2="5700.49">
   <stop offset="0" style="stop-opacity:1; stop-color:white"/>
   <stop offset="1" style="stop-opacity:0; stop-color:white"/>
  </linearGradient>
       <rect style="fill:url(#id15)" x="1063.92" y="1668.3" width="416.32" height="664.65"/>
      </mask>
      <mask id="id16">
  <linearGradient id="id17" gradientUnits="userSpaceOnUse" x1="1991.24" y1="666.04" x2="4604.75" y2="5599.36">
   <stop offset="0" style="stop-opacity:1; stop-color:white"/>
   <stop offset="1" style="stop-opacity:0; stop-color:white"/>
  </linearGradient>
       <rect style="fill:url(#id17)" x="1446.76" y="1668.69" width="381.01" height="646.38"/>
      </mask>
      <mask id="id18">
  <linearGradient id="id19" gradientUnits="userSpaceOnUse" x1="1849.22" y1="576.16" x2="4760.41" y2="5773.46">
   <stop offset="0" style="stop-opacity:1; stop-color:white"/>
   <stop offset="1" style="stop-opacity:0; stop-color:white"/>
  </linearGradient>
       <rect style="fill:url(#id19)" x="1456.53" y="2121.73" width="791.11" height="469.79"/>
      </mask>
      <mask id="id20">
  <linearGradient id="id21" gradientUnits="userSpaceOnUse" x1="1970.52" y1="607.79" x2="4670.78" y2="5661.41">
   <stop offset="0" style="stop-opacity:1; stop-color:white"/>
   <stop offset="1" style="stop-opacity:0; stop-color:white"/>
  </linearGradient>
       <rect style="fill:url(#id21)" x="1466.7" y="2356.98" width="416.32" height="664.65"/>
      </mask>
      <mask id="id22">
  <linearGradient id="id23" gradientUnits="userSpaceOnUse" x1="1956.35" y1="646.96" x2="4569.87" y2="5580.28">
   <stop offset="0" style="stop-opacity:1; stop-color:white"/>
   <stop offset="1" style="stop-opacity:0; stop-color:white"/>
  </linearGradient>
       <rect style="fill:url(#id23)" x="1849.54" y="2357.37" width="381.02" height="646.38"/>
      </mask>
      <mask id="id24">
  <linearGradient id="id25" gradientUnits="userSpaceOnUse" x1="1804.64" y1="499.94" x2="4715.83" y2="5697.23">
   <stop offset="0" style="stop-opacity:1; stop-color:white"/>
   <stop offset="1" style="stop-opacity:0; stop-color:white"/>
  </linearGradient>
       <rect style="fill:url(#id25)" x="1859.31" y="2810.4" width="791.12" height="469.79"/>
      </mask>
      <mask id="id26">
  <linearGradient id="id27" gradientUnits="userSpaceOnUse" x1="1927.11" y1="568.71" x2="4627.36" y2="5622.33">
   <stop offset="0" style="stop-opacity:1; stop-color:white"/>
   <stop offset="1" style="stop-opacity:0; stop-color:white"/>
  </linearGradient>
       <rect style="fill:url(#id27)" x="1869.48" y="3045.65" width="416.32" height="664.65"/>
      </mask>
      <mask id="id28">
  <linearGradient id="id29" gradientUnits="userSpaceOnUse" x1="1921.46" y1="627.88" x2="4534.98" y2="5561.2">
   <stop offset="0" style="stop-opacity:1; stop-color:white"/>
   <stop offset="1" style="stop-opacity:0; stop-color:white"/>
  </linearGradient>
       <rect style="fill:url(#id29)" x="2252.32" y="3046.04" width="381.02" height="646.38"/>
      </mask>
      <mask id="id30">
  <linearGradient id="id31" gradientUnits="userSpaceOnUse" x1="1760.07" y1="423.71" x2="4671.26" y2="5621.01">
   <stop offset="0" style="stop-opacity:1; stop-color:white"/>
   <stop offset="1" style="stop-opacity:0; stop-color:white"/>
  </linearGradient>
       <rect style="fill:url(#id31)" x="2262.1" y="3499.08" width="791.11" height="469.79"/>
      </mask>
      <mask id="id32">
  <linearGradient id="id33" gradientUnits="userSpaceOnUse" x1="1883.69" y1="529.62" x2="4583.95" y2="5583.25">
   <stop offset="0" style="stop-opacity:1; stop-color:white"/>
   <stop offset="1" style="stop-opacity:0; stop-color:white"/>
  </linearGradient>
       <rect style="fill:url(#id33)" x="2272.27" y="3734.32" width="416.31" height="664.65"/>
      </mask>
      <mask id="id34">
  <linearGradient id="id35" gradientUnits="userSpaceOnUse" x1="1886.58" y1="608.79" x2="4500.1" y2="5542.12">
   <stop offset="0" style="stop-opacity:1; stop-color:white"/>
   <stop offset="1" style="stop-opacity:0; stop-color:white"/>
  </linearGradient>
       <rect style="fill:url(#id35)" x="2655.11" y="3734.71" width="381.01" height="646.38"/>
      </mask>
      <mask id="id36">
  <linearGradient id="id37" gradientUnits="userSpaceOnUse" x1="1849.94" y1="730.18" x2="4761.13" y2="5927.47">
   <stop offset="0" style="stop-opacity:1; stop-color:white"/>
   <stop offset="1" style="stop-opacity:0; stop-color:white"/>
  </linearGradient>
       <rect style="fill:url(#id37)" x="1450.03" y="730.17" width="791.11" height="469.79"/>
      </mask>
      <mask id="id38">
  <linearGradient id="id39" gradientUnits="userSpaceOnUse" x1="1971.22" y1="686.76" x2="4671.48" y2="5740.38">
   <stop offset="0" style="stop-opacity:1; stop-color:white"/>
   <stop offset="1" style="stop-opacity:0; stop-color:white"/>
  </linearGradient>
       <rect style="fill:url(#id39)" x="1460.2" y="965.41" width="416.32" height="664.65"/>
      </mask>
      <mask id="id40">
  <linearGradient id="id41" gradientUnits="userSpaceOnUse" x1="1956.91" y1="685.51" x2="4570.43" y2="5618.83">
   <stop offset="0" style="stop-opacity:1; stop-color:white"/>
   <stop offset="1" style="stop-opacity:0; stop-color:white"/>
  </linearGradient>
       <rect style="fill:url(#id41)" x="1843.04" y="965.8" width="381.01" height="646.38"/>
      </mask>
      <mask id="id42">
  <linearGradient id="id43" gradientUnits="userSpaceOnUse" x1="1806.61" y1="652.38" x2="4717.8" y2="5849.68">
   <stop offset="0" style="stop-opacity:1; stop-color:white"/>
   <stop offset="1" style="stop-opacity:0; stop-color:white"/>
  </linearGradient>
       <rect style="fill:url(#id43)" x="1841.52" y="1433.06" width="791.11" height="469.79"/>
      </mask>
      <mask id="id44">
  <linearGradient id="id45" gradientUnits="userSpaceOnUse" x1="1929.03" y1="646.87" x2="4629.28" y2="5700.49">
   <stop offset="0" style="stop-opacity:1; stop-color:white"/>
   <stop offset="1" style="stop-opacity:0; stop-color:white"/>
  </linearGradient>
       <rect style="fill:url(#id45)" x="1851.69" y="1668.3" width="416.32" height="664.65"/>
      </mask>
      <mask id="id46">
  <linearGradient id="id47" gradientUnits="userSpaceOnUse" x1="1923.01" y1="666.04" x2="4536.52" y2="5599.36">
   <stop offset="0" style="stop-opacity:1; stop-color:white"/>
   <stop offset="1" style="stop-opacity:0; stop-color:white"/>
  </linearGradient>
       <rect style="fill:url(#id47)" x="2234.53" y="1668.69" width="381.02" height="646.38"/>
      </mask>
      <mask id="id48">
  <linearGradient id="id49" gradientUnits="userSpaceOnUse" x1="1762.03" y1="576.16" x2="4673.23" y2="5773.46">
   <stop offset="0" style="stop-opacity:1; stop-color:white"/>
   <stop offset="1" style="stop-opacity:0; stop-color:white"/>
  </linearGradient>
       <rect style="fill:url(#id49)" x="2244.3" y="2121.73" width="791.12" height="469.79"/>
      </mask>
      <mask id="id50">
  <linearGradient id="id51" gradientUnits="userSpaceOnUse" x1="1885.61" y1="607.79" x2="4585.86" y2="5661.41">
   <stop offset="0" style="stop-opacity:1; stop-color:white"/>
   <stop offset="1" style="stop-opacity:0; stop-color:white"/>
  </linearGradient>
       <rect style="fill:url(#id51)" x="2254.47" y="2356.98" width="416.32" height="664.65"/>
      </mask>
      <mask id="id52">
  <linearGradient id="id53" gradientUnits="userSpaceOnUse" x1="1888.12" y1="646.96" x2="4501.64" y2="5580.28">
   <stop offset="0" style="stop-opacity:1; stop-color:white"/>
   <stop offset="1" style="stop-opacity:0; stop-color:white"/>
  </linearGradient>
       <rect style="fill:url(#id53)" x="2637.31" y="2357.37" width="381.02" height="646.38"/>
      </mask>
      <mask id="id54">
  <linearGradient id="id55" gradientUnits="userSpaceOnUse" x1="1717.46" y1="499.94" x2="4628.65" y2="5697.24">
   <stop offset="0" style="stop-opacity:1; stop-color:white"/>
   <stop offset="1" style="stop-opacity:0; stop-color:white"/>
  </linearGradient>
       <rect style="fill:url(#id55)" x="2647.09" y="2810.4" width="791.11" height="469.79"/>
      </mask>
      <mask id="id56">
  <linearGradient id="id57" gradientUnits="userSpaceOnUse" x1="1842.19" y1="568.71" x2="4542.45" y2="5622.33">
   <stop offset="0" style="stop-opacity:1; stop-color:white"/>
   <stop offset="1" style="stop-opacity:0; stop-color:white"/>
  </linearGradient>
       <rect style="fill:url(#id57)" x="2657.26" y="3045.65" width="416.31" height="664.65"/>
      </mask>
      <mask id="id58">
  <linearGradient id="id59" gradientUnits="userSpaceOnUse" x1="1853.24" y1="627.88" x2="4466.76" y2="5561.2">
   <stop offset="0" style="stop-opacity:1; stop-color:white"/>
   <stop offset="1" style="stop-opacity:0; stop-color:white"/>
  </linearGradient>
       <rect style="fill:url(#id59)" x="3040.1" y="3046.04" width="381.01" height="646.38"/>
      </mask>
      <mask id="id60">
  <linearGradient id="id61" gradientUnits="userSpaceOnUse" x1="1672.88" y1="423.71" x2="4584.08" y2="5621.01">
   <stop offset="0" style="stop-opacity:1; stop-color:white"/>
   <stop offset="1" style="stop-opacity:0; stop-color:white"/>
  </linearGradient>
       <rect style="fill:url(#id61)" x="3049.87" y="3499.08" width="791.11" height="469.79"/>
      </mask>
      <mask id="id62">
  <linearGradient id="id63" gradientUnits="userSpaceOnUse" x1="1798.77" y1="529.63" x2="4499.03" y2="5583.25">
   <stop offset="0" style="stop-opacity:1; stop-color:white"/>
   <stop offset="1" style="stop-opacity:0; stop-color:white"/>
  </linearGradient>
       <rect style="fill:url(#id63)" x="3060.04" y="3734.32" width="416.32" height="664.65"/>
      </mask>
      <mask id="id64">
  <linearGradient id="id65" gradientUnits="userSpaceOnUse" x1="1818.36" y1="608.8" x2="4431.87" y2="5542.12">
   <stop offset="0" style="stop-opacity:1; stop-color:white"/>
   <stop offset="1" style="stop-opacity:0; stop-color:white"/>
  </linearGradient>
       <rect style="fill:url(#id65)" x="3442.88" y="3734.71" width="381.02" height="646.38"/>
      </mask>
      <mask id="id66">
  <linearGradient id="id67" gradientUnits="userSpaceOnUse" x1="1761.54" y1="730.18" x2="4672.73" y2="5927.47">
   <stop offset="0" style="stop-opacity:1; stop-color:white"/>
   <stop offset="1" style="stop-opacity:0; stop-color:white"/>
  </linearGradient>
       <rect style="fill:url(#id67)" x="2248.8" y="730.17" width="791.11" height="469.79"/>
      </mask>
      <mask id="id68">
  <linearGradient id="id69" gradientUnits="userSpaceOnUse" x1="1885.12" y1="686.76" x2="4585.38" y2="5740.38">
   <stop offset="0" style="stop-opacity:1; stop-color:white"/>
   <stop offset="1" style="stop-opacity:0; stop-color:white"/>
  </linearGradient>
       <rect style="fill:url(#id69)" x="2258.97" y="965.41" width="416.32" height="664.65"/>
      </mask>
      <mask id="id70">
  <linearGradient id="id71" gradientUnits="userSpaceOnUse" x1="1887.73" y1="685.51" x2="4501.25" y2="5618.83">
   <stop offset="0" style="stop-opacity:1; stop-color:white"/>
   <stop offset="1" style="stop-opacity:0; stop-color:white"/>
  </linearGradient>
       <rect style="fill:url(#id71)" x="2641.81" y="965.8" width="381.02" height="646.38"/>
      </mask>
      <mask id="id72">
  <linearGradient id="id73" gradientUnits="userSpaceOnUse" x1="1718.21" y1="652.38" x2="4629.4" y2="5849.68">
   <stop offset="0" style="stop-opacity:1; stop-color:white"/>
   <stop offset="1" style="stop-opacity:0; stop-color:white"/>
  </linearGradient>
       <rect style="fill:url(#id73)" x="2640.29" y="1433.06" width="791.11" height="469.79"/>
      </mask>
      <mask id="id74">
  <linearGradient id="id75" gradientUnits="userSpaceOnUse" x1="1842.92" y1="646.87" x2="4543.18" y2="5700.49">
   <stop offset="0" style="stop-opacity:1; stop-color:white"/>
   <stop offset="1" style="stop-opacity:0; stop-color:white"/>
  </linearGradient>
       <rect style="fill:url(#id75)" x="2650.46" y="1668.3" width="416.32" height="664.65"/>
      </mask>
      <mask id="id76">
  <linearGradient id="id77" gradientUnits="userSpaceOnUse" x1="1853.83" y1="666.04" x2="4467.35" y2="5599.36">
   <stop offset="0" style="stop-opacity:1; stop-color:white"/>
   <stop offset="1" style="stop-opacity:0; stop-color:white"/>
  </linearGradient>
       <rect style="fill:url(#id77)" x="3033.3" y="1668.69" width="381.02" height="646.38"/>
      </mask>
      <mask id="id78">
  <linearGradient id="id79" gradientUnits="userSpaceOnUse" x1="1673.64" y1="576.16" x2="4584.83" y2="5773.46">
   <stop offset="0" style="stop-opacity:1; stop-color:white"/>
   <stop offset="1" style="stop-opacity:0; stop-color:white"/>
  </linearGradient>
       <rect style="fill:url(#id79)" x="3043.07" y="2121.73" width="791.12" height="469.79"/>
      </mask>
      <mask id="id80">
  <linearGradient id="id81" gradientUnits="userSpaceOnUse" x1="1799.51" y1="607.79" x2="4499.76" y2="5661.41">
   <stop offset="0" style="stop-opacity:1; stop-color:white"/>
   <stop offset="1" style="stop-opacity:0; stop-color:white"/>
  </linearGradient>
       <rect style="fill:url(#id81)" x="3053.25" y="2356.98" width="416.31" height="664.65"/>
      </mask>
      <mask id="id82">
  <linearGradient id="id83" gradientUnits="userSpaceOnUse" x1="1818.95" y1="646.96" x2="4432.46" y2="5580.28">
   <stop offset="0" style="stop-opacity:1; stop-color:white"/>
   <stop offset="1" style="stop-opacity:0; stop-color:white"/>
  </linearGradient>
       <rect style="fill:url(#id83)" x="3436.09" y="2357.37" width="381.01" height="646.38"/>
      </mask>
      <mask id="id84">
  <linearGradient id="id85" gradientUnits="userSpaceOnUse" x1="1629.06" y1="499.94" x2="4540.25" y2="5697.24">
   <stop offset="0" style="stop-opacity:1; stop-color:white"/>
   <stop offset="1" style="stop-opacity:0; stop-color:white"/>
  </linearGradient>
       <rect style="fill:url(#id85)" x="3445.86" y="2810.4" width="791.11" height="469.79"/>
      </mask>
      <mask id="id86">
  <linearGradient id="id87" gradientUnits="userSpaceOnUse" x1="1756.09" y1="568.71" x2="4456.35" y2="5622.33">
   <stop offset="0" style="stop-opacity:1; stop-color:white"/>
   <stop offset="1" style="stop-opacity:0; stop-color:white"/>
  </linearGradient>
       <rect style="fill:url(#id87)" x="3456.03" y="3045.65" width="416.32" height="664.65"/>
      </mask>
      <mask id="id88">
  <linearGradient id="id89" gradientUnits="userSpaceOnUse" x1="1784.06" y1="627.88" x2="4397.58" y2="5561.2">
   <stop offset="0" style="stop-opacity:1; stop-color:white"/>
   <stop offset="1" style="stop-opacity:0; stop-color:white"/>
  </linearGradient>
       <rect style="fill:url(#id89)" x="3838.87" y="3046.04" width="381.01" height="646.38"/>
      </mask>
      <mask id="id90">
  <linearGradient id="id91" gradientUnits="userSpaceOnUse" x1="1584.49" y1="423.71" x2="4495.68" y2="5621.01">
   <stop offset="0" style="stop-opacity:1; stop-color:white"/>
   <stop offset="1" style="stop-opacity:0; stop-color:white"/>
  </linearGradient>
       <rect style="fill:url(#id91)" x="3848.64" y="3499.08" width="791.11" height="469.79"/>
      </mask>
      <mask id="id92">
  <linearGradient id="id93" gradientUnits="userSpaceOnUse" x1="1712.67" y1="529.63" x2="4412.93" y2="5583.25">
   <stop offset="0" style="stop-opacity:1; stop-color:white"/>
   <stop offset="1" style="stop-opacity:0; stop-color:white"/>
  </linearGradient>
       <rect style="fill:url(#id93)" x="3858.81" y="3734.32" width="416.32" height="664.65"/>
      </mask>
      <mask id="id94">
  <linearGradient id="id95" gradientUnits="userSpaceOnUse" x1="1749.18" y1="608.8" x2="4362.7" y2="5542.12">
   <stop offset="0" style="stop-opacity:1; stop-color:white"/>
   <stop offset="1" style="stop-opacity:0; stop-color:white"/>
  </linearGradient>
       <rect style="fill:url(#id95)" x="4241.65" y="3734.71" width="381.02" height="646.38"/>
      </mask>
      <mask id="id96">
  <linearGradient id="id97" gradientUnits="userSpaceOnUse" x1="1672.29" y1="730.18" x2="4583.49" y2="5927.47">
   <stop offset="0" style="stop-opacity:1; stop-color:white"/>
   <stop offset="1" style="stop-opacity:0; stop-color:white"/>
  </linearGradient>
       <rect style="fill:url(#id97)" x="3055.22" y="730.17" width="791.12" height="469.79"/>
      </mask>
      <mask id="id98">
  <linearGradient id="id99" gradientUnits="userSpaceOnUse" x1="1798.2" y1="686.76" x2="4498.45" y2="5740.39">
   <stop offset="0" style="stop-opacity:1; stop-color:white"/>
   <stop offset="1" style="stop-opacity:0; stop-color:white"/>
  </linearGradient>
       <rect style="fill:url(#id99)" x="3065.39" y="965.41" width="416.31" height="664.65"/>
      </mask>
      <mask id="id100">
  <linearGradient id="id101" gradientUnits="userSpaceOnUse" x1="1817.89" y1="685.51" x2="4431.41" y2="5618.83">
   <stop offset="0" style="stop-opacity:1; stop-color:white"/>
   <stop offset="1" style="stop-opacity:0; stop-color:white"/>
  </linearGradient>
       <rect style="fill:url(#id101)" x="3448.23" y="965.8" width="381.01" height="646.38"/>
      </mask>
      <mask id="id102">
  <linearGradient id="id103" gradientUnits="userSpaceOnUse" x1="1628.97" y1="652.38" x2="4540.16" y2="5849.68">
   <stop offset="0" style="stop-opacity:1; stop-color:white"/>
   <stop offset="1" style="stop-opacity:0; stop-color:white"/>
  </linearGradient>
       <rect style="fill:url(#id103)" x="3446.71" y="1433.06" width="791.11" height="469.79"/>
      </mask>
      <mask id="id104">
  <linearGradient id="id105" gradientUnits="userSpaceOnUse" x1="1756" y1="646.87" x2="4456.25" y2="5700.49">
   <stop offset="0" style="stop-opacity:1; stop-color:white"/>
   <stop offset="1" style="stop-opacity:0; stop-color:white"/>
  </linearGradient>
       <rect style="fill:url(#id105)" x="3456.88" y="1668.3" width="416.32" height="664.65"/>
      </mask>
      <mask id="id106">
  <linearGradient id="id107" gradientUnits="userSpaceOnUse" x1="1783.99" y1="666.04" x2="4397.5" y2="5599.36">
   <stop offset="0" style="stop-opacity:1; stop-color:white"/>
   <stop offset="1" style="stop-opacity:0; stop-color:white"/>
  </linearGradient>
       <rect style="fill:url(#id107)" x="3839.72" y="1668.69" width="381.01" height="646.38"/>
      </mask>
      <mask id="id108">
  <linearGradient id="id109" gradientUnits="userSpaceOnUse" x1="1584.39" y1="576.16" x2="4495.58" y2="5773.46">
   <stop offset="0" style="stop-opacity:1; stop-color:white"/>
   <stop offset="1" style="stop-opacity:0; stop-color:white"/>
  </linearGradient>
       <rect style="fill:url(#id109)" x="3849.49" y="2121.73" width="791.11" height="469.79"/>
      </mask>
      <mask id="id110">
  <linearGradient id="id111" gradientUnits="userSpaceOnUse" x1="1712.58" y1="607.79" x2="4412.84" y2="5661.41">
   <stop offset="0" style="stop-opacity:1; stop-color:white"/>
   <stop offset="1" style="stop-opacity:0; stop-color:white"/>
  </linearGradient>
       <rect style="fill:url(#id111)" x="3859.66" y="2356.98" width="416.32" height="664.65"/>
      </mask>
      <mask id="id112">
  <linearGradient id="id113" gradientUnits="userSpaceOnUse" x1="1749.11" y1="646.96" x2="4362.62" y2="5580.28">
   <stop offset="0" style="stop-opacity:1; stop-color:white"/>
   <stop offset="1" style="stop-opacity:0; stop-color:white"/>
  </linearGradient>
       <rect style="fill:url(#id113)" x="4242.5" y="2357.37" width="381.02" height="646.38"/>
      </mask>
      <mask id="id114">
  <linearGradient id="id115" gradientUnits="userSpaceOnUse" x1="1539.82" y1="499.94" x2="4451.01" y2="5697.23">
   <stop offset="0" style="stop-opacity:1; stop-color:white"/>
   <stop offset="1" style="stop-opacity:0; stop-color:white"/>
  </linearGradient>
       <rect style="fill:url(#id115)" x="4252.27" y="2810.4" width="791.12" height="469.79"/>
      </mask>
      <mask id="id116">
  <linearGradient id="id117" gradientUnits="userSpaceOnUse" x1="1669.16" y1="568.71" x2="4369.42" y2="5622.33">
   <stop offset="0" style="stop-opacity:1; stop-color:white"/>
   <stop offset="1" style="stop-opacity:0; stop-color:white"/>
  </linearGradient>
       <rect style="fill:url(#id117)" x="4262.44" y="3045.65" width="416.32" height="664.65"/>
      </mask>
      <mask id="id118">
  <linearGradient id="id119" gradientUnits="userSpaceOnUse" x1="1714.22" y1="627.88" x2="4327.74" y2="5561.2">
   <stop offset="0" style="stop-opacity:1; stop-color:white"/>
   <stop offset="1" style="stop-opacity:0; stop-color:white"/>
  </linearGradient>
       <rect style="fill:url(#id119)" x="4645.28" y="3046.04" width="381.02" height="646.38"/>
      </mask>
      <mask id="id120">
  <linearGradient id="id121" gradientUnits="userSpaceOnUse" x1="1495.24" y1="423.71" x2="4406.43" y2="5621.01">
   <stop offset="0" style="stop-opacity:1; stop-color:white"/>
   <stop offset="1" style="stop-opacity:0; stop-color:white"/>
  </linearGradient>
       <rect style="fill:url(#id121)" x="4655.06" y="3499.08" width="791.11" height="469.79"/>
      </mask>
      <mask id="id122">
  <linearGradient id="id123" gradientUnits="userSpaceOnUse" x1="1625.74" y1="529.62" x2="4326" y2="5583.25">
   <stop offset="0" style="stop-opacity:1; stop-color:white"/>
   <stop offset="1" style="stop-opacity:0; stop-color:white"/>
  </linearGradient>
       <rect style="fill:url(#id123)" x="4665.23" y="3734.32" width="416.31" height="664.65"/>
      </mask>
      <mask id="id124">
  <linearGradient id="id125" gradientUnits="userSpaceOnUse" x1="1679.34" y1="608.79" x2="4292.85" y2="5542.12">
   <stop offset="0" style="stop-opacity:1; stop-color:white"/>
   <stop offset="1" style="stop-opacity:0; stop-color:white"/>
  </linearGradient>
       <rect style="fill:url(#id125)" x="5048.07" y="3734.71" width="381.01" height="646.38"/>
      </mask>
      <mask id="id126">
  <linearGradient id="id127" gradientUnits="userSpaceOnUse" x1="1455.01" y1="652.38" x2="4366.2" y2="5849.68">
   <stop offset="0" style="stop-opacity:1; stop-color:white"/>
   <stop offset="1" style="stop-opacity:0; stop-color:white"/>
  </linearGradient>
       <rect style="fill:url(#id127)" x="5018.57" y="1433.06" width="791.11" height="469.79"/>
      </mask>
      <mask id="id128">
  <linearGradient id="id129" gradientUnits="userSpaceOnUse" x1="1586.56" y1="646.87" x2="4286.82" y2="5700.49">
   <stop offset="0" style="stop-opacity:1; stop-color:white"/>
   <stop offset="1" style="stop-opacity:0; stop-color:white"/>
  </linearGradient>
       <rect style="fill:url(#id129)" x="5028.73" y="1668.3" width="416.32" height="664.65"/>
      </mask>
      <mask id="id130">
  <linearGradient id="id131" gradientUnits="userSpaceOnUse" x1="1647.86" y1="666.04" x2="4261.38" y2="5599.36">
   <stop offset="0" style="stop-opacity:1; stop-color:white"/>
   <stop offset="1" style="stop-opacity:0; stop-color:white"/>
  </linearGradient>
       <rect style="fill:url(#id131)" x="5411.58" y="1668.69" width="381.02" height="646.38"/>
      </mask>
      <mask id="id132">
  <linearGradient id="id133" gradientUnits="userSpaceOnUse" x1="1410.44" y1="576.16" x2="4321.63" y2="5773.46">
   <stop offset="0" style="stop-opacity:1; stop-color:white"/>
   <stop offset="1" style="stop-opacity:0; stop-color:white"/>
  </linearGradient>
       <rect style="fill:url(#id133)" x="5421.35" y="2121.73" width="791.12" height="469.79"/>
      </mask>
      <mask id="id134">
  <linearGradient id="id135" gradientUnits="userSpaceOnUse" x1="1543.14" y1="607.79" x2="4243.39" y2="5661.41">
   <stop offset="0" style="stop-opacity:1; stop-color:white"/>
   <stop offset="1" style="stop-opacity:0; stop-color:white"/>
  </linearGradient>
       <rect style="fill:url(#id135)" x="5431.53" y="2356.98" width="416.31" height="664.65"/>
      </mask>
      <mask id="id136">
  <linearGradient id="id137" gradientUnits="userSpaceOnUse" x1="1612.97" y1="646.96" x2="4226.49" y2="5580.28">
   <stop offset="0" style="stop-opacity:1; stop-color:white"/>
   <stop offset="1" style="stop-opacity:0; stop-color:white"/>
  </linearGradient>
       <rect style="fill:url(#id137)" x="5814.37" y="2357.37" width="381.01" height="646.38"/>
      </mask>
      <mask id="id138">
  <linearGradient id="id139" gradientUnits="userSpaceOnUse" x1="1365.86" y1="499.94" x2="4277.05" y2="5697.24">
   <stop offset="0" style="stop-opacity:1; stop-color:white"/>
   <stop offset="1" style="stop-opacity:0; stop-color:white"/>
  </linearGradient>
       <rect style="fill:url(#id139)" x="5824.14" y="2810.4" width="791.11" height="469.79"/>
      </mask>
      <mask id="id140">
  <linearGradient id="id141" gradientUnits="userSpaceOnUse" x1="1499.73" y1="568.71" x2="4199.98" y2="5622.33">
   <stop offset="0" style="stop-opacity:1; stop-color:white"/>
   <stop offset="1" style="stop-opacity:0; stop-color:white"/>
  </linearGradient>
       <rect style="fill:url(#id141)" x="5834.31" y="3045.65" width="416.32" height="664.65"/>
      </mask>
      <mask id="id142">
  <linearGradient id="id143" gradientUnits="userSpaceOnUse" x1="1578.09" y1="627.88" x2="4191.6" y2="5561.2">
   <stop offset="0" style="stop-opacity:1; stop-color:white"/>
   <stop offset="1" style="stop-opacity:0; stop-color:white"/>
  </linearGradient>
       <rect style="fill:url(#id143)" x="6217.15" y="3046.04" width="381.01" height="646.38"/>
      </mask>
      <mask id="id144">
  <linearGradient id="id145" gradientUnits="userSpaceOnUse" x1="1321.29" y1="423.71" x2="4232.48" y2="5621.01">
   <stop offset="0" style="stop-opacity:1; stop-color:white"/>
   <stop offset="1" style="stop-opacity:0; stop-color:white"/>
  </linearGradient>
       <rect style="fill:url(#id145)" x="6226.92" y="3499.08" width="791.11" height="469.79"/>
      </mask>
      <mask id="id146">
  <linearGradient id="id147" gradientUnits="userSpaceOnUse" x1="1456.31" y1="529.63" x2="4156.57" y2="5583.25">
   <stop offset="0" style="stop-opacity:1; stop-color:white"/>
   <stop offset="1" style="stop-opacity:0; stop-color:white"/>
  </linearGradient>
       <rect style="fill:url(#id147)" x="6237.09" y="3734.32" width="416.32" height="664.65"/>
      </mask>
      <mask id="id148">
  <linearGradient id="id149" gradientUnits="userSpaceOnUse" x1="1543.21" y1="608.8" x2="4156.73" y2="5542.12">
   <stop offset="0" style="stop-opacity:1; stop-color:white"/>
   <stop offset="1" style="stop-opacity:0; stop-color:white"/>
  </linearGradient>
       <rect style="fill:url(#id149)" x="6619.93" y="3734.71" width="381.02" height="646.38"/>
      </mask>
      <mask id="id150">
  <linearGradient id="id151" gradientUnits="userSpaceOnUse" x1="1583.05" y1="730.18" x2="4494.24" y2="5927.47">
   <stop offset="0" style="stop-opacity:1; stop-color:white"/>
   <stop offset="1" style="stop-opacity:0; stop-color:white"/>
  </linearGradient>
       <rect style="fill:url(#id151)" x="3861.64" y="730.17" width="791.11" height="469.79"/>
      </mask>
      <mask id="id152">
  <linearGradient id="id153" gradientUnits="userSpaceOnUse" x1="1711.27" y1="686.76" x2="4411.53" y2="5740.38">
   <stop offset="0" style="stop-opacity:1; stop-color:white"/>
   <stop offset="1" style="stop-opacity:0; stop-color:white"/>
  </linearGradient>
       <rect style="fill:url(#id153)" x="3871.81" y="965.41" width="416.32" height="664.65"/>
      </mask>
      <mask id="id154">
  <linearGradient id="id155" gradientUnits="userSpaceOnUse" x1="1748.05" y1="685.51" x2="4361.57" y2="5618.83">
   <stop offset="0" style="stop-opacity:1; stop-color:white"/>
   <stop offset="1" style="stop-opacity:0; stop-color:white"/>
  </linearGradient>
       <rect style="fill:url(#id155)" x="4254.65" y="965.8" width="381.02" height="646.38"/>
      </mask>
      <mask id="id156">
  <linearGradient id="id157" gradientUnits="userSpaceOnUse" x1="1539.72" y1="652.38" x2="4450.91" y2="5849.68">
   <stop offset="0" style="stop-opacity:1; stop-color:white"/>
   <stop offset="1" style="stop-opacity:0; stop-color:white"/>
  </linearGradient>
       <rect style="fill:url(#id157)" x="4253.12" y="1433.06" width="791.11" height="469.79"/>
      </mask>
      <mask id="id158">
  <linearGradient id="id159" gradientUnits="userSpaceOnUse" x1="1669.07" y1="646.87" x2="4369.33" y2="5700.49">
   <stop offset="0" style="stop-opacity:1; stop-color:white"/>
   <stop offset="1" style="stop-opacity:0; stop-color:white"/>
  </linearGradient>
       <rect style="fill:url(#id159)" x="4263.29" y="1668.3" width="416.32" height="664.65"/>
      </mask>
      <mask id="id160">
  <linearGradient id="id161" gradientUnits="userSpaceOnUse" x1="1714.15" y1="666.04" x2="4327.67" y2="5599.36">
   <stop offset="0" style="stop-opacity:1; stop-color:white"/>
   <stop offset="1" style="stop-opacity:0; stop-color:white"/>
  </linearGradient>
       <rect style="fill:url(#id161)" x="4646.13" y="1668.69" width="381.02" height="646.38"/>
      </mask>
      <mask id="id162">
  <linearGradient id="id163" gradientUnits="userSpaceOnUse" x1="1495.15" y1="576.16" x2="4406.34" y2="5773.46">
   <stop offset="0" style="stop-opacity:1; stop-color:white"/>
   <stop offset="1" style="stop-opacity:0; stop-color:white"/>
  </linearGradient>
       <rect style="fill:url(#id163)" x="4655.91" y="2121.73" width="791.12" height="469.79"/>
      </mask>
      <mask id="id164">
  <linearGradient id="id165" gradientUnits="userSpaceOnUse" x1="1625.65" y1="607.79" x2="4325.9" y2="5661.41">
   <stop offset="0" style="stop-opacity:1; stop-color:white"/>
   <stop offset="1" style="stop-opacity:0; stop-color:white"/>
  </linearGradient>
       <rect style="fill:url(#id165)" x="4666.08" y="2356.98" width="416.31" height="664.65"/>
      </mask>
      <mask id="id166">
  <linearGradient id="id167" gradientUnits="userSpaceOnUse" x1="1679.26" y1="646.96" x2="4292.78" y2="5580.28">
   <stop offset="0" style="stop-opacity:1; stop-color:white"/>
   <stop offset="1" style="stop-opacity:0; stop-color:white"/>
  </linearGradient>
       <rect style="fill:url(#id167)" x="5048.92" y="2357.37" width="381.01" height="646.38"/>
      </mask>
      <mask id="id168">
  <linearGradient id="id169" gradientUnits="userSpaceOnUse" x1="1450.57" y1="499.94" x2="4361.76" y2="5697.24">
   <stop offset="0" style="stop-opacity:1; stop-color:white"/>
   <stop offset="1" style="stop-opacity:0; stop-color:white"/>
  </linearGradient>
       <rect style="fill:url(#id169)" x="5058.7" y="2810.4" width="791.11" height="469.79"/>
      </mask>
      <mask id="id170">
  <linearGradient id="id171" gradientUnits="userSpaceOnUse" x1="1582.24" y1="568.71" x2="4282.49" y2="5622.33">
   <stop offset="0" style="stop-opacity:1; stop-color:white"/>
   <stop offset="1" style="stop-opacity:0; stop-color:white"/>
  </linearGradient>
       <rect style="fill:url(#id171)" x="5068.87" y="3045.65" width="416.32" height="664.65"/>
      </mask>
      <mask id="id172">
  <linearGradient id="id173" gradientUnits="userSpaceOnUse" x1="1644.38" y1="627.88" x2="4257.89" y2="5561.2">
   <stop offset="0" style="stop-opacity:1; stop-color:white"/>
   <stop offset="1" style="stop-opacity:0; stop-color:white"/>
  </linearGradient>
       <rect style="fill:url(#id173)" x="5451.71" y="3046.04" width="381.01" height="646.38"/>
      </mask>
      <mask id="id174">
  <linearGradient id="id175" gradientUnits="userSpaceOnUse" x1="1406" y1="423.71" x2="4317.19" y2="5621.01">
   <stop offset="0" style="stop-opacity:1; stop-color:white"/>
   <stop offset="1" style="stop-opacity:0; stop-color:white"/>
  </linearGradient>
       <rect style="fill:url(#id175)" x="5461.48" y="3499.08" width="791.11" height="469.79"/>
      </mask>
      <mask id="id176">
  <linearGradient id="id177" gradientUnits="userSpaceOnUse" x1="1538.82" y1="529.63" x2="4239.08" y2="5583.25">
   <stop offset="0" style="stop-opacity:1; stop-color:white"/>
   <stop offset="1" style="stop-opacity:0; stop-color:white"/>
  </linearGradient>
       <rect style="fill:url(#id177)" x="5471.65" y="3734.32" width="416.32" height="664.65"/>
      </mask>
      <mask id="id178">
  <linearGradient id="id179" gradientUnits="userSpaceOnUse" x1="1609.5" y1="608.8" x2="4223.02" y2="5542.12">
   <stop offset="0" style="stop-opacity:1; stop-color:white"/>
   <stop offset="1" style="stop-opacity:0; stop-color:white"/>
  </linearGradient>
       <rect style="fill:url(#id179)" x="5854.49" y="3734.71" width="381.02" height="646.38"/>
      </mask>
      <mask id="id180">
  <linearGradient id="id181" gradientUnits="userSpaceOnUse" x1="1365.77" y1="652.38" x2="4276.96" y2="5849.68">
   <stop offset="0" style="stop-opacity:1; stop-color:white"/>
   <stop offset="1" style="stop-opacity:0; stop-color:white"/>
  </linearGradient>
       <rect style="fill:url(#id181)" x="5824.99" y="1433.06" width="791.11" height="469.79"/>
      </mask>
      <mask id="id182">
  <linearGradient id="id183" gradientUnits="userSpaceOnUse" x1="1499.63" y1="646.87" x2="4199.89" y2="5700.49">
   <stop offset="0" style="stop-opacity:1; stop-color:white"/>
   <stop offset="1" style="stop-opacity:0; stop-color:white"/>
  </linearGradient>
       <rect style="fill:url(#id183)" x="5835.16" y="1668.3" width="416.32" height="664.65"/>
      </mask>
      <mask id="id184">
  <linearGradient id="id185" gradientUnits="userSpaceOnUse" x1="1578.01" y1="666.04" x2="4191.53" y2="5599.36">
   <stop offset="0" style="stop-opacity:1; stop-color:white"/>
   <stop offset="1" style="stop-opacity:0; stop-color:white"/>
  </linearGradient>
       <rect style="fill:url(#id185)" x="6218" y="1668.69" width="381.01" height="646.38"/>
      </mask>
      <mask id="id186">
  <linearGradient id="id187" gradientUnits="userSpaceOnUse" x1="1321.19" y1="576.16" x2="4232.38" y2="5773.46">
   <stop offset="0" style="stop-opacity:1; stop-color:white"/>
   <stop offset="1" style="stop-opacity:0; stop-color:white"/>
  </linearGradient>
       <rect style="fill:url(#id187)" x="6227.77" y="2121.73" width="791.11" height="469.79"/>
      </mask>
      <mask id="id188">
  <linearGradient id="id189" gradientUnits="userSpaceOnUse" x1="1456.22" y1="607.79" x2="4156.47" y2="5661.41">
   <stop offset="0" style="stop-opacity:1; stop-color:white"/>
   <stop offset="1" style="stop-opacity:0; stop-color:white"/>
  </linearGradient>
       <rect style="fill:url(#id189)" x="6237.94" y="2356.98" width="416.32" height="664.65"/>
      </mask>
      <mask id="id190">
  <linearGradient id="id191" gradientUnits="userSpaceOnUse" x1="1543.14" y1="646.96" x2="4156.65" y2="5580.28">
   <stop offset="0" style="stop-opacity:1; stop-color:white"/>
   <stop offset="1" style="stop-opacity:0; stop-color:white"/>
  </linearGradient>
       <rect style="fill:url(#id191)" x="6620.78" y="2357.37" width="381.02" height="646.38"/>
      </mask>
      <mask id="id192">
  <linearGradient id="id193" gradientUnits="userSpaceOnUse" x1="622.77" y1="76.13" x2="3839.7" y2="5819.26">
   <stop offset="0" style="stop-opacity:1; stop-color:white"/>
   <stop offset="1" style="stop-opacity:0; stop-color:white"/>
  </linearGradient>
       <rect style="fill:url(#id193)" x="7033.34" y="3543.64" width="324.58" height="378.03"/>
      </mask>
      <mask id="id194">
  <linearGradient id="id195" gradientUnits="userSpaceOnUse" x1="1406.65" y1="576.77" x2="3999.64" y2="5568.96">
   <stop offset="0" style="stop-opacity:1; stop-color:white"/>
   <stop offset="1" style="stop-opacity:0; stop-color:white"/>
  </linearGradient>
       <rect style="fill:url(#id195)" x="7043.51" y="3734.32" width="304.58" height="587.97"/>
      </mask>
      <mask id="id196">
  <linearGradient id="id197" gradientUnits="userSpaceOnUse" x1="1334.73" y1="523.37" x2="4274.11" y2="5673.8">
   <stop offset="0" style="stop-opacity:1; stop-color:white"/>
   <stop offset="1" style="stop-opacity:0; stop-color:white"/>
  </linearGradient>
       <rect style="fill:url(#id197)" x="6630.55" y="2810.4" width="727.37" height="469.79"/>
      </mask>
      <mask id="id198">
  <linearGradient id="id199" gradientUnits="userSpaceOnUse" x1="1412.8" y1="568.71" x2="4113.06" y2="5622.33">
   <stop offset="0" style="stop-opacity:1; stop-color:white"/>
   <stop offset="1" style="stop-opacity:0; stop-color:white"/>
  </linearGradient>
       <rect style="fill:url(#id199)" x="6640.72" y="3045.65" width="416.32" height="664.65"/>
      </mask>
      <mask id="id200">
  <linearGradient id="id201" gradientUnits="userSpaceOnUse" x1="1238.52" y1="362.3" x2="4542.79" y2="5632.91">
   <stop offset="0" style="stop-opacity:1; stop-color:white"/>
   <stop offset="1" style="stop-opacity:0; stop-color:white"/>
  </linearGradient>
       <rect style="fill:url(#id201)" x="7023.56" y="3479.12" width="324.43" height="213.3"/>
      </mask>
 </defs>
 <g id="Layer_x0020_1">
  <metadata id="CorelCorpID_0Corel-Layer"/>
  <rect class="fil0" x="0" y="0" width="7337.8" height="4905.85"/>
  <g id="_1853224884880">
   <g>
    <g>
     <path class="fil1" style="mask:url(#id0)" d="M1072.72 736.36l352.21 212.27 -20.78 34.48 -352.21 -212.27 0.17 -34.57 20.62 0.09zm-20.62 -0.09l10.34 -6.1 10.27 6.19 -20.62 -0.09zm-360.07 212.27l360.07 -212.27 20.45 34.67 -360.07 212.27 -20.25 0.11 -0.19 -34.78zm0.19 34.78l-29.96 -17.23 29.77 -17.55 0.19 34.78zm366.36 210.7l-366.36 -210.7 20.06 -34.89 366.36 210.7 0.43 34.63 -20.49 0.26zm20.49 -0.26l-10.17 6.19 -10.33 -5.93 20.49 -0.26zm345.93 -210.7l-345.93 210.7 -20.93 -34.37 345.93 -210.7 20.86 -0.06 0.07 34.43zm-0.07 -34.43l28.45 17.15 -28.37 17.28 -0.07 -34.43z"/>
    </g>
    <g>
     <path class="fil1" style="mask:url(#id2)" d="M1045.35 1594.68l3.14 -418.26 40.25 0.3 -3.14 418.26 -30.41 17.15 -9.84 -17.44zm40.25 0.3l-0.27 35.08 -30.15 -17.93 30.41 -17.15zm-382.49 -239.15l372.65 221.7 -20.58 34.59 -372.65 -221.7 -9.83 -17.76 30.41 -16.83zm-20.58 34.59l-10.09 -6.01 0.27 -11.75 9.83 17.76zm39.84 -424.09l-9.44 407.26 -40.23 -0.92 9.44 -407.26 40.23 0.92z"/>
    </g>
    <g>
     <path class="fil1" style="mask:url(#id4)" d="M1395.99 1388.93l-1.57 -422.98 40.25 -0.15 1.57 422.98 -9.93 17.43 -30.32 -17.28zm40.25 -0.15l0.05 11.56 -9.97 5.86 9.93 -17.43zm-380.96 188.7l350.64 -205.98 20.39 34.7 -350.64 205.98 -20.39 -34.7z"/>
    </g>
   </g>
   <g>
    <g>
     <path class="fil1" style="mask:url(#id6)" d="M3040.12 49.37l352.21 212.28 -20.78 34.48 -352.21 -212.28 0.17 -34.57 20.62 0.09zm-20.62 -0.09l10.34 -6.1 10.27 6.19 -20.62 -0.09zm-360.08 212.28l360.08 -212.28 20.45 34.67 -360.08 212.28 -20.25 0.11 -0.19 -34.78zm0.19 34.78l-29.96 -17.23 29.77 -17.55 0.19 34.78zm366.37 210.69l-366.37 -210.69 20.06 -34.89 366.37 210.69 0.43 34.63 -20.49 0.26zm20.49 -0.26l-10.17 6.19 -10.33 -5.93 20.49 -0.26zm345.92 -210.69l-345.92 210.69 -20.93 -34.37 345.92 -210.69 20.86 -0.06 0.07 34.43zm-0.07 -34.43l28.45 17.15 -28.37 17.28 -0.07 -34.43z"/>
    </g>
    <g>
     <path class="fil1" style="mask:url(#id8)" d="M3012.74 907.71l3.15 -418.27 40.25 0.3 -3.15 418.27 -30.41 17.15 -9.84 -17.44zm40.25 0.3l-0.27 35.08 -30.15 -17.93 30.41 -17.15zm-382.49 -239.15l372.65 221.71 -20.58 34.59 -372.65 -221.71 -9.83 -17.76 30.41 -16.83zm-20.58 34.59l-10.09 -6.01 0.27 -11.75 9.83 17.76zm39.84 -424.08l-9.44 407.25 -40.23 -0.92 9.44 -407.25 40.23 0.92z"/>
    </g>
    <g>
     <path class="fil1" style="mask:url(#id10)" d="M3363.39 701.94l-1.58 -422.97 40.25 -0.15 1.58 422.97 -9.93 17.43 -30.32 -17.28zm40.25 -0.15l0.05 11.56 -9.97 5.86 9.93 -17.43zm-380.97 188.71l350.65 -205.99 20.39 34.7 -350.65 205.99 -20.39 -34.7z"/>
    </g>
   </g>
   <g>
    <g>
     <path class="fil1" style="mask:url(#id12)" d="M1464.2 1439.25l352.21 212.27 -20.78 34.48 -352.21 -212.27 0.17 -34.57 20.62 0.09zm-20.62 -0.09l10.34 -6.1 10.27 6.19 -20.62 -0.09zm-360.07 212.27l360.07 -212.27 20.45 34.67 -360.07 212.27 -20.25 0.11 -0.19 -34.78zm0.19 34.78l-29.96 -17.23 29.77 -17.55 0.19 34.78zm366.37 210.7l-366.37 -210.7 20.06 -34.89 366.37 210.7 0.43 34.63 -20.49 0.26zm20.49 -0.26l-10.17 6.19 -10.33 -5.93 20.49 -0.26zm345.92 -210.7l-345.92 210.7 -20.93 -34.37 345.92 -210.7 20.86 -0.06 0.07 34.43zm-0.07 -34.43l28.45 17.15 -28.37 17.28 -0.07 -34.43z"/>
    </g>
    <g>
     <path class="fil1" style="mask:url(#id14)" d="M1436.83 2297.58l3.15 -418.26 40.25 0.3 -3.15 418.26 -30.41 17.15 -9.84 -17.44zm40.25 0.3l-0.27 35.08 -30.15 -17.93 30.41 -17.15zm-382.49 -239.15l372.65 221.7 -20.58 34.59 -372.65 -221.7 -9.83 -17.76 30.41 -16.83zm-20.58 34.59l-10.09 -6.01 0.27 -11.75 9.83 17.76zm39.84 -424.09l-9.44 407.26 -40.23 -0.92 9.44 -407.26 40.23 0.92z"/>
    </g>
    <g>
     <path class="fil1" style="mask:url(#id16)" d="M1787.47 2091.82l-1.57 -422.98 40.25 -0.15 1.57 422.98 -9.93 17.43 -30.32 -17.28zm40.25 -0.15l0.05 11.56 -9.97 5.86 9.93 -17.43zm-380.96 188.7l350.64 -205.98 20.39 34.7 -350.64 205.98 -20.39 -34.7z"/>
    </g>
   </g>
   <g>
    <g>
     <path class="fil1" style="mask:url(#id18)" d="M1867 2127.92l352.21 212.28 -20.78 34.48 -352.21 -212.28 0.17 -34.57 20.62 0.09zm-20.62 -0.09l10.34 -6.1 10.27 6.19 -20.62 -0.09zm-360.08 212.28l360.08 -212.28 20.45 34.67 -360.08 212.28 -20.25 0.11 -0.19 -34.78zm0.19 34.78l-29.96 -17.23 29.77 -17.55 0.19 34.78zm366.37 210.69l-366.37 -210.69 20.06 -34.89 366.37 210.69 0.43 34.63 -20.49 0.26zm20.49 -0.26l-10.17 6.19 -10.33 -5.93 20.49 -0.26zm345.92 -210.69l-345.92 210.69 -20.93 -34.37 345.92 -210.69 20.86 -0.06 0.07 34.43zm-0.07 -34.43l28.45 17.15 -28.37 17.28 -0.07 -34.43z"/>
    </g>
    <g>
     <path class="fil1" style="mask:url(#id20)" d="M1839.61 2986.25l3.15 -418.27 40.25 0.3 -3.15 418.27 -30.41 17.15 -9.84 -17.44zm40.25 0.3l-0.27 35.08 -30.15 -17.93 30.41 -17.15zm-382.49 -239.15l372.65 221.71 -20.58 34.59 -372.65 -221.71 -9.83 -17.76 30.41 -16.83zm-20.58 34.59l-10.09 -6.01 0.27 -11.75 9.83 17.76zm39.84 -424.08l-9.44 407.25 -40.23 -0.92 9.44 -407.25 40.23 0.92z"/>
    </g>
    <g>
     <path class="fil1" style="mask:url(#id22)" d="M2190.27 2780.49l-1.58 -422.97 40.25 -0.15 1.58 422.97 -9.93 17.43 -30.32 -17.28zm40.25 -0.15l0.05 11.56 -9.97 5.86 9.93 -17.43zm-380.97 188.71l350.65 -205.99 20.39 34.7 -350.65 205.99 -20.39 -34.7z"/>
    </g>
   </g>
   <g>
    <g>
     <path class="fil1" style="mask:url(#id24)" d="M2269.78 2816.6l352.21 212.27 -20.78 34.48 -352.21 -212.27 0.17 -34.57 20.62 0.09zm-20.62 -0.09l10.34 -6.1 10.27 6.19 -20.62 -0.09zm-360.08 212.27l360.08 -212.27 20.45 34.67 -360.08 212.27 -20.25 0.11 -0.19 -34.78zm0.19 34.78l-29.96 -17.23 29.77 -17.55 0.19 34.78zm366.37 210.7l-366.37 -210.7 20.06 -34.89 366.37 210.7 0.43 34.63 -20.49 0.26zm20.49 -0.26l-10.17 6.19 -10.33 -5.93 20.49 -0.26zm345.93 -210.7l-345.93 210.7 -20.93 -34.37 345.93 -210.7 20.86 -0.06 0.07 34.43zm-0.07 -34.43l28.45 17.15 -28.37 17.28 -0.07 -34.43z"/>
    </g>
    <g>
     <path class="fil1" style="mask:url(#id26)" d="M2242.4 3674.92l3.15 -418.26 40.25 0.3 -3.15 418.26 -30.41 17.15 -9.84 -17.44zm40.25 0.3l-0.27 35.08 -30.15 -17.93 30.41 -17.15zm-382.49 -239.15l372.65 221.7 -20.58 34.59 -372.65 -221.7 -9.83 -17.76 30.41 -16.83zm-20.58 34.59l-10.09 -6.01 0.27 -11.75 9.83 17.76zm39.84 -424.09l-9.44 407.26 -40.23 -0.92 9.44 -407.26 40.23 0.92z"/>
    </g>
    <g>
     <path class="fil1" style="mask:url(#id28)" d="M2593.05 3469.16l-1.57 -422.98 40.25 -0.15 1.57 422.98 -9.93 17.43 -30.32 -17.28zm40.25 -0.15l0.05 11.56 -9.97 5.86 9.93 -17.43zm-380.97 188.7l350.65 -205.98 20.39 34.7 -350.65 205.98 -20.39 -34.7z"/>
    </g>
   </g>
   <g>
    <g>
     <path class="fil1" style="mask:url(#id30)" d="M2672.56 3505.27l352.21 212.27 -20.78 34.48 -352.21 -212.27 0.17 -34.57 20.62 0.09zm-20.62 -0.09l10.34 -6.1 10.27 6.19 -20.62 -0.09zm-360.07 212.27l360.07 -212.27 20.45 34.67 -360.07 212.27 -20.25 0.11 -0.19 -34.78zm0.19 34.78l-29.96 -17.23 29.77 -17.55 0.19 34.78zm366.36 210.7l-366.36 -210.7 20.06 -34.89 366.36 210.7 0.43 34.63 -20.49 0.26zm20.49 -0.26l-10.17 6.19 -10.33 -5.93 20.49 -0.26zm345.93 -210.7l-345.93 210.7 -20.93 -34.37 345.93 -210.7 20.86 -0.06 0.07 34.43zm-0.07 -34.43l28.45 17.15 -28.37 17.28 -0.07 -34.43z"/>
    </g>
    <g>
     <path class="fil1" style="mask:url(#id32)" d="M2645.19 4363.59l3.14 -418.26 40.25 0.3 -3.14 418.26 -30.41 17.15 -9.84 -17.44zm40.25 0.3l-0.27 35.08 -30.15 -17.93 30.41 -17.15zm-382.49 -239.15l372.65 221.7 -20.58 34.59 -372.65 -221.7 -9.83 -17.76 30.41 -16.83zm-20.58 34.59l-10.09 -6.01 0.27 -11.75 9.83 17.76zm39.84 -424.09l-9.44 407.26 -40.23 -0.92 9.44 -407.26 40.23 0.92z"/>
    </g>
    <g>
     <path class="fil1" style="mask:url(#id34)" d="M2995.83 4157.84l-1.57 -422.98 40.25 -0.15 1.57 422.98 -9.93 17.43 -30.32 -17.28zm40.25 -0.15l0.05 11.56 -9.97 5.86 9.93 -17.43zm-380.96 188.7l350.64 -205.98 20.39 34.7 -350.64 205.98 -20.39 -34.7z"/>
    </g>
   </g>
   <g>
    <g>
     <path class="fil1" style="mask:url(#id36)" d="M1860.49 736.36l352.21 212.27 -20.78 34.48 -352.21 -212.27 0.17 -34.57 20.62 0.09zm-20.62 -0.09l10.34 -6.1 10.27 6.19 -20.62 -0.09zm-360.07 212.27l360.07 -212.27 20.45 34.67 -360.07 212.27 -20.25 0.11 -0.19 -34.78zm0.19 34.78l-29.96 -17.23 29.77 -17.55 0.19 34.78zm366.37 210.7l-366.37 -210.7 20.06 -34.89 366.37 210.7 0.43 34.63 -20.49 0.26zm20.49 -0.26l-10.17 6.19 -10.33 -5.93 20.49 -0.26zm345.92 -210.7l-345.92 210.7 -20.93 -34.37 345.92 -210.7 20.86 -0.06 0.07 34.43zm-0.07 -34.43l28.45 17.15 -28.37 17.28 -0.07 -34.43z"/>
    </g>
    <g>
     <path class="fil1" style="mask:url(#id38)" d="M1833.11 1594.68l3.15 -418.26 40.25 0.3 -3.15 418.26 -30.41 17.15 -9.84 -17.44zm40.25 0.3l-0.27 35.08 -30.15 -17.93 30.41 -17.15zm-382.49 -239.15l372.65 221.7 -20.58 34.59 -372.65 -221.7 -9.83 -17.76 30.41 -16.83zm-20.58 34.59l-10.09 -6.01 0.27 -11.75 9.83 17.76zm39.84 -424.09l-9.44 407.26 -40.23 -0.92 9.44 -407.26 40.23 0.92z"/>
    </g>
    <g>
     <path class="fil1" style="mask:url(#id40)" d="M2183.76 1388.93l-1.57 -422.98 40.25 -0.15 1.57 422.98 -9.93 17.43 -30.32 -17.28zm40.25 -0.15l0.05 11.56 -9.97 5.86 9.93 -17.43zm-380.96 188.7l350.64 -205.98 20.39 34.7 -350.64 205.98 -20.39 -34.7z"/>
    </g>
   </g>
   <g>
    <g>
     <path class="fil1" style="mask:url(#id42)" d="M2251.98 1439.25l352.21 212.27 -20.78 34.48 -352.21 -212.27 0.17 -34.57 20.62 0.09zm-20.62 -0.09l10.34 -6.1 10.27 6.19 -20.62 -0.09zm-360.08 212.27l360.08 -212.27 20.45 34.67 -360.08 212.27 -20.25 0.11 -0.19 -34.78zm0.19 34.78l-29.96 -17.23 29.77 -17.55 0.19 34.78zm366.37 210.7l-366.37 -210.7 20.06 -34.89 366.37 210.7 0.43 34.63 -20.49 0.26zm20.49 -0.26l-10.17 6.19 -10.33 -5.93 20.49 -0.26zm345.92 -210.7l-345.92 210.7 -20.93 -34.37 345.92 -210.7 20.86 -0.06 0.07 34.43zm-0.07 -34.43l28.45 17.15 -28.37 17.28 -0.07 -34.43z"/>
    </g>
    <g>
     <path class="fil1" style="mask:url(#id44)" d="M2224.6 2297.58l3.15 -418.26 40.25 0.3 -3.15 418.26 -30.41 17.15 -9.84 -17.44zm40.25 0.3l-0.27 35.08 -30.15 -17.93 30.41 -17.15zm-382.49 -239.15l372.65 221.7 -20.58 34.59 -372.65 -221.7 -9.83 -17.76 30.41 -16.83zm-20.58 34.59l-10.09 -6.01 0.27 -11.75 9.83 17.76zm39.84 -424.09l-9.44 407.26 -40.23 -0.92 9.44 -407.26 40.23 0.92z"/>
    </g>
    <g>
     <path class="fil1" style="mask:url(#id46)" d="M2575.25 2091.82l-1.58 -422.98 40.25 -0.15 1.58 422.98 -9.93 17.43 -30.32 -17.28zm40.25 -0.15l0.05 11.56 -9.97 5.86 9.93 -17.43zm-380.97 188.7l350.65 -205.98 20.39 34.7 -350.65 205.98 -20.39 -34.7z"/>
    </g>
   </g>
   <g>
    <g>
     <path class="fil1" style="mask:url(#id48)" d="M2654.76 2127.92l352.21 212.28 -20.78 34.48 -352.21 -212.28 0.17 -34.57 20.62 0.09zm-20.62 -0.09l10.34 -6.1 10.27 6.19 -20.62 -0.09zm-360.08 212.28l360.08 -212.28 20.45 34.67 -360.08 212.28 -20.25 0.11 -0.19 -34.78zm0.19 34.78l-29.96 -17.23 29.77 -17.55 0.19 34.78zm366.37 210.69l-366.37 -210.69 20.06 -34.89 366.37 210.69 0.43 34.63 -20.49 0.26zm20.49 -0.26l-10.17 6.19 -10.33 -5.93 20.49 -0.26zm345.93 -210.69l-345.93 210.69 -20.93 -34.37 345.93 -210.69 20.86 -0.06 0.07 34.43zm-0.07 -34.43l28.45 17.15 -28.37 17.28 -0.07 -34.43z"/>
    </g>
    <g>
     <path class="fil1" style="mask:url(#id50)" d="M2627.38 2986.25l3.15 -418.27 40.25 0.3 -3.15 418.27 -30.41 17.15 -9.84 -17.44zm40.25 0.3l-0.27 35.08 -30.15 -17.93 30.41 -17.15zm-382.49 -239.15l372.65 221.71 -20.58 34.59 -372.65 -221.71 -9.83 -17.76 30.41 -16.83zm-20.58 34.59l-10.09 -6.01 0.27 -11.75 9.83 17.76zm39.84 -424.08l-9.44 407.25 -40.23 -0.92 9.44 -407.25 40.23 0.92z"/>
    </g>
    <g>
     <path class="fil1" style="mask:url(#id52)" d="M2978.03 2780.49l-1.57 -422.97 40.25 -0.15 1.57 422.97 -9.93 17.43 -30.32 -17.28zm40.25 -0.15l0.05 11.56 -9.97 5.86 9.93 -17.43zm-380.97 188.71l350.65 -205.99 20.39 34.7 -350.65 205.99 -20.39 -34.7z"/>
    </g>
   </g>
   <g>
    <g>
     <path class="fil1" style="mask:url(#id54)" d="M3057.54 2816.6l352.21 212.27 -20.78 34.48 -352.21 -212.27 0.17 -34.57 20.62 0.09zm-20.62 -0.09l10.34 -6.1 10.27 6.19 -20.62 -0.09zm-360.07 212.27l360.07 -212.27 20.45 34.67 -360.07 212.27 -20.25 0.11 -0.19 -34.78zm0.19 34.78l-29.96 -17.23 29.77 -17.55 0.19 34.78zm366.36 210.7l-366.36 -210.7 20.06 -34.89 366.36 210.7 0.43 34.63 -20.49 0.26zm20.49 -0.26l-10.17 6.19 -10.33 -5.93 20.49 -0.26zm345.93 -210.7l-345.93 210.7 -20.93 -34.37 345.93 -210.7 20.86 -0.06 0.07 34.43zm-0.07 -34.43l28.45 17.15 -28.37 17.28 -0.07 -34.43z"/>
    </g>
    <g>
     <path class="fil1" style="mask:url(#id56)" d="M3030.17 3674.92l3.14 -418.26 40.25 0.3 -3.14 418.26 -30.41 17.15 -9.84 -17.44zm40.25 0.3l-0.27 35.08 -30.15 -17.93 30.41 -17.15zm-382.49 -239.15l372.65 221.7 -20.58 34.59 -372.65 -221.7 -9.83 -17.76 30.41 -16.83zm-20.58 34.59l-10.09 -6.01 0.27 -11.75 9.83 17.76zm39.84 -424.09l-9.44 407.26 -40.23 -0.92 9.44 -407.26 40.23 0.92z"/>
    </g>
    <g>
     <path class="fil1" style="mask:url(#id58)" d="M3380.81 3469.16l-1.57 -422.98 40.25 -0.15 1.57 422.98 -9.93 17.43 -30.32 -17.28zm40.25 -0.15l0.05 11.56 -9.97 5.86 9.93 -17.43zm-380.96 188.7l350.64 -205.98 20.39 34.7 -350.64 205.98 -20.39 -34.7z"/>
    </g>
   </g>
   <g>
    <g>
     <path class="fil1" style="mask:url(#id60)" d="M3460.34 3505.27l352.21 212.27 -20.78 34.48 -352.21 -212.27 0.17 -34.57 20.62 0.09zm-20.62 -0.09l10.34 -6.1 10.27 6.19 -20.62 -0.09zm-360.08 212.27l360.08 -212.27 20.45 34.67 -360.08 212.27 -20.25 0.11 -0.19 -34.78zm0.19 34.78l-29.96 -17.23 29.77 -17.55 0.19 34.78zm366.37 210.7l-366.37 -210.7 20.06 -34.89 366.37 210.7 0.43 34.63 -20.49 0.26zm20.49 -0.26l-10.17 6.19 -10.33 -5.93 20.49 -0.26zm345.92 -210.7l-345.92 210.7 -20.93 -34.37 345.92 -210.7 20.86 -0.06 0.07 34.43zm-0.07 -34.43l28.45 17.15 -28.37 17.28 -0.07 -34.43z"/>
    </g>
    <g>
     <path class="fil1" style="mask:url(#id62)" d="M3432.95 4363.59l3.15 -418.26 40.25 0.3 -3.15 418.26 -30.41 17.15 -9.84 -17.44zm40.25 0.3l-0.27 35.08 -30.15 -17.93 30.41 -17.15zm-382.49 -239.15l372.65 221.7 -20.58 34.59 -372.65 -221.7 -9.83 -17.76 30.41 -16.83zm-20.58 34.59l-10.09 -6.01 0.27 -11.75 9.83 17.76zm39.84 -424.09l-9.44 407.26 -40.23 -0.92 9.44 -407.26 40.23 0.92z"/>
    </g>
    <g>
     <path class="fil1" style="mask:url(#id64)" d="M3783.61 4157.84l-1.58 -422.98 40.25 -0.15 1.58 422.98 -9.93 17.43 -30.32 -17.28zm40.25 -0.15l0.05 11.56 -9.97 5.86 9.93 -17.43zm-380.97 188.7l350.65 -205.98 20.39 34.7 -350.65 205.98 -20.39 -34.7z"/>
    </g>
   </g>
   <g>
    <g>
     <path class="fil1" style="mask:url(#id66)" d="M2659.27 736.36l352.21 212.27 -20.78 34.48 -352.21 -212.27 0.17 -34.57 20.62 0.09zm-20.62 -0.09l10.34 -6.1 10.27 6.19 -20.62 -0.09zm-360.08 212.27l360.08 -212.27 20.45 34.67 -360.08 212.27 -20.25 0.11 -0.19 -34.78zm0.19 34.78l-29.96 -17.23 29.77 -17.55 0.19 34.78zm366.37 210.7l-366.37 -210.7 20.06 -34.89 366.37 210.7 0.43 34.63 -20.49 0.26zm20.49 -0.26l-10.17 6.19 -10.33 -5.93 20.49 -0.26zm345.92 -210.7l-345.92 210.7 -20.93 -34.37 345.92 -210.7 20.86 -0.06 0.07 34.43zm-0.07 -34.43l28.45 17.15 -28.37 17.28 -0.07 -34.43z"/>
    </g>
    <g>
     <path class="fil1" style="mask:url(#id68)" d="M2631.88 1594.68l3.15 -418.26 40.25 0.3 -3.15 418.26 -30.41 17.15 -9.84 -17.44zm40.25 0.3l-0.27 35.08 -30.15 -17.93 30.41 -17.15zm-382.49 -239.15l372.65 221.7 -20.58 34.59 -372.65 -221.7 -9.83 -17.76 30.41 -16.83zm-20.58 34.59l-10.09 -6.01 0.27 -11.75 9.83 17.76zm39.84 -424.09l-9.44 407.26 -40.23 -0.92 9.44 -407.26 40.23 0.92z"/>
    </g>
    <g>
     <path class="fil1" style="mask:url(#id70)" d="M2982.54 1388.93l-1.58 -422.98 40.25 -0.15 1.58 422.98 -9.93 17.43 -30.32 -17.28zm40.25 -0.15l0.05 11.56 -9.97 5.86 9.93 -17.43zm-380.97 188.7l350.65 -205.98 20.39 34.7 -350.65 205.98 -20.39 -34.7z"/>
    </g>
   </g>
   <g>
    <g>
     <path class="fil1" style="mask:url(#id72)" d="M3050.75 1439.25l352.21 212.27 -20.78 34.48 -352.21 -212.27 0.17 -34.57 20.62 0.09zm-20.62 -0.09l10.34 -6.1 10.27 6.19 -20.62 -0.09zm-360.08 212.27l360.08 -212.27 20.45 34.67 -360.08 212.27 -20.25 0.11 -0.19 -34.78zm0.19 34.78l-29.96 -17.23 29.77 -17.55 0.19 34.78zm366.37 210.7l-366.37 -210.7 20.06 -34.89 366.37 210.7 0.43 34.63 -20.49 0.26zm20.49 -0.26l-10.17 6.19 -10.33 -5.93 20.49 -0.26zm345.92 -210.7l-345.92 210.7 -20.93 -34.37 345.92 -210.7 20.86 -0.06 0.07 34.43zm-0.07 -34.43l28.45 17.15 -28.37 17.28 -0.07 -34.43z"/>
    </g>
    <g>
     <path class="fil1" style="mask:url(#id74)" d="M3023.37 2297.58l3.15 -418.26 40.25 0.3 -3.15 418.26 -30.41 17.15 -9.84 -17.44zm40.25 0.3l-0.27 35.08 -30.15 -17.93 30.41 -17.15zm-382.49 -239.15l372.65 221.7 -20.58 34.59 -372.65 -221.7 -9.83 -17.76 30.41 -16.83zm-20.58 34.59l-10.09 -6.01 0.27 -11.75 9.83 17.76zm39.84 -424.09l-9.44 407.26 -40.23 -0.92 9.44 -407.26 40.23 0.92z"/>
    </g>
    <g>
     <path class="fil1" style="mask:url(#id76)" d="M3374.02 2091.82l-1.58 -422.98 40.25 -0.15 1.58 422.98 -9.93 17.43 -30.32 -17.28zm40.25 -0.15l0.05 11.56 -9.97 5.86 9.93 -17.43zm-380.97 188.7l350.65 -205.98 20.39 34.7 -350.65 205.98 -20.39 -34.7z"/>
    </g>
   </g>
   <g>
    <g>
     <path class="fil1" style="mask:url(#id78)" d="M3453.53 2127.92l352.21 212.28 -20.78 34.48 -352.21 -212.28 0.17 -34.57 20.62 0.09zm-20.62 -0.09l10.34 -6.1 10.27 6.19 -20.62 -0.09zm-360.08 212.28l360.08 -212.28 20.45 34.67 -360.08 212.28 -20.25 0.11 -0.19 -34.78zm0.19 34.78l-29.96 -17.23 29.77 -17.55 0.19 34.78zm366.37 210.69l-366.37 -210.69 20.06 -34.89 366.37 210.69 0.43 34.63 -20.49 0.26zm20.49 -0.26l-10.17 6.19 -10.33 -5.93 20.49 -0.26zm345.93 -210.69l-345.93 210.69 -20.93 -34.37 345.93 -210.69 20.86 -0.06 0.07 34.43zm-0.07 -34.43l28.45 17.15 -28.37 17.28 -0.07 -34.43z"/>
    </g>
    <g>
     <path class="fil1" style="mask:url(#id80)" d="M3426.16 2986.25l3.14 -418.27 40.25 0.3 -3.14 418.27 -30.41 17.15 -9.84 -17.44zm40.25 0.3l-0.27 35.08 -30.15 -17.93 30.41 -17.15zm-382.49 -239.15l372.65 221.71 -20.58 34.59 -372.65 -221.71 -9.83 -17.76 30.41 -16.83zm-20.58 34.59l-10.09 -6.01 0.27 -11.75 9.83 17.76zm39.83 -424.08l-9.43 407.25 -40.23 -0.92 9.43 -407.25 40.23 0.92z"/>
    </g>
    <g>
     <path class="fil1" style="mask:url(#id82)" d="M3776.8 2780.49l-1.57 -422.97 40.25 -0.15 1.57 422.97 -9.93 17.43 -30.32 -17.28zm40.25 -0.15l0.05 11.56 -9.97 5.86 9.93 -17.43zm-380.96 188.71l350.64 -205.99 20.39 34.7 -350.64 205.99 -20.39 -34.7z"/>
    </g>
   </g>
   <g>
    <g>
     <path class="fil1" style="mask:url(#id84)" d="M3856.31 2816.6l352.21 212.27 -20.78 34.48 -352.21 -212.27 0.17 -34.57 20.62 0.09zm-20.62 -0.09l10.34 -6.1 10.27 6.19 -20.62 -0.09zm-360.07 212.27l360.07 -212.27 20.45 34.67 -360.07 212.27 -20.25 0.11 -0.19 -34.78zm0.19 34.78l-29.96 -17.23 29.77 -17.55 0.19 34.78zm366.37 210.7l-366.37 -210.7 20.06 -34.89 366.37 210.7 0.43 34.63 -20.49 0.26zm20.49 -0.26l-10.17 6.19 -10.33 -5.93 20.49 -0.26zm345.92 -210.7l-345.92 210.7 -20.93 -34.37 345.92 -210.7 20.86 -0.06 0.07 34.43zm-0.07 -34.43l28.45 17.15 -28.37 17.28 -0.07 -34.43z"/>
    </g>
    <g>
     <path class="fil1" style="mask:url(#id86)" d="M3828.94 3674.92l3.15 -418.26 40.25 0.3 -3.15 418.26 -30.41 17.15 -9.84 -17.44zm40.25 0.3l-0.27 35.08 -30.15 -17.93 30.41 -17.15zm-382.49 -239.15l372.65 221.7 -20.58 34.59 -372.65 -221.7 -9.83 -17.76 30.41 -16.83zm-20.58 34.59l-10.09 -6.01 0.27 -11.75 9.83 17.76zm39.84 -424.09l-9.44 407.26 -40.23 -0.92 9.44 -407.26 40.23 0.92z"/>
    </g>
    <g>
     <path class="fil1" style="mask:url(#id88)" d="M4179.58 3469.16l-1.57 -422.98 40.25 -0.15 1.57 422.98 -9.93 17.43 -30.32 -17.28zm40.25 -0.15l0.05 11.56 -9.97 5.86 9.93 -17.43zm-380.96 188.7l350.64 -205.98 20.39 34.7 -350.64 205.98 -20.39 -34.7z"/>
    </g>
   </g>
   <g>
    <g>
     <path class="fil1" style="mask:url(#id90)" d="M4259.1 3505.27l352.21 212.27 -20.78 34.48 -352.21 -212.27 0.17 -34.57 20.62 0.09zm-20.62 -0.09l10.34 -6.1 10.27 6.19 -20.62 -0.09zm-360.08 212.27l360.08 -212.27 20.45 34.67 -360.08 212.27 -20.25 0.11 -0.19 -34.78zm0.19 34.78l-29.96 -17.23 29.77 -17.55 0.19 34.78zm366.37 210.7l-366.37 -210.7 20.06 -34.89 366.37 210.7 0.43 34.63 -20.49 0.26zm20.49 -0.26l-10.17 6.19 -10.33 -5.93 20.49 -0.26zm345.92 -210.7l-345.92 210.7 -20.93 -34.37 345.92 -210.7 20.86 -0.06 0.07 34.43zm-0.07 -34.43l28.45 17.15 -28.37 17.28 -0.07 -34.43z"/>
    </g>
    <g>
     <path class="fil1" style="mask:url(#id92)" d="M4231.72 4363.59l3.15 -418.26 40.25 0.3 -3.15 418.26 -30.41 17.15 -9.84 -17.44zm40.25 0.3l-0.27 35.08 -30.15 -17.93 30.41 -17.15zm-382.49 -239.15l372.65 221.7 -20.58 34.59 -372.65 -221.7 -9.83 -17.76 30.41 -16.83zm-20.58 34.59l-10.09 -6.01 0.27 -11.75 9.83 17.76zm39.84 -424.09l-9.44 407.26 -40.23 -0.92 9.44 -407.26 40.23 0.92z"/>
    </g>
    <g>
     <path class="fil1" style="mask:url(#id94)" d="M4582.37 4157.84l-1.58 -422.98 40.25 -0.15 1.58 422.98 -9.93 17.43 -30.32 -17.28zm40.25 -0.15l0.05 11.56 -9.97 5.86 9.93 -17.43zm-380.97 188.7l350.65 -205.98 20.39 34.7 -350.65 205.98 -20.39 -34.7z"/>
    </g>
   </g>
   <g>
    <g>
     <path class="fil1" style="mask:url(#id96)" d="M3465.68 736.36l352.21 212.27 -20.78 34.48 -352.21 -212.27 0.17 -34.57 20.62 0.09zm-20.62 -0.09l10.34 -6.1 10.27 6.19 -20.62 -0.09zm-360.08 212.27l360.08 -212.27 20.45 34.67 -360.08 212.27 -20.25 0.11 -0.19 -34.78zm0.19 34.78l-29.96 -17.23 29.77 -17.55 0.19 34.78zm366.37 210.7l-366.37 -210.7 20.06 -34.89 366.37 210.7 0.43 34.63 -20.49 0.26zm20.49 -0.26l-10.17 6.19 -10.33 -5.93 20.49 -0.26zm345.93 -210.7l-345.93 210.7 -20.93 -34.37 345.93 -210.7 20.86 -0.06 0.07 34.43zm-0.07 -34.43l28.45 17.15 -28.37 17.28 -0.07 -34.43z"/>
    </g>
    <g>
     <path class="fil1" style="mask:url(#id98)" d="M3438.31 1594.68l3.14 -418.26 40.25 0.3 -3.14 418.26 -30.41 17.15 -9.84 -17.44zm40.25 0.3l-0.27 35.08 -30.15 -17.93 30.41 -17.15zm-382.49 -239.15l372.65 221.7 -20.58 34.59 -372.65 -221.7 -9.83 -17.76 30.41 -16.83zm-20.58 34.59l-10.09 -6.01 0.27 -11.75 9.83 17.76zm39.83 -424.09l-9.43 407.26 -40.23 -0.92 9.43 -407.26 40.23 0.92z"/>
    </g>
    <g>
     <path class="fil1" style="mask:url(#id100)" d="M3788.95 1388.93l-1.57 -422.98 40.25 -0.15 1.57 422.98 -9.93 17.43 -30.32 -17.28zm40.25 -0.15l0.05 11.56 -9.97 5.86 9.93 -17.43zm-380.96 188.7l350.64 -205.98 20.39 34.7 -350.64 205.98 -20.39 -34.7z"/>
    </g>
   </g>
   <g>
    <g>
     <path class="fil1" style="mask:url(#id102)" d="M3857.16 1439.25l352.21 212.27 -20.78 34.48 -352.21 -212.27 0.17 -34.57 20.62 0.09zm-20.62 -0.09l10.34 -6.1 10.27 6.19 -20.62 -0.09zm-360.07 212.27l360.07 -212.27 20.45 34.67 -360.07 212.27 -20.25 0.11 -0.19 -34.78zm0.19 34.78l-29.96 -17.23 29.77 -17.55 0.19 34.78zm366.37 210.7l-366.37 -210.7 20.06 -34.89 366.37 210.7 0.43 34.63 -20.49 0.26zm20.49 -0.26l-10.17 6.19 -10.33 -5.93 20.49 -0.26zm345.92 -210.7l-345.92 210.7 -20.93 -34.37 345.92 -210.7 20.86 -0.06 0.07 34.43zm-0.07 -34.43l28.45 17.15 -28.37 17.28 -0.07 -34.43z"/>
    </g>
    <g>
     <path class="fil1" style="mask:url(#id104)" d="M3829.79 2297.58l3.15 -418.26 40.25 0.3 -3.15 418.26 -30.41 17.15 -9.84 -17.44zm40.25 0.3l-0.27 35.08 -30.15 -17.93 30.41 -17.15zm-382.49 -239.15l372.65 221.7 -20.58 34.59 -372.65 -221.7 -9.83 -17.76 30.41 -16.83zm-20.58 34.59l-10.09 -6.01 0.27 -11.75 9.83 17.76zm39.84 -424.09l-9.44 407.26 -40.23 -0.92 9.44 -407.26 40.23 0.92z"/>
    </g>
    <g>
     <path class="fil1" style="mask:url(#id106)" d="M4180.43 2091.82l-1.57 -422.98 40.25 -0.15 1.57 422.98 -9.93 17.43 -30.32 -17.28zm40.25 -0.15l0.05 11.56 -9.97 5.86 9.93 -17.43zm-380.96 188.7l350.64 -205.98 20.39 34.7 -350.64 205.98 -20.39 -34.7z"/>
    </g>
   </g>
   <g>
    <g>
     <path class="fil1" style="mask:url(#id108)" d="M4259.96 2127.92l352.21 212.28 -20.78 34.48 -352.21 -212.28 0.17 -34.57 20.62 0.09zm-20.62 -0.09l10.34 -6.1 10.27 6.19 -20.62 -0.09zm-360.08 212.28l360.08 -212.28 20.45 34.67 -360.08 212.28 -20.25 0.11 -0.19 -34.78zm0.19 34.78l-29.96 -17.23 29.77 -17.55 0.19 34.78zm366.37 210.69l-366.37 -210.69 20.06 -34.89 366.37 210.69 0.43 34.63 -20.49 0.26zm20.49 -0.26l-10.17 6.19 -10.33 -5.93 20.49 -0.26zm345.92 -210.69l-345.92 210.69 -20.93 -34.37 345.92 -210.69 20.86 -0.06 0.07 34.43zm-0.07 -34.43l28.45 17.15 -28.37 17.28 -0.07 -34.43z"/>
    </g>
    <g>
     <path class="fil1" style="mask:url(#id110)" d="M4232.57 2986.25l3.15 -418.27 40.25 0.3 -3.15 418.27 -30.41 17.15 -9.84 -17.44zm40.25 0.3l-0.27 35.08 -30.15 -17.93 30.41 -17.15zm-382.49 -239.15l372.65 221.71 -20.58 34.59 -372.65 -221.71 -9.83 -17.76 30.41 -16.83zm-20.58 34.59l-10.09 -6.01 0.27 -11.75 9.83 17.76zm39.84 -424.08l-9.44 407.25 -40.23 -0.92 9.44 -407.25 40.23 0.92z"/>
    </g>
    <g>
     <path class="fil1" style="mask:url(#id112)" d="M4583.23 2780.49l-1.58 -422.97 40.25 -0.15 1.58 422.97 -9.93 17.43 -30.32 -17.28zm40.25 -0.15l0.05 11.56 -9.97 5.86 9.93 -17.43zm-380.97 188.71l350.65 -205.99 20.39 34.7 -350.65 205.99 -20.39 -34.7z"/>
    </g>
   </g>
   <g>
    <g>
     <path class="fil1" style="mask:url(#id114)" d="M4662.74 2816.6l352.21 212.27 -20.78 34.48 -352.21 -212.27 0.17 -34.57 20.62 0.09zm-20.62 -0.09l10.34 -6.1 10.27 6.19 -20.62 -0.09zm-360.08 212.27l360.08 -212.27 20.45 34.67 -360.08 212.27 -20.25 0.11 -0.19 -34.78zm0.19 34.78l-29.96 -17.23 29.77 -17.55 0.19 34.78zm366.37 210.7l-366.37 -210.7 20.06 -34.89 366.37 210.7 0.43 34.63 -20.49 0.26zm20.49 -0.26l-10.17 6.19 -10.33 -5.93 20.49 -0.26zm345.93 -210.7l-345.93 210.7 -20.93 -34.37 345.93 -210.7 20.86 -0.06 0.07 34.43zm-0.07 -34.43l28.45 17.15 -28.37 17.28 -0.07 -34.43z"/>
    </g>
    <g>
     <path class="fil1" style="mask:url(#id116)" d="M4635.35 3674.92l3.15 -418.26 40.25 0.3 -3.15 418.26 -30.41 17.15 -9.84 -17.44zm40.25 0.3l-0.27 35.08 -30.15 -17.93 30.41 -17.15zm-382.49 -239.15l372.65 221.7 -20.58 34.59 -372.65 -221.7 -9.83 -17.76 30.41 -16.83zm-20.58 34.59l-10.09 -6.01 0.27 -11.75 9.83 17.76zm39.84 -424.09l-9.44 407.26 -40.23 -0.92 9.44 -407.26 40.23 0.92z"/>
    </g>
    <g>
     <path class="fil1" style="mask:url(#id118)" d="M4986.01 3469.16l-1.57 -422.98 40.25 -0.15 1.57 422.98 -9.93 17.43 -30.32 -17.28zm40.25 -0.15l0.05 11.56 -9.97 5.86 9.93 -17.43zm-380.97 188.7l350.65 -205.98 20.39 34.7 -350.65 205.98 -20.39 -34.7z"/>
    </g>
   </g>
   <g>
    <g>
     <path class="fil1" style="mask:url(#id120)" d="M5065.52 3505.27l352.21 212.27 -20.78 34.48 -352.21 -212.27 0.17 -34.57 20.62 0.09zm-20.62 -0.09l10.34 -6.1 10.27 6.19 -20.62 -0.09zm-360.07 212.27l360.07 -212.27 20.45 34.67 -360.07 212.27 -20.25 0.11 -0.19 -34.78zm0.19 34.78l-29.96 -17.23 29.77 -17.55 0.19 34.78zm366.36 210.7l-366.36 -210.7 20.06 -34.89 366.36 210.7 0.43 34.63 -20.49 0.26zm20.49 -0.26l-10.17 6.19 -10.33 -5.93 20.49 -0.26zm345.93 -210.7l-345.93 210.7 -20.93 -34.37 345.93 -210.7 20.86 -0.06 0.07 34.43zm-0.07 -34.43l28.45 17.15 -28.37 17.28 -0.07 -34.43z"/>
    </g>
    <g>
     <path class="fil1" style="mask:url(#id122)" d="M5038.15 4363.59l3.14 -418.26 40.25 0.3 -3.14 418.26 -30.41 17.15 -9.84 -17.44zm40.25 0.3l-0.27 35.08 -30.15 -17.93 30.41 -17.15zm-382.49 -239.15l372.65 221.7 -20.58 34.59 -372.65 -221.7 -9.83 -17.76 30.41 -16.83zm-20.58 34.59l-10.09 -6.01 0.27 -11.75 9.83 17.76zm39.84 -424.09l-9.44 407.26 -40.23 -0.92 9.44 -407.26 40.23 0.92z"/>
    </g>
    <g>
     <path class="fil1" style="mask:url(#id124)" d="M5388.79 4157.84l-1.57 -422.98 40.25 -0.15 1.57 422.98 -9.93 17.43 -30.32 -17.28zm40.25 -0.15l0.05 11.56 -9.97 5.86 9.93 -17.43zm-380.96 188.7l350.64 -205.98 20.39 34.7 -350.64 205.98 -20.39 -34.7z"/>
    </g>
   </g>
   <g>
    <g>
     <path class="fil1" style="mask:url(#id126)" d="M5429.03 1439.25l352.21 212.27 -20.78 34.48 -352.21 -212.27 0.17 -34.57 20.62 0.09zm-20.62 -0.09l10.34 -6.1 10.27 6.19 -20.62 -0.09zm-360.08 212.27l360.08 -212.27 20.45 34.67 -360.08 212.27 -20.25 0.11 -0.19 -34.78zm0.19 34.78l-29.96 -17.23 29.77 -17.55 0.19 34.78zm366.37 210.7l-366.37 -210.7 20.06 -34.89 366.37 210.7 0.43 34.63 -20.49 0.26zm20.49 -0.26l-10.17 6.19 -10.33 -5.93 20.49 -0.26zm345.92 -210.7l-345.92 210.7 -20.93 -34.37 345.92 -210.7 20.86 -0.06 0.07 34.43zm-0.07 -34.43l28.45 17.15 -28.37 17.28 -0.07 -34.43z"/>
    </g>
    <g>
     <path class="fil1" style="mask:url(#id128)" d="M5401.65 2297.58l3.15 -418.26 40.25 0.3 -3.15 418.26 -30.41 17.15 -9.84 -17.44zm40.25 0.3l-0.27 35.08 -30.15 -17.93 30.41 -17.15zm-382.49 -239.15l372.65 221.7 -20.58 34.59 -372.65 -221.7 -9.83 -17.76 30.41 -16.83zm-20.58 34.59l-10.09 -6.01 0.27 -11.75 9.83 17.76zm39.84 -424.09l-9.44 407.26 -40.23 -0.92 9.44 -407.26 40.23 0.92z"/>
    </g>
    <g>
     <path class="fil1" style="mask:url(#id130)" d="M5752.3 2091.82l-1.58 -422.98 40.25 -0.15 1.58 422.98 -9.93 17.43 -30.32 -17.28zm40.25 -0.15l0.05 11.56 -9.97 5.86 9.93 -17.43zm-380.97 188.7l350.65 -205.98 20.39 34.7 -350.65 205.98 -20.39 -34.7z"/>
    </g>
   </g>
   <g>
    <g>
     <path class="fil1" style="mask:url(#id132)" d="M5831.81 2127.92l352.21 212.28 -20.78 34.48 -352.21 -212.28 0.17 -34.57 20.62 0.09zm-20.62 -0.09l10.34 -6.1 10.27 6.19 -20.62 -0.09zm-360.08 212.28l360.08 -212.28 20.45 34.67 -360.08 212.28 -20.25 0.11 -0.19 -34.78zm0.19 34.78l-29.96 -17.23 29.77 -17.55 0.19 34.78zm366.37 210.69l-366.37 -210.69 20.06 -34.89 366.37 210.69 0.43 34.63 -20.49 0.26zm20.49 -0.26l-10.17 6.19 -10.33 -5.93 20.49 -0.26zm345.93 -210.69l-345.93 210.69 -20.93 -34.37 345.93 -210.69 20.86 -0.06 0.07 34.43zm-0.07 -34.43l28.45 17.15 -28.37 17.28 -0.07 -34.43z"/>
    </g>
    <g>
     <path class="fil1" style="mask:url(#id134)" d="M5804.44 2986.25l3.14 -418.27 40.25 0.3 -3.14 418.27 -30.41 17.15 -9.84 -17.44zm40.25 0.3l-0.27 35.08 -30.15 -17.93 30.41 -17.15zm-382.49 -239.15l372.65 221.71 -20.58 34.59 -372.65 -221.71 -9.83 -17.76 30.41 -16.83zm-20.58 34.59l-10.09 -6.01 0.27 -11.75 9.83 17.76zm39.83 -424.08l-9.43 407.25 -40.23 -0.92 9.43 -407.25 40.23 0.92z"/>
    </g>
    <g>
     <path class="fil1" style="mask:url(#id136)" d="M6155.08 2780.49l-1.57 -422.97 40.25 -0.15 1.57 422.97 -9.93 17.43 -30.32 -17.28zm40.25 -0.15l0.05 11.56 -9.97 5.86 9.93 -17.43zm-380.96 188.71l350.64 -205.99 20.39 34.7 -350.64 205.99 -20.39 -34.7z"/>
    </g>
   </g>
   <g>
    <g>
     <path class="fil1" style="mask:url(#id138)" d="M6234.59 2816.6l352.21 212.27 -20.78 34.48 -352.21 -212.27 0.17 -34.57 20.62 0.09zm-20.62 -0.09l10.34 -6.1 10.27 6.19 -20.62 -0.09zm-360.07 212.27l360.07 -212.27 20.45 34.67 -360.07 212.27 -20.25 0.11 -0.19 -34.78zm0.19 34.78l-29.96 -17.23 29.77 -17.55 0.19 34.78zm366.37 210.7l-366.37 -210.7 20.06 -34.89 366.37 210.7 0.43 34.63 -20.49 0.26zm20.49 -0.26l-10.17 6.19 -10.33 -5.93 20.49 -0.26zm345.92 -210.7l-345.92 210.7 -20.93 -34.37 345.92 -210.7 20.86 -0.06 0.07 34.43zm-0.07 -34.43l28.45 17.15 -28.37 17.28 -0.07 -34.43z"/>
    </g>
    <g>
     <path class="fil1" style="mask:url(#id140)" d="M6207.22 3674.92l3.15 -418.26 40.25 0.3 -3.15 418.26 -30.41 17.15 -9.84 -17.44zm40.25 0.3l-0.27 35.08 -30.15 -17.93 30.41 -17.15zm-382.49 -239.15l372.65 221.7 -20.58 34.59 -372.65 -221.7 -9.83 -17.76 30.41 -16.83zm-20.58 34.59l-10.09 -6.01 0.27 -11.75 9.83 17.76zm39.84 -424.09l-9.44 407.26 -40.23 -0.92 9.44 -407.26 40.23 0.92z"/>
    </g>
    <g>
     <path class="fil1" style="mask:url(#id142)" d="M6557.86 3469.16l-1.57 -422.98 40.25 -0.15 1.57 422.98 -9.93 17.43 -30.32 -17.28zm40.25 -0.15l0.05 11.56 -9.97 5.86 9.93 -17.43zm-380.96 188.7l350.64 -205.98 20.39 34.7 -350.64 205.98 -20.39 -34.7z"/>
    </g>
   </g>
   <g>
    <g>
     <path class="fil1" style="mask:url(#id144)" d="M6637.38 3505.27l352.21 212.27 -20.78 34.48 -352.21 -212.27 0.17 -34.57 20.62 0.09zm-20.62 -0.09l10.34 -6.1 10.27 6.19 -20.62 -0.09zm-360.08 212.27l360.08 -212.27 20.45 34.67 -360.08 212.27 -20.25 0.11 -0.19 -34.78zm0.19 34.78l-29.96 -17.23 29.77 -17.55 0.19 34.78zm366.37 210.7l-366.37 -210.7 20.06 -34.89 366.37 210.7 0.43 34.63 -20.49 0.26zm20.49 -0.26l-10.17 6.19 -10.33 -5.93 20.49 -0.26zm345.92 -210.7l-345.92 210.7 -20.93 -34.37 345.92 -210.7 20.86 -0.06 0.07 34.43zm-0.07 -34.43l28.45 17.15 -28.37 17.28 -0.07 -34.43z"/>
    </g>
    <g>
     <path class="fil1" style="mask:url(#id146)" d="M6610 4363.59l3.15 -418.26 40.25 0.3 -3.15 418.26 -30.41 17.15 -9.84 -17.44zm40.25 0.3l-0.27 35.08 -30.15 -17.93 30.41 -17.15zm-382.49 -239.15l372.65 221.7 -20.58 34.59 -372.65 -221.7 -9.83 -17.76 30.41 -16.83zm-20.58 34.59l-10.09 -6.01 0.27 -11.75 9.83 17.76zm39.84 -424.09l-9.44 407.26 -40.23 -0.92 9.44 -407.26 40.23 0.92z"/>
    </g>
    <g>
     <path class="fil1" style="mask:url(#id148)" d="M6960.65 4157.84l-1.58 -422.98 40.25 -0.15 1.58 422.98 -9.93 17.43 -30.32 -17.28zm40.25 -0.15l0.05 11.56 -9.97 5.86 9.93 -17.43zm-380.97 188.7l350.65 -205.98 20.39 34.7 -350.65 205.98 -20.39 -34.7z"/>
    </g>
   </g>
   <g>
    <g>
     <path class="fil1" style="mask:url(#id150)" d="M4272.1 736.36l352.21 212.27 -20.78 34.48 -352.21 -212.27 0.17 -34.57 20.62 0.09zm-20.62 -0.09l10.34 -6.1 10.27 6.19 -20.62 -0.09zm-360.08 212.27l360.08 -212.27 20.45 34.67 -360.08 212.27 -20.25 0.11 -0.19 -34.78zm0.19 34.78l-29.96 -17.23 29.77 -17.55 0.19 34.78zm366.37 210.7l-366.37 -210.7 20.06 -34.89 366.37 210.7 0.43 34.63 -20.49 0.26zm20.49 -0.26l-10.17 6.19 -10.33 -5.93 20.49 -0.26zm345.92 -210.7l-345.92 210.7 -20.93 -34.37 345.92 -210.7 20.86 -0.06 0.07 34.43zm-0.07 -34.43l28.45 17.15 -28.37 17.28 -0.07 -34.43z"/>
    </g>
    <g>
     <path class="fil1" style="mask:url(#id152)" d="M4244.72 1594.68l3.15 -418.26 40.25 0.3 -3.15 418.26 -30.41 17.15 -9.84 -17.44zm40.25 0.3l-0.27 35.08 -30.15 -17.93 30.41 -17.15zm-382.49 -239.15l372.65 221.7 -20.58 34.59 -372.65 -221.7 -9.83 -17.76 30.41 -16.83zm-20.58 34.59l-10.09 -6.01 0.27 -11.75 9.83 17.76zm39.84 -424.09l-9.44 407.26 -40.23 -0.92 9.44 -407.26 40.23 0.92z"/>
    </g>
    <g>
     <path class="fil1" style="mask:url(#id154)" d="M4595.37 1388.93l-1.58 -422.98 40.25 -0.15 1.58 422.98 -9.93 17.43 -30.32 -17.28zm40.25 -0.15l0.05 11.56 -9.97 5.86 9.93 -17.43zm-380.97 188.7l350.65 -205.98 20.39 34.7 -350.65 205.98 -20.39 -34.7z"/>
    </g>
   </g>
   <g>
    <g>
     <path class="fil1" style="mask:url(#id156)" d="M4663.59 1439.25l352.21 212.27 -20.78 34.48 -352.21 -212.27 0.17 -34.57 20.62 0.09zm-20.62 -0.09l10.34 -6.1 10.27 6.19 -20.62 -0.09zm-360.08 212.27l360.08 -212.27 20.45 34.67 -360.08 212.27 -20.25 0.11 -0.19 -34.78zm0.19 34.78l-29.96 -17.23 29.77 -17.55 0.19 34.78zm366.37 210.7l-366.37 -210.7 20.06 -34.89 366.37 210.7 0.43 34.63 -20.49 0.26zm20.49 -0.26l-10.17 6.19 -10.33 -5.93 20.49 -0.26zm345.92 -210.7l-345.92 210.7 -20.93 -34.37 345.92 -210.7 20.86 -0.06 0.07 34.43zm-0.07 -34.43l28.45 17.15 -28.37 17.28 -0.07 -34.43z"/>
    </g>
    <g>
     <path class="fil1" style="mask:url(#id158)" d="M4636.21 2297.58l3.15 -418.26 40.25 0.3 -3.15 418.26 -30.41 17.15 -9.84 -17.44zm40.25 0.3l-0.27 35.08 -30.15 -17.93 30.41 -17.15zm-382.49 -239.15l372.65 221.7 -20.58 34.59 -372.65 -221.7 -9.83 -17.76 30.41 -16.83zm-20.58 34.59l-10.09 -6.01 0.27 -11.75 9.83 17.76zm39.84 -424.09l-9.44 407.26 -40.23 -0.92 9.44 -407.26 40.23 0.92z"/>
    </g>
    <g>
     <path class="fil1" style="mask:url(#id160)" d="M4986.86 2091.82l-1.58 -422.98 40.25 -0.15 1.58 422.98 -9.93 17.43 -30.32 -17.28zm40.25 -0.15l0.05 11.56 -9.97 5.86 9.93 -17.43zm-380.97 188.7l350.65 -205.98 20.39 34.7 -350.65 205.98 -20.39 -34.7z"/>
    </g>
   </g>
   <g>
    <g>
     <path class="fil1" style="mask:url(#id162)" d="M5066.37 2127.92l352.21 212.28 -20.78 34.48 -352.21 -212.28 0.17 -34.57 20.62 0.09zm-20.62 -0.09l10.34 -6.1 10.27 6.19 -20.62 -0.09zm-360.08 212.28l360.08 -212.28 20.45 34.67 -360.08 212.28 -20.25 0.11 -0.19 -34.78zm0.19 34.78l-29.96 -17.23 29.77 -17.55 0.19 34.78zm366.37 210.69l-366.37 -210.69 20.06 -34.89 366.37 210.69 0.43 34.63 -20.49 0.26zm20.49 -0.26l-10.17 6.19 -10.33 -5.93 20.49 -0.26zm345.93 -210.69l-345.93 210.69 -20.93 -34.37 345.93 -210.69 20.86 -0.06 0.07 34.43zm-0.07 -34.43l28.45 17.15 -28.37 17.28 -0.07 -34.43z"/>
    </g>
    <g>
     <path class="fil1" style="mask:url(#id164)" d="M5039 2986.25l3.14 -418.27 40.25 0.3 -3.14 418.27 -30.41 17.15 -9.84 -17.44zm40.25 0.3l-0.27 35.08 -30.15 -17.93 30.41 -17.15zm-382.49 -239.15l372.65 221.71 -20.58 34.59 -372.65 -221.71 -9.83 -17.76 30.41 -16.83zm-20.58 34.59l-10.09 -6.01 0.27 -11.75 9.83 17.76zm39.83 -424.08l-9.43 407.25 -40.23 -0.92 9.43 -407.25 40.23 0.92z"/>
    </g>
    <g>
     <path class="fil1" style="mask:url(#id166)" d="M5389.64 2780.49l-1.57 -422.97 40.25 -0.15 1.57 422.97 -9.93 17.43 -30.32 -17.28zm40.25 -0.15l0.05 11.56 -9.97 5.86 9.93 -17.43zm-380.96 188.71l350.64 -205.99 20.39 34.7 -350.64 205.99 -20.39 -34.7z"/>
    </g>
   </g>
   <g>
    <g>
     <path class="fil1" style="mask:url(#id168)" d="M5469.15 2816.6l352.21 212.27 -20.78 34.48 -352.21 -212.27 0.17 -34.57 20.62 0.09zm-20.62 -0.09l10.34 -6.1 10.27 6.19 -20.62 -0.09zm-360.07 212.27l360.07 -212.27 20.45 34.67 -360.07 212.27 -20.25 0.11 -0.19 -34.78zm0.19 34.78l-29.96 -17.23 29.77 -17.55 0.19 34.78zm366.37 210.7l-366.37 -210.7 20.06 -34.89 366.37 210.7 0.43 34.63 -20.49 0.26zm20.49 -0.26l-10.17 6.19 -10.33 -5.93 20.49 -0.26zm345.92 -210.7l-345.92 210.7 -20.93 -34.37 345.92 -210.7 20.86 -0.06 0.07 34.43zm-0.07 -34.43l28.45 17.15 -28.37 17.28 -0.07 -34.43z"/>
    </g>
    <g>
     <path class="fil1" style="mask:url(#id170)" d="M5441.78 3674.92l3.15 -418.26 40.25 0.3 -3.15 418.26 -30.41 17.15 -9.84 -17.44zm40.25 0.3l-0.27 35.08 -30.15 -17.93 30.41 -17.15zm-382.49 -239.15l372.65 221.7 -20.58 34.59 -372.65 -221.7 -9.83 -17.76 30.41 -16.83zm-20.58 34.59l-10.09 -6.01 0.27 -11.75 9.83 17.76zm39.84 -424.09l-9.44 407.26 -40.23 -0.92 9.44 -407.26 40.23 0.92z"/>
    </g>
    <g>
     <path class="fil1" style="mask:url(#id172)" d="M5792.42 3469.16l-1.57 -422.98 40.25 -0.15 1.57 422.98 -9.93 17.43 -30.32 -17.28zm40.25 -0.15l0.05 11.56 -9.97 5.86 9.93 -17.43zm-380.96 188.7l350.64 -205.98 20.39 34.7 -350.64 205.98 -20.39 -34.7z"/>
    </g>
   </g>
   <g>
    <g>
     <path class="fil1" style="mask:url(#id174)" d="M5871.94 3505.27l352.21 212.27 -20.78 34.48 -352.21 -212.27 0.17 -34.57 20.62 0.09zm-20.62 -0.09l10.34 -6.1 10.27 6.19 -20.62 -0.09zm-360.08 212.27l360.08 -212.27 20.45 34.67 -360.08 212.27 -20.25 0.11 -0.19 -34.78zm0.19 34.78l-29.96 -17.23 29.77 -17.55 0.19 34.78zm366.37 210.7l-366.37 -210.7 20.06 -34.89 366.37 210.7 0.43 34.63 -20.49 0.26zm20.49 -0.26l-10.17 6.19 -10.33 -5.93 20.49 -0.26zm345.92 -210.7l-345.92 210.7 -20.93 -34.37 345.92 -210.7 20.86 -0.06 0.07 34.43zm-0.07 -34.43l28.45 17.15 -28.37 17.28 -0.07 -34.43z"/>
    </g>
    <g>
     <path class="fil1" style="mask:url(#id176)" d="M5844.56 4363.59l3.15 -418.26 40.25 0.3 -3.15 418.26 -30.41 17.15 -9.84 -17.44zm40.25 0.3l-0.27 35.08 -30.15 -17.93 30.41 -17.15zm-382.49 -239.15l372.65 221.7 -20.58 34.59 -372.65 -221.7 -9.83 -17.76 30.41 -16.83zm-20.58 34.59l-10.09 -6.01 0.27 -11.75 9.83 17.76zm39.84 -424.09l-9.44 407.26 -40.23 -0.92 9.44 -407.26 40.23 0.92z"/>
    </g>
    <g>
     <path class="fil1" style="mask:url(#id178)" d="M6195.21 4157.84l-1.58 -422.98 40.25 -0.15 1.58 422.98 -9.93 17.43 -30.32 -17.28zm40.25 -0.15l0.05 11.56 -9.97 5.86 9.93 -17.43zm-380.97 188.7l350.65 -205.98 20.39 34.7 -350.65 205.98 -20.39 -34.7z"/>
    </g>
   </g>
   <g>
    <g>
     <path class="fil1" style="mask:url(#id180)" d="M6235.44 1439.25l352.21 212.27 -20.78 34.48 -352.21 -212.27 0.17 -34.57 20.62 0.09zm-20.62 -0.09l10.34 -6.1 10.27 6.19 -20.62 -0.09zm-360.07 212.27l360.07 -212.27 20.45 34.67 -360.07 212.27 -20.25 0.11 -0.19 -34.78zm0.19 34.78l-29.96 -17.23 29.77 -17.55 0.19 34.78zm366.37 210.7l-366.37 -210.7 20.06 -34.89 366.37 210.7 0.43 34.63 -20.49 0.26zm20.49 -0.26l-10.17 6.19 -10.33 -5.93 20.49 -0.26zm345.92 -210.7l-345.92 210.7 -20.93 -34.37 345.92 -210.7 20.86 -0.06 0.07 34.43zm-0.07 -34.43l28.45 17.15 -28.37 17.28 -0.07 -34.43z"/>
    </g>
    <g>
     <path class="fil1" style="mask:url(#id182)" d="M6208.07 2297.58l3.15 -418.26 40.25 0.3 -3.15 418.26 -30.41 17.15 -9.84 -17.44zm40.25 0.3l-0.27 35.08 -30.15 -17.93 30.41 -17.15zm-382.49 -239.15l372.65 221.7 -20.58 34.59 -372.65 -221.7 -9.83 -17.76 30.41 -16.83zm-20.58 34.59l-10.09 -6.01 0.27 -11.75 9.83 17.76zm39.84 -424.09l-9.44 407.26 -40.23 -0.92 9.44 -407.26 40.23 0.92z"/>
    </g>
    <g>
     <path class="fil1" style="mask:url(#id184)" d="M6558.71 2091.82l-1.57 -422.98 40.25 -0.15 1.57 422.98 -9.93 17.43 -30.32 -17.28zm40.25 -0.15l0.05 11.56 -9.97 5.86 9.93 -17.43zm-380.96 188.7l350.64 -205.98 20.39 34.7 -350.64 205.98 -20.39 -34.7z"/>
    </g>
   </g>
   <g>
    <g>
     <path class="fil1" style="mask:url(#id186)" d="M6638.23 2127.92l352.21 212.28 -20.78 34.48 -352.21 -212.28 0.17 -34.57 20.62 0.09zm-20.62 -0.09l10.34 -6.1 10.27 6.19 -20.62 -0.09zm-360.08 212.28l360.08 -212.28 20.45 34.67 -360.08 212.28 -20.25 0.11 -0.19 -34.78zm0.19 34.78l-29.96 -17.23 29.77 -17.55 0.19 34.78zm366.37 210.69l-366.37 -210.69 20.06 -34.89 366.37 210.69 0.43 34.63 -20.49 0.26zm20.49 -0.26l-10.17 6.19 -10.33 -5.93 20.49 -0.26zm345.92 -210.69l-345.92 210.69 -20.93 -34.37 345.92 -210.69 20.86 -0.06 0.07 34.43zm-0.07 -34.43l28.45 17.15 -28.37 17.28 -0.07 -34.43z"/>
    </g>
    <g>
     <path class="fil1" style="mask:url(#id188)" d="M6610.85 2986.25l3.15 -418.27 40.25 0.3 -3.15 418.27 -30.41 17.15 -9.84 -17.44zm40.25 0.3l-0.27 35.08 -30.15 -17.93 30.41 -17.15zm-382.49 -239.15l372.65 221.71 -20.58 34.59 -372.65 -221.71 -9.83 -17.76 30.41 -16.83zm-20.58 34.59l-10.09 -6.01 0.27 -11.75 9.83 17.76zm39.84 -424.08l-9.44 407.25 -40.23 -0.92 9.44 -407.25 40.23 0.92z"/>
    </g>
    <g>
     <path class="fil1" style="mask:url(#id190)" d="M6961.5 2780.49l-1.58 -422.97 40.25 -0.15 1.58 422.97 -9.93 17.43 -30.32 -17.28zm40.25 -0.15l0.05 11.56 -9.97 5.86 9.93 -17.43zm-380.97 188.71l350.65 -205.99 20.39 34.7 -350.65 205.99 -20.39 -34.7z"/>
    </g>
   </g>
   <g>
    <g>
     <path class="fil1" style="mask:url(#id192)" d="M7063.11 3717.45l264.47 -155.92 20.45 34.67 -264.47 155.92 -20.25 0.11 -0.19 -34.78zm0.19 34.78l-29.96 -17.23 29.77 -17.55 0.19 34.78zm264.47 152.09l-264.47 -152.09 20.06 -34.89 264.47 152.09 10.09 17.44 -30.16 17.44zm30.16 -17.44l0 34.79 -30.16 -17.34 30.16 -17.44zm0 -308.01l0 308.01 -40.25 0 0 -308.01 9.9 -17.33 30.35 17.33zm-30.35 -17.33l30.35 -17.9 0 35.23 -30.35 -17.33z"/>
    </g>
    <g>
     <path class="fil1" style="mask:url(#id194)" d="M7074.19 4124.75l273.9 162.95 -20.58 34.59 -273.9 -162.95 -9.83 -17.76 30.41 -16.83zm-20.58 34.59l-10.09 -6.01 0.27 -11.75 9.83 17.76zm39.84 -424.09l-9.44 407.26 -40.23 -0.92 9.44 -407.26 40.23 0.92z"/>
    </g>
   </g>
   <g>
    <g>
     <path class="fil1" style="mask:url(#id196)" d="M7041.02 2816.6l307.18 185.13 -20.78 34.48 -307.18 -185.13 0.17 -34.57 20.62 0.09zm-20.62 -0.09l10.34 -6.1 10.27 6.19 -20.62 -0.09zm-360.08 212.27l360.08 -212.27 20.45 34.67 -360.08 212.27 -20.25 0.11 -0.19 -34.78zm0.19 34.78l-29.96 -17.23 29.77 -17.55 0.19 34.78zm366.37 210.7l-366.37 -210.7 20.06 -34.89 366.37 210.7 0.43 34.63 -20.49 0.26zm20.49 -0.26l-10.17 6.19 -10.33 -5.93 20.49 -0.26zm300.89 -183.26l-300.89 183.26 -20.93 -34.37 300.89 -183.26 30.59 17.19 -9.66 17.19zm9.66 -17.19l0 11.31 -9.66 5.88 9.66 -17.19zm0 -54.58l0 54.58 -40.25 0 0 -54.58 30.52 -17.24 9.73 17.24zm-9.73 -17.24l9.73 5.87 0 11.37 -9.73 -17.24z"/>
    </g>
    <g>
     <path class="fil1" style="mask:url(#id198)" d="M7013.63 3674.92l3.15 -418.26 40.25 0.3 -3.15 418.26 -30.41 17.15 -9.84 -17.44zm40.25 0.3l-0.27 35.08 -30.15 -17.93 30.41 -17.15zm-382.49 -239.15l372.65 221.7 -20.58 34.59 -372.65 -221.7 -9.83 -17.76 30.41 -16.83zm-20.58 34.59l-10.09 -6.01 0.27 -11.75 9.83 17.76zm39.84 -424.09l-9.44 407.26 -40.23 -0.92 9.44 -407.26 40.23 0.92z"/>
    </g>
    <g>
     <polygon class="fil1" style="mask:url(#id200)" points="7023.56,3657.71 7327.6,3479.12 7348,3513.82 7043.96,3692.42 "/>
    </g>
   </g>
  </g>
 </g>
</svg>
