<?xml version="1.0" encoding="UTF-8"?>
<!DOCTYPE svg PUBLIC "-//W3C//DTD SVG 1.1//EN" "http://www.w3.org/Graphics/SVG/1.1/DTD/svg11.dtd">
<!-- Creator: CorelDRAW 2018 (64-Bit Evaluation Version) -->
<svg xmlns="http://www.w3.org/2000/svg" xml:space="preserve" width="82.6724mm" height="83.0453mm" version="1.1" style="shape-rendering:geometricPrecision; text-rendering:geometricPrecision; image-rendering:optimizeQuality; fill-rule:evenodd; clip-rule:evenodd"
viewBox="0 0 3623.64 3639.99"
 xmlns:xlink="http://www.w3.org/1999/xlink">
 <defs>
  <style type="text/css">
   <![CDATA[
    .fil0 {fill:#5AEEBC;fill-rule:nonzero}
    .fil1 {fill:#00C2FF;fill-rule:nonzero}
    .fil2 {fill:#FBD13D;fill-rule:nonzero}
   ]]>
  </style>
 </defs>
 <g id="Layer_x0020_1">
  <metadata id="CorelCorpID_0Corel-Layer"/>
  <g>
   <path class="fil0" d="M522.84 3017.21l501.63 283.06 -70.44 124.82 -501.63 -283.06 -36.42 -60.69 106.86 -64.13zm-70.44 124.82l-35.45 -20 -0.97 -40.69 36.42 60.69zm92.53 -662.49l14.33 598.36 -143.28 3.44 -14.33 -598.36 104.61 -65.34 38.67 61.91zm-38.67 -61.91l37.66 19.51 1.02 42.39 -38.67 -61.91zm-394.13 -204.23l394.13 204.23 -65.94 127.25 -394.13 -204.23 -38.69 -63.03 104.63 -64.22zm-65.94 127.25l-38.33 -19.86 -0.36 -43.17 38.69 63.03zm97.46 -931.3l7.17 867.08 -143.32 1.18 -7.17 -867.08 34.54 -61.89 108.78 60.71zm-143.32 1.18l-0.34 -40.77 34.88 -21.12 -34.54 61.89zm567.41 -216.99l-458.63 277.69 -74.23 -122.6 458.63 -277.69 108.76 63.03 -34.53 59.57zm34.53 -59.57l-0.95 39.24 -33.58 20.33 34.53 -59.57zm14.33 -594.78l-14.33 594.78 -143.28 -3.45 14.33 -594.78 35.69 -60.26 107.59 63.72zm-143.28 -3.45l0.97 -40.13 34.72 -20.14 -35.69 60.26zm892.27 -391.33l-784.68 455.05 -71.9 -123.98 784.68 -455.05 70.79 -0.63 1.11 124.61zm-71.9 -123.98l35.22 -20.43 35.57 19.79 -70.79 0.63zm477.65 389.76l-476.54 -265.15 69.68 -125.24 476.54 265.15 -0.73 125.64 -68.96 -0.4zm68.96 0.4l-34.59 18.72 -34.37 -19.12 68.96 0.4zm476.54 -257.98l-476.54 257.98 -68.23 -126.04 476.54 -257.98 73.12 2.91 -4.89 123.14zm-68.23 -126.04l37.42 -20.26 35.7 23.16 -73.12 -2.91zm801.29 646.25l-806.18 -523.12 78.01 -120.23 806.18 523.12 32.63 58.22 -110.64 62.01zm78.01 -120.23l31.63 20.53 1 37.69 -32.63 -58.22zm-96.31 603.05l-14.33 -541.04 143.28 -3.8 14.33 541.04 -107.78 63.78 -35.5 -59.98zm35.5 59.98l-34.44 -20.11 -1.06 -39.87 35.5 59.98zm447.88 261.56l-447.88 -261.56 72.28 -123.76 447.88 261.56 35.51 63.38 -107.79 60.38zm72.28 -123.76l36.39 21.25 -0.89 42.13 -35.51 -63.38zm-125.7 913.14l17.91 -852.76 143.29 3.01 -17.91 852.76 -33.08 58.9 -110.21 -61.9zm143.29 3.01l-0.81 38.29 -32.27 20.61 33.08 -58.9zm-491.8 181.74l381.58 -243.65 77.13 120.8 -381.58 243.65 -110.21 -61.97 33.08 -58.83zm-33.08 58.83l0.84 -38.24 32.24 -20.58 -33.08 58.83zm-12.54 571.49l12.54 -571.49 143.28 3.15 -12.54 571.49 -37.42 61.39 -105.87 -64.53zm143.28 3.15l-0.91 41.54 -36.51 19.84 37.42 -61.39zm-620.03 214.94l514.16 -279.47 68.45 125.92 -514.16 279.47 -68.45 -125.92z"/>
  </g>
  <g>
   <polygon class="fil0" points="488.35,1687.65 106.46,1872.1 44.12,1743.05 426.01,1558.59 "/>
  </g>
  <g>
   <polygon class="fil0" points="898.66,1461.64 491.09,1192.01 570.17,1072.48 977.74,1342.12 "/>
  </g>
  <g>
   <path class="fil0" d="M975.69 1888.96l-317.99 189.01 -73.22 -123.2 317.99 -189.01 72.95 -0.16 0.27 123.36zm-73.22 -123.2l36.43 -21.65 36.52 21.49 -72.95 0.16zm324.54 314.16l-324.26 -190.8 72.68 -123.53 324.26 190.8 -72.68 123.53z"/>
  </g>
  <g>
   <path class="fil0" d="M1009.86 1401.73l0.89 425.48 -143.32 0.3 -0.89 -425.48 33.21 -60.62 110.11 60.33zm-143.32 0.3l-0.08 -39.45 33.29 -21.17 -33.21 60.62zm506.02 -191.41l-395.92 251.73 -76.9 -120.95 395.92 -251.73 110.09 62.11 -33.19 58.84zm33.19 -58.84l-0.87 38.29 -32.32 20.55 33.19 -58.84zm8.95 -392.33l-8.95 392.33 -143.28 -3.27 8.95 -392.33 143.28 3.27z"/>
  </g>
  <g>
   <polygon class="fil0" points="927.44,942.92 922.07,277.8 1065.39,276.64 1070.76,941.76 "/>
  </g>
  <g>
   <polygon class="fil0" points="3106.29,1952.59 3567.62,2205.21 3498.78,2330.92 3037.45,2078.29 "/>
  </g>
  <g>
   <polygon class="fil0" points="2842.39,813.38 3093.02,803.47 3098.69,946.68 2848.05,956.6 "/>
  </g>
  <g>
   <path class="fil0" d="M1750.62 1218.98l-19.8 -871.86 143.28 -3.25 19.8 871.86 -107.61 63.61 -35.67 -60.36zm35.67 60.36l-34.76 -20.17 -0.91 -40.18 35.67 60.36zm463.11 268.73l-463.11 -268.73 71.94 -123.96 463.11 268.73 -71.94 123.96z"/>
  </g>
  <g>
   <path class="fil1" d="M1239.99 3496.67l1151.08 0 0 143.32 -1151.08 0 -71.66 -71.66 71.66 -71.66zm0 143.32l-71.66 0 0 -71.66 71.66 71.66zm71.66 -1222.73l0 1151.07 -143.32 0 0 -1151.07 27.23 -56.22 116.09 56.22zm-143.32 0l0 -34.71 27.23 -21.52 -27.23 56.22zm683.57 -392.25l-567.48 448.47 -88.86 -112.44 567.48 -448.47 88.1 -0.6 0.77 113.05zm-88.86 -112.44l43.82 -34.63 44.28 34.03 -88.1 0.6zm584.36 561.51l-583.6 -448.47 87.33 -113.65 583.6 448.47 28 56.82 -115.32 56.82zm87.33 -113.65l28 21.51 0 35.31 -28 -56.82zm-115.32 1207.9l0 -1151.07 143.32 0 0 1151.07 -71.66 71.66 -71.66 -71.66zm143.32 0l0 71.66 -71.66 0 71.66 -71.66z"/>
  </g>
  <g>
   <path class="fil2" d="M2036.22 2418.57l-143.33 0 0 0 -0.1 -4.07 -0.3 -3.96 -0.5 -3.89 -0.68 -3.81 -0.87 -3.74 -1.03 -3.63 -1.21 -3.56 -1.39 -3.52 -1.54 -3.41 -1.71 -3.34 -1.85 -3.22 -2.01 -3.14 -2.16 -3.04 -2.29 -2.91 -2.44 -2.82 -2.59 -2.71 -2.68 -2.56 -2.8 -2.42 -2.94 -2.31 -3.03 -2.16 -3.1 -1.99 -3.22 -1.85 -3.31 -1.7 -3.38 -1.53 -3.46 -1.36 -3.55 -1.2 -3.62 -1.03 -3.68 -0.85 -3.77 -0.67 -3.84 -0.49 -3.91 -0.3 -4.02 -0.1 0 -142.7 11.28 0.28 11.19 0.85 11.03 1.4 10.87 1.94 10.7 2.47 10.48 2.98 10.27 3.47 10.04 3.96 9.79 4.43 9.51 4.87 9.23 5.3 8.96 5.75 8.62 6.13 8.29 6.51 7.99 6.93 7.64 7.28 7.26 7.61 6.9 7.96 6.54 8.32 6.12 8.62 5.72 8.92 5.3 9.23 4.86 9.49 4.41 9.75 3.94 9.98 3.47 10.25 2.97 10.47 2.45 10.64 1.93 10.83 1.4 10.99 0.85 11.14 0.28 11.23 0 0zm-220.3 219.98l0 -142.7 0 0 4.02 -0.1 3.91 -0.3 3.84 -0.49 3.77 -0.67 3.7 -0.85 3.6 -1.02 3.52 -1.2 3.48 -1.37 3.38 -1.53 3.31 -1.7 3.22 -1.85 3.12 -2 3.02 -2.14 2.92 -2.3 2.82 -2.44 2.68 -2.56 2.57 -2.7 2.44 -2.82 2.29 -2.91 2.15 -3.03 2.02 -3.14 1.86 -3.24 1.71 -3.33 1.54 -3.41 1.39 -3.52 1.21 -3.56 1.03 -3.63 0.87 -3.74 0.68 -3.81 0.5 -3.89 0.3 -3.96 0.1 -4.07 143.33 0 -0.28 11.23 -0.85 11.14 -1.4 10.99 -1.93 10.83 -2.45 10.64 -2.97 10.47 -3.47 10.25 -3.94 9.98 -4.41 9.76 -4.86 9.49 -5.29 9.2 -5.72 8.92 -6.13 8.63 -6.54 8.32 -6.9 7.96 -7.27 7.63 -7.64 7.28 -7.97 6.9 -8.31 6.53 -8.63 6.14 -8.95 5.73 -9.23 5.3 -9.51 4.87 -9.79 4.43 -10.02 3.95 -10.29 3.48 -10.5 2.98 -10.68 2.47 -10.87 1.94 -11.03 1.4 -11.19 0.85 -11.28 0.28 0 0zm-220.29 -219.98l143.33 0 0 0 0.1 4.07 0.3 3.96 0.5 3.89 0.68 3.81 0.87 3.74 1.03 3.63 1.21 3.56 1.39 3.52 1.54 3.41 1.71 3.33 1.86 3.24 2.02 3.14 2.15 3.03 2.29 2.91 2.45 2.83 2.56 2.69 2.69 2.56 2.83 2.45 2.9 2.28 3.02 2.15 3.13 2 3.22 1.85 3.31 1.7 3.38 1.53 3.48 1.37 3.52 1.2 3.59 1.02 3.7 0.85 3.77 0.67 3.84 0.49 3.91 0.3 4.02 0.1 0 142.7 -11.28 -0.28 -11.19 -0.85 -11.03 -1.4 -10.87 -1.94 -10.68 -2.47 -10.51 -2.98 -10.28 -3.48 -10.02 -3.95 -9.79 -4.43 -9.51 -4.87 -9.23 -5.3 -8.93 -5.73 -8.64 -6.14 -8.33 -6.55 -7.96 -6.89 -7.64 -7.28 -7.28 -7.64 -6.89 -7.95 -6.54 -8.32 -6.13 -8.63 -5.72 -8.92 -5.29 -9.2 -4.86 -9.49 -4.41 -9.76 -3.94 -9.98 -3.47 -10.25 -2.97 -10.47 -2.45 -10.64 -1.93 -10.83 -1.4 -10.99 -0.85 -11.14 -0.28 -11.23 0 0zm220.29 -219.98l0 142.7 0 0 -4.02 0.1 -3.91 0.3 -3.84 0.49 -3.77 0.67 -3.68 0.85 -3.62 1.03 -3.54 1.2 -3.47 1.37 -3.38 1.53 -3.31 1.7 -3.22 1.85 -3.11 1.99 -3.04 2.16 -2.91 2.29 -2.8 2.43 -2.69 2.56 -2.57 2.7 -2.45 2.83 -2.29 2.91 -2.16 3.04 -2.01 3.14 -1.85 3.22 -1.71 3.34 -1.54 3.41 -1.39 3.52 -1.21 3.56 -1.03 3.63 -0.87 3.74 -0.68 3.81 -0.5 3.89 -0.3 3.96 -0.1 4.07 -143.33 0 0.28 -11.23 0.85 -11.14 1.4 -10.99 1.93 -10.83 2.45 -10.64 2.97 -10.47 3.47 -10.25 3.94 -9.98 4.41 -9.75 4.86 -9.49 5.3 -9.23 5.72 -8.92 6.12 -8.62 6.54 -8.32 6.89 -7.95 7.26 -7.63 7.64 -7.28 7.98 -6.92 8.31 -6.53 8.62 -6.13 8.95 -5.74 9.23 -5.3 9.51 -4.87 9.79 -4.43 10.03 -3.95 10.27 -3.48 10.49 -2.98 10.7 -2.47 10.87 -1.94 11.03 -1.4 11.19 -0.85 11.28 -0.28 0 0z"/>
  </g>
  <g>
   <path class="fil2" d="M3164.76 1950.43l-143.33 0 0 0 -0.1 -4.07 -0.3 -3.96 -0.5 -3.89 -0.68 -3.81 -0.86 -3.73 -1.04 -3.65 -1.21 -3.58 -1.38 -3.5 -1.54 -3.41 -1.71 -3.33 -1.86 -3.24 -2.01 -3.13 -2.17 -3.05 -2.3 -2.92 -2.42 -2.8 -2.57 -2.7 -2.71 -2.58 -2.81 -2.44 -2.9 -2.28 -3.03 -2.15 -3.12 -2.01 -3.2 -1.84 -3.31 -1.7 -3.38 -1.53 -3.48 -1.37 -3.52 -1.2 -3.59 -1.02 -3.7 -0.85 -3.77 -0.67 -3.84 -0.49 -3.91 -0.3 -4.02 -0.1 0 -142.7 11.28 0.28 11.19 0.85 11.03 1.4 10.87 1.94 10.68 2.47 10.51 2.98 10.28 3.48 10.02 3.95 9.78 4.42 9.51 4.87 9.24 5.32 8.93 5.72 8.63 6.13 8.33 6.55 7.97 6.9 7.62 7.26 7.27 7.62 6.92 7.99 6.52 8.31 6.13 8.61 5.72 8.93 5.29 9.2 4.86 9.49 4.41 9.76 3.94 10 3.46 10.23 2.97 10.45 2.46 10.66 1.93 10.83 1.4 10.99 0.85 11.14 0.28 11.23 0 0zm-220.3 219.98l0 -142.7 0 0 4.02 -0.1 3.91 -0.3 3.84 -0.49 3.77 -0.67 3.68 -0.85 3.62 -1.03 3.54 -1.2 3.47 -1.37 3.38 -1.53 3.31 -1.7 3.2 -1.84 3.11 -1.99 3.05 -2.17 2.91 -2.29 2.8 -2.43 2.7 -2.57 2.57 -2.7 2.43 -2.81 2.3 -2.92 2.17 -3.06 2 -3.12 1.85 -3.22 1.71 -3.34 1.54 -3.41 1.38 -3.5 1.21 -3.58 1.04 -3.65 0.86 -3.73 0.68 -3.81 0.5 -3.89 0.3 -3.96 0.1 -4.07 143.33 0 -0.28 11.23 -0.85 11.14 -1.4 10.99 -1.93 10.83 -2.46 10.66 -2.97 10.45 -3.46 10.23 -3.94 10 -4.41 9.75 -4.86 9.49 -5.3 9.23 -5.73 8.93 -6.12 8.6 -6.52 8.31 -6.91 7.98 -7.27 7.63 -7.63 7.27 -7.98 6.92 -8.31 6.53 -8.61 6.12 -8.95 5.74 -9.24 5.32 -9.51 4.87 -9.78 4.42 -10.03 3.95 -10.27 3.48 -10.49 2.98 -10.7 2.47 -10.87 1.94 -11.03 1.4 -11.19 0.85 -11.28 0.28 0 0zm-220.3 -219.98l143.33 0 0 0 0.1 4.07 0.3 3.96 0.5 3.89 0.68 3.81 0.86 3.73 1.04 3.65 1.21 3.58 1.38 3.5 1.54 3.41 1.71 3.34 1.85 3.22 2 3.12 2.17 3.06 2.3 2.92 2.43 2.81 2.57 2.7 2.7 2.57 2.8 2.43 2.91 2.29 3.05 2.17 3.11 1.99 3.2 1.84 3.31 1.7 3.38 1.53 3.47 1.37 3.54 1.2 3.62 1.03 3.68 0.85 3.77 0.67 3.84 0.49 3.91 0.3 4.02 0.1 0 142.7 -11.28 -0.28 -11.19 -0.85 -11.03 -1.4 -10.87 -1.94 -10.7 -2.47 -10.49 -2.98 -10.27 -3.48 -10.03 -3.95 -9.78 -4.42 -9.51 -4.87 -9.24 -5.32 -8.95 -5.74 -8.61 -6.12 -8.31 -6.53 -7.98 -6.92 -7.63 -7.27 -7.27 -7.63 -6.91 -7.98 -6.52 -8.31 -6.12 -8.6 -5.73 -8.93 -5.3 -9.23 -4.86 -9.49 -4.41 -9.75 -3.94 -10 -3.46 -10.23 -2.97 -10.45 -2.46 -10.66 -1.93 -10.83 -1.4 -10.99 -0.85 -11.14 -0.28 -11.23 0 0zm220.3 -219.98l0 142.7 0 0 -4.02 0.1 -3.91 0.3 -3.84 0.49 -3.77 0.67 -3.7 0.85 -3.59 1.02 -3.52 1.2 -3.48 1.37 -3.38 1.53 -3.31 1.7 -3.2 1.84 -3.12 2.01 -3.03 2.15 -2.9 2.28 -2.81 2.44 -2.71 2.58 -2.57 2.7 -2.42 2.8 -2.3 2.92 -2.17 3.05 -2.01 3.13 -1.86 3.24 -1.71 3.33 -1.54 3.41 -1.38 3.5 -1.21 3.58 -1.04 3.65 -0.86 3.73 -0.68 3.81 -0.5 3.89 -0.3 3.96 -0.1 4.07 -143.33 0 0.28 -11.23 0.85 -11.14 1.4 -10.99 1.93 -10.83 2.46 -10.66 2.97 -10.45 3.46 -10.23 3.94 -10 4.41 -9.76 4.86 -9.49 5.29 -9.2 5.72 -8.93 6.13 -8.61 6.52 -8.31 6.92 -7.99 7.27 -7.62 7.62 -7.26 7.97 -6.9 8.33 -6.55 8.63 -6.13 8.93 -5.72 9.24 -5.32 9.51 -4.87 9.78 -4.42 10.02 -3.95 10.28 -3.48 10.51 -2.98 10.68 -2.47 10.87 -1.94 11.03 -1.4 11.19 -0.85 11.28 -0.28 0 0z"/>
  </g>
  <g>
   <path class="fil2" d="M2635.93 1544.99l-143.33 0 0 0 -0.1 -4.07 -0.3 -3.96 -0.5 -3.89 -0.68 -3.81 -0.87 -3.74 -1.03 -3.63 -1.21 -3.56 -1.39 -3.52 -1.54 -3.41 -1.71 -3.34 -1.85 -3.22 -2.01 -3.14 -2.16 -3.04 -2.29 -2.91 -2.44 -2.82 -2.59 -2.71 -2.7 -2.57 -2.79 -2.42 -2.91 -2.29 -3.04 -2.16 -3.11 -1.99 -3.22 -1.85 -3.31 -1.7 -3.38 -1.53 -3.47 -1.37 -3.54 -1.2 -3.62 -1.03 -3.68 -0.85 -3.77 -0.67 -3.84 -0.49 -3.91 -0.3 -4.02 -0.1 0 -142.7 11.28 0.28 11.19 0.85 11.03 1.4 10.87 1.94 10.7 2.47 10.49 2.98 10.27 3.48 10.03 3.95 9.79 4.43 9.51 4.87 9.23 5.3 8.95 5.74 8.62 6.13 8.31 6.53 7.99 6.93 7.62 7.28 7.26 7.61 6.9 7.96 6.54 8.32 6.12 8.62 5.72 8.92 5.3 9.23 4.86 9.49 4.41 9.75 3.94 9.98 3.47 10.25 2.97 10.47 2.45 10.64 1.93 10.83 1.4 10.99 0.85 11.14 0.28 11.23 0 0zm-220.29 219.98l0 -142.7 0 0 4.02 -0.1 3.91 -0.3 3.84 -0.49 3.77 -0.67 3.7 -0.85 3.59 -1.02 3.52 -1.2 3.48 -1.37 3.38 -1.53 3.31 -1.7 3.22 -1.85 3.13 -2 3.02 -2.15 2.9 -2.28 2.81 -2.44 2.7 -2.57 2.57 -2.7 2.44 -2.82 2.29 -2.91 2.15 -3.03 2.02 -3.14 1.86 -3.24 1.71 -3.33 1.54 -3.41 1.39 -3.52 1.21 -3.56 1.03 -3.63 0.87 -3.74 0.68 -3.81 0.5 -3.89 0.3 -3.96 0.1 -4.07 143.33 0 -0.28 11.23 -0.85 11.14 -1.4 10.99 -1.93 10.83 -2.45 10.64 -2.97 10.47 -3.47 10.25 -3.94 9.98 -4.41 9.76 -4.86 9.49 -5.29 9.2 -5.72 8.92 -6.13 8.63 -6.54 8.32 -6.9 7.96 -7.27 7.63 -7.62 7.27 -7.97 6.9 -8.33 6.55 -8.64 6.14 -8.93 5.73 -9.23 5.3 -9.51 4.87 -9.79 4.43 -10.02 3.95 -10.28 3.48 -10.51 2.98 -10.68 2.47 -10.87 1.94 -11.03 1.4 -11.19 0.85 -11.28 0.28 0 0zm-220.3 -219.98l143.33 0 0 0 0.1 4.07 0.3 3.96 0.5 3.89 0.68 3.81 0.87 3.74 1.03 3.63 1.21 3.56 1.39 3.52 1.54 3.41 1.71 3.33 1.86 3.24 2.02 3.14 2.15 3.03 2.29 2.91 2.44 2.82 2.57 2.7 2.68 2.56 2.82 2.44 2.92 2.3 3.02 2.14 3.12 2 3.22 1.85 3.31 1.7 3.38 1.53 3.48 1.37 3.52 1.2 3.6 1.02 3.7 0.85 3.77 0.67 3.84 0.49 3.91 0.3 4.02 0.1 0 142.7 -11.28 -0.28 -11.19 -0.85 -11.03 -1.4 -10.87 -1.94 -10.68 -2.47 -10.5 -2.98 -10.29 -3.48 -10.02 -3.95 -9.79 -4.43 -9.51 -4.87 -9.23 -5.3 -8.95 -5.73 -8.63 -6.14 -8.31 -6.53 -7.97 -6.9 -7.64 -7.28 -7.27 -7.63 -6.9 -7.96 -6.54 -8.32 -6.13 -8.63 -5.72 -8.92 -5.29 -9.2 -4.86 -9.49 -4.41 -9.76 -3.94 -9.98 -3.47 -10.25 -2.97 -10.47 -2.45 -10.64 -1.93 -10.83 -1.4 -10.99 -0.85 -11.14 -0.28 -11.23 0 0zm220.3 -219.98l0 142.7 0 0 -4.02 0.1 -3.91 0.3 -3.84 0.49 -3.77 0.67 -3.68 0.85 -3.62 1.03 -3.55 1.2 -3.46 1.36 -3.38 1.53 -3.31 1.7 -3.22 1.85 -3.1 1.99 -3.03 2.16 -2.94 2.31 -2.8 2.42 -2.68 2.56 -2.59 2.71 -2.44 2.82 -2.29 2.91 -2.16 3.04 -2.01 3.14 -1.85 3.22 -1.71 3.34 -1.54 3.41 -1.39 3.52 -1.21 3.56 -1.03 3.63 -0.87 3.74 -0.68 3.81 -0.5 3.89 -0.3 3.96 -0.1 4.07 -143.33 0 0.28 -11.23 0.85 -11.14 1.4 -10.99 1.93 -10.83 2.45 -10.64 2.97 -10.47 3.47 -10.25 3.94 -9.98 4.41 -9.75 4.86 -9.49 5.3 -9.23 5.72 -8.92 6.12 -8.62 6.54 -8.32 6.9 -7.96 7.26 -7.61 7.64 -7.28 7.99 -6.93 8.29 -6.51 8.62 -6.13 8.96 -5.75 9.23 -5.3 9.51 -4.87 9.79 -4.43 10.04 -3.96 10.27 -3.47 10.48 -2.98 10.7 -2.47 10.87 -1.94 11.03 -1.4 11.19 -0.85 11.28 -0.28 0 0z"/>
  </g>
  <g>
   <path class="fil2" d="M2923.09 883.25l-142.63 0 0 0 -0.11 -3.79 -0.29 -3.68 -0.5 -3.62 -0.67 -3.55 -0.86 -3.5 -1.04 -3.45 -1.23 -3.4 -1.4 -3.35 -1.58 -3.28 -1.76 -3.23 -1.95 -3.17 -2.13 -3.12 -2.29 -3.03 -2.47 -2.95 -2.63 -2.86 -2.82 -2.77 -2.98 -2.67 -3.12 -2.54 -3.26 -2.41 -3.42 -2.28 -3.56 -2.15 -3.7 -2 -3.82 -1.84 -3.94 -1.67 -4.08 -1.51 -4.16 -1.32 -4.26 -1.14 -4.39 -0.96 -4.48 -0.75 -4.58 -0.55 -4.66 -0.33 -4.78 -0.11 0 -143.32 11.51 0.27 11.41 0.82 11.26 1.35 11.11 1.86 10.93 2.37 10.75 2.86 10.55 3.36 10.29 3.81 10.09 4.28 9.82 4.73 9.55 5.15 9.28 5.58 8.99 6 8.7 6.42 8.36 6.81 8 7.17 7.67 7.55 7.32 7.93 6.93 8.28 6.53 8.62 6.1 8.94 5.68 9.27 5.23 9.59 4.76 9.88 4.26 10.15 3.75 10.42 3.22 10.65 2.68 10.89 2.11 11.09 1.52 11.26 0.92 11.42 0.31 11.51 0 0zm-229.56 220.29l0 -143.32 0 0 4.78 -0.11 4.66 -0.33 4.58 -0.55 4.48 -0.75 4.39 -0.96 4.26 -1.14 4.16 -1.32 4.08 -1.51 3.94 -1.67 3.82 -1.84 3.7 -2 3.56 -2.15 3.42 -2.28 3.26 -2.41 3.12 -2.54 2.98 -2.67 2.83 -2.78 2.63 -2.85 2.45 -2.93 2.29 -3.03 2.14 -3.13 1.95 -3.17 1.76 -3.23 1.58 -3.28 1.41 -3.36 1.22 -3.39 1.04 -3.45 0.86 -3.5 0.67 -3.55 0.5 -3.62 0.29 -3.68 0.11 -3.79 142.63 0 -0.31 11.51 -0.92 11.42 -1.52 11.26 -2.11 11.09 -2.68 10.89 -3.22 10.66 -3.76 10.42 -4.26 10.14 -4.76 9.88 -5.23 9.59 -5.68 9.27 -6.09 8.93 -6.53 8.63 -6.94 8.3 -7.32 7.93 -7.66 7.53 -8 7.17 -8.36 6.81 -8.7 6.42 -8.99 6 -9.28 5.58 -9.55 5.15 -9.82 4.73 -10.09 4.28 -10.29 3.81 -10.55 3.36 -10.75 2.86 -10.93 2.37 -11.11 1.86 -11.26 1.35 -11.41 0.82 -11.51 0.27 0 0zm-229.56 -220.29l142.63 0 0 0 0.11 3.79 0.29 3.68 0.5 3.62 0.67 3.55 0.86 3.5 1.04 3.45 1.22 3.39 1.41 3.36 1.58 3.28 1.76 3.23 1.95 3.17 2.14 3.13 2.29 3.03 2.45 2.93 2.64 2.87 2.81 2.77 2.98 2.66 3.13 2.55 3.26 2.41 3.42 2.28 3.56 2.15 3.7 2 3.82 1.84 3.94 1.67 4.08 1.51 4.16 1.32 4.26 1.14 4.39 0.96 4.48 0.75 4.58 0.55 4.66 0.33 4.78 0.11 0 143.32 -11.51 -0.27 -11.41 -0.82 -11.26 -1.35 -11.11 -1.86 -10.93 -2.37 -10.75 -2.86 -10.55 -3.36 -10.29 -3.81 -10.09 -4.28 -9.82 -4.73 -9.55 -5.15 -9.28 -5.58 -8.99 -6 -8.7 -6.42 -8.35 -6.8 -8.02 -7.18 -7.66 -7.55 -7.31 -7.92 -6.94 -8.3 -6.53 -8.63 -6.09 -8.93 -5.68 -9.27 -5.23 -9.59 -4.76 -9.88 -4.26 -10.14 -3.76 -10.42 -3.22 -10.66 -2.68 -10.89 -2.11 -11.09 -1.52 -11.26 -0.92 -11.42 -0.31 -11.51 0 0zm229.56 -220.29l0 143.32 0 0 -4.78 0.11 -4.66 0.33 -4.58 0.55 -4.48 0.75 -4.39 0.96 -4.26 1.14 -4.16 1.32 -4.08 1.51 -3.94 1.67 -3.82 1.84 -3.7 2 -3.56 2.15 -3.42 2.28 -3.26 2.41 -3.13 2.55 -2.98 2.66 -2.81 2.76 -2.64 2.87 -2.47 2.95 -2.29 3.03 -2.13 3.12 -1.95 3.17 -1.76 3.23 -1.58 3.28 -1.4 3.35 -1.23 3.4 -1.04 3.45 -0.86 3.5 -0.67 3.55 -0.5 3.62 -0.29 3.68 -0.11 3.79 -142.63 0 0.31 -11.51 0.92 -11.42 1.52 -11.26 2.11 -11.09 2.68 -10.89 3.22 -10.65 3.75 -10.42 4.26 -10.15 4.76 -9.88 5.23 -9.59 5.68 -9.27 6.1 -8.94 6.53 -8.62 6.93 -8.28 7.31 -7.92 7.67 -7.56 8.02 -7.18 8.35 -6.8 8.7 -6.42 8.99 -6 9.28 -5.58 9.55 -5.15 9.82 -4.73 10.09 -4.28 10.29 -3.81 10.55 -3.36 10.75 -2.86 10.93 -2.37 11.11 -1.86 11.26 -1.35 11.41 -0.82 11.51 -0.27 0 0z"/>
  </g>
  <g>
   <path class="fil0" d="M2218.12 2818.07l-809.76 0 0 -143.32 809.76 0 71.66 71.66 -71.66 71.66zm0 -143.32l71.66 0 0 71.66 -71.66 -71.66zm-71.66 619.86l0 -548.2 143.32 0 0 548.2 -71.66 71.66 -71.66 -71.66zm143.32 0l0 71.66 -71.66 0 71.66 -71.66zm-881.42 -71.66l809.76 0 0 143.32 -809.76 0 -71.66 -71.66 71.66 -71.66zm0 143.32l-71.66 0 0 -71.66 71.66 71.66zm71.66 -619.86l0 548.2 -143.32 0 0 -548.2 71.66 -71.66 71.66 71.66zm-143.32 0l0 -71.66 71.66 0 -71.66 71.66z"/>
  </g>
  <g>
   <path class="fil2" d="M2038.96 3085.01l-451.46 0 0 -143.32 451.46 0 71.66 71.66 -71.66 71.66zm0 -143.32l71.66 0 0 71.66 -71.66 -71.66zm-71.66 85.99l0 -14.33 143.32 0 0 14.33 -71.66 71.66 -71.66 -71.66zm143.32 0l0 71.66 -71.66 0 71.66 -71.66zm-523.12 -71.66l451.46 0 0 143.32 -451.46 0 -71.66 -71.66 71.66 -71.66zm0 143.32l-71.66 0 0 -71.66 71.66 71.66zm71.66 -85.99l0 14.33 -143.32 0 0 -14.33 71.66 -71.66 71.66 71.66zm-143.32 0l0 -71.66 71.66 0 -71.66 71.66z"/>
  </g>
 </g>
</svg>
