<svg xmlns="http://www.w3.org/2000/svg" xmlns:xlink="http://www.w3.org/1999/xlink" viewBox="0 0 182.84 148.94"><defs><style>.a{fill:#fff;}.a,.b,.c,.d,.e,.f,.g,.h,.j,.l,.m,.o{fill-rule:evenodd;}.b{fill:#00C2FF;}.c{fill:#ffe79f;}.d{fill:#FFCABC;}.e{fill:#fffaea;}.f{fill:#ffcabc;}.g{fill:#3B9CFF;}.h{fill:#ffeef1;}.i{mask:url(#a);}.j{fill:#6b6b6f;}.k{mask:url(#b);}.l{fill:#3B9CFF;}.m{fill:#f5f5f5;}.n{mask:url(#c);}.o{fill:#b3b3b8;}.p{mask:url(#d);}.q{mask:url(#e);}.r{mask:url(#f);}</style><mask id="a" x="0.05" y="64.31" width="176.01" height="84.62" maskUnits="userSpaceOnUse"><g transform="translate(0.05 -0.05)"><path class="a" d="M0,64.36H176V149H0Z"/></g></mask><mask id="b" x="0" y="86.13" width="84.82" height="2.1" maskUnits="userSpaceOnUse"><g transform="translate(0.05 -0.05)"><path class="a" d="M0,86.18H84.73v2.09H0Z"/></g></mask><mask id="c" x="3.39" y="0" width="32.19" height="32.1" maskUnits="userSpaceOnUse"><g transform="translate(0.05 -0.05)"><path class="a" d="M3.35.05H35.53v32.1H3.35Z"/></g></mask><mask id="d" x="49.14" y="0" width="32.19" height="32.1" maskUnits="userSpaceOnUse"><g transform="translate(0.05 -0.05)"><path class="a" d="M49.09.05H81.28v32.1H49.09Z"/></g></mask><mask id="e" x="94.78" y="0" width="32.19" height="32.1" maskUnits="userSpaceOnUse"><g transform="translate(0.05 -0.05)"><path class="a" d="M94.73.05h32.19v32.1H94.73Z"/></g></mask><mask id="f" x="140.12" y="0" width="32.19" height="32.1" maskUnits="userSpaceOnUse"><g transform="translate(0.05 -0.05)"><path class="a" d="M140.08.05h32.19v32.1H140.08Z"/></g></mask></defs><title>illustration-house-connected-with-series-of-dollar-coins-and-a-calendar</title><path class="b" d="M156.17,35.45a1,1,0,0,0-1,1V47.75c0,.6-.34,1-.65,1H110.93V36.49a1.05,1.05,0,0,0-2.1,0h0V48.8H66.24V36.5a1.06,1.06,0,0,0-1.06-1,1,1,0,0,0-1.05,1h0V48.8H20.86c-.31,0-.65-.45-.65-1V36.5a1,1,0,0,0-1.05-1h0a1,1,0,0,0-1.05,1h0V47.75a3,3,0,0,0,2.75,3.15h88V68.49a1.06,1.06,0,0,0,2.11,0h0V50.9h43.54a3,3,0,0,0,2.75-3.15V36.49a1,1,0,0,0-1.05-1.05" transform="translate(0.05 -0.05)"/><path class="c" d="M19.51,105.65H11.43a2.1,2.1,0,0,1-2.1-2.1V95.49a2.1,2.1,0,0,1,2.1-2.1h8.08a2.1,2.1,0,0,1,2.11,2.1v8.06a2.11,2.11,0,0,1-2.11,2.1h0m17.54,0H29a2.1,2.1,0,0,1-2.1-2.1V95.49a2.1,2.1,0,0,1,2.1-2.1h8.08a2.1,2.1,0,0,1,2.1,2.1v8.06a2.1,2.1,0,0,1-2.1,2.1m17.54,0H46.51a2.1,2.1,0,0,1-2.1-2.1h0V95.49a2.1,2.1,0,0,1,2.1-2.1h8.08a2.1,2.1,0,0,1,2.1,2.1v8.06a2.1,2.1,0,0,1-2.1,2.1h0m17.54,0H64.05a2.11,2.11,0,0,1-2.11-2.1V95.49a2.1,2.1,0,0,1,2.11-2.1h8.08a2.1,2.1,0,0,1,2.1,2.1h0v8.06a2.1,2.1,0,0,1-2.1,2.1h0" transform="translate(0.05 -0.05)"/><path class="d" d="M19.51,123.59H11.43a2.1,2.1,0,0,1-2.1-2.1h0v-8.06a2.1,2.1,0,0,1,2.1-2.1h8.08a2.1,2.1,0,0,1,2.11,2.1v8.06a2.11,2.11,0,0,1-2.11,2.1h0m17.54,0H29a2.1,2.1,0,0,1-2.1-2.1v-8.06a2.1,2.1,0,0,1,2.1-2.1h8.08a2.1,2.1,0,0,1,2.1,2.1v8.06a2.1,2.1,0,0,1-2.1,2.1m17.54,0H46.51a2.1,2.1,0,0,1-2.1-2.1h0v-8.06a2.1,2.1,0,0,1,2.1-2.1h8.08a2.1,2.1,0,0,1,2.1,2.1v8.06a2.1,2.1,0,0,1-2.1,2.1h0m17.54,0H64.05a2.11,2.11,0,0,1-2.11-2.1h0v-8.06a2.1,2.1,0,0,1,2.11-2.1h8.08a2.1,2.1,0,0,1,2.1,2.1h0v8.06a2.1,2.1,0,0,1-2.1,2.1h0" transform="translate(0.05 -0.05)"/><path class="e" d="M19.51,141.53H11.43a2.1,2.1,0,0,1-2.1-2.1h0v-8.06a2.1,2.1,0,0,1,2.1-2.1h8.08a2.1,2.1,0,0,1,2.11,2.1v8.06a2.1,2.1,0,0,1-2.1,2.1h0m17.54,0H29a2.1,2.1,0,0,1-2.1-2.1v-8.06a2.1,2.1,0,0,1,2.1-2.1h8.08a2.1,2.1,0,0,1,2.1,2.1v8.06a2.1,2.1,0,0,1-2.1,2.1h0m17.54,0H46.51a2.1,2.1,0,0,1-2.1-2.1h0v-8.06a2.1,2.1,0,0,1,2.1-2.1h8.08a2.1,2.1,0,0,1,2.1,2.1v8.06a2.1,2.1,0,0,1-2.1,2.1h0m17.54,0H64.05a2.11,2.11,0,0,1-2.11-2.1h0v-8.06a2.1,2.1,0,0,1,2.11-2.1h8.08a2.1,2.1,0,0,1,2.1,2.09h0v8.06a2.1,2.1,0,0,1-2.1,2.1h0" transform="translate(0.05 -0.05)"/><path class="f" d="M181.47,111.14h-43.9L116.45,83.69h42l24,25.21a1.33,1.33,0,0,1-1,2.24" transform="translate(0.05 -0.05)"/><path class="g" d="M115.51,79.6l-5.36-5.36a1.26,1.26,0,0,0-1.78,0L103,79.6,75.33,109a1.26,1.26,0,0,0,.92,2.12h9a1.27,1.27,0,0,0,.93-.41l22.12-23.89a1.25,1.25,0,0,1,1.78-.06l.07.06,22.12,23.89a1.25,1.25,0,0,0,.92.41h9.05a1.26,1.26,0,0,0,.92-2.12L115.52,79.6Z" transform="translate(0.05 -0.05)"/><path class="h" d="M122.65,138.44H101.79V120.27a9.73,9.73,0,0,1,9.74-9.72h1.38a9.73,9.73,0,0,1,9.74,9.72Zm26.43,9.49V124.35a1.48,1.48,0,0,1,1.58-1.33h15a1.48,1.48,0,0,1,1.58,1.33v23.58" transform="translate(0.05 -0.05)"/><path class="f" d="M163.83,149a1,1,0,0,1-1.05-1h0V121.84a.48.48,0,0,0-.52-.42H147.38a.48.48,0,0,0-.52.42v26.09a1,1,0,0,1-1.05,1,1,1,0,0,1-1.05-1h0V121.84a2.57,2.57,0,0,1,2.62-2.52h14.88a2.57,2.57,0,0,1,2.62,2.52v26.09a1,1,0,0,1-1,1M99.15,137.39V120.27a8.69,8.69,0,0,1,8.69-8.67h1.38a8.69,8.69,0,0,1,8.69,8.67v17.12Zm26.59,0H120V120.27a10.79,10.79,0,0,0-10.79-10.77h-1.38a10.79,10.79,0,0,0-10.79,10.77v17.12H94.27a1,1,0,0,0-1.09,1,1.05,1.05,0,0,0,1,1.1h31.56a1.05,1.05,0,0,0,1.09-1,1,1,0,0,0-1-1.09Z" transform="translate(0.05 -0.05)"/><path class="f" d="M160.54,133.78a2,2,0,0,1-2,2h0a2,2,0,1,1,2-2" transform="translate(0.05 -0.05)"/><g class="i"><path class="j" d="M175,112.45a1,1,0,0,0-1,1h0v33.18a.25.25,0,0,1-.28.21H136.48V113.5a1,1,0,0,0-1-1,1.06,1.06,0,0,0-1.06,1h0v33.39H84.8a.42.42,0,0,1-.42-.43v-33a1,1,0,1,0-2.1,0h0v33a2,2,0,0,0,0,.43H3.22a1.12,1.12,0,0,1-1.12-1.12V67.57a1.13,1.13,0,0,1,1.12-1.11H81.5a1.12,1.12,0,0,1,1.12,1.11V96a1.06,1.06,0,0,0,2.11,0h0V67.58a3.23,3.23,0,0,0-3.23-3.22H3.22A3.22,3.22,0,0,0,0,67.57v78.2A3.21,3.21,0,0,0,3.22,149h170.4a2.35,2.35,0,0,0,2.39-2.3V113.5a1.05,1.05,0,0,0-1.06-1" transform="translate(0.05 -0.05)"/></g><g class="k"><path class="j" d="M83.68,88.27H1.05A1,1,0,1,1,1,86.18a.14.14,0,0,1,.09,0H83.68a1,1,0,0,1,1.09,1,1,1,0,0,1-1,1.09.14.14,0,0,1-.09,0" transform="translate(0.05 -0.05)"/></g><path class="l" d="M23.7,79h-.78a4.72,4.72,0,0,1-4.73-4.72h0V62.73A4.72,4.72,0,0,1,22.92,58h.78a4.71,4.71,0,0,1,4.73,4.72h0V74.25A4.72,4.72,0,0,1,23.7,79m38.11,0H61a4.72,4.72,0,0,1-4.73-4.72h0V62.73A4.73,4.73,0,0,1,61,58h.78a4.71,4.71,0,0,1,4.73,4.72h0V74.25A4.72,4.72,0,0,1,61.81,79" transform="translate(0.05 -0.05)"/><path class="m" d="M37.64,19.25a15,15,0,1,1-15-15,15,15,0,0,1,15,15" transform="translate(0.05 -0.05)"/><g class="n"><path class="j" d="M19.44,2.15a14,14,0,1,0,14,14,14,14,0,0,0-14-13.95m0,30a16.05,16.05,0,1,1,16.09-16,16.09,16.09,0,0,1-16.09,16" transform="translate(0.05 -0.05)"/></g><path class="o" d="M18.51,22.44a4.39,4.39,0,0,1-3.9-3.68h2.65a2.33,2.33,0,0,0,2.45,1.58c1.22,0,2-.55,2-1.52,0-.79-.45-1.19-1.56-1.45L18,16.86c-1.74-.41-3.13-1.37-3.13-3.49a3.77,3.77,0,0,1,3.6-3.74V7.69h2.27v2a4.2,4.2,0,0,1,3.36,3.44H21.59a2.18,2.18,0,0,0-2.27-1.43c-1.13,0-1.86.57-1.86,1.45s.47,1.13,1.37,1.37l2.23.53c2,.5,3.21,1.67,3.21,3.6a3.77,3.77,0,0,1-3.49,3.76v2.07H18.51Z" transform="translate(0.05 -0.05)"/><path class="m" d="M83.38,19.25a15,15,0,1,1-15-15,15,15,0,0,1,15,15" transform="translate(0.05 -0.05)"/><g class="p"><path class="j" d="M65.19,2.15a14,14,0,1,0,14,14,14,14,0,0,0-14-13.95m0,30a16.05,16.05,0,1,1,16.09-16,16.09,16.09,0,0,1-16.09,16" transform="translate(0.05 -0.05)"/></g><path class="o" d="M64.25,22.44a4.4,4.4,0,0,1-3.9-3.68H63a2.31,2.31,0,0,0,2.44,1.58c1.22,0,2-.55,2-1.52,0-.79-.45-1.19-1.56-1.45l-2.1-.51c-1.74-.41-3.13-1.37-3.13-3.49a3.77,3.77,0,0,1,3.6-3.74V7.69h2.27v2a4.22,4.22,0,0,1,3.37,3.44H67.34a2.19,2.19,0,0,0-2.27-1.43c-1.14,0-1.87.57-1.87,1.45s.47,1.13,1.37,1.37l2.23.53c2,.5,3.22,1.67,3.22,3.6a3.78,3.78,0,0,1-3.5,3.76v2.07H64.25V22.44Z" transform="translate(0.05 -0.05)"/><path class="m" d="M129,19.25a15,15,0,1,1-15-15,15,15,0,0,1,15,15" transform="translate(0.05 -0.05)"/><g class="q"><path class="j" d="M110.82,2.15a14,14,0,1,0,14,14,14,14,0,0,0-14-13.95m0,30a16.05,16.05,0,1,1,16.1-16,16.09,16.09,0,0,1-16.1,16" transform="translate(0.05 -0.05)"/></g><path class="o" d="M109.89,22.44a4.4,4.4,0,0,1-3.9-3.68h2.66a2.31,2.31,0,0,0,2.44,1.58c1.22,0,2-.55,2-1.52,0-.79-.45-1.19-1.57-1.45l-2.1-.51c-1.74-.41-3.13-1.37-3.13-3.49a3.77,3.77,0,0,1,3.6-3.74V7.69h2.27v2a4.22,4.22,0,0,1,3.37,3.44H113a2.19,2.19,0,0,0-2.27-1.43c-1.14,0-1.87.57-1.87,1.45s.47,1.13,1.37,1.37l2.23.53c2,.5,3.22,1.67,3.22,3.6a3.78,3.78,0,0,1-3.5,3.76v2.07h-2.27Z" transform="translate(0.05 -0.05)"/><path class="m" d="M174.37,19.25a15,15,0,1,1-15-15,15,15,0,0,1,15,15" transform="translate(0.05 -0.05)"/><g class="r"><path class="j" d="M156.17,2.15a14,14,0,1,0,14,14,14,14,0,0,0-14-13.95m0,30a16.05,16.05,0,1,1,16.09-16,16.09,16.09,0,0,1-16.09,16" transform="translate(0.05 -0.05)"/></g><path class="o" d="M155.24,22.44a4.39,4.39,0,0,1-3.9-3.68H154a2.33,2.33,0,0,0,2.45,1.58c1.22,0,2-.55,2-1.52,0-.79-.45-1.19-1.56-1.45l-2.1-.51c-1.74-.41-3.13-1.37-3.13-3.49a3.77,3.77,0,0,1,3.6-3.74V7.69h2.27v2a4.22,4.22,0,0,1,3.37,3.44h-2.55a2.2,2.2,0,0,0-2.28-1.43c-1.13,0-1.86.57-1.86,1.45s.47,1.13,1.37,1.37l2.23.53c2,.5,3.21,1.67,3.21,3.6a3.77,3.77,0,0,1-3.49,3.76v2.07h-2.27V22.44Z" transform="translate(0.05 -0.05)"/></svg>
