<?xml version="1.0" encoding="UTF-8"?>
<!DOCTYPE svg PUBLIC "-//W3C//DTD SVG 1.1//EN" "http://www.w3.org/Graphics/SVG/1.1/DTD/svg11.dtd">
<!-- Creator: CorelDRAW 2018 (64-Bit Evaluation Version) -->
<svg xmlns="http://www.w3.org/2000/svg" xml:space="preserve" width="82.3384mm" height="64.3372mm" version="1.1" style="shape-rendering:geometricPrecision; text-rendering:geometricPrecision; image-rendering:optimizeQuality; fill-rule:evenodd; clip-rule:evenodd"
viewBox="0 0 6012.14 4697.74"
 xmlns:xlink="http://www.w3.org/1999/xlink">
 <defs>
  <style type="text/css">
   <![CDATA[
    .str1 {stroke:#FBD13D;stroke-width:154.56;stroke-miterlimit:22.9256}
    .str0 {stroke:#1D9CD3;stroke-width:216.37;stroke-miterlimit:22.9256}
    .str2 {stroke:#5AEEBC;stroke-width:216.37;stroke-miterlimit:22.9256}
    .fil0 {fill:none}
    .fil1 {fill:#1D9CD3;fill-rule:nonzero}
    .fil2 {fill:#006648;fill-rule:nonzero}
   ]]>
  </style>
 </defs>
 <g id="Layer_x0020_1">
  <metadata id="CorelCorpID_0Corel-Layer"/>
  <rect class="fil0 str0" x="108.19" y="108.19" width="5795.76" height="4481.36"/>
  <rect class="fil0 str0" x="108.19" y="108.19" width="5795.76" height="807.27"/>
  <rect class="fil0 str1" x="377.27" y="397.97" width="223.81" height="227.69"/>
  <rect class="fil0 str1" x="778.29" y="397.97" width="223.81" height="227.69"/>
  <rect class="fil0 str1" x="1179.3" y="397.97" width="223.81" height="227.69"/>
  <g>
   <path class="fil1" d="M4006.68 2261.28l105.36 99.45 -0.64 0.66 -0.87 0.88 2.13 -2.23 -2.21 2.31 -2.31 2.21 0.14 -0.12 -0.05 0.04 2.04 -1.96 -2.31 2.22 -0.04 0.04 0.14 -0.12 -2.39 2.12 -0.04 0.04 2.29 -2.03 -0.23 0.21 -2.2 1.94 2.29 -2.03 -2.38 2.12 -0.05 0.04 -0.04 0.04 -2.09 1.69 4.32 -3.69 -2.38 2.12 -0.05 0.04 -0.04 0.04 -0.05 0.04 -0.04 0.04 -0.05 0.04 -0.04 0.04 -0.05 0.04 -0.04 0.04 -0.05 0.04 0.64 -0.54 -94.95 -109.44 0.72 -0.63 0.05 -0.04 0.04 -0.04 0.05 -0.04 0.04 -0.04 0.05 -0.04 0.04 -0.04 0.05 -0.04 0.04 -0.04 0.05 -0.04 -2.29 2.03 4.42 -3.78 -1.99 1.62 0.04 -0.04 0.05 -0.04 -2.29 2.03 2.39 -2.12 -2.11 1.87 -0.14 0.12 2.39 -2.12 0.04 -0.04 -2.29 2.03 0.23 -0.21 0.04 -0.04 -2.23 2.13 2.13 -2.05 0.05 -0.04 0.23 -0.21 -2.23 2.14 -2.14 2.23 2.22 -2.31 -0.78 0.79 -0.64 0.66zm246.11 -49.66l-140.75 149.11 -105.36 -99.45 140.75 -149.11 117.57 17.51 -12.2 81.94zm12.2 -81.94l22.45 45.23 -34.65 36.71 12.2 -81.94zm-128.73 -259.31l128.73 259.31 -129.77 64.43 -128.73 -259.31 55.81 -104.09 73.95 39.66zm-73.95 -39.66l51.07 -6.45 22.88 46.1 -73.95 -39.66zm-415.1 52.39l415.1 -52.39 18.14 143.74 -415.1 52.39 -57.35 -17.86 39.21 -125.88zm18.14 143.74l-32.74 4.13 -24.61 -21.99 57.35 17.86zm-231.18 -367.57l270.39 241.69 -96.56 108.02 -270.39 -241.69 -24.09 -57.24 120.65 -50.78zm-96.56 108.02l-25.62 -22.9 1.53 -34.34 24.09 57.24zm34.47 -432.47l48.92 -136.38 47.94 65.93 0.47 16.36 0.39 16.03 0.31 15.75 0.23 15.43 0.17 15.16 0.09 14.92 0.02 14.66 -0.04 14.46 -0.1 14.25 -0.16 14.07 -0.21 13.92 -0.27 13.77 -0.32 13.64 -0.37 13.53 -0.41 13.42 -0.45 13.35 -0.48 13.31 -0.52 13.27 -0.55 13.23 -0.56 13.27 -0.61 13.28 -0.62 13.3 -0.64 13.38 -0.66 13.46 -0.66 13.54 -0.67 13.68 -0.69 13.81 -0.69 13.95 -0.68 14.15 -0.69 14.37 -0.68 14.56 -0.67 14.82 -144.74 -6.45 0.67 -15.01 0.69 -14.75 0.69 -14.47 0.69 -14.25 0.69 -14.06 0.69 -13.83 0.67 -13.64 0.66 -13.5 0.64 -13.35 0.64 -13.23 0.61 -13.13 0.59 -13.03 0.56 -12.97 0.53 -12.95 0.5 -12.91 0.47 -12.9 0.43 -12.93 0.39 -12.97 0.35 -13.02 0.31 -13.1 0.26 -13.2 0.21 -13.31 0.15 -13.47 0.1 -13.64 0.04 -13.81 -0.02 -14.03 -0.09 -14.25 -0.15 -14.52 -0.23 -14.77 -0.3 -15.05 -0.38 -15.38 -0.45 -15.71 47.94 65.93zm48.92 -136.38l46.41 16.65 1.53 49.29 -47.94 -65.93zm-253.1 -90.78l253.1 90.78 -48.92 136.38 -253.1 -90.78 -34.03 -110.93 82.96 -25.45zm-82.96 25.45l31.97 -43.74 50.99 18.29 -82.96 25.45zm-257.93 352.98l257.93 -352.98 116.99 85.47 -257.93 352.98 -55.16 29.63 -61.82 -115.1zm116.99 85.47l-20.48 28.03 -34.68 1.6 55.16 -29.63zm-434.69 -97.93l372.86 -17.17 6.66 144.74 -372.86 17.17 -58.03 -24.88 51.38 -119.85zm6.66 144.74l-35.03 1.61 -23 -26.5 58.03 24.88zm-231.24 -445.44l282.61 325.59 -109.41 94.97 -282.61 -325.59 23.73 -112.97 85.68 18.01zm-85.68 -18.01l49.66 -23.49 36.02 41.5 -85.68 -18.01zm-252.81 119.57l252.81 -119.57 61.95 130.98 -252.81 119.57 -102.87 -56.63 40.93 -74.35zm-40.93 74.35l-6.4 -51.96 47.32 -22.39 -40.93 74.35zm52.84 429.1l-52.84 -429.1 143.8 -17.71 52.84 429.1 -23.58 62.83 -120.22 -45.12zm143.8 -17.71l4.63 37.57 -28.21 25.26 23.58 -62.83zm-414.59 218.4l294.37 -263.51 96.63 107.95 -294.37 263.51 -48.57 18.47 -48.06 -126.42zm96.63 107.95l-20.74 18.56 -27.83 -0.09 48.57 -18.47zm-434.22 -127.77l386.16 1.36 -0.51 144.88 -386.16 -1.36 -67.86 -97.08 68.37 -47.8zm-68.37 47.8l17.36 -47.98 51.02 0.18 -68.37 47.8zm-92.83 256.6l92.83 -256.6 136.24 49.29 -92.83 256.6 -112.27 32.78 -23.96 -82.07zm23.96 82.07l-41.98 -32.27 18.01 -49.8 23.96 82.07zm339.18 260.77l-339.18 -260.77 88.31 -114.86 339.18 260.77 28.16 53.14 -116.47 61.71zm88.31 -114.86l26.21 20.15 1.96 32.99 -28.16 -53.14zm-95.11 422.34l-21.36 -360.63 144.63 -8.57 21.36 360.63 -21.42 55.84 -123.22 -47.26zm144.63 -8.57l1.94 32.78 -23.36 23.06 21.42 -55.84zm-435.38 260.96l312.16 -308.23 101.8 103.1 -312.16 308.23 -115.36 -18.5 13.56 -84.61zm-13.56 84.61l-24.24 -47.28 37.8 -37.33 -13.56 84.61zm123.28 240.45l-123.28 -240.45 128.92 -66.11 123.28 240.45 -55.31 104.92 -73.61 -38.81zm73.61 38.81l-50.42 6.42 -23.19 -45.23 73.61 38.81zm417.16 -53.1l-417.16 53.1 -18.3 -143.73 417.16 -53.1 58.55 18.88 -40.25 124.85zm-18.3 -143.73l33.7 -4.29 24.85 23.17 -58.55 -18.88zm229.27 376.14l-269.53 -251.29 98.81 -105.98 269.53 251.29 22.99 55.67 -121.79 50.31zm98.81 -105.98l24.21 22.57 -1.23 33.1 -22.99 -55.67zm-137.7 480.32l15.91 -430.01 144.78 5.36 -15.91 430.01 -99.72 64.41 -45.06 -69.77zm45.06 69.77l-46.94 -19.12 1.88 -50.64 45.06 69.77zm259.42 105.69l-259.42 -105.69 54.66 -134.18 259.42 105.69 31.25 109.7 -85.91 24.48zm85.91 -24.48l-33.37 45.88 -52.54 -21.4 85.91 -24.48zm259.39 -356.61l-259.39 356.61 -117.16 -85.23 259.39 -356.61 56.65 -29.81 60.51 115.03zm-117.16 -85.23l20.99 -28.86 35.66 -0.95 -56.65 29.81zm442.92 104.84l-382.41 10.19 -3.86 -144.84 382.41 -10.19 55.96 24.16 -52.11 120.68zm-3.86 -144.84l33.58 -0.9 22.38 25.06 -55.96 -24.16zm222.92 428.63l-275.03 -307.96 108.07 -96.51 275.03 307.96 -26.44 115.24 -81.63 -18.73zm81.63 18.73l-47.45 19.54 -34.18 -38.27 81.63 18.73zm253.18 -104.28l-253.18 104.28 -55.19 -133.97 253.18 -104.28 99.54 58.56 -44.36 75.41zm44.36 -75.41l6.38 54.51 -50.74 20.9 44.36 -75.41zm-52.13 -445.06l52.13 445.06 -143.9 16.85 -52.13 -445.06 18.36 -57.17 125.54 40.32zm-143.9 16.85l-3.84 -32.76 22.2 -24.41 -18.36 57.17zm367.24 -225.4l-241.7 265.72 -107.17 -97.49 241.7 -265.72 62.33 -23.17 44.85 120.66zm-107.17 -97.49l25.18 -27.68 37.14 4.51 -62.33 23.17zm243.76 144.83l-198.91 -24.17 17.48 -143.83 198.91 24.17 -8.3 144.36 -9.18 -0.53zm9.18 0.53l-4.62 0.03 -4.56 -0.55 9.18 0.53zm6.67 -144.9l0 144.88 -0.22 0 -0.22 0 -0.22 0 -0.22 0 -0.22 0 -0.22 0 -0.22 0 -0.22 0 -0.23 0 -0.22 0 -0.22 0 -0.23 0 -0.22 0 -0.22 0 -0.23 0 -0.22 0 -0.23 0 -0.22 0 -0.23 0 0.97 -0.01 -0.23 0.01 -1.41 0.01 -0.23 0 -0.22 0 -0.23 0 -0.23 0 -0.22 0 -0.23 0 0.94 -0.01 -0.2 0.01 -1.41 0.01 0.21 0 -0.88 -144.88 0.66 0 -0.97 0.01 0.25 -0.01 1.39 -0.01 0.23 0 0.22 0 0.23 0 0.23 0 0.22 0 0.23 0 -0.97 0.01 0.23 -0.01 1.41 -0.01 0.23 0 0.22 0 0.23 0 0.22 0 0.23 0 0.22 0 0.22 0 0.23 0 0.22 0 0.22 0 0.23 0 0.22 0 0.22 0 0.22 0 0.22 0 0.22 0 0.22 0 0.22 0 0.22 0z"/>
  </g>
  <g>
   <path class="fil2" d="M3098.23 2061.02l-71.56 125.98 0 0 -10.7 -5.95 -11.06 -5.88 -11.36 -5.77 -11.66 -5.64 -11.97 -5.5 -12.23 -5.34 -12.48 -5.15 -12.73 -4.97 -12.95 -4.73 -13.14 -4.49 -13.35 -4.24 -13.54 -3.96 -13.68 -3.67 -13.82 -3.35 -13.99 -3.04 -14.11 -2.69 -14.18 -2.33 -14.3 -1.96 -14.37 -1.58 -14.43 -1.16 -14.51 -0.75 -14.52 -0.32 -14.57 0.13 -14.59 0.58 -14.6 1.07 -14.62 1.56 -14.62 2.05 -14.6 2.57 -14.57 3.11 -14.58 3.67 -14.57 4.23 -14.55 4.82 -48.12 -136.66 19.66 -6.51 19.68 -5.72 19.68 -4.95 19.67 -4.19 19.62 -3.46 19.52 -2.75 19.44 -2.07 19.34 -1.41 19.22 -0.77 19.07 -0.18 18.93 0.41 18.74 0.97 18.58 1.5 18.37 2.02 18.16 2.48 17.96 2.96 17.7 3.38 17.47 3.78 17.24 4.18 16.97 4.55 16.67 4.88 16.41 5.2 16.14 5.51 15.81 5.78 15.51 6.03 15.18 6.27 14.86 6.48 14.51 6.68 14.19 6.86 13.83 7.02 13.44 7.15 13.08 7.27 0 0zm-143.43 1309.94l-39.52 -139.39 0 0 43.32 -14.11 40.8 -16.94 38.37 -19.61 35.96 -22.1 33.57 -24.45 31.19 -26.64 28.81 -28.7 26.4 -30.59 23.98 -32.35 21.53 -33.95 19.04 -35.37 16.51 -36.64 13.95 -37.72 11.35 -38.63 8.7 -39.36 6.04 -39.9 3.32 -40.24 0.61 -40.41 -2.15 -40.39 -4.93 -40.19 -7.72 -39.79 -10.53 -39.24 -13.36 -38.51 -16.21 -37.62 -19.09 -36.58 -22 -35.39 -24.94 -34.06 -27.94 -32.56 -31 -30.95 -34.14 -29.17 -37.35 -27.24 -40.7 -25.18 71.56 -125.98 49.93 30.89 46.33 33.79 42.63 36.44 38.93 38.85 35.22 41.04 31.49 42.99 27.78 44.69 24.1 46.16 20.43 47.4 16.79 48.41 13.22 49.2 9.66 49.77 6.14 50.13 2.69 50.29 -0.75 50.25 -4.14 50.01 -7.5 49.56 -10.82 48.95 -14.14 48.11 -17.41 47.08 -20.67 45.85 -23.91 44.42 -27.13 42.77 -30.32 40.88 -33.47 38.79 -36.6 36.46 -39.68 33.9 -42.72 31.09 -45.66 28.05 -48.53 24.79 -51.35 21.31 -53.98 17.59 0 0zm-411.21 -1379.3l48.12 136.66 0 0 -69.32 27.89 -62.06 31.88 -55.16 35.45 -48.55 38.6 -42.28 41.4 -36.3 43.87 -30.57 46.05 -25.1 47.96 -19.78 49.56 -14.62 50.89 -9.59 51.91 -4.65 52.57 0.18 52.86 4.9 52.76 9.49 52.24 13.98 51.31 18.31 49.97 22.47 48.18 26.49 45.99 30.32 43.4 34 40.42 37.47 37.08 40.79 33.37 43.98 29.34 47.04 24.99 50.01 20.32 52.97 15.31 55.89 9.96 58.84 4.21 61.82 -1.98 64.78 -8.65 67.8 -15.85 39.52 139.39 -81.02 18.95 -78.99 10.55 -76.6 2.46 -73.93 -5.27 -70.89 -12.63 -67.56 -19.52 -63.93 -25.96 -60.01 -31.86 -55.88 -37.27 -51.56 -42.16 -47.06 -46.54 -42.42 -50.44 -37.67 -53.89 -32.76 -56.87 -27.73 -59.44 -22.56 -61.56 -17.23 -63.28 -11.74 -64.61 -6.07 -65.49 -0.2 -65.96 5.85 -65.98 12.11 -65.55 18.58 -64.64 25.24 -63.19 32.03 -61.2 38.98 -58.67 45.99 -55.58 53.05 -51.94 60.12 -47.79 67.18 -43.18 74.23 -38.13 81.24 -32.68 0 0z"/>
  </g>
  <polygon class="fil0 str2" points="4872.88,3310.08 5302.38,3817.21 4986.72,4132.87 4464.07,3553.3 4174.28,3765.47 4008.69,2513.17 5147.14,3087.57 "/>
 </g>
</svg>
