<?xml version="1.0" encoding="UTF-8"?>
<!DOCTYPE svg PUBLIC "-//W3C//DTD SVG 1.1//EN" "http://www.w3.org/Graphics/SVG/1.1/DTD/svg11.dtd">
<!-- Creator: CorelDRAW 2018 (64-Bit Evaluation Version) -->
<svg xmlns="http://www.w3.org/2000/svg" xml:space="preserve" width="79.3806mm" height="47.4745mm" version="1.1" style="shape-rendering:geometricPrecision; text-rendering:geometricPrecision; image-rendering:optimizeQuality; fill-rule:evenodd; clip-rule:evenodd"
viewBox="0 0 3180.66 1902.23"
 xmlns:xlink="http://www.w3.org/1999/xlink">
 <defs>
  <style type="text/css">
   <![CDATA[
    .str5 {stroke:#00C2FF;stroke-width:40.71;stroke-miterlimit:22.9256}
    .str0 {stroke:#5AEEBC;stroke-width:40.71;stroke-miterlimit:22.9256}
    .str3 {stroke:#00C2FF;stroke-width:40.71;stroke-miterlimit:22.9256}
    .str1 {stroke:#FBD13D;stroke-width:40.71;stroke-miterlimit:22.9256}
    .str4 {stroke:#00C2FF;stroke-width:40.71;stroke-miterlimit:22.9256}
    .str2 {stroke:#FBD13D;stroke-width:40.71;stroke-miterlimit:22.9256}
    .fil0 {fill:none}
   ]]>
  </style>
 </defs>
 <g id="Layer_x0020_1">
  <metadata id="CorelCorpID_0Corel-Layer"/>
  <g id="_1853060659504">
   <polygon class="fil0 str0" points="1109.83,566.85 1245.51,347.05 1929.36,347.05 2067.76,566.85 1595.58,1193.71 "/>
   <polyline class="fil0 str0" points="1245.51,347.05 1419.19,572.28 1595.58,1193.71 1766.54,566.85 1929.36,347.05 "/>
   <polyline class="fil0 str0" points="1419.19,572.28 1587.44,347.05 1766.54,566.85 "/>
   <line class="fil0 str0" x1="1109.83" y1="566.85" x2="2067.76" y2= "566.85" />
   <line class="fil0 str1" x1="1082.7" y1="153.69" x2="1203.45" y2= "266.31" />
   <line class="fil0 str1" x1="2101.68" y1="150.98" x2="1990.42" y2= "269.02" />
   <line class="fil0 str1" x1="2275.36" y1="568.89" x2="2162.74" y2= "570.24" />
   <line class="fil0 str1" x1="1591.51" y1="0.37" x2="1594.22" y2= "149.62" />
   <line class="fil0 str2" x1="1592.87" y1="194.4" x2="1592.87" y2= "231.04" />
   <line class="fil0 str1" x1="910.38" y1="571.6" x2="1023" y2= "570.92" />
   <line class="fil0 str0" x1="2470.75" y1="973.22" x2="2469.39" y2= "1140.12" />
   <line class="fil0 str0" x1="2387.3" y1="1056.67" x2="2555.55" y2= "1058.02" />
   <line class="fil0 str0" x1="2764.49" y1="291.75" x2="2764.32" y2= "403.01" />
   <line class="fil0 str0" x1="2708.86" y1="346.53" x2="2820.63" y2= "346.02" />
   <line class="fil0 str1" x1="3084.18" y1="681.67" x2="3083.5" y2= "876.37" />
   <line class="fil0 str1" x1="2987.84" y1="778.68" x2="3180.52" y2= "780.04" />
   <line class="fil0 str1" x1="659.5" y1="877.06" x2="658.15" y2= "1042.59" />
   <line class="fil0 str1" x1="577.42" y1="960.5" x2="742.27" y2= "960.5" />
   <line class="fil0 str0" x1="61.82" y1="765.12" x2="61.14" y2= "875.03" />
   <line class="fil0 str0" x1="6.87" y1="822.11" x2="116.09" y2= "822.79" />
   <line class="fil0 str0" x1="367.11" y1="235.27" x2="366.43" y2= "430.66" />
   <line class="fil0 str0" x1="270.09" y1="330.93" x2="464.12" y2= "330.93" />
   <polyline class="fil0 str3" points="580.81,1310.57 1035.35,1310.57 1033.99,1881.8 0.08,1877.73 "/>
   <line class="fil0 str3" x1="422.06" y1="1474.75" x2="590.31" y2= "1474.07" />
   <line class="fil0 str4" x1="631.69" y1="1474.41" x2="869.13" y2= "1474.41" />
   <line class="fil0 str3" x1="423.41" y1="1630.11" x2="590.31" y2= "1630.11" />
   <line class="fil0 str5" x1="633.05" y1="1629.77" x2="868.46" y2= "1630.45" />
   <path class="fil0 str3" d="M1035.09 1419.1c137.86,-127.01 314.9,-112.71 512.46,-24.41l458.61 -4.07c107.87,-1.13 130.25,201.27 0,210.31l-400.27 2.71"/>
   <path class="fil0 str3" d="M1034.18 1801.74c295.95,-69.65 564.77,20.8 847.15,31.21l608.55 -346c46.19,-52.86 -19.75,-199.29 -113.97,-170.28l-289.68 133.65"/>
  </g>
 </g>
</svg>
