<?xml version="1.0" encoding="UTF-8"?>
<!DOCTYPE svg PUBLIC "-//W3C//DTD SVG 1.1//EN" "http://www.w3.org/Graphics/SVG/1.1/DTD/svg11.dtd">
<!-- Creator: CorelDRAW 2018 (64-Bit Evaluation Version) -->
<svg xmlns="http://www.w3.org/2000/svg" xml:space="preserve" width="79.3773mm" height="43.3347mm" version="1.1" style="shape-rendering:geometricPrecision; text-rendering:geometricPrecision; image-rendering:optimizeQuality; fill-rule:evenodd; clip-rule:evenodd"
viewBox="0 0 7464.08 4074.89"
 xmlns:xlink="http://www.w3.org/1999/xlink">
 <defs>
  <style type="text/css">
   <![CDATA[
    .fil1 {fill:#5AEEBC;fill-rule:nonzero}
    .fil0 {fill:#FBD13D;fill-rule:nonzero}
    .fil2 {fill:#00C2FF;fill-rule:nonzero}
   ]]>
  </style>
 </defs>
 <g id="Layer_x0020_1">
  <metadata id="CorelCorpID_0Corel-Layer"/>
  <g>
   <path class="fil0" d="M4455.42 245.06l-96.1 0 0 0 -0.2 -7.63 -0.59 -7.51 -0.97 -7.4 -1.34 -7.23 -1.69 -7.12 -2.06 -7.01 -2.4 -6.87 -2.73 -6.7 -3.06 -6.55 -3.39 -6.38 -3.7 -6.22 -3.99 -6.03 -4.3 -5.84 -4.59 -5.66 -4.86 -5.44 -5.12 -5.21 -5.38 -4.96 -5.64 -4.74 -5.85 -4.46 -6.11 -4.2 -6.31 -3.92 -6.52 -3.62 -6.74 -3.35 -6.89 -3.02 -7.07 -2.7 -7.25 -2.38 -7.41 -2.03 -7.59 -1.7 -7.7 -1.34 -7.84 -0.96 -7.98 -0.59 -8.12 -0.2 0 -96.1 12.81 0.31 12.69 0.93 12.53 1.54 12.33 2.14 12.1 2.7 11.89 3.27 11.65 3.81 11.42 4.35 11.12 4.88 10.8 5.36 10.52 5.86 10.18 6.33 9.85 6.78 9.52 7.24 9.12 7.65 8.75 8.08 8.35 8.48 7.93 8.86 7.49 9.23 7.06 9.6 6.58 9.96 6.1 10.27 5.6 10.62 5.09 10.9 4.55 11.19 4 11.44 3.43 11.69 2.86 11.95 2.24 12.16 1.61 12.33 0.99 12.5 0.33 12.65 0 0zm-251.47 245.06l0 -96.1 0 0 8.12 -0.2 7.98 -0.59 7.84 -0.96 7.7 -1.34 7.59 -1.7 7.41 -2.03 7.25 -2.38 7.07 -2.7 6.89 -3.02 6.74 -3.35 6.52 -3.62 6.31 -3.92 6.11 -4.2 5.85 -4.46 5.64 -4.74 5.38 -4.96 5.12 -5.21 4.86 -5.44 4.59 -5.66 4.3 -5.84 3.99 -6.03 3.7 -6.22 3.39 -6.38 3.06 -6.55 2.73 -6.7 2.4 -6.87 2.06 -7.01 1.69 -7.12 1.34 -7.23 0.97 -7.4 0.59 -7.51 0.2 -7.63 96.1 0 -0.33 12.65 -0.99 12.5 -1.61 12.33 -2.24 12.16 -2.86 11.95 -3.43 11.69 -4 11.44 -4.55 11.19 -5.09 10.9 -5.6 10.62 -6.1 10.27 -6.58 9.96 -7.06 9.6 -7.49 9.23 -7.93 8.86 -8.35 8.48 -8.75 8.08 -9.12 7.65 -9.52 7.24 -9.85 6.78 -10.18 6.33 -10.52 5.86 -10.8 5.36 -11.12 4.88 -11.42 4.35 -11.65 3.81 -11.89 3.27 -12.1 2.7 -12.33 2.14 -12.53 1.54 -12.69 0.93 -12.81 0.31 0 0zm-251.46 -245.06l96.1 0 0 0 0.2 7.63 0.59 7.51 0.97 7.4 1.34 7.23 1.69 7.12 2.06 7.01 2.4 6.87 2.73 6.7 3.06 6.55 3.39 6.38 3.7 6.22 3.99 6.03 4.3 5.84 4.59 5.66 4.86 5.44 5.12 5.21 5.38 4.96 5.64 4.74 5.87 4.47 6.08 4.19 6.31 3.91 6.53 3.63 6.74 3.35 6.9 3.03 7.06 2.69 7.23 2.37 7.43 2.04 7.58 1.7 7.71 1.34 7.83 0.96 7.98 0.59 8.12 0.2 0 96.1 -12.81 -0.31 -12.69 -0.93 -12.52 -1.54 -12.34 -2.14 -12.09 -2.7 -11.89 -3.26 -11.67 -3.82 -11.41 -4.36 -11.11 -4.87 -10.8 -5.36 -10.51 -5.85 -10.2 -6.34 -9.86 -6.79 -9.5 -7.23 -9.12 -7.65 -8.75 -8.08 -8.35 -8.48 -7.93 -8.86 -7.49 -9.23 -7.06 -9.6 -6.58 -9.96 -6.1 -10.27 -5.6 -10.62 -5.09 -10.9 -4.55 -11.19 -4 -11.44 -3.43 -11.69 -2.86 -11.95 -2.24 -12.16 -1.61 -12.33 -0.99 -12.5 -0.33 -12.65 0 0zm251.46 -245.06l0 96.1 0 0 -8.12 0.2 -7.98 0.59 -7.83 0.96 -7.71 1.34 -7.58 1.7 -7.43 2.04 -7.23 2.37 -7.06 2.69 -6.9 3.03 -6.74 3.35 -6.53 3.63 -6.31 3.91 -6.08 4.19 -5.87 4.47 -5.64 4.74 -5.38 4.96 -5.12 5.21 -4.86 5.44 -4.59 5.66 -4.3 5.84 -3.99 6.03 -3.7 6.22 -3.39 6.38 -3.06 6.55 -2.73 6.7 -2.4 6.87 -2.06 7.01 -1.69 7.12 -1.34 7.23 -0.97 7.4 -0.59 7.51 -0.2 7.63 -96.1 0 0.33 -12.65 0.99 -12.5 1.61 -12.33 2.24 -12.16 2.86 -11.95 3.43 -11.69 4 -11.44 4.55 -11.19 5.09 -10.9 5.6 -10.62 6.1 -10.27 6.58 -9.96 7.06 -9.6 7.49 -9.23 7.93 -8.86 8.35 -8.48 8.75 -8.08 9.12 -7.65 9.5 -7.23 9.86 -6.79 10.2 -6.34 10.51 -5.85 10.8 -5.36 11.11 -4.87 11.41 -4.36 11.67 -3.82 11.89 -3.26 12.09 -2.7 12.34 -2.14 12.52 -1.54 12.69 -0.93 12.81 -0.31 0 0z"/>
  </g>
  <g>
   <path class="fil1" d="M3451.12 1840.32l-96.1 0 0 0 -0.12 -4.68 -0.36 -4.58 -0.6 -4.52 -0.81 -4.43 -1.04 -4.34 -1.25 -4.29 -1.45 -4.16 -1.68 -4.1 -1.88 -4.04 -2.07 -3.91 -2.26 -3.8 -2.45 -3.7 -2.65 -3.61 -2.81 -3.47 -2.99 -3.35 -3.17 -3.22 -3.33 -3.07 -3.47 -2.92 -3.62 -2.75 -3.81 -2.62 -3.89 -2.43 -4.02 -2.24 -4.17 -2.07 -4.28 -1.87 -4.41 -1.68 -4.5 -1.48 -4.55 -1.26 -4.71 -1.04 -4.81 -0.84 -4.89 -0.6 -4.97 -0.37 -5.06 -0.12 0 -96.1 9.78 0.24 9.66 0.72 9.53 1.17 9.39 1.63 9.24 2.06 9.12 2.5 8.9 2.92 8.68 3.32 8.49 3.71 8.27 4.1 8.05 4.48 7.8 4.85 7.49 5.16 7.27 5.53 6.99 5.87 6.68 6.16 6.38 6.49 6.07 6.79 5.75 7.08 5.38 7.33 5.05 7.62 4.68 7.9 4.29 8.12 3.89 8.33 3.49 8.58 3.08 8.82 2.62 8.95 2.19 9.18 1.71 9.32 1.24 9.45 0.75 9.6 0.25 9.69 0 0zm-192.19 187.66l0 -96.1 0 0 5.06 -0.12 4.97 -0.37 4.89 -0.6 4.81 -0.84 4.71 -1.04 4.55 -1.26 4.5 -1.48 4.41 -1.68 4.28 -1.87 4.17 -2.07 4.02 -2.24 3.89 -2.43 3.81 -2.62 3.62 -2.75 3.45 -2.9 3.35 -3.1 3.18 -3.22 2.98 -3.34 2.81 -3.47 2.65 -3.61 2.45 -3.7 2.26 -3.8 2.07 -3.91 1.88 -4.04 1.68 -4.1 1.45 -4.16 1.25 -4.29 1.04 -4.34 0.81 -4.43 0.6 -4.52 0.36 -4.58 0.12 -4.68 96.1 0 -0.25 9.69 -0.75 9.6 -1.24 9.45 -1.71 9.32 -2.19 9.18 -2.62 8.95 -3.08 8.82 -3.49 8.58 -3.89 8.33 -4.29 8.12 -4.68 7.9 -5.05 7.62 -5.38 7.33 -5.75 7.08 -6.08 6.8 -6.38 6.47 -6.66 6.15 -7.01 5.89 -7.27 5.53 -7.49 5.16 -7.8 4.85 -8.05 4.48 -8.27 4.1 -8.49 3.71 -8.68 3.32 -8.9 2.92 -9.12 2.5 -9.24 2.06 -9.39 1.63 -9.53 1.17 -9.66 0.72 -9.78 0.24 0 0zm-192.2 -187.66l96.1 0 0 0 0.12 4.68 0.36 4.58 0.6 4.52 0.81 4.43 1.04 4.34 1.25 4.29 1.45 4.16 1.68 4.1 1.88 4.04 2.07 3.91 2.26 3.8 2.45 3.7 2.65 3.61 2.81 3.47 2.98 3.34 3.18 3.22 3.35 3.1 3.43 2.89 3.63 2.75 3.83 2.63 3.89 2.43 4.02 2.24 4.17 2.07 4.28 1.87 4.42 1.69 4.49 1.47 4.56 1.26 4.71 1.04 4.8 0.84 4.9 0.59 4.97 0.38 5.06 0.12 0 96.1 -9.78 -0.24 -9.66 -0.71 -9.54 -1.18 -9.4 -1.63 -9.22 -2.06 -9.13 -2.5 -8.9 -2.93 -8.67 -3.31 -8.49 -3.71 -8.27 -4.1 -8.05 -4.48 -7.8 -4.85 -7.48 -5.15 -7.28 -5.53 -7.02 -5.9 -6.66 -6.15 -6.38 -6.47 -6.08 -6.8 -5.75 -7.08 -5.38 -7.33 -5.05 -7.62 -4.68 -7.9 -4.29 -8.12 -3.89 -8.33 -3.49 -8.58 -3.08 -8.82 -2.62 -8.95 -2.19 -9.18 -1.71 -9.32 -1.24 -9.45 -0.75 -9.6 -0.25 -9.69 0 0zm192.2 -187.66l0 96.1 0 0 -5.06 0.12 -4.97 0.38 -4.9 0.59 -4.8 0.84 -4.71 1.04 -4.56 1.26 -4.49 1.47 -4.42 1.69 -4.28 1.87 -4.17 2.07 -4.02 2.24 -3.89 2.43 -3.83 2.63 -3.63 2.75 -3.45 2.91 -3.33 3.07 -3.17 3.22 -2.99 3.35 -2.81 3.47 -2.65 3.61 -2.45 3.7 -2.26 3.8 -2.07 3.91 -1.88 4.04 -1.68 4.1 -1.45 4.16 -1.25 4.29 -1.04 4.34 -0.81 4.43 -0.6 4.52 -0.36 4.58 -0.12 4.68 -96.1 0 0.25 -9.69 0.75 -9.6 1.24 -9.45 1.71 -9.32 2.19 -9.18 2.62 -8.95 3.08 -8.82 3.49 -8.58 3.89 -8.33 4.29 -8.12 4.68 -7.9 5.05 -7.62 5.38 -7.33 5.75 -7.08 6.07 -6.79 6.38 -6.49 6.68 -6.16 7.01 -5.88 7.28 -5.53 7.48 -5.15 7.8 -4.85 8.05 -4.48 8.27 -4.1 8.49 -3.71 8.67 -3.31 8.9 -2.93 9.13 -2.5 9.22 -2.06 9.4 -1.63 9.54 -1.18 9.66 -0.71 9.78 -0.24 0 0z"/>
  </g>
  <g>
   <path class="fil1" d="M3983.08 1386.24l-96.1 0 0 0 -0.17 -6.54 -0.5 -6.38 -0.84 -6.3 -1.14 -6.22 -1.44 -6.05 -1.76 -5.97 -2.06 -5.88 -2.31 -5.72 -2.61 -5.59 -2.89 -5.45 -3.15 -5.31 -3.42 -5.16 -3.69 -5.01 -3.9 -4.83 -4.15 -4.64 -4.39 -4.46 -4.61 -4.25 -4.83 -4.05 -5.03 -3.83 -5.19 -3.58 -5.43 -3.36 -5.59 -3.12 -5.74 -2.85 -5.91 -2.59 -6.1 -2.32 -6.22 -2.05 -6.32 -1.73 -6.49 -1.45 -6.62 -1.15 -6.73 -0.84 -6.84 -0.5 -6.98 -0.17 0 -96.1 11.66 0.28 11.56 0.86 11.4 1.4 11.21 1.94 11.04 2.46 10.85 2.99 10.62 3.48 10.35 3.96 10.14 4.43 9.87 4.9 9.56 5.32 9.28 5.76 9.01 6.2 8.64 6.59 8.31 6.97 7.97 7.37 7.59 7.71 7.25 8.1 6.84 8.43 6.41 8.74 6 9.07 5.58 9.38 5.11 9.67 4.65 9.95 4.16 10.21 3.64 10.43 3.13 10.67 2.6 10.92 2.04 11.07 1.48 11.25 0.89 11.42 0.3 11.52 0 0zm-229.13 223.44l0 -96.1 0 0 6.98 -0.17 6.84 -0.5 6.73 -0.84 6.62 -1.15 6.47 -1.44 6.34 -1.75 6.24 -2.05 6.07 -2.31 5.91 -2.59 5.74 -2.85 5.58 -3.1 5.43 -3.38 5.23 -3.6 5.01 -3.81 4.83 -4.06 4.61 -4.24 4.37 -4.46 4.18 -4.66 3.89 -4.81 3.69 -5.02 3.42 -5.16 3.15 -5.29 2.89 -5.46 2.61 -5.59 2.31 -5.72 2.06 -5.88 1.76 -5.97 1.44 -6.05 1.14 -6.22 0.84 -6.3 0.5 -6.38 0.17 -6.54 96.1 0 -0.3 11.52 -0.89 11.42 -1.48 11.25 -2.04 11.07 -2.6 10.92 -3.13 10.67 -3.64 10.43 -4.16 10.21 -4.65 9.94 -5.11 9.68 -5.58 9.39 -6 9.06 -6.41 8.75 -6.85 8.43 -7.22 8.07 -7.61 7.73 -7.97 7.36 -8.31 6.98 -8.66 6.59 -8.97 6.18 -9.28 5.76 -9.58 5.34 -9.87 4.9 -10.14 4.43 -10.38 3.97 -10.59 3.46 -10.83 2.99 -11.06 2.47 -11.21 1.94 -11.4 1.4 -11.56 0.86 -11.66 0.28 0 0zm-229.14 -223.44l96.1 0 0 0 0.17 6.54 0.5 6.38 0.84 6.3 1.14 6.22 1.44 6.05 1.76 5.97 2.06 5.88 2.31 5.72 2.61 5.59 2.89 5.46 3.15 5.29 3.42 5.16 3.67 5.01 3.92 4.81 4.18 4.67 4.36 4.45 4.61 4.24 4.81 4.05 5.02 3.81 5.27 3.62 5.41 3.37 5.56 3.09 5.75 2.86 5.92 2.59 6.07 2.32 6.22 2.03 6.36 1.76 6.47 1.44 6.62 1.15 6.73 0.84 6.84 0.5 6.98 0.17 0 96.1 -11.66 -0.28 -11.56 -0.86 -11.4 -1.4 -11.21 -1.94 -11.06 -2.47 -10.83 -2.98 -10.61 -3.48 -10.37 -3.96 -10.12 -4.43 -9.88 -4.89 -9.6 -5.35 -9.28 -5.77 -8.93 -6.16 -8.67 -6.59 -8.33 -6.99 -7.97 -7.36 -7.62 -7.74 -7.2 -8.06 -6.84 -8.43 -6.43 -8.75 -6 -9.06 -5.58 -9.39 -5.11 -9.68 -4.65 -9.94 -4.16 -10.21 -3.64 -10.43 -3.13 -10.67 -2.6 -10.92 -2.04 -11.07 -1.48 -11.25 -0.89 -11.42 -0.3 -11.52 0 0zm229.14 -223.43l0 96.1 0 0 -6.98 0.17 -6.84 0.5 -6.73 0.84 -6.62 1.15 -6.5 1.45 -6.33 1.74 -6.2 2.03 -6.09 2.33 -5.92 2.59 -5.75 2.86 -5.58 3.1 -5.41 3.36 -5.23 3.6 -5.04 3.83 -4.81 4.04 -4.61 4.25 -4.37 4.45 -4.16 4.65 -3.93 4.84 -3.67 5 -3.42 5.16 -3.15 5.31 -2.89 5.45 -2.61 5.59 -2.31 5.72 -2.06 5.88 -1.76 5.97 -1.44 6.05 -1.14 6.22 -0.84 6.3 -0.5 6.38 -0.17 6.54 -96.1 0 0.3 -11.52 0.89 -11.42 1.48 -11.25 2.04 -11.07 2.6 -10.92 3.13 -10.67 3.64 -10.43 4.16 -10.21 4.65 -9.95 5.11 -9.67 5.58 -9.38 6 -9.07 6.43 -8.75 6.83 -8.42 7.22 -8.09 7.61 -7.72 7.97 -7.37 8.33 -6.98 8.65 -6.59 8.97 -6.18 9.28 -5.76 9.58 -5.34 9.88 -4.89 10.12 -4.43 10.34 -3.95 10.64 -3.5 10.86 -2.98 11.03 -2.46 11.21 -1.94 11.4 -1.4 11.56 -0.86 11.66 -0.28 0 0z"/>
  </g>
  <g>
   <path class="fil1" d="M4457.81 2101.64l-96.1 0 0 0 -0.23 -8.71 -0.67 -8.54 -1.11 -8.41 -1.52 -8.27 -1.94 -8.12 -2.33 -7.96 -2.74 -7.82 -3.1 -7.64 -3.49 -7.46 -3.85 -7.27 -4.21 -7.08 -4.55 -6.89 -4.88 -6.64 -5.21 -6.42 -5.53 -6.19 -5.82 -5.91 -6.11 -5.64 -6.42 -5.38 -6.67 -5.09 -6.93 -4.77 -7.17 -4.46 -7.41 -4.12 -7.65 -3.8 -7.83 -3.43 -8.04 -3.07 -8.25 -2.7 -8.41 -2.31 -8.59 -1.92 -8.78 -1.51 -8.9 -1.11 -9.06 -0.66 -9.22 -0.23 0 -96.1 13.9 0.34 13.78 1.02 13.57 1.67 13.35 2.3 13.16 2.93 12.92 3.55 12.63 4.15 12.37 4.71 12.06 5.29 11.72 5.81 11.42 6.36 11.06 6.86 10.69 7.36 10.3 7.83 9.88 8.29 9.5 8.76 9.06 9.21 8.59 9.61 8.12 10.01 7.64 10.42 7.13 10.77 6.62 11.14 6.07 11.48 5.52 11.82 4.93 12.12 4.33 12.39 3.72 12.69 3.08 12.94 2.43 13.16 1.75 13.37 1.06 13.56 0.36 13.69 0 0zm-272.7 265.63l0 -96.1 0 0 9.22 -0.23 9.06 -0.66 8.9 -1.11 8.78 -1.51 8.59 -1.92 8.41 -2.31 8.25 -2.7 8.04 -3.07 7.83 -3.43 7.65 -3.8 7.41 -4.12 7.17 -4.46 6.93 -4.77 6.67 -5.09 6.42 -5.38 6.11 -5.64 5.83 -5.92 5.53 -6.18 5.2 -6.41 4.88 -6.64 4.55 -6.89 4.21 -7.07 3.84 -7.28 3.5 -7.47 3.1 -7.64 2.74 -7.82 2.33 -7.96 1.94 -8.12 1.52 -8.27 1.11 -8.42 0.67 -8.54 0.23 -8.71 96.1 0 -0.36 13.69 -1.06 13.56 -1.75 13.36 -2.43 13.17 -3.08 12.93 -3.72 12.69 -4.33 12.39 -4.93 12.12 -5.51 11.81 -6.07 11.49 -6.62 11.15 -7.13 10.77 -7.64 10.42 -8.13 10.02 -8.59 9.6 -9.05 9.2 -9.5 8.76 -9.88 8.29 -10.3 7.83 -10.69 7.36 -11.06 6.86 -11.42 6.36 -11.72 5.81 -12.06 5.29 -12.37 4.71 -12.63 4.15 -12.92 3.55 -13.16 2.93 -13.35 2.3 -13.57 1.67 -13.78 1.02 -13.9 0.34 0 0zm-272.7 -265.63l96.1 0 0 0 0.23 8.71 0.67 8.54 1.11 8.42 1.52 8.27 1.94 8.12 2.33 7.96 2.74 7.82 3.1 7.64 3.5 7.47 3.84 7.28 4.21 7.07 4.55 6.89 4.88 6.64 5.2 6.41 5.53 6.18 5.83 5.92 6.11 5.64 6.42 5.38 6.67 5.09 6.93 4.77 7.17 4.46 7.41 4.12 7.65 3.8 7.83 3.43 8.04 3.07 8.25 2.7 8.41 2.31 8.59 1.92 8.78 1.51 8.9 1.11 9.06 0.66 9.22 0.23 0 96.1 -13.9 -0.34 -13.78 -1.02 -13.57 -1.67 -13.35 -2.3 -13.16 -2.93 -12.92 -3.55 -12.63 -4.15 -12.37 -4.71 -12.06 -5.29 -11.72 -5.81 -11.42 -6.36 -11.06 -6.86 -10.69 -7.36 -10.3 -7.83 -9.88 -8.29 -9.5 -8.76 -9.05 -9.2 -8.59 -9.6 -8.13 -10.02 -7.64 -10.42 -7.13 -10.77 -6.62 -11.15 -6.07 -11.49 -5.51 -11.81 -4.93 -12.12 -4.33 -12.39 -3.72 -12.69 -3.08 -12.93 -2.43 -13.17 -1.75 -13.36 -1.06 -13.56 -0.36 -13.69 0 0zm272.7 -265.63l0 96.1 0 0 -9.22 0.23 -9.06 0.66 -8.9 1.11 -8.78 1.51 -8.59 1.92 -8.41 2.31 -8.25 2.7 -8.04 3.07 -7.83 3.43 -7.65 3.8 -7.41 4.12 -7.17 4.46 -6.93 4.77 -6.67 5.09 -6.42 5.38 -6.11 5.64 -5.82 5.91 -5.53 6.19 -5.21 6.42 -4.88 6.64 -4.55 6.89 -4.21 7.08 -3.85 7.27 -3.49 7.46 -3.1 7.64 -2.74 7.82 -2.33 7.96 -1.94 8.12 -1.52 8.27 -1.11 8.41 -0.67 8.54 -0.23 8.71 -96.1 0 0.36 -13.69 1.06 -13.56 1.75 -13.37 2.43 -13.16 3.08 -12.94 3.72 -12.69 4.33 -12.39 4.93 -12.12 5.52 -11.82 6.07 -11.48 6.62 -11.14 7.13 -10.77 7.64 -10.42 8.12 -10.01 8.59 -9.61 9.06 -9.21 9.5 -8.76 9.88 -8.29 10.3 -7.83 10.69 -7.36 11.06 -6.86 11.42 -6.36 11.72 -5.81 12.06 -5.29 12.37 -4.71 12.63 -4.15 12.92 -3.55 13.16 -2.93 13.35 -2.3 13.57 -1.67 13.78 -1.02 13.9 -0.34 0 0z"/>
  </g>
  <g>
   <path class="fil1" d="M3846.68 2498.75l-96.1 0 0 0 -0.31 -11.91 -0.92 -11.74 -1.51 -11.55 -2.09 -11.33 -2.67 -11.16 -3.21 -10.95 -3.74 -10.71 -4.27 -10.48 -4.78 -10.25 -5.28 -9.96 -5.76 -9.71 -6.22 -9.41 -6.7 -9.1 -7.13 -8.79 -7.55 -8.44 -7.97 -8.1 -8.36 -7.72 -8.75 -7.33 -9.13 -6.95 -9.46 -6.52 -9.79 -6.08 -10.11 -5.62 -10.44 -5.17 -10.69 -4.69 -10.99 -4.19 -11.24 -3.69 -11.49 -3.15 -11.72 -2.62 -11.92 -2.07 -12.15 -1.49 -12.36 -0.91 -12.53 -0.31 0 -96.1 17.24 0.42 17.02 1.25 16.81 2.07 16.57 2.86 16.27 3.64 15.97 4.39 15.64 5.13 15.3 5.83 14.92 6.54 14.52 7.2 14.11 7.86 13.68 8.49 13.22 9.11 12.74 9.69 12.24 10.27 11.73 10.82 11.19 11.37 10.64 11.89 10.04 12.38 9.44 12.86 8.82 13.32 8.17 13.76 7.49 14.19 6.81 14.58 6.09 14.96 5.36 15.34 4.58 15.65 3.8 15.94 3.01 16.26 2.15 16.51 1.32 16.72 0.44 16.92 0 0zm-337.33 328.22l0 -96.1 0 0 12.53 -0.31 12.36 -0.91 12.15 -1.49 11.92 -2.07 11.71 -2.61 11.5 -3.17 11.25 -3.69 10.98 -4.18 10.69 -4.69 10.42 -5.16 10.12 -5.64 9.81 -6.09 9.46 -6.51 9.12 -6.94 8.74 -7.33 8.36 -7.73 7.98 -8.11 7.56 -8.45 7.13 -8.78 6.69 -9.09 6.22 -9.41 5.76 -9.7 5.27 -9.98 4.79 -10.25 4.27 -10.48 3.74 -10.71 3.21 -10.94 2.66 -11.16 2.1 -11.34 1.51 -11.54 0.92 -11.74 0.31 -11.91 96.1 0 -0.44 16.92 -1.32 16.72 -2.15 16.5 -3 16.27 -3.81 15.94 -4.58 15.66 -5.36 15.32 -6.09 14.96 -6.8 14.58 -7.5 14.19 -8.17 13.77 -8.82 13.32 -9.45 12.87 -10.04 12.37 -10.63 11.88 -11.18 11.36 -11.73 10.83 -12.25 10.28 -12.75 9.7 -13.22 9.1 -13.66 8.48 -14.1 7.86 -14.54 7.21 -14.92 6.54 -15.31 5.84 -15.63 5.12 -15.96 4.39 -16.28 3.65 -16.57 2.86 -16.81 2.07 -17.02 1.25 -17.24 0.42 0 0zm-337.33 -328.22l96.1 0 0 0 0.31 11.91 0.92 11.74 1.51 11.54 2.1 11.34 2.66 11.16 3.21 10.94 3.74 10.71 4.27 10.48 4.79 10.25 5.27 9.98 5.76 9.7 6.22 9.41 6.69 9.09 7.13 8.78 7.57 8.46 7.96 8.1 8.36 7.72 8.75 7.34 9.1 6.93 9.45 6.51 9.83 6.09 10.12 5.64 10.41 5.16 10.7 4.69 10.97 4.18 11.26 3.69 11.49 3.17 11.72 2.61 11.93 2.07 12.13 1.49 12.37 0.91 12.53 0.31 0 96.1 -17.24 -0.42 -17.03 -1.25 -16.81 -2.07 -16.56 -2.86 -16.29 -3.65 -15.95 -4.39 -15.64 -5.12 -15.3 -5.84 -14.93 -6.54 -14.53 -7.21 -14.1 -7.86 -13.66 -8.48 -13.23 -9.1 -12.75 -9.71 -12.23 -10.26 -11.74 -10.84 -11.18 -11.37 -10.62 -11.87 -10.04 -12.37 -9.45 -12.87 -8.82 -13.32 -8.17 -13.77 -7.5 -14.19 -6.8 -14.58 -6.09 -14.96 -5.36 -15.32 -4.58 -15.66 -3.81 -15.94 -3 -16.27 -2.15 -16.5 -1.32 -16.72 -0.44 -16.92 0 0zm337.33 -328.22l0 96.1 0 0 -12.53 0.31 -12.37 0.91 -12.13 1.49 -11.93 2.07 -11.73 2.62 -11.48 3.15 -11.25 3.69 -10.98 4.19 -10.7 4.69 -10.42 5.17 -10.13 5.63 -9.8 6.07 -9.44 6.52 -9.12 6.94 -8.76 7.35 -8.36 7.71 -7.96 8.09 -7.56 8.45 -7.13 8.79 -6.7 9.1 -6.22 9.41 -5.76 9.71 -5.28 9.96 -4.78 10.25 -4.27 10.48 -3.74 10.71 -3.21 10.95 -2.67 11.16 -2.09 11.33 -1.51 11.55 -0.92 11.74 -0.31 11.91 -96.1 0 0.44 -16.92 1.32 -16.72 2.15 -16.51 3.01 -16.26 3.8 -15.94 4.58 -15.65 5.36 -15.34 6.09 -14.96 6.81 -14.58 7.49 -14.19 8.17 -13.76 8.82 -13.32 9.44 -12.86 10.04 -12.38 10.63 -11.88 11.19 -11.38 11.74 -10.83 12.22 -10.25 12.73 -9.7 13.24 -9.11 13.69 -8.5 14.1 -7.85 14.52 -7.2 14.93 -6.54 15.29 -5.83 15.65 -5.13 15.96 -4.39 16.28 -3.64 16.56 -2.86 16.81 -2.07 17.03 -1.25 17.24 -0.42 0 0z"/>
  </g>
  <g>
   <path class="fil0" d="M5706.29 864.95l-96.1 0 0 0 -0.2 -7.63 -0.59 -7.51 -0.97 -7.41 -1.34 -7.23 -1.69 -7.11 -2.06 -7.01 -2.4 -6.86 -2.74 -6.71 -3.05 -6.54 -3.38 -6.38 -3.7 -6.23 -3.99 -6.04 -4.3 -5.84 -4.58 -5.64 -4.87 -5.44 -5.13 -5.22 -5.36 -4.96 -5.63 -4.72 -5.88 -4.48 -6.08 -4.19 -6.33 -3.92 -6.51 -3.63 -6.72 -3.33 -6.92 -3.04 -7.06 -2.69 -7.23 -2.37 -7.43 -2.04 -7.58 -1.7 -7.71 -1.34 -7.83 -0.96 -7.98 -0.59 -8.12 -0.2 0 -96.1 12.81 0.31 12.69 0.93 12.52 1.54 12.34 2.14 12.09 2.7 11.89 3.26 11.67 3.82 11.41 4.36 11.1 4.86 10.82 5.36 10.53 5.87 10.18 6.33 9.86 6.79 9.49 7.22 9.13 7.65 8.76 8.1 8.33 8.47 7.92 8.85 7.49 9.23 7.06 9.62 6.58 9.95 6.09 10.26 5.61 10.61 5.1 10.92 4.54 11.19 4 11.43 3.43 11.7 2.86 11.94 2.24 12.18 1.61 12.32 0.99 12.5 0.33 12.65 0 0zm-251.46 245.06l0 -96.1 0 0 8.12 -0.2 7.98 -0.59 7.83 -0.96 7.71 -1.34 7.58 -1.7 7.43 -2.04 7.23 -2.37 7.06 -2.69 6.9 -3.03 6.74 -3.35 6.53 -3.63 6.31 -3.91 6.08 -4.19 5.87 -4.47 5.64 -4.74 5.38 -4.96 5.12 -5.21 4.86 -5.44 4.59 -5.66 4.3 -5.84 3.99 -6.03 3.7 -6.22 3.39 -6.38 3.06 -6.55 2.73 -6.7 2.4 -6.87 2.06 -7.01 1.69 -7.12 1.34 -7.23 0.97 -7.4 0.59 -7.51 0.2 -7.63 96.1 0 -0.33 12.65 -0.99 12.5 -1.61 12.33 -2.24 12.16 -2.86 11.95 -3.43 11.69 -4 11.44 -4.55 11.19 -5.09 10.9 -5.6 10.62 -6.1 10.27 -6.58 9.96 -7.06 9.6 -7.49 9.23 -7.93 8.86 -8.35 8.48 -8.75 8.08 -9.12 7.65 -9.5 7.23 -9.86 6.79 -10.2 6.34 -10.51 5.85 -10.8 5.36 -11.11 4.87 -11.41 4.36 -11.67 3.82 -11.89 3.26 -12.09 2.7 -12.34 2.14 -12.52 1.54 -12.69 0.93 -12.81 0.31 0 0zm-251.46 -245.06l96.1 0 0 0 0.2 7.63 0.59 7.51 0.97 7.4 1.34 7.23 1.69 7.12 2.06 7.01 2.4 6.87 2.73 6.7 3.06 6.55 3.39 6.38 3.7 6.22 3.99 6.03 4.3 5.84 4.59 5.66 4.86 5.44 5.12 5.21 5.38 4.96 5.64 4.74 5.87 4.47 6.08 4.19 6.31 3.91 6.53 3.63 6.74 3.35 6.9 3.03 7.06 2.69 7.23 2.37 7.43 2.04 7.58 1.7 7.71 1.34 7.83 0.96 7.98 0.59 8.12 0.2 0 96.1 -12.81 -0.31 -12.69 -0.93 -12.52 -1.54 -12.34 -2.14 -12.09 -2.7 -11.89 -3.26 -11.67 -3.82 -11.41 -4.36 -11.11 -4.87 -10.8 -5.36 -10.51 -5.85 -10.2 -6.34 -9.86 -6.79 -9.5 -7.23 -9.12 -7.65 -8.75 -8.08 -8.35 -8.48 -7.93 -8.86 -7.49 -9.23 -7.06 -9.6 -6.58 -9.96 -6.1 -10.27 -5.6 -10.62 -5.09 -10.9 -4.55 -11.19 -4 -11.44 -3.43 -11.69 -2.86 -11.95 -2.24 -12.16 -1.61 -12.33 -0.99 -12.5 -0.33 -12.65 0 0zm251.46 -245.06l0 96.1 0 0 -8.12 0.2 -7.98 0.59 -7.83 0.96 -7.71 1.34 -7.58 1.7 -7.43 2.04 -7.23 2.37 -7.06 2.69 -6.92 3.04 -6.72 3.33 -6.51 3.63 -6.33 3.92 -6.08 4.19 -5.88 4.48 -5.63 4.72 -5.36 4.96 -5.13 5.22 -4.87 5.44 -4.58 5.64 -4.3 5.84 -3.99 6.04 -3.7 6.23 -3.38 6.38 -3.05 6.54 -2.74 6.71 -2.4 6.86 -2.06 7.01 -1.69 7.11 -1.34 7.23 -0.97 7.41 -0.59 7.51 -0.2 7.63 -96.1 0 0.33 -12.65 0.99 -12.5 1.61 -12.32 2.24 -12.18 2.86 -11.94 3.43 -11.7 4 -11.43 4.54 -11.19 5.1 -10.92 5.61 -10.61 6.09 -10.26 6.58 -9.95 7.06 -9.62 7.49 -9.23 7.92 -8.85 8.33 -8.47 8.76 -8.1 9.13 -7.65 9.49 -7.22 9.86 -6.79 10.18 -6.33 10.53 -5.87 10.82 -5.36 11.1 -4.86 11.41 -4.36 11.67 -3.82 11.89 -3.26 12.09 -2.7 12.34 -2.14 12.52 -1.54 12.69 -0.93 12.81 -0.31 0 0z"/>
  </g>
  <g>
   <path class="fil0" d="M3066.74 482.12l-96.1 0 0 0 -0.2 -7.63 -0.59 -7.51 -0.97 -7.41 -1.34 -7.23 -1.69 -7.11 -2.06 -7.01 -2.4 -6.86 -2.74 -6.71 -3.05 -6.54 -3.38 -6.38 -3.7 -6.23 -3.99 -6.04 -4.3 -5.84 -4.58 -5.64 -4.87 -5.44 -5.13 -5.22 -5.36 -4.96 -5.63 -4.72 -5.88 -4.48 -6.08 -4.19 -6.33 -3.92 -6.51 -3.63 -6.72 -3.33 -6.92 -3.04 -7.06 -2.69 -7.23 -2.37 -7.43 -2.04 -7.58 -1.7 -7.71 -1.34 -7.83 -0.96 -7.98 -0.59 -8.12 -0.2 0 -96.1 12.81 0.31 12.69 0.93 12.52 1.54 12.34 2.14 12.09 2.7 11.89 3.26 11.67 3.82 11.41 4.36 11.1 4.86 10.82 5.36 10.53 5.87 10.18 6.33 9.86 6.79 9.49 7.22 9.13 7.65 8.76 8.1 8.33 8.47 7.92 8.85 7.49 9.23 7.06 9.62 6.58 9.95 6.09 10.26 5.61 10.61 5.1 10.92 4.54 11.19 4 11.43 3.43 11.7 2.86 11.94 2.24 12.18 1.61 12.32 0.99 12.5 0.33 12.65 0 0zm-251.46 245.06l0 -96.1 0 0 8.12 -0.2 7.98 -0.59 7.83 -0.96 7.71 -1.34 7.58 -1.7 7.43 -2.04 7.23 -2.37 7.06 -2.69 6.9 -3.03 6.74 -3.35 6.53 -3.63 6.31 -3.91 6.08 -4.19 5.87 -4.47 5.64 -4.74 5.38 -4.96 5.12 -5.21 4.86 -5.44 4.59 -5.66 4.3 -5.84 3.99 -6.03 3.7 -6.22 3.39 -6.38 3.06 -6.55 2.73 -6.7 2.4 -6.87 2.06 -7.01 1.69 -7.12 1.34 -7.23 0.97 -7.4 0.59 -7.51 0.2 -7.63 96.1 0 -0.33 12.65 -0.99 12.5 -1.61 12.33 -2.24 12.16 -2.86 11.95 -3.43 11.69 -4 11.44 -4.55 11.19 -5.09 10.9 -5.6 10.62 -6.1 10.27 -6.58 9.96 -7.06 9.6 -7.49 9.23 -7.93 8.86 -8.35 8.48 -8.75 8.08 -9.12 7.65 -9.5 7.23 -9.86 6.79 -10.2 6.34 -10.51 5.85 -10.8 5.36 -11.11 4.87 -11.41 4.36 -11.67 3.82 -11.89 3.26 -12.09 2.7 -12.34 2.14 -12.52 1.54 -12.69 0.93 -12.81 0.31 0 0zm-251.46 -245.06l96.1 0 0 0 0.2 7.63 0.59 7.51 0.97 7.4 1.34 7.23 1.69 7.12 2.06 7.01 2.4 6.87 2.73 6.7 3.06 6.55 3.39 6.38 3.7 6.22 3.99 6.03 4.3 5.84 4.59 5.66 4.86 5.44 5.12 5.21 5.38 4.96 5.64 4.74 5.87 4.47 6.08 4.19 6.31 3.91 6.53 3.63 6.74 3.35 6.9 3.03 7.06 2.69 7.23 2.37 7.43 2.04 7.58 1.7 7.71 1.34 7.83 0.96 7.98 0.59 8.12 0.2 0 96.1 -12.81 -0.31 -12.69 -0.93 -12.52 -1.54 -12.34 -2.14 -12.09 -2.7 -11.89 -3.26 -11.67 -3.82 -11.41 -4.36 -11.11 -4.87 -10.8 -5.36 -10.51 -5.85 -10.2 -6.34 -9.86 -6.79 -9.5 -7.23 -9.12 -7.65 -8.75 -8.08 -8.35 -8.48 -7.93 -8.86 -7.49 -9.23 -7.06 -9.6 -6.58 -9.96 -6.1 -10.27 -5.6 -10.62 -5.09 -10.9 -4.55 -11.19 -4 -11.44 -3.43 -11.69 -2.86 -11.95 -2.24 -12.16 -1.61 -12.33 -0.99 -12.5 -0.33 -12.65 0 0zm251.46 -245.06l0 96.1 0 0 -8.12 0.2 -7.98 0.59 -7.83 0.96 -7.71 1.34 -7.58 1.7 -7.43 2.04 -7.23 2.37 -7.06 2.69 -6.92 3.04 -6.72 3.33 -6.51 3.63 -6.33 3.92 -6.08 4.19 -5.88 4.48 -5.63 4.72 -5.36 4.96 -5.13 5.22 -4.87 5.44 -4.58 5.64 -4.3 5.84 -3.99 6.04 -3.7 6.23 -3.38 6.38 -3.05 6.54 -2.74 6.71 -2.4 6.86 -2.06 7.01 -1.69 7.11 -1.34 7.23 -0.97 7.41 -0.59 7.51 -0.2 7.63 -96.1 0 0.33 -12.65 0.99 -12.5 1.61 -12.32 2.24 -12.18 2.86 -11.94 3.43 -11.7 4 -11.43 4.54 -11.19 5.1 -10.92 5.61 -10.61 6.09 -10.26 6.58 -9.95 7.06 -9.62 7.49 -9.23 7.92 -8.85 8.33 -8.47 8.76 -8.1 9.13 -7.65 9.49 -7.22 9.86 -6.79 10.18 -6.33 10.53 -5.87 10.82 -5.36 11.1 -4.86 11.41 -4.36 11.67 -3.82 11.89 -3.26 12.09 -2.7 12.34 -2.14 12.52 -1.54 12.69 -0.93 12.81 -0.31 0 0z"/>
  </g>
  <g>
   <path class="fil0" d="M2169.77 3128.08l-96.1 0 0 0 -0.2 -7.63 -0.59 -7.51 -0.97 -7.4 -1.34 -7.23 -1.69 -7.12 -2.06 -7.01 -2.4 -6.87 -2.73 -6.7 -3.06 -6.55 -3.39 -6.38 -3.7 -6.22 -3.99 -6.03 -4.3 -5.84 -4.59 -5.66 -4.86 -5.44 -5.12 -5.21 -5.38 -4.96 -5.64 -4.74 -5.87 -4.47 -6.08 -4.19 -6.31 -3.91 -6.53 -3.63 -6.74 -3.35 -6.9 -3.03 -7.06 -2.69 -7.23 -2.37 -7.43 -2.04 -7.58 -1.7 -7.71 -1.34 -7.83 -0.96 -7.98 -0.59 -8.12 -0.2 0 -96.1 12.81 0.31 12.69 0.93 12.52 1.54 12.34 2.14 12.09 2.7 11.89 3.26 11.67 3.82 11.41 4.36 11.11 4.87 10.8 5.36 10.51 5.85 10.2 6.34 9.86 6.79 9.5 7.23 9.12 7.65 8.75 8.08 8.35 8.48 7.93 8.86 7.49 9.23 7.06 9.6 6.58 9.96 6.1 10.27 5.6 10.62 5.09 10.9 4.55 11.19 4 11.44 3.43 11.69 2.86 11.95 2.24 12.16 1.61 12.33 0.99 12.5 0.33 12.65 0 0zm-251.46 245.06l0 -96.1 0 0 8.12 -0.2 7.98 -0.59 7.83 -0.96 7.71 -1.34 7.58 -1.7 7.43 -2.04 7.23 -2.37 7.06 -2.69 6.9 -3.03 6.74 -3.35 6.53 -3.63 6.31 -3.91 6.08 -4.19 5.87 -4.47 5.64 -4.74 5.38 -4.96 5.12 -5.21 4.86 -5.44 4.59 -5.66 4.3 -5.84 3.99 -6.03 3.7 -6.22 3.39 -6.38 3.06 -6.55 2.73 -6.7 2.4 -6.87 2.06 -7.01 1.69 -7.12 1.34 -7.23 0.97 -7.4 0.59 -7.51 0.2 -7.63 96.1 0 -0.33 12.65 -0.99 12.5 -1.61 12.33 -2.24 12.16 -2.86 11.95 -3.43 11.69 -4 11.44 -4.55 11.19 -5.09 10.9 -5.6 10.62 -6.1 10.27 -6.58 9.96 -7.06 9.6 -7.49 9.23 -7.93 8.86 -8.35 8.48 -8.75 8.08 -9.12 7.65 -9.5 7.23 -9.86 6.79 -10.2 6.34 -10.51 5.85 -10.8 5.36 -11.11 4.87 -11.41 4.36 -11.67 3.82 -11.89 3.26 -12.09 2.7 -12.34 2.14 -12.52 1.54 -12.69 0.93 -12.81 0.31 0 0zm-251.46 -245.06l96.1 0 0 0 0.2 7.63 0.59 7.51 0.97 7.4 1.34 7.23 1.69 7.12 2.06 7.01 2.4 6.87 2.73 6.7 3.06 6.55 3.39 6.38 3.7 6.22 3.99 6.03 4.3 5.84 4.59 5.66 4.86 5.44 5.12 5.21 5.38 4.96 5.64 4.74 5.87 4.47 6.08 4.19 6.31 3.91 6.53 3.63 6.74 3.35 6.9 3.03 7.06 2.69 7.23 2.37 7.43 2.04 7.58 1.7 7.71 1.34 7.83 0.96 7.98 0.59 8.12 0.2 0 96.1 -12.81 -0.31 -12.69 -0.93 -12.52 -1.54 -12.34 -2.14 -12.09 -2.7 -11.89 -3.26 -11.67 -3.82 -11.41 -4.36 -11.11 -4.87 -10.8 -5.36 -10.51 -5.85 -10.2 -6.34 -9.86 -6.79 -9.5 -7.23 -9.12 -7.65 -8.75 -8.08 -8.35 -8.48 -7.93 -8.86 -7.49 -9.23 -7.06 -9.6 -6.58 -9.96 -6.1 -10.27 -5.6 -10.62 -5.09 -10.9 -4.55 -11.19 -4 -11.44 -3.43 -11.69 -2.86 -11.95 -2.24 -12.16 -1.61 -12.33 -0.99 -12.5 -0.33 -12.65 0 0zm251.46 -245.06l0 96.1 0 0 -8.12 0.2 -7.98 0.59 -7.83 0.96 -7.71 1.34 -7.58 1.7 -7.43 2.04 -7.23 2.37 -7.06 2.69 -6.9 3.03 -6.74 3.35 -6.53 3.63 -6.31 3.91 -6.08 4.19 -5.87 4.47 -5.64 4.74 -5.38 4.96 -5.12 5.21 -4.86 5.44 -4.59 5.66 -4.3 5.84 -3.99 6.03 -3.7 6.22 -3.39 6.38 -3.06 6.55 -2.73 6.7 -2.4 6.87 -2.06 7.01 -1.69 7.12 -1.34 7.23 -0.97 7.4 -0.59 7.51 -0.2 7.63 -96.1 0 0.33 -12.65 0.99 -12.5 1.61 -12.33 2.24 -12.16 2.86 -11.95 3.43 -11.69 4 -11.44 4.55 -11.19 5.09 -10.9 5.6 -10.62 6.1 -10.27 6.58 -9.96 7.06 -9.6 7.49 -9.23 7.93 -8.86 8.35 -8.48 8.75 -8.08 9.12 -7.65 9.5 -7.23 9.86 -6.79 10.2 -6.34 10.51 -5.85 10.8 -5.36 11.11 -4.87 11.41 -4.36 11.67 -3.82 11.89 -3.26 12.09 -2.7 12.34 -2.14 12.52 -1.54 12.69 -0.93 12.81 -0.31 0 0z"/>
  </g>
  <g>
   <path class="fil0" d="M3521.57 3570.13l-96.1 0 0 0 -0.2 -7.63 -0.59 -7.51 -0.97 -7.4 -1.34 -7.23 -1.69 -7.12 -2.06 -7.01 -2.4 -6.87 -2.73 -6.7 -3.06 -6.55 -3.39 -6.38 -3.7 -6.22 -3.99 -6.03 -4.3 -5.84 -4.59 -5.66 -4.86 -5.44 -5.12 -5.21 -5.38 -4.96 -5.64 -4.74 -5.87 -4.47 -6.08 -4.19 -6.31 -3.91 -6.53 -3.63 -6.74 -3.35 -6.9 -3.03 -7.06 -2.69 -7.23 -2.37 -7.43 -2.04 -7.58 -1.7 -7.71 -1.34 -7.83 -0.96 -7.98 -0.59 -8.12 -0.2 0 -96.1 12.81 0.31 12.69 0.93 12.52 1.54 12.34 2.14 12.09 2.7 11.89 3.26 11.67 3.82 11.41 4.36 11.11 4.87 10.8 5.36 10.51 5.85 10.2 6.34 9.86 6.79 9.5 7.23 9.12 7.65 8.75 8.08 8.35 8.48 7.93 8.86 7.49 9.23 7.06 9.6 6.58 9.96 6.1 10.27 5.6 10.62 5.09 10.9 4.55 11.19 4 11.44 3.43 11.69 2.86 11.95 2.24 12.16 1.61 12.33 0.99 12.5 0.33 12.65 0 0zm-251.46 245.06l0 -96.1 0 0 8.12 -0.2 7.98 -0.59 7.83 -0.96 7.71 -1.34 7.58 -1.7 7.43 -2.04 7.23 -2.37 7.06 -2.69 6.9 -3.03 6.74 -3.35 6.53 -3.63 6.31 -3.91 6.08 -4.19 5.87 -4.47 5.64 -4.74 5.38 -4.96 5.12 -5.21 4.86 -5.44 4.59 -5.66 4.3 -5.84 3.99 -6.03 3.7 -6.22 3.39 -6.38 3.06 -6.55 2.73 -6.7 2.4 -6.87 2.06 -7.01 1.69 -7.12 1.34 -7.23 0.97 -7.4 0.59 -7.51 0.2 -7.63 96.1 0 -0.33 12.65 -0.99 12.5 -1.61 12.33 -2.24 12.16 -2.86 11.95 -3.43 11.69 -4 11.44 -4.55 11.19 -5.09 10.9 -5.6 10.62 -6.1 10.27 -6.58 9.96 -7.06 9.6 -7.49 9.23 -7.93 8.86 -8.35 8.48 -8.75 8.08 -9.12 7.65 -9.5 7.23 -9.86 6.79 -10.2 6.34 -10.51 5.85 -10.8 5.36 -11.11 4.87 -11.41 4.36 -11.67 3.82 -11.89 3.26 -12.09 2.7 -12.34 2.14 -12.52 1.54 -12.69 0.93 -12.81 0.31 0 0zm-251.47 -245.06l96.1 0 0 0 0.2 7.63 0.59 7.51 0.97 7.4 1.34 7.23 1.69 7.12 2.06 7.01 2.4 6.87 2.73 6.7 3.06 6.55 3.39 6.38 3.7 6.22 3.99 6.03 4.3 5.84 4.59 5.66 4.86 5.44 5.12 5.21 5.38 4.96 5.64 4.74 5.85 4.46 6.11 4.2 6.31 3.92 6.52 3.62 6.74 3.35 6.89 3.02 7.07 2.7 7.25 2.38 7.41 2.03 7.59 1.7 7.7 1.34 7.84 0.96 7.98 0.59 8.12 0.2 0 96.1 -12.81 -0.31 -12.69 -0.93 -12.53 -1.54 -12.33 -2.14 -12.1 -2.7 -11.89 -3.27 -11.65 -3.81 -11.42 -4.35 -11.12 -4.88 -10.8 -5.36 -10.52 -5.86 -10.18 -6.33 -9.85 -6.78 -9.52 -7.24 -9.12 -7.65 -8.75 -8.08 -8.35 -8.48 -7.93 -8.86 -7.49 -9.23 -7.06 -9.6 -6.58 -9.96 -6.1 -10.27 -5.6 -10.62 -5.09 -10.9 -4.55 -11.19 -4 -11.44 -3.43 -11.69 -2.86 -11.95 -2.24 -12.16 -1.61 -12.33 -0.99 -12.5 -0.33 -12.65 0 0zm251.47 -245.06l0 96.1 0 0 -8.12 0.2 -7.98 0.59 -7.84 0.96 -7.7 1.34 -7.59 1.7 -7.41 2.03 -7.25 2.38 -7.07 2.7 -6.89 3.02 -6.74 3.35 -6.52 3.62 -6.31 3.92 -6.11 4.2 -5.85 4.46 -5.64 4.74 -5.38 4.96 -5.12 5.21 -4.86 5.44 -4.59 5.66 -4.3 5.84 -3.99 6.03 -3.7 6.22 -3.39 6.38 -3.06 6.55 -2.73 6.7 -2.4 6.87 -2.06 7.01 -1.69 7.12 -1.34 7.23 -0.97 7.4 -0.59 7.51 -0.2 7.63 -96.1 0 0.33 -12.65 0.99 -12.5 1.61 -12.33 2.24 -12.16 2.86 -11.95 3.43 -11.69 4 -11.44 4.55 -11.19 5.09 -10.9 5.6 -10.62 6.1 -10.27 6.58 -9.96 7.06 -9.6 7.49 -9.23 7.93 -8.86 8.35 -8.48 8.75 -8.08 9.12 -7.65 9.52 -7.24 9.85 -6.78 10.18 -6.33 10.52 -5.86 10.8 -5.36 11.12 -4.88 11.42 -4.35 11.65 -3.81 11.89 -3.27 12.1 -2.7 12.33 -2.14 12.53 -1.54 12.69 -0.93 12.81 -0.31 0 0z"/>
  </g>
  <g>
   <polygon class="fil1" points="3586.46,1304.42 3293.52,1033.1 3358.82,962.6 3651.76,1233.92 "/>
  </g>
  <g>
   <polygon class="fil1" points="3767.64,1205.19 3844.41,976.16 3935.53,1006.71 3858.76,1235.73 "/>
  </g>
  <g>
   <polygon class="fil1" points="3919.62,1365.84 4332.64,1217.7 4365.08,1308.16 3952.06,1456.3 "/>
  </g>
  <g>
   <polygon class="fil1" points="3545.76,2223.23 3649.99,1545.63 3744.98,1560.24 3640.76,2237.84 "/>
  </g>
  <g>
   <polygon class="fil1" points="3361.04,2253.61 3262.86,1988.34 3352.98,1954.98 3451.16,2220.25 "/>
  </g>
  <g>
   <polygon class="fil1" points="3720.03,2289.42 3965.92,2163.15 4009.82,2248.65 3763.92,2374.91 "/>
  </g>
  <g>
   <polygon class="fil1" points="2970.55,2651.61 3215.84,2544.15 3254.39,2632.19 3009.1,2739.65 "/>
  </g>
  <g>
   <polygon class="fil1" points="3364.8,2899.78 3376.5,2762.55 3472.25,2770.72 3460.54,2907.94 "/>
  </g>
  <g>
   <polygon class="fil1" points="4599.44,2123.83 4408.07,2123.53 4408.22,2027.42 4599.59,2027.73 "/>
  </g>
  <g>
   <polygon class="fil1" points="2685.83,1789.1 3115.13,1792.27 3114.42,1888.37 2685.12,1885.2 "/>
  </g>
  <g>
   <path class="fil1" d="M3525.2 910.76l-15.31 -94.88 5.71 -0.57 71.94 -1.22 71.24 2.15 70.41 5.52 69.41 8.83 68.3 12.16 67.01 15.43 65.6 18.7 64.02 21.94 62.32 25.16 60.45 28.35 58.43 31.55 56.26 34.69 53.95 37.81 51.46 40.93 48.81 44 46.01 47.04 43.05 50.04 39.91 53.02 36.61 55.94 33.17 58.81 29.55 61.64 25.78 64.4 21.87 67.1 17.81 69.76 13.62 72.35 9.29 74.88 4.82 77.38 0.24 79.8 -4.48 82.2 -9.33 84.54 -14.28 86.86 -19.38 89.12 -93.37 -22.72 18.36 -84.46 13.47 -81.91 8.75 -79.36 4.19 -76.79 -0.22 -74.19 -4.47 -71.59 -8.56 -68.99 -12.49 -66.37 -16.29 -63.74 -19.92 -61.12 -23.43 -58.52 -26.79 -55.88 -30.04 -53.26 -33.15 -50.64 -36.13 -47.99 -39 -45.34 -41.74 -42.68 -44.36 -39.99 -46.88 -37.27 -49.25 -34.52 -51.5 -31.75 -53.62 -28.93 -55.62 -26.09 -57.48 -23.21 -59.2 -20.28 -60.8 -17.33 -62.25 -14.34 -63.58 -11.31 -64.74 -8.25 -65.79 -5.14 -66.67 -2.02 -67.43 1.15 5.71 -0.57zm-15.31 -94.88l2.84 -0.46 2.87 -0.11 -5.71 0.57zm-876.53 1412.92l-91.19 30.34 -1.85 -7.56 -10.13 -71.14 -7.37 -69.85 -4.63 -68.51 -1.9 -67.16 0.83 -65.76 3.55 -64.32 6.25 -62.86 8.94 -61.38 11.64 -59.81 14.31 -58.23 16.98 -56.62 19.63 -54.92 22.29 -53.2 24.9 -51.45 27.51 -49.61 30.1 -47.74 32.65 -45.82 35.2 -43.84 37.68 -41.8 40.15 -39.74 42.57 -37.62 44.98 -35.47 47.33 -33.26 49.63 -31.03 51.92 -28.77 54.16 -26.48 56.37 -24.16 58.55 -21.82 60.71 -19.46 62.83 -17.05 64.94 -14.63 66.99 -12.21 15.31 94.88 -63.15 11.49 -60.95 13.75 -58.73 15.94 -56.51 18.1 -54.29 20.22 -52.05 22.31 -49.8 24.34 -47.54 26.35 -45.29 28.32 -43.04 30.25 -40.78 32.16 -38.53 34.03 -36.26 35.9 -34.01 37.74 -31.75 39.55 -29.47 41.35 -27.2 43.15 -24.92 44.93 -22.61 46.69 -20.27 48.45 -17.94 50.17 -15.57 51.9 -13.16 53.6 -10.76 55.28 -8.3 56.94 -5.82 58.57 -3.32 60.18 -0.77 61.75 1.79 63.3 4.38 64.83 7 66.31 9.66 67.77 -1.85 -7.56zm-91.19 30.34l-1.23 -3.71 -0.62 -3.85 1.85 7.56zm2042.4 170.44l81.04 51.66 -55.18 80.76 -58.72 75 -61.98 69.22 -64.94 63.45 -67.66 57.69 -70.07 51.91 -72.22 46.15 -74.09 40.39 -75.66 34.65 -76.95 28.92 -77.96 23.21 -78.7 17.5 -79.13 11.81 -79.31 6.15 -79.17 0.51 -78.79 -5.12 -78.08 -10.73 -77.12 -16.31 -75.87 -21.88 -74.32 -27.4 -72.5 -32.92 -70.38 -38.39 -67.98 -43.85 -65.3 -49.25 -62.31 -54.64 -59.04 -59.96 -55.5 -65.25 -51.66 -70.49 -47.55 -75.67 -43.18 -80.79 -38.53 -85.87 -33.62 -90.89 91.19 -30.34 31.4 84.91 35.84 79.89 40.02 74.89 43.94 69.89 47.58 64.92 50.97 59.93 54.12 54.95 57 49.98 59.65 45 62.05 40.01 64.2 35.03 66.11 30.01 67.76 24.99 69.17 19.94 70.35 14.88 71.26 9.79 71.93 4.67 72.34 -0.45 72.5 -5.62 72.41 -10.81 72.08 -16.03 71.47 -21.27 70.65 -26.55 69.57 -31.85 68.2 -37.19 66.61 -42.58 64.77 -47.98 62.67 -53.44 60.33 -58.92 57.71 -64.46 54.85 -70.05 51.72 -75.7z"/>
  </g>
  <g>
   <path class="fil2" d="M4993 1540.51l-93.68 21.48 1.95 6.38 -32.89 -79.99 -36.21 -76.46 -39.37 -72.93 -42.42 -69.38 -45.29 -65.82 -48.01 -62.21 -50.6 -58.61 -53.04 -54.97 -55.34 -51.31 -57.5 -47.65 -59.52 -43.94 -61.38 -40.21 -63.13 -36.46 -64.71 -32.69 -66.17 -28.87 -67.48 -25.04 -68.64 -21.18 -69.68 -17.28 -70.56 -13.36 -71.31 -9.4 -71.92 -5.43 -72.39 -1.4 -72.72 2.64 -72.9 6.72 -72.94 10.84 -72.86 14.99 -72.61 19.17 -72.24 23.4 -71.74 27.66 -71.07 31.94 -70.27 36.29 -69.35 40.65 -50.8 -81.58 73.77 -43.25 74.88 -38.66 75.83 -34.09 76.63 -29.54 77.26 -25.03 77.75 -20.53 78.07 -16.06 78.21 -11.61 78.23 -7.21 78.06 -2.85 77.75 1.51 77.28 5.82 76.66 10.12 75.85 14.36 74.91 18.58 73.8 22.76 72.54 26.92 71.12 31.03 69.53 35.11 67.8 39.16 65.9 43.16 63.85 47.14 61.64 51.07 59.27 54.96 56.75 58.81 54.06 62.62 51.23 66.39 48.24 70.11 45.11 73.8 41.82 77.43 38.36 81.03 34.77 84.56 1.95 6.38zm-1.95 -6.38l1.21 3.17 0.73 3.22 -1.95 -6.38zm-465.25 1491.2l-56.23 -77.93 -3.93 3.16 39.83 -36.68 37.98 -37.12 36.16 -37.56 34.35 -37.99 32.54 -38.39 30.76 -38.84 29 -39.24 27.26 -39.66 25.52 -40.09 23.8 -40.49 22.11 -40.92 20.42 -41.34 18.76 -41.76 17.1 -42.19 15.46 -42.62 13.84 -43.06 12.23 -43.49 10.63 -43.93 9.05 -44.38 7.46 -44.83 5.9 -45.3 4.33 -45.75 2.78 -46.21 1.23 -46.67 -0.3 -47.15 -1.82 -47.6 -3.36 -48.06 -4.85 -48.53 -6.38 -48.99 -7.88 -49.45 -9.37 -49.91 -10.86 -50.36 93.68 -21.48 11.39 52.85 9.85 52.47 8.29 52.12 6.74 51.76 5.15 51.39 3.56 51.01 1.94 50.65 0.32 50.25 -1.33 49.87 -2.97 49.46 -4.65 49.08 -6.33 48.64 -8.02 48.22 -9.74 47.81 -11.45 47.35 -13.19 46.89 -14.93 46.44 -16.68 45.96 -18.44 45.48 -20.21 44.99 -21.98 44.5 -23.76 43.99 -25.55 43.46 -27.34 42.94 -29.14 42.41 -30.94 41.87 -32.75 41.34 -34.58 40.8 -36.38 40.23 -38.21 39.7 -40.05 39.14 -41.88 38.58 -3.93 3.16zm3.93 -3.16l-1.86 1.66 -2.07 1.5 3.93 -3.16zm-1503.95 188.44l47.94 -83.29 -4.95 -2.47 47.99 19.84 47.66 18.03 47.32 16.23 46.97 14.44 46.65 12.68 46.33 10.95 46.01 9.22 45.7 7.53 45.41 5.85 45.12 4.19 44.83 2.55 44.56 0.93 44.29 -0.68 44.04 -2.27 43.8 -3.85 43.56 -5.39 43.33 -6.95 43.12 -8.46 42.91 -9.99 42.7 -11.49 42.51 -13 42.32 -14.46 42.14 -15.93 41.95 -17.39 41.79 -18.83 41.61 -20.26 41.44 -21.68 41.28 -23.09 41.11 -24.49 40.94 -25.86 40.78 -27.23 40.63 -28.6 56.23 77.93 -42.51 29.91 -42.78 28.57 -43.05 27.19 -43.31 25.78 -43.57 24.39 -43.87 22.94 -44.15 21.51 -44.42 20.02 -44.71 18.53 -44.99 17 -45.28 15.48 -45.56 13.92 -45.86 12.34 -46.12 10.74 -46.41 9.12 -46.7 7.48 -46.96 5.82 -47.24 4.15 -47.5 2.44 -47.77 0.73 -48.02 -1.01 -48.28 -2.74 -48.52 -4.51 -48.77 -6.28 -49.01 -8.08 -49.25 -9.87 -49.49 -11.69 -49.73 -13.52 -49.96 -15.36 -50.19 -17.21 -50.42 -19.08 -50.66 -20.95 -4.95 -2.47zm4.95 2.47l-2.59 -1.12 -2.36 -1.35 4.95 2.47zm-781.85 -1292.98l96.1 -0.92 -0.01 -0.2 1.18 45.63 2.32 45.19 3.48 44.73 4.65 44.25 5.86 43.78 7.08 43.3 8.33 42.8 9.61 42.31 10.92 41.81 12.23 41.3 13.58 40.79 14.96 40.28 16.36 39.76 17.79 39.25 19.25 38.72 20.74 38.19 22.26 37.68 23.8 37.14 25.39 36.61 27.01 36.09 28.64 35.53 30.33 34.99 32.05 34.44 33.79 33.88 35.56 33.31 37.38 32.75 39.22 32.15 41.11 31.57 43.03 30.97 44.96 30.34 46.93 29.71 48.95 29.07 -47.94 83.29 -51.25 -30.45 -49.28 -31.2 -47.33 -31.94 -45.4 -32.68 -43.5 -33.39 -41.63 -34.12 -39.77 -34.84 -37.93 -35.53 -36.12 -36.23 -34.32 -36.89 -32.56 -37.57 -30.81 -38.21 -29.07 -38.85 -27.38 -39.47 -25.7 -40.1 -24.03 -40.67 -22.4 -41.25 -20.79 -41.81 -19.2 -42.35 -17.64 -42.88 -16.11 -43.39 -14.61 -43.88 -13.14 -44.35 -11.69 -44.82 -10.29 -45.26 -8.9 -45.7 -7.53 -46.1 -6.23 -46.51 -4.93 -46.92 -3.67 -47.27 -2.45 -47.67 -1.24 -48.02 -0.01 -0.2zm0.01 0.2l-0.01 -0.2 -0.02 -1.65 0.03 1.85zm148.56 -623.01l87.28 40.23 -8.68 19.12 -8.42 19.05 -8.14 19 -7.86 18.94 -7.59 18.88 -7.32 18.82 -7.03 18.75 -6.76 18.71 -6.48 18.65 -6.21 18.57 -5.92 18.52 -5.65 18.45 -5.36 18.4 -5.1 18.33 -4.8 18.27 -4.53 18.21 -4.24 18.16 -3.98 18.09 -3.68 18.02 -3.39 17.97 -3.12 17.89 -2.83 17.84 -2.55 17.78 -2.27 17.71 -1.98 17.67 -1.7 17.58 -1.4 17.53 -1.13 17.46 -0.84 17.42 -0.55 17.34 -0.26 17.28 0.02 17.24 -96.1 0.92 -0.02 -18.83 0.28 -18.88 0.61 -18.92 0.91 -18.97 1.22 -19 1.53 -19.07 1.85 -19.09 2.13 -19.14 2.45 -19.17 2.76 -19.21 3.06 -19.27 3.37 -19.3 3.66 -19.32 3.96 -19.39 4.26 -19.41 4.54 -19.46 4.85 -19.49 5.13 -19.53 5.44 -19.57 5.72 -19.61 6.01 -19.65 6.3 -19.67 6.58 -19.72 6.87 -19.76 7.16 -19.78 7.43 -19.84 7.73 -19.87 8 -19.9 8.27 -19.93 8.56 -19.98 8.83 -20.01 9.11 -20.06z"/>
  </g>
  <g>
   <polygon class="fil0" points="2799.42,834.05 2857.98,910.24 2845.99,919.55 2834.11,928.95 2822.34,938.46 2810.67,948.05 2799.12,957.74 2787.67,967.55 2776.35,977.45 2765.15,987.46 2754.04,997.58 2743.05,1007.81 2732.19,1018.13 2721.45,1028.57 2710.82,1039.13 2700.31,1049.79 2689.93,1060.58 2679.67,1071.46 2669.55,1082.46 2659.54,1093.59 2649.66,1104.85 2639.89,1116.23 2630.27,1127.71 2620.78,1139.32 2611.41,1151.08 2602.17,1162.93 2593.07,1174.94 2584.11,1187.06 2575.27,1199.32 2566.57,1211.71 2558.02,1224.23 2549.6,1236.91 2541.31,1249.71 2533.18,1262.65 2451.5,1212 2460.3,1198.03 2469.24,1184.19 2478.32,1170.54 2487.56,1157 2496.96,1143.62 2506.47,1130.4 2516.15,1117.32 2525.97,1104.39 2535.92,1091.59 2546.01,1078.95 2556.23,1066.44 2566.6,1054.07 2577.08,1041.85 2587.7,1029.76 2598.46,1017.8 2609.34,1005.97 2620.35,994.28 2631.48,982.73 2642.74,971.31 2654.11,960.02 2665.6,948.85 2677.21,937.81 2688.94,926.9 2700.76,916.11 2712.73,905.42 2724.8,894.88 2736.97,884.45 2749.25,874.14 2761.63,863.95 2774.12,853.88 2786.71,843.91 "/>
  </g>
  <g>
   <path class="fil0" d="M5714.18 3598.11l-934.46 -958.04 68.79 -67.1 934.46 958.04 9.07 13.09 -77.87 54.01zm68.79 -67.1l5.63 5.77 3.44 7.32 -9.07 -13.09zm-484.89 509.53l68.1 -67.82 -16.78 -10.94 21.62 7.29 21.23 5.19 20.87 3.21 20.53 1.34 20.16 -0.42 19.83 -2.12 19.48 -3.74 19.12 -5.29 18.69 -6.79 18.23 -8.23 17.73 -9.61 17.16 -10.91 16.49 -12.13 15.77 -13.28 14.98 -14.33 14.1 -15.31 13.17 -16.16 12.14 -16.93 11.08 -17.6 9.93 -18.13 8.73 -18.59 7.48 -18.92 6.17 -19.14 4.81 -19.25 3.42 -19.25 2 -19.17 0.56 -18.97 -0.91 -18.69 -2.4 -18.35 -3.92 -17.93 -5.47 -17.5 -7.08 -17.05 86.94 -40.92 10.45 25.12 8.05 25.7 5.71 26.06 3.45 26.28 1.29 26.37 -0.77 26.32 -2.74 26.17 -4.61 25.91 -6.39 25.59 -8.11 25.13 -9.71 24.6 -11.27 24.01 -12.77 23.32 -14.18 22.53 -15.56 21.68 -16.88 20.72 -18.13 19.67 -19.36 18.52 -20.53 17.28 -21.67 15.93 -22.73 14.44 -23.74 12.86 -24.74 11.16 -25.65 9.31 -26.47 7.33 -27.21 5.21 -27.88 2.98 -28.44 0.59 -28.84 -1.9 -29.14 -4.49 -29.3 -7.15 -29.31 -9.88 -16.78 -10.94zm16.78 10.94l-9.55 -3.68 -7.23 -7.26 16.78 10.94zm-891.72 -1025.74l943.04 946.99 -68.1 67.82 -943.04 -946.99 68.1 -67.82z"/>
  </g>
  <g>
   <polygon class="fil0" points="4952.02,3500.34 5256.34,3192.81 5324.64,3260.4 5020.32,3567.93 "/>
  </g>
  <g>
   <polygon class="fil0" points="5113.3,3678.62 5432.04,3347.07 5501.32,3413.67 5182.59,3745.22 "/>
  </g>
  <g>
   <polygon class="fil1" points="1240.32,1575.27 952.02,1578.46 950.95,1482.36 1239.25,1479.17 "/>
  </g>
  <g>
   <polygon class="fil1" points="2117.72,1575.27 1406.58,1578.47 1406.15,1482.37 2117.29,1479.17 "/>
  </g>
  <g>
   <polygon class="fil1" points="2040.55,1879.6 -0,1876.39 0.15,1780.29 2040.7,1783.49 "/>
  </g>
  <g>
   <polygon class="fil1" points="7464.08,2110.24 5228.13,2116.65 5227.84,2020.55 7463.79,2014.14 "/>
  </g>
  <g>
   <polygon class="fil1" points="5733.84,2411.36 5166.84,2408.15 5167.39,2312.05 5734.39,2315.26 "/>
  </g>
  <g>
   <polygon class="fil1" points="6425.76,2411.36 5887.59,2408.15 5888.15,2312.05 6426.32,2315.26 "/>
  </g>
  <g>
   <polygon class="fil0" points="3992.13,645.46 4091.52,411.9 4179.95,449.53 4080.56,683.09 "/>
  </g>
  <g>
   <polygon class="fil0" points="4730.16,1142.22 5244.23,893.11 5286.13,979.58 4772.07,1228.69 "/>
  </g>
  <g>
   <polygon class="fil0" points="2669.57,2902.58 2136.11,3130.77 2098.31,3042.42 2631.77,2814.23 "/>
  </g>
 </g>
</svg>
