<?xml version="1.0" encoding="UTF-8"?>
<svg width="200px" height="233px" viewBox="0 0 200 233" version="1.1" xmlns="http://www.w3.org/2000/svg" xmlns:xlink="http://www.w3.org/1999/xlink">
    <!-- Generator: sketchtool 50.2 (55047) - http://www.bohemiancoding.com/sketch -->
    <title>E2094A67-4320-4A74-AE1E-6E85495ABED2</title>
    <desc>Created with sketchtool.</desc>
    <defs>
        <rect id="path-1" x="0" y="0" width="1000" height="791" rx="4"></rect>
        <filter x="-3.0%" y="-3.8%" width="106.0%" height="107.6%" filterUnits="objectBoundingBox" id="filter-3">
            <feOffset dx="0" dy="0" in="SourceAlpha" result="shadowOffsetOuter1"></feOffset>
            <feGaussianBlur stdDeviation="10" in="shadowOffsetOuter1" result="shadowBlurOuter1"></feGaussianBlur>
            <feColorMatrix values="0 0 0 0 0   0 0 0 0 0   0 0 0 0 0  0 0 0 0.1 0" type="matrix" in="shadowBlurOuter1"></feColorMatrix>
        </filter>
        <polygon id="path-4" points="0.0693900881 0.375806852 20.9201448 0.375806852 20.9201448 7.48387097 0.0693900881 7.48387097"></polygon>
        <polygon id="path-6" points="0.576549705 0.108202676 90.7891156 0.108202676 90.7891156 84.1523699 0.576549705 84.1523699"></polygon>
    </defs>
    <g id="Homepage-/-How-it-works" stroke="none" stroke-width="1" fill="none" fill-rule="evenodd">
        <g id="Homepage---Desktop-02" transform="translate(-958.000000, -3275.000000)">
            <polygon id="Rectangle-3" fill="#FFCABC" points="0 3208 1680 3208 0 3428"></polygon>
            <g id="Group-18" transform="translate(340.000000, 3054.000000)">
                <mask id="mask-2" fill="white">
                    <use xlink:href="#path-1"></use>
                </mask>
                <g id="Rectangle-Copy-2">
                    <use fill="black" fill-opacity="1" filter="url(#filter-3)" xlink:href="#path-1"></use>
                    <use fill="#FFFFFF" fill-rule="evenodd" xlink:href="#path-1"></use>
                </g>
            </g>
            <g id="Group" transform="translate(958.000000, 3276.000000)">
                <path d="M128.226803,43.600624 L128.226803,57.1171754" id="Stroke-1" stroke="#1D9CD3" stroke-width="2" stroke-linecap="round"></path>
                <polygon id="Fill-2" fill="#FFCABC" points="101.56102 47.8175812 83.3691837 47.8175812 83.3691837 44.1157865 104.318163 44.1157865"></polygon>
                <g id="Group-45" transform="translate(0.000000, 0.423179)">
                    <path d="M115.467075,57.8707331 L115.467075,58.195261 L115.852109,58.195261 C115.724898,58.0904868 115.596327,57.9829912 115.467075,57.8707331" id="Fill-3" fill="#FFCABC"></path>
                    <path d="M119.390612,46.7140504 L118.868163,46.7140504 C117.858639,46.7140504 116.962041,47.1624023 116.338912,47.8611238 C116.387211,49.2027777 116.272925,50.4593877 117.006259,51.8343789 C117.970204,53.4706252 119.879728,56.7846194 120.625986,58.1949889 L122.791973,58.1949889 L122.791973,50.11581 C122.791973,48.236678 121.269524,46.7140504 119.390612,46.7140504" id="Fill-5" fill="#FFCABC"></path>
                    <path d="M139.067959,156.752331 L64.007415,156.752331 C62.8802041,156.752331 61.9665986,155.838618 61.9665986,154.711275 L61.9665986,148.194184 C61.9665986,147.067521 62.8802041,146.153128 64.007415,146.153128 L139.067959,146.153128 C140.19449,146.153128 141.108776,147.067521 141.108776,148.194184 L141.108776,154.711275 C141.108776,155.838618 140.19449,156.752331 139.067959,156.752331" id="Fill-7" fill="#FFCABC"></path>
                    <path d="M6.80285714,23.1894545 L1.36068027,23.1894545 C0.608979592,23.1894545 0.000136054422,23.7990499 0.000136054422,24.5501584 L0.000136054422,173.024035 C0.000136054422,173.775824 0.608979592,174.384739 1.36068027,174.384739 L98.637551,174.384739 C99.3892517,174.384739 99.9980952,173.775824 99.9980952,173.024035 L99.9980952,167.58122 L6.80285714,167.58122 L6.80285714,23.1894545 Z" id="Fill-9" fill="#E9F5FA"></path>
                    <path d="M106.800884,156.287242 L106.800884,166.22106 C106.800884,166.972169 106.192041,167.581764 105.44034,167.581764 L8.16346939,167.581764 C7.41176871,167.581764 6.80292517,166.972169 6.80292517,166.22106 L6.80292517,17.7465032 C6.80292517,16.9953947 7.41176871,16.3857994 8.16346939,16.3857994 L50.7648299,16.3857994" id="Stroke-11" stroke="#1D9CD3" stroke-width="2" stroke-linecap="round" stroke-linejoin="round"></path>
                    <path d="M19.052449,29.4527742 C17.9510884,29.4527742 17.0578912,30.3664868 17.0578912,31.4938299 L17.0578912,72.7639765 C17.0578912,73.8906393 17.9510884,74.8050323 19.052449,74.8050323 L48.0048299,74.8050323 C49.1061905,74.8050323 49.9993878,73.8906393 49.9993878,72.7639765 L49.9993878,31.4938299 C49.9993878,30.3664868 49.1061905,29.4527742 48.0048299,29.4527742 L19.052449,29.4527742 Z" id="Fill-13" fill="#E9F5FA"></path>
                    <path d="M17.3955782,90.6877795 L17.3955782,97.2048704 C17.3955782,98.3322135 18.2887755,99.2459261 19.3901361,99.2459261 L48.005102,99.2459261 C49.1064626,99.2459261 49.9989796,98.3322135 49.9989796,97.2048704 L49.9989796,90.6877795 C49.9989796,89.5611167 49.1064626,88.6467238 48.005102,88.6467238 L19.3901361,88.6467238 C18.2887755,88.6467238 17.3955782,89.5611167 17.3955782,90.6877795" id="Fill-15" fill="#E9F5FA"></path>
                    <path d="M49.3189116,112.122879 L18.0760544,112.122879 C17.7005442,112.122879 17.3957823,111.818761 17.3957823,111.442527 L17.3957823,107.50397 C17.3957823,107.127735 17.7005442,106.823618 18.0760544,106.823618 L49.3189116,106.823618 C49.6944218,106.823618 49.9991837,107.127735 49.9991837,107.50397 L49.9991837,111.442527 C49.9991837,111.818761 49.6944218,112.122879 49.3189116,112.122879" id="Fill-17" fill="#E9F5FA"></path>
                    <path d="M49.3189116,123.125394 L18.0760544,123.125394 C17.7005442,123.125394 17.3957823,122.820596 17.3957823,122.445042 L17.3957823,118.505804 C17.3957823,118.13025 17.7005442,117.825452 18.0760544,117.825452 L49.3189116,117.825452 C49.6944218,117.825452 49.9991837,118.13025 49.9991837,118.505804 L49.9991837,122.445042 C49.9991837,122.820596 49.6944218,123.125394 49.3189116,123.125394" id="Fill-19" fill="#E9F5FA"></path>
                    <path d="M141.108776,151.453002 L57.1427891,151.453002 C56.3910884,151.453002 55.7822449,150.843406 55.7822449,150.092298 L55.7822449,1.61774076 C55.7822449,0.865951906 56.3910884,0.25703695 57.1427891,0.25703695 L154.41966,0.25703695 C155.171361,0.25703695 155.780204,0.865951906 155.780204,1.61774076 L155.780204,49.4111015" id="Stroke-21" stroke="#1D9CD3" stroke-width="2" stroke-linecap="round" stroke-linejoin="round"></path>
                    <path d="M107.200476,58.6759977 L68.0787075,58.6759977 C66.9514966,58.6759977 66.0378912,57.762285 66.0378912,56.6349419 L66.0378912,15.3647953 C66.0378912,14.2381326 66.9514966,13.3237396 68.0787075,13.3237396 L143.48415,13.3237396 C144.612041,13.3237396 145.524966,14.2381326 145.524966,15.3647953 L145.524966,56.6349419 C145.524966,57.762285 144.612041,58.6759977 143.48415,58.6759977 L121.126327,58.6759977" id="Stroke-23" stroke="#F56F45" stroke-width="2" stroke-linecap="round"></path>
                    <path d="M83.3693878,56.4203589 L83.3693878,43.1773091" id="Stroke-25" stroke="#1D9CD3" stroke-width="2" stroke-linecap="round"></path>
                    <polyline id="Stroke-27" stroke="#F56F45" stroke-width="2" stroke-linecap="round" stroke-linejoin="round" points="104.317959 43.0119836 78.8941497 43.0119836 90.6791837 27.5135672 115.466939 27.5135672"></polyline>
                    <path d="M102.277143,83.1175038 L68.4240816,83.1175038 C67.2968707,83.1175038 66.3832653,82.2031109 66.3832653,81.0764481 L66.3832653,74.5593572 C66.3832653,73.4320141 67.2968707,72.5183015 68.4240816,72.5183015 L102.277143,72.5183015 C103.404354,72.5183015 104.317959,73.4320141 104.317959,74.5593572 L104.317959,81.0764481 C104.317959,82.2031109 103.404354,83.1175038 102.277143,83.1175038" id="Fill-29" fill="#FFCABC"></path>
                    <path d="M115.717483,95.9943883 L67.0637415,95.9943883 C66.687551,95.9943883 66.3834694,95.6895906 66.3834694,95.3140364 L66.3834694,91.3747988 C66.3834694,90.9992446 66.687551,90.6944469 67.0637415,90.6944469 L115.717483,90.6944469 C116.093673,90.6944469 116.397755,90.9992446 116.397755,91.3747988 L116.397755,95.3140364 C116.397755,95.6895906 116.093673,95.9943883 115.717483,95.9943883" id="Fill-31" fill="#FFCABC"></path>
                    <path d="M120.022381,106.996291 L67.0631973,106.996291 C66.6876871,106.996291 66.3829252,106.692174 66.3829252,106.315939 L66.3829252,102.377382 C66.3829252,102.001147 66.6876871,101.69703 67.0631973,101.69703 L120.022381,101.69703 C120.398571,101.69703 120.702653,102.001147 120.702653,102.377382 L120.702653,106.315939 C120.702653,106.692174 120.398571,106.996291 120.022381,106.996291" id="Fill-33" fill="#FFCABC"></path>
                    <path d="M127.608299,117.998874 L67.0634014,117.998874 C66.6878912,117.998874 66.3831293,117.694076 66.3831293,117.318522 L66.3831293,113.379284 C66.3831293,113.00373 66.6878912,112.698933 67.0634014,112.698933 L127.608299,112.698933 C127.98381,112.698933 128.288571,113.00373 128.288571,113.379284 L128.288571,117.318522 C128.288571,117.694076 127.98381,117.998874 127.608299,117.998874" id="Fill-35" fill="#FFCABC"></path>
                    <path d="M111.982653,39.9676809 C112.088776,40.2092059 112.32483,40.3840563 112.588776,40.3806545 C113.088095,40.3752117 113.592177,40.482027 114.07381,40.7017806 C114.489456,40.8909185 115.313265,41.2691941 115.95,42.618332 C116.060204,42.8537337 116.286735,43.0122557 116.545918,43.0122557 L130.830272,43.0122557 L117.968367,27.5131589 L110.716667,36.2515988 C110.545238,36.4577455 110.510544,36.7421326 110.628912,36.9829771 C110.960204,37.6592469 111.387415,38.6056164 111.982653,39.9676809" id="Fill-37" fill="#F56F45"></path>
                    <path d="M113.910544,51.0606147 C113.910544,51.0606147 114.651361,43.9570604 112.943878,43.1773771 C111.907823,42.7045326 111.536395,44.5680164 111.432993,45.5075824 C110.503061,43.4726499 108.254082,38.0121455 107.686054,37.2760047 C107.173129,36.6113009 104.927551,36.8317349 107.821429,43.9284856 C106.273129,46.3968023 106.138435,49.180122 106.998299,51.279688 C107.491497,52.4852716 109.994898,56.7844152 110.253401,56.9279695" id="Stroke-39" stroke="#1D9CD3" stroke-width="2" stroke-linecap="round" stroke-linejoin="round"></path>
                    <path d="M69.8715646,221.415697 L133.443673,221.415697" id="Stroke-41" stroke="#F56F45" stroke-width="2" stroke-linecap="round" stroke-linejoin="round"></path>
                    <path d="M9.91496599,213.747111 L94.6564626,213.747111" id="Stroke-43" stroke="#E9F5FA" stroke-width="2" stroke-linecap="round" stroke-linejoin="round"></path>
                </g>
                <g id="Group-70" transform="translate(106.122449, 37.162182)">
                    <path d="M77.4203401,185.362965 L77.4203401,104.470484 C77.4203401,104.125546 77.162517,103.835036 76.8196599,103.794215 L46.9618367,100.274754 C46.2563946,100.197194 45.6108163,100.674801 45.4781633,101.372162 L39.232585,138.3731 C38.9529932,139.840619 38.9679592,141.34964 39.2754422,142.811716 L48.9917687,189.538965 L52.3455102,190.1091 C53.1754422,190.250613 53.9339456,189.610402 53.9339456,188.767446 L53.9339456,144.161534 L58.8802041,129.757804 C59.1067347,129.096502 60.0638776,129.166578 60.192449,129.853734 L70.5434694,185.326226 L75.7155782,186.679446 C76.5781633,186.905323 77.4203401,186.254226 77.4203401,185.362965" id="Fill-46" fill="#FFCABC"></path>
                    <path d="M52.0821769,190.379268 L50.9127891,148.806365 C50.8053061,144.986189 51.3536054,141.176218 52.5345578,137.541778 L64.1223129,101.868206" id="Stroke-48" stroke="#1D9CD3" stroke-width="2" stroke-linecap="round"></path>
                    <path d="M41.8236054,98.8845232 L35.3467347,136.486212 C34.7882313,139.730811 34.8787075,143.05433 35.6140816,146.26423 L45.7134014,189.439362" id="Stroke-50" stroke="#1D9CD3" stroke-width="2" stroke-linecap="round"></path>
                    <path d="M73.9259184,187.125009 L74.292585,103.23966" id="Stroke-52" stroke="#1D9CD3" stroke-width="2" stroke-linecap="round"></path>
                    <path d="M56.6846259,134.067493 L67.505034,185.147634" id="Stroke-54" stroke="#1D9CD3" stroke-width="2" stroke-linecap="round"></path>
                    <g id="Group-58" transform="translate(31.972789, 187.096774)">
                        <mask id="mask-5" fill="white">
                            <use xlink:href="#path-4"></use>
                        </mask>
                        <g id="Clip-57"></g>
                        <path d="M13.5012925,0.442841056 L1.1822449,4.31676481 C0.719659864,4.46236012 0.36047619,4.82906979 0.224421769,5.29511085 L0.127823129,5.63052434 C-0.141564626,6.55784399 0.554353741,7.48448328 1.51965986,7.48448328 L19.4706803,7.48448328 C20.2938095,7.48448328 20.9516327,6.79936891 20.9189796,5.97682346 L20.7978912,2.94109326 C20.7720408,2.28115191 20.3026531,1.72258299 19.6570748,1.58311085 L14.2434694,0.40882346 C13.9972109,0.35507566 13.7421088,0.367321994 13.5012925,0.442841056" id="Fill-56" fill="#1D9CD3" mask="url(#mask-5)"></path>
                    </g>
                    <path d="M67.7197959,184.371693 L56.1252381,188.017699 C55.6626531,188.163294 55.3034694,188.530004 55.1687755,188.996045 L55.1170748,189.173616 C54.8476871,190.100256 55.5436054,191.026215 56.5089116,191.026215 L73.3061905,191.026215 C74.1293197,191.026215 74.7871429,190.341781 74.7538095,189.519235 L74.644966,186.789663 C74.6191156,186.129722 74.1497279,185.571153 73.5041497,185.431001 L68.4619728,184.337675 C68.2157143,184.284608 67.9606122,184.296174 67.7197959,184.371693" id="Fill-59" fill="#1D9CD3"></path>
                    <path d="M7.78809524,14.3216117 C7.78809524,14.3216117 8.52891156,7.21805748 6.82142857,6.43837419 C5.78537415,5.96552962 5.41394558,7.82901349 5.31054422,8.76857947 C4.38061224,6.73364692 2.13163265,1.27314252 1.56360544,0.53700176 C1.05068027,-0.127702053 -1.19489796,0.0927319648 1.69897959,7.1894827 C0.150680272,9.65779941 0.0159863946,12.4411191 0.87585034,14.540685 C1.36904762,15.7462686 3.87244898,20.0454123 4.13095238,20.1889666" id="Stroke-61" stroke="#1D9CD3" stroke-width="2" stroke-linecap="round" stroke-linejoin="round"></path>
                    <g id="Group-65" transform="translate(2.721088, 15.648094)">
                        <mask id="mask-7" fill="white">
                            <use xlink:href="#path-6"></use>
                        </mask>
                        <g id="Clip-64"></g>
                        <path d="M72.4072789,32.0638968 C69.6991156,29.3894334 67.7038776,28.4253748 60.6637415,28.4253748 C53.6242857,28.4253748 42.6923129,28.4314979 38.5610204,28.4314979 C34.7059184,28.4314979 26.2195238,26.3945243 21.2698639,22.6308176 C16.902517,19.3093396 8.52496599,4.01434839 6.6147619,0.464272141 C6.41,0.0832750733 5.90863946,-0.00925278592 5.57870748,0.271052199 L1.05897959,4.09599062 C0.644693878,4.4456915 0.477346939,5.00766217 0.635170068,5.52677067 C2.04333333,10.1701724 11.2392517,31.4039554 15.2031973,36.5514979 C18.5936735,40.9533748 35.0263265,46.1172457 35.6562585,51.1953924 C36.7814286,60.2753689 38.3004762,76.956237 38.5929932,80.2015155 C38.6222449,80.525363 38.8773469,80.780495 39.2011565,80.8138323 L71.7555782,84.1489173 C72.1569388,84.1890581 72.5059184,83.8740551 72.5059184,83.4712868 L72.4773469,54.1175038 C72.4766667,53.4106182 73.4208844,53.1711343 73.7562585,53.7943367 L77.8569388,61.412237 L73.9372109,68.312366 L73.9372109,77.6855742 L90.1038776,63.1008704 C90.8140816,62.4688235 90.9957143,61.4340082 90.5385714,60.5998968 C87.4514966,54.9611402 74.7426531,34.3696094 72.4072789,32.0638968" id="Fill-63" fill="#F56F45" mask="url(#mask-7)"></path>
                    </g>
                    <path d="M46.4918367,18.2376493 C45.1265306,18.4077372 42.3727891,24.358095 49.5863946,25.9514792 C55.2571429,27.204007 56.7469388,26.2174968 56.7469388,26.2174968 C56.7469388,26.2174968 55.2761905,32.5141537 58.4217687,31.0949396 C61.5673469,29.6757255 63.3129252,29.9737196 61.607483,34.9824704 C59.9027211,39.9919015 61.5891156,41.1138018 61.5891156,41.1138018 C61.5891156,41.1138018 71.6591837,36.4622358 68.6768707,26.237227 C65.6952381,16.0115378 56.1768707,17.0300246 46.4918367,18.2376493" id="Fill-66" fill="#1D9CD3"></path>
                    <path d="M55.6881633,22.3390147 C51.5561905,22.0260528 47.8915646,25.0161994 46.8902041,29.6391906 C45.809932,29.5697947 44.8548299,30.579437 44.7541497,31.9074839 C44.6527891,33.2430147 45.4541497,34.3928094 46.5432653,34.475132 C46.6507483,34.4839765 46.7561905,34.4730909 46.8609524,34.4601642 C47.6922449,38.3579003 50.5942857,41.1289736 54.2453061,41.4051965 C55.8521088,41.5269795 57.3861224,41.2072141 58.7187755,40.5037302" id="Stroke-68" stroke="#1D9CD3" stroke-width="2" stroke-linecap="round" stroke-linejoin="round"></path>
                </g>
            </g>
        </g>
    </g>
</svg>
