<svg xmlns="http://www.w3.org/2000/svg" xmlns:xlink="http://www.w3.org/1999/xlink" viewBox="0 0 207.54 150.1"><defs><style>.a{fill:#fff;}.a,.c,.d,.f,.k{fill-rule:evenodd;}.b,.e,.g,.h,.i,.l{fill:none;stroke-linecap:round;}.b{stroke:#f5f5f5;}.b,.h,.i,.l{stroke-linejoin:round;}.b,.e,.g,.h{stroke-width:2px;}.c{fill:#ffcabc;}.d{fill:#3B9CFF;}.e{stroke:#6b6b6f;}.f{fill:#ffeef1;}.g,.h{stroke:#ffcabc;}.i{stroke:#3B9CFF;}.i,.l{stroke-width:4px;}.j{mask:url(#a);}.k{fill:#00C2FF;}.l{stroke:#3B9CFF;}</style><mask id="a" x="0" y="0" width="8.42" height="14.58" maskUnits="userSpaceOnUse"><g transform="translate(0 -0.9)"><path class="a" d="M0,.9H8.42V15.48H0Z"/></g></mask></defs><title>illustration-house-infront-of-a-spark-line-chart</title><path class="b" d="M16,72.17H198.59M16,40.09H198.59M16,102.36H93.18M16,8H198.59" transform="translate(0 -0.9)"/><path class="c" d="M206.16,112H160.61L138.7,83.7h43.58l24.88,26a1.37,1.37,0,0,1-1,2.31" transform="translate(0 -0.9)"/><path class="d" d="M137.73,79.47l-5.56-5.53a1.31,1.31,0,0,0-1.85,0l-5.57,5.53L96,109.84A1.29,1.29,0,0,0,97,112h9.38a1.32,1.32,0,0,0,1-.41l23-24.66a1.31,1.31,0,0,1,1.86-.06l.06.06,23,24.66a1.34,1.34,0,0,0,1,.41h9.39a1.29,1.29,0,0,0,.95-2.18L137.73,79.47Z" transform="translate(0 -0.9)"/><path class="e" d="M158.39,114.46V150" transform="translate(0 -0.9)"/><path class="f" d="M145.13,140.2H123.49v-18a10.82,10.82,0,0,1,21.64,0v18Z" transform="translate(0 -0.9)"/><path class="g" d="M141.3,140.2H119.66v-18a10.82,10.82,0,0,1,21.64,0v18Z" transform="translate(0 -0.9)"/><path class="f" d="M172.56,150V125.66a1.52,1.52,0,0,1,1.64-1.37h15.57a1.52,1.52,0,0,1,1.64,1.37V150" transform="translate(0 -0.9)"/><path class="h" d="M169.16,150V123.07a1.58,1.58,0,0,1,1.63-1.52h15.44a1.58,1.58,0,0,1,1.63,1.52V150" transform="translate(0 -0.9)"/><path class="g" d="M115.69,140.2h32.65" transform="translate(0 -0.9)"/><path class="c" d="M184.44,135.39a2.08,2.08,0,0,1-2.08,2.07h0a2.08,2.08,0,0,1-2.09-2.07h0a2.09,2.09,0,0,1,4.17,0" transform="translate(0 -0.9)"/><path class="e" d="M158.39,150H198a1.34,1.34,0,0,0,1.38-1.29V114.46" transform="translate(0 -0.9)"/><path class="e" d="M104.33,114.46v34a1.53,1.53,0,0,0,1.53,1.52h54.75" transform="translate(0 -0.9)"/><path class="e" d="M4.21,20.94V133.57A1.83,1.83,0,0,0,6,135.39h98.29" transform="translate(0 -0.9)"/><path class="i" d="M16.62,28.06,68,83.83l52.55-62.89,62.53,49.33" transform="translate(0 -0.9)"/><g class="j"><path class="k" d="M3.4,13.68A3.83,3.83,0,0,1,0,10.49H2.31a2,2,0,0,0,2.13,1.37c1.07,0,1.74-.48,1.74-1.31s-.39-1-1.36-1.26L3,8.84C1.48,8.49.26,7.66.26,5.82A3.27,3.27,0,0,1,3.4,2.58V.9h2V2.66a3.66,3.66,0,0,1,2.93,3H6.09a1.92,1.92,0,0,0-2-1.24c-1,0-1.63.5-1.63,1.26s.41,1,1.2,1.18l1.94.47c1.74.42,2.8,1.44,2.8,3.11a3.28,3.28,0,0,1-3,3.26v1.8h-2Z" transform="translate(0 -0.9)"/></g><path class="l" d="M15.41,92.05,61.49,44.38l47.05,22.83,75.81-39.15" transform="translate(0 -0.9)"/></svg>
