<?xml version="1.0" encoding="UTF-8"?>
<!DOCTYPE svg PUBLIC "-//W3C//DTD SVG 1.1//EN" "http://www.w3.org/Graphics/SVG/1.1/DTD/svg11.dtd">
<!-- Creator: CorelDRAW 2018 (64-Bit Evaluation Version) -->
<svg xmlns="http://www.w3.org/2000/svg" xml:space="preserve" width="80.0895mm" height="80.2218mm" version="1.1" style="shape-rendering:geometricPrecision; text-rendering:geometricPrecision; image-rendering:optimizeQuality; fill-rule:evenodd; clip-rule:evenodd"
viewBox="0 0 8022.2 8035.45"
 xmlns:xlink="http://www.w3.org/1999/xlink">
 <defs>
  <style type="text/css">
   <![CDATA[
    .str0 {stroke:#3B9CFF;stroke-width:84.81;stroke-miterlimit:22.9256}
    .fil4 {fill:none}
    .fil5 {fill:#1D9CD3;fill-rule:nonzero}
    .fil3 {fill:#3B9CFF;fill-rule:nonzero}
    .fil2 {fill:#FBD13D;fill-rule:nonzero}
    .fil1 {fill:#1D9CD3;fill-opacity:0.30}
    .fil0 {fill:#FBD13D;fill-opacity:0.658824}
   ]]>
  </style>
    <clipPath id="id0">
     <rect x="29.16" y="29.16" width="7950.63" height="7950.62"/>
    </clipPath>
     <clipPath id="id1">
      <path d="M1941.17 4131.11l2748.83 0 0 2622.8 -2748.83 0 0 -2622.8z"/>
     </clipPath>
     <clipPath id="id2">
      <path d="M3383.38 3051.87l2436.72 0 0 1728.63 -2436.72 0 0 -1728.63z"/>
     </clipPath>
     <clipPath id="id3">
      <path d="M1794.4 761.87l4248.23 0 38.64 1680.71 -4248.23 0 -38.64 -1680.71z"/>
     </clipPath>
 </defs>
 <g id="Layer_x0020_1">
  <metadata id="CorelCorpID_0Corel-Layer"/>
  <g id="_3037461954256">
   <g style="clip-path:url(#id0)">
    <image x="29.16" y="29.16" width="7950.63" height="7950.62" xlink:href="Illustration 1 opt 2 svg_Images\Illustration 1 opt 2 svg_ImgID1.png"/>
   </g>
   <path class="fil0" d="M5962.1 3609.85c138.57,203.74 253.36,512.93 300.16,753.85 53.69,276.06 49.08,509.76 20.05,788.61 -38.09,229.86 -102,450.15 -204.39,656.75 -32.66,65.92 -67.32,121.98 -101.31,185.42 -10.99,20.5 -26.05,37.51 -38.39,58.5l-57.24 86.27c-21.89,33.86 -55.75,73.65 -82.53,107.04 -9.38,11.67 -10.75,13 -20.18,26.3 -22.13,31.19 -66.54,66.77 -92.38,97.37l-96.9 96.99c-17.76,15.27 -30.63,32.76 -48.76,48.34l-77.45 65.91c-233.77,179.62 -403.42,303.02 -729.2,400.96 -114.93,34.56 -293.71,80.51 -420.78,89.06 -14.58,0.97 -64.3,5.28 -76.89,8.12 -983.87,104.96 -1865.33,-457.76 -2237.85,-1189.29 -156.12,-279.35 -224.69,-511.87 -274.78,-824.47 -12.46,-77.82 -10.02,-120.96 -16.79,-177.57 -14.79,-123.6 -0.77,-252.24 6.47,-371.45 38.15,-628.44 516.05,-1610.15 1531.23,-1969 -795.55,331.93 -1303,971.23 -1459.06,1807.37 -35.32,303.47 -31.95,574.43 37.41,871.23 103.23,441.85 311,769.06 623.26,1097.65 12.31,11.69 34.27,28.38 51.64,45.35 8.5,8.3 13.14,17.35 21.84,24.5 10.98,9.03 14.69,8.04 26.71,19.72 8.98,8.73 15.68,17.41 25.98,24.7 13.6,9.61 14.71,9.28 26.85,19.54 120.47,101.95 262.92,194.78 406.07,264.34 89.09,43.28 173.41,82.17 269.03,115.37 291.84,101.37 686.44,171.54 990.32,102.4 72.23,-16.43 217.63,-62.14 281.3,-103.24 19.61,-12.65 40.43,-23.75 60.7,-36.28l111.01 -78.85c34.51,-25.27 71.54,-61.11 100.12,-89.65l46.49 -50.45c12.98,-11.89 28.16,-40.14 41.13,-55.96 85.77,-121.47 113.67,-163.96 165.55,-311.17 104.99,-297.95 60.98,-661.62 -105.85,-928.37l-78.34 -111.48c-16.68,-22.32 -31.3,-32.93 -46.84,-50.11 -9.52,-10.53 -10.16,-16.38 -19.46,-26.84 -23.4,-26.3 -51.45,-43.07 -75.51,-67.92 -20.66,-21.34 -44.32,-35.57 -68.66,-53.81 -31.02,-23.24 -65.33,-49.61 -97.89,-66.58 -22.47,-11.7 -38.26,-22.49 -62.03,-34.69 -63.43,-32.54 -136.89,-58.7 -206.53,-76.14 -122.89,-30.77 -184.32,-29.29 -296.2,-42.75 -14.63,-1.76 -29.79,0.73 -44.13,-1.54 -156.99,-24.92 -139.84,-8.7 -315.57,-67.47 -118.17,-39.52 -136.37,-64.67 -224.46,-112.8 -13.12,-7.17 -12.07,-9.01 -26.37,-20.25 -61.86,-48.56 -47.47,-33.91 -104.6,-85.04 -11.5,-10.29 -17.8,-11.33 -28.92,-21.67 -53.31,-49.57 -150.9,-171.23 -190.12,-239.99 -59.96,-105.05 -107.36,-222.44 -130.58,-346.43 -20.95,-111.95 -34.16,-238.43 -12.4,-349.09 3.51,-17.8 1.84,-29.11 5.11,-45.27l26.08 -113.27c17.48,-71.5 47.8,-141.9 79.49,-206.87l112.46 -174.46 114.96 -129.65c13.14,-10.65 14.19,-6.55 27.01,-19.25 14.66,-14.53 28.73,-31.41 47.9,-44.86l55.68 -41.23c59.34,-39.11 115.91,-73.92 183.52,-103.4 90.23,-39.36 192.03,-74.09 297.82,-83.48 93.42,-8.29 76.94,-11.46 181.97,-11.47l92.77 5.24c14.91,1.21 31.59,-0.87 46.4,0.29l211.98 28.23c237.96,49.47 295.35,65.85 516.81,153.85l64.66 28.19c62.87,27.26 128.83,66.1 186.73,99.96 98.93,57.86 155.35,104.59 243.02,165.94l140.65 120.93c31.15,32.68 68.94,56.08 99.92,94.06l88.43 101.39c33.6,32.39 55.92,68.51 85.28,104.48 42.87,52.53 78.38,112.04 117.38,169.38z"/>
   <path class="fil1" d="M2006.22 5905.7c-10.68,-19.08 -21.05,-38.34 -31.21,-57.75 7.46,13.93 15.14,27.95 23.05,42.1 2.66,5.24 5.45,10.43 8.16,15.65zm-49.12 -2214.21c153.97,-306.4 372.61,-573.64 637.55,-783.29 -281.69,224.77 -492.55,502.51 -637.55,783.29zm1284.35 -1142.78c239.25,-85.74 496.59,-132.51 764.73,-132.51 1269.89,0 2299.34,1045.95 2299.34,2336.2 0,42.3 -1.16,84.31 -3.36,126.05 5.5,-169.86 -4.6,-333.14 -39.92,-514.75 -46.8,-240.92 -161.59,-550.11 -300.16,-753.85 -39,-57.34 -74.51,-116.85 -117.38,-169.38 -29.36,-35.97 -51.69,-72.09 -85.28,-104.48l-88.43 -101.39c-30.97,-37.97 -68.76,-61.37 -99.92,-94.06l-140.65 -120.93c-87.67,-61.35 -144.09,-108.09 -243.02,-165.94 -57.9,-33.86 -123.85,-72.7 -186.73,-99.96l-64.66 -28.19c-221.47,-88.01 -278.85,-104.38 -516.81,-153.85l-211.98 -28.23c-14.8,-1.16 -31.48,0.92 -46.4,-0.29l-92.77 -5.24c-105.03,0.01 -88.55,3.18 -181.97,11.47 -105.79,9.39 -207.59,44.12 -297.82,83.48 -67.61,29.48 -124.19,64.29 -183.52,103.4l-55.68 41.23c-19.17,13.45 -33.23,30.33 -47.9,44.86 -12.82,12.7 -13.87,8.6 -27.01,19.25l-114.96 129.65 -112.46 174.46c-31.69,64.97 -62.01,135.37 -79.49,206.87l-26.08 113.27c-3.27,16.17 -1.6,27.48 -5.11,45.27 -21.76,110.65 -8.55,237.13 12.4,349.09 23.22,123.99 70.62,241.38 130.58,346.43 39.22,68.75 136.82,190.41 190.12,239.99 11.12,10.34 17.42,11.38 28.92,21.67 57.13,51.13 42.74,36.48 104.6,85.04 14.3,11.24 13.25,13.08 26.37,20.25 88.1,48.13 106.3,73.28 224.46,112.8 175.73,58.77 158.58,42.55 315.57,67.47 14.34,2.27 29.5,-0.22 44.13,1.54 111.87,13.46 173.31,11.98 296.2,42.75 69.65,17.44 143.1,43.59 206.53,76.14 23.77,12.2 39.57,22.99 62.03,34.69 32.56,16.97 66.87,43.34 97.89,66.58 24.34,18.24 48,32.47 68.66,53.81 24.06,24.85 52.12,41.62 75.51,67.92 9.31,10.47 9.95,16.32 19.46,26.84 15.54,17.18 30.16,27.8 46.84,50.11l78.34 111.48c166.84,266.75 210.85,630.42 105.85,928.37 -51.89,147.21 -79.78,189.7 -165.55,311.17 -12.97,15.83 -28.15,44.07 -41.13,55.96l-46.49 50.45c-28.58,28.54 -65.61,64.38 -100.12,89.65l-111.01 78.85c-20.27,12.53 -41.09,23.63 -60.7,36.28 -63.68,41.1 -209.08,86.81 -281.3,103.24 -303.87,69.14 -698.47,-1.03 -990.32,-102.4 -95.63,-33.2 -179.95,-72.09 -269.03,-115.37 -143.15,-69.55 -285.6,-162.39 -406.07,-264.34 -12.14,-10.27 -13.25,-9.94 -26.85,-19.54 -10.31,-7.29 -17,-15.97 -25.98,-24.7 -12.02,-11.68 -15.74,-10.69 -26.71,-19.72 -8.69,-7.15 -13.33,-16.2 -21.84,-24.5 -17.37,-16.98 -39.32,-33.67 -51.64,-45.35 -312.26,-328.59 -520.03,-655.8 -623.26,-1097.65 -69.36,-296.8 -72.73,-567.76 -37.41,-871.23 155.88,-835.17 662.35,-1473.95 1456.33,-1806.2z"/>
   <g>
    <g style="clip-path:url(#id1)">
     <image x="1941.17" y="4131.11" width="2748.83" height="2622.8" xlink:href="Illustration 1 opt 2 svg_Images\Illustration 1 opt 2 svg_ImgID2.png"/>
    </g>
   </g>
   <path class="fil2" d="M2243.8 4574.89l521.9 -141.14 83.38 308.3 -65.91 17.82 -64.32 -237.85 -166.66 45.06 56.14 207.55 -65.91 17.83 -56.13 -207.56 -157.55 42.61 66.37 245.44 -65.9 17.82 -85.42 -315.87zm166.66 507.68l273.47 -287.46 30.4 68.64 -206.48 213.31 296.45 -10.15 30.88 69.73 -424.72 -54.07zm355.09 419.67c31.35,7.36 62.46,0.71 93.44,-20 30.98,-20.72 48.61,-47.3 52.85,-79.55 4.16,-32.36 -2.88,-62.42 -21.13,-90.18 -18.54,-27.73 -43.26,-44.7 -74.26,-51.04 -30.76,-6.48 -60.93,0.16 -90.71,20.08 -29.69,19.85 -47.75,45.78 -53.98,77.63 -6.33,31.93 -0.12,61.92 18.63,89.97 18.76,28.05 43.81,45.75 75.16,53.1zm-19.17 142.14l-39.7 -59.35 46.75 -31.27c-22.38,1.12 -44.87,-4.76 -67.6,-17.56 -22.72,-12.81 -41.72,-30.63 -57.13,-53.68 -28.21,-42.18 -37.92,-88.71 -29.07,-139.46 9.47,-49.6 37.7,-90.2 84.55,-121.53 46.97,-31.41 95.02,-42.14 143.96,-32.23 49.13,9.95 88.57,36.9 118.3,80.89 14.76,22.08 24.44,46.43 28.91,72.87 3.38,26.68 0.15,49.62 -9.81,68.85l45.78 -30.61 39.7 59.37 -304.62 203.71zm87.53 82.09l405.27 -394.78 49.83 51.15 -405.27 394.77 -49.83 -51.14zm434.44 160.13l122.52 -155.39 56.07 44.22 -226.89 287.76 -56.07 -44.21 33.85 -42.93c-20.69,9.35 -42.64,11.84 -65.83,7.23 -23.06,-4.54 -43.84,-14.09 -62.33,-28.68 -35.63,-28.1 -54.23,-60.9 -55.7,-98.54 -1.47,-37.63 13.59,-76.39 45.3,-116.17l131.35 -166.58 56.07 44.21 -128.19 162.57c-18.86,23.93 -28.14,47.1 -27.92,69.41 0.48,22.21 11.85,42 34.15,59.58 22.29,17.57 46.27,25.16 72.26,22.83 25.97,-2.32 49.71,-17.42 71.37,-45.31zm319.92 273.35c30.93,-8.96 54.78,-30.02 71.62,-63.26 16.84,-33.25 19.17,-65.07 7.04,-95.25 -12.25,-30.24 -33.12,-52.99 -62.64,-68.23 -29.75,-15.06 -59.62,-17.73 -89.75,-8.06 -29.98,9.45 -53.02,30.03 -69.2,62 -16.13,31.85 -19.16,63.3 -8.96,94.12 10.14,30.94 30.26,54.03 60.36,69.27 30.1,15.24 60.62,18.38 91.54,9.42zm53.02 133.27l-63.72 -32.26 25.41 -50.16c-18.95,11.95 -41.45,17.86 -67.53,17.85 -26.07,-0.03 -51.37,-6.24 -76.11,-18.76 -45.26,-22.92 -76.57,-58.71 -93.73,-107.29 -16.08,-47.86 -11.39,-97.08 14.08,-147.36 25.52,-50.41 62.13,-83.33 109.64,-98.7 47.69,-15.43 95.28,-11.28 142.77,12.49 23.69,11.99 44.07,28.47 60.93,49.32 16.03,21.6 24.46,43.17 25.22,64.82l24.88 -49.12 63.71 32.26 -165.55 326.92zm393.75 -391.84l-50.42 124.35 71.27 28.91 -23.89 58.9 -71.26 -28.9 -113.83 280.69 -66.18 -26.83 113.84 -280.69 -61.09 -24.77 23.88 -58.9 61.09 24.76 50.42 -124.34 66.17 26.82zm345.41 399.7c-3.82,15.77 -6.25,24.73 -7.37,27.15l-289.08 -69.88c-3.51,29.55 3.46,56.39 20.74,80.62 16.89,22.52 38.41,37.01 64.73,43.36 51.49,12.45 91.91,2.71 121.42,-29.17 0.51,0.12 1.24,0.43 2.13,1.18 0.77,0.73 2.32,2.04 4.58,3.93 2.6,1.98 6.18,4.47 10.74,7.31 4.53,2.97 7.97,5.43 10.08,7.28l26.5 17.84c-21.88,26.47 -49.58,44.26 -83.14,53.37 -33.46,9.28 -67.96,9.54 -103.43,0.96 -50.97,-12.32 -90.31,-39.99 -118.21,-83.2 -26.12,-42.78 -32.37,-92.06 -18.94,-147.61 13.45,-55.67 41.41,-96.14 83.75,-121.56 42.43,-25.26 89.87,-31.7 142.56,-19.23 52.63,12.73 90.97,40.03 115.05,81.78 25.26,41.9 31.25,90.57 17.89,145.86zm-80.45 -122.5c-15.71,-21.83 -38.3,-36.31 -67.55,-43.38 -29.36,-7.1 -56.59,-4.66 -81.82,7.27 -25.24,13.14 -43.16,33.84 -53.54,61.72l220.81 53.39c3.52,-29.56 -2.46,-56.02 -17.91,-79z"/>
   <g>
    <g style="clip-path:url(#id2)">
     <image x="3383.38" y="3051.87" width="2436.72" height="1728.63" xlink:href="Illustration 1 opt 2 svg_Images\Illustration 1 opt 2 svg_ImgID3.png"/>
    </g>
   </g>
   <path class="fil3" d="M3992.78 3806.46l-40.99 -140.23 -228.27 -19.03 -63.65 131.51 -77.05 -6.42 249.32 -520.96 78.08 6.51 158.8 554.99 -76.26 -6.36zm-129.4 -455.03l-109.2 231.49 178.03 14.84 -68.83 -246.34zm446.54 269.71c-28.02,15.19 -47.35,40.67 -57.92,76.63 -10.53,35.84 -7.2,67.16 9.84,93.96 17.16,26.81 41.41,44.82 72.98,54.11 31.58,9.27 61.61,6.66 89.97,-7.88 27.2,-14.72 45.83,-39.2 55.87,-73.41 10.05,-34.21 7.3,-65.63 -8.3,-94.05 -15.74,-28.44 -39.78,-47.62 -71.9,-57.32 -32.26,-9.75 -62.45,-7.05 -90.54,7.97zm-74.84 -121.49l68.41 20.1 -16.24 55.25c17.31,-16.28 38.43,-26.54 63.59,-30.59 24.96,-5.32 50.71,-4.02 77.41,3.82 48.99,14.4 85.45,43.62 109.23,87.76 24.02,43.81 27.98,92.88 12.04,147.13 -15.95,54.26 -45.66,93.3 -89.3,117.23 -43.47,23.85 -90.05,28.53 -139.53,13.99 -26.69,-7.84 -49.58,-20.28 -68.79,-37.35 -19.08,-17.05 -31.16,-36.66 -36.16,-58.54l-65.53 223.03 -68.4 -20.1 153.27 -521.74zm555.18 326.11c-30.21,10.13 -53.64,31.9 -70.25,65.51 -16.55,33.49 -18.67,64.92 -6.5,94.24 12.28,29.38 33.05,51.29 62.56,65.88 29.51,14.57 59.54,17.18 89.98,7.74 29.33,-9.83 51.89,-30.73 67.68,-62.69 15.8,-31.95 18.51,-63.39 8.03,-94.07 -10.6,-30.72 -30.98,-53.76 -60.95,-68.85 -30.1,-15.17 -60.3,-17.71 -90.56,-7.75zm-52.78 -132.56l63.92 31.58 -25.51 51.63c19.86,-13.06 42.43,-19.52 67.9,-19.17 25.51,-0.94 50.65,4.78 75.59,17.1 45.78,22.62 76.66,57.7 92.47,105.28 16.11,47.28 11.55,96.3 -13.49,146.99 -25.06,50.7 -61.05,84.04 -108.16,100.1 -46.95,15.99 -93.62,12.58 -139.86,-10.27 -24.95,-12.32 -45.34,-28.52 -61.32,-48.64 -15.87,-20.08 -24.39,-41.48 -25.54,-63.9l-102.97 208.39 -63.94 -31.58 240.91 -487.52zm243.65 576.05l340.06 -451.14 56.94 42.92 -340.06 451.13 -56.94 -42.91zm639.53 105.7l-552.13 206.1 -51 -54.4 190.47 -73.29 158.57 -349.48 52.07 55.55 -118.38 260.96 268.33 -101 52.07 55.55z"/>
   <path class="fil4 str0" d="M4011.11 42.41c2191.85,0 3968.69,1779.81 3968.69,3975.32 0,2195.51 -1776.84,3975.32 -3968.69,3975.32 -2191.85,0 -3968.7,-1779.81 -3968.7,-3975.32 0,-2195.51 1776.85,-3975.32 3968.7,-3975.32z"/>
   <g>
    <g style="clip-path:url(#id3)">
     <image x="1794.4" y="761.87" width="4286.87" height="1680.71" xlink:href="Illustration 1 opt 2 svg_Images\Illustration 1 opt 2 svg_ImgID4.png"/>
    </g>
   </g>
   <path class="fil5" d="M2392.45 2232.45l-400.8 -517.81 323.17 -250.15 50.61 65.38 -249.33 192.99 127.98 165.34 217.57 -168.41 50.59 65.39 -217.56 168.4 120.99 156.32 257.27 -199.13 50.61 65.39 -331.12 256.29zm430.7 -578.15l98.09 218.3 -83.35 37.45 -181.91 -404.83 83.35 -37.45 27.34 60.82c2.08,-28.02 12.61,-53.59 31.86,-76.49 19.1,-22.81 42.69,-40.54 70.63,-53.09 53.74,-24.15 101.2,-26.71 142.62,-7.64 42.37,17.95 76.74,55.64 102.89,113l105.17 234.07 -83.36 37.45 -102.83 -228.86c-15.32,-34.1 -35.69,-56.54 -60.88,-67.29 -25.12,-11.8 -53.67,-10.43 -85.89,4.05 -32.5,14.6 -55.65,36.99 -69.23,67.23 -13.77,30.15 -11.83,64.7 5.51,103.28zm671.44 14.39l-255.31 -411.92 95.11 -13.55 188.18 309.81 93.29 -349.93 96.6 -13.76 -217.87 479.35zm376.83 -617.13c-11.8,-11.01 -17.56,-24.37 -17.44,-40.05 0.11,-15.84 6.07,-28.94 18.02,-39.78 13.31,-10.69 28.24,-15.96 45.13,-15.83 16.91,0.12 31.77,5.46 44.4,16 12.81,10.72 19.08,24.23 18.95,40.55 -0.12,16.3 -6.58,29.73 -19.55,40.24 -12.78,10.37 -27.73,15.49 -44.62,15.36 -16.9,-0.12 -31.75,-5.62 -44.89,-16.49zm86.52 568.03l-91.37 -0.68 3.28 -443.8 91.36 0.67 -3.27 443.81zm216.63 -419.69c32.83,-19.28 71.36,-27.19 115.76,-23.86 44.21,3.33 80.12,16.84 107.39,40.48 27.41,23.67 41.63,55.56 42.47,95.65l-86.94 -6.54c-1.59,-14.57 -8.73,-26.7 -21.43,-36.4 -14.05,-9.64 -29.91,-15.1 -47.94,-16.47 -17.86,-1.34 -33.32,1.14 -46.22,7.48 -13.77,4.69 -22.87,14 -27.59,27.64 -4.55,13.62 -4.87,24.72 -0.98,33.28 6.43,14.77 23.97,27.21 52.58,37.3l67.71 21.13c79.53,24.88 116.67,71.04 111.59,138.49 -3,39.96 -22.95,70.86 -60.03,93.01 -37.34,21.17 -79.77,29.9 -127.33,26.32 -47.74,-3.59 -88.16,-19.66 -121.4,-48.37 -33.26,-28.55 -48.54,-64.33 -45.96,-107.5l86.11 6.48c2.11,23.19 13.2,41.02 33.42,53.34 19.44,13.69 41.07,20.72 64.87,21.24 23.79,0.53 42.59,-4.1 56.41,-13.86 13.84,-9.92 22.18,-22.47 25,-37.83 2.49,-15.38 -1.58,-28.07 -12.4,-38.25 -10.64,-10.18 -25.82,-18.15 -45.35,-23.9l-63.03 -18.88c-44.34,-14.93 -76.45,-34.35 -96.11,-58.54 -18.78,-24.91 -25.1,-54.78 -18.78,-89.72 6.16,-34.97 25.65,-62.09 58.18,-81.73zm499.22 -78.26c-9.13,-13.31 -11.84,-27.61 -8.32,-42.88 3.56,-15.44 12.21,-26.93 26.23,-34.92 15.32,-7.53 31.03,-9.44 47.5,-5.64 16.48,3.79 29.82,12.22 39.87,25.25 10.18,13.24 13.35,27.79 9.69,43.69 -3.65,15.89 -12.87,27.6 -27.81,35.04 -14.73,7.34 -30.43,9.1 -46.91,5.3 -16.47,-3.79 -29.77,-12.38 -40.25,-25.84zm-38.87 573.26l-89.05 -20.49 99.55 -432.51 89.05 20.49 -99.55 432.51zm493.34 68.32c38.15,-12.02 66.84,-38.01 85.9,-78.06 19.12,-40.19 21.08,-78.56 6.07,-115.16 -14.92,-36.76 -42.1,-64.61 -81.4,-83.66 -39.28,-18.69 -78.1,-22.44 -116.34,-11 -38.62,11.45 -67.47,37.01 -86.46,76.91 -18.93,39.77 -21.01,78.41 -6.41,115.88 14.53,37.61 41.7,65.81 81.43,84.73 39.91,18.98 79.01,22.51 117.21,10.36zm-152.29 64.52c-61.65,-29.35 -104.74,-73.54 -129.58,-132.73 -24.83,-59.18 -22.49,-119.81 7.14,-182.02 29.61,-62.21 74.93,-102.57 135.77,-120.97 60.84,-18.4 122.4,-12.61 184.83,17.45 62.86,29.92 106.27,74.26 130.35,133.09 24.24,59.25 21.75,119.81 -7.6,181.45 -29.34,61.64 -74.69,101.63 -136.12,120.1 -61.43,18.48 -123.12,12.97 -184.78,-16.37zm554.28 22.74l-148.17 187.95 -71.75 -56.57 274.77 -348.54 71.76 56.57 -41.29 52.37c25.81,-11.11 53.35,-13.6 82.56,-7.12 29.07,6.38 55.69,19.1 79.73,38.05 46.28,36.48 70.5,77.37 72.75,122.91 3.69,45.87 -13.84,93.77 -52.6,143.48l-158.87 201.51 -71.75 -56.57 155.33 -197.03c23.14,-29.36 33.63,-57.8 31.5,-85.1 -1.15,-27.74 -15.58,-52.41 -43.31,-74.27 -27.99,-22.07 -58.54,-32.24 -91.63,-30.29 -33.1,1.73 -62.84,19.44 -89.03,52.65z"/>
  </g>
 </g>
</svg>
