<?xml version="1.0" encoding="UTF-8"?>
<!DOCTYPE svg PUBLIC "-//W3C//DTD SVG 1.1//EN" "http://www.w3.org/Graphics/SVG/1.1/DTD/svg11.dtd">
<!-- Creator: CorelDRAW 2018 (64-Bit Evaluation Version) -->
<svg xmlns="http://www.w3.org/2000/svg" xml:space="preserve" width="80.8977mm" height="78.2885mm" version="1.1" style="shape-rendering:geometricPrecision; text-rendering:geometricPrecision; image-rendering:optimizeQuality; fill-rule:evenodd; clip-rule:evenodd"
viewBox="0 0 8656.69 8377.48"
 xmlns:xlink="http://www.w3.org/1999/xlink">
 <defs>
  <style type="text/css">
   <![CDATA[
    .fil0 {fill:#00C2FF}
    .fil1 {fill:#00C2FF;fill-rule:nonzero}
    .fil3 {fill:#5AEEBC;fill-rule:nonzero}
    .fil2 {fill:#FBD13D;fill-rule:nonzero}
   ]]>
  </style>
 </defs>
 <g id="Layer_x0020_1">
  <metadata id="CorelCorpID_0Corel-Layer"/>
  <g id="_1853060631280">
   <path class="fil0" d="M1572.79 8044.31c33.8,-240.71 772.32,-509.44 620.82,-866.04 -255.01,-600.3 -42.42,-670.56 -678.42,-900.12 -670,-241.83 -458.52,-242.26 -964.8,260.35 -599.77,595.38 -111.8,-382.39 20.93,-536.94 258.49,-300.93 668.68,-505.06 1098,-435.76 655.74,105.84 473.18,64.83 967.69,-428.58 263.22,-262.64 523.86,-528.37 787.59,-790.93 218.55,-217.6 199.59,-317.32 417.11,-83.34 19.41,20.88 72.19,71.6 132.26,130.45l195.13 -192.72c-592.75,-594.46 -1386.51,-1400.33 -1536.23,-1545.77 -107.05,-104 -462.37,-511.32 -575.05,-530.79 -522.97,-90.43 -476.04,117.71 -750.5,-345.95 -132.44,-223.76 -270.12,-459.49 -401.17,-695.12 -127.24,-228.79 -270.85,-493.79 108.41,-629.76 56.21,-20.16 1319.74,696 1334.7,841.46 80.84,785.61 310.09,812.72 853.21,1348.28 402.71,397.11 836.24,844.24 1259.33,1268.56l199.63 -197.16c-52.82,-54.42 -98.34,-102.52 -119.42,-123.67 -224.38,-224.95 -191.24,-170.9 36.55,-396.86 250.02,-248.04 497.45,-498.23 747.08,-746.34 519.52,-516.4 2.49,-475.39 181.06,-1123.5 103.79,-376.72 301.91,-664.67 650.08,-843.22 78.94,-40.46 569.71,-234.55 515.2,-85.26 -19.86,54.41 -314.25,322.59 -371.33,380.34 -397.96,402.69 -279.99,346.84 -44.25,958.58 131.8,342 49.33,229.01 387.19,359.35 171.95,66.32 376.64,144.43 547.14,202.52 201.29,68.58 643.36,-682.65 779.74,-640.62 212.6,193.04 -524.57,1464.89 -1524.63,1174.56 -434.76,-126.22 -488.14,109.94 -815.97,441.45 -56.07,56.71 -300.62,311.76 -487.36,492.94l193.95 193.71c39.98,-39.76 79.53,-76.03 108.84,-105.43 166.72,-167.23 333.53,-334.54 499.84,-502.11 322.34,-324.76 196.67,-303.92 656.76,-223.09 252.42,44.33 603.05,-44.91 819.71,-153.04 493.95,-246.52 717.82,-627.3 832.29,-1172.17 36.44,-173.38 2.6,-854.8 -319.26,-545.47 -899.45,864.43 -596.05,793.78 -1151.82,592.4 -334.13,-121.08 -276.23,-257.08 -408.07,-594.49 -118.82,-304.11 1055.31,-895.06 700.53,-1133.49 -385.09,-258.83 -1183.09,134.82 -1458.48,424.22 -548.76,576.58 -349.22,873.57 -346.36,1512.2 0.47,105.91 -834.98,867.44 -974.84,1023.26 -189.8,211.45 -335.19,-72.99 -523.16,-261.47 -166.74,-167.22 -333.54,-334.5 -500.06,-501.87 -165.7,-166.54 -333.02,-337.78 -502.03,-499.93 -197.57,-189.58 -94.61,-704.55 -201.13,-800.87 -147.5,-133.35 -1009.77,-604.68 -1254.92,-748.89 -375.05,-220.61 -260.11,-259.74 -574.05,50.81 -220.98,218.61 -434.24,296.8 -276.75,554.56 253.84,415.5 486.1,843.92 733.75,1270.1 208.17,358.24 421.34,140.44 751.64,249.19 74.23,24.45 427.68,405.31 513.8,489.1 136.34,132.6 974.19,948.5 990.1,1016.02 -2.15,70.9 -1047.3,1075.89 -1191.47,1222.69 -403.61,411.02 -326.98,100.23 -897.17,161.04 -302.4,32.24 -605.26,165.77 -835.85,364.93 -630.1,544.19 -682.68,1844.3 -231.66,1537.94 125.46,-85.2 472.57,-471.04 607.31,-603.9 180.16,-177.62 120.93,-187.62 367.67,-95.96 547.66,203.45 387.23,67.28 591.62,607.76 89.76,237.33 71.95,175.58 -113.87,361.61 -123.74,123.92 -521.15,491.7 -594.46,607.53 -286.01,451.87 1011.91,363.27 1533.52,-235.45 191.97,-220.35 342.08,-539.08 370.16,-838.89 52.49,-560.72 -233.5,-517.16 162.34,-906.74 102.63,-101.02 686.27,-704.39 1006.09,-1010.74l-186.24 -186.85c-399.44,413.75 -1337.19,1242.54 -1342.87,1398.23 -17.13,468.94 290.71,615.5 -127.15,1238.25 -147.82,220.31 -733.8,674.13 -997.97,524.95z"/>
   <g>
    <path class="fil1" d="M4970.4 3408.01l3369.77 3365.59 -184.8 185.02 -3369.77 -3365.59 0.52 -185.53 184.28 0.51zm-184.28 -0.51l92.39 -91.26 91.89 91.77 -184.28 -0.51zm-1116.2 1102.46l1116.2 -1102.46 183.75 186.04 -1116.2 1102.46 -184.48 -0.72 0.73 -185.33zm-0.73 185.33l-92.72 -93.03 93.45 -92.29 -0.73 185.33zm3399.66 3410.93l-3399.66 -3410.93 185.21 -184.61 3399.66 3410.93 -166.92 199.88 -18.29 -15.27zm18.29 15.27l-9.84 -6.81 -8.44 -8.46 18.29 15.27zm1068.23 -1162.86l184.8 -185.02 5.46 5.79 64.54 79.28 55.25 81.42 45.98 83.06 36.84 84.27 27.82 84.99 18.99 85.17 10.39 84.8 2.07 83.9 -5.95 82.48 -13.59 80.57 -20.88 78.21 -27.77 75.41 -34.27 72.22 -40.43 68.68 -46.23 64.77 -51.67 60.52 -56.77 55.91 -61.58 50.98 -66.06 45.65 -70.22 39.98 -74.04 33.88 -77.51 27.42 -80.61 20.53 -83.32 13.27 -85.62 5.61 -87.4 -2.42 -88.74 -10.75 -89.64 -19.39 -90.01 -28.27 -89.97 -37.36 -89.51 -46.64 -88.58 -56.05 148.63 -215.15 70.63 44.69 69.72 36.33 68.7 28.52 67.48 21.19 66.14 14.3 64.66 7.82 63.09 1.73 61.37 -4.02 59.54 -9.5 57.54 -14.67 55.36 -19.58 52.92 -24.23 50.25 -28.61 47.35 -32.74 44.16 -36.55 40.7 -40.07 36.97 -43.3 32.96 -46.2 28.72 -48.77 24.24 -51.05 19.55 -53.02 14.61 -54.73 9.5 -56.21 4.15 -57.46 -1.42 -58.54 -7.27 -59.49 -13.45 -60.32 -19.97 -61.04 -26.91 -61.58 -34.32 -62 -42.19 -62.18 -50.63 -62.18 5.46 5.79zm184.8 -185.02l2.85 2.85 2.61 2.94 -5.46 -5.79z"/>
   </g>
   <g>
    <path class="fil2" d="M2717.88 1692.61l2001.05 1960.29 -285.95 291.87 -2001.05 -1960.29 -58.06 -109.59 344.01 -182.29zm-285.95 291.87l-46.48 -45.53 -11.58 -64.05 58.06 109.59zm213.22 -905.5l130.78 723.21 -402.07 72.7 -130.78 -723.21 304.41 -212.57 97.67 139.87zm-97.67 -139.87l80.96 47.49 16.7 92.38 -97.67 -139.87zm-1462.85 -858.1l1462.85 858.1 -206.74 352.44 -1462.85 -858.1 -43.04 -318.71 249.78 -33.73zm-249.78 33.73l111.67 -114.74 138.1 81.02 -249.78 33.73zm-445.39 457.64l445.39 -457.64 292.82 284.98 -445.39 457.64 -322.09 -38.22 29.28 -246.76zm-29.28 246.76l-79.88 -134.59 109.16 -112.17 -29.28 246.76zm894.85 1507.77l-894.85 -1507.77 351.37 -208.54 894.85 1507.77 -197.98 307.35 -153.4 -98.81zm153.4 98.81l-101.36 -11.13 -52.04 -87.68 153.4 98.81zm670.13 73.56l-670.13 -73.56 44.58 -406.16 670.13 73.56 123.07 59.52 -167.65 346.64zm44.58 -406.16l72.1 7.92 50.97 51.6 -123.07 -59.52zm1805.81 2344.72l-1973.46 -1998.08 290.72 -287.12 1973.46 1998.08 -290.72 287.12z"/>
   </g>
   <g>
    <path class="fil3" d="M7045.69 8129.29l231.52 -230.77 -7.81 -7.34 56.16 44.88 56.05 36.43 55.93 28.74 55.73 21.69 55.56 15.18 55.43 9.13 55.29 3.39 55.09 -2.09 54.75 -7.37 54.2 -12.49 53.39 -17.4 52.21 -22.12 50.65 -26.57 48.68 -30.76 46.32 -34.64 43.55 -38.16 40.37 -41.29 36.84 -44.04 32.96 -46.37 28.76 -48.25 24.28 -49.71 19.58 -50.78 14.7 -51.43 9.63 -51.76 4.47 -51.86 -0.86 -51.78 -6.35 -51.66 -12.13 -51.6 -18.29 -51.59 -24.95 -51.68 -32.32 -51.78 -40.46 -51.92 247.44 -213.61 60.73 77.94 50.66 81.17 40.45 83.66 30.29 85.38 20.33 86.33 10.69 86.48 1.46 85.85 -7.23 84.56 -15.37 82.71 -22.92 80.36 -29.92 77.66 -36.41 74.6 -42.44 71.24 -48 67.55 -53.21 63.63 -58.05 59.38 -62.56 54.81 -66.74 49.9 -70.64 44.61 -74.23 38.94 -77.53 32.8 -80.48 26.22 -83.11 19.1 -85.31 11.44 -86.98 3.26 -88.12 -5.45 -88.6 -14.63 -88.37 -24.19 -87.43 -34.06 -85.72 -44.09 -83.4 -54.19 -80.41 -64.25 -7.81 -7.34zm7.81 7.34l-4.01 -3.53 -3.8 -3.81 7.81 7.34zm-3175.95 -3649.04l3399.66 3410.93 -231.52 230.77 -3399.66 -3410.93 0.91 -231.67 230.61 0.9zm-231.52 230.77l-115.91 -116.3 116.82 -115.38 -0.91 231.67zm1346.81 -1101.56l-1116.2 1102.46 -229.7 -232.57 1116.2 -1102.46 230.66 0.94 -0.95 231.63zm-229.7 -232.57l115.8 -114.37 114.85 115.31 -230.66 -0.94zm3439.41 3685.83l-3440.37 -3454.2 231.61 -230.69 3440.37 3454.2 7.92 8.54 -239.53 222.15zm231.61 -230.69l4.11 4.12 3.81 4.42 -7.92 -8.54z"/>
   </g>
  </g>
 </g>
</svg>
