<?xml version="1.0" encoding="UTF-8"?>
<!DOCTYPE svg PUBLIC "-//W3C//DTD SVG 1.1//EN" "http://www.w3.org/Graphics/SVG/1.1/DTD/svg11.dtd">
<!-- Creator: CorelDRAW 2018 (64-Bit Evaluation Version) -->
<svg xmlns="http://www.w3.org/2000/svg" xml:space="preserve" width="222.466mm" height="137.993mm" version="1.1" style="shape-rendering:geometricPrecision; text-rendering:geometricPrecision; image-rendering:optimizeQuality; fill-rule:evenodd; clip-rule:evenodd"
viewBox="0 0 13398.16 8310.74"
 xmlns:xlink="http://www.w3.org/1999/xlink">
 <defs>
  <style type="text/css">
   <![CDATA[
    .str3 {stroke:#F50A2B;stroke-width:4.59;stroke-miterlimit:22.9256;stroke-opacity:0.301961}
    .str1 {stroke:#1B9BD9;stroke-width:4.59;stroke-miterlimit:22.9256;stroke-opacity:0.850980}
    .str2 {stroke:#FBD13E;stroke-width:4.59;stroke-miterlimit:22.9256;stroke-opacity:0.850980}
    .str4 {stroke:#3B9CFF;stroke-width:20.4;stroke-miterlimit:22.9256}
    .str0 {stroke:#3B9CFF;stroke-width:15.3;stroke-miterlimit:22.9256}
    .fil3 {fill:none}
    .fil8 {fill:none}
    .fil17 {fill:#3B9CFF}
    .fil2 {fill:#F3F6F9}
    .fil5 {fill:#FBD13E}
    .fil4 {fill:#FBF0C8}
    .fil6 {fill:#3B9CFF;fill-rule:nonzero}
    .fil13 {fill:#F50A2B;fill-opacity:0.301961}
    .fil16 {fill:#3B9CFF;fill-opacity:0.701961}
    .fil15 {fill:#FBD13E;fill-opacity:0.701961}
    .fil9 {fill:#FEFEFE;fill-opacity:0.850980}
    .fil11 {fill:#1B9BD9;fill-opacity:0.850980}
    .fil7 {fill:#3B9CFF;fill-opacity:0.850980}
    .fil12 {fill:#E7F2FC;fill-opacity:0.850980}
    .fil14 {fill:#FBD13E;fill-opacity:0.850980}
    .fil1 {fill:#F3F6F9;fill-opacity:0.960784}
    .fil0 {fill:#C4E1FF}
    .fil10 {fill:#FBD13E}
   ]]>
  </style>
 </defs>
 <g id="Layer_x0020_1">
  <metadata id="CorelCorpID_0Corel-Layer"/>
  <path class="fil0" d="M10835.1 2904.43c-303.57,-18.04 -352.74,75.4 -363.56,306l2.32 4336.44c-3.5,299.88 73.25,436.8 292.31,453.07l1928.22 4.69c313.01,22.84 422.03,-153.51 414.45,-443.68l0 -4319.4c-3.99,-272.39 -101.74,-351.59 -355.62,-349.77l-221.03 217.35 -1464.54 5.97 -232.54 -210.66z"/>
  <path class="fil1" d="M12807.25 8092.14l-1960.64 9.96c-419.26,10.45 -474.27,-194.82 -463.89,-577.13l1.95 -4420.33c21.66,-158.97 98.41,-256.39 237.5,-284.15l241.43 -0.11c70.33,27.81 98.73,207.21 293.3,206.69l1287.72 0.23c192.13,-38.58 173.65,-194.11 304.72,-209.09l213.79 5.91c145.27,20.75 221.54,164.3 223.47,329.23l2.73 4531.94c0.14,245.2 -106.38,405.46 -382.08,406.85zm-2200.13 -5488.89c-263.52,41.65 -417.11,211.6 -411.25,567.52l-13.06 4596.97c-8.12,363.73 202.89,524.6 567.78,543l2133.33 -1.79c285.49,6.04 461.57,-128.16 501.85,-436.4l12.39 -4719.36c-6.5,-315.07 -262.87,-550.91 -565.06,-549.13l-2225.99 -0.81z"/>
  <path class="fil2" d="M10225.87 6878.64l-8384.46 0c-275.91,0 -501.6,-116.85 -501.6,-259.7l0 -48.95 -7.39 0 0 -366.12 8897.28 0 -1.32 232.58 -2.51 442.18z"/>
  <path class="fil2" d="M10229.7 6203.87l-7325.27 0c-62.83,-5.88 -126.64,-72.75 -126.64,-135.87l0 -5252.75c0,-382.48 6.06,-387.29 619.19,-387.29l7714.52 0c631.15,0 608.55,-1.64 608.56,384.41l0.06 1791.28 436.71 -0.89 6.62 -2142.84c0.78,-252.97 -199.87,-459.93 -444.18,-459.93l-8930.06 0c-244.31,0 -444.18,206.96 -444.18,459.93l0 5743.95 7884.67 0z"/>
  <path class="fil0" d="M3238.55 574.8l8020.79 -0.28c321.73,-0.01 315.87,2.79 316.2,322.62l1.8 1706.46 -878.95 -0.33c-232.25,-8.45 -484.32,107.63 -502.5,497.93l-8.23 2958.12 -6949.12 0c-307.31,0 -316.2,2.64 -316.2,-322.62l0 -4839.28c0,-325.26 5.29,-322.61 316.2,-322.62z"/>
  <path class="fil3" d="M3253.05 4851.02c147.04,314.42 195.58,605.96 131,871.18l57.21 29.53 12.92 180.88 -163.19 -1.75c0.45,6.31 0.67,12.68 0.67,19.12 0,142.96 -112.38,258.86 -251,258.86 -138.63,0 -251.01,-115.89 -251.01,-258.86 0,-8.24 0.38,-16.41 1.13,-24.46l-684.07 -7.31 -1966.86 -21.01 -139.86 -1.49 0.92 -1415.61c-2.84,-52.08 20.68,-80.18 71.98,-83.05l2413.76 -9.81 82.12 60.46 -0.01 1243.55 27.69 0 6.46 -1213.55c183.56,-10.68 313.25,84.19 373.75,314.7l319.76 4.63 5.08 56.76 -48.45 -2.77z"/>
  <path class="fil4" d="M3944.99 3168.89l926.52 0c87.87,0 159.75,71.88 159.75,159.74l0 1654.97c0,87.87 -71.88,159.74 -159.75,159.74l-926.52 0c-87.86,0 -159.74,-71.87 -159.74,-159.74l0 -1654.97c0,-87.86 71.88,-159.74 159.74,-159.74z"/>
  <path class="fil4" d="M5606.37 3168.89l916.83 0c90.53,0 164.59,74.07 164.59,164.59l0 1645.27c0,90.53 -74.07,164.59 -164.59,164.59l-916.83 0c-90.53,0 -164.6,-74.06 -164.6,-164.59l0 -1645.27c0,-90.53 74.07,-164.59 164.6,-164.59z"/>
  <path class="fil4" d="M7245.25 3168.89l939.32 0c84.35,0 153.35,69 153.35,153.35l0 1667.75c0,84.35 -69,153.35 -153.35,153.35l-939.32 0c-84.35,0 -153.35,-69 -153.35,-153.35l0 -1667.75c0,-84.35 69,-153.35 153.35,-153.35z"/>
  <path class="fil4" d="M8869.82 3168.89l990.44 0c70.28,0 127.79,57.5 127.79,127.79l0 1718.88c0,70.28 -57.5,127.79 -127.79,127.79l-990.44 0c-70.28,0 -127.79,-57.5 -127.79,-127.79l0 -1718.88c0,-70.28 57.5,-127.79 127.79,-127.79z"/>
  <path class="fil5" d="M8874.62 5517.04l980.84 0c101.04,0 183.71,82.67 183.71,183.71l0 0c0,101.04 -82.67,183.71 -183.71,183.71l-980.84 0c-101.04,0 -183.71,-82.67 -183.71,-183.71l0 0c0,-101.04 82.67,-183.71 183.71,-183.71z"/>
  <path class="fil5" d="M7224.49 5517.04l980.84 0c101.04,0 183.71,82.67 183.71,183.71l0 0c0,101.04 -82.67,183.71 -183.71,183.71l-980.84 0c-101.04,0 -183.71,-82.67 -183.71,-183.71l0 0c0,-101.04 82.67,-183.71 183.71,-183.71z"/>
  <path class="fil5" d="M3312.41 2611.87c50.02,0 90.57,40.55 90.57,90.56 0,50.02 -40.55,90.57 -90.57,90.57 -50.02,0 -90.56,-40.55 -90.56,-90.57 0,-50.01 40.54,-90.56 90.56,-90.56z"/>
  <path class="fil5" d="M3409.66 3953.95c111.66,0 202.17,90.52 202.17,202.17 0,111.65 -90.51,202.16 -202.17,202.16 -111.65,0 -202.16,-90.51 -202.16,-202.16 0,-111.65 90.51,-202.17 202.16,-202.17z"/>
  <path class="fil5" d="M3547.23 2611.87c50.02,0 90.57,40.55 90.57,90.56 0,50.02 -40.54,90.57 -90.57,90.57 -50.02,0 -90.56,-40.55 -90.56,-90.57 0,-50.01 40.54,-90.56 90.56,-90.56z"/>
  <path class="fil5" d="M3782.07 2611.87c50.02,0 90.56,40.55 90.56,90.56 0,50.02 -40.54,90.57 -90.56,90.57 -50.02,0 -90.57,-40.55 -90.57,-90.57 0,-50.01 40.54,-90.56 90.57,-90.56z"/>
  <path class="fil5" d="M4281.76 2603.38l5645.83 0c36.91,0 67.09,30.19 67.09,67.09l0 67.11c0,36.9 -30.19,67.09 -67.09,67.09l-5645.83 0c-36.91,0 -67.09,-30.19 -67.09,-67.09l0 -67.11c0,-36.89 30.18,-67.09 67.09,-67.09z"/>
  <path class="fil5" d="M5574.36 5517.04l980.84 0c101.04,0 183.71,82.67 183.71,183.71l0 0c0,101.04 -82.67,183.71 -183.71,183.71l-980.84 0c-101.04,0 -183.71,-82.67 -183.71,-183.71l0 0c0,-101.04 82.67,-183.71 183.71,-183.71z"/>
  <path class="fil6" d="M5689.16 5705.08l-35 0 0 45.03 35.57 0c6.16,0 11.23,-2.08 15.27,-6.28 4.01,-4.2 6,-9.3 5.94,-15.24 0,-5.96 -2.05,-11.38 -6.13,-16.25 -4.14,-4.84 -9.37,-7.25 -15.65,-7.25zm-35 -54.08l0 38.49 32.1 0c5.4,0 9.79,-1.89 13.12,-5.64 3.08,-3.82 4.62,-8.59 4.62,-14.33 0,-5.78 -1.7,-10.26 -5.1,-13.54 -3.41,-3.24 -8.25,-4.91 -14.53,-4.97l-30.22 0zm67.74 17.65c0,14.18 -5.42,23.38 -16.3,27.61 6.93,1.51 12.55,5.58 16.81,12.19 4.26,6.61 6.41,13.32 6.41,20.04 0,10.78 -3.52,19.86 -10.55,27.27 -7.02,7.41 -16.42,11.09 -28.13,11.09l-53.88 0 0 -132.6 49.78 0c10.94,0 19.63,3.08 26.14,9.27 6.48,6.16 9.72,14.53 9.72,25.12zm112.77 52.8l0 -87.19 17.89 0 0 87.05c0,14.12 -4.72,25.57 -14.15,34.43 -9.46,8.68 -20.94,13.05 -34.38,13.05 -13.47,0 -24.89,-4.37 -34.29,-13.05 -9.33,-8.86 -13.98,-20.31 -13.98,-34.43l0 -87.05 17.9 0 0 87.19c0,8.97 2.99,16.25 8.95,21.84 5.97,5.58 13.15,8.37 21.52,8.37 8.28,0 15.47,-2.79 21.49,-8.37 6.03,-5.58 9.05,-12.86 9.05,-21.84zm103.86 45.41l-17.9 0 0 -60.97 -50.26 -71.63 21.43 0 37.78 53.67 38.27 -53.67 21.52 0 -50.84 71.63 0 60.97zm215.31 -132.6l0 132.6 -17.13 0 -60.42 -99.88 0 99.88 -17.91 0 0 -132.6 17.71 0 59.85 99.14 0 -99.14 17.89 0zm129.52 30.5c-9.53,-9.94 -21.17,-14.91 -34.93,-14.91 -13.79,0 -25.43,4.97 -34.96,14.91 -9.53,9.94 -14.27,22.01 -14.27,36.21 0,14.24 4.69,26.24 14.08,36.05 9.4,9.75 21.07,14.63 35.06,14.63 13.95,0 25.66,-4.91 35.12,-14.73 9.46,-9.81 14.14,-21.81 14.07,-36.05 0,-14.15 -4.72,-26.17 -14.17,-36.12zm-102.06 36.02c0,-18.83 6.45,-34.89 19.37,-48.14 12.93,-13.27 28.84,-19.92 47.73,-19.92 18.92,0 34.83,6.61 47.69,19.86 12.89,13.21 19.34,29.31 19.34,48.3 0,19.03 -6.45,35.06 -19.34,48.21 -12.86,13.12 -28.77,19.69 -47.69,19.69 -18.89,0 -34.8,-6.64 -47.73,-19.92 -12.92,-13.32 -19.37,-29.32 -19.37,-48.08zm261.6 37.36l33.42 -103.89 16.97 0 -42.62 132.6 -15.59 0 -23.44 -82.69 -23.26 82.69 -17.89 0 -42.54 -132.6 19.25 0 33.46 104.25 24.47 -86.32 13.34 -0.03 24.45 85.98z"/>
  <path class="fil5" d="M3917.84 5517.04l980.84 0c101.04,0 183.71,82.67 183.71,183.71l0 0c0,101.04 -82.67,183.71 -183.71,183.71l-980.84 0c-101.04,0 -183.71,-82.67 -183.71,-183.71l0 0c0,-101.04 82.67,-183.71 183.71,-183.71z"/>
  <path class="fil6" d="M4032.64 5705.08l-35 0 0 45.03 35.57 0c6.16,0 11.23,-2.08 15.27,-6.28 4.01,-4.2 6,-9.3 5.94,-15.24 0,-5.96 -2.05,-11.38 -6.13,-16.25 -4.14,-4.84 -9.37,-7.25 -15.65,-7.25zm-35 -54.08l0 38.49 32.1 0c5.4,0 9.79,-1.89 13.12,-5.64 3.08,-3.82 4.62,-8.59 4.62,-14.33 0,-5.78 -1.7,-10.26 -5.1,-13.54 -3.41,-3.24 -8.25,-4.91 -14.53,-4.97l-30.22 0zm67.74 17.65c0,14.18 -5.42,23.38 -16.3,27.61 6.93,1.51 12.55,5.58 16.81,12.19 4.26,6.61 6.41,13.32 6.41,20.04 0,10.78 -3.52,19.86 -10.55,27.27 -7.02,7.41 -16.42,11.09 -28.13,11.09l-53.88 0 0 -132.6 49.78 0c10.94,0 19.63,3.08 26.14,9.27 6.48,6.16 9.72,14.53 9.72,25.12zm112.77 52.8l0 -87.19 17.89 0 0 87.05c0,14.12 -4.72,25.57 -14.15,34.43 -9.46,8.68 -20.94,13.05 -34.38,13.05 -13.47,0 -24.89,-4.37 -34.29,-13.05 -9.33,-8.86 -13.98,-20.31 -13.98,-34.43l0 -87.05 17.9 0 0 87.19c0,8.97 2.99,16.25 8.95,21.84 5.97,5.58 13.15,8.37 21.52,8.37 8.28,0 15.47,-2.79 21.49,-8.37 6.03,-5.58 9.05,-12.86 9.05,-21.84zm103.86 45.41l-17.9 0 0 -60.97 -50.26 -71.63 21.43 0 37.78 53.67 38.27 -53.67 21.52 0 -50.84 71.63 0 60.97zm215.31 -132.6l0 132.6 -17.13 0 -60.42 -99.88 0 99.88 -17.91 0 0 -132.6 17.71 0 59.85 99.14 0 -99.14 17.89 0zm129.52 30.5c-9.53,-9.94 -21.17,-14.91 -34.93,-14.91 -13.79,0 -25.43,4.97 -34.96,14.91 -9.53,9.94 -14.27,22.01 -14.27,36.21 0,14.24 4.69,26.24 14.08,36.05 9.4,9.75 21.07,14.63 35.06,14.63 13.95,0 25.66,-4.91 35.12,-14.73 9.46,-9.81 14.14,-21.81 14.07,-36.05 0,-14.15 -4.72,-26.17 -14.17,-36.12zm-102.06 36.02c0,-18.83 6.45,-34.89 19.37,-48.14 12.93,-13.27 28.84,-19.92 47.73,-19.92 18.92,0 34.83,6.61 47.69,19.86 12.89,13.21 19.34,29.31 19.34,48.3 0,19.03 -6.45,35.06 -19.34,48.21 -12.86,13.12 -28.77,19.69 -47.69,19.69 -18.89,0 -34.8,-6.64 -47.73,-19.92 -12.92,-13.32 -19.37,-29.32 -19.37,-48.08zm261.6 37.36l33.42 -103.89 16.97 0 -42.62 132.6 -15.59 0 -23.44 -82.69 -23.26 82.69 -17.89 0 -42.54 -132.6 19.25 0 33.46 104.25 24.47 -86.32 13.34 -0.03 24.45 85.98z"/>
  <path class="fil6" d="M7339.29 5705.08l-34.99 0 0 45.03 35.57 0c6.16,0 11.23,-2.08 15.27,-6.28 4.01,-4.2 6,-9.3 5.93,-15.24 0,-5.96 -2.05,-11.38 -6.12,-16.25 -4.14,-4.84 -9.37,-7.25 -15.65,-7.25zm-34.99 -54.08l0 38.49 32.1 0c5.4,0 9.79,-1.89 13.12,-5.64 3.08,-3.82 4.62,-8.59 4.62,-14.33 0,-5.78 -1.7,-10.26 -5.1,-13.54 -3.41,-3.24 -8.25,-4.91 -14.54,-4.97l-30.21 0zm67.74 17.65c0,14.18 -5.42,23.38 -16.3,27.61 6.93,1.51 12.54,5.58 16.81,12.19 4.26,6.61 6.41,13.32 6.41,20.04 0,10.78 -3.53,19.86 -10.55,27.27 -7.02,7.41 -16.42,11.09 -28.13,11.09l-53.88 0 0 -132.6 49.78 0c10.94,0 19.63,3.08 26.14,9.27 6.48,6.16 9.72,14.53 9.72,25.12zm112.77 52.8l0 -87.19 17.89 0 0 87.05c0,14.12 -4.72,25.57 -14.15,34.43 -9.46,8.68 -20.94,13.05 -34.38,13.05 -13.47,0 -24.89,-4.37 -34.29,-13.05 -9.33,-8.86 -13.98,-20.31 -13.98,-34.43l0 -87.05 17.89 0 0 87.19c0,8.97 2.99,16.25 8.96,21.84 5.97,5.58 13.15,8.37 21.52,8.37 8.28,0 15.46,-2.79 21.49,-8.37 6.02,-5.58 9.05,-12.86 9.05,-21.84zm103.86 45.41l-17.9 0 0 -60.97 -50.26 -71.63 21.43 0 37.79 53.67 38.27 -53.67 21.52 0 -50.84 71.63 0 60.97zm215.31 -132.6l0 132.6 -17.13 0 -60.42 -99.88 0 99.88 -17.91 0 0 -132.6 17.71 0 59.85 99.14 0 -99.14 17.9 0zm129.52 30.5c-9.53,-9.94 -21.16,-14.91 -34.92,-14.91 -13.79,0 -25.44,4.97 -34.97,14.91 -9.52,9.94 -14.27,22.01 -14.27,36.21 0,14.24 4.68,26.24 14.07,36.05 9.4,9.75 21.08,14.63 35.06,14.63 13.95,0 25.66,-4.91 35.12,-14.73 9.46,-9.81 14.15,-21.81 14.08,-36.05 0,-14.15 -4.72,-26.17 -14.18,-36.12zm-102.06 36.02c0,-18.83 6.45,-34.89 19.37,-48.14 12.92,-13.27 28.84,-19.92 47.73,-19.92 18.92,0 34.83,6.61 47.69,19.86 12.89,13.21 19.34,29.31 19.34,48.3 0,19.03 -6.45,35.06 -19.34,48.21 -12.86,13.12 -28.77,19.69 -47.69,19.69 -18.89,0 -34.8,-6.64 -47.73,-19.92 -12.92,-13.32 -19.37,-29.32 -19.37,-48.08zm261.6 37.36l33.43 -103.89 16.97 0 -42.62 132.6 -15.59 0 -23.45 -82.69 -23.25 82.69 -17.9 0 -42.53 -132.6 19.25 0 33.46 104.25 24.47 -86.32 13.34 -0.03 24.44 85.98z"/>
  <path class="fil6" d="M8989.42 5705.08l-35 0 0 45.03 35.57 0c6.16,0 11.23,-2.08 15.27,-6.28 4.01,-4.2 6,-9.3 5.94,-15.24 0,-5.96 -2.05,-11.38 -6.13,-16.25 -4.13,-4.84 -9.37,-7.25 -15.65,-7.25zm-35 -54.08l0 38.49 32.11 0c5.39,0 9.79,-1.89 13.12,-5.64 3.08,-3.82 4.62,-8.59 4.62,-14.33 0,-5.78 -1.7,-10.26 -5.1,-13.54 -3.41,-3.24 -8.25,-4.91 -14.53,-4.97l-30.22 0zm67.74 17.65c0,14.18 -5.42,23.38 -16.29,27.61 6.92,1.51 12.54,5.58 16.81,12.19 4.26,6.61 6.41,13.32 6.41,20.04 0,10.78 -3.52,19.86 -10.55,27.27 -7.02,7.41 -16.42,11.09 -28.13,11.09l-53.88 0 0 -132.6 49.78 0c10.94,0 19.63,3.08 26.14,9.27 6.48,6.16 9.72,14.53 9.72,25.12zm112.77 52.8l0 -87.19 17.89 0 0 87.05c0,14.12 -4.72,25.57 -14.14,34.43 -9.46,8.68 -20.95,13.05 -34.39,13.05 -13.47,0 -24.89,-4.37 -34.29,-13.05 -9.33,-8.86 -13.98,-20.31 -13.98,-34.43l0 -87.05 17.9 0 0 87.19c0,8.97 2.99,16.25 8.95,21.84 5.97,5.58 13.15,8.37 21.52,8.37 8.28,0 15.47,-2.79 21.49,-8.37 6.03,-5.58 9.05,-12.86 9.05,-21.84zm103.86 45.41l-17.89 0 0 -60.97 -50.26 -71.63 21.43 0 37.78 53.67 38.27 -53.67 21.52 0 -50.84 71.63 0 60.97zm215.31 -132.6l0 132.6 -17.13 0 -60.42 -99.88 0 99.88 -17.9 0 0 -132.6 17.71 0 59.85 99.14 0 -99.14 17.89 0zm129.52 30.5c-9.53,-9.94 -21.17,-14.91 -34.93,-14.91 -13.79,0 -25.43,4.97 -34.96,14.91 -9.53,9.94 -14.27,22.01 -14.27,36.21 0,14.24 4.69,26.24 14.08,36.05 9.4,9.75 21.07,14.63 35.06,14.63 13.95,0 25.66,-4.91 35.12,-14.73 9.46,-9.81 14.15,-21.81 14.08,-36.05 0,-14.15 -4.72,-26.17 -14.18,-36.12zm-102.06 36.02c0,-18.83 6.45,-34.89 19.37,-48.14 12.93,-13.27 28.84,-19.92 47.73,-19.92 18.92,0 34.83,6.61 47.69,19.86 12.89,13.21 19.34,29.31 19.34,48.3 0,19.03 -6.45,35.06 -19.34,48.21 -12.86,13.12 -28.77,19.69 -47.69,19.69 -18.89,0 -34.8,-6.64 -47.73,-19.92 -12.92,-13.32 -19.37,-29.32 -19.37,-48.08zm261.6 37.36l33.43 -103.89 16.97 0 -42.63 132.6 -15.59 0 -23.44 -82.69 -23.26 82.69 -17.89 0 -42.54 -132.6 19.25 0 33.46 104.25 24.47 -86.32 13.35 -0.03 24.44 85.98z"/>
  <g id="_2096733725792">
   <polyline class="fil3 str0" points="3377.16,4076.55 3295.65,4153.4 3378.71,4235.69 "/>
   <line class="fil3 str0" x1="3295.65" y1="4153.4" x2="3523.68" y2= "4154.37" />
  </g>
  <path class="fil0" d="M72.9 4397.05c-51.31,2.87 -74.82,30.97 -71.98,83.05l-0.92 1415.61 139.86 1.49 492.56 5.27 177 1.89 495.09 5.29 304.63 3.25 497.55 5.31 684.09 7.31c11.95,-131.5 119.26,-234.41 249.89,-234.41 132.39,0 240.84,105.71 250.32,239.75l163.2 1.75 -12.92 -180.88 -57.21 -29.53c64.59,-265.22 16.04,-556.76 -131,-871.18l48.45 2.77 -5.08 -56.76 -319.76 -4.63c-60.5,-230.51 -190.19,-325.38 -373.75,-314.7l-6.46 1213.55 -27.69 0 0.01 -1243.55 -82.12 -60.46 -2413.76 9.81zm115.34 95.04l2203.76 0c46.71,0 84.9,38.2 84.9,84.91l0 992.98c0,46.71 -38.2,84.9 -84.9,84.9l-2203.76 0c-46.7,0 -84.9,-38.2 -84.9,-84.9l0 -992.98c0,-46.71 38.2,-84.91 84.9,-84.91z"/>
  <polygon class="fil7 str1" points="2769.09,4873.98 3169.61,4875.82 3269.27,5287.42 2770.94,5209.9 "/>
  <path class="fil8 str1" d="M2626.97 4527.91c152.27,25.57 243.01,110.07 279.62,246.4"/>
  <polygon class="fil7 str1" points="2634.37,4866.58 2662.05,4866.58 2662.05,5564.25 2634.37,5564.25 "/>
  <polygon class="fil7 str1" points="2762.64,5308.62 2949.98,5308.62 2949.98,5385.22 2762.64,5385.22 "/>
  <polygon class="fil7 str1" points="3336.65,5545.79 3311.73,5545.79 3311.73,5562.86 3278.1,5562.86 3278.1,5702.21 3311.73,5702.21 3311.73,5719.29 3336.65,5719.29 "/>
  <path class="fil7 str1" d="M3380.49 5304l-45.22 1.85c-22.2,-147.57 -51.58,-292.08 -111.9,-431.67l15.46 -2.54c65.04,134.63 108.62,278.02 141.66,432.35z"/>
  <path class="fil7 str1" d="M500.07 5691.1c138.63,0 251,115.9 251,258.86 0,142.97 -112.38,258.86 -251,258.86 -138.63,0 -251.01,-115.89 -251.01,-258.86 0,-142.96 112.38,-258.86 251.01,-258.86z"/>
  <path class="fil9 str1" d="M500.07 5833.22c62.56,0 113.27,52.27 113.27,116.74 0,64.47 -50.71,116.74 -113.27,116.74 -62.57,0 -113.28,-52.27 -113.28,-116.74 0,-64.47 50.71,-116.74 113.28,-116.74z"/>
  <path class="fil7 str1" d="M1321.53 5691.1c138.63,0 251.01,115.9 251.01,258.86 0,142.97 -112.38,258.86 -251.01,258.86 -138.63,0 -251.01,-115.89 -251.01,-258.86 0,-142.96 112.38,-258.86 251.01,-258.86z"/>
  <path class="fil9 str1" d="M1321.53 5833.22c62.56,0 113.28,52.27 113.28,116.74 0,64.47 -50.72,116.74 -113.28,116.74 -62.56,0 -113.28,-52.27 -113.28,-116.74 0,-64.47 50.72,-116.74 113.28,-116.74z"/>
  <path class="fil10" d="M10947.94 3657.62l1684.87 0c58.57,0 106.48,47.91 106.48,106.48l0 989.88c0,58.57 -47.91,106.49 -106.48,106.49l-1684.87 0c-58.57,0 -106.48,-47.92 -106.48,-106.49l0 -989.88c0,-58.57 47.91,-106.48 106.48,-106.48z"/>
  <path class="fil11 str1" d="M2122.56 5691.1c138.63,0 251.01,115.9 251.01,258.86 0,142.97 -112.38,258.86 -251.01,258.86 -138.63,0 -251.01,-115.89 -251.01,-258.86 0,-142.96 112.38,-258.86 251.01,-258.86z"/>
  <path class="fil9 str1" d="M2122.56 5833.22c62.56,0 113.28,52.27 113.28,116.74 0,64.47 -50.72,116.74 -113.28,116.74 -62.56,0 -113.28,-52.27 -113.28,-116.74 0,-64.47 50.72,-116.74 113.28,-116.74z"/>
  <path class="fil7" d="M2962.37 5691.1c138.63,0 251.01,115.9 251.01,258.86 0,142.97 -112.38,258.86 -251.01,258.86 -138.63,0 -251.01,-115.89 -251.01,-258.86 0,-142.96 112.38,-258.86 251.01,-258.86z"/>
  <path class="fil12 str1" d="M2962.37 5833.22c62.56,0 113.28,52.27 113.28,116.74 0,64.47 -50.72,116.74 -113.28,116.74 -62.56,0 -113.28,-52.27 -113.28,-116.74 0,-64.47 50.72,-116.74 113.28,-116.74z"/>
  <path class="fil8 str2" d="M2850.7 5769.07c157.6,-102.77 382.26,54.47 301.77,267.63"/>
  <path class="fil13 str3" d="M188.25 4492.09l2203.76 0c46.69,0 84.9,38.2 84.9,84.91l0 992.98c0,46.71 -38.21,84.9 -84.9,84.9l-2203.76 0c-46.7,0 -84.9,-38.2 -84.9,-84.9l0 -992.98c0,-46.71 38.2,-84.91 84.9,-84.91z"/>
  <path class="fil5" d="M188.25 4492.09l2203.76 0c46.71,0 84.9,38.2 84.9,84.91l0 992.98c0,46.71 -38.2,84.9 -84.9,84.9l-2203.76 0c-46.7,0 -84.9,-38.2 -84.9,-84.9l0 -992.98c0,-46.71 38.2,-84.91 84.9,-84.91z"/>
  <g id="_2097199298576">
   <polygon class="fil14" points="2978.74,418.74 11572.25,418.74 13318.28,1537.22 1265.96,1548.28 "/>
   <polygon class="fil7" points="3984.66,418.74 2615.16,1547.05 3938.52,1545.83 4907.5,418.74 "/>
   <polygon class="fil7" points="5868.18,418.74 5284.01,1544.6 6626.77,1543.36 6820.56,418.74 "/>
   <polygon class="fil7" points="7762.76,418.74 7974.09,1542.13 9312.21,1540.9 8711.43,418.74 "/>
   <polygon class="fil7" points="9671.12,418.74 10646.07,1539.68 11966.88,1538.46 10622.53,418.74 "/>
   <path class="fil15" d="M1265.96 1541.31l1352.98 1.03c7.12,539.67 -262.93,792.43 -816.91,751.3 -368.62,-54 -556.29,-299.67 -536.07,-752.33z"/>
   <path class="fil16" d="M2618.31 1541.31l1318.48 1.03c6.94,539.67 -256.22,792.43 -796.08,751.3 -359.22,-54 -542.11,-299.67 -522.4,-752.33z"/>
   <path class="fil15" d="M3940.25 1541.31l1347.56 1.03c7.09,539.67 -261.88,792.43 -813.64,751.3 -367.14,-54 -554.06,-299.67 -533.92,-752.33z"/>
   <path class="fil16" d="M5285.74 1541.31l1340.2 1.03c7.05,539.67 -260.45,792.43 -809.19,751.3 -365.13,-54 -551.04,-299.67 -531,-752.33z"/>
   <path class="fil15" d="M6630.34 1541.31l1342.95 1.03c7.07,539.67 -260.98,792.43 -810.85,751.3 -365.88,-54 -552.17,-299.67 -532.09,-752.33z"/>
   <path class="fil16" d="M7977.28 1541.31l1335.1 1.03c7.03,539.67 -259.46,792.43 -806.11,751.3 -363.74,-54 -548.93,-299.67 -528.98,-752.33z"/>
   <path class="fil15" d="M9315.45 1534.33l1330.4 1.04c7,539.67 -258.54,792.43 -803.28,751.3 -362.46,-54 -547.01,-299.67 -527.12,-752.33z"/>
   <path class="fil16" d="M10648.33 1534.33l1321.75 1.04c6.96,539.67 -256.86,792.43 -798.06,751.3 -360.1,-54 -543.45,-299.67 -523.69,-752.33z"/>
   <path class="fil15" d="M11969.36 1534.33l1351.74 1.04c7.12,539.67 -262.69,792.43 -816.16,751.3 -368.28,-54 -555.78,-299.67 -535.58,-752.33z"/>
  </g>
  <path class="fil5" d="M11769.05 6301.5c159.86,-11.78 299.02,108.26 310.8,268.14 11.79,159.88 -108.28,299.02 -268.14,310.8 -159.86,11.78 -299.03,-108.26 -310.81,-268.14 -11.78,-159.88 108.28,-299.03 268.14,-310.81z"/>
  <polyline class="fil3 str4" points="11673.31,6576.23 11774.62,6662.46 11907.44,6514.06 "/>
  <path class="fil6" d="M11035.63 7088.13l-33.28 0 0 47.3 32.3 0c7.03,-0.06 12.39,-2.23 16.14,-6.56 3.71,-4.32 5.61,-9.91 5.67,-16.81 0,-6.9 -1.78,-12.67 -5.31,-17.27 -3.69,-4.45 -8.87,-6.66 -15.53,-6.66zm-50.4 110.8l0 -126.82 50.58 0c12.55,0 21.9,3.87 28.16,11.6 6.41,7.52 9.6,16.87 9.6,28.16 0,11.32 -3.19,20.74 -9.54,28.25 -6.38,7.55 -15.8,11.32 -28.28,11.32l-33.41 0 0 47.49 -17.12 0zm167.86 -22.27c5.52,-5.16 8.29,-12.09 8.29,-20.83 0,-8.74 -2.88,-15.65 -8.62,-20.68 -5.76,-5.03 -12.55,-7.58 -20.34,-7.64 -7.82,0 -14.35,2.61 -19.63,7.82 -5.28,5.16 -7.92,11.9 -7.92,20.31 0,8.38 2.7,15.28 8.1,20.65 5.4,5.4 12.06,8.1 19.97,8.1 7.91,0 14.63,-2.58 20.15,-7.73zm25.22 22.27l-16.75 0 0 -13.19c-2.7,4.51 -6.78,8.13 -12.24,10.89 -5.46,2.76 -11.41,4.14 -17.92,4.14 -11.9,0 -22.24,-4.17 -30.98,-12.52 -8.44,-8.31 -12.67,-19.11 -12.67,-32.33 0,-13.25 4.17,-24.02 12.48,-32.27 8.35,-8.29 18.74,-12.45 31.2,-12.52 6.23,0 12.24,1.29 17.98,3.87 5.64,2.82 9.7,6.44 12.15,10.89l0 -12.91 16.75 0 0 85.95zm104.36 -85.95l-53.38 127.73 -17.51 0 18.04 -44.42 -34.42 -83.32 17.89 0 25.7 62.21 25.8 -62.21 17.88 0zm93.07 39.72l0 46.23 -16.75 0 0 -48.65c0,-7.12 -1.72,-12.61 -5.12,-16.51 -3.28,-4.05 -8.1,-6.07 -14.39,-6.07 -6.23,0 -11.63,2.11 -16.16,6.35 -4.57,4.23 -6.84,10.46 -6.84,18.65l0 46.23 -16.75 0 0 -85.95 16.75 0 0 13.07c1.99,-4.11 5.25,-7.49 9.82,-10.09 4.78,-2.61 9.14,-4.02 13.03,-4.26 16.54,-1.01 27.49,4.79 32.82,17.36 5.99,-11.93 15.86,-17.92 29.7,-17.92 10.77,0 18.96,3.32 24.54,9.97 5.73,6.53 8.62,15.92 8.62,28.13l0 49.69 -16.75 0 0 -48.47c0,-6.99 -1.75,-12.55 -5.22,-16.69 -3.74,-4.05 -8.8,-6.1 -15.15,-6.16 -6.32,-0.07 -11.6,2.2 -15.77,6.81 -4.2,4.6 -6.32,10.68 -6.38,18.28zm167.09 3.01c0,3.81 -0.06,5.98 -0.18,6.59l-69.76 0c0.83,6.93 3.9,12.67 9.17,17.24 5.1,4.2 10.8,6.32 17.15,6.32 12.42,0 21.1,-4.44 26.07,-13.35 0.12,0 0.31,0.04 0.55,0.16 0.21,0.12 0.64,0.34 1.26,0.64 0.7,0.31 1.66,0.67 2.85,1.07 1.2,0.43 2.12,0.8 2.7,1.11l7.03 2.61c-3.53,7.24 -8.87,12.82 -16.01,16.75 -7.12,3.96 -14.97,5.92 -23.53,5.92 -12.3,0 -22.79,-4.14 -31.53,-12.45 -8.31,-8.32 -12.45,-19.21 -12.45,-32.61 0,-13.44 4.14,-24.2 12.39,-32.33 8.28,-8.1 18.74,-12.18 31.44,-12.24 12.7,0 22.95,4.11 30.74,12.3 8.06,8.16 12.11,18.93 12.11,32.27zm-25.09 -23.49c-4.79,-4.11 -10.74,-6.17 -17.79,-6.17 -7.09,0 -13.16,2.05 -18.25,6.17 -5.03,4.38 -7.97,10.09 -8.8,17.03l53.29 0c-0.83,-6.94 -3.65,-12.64 -8.44,-17.03zm63.13 20.37l0 46.35 -16.75 0 0 -85.95 16.75 0 0 12.91c2.45,-4.78 6.13,-8.46 11.07,-10.98 4.91,-2.52 10.18,-3.78 15.8,-3.78 10.8,0 18.92,3.32 24.42,9.97 5.74,6.53 8.65,15.92 8.71,28.13l0 49.69 -16.75 0 0 -48.59c0,-7.24 -1.72,-12.82 -5.13,-16.72 -3.31,-4.08 -8.19,-6.11 -14.66,-6.11 -6.53,0 -12.09,2.12 -16.62,6.38 -4.57,4.23 -6.84,10.49 -6.84,18.68zm110.06 -71.08l0 31.47 18.04 0 0 14.91 -18.04 0 0 71.05 -16.75 0 0 -71.05 -15.46 0 0 -14.91 15.46 0 0 -31.47 16.75 0zm90.96 35.92c5.73,-4.2 12.67,-6.29 20.83,-6.29 8.13,0 14.88,2.09 20.19,6.26 5.34,4.17 8.37,10.12 9.08,17.86l-15.98 0c-0.49,-2.79 -1.96,-5.03 -4.42,-6.72 -2.7,-1.66 -5.67,-2.48 -8.99,-2.48 -3.28,0 -6.07,0.7 -8.34,2.11 -2.46,1.11 -3.99,3.04 -4.67,5.74 -0.64,2.7 -0.55,4.85 0.28,6.44 1.38,2.76 4.76,4.91 10.12,6.44l12.67 3.1c14.88,3.66 22.3,12.03 22.3,25.13 0,7.76 -3.22,14.02 -9.7,18.83 -6.53,4.64 -14.17,6.94 -22.92,6.94 -8.77,0 -16.38,-2.52 -22.85,-7.58 -6.47,-5.03 -9.76,-11.72 -9.88,-20.1l15.83 0c0.7,4.45 2.98,7.73 6.84,9.82 3.74,2.36 7.79,3.41 12.15,3.16 4.35,-0.25 7.73,-1.41 10.12,-3.5 2.39,-2.11 3.74,-4.66 4.05,-7.67 0.25,-3.01 -0.67,-5.4 -2.79,-7.21 -2.08,-1.81 -4.97,-3.13 -8.62,-3.96l-11.78 -2.73c-8.31,-2.23 -14.45,-5.52 -18.37,-9.91 -3.77,-4.54 -5.34,-10.21 -4.66,-17.06 0.64,-6.84 3.84,-12.36 9.51,-16.62zm133.68 41.96l0 -46.41 16.75 0 0 85.95 -16.75 0 0 -12.82c-2.45,4.72 -6.14,8.37 -11.08,10.89 -4.91,2.52 -10.12,3.78 -15.64,3.78 -10.65,0 -18.84,-3.35 -24.57,-10.06 -5.74,-6.72 -8.59,-16.04 -8.53,-27.97l0 -49.76 16.75 0 0 48.56c0,7.15 1.66,12.76 4.94,16.84 3.31,4.02 8.28,6.02 14.94,6.02 6.66,0 12.18,-2.09 16.63,-6.29 4.45,-4.2 6.62,-10.43 6.56,-18.72zm84.97 -48.25c13.26,0 24.11,4.64 32.61,13.87l-12.76 10.61c-5.37,-5.4 -12.12,-8.1 -20.22,-8.1 -8.07,0 -14.94,2.61 -20.59,7.85 -5.67,5.16 -8.53,12 -8.53,20.56 0,8.53 2.88,15.46 8.62,20.8 5.76,5.37 12.64,8.04 20.68,8.04 8.09,0 14.79,-2.82 20.03,-8.47l12.94 10.68c-8.56,9.2 -19.39,13.8 -32.43,13.8 -13.07,0 -24.11,-4.14 -33.13,-12.42 -8.99,-8.41 -13.47,-19.21 -13.47,-32.43 0,-13.22 4.42,-23.99 13.23,-32.27 8.83,-8.29 19.81,-12.45 33,-12.52zm94.17 0c13.26,0 24.11,4.64 32.61,13.87l-12.76 10.61c-5.37,-5.4 -12.12,-8.1 -20.22,-8.1 -8.07,0 -14.94,2.61 -20.59,7.85 -5.67,5.16 -8.53,12 -8.53,20.56 0,8.53 2.88,15.46 8.62,20.8 5.76,5.37 12.64,8.04 20.68,8.04 8.09,0 14.79,-2.82 20.03,-8.47l12.94 10.68c-8.56,9.2 -19.39,13.8 -32.43,13.8 -13.07,0 -24.11,-4.14 -33.13,-12.42 -8.99,-8.41 -13.47,-19.21 -13.47,-32.43 0,-13.22 4.42,-23.99 13.23,-32.27 8.83,-8.29 19.81,-12.45 33,-12.52zm134.63 44.57c0,3.81 -0.06,5.98 -0.18,6.59l-69.76 0c0.83,6.93 3.9,12.67 9.17,17.24 5.1,4.2 10.8,6.32 17.15,6.32 12.42,0 21.1,-4.44 26.07,-13.35 0.12,0 0.31,0.04 0.55,0.16 0.21,0.12 0.64,0.34 1.26,0.64 0.7,0.31 1.66,0.67 2.85,1.07 1.2,0.43 2.12,0.8 2.7,1.11l7.03 2.61c-3.53,7.24 -8.87,12.82 -16.01,16.75 -7.12,3.96 -14.97,5.92 -23.53,5.92 -12.3,0 -22.79,-4.14 -31.53,-12.45 -8.31,-8.32 -12.45,-19.21 -12.45,-32.61 0,-13.44 4.14,-24.2 12.39,-32.33 8.28,-8.1 18.74,-12.18 31.44,-12.24 12.7,0 22.95,4.11 30.74,12.3 8.06,8.16 12.11,18.93 12.11,32.27zm-25.09 -23.49c-4.79,-4.11 -10.74,-6.17 -17.79,-6.17 -7.09,0 -13.16,2.05 -18.25,6.17 -5.03,4.38 -7.97,10.09 -8.8,17.03l53.29 0c-0.83,-6.94 -3.65,-12.64 -8.44,-17.03zm52.4 -14.79c5.73,-4.2 12.67,-6.29 20.83,-6.29 8.13,0 14.88,2.09 20.19,6.26 5.34,4.17 8.37,10.12 9.08,17.86l-15.98 0c-0.49,-2.79 -1.96,-5.03 -4.42,-6.72 -2.7,-1.66 -5.67,-2.48 -8.99,-2.48 -3.28,0 -6.07,0.7 -8.34,2.11 -2.46,1.11 -3.99,3.04 -4.67,5.74 -0.64,2.7 -0.55,4.85 0.28,6.44 1.38,2.76 4.76,4.91 10.12,6.44l12.67 3.1c14.88,3.66 22.3,12.03 22.3,25.13 0,7.76 -3.22,14.02 -9.7,18.83 -6.53,4.64 -14.17,6.94 -22.92,6.94 -8.77,0 -16.38,-2.52 -22.85,-7.58 -6.47,-5.03 -9.76,-11.72 -9.88,-20.1l15.83 0c0.7,4.45 2.98,7.73 6.84,9.82 3.74,2.36 7.79,3.41 12.15,3.16 4.35,-0.25 7.73,-1.41 10.12,-3.5 2.39,-2.11 3.74,-4.66 4.05,-7.67 0.25,-3.01 -0.67,-5.4 -2.79,-7.21 -2.08,-1.81 -4.97,-3.13 -8.62,-3.96l-11.78 -2.73c-8.31,-2.23 -14.45,-5.52 -18.37,-9.91 -3.77,-4.54 -5.34,-10.21 -4.66,-17.06 0.64,-6.84 3.84,-12.36 9.51,-16.62zm80.8 0c5.73,-4.2 12.67,-6.29 20.83,-6.29 8.13,0 14.88,2.09 20.19,6.26 5.34,4.17 8.37,10.12 9.08,17.86l-15.98 0c-0.49,-2.79 -1.96,-5.03 -4.42,-6.72 -2.7,-1.66 -5.67,-2.48 -8.99,-2.48 -3.28,0 -6.07,0.7 -8.34,2.11 -2.46,1.11 -3.99,3.04 -4.67,5.74 -0.64,2.7 -0.55,4.85 0.28,6.44 1.38,2.76 4.76,4.91 10.12,6.44l12.67 3.1c14.88,3.66 22.3,12.03 22.3,25.13 0,7.76 -3.22,14.02 -9.7,18.83 -6.53,4.64 -14.17,6.94 -22.92,6.94 -8.77,0 -16.38,-2.52 -22.85,-7.58 -6.47,-5.03 -9.76,-11.72 -9.88,-20.1l15.83 0c0.7,4.45 2.98,7.73 6.84,9.82 3.74,2.36 7.79,3.41 12.15,3.16 4.35,-0.25 7.73,-1.41 10.12,-3.5 2.39,-2.11 3.74,-4.66 4.05,-7.67 0.25,-3.01 -0.67,-5.4 -2.79,-7.21 -2.08,-1.81 -4.97,-3.13 -8.62,-3.96l-11.78 -2.73c-8.31,-2.23 -14.45,-5.52 -18.37,-9.91 -3.77,-4.54 -5.34,-10.21 -4.66,-17.06 0.64,-6.84 3.84,-12.36 9.51,-16.62zm115.09 -51.2l9.39 0 0 16.01 -9.42 0c-10.76,0 -16.1,7.34 -15.98,22.02l0 8.71 19.87 0 0 14.91 -19.87 0 0 71.05 -16.75 0 0 -71.05 -16.75 0 0 -14.91 16.75 0 0 -8.71c0,-12.15 2.73,-21.5 8.22,-28.07 5.49,-6.59 13.68,-9.91 24.54,-9.97zm81.69 93.16l0 -46.41 16.75 0 0 85.95 -16.75 0 0 -12.82c-2.45,4.72 -6.14,8.37 -11.08,10.89 -4.91,2.52 -10.12,3.78 -15.64,3.78 -10.65,0 -18.84,-3.35 -24.57,-10.06 -5.74,-6.72 -8.59,-16.04 -8.53,-27.97l0 -49.76 16.75 0 0 48.56c0,7.15 1.66,12.76 4.94,16.84 3.31,4.02 8.28,6.02 14.94,6.02 6.66,0 12.18,-2.09 16.63,-6.29 4.45,-4.2 6.62,-10.43 6.56,-18.72zm44.45 39.54l0 -132.7 16.75 0 0 132.7 -16.75 0z"/>
  <path class="fil6" d="M11304.95 5513.46l-52.4 0 0 74.47 50.85 0c11.06,-0.1 19.51,-3.52 25.4,-10.33 5.84,-6.81 8.84,-15.6 8.93,-26.46 0,-10.87 -2.8,-19.95 -8.35,-27.19 -5.79,-7 -13.95,-10.48 -24.43,-10.48zm-79.35 174.44l0 -199.65 79.64 0c19.75,0 34.48,6.09 44.33,18.25 10.09,11.83 15.12,26.57 15.12,44.34 0,17.82 -5.02,32.64 -15.02,44.48 -10.05,11.88 -24.87,17.82 -44.52,17.82l-52.6 0 0 74.76 -26.94 0zm264.26 -35.06c8.7,-8.11 13.04,-19.03 13.04,-32.79 0,-13.77 -4.53,-24.63 -13.57,-32.55 -9.08,-7.92 -19.75,-11.93 -32.02,-12.03 -12.32,0 -22.6,4.11 -30.91,12.32 -8.31,8.11 -12.45,18.74 -12.45,31.97 0,13.19 4.25,24.05 12.75,32.5 8.5,8.5 18.98,12.75 31.44,12.75 12.46,0 23.04,-4.06 31.73,-12.17zm39.7 35.06l-26.37 0 0 -20.77c-4.25,7.1 -10.67,12.8 -19.27,17.15 -8.59,4.34 -17.97,6.52 -28.2,6.52 -18.74,0 -35.02,-6.56 -48.78,-19.71 -13.28,-13.09 -19.95,-30.08 -19.95,-50.9 0,-20.87 6.57,-37.82 19.66,-50.81 13.14,-13.04 29.5,-19.61 49.11,-19.71 9.8,0 19.27,2.03 28.3,6.08 8.88,4.44 15.26,10.14 19.12,17.15l0 -20.33 26.37 0 0 135.32zm164.3 -135.32l-84.03 201.1 -27.58 0 28.4 -69.93 -54.19 -131.17 28.16 0 40.47 97.94 40.62 -97.94 28.16 0zm146.52 62.54l0 72.78 -26.37 0 0 -76.6c0,-11.2 -2.7,-19.85 -8.06,-25.98 -5.17,-6.37 -12.75,-9.56 -22.65,-9.56 -9.8,0 -18.3,3.34 -25.45,10 -7.2,6.67 -10.77,16.47 -10.77,29.37l0 72.78 -26.37 0 0 -135.32 26.37 0 0 20.57c3.14,-6.47 8.26,-11.78 15.45,-15.89 7.53,-4.11 14.39,-6.32 20.52,-6.72 26.03,-1.59 43.27,7.53 51.67,27.34 9.42,-18.78 24.97,-28.2 46.75,-28.2 16.95,0 29.85,5.22 38.63,15.69 9.03,10.29 13.57,25.07 13.57,44.28l0 78.24 -26.37 0 0 -76.31c0,-11.01 -2.75,-19.75 -8.21,-26.27 -5.89,-6.37 -13.86,-9.61 -23.86,-9.71 -9.95,-0.1 -18.25,3.48 -24.83,10.72 -6.61,7.25 -9.95,16.81 -10.05,28.79zm263.06 4.73c0,5.99 -0.1,9.42 -0.29,10.39l-109.82 0c1.31,10.91 6.14,19.94 14.44,27.14 8.02,6.62 17,9.95 27,9.95 19.56,0 33.22,-7 41.05,-21.01 0.19,0 0.48,0.05 0.87,0.24 0.34,0.19 1.01,0.53 1.98,1.01 1.11,0.48 2.61,1.07 4.49,1.69 1.89,0.67 3.34,1.25 4.25,1.74l11.06 4.1c-5.55,11.4 -13.95,20.19 -25.2,26.37 -11.21,6.23 -23.57,9.32 -37.04,9.32 -19.36,0 -35.88,-6.52 -49.64,-19.61 -13.09,-13.09 -19.61,-30.23 -19.61,-51.34 0,-21.15 6.52,-38.1 19.51,-50.9 13.04,-12.75 29.5,-19.18 49.5,-19.27 19.99,0 36.12,6.47 48.39,19.37 12.7,12.85 19.07,29.79 19.07,50.8zm-39.5 -36.99c-7.53,-6.47 -16.91,-9.71 -28.01,-9.71 -11.15,0 -20.72,3.24 -28.73,9.71 -7.92,6.91 -12.56,15.89 -13.86,26.8l83.89 0c-1.3,-10.91 -5.75,-19.89 -13.28,-26.8zm99.39 32.07l0 72.97 -26.37 0 0 -135.32 26.37 0 0 20.33c3.86,-7.53 9.66,-13.33 17.44,-17.29 7.73,-3.96 16.03,-5.94 24.87,-5.94 17,0 29.8,5.22 38.44,15.69 9.03,10.29 13.62,25.07 13.72,44.28l0 78.24 -26.37 0 0 -76.5c0,-11.39 -2.7,-20.19 -8.06,-26.32 -5.22,-6.43 -12.89,-9.61 -23.08,-9.61 -10.29,0 -19.03,3.33 -26.17,10.05 -7.2,6.67 -10.77,16.52 -10.77,29.41zm173.28 -111.9l0 49.55 28.4 0 0 23.47 -28.4 0 0 111.85 -26.37 0 0 -111.85 -24.34 0 0 -23.47 24.34 0 0 -49.55 26.37 0zm-990.56 330.33c-13.48,-12.36 -30.04,-18.55 -49.65,-18.55 -19.6,0 -36.61,7.49 -50.95,22.51 -14.34,15.02 -21.49,33.13 -21.49,54.38 0,21.25 7.15,39.32 21.49,54.19 14.35,14.83 31.15,22.22 50.37,22.22 19.27,0 34.92,-4.83 46.99,-14.44 11.59,-9.61 17.92,-22.74 18.93,-39.45l-56.84 0 0 -23.47 87.56 0c0,33.23 -8.21,58.82 -24.63,76.84 -16.85,17.53 -39.84,26.32 -68.87,26.32 -29.07,0 -53.31,-10 -72.78,-29.99 -19.46,-19.99 -29.17,-44.09 -29.17,-72.29 0,-28.4 9.7,-52.59 29.17,-72.58 19.46,-19.99 42.89,-29.99 70.22,-29.99 27.34,0 50.37,8.79 69.06,26.37l-19.41 17.97zm171.68 122.57c8.7,-8.11 13.04,-19.03 13.04,-32.79 0,-13.77 -4.53,-24.63 -13.57,-32.55 -9.08,-7.92 -19.75,-11.93 -32.02,-12.03 -12.32,0 -22.6,4.11 -30.91,12.32 -8.31,8.11 -12.45,18.74 -12.45,31.97 0,13.19 4.25,24.05 12.75,32.5 8.5,8.5 18.98,12.75 31.44,12.75 12.46,0 23.04,-4.06 31.73,-12.17zm39.7 35.06l-26.37 0 0 -20.77c-4.25,7.1 -10.67,12.8 -19.27,17.15 -8.59,4.34 -17.97,6.52 -28.2,6.52 -18.74,0 -35.02,-6.56 -48.78,-19.71 -13.28,-13.09 -19.95,-30.08 -19.95,-50.9 0,-20.87 6.57,-37.82 19.66,-50.81 13.14,-13.04 29.5,-19.61 49.11,-19.71 9.8,0 19.27,2.03 28.3,6.08 8.88,4.44 15.26,10.14 19.12,17.15l0 -20.33 26.37 0 0 135.32zm80.21 -184.87l0 49.55 28.4 0 0 23.47 -28.4 0 0 111.85 -26.37 0 0 -111.85 -24.34 0 0 -23.47 24.34 0 0 -49.55 26.37 0zm185.93 116.82c0,5.99 -0.1,9.42 -0.29,10.39l-109.82 0c1.31,10.91 6.14,19.94 14.44,27.14 8.02,6.62 17,9.95 27,9.95 19.56,0 33.22,-7 41.05,-21.01 0.19,0 0.48,0.05 0.87,0.24 0.34,0.19 1.01,0.53 1.98,1.01 1.11,0.48 2.61,1.07 4.49,1.69 1.89,0.67 3.34,1.25 4.25,1.74l11.06 4.1c-5.55,11.4 -13.95,20.19 -25.2,26.37 -11.21,6.23 -23.57,9.32 -37.04,9.32 -19.36,0 -35.88,-6.52 -49.64,-19.61 -13.09,-13.09 -19.61,-30.23 -19.61,-51.34 0,-21.15 6.52,-38.1 19.51,-50.9 13.04,-12.75 29.5,-19.18 49.5,-19.27 19.99,0 36.12,6.47 48.39,19.37 12.7,12.85 19.07,29.79 19.07,50.8zm-39.5 -36.99c-7.53,-6.47 -16.91,-9.71 -28.01,-9.71 -11.15,0 -20.72,3.24 -28.73,9.71 -7.92,6.91 -12.56,15.89 -13.86,26.8l83.89 0c-1.3,-10.91 -5.75,-19.89 -13.28,-26.8zm273.83 -30.28l-50.08 135.32 -21.78 0 -36.8 -99.39 -35.64 99.39 -21.49 0 -51.53 -135.32 28.16 0 33.8 94.7 34 -94.7 25.45 0 33.96 94.7 33.8 -94.7 28.16 0zm121.84 100.26c8.7,-8.11 13.04,-19.03 13.04,-32.79 0,-13.77 -4.53,-24.63 -13.57,-32.55 -9.08,-7.92 -19.75,-11.93 -32.02,-12.03 -12.32,0 -22.6,4.11 -30.91,12.32 -8.31,8.11 -12.45,18.74 -12.45,31.97 0,13.19 4.25,24.05 12.75,32.5 8.5,8.5 18.98,12.75 31.44,12.75 12.46,0 23.04,-4.06 31.73,-12.17zm39.7 35.06l-26.37 0 0 -20.77c-4.25,7.1 -10.67,12.8 -19.27,17.15 -8.59,4.34 -17.97,6.52 -28.2,6.52 -18.74,0 -35.02,-6.56 -48.78,-19.71 -13.28,-13.09 -19.95,-30.08 -19.95,-50.9 0,-20.87 6.57,-37.82 19.66,-50.81 13.14,-13.04 29.5,-19.61 49.11,-19.71 9.8,0 19.27,2.03 28.3,6.08 8.88,4.44 15.26,10.14 19.12,17.15l0 -20.33 26.37 0 0 135.32zm164.3 -135.32l-84.03 201.1 -27.58 0 28.4 -69.93 -54.19 -131.17 28.16 0 40.47 97.94 40.62 -97.94 28.16 0z"/>
  <g id="_2098051454656">
   <g>
    <path class="fil17" d="M11265.37 4223.27l98.88 75.26 -10.62 2.64c-28.52,7.08 -58.24,-0.58 -78.97,-21.62 -14.85,-15.06 -23.06,-35.09 -23.14,-56.23 -0.21,-52.9 50.29,-90.63 101.15,-78.14l10.56 2.59 -97.85 75.5z"/>
    <path id="1" class="fil6" d="M11362.77 4300.47l-98.88 -75.26 2.95 -3.88 98.88 75.26 -0.89 4.31 -2.07 -0.43zm2.95 -3.88l4.05 3.08 -4.93 1.22 0.89 -4.31zm-12.68 2.21l10.62 -2.64 1.18 4.73 -10.62 2.64 -0.01 0 -1.17 -4.73zm-80.12 -17.54l3.47 -3.42 0 0 1.91 1.88 1.97 1.8 2 1.72 2.05 1.64 2.1 1.57 2.14 1.49 2.18 1.42 2.21 1.34 2.25 1.25 2.29 1.18 2.32 1.1 2.35 1.02 2.38 0.95 2.41 0.86 2.44 0.78 2.46 0.7 2.48 0.63 2.51 0.54 2.52 0.47 2.54 0.39 2.55 0.31 2.57 0.22 2.58 0.14 2.58 0.06 2.6 -0.02 2.6 -0.11 2.61 -0.19 2.61 -0.27 2.61 -0.35 2.61 -0.43 2.61 -0.52 2.61 -0.61 1.17 4.73 -2.75 0.63 -2.75 0.55 -2.76 0.46 -2.76 0.37 -2.76 0.28 -2.76 0.2 -2.76 0.11 -2.75 0.02 -2.74 -0.06 -2.73 -0.15 -2.73 -0.23 -2.7 -0.32 -2.7 -0.41 -2.67 -0.49 -2.66 -0.58 -2.63 -0.66 -2.61 -0.75 -2.58 -0.83 -2.57 -0.92 -2.53 -1.01 -2.49 -1.08 -2.47 -1.16 -2.43 -1.25 -2.4 -1.34 -2.35 -1.42 -2.31 -1.5 -2.27 -1.58 -2.22 -1.67 -2.19 -1.75 -2.13 -1.83 -2.08 -1.91 -2.03 -1.99 0 0zm-23.84 -57.93l4.87 -0.02 0 0 0.03 1.93 0.08 1.91 0.12 1.9 0.17 1.9 0.21 1.89 0.26 1.88 0.3 1.87 0.36 1.85 0.39 1.85 0.43 1.82 0.48 1.82 0.52 1.8 0.57 1.78 0.61 1.78 0.65 1.76 0.69 1.73 0.73 1.73 0.78 1.7 0.82 1.69 0.86 1.67 0.9 1.64 0.94 1.63 0.98 1.61 1.02 1.58 1.06 1.56 1.1 1.54 1.14 1.51 1.18 1.49 1.22 1.47 1.25 1.43 1.29 1.41 1.33 1.39 -3.47 3.42 -1.42 -1.47 -1.37 -1.49 -1.34 -1.53 -1.29 -1.55 -1.25 -1.58 -1.21 -1.61 -1.17 -1.64 -1.12 -1.66 -1.09 -1.68 -1.04 -1.7 -1 -1.73 -0.96 -1.75 -0.9 -1.78 -0.87 -1.79 -0.83 -1.81 -0.78 -1.84 -0.73 -1.85 -0.69 -1.87 -0.64 -1.88 -0.6 -1.9 -0.55 -1.92 -0.51 -1.93 -0.46 -1.95 -0.42 -1.96 -0.37 -1.98 -0.32 -1.98 -0.28 -2 -0.22 -2.01 -0.18 -2.01 -0.13 -2.02 -0.08 -2.03 -0.03 -2.04 0 0zm104.16 -80.52l-1.16 4.73 0 0 -4.63 -0.99 -4.61 -0.72 -4.6 -0.43 -4.57 -0.18 -4.52 0.08 -4.48 0.34 -4.43 0.58 -4.35 0.83 -4.29 1.07 -4.2 1.29 -4.12 1.52 -4.01 1.74 -3.91 1.95 -3.79 2.15 -3.65 2.35 -3.52 2.54 -3.38 2.73 -3.22 2.9 -3.05 3.08 -2.88 3.25 -2.7 3.4 -2.51 3.57 -2.31 3.7 -2.11 3.85 -1.89 3.98 -1.66 4.11 -1.43 4.25 -1.19 4.35 -0.93 4.47 -0.67 4.57 -0.4 4.67 -0.13 4.77 -4.87 0.02 0.13 -5.06 0.43 -4.97 0.72 -4.86 0.99 -4.75 1.26 -4.64 1.52 -4.51 1.77 -4.38 2.01 -4.23 2.24 -4.1 2.46 -3.94 2.67 -3.78 2.87 -3.62 3.07 -3.45 3.25 -3.27 3.41 -3.08 3.58 -2.89 3.73 -2.7 3.88 -2.49 4.02 -2.28 4.14 -2.07 4.26 -1.84 4.36 -1.61 4.46 -1.37 4.54 -1.13 4.63 -0.88 4.69 -0.62 4.76 -0.37 4.8 -0.08 4.84 0.18 4.87 0.47 4.9 0.76 4.9 1.05 0 0zm9.41 7.32l-10.56 -2.59 1.16 -4.73 10.56 2.59 0.91 4.29 -2.07 0.44zm1.16 -4.73l4.91 1.2 -4.01 3.09 -0.91 -4.29zm-99.92 75.94l97.85 -75.5 2.98 3.85 -97.85 75.5 -2.96 0.01 -0.01 -3.87zm0.01 3.87l-2.53 -1.93 2.52 -1.94 0.01 3.87z"/>
   </g>
   <g>
    <path class="fil17" d="M11395.72 4294.83l-97.85 -75.5 10.56 -2.6c50.86,-12.49 101.36,25.25 101.15,78.14 -0.08,21.15 -8.31,41.18 -23.14,56.24 -20.74,21.04 -50.45,28.69 -78.97,21.61l-10.62 -2.63 98.88 -75.26z"/>
    <path id="1" class="fil6" d="M11299.35 4217.41l97.85 75.5 -2.98 3.85 -97.85 -75.5 0.9 -4.29 2.07 0.44zm-2.98 3.85l-4.01 -3.09 4.91 -1.2 -0.9 4.29zm12.64 -2.16l-10.56 2.6 -1.17 -4.73 10.56 -2.6 0.01 0 1.16 4.73zm103 75.79l-4.87 -0.02 0 0 -0.13 -4.77 -0.4 -4.67 -0.67 -4.57 -0.93 -4.47 -1.19 -4.35 -1.43 -4.24 -1.66 -4.11 -1.89 -3.99 -2.11 -3.85 -2.31 -3.71 -2.51 -3.56 -2.7 -3.41 -2.88 -3.24 -3.05 -3.08 -3.22 -2.91 -3.37 -2.72 -3.53 -2.54 -3.66 -2.35 -3.78 -2.16 -3.91 -1.95 -4.01 -1.74 -4.12 -1.52 -4.2 -1.29 -4.29 -1.07 -4.35 -0.83 -4.43 -0.58 -4.48 -0.34 -4.52 -0.09 -4.57 0.18 -4.6 0.43 -4.61 0.72 -4.63 0.99 -1.16 -4.73 4.9 -1.05 4.9 -0.76 4.87 -0.47 4.84 -0.18 4.8 0.09 4.76 0.36 4.69 0.62 4.63 0.88 4.54 1.13 4.46 1.37 4.36 1.61 4.26 1.84 4.14 2.07 4.02 2.29 3.87 2.49 3.73 2.7 3.58 2.89 3.41 3.08 3.25 3.27 3.07 3.44 2.87 3.63 2.67 3.78 2.46 3.95 2.24 4.09 2.01 4.24 1.77 4.38 1.52 4.5 1.26 4.64 0.99 4.75 0.72 4.86 0.43 4.97 0.13 5.06 0 0zm-23.84 57.94l-3.47 -3.42 0 0 1.33 -1.39 1.29 -1.41 1.25 -1.43 1.22 -1.47 1.18 -1.49 1.13 -1.51 1.1 -1.54 1.06 -1.56 1.02 -1.58 0.98 -1.6 0.94 -1.63 0.9 -1.64 0.86 -1.67 0.82 -1.69 0.78 -1.71 0.73 -1.72 0.69 -1.74 0.65 -1.75 0.61 -1.78 0.57 -1.79 0.52 -1.81 0.48 -1.81 0.43 -1.83 0.39 -1.85 0.35 -1.85 0.3 -1.87 0.26 -1.88 0.22 -1.89 0.17 -1.9 0.12 -1.9 0.08 -1.91 0.03 -1.93 4.87 0.02 -0.03 2.04 -0.08 2.03 -0.13 2.02 -0.18 2.02 -0.23 2 -0.27 1.99 -0.31 1.99 -0.37 1.98 -0.42 1.95 -0.46 1.95 -0.51 1.93 -0.55 1.92 -0.6 1.9 -0.64 1.89 -0.69 1.87 -0.74 1.85 -0.78 1.83 -0.83 1.82 -0.87 1.79 -0.92 1.77 -0.95 1.75 -1 1.73 -1.04 1.71 -1.09 1.68 -1.12 1.66 -1.17 1.64 -1.2 1.61 -1.25 1.58 -1.29 1.55 -1.34 1.53 -1.37 1.49 -1.42 1.47 0 0zm-81.29 22.27l1.17 -4.73 0 0 2.61 0.61 2.61 0.52 2.61 0.43 2.61 0.36 2.61 0.27 2.61 0.19 2.6 0.11 2.6 0.02 2.58 -0.06 2.58 -0.14 2.58 -0.22 2.55 -0.3 2.54 -0.39 2.52 -0.47 2.51 -0.54 2.48 -0.63 2.46 -0.7 2.44 -0.78 2.41 -0.86 2.38 -0.95 2.35 -1.02 2.32 -1.1 2.29 -1.18 2.25 -1.25 2.21 -1.34 2.18 -1.42 2.14 -1.49 2.1 -1.57 2.05 -1.64 2 -1.72 1.97 -1.8 1.91 -1.88 3.47 3.42 -2.03 1.99 -2.08 1.91 -2.13 1.83 -2.19 1.75 -2.22 1.67 -2.27 1.58 -2.31 1.5 -2.35 1.42 -2.4 1.34 -2.43 1.25 -2.47 1.16 -2.49 1.08 -2.53 1.01 -2.57 0.92 -2.58 0.83 -2.61 0.75 -2.63 0.66 -2.66 0.58 -2.67 0.49 -2.7 0.41 -2.7 0.31 -2.72 0.23 -2.73 0.16 -2.74 0.06 -2.75 -0.02 -2.76 -0.11 -2.76 -0.2 -2.76 -0.28 -2.76 -0.38 -2.76 -0.46 -2.75 -0.55 -2.75 -0.63 0 0zm-9.45 -7.37l10.62 2.63 -1.17 4.73 -10.62 -2.63 -0.89 -4.31 2.06 -0.43zm-1.17 4.73l-4.94 -1.22 4.05 -3.08 0.89 4.31zm100.94 -75.69l-98.88 75.26 -2.95 -3.88 98.88 -75.26 2.96 0.01 -0.01 3.87zm0.01 -3.87l2.52 1.94 -2.53 1.93 0.01 -3.87z"/>
   </g>
  </g>
  <g>
   <g>
    <path class="fil17" d="M1065 4949.95l341.53 259.95 -36.66 9.1c-98.54,24.45 -201.17,-1.99 -272.79,-74.65 -51.26,-52.01 -79.65,-121.22 -79.95,-194.23 -0.73,-182.7 173.7,-313.06 349.38,-269.91l36.49 8.96 -338 260.78z"/>
    <path id="1" class="fil6" d="M1401.43 5216.6l-341.53 -259.95 10.19 -13.39 341.53 259.95 -3.07 14.86 -7.12 -1.47zm10.19 -13.39l13.97 10.64 -17.04 4.23 3.07 -14.86zm-43.78 7.63l36.66 -9.1 4.06 16.33 -36.66 9.1 -0.01 0 -4.05 -16.33zm-276.75 -60.58l11.98 -11.82 0 0 6.61 6.49 6.77 6.21 6.94 5.95 7.09 5.68 7.24 5.41 7.39 5.16 7.52 4.88 7.65 4.61 7.78 4.34 7.91 4.08 8.02 3.8 8.12 3.53 8.23 3.26 8.32 2.98 8.41 2.71 8.49 2.44 8.58 2.16 8.64 1.89 8.71 1.6 8.77 1.34 8.82 1.04 8.88 0.76 8.91 0.49 8.94 0.2 8.97 -0.08 9 -0.36 9 -0.65 9.02 -0.93 9.02 -1.22 9.02 -1.51 9.01 -1.79 9 -2.08 4.05 16.33 -9.5 2.2 -9.52 1.89 -9.54 1.6 -9.55 1.29 -9.54 0.99 -9.53 0.69 -9.53 0.38 -9.5 0.08 -9.47 -0.22 -9.45 -0.52 -9.4 -0.81 -9.36 -1.11 -9.3 -1.41 -9.24 -1.7 -9.18 -2.01 -9.09 -2.29 -9.02 -2.58 -8.93 -2.88 -8.84 -3.17 -8.74 -3.46 -8.63 -3.75 -8.52 -4.04 -8.39 -4.33 -8.28 -4.61 -8.14 -4.91 -7.99 -5.19 -7.85 -5.47 -7.7 -5.75 -7.52 -6.04 -7.36 -6.31 -7.19 -6.59 -7 -6.87 0 0zm-82.37 -200.11l16.83 -0.07 0 0 0.11 6.64 0.26 6.6 0.42 6.58 0.58 6.55 0.73 6.52 0.9 6.49 1.04 6.45 1.2 6.41 1.35 6.37 1.5 6.32 1.66 6.28 1.79 6.23 1.95 6.19 2.1 6.12 2.25 6.08 2.38 6.02 2.54 5.96 2.67 5.88 2.82 5.83 2.96 5.76 3.11 5.7 3.24 5.62 3.38 5.55 3.52 5.47 3.66 5.4 3.79 5.31 3.93 5.23 4.07 5.14 4.2 5.06 4.33 4.97 4.47 4.87 4.6 4.78 -11.98 11.82 -4.88 -5.08 -4.73 -5.17 -4.61 -5.27 -4.46 -5.37 -4.32 -5.47 -4.18 -5.55 -4.04 -5.65 -3.88 -5.73 -3.74 -5.81 -3.6 -5.9 -3.44 -5.98 -3.3 -6.05 -3.14 -6.12 -3.01 -6.19 -2.84 -6.27 -2.69 -6.33 -2.54 -6.4 -2.38 -6.45 -2.23 -6.52 -2.07 -6.57 -1.92 -6.62 -1.75 -6.67 -1.6 -6.72 -1.43 -6.76 -1.27 -6.81 -1.11 -6.85 -0.95 -6.88 -0.78 -6.93 -0.61 -6.96 -0.45 -6.98 -0.29 -7.01 -0.11 -7.03 0 0zm359.79 -278.12l-4.01 16.35 0 0 -15.98 -3.44 -15.94 -2.48 -15.87 -1.52 -15.77 -0.6 -15.63 0.3 -15.47 1.17 -15.28 2.03 -15.06 2.87 -14.8 3.68 -14.52 4.47 -14.21 5.25 -13.86 5.99 -13.48 6.73 -13.07 7.43 -12.63 8.12 -12.17 8.78 -11.65 9.42 -11.12 10.04 -10.56 10.64 -9.96 11.21 -9.34 11.76 -8.67 12.3 -7.99 12.8 -7.27 13.3 -6.53 13.76 -5.74 14.21 -4.93 14.63 -4.1 15.04 -3.22 15.42 -2.32 15.79 -1.39 16.14 -0.43 16.47 -16.83 0.07 0.45 -17.48 1.48 -17.14 2.47 -16.79 3.43 -16.41 4.35 -16.01 5.26 -15.57 6.11 -15.12 6.94 -14.65 7.74 -14.14 8.5 -13.62 9.23 -13.07 9.92 -12.51 10.58 -11.9 11.21 -11.3 11.81 -10.65 12.36 -10 12.9 -9.31 13.4 -8.61 13.86 -7.88 14.3 -7.14 14.7 -6.35 15.06 -5.56 15.41 -4.75 15.71 -3.91 15.97 -3.04 16.22 -2.16 16.42 -1.25 16.59 -0.31 16.73 0.64 16.83 1.62 16.91 2.62 16.94 3.64 0 0zm32.48 25.31l-36.49 -8.96 4.01 -16.35 36.49 8.96 3.13 14.83 -7.14 1.51zm4.01 -16.35l16.96 4.17 -13.83 10.67 -3.13 -14.83zm-345.14 262.29l338 -260.78 10.27 13.32 -338 260.78 -10.23 0.04 -0.04 -13.36zm0.04 13.36l-8.74 -6.65 8.7 -6.71 0.04 13.36z"/>
   </g>
   <g>
    <path class="fil17" d="M1515.25 5197.13l-338 -260.78 36.49 -8.96c175.67,-43.14 350.1,87.21 349.38,269.91 -0.3,73.02 -28.69,142.24 -79.96,194.25 -71.62,72.66 -174.25,99.1 -272.78,74.64l-36.66 -9.1 341.53 -259.95z"/>
    <path id="1" class="fil6" d="M1182.39 4929.68l338 260.78 -10.27 13.32 -338 -260.78 3.13 -14.83 7.14 1.51zm-10.27 13.32l-13.83 -10.67 16.96 -4.17 -3.13 14.83zm43.63 -7.45l-36.49 8.96 -4.01 -16.35 36.49 -8.96 0 0 4.01 16.35zm355.78 261.78l-16.83 -0.07 0 0 -0.43 -16.47 -1.39 -16.14 -2.32 -15.79 -3.22 -15.43 -4.1 -15.04 -4.93 -14.63 -5.74 -14.21 -6.53 -13.76 -7.27 -13.3 -7.99 -12.8 -8.67 -12.3 -9.34 -11.76 -9.96 -11.21 -10.56 -10.64 -11.12 -10.05 -11.65 -9.42 -12.16 -8.77 -12.63 -8.12 -13.07 -7.43 -13.48 -6.72 -13.86 -6 -14.21 -5.25 -14.51 -4.47 -14.8 -3.68 -15.06 -2.87 -15.28 -2.03 -15.47 -1.17 -15.63 -0.3 -15.76 0.6 -15.87 1.53 -15.94 2.47 -15.98 3.44 -4.01 -16.35 16.94 -3.64 16.91 -2.61 16.83 -1.63 16.72 -0.64 16.6 0.31 16.42 1.25 16.22 2.16 15.98 3.04 15.71 3.91 15.41 4.75 15.07 5.56 14.69 6.36 14.3 7.13 13.86 7.89 13.4 8.6 12.89 9.32 12.38 10 11.8 10.66 11.21 11.29 10.58 11.91 9.92 12.5 9.23 13.07 8.5 13.62 7.74 14.14 6.94 14.65 6.11 15.12 5.26 15.57 4.35 16.01 3.44 16.41 2.47 16.8 1.48 17.14 0.45 17.48 0 0zm-82.38 200.12l-11.98 -11.82 0 0 4.6 -4.78 4.47 -4.87 4.33 -4.97 4.2 -5.06 4.07 -5.14 3.93 -5.23 3.79 -5.31 3.66 -5.4 3.53 -5.47 3.38 -5.55 3.25 -5.62 3.1 -5.7 2.97 -5.76 2.82 -5.83 2.68 -5.9 2.54 -5.95 2.38 -6.02 2.25 -6.07 2.1 -6.13 1.95 -6.19 1.8 -6.23 1.66 -6.28 1.5 -6.32 1.35 -6.37 1.2 -6.41 1.04 -6.44 0.9 -6.49 0.73 -6.51 0.58 -6.55 0.42 -6.58 0.26 -6.6 0.11 -6.64 16.83 0.07 -0.11 7.03 -0.29 7.01 -0.45 6.98 -0.61 6.96 -0.78 6.92 -0.95 6.89 -1.11 6.84 -1.27 6.81 -1.43 6.76 -1.6 6.72 -1.75 6.68 -1.92 6.62 -2.07 6.56 -2.23 6.52 -2.38 6.46 -2.54 6.4 -2.69 6.34 -2.85 6.26 -3 6.2 -3.15 6.12 -3.29 6.05 -3.45 5.98 -3.6 5.9 -3.75 5.81 -3.88 5.73 -4.04 5.65 -4.18 5.55 -4.32 5.47 -4.46 5.37 -4.61 5.27 -4.73 5.17 -4.88 5.08 0 0zm-280.8 76.9l4.06 -16.33 0 0 9 2.08 9 1.8 9.01 1.51 9.03 1.22 9.01 0.93 9.01 0.64 8.99 0.36 8.97 0.08 8.94 -0.2 8.91 -0.49 8.87 -0.76 8.82 -1.05 8.77 -1.33 8.71 -1.61 8.65 -1.88 8.57 -2.16 8.49 -2.44 8.41 -2.71 8.32 -2.98 8.23 -3.25 8.12 -3.54 8.02 -3.8 7.9 -4.07 7.78 -4.34 7.65 -4.62 7.52 -4.87 7.39 -5.16 7.24 -5.41 7.09 -5.68 6.94 -5.95 6.77 -6.22 6.61 -6.48 11.98 11.82 -7 6.87 -7.19 6.6 -7.36 6.31 -7.52 6.04 -7.7 5.75 -7.85 5.47 -7.99 5.19 -8.14 4.9 -8.28 4.62 -8.4 4.32 -8.52 4.04 -8.63 3.75 -8.74 3.46 -8.84 3.17 -8.93 2.88 -9.02 2.58 -9.1 2.29 -9.18 2 -9.24 1.7 -9.3 1.4 -9.35 1.12 -9.41 0.81 -9.44 0.51 -9.47 0.22 -9.5 -0.08 -9.52 -0.39 -9.54 -0.68 -9.54 -0.99 -9.54 -1.29 -9.54 -1.59 -9.52 -1.9 -9.5 -2.2 0 0zm-32.6 -25.43l36.66 9.1 -4.06 16.33 -36.66 -9.1 -3.07 -14.86 7.12 -1.47zm-4.06 16.33l-17.04 -4.23 13.97 -10.64 3.07 14.86zm348.65 -261.42l-341.53 259.95 -10.19 -13.39 341.53 -259.95 10.23 0.04 -0.04 13.36zm0.04 -13.36l8.7 6.71 -8.74 6.65 0.04 -13.36z"/>
   </g>
  </g>
  <g>
   <path class="fil6" d="M11474.84 4235.28c-7.07,7.03 -10.63,16.39 -10.63,28.13 0,11.69 3.76,20.81 11.24,27.35 7.52,6.54 16.39,9.81 26.69,9.81 10.3,0 19.09,-3.43 26.33,-10.3 6.87,-6.83 10.3,-15.82 10.3,-26.98 0,-11.17 -3.6,-20.36 -10.79,-27.52 -7.23,-7.15 -16.15,-10.79 -26.65,-10.87 -10.55,-0.08 -19.38,3.39 -26.49,10.38zm-10.88 -29.88l0 18.03c3.76,-6.41 9.2,-11.36 16.39,-14.8 7.03,-3.8 14.88,-5.69 23.59,-5.69 15.98,0 29.52,5.56 40.56,16.72 11.08,11.04 16.6,25.43 16.6,43.13 0,17.7 -5.48,32.05 -16.48,43.09 -10.96,11 -24.53,16.51 -40.68,16.51 -8.71,0 -16.68,-1.72 -23.96,-5.15 -7.23,-3.43 -12.59,-8.26 -16.03,-14.39l0 51.81c0.37,13.29 -8.14,20.74 -22.32,20.96l0 -152.8c0.17,-14.92 10.05,-17.95 22.32,-17.42z"/>
   <path class="fil6" d="M11659.83 4292.94c7.36,-6.87 11.04,-16.1 11.04,-27.76 0,-11.65 -3.84,-20.84 -11.49,-27.55 -7.68,-6.7 -16.72,-10.09 -27.11,-10.18 -10.43,0 -19.13,3.48 -26.16,10.43 -7.03,6.87 -10.55,15.86 -10.55,27.07 0,11.16 3.6,20.36 10.79,27.51 7.19,7.2 16.06,10.79 26.61,10.79 10.55,0 19.5,-3.43 26.85,-10.3zm11.29 29.69l0 -17.58c-3.6,6.01 -9.03,10.83 -16.31,14.51 -7.28,3.68 -15.21,5.52 -23.88,5.52 -15.86,0 -29.64,-5.56 -41.29,-16.68 -11.24,-11.08 -16.88,-25.47 -16.88,-43.09 0,-17.66 5.56,-32.01 16.64,-43.01 11.12,-11.04 24.98,-16.6 41.57,-16.68 8.3,0 16.32,1.72 23.96,5.16 7.52,3.76 12.92,8.58 16.19,14.51 0.39,-13.52 8.74,-17.48 22.32,-17.21l0 95.1c-0.26,13.35 -8.5,18.97 -22.32,19.45z"/>
   <path class="fil6" d="M11904.97 4292.94c7.36,-6.87 11.03,-16.1 11.03,-27.76 0,-11.65 -3.84,-20.84 -11.49,-27.55 -7.68,-6.7 -16.72,-10.09 -27.1,-10.18 -10.43,0 -19.13,3.48 -26.17,10.43 -7.03,6.87 -10.55,15.86 -10.55,27.07 0,11.16 3.6,20.36 10.79,27.51 7.2,7.2 16.07,10.79 26.61,10.79 10.55,0 19.5,-3.43 26.86,-10.3zm11.28 29.69l0 -17.58c-3.6,6.01 -9.03,10.83 -16.31,14.51 -7.28,3.68 -15.21,5.52 -23.87,5.52 -15.86,0 -29.64,-5.56 -41.29,-16.68 -11.24,-11.08 -16.89,-25.47 -16.89,-43.09 0,-17.66 5.56,-32.01 16.64,-43.01 11.12,-11.04 24.98,-16.6 41.57,-16.68 8.3,0 16.32,1.72 23.96,5.16 7.52,3.76 12.92,8.58 16.19,14.51 0.39,-13.52 8.74,-17.48 22.32,-17.21l0 95.1c-0.26,13.35 -8.5,18.97 -22.32,19.45z"/>
   <path class="fil6" d="M12228.61 4292.94c7.36,-6.87 11.04,-16.1 11.04,-27.76 0,-11.65 -3.85,-20.84 -11.49,-27.55 -7.68,-6.7 -16.72,-10.09 -27.1,-10.18 -10.43,0 -19.13,3.48 -26.17,10.43 -7.03,6.87 -10.55,15.86 -10.55,27.07 0,11.16 3.6,20.36 10.79,27.51 7.2,7.2 16.07,10.79 26.61,10.79 10.55,0 19.5,-3.43 26.86,-10.3zm11.28 29.69l0 -17.58c-3.6,6.01 -9.03,10.83 -16.31,14.51 -7.28,3.68 -15.21,5.52 -23.87,5.52 -15.86,0 -29.64,-5.56 -41.29,-16.68 -11.24,-11.08 -16.89,-25.47 -16.89,-43.09 0,-17.66 5.56,-32.01 16.64,-43.01 11.12,-11.04 24.98,-16.6 41.58,-16.68 8.29,0 16.31,1.72 23.95,5.16 7.52,3.76 12.92,8.58 16.19,14.51 0.39,-13.52 8.74,-17.48 22.33,-17.21l0 95.1c-0.26,13.35 -8.5,18.97 -22.33,19.45z"/>
   <path class="fil6" d="M11729.09 4208.08l76.93 0 0 18.35 -69.46 74.85 69.46 0c-0.18,12.05 -6.19,20.93 -20.31,21.34l-80.54 0 0 -18.48 68.15 -74.73 -64.18 0c-0.37,-12.51 2.8,-21.01 19.96,-21.34z"/>
   <path class="fil6" d="M12051.13 4262.21l0 61.61c-13.6,0.58 -21.99,-2.54 -22.32,-18.88l0 -45.96c0,-9.49 -2.29,-16.8 -6.82,-21.99 -4.38,-5.4 -10.79,-8.09 -19.18,-8.09 -8.3,0 -15.5,2.82 -21.54,8.46 -6.09,5.64 -9.12,13.94 -9.12,24.86l0 42.84c-0.16,14 -9.05,18.34 -22.32,18.77l0 -94.64c0.1,-13.74 8.99,-19.59 22.32,-19.9l0 17.41c2.66,-5.47 6.99,-9.97 13.08,-13.45 6.38,-3.48 12.18,-5.35 17.38,-5.68 22.04,-1.35 36.63,6.38 43.74,23.14 7.97,-15.91 21.14,-23.88 39.57,-23.88 14.35,0 25.26,4.42 32.7,13.29 7.65,8.7 11.49,21.22 11.49,37.48l0 66.23c-13.25,-0.13 -22.14,-4.82 -22.32,-18.53l0 -46.06c0,-9.32 -2.33,-16.72 -6.95,-22.24 -4.99,-5.4 -11.73,-8.14 -20.2,-8.21 -8.42,-0.08 -15.45,2.94 -21.01,9.08 -5.6,6.13 -8.42,14.23 -8.5,24.36z"/>
   <path class="fil6" d="M12273.94 4322.81l0 -160.71c0.07,-11.49 9.68,-18.97 22.21,-19.64l0 158.09c0.02,12.85 -8.8,22.42 -22.21,22.27z"/>
   <path class="fil6" d="M12307.04 4322.81l0 -160.71c0.07,-11.49 9.68,-18.97 22.21,-19.64l0 158.09c0.02,12.85 -8.8,22.42 -22.21,22.27z"/>
  </g>
  <path class="fil8 str2" d="M388.4 5769.07c157.6,-102.77 382.26,54.47 301.77,267.63"/>
  <path class="fil8 str2" d="M1209.86 5769.07c157.6,-102.77 382.26,54.47 301.77,267.63"/>
  <path class="fil8 str2" d="M2010.89 5769.07c157.6,-102.77 382.26,54.47 301.77,267.63"/>
 </g>
</svg>
