<?xml version="1.0" encoding="UTF-8"?>
<!DOCTYPE svg PUBLIC "-//W3C//DTD SVG 1.1//EN" "http://www.w3.org/Graphics/SVG/1.1/DTD/svg11.dtd">
<!-- Creator: CorelDRAW 2018 (64-Bit Evaluation Version) -->
<svg xmlns="http://www.w3.org/2000/svg" xml:space="preserve" width="222.466mm" height="137.993mm" version="1.1" style="shape-rendering:geometricPrecision; text-rendering:geometricPrecision; image-rendering:optimizeQuality; fill-rule:evenodd; clip-rule:evenodd"
viewBox="0 0 13100.06 8125.82"
 xmlns:xlink="http://www.w3.org/1999/xlink">
 <defs>
  <style type="text/css">
   <![CDATA[
    .str3 {stroke:#F50A2B;stroke-width:4.49;stroke-miterlimit:22.9256;stroke-opacity:0.301961}
    .str1 {stroke:#1B9BD9;stroke-width:4.49;stroke-miterlimit:22.9256;stroke-opacity:0.850980}
    .str2 {stroke:#FBD13E;stroke-width:4.49;stroke-miterlimit:22.9256;stroke-opacity:0.850980}
    .str4 {stroke:#FBD13E;stroke-width:19.94;stroke-miterlimit:22.9256}
    .str0 {stroke:#FBD13E;stroke-width:14.96;stroke-miterlimit:22.9256}
    .fil3 {fill:none}
    .fil9 {fill:none}
    .fil5 {fill:#3B9CFF}
    .fil4 {fill:#C4E1FF}
    .fil2 {fill:#e9f4ff}
    .fil19 {fill:#FBD13E}
    .fil18 {fill:#3B9CFF;fill-rule:nonzero}
    .fil6 {fill:#FBD13E;fill-rule:nonzero}
    .fil14 {fill:#F50A2B;fill-opacity:0.301961}
    .fil17 {fill:#3B9CFF;fill-opacity:0.701961}
    .fil16 {fill:#FBD13E;fill-opacity:0.701961}
    .fil10 {fill:#FEFEFE;fill-opacity:0.850980}
    .fil12 {fill:#1B9BD9;fill-opacity:0.850980}
    .fil8 {fill:#3B9CFF;fill-opacity:0.850980}
    .fil13 {fill:#E7F2FC;fill-opacity:0.850980}
    .fil15 {fill:#FBD13E;fill-opacity:0.850980}
    .fil1 {fill:#e9f4ff;fill-opacity:0.960784}
    .fil11 {fill:#1B9BD9}
    .fil7 {fill:#C4E1FF}
    .fil0 {fill:#FBF0C8}
   ]]>
  </style>
 </defs>
 <g id="Layer_x0020_1">
  <metadata id="CorelCorpID_0Corel-Layer"/>
  <path class="fil0" d="M10594.02 2839.8c-296.82,-17.64 -344.89,73.72 -355.47,299.19l2.27 4239.95c-3.42,293.2 71.62,427.09 285.8,442.99l1885.31 4.59c306.05,22.33 412.64,-150.09 405.23,-433.81l0 -4223.29c-3.9,-266.33 -99.48,-343.76 -347.71,-341.99l-216.11 212.51 -1431.96 5.84 -227.37 -205.97z"/>
  <path class="fil1" d="M12522.29 7912.09l-1917.01 9.73c-409.93,10.22 -463.71,-190.48 -453.57,-564.29l1.9 -4321.98c21.18,-155.43 96.23,-250.69 232.22,-277.83l236.06 -0.11c68.76,27.19 96.54,202.6 286.77,202.09l1259.07 0.23c187.86,-37.72 169.79,-189.79 297.94,-204.44l209.03 5.78c142.04,20.29 216.61,160.64 218.5,321.9l2.67 4431.11c0.14,239.75 -104.02,396.44 -373.58,397.8zm-2151.18 -5366.77c-257.65,40.73 -407.82,206.89 -402.1,554.89l-12.77 4494.69c-7.94,355.64 198.38,512.92 555.14,530.92l2085.86 -1.75c279.14,5.91 451.3,-125.31 490.69,-426.69l12.12 -4614.35c-6.36,-308.06 -257.02,-538.66 -552.48,-536.91l-2176.46 -0.79z"/>
  <path class="fil2" d="M9998.35 6725.59l-8197.91 0c-269.77,0 -490.44,-114.25 -490.44,-253.92l0 -47.86 -7.23 0 0 -357.97 8699.32 0 -1.29 227.4 -2.46 432.34z"/>
  <path class="fil2" d="M10002.09 6065.84l-7162.28 0c-61.43,-5.75 -123.82,-71.13 -123.82,-132.85l0 -5135.88c0,-373.97 5.92,-378.67 605.41,-378.67l7542.87 0c617.11,0 595.01,-1.61 595.02,375.86l0.06 1751.43 426.99 -0.87 6.48 -2095.16c0.76,-247.34 -195.42,-449.69 -434.3,-449.69l-8731.36 0c-238.88,0 -434.3,202.35 -434.3,449.69l0 5616.15 7709.24 0z"/>
  <path class="fil0" d="M3166.49 562.01l7842.33 -0.28c314.57,-0.01 308.84,2.73 309.17,315.44l1.76 1668.49 -859.4 -0.32c-227.09,-8.26 -473.54,105.23 -491.32,486.86l-8.04 2892.3 -6794.5 0c-300.47,0 -309.17,2.59 -309.17,-315.44l0 -4731.61c0,-318.02 5.17,-315.43 309.17,-315.44z"/>
  <path class="fil3" d="M3180.67 4743.08c143.77,307.42 191.23,592.48 128.08,851.79l55.94 28.87 12.64 176.85 -159.56 -1.71c0.44,6.17 0.66,12.4 0.66,18.69 0,139.78 -109.88,253.1 -245.42,253.1 -135.55,0 -245.43,-113.31 -245.43,-253.1 0,-8.06 0.37,-16.04 1.1,-23.91l-668.85 -7.14c1.21,10.18 1.83,20.55 1.83,31.06 0,139.78 -109.88,253.1 -245.42,253.1 -135.55,0 -245.43,-113.31 -245.43,-253.1 0,-12.31 0.85,-24.41 2.52,-36.25l-297.84 -3.18c1.95,12.85 2.96,26.02 2.96,39.43 0,139.78 -109.88,253.1 -245.42,253.1 -135.55,0 -245.43,-113.31 -245.43,-253.1 0,-15.22 1.3,-30.12 3.8,-44.6l-173.05 -1.85c2.7,15.06 4.12,30.59 4.12,46.45 0,139.78 -109.88,253.1 -245.42,253.1 -135.54,0 -245.42,-113.31 -245.42,-253.1 0,-17.68 1.76,-34.94 5.11,-51.6l-136.74 -1.45 0.9 -1384.11c-2.78,-50.92 20.22,-78.4 70.38,-81.2l2360.06 -9.59 80.29 59.12 -0.01 1215.88 27.07 0 6.31 -1186.55c179.47,-10.44 306.28,82.32 365.43,307.7l312.64 4.53 4.96 55.49 -47.37 -2.71z"/>
  <path class="fil4" d="M3857.22 3098.38l905.91 0c85.91,0 156.19,70.28 156.19,156.19l0 1618.14c0,85.91 -70.28,156.19 -156.19,156.19l-905.91 0c-85.91,0 -156.19,-70.27 -156.19,-156.19l0 -1618.14c0,-85.91 70.28,-156.19 156.19,-156.19z"/>
  <path class="fil4" d="M5481.63 3098.38l896.43 0c88.51,0 160.93,72.42 160.93,160.93l0 1608.66c0,88.52 -72.42,160.93 -160.93,160.93l-896.43 0c-88.52,0 -160.93,-72.41 -160.93,-160.93l0 -1608.66c0,-88.51 72.42,-160.93 160.93,-160.93z"/>
  <path class="fil4" d="M7084.05 3098.38l918.42 0c82.47,0 149.93,67.47 149.93,149.94l0 1630.64c0,82.47 -67.47,149.93 -149.93,149.93l-918.42 0c-82.48,0 -149.94,-67.47 -149.94,-149.93l0 -1630.64c0,-82.48 67.47,-149.94 149.94,-149.94z"/>
  <path class="fil4" d="M8672.47 3098.38l968.4 0c68.72,0 124.94,56.22 124.94,124.94l0 1680.63c0,68.72 -56.22,124.94 -124.94,124.94l-968.4 0c-68.72,0 -124.94,-56.22 -124.94,-124.94l0 -1680.63c0,-68.72 56.22,-124.94 124.94,-124.94z"/>
  <path class="fil5" d="M8677.16 5394.29l959.02 0c98.79,0 179.62,80.83 179.62,179.62l0 0c0,98.79 -80.83,179.62 -179.62,179.62l-959.02 0c-98.79,0 -179.62,-80.83 -179.62,-179.62l0 0c0,-98.79 80.83,-179.62 179.62,-179.62z"/>
  <path class="fil5" d="M7063.74 5394.29l959.02 0c98.79,0 179.62,80.83 179.62,179.62l0 0c0,98.79 -80.83,179.62 -179.62,179.62l-959.02 0c-98.79,0 -179.62,-80.83 -179.62,-179.62l0 0c0,-98.79 80.83,-179.62 179.62,-179.62z"/>
  <path class="fil5" d="M3238.71 2553.75c48.9,0 88.55,39.65 88.55,88.55 0,48.9 -39.65,88.55 -88.55,88.55 -48.9,0 -88.55,-39.65 -88.55,-88.55 0,-48.9 39.64,-88.55 88.55,-88.55z"/>
  <path class="fil5" d="M3333.8 3865.98c109.17,0 197.67,88.51 197.67,197.67 0,109.16 -88.49,197.66 -197.67,197.66 -109.17,0 -197.66,-88.5 -197.66,-197.66 0,-109.16 88.49,-197.67 197.66,-197.67z"/>
  <path class="fil5" d="M3468.31 2553.75c48.91,0 88.55,39.65 88.55,88.55 0,48.9 -39.64,88.55 -88.55,88.55 -48.9,0 -88.55,-39.65 -88.55,-88.55 0,-48.9 39.64,-88.55 88.55,-88.55z"/>
  <path class="fil5" d="M3697.92 2553.75c48.9,0 88.55,39.65 88.55,88.55 0,48.9 -39.64,88.55 -88.55,88.55 -48.91,0 -88.55,-39.65 -88.55,-88.55 0,-48.9 39.64,-88.55 88.55,-88.55z"/>
  <path class="fil5" d="M4186.5 2545.46l5520.21 0c36.09,0 65.6,29.52 65.6,65.59l0 65.62c0,36.08 -29.51,65.59 -65.6,65.59l-5520.21 0c-36.09,0 -65.59,-29.51 -65.59,-65.59l0 -65.62c0,-36.07 29.51,-65.59 65.59,-65.59z"/>
  <path class="fil5" d="M5450.33 5394.29l959.02 0c98.79,0 179.62,80.83 179.62,179.62l0 0c0,98.79 -80.83,179.62 -179.62,179.62l-959.02 0c-98.79,0 -179.62,-80.83 -179.62,-179.62l0 0c0,-98.79 80.83,-179.62 179.62,-179.62z"/>
  <path class="fil6" d="M5562.58 5578.14l-34.22 0 0 44.03 34.78 0c6.02,0 10.98,-2.03 14.93,-6.14 3.92,-4.11 5.87,-9.1 5.81,-14.9 0,-5.83 -2.01,-11.13 -5.99,-15.89 -4.05,-4.73 -9.16,-7.09 -15.3,-7.09zm-34.22 -52.88l0 37.63 31.39 0c5.28,0 9.57,-1.84 12.83,-5.52 3.01,-3.73 4.52,-8.4 4.52,-14.01 0,-5.65 -1.66,-10.03 -4.98,-13.24 -3.33,-3.17 -8.07,-4.8 -14.21,-4.86l-29.54 0zm66.23 17.25c0,13.86 -5.3,22.86 -15.93,27 6.77,1.48 12.27,5.46 16.43,11.92 4.17,6.46 6.27,13.02 6.27,19.6 0,10.54 -3.44,19.42 -10.32,26.66 -6.87,7.24 -16.06,10.85 -27.51,10.85l-52.69 0 0 -129.65 48.67 0c10.7,0 19.19,3.01 25.56,9.06 6.34,6.02 9.5,14.21 9.5,24.56zm110.26 51.63l0 -85.25 17.49 0 0 85.11c0,13.8 -4.61,25 -13.83,33.66 -9.25,8.49 -20.47,12.76 -33.62,12.76 -13.17,0 -24.33,-4.27 -33.52,-12.76 -9.13,-8.66 -13.67,-19.86 -13.67,-33.66l0 -85.11 17.5 0 0 85.25c0,8.77 2.92,15.89 8.75,21.35 5.84,5.46 12.86,8.19 21.04,8.19 8.1,0 15.12,-2.73 21.02,-8.19 5.89,-5.46 8.84,-12.58 8.84,-21.35zm101.55 44.4l-17.5 0 0 -59.62 -49.14 -70.03 20.95 0 36.94 52.47 37.42 -52.47 21.04 0 -49.71 70.03 0 59.62zm210.52 -129.65l0 129.65 -16.75 0 -59.08 -97.66 0 97.66 -17.51 0 0 -129.65 17.32 0 58.52 96.94 0 -96.94 17.49 0zm126.64 29.83c-9.32,-9.72 -20.7,-14.58 -34.15,-14.58 -13.48,0 -24.87,4.86 -34.18,14.58 -9.32,9.72 -13.96,21.52 -13.96,35.41 0,13.93 4.58,25.66 13.77,35.25 9.19,9.53 20.6,14.3 34.28,14.3 13.64,0 25.09,-4.8 34.34,-14.4 9.25,-9.59 13.83,-21.32 13.76,-35.25 0,-13.83 -4.61,-25.59 -13.86,-35.31zm-99.79 35.22c0,-18.41 6.31,-34.12 18.94,-47.07 12.64,-12.98 28.19,-19.47 46.67,-19.47 18.5,0 34.05,6.47 46.63,19.41 12.61,12.91 18.91,28.66 18.91,47.23 0,18.6 -6.31,34.28 -18.91,47.14 -12.58,12.83 -28.13,19.26 -46.63,19.26 -18.47,0 -34.02,-6.5 -46.67,-19.47 -12.64,-13.02 -18.94,-28.67 -18.94,-47.01zm255.78 36.53l32.68 -101.58 16.59 0 -41.67 129.65 -15.25 0 -22.92 -80.85 -22.74 80.85 -17.49 0 -41.59 -129.65 18.82 0 32.71 101.93 23.93 -84.39 13.04 -0.03 23.9 84.07z"/>
  <path class="fil5" d="M3830.67 5394.29l959.02 0c98.79,0 179.62,80.83 179.62,179.62l0 0c0,98.79 -80.83,179.62 -179.62,179.62l-959.02 0c-98.79,0 -179.62,-80.83 -179.62,-179.62l0 0c0,-98.79 80.83,-179.62 179.62,-179.62z"/>
  <path class="fil6" d="M3942.92 5578.14l-34.22 0 0 44.03 34.78 0c6.02,0 10.98,-2.03 14.93,-6.14 3.92,-4.11 5.87,-9.1 5.81,-14.9 0,-5.83 -2.01,-11.13 -5.99,-15.89 -4.05,-4.73 -9.16,-7.09 -15.3,-7.09zm-34.22 -52.88l0 37.63 31.39 0c5.28,0 9.57,-1.84 12.83,-5.52 3.01,-3.73 4.52,-8.4 4.52,-14.01 0,-5.65 -1.66,-10.03 -4.98,-13.24 -3.33,-3.17 -8.07,-4.8 -14.21,-4.86l-29.54 0zm66.23 17.25c0,13.86 -5.3,22.86 -15.93,27 6.77,1.48 12.27,5.46 16.43,11.92 4.17,6.46 6.27,13.02 6.27,19.6 0,10.54 -3.44,19.42 -10.32,26.66 -6.87,7.24 -16.06,10.85 -27.51,10.85l-52.69 0 0 -129.65 48.67 0c10.7,0 19.19,3.01 25.56,9.06 6.34,6.02 9.5,14.21 9.5,24.56zm110.26 51.63l0 -85.25 17.49 0 0 85.11c0,13.8 -4.61,25 -13.83,33.66 -9.25,8.49 -20.47,12.76 -33.62,12.76 -13.17,0 -24.33,-4.27 -33.52,-12.76 -9.13,-8.66 -13.67,-19.86 -13.67,-33.66l0 -85.11 17.5 0 0 85.25c0,8.77 2.92,15.89 8.75,21.35 5.84,5.46 12.86,8.19 21.04,8.19 8.1,0 15.12,-2.73 21.02,-8.19 5.89,-5.46 8.84,-12.58 8.84,-21.35zm101.55 44.4l-17.5 0 0 -59.62 -49.14 -70.03 20.95 0 36.94 52.47 37.42 -52.47 21.04 0 -49.71 70.03 0 59.62zm210.52 -129.65l0 129.65 -16.75 0 -59.08 -97.66 0 97.66 -17.51 0 0 -129.65 17.32 0 58.52 96.94 0 -96.94 17.49 0zm126.64 29.83c-9.32,-9.72 -20.7,-14.58 -34.15,-14.58 -13.48,0 -24.87,4.86 -34.18,14.58 -9.32,9.72 -13.96,21.52 -13.96,35.41 0,13.93 4.58,25.66 13.77,35.25 9.19,9.53 20.6,14.3 34.28,14.3 13.64,0 25.09,-4.8 34.34,-14.4 9.25,-9.59 13.83,-21.32 13.76,-35.25 0,-13.83 -4.61,-25.59 -13.86,-35.31zm-99.79 35.22c0,-18.41 6.31,-34.12 18.94,-47.07 12.64,-12.98 28.19,-19.47 46.67,-19.47 18.5,0 34.05,6.47 46.63,19.41 12.61,12.91 18.91,28.66 18.91,47.23 0,18.6 -6.31,34.28 -18.91,47.14 -12.58,12.83 -28.13,19.26 -46.63,19.26 -18.47,0 -34.02,-6.5 -46.67,-19.47 -12.64,-13.02 -18.94,-28.67 -18.94,-47.01zm255.78 36.53l32.68 -101.58 16.59 0 -41.67 129.65 -15.25 0 -22.92 -80.85 -22.74 80.85 -17.49 0 -41.59 -129.65 18.82 0 32.71 101.93 23.93 -84.39 13.04 -0.03 23.9 84.07z"/>
  <path class="fil6" d="M7175.99 5578.14l-34.21 0 0 44.03 34.78 0c6.02,0 10.98,-2.03 14.93,-6.14 3.92,-4.11 5.87,-9.1 5.8,-14.9 0,-5.83 -2,-11.13 -5.99,-15.89 -4.05,-4.73 -9.16,-7.09 -15.3,-7.09zm-34.21 -52.88l0 37.63 31.39 0c5.28,0 9.57,-1.84 12.83,-5.52 3.01,-3.73 4.52,-8.4 4.52,-14.01 0,-5.65 -1.66,-10.03 -4.98,-13.24 -3.33,-3.17 -8.07,-4.8 -14.22,-4.86l-29.54 0zm66.23 17.25c0,13.86 -5.3,22.86 -15.93,27 6.77,1.48 12.26,5.46 16.43,11.92 4.17,6.46 6.27,13.02 6.27,19.6 0,10.54 -3.45,19.42 -10.32,26.66 -6.87,7.24 -16.06,10.85 -27.51,10.85l-52.69 0 0 -129.65 48.67 0c10.7,0 19.19,3.01 25.56,9.06 6.34,6.02 9.5,14.21 9.5,24.56zm110.26 51.63l0 -85.25 17.49 0 0 85.11c0,13.8 -4.61,25 -13.83,33.66 -9.25,8.49 -20.47,12.76 -33.62,12.76 -13.17,0 -24.33,-4.27 -33.52,-12.76 -9.13,-8.66 -13.67,-19.86 -13.67,-33.66l0 -85.11 17.49 0 0 85.25c0,8.77 2.93,15.89 8.76,21.35 5.84,5.46 12.86,8.19 21.04,8.19 8.09,0 15.12,-2.73 21.02,-8.19 5.89,-5.46 8.84,-12.58 8.84,-21.35zm101.55 44.4l-17.5 0 0 -59.62 -49.15 -70.03 20.95 0 36.94 52.47 37.42 -52.47 21.04 0 -49.71 70.03 0 59.62zm210.52 -129.65l0 129.65 -16.75 0 -59.08 -97.66 0 97.66 -17.51 0 0 -129.65 17.32 0 58.51 96.94 0 -96.94 17.5 0zm126.63 29.83c-9.32,-9.72 -20.69,-14.58 -34.15,-14.58 -13.48,0 -24.87,4.86 -34.19,14.58 -9.31,9.72 -13.95,21.52 -13.95,35.41 0,13.93 4.58,25.66 13.76,35.25 9.19,9.53 20.61,14.3 34.28,14.3 13.64,0 25.09,-4.8 34.34,-14.4 9.25,-9.59 13.83,-21.32 13.77,-35.25 0,-13.83 -4.61,-25.59 -13.86,-35.31zm-99.79 35.22c0,-18.41 6.31,-34.12 18.94,-47.07 12.64,-12.98 28.19,-19.47 46.67,-19.47 18.5,0 34.05,6.47 46.63,19.41 12.61,12.91 18.91,28.66 18.91,47.23 0,18.6 -6.31,34.28 -18.91,47.14 -12.58,12.83 -28.13,19.26 -46.63,19.26 -18.47,0 -34.03,-6.5 -46.67,-19.47 -12.64,-13.02 -18.94,-28.67 -18.94,-47.01zm255.78 36.53l32.68 -101.58 16.59 0 -41.67 129.65 -15.25 0 -22.92 -80.85 -22.74 80.85 -17.5 0 -41.59 -129.65 18.82 0 32.71 101.93 23.93 -84.39 13.04 -0.03 23.9 84.07z"/>
  <path class="fil6" d="M8789.41 5578.14l-34.22 0 0 44.03 34.78 0c6.02,0 10.98,-2.03 14.93,-6.14 3.92,-4.11 5.87,-9.1 5.81,-14.9 0,-5.83 -2.01,-11.13 -5.99,-15.89 -4.04,-4.73 -9.16,-7.09 -15.3,-7.09zm-34.22 -52.88l0 37.63 31.39 0c5.27,0 9.57,-1.84 12.83,-5.52 3.01,-3.73 4.52,-8.4 4.52,-14.01 0,-5.65 -1.66,-10.03 -4.98,-13.24 -3.33,-3.17 -8.07,-4.8 -14.21,-4.86l-29.54 0zm66.23 17.25c0,13.86 -5.3,22.86 -15.93,27 6.77,1.48 12.26,5.46 16.43,11.92 4.16,6.46 6.27,13.02 6.27,19.6 0,10.54 -3.44,19.42 -10.32,26.66 -6.87,7.24 -16.06,10.85 -27.51,10.85l-52.69 0 0 -129.65 48.67 0c10.69,0 19.19,3.01 25.56,9.06 6.34,6.02 9.5,14.21 9.5,24.56zm110.26 51.63l0 -85.25 17.49 0 0 85.11c0,13.8 -4.61,25 -13.83,33.66 -9.25,8.49 -20.48,12.76 -33.62,12.76 -13.17,0 -24.33,-4.27 -33.52,-12.76 -9.13,-8.66 -13.67,-19.86 -13.67,-33.66l0 -85.11 17.5 0 0 85.25c0,8.77 2.92,15.89 8.75,21.35 5.84,5.46 12.86,8.19 21.04,8.19 8.1,0 15.12,-2.73 21.02,-8.19 5.89,-5.46 8.84,-12.58 8.84,-21.35zm101.55 44.4l-17.49 0 0 -59.62 -49.15 -70.03 20.95 0 36.94 52.47 37.42 -52.47 21.04 0 -49.71 70.03 0 59.62zm210.52 -129.65l0 129.65 -16.75 0 -59.08 -97.66 0 97.66 -17.5 0 0 -129.65 17.31 0 58.52 96.94 0 -96.94 17.49 0zm126.64 29.83c-9.32,-9.72 -20.7,-14.58 -34.15,-14.58 -13.48,0 -24.87,4.86 -34.18,14.58 -9.32,9.72 -13.96,21.52 -13.96,35.41 0,13.93 4.58,25.66 13.77,35.25 9.19,9.53 20.6,14.3 34.28,14.3 13.64,0 25.09,-4.8 34.34,-14.4 9.25,-9.59 13.83,-21.32 13.77,-35.25 0,-13.83 -4.61,-25.59 -13.86,-35.31zm-99.79 35.22c0,-18.41 6.31,-34.12 18.94,-47.07 12.64,-12.98 28.19,-19.47 46.67,-19.47 18.5,0 34.06,6.47 46.63,19.41 12.61,12.91 18.91,28.66 18.91,47.23 0,18.6 -6.31,34.28 -18.91,47.14 -12.57,12.83 -28.13,19.26 -46.63,19.26 -18.47,0 -34.02,-6.5 -46.67,-19.47 -12.64,-13.02 -18.94,-28.67 -18.94,-47.01zm255.78 36.53l32.68 -101.58 16.59 0 -41.68 129.65 -15.25 0 -22.92 -80.85 -22.74 80.85 -17.49 0 -41.59 -129.65 18.82 0 32.71 101.93 23.93 -84.39 13.05 -0.03 23.9 84.07z"/>
  <g id="_2097272407008">
   <polyline class="fil3 str0" points="3302.02,3985.85 3222.32,4060.99 3303.53,4141.44 "/>
   <line class="fil3 str0" x1="3222.32" y1="4060.99" x2="3445.28" y2= "4061.94" />
  </g>
  <path class="fil7" d="M71.28 4299.21c-50.16,2.8 -73.16,30.28 -70.38,81.2l-0.9 1384.11 136.74 1.45 481.6 5.15 173.07 1.85 484.08 5.17 297.86 3.18 486.48 5.19 604.14 6.45c11.68,-128.58 115.75,-229.19 244.33,-229.19 128.58,0 235.48,103.36 244.75,234.42l224.3 2.4 -12.64 -176.85 -55.94 -28.87c63.15,-259.31 15.69,-544.37 -128.08,-851.79l47.37 2.71 -4.96 -55.49 -312.64 -4.53c-59.15,-225.38 -185.96,-318.14 -365.43,-307.7l-6.31 1186.55 -27.07 0 0.01 -1215.88 -80.29 -59.12 -2360.06 9.59zm112.78 92.93l2154.73 0c45.67,0 83.01,37.35 83.01,83.02l0 970.88c0,45.67 -37.35,83.01 -83.01,83.01l-2154.73 0c-45.66,0 -83.01,-37.35 -83.01,-83.01l0 -970.88c0,-45.67 37.35,-83.02 83.01,-83.02z"/>
  <polygon class="fil8 str1" points="2707.48,4765.54 3099.08,4767.34 3196.53,5169.78 2709.28,5093.98 "/>
  <path class="fil9 str1" d="M2568.52 4427.16c148.89,25 237.6,107.63 273.39,240.91"/>
  <polygon class="fil8 str1" points="2575.75,4758.3 2602.82,4758.3 2602.82,5440.45 2575.75,5440.45 "/>
  <polygon class="fil8 str1" points="2701.17,5190.51 2884.34,5190.51 2884.34,5265.4 2701.17,5265.4 "/>
  <polygon class="fil8 str1" points="3262.41,5422.39 3238.05,5422.39 3238.05,5439.08 3205.17,5439.08 3205.17,5575.34 3238.05,5575.34 3238.05,5592.03 3262.41,5592.03 "/>
  <path class="fil8 str1" d="M3305.28 5185.99l-44.21 1.81c-21.71,-144.28 -50.43,-285.58 -109.41,-422.06l15.12 -2.48c63.6,131.63 106.21,271.83 138.51,422.73z"/>
  <path class="fil8 str1" d="M512.5 5564.47c135.54,0 245.42,113.32 245.42,253.1 0,139.79 -109.87,253.1 -245.42,253.1 -135.54,0 -245.42,-113.31 -245.42,-253.1 0,-139.78 109.88,-253.1 245.42,-253.1z"/>
  <path class="fil10 str1" d="M512.5 5703.43c61.17,0 110.75,51.11 110.75,114.14 0,63.03 -49.58,114.14 -110.75,114.14 -61.18,0 -110.76,-51.11 -110.76,-114.14 0,-63.04 49.58,-114.14 110.76,-114.14z"/>
  <path class="fil8 str1" d="M1303.91 5564.47c135.54,0 245.42,113.32 245.42,253.1 0,139.79 -109.88,253.1 -245.42,253.1 -135.54,0 -245.42,-113.31 -245.42,-253.1 0,-139.78 109.88,-253.1 245.42,-253.1z"/>
  <path class="fil10 str1" d="M1303.91 5703.43c61.17,0 110.76,51.11 110.76,114.14 0,63.03 -49.59,114.14 -110.76,114.14 -61.17,0 -110.76,-51.11 -110.76,-114.14 0,-63.04 49.59,-114.14 110.76,-114.14z"/>
  <path class="fil11" d="M10704.35 3576.23l1647.38 0c57.27,0 104.11,46.84 104.11,104.11l0 967.86c0,57.27 -46.84,104.12 -104.11,104.12l-1647.38 0c-57.27,0 -104.11,-46.85 -104.11,-104.12l0 -967.86c0,-57.27 46.84,-104.11 104.11,-104.11z"/>
  <path class="fil12 str1" d="M2104.78 5564.47c135.54,0 245.42,113.32 245.42,253.1 0,139.79 -109.88,253.1 -245.42,253.1 -135.54,0 -245.42,-113.31 -245.42,-253.1 0,-139.78 109.88,-253.1 245.42,-253.1z"/>
  <path class="fil10 str1" d="M2104.78 5703.43c61.17,0 110.76,51.11 110.76,114.14 0,63.03 -49.59,114.14 -110.76,114.14 -61.17,0 -110.76,-51.11 -110.76,-114.14 0,-63.04 49.59,-114.14 110.76,-114.14z"/>
  <path class="fil8" d="M2908.23 5564.47c135.54,0 245.42,113.32 245.42,253.1 0,139.79 -109.88,253.1 -245.42,253.1 -135.54,0 -245.42,-113.31 -245.42,-253.1 0,-139.78 109.88,-253.1 245.42,-253.1z"/>
  <path class="fil13 str1" d="M2908.23 5703.43c61.17,0 110.76,51.11 110.76,114.14 0,63.03 -49.59,114.14 -110.76,114.14 -61.17,0 -110.76,-51.11 -110.76,-114.14 0,-63.04 49.59,-114.14 110.76,-114.14z"/>
  <path class="fil9 str2" d="M2799.05 5640.71c154.09,-100.48 373.75,53.26 295.06,261.68"/>
  <path class="fil14 str3" d="M184.06 4392.14l2154.73 0c45.65,0 83.01,37.35 83.01,83.02l0 970.88c0,45.67 -37.36,83.01 -83.01,83.01l-2154.73 0c-45.66,0 -83.01,-37.35 -83.01,-83.01l0 -970.88c0,-45.67 37.35,-83.02 83.01,-83.02z"/>
  <path class="fil5" d="M184.06 4392.14l2154.73 0c45.67,0 83.01,37.35 83.01,83.02l0 970.88c0,45.67 -37.35,83.01 -83.01,83.01l-2154.73 0c-45.66,0 -83.01,-37.35 -83.01,-83.01l0 -970.88c0,-45.67 37.35,-83.02 83.01,-83.02z"/>
  <g id="_2097272422112">
   <polygon class="fil15" points="2912.46,409.42 11314.77,409.42 13021.95,1503.02 1237.79,1513.83 "/>
   <polygon class="fil8" points="3896,409.42 2556.98,1512.63 3850.89,1511.44 4798.31,409.42 "/>
   <polygon class="fil8" points="5737.62,409.42 5166.44,1510.23 6479.33,1509.02 6668.8,409.42 "/>
   <polygon class="fil8" points="7590.04,409.42 7796.67,1507.82 9105.01,1506.61 8517.6,409.42 "/>
   <polygon class="fil8" points="9455.94,409.42 10409.19,1505.42 11700.62,1504.23 10386.18,409.42 "/>
   <path class="fil16" d="M1237.79 1507.01l1322.88 1.01c6.97,527.66 -257.08,774.79 -798.74,734.59 -360.42,-52.8 -543.92,-293 -524.14,-735.59z"/>
   <path class="fil17" d="M2560.05 1507.01l1289.14 1.01c6.79,527.66 -250.52,774.79 -778.37,734.59 -351.22,-52.8 -530.05,-293 -510.77,-735.59z"/>
   <path class="fil16" d="M3852.58 1507.01l1317.58 1.01c6.94,527.66 -256.05,774.79 -795.54,734.59 -358.97,-52.8 -541.74,-293 -522.04,-735.59z"/>
   <path class="fil17" d="M5168.14 1507.01l1310.38 1.01c6.9,527.66 -254.65,774.79 -791.19,734.59 -357.01,-52.8 -538.77,-293 -519.19,-735.59z"/>
   <path class="fil16" d="M6482.82 1507.01l1313.07 1.01c6.91,527.66 -255.18,774.79 -792.81,734.59 -357.74,-52.8 -539.88,-293 -520.26,-735.59z"/>
   <path class="fil17" d="M7799.79 1507.01l1305.39 1.01c6.87,527.66 -253.69,774.79 -788.18,734.59 -355.65,-52.8 -536.72,-293 -517.21,-735.59z"/>
   <path class="fil16" d="M9108.19 1500.19l1300.8 1.01c6.85,527.66 -252.79,774.79 -785.41,734.58 -354.4,-52.8 -534.84,-293 -515.39,-735.59z"/>
   <path class="fil17" d="M10411.4 1500.19l1292.34 1.01c6.8,527.66 -251.15,774.79 -780.3,734.58 -352.09,-52.8 -531.36,-293 -512.04,-735.59z"/>
   <path class="fil16" d="M11703.04 1500.19l1321.66 1.01c6.96,527.66 -256.84,774.79 -798,734.58 -360.09,-52.8 -543.41,-293 -523.66,-735.59z"/>
  </g>
  <path class="fil5" d="M11507.19 6161.29c156.3,-11.52 292.37,105.85 303.89,262.18 11.52,156.32 -105.87,292.37 -262.17,303.89 -156.31,11.52 -292.37,-105.85 -303.89,-262.17 -11.52,-156.32 105.87,-292.37 262.18,-303.89z"/>
  <polyline class="fil3 str4" points="11413.58,6429.91 11512.64,6514.22 11642.5,6369.12 "/>
  <path class="fil18" d="M10790.09 6930.42l-32.54 0 0 46.25 31.58 0c6.87,-0.06 12.12,-2.18 15.78,-6.42 3.63,-4.23 5.49,-9.69 5.55,-16.43 0,-6.75 -1.74,-12.38 -5.19,-16.88 -3.6,-4.35 -8.67,-6.51 -15.18,-6.51zm-49.28 108.34l0 -124 49.46 0c12.27,0 21.42,3.78 27.53,11.34 6.27,7.35 9.39,16.49 9.39,27.53 0,11.06 -3.12,20.27 -9.33,27.62 -6.24,7.38 -15.45,11.06 -27.65,11.06l-32.66 0 0 46.43 -16.74 0zm164.12 -21.78c5.4,-5.04 8.1,-11.82 8.1,-20.36 0,-8.55 -2.82,-15.3 -8.43,-20.22 -5.64,-4.92 -12.27,-7.41 -19.89,-7.47 -7.64,0 -14.03,2.55 -19.19,7.65 -5.16,5.04 -7.74,11.64 -7.74,19.86 0,8.19 2.64,14.94 7.92,20.19 5.28,5.28 11.79,7.92 19.53,7.92 7.74,0 14.31,-2.52 19.7,-7.56zm24.66 21.78l-16.38 0 0 -12.9c-2.64,4.41 -6.62,7.95 -11.97,10.65 -5.34,2.7 -11.16,4.05 -17.52,4.05 -11.64,0 -21.74,-4.08 -30.29,-12.24 -8.25,-8.13 -12.39,-18.68 -12.39,-31.61 0,-12.95 4.08,-23.48 12.21,-31.55 8.16,-8.1 18.33,-12.18 30.5,-12.24 6.09,0 11.97,1.26 17.58,3.78 5.52,2.76 9.48,6.3 11.88,10.65l0 -12.63 16.38 0 0 84.04zm102.04 -84.04l-52.19 124.89 -17.12 0 17.64 -43.43 -33.65 -81.46 17.49 0 25.13 60.83 25.23 -60.83 17.48 0zm91 38.84l0 45.2 -16.38 0 0 -47.57c0,-6.96 -1.68,-12.33 -5.01,-16.14 -3.21,-3.96 -7.92,-5.94 -14.07,-5.94 -6.09,0 -11.37,2.07 -15.8,6.21 -4.47,4.14 -6.69,10.23 -6.69,18.24l0 45.2 -16.38 0 0 -84.04 16.38 0 0 12.78c1.95,-4.02 5.13,-7.32 9.6,-9.87 4.68,-2.55 8.93,-3.93 12.74,-4.17 16.17,-0.99 26.88,4.68 32.09,16.98 5.85,-11.67 15.51,-17.52 29.04,-17.52 10.53,0 18.54,3.24 24,9.75 5.61,6.39 8.43,15.56 8.43,27.51l0 48.59 -16.38 0 0 -47.39c0,-6.84 -1.71,-12.27 -5.1,-16.32 -3.66,-3.96 -8.61,-5.97 -14.82,-6.02 -6.18,-0.06 -11.34,2.16 -15.42,6.65 -4.11,4.5 -6.18,10.44 -6.24,17.88zm163.37 2.94c0,3.72 -0.06,5.85 -0.18,6.45l-68.21 0c0.81,6.78 3.81,12.39 8.97,16.86 4.98,4.11 10.56,6.18 16.77,6.18 12.14,0 20.63,-4.35 25.49,-13.05 0.12,0 0.3,0.04 0.54,0.15 0.21,0.12 0.63,0.33 1.23,0.63 0.69,0.3 1.62,0.66 2.79,1.05 1.17,0.42 2.07,0.78 2.64,1.08l6.87 2.55c-3.45,7.08 -8.67,12.54 -15.66,16.38 -6.96,3.87 -14.64,5.79 -23.01,5.79 -12.02,0 -22.28,-4.05 -30.83,-12.18 -8.13,-8.13 -12.18,-18.78 -12.18,-31.89 0,-13.14 4.05,-23.67 12.12,-31.61 8.1,-7.92 18.33,-11.91 30.74,-11.97 12.42,0 22.44,4.02 30.06,12.03 7.88,7.98 11.84,18.51 11.84,31.55zm-24.53 -22.97c-4.68,-4.02 -10.5,-6.03 -17.39,-6.03 -6.93,0 -12.87,2.01 -17.85,6.03 -4.92,4.29 -7.8,9.86 -8.61,16.65l52.1 0c-0.81,-6.78 -3.57,-12.36 -8.25,-16.65zm61.73 19.92l0 45.32 -16.38 0 0 -84.04 16.38 0 0 12.63c2.4,-4.68 5.99,-8.27 10.82,-10.73 4.8,-2.46 9.96,-3.69 15.45,-3.69 10.56,0 18.5,3.24 23.87,9.75 5.61,6.39 8.46,15.56 8.52,27.51l0 48.59 -16.38 0 0 -47.51c0,-7.08 -1.68,-12.54 -5.01,-16.35 -3.24,-3.99 -8.01,-5.97 -14.34,-5.97 -6.39,0 -11.82,2.07 -16.25,6.24 -4.47,4.14 -6.69,10.26 -6.69,18.27zm107.61 -69.5l0 30.77 17.64 0 0 14.57 -17.64 0 0 69.47 -16.38 0 0 -69.47 -15.12 0 0 -14.57 15.12 0 0 -30.77 16.38 0zm88.94 35.13c5.61,-4.11 12.39,-6.15 20.36,-6.15 7.95,0 14.55,2.04 19.74,6.12 5.22,4.08 8.19,9.9 8.88,17.46l-15.63 0c-0.48,-2.73 -1.92,-4.92 -4.32,-6.57 -2.64,-1.62 -5.55,-2.43 -8.79,-2.43 -3.21,0 -5.94,0.69 -8.16,2.07 -2.4,1.08 -3.9,2.97 -4.56,5.61 -0.63,2.64 -0.54,4.74 0.27,6.29 1.35,2.7 4.65,4.8 9.9,6.3l12.39 3.03c14.54,3.57 21.81,11.76 21.81,24.57 0,7.59 -3.15,13.71 -9.48,18.41 -6.39,4.53 -13.86,6.78 -22.41,6.78 -8.57,0 -16.02,-2.46 -22.34,-7.41 -6.33,-4.92 -9.54,-11.46 -9.66,-19.65l15.48 0c0.69,4.35 2.91,7.56 6.69,9.6 3.66,2.31 7.61,3.33 11.88,3.09 4.26,-0.24 7.56,-1.38 9.9,-3.42 2.34,-2.07 3.66,-4.56 3.96,-7.5 0.24,-2.94 -0.66,-5.28 -2.73,-7.05 -2.04,-1.77 -4.86,-3.06 -8.43,-3.87l-11.52 -2.67c-8.13,-2.18 -14.13,-5.39 -17.97,-9.69 -3.69,-4.44 -5.22,-9.99 -4.56,-16.68 0.63,-6.69 3.75,-12.08 9.3,-16.25zm130.71 41.03l0 -45.38 16.38 0 0 84.04 -16.38 0 0 -12.54c-2.4,4.62 -6,8.19 -10.83,10.65 -4.8,2.46 -9.89,3.69 -15.29,3.69 -10.41,0 -18.42,-3.27 -24.03,-9.84 -5.61,-6.57 -8.4,-15.69 -8.34,-27.35l0 -48.65 16.38 0 0 47.48c0,6.99 1.62,12.48 4.83,16.46 3.24,3.93 8.1,5.88 14.6,5.88 6.51,0 11.91,-2.04 16.26,-6.15 4.35,-4.11 6.48,-10.2 6.42,-18.3zm83.08 -47.18c12.96,0 23.58,4.53 31.89,13.56l-12.48 10.38c-5.25,-5.28 -11.85,-7.92 -19.77,-7.92 -7.89,0 -14.61,2.55 -20.13,7.68 -5.55,5.04 -8.34,11.73 -8.34,20.1 0,8.34 2.82,15.12 8.43,20.33 5.64,5.25 12.35,7.86 20.22,7.86 7.91,0 14.46,-2.76 19.59,-8.28l12.65 10.44c-8.37,9 -18.96,13.5 -31.7,13.5 -12.78,0 -23.57,-4.05 -32.39,-12.15 -8.79,-8.22 -13.17,-18.78 -13.17,-31.7 0,-12.93 4.32,-23.45 12.93,-31.55 8.63,-8.1 19.37,-12.18 32.27,-12.24zm92.08 0c12.96,0 23.58,4.53 31.89,13.56l-12.48 10.38c-5.25,-5.28 -11.85,-7.92 -19.77,-7.92 -7.89,0 -14.61,2.55 -20.13,7.68 -5.55,5.04 -8.34,11.73 -8.34,20.1 0,8.34 2.82,15.12 8.43,20.33 5.64,5.25 12.35,7.86 20.22,7.86 7.91,0 14.46,-2.76 19.59,-8.28l12.65 10.44c-8.37,9 -18.96,13.5 -31.7,13.5 -12.78,0 -23.57,-4.05 -32.39,-12.15 -8.79,-8.22 -13.17,-18.78 -13.17,-31.7 0,-12.93 4.32,-23.45 12.93,-31.55 8.63,-8.1 19.37,-12.18 32.27,-12.24zm131.64 43.58c0,3.72 -0.06,5.85 -0.18,6.45l-68.21 0c0.81,6.78 3.81,12.39 8.97,16.86 4.98,4.11 10.56,6.18 16.77,6.18 12.14,0 20.63,-4.35 25.49,-13.05 0.12,0 0.3,0.04 0.54,0.15 0.21,0.12 0.63,0.33 1.23,0.63 0.69,0.3 1.62,0.66 2.79,1.05 1.17,0.42 2.07,0.78 2.64,1.08l6.87 2.55c-3.45,7.08 -8.67,12.54 -15.66,16.38 -6.96,3.87 -14.64,5.79 -23.01,5.79 -12.02,0 -22.28,-4.05 -30.83,-12.18 -8.13,-8.13 -12.18,-18.78 -12.18,-31.89 0,-13.14 4.05,-23.67 12.12,-31.61 8.1,-7.92 18.33,-11.91 30.74,-11.97 12.42,0 22.44,4.02 30.06,12.03 7.88,7.98 11.84,18.51 11.84,31.55zm-24.53 -22.97c-4.68,-4.02 -10.5,-6.03 -17.39,-6.03 -6.93,0 -12.87,2.01 -17.85,6.03 -4.92,4.29 -7.8,9.86 -8.61,16.65l52.1 0c-0.81,-6.78 -3.57,-12.36 -8.25,-16.65zm51.23 -14.46c5.61,-4.11 12.39,-6.15 20.36,-6.15 7.95,0 14.55,2.04 19.74,6.12 5.22,4.08 8.19,9.9 8.88,17.46l-15.63 0c-0.48,-2.73 -1.92,-4.92 -4.32,-6.57 -2.64,-1.62 -5.55,-2.43 -8.79,-2.43 -3.21,0 -5.94,0.69 -8.16,2.07 -2.4,1.08 -3.9,2.97 -4.56,5.61 -0.63,2.64 -0.54,4.74 0.27,6.29 1.35,2.7 4.65,4.8 9.9,6.3l12.39 3.03c14.54,3.57 21.81,11.76 21.81,24.57 0,7.59 -3.15,13.71 -9.48,18.41 -6.39,4.53 -13.86,6.78 -22.41,6.78 -8.57,0 -16.02,-2.46 -22.34,-7.41 -6.33,-4.92 -9.54,-11.46 -9.66,-19.65l15.48 0c0.69,4.35 2.91,7.56 6.69,9.6 3.66,2.31 7.61,3.33 11.88,3.09 4.26,-0.24 7.56,-1.38 9.9,-3.42 2.34,-2.07 3.66,-4.56 3.96,-7.5 0.24,-2.94 -0.66,-5.28 -2.73,-7.05 -2.04,-1.77 -4.86,-3.06 -8.43,-3.87l-11.52 -2.67c-8.13,-2.18 -14.13,-5.39 -17.97,-9.69 -3.69,-4.44 -5.22,-9.99 -4.56,-16.68 0.63,-6.69 3.75,-12.08 9.3,-16.25zm79 0c5.61,-4.11 12.39,-6.15 20.36,-6.15 7.95,0 14.55,2.04 19.74,6.12 5.22,4.08 8.19,9.9 8.88,17.46l-15.63 0c-0.48,-2.73 -1.92,-4.92 -4.32,-6.57 -2.64,-1.62 -5.55,-2.43 -8.79,-2.43 -3.21,0 -5.94,0.69 -8.16,2.07 -2.4,1.08 -3.9,2.97 -4.56,5.61 -0.63,2.64 -0.54,4.74 0.27,6.29 1.35,2.7 4.65,4.8 9.9,6.3l12.39 3.03c14.54,3.57 21.81,11.76 21.81,24.57 0,7.59 -3.15,13.71 -9.48,18.41 -6.39,4.53 -13.86,6.78 -22.41,6.78 -8.57,0 -16.02,-2.46 -22.34,-7.41 -6.33,-4.92 -9.54,-11.46 -9.66,-19.65l15.48 0c0.69,4.35 2.91,7.56 6.69,9.6 3.66,2.31 7.61,3.33 11.88,3.09 4.26,-0.24 7.56,-1.38 9.9,-3.42 2.34,-2.07 3.66,-4.56 3.96,-7.5 0.24,-2.94 -0.66,-5.28 -2.73,-7.05 -2.04,-1.77 -4.86,-3.06 -8.43,-3.87l-11.52 -2.67c-8.13,-2.18 -14.13,-5.39 -17.97,-9.69 -3.69,-4.44 -5.22,-9.99 -4.56,-16.68 0.63,-6.69 3.75,-12.08 9.3,-16.25zm112.53 -50.06l9.18 0 0 15.65 -9.21 0c-10.52,0 -15.75,7.17 -15.62,21.53l0 8.52 19.43 0 0 14.57 -19.43 0 0 69.47 -16.38 0 0 -69.47 -16.38 0 0 -14.57 16.38 0 0 -8.52c0,-11.88 2.67,-21.02 8.04,-27.44 5.36,-6.45 13.37,-9.69 23.99,-9.75zm79.87 91.08l0 -45.38 16.38 0 0 84.04 -16.38 0 0 -12.54c-2.4,4.62 -6,8.19 -10.83,10.65 -4.8,2.46 -9.89,3.69 -15.29,3.69 -10.41,0 -18.42,-3.27 -24.03,-9.84 -5.61,-6.57 -8.4,-15.69 -8.34,-27.35l0 -48.65 16.38 0 0 47.48c0,6.99 1.62,12.48 4.83,16.46 3.24,3.93 8.1,5.88 14.6,5.88 6.51,0 11.91,-2.04 16.26,-6.15 4.35,-4.11 6.48,-10.2 6.42,-18.3zm43.46 38.66l0 -129.75 16.38 0 0 129.75 -16.38 0z"/>
  <path class="fil18" d="M11053.42 5390.79l-51.24 0 0 72.81 49.72 0c10.81,-0.09 19.08,-3.44 24.84,-10.1 5.71,-6.66 8.64,-15.25 8.73,-25.87 0,-10.63 -2.74,-19.5 -8.17,-26.59 -5.66,-6.85 -13.64,-10.25 -23.89,-10.25zm-77.58 170.56l0 -195.21 77.86 0c19.31,0 33.71,5.95 43.35,17.85 9.87,11.57 14.78,25.97 14.78,43.35 0,17.42 -4.91,31.92 -14.69,43.49 -9.82,11.62 -24.32,17.42 -43.53,17.42l-51.42 0 0 73.09 -26.35 0zm258.38 -34.28c8.5,-7.93 12.75,-18.6 12.75,-32.06 0,-13.46 -4.43,-24.08 -13.27,-31.83 -8.88,-7.74 -19.31,-11.67 -31.3,-11.76 -12.04,0 -22.1,4.02 -30.23,12.04 -8.12,7.93 -12.18,18.32 -12.18,31.26 0,12.9 4.15,23.52 12.47,31.78 8.31,8.31 18.55,12.47 30.74,12.47 12.18,0 22.52,-3.97 31.02,-11.9zm38.82 34.28l-25.79 0 0 -20.3c-4.15,6.94 -10.43,12.51 -18.84,16.76 -8.4,4.25 -17.57,6.37 -27.58,6.37 -18.32,0 -34.24,-6.42 -47.69,-19.27 -12.98,-12.8 -19.5,-29.41 -19.5,-49.76 0,-20.4 6.42,-36.97 19.22,-49.68 12.84,-12.75 28.85,-19.17 48.02,-19.27 9.59,0 18.84,1.98 27.67,5.95 8.69,4.35 14.92,9.92 18.7,16.76l0 -19.88 25.79 0 0 132.31zm160.64 -132.31l-82.16 196.63 -26.96 0 27.76 -68.38 -52.98 -128.25 27.53 0 39.57 95.76 39.71 -95.76 27.53 0zm143.26 61.15l0 71.16 -25.78 0 0 -74.89c0,-10.95 -2.64,-19.41 -7.88,-25.4 -5.05,-6.23 -12.47,-9.35 -22.15,-9.35 -9.59,0 -17.9,3.26 -24.89,9.78 -7.04,6.52 -10.53,16.11 -10.53,28.71l0 71.16 -25.78 0 0 -132.31 25.78 0 0 20.12c3.07,-6.32 8.07,-11.52 15.11,-15.53 7.37,-4.02 14.07,-6.18 20.07,-6.57 25.45,-1.55 42.31,7.37 50.52,26.73 9.21,-18.37 24.41,-27.58 45.71,-27.58 16.58,0 29.18,5.1 37.78,15.35 8.83,10.06 13.27,24.51 13.27,43.3l0 76.5 -25.79 0 0 -74.61c0,-10.76 -2.69,-19.31 -8.03,-25.69 -5.76,-6.23 -13.55,-9.4 -23.32,-9.49 -9.73,-0.09 -17.85,3.4 -24.27,10.48 -6.47,7.08 -9.73,16.43 -9.82,28.15zm257.21 4.62c0,5.86 -0.09,9.21 -0.28,10.16l-107.38 0c1.28,10.67 6,19.5 14.12,26.53 7.84,6.47 16.62,9.73 26.4,9.73 19.12,0 32.48,-6.85 40.14,-20.54 0.19,0 0.47,0.05 0.85,0.24 0.33,0.19 0.99,0.52 1.94,0.99 1.08,0.47 2.55,1.04 4.39,1.65 1.84,0.66 3.26,1.22 4.16,1.7l10.81 4.01c-5.43,11.15 -13.64,19.74 -24.64,25.78 -10.96,6.09 -23.05,9.12 -36.22,9.12 -18.93,0 -35.08,-6.37 -48.54,-19.17 -12.8,-12.8 -19.17,-29.55 -19.17,-50.19 0,-20.68 6.38,-37.25 19.08,-49.76 12.75,-12.47 28.85,-18.75 48.4,-18.84 19.55,0 35.32,6.33 47.31,18.94 12.42,12.56 18.65,29.13 18.65,49.67zm-38.62 -36.17c-7.37,-6.32 -16.53,-9.49 -27.39,-9.49 -10.91,0 -20.26,3.17 -28.09,9.49 -7.74,6.75 -12.28,15.53 -13.56,26.2l82.02 0c-1.27,-10.67 -5.62,-19.45 -12.98,-26.2zm97.18 31.36l0 71.35 -25.78 0 0 -132.31 25.78 0 0 19.88c3.77,-7.37 9.45,-13.03 17.05,-16.91 7.56,-3.87 15.68,-5.81 24.31,-5.81 16.62,0 29.14,5.1 37.59,15.35 8.83,10.06 13.32,24.51 13.41,43.3l0 76.5 -25.79 0 0 -74.8c0,-11.14 -2.64,-19.74 -7.88,-25.73 -5.1,-6.28 -12.61,-9.4 -22.57,-9.4 -10.06,0 -18.6,3.26 -25.59,9.82 -7.04,6.52 -10.53,16.15 -10.53,28.76zm169.43 -109.41l0 48.45 27.76 0 0 22.95 -27.76 0 0 109.36 -25.78 0 0 -109.36 -23.8 0 0 -22.95 23.8 0 0 -48.45 25.78 0zm-968.52 322.98c-13.18,-12.09 -29.37,-18.14 -48.55,-18.14 -19.17,0 -35.79,7.32 -49.82,22.01 -14.02,14.69 -21.01,32.39 -21.01,53.17 0,20.78 6.99,38.44 21.01,52.98 14.03,14.5 30.46,21.72 49.25,21.72 18.84,0 34.14,-4.72 45.94,-14.12 11.34,-9.39 17.52,-22.24 18.51,-38.58l-55.58 0 0 -22.95 85.61 0c0,32.49 -8.03,57.51 -24.08,75.13 -16.48,17.14 -38.95,25.73 -67.34,25.73 -28.42,0 -52.13,-9.78 -71.16,-29.33 -19.03,-19.54 -28.52,-43.11 -28.52,-70.69 0,-27.76 9.49,-51.42 28.52,-70.97 19.03,-19.55 41.93,-29.33 68.65,-29.33 26.73,0 49.25,8.6 67.52,25.79l-18.98 17.57zm167.86 119.84c8.5,-7.93 12.75,-18.6 12.75,-32.06 0,-13.46 -4.43,-24.08 -13.27,-31.83 -8.88,-7.74 -19.31,-11.67 -31.3,-11.76 -12.04,0 -22.1,4.02 -30.23,12.04 -8.12,7.93 -12.18,18.32 -12.18,31.26 0,12.9 4.15,23.52 12.47,31.78 8.31,8.31 18.55,12.47 30.74,12.47 12.18,0 22.52,-3.97 31.02,-11.9zm38.82 34.28l-25.79 0 0 -20.3c-4.15,6.94 -10.43,12.51 -18.84,16.76 -8.4,4.25 -17.57,6.37 -27.58,6.37 -18.32,0 -34.24,-6.42 -47.69,-19.27 -12.98,-12.8 -19.5,-29.41 -19.5,-49.76 0,-20.4 6.42,-36.97 19.22,-49.68 12.84,-12.75 28.85,-19.17 48.02,-19.27 9.59,0 18.84,1.98 27.67,5.95 8.69,4.35 14.92,9.92 18.7,16.76l0 -19.88 25.79 0 0 132.31zm78.43 -180.76l0 48.45 27.76 0 0 22.95 -27.76 0 0 109.36 -25.78 0 0 -109.36 -23.8 0 0 -22.95 23.8 0 0 -48.45 25.78 0zm181.79 114.22c0,5.86 -0.09,9.21 -0.28,10.16l-107.38 0c1.28,10.67 6,19.5 14.12,26.53 7.84,6.47 16.62,9.73 26.4,9.73 19.12,0 32.48,-6.85 40.14,-20.54 0.19,0 0.47,0.05 0.85,0.24 0.33,0.19 0.99,0.52 1.94,0.99 1.08,0.47 2.55,1.04 4.39,1.65 1.84,0.66 3.26,1.22 4.16,1.7l10.81 4.01c-5.43,11.15 -13.64,19.74 -24.64,25.78 -10.96,6.09 -23.05,9.12 -36.22,9.12 -18.93,0 -35.08,-6.37 -48.54,-19.17 -12.8,-12.8 -19.17,-29.55 -19.17,-50.19 0,-20.68 6.38,-37.25 19.08,-49.76 12.75,-12.47 28.85,-18.75 48.4,-18.84 19.55,0 35.32,6.33 47.31,18.94 12.42,12.56 18.65,29.13 18.65,49.67zm-38.62 -36.17c-7.37,-6.32 -16.53,-9.49 -27.39,-9.49 -10.91,0 -20.26,3.17 -28.09,9.49 -7.74,6.75 -12.28,15.53 -13.56,26.2l82.02 0c-1.27,-10.67 -5.62,-19.45 -12.98,-26.2zm267.74 -29.61l-48.97 132.31 -21.29 0 -35.98 -97.18 -34.85 97.18 -21.02 0 -50.38 -132.31 27.53 0 33.05 92.6 33.25 -92.6 24.88 0 33.2 92.6 33.05 -92.6 27.53 0zm119.13 98.03c8.5,-7.93 12.75,-18.6 12.75,-32.06 0,-13.46 -4.43,-24.08 -13.27,-31.83 -8.88,-7.74 -19.31,-11.67 -31.3,-11.76 -12.04,0 -22.1,4.02 -30.23,12.04 -8.12,7.93 -12.18,18.32 -12.18,31.26 0,12.9 4.15,23.52 12.47,31.78 8.31,8.31 18.55,12.47 30.74,12.47 12.18,0 22.52,-3.97 31.02,-11.9zm38.82 34.28l-25.79 0 0 -20.3c-4.15,6.94 -10.43,12.51 -18.84,16.76 -8.4,4.25 -17.57,6.37 -27.58,6.37 -18.32,0 -34.24,-6.42 -47.69,-19.27 -12.98,-12.8 -19.5,-29.41 -19.5,-49.76 0,-20.4 6.42,-36.97 19.22,-49.68 12.84,-12.75 28.85,-19.17 48.02,-19.27 9.59,0 18.84,1.98 27.67,5.95 8.69,4.35 14.92,9.92 18.7,16.76l0 -19.88 25.79 0 0 132.31zm160.64 -132.31l-82.16 196.63 -26.96 0 27.76 -68.38 -52.98 -128.25 27.53 0 39.57 95.76 39.71 -95.76 27.53 0z"/>
  <g id="_2097272430112">
   <g>
    <path class="fil19" d="M11014.72 4129.31l96.68 73.58 -10.38 2.58c-27.89,6.92 -56.94,-0.57 -77.22,-21.13 -14.52,-14.72 -22.55,-34.31 -22.63,-54.98 -0.21,-51.72 49.17,-88.62 98.9,-76.4l10.33 2.53 -95.68 73.82z"/>
    <path id="1" class="fil6" d="M11109.95 4204.79l-96.68 -73.58 2.89 -3.79 96.68 73.58 -0.87 4.21 -2.02 -0.42zm2.89 -3.79l3.96 3.01 -4.82 1.2 0.87 -4.21zm-12.4 2.16l10.38 -2.58 1.15 4.63 -10.38 2.58 -0.01 0 -1.15 -4.63zm-78.34 -17.15l3.39 -3.34 0 0 1.87 1.84 1.93 1.76 1.96 1.68 2.01 1.6 2.06 1.54 2.09 1.45 2.13 1.38 2.16 1.31 2.2 1.22 2.24 1.15 2.27 1.08 2.3 1 2.33 0.92 2.36 0.84 2.38 0.77 2.4 0.69 2.42 0.61 2.46 0.53 2.46 0.46 2.48 0.38 2.49 0.3 2.51 0.22 2.53 0.14 2.53 0.06 2.54 -0.02 2.54 -0.11 2.56 -0.18 2.55 -0.26 2.56 -0.34 2.55 -0.42 2.55 -0.51 2.55 -0.59 1.14 4.63 -2.69 0.62 -2.69 0.54 -2.7 0.45 -2.7 0.37 -2.7 0.28 -2.7 0.19 -2.7 0.11 -2.69 0.02 -2.68 -0.06 -2.67 -0.15 -2.67 -0.23 -2.64 -0.31 -2.64 -0.4 -2.61 -0.48 -2.6 -0.57 -2.57 -0.65 -2.56 -0.74 -2.53 -0.81 -2.51 -0.9 -2.47 -0.98 -2.44 -1.06 -2.41 -1.14 -2.38 -1.22 -2.34 -1.31 -2.3 -1.39 -2.26 -1.47 -2.22 -1.55 -2.17 -1.63 -2.14 -1.71 -2.08 -1.79 -2.03 -1.87 -1.98 -1.94 0 0zm-23.31 -56.64l4.76 -0.02 0 0 0.03 1.88 0.08 1.87 0.12 1.86 0.16 1.85 0.21 1.84 0.26 1.84 0.29 1.83 0.35 1.81 0.38 1.81 0.42 1.78 0.47 1.78 0.51 1.76 0.55 1.74 0.59 1.74 0.64 1.72 0.67 1.7 0.72 1.69 0.76 1.67 0.8 1.65 0.84 1.63 0.88 1.61 0.92 1.59 0.96 1.57 1 1.55 1.04 1.53 1.07 1.51 1.11 1.48 1.15 1.45 1.19 1.44 1.22 1.4 1.27 1.38 1.3 1.35 -3.39 3.34 -1.38 -1.44 -1.34 -1.46 -1.31 -1.5 -1.26 -1.52 -1.22 -1.55 -1.18 -1.57 -1.14 -1.6 -1.1 -1.62 -1.07 -1.64 -1.02 -1.67 -0.98 -1.7 -0.94 -1.71 -0.88 -1.74 -0.85 -1.75 -0.81 -1.77 -0.77 -1.8 -0.72 -1.81 -0.67 -1.83 -0.63 -1.84 -0.59 -1.86 -0.54 -1.88 -0.49 -1.89 -0.45 -1.9 -0.41 -1.91 -0.36 -1.93 -0.31 -1.93 -0.27 -1.96 -0.22 -1.96 -0.18 -1.96 -0.13 -1.98 -0.08 -1.98 -0.03 -1.99 0 0zm101.84 -78.73l-1.13 4.63 0 0 -4.53 -0.97 -4.51 -0.71 -4.49 -0.42 -4.46 -0.18 -4.42 0.08 -4.38 0.34 -4.33 0.57 -4.26 0.81 -4.19 1.05 -4.1 1.26 -4.03 1.48 -3.92 1.7 -3.82 1.9 -3.7 2.1 -3.57 2.3 -3.44 2.48 -3.3 2.67 -3.15 2.84 -2.99 3.01 -2.82 3.17 -2.64 3.33 -2.46 3.49 -2.26 3.62 -2.06 3.77 -1.85 3.89 -1.63 4.02 -1.4 4.15 -1.16 4.25 -0.91 4.37 -0.65 4.47 -0.39 4.56 -0.12 4.66 -4.76 0.02 0.12 -4.95 0.42 -4.86 0.7 -4.75 0.97 -4.64 1.23 -4.53 1.49 -4.41 1.73 -4.29 1.97 -4.14 2.19 -4 2.4 -3.86 2.61 -3.7 2.81 -3.54 3 -3.37 3.17 -3.2 3.34 -3.01 3.5 -2.83 3.66 -2.64 3.79 -2.44 3.93 -2.23 4.05 -2.02 4.16 -1.8 4.26 -1.58 4.36 -1.34 4.44 -1.11 4.53 -0.86 4.59 -0.61 4.65 -0.36 4.69 -0.08 4.73 0.18 4.76 0.46 4.79 0.74 4.79 1.03 0 0zm9.2 7.16l-10.33 -2.53 1.13 -4.63 10.33 2.53 0.89 4.2 -2.02 0.43zm1.13 -4.63l4.81 1.18 -3.92 3.02 -0.89 -4.2zm-97.7 74.25l95.68 -73.82 2.91 3.77 -95.68 73.82 -2.9 0.01 -0.01 -3.78zm0.01 3.78l-2.47 -1.88 2.46 -1.9 0.01 3.78z"/>
   </g>
   <g>
    <path class="fil19" d="M11142.17 4199.27l-95.68 -73.82 10.33 -2.54c49.73,-12.21 99.1,24.69 98.9,76.4 -0.08,20.67 -8.12,40.27 -22.63,54.99 -20.27,20.57 -49.33,28.05 -77.22,21.13l-10.38 -2.57 96.68 -73.59z"/>
    <path id="1" class="fil6" d="M11047.94 4123.57l95.68 73.82 -2.91 3.77 -95.68 -73.82 0.88 -4.2 2.03 0.43zm-2.91 3.77l-3.92 -3.02 4.8 -1.18 -0.88 4.2zm12.35 -2.11l-10.33 2.54 -1.14 -4.63 10.33 -2.54 0.01 0 1.14 4.63zm100.71 74.1l-4.76 -0.02 0 0 -0.12 -4.66 -0.39 -4.56 -0.65 -4.47 -0.91 -4.37 -1.16 -4.25 -1.4 -4.15 -1.63 -4.02 -1.85 -3.9 -2.06 -3.76 -2.26 -3.63 -2.46 -3.48 -2.64 -3.33 -2.82 -3.17 -2.99 -3.01 -3.15 -2.85 -3.29 -2.67 -3.45 -2.48 -3.57 -2.3 -3.7 -2.11 -3.82 -1.9 -3.92 -1.7 -4.03 -1.48 -4.1 -1.26 -4.19 -1.05 -4.26 -0.81 -4.33 -0.57 -4.38 -0.33 -4.42 -0.09 -4.46 0.18 -4.49 0.42 -4.51 0.71 -4.53 0.97 -1.13 -4.63 4.79 -1.03 4.79 -0.74 4.76 -0.46 4.73 -0.18 4.69 0.09 4.65 0.35 4.59 0.61 4.53 0.86 4.44 1.11 4.36 1.34 4.26 1.58 4.16 1.8 4.05 2.02 3.93 2.24 3.79 2.44 3.65 2.63 3.5 2.83 3.34 3.01 3.17 3.2 3 3.37 2.81 3.54 2.61 3.69 2.4 3.86 2.19 4 1.97 4.15 1.73 4.29 1.49 4.4 1.23 4.53 0.97 4.64 0.7 4.75 0.42 4.86 0.12 4.95 0 0zm-23.31 56.65l-3.39 -3.34 0 0 1.3 -1.35 1.27 -1.38 1.22 -1.4 1.19 -1.44 1.15 -1.45 1.11 -1.48 1.08 -1.51 1.04 -1.53 1 -1.55 0.95 -1.57 0.92 -1.6 0.88 -1.61 0.84 -1.64 0.8 -1.65 0.76 -1.67 0.71 -1.68 0.68 -1.7 0.64 -1.71 0.59 -1.74 0.55 -1.75 0.51 -1.77 0.47 -1.77 0.42 -1.79 0.38 -1.81 0.34 -1.81 0.29 -1.83 0.25 -1.84 0.21 -1.85 0.16 -1.85 0.12 -1.86 0.08 -1.87 0.03 -1.88 4.76 0.02 -0.03 1.99 -0.08 1.98 -0.13 1.98 -0.18 1.97 -0.22 1.96 -0.26 1.94 -0.31 1.94 -0.37 1.94 -0.41 1.9 -0.45 1.91 -0.49 1.89 -0.54 1.87 -0.59 1.86 -0.63 1.84 -0.67 1.83 -0.72 1.81 -0.76 1.79 -0.81 1.78 -0.85 1.75 -0.9 1.73 -0.93 1.71 -0.98 1.69 -1.01 1.67 -1.07 1.64 -1.1 1.62 -1.15 1.6 -1.18 1.57 -1.22 1.55 -1.26 1.52 -1.31 1.5 -1.34 1.46 -1.38 1.44 0 0zm-79.48 21.77l1.14 -4.63 0 0 2.55 0.59 2.55 0.51 2.56 0.42 2.55 0.35 2.55 0.26 2.56 0.18 2.54 0.11 2.54 0.02 2.53 -0.06 2.52 -0.14 2.52 -0.22 2.49 -0.29 2.48 -0.38 2.46 -0.46 2.46 -0.53 2.42 -0.61 2.4 -0.69 2.38 -0.77 2.36 -0.84 2.33 -0.92 2.3 -1 2.27 -1.08 2.24 -1.15 2.2 -1.22 2.16 -1.31 2.13 -1.38 2.09 -1.45 2.06 -1.54 2.01 -1.6 1.96 -1.68 1.93 -1.76 1.87 -1.84 3.39 3.34 -1.98 1.94 -2.03 1.87 -2.08 1.79 -2.14 1.71 -2.17 1.63 -2.22 1.55 -2.26 1.47 -2.3 1.39 -2.34 1.31 -2.38 1.22 -2.41 1.14 -2.44 1.06 -2.47 0.98 -2.51 0.9 -2.53 0.81 -2.56 0.74 -2.57 0.65 -2.6 0.57 -2.61 0.48 -2.64 0.4 -2.64 0.31 -2.66 0.23 -2.67 0.15 -2.68 0.06 -2.69 -0.02 -2.7 -0.11 -2.7 -0.19 -2.7 -0.28 -2.7 -0.37 -2.7 -0.45 -2.69 -0.54 -2.69 -0.62 0 0zm-9.24 -7.2l10.38 2.57 -1.14 4.63 -10.38 -2.57 -0.87 -4.21 2.01 -0.42zm-1.14 4.63l-4.83 -1.2 3.96 -3.01 0.87 4.21zm98.69 -74.01l-96.68 73.59 -2.89 -3.79 96.68 -73.59 2.9 0.01 -0.01 3.78zm0.01 -3.78l2.46 1.9 -2.47 1.88 0.01 -3.78z"/>
   </g>
  </g>
  <g>
   <g>
    <path class="fil19" d="M1041.31 4839.81l333.93 254.17 -35.84 8.9c-96.34,23.91 -196.69,-1.94 -266.72,-72.99 -50.12,-50.85 -77.88,-118.52 -78.17,-189.91 -0.71,-178.64 169.83,-306.09 341.6,-263.91l35.68 8.76 -330.48 254.98z"/>
    <path id="1" class="fil6" d="M1370.25 5100.53l-333.93 -254.17 9.96 -13.1 333.93 254.17 -3 14.53 -6.97 -1.44zm9.96 -13.1l13.66 10.4 -16.66 4.13 3 -14.53zm-42.81 7.46l35.84 -8.9 3.97 15.97 -35.84 8.9 -0.01 0 -3.96 -15.97zm-270.59 -59.23l11.72 -11.55 0 0 6.46 6.34 6.62 6.07 6.78 5.82 6.93 5.55 7.08 5.29 7.23 5.04 7.35 4.78 7.48 4.5 7.61 4.25 7.73 3.99 7.84 3.72 7.94 3.45 8.04 3.19 8.14 2.91 8.23 2.65 8.3 2.38 8.39 2.11 8.45 1.84 8.51 1.57 8.57 1.31 8.62 1.02 8.68 0.75 8.71 0.48 8.74 0.2 8.77 -0.08 8.8 -0.35 8.8 -0.64 8.82 -0.91 8.82 -1.19 8.82 -1.48 8.81 -1.75 8.8 -2.04 3.96 15.97 -9.29 2.16 -9.3 1.85 -9.33 1.56 -9.33 1.26 -9.33 0.97 -9.32 0.67 -9.32 0.37 -9.29 0.08 -9.26 -0.21 -9.24 -0.51 -9.19 -0.79 -9.15 -1.09 -9.09 -1.38 -9.03 -1.66 -8.98 -1.96 -8.89 -2.24 -8.82 -2.53 -8.73 -2.81 -8.64 -3.1 -8.55 -3.39 -8.44 -3.66 -8.33 -3.95 -8.2 -4.23 -8.09 -4.5 -7.96 -4.8 -7.81 -5.07 -7.67 -5.35 -7.53 -5.62 -7.35 -5.91 -7.2 -6.17 -7.03 -6.45 -6.85 -6.72 0 0zm-80.54 -195.65l16.45 -0.07 0 0 0.11 6.49 0.26 6.45 0.41 6.44 0.57 6.4 0.72 6.37 0.88 6.34 1.02 6.31 1.17 6.27 1.32 6.22 1.47 6.18 1.62 6.14 1.75 6.09 1.91 6.05 2.05 5.98 2.2 5.94 2.34 5.88 2.48 5.83 2.61 5.75 2.76 5.7 2.9 5.64 3.04 5.57 3.17 5.49 3.31 5.42 3.44 5.35 3.57 5.28 3.71 5.19 3.84 5.11 3.98 5.03 4.11 4.95 4.23 4.86 4.37 4.76 4.49 4.67 -11.72 11.55 -4.78 -4.96 -4.63 -5.06 -4.5 -5.15 -4.36 -5.25 -4.23 -5.35 -4.09 -5.43 -3.95 -5.52 -3.8 -5.61 -3.66 -5.68 -3.52 -5.76 -3.37 -5.85 -3.23 -5.91 -3.07 -5.99 -2.94 -6.05 -2.78 -6.13 -2.63 -6.19 -2.48 -6.25 -2.34 -6.31 -2.18 -6.37 -2.03 -6.42 -1.87 -6.47 -1.71 -6.52 -1.56 -6.57 -1.4 -6.61 -1.24 -6.66 -1.09 -6.7 -0.92 -6.73 -0.77 -6.77 -0.6 -6.8 -0.44 -6.82 -0.28 -6.85 -0.11 -6.88 0 0zm351.79 -271.93l-3.92 15.98 0 0 -15.63 -3.36 -15.59 -2.42 -15.52 -1.49 -15.42 -0.59 -15.28 0.29 -15.13 1.15 -14.94 1.98 -14.72 2.8 -14.47 3.6 -14.2 4.38 -13.89 5.13 -13.55 5.86 -13.18 6.58 -12.78 7.26 -12.35 7.94 -11.89 8.59 -11.39 9.21 -10.88 9.82 -10.32 10.4 -9.73 10.96 -9.13 11.5 -8.48 12.02 -7.81 12.52 -7.11 13 -6.38 13.45 -5.61 13.89 -4.82 14.31 -4.01 14.7 -3.14 15.08 -2.27 15.44 -1.36 15.78 -0.42 16.1 -16.45 0.07 0.44 -17.09 1.44 -16.76 2.41 -16.42 3.36 -16.05 4.26 -15.66 5.14 -15.23 5.98 -14.79 6.78 -14.32 7.57 -13.83 8.31 -13.32 9.02 -12.78 9.7 -12.23 10.35 -11.64 10.96 -11.05 11.55 -10.42 12.09 -9.78 12.61 -9.1 13.1 -8.42 13.56 -7.71 13.98 -6.98 14.37 -6.21 14.73 -5.44 15.07 -4.65 15.36 -3.82 15.62 -2.97 15.86 -2.11 16.06 -1.22 16.22 -0.3 16.36 0.62 16.46 1.58 16.53 2.56 16.56 3.56 0 0zm31.76 24.74l-35.68 -8.76 3.92 -15.98 35.68 8.76 3.06 14.5 -6.98 1.48zm3.92 -15.98l16.58 4.07 -13.52 10.43 -3.06 -14.5zm-337.46 256.46l330.48 -254.98 10.05 13.03 -330.48 254.98 -10 0.04 -0.04 -13.06zm0.04 13.06l-8.54 -6.5 8.5 -6.56 0.04 13.06z"/>
   </g>
   <g>
    <path class="fil19" d="M1481.54 5081.49l-330.48 -254.98 35.68 -8.76c171.76,-42.18 342.31,85.27 341.6,263.91 -0.29,71.39 -28.05,139.07 -78.18,189.92 -70.03,71.04 -170.37,96.89 -266.71,72.98l-35.84 -8.9 333.93 -254.17z"/>
    <path id="1" class="fil6" d="M1156.09 4820l330.48 254.98 -10.05 13.03 -330.48 -254.98 3.06 -14.5 6.98 1.48zm-10.05 13.03l-13.52 -10.43 16.58 -4.07 -3.06 14.5zm42.66 -7.28l-35.68 8.76 -3.92 -15.98 35.68 -8.76 0 0 3.92 15.98zm347.87 255.95l-16.45 -0.07 0 0 -0.42 -16.1 -1.36 -15.78 -2.27 -15.43 -3.15 -15.09 -4 -14.7 -4.82 -14.31 -5.61 -13.89 -6.38 -13.45 -7.11 -13 -7.81 -12.52 -8.48 -12.02 -9.13 -11.49 -9.73 -10.96 -10.33 -10.4 -10.88 -9.82 -11.39 -9.21 -11.89 -8.58 -12.35 -7.94 -12.78 -7.27 -13.18 -6.57 -13.55 -5.87 -13.89 -5.13 -14.19 -4.37 -14.47 -3.6 -14.73 -2.81 -14.94 -1.98 -15.12 -1.15 -15.29 -0.29 -15.41 0.59 -15.52 1.5 -15.59 2.41 -15.63 3.36 -3.92 -15.98 16.56 -3.56 16.53 -2.56 16.46 -1.59 16.35 -0.62 16.23 0.3 16.05 1.22 15.86 2.11 15.62 2.97 15.36 3.82 15.06 4.64 14.74 5.44 14.36 6.22 13.99 6.97 13.56 7.71 13.1 8.41 12.61 9.11 12.1 9.78 11.54 10.42 10.96 11.04 10.35 11.65 9.7 12.22 9.02 12.78 8.31 13.32 7.57 13.83 6.78 14.32 5.98 14.79 5.14 15.23 4.25 15.66 3.36 16.04 2.41 16.42 1.44 16.76 0.44 17.09 0 0zm-80.54 195.67l-11.72 -11.55 0 0 4.49 -4.67 4.37 -4.76 4.23 -4.86 4.11 -4.95 3.98 -5.03 3.84 -5.11 3.71 -5.19 3.57 -5.28 3.45 -5.35 3.3 -5.42 3.17 -5.49 3.03 -5.57 2.9 -5.64 2.76 -5.7 2.62 -5.76 2.48 -5.82 2.33 -5.88 2.2 -5.94 2.05 -5.99 1.91 -6.05 1.76 -6.09 1.62 -6.14 1.47 -6.18 1.32 -6.22 1.17 -6.27 1.02 -6.3 0.88 -6.35 0.72 -6.37 0.57 -6.41 0.41 -6.44 0.26 -6.45 0.11 -6.49 16.45 0.07 -0.11 6.88 -0.28 6.85 -0.44 6.82 -0.6 6.81 -0.77 6.77 -0.92 6.74 -1.09 6.69 -1.24 6.66 -1.4 6.61 -1.56 6.57 -1.71 6.53 -1.88 6.48 -2.03 6.41 -2.18 6.37 -2.33 6.31 -2.48 6.25 -2.63 6.2 -2.79 6.12 -2.93 6.07 -3.08 5.99 -3.22 5.91 -3.37 5.85 -3.52 5.76 -3.66 5.68 -3.8 5.61 -3.95 5.52 -4.09 5.43 -4.23 5.35 -4.36 5.25 -4.5 5.15 -4.63 5.06 -4.78 4.96 0 0zm-274.55 75.19l3.97 -15.97 0 0 8.8 2.04 8.8 1.76 8.81 1.47 8.83 1.19 8.81 0.91 8.81 0.63 8.79 0.35 8.77 0.08 8.74 -0.2 8.71 -0.48 8.67 -0.75 8.63 -1.02 8.57 -1.3 8.51 -1.57 8.46 -1.84 8.38 -2.11 8.3 -2.38 8.23 -2.65 8.14 -2.91 8.04 -3.18 7.94 -3.46 7.84 -3.72 7.73 -3.98 7.61 -4.25 7.48 -4.52 7.35 -4.76 7.23 -5.04 7.08 -5.29 6.93 -5.55 6.78 -5.82 6.62 -6.08 6.46 -6.34 11.72 11.55 -6.85 6.71 -7.03 6.45 -7.2 6.17 -7.35 5.91 -7.53 5.62 -7.67 5.35 -7.81 5.07 -7.96 4.79 -8.09 4.52 -8.21 4.23 -8.33 3.95 -8.44 3.67 -8.55 3.38 -8.64 3.1 -8.73 2.81 -8.82 2.53 -8.9 2.24 -8.97 1.96 -9.03 1.67 -9.09 1.37 -9.14 1.1 -9.2 0.79 -9.23 0.5 -9.26 0.21 -9.29 -0.08 -9.31 -0.38 -9.33 -0.67 -9.33 -0.97 -9.33 -1.26 -9.33 -1.55 -9.31 -1.85 -9.29 -2.16 0 0zm-31.87 -24.87l35.84 8.9 -3.97 15.97 -35.84 -8.9 -3 -14.53 6.97 -1.44zm-3.97 15.97l-16.66 -4.13 13.66 -10.4 3 14.53zm340.9 -255.61l-333.93 254.17 -9.96 -13.1 333.93 -254.17 10 0.04 -0.04 13.06zm0.04 -13.06l8.5 6.56 -8.54 6.5 0.04 -13.06z"/>
   </g>
  </g>
  <g>
   <path class="fil6" d="M11219.53 4141.04c-6.91,6.87 -10.39,16.03 -10.39,27.5 0,11.43 3.68,20.35 10.99,26.74 7.35,6.39 16.03,9.59 26.1,9.59 10.08,0 18.67,-3.36 25.74,-10.07 6.71,-6.68 10.07,-15.47 10.07,-26.38 0,-10.92 -3.52,-19.91 -10.55,-26.9 -7.07,-7 -15.79,-10.55 -26.06,-10.63 -10.32,-0.08 -18.95,3.32 -25.9,10.15zm-10.63 -29.22l0 17.62c3.68,-6.27 9,-11.11 16.03,-14.47 6.88,-3.72 14.55,-5.56 23.07,-5.56 15.63,0 28.86,5.44 39.65,16.35 10.83,10.79 16.23,24.86 16.23,42.17 0,17.31 -5.36,31.34 -16.11,42.13 -10.71,10.75 -23.98,16.15 -39.77,16.15 -8.51,0 -16.31,-1.68 -23.42,-5.03 -7.07,-3.36 -12.31,-8.07 -15.67,-14.07l0 50.66c0.37,12.99 -7.96,20.28 -21.82,20.49l0 -149.4c0.16,-14.59 9.82,-17.55 21.82,-17.04z"/>
   <path class="fil6" d="M11400.4 4197.43c7.2,-6.71 10.79,-15.75 10.79,-27.14 0,-11.39 -3.76,-20.38 -11.23,-26.94 -7.51,-6.55 -16.35,-9.87 -26.5,-9.95 -10.19,0 -18.71,3.4 -25.58,10.19 -6.88,6.71 -10.31,15.51 -10.31,26.46 0,10.91 3.52,19.9 10.55,26.9 7.03,7.04 15.7,10.55 26.02,10.55 10.31,0 19.07,-3.36 26.26,-10.08zm11.04 29.02l0 -17.19c-3.52,5.88 -8.83,10.59 -15.95,14.19 -7.12,3.6 -14.87,5.4 -23.35,5.4 -15.5,0 -28.98,-5.44 -40.37,-16.31 -10.99,-10.83 -16.51,-24.9 -16.51,-42.13 0,-17.27 5.44,-31.3 16.27,-42.05 10.87,-10.79 24.42,-16.23 40.65,-16.31 8.11,0 15.95,1.68 23.42,5.04 7.35,3.67 12.63,8.39 15.83,14.19 0.38,-13.22 8.54,-17.09 21.82,-16.82l0 92.99c-0.25,13.05 -8.31,18.55 -21.82,19.01z"/>
   <path class="fil6" d="M11640.09 4197.43c7.2,-6.71 10.79,-15.75 10.79,-27.14 0,-11.39 -3.76,-20.38 -11.23,-26.94 -7.51,-6.55 -16.35,-9.87 -26.5,-9.95 -10.19,0 -18.71,3.4 -25.59,10.19 -6.87,6.71 -10.31,15.51 -10.31,26.46 0,10.91 3.52,19.9 10.55,26.9 7.04,7.04 15.71,10.55 26.02,10.55 10.31,0 19.07,-3.36 26.26,-10.08zm11.03 29.02l0 -17.19c-3.52,5.88 -8.83,10.59 -15.95,14.19 -7.12,3.6 -14.87,5.4 -23.34,5.4 -15.51,0 -28.98,-5.44 -40.37,-16.31 -10.99,-10.83 -16.51,-24.9 -16.51,-42.13 0,-17.27 5.44,-31.3 16.27,-42.05 10.87,-10.79 24.42,-16.23 40.65,-16.31 8.11,0 15.95,1.68 23.42,5.04 7.35,3.67 12.63,8.39 15.83,14.19 0.38,-13.22 8.54,-17.09 21.82,-16.82l0 92.99c-0.25,13.05 -8.31,18.55 -21.82,19.01z"/>
   <path class="fil6" d="M11956.53 4197.43c7.2,-6.71 10.79,-15.75 10.79,-27.14 0,-11.39 -3.76,-20.38 -11.24,-26.94 -7.51,-6.55 -16.35,-9.87 -26.5,-9.95 -10.19,0 -18.71,3.4 -25.59,10.19 -6.87,6.71 -10.31,15.51 -10.31,26.46 0,10.91 3.52,19.9 10.55,26.9 7.04,7.04 15.71,10.55 26.02,10.55 10.31,0 19.07,-3.36 26.26,-10.08zm11.03 29.02l0 -17.19c-3.52,5.88 -8.83,10.59 -15.95,14.19 -7.11,3.6 -14.87,5.4 -23.34,5.4 -15.51,0 -28.98,-5.44 -40.37,-16.31 -10.99,-10.83 -16.51,-24.9 -16.51,-42.13 0,-17.27 5.44,-31.3 16.27,-42.05 10.87,-10.79 24.43,-16.23 40.65,-16.31 8.11,0 15.95,1.68 23.42,5.04 7.35,3.67 12.63,8.39 15.83,14.19 0.38,-13.22 8.54,-17.09 21.83,-16.82l0 92.99c-0.25,13.05 -8.31,18.55 -21.83,19.01z"/>
   <path class="fil6" d="M11468.12 4114.45l75.22 0 0 17.94 -67.91 73.19 67.91 0c-0.18,11.78 -6.05,20.47 -19.86,20.87l-78.75 0 0 -18.07 66.63 -73.07 -62.75 0c-0.37,-12.23 2.74,-20.55 19.51,-20.86z"/>
   <path class="fil6" d="M11783 4167.38l0 60.24c-13.3,0.57 -21.5,-2.48 -21.82,-18.46l0 -44.94c0,-9.27 -2.24,-16.43 -6.67,-21.51 -4.28,-5.28 -10.55,-7.91 -18.75,-7.91 -8.11,0 -15.15,2.76 -21.06,8.27 -5.96,5.52 -8.92,13.63 -8.92,24.3l0 41.89c-0.15,13.69 -8.84,17.94 -21.82,18.35l0 -92.54c0.1,-13.44 8.79,-19.15 21.82,-19.46l0 17.02c2.6,-5.35 6.84,-9.75 12.79,-13.15 6.24,-3.4 11.91,-5.23 16.99,-5.55 21.55,-1.32 35.81,6.24 42.77,22.62 7.8,-15.55 20.67,-23.35 38.69,-23.35 14.03,0 24.7,4.32 31.97,13 7.48,8.51 11.24,20.75 11.24,36.65l0 64.76c-12.95,-0.13 -21.65,-4.72 -21.82,-18.12l0 -45.04c0,-9.12 -2.28,-16.35 -6.8,-21.75 -4.88,-5.28 -11.47,-7.96 -19.75,-8.03 -8.23,-0.08 -15.1,2.87 -20.55,8.87 -5.48,5.99 -8.23,13.91 -8.31,23.82z"/>
   <path class="fil6" d="M12000.85 4226.63l0 -157.14c0.07,-11.23 9.46,-18.55 21.71,-19.2l0 154.57c0.02,12.56 -8.6,21.92 -21.71,21.77z"/>
   <path class="fil6" d="M12033.21 4226.63l0 -157.14c0.07,-11.23 9.46,-18.55 21.71,-19.2l0 154.57c0.02,12.56 -8.6,21.92 -21.71,21.77z"/>
  </g>
  <path class="fil9 str2" d="M403.31 5640.71c154.09,-100.48 373.76,53.26 295.06,261.68"/>
  <path class="fil9 str2" d="M1194.72 5640.71c154.09,-100.48 373.75,53.26 295.06,261.68"/>
  <path class="fil9 str2" d="M1995.59 5640.71c154.09,-100.48 373.75,53.26 295.06,261.68"/>
 </g>
</svg>
