<?xml version="1.0" encoding="UTF-8"?>
<!DOCTYPE svg PUBLIC "-//W3C//DTD SVG 1.1//EN" "http://www.w3.org/Graphics/SVG/1.1/DTD/svg11.dtd">
<!-- Creator: CorelDRAW 2018 (64-Bit Evaluation Version) -->
<svg xmlns="http://www.w3.org/2000/svg" xml:space="preserve" width="200.342mm" height="137.993mm" version="1.1" style="shape-rendering:geometricPrecision; text-rendering:geometricPrecision; image-rendering:optimizeQuality; fill-rule:evenodd; clip-rule:evenodd"
viewBox="0 0 12150.12 8368.85"
 xmlns:xlink="http://www.w3.org/1999/xlink">
 <defs>
  <style type="text/css">
   <![CDATA[
    .str0 {stroke:#3B9CFF;stroke-width:12.13;stroke-miterlimit:22.9256}
    .fil7 {fill:#3B9CFF}
    .fil5 {fill:#FFFFFF}
    .fil3 {fill:#FFFFFF}
    .fil1 {fill:#FBD13E}
    .fil9 {fill:#3B9CFF;fill-rule:nonzero}
    .fil8 {fill:#FBD13E;fill-rule:nonzero}
    .fil6 {fill:#FFFFFF;fill-opacity:0.960784}
    .fil2 {fill:#FFFFFF;fill-opacity:0.960784}
    .fil4 {fill:#FBD13E;fill-opacity:0.960784}
    .fil0 {fill:#3B9CFF}
   ]]>
  </style>
 </defs>
 <g id="Layer_x0020_1">
  <metadata id="CorelCorpID_0Corel-Layer"/>
  <path class="fil0" d="M9569.13 2924.74c-305.7,-18.17 -355.2,75.92 -366.1,308.14l2.34 4366.76c-3.52,301.97 73.76,439.86 294.35,456.23l1941.7 4.72c315.2,23 424.98,-154.58 417.35,-446.79l0 -4349.6c-4.02,-274.3 -102.45,-354.04 -358.11,-352.22l-222.57 218.87 -1474.79 6.01 -234.17 -212.13z"/>
  <path class="fil1" d="M9429.61 3729.05l2201.85 0c41.06,0 74.65,33.59 74.65,74.64l0 648.16c0,41.05 -33.59,74.64 -74.65,74.64l-2201.85 0c-41.06,0 -74.65,-33.59 -74.65,-74.64l0 -648.16c0,-41.05 33.59,-74.64 74.65,-74.64z"/>
  <path class="fil2" d="M11555.07 8148.72l-1974.35 10.02c-422.19,10.52 -477.58,-196.18 -467.14,-581.17l1.96 -4451.24c21.81,-160.08 99.1,-258.19 239.16,-286.14l243.11 -0.11c70.82,28 99.42,208.66 295.35,208.13l1296.73 0.24c193.48,-38.85 174.87,-195.46 306.85,-210.55l215.28 5.95c146.29,20.9 223.09,165.44 225.03,331.53l2.75 4563.63c0.15,246.92 -107.13,408.29 -384.75,409.7zm-2215.51 -5527.27c-265.36,41.94 -420.02,213.08 -414.13,571.49l-13.15 4629.12c-8.18,366.28 204.31,528.26 571.75,546.8l2148.24 -1.81c287.48,6.08 464.8,-129.06 505.36,-439.45l12.48 -4752.36c-6.55,-317.27 -264.71,-554.77 -569.01,-552.97l-2241.56 -0.82z"/>
  <path class="fil3" d="M8955.64 6926.74l-8443.09 0c-277.84,0 -505.11,-117.67 -505.11,-261.52l0 -49.29 -7.44 0 0 -368.68 8959.5 0 -1.33 234.21 -2.53 445.28z"/>
  <path class="fil3" d="M8959.5 6247.25l-7376.49 0c-63.27,-5.93 -127.52,-73.26 -127.52,-136.82l0 -5289.48c0,-385.15 6.1,-390 623.52,-390l7768.46 0c635.57,0 612.81,-1.66 612.81,387.1l0.06 1803.81 439.76 -0.9 6.67 -2157.82c0.78,-254.74 -201.27,-463.14 -447.29,-463.14l-8992.5 0c-246.02,0 -447.29,208.41 -447.29,463.14l0 5784.11 7939.8 0z"/>
  <path class="fil0" d="M1919.45 578.82l8076.88 -0.29c323.98,-0.01 318.07,2.81 318.41,324.88l1.81 1718.39 -885.1 -0.33c-233.88,-8.51 -487.7,108.38 -506.01,501.42l-8.28 2978.8 -6997.71 0c-309.46,0 -318.41,2.66 -318.41,-324.88l0 -4873.12c0,-327.54 5.32,-324.87 318.41,-324.88zm145.15 336.08l7680.98 0c85.89,0 156.14,71.68 156.14,159.31l0 734.43c0,87.62 -70.25,159.3 -156.14,159.3l-7680.98 0c-85.88,0 -156.14,-71.68 -156.14,-159.3l0 -734.43c0,-87.62 70.26,-159.31 156.14,-159.31zm-12.15 1389.11l853.96 0c79.19,0 143.97,66.1 143.97,146.89l0 2506.87c0,80.79 -64.78,146.89 -143.97,146.89l-853.96 0c-79.19,0 -143.96,-66.09 -143.96,-146.89l0 -2506.87c0,-80.79 64.78,-146.89 143.96,-146.89zm1797.31 -16.79l2705.24 0c74.33,0 135.14,62.05 135.14,137.88l0 362.78c0,75.83 -60.81,137.88 -135.14,137.88l-2705.24 0c-74.33,0 -135.14,-62.05 -135.14,-137.88l0 -362.78c0,-75.83 60.81,-137.88 135.14,-137.88zm3573.37 5.6l911.12 0c55.92,0 101.66,46.67 101.66,103.73l0 408.68c0,57.06 -45.74,103.73 -101.66,103.73l-911.12 0c-55.92,0 -101.66,-46.67 -101.66,-103.73l0 -408.68c0,-57.06 45.74,-103.73 101.66,-103.73z"/>
  <path class="fil4" d="M3872.59 3376.52l872.14 0c54.55,0 99.18,44.63 99.18,99.19l0 876.33c0,54.55 -44.63,99.18 -99.18,99.18l-872.14 0c-54.56,0 -99.19,-44.63 -99.19,-99.18l0 -876.33c0,-54.56 44.64,-99.19 99.19,-99.19z"/>
  <path class="fil4" d="M9465.14 4751.21l720.02 0c45.05,0 81.89,36.84 81.89,81.89l0 723.47c0,45.04 -36.84,81.89 -81.89,81.89l-720.02 0c-45.04,0 -81.89,-36.84 -81.89,-81.89l0 -723.47c0,-45.04 36.85,-81.89 81.89,-81.89z"/>
  <path class="fil4" d="M9465.14 5766.22l720.02 0c45.05,0 81.89,36.84 81.89,81.89l0 723.47c0,45.04 -36.84,81.89 -81.89,81.89l-720.02 0c-45.04,0 -81.89,-36.84 -81.89,-81.89l0 -723.47c0,-45.04 36.85,-81.89 81.89,-81.89z"/>
  <path class="fil4" d="M9465.14 6758.58l720.02 0c45.05,0 81.89,36.84 81.89,81.89l0 723.47c0,45.04 -36.84,81.89 -81.89,81.89l-720.02 0c-45.04,0 -81.89,-36.84 -81.89,-81.89l0 -723.47c0,-45.04 36.85,-81.89 81.89,-81.89z"/>
  <path class="fil4" d="M5625.39 3381.99l956.89 0c58.43,0 106.24,47.8 106.24,106.23l0 851.29c0,58.43 -47.81,106.23 -106.24,106.23l-956.89 0c-58.42,0 -106.22,-47.8 -106.22,-106.23l0 -851.29c0,-58.43 47.8,-106.23 106.22,-106.23z"/>
  <path class="fil4" d="M7433.08 3390.22l986.78 0c47.18,0 85.79,38.6 85.79,85.78l0 875.72c0,47.18 -38.61,85.78 -85.79,85.78l-986.78 0c-47.18,0 -85.78,-38.6 -85.78,-85.78l0 -875.72c0,-47.19 38.6,-85.78 85.78,-85.78z"/>
  <path class="fil1" d="M2058.68 909.41l7683.73 0c87.62,0 159.31,71.68 159.31,159.3l0 734.43c0,87.62 -71.69,159.31 -159.31,159.31l-7683.73 0c-87.62,0 -159.31,-71.68 -159.31,-159.31l0 -734.43c0,-87.62 71.69,-159.3 159.31,-159.3z"/>
  <path class="fil5" d="M3850.88 2287.22l2699.75 0c75.84,0 137.89,62.05 137.89,137.89l0 362.77c0,75.83 -62.05,137.88 -137.89,137.88l-2699.75 0c-75.84,0 -137.89,-62.05 -137.89,-137.88l0 -362.77c0,-75.84 62.05,-137.89 137.89,-137.89z"/>
  <path class="fil5" d="M7423.65 2292.35l906.85 0c57.09,0 103.8,46.7 103.8,103.79l0 409.02c0,57.09 -46.7,103.8 -103.8,103.8l-906.85 0c-57.09,0 -103.8,-46.71 -103.8,-103.8l0 -409.02c0,-57.09 46.7,-103.79 103.8,-103.79z"/>
  <path class="fil5" d="M2050.83 2304.01l853.96 0c79.19,0 143.96,64.78 143.96,143.97l0 2512.72c0,79.19 -64.78,143.97 -143.96,143.97l-853.96 0c-79.19,0 -143.97,-64.78 -143.97,-143.97l0 -2512.72c0,-79.19 64.78,-143.97 143.97,-143.97z"/>
  <path class="fil6" d="M3883.05 4835.08l851.21 0c60.31,0 109.65,49.35 109.65,109.66l0 0.01c0,60.31 -49.34,109.66 -109.65,109.66l-851.21 0c-60.32,0 -109.66,-49.35 -109.66,-109.66l0 -0.01c0,-60.31 49.34,-109.66 109.66,-109.66z"/>
  <path class="fil6" d="M10673.78 5070.72l851.21 0c60.31,0 109.65,49.35 109.65,109.66l0 0.02c0,60.3 -49.34,109.65 -109.65,109.65l-851.21 0c-60.32,0 -109.66,-49.35 -109.66,-109.65l0 -0.02c0,-60.31 49.34,-109.66 109.66,-109.66z"/>
  <path class="fil6" d="M10673.78 6085.78l851.21 0c60.31,0 109.65,49.34 109.65,109.65l0 0.02c0,60.31 -49.34,109.65 -109.65,109.65l-851.21 0c-60.32,0 -109.66,-49.34 -109.66,-109.65l0 -0.02c0,-60.31 49.34,-109.65 109.66,-109.65z"/>
  <path class="fil6" d="M10673.78 7100.83l851.21 0c60.31,0 109.65,49.35 109.65,109.66l0 0.02c0,60.3 -49.34,109.65 -109.65,109.65l-851.21 0c-60.32,0 -109.66,-49.35 -109.66,-109.65l0 -0.02c0,-60.31 49.34,-109.66 109.66,-109.66z"/>
  <path class="fil6" d="M5678.24 4862.5l851.21 0c60.31,0 109.65,49.35 109.65,109.66l0 0.01c0,60.31 -49.34,109.66 -109.65,109.66l-851.21 0c-60.32,0 -109.66,-49.35 -109.66,-109.66l0 -0.01c0,-60.31 49.34,-109.66 109.66,-109.66z"/>
  <path class="fil6" d="M7500.87 4889.92l851.21 0c60.31,0 109.65,49.35 109.65,109.65l0 0.02c0,60.31 -49.34,109.66 -109.65,109.66l-851.21 0c-60.32,0 -109.66,-49.35 -109.66,-109.66l0 -0.02c0,-60.3 49.34,-109.65 109.66,-109.65z"/>
  <path class="fil7" d="M2330.93 1246.6c100.68,0 182.3,81.62 182.3,182.3 0,100.68 -81.62,182.3 -182.3,182.3 -100.68,0 -182.3,-81.62 -182.3,-182.3 0,-100.68 81.62,-182.3 182.3,-182.3z"/>
  <polygon class="fil8" points="2354.25,1539.23 2323.77,1539.23 2323.77,1358.74 2288.95,1371.19 2288.95,1342.45 2354.25,1318.57 "/>
  <path class="fil9" d="M2672.83 1561.05l0 -256.13 149.06 0 0 32.34 -114.49 0 0 81.78 90.7 0 0 32.34 -90.7 0 0 109.66 -34.57 0zm188.66 -221.92c-4.4,-4.28 -6.57,-9.48 -6.57,-15.62 0,-6.19 2.17,-11.33 6.57,-15.61 4.89,-4.21 10.41,-6.32 16.66,-6.32 6.26,0 11.78,2.04 16.48,6.13 4.77,4.15 7.13,9.42 7.13,15.8 0,6.38 -2.36,11.65 -7.13,15.8 -4.71,4.09 -10.23,6.14 -16.48,6.14 -6.25,0 -11.77,-2.11 -16.66,-6.32zm33.57 221.92l-33.83 0 0 -173.6 33.83 0 0 173.6zm90.21 -93.61l0 93.61 -33.83 0 0 -173.6 33.83 0 0 26.08c4.95,-9.67 12.39,-17.1 22.37,-22.18 9.91,-5.08 20.57,-7.62 31.91,-7.62 21.81,0 38.23,6.69 49.32,20.13 11.58,13.2 17.47,32.15 17.59,56.81l0 100.37 -33.83 0 0 -98.14c0,-14.62 -3.47,-25.9 -10.35,-33.77 -6.69,-8.24 -16.54,-12.32 -29.61,-12.32 -13.2,0 -24.41,4.27 -33.58,12.88 -9.23,8.55 -13.82,21.19 -13.82,37.73zm295.34 48.45c11.27,-10.53 16.91,-24.54 16.91,-42.07 0,-17.53 -5.82,-31.41 -17.41,-41.57 -11.65,-10.16 -25.28,-15.3 -40.89,-15.42 -15.68,0 -28.81,5.26 -39.47,15.8 -10.66,10.65 -15.98,24.4 -15.98,41.39 0,16.91 5.39,30.79 16.17,41.51 10.78,10.78 24.1,16.17 39.96,16.17 15.87,0 29.43,-5.27 40.71,-15.8zm51.11 45.16l-33.83 0 0 -26.64c-5.45,9.11 -13.69,16.42 -24.72,22 -11.03,5.57 -23.11,8.36 -36.3,8.36 -24.1,0 -44.92,-8.42 -62.45,-25.28 -16.79,-16.79 -25.22,-38.6 -25.22,-65.3 0,-26.76 8.37,-48.51 25.03,-65.18 16.73,-16.73 37.49,-25.16 62.33,-25.28 13.38,0 25.59,2.6 36.49,7.81 10.84,5.2 19.15,12.58 24.84,22l0 -120.51 33.83 0 0 268.02z"/>
  <path class="fil9" d="M3484.32 1564.74l0 -271.69 36.67 0 0 271.69 -36.67 0zm153.33 -251.58l0 67.43 38.64 0 0 31.94 -38.64 0 0 152.21 -35.88 0 0 -152.21 -33.13 0 0 -31.94 33.13 0 0 -67.43 35.88 0z"/>
  <path class="fil9" d="M3875.45 2508.57l0 -23.78 140.23 0 0 23.78 -57.4 0 0 164.56 -25.42 0 0 -164.56 -57.4 0zm193.49 118.13l0 46.43 -24.88 0 0 -127.66 24.88 0 0 28.8c6.24,-21 18.04,-31.53 35.48,-31.53 10.07,0 17.45,1.64 22.19,4.88l-3.88 23.33c-5.6,-2.97 -11.89,-4.42 -18.81,-4.42 -11.25,0 -19.86,5.37 -25.92,16.13 -6.06,10.8 -9.07,25.46 -9.07,44.05zm203.24 -17.77c0,5.65 -0.1,8.88 -0.28,9.8l-103.6 0c1.23,10.3 5.79,18.81 13.62,25.61 7.56,6.24 16.04,9.38 25.47,9.38 18.45,0 31.35,-6.6 38.72,-19.82 0.19,0 0.46,0.05 0.82,0.23 0.32,0.18 0.95,0.5 1.87,0.95 1.04,0.45 2.46,1.01 4.23,1.6 1.78,0.64 3.14,1.18 4.01,1.64l10.44 3.88c-5.24,10.75 -13.17,19.04 -23.79,24.87 -10.56,5.88 -22.23,8.79 -34.94,8.79 -18.26,0 -33.84,-6.15 -46.83,-18.5 -12.35,-12.35 -18.49,-28.52 -18.49,-48.43 0,-19.95 6.14,-35.94 18.4,-48.01 12.3,-12.03 27.84,-18.09 46.7,-18.18 18.86,0 34.08,6.11 45.65,18.27 11.98,12.12 18,28.11 18,47.92zm-37.27 -34.89c-7.11,-6.11 -15.95,-9.16 -26.42,-9.16 -10.53,0 -19.55,3.06 -27.11,9.16 -7.47,6.51 -11.84,14.99 -13.08,25.28l79.13 0c-1.23,-10.3 -5.42,-18.78 -12.52,-25.28zm93.75 30.24l0 68.84 -24.87 0 0 -127.66 24.87 0 0 19.18c3.64,-7.11 9.12,-12.58 16.45,-16.31 7.3,-3.73 15.13,-5.6 23.46,-5.6 16.04,0 28.11,4.92 36.26,14.81 8.53,9.7 12.85,23.65 12.94,41.78l0 73.8 -24.87 0 0 -72.16c0,-10.75 -2.55,-19.04 -7.61,-24.83 -4.92,-6.06 -12.17,-9.07 -21.78,-9.07 -9.7,0 -17.95,3.15 -24.7,9.48 -6.78,6.28 -10.16,15.58 -10.16,27.74zm217.18 35.63c8.29,-7.74 12.44,-18.04 12.44,-30.94 0,-12.89 -4.29,-23.09 -12.8,-30.57 -8.57,-7.47 -18.59,-11.25 -30.07,-11.34 -11.53,0 -21.18,3.88 -29.03,11.62 -7.84,7.84 -11.75,17.95 -11.75,30.43 0,12.43 3.96,22.64 11.89,30.52 7.93,7.93 17.72,11.89 29.38,11.89 11.66,0 21.64,-3.88 29.94,-11.62zm37.58 33.21l-24.87 0 0 -19.59c-4.01,6.7 -10.07,12.07 -18.18,16.17 -8.11,4.1 -16.99,6.15 -26.7,6.15 -17.72,0 -33.03,-6.2 -45.92,-18.59 -12.35,-12.35 -18.54,-28.38 -18.54,-48.02 0,-19.68 6.14,-35.67 18.41,-47.92 12.29,-12.31 27.56,-18.5 45.82,-18.59 9.84,0 18.82,1.92 26.84,5.74 7.98,3.83 14.08,9.25 18.27,16.17l0 -88.61 24.87 0 0 197.08zm41.41 -163.19c-3.23,-3.15 -4.83,-6.97 -4.83,-11.48 0,-4.55 1.6,-8.34 4.83,-11.48 3.6,-3.1 7.65,-4.65 12.26,-4.65 4.6,0 8.65,1.5 12.12,4.51 3.51,3.04 5.24,6.92 5.24,11.61 0,4.69 -1.73,8.56 -5.24,11.62 -3.46,3 -7.52,4.51 -12.12,4.51 -4.6,0 -8.65,-1.55 -12.26,-4.65zm24.7 163.19l-24.88 0 0 -127.66 24.88 0 0 127.66zm66.33 -68.84l0 68.84 -24.87 0 0 -127.66 24.87 0 0 19.18c3.64,-7.11 9.12,-12.58 16.45,-16.31 7.29,-3.73 15.13,-5.6 23.46,-5.6 16.04,0 28.11,4.92 36.26,14.81 8.52,9.7 12.85,23.65 12.94,41.78l0 73.8 -24.87 0 0 -72.16c0,-10.75 -2.55,-19.04 -7.61,-24.83 -4.92,-6.06 -12.17,-9.07 -21.78,-9.07 -9.7,0 -17.95,3.15 -24.7,9.48 -6.79,6.28 -10.16,15.58 -10.16,27.74zm157.72 35.76c7.84,7.66 17.59,11.49 29.3,11.49 11.66,0 21.72,-3.83 30.2,-11.49 8.43,-7.65 12.67,-17.95 12.67,-30.93 0,-12.99 -4.11,-23.28 -12.31,-30.84 -8.2,-7.47 -18.18,-11.21 -29.94,-11.21 -11.75,0 -21.64,4.01 -29.66,12.03 -8.02,8.07 -12.03,18.36 -12.03,30.8 0,12.48 3.92,22.51 11.75,30.16zm27.29 72.98c30.25,0 45.42,-19.22 45.42,-57.63 0,-0.36 -0.08,-0.82 -0.27,-1.32l0 -1.73c-3.64,7.28 -9.65,13.03 -18.04,17.22 -8.39,4.19 -17.27,6.29 -26.75,6.29 -18.32,0 -33.71,-6.11 -46.15,-18.27 -12.44,-12.21 -18.68,-28.24 -18.68,-48.06 0,-19.86 6.37,-35.95 19.09,-48.2 12.71,-12.31 28.02,-18.5 45.79,-18.59 9.7,0 18.63,2.1 26.7,6.29 8.01,3.64 14.03,9.12 18.04,16.45l0 -20 24.88 0 0 108.29c0,55.44 -23.32,83.15 -70.02,83.06 -12.21,0.09 -23.37,-2.92 -33.53,-8.98 -10.11,-6.11 -18.18,-14.67 -24.14,-25.65 0.87,-0.19 4.51,-2.1 10.93,-5.69l9.84 -5.15c3.46,6.51 8.65,11.75 15.49,15.71 6.88,3.97 13.99,5.97 21.41,5.97zm175.35 -94.03l25.56 0c0.18,8.47 4,16.13 11.47,23 7.47,6.88 16.91,10.26 28.38,10.07 11.48,0 20.46,-2.55 26.98,-7.61 6.47,-5.06 10.34,-11.75 11.57,-20 1.41,-17.18 -9.24,-28.34 -32.02,-33.48l-24.28 -6.24c-30.62,-7.79 -45.92,-24.19 -45.92,-49.11 0,-15.45 6.01,-28.12 18.04,-37.95 11.57,-10.07 25.93,-15.08 42.96,-15.08 17.08,0 31.43,5.06 43.14,15.22 11.66,10.12 17.49,23.46 17.49,40l-25.42 0c0,-9.29 -3.28,-16.77 -9.89,-22.46 -6.74,-5.6 -14.99,-8.43 -24.79,-8.43 -9.75,0 -18.36,2.55 -25.74,7.65 -6.93,5.11 -10.39,11.75 -10.39,19.95 0,12.71 9.07,21.19 27.16,25.42l24.56 6.01c17.99,4.79 31.25,12.26 39.77,22.46 8.56,10.21 11.98,22.65 10.29,37.27 -1.68,14.67 -8.2,26.65 -19.5,36.08 -11.3,9.39 -25.97,14.08 -44.01,14.08 -18.04,0 -33.53,-5.56 -46.47,-16.72 -12.62,-11.53 -18.95,-24.92 -18.95,-40.14zm197.68 -120.27l0 46.74 26.79 0 0 22.14 -26.79 0 0 105.51 -24.87 0 0 -105.51 -22.97 0 0 -22.14 22.97 0 0 -46.74 24.87 0zm143.46 141.55c7.98,-7.84 11.98,-18.13 11.98,-30.89 0,-12.8 -4.01,-23.01 -11.98,-30.66 -7.97,-7.7 -17.9,-11.57 -29.79,-11.66 -11.84,0 -21.83,3.83 -29.89,11.53 -8.16,7.74 -12.26,17.95 -12.26,30.66 0,12.67 4.01,22.96 11.98,30.89 7.97,7.97 17.95,11.93 29.94,11.93 12.02,0 22.05,-3.91 30.01,-11.8zm-29.88 35.58c-18.59,0 -34.35,-6.15 -47.38,-18.45 -13.03,-12.31 -19.54,-28.34 -19.54,-48.16 0,-19.82 6.42,-35.9 19.23,-48.2 12.8,-12.29 28.61,-18.4 47.47,-18.32 18.95,0 34.81,6.16 47.61,18.45 12.89,12.39 19.36,28.43 19.36,48.06 0,19.64 -6.47,35.62 -19.41,48.02 -12.94,12.39 -28.75,18.59 -47.33,18.59zm124.6 -49.16l0 46.43 -24.87 0 0 -127.66 24.87 0 0 28.8c6.24,-21 18.04,-31.53 35.49,-31.53 10.07,0 17.45,1.64 22.19,4.88l-3.88 23.33c-5.6,-2.97 -11.89,-4.42 -18.82,-4.42 -11.25,0 -19.86,5.37 -25.92,16.13 -6.06,10.8 -9.07,25.46 -9.07,44.05zm203.24 -17.77c0,5.65 -0.1,8.88 -0.27,9.8l-103.6 0c1.23,10.3 5.79,18.81 13.63,25.61 7.56,6.24 16.03,9.38 25.46,9.38 18.45,0 31.35,-6.6 38.73,-19.82 0.18,0 0.45,0.05 0.82,0.23 0.32,0.18 0.95,0.5 1.87,0.95 1.05,0.45 2.46,1.01 4.23,1.6 1.78,0.64 3.15,1.18 4.01,1.64l10.43 3.88c-5.24,10.75 -13.17,19.04 -23.79,24.87 -10.56,5.88 -22.23,8.79 -34.94,8.79 -18.27,0 -33.85,-6.15 -46.83,-18.5 -12.35,-12.35 -18.5,-28.52 -18.5,-48.43 0,-19.95 6.15,-35.94 18.41,-48.01 12.3,-12.03 27.83,-18.09 46.7,-18.18 18.86,0 34.07,6.11 45.65,18.27 11.98,12.12 17.99,28.11 17.99,47.92zm-37.27 -34.89c-7.11,-6.11 -15.94,-9.16 -26.42,-9.16 -10.53,0 -19.55,3.06 -27.11,9.16 -7.47,6.51 -11.84,14.99 -13.08,25.28l79.14 0c-1.23,-10.3 -5.43,-18.78 -12.53,-25.28zm77.82 -21.97c8.51,-6.24 18.81,-9.34 30.93,-9.34 12.07,0 22.09,3.1 29.98,9.3 7.93,6.2 12.44,15.03 13.49,26.51l-23.74 0c-0.73,-4.14 -2.92,-7.47 -6.56,-9.98 -4.01,-2.46 -8.43,-3.69 -13.35,-3.69 -4.87,0 -9.02,1.05 -12.39,3.15 -3.64,1.64 -5.93,4.51 -6.93,8.52 -0.96,4 -0.82,7.2 0.41,9.56 2.05,4.1 7.06,7.29 15.03,9.56l18.81 4.6c22.1,5.42 33.13,17.86 33.13,37.31 0,11.54 -4.79,20.82 -14.4,27.98 -9.71,6.88 -21.05,10.3 -34.04,10.3 -13.03,0 -24.33,-3.74 -33.94,-11.26 -9.61,-7.47 -14.49,-17.4 -14.67,-29.84l23.51 0c1.05,6.6 4.42,11.48 10.16,14.58 5.56,3.51 11.57,5.06 18.04,4.69 6.46,-0.36 11.48,-2.1 15.03,-5.2 3.55,-3.14 5.56,-6.93 6.01,-11.39 0.37,-4.46 -1,-8.02 -4.15,-10.7 -3.09,-2.69 -7.37,-4.65 -12.8,-5.88l-17.5 -4.06c-12.35,-3.32 -21.46,-8.2 -27.29,-14.71 -5.6,-6.74 -7.93,-15.17 -6.93,-25.33 0.96,-10.16 5.69,-18.36 14.12,-24.7z"/>
  <path class="fil9" d="M9594.28 4147.8l38.23 0c0.27,12.68 6,24.13 17.18,34.41 11.18,10.29 25.28,15.34 42.45,15.06 17.18,0 30.6,-3.82 40.34,-11.38 9.68,-7.56 15.47,-17.58 17.31,-29.92 2.12,-25.69 -13.83,-42.39 -47.9,-50.09l-36.32 -9.33c-45.79,-11.66 -68.69,-36.19 -68.69,-73.46 0,-23.1 9,-42.05 26.99,-56.77 17.31,-15.06 38.78,-22.56 64.26,-22.56 25.56,0 47.03,7.57 64.53,22.76 17.45,15.13 26.17,35.1 26.17,59.83l-38.03 0c0,-13.9 -4.91,-25.08 -14.79,-33.6 -10.09,-8.38 -22.42,-12.6 -37.07,-12.6 -14.59,0 -27.46,3.81 -38.5,11.44 -10.36,7.64 -15.54,17.58 -15.54,29.85 0,19.01 13.57,31.69 40.62,38.03l36.73 8.99c26.92,7.16 46.75,18.33 59.49,33.6 12.81,15.26 17.92,33.87 15.4,55.75 -2.52,21.94 -12.26,39.86 -29.17,53.97 -16.9,14.04 -38.84,21.06 -65.83,21.06 -26.98,0 -50.15,-8.31 -69.51,-25.01 -18.88,-17.24 -28.35,-37.27 -28.35,-60.03zm281.38 -22.01l0 102.97 -37.21 0 0 -294.8 37.21 0 0 132.54c5.18,-10.63 14.04,-18.81 26.58,-24.39 12.48,-5.59 24.6,-8.38 36.33,-8.38 24.12,0 43.13,7.5 56.97,22.55 13.83,15.06 20.65,35.71 20.38,62.08l0 110.4 -37.21 0 0 -107.95c0,-15.88 -4.23,-28.07 -12.61,-36.73 -8.11,-9.34 -19.35,-13.97 -33.73,-13.97 -14.38,0 -27.39,4.57 -39.12,13.77 -11.72,9.2 -17.58,23.17 -17.58,41.91zm331.94 53.84c11.92,-11.72 17.92,-27.12 17.92,-46.2 0,-19.15 -6,-34.42 -17.92,-45.86 -11.93,-11.52 -26.78,-17.31 -44.57,-17.45 -17.71,0 -32.64,5.73 -44.7,17.24 -12.2,11.58 -18.33,26.85 -18.33,45.86 0,18.95 6,34.34 17.92,46.21 11.93,11.92 26.85,17.85 44.78,17.85 17.99,0 32.98,-5.86 44.91,-17.65zm-44.7 53.22c-27.81,0 -51.39,-9.2 -70.88,-27.6 -19.49,-18.4 -29.23,-42.39 -29.23,-72.03 0,-29.64 9.61,-53.7 28.76,-72.1 19.15,-18.4 42.79,-27.53 71.01,-27.39 28.35,0 52.07,9.2 71.22,27.6 19.29,18.53 28.96,42.52 28.96,71.89 0,29.37 -9.67,53.29 -29.03,71.83 -19.35,18.53 -43,27.8 -70.8,27.8zm204.51 -145.22c-11.79,11.72 -17.71,27.33 -17.71,46.89 0,19.49 6.26,34.68 18.74,45.59 12.54,10.9 27.33,16.36 44.5,16.36 17.18,0 31.83,-5.73 43.89,-17.18 11.44,-11.38 17.17,-26.37 17.17,-44.98 0,-18.61 -6,-33.94 -17.99,-45.86 -12.06,-11.93 -26.92,-17.99 -44.44,-18.13 -17.58,-0.14 -32.3,5.65 -44.16,17.31zm-55.33 -49.82l37.21 0 0 30.05c6.27,-10.7 15.33,-18.95 27.33,-24.67 11.72,-6.34 24.8,-9.47 39.32,-9.47 26.64,0 49.2,9.27 67.6,27.87 18.47,18.4 27.67,42.39 27.67,71.9 0,29.51 -9.13,53.43 -27.46,71.83 -18.26,18.33 -40.89,27.53 -67.8,27.53 -14.52,0 -27.81,-2.86 -39.94,-8.59 -12.06,-5.73 -20.99,-13.76 -26.71,-23.99l0 121.3 -37.21 0 0 -283.76zm565.35 -90.77l0 281.72 -36.39 0 -128.38 -212.21 0 212.21 -38.03 0 0 -281.72 37.62 0 127.16 210.64 0 -210.64 38.03 0zm201.51 232.58c11.92,-11.72 17.92,-27.12 17.92,-46.2 0,-19.15 -6,-34.42 -17.92,-45.86 -11.93,-11.52 -26.78,-17.31 -44.57,-17.45 -17.71,0 -32.64,5.73 -44.7,17.24 -12.2,11.58 -18.33,26.85 -18.33,45.86 0,18.95 6,34.34 17.92,46.21 11.93,11.92 26.85,17.85 44.78,17.85 17.99,0 32.98,-5.86 44.91,-17.65zm-44.7 53.22c-27.81,0 -51.39,-9.2 -70.88,-27.6 -19.49,-18.4 -29.23,-42.39 -29.23,-72.03 0,-29.64 9.61,-53.7 28.76,-72.1 19.15,-18.4 42.79,-27.53 71.01,-27.39 28.35,0 52.07,9.2 71.22,27.6 19.29,18.53 28.96,42.52 28.96,71.89 0,29.37 -9.67,53.29 -29.03,71.83 -19.35,18.53 -43,27.8 -70.8,27.8zm432.53 -195.03l-70.67 190.95 -30.74 0 -51.93 -140.25 -50.29 140.25 -30.32 0 -72.72 -190.95 39.73 0 47.7 133.64 47.97 -133.64 35.92 0 47.9 133.64 47.7 -133.64 39.73 0z"/>
  <g id="_2096733721472">
   <path class="fil7 str0" d="M9253.68 1336.41l275.14 209.42 -29.53 7.33c-79.39,19.7 -162.07,-1.6 -219.77,-60.14 -41.29,-41.9 -64.17,-97.66 -64.4,-156.48 -0.59,-147.18 139.93,-252.2 281.46,-217.44l29.4 7.22 -272.29 210.09z"/>
   <path class="fil7 str0" d="M9616.4 1535.54l-272.29 -210.09 29.4 -7.22c141.53,-34.76 282.04,70.25 281.46,217.44 -0.24,58.82 -23.11,114.58 -64.41,156.48 -57.7,58.54 -140.37,79.83 -219.75,60.13l-29.53 -7.33 275.14 -209.42z"/>
  </g>
 </g>
</svg>
