<?xml version="1.0" encoding="UTF-8"?>
<!DOCTYPE svg PUBLIC "-//W3C//DTD SVG 1.1//EN" "http://www.w3.org/Graphics/SVG/1.1/DTD/svg11.dtd">
<!-- Creator: CorelDRAW 2018 (64-Bit Evaluation Version) -->
<svg xmlns="http://www.w3.org/2000/svg" xml:space="preserve" width="200.342mm" height="137.993mm" version="1.1" style="shape-rendering:geometricPrecision; text-rendering:geometricPrecision; image-rendering:optimizeQuality; fill-rule:evenodd; clip-rule:evenodd"
viewBox="0 0 12303.15 8474.26"
 xmlns:xlink="http://www.w3.org/1999/xlink">
 <defs>
  <style type="text/css">
   <![CDATA[
    .str1 {stroke:#3B9CFF;stroke-width:103.99;stroke-miterlimit:22.9256}
    .str0 {stroke:#3B9CFF;stroke-width:12.28;stroke-miterlimit:22.9256}
    .fil9 {fill:none}
    .fil4 {fill:#3B9CFF}
    .fil6 {fill:#FFFFFF}
    .fil3 {fill:#FFFFFF}
    .fil1 {fill:#FBD13E}
    .fil8 {fill:#FBD13E}
    .fil7 {fill:#3B9CFF;fill-rule:nonzero}
    .fil5 {fill:#FBD13E;fill-rule:nonzero}
    .fil2 {fill:#FFFFFF;fill-opacity:0.960784}
    .fil0 {fill:#C4E1FF}
   ]]>
  </style>
 </defs>
 <g id="Layer_x0020_1">
  <metadata id="CorelCorpID_0Corel-Layer"/>
  <path class="fil0" d="M9689.66 2961.57c-309.55,-18.4 -359.68,76.88 -370.71,312.02l2.37 4421.76c-3.57,305.78 74.69,445.4 298.06,461.98l1966.16 4.78c319.17,23.29 430.34,-156.53 422.6,-452.41l0 -4404.39c-4.07,-277.75 -103.74,-358.5 -362.62,-356.65l-225.38 221.63 -1493.36 6.09 -237.12 -214.8z"/>
  <path class="fil1" d="M9548.93 3720.75l2229.58 0c41.58,0 75.59,34.01 75.59,75.58l0 656.33c0,41.57 -34.01,75.58 -75.59,75.58l-2229.58 0c-41.58,0 -75.59,-34.02 -75.59,-75.58l0 -656.33c0,-41.57 34.01,-75.58 75.59,-75.58z"/>
  <path class="fil2" d="M11700.61 8251.36l-1999.21 10.15c-427.5,10.65 -483.6,-198.65 -473.02,-588.49l1.98 -4507.31c22.09,-162.1 100.35,-261.44 242.17,-289.74l246.18 -0.11c71.71,28.35 100.68,211.28 299.07,210.76l1313.06 0.24c195.91,-39.34 177.07,-197.93 310.72,-213.21l218 6.02c148.13,21.16 225.9,167.53 227.86,335.71l2.79 4621.11c0.15,250.03 -108.48,413.44 -389.6,414.86zm-2243.42 -5596.89c-268.7,42.47 -425.31,215.76 -419.34,578.69l-13.31 4687.42c-8.28,370.89 206.89,534.92 578.95,553.69l2175.3 -1.83c291.11,6.16 470.65,-130.68 511.73,-444.99l12.64 -4812.22c-6.63,-321.27 -268.04,-561.75 -576.17,-559.93l-2269.79 -0.83z"/>
  <path class="fil3" d="M9068.44 7013.98l-8549.43 0c-281.34,0 -511.47,-119.15 -511.47,-264.81l0 -49.91 -7.54 0 0 -373.32 9072.34 0 -1.34 237.16 -2.56 450.88z"/>
  <path class="fil3" d="M9072.34 6325.94l-7469.4 0c-64.06,-6 -129.13,-74.18 -129.13,-138.54l0 -5356.11c0,-390 6.18,-394.91 631.37,-394.91l7866.31 0c643.57,0 620.52,-1.68 620.53,391.97l0.06 1826.53 445.3 -0.91 6.76 -2185c0.79,-257.95 -203.8,-468.98 -452.92,-468.98l-9105.76 0c-249.12,0 -452.92,211.03 -452.92,468.98l0 5856.97 8039.81 0z"/>
  <path class="fil0" d="M1943.63 586.11l8178.61 -0.29c328.06,-0.01 322.08,2.84 322.42,328.97l1.84 1740.04 -896.25 -0.33c-236.82,-8.62 -493.85,109.75 -512.39,507.73l-8.39 3016.32 -7085.85 0c-313.35,0 -322.42,2.7 -322.42,-328.97l0 -4934.5c0,-331.66 5.39,-328.96 322.42,-328.97z"/>
  <path class="fil1" d="M2143.6 920.87l7780.51 0c88.72,0 161.31,72.58 161.31,161.31l0 743.68c0,88.73 -72.59,161.31 -161.31,161.31l-7780.51 0c-88.72,0 -161.31,-72.59 -161.31,-161.31l0 -743.68c0,-88.73 72.59,-161.31 161.31,-161.31z"/>
  <path class="fil4" d="M2444.08 1257c108.81,0 197.01,88.21 197.01,197.02 0,108.81 -88.2,197.02 -197.01,197.02 -108.81,0 -197.02,-88.2 -197.02,-197.02 0,-108.81 88.21,-197.02 197.02,-197.02z"/>
  <path class="fil5" d="M2444.45 1463.24l-26.66 0 0 -31.49 26.66 0c8.02,0.24 15.14,-2.17 21.41,-7.24 6.03,-5.43 9.83,-12.66 11.46,-21.59 1.69,-8.98 0.24,-16.53 -4.23,-22.68 -5.55,-8.51 -14.65,-13.03 -27.38,-13.63 -16.95,-1.5 -30.76,5.55 -41.37,21.24l-24.19 -19.12c6.45,-11.16 15.92,-19.96 28.29,-26.48 12.85,-6.15 26.18,-8.81 40.11,-7.84 19.06,0.9 34.8,7.9 47.11,20.93 12.79,12.48 19,27.26 18.64,44.39 0,4.58 -0.79,9.41 -2.29,14.47 -4.35,14.17 -12.91,24.91 -25.64,32.03 12.01,4.4 21.6,12.79 28.65,25.33 7.12,12.49 10.01,25.34 8.68,38.49 -2.05,20.03 -11.64,36.55 -28.77,49.52 -17.13,12.9 -36.61,18.58 -58.39,16.94 -15.44,-1.2 -29.37,-6.21 -41.73,-15.01 -12.37,-8.87 -21.84,-20.21 -28.41,-34.14l28.59 -15.51c4.34,9.17 10.38,16.53 18.04,22.08 7.9,6.21 16.46,9.72 25.82,10.43 13.75,0.66 25.45,-2.65 34.98,-10.07 10.62,-7.78 16.05,-17.37 16.41,-28.83 0.36,-11.4 -4.04,-21.29 -13.27,-29.67 -9.17,-8.38 -20.03,-12.55 -32.51,-12.55z"/>
  <g id="_2096858489904">
   <path class="fil4 str0" d="M9333.38 1353.25l278.6 212.06 -29.9 7.42c-80.39,19.95 -164.11,-1.62 -222.53,-60.89 -41.81,-42.43 -64.98,-98.89 -65.21,-158.45 -0.6,-149.04 141.69,-255.38 285,-220.18l29.77 7.31 -275.72 212.73z"/>
   <path class="fil4 str0" d="M9700.68 1554.88l-275.72 -212.73 29.77 -7.31c143.31,-35.19 285.6,71.14 285,220.18 -0.24,59.56 -23.4,116.02 -65.22,158.45 -58.43,59.27 -142.14,80.83 -222.52,60.89l-29.9 -7.42 278.6 -212.06z"/>
  </g>
  <path class="fil6" d="M9641.48 4911.47l2044.49 0c94.65,0 172.09,77.43 172.09,172.1l0 0.01c0,94.65 -77.44,172.08 -172.09,172.08l-2044.49 0c-94.66,0 -172.09,-77.43 -172.09,-172.08l0 -0.01c0,-94.66 77.43,-172.1 172.09,-172.1z"/>
  <path class="fil7" d="M3065.73 1345.92c-16.92,-15.53 -37.73,-23.29 -62.36,-23.29 -24.63,0 -45.98,9.4 -64,28.27 -18.02,18.87 -27,41.61 -27,68.3 0,26.69 8.98,49.38 27,68.06 18.01,18.63 39.12,27.91 63.27,27.91 24.2,0 43.86,-6.07 59.02,-18.14 14.56,-12.07 22.51,-28.57 23.78,-49.56l-71.4 0 0 -29.48 109.98 0c0,41.73 -10.32,73.88 -30.94,96.51 -21.17,22.02 -50.04,33.06 -86.5,33.06 -36.51,0 -66.97,-12.56 -91.42,-37.67 -24.44,-25.12 -36.64,-55.39 -36.64,-90.81 0,-35.67 12.2,-66.06 36.64,-91.17 24.45,-25.11 53.87,-37.67 88.2,-37.67 34.33,0 63.27,11.04 86.74,33.12l-24.39 22.57zm257.87 112.52c0,7.52 -0.12,11.83 -0.36,13.04l-137.95 0c1.64,13.71 7.71,25.05 18.14,34.09 10.07,8.31 21.35,12.5 33.9,12.5 24.57,0 41.73,-8.79 51.57,-26.39 0.24,0 0.6,0.06 1.09,0.31 0.43,0.24 1.28,0.66 2.49,1.27 1.4,0.61 3.28,1.33 5.64,2.12 2.36,0.85 4.19,1.58 5.34,2.18l13.89 5.16c-6.98,14.31 -17.53,25.36 -31.66,33.12 -14.08,7.82 -29.6,11.71 -46.52,11.71 -24.32,0 -45.07,-8.19 -62.36,-24.63 -16.43,-16.44 -24.63,-37.97 -24.63,-64.48 0,-26.57 8.19,-47.86 24.51,-63.93 16.38,-16.02 37.06,-24.09 62.17,-24.2 25.12,0 45.38,8.12 60.78,24.32 15.95,16.13 23.96,37.42 23.96,63.81zm-49.62 -46.46c-9.46,-8.13 -21.24,-12.2 -35.18,-12.2 -14.01,0 -26.03,4.07 -36.1,12.2 -9.95,8.67 -15.77,19.96 -17.41,33.67l105.37 0c-1.64,-13.71 -7.22,-24.99 -16.68,-33.67zm137.58 -100.27l0 62.23 35.67 0 0 29.48 -35.67 0 0 140.49 -33.12 0 0 -140.49 -30.58 0 0 -29.48 30.58 0 0 -62.23 33.12 0zm174.52 232.21l0 -250.77 33.85 0 0 250.77 -33.85 0zm141.52 -232.21l0 62.23 35.67 0 0 29.48 -35.67 0 0 140.49 -33.12 0 0 -140.49 -30.58 0 0 -29.48 30.58 0 0 -62.23 33.12 0z"/>
  <path class="fil7" d="M9682.76 4028.2l0 -33.98 200.4 0 0 33.98 -82.03 0 0 235.17 -36.33 0 0 -235.17 -82.04 0zm276.51 136.79l0 98.37 -35.55 0 0 -281.65 35.55 0 0 126.64c4.95,-10.16 13.41,-17.97 25.39,-23.31 11.91,-5.34 23.5,-8.01 34.7,-8.01 23.05,0 41.21,7.16 54.43,21.55 13.22,14.39 19.73,34.11 19.47,59.31l0 105.47 -35.55 0 0 -103.13c0,-15.17 -4.03,-26.82 -12.04,-35.1 -7.75,-8.92 -18.49,-13.34 -32.23,-13.34 -13.74,0 -26.17,4.36 -37.37,13.15 -11.2,8.79 -16.8,22.13 -16.8,40.04zm317.46 51.11c11.72,-10.94 17.58,-25.65 17.58,-44.21 0,-18.55 -6.12,-33.2 -18.29,-43.88 -12.24,-10.68 -26.63,-16.08 -43.17,-16.21 -16.61,0 -30.47,5.53 -41.67,16.6 -11.2,10.94 -16.8,25.26 -16.8,43.1 0,17.77 5.73,32.42 17.19,43.82 11.46,11.46 25.59,17.19 42.39,17.19 16.8,0 31.06,-5.47 42.77,-16.41zm53.52 47.27l-35.54 0 0 -28c-5.73,9.57 -14.39,17.26 -25.98,23.11 -11.59,5.86 -24.22,8.79 -38.02,8.79 -25.26,0 -47.2,-8.86 -65.76,-26.56 -17.9,-17.65 -26.89,-40.56 -26.89,-68.63 0,-28.13 8.86,-50.98 26.5,-68.49 17.71,-17.58 39.78,-26.43 66.22,-26.56 13.22,0 25.98,2.73 38.15,8.2 11.98,5.99 20.57,13.68 25.79,23.11l0 -27.41 35.54 0 0 182.43zm94.47 -98.37l0 98.37 -35.55 0 0 -182.43 35.55 0 0 27.41c5.21,-10.16 13.02,-17.97 23.5,-23.31 10.42,-5.34 21.62,-8.01 33.53,-8.01 22.92,0 40.17,7.03 51.82,21.16 12.18,13.87 18.36,33.79 18.49,59.7l0 105.47 -35.54 0 0 -103.13c0,-15.36 -3.65,-27.22 -10.88,-35.48 -7.03,-8.66 -17.39,-12.96 -31.12,-12.96 -13.87,0 -25.65,4.49 -35.29,13.54 -9.7,8.98 -14.52,22.27 -14.52,39.65zm219.93 98.37l-35.55 0 0 -281.65 35.55 0 0 162.77 62.96 -63.54 48.44 0 -78.19 78.78 96.88 103.65 -46.94 0 -83.14 -89.13 0 89.13zm372.6 0l-36.32 0 0 -123.77 -102.03 -145.38 43.49 0 76.7 108.92 77.67 -108.92 43.69 0 -103.19 145.38 0 123.77zm261.01 -46.94c11.4,-11.2 17.13,-25.91 17.13,-44.14 0,-18.29 -5.73,-32.88 -17.13,-43.82 -11.39,-11 -25.58,-16.54 -42.58,-16.67 -16.93,0 -31.18,5.47 -42.71,16.47 -11.66,11.07 -17.51,25.65 -17.51,43.82 0,18.1 5.73,32.82 17.12,44.14 11.4,11.4 25.66,17.06 42.78,17.06 17.19,0 31.51,-5.6 42.9,-16.86zm-42.71 50.85c-26.57,0 -49.09,-8.79 -67.71,-26.37 -18.62,-17.58 -27.94,-40.49 -27.94,-68.82 0,-28.32 9.18,-51.3 27.48,-68.88 18.3,-17.58 40.89,-26.3 67.85,-26.17 27.08,0 49.74,8.79 68.03,26.36 18.43,17.71 27.67,40.63 27.67,68.69 0,28.06 -9.24,50.92 -27.73,68.63 -18.49,17.7 -41.08,26.56 -67.64,26.56zm267.52 -87.83l0 -98.5 35.55 0 0 182.43 -35.55 0 0 -27.22c-5.21,10.03 -13.02,17.78 -23.5,23.11 -10.42,5.34 -21.49,8.01 -33.2,8.01 -22.59,0 -39.98,-7.09 -52.15,-21.35 -12.18,-14.26 -18.23,-34.05 -18.1,-59.38l0 -105.6 35.55 0 0 103.06c0,15.17 3.51,27.09 10.48,35.75 7.03,8.53 17.58,12.76 31.71,12.76 14.13,0 25.85,-4.43 35.29,-13.35 9.44,-8.92 14.06,-22.13 13.93,-39.71zm90.43 63.68c0,-6.84 2.47,-12.63 7.42,-17.45 4.88,-4.82 10.87,-7.23 17.9,-7.23 6.97,0 13.09,2.34 18.17,7.03 5.15,4.69 7.68,10.54 7.68,17.64 0,7.09 -2.6,12.89 -7.87,17.32 -5.21,4.56 -11.2,6.84 -17.97,6.84 -6.77,0 -12.76,-2.21 -17.9,-6.64 -4.95,-4.69 -7.42,-10.55 -7.42,-17.51zm7.82 -248.9l35.54 0 -3.51 196.95 -27.74 0 -4.29 -196.95z"/>
  <path class="fil8" d="M2046.48 3625.55l865.7 0c65.78,0 119.59,53.81 119.59,119.59l0 871.36c0,65.78 -53.81,119.59 -119.59,119.59l-865.7 0c-65.78,0 -119.59,-53.81 -119.59,-119.59l0 -871.36c0,-65.78 53.81,-119.59 119.59,-119.59z"/>
  <path class="fil8" d="M3859.07 3631.21l940.09 0c73.37,0 133.39,60.02 133.39,133.39l0 832.44c0,73.37 -60.02,133.39 -133.39,133.39l-940.09 0c-73.37,0 -133.39,-60.02 -133.39,-133.39l0 -832.44c0,-73.37 60.02,-133.39 133.39,-133.39z"/>
  <path class="fil8" d="M5756.92 3639.71l906.69 0c79.43,0 144.43,64.99 144.43,144.43l0 793.36c0,79.43 -64.99,144.43 -144.43,144.43l-906.69 0c-79.43,0 -144.43,-64.99 -144.43,-144.43l0 -793.36c0,-79.43 64.99,-144.43 144.43,-144.43z"/>
  <path class="fil6" d="M2039.7 5192.55l878.24 0c62.33,0 113.32,50.99 113.32,113.32l0 0.01c0,62.33 -50.99,113.32 -113.32,113.32l-878.24 0c-62.33,0 -113.32,-50.99 -113.32,-113.32l0 -0.01c0,-62.33 50.99,-113.32 113.32,-113.32z"/>
  <path class="fil6" d="M3889.99 5193.07l878.23 0c62.33,0 113.32,50.99 113.32,113.32l0 0c0,62.33 -50.99,113.32 -113.32,113.32l-878.23 0c-62.33,0 -113.32,-50.99 -113.32,-113.32l0 0c0,-62.33 50.99,-113.32 113.32,-113.32z"/>
  <path class="fil6" d="M5771.14 5193.07l878.23 0c62.33,0 113.32,50.99 113.32,113.32l0 0c0,62.33 -50.99,113.32 -113.32,113.32l-878.23 0c-62.33,0 -113.32,-50.99 -113.32,-113.32l0 0c0,-62.33 50.99,-113.32 113.32,-113.32z"/>
  <path class="fil6" d="M2062.27 2621.65l2822.27 0c74.54,0 135.53,60.99 135.53,135.53l0 379.57c0,74.53 -60.99,135.53 -135.53,135.53l-2822.27 0c-74.53,0 -135.53,-60.99 -135.53,-135.53l0 -379.57c0,-74.53 60.99,-135.53 135.53,-135.53z"/>
  <path class="fil7" d="M2151.98 2848.52l-50.15 0 0 71.27 48.67 0c10.59,-0.09 18.67,-3.37 24.31,-9.89 5.59,-6.52 8.46,-14.93 8.55,-25.33 0,-10.4 -2.68,-19.09 -8,-26.02 -5.55,-6.7 -13.36,-10.03 -23.39,-10.03zm-75.93 166.94l0 -191.06 76.21 0c18.9,0 33,5.82 42.43,17.47 9.66,11.32 14.47,25.42 14.47,42.43 0,17.05 -4.81,31.25 -14.38,42.57 -9.61,11.37 -23.8,17.05 -42.61,17.05l-50.33 0 0 71.54 -25.79 0zm252.9 -33.55c8.32,-7.76 12.48,-18.21 12.48,-31.38 0,-13.17 -4.34,-23.57 -12.98,-31.15 -8.69,-7.58 -18.91,-11.41 -30.64,-11.51 -11.78,0 -21.63,3.93 -29.58,11.79 -7.95,7.76 -11.92,17.93 -11.92,30.59 0,12.61 4.07,23.02 12.2,31.1 8.14,8.13 18.17,12.2 30.09,12.2 11.93,0 22.05,-3.89 30.36,-11.65zm37.99 33.55l-25.23 0 0 -19.87c-4.07,6.79 -10.22,12.25 -18.44,16.41 -8.23,4.16 -17.19,6.24 -26.99,6.24 -17.94,0 -33.51,-6.29 -46.68,-18.86 -12.71,-12.53 -19.09,-28.8 -19.09,-48.71 0,-19.97 6.29,-36.19 18.81,-48.62 12.57,-12.48 28.24,-18.76 47,-18.85 9.38,0 18.44,1.94 27.08,5.82 8.51,4.25 14.6,9.7 18.31,16.41l0 -19.46 25.23 0 0 129.5zm157.23 -129.5l-80.42 192.45 -26.39 0 27.17 -66.92 -51.86 -125.53 26.94 0 38.73 93.73 38.87 -93.73 26.94 0zm140.23 59.85l0 69.65 -25.23 0 0 -73.3c0,-10.72 -2.59,-18.99 -7.72,-24.87 -4.94,-6.1 -12.2,-9.15 -21.67,-9.15 -9.38,0 -17.52,3.19 -24.36,9.57 -6.88,6.37 -10.3,15.76 -10.3,28.1l0 69.65 -25.23 0 0 -129.5 25.23 0 0 19.69c3,-6.19 7.9,-11.28 14.79,-15.21 7.21,-3.93 13.77,-6.06 19.65,-6.42 24.91,-1.52 41.41,7.21 49.45,26.16 9.01,-17.98 23.89,-26.99 44.74,-26.99 16.22,0 28.56,4.99 36.98,15.02 8.64,9.84 12.99,23.99 12.99,42.38l0 74.87 -25.24 0 0 -73.02c0,-10.54 -2.63,-18.9 -7.85,-25.14 -5.64,-6.1 -13.26,-9.2 -22.83,-9.29 -9.52,-0.09 -17.47,3.33 -23.75,10.26 -6.33,6.93 -9.52,16.08 -9.62,27.54zm251.75 4.53c0,5.73 -0.09,9.01 -0.28,9.94l-105.1 0c1.25,10.45 5.87,19.09 13.82,25.98 7.68,6.33 16.27,9.52 25.84,9.52 18.72,0 31.79,-6.7 39.28,-20.11 0.18,0 0.46,0.05 0.83,0.23 0.33,0.18 0.97,0.51 1.9,0.97 1.06,0.46 2.49,1.01 4.3,1.62 1.8,0.65 3.19,1.2 4.07,1.66l10.58 3.93c-5.31,10.91 -13.36,19.32 -24.12,25.23 -10.72,5.96 -22.56,8.92 -35.45,8.92 -18.53,0 -34.34,-6.24 -47.51,-18.77 -12.53,-12.53 -18.77,-28.93 -18.77,-49.13 0,-20.25 6.24,-36.47 18.67,-48.72 12.48,-12.2 28.24,-18.34 47.37,-18.44 19.13,0 34.57,6.19 46.31,18.53 12.15,12.29 18.25,28.51 18.25,48.62zm-37.8 -35.4c-7.21,-6.2 -16.18,-9.29 -26.81,-9.29 -10.67,0 -19.83,3.1 -27.5,9.29 -7.58,6.61 -12.02,15.21 -13.26,25.65l80.28 0c-1.25,-10.45 -5.5,-19.04 -12.71,-25.65zm95.12 30.69l0 69.84 -25.23 0 0 -129.5 25.23 0 0 19.46c3.7,-7.21 9.24,-12.76 16.69,-16.55 7.39,-3.79 15.35,-5.68 23.8,-5.68 16.27,0 28.51,4.99 36.79,15.02 8.64,9.84 13.03,23.99 13.12,42.38l0 74.87 -25.23 0 0 -73.21c0,-10.91 -2.59,-19.32 -7.72,-25.19 -4.99,-6.15 -12.34,-9.2 -22.1,-9.2 -9.84,0 -18.21,3.19 -25.05,9.62 -6.88,6.37 -10.3,15.81 -10.3,28.14zm165.83 -107.09l0 47.42 27.17 0 0 22.46 -27.17 0 0 107.04 -25.24 0 0 -107.04 -23.29 0 0 -22.46 23.29 0 0 -47.42 25.24 0zm121.22 122.02l25.93 0c0.18,8.6 4.07,16.36 11.65,23.34 7.58,6.98 17.15,10.4 28.79,10.21 11.65,0 20.76,-2.59 27.36,-7.72 6.56,-5.13 10.49,-11.93 11.74,-20.29 1.44,-17.42 -9.38,-28.75 -32.49,-33.97l-24.64 -6.33c-31.06,-7.9 -46.59,-24.55 -46.59,-49.82 0,-15.67 6.1,-28.52 18.3,-38.5 11.74,-10.21 26.3,-15.3 43.58,-15.3 17.34,0 31.89,5.13 43.77,15.44 11.83,10.26 17.75,23.8 17.75,40.58l-25.79 0c0,-9.43 -3.33,-17.01 -10.03,-22.79 -6.84,-5.68 -15.21,-8.55 -25.14,-8.55 -9.89,0 -18.63,2.59 -26.12,7.77 -7.02,5.17 -10.53,11.92 -10.53,20.24 0,12.9 9.19,21.49 27.54,25.79l24.91 6.1c18.25,4.85 31.7,12.43 40.35,22.78 8.69,10.35 12.15,22.97 10.45,37.8 -1.71,14.89 -8.32,27.04 -19.78,36.61 -11.47,9.52 -26.35,14.28 -44.65,14.28 -18.3,0 -34.02,-5.64 -47.14,-16.96 -12.8,-11.7 -19.23,-25.28 -19.23,-40.72zm254.34 -4.67l0 -69.93 25.23 0 0 129.5 -25.23 0 0 -19.32c-3.7,7.12 -9.24,12.62 -16.69,16.41 -7.39,3.79 -15.25,5.69 -23.57,5.69 -16.04,0 -28.38,-5.04 -37.02,-15.16 -8.64,-10.12 -12.94,-24.17 -12.85,-42.15l0 -74.96 25.23 0 0 73.16c0,10.77 2.5,19.23 7.44,25.37 4.99,6.05 12.48,9.06 22.51,9.06 10.03,0 18.35,-3.14 25.05,-9.48 6.7,-6.33 9.99,-15.71 9.89,-28.19zm128.02 -72.7c19.96,0 36.32,6.98 49.13,20.89l-19.23 15.99c-8.09,-8.13 -18.26,-12.2 -30.46,-12.2 -12.15,0 -22.51,3.93 -31.01,11.83 -8.55,7.76 -12.85,18.07 -12.85,30.97 0,12.85 4.35,23.29 12.99,31.33 8.69,8.09 19.04,12.11 31.15,12.11 12.2,0 22.27,-4.25 30.18,-12.76l19.5 16.08c-12.9,13.87 -29.21,20.8 -48.85,20.8 -19.69,0 -36.32,-6.24 -49.91,-18.72 -13.54,-12.67 -20.29,-28.94 -20.29,-48.85 0,-19.92 6.66,-36.15 19.92,-48.62 13.31,-12.48 29.86,-18.76 49.73,-18.85zm141.89 0c19.96,0 36.32,6.98 49.13,20.89l-19.23 15.99c-8.09,-8.13 -18.26,-12.2 -30.46,-12.2 -12.15,0 -22.51,3.93 -31.01,11.83 -8.55,7.76 -12.85,18.07 -12.85,30.97 0,12.85 4.35,23.29 12.99,31.33 8.69,8.09 19.04,12.11 31.15,12.11 12.2,0 22.27,-4.25 30.18,-12.76l19.5 16.08c-12.9,13.87 -29.21,20.8 -48.85,20.8 -19.69,0 -36.32,-6.24 -49.91,-18.72 -13.54,-12.67 -20.29,-28.94 -20.29,-48.85 0,-19.92 6.66,-36.15 19.92,-48.62 13.31,-12.48 29.86,-18.76 49.73,-18.85zm202.85 67.15c0,5.73 -0.09,9.01 -0.28,9.94l-105.1 0c1.25,10.45 5.87,19.09 13.82,25.98 7.68,6.33 16.27,9.52 25.84,9.52 18.72,0 31.79,-6.7 39.28,-20.11 0.18,0 0.46,0.05 0.83,0.23 0.33,0.18 0.97,0.51 1.9,0.97 1.06,0.46 2.49,1.01 4.3,1.62 1.8,0.65 3.19,1.2 4.07,1.66l10.58 3.93c-5.31,10.91 -13.36,19.32 -24.12,25.23 -10.72,5.96 -22.56,8.92 -35.45,8.92 -18.53,0 -34.34,-6.24 -47.51,-18.77 -12.53,-12.53 -18.77,-28.93 -18.77,-49.13 0,-20.25 6.24,-36.47 18.67,-48.72 12.48,-12.2 28.24,-18.34 47.37,-18.44 19.13,0 34.57,6.19 46.31,18.53 12.15,12.29 18.25,28.51 18.25,48.62zm-37.8 -35.4c-7.21,-6.2 -16.18,-9.29 -26.81,-9.29 -10.67,0 -19.83,3.1 -27.5,9.29 -7.58,6.61 -12.02,15.21 -13.26,25.65l80.28 0c-1.25,-10.45 -5.5,-19.04 -12.71,-25.65zm78.94 -22.28c8.64,-6.33 19.09,-9.47 31.38,-9.47 12.25,0 22.41,3.14 30.41,9.43 8.04,6.28 12.62,15.25 13.68,26.9l-24.08 0c-0.74,-4.21 -2.96,-7.58 -6.66,-10.12 -4.07,-2.5 -8.55,-3.75 -13.54,-3.75 -4.94,0 -9.15,1.06 -12.57,3.19 -3.7,1.66 -6.01,4.58 -7.03,8.64 -0.97,4.07 -0.83,7.3 0.42,9.7 2.08,4.16 7.16,7.39 15.25,9.71l19.09 4.67c22.41,5.5 33.6,18.12 33.6,37.85 0,11.69 -4.85,21.12 -14.6,28.38 -9.84,6.98 -21.35,10.45 -34.53,10.45 -13.22,0 -24.68,-3.8 -34.43,-11.42 -9.75,-7.58 -14.7,-17.66 -14.88,-30.28l23.85 0c1.06,6.7 4.48,11.65 10.3,14.79 5.64,3.56 11.74,5.13 18.31,4.77 6.56,-0.37 11.64,-2.13 15.25,-5.27 3.6,-3.19 5.64,-7.03 6.1,-11.56 0.37,-4.53 -1.02,-8.13 -4.21,-10.86 -3.14,-2.73 -7.49,-4.72 -12.99,-5.96l-17.75 -4.11c-12.53,-3.38 -21.77,-8.32 -27.68,-14.93 -5.69,-6.84 -8.04,-15.39 -7.03,-25.69 0.97,-10.31 5.78,-18.63 14.33,-25.06zm121.73 0c8.64,-6.33 19.09,-9.47 31.38,-9.47 12.25,0 22.41,3.14 30.41,9.43 8.04,6.28 12.62,15.25 13.68,26.9l-24.08 0c-0.74,-4.21 -2.96,-7.58 -6.66,-10.12 -4.07,-2.5 -8.55,-3.75 -13.54,-3.75 -4.94,0 -9.15,1.06 -12.57,3.19 -3.7,1.66 -6.01,4.58 -7.03,8.64 -0.97,4.07 -0.83,7.3 0.42,9.7 2.08,4.16 7.16,7.39 15.25,9.71l19.09 4.67c22.41,5.5 33.6,18.12 33.6,37.85 0,11.69 -4.85,21.12 -14.6,28.38 -9.84,6.98 -21.35,10.45 -34.53,10.45 -13.22,0 -24.68,-3.8 -34.43,-11.42 -9.75,-7.58 -14.7,-17.66 -14.88,-30.28l23.85 0c1.06,6.7 4.48,11.65 10.3,14.79 5.64,3.56 11.74,5.13 18.31,4.77 6.56,-0.37 11.64,-2.13 15.25,-5.27 3.6,-3.19 5.64,-7.03 6.1,-11.56 0.37,-4.53 -1.02,-8.13 -4.21,-10.86 -3.14,-2.73 -7.49,-4.72 -12.99,-5.96l-17.75 -4.11c-12.53,-3.38 -21.77,-8.32 -27.68,-14.93 -5.69,-6.84 -8.04,-15.39 -7.03,-25.69 0.97,-10.31 5.78,-18.63 14.33,-25.06zm173.41 -77.13l14.14 0 0 24.12 -14.19 0c-16.22,0 -24.26,11.05 -24.08,33.19l0 13.12 29.95 0 0 22.46 -29.95 0 0 107.04 -25.23 0 0 -107.04 -25.23 0 0 -22.46 25.23 0 0 -13.12c0,-18.31 4.11,-32.4 12.39,-42.29 8.27,-9.94 20.62,-14.92 36.98,-15.01zm123.08 140.36l0 -69.93 25.23 0 0 129.5 -25.23 0 0 -19.32c-3.7,7.12 -9.24,12.62 -16.69,16.41 -7.39,3.79 -15.25,5.69 -23.57,5.69 -16.04,0 -28.38,-5.04 -37.02,-15.16 -8.64,-10.12 -12.94,-24.17 -12.85,-42.15l0 -74.96 25.23 0 0 73.16c0,10.77 2.5,19.23 7.44,25.37 4.99,6.05 12.48,9.06 22.51,9.06 10.03,0 18.35,-3.14 25.05,-9.48 6.7,-6.33 9.99,-15.71 9.89,-28.19zm66.97 59.57l0 -199.93 25.23 0 0 199.93 -25.23 0z"/>
  <path class="fil8" d="M7608.2 3625.55l865.71 0c65.78,0 119.59,53.81 119.59,119.59l0 871.36c0,65.78 -53.81,119.59 -119.59,119.59l-865.71 0c-65.78,0 -119.59,-53.81 -119.59,-119.59l0 -871.36c0,-65.78 53.81,-119.59 119.59,-119.59z"/>
  <path class="fil6" d="M7601.93 5193.06l878.25 0c62.33,0 113.32,50.99 113.32,113.32l0 0.01c0,62.33 -50.99,113.32 -113.32,113.32l-878.25 0c-62.33,0 -113.32,-50.99 -113.32,-113.32l0 -0.01c0,-62.33 50.99,-113.32 113.32,-113.32z"/>
  <path class="fil1" d="M10676.59 5663.85c644.41,0 1166.8,522.4 1166.8,1166.8 0,644.41 -522.4,1166.8 -1166.8,1166.8 -644.41,0 -1166.8,-522.4 -1166.8,-1166.8 0,-644.41 522.4,-1166.8 1166.8,-1166.8z"/>
  <polyline class="fil9 str1" points="10088.12,6806.61 10483.62,7288.19 11265.06,6373.14 "/>
 </g>
</svg>
