<?xml version="1.0" encoding="UTF-8"?>
<!DOCTYPE svg PUBLIC "-//W3C//DTD SVG 1.1//EN" "http://www.w3.org/Graphics/SVG/1.1/DTD/svg11.dtd">
<!-- Creator: CorelDRAW 2018 (64-Bit Evaluation Version) -->
<svg xmlns="http://www.w3.org/2000/svg" xml:space="preserve" width="200.342mm" height="137.993mm" version="1.1" style="shape-rendering:geometricPrecision; text-rendering:geometricPrecision; image-rendering:optimizeQuality; fill-rule:evenodd; clip-rule:evenodd"
viewBox="0 0 12167.03 8380.5"
 xmlns:xlink="http://www.w3.org/1999/xlink">
 <defs>
  <style type="text/css">
   <![CDATA[
    .str0 {stroke:#FBD13E;stroke-width:12.15;stroke-miterlimit:22.9256}
    .str1 {stroke:#FBD13E;stroke-width:82.27;stroke-miterlimit:22.9256}
    .fil8 {fill:none}
    .fil1 {fill:#3B9CFF}
    .fil4 {fill:#C4E1FF}
    .fil3 {fill:#F3F6F9}
    .fil6 {fill:#FBD13E}
    .fil5 {fill:#3B9CFF;fill-rule:nonzero}
    .fil7 {fill:#FBD13E;fill-rule:nonzero}
    .fil2 {fill:#F3F6F9;fill-opacity:0.960784}
    .fil0 {fill:#FBF0C8}
   ]]>
  </style>
 </defs>
 <g id="Layer_x0020_1">
  <metadata id="CorelCorpID_0Corel-Layer"/>
  <path class="fil0" d="M9582.45 2928.81c-306.12,-18.2 -355.7,76.03 -366.61,308.57l2.34 4372.84c-3.53,302.39 73.86,440.47 294.76,456.87l1944.4 4.73c315.64,23.03 425.57,-154.8 417.93,-447.41l0 -4355.66c-4.03,-274.68 -102.59,-354.54 -358.61,-352.71l-222.88 219.17 -1476.84 6.02 -234.5 -212.43z"/>
  <path class="fil1" d="M9443.29 3679.58l2204.92 0c41.12,0 74.75,33.63 74.75,74.74l0 649.07c0,41.11 -33.63,74.75 -74.75,74.75l-2204.92 0c-41.12,0 -74.75,-33.64 -74.75,-74.75l0 -649.07c0,-41.11 33.63,-74.74 74.75,-74.74z"/>
  <path class="fil2" d="M11571.15 8160.06l-1977.09 10.04c-422.77,10.54 -478.25,-196.45 -467.79,-581.98l1.96 -4457.44c21.85,-160.31 99.24,-258.55 239.49,-286.54l243.45 -0.11c70.92,28.04 99.56,208.95 295.76,208.42l1298.53 0.24c193.74,-38.9 175.11,-195.74 307.28,-210.85l215.58 5.96c146.49,20.93 223.4,165.67 225.34,331.99l2.76 4569.98c0.15,247.26 -107.28,408.86 -385.29,410.27zm-2218.6 -5534.97c-265.73,42 -420.61,213.37 -414.7,572.28l-13.17 4635.56c-8.19,366.79 204.6,529 572.54,547.56l2151.23 -1.81c287.88,6.09 465.44,-129.24 506.07,-440.06l12.5 -4758.97c-6.56,-317.72 -265.07,-555.54 -569.8,-553.74l-2244.68 -0.82z"/>
  <path class="fil3" d="M8968.11 6936.38l-8454.84 0c-278.23,0 -505.81,-117.83 -505.81,-261.88l0 -49.36 -7.45 0 0 -369.19 8971.97 0 -1.33 234.53 -2.53 445.89z"/>
  <path class="fil3" d="M8971.97 6255.95l-7386.76 0c-63.35,-5.93 -127.7,-73.36 -127.7,-137.01l0 -5296.85c0,-385.69 6.11,-390.54 624.38,-390.54l7779.28 0c636.45,0 613.66,-1.66 613.67,387.64l0.06 1806.32 440.37 -0.9 6.68 -2160.82c0.78,-255.1 -201.55,-463.79 -447.91,-463.79l-9005.02 0c-246.36,0 -447.91,208.7 -447.91,463.79l0 5792.16 7950.86 0z"/>
  <path class="fil0" d="M1922.13 579.63l8088.12 -0.29c324.43,-0.01 318.52,2.81 318.86,325.33l1.82 1720.78 -886.33 -0.33c-234.2,-8.52 -488.38,108.53 -506.72,502.11l-8.3 2982.95 -7007.45 0c-309.89,0 -318.86,2.67 -318.86,-325.33l0 -4879.9c0,-327.99 5.33,-325.32 318.86,-325.33z"/>
  <path class="fil4" d="M9534.81 4844.98l2021.87 0c93.61,0 170.19,76.58 170.19,170.19l0 0.01c0,93.6 -76.58,170.18 -170.19,170.18l-2021.87 0c-93.61,0 -170.19,-76.58 -170.19,-170.18l0 -0.01c0,-93.62 76.58,-170.19 170.19,-170.19z"/>
  <path class="fil4" d="M2096.45 3688.78l856.12 0c65.05,0 118.27,53.22 118.27,118.27l0 861.72c0,65.05 -53.22,118.27 -118.27,118.27l-856.12 0c-65.05,0 -118.27,-53.22 -118.27,-118.27l0 -861.72c0,-65.05 53.22,-118.27 118.27,-118.27z"/>
  <path class="fil4" d="M3888.98 3694.38l929.69 0c72.56,0 131.91,59.36 131.91,131.91l0 823.23c0,72.56 -59.36,131.91 -131.91,131.91l-929.69 0c-72.56,0 -131.91,-59.36 -131.91,-131.91l0 -823.23c0,-72.56 59.36,-131.91 131.91,-131.91z"/>
  <path class="fil4" d="M5765.84 3702.78l896.65 0c78.56,0 142.83,64.27 142.83,142.83l0 784.59c0,78.56 -64.27,142.83 -142.83,142.83l-896.65 0c-78.56,0 -142.83,-64.27 -142.83,-142.83l0 -784.59c0,-78.56 64.27,-142.83 142.83,-142.83z"/>
  <path class="fil4" d="M2089.74 5238.44l868.52 0c61.64,0 112.07,50.43 112.07,112.07l0 0.01c0,61.64 -50.43,112.07 -112.07,112.07l-868.52 0c-61.64,0 -112.07,-50.43 -112.07,-112.07l0 -0.01c0,-61.64 50.43,-112.07 112.07,-112.07z"/>
  <path class="fil4" d="M3919.57 5238.95l868.52 0c61.64,0 112.07,50.43 112.07,112.07l0 0c0,61.64 -50.43,112.07 -112.07,112.07l-868.52 0c-61.64,0 -112.07,-50.43 -112.07,-112.07l0 0c0,-61.64 50.43,-112.07 112.07,-112.07z"/>
  <path class="fil4" d="M5779.9 5238.95l868.52 0c61.64,0 112.07,50.43 112.07,112.07l0 0c0,61.64 -50.43,112.07 -112.07,112.07l-868.52 0c-61.64,0 -112.07,-50.43 -112.07,-112.07l0 0c0,-61.64 50.43,-112.07 112.07,-112.07z"/>
  <path class="fil4" d="M2112.06 2695.99l2791.04 0c73.72,0 134.03,60.32 134.03,134.03l0 375.37c0,73.71 -60.31,134.03 -134.03,134.03l-2791.04 0c-73.71,0 -134.03,-60.32 -134.03,-134.03l0 -375.37c0,-73.71 60.32,-134.03 134.03,-134.03z"/>
  <path class="fil5" d="M2200.79 2920.34l-49.59 0 0 70.48 48.13 0c10.47,-0.09 18.47,-3.33 24.04,-9.78 5.53,-6.45 8.36,-14.76 8.45,-25.05 0,-10.28 -2.65,-18.88 -7.91,-25.73 -5.48,-6.63 -13.21,-9.92 -23.13,-9.92zm-75.09 165.09l0 -188.95 75.37 0c18.69,0 32.64,5.76 41.96,17.27 9.55,11.2 14.31,25.14 14.31,41.96 0,16.87 -4.76,30.9 -14.22,42.1 -9.5,11.24 -23.54,16.87 -42.14,16.87l-49.78 0 0 70.75 -25.5 0zm250.1 -33.18c8.23,-7.68 12.34,-18.01 12.34,-31.03 0,-13.03 -4.29,-23.31 -12.84,-30.81 -8.59,-7.49 -18.7,-11.28 -30.3,-11.38 -11.65,0 -21.39,3.89 -29.25,11.66 -7.86,7.68 -11.79,17.73 -11.79,30.26 0,12.47 4.02,22.76 12.06,30.76 8.05,8.04 17.96,12.07 29.76,12.07 11.79,0 21.8,-3.84 30.03,-11.52zm37.57 33.18l-24.95 0 0 -19.65c-4.03,6.72 -10.11,12.11 -18.24,16.23 -8.14,4.11 -17,6.17 -26.69,6.17 -17.74,0 -33.14,-6.22 -46.17,-18.65 -12.57,-12.39 -18.88,-28.48 -18.88,-48.17 0,-19.75 6.22,-35.79 18.6,-48.09 12.43,-12.34 27.92,-18.55 46.48,-18.64 9.28,0 18.24,1.92 26.78,5.76 8.41,4.2 14.44,9.6 18.1,16.23l0 -19.25 24.95 0 0 128.07zm155.49 -128.07l-79.53 190.32 -26.1 0 26.87 -66.18 -51.28 -124.14 26.64 0 38.3 92.69 38.44 -92.69 26.64 0zm138.67 59.19l0 68.88 -24.95 0 0 -72.49c0,-10.6 -2.56,-18.78 -7.63,-24.59 -4.89,-6.04 -12.07,-9.05 -21.43,-9.05 -9.28,0 -17.33,3.15 -24.09,9.46 -6.81,6.3 -10.19,15.58 -10.19,27.78l0 68.88 -24.95 0 0 -128.07 24.95 0 0 19.47c2.97,-6.12 7.82,-11.15 14.62,-15.04 7.13,-3.89 13.62,-5.99 19.43,-6.35 24.63,-1.51 40.95,7.13 48.91,25.87 8.91,-17.78 23.63,-26.69 44.24,-26.69 16.05,0 28.25,4.93 36.57,14.85 8.54,9.74 12.84,23.72 12.84,41.91l0 74.04 -24.96 0 0 -72.22c0,-10.42 -2.61,-18.69 -7.77,-24.86 -5.58,-6.04 -13.12,-9.1 -22.58,-9.19 -9.41,-0.09 -17.28,3.29 -23.49,10.15 -6.26,6.86 -9.42,15.91 -9.51,27.24zm248.96 4.48c0,5.67 -0.09,8.91 -0.27,9.83l-103.94 0c1.23,10.33 5.81,18.88 13.66,25.69 7.59,6.26 16.09,9.41 25.56,9.41 18.51,0 31.44,-6.63 38.85,-19.88 0.18,0 0.46,0.05 0.82,0.23 0.32,0.18 0.96,0.5 1.88,0.96 1.05,0.46 2.47,1 4.25,1.6 1.78,0.64 3.15,1.19 4.02,1.65l10.46 3.89c-5.25,10.79 -13.21,19.11 -23.86,24.95 -10.6,5.9 -22.31,8.82 -35.06,8.82 -18.33,0 -33.96,-6.17 -46.98,-18.56 -12.39,-12.39 -18.56,-28.61 -18.56,-48.59 0,-20.02 6.17,-36.06 18.47,-48.18 12.34,-12.06 27.92,-18.14 46.85,-18.23 18.92,0 34.19,6.12 45.8,18.33 12.02,12.15 18.05,28.2 18.05,48.08zm-37.39 -35.01c-7.13,-6.13 -16,-9.19 -26.51,-9.19 -10.56,0 -19.61,3.06 -27.2,9.19 -7.49,6.53 -11.89,15.04 -13.12,25.37l79.39 0c-1.23,-10.33 -5.44,-18.83 -12.57,-25.37zm94.07 30.35l0 69.06 -24.95 0 0 -128.07 24.95 0 0 19.25c3.66,-7.13 9.14,-12.62 16.5,-16.37 7.31,-3.75 15.18,-5.62 23.54,-5.62 16.09,0 28.2,4.93 36.38,14.85 8.54,9.74 12.89,23.72 12.98,41.91l0 74.04 -24.95 0 0 -72.4c0,-10.79 -2.56,-19.11 -7.63,-24.91 -4.94,-6.08 -12.21,-9.1 -21.85,-9.1 -9.74,0 -18.01,3.16 -24.77,9.51 -6.81,6.3 -10.19,15.63 -10.19,27.83zm164 -105.9l0 46.9 26.87 0 0 22.22 -26.87 0 0 105.85 -24.96 0 0 -105.85 -23.04 0 0 -22.22 23.04 0 0 -46.9 24.96 0zm119.88 120.67l25.64 0c0.18,8.5 4.02,16.18 11.52,23.08 7.49,6.9 16.96,10.28 28.47,10.1 11.52,0 20.53,-2.56 27.06,-7.63 6.49,-5.07 10.37,-11.79 11.61,-20.07 1.42,-17.23 -9.27,-28.43 -32.13,-33.59l-24.37 -6.26c-30.71,-7.82 -46.07,-24.27 -46.07,-49.27 0,-15.5 6.03,-28.2 18.1,-38.08 11.61,-10.1 26.01,-15.13 43.1,-15.13 17.14,0 31.54,5.08 43.28,15.27 11.7,10.15 17.55,23.54 17.55,40.13l-25.5 0c0,-9.33 -3.29,-16.82 -9.92,-22.54 -6.77,-5.62 -15.04,-8.45 -24.86,-8.45 -9.78,0 -18.42,2.56 -25.83,7.68 -6.94,5.11 -10.42,11.79 -10.42,20.02 0,12.75 9.09,21.25 27.24,25.5l24.64 6.04c18.05,4.8 31.35,12.29 39.9,22.53 8.59,10.24 12.02,22.72 10.33,37.39 -1.69,14.72 -8.23,26.74 -19.56,36.2 -11.34,9.41 -26.05,14.13 -44.16,14.13 -18.1,0 -33.64,-5.58 -46.62,-16.77 -12.66,-11.57 -19.01,-25 -19.01,-40.27zm251.52 -4.62l0 -69.15 24.95 0 0 128.07 -24.95 0 0 -19.11c-3.66,7.04 -9.14,12.48 -16.5,16.23 -7.31,3.75 -15.09,5.62 -23.31,5.62 -15.86,0 -28.06,-4.99 -36.61,-14.99 -8.54,-10.01 -12.8,-23.9 -12.7,-41.69l0 -74.13 24.95 0 0 72.36c0,10.65 2.47,19.01 7.36,25.09 4.94,5.98 12.34,8.96 22.26,8.96 9.92,0 18.15,-3.11 24.77,-9.37 6.63,-6.26 9.87,-15.54 9.78,-27.88zm126.61 -71.89c19.74,0 35.92,6.9 48.59,20.65l-19.01 15.81c-8,-8.04 -18.06,-12.07 -30.12,-12.07 -12.02,0 -22.26,3.89 -30.67,11.7 -8.45,7.68 -12.7,17.87 -12.7,30.63 0,12.7 4.3,23.04 12.84,30.99 8.59,8 18.83,11.98 30.81,11.98 12.06,0 22.03,-4.2 29.84,-12.61l19.29 15.91c-12.75,13.71 -28.88,20.57 -48.31,20.57 -19.47,0 -35.92,-6.17 -49.36,-18.51 -13.39,-12.53 -20.07,-28.62 -20.07,-48.31 0,-19.7 6.58,-35.75 19.7,-48.09 13.16,-12.34 29.53,-18.55 49.18,-18.64zm140.32 0c19.74,0 35.92,6.9 48.59,20.65l-19.01 15.81c-8,-8.04 -18.06,-12.07 -30.12,-12.07 -12.02,0 -22.26,3.89 -30.67,11.7 -8.45,7.68 -12.7,17.87 -12.7,30.63 0,12.7 4.3,23.04 12.84,30.99 8.59,8 18.83,11.98 30.81,11.98 12.06,0 22.03,-4.2 29.84,-12.61l19.29 15.91c-12.75,13.71 -28.88,20.57 -48.31,20.57 -19.47,0 -35.92,-6.17 -49.36,-18.51 -13.39,-12.53 -20.07,-28.62 -20.07,-48.31 0,-19.7 6.58,-35.75 19.7,-48.09 13.16,-12.34 29.53,-18.55 49.18,-18.64zm200.6 66.41c0,5.67 -0.09,8.91 -0.27,9.83l-103.94 0c1.23,10.33 5.81,18.88 13.66,25.69 7.59,6.26 16.09,9.41 25.56,9.41 18.51,0 31.44,-6.63 38.85,-19.88 0.18,0 0.46,0.05 0.82,0.23 0.32,0.18 0.96,0.5 1.88,0.96 1.05,0.46 2.47,1 4.25,1.6 1.78,0.64 3.15,1.19 4.02,1.65l10.46 3.89c-5.25,10.79 -13.21,19.11 -23.86,24.95 -10.6,5.9 -22.31,8.82 -35.06,8.82 -18.33,0 -33.96,-6.17 -46.98,-18.56 -12.39,-12.39 -18.56,-28.61 -18.56,-48.59 0,-20.02 6.17,-36.06 18.47,-48.18 12.34,-12.06 27.92,-18.14 46.85,-18.23 18.92,0 34.19,6.12 45.8,18.33 12.02,12.15 18.05,28.2 18.05,48.08zm-37.39 -35.01c-7.13,-6.13 -16,-9.19 -26.51,-9.19 -10.56,0 -19.61,3.06 -27.2,9.19 -7.49,6.53 -11.89,15.04 -13.12,25.37l79.39 0c-1.23,-10.33 -5.44,-18.83 -12.57,-25.37zm78.07 -22.03c8.54,-6.26 18.88,-9.36 31.03,-9.36 12.11,0 22.17,3.1 30.07,9.32 7.96,6.21 12.48,15.08 13.53,26.6l-23.81 0c-0.73,-4.16 -2.93,-7.49 -6.58,-10.01 -4.02,-2.47 -8.45,-3.7 -13.39,-3.7 -4.89,0 -9.05,1.05 -12.43,3.16 -3.66,1.64 -5.94,4.52 -6.95,8.54 -0.96,4.02 -0.82,7.22 0.41,9.6 2.05,4.12 7.08,7.31 15.08,9.6l18.88 4.62c22.17,5.44 33.23,17.92 33.23,37.43 0,11.56 -4.8,20.89 -14.44,28.06 -9.74,6.9 -21.12,10.33 -34.14,10.33 -13.08,0 -24.41,-3.75 -34.05,-11.29 -9.64,-7.5 -14.53,-17.46 -14.72,-29.94l23.58 0c1.05,6.63 4.43,11.52 10.19,14.62 5.58,3.52 11.61,5.08 18.1,4.71 6.49,-0.37 11.51,-2.11 15.08,-5.21 3.56,-3.16 5.58,-6.95 6.04,-11.43 0.36,-4.48 -1.01,-8.04 -4.16,-10.74 -3.11,-2.7 -7.41,-4.66 -12.84,-5.9l-17.55 -4.07c-12.39,-3.34 -21.53,-8.23 -27.38,-14.76 -5.62,-6.77 -7.96,-15.22 -6.95,-25.41 0.96,-10.2 5.71,-18.42 14.17,-24.78zm120.39 0c8.54,-6.26 18.88,-9.36 31.03,-9.36 12.11,0 22.17,3.1 30.07,9.32 7.96,6.21 12.48,15.08 13.53,26.6l-23.81 0c-0.73,-4.16 -2.93,-7.49 -6.58,-10.01 -4.02,-2.47 -8.45,-3.7 -13.39,-3.7 -4.89,0 -9.05,1.05 -12.43,3.16 -3.66,1.64 -5.94,4.52 -6.95,8.54 -0.96,4.02 -0.82,7.22 0.41,9.6 2.05,4.12 7.08,7.31 15.08,9.6l18.88 4.62c22.17,5.44 33.23,17.92 33.23,37.43 0,11.56 -4.8,20.89 -14.44,28.06 -9.74,6.9 -21.12,10.33 -34.14,10.33 -13.08,0 -24.41,-3.75 -34.05,-11.29 -9.64,-7.5 -14.53,-17.46 -14.72,-29.94l23.58 0c1.05,6.63 4.43,11.52 10.19,14.62 5.58,3.52 11.61,5.08 18.1,4.71 6.49,-0.37 11.51,-2.11 15.08,-5.21 3.56,-3.16 5.58,-6.95 6.04,-11.43 0.36,-4.48 -1.01,-8.04 -4.16,-10.74 -3.11,-2.7 -7.41,-4.66 -12.84,-5.9l-17.55 -4.07c-12.39,-3.34 -21.53,-8.23 -27.38,-14.76 -5.62,-6.77 -7.96,-15.22 -6.95,-25.41 0.96,-10.2 5.71,-18.42 14.17,-24.78zm171.49 -76.28l13.99 0 0 23.86 -14.03 0c-16.04,0 -23.99,10.93 -23.81,32.82l0 12.98 29.62 0 0 22.22 -29.62 0 0 105.85 -24.95 0 0 -105.85 -24.95 0 0 -22.22 24.95 0 0 -12.98c0,-18.1 4.07,-32.04 12.25,-41.83 8.18,-9.83 20.39,-14.76 36.57,-14.85zm121.72 138.81l0 -69.15 24.95 0 0 128.07 -24.95 0 0 -19.11c-3.66,7.04 -9.14,12.48 -16.5,16.23 -7.31,3.75 -15.09,5.62 -23.31,5.62 -15.86,0 -28.06,-4.99 -36.61,-14.99 -8.54,-10.01 -12.8,-23.9 -12.7,-41.69l0 -74.13 24.95 0 0 72.36c0,10.65 2.47,19.01 7.36,25.09 4.94,5.98 12.34,8.96 22.26,8.96 9.92,0 18.15,-3.11 24.77,-9.37 6.63,-6.26 9.87,-15.54 9.78,-27.88zm66.23 58.92l0 -197.72 24.95 0 0 197.72 -24.95 0z"/>
  <path class="fil4" d="M7596.64 3688.78l856.13 0c65.05,0 118.27,53.22 118.27,118.27l0 861.72c0,65.05 -53.22,118.27 -118.27,118.27l-856.13 0c-65.05,0 -118.27,-53.22 -118.27,-118.27l0 -861.72c0,-65.05 53.22,-118.27 118.27,-118.27z"/>
  <path class="fil4" d="M7590.44 5238.95l868.54 0c61.64,0 112.07,50.43 112.07,112.07l0 0.01c0,61.64 -50.43,112.07 -112.07,112.07l-868.54 0c-61.64,0 -112.07,-50.43 -112.07,-112.07l0 -0.01c0,-61.64 50.43,-112.07 112.07,-112.07z"/>
  <path class="fil1" d="M2071.94 1064.77l7844.22 0c51.75,0 94.08,42.33 94.08,94.08l0 1126.31c0,51.75 -42.33,94.08 -94.08,94.08l-7844.22 0c-51.75,0 -94.08,-42.33 -94.08,-94.08l0 -1126.31c0,-51.75 42.33,-94.08 94.08,-94.08z"/>
  <path class="fil6" d="M2484 1527.16c107.6,0 194.83,87.23 194.83,194.84 0,107.61 -87.23,194.84 -194.83,194.84 -107.6,0 -194.84,-87.23 -194.84,-194.84 0,-107.6 87.23,-194.84 194.84,-194.84z"/>
  <path class="fil5" d="M2484.36 1731.12l-26.36 0 0 -31.14 26.36 0c7.93,0.24 14.97,-2.15 21.18,-7.16 5.96,-5.37 9.72,-12.52 11.33,-21.35 1.67,-8.88 0.24,-16.34 -4.18,-22.43 -5.48,-8.41 -14.49,-12.88 -27.08,-13.48 -16.76,-1.49 -30.42,5.49 -40.91,21l-23.92 -18.91c6.38,-11.03 15.75,-19.74 27.97,-26.19 12.71,-6.08 25.89,-8.71 39.67,-7.75 18.85,0.89 34.42,7.81 46.59,20.7 12.64,12.35 18.79,26.96 18.43,43.9 0,4.53 -0.78,9.3 -2.27,14.31 -4.3,14.02 -12.77,24.63 -25.36,31.67 11.87,4.35 21.36,12.65 28.34,25.05 7.04,12.35 9.9,25.06 8.59,38.06 -2.03,19.8 -11.51,36.15 -28.45,48.97 -16.94,12.76 -36.21,18.37 -57.74,16.76 -15.27,-1.19 -29.05,-6.14 -41.27,-14.85 -12.23,-8.77 -21.6,-19.99 -28.09,-33.76l28.27 -15.33c4.29,9.07 10.26,16.35 17.84,21.83 7.82,6.15 16.28,9.61 25.53,10.32 13.6,0.66 25.17,-2.62 34.59,-9.96 10.5,-7.69 15.87,-17.18 16.23,-28.51 0.36,-11.27 -4,-21.06 -13.12,-29.35 -9.07,-8.29 -19.8,-12.41 -32.15,-12.41z"/>
  <g id="_2097199292400">
   <path class="fil6 str0" d="M9297.08 1622.34l275.52 209.71 -29.57 7.34c-79.5,19.73 -162.29,-1.6 -220.07,-60.22 -41.35,-41.96 -64.26,-97.8 -64.49,-156.7 -0.59,-147.39 140.13,-252.55 281.85,-217.75l29.44 7.23 -272.67 210.38z"/>
   <path class="fil6 str0" d="M9660.31 1821.75l-272.67 -210.38 29.44 -7.23c141.72,-34.81 282.44,70.35 281.85,217.75 -0.24,58.9 -23.14,114.74 -64.5,156.7 -57.78,58.62 -140.57,79.94 -220.06,60.22l-29.57 -7.34 275.52 -209.71z"/>
  </g>
  <path class="fil7" d="M3098.77 1615.1c-16.74,-15.36 -37.31,-23.04 -61.67,-23.04 -24.36,0 -45.48,9.3 -63.29,27.95 -17.82,18.66 -26.7,41.15 -26.7,67.55 0,26.39 8.88,48.83 26.7,67.31 17.81,18.42 38.69,27.6 62.57,27.6 23.93,0 43.37,-6 58.37,-17.94 14.4,-11.93 22.26,-28.25 23.52,-49.01l-70.61 0 0 -29.15 108.76 0c0,41.27 -10.2,73.07 -30.6,95.44 -20.93,21.78 -49.49,32.7 -85.55,32.7 -36.11,0 -66.23,-12.42 -90.4,-37.25 -24.17,-24.84 -36.23,-54.77 -36.23,-89.81 0,-35.27 12.06,-65.33 36.23,-90.16 24.18,-24.83 53.27,-37.25 87.23,-37.25 33.95,0 62.57,10.92 85.78,32.75l-24.12 22.32zm255.02 111.28c0,7.44 -0.12,11.7 -0.36,12.9l-136.42 0c1.62,13.56 7.62,24.77 17.94,33.71 9.96,8.22 21.12,12.36 33.53,12.36 24.3,0 41.27,-8.7 51,-26.1 0.24,0 0.6,0.06 1.07,0.3 0.43,0.24 1.26,0.66 2.46,1.26 1.38,0.6 3.24,1.32 5.58,2.1 2.34,0.84 4.14,1.56 5.28,2.16l13.74 5.1c-6.9,14.16 -17.33,25.08 -31.31,32.75 -13.92,7.74 -29.27,11.58 -46.01,11.58 -24.06,0 -44.57,-8.1 -61.67,-24.36 -16.25,-16.26 -24.35,-37.55 -24.35,-63.77 0,-26.27 8.1,-47.33 24.24,-63.23 16.2,-15.84 36.65,-23.82 61.48,-23.93 24.84,0 44.87,8.03 60.11,24.06 15.78,15.95 23.7,37.01 23.7,63.11zm-49.07 -45.95c-9.36,-8.04 -21,-12.06 -34.79,-12.06 -13.86,0 -25.74,4.02 -35.7,12.06 -9.84,8.58 -15.6,19.74 -17.22,33.29l104.2 0c-1.62,-13.56 -7.14,-24.72 -16.49,-33.29zm136.06 -99.16l0 61.55 35.27 0 0 29.16 -35.27 0 0 138.93 -32.75 0 0 -138.93 -30.24 0 0 -29.16 30.24 0 0 -61.55 32.75 0zm172.59 229.64l0 -248 33.48 0 0 248 -33.48 0zm139.96 -229.64l0 61.55 35.27 0 0 29.16 -35.27 0 0 138.93 -32.75 0 0 -138.93 -30.24 0 0 -29.16 30.24 0 0 -61.55 32.75 0z"/>
  <path class="fil7" d="M9577.33 3983.79l0 -33.55 197.83 0 0 33.55 -80.99 0 0 232.16 -35.86 0 0 -232.16 -80.99 0zm272.97 135.04l0 97.12 -35.1 0 0 -278.05 35.1 0 0 125.02c4.88,-10.03 13.24,-17.74 25.06,-23.01 11.76,-5.27 23.21,-7.91 34.26,-7.91 22.75,0 40.68,7.08 53.74,21.28 13.05,14.2 19.47,33.68 19.22,58.55l0 104.12 -35.09 0 0 -101.81c0,-14.98 -3.99,-26.48 -11.89,-34.64 -7.65,-8.81 -18.26,-13.18 -31.82,-13.18 -13.56,0 -25.84,4.31 -36.89,12.98 -11.05,8.68 -16.58,21.85 -16.58,39.53zm313.4 50.45c11.57,-10.8 17.36,-25.32 17.36,-43.64 0,-18.32 -6.04,-32.78 -18.06,-43.32 -12.09,-10.54 -26.29,-15.88 -42.62,-16 -16.39,0 -30.08,5.47 -41.13,16.39 -11.06,10.8 -16.59,24.94 -16.59,42.55 0,17.55 5.65,32.01 16.97,43.25 11.31,11.31 25.26,16.97 41.84,16.97 16.58,0 30.66,-5.4 42.23,-16.2zm52.84 46.67l-35.1 0 0 -27.64c-5.65,9.45 -14.21,17.04 -25.65,22.82 -11.44,5.79 -23.91,8.68 -37.53,8.68 -24.94,0 -46.6,-8.74 -64.92,-26.22 -17.67,-17.42 -26.54,-40.04 -26.54,-67.75 0,-27.77 8.74,-50.33 26.16,-67.62 17.48,-17.35 39.27,-26.09 65.37,-26.22 13.05,0 25.65,2.7 37.67,8.1 11.82,5.92 20.31,13.49 25.45,22.82l0 -27.06 35.1 0 0 180.1zm93.26 -97.12l0 97.12 -35.1 0 0 -180.1 35.1 0 0 27.06c5.14,-10.03 12.85,-17.74 23.2,-23.01 10.28,-5.27 21.34,-7.91 33.1,-7.91 22.62,0 39.65,6.94 51.16,20.89 12.02,13.69 18.12,33.36 18.26,58.94l0 104.12 -35.1 0 0 -101.81c0,-15.17 -3.6,-26.87 -10.73,-35.03 -6.94,-8.55 -17.16,-12.79 -30.72,-12.79 -13.69,0 -25.32,4.43 -34.84,13.37 -9.58,8.87 -14.33,21.98 -14.33,39.15zm217.12 97.12l-35.1 0 0 -278.05 35.1 0 0 160.69 62.15 -62.74 47.82 0 -77.2 77.77 95.64 102.33 -46.34 0 -82.07 -87.99 0 87.99zm367.84 0l-35.87 0 0 -122.19 -100.72 -143.53 42.94 0 75.71 107.53 76.68 -107.53 43.13 0 -101.87 143.53 0 122.19zm257.67 -46.34c11.25,-11.05 16.91,-25.58 16.91,-43.57 0,-18.06 -5.66,-32.46 -16.91,-43.26 -11.25,-10.86 -25.26,-16.32 -42.03,-16.45 -16.71,0 -30.79,5.4 -42.17,16.26 -11.5,10.93 -17.29,25.32 -17.29,43.25 0,17.87 5.65,32.39 16.9,43.58 11.25,11.25 25.32,16.83 42.23,16.83 16.97,0 31.11,-5.53 42.35,-16.65zm-42.17 50.2c-26.22,0 -48.46,-8.68 -66.84,-26.03 -18.38,-17.36 -27.57,-39.98 -27.57,-67.94 0,-27.96 9.06,-50.65 27.12,-68 18.06,-17.36 40.36,-25.97 66.97,-25.84 26.73,0 49.1,8.68 67.16,26.04 18.19,17.48 27.32,40.11 27.32,67.81 0,27.71 -9.13,50.26 -27.38,67.75 -18.26,17.48 -40.56,26.22 -66.79,26.22zm264.1 -86.71l0 -97.25 35.1 0 0 180.1 -35.1 0 0 -26.87c-5.14,9.9 -12.86,17.55 -23.21,22.82 -10.28,5.27 -21.21,7.91 -32.78,7.91 -22.3,0 -39.46,-7.01 -51.48,-21.08 -12.02,-14.08 -18,-33.61 -17.87,-58.62l0 -104.26 35.09 0 0 101.75c0,14.98 3.47,26.74 10.35,35.28 6.94,8.42 17.35,12.6 31.3,12.6 13.95,0 25.52,-4.37 34.84,-13.17 9.32,-8.81 13.88,-21.85 13.76,-39.21zm89.27 62.86c0,-6.75 2.44,-12.47 7.33,-17.23 4.82,-4.76 10.73,-7.14 17.67,-7.14 6.87,0 12.92,2.31 17.93,6.94 5.08,4.63 7.59,10.42 7.59,17.42 0,7 -2.58,12.72 -7.78,17.1 -5.14,4.5 -11.05,6.75 -17.74,6.75 -6.69,0 -12.6,-2.19 -17.67,-6.56 -4.89,-4.63 -7.33,-10.41 -7.33,-17.28zm7.71 -245.72l35.1 0 -3.47 194.43 -27.38 0 -4.25 -194.43z"/>
  <path class="fil1" d="M10545.74 5599.09c637.28,0 1153.89,516.62 1153.89,1153.89 0,637.28 -516.62,1153.89 -1153.89,1153.89 -637.28,0 -1153.89,-516.62 -1153.89,-1153.89 0,-637.28 516.62,-1153.89 1153.89,-1153.89z"/>
  <polyline class="fil8 str1" points="9963.78,6729.2 10354.9,7205.45 11127.69,6300.52 "/>
 </g>
</svg>
