<?xml version="1.0" encoding="UTF-8"?>
<!DOCTYPE svg PUBLIC "-//W3C//DTD SVG 1.1//EN" "http://www.w3.org/Graphics/SVG/1.1/DTD/svg11.dtd">
<!-- Creator: CorelDRAW 2018 (64-Bit Evaluation Version) -->
<svg xmlns="http://www.w3.org/2000/svg" xml:space="preserve" width="200.342mm" height="137.993mm" version="1.1" style="shape-rendering:geometricPrecision; text-rendering:geometricPrecision; image-rendering:optimizeQuality; fill-rule:evenodd; clip-rule:evenodd"
viewBox="0 0 12167.03 8380.5"
 xmlns:xlink="http://www.w3.org/1999/xlink">
 <defs>
  <style type="text/css">
   <![CDATA[
    .str0 {stroke:#FBD13E;stroke-width:12.15;stroke-miterlimit:22.9256}
    .fil1 {fill:#3B9CFF}
    .fil6 {fill:#C4E1FF}
    .fil3 {fill:#F3F6F9}
    .fil4 {fill:#FBD13E}
    .fil5 {fill:#3B9CFF;fill-rule:nonzero}
    .fil7 {fill:#FBD13E;fill-rule:nonzero}
    .fil2 {fill:#F3F6F9;fill-opacity:0.960784}
    .fil0 {fill:#FBF0C8}
   ]]>
  </style>
 </defs>
 <g id="Layer_x0020_1">
  <metadata id="CorelCorpID_0Corel-Layer"/>
  <path class="fil0" d="M9582.45 2928.81c-306.12,-18.2 -355.7,76.03 -366.61,308.57l2.34 4372.84c-3.53,302.39 73.86,440.47 294.76,456.87l1944.4 4.73c315.64,23.03 425.57,-154.8 417.93,-447.41l0 -4355.66c-4.03,-274.68 -102.59,-354.54 -358.61,-352.71l-222.88 219.17 -1476.84 6.02 -234.5 -212.43z"/>
  <path class="fil1" d="M9443.29 3679.58l2204.92 0c41.12,0 74.75,33.63 74.75,74.74l0 649.07c0,41.11 -33.63,74.75 -74.75,74.75l-2204.92 0c-41.12,0 -74.75,-33.64 -74.75,-74.75l0 -649.07c0,-41.11 33.63,-74.74 74.75,-74.74z"/>
  <path class="fil2" d="M11571.15 8160.06l-1977.09 10.04c-422.77,10.54 -478.25,-196.45 -467.79,-581.98l1.96 -4457.44c21.85,-160.31 99.24,-258.55 239.49,-286.54l243.45 -0.11c70.92,28.04 99.56,208.95 295.76,208.42l1298.53 0.24c193.74,-38.9 175.11,-195.74 307.28,-210.85l215.58 5.96c146.49,20.93 223.4,165.67 225.34,331.99l2.76 4569.98c0.15,247.26 -107.28,408.86 -385.29,410.27zm-2218.6 -5534.97c-265.73,42 -420.61,213.37 -414.7,572.28l-13.17 4635.56c-8.19,366.79 204.6,529 572.54,547.56l2151.23 -1.81c287.88,6.09 465.44,-129.24 506.07,-440.06l12.5 -4758.97c-6.56,-317.72 -265.07,-555.54 -569.8,-553.74l-2244.68 -0.82z"/>
  <path class="fil3" d="M8968.11 6936.38l-8454.84 0c-278.23,0 -505.81,-117.83 -505.81,-261.88l0 -49.36 -7.45 0 0 -369.19 8971.97 0 -1.33 234.53 -2.53 445.89z"/>
  <path class="fil3" d="M8971.97 6255.95l-7386.76 0c-63.35,-5.93 -127.7,-73.36 -127.7,-137.01l0 -5296.85c0,-385.69 6.11,-390.54 624.38,-390.54l7779.28 0c636.45,0 613.66,-1.66 613.67,387.64l0.06 1806.32 440.37 -0.9 6.68 -2160.82c0.78,-255.1 -201.55,-463.79 -447.91,-463.79l-9005.02 0c-246.36,0 -447.91,208.7 -447.91,463.79l0 5792.16 7950.86 0z"/>
  <path class="fil0" d="M1922.13 579.63l8088.12 -0.29c324.43,-0.01 318.52,2.81 318.86,325.33l1.82 1720.78 -886.33 -0.33c-234.2,-8.52 -488.38,108.53 -506.72,502.11l-8.3 2982.95 -7007.45 0c-309.89,0 -318.86,2.67 -318.86,-325.33l0 -4879.9c0,-327.99 5.33,-325.32 318.86,-325.33zm145.35 336.55l7691.67 0c86.01,0 156.35,71.78 156.35,159.53l0 735.45c0,87.74 -70.35,159.52 -156.35,159.52l-7691.67 0c-86,0 -156.35,-71.78 -156.35,-159.52l0 -735.45c0,-87.74 70.36,-159.53 156.35,-159.53z"/>
  <path class="fil1" d="M2061.55 910.68l7694.43 0c87.74,0 159.53,71.78 159.53,159.52l0 735.45c0,87.74 -71.79,159.53 -159.53,159.53l-7694.43 0c-87.74,0 -159.53,-71.78 -159.53,-159.53l0 -735.45c0,-87.74 71.79,-159.52 159.53,-159.52z"/>
  <path class="fil4" d="M2417.04 1243.09c107.6,0 194.83,87.23 194.83,194.84 0,107.61 -87.23,194.84 -194.83,194.84 -107.6,0 -194.84,-87.23 -194.84,-194.84 0,-107.6 87.23,-194.84 194.84,-194.84z"/>
  <path class="fil5" d="M2346.9 1556.21l0 -14.2 94.3 -114.94c11.33,-13.18 17,-25.65 17,-37.34 0,-11.75 -4.11,-20.99 -12.29,-27.8 -8.17,-6.86 -17.95,-10.32 -29.35,-10.44 -11.34,0 -20.88,3.4 -28.57,10.26 -7.76,6.8 -12.35,15.81 -13.9,26.96l-30.78 -7.57c3.1,-18.37 11.45,-33.23 24.94,-44.62 14.08,-11.27 30.84,-16.88 50.29,-16.88 19.45,0 36.26,6.38 50.52,19.2 14.25,12.77 21.35,29.41 21.35,49.93 0,20.52 -8.47,40.74 -25.53,60.6l-63.94 74.98 89.83 0 0 31.85 -143.87 0z"/>
  <g id="_2096858220912">
   <path class="fil4 str0" d="M9230.12 1338.27l275.52 209.71 -29.57 7.34c-79.5,19.73 -162.29,-1.6 -220.07,-60.22 -41.35,-41.96 -64.26,-97.8 -64.49,-156.7 -0.59,-147.39 140.13,-252.55 281.85,-217.75l29.44 7.23 -272.67 210.38z"/>
   <path class="fil4 str0" d="M9593.35 1537.68l-272.67 -210.38 29.44 -7.23c141.72,-34.81 282.44,70.35 281.85,217.75 -0.24,58.9 -23.14,114.74 -64.5,156.7 -57.78,58.62 -140.57,79.94 -220.06,60.22l-29.57 -7.34 275.52 -209.71z"/>
  </g>
  <path class="fil6" d="M3917.94 4374.44l821.13 0c76.85,0 139.72,62.88 139.72,139.74l0 826.76c0,76.85 -62.88,139.72 -139.72,139.72l-821.13 0c-76.86,0 -139.74,-62.88 -139.74,-139.72l0 -826.76c0,-76.86 62.88,-139.74 139.74,-139.74z"/>
  <path class="fil6" d="M5677.74 4380.07l992.74 0c57.6,0 104.72,47.12 104.72,104.73l0 885.5c0,57.6 -47.12,104.72 -104.72,104.72l-992.74 0c-57.6,0 -104.72,-47.12 -104.72,-104.72l0 -885.5c0,-57.61 47.12,-104.73 104.72,-104.73z"/>
  <path class="fil6" d="M7556.54 4388.54l982.8 0c57.23,0 104.04,46.81 104.04,104.04l0 869.93c0,57.22 -46.81,104.04 -104.04,104.04l-982.8 0c-57.23,0 -104.05,-46.82 -104.05,-104.04l0 -869.93c0,-57.23 46.82,-104.04 104.05,-104.04z"/>
  <path class="fil6" d="M3892.79 2610.66l2791.04 0c73.72,0 134.03,60.32 134.03,134.03l0 375.37c0,73.71 -60.31,134.03 -134.03,134.03l-2791.04 0c-73.71,0 -134.03,-60.32 -134.03,-134.03l0 -375.37c0,-73.71 60.32,-134.03 134.03,-134.03z"/>
  <path class="fil6" d="M7588.4 2616.3l902.82 0c66.81,0 121.46,54.66 121.46,121.46l0 377.92c0,66.8 -54.65,121.46 -121.46,121.46l-902.82 0c-66.8,0 -121.47,-54.66 -121.47,-121.46l0 -377.92c0,-66.8 54.66,-121.46 121.47,-121.46z"/>
  <path class="fil6" d="M2082.7 2627.59l812.37 0c99.45,0 180.8,81.36 180.8,180.8l0 2460.44c0,99.45 -81.35,180.8 -180.8,180.8l-812.37 0c-99.44,0 -180.8,-81.35 -180.8,-180.8l0 -2460.44c0,-99.44 81.36,-180.8 180.8,-180.8z"/>
  <path class="fil6" d="M3961.62 3756.37l2562.42 0c99.33,0 180.61,81.28 180.61,180.61l0 0.01c0,99.33 -81.28,180.6 -180.61,180.6l-2562.42 0c-99.33,0 -180.61,-81.27 -180.61,-180.6l0 -0.01c0,-99.33 81.28,-180.61 180.61,-180.61z"/>
  <path class="fil6" d="M9534.81 4778.18l2021.87 0c93.61,0 170.19,76.58 170.19,170.19l0 0.01c0,93.6 -76.58,170.18 -170.19,170.18l-2021.87 0c-93.61,0 -170.19,-76.58 -170.19,-170.18l0 -0.01c0,-93.62 76.58,-170.19 170.19,-170.19z"/>
  <path class="fil6" d="M9516.16 5455.97l2059.16 0c83.35,0 151.54,68.2 151.54,151.55l0 1729.97c0,83.35 -68.2,151.55 -151.54,151.55l-2059.16 0c-83.35,0 -151.54,-68.2 -151.54,-151.55l0 -1729.97c0,-83.36 68.19,-151.55 151.54,-151.55z"/>
  <path class="fil5" d="M3926.39 2973.92c-18.51,-18.97 -27.78,-41.87 -27.78,-68.7 0,-26.78 9.27,-49.68 27.78,-68.65 18.65,-18.97 41.92,-28.48 69.75,-28.48 27.88,0 50.97,10.6 69.39,31.81l-19.29 16c-14.31,-15.58 -31.45,-23.4 -51.42,-23.4 -20.02,0 -36.8,7.09 -50.37,21.26 -13.57,14.17 -20.34,31.31 -20.34,51.46 0,20.21 6.77,37.3 20.34,51.37 13.39,13.99 30.35,20.98 50.92,20.98 20.52,0 37.67,-8.09 51.42,-24.23l19.24 16.27c-18.37,21.57 -41.59,32.36 -69.61,32.36 -28.02,0 -51.37,-9.37 -70.02,-28.06zm255.68 -7.86c8.23,-7.68 12.34,-18.01 12.34,-31.03 0,-13.03 -4.29,-23.31 -12.84,-30.81 -8.59,-7.49 -18.7,-11.28 -30.3,-11.38 -11.65,0 -21.39,3.89 -29.25,11.66 -7.86,7.68 -11.79,17.73 -11.79,30.26 0,12.47 4.02,22.76 12.06,30.76 8.05,8.04 17.96,12.07 29.76,12.07 11.79,0 21.8,-3.84 30.03,-11.52zm37.57 33.18l-24.95 0 0 -19.65c-4.03,6.72 -10.11,12.11 -18.24,16.23 -8.14,4.11 -17,6.17 -26.69,6.17 -17.74,0 -33.14,-6.22 -46.17,-18.65 -12.57,-12.39 -18.88,-28.48 -18.88,-48.17 0,-19.75 6.22,-35.79 18.6,-48.09 12.43,-12.34 27.92,-18.55 46.48,-18.64 9.28,0 18.24,1.92 26.78,5.76 8.41,4.2 14.44,9.6 18.1,16.23l0 -19.25 24.95 0 0 128.07zm75.92 -174.97l0 46.9 26.87 0 0 22.22 -26.87 0 0 105.85 -24.96 0 0 -105.85 -23.04 0 0 -22.22 23.04 0 0 -46.9 24.96 0zm144.15 141.78c8.23,-7.68 12.34,-18.01 12.34,-31.03 0,-13.03 -4.29,-23.31 -12.84,-30.81 -8.59,-7.49 -18.7,-11.28 -30.3,-11.38 -11.65,0 -21.39,3.89 -29.25,11.66 -7.86,7.68 -11.79,17.73 -11.79,30.26 0,12.47 4.02,22.76 12.06,30.76 8.05,8.04 17.96,12.07 29.76,12.07 11.79,0 21.8,-3.84 30.03,-11.52zm37.57 33.18l-24.95 0 0 -19.65c-4.03,6.72 -10.11,12.11 -18.24,16.23 -8.14,4.11 -17,6.17 -26.69,6.17 -17.74,0 -33.14,-6.22 -46.17,-18.65 -12.57,-12.39 -18.88,-28.48 -18.88,-48.17 0,-19.75 6.22,-35.79 18.6,-48.09 12.43,-12.34 27.92,-18.55 46.48,-18.64 9.28,0 18.24,1.92 26.78,5.76 8.41,4.2 14.44,9.6 18.1,16.23l0 -19.25 24.95 0 0 128.07zm41.36 0l0 -197.72 24.95 0 0 197.72 -24.95 0zm155.17 -32.95c8,-7.86 12.02,-18.2 12.02,-30.99 0,-12.84 -4.02,-23.08 -12.02,-30.76 -8,-7.73 -17.96,-11.61 -29.89,-11.7 -11.89,0 -21.89,3.84 -29.98,11.57 -8.18,7.77 -12.3,18.01 -12.3,30.76 0,12.7 4.03,23.04 12.02,30.99 8,8 18.01,11.98 30.03,11.98 12.07,0 22.12,-3.93 30.12,-11.84zm-29.98 35.7c-18.65,0 -34.46,-6.17 -47.53,-18.51 -13.08,-12.34 -19.61,-28.43 -19.61,-48.31 0,-19.88 6.44,-36.02 19.29,-48.36 12.84,-12.34 28.7,-18.46 47.63,-18.37 19.01,0 34.92,6.17 47.77,18.51 12.94,12.43 19.42,28.52 19.42,48.22 0,19.7 -6.49,35.74 -19.47,48.17 -12.98,12.43 -28.84,18.65 -47.49,18.65zm128.84 -35.93c7.86,7.68 17.64,11.52 29.39,11.52 11.7,0 21.8,-3.84 30.3,-11.52 8.46,-7.68 12.7,-18.01 12.7,-31.03 0,-13.03 -4.11,-23.36 -12.34,-30.94 -8.22,-7.49 -18.23,-11.25 -30.03,-11.25 -11.79,0 -21.71,4.03 -29.76,12.07 -8.04,8.09 -12.06,18.42 -12.06,30.9 0,12.52 3.93,22.58 11.79,30.26zm27.38 73.22c30.35,0 45.57,-19.29 45.57,-57.82 0,-0.36 -0.09,-0.82 -0.27,-1.32l0 -1.74c-3.66,7.31 -9.69,13.08 -18.1,17.28 -8.41,4.2 -17.32,6.31 -26.82,6.31 -18.38,0 -33.83,-6.13 -46.3,-18.33 -12.48,-12.25 -18.74,-28.34 -18.74,-48.22 0,-19.93 6.4,-36.06 19.15,-48.36 12.75,-12.34 28.11,-18.55 45.94,-18.64 9.74,0 18.69,2.1 26.78,6.3 8.05,3.66 14.08,9.14 18.1,16.5l0 -20.07 24.95 0 0 108.64c0,55.63 -23.41,83.41 -70.25,83.32 -12.25,0.09 -23.45,-2.92 -33.64,-9 -10.15,-6.13 -18.24,-14.72 -24.23,-25.73 0.87,-0.19 4.52,-2.11 10.97,-5.71l9.87 -5.17c3.47,6.54 8.68,11.79 15.54,15.77 6.91,3.98 14.03,5.99 21.48,5.99z"/>
  <path class="fil7" d="M2847.65 1455.56l33.66 0c0.24,11.16 5.28,21.24 15.12,30.29 9.84,9.06 22.25,13.5 37.37,13.26 15.12,0 26.93,-3.36 35.51,-10.01 8.52,-6.66 13.62,-15.48 15.24,-26.34 1.86,-22.61 -12.18,-37.31 -42.17,-44.09l-31.98 -8.22c-40.31,-10.26 -60.47,-31.85 -60.47,-64.67 0,-20.34 7.92,-37.02 23.76,-49.98 15.24,-13.26 34.14,-19.85 56.57,-19.85 22.49,0 41.39,6.66 56.81,20.04 15.36,13.32 23.04,30.89 23.04,52.67l-33.48 0c0,-12.24 -4.32,-22.08 -13.01,-29.58 -8.88,-7.38 -19.74,-11.1 -32.64,-11.1 -12.83,0 -24.17,3.36 -33.89,10.08 -9.12,6.72 -13.68,15.48 -13.68,26.28 0,16.74 11.94,27.89 35.76,33.47l32.33 7.92c23.69,6.3 41.15,16.14 52.37,29.58 11.28,13.44 15.78,29.81 13.56,49.07 -2.22,19.32 -10.8,35.1 -25.67,47.51 -14.88,12.36 -34.2,18.54 -57.95,18.54 -23.76,0 -44.15,-7.32 -61.19,-22.02 -16.62,-15.18 -24.95,-32.82 -24.95,-52.85zm247.7 -19.37l0 90.64 -32.76 0 0 -259.52 32.76 0 0 116.68c4.55,-9.36 12.35,-16.56 23.39,-21.47 10.98,-4.92 21.66,-7.38 31.98,-7.38 21.24,0 37.97,6.6 50.15,19.85 12.18,13.26 18.18,31.43 17.93,54.65l0 97.18 -32.75 0 0 -95.02c0,-13.98 -3.72,-24.72 -11.1,-32.34 -7.14,-8.22 -17.04,-12.3 -29.69,-12.3 -12.66,0 -24.12,4.02 -34.43,12.12 -10.32,8.1 -15.47,20.39 -15.47,36.89zm292.2 47.39c10.5,-10.32 15.78,-23.87 15.78,-40.67 0,-16.86 -5.28,-30.29 -15.78,-40.37 -10.49,-10.14 -23.58,-15.24 -39.23,-15.36 -15.6,0 -28.73,5.04 -39.35,15.18 -10.74,10.2 -16.14,23.64 -16.14,40.37 0,16.68 5.28,30.24 15.78,40.67 10.5,10.5 23.64,15.72 39.41,15.72 15.84,0 29.04,-5.16 39.53,-15.54zm-39.35 46.85c-24.48,0 -45.23,-8.1 -62.39,-24.3 -17.16,-16.2 -25.74,-37.31 -25.74,-63.41 0,-26.1 8.46,-47.27 25.31,-63.46 16.86,-16.2 37.68,-24.24 62.51,-24.12 24.95,0 45.83,8.1 62.69,24.29 16.98,16.32 25.5,37.43 25.5,63.29 0,25.86 -8.52,46.91 -25.56,63.23 -17.04,16.31 -37.85,24.47 -62.33,24.47zm180.03 -127.84c-10.38,10.32 -15.6,24.06 -15.6,41.27 0,17.16 5.52,30.54 16.49,40.13 11.04,9.6 24.06,14.4 39.17,14.4 15.12,0 28.02,-5.04 38.64,-15.12 10.08,-10.02 15.12,-23.22 15.12,-39.6 0,-16.37 -5.28,-29.87 -15.84,-40.37 -10.62,-10.5 -23.69,-15.84 -39.11,-15.96 -15.48,-0.12 -28.43,4.98 -38.87,15.24zm-48.71 -43.85l32.76 0 0 26.45c5.51,-9.41 13.49,-16.68 24.06,-21.71 10.32,-5.58 21.83,-8.34 34.61,-8.34 23.45,0 43.31,8.16 59.51,24.54 16.26,16.2 24.35,37.31 24.35,63.29 0,25.97 -8.03,47.03 -24.17,63.23 -16.08,16.14 -36,24.24 -59.69,24.24 -12.78,0 -24.47,-2.52 -35.15,-7.56 -10.62,-5.04 -18.48,-12.12 -23.52,-21.12l0 106.78 -32.76 0 0 -249.8zm319.15 168.09l0 -248 33.48 0 0 248 -33.48 0zm139.96 -229.64l0 61.55 35.27 0 0 29.16 -35.27 0 0 138.93 -32.75 0 0 -138.93 -30.24 0 0 -29.16 30.24 0 0 -61.55 32.75 0z"/>
  <path class="fil7" d="M9602.77 3983.63l-69.86 0 0 99.28 67.8 0c14.75,-0.13 26.01,-4.7 33.87,-13.78 7.79,-9.07 11.78,-20.79 11.91,-35.28 0,-14.49 -3.73,-26.59 -11.14,-36.25 -7.73,-9.33 -18.61,-13.97 -32.58,-13.97zm-105.79 232.56l0 -266.17 106.18 0c26.33,0 45.97,8.11 59.1,24.34 13.46,15.77 20.16,35.41 20.16,59.1 0,23.76 -6.7,43.53 -20.02,59.3 -13.4,15.84 -33.16,23.76 -59.36,23.76l-70.12 0 0 99.67 -35.93 0zm227.15 0l0 -278.54 35.16 0 0 278.54 -35.16 0zm218.91 -46.74c11.59,-10.82 17.39,-25.37 17.39,-43.72 0,-18.35 -6.05,-32.84 -18.09,-43.39 -12.1,-10.56 -26.33,-15.91 -42.69,-16.03 -16.42,0 -30.13,5.47 -41.21,16.42 -11.08,10.82 -16.62,24.98 -16.62,42.63 0,17.58 5.67,32.07 17,43.33 11.33,11.33 25.31,17 41.92,17 16.61,0 30.71,-5.41 42.3,-16.23zm52.93 46.74l-35.15 0 0 -27.69c-5.67,9.47 -14.23,17.07 -25.7,22.86 -11.46,5.79 -23.95,8.69 -37.6,8.69 -24.98,0 -46.68,-8.76 -65.03,-26.27 -17.7,-17.45 -26.59,-40.11 -26.59,-67.87 0,-27.81 8.76,-50.41 26.21,-67.73 17.51,-17.38 39.34,-26.14 65.49,-26.27 13.07,0 25.69,2.7 37.73,8.11 11.85,5.93 20.34,13.52 25.5,22.86l0 -27.1 35.15 0 0 180.41zm143.32 -184.27c27.81,0 50.61,9.72 68.44,29.1l-26.78 22.28c-11.27,-11.33 -25.43,-17 -42.43,-17 -16.93,0 -31.36,5.47 -43.2,16.48 -11.91,10.82 -17.9,25.17 -17.9,43.14 0,17.9 6.05,32.45 18.09,43.65 12.1,11.27 26.53,16.87 43.4,16.87 17,0 31.03,-5.92 42.04,-17.77l27.17 22.4c-17.96,19.32 -40.7,28.97 -68.06,28.97 -27.43,0 -50.61,-8.69 -69.54,-26.08 -18.87,-17.64 -28.27,-40.3 -28.27,-68.06 0,-27.75 9.27,-50.35 27.75,-67.73 18.54,-17.38 41.59,-26.14 69.28,-26.27zm282.59 93.55c0,7.99 -0.13,12.55 -0.38,13.84l-146.42 0c1.74,14.55 8.18,26.59 19.25,36.19 10.69,8.82 22.66,13.26 35.99,13.26 26.08,0 44.3,-9.34 54.73,-28.01 0.26,0 0.64,0.06 1.16,0.32 0.45,0.26 1.35,0.7 2.64,1.35 1.48,0.64 3.47,1.42 5.99,2.26 2.51,0.9 4.44,1.67 5.66,2.31l14.75 5.47c-7.4,15.19 -18.61,26.92 -33.61,35.16 -14.93,8.31 -31.42,12.43 -49.38,12.43 -25.82,0 -47.84,-8.69 -66.19,-26.14 -17.45,-17.45 -26.14,-40.31 -26.14,-68.44 0,-28.2 8.7,-50.8 26.02,-67.86 17.38,-17 39.34,-25.56 66,-25.69 26.65,0 48.16,8.62 64.51,25.82 16.93,17.13 25.43,39.72 25.43,67.73zm-52.67 -49.32c-10.04,-8.63 -22.54,-12.94 -37.34,-12.94 -14.87,0 -27.62,4.31 -38.31,12.94 -10.56,9.21 -16.74,21.18 -18.48,35.73l111.84 0c-1.74,-14.55 -7.66,-26.53 -17.7,-35.73zm392.18 -64.9c-19.12,-19.96 -42.49,-29.93 -70.11,-29.93 -27.69,0 -51.06,9.98 -70.18,29.93 -19.12,19.96 -28.65,44.17 -28.65,72.7 0,28.59 9.4,52.67 28.26,72.37 18.86,19.57 42.3,29.36 70.38,29.36 28.01,0 51.51,-9.85 70.5,-29.56 18.99,-19.7 28.39,-43.78 28.26,-72.37 0,-28.39 -9.46,-52.54 -28.46,-72.5zm-204.88 72.31c0,-37.79 12.94,-70.05 38.89,-96.64 25.95,-26.65 57.88,-39.99 95.81,-39.99 37.99,0 69.93,13.26 95.74,39.86 25.88,26.53 38.83,58.85 38.83,96.96 0,38.18 -12.94,70.38 -38.83,96.78 -25.82,26.33 -57.76,39.53 -95.74,39.53 -37.93,0 -69.86,-13.32 -95.81,-39.99 -25.94,-26.72 -38.89,-58.85 -38.89,-96.51zm353.03 67.03l0 65.61 -35.16 0 0 -180.41 35.16 0 0 40.69c8.82,-29.68 25.49,-44.55 50.16,-44.55 14.23,0 24.66,2.31 31.36,6.89l-5.47 32.96c-7.92,-4.18 -16.8,-6.24 -26.59,-6.24 -15.9,0 -28.07,7.6 -36.63,22.79 -8.56,15.26 -12.81,35.99 -12.81,62.26zm241.84 18.67c11.72,-10.94 17.58,-25.49 17.58,-43.71 0,-18.23 -6.05,-32.65 -18.09,-43.2 -12.1,-10.56 -26.27,-15.91 -42.49,-16.03 -16.29,0 -29.94,5.47 -41.01,16.42 -11.08,11.08 -16.62,25.37 -16.62,43.01 0,17.58 5.61,32.01 16.8,43.14 11.2,11.2 25.05,16.8 41.53,16.8 16.48,0 30.58,-5.47 42.3,-16.42zm53.12 46.94l-35.15 0 0 -27.69c-5.67,9.47 -14.23,17.07 -25.69,22.86 -11.46,5.79 -24.02,8.69 -37.73,8.69 -25.05,0 -46.68,-8.76 -64.9,-26.27 -17.45,-17.45 -26.21,-40.11 -26.21,-67.87 0,-27.81 8.7,-50.41 26.02,-67.73 17.38,-17.38 38.95,-26.14 64.77,-26.27 13.91,0 26.59,2.7 37.93,8.11 11.27,5.41 19.9,13.08 25.82,22.86l0 -125.23 35.15 0 0 278.54zm228.63 -90.72c0,7.99 -0.13,12.55 -0.38,13.84l-146.42 0c1.74,14.55 8.18,26.59 19.25,36.19 10.69,8.82 22.66,13.26 35.99,13.26 26.08,0 44.3,-9.34 54.73,-28.01 0.26,0 0.64,0.06 1.16,0.32 0.45,0.26 1.35,0.7 2.64,1.35 1.48,0.64 3.47,1.42 5.99,2.26 2.51,0.9 4.44,1.67 5.66,2.31l14.75 5.47c-7.4,15.19 -18.61,26.92 -33.61,35.16 -14.93,8.31 -31.42,12.43 -49.38,12.43 -25.82,0 -47.84,-8.69 -66.19,-26.14 -17.45,-17.45 -26.14,-40.31 -26.14,-68.44 0,-28.2 8.7,-50.8 26.02,-67.86 17.38,-17 39.34,-25.56 66,-25.69 26.65,0 48.16,8.62 64.51,25.82 16.93,17.13 25.43,39.72 25.43,67.73zm-52.67 -49.32c-10.04,-8.63 -22.54,-12.94 -37.34,-12.94 -14.87,0 -27.62,4.31 -38.31,12.94 -10.56,9.21 -16.74,21.18 -18.48,35.73l111.84 0c-1.74,-14.55 -7.66,-26.53 -17.7,-35.73zm132.51 74.43l0 65.61 -35.16 0 0 -180.41 35.16 0 0 40.69c8.82,-29.68 25.49,-44.55 50.16,-44.55 14.23,0 24.66,2.31 31.36,6.89l-5.47 32.96c-7.92,-4.18 -16.8,-6.24 -26.59,-6.24 -15.9,0 -28.07,7.6 -36.63,22.79 -8.56,15.26 -12.81,35.99 -12.81,62.26z"/>
 </g>
</svg>
