<?xml version="1.0" encoding="utf-8"?>
<!-- Generator: Adobe Illustrator 22.1.0, SVG Export Plug-In . SVG Version: 6.00 Build 0)  -->
<svg version="1.1" id="Layer_1" xmlns="http://www.w3.org/2000/svg" xmlns:xlink="http://www.w3.org/1999/xlink" x="0px" y="0px"
	 viewBox="0 0 65 65" style="enable-background:new 0 0 65 65;" xml:space="preserve">
<style type="text/css">
	.st0{fill:#006648;}
	.st1{fill:#fef1ed;}
	.st2{fill:none;stroke:#FFC83A;}
	.st3{fill:none;stroke:#FFC83A;stroke-width:2;stroke-linecap:round;stroke-linejoin:round;}
	.st4{fill:none;stroke:#FFC83A;stroke-width:2;stroke-linecap:round;}
</style>
<g>
	<path class="st0" d="M50.7,19.6c0,8.8-7.1,15.9-15.9,15.9c-8.8,0-15.9-7.1-15.9-15.9c0-8.8,7.1-15.9,15.9-15.9
		C43.6,3.7,50.7,10.8,50.7,19.6"/>
	<path class="st1" d="M47.2,16.5C47.2,25,40.3,32,31.8,32c-8.5,0-15.4-6.9-15.4-15.4c0-8.5,6.9-15.4,15.4-15.4
		C40.3,1.1,47.2,8,47.2,16.5"/>
	<path class="st2" d="M47.2,16.5C47.2,25,40.3,32,31.8,32c-8.5,0-15.4-6.9-15.4-15.4c0-8.5,6.9-15.4,15.4-15.4
		C40.3,1.1,47.2,8,47.2,16.5z"/>
	<path class="st3" d="M31.8,16.5c0,0-3.7-0.7-3.7-3.5c0-2,1.5-3.3,3.9-3.3c2.4,0,3.6,1.8,3.9,2.6 M31.8,16.5c0,0,3.7,0.8,3.7,3.5
		c0,2-1.5,3.3-3.9,3.3c-2.4,0-3.6-1.8-3.9-2.6 M31.9,7.6v2.1 M31.9,23.3v2.1"/>
	<path class="st3" d="M47.2,16.5C47.2,25,40.3,32,31.8,32c-8.5,0-15.4-6.9-15.4-15.4c0-8.5,6.9-15.4,15.4-15.4
		C40.3,1.1,47.2,8,47.2,16.5z"/>
	<path class="st4" d="M56,63.9H8.7c-1.2,0-2.2-1-2.2-2.2l0,0v-20c0-1.2,1-2.2,2.2-2.2c0,0,0,0,0,0H56c1.2,0,2.2,1,2.2,2.2v0v20
		C58.2,62.9,57.2,63.9,56,63.9z"/>
	<g>
		<path class="st0" d="M22.8,51.6c0,2-1.6,3.7-3.7,3.7s-3.7-1.6-3.7-3.7c0-2,1.6-3.7,3.7-3.7C21.2,47.9,22.8,49.6,22.8,51.6
			L22.8,51.6 M36,51.6c0,2-1.6,3.7-3.7,3.7c-2,0-3.7-1.6-3.7-3.7c0,0,0,0,0,0c0-2,1.6-3.7,3.7-3.7C34.4,47.9,36,49.6,36,51.6
			 M49.3,51.6c0,2-1.6,3.7-3.7,3.7s-3.7-1.6-3.7-3.7c0,0,0,0,0,0c0-2,1.6-3.7,3.7-3.7C47.6,47.9,49.3,49.6,49.3,51.6"/>
	</g>
</g>
</svg>
