<?xml version="1.0" encoding="UTF-8"?>
<!DOCTYPE svg PUBLIC "-//W3C//DTD SVG 1.1//EN" "http://www.w3.org/Graphics/SVG/1.1/DTD/svg11.dtd">
<!-- Creator: CorelDRAW 2018 (64-Bit Evaluation Version) -->
<svg xmlns="http://www.w3.org/2000/svg" xml:space="preserve" width="200.342mm" height="137.993mm" version="1.1" style="shape-rendering:geometricPrecision; text-rendering:geometricPrecision; image-rendering:optimizeQuality; fill-rule:evenodd; clip-rule:evenodd"
viewBox="0 0 12167.04 8380.5"
 xmlns:xlink="http://www.w3.org/1999/xlink">
 <defs>
  <style type="text/css">
   <![CDATA[
    .str0 {stroke:#FBD13E;stroke-width:12.15;stroke-miterlimit:22.9256}
    .fil1 {fill:#3B9CFF}
    .fil5 {fill:#C4E1FF}
    .fil3 {fill:#F3F6F9}
    .fil6 {fill:#FBD13E}
    .fil7 {fill:#3B9CFF;fill-rule:nonzero}
    .fil8 {fill:#FBD13E;fill-rule:nonzero}
    .fil4 {fill:#C4E1FF;fill-opacity:0.960784}
    .fil2 {fill:#F3F6F9;fill-opacity:0.960784}
    .fil0 {fill:#FBF0C8}
   ]]>
  </style>
 </defs>
 <g id="Layer_x0020_1">
  <metadata id="CorelCorpID_0Corel-Layer"/>
  <g id="_2096858225424">
   <path class="fil0" d="M9582.46 2928.81c-306.12,-18.2 -355.7,76.03 -366.61,308.57l2.34 4372.84c-3.53,302.39 73.86,440.47 294.76,456.87l1944.4 4.73c315.64,23.03 425.57,-154.8 417.93,-447.41l0 -4355.66c-4.03,-274.68 -102.59,-354.54 -358.61,-352.71l-222.88 219.17 -1476.84 6.02 -234.5 -212.43z"/>
   <path class="fil1" d="M9442.74 3734.24l2204.92 0c41.12,0 74.75,33.63 74.75,74.74l0 649.07c0,41.11 -33.63,74.75 -74.75,74.75l-2204.92 0c-41.12,0 -74.75,-33.64 -74.75,-74.75l0 -649.07c0,-41.11 33.63,-74.74 74.75,-74.74z"/>
   <path class="fil2" d="M11571.16 8160.07l-1977.09 10.04c-422.77,10.54 -478.25,-196.45 -467.79,-581.98l1.96 -4457.44c21.85,-160.31 99.24,-258.55 239.49,-286.54l243.45 -0.11c70.92,28.04 99.56,208.95 295.76,208.42l1298.53 0.24c193.74,-38.9 175.11,-195.74 307.28,-210.85l215.58 5.96c146.49,20.93 223.4,165.67 225.34,331.99l2.76 4569.99c0.15,247.26 -107.28,408.86 -385.29,410.27zm-2218.6 -5534.97c-265.73,42 -420.61,213.37 -414.7,572.28l-13.17 4635.56c-8.19,366.79 204.6,529 572.54,547.56l2151.24 -1.81c287.88,6.09 465.44,-129.24 506.07,-440.06l12.5 -4758.98c-6.56,-317.72 -265.07,-555.54 -569.8,-553.74l-2244.68 -0.82z"/>
   <path class="fil3" d="M8968.11 6936.38l-8454.85 0c-278.23,0 -505.81,-117.83 -505.81,-261.88l0 -49.36 -7.45 0 0 -369.19 8971.97 0 -1.33 234.53 -2.53 445.9z"/>
   <path class="fil3" d="M8971.97 6255.95l-7386.76 0c-63.35,-5.93 -127.7,-73.36 -127.7,-137.01l0 -5296.85c0,-385.69 6.11,-390.54 624.38,-390.54l7779.28 0c636.45,0 613.66,-1.66 613.67,387.64l0.06 1806.32 440.37 -0.9 6.68 -2160.83c0.78,-255.1 -201.55,-463.79 -447.91,-463.79l-9005.02 0c-246.36,0 -447.91,208.7 -447.91,463.79l0 5792.17 7950.86 0z"/>
   <path class="fil0" d="M1922.13 579.63l8088.13 -0.29c324.43,-0.01 318.52,2.81 318.86,325.33l1.82 1720.78 -886.33 -0.33c-234.2,-8.52 -488.38,108.53 -506.72,502.11l-8.3 2982.95 -7007.46 0c-309.89,0 -318.86,2.67 -318.86,-325.33l0 -4879.9c0,-327.99 5.33,-325.32 318.86,-325.33zm145.35 336.55l7691.67 0c86.01,0 156.35,71.78 156.35,159.53l0 735.45c0,87.74 -70.35,159.52 -156.35,159.52l-7691.67 0c-86,0 -156.35,-71.78 -156.35,-159.52l0 -735.45c0,-87.74 70.36,-159.53 156.35,-159.53zm-12.16 1391.04l855.15 0c79.3,0 144.17,66.19 144.17,147.1l0 2510.36c0,80.91 -64.87,147.09 -144.17,147.09l-855.15 0c-79.3,0 -144.16,-66.18 -144.16,-147.09l0 -2510.36c0,-80.91 64.87,-147.1 144.16,-147.1zm1799.81 -16.82l2709 0c74.43,0 135.33,62.13 135.33,138.07l0 363.29c0,75.93 -60.9,138.07 -135.33,138.07l-2709 0c-74.43,0 -135.33,-62.14 -135.33,-138.07l0 -363.29c0,-75.94 60.9,-138.07 135.33,-138.07zm3578.35 5.61l912.39 0c55.99,0 101.8,46.74 101.8,103.87l0 409.25c0,57.14 -45.8,103.87 -101.8,103.87l-912.39 0c-56,0 -101.8,-46.74 -101.8,-103.87l0 -409.25c0,-57.14 45.8,-103.87 101.8,-103.87z"/>
   <path class="fil4" d="M3877.98 3381.23l873.36 0c54.63,0 99.32,44.69 99.32,99.33l0 877.55c0,54.63 -44.69,99.32 -99.32,99.32l-873.36 0c-54.63,0 -99.33,-44.69 -99.33,-99.32l0 -877.55c0,-54.63 44.7,-99.33 99.33,-99.33z"/>
   <path class="fil4" d="M9478.32 4757.82l721.02 0c45.11,0 82,36.89 82,82l0 724.48c0,45.11 -36.89,82 -82,82l-721.02 0c-45.11,0 -82.01,-36.89 -82.01,-82l0 -724.48c0,-45.11 36.9,-82 82.01,-82z"/>
   <path class="fil4" d="M9478.32 5774.25l721.02 0c45.11,0 82,36.89 82,82l0 724.48c0,45.11 -36.89,82 -82,82l-721.02 0c-45.11,0 -82.01,-36.89 -82.01,-82l0 -724.48c0,-45.11 36.9,-82 82.01,-82z"/>
   <path class="fil4" d="M9478.32 6767.99l721.02 0c45.11,0 82,36.89 82,82l0 724.48c0,45.11 -36.89,82 -82,82l-721.02 0c-45.11,0 -82.01,-36.89 -82.01,-82l0 -724.48c0,-45.11 36.9,-82 82.01,-82z"/>
   <path class="fil4" d="M5633.23 3386.7l958.22 0c58.51,0 106.38,47.87 106.38,106.38l0 852.47c0,58.51 -47.87,106.38 -106.38,106.38l-958.22 0c-58.5,0 -106.37,-47.86 -106.37,-106.38l0 -852.47c0,-58.51 47.87,-106.38 106.37,-106.38z"/>
   <path class="fil4" d="M7443.43 3394.95l988.16 0c47.25,0 85.91,38.65 85.91,85.9l0 876.94c0,47.25 -38.66,85.9 -85.91,85.9l-988.16 0c-47.25,0 -85.9,-38.66 -85.9,-85.9l0 -876.94c0,-47.26 38.66,-85.9 85.9,-85.9z"/>
   <path class="fil1" d="M2061.55 910.68l7694.43 0c87.74,0 159.53,71.78 159.53,159.52l0 735.45c0,87.74 -71.79,159.53 -159.53,159.53l-7694.43 0c-87.74,0 -159.53,-71.78 -159.53,-159.53l0 -735.45c0,-87.74 71.79,-159.52 159.53,-159.52z"/>
   <path class="fil5" d="M3856.24 2290.4l2703.51 0c75.94,0 138.08,62.13 138.08,138.08l0 363.28c0,75.93 -62.13,138.07 -138.08,138.07l-2703.51 0c-75.94,0 -138.08,-62.14 -138.08,-138.07l0 -363.28c0,-75.95 62.13,-138.08 138.08,-138.08z"/>
   <path class="fil5" d="M7433.98 2295.54l908.11 0c57.17,0 103.94,46.77 103.94,103.94l0 409.59c0,57.17 -46.77,103.94 -103.94,103.94l-908.11 0c-57.17,0 -103.94,-46.78 -103.94,-103.94l0 -409.59c0,-57.17 46.77,-103.94 103.94,-103.94z"/>
   <path class="fil5" d="M2053.68 2307.22l855.15 0c79.3,0 144.16,64.87 144.16,144.17l0 2516.22c0,79.3 -64.87,144.17 -144.16,144.17l-855.15 0c-79.3,0 -144.17,-64.87 -144.17,-144.17l0 -2516.22c0,-79.3 64.87,-144.17 144.17,-144.17z"/>
   <path class="fil4" d="M3888.46 4841.81l852.39 0c60.39,0 109.8,49.42 109.8,109.81l0 0.01c0,60.39 -49.41,109.81 -109.8,109.81l-852.39 0c-60.4,0 -109.81,-49.42 -109.81,-109.81l0 -0.01c0,-60.39 49.41,-109.81 109.81,-109.81z"/>
   <path class="fil4" d="M10688.64 5077.79l852.39 0c60.39,0 109.8,49.42 109.8,109.81l0 0.02c0,60.39 -49.41,109.8 -109.8,109.8l-852.39 0c-60.4,0 -109.81,-49.42 -109.81,-109.8l0 -0.02c0,-60.39 49.41,-109.81 109.81,-109.81z"/>
   <path class="fil4" d="M10688.64 6094.26l852.39 0c60.39,0 109.8,49.41 109.8,109.8l0 0.02c0,60.39 -49.41,109.8 -109.8,109.8l-852.39 0c-60.4,0 -109.81,-49.41 -109.81,-109.8l0 -0.02c0,-60.39 49.41,-109.8 109.81,-109.8z"/>
   <path class="fil4" d="M10688.64 7110.72l852.39 0c60.39,0 109.8,49.42 109.8,109.81l0 0.02c0,60.39 -49.41,109.8 -109.8,109.8l-852.39 0c-60.4,0 -109.81,-49.42 -109.81,-109.8l0 -0.02c0,-60.39 49.41,-109.81 109.81,-109.81z"/>
   <path class="fil4" d="M5686.15 4869.27l852.39 0c60.39,0 109.8,49.42 109.8,109.81l0 0.01c0,60.39 -49.41,109.81 -109.8,109.81l-852.39 0c-60.4,0 -109.81,-49.42 -109.81,-109.81l0 -0.01c0,-60.39 49.41,-109.81 109.81,-109.81z"/>
   <path class="fil4" d="M7511.32 4896.73l852.39 0c60.39,0 109.8,49.42 109.8,109.8l0 0.02c0,60.39 -49.41,109.81 -109.8,109.81l-852.39 0c-60.4,0 -109.81,-49.42 -109.81,-109.81l0 -0.02c0,-60.39 49.41,-109.8 109.81,-109.8z"/>
   <path class="fil6" d="M2334.18 1248.33c100.82,0 182.55,81.73 182.55,182.55 0,100.82 -81.73,182.56 -182.55,182.56 -100.82,0 -182.55,-81.74 -182.55,-182.56 0,-100.82 81.73,-182.55 182.55,-182.55z"/>
   <polygon class="fil7" points="2357.53,1541.38 2327.01,1541.38 2327.01,1360.64 2292.14,1373.1 2292.14,1344.32 2357.53,1320.4 "/>
   <path class="fil8" d="M2676.55 1563.22l0 -256.49 149.27 0 0 32.39 -114.65 0 0 81.9 90.83 0 0 32.39 -90.83 0 0 109.81 -34.62 0zm188.92 -222.23c-4.41,-4.28 -6.58,-9.49 -6.58,-15.64 0,-6.2 2.17,-11.35 6.58,-15.63 4.9,-4.22 10.42,-6.33 16.68,-6.33 6.27,0 11.79,2.05 16.51,6.14 4.77,4.16 7.14,9.43 7.14,15.82 0,6.39 -2.36,11.67 -7.14,15.82 -4.71,4.1 -10.24,6.15 -16.51,6.15 -6.26,0 -11.78,-2.11 -16.68,-6.33zm33.62 222.23l-33.88 0 0 -173.84 33.88 0 0 173.84zm90.34 -93.74l0 93.74 -33.88 0 0 -173.84 33.88 0 0 26.12c4.96,-9.68 12.41,-17.13 22.4,-22.21 9.92,-5.09 20.6,-7.63 31.95,-7.63 21.84,0 38.28,6.7 49.39,20.16 11.6,13.22 17.49,32.2 17.62,56.89l0 100.51 -33.88 0 0 -98.28c0,-14.64 -3.47,-25.93 -10.36,-33.82 -6.7,-8.25 -16.56,-12.34 -29.66,-12.34 -13.22,0 -24.44,4.28 -33.63,12.9 -9.24,8.56 -13.83,21.22 -13.83,37.79zm295.76 48.52c11.29,-10.55 16.94,-24.57 16.94,-42.13 0,-17.56 -5.83,-31.45 -17.43,-41.63 -11.67,-10.17 -25.32,-15.32 -40.95,-15.44 -15.7,0 -28.85,5.27 -39.52,15.82 -10.67,10.66 -16,24.44 -16,41.44 0,16.94 5.4,30.83 16.19,41.56 10.79,10.8 24.13,16.2 40.02,16.2 15.89,0 29.47,-5.28 40.76,-15.82zm51.18 45.23l-33.88 0 0 -26.68c-5.46,9.12 -13.71,16.44 -24.75,22.03 -11.04,5.58 -23.14,8.37 -36.35,8.37 -24.13,0 -44.98,-8.44 -62.54,-25.31 -16.81,-16.82 -25.25,-38.66 -25.25,-65.4 0,-26.8 8.38,-48.58 25.06,-65.27 16.76,-16.75 37.54,-25.19 62.42,-25.31 13.4,0 25.62,2.61 36.54,7.82 10.86,5.21 19.17,12.6 24.88,22.03l0 -120.67 33.88 0 0 268.4z"/>
   <path class="fil8" d="M3489.18 1566.92l0 -272.07 36.72 0 0 272.07 -36.72 0zm153.54 -251.93l0 67.52 38.7 0 0 31.99 -38.7 0 0 152.42 -35.93 0 0 -152.42 -33.17 0 0 -31.99 33.17 0 0 -67.52 35.93 0z"/>
   <path class="fil7" d="M3880.84 2512.06l0 -23.81 140.42 0 0 23.81 -57.48 0 0 164.79 -25.46 0 0 -164.79 -57.48 0zm193.76 118.3l0 46.49 -24.91 0 0 -127.83 24.91 0 0 28.84c6.25,-21.03 18.07,-31.57 35.53,-31.57 10.09,0 17.48,1.65 22.22,4.88l-3.88 23.36c-5.61,-2.97 -11.9,-4.43 -18.84,-4.43 -11.27,0 -19.89,5.38 -25.96,16.15 -6.07,10.81 -9.08,25.49 -9.08,44.11zm203.52 -17.79c0,5.66 -0.1,8.9 -0.28,9.81l-103.74 0c1.23,10.31 5.79,18.84 13.64,25.64 7.57,6.25 16.06,9.4 25.5,9.4 18.48,0 31.39,-6.61 38.78,-19.85 0.19,0 0.46,0.05 0.83,0.23 0.32,0.18 0.95,0.5 1.87,0.95 1.04,0.46 2.46,1.01 4.24,1.6 1.78,0.64 3.15,1.18 4.01,1.64l10.45 3.88c-5.25,10.76 -13.18,19.07 -23.82,24.91 -10.58,5.88 -22.26,8.81 -34.99,8.81 -18.29,0 -33.89,-6.16 -46.9,-18.52 -12.36,-12.36 -18.52,-28.56 -18.52,-48.5 0,-19.98 6.15,-35.99 18.43,-48.08 12.32,-12.04 27.88,-18.12 46.76,-18.21 18.89,0 34.12,6.12 45.71,18.3 12,12.13 18.03,28.15 18.03,47.99zm-37.32 -34.94c-7.12,-6.12 -15.97,-9.18 -26.46,-9.18 -10.54,0 -19.57,3.06 -27.15,9.18 -7.48,6.52 -11.86,15.01 -13.09,25.32l79.24 0c-1.23,-10.31 -5.43,-18.8 -12.54,-25.32zm93.88 30.29l0 68.94 -24.91 0 0 -127.83 24.91 0 0 19.21c3.65,-7.12 9.13,-12.6 16.47,-16.34 7.31,-3.73 15.15,-5.61 23.5,-5.61 16.06,0 28.15,4.93 36.31,14.83 8.54,9.72 12.87,23.68 12.96,41.84l0 73.9 -24.91 0 0 -72.26c0,-10.77 -2.56,-19.07 -7.62,-24.86 -4.93,-6.07 -12.18,-9.08 -21.81,-9.08 -9.72,0 -17.97,3.15 -24.73,9.49 -6.79,6.29 -10.17,15.6 -10.17,27.78zm217.48 35.68c8.3,-7.76 12.46,-18.07 12.46,-30.98 0,-12.91 -4.29,-23.13 -12.82,-30.61 -8.58,-7.48 -18.62,-11.27 -30.11,-11.36 -11.55,0 -21.21,3.88 -29.07,11.64 -7.85,7.85 -11.77,17.97 -11.77,30.47 0,12.45 3.97,22.67 11.91,30.57 7.94,7.94 17.75,11.91 29.42,11.91 11.68,0 21.67,-3.88 29.98,-11.64zm37.64 33.26l-24.91 0 0 -19.62c-4.02,6.7 -10.09,12.09 -18.21,16.2 -8.12,4.11 -17.02,6.16 -26.73,6.16 -17.75,0 -33.08,-6.21 -45.99,-18.61 -12.36,-12.36 -18.57,-28.42 -18.57,-48.09 0,-19.71 6.15,-35.72 18.43,-47.99 12.31,-12.32 27.6,-18.53 45.89,-18.62 9.86,0 18.84,1.92 26.87,5.75 7.99,3.83 14.1,9.26 18.3,16.2l0 -88.73 24.91 0 0 197.36zm41.47 -163.42c-3.24,-3.15 -4.83,-6.98 -4.83,-11.5 0,-4.56 1.6,-8.35 4.83,-11.5 3.61,-3.1 7.66,-4.65 12.27,-4.65 4.6,0 8.67,1.51 12.13,4.52 3.51,3.05 5.25,6.93 5.25,11.63 0,4.7 -1.74,8.58 -5.25,11.64 -3.47,3.01 -7.53,4.51 -12.13,4.51 -4.61,0 -8.67,-1.55 -12.27,-4.65zm24.73 163.42l-24.91 0 0 -127.83 24.91 0 0 127.83zm66.42 -68.94l0 68.94 -24.91 0 0 -127.83 24.91 0 0 19.21c3.65,-7.12 9.13,-12.6 16.47,-16.34 7.3,-3.73 15.15,-5.61 23.5,-5.61 16.06,0 28.15,4.93 36.31,14.83 8.53,9.72 12.87,23.68 12.96,41.84l0 73.9 -24.91 0 0 -72.26c0,-10.77 -2.56,-19.07 -7.62,-24.86 -4.93,-6.07 -12.18,-9.08 -21.81,-9.08 -9.72,0 -17.98,3.15 -24.73,9.49 -6.8,6.29 -10.17,15.6 -10.17,27.78zm157.94 35.81c7.85,7.67 17.61,11.5 29.34,11.5 11.67,0 21.75,-3.83 30.24,-11.5 8.44,-7.66 12.69,-17.97 12.69,-30.97 0,-13.01 -4.11,-23.31 -12.32,-30.89 -8.21,-7.48 -18.21,-11.22 -29.98,-11.22 -11.76,0 -21.67,4.01 -29.7,12.04 -8.03,8.08 -12.04,18.38 -12.04,30.84 0,12.5 3.92,22.54 11.77,30.2zm27.33 73.08c30.29,0 45.48,-19.25 45.48,-57.71 0,-0.36 -0.09,-0.83 -0.27,-1.32l0 -1.73c-3.64,7.29 -9.67,13.05 -18.06,17.24 -8.4,4.2 -17.3,6.3 -26.78,6.3 -18.34,0 -33.76,-6.12 -46.21,-18.3 -12.46,-12.23 -18.71,-28.28 -18.71,-48.13 0,-19.89 6.38,-36 19.11,-48.26 12.72,-12.32 28.06,-18.53 45.85,-18.62 9.72,0 18.66,2.1 26.73,6.3 8.02,3.65 14.05,9.13 18.06,16.47l0 -20.03 24.91 0 0 108.44c0,55.52 -23.36,83.26 -70.12,83.17 -12.23,0.09 -23.41,-2.92 -33.58,-8.99 -10.12,-6.12 -18.21,-14.69 -24.18,-25.68 0.87,-0.19 4.51,-2.1 10.95,-5.7l9.85 -5.16c3.47,6.52 8.67,11.77 15.51,15.74 6.89,3.97 14,5.98 21.44,5.98zm175.6 -94.16l25.6 0c0.18,8.48 4.01,16.15 11.49,23.04 7.48,6.89 16.93,10.27 28.42,10.08 11.5,0 20.48,-2.55 27.01,-7.62 6.48,-5.06 10.35,-11.77 11.58,-20.03 1.42,-17.2 -9.26,-28.38 -32.07,-33.53l-24.32 -6.25c-30.66,-7.8 -45.99,-24.23 -45.99,-49.18 0,-15.47 6.02,-28.16 18.06,-38.01 11.59,-10.08 25.96,-15.1 43.02,-15.1 17.11,0 31.48,5.07 43.2,15.24 11.68,10.14 17.51,23.5 17.51,40.06l-25.45 0c0,-9.3 -3.29,-16.79 -9.9,-22.49 -6.75,-5.61 -15.01,-8.44 -24.82,-8.44 -9.76,0 -18.38,2.56 -25.77,7.66 -6.94,5.11 -10.4,11.77 -10.4,19.98 0,12.73 9.08,21.22 27.2,25.46l24.59 6.02c18.02,4.79 31.29,12.28 39.83,22.49 8.57,10.22 11.99,22.68 10.31,37.32 -1.68,14.69 -8.21,26.69 -19.53,36.13 -11.31,9.4 -26.01,14.1 -44.07,14.1 -18.06,0 -33.58,-5.57 -46.53,-16.74 -12.64,-11.55 -18.98,-24.95 -18.98,-40.19zm197.95 -120.44l0 46.81 26.83 0 0 22.17 -26.83 0 0 105.66 -24.91 0 0 -105.66 -23 0 0 -22.17 23 0 0 -46.81 24.91 0zm143.66 141.75c7.99,-7.85 12,-18.16 12,-30.93 0,-12.82 -4.01,-23.04 -12,-30.71 -7.98,-7.71 -17.92,-11.59 -29.83,-11.68 -11.86,0 -21.86,3.83 -29.93,11.55 -8.17,7.75 -12.27,17.98 -12.27,30.7 0,12.69 4.01,22.99 12,30.94 7.98,7.98 17.98,11.95 29.98,11.95 12.04,0 22.08,-3.92 30.06,-11.81zm-29.92 35.63c-18.61,0 -34.4,-6.16 -47.45,-18.47 -13.05,-12.32 -19.57,-28.38 -19.57,-48.23 0,-19.85 6.43,-35.95 19.25,-48.27 12.82,-12.31 28.65,-18.43 47.53,-18.34 18.98,0 34.86,6.16 47.67,18.48 12.91,12.41 19.39,28.47 19.39,48.13 0,19.66 -6.48,35.67 -19.43,48.09 -12.96,12.41 -28.79,18.61 -47.4,18.61zm124.77 -49.23l0 46.49 -24.91 0 0 -127.83 24.91 0 0 28.84c6.25,-21.03 18.07,-31.57 35.54,-31.57 10.09,0 17.47,1.65 22.22,4.88l-3.88 23.36c-5.61,-2.97 -11.91,-4.43 -18.84,-4.43 -11.27,0 -19.89,5.38 -25.96,16.15 -6.07,10.81 -9.08,25.49 -9.08,44.11zm203.52 -17.79c0,5.66 -0.1,8.9 -0.27,9.81l-103.75 0c1.23,10.31 5.79,18.84 13.65,25.64 7.57,6.25 16.05,9.4 25.49,9.4 18.48,0 31.39,-6.61 38.78,-19.85 0.18,0 0.46,0.05 0.82,0.23 0.32,0.18 0.95,0.5 1.87,0.95 1.05,0.46 2.47,1.01 4.24,1.6 1.78,0.64 3.15,1.18 4.02,1.64l10.45 3.88c-5.25,10.76 -13.18,19.07 -23.82,24.91 -10.58,5.88 -22.26,8.81 -34.99,8.81 -18.29,0 -33.89,-6.16 -46.9,-18.52 -12.36,-12.36 -18.52,-28.56 -18.52,-48.5 0,-19.98 6.16,-35.99 18.43,-48.08 12.32,-12.04 27.87,-18.12 46.76,-18.21 18.88,0 34.12,6.12 45.71,18.3 11.99,12.13 18.02,28.15 18.02,47.99zm-37.32 -34.94c-7.12,-6.12 -15.97,-9.18 -26.46,-9.18 -10.54,0 -19.57,3.06 -27.15,9.18 -7.48,6.52 -11.86,15.01 -13.09,25.32l79.25 0c-1.23,-10.31 -5.44,-18.8 -12.55,-25.32zm77.92 -22c8.53,-6.25 18.84,-9.35 30.97,-9.35 12.09,0 22.12,3.1 30.02,9.31 7.94,6.21 12.46,15.06 13.51,26.55l-23.77 0c-0.73,-4.15 -2.92,-7.48 -6.57,-9.99 -4.01,-2.47 -8.44,-3.7 -13.37,-3.7 -4.88,0 -9.03,1.05 -12.41,3.15 -3.65,1.64 -5.93,4.51 -6.94,8.53 -0.96,4.01 -0.82,7.21 0.41,9.58 2.05,4.11 7.07,7.3 15.06,9.58l18.84 4.61c22.13,5.43 33.17,17.89 33.17,37.36 0,11.55 -4.79,20.85 -14.42,28.02 -9.72,6.89 -21.08,10.31 -34.08,10.31 -13.05,0 -24.37,-3.74 -33.99,-11.27 -9.63,-7.48 -14.51,-17.42 -14.69,-29.88l23.54 0c1.05,6.61 4.43,11.5 10.17,14.6 5.57,3.51 11.59,5.06 18.07,4.7 6.47,-0.36 11.5,-2.1 15.06,-5.2 3.56,-3.15 5.56,-6.94 6.02,-11.41 0.37,-4.47 -1,-8.03 -4.15,-10.72 -3.1,-2.7 -7.38,-4.65 -12.81,-5.88l-17.52 -4.06c-12.36,-3.33 -21.49,-8.21 -27.32,-14.73 -5.61,-6.75 -7.94,-15.19 -6.94,-25.37 0.96,-10.17 5.7,-18.39 14.14,-24.73z"/>
   <path class="fil8" d="M9607.64 4153.58l38.29 0c0.27,12.69 6.01,24.16 17.2,34.46 11.19,10.31 25.32,15.36 42.51,15.09 17.2,0 30.64,-3.83 40.4,-11.4 9.69,-7.57 15.49,-17.61 17.33,-29.96 2.12,-25.73 -13.85,-42.45 -47.97,-50.16l-36.37 -9.35c-45.86,-11.67 -68.79,-36.24 -68.79,-73.56 0,-23.13 9.01,-42.11 27.03,-56.84 17.33,-15.09 38.83,-22.59 64.35,-22.59 25.59,0 47.09,7.58 64.62,22.79 17.47,15.15 26.21,35.15 26.21,59.92l-38.08 0c0,-13.92 -4.91,-25.11 -14.81,-33.65 -10.1,-8.39 -22.45,-12.62 -37.13,-12.62 -14.61,0 -27.5,3.82 -38.56,11.46 -10.37,7.65 -15.56,17.61 -15.56,29.89 0,19.04 13.59,31.73 40.67,38.08l36.78 9.01c26.96,7.17 46.81,18.36 59.58,33.65 12.83,15.29 17.95,33.92 15.42,55.82 -2.53,21.97 -12.28,39.92 -29.21,54.04 -16.93,14.06 -38.9,21.09 -65.92,21.09 -27.02,0 -50.22,-8.33 -69.6,-25.05 -18.91,-17.27 -28.39,-37.33 -28.39,-60.12zm281.77 -22.05l0 103.12 -37.26 0 0 -295.21 37.26 0 0 132.73c5.19,-10.64 14.06,-18.83 26.61,-24.43 12.49,-5.6 24.64,-8.39 36.38,-8.39 24.15,0 43.19,7.51 57.04,22.59 13.85,15.08 20.68,35.76 20.41,62.17l0 110.55 -37.26 0 0 -108.1c0,-15.9 -4.23,-28.11 -12.63,-36.78 -8.12,-9.35 -19.38,-13.99 -33.78,-13.99 -14.4,0 -27.43,4.57 -39.17,13.79 -11.74,9.21 -17.61,23.2 -17.61,41.97zm332.41 53.91c11.94,-11.73 17.95,-27.16 17.95,-46.27 0,-19.18 -6.01,-34.47 -17.95,-45.93 -11.95,-11.53 -26.82,-17.33 -44.63,-17.47 -17.74,0 -32.69,5.73 -44.77,17.27 -12.22,11.6 -18.36,26.89 -18.36,45.93 0,18.97 6.01,34.39 17.95,46.27 11.95,11.94 26.89,17.88 44.84,17.88 18.01,0 33.03,-5.87 44.97,-17.68zm-44.77 53.3c-27.85,0 -51.46,-9.21 -70.98,-27.64 -19.51,-18.43 -29.27,-42.45 -29.27,-72.13 0,-29.69 9.62,-53.77 28.8,-72.2 19.17,-18.43 42.85,-27.57 71.1,-27.43 28.39,0 52.14,9.21 71.32,27.64 19.31,18.56 29,42.58 29,71.99 0,29.41 -9.69,53.36 -29.07,71.93 -19.38,18.56 -43.06,27.84 -70.9,27.84zm204.79 -145.42c-11.81,11.74 -17.74,27.37 -17.74,46.95 0,19.51 6.27,34.73 18.77,45.65 12.55,10.92 27.37,16.38 44.56,16.38 17.2,0 31.87,-5.73 43.95,-17.2 11.46,-11.39 17.19,-26.41 17.19,-45.04 0,-18.63 -6.01,-33.99 -18.01,-45.93 -12.08,-11.95 -26.96,-18.02 -44.5,-18.15 -17.61,-0.14 -32.35,5.66 -44.22,17.33zm-55.41 -49.88l37.26 0 0 30.09c6.28,-10.71 15.35,-18.97 27.37,-24.7 11.74,-6.35 24.84,-9.49 39.38,-9.49 26.68,0 49.27,9.28 67.69,27.91 18.5,18.43 27.71,42.45 27.71,72 0,29.55 -9.14,53.5 -27.5,71.93 -18.29,18.35 -40.95,27.57 -67.9,27.57 -14.54,0 -27.85,-2.87 -39.99,-8.6 -12.08,-5.73 -21.02,-13.78 -26.75,-24.02l0 121.47 -37.26 0 0 -284.16zm566.14 -90.9l0 282.11 -36.44 0 -128.56 -212.5 0 212.5 -38.08 0 0 -282.11 37.67 0 127.34 210.93 0 -210.93 38.08 0zm201.79 232.9c11.94,-11.73 17.95,-27.16 17.95,-46.27 0,-19.18 -6.01,-34.47 -17.95,-45.93 -11.95,-11.53 -26.82,-17.33 -44.63,-17.47 -17.74,0 -32.69,5.73 -44.77,17.27 -12.22,11.6 -18.36,26.89 -18.36,45.93 0,18.97 6.01,34.39 17.95,46.27 11.95,11.94 26.89,17.88 44.84,17.88 18.01,0 33.03,-5.87 44.97,-17.68zm-44.77 53.3c-27.85,0 -51.46,-9.21 -70.98,-27.64 -19.51,-18.43 -29.27,-42.45 -29.27,-72.13 0,-29.69 9.62,-53.77 28.8,-72.2 19.17,-18.43 42.85,-27.57 71.1,-27.43 28.39,0 52.14,9.21 71.32,27.64 19.31,18.56 29,42.58 29,71.99 0,29.41 -9.69,53.36 -29.07,71.93 -19.38,18.56 -43.06,27.84 -70.9,27.84zm433.13 -195.31l-70.76 191.21 -30.78 0 -52 -140.44 -50.36 140.44 -30.37 0 -72.82 -191.21 39.79 0 47.77 133.82 48.04 -133.82 35.97 0 47.97 133.82 47.77 -133.82 39.79 0z"/>
   <g>
    <path class="fil6 str0" d="M9266.56 1338.27l275.52 209.71 -29.57 7.34c-79.5,19.73 -162.29,-1.6 -220.07,-60.22 -41.35,-41.96 -64.26,-97.8 -64.49,-156.7 -0.59,-147.39 140.13,-252.55 281.85,-217.75l29.44 7.23 -272.67 210.38z"/>
    <path class="fil6 str0" d="M9629.8 1537.68l-272.67 -210.38 29.44 -7.23c141.72,-34.81 282.44,70.35 281.85,217.75 -0.24,58.9 -23.14,114.74 -64.5,156.7 -57.78,58.62 -140.57,79.94 -220.06,60.22l-29.57 -7.34 275.52 -209.71z"/>
   </g>
  </g>
 </g>
</svg>
