<svg xmlns="http://www.w3.org/2000/svg" xmlns:xlink="http://www.w3.org/1999/xlink" width="225" height="105" viewBox="0 0 225 105">
  <defs>
    <style>
      .cls-1 {
        clip-path: url(#clip-Kshop-90px_1);
      }

      .cls-2, .cls-4 {
        fill: #fb0028;
      }

      .cls-3 {
        fill: #FFFFFF;
      }

      .cls-4 {
        fill-rule: evenodd;
      }
    </style>
    <clipPath id="clip-Kshop-90px_1">
      <rect width="225" height="105"/>
    </clipPath>
  </defs>
  <g id="Kshop-90px_1" class="cls-1">
    <g id="Group_1878" data-name="Group 1878" transform="translate(-5416 -3729.742)">
      <g id="Group_1863" data-name="Group 1863" transform="translate(5427 3737.742)">
        <g id="Group_1845" data-name="Group 1845" transform="translate(10.354 63.904)">
          <path id="Wheel_2_4_" class="cls-2" d="M81.83,432.09a13.048,13.048,0,1,1-13.049,13.048A13.049,13.049,0,0,1,81.83,432.09Z" transform="translate(-68.781 -432.09)"/>
          <path id="Wheel_1_4_" class="cls-2" d="M316.027,432.09a13.061,13.061,0,1,1-13.045,13.048A13.05,13.05,0,0,1,316.027,432.09Z" transform="translate(-266.873 -432.09)"/>
        </g>
        <path id="Cart_4_" class="cls-2" d="M104.226,85.609H88.057c-2.617-8.17-12.238-13.487-21.911-13.36-9.228.122-18.293,5.979-20.418,13.36H28.973A3.671,3.671,0,0,0,25.2,89.179v59.8a3.668,3.668,0,0,0,3.772,3.569h75.253A3.669,3.669,0,0,0,108,148.983v-59.8A3.673,3.673,0,0,0,104.226,85.609Zm-18.946,0H48.542c2.206-5.525,9.783-11.1,17.6-11.165C74.2,74.374,82.411,78.809,85.28,85.609Z" transform="translate(-25.201 -72.247)"/>
        <g id="XMLID_1_" transform="translate(-76 -34.157)">
          <path id="XMLID_2_" class="cls-3" d="M174.509,195.6v-7.087l9.375,12.859H202.4l-4.781-7.634-15.971-2.292,13.443-1.921-4.368-6.262-16.381-2.194,15.534-2.1c.869-1.279,2.338-3.4,2.338-3.4l2.139-3-12.3-1.694,14.97-2.094,5.38-7.581H183.284l-8.775,12.829V161.2H157.975s.075,13.21,0,27.651l-.075,12.523h16.609Z" transform="translate(-62.9 -100.417)"/>
        </g>
      </g>
      <path id="shop_2x_5_" data-name="shop@2x (5)" class="cls-4" d="M96.174,229.086v20.086h6.479l.01-1.518c.006-.835.029-5.738.051-10.9l.041-9.378.614-.322a12.894,12.894,0,0,1,3.717-1.222,15.729,15.729,0,0,1,3.608.033,5.053,5.053,0,0,1,4.223,4.2l.178.716.022,9.191.022,9.191h6.549l-.023-9.907c-.022-9.735-.025-9.922-.168-10.8-.538-3.3-1.632-5.2-3.811-6.614a8.054,8.054,0,0,0-2.175-1.039,14.35,14.35,0,0,0-7.691-.324,21.017,21.017,0,0,0-4.418,1.572c-.335.168-.624.306-.644.306s-.035-3.008-.035-6.684V209H96.174v20.086m42.014-8.992a16.456,16.456,0,0,0-6.048,1.43,11.194,11.194,0,0,0-3.742,3,14.556,14.556,0,0,0-2.6,7.257,37.348,37.348,0,0,0,0,6.241c.507,3.932,1.766,6.744,3.93,8.782a12.506,12.506,0,0,0,7.675,3.122c.375.037,1.3.068,2.046.068a16.182,16.182,0,0,0,5.4-.785,11.593,11.593,0,0,0,7.589-7.874,23.927,23.927,0,0,0,.109-12.479,11.05,11.05,0,0,0-8.181-8.193,20.975,20.975,0,0,0-6.178-.568m29.908.027a27.173,27.173,0,0,0-5.87.984,5.822,5.822,0,0,0-4.747,3.854l-.16.443-.018,17.409-.018,17.409H163.7v-5.866c0-3.75.024-5.866.066-5.866a2.681,2.681,0,0,1,.446.168,18.341,18.341,0,0,0,6.829,1.267,11.714,11.714,0,0,0,8.9-3.456,14.371,14.371,0,0,0,3.743-8.823,32.138,32.138,0,0,0-.176-6.275c-.682-4.713-2.953-8.17-6.448-9.815a18.177,18.177,0,0,0-8.96-1.434m-88.121.271a13.885,13.885,0,0,0-4.161,1.26,7.935,7.935,0,0,0-4.267,4.662,10.3,10.3,0,0,0,.188,6.247A7.823,7.823,0,0,0,75.04,236,21.373,21.373,0,0,0,78.3,237.3c.506.156,1.688.534,2.626.839,3.438,1.121,4.467,1.931,4.467,3.518a2.862,2.862,0,0,1-1.526,2.561c-1.733,1.039-5.4.947-8.33-.209a32.379,32.379,0,0,1-4.109-2.082l-.222-.135v3.033c0,2.829.008,3.035.119,3.069.066.02.5.2.972.389a25.835,25.835,0,0,0,4.774,1.492,24.12,24.12,0,0,0,5.543.11,14.735,14.735,0,0,0,5.386-1.643,8.608,8.608,0,0,0,3.343-3.506,10.1,10.1,0,0,0,.494-6.179,7.028,7.028,0,0,0-3.968-4.59,21.384,21.384,0,0,0-3.907-1.339,36.769,36.769,0,0,1-4.076-1.386,2.848,2.848,0,0,1-1.991-2.416,2.559,2.559,0,0,1,1.649-2.849,6.685,6.685,0,0,1,3.222-.569c2.26,0,3.165.246,6.035,1.669,1.053.522,1.93.949,1.947.949s.032-1.223.032-2.718v-2.718l-.949-.451a18.932,18.932,0,0,0-4.156-1.545,19.126,19.126,0,0,0-5.705-.2m57.906,5.141a5.745,5.745,0,0,0-4.945,4.007,19.011,19.011,0,0,0-.45,9.237,9.831,9.831,0,0,0,1.614,3.693c1.163,1.462,3.168,2.207,5.691,2.114a6.786,6.786,0,0,0,4.177-1.351c1.347-1.07,2.335-3.21,2.72-5.895a26.489,26.489,0,0,0,.036-4.638c-.471-4.146-2.125-6.4-5.177-7.064a14.03,14.03,0,0,0-3.666-.1m30.385.179a10.858,10.858,0,0,0-3.486.752,2.334,2.334,0,0,0-.956.917c-.118.259-.124.671-.126,7.963v7.69l.767.368a11.292,11.292,0,0,0,5.405,1.114c3.6-.153,5.783-1.816,6.754-5.138.836-2.861.571-7.778-.548-10.167a5.532,5.532,0,0,0-1.155-1.718c-1.4-1.468-3.356-1.992-6.654-1.78" transform="translate(5445.537 3554.268)"/>
    </g>
  </g>
</svg>
