<svg xmlns="http://www.w3.org/2000/svg" xmlns:xlink="http://www.w3.org/1999/xlink" width="360" height="360"
     viewBox="0 0 1000 1000">
    <defs>
        <style>
            .cls-1 {
            clip-path: url(#clip-Step_4.1);
            }

            .cls-2 {
            fill: #d7edc8;
            }

            .cls-3 {
            fill: #FFFFFF;
            }

            .cls-4, .cls-6 {
            fill: none;
            }

            .cls-5 {
            fill: #89c769;
            }

            .cls-6 {
            stroke: #db575d;
            stroke-width: 0.083px;
            }

            .cls-10, .cls-6, .cls-9 {
            stroke-miterlimit: 10;
            }

            .cls-7 {
            fill: #f2d296;
            }

            .cls-8 {
            fill: #F6AB1B;
            }

            .cls-9 {
            fill: #b58052;
            stroke: #3a270a;
            stroke-width: 0.25px;
            }

            .cls-10 {
            fill: #f3dac9;
            stroke: #bbb;
            stroke-width: 0.215px;
            }
        </style>
        <clipPath id="clip-Step_4.1">
            <rect width="1000" height="1000"/>
        </clipPath>
    </defs>
    <g id="Step_4.1" class="cls-1">
        <g id="Group_1610" data-name="Group 1610" transform="translate(0 -0.242)">
            <ellipse id="Ellipse_33" data-name="Ellipse 33" class="cls-2" cx="399.782" cy="399.781" rx="399.782"
                     ry="399.781" transform="translate(81.168 100.242)"/>
            <ellipse id="Ellipse_34" data-name="Ellipse 34" class="cls-3" cx="345.339" cy="345.339" rx="345.339"
                     ry="345.339" transform="translate(141.483 153.319)"/>
            <path id="Path_806" data-name="Path 806" class="cls-4"
                  d="M234.738,440.264l3.156,5.682V419.43c-1.262,6.944-3.156,13.889-5.05,21.465A2.319,2.319,0,0,1,234.738,440.264Z"
                  transform="translate(159.274 113.315)"/>
            <path id="Path_807" data-name="Path 807" class="cls-4"
                  d="M236.733,416.387v-20.2l-3.788,3.788C233.577,405.655,235.471,411.337,236.733,416.387Z"
                  transform="translate(159.805 -8.645)"/>
            <path id="Path_808" data-name="Path 808" class="cls-5"
                  d="M253.159,580.371,410.99,379.61s46.087,30.935,66.92,73.233S509.477,548.8,509.477,548.8Z"
                  transform="translate(265.857 -95.607)"/>
            <path id="Path_809" data-name="Path 809" class="cls-5"
                  d="M244.366,370.351,275.3,624.775,434.4,424.014S370,354.568,244.366,370.351Z"
                  transform="translate(219.724 -156.426)"/>
            <path id="Path_810" data-name="Path 810" class="cls-5"
                  d="M212.125,467.383l204.549,157.2L385.108,368.9C384.477,368.9,283.465,372.053,212.125,467.383Z"
                  transform="translate(50.571 -151.814)"/>
            <path id="Path_811" data-name="Path 811" class="cls-5"
                  d="M454.574,417,298.005,620.922s-93.437-77.022-96.593-171.09Z" transform="translate(-5.636 100.588)"/>
            <path id="Path_812" data-name="Path 812" class="cls-5"
                  d="M250.632,416.6l30.935,251.268s106.694-8.838,171.09-97.224Z" transform="translate(252.6 98.468)"/>
            <path id="Path_813" data-name="Path 813" class="cls-5"
                  d="M260.233,443.366l255.687-30.3s36.617,116.795-48.612,188.766Z"
                  transform="translate(302.975 79.908)"/>
            <path id="Path_814" data-name="Path 814" class="cls-5"
                  d="M197.028,579.617,456.5,550.576,246.271,385.169S186.926,443.25,197.028,579.617Z"
                  transform="translate(-34.712 -66.443)"/>
            <path id="Path_815" data-name="Path 815" class="cls-5"
                  d="M221.221,620.873l26.515-34.092L379.684,418.217,406.2,625.924l6.313,47.98C411.882,673.9,284.985,689.688,221.221,620.873Z"
                  transform="translate(98.295 106.951)"/>
            <path id="Path_816" data-name="Path 816" class="cls-6"
                  d="M261.412,402.351s-15.152-10.1-4.419-14.521a36.007,36.007,0,0,1,19.571-2.525s8.838,1.262,2.526,7.576-5.682,8.838-5.682,8.838,6.944,5.05,8.838,3.156"
                  transform="translate(265.809 -67.842)"/>
            <g id="Group_622" data-name="Group 622" transform="translate(491.255 302.963)">
                <ellipse id="Ellipse_35" data-name="Ellipse 35" class="cls-7" cx="35.355" cy="35.355" rx="35.355"
                         ry="35.355" transform="translate(0 0)"/>
                <path id="Path_817" data-name="Path 817" class="cls-8"
                      d="M255.869,388.528l-1.262,12.627s-.632,6.314,3.156,2.525c1.894-1.894.631-3.157,2.526-3.157,0,0,2.525,0,3.156,5.05,1.262,4.42-.632,6.314-.632,6.314s0,.632-.632,0-2.525.632-1.894,1.262a8.982,8.982,0,0,1,1.262,2.525l12,12a2.766,2.766,0,0,0,3.788-1.262c1.262-2.525,5.682-14.521,2.525-22.728s-10.1-16.414-19.571-19.571C254.606,382.846,255.869,388.528,255.869,388.528Z"
                      transform="translate(-218.008 -375.923)"/>
                <path id="Path_818" data-name="Path 818" class="cls-8"
                      d="M274.15,387.642l1.262,15.152s.631,1.894-.632,1.894-1.894,0-1.894-.631-.632-2.526-1.894-1.262c-.632.631-5.05,3.788-6.313,8.207a3.689,3.689,0,0,0,2.525.632c1.894,0,2.525,1.894,1.262,2.526s-12.626,5.682-12.626,5.682-5.05,2.525-5.682-1.262-1.262-16.414,4.42-23.359,12.626-10.732,16.414-11.364C273.518,383.854,273.518,385.748,274.15,387.642Z"
                      transform="translate(-243.233 -376.299)"/>
                <path id="Path_819" data-name="Path 819" class="cls-8"
                      d="M251.263,397.567l13.258-7.576s2.526-1.262,3.788-.631.632,1.894,0,2.525-2.525,2.526,0,2.526,3.788,1.262,4.419,1.262,3.156,1.262,5.05,0a3.3,3.3,0,0,0,.632-3.156s-.632-1.894.632-.632,9.47,10.1,9.47,10.1,2.525,3.156,0,5.05c-3.156,1.894-7.576,6.314-21.465,4.419-13.258-1.894-16.414-10.732-16.414-10.732S250.631,398.2,251.263,397.567Z"
                      transform="translate(-238.655 -348.344)"/>
            </g>
            <g id="Group_623" data-name="Group 623" transform="translate(297.829 562.469)">
                <ellipse id="Ellipse_36" data-name="Ellipse 36" class="cls-7" cx="35.985" cy="35.985" rx="35.985"
                         ry="35.985" transform="translate(0)"/>
                <path id="Path_820" data-name="Path 820" class="cls-8"
                      d="M232.117,428.951l-6.944,11.364s-3.156,5.682,1.894,3.788c2.525-.631,1.894-2.525,3.156-1.894,0,0,1.894,1.262.632,5.682s-3.156,5.05-3.156,5.05h-.632s-2.525,0-2.525,1.262v3.156l6.313,15.783a3.092,3.092,0,0,0,4.42.632c2.525-1.894,11.364-10.732,12.626-19.571a32.616,32.616,0,0,0-8.838-26.516C234.011,423.9,232.117,428.951,232.117,428.951Z"
                      transform="translate(-183.914 -413.219)"/>
                <path id="Path_821" data-name="Path 821" class="cls-8"
                      d="M255.351,430.839l-5.682,14.521a1.3,1.3,0,0,1-1.894,1.262,7.81,7.81,0,0,1-1.894-1.262c0-.631,0-2.526-.632-1.894s-6.313,1.262-9.47,4.419c0,0,0,.632,1.894,1.894,1.894.631,1.894,3.156,0,2.525s-13.889,0-13.889,0-6.313,0-5.05-3.788,6.313-15.783,14.521-19.571,16.414-4.42,20.2-3.157S256.614,428.945,255.351,430.839Z"
                      transform="translate(-213.462 -418.895)"/>
                <path id="Path_822" data-name="Path 822" class="cls-8"
                      d="M221.886,431.406l15.783-1.262s3.156,0,3.788.632,0,1.894-1.262,1.894-3.788.632-1.262,1.894a6.18,6.18,0,0,1,3.156,3.156c0,.632,2.525,2.525,4.42,2.525a2.761,2.761,0,0,0,1.894-2.525s.632-1.894.632,0c.632,1.262,3.788,13.889,3.788,13.889s1.262,4.419-2.526,4.419c-3.788.631-10.1,1.894-21.465-5.682s-10.1-17.046-10.1-17.046S220.623,431.406,221.886,431.406Z"
                      transform="translate(-212.826 -392.947)"/>
            </g>
            <g id="Group_624" data-name="Group 624" transform="translate(530.279 597.49)">
                <ellipse id="Ellipse_37" data-name="Ellipse 37" class="cls-7" cx="35.985" cy="35.985" rx="35.985"
                         ry="35.985" transform="translate(0 0)"/>
                <path id="Path_823" data-name="Path 823" class="cls-8"
                      d="M269.31,434.841,262.365,446.2s-3.156,5.682,1.894,3.788c2.525-.632,1.894-2.525,3.156-1.894,0,0,1.894,1.262.631,5.682s-3.156,5.051-3.156,5.051h-.631c-.632-.631-2.526-.631-2.526.631v3.156l5.682,16.414a3.092,3.092,0,0,0,4.419.631c2.525-1.894,11.364-10.732,12.626-19.571.632-8.838-1.894-19.571-8.838-26.515C271.2,429.159,269.31,434.841,269.31,434.841Z"
                      transform="translate(-221.23 -418.776)"/>
                <path id="Path_824" data-name="Path 824" class="cls-8"
                      d="M292.645,436.4l-5.682,14.521a1.3,1.3,0,0,1-1.894,1.262,7.83,7.83,0,0,1-1.894-1.262s0-2.525-.632-1.894c-1.262.632-6.313,1.263-9.47,4.42,0,0,0,.631,1.894,1.894s1.894,3.156,0,2.525-13.889,0-13.889,0-6.313,0-5.05-3.788,6.314-15.783,14.521-19.571,16.414-4.419,20.2-3.156C293.907,432.609,293.276,434.5,292.645,436.4Z"
                      transform="translate(-250.246 -424.752)"/>
                <path id="Path_825" data-name="Path 825" class="cls-8"
                      d="M259.079,436.964l15.783-1.262s3.157,0,3.788.631,0,1.894-1.262,1.894-3.788.631-1.262,1.894a6.181,6.181,0,0,1,3.156,3.157c0,.631,2.525,2.525,4.419,2.525a2.761,2.761,0,0,0,1.894-2.525s.631-1.894.631,0c.632,1.262,3.788,13.889,3.788,13.889s1.262,4.419-2.525,4.419-10.1,1.894-21.465-5.682-10.1-17.046-10.1-17.046S257.817,436.964,259.079,436.964Z"
                      transform="translate(-250.141 -398.803)"/>
            </g>
            <g id="Group_625" data-name="Group 625" transform="translate(669.679 525.261)">
                <ellipse id="Ellipse_38" data-name="Ellipse 38" class="cls-7" cx="35.985" cy="35.985" rx="35.985"
                         ry="35.985" transform="translate(0 0)"/>
                <path id="Path_826" data-name="Path 826" class="cls-8"
                      d="M291.544,423.218,284.6,434.582s-3.156,5.682,1.894,3.788c2.526-.631,1.894-2.525,3.156-1.894,0,0,1.894,1.262.632,5.682s-3.157,5.05-3.157,5.05h-.632c-.631-.631-2.525-.631-2.525.631V451l5.682,16.414a3.092,3.092,0,0,0,4.419.631c2.525-1.262,11.364-10.732,12.627-19.571.632-8.838-1.894-19.571-8.838-26.516C293.438,417.536,291.544,423.218,291.544,423.218Z"
                      transform="translate(-243.972 -407.527)"/>
                <path id="Path_827" data-name="Path 827" class="cls-8"
                      d="M314.879,424.876,309.2,439.4a1.3,1.3,0,0,1-1.894,1.262c-1.894-.631-1.894-1.262-1.894-1.262s0-2.525-.631-1.894c-1.262.631-6.314,1.262-9.47,4.419,0,0,0,.632,1.894,1.894,1.894.631,1.894,3.156,0,2.525s-13.889,0-13.889,0-6.313,0-5.051-3.788,6.314-15.783,14.521-19.571,16.414-4.42,20.2-3.157C316.141,420.456,315.51,422.982,314.879,424.876Z"
                      transform="translate(-272.988 -412.973)"/>
                <path id="Path_828" data-name="Path 828" class="cls-8"
                      d="M281.314,425.443,297.1,424.18s3.157,0,3.788.632,0,1.894-1.262,1.894-3.788.632-1.262,1.894a6.18,6.18,0,0,1,3.156,3.156c0,.631,2.526,2.525,4.419,2.525a2.761,2.761,0,0,0,1.894-2.525s.632-1.894.632,0c.632,1.262,3.788,13.889,3.788,13.889s1.262,4.419-2.525,4.419c-3.788.632-10.1,1.894-21.465-5.682s-10.1-17.046-10.1-17.046S280.051,425.443,281.314,425.443Z"
                      transform="translate(-272.884 -387.024)"/>
            </g>
            <g id="Group_626" data-name="Group 626" transform="translate(620.664 389.48)">
                <ellipse id="Ellipse_39" data-name="Ellipse 39" class="cls-7" cx="34.722" cy="34.722" rx="34.722"
                         ry="34.722" transform="translate(0)"/>
                <path id="Path_829" data-name="Path 829" class="cls-8"
                      d="M274.4,403.958l3.788,12s1.894,5.682,3.788,1.262c.631-1.894-.632-3.156,1.262-3.788,0,0,1.894-.631,4.419,3.157s1.894,5.682,1.894,5.682,0,.631-.632,0-1.894,1.262-1.262,1.894l1.894,1.894,15.783,6.314a3.331,3.331,0,0,0,3.157-2.525c.631-2.526,0-15.152-5.682-21.465s-15.152-11.364-24.622-10.732C271.872,399.539,274.4,403.958,274.4,403.958Z"
                      transform="translate(-245.993 -390.746)"/>
                <path id="Path_830" data-name="Path 830" class="cls-8"
                      d="M285.644,401.163l6.313,13.258a1.749,1.749,0,0,1,0,2.525q-1.894.947-1.894,0c0-.631-1.894-1.894-1.894-.631-.632,1.262-3.156,5.682-2.525,9.47,0,0,.632.631,2.525,0s3.157.631,1.894,1.894-8.838,10.1-8.838,10.1-3.788,4.42-5.682.631c-1.894-3.157-6.944-14.521-4.42-22.728s7.576-14.52,10.732-16.414C283.75,397.375,285.012,399.269,285.644,401.163Z"
                      transform="translate(-264.184 -386.057)"/>
                <path id="Path_831" data-name="Path 831" class="cls-8"
                      d="M272.7,417.726l9.47-12s1.894-1.894,3.156-1.894c.632,0,1.262,1.262.632,2.526-.632.632-1.894,3.157.632,1.894s4.419-.632,4.419,0c.632,0,3.788,0,4.419-1.894s-.631-2.526-.631-2.526-1.262-1.262.631-.631c1.262.631,12,5.682,12,5.682s3.788,1.894,1.894,5.051-5.051,8.207-17.677,11.364-18.94-3.788-18.94-3.788S272.067,418.989,272.7,417.726Z"
                      transform="translate(-253.763 -362.215)"/>
            </g>
            <g id="Group_627" data-name="Group 627" transform="translate(260.201 411.404)">
                <ellipse id="Ellipse_40" data-name="Ellipse 40" class="cls-7" cx="34.722" cy="34.722" rx="34.722"
                         ry="34.722" transform="translate(0 0)"/>
                <path id="Path_832" data-name="Path 832" class="cls-8"
                      d="M216.587,407.5l3.788,12s1.894,5.682,3.788,1.262c.632-1.894-.632-3.156,1.262-3.788,0,0,1.894-.631,4.42,3.157s1.894,5.682,1.894,5.682,0,.631-.631,0c-.632,0-1.894,1.262-1.262,1.894l1.894,1.894,15.783,6.314a3.33,3.33,0,0,0,3.156-2.526c.632-2.526,0-15.152-5.682-21.465s-15.152-11.364-24.622-10.732C214.061,402.445,216.587,407.5,216.587,407.5Z"
                      transform="translate(-188.838 -394.111)"/>
                <path id="Path_833" data-name="Path 833" class="cls-8"
                      d="M227.935,404.7l6.313,13.258a1.749,1.749,0,0,1,0,2.525c-1.262,1.263-1.894.632-1.894,0s-1.894-1.894-1.894-.631c-.632,1.262-3.156,5.682-2.525,9.47,0,0,.632.632,2.525,0s3.156.632,1.894,1.894-8.838,10.1-8.838,10.1-3.788,4.419-5.682.631c-1.894-3.156-6.944-14.52-4.42-22.728s7.576-14.521,10.733-16.415S226.672,402.807,227.935,404.7Z"
                      transform="translate(-206.499 -389.423)"/>
                <path id="Path_834" data-name="Path 834" class="cls-8"
                      d="M214.989,421.263l9.47-12s1.894-1.894,3.156-1.894,1.262,1.263.632,2.526c-.632.632-1.894,3.157.632,1.894s4.419-.631,4.419,0c.632,0,3.788,0,4.42-1.894s-.632-2.526-.632-2.526-1.262-1.262.632-.631c1.262.631,12,5.682,12,5.682s3.788,1.894,1.894,5.051-5.05,8.208-17.677,11.364-18.94-3.788-18.94-3.788S214.357,421.9,214.989,421.263Z"
                      transform="translate(-196.078 -365.581)"/>
            </g>
            <g id="Group_628" data-name="Group 628" transform="translate(408.97 604.548)">
                <path id="Path_1230" data-name="Path 1230" class="cls-7"
                      d="M35.985,0A35.985,35.985,0,1,1,0,35.985,35.985,35.985,0,0,1,35.985,0Z"
                      transform="translate(0)"/>
                <path id="Path_835" data-name="Path 835" class="cls-8"
                      d="M249.9,435.722l-6.944,11.364s-3.156,5.682,1.894,3.788c2.525-.631,1.894-2.526,3.156-1.894,0,0,1.894,1.262.631,5.682s-3.156,5.05-3.156,5.05h-.631c-.632-.632-2.525-.632-2.525.631V463.5l5.682,16.414a3.092,3.092,0,0,0,4.42.631c2.525-1.894,11.364-10.732,12.626-19.571.632-8.838-1.894-19.571-8.838-26.515C251.167,430.672,249.9,435.722,249.9,435.722Z"
                      transform="translate(-201.73 -419.771)"/>
                <path id="Path_836" data-name="Path 836" class="cls-8"
                      d="M273.139,437.61l-5.682,14.521a1.3,1.3,0,0,1-1.894,1.262,7.807,7.807,0,0,1-1.894-1.262c0-.632,0-2.525-.632-1.894-1.262.632-6.313,1.262-9.47,4.42,0,0,0,.631,1.894,1.894,1.894.632,1.894,3.157,0,2.526s-13.889,0-13.889,0-6.313,0-5.05-3.788,6.313-15.783,14.521-19.571,16.414-4.419,20.2-3.156C274.4,433.822,273.77,435.716,273.139,437.61Z"
                      transform="translate(-231.277 -425.447)"/>
                <path id="Path_837" data-name="Path 837" class="cls-8"
                      d="M239.674,438.177l15.783-1.262s3.156,0,3.788.631,0,1.894-1.262,1.894-3.788.631-1.262,1.894a6.18,6.18,0,0,1,3.156,3.157c0,.631,2.525,2.525,4.419,2.525a2.761,2.761,0,0,0,1.894-2.525s.632-1.894.632,0c.632,1.262,3.788,13.889,3.788,13.889s1.262,4.42-2.525,4.42c-3.788.631-10.1,1.894-21.465-5.682s-10.1-17.046-10.1-17.046A4.353,4.353,0,0,1,239.674,438.177Z"
                      transform="translate(-230.641 -399.498)"/>
            </g>
            <path id="Path_838" data-name="Path 838" class="cls-8"
                  d="M220.381,421.249s9.47,90.279,80.179,138.892l-10.733,13.89S204.6,502.059,206.492,422.512Z"
                  transform="translate(20.851 122.86)"/>
            <path id="Path_839" data-name="Path 839" class="cls-8"
                  d="M215.865,457.058s67.552-80.81,153.412-82.7l1.894,14.521s-82.7,3.788-141.417,78.284Z"
                  transform="translate(70.191 -123.181)"/>
            <path id="Path_840" data-name="Path 840" class="cls-8"
                  d="M205.495,559.189s-20.2-103.537,32.829-171.089l12.626,7.576s-49.875,68.814-28.41,161.62Z"
                  transform="translate(-4.036 -51.066)"/>
            <path id="Path_841" data-name="Path 841" class="cls-8"
                  d="M244.972,374.577s93.437-13.258,165.407,47.349l-10.1,13.258S345.984,379,247.5,390.36Z"
                  transform="translate(222.906 -128.454)"/>
            <path id="Path_842" data-name="Path 842" class="cls-8"
                  d="M282.514,383.854s77.653,54.925,84.6,147.1h0l-15.152,1.894S338.7,446.356,273.675,394.587Z"
                  transform="translate(373.5 -73.336)"/>
            <path id="Path_844" data-name="Path 844" class="cls-8"
                  d="M254.675,517.219s83.335-5.682,137-80.81l11.364,8.838s-53.663,76.391-146.467,86.491Z"
                  transform="translate(273.811 202.398)"/>
            <path id="Path_845" data-name="Path 845" class="cls-8"
                  d="M232.36,445.2s58.082,48.612,158.463,39.142l1.894,16.415s-97.224,9.47-168.564-45.456Z"
                  transform="translate(113.672 248.531)"/>
            <g id="Group_629" data-name="Group 629" transform="translate(355.338 290.659)">
                <ellipse id="Ellipse_42" data-name="Ellipse 42" class="cls-7" cx="35.985" cy="35.985" rx="35.985"
                         ry="35.985" transform="translate(0 0)"/>
                <path id="Path_846" data-name="Path 846" class="cls-8"
                      d="M241.314,385.722l-6.944,11.364s-3.156,5.682,1.894,3.788c2.526-.632,1.894-2.525,3.156-1.894,0,0,1.894,1.262.632,5.682s-3.156,5.05-3.156,5.05h-.632c-.631-.631-2.525-.631-2.525.632V413.5l5.682,16.415a3.091,3.091,0,0,0,4.419.631c2.525-1.262,11.364-10.732,12.626-19.571.632-8.838-1.894-19.571-8.838-26.516C243.208,380.04,241.314,385.722,241.314,385.722Z"
                      transform="translate(-193.17 -369.651)"/>
                <path id="Path_847" data-name="Path 847" class="cls-8"
                      d="M264.649,387.279,258.967,401.8a1.3,1.3,0,0,1-1.894,1.262,7.811,7.811,0,0,1-1.894-1.262c0-.631,0-2.526-.632-1.894s-6.313,1.262-9.47,4.419c0,0,0,.632,1.894,1.894,1.894.631,1.894,3.156,0,2.525s-13.889,0-13.889,0-6.313,0-5.05-3.788,6.313-15.783,14.52-19.571,16.414-4.42,20.2-3.157C265.912,383.49,265.281,385.385,264.649,387.279Z"
                      transform="translate(-222.187 -375.626)"/>
                <path id="Path_848" data-name="Path 848" class="cls-8"
                      d="M231.083,387.846l15.783-1.262s3.156,0,3.788.632,0,1.894-1.262,1.894-3.788.632-1.262,1.894a6.18,6.18,0,0,1,3.156,3.156s2.525,2.526,4.42,2.526a2.761,2.761,0,0,0,1.894-2.526s.632-1.894.632,0c.632,1.262,3.788,13.889,3.788,13.889s1.262,4.419-2.525,4.419-10.1,1.894-21.465-5.682-10.1-17.046-10.1-17.046S229.82,388.477,231.083,387.846Z"
                      transform="translate(-222.081 -349.678)"/>
            </g>
            <g id="Group_630" data-name="Group 630" transform="translate(31 177.308)">
                <path id="Path_849" data-name="Path 849" class="cls-9"
                      d="M189.567,424.255l78.284-47.98s41.668,56.188,37.879,87.754-11.995,39.142-11.995,39.142-9.47,29.673-7.576,51.137,6.313,53.032-12.626,53.032-26.515-7.576-27.147-26.515c-1.262-18.94,3.788-70.078-18.309-90.279,12.83,21.924,16.947,40.574,18.309,53.662,3.579,34.408-7.278,74.653-7.278,74.653h0s-44.939-22.207-41.334-39.3C194.613,568.621,199.668,445.72,189.567,424.255Z"
                      transform="translate(-103.706 -290.414)"/>
                <path id="Path_850" data-name="Path 850" class="cls-8"
                      d="M176.3,391.57,248.9,519.73l111.113-65.658-70.077-91.542-114.9,6.945Z"
                      transform="translate(-175.034 -362.529)"/>
            </g>
            <path id="Path_843" data-name="Path 843" class="cls-8"
                  d="M326.688,416.194s10.1,90.279-39.773,150.887l10.732,8.208s59.976-74.5,44.824-161.619Z"
                  transform="translate(442.963 83.091)"/>
            <g id="Group_631" data-name="Group 631" transform="translate(765.386 492.971)">
                <path id="Path_851" data-name="Path 851" class="cls-10"
                      d="M325.275,668.118l83.967-49.243L413.03,511.55s-2.526-23.359-12-34.091-54.925-64.4-54.925-64.4l3.156,94.7s15.783,30.935,18.94,53.032c0,0-13.258-43.561-20.2-56.819,0,0-3.157-23.99-1.894-29.041.631-5.05,1.894-30.3-18.309-29.673s-19.571,18.94-18.94,27.147,8.207,32.829-3.788,66.289-17.677,58.714-6.313,83.967C298.127,622.032,313.91,651.7,325.275,668.118Z"
                      transform="translate(-292.6 -413.063)"/>
                <path id="Path_852" data-name="Path 852" class="cls-8"
                      d="M293.383,519.015l118.689-77.653,29.041,41.667-123.74,72.6Z"
                      transform="translate(-288.487 -264.59)"/>
                <path id="Path_853" data-name="Path 853" class="cls-7"
                      d="M349.271,598.54,298.134,515.2l106.694-68.183L467.96,547.4V591.6Z"
                      transform="translate(-263.565 -234.896)"/>
            </g>
        </g>
    </g>
</svg>
