<svg xmlns="http://www.w3.org/2000/svg" xmlns:xlink="http://www.w3.org/1999/xlink" width="360" height="360"
     viewBox="0 0 1000 1000">
    <defs>
        <style>
            .cls-1 {
            clip-path: url(#clip-Step_2);
            }

            .cls-2 {
            fill: #d7edc8;
            }

            .cls-3 {
            fill: #c5b292;
            }

            .cls-4 {
            fill: #328e34;
            }

            .cls-5 {
            fill: #bfe576;
            }

            .cls-6 {
            fill: #38a33f;
            }

            .cls-7 {
            fill: #bc2222;
            }

            .cls-8 {
            fill: #397f14;
            }

            .cls-9 {
            fill: #ce3c3c;
            }

            .cls-10 {
            fill: #543724;
            }

            .cls-11 {
            fill: #e8cd5b;
            }

            .cls-12 {
            fill: #ffe35a;
            }

            .cls-13 {
            fill: #f0a70f;
            }

            .cls-14 {
            fill: #fcc332;
            }

            .cls-15 {
            fill: #ffeb5c;
            }

            .cls-16 {
            fill: #704a1f;
            }

            .cls-17 {
            fill: #39b54a;
            }

            .cls-18 {
            fill: #f47621;
            }

            .cls-19 {
            fill: #ba5624;
            }

            .cls-20 {
            fill: #d17537;
            }

            .cls-21 {
            fill: #f9b458;
            }

            .cls-22 {
            fill: #55aa2b;
            }

            .cls-23 {
            fill: #79d647;
            }

            .cls-24 {
            fill: #5bb222;
            }

            .cls-25 {
            fill: #6cc13a;
            }

            .cls-26 {
            fill: #aee090;
            }

            .cls-27 {
            fill: #FFFFFF;
            stroke: #1B9BD9;
            stroke-miterlimit: 10;
            stroke-width: 1.099px;
            }

            .cls-28 {
            fill: #F6AB1B;
            }

            .cls-29 {
            fill: #f2d296;
            }
        </style>
        <clipPath id="clip-Step_2">
            <rect width="1000" height="1000"/>
        </clipPath>
    </defs>
    <g id="Step_2" class="cls-1">
        <g id="Group_1607" data-name="Group 1607" transform="translate(0 0.051)">
            <path id="Path_520" data-name="Path 520" class="cls-2"
                  d="M711.452,789.4c0,240.212-194.731,434.943-434.943,434.943S-158.434,1029.607-158.434,789.4,36.3,354.452,276.509,354.452,711.452,549.183,711.452,789.4"
                  transform="translate(223.548 -289.503)"/>
            <path id="Path_521" data-name="Path 521" class="cls-3"
                  d="M-35.972,448.372l-34.66-12.912c-3.4-1.359-5.437-5.437-4.757-9.514l2.039-6.8c1.359-4.078,4.757-6.116,8.835-4.757L-29.856,427.3c3.4,1.359,5.437,5.437,4.757,9.514l-2.039,6.8C-28.5,447.692-31.895,449.731-35.972,448.372Z"
                  transform="translate(704.12 55.475)"/>
            <g id="Group_444" data-name="Group 444" transform="translate(228.317 194.245)">
                <g id="Group_412" data-name="Group 412" transform="translate(163.797 71.611)">
                    <g id="Group_400" data-name="Group 400">
                        <path id="Path_522" data-name="Path 522" class="cls-4"
                              d="M-61.245,389.834-71.5,394.441A65.584,65.584,0,0,0-104.48,481.3l24.031,53.131c30.78,68.063,95.513,58.917,95.513,58.917a7.093,7.093,0,0,1,3.569,3.552l25.587,56.571a1.94,1.94,0,0,0,2.563.967l9.429-4.237a1.931,1.931,0,0,0,.968-2.554L31.675,591.25a7.065,7.065,0,0,1-.312-5S83.051,549.094,49.92,475.843L25.893,422.71A65.969,65.969,0,0,0-61.245,389.834Z"
                              transform="translate(110.317 -384.015)"/>
                        <g id="Group_391" data-name="Group 391" transform="translate(56.455 36.588)">
                            <g id="Group_390" data-name="Group 390">
                                <path id="Path_523" data-name="Path 523" class="cls-5"
                                      d="M-100.537,389.4,8.289,618.892l-9.838,4.42L-102.01,390.061Z"
                                      transform="translate(102.01 -389.398)"/>
                            </g>
                        </g>
                        <g id="Group_393" data-name="Group 393" transform="translate(36.254 29.801)">
                            <g id="Group_392" data-name="Group 392">
                                <path id="Path_524" data-name="Path 524" class="cls-5"
                                      d="M-104.983,411.417c3.108,1.3,6.179,2.676,9.249,4.054,3.061,1.4,6.12,2.794,9.157,4.237,3.049,1.42,6.071,2.892,9.1,4.351s6.031,2.971,9.048,4.453l-1.516.674c.929-3.425,1.9-6.838,2.848-10.256.994-3.407,1.953-6.822,2.981-10.221,1.008-3.4,2.054-6.8,3.114-10.184l1.632-5.072q.827-2.533,1.7-5.053-.532,2.613-1.109,5.214l-1.179,5.2c-.813,3.456-1.642,6.907-2.507,10.35-.845,3.447-1.76,6.875-2.64,10.313-.926,3.425-1.828,6.857-2.773,10.277l-.35,1.268-1.166-.594c-2.995-1.526-6-3.022-8.988-4.572s-5.974-3.085-8.937-4.674c-2.974-1.567-5.927-3.176-8.878-4.789C-99.138,414.757-102.08,413.125-104.983,411.417Z"
                                      transform="translate(104.983 -388.4)"/>
                            </g>
                        </g>
                        <g id="Group_395" data-name="Group 395" transform="translate(43.607 56.229)">
                            <g id="Group_394" data-name="Group 394">
                                <path id="Path_525" data-name="Path 525" class="cls-5"
                                      d="M-103.9,421.05q2.908,1.227,5.8,2.5l5.759,2.568,5.731,2.625c1.914.869,3.806,1.778,5.71,2.667s3.806,1.779,5.693,2.7l5.675,2.737c1.9.9,3.774,1.842,5.656,2.771l5.647,2.792-1.895.842c.565-2.143,1.183-4.273,1.772-6.409l1.787-6.405c1.242-4.257,2.44-8.525,3.725-12.77l1.918-6.37,1.973-6.355,2.039-6.337q1.033-3.164,2.125-6.313-.664,3.265-1.386,6.514l-1.472,6.491-1.539,6.472-1.594,6.458c-1.056,4.307-2.2,8.59-3.3,12.885l-1.725,6.423c-.582,2.139-1.134,4.286-1.739,6.418l-.447,1.575-1.447-.733-5.62-2.846c-1.873-.949-3.749-1.891-5.609-2.866l-5.592-2.9c-1.868-.959-3.716-1.958-5.573-2.939s-3.715-1.959-5.557-2.97l-5.535-3.013-5.507-3.069Q-101.179,422.649-103.9,421.05Z"
                                      transform="translate(103.901 -392.289)"/>
                            </g>
                        </g>
                        <g id="Group_397" data-name="Group 397" transform="translate(52.645 84.101)">
                            <g id="Group_396" data-name="Group 396">
                                <path id="Path_526" data-name="Path 526" class="cls-5"
                                      d="M-102.571,429.6q3.359,1.417,6.693,2.882c2.226.97,4.434,1.979,6.651,2.966l6.618,3.03c2.209,1,4.4,2.053,6.593,3.081s4.4,2.054,6.575,3.116l6.552,3.16c2.189,1.044,4.358,2.127,6.532,3.2l6.521,3.224-2.188.973c.652-2.475,1.366-4.934,2.046-7.4l2.064-7.4,2.135-7.377c.709-2.459,1.422-4.919,2.167-7.369l2.214-7.356L-39.119,411l1.173-3.66,1.182-3.658q1.193-3.654,2.454-7.29-.768,3.771-1.6,7.523l-.845,3.749-.855,3.747-1.776,7.475-1.84,7.457c-.606,2.488-1.246,4.966-1.889,7.444l-1.92,7.435-1.991,7.416c-.671,2.47-1.31,4.949-2.009,7.412l-.516,1.819-1.671-.846-6.489-3.286c-2.163-1.1-4.33-2.184-6.477-3.31l-6.458-3.35c-2.158-1.107-4.292-2.26-6.435-3.394s-4.291-2.262-6.417-3.429l-6.392-3.48c-2.12-1.183-4.249-2.343-6.36-3.543S-100.473,430.828-102.571,429.6Z"
                                      transform="translate(102.571 -396.39)"/>
                            </g>
                        </g>
                        <g id="Group_399" data-name="Group 399" transform="translate(57.7 108.568)">
                            <g id="Group_398" data-name="Group 398">
                                <path id="Path_527" data-name="Path 527" class="cls-5"
                                      d="M-101.827,440.7c2.75,1.148,5.479,2.336,8.2,3.533s5.434,2.425,8.152,3.636l4.059,1.853,4.053,1.861c2.709,1.23,5.389,2.517,8.082,3.777s5.387,2.517,8.059,3.821l8.032,3.874c1.337.649,2.682,1.283,4.01,1.948l4,1.976,7.993,3.952-2.681,1.192c.8-3.034,1.674-6.047,2.508-9.072l2.53-9.066,2.617-9.043c.87-3.015,1.742-6.029,2.656-9.032l2.714-9.016,2.793-8.994,1.438-4.487c.484-1.495.949-2.994,1.448-4.483.981-2.984,1.969-5.968,3.009-8.936-.617,3.083-1.286,6.153-1.961,9.221-.329,1.537-.692,3.063-1.036,4.595L-22.2,418.4l-2.178,9.162-2.256,9.141c-.743,3.049-1.528,6.088-2.315,9.125l-2.353,9.115-2.441,9.09c-.824,3.028-1.606,6.067-2.463,9.085l-.633,2.23-2.048-1.038-7.954-4.029-3.977-2.014c-1.329-.665-2.642-1.361-3.963-2.042l-7.915-4.106c-2.644-1.356-5.259-2.771-7.888-4.159s-5.259-2.773-7.866-4.2l-3.92-2.129-3.915-2.137c-2.6-1.45-5.209-2.873-7.8-4.344S-99.261,442.21-101.827,440.7Z"
                                      transform="translate(101.827 -399.99)"/>
                            </g>
                        </g>
                    </g>
                    <g id="Group_411" data-name="Group 411" transform="translate(119.797 23.966)">
                        <path id="Path_528" data-name="Path 528" class="cls-6"
                              d="M-24.357,387.927l-9.391-.347A54.983,54.983,0,0,0-90.8,440.386l-1.811,48.672c-2.318,62.344,49.547,79.466,49.547,79.466a5.9,5.9,0,0,1,1.347,3.983l-1.926,51.819A1.618,1.618,0,0,0-42.09,626l8.64.318a1.619,1.619,0,0,0,1.679-1.55l1.921-51.658a5.906,5.906,0,0,1,1.628-3.861s52.538-8.676,55.034-75.774L28.619,444.8A54.949,54.949,0,0,0-24.357,387.927Z"
                              transform="translate(92.69 -387.541)"/>
                        <g id="Group_402" data-name="Group 402" transform="translate(50.434 26.647)">
                            <g id="Group_401" data-name="Group 401">
                                <path id="Path_529" data-name="Path 529" class="cls-5"
                                      d="M-72.207,391.513-76.257,603.6l-9.011-.333,11.712-211.8Z"
                                      transform="translate(85.268 -391.462)"/>
                            </g>
                        </g>
                        <g id="Group_404" data-name="Group 404" transform="translate(41.224 30.823)">
                            <g id="Group_403" data-name="Group 403">
                                <path id="Path_530" data-name="Path 530" class="cls-5"
                                      d="M-86.624,392.077c1.843,2.124,3.628,4.291,5.413,6.459s3.539,4.358,5.276,6.561c1.753,2.191,3.467,4.413,5.191,6.626s3.408,4.456,5.114,6.683l-1.386-.057,5.954-6.623c2.014-2.182,4-4.384,6.04-6.546s4.07-4.326,6.126-6.47c2.071-2.131,4.136-4.267,6.267-6.345-1.822,2.352-3.71,4.646-5.591,6.945s-3.8,4.563-5.732,6.819-3.88,4.5-5.819,6.743l-5.9,6.667-.73.825-.656-.882c-1.673-2.251-3.37-4.485-5.025-6.75s-3.322-4.52-4.948-6.807c-1.643-2.274-3.254-4.572-4.863-6.872S-85.087,394.43-86.624,392.077Z"
                                      transform="translate(86.624 -392.077)"/>
                            </g>
                        </g>
                        <g id="Group_406" data-name="Group 406" transform="translate(34.74 57.627)">
                            <g id="Group_405" data-name="Group 405">
                                <path id="Path_531" data-name="Path 531" class="cls-5"
                                      d="M-87.578,396.021c2.3,2.653,4.533,5.362,6.762,8.07,2.213,2.721,4.422,5.444,6.592,8.2,1.087,1.376,2.186,2.741,3.256,4.129l3.228,4.149c1.082,1.379,2.139,2.776,3.2,4.169l3.187,4.181-1.732-.071c1.221-1.4,2.477-2.76,3.715-4.142l3.724-4.133c2.515-2.727,5-5.478,7.547-8.18q3.791-4.074,7.654-8.085l3.887-3.989q1.953-1.986,3.944-3.939-1.714,2.2-3.465,4.363l-3.521,4.314q-3.555,4.284-7.163,8.519c-2.4,2.833-4.848,5.616-7.27,8.425l-3.683,4.169c-1.233,1.386-2.447,2.788-3.694,4.161l-.922,1.014-.81-1.085-3.147-4.211c-1.048-1.4-2.1-2.8-3.131-4.222l-3.105-4.242c-1.041-1.409-2.052-2.841-3.077-4.263-2.052-2.841-4.065-5.712-6.074-8.586C-83.667,401.848-85.659,398.961-87.578,396.021Z"
                                      transform="translate(87.578 -396.021)"/>
                            </g>
                        </g>
                        <g id="Group_408" data-name="Group 408" transform="translate(29.461 85.17)">
                            <g id="Group_407" data-name="Group 407">
                                <path id="Path_532" data-name="Path 532" class="cls-5"
                                      d="M-88.355,400.074q1.986,2.305,3.936,4.636l3.873,4.683,3.825,4.719c1.28,1.569,2.525,3.164,3.787,4.747s2.525,3.165,3.76,4.768l3.728,4.792c1.249,1.592,2.47,3.206,3.7,4.815l3.68,4.827-2-.082c1.411-1.611,2.861-3.188,4.29-4.783l4.3-4.773c2.9-3.148,5.777-6.326,8.715-9.446l4.4-4.687,4.44-4.65,4.489-4.606q2.256-2.294,4.554-4.549-1.98,2.538-4,5.039l-4.066,4.981-4.115,4.938-4.156,4.9c-2.767,3.272-5.6,6.486-8.4,9.728l-4.254,4.815c-1.424,1.6-2.824,3.22-4.266,4.8l-1.064,1.171-.935-1.253-3.633-4.862c-1.21-1.621-2.428-3.238-3.616-4.876l-3.586-4.9c-1.2-1.627-2.37-3.281-3.553-4.923s-2.368-3.282-3.526-4.943l-3.488-4.971-3.44-5.007Q-86.689,402.618-88.355,400.074Z"
                                      transform="translate(88.355 -400.074)"/>
                            </g>
                        </g>
                        <g id="Group_410" data-name="Group 410" transform="translate(21.335 110.967)">
                            <g id="Group_409" data-name="Group 409">
                                <path id="Path_533" data-name="Path 533" class="cls-5"
                                      d="M-89.55,403.87q2.434,2.824,4.824,5.683c1.6,1.9,3.164,3.827,4.747,5.74l4.688,5.785c1.569,1.923,3.1,3.879,4.643,5.819s3.095,3.879,4.609,5.844l4.569,5.874c1.53,1.952,3.028,3.929,4.532,5.9l4.511,5.917-2.451-.1c1.73-1.975,3.507-3.907,5.259-5.862l5.272-5.85,5.329-5.8c1.774-1.935,3.551-3.868,5.353-5.778l5.392-5.744,5.442-5.7,2.748-2.826,2.755-2.819,2.775-2.8,2.807-2.774-2.436,3.1-2.468,3.074-2.489,3.056-2.495,3.049-5.045,6.053-5.095,6.007c-1.693,2.008-3.412,3.991-5.134,5.973l-5.157,5.951-5.215,5.9c-1.745,1.961-3.463,3.946-5.229,5.889l-1.3,1.434-1.146-1.535-4.453-5.961c-1.484-1.987-2.975-3.969-4.432-5.976l-4.395-6c-1.474-1.994-2.9-4.022-4.356-6.034s-2.9-4.023-4.322-6.059l-4.276-6.094c-1.4-2.047-2.829-4.079-4.217-6.138S-88.185,405.947-89.55,403.87Z"
                                      transform="translate(89.55 -403.87)"/>
                            </g>
                        </g>
                    </g>
                </g>
                <g id="Group_415" data-name="Group 415" transform="translate(154.606 141.726)">
                    <path id="Path_534" data-name="Path 534" class="cls-7"
                          d="M24.084,472.318c-6.649,33.31-42.188,54.333-79.376,46.958s-61.947-40.357-55.3-73.667,42.185-54.333,79.376-46.957S30.732,439.008,24.084,472.318Z"
                          transform="translate(111.67 -377.844)"/>
                    <g id="Group_414" data-name="Group 414" transform="translate(26.92)">
                        <path id="Path_535" data-name="Path 535" class="cls-8"
                              d="M-52.85,399.109c-11.131-3.515-35.173-2.587-54.859,3.17C-86.587,405.714-61.17,405.528-52.85,399.109Z"
                              transform="translate(107.709 -378.599)"/>
                        <path id="Path_536" data-name="Path 536" class="cls-8"
                              d="M-71.329,397.4c-10.7,1.312-25.667,12.011-33.143,25.383C-87.259,417.31-70.677,406.734-71.329,397.4Z"
                              transform="translate(126.467 -376.534)"/>
                        <path id="Path_537" data-name="Path 537" class="cls-8"
                              d="M-99.263,397.373c-2.744,6.8,4.644,23.054,18.5,37.281C-80.608,421.154-87.174,404.119-99.263,397.373Z"
                              transform="translate(153.377 -376.707)"/>
                        <path id="Path_538" data-name="Path 538" class="cls-8"
                              d="M-100.134,397.316c6.073,7.126,28.229,17.5,51.673,23.055C-63.417,408.758-85.995,397.321-100.134,397.316Z"
                              transform="translate(151.613 -377.034)"/>
                        <g id="Group_413" data-name="Group 413" transform="translate(51.909)">
                            <path id="Path_539" data-name="Path 539" class="cls-8"
                                  d="M-95.773,417.754l-4.3-.974,5.115-22.449,4.3.974Z"
                                  transform="translate(100.07 -394.332)"/>
                        </g>
                    </g>
                    <path id="Path_540" data-name="Path 540" class="cls-9"
                          d="M-86.977,422.228c-5.874,6.678-17.112,5.914-20.792,2.7s-1.9-11.237,3.974-17.911,13.618-9.481,17.3-6.265S-81.1,415.553-86.977,422.228Z"
                          transform="translate(123.175 -364.865)"/>
                </g>
                <g id="Group_416" data-name="Group 416" transform="translate(317.787 84.322)">
                    <path id="Path_541" data-name="Path 541" class="cls-10"
                          d="M28.253,508.573l14.774-94.034,2.267.354a1.753,1.753,0,0,0,2-1.457l1.629-10.364a1.749,1.749,0,0,0-1.462-2L45.2,400.72l1.023-6.511a2.018,2.018,0,0,0-1.687-2.305L6.142,385.91a2.024,2.024,0,0,0-2.313,1.681L2.807,394.1l-2-.312a1.752,1.752,0,0,0-2,1.456l-1.629,10.364a1.75,1.75,0,0,0,1.462,2l2,.312-14.778,94.036a58.593,58.593,0,0,0-45.246,48.058L-87.658,729.936,28.319,748.044,56.591,568.122A58.457,58.457,0,0,0,28.253,508.573Z"
                          transform="translate(87.658 -385.885)"/>
                    <rect id="Rectangle_288" data-name="Rectangle 288" class="cls-11" width="114.328" height="104.169"
                          transform="translate(14.185 298.791) rotate(-81.043)"/>
                </g>
                <g id="Group_417" data-name="Group 417" transform="translate(229.2 186.261)">
                    <path id="Path_542" data-name="Path 542" class="cls-12"
                          d="M-57.952,445.8c11.038,10.506,40.518,20.806,54.2,23.028,7.913,1.285,14.944.154,19.89.123a14.324,14.324,0,0,1,1.673-1.719,18.749,18.749,0,0,1,1.746-2.376c-4.649-1.216-13.465,1.2-23.721-.466-13.68-2.222-43.159-12.522-54.195-23.028-5.761-5.483-10.765-5.152-14.586-1.886a34.5,34.5,0,0,0-4.239,22.3,34.842,34.842,0,0,1,4.649-17.858C-68.717,440.648-63.711,440.317-57.952,445.8Z"
                          transform="translate(234.557 -190.915)"/>
                    <path id="Path_543" data-name="Path 543" class="cls-13"
                          d="M-75.833,575.686C-117.09,452.21-36.26,412.061-7.7,402.361A5.834,5.834,0,0,0-11.689,401c-4.288.395-126.3,29.869-77.5,175.918C-46.795,682.67,31.358,690.715,58.3,685.337,24.443,685.579-39.106,667.293-75.833,575.686Z"
                          transform="translate(100.693 -400.334)"/>
                    <path id="Path_544" data-name="Path 544" class="cls-13"
                          d="M13.023,487.092c-3.582-4.456-8.541-10.582-17.162-12.735-14.556-3.632-40.724-8.683-60.4-5.627-12.522,1.943-12.594-20.091-5.624-31.269-10.021,8.564-11.873,37.387,2.368,35.174,19.676-3.055,45.844,2,60.4,5.629C5.6,481.506,10.289,493.8,14.459,495.757A33.569,33.569,0,0,1,13.023,487.092Z"
                          transform="translate(231.771 -188.899)"/>
                    <path id="Path_545" data-name="Path 545" class="cls-14"
                          d="M-87.226,574.509C-50.5,666.116,13.05,684.4,46.905,684.16c3.852-.771,6.659-1.814,8.162-2.886,8.3-3.75,11.976-16.487,11.985-17.849.066-10.971.875-26.72-25.418-40.767-19.6-10.469-93.6-55.345-74.868-148.953,12.2-44.231,22.5-62.751,20.242-65.528-1.508-1.858-3.6-5.138-6.1-6.993C-47.653,410.884-128.483,451.033-87.226,574.509Z"
                          transform="translate(112.087 -399.157)"/>
                    <path id="Path_546" data-name="Path 546" class="cls-12"
                          d="M-63.565,443.568a9.413,9.413,0,0,1,3.147-1.859,5.851,5.851,0,0,0-1.363-.515A18.966,18.966,0,0,0-63.565,443.568Z"
                          transform="translate(315.892 -167.254)"/>
                    <path id="Path_547" data-name="Path 547" class="cls-14"
                          d="M-67.672,466.961c19.675-3.056,45.844,1.994,60.4,5.627,8.621,2.152,13.58,8.279,17.162,12.735-.3-8.153,2.21-15.762,5.86-20.156-4.947.032-11.939,1.162-19.852-.123-13.678-2.222-43.158-12.522-54.2-23.028-5.76-5.484-10.765-5.153-14.586-1.885a34.834,34.834,0,0,0-4.649,17.858C-76.486,463.755-73.371,467.844-67.672,466.961Z"
                          transform="translate(234.905 -187.13)"/>
                    <path id="Path_548" data-name="Path 548" class="cls-15"
                          d="M-45.2,401.826c-8.26,11.372-57.011,50.733-48.285,126.866C-82.17,627.377,7.717,650.4,17.878,653.143c17.4,4.7,36.38-9.288-1.309-31.793-39.547-23.615-72.627-53.438-78.433-109.432-4.686-45.162,20.586-94.293,24.2-102.889C-36.389,405.988-37.327,400.6-45.2,401.826Z"
                          transform="translate(136.466 -396.459)"/>
                    <path id="Path_549" data-name="Path 549" class="cls-16"
                          d="M-78.716,413.12c1.68.475,2.865-2.819,2.68-4.032s-3.928-5.866-6.182-7.157-3.843-1.38-5.128-.3c-1.231,1.031,1.1,5.126,1.444,6.242C-84.983,410.858-79.93,412.776-78.716,413.12Z"
                          transform="translate(175.989 -400.885)"/>
                    <path id="Path_550" data-name="Path 550" class="cls-16"
                          d="M-63.2,473.672a2.391,2.391,0,0,0,1.5.252c4.653-.926,11.622-24.447,9.567-30.476a3.8,3.8,0,0,0-1.821-2.178C-61.394,443.7-67.627,459.337-63.2,473.672Z"
                          transform="translate(309.432 -166.815)"/>
                </g>
                <g id="Group_427" data-name="Group 427" transform="translate(430.97 198.541)">
                    <g id="Group_426" data-name="Group 426" transform="translate(25.371)">
                        <g id="Group_418" data-name="Group 418" transform="translate(13.83 5.866)">
                            <path id="Path_551" data-name="Path 551" class="cls-17"
                                  d="M-53.869,482.9c2.708-28.459,1.717-49.987-11.367-75.806l7.024-3.536c13.941,27.509,15.023,50.2,12.178,80.084Z"
                                  transform="translate(65.236 -403.555)"/>
                        </g>
                        <g id="Group_419" data-name="Group 419" transform="translate(0 16.712)">
                            <path id="Path_552" data-name="Path 552" class="cls-17"
                                  d="M-42.221,482.375c-2.544-28.475-7.461-49.461-25.05-72.468l6.26-4.755c18.742,24.513,23.957,46.622,26.63,76.526Z"
                                  transform="translate(67.271 -405.151)"/>
                        </g>
                        <g id="Group_420" data-name="Group 420" transform="translate(27.197)">
                            <path id="Path_553" data-name="Path 553" class="cls-17"
                                  d="M-53.419,483.655l-7.691-1.673c6.115-27.931,7.722-49.422-2.159-76.618l7.4-2.672C-45.34,431.671-47,454.323-53.419,483.655Z"
                                  transform="translate(63.269 -402.692)"/>
                        </g>
                        <g id="Group_421" data-name="Group 421" transform="translate(30.391 1.529)">
                            <path id="Path_554" data-name="Path 554" class="cls-17"
                                  d="M-55.479,483.225l-7.32-2.882c10.528-26.591,15.572-47.547,10.192-75.972l7.735-1.455C-39.14,433.2-44.421,455.3-55.479,483.225Z"
                                  transform="translate(62.799 -402.917)"/>
                        </g>
                        <g id="Group_422" data-name="Group 422" transform="translate(37.068 18.555)">
                            <path id="Path_555" data-name="Path 555" class="cls-17"
                                  d="M-54.628,472.39l-7.188-3.195c12.265-27.422,24.392-46.648,50.1-63.773l4.373,6.523C-31.469,428.018-42.949,446.279-54.628,472.39Z"
                                  transform="translate(61.816 -405.422)"/>
                        </g>
                        <g id="Group_423" data-name="Group 423" transform="translate(39.58 30.018)">
                            <path id="Path_556" data-name="Path 556" class="cls-17"
                                  d="M-54.324,473.19l-7.123-3.34c12.821-27.166,25.339-46.142,51.391-62.742l4.24,6.61C-30.265,429.3-42.116,447.322-54.324,473.19Z"
                                  transform="translate(61.447 -407.109)"/>
                        </g>
                        <g id="Group_424" data-name="Group 424" transform="translate(39.417 9.651)">
                            <path id="Path_557" data-name="Path 557" class="cls-17"
                                  d="M-53.684,480.146l-7.787-1.138c4.373-29.705,10.84-51.482,30.948-74.9l5.979,5.1C-43.415,431.188-49.518,451.862-53.684,480.146Z"
                                  transform="translate(61.47 -404.112)"/>
                        </g>
                        <g id="Group_425" data-name="Group 425" transform="translate(40.279 3.109)">
                            <path id="Path_558" data-name="Path 558" class="cls-17"
                                  d="M-61.3,482.022C-61.76,452-58.881,429.473-42.8,403.15l6.723,4.081c-15.094,24.7-17.793,46.086-17.356,74.672Z"
                                  transform="translate(61.344 -403.15)"/>
                        </g>
                    </g>
                    <path id="Path_559" data-name="Path 559" class="cls-18"
                          d="M-57.975,711c-26.558-4.824-5.98-186.19,4.461-266.459a36.128,36.128,0,0,1,42.331-30.81l15.17,2.757A36.035,36.035,0,0,1,32.8,459.744C15.274,538.482-27.8,716.484-57.975,711Z"
                          transform="translate(71.004 -342.136)"/>
                    <path id="Path_560" data-name="Path 560" class="cls-19"
                          d="M-67.455,419.014l.625-.1c.405-.055,1-.158,1.762-.245s1.687-.2,2.734-.346,2.224-.31,3.516-.447,2.726-.255,4.231-.369c1.51-.052,3.11-.074,4.765-.082.83-.033,1.666.057,2.512.107s1.708.113,2.572.187,1.743.114,2.61.234l2.6.4c1.733.287,3.464.567,5.164.882,1.677.386,3.321.8,4.907,1.207s3.114.824,4.559,1.229c1.433.439,2.768.922,4,1.353,2.466.886,4.5,1.677,5.914,2.262.71.281,1.258.534,1.635.694l.574.259-.631-.054c-.408-.045-1.013-.09-1.77-.19-1.522-.176-3.679-.473-6.244-.894l-4.126-.723c-1.467-.218-3.01-.459-4.6-.733s-3.23-.563-4.888-.891c-1.671-.224-3.359-.49-5.049-.751l-2.527-.421c-.842-.12-1.679-.2-2.513-.306-1.664-.173-3.3-.46-4.89-.591s-3.13-.273-4.6-.409c-1.473-.08-2.868-.172-4.161-.271s-2.514-.184-3.573-.276c-1.064-.065-1.979-.231-2.737-.331s-1.351-.212-1.757-.275Z"
                          transform="translate(91.572 -317.338)"/>
                    <path id="Path_561" data-name="Path 561" class="cls-19"
                          d="M-65.321,421.682l.631-.019c.409,0,1.015-.026,1.779-.014s1.7.022,2.755.009,2.246-.021,3.547.01,2.737.1,4.243.181c1.505.143,3.093.328,4.735.536.829.075,1.645.271,2.478.429s1.677.334,2.526.517,1.713.338,2.557.57l2.525.731c1.68.508,3.363,1.011,5.006,1.541,1.611.6,3.188,1.221,4.707,1.83s2.981,1.219,4.361,1.808c1.364.62,2.625,1.272,3.8,1.859,2.33,1.2,4.244,2.243,5.569,3.006.667.37,1.179.693,1.532.9l.536.33-.62-.135c-.4-.1-.992-.22-1.732-.417-1.486-.372-3.586-.945-6.074-1.693l-4-1.249c-1.429-.405-2.926-.844-4.468-1.32s-3.128-.975-4.728-1.513c-1.63-.439-3.268-.921-4.91-1.4l-2.451-.744c-.82-.227-1.639-.418-2.452-.627-1.629-.387-3.211-.883-4.771-1.217s-3.069-.675-4.506-1c-1.45-.268-2.822-.541-4.09-.806s-2.47-.506-3.509-.735c-1.046-.2-1.931-.484-2.669-.68s-1.313-.386-1.706-.5Z"
                          transform="translate(103.939 -292.842)"/>
                    <path id="Path_562" data-name="Path 562" class="cls-19"
                          d="M-68.81,429.612l.613-.15c.4-.087.987-.238,1.736-.387s1.666-.333,2.7-.565,2.19-.49,3.469-.73,2.7-.475,4.186-.71c1.5-.173,3.094-.325,4.744-.466.825-.1,1.663-.078,2.514-.1s1.709-.024,2.578-.021,1.746-.028,2.619.023l2.623.188c1.749.146,3.5.286,5.217.461,1.7.249,3.375.53,4.99.807s3.17.569,4.643.857c1.465.322,2.835.7,4.1,1.026,2.531.683,4.623,1.307,6.08,1.776.73.224,1.3.432,1.685.56l.595.212-.634,0c-.41-.013-1.018-.009-1.781-.046-1.53-.054-3.7-.175-6.3-.388l-4.171-.388c-1.479-.1-3.036-.215-4.644-.359s-3.264-.3-4.943-.492c-1.684-.088-3.388-.219-5.094-.341l-2.553-.217c-.849-.05-1.691-.066-2.529-.1-1.675-.039-3.327-.192-4.923-.194s-3.142-.019-4.614-.036c-1.475.04-2.875.06-4.171.066s-2.521.02-3.584.014c-1.066.02-1.991-.071-2.754-.108s-1.366-.1-1.773-.133Z"
                          transform="translate(83.718 -264.796)"/>
                    <path id="Path_563" data-name="Path 563" class="cls-19"
                          d="M-67.722,433l.626-.076c.409-.039,1.011-.118,1.772-.175s1.692-.132,2.743-.239,2.235-.224,3.533-.31,2.735-.148,4.243-.2c1.511.007,3.11.047,4.765.1.832,0,1.662.122,2.506.205s1.7.18,2.564.286,1.736.181,2.6.335l2.58.5c1.721.354,3.442.7,5.124,1.081,1.662.45,3.288.928,4.857,1.4s3.08.944,4.507,1.405c1.416.494,2.731,1.029,3.949,1.507,2.43.98,4.432,1.85,5.821,2.49.7.309,1.236.583,1.607.756l.563.281-.629-.079c-.406-.061-1.009-.13-1.763-.259-1.513-.236-3.658-.616-6.2-1.136l-4.093-.883c-1.459-.275-2.992-.575-4.568-.91s-3.2-.687-4.85-1.079c-1.662-.289-3.336-.621-5.016-.947l-2.509-.519c-.837-.152-1.67-.269-2.5-.4-1.656-.238-3.278-.588-4.863-.779s-3.118-.394-4.578-.588c-1.469-.137-2.86-.283-4.148-.432s-2.505-.281-3.56-.415c-1.06-.105-1.967-.306-2.72-.435s-1.343-.265-1.746-.343Z"
                          transform="translate(90.028 -232.876)"/>
                    <path id="Path_564" data-name="Path 564" class="cls-19"
                          d="M-69.707,438.875l.627-.076c.409-.039,1.009-.118,1.771-.176s1.692-.131,2.744-.239,2.235-.224,3.533-.31,2.735-.149,4.243-.2c1.51.007,3.108.047,4.764.1.832,0,1.662.122,2.508.2s1.7.18,2.564.287,1.735.181,2.6.335l2.582.5c1.719.354,3.44.7,5.124,1.081,1.662.45,3.286.928,4.857,1.4s3.08.943,4.506,1.405c1.416.495,2.733,1.029,3.948,1.508,2.43.98,4.432,1.85,5.823,2.489.7.309,1.236.584,1.607.757l.563.281-.629-.079c-.406-.061-1.009-.13-1.763-.258-1.511-.236-3.656-.617-6.2-1.136l-4.093-.883c-1.459-.275-2.99-.575-4.568-.91s-3.2-.687-4.85-1.078c-1.66-.289-3.336-.622-5.015-.947l-2.51-.519c-.835-.152-1.67-.268-2.5-.4-1.658-.238-3.28-.588-4.864-.779s-3.118-.394-4.578-.588c-1.468-.137-2.86-.283-4.147-.432s-2.505-.281-3.561-.414c-1.06-.107-1.967-.308-2.72-.436s-1.342-.266-1.745-.343Z"
                          transform="translate(78.522 -198.804)"/>
                </g>
                <g id="Group_430" data-name="Group 430" transform="translate(38.924 0)">
                    <path id="Path_568" data-name="Path 568" class="cls-20"
                          d="M-107.389,791.717c-15.5-117.88-50.4-426.116,27.679-418.085,28.788,2.961,68.177,39.655,69.266,106.376C3.435,503.818,9.79,525.92,7.41,554.487,19.445,583.612,25.982,606.763,21.7,641.2c15.648,33.091,12.876,53.424,8.88,76.892C42.5,748.8,42.789,779.366,36.691,802.445q.347,7.5.579,14.39C41.681,946.919-74.1,1044.894-107.389,791.717Z"
                          transform="translate(128.692 -373.478)"/>
                    <path id="Path_569" data-name="Path 569" class="cls-21"
                          d="M-121.542,394.686s.958-.642,2.676-1.548c.867-.451,1.89-1,3.138-1.521s2.671-1.081,4.249-1.645c1.578-.515,3.307-1.015,5.153-1.5,1.863-.415,3.837-.845,5.919-1.129a57.172,57.172,0,0,1,6.489-.557,62.311,62.311,0,0,1,6.808.148,55.342,55.342,0,0,1,6.824,1.072l1.666.379c.55.135,1.092.326,1.632.484,1.073.356,2.138.653,3.153,1.077s2,.853,2.957,1.291,1.84.988,2.7,1.483c.427.259.853.495,1.257.759.4.281.792.544,1.164.828.743.569,1.483,1.065,2.126,1.633.631.59,1.237,1.136,1.786,1.68l.792.794c.238.278.47.546.683.816.427.538.833,1.021,1.18,1.5l.5.669c.147.226.275.451.4.659a24.642,24.642,0,0,1,1.423,2.671s-1.157-.346-2.927-1.038c-.222-.086-.459-.172-.695-.272l-.786-.256c-.549-.17-1.11-.381-1.717-.586-.3-.1-.606-.217-.917-.334l-1-.289c-.682-.195-1.371-.426-2.09-.647s-1.5-.391-2.269-.6c-.392-.094-.774-.215-1.166-.326s-.816-.173-1.229-.262c-.834-.161-1.649-.39-2.512-.555-.873-.143-1.749-.308-2.631-.486s-1.817-.264-2.73-.42-1.854-.27-2.805-.379c-1.877-.284-3.842-.4-5.782-.634-1.976-.109-3.933-.341-5.914-.417-1.963-.16-3.929-.224-5.842-.364s-3.79-.188-5.583-.36c-1.795-.086-3.513-.227-5.111-.38-1.586-.117-3.06-.264-4.384-.43s-2.521-.281-3.493-.438C-120.4,394.972-121.542,394.686-121.542,394.686Z"
                          transform="translate(170.132 -296.61)"/>
                    <path id="Path_570" data-name="Path 570" class="cls-21"
                          d="M-119.014,405.555s.958-.642,2.677-1.548c.866-.451,1.889-1,3.138-1.52s2.671-1.082,4.25-1.646c1.578-.515,3.306-1.015,5.152-1.5,1.865-.415,3.838-.844,5.92-1.129a57.006,57.006,0,0,1,6.489-.557,62.314,62.314,0,0,1,6.808.147,55.346,55.346,0,0,1,6.825,1.071l1.665.379c.549.134,1.092.326,1.632.484,1.074.356,2.138.652,3.153,1.077s2,.852,2.958,1.29,1.839.988,2.7,1.484c.427.258.854.495,1.259.76s.792.544,1.164.827c.743.57,1.482,1.065,2.126,1.633.631.591,1.236,1.137,1.785,1.68l.793.793c.238.278.47.547.683.817.427.538.833,1.022,1.18,1.5.173.233.338.456.5.67s.275.451.4.659a24.643,24.643,0,0,1,1.423,2.671s-1.157-.346-2.927-1.038c-.222-.086-.458-.172-.694-.272l-.786-.257c-.55-.17-1.111-.381-1.717-.586-.3-.1-.606-.216-.916-.333l-1-.289c-.681-.195-1.369-.425-2.088-.646s-1.5-.392-2.27-.6c-.392-.094-.774-.216-1.166-.326s-.817-.173-1.229-.262c-.835-.162-1.65-.389-2.512-.556-.873-.143-1.75-.308-2.631-.486s-1.817-.264-2.73-.42-1.855-.271-2.8-.379c-1.878-.284-3.843-.4-5.783-.633-1.976-.11-3.932-.341-5.913-.419-1.963-.16-3.928-.224-5.842-.364s-3.791-.187-5.584-.36c-1.795-.086-3.512-.227-5.11-.379-1.585-.118-3.06-.264-4.383-.43s-2.521-.281-3.493-.439C-117.874,405.841-119.014,405.555-119.014,405.555Z"
                          transform="translate(184.783 -233.613)"/>
                    <path id="Path_571" data-name="Path 571" class="cls-21"
                          d="M-116.969,418.034s.958-.642,2.678-1.548c.867-.451,1.889-1,3.138-1.521s2.671-1.081,4.249-1.645c1.578-.515,3.307-1.016,5.153-1.5,1.864-.415,3.838-.844,5.919-1.128a57.18,57.18,0,0,1,6.489-.557,62.524,62.524,0,0,1,6.808.147,55.637,55.637,0,0,1,6.824,1.071l1.666.379c.55.135,1.091.326,1.632.484,1.073.356,2.139.653,3.153,1.078s2,.852,2.958,1.29,1.838.988,2.7,1.483c.427.258.854.5,1.259.76.4.28.791.544,1.163.828.743.57,1.483,1.065,2.126,1.634.63.591,1.236,1.136,1.785,1.68l.792.793c.239.278.47.547.683.817.427.538.833,1.021,1.179,1.5l.5.67c.147.225.275.451.4.659a24.539,24.539,0,0,1,1.423,2.671s-1.156-.346-2.926-1.038c-.222-.086-.459-.171-.694-.272l-.786-.257c-.549-.17-1.111-.381-1.717-.586-.3-.1-.606-.216-.917-.333l-1-.289c-.682-.2-1.37-.426-2.089-.646s-1.5-.392-2.27-.6c-.391-.094-.773-.215-1.165-.326s-.816-.173-1.229-.262c-.835-.161-1.649-.389-2.512-.555-.873-.143-1.75-.308-2.631-.486s-1.817-.264-2.729-.422-1.855-.271-2.806-.378c-1.876-.284-3.842-.4-5.782-.634-1.977-.109-3.933-.341-5.915-.418-1.963-.16-3.928-.225-5.842-.364s-3.79-.187-5.583-.361c-1.795-.086-3.513-.227-5.11-.379-1.585-.119-3.06-.264-4.385-.43s-2.52-.281-3.493-.438C-115.829,418.319-116.969,418.034-116.969,418.034Z"
                          transform="translate(196.635 -161.292)"/>
                    <path id="Path_572" data-name="Path 572" class="cls-21"
                          d="M-115.582,429.794s.958-.642,2.676-1.548c.868-.451,1.89-1,3.138-1.521s2.671-1.082,4.25-1.646c1.578-.515,3.306-1.015,5.152-1.5,1.865-.415,3.838-.845,5.92-1.129a57.027,57.027,0,0,1,6.489-.556,62.382,62.382,0,0,1,6.808.147,55.415,55.415,0,0,1,6.823,1.071l1.666.379c.55.135,1.092.326,1.631.485,1.074.356,2.139.652,3.155,1.076s2,.853,2.957,1.29,1.839.988,2.7,1.484c.427.258.854.494,1.258.759s.792.544,1.163.828c.743.571,1.484,1.065,2.126,1.634.631.589,1.237,1.136,1.785,1.679l.792.794c.239.277.471.546.684.816.427.538.833,1.022,1.178,1.5l.5.67c.146.226.275.451.4.659a24.48,24.48,0,0,1,1.422,2.67s-1.155-.345-2.927-1.037c-.221-.087-.457-.172-.693-.273l-.786-.256c-.55-.17-1.11-.382-1.717-.587-.3-.1-.608-.216-.917-.333l-1-.289c-.682-.195-1.37-.426-2.089-.646s-1.5-.392-2.271-.6c-.391-.094-.773-.215-1.165-.326s-.817-.173-1.229-.262c-.835-.162-1.651-.39-2.512-.555-.873-.143-1.75-.307-2.631-.486s-1.817-.264-2.729-.42-1.855-.271-2.805-.378c-1.877-.284-3.843-.4-5.782-.634-1.978-.109-3.933-.341-5.914-.419-1.963-.16-3.93-.224-5.842-.364s-3.79-.188-5.584-.361c-1.794-.086-3.511-.227-5.109-.38-1.585-.117-3.06-.264-4.384-.43s-2.521-.281-3.495-.438C-114.441,430.079-115.582,429.794-115.582,429.794Z"
                          transform="translate(204.677 -93.124)"/>
                    <path id="Path_573" data-name="Path 573" class="cls-21"
                          d="M-114.5,442.822s.958-.642,2.677-1.548c.867-.451,1.889-1,3.138-1.52s2.671-1.082,4.25-1.646c1.579-.515,3.306-1.015,5.153-1.5,1.863-.416,3.837-.845,5.919-1.129a56.919,56.919,0,0,1,6.489-.557,62.379,62.379,0,0,1,6.808.147,55.18,55.18,0,0,1,6.824,1.072l1.666.378c.55.134,1.092.326,1.632.484,1.073.357,2.139.653,3.153,1.077s2,.852,2.958,1.291,1.838.988,2.7,1.484c.427.258.854.495,1.258.759.4.28.792.544,1.165.827.743.57,1.482,1.065,2.126,1.634.631.59,1.236,1.136,1.785,1.679l.792.793c.241.278.47.547.684.817.427.538.834,1.021,1.179,1.494q.26.35.5.67c.146.225.275.452.4.66a24.705,24.705,0,0,1,1.422,2.671s-1.156-.346-2.926-1.038c-.222-.086-.459-.171-.695-.272l-.786-.257c-.549-.169-1.11-.382-1.717-.586-.3-.1-.606-.217-.917-.334l-1-.288c-.682-.2-1.369-.426-2.09-.647s-1.5-.392-2.269-.6c-.392-.094-.773-.215-1.166-.327s-.817-.172-1.229-.262c-.835-.161-1.65-.39-2.512-.555-.873-.143-1.749-.308-2.63-.487s-1.817-.264-2.731-.421-1.853-.27-2.8-.378c-1.877-.284-3.843-.4-5.783-.634-1.976-.11-3.933-.341-5.913-.417-1.963-.161-3.929-.225-5.842-.365s-3.79-.187-5.583-.36c-1.8-.086-3.514-.227-5.111-.379-1.585-.118-3.059-.264-4.384-.43s-2.521-.28-3.493-.438C-113.355,443.107-114.5,442.822-114.5,442.822Z"
                          transform="translate(210.971 -17.61)"/>
                </g>
                <g id="Group_443" data-name="Group 443" transform="translate(178.898 406.535)">
                    <path id="Path_574" data-name="Path 574" class="cls-22"
                          d="M-76.152,540.308c-24.424-27.02-7.3-28.79-22.69-43.842-14.077-13.775-13.7-58.251,12.388-57.889,18.931.263,15.924,14.416,26.757,2.741s22.727-10.161,32.329,3.691c5.253,7.577-36.1,68.642-36.1,68.642Z"
                          transform="translate(108.095 -432.176)"/>
                    <path id="Path_575" data-name="Path 575" class="cls-22"
                          d="M-73.043,437.407c13.276.241,32.773,14.955,27.429,28.778,7.115,8.078,12.985,10.045,7.407,23.2,5.644,10.986,6.495,16.246-4.958,22.967S-87.553,443.862-86.8,444.167-73.043,437.407-73.043,437.407Z"
                          transform="translate(231.423 -409.479)"/>
                    <path id="Path_576" data-name="Path 576" class="cls-23"
                          d="M45.78,563.737c-25.038,32.966-75.87,36.651-113.538,8.226s-47.9-78.192-22.861-111.161,75.87-36.65,113.536-8.225S70.818,530.769,45.78,563.737Z"
                          transform="translate(129.958 -432.406)"/>
                    <path id="Path_577" data-name="Path 577" class="cls-24"
                          d="M-78.321,435.362C-61.1,466.037-43.1,459.742-30.98,454.454c-7.5,10.237,3.868,30.8,23.69,23.445,1.968,15.183,2.65,18.448,11.777,24.846-18.518-2.067-22.93,3.732-16.65,21.924,6.761,19.595-45.81,6.034-45.81,6.034l-29.579-26.6-10.136-43.241Z"
                          transform="translate(168.417 -421.331)"/>
                    <path id="Path_578" data-name="Path 578" class="cls-25"
                          d="M-37.786,433.622c17.873,15.241,15.252,21.115,6.163,33.08,18.787,9.028,32.111,26.823,11.1,45.867s-43.966,55.711-63.343,41.977-34.888-62.128-.9-97.023C-67.526,437.883-44.448,431.733-37.786,433.622Z"
                          transform="translate(127.278 -433.298)"/>
                    <path id="Path_579" data-name="Path 579" class="cls-22"
                          d="M-101.84,490.5c17.127-37.354,48.522-48.15,73.359-37.48,12.638-16.637,48.8-9.894,48.277,18.577,17.768-.778,19.475-.44,27.52,5.126s-28.187,59.218-80.95,52.531S-101.84,490.5-101.84,490.5Z"
                          transform="translate(144.35 -370.867)"/>
                    <g id="Group_432" data-name="Group 432" transform="translate(94.425 105.498)">
                        <g id="Group_431" data-name="Group 431">
                            <path id="Path_580" data-name="Path 580" class="cls-26"
                                  d="M-94.2,498.608l.85-.259c.552-.162,1.38-.39,2.389-.725,1.015-.3,2.226-.759,3.614-1.248l2.178-.855,2.375-1.018c1.633-.754,3.388-1.578,5.187-2.559,1.816-.941,3.656-2.069,5.547-3.232,1.863-1.214,3.762-2.5,5.618-3.9,1.842-1.42,3.7-2.875,5.441-4.473,1.764-1.564,3.458-3.207,5.039-4.9.809-.833,1.542-1.716,2.309-2.556.716-.879,1.454-1.729,2.12-2.608,1.373-1.731,2.578-3.494,3.678-5.2.533-.861,1.064-1.7,1.519-2.537.234-.417.478-.822.692-1.231s.417-.815.618-1.211c.813-1.585,1.458-3.091,2-4.447.515-1.362.97-2.569,1.258-3.587.324-1.013.532-1.825.674-2.382l.234-.856s.012.308.035.884a21.963,21.963,0,0,1-.02,2.515,31.994,31.994,0,0,1-.425,3.911,38.051,38.051,0,0,1-1.225,4.983l-.455,1.373c-.162.464-.355.924-.537,1.4-.353.96-.813,1.9-1.263,2.894a48.988,48.988,0,0,1-3.387,5.918,51.451,51.451,0,0,1-4.433,5.791,59.18,59.18,0,0,1-5.291,5.349,62.981,62.981,0,0,1-5.9,4.656l-1.53,1.042c-.513.338-1.041.648-1.555.97-1.023.654-2.084,1.219-3.113,1.794a59.447,59.447,0,0,1-6.167,2.844,56.2,56.2,0,0,1-5.76,1.915c-.914.224-1.786.442-2.619.626l-2.384.44c-.756.1-1.458.2-2.111.271s-1.263.1-1.8.146c-1.085.1-1.93.059-2.509.074Z"
                                  transform="translate(94.201 -448.821)"/>
                        </g>
                    </g>
                    <g id="Group_434" data-name="Group 434" transform="translate(118.348 106.106)">
                        <g id="Group_433" data-name="Group 433">
                            <path id="Path_581" data-name="Path 581" class="cls-26"
                                  d="M-43.14,465.155q-1.728.892-3.471,1.748c-.574.3-1.193.507-1.789.765l-1.808.741c-.606.236-1.208.5-1.824.7l-1.84.64c-1.228.422-2.455.858-3.7,1.225l-3.728,1.131-3.755,1.035c-1.251.347-2.516.639-3.774.961s-2.522.611-3.8.9l-.437.1-.258-.369-4.449-6.379c-1.462-2.141-2.945-4.268-4.387-6.423s-2.89-4.306-4.317-6.471c-1.4-2.184-2.841-4.341-4.208-6.549,1.618,2.032,3.165,4.114,4.748,6.17q2.336,3.112,4.638,6.248c1.545,2.084,3.047,4.2,4.57,6.3l4.506,6.339-.694-.27c2.516-.549,5.032-1.16,7.54-1.777l3.761-.94,3.744-1c.625-.164,1.25-.325,1.868-.515l1.859-.542,1.863-.534c.627-.164,1.223-.4,1.839-.588l1.84-.592c.61-.211,1.24-.368,1.837-.623Q-44.958,465.849-43.14,465.155Z"
                                  transform="translate(90.681 -448.911)"/>
                        </g>
                    </g>
                    <g id="Group_436" data-name="Group 436" transform="translate(95.274 118.717)">
                        <g id="Group_435" data-name="Group 435">
                            <path id="Path_582" data-name="Path 582" class="cls-26"
                                  d="M-40.284,477.6l-1.74.845c-.6.234-1.225.423-1.842.638s-1.257.324-1.886.492-1.27.275-1.91.384-1.281.235-1.928.289l-1.938.209-1.943.13c-.648.05-1.3.046-1.946.067s-1.3.035-1.946.025l-1.946-.014c-1.3-.041-2.593-.093-3.886-.177-.648-.032-1.293-.092-1.94-.137s-1.292-.112-1.938-.175c-1.292-.135-2.573-.279-3.871-.468l-.246-.036-.166-.2c-1.953-2.344-3.869-4.718-5.8-7.081l-2.873-3.562-2.86-3.573q-2.844-3.586-5.652-7.2l-2.781-3.637q-1.395-1.815-2.756-3.657,1.545,1.692,3.052,3.416L-88,457.618q3.005,3.455,5.965,6.945l2.949,3.5,2.935,3.512c1.942,2.352,3.9,4.694,5.817,7.065l-.411-.234c1.253.192,2.534.347,3.806.489s2.551.275,3.829.38,2.558.192,3.84.26l1.921.085c.641.034,1.281.041,1.922.046s1.283.03,1.922,0l1.923-.03,1.918-.108c.642-.024,1.275-.109,1.913-.169s1.278-.12,1.9-.244,1.274-.185,1.888-.352,1.238-.312,1.856-.491Z"
                                  transform="translate(94.076 -450.766)"/>
                        </g>
                    </g>
                    <g id="Group_438" data-name="Group 438" transform="translate(25.311 35.571)">
                        <g id="Group_437" data-name="Group 437">
                            <path id="Path_583" data-name="Path 583" class="cls-26"
                                  d="M-103.929,497.505s-.041-.3-.118-.878c-.056-.574-.209-1.405-.239-2.491-.023-.54-.075-1.149-.08-1.8s0-1.361.005-2.122c.044-.757.091-1.563.14-2.413.08-.847.188-1.736.3-2.668a55.716,55.716,0,0,1,1.187-5.937,59.008,59.008,0,0,1,2.06-6.455c.443-1.088.873-2.209,1.4-3.3.257-.549.5-1.11.771-1.659s.563-1.094.846-1.644a62.8,62.8,0,0,1,3.9-6.418,59.039,59.039,0,0,1,4.665-5.9,51.619,51.619,0,0,1,5.211-5.107,49.177,49.177,0,0,1,5.467-4.088c.928-.568,1.813-1.141,2.722-1.611.451-.239.886-.486,1.327-.706l1.309-.621a38.386,38.386,0,0,1,4.808-1.834,32.137,32.137,0,0,1,3.839-.909,21.954,21.954,0,0,1,2.5-.334l.884-.076-.822.339c-.537.21-1.32.518-2.287.964-.978.412-2.122,1.013-3.414,1.691-1.282.708-2.7,1.534-4.176,2.536l-1.129.763c-.379.263-.752.556-1.138.839-.78.554-1.545,1.185-2.336,1.819-1.56,1.3-3.164,2.712-4.716,4.286-.792.767-1.547,1.6-2.332,2.421-.74.864-1.528,1.7-2.256,2.6-1.489,1.775-2.913,3.655-4.251,5.6-1.373,1.917-2.589,3.941-3.772,5.939-1.166,2.012-2.206,4.051-3.183,6.044-.923,2.015-1.816,3.975-2.525,5.889-.752,1.9-1.353,3.74-1.9,5.449l-.716,2.476-.58,2.262c-.313,1.433-.617,2.687-.79,3.73-.207,1.04-.33,1.886-.422,2.452S-103.929,497.505-103.929,497.505Z"
                                  transform="translate(104.371 -438.531)"/>
                        </g>
                    </g>
                    <g id="Group_440" data-name="Group 440" transform="translate(43.445 19.756)">
                        <g id="Group_439" data-name="Group 439">
                            <path id="Path_584" data-name="Path 584" class="cls-26"
                                  d="M-95.535,436.2l-.519,1.87-.457,1.878c-.157.623-.266,1.261-.4,1.89s-.251,1.263-.359,1.9-.246,1.264-.344,1.9l-.315,1.905c-.188,1.275-.4,2.543-.574,3.821-.354,2.551-.7,5.1-.99,7.664s-.6,5.122-.824,7.68l-.317-.632,6.984,4.328c2.315,1.465,4.643,2.908,6.943,4.394s4.607,2.965,6.9,4.465c2.275,1.529,4.576,3.017,6.829,4.58-2.414-1.3-4.783-2.681-7.176-4.018q-3.563-2.05-7.105-4.133c-2.368-1.38-4.708-2.8-7.062-4.2l-7.021-4.27L-101.7,467l.04-.414c.126-1.3.27-2.579.419-3.866s.3-2.571.485-3.852c.361-2.563.739-5.126,1.218-7.671.227-1.275.48-2.546.743-3.814l.425-1.9c.135-.633.3-1.26.457-1.889s.324-1.255.508-1.877.343-1.248.551-1.865l.608-1.848Z"
                                  transform="translate(101.702 -436.205)"/>
                        </g>
                    </g>
                    <g id="Group_442" data-name="Group 442" transform="translate(29.855 40.284)">
                        <g id="Group_441" data-name="Group 441">
                            <path id="Path_585" data-name="Path 585" class="cls-26"
                                  d="M-101.009,439.225c-.176.592-.338,1.191-.469,1.791s-.262,1.2-.36,1.81-.189,1.216-.269,1.825-.139,1.221-.19,1.834c-.221,2.448-.294,4.906-.313,7.363s.059,4.917.173,7.373c.13,2.452.281,4.917.521,7.348l-.377-.53c2.824,1.3,5.629,2.647,8.441,3.977l4.206,2.019,4.2,2.035q4.19,2.053,8.359,4.148l4.154,2.127q2.08,1.058,4.141,2.155-2.163-.883-4.3-1.81l-4.29-1.839q-4.278-1.866-8.532-3.784l-4.247-1.931-4.239-1.947c-2.819-1.314-5.645-2.613-8.451-3.955l-.343-.164-.033-.366c-.226-2.486-.368-4.954-.425-7.437s-.057-4.962.056-7.442q.074-1.86.251-3.716c.116-1.236.255-2.471.455-3.7.1-.614.208-1.225.329-1.834s.251-1.216.408-1.818.316-1.2.5-1.791S-101.243,439.8-101.009,439.225Z"
                                  transform="translate(103.702 -439.225)"/>
                        </g>
                    </g>
                </g>
                <g id="Group_1613" data-name="Group 1613" transform="translate(271.898 342.535)">
                    <path id="Path_574-2" data-name="Path 574" class="cls-22"
                          d="M-76.152,540.308c-24.424-27.02-7.3-28.79-22.69-43.842-14.077-13.775-13.7-58.251,12.388-57.889,18.931.263,15.924,14.416,26.757,2.741s22.727-10.161,32.329,3.691c5.253,7.577-36.1,68.642-36.1,68.642Z"
                          transform="translate(108.095 -432.176)"/>
                    <path id="Path_575-2" data-name="Path 575" class="cls-22"
                          d="M-73.043,437.407c13.276.241,32.773,14.955,27.429,28.778,7.115,8.078,12.985,10.045,7.407,23.2,5.644,10.986,6.495,16.246-4.958,22.967S-87.553,443.862-86.8,444.167-73.043,437.407-73.043,437.407Z"
                          transform="translate(231.423 -409.479)"/>
                    <path id="Path_576-2" data-name="Path 576" class="cls-23"
                          d="M45.78,563.737c-25.038,32.966-75.87,36.651-113.538,8.226s-47.9-78.192-22.861-111.161,75.87-36.65,113.536-8.225S70.818,530.769,45.78,563.737Z"
                          transform="translate(129.958 -432.406)"/>
                    <path id="Path_577-2" data-name="Path 577" class="cls-24"
                          d="M-78.321,435.362C-61.1,466.037-43.1,459.742-30.98,454.454c-7.5,10.237,3.868,30.8,23.69,23.445,1.968,15.183,2.65,18.448,11.777,24.846-18.518-2.067-22.93,3.732-16.65,21.924,6.761,19.595-45.81,6.034-45.81,6.034l-29.579-26.6-10.136-43.241Z"
                          transform="translate(168.417 -421.331)"/>
                    <path id="Path_578-2" data-name="Path 578" class="cls-25"
                          d="M-37.786,433.622c17.873,15.241,15.252,21.115,6.163,33.08,18.787,9.028,32.111,26.823,11.1,45.867s-43.966,55.711-63.343,41.977-34.888-62.128-.9-97.023C-67.526,437.883-44.448,431.733-37.786,433.622Z"
                          transform="translate(127.278 -433.298)"/>
                    <path id="Path_579-2" data-name="Path 579" class="cls-22"
                          d="M-101.84,490.5c17.127-37.354,48.522-48.15,73.359-37.48,12.638-16.637,48.8-9.894,48.277,18.577,17.768-.778,19.475-.44,27.52,5.126s-28.187,59.218-80.95,52.531S-101.84,490.5-101.84,490.5Z"
                          transform="translate(144.35 -370.867)"/>
                    <g id="Group_432-2" data-name="Group 432" transform="translate(94.425 105.498)">
                        <g id="Group_431-2" data-name="Group 431">
                            <path id="Path_580-2" data-name="Path 580" class="cls-26"
                                  d="M-94.2,498.608l.85-.259c.552-.162,1.38-.39,2.389-.725,1.015-.3,2.226-.759,3.614-1.248l2.178-.855,2.375-1.018c1.633-.754,3.388-1.578,5.187-2.559,1.816-.941,3.656-2.069,5.547-3.232,1.863-1.214,3.762-2.5,5.618-3.9,1.842-1.42,3.7-2.875,5.441-4.473,1.764-1.564,3.458-3.207,5.039-4.9.809-.833,1.542-1.716,2.309-2.556.716-.879,1.454-1.729,2.12-2.608,1.373-1.731,2.578-3.494,3.678-5.2.533-.861,1.064-1.7,1.519-2.537.234-.417.478-.822.692-1.231s.417-.815.618-1.211c.813-1.585,1.458-3.091,2-4.447.515-1.362.97-2.569,1.258-3.587.324-1.013.532-1.825.674-2.382l.234-.856s.012.308.035.884a21.963,21.963,0,0,1-.02,2.515,31.994,31.994,0,0,1-.425,3.911,38.051,38.051,0,0,1-1.225,4.983l-.455,1.373c-.162.464-.355.924-.537,1.4-.353.96-.813,1.9-1.263,2.894a48.988,48.988,0,0,1-3.387,5.918,51.451,51.451,0,0,1-4.433,5.791,59.18,59.18,0,0,1-5.291,5.349,62.981,62.981,0,0,1-5.9,4.656l-1.53,1.042c-.513.338-1.041.648-1.555.97-1.023.654-2.084,1.219-3.113,1.794a59.447,59.447,0,0,1-6.167,2.844,56.2,56.2,0,0,1-5.76,1.915c-.914.224-1.786.442-2.619.626l-2.384.44c-.756.1-1.458.2-2.111.271s-1.263.1-1.8.146c-1.085.1-1.93.059-2.509.074Z"
                                  transform="translate(94.201 -448.821)"/>
                        </g>
                    </g>
                    <g id="Group_434-2" data-name="Group 434" transform="translate(118.348 106.106)">
                        <g id="Group_433-2" data-name="Group 433">
                            <path id="Path_581-2" data-name="Path 581" class="cls-26"
                                  d="M-43.14,465.155q-1.728.892-3.471,1.748c-.574.3-1.193.507-1.789.765l-1.808.741c-.606.236-1.208.5-1.824.7l-1.84.64c-1.228.422-2.455.858-3.7,1.225l-3.728,1.131-3.755,1.035c-1.251.347-2.516.639-3.774.961s-2.522.611-3.8.9l-.437.1-.258-.369-4.449-6.379c-1.462-2.141-2.945-4.268-4.387-6.423s-2.89-4.306-4.317-6.471c-1.4-2.184-2.841-4.341-4.208-6.549,1.618,2.032,3.165,4.114,4.748,6.17q2.336,3.112,4.638,6.248c1.545,2.084,3.047,4.2,4.57,6.3l4.506,6.339-.694-.27c2.516-.549,5.032-1.16,7.54-1.777l3.761-.94,3.744-1c.625-.164,1.25-.325,1.868-.515l1.859-.542,1.863-.534c.627-.164,1.223-.4,1.839-.588l1.84-.592c.61-.211,1.24-.368,1.837-.623Q-44.958,465.849-43.14,465.155Z"
                                  transform="translate(90.681 -448.911)"/>
                        </g>
                    </g>
                    <g id="Group_436-2" data-name="Group 436" transform="translate(95.274 118.717)">
                        <g id="Group_435-2" data-name="Group 435">
                            <path id="Path_582-2" data-name="Path 582" class="cls-26"
                                  d="M-40.284,477.6l-1.74.845c-.6.234-1.225.423-1.842.638s-1.257.324-1.886.492-1.27.275-1.91.384-1.281.235-1.928.289l-1.938.209-1.943.13c-.648.05-1.3.046-1.946.067s-1.3.035-1.946.025l-1.946-.014c-1.3-.041-2.593-.093-3.886-.177-.648-.032-1.293-.092-1.94-.137s-1.292-.112-1.938-.175c-1.292-.135-2.573-.279-3.871-.468l-.246-.036-.166-.2c-1.953-2.344-3.869-4.718-5.8-7.081l-2.873-3.562-2.86-3.573q-2.844-3.586-5.652-7.2l-2.781-3.637q-1.395-1.815-2.756-3.657,1.545,1.692,3.052,3.416L-88,457.618q3.005,3.455,5.965,6.945l2.949,3.5,2.935,3.512c1.942,2.352,3.9,4.694,5.817,7.065l-.411-.234c1.253.192,2.534.347,3.806.489s2.551.275,3.829.38,2.558.192,3.84.26l1.921.085c.641.034,1.281.041,1.922.046s1.283.03,1.922,0l1.923-.03,1.918-.108c.642-.024,1.275-.109,1.913-.169s1.278-.12,1.9-.244,1.274-.185,1.888-.352,1.238-.312,1.856-.491Z"
                                  transform="translate(94.076 -450.766)"/>
                        </g>
                    </g>
                    <g id="Group_438-2" data-name="Group 438" transform="translate(25.311 35.571)">
                        <g id="Group_437-2" data-name="Group 437">
                            <path id="Path_583-2" data-name="Path 583" class="cls-26"
                                  d="M-103.929,497.505s-.041-.3-.118-.878c-.056-.574-.209-1.405-.239-2.491-.023-.54-.075-1.149-.08-1.8s0-1.361.005-2.122c.044-.757.091-1.563.14-2.413.08-.847.188-1.736.3-2.668a55.716,55.716,0,0,1,1.187-5.937,59.008,59.008,0,0,1,2.06-6.455c.443-1.088.873-2.209,1.4-3.3.257-.549.5-1.11.771-1.659s.563-1.094.846-1.644a62.8,62.8,0,0,1,3.9-6.418,59.039,59.039,0,0,1,4.665-5.9,51.619,51.619,0,0,1,5.211-5.107,49.177,49.177,0,0,1,5.467-4.088c.928-.568,1.813-1.141,2.722-1.611.451-.239.886-.486,1.327-.706l1.309-.621a38.386,38.386,0,0,1,4.808-1.834,32.137,32.137,0,0,1,3.839-.909,21.954,21.954,0,0,1,2.5-.334l.884-.076-.822.339c-.537.21-1.32.518-2.287.964-.978.412-2.122,1.013-3.414,1.691-1.282.708-2.7,1.534-4.176,2.536l-1.129.763c-.379.263-.752.556-1.138.839-.78.554-1.545,1.185-2.336,1.819-1.56,1.3-3.164,2.712-4.716,4.286-.792.767-1.547,1.6-2.332,2.421-.74.864-1.528,1.7-2.256,2.6-1.489,1.775-2.913,3.655-4.251,5.6-1.373,1.917-2.589,3.941-3.772,5.939-1.166,2.012-2.206,4.051-3.183,6.044-.923,2.015-1.816,3.975-2.525,5.889-.752,1.9-1.353,3.74-1.9,5.449l-.716,2.476-.58,2.262c-.313,1.433-.617,2.687-.79,3.73-.207,1.04-.33,1.886-.422,2.452S-103.929,497.505-103.929,497.505Z"
                                  transform="translate(104.371 -438.531)"/>
                        </g>
                    </g>
                    <g id="Group_440-2" data-name="Group 440" transform="translate(43.445 19.756)">
                        <g id="Group_439-2" data-name="Group 439">
                            <path id="Path_584-2" data-name="Path 584" class="cls-26"
                                  d="M-95.535,436.2l-.519,1.87-.457,1.878c-.157.623-.266,1.261-.4,1.89s-.251,1.263-.359,1.9-.246,1.264-.344,1.9l-.315,1.905c-.188,1.275-.4,2.543-.574,3.821-.354,2.551-.7,5.1-.99,7.664s-.6,5.122-.824,7.68l-.317-.632,6.984,4.328c2.315,1.465,4.643,2.908,6.943,4.394s4.607,2.965,6.9,4.465c2.275,1.529,4.576,3.017,6.829,4.58-2.414-1.3-4.783-2.681-7.176-4.018q-3.563-2.05-7.105-4.133c-2.368-1.38-4.708-2.8-7.062-4.2l-7.021-4.27L-101.7,467l.04-.414c.126-1.3.27-2.579.419-3.866s.3-2.571.485-3.852c.361-2.563.739-5.126,1.218-7.671.227-1.275.48-2.546.743-3.814l.425-1.9c.135-.633.3-1.26.457-1.889s.324-1.255.508-1.877.343-1.248.551-1.865l.608-1.848Z"
                                  transform="translate(101.702 -436.205)"/>
                        </g>
                    </g>
                    <g id="Group_442-2" data-name="Group 442" transform="translate(29.855 40.284)">
                        <g id="Group_441-2" data-name="Group 441">
                            <path id="Path_585-2" data-name="Path 585" class="cls-26"
                                  d="M-101.009,439.225c-.176.592-.338,1.191-.469,1.791s-.262,1.2-.36,1.81-.189,1.216-.269,1.825-.139,1.221-.19,1.834c-.221,2.448-.294,4.906-.313,7.363s.059,4.917.173,7.373c.13,2.452.281,4.917.521,7.348l-.377-.53c2.824,1.3,5.629,2.647,8.441,3.977l4.206,2.019,4.2,2.035q4.19,2.053,8.359,4.148l4.154,2.127q2.08,1.058,4.141,2.155-2.163-.883-4.3-1.81l-4.29-1.839q-4.278-1.866-8.532-3.784l-4.247-1.931-4.239-1.947c-2.819-1.314-5.645-2.613-8.451-3.955l-.343-.164-.033-.366c-.226-2.486-.368-4.954-.425-7.437s-.057-4.962.056-7.442q.074-1.86.251-3.716c.116-1.236.255-2.471.455-3.7.1-.614.208-1.225.329-1.834s.251-1.216.408-1.818.316-1.2.5-1.791S-101.243,439.8-101.009,439.225Z"
                                  transform="translate(103.702 -439.225)"/>
                        </g>
                    </g>
                </g>
                <path id="Path_586" data-name="Path 586" class="cls-27" d="M-134.419,394.136"
                      transform="translate(134.419 -253.739)"/>
            </g>
            <g id="Group_446" data-name="Group 446" transform="translate(211.071 337.201)">
                <path id="Path_587" data-name="Path 587" class="cls-28"
                      d="M-132.861,418.54-99.1,680.847c1.435,11.142,12.39,19.574,25.433,19.574H336.01c13.043,0,24-8.432,25.433-19.574L395.2,418.54ZM-68.18,674.36-88.4,492.278h44.628L-27.662,674.36Zm89.545,0L10.23,492.278H54.859L61.884,674.36Zm130.065,0H110.911l-2.054-182.082h44.628Zm89.546,0H200.457l7.026-182.082h44.628Zm89.546,0H290l16.106-182.082h44.629Z"
                      transform="translate(160.694 -255.251)"/>
                <path id="Path_588" data-name="Path 588" class="cls-29"
                      d="M-136.957,437.868v20.669c0,12.146,11.456,21.991,25.588,21.991H421.185c14.132,0,25.588-9.846,25.588-21.991V437.868c0-12.146-11.456-21.992-25.588-21.992H-111.369C-125.5,415.877-136.957,425.722-136.957,437.868Z"
                      transform="translate(136.957 -270.69)"/>
                <g id="Group_445" data-name="Group 445" transform="translate(162.226 0)">
                    <path id="Path_589" data-name="Path 589" class="cls-28"
                          d="M10.388,395.925c-5.858-2.907-13.349-1.183-16.732,3.853l-105.1,156.455c-3.382,5.035-1.375,11.474,4.483,14.38s13.349,1.183,16.732-3.852l105.1-156.455C18.254,405.271,16.246,398.832,10.388,395.925Z"
                          transform="translate(113.086 -394.513)"/>
                    <path id="Path_590" data-name="Path 590" class="cls-28"
                          d="M-87.878,395.925c5.858-2.907,13.349-1.183,16.732,3.853l105.1,156.455c3.382,5.035,1.375,11.474-4.484,14.38s-13.349,1.183-16.732-3.852l-105.1-156.455C-95.744,405.271-93.736,398.832-87.878,395.925Z"
                          transform="translate(223.681 -394.513)"/>
                </g>
            </g>
        </g>
    </g>
</svg>
