<svg xmlns="http://www.w3.org/2000/svg" xmlns:xlink="http://www.w3.org/1999/xlink" width="2813" height="1442" viewBox="0 0 2813 1442">
  <defs>
    <style>
      .cls-1 {
        clip-path: url(#clip-Step4);
      }

      .cls-white,.cls-19, .cls-2, .cls-20, .cls-21, .cls-4 {
        fill: #fff;
      }

      .cls-11, .cls-26, .cls-3 {
        fill: #f50a2b;
      }

      .cls-18, .cls-3 {
        opacity: 0.9;
      }

      .cls-4 {
        font-size: 123px;
      }

      .cls-20, .cls-21, .cls-4 {
        font-family: Maven Pro;
        font-weight: 700;
      }

      .cls-5 {
        fill: #2c2c2c;
        font-size: 116px;
      }

      .cls-19, .cls-5 {
        font-family: MavenPro-Medium, Maven Pro;
        font-weight: 500;
      }

      .cls-6 {
        fill: rgba(255,202,8,0);
      }

      .cls-7 {
        fill: url(#linear-gradient);
      }

      .cls-8 {
        fill: #B7E0FD;opacity: 0.99;
      }

      .cls-9 {
        fill: #70C2FB;opacity: 0.45;
      }

      .cls-10 {
        fill: #1B9BD9;
      }

      .cls-10, .cls-13 {
        fill-rule: evenodd;
      }

      .cls-12, .cls-13, .cls-22 {
        fill: #1B9BD9;
      }

      .cls-12{
      fill: #FFF;
      }

      .cls-14 {
        fill: rgba(255,255,255,0.25);
      }

      .cls-15 {
        fill: #70C2FB;opacity: 0.45;
      }

      .cls-16 {
        fill: #70C2FB;opacity: 0.99;
      }

      .cls-17 {
        fill: #F8DBC1;
      }

      .cls-18, .cls-23 {
        fill: none;
      }

      .cls-19, .cls-21 {
        font-size: 7px;
      }

      .cls-20 {
        font-size: 17px;
      }

      .cls-22 {
        opacity: 0.92;
      }

      .cls-23 {
        stroke: #FFFFFF;
        stroke-width: 1.5px;
        opacity: 0.98;
      }

      .cls-24, .cls-25, .cls-26 {
        stroke: none;
      }

      .cls-25 {
        fill: rgba(255,202,8,0.1);
      }

      .cls-27 {
        filter: url(#Path_4092);
      }

      .cls-28 {
        filter: url(#Rectangle_472);
      }
      .cls-00{
      fill: #eefaff;
      }
    </style>
    <filter id="Rectangle_472" x="-30" y="-27" width="2873" height="1502" filterUnits="userSpaceOnUse">
      <feOffset dy="3" input="SourceAlpha"/>
      <feGaussianBlur stdDeviation="10" result="blur"/>
      <feFlood flood-opacity="0.161"/>
      <feComposite operator="in" in2="blur"/>
      <feComposite in="SourceGraphic"/>
    </filter>
    <linearGradient id="linear-gradient" x1="3.487" y1="1.332" x2="-0.315" y2="0.425" gradientUnits="objectBoundingBox">
      <stop offset="0" stop-color="#cf9174"/>
      <stop offset="1" stop-color="#91624c"/>
    </linearGradient>
    <filter id="Path_4092" x="609.691" y="472.047" width="293.872" height="251.314" filterUnits="userSpaceOnUse">
      <feOffset dy="3" input="SourceAlpha"/>
      <feGaussianBlur stdDeviation="3" result="blur-2"/>
      <feFlood flood-opacity="0.161"/>
      <feComposite operator="in" in2="blur-2"/>
      <feComposite in="SourceGraphic"/>
    </filter>
    <clipPath id="clip-Step4">
      <rect width="2813" height="1442"/>
    </clipPath>
  </defs>
  <g id="Step4" class="cls-1">
    <rect class="cls-00" width="2813" height="1442"/>
    <g id="Group_2408" data-name="Group 2408">
      <g class="cls-28" transform="matrix(1, 0, 0, 1, 0, 0)">
        <rect id="Rectangle_472-2" data-name="Rectangle 472" class="cls-00" width="2813" height="1442"/>
      </g>
      <g id="Group_2063" data-name="Group 2063" transform="translate(1594 527)">
        <g id="Group_1984" data-name="Group 1984" transform="translate(0 0)">
          <rect id="Rectangle_372" data-name="Rectangle 372" class="cls-3" width="1008.41" height="201.917"/>
          <text id="You_enjoy" data-name="You enjoy" class="cls-4" transform="translate(158.587 148.053)"><tspan x="0" y="0">YOU ENJOY</tspan></text>
        </g>
        <text id="Enjoy_your_meal" data-name="Enjoy your meal" class="cls-5" transform="translate(0 363.306)"><tspan x="0" y="0">Enjoy your meal</tspan></text>
      </g>
      <g id="Group_2407" data-name="Group 2407">
        <g id="Group_2320" data-name="Group 2320" transform="translate(458.77 260.832)">
          <g id="Path_4327" data-name="Path 4327" class="cls-6" transform="translate(58.146 510.177)">
            <path class="cls-24" d="M9.431,0H245.21a9.431,9.431,0,0,1,9.431,9.431v96.2a9.431,9.431,0,0,1-9.431,9.431H9.431A9.431,9.431,0,0,1,0,105.629V9.431A9.431,9.431,0,0,1,9.431,0Z"/>
            <path class="cls-25" d="M 9.431167602539062 0.9999923706054688 C 4.782211303710938 0.9999923706054688 1 4.782188415527344 1 9.431159973144531 L 1 105.6290588378906 C 1 110.2780227661133 4.782211303710938 114.0602569580078 9.431167602539062 114.0602569580078 L 245.2103424072266 114.0602569580078 C 249.8592681884766 114.0602569580078 253.6414794921875 110.2780227661133 253.6414794921875 105.6290588378906 L 253.6414794921875 9.431159973144531 C 253.6414794921875 4.782188415527344 249.8592681884766 0.9999923706054688 245.2103424072266 0.9999923706054688 L 9.431167602539062 0.9999923706054688 M 9.431167602539062 -7.62939453125e-06 L 245.2103424072266 -7.62939453125e-06 C 250.4189758300781 -7.62939453125e-06 254.6414794921875 4.222488403320312 254.6414794921875 9.431159973144531 L 254.6414794921875 105.6290588378906 C 254.6414794921875 110.837760925293 250.4189758300781 115.0602569580078 245.2103424072266 115.0602569580078 L 9.431167602539062 115.0602569580078 C 4.22247314453125 115.0602569580078 0 110.837760925293 0 105.6290588378906 L 0 9.431159973144531 C 0 4.222488403320312 4.22247314453125 -7.62939453125e-06 9.431167602539062 -7.62939453125e-06 Z"/>
          </g>
          <path id="Path_4328" data-name="Path 4328" class="cls-7" d="M955.739,760.706s19.06,72.95,12.049,97.487-12.049,61.34-12.049,61.34S956.122,791.157,955.739,760.706Z" transform="translate(-613.805 -355.101)"/>
          <g id="Group_2317" data-name="Group 2317" transform="translate(117.318 268.622)">
            <path id="Path_4072" data-name="Path 4072" class="cls-8" d="M-5487.53,2197.271s-28.195-59.612-39.544-3.972,18.093,143.825,18.093,143.825l-18.093,87.442s-38.025,60.893-69.83,118.369-26.8,98.672-26.8,98.672l-225.887-22.126s33.745,68.786,72.514,100.85,35.585,19.658,75.353,50.052,60.834,157.987,60.834,157.987,48.188,11.914,96.688,0c20.5-5.035,37.166-30.377,56.67-36.757,65.231-21.337,110.495-53.368,110.495-53.368s-66.442-98.586-75.675-150.988,29.217-76.673,29.217-76.673,48.014-70.911,32.105-137.4c-16.422-107.321-50.275-225.283-50.275-225.283Z" transform="translate(5849.589 -2145.695)"/>
            <path id="Path_4077" data-name="Path 4077" class="cls-9" d="M-5719.263,2150.417l-30.715,21.371s11.676,51.317,22.748,68.422,21.54,0,21.54,0Z" transform="translate(6116.077 -2150.417)"/>
          </g>
          <g id="Group_2318" data-name="Group 2318" transform="translate(94.471)">
            <path id="Path_1010" data-name="Path 1010" class="cls-10" d="M-276.521,1065.166a43.507,43.507,0,0,0,43.578,43.578H85.335a43.507,43.507,0,0,0,43.578-43.578v-677.8a43.507,43.507,0,0,0-43.578-43.578H-232.943a43.507,43.507,0,0,0-43.578,43.578Z" transform="translate(276.521 -343.789)"/>
            <path id="Path_1011" data-name="Path 1011" class="cls-2" d="M-236.7,988.189H33.332c20.233,0,36.575-19.454,36.575-43.578V369.533c0-24.124-16.342-17.12-36.575-17.12H-235.92c-20.233,0-36.574-7-36.574,17.12V944.611C-273.272,968.735-256.931,988.189-236.7,988.189Z" transform="translate(304.223 -291.712)"/>
            <g id="Group_2261" data-name="Group 2261" transform="translate(51.162 81.969)">
              <g id="Group_1952" data-name="Group 1952" transform="translate(0 0)">
                <g id="Group_1924" data-name="Group 1924">
                  <g id="Group_1892" data-name="Group 1892">
                    <path id="Subtraction_1" data-name="Subtraction 1" class="cls-11" d="M8.979,8.089a9.876,9.876,0,0,1-3.436-.61A9.071,9.071,0,0,1,2.63,5.741a7.978,7.978,0,0,1-1.948-2.6A7.235,7.235,0,0,1,0,.065C0,.047,0,.03,0,.012H17.981V0c0,.018,0,.037,0,.055v.01a7.238,7.238,0,0,1-.707,3.123,8.015,8.015,0,0,1-1.927,2.551,9.092,9.092,0,0,1-2.858,1.72,9.875,9.875,0,0,1-3.5.631Z" transform="translate(2.696 48.033)"/>
                    <path id="Subtraction_2" data-name="Subtraction 2" class="cls-11" d="M8.979,12.7a9.876,9.876,0,0,1-3.436-.61,9.073,9.073,0,0,1-2.913-1.738A7.981,7.981,0,0,1,.681,7.75,7.236,7.236,0,0,1,0,4.678c0-.018,0-.036,0-.053H16.3V0a7.4,7.4,0,0,1,1.685,4.678A7.238,7.238,0,0,1,17.275,7.8a8.015,8.015,0,0,1-1.927,2.551,9.092,9.092,0,0,1-2.858,1.72,9.874,9.874,0,0,1-3.5.631Z" transform="translate(35.163 43.42)"/>
                    <path id="Cart_4_" class="cls-11" d="M81.851,83.11c-2.037-.072-7.7-.123-7.7-.123-1.8-5.236-8.559-7.611-15.2-7.529-6.333.078-12.394,2.8-13.853,7.529H38.091a8.662,8.662,0,0,0-4.642,2.081,5.846,5.846,0,0,0-1.71,3.443l.007,31.6a4.427,4.427,0,0,0,1.831,3.526,9.261,9.261,0,0,0,4.585,1.872l43.541.058a6.634,6.634,0,0,0,4.272-1.861,6.15,6.15,0,0,0,1.855-3.954l.032-30.939a5.349,5.349,0,0,0-1.353-3.336A6.2,6.2,0,0,0,81.851,83.11Zm-8.992-.123H46.489c1.514-3.541,6.113-6.5,12.9-6.511,5.839.053,11.5,2.154,13.467,6.511Z" transform="translate(-31.739 -75.457)"/>
                  </g>
                </g>
                <g id="XMLID_1_" transform="translate(12.783 15.539)">
                  <path id="XMLID_2_" class="cls-12" d="M169.327,184.145v-4.727l6.45,8.578h12.74l-3.289-5.093-10.987-1.529,9.248-1.281-3-4.177-11.27-1.463,10.687-1.4c.6-.853,1.608-2.267,1.608-2.267l1.472-2-8.464-1.13,10.3-1.4,3.7-5.056H175.364l-6.037,8.558V161.2H157.951s.052,8.812,0,18.445L157.9,188h11.427Z" transform="translate(-157.9 -161.197)"/>
                </g>
              </g>
              <g id="Group_1926" data-name="Group 1926" transform="translate(60.759 20.93)">
                <path id="Path_3096" data-name="Path 3096" class="cls-11" d="M656.459,248.2v15.791a6.452,6.452,0,0,0,.288,2.528,4.569,4.569,0,0,0,3.195,2.7,7.906,7.906,0,0,0,2.283.032,6.554,6.554,0,0,0,1.509-.24c.141-.047.411-.09.5-.216a.508.508,0,0,0,.04-.289v-3c-.269.077-.509.225-.774.31a4.564,4.564,0,0,1-1.432.2,1.556,1.556,0,0,1-.968-.219c-.856-.6-.658-1.831-.658-2.737v-7.273h3.832v-3.034h-3.832V248.2Z" transform="translate(-656.456 -248.203)"/>
                <path id="Path_3112" data-name="Path 3112" class="cls-12" d="M656.459,248.2v15.791a6.452,6.452,0,0,0,.288,2.528,4.569,4.569,0,0,0,3.195,2.7,7.906,7.906,0,0,0,2.283.032,6.554,6.554,0,0,0,1.509-.24c.141-.047.411-.09.5-.216a.508.508,0,0,0,.04-.289v-3c-.269.077-.509.225-.774.31a4.564,4.564,0,0,1-1.432.2,1.556,1.556,0,0,1-.968-.219c-.856-.6-.658-1.831-.658-2.737v-7.273h3.832v-3.034h-3.832V248.2Z" transform="translate(-600.241 -248.203)"/>
                <path id="Path_3098" data-name="Path 3098" class="cls-12" d="M918.934,393.4h3.773V381.23c0-.2-.09-.706.062-.857.093-.09.281-.089.4-.108.359-.059.718-.081,1.078-.123a17.068,17.068,0,0,1,2.771-.068,13.3,13.3,0,0,1,1.849.155v-2.194c0-.192.08-.624-.062-.771a1.239,1.239,0,0,0-.477-.23,6.548,6.548,0,0,0-1.386-.242,9.232,9.232,0,0,0-1.964.043,17.342,17.342,0,0,0-3.927.892,12.286,12.286,0,0,0-1.539.645c-.166.083-.438.165-.538.33a.659.659,0,0,0-.04.334V393.4Z" transform="translate(-908.766 -372.288)"/>
                <path id="Path_3111" data-name="Path 3111" class="cls-12" d="M493.326-600.644a13.775,13.775,0,0,0-4.893,1.167l-.227.127-.011,1.717c0,.947,0,1.721.015,1.721s.189-.112.393-.247a8.078,8.078,0,0,1,2.679-1.1,7.974,7.974,0,0,1,3.511-.12,3.407,3.407,0,0,1,1.656.824,2.8,2.8,0,0,1,.65,1.255,13.666,13.666,0,0,1,.073,2.225c-.019-.008-.238-.116-.493-.239a9.187,9.187,0,0,0-2.834-.8,14.965,14.965,0,0,0-2.695.019c-2.433.377-3.88,1.613-4.308,3.676a7.747,7.747,0,0,0,0,2.811,3.856,3.856,0,0,0,1.263,2.241,5.967,5.967,0,0,0,3.165,1.425,12.073,12.073,0,0,0,2.676.177c3.149-.073,5.066-.588,6.11-1.644a2.981,2.981,0,0,0,.8-1.74c.058-.416.058-8.366,0-8.874a4.611,4.611,0,0,0-1.3-2.884,4.409,4.409,0,0,0-1.337-.951A9.2,9.2,0,0,0,493.326-600.644Zm1.193,9.213a8.714,8.714,0,0,1,2.322.45l.354.12v1.513c0,.95-.016,1.59-.042,1.713-.15.7-.913.977-2.865,1.024a6.1,6.1,0,0,1-1.258-.038,4.452,4.452,0,0,1-1.383-.454,1.991,1.991,0,0,1-1.093-1.128,2.984,2.984,0,0,1-.081-1.459c.254-1.07,1.228-1.659,2.911-1.752.266-.015.524-.022.578-.018S494.265-591.443,494.519-591.431Z" transform="translate(-447.053 604.832)"/>
                <path id="shop_2x_5_" data-name="shop@2x (5)" class="cls-13" d="M75.867,287.228a7.412,7.412,0,0,0-2.223.673,4.238,4.238,0,0,0-2.28,2.491,5.5,5.5,0,0,0,.1,3.338,4.179,4.179,0,0,0,1.765,1.835,11.414,11.414,0,0,0,1.744.7c.271.083.9.285,1.4.449,1.837.6,2.387,1.032,2.387,1.88a1.529,1.529,0,0,1-.815,1.368,5.863,5.863,0,0,1-4.451-.111,17.349,17.349,0,0,1-2.2-1.113l-.118-.072v1.62c0,1.512,0,1.622.064,1.64.035.01.269.1.519.208a13.806,13.806,0,0,0,2.551.8,12.878,12.878,0,0,0,2.962.059,7.878,7.878,0,0,0,2.878-.878,4.6,4.6,0,0,0,1.786-1.873,5.4,5.4,0,0,0,.264-3.3,3.755,3.755,0,0,0-2.12-2.453A11.448,11.448,0,0,0,78,293.767a19.608,19.608,0,0,1-2.178-.74,1.522,1.522,0,0,1-1.064-1.291,1.367,1.367,0,0,1,.881-1.522,3.572,3.572,0,0,1,1.722-.3,5.809,5.809,0,0,1,3.225.892c.563.279,1.031.507,1.04.507s.017-.654.017-1.452V288.4l-.507-.241a10.1,10.1,0,0,0-2.221-.825,10.218,10.218,0,0,0-3.048-.109" transform="translate(-4.773 -281.923)"/>
                <g id="e_2x" data-name="e@2x" transform="translate(22.486 4.158)">
                  <path id="Path_3115" data-name="Path 3115" class="cls-12" d="M68.871-1000.715a6.952,6.952,0,0,0-4.613,1.922,6.934,6.934,0,0,0-1.046,1.349c-.088.153-.346.667-.392.784-.023.058-.056.134-.072.174a10.132,10.132,0,0,0-.38,1.176c-.06.262-.072.319-.116.54a13.933,13.933,0,0,0-.07,4.673c.033.189.13.681.158.788.012.045.03.107.037.139a7.987,7.987,0,0,0,.57,1.52c.063.126.146.282.183.347s.077.133.086.151a6.854,6.854,0,0,0,.83,1.09,8.607,8.607,0,0,0,1.334,1.108l.308.177a5.3,5.3,0,0,0,.631.315c.065.028.169.074.232.1a4.563,4.563,0,0,0,.568.2,8.117,8.117,0,0,0,1.461.3c.121.014.276.038.346.05.172.027,1.9.027,2.31,0,.45-.032,1.046-.1,1.392-.161.077-.015.2-.036.267-.047.155-.023.693-.144.916-.2l.383-.1c.285-.078.821-.264,1.164-.4l.271-.111.009-1.665c.007-.914,0-1.67-.009-1.675a.555.555,0,0,0-.176.064,13,13,0,0,1-1.619.652c-.415.136-.492.159-.986.291-.088.024-.227.052-.464.094-.084.015-.172.031-.2.037-.114.023-.587.078-.9.1a11.917,11.917,0,0,1-1.577-.021,5.58,5.58,0,0,1-.754-.137c-.044-.014-.144-.042-.22-.06s-.169-.054-.209-.069-.141-.063-.232-.1a3.651,3.651,0,0,1-1.276-.872,2.452,2.452,0,0,1-.29-.344c-.03-.044-.063-.085-.07-.093a1.552,1.552,0,0,1-.162-.243.645.645,0,0,0-.065-.112,1.461,1.461,0,0,1-.107-.19c-.023-.051-.067-.151-.1-.22a4.862,4.862,0,0,1-.218-.568c-.014-.051-.035-.116-.046-.145a.366.366,0,0,1-.021-.11.092.092,0,0,0-.021-.067.2.2,0,0,1-.032-.1c-.007-.049-.026-.146-.039-.215s-.035-.186-.044-.256-.025-.149-.032-.173a2.04,2.04,0,0,1-.026-.23l-.014-.183,1.048.014c.577.009,3.087.016,5.573.019l4.522,0,.007-.346a16.635,16.635,0,0,0-.114-1.979,13.025,13.025,0,0,0-.415-2.109,10.55,10.55,0,0,0-.371-1.055,6.722,6.722,0,0,0-.949-1.587,6.064,6.064,0,0,0-1.264-1.166c-.065-.04-.16-.1-.211-.135a5.651,5.651,0,0,0-1.218-.554c-.134-.042-.269-.083-.3-.1-.056-.017-.218-.06-.475-.115-.063-.016-.179-.038-.255-.049l-.278-.045A12.454,12.454,0,0,0,68.871-1000.715Zm1.113,2.942c.128.015.278.036.336.046.23.042.385.076.441.093l.162.046a1.656,1.656,0,0,1,.29.1,2.869,2.869,0,0,1,.531.3,3.4,3.4,0,0,1,.584.561,1.3,1.3,0,0,0,.079.112,3.654,3.654,0,0,1,.336.631c.021.051.049.111.06.132s.114.325.121.359c.012.061.025.119.088.36a5.474,5.474,0,0,1,.139,1.006s-1.663.01-3.685.01H65.793l.012-.112c.007-.06.025-.171.039-.248s.03-.181.037-.232.065-.283.076-.323.03-.109.044-.153c.06-.221.081-.294.1-.336.012-.025.042-.109.07-.186a3.138,3.138,0,0,1,.965-1.44c.049-.037.111-.086.135-.109a.178.178,0,0,1,.067-.039.692.692,0,0,0,.123-.07,2.59,2.59,0,0,1,.526-.255A11.427,11.427,0,0,1,69.984-997.773Z" transform="translate(-62.018 1000.735)"/>
                  <path id="Path_3116" data-name="Path 3116" class="cls-12" d="M177.359-809.905a.044.044,0,0,0,.044,0c.009-.007,0-.014-.03-.011S177.34-809.913,177.359-809.905Z" transform="translate(-174.673 814.345)"/>
                  <path id="Path_3117" data-name="Path 3117" class="cls-12" d="M181.359-809.905a.044.044,0,0,0,.044,0c.009-.007,0-.014-.03-.011S181.34-809.913,181.359-809.905Z" transform="translate(-178.581 814.345)"/>
                  <path id="Path_3118" data-name="Path 3118" class="cls-12" d="M184.723-807.787a.156.156,0,0,0,.009.093c.009.007.019-.03.019-.081C184.751-807.893,184.737-807.9,184.723-807.787Z" transform="translate(-181.876 812.34)"/>
                  <path id="Path_3119" data-name="Path 3119" class="cls-12" d="M186.723-799.786a.158.158,0,0,0,.009.093c.009.007.019-.031.019-.082C186.751-799.893,186.737-799.9,186.723-799.786Z" transform="translate(-183.829 804.526)"/>
                  <path id="Path_3120" data-name="Path 3120" class="cls-12" d="M160.606-795.971c-.058.067-.06.093,0,.042a.391.391,0,0,0,.063-.066C160.664-796.01,160.627-796,160.606-795.971Z" transform="translate(-158.275 800.749)"/>
                  <path id="Path_3121" data-name="Path 3121" class="cls-12" d="M155-783.974c0,.011.012.016.023.009s.023-.018.023-.026-.009-.009-.023-.009A.026.026,0,0,0,155-783.974Z" transform="translate(-152.844 789.026)"/>
                  <path id="Path_3122" data-name="Path 3122" class="cls-12" d="M150.606-779.97c-.058.066-.06.092,0,.041a.409.409,0,0,0,.063-.065C150.664-780.01,150.627-780,150.606-779.97Z" transform="translate(-148.507 785.119)"/>
                  <path id="Path_3123" data-name="Path 3123" class="cls-12" d="M194.365-748.959a.029.029,0,0,0,.012.037c.012.007.023,0,.023-.021C194.4-748.984,194.386-748.992,194.365-748.959Z" transform="translate(-191.293 754.818)"/>
                  <path id="Path_3124" data-name="Path 3124" class="cls-12" d="M127-725.974c0,.012.012.016.023.009s.023-.019.023-.025-.009-.01-.023-.01A.025.025,0,0,0,127-725.974Z" transform="translate(-125.493 732.371)"/>
                  <path id="Path_3125" data-name="Path 3125" class="cls-12" d="M127-556.977a.025.025,0,0,0,.026.023c.012,0,.016-.011.009-.023s-.019-.023-.025-.023S127-556.991,127-556.977Z" transform="translate(-125.493 567.291)"/>
                  <path id="Path_3126" data-name="Path 3126" class="cls-12" d="M141-514.977a.026.026,0,0,0,.026.023c.012,0,.016-.012.009-.023s-.018-.023-.026-.023S141-514.991,141-514.977Z" transform="translate(-139.168 526.265)"/>
                  <path id="Path_3127" data-name="Path 3127" class="cls-12" d="M196.587-492.764a.066.066,0,0,0,0,.063c.03.018.042-.019.023-.067S196.6-492.812,196.587-492.764Z" transform="translate(-193.461 504.581)"/>
                  <path id="Path_3128" data-name="Path 3128" class="cls-12" d="M150.331-491.844c.023.03.051.058.063.058s0-.026-.032-.058C150.292-491.919,150.278-491.919,150.331-491.844Z" transform="translate(-148.252 503.701)"/>
                  <path id="Path_3129" data-name="Path 3129" class="cls-12" d="M160.3-471.965c.009.018.025.035.037.035s.012-.014,0-.035S160.3-472,160.3-472,160.3-471.984,160.3-471.965Z" transform="translate(-158.017 484.262)"/>
                  <path id="Path_3130" data-name="Path 3130" class="cls-12" d="M163.979-465.878c.033.037.065.074.072.081a.164.164,0,0,1,.026.047c.007.018.016.023.025.009s-.03-.065-.083-.116C163.949-465.922,163.938-465.926,163.979-465.878Z" transform="translate(-161.591 478.314)"/>
                  <path id="Path_3131" data-name="Path 3131" class="cls-12" d="M216.362-447.977c.007.011.018.023.025.023s.009-.012.009-.023a.024.024,0,0,0-.025-.023C216.36-448,216.355-447.99,216.362-447.977Z" transform="translate(-212.78 460.819)"/>
                  <path id="Path_3132" data-name="Path 3132" class="cls-12" d="M175.57-446.419c.039.044.072.086.077.09s.009,0,.016,0-.028-.046-.077-.09l-.086-.079Z" transform="translate(-172.868 459.354)"/>
                  <path id="Path_3133" data-name="Path 3133" class="cls-12" d="M218-444.08c0,.005.016.021.035.037s.033.023.021-.009S218-444.105,218-444.08Z" transform="translate(-214.382 457.001)"/>
                  <path id="Path_3134" data-name="Path 3134" class="cls-12" d="M222.362-437.977c.007.012.018.023.026.023s.009-.011.009-.023a.024.024,0,0,0-.026-.023C222.36-438,222.355-437.991,222.362-437.977Z" transform="translate(-218.64 451.051)"/>
                  <path id="Path_3135" data-name="Path 3135" class="cls-12" d="M224-434.08s.016.021.035.037.032.023.021-.009S224-434.105,224-434.08Z" transform="translate(-220.243 447.233)"/>
                  <path id="Path_3136" data-name="Path 3136" class="cls-12" d="M228.362-427.977c.007.011.019.023.026.023s.009-.012.009-.023a.024.024,0,0,0-.026-.023C228.36-428,228.355-427.991,228.362-427.977Z" transform="translate(-224.501 441.283)"/>
                  <path id="Path_3137" data-name="Path 3137" class="cls-12" d="M230.411-423.954a.22.22,0,0,0,.051.047s0-.021-.021-.047S230.4-424,230.39-424,230.387-423.979,230.411-423.954Z" transform="translate(-226.48 437.376)"/>
                  <path id="Path_3138" data-name="Path 3138" class="cls-12" d="M234.666-418.8c-.009.014,0,.044.028.068s.046.03.046.016-.009-.028-.021-.028-.026-.018-.03-.042S234.676-418.815,234.666-418.8Z" transform="translate(-230.659 432.304)"/>
                  <path id="Path_3139" data-name="Path 3139" class="cls-12" d="M205-412.88c0,.009.023.03.053.049.051.032.051.032.007-.019S205-412.908,205-412.88Z" transform="translate(-201.684 426.529)"/>
                  <path id="Path_3140" data-name="Path 3140" class="cls-12" d="M238.662-412.83c-.007.04,0,.077.009.084s.019-.025.019-.07C238.69-412.917,238.676-412.924,238.662-412.83Z" transform="translate(-234.562 426.529)"/>
                  <path id="Path_3141" data-name="Path 3141" class="cls-12" d="M210.4-408.977c-.007.012,0,.023.023.023s.03-.012.023-.023-.019-.023-.023-.023S210.411-408.991,210.4-408.977Z" transform="translate(-206.96 422.723)"/>
                  <path id="Path_3142" data-name="Path 3142" class="cls-12" d="M214.39-406.468c-.007.014,0,.026.021.026a.054.054,0,0,1,.044.028c0,.016.016.023.026.016s0-.032-.03-.053S214.4-406.484,214.39-406.468Z" transform="translate(-210.854 420.258)"/>
                  <path id="Path_3143" data-name="Path 3143" class="cls-12" d="M241.2-405.465c0,.037,0,.051.012.028a.173.173,0,0,0,0-.07C241.2-405.521,241.2-405.5,241.2-405.465Z" transform="translate(-237.044 419.316)"/>
                  <path id="Path_3144" data-name="Path 3144" class="cls-12" d="M220.289-402.151c-.042.019-.039.021.016.021a.1.1,0,0,1,.072.03c0,.016.016.023.025.016C220.433-402.112,220.336-402.17,220.289-402.151Z" transform="translate(-216.591 416.037)"/>
                  <path id="Path_3145" data-name="Path 3145" class="cls-12" d="M238.509-400.961a.058.058,0,0,0,.012.051c.016.028.021.023.021-.019S238.529-400.993,238.509-400.961Z" transform="translate(-234.413 414.888)"/>
                  <path id="Path_3146" data-name="Path 3146" class="cls-12" d="M226.581-398.879l-.081.016.1,0c.063,0,.1-.007.086-.021a.042.042,0,0,0-.018-.021A.748.748,0,0,1,226.581-398.879Z" transform="translate(-222.685 412.857)"/>
                  <path id="Path_3147" data-name="Path 3147" class="cls-12" d="M235.359-395.905a.047.047,0,0,0,.044,0c.009-.007,0-.014-.03-.012S235.34-395.912,235.359-395.905Z" transform="translate(-231.328 409.946)"/>
                  <path id="Path_3148" data-name="Path 3148" class="cls-12" d="M597.359-765.906a.046.046,0,0,0,.043,0c.01-.008,0-.015-.03-.012S597.34-765.912,597.359-765.906Z" transform="translate(-584.933 771.365)"/>
                  <path id="Path_3149" data-name="Path 3149" class="cls-12" d="M589.256-763.877a.125.125,0,0,1-.107.114c-.037.007-.039.009-.007.023.056.021.167-.1.137-.144C589.261-763.915,589.256-763.912,589.256-763.877Z" transform="translate(-576.895 769.398)"/>
                  <path id="Path_3150" data-name="Path 3150" class="cls-12" d="M600.438-763.37c-.015.039.011.06.048.039.019-.012.016-.026,0-.045S600.449-763.4,600.438-763.37Z" transform="translate(-587.947 768.896)"/>
                  <path id="Path_3151" data-name="Path 3151" class="cls-12" d="M604.291-759.953c.023.026.046.041.053.037s-.053-.084-.078-.084C604.256-760,604.267-759.979,604.291-759.953Z" transform="translate(-591.687 765.583)"/>
                  <path id="Path_3152" data-name="Path 3152" class="cls-12" d="M585.034-754.6a.129.129,0,0,1-.03.095c-.017,0-.023.017-.017.026.032.034.081-.07.065-.137S585.036-754.689,585.034-754.6Z" transform="translate(-572.856 760.376)"/>
                  <path id="Path_3153" data-name="Path 3153" class="cls-12" d="M608.365-754.959a.029.029,0,0,0,.012.037c.011.007.023,0,.023-.021C608.4-754.984,608.386-754.991,608.365-754.959Z" transform="translate(-595.692 760.678)"/>
                  <path id="Path_3154" data-name="Path 3154" class="cls-12" d="M610.365-750.959a.03.03,0,0,0,.013.038c.011.006.023,0,.023-.022C610.4-750.984,610.386-750.991,610.365-750.959Z" transform="translate(-597.645 756.771)"/>
                  <path id="Path_3155" data-name="Path 3155" class="cls-12" d="M612.563-746.88c-.007.025,0,.053.009.06s.021-.014.021-.046C612.592-746.939,612.578-746.946,612.563-746.88Z" transform="translate(-599.791 752.811)"/>
                  <path id="Path_3156" data-name="Path 3156" class="cls-12" d="M583-741.975c0,.012.011.016.023.01s.023-.019.023-.026-.009-.009-.023-.009A.025.025,0,0,0,583-741.975Z" transform="translate(-570.918 748.001)"/>
                  <path id="Path_3157" data-name="Path 3157" class="cls-12" d="M614.366-740.959a.027.027,0,0,0,.011.037c.012.008.023,0,.023-.02C614.4-740.984,614.386-740.991,614.366-740.959Z" transform="translate(-601.552 747.004)"/>
                  <path id="Path_3158" data-name="Path 3158" class="cls-12" d="M616.362-735.977c.007.012.018.023.026.023s.009-.011.009-.023a.024.024,0,0,0-.026-.023C616.36-736,616.355-735.991,616.362-735.977Z" transform="translate(-603.503 742.14)"/>
                  <path id="Path_3159" data-name="Path 3159" class="cls-12" d="M579-731.975c0,.012.012.017.023.01s.023-.018.023-.026-.009-.009-.023-.009A.025.025,0,0,0,579-731.975Z" transform="translate(-567.01 738.232)"/>
                  <path id="Path_3160" data-name="Path 3160" class="cls-12" d="M618.362-729.977c.007.012.019.023.025.023s.009-.011.009-.023a.023.023,0,0,0-.025-.023C618.361-730,618.355-729.991,618.362-729.977Z" transform="translate(-605.457 736.279)"/>
                  <path id="Path_3161" data-name="Path 3161" class="cls-12" d="M563-697.891c0,.025.009.042.023.032a.036.036,0,0,0,.007-.046C563.014-697.953,563-697.949,563-697.891Z" transform="translate(-551.381 704.96)"/>
                  <path id="Path_3162" data-name="Path 3162" class="cls-12" d="M561-692.943c0,.018.012.028.024.021a.028.028,0,0,0,.011-.037C561.014-692.991,561-692.985,561-692.943Z" transform="translate(-549.428 700.117)"/>
                  <path id="Path_3163" data-name="Path 3163" class="cls-12" d="M559.081-685.791c0,.026.008.032.013.013a.045.045,0,0,0,0-.044C559.086-685.831,559.078-685.817,559.081-685.791Z" transform="translate(-547.553 693.128)"/>
                  <path id="Path_3164" data-name="Path 3164" class="cls-12" d="M605.627-685.868l-.127.135.135-.128c.123-.115.144-.139.125-.139C605.758-686,605.7-685.94,605.627-685.868Z" transform="translate(-592.896 693.299)"/>
                  <path id="Path_3165" data-name="Path 3165" class="cls-12" d="M561-682.53c0,.015.009.028.021.028s.025.034.03.074c.006.076.006.076.021.013a.093.093,0,0,0-.027-.1C561.018-682.539,561-682.544,561-682.53Z" transform="translate(-549.428 689.917)"/>
                  <path id="Path_3166" data-name="Path 3166" class="cls-12" d="M565-674.88c0,.009.023.03.053.048.051.033.051.033.007-.018S565-674.908,565-674.88Z" transform="translate(-553.335 682.453)"/>
                </g>
              </g>
            </g>
          </g>
          <g id="Group_2319" data-name="Group 2319" transform="translate(127.064 258.073)">
            <path id="Path_4072-2" data-name="Path 4072" class="cls-8" d="M-5535.464,2154.589s-41.215,11.606-52.818,68.94-9.083,77.134-9.383,129.08,14.36,33.069,0,89.591-22.812,36.574-50.712,95.865-52.151,141.538-52.151,141.538v34.463s4.9,14.767,37.26,46.465c12.846,12.584,15.813,36.953,34.409,173.929,0,0-5.792,10.591,60.914-11.4,15.543-5.123,39.486-.913,54.266-5.458,47.241-14.532,72.9-41.246,72.9-41.246l-27.4-47.817s-37.051-87.346-30.38-142.1c11.307-92.812,30.38-90.836,30.38-165.32s-26.249-116.169-30.38-138.882c-13.588-74.689-20.883-121.839-20.883-121.839Z" transform="translate(5930.769 -2154.589)"/>
            <path id="Path_4077-2" data-name="Path 4077" class="cls-14" d="M-5718.928,2150.741l-27.22,20.453s5.772,52.807,17.009,70.167,24,0,24,0Z" transform="translate(6116.583 -2139.223)"/>
            <path id="Path_4080" data-name="Path 4080" class="cls-15" d="M-5843.118,2276.469h226.751v2.517h-204.2Z" transform="translate(5843.118 -1770.181)"/>
          </g>
          <path id="Path_4329" data-name="Path 4329" class="cls-16" d="M-5784.277,2257.918l17.846-39.756v6.184s-.733,9.693-9.051,19.466S-5784.277,2257.918-5784.277,2257.918Z" transform="translate(5860.904 -1599.306)"/>
          <g id="Finger2" transform="translate(6.922 155.114)">
            <path id="Path_4366" data-name="Path 4366" class="cls-8" d="M-12317.662-484.75l-39.412-11.889s-25.666,2.081-31.654,11.889,2.586,33.922,2.586,33.922l68.48,78.265Z" transform="translate(12404.978 500.227)"/>
            <path id="Path_4372" data-name="Path 4372" class="cls-17" d="M-12114.273-620.865s-14.793-27.038-7.164-39.15,38.777-10.24,38.777-10.24l-6.516-1.854-19.416-3.732s-20.33-1.446-26.781,7.126,1.563,21.919,1.563,21.919l13.984,19.356Z" transform="translate(12137.884 675.934)"/>
          </g>
          <g id="Finger3" transform="translate(-4.355 282.632)">
            <path id="Path_4363" data-name="Path 4363" class="cls-8" d="M-12307.509-405.672l-52.932,29.049s-29.664,18.459-39.549,39.4-7.51,25.389,1.047,43.808c4.334,9.32,23,25.614,39.457,40.514,15.521,14.059,28.74,27.621,28.74,27.621s24.549,17.409,39.287,3.206,25.154-31.607,19.121-46.821-44.277-68.975-48.145-79.053,12.973-19.072,12.973-19.072Z" transform="translate(12406.441 405.672)"/>
            <path id="Path_4370" data-name="Path 4370" class="cls-16" d="M-12345.143-293.089l.789,44.4s-16.859-21.029-15.912-30.235C-12358.822-285.054-12345.143-293.089-12345.143-293.089Z" transform="translate(12444.03 329.385)"/>
            <path id="Path_4373" data-name="Path 4373" class="cls-17" d="M-12063.938-443.7c-7.75-5.2-41.891-41.666-45.967-49.043s-6.705-20.4,3.309-28.221,14.385-7.089,29.742,3.935,33.512,27.862,41.225,35.584,15.492,22.96,5.678,36.568S-12056.188-438.505-12063.938-443.7Z" transform="translate(12158.037 622.239)"/>
            <path id="Path_4377" data-name="Path 4377" class="cls-16" d="M-12123.445-393.627l8.436,9.242s11.963,12.5,15.861,14.884-.777-1.3-14.756-15.658l-7.271-6.772Z" transform="translate(12176.609 551.636)"/>
          </g>
          <g id="Finger5" transform="translate(6.526 575.03)">
            <path id="Path_4365" data-name="Path 4365" class="cls-8" d="M-12380.08-213.93s-14.473,22.8-15.7,39.515-.937,20.9,9.176,35.707,81.779,50.378,81.779,50.378,24.008,7.149,32.879-6.046,11.064-29.089,0-36.826-50.846-28.585-69.7-43.213S-12380.08-213.93-12380.08-213.93Z" transform="translate(12396.284 213.93)"/>
            <path id="Path_4379" data-name="Path 4379" class="cls-17" d="M52.244,72.6c-7.635-4.69-43.622-34.64-47.638-41.3s-8.535-20.2,1.33-27.26S22.04-.569,37.171,9.381,69.426,35.033,77.026,42s6.891,17.325-.511,26.461S59.88,77.289,52.244,72.6Z" transform="translate(49.127 62.216) rotate(-9)"/>
          </g>
          <g id="Finger4" transform="translate(-0.275 440.611)">
            <path id="Path_4364" data-name="Path 4364" class="cls-8" d="M-12354.773-304.646s-32.5,31.7-38.941,49.738-14.9,28.854-6.779,56.246,70.752,85.271,70.752,85.271,28.588,14.129,47.057,3.919,23.236-28.047,18.535-41a126.863,126.863,0,0,0-12.873-24.848s-46.6-73.6-48.225-79.584-7.84-28.308-7.84-28.308Z" transform="translate(12403.832 304.646)"/>
            <path id="Path_4369" data-name="Path 4369" class="cls-16" d="M-12361.633-291.167s6.053,3.966,10.547,6.382,13.707,3.67,13.707,3.67l.02,14.667v32.286s-13.449-16.706-17.9-27.805S-12361.633-291.167-12361.633-291.167Z" transform="translate(12432.313 312.246)"/>
            <path id="Path_4378" data-name="Path 4378" class="cls-17" d="M57.877,86.251C49.417,80.679,9.552,45.1,5.1,37.185s-9.454-24,1.474-32.386,17.839-5.475,34.6,6.346S76.909,41.621,85.329,49.9s7.632,20.583-.564,31.437S66.335,91.823,57.877,86.251Z" transform="matrix(0.995, 0.105, -0.105, 0.995, 58.296, 107.412)"/>
            <path id="Path_4376" data-name="Path 4376" class="cls-16" d="M-12124.318-394.141s18.994,26.8,23,30.281,22.85,15.353,30.523,19.766a36.42,36.42,0,0,0,13.783,4.9s-24.012-13.436-40.018-27.1A227.108,227.108,0,0,1-12124.318-394.141Z" transform="translate(12151.707 537.233)"/>
          </g>
          <g id="Group_2215" data-name="Group 2215" transform="translate(245.264 481.392)">
            <g id="Path_4093" data-name="Path 4093" class="cls-18" transform="translate(0 0)">
              <path class="cls-24" d="M56.031,0A56.031,56.031,0,1,1,0,56.031,56.031,56.031,0,0,1,56.031,0Z"/>
              <path class="cls-26" d="M 56.03061676025391 3 C 48.87021636962891 3 41.92558288574219 4.401718139648438 35.38963317871094 7.16619873046875 C 29.07514953613281 9.837013244628906 23.40351867675781 13.66114807128906 18.53231811523438 18.53237915039062 C 13.66110229492188 23.40361785888672 9.836982727050781 29.07526397705078 7.166183471679688 35.38980102539062 C 4.401702880859375 41.92578125 3 48.87044906616211 3 56.03089904785156 C 3 63.19134902954102 4.401702880859375 70.13601684570312 7.166183471679688 76.6719970703125 C 9.836982727050781 82.98651123046875 13.66110229492188 88.65818023681641 18.53231811523438 93.5294189453125 C 23.40351867675781 98.40065002441406 29.07514953613281 102.2247848510742 35.38963317871094 104.8955993652344 C 41.92558288574219 107.6600799560547 48.87021636962891 109.0617980957031 56.03061676025391 109.0617980957031 C 63.19101715087891 109.0617980957031 70.13565063476562 107.6600799560547 76.67160034179688 104.8955993652344 C 82.986083984375 102.2247848510742 88.65771484375 98.40065002441406 93.52891540527344 93.5294189453125 C 98.40013122558594 88.65818023681641 102.224250793457 82.98651123046875 104.8950500488281 76.6719970703125 C 107.6595306396484 70.13601684570312 109.0612335205078 63.19134902954102 109.0612335205078 56.03089904785156 C 109.0612335205078 48.87044906616211 107.6595306396484 41.92578125 104.8950500488281 35.38980102539062 C 102.224250793457 29.07526397705078 98.40013122558594 23.40361785888672 93.52891540527344 18.53237915039062 C 88.65771484375 13.66114807128906 82.986083984375 9.837013244628906 76.67160034179688 7.16619873046875 C 70.13565063476562 4.401718139648438 63.19101715087891 3 56.03061676025391 3 M 56.03061676025391 0 C 86.9754638671875 0 112.0612335205078 25.08588409423828 112.0612335205078 56.03089904785156 C 112.0612335205078 86.97589874267578 86.9754638671875 112.0617980957031 56.03061676025391 112.0617980957031 C 25.08576965332031 112.0617980957031 0 86.97589874267578 0 56.03089904785156 C 0 25.08588409423828 25.08576965332031 0 56.03061676025391 0 Z"/>
            </g>
            <path id="Path_3173" data-name="Path 3173" class="cls-11" d="M3.108,13.894,17.531,31.386,57.647,0l2.682,2.551-42.8,34.213L0,16.59Z" transform="matrix(0.998, -0.07, 0.07, 0.998, 26.423, 42.003)"/>
          </g>
          <g id="Group_2247" data-name="Group 2247" transform="matrix(0.891, -0.454, 0.454, 0.891, 159.922, 325.256)">
            <g class="cls-27" transform="matrix(0.89, 0.45, -0.45, 0.89, -285.18, -803.09)">
              <path id="Path_4092-2" data-name="Path 4092" class="cls-11" d="M10.577,0H227.4A10.7,10.7,0,0,1,237.98,10.815V129.783A10.7,10.7,0,0,1,227.4,140.6H10.577A10.7,10.7,0,0,1,0,129.783V10.815A10.7,10.7,0,0,1,10.577,0Z" transform="matrix(0.89, -0.45, 0.45, 0.89, 618.69, 586.09)"/>
            </g>
            <g id="Group_2240" data-name="Group 2240" transform="translate(16.249 72.494)">
              <text id="Account_Holder" data-name="Account Holder" class="cls-19" transform="translate(0 7)"><tspan x="0" y="0">Account Holder</tspan></text>
              <text id="_1233_5456_7868_9099" data-name="1233 5456 7868 9099" class="cls-19" transform="translate(0 23.25)"><tspan x="0" y="0">1233 5456 7868 9099</tspan></text>
              <g id="Group_2239" data-name="Group 2239" transform="translate(0 36.11)">
                <text id="_" data-name="*** ** " class="cls-20" transform="translate(0 16)"><tspan x="0" y="0">*** ** </tspan></text>
                <text id="_04_22" data-name="04/22" class="cls-21" transform="translate(176.939 7)"><tspan x="0" y="0">04/22</tspan></text>
              </g>
            </g>
            <g id="Group_2241" data-name="Group 2241" transform="translate(15.836 10.23)">
              <g id="Group_1983" data-name="Group 1983" transform="translate(0 0)">
                <g id="Group_1934" data-name="Group 1934" transform="translate(0 0)">
                  <g id="Group_1924-2" data-name="Group 1924" transform="translate(0 0)">
                    <g id="Group_1892-2" data-name="Group 1892">
                      <path id="Subtraction_1-2" data-name="Subtraction 1" class="cls-12" d="M5.141,4.632a5.655,5.655,0,0,1-1.968-.349,5.194,5.194,0,0,1-1.668-.995A4.568,4.568,0,0,1,.39,1.8,4.143,4.143,0,0,1,0,.037c0-.01,0-.02,0-.031H10.3V0c0,.01,0,.021,0,.031V.037a4.144,4.144,0,0,1-.4,1.788,4.589,4.589,0,0,1-1.1,1.46,5.206,5.206,0,0,1-1.637.985,5.654,5.654,0,0,1-2,.361Z" transform="translate(1.544 26.546)"/>
                      <path id="Subtraction_2-2" data-name="Subtraction 2" class="cls-12" d="M5.141,7.273a5.655,5.655,0,0,1-1.968-.349,5.2,5.2,0,0,1-1.668-.995A4.57,4.57,0,0,1,.39,4.437,4.143,4.143,0,0,1,0,2.678c0-.01,0-.02,0-.03H9.331V0A4.238,4.238,0,0,1,10.3,2.678a4.145,4.145,0,0,1-.4,1.788,4.589,4.589,0,0,1-1.1,1.46,5.206,5.206,0,0,1-1.637.985,5.654,5.654,0,0,1-2,.361Z" transform="translate(15.895 23.904)"/>
                      <path id="Cart_4_2" data-name="Cart_4_" class="cls-12" d="M24.908,4.236c-1.013-.04-3.829-.068-3.829-.068C20.187,1.271,16.825-.044,13.526,0,10.378.044,7.365,1.551,6.64,4.168H3.157A4.1,4.1,0,0,0,.85,5.32,3.4,3.4,0,0,0,0,7.226L0,24.717a2.563,2.563,0,0,0,.91,1.952A4.341,4.341,0,0,0,3.193,27.7l21.642.032a3.132,3.132,0,0,0,2.123-1.03,3.6,3.6,0,0,0,.922-2.188L27.9,7.394a3.162,3.162,0,0,0-.673-1.847A2.989,2.989,0,0,0,24.908,4.236Zm-4.469-.068H7.331c.753-1.96,3.039-3.6,6.414-3.6,2.9.029,5.715,1.192,6.694,3.6Z"/>
                    </g>
                  </g>
                  <g id="XMLID_1_2" data-name="XMLID_1_" transform="translate(5.257 8.515)">
                    <path id="XMLID_2_2" data-name="XMLID_2_" class="cls-2" d="M6.543,13.14V10.433l3.693,4.911h7.295l-1.883-2.916-6.291-.875,5.3-.734-1.72-2.392L6.478,7.589l6.119-.8c.342-.489.921-1.3.921-1.3l.843-1.145L9.515,3.7l5.9-.8L17.532,0H10L6.543,4.9V0H.029s.029,5.046,0,10.561L0,15.344H6.543Z" transform="translate(0 0)"/>
                  </g>
                </g>
              </g>
              <rect id="Rectangle_474" data-name="Rectangle 474" class="cls-22" width="36.11" height="23.472" rx="4" transform="translate(164.714 4.488)"/>
            </g>
          </g>
        </g>
        <path id="Path_4426" data-name="Path 4426" class="cls-23" d="M865.176,949.338c0,329.8-267.353,597.148-597.148,597.148s-597.148-267.353-597.148-597.148S-61.768,352.189,268.027,352.189,865.176,619.541,865.176,949.338" transform="translate(540.121 -228.189)"/>
      </g>
    </g>
  </g>
</svg>
