<?xml version="1.0" encoding="UTF-8"?>
<!DOCTYPE svg PUBLIC "-//W3C//DTD SVG 1.1//EN" "http://www.w3.org/Graphics/SVG/1.1/DTD/svg11.dtd">
<!-- Creator: CorelDRAW X6 -->
<svg xmlns="http://www.w3.org/2000/svg" xml:space="preserve" width="186.235mm" height="181.61mm" version="1.1" style="shape-rendering:geometricPrecision; text-rendering:geometricPrecision; image-rendering:optimizeQuality; fill-rule:evenodd; clip-rule:evenodd"
viewBox="0 0 18733 18268"
 xmlns:xlink="http://www.w3.org/1999/xlink">
 <defs>
  <style type="text/css">
   <![CDATA[
    .str0 {stroke:#3B9CFF;stroke-width:42.5787}
    .fil4 {fill:none}
    .fil3 {fill:none}
    .fil16 {fill:#00C2FF}
    .fil12 {fill:#3B9CFF}
    .fil5 {fill:#CFE7FF}
    .fil17 {fill:#D5F6FF}
    .fil11 {fill:#e8f4ff}
    .fil14 {fill:#FBD13E}
    .fil13 {fill:#3B9CFF;fill-rule:nonzero}
    .fil15 {fill:#FBD13E;fill-rule:nonzero}
    .fil0 {fill:#38D0FF;fill-opacity:0.050980}
    .fil1 {fill:#3B9CFF;fill-opacity:0.149020}
    .fil2 {fill:#E6F3FF;fill-opacity:0.400000}
    .fil8 {fill:#3B9CFF;fill-opacity:0.450980}
    .fil9 {fill:#B4DCFF;fill-opacity:0.450980}
    .fil10 {fill:#CFE7FF;fill-opacity:0.6}
    .fil6 {fill:#3B9CFF;fill-rule:nonzero;fill-opacity:0.980392}
    .fil7 {fill:#95C9FF;fill-rule:nonzero;fill-opacity:0.980392}
   ]]>
  </style>
 </defs>
 <g id="Layer_x0020_1">
  <metadata id="CorelCorpID_0Corel-Layer"/>
  <path class="fil0" d="M852 0l17030 0c468,0 852,383 852,852l0 16564c0,468 -383,852 -852,852l-17030 0c-468,0 -852,-383 -852,-852l0 -16564c0,-468 383,-852 852,-852zm774 3901l13627 0c222,0 405,182 405,405l0 8729c0,222 -182,405 -405,405l-13627 0c-222,0 -405,-182 -405,-405l0 -8729c0,-222 182,-405 405,-405z"/>
  <path class="fil1" d="M4353 1213c399,0 723,322 723,719 0,397 -324,719 -723,719 -399,0 -723,-322 -723,-719 0,-397 324,-719 723,-719z"/>
  <path class="fil2" d="M1553 14035l16021 0c211,0 383,172 383,383l0 3023c0,211 -172,383 -383,383l-16021 0c-211,0 -383,-172 -383,-383l0 -3023c0,-211 172,-383 383,-383z"/>
  <polyline class="fil3 str0" points="4328,2116 4127,1888 4302,1668 "/>
  <line class="fil4 str0" x1="4127" y1="1888" x2="4669" y2= "1889" />
  <rect class="fil5" x="9106" y="1183" width="7606" height="1526" rx="387" ry="387"/>
  <path class="fil6" d="M11454 1894c0,-34 8,-65 24,-94 16,-29 38,-51 66,-68 28,-17 59,-25 93,-25 34,0 65,8 93,25 28,17 50,39 66,68 16,28 24,60 24,94 0,25 -5,49 -14,72 -10,23 -22,43 -39,59 -16,17 -36,30 -58,40 -23,10 -47,15 -72,15 -25,0 -49,-5 -72,-15 -23,-10 -42,-23 -58,-40 -16,-17 -29,-36 -38,-59 -10,-23 -14,-47 -14,-72zm66 -70c-12,21 -18,45 -18,70 0,25 6,49 18,70 12,21 28,38 48,50 21,12 43,18 68,18 25,0 48,-6 68,-18 21,-12 37,-29 49,-50 12,-21 18,-44 18,-70 0,-25 -6,-49 -18,-70 -12,-21 -28,-38 -49,-51 -21,-12 -43,-19 -68,-19 -25,0 -47,6 -68,19 -20,12 -37,29 -48,51zm364 250l0 -245 48 0 0 55c12,-40 35,-61 68,-61 8,0 17,1 25,3 8,2 14,4 18,6l-7 45c-11,-6 -24,-8 -36,-8 -15,0 -28,5 -38,16 -10,10 -18,24 -22,41 -5,17 -7,37 -7,59l0 89 -48 0zm185 -123c0,-25 6,-48 17,-67 11,-20 26,-35 45,-45 19,-10 39,-15 62,-15 19,0 36,4 52,11 16,7 27,18 35,31l0 -170 48 0 0 379 -48 0 0 -38c-8,13 -20,24 -36,32 -16,8 -33,11 -51,11 -22,0 -43,-5 -62,-16 -19,-10 -34,-25 -45,-45 -11,-20 -17,-42 -17,-67zm49 0c0,24 8,43 23,59 15,15 34,23 57,23 23,0 42,-7 58,-22 16,-15 24,-35 24,-60 0,-17 -4,-31 -12,-44 -8,-13 -18,-22 -30,-28 -12,-6 -25,-9 -39,-9 -23,0 -41,7 -57,22 -15,15 -23,34 -23,58zm273 0c0,-38 12,-69 36,-92 24,-23 54,-35 90,-35 35,0 65,12 88,35 23,23 34,54 34,92 0,9 0,15 -1,19l-199 0c3,20 12,37 26,49 15,12 32,18 53,18 15,0 29,-3 41,-10 13,-7 22,-16 29,-28 5,2 12,5 22,9 10,4 16,6 19,7 -10,21 -26,37 -46,48 -20,11 -43,17 -67,17 -36,0 -65,-12 -90,-36 -24,-24 -36,-55 -36,-93zm48 -18l152 0c-3,-20 -11,-36 -24,-48 -13,-12 -30,-18 -50,-18 -21,0 -38,6 -52,18 -14,12 -23,28 -26,48zm261 142l0 -245 48 0 0 55c12,-40 35,-61 68,-61 8,0 17,1 25,3 8,2 14,4 18,6l-7 45c-11,-6 -24,-8 -36,-8 -15,0 -28,5 -38,16 -10,10 -18,24 -22,41 -5,17 -7,37 -7,59l0 89 -48 0zm315 -123c0,-25 6,-48 17,-67 11,-20 27,-35 45,-45 19,-10 40,-15 62,-15 18,0 35,4 51,11 16,7 28,18 35,31l0 -37 48 0 0 245 -48 0 0 -38c-8,13 -20,24 -36,32 -16,8 -33,11 -51,11 -35,0 -64,-12 -88,-36 -24,-24 -36,-55 -36,-93zm49 0c0,24 8,43 23,59 15,15 34,23 57,23 23,0 42,-7 58,-22 16,-15 24,-35 24,-60 0,-17 -4,-31 -12,-44 -8,-13 -18,-22 -30,-28 -12,-6 -25,-9 -39,-9 -23,0 -42,7 -57,22 -15,15 -23,34 -23,58zm273 1c0,-25 6,-48 17,-68 11,-20 27,-35 45,-45 19,-10 40,-16 62,-16 18,0 35,4 51,12 16,8 28,18 36,32l0 -38 48 0 0 208c0,106 -45,160 -135,160 -23,0 -44,-6 -64,-17 -20,-12 -35,-28 -47,-49 2,-1 9,-5 21,-11 11,-6 18,-10 19,-10 7,13 17,23 30,31 13,7 27,11 41,11 58,0 87,-37 87,-111 0,-1 0,-2 0,-3 0,-1 0,-2 0,-3 -7,14 -19,25 -35,33 -16,8 -33,12 -51,12 -23,0 -43,-5 -62,-15 -19,-10 -34,-25 -45,-45 -11,-20 -17,-42 -17,-67zm49 -1c0,25 8,44 23,59 15,15 34,22 57,22 10,0 20,-2 30,-5 10,-4 18,-9 26,-15 8,-7 14,-15 19,-26 5,-10 7,-22 7,-34 0,-25 -8,-45 -23,-60 -16,-15 -35,-22 -58,-22 -22,0 -41,8 -57,23 -15,15 -23,35 -23,58zm272 -1c0,-25 6,-48 17,-67 11,-20 27,-35 45,-45 19,-10 40,-15 62,-15 18,0 35,4 51,11 16,7 28,18 35,31l0 -37 48 0 0 245 -48 0 0 -38c-8,13 -20,24 -36,32 -16,8 -33,11 -51,11 -35,0 -64,-12 -88,-36 -24,-24 -36,-55 -36,-93zm49 0c0,24 8,43 23,59 15,15 34,23 57,23 23,0 42,-7 58,-22 16,-15 24,-35 24,-60 0,-17 -4,-31 -12,-44 -8,-13 -18,-22 -30,-28 -12,-6 -25,-9 -39,-9 -23,0 -42,7 -57,22 -15,15 -23,34 -23,58zm289 -190c-6,-6 -10,-13 -10,-22 0,-9 3,-16 10,-22 6,-6 14,-9 23,-9 9,0 17,3 24,9 6,6 10,13 10,22 0,9 -3,16 -10,22 -6,6 -14,9 -24,9 -9,0 -17,-3 -23,-9zm-1 314l0 -245 48 0 0 245 -48 0zm128 0l0 -245 48 0 0 37c7,-14 18,-24 32,-31 15,-7 30,-11 44,-11 30,0 54,9 70,28 16,19 24,46 24,80l0 142 -48 0 0 -139c0,-20 -5,-37 -14,-48 -10,-11 -23,-17 -40,-17 -9,0 -18,1 -25,4 -8,3 -15,7 -22,12 -7,6 -12,13 -16,23 -4,9 -6,20 -6,33l0 132 -48 0z"/>
  <path class="fil6" d="M3115 12798l0 -498 187 0c42,0 74,12 98,35 24,23 36,55 36,94 0,23 -5,44 -15,63 -10,19 -25,32 -47,41 26,6 47,21 63,45 16,24 24,50 24,76 0,26 -6,50 -17,72 -11,22 -28,39 -51,52 -22,13 -48,20 -78,20l-202 0zm67 -63l134 0c24,0 43,-8 57,-24 15,-16 22,-35 22,-58 0,-22 -8,-42 -23,-60 -15,-18 -35,-27 -59,-27l-131 0 0 169zm0 -228l121 0c21,0 38,-7 49,-22 12,-14 17,-32 17,-54 0,-22 -7,-38 -20,-50 -13,-12 -31,-18 -54,-18l-113 0 0 144zm374 291l0 -521 66 0 0 521 -66 0zm171 -142l0 -195 66 0 0 191c0,28 6,50 20,66 13,16 31,24 54,24 12,0 24,-2 35,-5 11,-3 21,-9 30,-16 9,-7 16,-18 22,-31 5,-13 8,-28 8,-46l0 -182 66 0 0 337 -66 0 0 -50c-9,19 -24,33 -44,43 -20,10 -40,15 -61,15 -42,0 -74,-13 -97,-39 -23,-26 -34,-63 -33,-110zm388 -28c0,-52 16,-94 49,-127 33,-32 74,-48 123,-48 49,0 89,16 120,48 31,32 47,74 47,127 0,13 0,21 -1,26l-274 0c4,28 16,50 36,67 20,17 44,25 73,25 20,0 39,-5 57,-14 17,-9 31,-22 40,-38 7,3 17,7 30,12 14,5 22,9 26,10 -14,29 -35,51 -63,66 -28,15 -59,23 -92,23 -49,0 -90,-16 -123,-49 -33,-33 -50,-75 -50,-128zm66 -25l209 0c-4,-28 -15,-50 -34,-66 -19,-16 -41,-24 -69,-24 -28,0 -52,8 -72,24 -20,16 -31,38 -35,66zm521 95l61 0c1,8 4,15 9,22 5,7 11,13 18,17 15,9 33,13 53,12 15,-1 27,-6 37,-14 9,-8 14,-18 14,-31 0,-12 -4,-21 -12,-28 -8,-7 -19,-12 -33,-15l-46 -11c-32,-9 -56,-22 -71,-39 -15,-17 -22,-41 -19,-71 2,-24 15,-45 38,-61 23,-16 49,-25 79,-25 15,0 28,2 41,5 13,3 24,9 35,16 11,7 20,17 26,30 7,12 11,27 12,43l-61 0c-2,-12 -7,-21 -17,-28 -10,-7 -21,-10 -35,-10 -12,0 -23,3 -33,9 -10,6 -15,13 -18,22 -3,11 -3,20 1,27 5,11 18,20 39,26l50 12c58,14 88,47 89,98 0,30 -13,54 -38,73 -26,18 -57,27 -94,27 -21,0 -40,-4 -59,-12 -19,-8 -34,-21 -47,-37 -13,-17 -19,-36 -20,-58zm337 -42l0 -195 66 0 0 191c0,28 6,50 20,66 13,16 31,24 54,24 12,0 24,-2 35,-5 11,-3 21,-9 30,-16 9,-7 16,-18 22,-31 5,-13 8,-28 8,-46l0 -182 66 0 0 337 -66 0 0 -50c-9,19 -24,33 -44,43 -20,10 -40,15 -61,15 -42,0 -74,-13 -97,-39 -23,-26 -34,-63 -33,-110zm388 -28c0,-52 16,-94 49,-127 33,-32 74,-48 123,-48 49,0 89,16 120,48 31,32 47,74 47,127 0,13 0,21 -1,26l-274 0c4,28 16,50 36,67 20,17 44,25 73,25 20,0 39,-5 57,-14 17,-9 31,-22 40,-38 7,3 17,7 30,12 14,5 22,9 26,10 -14,29 -35,51 -63,66 -28,15 -59,23 -92,23 -49,0 -90,-16 -123,-49 -33,-33 -50,-75 -50,-128zm66 -25l209 0c-4,-28 -15,-50 -34,-66 -19,-16 -41,-24 -69,-24 -28,0 -52,8 -72,24 -20,16 -31,38 -35,66zm336 26c0,-35 8,-66 23,-93 16,-27 36,-48 62,-62 26,-14 54,-21 85,-21 26,0 49,5 71,15 21,10 38,24 48,43l0 -234 66 0 0 521 -66 0 0 -52c-11,19 -27,33 -49,43 -22,10 -45,16 -69,16 -31,0 -59,-7 -85,-21 -26,-14 -46,-35 -62,-62 -16,-27 -23,-58 -23,-93zm67 -1c0,33 10,60 31,81 21,21 47,32 78,32 31,0 58,-10 79,-30 22,-20 33,-48 33,-82 0,-23 -6,-43 -17,-61 -11,-17 -25,-30 -42,-38 -17,-8 -34,-12 -53,-12 -31,0 -57,10 -78,31 -21,20 -31,47 -31,80zm375 0c0,-52 16,-94 49,-127 33,-32 74,-48 123,-48 49,0 89,16 120,48 31,32 47,74 47,127 0,13 0,21 -1,26l-274 0c4,28 16,50 36,67 20,17 44,25 73,25 20,0 39,-5 57,-14 17,-9 31,-22 40,-38 7,3 17,7 30,12 14,5 22,9 26,10 -14,29 -35,51 -63,66 -28,15 -59,23 -92,23 -49,0 -90,-16 -123,-49 -33,-33 -50,-75 -50,-128zm66 -25l209 0c-4,-28 -15,-50 -34,-66 -19,-16 -41,-24 -69,-24 -28,0 -52,8 -72,24 -20,16 -31,38 -35,66zm548 118c-17,-27 -25,-58 -25,-93 0,-34 8,-65 25,-92 17,-27 39,-47 66,-61 27,-14 57,-21 89,-21 26,0 50,5 72,14 23,10 42,23 58,40l-50 42c-21,-21 -48,-32 -80,-32 -31,0 -58,10 -80,31 -22,20 -33,47 -33,80 0,33 11,60 33,81 22,21 49,32 80,32 32,0 59,-11 80,-33l51 42c-16,18 -35,31 -58,41 -23,10 -47,14 -73,14 -32,0 -62,-7 -89,-22 -27,-14 -49,-35 -66,-63zm367 77l0 -521 66 0 0 234c9,-19 25,-33 47,-43 22,-10 43,-15 65,-15 43,0 76,13 100,39 24,26 36,63 36,110l0 195 -66 0 0 -191c0,-28 -7,-49 -22,-65 -15,-16 -34,-24 -57,-24 -12,0 -24,2 -36,5 -12,4 -23,9 -33,16 -10,7 -19,17 -25,31 -6,13 -9,28 -9,46l0 182 -66 0zm396 -169c0,-35 8,-66 24,-93 16,-27 37,-48 62,-62 26,-14 54,-21 85,-21 25,0 48,5 70,15 22,10 38,24 49,43l0 -51 66 0 0 337 -66 0 0 -52c-11,19 -27,33 -49,43 -22,10 -45,16 -69,16 -47,0 -88,-16 -121,-49 -33,-33 -50,-75 -50,-127zm67 -1c0,33 11,60 32,81 21,21 47,32 78,32 31,0 58,-10 79,-30 22,-20 33,-48 33,-82 0,-23 -6,-43 -17,-61 -11,-17 -25,-30 -42,-38 -17,-8 -34,-12 -53,-12 -31,0 -57,10 -78,31 -21,20 -32,47 -32,80zm397 -262c-9,-8 -13,-18 -13,-30 0,-12 4,-22 13,-30 9,-8 20,-12 32,-12 13,0 24,4 33,12 9,8 13,18 13,30 0,12 -4,22 -13,30 -9,8 -20,12 -33,12 -12,0 -23,-4 -32,-12zm-1 431l0 -337 66 0 0 337 -66 0zm175 0l0 -337 66 0 0 76c16,-56 48,-83 94,-83 12,0 23,1 34,4 11,3 19,6 25,9l-10 62c-16,-8 -32,-12 -50,-12 -21,0 -39,7 -53,22 -14,14 -24,33 -30,56 -6,23 -9,50 -9,81l0 123 -66 0z"/>
  <path class="fil6" d="M1794 16110l0 -367 49 0 0 367 -49 0zm140 0l0 -249 48 0 0 37c7,-14 18,-24 33,-32 15,-7 30,-11 45,-11 31,0 54,10 71,29 17,19 25,46 25,81l0 144 -48 0 0 -141c0,-21 -5,-37 -15,-49 -10,-12 -23,-17 -40,-17 -9,0 -18,1 -26,4 -8,3 -16,7 -22,12 -7,6 -12,13 -16,23 -4,10 -6,21 -6,33l0 134 -48 0zm300 -318c-6,-6 -10,-13 -10,-22 0,-9 3,-16 10,-22 7,-6 14,-9 24,-9 9,0 17,3 24,9 7,6 10,13 10,22 0,9 -3,16 -10,22 -7,6 -15,9 -24,9 -9,0 -17,-3 -24,-9zm-1 318l0 -249 48 0 0 249 -48 0zm103 -208l0 -41 45 0 0 -93 48 0 0 93 52 0 0 41 -52 0 0 208 -48 0 0 -208 -45 0zm201 -110c-6,-6 -10,-13 -10,-22 0,-9 3,-16 10,-22 7,-6 14,-9 24,-9 9,0 17,3 24,9 7,6 10,13 10,22 0,9 -3,16 -10,22 -7,6 -15,9 -24,9 -9,0 -17,-3 -24,-9zm-1 318l0 -249 48 0 0 249 -48 0zm113 -124c0,-26 6,-48 17,-68 12,-20 27,-35 46,-46 19,-10 40,-16 63,-16 18,0 35,4 51,11 16,7 28,18 36,32l0 -37 48 0 0 249 -48 0 0 -38c-8,14 -20,24 -36,32 -16,8 -33,11 -51,11 -35,0 -65,-12 -89,-36 -25,-24 -37,-55 -37,-94zm50 0c0,24 8,44 23,59 16,16 35,23 57,23 23,0 43,-7 59,-22 16,-15 24,-35 24,-61 0,-17 -4,-32 -13,-45 -8,-13 -19,-22 -31,-28 -12,-6 -25,-9 -39,-9 -23,0 -42,8 -58,23 -16,15 -23,35 -23,59zm267 -83l0 -41 45 0 0 -93 48 0 0 93 52 0 0 41 -52 0 0 208 -48 0 0 -208 -45 0zm180 83c0,-38 12,-70 36,-93 24,-24 55,-36 91,-36 36,0 65,12 89,35 23,24 35,55 35,93 0,9 0,16 -1,19l-202 0c3,21 12,37 27,49 15,12 33,18 54,18 15,0 29,-3 42,-10 13,-7 23,-16 29,-28 5,2 12,5 22,9 10,4 16,6 19,7 -10,21 -26,37 -46,49 -21,11 -43,17 -68,17 -36,0 -66,-12 -91,-36 -24,-24 -37,-56 -37,-94zm48 -19l154 0c-3,-21 -11,-37 -25,-49 -14,-12 -31,-18 -51,-18 -21,0 -38,6 -53,18 -14,12 -23,28 -26,49zm247 19c0,-26 6,-48 17,-68 11,-20 27,-35 45,-46 19,-10 40,-16 63,-16 19,0 36,4 52,11 16,7 28,18 36,32l0 -173 48 0 0 384 -48 0 0 -38c-8,14 -20,24 -36,32 -16,8 -33,11 -51,11 -23,0 -44,-5 -63,-16 -19,-11 -34,-26 -46,-46 -12,-20 -17,-43 -17,-68zm50 0c0,24 8,44 23,59 15,16 35,23 57,23 23,0 42,-7 58,-22 16,-15 24,-35 24,-60 0,-17 -4,-32 -13,-45 -8,-13 -19,-22 -31,-28 -12,-6 -25,-9 -39,-9 -23,0 -42,8 -57,23 -15,15 -23,35 -23,59z"/>
  <path class="fil7" d="M9796 16102l0 -367 49 0 0 367 -49 0zm140 0l0 -249 48 0 0 37c7,-14 18,-24 33,-32 15,-7 30,-11 45,-11 31,0 54,10 71,29 17,19 25,46 25,81l0 144 -48 0 0 -141c0,-21 -5,-37 -15,-49 -10,-12 -23,-17 -40,-17 -9,0 -18,1 -26,4 -8,3 -16,7 -22,12 -7,6 -12,13 -16,23 -4,10 -6,21 -6,33l0 134 -48 0zm405 -208l0 -41 45 0 0 -93 48 0 0 93 52 0 0 41 -52 0 0 208 -48 0 0 -208 -45 0zm200 208l0 -249 48 0 0 56c12,-41 35,-61 69,-61 9,0 17,1 25,3 8,2 14,4 18,7l-8 45c-12,-6 -24,-9 -37,-9 -15,0 -28,5 -39,16 -10,11 -18,24 -22,42 -5,17 -7,37 -7,60l0 90 -48 0zm187 -124c0,-26 6,-48 17,-68 12,-20 27,-35 46,-46 19,-10 40,-16 63,-16 18,0 35,4 51,11 16,7 28,18 36,32l0 -37 48 0 0 249 -48 0 0 -38c-8,14 -20,24 -36,32 -16,8 -33,11 -51,11 -35,0 -65,-12 -89,-36 -25,-24 -37,-55 -37,-94zm50 0c0,24 8,44 23,59 16,16 35,23 57,23 23,0 43,-7 59,-22 16,-15 24,-35 24,-61 0,-17 -4,-32 -13,-45 -8,-13 -19,-22 -31,-28 -12,-6 -25,-9 -39,-9 -23,0 -42,8 -58,23 -16,15 -23,35 -23,59zm293 125l0 -249 48 0 0 37c7,-14 18,-24 33,-32 15,-7 30,-11 45,-11 31,0 54,10 71,29 17,19 25,46 25,81l0 144 -48 0 0 -141c0,-21 -5,-37 -15,-49 -10,-12 -23,-17 -40,-17 -9,0 -18,1 -26,4 -8,3 -16,7 -22,12 -7,6 -12,13 -16,23 -4,10 -6,21 -6,33l0 134 -48 0zm282 -74l45 0c1,6 3,11 7,16 4,5 8,9 14,12 11,7 24,10 39,9 11,-1 20,-4 27,-10 7,-6 10,-14 11,-23 0,-9 -3,-16 -9,-21 -6,-5 -14,-9 -24,-11l-34 -8c-24,-6 -41,-16 -53,-29 -11,-13 -16,-30 -14,-52 2,-18 11,-33 28,-45 17,-12 36,-18 59,-18 11,0 21,1 30,4 9,3 18,7 26,12 8,5 14,13 19,22 5,9 8,20 9,32l-45 0c-1,-9 -5,-16 -13,-20 -7,-5 -16,-7 -26,-7 -9,0 -17,2 -24,6 -7,4 -11,10 -13,16 -2,8 -2,15 1,20 4,8 13,15 29,19l37 9c43,11 65,35 66,72 0,22 -9,40 -28,53 -19,13 -42,20 -69,20 -15,0 -30,-3 -44,-9 -14,-6 -25,-15 -35,-28 -9,-12 -14,-27 -15,-43zm252 -244c-6,-6 -10,-13 -10,-22 0,-9 3,-16 10,-22 7,-6 14,-9 24,-9 9,0 17,3 24,9 7,6 10,13 10,22 0,9 -3,16 -10,22 -7,6 -15,9 -24,9 -9,0 -17,-3 -24,-9zm-1 318l0 -249 48 0 0 249 -48 0zm103 -208l0 -41 45 0 0 -93 48 0 0 93 52 0 0 41 -52 0 0 208 -48 0 0 -208 -45 0z"/>
  <path class="fil6" d="M5796 16039l0 -367 142 0c25,0 49,5 70,14 21,9 38,22 52,39 14,17 24,36 32,58 8,22 11,47 11,73 0,26 -4,50 -11,72 -8,22 -18,41 -32,58 -14,16 -31,29 -52,38 -21,9 -44,14 -70,14l-142 0zm49 -46l93 0c19,0 35,-3 50,-10 15,-7 27,-17 36,-29 9,-12 17,-27 22,-43 5,-16 8,-34 8,-54 0,-26 -4,-49 -13,-70 -8,-20 -22,-37 -39,-49 -18,-12 -39,-19 -64,-19l-93 0 0 274zm324 -271c-6,-6 -10,-13 -10,-22 0,-9 3,-16 10,-22 7,-6 14,-9 24,-9 9,0 17,3 24,9 7,6 10,13 10,22 0,9 -3,16 -10,22 -7,6 -15,9 -24,9 -9,0 -17,-3 -24,-9zm-1 318l0 -249 48 0 0 249 -48 0zm111 -74l45 0c1,6 3,11 7,16 4,5 8,9 14,12 11,7 24,10 39,9 11,-1 20,-4 27,-10 7,-6 10,-14 11,-23 0,-9 -3,-16 -9,-21 -6,-5 -14,-9 -24,-11l-34 -8c-24,-6 -41,-16 -53,-29 -11,-13 -16,-30 -14,-52 2,-18 11,-33 28,-45 17,-12 36,-18 59,-18 11,0 21,1 30,4 9,3 18,7 26,12 8,5 14,13 19,22 5,9 8,20 9,32l-45 0c-1,-9 -5,-16 -13,-20 -7,-5 -16,-7 -26,-7 -9,0 -17,2 -24,6 -7,4 -11,10 -13,16 -2,8 -2,15 1,20 4,8 13,15 29,19l37 9c43,11 65,35 66,72 0,22 -9,40 -28,53 -19,13 -42,20 -69,20 -15,0 -30,-3 -44,-9 -14,-6 -25,-15 -35,-28 -9,-12 -14,-27 -15,-43zm252 195l0 -369 48 0 0 39c8,-14 20,-25 36,-32 16,-8 33,-12 51,-12 35,0 64,12 88,36 24,24 36,56 36,94 0,25 -6,48 -17,68 -11,20 -26,35 -45,45 -19,10 -39,15 -62,15 -18,0 -35,-4 -51,-11 -16,-7 -28,-18 -35,-32l0 158 -48 0zm49 -244c0,25 8,45 24,59 16,14 35,22 57,22 23,0 42,-7 57,-22 15,-15 23,-34 23,-58 0,-24 -8,-44 -23,-60 -16,-16 -35,-24 -57,-24 -23,0 -42,8 -58,23 -16,15 -24,35 -24,61zm259 -2c0,-26 6,-48 17,-68 12,-20 27,-35 46,-46 19,-10 40,-16 63,-16 18,0 35,4 51,11 16,7 28,18 36,32l0 -37 48 0 0 249 -48 0 0 -38c-8,14 -20,24 -36,32 -16,8 -33,11 -51,11 -35,0 -65,-12 -89,-36 -25,-24 -37,-55 -37,-94zm50 0c0,24 8,44 23,59 16,16 35,23 57,23 23,0 43,-7 59,-22 16,-15 24,-35 24,-61 0,-17 -4,-32 -13,-45 -8,-13 -19,-22 -31,-28 -12,-6 -25,-9 -39,-9 -23,0 -42,8 -58,23 -16,15 -23,35 -23,59zm267 -83l0 -41 45 0 0 -93 48 0 0 93 52 0 0 41 -52 0 0 208 -48 0 0 -208 -45 0zm199 151c-12,-20 -18,-43 -18,-68 0,-25 6,-48 18,-68 12,-20 28,-35 48,-45 20,-10 42,-16 65,-16 19,0 37,3 53,10 17,7 31,17 43,30l-37 31c-16,-16 -35,-23 -59,-23 -23,0 -43,8 -59,23 -16,15 -24,35 -24,59 0,24 8,44 25,60 16,16 36,23 59,23 24,0 43,-8 59,-24l37 31c-12,13 -26,23 -43,30 -17,7 -35,11 -54,11 -24,0 -45,-5 -65,-16 -20,-11 -36,-26 -48,-46zm270 57l0 -384 48 0 0 173c7,-14 18,-24 34,-32 16,-7 32,-11 48,-11 31,0 56,10 74,29 18,19 27,46 27,81l0 144 -48 0 0 -141c0,-20 -5,-36 -16,-48 -11,-12 -25,-18 -42,-18 -9,0 -18,1 -26,4 -9,3 -17,7 -24,12 -8,5 -14,13 -18,23 -5,10 -7,21 -7,34l0 134 -48 0zm292 -125c0,-38 12,-70 36,-93 24,-24 55,-36 91,-36 36,0 65,12 89,35 23,24 35,55 35,93 0,9 0,16 -1,19l-202 0c3,21 12,37 27,49 15,12 33,18 54,18 15,0 29,-3 42,-10 13,-7 23,-16 29,-28 5,2 12,5 22,9 10,4 16,6 19,7 -10,21 -26,37 -46,49 -21,11 -43,17 -68,17 -36,0 -66,-12 -91,-36 -24,-24 -37,-56 -37,-94zm48 -19l154 0c-3,-21 -11,-37 -25,-49 -14,-12 -31,-18 -51,-18 -21,0 -38,6 -53,18 -14,12 -23,28 -26,49zm247 19c0,-26 6,-48 17,-68 11,-20 27,-35 45,-46 19,-10 40,-16 63,-16 19,0 36,4 52,11 16,7 28,18 36,32l0 -173 48 0 0 384 -48 0 0 -38c-8,14 -20,24 -36,32 -16,8 -33,11 -51,11 -23,0 -44,-5 -63,-16 -19,-11 -34,-26 -46,-46 -12,-20 -17,-43 -17,-68zm50 0c0,24 8,44 23,59 15,16 35,23 57,23 23,0 42,-7 58,-22 16,-15 24,-35 24,-60 0,-17 -4,-32 -13,-45 -8,-13 -19,-22 -31,-28 -12,-6 -25,-9 -39,-9 -23,0 -42,8 -57,23 -15,15 -23,35 -23,59z"/>
  <path class="fil7" d="M13798 16110l0 -367 142 0c25,0 49,5 70,14 21,9 38,22 52,39 14,17 24,36 32,58 8,22 11,47 11,73 0,26 -4,50 -11,72 -8,22 -18,41 -32,58 -14,16 -31,29 -52,38 -21,9 -44,14 -70,14l-142 0zm49 -46l93 0c19,0 35,-3 50,-10 15,-7 27,-17 36,-29 9,-12 17,-27 22,-43 5,-16 8,-34 8,-54 0,-26 -4,-49 -13,-70 -8,-20 -22,-37 -39,-49 -18,-12 -39,-19 -64,-19l-93 0 0 274zm310 -79c0,-38 12,-70 36,-93 24,-24 55,-36 91,-36 36,0 65,12 89,35 23,24 35,55 35,93 0,9 0,16 -1,19l-202 0c3,21 12,37 27,49 15,12 33,18 54,18 15,0 29,-3 42,-10 13,-7 23,-16 29,-28 5,2 12,5 22,9 10,4 16,6 19,7 -10,21 -26,37 -46,49 -21,11 -43,17 -68,17 -36,0 -66,-12 -91,-36 -24,-24 -37,-56 -37,-94zm48 -19l154 0c-3,-21 -11,-37 -25,-49 -14,-12 -31,-18 -51,-18 -21,0 -38,6 -53,18 -14,12 -23,28 -26,49zm264 144l0 -384 48 0 0 384 -48 0zm129 -318c-6,-6 -10,-13 -10,-22 0,-9 3,-16 10,-22 7,-6 14,-9 24,-9 9,0 17,3 24,9 7,6 10,13 10,22 0,9 -3,16 -10,22 -7,6 -15,9 -24,9 -9,0 -17,-3 -24,-9zm-1 318l0 -249 48 0 0 249 -48 0zm98 -249l51 0 76 187 75 -187 52 0 -150 249 -103 -249zm280 124c0,-38 12,-70 36,-93 24,-24 55,-36 91,-36 36,0 65,12 89,35 23,24 35,55 35,93 0,9 0,16 -1,19l-202 0c3,21 12,37 27,49 15,12 33,18 54,18 15,0 29,-3 42,-10 13,-7 23,-16 29,-28 5,2 12,5 22,9 10,4 16,6 19,7 -10,21 -26,37 -46,49 -21,11 -43,17 -68,17 -36,0 -66,-12 -91,-36 -24,-24 -37,-56 -37,-94zm48 -19l154 0c-3,-21 -11,-37 -25,-49 -14,-12 -31,-18 -51,-18 -21,0 -38,6 -53,18 -14,12 -23,28 -26,49zm264 144l0 -249 48 0 0 56c12,-41 35,-61 69,-61 9,0 17,1 25,3 8,2 14,4 18,7l-8 45c-12,-6 -24,-9 -37,-9 -15,0 -28,5 -39,16 -10,11 -18,24 -22,42 -5,17 -7,37 -7,60l0 90 -48 0zm187 -125c0,-38 12,-70 36,-93 24,-24 55,-36 91,-36 36,0 65,12 89,35 23,24 35,55 35,93 0,9 0,16 -1,19l-202 0c3,21 12,37 27,49 15,12 33,18 54,18 15,0 29,-3 42,-10 13,-7 23,-16 29,-28 5,2 12,5 22,9 10,4 16,6 19,7 -10,21 -26,37 -46,49 -21,11 -43,17 -68,17 -36,0 -66,-12 -91,-36 -24,-24 -37,-56 -37,-94zm48 -19l154 0c-3,-21 -11,-37 -25,-49 -14,-12 -31,-18 -51,-18 -21,0 -38,6 -53,18 -14,12 -23,28 -26,49zm247 19c0,-26 6,-48 17,-68 11,-20 27,-35 45,-46 19,-10 40,-16 63,-16 19,0 36,4 52,11 16,7 28,18 36,32l0 -173 48 0 0 384 -48 0 0 -38c-8,14 -20,24 -36,32 -16,8 -33,11 -51,11 -23,0 -44,-5 -63,-16 -19,-11 -34,-26 -46,-46 -12,-20 -17,-43 -17,-68zm50 0c0,24 8,44 23,59 15,16 35,23 57,23 23,0 42,-7 58,-22 16,-15 24,-35 24,-60 0,-17 -4,-32 -13,-45 -8,-13 -19,-22 -31,-28 -12,-6 -25,-9 -39,-9 -23,0 -42,8 -57,23 -15,15 -23,35 -23,59z"/>
  <rect class="fil4" x="1221" y="3901" width="14437" height="9538" rx="405" ry="405"/>
  <g id="_746601984">
   <path class="fil8" d="M7719 6435l-30 130 -2562 585c-74,26 -113,90 -116,195l22 2753c-12,80 18,99 79,72l2588 -990 306 76 -2830 1077c-69,39 -360,-44 -380,-141l-31 -2886c-5,-139 65,-220 198,-254l2756 -616z"/>
   <polygon class="fil8" points="11339,8343 11852,8451 11853,8577 11330,8442 "/>
   <path class="fil8" d="M11670 6957l-2844 818c-226,47 -324,165 -286,358l-47 3024c7,174 338,258 443,198l2999 -1438c118,-32 165,-129 179,-258l-17 -2556c-19,-129 -152,-184 -427,-146zm168 113l-2837 820c-122,51 -180,137 -168,264l-64 3035 3009 -1423c63,-23 82,-93 86,-179l-26 -2517z"/>
   <path class="fil9" d="M11221 8797l-374 46c96,-193 114,-406 82,-631 45,-1 70,-34 75,-100l128 -839 414 -120c-83,555 -170,1075 -265,1528l-22 83 -38 32zm-63 -1694l245 -1613 46 -191 35 -47 42 -34 57 -8 74 1 82 6 50 0 20 13 -1 69 -24 122c-70,531 -140,1060 -214,1563l-413 119z"/>
   <path class="fil8" d="M11809 5231l-45 -57 -122 -60 -151 -38 -192 -41c-1010,-181 -2020,-296 -3031,-327l-126 28 -129 82 -57 148 -72 248c-41,468 -92,924 -192,1325l-174 891c632,75 1199,153 1681,235l1962 -564 275 -1753c18,-81 59,-122 117,-135l255 16zm-2258 2499c764,147 1257,306 1378,482 52,-3 81,-48 82,-142l125 -798 -1585 458z"/>
   <path class="fil9" d="M5023 7770l67 -50 220 -82 386 -72 524 -79 509 -31 389 -22 364 6 72 -16c595,78 1157,158 1646,242l-377 108c-226,47 -324,165 -286,358l-6 382 -4 1 -3506 -746zm4529 -40c747,144 1268,301 1377,483 38,228 6,437 -82,631l-2019 352 -19 12 22 -1054c-12,-126 46,-213 168,-264l552 -159z"/>
   <polygon class="fil8" points="5020,8517 5015,7781 5058,7770 5675,7909 8530,8515 8529,8861 8521,9382 "/>
  </g>
  <path class="fil10" d="M2242 12117c234,0 423,190 423,423 0,234 -190,423 -423,423 -234,0 -423,-190 -423,-423 0,-234 190,-423 423,-423z"/>
  <rect class="fil11" x="13635" y="12413" width="1235" height="255" rx="69" ry="69"/>
  <g id="_749134272">
   <g>
    <path class="fil12" d="M2039 12430l307 234 -33 8c-89,22 -181,-2 -245,-67 -46,-47 -72,-109 -72,-175 -1,-164 156,-282 314,-243l33 8 -304 235z"/>
    <path id="1" class="fil13" d="M2342 12670l-307 -234 9 -12 307 234 -3 13 -6 -1zm9 -12l13 10 -15 4 3 -13zm-39 7l33 -8 4 15 -33 8 0 0 -4 -15zm-249 -55l11 -11 0 0 6 6 6 6 6 5 6 5 7 5 7 5 7 4 7 4 7 4 7 4 7 3 7 3 7 3 7 3 8 2 8 2 8 2 8 2 8 1 8 1 8 1 8 1 8 0 8 0 8 0 8 0 8 -1 8 -1 8 -1 8 -1 8 -2 8 -2 4 15 -9 2 -9 2 -9 1 -9 1 -9 1 -9 1 -9 0 -9 0 -9 0 -8 0 -8 -1 -8 -1 -8 -1 -8 -2 -8 -2 -8 -2 -8 -2 -8 -3 -8 -3 -8 -3 -8 -3 -8 -4 -8 -4 -7 -4 -7 -4 -7 -5 -7 -5 -7 -5 -7 -5 -7 -6 -6 -6 -6 -6 0 0zm-74 -180l15 0 0 0 0 6 0 6 0 6 1 6 1 6 1 6 1 6 1 6 1 6 1 6 1 6 2 6 2 6 2 6 2 5 2 5 2 5 2 5 3 5 3 5 3 5 3 5 3 5 3 5 3 5 3 5 4 5 4 5 4 5 4 4 4 4 4 4 -11 11 -4 -5 -4 -5 -4 -5 -4 -5 -4 -5 -4 -5 -4 -5 -4 -5 -3 -5 -3 -5 -3 -5 -3 -5 -3 -6 -3 -6 -3 -6 -2 -6 -2 -6 -2 -6 -2 -6 -2 -6 -2 -6 -2 -6 -1 -6 -1 -6 -1 -6 -1 -6 -1 -6 -1 -6 -1 -6 0 -6 0 -6 0 -6 0 0zm324 -250l-4 15 0 0 -14 -3 -14 -2 -14 -1 -14 -1 -14 0 -14 1 -14 2 -14 3 -13 3 -13 4 -13 5 -12 5 -12 6 -12 7 -11 7 -11 8 -10 8 -10 9 -9 10 -9 10 -8 11 -8 11 -7 12 -7 12 -6 12 -5 13 -4 13 -4 14 -3 14 -2 14 -1 15 0 15 -15 0 0 -16 1 -15 2 -15 3 -15 4 -14 5 -14 6 -14 6 -13 7 -13 8 -12 8 -12 9 -11 10 -11 10 -10 11 -10 11 -9 12 -8 12 -8 12 -7 13 -6 13 -6 14 -5 14 -4 14 -4 14 -3 15 -2 15 -1 15 0 15 1 15 1 15 2 15 3 0 0zm29 23l-33 -8 4 -15 33 8 3 13 -6 1zm4 -15l15 4 -12 10 -3 -13zm-311 236l304 -235 9 12 -304 235 -9 0 0 -12zm0 12l-8 -6 8 -6 0 12z"/>
   </g>
   <g>
    <path class="fil14" d="M2444 12652l-304 -235 33 -8c158,-39 315,78 314,243 0,66 -26,128 -72,175 -64,65 -157,89 -245,67l-33 -8 307 -234z"/>
    <path id="1" class="fil15" d="M2145 12411l304 235 -9 12 -304 -235 3 -13 6 1zm-9 12l-12 -10 15 -4 -3 13zm39 -7l-33 8 -4 -15 33 -8 4 15zm320 236l-15 0 0 0 0 -15 -1 -15 -2 -14 -3 -14 -4 -14 -4 -13 -5 -13 -6 -12 -7 -12 -7 -12 -8 -11 -8 -11 -9 -10 -9 -10 -10 -9 -10 -8 -11 -8 -11 -7 -12 -7 -12 -6 -12 -5 -13 -5 -13 -4 -13 -3 -14 -3 -14 -2 -14 -1 -14 0 -14 1 -14 1 -14 2 -14 3 -4 -15 15 -3 15 -2 15 -1 15 -1 15 0 15 1 15 2 14 3 14 4 14 4 14 5 13 6 13 6 12 7 12 8 12 8 11 9 11 10 10 10 10 11 9 11 8 12 8 12 7 13 6 13 6 14 5 14 4 14 3 15 2 15 1 15 0 16 0 0zm-74 180l-11 -11 0 0 4 -4 4 -4 4 -4 4 -5 4 -5 4 -5 3 -5 3 -5 3 -5 3 -5 3 -5 3 -5 3 -5 3 -5 2 -5 2 -5 2 -5 2 -5 2 -6 2 -6 2 -6 1 -6 1 -6 1 -6 1 -6 1 -6 1 -6 1 -6 1 -6 0 -6 0 -6 0 -6 15 0 0 6 0 6 0 6 -1 6 -1 6 -1 6 -1 6 -1 6 -1 6 -1 6 -2 6 -2 6 -2 6 -2 6 -2 6 -2 6 -2 6 -3 6 -3 6 -3 6 -3 5 -3 5 -3 5 -3 5 -4 5 -4 5 -4 5 -4 5 -4 5 -4 5 -4 5 -4 5 0 0zm-253 69l4 -15 0 0 8 2 8 2 8 1 8 1 8 1 8 1 8 0 8 0 8 0 8 0 8 -1 8 -1 8 -1 8 -1 8 -2 8 -2 8 -2 8 -2 7 -3 7 -3 7 -3 7 -3 7 -4 7 -4 7 -4 7 -4 7 -5 7 -5 6 -5 6 -5 6 -6 6 -6 11 11 -6 6 -6 6 -7 6 -7 5 -7 5 -7 5 -7 5 -7 4 -7 4 -8 4 -8 4 -8 3 -8 3 -8 3 -8 3 -8 2 -8 2 -8 2 -8 2 -8 1 -8 1 -8 1 -8 0 -9 0 -9 0 -9 0 -9 -1 -9 -1 -9 -1 -9 -1 -9 -2 -9 -2 0 0zm-29 -23l33 8 -4 15 -33 -8 -3 -13 6 -1zm-4 15l-15 -4 13 -10 3 13zm314 -235l-307 234 -9 -12 307 -234 9 0 0 12zm0 -12l8 6 -8 6 0 -12z"/>
   </g>
  </g>
  <rect class="fil16" x="1803" y="16626" width="3557" height="260" rx="130" ry="130"/>
  <rect class="fil16" x="5802" y="16626" width="3557" height="260" rx="130" ry="130"/>
  <rect class="fil17" x="9801" y="16626" width="3557" height="260" rx="130" ry="130"/>
  <rect class="fil17" x="13800" y="16626" width="3557" height="260" rx="130" ry="130"/>
 </g>
</svg>
