<?xml version="1.0" encoding="UTF-8"?>
<!DOCTYPE svg PUBLIC "-//W3C//DTD SVG 1.1//EN" "http://www.w3.org/Graphics/SVG/1.1/DTD/svg11.dtd">
<!-- Creator: CorelDRAW X6 -->
<svg xmlns="http://www.w3.org/2000/svg" xml:space="preserve" width="188.114mm" height="188.218mm" version="1.1" style="shape-rendering:geometricPrecision; text-rendering:geometricPrecision; image-rendering:optimizeQuality; fill-rule:evenodd; clip-rule:evenodd"
viewBox="0 0 19002 19012"
 xmlns:xlink="http://www.w3.org/1999/xlink">
 <defs>
  <style type="text/css">
   <![CDATA[
    .fil1 {fill:#13ECAB}
    .fil2 {fill:#4C57FF}
    .fil3 {fill:#62C6A3}
    .fil0 {fill:#C834F7}
    .fil4 {fill:url(#id0)}
    .fil5 {fill:url(#id1)}
   ]]>
  </style>
  <linearGradient id="id0" gradientUnits="objectBoundingBox" x1="78.6096%" y1="9.81818%" x2="21.3904%" y2="90.1818%">
   <stop offset="0" style="stop-color:#4C57FF"/>
   <stop offset="1" style="stop-color:#13ECAB"/>
  </linearGradient>
  <linearGradient id="id1" gradientUnits="objectBoundingBox" x1="72.2444%" y1="13.0045%" x2="27.7556%" y2="86.9955%">
   <stop offset="0" style="stop-color:#13ECAB"/>
   <stop offset="1" style="stop-color:#FEFEFE"/>
  </linearGradient>
 </defs>
 <g id="Layer_x0020_1">
  <metadata id="CorelCorpID_0Corel-Layer"/>
  <g id="_302860712">
   <g>
    <rect class="fil0" width="19002" height="11465" rx="689" ry="413"/>
    <rect class="fil2" x="157" y="13948" width="6587" height="1283" rx="343" ry="424"/>
    <rect class="fil2" x="157" y="15834" width="6587" height="1283" rx="343" ry="424"/>
    <rect class="fil2" x="7392" y="13948" width="11453" height="1283" rx="597" ry="424"/>
    <rect class="fil2" x="7392" y="15834" width="11453" height="1283" rx="597" ry="424"/>
    <rect class="fil2" x="2064" y="12061" width="4685" height="1283" rx="244" ry="424"/>
    <rect class="fil2" x="7362" y="12061" width="9652" height="1283" rx="503" ry="424"/>
    <rect class="fil2" x="157" y="15834" width="1306" height="1283" rx="68" ry="424"/>
    <rect class="fil2" y="13948" width="6587" height="1283" rx="343" ry="424"/>
    <rect class="fil2" y="15834" width="6587" height="1283" rx="343" ry="424"/>
    <rect class="fil2" x="7349" y="13948" width="11653" height="1283" rx="607" ry="424"/>
    <rect class="fil2" x="7349" y="15834" width="11653" height="1283" rx="607" ry="424"/>
    <path class="fil1" d="M424 17692l457 0c234,0 425,191 425,424l0 434c0,234 -191,425 -425,425l-457 0c-233,0 -424,-191 -424,-425l0 -434c0,-233 191,-424 424,-424zm-37 495l127 0c7,-103 56,-158 137,-157 87,2 138,49 145,157l122 0 0 450 -531 0 0 -450zm180 0l171 0c3,-140 -181,-120 -171,0z"/>
    <path class="fil1" d="M18121 17730l457 0c233,0 424,190 424,424l0 434c0,233 -191,424 -424,424l-457 0c-234,0 -425,-191 -425,-424l0 -434c0,-234 191,-424 425,-424zm225 340l-99 200 -217 25 155 156 -31 220 193 -100 196 101 -39 -221 164 -154 -224 -31 -98 -196z"/>
    <path class="fil1" d="M424 12061l457 0c234,0 425,191 425,424l0 434c0,234 -191,425 -425,425l-457 0c-233,0 -424,-191 -424,-425l0 -434c0,-233 191,-424 424,-424zm191 929c-157,-17 -281,-142 -298,-298l298 0 0 298zm374 -298c-17,157 -142,281 -298,298l0 -298 298 0zm-374 -76l-298 0c8,-78 44,-149 97,-202l201 202 0 0 0 0zm278 -201c52,53 88,123 96,201l-298 0 202 -201z"/>
    <path class="fil1" d="M7774 17711l456 0c234,0 425,191 425,424l0 434c0,234 -191,425 -425,425l-456 0c-234,0 -425,-191 -425,-425l0 -434c0,-233 191,-424 425,-424zm225 431c-37,-94 -201,-87 -265,27 -77,239 188,366 267,460 109,-112 274,-180 282,-399 -27,-160 -207,-206 -284,-88z"/>
    <path class="fil1" d="M18121 12068l457 0c233,0 424,191 424,425l0 434c0,233 -191,424 -424,424l-457 0c-234,0 -425,-191 -425,-424l0 -434c0,-234 191,-425 425,-425zm323 443l104 -100 104 100 -104 99 -104 -99zm-446 372l178 -292c23,-42 61,-40 85,-5l163 275 75 -118c29,-52 72,-49 100,2l83 130 85 134 -133 -2 -129 0 -459 0 -115 -2 67 -122z"/>
   </g>
   <g>
    <g>
     <path class="fil1" d="M10038 3482c-49,-16 -263,56 -321,71 -105,27 -210,51 -317,84 -58,17 -89,31 -146,47 -55,15 -114,25 -164,41l-471 126c-112,24 -102,34 -157,47l-160 37c-54,13 -115,29 -165,42 -107,27 -565,165 -641,152l-4 33c-31,-1 -34,7 -53,12l-396 104c-34,8 -82,17 -114,28l-217 67c-103,30 -72,2 -234,61l-806 208 -31 -2 9 -28c-68,22 -107,64 -192,74 -6,20 40,-11 -37,28l-106 74c-94,67 -167,299 -122,443l57 239c6,22 13,32 18,52 42,170 106,338 137,512l49 174c20,91 -1,41 44,175 6,-38 -2,0 79,-25 186,-58 268,-67 469,-61 37,1 59,6 98,8 64,3 41,3 84,20 45,17 45,-5 166,39 44,16 123,37 161,55 28,13 31,24 65,38 71,30 103,50 158,101 2,1 4,3 5,4l29 32c32,33 153,105 261,241 27,34 47,68 74,103l30 50c13,21 21,34 33,56 44,80 139,289 135,372 39,34 35,95 42,159 16,139 7,423 1,562 -4,119 -68,396 -116,470l-143 240c-34,54 -232,265 -278,299 -87,64 -274,178 -376,203 -28,7 -120,41 -146,52 -3,48 26,152 41,194 24,68 14,126 53,180l-2 -34c33,37 27,79 105,144l112 73c9,4 40,11 50,13 57,17 171,24 234,4l154 -53c19,-7 -18,3 17,-5 38,-10 55,-15 102,-20l393 -110c45,-21 48,-16 93,-30l202 -55c18,-6 293,-61 404,-96 86,-27 56,-10 105,-23 35,-9 58,-22 93,-30l504 -129c24,-9 71,-23 96,-29 40,-10 61,-13 102,-23 33,-8 14,-9 48,-15 43,-9 80,-3 126,-25 69,-34 198,-56 227,-67 112,-40 92,-24 149,-38 62,-16 119,-48 247,-67 20,-2 41,-1 59,-4l62 -26c1,0 25,-8 26,-8l244 -68c83,-25 54,-29 80,-40 55,-26 194,-41 206,-45 127,-42 251,-58 414,-118 42,-16 31,-17 74,-21l205 -49c80,-25 175,-40 297,-78 91,-29 281,-66 372,-100 93,-35 128,-32 195,-91 80,-71 144,-161 173,-263 7,-24 6,-39 12,-59 8,8 6,3 13,17 22,41 23,123 54,170 -10,-72 -34,-138 -50,-200 -21,-78 -36,-133 -56,-206 -20,-70 -105,-357 -104,-412 -5,-15 -16,-29 -23,-53 -5,-19 -6,-51 -11,-79 -9,-48 -37,-97 -31,-153l-734 -2612 -49 -141c-13,-84 -56,-210 -80,-296 -14,-52 -21,-83 -34,-145l-116 -436c-16,-61 -11,-42 -28,-63 -53,-64 -15,-94 -118,-160 -25,-16 -91,-107 -252,-112 -130,-4 -284,65 -449,98 -81,17 -213,82 -297,75z"/>
     <rect class="fil2" transform="matrix(0.778898 -0.233747 0.259694 0.999426 8882.26 5750.88)" width="3695" height="1855" rx="394" ry="394"/>
     <path class="fil2" d="M6423 9775c36,91 59,327 231,418 26,14 51,20 75,33 154,85 287,15 445,-23 16,-4 28,-4 45,-10 26,-8 6,-6 36,-16l271 -56c100,-6 332,-86 458,-117 89,-21 146,-30 225,-60 74,-28 158,-38 232,-62l341 -89c42,-10 72,-28 107,-40 33,-11 248,-52 349,-89l344 -93c128,-34 336,-98 454,-123 47,-9 76,-15 115,-28l578 -154c92,-20 406,-117 474,-123 9,-9 150,-34 179,-43 39,-12 53,-13 94,-23 27,-6 59,-27 89,-22 13,-37 -11,-14 35,-30l353 -92c24,-9 51,-18 72,-23 53,-13 110,-21 159,-41 185,-74 335,-274 286,-492 -31,-47 -32,-129 -54,-170 -7,-14 -5,-9 -13,-17 -6,20 -5,35 -12,59 -29,102 -93,192 -173,263 -67,59 -102,56 -195,91 -91,34 -281,71 -372,100 -122,38 -217,53 -297,78l-205 49c-43,4 -32,5 -74,21 -163,60 -287,76 -414,118 -12,4 -151,19 -206,45 -26,11 3,15 -80,40l-244 68c-1,0 -25,8 -26,8l-62 26c-18,3 -39,2 -59,4 -128,19 -185,51 -247,67 -57,14 -37,-2 -149,38 -29,11 -158,33 -227,67 -46,22 -83,16 -126,25 -34,6 -15,7 -48,15 -41,10 -62,13 -102,23 -25,6 -72,20 -96,29l-504 129c-35,8 -58,21 -93,30 -49,13 -19,-4 -105,23 -111,35 -386,90 -404,96l-202 55c-45,14 -48,9 -93,30l-393 110c-47,5 -64,10 -102,20 -35,8 2,-2 -17,5l-154 53c-63,20 -177,13 -234,-4 -10,-2 -41,-9 -50,-13l-112 -73c-78,-65 -72,-107 -105,-144l2 34z"/>
     <path class="fil2" d="M5762 4557c-38,17 -76,38 -112,55l-9 28 31 2c10,-12 5,-9 21,-18 9,-5 18,-8 26,-10l4616 -1230c-4,-373 -214,-521 -428,-416l-4145 1589z"/>
     <path class="fil3" d="M7038 8896c-11,59 -183,195 -186,199 -36,41 -73,60 -130,94 -142,83 -82,44 -201,102 -109,54 -197,49 -211,95 2,26 4,70 9,95 4,21 18,52 26,78 7,28 9,59 16,84l113 391c56,37 89,172 306,238 52,16 120,13 175,8 77,-7 217,-51 288,-72 52,-15 93,-25 142,-37 29,-7 44,-12 67,-20 23,-9 56,-15 74,-30l-271 56c-30,10 -10,8 -36,16 -17,6 -29,6 -45,10 -158,38 -291,108 -445,23 -24,-13 -49,-19 -75,-33 -172,-91 -195,-327 -231,-418 -39,-54 -29,-112 -53,-180 -15,-42 -44,-146 -41,-194 26,-11 118,-45 146,-52 102,-25 289,-139 376,-203 46,-34 244,-245 278,-299l143 -240c48,-74 112,-351 116,-470 6,-139 15,-423 -1,-562 -7,-64 -3,-125 -42,-159 1,65 20,149 26,215 7,67 2,161 2,231 0,292 -21,513 -146,771l-134 213c-38,47 -15,44 -55,50z"/>
     <path class="fil1" d="M10038 3482c84,7 216,-58 297,-75 165,-33 319,-102 449,-98 161,5 227,96 252,112 103,66 65,96 118,160 17,21 12,2 28,63l116 436c13,62 20,93 34,145 24,86 67,212 80,296l49 141c8,13 6,8 25,11 -21,-96 -49,-214 -77,-304 -12,-41 -36,-101 -43,-142 -11,-60 -19,-99 -35,-155 -25,-90 -62,-206 -79,-298 -22,-123 -36,-185 -100,-280 -94,-139 -296,-260 -528,-192 -50,15 -95,31 -152,38 -55,6 -79,31 -137,44 -47,10 -103,24 -150,39l-110 30c-53,18 -20,-8 -37,29z"/>
     <circle class="fil1" cx="9967" cy="6406" r="449"/>
    </g>
    <ellipse class="fil0" cx="7866" cy="2309" rx="1185" ry="1199"/>
    <ellipse class="fil4" cx="7893" cy="2146" rx="1185" ry="1199"/>
    <circle class="fil5" cx="7912" cy="2140" r="838"/>
    <path class="fil1" d="M7860 2789c-300,-33 -538,-271 -571,-571l571 0 0 571z"/>
    <path class="fil0" d="M8576 2218c-33,300 -271,539 -571,571l0 -571 571 0z"/>
    <path class="fil2" d="M7860 2073l-571 0c16,-150 84,-285 186,-386l385 386 0 0 0 0z"/>
    <path class="fil2" d="M8391 1688c101,102 169,236 185,385l-570 0 385 -385z"/>
    <ellipse class="fil0" cx="13615" cy="8183" rx="977" ry="988"/>
    <ellipse class="fil4" cx="13637" cy="8048" rx="977" ry="988"/>
    <ellipse class="fil5" cx="13652" cy="8043" rx="690" ry="691"/>
    <path class="fil1" d="M13610 8579c-248,-28 -444,-224 -471,-472l471 0 0 472z"/>
    <path class="fil0" d="M14200 8107c-27,248 -224,444 -471,472l0 -472 471 0z"/>
    <path class="fil2" d="M13610 7988l-471 0c14,-124 70,-235 153,-318l318 318 0 0 0 0z"/>
    <path class="fil2" d="M14048 7671c83,84 138,194 152,317l-470 0 318 -317z"/>
    <g>
     <ellipse class="fil0" cx="12878" cy="3538" rx="1028" ry="1039"/>
     <ellipse class="fil4" cx="12901" cy="3397" rx="1028" ry="1039"/>
     <ellipse class="fil5" cx="12918" cy="3391" rx="726" ry="727"/>
     <path class="fil1" d="M12873 3955c-260,-29 -467,-236 -496,-496l496 0 0 496z"/>
     <path class="fil0" d="M13494 3459c-29,260 -236,467 -496,496l0 -496 496 0z"/>
     <path class="fil2" d="M12873 3334l-496 0c15,-131 74,-248 162,-335l334 334 0 1 0 0z"/>
     <path class="fil2" d="M13334 3000c87,88 145,204 160,334l-494 0 334 -334z"/>
    </g>
    <g>
     <ellipse class="fil0" cx="5922" cy="7992" rx="1534" ry="1551"/>
     <ellipse class="fil4" cx="5957" cy="7781" rx="1534" ry="1551"/>
     <ellipse class="fil5" cx="5981" cy="7772" rx="1084" ry="1085"/>
     <path class="fil1" d="M5914 8613c-388,-43 -697,-351 -739,-740l739 0 0 740z"/>
     <path class="fil0" d="M6841 7873c-44,389 -352,698 -740,740l0 -740 740 0z"/>
     <path class="fil2" d="M5914 7687l-739 0c21,-195 109,-369 240,-500l499 499 0 1 0 0z"/>
     <path class="fil2" d="M6601 7189c131,131 218,304 240,498l-738 0 498 -498z"/>
    </g>
   </g>
  </g>
 </g>
</svg>
