<svg width="510" height="266" viewBox="0 0 510 266" fill="none" xmlns="http://www.w3.org/2000/svg">
<path opacity="0.1" d="M255.217 266C395.773 266 509.717 258.049 509.717 248.24C509.717 238.432 395.773 230.48 255.217 230.48C114.66 230.48 0.716675 238.432 0.716675 248.24C0.716675 258.049 114.66 266 255.217 266Z" fill="#3B9CFF"/>
<path d="M30.6934 124.033C30.1239 126.907 30.6244 129.832 32.0136 132.326C32.4796 133.146 33.0318 133.931 33.6963 134.63C38.7873 139.817 45.5523 143.597 49.2369 150.181C49.9703 151.501 50.5916 152.925 51.023 154.496C52.6798 159.915 48.5552 164.239 46.1822 168.571C40.1852 180.057 51.8083 188.989 56.3816 197.912C57.2186 199.215 58.0814 200.466 59.022 201.657C60.8945 204.03 63.0258 206.153 65.649 207.776C67.3316 208.794 69.0574 208.561 70.6106 207.689C71.3958 207.258 72.1293 206.671 72.7937 205.998C73.2596 205.48 73.8809 204.945 74.1312 204.263C76.0036 200.052 77.7725 195.72 79.9039 191.742C80.6201 190.421 81.3708 189.135 82.1905 187.91C86.1167 181.956 92.8558 180.066 98.4732 176.821C105.583 172.894 102.21 162.228 97.8519 156.136C95.85 153.296 96.2297 149.378 97.9037 146.324C98.4732 145.236 99.2067 144.218 99.9919 143.295C109.225 133.025 120.848 120.176 116.335 104.487C114.834 99.4903 110.588 95.8399 105.713 94.7526C104.677 94.4851 103.59 94.3211 102.503 94.1485C99.2325 93.648 95.9449 93.1993 93.9689 90.153C87.9719 80.8243 95.3409 70.2702 96.5921 60.4065C96.9631 58.249 96.9632 56.0744 96.9718 53.8738C96.9545 52.8555 96.9027 51.8372 96.8078 50.8102C96.4368 46.7457 95.4013 42.7674 92.8213 39.678C91.5183 38.1246 90.0514 36.8819 88.5327 35.8032C83.9767 32.5585 79.0669 30.8066 73.9413 30.8066C72.2414 30.8066 70.5502 31.0051 68.9021 31.3935C67.2453 31.7818 65.6145 32.3427 64.0267 33.0849C62.0421 33.922 60.2732 35.0093 58.6682 36.2951C57.0632 37.5809 55.6481 39.0739 54.3797 40.7049C46.5188 51.7768 47.071 64.8507 49.9789 77.7349C50.5657 80.3065 51.2301 82.8868 51.9463 85.4412C52.999 89.8509 55.07 94.0881 56.0364 98.4634C56.2694 99.5507 56.4506 100.655 56.5196 101.777C56.8907 103.952 56.4851 106.29 55.4669 108.163C54.9664 109.095 54.302 109.932 53.5168 110.554C52.8955 111.123 52.0326 111.52 51.2819 111.658C44.2839 112.875 34.8007 111.658 31.6598 120.098C31.2629 121.341 30.9264 122.644 30.6934 124.033Z" fill="url(#paint0_linear)"/>
<path d="M68.764 205.083L69.1782 193.899C69.2645 191.491 69.3594 188.902 69.5665 186.055C69.9462 180.023 70.8867 173.999 71.8014 168.165C72.6038 163.1 73.4236 157.87 73.8896 152.563V152.546C74.4936 144.019 73.8205 135.476 73.1561 127.2L73.0525 125.897C72.9317 124.344 72.7851 122.488 72.647 120.616V120.564C68.6259 94.3125 69.1954 71.09 74.3987 49.5935C74.4849 49.2742 74.2779 48.9376 73.95 48.86C73.6307 48.7737 73.3028 48.9808 73.2165 49.3087C70.5157 60.5187 69.0315 72.488 68.8244 84.9061C68.6432 96.2283 69.5233 108.284 71.4303 120.737C71.5597 122.609 71.7151 124.447 71.8272 126.001L71.9308 127.304C72.578 135.528 73.251 144.037 72.6642 152.468C72.1983 157.715 71.3785 162.936 70.5933 167.984C69.6787 173.835 68.7209 179.902 68.3412 185.994C68.16 188.851 68.0564 191.448 67.9529 193.873L67.5387 205.057L68.764 205.083Z" fill="#3B9CFF"/>
<path d="M72.716 156.705C72.9835 156.705 73.2337 156.524 73.3028 156.239C78.3248 135.407 86.6257 123.835 92.7005 117.802C99.2325 111.296 104.608 109.673 104.651 109.656C104.971 109.552 105.152 109.224 105.066 108.905C104.962 108.586 104.634 108.405 104.315 108.491C104.082 108.56 98.5854 110.217 91.8462 116.931C87.9028 120.857 84.3477 125.69 81.2758 131.325C77.4532 138.35 74.3641 146.643 72.112 155.937C72.0257 156.256 72.2328 156.593 72.5607 156.671C72.6211 156.705 72.6642 156.705 72.716 156.705Z" fill="#3B9CFF"/>
<path d="M69.7477 176.631C69.7649 176.631 69.7995 176.631 69.8167 176.631C70.1532 176.597 70.4035 176.294 70.3517 175.958C69.2472 165.559 67.3661 156.55 64.7084 149.189C62.5857 143.269 59.9625 138.384 56.9424 134.674C51.7133 128.27 47.071 127.554 46.8725 127.537C46.536 127.485 46.2426 127.718 46.1909 128.055C46.1391 128.391 46.3721 128.693 46.7086 128.736C46.7949 128.754 51.187 129.47 56.1054 135.571C60.696 141.275 66.6931 152.925 69.1264 176.079C69.1782 176.415 69.4457 176.631 69.7477 176.631Z" fill="#3B9CFF"/>
<path d="M86.341 206.455C78.3593 205.066 65.2866 203.918 49.5906 206.826C45.5523 207.577 42.8256 211.728 43.5332 216.103L47.304 239.757C48.5207 247.429 54.6817 253.047 61.8781 253.047H72.785C78.9115 253.047 84.2873 248.637 85.9613 242.26L92.5538 216.966C93.7877 212.159 90.8971 207.241 86.341 206.455Z" fill="#00c2ff"/>
<path d="M86.9622 206.343C79.6795 205.092 67.763 204.073 53.4218 206.68C49.7287 207.353 47.2436 211.063 47.8907 214.973L51.3336 236.141C52.4554 243.011 58.0642 248.024 64.6394 248.024H74.5885C80.18 248.024 85.0898 244.081 86.6085 238.359L92.6228 215.723C93.7532 211.46 91.1214 207.059 86.9622 206.343Z" fill="#66daff"/>
<path d="M148.676 252.952H137.458C114.368 252.952 100.372 223.11 96.4886 199.198C91.7772 170.167 94.6679 121.496 124.8 108.362C131.625 105.384 138.917 103.745 145.759 100.845C181.034 85.9416 176.944 49.2914 200.07 23.9374C248.943 -29.6703 314.601 22.1855 368.35 31.4538C401.899 37.2443 440.073 28.6319 467.504 55.289C480.025 67.4482 486.893 85.001 489.335 102.726C496.014 151.104 479.843 202.943 444.154 234.985C433.256 244.762 418.061 253.918 404.617 248.689L148.676 252.952Z" fill="#00AEEF" fill-opacity="0.12"/>
<path d="M338.537 219.823L347.045 249.163H354.086L351.455 219.823H338.537V219.823Z" fill="#3d4852"/>
<path d="M376.892 218.088L385.401 247.429H392.442L389.793 218.088H376.892V218.088Z" fill="#3d4852"/>
<path d="M125.715 132.801L130.573 120.072C132.989 113.738 139.081 109.535 145.88 109.535H406.472C416.499 109.535 424.127 118.57 422.427 128.46L410.226 199.551C408.017 212.401 396.877 221.799 383.839 221.799H123.16L95.548 139.48H115.99C120.296 139.515 124.161 136.848 125.715 132.801Z" fill="#00C2FF"/>
<path d="M111.106 177.33H348.374C348.9 177.33 349.332 177.753 349.332 178.288V199.034C349.332 199.56 348.909 199.983 348.374 199.983H111.106C110.58 199.983 110.157 199.56 110.157 199.034V178.288C110.157 177.753 110.58 177.33 111.106 177.33Z" fill="#3B9CFF"/>
<path d="M380.163 139.463C384.486 139.463 388.352 136.796 389.888 132.775L394.763 120.046C396.972 114.256 402.244 110.269 408.319 109.613C417.414 110.64 424.015 119.166 422.427 128.434L410.226 199.525C408.017 212.375 396.877 221.773 383.839 221.773H331.142L359.738 139.454H380.163V139.463Z" fill="#3B9CFF"/>
<path d="M125.274 221.833H334.369C346.881 221.833 357.866 213.307 361.309 200.949L374.252 154.504C376.055 148.006 372.397 141.249 366.08 139.394C359.764 137.539 353.18 141.301 351.377 147.782L340.306 187.539C338.684 193.364 333.506 197.368 327.613 197.368H131.807C126.068 197.368 121.003 193.571 119.234 187.962L106.541 147.394C104.531 140.965 97.8174 137.435 91.5701 139.506C85.3228 141.569 81.8799 148.455 83.8904 154.884L98.594 201.847C102.304 213.747 113.091 221.833 125.274 221.833Z" fill="#3B9CFF"/>
<path d="M115.248 230.118C115.248 230.118 115.42 242.303 115.334 242.476C115.248 242.648 116.214 244.167 116.214 244.167L120.063 244.857L123.575 243.252C123.575 243.252 123.255 231.939 123.626 230.152C123.989 228.349 115.248 230.118 115.248 230.118Z" fill="#eee2d5"/>
<path d="M123.557 243.235C123.557 243.235 119.122 244.788 115.351 242.225C115.351 242.225 100.613 247.748 101.07 251.951C101.07 251.951 100.432 253.202 106.826 252.943C113.22 252.676 123.135 252.4 123.402 252.236C123.669 252.072 124.903 252.745 123.557 243.235Z" fill="#FCB32B"/>
<path d="M152.421 230.118C152.421 230.118 152.593 242.303 152.507 242.476C152.421 242.648 153.387 244.167 153.387 244.167L157.236 244.857L160.748 243.252C160.748 243.252 160.429 231.939 160.8 230.152C161.162 228.349 152.421 230.118 152.421 230.118Z" fill="#eee2d5"/>
<path d="M160.739 243.235C160.739 243.235 156.313 244.788 152.533 242.225C152.533 242.225 137.795 247.748 138.252 251.951C138.252 251.951 137.614 253.202 144.008 252.943C150.402 252.676 160.316 252.4 160.584 252.236C160.843 252.072 162.094 252.745 160.739 243.235Z" fill="#FCB32B"/>
<path d="M187.989 88.0129C187.989 88.0129 186.824 86.6149 186.117 87.3225C184.296 89.0916 186.505 90.8693 187.886 91.1714L187.989 88.0129Z" fill="#eee2d5"/>
<path d="M186.954 82.5587C186.936 82.4033 186.919 82.2394 186.902 82.084C186.125 75.0767 191.423 68.7943 198.585 68.475C204.548 68.2075 209.915 72.3929 211.115 78.2352C211.555 80.4099 211.417 82.5414 210.778 84.4658C209.967 87.4517 209.242 89.9888 208.414 92.1462C207.033 95.693 206.912 99.5937 207.956 103.27L208.767 106.144C201.709 110.968 197.878 107.628 197.878 107.628L197.153 102.26C197.067 101.553 196.445 101.061 195.738 101.095C195.738 101.095 195.738 101.095 195.721 101.095C186.367 101.501 187.411 86.7441 186.954 82.5587Z" fill="#eee2d5"/>
<path d="M212.478 80.1081L210.079 88.7205L207.818 88.5306L205.316 78.0283L212.478 80.1081Z" fill="#eee2d5"/>
<path d="M207.43 88.2976C207.585 87.8747 207.887 87.5382 208.276 87.3224C209.087 86.8823 210.519 86.3473 211.667 87.2706C213.323 88.6082 210.752 92.9058 207.551 91.2576C207.568 91.2662 206.619 90.524 207.43 88.2976Z" fill="#eee2d5"/>
<path d="M188.377 77.5967C188.377 77.5967 186.755 79.0293 187.143 86.4767C187.143 86.4767 185.642 78.2871 186.453 77.2774C187.29 76.2591 188.377 77.5967 188.377 77.5967Z" fill="#eee2d5"/>
<path d="M212.987 77.3378C212.789 75.5342 211.96 73.86 211.046 72.2894C211.908 72.393 212.866 72.462 213.557 71.9529C214.247 71.4265 214.23 70.063 213.384 69.9077C212.892 69.8041 212.409 70.1407 211.917 70.2097C210.787 70.365 209.958 69.1482 209.587 68.0695C209.216 66.9736 208.897 65.705 207.879 65.2131C207.559 65.0578 207.188 64.9974 206.817 65.0578C206.55 66.3781 206.748 67.7934 207.361 68.9929C206.006 67.336 204.289 65.938 202.382 64.9456C200.898 64.1689 199.155 63.6252 197.567 64.1689C197.231 65.4547 199.388 66.0761 199.647 67.3792C196.808 66.6715 193.84 66.4126 190.906 66.5852C190.146 66.637 189.387 66.706 188.697 67.0426C188.024 67.3792 187.446 68.0178 187.377 68.7772C187.29 69.7696 188.239 70.7188 189.232 70.6153C187.782 71.2884 186.315 71.9788 185.099 73.0143C183.882 74.0413 182.89 75.4652 182.751 77.053C183.813 77.0703 184.891 76.7855 185.823 76.2764C185.185 76.8804 184.624 77.7779 184.96 78.5891C185.211 79.1932 185.875 79.5211 186.531 79.5815C187.187 79.6161 187.817 79.4262 188.438 79.2105C191.562 78.2008 194.685 77.1825 197.809 76.1728C196.592 77.4931 195.712 79.1414 195.263 80.8674C198.102 80.5308 200.82 79.3313 203.012 77.4759C203.28 78.8221 203.737 80.1079 204.35 81.3247C204.453 81.5146 204.565 81.7131 204.755 81.8166C205.394 82.1532 205.903 81.2125 206.464 80.7724C207.154 80.2288 208.172 80.4704 208.957 80.876C210.295 81.6009 211.218 82.6623 212.236 81.0917C212.935 79.9958 213.134 78.5719 212.987 77.3378Z" fill="#3d4852"/>
<path d="M130.728 169.598C130.728 169.598 116.464 170.745 111.891 188.928C109.225 199.482 110.286 233.872 110.286 233.872L128.786 236.771C128.786 236.771 127.13 198.352 141.445 186.512C141.445 186.512 138.554 194.313 149.038 238.713H162.758L167.332 193.234C167.332 193.234 199.621 194.313 209.311 186.244C219.001 178.176 219.976 168.502 219.976 168.502L174.347 161.563L130.728 169.598Z" fill="#3d4852"/>
<path d="M212.702 107.844C212.702 107.844 211.805 100.94 210.372 101.294C208.94 101.648 196.195 103.978 194.944 103.71C193.693 103.443 194.944 109.553 194.944 109.553C194.944 109.553 180.611 110.856 177.03 116.948C173.449 123.041 165.097 146.22 162.042 148.179C158.987 150.155 152.965 155.644 152.965 155.644L177.764 169.589L201.26 168.493C201.26 168.493 218.259 178.676 231.53 170.754C244.802 162.824 242.472 121.203 229.925 113.85C217.37 106.48 212.702 107.844 212.702 107.844Z" fill="#FBD13E"/>
<path d="M170.938 163.22C170.956 163.22 170.973 163.22 170.99 163.203C178.144 160.079 181.966 129.202 182.13 127.899C182.147 127.813 182.078 127.744 181.992 127.727C181.906 127.709 181.837 127.778 181.82 127.865C181.785 128.184 177.85 159.889 170.861 162.927C170.792 162.962 170.757 163.048 170.775 163.117C170.835 163.186 170.887 163.22 170.938 163.22Z" fill="#00c2ff"/>
<path d="M201.269 168.64C201.321 168.64 201.39 168.605 201.407 168.554C201.442 168.485 201.407 168.398 201.338 168.364L196.152 166.086L196.877 157.033C198.327 156.748 212.978 153.892 219.95 153.081C220.02 153.063 220.089 153.012 220.089 152.942C220.106 152.252 220.356 135.873 219.277 133.448C219.243 133.379 219.157 133.345 219.088 133.379C219.019 133.414 218.984 133.5 219.019 133.569C220.028 135.83 219.83 151.208 219.812 152.813C212.435 153.693 196.885 156.748 196.739 156.783C196.67 156.8 196.618 156.852 196.618 156.921L195.876 166.206C195.876 166.275 195.91 166.327 195.962 166.362L201.26 168.674C201.234 168.64 201.252 168.64 201.269 168.64Z" fill="#00c2ff"/>
<path d="M141.428 186.65C141.497 186.65 141.566 186.598 141.583 186.529C141.583 186.495 142.377 182.508 146.346 178.322C150.013 174.474 157.219 169.675 170.74 168.683C170.826 168.683 170.878 168.614 170.878 168.528C170.878 168.441 170.792 168.372 170.723 168.39C157.098 169.382 149.824 174.232 146.113 178.133C142.092 182.37 141.298 186.434 141.272 186.486C141.255 186.572 141.307 186.641 141.393 186.667H141.428V186.65Z" fill="#3d4852"/>
<path d="M191.855 158.172C191.855 158.172 191.501 158.189 190.897 158.207C187.946 158.293 179.145 158.595 178.118 158.966C176.884 159.406 180.586 167.087 180.586 167.087C180.586 167.087 191.173 167.673 194.582 165.395C197.999 163.117 191.855 158.172 191.855 158.172Z" fill="#eee2d5"/>
<path d="M181.992 167.121C181.992 167.121 176.099 169.788 175.564 169.201C175.037 168.623 180.189 165.637 180.189 165.637L181.992 167.121Z" fill="#eee2d5"/>
<path d="M180.387 165.231C180.387 165.231 171.646 168.83 170.982 167.613C170.326 166.413 179.999 163.29 179.999 163.29L180.387 165.231Z" fill="#eee2d5"/>
<path d="M179.222 163.117C179.222 163.117 170.205 165.939 169.635 164.67C169.092 163.419 178.989 161.141 178.989 161.141L179.222 163.117Z" fill="#eee2d5"/>
<path d="M178.756 160.839C178.756 160.839 170.334 163.592 169.808 162.323C169.282 161.054 178.549 158.863 178.549 158.863L178.756 160.839Z" fill="#eee2d5"/>
<path d="M189.844 158.422L196.48 157.594L195.876 165.11L192.45 165.87L189.844 158.422Z" fill="#eee2d5"/>
<path d="M114.523 135.148L163.207 135.079L178.515 170.685L129.848 170.754L114.523 135.148Z" fill="#3B9CFF"/>
<path d="M168.962 168.545L201.545 168.502V170.659L168.962 170.703V168.545Z" fill="#3B9CFF"/>
<path d="M292.053 117.371C292.053 117.371 288.843 142.138 287.609 142.828C286.358 143.519 277.246 121.694 277.246 121.694L270.999 123.386C270.999 123.386 277.393 156.895 288.878 156.153C300.372 155.41 301.485 128.633 301.485 128.633L292.053 117.371Z" fill="#eee2d5"/>
<path d="M267.815 231.223C267.815 231.223 269.178 240.706 265.787 245.453C262.396 250.199 255.407 256.965 257.21 258.76C259.013 260.563 279.101 250.406 278.661 248.145C278.204 245.884 275.046 236.633 275.727 231.214H267.815V231.223Z" fill="#eee2d5"/>
<path d="M277.436 243.563C277.98 245.642 278.497 247.343 278.653 248.154C279.11 250.415 259.005 260.563 257.201 258.768C255.855 257.431 259.376 253.366 262.637 249.414C264.501 250.579 269.195 251.813 277.436 243.563Z" fill="#00C2FF"/>
<path d="M287.661 232.759C287.661 232.759 289.025 242.243 285.633 246.989C282.242 251.735 275.253 258.501 277.056 260.296C278.86 262.1 298.948 251.942 298.508 249.69C298.05 247.429 294.892 238.178 295.574 232.759H287.661Z" fill="#eee2d5"/>
<path d="M297.032 63.6513C292.088 66.7407 289.085 72.6866 289.525 78.4944C289.879 83.2234 292.312 87.9784 290.992 92.5262C290.5 94.2349 289.508 95.7537 288.783 97.3847C287.549 100.189 287.161 103.348 287.653 106.368C287.989 108.448 288.8 110.536 290.388 111.926C291.467 112.875 292.839 113.427 294.185 113.919C297.119 114.998 300.147 115.913 303.254 115.964C306.377 116.016 309.613 115.119 311.865 112.961C313.384 111.512 314.566 109.466 316.611 108.974C317.319 108.802 318.044 108.854 318.751 108.888C321.521 109.043 324.351 109.207 326.974 110.122C329.779 111.097 332.307 112.91 335.232 113.367C339.417 114.04 343.896 111.477 345.466 107.542C347.037 103.607 345.501 98.6619 342.006 96.2974C339.236 94.4075 335.301 93.8638 333.67 90.9125C332.307 88.4444 333.23 85.2946 332.29 82.6366C330.65 78.0284 324.541 76.9842 321.184 73.4029C317.94 69.9424 316.844 65.2305 312.478 62.7366C307.956 60.1563 301.338 60.9502 297.032 63.6513Z" fill="#3d4852"/>
<path d="M335.249 155.083C335.249 155.083 339.995 178.176 332.428 181.438C324.852 184.683 299.414 190.421 297.878 195.081C296.359 199.741 297.878 237.738 297.878 237.738L285.772 238.092C285.772 238.092 281.992 195.176 282.346 191.025C283.157 181.455 285.806 179.056 285.806 179.056C285.806 179.056 280.171 182.586 278.653 190.87C277.98 194.546 277.962 234.208 277.962 234.208L265.873 234.562C265.873 234.562 257.572 181.585 266.84 174.31C276.09 167.018 301.459 156.481 301.459 156.481L335.249 155.083Z" fill="#3d4852"/>
<path d="M306.809 100.742C306.809 100.742 297.101 103.003 292.813 108.655C288.524 114.308 285.823 126.484 285.823 126.484L295.073 129.418C295.073 129.418 295.531 136.201 299.819 137.996C299.819 137.996 302.52 148.602 299.819 157.646C299.819 157.646 322.625 164.429 336.604 157.646L337.735 126.941L346.312 123.326C346.312 123.326 341.79 103.676 331.185 100.742C320.58 97.8162 312.659 98.7137 306.809 100.742Z" fill="white"/>
<path d="M344.275 124.188L332.445 128.849C332.445 128.849 335.111 141.543 334.016 146.419C332.6 152.753 316.982 165.87 313.712 167.466L316.956 172.23C316.956 172.23 341.652 162.996 344.603 148.205C347.537 133.422 344.275 124.188 344.275 124.188Z" fill="#eee2d5"/>
<path d="M295.073 129.573C295.16 129.573 295.229 129.504 295.229 129.418C295.16 126.191 297.999 121.988 298.016 121.953C298.068 121.884 298.05 121.781 297.981 121.738C297.912 121.686 297.809 121.703 297.774 121.772C297.653 121.945 294.84 126.096 294.935 129.435C294.918 129.504 294.987 129.573 295.073 129.573Z" fill="#8ae3ff"/>
<path d="M318.061 136.589C320.477 136.589 323.428 135.778 326.552 133.112C326.621 133.06 326.621 132.956 326.569 132.879C326.517 132.81 326.414 132.81 326.336 132.861C318.725 139.359 312.271 134.553 312.193 134.501C312.116 134.449 312.038 134.466 311.986 134.536C311.934 134.605 311.952 134.691 312.021 134.751C312.055 134.803 314.471 136.589 318.061 136.589Z" fill="#8ae3ff"/>
<path d="M330.857 129.573C330.875 129.573 330.892 129.573 330.909 129.556L332.48 128.995C332.566 128.961 332.6 128.874 332.566 128.797C332.531 128.71 332.445 128.676 332.367 128.71L330.952 129.22L327.492 117.975C327.475 117.889 327.389 117.854 327.302 117.872C327.216 117.889 327.182 117.975 327.199 118.061L330.711 129.47C330.728 129.504 330.745 129.539 330.797 129.556C330.823 129.573 330.84 129.573 330.857 129.573Z" fill="#8ae3ff"/>
<path d="M295.324 83.8101C295.324 83.8101 294.004 82.5933 293.382 83.37C291.812 85.3462 294.392 86.8477 295.798 86.9685L295.324 83.8101Z" fill="#eee2d5"/>
<path d="M303.28 63.1764C309.32 62.115 315.3 65.8257 317.069 71.7026C317.647 73.6442 317.724 75.5859 317.388 77.424C316.749 81.9633 316.206 85.6136 315.11 88.4614C313.997 91.3351 313.945 94.5022 315.075 97.3759L315.533 98.5236C315.973 99.6023 315.567 100.854 314.601 101.492C311.598 103.486 309.268 103.555 307.844 103.261C306.93 103.063 306.222 102.381 305.989 101.475L304.608 95.7535C296.911 96.6682 294.582 82.6364 293.589 78.5545H293.607C293.572 78.3992 293.52 78.2525 293.486 78.0972C291.829 71.2624 296.256 64.3932 303.28 63.1764Z" fill="#eee2d5"/>
<path d="M307.059 75.0596C308.88 76.1901 310.536 77.5277 312.193 78.8739C313.962 80.2892 315.774 81.808 316.602 83.9223C318.173 81.9979 318.881 79.5125 319.39 77.0703C319.623 75.9398 319.83 74.7921 319.726 73.6271C319.571 72.0047 318.794 70.5031 318.052 69.0533C317.077 67.1807 316.042 65.239 314.307 64.0222C313.16 63.2283 311.805 62.8054 310.424 62.5207C307.232 61.8821 303.84 62.0115 300.803 63.211C297.766 64.4106 295.134 66.7406 293.883 69.761C292.278 73.6443 293.054 78.0368 293.865 82.1705C293.865 80.3669 294.642 78.6927 295.401 77.0703C295.893 76.0089 296.411 74.9388 297.222 74.1017C298.62 72.6692 299.129 72.7986 301.511 70.1493C302.839 72.4621 304.781 73.6443 307.059 75.0596Z" fill="#3d4852"/>
<path d="M314.566 81.6268C314.67 81.204 314.937 80.8157 315.291 80.5654C316.033 80.039 317.388 79.3314 318.63 80.0735C320.451 81.1867 318.432 85.7605 315.084 84.5437C315.058 84.5523 314.031 83.9223 314.566 81.6268Z" fill="#eee2d5"/>
<path d="M316.965 172.221C316.965 172.221 315.955 173.334 314.419 173.826C312.883 174.318 308.172 175.173 307.465 175.483C306.757 175.803 303.461 178.236 302.684 178.271C301.925 178.288 305.454 174.56 305.454 174.56C305.454 174.56 301.994 177.313 301.321 176.855C300.648 176.381 304.108 173.11 304.108 173.11C304.108 173.11 300.458 175.423 299.992 174.819C299.535 174.215 303.047 171.936 303.047 171.936C303.047 171.936 299.552 173.49 299.198 172.998C298.844 172.523 303.573 169.097 305.851 168.623C308.112 168.148 315.317 167.242 315.317 167.242L316.965 172.221Z" fill="#eee2d5"/>
<path d="M297.282 245.099C297.826 247.179 298.344 248.879 298.499 249.69C298.956 251.951 278.851 262.099 277.048 260.296C275.71 258.95 279.222 254.894 282.484 250.941C284.339 252.089 289.016 253.332 297.282 245.099Z" fill="#00C2FF"/>
<path d="M278.515 121.453C278.515 121.453 276.728 117.354 274.399 115.766C272.086 114.178 270.283 114.816 270.283 114.816L267.754 113.246C267.754 113.246 266.288 121.228 272.345 124.81C272.88 125.103 278.515 121.453 278.515 121.453Z" fill="#eee2d5"/>
<path d="M274.985 104.418L266.175 106.964C266.072 106.998 266.02 107.084 266.055 107.197L271.223 125.06C271.258 125.164 271.344 125.215 271.456 125.181L280.266 122.635C280.37 122.601 280.422 122.514 280.387 122.402L275.218 104.539C275.175 104.452 275.072 104.401 274.985 104.418Z" fill="#3B9CFF"/>
<path d="M266.728 115.326C266.46 115.326 266.184 115.222 265.968 115.024C265.528 114.601 265.494 113.91 265.916 113.47L267.772 111.477C268.195 111.037 268.885 111.002 269.325 111.425C269.765 111.848 269.8 112.538 269.377 112.978L267.521 114.972C267.306 115.222 267.021 115.326 266.728 115.326Z" fill="#eee2d5"/>
<path d="M267.427 117.164C267.159 117.164 266.883 117.06 266.667 116.862C266.227 116.439 266.193 115.748 266.615 115.308L268.471 113.315C268.893 112.875 269.584 112.84 270.024 113.263C270.464 113.686 270.498 114.376 270.076 114.816L268.22 116.81C268.013 117.052 267.729 117.164 267.427 117.164Z" fill="#eee2d5"/>
<path d="M268.169 118.855C267.901 118.855 267.625 118.752 267.409 118.553C266.969 118.131 266.935 117.44 267.358 117L269.213 115.007C269.636 114.566 270.326 114.532 270.766 114.955C271.206 115.378 271.24 116.068 270.818 116.508L268.962 118.502C268.755 118.735 268.471 118.855 268.169 118.855Z" fill="#eee2d5"/>
<path d="M269.334 119.968C269.161 119.968 268.997 119.917 268.859 119.796C268.54 119.528 268.505 119.071 268.773 118.752L270.464 116.758C270.731 116.439 271.189 116.404 271.508 116.672C271.827 116.939 271.862 117.397 271.594 117.716L269.903 119.71C269.756 119.882 269.549 119.968 269.334 119.968Z" fill="#eee2d5"/>
<path d="M202.701 203.21C202.701 203.21 202.917 199.612 201.838 197.618C200.76 195.625 199.241 195.426 199.241 195.426L198.905 194.123C198.905 194.123 194.029 198.576 197.067 203.357C197.317 203.754 202.701 203.21 202.701 203.21Z" fill="#eee2d5"/>
<path d="M189.404 244.504C189.404 244.504 189.525 252.797 189.456 252.926C189.387 253.047 190.06 254.091 190.06 254.091L192.675 254.566L195.056 253.47C195.056 253.47 194.84 245.755 195.091 244.538C195.358 243.304 189.404 244.504 189.404 244.504Z" fill="#eee2d5"/>
<path d="M195.073 253.452C195.073 253.452 192.053 254.514 189.473 252.762C189.473 252.762 179.429 256.525 179.731 259.398C179.731 259.398 179.309 260.244 183.649 260.071C188.006 259.89 194.771 259.7 194.944 259.597C195.142 259.476 195.988 259.933 195.073 253.452Z" fill="#3B9CFF"/>
<path d="M177.281 244.504C177.281 244.504 177.402 252.797 177.332 252.926C177.263 253.047 177.937 254.091 177.937 254.091L180.551 254.566L182.933 253.47C182.933 253.47 182.717 245.755 182.967 244.538C183.226 243.304 177.281 244.504 177.281 244.504Z" fill="#eee2d5"/>
<path d="M182.941 253.452C182.941 253.452 179.921 254.514 177.341 252.762C177.341 252.762 167.297 256.525 167.599 259.398C167.599 259.398 167.176 260.244 171.517 260.071C175.874 259.89 182.639 259.7 182.812 259.597C183.019 259.476 183.865 259.933 182.941 253.452Z" fill="#3B9CFF"/>
<path d="M241.531 191.172C241.531 191.172 253.163 195.564 256.183 201.484C259.22 207.396 259.98 221.307 259.98 221.307H250.747C250.747 221.307 245.561 242.277 236.975 248.861L211.451 226.105L210.286 206.636C210.286 206.636 216.499 192.121 221.814 191.172C227.13 190.197 241.531 191.172 241.531 191.172Z" fill="#FEB434"/>
<path d="M224.308 248.844C224.308 248.844 227.466 255.713 217.828 256.645C204.695 257.931 192.2 232.405 192.2 232.405C192.2 232.405 187.929 247.921 182.864 250.656H177.246C177.246 250.656 172.216 244.797 175.253 232.405C178.29 220.012 183.606 203.331 192.942 204.091C202.279 204.85 215.481 240.974 215.481 240.974L224.308 248.844Z" fill="#3d4852"/>
<path d="M199.345 188.29L228.769 190.818C228.838 190.818 228.89 190.887 228.873 190.956L227.087 211.702C227.087 211.771 227.018 211.823 226.949 211.806L197.524 209.286C197.455 209.286 197.403 209.217 197.421 209.148L199.207 188.402C199.224 188.342 199.293 188.29 199.345 188.29Z" fill="#00c2ff"/>
<path d="M236.975 248.844C236.975 248.844 228.622 258.199 219.019 256.93C209.415 255.662 204.859 232.405 204.859 232.405C204.859 232.405 200.147 247.921 195.099 250.657H189.378C189.378 250.657 184.891 244.797 187.911 232.405C190.949 220.012 196.264 203.331 205.601 204.091C214.954 204.85 228.105 240.957 228.105 240.957L236.975 248.844Z" fill="#3d4852"/>
<path d="M258.125 221.29C258.125 221.29 256.451 236.21 244.793 235.287C236.371 234.631 224.809 213.445 224.809 213.445L228.994 209.363L242.584 223.982C243.732 225.216 245.794 224.741 246.294 223.119L246.838 221.298H258.116V221.29H258.125Z" fill="#eee2d5"/>
<path d="M225.43 172.402C225.43 172.402 224.368 170.987 223.644 171.626C221.771 173.248 223.842 175.103 225.162 175.475L225.43 172.402Z" fill="#eee2d5"/>
<path d="M224.714 167C224.714 166.845 224.696 166.698 224.696 166.543C224.325 159.777 229.623 154.03 236.432 153.9C242.713 153.78 248.098 158.629 248.616 164.895C248.771 166.75 248.495 168.528 247.873 170.159C245.699 176.674 244.396 181.153 241.203 183.379C240.625 183.785 240.323 184.475 240.358 185.183L240.513 188.203C240.582 189.524 241.29 190.732 242.403 191.431C235.957 194.322 233.015 191.94 233.015 191.94C233.972 191.06 234.481 189.783 234.412 188.48L234.326 186.84C234.274 185.813 233.481 184.985 232.454 184.881H232.436C220.917 183.751 224.921 171.117 224.714 167Z" fill="#eee2d5"/>
<path d="M244.75 174.379C244.75 174.379 240.651 166.802 240.798 162.642L248.339 161.563C248.339 161.563 250.548 167.846 246.752 173.481L244.75 174.379Z" fill="#3d4852"/>
<path d="M244.396 173.723C244.569 173.317 244.888 173.015 245.276 172.825C246.087 172.454 247.52 171.997 248.581 172.946C250.134 174.344 247.382 178.4 244.362 176.622C244.362 176.622 243.473 175.828 244.396 173.723Z" fill="#eee2d5"/>
<path d="M248.909 160.097C249.634 158.983 249.953 157.611 249.806 156.282C249.133 156.049 248.391 156.438 247.986 157.024C247.597 157.603 247.477 158.327 247.364 159.018C247.261 157.249 245.708 156.084 244.344 155.221C242.705 154.159 240.936 153.124 238.96 152.856C236.242 152.468 233.437 153.037 230.737 153.314C228.709 153.417 226.672 153.788 224.662 153.935C224.274 153.987 223.885 154.021 223.497 154.073C222.91 154.159 221.745 153.952 221.806 154.832C221.875 155.808 222.513 156.653 223.307 157.214C224.066 157.741 224.964 158.043 225.853 158.327C225.361 158.293 224.86 158.396 224.368 158.543C223.747 158.733 223.152 158.966 222.548 159.216C222.228 159.354 221.892 159.57 221.771 159.889C221.702 160.062 221.685 160.26 221.702 160.45C221.918 162.202 223.997 163.307 225.464 163.756C230.245 165.188 235.353 163.704 240.332 163.617C242.575 163.583 245.242 164.109 247.39 163.367C248.115 163.117 249.824 161.9 250.376 160.916C250.548 160.597 250.307 160.191 249.953 160.191C249.599 160.183 249.246 160.166 248.909 160.097Z" fill="#3d4852"/>
<path d="M226.189 163.945C226.189 163.945 225.042 165.991 224.653 168.554C224.653 168.554 223.946 164.316 224.722 162.936C225.508 161.546 226.189 163.945 226.189 163.945Z" fill="#3d4852"/>
<path d="M197.015 195.547C196.816 195.444 196.661 195.28 196.592 195.055C196.437 194.598 196.661 194.08 197.119 193.908L199.181 193.165C199.638 193.01 200.156 193.234 200.328 193.692C200.484 194.149 200.259 194.667 199.802 194.84L197.74 195.582C197.49 195.668 197.222 195.651 197.015 195.547Z" fill="#eee2d5"/>
<path d="M196.851 197.118C196.661 197.014 196.497 196.85 196.428 196.626C196.273 196.169 196.497 195.659 196.955 195.478L199.017 194.736C199.474 194.581 199.992 194.805 200.165 195.262C200.32 195.72 200.095 196.238 199.638 196.41L197.576 197.152C197.317 197.239 197.067 197.221 196.851 197.118Z" fill="#eee2d5"/>
<path d="M196.765 198.602C196.575 198.499 196.411 198.335 196.342 198.11C196.187 197.653 196.411 197.144 196.868 196.963L198.931 196.22C199.388 196.065 199.906 196.289 200.078 196.747C200.233 197.204 200.009 197.722 199.552 197.895L197.489 198.637C197.239 198.74 196.98 198.706 196.765 198.602Z" fill="#eee2d5"/>
<path d="M197.205 199.819C197.084 199.767 196.972 199.664 196.92 199.517C196.799 199.215 196.937 198.861 197.239 198.74L199.181 197.929C199.483 197.808 199.837 197.946 199.957 198.248C200.078 198.55 199.94 198.904 199.638 199.025L197.697 199.836C197.524 199.905 197.351 199.905 197.205 199.819Z" fill="#eee2d5"/>
<path d="M229.227 211.227C229.227 211.227 228.735 206.956 228.2 205.454C227.673 203.953 228.286 202.114 227.371 202.097C226.457 202.097 226.224 205.135 226.224 205.135C226.224 205.135 223.894 202.891 223.273 202.097C222.651 201.303 221.21 200.155 220.589 200.561C219.968 200.967 223.186 204.583 223.186 204.583C223.186 204.583 220.183 201.795 219.536 202.037C218.881 202.287 222.185 206.395 222.185 206.395C222.185 206.395 219.131 203.271 218.673 203.236C218.216 203.202 218.164 203.78 218.975 205.143C219.787 206.524 220.969 207.706 220.969 207.706C220.969 207.706 218.656 205.678 218.285 205.515C217.914 205.376 217.31 205.428 218.742 207.335C220.158 209.243 223.247 213.67 227.285 214.662L229.227 211.227Z" fill="#eee2d5"/>
<path d="M428.648 18.9666H431.099V214.032H428.648V18.9666Z" fill="#3B9CFF"/>
<path d="M388.507 3.46777H471.223V31.5747H388.507V3.46777V3.46777Z" fill="#8ae3ff"/>
<path d="M419.545 33.0934C419.545 32.4375 420.071 31.9111 420.727 31.9111C421.383 31.9111 421.909 32.4375 421.909 33.0934C421.909 33.7493 421.383 34.2757 420.727 34.2757C420.071 34.2757 419.545 33.7493 419.545 33.0934Z" fill="#3B9CFF"/>
<path d="M419.545 35.6911C419.545 35.0352 420.071 34.5088 420.727 34.5088C421.383 34.5088 421.909 35.0352 421.909 35.6911C421.909 36.3469 421.383 36.8733 420.727 36.8733C420.071 36.8733 419.545 36.3383 419.545 35.6911Z" fill="#3B9CFF"/>
<path d="M419.545 38.297C419.545 37.6412 420.071 37.1147 420.727 37.1147C421.383 37.1147 421.909 37.6412 421.909 38.297C421.909 38.9529 421.383 39.4793 420.727 39.4793C420.071 39.4793 419.545 38.9529 419.545 38.297Z" fill="#3B9CFF"/>
<path d="M419.545 40.912C419.545 40.2561 420.071 39.7297 420.727 39.7297C421.383 39.7297 421.909 40.2561 421.909 40.912C421.909 41.5679 421.383 42.0943 420.727 42.0943C420.071 42.0943 419.545 41.5679 419.545 40.912Z" fill="#3B9CFF"/>
<path d="M419.545 43.5267C419.545 42.8709 420.071 42.3445 420.727 42.3445C421.383 42.3445 421.909 42.8709 421.909 43.5267C421.909 44.1826 421.383 44.709 420.727 44.709C420.071 44.709 419.545 44.1826 419.545 43.5267Z" fill="#3B9CFF"/>
<path d="M419.545 46.1242C419.545 45.4683 420.071 44.9419 420.727 44.9419C421.383 44.9419 421.909 45.4683 421.909 46.1242C421.909 46.78 421.383 47.3064 420.727 47.3064C420.071 47.3064 419.545 46.7714 419.545 46.1242Z" fill="#3B9CFF"/>
<path d="M419.545 48.7304C419.545 48.0745 420.071 47.5481 420.727 47.5481C421.383 47.5481 421.909 48.0745 421.909 48.7304C421.909 49.3862 421.383 49.9126 420.727 49.9126C420.071 49.9213 419.545 49.3862 419.545 48.7304Z" fill="#3B9CFF"/>
<path d="M419.545 51.3454C419.545 50.6895 420.071 50.1631 420.727 50.1631C421.383 50.1631 421.909 50.6895 421.909 51.3454C421.909 52.0012 421.383 52.5276 420.727 52.5276C420.071 52.5276 419.545 52.0012 419.545 51.3454Z" fill="#3B9CFF"/>
<path d="M226.983 43.9152C235.672 52.6053 249.755 52.6053 258.435 43.9152C267.125 35.2251 267.125 21.1414 258.435 12.46C249.746 3.76986 235.664 3.76986 226.983 12.46C218.294 21.1414 218.294 35.2251 226.983 43.9152ZM230.642 15.5235C237.545 8.61974 248.745 8.61974 255.657 15.5235C262.568 22.4359 262.568 33.6286 255.657 40.541C248.745 47.4533 237.553 47.4533 230.642 40.541C223.73 33.6286 223.73 22.4272 230.642 15.5235Z" fill="#8ae3ff"/>
<path d="M241.186 27.8466C241.186 26.7506 242.066 25.8704 243.162 25.8704C244.258 25.8704 245.138 26.7506 245.138 27.8466C245.138 28.9425 244.258 29.8228 243.162 29.8228C242.075 29.8228 241.186 28.9425 241.186 27.8466Z" fill="#00c2ff"/>
<path d="M243.162 28.235H243.55C243.766 28.235 243.939 28.0538 243.939 27.8467C243.939 27.631 243.766 27.4584 243.55 27.4584L243.533 15.2387L244.025 15.9464C244.146 16.119 244.396 16.1794 244.569 16.0499C244.741 15.9291 244.802 15.6788 244.672 15.5062L243.456 13.7544C243.352 13.6163 243.171 13.5387 243.015 13.5991C242.86 13.6509 242.731 13.8148 242.731 13.9702L242.748 27.8467C242.774 28.0624 242.955 28.235 243.162 28.235Z" fill="#00c2ff"/>
<path d="M241.807 16.0238C241.911 16.0238 242.04 15.9721 242.109 15.8858L243.447 14.2461C243.585 14.0735 243.55 13.8233 243.395 13.7025C243.24 13.5644 242.972 13.5989 242.852 13.7542L241.514 15.3939C241.376 15.5665 241.411 15.8167 241.566 15.9376C241.626 15.9807 241.721 16.0238 241.807 16.0238Z" fill="#00c2ff"/>
<path d="M250.298 29.5034C250.402 29.5034 250.514 29.4689 250.583 29.3826L251.748 28.1658C251.851 28.0622 251.886 27.881 251.817 27.7429C251.765 27.6049 251.601 27.4927 251.463 27.4927L242.23 27.5099C242.023 27.5099 241.842 27.6825 241.842 27.8983V28.2866C241.842 28.4937 242.023 28.6749 242.23 28.6749C242.446 28.6749 242.619 28.4937 242.619 28.2866L250.523 28.2693L249.996 28.813C249.841 28.9684 249.858 29.2186 250.013 29.3567C250.082 29.4689 250.195 29.5034 250.298 29.5034Z" fill="#00c2ff"/>
<path d="M251.463 28.304C251.549 28.304 251.636 28.2695 251.713 28.2177C251.886 28.0796 251.912 27.8294 251.765 27.674L250.669 26.3278C250.531 26.1552 250.281 26.1293 250.126 26.276C249.953 26.4141 249.927 26.6644 250.074 26.8197L251.17 28.1573C251.23 28.2522 251.342 28.304 251.463 28.304Z" fill="#00c2ff"/>
<path d="M382.682 172.049H450.186V249.129H382.682V172.049V172.049Z" fill="#3B9CFF"/>
<path d="M375.848 166.362H457.831V174.603H375.848V166.362Z" fill="#00C2FF"/>
<path d="M388.3 181.654H445.967V207.379H388.291V181.654H388.3Z" fill="#00C2FF"/>
<path d="M388.3 211.909H445.967V237.634H388.291V211.909H388.3Z" fill="#00C2FF"/>
<path d="M411.02 184.052H423.678V186.667H411.02V184.052Z" fill="#8ae3ff"/>
<path d="M411.02 214.403H423.678V217.018H411.02V214.403Z" fill="#8ae3ff"/>
<path d="M424.8 148.481H459.134V149.473H441.514C439.728 149.473 438.304 150.906 438.304 152.684C438.304 154.461 439.754 155.894 441.514 155.894H459.134V156.826H424.8C422.487 156.826 420.632 154.953 420.632 152.658C420.632 150.354 422.505 148.481 424.8 148.481Z" fill="#3B9CFF"/>
<path d="M436.751 152.666C436.751 150.354 438.623 148.498 440.919 148.498H459.134V149.491H441.514C439.728 149.491 438.304 150.923 438.304 152.701C438.304 154.487 439.754 155.911 441.514 155.911H459.134V156.843H440.919C438.606 156.835 436.751 154.962 436.751 152.666Z" fill="#3B9CFF"/>
<path d="M441.523 149.491H459.143V149.508C457.538 149.681 456.304 151.044 456.304 152.701C456.304 154.341 457.538 155.704 459.143 155.894V155.911H441.523C439.737 155.911 438.313 154.479 438.313 152.701C438.304 150.915 439.754 149.491 441.523 149.491Z" fill="white"/>
<path d="M438.304 152.666C438.304 150.88 439.754 149.456 441.514 149.456H459.134V149.473C458.306 149.56 457.581 149.982 457.072 150.587C453.543 150.302 443.041 149.982 441.946 155.885H441.54C439.754 155.877 438.304 154.427 438.304 152.666Z" fill="#00c2ff"/>
<path d="M453.577 156.834H417.603V157.965H436.069C437.924 157.965 439.443 159.622 439.443 161.658C439.443 163.686 437.942 165.352 436.069 165.352H417.621V166.413H453.577C455.993 166.413 457.952 164.282 457.952 161.633C457.952 158.983 455.993 156.834 453.577 156.834Z" fill="#3B9CFF"/>
<path d="M441.057 161.615C441.057 158.966 439.098 156.834 436.682 156.834H417.578V157.965H436.061C437.916 157.965 439.435 159.622 439.435 161.658C439.435 163.686 437.933 165.352 436.061 165.352H417.612V166.413H436.691C439.098 166.396 441.057 164.265 441.057 161.615Z" fill="#00c2ff"/>
<path d="M436.061 157.982H417.612V157.999C419.286 158.215 420.598 159.769 420.598 161.676C420.598 163.566 419.295 165.136 417.612 165.352V165.369H436.061C437.916 165.369 439.435 163.712 439.435 161.676C439.417 159.622 437.916 157.982 436.061 157.982Z" fill="white"/>
<path d="M439.417 161.615C439.417 159.587 437.916 157.922 436.043 157.922H417.595V157.939C418.458 158.043 419.234 158.517 419.769 159.208C423.462 158.888 434.473 158.517 435.621 165.3H436.043C437.916 165.309 439.417 163.661 439.417 161.615Z" fill="#3B9CFF"/>
<path d="M456.356 148.49H443.188V132.585H456.356V148.49Z" fill="#FEB434"/>
<path d="M460.463 144.632H455.363C454.854 144.632 454.449 144.227 454.449 143.717C454.449 143.208 454.854 142.803 455.363 142.803H459.548V136.779H455.855C455.346 136.779 454.941 136.374 454.941 135.864C454.941 135.355 455.346 134.95 455.855 134.95H460.463C460.972 134.95 461.378 135.355 461.378 135.864V143.717C461.378 144.227 460.972 144.632 460.463 144.632Z" fill="#FEB434"/>
<defs>
<linearGradient id="paint0_linear" x1="73.9058" y1="208.45" x2="73.9058" y2="30.8243" gradientUnits="userSpaceOnUse">
<stop offset="0.2544" stop-color="#b3edff"/>
<stop offset="0.6318" stop-color="#8ae3ff"/>
<stop offset="0.8798" stop-color="#f0fcff"/>
</linearGradient>
</defs>
</svg>
