<?xml version="1.0" encoding="UTF-8"?>
<!DOCTYPE svg PUBLIC "-//W3C//DTD SVG 1.1//EN" "http://www.w3.org/Graphics/SVG/1.1/DTD/svg11.dtd">
<!-- Creator: CorelDRAW X6 -->
<svg xmlns="http://www.w3.org/2000/svg" xml:space="preserve" width="83.0173mm" height="172.625mm" version="1.1" style="shape-rendering:geometricPrecision; text-rendering:geometricPrecision; image-rendering:optimizeQuality; fill-rule:evenodd; clip-rule:evenodd"
viewBox="0 0 6590 13703"
 xmlns:xlink="http://www.w3.org/1999/xlink">
 <defs>
  <style type="text/css">
   <![CDATA[
    .str0 {stroke:#DBD8C8;stroke-width:15.8763}
    .fil6 {fill:none}
    .fil5 {fill:none;fill-rule:nonzero}
    .fil3 {fill:#C834F7}
    .fil0 {fill:#F5A9AC}
    .fil2 {fill:#13ECAB}
    .fil8 {fill:#4C57FF}
    .fil1 {fill:white}
    .fil4 {fill:#4C565D;fill-rule:nonzero}
    .fil9 {fill:#13ECAB;fill-rule:nonzero}
    .fil7 {fill:#13ECAB;fill-opacity:0.6}
   ]]>
  </style>
 </defs>
 <g id="Layer_x0020_1">
  <metadata id="CorelCorpID_0Corel-Layer"/>
  <path class="fil0" d="M5378 13c0,-16 5,-13 -9,-13 0,16 -5,13 9,13z"/>
  <polygon class="fil0" points="5415,189 5406,169 "/>
  <path class="fil1" d="M983 268l4624 0c541,0 983,442 983,983l0 11469c0,541 -442,983 -983,983l-4624 0c-541,0 -983,-442 -983,-983l0 -11469c0,-541 442,-983 983,-983z"/>
  <path class="fil2" d="M956 670l704 0 0 255c0,170 139,309 309,309l2652 0c170,0 309,-139 309,-309l0 -255 692 0c313,0 569,256 569,569l0 11462c0,313 -256,569 -569,569l-4666 0c-313,0 -569,-256 -569,-569l0 -11462c0,-313 256,-569 569,-569zm27 -401l4624 0c541,0 983,442 983,983l0 11469c0,541 -442,983 -983,983l-4624 0c-541,0 -983,-442 -983,-983l0 -11469c0,-541 442,-983 983,-983z"/>
  <path class="fil3" d="M2634 819c22,38 35,33 87,34l1483 12c57,0 181,16 176,-57 -3,-46 -45,-35 -93,-34 -477,7 -985,-9 -1473,-3 -35,0 -77,0 -111,3 -48,4 -56,9 -69,45z"/>
  <path class="fil3" d="M2214 833c18,7 48,24 73,6 18,-13 26,-51 14,-73 -21,-39 -111,-36 -87,68z"/>
  <polygon class="fil4" points="810,3571 810,3294 985,3294 985,3346 868,3346 868,3409 970,3409 970,3460 868,3460 868,3519 988,3519 988,3571 "/>
  <path id="1" class="fil4" d="M1018 3477c0,-14 3,-28 8,-40 5,-12 13,-23 22,-31 9,-8 19,-15 31,-19 11,-5 23,-7 35,-7 5,0 11,1 16,2 6,1 13,4 20,8 8,4 14,9 18,16l0 -21 55 0 0 187 -55 0 0 -21c-5,8 -14,14 -25,19 -11,4 -21,6 -30,6 -16,0 -32,-4 -46,-12 -14,-8 -26,-19 -36,-34 -9,-15 -14,-32 -14,-52zm72 -32c-9,8 -14,19 -14,32 0,13 5,24 14,32 10,8 20,13 33,13 12,0 23,-4 32,-12 9,-8 14,-19 14,-32 0,-13 -5,-24 -14,-32 -9,-8 -20,-12 -32,-12 -12,0 -23,4 -33,13z"/>
  <path id="2" class="fil4" d="M1275 3571l0 -187 55 0 0 45c4,-16 12,-28 22,-37 10,-8 20,-12 31,-12 13,0 23,2 32,7l-10 50c-8,-4 -17,-6 -29,-6 -16,0 -28,6 -35,19 -7,12 -11,31 -11,56l0 66 -55 0z"/>
  <path id="3" class="fil4" d="M1444 3571l0 -187 55 0 0 28c5,-10 13,-17 23,-23 10,-6 21,-9 32,-9 22,0 38,7 50,20 12,13 18,33 18,59l0 112 -55 0 0 -99c0,-12 -3,-21 -9,-27 -6,-6 -14,-10 -24,-10 -23,0 -35,13 -35,38l0 98 -55 0z"/>
  <path id="4" class="fil4" d="M1675 3337c-7,-6 -10,-14 -10,-23 0,-9 3,-17 10,-23 7,-6 15,-9 25,-9 9,0 17,3 24,9 7,6 10,14 10,23 0,9 -3,17 -10,23 -7,6 -15,10 -24,10 -10,0 -18,-3 -25,-10zm-3 234l0 -187 55 0 0 187 -55 0z"/>
  <path id="5" class="fil4" d="M1779 3571l0 -187 55 0 0 28c5,-10 13,-17 23,-23 10,-6 21,-9 32,-9 22,0 38,7 50,20 12,13 18,33 18,59l0 112 -55 0 0 -99c0,-12 -3,-21 -9,-27 -6,-6 -14,-10 -24,-10 -23,0 -35,13 -35,38l0 98 -55 0z"/>
  <path id="6" class="fil4" d="M1996 3478c0,-15 3,-28 8,-41 5,-12 12,-23 21,-31 9,-8 19,-15 30,-19 11,-5 23,-7 35,-7 12,0 23,2 34,7 11,5 18,12 22,20l0 -23 55 0 0 161c0,40 -9,70 -28,90 -18,20 -45,30 -79,30 -21,0 -39,-5 -56,-16 -17,-11 -29,-25 -37,-42 5,-2 12,-6 23,-11 10,-5 18,-9 23,-11 3,8 9,16 19,21 9,6 19,9 28,9 37,0 55,-22 52,-67 -4,8 -12,15 -22,20 -11,5 -22,7 -34,7 -16,0 -31,-4 -46,-12 -14,-8 -26,-19 -35,-34 -9,-15 -13,-32 -13,-51zm59 -1c0,14 4,24 13,33 9,8 19,13 32,13 12,0 22,-4 31,-13 9,-9 14,-19 14,-33 0,-13 -4,-24 -13,-32 -9,-8 -19,-12 -32,-12 -12,0 -23,4 -32,12 -9,8 -13,19 -13,32z"/>
  <path id="7" class="fil4" d="M2240 3511l52 0c0,5 3,10 8,14 5,4 12,6 19,6 6,0 12,-2 16,-5 4,-3 7,-6 7,-11 0,-4 -1,-7 -4,-10 -3,-2 -8,-4 -14,-6l-25 -6c-11,-3 -20,-6 -27,-11 -8,-4 -13,-8 -17,-12 -4,-4 -6,-8 -8,-14 -2,-5 -3,-9 -3,-13 0,-3 0,-7 0,-12 0,-14 8,-26 22,-37 14,-11 31,-16 51,-16 8,0 15,1 22,2 7,1 14,4 21,7 7,3 12,7 17,12 5,5 9,11 12,18 3,7 5,15 5,24l-52 0c0,-12 -7,-17 -21,-17 -6,0 -11,1 -14,4 -4,3 -5,6 -5,10 0,7 6,11 16,14l32 8c9,2 16,5 22,9 6,4 11,8 15,12 3,4 6,8 8,13 2,5 3,8 4,12 1,3 1,6 1,9 0,10 -2,19 -7,26 -5,8 -11,14 -19,19 -8,5 -16,8 -26,11 -9,2 -19,4 -29,4 -8,0 -15,-1 -23,-3 -7,-2 -15,-4 -21,-8 -7,-4 -13,-8 -18,-13 -5,-5 -9,-11 -12,-18 -3,-7 -4,-15 -5,-23z"/>
  <polygon id="8" class="fil5" points="810,3571 810,3294 985,3294 985,3346 868,3346 868,3409 970,3409 970,3460 868,3460 868,3519 988,3519 988,3571 "/>
  <path id="9" class="fil5" d="M1018 3477c0,-14 3,-28 8,-40 5,-12 13,-23 22,-31 9,-8 19,-15 31,-19 11,-5 23,-7 35,-7 5,0 11,1 16,2 6,1 13,4 20,8 8,4 14,9 18,16l0 -21 55 0 0 187 -55 0 0 -21c-5,8 -14,14 -25,19 -11,4 -21,6 -30,6 -16,0 -32,-4 -46,-12 -14,-8 -26,-19 -36,-34 -9,-15 -14,-32 -14,-52zm72 -32c-9,8 -14,19 -14,32 0,13 5,24 14,32 10,8 20,13 33,13 12,0 23,-4 32,-12 9,-8 14,-19 14,-32 0,-13 -5,-24 -14,-32 -9,-8 -20,-12 -32,-12 -12,0 -23,4 -33,13z"/>
  <path id="10" class="fil5" d="M1275 3571l0 -187 55 0 0 45c4,-16 12,-28 22,-37 10,-8 20,-12 31,-12 13,0 23,2 32,7l-10 50c-8,-4 -17,-6 -29,-6 -16,0 -28,6 -35,19 -7,12 -11,31 -11,56l0 66 -55 0z"/>
  <path id="11" class="fil5" d="M1444 3571l0 -187 55 0 0 28c5,-10 13,-17 23,-23 10,-6 21,-9 32,-9 22,0 38,7 50,20 12,13 18,33 18,59l0 112 -55 0 0 -99c0,-12 -3,-21 -9,-27 -6,-6 -14,-10 -24,-10 -23,0 -35,13 -35,38l0 98 -55 0z"/>
  <path id="12" class="fil5" d="M1675 3337c-7,-6 -10,-14 -10,-23 0,-9 3,-17 10,-23 7,-6 15,-9 25,-9 9,0 17,3 24,9 7,6 10,14 10,23 0,9 -3,17 -10,23 -7,6 -15,10 -24,10 -10,0 -18,-3 -25,-10zm-3 234l0 -187 55 0 0 187 -55 0z"/>
  <path id="13" class="fil5" d="M1779 3571l0 -187 55 0 0 28c5,-10 13,-17 23,-23 10,-6 21,-9 32,-9 22,0 38,7 50,20 12,13 18,33 18,59l0 112 -55 0 0 -99c0,-12 -3,-21 -9,-27 -6,-6 -14,-10 -24,-10 -23,0 -35,13 -35,38l0 98 -55 0z"/>
  <path id="14" class="fil5" d="M1996 3478c0,-15 3,-28 8,-41 5,-12 12,-23 21,-31 9,-8 19,-15 30,-19 11,-5 23,-7 35,-7 12,0 23,2 34,7 11,5 18,12 22,20l0 -23 55 0 0 161c0,40 -9,70 -28,90 -18,20 -45,30 -79,30 -21,0 -39,-5 -56,-16 -17,-11 -29,-25 -37,-42 5,-2 12,-6 23,-11 10,-5 18,-9 23,-11 3,8 9,16 19,21 9,6 19,9 28,9 37,0 55,-22 52,-67 -4,8 -12,15 -22,20 -11,5 -22,7 -34,7 -16,0 -31,-4 -46,-12 -14,-8 -26,-19 -35,-34 -9,-15 -13,-32 -13,-51zm59 -1c0,14 4,24 13,33 9,8 19,13 32,13 12,0 22,-4 31,-13 9,-9 14,-19 14,-33 0,-13 -4,-24 -13,-32 -9,-8 -19,-12 -32,-12 -12,0 -23,4 -32,12 -9,8 -13,19 -13,32z"/>
  <path id="15" class="fil5" d="M2240 3511l52 0c0,5 3,10 8,14 5,4 12,6 19,6 6,0 12,-2 16,-5 4,-3 7,-6 7,-11 0,-4 -1,-7 -4,-10 -3,-2 -8,-4 -14,-6l-25 -6c-11,-3 -20,-6 -27,-11 -8,-4 -13,-8 -17,-12 -4,-4 -6,-8 -8,-14 -2,-5 -3,-9 -3,-13 0,-3 0,-7 0,-12 0,-14 8,-26 22,-37 14,-11 31,-16 51,-16 8,0 15,1 22,2 7,1 14,4 21,7 7,3 12,7 17,12 5,5 9,11 12,18 3,7 5,15 5,24l-52 0c0,-12 -7,-17 -21,-17 -6,0 -11,1 -14,4 -4,3 -5,6 -5,10 0,7 6,11 16,14l32 8c9,2 16,5 22,9 6,4 11,8 15,12 3,4 6,8 8,13 2,5 3,8 4,12 1,3 1,6 1,9 0,10 -2,19 -7,26 -5,8 -11,14 -19,19 -8,5 -16,8 -26,11 -9,2 -19,4 -29,4 -8,0 -15,-1 -23,-3 -7,-2 -15,-4 -21,-8 -7,-4 -13,-8 -18,-13 -5,-5 -9,-11 -12,-18 -3,-7 -4,-15 -5,-23z"/>
  <polygon class="fil4" points="811,11691 811,11638 1018,11638 1018,11691 945,11691 945,11914 885,11914 885,11691 "/>
  <path id="1" class="fil4" d="M1014 11820c0,-19 4,-36 13,-51 9,-15 21,-26 35,-34 15,-8 31,-12 49,-12 18,0 34,4 49,12 15,8 27,19 36,35 9,15 13,32 13,51 0,19 -4,36 -13,51 -9,15 -21,27 -36,35 -15,8 -31,12 -49,12 -18,0 -34,-4 -49,-12 -15,-8 -26,-19 -35,-34 -9,-15 -13,-32 -13,-51zm55 0c0,12 4,23 12,30 8,8 18,12 30,12 12,0 22,-4 30,-12 8,-8 12,-18 12,-31 0,-12 -4,-22 -12,-30 -8,-8 -18,-12 -30,-12 -12,0 -22,4 -30,12 -8,8 -12,18 -12,30z"/>
  <polygon id="2" class="fil4" points="1231,11771 1231,11727 1265,11727 1265,11655 1320,11655 1320,11727 1359,11727 1359,11771 1320,11771 1320,11914 1265,11914 1265,11771 "/>
  <path id="3" class="fil4" d="M1379 11821c0,-14 3,-28 8,-40 5,-12 13,-23 22,-31 9,-8 19,-15 31,-19 11,-5 23,-7 35,-7 5,0 11,1 16,2 6,1 13,4 20,8 8,4 14,9 18,16l0 -21 55 0 0 187 -55 0 0 -21c-5,8 -14,14 -25,19 -11,4 -21,6 -30,6 -16,0 -32,-4 -46,-12 -14,-8 -26,-19 -36,-34 -9,-15 -14,-32 -14,-52zm72 -32c-9,8 -14,19 -14,32 0,13 5,24 14,32 10,8 20,13 33,13 12,0 23,-4 32,-12 9,-8 14,-19 14,-32 0,-13 -5,-24 -14,-32 -9,-8 -20,-12 -32,-12 -12,0 -23,4 -33,13z"/>
  <polygon id="4" class="fil4" points="1636,11914 1636,11625 1692,11625 1692,11914 "/>
  <path id="5" class="fil4" d="M1745 11885c0,-10 3,-17 10,-24 7,-6 15,-10 24,-10 10,0 18,3 24,10 7,6 10,14 10,24 0,10 -3,18 -10,24 -7,6 -15,10 -24,10 -10,0 -18,-3 -24,-10 -7,-6 -10,-14 -10,-24zm0 -128c0,-10 3,-18 10,-24 7,-6 15,-10 24,-10 10,0 18,3 24,10 7,6 10,14 10,24 0,10 -3,17 -10,24 -7,6 -15,10 -24,10 -10,0 -18,-3 -24,-10 -7,-6 -10,-14 -10,-24z"/>
  <line class="fil6 str0" x1="782" y1="5984" x2="6039" y2= "5984" />
  <line class="fil6 str0" x1="747" y1="7615" x2="6039" y2= "7615" />
  <line class="fil6 str0" x1="740" y1="9197" x2="6039" y2= "9197" />
  <line class="fil6 str0" x1="652" y1="11354" x2="5938" y2= "11354" />
  <line class="fil6 str0" x1="670" y1="12162" x2="5920" y2= "12162" />
  <path class="fil7" d="M931 6271l1029 0c67,0 122,55 122,122l0 0c0,67 -55,122 -122,122l-1029 0c-67,0 -122,-55 -122,-122l0 0c0,-67 55,-122 122,-122z"/>
  <path class="fil7" d="M931 4659l1029 0c67,0 122,55 122,122l0 0c0,67 -55,122 -122,122l-1029 0c-67,0 -122,-55 -122,-122l0 0c0,-67 55,-122 122,-122z"/>
  <path class="fil7" d="M931 7880l1029 0c67,0 122,55 122,122l0 0c0,67 -55,122 -122,122l-1029 0c-67,0 -122,-55 -122,-122l0 0c0,-67 55,-122 122,-122z"/>
  <path class="fil7" d="M931 9488l1029 0c67,0 122,55 122,122l0 0c0,67 -55,122 -122,122l-1029 0c-67,0 -122,-55 -122,-122l0 0c0,-67 55,-122 122,-122z"/>
  <path class="fil7" d="M4761 6271l793 0c67,0 122,55 122,122l0 0c0,67 -55,122 -122,122l-793 0c-67,0 -122,-55 -122,-122l0 0c0,-67 55,-122 122,-122z"/>
  <path class="fil7" d="M4761 4659l793 0c67,0 122,55 122,122l0 0c0,67 -55,122 -122,122l-793 0c-67,0 -122,-55 -122,-122l0 0c0,-67 55,-122 122,-122z"/>
  <path class="fil7" d="M4761 7880l793 0c67,0 122,55 122,122l0 0c0,67 -55,122 -122,122l-793 0c-67,0 -122,-55 -122,-122l0 0c0,-67 55,-122 122,-122z"/>
  <path class="fil7" d="M4761 9488l793 0c67,0 122,55 122,122l0 0c0,67 -55,122 -122,122l-793 0c-67,0 -122,-55 -122,-122l0 0c0,-67 55,-122 122,-122z"/>
  <path class="fil7" d="M4761 7101l793 0c67,0 122,55 122,122l0 0c0,67 -55,122 -122,122l-793 0c-67,0 -122,-55 -122,-122l0 0c0,-67 55,-122 122,-122z"/>
  <path class="fil7" d="M4761 5489l793 0c67,0 122,55 122,122l0 0c0,67 -55,122 -122,122l-793 0c-67,0 -122,-55 -122,-122l0 0c0,-67 55,-122 122,-122z"/>
  <path class="fil7" d="M4761 8710l793 0c67,0 122,55 122,122l0 0c0,67 -55,122 -122,122l-793 0c-67,0 -122,-55 -122,-122l0 0c0,-67 55,-122 122,-122z"/>
  <path class="fil7" d="M4761 10319l793 0c67,0 122,55 122,122l0 0c0,67 -55,122 -122,122l-793 0c-67,0 -122,-55 -122,-122l0 0c0,-67 55,-122 122,-122z"/>
  <path class="fil7" d="M4761 11650l793 0c67,0 122,55 122,122l0 0c0,67 -55,122 -122,122l-793 0c-67,0 -122,-55 -122,-122l0 0c0,-67 55,-122 122,-122z"/>
  <path class="fil7" d="M3395 6692l-2464 0c-67,0 -122,55 -122,122l0 0c0,67 55,122 122,122l2464 0c67,0 122,-55 122,-122l0 0c0,-67 -55,-122 -122,-122z"/>
  <path class="fil7" d="M3395 5081l-2464 0c-67,0 -122,55 -122,122l0 0c0,67 55,122 122,122l2464 0c67,0 122,-55 122,-122l0 0c0,-67 -55,-122 -122,-122z"/>
  <path class="fil7" d="M3395 8301l-2464 0c-67,0 -122,55 -122,122l0 0c0,67 55,122 122,122l2464 0c67,0 122,-55 122,-122l0 0c0,-67 -55,-122 -122,-122z"/>
  <path class="fil7" d="M3395 9910l-2464 0c-67,0 -122,55 -122,122l0 0c0,67 55,122 122,122l2464 0c67,0 122,-55 122,-122l0 0c0,-67 -55,-122 -122,-122z"/>
  <path class="fil7" d="M3395 7101l-2464 0c-67,0 -122,55 -122,122l0 0c0,67 55,122 122,122l2464 0c67,0 122,-55 122,-122l0 0c0,-67 -55,-122 -122,-122z"/>
  <path class="fil7" d="M3395 5489l-2464 0c-67,0 -122,55 -122,122l0 0c0,67 55,122 122,122l2464 0c67,0 122,-55 122,-122l0 0c0,-67 -55,-122 -122,-122z"/>
  <path class="fil7" d="M3395 8710l-2464 0c-67,0 -122,55 -122,122l0 0c0,67 55,122 122,122l2464 0c67,0 122,-55 122,-122l0 0c0,-67 -55,-122 -122,-122z"/>
  <path class="fil7" d="M3395 10319l-2464 0c-67,0 -122,55 -122,122l0 0c0,67 55,122 122,122l2464 0c67,0 122,-55 122,-122l0 0c0,-67 -55,-122 -122,-122z"/>
  <rect class="fil3" x="1602" y="1852" width="3382" height="860" rx="430" ry="430"/>
  <g id="_447863368">
   <rect class="fil2" x="4639" y="3208" width="1037" height="531"/>
   <path class="fil8" d="M5149 3300c108,-6 185,59 186,165 0,135 -86,186 -174,185 -87,-1 -174,-53 -179,-165 -4,-108 66,-180 167,-185zm-451 57c-2,10 -4,214 -3,235 31,4 56,12 71,29 15,16 27,40 30,70 123,0 246,-2 369,-2 123,0 247,1 371,-2 0,-28 4,-63 19,-82 13,-17 34,-33 66,-36l0 -186c-60,-15 -80,-61 -95,-110 -4,-14 0,-15 -15,-15 -79,1 -158,-1 -237,-1l-354 -2c-36,0 -84,-3 -118,0 -4,9 -5,27 -11,40 -17,38 -45,58 -92,61z"/>
   <path class="fil2" d="M5322 3494c12,-105 -48,-184 -143,-192 -101,-9 -177,61 -186,151 -22,225 301,279 329,41z"/>
   <path class="fil3" d="M4698 3357c46,-3 75,-23 92,-61 6,-13 7,-32 11,-40 35,-3 82,0 118,0l354 2c79,0 158,2 237,1 15,0 11,1 15,15 15,49 35,95 95,110l0 186c-32,3 -53,19 -66,36 -15,20 -18,54 -19,82 -123,2 -247,2 -371,2 -123,0 -246,1 -369,2 -2,-30 -15,-54 -30,-70 -15,-17 -40,-25 -71,-29 -1,-21 1,-226 3,-235zm846 342c3,-11 0,-32 3,-49 9,-42 31,-69 83,-70l0 -201c-4,-6 -15,-7 -21,-10 -7,-3 -12,-6 -19,-10 -12,-8 -22,-16 -30,-28 -11,-17 -28,-59 -32,-83l-739 -3c-1,25 -12,62 -28,76 -30,25 -56,22 -75,28l-2 256c64,0 98,35 100,98 24,3 68,-1 94,-1l284 -1c127,0 254,0 381,-2z"/>
   <path class="fil3" d="M5323 3493c-28,231 -354,178 -332,-39 9,-88 86,-155 187,-146 96,8 157,84 145,186zm-175 -195c-102,5 -173,83 -169,187 9,216 357,240 356,-20 0,-102 -78,-173 -187,-168z"/>
   <g>
    <rect class="fil2" x="4993" y="3308" width="334" height="334" rx="145" ry="167"/>
    <path class="fil3" d="M5181 3574c0,0 -1,1 -1,2l0 1c0,0 0,1 0,1l0 0c0,0 0,0 0,1 0,0 0,0 0,0 0,0 0,0 0,0 0,0 1,1 1,2 0,0 0,0 0,0 0,0 0,0 0,0l0 0c0,0 0,0 0,0l0 0c1,1 1,1 2,2l5 7c1,1 2,3 4,4l1 1c1,1 1,1 2,2l1 1c0,0 1,0 1,1 0,0 2,1 2,2 0,0 1,0 1,1 0,0 1,0 1,1 0,0 0,0 0,0 0,0 0,0 0,0l0 0c0,0 1,0 1,1 0,0 1,0 1,1 0,0 0,0 0,0l1 0c0,0 0,0 0,0 0,0 0,0 0,0 0,0 0,0 1,0 0,0 0,0 0,0 0,0 0,0 0,0 0,0 0,0 1,0 0,0 0,0 0,0 0,0 1,0 1,0 0,0 1,0 1,0l0 0c0,0 0,0 0,0 0,0 0,0 1,0 0,0 1,0 1,0 0,0 1,0 1,0 0,0 1,0 2,0 0,0 0,0 0,0 0,0 1,0 1,0 1,0 1,0 1,0 0,0 0,0 0,0 0,0 0,0 1,0 0,0 0,0 1,0l2 0c1,0 3,-1 3,-1 0,0 1,0 1,-1 1,0 1,-1 1,-1l5 -3c0,0 0,0 0,0 1,-1 2,-1 2,-2 1,-1 1,-1 2,-2 1,0 2,-2 3,-3 0,0 1,-1 1,-1 0,0 1,-1 1,-1 0,0 1,-1 1,-1 0,0 0,-1 0,-1 0,0 0,-1 1,-1l0 -1c0,0 0,0 0,-1 0,0 0,-1 1,-1l0 -1c0,0 0,0 0,0 0,0 0,0 0,0 0,0 0,0 0,-1l0 -1c0,0 0,0 0,0 0,0 0,0 0,0 0,0 0,0 0,0l0 0c0,0 0,-2 0,-2 0,0 0,0 0,-1 0,0 0,-1 0,-1 0,0 0,0 0,0 0,0 0,-1 0,-1 0,0 0,-1 0,-1 0,0 0,-1 0,-1l0 0c0,0 0,-1 0,-1 0,0 0,-1 0,-2 0,0 0,0 0,-1 0,0 0,0 0,-1 0,0 0,-1 0,-1 0,0 0,-1 0,-1l0 -1c0,0 0,-1 0,-1l0 0c0,0 0,-1 0,-1 0,0 0,-1 0,-1 0,0 0,-1 -1,-1l-2 -3c0,0 0,-1 -1,-1 -1,-2 -5,-7 -6,-9 -1,-1 -1,-1 -2,-2 0,0 -2,-2 -2,-2l0 0c0,0 -1,-1 -1,-1 0,0 -1,-1 -1,-1 0,0 0,0 0,0 0,0 0,0 0,0 0,0 0,0 0,0 0,0 -1,0 -1,0 0,0 0,0 -1,0 0,0 0,0 0,0 0,0 0,0 0,0 0,0 0,0 0,0 0,0 -1,0 -1,0 0,0 0,0 0,0l0 0c0,0 -1,0 -1,1 -1,1 -3,3 -4,3 -1,0 -1,1 -2,1l-1 0 -1 1 0 0c0,0 0,0 0,0 0,0 0,0 0,0 0,0 0,0 0,0 0,0 0,0 0,0 0,0 -1,1 -1,1 -1,0 -1,1 -2,1 -1,0 -1,1 -2,1 -1,1 -3,2 -4,3l0 0c0,0 0,0 0,0 0,0 -2,1 -2,2 0,0 0,0 0,1 0,0 0,0 0,0 1,2 2,3 3,5 0,0 0,1 1,1l3 5c0,1 1,1 1,2l3 4c0,1 1,1 1,2 0,1 1,1 1,2 0,1 1,1 1,2 0,1 1,1 1,2 0,1 1,1 1,2 0,0 1,1 1,1 0,0 0,0 1,1 0,1 1,1 1,2 0,0 -3,-3 -3,-4 -1,-1 -3,-3 -3,-4 -1,-1 -1,-1 -2,-2 -1,-1 -1,-1 -2,-2 -1,-1 -1,-1 -2,-2 -1,-1 -1,-1 -2,-2 -1,0 -1,-1 -2,-2 0,0 0,0 -1,-1 -1,-1 -1,-2 -2,-3 -1,-1 -1,-1 -2,-2 0,0 0,0 0,0 0,-1 -2,-2 -3,-3 -1,-1 -1,-1 -2,-2 0,0 0,-1 -1,-1 0,0 -1,-1 -1,-1 0,0 0,0 0,0 0,0 0,0 0,0 0,0 -1,1 -1,1 0,0 0,0 -1,0 0,0 0,0 -1,0 0,1 -2,2 -3,2 -1,0 -3,2 -3,2 0,0 -2,2 -3,2 0,0 0,0 -1,0l-1 1c0,0 0,0 -1,0l0 0c0,0 -1,1 -1,1 0,0 0,0 0,0 0,0 0,0 0,0l-1 0c-1,1 -2,1 -2,2 -1,1 -1,1 -2,2z"/>
    <path class="fil3" d="M5120 3418c1,0 2,1 3,2 1,1 2,2 3,2l6 4c0,0 1,0 1,1l36 28c1,1 2,2 3,3l52 41c-6,4 -13,10 -20,15l-8 6c-1,1 -1,1 -2,1l-13 10c-9,7 -18,14 -27,20l-5 4c-1,0 -1,1 -2,1l-17 13c-3,3 -9,6 -12,9 -1,1 -1,0 -1,2 1,1 2,0 3,1 1,0 0,0 1,0l3 1c1,0 1,0 2,0l10 2c4,1 7,1 11,1l14 0 0 0c4,0 9,-1 13,-2l5 -1c0,0 1,0 1,0 0,0 1,0 1,0l7 -2c1,0 1,-1 2,-1 1,0 1,0 2,-1 1,0 1,0 2,-1 3,-1 4,-2 7,-4 4,-2 8,-6 12,-9 2,-2 3,-3 5,-5 3,-3 7,-7 9,-11 3,-5 6,-10 8,-15l2 -5c2,-6 3,-12 4,-18 2,-14 0,-29 -4,-41l-3 -8c0,-1 0,-1 -1,-2 -3,-6 -7,-13 -12,-18l-13 -12c-8,-6 -16,-10 -25,-14l-7 -2c-1,0 -1,0 -2,0 -1,0 -1,0 -2,-1 -1,0 -1,0 -2,0l-7 -1c-4,-1 -9,0 -13,0 -6,0 -13,1 -18,3l-10 2c-2,0 -2,0 -3,2z"/>
    <path class="fil3" d="M5071 3419c0,12 1,22 5,33l3 7c3,5 5,10 9,15l1 1c1,1 1,2 2,3l11 11c0,0 0,0 0,0 0,0 0,0 1,1l11 8 23 9c1,0 1,0 2,0 1,0 1,0 2,1 8,1 20,3 27,1 2,0 2,0 4,0 3,0 7,-1 10,-2 4,-1 9,-2 13,-4 0,-1 -2,-2 -3,-3 -1,-1 -2,-2 -3,-3l-41 -31c-1,0 0,0 -1,-1 0,0 -1,0 -1,-1l-10 -8c-1,-1 -2,-2 -3,-2l-3 -3c-1,-1 -2,-1 -3,-2 -1,-1 -2,-2 -3,-3 -2,-2 -4,-3 -7,-5 0,0 -1,0 -1,-1 -1,0 0,0 -1,-1l-5 -4c-1,-1 -2,-2 -3,-2l-17 -13c2,-2 17,-14 19,-15l2 -2c1,-1 0,0 1,-1l48 -37c0,0 0,0 1,-1l32 -25c1,-1 1,0 1,-2 -3,-1 -10,-2 -13,-3 -8,-2 -12,-2 -17,-2l-13 0 -1 0c-5,0 -12,2 -17,3l-2 1c0,0 0,0 0,0l-4 1c-1,0 -1,0 -2,1l-4 2c-6,2 -11,6 -16,9l-3 3c-5,4 -9,8 -13,12 0,0 0,0 0,0l-1 1c0,0 0,0 0,0 -1,1 -1,1 -1,1l-6 9c0,1 0,1 -1,2l-4 9c-4,9 -6,20 -6,30z"/>
    <path class="fil2" d="M5201 3560c0,0 0,0 0,0 0,0 0,0 0,0 0,0 1,1 1,1 0,0 1,1 1,1 1,1 1,1 2,2 1,1 2,3 3,3 0,0 0,0 0,0 1,1 1,1 2,2 1,1 2,2 2,3 0,0 0,0 1,1 0,1 1,1 2,2 1,0 1,1 2,2 1,1 1,1 2,2 0,0 1,1 2,2 1,1 1,1 2,2 0,0 2,2 3,4 1,1 3,3 3,4 0,-1 -1,-1 -1,-2 -1,-1 0,0 -1,-1 0,0 -1,-1 -1,-1 0,-1 -1,-1 -1,-2 0,-1 -1,-1 -1,-2 0,-1 -1,-1 -1,-2 0,-1 -1,-1 -1,-2 -1,-1 -1,-1 -1,-2l-3 -4c0,-1 -1,-1 -1,-2l-3 -5c0,0 0,-1 -1,-1 -1,-2 -2,-3 -3,-5 0,0 0,0 0,0 0,0 0,0 0,-1 0,-1 2,-2 2,-2 0,0 0,0 0,0l-4 4c-1,0 -1,1 -2,1z"/>
   </g>
  </g>
  <g id="_443962528">
   <g>
    <polygon class="fil2" points="4591,2212 4410,2095 4240,2212 "/>
    <g>
     <rect class="fil2" x="4279" y="2261" width="45.4605" height="116.612"/>
     <rect class="fil2" x="4393" y="2261" width="45.4605" height="116.612"/>
     <rect class="fil2" x="4506" y="2261" width="45.4605" height="116.612"/>
    </g>
    <rect class="fil2" x="4246" y="2412" width="337.966" height="57.3197"/>
   </g>
   <path class="fil9" d="M2413 2450l0 -222 44 0 0 18c4,-7 9,-12 17,-16 8,-4 17,-6 26,-6 10,0 19,2 27,6 9,4 16,9 23,15 7,7 12,15 16,25 4,10 6,20 6,32 0,12 -2,22 -6,32 -4,10 -9,18 -16,25 -7,7 -14,12 -23,15 -9,4 -18,6 -27,6 -10,0 -18,-2 -26,-6 -8,-4 -14,-9 -17,-16l0 91 -44 0zm45 -147c0,11 3,19 10,26 7,6 15,10 24,10 10,0 18,-3 24,-10 7,-6 10,-15 10,-25 0,-11 -3,-19 -10,-26 -7,-7 -15,-10 -24,-10 -9,0 -18,3 -24,10 -7,7 -10,15 -10,26z"/>
   <path id="1" class="fil9" d="M2596 2303c0,-11 2,-22 6,-32 4,-10 10,-18 17,-25 7,-6 15,-12 24,-15 9,-4 18,-6 28,-6 4,0 8,0 13,1 5,1 10,3 16,6 6,3 11,7 14,12l0 -17 44 0 0 149 -44 0 0 -17c-4,6 -11,11 -20,15 -9,3 -17,5 -24,5 -13,0 -25,-3 -36,-9 -11,-6 -21,-15 -28,-27 -7,-12 -11,-26 -11,-41zm57 -25c-8,7 -11,15 -11,25 0,10 4,19 11,25 8,7 16,10 26,10 10,0 18,-3 25,-10 7,-6 11,-15 11,-26 0,-11 -4,-19 -11,-26 -7,-6 -16,-10 -25,-10 -10,0 -18,3 -26,10z"/>
   <path id="2" class="fil9" d="M2791 2329l41 0c0,4 2,8 7,11 4,3 9,5 15,5 5,0 9,-1 13,-4 4,-2 5,-5 5,-9 0,-3 -1,-6 -3,-8 -2,-2 -6,-4 -11,-5l-20 -5c-9,-2 -16,-5 -22,-9 -6,-3 -10,-7 -13,-10 -3,-3 -5,-7 -7,-11 -2,-4 -2,-7 -3,-10 0,-2 0,-6 0,-9 0,-11 6,-21 18,-29 11,-8 25,-13 40,-13 6,0 12,1 18,2 6,1 11,3 16,5 5,2 10,6 14,9 4,4 7,8 9,14 2,6 4,12 4,19l-41 0c0,-9 -6,-14 -17,-14 -5,0 -9,1 -11,3 -3,2 -4,5 -4,8 0,5 5,9 13,11l25 7c7,2 13,4 18,7 5,3 9,6 12,9 3,3 5,6 7,10 2,4 3,7 3,9 0,3 1,5 1,7 0,8 -2,15 -6,21 -4,6 -9,11 -15,15 -6,4 -13,7 -20,9 -8,2 -15,3 -23,3 -6,0 -12,-1 -18,-2 -6,-1 -12,-4 -17,-6 -5,-3 -10,-6 -14,-10 -4,-4 -7,-9 -10,-14 -2,-6 -4,-12 -4,-18z"/>
   <path id="3" class="fil9" d="M2940 2329l41 0c0,4 2,8 7,11 4,3 9,5 15,5 5,0 9,-1 13,-4 4,-2 5,-5 5,-9 0,-3 -1,-6 -3,-8 -2,-2 -6,-4 -11,-5l-20 -5c-9,-2 -16,-5 -22,-9 -6,-3 -10,-7 -13,-10 -3,-3 -5,-7 -7,-11 -2,-4 -2,-7 -3,-10 0,-2 0,-6 0,-9 0,-11 6,-21 18,-29 11,-8 25,-13 40,-13 6,0 12,1 18,2 6,1 11,3 16,5 5,2 10,6 14,9 4,4 7,8 9,14 2,6 4,12 4,19l-41 0c0,-9 -6,-14 -17,-14 -5,0 -9,1 -11,3 -3,2 -4,5 -4,8 0,5 5,9 13,11l25 7c7,2 13,4 18,7 5,3 9,6 12,9 3,3 5,6 7,10 2,4 3,7 3,9 0,3 1,5 1,7 0,8 -2,15 -6,21 -4,6 -9,11 -15,15 -6,4 -13,7 -20,9 -8,2 -15,3 -23,3 -6,0 -12,-1 -18,-2 -6,-1 -12,-4 -17,-6 -5,-3 -10,-6 -14,-10 -4,-4 -7,-9 -10,-14 -2,-6 -4,-12 -4,-18z"/>
   <path id="4" class="fil5" d="M2413 2450l0 -222 44 0 0 18c4,-7 9,-12 17,-16 8,-4 17,-6 26,-6 10,0 19,2 27,6 9,4 16,9 23,15 7,7 12,15 16,25 4,10 6,20 6,32 0,12 -2,22 -6,32 -4,10 -9,18 -16,25 -7,7 -14,12 -23,15 -9,4 -18,6 -27,6 -10,0 -18,-2 -26,-6 -8,-4 -14,-9 -17,-16l0 91 -44 0zm45 -147c0,11 3,19 10,26 7,6 15,10 24,10 10,0 18,-3 24,-10 7,-6 10,-15 10,-25 0,-11 -3,-19 -10,-26 -7,-7 -15,-10 -24,-10 -9,0 -18,3 -24,10 -7,7 -10,15 -10,26z"/>
   <path id="5" class="fil5" d="M2596 2303c0,-11 2,-22 6,-32 4,-10 10,-18 17,-25 7,-6 15,-12 24,-15 9,-4 18,-6 28,-6 4,0 8,0 13,1 5,1 10,3 16,6 6,3 11,7 14,12l0 -17 44 0 0 149 -44 0 0 -17c-4,6 -11,11 -20,15 -9,3 -17,5 -24,5 -13,0 -25,-3 -36,-9 -11,-6 -21,-15 -28,-27 -7,-12 -11,-26 -11,-41zm57 -25c-8,7 -11,15 -11,25 0,10 4,19 11,25 8,7 16,10 26,10 10,0 18,-3 25,-10 7,-6 11,-15 11,-26 0,-11 -4,-19 -11,-26 -7,-6 -16,-10 -25,-10 -10,0 -18,3 -26,10z"/>
   <path id="6" class="fil5" d="M2791 2329l41 0c0,4 2,8 7,11 4,3 9,5 15,5 5,0 9,-1 13,-4 4,-2 5,-5 5,-9 0,-3 -1,-6 -3,-8 -2,-2 -6,-4 -11,-5l-20 -5c-9,-2 -16,-5 -22,-9 -6,-3 -10,-7 -13,-10 -3,-3 -5,-7 -7,-11 -2,-4 -2,-7 -3,-10 0,-2 0,-6 0,-9 0,-11 6,-21 18,-29 11,-8 25,-13 40,-13 6,0 12,1 18,2 6,1 11,3 16,5 5,2 10,6 14,9 4,4 7,8 9,14 2,6 4,12 4,19l-41 0c0,-9 -6,-14 -17,-14 -5,0 -9,1 -11,3 -3,2 -4,5 -4,8 0,5 5,9 13,11l25 7c7,2 13,4 18,7 5,3 9,6 12,9 3,3 5,6 7,10 2,4 3,7 3,9 0,3 1,5 1,7 0,8 -2,15 -6,21 -4,6 -9,11 -15,15 -6,4 -13,7 -20,9 -8,2 -15,3 -23,3 -6,0 -12,-1 -18,-2 -6,-1 -12,-4 -17,-6 -5,-3 -10,-6 -14,-10 -4,-4 -7,-9 -10,-14 -2,-6 -4,-12 -4,-18z"/>
   <path id="7" class="fil5" d="M2940 2329l41 0c0,4 2,8 7,11 4,3 9,5 15,5 5,0 9,-1 13,-4 4,-2 5,-5 5,-9 0,-3 -1,-6 -3,-8 -2,-2 -6,-4 -11,-5l-20 -5c-9,-2 -16,-5 -22,-9 -6,-3 -10,-7 -13,-10 -3,-3 -5,-7 -7,-11 -2,-4 -2,-7 -3,-10 0,-2 0,-6 0,-9 0,-11 6,-21 18,-29 11,-8 25,-13 40,-13 6,0 12,1 18,2 6,1 11,3 16,5 5,2 10,6 14,9 4,4 7,8 9,14 2,6 4,12 4,19l-41 0c0,-9 -6,-14 -17,-14 -5,0 -9,1 -11,3 -3,2 -4,5 -4,8 0,5 5,9 13,11l25 7c7,2 13,4 18,7 5,3 9,6 12,9 3,3 5,6 7,10 2,4 3,7 3,9 0,3 1,5 1,7 0,8 -2,15 -6,21 -4,6 -9,11 -15,15 -6,4 -13,7 -20,9 -8,2 -15,3 -23,3 -6,0 -12,-1 -18,-2 -6,-1 -12,-4 -17,-6 -5,-3 -10,-6 -14,-10 -4,-4 -7,-9 -10,-14 -2,-6 -4,-12 -4,-18z"/>
   <g>
    <rect class="fil2" x="1994" y="2094" width="377" height="377" rx="163" ry="188"/>
    <path class="fil3" d="M2206 2394c0,0 -1,1 -1,2l0 1c0,1 0,1 0,1l0 0c0,0 0,0 0,1 0,0 0,0 0,0 0,0 0,0 0,0 0,0 1,1 1,2 0,0 0,0 0,0 0,0 0,0 0,0l0 0c0,0 0,0 0,0l0 0c1,1 1,2 2,3l6 8c1,2 3,3 4,4l1 1c1,1 1,1 2,2l1 1c0,0 1,0 1,1 0,0 2,1 2,2 0,0 1,1 1,1 0,0 1,0 1,1 0,0 0,0 0,0 0,0 0,0 0,0l0 0c0,0 1,0 2,1 0,0 1,0 1,1 0,0 0,0 1,0l1 0c0,0 0,0 0,0 0,0 0,0 0,0 0,0 1,0 1,0 0,0 0,0 0,0 0,0 0,0 0,0 0,0 0,0 1,0 0,0 0,0 0,0 1,0 1,0 1,0 0,0 1,0 1,0l0 0c0,0 0,0 0,0 0,0 1,0 1,0 0,0 1,0 1,0 0,0 1,0 1,0 0,0 1,0 2,0 0,0 0,0 0,0 1,0 1,0 2,0 1,0 1,0 1,0 0,0 0,0 0,0 0,0 0,0 1,0 0,0 0,0 1,0l2 -1c1,0 3,-1 4,-1 0,0 1,-1 2,-1 1,0 1,-1 2,-1l6 -3c0,0 0,0 0,0 1,-1 2,-1 3,-2 1,-1 2,-1 3,-2 1,0 3,-3 3,-3 0,0 1,-1 1,-1 0,0 1,-1 1,-2 0,0 1,-1 1,-2 0,0 0,-1 1,-1 0,0 0,-1 1,-1l0 -1c0,0 0,-1 0,-1 0,0 0,-1 1,-1l1 -1c0,0 0,0 0,0 0,0 0,0 0,0 0,0 0,-1 0,-1l0 -1c0,0 0,0 0,0 0,0 0,0 0,0 0,0 0,0 0,0l0 0c0,0 0,-2 0,-2 0,0 0,0 0,-1 0,0 0,-1 0,-1 0,0 0,0 0,-1 0,0 0,-1 0,-1 0,0 0,-1 0,-2 0,0 0,-1 0,-2l0 0c0,0 0,-1 0,-1 0,0 0,-2 0,-2 0,0 0,0 0,-1 0,0 0,0 0,-1 0,0 0,-1 0,-1 0,0 0,-1 0,-1l0 -1c0,-1 0,-1 0,-1l0 0c0,0 0,-1 0,-1 0,0 0,-1 -1,-2 0,0 -1,-1 -1,-2l-2 -4c0,0 -1,-1 -1,-1 -1,-3 -5,-8 -7,-10 -1,-1 -1,-2 -2,-3 0,0 -2,-2 -2,-2l0 0c0,0 -1,-1 -1,-1 0,0 -1,-1 -1,-1 0,0 0,0 0,0 0,0 0,0 0,0 0,0 0,0 0,0 0,0 -1,0 -1,0 0,0 0,0 -1,0 0,0 0,0 0,0 0,0 0,0 0,0 0,0 0,0 0,0 0,0 -1,0 -2,0 0,0 0,0 0,0l0 0c0,0 -1,0 -1,1 -1,1 -4,3 -5,4 -1,1 -1,1 -2,2l-1 0 -2 2 0 0c0,0 0,0 0,0 0,0 0,0 0,0 0,0 0,0 0,0 0,0 0,0 0,0 -1,0 -1,1 -2,1 -1,0 -1,1 -2,2 -1,1 -1,1 -2,2 -1,1 -3,3 -4,3l0 0c0,0 0,0 0,0 0,0 -2,1 -2,2 0,0 0,0 0,1 0,0 0,0 0,1 1,2 3,4 4,5 0,0 0,1 1,1l4 5c1,1 1,1 1,2l3 4c0,1 1,1 2,2 0,1 1,1 1,2 1,1 1,1 2,2 0,1 1,1 2,2 0,1 1,1 1,2 0,0 1,1 1,1 0,1 0,0 1,1 0,1 1,2 1,2 0,0 -3,-3 -3,-4 -1,-1 -3,-4 -3,-4 -1,-1 -1,-1 -2,-2 -1,-1 -1,-1 -2,-2 -1,-1 -1,-1 -2,-2 -1,-1 -1,-1 -2,-2 -1,-1 -1,-1 -2,-2 0,0 0,0 -1,-1 -1,-1 -2,-2 -3,-3 -1,-1 -1,-2 -2,-2 0,0 0,0 0,0 -1,-1 -2,-2 -3,-4 -1,-1 -1,-1 -2,-2 0,0 -1,-1 -1,-1 0,0 -1,-1 -1,-1 0,0 0,0 0,0 0,0 0,0 0,0 0,0 -1,1 -1,1 0,0 0,0 -1,0 0,0 0,0 -1,0 -1,1 -3,2 -3,2 -1,0 -3,2 -3,2 0,0 -3,2 -3,2 0,0 0,0 -1,0l-1 1c0,0 0,0 -1,0l0 0c0,0 -1,1 -1,1 0,0 0,0 0,0 0,0 0,0 -1,0l-1 1c-1,1 -2,1 -3,2 -1,1 -2,2 -2,2z"/>
    <path class="fil3" d="M2138 2218c1,0 2,2 4,3 1,1 2,2 4,3l6 5c0,0 1,0 1,1l41 31c1,1 2,2 4,3l59 46c-7,5 -15,12 -22,17l-9 7c-1,1 -1,1 -2,1l-15 11c-10,7 -20,16 -30,23l-6 4c-1,1 -1,1 -2,1l-19 14c-4,3 -10,7 -13,10 -1,1 -1,0 -1,2 2,1 2,0 4,1 2,0 0,0 1,0l4 1c1,0 1,0 2,0l11 3c4,1 8,1 12,1l15 0 0 0c4,0 11,-1 15,-3l6 -2c0,0 1,0 1,0 0,0 1,0 1,0l7 -3c1,-1 1,-1 2,-1 1,-1 1,0 2,-1 1,0 1,-1 2,-1 3,-1 5,-3 7,-4 5,-3 9,-6 13,-10 2,-2 4,-4 6,-6 4,-4 7,-8 10,-13 4,-5 7,-11 9,-17l2 -5c2,-6 4,-13 5,-20 3,-15 0,-32 -5,-47l-4 -9c0,-1 0,-1 -1,-2 -4,-7 -8,-14 -14,-20l-15 -14c-9,-7 -18,-11 -28,-15l-8 -3c-1,0 -2,0 -2,-1 -2,0 -1,0 -2,-1 -1,0 -2,0 -3,0l-8 -1c-5,-1 -10,-1 -15,-1 -6,0 -14,2 -21,3l-11 3c-2,0 -3,0 -3,2z"/>
    <path class="fil3" d="M2082 2219c0,13 1,25 6,37l3 8c3,6 6,12 10,17l1 2c1,1 2,2 3,4l12 12c0,0 0,0 0,0 0,0 0,0 1,1l13 9 26 11c1,0 2,0 2,1 2,0 1,0 2,1 9,1 22,3 31,1 2,0 3,0 5,0 4,0 8,-1 11,-2 5,-1 10,-2 15,-4 0,-1 -2,-2 -3,-3 -1,-1 -2,-2 -4,-3l-47 -36c-1,0 0,0 -1,-1 0,0 -1,0 -1,-1l-11 -9c-2,-1 -2,-2 -4,-3l-4 -3c-1,-1 -2,-2 -4,-3 -1,-1 -2,-2 -4,-3 -3,-2 -5,-4 -8,-6 0,0 -1,0 -1,-1 -1,-1 0,0 -1,-1l-6 -4c-1,-1 -2,-2 -4,-3l-19 -15c2,-3 20,-15 22,-17l2 -2c1,-1 0,0 1,-1l54 -42c0,0 0,0 1,-1l37 -28c1,-1 1,0 1,-2 -3,-1 -11,-3 -14,-4 -9,-2 -13,-3 -19,-3l-14 0 -1 0c-5,0 -14,2 -19,4l-2 1c0,0 0,0 0,0l-4 1c-1,0 -1,0 -2,1l-4 2c-7,3 -13,7 -19,11l-4 3c-5,4 -10,9 -14,14 0,0 0,0 0,0l-1 1c0,0 0,0 0,1 -1,1 -1,1 -1,2l-7 11c0,1 -1,1 -1,2l-5 10c-4,11 -7,22 -7,34z"/>
    <path class="fil2" d="M2229 2378c0,0 0,0 0,0 0,0 0,0 0,0 0,0 1,1 1,1 0,0 1,1 1,1 1,1 1,1 2,2 1,1 2,3 3,4 0,0 0,0 0,0 1,1 1,2 2,2 1,1 2,2 3,3 0,0 1,0 1,1 1,1 1,2 2,2 1,1 1,1 2,2 1,1 1,1 2,2 0,1 1,1 2,2 1,1 1,1 2,2 0,0 2,3 3,4 1,1 3,4 3,4 0,-1 -1,-2 -1,-2 -1,-1 0,-1 -1,-1 0,0 -1,-1 -1,-1 -1,-1 -1,-1 -1,-2 0,-1 -1,-1 -2,-2 0,-1 -1,-1 -2,-2 0,-1 -1,-1 -1,-2 -1,-1 -1,-1 -2,-2l-3 -4c-1,-1 -1,-1 -1,-2l-4 -5c0,0 0,-1 -1,-1 -1,-2 -3,-3 -4,-5 0,0 0,0 0,-1 0,0 0,0 0,-1 0,-1 2,-2 2,-2 0,0 0,0 0,0l-5 4c-1,0 -1,1 -2,1z"/>
   </g>
  </g>
 </g>
</svg>
