<?xml version="1.0" encoding="UTF-8"?>
<!DOCTYPE svg PUBLIC "-//W3C//DTD SVG 1.1//EN" "http://www.w3.org/Graphics/SVG/1.1/DTD/svg11.dtd">
<!-- Creator: CorelDRAW X6 -->
<svg xmlns="http://www.w3.org/2000/svg" xml:space="preserve" width="189.484mm" height="189.483mm" version="1.1" style="shape-rendering:geometricPrecision; text-rendering:geometricPrecision; image-rendering:optimizeQuality; fill-rule:evenodd; clip-rule:evenodd"
viewBox="0 0 18097 18097"
 xmlns:xlink="http://www.w3.org/1999/xlink">
 <defs>
  <style type="text/css">
   <![CDATA[
    .fil1 {fill:#13ECAB}
    .fil2 {fill:#4C57FF}
    .fil3 {fill:#62C6A3}
    .fil4 {fill:#C834F7}
    .fil0 {fill:none}
    .fil5 {fill:url(#id0)}
    .fil6 {fill:url(#id1)}
   ]]>
  </style>
  <linearGradient id="id0" gradientUnits="objectBoundingBox" x1="78.6096%" y1="9.81818%" x2="21.3904%" y2="90.1818%">
   <stop offset="0" style="stop-color:#4C57FF"/>
   <stop offset="1" style="stop-color:#13ECAB"/>
  </linearGradient>
  <linearGradient id="id1" gradientUnits="objectBoundingBox" x1="72.2444%" y1="13.0045%" x2="27.7556%" y2="86.9955%">
   <stop offset="0" style="stop-color:#13ECAB"/>
   <stop offset="1" style="stop-color:#FEFEFE"/>
  </linearGradient>
 </defs>
 <g id="Layer_x0020_1">
  <metadata id="CorelCorpID_0Corel-Layer"/>
  <rect class="fil0" width="18097" height="18097"/>
  <g id="_216375880">
   <path class="fil1" d="M9857 5933c-68,-21 -371,79 -451,100 -148,39 -297,73 -448,118 -81,24 -125,44 -205,66 -78,22 -160,37 -231,59l-663 177c-158,34 -145,47 -221,66l-225 52c-77,18 -163,41 -234,59 -150,39 -795,233 -903,215l-5 46c-44,-2 -47,10 -74,17l-558 147c-48,11 -115,24 -161,39l-305 94c-146,42 -101,3 -330,86l-1135 294 -44 -4 13 -39c-95,31 -151,90 -270,104 -9,28 56,-16 -53,40l-149 103c-132,96 -235,422 -171,624l79 338c8,31 18,45 25,73 60,239 150,475 194,721l69 245c28,129 -1,58 61,247 9,-54 -2,-1 112,-36 262,-82 377,-94 661,-86 52,1 83,9 138,12 90,4 57,4 118,28 63,24 64,-7 234,55 62,22 173,52 226,77 41,18 45,33 92,53 100,43 146,71 223,143 2,1 5,4 7,6l41 45c44,46 215,148 367,338 38,49 67,97 105,147l42 70c18,29 30,48 47,78 62,113 196,407 189,525 55,48 50,133 60,224 22,195 9,595 1,792 -6,166 -95,556 -163,661l-202 338c-48,76 -327,373 -392,421 -122,91 -386,251 -530,287 -39,9 -168,56 -204,72 -5,68 36,215 57,274 34,96 19,177 75,253l-4 -47c48,51 39,110 148,202l159 103c12,5 56,15 70,19 80,24 241,32 329,5l217 -74c28,-11 -26,4 25,-8 52,-13 77,-21 143,-28l553 -155c64,-30 69,-22 131,-42l286 -77c24,-9 412,-87 568,-136 121,-39 79,-14 148,-32 50,-13 82,-31 131,-43l710 -182c34,-12 100,-32 135,-40 57,-14 87,-19 144,-33 46,-11 20,-12 68,-21 60,-12 113,-4 176,-35 98,-48 280,-79 321,-94 158,-57 129,-34 210,-54 87,-22 168,-68 347,-94 29,-4 59,-2 84,-6l86 -36c2,-1 36,-12 37,-12l344 -95c116,-36 76,-41 112,-57 78,-36 274,-58 291,-63 179,-59 354,-82 583,-167 60,-22 43,-24 104,-29l290 -69c112,-36 246,-57 417,-110 128,-41 396,-92 524,-141 132,-49 181,-45 275,-128 113,-101 203,-227 244,-371 9,-33 8,-54 17,-82 11,11 8,5 18,23 31,59 32,174 76,240 -14,-101 -48,-195 -71,-282 -29,-110 -50,-186 -79,-290 -28,-99 -148,-503 -146,-580 -6,-22 -22,-40 -32,-74 -7,-28 -9,-72 -16,-113 -13,-67 -52,-135 -43,-215l-1034 -3678 -69 -199c-18,-118 -80,-296 -112,-417 -20,-73 -31,-117 -49,-204l-163 -615c-23,-86 -15,-58 -40,-88 -74,-91 -21,-133 -165,-226 -36,-23 -129,-150 -355,-157 -183,-5 -402,91 -634,138 -113,24 -300,115 -418,105z"/>
   <rect class="fil2" transform="matrix(1.16033 -0.348214 0.386868 1.48885 8229.55 9129.07)" width="3494" height="1753" rx="372" ry="372"/>
   <path class="fil2" d="M4766 14797c50,128 83,461 325,589 37,19 72,28 106,46 217,119 404,21 626,-32 24,-6 40,-6 63,-14 37,-12 10,-9 51,-22l382 -79c141,-9 468,-121 645,-165 125,-30 206,-42 317,-85 104,-40 223,-53 327,-88l480 -125c60,-14 102,-38 151,-56 47,-16 350,-73 491,-125l485 -131c180,-48 474,-138 640,-173 65,-14 106,-21 162,-40l814 -217c129,-28 572,-165 667,-173 12,-12 212,-48 253,-61 54,-17 73,-18 132,-32 38,-9 83,-39 125,-31 18,-52 -15,-19 49,-43l497 -129c34,-12 72,-25 103,-32 74,-19 154,-30 223,-58 260,-104 472,-387 403,-693 -44,-66 -45,-181 -76,-240 -10,-18 -7,-12 -18,-23 -9,28 -8,49 -17,82 -41,144 -131,270 -244,371 -94,83 -143,79 -275,128 -128,49 -396,100 -524,141 -171,53 -305,74 -417,110l-290 69c-61,5 -44,7 -104,29 -229,85 -404,108 -583,167 -17,5 -213,27 -291,63 -36,16 4,21 -112,57l-344 95c-1,0 -35,11 -37,12l-86 36c-25,4 -55,2 -84,6 -179,26 -260,72 -347,94 -81,20 -52,-3 -210,54 -41,15 -223,46 -321,94 -63,31 -116,23 -176,35 -48,9 -22,10 -68,21 -57,14 -87,19 -144,33 -35,8 -101,28 -135,40l-710 182c-49,12 -81,30 -131,43 -69,18 -27,-7 -148,32 -156,49 -544,127 -568,136l-286 77c-62,20 -67,12 -131,42l-553 155c-66,7 -91,15 -143,28 -51,12 3,-3 -25,8l-217 74c-88,27 -249,19 -329,-5 -14,-4 -58,-14 -70,-19l-159 -103c-109,-92 -100,-151 -148,-202l4 47z"/>
   <path class="fil2" d="M3834 7447c-53,25 -106,54 -157,78l-13 39 44 4c14,-17 7,-14 30,-27 12,-7 25,-10 37,-13l6501 -1733c-5,-525 -302,-734 -603,-585l-5839 2237z"/>
   <path class="fil3" d="M5631 13559c-15,84 -256,274 -262,281 -49,58 -102,84 -181,131 -201,118 -117,63 -285,145 -153,75 -276,69 -296,133 2,37 5,98 12,133 5,30 26,75 36,111 11,39 14,83 23,118l159 551c79,52 126,242 432,335 73,22 169,18 246,11 109,-10 305,-72 406,-101 72,-21 130,-35 199,-52 41,-10 63,-17 96,-29 31,-11 78,-20 103,-41l-382 79c-41,13 -14,10 -51,22 -23,8 -39,8 -63,14 -222,53 -409,151 -626,32 -34,-18 -69,-27 -106,-46 -242,-128 -275,-461 -325,-589 -56,-76 -41,-157 -75,-253 -21,-59 -62,-206 -57,-274 36,-16 165,-63 204,-72 144,-36 408,-196 530,-287 65,-48 344,-345 392,-421l202 -338c68,-105 157,-495 163,-661 8,-197 21,-597 -1,-792 -10,-91 -5,-176 -60,-224 2,91 29,210 38,302 9,95 1,226 1,325 0,412 -29,724 -205,1087l-189 299c-54,66 -21,62 -78,71z"/>
   <path class="fil1" d="M9857 5933c118,10 305,-81 418,-105 232,-47 451,-143 634,-138 226,7 319,134 355,157 144,93 91,135 165,226 25,30 17,2 40,88l163 615c18,87 29,131 49,204 32,121 94,299 112,417l69 199c12,17 8,11 35,15 -29,-135 -70,-302 -108,-429 -17,-57 -51,-141 -61,-199 -15,-84 -27,-140 -49,-219 -35,-126 -87,-290 -111,-419 -32,-174 -52,-260 -142,-394 -132,-197 -416,-367 -743,-271 -71,21 -133,44 -214,53 -78,9 -112,44 -193,62 -66,15 -146,35 -212,55l-154 43c-75,25 -29,-12 -53,40z"/>
   <circle class="fil1" cx="9758" cy="10052" r="632"/>
  </g>
  <ellipse class="fil4" cx="6798" cy="4282" rx="1670" ry="1688"/>
  <ellipse class="fil5" cx="6836" cy="4052" rx="1670" ry="1688"/>
  <ellipse class="fil6" cx="6863" cy="4043" rx="1180" ry="1181"/>
  <path class="fil1" d="M6790 4958c-423,-47 -759,-383 -805,-805l805 0 0 805z"/>
  <path class="fil4" d="M7799 4153c-47,423 -383,759 -806,805l0 -805 806 0z"/>
  <path class="fil2" d="M6790 3949l-805 0c23,-212 119,-401 262,-544l543 544 0 0 0 0z"/>
  <path class="fil2" d="M7538 3407c142,143 237,332 261,542l-803 0 542 -542z"/>
  <ellipse class="fil4" cx="14895" cy="12555" rx="1376" ry="1392"/>
  <ellipse class="fil5" cx="14926" cy="12365" rx="1376" ry="1392"/>
  <circle class="fil6" cx="14948" cy="12357" r="973"/>
  <path class="fil1" d="M14889 13112c-349,-39 -626,-316 -664,-664l664 0 0 664z"/>
  <path class="fil4" d="M15720 12448c-39,349 -316,626 -664,664l0 -664 664 0z"/>
  <path class="fil2" d="M14889 12281l-664 0c19,-175 98,-332 216,-449l448 448 0 1 0 0z"/>
  <path class="fil2" d="M15505 11834c117,117 195,273 215,447l-662 0 447 -447z"/>
  <g id="_592802384">
   <ellipse class="fil4" cx="13858" cy="6013" rx="1448" ry="1464"/>
   <ellipse class="fil5" cx="13891" cy="5813" rx="1448" ry="1464"/>
   <ellipse class="fil6" cx="13914" cy="5805" rx="1023" ry="1024"/>
   <path class="fil1" d="M13851 6599c-367,-41 -658,-332 -698,-698l698 0 0 698z"/>
   <path class="fil4" d="M14725 5901c-41,367 -332,658 -698,698l0 -698 698 0z"/>
   <path class="fil2" d="M13851 5725l-698 0c20,-184 103,-349 227,-472l471 471 0 1 0 0z"/>
   <path class="fil2" d="M14499 5254c123,124 206,288 226,471l-696 0 470 -471z"/>
  </g>
  <g id="_592787192">
   <ellipse class="fil4" cx="4060" cy="12286" rx="2160" ry="2184"/>
   <ellipse class="fil5" cx="4109" cy="11988" rx="2160" ry="2184"/>
   <ellipse class="fil6" cx="4143" cy="11976" rx="1527" ry="1528"/>
   <path class="fil1" d="M4049 13161c-547,-61 -982,-496 -1042,-1042l1042 0 0 1042z"/>
   <path class="fil4" d="M5354 12119c-61,547 -495,982 -1042,1042l0 -1042 1042 0z"/>
   <path class="fil2" d="M4049 11856l-1042 0c31,-274 155,-520 339,-704l703 703 0 1 0 0z"/>
   <path class="fil2" d="M5017 11154c184,185 307,429 337,702l-1039 0 702 -702z"/>
  </g>
 </g>
</svg>
