<?xml version="1.0" encoding="UTF-8"?>
<!DOCTYPE svg PUBLIC "-//W3C//DTD SVG 1.1//EN" "http://www.w3.org/Graphics/SVG/1.1/DTD/svg11.dtd">
<!-- Creator: CorelDRAW X6 -->
<svg xmlns="http://www.w3.org/2000/svg" xml:space="preserve" width="174.413mm" height="136.313mm" version="1.1" style="shape-rendering:geometricPrecision; text-rendering:geometricPrecision; image-rendering:optimizeQuality; fill-rule:evenodd; clip-rule:evenodd"
viewBox="0 0 17661 13803"
 xmlns:xlink="http://www.w3.org/1999/xlink">
 <defs>
  <style type="text/css">
   <![CDATA[
    .str0 {stroke:#3B9CFF;stroke-width:7.71579;stroke-opacity:0.980392}
    .fil3 {fill:none;fill-rule:nonzero}
    .fil8 {fill:#00C2FF}
    .fil7 {fill:#3B9CFF}
    .fil4 {fill:#A3D1FF}
    .fil6 {fill:#FBD13E}
    .fil5 {fill:#FEB434}
    .fil0 {fill:#38D0FF;fill-opacity:0.050980}
    .fil1 {fill:#3B9CFF;fill-rule:nonzero;fill-opacity:0.639216}
    .fil2 {fill:#3d4852;fill-rule:nonzero;fill-opacity:0.9}
   ]]>
  </style>
 </defs>
 <g id="Layer_x0020_1">
  <metadata id="CorelCorpID_0Corel-Layer"/>
  <g id="_749979056">
   <path class="fil0" d="M1992 0l13676 0c1096,0 1992,897 1992,1992l0 9818c0,1096 -897,1992 -1992,1992l-13676 0c-1096,0 -1992,-897 -1992,-1992l0 -9818c0,-1096 897,-1992 1992,-1992z"/>
   <g>
    <path class="fil1" d="M1567 1710l0 -65 373 0 0 65 -153 0 0 437 -68 0 0 -437 -153 0zm385 359c-16,-28 -25,-59 -25,-93 0,-35 8,-66 25,-93 16,-27 38,-48 65,-62 27,-14 57,-21 89,-21 32,0 62,7 89,21 27,14 48,35 65,62 16,27 24,58 24,93 0,35 -8,66 -24,93 -16,28 -38,49 -65,63 -27,15 -56,22 -89,22 -32,0 -62,-7 -89,-22 -27,-14 -49,-36 -65,-63zm42 -93c0,34 11,61 32,82 22,21 48,32 80,32 31,0 58,-11 79,-32 22,-21 32,-48 32,-82 0,-33 -11,-60 -32,-81 -21,-21 -48,-31 -79,-31 -31,0 -58,10 -79,31 -22,20 -32,47 -32,81zm355 1c0,-35 8,-66 23,-93 16,-27 36,-48 62,-62 26,-14 54,-21 86,-21 26,0 50,5 71,15 22,10 38,25 49,43l0 -236 66 0 0 525 -66 0 0 -52c-11,19 -27,33 -50,44 -22,10 -45,16 -70,16 -31,0 -60,-7 -86,-21 -26,-14 -47,-35 -62,-63 -16,-27 -24,-58 -24,-93zm68 -1c0,33 11,60 32,81 21,21 47,32 78,32 31,0 58,-10 80,-31 22,-21 33,-48 33,-83 0,-23 -6,-44 -17,-61 -11,-17 -25,-30 -42,-38 -17,-8 -35,-12 -54,-12 -31,0 -57,10 -78,31 -21,21 -32,47 -32,81zm378 1c0,-35 8,-66 24,-93 16,-27 37,-48 63,-62 26,-14 55,-21 86,-21 25,0 48,5 70,15 22,10 38,25 49,43l0 -51 66 0 0 340 -66 0 0 -52c-11,19 -27,33 -49,44 -22,10 -45,16 -70,16 -48,0 -89,-17 -122,-49 -34,-33 -50,-76 -50,-128zm68 -1c0,33 11,60 32,81 21,21 48,32 79,32 32,0 58,-10 80,-31 22,-20 33,-48 33,-83 0,-23 -6,-44 -17,-61 -11,-17 -25,-30 -42,-38 -17,-8 -35,-12 -54,-12 -31,0 -58,10 -79,31 -21,21 -32,47 -32,81zm358 -169l71 0 102 246 102 -246 71 0 -211 505 -69 0 71 -176 -136 -330zm394 -4c31,-44 47,-95 46,-154l61 0c-3,39 -11,73 -25,103 -13,30 -28,51 -44,65l-39 -14zm155 243l61 0c1,8 4,15 9,22 5,7 11,13 19,17 15,9 33,13 53,12 15,-1 28,-6 37,-14 9,-8 14,-19 14,-31 0,-12 -4,-21 -12,-28 -8,-7 -19,-12 -33,-15l-47 -11c-33,-9 -56,-22 -72,-39 -16,-17 -22,-41 -19,-71 2,-25 15,-45 38,-62 23,-17 50,-25 80,-25 15,0 28,2 41,5 13,4 25,9 35,16 11,7 20,17 26,30 7,13 11,27 12,44l-61 0c-2,-12 -7,-21 -17,-28 -10,-7 -22,-10 -35,-10 -12,0 -24,3 -33,9 -10,6 -16,13 -18,22 -3,11 -3,20 1,27 5,11 18,20 39,26l50 12c59,14 89,47 90,99 0,30 -13,55 -39,73 -26,18 -57,28 -94,28 -21,0 -41,-4 -60,-12 -19,-8 -34,-21 -47,-38 -13,-17 -19,-37 -20,-59zm509 0l61 0c1,8 4,15 9,22 5,7 11,13 19,17 15,9 33,13 53,12 15,-1 28,-6 37,-14 9,-8 14,-19 14,-31 0,-12 -4,-21 -12,-28 -8,-7 -19,-12 -33,-15l-47 -11c-33,-9 -56,-22 -72,-39 -16,-17 -22,-41 -19,-71 2,-25 15,-45 38,-62 23,-17 50,-25 80,-25 15,0 28,2 41,5 13,4 25,9 35,16 11,7 20,17 26,30 7,13 11,27 12,44l-61 0c-2,-12 -7,-21 -17,-28 -10,-7 -22,-10 -35,-10 -12,0 -24,3 -33,9 -10,6 -16,13 -18,22 -3,11 -3,20 1,27 5,11 18,20 39,26l50 12c59,14 89,47 90,99 0,30 -13,55 -39,73 -26,18 -57,28 -94,28 -21,0 -41,-4 -60,-12 -19,-8 -34,-21 -47,-38 -13,-17 -19,-37 -20,-59zm322 -69c0,-35 8,-66 24,-93 16,-27 37,-48 63,-62 26,-14 55,-21 86,-21 25,0 48,5 70,15 22,10 38,25 49,43l0 -51 66 0 0 340 -66 0 0 -52c-11,19 -27,33 -49,44 -22,10 -45,16 -70,16 -48,0 -89,-17 -122,-49 -34,-33 -50,-76 -50,-128zm68 -1c0,33 11,60 32,81 21,21 48,32 79,32 32,0 58,-10 80,-31 22,-20 33,-48 33,-83 0,-23 -6,-44 -17,-61 -11,-17 -25,-30 -42,-38 -17,-8 -35,-12 -54,-12 -31,0 -58,10 -79,31 -21,21 -32,47 -32,81zm400 171l0 -525 66 0 0 525 -66 0zm154 -171c0,-53 17,-95 50,-128 33,-32 75,-49 124,-49 49,0 89,16 121,48 32,32 48,75 48,128 0,13 0,21 -1,26l-276 0c4,28 16,51 36,67 20,17 45,25 74,25 21,0 40,-5 57,-14 17,-9 31,-22 40,-39 7,3 17,7 31,12 14,5 23,9 26,10 -14,29 -35,51 -63,67 -28,16 -59,23 -93,23 -49,0 -91,-17 -124,-49 -33,-33 -50,-76 -50,-129zm66 -26l211 0c-4,-28 -15,-50 -34,-67 -19,-16 -42,-24 -69,-24 -29,0 -53,8 -72,24 -20,16 -32,38 -36,67zm336 95l61 0c1,8 4,15 9,22 5,7 11,13 19,17 15,9 33,13 53,12 15,-1 28,-6 37,-14 9,-8 14,-19 14,-31 0,-12 -4,-21 -12,-28 -8,-7 -19,-12 -33,-15l-47 -11c-33,-9 -56,-22 -72,-39 -16,-17 -22,-41 -19,-71 2,-25 15,-45 38,-62 23,-17 50,-25 80,-25 15,0 28,2 41,5 13,4 25,9 35,16 11,7 20,17 26,30 7,13 11,27 12,44l-61 0c-2,-12 -7,-21 -17,-28 -10,-7 -22,-10 -35,-10 -12,0 -24,3 -33,9 -10,6 -16,13 -18,22 -3,11 -3,20 1,27 5,11 18,20 39,26l50 12c59,14 89,47 90,99 0,30 -13,55 -39,73 -26,18 -57,28 -94,28 -21,0 -41,-4 -60,-12 -19,-8 -34,-21 -47,-38 -13,-17 -19,-37 -20,-59z"/>
    <path class="fil1" d="M1550 11650l0 -62 142 -52 0 480 -66 0 0 -392 -76 27zm275 360c-9,-8 -14,-19 -14,-32 0,-13 5,-24 14,-33 9,-9 21,-13 34,-13 13,0 24,4 33,13 9,9 14,20 14,33 0,13 -5,23 -14,32 -9,8 -21,13 -33,13 -13,0 -25,-4 -34,-13zm0 -264c-9,-9 -14,-20 -14,-33 0,-13 5,-24 14,-32 9,-8 21,-13 34,-13 13,0 24,4 33,13 9,9 14,19 14,32 0,13 -5,24 -14,33 -9,9 -21,13 -33,13 -13,0 -25,-4 -34,-13zm179 33c0,-24 1,-45 3,-65 2,-20 6,-39 11,-58 5,-19 12,-35 21,-50 9,-14 19,-27 32,-38 12,-11 28,-19 46,-25 18,-6 38,-8 60,-8 27,0 51,4 71,13 20,8 37,20 50,34 13,14 23,32 31,53 8,21 13,43 16,66 3,23 5,49 5,77 0,29 -2,54 -5,77 -3,23 -9,45 -16,66 -8,21 -18,39 -31,53 -13,14 -29,26 -50,34 -20,8 -44,13 -71,13 -27,0 -50,-4 -71,-13 -20,-8 -37,-20 -50,-34 -13,-14 -23,-32 -31,-53 -8,-21 -14,-43 -17,-66 -3,-23 -5,-49 -5,-77zm66 0c0,21 1,40 3,57 2,17 5,33 10,49 5,16 11,29 19,39 8,11 18,19 31,25 13,6 27,9 44,9 17,0 31,-3 44,-9 12,-6 23,-15 31,-25 8,-10 14,-23 19,-39 5,-16 8,-32 10,-49 2,-17 3,-36 3,-57 0,-21 -1,-40 -3,-57 -2,-17 -5,-33 -10,-49 -5,-16 -11,-29 -19,-39 -8,-10 -18,-19 -31,-25 -12,-6 -27,-9 -44,-9 -17,0 -31,3 -44,9 -13,6 -23,14 -31,25 -8,10 -14,24 -19,39 -5,16 -8,32 -10,49 -2,17 -3,36 -3,57zm374 0c0,-24 1,-45 3,-65 2,-20 6,-39 11,-58 5,-19 12,-35 21,-50 9,-14 19,-27 32,-38 12,-11 28,-19 46,-25 18,-6 38,-8 60,-8 27,0 51,4 71,13 20,8 37,20 50,34 13,14 23,32 31,53 8,21 13,43 16,66 3,23 5,49 5,77 0,29 -2,54 -5,77 -3,23 -9,45 -16,66 -8,21 -18,39 -31,53 -13,14 -29,26 -50,34 -20,8 -44,13 -71,13 -27,0 -50,-4 -71,-13 -20,-8 -37,-20 -50,-34 -13,-14 -23,-32 -31,-53 -8,-21 -14,-43 -17,-66 -3,-23 -5,-49 -5,-77zm66 0c0,21 1,40 3,57 2,17 5,33 10,49 5,16 11,29 19,39 8,11 18,19 31,25 13,6 27,9 44,9 17,0 31,-3 44,-9 12,-6 23,-15 31,-25 8,-10 14,-23 19,-39 5,-16 8,-32 10,-49 2,-17 3,-36 3,-57 0,-21 -1,-40 -3,-57 -2,-17 -5,-33 -10,-49 -5,-16 -11,-29 -19,-39 -8,-10 -18,-19 -31,-25 -12,-6 -27,-9 -44,-9 -17,0 -31,3 -44,9 -13,6 -23,14 -31,25 -8,10 -14,24 -19,39 -5,16 -8,32 -10,49 -2,17 -3,36 -3,57zm381 402l0 -505 66 0 0 53c11,-19 27,-34 49,-44 22,-11 45,-16 69,-16 47,0 88,17 120,50 33,33 49,76 49,129 0,35 -8,66 -23,93 -16,27 -36,48 -62,62 -25,14 -54,21 -85,21 -25,0 -49,-5 -70,-15 -22,-10 -38,-24 -49,-43l0 216 -66 0zm67 -333c0,34 11,61 33,81 22,20 48,29 78,29 31,0 58,-10 79,-31 21,-20 32,-47 32,-80 0,-33 -11,-61 -32,-82 -21,-21 -47,-32 -78,-32 -31,0 -57,10 -79,31 -21,21 -32,49 -32,83zm376 168l0 -340 66 0 0 51c8,-17 22,-31 41,-40 19,-10 37,-15 53,-17 13,-1 26,0 37,2 43,6 73,29 89,66 24,-47 63,-70 117,-70 42,0 75,13 97,39 22,26 34,63 34,111l0 197 -66 0 0 -192c0,-28 -7,-50 -21,-66 -14,-16 -33,-24 -57,-24 -27,0 -49,9 -66,28 -16,19 -25,42 -25,72l0 183 -66 0 0 -193c0,-28 -7,-50 -20,-66 -13,-16 -31,-24 -54,-24 -26,0 -49,8 -67,25 -18,16 -28,41 -28,74l0 183 -66 0z"/>
    <path class="fil1" d="M13423 11650l0 -62 142 -52 0 480 -66 0 0 -392 -76 27zm249 9c6,-38 24,-68 52,-91 28,-23 62,-34 100,-34 42,0 78,13 107,39 29,26 43,60 43,101 0,43 -17,84 -52,123 -23,27 -46,54 -70,82 -23,28 -43,51 -59,71l182 0 0 65 -293 0 0 -29 192 -234c23,-27 35,-54 35,-78 0,-23 -8,-41 -24,-54 -16,-14 -36,-21 -60,-21 -22,0 -41,7 -57,20 -16,13 -25,32 -29,55l-66 -15zm410 351c-9,-8 -14,-19 -14,-32 0,-13 5,-24 14,-33 9,-9 21,-13 34,-13 13,0 24,4 33,13 9,9 14,20 14,33 0,13 -5,23 -14,32 -9,8 -21,13 -33,13 -13,0 -25,-4 -34,-13zm0 -264c-9,-9 -14,-20 -14,-33 0,-13 5,-24 14,-32 9,-8 21,-13 34,-13 13,0 24,4 33,13 9,9 14,19 14,32 0,13 -5,24 -14,33 -9,9 -21,13 -33,13 -13,0 -25,-4 -34,-13zm179 33c0,-24 1,-45 3,-65 2,-20 6,-39 11,-58 5,-19 12,-35 21,-50 9,-14 19,-27 32,-38 12,-11 28,-19 46,-25 18,-6 38,-8 60,-8 27,0 51,4 71,13 20,8 37,20 50,34 13,14 23,32 31,53 8,21 13,43 16,66 3,23 5,49 5,77 0,29 -2,54 -5,77 -3,23 -9,45 -16,66 -8,21 -18,39 -31,53 -13,14 -29,26 -50,34 -20,8 -44,13 -71,13 -27,0 -50,-4 -71,-13 -20,-8 -37,-20 -50,-34 -13,-14 -23,-32 -31,-53 -8,-21 -14,-43 -17,-66 -3,-23 -5,-49 -5,-77zm66 0c0,21 1,40 3,57 2,17 5,33 10,49 5,16 11,29 19,39 8,11 18,19 31,25 13,6 27,9 44,9 17,0 31,-3 44,-9 12,-6 23,-15 31,-25 8,-10 14,-23 19,-39 5,-16 8,-32 10,-49 2,-17 3,-36 3,-57 0,-21 -1,-40 -3,-57 -2,-17 -5,-33 -10,-49 -5,-16 -11,-29 -19,-39 -8,-10 -18,-19 -31,-25 -12,-6 -27,-9 -44,-9 -17,0 -31,3 -44,9 -13,6 -23,14 -31,25 -8,10 -14,24 -19,39 -5,16 -8,32 -10,49 -2,17 -3,36 -3,57zm374 0c0,-24 1,-45 3,-65 2,-20 6,-39 11,-58 5,-19 12,-35 21,-50 9,-14 19,-27 32,-38 12,-11 28,-19 46,-25 18,-6 38,-8 60,-8 27,0 51,4 71,13 20,8 37,20 50,34 13,14 23,32 31,53 8,21 13,43 16,66 3,23 5,49 5,77 0,29 -2,54 -5,77 -3,23 -9,45 -16,66 -8,21 -18,39 -31,53 -13,14 -29,26 -50,34 -20,8 -44,13 -71,13 -27,0 -50,-4 -71,-13 -20,-8 -37,-20 -50,-34 -13,-14 -23,-32 -31,-53 -8,-21 -14,-43 -17,-66 -3,-23 -5,-49 -5,-77zm66 0c0,21 1,40 3,57 2,17 5,33 10,49 5,16 11,29 19,39 8,11 18,19 31,25 13,6 27,9 44,9 17,0 31,-3 44,-9 12,-6 23,-15 31,-25 8,-10 14,-23 19,-39 5,-16 8,-32 10,-49 2,-17 3,-36 3,-57 0,-21 -1,-40 -3,-57 -2,-17 -5,-33 -10,-49 -5,-16 -11,-29 -19,-39 -8,-10 -18,-19 -31,-25 -12,-6 -27,-9 -44,-9 -17,0 -31,3 -44,9 -13,6 -23,14 -31,25 -8,10 -14,24 -19,39 -5,16 -8,32 -10,49 -2,17 -3,36 -3,57zm381 402l0 -505 66 0 0 53c11,-19 27,-34 49,-44 22,-11 45,-16 69,-16 47,0 88,17 120,50 33,33 49,76 49,129 0,35 -8,66 -23,93 -16,27 -36,48 -62,62 -25,14 -54,21 -85,21 -25,0 -49,-5 -70,-15 -22,-10 -38,-24 -49,-43l0 216 -66 0zm67 -333c0,34 11,61 33,81 22,20 48,29 78,29 31,0 58,-10 79,-31 21,-20 32,-47 32,-80 0,-33 -11,-61 -32,-82 -21,-21 -47,-32 -78,-32 -31,0 -57,10 -79,31 -21,21 -32,49 -32,83zm376 168l0 -340 66 0 0 51c8,-17 22,-31 41,-40 19,-10 37,-15 53,-17 13,-1 26,0 37,2 43,6 73,29 89,66 24,-47 63,-70 117,-70 42,0 75,13 97,39 22,26 34,63 34,111l0 197 -66 0 0 -192c0,-28 -7,-50 -21,-66 -14,-16 -33,-24 -57,-24 -27,0 -49,9 -66,28 -16,19 -25,42 -25,72l0 183 -66 0 0 -193c0,-28 -7,-50 -20,-66 -13,-16 -31,-24 -54,-24 -26,0 -49,8 -67,25 -18,16 -28,41 -28,74l0 183 -66 0z"/>
    <path class="fil2" d="M1567 3426l0 -748 286 0c37,0 71,7 100,20 29,13 52,31 69,54 17,22 30,47 38,74 9,27 13,56 13,86 0,29 -4,56 -11,81 -7,25 -18,49 -33,70 -15,22 -35,39 -60,53 -25,14 -54,22 -88,25l200 284 -122 0 -194 -280 -96 0 0 280 -101 0zm101 -374l179 0c22,0 41,-4 58,-12 17,-8 30,-18 39,-32 9,-14 16,-28 21,-44 5,-16 7,-33 7,-51 0,-24 -4,-47 -11,-67 -8,-20 -21,-38 -40,-52 -19,-14 -42,-21 -70,-21l-183 0 0 279zm525 -156c9,-56 35,-101 77,-135 42,-34 92,-51 149,-51 63,0 116,20 159,58 43,39 64,89 64,150 0,64 -26,125 -78,184 -34,40 -69,81 -104,122 -35,41 -64,76 -88,105l271 0 0 97 -436 0 0 -43 286 -349c34,-41 52,-80 52,-116 0,-34 -12,-61 -36,-81 -24,-20 -54,-31 -90,-31 -33,0 -61,10 -85,30 -24,20 -38,47 -42,82l-99 -23zm543 385l394 -563 74 0 0 472 102 0 0 91 -102 0 0 145 -99 0 0 -145 -369 0zm166 -91l203 0 0 -296 -203 296zm467 350c51,-71 75,-150 74,-239l101 0c-5,62 -17,116 -37,161 -20,45 -43,79 -68,100l-69 -23zm323 -606c3,-65 28,-119 74,-163 46,-44 101,-65 165,-62 64,3 116,26 157,69 41,43 64,101 70,174 6,92 3,181 -12,269 -11,65 -38,118 -82,159 -44,40 -98,59 -162,57 -21,-1 -41,-3 -59,-8 -18,-5 -36,-11 -54,-21 -18,-10 -35,-24 -51,-42 -15,-18 -29,-40 -41,-66l89 -37c13,27 31,48 52,61 21,14 44,20 68,20 49,0 89,-23 118,-70 29,-47 41,-106 34,-178 -11,27 -29,47 -55,60 -26,13 -56,19 -90,19 -42,0 -81,-12 -115,-35 -35,-23 -61,-53 -80,-90 -19,-37 -27,-77 -26,-119zm99 5c-2,39 9,72 33,99 24,27 55,42 92,43 38,1 71,-11 98,-36 28,-25 43,-57 44,-95 0,-39 -13,-73 -38,-99 -25,-27 -57,-41 -94,-42 -37,-1 -69,10 -95,35 -26,25 -40,57 -42,95zm492 336l84 -46c13,35 34,62 61,83 27,20 58,30 91,30 56,0 99,-13 127,-40 28,-27 43,-61 43,-104 0,-44 -14,-77 -42,-101 -28,-24 -63,-35 -104,-35 -31,0 -59,4 -83,12 -25,8 -56,24 -93,46l-61 -50 63 -353 380 0 0 94 -300 0 -39 201c16,-12 37,-21 63,-29 26,-8 50,-12 72,-12 45,0 86,8 122,25 36,17 66,43 88,78 23,35 34,76 34,124 0,72 -25,130 -75,174 -50,43 -114,65 -194,65 -50,0 -96,-15 -139,-44 -43,-29 -75,-69 -97,-118zm631 -202c0,-35 2,-67 5,-97 3,-29 9,-58 16,-86 8,-28 18,-53 31,-74 13,-21 29,-40 47,-56 19,-16 41,-28 68,-37 27,-8 57,-13 90,-13 40,0 75,6 106,19 30,12 55,29 74,51 19,21 34,48 46,79 12,32 20,65 25,99 5,34 7,73 7,115 0,42 -2,81 -7,115 -5,34 -13,67 -25,99 -12,32 -27,58 -46,79 -19,22 -44,38 -74,51 -30,12 -66,19 -106,19 -40,0 -75,-6 -105,-19 -30,-13 -55,-29 -74,-51 -19,-21 -35,-48 -46,-79 -12,-31 -20,-64 -25,-99 -5,-34 -7,-73 -7,-115zm99 0c0,31 1,59 4,84 3,25 8,49 15,72 7,23 17,42 28,58 12,16 27,28 46,37 19,9 41,14 65,14 25,0 47,-5 65,-14 19,-9 34,-22 46,-37 12,-16 21,-35 29,-58 7,-23 12,-47 15,-72 3,-25 4,-53 4,-84 0,-31 -1,-60 -4,-85 -3,-25 -8,-49 -15,-73 -7,-23 -17,-43 -29,-58 -12,-16 -27,-28 -46,-37 -19,-9 -41,-14 -65,-14 -25,0 -47,5 -65,14 -19,9 -34,22 -46,37 -12,16 -21,35 -28,58 -7,23 -12,48 -15,73 -3,25 -4,54 -4,85zm580 345c-14,-12 -21,-29 -21,-48 0,-20 7,-36 21,-49 14,-13 30,-20 50,-20 20,0 37,7 51,20 14,13 21,29 21,49 0,19 -7,35 -21,48 -14,12 -31,19 -51,19 -20,0 -36,-6 -50,-19zm257 -484c3,-65 28,-119 74,-163 46,-44 101,-65 165,-62 64,3 116,26 157,69 41,43 64,101 70,174 6,92 3,181 -12,269 -11,65 -38,118 -82,159 -44,40 -98,59 -162,57 -21,-1 -41,-3 -59,-8 -18,-5 -36,-11 -54,-21 -18,-10 -35,-24 -51,-42 -15,-18 -29,-40 -41,-66l89 -37c13,27 31,48 52,61 21,14 44,20 68,20 49,0 89,-23 118,-70 29,-47 41,-106 34,-178 -11,27 -29,47 -55,60 -26,13 -56,19 -90,19 -42,0 -81,-12 -115,-35 -35,-23 -61,-53 -80,-90 -19,-37 -27,-77 -26,-119zm99 5c-2,39 9,72 33,99 24,27 55,42 92,43 38,1 71,-11 98,-36 28,-25 43,-57 44,-95 0,-39 -13,-73 -38,-99 -25,-27 -57,-41 -94,-42 -37,-1 -69,10 -95,35 -26,25 -40,57 -42,95zm501 266c0,-39 10,-76 29,-109 19,-33 46,-60 80,-81 -35,-34 -53,-75 -53,-125 0,-50 18,-93 54,-128 36,-35 81,-52 135,-52 54,0 99,18 136,53 37,35 55,77 55,127 0,24 -5,47 -15,69 -10,22 -24,41 -41,56 34,21 61,48 80,81 19,33 29,69 29,109 0,65 -24,119 -71,164 -47,45 -105,67 -174,67 -70,0 -128,-22 -175,-67 -47,-45 -70,-99 -70,-164zm99 0c0,38 14,70 42,96 28,26 63,39 104,39 41,0 76,-13 104,-39 28,-26 42,-58 42,-95 0,-37 -14,-70 -42,-96 -28,-27 -62,-40 -103,-40l-7 0c-39,1 -72,15 -99,42 -27,27 -40,59 -40,95zm82 -374c-18,16 -26,36 -26,59 0,23 8,43 25,60 16,17 37,26 61,27l9 0c25,-1 46,-10 63,-27 17,-17 25,-37 25,-60 0,-23 -9,-43 -27,-59 -18,-16 -40,-24 -66,-24 -25,0 -47,8 -65,24z"/>
    <path id="1" class="fil3 str0" d="M1567 3426l0 -748 286 0c37,0 71,7 100,20 29,13 52,31 69,54 17,22 30,47 38,74 9,27 13,56 13,86 0,29 -4,56 -11,81 -7,25 -18,49 -33,70 -15,22 -35,39 -60,53 -25,14 -54,22 -88,25l200 284 -122 0 -194 -280 -96 0 0 280 -101 0zm101 -374l179 0c22,0 41,-4 58,-12 17,-8 30,-18 39,-32 9,-14 16,-28 21,-44 5,-16 7,-33 7,-51 0,-24 -4,-47 -11,-67 -8,-20 -21,-38 -40,-52 -19,-14 -42,-21 -70,-21l-183 0 0 279zm525 -156c9,-56 35,-101 77,-135 42,-34 92,-51 149,-51 63,0 116,20 159,58 43,39 64,89 64,150 0,64 -26,125 -78,184 -34,40 -69,81 -104,122 -35,41 -64,76 -88,105l271 0 0 97 -436 0 0 -43 286 -349c34,-41 52,-80 52,-116 0,-34 -12,-61 -36,-81 -24,-20 -54,-31 -90,-31 -33,0 -61,10 -85,30 -24,20 -38,47 -42,82l-99 -23zm543 385l394 -563 74 0 0 472 102 0 0 91 -102 0 0 145 -99 0 0 -145 -369 0zm166 -91l203 0 0 -296 -203 296zm467 350c51,-71 75,-150 74,-239l101 0c-5,62 -17,116 -37,161 -20,45 -43,79 -68,100l-69 -23zm323 -606c3,-65 28,-119 74,-163 46,-44 101,-65 165,-62 64,3 116,26 157,69 41,43 64,101 70,174 6,92 3,181 -12,269 -11,65 -38,118 -82,159 -44,40 -98,59 -162,57 -21,-1 -41,-3 -59,-8 -18,-5 -36,-11 -54,-21 -18,-10 -35,-24 -51,-42 -15,-18 -29,-40 -41,-66l89 -37c13,27 31,48 52,61 21,14 44,20 68,20 49,0 89,-23 118,-70 29,-47 41,-106 34,-178 -11,27 -29,47 -55,60 -26,13 -56,19 -90,19 -42,0 -81,-12 -115,-35 -35,-23 -61,-53 -80,-90 -19,-37 -27,-77 -26,-119zm99 5c-2,39 9,72 33,99 24,27 55,42 92,43 38,1 71,-11 98,-36 28,-25 43,-57 44,-95 0,-39 -13,-73 -38,-99 -25,-27 -57,-41 -94,-42 -37,-1 -69,10 -95,35 -26,25 -40,57 -42,95zm492 336l84 -46c13,35 34,62 61,83 27,20 58,30 91,30 56,0 99,-13 127,-40 28,-27 43,-61 43,-104 0,-44 -14,-77 -42,-101 -28,-24 -63,-35 -104,-35 -31,0 -59,4 -83,12 -25,8 -56,24 -93,46l-61 -50 63 -353 380 0 0 94 -300 0 -39 201c16,-12 37,-21 63,-29 26,-8 50,-12 72,-12 45,0 86,8 122,25 36,17 66,43 88,78 23,35 34,76 34,124 0,72 -25,130 -75,174 -50,43 -114,65 -194,65 -50,0 -96,-15 -139,-44 -43,-29 -75,-69 -97,-118zm631 -202c0,-35 2,-67 5,-97 3,-29 9,-58 16,-86 8,-28 18,-53 31,-74 13,-21 29,-40 47,-56 19,-16 41,-28 68,-37 27,-8 57,-13 90,-13 40,0 75,6 106,19 30,12 55,29 74,51 19,21 34,48 46,79 12,32 20,65 25,99 5,34 7,73 7,115 0,42 -2,81 -7,115 -5,34 -13,67 -25,99 -12,32 -27,58 -46,79 -19,22 -44,38 -74,51 -30,12 -66,19 -106,19 -40,0 -75,-6 -105,-19 -30,-13 -55,-29 -74,-51 -19,-21 -35,-48 -46,-79 -12,-31 -20,-64 -25,-99 -5,-34 -7,-73 -7,-115zm99 0c0,31 1,59 4,84 3,25 8,49 15,72 7,23 17,42 28,58 12,16 27,28 46,37 19,9 41,14 65,14 25,0 47,-5 65,-14 19,-9 34,-22 46,-37 12,-16 21,-35 29,-58 7,-23 12,-47 15,-72 3,-25 4,-53 4,-84 0,-31 -1,-60 -4,-85 -3,-25 -8,-49 -15,-73 -7,-23 -17,-43 -29,-58 -12,-16 -27,-28 -46,-37 -19,-9 -41,-14 -65,-14 -25,0 -47,5 -65,14 -19,9 -34,22 -46,37 -12,16 -21,35 -28,58 -7,23 -12,48 -15,73 -3,25 -4,54 -4,85zm580 345c-14,-12 -21,-29 -21,-48 0,-20 7,-36 21,-49 14,-13 30,-20 50,-20 20,0 37,7 51,20 14,13 21,29 21,49 0,19 -7,35 -21,48 -14,12 -31,19 -51,19 -20,0 -36,-6 -50,-19zm257 -484c3,-65 28,-119 74,-163 46,-44 101,-65 165,-62 64,3 116,26 157,69 41,43 64,101 70,174 6,92 3,181 -12,269 -11,65 -38,118 -82,159 -44,40 -98,59 -162,57 -21,-1 -41,-3 -59,-8 -18,-5 -36,-11 -54,-21 -18,-10 -35,-24 -51,-42 -15,-18 -29,-40 -41,-66l89 -37c13,27 31,48 52,61 21,14 44,20 68,20 49,0 89,-23 118,-70 29,-47 41,-106 34,-178 -11,27 -29,47 -55,60 -26,13 -56,19 -90,19 -42,0 -81,-12 -115,-35 -35,-23 -61,-53 -80,-90 -19,-37 -27,-77 -26,-119zm99 5c-2,39 9,72 33,99 24,27 55,42 92,43 38,1 71,-11 98,-36 28,-25 43,-57 44,-95 0,-39 -13,-73 -38,-99 -25,-27 -57,-41 -94,-42 -37,-1 -69,10 -95,35 -26,25 -40,57 -42,95zm501 266c0,-39 10,-76 29,-109 19,-33 46,-60 80,-81 -35,-34 -53,-75 -53,-125 0,-50 18,-93 54,-128 36,-35 81,-52 135,-52 54,0 99,18 136,53 37,35 55,77 55,127 0,24 -5,47 -15,69 -10,22 -24,41 -41,56 34,21 61,48 80,81 19,33 29,69 29,109 0,65 -24,119 -71,164 -47,45 -105,67 -174,67 -70,0 -128,-22 -175,-67 -47,-45 -70,-99 -70,-164zm99 0c0,38 14,70 42,96 28,26 63,39 104,39 41,0 76,-13 104,-39 28,-26 42,-58 42,-95 0,-37 -14,-70 -42,-96 -28,-27 -62,-40 -103,-40l-7 0c-39,1 -72,15 -99,42 -27,27 -40,59 -40,95zm82 -374c-18,16 -26,36 -26,59 0,23 8,43 25,60 16,17 37,26 61,27l9 0c25,-1 46,-10 63,-27 17,-17 25,-37 25,-60 0,-23 -9,-43 -27,-59 -18,-16 -40,-24 -66,-24 -25,0 -47,8 -65,24z"/>
    <rect class="fil4" x="9430" y="1816" width="6719" height="397" rx="107" ry="107"/>
    <rect class="fil4" x="9430" y="2887" width="5444" height="439" rx="139" ry="139"/>
    <g>
     <g>
      <path class="fil5" d="M4020 5386l-8 1447 1437 -5c-121,-799 -717,-1423 -1428,-1442zm-220 -244l0 1891 1883 -8c-113,-1126 -700,-1793 -1883,-1883z"/>
      <path class="fil6" d="M3342 5787l0 1705 1760 21c-108,1488 -2019,2227 -3077,875 -678,-1034 58,-2596 1317,-2601zm225 -258l-2 1731 1762 -4c136,1874 -2240,2873 -3381,1406 -1083,-1273 -26,-3320 1621,-3132z"/>
     </g>
     <g>
      <polygon class="fil7" points="7282,8929 7586,8929 10946,8929 10946,8669 7525,8669 7525,5578 7282,5578 7282,8609 "/>
      <polygon class="fil8" points="8072,7452 8346,7452 8346,8203 8072,8203 "/>
      <polygon class="fil7" points="8788,6625 9046,6625 9046,8187 8788,8187 "/>
      <polygon class="fil8" points="9506,6971 9781,6971 9781,8195 9506,8195 "/>
      <polygon class="fil7" points="10240,6211 10507,6211 10507,8195 10240,8195 "/>
     </g>
     <g>
      <polygon class="fil5" points="12458,8929 12761,8929 16121,8929 16121,8669 12701,8669 12701,5578 12458,5578 12458,8609 "/>
      <circle class="fil6" cx="14349" cy="6650" r="199"/>
      <circle class="fil8" cx="15863" cy="6236" r="258"/>
      <circle class="fil8" cx="13863" cy="7705" r="295"/>
      <circle class="fil7" cx="15332" cy="7731" r="439"/>
     </g>
    </g>
   </g>
  </g>
 </g>
</svg>
