<?xml version="1.0" encoding="UTF-8"?>
<!DOCTYPE svg PUBLIC "-//W3C//DTD SVG 1.1//EN" "http://www.w3.org/Graphics/SVG/1.1/DTD/svg11.dtd">
<!-- Creator: CorelDRAW X6 -->
<svg xmlns="http://www.w3.org/2000/svg" xml:space="preserve" width="112.68mm" height="200mm" version="1.1" style="shape-rendering:geometricPrecision; text-rendering:geometricPrecision; image-rendering:optimizeQuality; fill-rule:evenodd; clip-rule:evenodd"
viewBox="0 0 10470 18583"
 xmlns:xlink="http://www.w3.org/1999/xlink">
 <defs>
  <style type="text/css">
   <![CDATA[
    .str1 {stroke:#C4E1FF;stroke-width:18.5833}
    .str0 {stroke:#00C2FF;stroke-width:39.3315}
    .fil5 {fill:none}
    .fil4 {fill:none}
    .fil1 {fill:none}
    .fil10 {fill:#D5F6FF}
    .fil9 {fill:#3B9CFF;fill-rule:nonzero}
    .fil2 {fill:#FFFFFF;fill-opacity:0.99}
    .fil6 {fill:#f7fdff;fill-opacity:1}
    .fil7 {fill:#3B9CFF;fill-opacity:0.450980}
    .fil8 {fill:#B4DCFF;fill-opacity:0.450980}
    .fil14 {fill:#3B9CFF;fill-rule:nonzero;fill-opacity:0.0.6}
    .fil3 {fill:#FFFFFF;fill-opacity:1}
    .fil12 {fill:#00C2FF;fill-rule:nonzero;fill-opacity:0.980392}
    .fil13 {fill:#3B9CFF;fill-rule:nonzero;fill-opacity:0.980392}
    .fil0 {fill:#D5F6FF}
    .fil11 {fill:#e8f4ff}
   ]]>
  </style>
 </defs>
 <g id="Layer_x0020_1">
  <metadata id="CorelCorpID_0Corel-Layer"/>
  <g id="_1293395216">
   <path class="fil0" d="M1963 12702c183,0 332,148 332,330 0,182 -148,330 -332,330 -183,0 -332,-148 -332,-330 0,-182 148,-330 332,-330z"/>
   <polyline class="fil1 str0" points="1792,13052 1897,13144 2134,12954 "/>
  </g>
  <path class="fil2" d="M2125 1006c-988,-59 -1148,245 -1184,996l2 3065 8585 0 0 -2963c-13,-887 -331,-1145 -1158,-1139l-720 708 -4768 19 -757 -686zm-1182 4485l6 10630c-11,976 238,1422 952,1475l6278 15c1019,74 1374,-500 1349,-1445l0 -10676 -8585 0z"/>
  <path class="fil3" d="M8546 17872l-6384 32c-1365,34 -1544,-634 -1510,-1879l6 -14392c71,-518 320,-835 773,-925l786 0c229,91 321,675 955,673l4193 1c626,-126 565,-632 992,-681l696 19c473,68 721,535 728,1072l9 14756c0,798 -346,1320 -1244,1325zm-7164 -17872c-858,136 -1358,689 -1339,1848l-43 14967c-26,1184 661,1708 1849,1768l6946 -6c930,20 1503,-417 1634,-1421l40 -15366c-21,-1026 -856,-1794 -1840,-1788l-7248 -3z"/>
  <polygon class="fil4" points="9486,5492 9486,6367 902,6367 901,5492 "/>
  <path class="fil4" d="M900 3183c26,-560 122,-872 579,-969 -432,105 -525,415 -550,963l1 1191 8558 0 0 700 -8586 0 -1 -1884z"/>
  <line class="fil5 str1" x1="1634" y1="6902" x2="8847" y2= "6925" />
  <line class="fil5 str1" x1="1636" y1="8306" x2="8843" y2= "8329" />
  <line class="fil5 str1" x1="1636" y1="9684" x2="8839" y2= "9707" />
  <line class="fil5 str1" x1="1636" y1="11053" x2="8836" y2= "11028" />
  <polygon class="fil6" points="945,12406 9507,12406 9507,13658 945,13658 "/>
  <path class="fil7" d="M2002 2502l-4 16 -317 72c-9,3 -14,11 -14,24l3 341c-2,10 2,12 10,9l320 -122 38 9 -350 133c-9,5 -45,-5 -47,-17l-4 -357c-1,-17 8,-27 24,-31l341 -76z"/>
  <polygon class="fil7" points="2450,2738 2513,2752 2513,2767 2449,2751 "/>
  <path class="fil7" d="M2491 2567l-352 101c-28,6 -40,20 -35,44l-6 374c1,21 42,32 55,24l371 -178c15,-4 20,-16 22,-32l-2 -316c-2,-16 -19,-23 -53,-18zm21 14l-351 101c-15,6 -22,17 -21,33l-8 376 372 -176c8,-3 10,-11 11,-22l-3 -311z"/>
  <path class="fil8" d="M2435 2795l-46 6c12,-24 14,-50 10,-78 6,0 9,-4 9,-12l16 -104 51 -15c-10,69 -21,133 -33,189l-3 10 -5 4zm-8 -210l30 -200 6 -24 4 -6 5 -4 7 -1 9 0 10 1 6 0 3 2 0 9 -3 15c-9,66 -17,131 -26,193l-51 15z"/>
  <path class="fil7" d="M2508 2353l-6 -7 -15 -7 -19 -5 -24 -5c-125,-22 -250,-37 -375,-40l-16 4 -16 10 -7 18 -9 31c-5,58 -11,114 -24,164l-22 110c78,9 148,19 208,29l243 -70 34 -217c2,-10 7,-15 14,-17l32 2zm-279 309c95,18 155,38 170,60 6,0 10,-6 10,-18l15 -99 -196 57z"/>
  <path class="fil8" d="M1668 2667l8 -6 27 -10 48 -9 65 -10 63 -4 48 -3 45 1 9 -2c74,10 143,20 204,30l-47 13c-28,6 -40,20 -35,44l-1 47 -1 0 -434 -92zm560 -5c92,18 157,37 170,60 5,28 1,54 -10,78l-250 44 -2 1 3 -130c-2,-16 6,-26 21,-33l68 -20z"/>
  <polygon class="fil7" points="1668,2760 1667,2669 1673,2667 1749,2685 2102,2760 2102,2803 2101,2867 "/>
  <g id="_1293400880">
   <g>
    <path class="fil9" d="M2858 2742l32 0c0,10 5,20 14,28 9,9 21,13 35,12 14,0 25,-3 33,-9 8,-6 13,-15 14,-25 2,-21 -11,-35 -40,-41l-30 -8c-38,-10 -57,-30 -57,-61 0,-19 7,-35 22,-47 14,-12 32,-19 53,-19 21,0 39,6 53,19 14,12 22,29 22,49l-31 0c0,-11 -4,-21 -12,-28 -8,-7 -19,-10 -31,-10 -12,0 -23,3 -32,9 -9,6 -13,15 -13,25 0,16 11,26 34,31l30 7c22,6 39,15 49,28 11,13 15,28 13,46 -2,18 -10,33 -24,45 -14,12 -32,17 -54,17 -22,0 -41,-7 -57,-21 -16,-14 -23,-31 -23,-50z"/>
    <polygon id="1" class="fil9" points="3102,2593 3102,2651 3135,2651 3135,2678 3102,2678 3102,2809 3072,2809 3072,2678 3043,2678 3043,2651 3072,2651 3072,2593 "/>
    <polygon id="2" class="fil9" points="3311,2651 3213,2885 3181,2885 3214,2804 3151,2651 3184,2651 3231,2765 3278,2651 "/>
    <polygon id="3" class="fil9" points="3342,2809 3342,2565 3373,2565 3373,2809 "/>
    <path id="4" class="fil9" d="M3424 2607c-4,-4 -6,-9 -6,-14 0,-6 2,-10 6,-14 4,-4 9,-6 15,-6 6,0 11,2 15,6 4,4 6,9 6,14 0,6 -2,11 -6,14 -4,4 -9,6 -15,6 -6,0 -11,-2 -15,-6zm31 202l-31 0 0 -158 31 0 0 158z"/>
    <path id="5" class="fil9" d="M3517 2659c11,-8 23,-12 38,-12 15,0 27,4 37,11 10,8 15,19 17,33l-29 0c-1,-5 -4,-9 -8,-12 -5,-3 -10,-5 -16,-5 -6,0 -11,1 -15,4 -4,2 -7,6 -9,11 -1,5 -1,9 1,12 3,5 9,9 19,12l23 6c27,7 41,22 41,46 0,14 -6,26 -18,35 -12,8 -26,13 -42,13 -16,0 -30,-5 -42,-14 -12,-9 -18,-21 -18,-37l29 0c1,8 5,14 13,18 7,4 14,6 22,6 8,0 14,-3 19,-6 4,-4 7,-9 7,-14 0,-6 -1,-10 -5,-13 -4,-3 -9,-6 -16,-7l-22 -5c-15,-4 -27,-10 -34,-18 -7,-8 -10,-19 -9,-31 1,-13 7,-23 17,-30z"/>
    <path id="6" class="fil9" d="M3685 2724l0 85 -31 0 0 -243 31 0 0 109c4,-9 12,-16 22,-20 10,-5 20,-7 30,-7 20,0 36,6 47,19 11,12 17,29 17,51l0 91 -31 0 0 -89c0,-13 -3,-23 -10,-30 -7,-8 -16,-12 -28,-12 -12,0 -23,4 -32,11 -10,8 -15,19 -15,35z"/>
    <path class="fil9" d="M3984 2691c-11,9 -16,22 -16,38 0,16 5,29 15,38 10,9 22,14 37,14 15,0 27,-5 36,-15 10,-10 15,-22 15,-38 0,-15 -5,-28 -15,-37 -10,-10 -22,-14 -36,-14 -14,0 -26,5 -37,14zm-16 117l-31 0 0 -243 31 0 0 109c11,-18 29,-27 55,-27 23,0 42,8 57,23 15,15 23,35 23,59 0,24 -8,44 -24,59 -16,15 -35,23 -56,23 -12,0 -23,-3 -33,-8 -10,-5 -18,-12 -22,-20l0 24z"/>
    <polygon id="1" class="fil9" points="4144,2809 4144,2565 4175,2565 4175,2809 "/>
    <path id="2" class="fil9" d="M4334 2736l0 -85 31 0 0 158 -31 0 0 -24c-4,9 -11,15 -20,20 -9,5 -19,7 -29,7 -20,0 -35,-6 -45,-18 -11,-12 -16,-29 -16,-51l0 -91 31 0 0 89c0,13 3,23 9,31 6,7 15,11 27,11 12,0 22,-4 31,-12 8,-8 12,-19 12,-34z"/>
    <path id="3" class="fil9" d="M4564 2729c0,7 0,11 0,12l-128 0c2,13 7,23 17,32 9,8 20,12 31,12 23,0 39,-8 48,-24 0,0 1,0 1,0 0,0 1,1 2,1 1,1 3,1 5,2 2,1 4,1 5,2l13 5c-6,13 -16,24 -29,31 -13,7 -27,11 -43,11 -23,0 -42,-8 -58,-23 -15,-15 -23,-35 -23,-60 0,-25 8,-44 23,-59 15,-15 34,-22 58,-22 23,0 42,8 56,23 15,15 22,35 22,59zm-46 -43c-9,-8 -20,-11 -33,-11 -13,0 -24,4 -33,11 -9,8 -15,19 -16,31l98 0c-2,-13 -7,-23 -15,-31z"/>
    <path class="fil9" d="M4702 2659c11,-8 23,-12 38,-12 15,0 27,4 37,11 10,8 15,19 17,33l-29 0c-1,-5 -4,-9 -8,-12 -5,-3 -10,-5 -16,-5 -6,0 -11,1 -15,4 -4,2 -7,6 -9,11 -1,5 -1,9 1,12 3,5 9,9 19,12l23 6c27,7 41,22 41,46 0,14 -6,26 -18,35 -12,8 -26,13 -42,13 -16,0 -30,-5 -42,-14 -12,-9 -18,-21 -18,-37l29 0c1,8 5,14 13,18 7,4 14,6 22,6 8,0 14,-3 19,-6 4,-4 7,-9 7,-14 0,-6 -1,-10 -5,-13 -4,-3 -9,-6 -16,-7l-22 -5c-15,-4 -27,-10 -34,-18 -7,-8 -10,-19 -9,-31 1,-13 7,-23 17,-30z"/>
    <path id="1" class="fil9" d="M4947 2736l0 -85 31 0 0 158 -31 0 0 -24c-4,9 -11,15 -20,20 -9,5 -19,7 -29,7 -20,0 -35,-6 -45,-18 -11,-12 -16,-29 -16,-51l0 -91 31 0 0 89c0,13 3,23 9,31 6,7 15,11 27,11 12,0 22,-4 31,-12 8,-8 12,-19 12,-34z"/>
    <path id="2" class="fil9" d="M5177 2729c0,7 0,11 0,12l-128 0c2,13 7,23 17,32 9,8 20,12 31,12 23,0 39,-8 48,-24 0,0 1,0 1,0 0,0 1,1 2,1 1,1 3,1 5,2 2,1 4,1 5,2l13 5c-6,13 -16,24 -29,31 -13,7 -27,11 -43,11 -23,0 -42,-8 -58,-23 -15,-15 -23,-35 -23,-60 0,-25 8,-44 23,-59 15,-15 34,-22 58,-22 23,0 42,8 56,23 15,15 22,35 22,59zm-46 -43c-9,-8 -20,-11 -33,-11 -13,0 -24,4 -33,11 -9,8 -15,19 -16,31l98 0c-2,-13 -7,-23 -15,-31z"/>
    <path id="3" class="fil9" d="M5325 2768c10,-10 15,-22 15,-38 0,-16 -5,-29 -16,-38 -11,-9 -23,-14 -37,-14 -14,0 -26,5 -36,14 -10,10 -15,22 -15,38 0,15 5,28 15,38 10,10 22,15 36,15 14,0 27,-5 37,-14zm46 41l-31 0 0 -24c-5,8 -12,15 -22,20 -10,5 -21,8 -33,8 -22,0 -41,-8 -57,-23 -15,-15 -23,-35 -23,-59 0,-24 8,-44 23,-59 15,-15 34,-23 57,-23 12,0 23,2 33,7 10,5 17,11 23,20l0 -109 31 0 0 243z"/>
    <path id="4" class="fil9" d="M5572 2729c0,7 0,11 0,12l-128 0c2,13 7,23 17,32 9,8 20,12 31,12 23,0 39,-8 48,-24 0,0 1,0 1,0 0,0 1,1 2,1 1,1 3,1 5,2 2,1 4,1 5,2l13 5c-6,13 -16,24 -29,31 -13,7 -27,11 -43,11 -23,0 -42,-8 -58,-23 -15,-15 -23,-35 -23,-60 0,-25 8,-44 23,-59 15,-15 34,-22 58,-22 23,0 42,8 56,23 15,15 22,35 22,59zm-46 -43c-9,-8 -20,-11 -33,-11 -13,0 -24,4 -33,11 -9,8 -15,19 -16,31l98 0c-2,-13 -7,-23 -15,-31z"/>
    <path class="fil9" d="M5773 2648c24,0 44,8 60,25l-23 19c-10,-10 -22,-15 -37,-15 -15,0 -27,5 -38,14 -10,9 -16,22 -16,38 0,16 5,28 16,38 11,10 23,15 38,15 15,0 27,-5 37,-16l24 20c-16,17 -36,25 -59,25 -24,0 -44,-8 -61,-23 -16,-15 -25,-35 -25,-59 0,-24 8,-44 24,-59 16,-15 36,-23 61,-23z"/>
    <path id="1" class="fil9" d="M5902 2724l0 85 -31 0 0 -243 31 0 0 109c4,-9 12,-16 22,-20 10,-5 20,-7 30,-7 20,0 36,6 47,19 11,12 17,29 17,51l0 91 -31 0 0 -89c0,-13 -3,-23 -10,-30 -7,-8 -16,-12 -28,-12 -12,0 -23,4 -32,11 -10,8 -15,19 -15,35z"/>
    <path id="2" class="fil9" d="M6176 2768c10,-9 15,-22 15,-38 0,-16 -5,-29 -16,-38 -11,-9 -23,-14 -37,-14 -14,0 -26,5 -36,14 -10,9 -15,22 -15,37 0,15 5,28 15,38 10,10 22,15 37,15 15,0 27,-5 37,-14zm46 41l-31 0 0 -24c-5,8 -12,15 -22,20 -10,5 -21,8 -33,8 -22,0 -41,-8 -57,-23 -15,-15 -23,-35 -23,-59 0,-24 8,-44 23,-59 15,-15 34,-23 57,-23 11,0 22,2 33,7 10,5 18,12 22,20l0 -24 31 0 0 158z"/>
    <path id="3" class="fil9" d="M6274 2607c-4,-4 -6,-9 -6,-14 0,-6 2,-10 6,-14 4,-4 9,-6 15,-6 6,0 11,2 15,6 4,4 6,9 6,14 0,6 -2,11 -6,14 -4,4 -9,6 -15,6 -6,0 -11,-2 -15,-6zm31 202l-31 0 0 -158 31 0 0 158z"/>
    <path id="4" class="fil9" d="M6386 2751l0 57 -31 0 0 -158 31 0 0 36c8,-26 22,-39 44,-39 12,0 22,2 27,6l-5 29c-7,-4 -15,-5 -23,-5 -14,0 -25,7 -32,20 -7,13 -11,31 -11,54z"/>
   </g>
   <path class="fil9" d="M7587 2624l-53 0 0 81 52 0c12,0 21,-4 27,-11 6,-8 9,-18 9,-30 0,-12 -3,-22 -9,-29 -6,-8 -14,-11 -26,-11zm-53 108l0 81 -29 0 0 -217 83 0c21,0 37,7 48,20 11,13 16,29 16,47 0,18 -5,34 -14,46 -9,13 -23,20 -42,21l58 82 -35 0 -56 -81 -28 0z"/>
   <polygon id="1" class="fil9" points="7745,2814 7716,2814 7716,2644 7683,2656 7683,2629 7745,2607 "/>
   <path id="2" class="fil9" d="M7800 2853l-20 -7c15,-21 22,-44 21,-69l29 0c-1,17 -5,33 -11,46 -6,13 -12,23 -20,30z"/>
   <path id="3" class="fil9" d="M7977 2722c-7,-8 -16,-12 -27,-13 -11,0 -20,3 -29,10 -8,7 -12,16 -13,27 0,11 3,21 11,29 8,8 17,12 28,12 11,0 20,-3 27,-10 8,-7 12,-17 12,-28 0,-11 -3,-21 -10,-28zm11 -66c-8,-16 -19,-24 -34,-24 -15,0 -26,7 -35,20 -8,14 -12,31 -10,51 6,-16 20,-23 42,-23 18,0 33,7 46,21 12,14 18,31 17,49 -1,19 -8,34 -21,47 -13,13 -29,19 -48,18 -18,-1 -34,-8 -45,-20 -12,-12 -18,-30 -20,-53 -2,-23 0,-48 4,-75 3,-19 11,-34 24,-46 13,-12 29,-17 47,-17 14,1 25,4 35,10 10,6 18,16 24,30l-25 11z"/>
   <path id="4" class="fil9" d="M8155 2675c0,-11 -4,-21 -11,-29 -7,-8 -17,-12 -27,-12 -11,0 -20,3 -28,10 -8,7 -12,16 -12,27 0,11 3,21 10,29 7,8 16,12 27,12 11,0 20,-3 28,-10 8,-7 12,-16 13,-28zm-42 66c-18,0 -34,-7 -46,-21 -12,-14 -18,-30 -17,-49 1,-19 8,-35 21,-47 13,-13 29,-19 48,-18 18,1 34,8 45,20 12,12 18,30 20,53 2,23 0,48 -4,75 -3,19 -11,34 -24,46 -13,12 -28,17 -46,16 -14,-1 -25,-4 -35,-10 -10,-6 -18,-16 -24,-30l25 -11c8,16 19,24 34,24 15,0 26,-7 35,-20 9,-14 12,-31 10,-52 -6,16 -20,24 -42,24z"/>
   <path id="5" class="fil9" d="M8329 2675c0,-11 -4,-21 -11,-29 -7,-8 -17,-12 -27,-12 -11,0 -20,3 -28,10 -8,7 -12,16 -12,27 0,11 3,21 10,29 7,8 16,12 27,12 11,0 20,-3 28,-10 8,-7 12,-16 13,-28zm-42 66c-18,0 -34,-7 -46,-21 -12,-14 -18,-30 -17,-49 1,-19 8,-35 21,-47 13,-13 29,-19 48,-18 18,1 34,8 45,20 12,12 18,30 20,53 2,23 0,48 -4,75 -3,19 -11,34 -24,46 -13,12 -28,17 -46,16 -14,-1 -25,-4 -35,-10 -10,-6 -18,-16 -24,-30l25 -11c8,16 19,24 34,24 15,0 26,-7 35,-20 9,-14 12,-31 10,-52 -6,16 -20,24 -42,24z"/>
   <path id="6" class="fil9" d="M8400 2797c0,-6 2,-10 6,-14 4,-4 9,-6 14,-6 6,0 11,2 15,6 4,4 6,8 6,14 0,6 -2,10 -6,14 -4,4 -9,6 -15,6 -6,0 -10,-2 -14,-5 -4,-4 -6,-8 -6,-14z"/>
   <path id="7" class="fil9" d="M8593 2769c7,-13 11,-32 11,-58 0,-26 -4,-45 -11,-58 -7,-13 -19,-19 -35,-20 -16,0 -28,7 -35,20 -7,13 -11,32 -11,58 0,26 4,45 11,58 7,13 19,20 35,20 16,0 28,-7 35,-20zm-110 -58c0,-30 5,-55 15,-74 11,-21 32,-31 60,-31 29,0 48,10 59,31 10,18 15,43 15,74 0,31 -5,56 -15,74 -11,21 -31,31 -60,31 -50,0 -75,-35 -75,-105z"/>
   <path id="8" class="fil9" d="M8783 2769c7,-13 11,-32 11,-58 0,-26 -4,-45 -11,-58 -7,-13 -19,-19 -35,-20 -16,0 -28,7 -35,20 -7,13 -11,32 -11,58 0,26 4,45 11,58 7,13 19,20 35,20 16,0 28,-7 35,-20zm-110 -58c0,-30 5,-55 15,-74 11,-21 32,-31 60,-31 29,0 48,10 59,31 10,18 15,43 15,74 0,31 -5,56 -15,74 -11,21 -31,31 -60,31 -50,0 -75,-35 -75,-105z"/>
  </g>
  <rect class="fil10" x="1644" y="15568" width="7174" height="1119" rx="269" ry="284"/>
  <path class="fil11" d="M1932 3503l6602 0c154,0 281,126 281,281l0 544c0,154 -126,281 -281,281l-6602 0c-154,0 -281,-126 -281,-281l0 -544c0,-154 126,-281 281,-281z"/>
  <path class="fil12" d="M3435 16191c-28,-29 -42,-63 -42,-104 0,-40 14,-75 42,-104 28,-29 63,-43 105,-43 42,0 77,16 105,48l-29 24c-22,-24 -48,-35 -78,-35 -30,0 -56,11 -76,32 -21,21 -31,47 -31,78 0,31 10,56 31,78 20,21 46,32 77,32 31,0 57,-12 78,-37l29 25c-28,33 -63,49 -105,49 -42,0 -78,-14 -106,-42zm386 -12c12,-12 18,-27 18,-47 0,-19 -6,-35 -18,-46 -12,-12 -27,-18 -45,-18 -18,0 -33,6 -45,17 -12,12 -19,27 -19,46 0,19 6,35 18,47 12,12 27,18 45,18 18,0 33,-6 46,-18zm-45 54c-28,0 -52,-9 -72,-28 -20,-19 -30,-43 -30,-73 0,-30 10,-54 29,-73 19,-19 43,-28 72,-28 29,0 53,9 72,28 20,19 29,43 29,73 0,30 -10,54 -29,73 -20,19 -44,28 -72,28zm322 -108l0 104 -38 0 0 -110c0,-16 -4,-28 -12,-37 -7,-9 -18,-14 -32,-14 -14,0 -26,5 -36,14 -10,10 -15,24 -15,42l0 104 -38 0 0 -194 38 0 0 29c4,-9 12,-17 22,-23 11,-6 21,-9 29,-10 37,-2 62,11 74,39 13,-27 36,-40 67,-40 24,0 43,7 55,22 13,15 19,36 19,63l0 112 -38 0 0 -109c0,-16 -4,-28 -12,-38 -8,-9 -20,-14 -34,-14 -14,0 -26,5 -35,15 -9,10 -14,24 -14,41zm250 -39c-12,12 -18,28 -18,48 0,20 6,35 19,46 13,11 28,17 45,17 17,0 32,-6 44,-17 12,-12 17,-27 17,-46 0,-19 -6,-34 -18,-46 -12,-12 -27,-18 -45,-18 -18,0 -33,6 -45,18zm-56 -50l38 0 0 30c6,-11 16,-19 28,-25 12,-6 25,-10 40,-10 27,0 50,9 69,28 19,19 28,43 28,73 0,30 -9,54 -28,73 -19,19 -41,28 -69,28 -15,0 -28,-3 -40,-9 -12,-6 -21,-14 -27,-24l0 123 -38 0 0 -288zm252 194l0 -299 38 0 0 299 -38 0zm283 -97c0,9 0,13 0,15l-157 0c2,16 9,29 21,39 11,9 24,14 39,14 28,0 48,-10 59,-30 0,0 1,0 1,0 0,0 1,1 3,1 2,1 4,2 6,2 3,1 5,2 6,2l16 6c-8,16 -20,29 -36,38 -16,9 -34,13 -53,13 -28,0 -51,-9 -71,-28 -19,-19 -28,-43 -28,-73 0,-30 9,-54 28,-73 19,-18 42,-27 71,-28 29,0 52,9 69,28 18,18 27,43 27,73zm-57 -53c-11,-9 -24,-14 -40,-14 -16,0 -30,5 -41,14 -11,10 -18,23 -20,38l120 0c-2,-16 -8,-28 -19,-38zm157 -114l0 71 41 0 0 34 -41 0 0 160 -38 0 0 -160 -35 0 0 -34 35 0 0 -71 38 0zm266 167c0,9 0,13 0,15l-157 0c2,16 9,29 21,39 11,9 24,14 39,14 28,0 48,-10 59,-30 0,0 1,0 1,0 0,0 1,1 3,1 2,1 4,2 6,2 3,1 5,2 6,2l16 6c-8,16 -20,29 -36,38 -16,9 -34,13 -53,13 -28,0 -51,-9 -71,-28 -19,-19 -28,-43 -28,-73 0,-30 9,-54 28,-73 19,-18 42,-27 71,-28 29,0 52,9 69,28 18,18 27,43 27,73zm-57 -53c-11,-9 -24,-14 -40,-14 -16,0 -30,5 -41,14 -11,10 -18,23 -20,38l120 0c-2,-16 -8,-28 -19,-38zm268 7c-12,12 -18,28 -18,48 0,20 6,35 19,46 13,11 28,17 45,17 17,0 32,-6 44,-17 12,-12 17,-27 17,-46 0,-19 -6,-34 -18,-46 -12,-12 -27,-18 -45,-18 -18,0 -33,6 -45,18zm-56 -50l38 0 0 30c6,-11 16,-19 28,-25 12,-6 25,-10 40,-10 27,0 50,9 69,28 19,19 28,43 28,73 0,30 -9,54 -28,73 -19,19 -41,28 -69,28 -15,0 -28,-3 -40,-9 -12,-6 -21,-14 -27,-24l0 123 -38 0 0 -288zm385 104l0 -104 38 0 0 194 -38 0 0 -29c-6,11 -14,19 -25,25 -11,6 -23,8 -35,8 -24,0 -42,-8 -55,-23 -13,-15 -19,-36 -19,-63l0 -112 38 0 0 109c0,16 4,29 11,38 7,9 19,14 34,14 15,0 27,-5 37,-14 10,-9 15,-23 15,-42zm138 19l0 70 -38 0 0 -194 38 0 0 44c9,-32 27,-48 54,-48 15,0 26,2 34,7l-6 35c-8,-4 -18,-7 -29,-7 -17,0 -30,8 -39,24 -9,16 -14,39 -14,67zm217 -127c30,0 54,10 73,31l-29 24c-12,-12 -27,-18 -46,-18 -18,0 -34,6 -46,18 -13,12 -19,27 -19,46 0,19 6,35 19,47 13,12 28,18 47,18 18,0 33,-6 45,-19l29 24c-19,21 -44,31 -73,31 -29,0 -54,-9 -75,-28 -20,-19 -30,-43 -30,-73 0,-30 10,-54 30,-73 20,-19 45,-28 74,-28zm159 93l0 104 -38 0 0 -299 38 0 0 134c5,-11 14,-19 27,-25 13,-6 25,-8 37,-8 24,0 44,8 58,23 14,15 21,36 21,63l0 112 -38 0 0 -109c0,-16 -4,-28 -13,-37 -8,-9 -20,-14 -34,-14 -15,0 -28,5 -40,14 -12,9 -18,23 -18,42zm337 54c12,-12 19,-27 19,-47 0,-20 -6,-35 -19,-47 -13,-11 -28,-17 -46,-17 -18,0 -32,6 -44,18 -12,12 -18,27 -18,46 0,19 6,34 18,46 12,12 27,18 45,18 18,0 33,-6 45,-17zm57 50l-38 0 0 -30c-6,10 -15,18 -28,25 -12,6 -26,9 -40,9 -27,0 -50,-9 -70,-28 -19,-19 -29,-43 -29,-73 0,-30 9,-54 28,-73 19,-19 42,-28 70,-28 14,0 28,3 40,9 13,6 22,15 27,25l0 -29 38 0 0 194zm76 -184c13,-9 29,-14 47,-14 18,0 33,5 45,14 12,9 19,23 20,40l-36 0c-1,-6 -4,-11 -10,-15 -6,-4 -13,-6 -20,-6 -7,0 -14,2 -19,5 -6,2 -9,7 -10,13 -1,6 -1,11 1,15 3,6 11,11 23,15l29 7c33,8 50,27 50,57 0,17 -7,32 -22,42 -15,10 -32,16 -52,16 -20,0 -37,-6 -51,-17 -15,-11 -22,-26 -22,-45l36 0c2,10 7,17 15,22 8,5 18,8 27,7 10,-1 17,-3 23,-8 5,-5 8,-10 9,-17 1,-7 -2,-12 -6,-16 -5,-4 -11,-7 -19,-9l-27 -6c-19,-5 -33,-12 -41,-22 -8,-10 -12,-23 -10,-38 1,-15 9,-28 21,-37zm351 86c0,9 0,13 0,15l-157 0c2,16 9,29 21,39 11,9 24,14 39,14 28,0 48,-10 59,-30 0,0 1,0 1,0 0,0 1,1 3,1 2,1 4,2 6,2 3,1 5,2 6,2l16 6c-8,16 -20,29 -36,38 -16,9 -34,13 -53,13 -28,0 -51,-9 -71,-28 -19,-19 -28,-43 -28,-73 0,-30 9,-54 28,-73 19,-18 42,-27 71,-28 29,0 52,9 69,28 18,18 27,43 27,73zm-57 -53c-11,-9 -24,-14 -40,-14 -16,0 -30,5 -41,14 -11,10 -18,23 -20,38l120 0c-2,-16 -8,-28 -19,-38z"/>
  <path class="fil13" d="M4230 3919l40 0 64 218 64 -218 38 0 -83 282 -39 0 -83 -282zm249 38c-5,-5 -7,-10 -7,-17 0,-7 2,-12 7,-17 5,-5 11,-7 18,-7 7,0 13,2 18,7 5,5 8,10 8,17 0,7 -3,13 -8,17 -5,5 -11,7 -18,7 -7,0 -13,-2 -18,-7zm37 244l-37 0 0 -191 37 0 0 191zm242 -96c0,8 0,13 0,15l-155 0c2,15 9,28 20,38 11,9 24,14 38,14 28,0 47,-10 58,-30 0,0 1,0 1,0 0,0 1,1 3,1 2,1 4,2 6,2 3,1 5,2 6,2l16 6c-8,16 -20,29 -36,37 -16,9 -33,13 -52,13 -27,0 -51,-9 -70,-28 -18,-18 -28,-43 -28,-73 0,-30 9,-54 28,-72 18,-18 42,-27 70,-27 28,0 51,9 68,27 18,18 27,42 27,72zm-56 -52c-11,-9 -24,-14 -40,-14 -16,0 -29,5 -41,14 -11,10 -18,22 -20,38l118 0c-2,-15 -8,-28 -19,-38zm387 -43l-71 191 -31 0 -52 -140 -50 140 -30 0 -73 -191 40 0 48 134 48 -134 36 0 48 134 48 -134 40 0zm278 142c12,-12 18,-27 18,-46 0,-19 -6,-34 -18,-46 -12,-12 -27,-17 -45,-17 -18,0 -33,6 -45,17 -12,12 -18,27 -18,46 0,19 6,34 18,46 12,12 27,18 45,18 18,0 33,-6 45,-18zm-45 53c-28,0 -51,-9 -71,-28 -20,-18 -29,-42 -29,-72 0,-30 10,-54 29,-72 19,-18 43,-28 71,-27 28,0 52,9 71,28 19,19 29,43 29,72 0,29 -10,53 -29,72 -19,19 -43,28 -71,28zm187 -74l0 70 -37 0 0 -191 37 0 0 43c9,-31 27,-47 53,-47 15,0 26,2 33,7l-6 35c-8,-4 -18,-7 -28,-7 -17,0 -30,8 -39,24 -9,16 -14,38 -14,66zm256 20c12,-12 19,-27 19,-46 0,-19 -6,-35 -19,-46 -13,-11 -28,-17 -45,-17 -17,0 -32,6 -43,17 -12,12 -18,27 -18,46 0,19 6,34 18,46 12,12 27,18 44,18 17,0 32,-6 45,-17zm56 50l-37 0 0 -29c-6,10 -15,18 -27,24 -12,6 -25,9 -40,9 -27,0 -49,-9 -69,-28 -18,-18 -28,-42 -28,-72 0,-29 9,-53 28,-72 18,-18 41,-28 69,-28 15,0 28,3 40,9 12,6 21,14 27,24l0 -133 37 0 0 295zm242 -96c0,8 0,13 0,15l-155 0c2,15 9,28 20,38 11,9 24,14 38,14 28,0 47,-10 58,-30 0,0 1,0 1,0 0,0 1,1 3,1 2,1 4,2 6,2 3,1 5,2 6,2l16 6c-8,16 -20,29 -36,37 -16,9 -33,13 -52,13 -27,0 -51,-9 -70,-28 -18,-18 -28,-43 -28,-73 0,-30 9,-54 28,-72 18,-18 42,-27 70,-27 28,0 51,9 68,27 18,18 27,42 27,72zm-56 -52c-11,-9 -24,-14 -40,-14 -16,0 -29,5 -41,14 -11,10 -18,22 -20,38l118 0c-2,-15 -8,-28 -19,-38zm140 79l0 70 -37 0 0 -191 37 0 0 43c9,-31 27,-47 53,-47 15,0 26,2 33,7l-6 35c-8,-4 -18,-7 -28,-7 -17,0 -30,8 -39,24 -9,16 -14,38 -14,66z"/>
  <path class="fil14" d="M1650 6102l0 -243 144 0 0 31 -111 0 0 78 97 0 0 31 -97 0 0 73 114 0 0 31 -147 0zm339 -89l0 89 -32 0 0 -93c0,-14 -3,-24 -10,-32 -6,-8 -16,-12 -28,-12 -12,0 -22,4 -31,12 -9,8 -13,20 -13,36l0 89 -32 0 0 -165 32 0 0 25c4,-8 10,-14 19,-19 9,-5 18,-8 25,-8 32,-2 53,9 63,33 11,-23 30,-34 57,-34 21,0 36,6 47,19 11,13 17,31 17,54l0 95 -32 0 0 -93c0,-13 -3,-24 -10,-32 -7,-8 -17,-12 -29,-12 -12,0 -22,4 -30,13 -8,9 -12,20 -12,35zm280 46c11,-10 16,-23 16,-40 0,-17 -6,-30 -17,-40 -11,-10 -24,-15 -39,-15 -15,0 -28,5 -38,15 -10,10 -15,23 -15,39 0,16 5,29 16,40 10,10 23,16 38,16 15,0 28,-5 39,-15zm48 43l-32 0 0 -25c-5,9 -13,16 -23,21 -10,5 -22,8 -34,8 -23,0 -43,-8 -59,-24 -16,-16 -24,-37 -24,-62 0,-25 8,-46 24,-62 16,-16 36,-24 60,-24 12,0 23,2 34,7 11,5 19,12 23,21l0 -25 32 0 0 165zm53 -211c-4,-4 -6,-9 -6,-15 0,-6 2,-11 6,-15 5,-4 10,-6 16,-6 6,0 11,2 16,6 5,4 7,9 7,15 0,6 -2,11 -7,15 -4,4 -10,6 -16,6 -6,0 -11,-2 -16,-6zm32 211l-32 0 0 -165 32 0 0 165zm54 0l0 -255 32 0 0 255 -32 0z"/>
  <path class="fil14" d="M1650 7376l0 -243 142 0 0 31 -109 0 0 78 86 0 0 31 -86 0 0 104 -33 0zm179 -211c-4,-4 -6,-9 -6,-15 0,-6 2,-11 6,-15 5,-4 10,-6 16,-6 6,0 11,2 16,6 5,4 7,9 7,15 0,6 -2,11 -7,15 -4,4 -10,6 -16,6 -6,0 -11,-2 -16,-6zm32 211l-32 0 0 -165 32 0 0 165zm86 -60l0 60 -32 0 0 -165 32 0 0 37c8,-27 23,-41 46,-41 13,0 23,2 29,6l-5 30c-7,-4 -15,-6 -24,-6 -15,0 -26,7 -33,21 -8,14 -12,33 -12,57zm119 -96c11,-8 24,-12 40,-12 16,0 29,4 39,12 10,8 16,19 17,34l-31 0c-1,-5 -4,-10 -8,-13 -5,-3 -11,-5 -17,-5 -6,0 -12,1 -16,4 -5,2 -8,6 -9,11 -1,5 -1,9 1,12 3,5 9,9 19,12l24 6c29,7 43,23 43,48 0,15 -6,27 -19,36 -13,9 -27,13 -44,13 -17,0 -31,-5 -44,-15 -12,-10 -19,-22 -19,-39l30 0c1,9 6,15 13,19 7,5 15,7 23,6 8,0 15,-3 19,-7 5,-4 7,-9 8,-15 0,-6 -1,-10 -5,-14 -4,-3 -10,-6 -17,-8l-23 -5c-16,-4 -28,-11 -35,-19 -7,-9 -10,-20 -9,-33 1,-13 7,-24 18,-32zm188 -69l0 60 35 0 0 29 -35 0 0 136 -32 0 0 -136 -30 0 0 -29 30 0 0 -60 32 0z"/>
  <path class="fil14" d="M2449 7287l0 89 -32 0 0 -165 32 0 0 25c5,-9 12,-16 21,-21 9,-5 20,-7 30,-7 21,0 36,6 47,19 11,13 17,31 17,54l0 95 -32 0 0 -93c0,-14 -3,-25 -10,-32 -6,-8 -16,-12 -28,-12 -13,0 -23,4 -32,12 -9,8 -13,20 -13,36zm281 46c11,-10 16,-23 16,-40 0,-17 -6,-30 -17,-40 -11,-10 -24,-15 -39,-15 -15,0 -28,5 -38,15 -10,10 -15,23 -15,39 0,16 5,29 16,40 10,10 23,16 38,16 15,0 28,-5 39,-15zm48 43l-32 0 0 -25c-5,9 -13,16 -23,21 -10,5 -22,8 -34,8 -23,0 -43,-8 -59,-24 -16,-16 -24,-37 -24,-62 0,-25 8,-46 24,-62 16,-16 36,-24 60,-24 12,0 23,2 34,7 11,5 19,12 23,21l0 -25 32 0 0 165zm199 -89l0 89 -32 0 0 -93c0,-14 -3,-24 -10,-32 -6,-8 -16,-12 -28,-12 -12,0 -22,4 -31,12 -9,8 -13,20 -13,36l0 89 -32 0 0 -165 32 0 0 25c4,-8 10,-14 19,-19 9,-5 18,-8 25,-8 32,-2 53,9 63,33 11,-23 30,-34 57,-34 21,0 36,6 47,19 11,13 17,31 17,54l0 95 -32 0 0 -93c0,-13 -3,-24 -10,-32 -7,-8 -17,-12 -29,-12 -12,0 -22,4 -30,13 -8,9 -12,20 -12,35zm321 6c0,7 0,11 0,13l-134 0c2,13 7,24 18,33 10,8 21,12 33,12 24,0 41,-9 50,-26 0,0 1,0 1,0 0,0 1,1 2,1 1,1 3,1 5,2 2,1 4,2 5,2l13 5c-7,14 -17,25 -31,32 -14,8 -29,11 -45,11 -24,0 -44,-8 -61,-24 -16,-16 -24,-37 -24,-63 0,-26 8,-46 24,-62 16,-16 36,-23 60,-23 24,0 44,8 59,24 15,16 23,36 23,62zm-48 -45c-9,-8 -21,-12 -34,-12 -14,0 -25,4 -35,12 -10,8 -15,19 -17,33l102 0c-2,-13 -7,-24 -16,-33z"/>
  <g id="_1293408016">
   <path class="fil14" d="M7201 7376l0 -243 33 0 0 213 99 0 0 31 -132 0zm283 -43c11,-10 16,-23 16,-40 0,-17 -6,-30 -17,-40 -11,-10 -24,-15 -39,-15 -15,0 -28,5 -38,15 -10,10 -15,23 -15,39 0,16 5,29 16,40 10,10 23,16 38,16 15,0 28,-5 39,-15zm48 43l-32 0 0 -25c-5,9 -13,16 -23,21 -10,5 -22,8 -34,8 -23,0 -43,-8 -59,-24 -16,-16 -24,-37 -24,-62 0,-25 8,-46 24,-62 16,-16 36,-24 60,-24 12,0 23,2 34,7 11,5 19,12 23,21l0 -25 32 0 0 165zm65 -156c11,-8 24,-12 40,-12 16,0 29,4 39,12 10,8 16,19 17,34l-31 0c-1,-5 -4,-10 -8,-13 -5,-3 -11,-5 -17,-5 -6,0 -12,1 -16,4 -5,2 -8,6 -9,11 -1,5 -1,9 1,12 3,5 9,9 19,12l24 6c29,7 43,23 43,48 0,15 -6,27 -19,36 -13,9 -27,13 -44,13 -17,0 -31,-5 -44,-15 -12,-10 -19,-22 -19,-39l30 0c1,9 6,15 13,19 7,5 15,7 23,6 8,0 15,-3 19,-7 5,-4 7,-9 8,-15 0,-6 -1,-10 -5,-14 -4,-3 -10,-6 -17,-8l-23 -5c-16,-4 -28,-11 -35,-19 -7,-9 -10,-20 -9,-33 1,-13 7,-24 18,-32zm188 -69l0 60 35 0 0 29 -35 0 0 136 -32 0 0 -136 -30 0 0 -29 30 0 0 -60 32 0z"/>
   <path class="fil14" d="M7980 7287l0 89 -32 0 0 -165 32 0 0 25c5,-9 12,-16 21,-21 9,-5 20,-7 30,-7 21,0 36,6 47,19 11,13 17,31 17,54l0 95 -32 0 0 -93c0,-14 -3,-25 -10,-32 -6,-8 -16,-12 -28,-12 -13,0 -23,4 -32,12 -9,8 -13,20 -13,36zm281 46c11,-10 16,-23 16,-40 0,-17 -6,-30 -17,-40 -11,-10 -24,-15 -39,-15 -15,0 -28,5 -38,15 -10,10 -15,23 -15,39 0,16 5,29 16,40 10,10 23,16 38,16 15,0 28,-5 39,-15zm48 43l-32 0 0 -25c-5,9 -13,16 -23,21 -10,5 -22,8 -34,8 -23,0 -43,-8 -59,-24 -16,-16 -24,-37 -24,-62 0,-25 8,-46 24,-62 16,-16 36,-24 60,-24 12,0 23,2 34,7 11,5 19,12 23,21l0 -25 32 0 0 165zm199 -89l0 89 -32 0 0 -93c0,-14 -3,-24 -10,-32 -6,-8 -16,-12 -28,-12 -12,0 -22,4 -31,12 -9,8 -13,20 -13,36l0 89 -32 0 0 -165 32 0 0 25c4,-8 10,-14 19,-19 9,-5 18,-8 25,-8 32,-2 53,9 63,33 11,-23 30,-34 57,-34 21,0 36,6 47,19 11,13 17,31 17,54l0 95 -32 0 0 -93c0,-13 -3,-24 -10,-32 -7,-8 -17,-12 -29,-12 -12,0 -22,4 -30,13 -8,9 -12,20 -12,35zm321 6c0,7 0,11 0,13l-134 0c2,13 7,24 18,33 10,8 21,12 33,12 24,0 41,-9 50,-26 0,0 1,0 1,0 0,0 1,1 2,1 1,1 3,1 5,2 2,1 4,2 5,2l13 5c-7,14 -17,25 -31,32 -14,8 -29,11 -45,11 -24,0 -44,-8 -61,-24 -16,-16 -24,-37 -24,-63 0,-26 8,-46 24,-62 16,-16 36,-23 60,-23 24,0 44,8 59,24 15,16 23,36 23,62zm-48 -45c-9,-8 -21,-12 -34,-12 -14,0 -25,4 -35,12 -10,8 -15,19 -17,33l102 0c-2,-13 -7,-24 -16,-33z"/>
  </g>
  <path class="fil13" d="M1739 14607l-63 0 0 81 64 0c11,0 20,-4 28,-11 7,-8 11,-17 11,-28 0,-11 -4,-21 -11,-29 -7,-9 -17,-13 -28,-13zm-63 -98l0 70 58 0c10,0 18,-3 24,-10 6,-7 8,-16 8,-26 0,-10 -3,-19 -9,-24 -6,-6 -15,-9 -26,-9l-55 0zm123 32c0,26 -10,42 -29,50 13,3 23,10 30,22 8,12 12,24 12,36 0,20 -6,36 -19,49 -13,13 -30,20 -51,20l-97 0 0 -240 90 0c20,0 36,6 47,17 12,11 18,26 18,45zm202 15l-101 242 -33 0 34 -84 -65 -158 34 0 49 118 49 -118 34 0zm199 -3c25,0 46,9 62,26l-24 20c-10,-10 -23,-15 -38,-15 -15,0 -28,5 -39,15 -11,10 -16,23 -16,39 0,16 5,29 16,39 11,10 24,15 39,15 15,0 28,-5 38,-16l24 20c-16,17 -37,26 -61,26 -25,0 -46,-8 -63,-24 -17,-16 -25,-36 -25,-61 0,-25 8,-45 25,-61 17,-16 37,-24 62,-24zm102 166l0 -251 32 0 0 251 -32 0zm84 -208c-4,-4 -6,-9 -6,-15 0,-6 2,-11 6,-15 5,-4 10,-6 16,-6 6,0 11,2 15,6 4,4 7,9 7,15 0,6 -2,11 -7,15 -4,4 -10,6 -15,6 -6,0 -11,-2 -16,-6zm31 208l-32 0 0 -163 32 0 0 163zm129 -166c25,0 46,9 62,26l-24 20c-10,-10 -23,-15 -38,-15 -15,0 -28,5 -39,15 -11,10 -16,23 -16,39 0,16 5,29 16,39 11,10 24,15 39,15 15,0 28,-5 38,-16l24 20c-16,17 -37,26 -61,26 -25,0 -46,-8 -63,-24 -17,-16 -25,-36 -25,-61 0,-25 8,-45 25,-61 17,-16 37,-24 62,-24zm133 166l-32 0 0 -251 32 0 0 145 56 -57 43 0 -70 70 86 92 -42 0 -74 -79 0 79zm143 -208c-4,-4 -6,-9 -6,-15 0,-6 2,-11 6,-15 5,-4 10,-6 16,-6 6,0 11,2 15,6 4,4 7,9 7,15 0,6 -2,11 -7,15 -4,4 -10,6 -15,6 -6,0 -11,-2 -16,-6zm31 208l-32 0 0 -163 32 0 0 163zm84 -88l0 88 -32 0 0 -163 32 0 0 24c5,-9 12,-16 21,-21 9,-5 19,-7 30,-7 20,0 36,6 46,19 11,12 16,30 16,53l0 94 -32 0 0 -92c0,-14 -3,-24 -10,-32 -6,-8 -15,-12 -28,-12 -12,0 -23,4 -31,12 -9,8 -13,20 -13,35zm201 46c10,10 22,15 37,15 15,0 28,-5 38,-15 11,-10 16,-23 16,-39 0,-17 -5,-30 -16,-39 -10,-10 -23,-14 -38,-14 -15,0 -28,5 -38,15 -10,10 -15,23 -15,39 0,16 5,29 15,38zm35 93c39,0 58,-24 58,-73 0,0 0,-1 0,-2l0 -2c-5,9 -12,17 -23,22 -11,5 -22,8 -34,8 -23,0 -43,-8 -59,-23 -16,-16 -24,-36 -24,-61 0,-25 8,-46 24,-61 16,-16 36,-24 58,-24 12,0 24,3 34,8 10,5 18,12 23,21l0 -25 32 0 0 138c0,71 -30,106 -89,106 -16,0 -30,-4 -43,-11 -13,-8 -23,-19 -31,-33 1,0 6,-3 14,-7l13 -7c4,8 11,15 20,20 9,5 18,8 27,8zm276 -273l0 60 34 0 0 28 -34 0 0 134 -32 0 0 -134 -29 0 0 -28 29 0 0 -60 32 0zm102 134l0 88 -32 0 0 -251 32 0 0 113c4,-9 12,-16 23,-21 11,-5 21,-7 31,-7 21,0 37,6 49,19 12,13 18,30 17,53l0 94 -32 0 0 -92c0,-14 -4,-24 -11,-31 -7,-8 -16,-12 -29,-12 -12,0 -23,4 -33,12 -10,8 -15,20 -15,36zm323 6c0,7 0,11 0,12l-132 0c2,13 7,24 17,33 10,8 20,12 32,12 23,0 40,-8 49,-25 0,0 1,0 1,0 0,0 1,1 2,1 1,1 3,1 5,2 2,1 4,2 5,2l13 5c-7,14 -17,24 -30,32 -13,7 -28,11 -45,11 -23,0 -43,-8 -60,-24 -16,-16 -24,-36 -24,-62 0,-25 8,-46 23,-61 16,-15 35,-23 59,-23 24,0 43,8 58,23 15,15 23,36 23,61zm-47 -44c-9,-8 -20,-12 -34,-12 -13,0 -25,4 -35,12 -10,8 -15,19 -17,32l101 0c-2,-13 -7,-24 -16,-32zm227 5c-11,10 -16,23 -16,39 0,17 5,30 16,39 10,10 23,15 38,15 15,0 28,-5 38,-15 10,-10 15,-23 15,-39 0,-16 -5,-29 -15,-39 -10,-10 -22,-15 -37,-15 -15,0 -27,5 -38,14zm-17 121l-32 0 0 -251 32 0 0 113c11,-19 30,-28 57,-28 23,0 43,8 59,24 16,15 23,36 23,61 0,25 -8,46 -24,61 -16,16 -36,24 -58,24 -12,0 -23,-3 -34,-8 -10,-5 -18,-12 -23,-21l0 25zm293 -75l0 -88 32 0 0 163 -32 0 0 -24c-5,9 -12,16 -21,21 -9,5 -19,7 -30,7 -20,0 -36,-6 -46,-19 -11,-13 -16,-30 -16,-53l0 -94 32 0 0 92c0,14 3,24 9,32 6,8 16,11 28,11 13,0 23,-4 31,-12 8,-8 13,-20 12,-35zm128 -147l0 60 34 0 0 28 -34 0 0 134 -32 0 0 -134 -29 0 0 -28 29 0 0 -60 32 0zm114 0l0 60 34 0 0 28 -34 0 0 134 -32 0 0 -134 -29 0 0 -28 29 0 0 -60 32 0zm183 180c10,-10 15,-23 15,-39 0,-16 -5,-29 -15,-39 -10,-10 -23,-15 -38,-15 -15,0 -28,5 -38,15 -10,10 -16,23 -16,39 0,16 5,29 15,39 10,10 23,15 38,15 15,0 28,-5 38,-15zm-38 45c-24,0 -44,-8 -60,-24 -17,-16 -25,-36 -25,-61 0,-25 8,-46 24,-61 16,-16 36,-23 60,-23 24,0 44,8 61,24 16,16 25,36 25,61 0,25 -8,45 -25,61 -16,16 -37,24 -60,24zm159 -91l0 88 -32 0 0 -163 32 0 0 24c5,-9 12,-16 21,-21 9,-5 19,-7 30,-7 20,0 36,6 46,19 11,12 16,30 16,53l0 94 -32 0 0 -92c0,-14 -3,-24 -10,-32 -6,-8 -15,-12 -28,-12 -12,0 -23,4 -31,12 -9,8 -13,20 -13,35zm303 -33c-11,10 -16,23 -16,39 0,17 5,30 16,39 10,10 23,15 38,15 15,0 28,-5 38,-15 10,-10 15,-23 15,-39 0,-16 -5,-29 -15,-39 -10,-10 -22,-15 -37,-15 -15,0 -27,5 -38,14zm-17 121l-32 0 0 -251 32 0 0 113c11,-19 30,-28 57,-28 23,0 43,8 59,24 16,15 23,36 23,61 0,25 -8,46 -24,61 -16,16 -36,24 -58,24 -12,0 -23,-3 -34,-8 -10,-5 -18,-12 -23,-21l0 25zm335 -82c0,7 0,11 0,12l-132 0c2,13 7,24 17,33 10,8 20,12 32,12 23,0 40,-8 49,-25 0,0 1,0 1,0 0,0 1,1 2,1 1,1 3,1 5,2 2,1 4,2 5,2l13 5c-7,14 -17,24 -30,32 -13,7 -28,11 -45,11 -23,0 -43,-8 -60,-24 -16,-16 -24,-36 -24,-62 0,-25 8,-46 23,-61 16,-15 35,-23 59,-23 24,0 43,8 58,23 15,15 23,36 23,61zm-47 -44c-9,-8 -20,-12 -34,-12 -13,0 -25,4 -35,12 -10,8 -15,19 -17,32l101 0c-2,-13 -7,-24 -16,-32zm88 126l0 -251 32 0 0 251 -32 0zm197 -42c10,-10 15,-23 15,-39 0,-16 -5,-29 -15,-39 -10,-10 -23,-15 -38,-15 -15,0 -28,5 -38,15 -10,10 -16,23 -16,39 0,16 5,29 15,39 10,10 23,15 38,15 15,0 28,-5 38,-15zm-38 45c-24,0 -44,-8 -60,-24 -17,-16 -25,-36 -25,-61 0,-25 8,-46 24,-61 16,-16 36,-23 60,-23 24,0 44,8 61,24 16,16 25,36 25,61 0,25 -8,45 -25,61 -16,16 -37,24 -60,24zm368 -166l-60 163 -26 0 -44 -119 -43 119 -26 0 -62 -163 34 0 41 114 41 -114 31 0 41 114 41 -114 34 0zm269 0l-101 242 -33 0 34 -84 -65 -158 34 0 49 118 49 -118 34 0zm145 121c10,-10 15,-23 15,-39 0,-16 -5,-29 -15,-39 -10,-10 -23,-15 -38,-15 -15,0 -28,5 -38,15 -10,10 -16,23 -16,39 0,16 5,29 15,39 10,10 23,15 38,15 15,0 28,-5 38,-15zm-38 45c-24,0 -44,-8 -60,-24 -17,-16 -25,-36 -25,-61 0,-25 8,-46 24,-61 16,-16 36,-23 60,-23 24,0 44,8 61,24 16,16 25,36 25,61 0,25 -8,45 -25,61 -16,16 -37,24 -60,24zm238 -78l0 -88 32 0 0 163 -32 0 0 -24c-5,9 -12,16 -21,21 -9,5 -19,7 -30,7 -20,0 -36,-6 -46,-19 -11,-13 -16,-30 -16,-53l0 -94 32 0 0 92c0,14 3,24 9,32 6,8 16,11 28,11 13,0 23,-4 31,-12 8,-8 13,-20 12,-35zm287 33c10,-10 16,-23 16,-39 0,-17 -5,-30 -16,-39 -11,-10 -24,-14 -38,-14 -15,0 -27,5 -37,15 -10,10 -15,23 -15,38 0,16 5,29 15,39 10,10 23,15 38,15 15,0 28,-5 38,-15zm48 42l-32 0 0 -25c-5,9 -13,15 -23,21 -10,5 -22,8 -34,8 -23,0 -42,-8 -59,-24 -16,-16 -24,-36 -24,-61 0,-25 8,-45 24,-61 16,-16 35,-24 59,-24 12,0 23,2 34,7 11,5 18,12 23,21l0 -24 32 0 0 163zm89 -42c10,10 22,15 37,15 15,0 28,-5 38,-15 11,-10 16,-23 16,-39 0,-17 -5,-30 -16,-39 -10,-10 -23,-14 -38,-14 -15,0 -28,5 -38,15 -10,10 -15,23 -15,39 0,16 5,29 15,38zm35 93c39,0 58,-24 58,-73 0,0 0,-1 0,-2l0 -2c-5,9 -12,17 -23,22 -11,5 -22,8 -34,8 -23,0 -43,-8 -59,-23 -16,-16 -24,-36 -24,-61 0,-25 8,-46 24,-61 16,-16 36,-24 58,-24 12,0 24,3 34,8 10,5 18,12 23,21l0 -25 32 0 0 138c0,71 -30,106 -89,106 -16,0 -30,-4 -43,-11 -13,-8 -23,-19 -31,-33 1,0 6,-3 14,-7l13 -7c4,8 11,15 20,20 9,5 18,8 27,8zm173 -110l0 59 -32 0 0 -163 32 0 0 37c8,-27 23,-40 45,-40 13,0 22,2 28,6l-5 30c-7,-4 -15,-6 -24,-6 -14,0 -25,7 -33,21 -8,14 -12,32 -12,56zm259 -23c0,7 0,11 0,12l-132 0c2,13 7,24 17,33 10,8 20,12 32,12 23,0 40,-8 49,-25 0,0 1,0 1,0 0,0 1,1 2,1 1,1 3,1 5,2 2,1 4,2 5,2l13 5c-7,14 -17,24 -30,32 -13,7 -28,11 -45,11 -23,0 -43,-8 -60,-24 -16,-16 -24,-36 -24,-62 0,-25 8,-46 23,-61 16,-15 35,-23 59,-23 24,0 43,8 58,23 15,15 23,36 23,61zm-47 -44c-9,-8 -20,-12 -34,-12 -13,0 -25,4 -35,12 -10,8 -15,19 -17,32l101 0c-2,-13 -7,-24 -16,-32zm241 44c0,7 0,11 0,12l-132 0c2,13 7,24 17,33 10,8 20,12 32,12 23,0 40,-8 49,-25 0,0 1,0 1,0 0,0 1,1 2,1 1,1 3,1 5,2 2,1 4,2 5,2l13 5c-7,14 -17,24 -30,32 -13,7 -28,11 -45,11 -23,0 -43,-8 -60,-24 -16,-16 -24,-36 -24,-62 0,-25 8,-46 23,-61 16,-15 35,-23 59,-23 24,0 43,8 58,23 15,15 23,36 23,61zm-47 -44c-9,-8 -20,-12 -34,-12 -13,0 -25,4 -35,12 -10,8 -15,19 -17,32l101 0c-2,-13 -7,-24 -16,-32zm222 -96l0 60 34 0 0 28 -34 0 0 134 -32 0 0 -134 -29 0 0 -28 29 0 0 -60 32 0zm183 180c10,-10 15,-23 15,-39 0,-16 -5,-29 -15,-39 -10,-10 -23,-15 -38,-15 -15,0 -28,5 -38,15 -10,10 -16,23 -16,39 0,16 5,29 15,39 10,10 23,15 38,15 15,0 28,-5 38,-15zm-38 45c-24,0 -44,-8 -60,-24 -17,-16 -25,-36 -25,-61 0,-25 8,-46 24,-61 16,-16 36,-23 60,-23 24,0 44,8 61,24 16,16 25,36 25,61 0,25 -8,45 -25,61 -16,16 -37,24 -60,24zm330 -45c10,-10 15,-23 15,-39 0,-16 -5,-29 -15,-39 -10,-10 -23,-15 -38,-15 -15,0 -28,5 -38,15 -10,10 -16,23 -16,39 0,16 5,29 15,39 10,10 23,15 38,15 15,0 28,-5 38,-15zm-38 45c-24,0 -44,-8 -60,-24 -17,-16 -25,-36 -25,-61 0,-25 8,-46 24,-61 16,-16 36,-23 60,-23 24,0 44,8 61,24 16,16 25,36 25,61 0,25 -8,45 -25,61 -16,16 -37,24 -60,24zm238 -78l0 -88 32 0 0 163 -32 0 0 -24c-5,9 -12,16 -21,21 -9,5 -19,7 -30,7 -20,0 -36,-6 -46,-19 -11,-13 -16,-30 -16,-53l0 -94 32 0 0 92c0,14 3,24 9,32 6,8 16,11 28,11 13,0 23,-4 31,-12 8,-8 13,-20 12,-35zm116 16l0 59 -32 0 0 -163 32 0 0 37c8,-27 23,-40 45,-40 13,0 22,2 28,6l-5 30c-7,-4 -15,-6 -24,-6 -14,0 -25,7 -33,21 -8,14 -12,32 -12,56z"/>
  <path class="fil13" d="M3194 14873l0 -30 179 0 0 30 -73 0 0 210 -32 0 0 -210 -73 0zm368 128c0,7 0,11 0,12l-132 0c2,13 7,24 17,33 10,8 20,12 32,12 23,0 40,-8 49,-25 0,0 1,0 1,0 0,0 1,1 2,1 1,1 3,1 5,2 2,1 4,2 5,2l13 5c-7,14 -17,24 -30,32 -13,7 -28,11 -45,11 -23,0 -43,-8 -60,-24 -16,-16 -24,-36 -24,-62 0,-25 8,-46 23,-61 16,-15 35,-23 59,-23 24,0 43,8 58,23 15,15 23,36 23,61zm-47 -44c-9,-8 -20,-12 -34,-12 -13,0 -25,4 -35,12 -10,8 -15,19 -17,32l101 0c-2,-13 -7,-24 -16,-32zm119 67l0 59 -32 0 0 -163 32 0 0 37c8,-27 23,-40 45,-40 13,0 22,2 28,6l-5 30c-7,-4 -15,-6 -24,-6 -14,0 -25,7 -33,21 -8,14 -12,32 -12,56zm249 -28l0 87 -32 0 0 -92c0,-13 -3,-24 -10,-31 -6,-8 -15,-11 -27,-11 -12,0 -22,4 -31,12 -9,8 -13,20 -13,35l0 87 -32 0 0 -163 32 0 0 25c4,-8 10,-14 19,-19 9,-5 17,-8 25,-8 31,-2 52,9 62,33 11,-23 30,-34 56,-34 20,0 36,6 46,19 11,12 16,30 16,53l0 94 -32 0 0 -92c0,-13 -3,-24 -10,-32 -7,-8 -17,-12 -29,-12 -12,0 -22,4 -30,13 -8,9 -12,20 -12,35zm174 -67c11,-8 24,-12 39,-12 15,0 28,4 38,12 10,8 16,19 17,34l-30 0c-1,-5 -4,-10 -8,-13 -5,-3 -11,-5 -17,-5 -6,0 -11,1 -16,4 -5,2 -8,6 -9,11 -1,5 -1,9 1,12 3,5 9,9 19,12l24 6c28,7 42,23 42,48 0,15 -6,27 -18,36 -12,9 -27,13 -43,13 -17,0 -31,-5 -43,-14 -12,-10 -18,-22 -19,-38l30 0c1,8 6,15 13,19 7,4 15,6 23,6 8,0 15,-3 19,-7 5,-4 7,-9 8,-15 0,-6 -1,-10 -5,-14 -4,-3 -9,-6 -16,-7l-22 -5c-16,-4 -27,-10 -35,-19 -7,-9 -10,-19 -9,-32 1,-13 7,-23 18,-31zm345 112c10,-10 16,-23 16,-39 0,-17 -5,-30 -16,-39 -11,-10 -24,-14 -38,-14 -15,0 -27,5 -37,15 -10,10 -15,23 -15,38 0,16 5,29 15,39 10,10 23,15 38,15 15,0 28,-5 38,-15zm48 42l-32 0 0 -25c-5,9 -13,15 -23,21 -10,5 -22,8 -34,8 -23,0 -42,-8 -59,-24 -16,-16 -24,-36 -24,-61 0,-25 8,-45 24,-61 16,-16 35,-24 59,-24 12,0 23,2 34,7 11,5 18,12 23,21l0 -24 32 0 0 163zm84 -88l0 88 -32 0 0 -163 32 0 0 24c5,-9 12,-16 21,-21 9,-5 19,-7 30,-7 20,0 36,6 46,19 11,12 16,30 16,53l0 94 -32 0 0 -92c0,-14 -3,-24 -10,-32 -6,-8 -15,-12 -28,-12 -12,0 -23,4 -31,12 -9,8 -13,20 -13,35zm277 45c11,-10 16,-23 16,-39 0,-16 -5,-29 -16,-39 -11,-10 -24,-14 -38,-14 -15,0 -27,5 -37,15 -10,10 -15,23 -15,39 0,16 5,29 15,39 10,10 23,15 37,15 15,0 28,-5 38,-15zm48 42l-32 0 0 -25c-5,9 -13,15 -23,21 -10,5 -22,8 -34,8 -23,0 -42,-8 -59,-24 -16,-16 -24,-36 -24,-61 0,-25 8,-45 23,-61 16,-16 35,-24 58,-24 13,0 24,2 34,7 10,5 18,12 23,21l0 -113 32 0 0 251zm245 -210l-63 0 0 89 61 0c13,0 23,-4 31,-12 7,-8 11,-19 11,-32 0,-13 -3,-24 -10,-33 -7,-8 -17,-13 -29,-13zm-95 210l0 -240 96 0c24,0 41,7 53,22 12,14 18,32 18,53 0,21 -6,39 -18,53 -12,14 -30,21 -54,21l-63 0 0 90 -32 0zm236 -59l0 59 -32 0 0 -163 32 0 0 37c8,-27 23,-40 45,-40 13,0 22,2 28,6l-5 30c-7,-4 -15,-6 -24,-6 -14,0 -25,7 -33,21 -8,14 -12,32 -12,56zm106 -149c-4,-4 -6,-9 -6,-15 0,-6 2,-11 6,-15 5,-4 10,-6 16,-6 6,0 11,2 15,6 4,4 7,9 7,15 0,6 -2,11 -7,15 -4,4 -10,6 -15,6 -6,0 -11,-2 -16,-6zm31 208l-32 0 0 -163 32 0 0 163zm100 0l-67 -163 33 0 49 122 49 -122 34 0 -98 163zm243 -42c10,-10 16,-23 16,-39 0,-17 -5,-30 -16,-39 -11,-10 -24,-14 -38,-14 -15,0 -27,5 -37,15 -10,10 -15,23 -15,38 0,16 5,29 15,39 10,10 23,15 38,15 15,0 28,-5 38,-15zm48 42l-32 0 0 -25c-5,9 -13,15 -23,21 -10,5 -22,8 -34,8 -23,0 -42,-8 -59,-24 -16,-16 -24,-36 -24,-61 0,-25 8,-45 24,-61 16,-16 35,-24 59,-24 12,0 23,2 34,7 11,5 18,12 23,21l0 -24 32 0 0 163zm129 -166c25,0 46,9 62,26l-24 20c-10,-10 -23,-15 -38,-15 -15,0 -28,5 -39,15 -11,10 -16,23 -16,39 0,16 5,29 16,39 11,10 24,15 39,15 15,0 28,-5 38,-16l24 20c-16,17 -37,26 -61,26 -25,0 -46,-8 -63,-24 -17,-16 -25,-36 -25,-61 0,-25 8,-45 25,-61 17,-16 37,-24 62,-24zm246 3l-101 242 -33 0 34 -84 -65 -158 34 0 49 118 49 -118 34 0zm170 42c-10,10 -15,23 -15,40 0,17 5,30 16,39 11,9 23,14 38,14 15,0 27,-5 37,-15 10,-10 15,-22 15,-38 0,-16 -5,-29 -15,-39 -10,-10 -23,-15 -38,-15 -15,0 -28,5 -38,15zm-47 -42l32 0 0 26c5,-9 13,-16 23,-21 10,-5 21,-8 33,-8 23,0 42,8 58,24 16,16 24,36 24,61 0,25 -8,45 -23,61 -16,16 -35,23 -58,23 -12,0 -24,-2 -34,-7 -10,-5 -18,-12 -23,-20l0 103 -32 0 0 -242zm325 121c10,-10 15,-23 15,-39 0,-16 -5,-29 -15,-39 -10,-10 -23,-15 -38,-15 -15,0 -28,5 -38,15 -10,10 -16,23 -16,39 0,16 5,29 15,39 10,10 23,15 38,15 15,0 28,-5 38,-15zm-38 45c-24,0 -44,-8 -60,-24 -17,-16 -25,-36 -25,-61 0,-25 8,-46 24,-61 16,-16 36,-23 60,-23 24,0 44,8 61,24 16,16 25,36 25,61 0,25 -8,45 -25,61 -16,16 -37,24 -60,24zm127 -3l0 -251 32 0 0 251 -32 0zm84 -208c-4,-4 -6,-9 -6,-15 0,-6 2,-11 6,-15 5,-4 10,-6 16,-6 6,0 11,2 15,6 4,4 7,9 7,15 0,6 -2,11 -7,15 -4,4 -10,6 -15,6 -6,0 -11,-2 -16,-6zm31 208l-32 0 0 -163 32 0 0 163zm129 -166c25,0 46,9 62,26l-24 20c-10,-10 -23,-15 -38,-15 -15,0 -28,5 -39,15 -11,10 -16,23 -16,39 0,16 5,29 16,39 11,10 24,15 39,15 15,0 28,-5 38,-16l24 20c-16,17 -37,26 -61,26 -25,0 -46,-8 -63,-24 -17,-16 -25,-36 -25,-61 0,-25 8,-45 25,-61 17,-16 37,-24 62,-24zm246 3l-101 242 -33 0 34 -84 -65 -158 34 0 49 118 49 -118 34 0zm29 145c0,-6 2,-11 7,-16 4,-4 10,-6 16,-6 6,0 12,2 16,6 5,4 7,9 7,16 0,6 -2,11 -7,15 -5,4 -10,6 -16,6 -6,0 -11,-2 -16,-6 -4,-4 -7,-9 -7,-16z"/>
  <path class="fil5 str1" d="M5240 8306c-9,-798 4,-1383 4,-1383"/>
  <path class="fil13" d="M2633 13048l32 0c0,11 5,20 15,29 9,9 21,13 36,13 15,0 26,-3 34,-10 8,-6 13,-15 15,-25 2,-22 -12,-36 -41,-43l-31 -8c-39,-10 -58,-31 -58,-62 0,-20 8,-36 23,-48 15,-13 33,-19 55,-19 22,0 40,6 55,19 15,13 22,30 22,51l-32 0c0,-12 -4,-21 -13,-29 -9,-7 -19,-11 -31,-11 -12,0 -23,3 -33,10 -9,6 -13,15 -13,25 0,16 12,27 35,32l31 8c23,6 40,16 51,29 11,13 15,29 13,47 -2,19 -10,34 -25,46 -14,12 -33,18 -56,18 -23,0 -43,-7 -59,-21 -16,-15 -24,-32 -24,-51zm320 27c10,-10 16,-23 16,-39 0,-17 -5,-30 -16,-39 -11,-9 -24,-14 -38,-14 -15,0 -27,5 -37,15 -10,10 -15,22 -15,38 0,16 5,29 15,39 10,10 23,15 38,15 15,0 28,-5 38,-15zm48 42l-32 0 0 -25c-5,9 -13,15 -23,21 -10,5 -22,8 -34,8 -22,0 -42,-8 -58,-24 -16,-16 -24,-36 -24,-61 0,-25 8,-45 24,-61 16,-16 35,-24 59,-24 12,0 23,2 34,7 11,5 18,12 23,21l0 -24 32 0 0 162zm196 -87l0 87 -32 0 0 -92c0,-13 -3,-24 -10,-31 -6,-8 -15,-11 -27,-11 -12,0 -22,4 -31,12 -9,8 -13,20 -13,35l0 87 -32 0 0 -162 32 0 0 25c4,-8 10,-14 19,-19 9,-5 17,-8 25,-8 31,-2 52,9 62,33 11,-23 30,-34 56,-34 20,0 36,6 46,19 11,12 16,30 16,53l0 94 -32 0 0 -91c0,-13 -3,-24 -10,-31 -7,-8 -17,-12 -29,-12 -12,0 -22,4 -30,13 -8,9 -12,20 -12,35zm315 6c0,7 0,11 0,12l-132 0c2,13 7,24 17,33 10,8 20,12 32,12 23,0 40,-8 49,-25 0,0 1,0 1,0 0,0 1,1 2,1 1,1 3,1 5,2 2,1 4,2 5,2l13 5c-7,14 -17,24 -30,32 -13,7 -28,11 -44,11 -23,0 -43,-8 -60,-24 -16,-16 -24,-36 -24,-62 0,-25 8,-46 23,-61 16,-15 35,-23 59,-23 24,0 43,8 58,23 15,15 23,36 23,61zm-47 -44c-9,-8 -20,-12 -34,-12 -13,0 -25,4 -34,12 -9,8 -15,19 -17,32l101 0c-2,-13 -7,-24 -16,-32zm290 84c10,-10 16,-23 16,-39 0,-17 -5,-30 -16,-39 -11,-9 -24,-14 -38,-14 -15,0 -27,5 -37,15 -10,10 -15,22 -15,38 0,16 5,29 15,39 10,10 23,15 38,15 15,0 28,-5 38,-15zm48 42l-32 0 0 -25c-5,9 -13,15 -23,21 -10,5 -22,8 -34,8 -22,0 -42,-8 -58,-24 -16,-16 -24,-36 -24,-61 0,-25 8,-45 24,-61 16,-16 35,-24 59,-24 12,0 23,2 34,7 11,5 18,12 23,21l0 -24 32 0 0 162zm64 -154c11,-8 24,-12 39,-12 15,0 28,4 38,12 10,8 16,19 17,34l-30 0c-1,-5 -4,-9 -8,-13 -5,-3 -11,-5 -17,-5 -6,0 -11,1 -16,4 -5,2 -8,6 -9,11 -1,5 -1,9 1,12 3,5 9,9 19,12l24 6c28,7 42,23 42,47 0,15 -6,26 -18,36 -12,9 -27,13 -43,13 -17,0 -31,-5 -43,-14 -12,-10 -18,-22 -19,-38l30 0c1,8 6,15 13,19 7,4 15,6 23,6 8,0 15,-3 19,-7 5,-4 7,-9 8,-14 0,-6 -1,-10 -5,-14 -4,-3 -9,-6 -16,-7l-22 -5c-16,-4 -27,-10 -35,-19 -7,-9 -10,-19 -9,-32 1,-13 7,-23 18,-31zm333 42l-63 0 0 81 64 0c11,0 20,-4 28,-11 7,-8 11,-17 11,-28 0,-11 -4,-21 -11,-29 -7,-9 -17,-13 -28,-13zm-63 -98l0 69 58 0c10,0 18,-3 24,-10 6,-7 8,-16 8,-26 0,-10 -3,-19 -9,-24 -6,-6 -15,-9 -26,-9l-55 0zm122 32c0,26 -10,42 -29,50 13,3 23,10 30,22 8,12 12,24 12,36 0,19 -6,36 -19,49 -13,13 -30,20 -51,20l-97 0 0 -239 90 0c20,0 35,6 47,17 12,11 18,26 18,45zm57 -30c-4,-4 -6,-9 -6,-15 0,-6 2,-11 6,-15 5,-4 10,-6 16,-6 6,0 11,2 15,6 4,4 7,9 7,15 0,6 -2,11 -7,15 -4,4 -10,6 -15,6 -6,0 -11,-2 -16,-6zm31 207l-32 0 0 -162 32 0 0 162zm53 0l0 -251 32 0 0 251 -32 0zm84 0l0 -251 32 0 0 251 -32 0zm84 -207c-4,-4 -6,-9 -6,-15 0,-6 2,-11 6,-15 5,-4 10,-6 16,-6 6,0 11,2 15,6 4,4 7,9 7,15 0,6 -2,11 -7,15 -4,4 -10,6 -15,6 -6,0 -11,-2 -16,-6zm31 207l-32 0 0 -162 32 0 0 162zm84 -87l0 87 -32 0 0 -162 32 0 0 24c5,-9 12,-16 21,-21 9,-5 19,-7 30,-7 20,0 36,6 46,19 11,12 16,30 16,53l0 94 -32 0 0 -92c0,-14 -3,-24 -10,-32 -6,-8 -15,-12 -28,-12 -12,0 -23,4 -31,12 -9,8 -13,20 -13,35zm200 45c10,10 22,15 37,15 15,0 28,-5 38,-15 11,-10 16,-23 16,-39 0,-17 -5,-30 -16,-39 -10,-9 -23,-14 -38,-14 -15,0 -28,5 -38,15 -10,10 -15,23 -15,39 0,16 5,29 15,38zm35 93c38,0 58,-24 58,-73 0,0 0,-1 0,-2l0 -2c-5,9 -12,17 -23,22 -11,5 -22,8 -34,8 -23,0 -43,-8 -59,-23 -16,-16 -24,-36 -24,-61 0,-25 8,-46 24,-61 16,-16 36,-24 58,-24 12,0 24,3 34,8 10,5 18,12 23,21l0 -25 32 0 0 138c0,70 -30,106 -89,106 -16,0 -30,-4 -43,-11 -13,-8 -23,-19 -31,-33 1,0 6,-3 14,-7l13 -7c4,8 11,15 20,20 9,5 18,8 27,8zm344 -93c10,-10 16,-23 16,-39 0,-17 -5,-30 -16,-39 -11,-9 -24,-14 -38,-14 -15,0 -27,5 -37,15 -10,10 -15,22 -15,38 0,16 5,29 15,39 10,10 23,15 38,15 15,0 28,-5 38,-15zm48 42l-32 0 0 -25c-5,9 -13,15 -23,21 -10,5 -22,8 -34,8 -22,0 -42,-8 -58,-24 -16,-16 -24,-36 -24,-61 0,-25 8,-45 24,-61 16,-16 35,-24 59,-24 12,0 23,2 34,7 11,5 18,12 23,21l0 -24 32 0 0 162zm164 -42c11,-10 16,-23 16,-39 0,-16 -5,-29 -16,-39 -11,-9 -24,-14 -38,-14 -15,0 -27,5 -37,15 -10,10 -15,23 -15,39 0,16 5,29 15,39 10,10 23,15 37,15 15,0 28,-5 38,-15zm48 42l-32 0 0 -25c-5,9 -13,15 -23,21 -10,5 -22,8 -34,8 -23,0 -42,-8 -58,-24 -16,-16 -24,-36 -24,-61 0,-25 8,-45 23,-61 16,-16 35,-24 58,-24 13,0 24,2 34,7 10,5 18,12 23,21l0 -113 32 0 0 251zm165 -42c11,-10 16,-23 16,-39 0,-16 -5,-29 -16,-39 -11,-9 -24,-14 -38,-14 -15,0 -27,5 -37,15 -10,10 -15,23 -15,39 0,16 5,29 15,39 10,10 23,15 37,15 15,0 28,-5 38,-15zm48 42l-32 0 0 -25c-5,9 -13,15 -23,21 -10,5 -22,8 -34,8 -23,0 -42,-8 -58,-24 -16,-16 -24,-36 -24,-61 0,-25 8,-45 23,-61 16,-16 35,-24 58,-24 13,0 24,2 34,7 10,5 18,12 23,21l0 -113 32 0 0 251zm84 -59l0 59 -32 0 0 -162 32 0 0 37c8,-27 23,-40 45,-40 13,0 22,2 28,6l-5 30c-7,-4 -15,-6 -24,-6 -14,0 -25,7 -33,21 -8,14 -12,32 -12,56zm258 -23c0,7 0,11 0,12l-132 0c2,13 7,24 17,33 10,8 20,12 32,12 23,0 40,-8 49,-25 0,0 1,0 1,0 0,0 1,1 2,1 1,1 3,1 5,2 2,1 4,2 5,2l13 5c-7,14 -17,24 -30,32 -13,7 -28,11 -44,11 -23,0 -43,-8 -60,-24 -16,-16 -24,-36 -24,-62 0,-25 8,-46 23,-61 16,-15 35,-23 59,-23 24,0 43,8 58,23 15,15 23,36 23,61zm-47 -44c-9,-8 -20,-12 -34,-12 -13,0 -25,4 -34,12 -9,8 -15,19 -17,32l101 0c-2,-13 -7,-24 -16,-32zm99 -28c11,-8 24,-12 39,-12 15,0 28,4 38,12 10,8 16,19 17,34l-30 0c-1,-5 -4,-9 -8,-13 -5,-3 -11,-5 -17,-5 -6,0 -11,1 -16,4 -5,2 -8,6 -9,11 -1,5 -1,9 1,12 3,5 9,9 19,12l24 6c28,7 42,23 42,47 0,15 -6,26 -18,36 -12,9 -27,13 -43,13 -17,0 -31,-5 -43,-14 -12,-10 -18,-22 -19,-38l30 0c1,8 6,15 13,19 7,4 15,6 23,6 8,0 15,-3 19,-7 5,-4 7,-9 8,-14 0,-6 -1,-10 -5,-14 -4,-3 -9,-6 -16,-7l-22 -5c-16,-4 -27,-10 -35,-19 -7,-9 -10,-19 -9,-32 1,-13 7,-23 18,-31zm153 0c11,-8 24,-12 39,-12 15,0 28,4 38,12 10,8 16,19 17,34l-30 0c-1,-5 -4,-9 -8,-13 -5,-3 -11,-5 -17,-5 -6,0 -11,1 -16,4 -5,2 -8,6 -9,11 -1,5 -1,9 1,12 3,5 9,9 19,12l24 6c28,7 42,23 42,47 0,15 -6,26 -18,36 -12,9 -27,13 -43,13 -17,0 -31,-5 -43,-14 -12,-10 -18,-22 -19,-38l30 0c1,8 6,15 13,19 7,4 15,6 23,6 8,0 15,-3 19,-7 5,-4 7,-9 8,-14 0,-6 -1,-10 -5,-14 -4,-3 -9,-6 -16,-7l-22 -5c-16,-4 -27,-10 -35,-19 -7,-9 -10,-19 -9,-32 1,-13 7,-23 18,-31z"/>
  <path class="fil14" d="M1747 8595l-64 0 0 91 62 0c13,0 24,-4 31,-13 7,-8 11,-19 11,-32 0,-13 -3,-24 -10,-33 -7,-9 -17,-13 -30,-13zm-97 213l0 -243 97 0c24,0 42,7 54,22 12,14 18,32 18,54 0,22 -6,40 -18,54 -12,14 -30,22 -54,22l-64 0 0 91 -33 0zm240 -89l0 89 -32 0 0 -255 32 0 0 115c4,-9 12,-16 23,-21 11,-5 21,-7 31,-7 21,0 37,6 49,19 12,13 18,31 18,54l0 95 -32 0 0 -93c0,-14 -4,-24 -11,-32 -7,-8 -17,-12 -29,-12 -12,0 -24,4 -34,12 -10,8 -15,20 -15,36zm287 47c10,-10 15,-23 15,-40 0,-17 -5,-30 -15,-40 -10,-10 -23,-15 -39,-15 -15,0 -28,5 -39,15 -11,10 -16,23 -16,40 0,16 5,30 15,40 10,10 23,15 39,15 16,0 28,-5 39,-15zm-39 46c-24,0 -44,-8 -61,-24 -17,-16 -25,-37 -25,-62 0,-26 8,-46 25,-62 17,-16 37,-24 61,-24 24,0 45,8 62,24 17,16 25,37 25,62 0,25 -8,46 -25,62 -17,16 -37,24 -61,24zm161 -92l0 89 -32 0 0 -165 32 0 0 25c5,-9 12,-16 21,-21 9,-5 20,-7 30,-7 21,0 36,6 47,19 11,13 17,31 17,54l0 95 -32 0 0 -93c0,-14 -3,-25 -10,-32 -6,-8 -16,-12 -28,-12 -13,0 -23,4 -32,12 -9,8 -13,20 -13,36zm322 6c0,7 0,11 0,13l-134 0c2,13 7,24 18,33 10,8 21,12 33,12 24,0 41,-9 50,-26 0,0 1,0 1,0 0,0 1,1 2,1 1,1 3,1 5,2 2,1 4,2 5,2l13 5c-7,14 -17,25 -31,32 -14,8 -29,11 -45,11 -24,0 -44,-8 -61,-24 -16,-16 -24,-37 -24,-63 0,-26 8,-46 24,-62 16,-16 36,-23 60,-23 24,0 44,8 59,24 15,16 23,36 23,62zm-48 -45c-9,-8 -21,-12 -34,-12 -14,0 -25,4 -35,12 -10,8 -15,19 -17,33l102 0c-2,-13 -7,-24 -16,-33zm213 39l0 89 -32 0 0 -165 32 0 0 25c5,-9 12,-16 21,-21 9,-5 20,-7 30,-7 21,0 36,6 47,19 11,13 17,31 17,54l0 95 -32 0 0 -93c0,-14 -3,-25 -10,-32 -6,-8 -16,-12 -28,-12 -13,0 -23,4 -32,12 -9,8 -13,20 -13,36zm280 13l0 -89 32 0 0 165 -32 0 0 -25c-5,9 -12,16 -21,21 -9,5 -19,7 -30,7 -20,0 -36,-6 -47,-19 -11,-13 -16,-31 -16,-54l0 -96 32 0 0 93c0,14 3,25 9,32 6,8 16,12 29,12 13,0 23,-4 32,-12 9,-8 13,-20 13,-36zm231 -13l0 89 -32 0 0 -93c0,-14 -3,-24 -10,-32 -6,-8 -16,-12 -28,-12 -12,0 -22,4 -31,12 -9,8 -13,20 -13,36l0 89 -32 0 0 -165 32 0 0 25c4,-8 10,-14 19,-19 9,-5 18,-8 25,-8 32,-2 53,9 63,33 11,-23 30,-34 57,-34 21,0 36,6 47,19 11,13 17,31 17,54l0 95 -32 0 0 -93c0,-13 -3,-24 -10,-32 -7,-8 -17,-12 -29,-12 -12,0 -22,4 -30,13 -8,9 -12,20 -12,35zm214 -34c-11,10 -17,23 -17,40 0,17 5,30 16,40 11,10 23,15 39,15 15,0 28,-5 38,-16 10,-10 16,-23 16,-39 0,-16 -5,-29 -15,-39 -10,-10 -23,-15 -37,-15 -15,0 -28,5 -39,14zm-17 123l-32 0 0 -255 32 0 0 115c11,-19 31,-28 58,-28 24,0 44,8 60,24 16,16 24,36 24,62 0,25 -8,46 -25,62 -16,16 -36,24 -59,24 -12,0 -24,-3 -34,-8 -11,-5 -18,-12 -23,-21l0 25zm339 -83c0,7 0,11 0,13l-134 0c2,13 7,24 18,33 10,8 21,12 33,12 24,0 41,-9 50,-26 0,0 1,0 1,0 0,0 1,1 2,1 1,1 3,1 5,2 2,1 4,2 5,2l13 5c-7,14 -17,25 -31,32 -14,8 -29,11 -45,11 -24,0 -44,-8 -61,-24 -16,-16 -24,-37 -24,-63 0,-26 8,-46 24,-62 16,-16 36,-23 60,-23 24,0 44,8 59,24 15,16 23,36 23,62zm-48 -45c-9,-8 -21,-12 -34,-12 -14,0 -25,4 -35,12 -10,8 -15,19 -17,33l102 0c-2,-13 -7,-24 -16,-33zm121 68l0 60 -32 0 0 -165 32 0 0 37c8,-27 23,-41 46,-41 13,0 23,2 29,6l-5 30c-7,-4 -15,-6 -24,-6 -15,0 -26,7 -33,21 -8,14 -12,33 -12,57z"/>
  <path class="fil14" d="M1686 10151c-24,-24 -36,-54 -36,-88 0,-34 12,-64 36,-88 24,-24 54,-37 90,-37 36,0 66,14 89,41l-25 21c-18,-20 -41,-30 -66,-30 -26,0 -47,9 -65,27 -17,18 -26,40 -26,66 0,26 9,48 26,66 17,18 39,27 66,27 26,0 49,-10 66,-31l25 21c-24,28 -54,42 -90,42 -36,0 -66,-12 -90,-36zm329 -10c11,-10 16,-23 16,-40 0,-17 -6,-30 -17,-40 -11,-10 -24,-15 -39,-15 -15,0 -28,5 -38,15 -10,10 -15,23 -15,39 0,16 5,29 16,40 10,10 23,16 38,16 15,0 28,-5 39,-15zm48 43l-32 0 0 -25c-5,9 -13,16 -23,21 -10,5 -22,8 -34,8 -23,0 -43,-8 -59,-24 -16,-16 -24,-37 -24,-62 0,-25 8,-46 24,-62 16,-16 36,-24 60,-24 12,0 23,2 34,7 11,5 19,12 23,21l0 -25 32 0 0 165zm85 -60l0 60 -32 0 0 -165 32 0 0 37c8,-27 23,-41 46,-41 13,0 23,2 29,6l-5 30c-7,-4 -15,-6 -24,-6 -15,0 -26,7 -33,21 -8,14 -12,33 -12,57zm221 17c11,-10 16,-23 16,-40 0,-17 -6,-30 -17,-40 -11,-10 -24,-15 -39,-15 -15,0 -27,5 -38,15 -10,10 -15,23 -15,39 0,16 5,29 15,39 10,10 23,15 38,15 15,0 28,-5 39,-15zm49 43l-32 0 0 -25c-5,9 -13,16 -23,21 -10,5 -22,8 -34,8 -23,0 -43,-8 -59,-24 -16,-16 -24,-37 -24,-62 0,-25 8,-46 24,-62 16,-16 36,-24 59,-24 13,0 24,2 35,7 10,5 18,12 24,21l0 -115 32 0 0 255zm178 -89l0 89 -32 0 0 -165 32 0 0 25c5,-9 12,-16 21,-21 9,-5 20,-7 30,-7 21,0 36,6 47,19 11,13 17,31 17,54l0 95 -32 0 0 -93c0,-14 -3,-25 -10,-32 -6,-8 -16,-12 -28,-12 -13,0 -23,4 -32,12 -9,8 -13,20 -13,36zm280 13l0 -89 32 0 0 165 -32 0 0 -25c-5,9 -12,16 -21,21 -9,5 -19,7 -30,7 -20,0 -36,-6 -47,-19 -11,-13 -16,-31 -16,-54l0 -96 32 0 0 93c0,14 3,25 9,32 6,8 16,12 29,12 13,0 23,-4 32,-12 9,-8 13,-20 13,-36zm231 -13l0 89 -32 0 0 -93c0,-14 -3,-24 -10,-32 -6,-8 -16,-12 -28,-12 -12,0 -22,4 -31,12 -9,8 -13,20 -13,36l0 89 -32 0 0 -165 32 0 0 25c4,-8 10,-14 19,-19 9,-5 18,-8 25,-8 32,-2 53,9 63,33 11,-23 30,-34 57,-34 21,0 36,6 47,19 11,13 17,31 17,54l0 95 -32 0 0 -93c0,-13 -3,-24 -10,-32 -7,-8 -17,-12 -29,-12 -12,0 -22,4 -30,13 -8,9 -12,20 -12,35zm214 -34c-11,10 -17,23 -17,40 0,17 5,30 16,40 11,10 23,15 39,15 15,0 28,-5 38,-16 10,-10 16,-23 16,-39 0,-16 -5,-29 -15,-39 -10,-10 -23,-15 -37,-15 -15,0 -28,5 -39,14zm-17 123l-32 0 0 -255 32 0 0 115c11,-19 31,-28 58,-28 24,0 44,8 60,24 16,16 24,36 24,62 0,25 -8,46 -25,62 -16,16 -36,24 -59,24 -12,0 -24,-3 -34,-8 -11,-5 -18,-12 -23,-21l0 25zm339 -83c0,7 0,11 0,13l-134 0c2,13 7,24 18,33 10,8 21,12 33,12 24,0 41,-9 50,-26 0,0 1,0 1,0 0,0 1,1 2,1 1,1 3,1 5,2 2,1 4,2 5,2l13 5c-7,14 -17,25 -31,32 -14,8 -29,11 -45,11 -24,0 -44,-8 -61,-24 -16,-16 -24,-37 -24,-63 0,-26 8,-46 24,-62 16,-16 36,-23 60,-23 24,0 44,8 59,24 15,16 23,36 23,62zm-48 -45c-9,-8 -21,-12 -34,-12 -14,0 -25,4 -35,12 -10,8 -15,19 -17,33l102 0c-2,-13 -7,-24 -16,-33zm121 68l0 60 -32 0 0 -165 32 0 0 37c8,-27 23,-41 46,-41 13,0 23,2 29,6l-5 30c-7,-4 -15,-6 -24,-6 -15,0 -26,7 -33,21 -8,14 -12,33 -12,57z"/>
  <path class="fil14" d="M1650 11443l33 0c0,11 5,21 15,30 10,9 22,13 37,13 15,0 26,-3 35,-10 8,-7 13,-15 15,-26 2,-22 -12,-37 -41,-43l-31 -8c-40,-10 -59,-31 -59,-63 0,-20 8,-36 23,-49 15,-13 33,-19 56,-19 22,0 41,7 56,20 15,13 23,30 23,52l-33 0c0,-12 -4,-22 -13,-29 -9,-7 -19,-11 -32,-11 -13,0 -24,3 -33,10 -9,7 -13,15 -13,26 0,16 12,27 35,33l32 8c23,6 40,16 51,29 11,13 15,29 13,48 -2,19 -11,34 -25,47 -15,12 -34,18 -57,18 -23,0 -43,-7 -60,-22 -16,-15 -25,-32 -25,-52zm243 -19l0 89 -32 0 0 -255 32 0 0 115c4,-9 12,-16 23,-21 11,-5 21,-7 31,-7 21,0 37,6 49,19 12,13 18,31 18,54l0 95 -32 0 0 -93c0,-14 -4,-24 -11,-32 -7,-8 -17,-12 -29,-12 -12,0 -24,4 -34,12 -10,8 -15,20 -15,36zm173 -122c-4,-4 -6,-9 -6,-15 0,-6 2,-11 6,-15 5,-4 10,-6 16,-6 6,0 11,2 16,6 5,4 7,9 7,15 0,6 -2,11 -7,15 -4,4 -10,6 -16,6 -6,0 -11,-2 -16,-6zm32 211l-32 0 0 -165 32 0 0 165zm101 -122c-10,10 -15,24 -15,41 0,17 5,30 16,39 11,9 24,14 38,14 15,0 27,-5 38,-15 10,-10 15,-23 15,-39 0,-16 -5,-29 -16,-40 -10,-10 -23,-16 -38,-16 -15,0 -28,5 -38,15zm-48 -43l32 0 0 26c5,-9 13,-16 24,-21 10,-5 21,-8 34,-8 23,0 43,8 58,24 16,16 24,37 24,62 0,25 -8,46 -24,62 -16,16 -35,24 -59,24 -13,0 -24,-2 -34,-7 -10,-5 -18,-12 -23,-21l0 105 -32 0 0 -245zm263 43c-10,10 -15,24 -15,41 0,17 5,30 16,39 11,9 24,14 38,14 15,0 27,-5 38,-15 10,-10 15,-23 15,-39 0,-16 -5,-29 -16,-40 -10,-10 -23,-16 -38,-16 -15,0 -28,5 -38,15zm-48 -43l32 0 0 26c5,-9 13,-16 24,-21 10,-5 21,-8 34,-8 23,0 43,8 58,24 16,16 24,37 24,62 0,25 -8,46 -24,62 -16,16 -35,24 -59,24 -13,0 -24,-2 -34,-7 -10,-5 -18,-12 -23,-21l0 105 -32 0 0 -245zm215 -46c-4,-4 -6,-9 -6,-15 0,-6 2,-11 6,-15 5,-4 10,-6 16,-6 6,0 11,2 16,6 5,4 7,9 7,15 0,6 -2,11 -7,15 -4,4 -10,6 -16,6 -6,0 -11,-2 -16,-6zm32 211l-32 0 0 -165 32 0 0 165zm86 -89l0 89 -32 0 0 -165 32 0 0 25c5,-9 12,-16 21,-21 9,-5 20,-7 30,-7 21,0 36,6 47,19 11,13 17,31 17,54l0 95 -32 0 0 -93c0,-14 -3,-25 -10,-32 -6,-8 -16,-12 -28,-12 -13,0 -23,4 -32,12 -9,8 -13,20 -13,36zm204 46c10,10 23,15 38,15 15,0 28,-5 39,-15 11,-10 16,-23 16,-40 0,-17 -5,-30 -16,-40 -11,-10 -23,-14 -39,-14 -15,0 -28,5 -38,16 -10,10 -16,24 -16,40 0,16 5,29 15,39zm35 94c39,0 59,-25 59,-74 0,0 0,-1 0,-2l0 -2c-5,9 -12,17 -23,22 -11,5 -22,8 -35,8 -24,0 -44,-8 -60,-24 -16,-16 -24,-37 -24,-62 0,-26 8,-46 25,-62 16,-16 36,-24 59,-24 13,0 24,3 34,8 10,5 18,12 23,21l0 -26 32 0 0 140c0,72 -30,107 -91,107 -16,0 -30,-4 -43,-12 -13,-8 -23,-19 -31,-33 1,0 6,-3 14,-7l13 -7c4,8 11,15 20,20 9,5 18,8 28,8zm350 -94c11,-10 16,-23 16,-40 0,-17 -6,-30 -17,-40 -11,-10 -24,-15 -39,-15 -15,0 -28,5 -38,15 -10,10 -15,23 -15,39 0,16 5,29 16,40 10,10 23,16 38,16 15,0 28,-5 39,-15zm48 43l-32 0 0 -25c-5,9 -13,16 -23,21 -10,5 -22,8 -34,8 -23,0 -43,-8 -59,-24 -16,-16 -24,-37 -24,-62 0,-25 8,-46 24,-62 16,-16 36,-24 60,-24 12,0 23,2 34,7 11,5 19,12 23,21l0 -25 32 0 0 165zm167 -43c11,-10 16,-23 16,-40 0,-17 -6,-30 -17,-40 -11,-10 -24,-15 -39,-15 -15,0 -27,5 -38,15 -10,10 -15,23 -15,39 0,16 5,29 15,39 10,10 23,15 38,15 15,0 28,-5 39,-15zm49 43l-32 0 0 -25c-5,9 -13,16 -23,21 -10,5 -22,8 -34,8 -23,0 -43,-8 -59,-24 -16,-16 -24,-37 -24,-62 0,-25 8,-46 24,-62 16,-16 36,-24 59,-24 13,0 24,2 35,7 10,5 18,12 24,21l0 -115 32 0 0 255zm168 -43c11,-10 16,-23 16,-40 0,-17 -6,-30 -17,-40 -11,-10 -24,-15 -39,-15 -15,0 -27,5 -38,15 -10,10 -15,23 -15,39 0,16 5,29 15,39 10,10 23,15 38,15 15,0 28,-5 39,-15zm49 43l-32 0 0 -25c-5,9 -13,16 -23,21 -10,5 -22,8 -34,8 -23,0 -43,-8 -59,-24 -16,-16 -24,-37 -24,-62 0,-25 8,-46 24,-62 16,-16 36,-24 59,-24 13,0 24,2 35,7 10,5 18,12 24,21l0 -115 32 0 0 255zm86 -60l0 60 -32 0 0 -165 32 0 0 37c8,-27 23,-41 46,-41 13,0 23,2 29,6l-5 30c-7,-4 -15,-6 -24,-6 -15,0 -26,7 -33,21 -8,14 -12,33 -12,57zm263 -23c0,7 0,11 0,13l-134 0c2,13 7,24 18,33 10,8 21,12 33,12 24,0 41,-9 50,-26 0,0 1,0 1,0 0,0 1,1 2,1 1,1 3,1 5,2 2,1 4,2 5,2l13 5c-7,14 -17,25 -31,32 -14,8 -29,11 -45,11 -24,0 -44,-8 -61,-24 -16,-16 -24,-37 -24,-63 0,-26 8,-46 24,-62 16,-16 36,-23 60,-23 24,0 44,8 59,24 15,16 23,36 23,62zm-48 -45c-9,-8 -21,-12 -34,-12 -14,0 -25,4 -35,12 -10,8 -15,19 -17,33l102 0c-2,-13 -7,-24 -16,-33zm101 -28c11,-8 24,-12 40,-12 16,0 29,4 39,12 10,8 16,19 17,34l-31 0c-1,-5 -4,-10 -8,-13 -5,-3 -11,-5 -17,-5 -6,0 -12,1 -16,4 -5,2 -8,6 -9,11 -1,5 -1,9 1,12 3,5 9,9 19,12l24 6c29,7 43,23 43,48 0,15 -6,27 -19,36 -13,9 -27,13 -44,13 -17,0 -31,-5 -44,-15 -12,-10 -19,-22 -19,-39l30 0c1,9 6,15 13,19 7,5 15,7 23,6 8,0 15,-3 19,-7 5,-4 7,-9 8,-15 0,-6 -1,-10 -5,-14 -4,-3 -10,-6 -17,-8l-23 -5c-16,-4 -28,-11 -35,-19 -7,-9 -10,-20 -9,-33 1,-13 7,-24 18,-32zm155 0c11,-8 24,-12 40,-12 16,0 29,4 39,12 10,8 16,19 17,34l-31 0c-1,-5 -4,-10 -8,-13 -5,-3 -11,-5 -17,-5 -6,0 -12,1 -16,4 -5,2 -8,6 -9,11 -1,5 -1,9 1,12 3,5 9,9 19,12l24 6c29,7 43,23 43,48 0,15 -6,27 -19,36 -13,9 -27,13 -44,13 -17,0 -31,-5 -44,-15 -12,-10 -19,-22 -19,-39l30 0c1,9 6,15 13,19 7,5 15,7 23,6 8,0 15,-3 19,-7 5,-4 7,-9 8,-15 0,-6 -1,-10 -5,-14 -4,-3 -10,-6 -17,-8l-23 -5c-16,-4 -28,-11 -35,-19 -7,-9 -10,-20 -9,-33 1,-13 7,-24 18,-32z"/>
  <rect class="fil10" x="1630" y="6289" width="3786" height="364" rx="118" ry="118"/>
  <rect class="fil10" x="1632" y="7714" width="1792" height="364" rx="56" ry="118"/>
  <rect class="fil10" x="7035" y="7715" width="1792" height="364" rx="56" ry="118"/>
  <rect class="fil10" x="1655" y="9110" width="1792" height="364" rx="56" ry="118"/>
  <rect class="fil10" x="1635" y="10497" width="1652" height="364" rx="51" ry="118"/>
  <rect class="fil10" x="3477" y="10497" width="1652" height="364" rx="51" ry="118"/>
  <rect class="fil10" x="5320" y="10497" width="1652" height="364" rx="51" ry="118"/>
  <rect class="fil10" x="7162" y="10497" width="1652" height="364" rx="51" ry="118"/>
  <rect class="fil10" x="1635" y="11837" width="1792" height="364" rx="56" ry="118"/>
 </g>
</svg>
