<?xml version="1.0" encoding="UTF-8"?>
<!DOCTYPE svg PUBLIC "-//W3C//DTD SVG 1.1//EN" "http://www.w3.org/Graphics/SVG/1.1/DTD/svg11.dtd">
<!-- Creator: CorelDRAW X6 -->
<svg xmlns="http://www.w3.org/2000/svg" xml:space="preserve" width="207.879mm" height="187.958mm" version="1.1" style="shape-rendering:geometricPrecision; text-rendering:geometricPrecision; image-rendering:optimizeQuality; fill-rule:evenodd; clip-rule:evenodd"
viewBox="0 0 18512 16738"
 xmlns:xlink="http://www.w3.org/1999/xlink">
 <defs>
  <style type="text/css">
   <![CDATA[
    .str2 {stroke:#00C2FF;stroke-width:17.8105}
    .str1 {stroke:#3B9CFF;stroke-width:17.8105;stroke-opacity:0.168627}
    .str0 {stroke:#3B9CFF;stroke-width:37.696}
    .str4 {stroke:#00C2FF;stroke-width:75.4009}
    .str3 {stroke:#3B9CFF;stroke-width:6.78581;stroke-opacity:0.980392}
    .fil2 {fill:none}
    .fil6 {fill:none;fill-rule:nonzero}
    .fil9 {fill:#00C2FF}
    .fil10 {fill:#3B9CFF}
    .fil14 {fill:#95C9FF}
    .fil4 {fill:#D5F6FF}
    .fil1 {fill:#E6F2FE}
    .fil12 {fill:#FBD13E}
    .fil13 {fill:#FDE89E}
    .fil11 {fill:#FEB434}
    .fil3 {fill:#3B9CFF;fill-opacity:0.168627}
    .fil0 {fill:#C4E1FF;fill-opacity:0.231373}
    .fil7 {fill:#3B9CFF;fill-opacity:0.450980}
    .fil8 {fill:#B4DCFF;fill-opacity:0.450980}
    .fil5 {fill:#3B9CFF;fill-rule:nonzero;fill-opacity:0.980392}
   ]]>
  </style>
 </defs>
 <g id="Layer_x0020_1">
  <metadata id="CorelCorpID_0Corel-Layer"/>
  <g id="_747172432">
   <polygon class="fil0" points="9662,9446 9662,16738 2432,16738 "/>
   <polygon class="fil0" points="1774,8817 8957,8817 1774,16062 "/>
   <polygon class="fil0" points="9023,7921 1774,7921 1774,610 "/>
   <polygon class="fil0" points="2497,0 9662,0 9662,7226 "/>
   <path class="fil0" d="M16378 2838c1216,1368 2000,3136 2135,5083l-7175 0 5040 -5083z"/>
   <path class="fil0" d="M15713 2169l-5068 5112 0 -7261c1942,129 3704,919 5068,2149z"/>
   <ellipse class="fil1" cx="2409" cy="4116" rx="2404" ry="2386"/>
   <rect class="fil2 str0" x="3595" y="11143" width="9894" height="4823" rx="378" ry="378"/>
   <path class="fil3 str1" d="M3973 11143l9138 0c208,0 378,170 378,378l0 4067c0,208 -170,378 -378,378l-9138 0c-208,0 -378,-170 -378,-378l0 -4067c0,-208 170,-378 378,-378z"/>
   <rect class="fil4 str2" x="9" y="11794" width="7365" height="4378" rx="386" ry="386"/>
   <path class="fil5" d="M8727 12746l0 -53 305 0 0 53 -125 0 0 357 -55 0 0 -357 -125 0zm314 293c-13,-23 -20,-48 -20,-76 0,-28 7,-54 20,-76 13,-22 31,-39 53,-51 22,-12 46,-17 73,-17 26,0 51,6 73,17 22,12 39,28 53,51 13,22 20,47 20,76 0,28 -7,54 -20,76 -13,23 -31,40 -53,52 -22,12 -46,18 -72,18 -26,0 -50,-6 -72,-18 -22,-12 -40,-29 -53,-52zm34 -76c0,28 9,50 26,67 18,17 39,26 65,26 25,0 47,-9 65,-26 18,-17 26,-40 26,-67 0,-27 -9,-49 -26,-66 -18,-17 -39,-25 -65,-25 -26,0 -47,8 -65,25 -18,17 -26,39 -26,66zm276 -92l0 -46 50 0 0 -104 54 0 0 104 58 0 0 46 -58 0 0 232 -54 0 0 -232 -50 0zm202 93c0,-29 6,-54 19,-76 13,-22 30,-39 51,-51 21,-12 45,-17 70,-17 20,0 40,4 57,12 18,8 31,20 40,35l0 -42 54 0 0 278 -54 0 0 -43c-9,15 -22,27 -40,36 -18,9 -37,13 -57,13 -39,0 -72,-13 -100,-40 -27,-27 -41,-62 -41,-105zm55 0c0,27 9,49 26,66 17,17 39,26 64,26 26,0 48,-8 65,-25 18,-17 27,-39 27,-68 0,-19 -5,-36 -14,-50 -9,-14 -21,-25 -34,-31 -14,-7 -28,-10 -44,-10 -26,0 -47,8 -64,25 -17,17 -26,39 -26,66zm327 140l0 -429 54 0 0 429 -54 0zm279 -83l50 0c1,6 3,12 7,18 4,6 9,11 15,14 12,8 27,11 44,10 12,-1 23,-5 30,-12 8,-7 12,-15 12,-25 0,-10 -3,-17 -10,-23 -7,-6 -16,-10 -27,-13l-38 -9c-27,-7 -46,-18 -59,-32 -13,-14 -18,-34 -15,-58 2,-20 12,-37 31,-51 19,-14 41,-20 65,-20 12,0 23,1 34,4 10,3 20,7 29,13 9,6 16,14 22,24 6,10 9,22 10,36l-50 0c-1,-10 -6,-18 -14,-23 -8,-5 -18,-8 -29,-8 -10,0 -19,2 -27,7 -8,5 -13,11 -15,18 -2,9 -2,16 1,22 4,9 15,16 32,22l41 10c48,12 73,39 74,81 0,25 -11,45 -32,60 -21,15 -47,23 -77,23 -17,0 -33,-3 -49,-10 -15,-7 -28,-17 -39,-31 -10,-14 -16,-30 -16,-48zm263 -56c0,-29 6,-54 19,-76 13,-22 30,-39 51,-51 21,-12 45,-17 70,-17 20,0 40,4 57,12 18,8 31,20 40,35l0 -42 54 0 0 278 -54 0 0 -43c-9,15 -22,27 -40,36 -18,9 -37,13 -57,13 -39,0 -72,-13 -100,-40 -27,-27 -41,-62 -41,-105zm55 0c0,27 9,49 26,66 17,17 39,26 64,26 26,0 48,-8 65,-25 18,-17 27,-39 27,-68 0,-19 -5,-36 -14,-50 -9,-14 -21,-25 -34,-31 -14,-7 -28,-10 -44,-10 -26,0 -47,8 -64,25 -17,17 -26,39 -26,66zm327 140l0 -429 54 0 0 429 -54 0zm126 -140c0,-43 14,-78 41,-104 27,-26 61,-40 102,-40 40,0 73,13 99,40 26,26 39,61 39,104 0,10 0,17 -1,21l-225 0c3,23 13,41 30,55 16,14 36,21 60,21 17,0 32,-4 47,-11 14,-8 25,-18 33,-32 5,2 14,5 25,10 11,4 18,7 22,8 -12,24 -29,42 -52,55 -23,13 -48,19 -76,19 -40,0 -74,-13 -101,-40 -27,-27 -41,-62 -41,-105zm54 -21l172 0c-3,-23 -12,-41 -28,-54 -15,-13 -34,-20 -56,-20 -23,0 -43,7 -59,20 -16,13 -26,31 -29,54zm275 78l50 0c1,6 3,12 7,18 4,6 9,11 15,14 12,8 27,11 44,10 12,-1 23,-5 30,-12 8,-7 12,-15 12,-25 0,-10 -3,-17 -10,-23 -7,-6 -16,-10 -27,-13l-38 -9c-27,-7 -46,-18 -59,-32 -13,-14 -18,-34 -15,-58 2,-20 12,-37 31,-51 19,-14 41,-20 65,-20 12,0 23,1 34,4 10,3 20,7 29,13 9,6 16,14 22,24 6,10 9,22 10,36l-50 0c-1,-10 -6,-18 -14,-23 -8,-5 -18,-8 -29,-8 -10,0 -19,2 -27,7 -8,5 -13,11 -15,18 -2,9 -2,16 1,22 4,9 15,16 32,22l41 10c48,12 73,39 74,81 0,25 -11,45 -32,60 -21,15 -47,23 -77,23 -17,0 -33,-3 -49,-10 -15,-7 -28,-17 -39,-31 -10,-14 -16,-30 -16,-48z"/>
   <path id="1" class="fil6 str3" d="M8727 12746l0 -53 305 0 0 53 -125 0 0 357 -55 0 0 -357 -125 0zm314 293c-13,-23 -20,-48 -20,-76 0,-28 7,-54 20,-76 13,-22 31,-39 53,-51 22,-12 46,-17 73,-17 26,0 51,6 73,17 22,12 39,28 53,51 13,22 20,47 20,76 0,28 -7,54 -20,76 -13,23 -31,40 -53,52 -22,12 -46,18 -72,18 -26,0 -50,-6 -72,-18 -22,-12 -40,-29 -53,-52zm34 -76c0,28 9,50 26,67 18,17 39,26 65,26 25,0 47,-9 65,-26 18,-17 26,-40 26,-67 0,-27 -9,-49 -26,-66 -18,-17 -39,-25 -65,-25 -26,0 -47,8 -65,25 -18,17 -26,39 -26,66zm276 -92l0 -46 50 0 0 -104 54 0 0 104 58 0 0 46 -58 0 0 232 -54 0 0 -232 -50 0zm202 93c0,-29 6,-54 19,-76 13,-22 30,-39 51,-51 21,-12 45,-17 70,-17 20,0 40,4 57,12 18,8 31,20 40,35l0 -42 54 0 0 278 -54 0 0 -43c-9,15 -22,27 -40,36 -18,9 -37,13 -57,13 -39,0 -72,-13 -100,-40 -27,-27 -41,-62 -41,-105zm55 0c0,27 9,49 26,66 17,17 39,26 64,26 26,0 48,-8 65,-25 18,-17 27,-39 27,-68 0,-19 -5,-36 -14,-50 -9,-14 -21,-25 -34,-31 -14,-7 -28,-10 -44,-10 -26,0 -47,8 -64,25 -17,17 -26,39 -26,66zm327 140l0 -429 54 0 0 429 -54 0zm279 -83l50 0c1,6 3,12 7,18 4,6 9,11 15,14 12,8 27,11 44,10 12,-1 23,-5 30,-12 8,-7 12,-15 12,-25 0,-10 -3,-17 -10,-23 -7,-6 -16,-10 -27,-13l-38 -9c-27,-7 -46,-18 -59,-32 -13,-14 -18,-34 -15,-58 2,-20 12,-37 31,-51 19,-14 41,-20 65,-20 12,0 23,1 34,4 10,3 20,7 29,13 9,6 16,14 22,24 6,10 9,22 10,36l-50 0c-1,-10 -6,-18 -14,-23 -8,-5 -18,-8 -29,-8 -10,0 -19,2 -27,7 -8,5 -13,11 -15,18 -2,9 -2,16 1,22 4,9 15,16 32,22l41 10c48,12 73,39 74,81 0,25 -11,45 -32,60 -21,15 -47,23 -77,23 -17,0 -33,-3 -49,-10 -15,-7 -28,-17 -39,-31 -10,-14 -16,-30 -16,-48zm263 -56c0,-29 6,-54 19,-76 13,-22 30,-39 51,-51 21,-12 45,-17 70,-17 20,0 40,4 57,12 18,8 31,20 40,35l0 -42 54 0 0 278 -54 0 0 -43c-9,15 -22,27 -40,36 -18,9 -37,13 -57,13 -39,0 -72,-13 -100,-40 -27,-27 -41,-62 -41,-105zm55 0c0,27 9,49 26,66 17,17 39,26 64,26 26,0 48,-8 65,-25 18,-17 27,-39 27,-68 0,-19 -5,-36 -14,-50 -9,-14 -21,-25 -34,-31 -14,-7 -28,-10 -44,-10 -26,0 -47,8 -64,25 -17,17 -26,39 -26,66zm327 140l0 -429 54 0 0 429 -54 0zm126 -140c0,-43 14,-78 41,-104 27,-26 61,-40 102,-40 40,0 73,13 99,40 26,26 39,61 39,104 0,10 0,17 -1,21l-225 0c3,23 13,41 30,55 16,14 36,21 60,21 17,0 32,-4 47,-11 14,-8 25,-18 33,-32 5,2 14,5 25,10 11,4 18,7 22,8 -12,24 -29,42 -52,55 -23,13 -48,19 -76,19 -40,0 -74,-13 -101,-40 -27,-27 -41,-62 -41,-105zm54 -21l172 0c-3,-23 -12,-41 -28,-54 -15,-13 -34,-20 -56,-20 -23,0 -43,7 -59,20 -16,13 -26,31 -29,54zm275 78l50 0c1,6 3,12 7,18 4,6 9,11 15,14 12,8 27,11 44,10 12,-1 23,-5 30,-12 8,-7 12,-15 12,-25 0,-10 -3,-17 -10,-23 -7,-6 -16,-10 -27,-13l-38 -9c-27,-7 -46,-18 -59,-32 -13,-14 -18,-34 -15,-58 2,-20 12,-37 31,-51 19,-14 41,-20 65,-20 12,0 23,1 34,4 10,3 20,7 29,13 9,6 16,14 22,24 6,10 9,22 10,36l-50 0c-1,-10 -6,-18 -14,-23 -8,-5 -18,-8 -29,-8 -10,0 -19,2 -27,7 -8,5 -13,11 -15,18 -2,9 -2,16 1,22 4,9 15,16 32,22l41 10c48,12 73,39 74,81 0,25 -11,45 -32,60 -21,15 -47,23 -77,23 -17,0 -33,-3 -49,-10 -15,-7 -28,-17 -39,-31 -10,-14 -16,-30 -16,-48z"/>
   <path class="fil5" d="M8749 14149l0 -109 198 0 0 -203 114 0 0 203 198 0 0 109 -198 0 0 205 -114 0 0 -205 -198 0zm610 105l455 -651 86 0 0 546 118 0 0 105 -118 0 0 168 -114 0 0 -168 -427 0zm192 -105l235 0 0 -342 -235 342zm588 18c0,-45 11,-87 33,-126 22,-39 53,-70 92,-93 -41,-39 -61,-87 -61,-145 0,-58 21,-107 63,-148 42,-40 94,-60 157,-60 62,0 115,20 157,61 42,41 64,90 64,147 0,28 -6,55 -17,80 -12,25 -28,47 -48,65 40,24 71,55 93,94 22,38 34,80 34,126 0,75 -27,138 -82,190 -54,52 -121,78 -201,78 -81,0 -148,-26 -202,-77 -54,-52 -81,-115 -81,-190zm114 0c0,44 16,81 49,111 33,30 73,45 120,45 47,0 87,-15 120,-45 32,-30 49,-67 49,-110 0,-43 -16,-81 -49,-111 -32,-31 -72,-47 -120,-47l-9 0c-45,1 -83,17 -114,48 -31,31 -46,68 -46,110zm95 -433c-20,19 -31,42 -31,69 0,27 9,50 28,70 19,19 42,30 71,31l10 0c29,-1 54,-12 73,-31 19,-19 29,-43 29,-70 0,-27 -10,-50 -31,-69 -21,-19 -46,-28 -76,-28 -29,0 -54,9 -75,28zm473 12c0,-47 16,-87 48,-120 32,-33 72,-49 119,-49 46,0 86,17 119,49 33,33 49,73 49,120 0,47 -16,87 -49,119 -33,32 -72,49 -119,49 -47,0 -87,-16 -119,-48 -32,-32 -48,-72 -48,-120zm88 0c0,23 8,42 22,57 15,15 34,22 57,22 23,0 41,-8 57,-23 15,-15 23,-34 23,-56 0,-22 -8,-41 -24,-57 -16,-16 -35,-24 -57,-24 -22,0 -41,8 -56,23 -15,16 -23,35 -23,57zm37 676l412 -846 83 0 -412 846 -83 0zm302 -154c0,-47 16,-87 48,-120 32,-33 72,-49 119,-49 47,0 86,17 119,49 33,33 49,73 49,120 0,47 -16,86 -49,118 -33,32 -72,48 -119,48 -47,0 -87,-16 -119,-48 -32,-32 -48,-71 -48,-118zm88 -1c0,23 8,41 23,56 15,15 34,22 56,22 23,0 41,-8 57,-22 15,-15 23,-33 23,-55 0,-22 -8,-40 -24,-56 -16,-15 -35,-23 -57,-23 -22,0 -41,8 -56,23 -15,15 -23,34 -23,56z"/>
   <path id="1" class="fil6 str3" d="M8749 14149l0 -109 198 0 0 -203 114 0 0 203 198 0 0 109 -198 0 0 205 -114 0 0 -205 -198 0zm610 105l455 -651 86 0 0 546 118 0 0 105 -118 0 0 168 -114 0 0 -168 -427 0zm192 -105l235 0 0 -342 -235 342zm588 18c0,-45 11,-87 33,-126 22,-39 53,-70 92,-93 -41,-39 -61,-87 -61,-145 0,-58 21,-107 63,-148 42,-40 94,-60 157,-60 62,0 115,20 157,61 42,41 64,90 64,147 0,28 -6,55 -17,80 -12,25 -28,47 -48,65 40,24 71,55 93,94 22,38 34,80 34,126 0,75 -27,138 -82,190 -54,52 -121,78 -201,78 -81,0 -148,-26 -202,-77 -54,-52 -81,-115 -81,-190zm114 0c0,44 16,81 49,111 33,30 73,45 120,45 47,0 87,-15 120,-45 32,-30 49,-67 49,-110 0,-43 -16,-81 -49,-111 -32,-31 -72,-47 -120,-47l-9 0c-45,1 -83,17 -114,48 -31,31 -46,68 -46,110zm95 -433c-20,19 -31,42 -31,69 0,27 9,50 28,70 19,19 42,30 71,31l10 0c29,-1 54,-12 73,-31 19,-19 29,-43 29,-70 0,-27 -10,-50 -31,-69 -21,-19 -46,-28 -76,-28 -29,0 -54,9 -75,28zm473 12c0,-47 16,-87 48,-120 32,-33 72,-49 119,-49 46,0 86,17 119,49 33,33 49,73 49,120 0,47 -16,87 -49,119 -33,32 -72,49 -119,49 -47,0 -87,-16 -119,-48 -32,-32 -48,-72 -48,-120zm88 0c0,23 8,42 22,57 15,15 34,22 57,22 23,0 41,-8 57,-23 15,-15 23,-34 23,-56 0,-22 -8,-41 -24,-57 -16,-16 -35,-24 -57,-24 -22,0 -41,8 -56,23 -15,16 -23,35 -23,57zm37 676l412 -846 83 0 -412 846 -83 0zm302 -154c0,-47 16,-87 48,-120 32,-33 72,-49 119,-49 47,0 86,17 119,49 33,33 49,73 49,120 0,47 -16,86 -49,118 -33,32 -72,48 -119,48 -47,0 -87,-16 -119,-48 -32,-32 -48,-71 -48,-118zm88 -1c0,23 8,41 23,56 15,15 34,22 56,22 23,0 41,-8 57,-22 15,-15 23,-33 23,-55 0,-22 -8,-40 -24,-56 -16,-15 -35,-23 -57,-23 -22,0 -41,8 -56,23 -15,15 -23,34 -23,56z"/>
   <path class="fil7" d="M11152 5766l-39 172 -3401 777c-98,34 -151,119 -154,258l29 3654c-17,107 23,131 104,96l3435 -1314 406 100 -3756 1430c-92,52 -478,-58 -504,-188l-42 -3831c-7,-184 86,-293 263,-338l3659 -817z"/>
   <polygon class="fil7" points="15957,8299 16638,8443 16639,8610 15945,8431 "/>
   <path class="fil7" d="M16396 6458l-3775 1086c-300,62 -429,219 -379,475l-63 4015c9,231 448,342 588,263l3981 -1909c157,-42 220,-172 238,-342l-23 -3394c-26,-172 -202,-245 -567,-194zm223 150l-3767 1088c-161,68 -240,182 -223,350l-85 4029 3995 -1889c83,-31 109,-123 115,-238l-34 -3341z"/>
   <path class="fil8" d="M15801 8902l-496 62c127,-256 151,-539 108,-838 60,-1 93,-45 100,-132l169 -1114 550 -159c-110,736 -225,1427 -351,2029l-29 110 -51 43zm-84 -2248l326 -2142 61 -253 46 -63 55 -45 76 -10 98 1 108 8 67 0 27 18 -1 92 -31 162c-93,705 -186,1407 -284,2075l-549 158z"/>
   <path class="fil7" d="M16581 4168l-59 -75 -163 -79 -200 -50 -254 -54c-1341,-241 -2682,-393 -4023,-434l-167 38 -171 108 -75 196 -96 329c-54,621 -122,1227 -254,1759l-231 1183c839,99 1591,203 2231,312l2604 -749 365 -2327c23,-108 79,-162 155,-179l338 22zm-2997 3317c1015,195 1668,406 1829,640 69,-4 107,-63 108,-189l166 -1060 -2104 608z"/>
   <path class="fil8" d="M7573 7538l90 -67 292 -108 513 -96 696 -104 675 -42 517 -29 484 8 96 -21c789,103 1536,210 2185,321l-500 144c-300,62 -429,219 -379,475l-8 507 -6 1 -4655 -990zm6012 -53c992,191 1683,399 1828,641 50,302 8,580 -108,838l-2681 467 -25 16 30 -1399c-16,-168 62,-282 223,-350l733 -212z"/>
   <polygon class="fil7" points="7569,8530 7562,7552 7619,7538 8438,7723 12228,8528 12226,8987 12215,9679 "/>
   <polygon class="fil9" points="2472,4294 2472,5595 1183,5595 "/>
   <polygon class="fil10" points="1065,4182 2347,4182 1065,5475 "/>
   <polygon class="fil9" points="2358,4023 1065,4023 1065,2718 "/>
   <polygon class="fil10" points="1194,2609 2472,2609 2472,3899 "/>
   <path class="fil11" d="M3670 3116c217,244 357,559 381,907l-1280 0 899 -907z"/>
   <path class="fil12" d="M3552 2996l-904 912 0 -1295c346,23 661,164 904,383z"/>
   <g>
    <polyline class="fil2 str4" points="562,14046 1259,13602 1464,13507 2112,13462 2820,12760 3004,12789 3677,13926 4440,13876 5088,13378 5312,13378 5977,13861 6685,12508 "/>
    <rect class="fil12" x="1219" y="13427" width="268" height="263"/>
    <rect class="fil11" x="2783" y="12556" width="268" height="263"/>
    <rect class="fil12" x="5064" y="13165" width="268" height="263"/>
    <rect class="fil11" x="6616" y="12297" width="268" height="263"/>
    <rect class="fil13" x="499" y="14591" width="1715" height="239" rx="65" ry="65"/>
    <rect class="fil14" x="499" y="15010" width="1715" height="239" rx="65" ry="65"/>
    <rect class="fil14" x="499" y="15429" width="1206" height="239" rx="65" ry="65"/>
   </g>
  </g>
 </g>
</svg>
