<svg width="40" height="40" viewBox="0 0 40 40" fill="none" xmlns="http://www.w3.org/2000/svg">
<rect width="40" height="40" rx="6" fill="#13ECAB"/>
<path d="M25 21V24H27V21H30V19H27V16H25V19H22V21H25Z" fill="#C834F7"/>
<path d="M11 26C11 23.7909 12.7909 22 15 22H19C21.2091 22 23 23.7909 23 26V29H11V26Z" fill="#C834F7"/>
<path fill-rule="evenodd" clip-rule="evenodd" d="M21.5 15.5C21.5 13.0147 19.4853 11 17 11C14.5147 11 12.5 13.0147 12.5 15.5C12.5 17.9853 14.5147 20 17 20C19.4853 20 21.5 17.9853 21.5 15.5Z" fill="url(#paint0_linear)"/>
<defs>
<linearGradient id="paint0_linear" x1="17" y1="20" x2="17" y2="11" gradientUnits="userSpaceOnUse">
<stop stop-color="#4C57FF"/>
<stop offset="1" stop-color="#4C57FF"/>
</linearGradient>
</defs>
</svg>
