<?xml version="1.0" encoding="UTF-8"?>
<!DOCTYPE svg PUBLIC "-//W3C//DTD SVG 1.1//EN" "http://www.w3.org/Graphics/SVG/1.1/DTD/svg11.dtd">
<!-- Creator: CorelDRAW X6 -->
<svg xmlns="http://www.w3.org/2000/svg" xml:space="preserve" width="112.68mm" height="200mm" version="1.1" style="shape-rendering:geometricPrecision; text-rendering:geometricPrecision; image-rendering:optimizeQuality; fill-rule:evenodd; clip-rule:evenodd"
viewBox="0 0 12024 21341"
 xmlns:xlink="http://www.w3.org/1999/xlink">
 <defs>
  <style type="text/css">
   <![CDATA[
    .str1 {stroke:#D5F6FF;stroke-width:21.3411}
    .str3 {stroke:#3B9CFF;stroke-width:36.1412;stroke-opacity:0.301961}
    .str2 {stroke:#00C2FF;stroke-width:45.1685}
    .str0 {stroke:#D5F6FF;stroke-width:72.2717}
    .fil8 {fill:none}
    .fil3 {fill:none}
    .fil14 {fill:none}
    .fil1 {fill:none}
    .fil11 {fill:#e8f4ff}
    .fil15 {fill:#3B9CFF;fill-rule:nonzero}
    .fil13 {fill:#6BB5FF;fill-opacity:0.109804}
    .fil10 {fill:#95C9FF;fill-opacity:0.188235}
    .fil4 {fill:#FFFFFF;fill-opacity:1}
    .fil0 {fill:#FFFFFF;fill-opacity:0.99}
    .fil6 {fill:#00C2FF;fill-rule:nonzero;fill-opacity:0.980392}
    .fil5 {fill:#3B9CFF;fill-rule:nonzero;fill-opacity:0.980392}
    .fil7 {fill:#95C9FF;fill-rule:nonzero;fill-opacity:0.980392}
    .fil18 {fill:#95C9FF}
    .fil17 {fill:#B4DCFF}
    .fil16 {fill:#C4E1FF}
    .fil12 {fill:#D5F6FF}
    .fil2 {fill:none}
    .fil9 {fill:#3B9CFF;fill-rule:nonzero}
   ]]>
  </style>
 </defs>
 <g id="Layer_x0020_1">
  <metadata id="CorelCorpID_0Corel-Layer"/>
  <g id="_1018777872">
   <path class="fil0" d="M1082 6338l9859 0 0 7251 -9844 0 0 417 9844 0 0 4525c28,1085 -379,1744 -1550,1659l-7210 -18c-819,-61 -1106,-573 -1093,-1694l-6 -12140z"/>
   <path class="fil1 str0" d="M6539 4418l3944 0c226,0 411,159 411,353l0 425c0,194 -185,353 -411,353l-3944 0c-226,0 -411,-159 -411,-353l0 -425c0,-194 185,-353 411,-353z"/>
   <path class="fil2" d="M2440 1104c-1135,-67 -1319,282 -1359,1144l1 1368 9861 0 0 -1252c-15,-1019 -380,-1315 -1330,-1308l-826 813 -5476 22 -870 -788z"/>
   <path class="fil3" d="M8760 1869l819 -805c9,0 17,0 25,0l-819 805 -25 0z"/>
   <path class="fil3" d="M1047 2255c30,-643 140,-1001 665,-1113 -496,120 -602,476 -632,1106l1 1368 9827 0 0 2297 -9859 0 -2 -3657z"/>
   <path class="fil4" d="M9814 20524l-7331 37c-1568,39 -1773,-728 -1735,-2158l7 -16528c81,-594 368,-959 888,-1062l903 0c263,104 369,775 1097,773l4815 1c718,-144 649,-726 1139,-782l799 22c543,78 828,614 836,1231l10 16946c1,917 -398,1516 -1429,1521zm-8227 -20524c-985,156 -1560,791 -1538,2122l-49 17189c-30,1360 759,1962 2123,2030l7977 -7c1067,23 1726,-479 1877,-1632l46 -17646c-24,-1178 -983,-2060 -2113,-2053l-8323 -3z"/>
   <path class="fil5" d="M3786 2533l-103 0 0 146 100 0c22,0 38,-7 50,-20 11,-13 17,-31 18,-52 0,-21 -5,-39 -16,-53 -11,-14 -27,-21 -48,-21zm-156 342l0 -392 156 0c39,0 68,12 87,36 20,23 30,52 30,87 0,35 -10,64 -29,87 -20,23 -49,35 -87,35l-103 0 0 147 -53 0zm386 -97l0 97 -52 0 0 -266 52 0 0 60c13,-44 38,-66 74,-66 21,0 36,3 46,10l-8 49c-12,-6 -25,-9 -39,-9 -23,0 -41,11 -54,34 -13,22 -19,53 -19,92zm356 28c17,-16 25,-38 25,-64 0,-27 -8,-48 -25,-64 -17,-16 -37,-24 -62,-24 -25,0 -45,8 -62,24 -17,16 -25,37 -25,64 0,26 8,48 25,64 17,17 37,25 62,25 25,0 46,-8 62,-25zm-62 74c-39,0 -71,-13 -99,-38 -27,-26 -41,-59 -41,-100 0,-41 13,-75 40,-100 27,-26 60,-38 99,-38 39,0 72,13 99,38 27,26 40,59 40,100 0,41 -13,74 -40,100 -27,26 -60,39 -98,39zm333 -277c41,0 75,14 101,43l-39 33c-17,-17 -37,-25 -62,-25 -25,0 -46,8 -64,24 -18,16 -26,37 -26,64 0,26 9,48 27,64 18,17 39,25 64,25 25,0 46,-9 62,-26l40 33c-26,28 -60,43 -100,43 -40,0 -75,-13 -102,-38 -28,-26 -42,-59 -42,-100 0,-41 14,-74 41,-100 27,-26 61,-38 102,-39zm416 138c0,12 0,18 -1,20l-216 0c3,21 12,39 28,53 16,13 33,20 53,20 38,0 65,-14 81,-41 0,0 1,0 2,0 1,0 2,1 4,2 2,1 5,2 9,3 4,1 7,2 8,3l22 8c-11,22 -27,40 -49,52 -22,12 -46,18 -73,18 -38,0 -70,-13 -97,-38 -26,-26 -38,-59 -38,-101 0,-42 13,-75 38,-100 26,-25 58,-38 97,-38 39,0 71,13 95,38 25,25 37,58 37,100zm-78 -73c-15,-13 -33,-19 -55,-19 -22,0 -41,6 -56,19 -16,14 -25,31 -27,53l165 0c-3,-21 -11,-39 -26,-53zm162 -46c18,-13 39,-19 64,-19 25,0 46,6 62,19 16,13 26,31 28,55l-49 0c-2,-9 -6,-16 -14,-21 -8,-5 -18,-8 -28,-8 -10,0 -19,2 -26,7 -8,3 -12,9 -14,18 -2,8 -2,15 1,20 4,9 15,15 31,20l39 10c46,11 69,37 69,78 0,24 -10,43 -30,58 -20,14 -44,21 -71,21 -27,0 -51,-8 -71,-23 -20,-16 -30,-36 -31,-62l49 0c2,14 9,24 21,30 12,7 24,11 38,10 13,-1 24,-4 31,-11 7,-7 12,-14 13,-24 1,-9 -2,-17 -9,-22 -6,-6 -15,-10 -27,-12l-36 -8c-26,-7 -45,-17 -57,-31 -12,-14 -16,-32 -14,-53 2,-21 12,-38 29,-51zm250 0c18,-13 39,-19 64,-19 25,0 46,6 62,19 16,13 26,31 28,55l-49 0c-2,-9 -6,-16 -14,-21 -8,-5 -18,-8 -28,-8 -10,0 -19,2 -26,7 -8,3 -12,9 -14,18 -2,8 -2,15 1,20 4,9 15,15 31,20l39 10c46,11 69,37 69,78 0,24 -10,43 -30,58 -20,14 -44,21 -71,21 -27,0 -51,-8 -71,-23 -20,-16 -30,-36 -31,-62l49 0c2,14 9,24 21,30 12,7 24,11 38,10 13,-1 24,-4 31,-11 7,-7 12,-14 13,-24 1,-9 -2,-17 -9,-22 -6,-6 -15,-10 -27,-12l-36 -8c-26,-7 -45,-17 -57,-31 -12,-14 -16,-32 -14,-53 2,-21 12,-38 29,-51zm231 -88c-7,-7 -10,-15 -10,-24 0,-9 3,-17 10,-24 7,-6 16,-10 26,-10 10,0 18,3 25,9 7,6 11,14 11,24 0,10 -4,18 -11,24 -7,6 -16,9 -25,9 -10,0 -18,-3 -26,-10zm51 340l-52 0 0 -266 52 0 0 266zm138 -143l0 143 -52 0 0 -266 52 0 0 40c8,-15 19,-26 34,-34 15,-8 31,-12 49,-12 33,0 58,10 75,31 18,20 27,49 27,87l0 154 -52 0 0 -150c0,-22 -5,-40 -16,-52 -10,-13 -25,-19 -45,-19 -20,0 -37,7 -51,20 -14,13 -21,32 -21,58zm328 74c16,16 37,24 61,24 24,0 45,-8 63,-24 18,-16 26,-37 26,-64 0,-27 -9,-48 -26,-64 -17,-16 -38,-23 -62,-23 -24,0 -45,8 -62,25 -17,17 -25,38 -25,64 0,26 8,47 24,63zm57 152c63,0 95,-40 95,-120 0,-1 0,-2 -1,-3l0 -4c-8,15 -20,27 -38,36 -17,9 -36,13 -56,13 -38,0 -70,-13 -96,-38 -26,-25 -39,-59 -39,-100 0,-41 13,-75 40,-100 26,-26 58,-38 95,-39 20,0 39,4 56,13 17,8 29,19 38,34l0 -42 52 0 0 225c0,115 -49,173 -146,173 -25,0 -49,-6 -70,-19 -21,-13 -38,-31 -50,-53 2,0 9,-4 23,-12l20 -11c7,14 18,24 32,33 14,8 29,12 45,12zm562 -151c17,-16 25,-38 25,-64 0,-27 -8,-48 -25,-64 -17,-16 -37,-24 -62,-24 -25,0 -45,8 -62,24 -17,16 -25,37 -25,64 0,26 8,48 25,64 17,17 37,25 62,25 25,0 46,-8 62,-25zm-62 74c-39,0 -71,-13 -99,-38 -27,-26 -41,-59 -41,-100 0,-41 13,-75 40,-100 27,-26 60,-38 99,-38 39,0 72,13 99,38 27,26 40,59 40,100 0,41 -13,74 -40,100 -27,26 -60,39 -98,39zm259 -102l0 97 -52 0 0 -266 52 0 0 60c13,-44 38,-66 74,-66 21,0 36,3 46,10l-8 49c-12,-6 -25,-9 -39,-9 -23,0 -41,11 -54,34 -13,22 -19,53 -19,92zm356 27c17,-16 26,-38 26,-64 0,-27 -9,-48 -27,-64 -18,-16 -39,-23 -63,-24 -24,0 -44,8 -60,24 -16,16 -24,37 -24,63 0,26 8,47 25,64 16,16 37,25 61,25 24,0 45,-8 62,-24zm78 69l-52 0 0 -41c-8,14 -21,25 -38,34 -17,9 -35,13 -56,13 -37,0 -69,-13 -96,-39 -26,-26 -39,-59 -39,-100 0,-41 13,-74 38,-100 26,-26 57,-38 95,-39 20,0 39,4 56,12 17,8 29,19 38,34l0 -184 52 0 0 410zm337 -134c0,12 0,18 -1,20l-216 0c3,21 12,39 28,53 16,13 33,20 53,20 38,0 65,-14 81,-41 0,0 1,0 2,0 1,0 2,1 4,2 2,1 5,2 9,3 4,1 7,2 8,3l22 8c-11,22 -27,40 -49,52 -22,12 -46,18 -73,18 -38,0 -70,-13 -97,-38 -26,-26 -38,-59 -38,-101 0,-42 13,-75 38,-100 26,-25 58,-38 97,-38 39,0 71,13 95,38 25,25 37,58 37,100zm-78 -73c-15,-13 -33,-19 -55,-19 -22,0 -41,6 -56,19 -16,14 -25,31 -27,53l165 0c-3,-21 -11,-39 -26,-53zm195 110l0 97 -52 0 0 -266 52 0 0 60c13,-44 38,-66 74,-66 21,0 36,3 46,10l-8 49c-12,-6 -25,-9 -39,-9 -23,0 -41,11 -54,34 -13,22 -19,53 -19,92zm168 67c0,-10 4,-18 11,-25 7,-7 16,-11 26,-11 10,0 19,3 27,10 7,7 11,15 11,26 0,10 -4,19 -11,25 -8,7 -16,10 -26,10 -10,0 -19,-3 -26,-10 -7,-7 -11,-15 -11,-26zm151 0c0,-10 4,-18 11,-25 7,-7 16,-11 26,-11 10,0 19,3 27,10 7,7 11,15 11,26 0,10 -4,19 -11,25 -8,7 -16,10 -26,10 -10,0 -19,-3 -26,-10 -7,-7 -11,-15 -11,-26zm151 0c0,-10 4,-18 11,-25 7,-7 16,-11 26,-11 10,0 19,3 27,10 7,7 11,15 11,26 0,10 -4,19 -11,25 -8,7 -16,10 -26,10 -10,0 -19,-3 -26,-10 -7,-7 -11,-15 -11,-26z"/>
   <path class="fil6" d="M2161 18618l0 271 92 0c37,0 65,-13 85,-38 20,-25 30,-58 30,-97 0,-40 -10,-72 -30,-98 -19,-26 -47,-39 -84,-39l-92 0zm92 317l-141 0 0 -363 141 0c50,0 90,17 119,51 29,34 44,78 44,130 0,53 -15,96 -44,130 -29,34 -69,51 -120,51zm463 -124c0,11 0,17 -1,19l-200 0c2,20 11,36 26,49 15,12 31,18 49,18 36,0 60,-13 75,-38 0,0 1,0 2,0 1,0 2,1 4,2 2,1 5,2 8,3 3,1 6,2 8,3l20 7c-10,21 -25,37 -46,48 -20,11 -43,17 -67,17 -35,0 -65,-12 -90,-36 -24,-24 -36,-55 -36,-93 0,-38 12,-69 35,-93 24,-23 54,-35 90,-35 36,0 66,12 88,35 23,23 35,54 35,92zm-72 -67c-14,-12 -31,-18 -51,-18 -20,0 -38,6 -52,18 -14,13 -23,29 -25,49l153 0c-2,-20 -10,-36 -24,-49zm249 -60c38,0 69,13 93,40l-37 30c-15,-15 -35,-23 -58,-23 -23,0 -43,7 -59,22 -16,15 -24,34 -24,59 0,24 8,44 25,60 17,15 36,23 59,23 23,0 42,-8 57,-24l37 31c-25,26 -56,40 -93,40 -37,0 -69,-12 -95,-36 -26,-24 -39,-55 -39,-93 0,-38 13,-69 38,-92 25,-24 57,-36 95,-36zm154 251l0 -380 48 0 0 380 -48 0zm128 -315c-6,-6 -9,-13 -9,-22 0,-9 3,-16 9,-22 7,-6 15,-9 24,-9 9,0 17,3 23,9 7,6 10,13 10,22 0,9 -3,17 -10,22 -7,6 -14,9 -23,9 -9,0 -17,-3 -24,-9zm48 315l-48 0 0 -246 48 0 0 246zm128 -133l0 133 -48 0 0 -246 48 0 0 37c7,-14 18,-24 32,-31 14,-7 29,-11 45,-11 31,0 54,9 70,29 16,19 25,46 25,81l0 142 -48 0 0 -139c0,-21 -5,-37 -15,-48 -9,-12 -23,-17 -42,-17 -19,0 -35,6 -48,18 -13,12 -20,30 -20,53zm481 9c0,11 0,17 -1,19l-200 0c2,20 11,36 26,49 15,12 31,18 49,18 36,0 60,-13 75,-38 0,0 1,0 2,0 1,0 2,1 4,2 2,1 5,2 8,3 3,1 6,2 8,3l20 7c-10,21 -25,37 -46,48 -20,11 -43,17 -67,17 -35,0 -65,-12 -90,-36 -24,-24 -36,-55 -36,-93 0,-38 12,-69 35,-93 24,-23 54,-35 90,-35 36,0 66,12 88,35 23,23 35,54 35,92zm-72 -67c-14,-12 -31,-18 -51,-18 -20,0 -38,6 -52,18 -14,13 -23,29 -25,49l153 0c-2,-20 -10,-36 -24,-49z"/>
   <path class="fil7" d="M1737 7231l0 -239 49 0 0 238c0,39 -13,70 -39,94 -26,24 -57,36 -94,36 -37,0 -68,-12 -94,-36 -26,-24 -38,-56 -38,-94l0 -238 49 0 0 239c0,25 8,45 25,60 16,15 36,23 59,23 23,0 42,-8 59,-23 17,-15 25,-35 25,-60zm152 -109c16,-12 36,-18 60,-18 23,0 43,6 58,18 15,12 24,29 26,51l-46 0c-1,-8 -6,-14 -13,-19 -8,-5 -16,-7 -26,-7 -9,0 -17,2 -24,6 -7,3 -11,9 -13,16 -2,8 -2,14 1,18 4,8 14,14 29,18l36 9c43,10 64,34 64,72 0,22 -9,40 -28,54 -19,13 -41,20 -66,20 -25,0 -47,-7 -65,-22 -19,-14 -28,-34 -28,-58l45 0c2,13 9,22 20,28 11,7 22,10 35,9 12,-1 22,-4 29,-10 7,-6 11,-13 12,-22 1,-9 -2,-15 -8,-21 -6,-5 -14,-9 -25,-11l-34 -8c-24,-6 -41,-16 -53,-28 -11,-13 -15,-29 -13,-49 2,-20 11,-35 27,-48zm446 110c0,11 0,17 -1,19l-200 0c2,20 11,36 26,49 15,12 31,18 49,18 36,0 60,-13 75,-38 0,0 1,0 2,0 1,0 2,1 4,2 2,1 5,2 8,3 3,1 6,2 8,3l20 7c-10,21 -25,37 -46,48 -20,11 -43,17 -67,17 -35,0 -65,-12 -90,-36 -24,-24 -36,-55 -36,-93 0,-38 12,-69 35,-93 24,-23 54,-35 90,-35 36,0 66,12 88,35 23,23 35,54 35,92zm-72 -67c-14,-12 -31,-18 -51,-18 -20,0 -38,6 -52,18 -14,13 -23,29 -25,49l153 0c-2,-20 -10,-36 -24,-49zm181 102l0 90 -48 0 0 -246 48 0 0 56c12,-40 35,-61 68,-61 19,0 34,3 43,9l-7 45c-11,-6 -23,-9 -36,-9 -22,0 -38,10 -50,31 -12,21 -17,49 -17,85z"/>
   <path class="fil7" d="M1521 8876l0 -363 215 0 0 46 -166 0 0 116 145 0 0 46 -145 0 0 110 171 0 0 46 -220 0zm507 -132l0 132 -48 0 0 -139c0,-20 -5,-36 -15,-47 -9,-12 -23,-17 -41,-17 -18,0 -33,6 -46,18 -13,12 -20,30 -20,53l0 132 -48 0 0 -246 48 0 0 37c6,-12 15,-21 28,-29 14,-7 26,-12 37,-12 47,-3 79,14 94,50 17,-34 46,-51 85,-51 31,0 54,9 70,29 16,19 25,46 25,81l0 142 -48 0 0 -139c0,-20 -5,-36 -15,-48 -11,-12 -25,-17 -44,-18 -18,0 -33,6 -45,19 -12,13 -18,31 -18,52zm418 69c16,-15 24,-35 24,-60 0,-25 -8,-45 -25,-59 -17,-14 -36,-22 -58,-22 -22,0 -41,7 -56,22 -15,15 -23,34 -23,58 0,24 8,44 23,59 16,15 35,23 57,23 23,0 42,-7 58,-22zm72 64l-48 0 0 -38c-8,13 -19,23 -35,31 -16,8 -33,12 -51,12 -34,0 -64,-12 -89,-36 -24,-24 -36,-55 -36,-93 0,-38 12,-69 36,-92 24,-24 54,-36 90,-36 18,0 35,4 52,11 16,8 28,18 35,31l0 -37 48 0 0 246zm80 -315c-6,-6 -9,-13 -9,-22 0,-9 3,-16 9,-22 7,-6 15,-9 24,-9 9,0 17,3 23,9 7,6 10,13 10,22 0,9 -3,17 -10,22 -7,6 -15,9 -23,9 -9,0 -17,-3 -24,-9zm48 315l-48 0 0 -246 48 0 0 246zm80 0l0 -380 48 0 0 380 -48 0z"/>
   <path class="fil7" d="M1665 9887l-95 0 0 135 93 0c20,0 35,-6 46,-19 11,-12 16,-28 16,-48 0,-20 -5,-36 -15,-49 -11,-13 -25,-19 -44,-19zm-144 317l0 -363 145 0c36,0 63,11 81,33 18,22 27,48 27,81 0,32 -9,59 -27,81 -18,22 -45,32 -81,32l-96 0 0 136 -49 0zm358 -133l0 133 -48 0 0 -380 48 0 0 171c7,-14 18,-24 34,-31 16,-7 32,-11 47,-11 31,0 56,10 73,29 18,19 27,46 26,80l0 142 -48 0 0 -139c0,-20 -5,-36 -16,-47 -10,-12 -25,-18 -43,-18 -19,0 -35,6 -50,18 -15,12 -23,30 -23,54zm428 69c15,-15 23,-35 23,-60 0,-25 -8,-44 -23,-59 -15,-15 -35,-22 -57,-22 -23,0 -42,7 -58,22 -16,15 -24,35 -24,59 0,24 8,44 23,60 15,15 35,23 58,23 23,0 43,-8 58,-23zm-58 69c-36,0 -66,-12 -91,-36 -25,-24 -38,-55 -38,-93 0,-38 12,-69 37,-93 25,-24 55,-35 92,-35 37,0 67,12 92,36 25,24 37,55 37,93 0,38 -12,69 -37,93 -25,24 -55,36 -91,36zm240 -138l0 133 -48 0 0 -246 48 0 0 37c7,-14 18,-24 32,-31 14,-7 29,-11 45,-11 31,0 54,9 70,29 16,19 25,46 25,81l0 142 -48 0 0 -139c0,-21 -5,-37 -15,-48 -9,-12 -23,-17 -42,-17 -19,0 -35,6 -48,18 -13,12 -20,30 -20,53zm481 9c0,11 0,17 -1,19l-200 0c2,20 11,36 26,49 15,12 31,18 49,18 36,0 60,-13 75,-38 0,0 1,0 2,0 1,0 2,1 4,2 2,1 5,2 8,3 3,1 6,2 8,3l20 7c-10,21 -25,37 -46,48 -20,11 -43,17 -67,17 -35,0 -65,-12 -90,-36 -24,-24 -36,-55 -36,-93 0,-38 12,-69 35,-93 24,-23 54,-35 90,-35 36,0 66,12 88,35 23,23 35,54 35,92zm-72 -67c-14,-12 -31,-18 -51,-18 -20,0 -38,6 -52,18 -14,13 -23,29 -25,49l153 0c-2,-20 -10,-36 -24,-49z"/>
   <path class="fil7" d="M1521 11415l49 0c0,16 8,31 22,44 14,13 33,20 55,19 22,0 39,-5 52,-15 12,-10 20,-23 22,-39 3,-33 -18,-55 -62,-65l-47 -12c-59,-15 -89,-47 -89,-95 0,-30 12,-54 35,-73 22,-19 50,-29 83,-29 33,0 61,10 83,29 22,20 34,45 34,77l-49 0c0,-18 -6,-32 -19,-43 -13,-11 -29,-16 -48,-16 -19,0 -35,5 -50,15 -13,10 -20,23 -20,38 0,24 17,41 52,49l47 12c35,9 60,24 77,43 17,20 23,44 20,72 -3,28 -16,51 -38,70 -22,18 -50,27 -85,27 -35,0 -65,-11 -90,-32 -24,-22 -37,-48 -37,-77zm363 -28l0 133 -48 0 0 -380 48 0 0 171c7,-14 18,-24 34,-31 16,-7 32,-11 47,-11 31,0 56,10 73,29 18,19 27,46 26,80l0 142 -48 0 0 -139c0,-20 -5,-36 -16,-47 -10,-12 -25,-18 -43,-18 -19,0 -35,6 -50,18 -15,12 -23,30 -23,54zm257 -182c-6,-6 -9,-13 -9,-22 0,-9 3,-16 9,-22 7,-6 15,-9 24,-9 9,0 17,3 23,9 7,6 10,13 10,22 0,9 -3,17 -10,22 -7,6 -14,9 -23,9 -9,0 -17,-3 -24,-9zm48 315l-48 0 0 -246 48 0 0 246zm151 -182c-15,15 -23,35 -23,60 0,25 8,45 24,59 16,14 35,21 57,21 22,0 41,-7 57,-22 15,-15 22,-34 22,-58 0,-24 -8,-44 -23,-59 -16,-15 -35,-23 -57,-23 -23,0 -42,7 -57,22zm-71 -64l48 0 0 39c8,-14 20,-24 35,-32 15,-8 32,-12 51,-12 34,0 63,12 87,36 24,24 36,55 36,93 0,38 -12,69 -35,93 -24,24 -53,35 -87,35 -19,0 -36,-4 -51,-11 -16,-7 -27,-18 -34,-31l0 156 -48 0 0 -366zm524 -90l0 90 52 0 0 43 -52 0 0 203 -48 0 0 -203 -44 0 0 -43 44 0 0 -90 48 0zm277 273c15,-15 23,-35 23,-60 0,-25 -8,-44 -23,-59 -15,-15 -35,-22 -57,-22 -23,0 -42,7 -58,22 -16,15 -24,35 -24,59 0,24 8,44 23,60 15,15 35,23 58,23 23,0 43,-8 58,-23zm-58 69c-36,0 -66,-12 -91,-36 -25,-24 -38,-55 -38,-93 0,-38 12,-69 37,-93 25,-24 55,-35 92,-35 37,0 67,12 92,36 25,24 37,55 37,93 0,38 -12,69 -37,93 -25,24 -55,36 -91,36z"/>
   <path class="fil7" d="M1665 12610l-95 0 0 135 92 0c20,0 35,-6 46,-19 11,-12 16,-28 16,-48 0,-20 -5,-36 -15,-49 -11,-13 -25,-19 -44,-19zm-144 317l0 -363 145 0c36,0 63,11 81,33 18,22 27,48 27,81 0,32 -9,59 -27,81 -18,22 -45,32 -81,32l-96 0 0 136 -49 0zm481 -64c16,-15 24,-35 24,-60 0,-25 -8,-45 -25,-59 -17,-14 -36,-22 -58,-22 -22,0 -41,7 -56,22 -15,15 -23,34 -23,58 0,24 8,44 23,59 15,15 35,23 57,23 23,0 42,-7 58,-22zm72 64l-48 0 0 -38c-8,13 -19,23 -35,31 -16,8 -33,12 -51,12 -34,0 -64,-12 -89,-36 -24,-24 -36,-55 -36,-93 0,-38 12,-69 36,-92 24,-24 54,-36 89,-36 18,0 35,4 51,11 16,8 28,18 35,31l0 -37 48 0 0 246zm299 -246l-153 366 -50 0 52 -127 -99 -239 51 0 74 178 74 -178 51 0zm266 114l0 132 -48 0 0 -139c0,-20 -5,-36 -15,-47 -9,-12 -23,-17 -41,-17 -18,0 -33,6 -46,18 -13,12 -20,30 -20,53l0 132 -48 0 0 -246 48 0 0 37c6,-12 15,-21 28,-29 14,-7 26,-12 37,-12 47,-3 79,14 94,50 17,-34 45,-51 85,-51 31,0 54,9 70,29 16,19 25,46 25,81l0 142 -48 0 0 -139c0,-20 -5,-36 -15,-48 -11,-12 -25,-17 -43,-18 -18,0 -33,6 -45,19 -12,13 -18,31 -18,52zm478 9c0,11 0,17 -1,19l-200 0c2,20 11,36 26,49 15,12 31,18 49,18 36,0 60,-13 75,-38 0,0 1,0 2,0 1,0 2,1 4,2 2,1 5,2 8,3 3,1 6,2 8,3l20 7c-10,21 -25,37 -46,48 -20,11 -43,17 -67,17 -35,0 -65,-12 -90,-36 -24,-24 -36,-55 -36,-93 0,-38 12,-69 35,-93 24,-23 54,-35 90,-35 36,0 66,12 88,35 23,23 35,54 35,92zm-72 -67c-14,-12 -31,-18 -51,-18 -20,0 -38,6 -52,18 -14,13 -23,29 -25,49l153 0c-2,-20 -10,-36 -24,-49zm181 58l0 133 -48 0 0 -246 48 0 0 37c7,-14 18,-24 32,-31 14,-7 29,-11 45,-11 31,0 54,9 70,29 16,19 25,46 25,81l0 142 -48 0 0 -139c0,-21 -5,-37 -15,-48 -9,-12 -23,-17 -42,-17 -19,0 -35,6 -48,18 -13,12 -20,30 -20,53zm315 -204l0 90 52 0 0 43 -52 0 0 203 -48 0 0 -203 -44 0 0 -43 44 0 0 -90 48 0z"/>
   <path class="fil7" d="M1521 15492l0 -363 211 0 0 46 -162 0 0 116 129 0 0 46 -129 0 0 155 -49 0zm316 -90l0 90 -48 0 0 -246 48 0 0 56c12,-40 35,-61 68,-61 19,0 34,3 43,9l-7 45c-11,-6 -23,-9 -36,-9 -22,0 -38,10 -50,31 -12,21 -17,49 -17,85zm392 -34c0,11 0,17 -1,19l-200 0c2,20 11,36 26,49 15,12 31,18 49,18 36,0 60,-13 75,-38 0,0 1,0 2,0 1,0 2,1 4,2 2,1 5,2 8,3 3,1 6,2 8,3l20 7c-10,21 -25,37 -46,48 -20,11 -43,17 -67,17 -35,0 -65,-12 -90,-36 -24,-24 -36,-55 -36,-93 0,-38 12,-69 35,-93 24,-23 54,-35 90,-35 36,0 66,12 88,35 23,23 35,54 35,92zm-72 -67c-14,-12 -31,-18 -51,-18 -20,0 -38,6 -52,18 -14,13 -23,29 -25,49l153 0c-2,-20 -10,-36 -24,-49zm365 67c0,11 0,17 -1,19l-200 0c2,20 11,36 26,49 15,12 31,18 49,18 36,0 60,-13 75,-38 0,0 1,0 2,0 1,0 2,1 4,2 2,1 5,2 8,3 3,1 6,2 8,3l20 7c-10,21 -25,37 -46,48 -20,11 -43,17 -67,17 -35,0 -65,-12 -90,-36 -24,-24 -36,-55 -36,-93 0,-38 12,-69 35,-93 24,-23 54,-35 90,-35 36,0 66,12 88,35 23,23 35,54 35,92zm-72 -67c-14,-12 -31,-18 -51,-18 -20,0 -38,6 -52,18 -14,13 -23,29 -25,49l153 0c-2,-20 -10,-36 -24,-49zm287 -42c16,-12 36,-18 60,-18 23,0 43,6 58,18 15,12 24,29 26,51l-46 0c-1,-8 -6,-14 -13,-19 -8,-5 -16,-7 -26,-7 -9,0 -17,2 -24,6 -7,3 -11,9 -13,16 -2,8 -2,14 1,18 4,8 14,14 29,18l36 9c43,10 64,34 64,72 0,22 -9,40 -28,54 -19,13 -41,20 -66,20 -25,0 -47,-7 -65,-22 -19,-14 -28,-34 -28,-58l45 0c2,13 9,22 20,28 11,7 22,10 35,9 12,-1 22,-4 29,-10 7,-6 11,-13 12,-22 1,-9 -2,-15 -8,-21 -6,-5 -14,-9 -25,-11l-34 -8c-24,-6 -41,-16 -53,-28 -11,-13 -15,-29 -13,-49 2,-20 11,-35 27,-48zm262 101l0 133 -48 0 0 -380 48 0 0 171c7,-14 18,-24 34,-31 16,-7 32,-11 47,-11 31,0 56,10 73,29 18,19 27,46 26,80l0 142 -48 0 0 -139c0,-20 -5,-36 -16,-47 -10,-12 -25,-18 -43,-18 -19,0 -35,6 -50,18 -15,12 -23,30 -23,54zm257 -182c-6,-6 -9,-13 -9,-22 0,-9 3,-16 9,-22 7,-6 15,-9 24,-9 9,0 17,3 23,9 7,6 10,13 10,22 0,9 -3,17 -10,22 -7,6 -14,9 -23,9 -9,0 -17,-3 -24,-9zm48 315l-48 0 0 -246 48 0 0 246zm151 -182c-15,15 -23,35 -23,60 0,25 8,45 24,59 16,14 35,21 57,21 22,0 41,-7 57,-22 15,-15 22,-34 22,-58 0,-24 -8,-44 -23,-59 -16,-15 -35,-23 -57,-23 -23,0 -42,7 -57,22zm-71 -64l48 0 0 39c8,-14 20,-24 35,-32 15,-8 32,-12 51,-12 34,0 63,12 87,36 24,24 36,55 36,93 0,38 -12,69 -35,93 -24,24 -53,35 -87,35 -19,0 -36,-4 -51,-11 -16,-7 -27,-18 -34,-31l0 156 -48 0 0 -366zm392 64c-15,15 -23,35 -23,60 0,25 8,45 24,59 16,14 35,21 57,21 22,0 41,-7 57,-22 15,-15 22,-34 22,-58 0,-24 -8,-44 -23,-59 -16,-15 -35,-23 -57,-23 -23,0 -42,7 -57,22zm-71 -64l48 0 0 39c8,-14 20,-24 35,-32 15,-8 32,-12 51,-12 34,0 63,12 87,36 24,24 36,55 36,93 0,38 -12,69 -35,93 -24,24 -53,35 -87,35 -19,0 -36,-4 -51,-11 -16,-7 -27,-18 -34,-31l0 156 -48 0 0 -366zm321 -69c-6,-6 -9,-13 -9,-22 0,-9 3,-16 9,-22 7,-6 15,-9 24,-9 9,0 17,3 23,9 7,6 10,13 10,22 0,9 -3,17 -10,22 -7,6 -14,9 -23,9 -9,0 -17,-3 -24,-9zm48 315l-48 0 0 -246 48 0 0 246zm128 -133l0 133 -48 0 0 -246 48 0 0 37c7,-14 18,-24 32,-31 14,-7 29,-11 45,-11 31,0 54,9 70,29 16,19 25,46 25,81l0 142 -48 0 0 -139c0,-21 -5,-37 -15,-48 -9,-12 -23,-17 -42,-17 -19,0 -35,6 -48,18 -13,12 -20,30 -20,53zm304 69c15,15 34,22 56,22 22,0 42,-7 58,-22 16,-15 24,-35 24,-60 0,-25 -8,-45 -24,-59 -16,-14 -35,-22 -58,-22 -23,0 -42,8 -57,23 -15,16 -23,35 -23,59 0,24 8,43 23,58zm53 141c58,0 88,-37 88,-111 0,-1 0,-2 -1,-3l0 -3c-7,14 -19,25 -35,33 -16,8 -33,12 -52,12 -35,0 -65,-12 -89,-35 -24,-24 -36,-54 -36,-93 0,-38 12,-69 37,-93 24,-24 54,-36 88,-36 19,0 36,4 51,12 15,7 27,18 35,32l0 -39 48 0 0 209c0,107 -45,160 -135,160 -24,0 -45,-6 -65,-17 -20,-12 -35,-28 -47,-49 2,0 9,-4 21,-11l19 -10c7,13 17,23 30,30 13,8 27,12 41,12z"/>
   <path class="fil7" d="M1665 16629l-95 0 0 135 92 0c20,0 35,-6 46,-19 11,-12 16,-28 16,-48 0,-20 -5,-36 -15,-49 -11,-13 -25,-19 -44,-19zm-144 317l0 -363 145 0c36,0 63,11 81,33 18,22 27,48 27,81 0,32 -9,59 -27,81 -18,22 -45,32 -81,32l-96 0 0 136 -49 0zm481 -64c16,-15 24,-35 24,-60 0,-25 -8,-45 -25,-59 -17,-14 -36,-22 -58,-22 -22,0 -41,7 -56,22 -15,15 -23,34 -23,58 0,24 8,44 23,59 15,15 35,23 57,23 23,0 42,-7 58,-22zm72 64l-48 0 0 -38c-8,13 -19,23 -35,31 -16,8 -33,12 -51,12 -34,0 -64,-12 -89,-36 -24,-24 -36,-55 -36,-93 0,-38 12,-69 36,-92 24,-24 54,-36 89,-36 18,0 35,4 51,11 16,8 28,18 35,31l0 -37 48 0 0 246zm79 -315c-6,-6 -9,-13 -9,-22 0,-9 3,-16 9,-22 7,-6 15,-9 24,-9 9,0 17,3 23,9 7,6 10,13 10,22 0,9 -3,17 -10,22 -7,6 -14,9 -23,9 -9,0 -17,-3 -24,-9zm48 315l-48 0 0 -246 48 0 0 246zm97 -233c16,-12 36,-18 60,-18 23,0 43,6 58,18 15,12 24,29 26,51l-46 0c-1,-8 -6,-14 -13,-19 -8,-5 -16,-7 -26,-7 -9,0 -17,2 -24,6 -7,3 -11,9 -13,16 -2,8 -2,14 1,18 4,8 14,14 29,18l36 9c43,10 64,34 64,72 0,22 -9,40 -28,54 -19,13 -41,20 -66,20 -25,0 -47,-7 -65,-22 -19,-14 -28,-34 -28,-58l45 0c2,13 9,22 20,28 11,7 22,10 35,9 12,-1 22,-4 29,-10 7,-6 11,-13 12,-22 1,-9 -2,-15 -8,-21 -6,-5 -14,-9 -25,-11l-34 -8c-24,-6 -41,-16 -53,-28 -11,-13 -15,-29 -13,-49 2,-20 11,-35 27,-48zm446 110c0,11 0,17 -1,19l-200 0c2,20 11,36 26,49 15,12 31,18 49,18 36,0 60,-13 75,-38 0,0 1,0 2,0 1,0 2,1 4,2 2,1 5,2 8,3 3,1 6,2 8,3l20 7c-10,21 -25,37 -46,48 -20,11 -43,17 -67,17 -35,0 -65,-12 -90,-36 -24,-24 -36,-55 -36,-93 0,-38 12,-69 35,-93 24,-23 54,-35 90,-35 36,0 66,12 88,35 23,23 35,54 35,92zm-72 -67c-14,-12 -31,-18 -51,-18 -20,0 -38,6 -52,18 -14,13 -23,29 -25,49l153 0c-2,-20 -10,-36 -24,-49zm287 -42c16,-12 36,-18 60,-18 23,0 43,6 58,18 15,12 24,29 26,51l-46 0c-1,-8 -6,-14 -13,-19 -8,-5 -16,-7 -26,-7 -9,0 -17,2 -24,6 -7,3 -11,9 -13,16 -2,8 -2,14 1,18 4,8 14,14 29,18l36 9c43,10 64,34 64,72 0,22 -9,40 -28,54 -19,13 -41,20 -66,20 -25,0 -47,-7 -65,-22 -19,-14 -28,-34 -28,-58l45 0c2,13 9,22 20,28 11,7 22,10 35,9 12,-1 22,-4 29,-10 7,-6 11,-13 12,-22 1,-9 -2,-15 -8,-21 -6,-5 -14,-9 -25,-11l-34 -8c-24,-6 -41,-16 -53,-28 -11,-13 -15,-29 -13,-49 2,-20 11,-35 27,-48zm262 101l0 133 -48 0 0 -380 48 0 0 171c7,-14 18,-24 34,-31 16,-7 32,-11 47,-11 31,0 56,10 73,29 18,19 27,46 26,80l0 142 -48 0 0 -139c0,-20 -5,-36 -16,-47 -10,-12 -25,-18 -43,-18 -19,0 -35,6 -50,18 -15,12 -23,30 -23,54zm257 -182c-6,-6 -9,-13 -9,-22 0,-9 3,-16 9,-22 7,-6 15,-9 24,-9 9,0 17,3 23,9 7,6 10,13 10,22 0,9 -3,17 -10,22 -7,6 -14,9 -23,9 -9,0 -17,-3 -24,-9zm48 315l-48 0 0 -246 48 0 0 246zm151 -182c-15,15 -23,35 -23,60 0,25 8,45 24,59 16,14 35,21 57,21 22,0 41,-7 57,-22 15,-15 22,-34 22,-58 0,-24 -8,-44 -23,-59 -16,-15 -35,-23 -57,-23 -23,0 -42,7 -57,22zm-71 -64l48 0 0 39c8,-14 20,-24 35,-32 15,-8 32,-12 51,-12 34,0 63,12 87,36 24,24 36,55 36,93 0,38 -12,69 -35,93 -24,24 -53,35 -87,35 -19,0 -36,-4 -51,-11 -16,-7 -27,-18 -34,-31l0 156 -48 0 0 -366zm392 64c-15,15 -23,35 -23,60 0,25 8,45 24,59 16,14 35,21 57,21 22,0 41,-7 57,-22 15,-15 22,-34 22,-58 0,-24 -8,-44 -23,-59 -16,-15 -35,-23 -57,-23 -23,0 -42,7 -57,22zm-71 -64l48 0 0 39c8,-14 20,-24 35,-32 15,-8 32,-12 51,-12 34,0 63,12 87,36 24,24 36,55 36,93 0,38 -12,69 -35,93 -24,24 -53,35 -87,35 -19,0 -36,-4 -51,-11 -16,-7 -27,-18 -34,-31l0 156 -48 0 0 -366zm321 -69c-6,-6 -9,-13 -9,-22 0,-9 3,-16 9,-22 7,-6 15,-9 24,-9 9,0 17,3 23,9 7,6 10,13 10,22 0,9 -3,17 -10,22 -7,6 -14,9 -23,9 -9,0 -17,-3 -24,-9zm48 315l-48 0 0 -246 48 0 0 246zm128 -133l0 133 -48 0 0 -246 48 0 0 37c7,-14 18,-24 32,-31 14,-7 29,-11 45,-11 31,0 54,9 70,29 16,19 25,46 25,81l0 142 -48 0 0 -139c0,-21 -5,-37 -15,-48 -9,-12 -23,-17 -42,-17 -19,0 -35,6 -48,18 -13,12 -20,30 -20,53zm304 69c15,15 34,22 56,22 22,0 42,-7 58,-22 16,-15 24,-35 24,-60 0,-25 -8,-45 -24,-59 -16,-14 -35,-22 -58,-22 -23,0 -42,8 -57,23 -15,16 -23,35 -23,59 0,24 8,43 23,58zm53 141c58,0 88,-37 88,-111 0,-1 0,-2 -1,-3l0 -3c-7,14 -19,25 -35,33 -16,8 -33,12 -52,12 -35,0 -65,-12 -89,-35 -24,-24 -36,-54 -36,-93 0,-38 12,-69 37,-93 24,-24 54,-36 88,-36 19,0 36,4 51,12 15,7 27,18 35,32l0 -39 48 0 0 209c0,107 -45,160 -135,160 -24,0 -45,-6 -65,-17 -20,-12 -35,-28 -47,-49 2,0 9,-4 21,-11l19 -10c7,13 17,23 30,30 13,8 27,12 41,12z"/>
   <line class="fil8 str1" x1="1499" y1="8009" x2="10539" y2= "8009" />
   <line class="fil8 str1" x1="1503" y1="9358" x2="10544" y2= "9358" />
   <line class="fil8 str1" x1="1508" y1="10718" x2="10548" y2= "10718" />
   <line class="fil8 str1" x1="10529" y1="16088" x2="1491" y2= "16088" />
   <line class="fil8 str1" x1="1512" y1="12110" x2="10552" y2= "12110" />
   <line class="fil8 str1" x1="10529" y1="17533" x2="1491" y2= "17533" />
   <path class="fil5" d="M1251 4900l-53 0 0 -180 -149 -212 63 0 112 159 113 -159 64 0 -150 212 0 180zm380 -68c17,-16 25,-38 25,-64 0,-27 -8,-48 -25,-64 -17,-16 -37,-24 -62,-24 -25,0 -45,8 -62,24 -17,16 -25,37 -25,64 0,26 8,48 25,64 17,17 37,25 62,25 25,0 46,-8 62,-25zm-62 74c-39,0 -71,-13 -99,-38 -27,-26 -41,-59 -41,-100 0,-41 13,-75 40,-100 27,-26 60,-38 99,-38 39,0 72,13 99,38 27,26 40,59 40,100 0,41 -13,74 -40,100 -27,26 -60,39 -98,39zm389 -128l0 -143 52 0 0 266 -52 0 0 -40c-8,15 -19,26 -34,34 -15,8 -31,12 -48,12 -33,0 -58,-10 -76,-31 -18,-21 -27,-50 -26,-86l0 -154 52 0 0 150c0,22 5,39 15,52 10,12 26,19 46,19 21,0 38,-6 51,-19 14,-13 20,-32 20,-58zm189 26l0 97 -52 0 0 -266 52 0 0 60c13,-44 38,-66 74,-66 21,0 36,3 46,10l-8 49c-12,-6 -25,-9 -39,-9 -23,0 -41,11 -54,34 -13,22 -19,53 -19,92zm504 28c17,-16 25,-38 25,-64 0,-27 -8,-48 -25,-64 -17,-16 -37,-24 -62,-24 -25,0 -45,8 -62,24 -17,16 -25,37 -25,64 0,26 8,48 25,64 17,17 37,25 62,25 25,0 46,-8 62,-25zm-62 74c-39,0 -71,-13 -99,-38 -27,-26 -41,-59 -41,-100 0,-41 13,-75 40,-100 27,-26 60,-38 99,-38 39,0 72,13 99,38 27,26 40,59 40,100 0,41 -13,74 -40,100 -27,26 -60,39 -98,39zm259 -102l0 97 -52 0 0 -266 52 0 0 60c13,-44 38,-66 74,-66 21,0 36,3 46,10l-8 49c-12,-6 -25,-9 -39,-9 -23,0 -41,11 -54,34 -13,22 -19,53 -19,92zm356 27c17,-16 26,-38 26,-64 0,-27 -9,-48 -27,-64 -18,-16 -39,-23 -63,-24 -24,0 -44,8 -60,24 -16,16 -24,37 -24,63 0,26 8,47 25,64 16,16 37,25 61,25 24,0 45,-8 62,-24zm78 69l-52 0 0 -41c-8,14 -21,25 -38,34 -17,9 -35,13 -56,13 -37,0 -69,-13 -96,-39 -26,-26 -39,-59 -39,-100 0,-41 13,-74 38,-100 26,-26 57,-38 95,-39 20,0 39,4 56,12 17,8 29,19 38,34l0 -184 52 0 0 410zm337 -134c0,12 0,18 -1,20l-216 0c3,21 12,39 28,53 16,13 33,20 53,20 38,0 65,-14 81,-41 0,0 1,0 2,0 1,0 2,1 4,2 2,1 5,2 9,3 4,1 7,2 8,3l22 8c-11,22 -27,40 -49,52 -22,12 -46,18 -73,18 -38,0 -70,-13 -97,-38 -26,-26 -38,-59 -38,-101 0,-42 13,-75 38,-100 26,-25 58,-38 97,-38 39,0 71,13 95,38 25,25 37,58 37,100zm-78 -73c-15,-13 -33,-19 -55,-19 -22,0 -41,6 -56,19 -16,14 -25,31 -27,53l165 0c-3,-21 -11,-39 -26,-53zm195 110l0 97 -52 0 0 -266 52 0 0 60c13,-44 38,-66 74,-66 21,0 36,3 46,10l-8 49c-12,-6 -25,-9 -39,-9 -23,0 -41,11 -54,34 -13,22 -19,53 -19,92zm505 28c17,-16 26,-37 26,-64 0,-27 -9,-48 -27,-64 -18,-16 -39,-23 -63,-24 -24,0 -44,8 -61,24 -16,16 -24,37 -24,63 0,26 8,47 25,64 17,17 37,25 62,25 24,0 45,-8 62,-24zm78 69l-52 0 0 -41c-8,14 -21,25 -38,34 -17,9 -35,13 -55,13 -37,0 -69,-13 -96,-39 -26,-26 -39,-59 -39,-100 0,-41 13,-74 39,-100 26,-26 58,-38 96,-39 19,0 38,4 56,12 17,9 30,20 38,34l0 -40 52 0 0 266zm157 -363l0 97 56 0 0 46 -56 0 0 220 -52 0 0 -220 -48 0 0 -46 48 0 0 -97 52 0z"/>
   <path class="fil9" d="M1336 5182l-64 174 -28 0 -47 -128 -46 128 -28 0 -66 -174 36 0 44 122 44 -122 33 0 44 122 44 -122 36 0zm294 0l-64 174 -28 0 -47 -128 -46 128 -28 0 -66 -174 36 0 44 122 44 -122 33 0 44 122 44 -122 36 0zm294 0l-64 174 -28 0 -47 -128 -46 128 -28 0 -66 -174 36 0 44 122 44 -122 33 0 44 122 44 -122 36 0zm33 155c0,-7 2,-12 7,-17 5,-5 10,-7 17,-7 7,0 13,2 17,7 5,4 7,10 7,17 0,7 -2,12 -7,17 -5,4 -11,7 -17,7 -7,0 -12,-2 -17,-6 -5,-4 -7,-10 -7,-17zm114 -146c12,-9 26,-13 42,-13 16,0 30,4 41,13 11,8 17,21 18,36l-32 0c-1,-6 -4,-10 -9,-14 -5,-3 -12,-5 -18,-5 -7,0 -12,1 -17,4 -5,2 -8,6 -9,12 -1,5 -1,10 1,13 3,6 10,10 21,13l26 6c30,7 45,24 45,51 0,16 -7,28 -20,38 -13,9 -29,14 -46,14 -18,0 -33,-5 -46,-15 -13,-10 -20,-24 -20,-41l32 0c1,9 6,16 14,20 8,5 16,7 25,6 9,0 16,-3 21,-7 5,-4 8,-9 8,-16 1,-6 -1,-11 -6,-15 -4,-4 -10,-6 -17,-8l-24 -6c-17,-5 -29,-11 -37,-20 -8,-9 -11,-21 -9,-35 1,-14 8,-25 19,-34zm202 36c-11,11 -16,25 -16,43 0,18 6,32 17,42 11,10 25,15 41,15 16,0 29,-5 40,-16 10,-10 16,-24 16,-41 0,-17 -5,-31 -16,-42 -11,-11 -25,-16 -41,-17 -16,0 -29,5 -40,16zm-50 -45l34 0 0 27c6,-10 14,-17 25,-22 11,-6 23,-9 36,-9 24,0 45,8 62,25 17,17 25,39 25,66 0,27 -8,49 -25,66 -17,17 -37,25 -62,25 -13,0 -25,-3 -36,-8 -11,-5 -19,-13 -24,-22l0 111 -34 0 0 -259zm348 129c11,-10 17,-24 17,-42 0,-18 -6,-32 -17,-42 -12,-10 -25,-15 -41,-15 -16,0 -29,5 -40,16 -11,10 -16,24 -16,41 0,17 5,31 16,42 11,11 24,16 40,16 16,0 30,-5 41,-16zm51 45l-34 0 0 -27c-5,9 -14,16 -25,22 -11,6 -23,8 -36,8 -24,0 -45,-8 -63,-25 -17,-17 -26,-39 -26,-66 0,-27 8,-49 25,-65 17,-17 38,-25 63,-25 13,0 25,3 36,8 11,6 20,13 25,22l0 -26 34 0 0 174zm50 -174l147 0 0 28 -106 114 106 0 0 32 -153 0 0 -28 104 -114 -98 0 0 -32zm315 129c11,-10 17,-24 17,-42 0,-18 -6,-32 -17,-42 -12,-10 -25,-15 -41,-15 -16,0 -29,5 -40,16 -11,10 -16,24 -16,41 0,17 5,31 16,42 11,11 24,16 40,16 16,0 30,-5 41,-16zm51 45l-34 0 0 -27c-5,9 -14,16 -25,22 -11,6 -23,8 -36,8 -24,0 -45,-8 -63,-25 -17,-17 -26,-39 -26,-66 0,-27 8,-49 25,-65 17,-17 38,-25 63,-25 13,0 25,3 36,8 11,6 20,13 25,22l0 -26 34 0 0 174zm210 -94l0 94 -34 0 0 -99c0,-14 -3,-26 -10,-33 -7,-8 -16,-12 -29,-12 -13,0 -24,4 -33,13 -9,9 -14,21 -14,38l0 94 -34 0 0 -174 34 0 0 26c4,-8 11,-15 20,-20 10,-5 19,-8 26,-9 34,-2 56,10 67,35 12,-24 32,-36 60,-36 22,0 38,7 50,20 12,13 17,32 17,57l0 101 -34 0 0 -98c0,-14 -4,-25 -11,-34 -8,-8 -18,-12 -31,-12 -13,0 -23,4 -32,14 -9,9 -13,22 -13,37zm295 49c11,-10 17,-24 17,-42 0,-18 -6,-32 -17,-42 -12,-10 -25,-15 -41,-15 -16,0 -29,5 -40,16 -11,10 -16,24 -16,41 0,17 5,31 16,42 11,11 24,16 40,16 16,0 30,-5 41,-16zm51 45l-34 0 0 -27c-5,9 -14,16 -25,22 -11,6 -23,8 -36,8 -24,0 -45,-8 -63,-25 -17,-17 -26,-39 -26,-66 0,-27 8,-49 25,-65 17,-17 38,-25 63,-25 13,0 25,3 36,8 11,6 20,13 25,22l0 -26 34 0 0 174zm56 0l0 -269 34 0 0 269 -34 0zm90 0l0 -269 34 0 0 269 -34 0zm88 -19c0,-7 2,-12 7,-17 5,-5 10,-7 17,-7 7,0 13,2 17,7 5,4 7,10 7,17 0,7 -2,12 -7,17 -5,4 -11,7 -17,7 -7,0 -12,-2 -17,-6 -5,-4 -7,-10 -7,-17zm184 -159c27,0 49,9 66,28l-26 22c-11,-11 -25,-16 -41,-16 -16,0 -30,5 -42,16 -12,10 -17,24 -17,42 0,17 6,31 17,42 12,11 26,16 42,16 16,0 30,-6 41,-17l26 22c-17,19 -39,28 -66,28 -26,0 -49,-8 -67,-25 -18,-17 -27,-39 -27,-66 0,-27 9,-49 27,-65 18,-17 40,-25 67,-25zm229 133c11,-11 16,-25 16,-42 0,-17 -5,-31 -16,-42 -11,-11 -24,-16 -41,-16 -16,0 -30,5 -41,16 -11,11 -17,24 -17,42 0,17 5,31 16,42 11,11 24,16 41,16 16,0 30,-5 41,-16zm-41 49c-25,0 -47,-8 -65,-25 -18,-17 -27,-39 -27,-66 0,-27 9,-49 26,-66 17,-17 39,-25 65,-25 26,0 47,8 65,25 18,17 26,39 26,66 0,27 -9,49 -26,66 -18,17 -39,25 -65,25zm290 -97l0 94 -34 0 0 -99c0,-14 -3,-26 -10,-33 -7,-8 -16,-12 -29,-12 -13,0 -24,4 -33,13 -9,9 -14,21 -14,38l0 94 -34 0 0 -174 34 0 0 26c4,-8 11,-15 20,-20 10,-5 19,-8 26,-9 34,-2 56,10 67,35 12,-24 32,-36 60,-36 22,0 38,7 50,20 12,13 17,32 17,57l0 101 -34 0 0 -98c0,-14 -4,-25 -11,-34 -8,-8 -18,-12 -31,-12 -13,0 -23,4 -32,14 -9,9 -13,22 -13,37z"/>
   <path class="fil10" d="M5281 6969l3425 0c62,0 113,51 113,113l0 189c0,62 -51,113 -113,113l-3425 0c-62,0 -113,-51 -113,-113l0 -189c0,-62 51,-113 113,-113z"/>
   <path class="fil10" d="M5281 8482l3425 0c62,0 113,51 113,113l0 189c0,62 -51,113 -113,113l-3425 0c-62,0 -113,-51 -113,-113l0 -189c0,-62 51,-113 113,-113z"/>
   <path class="fil10" d="M5281 9809l3425 0c62,0 113,51 113,113l0 189c0,62 -51,113 -113,113l-3425 0c-62,0 -113,-51 -113,-113l0 -189c0,-62 51,-113 113,-113z"/>
   <path class="fil10" d="M5281 11181l3425 0c62,0 113,51 113,113l0 189c0,62 -51,113 -113,113l-3425 0c-62,0 -113,-51 -113,-113l0 -189c0,-62 51,-113 113,-113z"/>
   <path class="fil10" d="M5281 12598l3425 0c62,0 113,51 113,113l0 189c0,62 -51,113 -113,113l-3425 0c-62,0 -113,-51 -113,-113l0 -189c0,-62 51,-113 113,-113z"/>
   <rect class="fil11" x="7309" y="18189" width="3207" height="1118" rx="248" ry="265"/>
   <path class="fil1 str0" d="M1775 18189l2392 0c146,0 265,119 265,265l0 588c0,146 -119,265 -265,265l-2392 0c-146,0 -265,-119 -265,-265l0 -588c0,-146 119,-265 265,-265z"/>
   <path class="fil5" d="M8174 18870l-35 -92 -154 0 -35 92 -52 0 138 -363 53 0 137 363 -51 0zm-112 -298l-60 161 120 0 -60 -161zm281 116c-15,15 -23,35 -23,60 0,25 8,45 24,59 16,14 35,21 57,21 22,0 41,-7 57,-22 15,-15 22,-34 22,-58 0,-24 -8,-44 -23,-59 -16,-15 -35,-23 -57,-23 -23,0 -42,7 -57,22zm-71 -64l48 0 0 39c8,-14 20,-24 35,-32 15,-8 32,-12 51,-12 34,0 63,12 87,36 24,24 36,55 36,93 0,38 -12,69 -35,93 -24,24 -53,35 -87,35 -19,0 -36,-4 -51,-11 -16,-7 -27,-18 -34,-31l0 156 -48 0 0 -366zm392 64c-15,15 -23,35 -23,60 0,25 8,45 24,59 16,14 35,21 57,21 22,0 41,-7 57,-22 15,-15 22,-34 22,-58 0,-24 -8,-44 -23,-59 -16,-15 -35,-23 -57,-23 -23,0 -42,7 -57,22zm-71 -64l48 0 0 39c8,-14 20,-24 35,-32 15,-8 32,-12 51,-12 34,0 63,12 87,36 24,24 36,55 36,93 0,38 -12,69 -35,93 -24,24 -53,35 -87,35 -19,0 -36,-4 -51,-11 -16,-7 -27,-18 -34,-31l0 156 -48 0 0 -366zm369 157l0 90 -48 0 0 -246 48 0 0 56c12,-40 35,-61 68,-61 19,0 34,3 43,9l-7 45c-11,-6 -23,-9 -36,-9 -22,0 -38,10 -50,31 -12,21 -17,49 -17,85zm330 26c15,-15 23,-35 23,-60 0,-25 -8,-44 -23,-59 -15,-15 -35,-22 -57,-22 -23,0 -42,7 -58,22 -16,15 -24,35 -24,59 0,24 8,44 23,60 15,15 35,23 58,23 23,0 43,-8 58,-23zm-58 69c-36,0 -66,-12 -91,-36 -25,-24 -38,-55 -38,-93 0,-38 12,-69 37,-93 25,-24 55,-35 92,-35 37,0 67,12 92,36 25,24 37,55 37,93 0,38 -12,69 -37,93 -25,24 -55,36 -91,36zm263 -5l-102 -246 50 0 75 185 74 -185 51 0 -149 246zm429 -124c0,11 0,17 -1,19l-200 0c2,20 11,36 26,49 15,12 31,18 49,18 36,0 60,-13 75,-38 0,0 1,0 2,0 1,0 2,1 4,2 2,1 5,2 8,3 3,1 6,2 8,3l20 7c-10,21 -25,37 -46,48 -20,11 -43,17 -67,17 -35,0 -65,-12 -90,-36 -24,-24 -36,-55 -36,-93 0,-38 12,-69 35,-93 24,-23 54,-35 90,-35 36,0 66,12 88,35 23,23 35,54 35,92zm-72 -67c-14,-12 -31,-18 -51,-18 -20,0 -38,6 -52,18 -14,13 -23,29 -25,49l153 0c-2,-20 -10,-36 -24,-49z"/>
   <path class="fil12" d="M10145 14984c210,0 381,170 381,379 0,209 -171,379 -381,379 -210,0 -381,-170 -381,-379 0,-209 171,-379 381,-379z"/>
   <polyline class="fil1 str2" points="9949,15385 10069,15491 10342,15273 "/>
   <path class="fil13" d="M10145 8310c210,0 381,170 381,379 0,209 -171,379 -381,379 -210,0 -381,-170 -381,-379 0,-209 171,-379 381,-379z"/>
   <path class="fil13" d="M10145 9638c210,0 381,170 381,379 0,209 -171,379 -381,379 -210,0 -381,-170 -381,-379 0,-209 171,-379 381,-379z"/>
   <path class="fil13" d="M10145 11010c210,0 381,170 381,379 0,209 -171,379 -381,379 -210,0 -381,-170 -381,-379 0,-209 171,-379 381,-379z"/>
   <path class="fil13" d="M10145 12427c210,0 381,170 381,379 0,209 -171,379 -381,379 -210,0 -381,-170 -381,-379 0,-209 171,-379 381,-379z"/>
   <path class="fil14 str3" d="M10145 16439c210,0 381,170 381,379 0,209 -171,379 -381,379 -210,0 -381,-170 -381,-379 0,-209 171,-379 381,-379z"/>
   <g>
    <path class="fil15" d="M10138 10095l-115 -128 32 -28 115 128 1 27 -33 1zm33 -1l-16 21 -17 -19 33 -1zm97 -129l-97 129 -34 -26 97 -129 34 26z"/>
   </g>
   <g>
    <path class="fil15" d="M10138 11467l-115 -128 32 -28 115 128 1 27 -33 1zm33 -1l-16 21 -17 -19 33 -1zm97 -129l-97 129 -34 -26 97 -129 34 26z"/>
   </g>
   <g>
    <path class="fil15" d="M10138 12884l-115 -128 32 -28 115 128 1 27 -33 1zm33 -1l-16 21 -17 -19 33 -1zm97 -129l-97 129 -34 -26 97 -129 34 26z"/>
   </g>
   <g>
    <path class="fil15" d="M10138 8768l-115 -128 32 -28 115 128 1 27 -33 1zm33 -1l-16 21 -17 -19 33 -1zm97 -129l-97 129 -34 -26 97 -129 34 26z"/>
   </g>
   <path class="fil13" d="M10151 6797c210,0 381,170 381,379 0,209 -171,379 -381,379 -210,0 -381,-170 -381,-379 0,-209 171,-379 381,-379z"/>
   <g>
    <path class="fil15" d="M10144 7255l-115 -128 32 -28 115 128 1 27 -33 1zm33 -1l-16 21 -17 -19 33 -1zm97 -129l-97 129 -34 -26 97 -129 34 26z"/>
   </g>
   <path class="fil13" d="M10151 4605c210,0 381,170 381,379 0,209 -171,379 -381,379 -210,0 -381,-170 -381,-379 0,-209 171,-379 381,-379z"/>
   <g>
    <path class="fil15" d="M10144 5062l-115 -128 32 -28 115 128 1 27 -33 1zm33 -1l-16 21 -17 -19 33 -1zm97 -129l-97 129 -34 -26 97 -129 34 26z"/>
   </g>
   <path class="fil15" d="M7610 4815l-89 0 0 135 87 0c20,0 35,-6 45,-18 10,-13 15,-30 15,-49 0,-20 -5,-36 -15,-49 -9,-13 -24,-19 -43,-19zm-89 181l0 136 -49 0 0 -363 139 0c36,0 62,11 80,33 18,22 27,48 27,79 0,31 -8,56 -23,77 -15,21 -39,33 -70,36l97 138 -59 0 -94 -136 -47 0z"/>
   <polygon id="1" class="fil15" points="7875,5132 7827,5132 7827,4848 7772,4867 7772,4822 7875,4785 "/>
   <path id="2" class="fil15" d="M7967 5198l-34 -11c25,-34 37,-73 36,-116l49 0c-2,29 -8,55 -18,77 -10,22 -21,39 -33,50z"/>
   <path id="3" class="fil15" d="M8200 5091c26,0 47,-6 61,-19 14,-13 21,-30 21,-51 0,-20 -7,-37 -20,-49 -13,-12 -29,-18 -47,-18 -18,0 -33,2 -45,6 -12,4 -27,12 -46,22l-30 -25 30 -172 183 0 0 46 -144 0 -19 97c8,-6 18,-11 31,-15 12,-4 24,-6 34,-6 33,0 61,10 83,30 23,20 34,47 34,82 0,35 -12,63 -35,84 -24,21 -55,32 -93,31 -24,0 -46,-7 -67,-21 -21,-15 -37,-34 -47,-58l41 -22c7,17 17,30 30,40 12,10 27,15 44,15z"/>
   <polygon id="4" class="fil15" points="8483,5132 8435,5132 8435,4848 8380,4867 8380,4822 8483,4785 "/>
   <path id="5" class="fil15" d="M8715 4900c8,-8 12,-18 12,-30 0,-12 -4,-21 -13,-28 -8,-8 -18,-12 -32,-12 -13,0 -24,4 -32,12 -8,7 -12,17 -12,28 0,11 4,21 12,30 8,8 18,12 30,13l4 0c12,-1 23,-5 31,-13zm-104 124c0,18 7,33 21,46 14,13 31,19 50,19 20,0 36,-6 50,-19 14,-13 21,-28 21,-46 0,-18 -7,-34 -20,-47 -13,-13 -30,-20 -51,-20l-4 0c-19,1 -35,8 -48,21 -13,13 -19,29 -19,46zm5 -93c-17,-17 -26,-37 -26,-61 0,-24 9,-45 27,-61 17,-17 39,-26 65,-26 26,0 48,9 65,26 18,17 27,37 27,61 0,24 -9,45 -27,61 17,10 30,23 39,40 9,17 14,34 14,53 0,31 -12,58 -35,80 -23,22 -51,33 -85,33 -34,0 -62,-11 -84,-32 -23,-21 -34,-48 -34,-80 0,-19 5,-37 14,-53 9,-16 22,-29 39,-40z"/>
   <path id="6" class="fil15" d="M8865 5105c0,-9 3,-17 10,-24 7,-6 15,-10 24,-10 10,0 18,3 25,9 7,6 10,14 10,24 0,10 -4,17 -11,23 -7,6 -15,9 -24,9 -9,0 -17,-3 -24,-9 -7,-6 -10,-14 -10,-24z"/>
   <polygon id="7" class="fil15" points="9002,4788 9240,4788 9051,5132 8995,5132 9159,4835 9002,4835 "/>
   <path id="8" class="fil15" d="M9388 5091c26,0 47,-6 61,-19 14,-13 21,-30 21,-51 0,-20 -7,-37 -20,-49 -13,-12 -29,-18 -47,-18 -18,0 -33,2 -45,6 -12,4 -27,12 -46,22l-30 -25 30 -172 183 0 0 46 -144 0 -19 97c8,-6 18,-11 31,-15 12,-4 24,-6 34,-6 33,0 61,10 83,30 23,20 34,47 34,82 0,35 -12,63 -35,84 -24,21 -55,32 -93,31 -24,0 -46,-7 -67,-21 -21,-15 -37,-34 -47,-58l41 -22c7,17 17,30 30,40 12,10 27,15 44,15z"/>
   <path class="fil16" d="M6762 4851l-2 11 -211 48c-6,2 -9,7 -10,16l2 227c-1,7 1,8 6,6l213 -81 25 6 -233 89c-6,3 -30,-4 -31,-12l-3 -237c0,-11 5,-18 16,-21l227 -51z"/>
   <polygon class="fil16" points="7060,5008 7102,5017 7102,5027 7059,5016 "/>
   <path class="fil16" d="M7087 4894l-234 67c-19,4 -27,14 -24,29l-4 249c1,14 28,21 36,16l247 -118c10,-3 14,-11 15,-21l-1 -210c-2,-11 -13,-15 -35,-12zm14 9l-233 67c-10,4 -15,11 -14,22l-5 250 248 -117c5,-2 7,-8 7,-15l-2 -207z"/>
   <path class="fil17" d="M7050 5046l-31 4c8,-16 9,-33 7,-52 4,0 6,-3 6,-8l10 -69 34 -10c-7,46 -14,88 -22,126l-2 7 -3 3zm-5 -139l20 -133 4 -16 3 -4 3 -3 5 -1 6 0 7 1 4 0 2 1 0 6 -2 10c-6,44 -12,87 -18,129l-34 10z"/>
   <path class="fil18" d="M7098 4752l-4 -5 -10 -5 -12 -3 -16 -3c-83,-15 -166,-24 -249,-27l-10 2 -11 7 -5 12 -6 20c-3,39 -8,76 -16,109l-14 73c52,6 99,13 138,19l161 -46 23 -144c1,-7 5,-10 10,-11l21 1zm-186 206c63,12 103,25 113,40 4,0 7,-4 7,-12l10 -66 -130 38z"/>
   <path class="fil17" d="M6540 4961l6 -4 18 -7 32 -6 43 -6 42 -3 32 -2 30 1 6 -1c49,6 95,13 135,20l-31 9c-19,4 -27,14 -24,29l0 31 0 0 -289 -61zm373 -3c62,12 104,25 113,40 3,19 1,36 -7,52l-166 29 -2 1 2 -87c-1,-10 4,-18 14,-22l45 -13z"/>
   <polygon class="fil18" points="6540,5023 6539,4962 6543,4961 6594,4973 6829,5022 6829,5051 6828,5094 "/>
  </g>
 </g>
</svg>
