<?xml version="1.0" encoding="UTF-8"?>
<!DOCTYPE svg PUBLIC "-//W3C//DTD SVG 1.1//EN" "http://www.w3.org/Graphics/SVG/1.1/DTD/svg11.dtd">
<!-- Creator: CorelDRAW X6 -->
<svg xmlns="http://www.w3.org/2000/svg" xml:space="preserve" width="112.679mm" height="200mm" version="1.1" style="shape-rendering:geometricPrecision; text-rendering:geometricPrecision; image-rendering:optimizeQuality; fill-rule:evenodd; clip-rule:evenodd"
viewBox="0 0 5663 10052"
 xmlns:xlink="http://www.w3.org/1999/xlink">
 <defs>
  <style type="text/css">
   <![CDATA[
    .fil15 {fill:#00C2FF}
    .fil6 {fill:#3B9CFF}
    .fil13 {fill:#E6F2FE}
    .fil7 {fill:#FBD13E}
    .fil16 {fill:#FEB434}
    .fil5 {fill:#3B9CFF;fill-rule:nonzero}
    .fil8 {fill:#FBD13E;fill-rule:nonzero}
    .fil14 {fill:#FEB434;fill-rule:nonzero}
    .fil0 {fill:none; opacity: 0.96}
    .fil2 {fill:white;fill-opacity:0.96}
    .fil11 {fill:#95C9FF;fill-opacity:0.619608}
    .fil10 {fill:#B4DCFF;fill-opacity:0.619608}
    .fil9 {fill:#C4E1FF;fill-opacity:0.619608}
    .fil1 {fill:#E5F2FF;fill-opacity:0.99}
    .fil3 {fill:#D9ECFF}
    .fil12 {fill:#FBD13E}
    .fil4 {fill:#3B9CFF;fill-rule:nonzero}
   ]]>
  </style>
 </defs>
 <g id="Layer_x0020_1">
  <metadata id="CorelCorpID_0Corel-Layer"/>
  <g id="_1234133984">
   <path class="fil0" d="M1149 520c-535,-32 -621,133 -640,539l4 7637c-6,528 129,769 515,798l3396 8c551,40 743,-270 730,-781l0 -7607c-7,-480 -179,-619 -626,-616l-389 383 -2579 11 -410 -371zm63 7446l3230 0c58,0 106,48 106,106l0 262c0,58 -48,106 -106,106l-3230 0c-58,0 -106,-48 -106,-106l0 -262c0,-58 48,-106 106,-106z"/>
   <path class="fil1" d="M4623 9667l-3453 18c-738,18 -835,-343 -817,-1016l3 -7785c38,-280 173,-452 418,-500l425 0c124,49 174,365 517,364l2268 0c338,-68 306,-342 537,-368l377 10c256,37 390,289 394,580l5 7982c0,432 -187,714 -673,717zm-3875 -9667c-464,73 -735,373 -724,1000l-23 8096c-14,641 357,924 1000,956l3757 -3c503,11 813,-226 884,-769l22 -8312c-11,-555 -463,-970 -995,-967l-3920 -1z"/>
   <path class="fil2" d="M1065 2244l3533 0c102,0 186,84 186,186l0 482c0,102 -84,186 -186,186l-3533 0c-102,0 -186,-84 -186,-186l0 -482c0,-102 84,-186 186,-186z"/>
   <path class="fil3" d="M4177 2458c117,0 212,95 212,212 0,117 -95,212 -212,212 -117,0 -212,-95 -212,-212 0,-117 95,-212 212,-212z"/>
   <path class="fil4" d="M1284 2616l-40 109 -18 0 -30 -80 -29 80 -17 0 -42 -109 23 0 27 76 27 -76 21 0 27 76 27 -76 23 0zm185 0l-40 109 -18 0 -30 -80 -29 80 -17 0 -42 -109 23 0 27 76 27 -76 21 0 27 76 27 -76 23 0zm185 0l-40 109 -18 0 -30 -80 -29 80 -17 0 -42 -109 23 0 27 76 27 -76 21 0 27 76 27 -76 23 0zm21 97c0,-4 1,-8 4,-10 3,-3 7,-4 11,-4 4,0 8,1 11,4 3,3 5,6 5,11 0,4 -2,8 -5,10 -3,3 -7,4 -11,4 -4,0 -8,-1 -11,-4 -3,-3 -4,-6 -4,-10zm72 -91c7,-5 16,-8 26,-8 10,0 19,3 26,8 7,5 11,13 12,23l-20 0c-1,-4 -2,-6 -6,-9 -3,-2 -7,-3 -11,-3 -4,0 -8,1 -11,3 -3,1 -5,4 -6,7 -1,3 -1,6 0,8 2,4 6,6 13,8l16 4c19,5 28,15 28,32 0,10 -4,18 -12,24 -8,6 -18,9 -29,9 -11,0 -21,-3 -29,-10 -8,-6 -12,-15 -13,-26l20 0c1,6 4,10 9,12 5,3 10,4 15,4 6,0 10,-2 13,-4 3,-3 5,-6 5,-10 0,-4 -1,-7 -4,-9 -3,-2 -6,-4 -11,-5l-15 -3c-11,-3 -18,-7 -23,-13 -5,-6 -7,-13 -6,-22 1,-9 5,-16 12,-21zm127 23c-7,7 -10,16 -10,27 0,11 4,20 11,26 7,6 16,9 25,9 10,0 18,-3 25,-10 7,-7 10,-15 10,-26 0,-11 -3,-19 -10,-26 -7,-7 -15,-10 -25,-10 -10,0 -18,3 -25,10zm-32 -28l21 0 0 17c4,-6 9,-11 16,-14 7,-4 14,-5 22,-5 15,0 28,5 39,16 11,11 16,24 16,41 0,17 -5,31 -16,41 -10,10 -23,16 -39,16 -8,0 -16,-2 -23,-5 -7,-3 -12,-8 -15,-14l0 69 -21 0 0 -162zm218 81c7,-7 11,-15 11,-26 0,-11 -4,-20 -11,-26 -7,-6 -16,-10 -26,-10 -10,0 -18,3 -25,10 -7,7 -10,15 -10,26 0,11 3,19 10,26 7,7 15,10 25,10 10,0 19,-3 26,-10zm32 28l-21 0 0 -17c-3,6 -9,10 -16,14 -7,4 -14,5 -23,5 -15,0 -28,-5 -39,-16 -11,-11 -16,-24 -16,-41 0,-17 5,-31 16,-41 11,-11 24,-16 40,-16 8,0 16,2 23,5 7,4 12,8 15,14l0 -16 21 0 0 109zm31 -109l92 0 0 17 -66 71 66 0 0 20 -96 0 0 -18 65 -71 -61 0 0 -20zm197 81c7,-7 11,-15 11,-26 0,-11 -4,-20 -11,-26 -7,-6 -16,-10 -26,-10 -10,0 -18,3 -25,10 -7,7 -10,15 -10,26 0,11 3,19 10,26 7,7 15,10 25,10 10,0 19,-3 26,-10zm32 28l-21 0 0 -17c-3,6 -9,10 -16,14 -7,4 -14,5 -23,5 -15,0 -28,-5 -39,-16 -11,-11 -16,-24 -16,-41 0,-17 5,-31 16,-41 11,-11 24,-16 40,-16 8,0 16,2 23,5 7,4 12,8 15,14l0 -16 21 0 0 109zm132 -59l0 59 -21 0 0 -62c0,-9 -2,-16 -7,-21 -4,-5 -10,-8 -18,-8 -8,0 -15,3 -21,8 -6,5 -9,13 -9,24l0 59 -21 0 0 -109 21 0 0 17c3,-5 7,-10 12,-13 6,-3 12,-5 17,-5 21,-1 35,6 42,22 8,-15 20,-23 38,-23 14,0 24,4 31,13 7,8 11,20 11,36l0 63 -21 0 0 -62c0,-9 -2,-16 -7,-21 -5,-5 -11,-8 -19,-8 -8,0 -15,3 -20,9 -5,6 -8,14 -8,23zm185 30c7,-7 11,-15 11,-26 0,-11 -4,-20 -11,-26 -7,-6 -16,-10 -26,-10 -10,0 -18,3 -25,10 -7,7 -10,15 -10,26 0,11 3,19 10,26 7,7 15,10 25,10 10,0 19,-3 26,-10zm32 28l-21 0 0 -17c-3,6 -9,10 -16,14 -7,4 -14,5 -23,5 -15,0 -28,-5 -39,-16 -11,-11 -16,-24 -16,-41 0,-17 5,-31 16,-41 11,-11 24,-16 40,-16 8,0 16,2 23,5 7,4 12,8 15,14l0 -16 21 0 0 109zm35 0l0 -169 21 0 0 169 -21 0zm57 0l0 -169 21 0 0 169 -21 0zm55 -12c0,-4 1,-8 4,-10 3,-3 7,-4 11,-4 4,0 8,1 11,4 3,3 5,6 5,11 0,4 -2,8 -5,10 -3,3 -7,4 -11,4 -4,0 -8,-1 -11,-4 -3,-3 -4,-6 -4,-10zm115 -99c17,0 31,6 41,18l-16 13c-7,-7 -15,-10 -26,-10 -10,0 -19,3 -26,10 -7,7 -11,15 -11,26 0,11 4,20 11,26 7,7 16,10 26,10 10,0 19,-4 25,-11l16 14c-11,12 -25,18 -41,18 -17,0 -31,-5 -42,-16 -11,-11 -17,-24 -17,-41 0,-17 6,-30 17,-41 11,-11 25,-16 42,-16zm144 83c7,-7 10,-16 10,-26 0,-11 -3,-20 -10,-26 -7,-7 -15,-10 -25,-10 -10,0 -19,3 -26,10 -7,7 -10,15 -10,26 0,11 3,20 10,26 7,7 15,10 26,10 10,0 19,-3 26,-10zm-26 30c-16,0 -29,-5 -41,-16 -11,-11 -17,-24 -17,-41 0,-17 5,-31 16,-41 11,-11 24,-16 41,-16 16,0 30,5 41,16 11,11 17,24 17,41 0,17 -6,30 -17,41 -11,11 -25,16 -40,16zm182 -61l0 59 -21 0 0 -62c0,-9 -2,-16 -7,-21 -4,-5 -10,-8 -18,-8 -8,0 -15,3 -21,8 -6,5 -9,13 -9,24l0 59 -21 0 0 -109 21 0 0 17c3,-5 7,-10 12,-13 6,-3 12,-5 17,-5 21,-1 35,6 42,22 8,-15 20,-23 38,-23 14,0 24,4 31,13 7,8 11,20 11,36l0 63 -21 0 0 -62c0,-9 -2,-16 -7,-21 -5,-5 -11,-8 -19,-8 -8,0 -15,3 -20,9 -5,6 -8,14 -8,23z"/>
   <path class="fil2" d="M1084 3303l3496 0c111,0 201,90 201,201l0 5515c0,111 -90,201 -201,201l-3496 0c-111,0 -201,-90 -201,-201l0 -5515c0,-111 90,-201 201,-201z"/>
   <g>
    <path class="fil5" d="M4493 2711l-54 -60 15 -13 54 60 1 13 -16 1zm16 -1l-7 10 -8 -9 16 -1zm46 -61l-46 61 -16 -12 46 -61 16 12z"/>
   </g>
   <g>
    <path class="fil6" d="M4095 2624l125 95 -13 3c-36,9 -73,-1 -100,-27 -19,-19 -29,-44 -29,-71 0,-67 63,-114 128,-99l13 3 -123 95z"/>
    <path id="1" class="fil5" d="M4218 2722l-125 -95 4 -5 125 95 -1 5 -3 -1zm4 -5l5 4 -6 2 1 -5zm-16 3l13 -3 1 6 -13 3 -1 -6zm-101 -22l4 -4 0 0 2 2 2 2 3 2 3 2 3 2 3 2 3 2 3 2 3 2 3 1 3 1 3 1 3 1 3 1 3 1 3 1 3 1 3 1 3 1 3 0 3 0 3 0 3 0 3 0 3 0 3 0 3 0 3 0 3 0 3 -1 3 -1 3 -1 1 6 -3 1 -3 1 -3 1 -3 0 -3 0 -3 0 -3 0 -3 0 -3 0 -3 0 -3 0 -3 0 -3 -1 -3 -1 -3 -1 -3 -1 -3 -1 -3 -1 -3 -1 -3 -1 -3 -1 -3 -1 -3 -2 -3 -2 -3 -2 -3 -2 -3 -2 -3 -2 -3 -2 -3 -2 -3 -2 -3 -3 0 0zm-30 -73l6 0 0 0 0 2 0 2 0 2 0 2 0 2 0 2 0 2 0 2 0 2 1 2 1 2 1 2 1 2 1 2 1 2 1 2 1 2 1 2 1 2 1 2 1 2 1 2 1 2 1 2 1 2 1 2 1 2 1 2 2 2 2 2 2 2 2 2 -4 4 -2 -2 -2 -2 -2 -2 -2 -2 -2 -2 -2 -2 -1 -2 -1 -2 -1 -2 -1 -2 -1 -2 -1 -2 -1 -2 -1 -2 -1 -2 -1 -2 -1 -2 -1 -2 -1 -2 -1 -2 -1 -2 -1 -2 -1 -2 -1 -2 0 -2 0 -2 0 -3 0 -3 0 -3 0 -3 0 -3 0 -3 0 0zm131 -102l-1 6 0 0 -6 -1 -6 -1 -6 -1 -6 0 -6 0 -6 0 -6 1 -5 1 -5 1 -5 2 -5 2 -5 2 -5 2 -5 3 -5 3 -4 3 -4 3 -4 4 -4 4 -4 4 -3 4 -3 4 -3 5 -3 5 -2 5 -2 5 -2 5 -1 5 -1 6 -1 6 -1 6 0 6 -6 0 0 -6 1 -6 1 -6 1 -6 2 -6 2 -6 2 -6 3 -5 3 -5 3 -5 3 -5 4 -5 4 -4 4 -4 4 -4 5 -4 5 -3 5 -3 5 -3 5 -3 5 -2 6 -2 6 -2 6 -1 6 -1 6 -1 6 0 6 0 6 0 6 1 6 1 6 1 0 0zm12 9l-13 -3 1 -6 13 3 1 5 -3 1zm1 -6l6 2 -5 4 -1 -5zm-126 96l123 -95 4 5 -123 95 -4 0 0 -5zm0 5l-3 -2 3 -2 0 5z"/>
   </g>
   <g>
    <path class="fil7" d="M4259 2715l-123 -95 13 -3c64,-16 128,32 128,99 0,27 -10,52 -29,71 -26,27 -64,36 -100,27l-13 -3 125 -95z"/>
    <path id="1" class="fil8" d="M4138 2617l123 95 -4 5 -123 -95 1 -5 3 1zm-4 5l-5 -4 6 -2 -1 5zm16 -3l-13 3 -1 -6 13 -3 1 6zm130 96l-6 0 0 0 0 -6 -1 -6 -1 -6 -1 -6 -1 -5 -2 -5 -2 -5 -2 -5 -3 -5 -3 -5 -3 -4 -3 -4 -4 -4 -4 -4 -4 -4 -4 -3 -4 -3 -5 -3 -5 -3 -5 -2 -5 -2 -5 -2 -5 -2 -5 -1 -5 -1 -6 -1 -6 0 -6 0 -6 0 -6 1 -6 1 -6 1 -1 -6 6 -1 6 -1 6 -1 6 0 6 0 6 0 6 1 6 1 6 1 6 2 6 2 5 2 5 3 5 3 5 3 5 3 5 4 4 4 4 4 4 4 4 5 3 5 3 5 3 5 3 5 2 6 2 6 2 6 1 6 1 6 1 6 0 6 0 0zm-30 73l-4 -4 0 0 2 -2 2 -2 2 -2 2 -2 1 -2 1 -2 1 -2 1 -2 1 -2 1 -2 1 -2 1 -2 1 -2 1 -2 1 -2 1 -2 1 -2 1 -2 1 -2 1 -2 1 -2 1 -2 1 -2 0 -2 0 -2 0 -2 0 -2 0 -2 0 -2 0 -2 0 -2 0 -2 6 0 0 3 0 3 0 3 0 3 0 3 0 3 0 3 0 2 -1 2 -1 2 -1 2 -1 2 -1 2 -1 2 -1 2 -1 2 -1 2 -1 2 -1 2 -1 2 -1 2 -1 2 -1 2 -1 2 -1 2 -1 2 -2 2 -2 2 -2 2 -2 2 -2 2 -2 2 0 0zm-103 28l1 -6 0 0 3 1 3 1 3 1 3 0 3 0 3 0 3 0 3 0 3 0 3 0 3 0 3 0 3 0 3 -1 3 -1 3 -1 3 -1 3 -1 3 -1 3 -1 3 -1 3 -1 3 -1 3 -2 3 -2 3 -2 3 -2 3 -2 3 -2 3 -2 2 -2 2 -2 4 4 -3 3 -3 2 -3 2 -3 2 -3 2 -3 2 -3 2 -3 2 -3 2 -3 2 -3 1 -3 1 -3 1 -3 1 -3 1 -3 1 -3 1 -3 1 -3 1 -3 1 -3 0 -3 0 -3 0 -3 0 -3 0 -3 0 -3 0 -3 0 -3 0 -3 -1 -3 -1 -3 -1 0 0zm-12 -9l13 3 -1 6 -13 -3 -1 -5 3 -1zm-1 6l-6 -2 5 -4 1 5zm127 -95l-125 95 -4 -5 125 -95 4 0 0 5zm0 -5l3 2 -3 2 0 -5z"/>
   </g>
   <g>
    <path class="fil9" d="M2546 4309l-12 51 -1017 232c-29,10 -45,36 -46,77l9 1093c-5,32 7,39 31,29l1027 -393 122 30 -1123 428c-27,16 -143,-17 -151,-56l-12 -1146c-2,-55 26,-88 79,-101l1094 -244z"/>
    <polygon class="fil9" points="3983,5066 4186,5109 4187,5159 3979,5105 "/>
    <path class="fil9" d="M4114 4516l-1129 325c-90,19 -128,65 -113,142l-19 1201c3,69 134,102 176,79l1191 -571c47,-13 66,-51 71,-102l-7 -1015c-8,-51 -60,-73 -170,-58zm67 45l-1126 325c-48,20 -72,55 -67,105l-26 1205 1195 -565c25,-9 33,-37 34,-71l-10 -999z"/>
    <path class="fil10" d="M3936 5246l-148 18c38,-77 45,-161 32,-251 18,0 28,-14 30,-40l51 -333 164 -48c-33,220 -67,427 -105,607l-9 33 -15 13zm-25 -672l97 -640 18 -76 14 -19 17 -13 23 -3 29 0 32 2 20 0 8 5 0 27 -9 48c-28,211 -56,421 -85,620l-164 47z"/>
    <path class="fil11" d="M4169 3831l-18 -22 -49 -24 -60 -15 -76 -16c-401,-72 -802,-117 -1203,-130l-50 11 -51 32 -22 59 -29 98c-16,186 -37,367 -76,526l-69 354c251,30 476,61 667,93l779 -224 109 -696c7,-32 24,-48 46,-54l101 7zm-896 992c303,58 499,121 547,192 21,-1 32,-19 32,-56l50 -317 -629 182z"/>
    <path class="fil10" d="M1476 4838l27 -20 87 -32 153 -29 208 -31 202 -12 155 -9 145 2 29 -6c236,31 459,63 653,96l-150 43c-90,19 -128,65 -113,142l-2 152 -2 0 -1392 -296zm1798 -16c297,57 503,119 547,192 15,90 2,173 -32,251l-802 140 -7 5 9 -419c-5,-50 18,-84 67,-105l219 -63z"/>
    <polygon class="fil11" points="1474,5135 1472,4843 1489,4838 1734,4894 2868,5134 2867,5272 2864,5479 "/>
   </g>
   <path class="fil12" d="M1212 7966l3230 0c58,0 106,48 106,106l0 262c0,58 -48,106 -106,106l-3230 0c-58,0 -106,-48 -106,-106l0 -262c0,-58 48,-106 106,-106z"/>
   <path class="fil4" d="M2437 8844l-13 -34 -57 0 -13 34 -19 0 51 -134 20 0 51 134 -19 0zm-42 -110l-22 60 44 0 -22 -60zm140 86c6,-6 9,-13 9,-22 0,-9 -3,-16 -9,-22 -6,-5 -13,-8 -21,-8 -8,0 -15,3 -21,8 -6,6 -8,13 -8,22 0,9 3,16 8,22 6,6 13,8 21,8 8,0 15,-3 21,-8zm27 24l-18 0 0 -14c-3,5 -7,9 -13,12 -6,3 -12,4 -19,4 -13,0 -24,-4 -33,-13 -9,-9 -13,-20 -13,-34 0,-14 4,-25 13,-34 9,-9 20,-13 33,-13 7,0 13,1 19,4 6,3 10,7 13,12l0 -63 18 0 0 141zm93 -24c6,-6 9,-13 9,-22 0,-9 -3,-16 -9,-22 -6,-5 -13,-8 -21,-8 -8,0 -15,3 -21,8 -6,6 -8,13 -8,22 0,9 3,16 8,22 6,6 13,8 21,8 8,0 15,-3 21,-8zm27 24l-18 0 0 -14c-3,5 -7,9 -13,12 -6,3 -12,4 -19,4 -13,0 -24,-4 -33,-13 -9,-9 -13,-20 -13,-34 0,-14 4,-25 13,-34 9,-9 20,-13 33,-13 7,0 13,1 19,4 6,3 10,7 13,12l0 -63 18 0 0 141zm105 -124l0 33 19 0 0 16 -19 0 0 75 -18 0 0 -75 -16 0 0 -16 16 0 0 -33 18 0zm102 101c6,-6 9,-13 9,-22 0,-9 -3,-16 -9,-22 -6,-5 -13,-8 -21,-8 -8,0 -16,3 -21,8 -6,6 -9,13 -9,22 0,9 3,16 9,22 6,6 13,9 21,9 9,0 16,-3 21,-8zm-21 25c-13,0 -25,-4 -34,-13 -9,-9 -14,-20 -14,-34 0,-14 5,-26 14,-34 9,-9 20,-13 34,-13 14,0 25,4 34,13 9,9 14,20 14,34 0,14 -5,25 -14,34 -9,9 -21,13 -34,13zm165 -95c14,0 26,5 35,15l-14 11c-6,-6 -13,-9 -21,-9 -9,0 -16,3 -22,8 -6,5 -9,13 -9,22 0,9 3,16 9,22 6,6 13,9 22,9 9,0 16,-3 21,-9l14 11c-9,10 -21,15 -34,15 -14,0 -26,-4 -35,-13 -10,-9 -14,-20 -14,-34 0,-14 5,-25 14,-34 9,-9 21,-13 35,-13zm120 69c6,-5 9,-13 9,-22 0,-9 -3,-17 -9,-22 -6,-5 -13,-8 -22,-8 -8,0 -15,3 -21,8 -6,5 -8,13 -8,22 0,9 3,16 9,22 6,6 13,9 21,9 8,0 16,-3 21,-8zm27 24l-18 0 0 -14c-3,5 -7,9 -13,12 -6,3 -12,4 -19,4 -13,0 -24,-4 -33,-13 -9,-9 -13,-20 -13,-34 0,-14 4,-25 13,-34 9,-9 20,-13 33,-13 7,0 13,1 19,4 6,3 10,7 13,12l0 -14 18 0 0 91zm47 -33l0 33 -18 0 0 -91 18 0 0 21c4,-15 13,-22 25,-22 7,0 12,1 16,3l-3 17c-4,-2 -8,-3 -13,-3 -8,0 -14,4 -18,12 -4,8 -6,18 -6,31zm84 -91l0 33 19 0 0 16 -19 0 0 75 -18 0 0 -75 -16 0 0 -16 16 0 0 -33 18 0z"/>
   <rect class="fil13" x="1112" y="6494" width="1330" height="154" rx="43" ry="43"/>
   <rect class="fil13" x="3815" y="6494" width="719" height="154" rx="23" ry="43"/>
   <rect class="fil13" x="1129" y="7482" width="1330" height="154" rx="43" ry="43"/>
   <rect class="fil13" x="1112" y="6935" width="3448" height="154" rx="110" ry="43"/>
   <rect class="fil13" x="1112" y="7210" width="3426" height="154" rx="110" ry="43"/>
   <path class="fil4" d="M1937 8256c-13,-14 -20,-30 -20,-50 0,-19 7,-36 20,-50 14,-14 30,-21 51,-21 20,0 37,8 50,23l-14 12c-10,-11 -23,-17 -37,-17 -15,0 -27,5 -37,15 -10,10 -15,23 -15,37 0,15 5,27 15,37 10,10 22,15 37,15 15,0 27,-6 37,-18l14 12c-13,16 -30,24 -51,24 -20,0 -37,-7 -51,-20zm140 -32l0 50 -18 0 0 -144 18 0 0 65c3,-5 7,-9 13,-12 6,-3 12,-4 18,-4 12,0 21,4 28,11 7,7 10,17 10,30l0 54 -18 0 0 -53c0,-8 -2,-14 -6,-18 -4,-5 -9,-7 -16,-7 -7,0 -13,2 -19,7 -6,4 -9,11 -9,20zm185 3c0,4 0,6 0,7l-76 0c1,8 4,14 10,19 6,5 12,7 19,7 13,0 23,-5 28,-14 0,0 0,0 1,0 0,0 1,0 1,1 1,0 2,1 3,1 1,0 2,1 3,1l8 3c-4,8 -10,14 -17,18 -8,4 -16,6 -26,6 -13,0 -25,-4 -34,-14 -9,-9 -14,-21 -14,-35 0,-15 4,-26 13,-35 9,-9 20,-13 34,-13 14,0 25,4 33,13 9,9 13,21 13,35zm-27 -25c-5,-4 -12,-7 -19,-7 -8,0 -14,2 -20,7 -5,5 -9,11 -10,18l58 0c-1,-8 -4,-14 -9,-18zm94 -23c14,0 26,5 35,15l-14 12c-6,-6 -13,-9 -22,-9 -9,0 -16,3 -22,9 -6,6 -9,13 -9,22 0,9 3,17 9,23 6,6 14,9 22,9 9,0 16,-3 22,-9l14 12c-9,10 -21,15 -35,15 -14,0 -26,-4 -36,-13 -10,-9 -15,-21 -15,-35 0,-14 5,-26 14,-35 10,-9 21,-14 36,-14zm76 95l-18 0 0 -144 18 0 0 83 32 -32 25 0 -40 40 49 53 -24 0 -42 -46 0 46zm146 -24c6,-6 9,-13 9,-23 0,-9 -3,-17 -9,-22 -6,-6 -13,-8 -22,-9 -9,0 -16,3 -22,8 -6,6 -9,13 -9,22 0,9 3,17 9,23 6,6 13,9 22,9 9,0 16,-3 22,-9zm-22 26c-14,0 -25,-4 -35,-13 -10,-9 -14,-21 -14,-35 0,-14 5,-26 14,-35 9,-9 21,-13 35,-13 14,0 25,4 35,13 9,9 14,21 14,35 0,14 -5,26 -14,35 -9,9 -21,14 -35,14zm137 -45l0 -50 18 0 0 93 -18 0 0 -14c-3,5 -7,9 -12,12 -5,3 -11,4 -17,4 -12,0 -20,-4 -27,-11 -6,-7 -9,-17 -9,-30l0 -54 18 0 0 53c0,8 2,14 5,18 4,4 9,7 16,7 7,0 13,-2 18,-7 5,-5 7,-11 7,-20zm73 -84l0 34 20 0 0 16 -20 0 0 77 -18 0 0 -77 -17 0 0 -16 17 0 0 -34 18 0zm230 34l-34 93 -15 0 -25 -68 -25 68 -15 0 -35 -93 19 0 23 65 23 -65 18 0 23 65 23 -65 19 0zm19 -26c-2,-2 -4,-5 -4,-8 0,-3 1,-6 4,-8 3,-2 6,-3 9,-3 3,0 6,1 9,3 3,2 4,5 4,8 0,3 -1,6 -4,8 -3,2 -5,3 -9,3 -3,0 -6,-1 -9,-3zm18 119l-18 0 0 -93 18 0 0 93zm55 -127l0 34 20 0 0 16 -20 0 0 77 -18 0 0 -77 -17 0 0 -16 17 0 0 -34 18 0zm58 77l0 50 -18 0 0 -144 18 0 0 65c3,-5 7,-9 13,-12 6,-3 12,-4 18,-4 12,0 21,4 28,11 7,7 10,17 10,30l0 54 -18 0 0 -53c0,-8 -2,-14 -6,-18 -4,-5 -9,-7 -16,-7 -7,0 -13,2 -19,7 -6,4 -9,11 -9,20z"/>
   <path class="fil5" d="M3790 8225c0,4 0,7 0,10l-80 0c0,8 3,15 9,20 6,5 14,7 24,7 7,0 13,-1 17,-3 8,-4 11,-10 30,-10 -2,8 -7,15 -16,20 -9,5 -19,8 -31,8 -16,0 -28,-4 -38,-13 -9,-8 -14,-20 -14,-34 0,-9 2,-17 6,-24 4,-7 10,-13 18,-16 8,-4 17,-6 27,-6 10,0 18,2 25,5 7,4 13,8 17,15 4,6 6,14 6,22zm-19 -3c0,-8 -3,-14 -8,-19 -5,-5 -13,-7 -22,-7 -9,0 -17,2 -22,7 -6,5 -9,11 -9,18l61 0z"/>
   <path class="fil5" d="M3638 8277c-8,0 -16,-1 -22,-4 -6,-3 -12,-6 -15,-10 -4,-4 -5,-9 -5,-15 17,0 15,3 26,11 4,3 10,4 18,4 6,0 10,-1 14,-3 3,-2 5,-5 5,-9 0,-3 -1,-6 -3,-8 -2,-2 -6,-4 -12,-5l-21 -5c-8,-2 -13,-5 -17,-9 -4,-4 -6,-9 -6,-16 0,-7 4,-14 11,-18 7,-5 16,-7 28,-7 12,0 22,2 29,7 7,5 11,11 11,20 -17,1 -17,-4 -25,-10 -4,-3 -9,-4 -16,-4 -6,0 -10,1 -13,3 -3,2 -5,5 -5,9 0,3 1,5 3,7 2,2 6,4 12,5l21 5c8,2 14,5 18,9 4,4 6,9 6,16 0,8 -4,15 -11,20 -7,5 -17,7 -29,7z"/>
   <path class="fil5" d="M3560 8185l0 79c0,8 7,10 17,10l0 -77c-1,-9 -7,-12 -17,-12z"/>
   <path class="fil5" d="M3570 8169c-3,0 -5,-1 -7,-3 -2,-2 -3,-4 -3,-7 0,-3 1,-5 3,-7 2,-2 4,-3 7,-3 3,0 5,1 7,3 2,2 3,4 3,7 0,3 -1,5 -3,7 -2,2 -4,3 -7,3z"/>
   <path class="fil5" d="M3490 8276c-11,-1 -20,-2 -28,-6 -8,-4 -14,-10 -18,-17 -4,-7 -6,-15 -6,-24 0,-9 2,-17 6,-24 4,-7 10,-13 18,-17 8,-4 17,-6 27,-6 10,0 33,4 36,14 1,-9 7,-11 15,-11l0 78c0,8 -6,10 -15,10l0 -11c-6,9 -29,14 -37,13zm3 -15c11,0 19,-3 26,-9 6,-6 9,-14 9,-23 0,-9 -3,-17 -9,-23 -6,-6 -15,-9 -26,-9 -10,0 -19,3 -25,9 -6,6 -9,14 -9,23 0,9 3,17 9,23 6,6 15,9 25,9z"/>
   <polygon class="fil6" points="3338,8205 3338,8276 3268,8276 "/>
   <polygon class="fil6" points="3261,8199 3331,8199 3261,8270 "/>
   <polygon class="fil6" points="3332,8190 3261,8190 3261,8118 "/>
   <polygon class="fil6" points="3268,8112 3338,8112 3338,8183 "/>
   <path class="fil6" d="M3404 8140c12,13 20,31 21,50l-70 0 49 -50z"/>
   <path class="fil6" d="M3398 8134l-50 50 0 -71c19,1 36,9 50,21z"/>
   <path class="fil2" d="M1070 1204l3524 0c105,0 191,86 191,191l0 472c0,105 -86,191 -191,191l-3524 0c-105,0 -191,-86 -191,-191l0 -472c0,-105 86,-191 191,-191z"/>
   <g>
    <path class="fil5" d="M1823 1670c0,5 0,10 -1,13l-107 0c0,11 4,20 12,27 8,6 18,10 31,10 9,0 17,-1 23,-5 11,-6 15,-14 39,-13 -2,11 -9,20 -21,27 -12,7 -25,10 -42,10 -21,0 -38,-6 -50,-17 -12,-11 -19,-26 -19,-46 0,-12 3,-23 8,-33 6,-9 13,-17 24,-22 10,-5 22,-8 36,-8 13,0 24,2 34,7 10,5 18,11 23,20 5,8 8,18 8,29zm-25 -4c0,-10 -4,-19 -11,-25 -7,-6 -17,-9 -29,-9 -12,0 -22,3 -30,9 -7,6 -12,14 -12,24l82 0z"/>
    <path class="fil5" d="M1619 1739c-11,0 -21,-2 -29,-5 -9,-3 -15,-8 -20,-14 -5,-6 -7,-12 -7,-20 23,0 20,4 35,15 6,4 14,6 24,6 8,0 14,-2 19,-5 5,-3 7,-7 7,-12 0,-4 -1,-8 -4,-10 -3,-3 -8,-5 -16,-7l-28 -6c-10,-2 -18,-6 -23,-12 -5,-6 -8,-12 -8,-21 0,-10 5,-18 14,-24 10,-6 22,-10 37,-10 16,0 29,3 39,10 9,6 14,15 14,26 -23,1 -22,-6 -33,-14 -5,-3 -12,-5 -21,-5 -7,0 -13,1 -18,4 -5,3 -7,7 -7,11 0,4 2,7 5,10 3,3 8,5 15,7l28 7c10,2 18,6 24,12 6,6 8,13 8,21 0,11 -5,20 -14,26 -10,6 -23,10 -39,10z"/>
    <path class="fil5" d="M1516 1617l0 105c1,11 9,13 23,14l0 -102c-1,-13 -10,-17 -23,-16z"/>
    <path class="fil14" d="M1528 1596c-4,0 -7,-1 -10,-4 -3,-3 -4,-6 -4,-9 0,-4 1,-7 4,-10 3,-3 6,-4 10,-4 4,0 7,1 10,4 3,3 4,6 4,10 0,4 -1,7 -4,9 -3,3 -6,4 -10,4z"/>
    <path class="fil5" d="M1422 1739c-14,-1 -26,-3 -37,-8 -10,-5 -18,-13 -23,-22 -5,-9 -8,-20 -8,-32 0,-12 3,-22 8,-32 6,-10 14,-17 24,-23 10,-5 23,-9 36,-8 14,0 43,5 48,19 1,-11 9,-15 20,-14l0 104c-1,10 -8,14 -20,14l0 -14c-8,12 -39,18 -49,17zm4 -20c15,0 26,-4 34,-12 8,-8 12,-18 12,-30 0,-12 -4,-22 -12,-30 -8,-8 -20,-12 -34,-12 -14,0 -25,4 -33,12 -8,8 -13,18 -13,31 0,12 4,22 13,30 8,8 20,12 33,12z"/>
    <polygon class="fil15" points="1220,1644 1220,1739 1125,1739 "/>
    <polygon class="fil6" points="1117,1635 1211,1635 1117,1730 "/>
    <polygon class="fil15" points="1211,1624 1117,1624 1117,1528 "/>
    <polygon class="fil6" points="1126,1520 1220,1520 1220,1614 "/>
    <path class="fil16" d="M1308 1557c16,18 26,41 28,67l-94 0 66 -67z"/>
    <path class="fil7" d="M1299 1548l-66 67 0 -95c25,2 48,12 66,28z"/>
   </g>
  </g>
 </g>
</svg>
