<?xml version="1.0" encoding="UTF-8"?>
<!DOCTYPE svg PUBLIC "-//W3C//DTD SVG 1.1//EN" "http://www.w3.org/Graphics/SVG/1.1/DTD/svg11.dtd">
<!-- Creator: CorelDRAW X6 -->
<svg xmlns="http://www.w3.org/2000/svg" xml:space="preserve" width="294.64mm" height="183.014mm" version="1.1" style="shape-rendering:geometricPrecision; text-rendering:geometricPrecision; image-rendering:optimizeQuality; fill-rule:evenodd; clip-rule:evenodd"
viewBox="0 0 29331 18219"
 xmlns:xlink="http://www.w3.org/1999/xlink">
 <defs>
  <style type="text/css">
   <![CDATA[
    .str3 {stroke:#DBD8C8;stroke-width:19.9099}
    .str4 {stroke:#13ECAB;stroke-width:25.2856}
    .str0 {stroke:#13ECAB;stroke-width:42.1394}
    .str1 {stroke:#FEB434;stroke-width:42.1394}
    .str2 {stroke:#DBD8C8;stroke-width:15.1017}
    .fil13 {fill:none}
    .fil8 {fill:none;fill-rule:nonzero}
    .fil16 {fill:#DBD6C7}
    .fil15 {fill:#DBD8C7}
    .fil6 {fill:#DBD8C8}
    .fil20 {fill:#DFC07E}
    .fil4 {fill:#C834F7}
    .fil2 {fill:#F5A9AC}
    .fil29 {fill:#F78D92}
    .fil1 {fill:#F79436}
    .fil3 {fill:#F8B5B8}
    .fil5 {fill:#13ECAB}
    .fil27 {fill:#FDE89E}
    .fil11 {fill:#FEB434}
    .fil28 {fill:#FFDA99}
    .fil0 {fill:white}
    .fil7 {fill:#4C565D;fill-rule:nonzero}
    .fil30 {fill:#13ECAB;fill-rule:nonzero}
    .fil14 {fill:#DBD8C8;fill-opacity:0.6}
    .fil12 {fill:#C834F7;fill-opacity:0.6}
    .fil9 {fill:#13ECAB;fill-opacity:0.6}
    .fil10 {fill:#FEB434;fill-opacity:0.6}
    .fil26 {fill:url(#id0)}
    .fil23 {fill:url(#id1)}
    .fil17 {fill:url(#id2)}
    .fil19 {fill:url(#id3)}
    .fil18 {fill:url(#id4)}
    .fil25 {fill:url(#id5)}
    .fil22 {fill:url(#id6)}
    .fil24 {fill:url(#id7)}
    .fil21 {fill:url(#id8)}
   ]]>
  </style>
  <linearGradient id="id0" gradientUnits="objectBoundingBox" x1="1.0599%" y1="14.4394%" x2="98.9401%" y2="85.5606%">
   <stop offset="0" style="stop-color:#13ECAB"/>
   <stop offset="1" style="stop-color:#4C57FF"/>
  </linearGradient>
  <linearGradient id="id1" gradientUnits="objectBoundingBox" x1="47.6344%" y1="2.76084%" x2="52.3656%" y2="97.2392%">
   <stop offset="0" style="stop-color:#4C57FF"/>
   <stop offset="1" style="stop-color:#13ECAB"/>
  </linearGradient>
  <linearGradient id="id2" gradientUnits="objectBoundingBox" xlink:href="#id0" x1="14.2243%" y1="16.8035%" x2="85.7757%" y2="83.1965%">
  </linearGradient>
  <linearGradient id="id3" gradientUnits="objectBoundingBox" xlink:href="#id0" x1="84.6779%" y1="71.5446%" x2="15.3221%" y2="28.4549%">
  </linearGradient>
  <linearGradient id="id4" gradientUnits="objectBoundingBox" xlink:href="#id0" x1="20.4664%" y1="64.8119%" x2="79.5333%" y2="35.1876%">
  </linearGradient>
  <linearGradient id="id5" gradientUnits="objectBoundingBox" xlink:href="#id0" x1="26.8179%" y1="79.585%" x2="73.1821%" y2="20.415%">
  </linearGradient>
  <linearGradient id="id6" gradientUnits="objectBoundingBox" xlink:href="#id0" x1="55.2136%" y1="21.3%" x2="44.786%" y2="78.6997%">
  </linearGradient>
  <linearGradient id="id7" gradientUnits="objectBoundingBox" xlink:href="#id1" x1="97.9785%" y1="33.3588%" x2="2.0215%" y2="66.6409%">
  </linearGradient>
  <linearGradient id="id8" gradientUnits="objectBoundingBox" xlink:href="#id0" x1="73.8995%" y1="27.4209%" x2="26.1005%" y2="72.5791%">
  </linearGradient>
 </defs>
 <g id="Layer_x0020_1">
  <metadata id="CorelCorpID_0Corel-Layer"/>
  <path class="fil0" d="M27199 1011l0 13688c0,556 -455,1011 -1011,1011l-23650 0c-556,0 -1011,-455 -1011,-1011l0 -13688c0,-556 455,-1011 1011,-1011l23650 0c556,0 1011,455 1011,1011z"/>
  <path class="fil1" d="M7073 15722l20045 0c41,0 143,8 173,-11 -2253,0 -32857,11 -20218,11z"/>
  <path class="fil2" d="M26956 230c0,-18 4,-12 -17,-12 0,18 -4,12 17,12z"/>
  <path class="fil2" d="M27811 1051c0,-20 6,-17 -11,-17 0,20 -6,17 11,17z"/>
  <path class="fil3" d="M26898 219c0,-17 4,-12 -15,-12 0,17 -4,12 15,12z"/>
  <polygon class="fil2" points="27581,600 27569,589 "/>
  <polygon class="fil2" points="27857,1271 27846,1246 "/>
  <polygon class="fil3" points="2764,80 2750,91 "/>
  <path class="fil4" d="M25608 14624l-22589 0c-328,0 -596,-268 -596,-596l0 -12537c0,-328 268,-596 596,-596l22589 0c328,0 596,268 596,596l0 12537c0,328 -268,596 -596,596zm581 1085l-23650 0c-556,0 -1011,-455 -1011,-1011l0 -13688c0,-556 455,-1011 1011,-1011l23650 0c556,0 1011,455 1011,1011l0 13688c0,556 -455,1011 -1011,1011z"/>
  <path class="fil4" d="M27800 1034c17,0 11,-4 11,17 6,67 35,118 35,195l11 24 6 13341c-16,11 -3,6 -30,13l-23632 -11c-32,80 -7,941 -6,1095l23096 2c215,-2 439,-117 552,-223 66,-61 136,-132 186,-207 34,-51 112,-205 118,-275 0,-18 -5,-61 12,-61 1,-52 12,-42 11,-101 0,-21 -6,-17 12,-17 60,-21 549,-6 659,-6 0,255 -19,462 -169,676 -57,82 -117,138 -192,201 -288,238 -607,199 -1003,199l-23278 0 -5 35c76,-28 2660,-11 2973,-11 6946,0 13893,0 20839,0 0,-17 -4,-11 15,-11l54 0c0,-17 -4,-11 15,-11 76,-2 212,-64 266,-92 37,-19 71,-43 106,-68 38,-28 68,-59 101,-83l11 -12 13 -12c20,-29 37,-39 61,-66 23,-26 38,-52 57,-81 30,-45 77,-121 90,-176 0,-19 -5,-15 12,-15 19,-70 36,-117 50,-201 5,-32 7,-75 8,-120l0 -119 0 -51 0 43 -682 -47 0 -185 -301 0 0 -12508c0,-277 20,-636 -15,-887 -29,-206 -112,-390 -235,-552 -22,-29 -34,-39 -51,-64l-11 -12c-37,-53 -77,-76 -125,-119 -45,-41 -92,-68 -142,-101 -60,-40 -256,-137 -347,-138 -20,0 -17,6 -17,-12l-41 0c-19,0 -15,5 -15,-12l-54 11c-8,-2 -25,-4 -34,-4 -2,0 -8,5 -9,2 -2,-3 -6,2 -9,3 124,2 275,54 365,91 249,100 477,323 596,560 14,28 59,137 62,165z"/>
  <path class="fil4" d="M1064 1034c-17,0 -11,-4 -11,17 -6,67 -35,118 -35,195l-11 24 -6 13341c16,11 3,6 30,13l23632 -11c32,80 7,941 6,1095l-23096 2c-215,-2 -439,-117 -552,-223 -66,-61 -136,-132 -186,-207 -34,-51 -112,-205 -118,-275 0,-18 5,-61 -12,-61 -1,-52 -12,-42 -11,-101 0,-21 6,-17 -12,-17 -60,-21 -549,-6 -659,-6 0,255 19,462 169,676 57,82 117,138 192,201 288,238 607,199 1003,199l23278 0 5 35c-76,-28 -2660,-12 -2973,-12 -6946,0 -13893,0 -20839,0 0,-17 4,-11 -15,-11l-54 0c0,-17 4,-11 -15,-11 -76,-2 -212,-64 -266,-92 -37,-19 -71,-43 -106,-68 -38,-28 -68,-59 -101,-83l-11 -12 -13 -12c-20,-29 -37,-39 -61,-66 -23,-26 -38,-52 -57,-81 -30,-45 -77,-121 -90,-176 0,-19 5,-15 -12,-15 -19,-70 -36,-117 -50,-201 -5,-32 -7,-75 -8,-120l0 -119 0 -51 0 43 682 -47 0 -185 301 0 0 -12508c0,-277 -20,-636 15,-887 29,-206 112,-390 235,-552 22,-29 34,-39 51,-64l11 -12c37,-53 77,-76 125,-119 45,-41 92,-68 142,-101 60,-40 256,-137 347,-138 20,0 17,6 17,-12l41 0c19,0 15,5 15,-12l54 11c8,-2 25,-4 34,-4 2,0 8,5 9,2 2,-3 6,2 9,3 -124,2 -275,54 -365,91 -249,100 -477,323 -596,560 -14,28 -59,137 -62,165z"/>
  <path class="fil0" d="M22300 1371l5799 0c678,0 1233,555 1233,1233l0 14383c0,678 -555,1233 -1233,1233l-5799 0c-678,0 -1233,-555 -1233,-1233l0 -14383c0,-678 555,-1233 1233,-1233z"/>
  <path class="fil5" d="M22266 1874l883 0 0 320c0,213 174,388 388,388l3326 0c213,0 388,-174 388,-388l0 -320 867 0c393,0 714,321 714,714l0 14374c0,393 -321,714 -714,714l-5852 0c-393,0 -714,-321 -714,-714l0 -14374c0,-393 321,-714 714,-714zm34 -503l5799 0c678,0 1233,555 1233,1233l0 14383c0,678 -555,1233 -1233,1233l-5799 0c-678,0 -1233,-555 -1233,-1233l0 -14383c0,-678 555,-1233 1233,-1233z"/>
  <path class="fil4" d="M24370 2061c27,47 44,42 109,43l1860 16c71,0 227,20 221,-71 -4,-58 -56,-44 -117,-43 -598,9 -1235,-11 -1847,-4 -44,0 -96,0 -139,3 -60,5 -70,11 -86,56z"/>
  <path class="fil4" d="M23844 2079c22,9 61,30 92,7 23,-17 32,-64 18,-92 -26,-49 -139,-45 -109,85z"/>
  <rect class="fil6" x="21552" y="15609" width="7279.87" height="29.8681"/>
  <path class="fil7" d="M3459 1948l80 0 67 219c9,-31 24,-87 46,-170l61 0 46 170 68 -219 80 0 -118 347 -58 0 -49 -182 -48 182 -58 0 -117 -347z"/>
  <path id="1" class="fil7" d="M3917 2242c-11,-19 -17,-40 -17,-64 0,-24 6,-45 17,-64 11,-19 26,-33 44,-43 19,-10 39,-15 62,-15 17,0 32,3 47,9 15,6 28,14 38,25 11,11 19,24 26,39 6,16 9,32 9,51 0,6 0,13 -1,22l-172 0c2,13 8,23 20,29 11,7 24,10 38,10 10,0 20,-2 29,-6 9,-4 17,-9 22,-17l51 35c-11,16 -26,28 -45,36 -19,8 -40,11 -62,11 -22,0 -43,-5 -62,-15 -19,-10 -33,-25 -44,-44zm54 -85l102 0c-2,-13 -7,-22 -17,-29 -10,-7 -21,-10 -32,-10 -11,0 -22,3 -33,10 -10,6 -17,16 -20,29z"/>
  <polygon id="2" class="fil7" points="4192,2295 4192,1932 4261,1932 4261,2295 "/>
  <path id="3" class="fil7" d="M4312 2177c0,-18 3,-35 10,-50 7,-15 16,-28 28,-39 12,-10 25,-19 41,-24 15,-6 31,-9 48,-9 21,0 40,4 58,13 18,9 33,21 44,37l-57 41c-5,-7 -11,-13 -19,-18 -8,-4 -17,-6 -26,-6 -16,0 -29,5 -41,16 -12,10 -18,24 -18,40 0,16 6,30 18,41 12,11 25,16 41,16 9,0 18,-2 26,-6 8,-4 15,-10 19,-18l57 40c-11,16 -26,28 -44,37 -18,9 -38,13 -59,13 -23,0 -44,-5 -63,-15 -19,-10 -35,-25 -47,-44 -12,-19 -18,-40 -18,-64z"/>
  <path id="4" class="fil7" d="M4573 2177c0,-24 6,-45 17,-64 11,-19 26,-33 44,-43 18,-10 39,-15 61,-15 22,0 42,5 61,15 19,10 33,24 45,43 11,19 17,40 17,64 0,23 -6,45 -17,64 -11,19 -26,34 -45,44 -18,10 -39,15 -61,15 -22,0 -42,-5 -61,-15 -18,-10 -33,-24 -44,-43 -11,-19 -17,-40 -17,-64zm69 0c0,16 5,28 15,38 10,10 23,15 38,15 15,0 28,-5 38,-15 10,-10 15,-22 15,-38 0,-15 -5,-28 -16,-38 -10,-10 -23,-15 -38,-15 -15,0 -27,5 -38,15 -10,10 -15,22 -15,38z"/>
  <path id="5" class="fil7" d="M4868 2295l0 -235 69 0 0 34c5,-12 14,-21 25,-28 11,-7 24,-10 37,-10 37,0 62,14 75,41 17,-27 41,-41 71,-41 28,0 51,9 66,27 16,18 24,45 24,79l0 134 -69 0 0 -126c0,-15 -4,-26 -11,-35 -7,-8 -17,-12 -28,-12 -12,0 -22,4 -29,12 -7,8 -11,20 -11,36l0 125 -69 0 0 -128c0,-14 -4,-26 -11,-34 -8,-8 -17,-12 -27,-12 -12,0 -22,4 -29,11 -8,8 -12,20 -12,36l0 125 -69 0z"/>
  <path id="6" class="fil7" d="M5300 2242c-11,-19 -17,-40 -17,-64 0,-24 6,-45 17,-64 11,-19 26,-33 44,-43 19,-10 39,-15 62,-15 17,0 32,3 47,9 15,6 28,14 38,25 11,11 19,24 26,39 6,16 9,32 9,51 0,6 0,13 -1,22l-172 0c2,13 8,23 20,29 11,7 24,10 38,10 10,0 20,-2 29,-6 9,-4 17,-9 22,-17l51 35c-11,16 -26,28 -45,36 -19,8 -40,11 -62,11 -22,0 -43,-5 -62,-15 -19,-10 -33,-25 -44,-44zm54 -85l102 0c-2,-13 -7,-22 -17,-29 -10,-7 -21,-10 -32,-10 -11,0 -22,3 -33,10 -10,6 -17,16 -20,29z"/>
  <path id="7" class="fil7" d="M5697 2295l0 -363 69 0 0 157c6,-11 15,-19 27,-25 13,-6 26,-9 42,-9 15,0 30,3 43,9 14,6 26,14 36,24 10,10 19,23 25,39 6,16 9,33 9,51 0,18 -3,35 -9,50 -6,15 -15,28 -25,39 -10,10 -22,18 -36,24 -14,6 -28,9 -43,9 -15,0 -29,-3 -41,-9 -13,-6 -22,-14 -28,-25l0 29 -69 0zm71 -118c0,16 5,30 16,41 11,11 23,16 38,16 15,0 28,-5 39,-16 10,-10 16,-24 16,-41 0,-17 -5,-30 -16,-40 -10,-10 -23,-16 -39,-16 -15,0 -28,5 -39,15 -11,10 -16,24 -16,41z"/>
  <path id="8" class="fil7" d="M5985 2178c0,-18 3,-35 10,-51 7,-16 16,-29 27,-39 11,-10 24,-18 38,-24 14,-6 29,-9 44,-9 6,0 13,1 20,2 7,1 16,5 25,10 10,5 17,11 23,20l0 -26 69 0 0 235 -69 0 0 -27c-7,10 -17,18 -31,23 -14,5 -26,8 -38,8 -20,0 -40,-5 -58,-15 -18,-10 -33,-24 -45,-43 -12,-19 -18,-41 -18,-65zm90 -40c-12,11 -18,24 -18,40 0,16 6,30 18,40 12,10 26,16 41,16 15,0 29,-5 40,-15 11,-10 17,-24 17,-40 0,-17 -6,-30 -17,-41 -11,-10 -25,-15 -40,-15 -15,0 -29,5 -41,16z"/>
  <path id="9" class="fil7" d="M6294 2177c0,-18 3,-35 10,-50 7,-15 16,-28 28,-39 12,-10 25,-19 41,-24 15,-6 31,-9 48,-9 21,0 40,4 58,13 18,9 33,21 44,37l-57 41c-5,-7 -11,-13 -19,-18 -8,-4 -17,-6 -26,-6 -16,0 -29,5 -41,16 -12,10 -18,24 -18,40 0,16 6,30 18,41 12,11 25,16 41,16 9,0 18,-2 26,-6 8,-4 15,-10 19,-18l57 40c-11,16 -26,28 -44,37 -18,9 -38,13 -59,13 -23,0 -44,-5 -63,-15 -19,-10 -35,-25 -47,-44 -12,-19 -18,-40 -18,-64z"/>
  <polygon id="10" class="fil7" points="6572,2295 6572,1932 6641,1932 6641,2125 6697,2060 6786,2060 6689,2164 6806,2295 6720,2295 6641,2202 6641,2295 "/>
  <path id="11" class="fil7" d="M6877 2406l7 -67c11,4 26,6 44,6 14,0 24,-4 30,-13 6,-9 10,-20 10,-34l0 -348 74 0 0 348c0,13 -1,25 -4,37 -3,11 -7,22 -12,32 -6,10 -13,19 -21,26 -9,7 -19,13 -32,17 -13,4 -27,6 -44,6 -10,0 -27,-3 -51,-8z"/>
  <path id="12" class="fil7" d="M7112 2201l0 -140 69 0 0 127c0,9 1,17 4,23 3,6 6,11 11,15 4,3 9,6 13,7 4,2 9,2 14,2 12,0 22,-4 31,-12 8,-8 12,-20 12,-37l0 -125 69 0 0 235 -69 0 0 -31c-6,11 -15,20 -26,27 -11,7 -23,10 -35,10 -28,0 -50,-9 -67,-26 -17,-17 -26,-42 -26,-74z"/>
  <polygon id="13" class="fil7" points="7401,2295 7401,1932 7470,1932 7470,2295 "/>
  <path id="14" class="fil7" d="M7539 2002c-9,-8 -13,-18 -13,-29 0,-11 4,-21 13,-29 9,-8 19,-12 31,-12 12,0 22,4 30,12 8,8 13,17 13,29 0,11 -4,21 -13,29 -8,8 -18,12 -30,12 -12,0 -22,-4 -31,-12zm-4 293l0 -235 69 0 0 235 -69 0z"/>
  <path id="15" class="fil7" d="M7671 2242c-11,-19 -17,-40 -17,-64 0,-24 6,-45 17,-64 11,-19 26,-33 44,-43 19,-10 39,-15 62,-15 17,0 32,3 47,9 15,6 28,14 38,25 11,11 19,24 26,39 6,16 9,32 9,51 0,6 0,13 -1,22l-172 0c2,13 8,23 20,29 11,7 24,10 38,10 10,0 20,-2 29,-6 9,-4 17,-9 22,-17l51 35c-11,16 -26,28 -45,36 -19,8 -40,11 -62,11 -22,0 -43,-5 -62,-15 -19,-10 -33,-25 -44,-44zm54 -85l102 0c-2,-13 -7,-22 -17,-29 -10,-7 -21,-10 -32,-10 -11,0 -22,3 -33,10 -10,6 -17,16 -20,29z"/>
  <path id="16" class="fil7" d="M7941 2258c0,-12 4,-22 12,-30 8,-8 18,-12 31,-12 12,0 23,4 31,12 9,8 13,18 13,30 0,12 -4,22 -13,30 -9,8 -19,12 -31,12 -12,0 -22,-4 -31,-12 -8,-8 -12,-18 -12,-30zm4 -310l75 0 -7 242 -58 0 -10 -242z"/>
  <path id="17" class="fil8" d="M3459 1948l80 0 67 219c9,-31 24,-87 46,-170l61 0 46 170 68 -219 80 0 -118 347 -58 0 -49 -182 -48 182 -58 0 -117 -347z"/>
  <path id="18" class="fil8" d="M3917 2242c-11,-19 -17,-40 -17,-64 0,-24 6,-45 17,-64 11,-19 26,-33 44,-43 19,-10 39,-15 62,-15 17,0 32,3 47,9 15,6 28,14 38,25 11,11 19,24 26,39 6,16 9,32 9,51 0,6 0,13 -1,22l-172 0c2,13 8,23 20,29 11,7 24,10 38,10 10,0 20,-2 29,-6 9,-4 17,-9 22,-17l51 35c-11,16 -26,28 -45,36 -19,8 -40,11 -62,11 -22,0 -43,-5 -62,-15 -19,-10 -33,-25 -44,-44zm54 -85l102 0c-2,-13 -7,-22 -17,-29 -10,-7 -21,-10 -32,-10 -11,0 -22,3 -33,10 -10,6 -17,16 -20,29z"/>
  <polygon id="19" class="fil8" points="4192,2295 4192,1932 4261,1932 4261,2295 "/>
  <path id="20" class="fil8" d="M4312 2177c0,-18 3,-35 10,-50 7,-15 16,-28 28,-39 12,-10 25,-19 41,-24 15,-6 31,-9 48,-9 21,0 40,4 58,13 18,9 33,21 44,37l-57 41c-5,-7 -11,-13 -19,-18 -8,-4 -17,-6 -26,-6 -16,0 -29,5 -41,16 -12,10 -18,24 -18,40 0,16 6,30 18,41 12,11 25,16 41,16 9,0 18,-2 26,-6 8,-4 15,-10 19,-18l57 40c-11,16 -26,28 -44,37 -18,9 -38,13 -59,13 -23,0 -44,-5 -63,-15 -19,-10 -35,-25 -47,-44 -12,-19 -18,-40 -18,-64z"/>
  <path id="21" class="fil8" d="M4573 2177c0,-24 6,-45 17,-64 11,-19 26,-33 44,-43 18,-10 39,-15 61,-15 22,0 42,5 61,15 19,10 33,24 45,43 11,19 17,40 17,64 0,23 -6,45 -17,64 -11,19 -26,34 -45,44 -18,10 -39,15 -61,15 -22,0 -42,-5 -61,-15 -18,-10 -33,-24 -44,-43 -11,-19 -17,-40 -17,-64zm69 0c0,16 5,28 15,38 10,10 23,15 38,15 15,0 28,-5 38,-15 10,-10 15,-22 15,-38 0,-15 -5,-28 -16,-38 -10,-10 -23,-15 -38,-15 -15,0 -27,5 -38,15 -10,10 -15,22 -15,38z"/>
  <path id="22" class="fil8" d="M4868 2295l0 -235 69 0 0 34c5,-12 14,-21 25,-28 11,-7 24,-10 37,-10 37,0 62,14 75,41 17,-27 41,-41 71,-41 28,0 51,9 66,27 16,18 24,45 24,79l0 134 -69 0 0 -126c0,-15 -4,-26 -11,-35 -7,-8 -17,-12 -28,-12 -12,0 -22,4 -29,12 -7,8 -11,20 -11,36l0 125 -69 0 0 -128c0,-14 -4,-26 -11,-34 -8,-8 -17,-12 -27,-12 -12,0 -22,4 -29,11 -8,8 -12,20 -12,36l0 125 -69 0z"/>
  <path id="23" class="fil8" d="M5300 2242c-11,-19 -17,-40 -17,-64 0,-24 6,-45 17,-64 11,-19 26,-33 44,-43 19,-10 39,-15 62,-15 17,0 32,3 47,9 15,6 28,14 38,25 11,11 19,24 26,39 6,16 9,32 9,51 0,6 0,13 -1,22l-172 0c2,13 8,23 20,29 11,7 24,10 38,10 10,0 20,-2 29,-6 9,-4 17,-9 22,-17l51 35c-11,16 -26,28 -45,36 -19,8 -40,11 -62,11 -22,0 -43,-5 -62,-15 -19,-10 -33,-25 -44,-44zm54 -85l102 0c-2,-13 -7,-22 -17,-29 -10,-7 -21,-10 -32,-10 -11,0 -22,3 -33,10 -10,6 -17,16 -20,29z"/>
  <path id="24" class="fil8" d="M5697 2295l0 -363 69 0 0 157c6,-11 15,-19 27,-25 13,-6 26,-9 42,-9 15,0 30,3 43,9 14,6 26,14 36,24 10,10 19,23 25,39 6,16 9,33 9,51 0,18 -3,35 -9,50 -6,15 -15,28 -25,39 -10,10 -22,18 -36,24 -14,6 -28,9 -43,9 -15,0 -29,-3 -41,-9 -13,-6 -22,-14 -28,-25l0 29 -69 0zm71 -118c0,16 5,30 16,41 11,11 23,16 38,16 15,0 28,-5 39,-16 10,-10 16,-24 16,-41 0,-17 -5,-30 -16,-40 -10,-10 -23,-16 -39,-16 -15,0 -28,5 -39,15 -11,10 -16,24 -16,41z"/>
  <path id="25" class="fil8" d="M5985 2178c0,-18 3,-35 10,-51 7,-16 16,-29 27,-39 11,-10 24,-18 38,-24 14,-6 29,-9 44,-9 6,0 13,1 20,2 7,1 16,5 25,10 10,5 17,11 23,20l0 -26 69 0 0 235 -69 0 0 -27c-7,10 -17,18 -31,23 -14,5 -26,8 -38,8 -20,0 -40,-5 -58,-15 -18,-10 -33,-24 -45,-43 -12,-19 -18,-41 -18,-65zm90 -40c-12,11 -18,24 -18,40 0,16 6,30 18,40 12,10 26,16 41,16 15,0 29,-5 40,-15 11,-10 17,-24 17,-40 0,-17 -6,-30 -17,-41 -11,-10 -25,-15 -40,-15 -15,0 -29,5 -41,16z"/>
  <path id="26" class="fil8" d="M6294 2177c0,-18 3,-35 10,-50 7,-15 16,-28 28,-39 12,-10 25,-19 41,-24 15,-6 31,-9 48,-9 21,0 40,4 58,13 18,9 33,21 44,37l-57 41c-5,-7 -11,-13 -19,-18 -8,-4 -17,-6 -26,-6 -16,0 -29,5 -41,16 -12,10 -18,24 -18,40 0,16 6,30 18,41 12,11 25,16 41,16 9,0 18,-2 26,-6 8,-4 15,-10 19,-18l57 40c-11,16 -26,28 -44,37 -18,9 -38,13 -59,13 -23,0 -44,-5 -63,-15 -19,-10 -35,-25 -47,-44 -12,-19 -18,-40 -18,-64z"/>
  <polygon id="27" class="fil8" points="6572,2295 6572,1932 6641,1932 6641,2125 6697,2060 6786,2060 6689,2164 6806,2295 6720,2295 6641,2202 6641,2295 "/>
  <path id="28" class="fil8" d="M6877 2406l7 -67c11,4 26,6 44,6 14,0 24,-4 30,-13 6,-9 10,-20 10,-34l0 -348 74 0 0 348c0,13 -1,25 -4,37 -3,11 -7,22 -12,32 -6,10 -13,19 -21,26 -9,7 -19,13 -32,17 -13,4 -27,6 -44,6 -10,0 -27,-3 -51,-8z"/>
  <path id="29" class="fil8" d="M7112 2201l0 -140 69 0 0 127c0,9 1,17 4,23 3,6 6,11 11,15 4,3 9,6 13,7 4,2 9,2 14,2 12,0 22,-4 31,-12 8,-8 12,-20 12,-37l0 -125 69 0 0 235 -69 0 0 -31c-6,11 -15,20 -26,27 -11,7 -23,10 -35,10 -28,0 -50,-9 -67,-26 -17,-17 -26,-42 -26,-74z"/>
  <polygon id="30" class="fil8" points="7401,2295 7401,1932 7470,1932 7470,2295 "/>
  <path id="31" class="fil8" d="M7539 2002c-9,-8 -13,-18 -13,-29 0,-11 4,-21 13,-29 9,-8 19,-12 31,-12 12,0 22,4 30,12 8,8 13,17 13,29 0,11 -4,21 -13,29 -8,8 -18,12 -30,12 -12,0 -22,-4 -31,-12zm-4 293l0 -235 69 0 0 235 -69 0z"/>
  <path id="32" class="fil8" d="M7671 2242c-11,-19 -17,-40 -17,-64 0,-24 6,-45 17,-64 11,-19 26,-33 44,-43 19,-10 39,-15 62,-15 17,0 32,3 47,9 15,6 28,14 38,25 11,11 19,24 26,39 6,16 9,32 9,51 0,6 0,13 -1,22l-172 0c2,13 8,23 20,29 11,7 24,10 38,10 10,0 20,-2 29,-6 9,-4 17,-9 22,-17l51 35c-11,16 -26,28 -45,36 -19,8 -40,11 -62,11 -22,0 -43,-5 -62,-15 -19,-10 -33,-25 -44,-44zm54 -85l102 0c-2,-13 -7,-22 -17,-29 -10,-7 -21,-10 -32,-10 -11,0 -22,3 -33,10 -10,6 -17,16 -20,29z"/>
  <path id="33" class="fil8" d="M7941 2258c0,-12 4,-22 12,-30 8,-8 18,-12 31,-12 12,0 23,4 31,12 9,8 13,18 13,30 0,12 -4,22 -13,30 -9,8 -19,12 -31,12 -12,0 -22,-4 -31,-12 -8,-8 -12,-18 -12,-30zm4 -310l75 0 -7 242 -58 0 -10 -242z"/>
  <path class="fil9" d="M8097 13271l-4428 0c-120,0 -219,99 -219,219l0 0c0,120 99,219 219,219l4428 0c120,0 219,-99 219,-219l0 0c0,-120 -99,-219 -219,-219z"/>
  <path class="fil10" d="M13988 13350l-4428 0c-120,0 -219,99 -219,219l0 0c0,120 99,219 219,219l4428 0c120,0 219,-99 219,-219l0 0c0,-120 -99,-219 -219,-219z"/>
  <path class="fil9" d="M3669 3305l1849 0c120,0 219,99 219,219l0 0c0,120 -99,219 -219,219l-1849 0c-120,0 -219,-99 -219,-219l0 0c0,-120 99,-219 219,-219z"/>
  <path class="fil9" d="M8097 4105l-4428 0c-120,0 -219,99 -219,219l0 0c0,120 99,219 219,219l4428 0c120,0 219,-99 219,-219l0 0c0,-120 -99,-219 -219,-219z"/>
  <circle class="fil5" cx="3564" cy="6826" r="108"/>
  <path class="fil9" d="M8095 6607l-3939 0c-120,0 -219,99 -219,219l0 0c0,120 99,219 219,219l3939 0c120,0 219,-99 219,-219l0 0c0,-120 -99,-219 -219,-219z"/>
  <circle class="fil11" cx="9453" cy="6826" r="108"/>
  <path class="fil10" d="M13984 6607l-3939 0c-120,0 -219,99 -219,219l0 0c0,120 99,219 219,219l3939 0c120,0 219,-99 219,-219l0 0c0,-120 -98,-219 -219,-219z"/>
  <circle class="fil4" cx="15344" cy="6826" r="108"/>
  <path class="fil12" d="M19875 6607l-3939 0c-120,0 -219,99 -219,219l0 0c0,120 99,219 219,219l3939 0c120,0 219,-99 219,-219l0 0c0,-120 -99,-219 -219,-219z"/>
  <path class="fil9" d="M8097 4920l-4428 0c-120,0 -219,99 -219,219l0 0c0,120 99,219 219,219l4428 0c120,0 219,-99 219,-219l0 0c0,-120 -99,-219 -219,-219z"/>
  <path class="fil9" d="M9560 3305l1849 0c120,0 219,99 219,219l0 0c0,120 -99,219 -219,219l-1849 0c-120,0 -219,-99 -219,-219l0 0c0,-120 99,-219 219,-219z"/>
  <path class="fil9" d="M13988 4105l-4428 0c-120,0 -219,99 -219,219l0 0c0,120 99,219 219,219l4428 0c120,0 219,-99 219,-219l0 0c0,-120 -99,-219 -219,-219z"/>
  <path class="fil9" d="M13988 4920l-4428 0c-120,0 -219,99 -219,219l0 0c0,120 99,219 219,219l4428 0c120,0 219,-99 219,-219l0 0c0,-120 -99,-219 -219,-219z"/>
  <path class="fil9" d="M15452 3305l1849 0c120,0 219,99 219,219l0 0c0,120 -99,219 -219,219l-1849 0c-120,0 -219,-99 -219,-219l0 0c0,-120 99,-219 219,-219z"/>
  <path class="fil9" d="M19880 4105l-4428 0c-120,0 -219,99 -219,219l0 0c0,120 99,219 219,219l4428 0c120,0 219,-99 219,-219l0 0c0,-120 -99,-219 -219,-219z"/>
  <path class="fil9" d="M19880 4920l-4428 0c-120,0 -219,99 -219,219l0 0c0,120 99,219 219,219l4428 0c120,0 219,-99 219,-219l0 0c0,-120 -99,-219 -219,-219z"/>
  <path class="fil12" d="M19880 13428l-4428 0c-120,0 -219,99 -219,219l0 0c0,120 99,219 219,219l4428 0c120,0 219,-99 219,-219l0 0c0,-120 -99,-219 -219,-219z"/>
  <path class="fil9" d="M26768 6988l1144 0c161,0 293,132 293,293l0 0c0,161 -132,293 -293,293l-1144 0c-161,0 -293,-132 -293,-293l0 0c0,-161 132,-293 293,-293z"/>
  <path class="fil9" d="M24642 6988l1144 0c161,0 293,132 293,293l0 0c0,161 -132,293 -293,293l-1144 0c-161,0 -293,-132 -293,-293l0 0c0,-161 132,-293 293,-293z"/>
  <path class="fil9" d="M22464 6988l1144 0c161,0 293,132 293,293l0 0c0,161 -132,293 -293,293l-1144 0c-161,0 -293,-132 -293,-293l0 0c0,-161 132,-293 293,-293z"/>
  <path class="fil9" d="M22353 4864l1366 0c100,0 182,82 182,182l0 1352c0,100 -82,182 -182,182l-1366 0c-100,0 -182,-82 -182,-182l0 -1352c0,-100 82,-182 182,-182z"/>
  <path class="fil9" d="M24531 4864l1366 0c100,0 182,82 182,182l0 1352c0,100 -82,182 -182,182l-1366 0c-100,0 -182,-82 -182,-182l0 -1352c0,-100 82,-182 182,-182z"/>
  <path class="fil9" d="M26657 4864l1366 0c100,0 182,82 182,182l0 1352c0,100 -82,182 -182,182l-1366 0c-100,0 -182,-82 -182,-182l0 -1352c0,-100 82,-182 182,-182z"/>
  <rect class="fil13 str0" x="22174" y="7928" width="2810" height="2282" rx="95" ry="199"/>
  <rect class="fil13 str0" x="25383" y="7928" width="2810" height="2282" rx="102" ry="215"/>
  <path class="fil9" d="M22247 10561l1539 0c41,0 74,33 74,74l0 347c0,41 -33,74 -74,74l-1539 0c-41,0 -74,-33 -74,-74l0 -347c0,-41 33,-74 74,-74z"/>
  <path class="fil9" d="M25456 10561l1539 0c41,0 74,33 74,74l0 347c0,41 -33,74 -74,74l-1539 0c-41,0 -74,-33 -74,-74l0 -347c0,-41 33,-74 74,-74z"/>
  <rect class="fil13 str1" x="22173" y="11447" width="2810" height="2282" rx="95" ry="199"/>
  <rect class="fil13 str1" x="25382" y="11447" width="2810" height="2282" rx="102" ry="215"/>
  <path class="fil9" d="M22222 14087l1588 0c27,0 49,22 49,49l0 396c0,27 -22,49 -49,49l-1588 0c-27,0 -49,-22 -49,-49l0 -396c0,-27 22,-49 49,-49z"/>
  <path class="fil9" d="M25432 14087l1588 0c27,0 49,22 49,49l0 396c0,27 -22,49 -49,49l-1588 0c-27,0 -49,-22 -49,-49l0 -396c0,-27 22,-49 49,-49z"/>
  <path class="fil10" d="M22902 8189l0 0c196,0 357,161 357,357l0 1c0,196 -161,357 -357,357l0 0c-196,0 -357,-161 -357,-357l0 -1c0,-196 161,-357 357,-357z"/>
  <path class="fil10" d="M23937 8189l638 0c21,0 38,17 38,38l0 639c0,21 -17,38 -38,38l-638 0c-21,0 -38,-17 -38,-38l0 -639c0,-21 17,-38 38,-38z"/>
  <path class="fil10" d="M22583 9234l638 0c21,0 38,17 38,38l0 639c0,21 -17,38 -38,38l-638 0c-21,0 -38,-17 -38,-38l0 -639c0,-21 17,-38 38,-38z"/>
  <path class="fil10" d="M24256 9234l0 0c196,0 357,161 357,357l0 1c0,196 -161,357 -357,357l0 0c-196,0 -357,-161 -357,-357l0 -1c0,-196 161,-357 357,-357z"/>
  <path class="fil10" d="M27146 8189l638 0c21,0 38,17 38,38l0 639c0,21 -17,38 -38,38l-638 0c-21,0 -38,-17 -38,-38l0 -639c0,-21 17,-38 38,-38z"/>
  <path class="fil10" d="M25792 9234l638 0c21,0 38,17 38,38l0 639c0,21 -17,38 -38,38l-638 0c-21,0 -38,-17 -38,-38l0 -639c0,-21 17,-38 38,-38z"/>
  <path class="fil10" d="M27465 9234l0 0c196,0 357,161 357,357l0 1c0,196 -161,357 -357,357l0 0c-196,0 -357,-161 -357,-357l0 -1c0,-196 161,-357 357,-357z"/>
  <polygon class="fil10" points="26468,8845 26110,8247 25753,8846 "/>
  <path class="fil10" d="M22901 11708l0 0c196,0 357,161 357,357l0 1c0,196 -161,357 -357,357l0 0c-196,0 -357,-161 -357,-357l0 -1c0,-196 161,-357 357,-357z"/>
  <path class="fil10" d="M23937 11708l638 0c21,0 38,17 38,38l0 639c0,21 -17,38 -38,38l-638 0c-21,0 -38,-17 -38,-38l0 -639c0,-21 17,-38 38,-38z"/>
  <path class="fil10" d="M22582 12753l638 0c21,0 38,17 38,38l0 639c0,21 -17,38 -38,38l-638 0c-21,0 -38,-17 -38,-38l0 -639c0,-21 17,-38 38,-38z"/>
  <path class="fil10" d="M24255 12753l0 0c196,0 357,161 357,357l0 1c0,196 -161,357 -357,357l0 0c-196,0 -357,-161 -357,-357l0 -1c0,-196 161,-357 357,-357z"/>
  <path class="fil10" d="M27145 11708l638 0c21,0 38,17 38,38l0 639c0,21 -17,38 -38,38l-638 0c-21,0 -38,-17 -38,-38l0 -639c0,-21 17,-38 38,-38z"/>
  <path class="fil10" d="M25791 12753l638 0c21,0 38,17 38,38l0 639c0,21 -17,38 -38,38l-638 0c-21,0 -38,-17 -38,-38l0 -639c0,-21 17,-38 38,-38z"/>
  <path class="fil10" d="M27464 12753l0 0c196,0 357,161 357,357l0 1c0,196 -161,357 -357,357l0 0c-196,0 -357,-161 -357,-357l0 -1c0,-196 161,-357 357,-357z"/>
  <polygon class="fil10" points="26467,12365 26110,11766 25753,12365 "/>
  <rect class="fil4" x="22057" y="15994" width="856" height="856" rx="371" ry="428"/>
  <path class="fil5" d="M22475 16112c35,0 68,4 101,17l20 9c127,64 192,205 137,377 -4,-1 -6,-5 -8,-9 -3,-4 -5,-7 -8,-11l-96 -133c-1,-2 0,0 -2,-2 -1,-1 -1,-2 -2,-3l-23 -32c-3,-4 -5,-7 -7,-10l-8 -11c-3,-4 -4,-5 -7,-10 -3,-4 -5,-7 -8,-11 -5,-8 -11,-14 -16,-22 0,-1 -1,-2 -2,-2 -1,-2 -1,-1 -2,-2l-12 -17c-3,-4 -5,-6 -7,-10l-39 -54c-7,5 -42,56 -47,63l-5 7c-2,3 -1,1 -2,3l-113 154c-1,1 -1,1 -2,2l-76 104c-3,4 0,3 -6,3 -4,-8 -8,-31 -10,-41 -24,-112 8,-218 90,-293 0,0 0,0 1,-1l2 -2c0,0 1,-1 1,-1 2,-2 3,-2 4,-4l28 -20c2,-1 3,-2 5,-3l26 -14c29,-12 59,-20 91,-20z"/>
  <rect class="fil5" x="22217" y="16391" width="96.5878" height="255.253"/>
  <rect class="fil5" x="22656" y="16391" width="96.5878" height="255.253"/>
  <path class="fil14" d="M26538 15994l0 0c235,0 428,193 428,428l0 0c0,235 -193,428 -428,428l0 0c-235,0 -428,-193 -428,-428l0 0c0,-235 193,-428 428,-428z"/>
  <g id="_447235880">
   <path class="fil15" d="M26404 16691l262 0 -22 -47c-1,-2 -1,-3 -2,-4l-22 -47c-1,-2 -1,-3 -2,-4 -1,-2 -1,-3 -2,-4l-35 -73c-4,-8 -13,-29 -16,-34 -4,-7 -12,-26 -16,-34l-10 -21c-1,-1 -2,-4 -2,-4l-49 102c-1,2 -1,2 -2,4 -1,2 -1,3 -2,4l-10 21c-1,2 -1,3 -2,4l-12 25c-1,2 -1,2 -2,4 -4,7 -12,26 -16,34l-4 9c-1,2 -1,3 -2,4l-6 13c-1,2 -1,2 -2,4l-21 43z"/>
   <path class="fil15" d="M26410 16275c0,25 3,35 12,55 5,11 16,27 25,36 20,20 56,37 86,37 25,0 30,0 53,-7 29,-9 60,-36 72,-62 13,-27 13,-35 13,-63 0,-29 -17,-62 -38,-81 -21,-20 -55,-36 -86,-36 -35,0 -55,5 -83,23 -17,11 -36,32 -43,50 -6,14 -12,30 -12,49z"/>
  </g>
  <path class="fil14" d="M23822 15994l0 0c235,0 428,193 428,428l0 0c0,235 -193,428 -428,428l0 0c-235,0 -428,-193 -428,-428l0 0c0,-235 193,-428 428,-428z"/>
  <line class="fil13 str2" x1="23978" y1="16353" x2="24084" y2= "16309" />
  <line class="fil13 str2" x1="23895" y1="16250" x2="23924" y2= "16202" />
  <line class="fil13 str2" x1="23728" y1="16250" x2="23672" y2= "16151" />
  <line class="fil13 str2" x1="23634" y1="16413" x2="23596" y2= "16413" />
  <line class="fil13 str2" x1="23679" y1="16522" x2="23549" y2= "16624" />
  <line class="fil13 str2" x1="23753" y1="16568" x2="23733" y2= "16624" />
  <path class="fil16" d="M23807 16297c22,0 33,2 52,11 9,5 23,15 30,22l11 15c21,33 24,75 5,109 -5,10 -13,19 -21,27 -30,29 -72,38 -112,24 -10,-4 -17,-8 -26,-14 -10,-7 -19,-17 -26,-27 -9,-14 -16,-31 -18,-48 -2,-19 0,-39 8,-57 5,-10 11,-20 18,-28l10 -10c15,-15 46,-26 67,-25zm-148 100c-1,29 2,44 12,68l16 29c2,3 4,5 6,7 1,1 2,2 3,3 9,11 20,19 32,28 2,2 6,4 8,5 18,9 41,18 62,18 6,0 7,1 12,0l13 0c23,-1 54,-13 72,-26 1,-1 2,-2 4,-2 2,1 49,50 58,58 1,1 2,2 3,3 4,5 11,12 15,15 4,4 16,18 22,22 2,-1 6,-5 8,-7 2,-2 2,-3 4,-4 5,-5 16,-14 19,-19 -3,-2 -8,-9 -12,-12l-18 -18c-1,-1 -2,-2 -3,-3l-15 -16c-1,-1 -2,-2 -3,-3 -1,-1 -2,-2 -3,-3l-15 -15c-6,-5 -10,-10 -16,-16l-13 -12c9,-13 14,-20 20,-36 20,-50 10,-111 -24,-151l-9 -10c-33,-34 -88,-54 -139,-42 -28,6 -51,18 -72,38 -11,10 -17,18 -25,30 -5,8 -9,16 -13,25 -5,14 -10,31 -10,47z"/>
  <path class="fil16" d="M23646 16271c0,-15 -3,-23 -13,-34 -33,-33 -86,0 -75,42 9,35 53,49 79,17 4,-5 9,-15 9,-24z"/>
  <path class="fil14" d="M27914 15994l0 0c235,0 428,193 428,428l0 0c0,235 -193,428 -428,428l0 0c-235,0 -428,-193 -428,-428l0 0c0,-235 193,-428 428,-428z"/>
  <path class="fil6" d="M27967 16690c-1,1 -2,3 -3,4l-1 3c0,1 0,2 0,3l0 1c0,1 0,1 1,1 0,0 0,0 0,1 0,1 0,0 0,1 1,1 1,3 2,4 0,0 1,1 1,1 0,1 0,0 0,1l0 0c0,0 1,0 0,0l0 0c2,2 2,4 4,6l13 17c3,3 6,7 9,10l2 2c2,1 3,3 5,4l2 2c1,0 1,1 2,1 1,1 5,3 6,4 1,1 2,1 3,2 1,1 2,1 3,2 1,0 0,0 1,0 0,0 1,0 1,1l0 0c1,0 3,1 4,1 1,0 3,1 3,2 0,0 1,0 1,0l3 1c1,0 0,0 1,0 0,0 0,0 1,0 1,0 1,0 2,0 0,0 0,0 1,0 1,0 0,0 1,0 1,0 0,0 2,0 1,0 0,0 1,0 1,0 1,0 3,1 1,0 2,0 2,0l0 0c1,0 0,0 1,0 1,0 1,0 2,0 1,0 1,0 2,0 1,0 2,0 2,0 1,0 3,0 4,0 0,0 1,0 1,0 1,0 3,0 4,0 2,0 2,0 3,0 0,0 0,0 0,0 1,0 1,0 1,0 1,0 1,0 2,0l5 -1c2,0 7,-2 8,-3 1,0 3,-1 4,-2 1,-1 3,-2 4,-1l13 -8c1,0 0,0 1,0 2,-1 4,-3 6,-5 2,-2 4,-3 6,-5 1,-1 6,-6 7,-8 0,-1 2,-2 2,-3 0,-1 2,-3 2,-3 1,-1 2,-3 3,-3 0,-1 1,-1 1,-2 1,-1 1,-2 2,-2l1 -1c0,-1 0,-1 1,-2 0,-1 1,-2 1,-2l1 -3c0,-1 0,0 0,-1 0,0 0,0 0,-1 0,-1 0,-1 1,-2l1 -2c0,-1 0,0 0,-1 0,0 0,0 0,-1 0,0 0,-1 0,-1l0 -1c0,-1 1,-4 1,-5 0,0 0,-1 0,-1 0,-1 0,-2 0,-2 0,-1 0,-1 0,-1 0,-1 0,-1 0,-2 0,-1 0,-2 0,-3 0,-1 0,-3 0,-4l0 0c0,-1 0,-2 0,-3 0,-1 0,-4 0,-4 0,-1 0,-1 0,-2 0,-1 0,-1 0,-2 0,-1 -1,-2 0,-3 0,-1 -1,-3 -1,-3l-1 -2c0,-1 -1,-2 -1,-3l0 0c0,-1 -1,-2 -1,-2 0,-1 -1,-3 -1,-3 0,-1 -1,-3 -2,-4l-4 -9c0,-1 -1,-2 -2,-3 -3,-6 -12,-18 -16,-23 -2,-2 -3,-4 -5,-6 -1,-1 -4,-4 -4,-5l0 0c-1,0 -2,-2 -3,-2 -1,0 -2,-2 -2,-2 0,0 0,0 -1,0 0,0 0,0 -1,0 -1,0 -1,0 -1,-1 -1,0 -1,-1 -2,-1 -1,0 -1,0 -2,-1 -1,0 -1,0 -1,0 0,0 -1,0 -1,0 -1,0 0,0 -1,0 -1,0 -3,0 -4,1 -1,0 0,1 -1,0l0 0c-1,1 -1,1 -2,1 -3,2 -9,7 -11,9 -1,1 -3,3 -4,4l-1 1 -4 3 0 0c0,0 0,0 0,0 0,0 0,0 0,0 0,0 0,0 0,0 0,0 0,0 -1,0 -1,1 -2,2 -4,3 -1,1 -3,3 -4,4 -1,1 -3,2 -4,4 -2,2 -7,6 -9,7l0 0c0,1 0,0 0,1 0,0 -4,3 -5,4 0,1 0,1 1,1 0,1 1,1 1,1 3,4 6,8 9,12 0,1 1,2 2,2l8 12c1,2 2,3 3,5l7 10c1,2 2,3 4,5 1,1 2,3 3,5 1,2 3,3 4,5 1,2 2,3 3,5 1,1 2,3 3,5 1,1 1,2 2,3 1,1 0,0 1,2 1,1 3,3 3,5 -1,0 -7,-8 -8,-9 -3,-3 -7,-8 -8,-9 -1,-1 -3,-3 -4,-5 -2,-3 -3,-3 -4,-4 -1,-2 -3,-3 -4,-4 -1,-2 -2,-3 -4,-5 -1,-1 -3,-3 -4,-5 -1,-1 -1,-1 -2,-2 -2,-2 -4,-5 -6,-7 -1,-1 -3,-3 -4,-5 -1,-1 0,0 -1,-1 -1,-1 -4,-5 -7,-8 -1,-1 -2,-3 -4,-5 -1,-1 -1,-1 -2,-2 0,-1 -1,-2 -2,-2 0,0 -1,0 -1,0 -1,0 0,0 -1,0 0,1 -2,1 -2,2 0,0 -1,1 -1,1 -1,1 -1,1 -1,1 -1,1 -6,4 -8,6 -1,1 -6,4 -7,5 -1,1 -6,4 -7,5 -1,0 -1,0 -2,1l-3 2c-1,0 -1,1 -2,1l-1 1c-1,1 -2,1 -3,2 0,0 -1,0 -1,1 -1,0 -1,1 -1,0l-1 1c-2,2 -4,3 -6,4 -2,1 -4,3 -5,5z"/>
  <path class="fil6" d="M27812 16290c3,1 5,4 9,6 3,2 5,4 8,6l14 11c1,1 1,1 3,2l92 71c3,2 6,4 9,7l134 105c-16,11 -35,27 -51,39l-21 16c-2,2 -3,2 -4,3l-34 26c-23,17 -45,35 -68,52l-13 10c-2,1 -3,2 -4,3l-43 33c-8,7 -24,16 -30,23 -3,3 -2,0 -2,5 3,2 4,1 8,2 4,1 0,0 3,1l8 2c2,1 2,1 5,1l26 6c10,2 19,2 28,3l35 0 1 0c10,0 24,-3 34,-6l13 -4c1,0 2,-1 2,-1 1,0 1,0 3,-1l17 -6c2,-1 3,-1 5,-2 3,-1 2,-1 5,-2 2,-1 2,-1 4,-2 7,-3 11,-6 17,-10 11,-6 21,-14 30,-23 5,-4 9,-9 13,-13 9,-9 17,-19 24,-29 8,-12 16,-25 21,-39l5 -12c5,-14 8,-30 11,-45 6,-35 0,-74 -11,-106l-8 -20c-1,-3 -1,-3 -2,-5 -8,-17 -19,-33 -31,-46l-34 -32c-21,-16 -40,-25 -65,-35l-19 -6c-2,-1 -3,-1 -5,-1 -4,-1 -2,-1 -5,-1 -2,0 -3,0 -6,-1l-18 -3c-10,-2 -22,-1 -33,-1 -14,0 -33,3 -47,7l-25 6c-5,1 -6,0 -7,6z"/>
  <path class="fil6" d="M27686 16291c0,30 3,58 13,85l7 17c6,13 14,26 22,38l3 4c3,3 4,5 6,8l28 28c0,0 0,0 1,1 0,0 1,1 2,2l29 20 59 24c2,1 3,1 5,1 4,1 2,1 5,1 21,3 51,8 70,3 4,-1 6,-1 11,-1 8,-1 18,-3 25,-5 11,-3 23,-4 34,-9 -1,-3 -4,-5 -7,-7 -3,-3 -6,-4 -9,-7l-106 -81c-1,-1 0,0 -2,-2 -1,-1 -1,-1 -3,-2l-26 -20c-4,-2 -5,-4 -8,-6l-9 -7c-3,-3 -4,-4 -8,-6 -3,-2 -5,-4 -9,-7 -6,-5 -11,-9 -18,-13 -1,0 -1,-1 -2,-1 -1,-1 0,0 -2,-2l-13 -10c-3,-2 -5,-4 -8,-6l-43 -33c4,-6 45,-35 50,-40l6 -4c2,-2 1,-1 2,-2l123 -95c1,-1 1,-1 2,-1l83 -64c3,-3 2,0 3,-5 -7,-3 -24,-6 -33,-8 -20,-4 -30,-6 -43,-6l-33 0 -2 0c-12,0 -32,5 -43,8l-5 2c0,0 -1,0 -1,0l-9 3c-2,1 -3,1 -5,2l-9 4c-15,6 -29,15 -42,24l-9 7c-12,10 -22,20 -32,32 0,0 0,0 -1,1l-2 2c0,0 -1,1 -1,1 -1,2 -2,2 -3,4l-16 24c-1,2 -1,2 -2,4l-11 22c-10,24 -16,50 -16,77z"/>
  <path class="fil6" d="M28019 16652c1,0 0,0 1,0 0,0 0,0 1,0 1,0 2,2 2,2 1,1 1,2 2,2 1,1 2,3 4,5 3,3 5,7 7,8 1,1 0,0 1,1 1,1 2,3 4,5 2,2 4,5 6,7 1,1 1,1 2,2 1,2 3,3 4,5 1,1 2,3 4,5 1,1 2,3 4,4 1,1 2,2 4,4 1,2 2,3 4,5 1,1 5,6 8,9 1,1 7,9 8,9 0,-1 -2,-3 -3,-5 -2,-2 -1,-1 -1,-2 -1,-1 -1,-2 -2,-3 -1,-1 -2,-3 -3,-5 -1,-2 -2,-3 -3,-5 -1,-2 -2,-3 -4,-5 -1,-1 -2,-3 -3,-5 -1,-2 -2,-3 -4,-5l-7 -10c-1,-2 -2,-3 -3,-5l-8 -12c0,-1 -1,-2 -2,-2 -3,-4 -6,-8 -9,-12 0,0 0,-1 -1,-1 0,-1 -1,-1 -1,-1 1,-1 5,-4 5,-4 1,-1 0,0 0,-1l-12 9c-1,1 -3,2 -4,3z"/>
  <path class="fil14" d="M25185 15994l0 0c235,0 428,193 428,428l0 0c0,235 -193,428 -428,428l0 0c-235,0 -428,-193 -428,-428l0 0c0,-235 193,-428 428,-428z"/>
  <path class="fil6" d="M25314 16581c31,-5 57,18 61,45 5,32 -18,59 -44,62 -32,5 -57,-18 -61,-45 -5,-33 18,-58 44,-62zm-274 0c32,-4 56,19 60,47 4,32 -19,57 -46,61 -32,4 -56,-20 -60,-47 -4,-32 19,-57 46,-61z"/>
  <path class="fil6" d="M25041 16608c17,-4 30,8 33,20 8,37 -45,48 -53,13 -4,-17 7,-30 20,-34zm-46 34c3,28 28,51 60,47 27,-3 50,-28 46,-61 -3,-28 -28,-51 -60,-47 -27,3 -50,29 -46,61z"/>
  <path class="fil6" d="M25317 16608c35,-9 48,46 12,54 -35,8 -48,-46 -12,-54zm-46 36c4,27 29,50 61,45 26,-4 49,-30 44,-62 -4,-27 -29,-50 -61,-45 -26,4 -49,30 -44,62z"/>
  <path class="fil6" d="M25174 16543c35,0 68,-4 101,-16l20 -9c16,-8 31,-17 45,-27l4 -4c4,-3 6,-4 10,-8l34 -34c0,0 0,-1 1,-1 0,-1 1,-1 2,-2l24 -35 29 -71c1,-3 1,-4 1,-7 1,-4 1,-2 2,-6 4,-25 9,-61 4,-85 -1,-5 -1,-7 -1,-13 -1,-10 -4,-21 -6,-30 -4,-14 -5,-28 -11,-41 -4,1 -6,5 -8,9 -3,4 -5,7 -8,11l-96 128c-1,2 0,0 -2,2 -1,1 -1,2 -2,3l-23 31c-3,4 -5,6 -7,10l-8 11c-3,4 -4,5 -7,10 -3,4 -5,6 -8,11 -5,7 -11,14 -16,21 0,1 -1,2 -2,2 -1,2 -1,1 -2,2l-12 16c-3,4 -5,6 -7,10l-39 52c-7,-5 -42,-54 -47,-61l-5 -7c-2,-2 -1,-1 -2,-3l-113 -149c-1,-1 -1,-1 -2,-2l-76 -101c-3,-4 0,-3 -6,-3 -4,8 -8,29 -10,40 -5,24 -7,36 -7,52l0 40 0 2c0,15 6,38 10,53l2 6c0,0 0,1 0,1l4 11c1,2 1,4 2,6l5 11c8,18 18,35 29,51l8 10c12,14 24,27 38,39 0,0 0,0 1,1l2 2c0,0 1,1 1,1 2,2 3,2 4,4l28 19c2,1 3,1 5,3l26 13c29,12 59,20 91,20z"/>
  <g id="_447241016">
   <path class="fil17" d="M27955 14500c20,8 51,26 70,36 12,6 23,12 35,18 5,3 30,19 36,16 -7,-6 -31,-46 -38,-56 -36,-54 -76,-119 -111,-170l-3 -5 0 5 0 150 10 5z"/>
   <path class="fil18" d="M27953 14338l-8 2c18,7 45,24 63,33 13,7 51,29 62,31 9,-10 19,-19 29,-28 10,-10 19,-20 29,-30 21,-19 41,-41 62,-61l-7 2 -231 51z"/>
   <path class="fil19" d="M27790 14374c12,8 20,21 31,30 14,-7 124,-62 124,-65l-234 -52 -12 -3c8,10 86,82 91,90z"/>
   <polygon class="fil20" points="27795,14573 27945,14493 27942,14347 "/>
   <path class="fil21" d="M27821 14405c-1,22 -31,161 -26,168l147 -226 4 -7 -4 2 -120 62z"/>
   <path class="fil22" d="M28097 14571c-1,-24 -10,-59 -14,-84 -2,-15 -14,-73 -13,-83 -11,-2 -49,-24 -62,-31 -18,-9 -45,-26 -63,-33l3 5c35,51 75,116 111,170 7,10 31,50 38,56z"/>
   <path class="fil23" d="M27945 14337l0 3 4 -3c10,-13 25,-26 37,-39 6,-7 12,-14 18,-20 8,-7 14,-10 17,-21l-76 -150 0 229z"/>
   <path class="fil24" d="M27891 14215l-22 45c13,12 23,26 36,38 5,5 34,40 39,41l0 -232 -53 107z"/>
   <path class="fil5" d="M27949 14337l-4 3 239 -53 7 -2c-29,-9 -157,-18 -170,-28 -3,10 -10,14 -17,21 -7,6 -12,13 -18,20 -12,13 -26,26 -37,39z"/>
   <polygon class="fil25" points="27945,14340 27942,14347 27795,14573 27945,14493 "/>
   <polygon class="fil26" points="27869,14260 27945,14340 27699,14285 "/>
   <polygon class="fil5" points="28046,14184 28031,14249 28096,14230 "/>
   <polygon class="fil5" points="27775,14473 27806,14414 27739,14417 "/>
   <polygon class="fil5" points="27800,14219 27861,14248 27856,14181 "/>
   <polygon class="fil5" points="28153,14397 28087,14411 28132,14462 "/>
   <polygon class="fil5" points="27979,14567 27946,14508 27912,14566 "/>
  </g>
  <path class="fil17" d="M24747 14488c20,8 51,26 70,36 12,6 23,12 35,18 5,3 30,19 36,16 -7,-6 -31,-46 -38,-56 -36,-54 -76,-119 -111,-170l-3 -5 0 5 0 150 10 5z"/>
  <path class="fil18" d="M24744 14325l-8 2c18,7 45,24 63,33 13,7 51,29 62,31 9,-10 19,-19 29,-28 10,-10 19,-20 29,-30 21,-19 41,-41 62,-61l-7 2 -231 51z"/>
  <path class="fil19" d="M24581 14362c12,8 20,21 31,30 14,-7 124,-62 124,-65l-234 -52 -12 -3c8,10 86,82 91,90z"/>
  <polygon class="fil20" points="24586,14560 24737,14481 24733,14334 "/>
  <path class="fil21" d="M24612 14392c-1,22 -31,161 -26,168l147 -226 4 -7 -4 2 -120 62z"/>
  <path class="fil22" d="M24888 14558c-1,-24 -10,-59 -14,-84 -2,-15 -14,-73 -13,-83 -11,-2 -49,-24 -62,-31 -18,-9 -45,-26 -63,-33l3 5c35,51 75,116 111,170 7,10 31,50 38,56z"/>
  <path class="fil23" d="M24736 14324l0 3 4 -3c10,-13 25,-26 37,-39 6,-7 12,-14 18,-20 8,-7 14,-10 17,-21l-76 -150 0 229z"/>
  <path class="fil24" d="M24683 14203l-22 45c13,12 23,26 36,38 5,5 34,40 39,41l0 -232 -53 107z"/>
  <path class="fil5" d="M24740 14324l-4 3 239 -53 7 -2c-29,-9 -157,-18 -170,-28 -3,10 -10,14 -17,21 -7,6 -12,13 -18,20 -12,13 -26,26 -37,39z"/>
  <polygon class="fil25" points="24736,14328 24733,14334 24586,14560 24737,14481 "/>
  <polygon class="fil26" points="24661,14248 24736,14327 24490,14272 "/>
  <polygon class="fil5" points="24837,14171 24822,14236 24887,14217 "/>
  <polygon class="fil5" points="24567,14461 24597,14401 24530,14404 "/>
  <polygon class="fil5" points="24591,14206 24652,14235 24647,14168 "/>
  <polygon class="fil5" points="24944,14385 24879,14399 24923,14449 "/>
  <polygon class="fil5" points="24770,14554 24737,14496 24703,14554 "/>
  <path class="fil17" d="M24747 10962c20,8 51,26 70,36 12,6 23,12 35,18 5,3 30,19 36,16 -7,-6 -31,-46 -38,-56 -36,-54 -76,-119 -111,-170l-3 -5 0 5 0 150 10 5z"/>
  <path class="fil18" d="M24745 10799l-8 2c18,7 45,24 63,33 13,7 51,29 62,31 9,-10 19,-19 29,-28 10,-10 19,-20 29,-30 21,-19 41,-41 62,-61l-7 2 -231 51z"/>
  <path class="fil19" d="M24582 10836c12,8 20,21 31,30 14,-7 124,-62 124,-65l-234 -52 -12 -3c8,10 86,82 91,90z"/>
  <polygon class="fil20" points="24587,11034 24737,10955 24734,10808 "/>
  <path class="fil21" d="M24613 10866c-1,22 -31,161 -26,168l147 -226 4 -7 -4 2 -120 62z"/>
  <path class="fil22" d="M24889 11032c-1,-24 -10,-59 -14,-84 -2,-15 -14,-73 -13,-83 -11,-2 -49,-24 -62,-31 -18,-9 -45,-26 -63,-33l3 5c35,51 75,116 111,170 7,10 31,50 38,56z"/>
  <path class="fil23" d="M24737 10798l0 3 4 -3c10,-13 25,-26 37,-39 6,-7 12,-14 18,-20 8,-7 14,-10 17,-21l-76 -150 0 229z"/>
  <path class="fil24" d="M24683 10677l-22 45c13,12 23,26 36,38 5,5 34,40 39,41l0 -232 -53 107z"/>
  <path class="fil5" d="M24741 10798l-4 3 239 -53 7 -2c-29,-9 -157,-18 -170,-28 -3,10 -10,14 -17,21 -7,6 -12,13 -18,20 -12,13 -26,26 -37,39z"/>
  <polygon class="fil25" points="24737,10802 24734,10808 24587,11034 24737,10955 "/>
  <polygon class="fil26" points="24661,10722 24737,10801 24491,10746 "/>
  <polygon class="fil5" points="24838,10645 24823,10710 24888,10691 "/>
  <polygon class="fil5" points="24567,10935 24598,10875 24531,10878 "/>
  <polygon class="fil5" points="24592,10680 24653,10709 24648,10642 "/>
  <polygon class="fil5" points="24945,10859 24879,10873 24924,10923 "/>
  <polygon class="fil5" points="24771,11028 24738,10970 24704,11028 "/>
  <path class="fil17" d="M27955 10974c20,8 51,26 70,36 12,6 23,12 35,18 5,3 30,19 36,16 -7,-6 -31,-46 -38,-56 -36,-54 -76,-119 -111,-170l-3 -5 0 5 0 150 10 5z"/>
  <path class="fil18" d="M27953 10812l-8 2c18,7 45,24 63,33 13,7 51,29 62,31 9,-10 19,-19 29,-28 10,-10 19,-20 29,-30 21,-19 41,-41 62,-61l-7 2 -231 51z"/>
  <path class="fil19" d="M27790 10848c12,8 20,21 31,30 14,-7 124,-62 124,-65l-234 -52 -12 -3c8,10 86,82 91,90z"/>
  <polygon class="fil20" points="27795,11047 27945,10967 27942,10821 "/>
  <path class="fil21" d="M27821 10879c-1,22 -31,161 -26,168l147 -226 4 -7 -4 2 -120 62z"/>
  <path class="fil22" d="M28097 11045c-1,-24 -10,-59 -14,-84 -2,-15 -14,-73 -13,-83 -11,-2 -49,-24 -62,-31 -18,-9 -45,-26 -63,-33l3 5c35,51 75,116 111,170 7,10 31,50 38,56z"/>
  <path class="fil23" d="M27945 10811l0 3 4 -3c10,-13 25,-26 37,-39 6,-7 12,-14 18,-20 8,-7 14,-10 17,-21l-76 -150 0 229z"/>
  <path class="fil24" d="M27891 10689l-22 45c13,12 23,26 36,38 5,5 34,40 39,41l0 -232 -53 107z"/>
  <path class="fil5" d="M27949 10811l-4 3 239 -53 7 -2c-29,-9 -157,-18 -170,-28 -3,10 -10,14 -17,21 -7,6 -12,13 -18,20 -12,13 -26,26 -37,39z"/>
  <polygon class="fil25" points="27945,10814 27942,10821 27795,11047 27945,10967 "/>
  <polygon class="fil26" points="27869,10734 27945,10814 27699,10759 "/>
  <polygon class="fil5" points="28046,10657 28031,10723 28096,10704 "/>
  <polygon class="fil5" points="27775,10947 27806,10888 27739,10890 "/>
  <polygon class="fil5" points="27800,10693 27861,10722 27856,10655 "/>
  <polygon class="fil5" points="28153,10871 28087,10885 28132,10936 "/>
  <polygon class="fil5" points="27979,11040 27946,10982 27912,11040 "/>
  <path class="fil27" d="M6302 8398l-8 1423 1413 -5c-119,-786 -705,-1399 -1404,-1418l-1 0zm-216 -240l0 1859 1851 -8c-111,-1107 -688,-1763 -1851,-1851z"/>
  <path class="fil5" d="M5635 8792l0 1676 1730 21c-106,1463 -1985,2189 -3025,860 -667,-1017 57,-2552 1295,-2557l0 0zm221 -254l-2 1702 1732 -4c134,1842 -2202,2824 -3324,1382 -1065,-1251 -26,-3264 1594,-3079l0 -1z"/>
  <polygon class="fil11" points="9973,11882 10272,11882 13575,11882 13575,11626 10212,11626 10212,8587 9973,8587 9973,11567 "/>
  <polygon class="fil28" points="10750,10429 11019,10429 11019,11168 10750,11168 "/>
  <polygon class="fil28" points="11454,9616 11708,9616 11708,11152 11454,11152 "/>
  <polygon class="fil28" points="12160,9957 12430,9957 12430,11160 12160,11160 "/>
  <polygon class="fil28" points="12881,9209 13144,9209 13144,11160 12881,11160 "/>
  <polygon class="fil4" points="15865,11882 16163,11882 19466,11882 19466,11626 16104,11626 16104,8587 15865,8587 15865,11567 "/>
  <circle class="fil29" cx="17724" cy="9641" r="196"/>
  <circle class="fil29" cx="19213" cy="9234" r="254"/>
  <circle class="fil29" cx="17246" cy="10678" r="290"/>
  <circle class="fil29" cx="18690" cy="10704" r="432"/>
  <path class="fil13 str3" d="M23779 16256c51,-12 106,8 139,42l9 10c34,41 44,101 24,151 -7,16 -11,22 -20,36l13 12c5,6 10,11 16,16l15 15 3 3 3 3 15 16c1,1 2,1 3,3l18 18c3,3 8,10 12,12 -4,5 -14,14 -19,19 -2,2 -2,3 -4,4 -2,2 -6,6 -8,7 -6,-4 -17,-18 -22,-22 -5,-4 -11,-11 -15,-15l-3 -3c-9,-8 -56,-57 -58,-58 -2,0 -3,1 -4,2 -18,13 -50,25 -72,26l-13 0c-5,0 -7,0 -12,0 -20,0 -44,-9 -62,-18l-8 -5c-12,-8 -23,-16 -32,-28l-3 -3 -6 -7 -16 -29c-10,-24 -13,-40 -12,-68 0,-16 5,-33 10,-47 3,-9 8,-17 12,-25 8,-13 14,-20 25,-30 21,-20 44,-31 72,-38z"/>
  <rect class="fil4" x="23090" y="3138" width="4241" height="1078" rx="539" ry="539"/>
  <g id="_447856960">
   <path class="fil30" d="M24483 3764l0 -276 108 0c26,0 48,6 67,18 19,12 33,29 43,50 10,21 14,44 14,71 0,26 -5,50 -14,70 -10,20 -24,37 -43,49 -19,12 -41,18 -67,18l-108 0zm58 -53l50 0c14,0 26,-4 36,-12 10,-8 18,-18 22,-31 5,-12 7,-26 7,-42 0,-16 -2,-30 -7,-43 -5,-13 -12,-23 -22,-31 -10,-8 -22,-12 -36,-12l-50 0 0 170z"/>
   <path id="1" class="fil30" d="M24759 3721c-9,-15 -13,-32 -13,-51 0,-19 4,-36 13,-51 9,-15 21,-26 35,-34 15,-8 31,-12 49,-12 13,0 26,2 37,7 12,5 22,11 30,20 9,8 15,19 20,31 5,12 7,26 7,40 0,5 0,11 -1,17l-137 0c1,10 7,18 16,23 9,5 19,8 30,8 8,0 16,-2 23,-5 7,-3 13,-7 18,-13l40 28c-9,13 -21,22 -36,29 -15,6 -32,9 -49,9 -18,0 -34,-4 -49,-12 -15,-8 -27,-20 -35,-35zm43 -67l81 0c-1,-10 -6,-18 -14,-23 -8,-5 -16,-8 -25,-8 -9,0 -18,3 -26,8 -8,5 -13,13 -16,23z"/>
   <polygon id="2" class="fil30" points="24977,3764 24977,3475 25032,3475 25032,3764 "/>
   <path id="3" class="fil30" d="M25086 3531c-7,-6 -10,-14 -10,-23 0,-9 3,-17 10,-23 7,-6 15,-9 24,-9 9,0 17,3 24,9 7,6 10,14 10,23 0,9 -3,17 -10,23 -7,6 -15,10 -24,10 -10,0 -18,-3 -25,-10zm-3 233l0 -187 55 0 0 187 -55 0z"/>
   <polygon id="4" class="fil30" points="25165,3577 25224,3577 25268,3693 25311,3577 25371,3577 25291,3764 25244,3764 "/>
   <path id="5" class="fil30" d="M25396 3721c-9,-15 -13,-32 -13,-51 0,-19 4,-36 13,-51 9,-15 21,-26 35,-34 15,-8 31,-12 49,-12 13,0 26,2 37,7 12,5 22,11 30,20 9,8 15,19 20,31 5,12 7,26 7,40 0,5 0,11 -1,17l-137 0c1,10 7,18 16,23 9,5 19,8 30,8 8,0 16,-2 23,-5 7,-3 13,-7 18,-13l40 28c-9,13 -21,22 -36,29 -15,6 -32,9 -49,9 -18,0 -34,-4 -49,-12 -15,-8 -27,-20 -35,-35zm43 -67l81 0c-1,-10 -6,-18 -14,-23 -8,-5 -16,-8 -25,-8 -9,0 -18,3 -26,8 -8,5 -13,13 -16,23z"/>
   <path id="6" class="fil30" d="M25614 3764l0 -187 55 0 0 45c4,-16 12,-28 22,-36 10,-8 20,-12 31,-12 13,0 23,2 32,7l-10 50c-8,-4 -17,-6 -29,-6 -16,0 -28,6 -35,19 -7,12 -11,31 -11,56l0 65 -55 0z"/>
   <polygon id="7" class="fil30" points="25758,3577 25817,3577 25859,3683 25900,3577 25959,3577 25844,3856 25785,3856 25830,3745 "/>
   <path id="8" class="fil8" d="M24483 3764l0 -276 108 0c26,0 48,6 67,18 19,12 33,29 43,50 10,21 14,44 14,71 0,26 -5,50 -14,70 -10,20 -24,37 -43,49 -19,12 -41,18 -67,18l-108 0zm58 -53l50 0c14,0 26,-4 36,-12 10,-8 18,-18 22,-31 5,-12 7,-26 7,-42 0,-16 -2,-30 -7,-43 -5,-13 -12,-23 -22,-31 -10,-8 -22,-12 -36,-12l-50 0 0 170z"/>
   <path id="9" class="fil8" d="M24759 3721c-9,-15 -13,-32 -13,-51 0,-19 4,-36 13,-51 9,-15 21,-26 35,-34 15,-8 31,-12 49,-12 13,0 26,2 37,7 12,5 22,11 30,20 9,8 15,19 20,31 5,12 7,26 7,40 0,5 0,11 -1,17l-137 0c1,10 7,18 16,23 9,5 19,8 30,8 8,0 16,-2 23,-5 7,-3 13,-7 18,-13l40 28c-9,13 -21,22 -36,29 -15,6 -32,9 -49,9 -18,0 -34,-4 -49,-12 -15,-8 -27,-20 -35,-35zm43 -67l81 0c-1,-10 -6,-18 -14,-23 -8,-5 -16,-8 -25,-8 -9,0 -18,3 -26,8 -8,5 -13,13 -16,23z"/>
   <polygon id="10" class="fil8" points="24977,3764 24977,3475 25032,3475 25032,3764 "/>
   <path id="11" class="fil8" d="M25086 3531c-7,-6 -10,-14 -10,-23 0,-9 3,-17 10,-23 7,-6 15,-9 24,-9 9,0 17,3 24,9 7,6 10,14 10,23 0,9 -3,17 -10,23 -7,6 -15,10 -24,10 -10,0 -18,-3 -25,-10zm-3 233l0 -187 55 0 0 187 -55 0z"/>
   <polygon id="12" class="fil8" points="25165,3577 25224,3577 25268,3693 25311,3577 25371,3577 25291,3764 25244,3764 "/>
   <path id="13" class="fil8" d="M25396 3721c-9,-15 -13,-32 -13,-51 0,-19 4,-36 13,-51 9,-15 21,-26 35,-34 15,-8 31,-12 49,-12 13,0 26,2 37,7 12,5 22,11 30,20 9,8 15,19 20,31 5,12 7,26 7,40 0,5 0,11 -1,17l-137 0c1,10 7,18 16,23 9,5 19,8 30,8 8,0 16,-2 23,-5 7,-3 13,-7 18,-13l40 28c-9,13 -21,22 -36,29 -15,6 -32,9 -49,9 -18,0 -34,-4 -49,-12 -15,-8 -27,-20 -35,-35zm43 -67l81 0c-1,-10 -6,-18 -14,-23 -8,-5 -16,-8 -25,-8 -9,0 -18,3 -26,8 -8,5 -13,13 -16,23z"/>
   <path id="14" class="fil8" d="M25614 3764l0 -187 55 0 0 45c4,-16 12,-28 22,-36 10,-8 20,-12 31,-12 13,0 23,2 32,7l-10 50c-8,-4 -17,-6 -29,-6 -16,0 -28,6 -35,19 -7,12 -11,31 -11,56l0 65 -55 0z"/>
   <polygon id="15" class="fil8" points="25758,3577 25817,3577 25859,3683 25900,3577 25959,3577 25844,3856 25785,3856 25830,3745 "/>
   <path class="fil5" d="M23649 3910c4,5 10,11 13,18 8,7 2,5 14,9l78 -131c50,-99 116,-210 53,-308 -63,-98 -202,-104 -277,-19 -35,40 -46,99 -28,162 29,100 99,200 148,270z"/>
   <path class="fil4" d="M23549 3608c-24,-161 202,-202 228,-43 6,37 -1,73 -19,98 -44,61 -121,60 -167,22 -23,-19 -35,-35 -41,-77z"/>
   <path class="fil4" d="M23549 3608c6,41 18,58 41,77 46,38 123,38 167,-22 18,-25 25,-61 19,-98 -25,-158 -251,-118 -228,43z"/>
   <circle class="fil13 str0" cx="26692" cy="3678" r="235"/>
   <polyline class="fil13 str4" points="26692,3596 26780,3674 26694,3759 "/>
   <line class="fil13 str4" x1="26604" y1="3674" x2="26780" y2= "3674" />
  </g>
 </g>
</svg>
