<?xml version="1.0" encoding="UTF-8"?>
<!DOCTYPE svg PUBLIC "-//W3C//DTD SVG 1.1//EN" "http://www.w3.org/Graphics/SVG/1.1/DTD/svg11.dtd">
<!-- Creator: CorelDRAW X6 -->
<svg xmlns="http://www.w3.org/2000/svg" xml:space="preserve" width="189.484mm" height="189.483mm" version="1.1" style="shape-rendering:geometricPrecision; text-rendering:geometricPrecision; image-rendering:optimizeQuality; fill-rule:evenodd; clip-rule:evenodd"
viewBox="0 0 18948 18948"
 xmlns:xlink="http://www.w3.org/1999/xlink">
 <defs>
  <style type="text/css">
   <![CDATA[
    .str0 {stroke:black;stroke-width:20}
    .fil0 {fill:none}
    .fil4 {fill:#13ECAB}
    .fil5 {fill:#4C57FF}
    .fil6 {fill:#62C6A3}
    .fil1 {fill:#C834F7}
    .fil8 {fill:url(#id0)}
    .fil7 {fill:url(#id1)}
    .fil2 {fill:url(#id2)}
    .fil3 {fill:url(#id3)}
   ]]>
  </style>
  <linearGradient id="id0" gradientUnits="userSpaceOnUse" x1="14321.7" y1="12253.8" x2="15990.1" y2="10714.5">
   <stop offset="0" style="stop-color:#C834F7"/>
   <stop offset="1" style="stop-color:#13ECAB"/>
  </linearGradient>
  <linearGradient id="id1" gradientUnits="userSpaceOnUse" x1="15186.9" y1="8626.49" x2="15186.9" y2="10325.5">
   <stop offset="0" style="stop-color:#13ECAB"/>
   <stop offset="1" style="stop-color:#4C57FF"/>
  </linearGradient>
  <linearGradient id="id2" gradientUnits="objectBoundingBox" x1="78.6096%" y1="9.81818%" x2="21.3904%" y2="90.1818%">
   <stop offset="0" style="stop-color:#4C57FF"/>
   <stop offset="1" style="stop-color:#13ECAB"/>
  </linearGradient>
  <linearGradient id="id3" gradientUnits="objectBoundingBox" x1="72.2444%" y1="13.0045%" x2="27.7556%" y2="86.9955%">
   <stop offset="0" style="stop-color:#13ECAB"/>
   <stop offset="1" style="stop-color:#FEFEFE"/>
  </linearGradient>
 </defs>
 <g id="Layer_x0020_1">
  <metadata id="CorelCorpID_0Corel-Layer"/>
  <g id="_594227920">
   <rect class="fil0" width="18948" height="18948"/>
   <g>
    <ellipse class="fil1" cx="13319" cy="5375" rx="1416" ry="1432"/>
    <ellipse class="fil2" cx="13351" cy="5180" rx="1416" ry="1432"/>
    <ellipse class="fil3" cx="13374" cy="5172" rx="1001" ry="1002"/>
    <g>
     <path class="fil4" d="M13312 5948c-359,-40 -644,-325 -683,-683l683 0 0 683z"/>
     <path class="fil1" d="M14168 5265c-40,359 -325,644 -684,683l0 -683 684 0z"/>
     <path class="fil5" d="M13312 5093l-683 0c20,-180 101,-341 222,-462l461 461 0 1 0 0z"/>
     <path class="fil5" d="M13947 4633c120,121 201,281 221,460l-682 0 461 -460z"/>
    </g>
   </g>
   <path class="fil4" d="M5554 8153l-826 0 -3 1029 -412 -22 0 826 499 0c445,-73 715,-350 732,-755l10 -1078 0 0z"/>
   <path class="fil4" d="M11373 7930c-59,-19 -319,67 -388,86 -127,33 -254,62 -384,101 -70,21 -107,38 -176,57 -67,19 -138,31 -198,51l-569 151c-137,29 -125,41 -191,57l-193 45c-66,16 -139,34 -200,50 -130,34 -683,200 -775,185l-5 39c-37,-1 -41,9 -64,15l-479 126c-41,10 -98,21 -137,34l-263 80c-125,37 -87,3 -283,75l-974 251 -38 -3 11 -33c-82,26 -129,77 -232,89 -8,24 48,-14 -45,34l-128 89c-114,82 -202,362 -147,536l68 289c7,27 16,39 22,63 51,206 128,408 166,619l59 210c24,111 -1,50 53,212 7,-46 -3,0 95,-31 225,-69 324,-80 568,-73 45,1 71,7 119,10 77,4 49,4 101,24 54,21 55,-6 201,47 53,20 148,45 194,66 35,16 38,29 78,46 86,37 126,61 193,123 1,1 4,3 5,5l35 39c38,39 185,126 315,290 33,42 58,83 91,126l36 60c16,25 25,41 40,67 53,97 168,350 163,451 47,41 42,114 51,192 19,167 7,511 1,680 -5,143 -82,478 -140,568l-174 289c-41,66 -280,321 -336,362 -105,78 -331,215 -455,246 -34,8 -145,49 -176,63 -4,58 32,184 50,234 29,83 16,153 64,218l-3 -41c41,44 33,95 127,174l136 89c10,4 48,12 60,15 69,21 207,28 283,5l186 -64c24,-10 -22,4 21,-7 45,-11 66,-18 123,-24l475 -132c55,-26 59,-20 113,-37l245 -66c21,-7 354,-75 487,-117 105,-33 68,-11 128,-27 42,-11 70,-27 112,-37l610 -156c28,-11 86,-28 115,-35 50,-12 75,-16 124,-28 39,-9 17,-10 58,-18 52,-10 97,-3 152,-30 84,-41 240,-68 275,-80 135,-50 111,-30 181,-47 75,-19 143,-58 298,-80 24,-4 50,-2 72,-6l74 -31c1,0 30,-10 31,-10l296 -82c99,-31 65,-35 96,-49 67,-30 235,-49 249,-54 154,-51 304,-70 501,-143 51,-19 37,-21 89,-25l249 -59c96,-31 211,-49 358,-95 110,-34 340,-79 450,-120 113,-43 155,-39 236,-111 97,-86 175,-195 210,-318 8,-28 6,-47 14,-71 10,10 7,4 15,20 27,51 28,149 66,206 -12,-86 -41,-167 -61,-241 -25,-95 -43,-161 -68,-250 -24,-85 -127,-431 -125,-498 -6,-18 -20,-34 -27,-63 -7,-24 -9,-62 -15,-97 -10,-58 -45,-116 -37,-185l-887 -3157 -59 -171c-16,-102 -69,-254 -97,-358 -17,-63 -26,-101 -42,-175l-140 -528c-19,-74 -13,-50 -34,-76 -64,-78 -18,-114 -142,-194 -31,-19 -110,-129 -305,-135 -157,-4 -344,78 -543,119 -98,20 -258,99 -359,90z"/>
   <rect class="fil5" transform="matrix(0.951387 -0.28551 0.317204 1.22075 9975.44 10673.8)" width="3658" height="1836" rx="390" ry="390"/>
   <path class="fil5" d="M7002 15540c43,110 72,395 279,505 31,17 62,24 91,40 186,102 347,18 538,-28 20,-5 34,-5 54,-12 31,-10 8,-7 44,-19l328 -67c120,-8 401,-104 553,-142 107,-26 177,-36 272,-73 90,-34 192,-46 281,-75l412 -108c51,-12 87,-33 129,-48 41,-14 301,-62 422,-108l416 -112c155,-41 407,-118 550,-148 56,-12 91,-18 139,-34l698 -186c111,-25 492,-143 573,-149 11,-11 183,-41 218,-52 46,-15 63,-16 113,-28 32,-8 72,-33 107,-27 16,-45 -13,-16 42,-36l427 -112c29,-10 62,-21 88,-27 64,-16 133,-26 192,-49 223,-90 405,-333 346,-596 -38,-57 -39,-155 -66,-206 -8,-16 -5,-10 -15,-20 -8,24 -6,43 -14,71 -35,123 -113,232 -210,318 -81,72 -123,68 -236,111 -110,41 -340,86 -450,120 -147,46 -262,64 -358,95l-249 59c-52,4 -38,6 -89,25 -197,73 -347,92 -501,143 -14,5 -182,24 -249,54 -31,14 3,18 -96,49l-296 82c-1,0 -30,10 -31,10l-74 31c-22,4 -48,2 -72,6 -155,22 -223,61 -298,80 -70,17 -46,-3 -181,47 -35,12 -191,39 -275,80 -55,27 -100,20 -152,30 -41,8 -19,9 -58,18 -49,12 -74,16 -124,28 -29,7 -87,24 -115,35l-610 156c-42,10 -70,26 -112,37 -60,16 -23,-6 -128,27 -133,42 -466,110 -487,117l-245 66c-54,17 -58,11 -113,37l-475 132c-57,6 -78,13 -123,24 -43,11 3,-3 -21,7l-186 64c-76,23 -214,16 -283,-5 -12,-3 -50,-11 -60,-15l-136 -89c-94,-79 -86,-130 -127,-174l3 41z"/>
   <path class="fil5" d="M6202 9230c-45,21 -91,46 -135,67l-11 33 38 3c12,-14 6,-11 26,-22 10,-6 21,-9 31,-12l5581 -1487c-4,-451 -259,-630 -517,-503l-5013 1921z"/>
   <path class="fil6" d="M7745 14476c-13,73 -221,237 -225,242 -43,50 -88,73 -156,113 -172,101 -100,54 -244,124 -132,65 -238,59 -254,114 2,32 4,85 9,115 5,25 23,64 32,95 9,33 12,71 19,101l137 473c68,45 108,208 371,288 62,19 145,15 211,9 93,-9 262,-62 349,-87 62,-17 111,-30 171,-44 34,-9 54,-15 82,-25 27,-10 67,-18 89,-35l-328 67c-36,12 -13,9 -44,19 -20,7 -34,7 -54,12 -191,46 -352,130 -538,28 -29,-16 -60,-23 -91,-40 -207,-110 -236,-395 -279,-505 -48,-65 -35,-135 -64,-218 -18,-50 -54,-176 -50,-234 31,-14 142,-55 176,-63 124,-31 350,-168 455,-246 56,-41 295,-296 336,-362l174 -289c58,-90 135,-425 140,-568 6,-169 18,-513 -1,-680 -9,-78 -4,-151 -51,-192 1,77 24,180 32,259 7,81 1,194 1,279 0,354 -25,621 -177,933l-161 257c-46,57 -18,53 -67,60z"/>
   <path class="fil4" d="M11373 7930c101,9 261,-70 359,-90 199,-41 386,-123 543,-119 195,6 274,116 305,135 124,80 78,116 142,194 21,26 15,2 34,76l140 528c16,74 25,112 42,175 28,104 81,256 97,358l59 171c10,14 6,9 30,12 -25,-116 -60,-258 -93,-368 -14,-49 -43,-121 -52,-171 -13,-72 -23,-120 -42,-188 -30,-108 -75,-248 -96,-359 -27,-150 -44,-224 -121,-339 -114,-168 -358,-314 -638,-232 -61,18 -115,38 -184,46 -67,7 -96,37 -166,53 -56,12 -125,29 -181,47l-133 37c-65,21 -25,-11 -45,34z"/>
   <circle class="fil4" cx="11288" cy="11466" r="542"/>
   <g>
    <path class="fil4" d="M2263 3308c168,-332 425,-398 756,-237l3556 1831c297,161 398,407 275,752l-1007 1890c-205,226 -484,229 -845,-17l-3344 -1715c-338,-128 -464,-351 -307,-698l916 -1806z"/>
    <polygon class="fil5" points="1651,4513 6211,6852 5903,7432 1366,5075 "/>
    <polygon class="fil1" points="2807,3297 2516,3827 3511,4366 3842,3856 "/>
   </g>
   <g>
    <polygon class="fil5" points="17029,6411 17509,6899 17024,7388 16550,6862 "/>
    <path class="fil4" d="M17438 7566l-690 0 -3 860 -345 -19 0 691 417 0c373,-61 599,-293 613,-631l8 -901 0 0z"/>
    <polygon class="fil1" points="16996,11288 16742,11548 17226,12035 17485,11773 "/>
    <polygon class="fil5" points="17487,10791 16990,11294 17485,11773 18464,11773 "/>
    <polygon class="fil5" points="13328,6411 12849,6899 13333,7388 13807,6862 "/>
    <path class="fil4" d="M12919 7566l690 0 4 860 344 -19 0 691 -418 0c-372,-61 -598,-293 -612,-631l-8 -901 0 0z"/>
    <polygon class="fil7" points="16400,8387 15528,8387 15089,8830 14655,8389 13975,8388 13970,9289 14321,9285 14320,10565 15926,10554 15928,9287 16403,9287 "/>
    <polygon class="fil8" points="16079,10554 14220,10553 14220,12365 15158,12416 15158,11312 15282,11311 15289,12373 16092,12188 "/>
    <polygon class="fil1" points="14909,13725 14910,14169 14221,14168 14220,13723 "/>
    <polygon class="fil5" points="14221,14168 14910,14169 14909,14840 13542,14844 "/>
    <ellipse class="fil1" cx="15002" cy="7392" rx="659" ry="648"/>
    <path class="fil4" d="M14544 6927l931 915c-275,274 -731,250 -970,-26 -250,-277 -207,-662 39,-889z"/>
    <polygon class="fil4" points="14959,12404 14909,13725 14220,13723 14291,12370 "/>
    <path class="fil4" d="M16742 11548l468 470 -763 759c-432,260 -795,115 -1094,-418l719 -141 670 -670z"/>
   </g>
   <polygon class="fil5" points="4975,7004 5474,7512 4970,8020 4476,7473 "/>
   <polygon class="fil5" points="1303,12081 804,11573 1308,11065 1802,11612 "/>
   <g>
    <polygon class="fil4" points="3365,12916 3364,15082 3962,15080 3963,12916 "/>
    <polygon class="fil1" points="3364,15082 3962,15080 4552,15785 3365,15780 "/>
    <polygon class="fil4" points="2420,12925 2419,15082 3017,15080 3018,12924 "/>
    <polygon class="fil1" points="2419,15082 3017,15080 3607,15785 2420,15780 "/>
   </g>
   <path class="fil4" d="M877 10880l719 0 3 -895 359 19 0 -719 -435 0c-387,64 -623,304 -637,657l-9 938 0 0z"/>
   <polygon class="fil1" points="1958,9081 2707,9081 3163,9542 3616,9083 4323,9082 4328,10019 3963,10015 3964,11347 2451,11335 2449,10017 1954,10017 "/>
   <ellipse class="fil5" cx="3150" cy="8045" rx="685" ry="674"/>
   <path class="fil4" d="M3627 7561l-969 953c286,286 761,260 1010,-26 259,-289 215,-690 -41,-927z"/>
   <polygon class="fil5" points="2335,11335 3345,11334 4081,11334 4081,12930 3267,12931 3267,12401 3136,12398 3136,12930 2322,12931 2322,11717 "/>
   <g>
    <ellipse class="fil1" cx="6340" cy="13402" rx="1826" ry="1846"/>
    <ellipse class="fil2" cx="6382" cy="13151" rx="1826" ry="1846"/>
    <ellipse class="fil3" cx="6411" cy="13140" rx="1290" ry="1291"/>
    <g>
     <path class="fil4" d="M6331 14141c-462,-51 -829,-418 -880,-880l880 0 0 880z"/>
     <path class="fil1" d="M7434 13261c-51,463 -418,830 -880,880l0 -880 880 0z"/>
     <path class="fil5" d="M6331 13039l-880 0c26,-232 130,-440 286,-595l594 594 0 1 0 0z"/>
     <path class="fil5" d="M7149 12445c156,157 260,363 285,594l-878 0 593 -594z"/>
    </g>
   </g>
   <rect class="fil4 str0" x="12975" y="14884" width="3289" height="369" rx="184" ry="184"/>
   <rect class="fil1 str0" x="12698" y="15258" width="3217" height="376" rx="188" ry="188"/>
   <rect class="fil4 str0" x="12793" y="15634" width="3005" height="312" rx="156" ry="156"/>
   <polygon class="fil4" points="16474,5324 16327,5663 16067,5700 16237,5933 16221,6255 16485,6118 16761,6261 16713,5922 16935,5721 16639,5647 "/>
   <polygon class="fil4" points="10862,3314 10688,3713 10382,3757 10582,4032 10563,4413 10875,4251 11200,4419 11144,4019 11406,3782 11057,3695 "/>
   <g>
    <ellipse class="fil1" cx="8283" cy="3895" rx="1130" ry="1142"/>
    <ellipse class="fil2" cx="8309" cy="3739" rx="1130" ry="1142"/>
    <ellipse class="fil3" cx="8327" cy="3733" rx="798" ry="799"/>
    <g>
     <path class="fil4" d="M8278 4352c-287,-32 -514,-259 -545,-545l545 0 0 545z"/>
     <path class="fil1" d="M8960 3807c-32,287 -259,514 -545,545l0 -545 545 0z"/>
     <path class="fil5" d="M8278 3670l-545 0c16,-144 80,-272 177,-368l368 367 0 1 0 0z"/>
     <path class="fil5" d="M8784 3303c96,96 160,224 176,367l-543 0 367 -367z"/>
    </g>
   </g>
   <g>
    <polygon class="fil4" points="8029,6454 8657,5633 9284,6454 9282,6456 8031,6456 "/>
    <polygon class="fil4" points="8036,6603 8659,7495 9282,6603 9280,6600 8038,6600 "/>
   </g>
  </g>
 </g>
</svg>
