<?xml version="1.0" encoding="UTF-8"?>
<!DOCTYPE svg PUBLIC "-//W3C//DTD SVG 1.1//EN" "http://www.w3.org/Graphics/SVG/1.1/DTD/svg11.dtd">
<!-- Creator: CorelDRAW X6 -->
<svg xmlns="http://www.w3.org/2000/svg" xml:space="preserve" width="98.68mm" height="201.174mm" version="1.1" style="shape-rendering:geometricPrecision; text-rendering:geometricPrecision; image-rendering:optimizeQuality; fill-rule:evenodd; clip-rule:evenodd"
viewBox="0 0 9868 20117"
 xmlns:xlink="http://www.w3.org/1999/xlink">
 <defs>
  <style type="text/css">
   <![CDATA[
    .str0 {stroke:#C834F7;stroke-width:20}
    .fil1 {fill:#C834F7}
    .fil2 {fill:#13ECAB}
    .fil0 {fill:white}
    .fil3 {fill:#C834F7;fill-rule:nonzero}
   ]]>
  </style>
 </defs>
 <g id="Layer_x0020_1">
  <metadata id="CorelCorpID_0Corel-Layer"/>
  <path class="fil0" d="M1472 0l6924 0c810,0 1472,662 1472,1472l0 17173c0,810 -662,1472 -1472,1472l-6924 0c-810,0 -1472,-662 -1472,-1472l0 -17173c0,-810 662,-1472 1472,-1472z"/>
  <g id="_626190136">
   <path class="fil1" d="M1431 601l1054 0 0 382c0,254 209,463 463,463l3972 0c254,0 463,-209 463,-463l0 -382 1035 0c469,0 853,384 853,853l0 17163c0,469 -384,852 -853,852l-6987 0c-469,0 -852,-383 -852,-852l0 -17163c0,-469 383,-853 852,-853l0 0zm41 -601l6924 0c810,0 1472,662 1472,1472l0 17173c0,810 -662,1472 -1472,1472l-6924 0c-810,0 -1472,-662 -1472,-1472l0 -17173c0,-810 662,-1472 1472,-1472z"/>
   <g>
    <path class="fil2" d="M4005 825c32,56 52,49 129,51l2221 18c85,0 272,25 264,-85 -5,-69 -68,-52 -140,-51 -714,11 -1474,-13 -2205,-5 -53,1 -115,0 -167,4 -71,7 -84,13 -103,68l1 0z"/>
    <ellipse class="fil2" cx="3333" cy="824" rx="84" ry="64"/>
   </g>
  </g>
  <g id="_626205544">
   <path class="fil3" d="M3376 9920c-29,29 -43,67 -43,116 0,47 15,85 46,112 31,26 67,40 109,40 42,0 78,-14 108,-42 28,-28 42,-65 42,-111 0,-46 -14,-83 -44,-113 -30,-29 -66,-44 -109,-44 -43,-1 -79,14 -109,42zm-44 -122l0 74c15,-27 38,-47 67,-61 29,-15 61,-23 97,-23 65,0 121,23 166,68 45,46 68,105 68,177 0,73 -23,131 -68,177 -45,45 -100,67 -166,67 -36,0 -69,-7 -98,-21 -30,-14 -52,-34 -66,-59l0 219c1,58 -36,79 -92,79l0 -622c0,-61 40,-77 92,-75z"/>
   <path class="fil3" d="M4171 10146c30,-29 45,-66 45,-114 0,-48 -15,-86 -47,-113 -31,-27 -68,-41 -111,-42 -42,0 -78,15 -107,43 -29,28 -43,65 -43,111 0,46 15,83 44,113 30,29 66,44 109,44 43,0 80,-14 110,-42zm46 121l0 -72c-14,25 -37,44 -66,60 -30,15 -63,22 -98,22 -65,0 -121,-23 -169,-68 -46,-46 -69,-104 -69,-177 0,-72 22,-131 68,-176 45,-45 102,-68 170,-68 34,0 67,7 98,21 31,15 53,35 66,59 2,-51 38,-69 92,-70l0 394c-3,60 -36,81 -92,75z"/>
   <path class="fil3" d="M4500 9798l320 0 0 77 -292 314 199 0c56,1 92,26 93,90l-423 0 0 -78 286 -314 -270 0c1,-57 31,-85 87,-89z"/>
   <path class="fil3" d="M5261 10146c30,-29 45,-66 45,-114 0,-48 -15,-86 -47,-113 -31,-27 -68,-41 -111,-42 -42,0 -78,15 -107,43 -29,28 -43,65 -43,111 0,46 15,83 44,113 30,29 66,44 109,44 43,0 80,-14 110,-42zm46 121l0 -72c-14,25 -37,44 -66,60 -30,15 -63,22 -98,22 -65,0 -122,-23 -169,-68 -46,-46 -69,-104 -69,-177 0,-72 22,-131 68,-176 45,-45 102,-68 170,-68 34,0 67,7 98,21 31,15 53,35 66,59 7,-57 41,-76 92,-70l0 397c-1,51 -32,75 -92,72z"/>
   <path class="fil3" d="M5553 9822c32,-23 70,-34 114,-34 45,0 81,11 110,34 29,23 46,55 50,97l-87 0c-3,-15 -11,-27 -24,-36 -15,-9 -31,-14 -50,-14 -17,0 -33,4 -45,12 -13,6 -22,16 -25,31 -4,15 -4,27 1,35 8,15 26,27 55,35l69 17c82,20 122,66 122,137 0,43 -17,77 -53,103 -35,26 -77,38 -125,38 -48,0 -89,-14 -125,-41 -35,-28 -53,-64 -54,-110l87 0c4,24 16,42 37,54 21,13 43,18 67,17 23,-1 42,-8 55,-19 13,-12 20,-26 22,-42 1,-16 -4,-29 -15,-39 -12,-10 -27,-17 -47,-22l-65 -15c-45,-12 -79,-30 -100,-54 -21,-25 -29,-56 -25,-93 3,-37 20,-68 51,-91z"/>
   <path class="fil3" d="M6657 10146c29,-28 44,-66 44,-113 0,-47 -15,-85 -44,-113 -29,-28 -66,-42 -109,-43 -44,0 -81,14 -110,43 -30,28 -45,66 -45,112 0,47 14,85 44,114 29,29 66,44 110,44 44,0 81,-15 110,-44zm-110 131c-68,0 -126,-22 -174,-68 -48,-45 -72,-104 -72,-177 0,-72 24,-132 71,-177 47,-45 105,-67 174,-67 70,0 128,22 175,68 48,45 72,104 72,176 0,73 -24,131 -72,177 -47,45 -105,68 -174,68z"/>
   <path class="fil3" d="M7019 9920c-29,29 -43,67 -43,116 0,47 15,85 46,112 31,26 67,40 109,40 42,0 78,-14 108,-42 28,-28 42,-65 42,-111 0,-46 -15,-83 -44,-113 -30,-29 -66,-44 -109,-44 -43,-1 -80,14 -109,42zm-44 -122l0 74c15,-27 37,-47 67,-61 29,-15 61,-23 96,-23 66,0 121,23 167,68 45,46 68,105 68,177 0,73 -23,131 -68,177 -45,45 -100,67 -167,67 -35,0 -68,-7 -98,-21 -29,-14 -51,-34 -65,-59l0 219c-2,52 -28,79 -92,79l0 -619c0,-58 42,-78 92,-78z"/>
   <path class="fil3" d="M6117 9613l0 177 0 83 0 320c-1,48 -27,80 -94,80l0 -400 0 -83 0 -105c0,-57 39,-72 94,-72z"/>
   <path class="fil1 str0" d="M2552 9873l404 307 -43 11c-117,29 -238,-2 -323,-88 -61,-62 -94,-144 -94,-230 -1,-216 205,-370 413,-319l43 10 -400 309z"/>
   <path class="fil1 str0" d="M3085 10165l-400 -308 43 -11c208,-51 414,103 413,319 0,87 -34,169 -94,230 -85,86 -206,117 -323,88l-43 -10 404 -308z"/>
   <path class="fil3" d="M6116 9792l26 0c59,2 78,23 77,86l-103 0 -95 0c-73,1 -85,-32 -89,-86l89 0 95 0z"/>
   <path class="fil1" d="M3103 10330l39 46c42,50 36,127 -15,169l0 0c-50,43 -127,36 -169,-14l-41 -49c82,-26 143,-78 186,-152z"/>
   <polygon class="fil2" points="3008,10436 3093,10508 3035,10415 "/>
  </g>
 </g>
</svg>
