<?xml version="1.0" encoding="UTF-8"?>
<!DOCTYPE svg PUBLIC "-//W3C//DTD SVG 1.1//EN" "http://www.w3.org/Graphics/SVG/1.1/DTD/svg11.dtd">
<!-- Creator: CorelDRAW X6 -->
<svg xmlns="http://www.w3.org/2000/svg" xml:space="preserve" width="188.114mm" height="188.218mm" version="1.1" style="shape-rendering:geometricPrecision; text-rendering:geometricPrecision; image-rendering:optimizeQuality; fill-rule:evenodd; clip-rule:evenodd"
viewBox="0 0 18812 18822"
 xmlns:xlink="http://www.w3.org/1999/xlink">
 <defs>
  <style type="text/css">
   <![CDATA[
    .fil1 {fill:#13ECAB}
    .fil2 {fill:#4C57FF}
    .fil7 {fill:#C834F7}
    .fil0 {fill:url(#id0)}
    .fil4 {fill:url(#id1)}
    .fil3 {fill:url(#id2)}
    .fil6 {fill:url(#id3)}
    .fil5 {fill:url(#id4)}
   ]]>
  </style>
  <linearGradient id="id0" gradientUnits="userSpaceOnUse" x1="9405.68" y1="0" x2="9405.68" y2="11350.3">
   <stop offset="0" style="stop-color:#13ECAB"/>
   <stop offset="1" style="stop-color:#C834F7"/>
  </linearGradient>
  <linearGradient id="id1" gradientUnits="userSpaceOnUse" x1="12559.6" y1="3440.49" x2="9041.24" y2="3485.29">
   <stop offset="0" style="stop-color:#13ECAB"/>
   <stop offset="1" style="stop-color:#4C57FF"/>
  </linearGradient>
  <linearGradient id="id2" gradientUnits="userSpaceOnUse" x1="5584.84" y1="3402.95" x2="8554.03" y2="3485.97">
   <stop offset="0" style="stop-color:#4C57FF"/>
   <stop offset="1" style="stop-color:#13ECAB"/>
  </linearGradient>
  <linearGradient id="id3" gradientUnits="userSpaceOnUse" xlink:href="#id2" x1="10739.4" y1="8532.34" x2="11042.1" y2="4915.87">
  </linearGradient>
  <linearGradient id="id4" gradientUnits="userSpaceOnUse" xlink:href="#id2" x1="6551.26" y1="8424.26" x2="7399.41" y2="4880.57">
  </linearGradient>
 </defs>
 <g id="Layer_x0020_1">
  <metadata id="CorelCorpID_0Corel-Layer"/>
  <rect class="fil0" width="18811" height="11350" rx="682" ry="409"/>
  <rect class="fil1" x="156" y="13808" width="6521" height="1270" rx="340" ry="420"/>
  <rect class="fil1" x="156" y="15676" width="6521" height="1270" rx="340" ry="420"/>
  <rect class="fil1" x="7318" y="13808" width="11338" height="1270" rx="591" ry="420"/>
  <rect class="fil1" x="7318" y="15676" width="11338" height="1270" rx="591" ry="420"/>
  <rect class="fil1" x="2043" y="11940" width="4638" height="1270" rx="242" ry="420"/>
  <rect class="fil1" x="7289" y="11940" width="9556" height="1270" rx="498" ry="420"/>
  <rect class="fil1" x="156" y="15676" width="1292" height="1270" rx="67" ry="420"/>
  <rect class="fil1" y="13808" width="6521" height="1270" rx="340" ry="420"/>
  <rect class="fil1" y="15676" width="6521" height="1270" rx="340" ry="420"/>
  <rect class="fil1" x="7276" y="13808" width="11536" height="1270" rx="601" ry="420"/>
  <rect class="fil1" x="7276" y="15676" width="11536" height="1270" rx="601" ry="420"/>
  <path class="fil1" d="M420 17515l453 0c231,0 420,189 420,420l0 430c0,231 -189,420 -420,420l-453 0c-231,0 -420,-189 -420,-420l0 -430c0,-231 189,-420 420,-420zm-36 490l125 0c6,-103 55,-157 135,-156 87,2 137,49 144,156l121 0 0 445 -525 0 0 -445zm177 0l169 0c4,-139 -179,-119 -169,0z"/>
  <path class="fil1" d="M17939 17552l453 0c231,0 420,189 420,420l0 430c0,231 -189,420 -420,420l-453 0c-231,0 -420,-189 -420,-420l0 -430c0,-231 189,-420 420,-420zm224 337l-98 198 -216 25 154 155 -31 217 192 -99 193 100 -39 -218 163 -153 -222 -31 -96 -194z"/>
  <path class="fil1" d="M420 11940l453 0c231,0 420,189 420,420l0 430c0,231 -189,420 -420,420l-453 0c-231,0 -420,-189 -420,-420l0 -430c0,-231 189,-420 420,-420zm189 920c-155,-17 -279,-140 -296,-296l296 0 0 296zm370 -296c-17,156 -140,279 -295,296l0 -296 295 0zm-370 -74l-296 0c9,-78 44,-148 97,-200l199 200 0 0 0 0zm275 -199c52,52 87,122 95,199l-294 0 199 -199z"/>
  <path class="fil1" d="M7696 17533l452 0c231,0 420,189 420,420l0 430c0,231 -189,420 -420,420l-452 0c-231,0 -420,-189 -420,-420l0 -430c0,-231 189,-420 420,-420zm222 427c-35,-93 -198,-86 -261,27 -76,237 186,362 264,455 107,-111 271,-178 280,-394 -28,-159 -206,-205 -283,-88z"/>
  <path class="fil1" d="M17939 11948l453 0c231,0 420,189 420,420l0 430c0,231 -189,420 -420,420l-453 0c-231,0 -420,-189 -420,-420l0 -430c0,-231 189,-420 420,-420zm-228 918l242 -279 130 158 218 -253 319 377 -909 -3zm156 -489l85 -81 85 81 -85 82 -85 -82z"/>
  <path class="fil2" d="M9326 1555c-314,-168 -570,-186 -976,24l-3151 1639c-233,154 -320,396 -328,751l10 3341c-35,399 105,708 464,903l3101 1615c418,157 816,129 1191,-120l3014 -1518c334,-177 393,-367 360,-864l-32 -3429c-27,-424 -171,-664 -448,-797l-3205 -1545z"/>
  <path class="fil3" d="M5619 3344l3121 -1597 8 3395 -3055 -1506c-178,-88 -302,-137 -74,-292z"/>
  <path class="fil4" d="M12351 3372l-3282 -1606 -4 3394 3267 -1539c187,-88 204,-130 19,-249z"/>
  <path class="fil5" d="M5191 4176l12 3127c-30,272 98,578 314,691l3261 1576 -36 -4084 -3194 -1607c-251,-144 -357,16 -357,297z"/>
  <path class="fil6" d="M12671 4058l16 3256c29,272 -2,534 -217,647l-3394 1647 -11 -4121 3332 -1531c195,-109 268,-116 274,102z"/>
  <g id="_550406728">
   <path class="fil7" d="M6806 7755c-579,-273 -1003,-913 -1018,-1536l1112 392 -94 1144z"/>
   <path class="fil7" d="M8292 7102c-114,578 -617,892 -1206,752l94 -1144 1112 392z"/>
   <path class="fil7" d="M6923 6323l-1112 -392c58,-290 212,-513 425,-646l687 1036 0 2 0 0z"/>
   <path class="fil7" d="M8019 5916c180,272 289,587 297,897l-1109 -391 812 -506z"/>
  </g>
  <g id="_550408600">
   <path class="fil7" d="M11205 7755c579,-273 1004,-913 1019,-1536l-1112 392 93 1144z"/>
   <path class="fil7" d="M9719 7102c114,578 617,892 1206,752l-94 -1144 -1112 392z"/>
   <path class="fil7" d="M11088 6323l1112 -392c-57,-290 -211,-513 -425,-646l-687 1036 0 2 0 0z"/>
   <path class="fil7" d="M9992 5916c-179,272 -288,587 -296,897l1108 -391 -812 -506z"/>
  </g>
 </g>
</svg>
