<?xml version="1.0" encoding="UTF-8"?>
<!DOCTYPE svg PUBLIC "-//W3C//DTD SVG 1.1//EN" "http://www.w3.org/Graphics/SVG/1.1/DTD/svg11.dtd">
<!-- Creator: CorelDRAW X6 -->
<svg xmlns="http://www.w3.org/2000/svg" xml:space="preserve" width="186.235mm" height="181.61mm" version="1.1" style="shape-rendering:geometricPrecision; text-rendering:geometricPrecision; image-rendering:optimizeQuality; fill-rule:evenodd; clip-rule:evenodd"
viewBox="0 0 17705 17266"
 xmlns:xlink="http://www.w3.org/1999/xlink">
 <defs>
  <style type="text/css">
   <![CDATA[
    .str2 {stroke:#3B9CFF;stroke-width:40.2433}
    .str1 {stroke:#3B9CFF;stroke-width:7.24437;stroke-opacity:0.980392}
    .str0 {stroke:#3B9CFF;stroke-width:9.63064;stroke-opacity:0.980392}
    .fil7 {fill:none;fill-rule:nonzero}
    .fil12 {fill:none}
    .fil10 {fill:#3B9CFF}
    .fil9 {fill:#3B9CFF;fill-rule:nonzero}
    .fil5 {fill:#38D0FF;fill-opacity:0.050980}
    .fil0 {fill:white;fill-opacity:0.109804}
    .fil11 {fill:#FEB434;fill-opacity:0.9}
    .fil1 {fill:#3B9CFF;fill-opacity:0.450980}
    .fil2 {fill:#B4DCFF;fill-opacity:0.450980}
    .fil4 {fill:#FBD13E;fill-opacity:0.9}
    .fil6 {fill:#75deff;fill-rule:nonzero;fill-opacity:1.0}
    .fil8 {fill:#95C9FF;fill-rule:nonzero;fill-opacity:0.980392}
    .fil3 {fill:#00C2FF}
   ]]>
  </style>
 </defs>
 <g id="Layer_x0020_1">
  <metadata id="CorelCorpID_0Corel-Layer"/>
  <path class="fil0" d="M2992 1443l10596 0c228,0 414,186 414,414l0 12471c0,228 -186,414 -414,414l-10596 0c-228,0 -414,-186 -414,-414l0 -12471c0,-228 186,-414 414,-414z"/>
  <g id="_749374192">
   <path class="fil1" d="M7497 6538l-33 143 -2820 644c-81,28 -125,99 -128,214l24 3030c-14,88 19,109 86,80l2849 -1090 337 83 -3115 1186c-76,43 -396,-48 -418,-156l-35 -3177c-6,-153 71,-243 218,-280l3034 -678z"/>
   <polygon class="fil1" points="11482,8638 12046,8758 12048,8896 11472,8748 "/>
   <path class="fil1" d="M11846 7112l-3130 901c-249,51 -356,181 -315,394l-52 3329c8,191 372,284 487,218l3301 -1583c130,-35 182,-142 197,-283l-19 -2814c-21,-142 -168,-203 -470,-161zm185 124l-3123 902c-134,56 -199,151 -185,290l-71 3341 3313 -1566c69,-26 91,-102 95,-197l-28 -2771z"/>
   <path class="fil2" d="M11352 9138l-411 51c105,-213 125,-447 90,-695 50,-1 77,-38 83,-110l141 -924 456 -132c-91,611 -187,1183 -291,1682l-24 92 -42 35zm-70 -1864l270 -1776 51 -210 38 -52 46 -37 63 -9 81 1 90 7 55 0 22 15 -1 76 -26 134c-77,585 -154,1167 -235,1720l-455 131z"/>
   <path class="fil1" d="M11999 5213l-49 -62 -135 -66 -166 -41 -211 -45c-1112,-200 -2224,-326 -3336,-360l-138 31 -142 90 -62 162 -80 273c-45,515 -101,1017 -211,1459l-192 981c696,82 1319,168 1850,258l2160 -621 302 -1929c19,-90 65,-134 129,-149l280 18zm-2485 2750c841,161 1383,337 1517,531 57,-3 89,-52 90,-156l138 -879 -1744 504z"/>
   <path class="fil2" d="M4530 8007l74 -55 242 -90 425 -80 577 -86 560 -35 429 -24 401 7 80 -17c655,86 1273,174 1812,267l-415 119c-249,51 -356,181 -315,394l-7 421 -5 1 -3860 -821zm4985 -44c823,158 1395,331 1516,531 42,251 7,481 -90,695l-2223 387 -20 13 25 -1160c-14,-139 51,-234 185,-290l608 -176z"/>
   <polygon class="fil1" points="4526,8830 4521,8019 4568,8007 5247,8161 8390,8828 8388,9209 8379,9782 "/>
  </g>
  <path class="fil3" d="M7839 7240l9281 0c156,0 283,128 283,283l0 3903c0,156 -128,283 -283,283l-9281 0c-156,0 -283,-128 -283,-283l0 -3903c0,-156 128,-283 283,-283z"/>
  <path class="fil4" d="M1289 12147l11441 0c271,0 492,222 492,492l0 954c0,271 -222,492 -492,492l-11441 0c-271,0 -492,-222 -492,-492l0 -954c0,-271 222,-492 492,-492z"/>
  <path class="fil5" d="M805 0l16096 0c443,0 805,362 805,805l0 15656c0,443 -362,805 -805,805l-16096 0c-443,0 -805,-362 -805,-805l0 -15656c0,-443 362,-805 805,-805zm2187 1443l10596 0c228,0 414,186 414,414l0 12471c0,228 -186,414 -414,414l-10596 0c-228,0 -414,-186 -414,-414l0 -243 -1289 0c-271,0 -492,-222 -492,-492l0 -954c0,-271 222,-492 492,-492l1289 0 0 -10290c0,-228 186,-414 414,-414z"/>
  <path class="fil6" d="M3444 3040l89 0c1,30 14,57 41,80 27,24 60,35 100,35 39,0 70,-9 93,-28 22,-19 36,-42 40,-69 1,-17 -1,-33 -7,-46 -6,-14 -14,-25 -25,-34 -11,-9 -24,-17 -37,-22 -13,-6 -27,-11 -43,-14l-85 -21c-107,-27 -161,-84 -161,-172 0,-36 10,-68 30,-97 20,-29 46,-51 78,-66 32,-15 67,-23 105,-23 61,0 112,18 152,53 40,35 60,81 60,139l-89 0c0,-32 -12,-58 -35,-78 -23,-20 -53,-29 -89,-29 -33,0 -62,9 -86,28 -24,19 -37,43 -37,72 0,46 31,77 93,93l86 21c63,16 109,42 140,76 31,35 43,78 36,129 -6,49 -29,90 -68,122 -39,32 -89,49 -151,49 -33,0 -64,-6 -93,-17 -29,-11 -54,-26 -74,-44 -20,-18 -35,-39 -47,-64 -11,-24 -17,-49 -17,-74zm573 87c-21,-36 -32,-77 -32,-123 0,-46 11,-86 32,-122 21,-35 50,-63 85,-81 35,-19 74,-28 116,-28 42,0 81,9 116,28 35,19 63,46 85,81 21,36 32,76 32,122 0,46 -11,86 -32,123 -21,36 -50,64 -85,83 -35,19 -74,29 -116,29 -42,0 -81,-10 -116,-29 -35,-19 -64,-47 -85,-83zm55 -123c0,44 14,80 42,108 28,28 63,41 104,41 41,0 75,-14 104,-41 28,-28 42,-64 42,-108 0,-44 -14,-79 -42,-106 -28,-27 -63,-40 -104,-40 -41,0 -76,13 -104,40 -28,27 -42,62 -42,106zm442 -148l0 -74 87 0 0 -45c0,-61 14,-110 42,-145 28,-35 71,-53 128,-53l49 0 0 83 -49 0c-17,0 -32,3 -43,9 -12,6 -20,15 -26,27 -6,11 -9,23 -11,36 -2,12 -3,27 -3,42l0 45 103 0 0 74 -103 0 0 372 -87 0 0 -372 -87 0zm375 -198c-12,-11 -18,-24 -18,-40 0,-16 6,-30 18,-40 12,-11 26,-16 42,-16 17,0 31,5 43,16 12,11 18,24 18,40 0,16 -6,30 -18,40 -12,11 -26,16 -43,16 -16,0 -30,-5 -42,-16zm-1 570l0 -446 87 0 0 446 -87 0zm202 -223c0,-46 10,-87 31,-123 21,-36 48,-63 83,-82 34,-19 72,-28 113,-28 33,0 64,7 92,20 29,13 50,32 64,57l0 -67 87 0 0 446 -87 0 0 -68c-14,25 -36,44 -65,57 -29,14 -59,21 -92,21 -63,0 -116,-22 -160,-65 -44,-43 -66,-99 -66,-168zm89 -1c0,43 14,79 42,107 28,28 62,42 103,42 41,0 76,-13 105,-40 29,-27 43,-63 43,-109 0,-31 -7,-57 -22,-80 -15,-23 -33,-40 -55,-50 -22,-11 -45,-16 -70,-16 -41,0 -75,14 -103,41 -28,27 -42,62 -42,106zm777 122c-22,-36 -33,-77 -33,-123 0,-46 11,-86 33,-122 22,-35 51,-63 87,-81 36,-19 75,-28 117,-28 34,0 66,6 96,19 30,13 55,30 76,53l-66 55c-28,-28 -63,-42 -106,-42 -42,0 -77,14 -106,40 -29,27 -44,62 -44,106 0,44 15,79 44,107 29,28 65,42 106,42 42,0 78,-14 106,-44l67 55c-21,23 -47,41 -77,54 -30,13 -62,19 -96,19 -42,0 -81,-10 -117,-29 -36,-19 -65,-47 -87,-83zm485 102l0 -688 87 0 0 310c12,-25 33,-43 62,-57 29,-13 57,-20 85,-20 56,0 101,17 133,52 32,35 48,83 48,145l0 258 -87 0 0 -252c0,-36 -10,-65 -29,-86 -19,-21 -45,-32 -76,-32 -16,0 -32,2 -47,7 -15,5 -30,12 -43,22 -14,10 -25,23 -33,41 -8,18 -12,38 -12,60l0 240 -87 0zm524 -223c0,-46 10,-87 31,-123 21,-36 48,-63 83,-82 34,-19 72,-28 113,-28 33,0 64,7 92,20 29,13 50,32 64,57l0 -67 87 0 0 446 -87 0 0 -68c-14,25 -36,44 -65,57 -29,14 -59,21 -92,21 -63,0 -116,-22 -160,-65 -44,-43 -66,-99 -66,-168zm89 -1c0,43 14,79 42,107 28,28 62,42 103,42 41,0 76,-13 105,-40 29,-27 43,-63 43,-109 0,-31 -7,-57 -22,-80 -15,-23 -33,-40 -55,-50 -22,-11 -45,-16 -70,-16 -41,0 -75,14 -103,41 -28,27 -42,62 -42,106zm525 -346c-12,-11 -18,-24 -18,-40 0,-16 6,-30 18,-40 12,-11 26,-16 42,-16 17,0 31,5 43,16 12,11 18,24 18,40 0,16 -6,30 -18,40 -12,11 -26,16 -43,16 -16,0 -30,-5 -42,-16zm-1 570l0 -446 87 0 0 446 -87 0zm232 0l0 -446 87 0 0 101c21,-73 63,-110 124,-110 15,0 30,2 45,5 15,3 26,7 32,12l-14 81c-21,-10 -43,-15 -66,-15 -28,0 -51,10 -70,28 -19,19 -32,44 -40,74 -8,31 -12,67 -12,107l0 162 -87 0z"/>
  <path id="1" class="fil7 str0" d="M3444 3040l89 0c1,30 14,57 41,80 27,24 60,35 100,35 39,0 70,-9 93,-28 22,-19 36,-42 40,-69 1,-17 -1,-33 -7,-46 -6,-14 -14,-25 -25,-34 -11,-9 -24,-17 -37,-22 -13,-6 -27,-11 -43,-14l-85 -21c-107,-27 -161,-84 -161,-172 0,-36 10,-68 30,-97 20,-29 46,-51 78,-66 32,-15 67,-23 105,-23 61,0 112,18 152,53 40,35 60,81 60,139l-89 0c0,-32 -12,-58 -35,-78 -23,-20 -53,-29 -89,-29 -33,0 -62,9 -86,28 -24,19 -37,43 -37,72 0,46 31,77 93,93l86 21c63,16 109,42 140,76 31,35 43,78 36,129 -6,49 -29,90 -68,122 -39,32 -89,49 -151,49 -33,0 -64,-6 -93,-17 -29,-11 -54,-26 -74,-44 -20,-18 -35,-39 -47,-64 -11,-24 -17,-49 -17,-74zm573 87c-21,-36 -32,-77 -32,-123 0,-46 11,-86 32,-122 21,-35 50,-63 85,-81 35,-19 74,-28 116,-28 42,0 81,9 116,28 35,19 63,46 85,81 21,36 32,76 32,122 0,46 -11,86 -32,123 -21,36 -50,64 -85,83 -35,19 -74,29 -116,29 -42,0 -81,-10 -116,-29 -35,-19 -64,-47 -85,-83zm55 -123c0,44 14,80 42,108 28,28 63,41 104,41 41,0 75,-14 104,-41 28,-28 42,-64 42,-108 0,-44 -14,-79 -42,-106 -28,-27 -63,-40 -104,-40 -41,0 -76,13 -104,40 -28,27 -42,62 -42,106zm442 -148l0 -74 87 0 0 -45c0,-61 14,-110 42,-145 28,-35 71,-53 128,-53l49 0 0 83 -49 0c-17,0 -32,3 -43,9 -12,6 -20,15 -26,27 -6,11 -9,23 -11,36 -2,12 -3,27 -3,42l0 45 103 0 0 74 -103 0 0 372 -87 0 0 -372 -87 0zm375 -198c-12,-11 -18,-24 -18,-40 0,-16 6,-30 18,-40 12,-11 26,-16 42,-16 17,0 31,5 43,16 12,11 18,24 18,40 0,16 -6,30 -18,40 -12,11 -26,16 -43,16 -16,0 -30,-5 -42,-16zm-1 570l0 -446 87 0 0 446 -87 0zm202 -223c0,-46 10,-87 31,-123 21,-36 48,-63 83,-82 34,-19 72,-28 113,-28 33,0 64,7 92,20 29,13 50,32 64,57l0 -67 87 0 0 446 -87 0 0 -68c-14,25 -36,44 -65,57 -29,14 -59,21 -92,21 -63,0 -116,-22 -160,-65 -44,-43 -66,-99 -66,-168zm89 -1c0,43 14,79 42,107 28,28 62,42 103,42 41,0 76,-13 105,-40 29,-27 43,-63 43,-109 0,-31 -7,-57 -22,-80 -15,-23 -33,-40 -55,-50 -22,-11 -45,-16 -70,-16 -41,0 -75,14 -103,41 -28,27 -42,62 -42,106zm777 122c-22,-36 -33,-77 -33,-123 0,-46 11,-86 33,-122 22,-35 51,-63 87,-81 36,-19 75,-28 117,-28 34,0 66,6 96,19 30,13 55,30 76,53l-66 55c-28,-28 -63,-42 -106,-42 -42,0 -77,14 -106,40 -29,27 -44,62 -44,106 0,44 15,79 44,107 29,28 65,42 106,42 42,0 78,-14 106,-44l67 55c-21,23 -47,41 -77,54 -30,13 -62,19 -96,19 -42,0 -81,-10 -117,-29 -36,-19 -65,-47 -87,-83zm485 102l0 -688 87 0 0 310c12,-25 33,-43 62,-57 29,-13 57,-20 85,-20 56,0 101,17 133,52 32,35 48,83 48,145l0 258 -87 0 0 -252c0,-36 -10,-65 -29,-86 -19,-21 -45,-32 -76,-32 -16,0 -32,2 -47,7 -15,5 -30,12 -43,22 -14,10 -25,23 -33,41 -8,18 -12,38 -12,60l0 240 -87 0zm524 -223c0,-46 10,-87 31,-123 21,-36 48,-63 83,-82 34,-19 72,-28 113,-28 33,0 64,7 92,20 29,13 50,32 64,57l0 -67 87 0 0 446 -87 0 0 -68c-14,25 -36,44 -65,57 -29,14 -59,21 -92,21 -63,0 -116,-22 -160,-65 -44,-43 -66,-99 -66,-168zm89 -1c0,43 14,79 42,107 28,28 62,42 103,42 41,0 76,-13 105,-40 29,-27 43,-63 43,-109 0,-31 -7,-57 -22,-80 -15,-23 -33,-40 -55,-50 -22,-11 -45,-16 -70,-16 -41,0 -75,14 -103,41 -28,27 -42,62 -42,106zm525 -346c-12,-11 -18,-24 -18,-40 0,-16 6,-30 18,-40 12,-11 26,-16 42,-16 17,0 31,5 43,16 12,11 18,24 18,40 0,16 -6,30 -18,40 -12,11 -26,16 -43,16 -16,0 -30,-5 -42,-16zm-1 570l0 -446 87 0 0 446 -87 0zm232 0l0 -446 87 0 0 101c21,-73 63,-110 124,-110 15,0 30,2 45,5 15,3 26,7 32,12l-14 81c-21,-10 -43,-15 -66,-15 -28,0 -51,10 -70,28 -19,19 -32,44 -40,74 -8,31 -12,67 -12,107l0 162 -87 0z"/>
  <path class="fil8" d="M3436 4068l0 -431 162 0c36,0 64,10 85,30 21,20 31,47 31,81 0,20 -4,38 -13,54 -8,16 -22,28 -40,35 22,5 41,18 54,39 14,21 21,43 21,66 0,23 -5,43 -15,62 -10,19 -24,34 -44,45 -19,12 -42,17 -67,17l-175 0zm58 -54l115 0c20,0 37,-7 50,-21 13,-14 19,-31 19,-50 0,-19 -7,-36 -20,-52 -13,-16 -30,-24 -51,-24l-114 0 0 146zm0 -197l104 0c18,0 33,-6 43,-19 10,-12 15,-28 15,-46 0,-19 -6,-33 -17,-44 -11,-10 -27,-16 -47,-16l-98 0 0 124zm323 252l0 -451 57 0 0 451 -57 0zm148 -123l0 -169 57 0 0 165c0,24 6,44 17,57 11,14 27,20 47,20 11,0 21,-2 30,-5 9,-3 18,-8 26,-14 8,-6 14,-15 19,-27 5,-11 7,-24 7,-40l0 -158 57 0 0 292 -57 0 0 -44c-8,16 -21,29 -38,37 -17,8 -35,13 -53,13 -36,0 -64,-11 -84,-34 -19,-22 -29,-54 -29,-95zm335 -24c0,-45 14,-82 43,-110 29,-28 64,-42 107,-42 42,0 77,14 104,42 27,28 41,64 41,110 0,11 0,18 -1,22l-237 0c3,24 14,43 31,58 17,14 38,22 63,22 18,0 34,-4 49,-12 15,-8 27,-19 34,-33 6,2 14,6 26,10 12,5 19,7 23,9 -12,25 -30,44 -54,57 -24,13 -51,20 -80,20 -42,0 -78,-14 -106,-42 -29,-28 -43,-65 -43,-111zm57 -22l181 0c-3,-24 -13,-43 -29,-57 -16,-14 -36,-21 -59,-21 -24,0 -45,7 -62,21 -17,14 -27,33 -31,57zm451 82l52 0c1,7 4,13 8,19 4,6 9,11 16,14 13,8 28,11 46,10 13,-1 24,-5 32,-12 8,-7 12,-16 12,-27 0,-10 -3,-18 -10,-24 -7,-6 -17,-11 -28,-13l-40 -9c-28,-8 -48,-19 -62,-34 -13,-15 -19,-35 -16,-61 2,-21 13,-39 33,-53 20,-14 43,-21 69,-21 13,0 24,2 35,5 11,3 21,8 30,14 9,6 17,15 23,26 6,11 9,23 11,38l-52 0c-1,-10 -6,-18 -15,-24 -8,-6 -19,-8 -30,-8 -11,0 -20,3 -28,7 -8,5 -13,11 -15,19 -2,9 -2,17 1,24 4,10 16,17 34,23l43 11c51,12 76,41 77,85 0,26 -11,47 -33,63 -22,16 -49,24 -81,24 -18,0 -35,-3 -51,-10 -16,-7 -30,-18 -41,-32 -11,-14 -17,-31 -17,-50zm292 -36l0 -169 57 0 0 165c0,24 6,44 17,57 11,14 27,20 47,20 11,0 21,-2 30,-5 9,-3 18,-8 26,-14 8,-6 14,-15 19,-27 5,-11 7,-24 7,-40l0 -158 57 0 0 292 -57 0 0 -44c-8,16 -21,29 -38,37 -17,8 -35,13 -53,13 -36,0 -64,-11 -84,-34 -19,-22 -29,-54 -29,-95zm335 -24c0,-45 14,-82 43,-110 29,-28 64,-42 107,-42 42,0 77,14 104,42 27,28 41,64 41,110 0,11 0,18 -1,22l-237 0c3,24 14,43 31,58 17,14 38,22 63,22 18,0 34,-4 49,-12 15,-8 27,-19 34,-33 6,2 14,6 26,10 12,5 19,7 23,9 -12,25 -30,44 -54,57 -24,13 -51,20 -80,20 -42,0 -78,-14 -106,-42 -29,-28 -43,-65 -43,-111zm57 -22l181 0c-3,-24 -13,-43 -29,-57 -16,-14 -36,-21 -59,-21 -24,0 -45,7 -62,21 -17,14 -27,33 -31,57zm290 23c0,-30 7,-57 20,-80 13,-23 31,-41 53,-53 22,-12 47,-18 73,-18 22,0 43,4 61,13 19,9 32,21 42,37l0 -203 57 0 0 451 -57 0 0 -45c-9,16 -24,29 -42,38 -19,9 -39,13 -60,13 -27,0 -51,-6 -73,-18 -22,-12 -40,-30 -54,-54 -14,-24 -20,-50 -20,-80zm58 -1c0,28 9,52 27,70 18,18 41,27 67,27 27,0 50,-9 69,-26 19,-18 28,-41 28,-71 0,-20 -5,-37 -15,-52 -10,-15 -22,-26 -36,-33 -14,-7 -30,-11 -46,-11 -27,0 -49,9 -67,27 -18,18 -27,41 -27,69zm324 0c0,-45 14,-82 43,-110 29,-28 64,-42 107,-42 42,0 77,14 104,42 27,28 41,64 41,110 0,11 0,18 -1,22l-237 0c3,24 14,43 31,58 17,14 38,22 63,22 18,0 34,-4 49,-12 15,-8 27,-19 34,-33 6,2 14,6 26,10 12,5 19,7 23,9 -12,25 -30,44 -54,57 -24,13 -51,20 -80,20 -42,0 -78,-14 -106,-42 -29,-28 -43,-65 -43,-111zm57 -22l181 0c-3,-24 -13,-43 -29,-57 -16,-14 -36,-21 -59,-21 -24,0 -45,7 -62,21 -17,14 -27,33 -31,57zm474 102c-14,-24 -22,-50 -22,-80 0,-30 7,-56 22,-80 14,-23 33,-41 57,-53 23,-12 49,-18 77,-18 22,0 43,4 63,12 19,8 36,20 50,35l-43 36c-18,-18 -41,-27 -69,-27 -27,0 -50,9 -70,26 -19,18 -29,41 -29,69 0,29 10,52 29,70 19,18 42,27 69,27 28,0 51,-9 69,-29l44 36c-14,15 -31,27 -50,35 -20,8 -41,12 -63,12 -28,0 -53,-6 -77,-19 -23,-12 -42,-31 -57,-54zm317 67l0 -451 57 0 0 203c8,-16 21,-28 40,-37 19,-9 37,-13 56,-13 37,0 66,11 87,34 21,23 32,54 31,95l0 169 -57 0 0 -165c0,-24 -6,-43 -19,-57 -13,-14 -29,-21 -50,-21 -11,0 -21,2 -31,5 -10,3 -19,8 -28,14 -9,6 -16,15 -21,27 -5,11 -8,25 -8,39l0 157 -57 0zm343 -146c0,-30 7,-57 20,-80 14,-23 32,-41 54,-53 22,-12 47,-18 74,-18 21,0 42,4 60,13 19,9 33,21 42,37l0 -44 57 0 0 292 -57 0 0 -45c-9,16 -23,29 -42,38 -19,9 -39,13 -60,13 -41,0 -76,-14 -105,-42 -29,-28 -43,-65 -43,-110zm58 -1c0,28 9,52 27,70 18,18 41,27 67,27 27,0 50,-9 69,-26 19,-17 28,-41 28,-71 0,-20 -5,-37 -15,-52 -10,-15 -22,-26 -36,-33 -14,-7 -30,-11 -46,-11 -27,0 -49,9 -68,27 -18,18 -27,41 -27,69zm344 -226c-8,-7 -11,-16 -11,-26 0,-11 4,-19 11,-26 8,-7 17,-11 28,-11 11,0 20,4 28,11 8,7 12,16 12,26 0,11 -4,19 -12,26 -8,7 -17,11 -28,11 -11,0 -20,-4 -28,-11zm-1 373l0 -292 57 0 0 292 -57 0zm152 0l0 -292 57 0 0 66c14,-48 41,-72 81,-72 10,0 20,1 29,3 10,2 17,5 21,8l-9 53c-14,-7 -28,-10 -43,-10 -18,0 -33,6 -46,19 -12,12 -21,29 -26,49 -5,20 -8,44 -8,70l0 106 -57 0z"/>
  <g id="_752035584">
   <path class="fil6" d="M3667 13146c0,-46 11,-89 33,-128 22,-39 52,-70 91,-92 38,-23 81,-34 126,-34 37,0 72,7 104,22 32,15 59,35 82,61l-50 42c-18,-19 -38,-34 -61,-45 -23,-11 -48,-16 -75,-16 -34,0 -65,8 -93,25 -28,17 -50,40 -66,69 -16,29 -24,61 -24,96 0,35 8,66 24,95 16,29 38,52 66,69 28,17 59,25 93,25 27,0 53,-6 76,-17 24,-11 44,-27 61,-47l50 43c-22,27 -50,47 -82,62 -33,15 -68,22 -106,22 -34,0 -67,-7 -98,-20 -31,-13 -58,-31 -80,-54 -22,-23 -40,-50 -53,-81 -13,-31 -20,-64 -20,-98zm509 246l0 -518 65 0 0 233c9,-18 25,-33 46,-43 22,-10 43,-15 64,-15 42,0 76,13 100,39 24,26 36,63 36,109l0 194 -65 0 0 -190c0,-27 -7,-49 -22,-65 -15,-16 -34,-24 -57,-24 -12,0 -24,2 -35,5 -11,4 -22,9 -33,16 -10,7 -19,17 -25,31 -6,13 -9,28 -9,45l0 181 -65 0zm394 -169c0,-52 16,-94 49,-126 33,-32 74,-48 123,-48 48,0 88,16 120,48 31,32 47,74 47,126 0,12 0,21 -1,26l-272 0c4,28 16,50 36,66 20,17 44,25 73,25 20,0 39,-5 56,-14 17,-9 31,-22 40,-38 7,3 17,6 30,12 14,5 22,8 26,10 -14,29 -35,50 -63,66 -28,15 -58,23 -92,23 -49,0 -89,-16 -122,-49 -33,-33 -49,-75 -49,-127zm65 -25l208 0c-4,-28 -15,-50 -33,-66 -18,-16 -41,-24 -68,-24 -28,0 -52,8 -71,24 -19,16 -31,38 -35,66zm358 117c-17,-27 -25,-58 -25,-92 0,-34 8,-65 25,-92 17,-27 38,-47 65,-61 27,-14 56,-21 88,-21 25,0 49,5 72,14 22,9 42,23 57,40l-50 41c-21,-21 -47,-31 -80,-31 -31,0 -58,10 -80,30 -22,20 -33,47 -33,79 0,33 11,60 33,81 22,21 49,31 80,31 32,0 58,-11 80,-33l50 42c-16,18 -35,31 -58,41 -22,10 -47,14 -72,14 -32,0 -61,-7 -88,-22 -27,-14 -49,-35 -65,-62zm365 77l0 -518 65 0 0 299 116 -117 89 0 -144 145 178 190 -86 0 -153 -164 0 164 -65 0zm342 -77c-16,-27 -24,-58 -24,-92 0,-34 8,-65 24,-92 16,-27 37,-47 64,-61 27,-14 56,-21 88,-21 32,0 61,7 88,21 26,14 48,34 64,61 16,27 24,57 24,92 0,34 -8,65 -24,92 -16,27 -37,48 -64,62 -27,14 -56,22 -87,22 -32,0 -61,-7 -87,-22 -27,-14 -48,-35 -64,-62zm41 -92c0,33 11,60 32,81 21,21 47,31 78,31 31,0 57,-10 78,-31 21,-21 32,-48 32,-81 0,-33 -11,-59 -32,-79 -21,-20 -47,-30 -78,-30 -31,0 -57,10 -78,30 -21,20 -32,47 -32,79zm368 28l0 -194 65 0 0 189c0,28 6,50 20,66 13,16 31,23 54,23 12,0 24,-2 35,-5 11,-3 21,-9 30,-16 9,-7 16,-18 22,-31 5,-13 8,-28 8,-45l0 -181 65 0 0 335 -65 0 0 -50c-9,19 -24,33 -44,43 -20,10 -40,15 -60,15 -42,0 -74,-13 -96,-39 -22,-26 -33,-62 -33,-110zm372 -139l0 -55 60 0 0 -126 65 0 0 126 70 0 0 55 -70 0 0 280 -65 0 0 -280 -60 0zm385 -55l70 0 84 235 84 -235 63 0 84 235 84 -235 70 0 -124 335 -54 0 -91 -246 -88 246 -53 0 -128 -335zm608 -93c-9,-8 -13,-18 -13,-30 0,-12 4,-22 13,-30 9,-8 19,-12 32,-12 13,0 23,4 32,12 9,8 13,18 13,30 0,12 -4,22 -13,30 -9,8 -20,12 -32,12 -12,0 -23,-4 -32,-12zm-1 428l0 -335 65 0 0 335 -65 0zm139 -280l0 -55 60 0 0 -126 65 0 0 126 70 0 0 55 -70 0 0 280 -65 0 0 -280 -60 0zm270 280l0 -518 65 0 0 233c9,-18 25,-33 46,-43 22,-10 43,-15 64,-15 42,0 76,13 100,39 24,26 36,63 36,109l0 194 -65 0 0 -190c0,-27 -7,-49 -22,-65 -15,-16 -34,-24 -57,-24 -12,0 -24,2 -35,5 -11,4 -22,9 -33,16 -10,7 -19,17 -25,31 -6,13 -9,28 -9,45l0 181 -65 0z"/>
   <g>
    <path class="fil9" d="M10351 13223c0,14 -1,25 -2,35l-284 0c1,30 11,54 32,71 21,17 49,26 84,26 24,0 45,-3 61,-12 28,-15 39,-36 105,-35 -6,29 -25,53 -56,71 -31,18 -68,27 -111,27 -56,0 -101,-15 -134,-45 -33,-30 -50,-70 -50,-122 0,-33 7,-62 22,-87 15,-25 36,-45 63,-58 27,-14 59,-21 95,-21 34,0 64,6 90,19 26,13 47,30 61,53 15,23 22,48 22,77zm-68 -11c0,-28 -9,-50 -28,-66 -19,-16 -45,-24 -78,-24 -33,0 -59,8 -79,25 -20,16 -31,38 -32,65l218 0z"/>
    <path class="fil9" d="M9809 13408c-29,0 -55,-4 -78,-13 -23,-9 -41,-21 -54,-37 -13,-16 -19,-33 -19,-52 62,-1 54,10 92,39 15,12 37,15 64,15 21,0 37,-4 49,-12 12,-8 18,-19 18,-33 0,-11 -4,-21 -12,-28 -8,-7 -22,-13 -43,-17l-75 -16c-27,-6 -48,-17 -62,-32 -14,-15 -21,-33 -21,-55 0,-26 13,-48 39,-65 26,-17 58,-25 98,-25 43,0 78,8 103,25 25,17 38,40 38,70 -62,4 -59,-16 -87,-36 -13,-9 -32,-13 -56,-13 -20,0 -36,4 -48,11 -12,8 -18,18 -18,30 0,11 4,19 12,26 8,7 22,13 41,17l76 18c27,6 48,17 63,32 15,15 22,34 22,56 0,30 -13,53 -38,70 -25,17 -60,25 -103,25z"/>
    <path class="fil9" d="M9534 13083l-1 279c2,29 24,35 62,36l0 -272c-2,-33 -26,-44 -61,-43z"/>
    <path class="fil9" d="M9567 13027c-10,0 -19,-3 -25,-10 -7,-7 -10,-15 -10,-25 0,-10 3,-19 10,-26 7,-7 15,-10 25,-10 10,0 19,3 25,10 7,7 10,15 10,26 0,10 -3,19 -10,25 -7,7 -15,10 -25,10z"/>
    <path class="fil9" d="M9283 13406c-38,-3 -70,-7 -98,-22 -28,-14 -48,-34 -62,-59 -14,-25 -21,-53 -21,-85 0,-31 7,-59 22,-85 15,-25 36,-45 64,-60 28,-15 60,-23 97,-22 37,1 116,13 129,49 4,-30 24,-40 54,-38l0 276c-2,27 -22,36 -54,37l0 -38c-21,33 -103,48 -130,46zm10 -53c39,0 69,-11 91,-32 22,-21 33,-48 33,-80 0,-32 -11,-59 -33,-81 -22,-22 -52,-33 -91,-33 -37,0 -67,11 -89,32 -22,21 -33,48 -33,81 0,33 11,60 33,81 22,21 52,32 89,32z"/>
    <polygon class="fil10" points="8745,13153 8745,13407 8493,13407 "/>
    <polygon class="fil10" points="8471,13131 8721,13131 8471,13383 "/>
    <polygon class="fil10" points="8723,13100 8471,13100 8471,12845 "/>
    <polygon class="fil10" points="8496,12824 8745,12824 8745,13075 "/>
    <path class="fil10" d="M8979 12923c42,48 70,109 74,177l-250 0 176 -177z"/>
    <path class="fil10" d="M8956 12899l-177 178 0 -253c68,4 129,32 177,75z"/>
   </g>
  </g>
  <path fill="#FFFFFF" d="M10305 8495c0,-50 12,-96 35,-138 24,-42 56,-75 97,-100 41,-24 87,-37 136,-37 50,0 95,12 136,37 41,24 74,58 98,100 24,42 36,88 36,138 0,37 -7,72 -21,106 -14,34 -33,63 -57,87 -24,24 -52,44 -86,58 -33,14 -69,22 -106,22 -37,0 -73,-7 -106,-22 -33,-14 -62,-34 -86,-58 -24,-24 -43,-53 -57,-87 -14,-34 -21,-69 -21,-106zm98 -103c-17,31 -26,66 -26,103 0,37 9,72 26,103 17,31 41,56 71,74 30,18 64,27 100,27 37,0 70,-9 101,-27 30,-18 54,-43 71,-74 17,-31 26,-65 26,-103 0,-37 -9,-72 -26,-103 -17,-31 -41,-56 -71,-74 -30,-18 -64,-27 -101,-27 -36,0 -70,9 -100,27 -30,18 -54,43 -71,74zm534 368l0 -361 70 0 0 81c17,-59 51,-89 100,-89 12,0 24,1 36,4 12,3 21,6 26,10l-11 66c-17,-8 -35,-12 -53,-12 -22,0 -41,8 -56,23 -15,15 -26,35 -33,60 -7,25 -10,54 -10,87l0 131 -70 0zm271 -181c0,-37 8,-70 25,-99 17,-29 39,-51 66,-66 27,-15 58,-23 91,-23 28,0 53,5 76,16 23,11 40,26 52,46l0 -250 70 0 0 557 -70 0 0 -55c-12,20 -29,35 -53,46 -23,11 -48,17 -74,17 -33,0 -63,-8 -91,-23 -28,-15 -50,-37 -66,-66 -17,-29 -25,-62 -25,-99zm72 -1c0,35 11,64 34,86 22,23 50,34 83,34 33,0 62,-11 85,-33 23,-22 35,-51 35,-88 0,-25 -6,-46 -18,-65 -12,-18 -27,-32 -45,-41 -18,-9 -37,-13 -57,-13 -33,0 -61,11 -83,33 -22,22 -33,50 -33,86zm401 0c0,-56 18,-101 53,-135 35,-34 79,-52 132,-52 52,0 95,17 129,51 34,34 50,79 50,136 0,13 0,23 -1,28l-293 0c4,30 17,54 39,71 21,18 47,27 78,27 22,0 42,-5 61,-15 19,-10 33,-23 43,-41 7,3 18,7 32,13 15,6 24,9 28,11 -15,31 -38,54 -67,71 -30,16 -63,25 -99,25 -52,0 -96,-18 -132,-52 -35,-35 -53,-81 -53,-137zm70 -27l224 0c-4,-30 -16,-54 -36,-71 -20,-17 -44,-26 -73,-26 -30,0 -56,9 -77,26 -21,17 -33,41 -38,71zm383 209l0 -361 70 0 0 81c17,-59 51,-89 100,-89 12,0 24,1 36,4 12,3 21,6 26,10l-11 66c-17,-8 -35,-12 -53,-12 -22,0 -41,8 -56,23 -15,15 -26,35 -33,60 -7,25 -10,54 -10,87l0 131 -70 0zm461 -107l65 0c1,8 4,16 10,24 5,8 12,14 20,18 16,10 35,14 57,13 16,-1 29,-6 39,-15 10,-9 15,-20 15,-33 0,-12 -4,-23 -13,-30 -9,-8 -20,-13 -35,-16l-49 -12c-35,-9 -60,-23 -76,-42 -16,-19 -23,-44 -20,-76 2,-26 16,-48 40,-66 24,-18 53,-26 85,-26 16,0 30,2 44,6 14,4 26,10 37,17 11,8 21,18 28,32 7,13 12,29 13,46l-65 0c-2,-13 -8,-23 -18,-30 -10,-7 -23,-10 -37,-10 -13,0 -25,3 -35,9 -10,6 -16,14 -19,24 -3,11 -3,21 1,29 5,12 19,21 42,28l53 13c62,15 94,50 96,105 0,32 -14,58 -41,78 -27,20 -61,29 -100,29 -22,0 -43,-4 -63,-13 -20,-9 -37,-22 -50,-40 -14,-18 -21,-39 -21,-62zm328 -194l0 -59 65 0 0 -135 70 0 0 135 76 0 0 59 -76 0 0 301 -70 0 0 -301 -65 0zm262 121c0,-37 8,-70 25,-99 17,-29 39,-51 67,-66 28,-15 58,-23 91,-23 27,0 51,5 75,16 23,11 41,26 52,46l0 -54 70 0 0 361 -70 0 0 -55c-12,20 -29,35 -52,46 -23,11 -48,17 -74,17 -51,0 -94,-18 -130,-52 -36,-35 -54,-80 -54,-136zm72 -1c0,35 11,64 34,86 23,23 50,34 83,34 33,0 62,-11 85,-32 23,-22 35,-51 35,-88 0,-25 -6,-46 -18,-65 -12,-18 -27,-32 -45,-41 -18,-9 -37,-13 -57,-13 -33,0 -61,11 -84,33 -23,22 -34,50 -34,86zm387 -120l0 -59 65 0 0 -135 70 0 0 135 76 0 0 59 -76 0 0 301 -70 0 0 -301 -65 0zm286 149l0 -209 70 0 0 204c0,30 7,54 21,71 14,17 33,25 58,25 13,0 26,-2 37,-6 12,-4 23,-10 32,-18 10,-8 18,-19 23,-33 6,-14 9,-30 9,-49l0 -195 70 0 0 361 -70 0 0 -54c-10,20 -26,35 -47,46 -22,10 -43,16 -65,16 -45,0 -79,-14 -104,-42 -24,-28 -36,-67 -35,-118zm412 45l65 0c1,8 4,16 10,24 5,8 12,14 20,18 16,10 35,14 57,13 16,-1 29,-6 39,-15 10,-9 15,-20 15,-33 0,-12 -4,-23 -13,-30 -9,-8 -20,-13 -35,-16l-49 -12c-35,-9 -60,-23 -76,-42 -16,-19 -23,-44 -20,-76 2,-26 16,-48 40,-66 24,-18 53,-26 85,-26 16,0 30,2 44,6 14,4 26,10 37,17 11,8 21,18 28,32 7,13 12,29 13,46l-65 0c-2,-13 -8,-23 -18,-30 -10,-7 -23,-10 -37,-10 -13,0 -25,3 -35,9 -10,6 -16,14 -19,24 -3,11 -3,21 1,29 5,12 19,21 42,28l53 13c62,15 94,50 96,105 0,32 -14,58 -41,78 -27,20 -61,29 -100,29 -22,0 -43,-4 -63,-13 -20,-9 -37,-22 -50,-40 -14,-18 -21,-39 -21,-62z"/>
  <path id="1" class="fil7 str1" d="M10305 8495c0,-50 12,-96 35,-138 24,-42 56,-75 97,-100 41,-24 87,-37 136,-37 50,0 95,12 136,37 41,24 74,58 98,100 24,42 36,88 36,138 0,37 -7,72 -21,106 -14,34 -33,63 -57,87 -24,24 -52,44 -86,58 -33,14 -69,22 -106,22 -37,0 -73,-7 -106,-22 -33,-14 -62,-34 -86,-58 -24,-24 -43,-53 -57,-87 -14,-34 -21,-69 -21,-106zm98 -103c-17,31 -26,66 -26,103 0,37 9,72 26,103 17,31 41,56 71,74 30,18 64,27 100,27 37,0 70,-9 101,-27 30,-18 54,-43 71,-74 17,-31 26,-65 26,-103 0,-37 -9,-72 -26,-103 -17,-31 -41,-56 -71,-74 -30,-18 -64,-27 -101,-27 -36,0 -70,9 -100,27 -30,18 -54,43 -71,74zm534 368l0 -361 70 0 0 81c17,-59 51,-89 100,-89 12,0 24,1 36,4 12,3 21,6 26,10l-11 66c-17,-8 -35,-12 -53,-12 -22,0 -41,8 -56,23 -15,15 -26,35 -33,60 -7,25 -10,54 -10,87l0 131 -70 0zm271 -181c0,-37 8,-70 25,-99 17,-29 39,-51 66,-66 27,-15 58,-23 91,-23 28,0 53,5 76,16 23,11 40,26 52,46l0 -250 70 0 0 557 -70 0 0 -55c-12,20 -29,35 -53,46 -23,11 -48,17 -74,17 -33,0 -63,-8 -91,-23 -28,-15 -50,-37 -66,-66 -17,-29 -25,-62 -25,-99zm72 -1c0,35 11,64 34,86 22,23 50,34 83,34 33,0 62,-11 85,-33 23,-22 35,-51 35,-88 0,-25 -6,-46 -18,-65 -12,-18 -27,-32 -45,-41 -18,-9 -37,-13 -57,-13 -33,0 -61,11 -83,33 -22,22 -33,50 -33,86zm401 0c0,-56 18,-101 53,-135 35,-34 79,-52 132,-52 52,0 95,17 129,51 34,34 50,79 50,136 0,13 0,23 -1,28l-293 0c4,30 17,54 39,71 21,18 47,27 78,27 22,0 42,-5 61,-15 19,-10 33,-23 43,-41 7,3 18,7 32,13 15,6 24,9 28,11 -15,31 -38,54 -67,71 -30,16 -63,25 -99,25 -52,0 -96,-18 -132,-52 -35,-35 -53,-81 -53,-137zm70 -27l224 0c-4,-30 -16,-54 -36,-71 -20,-17 -44,-26 -73,-26 -30,0 -56,9 -77,26 -21,17 -33,41 -38,71zm383 209l0 -361 70 0 0 81c17,-59 51,-89 100,-89 12,0 24,1 36,4 12,3 21,6 26,10l-11 66c-17,-8 -35,-12 -53,-12 -22,0 -41,8 -56,23 -15,15 -26,35 -33,60 -7,25 -10,54 -10,87l0 131 -70 0zm461 -107l65 0c1,8 4,16 10,24 5,8 12,14 20,18 16,10 35,14 57,13 16,-1 29,-6 39,-15 10,-9 15,-20 15,-33 0,-12 -4,-23 -13,-30 -9,-8 -20,-13 -35,-16l-49 -12c-35,-9 -60,-23 -76,-42 -16,-19 -23,-44 -20,-76 2,-26 16,-48 40,-66 24,-18 53,-26 85,-26 16,0 30,2 44,6 14,4 26,10 37,17 11,8 21,18 28,32 7,13 12,29 13,46l-65 0c-2,-13 -8,-23 -18,-30 -10,-7 -23,-10 -37,-10 -13,0 -25,3 -35,9 -10,6 -16,14 -19,24 -3,11 -3,21 1,29 5,12 19,21 42,28l53 13c62,15 94,50 96,105 0,32 -14,58 -41,78 -27,20 -61,29 -100,29 -22,0 -43,-4 -63,-13 -20,-9 -37,-22 -50,-40 -14,-18 -21,-39 -21,-62zm328 -194l0 -59 65 0 0 -135 70 0 0 135 76 0 0 59 -76 0 0 301 -70 0 0 -301 -65 0zm262 121c0,-37 8,-70 25,-99 17,-29 39,-51 67,-66 28,-15 58,-23 91,-23 27,0 51,5 75,16 23,11 41,26 52,46l0 -54 70 0 0 361 -70 0 0 -55c-12,20 -29,35 -52,46 -23,11 -48,17 -74,17 -51,0 -94,-18 -130,-52 -36,-35 -54,-80 -54,-136zm72 -1c0,35 11,64 34,86 23,23 50,34 83,34 33,0 62,-11 85,-32 23,-22 35,-51 35,-88 0,-25 -6,-46 -18,-65 -12,-18 -27,-32 -45,-41 -18,-9 -37,-13 -57,-13 -33,0 -61,11 -84,33 -23,22 -34,50 -34,86zm387 -120l0 -59 65 0 0 -135 70 0 0 135 76 0 0 59 -76 0 0 301 -70 0 0 -301 -65 0zm286 149l0 -209 70 0 0 204c0,30 7,54 21,71 14,17 33,25 58,25 13,0 26,-2 37,-6 12,-4 23,-10 32,-18 10,-8 18,-19 23,-33 6,-14 9,-30 9,-49l0 -195 70 0 0 361 -70 0 0 -54c-10,20 -26,35 -47,46 -22,10 -43,16 -65,16 -45,0 -79,-14 -104,-42 -24,-28 -36,-67 -35,-118zm412 45l65 0c1,8 4,16 10,24 5,8 12,14 20,18 16,10 35,14 57,13 16,-1 29,-6 39,-15 10,-9 15,-20 15,-33 0,-12 -4,-23 -13,-30 -9,-8 -20,-13 -35,-16l-49 -12c-35,-9 -60,-23 -76,-42 -16,-19 -23,-44 -20,-76 2,-26 16,-48 40,-66 24,-18 53,-26 85,-26 16,0 30,2 44,6 14,4 26,10 37,17 11,8 21,18 28,32 7,13 12,29 13,46l-65 0c-2,-13 -8,-23 -18,-30 -10,-7 -23,-10 -37,-10 -13,0 -25,3 -35,9 -10,6 -16,14 -19,24 -3,11 -3,21 1,29 5,12 19,21 42,28l53 13c62,15 94,50 96,105 0,32 -14,58 -41,78 -27,20 -61,29 -100,29 -22,0 -43,-4 -63,-13 -20,-9 -37,-22 -50,-40 -14,-18 -21,-39 -21,-62z"/>
  <path fill="#FFFFFF" d="M8255 9555l64 0 113 160 114 -160 64 0 -152 214 0 182 -53 0 0 -182 -150 -214zm342 335c-13,-22 -19,-46 -19,-74 0,-27 6,-52 19,-73 13,-21 30,-38 51,-49 21,-11 45,-17 70,-17 26,0 49,6 70,17 21,11 38,27 51,49 13,21 19,46 19,73 0,27 -6,52 -19,74 -13,22 -30,39 -51,50 -21,11 -45,17 -70,17 -25,0 -49,-6 -70,-17 -21,-11 -38,-28 -51,-50zm33 -74c0,27 9,48 26,65 17,17 38,25 63,25 25,0 45,-8 62,-25 17,-17 26,-38 26,-65 0,-26 -9,-48 -25,-64 -17,-16 -38,-24 -63,-24 -25,0 -46,8 -63,24 -17,16 -26,37 -26,64zm295 22l0 -155 52 0 0 152c0,23 5,40 16,53 10,13 25,19 43,19 10,0 19,-1 28,-4 9,-3 17,-7 24,-13 7,-6 13,-14 17,-24 4,-10 6,-23 6,-36l0 -145 52 0 0 268 -52 0 0 -40c-7,15 -19,26 -35,34 -16,8 -32,12 -48,12 -33,0 -59,-10 -77,-31 -18,-21 -27,-50 -26,-88zm311 -159c25,-35 37,-75 36,-121l48 0c-2,30 -9,58 -19,81 -10,24 -22,41 -35,51l-31 -11zm122 3l55 0 82 202 81 -202 56 0 -162 268 -111 -268zm303 133c0,-41 13,-75 39,-101 26,-26 59,-38 98,-38 39,0 71,13 96,38 25,25 38,59 38,101 0,10 0,17 -1,21l-218 0c3,22 13,40 29,53 16,13 35,20 58,20 16,0 31,-4 45,-11 14,-7 24,-17 32,-30 5,2 13,5 24,9 11,4 18,7 21,8 -11,23 -28,40 -50,53 -22,12 -47,18 -73,18 -39,0 -72,-13 -98,-39 -26,-26 -39,-60 -39,-102zm52 -20l166 0c-3,-22 -12,-40 -27,-53 -15,-13 -33,-19 -55,-19 -23,0 -41,6 -57,19 -16,13 -25,30 -28,53zm431 42l0 -155 52 0 0 152c0,23 5,40 16,53 10,13 25,19 43,19 10,0 19,-1 28,-4 9,-3 17,-7 24,-13 7,-6 13,-14 17,-24 4,-10 6,-23 6,-36l0 -145 52 0 0 268 -52 0 0 -40c-7,15 -19,26 -35,34 -16,8 -32,12 -48,12 -33,0 -59,-10 -77,-31 -18,-21 -27,-50 -26,-88zm326 113l0 -268 52 0 0 40c7,-15 19,-26 35,-34 16,-8 32,-12 49,-12 33,0 59,10 77,31 18,21 27,50 27,88l0 155 -52 0 0 -152c0,-22 -5,-40 -16,-53 -11,-13 -25,-19 -44,-19 -10,0 -19,1 -28,4 -9,3 -17,7 -24,13 -7,6 -13,14 -17,25 -4,10 -6,22 -6,36l0 145 -52 0zm295 -224l0 -44 48 0 0 -101 52 0 0 101 56 0 0 44 -56 0 0 224 -52 0 0 -224 -48 0zm217 -119c-7,-6 -11,-15 -11,-24 0,-10 4,-18 11,-24 7,-6 16,-10 25,-10 10,0 19,3 26,10 7,6 11,15 11,24 0,10 -4,18 -11,24 -7,6 -16,10 -26,10 -10,0 -18,-3 -25,-10zm-1 343l0 -268 52 0 0 268 -52 0zm140 0l0 -414 52 0 0 414 -52 0zm274 0l179 -324 -172 0 0 -51 259 0 -206 375 -60 0zm327 -4c-7,-7 -11,-15 -11,-25 0,-10 4,-19 11,-26 7,-7 16,-11 27,-11 10,0 19,4 26,11 7,7 11,16 11,26 0,10 -4,18 -11,25 -7,7 -16,10 -26,10 -11,0 -19,-3 -27,-10zm0 -208c-7,-7 -11,-16 -11,-26 0,-10 4,-19 11,-26 7,-7 16,-10 27,-10 10,0 19,3 26,10 7,7 11,15 11,26 0,10 -4,19 -11,26 -7,7 -16,10 -26,10 -11,0 -19,-3 -27,-10zm129 -76l0 -49 112 -41 0 379 -52 0 0 -310 -60 21zm194 209l44 -24c7,18 18,33 32,44 14,11 30,16 48,16 30,0 52,-7 67,-21 15,-14 23,-33 23,-55 0,-23 -7,-41 -22,-53 -15,-12 -33,-19 -55,-19 -16,0 -31,2 -44,7 -13,4 -30,13 -49,25l-32 -27 33 -187 201 0 0 50 -159 0 -21 106c9,-6 20,-11 34,-16 14,-4 26,-6 38,-6 24,0 45,4 65,13 19,9 35,23 47,41 12,18 18,40 18,66 0,38 -13,69 -40,92 -26,23 -61,34 -103,34 -26,0 -51,-8 -74,-23 -23,-16 -40,-36 -51,-62zm340 210l0 -399 52 0 0 42c9,-15 22,-27 39,-35 17,-9 36,-13 55,-13 37,0 69,13 95,39 26,26 39,60 39,102 0,28 -6,52 -18,73 -12,21 -28,38 -49,49 -20,11 -42,17 -67,17 -20,0 -38,-4 -55,-12 -17,-8 -30,-19 -38,-34l0 171 -52 0zm53 -263c0,27 9,48 26,64 18,16 38,23 61,23 25,0 45,-8 62,-24 17,-16 25,-37 25,-63 0,-26 -8,-48 -25,-65 -17,-17 -37,-25 -62,-25 -24,0 -45,8 -62,25 -17,16 -25,38 -25,66zm297 133l0 -268 52 0 0 40c7,-14 17,-24 32,-32 15,-8 29,-12 42,-13 10,-1 20,0 30,2 34,5 57,23 70,52 19,-37 50,-55 93,-55 34,0 59,10 77,31 18,21 27,50 27,88l0 155 -52 0 0 -152c0,-22 -5,-40 -16,-52 -11,-13 -26,-19 -45,-19 -22,0 -39,7 -52,22 -13,15 -19,34 -19,57l0 145 -52 0 0 -152c0,-22 -5,-39 -16,-52 -11,-13 -25,-19 -42,-19 -21,0 -38,7 -53,20 -14,13 -22,33 -22,59l0 145 -52 0zm620 -224l0 -44 48 0 0 -101 52 0 0 101 56 0 0 44 -56 0 0 224 -52 0 0 -224 -48 0zm214 163c-13,-22 -19,-46 -19,-74 0,-27 6,-52 19,-73 13,-21 30,-38 51,-49 21,-11 45,-17 70,-17 26,0 49,6 70,17 21,11 38,27 51,49 13,21 19,46 19,73 0,27 -6,52 -19,74 -13,22 -30,39 -51,50 -21,11 -45,17 -70,17 -25,0 -49,-6 -70,-17 -21,-11 -38,-28 -51,-50zm33 -74c0,27 9,48 26,65 17,17 38,25 63,25 25,0 45,-8 62,-25 17,-17 26,-38 26,-65 0,-26 -9,-48 -25,-64 -17,-16 -38,-24 -63,-24 -25,0 -46,8 -63,24 -17,16 -26,37 -26,64zm450 74c-13,-22 -20,-46 -20,-74 0,-27 7,-52 20,-73 13,-21 31,-38 52,-49 21,-11 45,-17 71,-17 20,0 40,4 58,11 18,8 33,18 46,32l-40 33c-17,-17 -38,-25 -64,-25 -25,0 -46,8 -64,24 -18,16 -26,37 -26,64 0,26 9,48 27,65 18,17 39,25 64,25 25,0 47,-9 64,-26l40 33c-13,14 -28,25 -46,33 -18,8 -37,12 -58,12 -25,0 -49,-6 -71,-17 -22,-11 -39,-28 -52,-50zm267 -73c0,-28 6,-52 19,-74 13,-22 29,-38 50,-49 21,-11 43,-17 68,-17 20,0 38,4 56,12 17,8 30,19 39,34l0 -40 52 0 0 268 -52 0 0 -41c-9,15 -22,26 -39,35 -17,8 -36,12 -55,12 -38,0 -70,-13 -96,-39 -27,-26 -40,-60 -40,-101zm53 0c0,26 8,47 25,64 17,17 38,25 62,25 25,0 46,-8 63,-24 17,-16 26,-38 26,-65 0,-18 -5,-34 -14,-48 -9,-14 -20,-24 -33,-30 -13,-6 -27,-10 -42,-10 -25,0 -45,8 -62,24 -17,16 -25,37 -25,64zm316 135l0 -268 52 0 0 40c7,-15 19,-26 35,-34 16,-8 32,-12 49,-12 33,0 59,10 77,31 18,21 27,50 27,88l0 155 -52 0 0 -152c0,-22 -5,-40 -16,-53 -11,-13 -25,-19 -44,-19 -10,0 -19,1 -28,4 -9,3 -17,7 -24,13 -7,6 -13,14 -17,25 -4,10 -6,22 -6,36l0 145 -52 0zm326 -61c-13,-22 -20,-46 -20,-74 0,-27 7,-52 20,-73 13,-21 31,-38 52,-49 21,-11 45,-17 71,-17 20,0 40,4 58,11 18,8 33,18 46,32l-40 33c-17,-17 -38,-25 -64,-25 -25,0 -46,8 -64,24 -18,16 -26,37 -26,64 0,26 9,48 27,65 18,17 39,25 64,25 25,0 47,-9 64,-26l40 33c-13,14 -28,25 -46,33 -18,8 -37,12 -58,12 -25,0 -49,-6 -71,-17 -22,-11 -39,-28 -52,-50zm267 -74c0,-41 13,-75 39,-101 26,-26 59,-38 98,-38 39,0 71,13 96,38 25,25 38,59 38,101 0,10 0,17 -1,21l-218 0c3,22 13,40 29,53 16,13 35,20 58,20 16,0 31,-4 45,-11 14,-7 24,-17 32,-30 5,2 13,5 24,9 11,4 18,7 21,8 -11,23 -28,40 -50,53 -22,12 -47,18 -73,18 -39,0 -72,-13 -98,-39 -26,-26 -39,-60 -39,-102zm52 -20l166 0c-3,-22 -12,-40 -27,-53 -15,-13 -33,-19 -55,-19 -23,0 -41,6 -57,19 -16,13 -25,30 -28,53zm285 155l0 -414 52 0 0 414 -52 0zm-7351 558l0 -44 48 0 0 -101 52 0 0 101 56 0 0 44 -56 0 0 224 -52 0 0 -224 -48 0zm217 224l0 -414 52 0 0 186c7,-15 20,-26 37,-34 17,-8 34,-12 51,-12 34,0 61,10 80,31 19,21 29,50 29,88l0 155 -52 0 0 -152c0,-22 -6,-39 -18,-52 -12,-13 -27,-19 -46,-19 -10,0 -19,1 -28,4 -9,3 -18,7 -26,13 -8,6 -15,14 -20,25 -5,11 -7,23 -7,36l0 145 -52 0zm333 -343c-7,-6 -11,-15 -11,-24 0,-10 4,-18 11,-24 7,-6 16,-10 25,-10 10,0 19,3 26,10 7,6 11,15 11,24 0,10 -4,18 -11,24 -7,6 -16,10 -26,10 -10,0 -18,-3 -25,-10zm-1 343l0 -268 52 0 0 268 -52 0zm120 -80l48 0c1,6 3,12 7,18 4,6 9,10 15,13 12,7 26,11 42,9 12,-1 22,-5 29,-11 7,-6 11,-15 11,-25 0,-9 -3,-17 -9,-22 -7,-6 -15,-10 -26,-12l-37 -9c-26,-7 -45,-17 -57,-31 -12,-14 -17,-32 -15,-56 2,-19 12,-36 30,-49 18,-13 39,-20 63,-20 12,0 22,1 32,4 10,3 19,7 28,13 9,6 16,14 21,24 5,10 9,21 10,35l-48 0c-1,-10 -6,-17 -14,-22 -8,-5 -17,-8 -28,-8 -10,0 -19,2 -26,7 -8,5 -12,11 -14,18 -2,9 -2,16 1,22 4,9 14,16 31,21l39 10c46,11 70,37 71,78 0,24 -10,43 -31,58 -20,15 -45,22 -74,22 -16,0 -32,-3 -47,-10 -15,-6 -27,-16 -37,-30 -10,-13 -15,-29 -16,-46zm423 18c-13,-22 -19,-46 -19,-74 0,-27 6,-52 19,-73 13,-21 30,-38 51,-49 21,-11 45,-17 70,-17 26,0 49,6 70,17 21,11 38,27 51,49 13,21 19,46 19,73 0,27 -6,52 -19,74 -13,22 -30,39 -51,50 -21,11 -45,17 -70,17 -25,0 -49,-6 -70,-17 -21,-11 -38,-28 -51,-50zm33 -74c0,27 9,48 26,65 17,17 38,25 63,25 25,0 45,-8 62,-25 17,-17 26,-38 26,-65 0,-26 -9,-48 -25,-64 -17,-16 -38,-24 -63,-24 -25,0 -46,8 -63,24 -17,16 -26,37 -26,64zm298 135l0 -268 52 0 0 61c13,-44 38,-66 75,-66 9,0 18,1 27,3 9,2 15,5 20,7l-8 49c-13,-6 -26,-9 -40,-9 -17,0 -31,6 -42,17 -11,11 -19,26 -24,45 -5,18 -7,40 -7,65l0 98 -52 0zm202 -134c0,-28 6,-52 18,-74 12,-22 29,-38 49,-49 20,-11 43,-17 68,-17 21,0 39,4 56,12 17,8 30,19 39,34l0 -186 52 0 0 414 -52 0 0 -41c-9,15 -22,26 -39,35 -17,8 -36,12 -55,12 -25,0 -47,-6 -68,-17 -21,-11 -37,-28 -49,-49 -12,-22 -19,-46 -19,-74zm53 0c0,26 8,47 25,64 17,17 37,25 62,25 25,0 46,-8 63,-24 17,-16 26,-38 26,-65 0,-18 -4,-34 -14,-48 -9,-14 -20,-24 -33,-30 -13,-6 -27,-10 -42,-10 -25,0 -45,8 -62,24 -17,16 -25,37 -25,64zm298 0c0,-41 13,-75 39,-101 26,-26 59,-38 98,-38 39,0 71,13 96,38 25,25 38,59 38,101 0,10 0,17 -1,21l-218 0c3,22 13,40 29,53 16,13 35,20 58,20 16,0 31,-4 45,-11 14,-7 24,-17 32,-30 5,2 13,5 24,9 11,4 18,7 21,8 -11,23 -28,40 -50,53 -22,12 -47,18 -73,18 -39,0 -72,-13 -98,-39 -26,-26 -39,-60 -39,-102zm52 -20l166 0c-3,-22 -12,-40 -27,-53 -15,-13 -33,-19 -55,-19 -23,0 -41,6 -57,19 -16,13 -25,30 -28,53zm285 155l0 -268 52 0 0 61c13,-44 38,-66 75,-66 9,0 18,1 27,3 9,2 15,5 20,7l-8 49c-13,-6 -26,-9 -40,-9 -17,0 -31,6 -42,17 -11,11 -19,26 -24,45 -5,18 -7,40 -7,65l0 98 -52 0zm362 0l0 -414 52 0 0 186c9,-15 21,-26 38,-34 17,-8 36,-12 56,-12 25,0 48,6 68,17 20,11 37,28 49,49 12,21 18,46 18,74 0,28 -6,52 -19,74 -13,22 -29,38 -50,49 -21,11 -43,17 -68,17 -19,0 -38,-4 -55,-12 -17,-8 -30,-20 -39,-35l0 41 -52 0zm53 -135c0,27 9,49 26,65 17,16 38,24 63,24 25,0 45,-8 62,-25 17,-17 25,-38 25,-64 0,-26 -8,-47 -25,-64 -17,-16 -37,-24 -62,-24 -11,0 -22,2 -32,6 -10,4 -20,9 -28,17 -9,7 -15,16 -21,28 -5,11 -8,24 -8,38zm281 0c0,-41 13,-75 39,-101 26,-26 59,-38 98,-38 39,0 71,13 96,38 25,25 38,59 38,101 0,10 0,17 -1,21l-218 0c3,22 13,40 29,53 16,13 35,20 58,20 16,0 31,-4 45,-11 14,-7 24,-17 32,-30 5,2 13,5 24,9 11,4 18,7 21,8 -11,23 -28,40 -50,53 -22,12 -47,18 -73,18 -39,0 -72,-13 -98,-39 -26,-26 -39,-60 -39,-102zm52 -20l166 0c-3,-22 -12,-40 -27,-53 -15,-13 -33,-19 -55,-19 -23,0 -41,6 -57,19 -16,13 -25,30 -28,53zm256 -69l0 -44 52 0 0 -27c0,-37 8,-66 25,-87 17,-21 42,-32 77,-32l29 0 0 50 -29 0c-10,0 -19,2 -26,6 -7,4 -12,9 -16,16 -3,7 -6,14 -7,22 -1,7 -2,16 -2,26l0 27 62 0 0 44 -62 0 0 224 -52 0 0 -224 -52 0zm223 163c-13,-22 -19,-46 -19,-74 0,-27 6,-52 19,-73 13,-21 30,-38 51,-49 21,-11 45,-17 70,-17 26,0 49,6 70,17 21,11 38,27 51,49 13,21 19,46 19,73 0,27 -6,52 -19,74 -13,22 -30,39 -51,50 -21,11 -45,17 -70,17 -25,0 -49,-6 -70,-17 -21,-11 -38,-28 -51,-50zm33 -74c0,27 9,48 26,65 17,17 38,25 63,25 25,0 45,-8 62,-25 17,-17 26,-38 26,-65 0,-26 -9,-48 -25,-64 -17,-16 -38,-24 -63,-24 -25,0 -46,8 -63,24 -17,16 -26,37 -26,64zm298 135l0 -268 52 0 0 61c13,-44 38,-66 75,-66 9,0 18,1 27,3 9,2 15,5 20,7l-8 49c-13,-6 -26,-9 -40,-9 -17,0 -31,6 -42,17 -11,11 -19,26 -24,45 -5,18 -7,40 -7,65l0 98 -52 0zm202 -135c0,-41 13,-75 39,-101 26,-26 59,-38 98,-38 39,0 71,13 96,38 25,25 38,59 38,101 0,10 0,17 -1,21l-218 0c3,22 13,40 29,53 16,13 35,20 58,20 16,0 31,-4 45,-11 14,-7 24,-17 32,-30 5,2 13,5 24,9 11,4 18,7 21,8 -11,23 -28,40 -50,53 -22,12 -47,18 -73,18 -39,0 -72,-13 -98,-39 -26,-26 -39,-60 -39,-102zm52 -20l166 0c-3,-22 -12,-40 -27,-53 -15,-13 -33,-19 -55,-19 -23,0 -41,6 -57,19 -16,13 -25,30 -28,53zm435 -188c-7,-6 -11,-15 -11,-24 0,-10 4,-18 11,-24 7,-6 16,-10 25,-10 10,0 19,3 26,10 7,6 11,15 11,24 0,10 -4,18 -11,24 -7,6 -16,10 -26,10 -10,0 -18,-3 -25,-10zm-1 343l0 -268 52 0 0 268 -52 0zm111 -224l0 -44 48 0 0 -101 52 0 0 101 56 0 0 44 -56 0 0 224 -52 0 0 -224 -48 0zm202 -48c25,-35 37,-75 36,-121l48 0c-2,30 -9,58 -19,81 -10,24 -22,41 -35,51l-31 -11zm122 192l48 0c1,6 3,12 7,18 4,6 9,10 15,13 12,7 26,11 42,9 12,-1 22,-5 29,-11 7,-6 11,-15 11,-25 0,-9 -3,-17 -9,-22 -7,-6 -15,-10 -26,-12l-37 -9c-26,-7 -45,-17 -57,-31 -12,-14 -17,-32 -15,-56 2,-19 12,-36 30,-49 18,-13 39,-20 63,-20 12,0 22,1 32,4 10,3 19,7 28,13 9,6 16,14 21,24 5,10 9,21 10,35l-48 0c-1,-10 -6,-17 -14,-22 -8,-5 -17,-8 -28,-8 -10,0 -19,2 -26,7 -8,5 -12,11 -14,18 -2,9 -2,16 1,22 4,9 14,16 31,21l39 10c46,11 70,37 71,78 0,24 -10,43 -31,58 -20,15 -45,22 -74,22 -16,0 -32,-3 -47,-10 -15,-6 -27,-16 -37,-30 -10,-13 -15,-29 -16,-46zm421 210l0 -399 52 0 0 42c9,-15 22,-27 39,-35 17,-9 36,-13 55,-13 37,0 69,13 95,39 26,26 39,60 39,102 0,28 -6,52 -18,73 -12,21 -28,38 -49,49 -20,11 -42,17 -67,17 -20,0 -38,-4 -55,-12 -17,-8 -30,-19 -38,-34l0 171 -52 0zm53 -263c0,27 9,48 26,64 18,16 38,23 61,23 25,0 45,-8 62,-24 17,-16 25,-37 25,-63 0,-26 -8,-48 -25,-65 -17,-17 -37,-25 -62,-25 -24,0 -45,8 -62,25 -17,16 -25,38 -25,66zm297 133l0 -268 52 0 0 61c13,-44 38,-66 75,-66 9,0 18,1 27,3 9,2 15,5 20,7l-8 49c-13,-6 -26,-9 -40,-9 -17,0 -31,6 -42,17 -11,11 -19,26 -24,45 -5,18 -7,40 -7,65l0 98 -52 0zm221 -61c-13,-22 -19,-46 -19,-74 0,-27 6,-52 19,-73 13,-21 30,-38 51,-49 21,-11 45,-17 70,-17 26,0 49,6 70,17 21,11 38,27 51,49 13,21 19,46 19,73 0,27 -6,52 -19,74 -13,22 -30,39 -51,50 -21,11 -45,17 -70,17 -25,0 -49,-6 -70,-17 -21,-11 -38,-28 -51,-50zm33 -74c0,27 9,48 26,65 17,17 38,25 63,25 25,0 45,-8 62,-25 17,-17 26,-38 26,-65 0,-26 -9,-48 -25,-64 -17,-16 -38,-24 -63,-24 -25,0 -46,8 -63,24 -17,16 -26,37 -26,64zm300 74c-13,-22 -20,-46 -20,-74 0,-27 7,-52 20,-73 13,-21 31,-38 52,-49 21,-11 45,-17 71,-17 20,0 40,4 58,11 18,8 33,18 46,32l-40 33c-17,-17 -38,-25 -64,-25 -25,0 -46,8 -64,24 -18,16 -26,37 -26,64 0,26 9,48 27,65 18,17 39,25 64,25 25,0 47,-9 64,-26l40 33c-13,14 -28,25 -46,33 -18,8 -37,12 -58,12 -25,0 -49,-6 -71,-17 -22,-11 -39,-28 -52,-50zm267 -74c0,-41 13,-75 39,-101 26,-26 59,-38 98,-38 39,0 71,13 96,38 25,25 38,59 38,101 0,10 0,17 -1,21l-218 0c3,22 13,40 29,53 16,13 35,20 58,20 16,0 31,-4 45,-11 14,-7 24,-17 32,-30 5,2 13,5 24,9 11,4 18,7 21,8 -11,23 -28,40 -50,53 -22,12 -47,18 -73,18 -39,0 -72,-13 -98,-39 -26,-26 -39,-60 -39,-102zm52 -20l166 0c-3,-22 -12,-40 -27,-53 -15,-13 -33,-19 -55,-19 -23,0 -41,6 -57,19 -16,13 -25,30 -28,53zm265 75l48 0c1,6 3,12 7,18 4,6 9,10 15,13 12,7 26,11 42,9 12,-1 22,-5 29,-11 7,-6 11,-15 11,-25 0,-9 -3,-17 -9,-22 -7,-6 -15,-10 -26,-12l-37 -9c-26,-7 -45,-17 -57,-31 -12,-14 -17,-32 -15,-56 2,-19 12,-36 30,-49 18,-13 39,-20 63,-20 12,0 22,1 32,4 10,3 19,7 28,13 9,6 16,14 21,24 5,10 9,21 10,35l-48 0c-1,-10 -6,-17 -14,-22 -8,-5 -17,-8 -28,-8 -10,0 -19,2 -26,7 -8,5 -12,11 -14,18 -2,9 -2,16 1,22 4,9 14,16 31,21l39 10c46,11 70,37 71,78 0,24 -10,43 -31,58 -20,15 -45,22 -74,22 -16,0 -32,-3 -47,-10 -15,-6 -27,-16 -37,-30 -10,-13 -15,-29 -16,-46zm252 0l48 0c1,6 3,12 7,18 4,6 9,10 15,13 12,7 26,11 42,9 12,-1 22,-5 29,-11 7,-6 11,-15 11,-25 0,-9 -3,-17 -9,-22 -7,-6 -15,-10 -26,-12l-37 -9c-26,-7 -45,-17 -57,-31 -12,-14 -17,-32 -15,-56 2,-19 12,-36 30,-49 18,-13 39,-20 63,-20 12,0 22,1 32,4 10,3 19,7 28,13 9,6 16,14 21,24 5,10 9,21 10,35l-48 0c-1,-10 -6,-17 -14,-22 -8,-5 -17,-8 -28,-8 -10,0 -19,2 -26,7 -8,5 -12,11 -14,18 -2,9 -2,16 1,22 4,9 14,16 31,21l39 10c46,11 70,37 71,78 0,24 -10,43 -31,58 -20,15 -45,22 -74,22 -16,0 -32,-3 -47,-10 -15,-6 -27,-16 -37,-30 -10,-13 -15,-29 -16,-46zm254 -55c0,-41 13,-75 39,-101 26,-26 59,-38 98,-38 39,0 71,13 96,38 25,25 38,59 38,101 0,10 0,17 -1,21l-218 0c3,22 13,40 29,53 16,13 35,20 58,20 16,0 31,-4 45,-11 14,-7 24,-17 32,-30 5,2 13,5 24,9 11,4 18,7 21,8 -11,23 -28,40 -50,53 -22,12 -47,18 -73,18 -39,0 -72,-13 -98,-39 -26,-26 -39,-60 -39,-102zm52 -20l166 0c-3,-22 -12,-40 -27,-53 -15,-13 -33,-19 -55,-19 -23,0 -41,6 -57,19 -16,13 -25,30 -28,53zm267 21c0,-28 6,-52 18,-74 12,-22 29,-38 49,-49 20,-11 43,-17 68,-17 21,0 39,4 56,12 17,8 30,19 39,34l0 -186 52 0 0 414 -52 0 0 -41c-9,15 -22,26 -39,35 -17,8 -36,12 -55,12 -25,0 -47,-6 -68,-17 -21,-11 -37,-28 -49,-49 -12,-22 -19,-46 -19,-74zm53 0c0,26 8,47 25,64 17,17 37,25 62,25 25,0 46,-8 63,-24 17,-16 26,-38 26,-65 0,-18 -4,-34 -14,-48 -9,-14 -20,-24 -33,-30 -13,-6 -27,-10 -42,-10 -25,0 -45,8 -62,24 -17,16 -25,37 -25,64zm322 131c-7,-7 -11,-15 -11,-25 0,-10 4,-19 11,-26 7,-7 16,-11 26,-11 10,0 19,4 27,11 7,7 11,16 11,26 0,10 -4,19 -11,25 -7,7 -16,10 -27,10 -10,0 -19,-3 -26,-10z"/>
  <g id="_749100768">
   <path class="fil11" d="M8991 7760c377,0 683,304 683,680 0,375 -306,680 -683,680 -377,0 -683,-304 -683,-680 0,-375 306,-680 683,-680z"/>
   <polyline class="fil12 str2" points="8639,8445 8854,8635 9344,8244 "/>
  </g>
 </g>
</svg>
