<svg width="40" height="40" viewBox="0 0 40 40" fill="none" xmlns="http://www.w3.org/2000/svg">
    <rect width="40" height="40" rx="6" fill="none"/>
    <path
        d="M19.0552 13.0552L15 9H25L20.9448 13.0552C24.9178 13.5226 28 16.9014 28 21V30H12V21C12 16.9014 15.0822 13.5226 19.0552 13.0552Z"
        fill="#13ECAB"/>
    <path fill-rule="evenodd" clip-rule="evenodd"
          d="M20 15C23.3137 15 26 17.6863 26 21C26 24.3137 23.3137 27 20 27C16.6863 27 14 24.3137 14 21C14 17.6863 16.6863 15 20 15ZM20 18.5L17.5 21L20 23.5L22.5 21L20 18.5Z"
          fill="url(#paint0_linear)"/>
    <defs>
        <linearGradient id="paint0_linear" x1="20" y1="27" x2="20" y2="15" gradientUnits="userSpaceOnUse">
            <stop stop-color="#4C57FF"/>
            <stop offset="1" stop-color="#4C57FF"/>
        </linearGradient>
    </defs>
</svg>
