<?xml version="1.0" encoding="UTF-8"?>
<!DOCTYPE svg PUBLIC "-//W3C//DTD SVG 1.1//EN" "http://www.w3.org/Graphics/SVG/1.1/DTD/svg11.dtd">
<!-- Creator: CorelDRAW X6 -->
<svg xmlns="http://www.w3.org/2000/svg" xml:space="preserve" width="189.484mm" height="189.483mm" version="1.1" style="shape-rendering:geometricPrecision; text-rendering:geometricPrecision; image-rendering:optimizeQuality; fill-rule:evenodd; clip-rule:evenodd"
viewBox="0 0 18948 18948"
 xmlns:xlink="http://www.w3.org/1999/xlink">
 <defs>
  <style type="text/css">
   <![CDATA[
    .str0 {stroke:#C13BF4;stroke-width:42.33}
    .fil6 {fill:none}
    .fil0 {fill:none}
    .fil2 {fill:#13ECAB}
    .fil3 {fill:#4C57FF}
    .fil4 {fill:#C834F7}
    .fil5 {fill:url(#id4)}
    .fil1 {fill:url(#id5)}
    .fil7 {fill:url(#id6)}
    .fil8 {fill:#13ECAB; fill-opacity: 0.15}
   ]]>
  </style>
    <mask id="id0">
  <linearGradient id="id1" gradientUnits="userSpaceOnUse" x1="8941.93" y1="12571.8" x2="9025.41" y2="3729.55">
   <stop offset="0" style="stop-opacity:1; stop-color:white"/>
   <stop offset="0.270588" style="stop-opacity:-32.1294; stop-color:white"/>
   <stop offset="1" style="stop-opacity:0; stop-color:white"/>
  </linearGradient>
     <rect style="fill:url(#id1)" x="3852" y="2371" width="10263" height="11559"/>
    </mask>
    <mask id="id2">
  <linearGradient id="id3" gradientUnits="userSpaceOnUse" x1="5415.1" y1="11362.8" x2="12548" y2="10928.8">
   <stop offset="0" style="stop-opacity:1; stop-color:white"/>
   <stop offset="1" style="stop-opacity:0; stop-color:white"/>
  </linearGradient>
     <rect style="fill:url(#id3)" x="5410" y="9640" width="7143" height="3012"/>
    </mask>
  <linearGradient id="id4" gradientUnits="userSpaceOnUse" x1="2562.83" y1="13550.6" x2="15406.2" y2="13244.8">
   <stop offset="0" style="stop-color:#13ECAB"/>
   <stop offset="1" style="stop-color:#4C57FF"/>
  </linearGradient>
  <linearGradient id="id5" gradientUnits="userSpaceOnUse" x1="8998.13" y1="9734.77" x2="8998.13" y2="14595.5">
   <stop offset="0" style="stop-color:#13ECAB"/>
   <stop offset="1" style="stop-color:#C834F7"/>
  </linearGradient>
  <linearGradient id="id6" gradientUnits="userSpaceOnUse" xlink:href="#id4" x1="8945.91" y1="11524" x2="9032.71" y2="7815">
  </linearGradient>
 </defs>
 <g id="Layer_x0020_1">
  <metadata id="CorelCorpID_0Corel-Layer"/>
  <g id="_588719184">
   <rect class="fil0" width="18948" height="18948"/>
   <path class="fil1" d="M5447 9737l-2721 1432c-130,83 -146,172 0,270l5937 3063c194,94 392,89 593,6l5963 -3054c197,-116 188,-197 -5,-312l-2702 -1407 -7065 2z"/>
   <path class="fil2" d="M5413 10441l-1422 752c-151,72 -123,169 16,243l4752 2424c160,90 281,82 444,-11l4689 -2397c291,-120 258,-179 42,-280l-1413 -762 -7108 31z"/>
   <path class="fil8" d="M3894 11303c5,37 25,66 55,88l4883 2498c110,52 220,34 330,-20l4835 -2467c60,-25 107,-59 108,-118l-19 -8903 -10224 170 32 8752z"/>
   <polygon class="fil3" points="856,9018 1597,8632 2322,9002 1575,9394 "/>
   <polygon class="fil3" points="16017,11949 17042,11414 18046,11927 17013,12469 "/>
   <polygon class="fil2" points="856,9018 858,9826 1575,10193 1575,9394 "/>
   <polygon class="fil2" points="16017,11949 16019,13068 17013,13575 17013,12469 "/>
   <polygon class="fil4" points="1575,9394 2322,9002 2327,9825 1575,10193 "/>
   <polygon class="fil4" points="17013,12469 18046,11927 18053,13066 17013,13575 "/>
   <polygon class="fil3" points="1200,10001 848,10198 1599,10608 2361,10206 1991,9989 1575,10193 "/>
   <polygon class="fil3" points="16493,13310 16006,13583 17046,14150 18101,13594 17588,13294 17013,13575 "/>
   <polygon class="fil2" points="1308,9015 1578,8843 1880,9018 1597,9198 "/>
   <polygon class="fil2" points="16643,11946 17016,11707 17434,11949 17042,12198 "/>
   <polygon class="fil3" points="1057,9357 1374,9473 1369,9806 1049,9661 "/>
   <polygon class="fil3" points="16295,12418 16734,12579 16727,13041 16284,12839 "/>
   <polygon class="fil3" points="1824,9510 1832,9809 2155,9661 2144,9367 "/>
   <polygon class="fil3" points="17357,12630 17368,13044 17815,12839 17800,12433 "/>
   <path class="fil5" d="M2619 11289l8 857c-5,83 21,140 79,169l5959 3064c252,131 485,95 709,-21l5831 -3003c91,-36 148,-93 154,-185l1 -885c-9,66 -63,105 -144,155l-5964 3053c-211,88 -409,90 -592,-5l-5834 -3011c-130,-66 -217,-129 -207,-188z"/>
   <circle class="fil6" cx="9005" cy="5845" r="803"/>
   <path class="fil2" d="M8915 6649c-374,-42 -671,-339 -712,-713l712 0 0 713z"/>
   <path class="fil4" d="M9808 5936c-42,374 -339,671 -713,713l0 -713 713 0z"/>
   <path class="fil3" d="M8915 5756l-712 0c21,-188 105,-356 232,-482l480 481 0 1 0 0z"/>
   <path class="fil3" d="M9577 5276c126,126 210,294 231,480l-711 0 480 -480z"/>
   <path class="fil7" d="M9233 7910c-156,-89 -318,-89 -487,5l-3249 1651c-90,53 -84,204 0,233l3254 1661c161,58 303,48 429,-21l3212 -1656c180,-97 123,-184 -69,-275l-3090 -1598z"/>
   <path class="fil6 str0" d="M8740 8235c161,-71 302,-55 434,0l2503 1307c181,93 149,171 -16,239l-2435 1238c-194,99 -396,105 -607,-11l-2392 -1227c-132,-70 -158,-162 -32,-233l2545 -1313z"/>
   <path class="fil6 str0" d="M8787 8570c122,-55 229,-43 330,0l1902 1000c138,70 113,130 -12,182l-1850 946c-148,77 -301,81 -462,-7l-1818 -939c-101,-54 -120,-124 -24,-178l1934 -1004z"/>
   <path class="fil4" style="mask:url(#id2)" d="M5437 9670l-17 1089c7,93 92,154 216,224l3059 1586c179,95 362,96 548,11l3215 -1721c65,-39 90,-110 84,-206l-36 -1003c4,42 -26,82 -109,119l-3212 1657c-131,73 -281,88 -462,4l-3221 -1645c-45,-26 -68,-63 -65,-115z"/>
   <path class="fil3" d="M6095 10547c172,-50 179,224 82,256l-432 237 3 568c-31,118 -270,96 -290,4l2 -624c-1,-91 38,-152 105,-193l530 -248z"/>
   <path class="fil3" d="M11911 10579c-173,-49 -179,224 -82,257l432 236 -3 568c30,118 269,96 289,4l-1 -623c1,-91 -38,-153 -106,-193l-529 -249z"/>
   <path class="fil3" d="M6784 10883c172,-50 179,224 82,256l-432 237 3 568c-31,118 -270,96 -290,4l2 -624c-1,-91 38,-152 105,-193l530 -248z"/>
   <path class="fil3" d="M11222 10915c-173,-49 -179,224 -82,257l432 236 -3 568c30,118 269,96 289,4l-1 -623c1,-91 -38,-153 -106,-193l-529 -249z"/>
   <path class="fil3" d="M7473 11219c172,-50 179,224 82,256l-432 237 3 568c-31,118 -270,96 -290,4l2 -624c-1,-91 38,-152 105,-193l530 -248z"/>
   <path class="fil3" d="M10533 11251c-173,-49 -179,224 -82,257l432 236 -3 568c30,118 269,96 289,4l-1 -623c1,-91 -38,-153 -106,-193l-529 -249z"/>
   <path class="fil3" d="M8162 11555c172,-50 179,224 82,256l-432 237 3 568c-31,118 -270,96 -290,4l2 -624c-1,-91 38,-152 105,-193l530 -248z"/>
   <path class="fil3" d="M9844 11587c-173,-49 -179,224 -82,257l432 236 -3 568c30,118 269,96 289,4l-1 -623c1,-91 -38,-153 -106,-193l-529 -249z"/>
   <polygon class="fil3" points="4847,10807 5186,11152 4844,11497 4509,11125 "/>
   <path class="fil3" d="M5137 11622l-488 0 -2 608 -244 -13 0 488 295 0c263,-43 423,-207 433,-446l6 -637 0 0z"/>
   <polygon class="fil3" points="2355,14254 2016,13909 2358,13564 2693,13935 "/>
   <path class="fil3" d="M2065 13438l489 0 1 -607 244 13 0 -488 -295 0c-263,43 -423,206 -433,445l-6 637 0 0z"/>
   <polygon class="fil4" points="2799,12217 3308,12217 3618,12530 3924,12219 4404,12218 4408,12853 4160,12851 4161,13755 3134,13747 3132,12853 2797,12853 "/>
   <ellipse class="fil4" cx="3119" cy="11023" rx="249" ry="245"/>
   <ellipse class="fil4" cx="3609" cy="11514" rx="465" ry="458"/>
   <path class="fil3" d="M3932 11185l-658 647c195,194 517,176 686,-18 176,-196 146,-468 -28,-629z"/>
   <polygon class="fil2" points="3834,15987 3834,16300 4240,16299 4240,15986 "/>
   <polygon class="fil4" points="3834,16300 4240,16299 4640,16778 3834,16775 "/>
   <polygon class="fil3" points="3055,13747 3741,13747 4240,13747 4240,15986 3688,15987 3688,14293 3599,14288 3599,15986 3046,15987 3047,14283 "/>
   <polygon class="fil2" points="3193,15987 3192,16300 3598,16299 3599,15986 "/>
   <polygon class="fil4" points="3192,16300 3598,16299 3999,16778 3193,16775 "/>
   <polygon class="fil3" points="13103,11049 12764,11394 13106,11739 13442,11368 "/>
   <path class="fil3" d="M12814 11864l488 0 2 608 243 -13 0 488 -295 0c-263,-43 -422,-206 -432,-445l-6 -638 0 0z"/>
   <polygon class="fil3" points="15595,14496 15934,14151 15592,13806 15257,14177 "/>
   <polygon class="fil2" points="14196,15063 14197,16532 13791,16532 13790,15062 "/>
   <polygon class="fil2" points="14197,16532 13791,16532 13390,17010 14196,17007 "/>
   <polygon class="fil2" points="14837,15069 14838,16532 14432,16532 14431,15068 "/>
   <polygon class="fil2" points="14838,16532 14432,16532 14032,17010 14837,17007 "/>
   <path class="fil3" d="M15885 13680l-488 0 -2 -607 -244 13 0 -488 295 0c263,43 423,206 433,445l6 637 0 0z"/>
   <polygon class="fil2" points="15151,12459 14643,12459 14333,12772 14026,12461 13546,12460 13542,13096 13790,13094 13789,13997 14817,13989 14818,13095 15154,13095 "/>
   <ellipse class="fil2" cx="14342" cy="11756" rx="465" ry="458"/>
   <path class="fil3" d="M14018 11428l658 646c-194,194 -516,177 -685,-18 -176,-196 -146,-468 27,-628z"/>
   <polygon class="fil3" points="14895,13989 14209,13989 13710,13989 13710,16262 14263,16263 14263,14713 14351,14711 14351,16262 14904,16263 14904,14248 "/>
  </g>
 </g>
</svg>
