<?xml version="1.0" encoding="UTF-8"?>
<!DOCTYPE svg PUBLIC "-//W3C//DTD SVG 1.1//EN" "http://www.w3.org/Graphics/SVG/1.1/DTD/svg11.dtd">
<!-- Creator: CorelDRAW X6 -->
<svg xmlns="http://www.w3.org/2000/svg" xml:space="preserve" width="188.114mm" height="188.218mm" version="1.1" style="shape-rendering:geometricPrecision; text-rendering:geometricPrecision; image-rendering:optimizeQuality; fill-rule:evenodd; clip-rule:evenodd"
viewBox="0 0 18812 18822"
 xmlns:xlink="http://www.w3.org/1999/xlink">
 <defs>
  <style type="text/css">
   <![CDATA[
    .fil5 {fill:none}
    .fil10 {fill:#13ECAB}
    .fil0 {fill:#4C57FF}
    .fil1 {fill:white}
    .fil9 {fill:url(#id0)}
    .fil2 {fill:url(#id1)}
    .fil3 {fill:url(#id2)}
    .fil4 {fill:url(#id3)}
    .fil6 {fill:url(#id4)}
    .fil7 {fill:url(#id5)}
    .fil8 {fill:url(#id6)}
   ]]>
  </style>
  <linearGradient id="id0" gradientUnits="userSpaceOnUse" x1="9253.94" y1="6387.5" x2="9253.94" y2="3215.97">
   <stop offset="0" style="stop-color:#13ECAB"/>
   <stop offset="1" style="stop-color:#4C57FF"/>
  </linearGradient>
  <linearGradient id="id1" gradientUnits="userSpaceOnUse" x1="5164.33" y1="7837.14" x2="5164.33" y2="3527.43">
   <stop offset="0" style="stop-color:#13ECAB"/>
   <stop offset="1" style="stop-color:#C834F7"/>
  </linearGradient>
  <linearGradient id="id2" gradientUnits="userSpaceOnUse" xlink:href="#id1" x1="5164.33" y1="7827.6" x2="5164.33" y2="3536.97">
  </linearGradient>
  <linearGradient id="id3" gradientUnits="userSpaceOnUse" xlink:href="#id1" x1="5164.33" y1="7834.3" x2="5164.33" y2="3530.27">
  </linearGradient>
  <linearGradient id="id4" gradientUnits="userSpaceOnUse" xlink:href="#id1" x1="13036.7" y1="7837.14" x2="13036.7" y2="3527.43">
  </linearGradient>
  <linearGradient id="id5" gradientUnits="userSpaceOnUse" xlink:href="#id1" x1="13036.7" y1="7827.6" x2="13036.7" y2="3536.97">
  </linearGradient>
  <linearGradient id="id6" gradientUnits="userSpaceOnUse" xlink:href="#id1" x1="13036.7" y1="7834.3" x2="13036.7" y2="3530.27">
  </linearGradient>
 </defs>
 <g id="Layer_x0020_1">
  <metadata id="CorelCorpID_0Corel-Layer"/>
  <g id="_318665552">
   <path class="fil0" d="M411 0l17989 0c226,0 411,185 411,411l0 10528c0,226 -185,411 -411,411l-1922 0 -4287 0 -634 0 -4286 0 -635 0 -4286 0 -1939 0c-226,0 -411,-185 -411,-411l0 -10528c0,-226 185,-411 411,-411z"/>
   <g>
    <g>
     <path class="fil1" d="M3488 2872l3944 -19c177,-1 322,143 323,319l24 4972c1,177 -143,322 -319,323l-3945 19c-177,1 -322,-143 -323,-319l-24 -4973c-1,-176 143,-321 320,-322z"/>
     <path class="fil0" d="M3589 3016l3727 -19c167,0 304,136 305,302l23 4742c1,167 -135,304 -302,305l-3727 18c-167,1 -304,-135 -305,-302l-23 -4742c-1,-166 135,-304 302,-304zm-110 -133l3945 -19c177,-1 322,143 323,320l24 4972c1,176 -143,321 -320,322l-3944 19c-177,1 -322,-142 -323,-319l-24 -4972c-1,-177 143,-322 319,-323z"/>
     <g>
      <path class="fil2" d="M3798 3544l3314 -17c56,0 102,45 102,101l12 2557c1,56 -45,102 -100,102l-3315 16c-55,0 -101,-45 -101,-101l-13 -2557c0,-55 45,-101 101,-101z"/>
      <path class="fil3" d="M3793 6617l3220 -15c44,-1 81,36 81,80l2 326c0,45 -36,81 -81,82l-3220 15c-44,0 -81,-36 -81,-80l-2 -326c0,-45 36,-82 81,-82z"/>
      <path class="fil4" d="M3797 7370l2408 -12c45,0 81,36 82,81l1 302c0,45 -36,81 -81,82l-2408 11c-45,1 -82,-36 -82,-80l-1 -302c0,-45 36,-82 81,-82z"/>
      <circle class="fil5" transform="matrix(0.663716 -0.00322634 0.00322634 0.663716 5461.37 4833.85)" r="1186"/>
     </g>
    </g>
    <g>
     <path class="fil1" d="M11360 2872l3945 -19c176,-1 321,143 322,319l24 4972c1,177 -143,322 -319,323l-3945 19c-176,1 -321,-143 -322,-319l-25 -4973c0,-176 143,-321 320,-322z"/>
     <path class="fil0" d="M11461 3016l3728 -19c167,0 304,136 305,302l23 4742c0,167 -135,304 -302,305l-3728 18c-167,1 -304,-135 -305,-302l-23 -4742c-1,-166 135,-304 302,-304zm-109 -133l3945 -19c176,-1 321,143 322,320l24 4972c1,176 -143,321 -319,322l-3945 19c-176,1 -322,-142 -322,-319l-25 -4972c0,-177 143,-322 320,-323z"/>
     <g>
      <path class="fil6" d="M11670 3544l3315 -17c55,0 101,45 101,101l13 2557c0,56 -45,102 -101,102l-3314 16c-56,0 -102,-45 -102,-101l-12 -2557c-1,-55 45,-101 100,-101z"/>
      <path class="fil7" d="M11665 6617l3220 -15c45,-1 81,36 81,80l2 326c0,45 -36,81 -81,82l-3220 15c-44,0 -81,-36 -81,-80l-2 -326c0,-45 36,-82 81,-82z"/>
      <path class="fil8" d="M11669 7370l2408 -12c45,0 82,36 82,81l1 302c1,45 -36,81 -80,82l-2409 11c-45,1 -81,-36 -81,-80l-2 -302c0,-45 36,-82 81,-82z"/>
      <circle class="fil5" transform="matrix(0.663716 -0.00322634 0.00322634 0.663716 13333.7 4833.85)" r="1186"/>
     </g>
    </g>
    <g>
     <path class="fil1" d="M6996 2442l4534 0c203,0 369,166 369,369l0 5715c0,203 -166,369 -369,369l-4534 0c-203,0 -369,-166 -369,-369l0 -5715c0,-203 166,-369 369,-369z"/>
     <rect class="fil9" x="7233" y="3216" width="4042" height="3172" rx="116" ry="116"/>
     <rect class="fil0" x="7233" y="6748" width="3887" height="561" rx="93" ry="93"/>
     <rect class="fil0" x="7233" y="7614" width="2955" height="534" rx="93" ry="93"/>
     <path class="fil0" d="M7112 2608l4284 0c192,0 349,157 349,349l0 5450c0,191 -157,348 -349,348l-4284 0c-192,0 -349,-157 -349,-348l0 -5450c0,-192 157,-349 349,-349zm-125 -153l4534 0c203,0 369,166 369,369l0 5715c0,203 -166,369 -369,369l-4534 0c-203,0 -369,-166 -369,-369l0 -5715c0,-203 166,-369 369,-369z"/>
     <circle class="fil5" cx="9254" cy="4708" r="904"/>
    </g>
   </g>
   <rect class="fil10" x="156" y="13808" width="6521" height="1270" rx="340" ry="420"/>
   <rect class="fil10" x="156" y="15676" width="6521" height="1270" rx="340" ry="420"/>
   <rect class="fil10" x="7318" y="13808" width="11338" height="1270" rx="591" ry="420"/>
   <rect class="fil10" x="7318" y="15676" width="11338" height="1270" rx="591" ry="420"/>
   <rect class="fil10" x="2043" y="11940" width="4638" height="1270" rx="242" ry="420"/>
   <rect class="fil10" x="7289" y="11940" width="9556" height="1270" rx="498" ry="420"/>
   <rect class="fil10" x="156" y="15676" width="1292" height="1270" rx="67" ry="420"/>
   <rect class="fil10" y="13808" width="6521" height="1270" rx="340" ry="420"/>
   <rect class="fil10" y="15676" width="6521" height="1270" rx="340" ry="420"/>
   <rect class="fil10" x="7276" y="13808" width="11536" height="1270" rx="601" ry="420"/>
   <rect class="fil10" x="7276" y="15676" width="11536" height="1270" rx="601" ry="420"/>
   <path class="fil10" d="M420 17515l453 0c231,0 420,189 420,420l0 430c0,231 -189,420 -420,420l-453 0c-231,0 -420,-189 -420,-420l0 -430c0,-231 189,-420 420,-420zm-36 490l125 0c6,-103 55,-157 135,-156 87,2 137,49 144,156l121 0 0 445 -525 0 0 -445zm177 0l169 0c4,-139 -179,-119 -169,0z"/>
   <path class="fil10" d="M17939 17552l453 0c231,0 420,189 420,420l0 430c0,231 -189,420 -420,420l-453 0c-231,0 -420,-189 -420,-420l0 -430c0,-231 189,-420 420,-420zm224 337l-98 198 -216 25 154 155 -31 217 192 -99 193 100 -39 -218 163 -153 -222 -31 -96 -194z"/>
   <path class="fil10" d="M420 11940l453 0c231,0 420,189 420,420l0 430c0,231 -189,420 -420,420l-453 0c-231,0 -420,-189 -420,-420l0 -430c0,-231 189,-420 420,-420zm189 920c-155,-17 -279,-140 -296,-296l296 0 0 296zm370 -296c-17,156 -140,279 -295,296l0 -296 295 0zm-370 -74l-296 0c9,-78 44,-148 97,-200l199 200 0 0 0 0zm275 -199c52,52 87,122 95,199l-294 0 199 -199z"/>
   <path class="fil10" d="M7696 17533l452 0c231,0 420,189 420,420l0 430c0,231 -189,420 -420,420l-452 0c-231,0 -420,-189 -420,-420l0 -430c0,-231 189,-420 420,-420zm222 427c-35,-93 -198,-86 -261,27 -76,237 186,362 264,455 107,-111 271,-178 280,-394 -28,-159 -206,-205 -283,-88z"/>
   <path class="fil10" d="M17939 11948l453 0c231,0 420,189 420,420l0 430c0,231 -189,420 -420,420l-453 0c-231,0 -420,-189 -420,-420l0 -430c0,-231 189,-420 420,-420zm320 437l103 -99 103 99 -103 99 -103 -99zm-441 369l176 -289c23,-42 61,-40 84,-5l161 272 74 -117c30,-51 72,-48 100,3l82 129 84 132 -132 -2 -127 0 -454 0 -115 -2 67 -121z"/>
  </g>
 </g>
</svg>
