<?xml version="1.0" encoding="UTF-8"?>
<!DOCTYPE svg PUBLIC "-//W3C//DTD SVG 1.1//EN" "http://www.w3.org/Graphics/SVG/1.1/DTD/svg11.dtd">
<!-- Creator: CorelDRAW X6 -->
<svg xmlns="http://www.w3.org/2000/svg" xml:space="preserve" width="210.276mm" height="204.536mm" version="1.1" style="shape-rendering:geometricPrecision; text-rendering:geometricPrecision; image-rendering:optimizeQuality; fill-rule:evenodd; clip-rule:evenodd"
viewBox="0 0 22666 22048"
 xmlns:xlink="http://www.w3.org/1999/xlink">
 <defs>
  <style type="text/css">
   <![CDATA[
    .str0 {stroke:none;stroke-width:182.527}
    .fil4 {fill:none}
    .fil1 {fill:#13ECAB}
    .fil0 {fill:#4C57FF}
    .fil3 {fill:#13ECAB}
    .fil2 {fill:#C834F7;fill-opacity:0.6}
   ]]>
  </style>
 </defs>
 <g id="Layer_x0020_1">
  <metadata id="CorelCorpID_0Corel-Layer"/>
  <rect class="fil0" x="3323" y="9724" width="16238" height="8746"/>
  <rect class="fil1" x="3605" y="2993" width="15743" height="2852"/>
  <rect class="fil0" x="2768" y="6302" width="17036" height="3232"/>
  <path class="fil2" d="M2384 5728l242 -1411c-272,-21 -199,63 -221,-432 -4,-92 -10,-359 76,-406 110,-61 11751,-100 12964,-102 654,-1 3817,-22 4428,43 30,178 58,649 -45,773 -43,20 -133,27 -191,20l36 1584c91,32 333,0 457,47 147,205 361,2004 428,2406l14 171 -804 1337 89 4331c81,-37 210,-168 285,-240 40,-38 58,-44 97,-80 329,-304 752,-769 1015,-1120l290 -417c325,-544 482,-831 687,-1448 252,-756 377,-1622 419,-2422l16 -337 0 -21 0 -162c0,-400 -5,-806 -57,-1188 -16,-117 -25,-206 -40,-313 -30,-215 -70,-411 -110,-612 -110,-545 -268,-979 -483,-1459 -196,-439 -506,-957 -831,-1304 -38,-41 -46,-63 -88,-105 -526,-531 -950,-863 -1683,-1157 -342,-137 -708,-242 -1119,-310 -1294,-213 -2556,-17 -3789,291 -191,48 -362,99 -551,155 -657,194 -954,359 -1775,359 -524,0 -771,-65 -1236,-193 -290,-79 -740,-282 -1000,-412 -366,-183 -592,-317 -931,-498 -458,-244 -1150,-642 -1673,-814 -330,-108 -442,-160 -847,-228 -177,-30 -349,-48 -517,-55l-360 0c-810,36 -1533,316 -2272,712 -388,208 -490,313 -753,676 -138,190 -276,470 -365,695 -149,379 -197,803 -220,1209 -7,130 18,212 16,337 -7,644 400,2045 401,2100z"/>
  <path class="fil2" d="M15315 18221l-7938 22c-645,-13 -1315,8 -1965,5 -644,-3 -1289,0 -1933,-11l-599 -11 333 281c386,316 705,508 1127,761l1412 791c75,38 126,71 205,110 257,128 807,416 1046,512l653 291c409,177 946,377 1369,518 697,232 1557,450 2293,524 155,16 313,27 472,32l451 0c843,-31 1681,-244 2330,-790 263,-221 401,-343 543,-715 116,-303 156,-690 156,-1103l30 -1064c3,-68 15,-74 15,-154z"/>
  <path class="fil2" d="M2514 17290c-8,-1208 12,-2420 26,-3627 7,-605 16,-1209 24,-1814 8,-595 2,-1213 28,-1805l-73 -994c-3284,685 -2711,3981 -1860,5552 213,460 712,1336 1063,1769 33,40 57,71 85,109 183,244 386,453 509,614 43,57 137,158 197,195z"/>
  <path class="fil3" d="M4086 3450l14715 0 38 1907 -14803 0 38 -1907 13 0zm-870 3230l16253 31 38 558c-189,2532 -4211,2584 -5460,779 -1601,1764 -3997,1774 -5359,-21 -1564,2020 -5107,1569 -5460,-810l0 -537 -12 0zm857 11270l-25 -7637c1727,779 3266,482 4716,-338 1904,1128 3657,964 5346,0 1362,882 2925,1036 4703,369l38 7647 -14777 -41zm-883 -15864l16316 0c454,0 832,308 832,677l-25 2532c555,41 807,277 807,677l-13 1604c-50,615 -303,1087 -769,1384l0 9687c0,369 -378,677 -832,677l-16316 0c-454,0 -832,-308 -832,-677l-25 -9523c-340,-308 -555,-728 -681,-1241l-13 -2065c25,-338 240,-564 731,-615l0 -2440c0,-369 378,-677 832,-677l-13 0z"/>
  <g id="_443995664">
   <rect class="fil0" x="6013" y="12542" width="1410" height="1410" rx="611" ry="705"/>
   <path class="fil0" d="M6806 13668c-2,1 -3,5 -4,6l-1 5c0,2 0,4 0,5l0 1c1,1 1,1 1,2 0,0 0,1 0,1 0,2 0,0 0,1 1,2 2,5 4,7 0,0 1,1 1,2 1,1 1,1 0,1l0 0c1,0 1,0 0,0l1 0c3,3 4,6 6,10l22 29c5,6 10,12 15,17l4 4c3,2 5,5 8,7l4 3c1,0 2,1 3,2 1,1 8,6 9,7 2,1 3,2 5,3 2,1 3,2 5,3 1,0 0,-1 1,0 1,0 1,1 1,1l1 1c1,0 4,1 6,2 2,1 5,1 5,3 1,-1 1,0 2,1l5 2c1,0 0,0 1,0 1,0 1,0 1,1 1,0 2,0 3,1 1,0 1,0 1,0 2,0 0,0 1,1 1,0 1,0 3,0 1,0 0,0 1,0 2,1 2,0 4,1 1,0 3,0 4,1l0 0c1,0 1,0 2,0 1,0 2,0 3,0 1,0 2,0 3,0 1,0 3,0 4,0 1,0 6,0 7,0 0,0 1,0 1,0 2,-1 4,0 6,-1 2,0 4,-1 5,0 0,0 0,0 0,0 1,0 2,0 2,0 1,0 2,0 3,0l8 -2c3,0 12,-3 14,-4 1,-1 5,-2 6,-3 2,-1 5,-2 6,-2l21 -13c1,0 0,0 1,0 3,-2 7,-5 10,-8 3,-3 6,-5 9,-8 2,-2 10,-10 12,-12 1,-1 3,-3 4,-4 0,-2 3,-5 4,-6 2,-1 3,-4 4,-6 0,-1 1,-2 2,-4 1,-1 1,-3 3,-4l1 -2c0,-1 1,-2 2,-4 1,-1 1,-3 2,-4l2 -5c0,-1 0,0 0,-2 0,-1 0,-1 1,-1 1,-1 0,-2 1,-3l1 -4c0,-1 0,-1 0,-1 0,-1 0,0 0,-1 0,0 0,-1 1,-1l1 -1c0,-2 1,-7 1,-8 0,-1 0,-1 0,-2 0,-1 0,-3 1,-4 0,-1 0,-1 0,-2 0,-1 0,-2 0,-3 -1,-1 0,-4 0,-6 0,-1 0,-5 0,-6l0 0c0,-1 0,-3 0,-4 0,-1 0,-6 -1,-7 -1,-1 0,-1 -1,-3 0,-1 0,-1 0,-2 0,-1 -1,-4 -1,-5 -1,-1 -1,-4 -1,-5l-1 -4c0,-2 -1,-3 -1,-5l0 0c-1,-1 -1,-3 -1,-4 -1,-1 -2,-4 -2,-6 0,-1 -2,-5 -3,-6l-7 -14c-1,-1 -2,-3 -3,-5 -5,-10 -21,-30 -27,-38 -3,-3 -5,-6 -8,-9 -1,-2 -7,-7 -7,-9l0 0c-1,0 -3,-3 -4,-4 -1,-1 -3,-3 -4,-4 0,0 0,0 -1,0 0,0 -1,0 -1,-1 -1,-1 -1,-1 -2,-1 -1,-1 -2,-1 -3,-2 -1,0 -2,0 -3,-1 -1,0 -1,0 -2,0 -1,0 -1,0 -2,0 -1,0 0,0 -1,0 -1,0 -5,1 -6,1 -1,1 -1,1 -2,0l0 0c-2,1 -2,1 -4,2 -5,3 -15,11 -19,14 -2,2 -4,4 -7,6l-2 2 -6 6 -1 0c0,0 0,0 0,0 0,0 0,0 0,0 0,0 0,0 0,1 0,0 -1,1 -1,1 -2,2 -4,4 -6,5 -2,1 -5,4 -7,6 -2,2 -5,4 -7,6 -4,3 -11,10 -15,12l0 0c0,1 1,0 -1,1 -1,1 -7,5 -9,7 0,1 1,1 1,2 1,1 1,1 1,2 5,7 10,13 14,20 1,1 2,3 3,4l14 20c2,3 3,5 5,8l11 16c2,3 4,5 6,8 2,2 4,6 5,8 2,3 4,6 6,8 2,3 4,5 6,8 2,2 3,6 5,8 1,1 2,3 3,4 1,2 0,1 2,4 2,2 5,6 5,8 -2,-1 -11,-12 -13,-15 -4,-5 -11,-13 -13,-15 -2,-2 -4,-5 -6,-7 -4,-4 -5,-5 -6,-7 -2,-3 -4,-5 -6,-7 -2,-2 -4,-6 -6,-8 -2,-2 -4,-5 -6,-8 -1,-1 -2,-2 -3,-3 -3,-3 -6,-8 -10,-11 -2,-2 -4,-6 -6,-8 -2,-2 0,0 -2,-1 -2,-2 -6,-9 -11,-13 -2,-2 -4,-5 -6,-7 -1,-1 -2,-2 -3,-4 -1,-1 -2,-3 -3,-4 -1,0 -1,1 -1,1 -1,0 0,0 -1,0 -1,1 -3,2 -4,3 -1,1 -1,1 -2,2 -1,1 -1,1 -2,1 -2,2 -10,7 -13,9 -2,1 -11,7 -12,9 -1,1 -9,7 -11,8 -1,1 -1,0 -3,1l-5 4c-1,1 -2,1 -3,1l-1 1c-1,1 -3,2 -4,3 -1,0 -1,1 -2,1 -1,1 -1,1 -2,1l-2 2c-3,3 -7,5 -10,7 -3,2 -6,6 -9,8z"/>
   <path class="fil0" d="M6550 13008c5,1 9,6 14,9 6,4 8,6 13,10l24 18c1,1 2,2 4,3l152 117c5,4 9,7 14,11l221 172c-27,18 -57,44 -84,64l-34 26c-3,3 -4,3 -7,5l-56 42c-38,27 -74,58 -113,86l-22 17c-3,2 -5,3 -7,5l-70 54c-14,11 -39,27 -50,38 -4,4 -4,1 -4,9 6,3 7,1 13,3 6,2 0,0 5,2l13 3c3,1 4,1 7,2l43 10c16,3 31,4 46,4l57 0 2 0c16,0 40,-5 56,-10l21 -6c1,0 3,-1 4,-1 2,-1 2,-1 4,-1l28 -10c4,-2 4,-2 7,-3 5,-2 3,-1 8,-3 4,-2 4,-2 7,-4 11,-6 18,-10 28,-16 17,-10 35,-24 50,-37 8,-7 15,-14 22,-22 15,-15 28,-31 39,-48 14,-20 26,-41 35,-64l8 -19c9,-24 14,-49 18,-75 10,-58 0,-121 -18,-175l-13 -32c-2,-4 -2,-4 -3,-8 -14,-27 -31,-54 -51,-76l-55 -52c-35,-26 -67,-41 -106,-58l-31 -9c-3,-1 -6,-1 -9,-2 -6,-2 -3,-1 -9,-2 -4,-1 -6,0 -10,-1l-30 -5c-17,-2 -37,-2 -55,-2 -23,0 -54,6 -77,12l-41 10c-8,2 -10,0 -11,9z"/>
   <path class="fil0" d="M6342 13010c0,49 5,95 22,140l12 28c11,22 23,43 37,63l5 6c4,5 6,8 10,13l46 47c0,0 1,1 1,1 1,1 1,1 3,3l47 33 96 40c3,1 6,1 9,2 6,2 3,1 9,2 34,5 83,13 116,6 7,-2 9,-1 18,-2 13,-1 29,-5 41,-8 19,-5 38,-7 56,-15 -2,-5 -7,-8 -12,-12 -6,-4 -9,-7 -15,-11l-175 -133c-2,-2 -1,-1 -3,-2 -1,-1 -2,-2 -4,-3l-42 -32c-6,-4 -9,-7 -13,-10l-15 -11c-5,-5 -7,-6 -13,-10 -6,-4 -9,-7 -14,-11 -10,-8 -19,-15 -29,-22 -1,-1 -2,-2 -3,-2 -2,-2 -1,-1 -3,-3l-22 -16c-5,-4 -8,-7 -13,-10l-71 -54c7,-10 74,-58 82,-65l9 -7c3,-3 1,-1 4,-3l202 -156c2,-1 2,-1 3,-2l137 -105c5,-4 4,0 5,-8 -11,-5 -40,-10 -54,-14 -32,-7 -50,-10 -71,-10l-54 0 -3 0c-20,0 -52,8 -72,14l-8 3c0,0 -1,0 -1,0l-15 5c-3,1 -6,2 -8,3l-15 7c-25,10 -47,25 -69,40l-14 11c-19,17 -36,33 -53,52 0,0 -1,1 -1,1l-3 3c0,0 -1,2 -2,2 -2,3 -3,4 -5,6l-26 40c-2,3 -2,4 -4,7l-18 37c-16,40 -27,83 -27,126z"/>
   <path class="fil0" d="M6892 13606c1,0 0,0 1,0 1,0 1,0 1,-1 1,1 3,3 3,4 1,1 2,3 3,4 2,2 4,5 6,7 5,5 9,11 11,13 1,1 0,0 2,1 2,2 4,6 6,8 4,4 7,8 10,11 1,1 2,2 3,3 2,3 4,6 6,8 2,2 4,5 6,8 2,2 4,4 6,7 1,2 3,3 6,7 2,3 4,5 6,7 2,2 8,10 13,15 2,2 11,14 13,15 0,-2 -4,-6 -5,-8 -2,-3 -1,-2 -2,-4 -1,-1 -2,-3 -3,-4 -2,-2 -4,-6 -5,-8 -2,-3 -4,-5 -6,-8 -2,-3 -4,-5 -6,-8 -2,-2 -4,-6 -5,-8 -2,-3 -4,-5 -6,-8l-11 -16c-2,-3 -3,-5 -5,-8l-14 -20c-1,-1 -2,-3 -3,-4 -4,-7 -10,-13 -14,-20 0,-1 -1,-1 -1,-2 -1,-1 -1,-1 -1,-2 2,-2 8,-6 9,-7 1,-1 1,0 1,-1l-19 15c-2,2 -5,3 -7,5z"/>
  </g>
  <rect class="fil4 str0" x="4799" y="11658" width="3836" height="6529"/>
  <rect class="fil4 str0" x="9545" y="11661" width="3836" height="6522"/>
  <rect class="fil4 str0" x="14248" y="11661" width="3836" height="6522"/>
  <rect class="fil4 str0" x="8333" y="14395" width="303" height="1054"/>
  <line class="fil4 str0" x1="4800" y1="14922" x2="8333" y2= "14922" />
  <g id="_444550656">
   <polygon fill="none" points="10502,16873 12440,16873 12440,17212 12222,17212 12222,18051 11882,18051 11882,17212 11060,17212 11060,18051 10720,18051 10720,17212 10502,17212 "/>
   <polygon fill="none" points="10163,18078 9726,16688 10050,16587 10522,18061 "/>
   <polygon fill="none" points="12801,18078 13243,16687 12919,16586 12441,18061 "/>
  </g>
  <g id="_444549576">
   <polygon fill="none"  points="15184,16873 17122,16873 17122,17212 16904,17212 16904,18051 16564,18051 16564,17212 15742,17212 15742,18051 15402,18051 15402,17212 15184,17212 "/>
   <polygon fill="none" points="14845,18078 14408,16688 14732,16587 15204,18061 "/>
   <polygon fill="none" points="17482,18078 17925,16687 17600,16586 17123,18061 "/>
  </g>
 </g>
</svg>
