<?xml version="1.0" encoding="UTF-8"?>
<!DOCTYPE svg PUBLIC "-//W3C//DTD SVG 1.1//EN" "http://www.w3.org/Graphics/SVG/1.1/DTD/svg11.dtd">
<!-- Creator: CorelDRAW X6 -->
<svg xmlns="http://www.w3.org/2000/svg" xml:space="preserve" width="112.68mm" height="200mm" version="1.1" style="shape-rendering:geometricPrecision; text-rendering:geometricPrecision; image-rendering:optimizeQuality; fill-rule:evenodd; clip-rule:evenodd"
viewBox="0 0 10397 18454"
 xmlns:xlink="http://www.w3.org/1999/xlink">
 <defs>
  <style type="text/css">
   <![CDATA[
    .str4 {stroke:#3B9CFF;stroke-width:39.0589}
    .str3 {stroke:#FEB434;stroke-width:39.0589}
    .str0 {stroke:#3B9CFF;stroke-width:7.03115;stroke-opacity:0.980392}
    .str2 {stroke:#3B9CFF;stroke-width:7.03115}
    .str1 {stroke:#3B9CFF;stroke-width:8.03692}
    .fil20 {fill:none}
    .fil13 {fill:none;fill-rule:nonzero}
    .fil19 {fill:none;fill-rule:nonzero}
    .fil6 {fill:#00C2FF}
    .fil7 {fill:#3B9CFF}
    .fil9 {fill:#FBD13E}
    .fil8 {fill:#FEB434}
    .fil4 {fill:#3B9CFF;fill-rule:nonzero}
    .fil11 {fill:#FBD13E;fill-rule:nonzero}
    .fil5 {fill:#FEB434;fill-rule:nonzero}
    .fil0 {fill:none; opacity: 0.96}
    .fil15 {fill:#A3D1FF;fill-opacity:0.301961}
    .fil16 {fill:#E6F2FE;fill-opacity:0.450980}
    .fil17 {fill:#A3D1FF;fill-rule:nonzero;fill-opacity:0.450980}
    .fil18 {fill:#A3D1FF;fill-opacity:0.490196}
    .fil2 {fill:white;fill-opacity:0.96}
    .fil14 {fill:#3B9CFF;fill-rule:nonzero;fill-opacity:0.0.6}
    .fil10 {fill:#CFE7FF;fill-opacity:0.6}
    .fil1 {fill:#FFFFFF;fill-opacity:0.99}
    .fil12 {fill:#3B9CFF;fill-rule:nonzero;fill-opacity:0.980392}
    .fil3 {fill:#3B9CFF;fill-rule:nonzero}
   ]]>
  </style>
 </defs>
 <g id="Layer_x0020_1">
  <metadata id="CorelCorpID_0Corel-Layer"/>
  <path class="fil0" d="M2110 999c-982,-58 -1141,244 -1176,989l2 1530 8526 0 0 -1430c-13,-881 -329,-1137 -1150,-1131l-715 703 -4735 19 -752 -681zm-1174 2520l6 12491c-11,970 237,1412 945,1465l6235 15c1012,74 1365,-496 1340,-1435l0 -12537 -8526 0z"/>
  <path class="fil1" d="M8487 17748l-6339 32c-1356,34 -1533,-630 -1500,-1866l6 -14293c70,-514 318,-829 768,-919l781 0c227,90 319,670 948,668l4164 1c621,-125 561,-628 985,-676l691 19c470,67 716,531 723,1065l9 14653c0,793 -344,1311 -1235,1316zm-7114 -17748c-852,135 -1349,684 -1330,1835l-42 14864c-26,1176 656,1696 1836,1756l6898 -6c923,20 1492,-414 1623,-1411l40 -15259c-21,-1019 -850,-1781 -1827,-1776l-7197 -3z"/>
  <path class="fil2" d="M1964 1906l6469 0c193,0 350,158 350,350l0 867c0,193 -158,350 -350,350l-6469 0c-193,0 -350,-158 -350,-350l0 -867c0,-193 158,-350 350,-350z"/>
  <path class="fil2" d="M1955 3815l6487 0c188,0 341,154 341,341l0 885c0,188 -154,341 -341,341l-6487 0c-188,0 -341,-154 -341,-341l0 -885c0,-188 154,-341 341,-341z"/>
  <path class="fil3" d="M2035 4498l42 0 50 140 50 -140 38 0 50 140 50 -140 42 0 -74 200 -32 0 -55 -147 -53 147 -32 0 -76 -200zm339 0l42 0 50 140 50 -140 38 0 50 140 50 -140 42 0 -74 200 -32 0 -55 -147 -53 147 -32 0 -76 -200zm339 0l42 0 50 140 50 -140 38 0 50 140 50 -140 42 0 -74 200 -32 0 -55 -147 -53 147 -32 0 -76 -200zm354 197c-5,-5 -8,-11 -8,-19 0,-8 3,-14 8,-19 5,-5 12,-8 20,-8 8,0 14,3 20,8 6,5 8,12 8,19 0,8 -3,14 -8,19 -6,5 -12,7 -20,7 -8,0 -14,-3 -20,-7zm95 -57l36 0c1,5 2,9 5,13 3,4 7,8 11,10 9,6 19,8 31,7 9,-1 16,-4 22,-8 6,-5 8,-11 9,-18 0,-7 -2,-13 -7,-17 -5,-4 -11,-7 -19,-9l-27 -6c-19,-5 -33,-13 -42,-23 -9,-10 -13,-24 -11,-42 1,-15 9,-27 22,-36 14,-10 29,-15 47,-15 9,0 17,1 24,3 8,2 14,5 21,10 6,4 12,10 16,18 4,7 7,16 7,26l-36 0c-1,-7 -4,-13 -10,-17 -6,-4 -13,-6 -21,-6 -7,0 -14,2 -19,5 -6,3 -9,8 -11,13 -2,6 -2,12 0,16 3,7 11,12 23,16l29 7c35,9 52,28 53,58 0,18 -8,32 -23,43 -15,11 -34,16 -56,16 -12,0 -24,-2 -35,-7 -11,-5 -20,-12 -28,-22 -8,-10 -11,-22 -12,-35zm203 157l0 -298 39 0 0 31c6,-11 16,-20 29,-26 13,-6 27,-10 41,-10 28,0 52,10 71,29 19,20 29,45 29,76 0,21 -5,39 -14,55 -9,16 -21,28 -36,36 -15,8 -32,12 -50,12 -15,0 -29,-3 -41,-9 -13,-6 -22,-14 -29,-25l0 127 -39 0zm39 -197c0,20 7,36 20,48 13,12 28,17 46,17 18,0 34,-6 46,-18 12,-12 19,-28 19,-47 0,-20 -6,-36 -19,-49 -13,-13 -28,-19 -46,-19 -18,0 -34,6 -47,18 -13,12 -19,29 -19,49zm209 -1c0,-21 5,-39 14,-55 9,-16 22,-28 37,-37 15,-8 32,-13 51,-13 15,0 29,3 41,9 13,6 23,14 29,25l0 -30 39 0 0 200 -39 0 0 -31c-6,11 -16,20 -29,26 -13,6 -27,9 -41,9 -28,0 -52,-10 -72,-29 -20,-19 -30,-45 -30,-76zm40 0c0,19 6,35 19,48 13,13 28,19 46,19 19,0 34,-6 47,-18 13,-12 19,-28 19,-49 0,-14 -3,-26 -10,-36 -7,-10 -15,-18 -25,-23 -10,-5 -20,-7 -32,-7 -18,0 -34,6 -46,18 -13,12 -19,28 -19,48zm221 101l0 -32 119 -131 -112 0 0 -37 170 0 0 32 -122 131 122 0 0 37 -176 0zm215 -100c0,-21 5,-39 14,-55 9,-16 22,-28 37,-37 15,-8 32,-13 51,-13 15,0 29,3 41,9 13,6 23,14 29,25l0 -30 39 0 0 200 -39 0 0 -31c-6,11 -16,20 -29,26 -13,6 -27,9 -41,9 -28,0 -52,-10 -72,-29 -20,-19 -30,-45 -30,-76zm40 0c0,19 6,35 19,48 13,13 28,19 46,19 19,0 34,-6 47,-18 13,-12 19,-28 19,-49 0,-14 -3,-26 -10,-36 -7,-10 -15,-18 -25,-23 -10,-5 -20,-7 -32,-7 -18,0 -34,6 -46,18 -13,12 -19,28 -19,48zm236 101l0 -200 39 0 0 30c5,-10 13,-18 24,-24 11,-6 22,-9 31,-10 8,0 15,0 22,1 25,4 43,17 52,39 14,-28 37,-41 69,-41 25,0 44,8 57,23 13,16 20,37 20,66l0 116 -39 0 0 -113c0,-17 -4,-30 -12,-39 -8,-9 -19,-14 -34,-14 -16,0 -29,5 -39,16 -10,11 -14,25 -14,42l0 108 -39 0 0 -114c0,-16 -4,-29 -12,-39 -8,-9 -18,-14 -32,-14 -15,0 -29,5 -39,15 -11,10 -16,24 -16,44l0 108 -39 0zm365 -100c0,-21 5,-39 14,-55 9,-16 22,-28 37,-37 15,-8 32,-13 51,-13 15,0 29,3 41,9 13,6 23,14 29,25l0 -30 39 0 0 200 -39 0 0 -31c-6,11 -16,20 -29,26 -13,6 -27,9 -41,9 -28,0 -52,-10 -72,-29 -20,-19 -30,-45 -30,-76zm40 0c0,19 6,35 19,48 13,13 28,19 46,19 19,0 34,-6 47,-18 13,-12 19,-28 19,-49 0,-14 -3,-26 -10,-36 -7,-10 -15,-18 -25,-23 -10,-5 -20,-7 -32,-7 -18,0 -34,6 -46,18 -13,12 -19,28 -19,48zm236 101l0 -309 39 0 0 309 -39 0zm104 0l0 -309 39 0 0 309 -39 0zm109 -3c-5,-5 -8,-11 -8,-19 0,-8 3,-14 8,-19 5,-5 12,-8 20,-8 8,0 14,3 20,8 6,5 8,12 8,19 0,8 -3,14 -8,19 -6,5 -12,7 -20,7 -8,0 -14,-3 -20,-7zm111 -43c-10,-16 -15,-35 -15,-55 0,-20 5,-39 15,-55 10,-16 23,-28 39,-36 16,-8 34,-13 53,-13 15,0 30,3 43,8 13,6 25,14 34,24l-30 25c-13,-13 -28,-19 -48,-19 -19,0 -35,6 -48,18 -13,12 -20,28 -20,47 0,20 7,36 20,48 13,13 29,19 48,19 19,0 35,-7 48,-20l30 25c-10,11 -21,19 -34,24 -13,6 -28,9 -43,9 -19,0 -37,-4 -53,-13 -16,-9 -29,-21 -39,-37zm214 0c-10,-16 -14,-35 -14,-55 0,-20 5,-39 14,-55 10,-16 22,-28 38,-36 16,-8 33,-13 52,-13 19,0 37,4 52,13 16,8 28,21 38,36 10,16 14,34 14,55 0,20 -5,39 -14,55 -10,16 -22,29 -38,37 -16,9 -33,13 -52,13 -19,0 -36,-4 -52,-13 -16,-9 -29,-21 -38,-37zm25 -55c0,20 6,36 19,48 13,12 28,19 47,19 18,0 34,-6 47,-19 13,-12 19,-29 19,-48 0,-20 -6,-35 -19,-48 -13,-12 -28,-18 -47,-18 -18,0 -34,6 -47,18 -13,12 -19,28 -19,48zm223 101l0 -200 39 0 0 30c5,-10 13,-18 24,-24 11,-6 22,-9 31,-10 8,0 15,0 22,1 25,4 43,17 52,39 14,-28 37,-41 69,-41 25,0 44,8 57,23 13,16 20,37 20,66l0 116 -39 0 0 -113c0,-17 -4,-30 -12,-39 -8,-9 -19,-14 -34,-14 -16,0 -29,5 -39,16 -10,11 -14,25 -14,42l0 108 -39 0 0 -114c0,-16 -4,-29 -12,-39 -8,-9 -18,-14 -32,-14 -15,0 -29,5 -39,15 -11,10 -16,24 -16,44l0 108 -39 0z"/>
  <path class="fil4" d="M3346 2762c0,9 0,17 -1,24l-196 0c0,21 8,37 22,49 14,12 33,18 58,18 17,0 31,-2 42,-8 19,-10 27,-25 72,-24 -4,20 -17,37 -38,49 -21,13 -47,19 -76,19 -39,0 -70,-10 -92,-31 -23,-21 -34,-49 -34,-84 0,-23 5,-43 15,-60 10,-17 25,-31 44,-40 19,-9 41,-14 66,-14 23,0 44,4 62,13 18,9 32,21 42,36 10,16 15,33 15,53zm-47 -8c0,-19 -6,-34 -19,-45 -13,-11 -31,-17 -54,-17 -23,0 -41,6 -55,17 -14,11 -21,26 -22,45l150 0z"/>
  <path class="fil4" d="M2972 2889c-20,0 -38,-3 -54,-9 -16,-6 -28,-15 -37,-26 -9,-11 -13,-23 -13,-36 43,-1 37,7 64,27 10,8 26,11 44,11 14,0 26,-3 34,-9 8,-6 13,-13 13,-23 0,-8 -3,-14 -8,-19 -5,-5 -15,-9 -30,-12l-52 -11c-19,-4 -33,-12 -43,-22 -10,-10 -15,-23 -15,-38 0,-18 9,-33 27,-45 18,-12 40,-17 68,-17 30,0 54,6 71,17 17,12 26,28 26,48 -43,3 -40,-11 -60,-25 -9,-6 -22,-9 -38,-9 -14,0 -24,3 -33,8 -8,5 -13,12 -13,21 0,7 3,13 9,18 6,5 15,9 28,12l52 12c19,4 33,12 43,22 10,10 15,23 15,38 0,20 -9,37 -26,48 -18,12 -41,17 -71,17z"/>
  <path class="fil4" d="M2783 2665l-1 193c1,20 17,24 43,25l0 -188c-2,-23 -18,-30 -42,-30z"/>
  <path class="fil5" d="M2805 2626c-7,0 -13,-2 -18,-7 -5,-5 -7,-10 -7,-17 0,-7 2,-13 7,-18 5,-5 11,-7 18,-7 7,0 13,2 18,7 5,5 7,11 7,18 0,7 -2,13 -7,17 -5,5 -11,7 -18,7z"/>
  <path class="fil4" d="M2610 2888c-26,-2 -48,-5 -67,-15 -19,-10 -33,-24 -43,-41 -10,-17 -15,-37 -15,-59 0,-21 5,-41 15,-58 10,-17 25,-31 44,-41 19,-10 41,-16 67,-15 25,1 80,9 89,34 3,-21 16,-28 37,-27l0 190c-1,18 -15,25 -37,25l0 -26c-14,23 -71,33 -90,32zm7 -37c27,0 48,-7 63,-22 15,-15 23,-33 23,-55 0,-22 -8,-41 -23,-56 -15,-15 -36,-22 -63,-22 -26,0 -46,7 -61,22 -15,15 -23,33 -23,56 0,23 8,41 23,56 15,14 36,22 61,22z"/>
  <polygon class="fil6" points="2239,2713 2239,2888 2065,2888 "/>
  <polygon class="fil7" points="2049,2698 2222,2698 2049,2872 "/>
  <polygon class="fil6" points="2223,2676 2049,2676 2049,2501 "/>
  <polygon class="fil7" points="2067,2486 2239,2486 2239,2660 "/>
  <path class="fil8" d="M2400 2554c29,33 48,75 51,122l-172 0 121 -122z"/>
  <path class="fil9" d="M2384 2538l-122 123 0 -174c47,3 89,22 122,52z"/>
  <path class="fil10" d="M7668 4208c215,0 388,174 388,388 0,215 -174,388 -388,388 -215,0 -388,-174 -388,-388 0,-215 174,-388 388,-388z"/>
  <g>
   <path class="fil4" d="M8247 4673l-99 -111 27 -25 99 111 1 23 -28 1zm28 -1l-14 18 -15 -17 28 -1zm84 -111l-84 111 -29 -22 84 -111 29 22z"/>
  </g>
  <g>
   <g>
    <path class="fil7" d="M7524 4514l229 174 -25 6c-66,16 -135,-1 -183,-50 -34,-35 -53,-81 -54,-130 0,-122 116,-210 234,-181l24 6 -227 175z"/>
    <path id="1" class="fil4" d="M7749 4693l-229 -174 7 -9 229 174 -2 10 -5 -1zm7 -9l9 7 -11 3 2 -10zm-29 5l25 -6 3 11 -25 6 -3 -11zm-186 -41l8 -8 0 0 4 4 5 4 5 4 5 4 5 4 5 3 5 3 5 3 5 3 5 3 5 3 5 2 6 2 6 2 6 2 6 2 6 1 6 1 6 1 6 1 6 1 6 1 6 0 6 0 6 0 6 0 6 0 6 -1 6 -1 6 -1 6 -1 6 -1 3 11 -6 1 -6 1 -6 1 -6 1 -6 1 -6 0 -6 0 -6 0 -6 0 -6 0 -6 -1 -6 -1 -6 -1 -6 -1 -6 -1 -6 -2 -6 -2 -6 -2 -6 -2 -6 -2 -6 -3 -6 -3 -6 -3 -6 -3 -5 -3 -5 -3 -5 -4 -5 -4 -5 -4 -5 -4 -5 -4 -5 -5 0 0zm-55 -134l11 0 0 0 0 4 0 4 0 4 0 4 0 4 1 4 1 4 1 4 1 4 1 4 1 4 1 4 1 4 1 4 2 4 2 4 2 4 2 4 2 4 2 4 2 4 2 4 2 4 2 4 2 4 3 4 3 4 3 3 3 3 3 3 3 3 3 3 -8 8 -3 -3 -3 -3 -3 -4 -3 -4 -3 -4 -3 -4 -3 -4 -3 -4 -3 -4 -2 -4 -2 -4 -2 -4 -2 -4 -2 -4 -2 -4 -2 -4 -2 -4 -2 -4 -1 -4 -1 -4 -1 -4 -1 -4 -1 -5 -1 -5 -1 -5 -1 -5 -1 -5 -1 -5 0 -5 0 -5 0 -5 0 -5 0 0zm241 -186l-3 11 0 0 -11 -2 -11 -2 -11 -1 -11 0 -10 0 -10 1 -10 1 -10 2 -10 2 -10 3 -10 4 -9 4 -9 5 -9 5 -8 5 -8 6 -8 6 -7 7 -7 7 -7 8 -6 8 -6 8 -5 9 -5 9 -4 9 -4 10 -3 10 -3 10 -2 10 -2 11 -1 11 0 11 -11 0 0 -12 1 -11 2 -11 2 -11 3 -11 4 -10 4 -10 5 -10 5 -9 6 -9 6 -9 7 -8 7 -8 8 -8 8 -7 8 -7 9 -6 9 -6 9 -5 10 -5 10 -4 10 -4 10 -3 11 -3 11 -2 11 -1 11 -1 11 0 11 0 11 1 11 2 11 2 0 0zm22 17l-24 -6 3 -11 24 6 2 10 -5 1zm3 -11l11 3 -9 7 -2 -10zm-231 176l227 -175 7 9 -227 175 -7 0 0 -9zm0 9l-6 -4 6 -4 0 9z"/>
   </g>
   <g>
    <path class="fil9" d="M7813 4680l-227 -175 24 -6c118,-29 235,58 234,181 0,49 -19,95 -54,130 -48,49 -117,66 -183,50l-25 -6 229 -174z"/>
    <path id="1" class="fil11" d="M7590 4500l227 175 -7 9 -227 -175 2 -10 5 1zm-7 9l-9 -7 11 -3 -2 10zm29 -5l-24 6 -3 -11 24 -6 0 0 3 11zm238 175l-11 0 0 0 0 -11 -1 -11 -2 -11 -2 -10 -3 -10 -3 -10 -4 -10 -4 -9 -5 -9 -5 -9 -6 -8 -6 -8 -7 -8 -7 -7 -7 -7 -8 -6 -8 -6 -8 -5 -9 -5 -9 -5 -9 -4 -10 -4 -10 -3 -10 -2 -10 -2 -10 -1 -10 -1 -10 0 -11 0 -11 1 -11 2 -11 2 -3 -11 11 -2 11 -2 11 -1 11 0 11 0 11 1 11 1 11 2 11 3 10 3 10 4 10 4 10 5 9 5 9 6 9 6 8 7 8 7 8 8 7 8 7 8 6 9 6 9 5 9 5 10 4 10 4 10 3 11 2 11 2 11 1 11 0 12 0 0zm-55 134l-8 -8 0 0 3 -3 3 -3 3 -3 3 -3 3 -3 3 -4 3 -4 2 -4 2 -4 2 -4 2 -4 2 -4 2 -4 2 -4 2 -4 2 -4 2 -4 2 -4 1 -4 1 -4 1 -4 1 -4 1 -4 1 -4 1 -4 1 -4 1 -4 0 -4 0 -4 0 -4 0 -4 0 -4 11 0 0 5 0 5 0 5 0 5 -1 5 -1 5 -1 5 -1 5 -1 5 -1 5 -1 4 -1 4 -1 4 -1 4 -2 4 -2 4 -2 4 -2 4 -2 4 -2 4 -2 4 -2 4 -2 4 -3 4 -3 4 -3 4 -3 4 -3 4 -3 4 -3 4 -3 3 -3 3 0 0zm-188 52l3 -11 0 0 6 1 6 1 6 1 6 1 6 1 6 0 6 0 6 0 6 0 6 0 6 -1 6 -1 6 -1 6 -1 6 -1 6 -1 6 -2 6 -2 6 -2 6 -2 5 -2 5 -3 5 -3 5 -3 5 -3 5 -3 5 -3 5 -4 5 -4 5 -4 5 -4 4 -4 8 8 -5 5 -5 4 -5 4 -5 4 -5 4 -5 4 -5 3 -5 3 -6 3 -6 3 -6 3 -6 3 -6 2 -6 2 -6 2 -6 2 -6 2 -6 1 -6 1 -6 1 -6 1 -6 1 -6 0 -6 0 -6 0 -6 0 -6 0 -6 -1 -6 -1 -6 -1 -6 -1 -6 -1 0 0zm-22 -17l25 6 -3 11 -25 -6 -2 -10 5 -1zm-3 11l-11 -3 9 -7 2 10zm234 -175l-229 174 -7 -9 229 -174 7 0 0 9zm0 -9l6 4 -6 4 0 -9z"/>
   </g>
  </g>
  <path class="fil12" d="M1643 6267l0 -292 111 0c15,0 28,3 39,8 11,5 20,12 27,21 7,9 12,18 15,29 3,11 5,22 5,34 0,11 -1,22 -4,32 -3,10 -7,19 -13,27 -6,8 -14,15 -23,21 -10,5 -21,9 -34,10l78 111 -48 0 -76 -109 -37 0 0 109 -39 0zm39 -146l70 0c9,0 16,-2 23,-5 7,-3 12,-7 15,-12 4,-5 6,-11 8,-17 2,-6 3,-13 3,-20 0,-10 -1,-18 -4,-26 -3,-8 -8,-15 -15,-20 -7,-5 -16,-8 -27,-8l-71 0 0 109zm193 47c0,-31 10,-55 29,-74 19,-19 43,-28 72,-28 28,0 52,9 70,28 18,19 28,44 28,74 0,7 0,12 0,15l-160 0c2,16 9,29 21,39 12,10 26,15 43,15 12,0 23,-3 33,-8 10,-5 18,-13 23,-22 4,1 10,4 18,7 8,3 13,5 15,6 -8,17 -21,30 -37,39 -16,9 -34,14 -54,14 -29,0 -53,-10 -72,-29 -19,-19 -29,-44 -29,-75zm39 -15l123 0c-2,-16 -9,-29 -20,-39 -11,-9 -24,-14 -40,-14 -17,0 -31,5 -42,14 -11,9 -18,22 -21,39zm210 210l0 -294 39 0 0 31c6,-11 16,-20 29,-26 13,-6 26,-9 40,-9 28,0 51,10 70,29 19,19 29,44 29,75 0,20 -5,38 -13,54 -9,16 -21,28 -36,36 -15,8 -31,12 -49,12 -15,0 -28,-3 -41,-9 -13,-6 -22,-14 -28,-25l0 126 -39 0zm39 -194c0,20 6,36 19,47 13,11 28,17 45,17 18,0 33,-6 46,-18 12,-12 18,-27 18,-46 0,-19 -6,-35 -18,-48 -12,-12 -28,-19 -46,-19 -18,0 -33,6 -46,18 -12,12 -19,28 -19,48zm220 52c-10,-16 -14,-34 -14,-54 0,-20 5,-38 14,-54 9,-16 22,-28 38,-36 16,-8 33,-12 52,-12 19,0 36,4 52,12 16,8 28,20 38,36 9,16 14,34 14,54 0,20 -5,38 -14,54 -10,16 -22,28 -38,37 -16,8 -33,13 -51,13 -19,0 -36,-4 -52,-13 -16,-8 -28,-21 -38,-37zm24 -54c0,20 6,36 19,48 13,12 28,18 46,18 18,0 33,-6 46,-18 13,-12 19,-28 19,-48 0,-19 -6,-35 -19,-47 -12,-12 -28,-18 -46,-18 -18,0 -34,6 -46,18 -13,12 -19,27 -19,47zm219 100l0 -198 39 0 0 45c10,-33 28,-49 55,-49 7,0 13,1 20,2 7,2 11,3 14,5l-6 36c-9,-5 -19,-7 -29,-7 -12,0 -23,4 -31,13 -8,8 -14,19 -18,33 -4,14 -5,29 -5,48l0 72 -39 0zm146 -165l0 -33 36 0 0 -74 39 0 0 74 41 0 0 33 -41 0 0 165 -39 0 0 -165 -36 0zm145 106l36 0c1,4 2,9 5,13 3,4 6,7 11,10 9,5 19,8 31,7 9,-1 16,-3 22,-8 5,-5 8,-11 8,-18 0,-7 -2,-12 -7,-16 -5,-4 -11,-7 -19,-9l-27 -6c-19,-5 -33,-13 -42,-23 -9,-10 -13,-24 -11,-41 1,-14 9,-26 22,-36 13,-10 29,-14 47,-14 9,0 17,1 24,3 7,2 14,5 21,10 6,4 11,10 15,17 4,7 6,16 7,25l-36 0c-1,-7 -4,-12 -10,-16 -6,-4 -13,-6 -21,-6 -7,0 -14,2 -19,5 -6,3 -9,8 -10,13 -2,6 -1,12 0,16 3,7 11,12 23,15l29 7c34,8 52,28 52,58 0,18 -7,32 -23,43 -15,11 -33,16 -55,16 -12,0 -24,-2 -35,-7 -11,-5 -20,-12 -27,-22 -7,-10 -11,-21 -12,-34zm311 14c-10,-16 -14,-34 -14,-54 0,-20 5,-38 14,-54 9,-16 22,-28 38,-36 16,-8 33,-12 52,-12 19,0 36,4 52,12 16,8 28,20 38,36 9,16 14,34 14,54 0,20 -5,38 -14,54 -10,16 -22,28 -38,37 -16,8 -33,13 -51,13 -19,0 -36,-4 -52,-13 -16,-8 -28,-21 -38,-37zm24 -54c0,20 6,36 19,48 13,12 28,18 46,18 18,0 33,-6 46,-18 13,-12 19,-28 19,-48 0,-19 -6,-35 -19,-47 -12,-12 -28,-18 -46,-18 -18,0 -34,6 -46,18 -13,12 -19,27 -19,47zm190 -98l40 0 60 148 60 -148 41 0 -119 198 -82 -198zm223 98c0,-31 10,-55 29,-74 19,-19 43,-28 72,-28 28,0 52,9 70,28 18,19 28,44 28,74 0,7 0,12 0,15l-160 0c2,16 9,29 21,39 12,10 26,15 43,15 12,0 23,-3 33,-8 10,-5 18,-13 23,-22 4,1 10,4 18,7 8,3 13,5 15,6 -8,17 -21,30 -37,39 -16,9 -34,14 -54,14 -29,0 -53,-10 -72,-29 -19,-19 -29,-44 -29,-75zm39 -15l123 0c-2,-16 -9,-29 -20,-39 -11,-9 -24,-14 -40,-14 -17,0 -31,5 -42,14 -11,9 -18,22 -21,39zm210 114l0 -198 39 0 0 45c10,-33 28,-49 55,-49 7,0 13,1 20,2 7,2 11,3 14,5l-6 36c-9,-5 -19,-7 -29,-7 -12,0 -23,4 -31,13 -8,8 -14,19 -18,33 -4,14 -5,29 -5,48l0 72 -39 0zm142 -198l40 0 60 148 60 -148 41 0 -119 198 -82 -198zm241 -55c-5,-5 -8,-11 -8,-18 0,-7 3,-13 8,-18 5,-5 11,-7 19,-7 7,0 14,2 19,7 5,5 8,11 8,18 0,7 -3,13 -8,18 -5,5 -12,7 -19,7 -7,0 -13,-2 -19,-7zm-1 253l0 -198 39 0 0 198 -39 0zm90 -99c0,-31 10,-55 29,-74 19,-19 43,-28 72,-28 28,0 52,9 70,28 18,19 28,44 28,74 0,7 0,12 0,15l-160 0c2,16 9,29 21,39 12,10 26,15 43,15 12,0 23,-3 33,-8 10,-5 18,-13 23,-22 4,1 10,4 18,7 8,3 13,5 15,6 -8,17 -21,30 -37,39 -16,9 -34,14 -54,14 -29,0 -53,-10 -72,-29 -19,-19 -29,-44 -29,-75zm39 -15l123 0c-2,-16 -9,-29 -20,-39 -11,-9 -24,-14 -40,-14 -17,0 -31,5 -42,14 -11,9 -18,22 -21,39zm183 -83l41 0 49 138 50 -138 37 0 50 138 49 -138 41 0 -73 198 -32 0 -54 -145 -52 145 -31 0 -75 -198z"/>
  <path class="fil12" d="M1652 12053l0 -339 129 0c17,0 32,3 45,9 13,6 24,14 31,24 8,10 13,21 17,34 4,12 6,25 6,39 0,13 -2,25 -5,37 -3,11 -8,22 -15,32 -7,10 -16,18 -27,24 -11,6 -25,10 -40,11l91 129 -55 0 -88 -127 -43 0 0 127 -46 0zm46 -170l81 0c10,0 19,-2 26,-5 8,-4 14,-8 18,-14 4,-6 7,-13 10,-20 2,-7 3,-15 3,-23 0,-11 -2,-21 -5,-30 -3,-9 -9,-17 -18,-23 -9,-6 -19,-10 -32,-10l-83 0 0 126zm237 170l153 -277 -147 0 0 -44 222 0 -176 321 -52 0zm260 -68l38 -21c6,16 15,28 28,37 12,9 26,14 41,14 26,0 45,-6 58,-18 13,-12 19,-28 19,-47 0,-20 -6,-35 -19,-46 -13,-11 -29,-16 -47,-16 -14,0 -27,2 -38,6 -11,4 -25,11 -42,21l-28 -23 28 -160 172 0 0 43 -136 0 -18 91c7,-5 17,-10 29,-13 12,-4 23,-5 33,-5 20,0 39,4 55,11 16,8 30,19 40,35 10,16 15,35 15,56 0,33 -11,59 -34,79 -23,20 -52,29 -88,29 -22,0 -43,-7 -63,-20 -20,-13 -34,-31 -44,-53zm262 120c23,-32 34,-68 33,-108l46 0c-2,28 -8,53 -17,73 -9,21 -19,36 -31,45l-31 -10zm138 -115l39 -21c5,11 13,21 24,30 11,9 23,13 35,14 18,1 34,-4 48,-14 14,-10 21,-23 22,-39 0,-15 -5,-29 -17,-40 -12,-12 -26,-17 -43,-17l-36 0 0 -43 36 0c11,0 21,-3 29,-10 8,-7 13,-16 15,-26 2,-14 0,-25 -6,-33 -4,-5 -9,-9 -15,-13 -7,-3 -14,-5 -22,-6 -23,-2 -42,8 -56,29l-33 -26c9,-15 22,-28 38,-36 17,-9 35,-12 55,-11 26,1 47,11 63,28 16,18 23,38 22,61 0,6 -1,12 -3,20 -6,19 -16,34 -32,44 16,6 28,17 38,35 10,17 14,35 12,52 -2,18 -8,34 -19,48 -11,14 -25,25 -43,33 -17,7 -36,10 -55,9 -21,-1 -40,-8 -57,-20 -17,-12 -30,-28 -38,-46zm275 -97c0,-16 1,-31 2,-44 1,-13 4,-26 7,-39 3,-13 8,-24 14,-34 6,-10 13,-18 21,-25 8,-7 19,-13 31,-17 12,-4 26,-6 41,-6 18,0 34,3 48,9 14,6 25,13 34,23 9,10 16,22 21,36 5,14 9,29 11,45 2,15 3,33 3,52 0,19 -1,37 -3,52 -2,15 -6,30 -11,45 -5,14 -12,26 -21,36 -9,10 -20,17 -34,23 -14,6 -30,9 -48,9 -18,0 -34,-3 -48,-9 -14,-6 -25,-13 -34,-23 -9,-10 -16,-22 -21,-36 -5,-14 -9,-29 -11,-45 -2,-16 -3,-33 -3,-52zm45 0c0,14 1,27 2,38 1,11 4,22 7,33 3,10 8,19 13,26 5,7 12,13 21,17 9,4 18,6 30,6 11,0 21,-2 30,-6 8,-4 15,-10 21,-17 5,-7 10,-16 13,-26 3,-10 5,-21 7,-33 1,-11 2,-24 2,-38 0,-14 -1,-27 -2,-38 -1,-11 -4,-22 -7,-33 -3,-11 -8,-19 -13,-26 -5,-7 -12,-13 -21,-17 -8,-4 -18,-6 -30,-6 -11,0 -21,2 -30,6 -9,4 -15,10 -21,17 -5,7 -10,16 -13,26 -3,11 -6,22 -7,33 -1,11 -2,24 -2,38zm248 60c0,-18 4,-34 13,-49 9,-15 21,-27 36,-37 -16,-15 -24,-34 -24,-57 0,-23 8,-42 25,-58 16,-16 37,-24 61,-24 24,0 45,8 62,24 17,16 25,35 25,58 0,11 -2,21 -7,31 -5,10 -11,18 -19,25 16,9 28,22 36,37 9,15 13,31 13,49 0,29 -11,54 -32,74 -21,20 -48,30 -79,30 -32,0 -58,-10 -79,-30 -21,-20 -32,-45 -32,-75zm45 0c0,17 6,32 19,43 13,12 28,18 47,18 19,0 34,-6 47,-18 13,-12 19,-26 19,-43 0,-17 -6,-32 -19,-44 -13,-12 -28,-18 -47,-18l-3 0c-18,0 -33,7 -45,19 -12,12 -18,27 -18,43zm37 -170c-8,7 -12,16 -12,27 0,11 4,20 11,27 7,8 17,12 28,12l4 0c11,0 21,-5 29,-12 8,-8 11,-17 11,-27 0,-11 -4,-20 -12,-27 -8,-7 -18,-11 -30,-11 -12,0 -21,4 -29,11zm210 266c-6,-6 -9,-13 -9,-22 0,-9 3,-16 9,-22 6,-6 14,-9 23,-9 9,0 17,3 23,9 6,6 10,13 10,22 0,9 -3,16 -9,22 -6,6 -14,9 -23,9 -9,0 -16,-3 -23,-9zm120 -156c0,-16 1,-31 2,-44 1,-13 4,-26 7,-39 3,-13 8,-24 14,-34 6,-10 13,-18 21,-25 8,-7 19,-13 31,-17 12,-4 26,-6 41,-6 18,0 34,3 48,9 14,6 25,13 34,23 9,10 16,22 21,36 5,14 9,29 11,45 2,15 3,33 3,52 0,19 -1,37 -3,52 -2,15 -6,30 -11,45 -5,14 -12,26 -21,36 -9,10 -20,17 -34,23 -14,6 -30,9 -48,9 -18,0 -34,-3 -48,-9 -14,-6 -25,-13 -34,-23 -9,-10 -16,-22 -21,-36 -5,-14 -9,-29 -11,-45 -2,-16 -3,-33 -3,-52zm45 0c0,14 1,27 2,38 1,11 4,22 7,33 3,10 8,19 13,26 5,7 12,13 21,17 9,4 18,6 30,6 11,0 21,-2 30,-6 8,-4 15,-10 21,-17 5,-7 10,-16 13,-26 3,-10 5,-21 7,-33 1,-11 2,-24 2,-38 0,-14 -1,-27 -2,-38 -1,-11 -4,-22 -7,-33 -3,-11 -8,-19 -13,-26 -5,-7 -12,-13 -21,-17 -8,-4 -18,-6 -30,-6 -11,0 -21,2 -30,6 -9,4 -15,10 -21,17 -5,7 -10,16 -13,26 -3,11 -6,22 -7,33 -1,11 -2,24 -2,38zm253 0c0,-16 1,-31 2,-44 1,-13 4,-26 7,-39 3,-13 8,-24 14,-34 6,-10 13,-18 21,-25 8,-7 19,-13 31,-17 12,-4 26,-6 41,-6 18,0 34,3 48,9 14,6 25,13 34,23 9,10 16,22 21,36 5,14 9,29 11,45 2,15 3,33 3,52 0,19 -1,37 -3,52 -2,15 -6,30 -11,45 -5,14 -12,26 -21,36 -9,10 -20,17 -34,23 -14,6 -30,9 -48,9 -18,0 -34,-3 -48,-9 -14,-6 -25,-13 -34,-23 -9,-10 -16,-22 -21,-36 -5,-14 -9,-29 -11,-45 -2,-16 -3,-33 -3,-52zm45 0c0,14 1,27 2,38 1,11 4,22 7,33 3,10 8,19 13,26 5,7 12,13 21,17 9,4 18,6 30,6 11,0 21,-2 30,-6 8,-4 15,-10 21,-17 5,-7 10,-16 13,-26 3,-10 5,-21 7,-33 1,-11 2,-24 2,-38 0,-14 -1,-27 -2,-38 -1,-11 -4,-22 -7,-33 -3,-11 -8,-19 -13,-26 -5,-7 -12,-13 -21,-17 -8,-4 -18,-6 -30,-6 -11,0 -21,2 -30,6 -9,4 -15,10 -21,17 -5,7 -10,16 -13,26 -3,11 -6,22 -7,33 -1,11 -2,24 -2,38z"/>
  <path id="1" class="fil13 str0" d="M1652 12053l0 -339 129 0c17,0 32,3 45,9 13,6 24,14 31,24 8,10 13,21 17,34 4,12 6,25 6,39 0,13 -2,25 -5,37 -3,11 -8,22 -15,32 -7,10 -16,18 -27,24 -11,6 -25,10 -40,11l91 129 -55 0 -88 -127 -43 0 0 127 -46 0zm46 -170l81 0c10,0 19,-2 26,-5 8,-4 14,-8 18,-14 4,-6 7,-13 10,-20 2,-7 3,-15 3,-23 0,-11 -2,-21 -5,-30 -3,-9 -9,-17 -18,-23 -9,-6 -19,-10 -32,-10l-83 0 0 126zm237 170l153 -277 -147 0 0 -44 222 0 -176 321 -52 0zm260 -68l38 -21c6,16 15,28 28,37 12,9 26,14 41,14 26,0 45,-6 58,-18 13,-12 19,-28 19,-47 0,-20 -6,-35 -19,-46 -13,-11 -29,-16 -47,-16 -14,0 -27,2 -38,6 -11,4 -25,11 -42,21l-28 -23 28 -160 172 0 0 43 -136 0 -18 91c7,-5 17,-10 29,-13 12,-4 23,-5 33,-5 20,0 39,4 55,11 16,8 30,19 40,35 10,16 15,35 15,56 0,33 -11,59 -34,79 -23,20 -52,29 -88,29 -22,0 -43,-7 -63,-20 -20,-13 -34,-31 -44,-53zm262 120c23,-32 34,-68 33,-108l46 0c-2,28 -8,53 -17,73 -9,21 -19,36 -31,45l-31 -10zm138 -115l39 -21c5,11 13,21 24,30 11,9 23,13 35,14 18,1 34,-4 48,-14 14,-10 21,-23 22,-39 0,-15 -5,-29 -17,-40 -12,-12 -26,-17 -43,-17l-36 0 0 -43 36 0c11,0 21,-3 29,-10 8,-7 13,-16 15,-26 2,-14 0,-25 -6,-33 -4,-5 -9,-9 -15,-13 -7,-3 -14,-5 -22,-6 -23,-2 -42,8 -56,29l-33 -26c9,-15 22,-28 38,-36 17,-9 35,-12 55,-11 26,1 47,11 63,28 16,18 23,38 22,61 0,6 -1,12 -3,20 -6,19 -16,34 -32,44 16,6 28,17 38,35 10,17 14,35 12,52 -2,18 -8,34 -19,48 -11,14 -25,25 -43,33 -17,7 -36,10 -55,9 -21,-1 -40,-8 -57,-20 -17,-12 -30,-28 -38,-46zm275 -97c0,-16 1,-31 2,-44 1,-13 4,-26 7,-39 3,-13 8,-24 14,-34 6,-10 13,-18 21,-25 8,-7 19,-13 31,-17 12,-4 26,-6 41,-6 18,0 34,3 48,9 14,6 25,13 34,23 9,10 16,22 21,36 5,14 9,29 11,45 2,15 3,33 3,52 0,19 -1,37 -3,52 -2,15 -6,30 -11,45 -5,14 -12,26 -21,36 -9,10 -20,17 -34,23 -14,6 -30,9 -48,9 -18,0 -34,-3 -48,-9 -14,-6 -25,-13 -34,-23 -9,-10 -16,-22 -21,-36 -5,-14 -9,-29 -11,-45 -2,-16 -3,-33 -3,-52zm45 0c0,14 1,27 2,38 1,11 4,22 7,33 3,10 8,19 13,26 5,7 12,13 21,17 9,4 18,6 30,6 11,0 21,-2 30,-6 8,-4 15,-10 21,-17 5,-7 10,-16 13,-26 3,-10 5,-21 7,-33 1,-11 2,-24 2,-38 0,-14 -1,-27 -2,-38 -1,-11 -4,-22 -7,-33 -3,-11 -8,-19 -13,-26 -5,-7 -12,-13 -21,-17 -8,-4 -18,-6 -30,-6 -11,0 -21,2 -30,6 -9,4 -15,10 -21,17 -5,7 -10,16 -13,26 -3,11 -6,22 -7,33 -1,11 -2,24 -2,38zm248 60c0,-18 4,-34 13,-49 9,-15 21,-27 36,-37 -16,-15 -24,-34 -24,-57 0,-23 8,-42 25,-58 16,-16 37,-24 61,-24 24,0 45,8 62,24 17,16 25,35 25,58 0,11 -2,21 -7,31 -5,10 -11,18 -19,25 16,9 28,22 36,37 9,15 13,31 13,49 0,29 -11,54 -32,74 -21,20 -48,30 -79,30 -32,0 -58,-10 -79,-30 -21,-20 -32,-45 -32,-75zm45 0c0,17 6,32 19,43 13,12 28,18 47,18 19,0 34,-6 47,-18 13,-12 19,-26 19,-43 0,-17 -6,-32 -19,-44 -13,-12 -28,-18 -47,-18l-3 0c-18,0 -33,7 -45,19 -12,12 -18,27 -18,43zm37 -170c-8,7 -12,16 -12,27 0,11 4,20 11,27 7,8 17,12 28,12l4 0c11,0 21,-5 29,-12 8,-8 11,-17 11,-27 0,-11 -4,-20 -12,-27 -8,-7 -18,-11 -30,-11 -12,0 -21,4 -29,11zm210 266c-6,-6 -9,-13 -9,-22 0,-9 3,-16 9,-22 6,-6 14,-9 23,-9 9,0 17,3 23,9 6,6 10,13 10,22 0,9 -3,16 -9,22 -6,6 -14,9 -23,9 -9,0 -16,-3 -23,-9zm120 -156c0,-16 1,-31 2,-44 1,-13 4,-26 7,-39 3,-13 8,-24 14,-34 6,-10 13,-18 21,-25 8,-7 19,-13 31,-17 12,-4 26,-6 41,-6 18,0 34,3 48,9 14,6 25,13 34,23 9,10 16,22 21,36 5,14 9,29 11,45 2,15 3,33 3,52 0,19 -1,37 -3,52 -2,15 -6,30 -11,45 -5,14 -12,26 -21,36 -9,10 -20,17 -34,23 -14,6 -30,9 -48,9 -18,0 -34,-3 -48,-9 -14,-6 -25,-13 -34,-23 -9,-10 -16,-22 -21,-36 -5,-14 -9,-29 -11,-45 -2,-16 -3,-33 -3,-52zm45 0c0,14 1,27 2,38 1,11 4,22 7,33 3,10 8,19 13,26 5,7 12,13 21,17 9,4 18,6 30,6 11,0 21,-2 30,-6 8,-4 15,-10 21,-17 5,-7 10,-16 13,-26 3,-10 5,-21 7,-33 1,-11 2,-24 2,-38 0,-14 -1,-27 -2,-38 -1,-11 -4,-22 -7,-33 -3,-11 -8,-19 -13,-26 -5,-7 -12,-13 -21,-17 -8,-4 -18,-6 -30,-6 -11,0 -21,2 -30,6 -9,4 -15,10 -21,17 -5,7 -10,16 -13,26 -3,11 -6,22 -7,33 -1,11 -2,24 -2,38zm253 0c0,-16 1,-31 2,-44 1,-13 4,-26 7,-39 3,-13 8,-24 14,-34 6,-10 13,-18 21,-25 8,-7 19,-13 31,-17 12,-4 26,-6 41,-6 18,0 34,3 48,9 14,6 25,13 34,23 9,10 16,22 21,36 5,14 9,29 11,45 2,15 3,33 3,52 0,19 -1,37 -3,52 -2,15 -6,30 -11,45 -5,14 -12,26 -21,36 -9,10 -20,17 -34,23 -14,6 -30,9 -48,9 -18,0 -34,-3 -48,-9 -14,-6 -25,-13 -34,-23 -9,-10 -16,-22 -21,-36 -5,-14 -9,-29 -11,-45 -2,-16 -3,-33 -3,-52zm45 0c0,14 1,27 2,38 1,11 4,22 7,33 3,10 8,19 13,26 5,7 12,13 21,17 9,4 18,6 30,6 11,0 21,-2 30,-6 8,-4 15,-10 21,-17 5,-7 10,-16 13,-26 3,-10 5,-21 7,-33 1,-11 2,-24 2,-38 0,-14 -1,-27 -2,-38 -1,-11 -4,-22 -7,-33 -3,-11 -8,-19 -13,-26 -5,-7 -12,-13 -21,-17 -8,-4 -18,-6 -30,-6 -11,0 -21,2 -30,6 -9,4 -15,10 -21,17 -5,7 -10,16 -13,26 -3,11 -6,22 -7,33 -1,11 -2,24 -2,38z"/>
  <path class="fil14" d="M1648 10931l0 -38 219 0 0 38 -90 0 0 256 -40 0 0 -256 -90 0zm226 211c-10,-16 -14,-34 -14,-55 0,-20 5,-39 14,-54 10,-16 22,-28 38,-36 16,-8 33,-13 52,-13 19,0 36,4 52,13 16,8 28,20 38,36 10,16 14,34 14,54 0,20 -5,39 -14,55 -10,16 -22,29 -38,37 -16,9 -33,13 -52,13 -19,0 -36,-4 -52,-13 -16,-8 -29,-21 -38,-37zm25 -55c0,20 6,36 19,48 13,12 28,19 47,19 18,0 34,-6 46,-19 13,-12 19,-28 19,-48 0,-20 -6,-35 -19,-47 -13,-12 -28,-18 -47,-18 -18,0 -34,6 -47,18 -13,12 -19,28 -19,47zm199 -66l0 -33 36 0 0 -75 39 0 0 75 42 0 0 33 -42 0 0 167 -39 0 0 -167 -36 0zm145 67c0,-21 5,-39 14,-55 9,-16 22,-28 37,-37 15,-8 32,-13 50,-13 15,0 28,3 41,9 13,6 22,14 29,25l0 -30 39 0 0 200 -39 0 0 -31c-6,11 -16,20 -29,26 -13,6 -27,9 -41,9 -28,0 -52,-10 -72,-29 -20,-19 -30,-44 -30,-75zm40 0c0,19 6,35 19,48 13,13 28,19 46,19 19,0 34,-6 47,-18 13,-12 19,-28 19,-49 0,-14 -3,-26 -10,-36 -7,-10 -15,-18 -25,-23 -10,-5 -20,-7 -31,-7 -18,0 -34,6 -46,18 -12,12 -19,28 -19,47zm235 100l0 -308 39 0 0 308 -39 0zm200 -59l36 0c1,4 2,9 5,13 3,4 6,8 11,10 9,5 19,8 31,7 9,-1 16,-3 22,-8 5,-5 8,-11 8,-18 0,-7 -2,-12 -7,-17 -5,-4 -11,-7 -19,-9l-27 -6c-19,-5 -33,-13 -42,-23 -9,-10 -13,-24 -11,-42 1,-14 9,-27 22,-36 14,-10 29,-15 47,-15 9,0 17,1 24,3 7,2 14,5 21,10 6,4 12,10 16,18 4,7 6,16 7,26l-36 0c-1,-7 -4,-13 -10,-16 -6,-4 -13,-6 -21,-6 -7,0 -14,2 -19,5 -6,3 -9,8 -11,13 -2,6 -1,12 0,16 3,7 11,12 23,15l29 7c35,8 52,28 53,58 0,18 -8,32 -23,43 -15,11 -34,16 -55,16 -12,0 -24,-2 -35,-7 -11,-5 -20,-12 -28,-22 -7,-10 -11,-21 -12,-34zm189 -41c0,-21 5,-39 14,-55 9,-16 22,-28 37,-37 15,-8 32,-13 50,-13 15,0 28,3 41,9 13,6 22,14 29,25l0 -30 39 0 0 200 -39 0 0 -31c-6,11 -16,20 -29,26 -13,6 -27,9 -41,9 -28,0 -52,-10 -72,-29 -20,-19 -30,-44 -30,-75zm40 0c0,19 6,35 19,48 13,13 28,19 46,19 19,0 34,-6 47,-18 13,-12 19,-28 19,-49 0,-14 -3,-26 -10,-36 -7,-10 -15,-18 -25,-23 -10,-5 -20,-7 -31,-7 -18,0 -34,6 -46,18 -12,12 -19,28 -19,47zm235 100l0 -308 39 0 0 308 -39 0zm90 -100c0,-31 10,-56 29,-75 20,-19 44,-29 73,-29 29,0 52,9 71,28 19,19 28,44 28,75 0,7 0,13 0,15l-162 0c2,17 9,30 21,40 12,10 26,15 43,15 12,0 23,-3 34,-8 10,-5 18,-13 24,-23 4,1 10,4 18,7 8,3 13,5 15,6 -8,17 -21,30 -37,39 -17,9 -35,14 -55,14 -29,0 -53,-10 -73,-29 -20,-19 -29,-45 -29,-76zm39 -15l124 0c-2,-17 -9,-30 -20,-39 -11,-10 -24,-14 -41,-14 -17,0 -31,5 -42,14 -12,9 -19,23 -21,39zm197 56l36 0c1,4 2,9 5,13 3,4 6,8 11,10 9,5 19,8 31,7 9,-1 16,-3 22,-8 5,-5 8,-11 8,-18 0,-7 -2,-12 -7,-17 -5,-4 -11,-7 -19,-9l-27 -6c-19,-5 -33,-13 -42,-23 -9,-10 -13,-24 -11,-42 1,-14 9,-27 22,-36 14,-10 29,-15 47,-15 9,0 17,1 24,3 7,2 14,5 21,10 6,4 12,10 16,18 4,7 6,16 7,26l-36 0c-1,-7 -4,-13 -10,-16 -6,-4 -13,-6 -21,-6 -7,0 -14,2 -19,5 -6,3 -9,8 -11,13 -2,6 -1,12 0,16 3,7 11,12 23,15l29 7c35,8 52,28 53,58 0,18 -8,32 -23,43 -15,11 -34,16 -55,16 -12,0 -24,-2 -35,-7 -11,-5 -20,-12 -28,-22 -7,-10 -11,-21 -12,-34z"/>
  <polygon class="fil15" points="1647,10317 8837,10317 8837,10381 1647,10381 "/>
  <g>
   <path class="fil16" d="M4322 6791l1740 0c142,0 257,116 257,257l0 310c0,142 -116,257 -257,257l-1740 0c-142,0 -257,-116 -257,-257l0 -310c0,-142 116,-257 257,-257z"/>
   <path id="1" class="fil17" d="M6063 6812l-1740 0 0 -42 1740 0 0 0 0 42zm279 237l-42 0 0 0 0 -12 -1 -12 -2 -12 -2 -12 -3 -11 -3 -11 -4 -11 -4 -11 -5 -10 -5 -10 -6 -10 -6 -10 -7 -9 -7 -9 -7 -9 -8 -8 -8 -8 -9 -7 -9 -7 -9 -7 -10 -6 -10 -6 -10 -5 -10 -5 -11 -4 -11 -4 -11 -3 -11 -3 -12 -2 -12 -2 -12 -1 -12 0 0 -42 14 0 14 1 14 2 14 2 13 3 13 4 13 4 13 5 12 6 12 6 12 7 11 7 11 8 11 8 10 9 10 9 9 10 9 10 8 11 8 11 7 11 7 12 6 12 6 12 5 13 4 13 4 13 3 13 2 14 2 14 1 14 0 14 0 0zm-42 310l0 -310 42 0 0 310 0 0 -42 0zm-236 278l0 -42 0 0 12 0 12 -1 12 -2 12 -2 11 -3 11 -3 11 -4 11 -4 10 -5 10 -5 10 -6 10 -6 9 -7 9 -7 9 -7 8 -8 8 -8 7 -9 7 -9 7 -9 6 -10 6 -10 5 -10 5 -10 4 -11 4 -11 3 -11 3 -11 2 -12 2 -12 1 -12 0 -12 42 0 0 14 -1 14 -2 14 -2 14 -3 13 -4 13 -4 13 -5 13 -6 12 -6 12 -7 12 -7 11 -8 11 -8 11 -9 10 -9 10 -10 9 -10 9 -11 8 -11 8 -11 7 -12 7 -12 6 -12 6 -13 5 -13 4 -13 4 -13 3 -14 2 -14 2 -14 1 -14 0 0 0zm-1740 -42l1740 0 0 42 -1740 0 0 0 0 -42zm-279 -237l42 0 0 0 0 12 1 12 2 12 2 12 3 11 3 11 4 11 4 11 5 10 5 10 6 10 6 10 7 9 7 9 7 9 8 8 8 8 9 7 9 7 9 7 10 6 10 6 10 5 10 5 11 4 11 4 11 3 11 3 12 2 12 2 12 1 12 0 0 42 -14 0 -14 -1 -14 -2 -14 -2 -13 -3 -13 -4 -13 -4 -13 -5 -12 -6 -12 -6 -12 -7 -11 -7 -11 -8 -11 -8 -10 -9 -10 -9 -9 -10 -9 -10 -8 -11 -8 -11 -7 -11 -7 -12 -6 -12 -6 -12 -5 -13 -4 -13 -4 -13 -3 -13 -2 -14 -2 -14 -1 -14 0 -14 0 0zm42 -310l0 310 -42 0 0 -310 0 0 42 0zm236 -278l0 42 0 0 -12 0 -12 1 -12 2 -12 2 -11 3 -11 3 -11 4 -11 4 -10 5 -10 5 -10 6 -10 6 -9 7 -9 7 -9 7 -8 8 -8 8 -7 9 -7 9 -7 9 -6 10 -6 10 -5 10 -5 10 -4 11 -4 11 -3 11 -3 11 -2 12 -2 12 -1 12 0 12 -42 0 0 -14 1 -14 2 -14 2 -14 3 -13 4 -13 4 -13 5 -13 6 -12 6 -12 7 -12 7 -11 8 -11 8 -11 9 -10 9 -10 10 -9 10 -9 11 -8 11 -8 11 -7 12 -7 12 -6 12 -6 13 -5 13 -4 13 -4 13 -3 14 -2 14 -2 14 -1 14 0 0 0z"/>
  </g>
  <path class="fil18" d="M1857 6791l1770 0c133,0 243,109 243,243l0 339c0,134 -109,243 -243,243l-1770 0c-133,0 -243,-109 -243,-243l0 -339c0,-134 109,-243 243,-243z"/>
  <path class="fil3" d="M1955 7126l0 -28 164 0 0 28 -67 0 0 192 -30 0 0 -192 -67 0zm197 192l0 -231 29 0 0 104c4,-8 11,-15 21,-19 10,-4 19,-7 29,-7 19,0 34,6 44,17 11,12 16,28 16,49l0 86 -29 0 0 -84c0,-12 -3,-22 -10,-29 -7,-7 -15,-11 -25,-11 -5,0 -11,1 -16,2 -5,2 -10,4 -15,7 -5,3 -8,8 -11,14 -3,6 -4,13 -4,20l0 81 -29 0zm186 -191c-4,-4 -6,-8 -6,-13 0,-5 2,-10 6,-13 4,-4 9,-5 14,-5 6,0 10,2 14,5 4,4 6,8 6,13 0,5 -2,10 -6,13 -4,4 -9,5 -14,5 -5,0 -10,-2 -14,-5zm0 191l0 -149 29 0 0 149 -29 0zm67 -44l27 0c1,3 2,7 4,10 2,3 5,6 8,7 7,4 14,6 23,5 7,-1 12,-3 16,-6 4,-4 6,-8 6,-14 0,-5 -2,-9 -5,-12 -4,-3 -8,-5 -15,-7l-20 -5c-14,-4 -25,-10 -32,-17 -7,-8 -10,-18 -8,-31 1,-11 7,-20 17,-27 10,-7 22,-11 35,-11 6,0 12,1 18,2 6,2 11,4 16,7 5,3 9,8 12,13 3,5 5,12 5,19l-27 0c-1,-5 -3,-9 -8,-12 -4,-3 -9,-4 -16,-4 -5,0 -10,1 -15,4 -4,3 -7,6 -8,10 -1,5 -1,9 0,12 2,5 8,9 17,12l22 5c26,6 39,21 40,44 0,13 -6,24 -17,32 -11,8 -25,12 -41,12 -9,0 -18,-2 -26,-5 -8,-4 -15,-9 -21,-17 -6,-7 -9,-16 -9,-26zm235 44l0 -149 29 0 0 22c4,-8 10,-13 18,-18 8,-4 16,-7 23,-7 6,0 11,0 16,1 19,3 32,13 39,29 11,-21 28,-31 52,-31 19,0 33,6 43,17 10,12 15,28 15,49l0 86 -29 0 0 -84c0,-12 -3,-22 -9,-29 -6,-7 -14,-11 -25,-11 -12,0 -22,4 -29,12 -7,8 -11,19 -11,31l0 81 -29 0 0 -85c0,-12 -3,-22 -9,-29 -6,-7 -14,-11 -24,-11 -12,0 -21,4 -29,11 -8,7 -12,18 -12,33l0 81 -29 0zm283 -34c-7,-12 -11,-26 -11,-41 0,-15 4,-29 11,-41 7,-12 17,-21 28,-27 12,-6 25,-9 39,-9 14,0 27,3 39,9 12,6 21,15 28,27 7,12 11,26 11,41 0,15 -4,29 -11,41 -7,12 -17,21 -29,28 -12,6 -25,10 -39,10 -14,0 -27,-3 -39,-10 -12,-6 -21,-16 -29,-28zm18 -41c0,15 5,27 14,36 9,9 21,14 35,14 14,0 25,-5 35,-14 9,-9 14,-21 14,-36 0,-15 -5,-26 -14,-35 -9,-9 -21,-13 -35,-13 -14,0 -25,4 -35,13 -9,9 -14,21 -14,35zm166 75l0 -149 29 0 0 22c4,-8 11,-15 20,-19 9,-4 18,-7 27,-7 19,0 33,6 43,17 10,12 15,28 15,49l0 86 -29 0 0 -84c0,-12 -3,-22 -9,-29 -6,-7 -14,-10 -24,-10 -5,0 -11,1 -16,2 -5,2 -9,4 -13,7 -4,3 -7,8 -10,14 -2,6 -4,12 -4,20l0 81 -29 0zm164 -125l0 -25 27 0 0 -56 29 0 0 56 31 0 0 25 -31 0 0 125 -29 0 0 -125 -27 0zm121 125l0 -231 29 0 0 104c4,-8 11,-15 21,-19 10,-4 19,-7 29,-7 19,0 34,6 44,17 11,12 16,28 16,49l0 86 -29 0 0 -84c0,-12 -3,-22 -10,-29 -7,-7 -15,-11 -25,-11 -5,0 -11,1 -16,2 -5,2 -10,4 -15,7 -5,3 -8,8 -11,14 -3,6 -4,13 -4,20l0 81 -29 0z"/>
  <path id="1" class="fil19 str1" d="M1955 7126l0 -28 164 0 0 28 -67 0 0 192 -30 0 0 -192 -67 0zm197 192l0 -231 29 0 0 104c4,-8 11,-15 21,-19 10,-4 19,-7 29,-7 19,0 34,6 44,17 11,12 16,28 16,49l0 86 -29 0 0 -84c0,-12 -3,-22 -10,-29 -7,-7 -15,-11 -25,-11 -5,0 -11,1 -16,2 -5,2 -10,4 -15,7 -5,3 -8,8 -11,14 -3,6 -4,13 -4,20l0 81 -29 0zm186 -191c-4,-4 -6,-8 -6,-13 0,-5 2,-10 6,-13 4,-4 9,-5 14,-5 6,0 10,2 14,5 4,4 6,8 6,13 0,5 -2,10 -6,13 -4,4 -9,5 -14,5 -5,0 -10,-2 -14,-5zm0 191l0 -149 29 0 0 149 -29 0zm67 -44l27 0c1,3 2,7 4,10 2,3 5,6 8,7 7,4 14,6 23,5 7,-1 12,-3 16,-6 4,-4 6,-8 6,-14 0,-5 -2,-9 -5,-12 -4,-3 -8,-5 -15,-7l-20 -5c-14,-4 -25,-10 -32,-17 -7,-8 -10,-18 -8,-31 1,-11 7,-20 17,-27 10,-7 22,-11 35,-11 6,0 12,1 18,2 6,2 11,4 16,7 5,3 9,8 12,13 3,5 5,12 5,19l-27 0c-1,-5 -3,-9 -8,-12 -4,-3 -9,-4 -16,-4 -5,0 -10,1 -15,4 -4,3 -7,6 -8,10 -1,5 -1,9 0,12 2,5 8,9 17,12l22 5c26,6 39,21 40,44 0,13 -6,24 -17,32 -11,8 -25,12 -41,12 -9,0 -18,-2 -26,-5 -8,-4 -15,-9 -21,-17 -6,-7 -9,-16 -9,-26zm235 44l0 -149 29 0 0 22c4,-8 10,-13 18,-18 8,-4 16,-7 23,-7 6,0 11,0 16,1 19,3 32,13 39,29 11,-21 28,-31 52,-31 19,0 33,6 43,17 10,12 15,28 15,49l0 86 -29 0 0 -84c0,-12 -3,-22 -9,-29 -6,-7 -14,-11 -25,-11 -12,0 -22,4 -29,12 -7,8 -11,19 -11,31l0 81 -29 0 0 -85c0,-12 -3,-22 -9,-29 -6,-7 -14,-11 -24,-11 -12,0 -21,4 -29,11 -8,7 -12,18 -12,33l0 81 -29 0zm283 -34c-7,-12 -11,-26 -11,-41 0,-15 4,-29 11,-41 7,-12 17,-21 28,-27 12,-6 25,-9 39,-9 14,0 27,3 39,9 12,6 21,15 28,27 7,12 11,26 11,41 0,15 -4,29 -11,41 -7,12 -17,21 -29,28 -12,6 -25,10 -39,10 -14,0 -27,-3 -39,-10 -12,-6 -21,-16 -29,-28zm18 -41c0,15 5,27 14,36 9,9 21,14 35,14 14,0 25,-5 35,-14 9,-9 14,-21 14,-36 0,-15 -5,-26 -14,-35 -9,-9 -21,-13 -35,-13 -14,0 -25,4 -35,13 -9,9 -14,21 -14,35zm166 75l0 -149 29 0 0 22c4,-8 11,-15 20,-19 9,-4 18,-7 27,-7 19,0 33,6 43,17 10,12 15,28 15,49l0 86 -29 0 0 -84c0,-12 -3,-22 -9,-29 -6,-7 -14,-10 -24,-10 -5,0 -11,1 -16,2 -5,2 -9,4 -13,7 -4,3 -7,8 -10,14 -2,6 -4,12 -4,20l0 81 -29 0zm164 -125l0 -25 27 0 0 -56 29 0 0 56 31 0 0 25 -31 0 0 125 -29 0 0 -125 -27 0zm121 125l0 -231 29 0 0 104c4,-8 11,-15 21,-19 10,-4 19,-7 29,-7 19,0 34,6 44,17 11,12 16,28 16,49l0 86 -29 0 0 -84c0,-12 -3,-22 -10,-29 -7,-7 -15,-11 -25,-11 -5,0 -11,1 -16,2 -5,2 -10,4 -15,7 -5,3 -8,8 -11,14 -3,6 -4,13 -4,20l0 81 -29 0z"/>
  <path class="fil3" d="M4479 7126l0 -28 164 0 0 28 -67 0 0 192 -30 0 0 -192 -67 0zm197 192l0 -231 29 0 0 104c4,-8 11,-15 21,-19 10,-4 19,-7 29,-7 19,0 34,6 44,17 11,12 16,28 16,49l0 86 -29 0 0 -84c0,-12 -3,-22 -10,-29 -7,-7 -15,-11 -25,-11 -5,0 -11,1 -16,2 -5,2 -10,4 -15,7 -5,3 -8,8 -11,14 -3,6 -4,13 -4,20l0 81 -29 0zm186 -191c-4,-4 -6,-8 -6,-13 0,-5 2,-10 6,-13 4,-4 9,-5 14,-5 6,0 10,2 14,5 4,4 6,8 6,13 0,5 -2,10 -6,13 -4,4 -9,5 -14,5 -5,0 -10,-2 -14,-5zm0 191l0 -149 29 0 0 149 -29 0zm67 -44l27 0c1,3 2,7 4,10 2,3 5,6 8,7 7,4 14,6 23,5 7,-1 12,-3 16,-6 4,-4 6,-8 6,-14 0,-5 -2,-9 -5,-12 -4,-3 -8,-5 -15,-7l-20 -5c-14,-4 -25,-10 -32,-17 -7,-8 -10,-18 -8,-31 1,-11 7,-20 17,-27 10,-7 22,-11 35,-11 6,0 12,1 18,2 6,2 11,4 16,7 5,3 9,8 12,13 3,5 5,12 5,19l-27 0c-1,-5 -3,-9 -8,-12 -4,-3 -9,-4 -16,-4 -5,0 -10,1 -15,4 -4,3 -7,6 -8,10 -1,5 -1,9 0,12 2,5 8,9 17,12l22 5c26,6 39,21 40,44 0,13 -6,24 -17,32 -11,8 -25,12 -41,12 -9,0 -18,-2 -26,-5 -8,-4 -15,-9 -21,-17 -6,-7 -9,-16 -9,-26zm209 -105l31 0 37 105 38 -105 28 0 37 105 37 -105 31 0 -55 149 -24 0 -41 -110 -39 110 -24 0 -57 -149zm258 74c0,-23 7,-42 22,-56 15,-14 33,-21 55,-21 22,0 39,7 53,21 14,14 21,33 21,56 0,6 0,9 0,11l-121 0c2,12 7,22 16,30 9,7 20,11 32,11 9,0 17,-2 25,-6 8,-4 14,-10 18,-17 3,1 7,3 13,5 6,2 10,4 12,4 -6,13 -16,23 -28,29 -12,7 -26,10 -41,10 -22,0 -40,-7 -55,-22 -15,-15 -22,-33 -22,-57zm29 -11l93 0c-2,-12 -7,-22 -15,-29 -8,-7 -18,-11 -30,-11 -13,0 -23,4 -32,11 -9,7 -14,17 -16,29zm149 11c0,-23 7,-42 22,-56 15,-14 33,-21 55,-21 22,0 39,7 53,21 14,14 21,33 21,56 0,6 0,9 0,11l-121 0c2,12 7,22 16,30 9,7 20,11 32,11 9,0 17,-2 25,-6 8,-4 14,-10 18,-17 3,1 7,3 13,5 6,2 10,4 12,4 -6,13 -16,23 -28,29 -12,7 -26,10 -41,10 -22,0 -40,-7 -55,-22 -15,-15 -22,-33 -22,-57zm29 -11l93 0c-2,-12 -7,-22 -15,-29 -8,-7 -18,-11 -30,-11 -13,0 -23,4 -32,11 -9,7 -14,17 -16,29zm159 86l0 -231 29 0 0 133 52 -52 40 0 -64 65 79 85 -38 0 -68 -73 0 73 -29 0z"/>
  <g>
   <path class="fil16" d="M4318 8920l1749 0c139,0 253,114 253,253l0 319c0,139 -114,253 -253,253l-1749 0c-139,0 -253,-114 -253,-253l0 -319c0,-139 114,-253 253,-253z"/>
   <path id="1" class="fil17" d="M6067 8941l-1749 0 0 -42 1749 0 0 0 0 42zm274 232l-42 0 0 0 0 -12 -1 -12 -1 -12 -2 -11 -3 -11 -3 -11 -4 -11 -4 -11 -5 -10 -5 -10 -6 -10 -6 -9 -6 -9 -7 -9 -7 -8 -8 -8 -8 -8 -8 -7 -9 -7 -9 -6 -9 -6 -10 -6 -10 -5 -10 -5 -11 -4 -11 -4 -11 -3 -11 -3 -11 -2 -12 -1 -12 -1 -12 0 0 -42 14 0 14 1 14 2 13 2 13 3 13 4 13 4 12 5 12 6 12 6 11 7 11 7 11 8 10 8 10 9 10 9 9 10 9 10 8 10 8 11 7 11 7 11 6 12 5 12 5 12 4 13 4 13 3 13 2 13 2 14 1 14 0 14 0 0zm-42 319l0 -319 42 0 0 319 0 0 -42 0zm-232 274l0 -42 0 0 12 0 12 -1 12 -1 11 -2 11 -3 11 -3 11 -4 11 -4 10 -5 10 -5 10 -6 9 -6 9 -6 9 -7 8 -7 8 -8 8 -8 7 -8 7 -9 6 -9 6 -9 6 -10 5 -10 5 -10 4 -11 4 -11 3 -11 3 -11 2 -11 1 -12 1 -12 0 -12 42 0 0 14 -1 14 -2 14 -2 13 -3 13 -4 13 -4 13 -5 12 -6 12 -6 12 -7 11 -7 11 -8 11 -8 10 -9 10 -9 10 -10 9 -10 9 -10 8 -11 8 -11 7 -11 7 -12 6 -12 5 -12 5 -13 4 -13 4 -13 3 -13 2 -14 2 -14 1 -14 0 0 0zm-1749 -42l1749 0 0 42 -1749 0 0 0 0 -42zm-274 -232l42 0 0 0 0 12 1 12 1 12 2 11 3 11 3 11 4 11 4 11 5 10 5 10 6 10 6 9 6 9 7 9 7 8 8 8 8 8 8 7 9 7 9 6 9 6 10 6 10 5 10 5 11 4 11 4 11 3 11 3 11 2 12 1 12 1 12 0 0 42 -14 0 -14 -1 -14 -2 -13 -2 -13 -3 -13 -4 -13 -4 -12 -5 -12 -6 -12 -6 -11 -7 -11 -7 -11 -8 -10 -8 -10 -9 -10 -9 -9 -10 -9 -10 -8 -10 -8 -11 -7 -11 -7 -11 -6 -12 -6 -12 -5 -12 -4 -13 -4 -13 -3 -13 -2 -13 -2 -14 -1 -14 0 -14 0 0zm42 -319l0 319 -42 0 0 -319 0 0 42 0zm232 -274l0 42 0 0 -12 0 -12 1 -12 1 -11 2 -11 3 -11 3 -11 4 -11 4 -10 5 -10 5 -10 6 -9 6 -9 6 -9 7 -8 7 -8 8 -8 8 -7 8 -7 9 -6 9 -6 9 -6 10 -5 10 -5 10 -4 11 -4 11 -3 11 -3 11 -2 11 -1 12 -1 12 0 12 -42 0 0 -14 1 -14 2 -14 2 -13 3 -13 4 -13 4 -13 5 -12 5 -12 6 -12 7 -11 7 -11 8 -11 8 -10 9 -10 9 -10 10 -9 10 -9 10 -8 11 -8 11 -7 11 -7 12 -6 12 -6 12 -5 13 -4 13 -4 13 -3 13 -2 14 -2 14 -1 14 0 0 0z"/>
  </g>
  <path class="fil18" d="M1838 8920l1808 0c123,0 224,101 224,224l0 378c0,123 -101,224 -224,224l-1808 0c-123,0 -224,-101 -224,-224l0 -378c0,-123 101,-224 224,-224z"/>
  <path class="fil3" d="M2156 9412l27 -221 27 0 78 162 78 -162 27 0 27 221 -29 0 -20 -166 -69 141 -26 0 -69 -141 -20 166 -29 0zm304 -34c-7,-12 -11,-26 -11,-41 0,-15 4,-29 11,-41 7,-12 17,-21 28,-27 12,-6 25,-9 39,-9 14,0 27,3 39,9 12,6 21,15 28,27 7,12 11,26 11,41 0,15 -4,29 -11,41 -7,12 -17,21 -29,28 -12,6 -25,10 -39,10 -14,0 -27,-3 -39,-10 -12,-6 -21,-16 -29,-28zm18 -41c0,15 5,27 14,36 9,9 21,14 35,14 14,0 25,-5 35,-14 9,-9 14,-21 14,-36 0,-15 -5,-26 -14,-35 -9,-9 -21,-13 -35,-13 -14,0 -25,4 -35,13 -9,9 -14,21 -14,35zm166 75l0 -149 29 0 0 22c4,-8 11,-15 20,-19 9,-4 18,-7 27,-7 19,0 33,6 43,17 10,12 15,28 15,49l0 86 -29 0 0 -84c0,-12 -3,-22 -9,-29 -6,-7 -14,-10 -24,-10 -5,0 -11,1 -16,2 -5,2 -9,4 -13,7 -4,3 -7,8 -10,14 -2,6 -4,12 -4,20l0 81 -29 0zm164 -125l0 -25 27 0 0 -56 29 0 0 56 31 0 0 25 -31 0 0 125 -29 0 0 -125 -27 0zm121 125l0 -231 29 0 0 104c4,-8 11,-15 21,-19 10,-4 19,-7 29,-7 19,0 34,6 44,17 11,12 16,28 16,49l0 86 -29 0 0 -84c0,-12 -3,-22 -10,-29 -7,-7 -15,-11 -25,-11 -5,0 -11,1 -16,2 -5,2 -10,4 -15,7 -5,3 -8,8 -11,14 -3,6 -4,13 -4,20l0 81 -29 0zm186 0l0 -231 29 0 0 231 -29 0zm59 -149l31 0 45 108 45 -108 31 0 -93 222 -30 0 31 -77 -60 -145z"/>
  <path id="1" class="fil19 str1" d="M2156 9412l27 -221 27 0 78 162 78 -162 27 0 27 221 -29 0 -20 -166 -69 141 -26 0 -69 -141 -20 166 -29 0zm304 -34c-7,-12 -11,-26 -11,-41 0,-15 4,-29 11,-41 7,-12 17,-21 28,-27 12,-6 25,-9 39,-9 14,0 27,3 39,9 12,6 21,15 28,27 7,12 11,26 11,41 0,15 -4,29 -11,41 -7,12 -17,21 -29,28 -12,6 -25,10 -39,10 -14,0 -27,-3 -39,-10 -12,-6 -21,-16 -29,-28zm18 -41c0,15 5,27 14,36 9,9 21,14 35,14 14,0 25,-5 35,-14 9,-9 14,-21 14,-36 0,-15 -5,-26 -14,-35 -9,-9 -21,-13 -35,-13 -14,0 -25,4 -35,13 -9,9 -14,21 -14,35zm166 75l0 -149 29 0 0 22c4,-8 11,-15 20,-19 9,-4 18,-7 27,-7 19,0 33,6 43,17 10,12 15,28 15,49l0 86 -29 0 0 -84c0,-12 -3,-22 -9,-29 -6,-7 -14,-10 -24,-10 -5,0 -11,1 -16,2 -5,2 -9,4 -13,7 -4,3 -7,8 -10,14 -2,6 -4,12 -4,20l0 81 -29 0zm164 -125l0 -25 27 0 0 -56 29 0 0 56 31 0 0 25 -31 0 0 125 -29 0 0 -125 -27 0zm121 125l0 -231 29 0 0 104c4,-8 11,-15 21,-19 10,-4 19,-7 29,-7 19,0 34,6 44,17 11,12 16,28 16,49l0 86 -29 0 0 -84c0,-12 -3,-22 -10,-29 -7,-7 -15,-11 -25,-11 -5,0 -11,1 -16,2 -5,2 -10,4 -15,7 -5,3 -8,8 -11,14 -3,6 -4,13 -4,20l0 81 -29 0zm186 0l0 -231 29 0 0 231 -29 0zm59 -149l31 0 45 108 45 -108 31 0 -93 222 -30 0 31 -77 -60 -145z"/>
  <path class="fil3" d="M4675 9191l32 0 55 173 41 -143 22 0 41 143 56 -173 28 0 -71 221 -26 0 -39 -137 -39 137 -30 0 -71 -221zm283 145c0,-23 7,-42 22,-56 15,-14 33,-21 55,-21 22,0 39,7 53,21 14,14 21,33 21,56 0,6 0,9 0,11l-121 0c2,12 7,22 16,30 9,7 20,11 32,11 9,0 17,-2 25,-6 8,-4 14,-10 18,-17 3,1 7,3 13,5 6,2 10,4 12,4 -6,13 -16,23 -28,29 -12,7 -26,10 -41,10 -22,0 -40,-7 -55,-22 -15,-15 -22,-33 -22,-57zm29 -11l93 0c-2,-12 -7,-22 -15,-29 -8,-7 -18,-11 -30,-11 -13,0 -23,4 -32,11 -9,7 -14,17 -16,29zm149 11c0,-23 7,-42 22,-56 15,-14 33,-21 55,-21 22,0 39,7 53,21 14,14 21,33 21,56 0,6 0,9 0,11l-121 0c2,12 7,22 16,30 9,7 20,11 32,11 9,0 17,-2 25,-6 8,-4 14,-10 18,-17 3,1 7,3 13,5 6,2 10,4 12,4 -6,13 -16,23 -28,29 -12,7 -26,10 -41,10 -22,0 -40,-7 -55,-22 -15,-15 -22,-33 -22,-57zm29 -11l93 0c-2,-12 -7,-22 -15,-29 -8,-7 -18,-11 -30,-11 -13,0 -23,4 -32,11 -9,7 -14,17 -16,29zm159 86l0 -231 29 0 0 133 52 -52 40 0 -64 65 79 85 -38 0 -68 -73 0 73 -29 0zm161 0l0 -231 29 0 0 231 -29 0zm59 -149l31 0 45 108 45 -108 31 0 -93 222 -30 0 31 -77 -60 -145z"/>
  <path class="fil3" d="M1643 8286l40 0c0,13 6,25 18,36 12,10 27,16 44,16 17,0 31,-4 41,-12 10,-8 16,-18 18,-30 1,-8 0,-14 -3,-21 -2,-6 -6,-11 -11,-15 -5,-4 -10,-7 -16,-10 -6,-3 -12,-5 -19,-6l-38 -9c-47,-12 -71,-37 -71,-76 0,-16 4,-30 13,-43 9,-13 20,-22 35,-29 14,-7 30,-10 46,-10 27,0 50,8 67,23 18,16 27,36 27,62l-39 0c0,-14 -5,-26 -15,-34 -10,-9 -24,-13 -40,-13 -15,0 -28,4 -38,12 -11,8 -16,19 -16,32 0,21 14,34 41,41l38 9c28,7 48,18 62,34 14,15 19,34 16,57 -3,22 -13,40 -30,54 -17,14 -40,22 -67,22 -14,0 -28,-2 -41,-7 -13,-5 -24,-11 -33,-20 -9,-8 -16,-17 -21,-28 -5,-11 -8,-22 -8,-33zm240 -16c0,-31 10,-55 29,-74 19,-19 43,-28 72,-28 28,0 52,9 70,28 18,19 28,44 28,74 0,7 0,12 0,15l-160 0c2,16 9,29 21,39 12,10 26,15 43,15 12,0 23,-3 33,-8 10,-5 18,-13 23,-22 4,1 10,4 18,7 8,3 13,5 15,6 -8,17 -21,30 -37,39 -16,9 -34,14 -54,14 -29,0 -53,-10 -72,-29 -19,-19 -29,-44 -29,-75zm39 -15l123 0c-2,-16 -9,-29 -20,-39 -11,-9 -24,-14 -40,-14 -17,0 -31,5 -42,14 -11,9 -18,22 -21,39zm210 114l0 -305 39 0 0 305 -39 0zm90 -99c0,-31 10,-55 29,-74 19,-19 43,-28 72,-28 28,0 52,9 70,28 18,19 28,44 28,74 0,7 0,12 0,15l-160 0c2,16 9,29 21,39 12,10 26,15 43,15 12,0 23,-3 33,-8 10,-5 18,-13 23,-22 4,1 10,4 18,7 8,3 13,5 15,6 -8,17 -21,30 -37,39 -16,9 -34,14 -54,14 -29,0 -53,-10 -72,-29 -19,-19 -29,-44 -29,-75zm39 -15l123 0c-2,-16 -9,-29 -20,-39 -11,-9 -24,-14 -40,-14 -17,0 -31,5 -42,14 -11,9 -18,22 -21,39zm211 69c-10,-16 -15,-34 -15,-54 0,-20 5,-38 15,-54 10,-16 23,-28 38,-36 16,-8 33,-12 52,-12 15,0 29,3 42,8 13,6 25,13 34,24l-29 24c-12,-12 -28,-19 -47,-19 -18,0 -34,6 -47,18 -13,12 -19,28 -19,47 0,19 6,35 20,48 13,12 29,19 47,19 19,0 34,-6 47,-19l30 25c-9,10 -21,18 -34,24 -13,6 -28,8 -43,8 -19,0 -36,-4 -52,-13 -16,-8 -29,-21 -38,-37zm194 -120l0 -33 36 0 0 -74 39 0 0 74 41 0 0 33 -41 0 0 165 -39 0 0 -165 -36 0zm240 0l0 -33 39 0 0 -20c0,-27 6,-49 19,-64 12,-16 31,-23 57,-23l22 0 0 37 -22 0c-8,0 -14,1 -19,4 -5,3 -9,7 -11,12 -2,5 -4,10 -5,16 -1,6 -1,12 -1,19l0 20 46 0 0 33 -46 0 0 165 -39 0 0 -165 -39 0zm166 165l0 -198 39 0 0 45c10,-33 28,-49 55,-49 7,0 13,1 20,2 7,2 11,3 14,5l-6 36c-9,-5 -19,-7 -29,-7 -12,0 -23,4 -31,13 -8,8 -14,19 -18,33 -4,14 -5,29 -5,48l0 72 -39 0zm149 -99c0,-31 10,-55 29,-74 19,-19 43,-28 72,-28 28,0 52,9 70,28 18,19 28,44 28,74 0,7 0,12 0,15l-160 0c2,16 9,29 21,39 12,10 26,15 43,15 12,0 23,-3 33,-8 10,-5 18,-13 23,-22 4,1 10,4 18,7 8,3 13,5 15,6 -8,17 -21,30 -37,39 -16,9 -34,14 -54,14 -29,0 -53,-10 -72,-29 -19,-19 -29,-44 -29,-75zm39 -15l123 0c-2,-16 -9,-29 -20,-39 -11,-9 -24,-14 -40,-14 -17,0 -31,5 -42,14 -11,9 -18,22 -21,39zm197 16c0,-31 10,-56 29,-75 19,-19 43,-29 70,-29 14,0 28,3 41,9 13,6 22,15 28,26l0 -31 39 0 0 294 -39 0 0 -126c-6,11 -15,19 -28,25 -13,6 -26,9 -41,9 -18,0 -35,-4 -50,-12 -15,-8 -27,-20 -36,-36 -9,-16 -14,-34 -14,-54zm39 0c0,19 6,35 18,47 12,12 27,18 45,18 11,0 21,-2 31,-7 10,-5 18,-12 24,-22 7,-10 10,-22 10,-35 0,-20 -6,-36 -19,-48 -13,-12 -28,-18 -46,-18 -18,0 -33,6 -45,19 -12,12 -18,28 -18,48zm229 14l0 -114 39 0 0 112c0,17 4,29 11,39 8,9 18,14 32,14 7,0 14,-1 21,-3 6,-2 12,-5 18,-10 5,-4 10,-10 13,-18 3,-8 5,-17 5,-27l0 -107 39 0 0 198 -39 0 0 -29c-5,11 -14,19 -26,25 -12,6 -24,9 -36,9 -25,0 -44,-8 -57,-23 -13,-15 -20,-37 -19,-65zm227 -16c0,-31 10,-55 29,-74 19,-19 43,-28 72,-28 28,0 52,9 70,28 18,19 28,44 28,74 0,7 0,12 0,15l-160 0c2,16 9,29 21,39 12,10 26,15 43,15 12,0 23,-3 33,-8 10,-5 18,-13 23,-22 4,1 10,4 18,7 8,3 13,5 15,6 -8,17 -21,30 -37,39 -16,9 -34,14 -54,14 -29,0 -53,-10 -72,-29 -19,-19 -29,-44 -29,-75zm39 -15l123 0c-2,-16 -9,-29 -20,-39 -11,-9 -24,-14 -40,-14 -17,0 -31,5 -42,14 -11,9 -18,22 -21,39zm210 114l0 -198 39 0 0 30c5,-11 14,-19 26,-25 12,-6 24,-9 36,-9 25,0 43,8 56,23 13,15 20,37 20,65l0 114 -39 0 0 -112c0,-17 -4,-29 -12,-39 -8,-9 -18,-14 -32,-14 -7,0 -14,1 -21,3 -6,2 -12,5 -18,10 -5,4 -10,10 -13,18 -3,8 -5,16 -5,27l0 107 -39 0zm240 -45c-10,-16 -15,-34 -15,-54 0,-20 5,-38 15,-54 10,-16 23,-28 38,-36 16,-8 33,-12 52,-12 15,0 29,3 42,8 13,6 25,13 34,24l-29 24c-12,-12 -28,-19 -47,-19 -18,0 -34,6 -47,18 -13,12 -19,28 -19,47 0,19 6,35 20,48 13,12 29,19 47,19 19,0 34,-6 47,-19l30 25c-9,10 -21,18 -34,24 -13,6 -28,8 -43,8 -19,0 -36,-4 -52,-13 -16,-8 -29,-21 -38,-37zm189 -152l41 0 59 143 59 -143 41 0 -123 294 -40 0 41 -102 -79 -192zm339 294l0 -294 39 0 0 31c6,-11 16,-20 29,-26 13,-6 26,-9 40,-9 28,0 51,10 70,29 19,19 29,44 29,75 0,20 -5,38 -13,54 -9,16 -21,28 -36,36 -15,8 -31,12 -49,12 -15,0 -28,-3 -41,-9 -13,-6 -22,-14 -28,-25l0 126 -39 0zm39 -194c0,20 6,36 19,47 13,11 28,17 45,17 18,0 33,-6 46,-18 12,-12 18,-27 18,-46 0,-19 -6,-35 -18,-48 -12,-12 -28,-19 -46,-19 -18,0 -33,6 -46,18 -12,12 -19,28 -19,48zm206 -2c0,-31 10,-55 29,-74 19,-19 43,-28 72,-28 28,0 52,9 70,28 18,19 28,44 28,74 0,7 0,12 0,15l-160 0c2,16 9,29 21,39 12,10 26,15 43,15 12,0 23,-3 33,-8 10,-5 18,-13 23,-22 4,1 10,4 18,7 8,3 13,5 15,6 -8,17 -21,30 -37,39 -16,9 -34,14 -54,14 -29,0 -53,-10 -72,-29 -19,-19 -29,-44 -29,-75zm39 -15l123 0c-2,-16 -9,-29 -20,-39 -11,-9 -24,-14 -40,-14 -17,0 -31,5 -42,14 -11,9 -18,22 -21,39zm210 114l0 -198 39 0 0 45c10,-33 28,-49 55,-49 7,0 13,1 20,2 7,2 11,3 14,5l-6 36c-9,-5 -19,-7 -29,-7 -12,0 -23,4 -31,13 -8,8 -14,19 -18,33 -4,14 -5,29 -5,48l0 72 -39 0zm167 -253c-5,-5 -8,-11 -8,-18 0,-7 3,-13 8,-18 5,-5 11,-7 19,-7 7,0 14,2 19,7 5,5 8,11 8,18 0,7 -3,13 -8,18 -5,5 -12,7 -19,7 -7,0 -13,-2 -19,-7zm-1 253l0 -198 39 0 0 198 -39 0zm104 -45c-10,-16 -14,-34 -14,-54 0,-20 5,-38 14,-54 9,-16 22,-28 38,-36 16,-8 33,-12 52,-12 19,0 36,4 52,12 16,8 28,20 38,36 9,16 14,34 14,54 0,20 -5,38 -14,54 -10,16 -22,28 -38,37 -16,8 -33,13 -51,13 -19,0 -36,-4 -52,-13 -16,-8 -28,-21 -38,-37zm24 -54c0,20 6,36 19,48 13,12 28,18 46,18 18,0 33,-6 46,-18 13,-12 19,-28 19,-48 0,-19 -6,-35 -19,-47 -12,-12 -28,-18 -46,-18 -18,0 -34,6 -46,18 -13,12 -19,27 -19,47zm206 1c0,-20 5,-39 14,-54 9,-16 21,-28 36,-36 15,-8 32,-12 50,-12 15,0 29,3 42,9 13,6 22,14 28,25l0 -137 39 0 0 305 -39 0 0 -30c-6,11 -16,19 -29,25 -13,6 -26,9 -41,9 -18,0 -35,-4 -50,-12 -15,-8 -27,-20 -36,-36 -9,-16 -14,-34 -14,-54zm39 0c0,19 6,35 18,47 12,12 27,19 45,19 18,0 34,-6 46,-18 13,-12 19,-28 19,-48 0,-14 -3,-25 -10,-35 -7,-10 -15,-18 -24,-22 -10,-5 -20,-7 -31,-7 -18,0 -33,6 -46,18 -12,12 -18,28 -18,47z"/>
  <g>
   <path class="fil16" d="M6773 6791l1740 0c142,0 257,116 257,257l0 310c0,142 -116,257 -257,257l-1740 0c-142,0 -257,-116 -257,-257l0 -310c0,-142 116,-257 257,-257z"/>
   <path id="1" class="fil17" d="M8513 6812l-1740 0 0 -42 1740 0 0 0 0 42zm279 237l-42 0 0 0 0 -12 -1 -12 -2 -12 -2 -12 -3 -11 -3 -11 -4 -11 -4 -11 -5 -10 -5 -10 -6 -10 -6 -10 -7 -9 -7 -9 -7 -9 -8 -8 -8 -8 -9 -7 -9 -7 -9 -7 -10 -6 -10 -6 -10 -5 -10 -5 -11 -4 -11 -4 -11 -3 -11 -3 -12 -2 -12 -2 -12 -1 -12 0 0 -42 14 0 14 1 14 2 14 2 13 3 13 4 13 4 13 5 12 6 12 6 12 7 11 7 11 8 11 8 10 9 10 9 9 10 9 10 8 11 8 11 7 11 7 12 6 12 6 12 5 13 4 13 4 13 3 13 2 14 2 14 1 14 0 14 0 0zm-42 310l0 -310 42 0 0 310 0 0 -42 0zm-236 278l0 -42 0 0 12 0 12 -1 12 -2 12 -2 11 -3 11 -3 11 -4 11 -4 10 -5 10 -5 10 -6 10 -6 9 -7 9 -7 9 -7 8 -8 8 -8 7 -9 7 -9 7 -9 6 -10 6 -10 5 -10 5 -10 4 -11 4 -11 3 -11 3 -11 2 -12 2 -12 1 -12 0 -12 42 0 0 14 -1 14 -2 14 -2 14 -3 13 -4 13 -4 13 -5 13 -6 12 -6 12 -7 12 -7 11 -8 11 -8 11 -9 10 -9 10 -10 9 -10 9 -11 8 -11 8 -11 7 -12 7 -12 6 -12 6 -13 5 -13 4 -13 4 -13 3 -14 2 -14 2 -14 1 -14 0 0 0zm-1740 -42l1740 0 0 42 -1740 0 0 0 0 -42zm-279 -237l42 0 0 0 0 12 1 12 2 12 2 12 3 11 3 11 4 11 4 11 5 10 5 10 6 10 6 10 7 9 7 9 7 9 8 8 8 8 9 7 9 7 9 7 10 6 10 6 10 5 10 5 11 4 11 4 11 3 11 3 12 2 12 2 12 1 12 0 0 42 -14 0 -14 -1 -14 -2 -14 -2 -13 -3 -13 -4 -13 -4 -13 -5 -12 -6 -12 -6 -12 -7 -11 -7 -11 -8 -11 -8 -10 -9 -10 -9 -9 -10 -9 -10 -8 -11 -8 -11 -7 -11 -7 -12 -6 -12 -6 -12 -5 -13 -4 -13 -4 -13 -3 -13 -2 -14 -2 -14 -1 -14 0 -14 0 0zm42 -310l0 310 -42 0 0 -310 0 0 42 0zm236 -278l0 42 0 0 -12 0 -12 1 -12 2 -12 2 -11 3 -11 3 -11 4 -11 4 -10 5 -10 5 -10 6 -10 6 -9 7 -9 7 -9 7 -8 8 -8 8 -7 9 -7 9 -7 9 -6 10 -6 10 -5 10 -5 10 -4 11 -4 11 -3 11 -3 11 -2 12 -2 12 -1 12 0 12 -42 0 0 -14 1 -14 2 -14 2 -14 3 -13 4 -13 4 -13 5 -13 6 -12 6 -12 7 -12 7 -11 8 -11 8 -11 9 -10 9 -10 10 -9 10 -9 11 -8 11 -8 11 -7 12 -7 12 -6 12 -6 13 -5 13 -4 13 -4 13 -3 14 -2 14 -2 14 -1 14 0 0 0z"/>
  </g>
  <path class="fil3" d="M7189 7091l0 -28 164 0 0 28 -67 0 0 192 -30 0 0 -192 -67 0zm169 158c-7,-12 -11,-26 -11,-41 0,-15 4,-29 11,-41 7,-12 17,-21 28,-27 12,-6 25,-9 39,-9 14,0 27,3 39,9 12,6 21,15 28,27 7,12 11,26 11,41 0,15 -4,29 -11,41 -7,12 -17,21 -29,28 -12,6 -25,10 -39,10 -14,0 -27,-3 -39,-10 -12,-6 -21,-16 -29,-28zm18 -41c0,15 5,27 14,36 9,9 21,14 35,14 14,0 25,-5 35,-14 9,-9 14,-21 14,-36 0,-15 -5,-26 -14,-35 -9,-9 -21,-13 -35,-13 -14,0 -25,4 -35,13 -9,9 -14,21 -14,35zm156 0c0,-15 3,-29 10,-41 7,-12 16,-21 27,-27 11,-6 24,-9 38,-9 11,0 22,2 31,7 9,4 17,11 21,19l0 -104 29 0 0 231 -29 0 0 -23c-5,8 -12,15 -22,19 -10,5 -20,7 -31,7 -14,0 -26,-3 -38,-9 -11,-6 -21,-15 -27,-28 -7,-12 -10,-26 -10,-41zm30 0c0,14 5,26 14,36 9,9 21,14 34,14 14,0 25,-4 35,-13 10,-9 14,-21 14,-36 0,-10 -3,-19 -8,-27 -5,-8 -11,-13 -19,-17 -7,-4 -15,-5 -24,-5 -14,0 -25,5 -34,14 -9,9 -14,21 -14,35zm166 0c0,-15 3,-29 10,-41 7,-12 16,-21 28,-27 11,-6 24,-9 38,-9 11,0 21,2 31,7 10,4 17,11 21,19l0 -22 29 0 0 149 -29 0 0 -23c-5,8 -12,15 -22,19 -10,5 -20,7 -31,7 -21,0 -39,-7 -54,-22 -15,-15 -22,-33 -22,-56zm30 0c0,14 5,26 14,36 9,9 21,14 35,14 14,0 26,-4 35,-13 10,-9 14,-21 14,-36 0,-10 -3,-19 -8,-27 -5,-8 -11,-13 -19,-17 -7,-4 -15,-5 -24,-5 -14,0 -25,5 -35,14 -9,9 -14,21 -14,35zm157 -74l31 0 45 108 45 -108 31 0 -93 222 -30 0 31 -77 -60 -145z"/>
  <g>
   <path class="fil16" d="M6776 8920l1734 0c143,0 260,117 260,260l0 304c0,143 -117,260 -260,260l-1734 0c-143,0 -260,-117 -260,-260l0 -304c0,-143 117,-260 260,-260z"/>
   <path id="1" class="fil17" d="M8510 8941l-1734 0 0 -42 1734 0 0 0 0 42zm282 239l-42 0 0 0 0 -12 -1 -12 -2 -12 -2 -12 -3 -12 -3 -11 -4 -11 -4 -11 -5 -11 -5 -10 -6 -10 -6 -10 -7 -9 -7 -9 -8 -9 -8 -8 -8 -8 -9 -8 -9 -7 -9 -7 -10 -6 -10 -6 -10 -5 -11 -5 -11 -4 -11 -4 -11 -3 -12 -3 -12 -2 -12 -2 -12 -1 -12 0 0 -42 14 0 14 1 14 2 14 2 14 3 13 4 13 4 13 5 12 6 12 6 12 7 11 7 11 8 11 8 10 9 10 9 9 10 9 10 8 11 8 11 7 11 7 12 6 12 6 12 5 13 4 13 4 13 3 14 2 14 2 14 1 14 0 14 0 0zm-42 304l0 -304 42 0 0 304 0 0 -42 0zm-239 281l0 -42 0 0 12 0 12 -1 12 -2 12 -2 12 -3 11 -3 11 -4 11 -4 11 -5 10 -5 10 -6 10 -6 9 -7 9 -7 9 -8 8 -8 8 -8 8 -9 7 -9 7 -9 6 -10 6 -10 5 -10 5 -11 4 -11 4 -11 3 -11 3 -12 2 -12 2 -12 1 -12 0 -12 42 0 0 14 -1 14 -2 14 -2 14 -3 14 -4 13 -4 13 -5 13 -6 12 -6 12 -7 12 -7 11 -8 11 -8 11 -9 10 -9 10 -10 9 -10 9 -11 8 -11 8 -11 7 -12 7 -12 6 -12 6 -13 5 -13 4 -13 4 -14 3 -14 2 -14 2 -14 1 -14 0 0 0zm-1734 -42l1734 0 0 42 -1734 0 0 0 0 -42zm-282 -239l42 0 0 0 0 12 1 12 2 12 2 12 3 12 3 11 4 11 4 11 5 11 5 10 6 10 6 10 7 9 7 9 8 9 8 8 8 8 9 8 9 7 9 7 10 6 10 6 10 5 11 5 11 4 11 4 11 3 12 3 12 2 12 2 12 1 12 0 0 42 -14 0 -14 -1 -14 -2 -14 -2 -14 -3 -13 -4 -13 -4 -13 -5 -12 -6 -12 -6 -12 -7 -11 -7 -11 -8 -11 -8 -10 -9 -10 -9 -9 -10 -9 -10 -8 -11 -8 -11 -7 -11 -7 -12 -6 -12 -6 -12 -5 -13 -4 -13 -4 -13 -3 -14 -2 -14 -2 -14 -1 -14 0 -14 0 0zm42 -304l0 304 -42 0 0 -304 0 0 42 0zm239 -281l0 42 0 0 -12 0 -12 1 -12 2 -12 2 -12 3 -11 3 -11 4 -11 4 -11 5 -10 5 -10 6 -10 6 -9 7 -9 7 -9 8 -8 8 -8 8 -8 9 -7 9 -7 9 -6 10 -6 10 -5 10 -5 11 -4 11 -4 11 -3 11 -3 12 -2 12 -2 12 -1 12 0 12 -42 0 0 -14 1 -14 2 -14 2 -14 3 -14 4 -13 4 -13 5 -13 6 -12 6 -12 7 -12 7 -11 8 -11 8 -11 9 -10 9 -10 10 -9 10 -9 11 -8 11 -8 11 -7 12 -7 12 -6 12 -6 13 -5 13 -4 13 -4 14 -3 14 -2 14 -2 14 -1 14 0 0 0z"/>
  </g>
  <path class="fil3" d="M7288 9412l0 -221 85 0c15,0 29,3 42,9 13,6 23,13 31,23 8,10 15,22 19,35 5,13 7,28 7,44 0,16 -2,30 -7,43 -5,13 -11,25 -19,35 -8,10 -19,18 -31,23 -13,6 -27,8 -42,8l-85 0zm30 -28l56 0c11,0 21,-2 30,-6 9,-4 16,-10 22,-17 6,-7 10,-16 13,-26 3,-10 5,-21 5,-32 0,-16 -3,-30 -8,-42 -5,-12 -13,-22 -24,-30 -11,-7 -23,-11 -38,-11l-56 0 0 165zm186 -47c0,-15 3,-29 10,-41 7,-12 16,-21 28,-27 11,-6 24,-9 38,-9 11,0 21,2 31,7 10,4 17,11 21,19l0 -22 29 0 0 149 -29 0 0 -23c-5,8 -12,15 -22,19 -10,5 -20,7 -31,7 -21,0 -39,-7 -54,-22 -15,-15 -22,-33 -22,-56zm30 0c0,14 5,26 14,36 9,9 21,14 35,14 14,0 26,-4 35,-13 10,-9 14,-21 14,-36 0,-10 -3,-19 -8,-27 -5,-8 -11,-13 -19,-17 -7,-4 -15,-5 -24,-5 -14,0 -25,5 -35,14 -9,9 -14,21 -14,35zm176 -116c-4,-4 -6,-8 -6,-13 0,-5 2,-10 6,-13 4,-4 9,-5 14,-5 6,0 10,2 14,5 4,4 6,8 6,13 0,5 -2,10 -6,13 -4,4 -9,5 -14,5 -5,0 -10,-2 -14,-5zm0 191l0 -149 29 0 0 149 -29 0zm78 0l0 -231 29 0 0 231 -29 0zm59 -149l31 0 45 108 45 -108 31 0 -93 222 -30 0 31 -77 -60 -145z"/>
  <path class="fil14" d="M1587 15520l0 -38 220 0 0 38 -90 0 0 257 -40 0 0 -257 -90 0zm227 211c-10,-16 -14,-35 -14,-55 0,-20 5,-39 14,-55 10,-16 22,-28 38,-36 16,-8 33,-13 52,-13 19,0 37,4 52,13 16,8 28,21 38,36 10,16 14,34 14,55 0,20 -5,39 -14,55 -10,16 -22,29 -38,37 -16,9 -33,13 -52,13 -19,0 -36,-4 -52,-13 -16,-8 -29,-21 -38,-37zm25 -55c0,20 6,36 19,48 13,12 28,19 47,19 18,0 34,-6 47,-19 13,-12 19,-29 19,-48 0,-20 -6,-35 -19,-47 -13,-12 -28,-18 -47,-18 -18,0 -34,6 -47,18 -13,12 -19,28 -19,47zm199 -66l0 -33 36 0 0 -75 39 0 0 75 42 0 0 33 -42 0 0 167 -39 0 0 -167 -36 0zm145 67c0,-21 5,-39 14,-55 9,-16 22,-28 37,-37 15,-8 32,-13 51,-13 15,0 29,3 41,9 13,6 23,14 29,25l0 -30 39 0 0 200 -39 0 0 -31c-6,11 -16,20 -29,26 -13,6 -27,9 -41,9 -28,0 -52,-10 -72,-29 -20,-19 -30,-45 -30,-75zm40 0c0,19 6,35 19,48 13,13 28,19 46,19 19,0 34,-6 47,-18 13,-12 19,-28 19,-49 0,-14 -3,-26 -10,-36 -7,-10 -15,-18 -25,-23 -10,-5 -20,-7 -32,-7 -18,0 -34,6 -46,18 -13,12 -19,28 -19,48zm236 101l0 -309 39 0 0 309 -39 0zm201 -60l36 0c1,5 2,9 5,13 3,4 7,8 11,10 9,5 19,8 31,7 9,-1 16,-4 22,-8 5,-5 8,-11 9,-18 0,-7 -2,-13 -7,-17 -5,-4 -11,-7 -19,-9l-27 -6c-19,-5 -33,-13 -42,-23 -9,-10 -13,-24 -11,-42 1,-15 9,-27 22,-36 14,-10 29,-15 47,-15 9,0 17,1 24,3 8,2 14,5 21,10 6,4 12,10 16,18 4,7 7,16 7,26l-36 0c-1,-7 -4,-13 -10,-17 -6,-4 -13,-6 -21,-6 -7,0 -14,2 -19,5 -6,3 -9,8 -11,13 -2,6 -1,12 0,16 3,7 11,12 23,16l29 7c35,8 52,28 53,58 0,18 -8,32 -23,43 -15,11 -34,16 -56,16 -12,0 -24,-2 -35,-7 -11,-5 -20,-12 -28,-22 -8,-10 -11,-22 -12,-35zm203 -196c-5,-5 -8,-11 -8,-18 0,-7 3,-13 8,-18 5,-5 12,-7 19,-7 8,0 14,2 19,7 5,5 8,11 8,18 0,7 -3,13 -8,18 -5,5 -12,7 -19,7 -7,0 -14,-2 -19,-7zm-1 256l0 -200 39 0 0 200 -39 0zm91 -99c0,-21 5,-39 14,-55 9,-16 22,-29 37,-37 15,-9 32,-13 51,-13 15,0 28,3 41,9 13,6 23,15 29,26l0 -31 39 0 0 170c0,87 -37,130 -110,130 -19,0 -36,-5 -52,-14 -16,-9 -29,-23 -38,-40 2,-1 8,-4 17,-9 9,-5 15,-8 16,-8 6,11 14,19 25,25 11,6 22,9 33,9 47,0 71,-30 71,-90 0,-1 0,-1 0,-2 0,-1 0,-2 0,-2 -6,11 -15,20 -29,27 -13,7 -27,10 -42,10 -18,0 -35,-4 -51,-12 -15,-8 -28,-21 -37,-36 -9,-16 -14,-34 -14,-55zm40 0c0,20 6,36 19,48 12,12 28,18 47,18 8,0 16,-2 24,-4 8,-3 15,-7 21,-13 6,-5 12,-12 15,-21 4,-9 6,-18 6,-28 0,-21 -6,-37 -19,-49 -13,-12 -29,-18 -47,-18 -18,0 -34,6 -46,19 -13,13 -19,28 -19,48zm235 100l0 -200 39 0 0 30c6,-11 14,-20 26,-26 12,-6 24,-9 36,-9 25,0 44,8 57,23 13,16 20,37 20,66l0 116 -39 0 0 -113c0,-17 -4,-30 -12,-39 -8,-9 -19,-14 -33,-14 -7,0 -14,1 -21,3 -7,2 -13,5 -18,10 -5,5 -10,11 -13,18 -3,8 -5,17 -5,27l0 108 -39 0zm353 -256c-5,-5 -8,-11 -8,-18 0,-7 3,-13 8,-18 5,-5 12,-7 19,-7 8,0 14,2 19,7 5,5 8,11 8,18 0,7 -3,13 -8,18 -5,5 -12,7 -19,7 -7,0 -14,-2 -19,-7zm-1 256l0 -200 39 0 0 200 -39 0zm104 0l0 -200 39 0 0 30c6,-11 14,-20 26,-26 12,-6 24,-9 36,-9 25,0 44,8 57,23 13,16 20,37 20,66l0 116 -39 0 0 -113c0,-17 -4,-30 -12,-39 -8,-9 -19,-14 -33,-14 -7,0 -14,1 -21,3 -7,2 -13,5 -18,10 -5,5 -10,11 -13,18 -3,8 -5,17 -5,27l0 108 -39 0zm227 -60l36 0c1,5 2,9 5,13 3,4 7,8 11,10 9,5 19,8 31,7 9,-1 16,-4 22,-8 5,-5 8,-11 9,-18 0,-7 -2,-13 -7,-17 -5,-4 -11,-7 -19,-9l-27 -6c-19,-5 -33,-13 -42,-23 -9,-10 -13,-24 -11,-42 1,-15 9,-27 22,-36 14,-10 29,-15 47,-15 9,0 17,1 24,3 8,2 14,5 21,10 6,4 12,10 16,18 4,7 7,16 7,26l-36 0c-1,-7 -4,-13 -10,-17 -6,-4 -13,-6 -21,-6 -7,0 -14,2 -19,5 -6,3 -9,8 -11,13 -2,6 -1,12 0,16 3,7 11,12 23,16l29 7c35,8 52,28 53,58 0,18 -8,32 -23,43 -15,11 -34,16 -56,16 -12,0 -24,-2 -35,-7 -11,-5 -20,-12 -28,-22 -8,-10 -11,-22 -12,-35z"/>
  <path class="fil3" d="M1594 16277c4,-25 16,-45 35,-61 19,-15 41,-23 67,-23 28,0 52,9 72,26 19,18 29,40 29,67 0,29 -12,56 -35,83 -15,18 -31,36 -47,55 -16,19 -29,34 -40,47l122 0 0 43 -196 0 0 -19 129 -157c15,-18 23,-36 23,-52 0,-15 -5,-27 -16,-36 -11,-9 -24,-14 -40,-14 -15,0 -27,4 -38,13 -11,9 -17,21 -19,37l-44 -10zm244 173l177 -253 33 0 0 212 46 0 0 41 -46 0 0 65 -44 0 0 -65 -166 0zm75 -41l91 0 0 -133 -91 133zm210 158c23,-32 34,-68 33,-107l45 0c-2,28 -7,52 -17,73 -9,20 -19,35 -31,45l-31 -10zm151 -156c-3,-40 -1,-80 6,-120 5,-29 17,-53 37,-71 20,-18 44,-27 73,-26 10,0 18,1 26,3 8,2 16,5 24,10 8,4 16,11 23,19 7,8 13,18 18,29l-40 17c-6,-12 -14,-22 -24,-28 -10,-6 -20,-9 -31,-9 -22,0 -40,11 -53,31 -13,21 -18,48 -15,80 10,-24 31,-36 65,-36 19,0 36,5 52,15 16,10 28,24 36,40 8,17 12,34 12,53 -1,29 -13,53 -33,73 -21,20 -45,29 -74,28 -29,-1 -52,-12 -70,-31 -18,-19 -29,-45 -32,-78zm44 1c0,18 6,32 17,44 11,12 25,18 42,19 17,1 31,-5 43,-16 12,-11 18,-25 19,-43 1,-17 -4,-32 -15,-44 -11,-12 -24,-18 -41,-19 -17,0 -32,5 -44,16 -13,11 -19,25 -20,42zm213 41l39 -21c5,11 13,21 24,30 11,9 23,13 35,14 18,1 34,-4 47,-14 14,-10 21,-23 21,-38 0,-15 -5,-29 -17,-40 -12,-11 -26,-17 -43,-17l-36 0 0 -42 36 0c11,0 21,-3 29,-10 8,-7 13,-16 15,-26 2,-14 0,-24 -6,-33 -3,-5 -9,-9 -15,-13 -7,-3 -14,-5 -22,-6 -23,-2 -42,8 -56,29l-33 -26c9,-15 22,-27 38,-36 17,-8 35,-12 54,-11 26,1 46,11 62,28 16,17 23,38 22,60 0,6 -1,12 -3,20 -6,19 -16,34 -32,43 15,6 28,17 38,34 10,17 14,34 12,52 -2,18 -8,34 -19,48 -11,14 -25,25 -42,33 -17,7 -36,10 -55,9 -21,-1 -40,-8 -57,-20 -17,-12 -30,-27 -38,-46zm269 -159c1,-29 13,-54 33,-73 21,-20 45,-29 74,-28 29,1 52,12 70,31 18,19 29,46 32,79 3,41 1,82 -5,121 -5,29 -17,53 -37,71 -20,18 -44,27 -73,26 -10,0 -18,-1 -26,-3 -8,-2 -16,-5 -24,-10 -8,-4 -16,-11 -23,-19 -7,-8 -13,-18 -18,-30l40 -17c6,12 14,22 23,28 10,6 20,9 31,9 22,0 40,-11 53,-32 13,-21 18,-48 15,-80 -5,12 -13,21 -25,27 -12,6 -25,9 -41,9 -19,0 -36,-5 -52,-16 -16,-10 -28,-24 -36,-41 -8,-17 -12,-35 -12,-53zm44 2c-1,17 4,32 15,45 11,12 25,19 41,19 17,0 32,-5 44,-16 13,-11 19,-26 20,-43 0,-18 -6,-33 -17,-45 -11,-12 -26,-18 -42,-19 -17,-1 -31,5 -43,16 -12,11 -18,25 -19,43z"/>
  <path id="1" class="fil19 str2" d="M1594 16277c4,-25 16,-45 35,-61 19,-15 41,-23 67,-23 28,0 52,9 72,26 19,18 29,40 29,67 0,29 -12,56 -35,83 -15,18 -31,36 -47,55 -16,19 -29,34 -40,47l122 0 0 43 -196 0 0 -19 129 -157c15,-18 23,-36 23,-52 0,-15 -5,-27 -16,-36 -11,-9 -24,-14 -40,-14 -15,0 -27,4 -38,13 -11,9 -17,21 -19,37l-44 -10zm244 173l177 -253 33 0 0 212 46 0 0 41 -46 0 0 65 -44 0 0 -65 -166 0zm75 -41l91 0 0 -133 -91 133zm210 158c23,-32 34,-68 33,-107l45 0c-2,28 -7,52 -17,73 -9,20 -19,35 -31,45l-31 -10zm151 -156c-3,-40 -1,-80 6,-120 5,-29 17,-53 37,-71 20,-18 44,-27 73,-26 10,0 18,1 26,3 8,2 16,5 24,10 8,4 16,11 23,19 7,8 13,18 18,29l-40 17c-6,-12 -14,-22 -24,-28 -10,-6 -20,-9 -31,-9 -22,0 -40,11 -53,31 -13,21 -18,48 -15,80 10,-24 31,-36 65,-36 19,0 36,5 52,15 16,10 28,24 36,40 8,17 12,34 12,53 -1,29 -13,53 -33,73 -21,20 -45,29 -74,28 -29,-1 -52,-12 -70,-31 -18,-19 -29,-45 -32,-78zm44 1c0,18 6,32 17,44 11,12 25,18 42,19 17,1 31,-5 43,-16 12,-11 18,-25 19,-43 1,-17 -4,-32 -15,-44 -11,-12 -24,-18 -41,-19 -17,0 -32,5 -44,16 -13,11 -19,25 -20,42zm213 41l39 -21c5,11 13,21 24,30 11,9 23,13 35,14 18,1 34,-4 47,-14 14,-10 21,-23 21,-38 0,-15 -5,-29 -17,-40 -12,-11 -26,-17 -43,-17l-36 0 0 -42 36 0c11,0 21,-3 29,-10 8,-7 13,-16 15,-26 2,-14 0,-24 -6,-33 -3,-5 -9,-9 -15,-13 -7,-3 -14,-5 -22,-6 -23,-2 -42,8 -56,29l-33 -26c9,-15 22,-27 38,-36 17,-8 35,-12 54,-11 26,1 46,11 62,28 16,17 23,38 22,60 0,6 -1,12 -3,20 -6,19 -16,34 -32,43 15,6 28,17 38,34 10,17 14,34 12,52 -2,18 -8,34 -19,48 -11,14 -25,25 -42,33 -17,7 -36,10 -55,9 -21,-1 -40,-8 -57,-20 -17,-12 -30,-27 -38,-46zm269 -159c1,-29 13,-54 33,-73 21,-20 45,-29 74,-28 29,1 52,12 70,31 18,19 29,46 32,79 3,41 1,82 -5,121 -5,29 -17,53 -37,71 -20,18 -44,27 -73,26 -10,0 -18,-1 -26,-3 -8,-2 -16,-5 -24,-10 -8,-4 -16,-11 -23,-19 -7,-8 -13,-18 -18,-30l40 -17c6,12 14,22 23,28 10,6 20,9 31,9 22,0 40,-11 53,-32 13,-21 18,-48 15,-80 -5,12 -13,21 -25,27 -12,6 -25,9 -41,9 -19,0 -36,-5 -52,-16 -16,-10 -28,-24 -36,-41 -8,-17 -12,-35 -12,-53zm44 2c-1,17 4,32 15,45 11,12 25,19 41,19 17,0 32,-5 44,-16 13,-11 19,-26 20,-43 0,-18 -6,-33 -17,-45 -11,-12 -26,-18 -42,-19 -17,-1 -31,5 -43,16 -12,11 -18,25 -19,43z"/>
  <polyline class="fil20 str3" points="1627,14601 2503,14601 2966,13470 3310,13705 3478,13691 3665,13764 4649,12648 4905,12780 5427,12633 5939,13074 6116,13250 6412,13529 6816,13515 7524,13559 7997,12560 8233,12824 8706,12927 "/>
  <path class="fil20 str4" d="M1641 14411c20,-18 153,-158 153,-158l256 95 239 -147 394 -154 244 -4 453 -253 236 341 148 103 172 -283 256 -426 185 -176 106 -18 106 132 396 -18 556 235 116 -176 298 -353 118 -106 155 99 150 286 886 367 502 -286 165 -345 254 -231 601 -378"/>
  <rect class="fil7" x="7465" y="2572" width="405" height="32" rx="16" ry="16"/>
  <rect class="fil7" x="7465" y="2674" width="405" height="32" rx="16" ry="16"/>
  <rect class="fil7" x="7465" y="2777" width="405" height="32" rx="16" ry="16"/>
 </g>
</svg>
