<?xml version="1.0" encoding="UTF-8"?>
<!DOCTYPE svg PUBLIC "-//W3C//DTD SVG 1.1//EN" "http://www.w3.org/Graphics/SVG/1.1/DTD/svg11.dtd">
<!-- Creator: CorelDRAW X6 -->
<svg xmlns="http://www.w3.org/2000/svg" xml:space="preserve" width="112.68mm" height="200mm" version="1.1" style="shape-rendering:geometricPrecision; text-rendering:geometricPrecision; image-rendering:optimizeQuality; fill-rule:evenodd; clip-rule:evenodd"
viewBox="0 0 10847 19253"
 xmlns:xlink="http://www.w3.org/1999/xlink">
 <defs>
  <style type="text/css">
   <![CDATA[
    .str1 {stroke:#95C9FF;stroke-width:19.2534}
    .str2 {stroke:#3B9CFF;stroke-width:32.6056}
    .str0 {stroke:#D5F6FF;stroke-width:81.5093}
    .fil7 {fill:none}
    .fil2 {fill:none}
    .fil12 {fill:none}
    .fil6 {fill:#D9ECFF}
    .fil11 {fill:#3B9CFF;fill-rule:nonzero}
    .fil5 {fill:#95C9FF;fill-opacity:0.188235}
    .fil9 {fill:#3B9CFF;fill-opacity:0.450980}
    .fil10 {fill:#B4DCFF;fill-opacity:0.450980}
    .fil1 {fill:#E5F2FF;fill-opacity:0.99}
    .fil8 {fill:#00C2FF;fill-rule:nonzero;fill-opacity:0.980392}
    .fil4 {fill:#3B9CFF;fill-rule:nonzero;fill-opacity:0.980392}
    .fil3 {fill:#95C9FF;fill-rule:nonzero;fill-opacity:0.980392}
    .fil13 {fill:#D9ECFF}
    .fil0 {fill:#F6FBFF}
    .fil14 {fill:#00C2FF;fill-rule:nonzero}
    .fil15 {fill:#3B9CFF;fill-rule:nonzero}
   ]]>
  </style>
 </defs>
 <g id="Layer_x0020_1">
  <metadata id="CorelCorpID_0Corel-Layer"/>
  <path class="fil0" d="M2201 1042c-1024,-61 -1190,254 -1226,1032l8 14628c-12,1012 247,1473 986,1528l6505 16c1056,77 1424,-518 1398,-1497l0 -14571c-13,-919 -343,-1186 -1200,-1180l-746 733 -4940 20 -784 -711z"/>
  <path class="fil1" d="M8854 18516l-6614 34c-1414,35 -1600,-657 -1565,-1947l7 -14911c73,-536 332,-865 801,-959l814 0c237,94 333,699 989,697l4344 1c648,-130 586,-655 1028,-705l721 20c490,70 747,554 754,1111l9 15288c0,827 -359,1368 -1289,1372zm-7422 -18516c-889,141 -1407,714 -1387,1914l-44 15507c-27,1227 684,1770 1915,1832l7196 -6c963,20 1557,-432 1693,-1472l42 -15920c-22,-1063 -887,-1858 -1906,-1852l-7509 -3z"/>
  <path class="fil2" d="M932 3124c27,-580 126,-903 600,-1004 -448,108 -544,430 -570,997l1 1234 8866 0 0 2072 -8895 0 -2 -3299z"/>
  <path class="fil3" d="M1462 11083l40 0c0,13 6,26 18,36 12,11 27,16 45,16 18,0 32,-4 43,-12 10,-8 16,-19 18,-32 2,-27 -15,-45 -51,-53l-38 -10c-48,-12 -73,-38 -73,-78 0,-24 10,-44 29,-60 18,-16 41,-24 68,-24 27,0 50,8 68,24 18,16 28,37 28,63l-40 0c0,-15 -5,-27 -16,-36 -11,-9 -24,-13 -39,-13 -15,0 -29,4 -41,12 -11,8 -16,19 -16,32 0,20 14,33 43,40l39 10c28,8 49,19 63,36 14,16 19,36 16,59 -3,23 -13,42 -31,57 -18,15 -41,22 -70,22 -29,0 -53,-9 -73,-26 -20,-18 -30,-39 -30,-63zm396 -7l0 -109 39 0 0 202 -39 0 0 -30c-6,11 -14,20 -26,26 -12,6 -24,9 -37,9 -25,0 -44,-8 -58,-24 -13,-16 -20,-38 -20,-66l0 -117 39 0 0 114c0,17 4,30 12,40 8,9 19,14 35,14 16,0 29,-5 39,-15 10,-10 16,-24 15,-44zm164 -57c-13,12 -20,28 -20,49 0,21 6,37 19,49 13,12 29,18 47,18 19,0 34,-6 47,-19 13,-13 19,-29 19,-48 0,-20 -6,-36 -19,-48 -12,-12 -28,-19 -46,-18 -18,0 -34,6 -47,18zm-21 150l-39 0 0 -312 39 0 0 140c14,-23 37,-35 71,-35 29,0 53,10 73,29 19,19 29,45 29,76 0,31 -10,57 -30,76 -20,20 -44,29 -72,29 -15,0 -29,-3 -42,-10 -13,-6 -22,-15 -29,-26l0 31zm280 -276l0 74 42 0 0 35 -42 0 0 167 -39 0 0 -167 -36 0 0 -35 36 0 0 -74 39 0zm227 224c13,-12 19,-29 19,-49 0,-20 -6,-36 -19,-48 -13,-12 -28,-18 -47,-18 -19,0 -35,6 -47,18 -13,12 -19,28 -19,48 0,20 6,36 19,49 13,13 28,19 47,19 19,0 35,-6 47,-19zm-47 56c-29,0 -54,-10 -75,-29 -21,-19 -31,-45 -31,-76 0,-31 10,-57 30,-76 20,-19 45,-29 75,-29 30,0 55,10 75,29 20,20 31,45 31,76 0,31 -10,56 -31,76 -20,20 -45,29 -75,29zm212 -280l0 74 42 0 0 35 -42 0 0 167 -39 0 0 -167 -36 0 0 -35 36 0 0 -74 39 0zm227 223c13,-12 19,-28 19,-49 0,-21 -7,-37 -20,-49 -14,-12 -29,-18 -48,-18 -18,0 -34,6 -46,18 -12,12 -19,28 -19,48 0,20 6,36 19,48 13,13 28,19 47,19 19,0 34,-6 47,-18zm59 52l-39 0 0 -31c-6,11 -16,19 -29,26 -13,6 -27,10 -42,10 -28,0 -52,-10 -73,-29 -20,-20 -30,-45 -30,-76 0,-31 10,-56 29,-76 20,-19 44,-29 73,-29 15,0 29,3 42,9 13,7 23,15 29,26l0 -30 39 0 0 202zm65 0l0 -312 39 0 0 312 -39 0z"/>
  <path class="fil3" d="M1459 11919l41 0c0,13 6,26 18,36 12,11 27,16 45,16 18,0 32,-4 43,-12 10,-8 16,-19 18,-32 2,-27 -15,-45 -51,-53l-38 -10c-49,-12 -73,-38 -73,-78 0,-24 10,-44 29,-60 18,-16 41,-24 68,-24 27,0 50,8 68,24 18,16 28,37 28,63l-40 0c0,-15 -5,-27 -16,-36 -11,-9 -24,-13 -39,-13 -15,0 -29,4 -41,12 -11,8 -16,19 -16,32 0,20 14,33 43,40l39 10c29,8 50,19 63,36 14,16 19,36 16,59 -3,23 -13,42 -31,57 -18,15 -41,22 -70,22 -29,0 -53,-9 -74,-26 -20,-18 -30,-39 -30,-63zm298 -23l0 109 -39 0 0 -312 39 0 0 140c5,-11 15,-20 28,-26 13,-6 26,-9 38,-9 26,0 46,8 60,24 15,16 22,38 22,66l0 117 -39 0 0 -114c0,-17 -4,-30 -13,-39 -9,-10 -21,-15 -36,-15 -15,0 -29,5 -41,15 -12,10 -19,24 -19,44zm212 -149c-5,-5 -8,-11 -8,-18 0,-7 3,-13 8,-18 6,-5 12,-7 19,-7 7,0 14,2 19,7 6,5 8,11 8,18 0,7 -3,14 -8,18 -5,5 -12,7 -19,7 -7,0 -14,-2 -19,-7zm39 258l-39 0 0 -202 39 0 0 202zm124 -149c-12,12 -19,29 -19,50 0,21 7,37 20,48 13,12 29,17 47,17 18,0 34,-6 47,-18 12,-12 18,-28 18,-48 0,-20 -6,-36 -19,-48 -13,-13 -29,-19 -47,-19 -19,0 -34,6 -47,18zm-59 -53l39 0 0 32c7,-11 16,-20 29,-26 12,-7 26,-10 42,-10 28,0 52,10 72,29 20,19 29,45 29,76 0,31 -10,56 -29,76 -19,19 -43,29 -72,29 -15,0 -29,-3 -42,-9 -13,-6 -22,-15 -28,-25l0 128 -39 0 0 -300zm323 53c-12,12 -19,29 -19,50 0,21 7,37 20,48 13,12 29,17 47,17 18,0 34,-6 47,-18 12,-12 18,-28 18,-48 0,-20 -6,-36 -19,-48 -13,-13 -29,-19 -47,-19 -19,0 -34,6 -47,18zm-59 -53l39 0 0 32c7,-11 16,-20 29,-26 12,-7 26,-10 42,-10 28,0 52,10 72,29 20,19 29,45 29,76 0,31 -10,56 -29,76 -19,19 -43,29 -72,29 -15,0 -29,-3 -42,-9 -13,-6 -22,-15 -28,-25l0 128 -39 0 0 -300zm264 -56c-5,-5 -8,-11 -8,-18 0,-7 3,-13 8,-18 6,-5 12,-7 19,-7 7,0 14,2 19,7 6,5 8,11 8,18 0,7 -3,14 -8,18 -5,5 -12,7 -19,7 -7,0 -14,-2 -19,-7zm39 258l-39 0 0 -202 39 0 0 202zm105 -109l0 109 -39 0 0 -202 39 0 0 30c6,-11 14,-20 26,-26 12,-6 24,-9 37,-9 25,0 45,8 58,23 14,15 20,37 21,66l0 117 -39 0 0 -114c0,-17 -4,-30 -12,-39 -8,-10 -19,-14 -35,-14 -15,0 -28,5 -39,15 -11,10 -16,25 -16,44zm250 57c12,12 28,18 46,18 18,0 34,-6 48,-18 13,-12 20,-28 20,-49 0,-21 -6,-37 -20,-49 -13,-12 -29,-18 -47,-18 -19,0 -34,6 -47,19 -13,13 -19,29 -19,49 0,20 6,36 19,48zm43 115c48,0 72,-30 72,-91 0,-1 0,-1 0,-2l0 -3c-6,12 -15,21 -29,27 -13,7 -27,10 -42,10 -29,0 -53,-10 -73,-29 -20,-19 -30,-45 -30,-76 0,-31 10,-57 30,-76 20,-19 44,-29 73,-29 15,0 30,3 42,10 13,6 22,14 29,26l0 -32 39 0 0 171c0,88 -37,131 -111,131 -19,0 -37,-5 -53,-14 -16,-10 -29,-23 -38,-41 1,0 7,-3 17,-9l16 -8c5,10 14,19 25,25 11,6 22,9 34,9z"/>
  <path class="fil3" d="M1449 12580l0 -38 222 0 0 38 -91 0 0 260 -40 0 0 -260 -91 0zm407 208c13,-12 19,-28 19,-49 0,-21 -7,-37 -20,-49 -14,-12 -29,-18 -48,-18 -18,0 -34,6 -46,18 -12,12 -19,28 -19,48 0,20 6,36 19,48 13,13 28,19 47,19 19,0 34,-6 47,-18zm59 52l-39 0 0 -31c-6,11 -16,19 -29,26 -13,6 -27,10 -42,10 -28,0 -52,-10 -73,-29 -20,-20 -30,-45 -30,-76 0,-31 10,-56 29,-76 20,-19 44,-29 73,-29 15,0 29,3 42,9 13,7 23,15 29,26l0 -30 39 0 0 202zm117 -111l-66 -91 47 0 42 59 42 -59 47 0 -66 91 80 111 -47 0 -56 -78 -57 78 -46 0 80 -111zm354 9c0,9 0,14 0,15l-164 0c2,16 9,30 22,40 12,10 25,15 40,15 29,0 50,-10 61,-31 0,0 1,0 1,0 1,0 2,1 3,2 2,1 4,2 7,3 3,1 5,2 6,3l17 6c-8,17 -21,30 -38,39 -17,9 -35,14 -55,14 -29,0 -54,-10 -74,-29 -20,-20 -29,-45 -29,-77 0,-32 10,-57 29,-76 19,-19 44,-29 74,-29 30,0 54,10 72,29 19,19 28,44 28,76zm-59 -55c-11,-10 -25,-14 -42,-14 -17,0 -31,5 -43,14 -12,10 -19,24 -21,40l125 0c-2,-16 -9,-30 -20,-40zm123 -35c13,-10 30,-15 49,-15 19,0 35,5 47,15 13,10 20,24 21,42l-38 0c-1,-7 -5,-12 -10,-16 -6,-4 -13,-6 -21,-6 -8,0 -14,2 -20,5 -6,3 -9,7 -11,13 -2,6 -1,11 1,15 3,6 11,12 24,15l30 7c35,9 52,28 52,59 0,18 -8,33 -23,44 -15,11 -33,16 -54,16 -21,0 -38,-6 -54,-18 -15,-12 -23,-28 -23,-47l37 0c2,10 7,18 16,23 9,6 18,8 29,7 10,-1 18,-3 24,-8 6,-5 9,-11 10,-18 1,-7 -2,-13 -7,-17 -5,-4 -12,-7 -20,-9l-28 -6c-20,-5 -34,-13 -43,-23 -9,-11 -13,-24 -11,-40 2,-16 9,-29 22,-39z"/>
  <path class="fil4" d="M1467 13396l0 -38 222 0 0 38 -91 0 0 260 -40 0 0 -260 -91 0zm406 208c13,-12 19,-29 19,-49 0,-20 -6,-36 -19,-48 -13,-12 -28,-18 -47,-18 -19,0 -35,6 -47,18 -13,12 -19,28 -19,48 0,20 6,36 19,49 13,13 28,19 47,19 19,0 35,-6 47,-19zm-47 56c-29,0 -54,-10 -75,-29 -21,-19 -31,-45 -31,-76 0,-31 10,-57 30,-76 20,-19 45,-29 75,-29 30,0 55,10 75,29 20,20 31,45 31,76 0,31 -10,56 -31,76 -20,20 -45,29 -75,29zm212 -280l0 74 42 0 0 35 -42 0 0 167 -39 0 0 -167 -36 0 0 -35 36 0 0 -74 39 0zm227 223c13,-12 19,-28 19,-49 0,-21 -7,-37 -20,-49 -14,-12 -29,-18 -48,-18 -18,0 -34,6 -46,18 -12,12 -19,28 -19,48 0,20 6,36 19,48 13,13 28,19 47,19 19,0 34,-6 47,-18zm59 52l-39 0 0 -31c-6,11 -16,19 -29,26 -13,6 -27,10 -42,10 -28,0 -52,-10 -73,-29 -20,-20 -30,-45 -30,-76 0,-31 10,-56 29,-76 20,-19 44,-29 73,-29 15,0 29,3 42,9 13,7 23,15 29,26l0 -30 39 0 0 202zm65 0l0 -312 39 0 0 312 -39 0z"/>
  <path class="fil5" d="M7868 10852l1410 0c51,0 93,42 93,93l0 155c0,51 -42,93 -93,93l-1410 0c-51,0 -93,-42 -93,-93l0 -155c0,-51 42,-93 93,-93z"/>
  <path class="fil5" d="M7868 11681l1410 0c51,0 93,42 93,93l0 155c0,51 -42,93 -93,93l-1410 0c-51,0 -93,-42 -93,-93l0 -155c0,-51 42,-93 93,-93z"/>
  <path class="fil5" d="M7868 12516l1410 0c51,0 93,42 93,93l0 155c0,51 -42,93 -93,93l-1410 0c-51,0 -93,-42 -93,-93l0 -155c0,-51 42,-93 93,-93z"/>
  <path class="fil5" d="M7193 13379l2084 0c51,0 93,42 93,93l0 155c0,51 -42,93 -93,93l-2084 0c-51,0 -93,-42 -93,-93l0 -155c0,-51 42,-93 93,-93z"/>
  <rect class="fil6" x="1469" y="14280" width="7901" height="1145" rx="296" ry="291"/>
  <rect class="fil7 str0" x="1509" y="8390" width="7816" height="1884" rx="293" ry="479"/>
  <rect class="fil7 str0" x="1469" y="16092" width="7901" height="1145" rx="296" ry="291"/>
  <path class="fil8" d="M4288 16560l0 -37 218 0 0 37 -89 0 0 255 -39 0 0 -255 -89 0zm300 183l0 72 -39 0 0 -198 39 0 0 45c10,-33 28,-49 55,-49 16,0 27,3 34,8l-6 36c-9,-5 -18,-7 -29,-7 -17,0 -31,8 -40,25 -9,17 -14,40 -14,68zm266 21c13,-12 19,-28 19,-48 0,-20 -7,-36 -20,-48 -13,-12 -29,-17 -47,-18 -18,0 -33,6 -45,18 -12,12 -18,27 -18,47 0,19 6,35 19,48 12,12 28,19 46,19 18,0 34,-6 46,-18zm58 51l-39 0 0 -30c-6,10 -16,19 -28,25 -13,6 -26,10 -41,10 -27,0 -51,-10 -71,-29 -19,-19 -29,-44 -29,-74 0,-31 10,-55 29,-74 19,-19 43,-29 72,-29 14,0 28,3 41,9 13,7 22,15 28,25l0 -30 39 0 0 198zm157 -202c31,0 56,11 75,32l-29 24c-12,-12 -28,-19 -47,-19 -19,0 -34,6 -47,18 -13,12 -20,28 -20,47 0,20 7,36 20,48 13,12 29,19 48,19 19,0 34,-7 46,-20l30 25c-20,21 -45,32 -75,32 -30,0 -56,-10 -76,-29 -21,-19 -31,-44 -31,-75 0,-30 10,-55 30,-74 20,-19 46,-29 76,-29zm162 202l-39 0 0 -306 39 0 0 177 68 -69 53 0 -85 86 105 113 -51 0 -90 -97 0 97zm421 -51c12,-12 19,-28 19,-48 0,-20 -6,-36 -19,-48 -12,-12 -28,-18 -46,-18 -18,0 -34,6 -46,18 -13,12 -19,28 -19,48 0,20 6,36 19,48 12,12 28,19 46,19 19,0 34,-6 47,-18zm-46 55c-29,0 -53,-10 -73,-29 -20,-19 -30,-44 -30,-75 0,-31 10,-56 30,-75 20,-19 44,-29 74,-28 29,0 54,10 74,29 20,19 30,44 30,75 0,30 -10,55 -30,74 -20,19 -45,29 -73,29zm193 -76l0 72 -39 0 0 -198 39 0 0 45c10,-33 28,-49 55,-49 16,0 27,3 34,8l-6 36c-9,-5 -18,-7 -29,-7 -17,0 -31,8 -40,25 -9,17 -14,40 -14,68zm265 20c13,-12 19,-28 19,-48 0,-20 -7,-36 -20,-47 -13,-12 -29,-17 -47,-18 -18,0 -33,6 -45,18 -12,12 -18,28 -18,47 0,19 6,35 18,47 12,12 27,18 46,18 18,0 34,-6 46,-18zm58 52l-39 0 0 -30c-6,10 -16,19 -28,25 -13,6 -26,10 -41,10 -27,0 -51,-10 -71,-29 -19,-19 -29,-44 -29,-74 0,-31 10,-55 29,-74 19,-19 43,-29 71,-29 15,0 29,3 42,9 12,6 22,14 28,25l0 -137 39 0 0 306zm251 -100c0,9 0,14 0,15l-161 0c2,16 9,29 21,40 12,10 25,15 40,15 29,0 49,-10 60,-31 0,0 1,0 1,0 1,0 1,1 3,1 2,1 4,2 7,2 3,1 5,2 6,3l16 6c-8,17 -20,30 -37,39 -16,9 -34,14 -54,14 -28,0 -53,-10 -73,-29 -19,-19 -29,-44 -29,-75 0,-31 10,-56 29,-74 19,-19 43,-28 72,-28 29,0 53,9 71,28 19,19 28,44 28,74zm-58 -54c-11,-9 -25,-14 -41,-14 -16,0 -30,5 -42,14 -12,10 -18,23 -20,39l123 0c-2,-16 -8,-29 -19,-39zm145 82l0 72 -39 0 0 -198 39 0 0 45c10,-33 28,-49 55,-49 16,0 27,3 34,8l-6 36c-9,-5 -18,-7 -29,-7 -17,0 -31,8 -40,25 -9,17 -14,40 -14,68z"/>
  <path class="fil4" d="M3533 14918c-29,-29 -43,-65 -43,-106 0,-41 14,-77 43,-106 29,-29 65,-44 108,-44 43,0 79,16 107,49l-30 25c-22,-24 -49,-36 -79,-36 -31,0 -57,11 -78,33 -21,22 -31,48 -31,80 0,31 10,58 31,79 21,22 47,32 79,32 32,0 58,-13 79,-37l30 25c-28,33 -64,50 -108,50 -43,0 -79,-14 -108,-43zm395 -12c12,-12 19,-28 19,-48 0,-20 -6,-36 -19,-48 -12,-12 -28,-18 -46,-18 -18,0 -34,6 -46,18 -13,12 -19,28 -19,48 0,20 6,36 19,48 12,12 28,19 46,19 19,0 34,-6 47,-18zm-46 55c-29,0 -53,-10 -73,-29 -20,-19 -30,-44 -30,-75 0,-31 10,-56 30,-75 20,-19 44,-29 74,-28 29,0 54,10 74,29 20,19 30,44 30,75 0,30 -10,55 -30,74 -20,19 -45,29 -73,29zm330 -111l0 107 -39 0 0 -112c0,-16 -4,-29 -12,-38 -8,-9 -19,-14 -33,-14 -14,0 -27,5 -37,15 -11,10 -16,24 -16,43l0 107 -39 0 0 -198 39 0 0 30c5,-9 12,-17 23,-23 11,-6 21,-9 30,-10 38,-2 63,11 76,40 14,-27 37,-41 68,-41 25,0 44,8 57,23 13,15 20,37 20,65l0 114 -39 0 0 -112c0,-16 -4,-29 -12,-38 -9,-9 -20,-14 -35,-14 -15,0 -27,5 -36,16 -10,11 -15,25 -15,42zm256 -40c-12,12 -18,28 -18,49 0,20 6,36 19,47 13,11 28,17 46,17 18,0 33,-6 46,-18 12,-12 18,-27 18,-47 0,-19 -6,-35 -19,-48 -13,-12 -28,-19 -46,-19 -18,0 -34,6 -46,18zm-57 -52l39 0 0 31c6,-11 16,-20 28,-26 12,-7 26,-10 41,-10 28,0 51,10 70,29 19,19 29,44 29,75 0,31 -9,55 -28,74 -19,19 -42,29 -70,29 -15,0 -29,-3 -41,-9 -13,-6 -22,-14 -28,-25l0 126 -39 0 0 -294zm258 198l0 -306 39 0 0 306 -39 0zm289 -100c0,9 0,14 0,15l-161 0c2,16 9,29 21,40 12,10 25,15 40,15 29,0 49,-10 60,-31 0,0 1,0 1,0 1,0 1,1 3,1 2,1 4,2 7,2 3,1 5,2 6,3l16 6c-8,17 -20,30 -37,39 -16,9 -34,14 -54,14 -28,0 -53,-10 -73,-29 -19,-19 -29,-44 -29,-75 0,-31 10,-56 29,-74 19,-19 43,-28 72,-28 29,0 53,9 71,28 19,19 28,44 28,74zm-58 -54c-11,-9 -25,-14 -41,-14 -16,0 -30,5 -42,14 -12,10 -18,23 -20,39l123 0c-2,-16 -8,-29 -19,-39zm160 -117l0 73 42 0 0 34 -42 0 0 164 -39 0 0 -164 -36 0 0 -34 36 0 0 -73 39 0zm272 171c0,9 0,14 0,15l-161 0c2,16 9,29 21,40 12,10 25,15 40,15 29,0 49,-10 60,-31 0,0 1,0 1,0 1,0 1,1 3,1 2,1 4,2 7,2 3,1 5,2 6,3l16 6c-8,17 -20,30 -37,39 -16,9 -34,14 -54,14 -28,0 -53,-10 -73,-29 -19,-19 -29,-44 -29,-75 0,-31 10,-56 29,-74 19,-19 43,-28 72,-28 29,0 53,9 71,28 19,19 28,44 28,74zm-58 -54c-11,-9 -25,-14 -41,-14 -16,0 -30,5 -42,14 -12,10 -18,23 -20,39l123 0c-2,-16 -8,-29 -19,-39zm274 7c-12,12 -18,28 -18,49 0,20 6,36 19,47 13,11 28,17 46,17 18,0 33,-6 46,-18 12,-12 18,-27 18,-47 0,-19 -6,-35 -19,-48 -13,-12 -28,-19 -46,-19 -18,0 -34,6 -46,18zm-57 -52l39 0 0 31c6,-11 16,-20 28,-26 12,-7 26,-10 41,-10 28,0 51,10 70,29 19,19 29,44 29,75 0,31 -9,55 -28,74 -19,19 -42,29 -70,29 -15,0 -29,-3 -41,-9 -13,-6 -22,-14 -28,-25l0 126 -39 0 0 -294zm394 107l0 -107 39 0 0 198 -39 0 0 -30c-6,11 -14,19 -26,25 -11,6 -23,9 -36,9 -25,0 -43,-8 -57,-23 -13,-15 -20,-37 -20,-64l0 -115 39 0 0 112c0,16 4,29 11,39 8,9 19,14 34,14 15,0 28,-5 38,-14 10,-10 15,-24 15,-43zm141 19l0 72 -39 0 0 -198 39 0 0 45c10,-33 28,-49 55,-49 16,0 27,3 34,8l-6 36c-9,-5 -18,-7 -29,-7 -17,0 -31,8 -40,25 -9,17 -14,40 -14,68zm222 -130c31,0 56,11 75,32l-29 24c-12,-12 -28,-19 -47,-19 -19,0 -34,6 -47,18 -13,12 -20,28 -20,47 0,20 7,36 20,48 13,12 29,19 48,19 19,0 34,-7 46,-20l30 25c-20,21 -45,32 -75,32 -30,0 -56,-10 -76,-29 -21,-19 -31,-44 -31,-75 0,-30 10,-55 30,-74 20,-19 46,-29 76,-29zm162 95l0 107 -39 0 0 -306 39 0 0 137c5,-11 15,-20 28,-25 13,-6 26,-9 38,-9 25,0 45,8 59,23 14,16 21,37 21,64l0 114 -39 0 0 -112c0,-16 -4,-29 -13,-38 -8,-10 -20,-14 -35,-14 -15,0 -28,5 -41,14 -12,10 -18,24 -18,43zm345 55c13,-12 19,-28 19,-48 0,-20 -7,-36 -20,-48 -13,-12 -29,-17 -47,-18 -18,0 -33,6 -45,18 -12,12 -18,27 -18,47 0,19 6,35 19,48 12,12 28,19 46,19 18,0 34,-6 46,-18zm58 51l-39 0 0 -30c-6,10 -16,19 -28,25 -13,6 -26,10 -41,10 -27,0 -51,-10 -71,-29 -19,-19 -29,-44 -29,-74 0,-31 10,-55 29,-74 19,-19 43,-29 72,-29 14,0 28,3 41,9 13,7 22,15 28,25l0 -30 39 0 0 198zm78 -188c13,-10 29,-14 48,-14 19,0 34,5 46,14 12,10 19,23 21,41l-37 0c-1,-6 -5,-12 -10,-15 -6,-4 -13,-6 -21,-6 -8,0 -14,2 -19,5 -6,3 -9,7 -11,13 -1,6 -1,11 1,15 3,6 11,11 23,15l29 7c34,8 51,28 51,58 0,18 -7,32 -22,43 -15,11 -33,16 -53,16 -20,0 -38,-6 -53,-17 -15,-12 -22,-27 -23,-46l36 0c2,10 7,18 16,23 9,5 18,8 28,7 10,-1 18,-3 23,-8 6,-5 9,-11 9,-18 1,-7 -2,-12 -6,-17 -5,-4 -11,-7 -20,-9l-27 -6c-19,-5 -33,-13 -42,-23 -9,-10 -12,-24 -11,-39 1,-16 9,-28 22,-38zm359 88c0,9 0,14 0,15l-161 0c2,16 9,29 21,40 12,10 25,15 40,15 29,0 49,-10 60,-31 0,0 1,0 1,0 1,0 1,1 3,1 2,1 4,2 7,2 3,1 5,2 6,3l16 6c-8,17 -20,30 -37,39 -16,9 -34,14 -54,14 -28,0 -53,-10 -73,-29 -19,-19 -29,-44 -29,-75 0,-31 10,-56 29,-74 19,-19 43,-28 72,-28 29,0 53,9 71,28 19,19 28,44 28,74zm-58 -54c-11,-9 -25,-14 -41,-14 -16,0 -30,5 -42,14 -12,10 -18,23 -20,39l123 0c-2,-16 -8,-29 -19,-39z"/>
  <line class="fil7 str1" x1="1469" y1="6062" x2="9372" y2= "6042" />
  <path class="fil4" d="M1723 2634c-25,-27 -56,-40 -93,-40 -37,0 -68,13 -93,40 -25,27 -38,59 -38,97 0,38 12,70 38,96 25,26 56,39 93,39 37,0 68,-13 94,-39 25,-26 38,-58 38,-96 0,-38 -13,-70 -38,-96zm-272 96c0,-50 17,-93 52,-128 34,-35 77,-53 127,-53 50,0 93,18 127,53 34,35 52,78 52,129 0,51 -17,93 -52,129 -34,35 -77,53 -127,53 -50,0 -93,-18 -127,-53 -34,-35 -52,-78 -52,-128zm469 47l0 129 -47 0 0 -240 47 0 0 36c7,-13 17,-24 31,-31 14,-7 28,-11 44,-11 30,0 53,9 68,28 16,18 24,44 24,78l0 139 -47 0 0 -135c0,-20 -5,-36 -14,-47 -9,-11 -23,-17 -41,-17 -18,0 -34,6 -46,18 -13,12 -19,29 -19,52zm468 9c0,11 0,17 -1,18l-194 0c2,19 11,35 26,48 14,12 30,18 48,18 35,0 59,-12 73,-37 0,0 1,0 2,0 1,0 2,1 4,2 2,1 5,2 8,3 3,1 6,2 8,3l20 7c-10,20 -25,36 -45,47 -20,11 -42,17 -66,17 -34,0 -64,-12 -88,-35 -23,-23 -35,-54 -35,-91 0,-37 12,-67 35,-90 23,-23 52,-34 88,-34 35,0 64,11 86,34 22,23 34,53 34,90zm-70 -66c-13,-11 -30,-17 -50,-17 -20,0 -37,6 -51,17 -14,12 -22,28 -25,47l149 0c-2,-19 -10,-35 -24,-47zm475 57l0 129 -47 0 0 -136c0,-20 -5,-35 -14,-46 -9,-11 -23,-17 -40,-17 -17,0 -32,6 -45,18 -13,12 -19,29 -19,52l0 129 -47 0 0 -240 47 0 0 36c6,-11 15,-21 27,-28 13,-7 25,-11 36,-12 46,-3 77,13 92,48 17,-33 44,-50 83,-50 30,0 53,9 68,28 16,18 24,44 24,78l0 139 -47 0 0 -135c0,-19 -5,-35 -15,-47 -10,-11 -25,-17 -42,-17 -18,0 -32,6 -44,19 -12,13 -18,30 -18,51zm406 67c15,-15 22,-34 22,-58 0,-24 -8,-43 -22,-58 -15,-14 -34,-22 -56,-22 -22,0 -41,7 -56,22 -15,15 -23,34 -23,58 0,24 8,43 22,58 15,15 34,22 56,22 23,0 41,-7 56,-22zm-56 67c-35,0 -64,-12 -89,-35 -24,-23 -37,-53 -37,-90 0,-37 12,-67 36,-90 24,-23 54,-35 89,-34 36,0 65,12 89,35 24,23 36,53 36,90 0,37 -12,67 -36,90 -24,23 -54,35 -89,35zm234 -92l0 87 -47 0 0 -240 47 0 0 54c12,-39 34,-59 67,-59 19,0 33,3 42,9l-7 44c-11,-6 -22,-8 -35,-8 -21,0 -37,10 -49,30 -11,20 -17,48 -17,83zm382 -33c0,11 0,17 -1,18l-194 0c2,19 11,35 26,48 14,12 30,18 48,18 35,0 59,-12 73,-37 0,0 1,0 2,0 1,0 2,1 4,2 2,1 5,2 8,3 3,1 6,2 8,3l20 7c-10,20 -25,36 -45,47 -20,11 -42,17 -66,17 -34,0 -64,-12 -88,-35 -23,-23 -35,-54 -35,-91 0,-37 12,-67 35,-90 23,-23 52,-34 88,-34 35,0 64,11 86,34 22,23 34,53 34,90zm-70 -66c-13,-11 -30,-17 -50,-17 -20,0 -37,6 -51,17 -14,12 -22,28 -25,47l149 0c-2,-19 -10,-35 -24,-47zm279 -41c16,-12 35,-18 58,-18 23,0 41,6 56,17 15,12 23,28 25,50l-45 0c-1,-8 -5,-14 -12,-19 -8,-5 -16,-7 -25,-7 -9,0 -17,2 -23,6 -7,3 -11,8 -13,16 -2,8 -2,14 1,18 4,8 13,14 28,18l35 9c41,10 62,34 62,70 0,22 -9,39 -27,53 -18,13 -40,19 -64,19 -24,0 -46,-7 -64,-21 -18,-14 -27,-33 -28,-56l44 0c2,12 8,22 19,27 10,7 22,9 34,9 12,-1 22,-4 28,-10 7,-6 10,-13 11,-21 1,-8 -2,-15 -8,-20 -6,-5 -14,-9 -24,-11l-33 -8c-23,-6 -40,-15 -51,-28 -11,-13 -15,-28 -13,-48 2,-19 11,-34 27,-46zm273 -100l0 88 50 0 0 42 -50 0 0 198 -47 0 0 -198 -43 0 0 -42 43 0 0 -88 47 0zm329 207c0,11 0,17 -1,18l-194 0c2,19 11,35 26,48 14,12 30,18 48,18 35,0 59,-12 73,-37 0,0 1,0 2,0 1,0 2,1 4,2 2,1 5,2 8,3 3,1 6,2 8,3l20 7c-10,20 -25,36 -45,47 -20,11 -42,17 -66,17 -34,0 -64,-12 -88,-35 -23,-23 -35,-54 -35,-91 0,-37 12,-67 35,-90 23,-23 52,-34 88,-34 35,0 64,11 86,34 22,23 34,53 34,90zm-70 -66c-13,-11 -30,-17 -50,-17 -20,0 -37,6 -51,17 -14,12 -22,28 -25,47l149 0c-2,-19 -10,-35 -24,-47zm199 9c-15,15 -22,34 -22,59 0,24 8,44 24,57 16,14 34,21 56,21 22,0 40,-7 55,-22 14,-14 22,-33 22,-56 0,-23 -8,-43 -23,-58 -15,-15 -34,-23 -56,-23 -22,0 -41,7 -55,22zm-69 -63l47 0 0 38c8,-13 19,-24 34,-31 15,-8 31,-12 49,-12 33,0 62,12 85,35 23,23 35,53 35,90 0,37 -11,67 -34,90 -23,23 -51,35 -85,35 -18,0 -35,-4 -50,-11 -15,-7 -26,-17 -34,-30l0 152 -47 0 0 -356zm308 213c0,-9 3,-17 10,-23 6,-6 14,-10 24,-10 9,0 17,3 24,9 7,6 10,14 10,23 0,9 -3,17 -10,23 -7,6 -15,9 -24,9 -9,0 -17,-3 -24,-9 -6,-6 -10,-14 -10,-23zm136 0c0,-9 3,-17 10,-23 6,-6 14,-10 24,-10 9,0 17,3 24,9 7,6 10,14 10,23 0,9 -3,17 -10,23 -7,6 -15,9 -24,9 -9,0 -17,-3 -24,-9 -6,-6 -10,-14 -10,-23zm136 0c0,-9 3,-17 10,-23 6,-6 14,-10 24,-10 9,0 17,3 24,9 7,6 10,14 10,23 0,9 -3,17 -10,23 -7,6 -15,9 -24,9 -9,0 -17,-3 -24,-9 -6,-6 -10,-14 -10,-23z"/>
  <path class="fil2" d="M7572 4270l659 -648c7,0 14,0 20,0l-659 648 -20 0z"/>
  <path class="fil9" d="M1872 3953l-4 17 -345 79c-10,3 -15,12 -16,26l3 371c-2,11 2,13 11,10l349 -133 41 10 -381 145c-9,5 -49,-6 -51,-19l-4 -389c-1,-19 9,-30 27,-34l371 -83z"/>
  <polygon class="fil9" points="2360,4211 2429,4225 2429,4242 2358,4224 "/>
  <path class="fil9" d="M2404 4024l-383 110c-30,6 -44,22 -39,48l-6 407c1,23 45,35 60,27l404 -194c16,-4 22,-17 24,-35l-2 -344c-3,-17 -20,-25 -58,-20zm23 15l-382 110c-16,7 -24,19 -23,36l-9 409 405 -192c8,-3 11,-13 12,-24l-3 -339z"/>
  <path class="fil10" d="M2344 4272l-50 6c13,-26 15,-55 11,-85 6,0 9,-5 10,-13l17 -113 56 -16c-11,75 -23,145 -36,206l-3 11 -5 4zm-9 -228l33 -217 6 -26 5 -6 6 -5 8 -1 10 0 11 1 7 0 3 2 0 9 -3 16c-9,72 -19,143 -29,211l-56 16z"/>
  <path class="fil9" d="M2423 3791l-6 -8 -17 -8 -20 -5 -26 -5c-136,-24 -272,-40 -408,-44l-17 4 -17 11 -8 20 -10 33c-5,63 -12,125 -26,179l-23 120c85,10 161,21 226,32l264 -76 37 -236c2,-11 8,-16 16,-18l34 2zm-304 337c103,20 169,41 186,65 7,0 11,-6 11,-19l17 -108 -213 62z"/>
  <path class="fil10" d="M1509 4133l9 -7 30 -11 52 -10 71 -11 69 -4 52 -3 49 1 10 -2c80,11 156,21 222,33l-51 15c-30,6 -44,22 -39,48l-1 52 -1 0 -472 -100zm610 -5c101,19 171,41 186,65 5,31 1,59 -11,85l-272 47 -2 2 3 -142c-2,-17 6,-29 23,-36l74 -21z"/>
  <polygon class="fil9" points="1508,4234 1508,4135 1513,4133 1597,4152 1981,4234 1981,4280 1980,4351 "/>
  <path class="fil11" d="M2804 4022l29 0c0,10 5,18 13,26 8,8 19,12 32,11 13,0 23,-3 31,-9 7,-6 12,-13 13,-23 2,-19 -10,-32 -36,-38l-28 -7c-35,-9 -52,-27 -52,-56 0,-18 7,-32 20,-43 13,-11 29,-17 49,-17 19,0 36,6 49,17 13,11 20,27 20,45l-29 0c0,-11 -4,-19 -11,-25 -8,-6 -17,-10 -28,-10 -11,0 -21,3 -29,9 -8,6 -12,13 -12,23 0,14 10,24 31,29l28 7c20,5 35,14 45,25 10,12 14,26 12,42 -2,17 -9,30 -22,41 -13,11 -29,16 -50,16 -20,0 -38,-6 -53,-19 -14,-13 -21,-28 -21,-45z"/>
  <polygon id="1" class="fil11" points="3028,3886 3028,3938 3058,3938 3058,3964 3028,3964 3028,4083 3000,4083 3000,3964 2974,3964 2974,3938 3000,3938 3000,3886 "/>
  <polygon id="2" class="fil11" points="3219,3938 3130,4153 3100,4153 3131,4079 3073,3938 3103,3938 3146,4043 3189,3938 "/>
  <polygon id="3" class="fil11" points="3248,4083 3248,3860 3276,3860 3276,4083 "/>
  <path id="4" class="fil11" d="M3323 3898c-4,-4 -5,-8 -5,-13 0,-5 2,-9 5,-13 4,-4 9,-5 14,-5 5,0 10,2 14,5 4,3 6,8 6,13 0,5 -2,10 -6,13 -4,3 -9,5 -14,5 -5,0 -10,-2 -14,-5zm28 185l-28 0 0 -145 28 0 0 145z"/>
  <path id="5" class="fil11" d="M3408 3946c10,-7 21,-11 35,-11 14,0 25,4 34,11 9,7 14,17 15,30l-27 0c-1,-5 -3,-8 -7,-11 -5,-3 -10,-4 -15,-4 -6,0 -10,1 -14,4 -4,2 -7,5 -8,10 -1,5 -1,8 0,11 2,5 8,8 17,11l21 5c25,6 38,20 38,42 0,13 -5,24 -16,32 -11,8 -24,12 -39,12 -15,0 -28,-4 -38,-13 -11,-8 -16,-20 -17,-34l27 0c1,7 5,13 12,17 6,4 13,6 20,5 7,0 13,-2 17,-6 4,-4 6,-8 7,-13 0,-5 -1,-9 -5,-12 -4,-3 -8,-5 -15,-7l-20 -5c-14,-4 -24,-9 -31,-17 -6,-8 -9,-17 -8,-29 1,-12 6,-21 16,-28z"/>
  <path id="6" class="fil11" d="M3562 4005l0 78 -28 0 0 -223 28 0 0 100c4,-8 11,-14 20,-18 9,-4 19,-6 28,-6 18,0 33,6 43,17 10,11 16,27 15,47l0 84 -28 0 0 -82c0,-12 -3,-21 -10,-28 -6,-7 -15,-11 -26,-11 -11,0 -21,3 -30,10 -9,7 -13,18 -13,32z"/>
  <path id="7" class="fil11" d="M3837 3976c-10,9 -15,20 -15,35 0,15 5,26 14,35 9,9 21,13 34,13 13,0 24,-5 33,-14 9,-9 14,-21 14,-35 0,-14 -4,-25 -13,-34 -9,-9 -20,-13 -33,-13 -13,0 -24,4 -34,13zm-15 107l-28 0 0 -223 28 0 0 100c10,-17 27,-25 51,-25 21,0 38,7 52,21 14,14 21,32 21,54 0,22 -7,41 -22,55 -14,14 -32,21 -52,21 -11,0 -21,-2 -30,-7 -9,-5 -16,-11 -21,-18l0 22z"/>
  <polygon id="8" class="fil11" points="3984,4083 3984,3860 4012,3860 4012,4083 "/>
  <path id="9" class="fil11" d="M4158 4017l0 -78 28 0 0 145 -28 0 0 -22c-4,8 -10,14 -19,18 -8,4 -17,6 -26,6 -18,0 -32,-6 -41,-17 -10,-11 -14,-27 -14,-47l0 -84 28 0 0 82c0,12 3,21 8,28 6,7 14,10 25,10 11,0 20,-4 28,-11 7,-7 11,-18 11,-31z"/>
  <path id="10" class="fil11" d="M4369 4010c0,6 0,10 0,11l-117 0c1,12 7,21 15,29 9,7 18,11 29,11 21,0 36,-7 44,-22 0,0 1,0 1,0 0,0 1,1 2,1 1,1 3,1 5,2 2,1 4,1 5,2l12 4c-6,12 -15,22 -27,28 -12,7 -25,10 -40,10 -21,0 -38,-7 -53,-21 -14,-14 -21,-32 -21,-55 0,-23 7,-41 21,-54 14,-14 32,-20 53,-21 21,0 39,7 52,21 14,14 20,32 20,54zm-42 -40c-8,-7 -18,-10 -30,-10 -12,0 -22,3 -31,10 -8,7 -13,17 -15,29l90 0c-1,-12 -6,-21 -14,-29z"/>
  <path id="11" class="fil11" d="M4495 3946c10,-7 21,-11 35,-11 14,0 25,4 34,11 9,7 14,17 15,30l-27 0c-1,-5 -3,-8 -7,-11 -5,-3 -10,-4 -15,-4 -6,0 -10,1 -14,4 -4,2 -7,5 -8,10 -1,5 -1,8 0,11 2,5 8,8 17,11l21 5c25,6 38,20 38,42 0,13 -5,24 -16,32 -11,8 -24,12 -39,12 -15,0 -28,-4 -38,-13 -11,-8 -16,-20 -17,-34l27 0c1,7 5,13 12,17 6,4 13,6 20,5 7,0 13,-2 17,-6 4,-4 6,-8 7,-13 0,-5 -1,-9 -5,-12 -4,-3 -8,-5 -15,-7l-20 -5c-14,-4 -24,-9 -31,-17 -6,-8 -9,-17 -8,-29 1,-12 6,-21 16,-28z"/>
  <path id="12" class="fil11" d="M4720 4017l0 -78 28 0 0 145 -28 0 0 -22c-4,8 -10,14 -19,18 -8,4 -17,6 -26,6 -18,0 -32,-6 -41,-17 -10,-11 -14,-27 -14,-47l0 -84 28 0 0 82c0,12 3,21 8,28 6,7 14,10 25,10 11,0 20,-4 28,-11 7,-7 11,-18 11,-31z"/>
  <path id="13" class="fil11" d="M4931 4010c0,6 0,10 0,11l-117 0c1,12 7,21 15,29 9,7 18,11 29,11 21,0 36,-7 44,-22 0,0 1,0 1,0 0,0 1,1 2,1 1,1 3,1 5,2 2,1 4,1 5,2l12 4c-6,12 -15,22 -27,28 -12,7 -25,10 -40,10 -21,0 -38,-7 -53,-21 -14,-14 -21,-32 -21,-55 0,-23 7,-41 21,-54 14,-14 32,-20 53,-21 21,0 39,7 52,21 14,14 20,32 20,54zm-42 -40c-8,-7 -18,-10 -30,-10 -12,0 -22,3 -31,10 -8,7 -13,17 -15,29l90 0c-1,-12 -6,-21 -14,-29z"/>
  <path id="14" class="fil11" d="M5067 4045c9,-9 14,-20 14,-35 0,-15 -5,-26 -15,-35 -10,-8 -21,-13 -34,-13 -13,0 -24,4 -33,13 -9,9 -13,20 -13,34 0,14 4,26 13,35 9,9 20,13 33,13 13,0 25,-4 34,-13zm43 38l-28 0 0 -22c-5,8 -11,14 -21,18 -9,5 -19,7 -30,7 -20,0 -37,-7 -52,-21 -14,-14 -21,-32 -21,-54 0,-22 7,-40 21,-54 14,-14 31,-21 52,-21 11,0 21,2 30,7 9,4 16,10 21,18l0 -100 28 0 0 223z"/>
  <path id="15" class="fil11" d="M5293 4010c0,6 0,10 0,11l-117 0c1,12 7,21 15,29 9,7 18,11 29,11 21,0 36,-7 44,-22 0,0 1,0 1,0 0,0 1,1 2,1 1,1 3,1 5,2 2,1 4,1 5,2l12 4c-6,12 -15,22 -27,28 -12,7 -25,10 -40,10 -21,0 -38,-7 -53,-21 -14,-14 -21,-32 -21,-55 0,-23 7,-41 21,-54 14,-14 32,-20 53,-21 21,0 39,7 52,21 14,14 20,32 20,54zm-42 -40c-8,-7 -18,-10 -30,-10 -12,0 -22,3 -31,10 -8,7 -13,17 -15,29l90 0c-1,-12 -6,-21 -14,-29z"/>
  <path id="16" class="fil11" d="M5478 3935c22,0 41,8 55,23l-21 18c-9,-9 -20,-14 -34,-14 -14,0 -25,4 -35,13 -10,9 -14,20 -14,35 0,14 5,26 14,35 10,9 21,14 35,14 14,0 25,-5 34,-14l22 18c-14,15 -33,23 -55,23 -22,0 -41,-7 -56,-21 -15,-14 -23,-32 -23,-55 0,-22 7,-40 22,-54 15,-14 33,-21 56,-21z"/>
  <path id="17" class="fil11" d="M5596 4005l0 78 -28 0 0 -223 28 0 0 100c4,-8 11,-14 20,-18 9,-4 19,-6 28,-6 18,0 33,6 43,17 10,11 16,27 15,47l0 84 -28 0 0 -82c0,-12 -3,-21 -10,-28 -6,-7 -15,-11 -26,-11 -11,0 -21,3 -30,10 -9,7 -13,18 -13,32z"/>
  <path id="18" class="fil11" d="M5848 4046c9,-9 14,-20 14,-35 0,-15 -5,-26 -15,-35 -10,-8 -21,-13 -34,-13 -13,0 -24,4 -33,13 -9,9 -13,20 -13,34 0,14 5,26 14,35 9,9 20,14 34,14 13,0 25,-4 34,-13zm42 37l-28 0 0 -22c-5,8 -11,14 -21,18 -9,5 -19,7 -30,7 -20,0 -37,-7 -52,-21 -14,-14 -21,-32 -21,-54 0,-22 7,-40 21,-54 14,-14 32,-21 53,-21 10,0 21,2 30,7 9,5 16,11 20,18l0 -22 28 0 0 145z"/>
  <path id="19" class="fil11" d="M5937 3898c-4,-4 -5,-8 -5,-13 0,-5 2,-9 5,-13 4,-4 9,-5 14,-5 5,0 10,2 14,5 4,3 6,8 6,13 0,5 -2,10 -6,13 -4,3 -9,5 -14,5 -5,0 -10,-2 -14,-5zm28 185l-28 0 0 -145 28 0 0 145z"/>
  <path id="20" class="fil11" d="M6040 4031l0 53 -28 0 0 -145 28 0 0 33c7,-24 20,-36 40,-36 11,0 20,2 25,6l-4 26c-6,-3 -13,-5 -21,-5 -13,0 -23,6 -29,18 -7,12 -10,29 -10,50z"/>
  <path id="21" class="fil11" d="M2898 4221l-52 0 0 80 51 0c12,0 21,-4 27,-11 6,-8 9,-17 9,-29 0,-12 -3,-21 -9,-29 -6,-7 -14,-11 -26,-11zm-52 107l0 80 -29 0 0 -213 82 0c21,0 37,6 47,20 10,13 16,28 16,46 0,18 -5,33 -14,46 -9,12 -23,19 -41,21l57 81 -35 0 -55 -80 -27 0z"/>
  <polygon id="22" class="fil11" points="3054,4407 3026,4407 3026,4240 2993,4252 2993,4225 3054,4203 "/>
  <path id="23" class="fil11" d="M3108 4446l-20 -7c15,-20 22,-43 21,-68l29 0c-1,17 -5,32 -10,45 -6,13 -12,23 -20,29z"/>
  <path id="24" class="fil11" d="M3282 4317c-7,-8 -16,-12 -26,-12 -11,0 -20,3 -28,10 -8,7 -12,16 -12,27 0,11 3,20 11,28 7,8 17,12 27,12 11,0 20,-3 27,-10 8,-7 12,-16 12,-28 0,-11 -3,-20 -10,-28zm11 -65c-8,-15 -19,-23 -33,-23 -15,0 -26,7 -34,20 -8,13 -12,30 -10,51 6,-15 20,-23 42,-23 18,0 33,7 45,21 12,14 18,30 17,49 -1,18 -8,34 -21,46 -13,12 -29,18 -47,18 -18,-1 -33,-8 -45,-20 -12,-12 -18,-30 -20,-52 -2,-22 0,-47 4,-74 3,-19 11,-34 23,-45 13,-12 28,-17 46,-16 13,1 25,4 35,10 10,6 17,16 23,29l-25 11z"/>
  <path id="25" class="fil11" d="M3458 4271c0,-11 -4,-20 -11,-28 -7,-8 -16,-12 -27,-12 -10,0 -20,3 -27,10 -7,7 -11,16 -12,27 0,11 3,20 10,28 7,8 16,12 27,12 11,0 20,-3 27,-10 8,-7 12,-16 13,-27zm-42 65c-18,0 -33,-7 -45,-21 -12,-14 -18,-30 -17,-49 1,-19 8,-34 21,-47 13,-12 29,-18 47,-17 18,1 33,7 45,20 12,12 18,30 20,52 2,22 0,47 -4,74 -3,19 -11,34 -24,45 -13,12 -28,17 -46,16 -13,-1 -25,-4 -34,-10 -10,-6 -18,-16 -23,-29l25 -10c8,15 19,23 34,23 14,0 26,-7 34,-20 8,-13 12,-30 10,-51 -6,16 -20,23 -41,23z"/>
  <path id="26" class="fil11" d="M3630 4271c0,-11 -4,-20 -11,-28 -7,-8 -16,-12 -27,-12 -10,0 -20,3 -27,10 -7,7 -11,16 -12,27 0,11 3,20 10,28 7,8 16,12 27,12 11,0 20,-3 27,-10 8,-7 12,-16 13,-27zm-42 65c-18,0 -33,-7 -45,-21 -12,-14 -18,-30 -17,-49 1,-19 8,-34 21,-47 13,-12 29,-18 47,-17 18,1 33,7 45,20 12,12 18,30 20,52 2,22 0,47 -4,74 -3,19 -11,34 -24,45 -13,12 -28,17 -46,16 -13,-1 -25,-4 -34,-10 -10,-6 -18,-16 -23,-29l25 -10c8,15 19,23 34,23 14,0 26,-7 34,-20 8,-13 12,-30 10,-51 -6,16 -20,23 -41,23z"/>
  <path id="27" class="fil11" d="M3699 4391c0,-5 2,-10 6,-14 4,-4 9,-6 14,-6 6,0 10,2 14,6 4,4 6,8 6,14 0,6 -2,10 -6,14 -4,4 -9,5 -14,5 -5,0 -10,-2 -14,-5 -4,-4 -6,-8 -6,-14z"/>
  <path id="28" class="fil11" d="M3890 4363c7,-13 11,-32 11,-57 0,-25 -4,-44 -11,-57 -7,-13 -19,-19 -35,-19 -16,0 -28,7 -35,19 -7,13 -11,32 -11,57 0,25 4,44 11,57 7,13 19,19 35,19 16,0 28,-6 35,-19zm-108 -57c0,-30 5,-54 15,-73 11,-20 31,-31 59,-31 28,0 48,10 58,31 10,18 15,42 15,73 0,31 -5,55 -15,73 -11,20 -30,31 -59,31 -49,0 -74,-35 -74,-104z"/>
  <path id="29" class="fil11" d="M4077 4363c7,-13 11,-32 11,-57 0,-25 -4,-44 -11,-57 -7,-13 -19,-19 -35,-19 -16,0 -28,7 -35,19 -7,13 -11,32 -11,57 0,25 4,44 11,57 7,13 19,19 35,19 16,0 28,-6 35,-19zm-108 -57c0,-30 5,-54 15,-73 11,-20 31,-31 59,-31 28,0 48,10 58,31 10,18 15,42 15,73 0,31 -5,55 -15,73 -11,20 -30,31 -59,31 -49,0 -74,-35 -74,-104z"/>
  <polygon class="fil11" points="2804,5413 2804,5200 2928,5200 2928,5227 2833,5227 2833,5295 2909,5295 2909,5322 2833,5322 2833,5413 "/>
  <path id="1" class="fil11" d="M2990 5361l0 53 -28 0 0 -145 28 0 0 33c7,-24 20,-36 40,-36 11,0 20,2 25,6l-4 26c-6,-3 -13,-5 -21,-5 -13,0 -23,6 -29,18 -7,12 -10,29 -10,50z"/>
  <path id="2" class="fil11" d="M3220 5340c0,6 0,10 0,11l-117 0c1,12 7,21 15,29 9,7 18,11 29,11 21,0 36,-7 44,-22 0,0 1,0 1,0 0,0 1,1 2,1 1,1 3,1 5,2 2,1 4,1 5,2l12 4c-6,12 -15,22 -27,28 -12,7 -25,10 -40,10 -21,0 -38,-7 -53,-21 -14,-14 -21,-32 -21,-55 0,-23 7,-41 21,-54 14,-14 32,-20 53,-21 21,0 39,7 52,21 14,14 20,32 20,54zm-42 -40c-8,-7 -18,-10 -30,-10 -12,0 -22,3 -31,10 -8,7 -13,17 -15,29l90 0c-1,-12 -6,-21 -14,-29z"/>
  <path id="3" class="fil11" d="M3392 5340c0,6 0,10 0,11l-117 0c1,12 7,21 15,29 9,7 18,11 29,11 21,0 36,-7 44,-22 0,0 1,0 1,0 0,0 1,1 2,1 1,1 3,1 5,2 2,1 4,1 5,2l12 4c-6,12 -15,22 -27,28 -12,7 -25,10 -40,10 -21,0 -38,-7 -53,-21 -14,-14 -21,-32 -21,-55 0,-23 7,-41 21,-54 14,-14 32,-20 53,-21 21,0 39,7 52,21 14,14 20,32 20,54zm-42 -40c-8,-7 -18,-10 -30,-10 -12,0 -22,3 -31,10 -8,7 -13,17 -15,29l90 0c-1,-12 -6,-21 -14,-29z"/>
  <path id="4" class="fil11" d="M3608 5376c9,-9 14,-20 14,-35 0,-15 -5,-26 -15,-35 -10,-8 -21,-13 -34,-13 -13,0 -24,4 -33,13 -9,9 -13,20 -13,34 0,14 4,26 13,35 9,9 20,13 33,13 13,0 25,-4 34,-13zm43 38l-28 0 0 -22c-5,8 -11,14 -21,18 -9,5 -19,7 -30,7 -20,0 -37,-7 -52,-21 -14,-14 -21,-32 -21,-54 0,-22 7,-40 21,-54 14,-14 31,-21 52,-21 11,0 21,2 30,7 9,4 16,10 21,18l0 -100 28 0 0 223z"/>
  <path id="5" class="fil11" d="M3834 5340c0,6 0,10 0,11l-117 0c1,12 7,21 15,29 9,7 18,11 29,11 21,0 36,-7 44,-22 0,0 1,0 1,0 0,0 1,1 2,1 1,1 3,1 5,2 2,1 4,1 5,2l12 4c-6,12 -15,22 -27,28 -12,7 -25,10 -40,10 -21,0 -38,-7 -53,-21 -14,-14 -21,-32 -21,-55 0,-23 7,-41 21,-54 14,-14 32,-20 53,-21 21,0 39,7 52,21 14,14 20,32 20,54zm-42 -40c-8,-7 -18,-10 -30,-10 -12,0 -22,3 -31,10 -8,7 -13,17 -15,29l90 0c-1,-12 -6,-21 -14,-29z"/>
  <polygon id="6" class="fil11" points="3870,5413 3870,5190 3898,5190 3898,5413 "/>
  <path id="7" class="fil11" d="M3945 5228c-4,-4 -5,-8 -5,-13 0,-5 2,-9 5,-13 4,-4 9,-5 14,-5 5,0 10,2 14,5 4,3 6,8 6,13 0,5 -2,10 -6,13 -4,3 -9,5 -14,5 -5,0 -10,-2 -14,-5zm28 185l-28 0 0 -145 28 0 0 145z"/>
  <polygon id="8" class="fil11" points="4062,5413 4002,5269 4031,5269 4075,5377 4119,5269 4149,5269 "/>
  <path id="9" class="fil11" d="M4314 5340c0,6 0,10 0,11l-117 0c1,12 7,21 15,29 9,7 18,11 29,11 21,0 36,-7 44,-22 0,0 1,0 1,0 0,0 1,1 2,1 1,1 3,1 5,2 2,1 4,1 5,2l12 4c-6,12 -15,22 -27,28 -12,7 -25,10 -40,10 -21,0 -38,-7 -53,-21 -14,-14 -21,-32 -21,-55 0,-23 7,-41 21,-54 14,-14 32,-20 53,-21 21,0 39,7 52,21 14,14 20,32 20,54zm-42 -40c-8,-7 -18,-10 -30,-10 -12,0 -22,3 -31,10 -8,7 -13,17 -15,29l90 0c-1,-12 -6,-21 -14,-29z"/>
  <path id="10" class="fil11" d="M4378 5361l0 53 -28 0 0 -145 28 0 0 33c7,-24 20,-36 40,-36 11,0 20,2 25,6l-4 26c-6,-3 -13,-5 -21,-5 -13,0 -23,6 -29,18 -7,12 -10,29 -10,50z"/>
  <polygon id="11" class="fil11" points="4601,5269 4511,5483 4482,5483 4512,5409 4454,5269 4484,5269 4527,5373 4571,5269 "/>
  <path id="12" class="fil11" d="M2885 5551l-52 0 0 80 51 0c12,0 21,-4 27,-11 6,-8 9,-17 9,-29 0,-12 -3,-21 -9,-29 -6,-7 -14,-11 -26,-11zm-52 107l0 80 -29 0 0 -213 82 0c21,0 37,6 47,20 10,13 16,28 16,46 0,18 -5,33 -14,46 -9,12 -23,19 -41,21l57 81 -35 0 -55 -80 -27 0z"/>
  <path id="13" class="fil11" d="M3095 5693c7,-13 11,-32 11,-57 0,-25 -4,-44 -11,-57 -7,-13 -19,-19 -35,-19 -16,0 -28,7 -35,19 -7,13 -11,32 -11,57 0,25 4,44 11,57 7,13 19,19 35,19 16,0 28,-6 35,-19zm-108 -57c0,-30 5,-54 15,-73 11,-20 31,-31 59,-31 28,0 48,10 58,31 10,18 15,42 15,73 0,31 -5,55 -15,73 -11,20 -30,31 -59,31 -49,0 -74,-35 -74,-104z"/>
  <path id="14" class="fil11" d="M3175 5721c0,-5 2,-10 6,-14 4,-4 9,-6 14,-6 6,0 10,2 14,6 4,4 6,8 6,14 0,6 -2,10 -6,14 -4,4 -9,5 -14,5 -5,0 -10,-2 -14,-5 -4,-4 -6,-8 -6,-14z"/>
  <path id="15" class="fil11" d="M3365 5693c7,-13 11,-32 11,-57 0,-25 -4,-44 -11,-57 -7,-13 -19,-19 -35,-19 -16,0 -28,7 -35,19 -7,13 -11,32 -11,57 0,25 4,44 11,57 7,13 19,19 35,19 16,0 28,-6 35,-19zm-108 -57c0,-30 5,-54 15,-73 11,-20 31,-31 59,-31 28,0 48,10 58,31 10,18 15,42 15,73 0,31 -5,55 -15,73 -11,20 -30,31 -59,31 -49,0 -74,-35 -74,-104z"/>
  <path id="16" class="fil11" d="M3553 5693c7,-13 11,-32 11,-57 0,-25 -4,-44 -11,-57 -7,-13 -19,-19 -35,-19 -16,0 -28,7 -35,19 -7,13 -11,32 -11,57 0,25 4,44 11,57 7,13 19,19 35,19 16,0 28,-6 35,-19zm-108 -57c0,-30 5,-54 15,-73 11,-20 31,-31 59,-31 28,0 48,10 58,31 10,18 15,42 15,73 0,31 -5,55 -15,73 -11,20 -30,31 -59,31 -49,0 -74,-35 -74,-104z"/>
  <circle class="fil6" cx="7592" cy="4116" r="254"/>
  <circle class="fil6" cx="7610" cy="5429" r="254"/>
  <circle class="fil6" cx="9101" cy="4116" r="254"/>
  <circle class="fil6" cx="9119" cy="5429" r="254"/>
  <polygon class="fil11" points="8405,4259 8366,4259 8366,4026 8321,4042 8321,4005 8405,3974 "/>
  <polygon class="fil11" points="8424,5571 8384,5571 8384,5338 8339,5354 8339,5317 8424,5286 "/>
  <line class="fil7 str1" x1="1477" y1="4829" x2="9369" y2= "4808" />
  <line class="fil7 str2" x1="7475" y1="4116" x2="7705" y2= "4116" />
  <line class="fil7 str2" x1="8985" y1="4116" x2="9216" y2= "4116" />
  <line class="fil7 str2" x1="9101" y1="4232" x2="9101" y2= "4001" />
  <line class="fil7 str2" x1="9004" y1="5429" x2="9235" y2= "5429" />
  <line class="fil7 str2" x1="9119" y1="5544" x2="9119" y2= "5313" />
  <line class="fil7 str2" x1="7492" y1="5429" x2="7729" y2= "5427" />
  <path class="fil12 str0" d="M1782 6671l2703 0c148,0 269,121 269,269l0 596c0,148 -121,269 -269,269l-2703 0c-148,0 -269,-121 -269,-269l0 -596c0,-148 121,-269 269,-269z"/>
  <path class="fil13" d="M6704 6668l2396 0c148,0 269,121 269,269l0 596c0,148 -121,269 -269,269l-2396 0c-148,0 -269,-121 -269,-269l0 -596c0,-148 121,-269 269,-269z"/>
  <path class="fil14" d="M1904 7336l0 -290 170 0 0 37 -131 0 0 93 114 0 0 37 -114 0 0 88 135 0 0 37 -174 0zm266 -106l0 106 -38 0 0 -197 38 0 0 30c6,-11 14,-19 25,-25 11,-6 23,-9 36,-9 24,0 43,8 55,23 13,15 20,36 20,64l0 114 -38 0 0 -111c0,-17 -4,-29 -12,-38 -8,-9 -19,-14 -33,-14 -15,0 -27,5 -38,15 -10,10 -15,24 -15,43zm249 -163l0 72 41 0 0 34 -41 0 0 163 -38 0 0 -163 -35 0 0 -34 35 0 0 -72 38 0zm267 170c0,9 0,14 0,15l-158 0c2,16 9,29 21,39 12,10 24,14 39,14 28,0 48,-10 59,-31 0,0 1,0 1,0 0,0 1,1 3,1 2,1 4,2 6,2 3,1 5,2 6,3l16 6c-8,17 -20,29 -36,38 -16,9 -34,14 -53,14 -28,0 -52,-9 -71,-28 -19,-19 -28,-44 -28,-75 0,-31 9,-55 28,-74 19,-19 42,-28 71,-28 29,0 52,9 70,28 18,19 27,43 27,74zm-57 -54c-11,-9 -24,-14 -40,-14 -16,0 -30,5 -41,14 -11,10 -18,23 -20,39l121 0c-2,-16 -8,-29 -19,-39zm143 81l0 72 -38 0 0 -197 38 0 0 44c10,-32 27,-49 54,-49 15,0 27,3 34,8l-6 36c-9,-5 -18,-7 -29,-7 -17,0 -30,8 -39,25 -9,17 -14,39 -14,68zm326 -129c30,0 55,11 74,32l-29 24c-12,-12 -27,-19 -46,-19 -18,0 -34,6 -47,18 -13,12 -19,27 -19,47 0,20 7,35 20,48 13,12 29,18 47,18 18,0 33,-6 45,-19l29 24c-19,21 -44,32 -73,32 -30,0 -55,-9 -75,-28 -20,-19 -30,-44 -30,-74 0,-30 10,-55 30,-74 20,-19 45,-28 75,-29zm256 150c12,-12 18,-28 18,-48 0,-20 -6,-35 -18,-47 -12,-12 -27,-18 -45,-18 -18,0 -33,6 -46,18 -12,12 -19,28 -19,47 0,20 6,35 18,48 12,12 27,18 46,18 18,0 34,-6 46,-18zm-46 55c-28,0 -52,-9 -72,-28 -20,-19 -30,-44 -30,-74 0,-31 10,-55 29,-74 20,-19 44,-28 72,-28 29,0 53,9 73,28 20,19 29,44 29,74 0,30 -10,55 -30,74 -20,19 -44,29 -72,29zm285 -95l0 -106 38 0 0 197 -38 0 0 -29c-6,11 -14,19 -25,25 -11,6 -23,9 -35,9 -24,0 -43,-8 -56,-23 -13,-15 -19,-37 -19,-64l0 -114 38 0 0 111c0,16 4,29 11,39 7,9 19,14 34,14 15,0 28,-5 38,-14 10,-10 15,-24 15,-43zm157 -55c-12,12 -18,28 -18,48 0,20 6,36 19,47 13,11 28,17 45,17 18,0 32,-6 45,-18 12,-12 17,-27 17,-46 0,-19 -6,-35 -18,-47 -12,-12 -27,-19 -45,-19 -18,0 -33,6 -45,18zm-56 -51l38 0 0 31c6,-11 16,-20 28,-25 12,-7 25,-10 40,-10 27,0 50,10 69,29 19,19 28,44 28,74 0,30 -9,55 -28,74 -19,19 -42,28 -69,28 -15,0 -28,-3 -41,-9 -12,-6 -21,-14 -27,-25l0 125 -38 0 0 -292zm388 146c12,-12 18,-28 18,-48 0,-20 -6,-35 -18,-47 -12,-12 -27,-18 -45,-18 -18,0 -33,6 -46,18 -12,12 -19,28 -19,47 0,20 6,35 18,48 12,12 27,18 46,18 18,0 34,-6 46,-18zm-46 55c-28,0 -52,-9 -72,-28 -20,-19 -30,-44 -30,-74 0,-31 10,-55 29,-74 20,-19 44,-28 72,-28 29,0 53,9 73,28 20,19 29,44 29,74 0,30 -10,55 -30,74 -20,19 -44,29 -72,29zm190 -110l0 106 -38 0 0 -197 38 0 0 30c6,-11 14,-19 25,-25 11,-6 23,-9 36,-9 24,0 43,8 55,23 13,15 20,36 20,64l0 114 -38 0 0 -111c0,-17 -4,-29 -12,-38 -7,-9 -19,-14 -33,-14 -15,0 -27,5 -38,15 -10,10 -15,24 -15,43z"/>
  <path class="fil14" d="M1943 8865l0 217 72 0c29,0 51,-10 67,-30 16,-20 24,-46 24,-78 0,-32 -8,-58 -24,-78 -15,-21 -37,-31 -67,-31l-72 0zm72 254l-111 0 0 -290 111 0c40,0 71,14 94,41 23,27 35,62 35,104 0,42 -12,77 -35,104 -23,27 -55,41 -95,41zm366 -99c0,9 0,14 0,15l-158 0c2,16 9,29 21,39 12,10 24,14 39,14 28,0 48,-10 59,-31 0,0 1,0 1,0 0,0 1,1 3,1 2,1 4,2 6,2 3,1 5,2 6,3l16 6c-8,17 -20,29 -36,38 -16,9 -34,14 -53,14 -28,0 -52,-9 -71,-28 -19,-19 -28,-44 -28,-75 0,-31 9,-55 28,-74 19,-19 42,-28 71,-28 29,0 52,9 70,28 18,19 27,43 27,74zm-57 -54c-11,-9 -24,-14 -40,-14 -16,0 -30,5 -41,14 -11,10 -18,23 -20,39l121 0c-2,-16 -8,-29 -19,-39zm105 153l0 -304 38 0 0 304 -38 0zm101 -251c-5,-5 -7,-11 -7,-18 0,-7 2,-13 7,-18 5,-5 12,-7 19,-7 7,0 13,2 18,7 5,5 8,11 8,18 0,7 -3,13 -8,18 -5,5 -11,7 -18,7 -7,0 -13,-2 -19,-7zm38 251l-38 0 0 -197 38 0 0 197zm119 0l-81 -197 40 0 59 148 59 -148 40 0 -118 197zm339 -99c0,9 0,14 0,15l-158 0c2,16 9,29 21,39 12,10 24,14 39,14 28,0 48,-10 59,-31 0,0 1,0 1,0 0,0 1,1 3,1 2,1 4,2 6,2 3,1 5,2 6,3l16 6c-8,17 -20,29 -36,38 -16,9 -34,14 -53,14 -28,0 -52,-9 -71,-28 -19,-19 -28,-44 -28,-75 0,-31 9,-55 28,-74 19,-19 42,-28 71,-28 29,0 52,9 70,28 18,19 27,43 27,74zm-57 -54c-11,-9 -24,-14 -40,-14 -16,0 -30,5 -41,14 -11,10 -18,23 -20,39l121 0c-2,-16 -8,-29 -19,-39zm143 81l0 72 -38 0 0 -197 38 0 0 44c10,-32 27,-49 54,-49 15,0 27,3 34,8l-6 36c-9,-5 -18,-7 -29,-7 -17,0 -30,8 -39,25 -9,17 -14,39 -14,68zm300 -125l-121 292 -40 0 41 -102 -78 -191 40 0 58 142 58 -142 40 0zm147 -55c-5,-5 -7,-11 -7,-18 0,-7 2,-13 7,-18 5,-5 12,-7 19,-7 7,0 13,2 18,7 5,5 8,11 8,18 0,7 -3,13 -8,18 -5,5 -11,7 -18,7 -7,0 -13,-2 -19,-7zm38 251l-38 0 0 -197 38 0 0 197zm101 -106l0 106 -38 0 0 -197 38 0 0 30c6,-11 14,-19 25,-25 11,-6 23,-9 36,-9 24,0 43,8 55,23 13,15 20,36 20,64l0 114 -38 0 0 -111c0,-17 -4,-29 -12,-38 -7,-9 -19,-14 -33,-14 -15,0 -27,5 -38,15 -10,10 -15,24 -15,43zm210 -80c13,-10 29,-14 47,-14 18,0 34,5 46,14 12,10 19,23 21,41l-36 0c-1,-6 -4,-12 -10,-15 -6,-4 -13,-6 -20,-6 -7,0 -14,2 -19,5 -6,3 -9,7 -11,13 -1,6 -1,11 1,15 3,6 11,11 23,15l29 7c34,8 50,28 50,57 0,18 -7,32 -22,43 -15,11 -32,16 -52,16 -20,0 -37,-6 -52,-17 -15,-12 -22,-27 -22,-46l36 0c2,10 7,18 15,22 8,5 18,8 27,7 10,-1 17,-3 23,-8 5,-5 8,-11 9,-18 1,-7 -2,-12 -6,-16 -5,-4 -11,-7 -20,-9l-27 -6c-19,-5 -33,-13 -42,-23 -9,-10 -12,-23 -11,-39 1,-16 9,-28 22,-38zm222 -82l0 72 41 0 0 34 -41 0 0 163 -38 0 0 -163 -35 0 0 -34 35 0 0 -72 38 0zm122 197l0 72 -38 0 0 -197 38 0 0 44c10,-32 27,-49 54,-49 15,0 27,3 34,8l-6 36c-9,-5 -18,-7 -29,-7 -17,0 -30,8 -40,25 -9,17 -14,39 -14,68zm260 -19l0 -106 38 0 0 197 -38 0 0 -29c-6,11 -14,19 -25,25 -11,6 -23,9 -35,9 -24,0 -43,-8 -56,-23 -13,-15 -19,-37 -19,-64l0 -114 38 0 0 111c0,16 4,29 11,39 8,9 19,14 34,14 15,0 28,-5 38,-14 10,-10 15,-24 15,-43zm192 -110c30,0 55,11 74,32l-29 24c-12,-12 -27,-19 -46,-19 -18,0 -34,6 -47,18 -13,12 -19,27 -19,47 0,20 7,35 20,48 13,12 29,18 47,18 18,0 33,-6 45,-19l29 24c-19,21 -44,32 -73,32 -30,0 -55,-9 -75,-28 -20,-19 -30,-44 -30,-74 0,-30 10,-55 30,-74 20,-19 45,-28 75,-29zm174 -68l0 72 41 0 0 34 -41 0 0 163 -38 0 0 -163 -35 0 0 -34 35 0 0 -72 38 0zm84 17c-5,-5 -7,-11 -7,-18 0,-7 2,-13 7,-18 5,-5 12,-7 19,-7 7,0 13,2 18,7 5,5 8,11 8,18 0,7 -3,13 -8,18 -5,5 -11,7 -18,7 -7,0 -13,-2 -19,-7zm38 251l-38 0 0 -197 38 0 0 197zm198 -51c12,-12 18,-28 18,-48 0,-20 -6,-35 -18,-47 -12,-12 -27,-18 -45,-18 -18,0 -33,6 -46,18 -12,12 -19,28 -19,47 0,20 6,35 18,48 12,12 27,18 46,18 18,0 34,-6 46,-18zm-46 55c-28,0 -52,-9 -72,-28 -20,-19 -30,-44 -30,-74 0,-31 10,-55 29,-74 20,-19 44,-28 72,-28 29,0 53,9 73,28 20,19 29,44 29,74 0,30 -10,55 -30,74 -20,19 -44,29 -72,29zm190 -110l0 106 -38 0 0 -197 38 0 0 30c6,-11 14,-19 25,-25 11,-6 23,-9 36,-9 24,0 43,8 55,23 13,15 20,36 20,64l0 114 -38 0 0 -111c0,-17 -4,-29 -12,-38 -7,-9 -19,-14 -33,-14 -15,0 -27,5 -38,15 -10,10 -15,24 -15,43zm210 -80c13,-10 29,-14 47,-14 18,0 34,5 46,14 12,10 19,23 21,41l-36 0c-1,-6 -4,-12 -10,-15 -6,-4 -13,-6 -20,-6 -7,0 -14,2 -19,5 -6,3 -9,7 -11,13 -1,6 -1,11 1,15 3,6 11,11 23,15l29 7c34,8 50,28 50,57 0,18 -7,32 -22,43 -15,11 -32,16 -52,16 -20,0 -37,-6 -52,-17 -15,-12 -22,-27 -22,-46l36 0c2,10 7,18 15,22 8,5 18,8 27,7 10,-1 17,-3 23,-8 5,-5 8,-11 9,-18 1,-7 -2,-12 -6,-16 -5,-4 -11,-7 -20,-9l-27 -6c-19,-5 -33,-13 -42,-23 -9,-10 -12,-23 -11,-39 1,-16 9,-28 22,-38z"/>
  <path class="fil15" d="M7258 7132l-70 0 0 108 69 0c16,0 28,-5 36,-15 8,-10 12,-24 12,-40 0,-16 -4,-29 -12,-39 -7,-10 -19,-15 -34,-15zm-70 145l0 109 -39 0 0 -290 110 0c28,0 49,9 63,27 14,18 21,39 21,63 0,24 -6,45 -18,62 -12,17 -31,26 -56,29l77 110 -47 0 -75 -109 -37 0zm395 10c0,9 0,14 0,15l-158 0c2,16 9,29 21,39 12,10 24,14 39,14 28,0 48,-10 59,-31 0,0 1,0 1,0 0,0 1,1 3,1 2,1 4,2 6,2 3,1 5,2 6,3l16 6c-8,17 -20,29 -36,38 -16,9 -34,14 -53,14 -28,0 -52,-9 -71,-28 -19,-19 -28,-44 -28,-75 0,-31 9,-55 28,-74 19,-19 42,-28 71,-28 29,0 52,9 70,28 18,19 27,43 27,74zm-57 -54c-11,-9 -24,-14 -40,-14 -16,0 -30,5 -41,14 -11,10 -18,23 -20,39l121 0c-2,-16 -8,-29 -19,-39zm239 101c13,-12 19,-28 19,-48 0,-20 -7,-36 -20,-47 -13,-12 -28,-17 -46,-17 -18,0 -32,6 -44,18 -12,12 -18,28 -18,47 0,19 6,35 18,47 12,12 27,18 45,18 18,0 33,-6 46,-18zm57 51l-38 0 0 -30c-6,10 -15,19 -28,25 -12,6 -26,9 -41,9 -27,0 -50,-10 -70,-29 -19,-19 -28,-44 -28,-74 0,-30 9,-55 28,-74 19,-19 42,-28 70,-29 15,0 29,3 41,9 12,6 21,14 28,25l0 -137 38 0 0 304zm247 -99c0,9 0,14 0,15l-158 0c2,16 9,29 21,39 12,10 24,14 39,14 28,0 48,-10 59,-31 0,0 1,0 1,0 0,0 1,1 3,1 2,1 4,2 6,2 3,1 5,2 6,3l16 6c-8,17 -20,29 -36,38 -16,9 -34,14 -53,14 -28,0 -52,-9 -71,-28 -19,-19 -28,-44 -28,-75 0,-31 9,-55 28,-74 19,-19 42,-28 71,-28 29,0 52,9 70,28 18,19 27,43 27,74zm-57 -54c-11,-9 -24,-14 -40,-14 -16,0 -30,5 -41,14 -11,10 -18,23 -20,39l121 0c-2,-16 -8,-29 -19,-39zm288 54c0,9 0,14 0,15l-158 0c2,16 9,29 21,39 12,10 24,14 39,14 28,0 48,-10 59,-31 0,0 1,0 1,0 0,0 1,1 3,1 2,1 4,2 6,2 3,1 5,2 6,3l16 6c-8,17 -20,29 -36,38 -16,9 -34,14 -53,14 -28,0 -52,-9 -71,-28 -19,-19 -28,-44 -28,-75 0,-31 9,-55 28,-74 19,-19 42,-28 71,-28 29,0 52,9 70,28 18,19 27,43 27,74zm-57 -54c-11,-9 -24,-14 -40,-14 -16,0 -30,5 -41,14 -11,10 -18,23 -20,39l121 0c-2,-16 -8,-29 -19,-39zm277 47l0 106 -38 0 0 -111c0,-16 -4,-29 -12,-38 -7,-9 -18,-14 -33,-14 -14,0 -26,5 -37,15 -10,10 -15,24 -15,43l0 106 -38 0 0 -197 38 0 0 30c5,-9 12,-17 22,-23 11,-6 21,-9 30,-10 37,-2 62,11 74,40 14,-27 36,-41 67,-41 24,0 43,8 56,23 13,15 20,36 20,64l0 114 -38 0 0 -111c0,-16 -4,-29 -12,-38 -8,-9 -20,-14 -34,-14 -14,0 -26,5 -36,16 -10,11 -14,24 -14,42z"/>
 </g>
</svg>
