<?xml version="1.0" encoding="UTF-8"?>
<!DOCTYPE svg PUBLIC "-//W3C//DTD SVG 1.1//EN" "http://www.w3.org/Graphics/SVG/1.1/DTD/svg11.dtd">
<!-- Creator: CorelDRAW X6 -->
<svg xmlns="http://www.w3.org/2000/svg" xml:space="preserve" width="98.68mm" height="201.174mm" version="1.1" style="shape-rendering:geometricPrecision; text-rendering:geometricPrecision; image-rendering:optimizeQuality; fill-rule:evenodd; clip-rule:evenodd"
viewBox="0 0 9868 20117"
 xmlns:xlink="http://www.w3.org/1999/xlink">
 <defs>
  <style type="text/css">
   <![CDATA[
    .str0 {stroke:#C834F7;stroke-width:20}
    .fil1 {fill:#C834F7}
    .fil2 {fill:#13ECAB}
    .fil3 {fill:#FDE89E}
    .fil0 {fill:#FFFEFA}
    .fil4 {fill:#4C565D;fill-rule:nonzero}
    .fil5 {fill:#13ECAB;fill-rule:nonzero}
    .fil6 {fill:#13ECAB;fill-opacity:0.6}
   ]]>
  </style>
 </defs>
 <g id="Layer_x0020_1">
  <metadata id="CorelCorpID_0Corel-Layer"/>
  <path class="fil0" d="M1472 0l6924 0c810,0 1472,662 1472,1472l0 17173c0,810 -662,1472 -1472,1472l-6924 0c-810,0 -1472,-662 -1472,-1472l0 -17173c0,-810 662,-1472 1472,-1472z"/>
  <path class="fil1" d="M1431 601l1054 0 0 382c0,254 209,463 463,463l3972 0c254,0 463,-209 463,-463l0 -382 1035 0c469,0 853,384 853,853l0 17163c0,469 -384,852 -853,852l-6987 0c-469,0 -852,-383 -852,-852l0 -17163c0,-469 383,-853 852,-853l0 0zm41 -601l6924 0c810,0 1472,662 1472,1472l0 17173c0,810 -662,1472 -1472,1472l-6924 0c-810,0 -1472,-662 -1472,-1472l0 -17173c0,-810 662,-1472 1472,-1472z"/>
  <path class="fil2" d="M4005 825c32,56 52,49 129,51l2221 18c85,0 272,25 264,-85 -5,-69 -68,-52 -140,-51 -714,11 -1474,-13 -2205,-5 -53,1 -115,0 -167,4 -71,7 -84,13 -103,68l1 0z"/>
  <ellipse class="fil2" cx="3333" cy="824" rx="84" ry="64"/>
  <rect class="fil3" x="1163" y="6864" width="7547" height="1506" rx="201" ry="218"/>
  <rect class="fil3" x="1163" y="9095" width="7547" height="1506" rx="200" ry="217"/>
  <rect class="fil1" x="1169" y="12809" width="7547" height="1506" rx="692" ry="753"/>
  <path class="fil4" d="M1145 5902l71 0c1,11 5,20 14,27 8,8 20,12 36,12 14,0 26,-3 35,-10 9,-6 13,-15 13,-25 1,-8 -2,-15 -8,-22 -5,-6 -16,-11 -32,-15l-39 -12c-58,-18 -87,-50 -87,-95 0,-30 11,-53 33,-72 22,-18 50,-27 82,-27 33,0 59,9 80,27 21,19 32,43 32,74l-70 0c0,-11 -4,-20 -11,-27 -8,-7 -18,-11 -32,-11 -13,0 -23,4 -31,10 -8,6 -12,14 -12,23 0,16 12,27 36,34l40 12c62,18 92,52 90,101 0,16 -4,31 -11,44 -7,12 -16,23 -27,30 -12,8 -24,14 -38,18 -14,4 -28,6 -43,6 -36,0 -65,-9 -88,-28 -22,-20 -33,-44 -33,-74z"/>
  <path id="1" class="fil4" d="M1437 5718c-9,-7 -13,-17 -13,-28 0,-11 4,-20 13,-27 8,-8 18,-12 29,-12 11,0 21,4 29,12 8,7 12,16 12,27 0,11 -4,21 -12,28 -8,8 -18,12 -29,12 -11,0 -21,-4 -29,-12zm-4 281l0 -225 67 0 0 225 -67 0z"/>
  <path id="2" class="fil4" d="M1548 5887c0,-17 3,-34 9,-49 6,-15 15,-27 25,-37 11,-10 23,-18 36,-24 14,-5 28,-8 42,-8 15,0 28,3 41,9 12,6 21,14 27,24l0 -28 66 0 0 194c0,47 -11,83 -34,107 -22,24 -54,36 -95,36 -24,0 -47,-6 -67,-19 -19,-12 -34,-29 -44,-50 6,-3 15,-8 28,-14 12,-6 21,-10 27,-13 4,10 11,19 22,26 11,7 23,10 34,10 45,0 66,-27 63,-80 -6,10 -15,18 -27,24 -13,6 -26,9 -41,9 -19,0 -38,-5 -55,-14 -17,-10 -30,-23 -41,-42 -11,-18 -16,-38 -16,-61zm70 -1c0,16 5,29 16,39 10,10 23,15 38,15 14,0 27,-5 37,-15 11,-11 17,-24 17,-39 0,-16 -5,-29 -16,-39 -11,-10 -24,-14 -38,-14 -15,0 -28,5 -38,14 -11,10 -16,23 -16,39z"/>
  <path id="3" class="fil4" d="M1854 5999l0 -225 67 0 0 33c6,-11 15,-20 27,-28 12,-7 25,-10 38,-10 26,0 46,8 61,24 14,16 22,40 22,72l0 134 -67 0 0 -119c0,-14 -4,-25 -11,-33 -7,-8 -16,-12 -28,-12 -28,0 -42,16 -42,46l0 118 -67 0z"/>
  <path id="4" class="fil4" d="M2250 5718c-9,-7 -13,-17 -13,-28 0,-11 4,-20 13,-27 8,-8 18,-12 29,-12 11,0 21,4 29,12 8,7 12,16 12,27 0,11 -4,21 -12,28 -8,8 -18,12 -29,12 -11,0 -21,-4 -29,-12zm-4 281l0 -225 66 0 0 225 -66 0z"/>
  <path id="5" class="fil4" d="M2374 5999l0 -225 67 0 0 33c6,-11 15,-20 27,-28 12,-7 25,-10 38,-10 26,0 46,8 61,24 14,16 21,40 21,72l0 134 -66 0 0 -119c0,-14 -4,-25 -11,-33 -7,-8 -17,-12 -29,-12 -27,0 -41,16 -41,46l0 118 -67 0z"/>
  <path class="fil4" d="M1196 11390l0 186 63 0c25,0 44,-9 58,-26 13,-17 20,-39 20,-67 0,-27 -7,-49 -21,-66 -13,-18 -32,-27 -57,-27l-63 0zm63 217l-96 0 0 -248 96 0c34,0 61,12 81,35 20,24 30,53 30,89 0,36 -10,66 -29,89 -20,23 -48,35 -82,35z"/>
  <path id="1" class="fil4" d="M1533 11564c10,-11 16,-24 16,-41 0,-17 -6,-30 -16,-40 -11,-10 -24,-16 -39,-16 -16,0 -29,5 -40,16 -10,10 -16,23 -16,40 0,17 6,30 16,40 11,11 24,16 39,16 16,0 29,-5 40,-15zm-39 46c-25,0 -46,-8 -63,-24 -17,-16 -25,-37 -25,-63 0,-26 8,-47 25,-64 17,-16 37,-24 62,-24 25,0 46,8 63,25 17,16 25,37 25,63 0,26 -8,47 -25,63 -17,16 -38,24 -62,24z"/>
  <path id="2" class="fil4" d="M1658 11516l0 91 -33 0 0 -168 33 0 0 25c4,-9 12,-16 21,-21 10,-5 20,-8 31,-8 21,0 37,7 48,20 11,13 17,31 17,55l0 97 -33 0 0 -95c0,-14 -3,-25 -10,-33 -6,-8 -16,-12 -29,-12 -12,0 -23,4 -32,13 -9,8 -13,20 -13,36z"/>
  <polygon id="3" class="fil4" points="1970,11377 1970,11439 2006,11439 2006,11468 1970,11468 1970,11607 1938,11607 1938,11468 1907,11468 1907,11439 1938,11439 1938,11377 "/>
  <path id="4" class="fil4" d="M2169 11516l0 91 -33 0 0 -259 33 0 0 116c5,-9 12,-16 24,-21 10,-5 21,-8 31,-8 22,0 38,7 51,20 12,13 18,32 17,55l0 97 -32 0 0 -95c0,-14 -4,-25 -11,-32 -7,-9 -17,-13 -30,-13 -13,0 -24,4 -34,12 -11,9 -16,21 -16,37z"/>
  <path id="5" class="fil4" d="M2461 11563c11,-10 17,-23 17,-40 0,-17 -6,-31 -17,-41 -12,-10 -25,-15 -40,-15 -15,0 -28,5 -38,16 -11,10 -16,23 -16,39 0,17 5,30 16,41 11,10 24,15 39,15 15,0 29,-5 39,-15zm50 44l-33 0 0 -26c-5,9 -13,16 -24,21 -11,6 -22,8 -35,8 -23,0 -43,-8 -61,-24 -16,-16 -24,-37 -24,-63 0,-26 8,-47 24,-63 16,-16 37,-25 61,-25 12,0 24,3 35,8 11,5 19,12 24,21l0 -25 33 0 0 168z"/>
  <polygon id="6" class="fil4" points="2613,11607 2544,11439 2578,11439 2629,11565 2680,11439 2715,11439 "/>
  <path id="7" class="fil4" d="M2907 11522c0,8 -1,12 -1,13l-136 0c1,14 7,25 18,34 10,8 21,12 33,12 25,0 42,-8 51,-26 0,0 1,0 1,1 1,0 2,0 3,1 1,0 3,1 5,2 3,1 5,2 6,2l13 5c-7,14 -17,25 -31,33 -14,8 -29,11 -46,11 -24,0 -44,-8 -62,-24 -16,-16 -24,-37 -24,-64 0,-26 8,-47 24,-63 17,-16 37,-24 62,-24 25,0 45,8 60,24 16,16 24,37 24,63zm-49 -45c-10,-9 -21,-13 -35,-13 -14,0 -26,4 -36,13 -10,8 -16,19 -17,33l104 0c-2,-14 -7,-25 -16,-33z"/>
  <path id="8" class="fil4" d="M3158 11563c11,-10 16,-23 16,-40 0,-17 -5,-31 -17,-41 -11,-10 -24,-15 -39,-15 -16,0 -28,5 -39,16 -10,10 -15,23 -15,39 0,17 5,30 16,41 10,10 23,15 39,15 15,0 28,-5 39,-15zm49 44l-32 0 0 -26c-6,9 -14,16 -24,21 -11,6 -23,8 -35,8 -24,0 -44,-8 -61,-24 -16,-16 -25,-37 -25,-63 0,-26 9,-47 25,-63 16,-16 36,-25 61,-25 12,0 24,3 35,8 11,5 19,12 24,21l0 -25 32 0 0 168z"/>
  <path id="9" class="fil4" d="M3294 11516l0 91 -32 0 0 -168 32 0 0 25c5,-9 12,-16 22,-21 10,-5 20,-8 31,-8 21,0 37,7 48,20 11,13 17,31 17,55l0 97 -33 0 0 -95c0,-14 -3,-25 -10,-33 -7,-8 -16,-12 -29,-12 -13,0 -23,4 -32,13 -9,8 -14,20 -14,36z"/>
  <path id="10" class="fil4" d="M3674 11563c11,-10 16,-23 16,-40 0,-17 -5,-31 -17,-41 -11,-10 -24,-15 -39,-15 -16,0 -28,5 -39,16 -10,10 -15,23 -15,39 0,17 5,30 16,41 10,10 23,15 39,15 15,0 28,-5 39,-15zm49 44l-32 0 0 -26c-6,9 -14,16 -24,21 -11,6 -23,8 -35,8 -24,0 -44,-8 -61,-24 -16,-16 -25,-37 -25,-63 0,-26 9,-47 25,-63 16,-16 36,-25 61,-25 12,0 24,3 35,8 11,5 19,12 24,21l0 -25 32 0 0 168z"/>
  <path id="11" class="fil4" d="M3857 11435c26,0 47,9 64,27l-25 21c-11,-10 -24,-16 -40,-16 -16,0 -29,5 -40,16 -11,10 -17,23 -17,40 0,17 6,30 17,40 11,11 25,16 40,16 16,0 29,-5 40,-16l25 21c-17,18 -38,26 -63,26 -26,0 -48,-8 -65,-24 -18,-16 -27,-37 -27,-63 0,-26 9,-47 26,-63 18,-16 39,-25 65,-25z"/>
  <path id="12" class="fil4" d="M4041 11435c26,0 47,9 64,27l-25 21c-11,-10 -24,-16 -40,-16 -16,0 -29,5 -40,16 -11,10 -17,23 -17,40 0,17 6,30 17,40 11,11 25,16 40,16 16,0 29,-5 40,-16l25 21c-17,18 -38,26 -63,26 -26,0 -48,-8 -65,-24 -18,-16 -27,-37 -27,-63 0,-26 9,-47 26,-63 18,-16 39,-25 65,-25z"/>
  <path id="13" class="fil4" d="M4262 11564c10,-11 16,-24 16,-41 0,-17 -6,-30 -16,-40 -11,-10 -24,-16 -39,-16 -16,0 -29,5 -40,16 -10,10 -16,23 -16,40 0,17 6,30 16,40 11,11 24,16 39,16 16,0 29,-5 40,-15zm-39 46c-25,0 -46,-8 -63,-24 -17,-16 -25,-37 -25,-63 0,-26 8,-47 25,-64 17,-16 37,-24 62,-24 25,0 46,8 63,25 17,16 25,37 25,63 0,26 -8,47 -25,63 -17,16 -38,24 -62,24z"/>
  <path id="14" class="fil4" d="M4469 11530l0 -91 33 0 0 168 -33 0 0 -25c-5,9 -12,16 -22,21 -9,5 -20,7 -30,7 -21,0 -37,-6 -48,-19 -12,-13 -17,-32 -17,-55l0 -97 33 0 0 95c0,14 3,25 9,33 7,8 17,11 30,11 13,0 23,-4 32,-12 9,-8 13,-20 13,-36z"/>
  <path id="15" class="fil4" d="M4588 11516l0 91 -32 0 0 -168 32 0 0 25c5,-9 12,-16 22,-21 10,-5 20,-8 31,-8 21,0 37,7 48,20 11,13 17,31 17,55l0 97 -33 0 0 -95c0,-14 -3,-25 -10,-33 -7,-8 -16,-12 -29,-12 -12,0 -23,4 -32,13 -9,8 -14,20 -14,36z"/>
  <polygon id="16" class="fil4" points="4804,11377 4804,11439 4839,11439 4839,11468 4804,11468 4804,11607 4771,11607 4771,11468 4741,11468 4741,11439 4771,11439 4771,11377 "/>
  <path id="17" class="fil4" d="M4898 11604c-4,-4 -6,-10 -6,-16 0,-7 2,-12 6,-16 5,-5 11,-7 17,-7 6,0 12,2 17,7 4,4 7,9 7,16 0,6 -3,12 -7,16 -6,4 -11,6 -17,6 -6,0 -12,-2 -17,-6zm-3 -173l-31 0c0,-22 7,-40 21,-54 13,-14 30,-21 50,-21 20,0 37,7 52,20 15,13 22,30 22,50 0,17 -5,31 -15,43 -9,12 -22,21 -38,25 -9,3 -15,6 -19,10 -4,4 -6,9 -6,17l-1 19 -31 0 0 -19c0,-16 4,-28 11,-37 8,-9 20,-16 37,-21 7,-2 14,-6 21,-14 6,-7 8,-15 8,-23 0,-11 -4,-20 -12,-27 -9,-7 -18,-11 -29,-11 -11,0 -21,4 -28,12 -8,8 -12,19 -12,31z"/>
  <path id="18" class="fil4" d="M1812 11450c10,-14 16,-24 20,-31 9,-18 14,-39 14,-63l42 0c0,11 -2,22 -7,34 -4,11 -9,22 -15,31 -7,9 -13,17 -19,24 -5,7 -11,12 -15,16l-20 -11z"/>
  <polygon class="fil4" points="5796,11567 5796,11319 5940,11319 5940,11350 5829,11350 5829,11429 5917,11429 5917,11461 5829,11461 5829,11567 "/>
  <path id="1" class="fil4" d="M6095 11524c10,-11 16,-24 16,-41 0,-17 -6,-30 -16,-40 -11,-11 -24,-16 -39,-16 -16,0 -29,5 -40,15 -10,11 -16,24 -16,41 0,16 6,30 16,40 11,11 24,16 39,16 16,0 29,-5 40,-15zm-39 46c-25,0 -46,-8 -63,-24 -17,-16 -25,-37 -25,-63 0,-26 8,-48 25,-64 17,-16 37,-24 62,-24 25,0 46,8 63,24 17,17 25,38 25,64 0,26 -8,47 -25,63 -17,16 -38,24 -62,24z"/>
  <path id="2" class="fil4" d="M6220 11506l0 61 -33 0 0 -168 33 0 0 38c8,-28 23,-42 46,-42 13,0 23,2 29,7l-5 30c-7,-4 -15,-6 -24,-6 -15,0 -27,8 -35,22 -8,14 -11,33 -11,58z"/>
  <path id="3" class="fil4" d="M6366 11523c11,10 24,15 39,15 15,0 29,-5 40,-15 11,-10 16,-23 16,-40 0,-18 -5,-31 -16,-41 -11,-10 -24,-15 -39,-15 -16,0 -29,5 -39,16 -11,11 -16,24 -16,41 0,16 5,29 15,39zm36 96c40,0 60,-25 60,-76 0,0 0,-1 0,-1l0 -3c-5,10 -13,18 -24,23 -11,6 -23,8 -35,8 -24,0 -45,-8 -61,-24 -16,-16 -24,-37 -24,-63 0,-26 8,-47 25,-63 16,-17 36,-25 60,-25 13,0 24,3 35,8 11,5 18,12 24,22l0 -26 32 0 0 142c0,73 -30,110 -92,110 -16,0 -30,-4 -44,-12 -13,-8 -24,-20 -32,-34 2,0 6,-3 15,-8l13 -6c4,8 11,15 20,20 9,6 19,8 28,8z"/>
  <path id="4" class="fil4" d="M6665 11524c10,-11 15,-24 15,-41 0,-17 -5,-30 -15,-40 -11,-11 -24,-16 -40,-16 -15,0 -28,5 -39,15 -11,11 -16,24 -16,41 0,16 5,30 16,40 10,11 23,16 39,16 16,0 29,-5 40,-15zm-40 46c-24,0 -45,-8 -62,-24 -17,-16 -26,-37 -26,-63 0,-26 9,-48 26,-64 16,-16 37,-24 62,-24 25,0 46,8 63,24 17,17 25,38 25,64 0,26 -8,47 -25,63 -17,16 -38,24 -63,24z"/>
  <polygon id="5" class="fil4" points="6802,11337 6802,11399 6837,11399 6837,11428 6802,11428 6802,11567 6769,11567 6769,11428 6739,11428 6739,11399 6769,11399 6769,11337 "/>
  <path id="6" class="fil4" d="M7016 11443c-10,10 -15,24 -15,41 0,17 5,30 16,40 11,10 24,14 39,14 16,0 28,-5 39,-15 10,-10 15,-23 15,-39 0,-17 -5,-30 -16,-41 -10,-10 -23,-16 -39,-16 -15,0 -28,5 -39,16zm-48 -44l33 0 0 26c5,-9 13,-16 24,-21 10,-6 21,-9 34,-9 24,0 43,8 60,25 16,16 24,37 24,63 0,26 -8,47 -24,63 -16,16 -36,24 -60,24 -13,0 -24,-2 -35,-7 -11,-5 -18,-12 -23,-21l0 106 -33 0 0 -249z"/>
  <path id="7" class="fil4" d="M7303 11523c11,-10 16,-23 16,-40 0,-18 -5,-31 -16,-41 -12,-10 -25,-15 -40,-15 -15,0 -28,5 -38,15 -11,11 -16,24 -16,40 0,17 5,30 16,40 10,11 23,16 39,16 15,0 28,-5 39,-15zm50 44l-33 0 0 -26c-5,9 -13,16 -24,21 -11,6 -22,8 -35,8 -23,0 -44,-8 -61,-24 -16,-16 -24,-37 -24,-63 0,-26 8,-47 24,-63 16,-17 37,-25 61,-25 12,0 24,3 35,8 11,5 19,12 24,21l0 -25 33 0 0 168z"/>
  <path id="8" class="fil4" d="M7419 11407c11,-8 24,-12 40,-12 16,0 29,4 40,12 10,9 16,20 17,35l-31 0c-1,-5 -4,-10 -8,-13 -6,-3 -12,-5 -18,-5 -6,0 -12,2 -16,4 -5,3 -8,6 -9,12 -2,5 -1,9 0,12 3,6 9,10 20,13l25 6c29,7 43,23 43,49 0,15 -6,27 -19,37 -12,9 -27,13 -44,13 -18,0 -32,-5 -45,-14 -13,-10 -19,-23 -19,-40l31 0c1,9 5,15 13,19 7,5 15,7 24,7 8,-1 15,-3 19,-7 5,-4 8,-9 8,-15 1,-6 -1,-11 -5,-14 -4,-4 -10,-6 -17,-8l-23 -5c-16,-5 -28,-11 -36,-20 -7,-9 -10,-20 -9,-33 1,-13 7,-24 19,-33z"/>
  <path id="9" class="fil4" d="M7576 11407c12,-8 25,-12 41,-12 16,0 29,4 40,12 10,9 16,20 17,35l-31 0c-1,-5 -4,-10 -9,-13 -5,-3 -11,-5 -17,-5 -7,0 -12,2 -16,4 -5,3 -8,6 -10,12 -1,5 -1,9 1,12 3,6 9,10 20,13l25 6c29,7 43,23 43,49 0,15 -6,27 -19,37 -13,9 -27,13 -45,13 -17,0 -32,-5 -44,-14 -13,-10 -19,-23 -20,-40l31 0c2,9 6,15 14,19 7,5 15,7 23,7 9,-1 16,-3 20,-7 5,-4 8,-9 8,-15 1,-6 -1,-11 -5,-14 -4,-4 -10,-6 -17,-8l-23 -5c-16,-5 -28,-11 -36,-20 -7,-9 -10,-20 -9,-33 1,-13 7,-24 18,-33z"/>
  <polygon id="10" class="fil4" points="7972,11399 7910,11567 7883,11567 7837,11443 7793,11567 7766,11567 7702,11399 7737,11399 7779,11516 7821,11399 7853,11399 7895,11516 7937,11399 "/>
  <path id="11" class="fil4" d="M8123 11524c10,-11 16,-24 16,-41 0,-17 -6,-30 -16,-40 -11,-11 -24,-16 -39,-16 -16,0 -29,5 -40,15 -11,11 -16,24 -16,41 0,16 5,30 16,40 10,11 23,16 39,16 16,0 29,-5 40,-15zm-40 46c-24,0 -45,-8 -62,-24 -17,-16 -26,-37 -26,-63 0,-26 9,-48 26,-64 17,-16 37,-24 62,-24 25,0 46,8 63,24 17,17 25,38 25,64 0,26 -8,47 -25,63 -17,16 -38,24 -63,24z"/>
  <path id="12" class="fil4" d="M8247 11506l0 61 -32 0 0 -168 32 0 0 38c9,-28 24,-42 47,-42 13,0 23,2 29,7l-5 30c-7,-4 -15,-6 -25,-6 -14,0 -26,8 -34,22 -8,14 -12,33 -12,58z"/>
  <path id="13" class="fil4" d="M8473 11523c10,-10 16,-24 16,-41 0,-17 -6,-30 -17,-40 -11,-10 -24,-15 -40,-15 -15,0 -27,5 -38,15 -10,11 -15,24 -15,41 0,16 5,29 15,40 11,10 24,15 39,15 15,0 29,-5 40,-15zm49 44l-33 0 0 -26c-5,9 -13,16 -24,21 -10,6 -22,8 -35,8 -23,0 -43,-8 -60,-24 -16,-16 -25,-37 -25,-63 0,-26 8,-47 25,-63 16,-17 36,-25 60,-25 13,0 25,3 35,8 11,5 19,12 24,21l0 -117 33 0 0 260z"/>
  <path id="14" class="fil4" d="M8599 11564c-5,-4 -7,-10 -7,-16 0,-7 2,-12 7,-17 5,-4 10,-6 16,-6 7,0 12,2 17,6 5,5 7,10 7,17 0,6 -2,11 -7,16 -5,4 -11,6 -17,6 -6,0 -11,-2 -16,-6zm-3 -173l-31 0c0,-22 7,-40 20,-54 14,-14 31,-21 51,-21 19,0 37,7 52,20 14,13 22,29 22,50 0,17 -5,31 -15,43 -10,12 -22,21 -38,25 -9,3 -16,6 -20,10 -4,3 -6,9 -6,16l0 20 -31 0 0 -20c0,-15 3,-27 11,-36 8,-9 20,-16 36,-21 8,-2 15,-7 21,-14 6,-8 9,-15 9,-23 0,-11 -4,-20 -13,-27 -8,-7 -18,-11 -29,-11 -11,0 -20,4 -28,12 -7,8 -11,18 -11,31z"/>
  <path class="fil4" d="M4628 15032c0,-34 8,-65 24,-93 16,-29 38,-51 66,-68 28,-16 59,-24 92,-24 34,0 65,8 93,24 28,17 50,39 66,68 16,28 24,59 24,93 0,33 -8,64 -24,92 -16,29 -38,51 -66,68 -28,16 -59,25 -93,25 -25,0 -48,-5 -71,-15 -22,-10 -42,-23 -58,-40 -16,-16 -29,-36 -39,-59 -9,-22 -14,-46 -14,-71zm76 0c0,31 11,58 31,79 21,22 46,33 75,33 30,0 55,-11 76,-33 21,-21 31,-48 31,-79 0,-31 -10,-58 -31,-80 -21,-22 -46,-33 -76,-33 -29,0 -54,11 -75,33 -20,22 -31,49 -31,80z"/>
  <path id="1" class="fil4" d="M5045 15211l0 -244 72 0 0 59c6,-21 15,-37 28,-48 13,-11 27,-16 41,-16 16,0 30,3 42,8l-14 66c-10,-5 -22,-8 -37,-8 -20,0 -36,8 -46,25 -9,16 -14,40 -14,73l0 85 -72 0z"/>
  <polygon class="fil5" points="4146,13726 4146,13262 4245,13262 4245,13639 4419,13639 4419,13726 "/>
  <path id="1" class="fil5" d="M4457 13568c0,-32 7,-61 22,-86 15,-25 35,-44 59,-58 25,-13 52,-19 82,-19 30,0 57,6 81,20 25,13 45,32 60,57 15,26 23,54 23,86 0,31 -8,60 -23,85 -15,25 -35,45 -60,58 -24,14 -51,20 -81,20 -30,0 -57,-6 -82,-19 -24,-14 -44,-33 -59,-58 -15,-25 -22,-54 -22,-86zm92 0c0,21 7,38 21,51 13,13 30,19 50,19 20,0 37,-6 51,-19 14,-13 20,-30 20,-51 0,-21 -7,-38 -20,-51 -14,-13 -31,-19 -51,-19 -20,0 -37,6 -50,19 -14,13 -21,30 -21,51z"/>
  <path id="2" class="fil5" d="M4832 13570c0,-25 4,-48 13,-69 9,-20 21,-38 35,-52 15,-14 32,-25 51,-33 19,-8 38,-11 58,-11 20,0 39,4 57,12 18,8 30,19 37,33l0 -39 93 0 0 271c0,67 -16,117 -47,151 -31,33 -75,50 -132,50 -35,0 -66,-9 -94,-27 -28,-17 -48,-41 -62,-71 8,-4 21,-10 38,-18 18,-9 31,-15 38,-19 6,15 16,27 32,36 15,10 31,15 48,15 62,0 91,-37 86,-112 -7,14 -19,25 -37,33 -18,9 -37,13 -57,13 -27,0 -52,-7 -76,-20 -24,-13 -43,-32 -58,-58 -15,-25 -23,-53 -23,-85zm98 -2c0,22 8,41 23,55 14,14 32,21 52,21 20,0 38,-7 53,-22 15,-14 23,-32 23,-54 0,-23 -7,-41 -22,-54 -15,-14 -33,-21 -54,-21 -20,0 -38,7 -52,21 -15,14 -23,32 -23,54z"/>
  <path id="3" class="fil5" d="M5266 13334c-12,-11 -18,-24 -18,-39 0,-16 6,-29 18,-39 11,-11 25,-16 41,-16 16,0 29,5 40,16 12,10 17,23 17,39 0,15 -5,28 -17,39 -11,11 -24,16 -40,16 -16,0 -30,-5 -41,-16zm-5 392l0 -315 93 0 0 315 -93 0z"/>
  <path id="4" class="fil5" d="M5440 13726l0 -315 93 0 0 47c8,-16 21,-29 38,-39 16,-10 34,-14 53,-14 36,0 64,11 85,33 20,23 30,56 30,100l0 188 -93 0 0 -166c0,-20 -5,-36 -15,-47 -10,-10 -24,-15 -40,-15 -39,0 -58,21 -58,63l0 165 -93 0z"/>
  <path class="fil6" d="M6887 15569l1593 0c117,0 213,95 213,212l0 1577c0,117 -96,213 -213,213l-1593 0c-117,0 -212,-96 -212,-213l0 -1577c0,-117 95,-212 212,-212z"/>
  <path class="fil3" d="M4224 15569l1594 0c116,0 212,95 212,212l0 1577c0,117 -96,213 -212,213l-1594 0c-117,0 -212,-96 -212,-213l0 -1577c0,-117 95,-212 212,-212z"/>
  <path class="fil3" d="M1375 15569l1594 0c116,0 212,95 212,212l0 1577c0,117 -96,213 -212,213l-1594 0c-116,0 -212,-96 -212,-213l0 -1577c0,-117 96,-212 212,-212z"/>
  <polygon class="fil4" points="1449,7338 1449,7090 1595,7090 1595,7122 1483,7122 1483,7201 1581,7201 1581,7232 1483,7232 1483,7307 1599,7307 1599,7338 "/>
  <path id="1" class="fil4" d="M1794 7248l0 90 -32 0 0 -95c0,-14 -4,-25 -10,-32 -7,-8 -16,-12 -28,-12 -13,0 -23,4 -32,12 -9,9 -13,21 -13,37l0 90 -33 0 0 -168 33 0 0 26c3,-8 10,-15 19,-20 9,-5 18,-8 25,-8 33,-2 54,9 64,34 12,-24 31,-35 58,-35 21,0 37,6 48,19 12,13 17,31 17,55l0 97 -33 0 0 -95c0,-13 -3,-24 -10,-32 -7,-8 -17,-12 -29,-12 -13,0 -23,4 -31,13 -8,9 -13,21 -13,36z"/>
  <path id="2" class="fil4" d="M2079 7295c11,-11 16,-24 16,-41 0,-17 -5,-31 -17,-41 -11,-9 -24,-14 -39,-14 -16,0 -28,5 -39,15 -10,10 -15,23 -15,40 0,16 5,29 16,40 10,10 23,16 39,16 15,0 28,-5 39,-15zm49 43l-32 0 0 -26c-6,9 -14,16 -24,22 -11,5 -23,8 -35,8 -23,0 -44,-8 -61,-25 -16,-16 -25,-37 -25,-63 0,-26 9,-47 25,-63 16,-16 36,-24 61,-24 12,0 24,2 35,7 11,6 19,13 24,21l0 -25 32 0 0 168z"/>
  <path id="3" class="fil4" d="M2183 7123c-5,-4 -7,-9 -7,-15 0,-6 2,-11 7,-15 4,-4 10,-6 16,-6 6,0 11,2 16,6 4,4 7,9 7,15 0,6 -3,12 -7,16 -5,4 -10,5 -16,5 -6,0 -12,-2 -16,-6zm32 215l-33 0 0 -168 33 0 0 168z"/>
  <polygon id="4" class="fil4" points="2270,7338 2270,7079 2302,7079 2302,7338 "/>
  <rect class="fil2" x="1449" y="7591" width="3561" height="507" rx="254" ry="254"/>
  <path class="fil4" d="M1548 9381l-65 0 0 93 63 0c13,0 24,-5 31,-13 7,-9 11,-19 11,-33 0,-13 -3,-25 -10,-34 -7,-8 -17,-13 -30,-13zm-99 217l0 -248 99 0c24,0 43,8 55,23 13,14 19,33 19,55 0,22 -6,40 -19,55 -12,15 -31,22 -55,22l-65 0 0 93 -34 0z"/>
  <path id="1" class="fil4" d="M1777 9554c11,-10 16,-23 16,-40 0,-18 -5,-31 -17,-41 -11,-10 -24,-15 -39,-15 -16,0 -28,5 -39,16 -10,10 -15,23 -15,39 0,17 5,30 16,41 10,10 23,15 39,15 15,0 28,-5 39,-15zm49 44l-32 0 0 -26c-6,9 -14,16 -24,21 -11,6 -23,8 -35,8 -24,0 -44,-8 -61,-24 -16,-16 -25,-37 -25,-63 0,-26 9,-47 25,-63 16,-16 36,-25 61,-25 12,0 24,3 35,8 11,5 19,12 24,21l0 -25 32 0 0 168z"/>
  <path id="2" class="fil4" d="M1892 9439c12,-9 25,-13 41,-13 16,0 29,4 40,12 10,9 16,20 17,35l-31 0c-1,-5 -4,-9 -9,-13 -5,-3 -11,-5 -17,-5 -7,0 -12,2 -16,5 -5,2 -8,5 -10,11 -1,5 -1,9 1,12 3,6 9,10 20,13l25 6c29,7 43,23 43,49 0,15 -6,27 -19,37 -13,9 -28,13 -45,13 -17,0 -32,-5 -44,-14 -13,-10 -19,-23 -20,-40l31 0c2,9 6,15 14,20 7,4 15,6 23,6 9,-1 16,-3 20,-7 5,-4 8,-9 8,-15 1,-6 -1,-11 -5,-14 -4,-4 -10,-6 -17,-8l-23 -5c-16,-5 -28,-11 -36,-20 -7,-9 -11,-20 -9,-33 1,-13 7,-24 18,-32z"/>
  <path id="3" class="fil4" d="M2050 9439c11,-9 25,-13 41,-13 16,0 29,4 39,12 11,9 17,20 18,35l-31 0c-1,-5 -4,-9 -9,-13 -5,-3 -11,-5 -17,-5 -7,0 -12,2 -17,5 -4,2 -7,5 -9,11 -1,5 -1,9 1,12 3,6 9,10 20,13l24 6c29,7 44,23 44,49 0,15 -6,27 -19,37 -13,9 -28,13 -45,13 -17,0 -32,-5 -44,-14 -13,-10 -19,-23 -20,-40l31 0c2,9 6,15 14,20 7,4 15,6 23,6 9,-1 15,-3 20,-7 5,-4 7,-9 8,-15 1,-6 -1,-11 -5,-14 -5,-4 -10,-6 -17,-8l-23 -5c-17,-5 -29,-11 -36,-20 -8,-9 -11,-20 -9,-33 1,-13 7,-24 18,-32z"/>
  <polygon id="4" class="fil4" points="2446,9430 2383,9598 2356,9598 2311,9474 2267,9598 2240,9598 2176,9430 2211,9430 2253,9547 2295,9430 2327,9430 2369,9547 2411,9430 "/>
  <path id="5" class="fil4" d="M2597 9555c10,-11 15,-24 15,-41 0,-17 -5,-30 -15,-40 -11,-11 -24,-16 -40,-16 -15,0 -28,5 -39,15 -11,11 -16,24 -16,41 0,16 5,30 16,40 10,11 23,16 39,16 16,0 29,-5 40,-15zm-40 46c-24,0 -45,-8 -62,-24 -17,-16 -26,-37 -26,-63 0,-26 9,-47 26,-64 16,-16 37,-24 62,-24 25,0 46,8 63,25 17,16 25,37 25,63 0,26 -8,47 -25,63 -17,16 -38,24 -63,24z"/>
  <path id="6" class="fil4" d="M2721 9537l0 61 -33 0 0 -168 33 0 0 38c8,-28 24,-42 47,-42 13,0 23,2 29,7l-5 30c-7,-4 -16,-5 -25,-5 -15,0 -26,7 -34,21 -8,14 -12,33 -12,58z"/>
  <path id="7" class="fil4" d="M2946 9554c11,-10 17,-24 17,-41 0,-17 -6,-30 -17,-40 -11,-10 -25,-15 -40,-15 -15,0 -28,5 -38,16 -10,10 -15,23 -15,40 0,16 5,29 15,40 11,10 24,15 39,15 15,0 28,-5 39,-15zm50 44l-33 0 0 -26c-5,9 -13,16 -24,21 -11,6 -22,8 -35,8 -23,0 -43,-8 -60,-24 -17,-16 -25,-37 -25,-63 0,-26 8,-47 24,-63 17,-16 37,-25 61,-25 13,0 24,3 35,8 11,5 19,12 24,21l0 -117 33 0 0 260z"/>
  <rect class="fil2" x="1449" y="9850" width="3561" height="507" rx="254" ry="254"/>
  <circle class="fil2" cx="4934" cy="3485" r="1000"/>
  <g id="_472384736">
   <path class="fil1 str0" d="M4471 3178l667 508 -72 18c-192,48 -393,-4 -533,-146 -100,-102 -155,-237 -156,-379 -1,-357 339,-612 682,-528l72 18 -660 509z"/>
   <path class="fil1 str0" d="M5350 3661l-660 -509 71 -18c343,-84 684,171 682,527 0,143 -56,278 -156,380 -140,142 -340,193 -532,146l-72 -18 667 -508z"/>
   <path class="fil1" d="M5381 3933l63 76c71,83 60,209 -24,280l0 0c-83,70 -209,59 -280,-24l-68 -81c136,-43 237,-129 309,-251z"/>
   <polygon class="fil2" points="5224,4109 5364,4227 5269,4073 "/>
  </g>
 </g>
</svg>
