<svg width="40" height="40" viewBox="0 0 40 40" fill="none" xmlns="http://www.w3.org/2000/svg">
<rect width="40" height="40" rx="6" fill="none"/>
<rect x="10" y="12" width="20" height="15" fill="#13ECAB"/>
<path fill-rule="evenodd" clip-rule="evenodd" d="M26 30C28.7614 30 31 27.7614 31 25C31 22.2386 28.7614 20 26 20C23.2386 20 21 22.2386 21 25C21 27.7614 23.2386 30 26 30ZM26 23L24 25L26 27L28 25L26 23Z" fill="url(#paint0_linear)"/>
<path d="M30 18L10 18L10 15L30 15L30 18Z" fill="url(#paint1_linear)"/>
<path d="M18 22L12 22L12 20L18 20L18 22Z" fill="url(#paint2_linear)"/>
<defs>
<linearGradient id="paint0_linear" x1="26" y1="30" x2="26" y2="20" gradientUnits="userSpaceOnUse">
<stop stop-color="#4C57FF"/>
<stop offset="1" stop-color="#4C57FF"/>
</linearGradient>
<linearGradient id="paint1_linear" x1="10" y1="18.5" x2="30" y2="18.5" gradientUnits="userSpaceOnUse">
<stop stop-color="#4C57FF"/>
<stop offset="1" stop-color="#4C57FF"/>
</linearGradient>
<linearGradient id="paint2_linear" x1="10" y1="18.5" x2="30" y2="18.5" gradientUnits="userSpaceOnUse">
<stop stop-color="#4C57FF"/>
<stop offset="1" stop-color="#4C57FF"/>
</linearGradient>
</defs>
</svg>
