<?xml version="1.0" encoding="UTF-8"?>
<!DOCTYPE svg PUBLIC "-//W3C//DTD SVG 1.1//EN" "http://www.w3.org/Graphics/SVG/1.1/DTD/svg11.dtd">
<!-- Creator: CorelDRAW X6 -->
<svg xmlns="http://www.w3.org/2000/svg" xml:space="preserve" width="98.7268mm" height="201.27mm" version="1.1" style="shape-rendering:geometricPrecision; text-rendering:geometricPrecision; image-rendering:optimizeQuality; fill-rule:evenodd; clip-rule:evenodd"
viewBox="0 0 9873 20127"
 xmlns:xlink="http://www.w3.org/1999/xlink">
 <defs>
  <style type="text/css">
   <![CDATA[
    .str0 {stroke:#4C57FF;stroke-width:20}
    .fil1 {fill:#4C57FF}
    .fil0 {fill:#13ECAB}
    .fil2 {fill:#13ECAB;fill-rule:nonzero}
   ]]>
  </style>
 </defs>
 <g id="Layer_x0020_1">
  <metadata id="CorelCorpID_0Corel-Layer"/>
  <path class="fil0" d="M1473 0l6927 0c810,0 1473,663 1473,1473l0 17181c0,810 -663,1473 -1473,1473l-6927 0c-810,0 -1473,-663 -1473,-1473l0 -17181c0,-810 663,-1473 1473,-1473z"/>
  <g id="_510915544">
   <path class="fil1" d="M1434 606l1054 0 0 381c0,255 208,463 463,463l3971 0c255,0 463,-208 463,-463l0 -381 1036 0c469,0 852,383 852,852l0 17163c0,469 -383,853 -852,853l-6987 0c-469,0 -853,-384 -853,-853l0 -17163c0,-469 384,-852 853,-852l0 0zm40 -601l6924 0c810,0 1472,662 1472,1472l0 17173c0,810 -662,1472 -1472,1472l-6924 0c-809,0 -1472,-662 -1472,-1472l0 -17173c0,-810 663,-1472 1472,-1472z"/>
   <g>
    <path class="fil0" d="M4007 829c33,57 52,50 129,51l2222 19c85,0 271,24 263,-85 -5,-69 -67,-52 -140,-51 -714,11 -1474,-13 -2205,-5 -52,1 -115,0 -166,4 -72,7 -84,13 -103,67l0 0z"/>
    <ellipse class="fil0" cx="3335" cy="829" rx="84" ry="64"/>
   </g>
  </g>
  <g id="_510926008">
   <path class="fil2" d="M3379 9925c-29,29 -44,67 -44,115 0,48 16,86 46,112 31,27 67,40 110,40 42,0 78,-14 107,-42 29,-28 43,-65 43,-110 0,-46 -15,-84 -45,-113 -29,-29 -66,-44 -109,-44 -43,-1 -79,13 -108,42zm-45 -122l0 74c16,-27 38,-47 67,-61 29,-16 61,-23 97,-23 65,0 121,22 166,68 45,45 68,104 68,177 0,72 -22,131 -67,176 -45,45 -101,68 -167,68 -36,0 -68,-7 -98,-21 -30,-14 -52,-34 -66,-59l0 219c1,58 -36,79 -91,79l0 -622c-1,-61 39,-77 91,-75z"/>
   <path class="fil2" d="M4174 10150c30,-28 45,-66 45,-113 0,-48 -16,-86 -47,-113 -32,-28 -69,-42 -111,-42 -43,0 -79,14 -107,43 -29,28 -44,65 -44,111 0,45 15,83 45,112 29,30 65,44 109,44 43,0 79,-14 110,-42zm46 122l0 -72c-15,24 -37,44 -67,59 -30,15 -62,23 -98,23 -65,0 -121,-23 -169,-68 -46,-46 -69,-105 -69,-177 0,-72 23,-131 68,-176 46,-45 102,-68 170,-68 34,0 67,7 99,21 30,15 52,35 66,59 1,-51 37,-69 91,-70l0 394c-2,60 -36,80 -91,75z"/>
   <path class="fil2" d="M4502 9803l320 0 0 77 -291 314 199 0c56,1 91,26 92,89l-423 0 0 -77 286 -314 -269 0c0,-57 31,-86 86,-89z"/>
   <path class="fil2" d="M5263 10150c31,-28 46,-66 46,-113 0,-48 -16,-86 -47,-113 -32,-28 -69,-42 -111,-42 -43,0 -79,14 -108,43 -28,28 -43,65 -43,111 0,45 15,83 44,112 30,30 66,44 109,44 44,0 80,-14 110,-42zm47 122l0 -72c-15,24 -37,44 -67,59 -30,15 -62,23 -98,23 -65,0 -121,-23 -169,-68 -46,-46 -69,-105 -69,-177 0,-72 23,-131 68,-176 46,-45 102,-68 170,-68 34,0 67,7 98,21 31,15 53,35 67,59 6,-57 40,-76 91,-70l0 397c-1,51 -31,75 -91,72z"/>
   <path class="fil2" d="M5556 9827c31,-23 69,-34 114,-34 44,0 81,11 110,34 29,23 45,55 49,97l-87 0c-3,-15 -11,-27 -24,-36 -15,-9 -31,-14 -49,-14 -18,0 -33,4 -46,12 -13,6 -21,16 -25,31 -4,15 -3,26 1,35 8,15 26,27 56,35l69 17c81,20 121,66 121,137 0,43 -17,77 -52,103 -36,25 -78,38 -126,38 -47,0 -89,-14 -124,-41 -36,-28 -53,-64 -54,-110l86 0c4,24 16,42 38,53 20,13 42,19 66,18 24,-2 42,-8 55,-19 13,-12 21,-26 22,-42 2,-17 -3,-30 -15,-40 -11,-9 -27,-17 -47,-21l-64 -15c-46,-12 -79,-30 -101,-54 -20,-25 -29,-56 -25,-93 3,-38 21,-68 52,-91z"/>
   <path class="fil2" d="M6659 10151c30,-29 44,-67 44,-113 0,-47 -14,-85 -44,-113 -29,-28 -65,-43 -109,-43 -44,0 -80,14 -110,42 -30,29 -45,66 -45,113 0,47 15,84 44,114 29,29 66,44 110,44 44,0 81,-15 110,-44zm-109 131c-69,0 -127,-23 -175,-68 -47,-45 -71,-104 -71,-177 0,-73 23,-132 70,-177 47,-45 105,-68 175,-67 69,0 128,22 175,67 47,46 71,105 71,177 0,72 -24,131 -71,177 -48,45 -106,68 -174,68z"/>
   <path class="fil2" d="M7022 9925c-29,29 -44,67 -44,115 0,48 15,86 46,112 31,27 67,40 109,40 43,0 79,-14 108,-42 28,-28 42,-65 42,-110 0,-46 -14,-84 -44,-113 -29,-29 -66,-44 -109,-44 -43,-1 -79,13 -108,42zm-45 -122l0 74c15,-27 38,-47 67,-61 29,-16 61,-23 97,-23 65,0 121,22 166,68 45,45 68,104 68,177 0,72 -23,131 -68,176 -45,45 -100,68 -166,68 -36,0 -69,-7 -98,-21 -30,-14 -52,-34 -66,-59l0 219c-1,52 -28,79 -91,79l0 -620c0,-58 42,-78 91,-77z"/>
   <path class="fil2" d="M6120 9618l0 176 0 84 0 320c-2,48 -28,79 -95,79l0 -399 0 -84 0 -104c0,-57 40,-73 95,-72z"/>
   <path class="fil1 str0" d="M2554 9878l404 307 -43 11c-117,29 -238,-3 -323,-88 -60,-62 -94,-144 -94,-230 -1,-216 205,-370 413,-319l43 10 -400 309z"/>
   <path class="fil1 str0" d="M3087 10170l-400 -308 43 -11c208,-51 414,103 414,319 -1,86 -34,168 -95,230 -85,86 -206,117 -323,88l-43 -11 404 -307z"/>
   <path class="fil2" d="M6119 9797l25 0c60,2 78,23 78,85l-103 0 -96 0c-73,2 -85,-31 -88,-85l88 0 96 0z"/>
   <path class="fil1" d="M3106 10335l38 45c43,51 36,127 -14,170l0 0c-51,43 -127,36 -170,-15l-41 -48c82,-26 143,-78 187,-152z"/>
   <polygon class="fil0" points="3011,10441 3096,10513 3038,10419 "/>
  </g>
 </g>
</svg>
