<?xml version="1.0" encoding="UTF-8"?>
<!DOCTYPE svg PUBLIC "-//W3C//DTD SVG 1.1//EN" "http://www.w3.org/Graphics/SVG/1.1/DTD/svg11.dtd">
<!-- Creator: CorelDRAW X6 -->
<svg xmlns="http://www.w3.org/2000/svg" xml:space="preserve" width="188.114mm" height="188.218mm" version="1.1" style="shape-rendering:geometricPrecision; text-rendering:geometricPrecision; image-rendering:optimizeQuality; fill-rule:evenodd; clip-rule:evenodd"
viewBox="0 0 18812 18822"
 xmlns:xlink="http://www.w3.org/1999/xlink">
 <defs>
  <style type="text/css">
   <![CDATA[
    .fil6 {fill:none}
    .fil13 {fill:#13ECAB}
    .fil2 {fill:#4C57FF}
    .fil12 {fill:url(#id0)}
    .fil3 {fill:url(#id1)}
    .fil4 {fill:url(#id2)}
    .fil5 {fill:url(#id3)}
    .fil8 {fill:url(#id4)}
    .fil9 {fill:url(#id5)}
    .fil10 {fill:url(#id6)}
    .fil0 {fill:url(#id7)}
    .fil7 {fill:url(#id8)}
    .fil1 {fill:url(#id9)}
    .fil11 {fill:url(#id10)}
   ]]>
  </style>
  <linearGradient id="id0" gradientUnits="userSpaceOnUse" x1="9206.18" y1="6611.66" x2="9206.18" y2="2442.11">
   <stop offset="0" style="stop-color:#13ECAB"/>
   <stop offset="1" style="stop-color:#4C57FF"/>
  </linearGradient>
  <linearGradient id="id1" gradientUnits="userSpaceOnUse" x1="3829.64" y1="8517.49" x2="3829.64" y2="2851.58">
   <stop offset="0" style="stop-color:#13ECAB"/>
   <stop offset="1" style="stop-color:#C834F7"/>
  </linearGradient>
  <linearGradient id="id2" gradientUnits="userSpaceOnUse" xlink:href="#id1" x1="3829.64" y1="8504.94" x2="3829.64" y2="2864.12">
  </linearGradient>
  <linearGradient id="id3" gradientUnits="userSpaceOnUse" xlink:href="#id1" x1="3829.64" y1="8513.75" x2="3829.64" y2="2855.32">
  </linearGradient>
  <linearGradient id="id4" gradientUnits="userSpaceOnUse" xlink:href="#id1" x1="14179.3" y1="8517.49" x2="14179.3" y2="2851.58">
  </linearGradient>
  <linearGradient id="id5" gradientUnits="userSpaceOnUse" xlink:href="#id1" x1="14179.3" y1="8504.94" x2="14179.3" y2="2864.12">
  </linearGradient>
  <linearGradient id="id6" gradientUnits="userSpaceOnUse" xlink:href="#id1" x1="14179.3" y1="8513.75" x2="14179.3" y2="2855.32">
  </linearGradient>
  <linearGradient id="id7" gradientUnits="userSpaceOnUse" x1="9335.12" y1="-0.220002" x2="9476.25" y2="11350.5">
   <stop offset="0" style="stop-color:#4C57FF"/>
   <stop offset="1" style="stop-color:#13ECAB"/>
  </linearGradient>
  <linearGradient id="id8" gradientUnits="userSpaceOnUse" x1="14575.2" y1="9251.86" x2="14575.2" y2="2113.36">
   <stop offset="0" style="stop-color:#C834F7"/>
   <stop offset="1" style="stop-color:#13ECAB"/>
  </linearGradient>
  <linearGradient id="id9" gradientUnits="userSpaceOnUse" xlink:href="#id8" x1="3808.96" y1="9255.84" x2="3808.96" y2="2113.44">
  </linearGradient>
  <linearGradient id="id10" gradientUnits="userSpaceOnUse" x1="9284.8" y1="9790.85" x2="9152.12" y2="1542.31">
   <stop offset="0" style="stop-color:#13ECAB"/>
   <stop offset="1" style="stop-color:#13ECAB"/>
  </linearGradient>
 </defs>
 <g id="Layer_x0020_1">
  <metadata id="CorelCorpID_0Corel-Layer"/>
  <path class="fil0" d="M411 0l17989 0c226,0 411,185 411,411l0 10528c0,226 -185,411 -411,411l-1922 0 -4287 0 -634 0 -4286 0 -635 0 -4286 0 -1939 0c-226,0 -411,-185 -411,-411l0 -10528c0,-226 185,-411 411,-411z"/>
  <g id="_419791040">
   <path class="fil1" d="M1625 1990l5186 -25c232,-1 423,187 424,420l32 6536c1,233 -188,423 -420,424l-5186 26c-232,1 -423,-188 -424,-420l-32 -6537c-1,-232 188,-423 420,-424z"/>
   <path class="fil2" d="M1758 2179l4901 -24c219,-1 400,177 401,397l30 6234c1,219 -178,399 -397,401l-4901 23c-219,1 -399,-177 -401,-396l-30 -6235c-1,-219 178,-399 397,-400zm-143 -174l5186 -25c232,-2 423,187 424,420l31 6536c2,232 -187,423 -419,424l-5187 26c-232,1 -422,-188 -424,-420l-31 -6537c-1,-232 188,-423 420,-424z"/>
   <path class="fil3" d="M2033 2873l4357 -21c74,-1 134,59 134,132l16 3362c1,73 -59,133 -132,133l-4357 22c-73,0 -133,-60 -134,-133l-16 -3362c0,-73 59,-133 132,-133z"/>
   <path class="fil4" d="M2026 6914l4234 -21c58,0 106,47 107,106l2 429c0,58 -48,106 -106,107l-4233 20c-59,0 -107,-47 -108,-106l-2 -428c0,-59 48,-107 106,-107z"/>
   <path class="fil5" d="M2031 7903l3167 -15c58,0 107,48 107,106l2 397c0,59 -48,107 -106,107l-3167 16c-58,0 -107,-48 -107,-106l-2 -397c0,-59 48,-107 106,-108z"/>
   <circle class="fil6" transform="matrix(0.872576 -0.00424161 0.00424161 0.872576 4220.16 4569.11)" r="1186"/>
   <path class="fil7" d="M11975 1990l5186 -25c232,-1 423,187 424,420l32 6536c1,233 -188,423 -420,424l-5186 26c-232,1 -423,-188 -424,-420l-32 -6537c-1,-232 188,-423 420,-424z"/>
   <path class="fil2" d="M12108 2179l4901 -24c219,-1 399,177 400,397l31 6234c1,219 -178,399 -397,401l-4901 23c-220,1 -400,-177 -401,-396l-30 -6235c-1,-219 177,-399 397,-400zm-144 -174l5186 -25c232,-2 423,187 424,420l32 6536c1,232 -188,423 -420,424l-5186 26c-232,1 -423,-188 -424,-420l-32 -6537c-1,-232 188,-423 420,-424z"/>
   <path class="fil8" d="M12383 2873l4357 -21c73,-1 133,59 134,132l16 3362c0,73 -59,133 -132,133l-4357 22c-74,0 -134,-60 -134,-133l-16 -3362c-1,-73 59,-133 132,-133z"/>
   <path class="fil9" d="M12376 6914l4233 -21c59,0 107,47 107,106l2 429c1,58 -47,106 -106,107l-4233 20c-58,0 -107,-47 -107,-106l-2 -428c0,-59 47,-107 106,-107z"/>
   <path class="fil10" d="M12381 7903l3166 -15c59,0 107,48 108,106l1 397c1,59 -47,107 -106,107l-3166 16c-59,0 -107,-48 -107,-106l-2 -397c0,-59 47,-107 106,-108z"/>
   <circle class="fil6" transform="matrix(0.872576 -0.00424161 0.00424161 0.872576 14569.8 4569.11)" r="1186"/>
   <path class="fil11" d="M6238 1425l5961 0c266,0 485,218 485,485l0 7513c0,267 -219,485 -485,485l-5961 0c-267,0 -485,-218 -485,-485l0 -7513c0,-267 218,-485 485,-485z"/>
   <rect class="fil12" x="6549" y="2442" width="5314" height="4170" rx="153" ry="153"/>
   <rect class="fil2" x="6549" y="7086" width="5110" height="737" rx="122" ry="122"/>
   <rect class="fil2" x="6549" y="8224" width="3884" height="701" rx="123" ry="123"/>
   <path class="fil2" d="M6390 1643l5633 0c252,0 458,206 458,458l0 7165c0,252 -206,459 -458,459l-5633 0c-252,0 -459,-207 -459,-459l0 -7165c0,-252 207,-458 459,-458zm-164 -201l5960 0c267,0 485,218 485,485l0 7513c0,267 -218,485 -485,485l-5960 0c-267,0 -485,-218 -485,-485l0 -7513c0,-267 218,-485 485,-485z"/>
   <circle class="fil6" cx="9206" cy="4404" r="1189"/>
  </g>
  <rect class="fil13" x="156" y="13808" width="6521" height="1270" rx="340" ry="420"/>
  <rect class="fil13" x="156" y="15676" width="6521" height="1270" rx="340" ry="420"/>
  <rect class="fil13" x="7318" y="13808" width="11338" height="1270" rx="591" ry="420"/>
  <rect class="fil13" x="7318" y="15676" width="11338" height="1270" rx="591" ry="420"/>
  <rect class="fil13" x="2043" y="11940" width="4638" height="1270" rx="242" ry="420"/>
  <rect class="fil13" x="7289" y="11940" width="9556" height="1270" rx="498" ry="420"/>
  <rect class="fil13" x="156" y="15676" width="1292" height="1270" rx="67" ry="420"/>
  <rect class="fil13" y="13808" width="6521" height="1270" rx="340" ry="420"/>
  <rect class="fil13" y="15676" width="6521" height="1270" rx="340" ry="420"/>
  <rect class="fil13" x="7276" y="13808" width="11536" height="1270" rx="601" ry="420"/>
  <rect class="fil13" x="7276" y="15676" width="11536" height="1270" rx="601" ry="420"/>
  <path class="fil13" d="M420 17515l453 0c231,0 420,189 420,420l0 430c0,231 -189,420 -420,420l-453 0c-231,0 -420,-189 -420,-420l0 -430c0,-231 189,-420 420,-420zm-36 490l125 0c6,-103 55,-157 135,-156 87,2 137,49 144,156l121 0 0 445 -525 0 0 -445zm177 0l169 0c4,-139 -179,-119 -169,0z"/>
  <path class="fil13" d="M17939 17552l453 0c231,0 420,189 420,420l0 430c0,231 -189,420 -420,420l-453 0c-231,0 -420,-189 -420,-420l0 -430c0,-231 189,-420 420,-420zm224 337l-98 198 -216 25 154 155 -31 217 192 -99 193 100 -39 -218 163 -153 -222 -31 -96 -194z"/>
  <path class="fil13" d="M420 11940l453 0c231,0 420,189 420,420l0 430c0,231 -189,420 -420,420l-453 0c-231,0 -420,-189 -420,-420l0 -430c0,-231 189,-420 420,-420zm189 920c-155,-17 -279,-140 -296,-296l296 0 0 296zm370 -296c-17,156 -140,279 -295,296l0 -296 295 0zm-370 -74l-296 0c9,-78 44,-148 97,-200l199 200 0 0 0 0zm275 -199c52,52 87,122 95,199l-294 0 199 -199z"/>
  <path class="fil13" d="M7696 17533l452 0c231,0 420,189 420,420l0 430c0,231 -189,420 -420,420l-452 0c-231,0 -420,-189 -420,-420l0 -430c0,-231 189,-420 420,-420zm222 427c-35,-93 -198,-86 -261,27 -76,237 186,362 264,455 107,-111 271,-178 280,-394 -28,-159 -206,-205 -283,-88z"/>
  <path class="fil13" d="M17939 11948l453 0c231,0 420,189 420,420l0 430c0,231 -189,420 -420,420l-453 0c-231,0 -420,-189 -420,-420l0 -430c0,-231 189,-420 420,-420zm-228 918l242 -279 130 158 218 -253 319 377 -909 -3zm156 -489l85 -81 85 81 -85 82 -85 -82z"/>
 </g>
</svg>
