<?xml version="1.0" encoding="UTF-8"?>
<!DOCTYPE svg PUBLIC "-//W3C//DTD SVG 1.1//EN" "http://www.w3.org/Graphics/SVG/1.1/DTD/svg11.dtd">
<!-- Creator: CorelDRAW 2018 (64-Bit Evaluation Version) -->
<svg xmlns="http://www.w3.org/2000/svg" xml:space="preserve" width="112.679mm" height="200mm" version="1.1" style="shape-rendering:geometricPrecision; text-rendering:geometricPrecision; image-rendering:optimizeQuality; fill-rule:evenodd; clip-rule:evenodd"
viewBox="0 0 9391.21 16668.9"
 xmlns:xlink="http://www.w3.org/1999/xlink">
 <defs>
  <style type="text/css">
   <![CDATA[
    .fil12 {fill:#00C2FF}
    .fil7 {fill:#3B9CFF}
    .fil19 {fill:#E6F2FE}
    .fil9 {fill:#FBD13E}
    .fil13 {fill:#FEB434}
    .fil8 {fill:#3B9CFF;fill-rule:nonzero}
    .fil6 {fill:#3B9CFF;fill-rule:nonzero}
    .fil10 {fill:#FBD13E;fill-rule:nonzero}
    .fil11 {fill:#FEB434;fill-rule:nonzero}
    .fil17 {fill:#38D0FF;fill-opacity:0.149020}
    .fil0 {fill:none; opacity: 0.96}
    .fil5 {fill:white;fill-opacity:0.96}
    .fil1 {fill:white;fill-opacity:0.96}
    .fil16 {fill:#95C9FF;fill-opacity:0.619608}
    .fil15 {fill:#B4DCFF;fill-opacity:0.619608}
    .fil14 {fill:#C4E1FF;fill-opacity:0.619608}
    .fil2 {fill:#E5F2FF;fill-opacity:0.99}
    .fil18 {fill:#3B9CFF}
    .fil3 {fill:#D9ECFF}
    .fil4 {fill:#3B9CFF;fill-rule:nonzero}
   ]]>
  </style>
 </defs>
 <g id="Layer_x0020_1">
  <metadata id="CorelCorpID_0Corel-Layer"/>
  <path class="fil0" d="M1905.69 862.02c-886.59,-52.69 -1030.17,220.2 -1061.78,893.69l6.79 12664.69c-10.22,875.79 213.92,1275.7 853.69,1323.19l5631.41 13.7c914.16,66.7 1232.56,-448.33 1210.41,-1295.78l0 -12614.93c-11.67,-795.54 -297.14,-1026.82 -1038.61,-1021.53l-645.52 634.78 -4277.25 17.43 -679.15 -615.23z"/>
  <path class="fil1" d="M1774.58 1996.7l5842.86 0c173.98,0 316.32,142.33 316.32,316.32l0 783.4c0,173.99 -142.34,316.32 -316.32,316.32l-5842.86 0c-173.98,0 -316.32,-142.33 -316.32,-316.32l0 -783.4c0,-173.99 142.34,-316.32 316.32,-316.32z"/>
  <path class="fil2" d="M7665.42 16030.47l-5726.1 29.08c-1224.45,30.51 -1385.1,-568.98 -1354.81,-1685.53l5.68 -12909.7c63.27,-464.28 287.42,-748.8 693.63,-829.87l705.09 -0.32c205.39,81.21 288.36,605.16 856.58,603.64l3760.84 0.68c561.13,-112.67 507.16,-566.89 889.95,-610.66l624.38 17.25c424.27,60.62 647.02,479.83 652.65,961.53l7.98 13235.66c0.43,716.13 -310.69,1184.15 -1115.87,1188.23zm-6425.54 -16030.47c-769.61,121.65 -1218.17,617.98 -1201.07,1657.45l-38.14 13425.6c-23.73,1062.29 592.56,1532.1 1658.21,1585.85l6230.44 -5.24c833.78,17.64 1348.03,-374.3 1465.68,-1274.53l36.2 -13783.02c-19,-920.17 -767.71,-1608.96 -1650.26,-1603.74l-6501.07 -2.38z"/>
  <path class="fil1" d="M1766.4 3720.96l5859.2 0c169.49,0 308.15,138.66 308.15,308.15l0 799.74c0,169.49 -138.66,308.15 -308.15,308.15l-5859.2 0c-169.48,0 -308.14,-138.66 -308.14,-308.15l0 -799.74c0,-169.49 138.66,-308.15 308.14,-308.15z"/>
  <path class="fil3" d="M6926.58 4075.89c193.79,0 350.89,157.1 350.89,350.89 0,193.78 -157.1,350.88 -350.89,350.88 -193.78,0 -350.88,-157.1 -350.88,-350.88 0,-193.79 157.1,-350.89 350.88,-350.89z"/>
  <path class="fil4" d="M2129.6 4337.43l-67.02 181.07 -29.15 0 -49.24 -132.99 -47.69 132.99 -28.76 0 -68.95 -181.07 37.67 0 45.24 126.73 45.5 -126.73 34.05 0 45.43 126.73 45.24 -126.73 37.67 0zm306.13 0l-67.02 181.07 -29.15 0 -49.24 -132.99 -47.7 132.99 -28.76 0 -68.95 -181.07 37.67 0 45.24 126.73 45.51 -126.73 34.05 0 45.43 126.73 45.24 -126.73 37.67 0zm306.12 0l-67.02 181.07 -29.15 0 -49.24 -132.99 -47.69 132.99 -28.76 0 -68.95 -181.07 37.67 0 45.24 126.73 45.5 -126.73 34.05 0 45.43 126.73 45.24 -126.73 37.67 0zm34.32 160.98c0,-6.79 2.45,-12.54 7.37,-17.32 4.91,-4.78 10.78,-7.18 17.77,-7.18 7.04,0 13.05,2.33 18.09,6.98 5.04,4.66 7.56,10.47 7.56,17.52 0,7.04 -2.58,12.79 -7.75,17.19 -5.18,4.53 -11.12,6.78 -17.9,6.78 -6.85,0 -12.74,-2.19 -17.77,-6.59 -4.92,-4.65 -7.37,-10.47 -7.37,-17.38zm118.77 -151.61c12.08,-8.85 26.7,-13.24 43.88,-13.24 17.13,0 31.35,4.39 42.52,13.18 11.25,8.79 17.64,21.33 19.14,37.61l-33.67 0c-1.03,-5.88 -4.13,-10.6 -9.31,-14.15 -5.68,-3.49 -11.95,-5.23 -18.94,-5.23 -6.91,0 -12.79,1.48 -17.58,4.46 -5.17,2.33 -8.4,6.4 -9.82,12.08 -1.36,5.68 -1.17,10.21 0.58,13.57 2.91,5.82 10.02,10.34 21.33,13.57l26.7 6.53c31.34,7.68 46.98,25.33 46.98,52.92 0,16.35 -6.79,29.54 -20.43,39.68 -13.76,9.76 -29.85,14.6 -48.27,14.6 -18.48,0 -34.5,-5.3 -48.14,-15.96 -13.64,-10.6 -20.55,-24.69 -20.81,-42.33l33.35 0c1.48,9.38 6.27,16.29 14.41,20.68 7.88,4.98 16.42,7.18 25.6,6.66 9.18,-0.52 16.29,-2.98 21.32,-7.37 5.04,-4.46 7.88,-9.82 8.53,-16.15 0.52,-6.33 -1.43,-11.38 -5.88,-15.19 -4.39,-3.82 -10.47,-6.59 -18.16,-8.34l-24.81 -5.75c-17.51,-4.72 -30.44,-11.63 -38.71,-20.87 -7.94,-9.57 -11.24,-21.52 -9.82,-35.93 1.36,-14.41 8.08,-26.05 20.03,-35.03zm210.04 37.87c-11.18,11.11 -16.8,25.91 -16.8,44.46 0,18.49 5.94,32.9 17.77,43.24 11.89,10.33 25.91,15.51 42.2,15.51 16.29,0 30.18,-5.43 41.62,-16.29 10.86,-10.79 16.29,-25.01 16.29,-42.66 0,-17.64 -5.68,-32.18 -17.06,-43.49 -11.44,-11.31 -25.53,-17.06 -42.14,-17.19 -16.67,-0.13 -30.63,5.37 -41.87,16.42zm-52.47 -47.24l35.28 0 0 28.5c5.95,-10.14 14.54,-17.96 25.92,-23.39 11.11,-6.01 23.52,-8.98 37.29,-8.98 25.26,0 46.66,8.78 64.1,26.43 17.52,17.44 26.24,40.2 26.24,68.18 0,27.99 -8.66,50.67 -26.04,68.12 -17.32,17.38 -38.78,26.1 -64.3,26.1 -13.77,0 -26.37,-2.71 -37.87,-8.14 -11.44,-5.43 -19.9,-13.05 -25.34,-22.74l0 115.03 -35.28 0 0 -269.09zm361.7 134.16c11.63,-10.86 17.45,-25.46 17.45,-43.88 0,-18.42 -6.08,-32.96 -18.16,-43.56 -12.15,-10.6 -26.43,-15.96 -42.85,-16.09 -16.48,0 -30.25,5.49 -41.36,16.48 -11.12,10.86 -16.68,25.08 -16.68,42.78 0,17.64 5.69,32.19 17.06,43.5 11.38,11.37 25.4,17.06 42.07,17.06 16.67,0 30.83,-5.43 42.46,-16.29zm53.12 46.91l-35.29 0 0 -27.79c-5.68,9.5 -14.28,17.13 -25.79,22.94 -11.5,5.82 -24.04,8.73 -37.74,8.73 -25.07,0 -46.85,-8.78 -65.27,-26.36 -17.77,-17.52 -26.69,-40.26 -26.69,-68.12 0,-27.92 8.78,-50.6 26.3,-67.98 17.58,-17.44 39.49,-26.24 65.73,-26.36 13.12,0 25.79,2.71 37.87,8.14 11.88,5.94 20.42,13.57 25.59,22.94l0 -27.2 35.29 0 0 181.07zm51.57 -181.07l153.16 0 0 29.01 -109.8 118.32 109.8 0 0 33.74 -159.43 0 0 -29.21 107.73 -118.13 -101.46 0 0 -33.73zm327.19 134.16c11.63,-10.86 17.45,-25.46 17.45,-43.88 0,-18.42 -6.08,-32.96 -18.16,-43.56 -12.15,-10.6 -26.43,-15.96 -42.85,-16.09 -16.48,0 -30.25,5.49 -41.36,16.48 -11.12,10.86 -16.68,25.08 -16.68,42.78 0,17.64 5.69,32.19 17.06,43.5 11.38,11.37 25.4,17.06 42.07,17.06 16.67,0 30.83,-5.43 42.46,-16.29zm53.12 46.91l-35.29 0 0 -27.79c-5.68,9.5 -14.28,17.13 -25.79,22.94 -11.5,5.82 -24.04,8.73 -37.74,8.73 -25.07,0 -46.85,-8.78 -65.27,-26.36 -17.77,-17.52 -26.69,-40.26 -26.69,-68.12 0,-27.92 8.78,-50.6 26.3,-67.98 17.58,-17.44 39.49,-26.24 65.73,-26.36 13.12,0 25.79,2.71 37.87,8.14 11.88,5.94 20.42,13.57 25.59,22.94l0 -27.2 35.29 0 0 181.07zm218.62 -97.39l0 97.39 -35.29 0 0 -102.5c0,-14.99 -3.62,-26.55 -10.79,-34.76 -6.91,-8.53 -17.06,-12.79 -30.3,-12.79 -13.12,0 -24.49,4.46 -34.06,13.38 -9.63,8.92 -14.41,22.04 -14.41,39.29l0 97.39 -35.28 0 0 -181.07 35.28 0 0 27.53c4.2,-8.66 11.05,-15.77 20.69,-21.26 10.08,-5.49 19.25,-8.47 27.46,-8.98 34.83,-2.13 57.9,10.08 69.15,36.58 12.6,-25.14 33.4,-37.74 62.55,-37.74 22.69,0 39.94,6.98 51.7,21 12.08,13.76 18.16,33.54 18.16,59.26l0 104.69 -35.28 0 0 -102.11c0,-14.74 -3.68,-26.43 -10.99,-35.15 -7.88,-8.53 -18.54,-12.86 -31.92,-12.99 -13.31,-0.13 -24.43,4.66 -33.21,14.35 -8.86,9.69 -13.32,22.49 -13.44,38.51zm307.02 50.47c11.63,-10.86 17.45,-25.46 17.45,-43.88 0,-18.42 -6.08,-32.96 -18.16,-43.56 -12.15,-10.6 -26.43,-15.96 -42.85,-16.09 -16.48,0 -30.25,5.49 -41.36,16.48 -11.12,10.86 -16.68,25.08 -16.68,42.78 0,17.64 5.69,32.19 17.06,43.5 11.38,11.37 25.4,17.06 42.07,17.06 16.67,0 30.83,-5.43 42.46,-16.29zm53.12 46.91l-35.29 0 0 -27.79c-5.68,9.5 -14.28,17.13 -25.79,22.94 -11.5,5.82 -24.04,8.73 -37.74,8.73 -25.07,0 -46.85,-8.78 -65.27,-26.36 -17.77,-17.52 -26.69,-40.26 -26.69,-68.12 0,-27.92 8.78,-50.6 26.3,-67.98 17.58,-17.44 39.49,-26.24 65.73,-26.36 13.12,0 25.79,2.71 37.87,8.14 11.88,5.94 20.42,13.57 25.59,22.94l0 -27.2 35.29 0 0 181.07zm58.48 0l0 -279.56 35.28 0 0 279.56 -35.28 0zm94.1 0l0 -279.56 35.28 0 0 279.56 -35.28 0zm91 -20.09c0,-6.79 2.45,-12.54 7.37,-17.32 4.91,-4.78 10.78,-7.18 17.77,-7.18 7.04,0 13.05,2.33 18.09,6.98 5.04,4.66 7.56,10.47 7.56,17.52 0,7.04 -2.58,12.79 -7.75,17.19 -5.18,4.53 -11.12,6.78 -17.9,6.78 -6.85,0 -12.74,-2.19 -17.77,-6.59 -4.92,-4.65 -7.37,-10.47 -7.37,-17.38zm191.48 -164.86c27.91,0 50.79,9.75 68.69,29.2l-26.89 22.36c-11.31,-11.38 -25.52,-17.06 -42.58,-17.06 -17,0 -31.48,5.49 -43.36,16.54 -11.96,10.86 -17.97,25.27 -17.97,43.3 0,17.97 6.08,32.57 18.16,43.81 12.15,11.31 26.63,16.94 43.56,16.94 17.06,0 31.15,-5.95 42.2,-17.84l27.27 22.49c-18.03,19.39 -40.84,29.08 -68.3,29.08 -27.54,0 -50.8,-8.73 -69.8,-26.17 -18.93,-17.71 -28.36,-40.46 -28.36,-68.31 0,-27.85 9.3,-50.53 27.85,-67.98 18.62,-17.44 41.75,-26.24 69.54,-26.36zm238.32 138.35c11.31,-11.11 17,-25.72 17,-43.81 0,-18.15 -5.69,-32.63 -17,-43.49 -11.3,-10.92 -25.4,-16.41 -42.26,-16.54 -16.8,0 -30.95,5.43 -42.39,16.35 -11.57,10.98 -17.39,25.46 -17.39,43.49 0,17.97 5.68,32.57 16.99,43.81 11.31,11.31 25.46,16.94 42.46,16.94 17.06,0 31.28,-5.56 42.58,-16.74zm-42.39 50.47c-26.37,0 -48.72,-8.73 -67.21,-26.17 -18.49,-17.45 -27.72,-40.2 -27.72,-68.31 0,-28.11 9.11,-50.92 27.27,-68.37 18.15,-17.45 40.58,-26.11 67.33,-25.98 26.89,0 49.37,8.72 67.53,26.17 18.29,17.58 27.46,40.32 27.46,68.18 0,27.85 -9.18,50.54 -27.53,68.12 -18.35,17.58 -40.78,26.36 -67.14,26.36zm301.6 -101.26l0 97.39 -35.29 0 0 -102.5c0,-14.99 -3.62,-26.55 -10.79,-34.76 -6.91,-8.53 -17.06,-12.79 -30.3,-12.79 -13.12,0 -24.49,4.46 -34.06,13.38 -9.63,8.92 -14.41,22.04 -14.41,39.29l0 97.39 -35.28 0 0 -181.07 35.28 0 0 27.53c4.2,-8.66 11.05,-15.77 20.69,-21.26 10.08,-5.49 19.25,-8.47 27.46,-8.98 34.83,-2.13 57.9,10.08 69.15,36.58 12.6,-25.14 33.4,-37.74 62.55,-37.74 22.69,0 39.94,6.98 51.7,21 12.08,13.76 18.16,33.54 18.16,59.26l0 104.69 -35.28 0 0 -102.11c0,-14.74 -3.68,-26.43 -10.99,-35.15 -7.88,-8.53 -18.54,-12.86 -31.92,-12.99 -13.31,-0.13 -24.43,4.66 -33.21,14.35 -8.86,9.69 -13.32,22.49 -13.44,38.51z"/>
  <path class="fil5" d="M1796.87 5477.62l5797.45 0c183.27,0 333.21,149.95 333.21,333.2l0 9146c0,183.26 -149.95,333.19 -333.21,333.19l-5797.45 0c-183.24,0 -333.19,-149.93 -333.19,-333.19l0 -9146c0,-183.26 149.95,-333.2 333.19,-333.2z"/>
  <g>
   <path class="fil6" d="M7449.69 4495.16l-89.54 -99.96 24.84 -22.24 89.54 99.96 0.88 21.18 -25.71 1.06zm25.71 -1.06l-12.21 16.14 -13.5 -15.08 25.71 -1.06zm76.02 -100.48l-76.02 100.48 -26.59 -20.12 76.02 -100.48 26.59 20.12z"/>
  </g>
  <g>
   <path class="fil7" d="M6790.27 4351.96l206.79 157.4 -22.19 5.51c-59.67,14.81 -121.81,-1.2 -165.17,-45.2 -31.05,-31.5 -48.23,-73.4 -48.41,-117.62 -0.44,-110.62 105.17,-189.55 211.54,-163.43l22.1 5.43 -204.66 157.9z"/>
   <path id="1" class="fil8" d="M6993.98 4513.41l-206.79 -157.4 6.17 -8.1 206.79 157.4 -1.86 8.99 -4.31 -0.89zm6.17 -8.1l8.45 6.43 -10.31 2.56 1.86 -8.99zm-26.5 4.62l22.19 -5.51 2.45 9.88 -22.19 5.51 -2.45 -9.88zm-167.57 -36.68l7.25 -7.15 0 0 4 3.93 4.09 3.76 4.21 3.61 4.29 3.44 4.38 3.28 4.47 3.12 4.56 2.96 4.64 2.78 4.71 2.64 4.78 2.46 4.86 2.31 4.91 2.13 4.99 1.97 5.03 1.82 5.09 1.63 5.15 1.48 5.19 1.31 5.23 1.14 5.27 0.98 5.3 0.8 5.35 0.63 5.37 0.47 5.4 0.29 5.42 0.13 5.43 -0.05 5.45 -0.22 5.45 -0.4 5.46 -0.56 5.47 -0.73 5.46 -0.92 5.45 -1.08 5.45 -1.27 2.45 9.88 -5.75 1.33 -5.77 1.15 -5.78 0.97 -5.78 0.78 -5.78 0.59 -5.77 0.42 -5.77 0.23 -5.76 0.05 -5.73 -0.13 -5.72 -0.31 -5.68 -0.5 -5.67 -0.67 -5.63 -0.85 -5.6 -1.04 -5.55 -1.21 -5.51 -1.39 -5.47 -1.56 -5.41 -1.75 -5.35 -1.92 -5.29 -2.1 -5.23 -2.27 -5.16 -2.44 -5.08 -2.63 -5.01 -2.79 -4.93 -2.97 -4.84 -3.14 -4.75 -3.32 -4.65 -3.48 -4.56 -3.66 -4.46 -3.83 -4.36 -3.99 -4.23 -4.16 0 0zm-49.87 -121.17l10.18 -0.03 0 0 0.07 4.02 0.16 3.99 0.25 3.99 0.36 3.96 0.44 3.95 0.54 3.92 0.63 3.91 0.73 3.89 0.82 3.85 0.91 3.83 1 3.79 1.09 3.78 1.18 3.74 1.28 3.71 1.36 3.68 1.44 3.65 1.53 3.61 1.63 3.56 1.71 3.53 1.79 3.49 1.88 3.45 1.97 3.4 2.05 3.37 2.13 3.31 2.21 3.27 2.31 3.22 2.38 3.17 2.46 3.11 2.55 3.07 2.62 3.01 2.71 2.95 2.78 2.89 -7.25 7.15 -2.95 -3.08 -2.88 -3.13 -2.78 -3.19 -2.7 -3.25 -2.63 -3.31 -2.53 -3.37 -2.44 -3.42 -2.36 -3.47 -2.27 -3.53 -2.17 -3.57 -2.1 -3.62 -1.99 -3.67 -1.91 -3.71 -1.81 -3.75 -1.73 -3.79 -1.63 -3.84 -1.54 -3.87 -1.44 -3.91 -1.34 -3.94 -1.26 -3.98 -1.16 -4.01 -1.07 -4.04 -0.96 -4.07 -0.87 -4.1 -0.78 -4.13 -0.67 -4.14 -0.58 -4.17 -0.48 -4.2 -0.38 -4.21 -0.27 -4.23 -0.18 -4.24 -0.07 -4.27 0 0zm217.85 -168.39l-2.43 9.88 0 0 -9.68 -2.08 -9.65 -1.5 -9.61 -0.92 -9.54 -0.38 -9.46 0.18 -9.38 0.71 -9.25 1.23 -9.11 1.73 -8.96 2.23 -8.79 2.71 -8.61 3.18 -8.38 3.63 -8.16 4.08 -7.92 4.5 -7.65 4.92 -7.36 5.32 -7.06 5.7 -6.73 6.08 -6.39 6.44 -6.03 6.78 -5.65 7.13 -5.25 7.44 -4.83 7.75 -4.41 8.05 -3.94 8.33 -3.48 8.6 -2.98 8.86 -2.48 9.11 -1.95 9.33 -1.41 9.57 -0.84 9.77 -0.26 9.98 -10.18 0.03 0.28 -10.58 0.89 -10.38 1.49 -10.17 2.08 -9.93 2.63 -9.69 3.18 -9.43 3.7 -9.15 4.21 -8.87 4.68 -8.57 5.15 -8.25 5.58 -7.91 6 -7.58 6.42 -7.2 6.78 -6.84 7.15 -6.46 7.49 -6.05 7.81 -5.63 8.12 -5.22 8.38 -4.77 8.66 -4.33 8.9 -3.84 9.13 -3.38 9.33 -2.88 9.51 -2.37 9.68 -1.83 9.82 -1.32 9.94 -0.74 10.04 -0.2 10.13 0.39 10.19 0.98 10.23 1.58 10.26 2.21 0 0zm19.67 15.31l-22.1 -5.43 2.43 -9.88 22.1 5.43 1.89 8.98 -4.33 0.91zm2.43 -9.88l10.26 2.52 -8.37 6.46 -1.89 -8.98zm-208.99 158.81l204.66 -157.9 6.22 8.07 -204.66 157.9 -6.19 0.02 -0.03 -8.08zm0.03 8.08l-5.28 -4.03 5.26 -4.06 0.03 8.08z"/>
  </g>
  <g>
   <path class="fil9" d="M7062.89 4501.63l-204.66 -157.9 22.1 -5.43c106.36,-26.13 211.98,52.81 211.54,163.43 -0.18,44.21 -17.37,86.13 -48.41,117.62 -43.37,44 -105.51,60 -165.17,45.2l-22.19 -5.51 206.79 -157.4z"/>
   <path id="1" class="fil10" d="M6861.34 4339.69l204.66 157.9 -6.22 8.07 -204.66 -157.9 1.89 -8.98 4.33 0.91zm-6.22 8.07l-8.37 -6.46 10.26 -2.52 -1.89 8.98zm26.43 -4.52l-22.1 5.43 -2.43 -9.88 22.1 -5.43 2.43 9.88zm215.41 158.5l-10.18 -0.03 0 0 -0.26 -9.98 -0.84 -9.77 -1.41 -9.57 -1.95 -9.33 -2.48 -9.11 -2.98 -8.86 -3.48 -8.6 -3.94 -8.33 -4.41 -8.05 -4.83 -7.75 -5.25 -7.44 -5.65 -7.13 -6.03 -6.79 -6.39 -6.43 -6.73 -6.08 -7.06 -5.72 -7.36 -5.31 -7.65 -4.91 -7.92 -4.51 -8.16 -4.07 -8.38 -3.63 -8.61 -3.18 -8.79 -2.71 -8.96 -2.23 -9.11 -1.74 -9.25 -1.23 -9.38 -0.72 -9.46 -0.18 -9.54 0.37 -9.61 0.93 -9.65 1.5 -9.68 2.08 -2.43 -9.88 10.26 -2.21 10.23 -1.58 10.19 -0.99 10.13 -0.38 10.04 0.19 9.94 0.75 9.82 1.31 9.68 1.84 9.51 2.36 9.33 2.88 9.13 3.38 8.9 3.85 8.66 4.32 8.38 4.78 8.12 5.21 7.81 5.64 7.49 6.05 7.15 6.46 6.78 6.83 6.42 7.21 6 7.58 5.58 7.91 5.15 8.25 4.68 8.57 4.21 8.87 3.7 9.15 3.18 9.43 2.63 9.69 2.08 9.93 1.49 10.17 0.89 10.38 0.28 10.58 0 0zm-49.87 121.17l-7.25 -7.15 0 0 2.78 -2.89 2.71 -2.95 2.62 -3.01 2.55 -3.06 2.46 -3.12 2.38 -3.17 2.3 -3.22 2.22 -3.27 2.13 -3.31 2.06 -3.37 1.96 -3.4 1.88 -3.45 1.79 -3.48 1.71 -3.53 1.63 -3.58 1.53 -3.6 1.44 -3.65 1.36 -3.68 1.27 -3.72 1.18 -3.74 1.09 -3.78 1 -3.79 0.91 -3.83 0.82 -3.86 0.73 -3.88 0.63 -3.9 0.54 -3.93 0.44 -3.94 0.36 -3.97 0.25 -3.99 0.16 -3.99 0.07 -4.02 10.18 0.03 -0.07 4.27 -0.18 4.24 -0.27 4.23 -0.38 4.22 -0.48 4.19 -0.58 4.17 -0.67 4.15 -0.78 4.13 -0.87 4.09 -0.96 4.07 -1.07 4.04 -1.16 4.01 -1.25 3.98 -1.35 3.95 -1.44 3.91 -1.54 3.87 -1.63 3.83 -1.73 3.79 -1.81 3.76 -1.91 3.7 -2 3.67 -2.09 3.62 -2.18 3.57 -2.26 3.53 -2.37 3.47 -2.43 3.42 -2.53 3.37 -2.63 3.32 -2.7 3.24 -2.78 3.19 -2.88 3.13 -2.95 3.08 0 0zm-170.02 46.56l2.45 -9.88 0 0 5.45 1.27 5.45 1.08 5.46 0.91 5.46 0.73 5.46 0.57 5.46 0.39 5.45 0.22 5.43 0.05 5.41 -0.13 5.39 -0.3 5.38 -0.46 5.33 -0.63 5.31 -0.81 5.28 -0.97 5.23 -1.14 5.19 -1.31 5.14 -1.48 5.09 -1.63 5.04 -1.82 4.98 -1.97 4.92 -2.13 4.85 -2.31 4.78 -2.46 4.72 -2.64 4.63 -2.78 4.56 -2.96 4.47 -3.12 4.39 -3.28 4.29 -3.44 4.2 -3.61 4.11 -3.76 3.99 -3.93 7.25 7.15 -4.24 4.16 -4.36 3.99 -4.45 3.83 -4.56 3.66 -4.66 3.48 -4.75 3.32 -4.84 3.14 -4.92 2.97 -5.02 2.79 -5.08 2.63 -5.15 2.44 -5.23 2.27 -5.28 2.1 -5.36 1.92 -5.41 1.75 -5.46 1.56 -5.51 1.39 -5.57 1.21 -5.59 1.03 -5.63 0.86 -5.67 0.67 -5.69 0.49 -5.71 0.32 -5.74 0.13 -5.75 -0.05 -5.77 -0.23 -5.78 -0.41 -5.78 -0.6 -5.78 -0.78 -5.78 -0.96 -5.77 -1.15 -5.75 -1.33 0 0zm-19.74 -15.39l22.19 5.51 -2.45 9.88 -22.19 -5.51 -1.86 -8.99 4.31 -0.89zm-2.45 9.88l-10.31 -2.56 8.45 -6.43 1.86 8.99zm211.1 -158.3l-206.79 157.4 -6.17 -8.1 206.79 -157.4 6.19 0.02 -0.03 8.08zm0.03 -8.08l5.26 4.06 -5.28 4.03 0.03 -8.08z"/>
  </g>
  <path class="fil8" d="M3023 2769.42c0,8.53 -0.33,15.79 -0.99,21.77l-176.89 0c0.33,18.79 6.93,33.51 19.82,44.19 12.89,10.67 30.23,16 52.03,16 15.19,0 28.14,-2.05 38.15,-7.47 17.47,-9.45 24.4,-22.39 65.41,-21.56 -3.97,18.22 -15.53,33.02 -34.69,44.41 -19.15,11.38 -42.11,17.07 -68.87,17.07 -35.01,0 -62.85,-9.32 -83.49,-27.96 -20.64,-18.64 -30.97,-43.9 -30.97,-75.78 0,-20.49 4.63,-38.56 13.88,-54.22 9.25,-15.65 22.38,-27.75 39.39,-36.29 17.01,-8.53 36.75,-12.8 59.21,-12.8 21.14,0 39.89,3.91 56.24,11.74 16.35,7.83 29.07,18.78 38.16,32.86 9.08,14.09 13.63,30.1 13.63,48.03zm-42.11 -6.83c0,-17.36 -5.87,-31.02 -17.59,-40.98 -11.73,-9.96 -28,-14.94 -48.81,-14.94 -20.48,0 -36.91,5.13 -49.3,15.37 -12.39,10.25 -19.08,23.77 -20.07,40.56l135.77 0z"/>
  <path class="fil8" d="M2685.23 2884.35c-18.18,0 -34.45,-2.78 -48.81,-8.33 -14.37,-5.54 -25.6,-13.23 -33.69,-23.04 -8.1,-9.82 -12.14,-20.71 -12.14,-32.66 38.64,-0.81 33.76,6.09 57.47,24.54 9.31,7.25 23.13,9.61 39.65,9.61 12.88,0 23.12,-2.57 30.71,-7.68 7.6,-5.13 11.4,-11.95 11.4,-20.49 0,-7.11 -2.48,-12.88 -7.43,-17.29 -4.95,-4.42 -13.88,-8.04 -26.75,-10.88l-46.58 -10.25c-16.84,-3.98 -29.64,-10.6 -38.4,-19.85 -8.75,-9.24 -13.14,-20.7 -13.14,-34.36 0,-16.51 8.01,-30.03 24.04,-40.56 16.02,-10.53 36.41,-15.79 61.19,-15.79 27.09,0 48.47,5.27 64.17,15.79 15.69,10.53 23.54,25.05 23.54,43.54 -38.56,2.33 -36.54,-9.74 -54.51,-22.41 -8.13,-5.73 -19.82,-8.32 -34.68,-8.32 -12.23,0 -22.13,2.35 -29.73,7.04 -7.6,4.69 -11.4,11.03 -11.4,18.99 0,6.55 2.57,12.03 7.68,16.44 5.12,4.42 13.63,8.04 25.52,10.88l47.06 11.1c16.85,3.98 29.9,10.68 39.15,20.06 9.24,9.39 13.88,20.93 13.88,34.58 0,18.5 -7.93,33.02 -23.79,43.55 -15.86,10.53 -37.33,15.79 -64.41,15.79z"/>
  <path class="fil8" d="M2513.94 2681.78l-0.55 174.13c1.09,17.95 15.19,21.98 38.41,22.39l0 -169.61c-1.35,-20.77 -16.24,-27.37 -37.86,-26.91z"/>
  <path class="fil11" d="M2534.36 2646.85c-6.34,0 -11.63,-2.1 -15.86,-6.3 -4.23,-4.19 -6.34,-9.44 -6.34,-15.74 0,-6.29 2.12,-11.59 6.34,-15.89 4.23,-4.3 9.52,-6.46 15.86,-6.46 6.33,0 11.62,2.16 15.85,6.46 4.23,4.3 6.34,9.6 6.34,15.89 0,6.3 -2.12,11.55 -6.34,15.74 -4.23,4.2 -9.52,6.3 -15.85,6.3z"/>
  <path class="fil8" d="M2357.46 2883.42c-23.38,-1.88 -43.76,-4.48 -60.94,-13.44 -17.18,-8.97 -30.15,-21.28 -38.9,-36.93 -8.76,-15.65 -13.13,-33.3 -13.13,-52.94 0,-19.34 4.63,-36.92 13.87,-52.72 9.25,-15.8 22.47,-28.25 39.64,-37.35 17.18,-9.11 37.34,-14.25 60.45,-13.66 22.82,0.58 72.13,7.8 80.27,30.8 2.38,-18.92 14.89,-25.23 33.52,-23.94l0 172.04c-0.94,16.64 -13.93,22.74 -33.52,23.03l0 -23.5c-12.81,20.67 -64.13,30 -81.26,28.62zm5.94 -33.3c24.12,0 43.03,-6.69 56.74,-20.06 13.71,-13.38 20.56,-30.03 20.56,-49.96 0,-19.92 -6.85,-36.64 -20.56,-50.16 -13.71,-13.52 -32.62,-20.28 -56.74,-20.28 -23.12,0 -41.61,6.62 -55.49,19.85 -13.88,13.24 -20.81,30.1 -20.81,50.58 0,20.49 6.93,37.29 20.81,50.38 13.88,13.09 32.37,19.64 55.49,19.64z"/>
  <polygon class="fil12" points="2022.61,2725.32 2022.61,2883.55 1865.73,2883.55 "/>
  <polygon class="fil7" points="1851.46,2711.69 2007.32,2711.69 1851.46,2868.89 "/>
  <polygon class="fil12" points="2008.75,2692.26 1851.46,2692.26 1851.46,2533.61 "/>
  <polygon class="fil7" points="1867.16,2520.38 2022.61,2520.38 2022.61,2677.17 "/>
  <path class="fil13" d="M2168.31 2581.96c26.39,29.69 43.39,68.03 46.31,110.29l-155.67 0 109.36 -110.29z"/>
  <path class="fil9" d="M2153.9 2567.43l-109.96 110.91 0 -157.54c42.12,2.8 80.37,19.94 109.96,46.63z"/>
  <g>
   <path class="fil14" d="M4221.48 7144.61l-19.44 85.31 -1686.3 385.09c-48.65,16.86 -74.71,58.96 -76.49,128.18l14.46 1812.03c-8.19,52.9 11.63,64.95 51.68,47.55l1703.57 -651.59 201.53 49.81 -1862.72 709.26c-45.46,25.91 -237.09,-28.67 -250.16,-93.04l-20.68 -1899.9c-3.32,-91.22 42.6,-145.15 130.24,-167.46l1814.31 -405.27z"/>
   <polygon class="fil14" points="6604.21,8400.51 6941.84,8471.83 6942.7,8554.57 6598.38,8465.92 "/>
   <path class="fil14" d="M6821.92 7487.83l-1871.98 538.55c-148.82,30.72 -212.98,108.47 -188.13,235.67l-31.01 1990.86c4.51,114.36 222.2,169.57 291.5,130.24l1974.31 -946.83c77.91,-20.97 108.86,-85.14 117.84,-169.52l-11.38 -1682.84c-12.82,-85.09 -100.19,-121.28 -281.15,-96.12zm110.58 74.42l-1867.86 539.59c-80.05,33.6 -118.77,90.43 -110.61,173.65l-42.38 1998.1 1981.02 -936.51c41.26,-15.39 54.22,-61.09 56.85,-117.84l-17.03 -1656.99z"/>
   <path class="fil15" d="M6526.81 8699.59l-245.97 30.5c63.03,-127.12 75.04,-267.13 53.76,-415.53 29.7,-0.39 46.06,-22.54 49.56,-65.66l84.03 -552.53 272.67 -78.77c-54.47,365.2 -111.72,707.44 -174.26,1006.01l-14.48 54.79 -25.31 21.19zm-41.63 -1114.89l161.53 -1062.04 30.5 -125.59 22.74 -31.01 27.4 -22.22 37.72 -5.17 48.59 0.52 53.75 4.13 33.08 0 13.44 8.78 -0.52 45.48 -15.5 80.11c-46.06,349.76 -92.34,697.63 -140.64,1028.74l-272.08 78.27z"/>
   <path class="fil16" d="M6913.92 6352.1l-29.5 -37.2 -80.63 -39.27 -99.24 -24.81 -126.11 -26.88c-665,-119.42 -1330,-194.8 -1995,-215l-82.69 18.61 -84.76 53.75 -37.21 97.16 -47.55 163.32c-26.83,308.19 -60.62,608.45 -126.12,872.43l-114.62 586.62c416.24,49.29 789.05,100.61 1106.31,154.52l1291.5 -371.55 180.87 -1153.68c11.58,-53.63 39.11,-80.11 77.03,-88.87l167.71 10.85zm-1486.25 1644.85c503.12,96.49 827.24,201.34 906.93,317.61 34.16,-2.01 53.12,-31.34 53.8,-93.53l82.37 -525.4 -1043.1 301.32z"/>
   <path class="fil15" d="M2446.96 8023.09l44.43 -33.1 144.71 -53.75 254.28 -47.56 345.25 -51.68 334.91 -20.68 256.35 -14.47 239.82 4.13 47.55 -10.33c391.44,51.32 761.46,103.91 1083.59,159.39l-247.92 71.33c-148.82,30.72 -212.98,108.47 -188.13,235.67l-3.92 251.66 -2.73 0.37 -2308.19 -490.98zm2981.08 -26.24c492,94.5 834.44,197.98 906.55,317.71 24.85,149.92 4.09,287.67 -53.76,415.53l-1329.31 231.54 -12.21 7.83 14.72 -693.98c-8.17,-83.22 30.55,-140.05 110.61,-173.65l363.4 -104.98z"/>
   <polygon class="fil16" points="2444.9,8515.12 2441.54,8030.29 2469.71,8023.09 2875.93,8115.08 4755.15,8514.07 4754.33,8741.65 4748.98,9084.68 "/>
  </g>
  <path class="fil17" d="M2010.54 13209.4l5356.25 0c96.44,0 175.36,78.91 175.36,175.36l0 434.32c0,96.45 -78.92,175.36 -175.36,175.36l-5356.25 0c-96.45,0 -175.36,-78.91 -175.36,-175.36l0 -434.32c0,-96.45 78.9,-175.36 175.36,-175.36z"/>
  <g>
   <g>
    <path class="fil18" d="M3420 13700.39c1.23,0.13 0.72,6.35 0.72,8.52 0,5.36 0.42,26.31 -0.3,28.56 -0.82,0.28 -11.12,0.88 -12.22,-0.11 -0.08,-0.08 -0.18,-0.33 -0.21,-0.27 -0.35,0.9 -0.46,-3.74 -0.46,-3.9 0.03,-7.01 -0.42,-29.45 0.26,-33.02 1.18,-0.47 10.93,-1.18 12.21,0.22zm25.84 10.93c0.66,1.97 -0.22,24.18 -0.91,25.53 -0.8,0.98 -10.47,0.49 -11.63,0.44 -1.11,-5.76 0.96,-18.5 0.78,-25.03 -0.02,-3.41 -0.18,-9.11 0.69,-11.89l11.93 -0.28c0.39,2.04 0.22,3.88 0.1,5.92 -0.18,2.97 -0.13,4.07 -0.97,5.32zm-52.39 -10.78l1.74 36.55c-2.61,0.2 -10.06,0.53 -12.31,-0.33 -0.08,-2.61 -1.78,-35.31 -1.33,-36 0.73,-1.13 10.98,-0.66 11.89,-0.23zm101.78 36.34c-0.88,1.22 0.08,0.57 -1.23,0.93l-11.52 -0.04c-0.45,-1.75 -0.53,-2.68 0.75,-4.33 -0.08,-1.68 1.22,-7.71 1.44,-9.88 0.28,-2.81 1.35,-8.06 1.06,-10.27 0.53,-3.45 1.13,-10.84 2.23,-13.26l12.33 -0.09c0.12,1.68 0.29,2.74 -0.66,4.01 0.31,2.58 -1.8,12.73 -2.23,16.27 -0.33,2.75 -2.5,15.23 -2.18,16.66zm-25 0.21l-12.19 0.28c-0.29,-1.75 2.49,-32.4 3.41,-37.1 2.05,-0.11 4.11,-0.06 6.16,-0.06 2.03,-0.01 5.28,-0.55 5.79,0.86l-3.17 36.02zm-141.98 -36.85c14.21,-0.54 11.84,-0.34 12.61,4.38 0.26,1.61 0.56,2.45 0.71,4.71 0.31,4.87 4.15,25.8 3.98,27.89l-12.21 0.13c-0.84,-4.3 -5.41,-34.75 -5.08,-37.1zm196.89 8.5c0.13,1.86 -4.8,27.28 -5.34,28.06 -0.71,0.63 0.45,0.09 -0.81,0.41l-11.4 -0.02c-0.18,-2.38 3.39,-17.3 4.1,-22l2.79 -14.99 12.39 -0.06 -1.06 7.63c-0.31,0.8 -0.28,0.56 -0.68,0.97zm-157.16 0.88c-0.26,1.88 0.78,11.39 1.1,13.76 0.39,2.89 1.49,10.95 1.19,13.82l-11.83 0.14 -3.41 -34.36c-0.72,-0.93 -0.83,-0.46 -0.69,-2.44 1.33,-1.11 2.86,-0.66 5.65,-0.65 9.13,0.02 7.5,-1.68 7.99,9.73zm-66.51 -9.36l11.96 -0.06c0.02,0.05 7.13,33.6 7.07,35.55 -0.08,2.63 0.31,-1.62 -0.08,0.64 -0.02,0.08 -0.08,0.24 -0.09,0.31 -0.34,1.53 -11.28,0.61 -12.26,0.09 -0.42,-1.36 -0.32,-3.17 -0.66,-4.64 -0.34,-1.44 -0.68,-2.93 -0.95,-4.44 -0.9,-4.86 -5.18,-25.46 -4.98,-27.45zm107.09 -68.33l10.97 -0.08c1.22,0.39 0.74,-0.82 1.22,1.25 0,0.01 -0.02,1.93 -0.03,2.1 -0.06,3.3 0.5,30.88 -0.38,31.87 -1.67,1.13 -10.16,0.94 -12.51,0.24 -0.21,-0.74 -0.75,-28.7 -0.35,-33.4 0.22,-2.55 0.13,-1.48 1.08,-1.99zm-17.29 18.59l0.05 7.33c0.53,0.51 0.73,0.46 0.88,2.33l-0.07 7.16c-2.27,0.6 -10.5,0.63 -12.7,-0.05 -0.46,-2.11 -0.6,-4.73 -0.1,-6.74 -0.39,-0.28 -1.92,-26.26 -1.47,-28.76l12.53 0.32c0.56,2.07 1.23,15.96 0.88,18.42zm56.96 16.74c-2.64,0.08 -9.65,0.7 -11.48,-0.28 -0.07,-0.08 -0.13,-0.33 -0.15,-0.28 -0.02,0.06 -0.12,-0.22 -0.13,-0.29 -0.13,-0.49 -0.15,-0.28 -0.21,-1.05l0.81 -15.91c0.13,-3.83 0.43,-14.48 1.27,-17.48l11.64 -0.05c0.49,3.22 -0.58,21.39 -1.24,26.15 -0.41,2.96 0.36,6.32 -0.5,9.19zm56.78 -0.11l-12.21 0.02c0.3,-3.52 4.79,-33.9 5.35,-34.89 2.13,-1.06 8.88,-0.42 11.71,-0.33 0.45,3.11 -4.23,29.65 -4.85,35.2zm-28.2 -0.02l-11.98 0.17c-0.45,-1.98 2.52,-33.33 3.2,-35.25l11.99 -0.12 -3.22 35.2zm-143.71 -15.05c0.52,0.44 0.82,-0.68 1.22,3.63 0.24,2.63 1.67,9.83 1.31,11.64 -2.33,0.55 -6.78,0.32 -9.55,0.34 -3.71,0.05 -2.64,-0.27 -3.19,-0.79 0.08,-1.13 -0.79,-6.99 -1.13,-8.49l-3.54 -26.43c2.06,-0.13 4.13,-0.07 6.18,-0.07 1.22,0 5,-0.39 5.79,0.47 0.42,0.69 2.98,18.14 2.91,19.7zm200.34 15.08l-12.08 0.14c-0.48,-2.29 5.58,-30.2 6.43,-35.19l12.22 -0.2 -6.56 35.25zm-173.25 -34.7l3.29 34.7 -11.86 0.04c-0.66,-1.47 -2.6,-22.58 -2.37,-24.72 -1.38,-1.73 -1.51,-8.56 -1.35,-10.53l10.87 -0.38c1.38,0.32 0.74,0.08 1.42,0.89zm-72.06 -0.4l11.96 -0.14 6.88 35.25 -10.26 0.09c-2.53,-0.16 -1.82,0.68 -3.24,-6.96l-5.33 -28.25zm288.47 -33.02l-324.85 0.04c0.28,3.47 6.6,30.47 7.51,34.27 1.91,8.02 5.87,27.68 7.67,33.88 1.45,5.01 2.69,11.23 3.94,16.98l13.53 58.94c0.46,2.17 1.39,5.59 2.07,8.28 1.67,6.7 1.6,10.03 6.43,14.14 4.58,3.89 11.1,2.79 18.12,2.79l207.28 0c7.51,0 12.58,1.16 17.34,-3.16 5.29,-4.8 4.43,-7.24 6.33,-14.64 1.48,-5.76 2.44,-10.83 3.8,-16.76l9.73 -42.21c3.33,-12.29 6.67,-31 9.83,-41.93 0.8,-2.77 1.27,-5.62 1.93,-8.56 0.63,-2.78 1.2,-5.27 1.86,-8.2 0.44,-2 0.63,-2.06 1.01,-4.34 1.04,-6.08 0.83,-3.77 1.93,-8.17 0.95,-3.77 4.46,-18.82 4.56,-21.35z"/>
    <path class="fil18" d="M3487.45 13564.97c7.93,-3.78 13.02,9.42 5.01,12.6 -6.14,2.44 -11.37,-4.08 -8.58,-9.44 1.1,-2.11 1.48,-2.16 3.58,-3.16zm-151.05 0.11c1.85,-1.1 3.72,-0.84 5.33,-0.01 6.11,3.13 4.1,10.83 -0.01,12.5 -5.64,2.29 -11.63,-3.48 -8.62,-9.45 1.2,-2.38 1.41,-1.92 3.29,-3.04zm252.78 22.09c0.22,-3.83 0.48,-23.3 -0.28,-25.96 -0.78,-2.78 -3.79,-5.33 -7.07,-5.86 -3.31,-0.53 -289.12,-0.12 -322.33,-0.12 -6.66,0 -17.54,-2.04 -19.63,6.34 -0.7,2.8 -0.41,21.72 -0.19,25.62l349.51 -0.03z"/>
    <path class="fil18" d="M3463.42 13544.36l32.73 0.07c-0.18,-2.28 -37.56,-77.72 -41.96,-86.38 -1.69,-3.33 -8.8,-19.15 -11.28,-20.94 -5.41,-3.9 -9.69,-0.29 -15.41,2.57 -4.63,2.32 -10.87,3.53 -10.07,11.26 0.27,2.61 2.28,5.28 3.37,7.4 4.76,9.24 9.53,19.35 14.06,28.71l21.14 42.96c1.16,2.38 2.36,4.9 3.58,7.25 1.21,2.33 2.18,5.18 3.83,7.11z"/>
    <path class="fil18" d="M3361.65 13544.33c4.34,-9.52 9.37,-18.84 14.09,-28.63l21.11 -42.96c2.34,-4.93 4.54,-9.3 7.09,-14.23 2.92,-5.65 5.47,-10.88 -0.04,-15.45 -1.41,-1.18 -5.43,-2.96 -7.13,-3.73 -2.56,-1.16 -4.68,-2.5 -7.07,-3.43 -3.38,-1.31 -6.24,-0.08 -8.33,1.65 -2.58,2.13 -15.93,30.62 -18.04,35.17l-10.59 21.69c-3.46,7.1 -23.94,46.75 -24.21,50.01l33.11 -0.1z"/>
   </g>
   <path class="fil4" d="M4018.85 13520.37l-59.82 0 0 85.02 58.06 0c12.63,-0.11 22.28,-4.03 29,-11.8 6.68,-7.77 10.09,-17.8 10.2,-30.21 0,-12.41 -3.19,-22.77 -9.53,-31.05 -6.62,-7.99 -15.94,-11.96 -27.9,-11.96zm-90.6 199.16l0 -227.95 90.93 0c22.55,0 39.37,6.95 50.62,20.84 11.53,13.51 17.26,30.33 17.26,50.62 0,20.35 -5.73,37.28 -17.15,50.78 -11.47,13.57 -28.4,20.35 -50.83,20.35l-60.05 0 0 85.35 -30.77 0zm301.72 -40.03c9.93,-9.27 14.89,-21.73 14.89,-37.44 0,-15.72 -5.18,-28.12 -15.49,-37.16 -10.37,-9.04 -22.55,-13.62 -36.55,-13.74 -14.06,0 -25.8,4.69 -35.29,14.06 -9.48,9.27 -14.23,21.39 -14.23,36.5 0,15.05 4.85,27.46 14.55,37.11 9.71,9.7 21.68,14.55 35.9,14.55 14.23,0 26.3,-4.63 36.23,-13.89zm45.32 40.03l-30.1 0 0 -23.71c-4.85,8.11 -12.18,14.61 -22,19.58 -9.81,4.96 -20.51,7.44 -32.2,7.44 -21.39,0 -39.98,-7.5 -55.69,-22.49 -15.17,-14.94 -22.78,-34.35 -22.78,-58.12 0,-23.82 7.5,-43.18 22.44,-58.01 14.99,-14.89 33.69,-22.39 56.07,-22.5 11.19,0 22,2.32 32.31,6.95 10.14,5.08 17.43,11.58 21.84,19.58l0 -23.22 30.1 0 0 154.5zm49.8 -197.51c-3.92,-3.8 -5.85,-8.43 -5.85,-13.89 0,-5.52 1.93,-10.09 5.85,-13.89 4.35,-3.75 9.26,-5.63 14.83,-5.63 5.57,0 10.48,1.82 14.67,5.46 4.24,3.69 6.34,8.38 6.34,14.06 0,5.68 -2.1,10.37 -6.34,14.06 -4.19,3.64 -9.1,5.46 -14.67,5.46 -5.57,0 -10.48,-1.88 -14.83,-5.63zm29.88 197.51l-30.1 0 0 -154.5 30.1 0 0 154.5zm60.99 -146.5c10.31,-7.56 22.77,-11.31 37.44,-11.31 14.61,0 26.74,3.75 36.28,11.25 9.59,7.5 15.05,18.19 16.32,32.1l-28.73 0c-0.88,-5.03 -3.53,-9.04 -7.93,-12.08 -4.86,-2.98 -10.2,-4.47 -16.16,-4.47 -5.9,0 -10.92,1.27 -14.99,3.8 -4.42,1.98 -7.17,5.46 -8.38,10.31 -1.16,4.86 -0.99,8.72 0.5,11.58 2.48,4.96 8.54,8.82 18.19,11.58l22.77 5.57c26.75,6.57 40.09,21.62 40.09,45.16 0,13.94 -5.79,25.2 -17.43,33.85 -11.74,8.33 -25.47,12.46 -41.19,12.46 -15.77,0 -29.45,-4.53 -41.08,-13.62 -11.63,-9.04 -17.53,-21.06 -17.75,-36.12l28.45 0c1.27,8 5.35,13.9 12.29,17.65 6.73,4.24 14.01,6.12 21.84,5.68 7.83,-0.44 13.89,-2.53 18.19,-6.28 4.3,-3.81 6.73,-8.38 7.28,-13.79 0.44,-5.41 -1.22,-9.71 -5.02,-12.96 -3.75,-3.25 -8.93,-5.63 -15.49,-7.11l-21.18 -4.91c-14.94,-4.03 -25.97,-9.93 -33.03,-17.81 -6.78,-8.16 -9.59,-18.36 -8.38,-30.65 1.16,-12.3 6.89,-22.23 17.09,-29.89zm280 68.81c0,6.84 -0.12,10.75 -0.33,11.86l-125.38 0c1.48,12.46 7,22.77 16.49,30.99 9.15,7.55 19.4,11.36 30.82,11.36 22.33,0 37.94,-8 46.86,-23.99 0.23,0 0.56,0.05 0.99,0.28 0.39,0.22 1.16,0.61 2.27,1.16 1.27,0.55 2.98,1.21 5.13,1.93 2.15,0.78 3.8,1.43 4.85,1.99l12.63 4.68c-6.34,13.01 -15.94,23.04 -28.78,30.1 -12.79,7.12 -26.91,10.64 -42.3,10.64 -22.11,0 -40.96,-7.44 -56.68,-22.39 -14.94,-14.94 -22.39,-34.52 -22.39,-58.62 0,-24.14 7.44,-43.51 22.28,-58.12 14.89,-14.55 33.69,-21.89 56.52,-22 22.83,0 41.25,7.39 55.25,22.11 14.5,14.67 21.79,34.02 21.79,58.01zm-45.11 -42.23c-8.6,-7.39 -19.3,-11.08 -31.98,-11.08 -12.74,0 -23.66,3.69 -32.81,11.08 -9.04,7.88 -14.34,18.14 -15.82,30.6l95.77 0c-1.48,-12.46 -6.56,-22.71 -15.16,-30.6zm242.17 -37.89c23.82,0 43.34,8.33 58.62,24.93l-22.94 19.08c-9.65,-9.7 -21.78,-14.56 -36.34,-14.56 -14.5,0 -26.85,4.69 -37,14.12 -10.2,9.26 -15.33,21.56 -15.33,36.95 0,15.33 5.18,27.79 15.49,37.38 10.36,9.65 22.71,14.44 37.16,14.44 14.55,0 26.57,-5.07 36,-15.21l23.27 19.19c-15.39,16.54 -34.85,24.81 -58.28,24.81 -23.49,0 -43.34,-7.44 -59.55,-22.33 -16.16,-15.11 -24.21,-34.52 -24.21,-58.28 0,-23.77 7.94,-43.12 23.77,-58.01 15.88,-14.89 35.62,-22.39 59.32,-22.5zm126.55 74.49l0 83.32 -30.1 0 0 -238.53 30.1 0 0 107.25c4.19,-8.6 11.36,-15.22 21.5,-19.74 10.09,-4.52 19.91,-6.78 29.39,-6.78 19.52,0 34.9,6.07 46.1,18.25 11.19,12.18 16.71,28.9 16.49,50.23l0 89.33 -30.1 0 0 -87.34c0,-12.85 -3.42,-22.72 -10.2,-29.72 -6.56,-7.56 -15.66,-11.31 -27.3,-11.31 -11.63,0 -22.16,3.7 -31.65,11.14 -9.48,7.44 -14.23,18.74 -14.23,33.9zm307.24 5.63c0,6.84 -0.12,10.75 -0.33,11.86l-125.38 0c1.48,12.46 7,22.77 16.49,30.99 9.15,7.55 19.4,11.36 30.82,11.36 22.33,0 37.94,-8 46.86,-23.99 0.23,0 0.56,0.05 0.99,0.28 0.39,0.22 1.16,0.61 2.27,1.16 1.27,0.55 2.98,1.21 5.13,1.93 2.15,0.78 3.8,1.43 4.85,1.99l12.63 4.68c-6.34,13.01 -15.94,23.04 -28.78,30.1 -12.79,7.12 -26.91,10.64 -42.3,10.64 -22.11,0 -40.96,-7.44 -56.68,-22.39 -14.94,-14.94 -22.39,-34.52 -22.39,-58.62 0,-24.14 7.44,-43.51 22.28,-58.12 14.89,-14.55 33.69,-21.89 56.52,-22 22.83,0 41.25,7.39 55.25,22.11 14.5,14.67 21.79,34.02 21.79,58.01zm-45.11 -42.23c-8.6,-7.39 -19.3,-11.08 -31.98,-11.08 -12.74,0 -23.66,3.69 -32.81,11.08 -9.04,7.88 -14.34,18.14 -15.82,30.6l95.77 0c-1.48,-12.46 -6.56,-22.71 -15.16,-30.6zm156.2 -37.89c23.82,0 43.34,8.33 58.62,24.93l-22.94 19.08c-9.65,-9.7 -21.78,-14.56 -36.34,-14.56 -14.5,0 -26.85,4.69 -37,14.12 -10.2,9.26 -15.33,21.56 -15.33,36.95 0,15.33 5.18,27.79 15.49,37.38 10.36,9.65 22.71,14.44 37.16,14.44 14.55,0 26.57,-5.07 36,-15.21l23.27 19.19c-15.39,16.54 -34.85,24.81 -58.28,24.81 -23.49,0 -43.34,-7.44 -59.55,-22.33 -16.16,-15.11 -24.21,-34.52 -24.21,-58.28 0,-23.77 7.94,-43.12 23.77,-58.01 15.88,-14.89 35.62,-22.39 59.32,-22.5zm126.55 157.81l-30.1 0 0 -238.53 30.1 0 0 137.84 53.32 -53.82 41.02 0 -66.23 66.73 82.05 87.78 -39.76 0 -70.41 -75.49 0 75.49zm242.89 -39.76c9.65,-9.48 14.5,-21.94 14.5,-37.39 0,-15.49 -4.85,-27.85 -14.5,-37.1 -9.65,-9.32 -21.67,-14 -36.06,-14.12 -14.34,0 -26.41,4.63 -36.17,13.95 -9.87,9.38 -14.83,21.73 -14.83,37.11 0,15.33 4.85,27.79 14.49,37.38 9.65,9.65 21.73,14.44 36.23,14.44 14.56,0 26.69,-4.73 36.34,-14.28zm-36.17 43.06c-22.49,0 -41.57,-7.44 -57.35,-22.33 -15.77,-14.89 -23.65,-34.3 -23.65,-58.28 0,-23.99 7.78,-43.46 23.27,-58.34 15.49,-14.89 34.63,-22.28 57.46,-22.17 22.94,0 42.12,7.45 57.62,22.34 15.61,14.99 23.44,34.4 23.44,58.17 0,23.76 -7.83,43.11 -23.49,58.12 -15.66,14.99 -34.8,22.49 -57.29,22.49zm226.57 -74.38l0 -83.43 30.1 0 0 154.5 -30.1 0 0 -23.04c-4.41,8.48 -11.03,15.05 -19.9,19.57 -8.83,4.53 -18.19,6.78 -28.12,6.78 -19.14,0 -33.86,-6.01 -44.17,-18.09 -10.32,-12.08 -15.44,-28.84 -15.34,-50.29l0 -89.44 30.11 0 0 87.29c0,12.85 2.98,22.94 8.88,30.27 5.95,7.23 14.89,10.81 26.86,10.81 11.96,0 21.89,-3.75 29.88,-11.3 8,-7.56 11.91,-18.75 11.8,-33.64zm121.58 -139.99l0 56.57 32.43 0 0 26.8 -32.43 0 0 127.7 -30.1 0 0 -127.7 -27.79 0 0 -26.8 27.79 0 0 -56.57 30.1 0z"/>
  </g>
  <path class="fil4" d="M4040.5 14665.18l-21.67 -56.27 -94.55 0 -21.67 56.27 -31.91 0 84.69 -222.84 32.35 0 84.36 222.84 -31.6 0zm-68.83 -182.73l-36.98 98.96 73.74 0 -36.76 -98.96zm232.76 143.44c9.81,-9.16 14.72,-21.34 14.72,-36.6 0,-15.26 -5.07,-27.34 -15.15,-36.17 -10.13,-8.84 -21.99,-13.32 -35.57,-13.43 -13.64,0 -25.07,4.58 -34.34,13.75 -9.28,9.27 -13.91,21.24 -13.91,36 0,14.72 4.69,26.79 14.07,36.11 9.38,9.38 20.97,14.07 34.77,14.07 13.8,0 25.6,-4.58 35.41,-13.74zm44.47 39.3l-29.43 0 0 -23.18c-4.74,7.93 -11.92,14.29 -21.51,19.14 -9.59,4.85 -20.1,7.28 -31.59,7.28 -20.97,0 -39.08,-7.33 -54.33,-21.99 -14.61,-14.6 -21.94,-33.58 -21.94,-56.82 0,-23.29 7.28,-42.21 21.78,-56.71 14.55,-14.55 32.61,-21.89 54.23,-21.99 11.64,0 22.26,2.26 31.75,6.78 9.43,4.53 16.66,10.94 21.62,19.14l0 -104.84 29.43 0 0 233.19zm153.41 -39.3c9.81,-9.16 14.72,-21.34 14.72,-36.6 0,-15.26 -5.07,-27.34 -15.15,-36.17 -10.13,-8.84 -21.99,-13.32 -35.57,-13.43 -13.64,0 -25.07,4.58 -34.34,13.75 -9.28,9.27 -13.91,21.24 -13.91,36 0,14.72 4.69,26.79 14.07,36.11 9.38,9.38 20.97,14.07 34.77,14.07 13.8,0 25.6,-4.58 35.41,-13.74zm44.47 39.3l-29.43 0 0 -23.18c-4.74,7.93 -11.92,14.29 -21.51,19.14 -9.59,4.85 -20.1,7.28 -31.59,7.28 -20.97,0 -39.08,-7.33 -54.33,-21.99 -14.61,-14.6 -21.94,-33.58 -21.94,-56.82 0,-23.29 7.28,-42.21 21.78,-56.71 14.55,-14.55 32.61,-21.89 54.23,-21.99 11.64,0 22.26,2.26 31.75,6.78 9.43,4.53 16.66,10.94 21.62,19.14l0 -104.84 29.43 0 0 233.19zm173.9 -206.34l0 55.31 31.7 0 0 26.2 -31.7 0 0 124.84 -29.44 0 0 -124.84 -27.16 0 0 -26.2 27.16 0 0 -55.31 29.44 0zm169.74 167.48c9.43,-9.28 14.18,-21.45 14.18,-36.55 0,-15.15 -4.74,-27.22 -14.18,-36.28 -9.43,-9.11 -21.19,-13.69 -35.25,-13.8 -14.01,0 -25.82,4.53 -35.36,13.64 -9.64,9.16 -14.49,21.24 -14.49,36.27 0,14.99 4.74,27.17 14.18,36.55 9.43,9.43 21.24,14.13 35.41,14.13 14.23,0 26.09,-4.63 35.52,-13.96zm-35.36 42.1c-21.99,0 -40.64,-7.28 -56.06,-21.83 -15.42,-14.56 -23.13,-33.53 -23.13,-56.98 0,-23.44 7.6,-42.47 22.75,-57.02 15.14,-14.56 33.85,-21.78 56.17,-21.67 22.42,0 41.18,7.28 56.33,21.83 15.25,14.66 22.9,33.64 22.9,56.87 0,23.24 -7.65,42.16 -22.96,56.82 -15.31,14.66 -34.01,21.99 -56.01,21.99zm273.24 -157.5c23.29,0 42.37,8.13 57.3,24.36l-22.42 18.65c-9.43,-9.49 -21.29,-14.24 -35.53,-14.24 -14.18,0 -26.25,4.58 -36.16,13.8 -9.98,9.06 -14.99,21.08 -14.99,36.11 0,14.99 5.07,27.17 15.14,36.55 10.13,9.43 22.21,14.13 36.33,14.13 14.24,0 25.99,-4.96 35.2,-14.88l22.74 18.76c-15.04,16.17 -34.07,24.25 -56.97,24.25 -22.97,0 -42.37,-7.28 -58.22,-21.83 -15.79,-14.77 -23.67,-33.75 -23.67,-56.98 0,-23.23 7.77,-42.15 23.24,-56.71 15.53,-14.55 34.82,-21.89 58,-21.99zm199.07 115.13c9.71,-9.05 14.56,-21.24 14.56,-36.6 0,-15.36 -5.07,-27.5 -15.15,-36.33 -10.13,-8.84 -22.04,-13.32 -35.74,-13.43 -13.74,0 -25.23,4.58 -34.5,13.75 -9.28,9.05 -13.91,20.91 -13.91,35.68 0,14.72 4.74,26.85 14.24,36.28 9.48,9.48 21.18,14.23 35.09,14.23 13.91,0 25.71,-4.53 35.41,-13.59zm44.31 39.14l-29.44 0 0 -23.18c-4.74,7.93 -11.91,14.29 -21.5,19.14 -9.59,4.85 -20.05,7.28 -31.48,7.28 -20.92,0 -39.08,-7.33 -54.45,-21.99 -14.82,-14.6 -22.26,-33.58 -22.26,-56.82 0,-23.29 7.33,-42.21 21.94,-56.71 14.66,-14.55 32.93,-21.89 54.82,-21.99 10.94,0 21.51,2.26 31.59,6.78 9.92,4.96 17.04,11.33 21.34,19.14l0 -22.69 29.44 0 0 151.04zm78.22 -54.93l0 54.93 -29.44 0 0 -151.04 29.44 0 0 34.06c7.38,-24.84 21.34,-37.3 41.99,-37.3 11.91,0 20.64,1.93 26.25,5.77l-4.58 27.6c-6.63,-3.5 -14.07,-5.23 -22.26,-5.23 -13.32,0 -23.5,6.36 -30.67,19.08 -7.18,12.78 -10.73,30.14 -10.73,52.12zm138.91 -151.41l0 55.31 31.7 0 0 26.2 -31.7 0 0 124.84 -29.44 0 0 -124.84 -27.16 0 0 -26.2 27.16 0 0 -55.31 29.44 0z"/>
  <rect class="fil19" x="1844.72" y="10768.37" width="2205.15" height="255.79" rx="70.55" ry="70.55"/>
  <rect class="fil19" x="6326.8" y="10768.37" width="1191.73" height="255.79" rx="38.13" ry="70.55"/>
  <rect class="fil19" x="1872.37" y="12407.15" width="2205.15" height="255.79" rx="70.55" ry="70.55"/>
  <rect class="fil19" x="1844.71" y="11499.93" width="5716.96" height="255.79" rx="182.91" ry="70.55"/>
  <rect class="fil19" x="1844.71" y="11956.44" width="5681.68" height="255.79" rx="181.78" ry="70.55"/>
 </g>
</svg>
