<?xml version="1.0" encoding="UTF-8"?>
<!DOCTYPE svg PUBLIC "-//W3C//DTD SVG 1.1//EN" "http://www.w3.org/Graphics/SVG/1.1/DTD/svg11.dtd">
<!-- Creator: CorelDRAW X6 -->
<svg xmlns="http://www.w3.org/2000/svg" xml:space="preserve" width="189.484mm" height="189.483mm" version="1.1" style="shape-rendering:geometricPrecision; text-rendering:geometricPrecision; image-rendering:optimizeQuality; fill-rule:evenodd; clip-rule:evenodd"
viewBox="0 0 19436 19436"
 xmlns:xlink="http://www.w3.org/1999/xlink">
 <defs>
  <style type="text/css">
   <![CDATA[
    .fil8 {fill:none}
    .fil0 {fill:none}
    .fil3 {fill:#13ECAB}
    .fil2 {fill:#4C57FF}
    .fil4 {fill:#C834F7}
    .fil9 {fill:#13ECAB;fill-opacity:0.501961}
    .fil7 {fill:url(#id2)}
    .fil10 {fill:url(#id3)}
    .fil16 {fill:url(#id4)}
    .fil13 {fill:url(#id5)}
    .fil15 {fill:url(#id6)}
    .fil11 {fill:url(#id7)}
    .fil20 {fill:url(#id8)}
    .fil1 {fill:url(#id9)}
    .fil5 {fill:url(#id10)}
    .fil14 {fill:url(#id11)}
    .fil19 {fill:url(#id12)}
    .fil6 {fill:url(#id13)}
    .fil17 {fill:url(#id14)}
    .fil12 {fill:url(#id15)}
    .fil18 {fill:url(#id16)}
   ]]>
  </style>
    <mask id="id0">
  <linearGradient id="id1" gradientUnits="userSpaceOnUse" x1="9193.1" y1="16992.7" x2="9092" y2="7118.98">
   <stop offset="0" style="stop-opacity:1; stop-color:white"/>
   <stop offset="1" style="stop-opacity:0; stop-color:white"/>
  </linearGradient>
     <rect style="fill:url(#id1)" x="141" y="7200" width="18003" height="9711"/>
    </mask>
  <linearGradient id="id2" gradientUnits="userSpaceOnUse" x1="3915.91" y1="15396.5" x2="15254.2" y2="5827.16">
   <stop offset="0" style="stop-color:#4C57FF"/>
   <stop offset="1" style="stop-color:#13ECAB"/>
  </linearGradient>
  <linearGradient id="id3" gradientUnits="userSpaceOnUse" x1="13936.6" y1="7887" x2="10496.9" y2="6600.18">
   <stop offset="0" style="stop-color:#13ECAB"/>
   <stop offset="1" style="stop-color:#4C57FF"/>
  </linearGradient>
  <linearGradient id="id4" gradientUnits="userSpaceOnUse" x1="7376.97" y1="6179.34" x2="4402.43" y2="8740.99">
   <stop offset="0" style="stop-color:#4C57FF"/>
   <stop offset="1" style="stop-color:#C834F7"/>
  </linearGradient>
  <linearGradient id="id5" gradientUnits="userSpaceOnUse" xlink:href="#id3" x1="8913.19" y1="8800.88" x2="8730.44" y2="10994.7">
  </linearGradient>
  <linearGradient id="id6" gradientUnits="userSpaceOnUse" xlink:href="#id4" x1="4923.24" y1="3274.48" x2="7256.99" y2="4576.56">
  </linearGradient>
  <linearGradient id="id7" gradientUnits="userSpaceOnUse" xlink:href="#id3" x1="10807" y1="8839.29" x2="9921.11" y2="12734.7">
  </linearGradient>
  <linearGradient id="id8" gradientUnits="userSpaceOnUse" xlink:href="#id4" x1="13125.1" y1="11285.9" x2="11163" y2="7213.19">
  </linearGradient>
  <linearGradient id="id9" gradientUnits="userSpaceOnUse" x1="9346" y1="7353.73" x2="8939.1" y2="16758">
   <stop offset="0" style="stop-color:#C834F7"/>
   <stop offset="1" style="stop-color:#4C57FF"/>
  </linearGradient>
  <linearGradient id="id10" gradientUnits="userSpaceOnUse" xlink:href="#id3" x1="5871.95" y1="7215.75" x2="5919.37" y2="8318.06">
  </linearGradient>
  <linearGradient id="id11" gradientUnits="userSpaceOnUse" xlink:href="#id4" x1="7291.99" y1="6182.97" x2="5330.74" y2="4296.98">
  </linearGradient>
  <linearGradient id="id12" gradientUnits="userSpaceOnUse" xlink:href="#id4" x1="12360.8" y1="10383.1" x2="13861.1" y2="12915.6">
  </linearGradient>
  <linearGradient id="id13" gradientUnits="userSpaceOnUse" xlink:href="#id4" x1="5833.77" y1="6975.46" x2="6555.31" y2="8194.63">
  </linearGradient>
  <linearGradient id="id14" gradientUnits="objectBoundingBox" xlink:href="#id2" x1="78.6096%" y1="9.81818%" x2="21.3904%" y2="90.1818%">
  </linearGradient>
  <linearGradient id="id15" gradientUnits="userSpaceOnUse" xlink:href="#id2" x1="12327.1" y1="11045.2" x2="12563.4" y2="8830.51">
  </linearGradient>
  <linearGradient id="id16" gradientUnits="objectBoundingBox" x1="72.2444%" y1="13.0045%" x2="27.7556%" y2="86.9955%">
   <stop offset="0" style="stop-color:#13ECAB"/>
   <stop offset="1" style="stop-color:#FEFEFE"/>
  </linearGradient>
 </defs>
 <g id="Layer_x0020_1">
  <metadata id="CorelCorpID_0Corel-Layer"/>
  <g id="_305133936">
   <rect class="fil0" width="19436" height="19436"/>
   <path class="fil1" style="mask:url(#id0)" d="M9718 7363c4648,0 8416,2135 8416,4769 0,2634 -3768,4769 -8416,4769 -4648,0 -8416,-2135 -8416,-4769 0,-2634 3768,-4769 8416,-4769z"/>
   <ellipse class="fil2" cx="5648" cy="9958" rx="1887" ry="1050"/>
   <path class="fil3" d="M7365 9454l0 -1497 -3402 0 0 1554c-9,43 -13,86 -13,130 0,580 770,1050 1721,1050 950,0 1721,-470 1721,-1050 0,-64 -9,-126 -27,-187z"/>
   <ellipse class="fil4" cx="5661" cy="8018" rx="1707" ry="962"/>
   <polygon class="fil2" points="4443,7435 5184,7094 5578,6973 5997,6852 6237,6806 6504,6937 6653,7091 6780,7292 6878,7537 6932,7721 6920,8095 6561,8269 6227,8398 6035,8457 5760,8301 5640,8154 5545,8042 5278,7912 "/>
   <path class="fil5" d="M5513 7207l-33 60 -33 130 -18 101 -26 190 29 128 9 110c0,0 112,102 104,116 -7,13 63,118 95,112 33,-6 178,110 178,110 0,0 113,57 131,63 18,5 145,32 145,32l125 -12 107 -62 63 -72 -25 -319 -11 -90 -164 -289 -115 -162 -173 -131 -318 -44 -50 -3 -20 32z"/>
   <polygon class="fil2" points="5799,7975 5839,8042 5976,8083 6059,8039 6086,7923 6059,7783 5996,7670 5919,7590 5824,7543 5744,7546 5688,7599 5673,7691 5679,7765 5690,7796 5783,7745 5896,7767 5925,7923 "/>
   <polygon class="fil2" points="7064,8052 7021,8184 6878,8365 6608,8517 6032,8671 5649,8704 5150,8662 4753,8528 4470,8338 4280,8139 4233,7952 4241,7785 4263,7941 4469,8153 4818,8368 5265,8508 6089,8534 6472,8430 6768,8309 6961,8172 "/>
   <polygon class="fil6" points="6819,8151 6389,8337 6388,8089 6353,7804 6204,7537 6074,7353 5901,7222 5711,7186 5533,7175 6097,6833 6216,6884 6406,7002 6632,7240 6757,7436 6816,7673 6822,7905 6856,8131 6389,8337 "/>
   <path class="fil7" d="M7446 14819l-279 119 -523 47 -558 -59 -617 -214 -671 -321 -499 -332 -392 -357 -220 -267 -77 -172 -41 -1152 109 -47 30 -134 36 -264 77 -169 119 -179 151 -222 196 -205 140 -149 415 -305 403 -308 322 -310 1009 -831 552 -511 368 -332 202 -173 1123 -653 688 -392 327 -172 202 -95 490 -98 285 -21 231 -3 288 6 98 0 413 -181 258 -56 199 -39 214 -29 211 53 285 113 234 95 270 145 229 128 344 175 392 253 253 160 196 148 130 92 74 107 15 134 -59 83 -18 243 36 152 89 142 166 125 160 101 80 62 -20 1033 -75 155 -121 172 -235 217 -217 208 -145 44 -178 -98 -232 -136 -139 -42 -122 18 -306 154 -309 181 -160 101 -1858 1805 -2340 1354 -475 -279 -160 -12 -149 54 -499 279 -332 190 -42 154 -41 517zm1303 -5937l-39 1186 1155 -662 -445 -187 -457 -224 -214 -113zm-128 -72l-101 1392 -742 416 -390 -197 -460 -292 -388 -372 -190 -339 1348 -1253 176 141 176 140 183 124 183 124 205 116z"/>
   <polygon class="fil8" points="6350,9418 7698,8165 8050,8446 8416,8694 8826,8925 9236,9133 9604,9305 9865,9406 8975,11039 8571,10986 7484,10481 6928,10129 6540,9757 "/>
   <polygon class="fil9" points="4311,11540 4620,11884 5083,12222 5546,12478 6045,12603 6223,12579 7001,12270 7422,12032 7992,11635 8598,11172 8159,11005 7489,10690 7084,10441 6740,10150 6443,9877 6170,9550 5896,9794 5481,10126 5083,10542 4762,10922 4560,11195 "/>
   <polygon class="fil2" points="7062,12236 6104,11681 6098,11479 5973,11235 6170,9550 6443,9877 6912,10296 7121,10464 7489,10690 7955,10910 8308,11062 8598,11172 8330,11377 7992,11635 7707,11834 7422,12032 "/>
   <path class="fil2" d="M14745 10556l7 -229 -38 -211 -75 -190 -77 -110 -107 -98 -130 -74 -170 0 -136 30 -154 80 -146 89 -142 107 -125 121c0,0 -65,131 -77,152 -12,21 -95,151 -95,151l-45 125 68 187 39 71 292 -178 217 -124 194 -98 72 -36 122 -18 139 42 116 68 160 92 91 51z"/>
   <polygon class="fil2" points="15083,7988 14999,8064 14921,8133 14918,8255 14942,8397 14996,8522 15088,8581 15183,8545 15227,8487 15195,8462 15106,8320 15070,8168 "/>
   <polygon class="fil10" points="11445,6598 10994,6598 10792,6610 10584,6619 10498,6654 10777,6728 11062,6868 11385,7043 11667,7251 12071,7554 12344,7765 12487,7889 13936,7889 13796,7759 13416,7521 13006,7287 12647,7094 12306,6927 12027,6806 11762,6708 11561,6636 "/>
   <polygon class="fil11" points="11421,11888 9776,12773 9586,12738 9426,12500 9307,12037 9307,11407 9467,10897 9770,10208 10002,9686 10192,9401 11112,8830 11213,8801 "/>
   <polygon class="fil12" points="11403,8652 11587,11633 12033,11223 12727,10564 13161,10149 13434,9834 13487,9721 13458,8884 12882,8332 12353,8243 11902,8391 11605,8563 "/>
   <polygon class="fil8" points="8749,8882 8710,10068 9865,9406 9420,9219 8963,8995 "/>
   <polygon class="fil8" points="8621,8810 8520,10202 7778,10618 7388,10421 6928,10129 6540,9757 6350,9418 7698,8165 7874,8306 8050,8446 8233,8570 8416,8694 "/>
   <polygon class="fil13" points="9865,9406 8571,10986 7778,10618 8520,10202 8621,8810 8749,8882 8710,10068 "/>
   <polygon class="fil3" points="4409,11887 4427,12148 4397,12415 4355,12576 4302,12677 4516,12890 4819,13128 5062,13241 5311,13366 5341,13193 5430,12926 5525,12772 5602,12677 5282,12534 4973,12368 4718,12166 4534,11982 "/>
   <polygon class="fil3" points="5653,12858 5588,13036 5558,13202 5558,13268 5908,13386 6367,13495 6835,13541 7042,13505 7173,13374 7215,13131 7203,13060 6455,13089 6193,13060 5932,12983 5806,12934 "/>
   <polygon class="fil3" points="3916,11525 3833,11638 3800,11762 3794,11884 3797,11973 3919,12145 4053,12282 4180,12374 4261,12404 4275,12291 4302,12175 4311,12035 4109,11917 3999,11750 3940,11617 "/>
   <polygon class="fil3" points="3970,12885 3953,13277 4143,13460 4507,13719 4976,13998 5401,14215 5614,14286 5591,13876 5080,13698 4684,13495 4373,13253 4154,13057 "/>
   <polygon class="fil3" points="6220,14131 6208,14476 6428,14523 6754,14553 6903,14529 6873,14179 "/>
   <polygon class="fil3" points="3661,12582 3750,12629 3738,12956 3643,12831 "/>
   <polygon class="fil2" points="3643,12831 3619,12902 3649,12991 3702,13009 3738,12956 "/>
   <polygon class="fil2" points="3953,13277 3978,13395 4047,13487 4177,13633 4373,13790 4626,13947 4923,14111 5196,14259 5436,14357 5596,14402 5620,14354 5614,14286 5401,14215 4976,13998 4741,13858 4507,13719 4362,13616 4194,13495 4117,13435 4048,13368 "/>
   <polygon class="fil2" points="6208,14476 6215,14611 6512,14642 6693,14633 6832,14599 6889,14546 6903,14529 6740,14552 6428,14523 "/>
   <polygon class="fil2" points="4347,12591 4534,12791 4842,13026 5000,13129 5169,13204 5326,13279 5311,13366 5033,13228 4857,13146 4819,13128 4516,12890 4302,12677 "/>
   <polygon class="fil2" points="9069,13872 9088,13616 9070,13293 9037,13070 8895,12931 8690,12862 8512,12862 8351,12922 8173,13037 8043,13135 7945,13257 7823,13441 7677,13697 7579,13898 7535,14071 7529,14148 8360,13679 8509,13625 8669,13637 "/>
   <polygon class="fil2" points="4334,11508 4684,11251 4904,11069 5183,10992 5510,10992 5718,11051 5978,11194 5973,11235 5884,11182 5569,11117 5314,11158 5082,11277 4851,11431 4672,11614 4508,11760 4311,11540 "/>
   <polygon class="fil4" points="10428,6960 10303,6952 10282,6779 10220,6638 10128,6557 9997,6482 9956,6477 9971,6613 9515,6935 9401,6874 9344,6779 9344,6658 9401,6545 9490,6432 9608,6367 9733,6343 9840,6352 9941,6337 10060,6364 10196,6450 10291,6512 10341,6614 10407,6726 10425,6824 "/>
   <polygon class="fil2" points="8385,6180 8323,6257 8240,6328 8148,6358 8032,6313 7972,6245 7928,6111 7940,5135 7981,5019 8056,4971 8180,4942 8281,4971 8364,5034 8391,5123 8394,5274 8418,6052 "/>
   <polygon class="fil2" points="9787,6347 9549,6197 9264,6082 8967,5966 8845,6004 8721,6117 8679,6289 8703,6382 8949,6539 9160,6744 9291,6865 9412,6922 9495,6924 9388,6854 9344,6779 9344,6658 9401,6545 9490,6432 9608,6367 "/>
   <polygon class="fil3" points="8418,5621 9000,5954 8991,5975 8845,6004 8721,6117 8679,6289 8703,6382 8712,6435 8551,6346 8409,6206 8385,6180 8418,6052 8409,5871 8406,5699 "/>
   <polygon class="fil2" points="8398,5400 8672,5201 8684,5080 8654,4955 8583,4836 8021,4489 7912,4385 7784,4287 6294,3414 6258,3307 6341,3206 6412,3171 6395,2921 6258,2684 6121,2541 5943,2535 5878,2571 5824,2618 5688,2613 5510,2713 5344,2820 5233,2852 5207,2969 5439,3865 6311,6567 6460,6502 6620,6383 6763,6389 6982,6419 7137,6543 7184,6615 7428,6870 7529,7084 7552,7315 7552,7523 7475,7677 7356,7844 7285,7933 7540,7749 7748,7600 7837,7452 7849,7173 7772,6906 7588,6448 6816,4608 7131,4792 7529,5065 7719,5083 7938,5225 "/>
   <path class="fil4" d="M5689 3085l-164 -101 -94 -51 -101 -22 -44 30 -55 29 -22 6 24 -124 93 -27 66 -36 75 25 95 39 65 46 28 68c0,0 15,54 18,61 3,8 16,57 16,57z"/>
   <path class="fil4" d="M7848 4336l-135 65 -92 72 -66 98 -59 106 -21 89 -27 90 3 74 18 74 77 62 173 17 220 123 1 -92 -76 -89 -151 -45 -140 -77c0,0 -3,-33 -3,-77 0,-45 -3,-80 6,-101 9,-21 39,-98 54,-116 14,-18 50,-56 74,-86 23,-30 80,-77 80,-77l56 -39 8 -71z"/>
   <polygon class="fil14" points="5439,3865 6243,4285 7184,6615 7137,6543 6982,6419 6620,6383 6460,6502 6311,6567 "/>
   <polygon class="fil15" points="7235,4327 7131,4792 5439,3865 5192,3739 5038,3597 4946,3347 4975,3208 5047,3086 5171,3059 5278,3131 5424,3229 "/>
   <polygon class="fil3" points="8397,5378 8449,5322 8461,5185 8437,5081 8360,4948 8226,4870 8024,4752 7912,4722 7849,4844 7834,4945 7815,5010 7864,5025 7940,5114 7981,5019 8056,4971 8180,4942 8281,4971 8364,5034 8391,5123 "/>
   <path class="fil2" d="M5115 3252l-30 51 9 68 24 92 47 71 86 57 109 -28 -18 -70c0,0 -12,-48 -19,-76 -7,-28 -39,-67 -39,-67l-48 -29 -29 -33 -45 -15 -47 -21z"/>
   <polygon class="fil16" points="7190,7952 7356,7844 7475,7677 7552,7523 7552,7315 7529,7084 7428,6870 7232,6664 7126,6534 6982,6419 6620,6383 6443,6509 6311,6567 4818,7115 4610,7234 4491,7353 4426,7442 4672,7340 5168,7109 5578,6973 5958,6860 6237,6806 6504,6937 6653,7091 6789,7305 6878,7537 6932,7721 6916,7901 6920,8095 6718,8208 6249,8392 6035,8457 5869,8350 5714,8237 5566,8071 4426,7442 4491,7353 4610,7234 4818,7115 5284,6944 5192,6925 4951,6991 4741,7077 4536,7204 4367,7347 4292,7466 4269,7549 4227,7685 4263,7941 4482,8166 4818,8368 5281,8514 5709,8537 6089,8534 6472,8430 6768,8309 6961,8172 7083,8030 "/>
   <polygon class="fil3" points="5438,6486 5171,6397 4928,6379 4744,6456 3752,7032 3657,7222 3752,7454 4013,7608 4423,7804 4963,8059 5207,8071 5456,8071 5652,8006 5824,7970 5925,7923 5896,7767 5783,7745 5700,7792 5266,7952 5070,7947 4049,7495 3889,7394 3847,7258 3889,7157 4821,6593 4999,6533 5207,6539 5343,6598 "/>
   <polygon class="fil3" points="6256,6587 5890,6373 5723,6308 5563,6355 5438,6486 5302,6646 5233,6779 5238,6935 5284,6944 "/>
   <polygon class="fil4" points="8237,5544 8249,6102 8228,6257 8127,6325 8002,6257 7928,6111 7940,5114 7981,5019 8050,5007 8130,5025 8192,5081 8222,5149 8225,5238 "/>
   <polygon class="fil3" points="7981,5146 7987,5271 8070,5360 8148,5351 8136,5191 8085,5155 8017,5138 "/>
   <path class="fil3" d="M8066 6012l58 18 22 31 14 53 -8 67c0,0 -7,30 -15,34 -7,5 -50,14 -50,14l-49 -11c-28,-14 -49,-51 -66,-105 11,-66 43,-98 94,-101z"/>
   <ellipse class="fil4" cx="14198" cy="8776" rx="496" ry="502"/>
   <ellipse class="fil17" cx="14209" cy="8708" rx="496" ry="502"/>
   <ellipse class="fil18" cx="14217" cy="8705" rx="350" ry="351"/>
   <path class="fil3" d="M14195 8977c-125,-14 -225,-114 -239,-239l239 0 0 239z"/>
   <path class="fil4" d="M14495 8738c-14,126 -114,225 -239,239l0 -239 239 0z"/>
   <path class="fil2" d="M14195 8678l-239 0c7,-63 36,-120 78,-162l161 161 0 1 0 0z"/>
   <path class="fil2" d="M14418 8516c42,43 70,99 77,162l-239 0 162 -162z"/>
   <ellipse class="fil4" cx="4639" cy="9611" rx="496" ry="502"/>
   <ellipse class="fil17" cx="4651" cy="9542" rx="496" ry="502"/>
   <ellipse class="fil18" cx="4659" cy="9540" rx="350" ry="351"/>
   <path class="fil3" d="M4637 9812c-126,-14 -225,-114 -239,-240l239 0 0 240z"/>
   <path class="fil4" d="M4937 9572c-14,126 -114,226 -240,240l0 -240 240 0z"/>
   <path class="fil2" d="M4637 9512l-239 0c7,-63 35,-119 78,-161l161 161 0 0 0 0z"/>
   <path class="fil2" d="M4859 9351c42,42 71,99 78,161l-239 0 161 -161z"/>
   <ellipse class="fil2" cx="13136" cy="14289" rx="1887" ry="1050"/>
   <path class="fil3" d="M11419 13785l0 -1498 3402 0 0 1555c8,42 13,86 13,129 0,580 -771,1051 -1721,1051 -951,0 -1722,-471 -1722,-1051 0,-63 10,-126 28,-186z"/>
   <ellipse class="fil4" cx="13122" cy="12348" rx="1707" ry="962"/>
   <polygon class="fil2" points="10864,8579 10801,8656 10718,8727 10626,8757 10510,8712 10451,8644 10407,8511 10418,7534 10460,7418 10534,7371 10659,7341 10760,7371 10843,7433 10870,7522 10873,7673 10896,8451 "/>
   <polygon class="fil4" points="10715,7944 10727,8502 10706,8656 10605,8724 10481,8656 10407,8511 10418,7513 10460,7418 10528,7406 10608,7424 10671,7480 10700,7549 10703,7638 "/>
   <polygon class="fil3" points="10460,7546 10466,7670 10549,7759 10626,7751 10614,7590 10564,7555 10496,7537 "/>
   <path class="fil3" d="M10545 8411l58 18 22 31 13 54 -7 66c0,0 -8,30 -15,35 -8,4 -51,13 -51,13l-48 -11c-28,-14 -50,-51 -66,-105 11,-66 43,-98 94,-101z"/>
   <polygon class="fil19" points="11677,12178 11778,12522 12009,12748 12449,12973 13072,13051 13530,13033 13999,12914 14313,12683 14480,12469 14527,12350 14545,11869 14260,11537 13904,11352 13646,11291 12977,10248 12526,10854 13607,12534 13613,12665 13209,12677 13102,12772 12936,12825 12603,12742 "/>
   <polygon class="fil2" points="11711,12293 12057,12611 12407,12795 12829,12884 13298,12878 13737,12801 14028,12641 14337,12457 14527,12350 14480,12469 14335,12654 13999,12914 13530,13033 13072,13051 12449,12973 12009,12748 11778,12522 "/>
   <path class="fil4" d="M10840 10169l1245 -828 -57 -169 24 -173 68 -106 107 -66 54 -38 110 -26 101 2 124 74 110 110 71 112 44 162 -17 201 -98 131 -203 52 -930 1009c-31,-222 -155,-333 -337,-373l-204 -44 -212 -30z"/>
   <polygon class="fil3" points="13209,12677 13102,12772 12936,12825 12603,12742 11677,12178 11540,12032 11493,11860 11561,11637 11730,11456 11846,11373 11956,11344 12089,11367 13197,12017 13292,12148 13322,12276 13310,12400 13286,12495 "/>
   <polygon class="fil2" points="12023,11355 11976,11347 11846,11373 11719,11469 11648,11496 11429,11455 11224,11345 11067,11185 10969,11039 10877,10870 10802,10704 10785,10511 10782,10350 10840,10169 11070,10074 11254,10092 11444,10187 11574,10333 11613,10386 11954,10110 11824,10000 11645,9899 11476,9863 11319,9869 11268,9884 11375,9801 11607,9804 11776,9858 11898,9944 11981,10051 12025,10068 12308,9632 12218,9507 12144,9418 12017,9391 12085,9341 12189,9377 12296,9448 12385,9463 12468,9400 12456,9276 12411,9160 12343,9097 12272,9083 12192,9145 12132,9106 12126,8967 12180,8899 12302,8907 12417,9000 12489,9095 12536,9213 12569,9356 12566,9507 12523,9607 12726,9555 12824,9424 12845,9243 12809,9080 12726,8949 12616,8839 12492,8765 12367,8762 12281,8789 12408,8685 12563,8679 12708,8762 12827,8893 12860,9026 12901,9175 12916,9415 12875,9581 12741,10071 12542,10502 12305,10914 12159,11110 11962,11291 11868,11351 11956,11344 "/>
   <polygon class="fil2" points="13209,12677 13613,12665 13607,12534 12526,10854 12023,11355 12102,11375 13197,12017 13292,12148 13320,12268 13310,12400 13286,12495 "/>
   <ellipse class="fil3" transform="matrix(1.68609 -1.25878 1.25878 1.68609 11291.6 10724.5)" rx="148" ry="259"/>
   <ellipse class="fil4" transform="matrix(0.87658 -0.654428 0.654428 0.87658 11280.3 10724.5)" rx="148" ry="259"/>
   <polygon class="fil20" points="12030,11348 11956,11344 11868,11351 11962,11291 12159,11110 12311,10903 12542,10502 12741,10071 12848,9680 12916,9415 12901,9175 12852,8996 12827,8893 12708,8762 12563,8679 12408,8685 12753,8478 11616,7837 11461,8205 10959,7855 10954,7650 11046,7534 10719,7318 10876,7148 13213,8372 13468,8544 13569,8790 13542,8995 13415,9114 13281,9152 13234,10289 13198,10417 13118,10468 12977,10248 12526,10854 "/>
   <polygon class="fil2" points="12281,8789 10876,7873 10873,7552 10832,7445 10722,7365 10609,7359 10544,7359 10615,7282 10734,7267 10719,7318 11046,7534 10954,7650 10959,7855 11461,8205 11616,7837 12753,8478 12421,8677 "/>
   <polygon class="fil2" points="10414,7879 9896,7647 9671,7736 9641,8092 9700,8336 9837,8176 9902,8348 9920,8478 10104,8265 10407,8455 "/>
   <path class="fil4" d="M13141 12392l-72 53 -12 95 24 74 333 104 273 12 220 -44 121 -45c325,-137 568,-325 710,-579l18 -172 6 -365 -113 -374 -196 -291 -855 -962 -113 -107 -327 -48 12 161 184 6 998 1157 184 303 95 291 -18 279 -208 303 -475 291 -320 65 -220 -29 -249 -178z"/>
   <ellipse class="fil4" cx="13115" cy="14166" rx="496" ry="502"/>
   <ellipse class="fil17" cx="13126" cy="14097" rx="496" ry="502"/>
   <ellipse class="fil18" cx="13134" cy="14094" rx="350" ry="351"/>
   <path class="fil3" d="M13113 14366c-126,-14 -226,-113 -240,-239l240 0 0 239z"/>
   <path class="fil4" d="M13412 14127c-14,126 -113,226 -239,239l0 -239 239 0z"/>
   <path class="fil2" d="M13113 14067l-240 0c7,-63 36,-120 78,-162l162 162 0 0 0 0z"/>
   <path class="fil2" d="M13335 13906c42,42 70,98 77,161l-238 0 161 -161z"/>
  </g>
 </g>
</svg>
