<?xml version="1.0" encoding="UTF-8"?>
<!DOCTYPE svg PUBLIC "-//W3C//DTD SVG 1.1//EN" "http://www.w3.org/Graphics/SVG/1.1/DTD/svg11.dtd">
<!-- Creator: CorelDRAW X6 -->
<svg xmlns="http://www.w3.org/2000/svg" xml:space="preserve" width="195.167mm" height="174.493mm" version="1.1"
     style="shape-rendering:geometricPrecision; text-rendering:geometricPrecision; image-rendering:optimizeQuality; fill-rule:evenodd; clip-rule:evenodd"
     viewBox="0 0 18876 16876"
>
 <defs>
  <style type="text/css">
   <![CDATA[
.str0 {
    stroke: #00C2FF;
    stroke-width: 65.5053
}

.fil5 {
    fill: none
}

.fil1 {
    fill: #00C2FF
}

.fil2 {
    fill: #3B9CFF
}

.fil0 {
    fill: #FFF;
}

.fil4 {
    fill: #FBD13E
}

.fil3 {
    fill: #FEB434
}

.circle1 {
        fill: #fef3e0;
    stroke: #FEB434;
}

.circle2 {
    fill: #e1efff;
    stroke: #3B9CFF;
}

.circle3 {
    fill: #fef7e1;
    stroke: #FBD13E;
}

.circle4 {
    fill: #d9f6ff;
}

.text1 {
    fill: #FBD13E;
}

.text2 {
    fill: #3B9CFF;
}

.text3 {
    fill: #00C2FF;
}

.text4 {
    fill: #FEB434;
}
   ]]>
  </style>
 </defs>
    <g id="Layer_x0020_1">
  <metadata id="CorelCorpID_0Corel-Layer"/>
        <circle class="fil0" cx="9316" cy="8415" r="1888"/>
        <g id="_949582416">
   <polygon class="fil1" points="9394,8564 9394,9571 8396,9571 "/>
            <polygon class="fil2" points="8305,8477 9297,8477 8305,9477 "/>
            <polygon class="fil1" points="9306,8353 8305,8353 8305,7344 "/>
            <polygon class="fil2" points="8405,7259 9394,7259 9394,8257 "/>
            <path class="fil3" d="M10321 7651c168,189 276,433 295,702l-991 0 696 -702z"/>
            <path class="fil4" d="M10230 7559l-700 706 0 -1003c268,18 511,127 700,297z"/>
  </g>
        <polygon class="fil5 str0" points="1644,8406 5465,1708 13184,1765 16987,8406 13203,15122 5503,15027 "/>
        <circle class="fil0 circle2" cx="5282" cy="1888" r="1888"/>
        <circle class="fil0 circle2" cx="5282" cy="14988" r="1888"/>
        <circle class="fil0 circle3" cx="13025" cy="1888" r="1888"/>
        <circle class="fil0 circle4" cx="13025" cy="14988" r="1888"/>
        <circle class="fil0 circle1" cx="16987" cy="8406" r="1888"/>
        <circle class="fil0 circle4" cx="1888" cy="8406" r="1888"/>
        <path class="fil1 text3"
              d="M12446 14344l1167 0 3 186 -1174 0 3 -186zm-69 315l1289 3 3 189c-15,247 -334,252 -433,76 -127,172 -317,173 -425,-2 -124,197 -405,153 -433,-79l0 -187zm406 974l-338 -2 -2 -483c137,76 259,47 374,-33 151,110 290,94 424,0 108,86 232,101 373,36l3 484 -343 3 2 -284c-5,-30 -21,-49 -56,-51l-374 -2c-45,4 -66,26 -66,64l3 266zm113 -213l256 0 0 213 -256 0 0 -213zm-521 -1209l1294 0c36,0 66,30 66,66l-2 247c44,4 64,27 64,66l-1 291c-4,60 -24,106 -61,135l0 683c0,36 -30,66 -66,66l-1294 0c-36,0 -66,-30 -66,-66l-2 -667c-27,-30 -44,-71 -54,-121l-1 -336c2,-33 19,-55 58,-60l0 -238c0,-36 30,-66 66,-66z"/>
        <path class="fil1 text2"
              d="M4704 14344l1167 0 3 186 -1174 0 3 -186zm-69 315l1289 3 3 189c-15,247 -334,252 -433,76 -127,172 -317,173 -425,-2 -124,197 -405,153 -433,-79l0 -187zm406 974l-338 -2 -2 -483c137,76 259,47 374,-33 151,110 290,94 424,0 108,86 232,101 373,36l3 484 -343 3 2 -284c-5,-30 -21,-49 -56,-51l-374 -2c-45,4 -66,26 -66,64l3 266zm113 -213l256 0 0 213 -256 0 0 -213zm-521 -1209l1294 0c36,0 66,30 66,66l-2 247c44,4 64,27 64,66l-1 291c-4,60 -24,106 -61,135l0 683c0,36 -30,66 -66,66l-1294 0c-36,0 -66,-30 -66,-66l-2 -667c-27,-30 -44,-71 -54,-121l-1 -336c2,-33 19,-55 58,-60l0 -238c0,-36 30,-66 66,-66z"/>
        <path class="fil1 text3"
              d="M1310 7762l1167 0 3 186 -1174 0 3 -186zm-69 315l1289 3 3 189c-15,247 -334,252 -433,76 -127,172 -317,173 -425,-2 -124,197 -405,153 -433,-79l0 -187zm406 974l-338 -2 -2 -483c137,76 259,47 374,-33 151,110 290,94 424,0 108,86 232,101 373,36l3 484 -343 3 2 -284c-5,-30 -21,-49 -56,-51l-374 -2c-45,4 -66,26 -66,64l3 266zm113 -213l256 0 0 213 -256 0 0 -213zm-521 -1209l1294 0c36,0 66,30 66,66l-2 247c44,4 64,27 64,66l-1 291c-4,60 -24,106 -61,135l0 683c0,36 -30,66 -66,66l-1294 0c-36,0 -66,-30 -66,-66l-2 -667c-27,-30 -44,-71 -54,-121l-1 -336c2,-33 19,-55 58,-60l0 -238c0,-36 30,-66 66,-66z"/>
        <path class="fil1 text2"
              d="M4704 1245l1167 0 3 186 -1174 0 3 -186zm-69 315l1289 3 3 189c-15,247 -334,252 -433,76 -127,172 -317,173 -425,-2 -124,197 -405,153 -433,-79l0 -187zm406 974l-338 -2 -2 -483c137,76 259,47 374,-33 151,110 290,94 424,0 108,86 232,101 373,36l3 484 -343 3 2 -284c-5,-30 -21,-49 -56,-51l-374 -2c-45,4 -66,26 -66,64l3 266zm113 -213l256 0 0 213 -256 0 0 -213zm-521 -1209l1294 0c36,0 66,30 66,66l-2 247c44,4 64,27 64,66l-1 291c-4,60 -24,106 -61,135l0 683c0,36 -30,66 -66,66l-1294 0c-36,0 -66,-30 -66,-66l-2 -667c-27,-30 -44,-71 -54,-121l-1 -336c2,-33 19,-55 58,-60l0 -238c0,-36 30,-66 66,-66z"/>
        <path class="fil1 text1"
              d="M12446 1245l1167 0 3 186 -1174 0 3 -186zm-69 315l1289 3 3 189c-15,247 -334,252 -433,76 -127,172 -317,173 -425,-2 -124,197 -405,153 -433,-79l0 -187zm406 974l-338 -2 -2 -483c137,76 259,47 374,-33 151,110 290,94 424,0 108,86 232,101 373,36l3 484 -343 3 2 -284c-5,-30 -21,-49 -56,-51l-374 -2c-45,4 -66,26 -66,64l3 266zm113 -213l256 0 0 213 -256 0 0 -213zm-521 -1209l1294 0c36,0 66,30 66,66l-2 247c44,4 64,27 64,66l-1 291c-4,60 -24,106 -61,135l0 683c0,36 -30,66 -66,66l-1294 0c-36,0 -66,-30 -66,-66l-2 -667c-27,-30 -44,-71 -54,-121l-1 -336c2,-33 19,-55 58,-60l0 -238c0,-36 30,-66 66,-66z"/>
        <path class="fil1 text4"
              d="M16409 7762l1167 0 3 186 -1174 0 3 -186zm-69 315l1289 3 3 189c-15,247 -334,252 -433,76 -127,172 -317,173 -425,-2 -124,197 -405,153 -433,-79l0 -187zm406 974l-338 -2 -2 -483c137,76 259,47 374,-33 151,110 290,94 424,0 108,86 232,101 373,36l3 484 -343 3 2 -284c-5,-30 -21,-49 -56,-51l-374 -2c-45,4 -66,26 -66,64l3 266zm113 -213l256 0 0 213 -256 0 0 -213zm-521 -1209l1294 0c36,0 66,30 66,66l-2 247c44,4 64,27 64,66l-1 291c-4,60 -24,106 -61,135l0 683c0,36 -30,66 -66,66l-1294 0c-36,0 -66,-30 -66,-66l-2 -667c-27,-30 -44,-71 -54,-121l-1 -336c2,-33 19,-55 58,-60l0 -238c0,-36 30,-66 66,-66z"/>
 </g>
</svg>
