<?xml version="1.0" encoding="UTF-8"?>
<!DOCTYPE svg PUBLIC "-//W3C//DTD SVG 1.1//EN" "http://www.w3.org/Graphics/SVG/1.1/DTD/svg11.dtd">
<!-- Creator: CorelDRAW X6 -->
<svg xmlns="http://www.w3.org/2000/svg" xml:space="preserve" width="112.68mm" height="200mm" version="1.1" style="shape-rendering:geometricPrecision; text-rendering:geometricPrecision; image-rendering:optimizeQuality; fill-rule:evenodd; clip-rule:evenodd"
viewBox="0 0 11170 19826"
 xmlns:xlink="http://www.w3.org/1999/xlink">
 <defs>
  <style type="text/css">
   <![CDATA[
    .str1 {stroke:#D5F6FF;stroke-width:33.576}
    .str3 {stroke:#00C2FF;stroke-width:41.9626}
    .str2 {stroke:#3B9CFF;stroke-width:41.9626}
    .str0 {stroke:#3B9CFF;stroke-width:7.55386}
    .fil20 {fill:none}
    .fil19 {fill:none}
    .fil14 {fill:none;fill-rule:nonzero}
    .fil6 {fill:#00C2FF}
    .fil7 {fill:#3B9CFF}
    .fil16 {fill:#95C9FF}
    .fil12 {fill:#FFFFFF; opacity: 0.96}
    .fil9 {fill:#FBD13E}
    .fil8 {fill:#FEB434}
    .fil4 {fill:#3B9CFF;fill-rule:nonzero}
    .fil11 {fill:#FBD13E;fill-rule:nonzero}
    .fil5 {fill:#FEB434;fill-rule:nonzero}
    .fil0 {fill:none; opacity: 0.96}
    .fil17 {fill:#3B9CFF;fill-rule:nonzero;fill-opacity:0.45}
    .fil2 {fill:white;fill-opacity:0.96}
    .fil15 {fill:#3B9CFF;fill-rule:nonzero;fill-opacity:0.0.6}
    .fil10 {fill:#CFE7FF;fill-opacity:0.6}
    .fil1 {fill:#FFFFFF;fill-opacity:0.99}
    .fil18 {fill:#00C2FF;fill-rule:nonzero}
    .fil3 {fill:#3B9CFF;fill-rule:nonzero}
    .fil13 {fill:#95C9FF;fill-rule:nonzero}
   ]]>
  </style>
 </defs>
 <g id="Layer_x0020_1">
  <metadata id="CorelCorpID_0Corel-Layer"/>
  <path class="fil0" d="M2267 1073c-1055,-63 -1225,262 -1263,1063l2 1644 9160 0 0 -1536c-14,-946 -353,-1221 -1235,-1215l-768 755 -5087 21 -808 -732zm-1261 2707l6 13420c-12,1042 254,1517 1015,1574l6698 16c1087,79 1466,-533 1440,-1541l0 -13469 -9160 0z"/>
  <path class="fil1" d="M9117 19067l-6811 35c-1456,36 -1647,-677 -1611,-2005l7 -15355c75,-552 342,-891 825,-987l839 0c244,97 343,720 1019,718l4473 1c667,-134 603,-674 1059,-726l743 21c505,72 770,571 776,1144l9 15743c1,852 -370,1408 -1327,1413zm-7643 -19067c-915,145 -1449,735 -1429,1971l-45 15969c-28,1264 705,1822 1972,1886l7411 -6c992,21 1603,-445 1743,-1516l43 -16394c-23,-1094 -913,-1914 -1963,-1908l-7733 -3z"/>
  <path class="fil2" d="M2110 2048l6950 0c207,0 376,169 376,376l0 932c0,207 -169,376 -376,376l-6950 0c-207,0 -376,-169 -376,-376l0 -932c0,-207 169,-376 376,-376z"/>
  <path class="fil2" d="M2101 4099l6969 0c202,0 367,165 367,367l0 951c0,202 -165,367 -367,367l-6969 0c-202,0 -367,-165 -367,-367l0 -951c0,-202 165,-367 367,-367z"/>
  <path class="fil3" d="M2187 4832l45 0 54 151 54 -151 41 0 54 151 54 -151 45 0 -80 215 -35 0 -59 -158 -57 158 -34 0 -82 -215zm364 0l45 0 54 151 54 -151 41 0 54 151 54 -151 45 0 -80 215 -35 0 -59 -158 -57 158 -34 0 -82 -215zm364 0l45 0 54 151 54 -151 41 0 54 151 54 -151 45 0 -80 215 -35 0 -59 -158 -57 158 -34 0 -82 -215zm380 212c-6,-5 -9,-12 -9,-20 0,-8 3,-15 9,-21 6,-6 13,-8 21,-8 8,0 16,3 22,8 6,6 9,13 9,21 0,8 -3,15 -9,20 -6,5 -13,8 -22,8 -8,0 -15,-3 -21,-8zm102 -61l39 0c1,5 3,10 6,14 3,5 7,8 12,11 10,6 21,8 34,8 10,-1 18,-4 24,-9 6,-5 9,-12 9,-20 0,-7 -2,-13 -8,-18 -5,-5 -12,-8 -21,-10l-30 -7c-21,-6 -36,-14 -46,-25 -10,-11 -14,-26 -12,-45 1,-16 10,-29 24,-39 15,-11 32,-16 51,-16 9,0 18,1 26,3 8,2 16,6 22,10 7,5 12,11 17,19 4,8 7,17 8,28l-39 0c-1,-8 -5,-14 -11,-18 -6,-4 -14,-6 -22,-6 -8,0 -15,2 -21,5 -6,4 -10,8 -11,14 -2,7 -2,13 0,17 3,7 12,13 25,17l32 8c37,9 56,30 57,63 0,19 -8,35 -25,46 -16,12 -36,18 -60,18 -13,0 -26,-3 -38,-8 -12,-5 -22,-13 -30,-24 -8,-11 -12,-23 -13,-37zm218 169l0 -320 42 0 0 34c7,-12 17,-21 31,-28 14,-7 29,-10 44,-10 30,0 55,11 76,32 21,21 31,48 31,82 0,22 -5,42 -15,59 -10,17 -23,30 -39,39 -16,9 -34,13 -54,13 -16,0 -31,-3 -44,-9 -14,-6 -24,-15 -31,-27l0 137 -42 0zm42 -211c0,22 7,39 21,51 14,12 31,19 49,19 20,0 36,-6 50,-19 13,-13 20,-30 20,-51 0,-21 -7,-39 -20,-52 -13,-14 -30,-20 -50,-20 -20,0 -36,7 -50,20 -14,13 -20,31 -20,53zm224 -1c0,-22 5,-42 15,-59 10,-17 23,-30 40,-39 16,-9 35,-14 54,-14 16,0 31,3 45,10 14,6 24,16 31,27l0 -32 42 0 0 215 -42 0 0 -33c-7,12 -17,21 -31,28 -14,7 -29,10 -44,10 -30,0 -56,-10 -77,-31 -21,-21 -32,-48 -32,-81zm43 0c0,21 7,38 20,51 14,14 30,20 50,20 20,0 37,-6 51,-19 14,-13 21,-30 21,-52 0,-15 -4,-28 -11,-39 -7,-11 -16,-19 -27,-24 -11,-5 -22,-8 -34,-8 -20,0 -36,7 -50,20 -13,13 -20,30 -20,51zm238 108l0 -35 128 -140 -121 0 0 -40 182 0 0 35 -131 141 131 0 0 40 -190 0zm231 -108c0,-22 5,-42 15,-59 10,-17 23,-30 40,-39 16,-9 35,-14 54,-14 16,0 31,3 45,10 14,6 24,16 31,27l0 -32 42 0 0 215 -42 0 0 -33c-7,12 -17,21 -31,28 -14,7 -29,10 -44,10 -30,0 -56,-10 -77,-31 -21,-21 -32,-48 -32,-81zm43 0c0,21 7,38 20,51 14,14 30,20 50,20 20,0 37,-6 51,-19 14,-13 21,-30 21,-52 0,-15 -4,-28 -11,-39 -7,-11 -16,-19 -27,-24 -11,-5 -22,-8 -34,-8 -20,0 -36,7 -50,20 -13,13 -20,30 -20,51zm254 108l0 -215 42 0 0 32c5,-11 14,-19 26,-26 12,-6 23,-10 34,-10 8,0 16,0 24,1 27,4 46,18 56,42 15,-30 40,-44 74,-44 27,0 47,8 62,25 14,17 21,40 21,70l0 125 -42 0 0 -122c0,-18 -4,-32 -13,-42 -9,-10 -21,-15 -36,-15 -17,0 -31,6 -42,17 -10,12 -16,27 -16,45l0 116 -42 0 0 -122c0,-18 -4,-31 -13,-42 -8,-10 -20,-15 -34,-15 -17,0 -31,5 -42,16 -12,10 -17,26 -17,47l0 116 -42 0zm392 -108c0,-22 5,-42 15,-59 10,-17 23,-30 40,-39 16,-9 35,-14 54,-14 16,0 31,3 45,10 14,6 24,16 31,27l0 -32 42 0 0 215 -42 0 0 -33c-7,12 -17,21 -31,28 -14,7 -29,10 -44,10 -30,0 -56,-10 -77,-31 -21,-21 -32,-48 -32,-81zm43 0c0,21 7,38 20,51 14,14 30,20 50,20 20,0 37,-6 51,-19 14,-13 21,-30 21,-52 0,-15 -4,-28 -11,-39 -7,-11 -16,-19 -27,-24 -11,-5 -22,-8 -34,-8 -20,0 -36,7 -50,20 -13,13 -20,30 -20,51zm254 108l0 -333 42 0 0 333 -42 0zm112 0l0 -333 42 0 0 333 -42 0zm117 -3c-6,-5 -9,-12 -9,-20 0,-8 3,-15 9,-21 6,-6 13,-8 21,-8 8,0 16,3 22,8 6,6 9,13 9,21 0,8 -3,15 -9,20 -6,5 -13,8 -22,8 -8,0 -15,-3 -21,-8zm119 -46c-11,-17 -16,-37 -16,-59 0,-22 5,-42 16,-59 11,-17 25,-30 42,-39 17,-9 36,-14 57,-14 16,0 32,3 46,9 14,6 27,15 37,26l-32 27c-13,-13 -31,-20 -51,-20 -20,0 -37,7 -51,20 -14,13 -21,30 -21,51 0,21 7,38 21,52 14,13 31,20 51,20 20,0 38,-7 51,-21l32 27c-10,11 -23,20 -37,26 -14,6 -30,9 -47,9 -20,0 -39,-5 -57,-14 -17,-9 -31,-23 -42,-40zm230 0c-10,-17 -16,-37 -16,-59 0,-22 5,-42 16,-59 10,-17 24,-30 41,-39 17,-9 36,-14 56,-14 21,0 39,5 56,14 17,9 31,22 41,39 10,17 15,37 15,59 0,22 -5,42 -15,59 -10,18 -24,31 -41,40 -17,9 -36,14 -56,14 -20,0 -39,-5 -56,-14 -17,-9 -31,-23 -41,-40zm26 -59c0,21 7,39 21,52 14,13 31,20 50,20 20,0 36,-7 50,-20 14,-13 21,-31 21,-52 0,-21 -7,-38 -20,-51 -14,-13 -30,-19 -50,-19 -20,0 -37,6 -50,19 -14,13 -21,30 -21,51zm239 108l0 -215 42 0 0 32c5,-11 14,-19 26,-26 12,-6 23,-10 34,-10 8,0 16,0 24,1 27,4 46,18 56,42 15,-30 40,-44 74,-44 27,0 47,8 62,25 14,17 21,40 21,70l0 125 -42 0 0 -122c0,-18 -4,-32 -13,-42 -9,-10 -21,-15 -36,-15 -17,0 -31,6 -42,17 -10,12 -16,27 -16,45l0 116 -42 0 0 -122c0,-18 -4,-31 -13,-42 -8,-10 -20,-15 -34,-15 -17,0 -31,5 -42,16 -12,10 -17,26 -17,47l0 116 -42 0z"/>
  <path class="fil4" d="M3496 2967c0,10 0,19 -1,26l-210 0c0,22 8,40 24,53 15,13 36,19 62,19 18,0 33,-2 45,-9 21,-11 29,-27 78,-26 -5,22 -18,39 -41,53 -23,14 -50,20 -82,20 -42,0 -75,-11 -99,-33 -25,-22 -37,-52 -37,-90 0,-24 6,-46 16,-64 11,-19 27,-33 47,-43 20,-10 44,-15 70,-15 25,0 47,5 67,14 19,9 35,22 45,39 11,17 16,36 16,57zm-50 -8c0,-21 -7,-37 -21,-49 -14,-12 -33,-18 -58,-18 -24,0 -44,6 -59,18 -15,12 -23,28 -24,48l161 0z"/>
  <path class="fil4" d="M3094 3104c-22,0 -41,-3 -58,-10 -17,-7 -30,-16 -40,-27 -10,-12 -14,-25 -14,-39 46,-1 40,7 68,29 11,9 28,11 47,11 15,0 28,-3 37,-9 9,-6 14,-14 14,-24 0,-8 -3,-15 -9,-21 -6,-5 -17,-10 -32,-13l-55 -12c-20,-5 -35,-13 -46,-24 -10,-11 -16,-25 -16,-41 0,-20 10,-36 29,-48 19,-13 43,-19 73,-19 32,0 58,6 76,19 19,13 28,30 28,52 -46,3 -43,-12 -65,-27 -10,-7 -24,-10 -41,-10 -15,0 -26,3 -35,8 -9,6 -14,13 -14,23 0,8 3,14 9,20 6,5 16,10 30,13l56 13c20,5 36,13 47,24 11,11 16,25 16,41 0,22 -9,39 -28,52 -19,13 -44,19 -77,19z"/>
  <path class="fil4" d="M2891 2863l-1 207c1,21 18,26 46,27l0 -202c-2,-25 -19,-33 -45,-32z"/>
  <path class="fil5" d="M2915 2821c-8,0 -14,-2 -19,-7 -5,-5 -8,-11 -8,-19 0,-7 3,-14 8,-19 5,-5 11,-8 19,-8 8,0 14,3 19,8 5,5 8,11 8,19 0,7 -3,14 -8,19 -5,5 -11,7 -19,7z"/>
  <path class="fil4" d="M2704 3103c-28,-2 -52,-5 -72,-16 -20,-11 -36,-25 -46,-44 -10,-19 -16,-40 -16,-63 0,-23 6,-44 17,-63 11,-19 27,-34 47,-44 20,-11 44,-17 72,-16 27,1 86,9 95,37 3,-22 18,-30 40,-28l0 205c-1,20 -17,27 -40,27l0 -28c-15,25 -76,36 -97,34zm7 -40c29,0 51,-8 67,-24 16,-16 24,-36 24,-59 0,-24 -8,-44 -24,-60 -16,-16 -39,-24 -67,-24 -27,0 -50,8 -66,24 -17,16 -25,36 -25,60 0,24 8,44 25,60 16,16 39,23 66,23z"/>
  <polygon class="fil6" points="2306,2915 2306,3103 2120,3103 "/>
  <polygon class="fil7" points="2103,2899 2288,2899 2103,3086 "/>
  <polygon class="fil6" points="2290,2875 2103,2875 2103,2687 "/>
  <polygon class="fil7" points="2121,2671 2306,2671 2306,2858 "/>
  <path class="fil8" d="M2479 2744c31,35 52,81 55,131l-185 0 130 -131z"/>
  <path class="fil9" d="M2462 2727l-131 132 0 -187c50,3 96,24 131,55z"/>
  <path class="fil10" d="M8238 4521c231,0 417,187 417,417 0,231 -187,417 -417,417 -231,0 -417,-187 -417,-417 0,-231 187,-417 417,-417z"/>
  <g>
   <path class="fil4" d="M8860 5020l-106 -119 30 -26 106 119 1 25 -31 1zm31 -1l-15 19 -16 -18 31 -1zm90 -120l-90 120 -32 -24 90 -120 32 24z"/>
  </g>
  <g>
   <path class="fil7" d="M8076 4850l246 187 -26 7c-71,18 -145,-1 -196,-54 -37,-37 -57,-87 -58,-140 -1,-132 125,-225 252,-194l26 6 -243 188z"/>
   <path id="1" class="fil4" d="M8318 5042l-246 -187 7 -10 246 187 -2 11 -5 -1zm7 -10l10 8 -12 3 2 -11zm-32 5l26 -7 3 12 -26 7 -3 -12zm-199 -44l9 -9 0 0 5 5 5 4 5 4 5 4 5 4 5 4 5 4 6 3 6 3 6 3 6 3 6 3 6 2 6 2 6 2 6 2 6 2 6 1 6 1 6 1 6 1 6 1 6 0 6 0 6 0 6 0 6 0 6 -1 6 -1 6 -1 6 -1 6 -2 3 12 -7 2 -7 1 -7 1 -7 1 -7 1 -7 0 -7 0 -7 0 -7 0 -7 0 -7 -1 -7 -1 -7 -1 -7 -1 -7 -1 -7 -2 -6 -2 -6 -2 -6 -2 -6 -2 -6 -3 -6 -3 -6 -3 -6 -3 -6 -4 -6 -4 -6 -4 -6 -4 -5 -4 -5 -5 -5 -5 -5 -5 0 0zm-59 -144l12 0 0 0 0 5 0 5 0 5 0 5 1 5 1 5 1 5 1 5 1 5 1 5 1 5 1 4 1 4 2 4 2 4 2 4 2 4 2 4 2 4 2 4 2 4 2 4 2 4 3 4 3 4 3 4 3 4 3 4 3 4 3 4 3 4 3 3 -9 9 -4 -4 -3 -4 -3 -4 -3 -4 -3 -4 -3 -4 -3 -4 -3 -4 -3 -4 -3 -4 -2 -4 -2 -4 -2 -4 -2 -4 -2 -5 -2 -5 -2 -5 -2 -5 -2 -5 -1 -5 -1 -5 -1 -5 -1 -5 -1 -5 -1 -5 -1 -5 -1 -5 -1 -5 0 -5 0 -5 0 -5 0 -5 0 0zm259 -200l-3 12 0 0 -12 -2 -11 -2 -11 -1 -11 0 -11 0 -11 1 -11 1 -11 2 -11 3 -10 3 -10 4 -10 4 -10 5 -9 5 -9 6 -9 6 -8 7 -8 7 -8 8 -7 8 -7 8 -6 9 -6 9 -5 10 -5 10 -4 10 -4 11 -3 11 -2 11 -2 11 -1 12 0 12 -12 0 0 -13 1 -12 2 -12 2 -12 3 -12 4 -11 4 -11 5 -11 6 -10 6 -10 7 -9 7 -9 8 -9 8 -8 9 -8 9 -7 9 -7 10 -6 10 -6 10 -5 11 -5 11 -4 11 -3 11 -3 12 -2 12 -2 12 -1 12 0 12 0 12 1 12 2 12 3 0 0zm23 18l-26 -6 3 -12 26 6 2 11 -5 1zm3 -12l12 3 -10 8 -2 -11zm-249 189l243 -188 7 10 -243 188 -7 0 0 -10zm0 10l-6 -5 6 -5 0 10z"/>
  </g>
  <g>
   <path class="fil9" d="M8400 5028l-243 -188 26 -6c127,-31 252,63 252,194 0,53 -21,102 -58,140 -52,52 -125,71 -196,54l-26 -7 246 -187z"/>
   <path id="1" class="fil11" d="M8161 4835l243 188 -7 10 -243 -188 2 -11 5 1zm-7 10l-10 -8 12 -3 -2 11zm31 -5l-26 6 -3 -12 26 -6 0 0 3 12zm256 189l-12 0 0 0 0 -12 -1 -12 -2 -11 -2 -11 -3 -11 -4 -11 -4 -10 -5 -10 -5 -10 -6 -9 -6 -9 -7 -8 -7 -8 -8 -8 -8 -7 -8 -7 -9 -6 -9 -6 -9 -5 -10 -5 -10 -4 -10 -4 -10 -3 -11 -3 -11 -2 -11 -1 -11 -1 -11 0 -11 0 -11 1 -11 2 -12 2 -3 -12 12 -3 12 -2 12 -1 12 0 12 0 12 1 12 2 12 2 11 3 11 3 11 4 11 5 10 5 10 6 10 6 9 7 9 7 9 8 8 8 8 9 7 9 7 9 6 10 6 10 5 11 4 11 4 11 3 12 2 12 2 12 1 12 0 13 0 0zm-59 144l-9 -9 0 0 3 -3 3 -4 3 -4 3 -4 3 -4 3 -4 3 -4 3 -4 3 -4 2 -4 2 -4 2 -4 2 -4 2 -4 2 -4 2 -4 2 -4 2 -4 2 -4 1 -4 1 -4 1 -5 1 -5 1 -5 1 -5 1 -5 1 -5 1 -5 0 -5 0 -5 0 -5 0 -5 12 0 0 5 0 5 0 5 0 5 -1 5 -1 5 -1 5 -1 5 -1 5 -1 5 -1 5 -1 5 -1 5 -2 5 -2 5 -2 5 -2 5 -2 5 -2 4 -2 4 -2 4 -2 4 -3 4 -3 4 -3 4 -3 4 -3 4 -3 4 -3 4 -3 4 -3 4 -4 4 0 0zm-202 55l3 -12 0 0 6 2 6 1 6 1 6 1 6 1 6 0 6 0 6 0 6 0 6 0 6 -1 6 -1 6 -1 6 -1 6 -1 6 -2 6 -2 6 -2 6 -2 6 -2 6 -3 6 -3 6 -3 6 -3 6 -3 5 -4 5 -4 5 -4 5 -4 5 -4 5 -4 5 -5 9 9 -5 5 -5 5 -5 5 -5 4 -6 4 -6 4 -6 4 -6 4 -6 3 -6 3 -6 3 -6 3 -6 2 -6 2 -6 2 -6 2 -7 2 -7 1 -7 1 -7 1 -7 1 -7 1 -7 0 -7 0 -7 0 -7 0 -7 0 -7 -1 -7 -1 -7 -1 -7 -1 -7 -2 0 0zm-23 -18l26 7 -3 12 -26 -7 -2 -11 5 -1zm-3 12l-12 -3 10 -8 2 11zm251 -188l-246 187 -7 -10 246 -187 7 0 0 10zm0 -10l6 5 -6 5 0 -10z"/>
  </g>
  <rect class="fil12" x="1798" y="6096" width="7575" height="12086" rx="434" ry="434"/>
  <path class="fil13" d="M2091 6678l0 -41 235 0 0 41 -96 0 0 275 -43 0 0 -275 -96 0zm242 226c-10,-17 -15,-37 -15,-59 0,-22 5,-41 15,-58 10,-17 24,-30 41,-39 17,-9 36,-13 56,-13 20,0 39,5 56,13 17,9 30,22 41,39 10,17 15,37 15,58 0,22 -5,41 -15,59 -10,17 -24,31 -41,40 -17,9 -35,14 -56,14 -20,0 -39,-5 -56,-14 -17,-9 -31,-22 -41,-40zm26 -59c0,21 7,38 20,52 14,13 30,20 50,20 20,0 36,-7 50,-20 14,-13 20,-30 20,-52 0,-21 -7,-38 -20,-51 -14,-13 -30,-19 -50,-19 -20,0 -36,6 -50,19 -14,13 -20,30 -20,51zm213 -71l0 -35 38 0 0 -80 42 0 0 80 45 0 0 35 -45 0 0 179 -42 0 0 -179 -38 0zm155 72c0,-22 5,-42 15,-59 10,-17 23,-30 40,-39 16,-9 34,-13 54,-13 16,0 30,3 44,10 14,6 24,15 31,27l0 -32 42 0 0 214 -42 0 0 -33c-7,12 -17,21 -31,28 -14,7 -28,10 -44,10 -30,0 -56,-10 -77,-31 -21,-21 -32,-48 -32,-81zm43 0c0,21 7,38 20,51 13,13 30,20 49,20 20,0 37,-6 50,-19 14,-13 21,-30 21,-52 0,-15 -4,-27 -11,-38 -7,-11 -16,-19 -26,-24 -11,-5 -22,-8 -34,-8 -20,0 -36,6 -50,19 -13,13 -20,30 -20,51zm252 108l0 -330 42 0 0 330 -42 0zm215 -64l38 0c1,5 3,9 6,14 3,5 7,8 12,11 9,6 21,8 34,7 10,-1 17,-4 23,-9 6,-5 9,-12 9,-20 0,-7 -2,-13 -8,-18 -5,-5 -12,-8 -21,-10l-29 -7c-20,-6 -36,-14 -45,-25 -10,-11 -14,-26 -12,-45 1,-15 9,-28 24,-39 15,-10 31,-16 50,-16 9,0 18,1 26,3 8,2 15,6 22,10 7,5 12,11 17,19 4,8 7,17 8,28l-38 0c-1,-8 -5,-14 -11,-18 -6,-4 -14,-6 -22,-6 -8,0 -15,2 -21,5 -6,4 -10,8 -11,14 -2,7 -2,13 0,17 3,7 11,13 25,17l31 8c37,9 56,30 57,62 0,19 -8,34 -24,46 -16,12 -36,17 -59,17 -13,0 -26,-3 -37,-8 -12,-5 -22,-13 -30,-24 -8,-11 -12,-23 -13,-37zm202 -43c0,-22 5,-42 15,-59 10,-17 23,-30 40,-39 16,-9 34,-13 54,-13 16,0 30,3 44,10 14,6 24,15 31,27l0 -32 42 0 0 214 -42 0 0 -33c-7,12 -17,21 -31,28 -14,7 -28,10 -44,10 -30,0 -56,-10 -77,-31 -21,-21 -32,-48 -32,-81zm43 0c0,21 7,38 20,51 13,13 30,20 49,20 20,0 37,-6 50,-19 14,-13 21,-30 21,-52 0,-15 -4,-27 -11,-38 -7,-11 -16,-19 -26,-24 -11,-5 -22,-8 -34,-8 -20,0 -36,6 -50,19 -13,13 -20,30 -20,51zm252 108l0 -330 42 0 0 330 -42 0zm97 -108c0,-33 10,-60 31,-80 21,-20 47,-31 78,-31 31,0 56,10 76,30 20,20 30,47 30,80 0,8 0,13 0,16l-174 0c3,18 10,32 23,42 13,11 28,16 46,16 13,0 25,-3 36,-9 11,-6 19,-14 25,-24 4,2 11,4 19,7 9,3 14,5 17,6 -9,18 -22,32 -40,42 -18,10 -37,15 -58,15 -31,0 -57,-10 -78,-31 -21,-21 -31,-48 -31,-81zm42 -16l133 0c-3,-18 -10,-32 -21,-42 -12,-10 -26,-15 -44,-15 -18,0 -33,5 -45,15 -12,10 -20,24 -22,42zm212 60l38 0c1,5 3,9 6,14 3,5 7,8 12,11 9,6 21,8 34,7 10,-1 17,-4 23,-9 6,-5 9,-12 9,-20 0,-7 -2,-13 -8,-18 -5,-5 -12,-8 -21,-10l-29 -7c-20,-6 -36,-14 -45,-25 -10,-11 -14,-26 -12,-45 1,-15 9,-28 24,-39 15,-10 31,-16 50,-16 9,0 18,1 26,3 8,2 15,6 22,10 7,5 12,11 17,19 4,8 7,17 8,28l-38 0c-1,-8 -5,-14 -11,-18 -6,-4 -14,-6 -22,-6 -8,0 -15,2 -21,5 -6,4 -10,8 -11,14 -2,7 -2,13 0,17 3,7 11,13 25,17l31 8c37,9 56,30 57,62 0,19 -8,34 -24,46 -16,12 -36,17 -59,17 -13,0 -26,-3 -37,-8 -12,-5 -22,-13 -30,-24 -8,-11 -12,-23 -13,-37z"/>
  <path class="fil3" d="M2154 7641l0 -316 121 0c16,0 30,3 42,8 12,6 22,13 29,23 7,9 13,20 16,31 4,11 5,24 5,37 0,12 -2,23 -5,34 -3,11 -8,21 -14,30 -6,9 -15,17 -25,22 -11,6 -23,9 -37,11l84 120 -52 0 -82 -118 -40 0 0 118 -43 0zm43 -158l76 0c9,0 17,-2 24,-5 7,-3 13,-8 17,-13 4,-6 7,-12 9,-19 2,-7 3,-14 3,-22 0,-10 -2,-20 -5,-28 -3,-9 -9,-16 -17,-22 -8,-6 -18,-9 -29,-9l-77 0 0 118zm224 -50c1,-27 12,-50 31,-69 19,-18 43,-27 70,-26 27,1 49,11 66,29 17,18 27,43 30,74 3,39 1,77 -5,113 -5,28 -16,50 -35,67 -19,17 -41,25 -68,24 -9,0 -17,-1 -25,-3 -7,-2 -15,-5 -23,-9 -8,-4 -15,-10 -21,-18 -6,-8 -12,-17 -17,-28l38 -16c6,12 13,20 22,26 9,6 19,9 29,9 21,0 37,-10 50,-30 12,-20 17,-45 14,-75 -5,12 -12,20 -23,26 -11,5 -24,8 -38,8 -18,0 -34,-5 -49,-15 -15,-10 -26,-22 -34,-38 -8,-16 -11,-32 -11,-50zm42 2c-1,16 4,30 14,42 10,12 23,18 39,18 16,0 30,-5 42,-15 12,-11 18,-24 19,-40 0,-17 -5,-31 -16,-42 -11,-11 -24,-17 -40,-18 -16,-1 -29,4 -40,15 -11,11 -17,24 -18,40zm218 107c-3,-38 -1,-76 5,-113 5,-28 16,-50 35,-67 19,-17 41,-25 68,-24 9,0 17,1 25,3 7,2 15,5 23,9 8,4 15,10 21,18 6,8 12,17 17,28l-38 16c-6,-12 -13,-20 -22,-26 -9,-6 -19,-9 -29,-9 -21,0 -37,10 -50,30 -12,20 -17,45 -14,75 9,-22 29,-33 61,-33 18,0 34,5 49,15 15,10 26,22 34,38 8,16 11,32 11,50 -1,27 -12,50 -31,69 -19,18 -43,27 -70,26 -27,-1 -49,-11 -66,-29 -17,-18 -27,-43 -30,-73zm42 1c0,16 5,30 16,42 11,11 24,17 39,18 16,1 29,-4 40,-15 11,-11 17,-24 18,-40 1,-16 -4,-30 -14,-41 -10,-11 -23,-17 -39,-18 -16,0 -30,5 -42,15 -12,11 -18,24 -19,40zm189 145c21,-30 32,-63 31,-101l43 0c-2,26 -7,49 -15,68 -8,19 -18,33 -29,42l-29 -10zm122 -109l166 -238 31 0 0 199 43 0 0 38 -43 0 0 61 -42 0 0 -61 -156 0zm70 -38l86 0 0 -125 -86 125zm215 6c0,-17 4,-32 12,-46 8,-14 19,-26 34,-34 -15,-14 -22,-32 -22,-53 0,-21 8,-39 23,-54 15,-15 34,-22 57,-22 23,0 42,7 57,22 15,15 23,33 23,54 0,10 -2,20 -6,29 -4,9 -10,17 -17,24 15,9 26,20 34,34 8,14 12,29 12,46 0,27 -10,50 -30,69 -20,19 -44,28 -73,28 -29,0 -54,-9 -74,-28 -20,-19 -30,-42 -30,-69zm42 0c0,16 6,29 18,40 12,11 26,16 44,16 17,0 32,-6 44,-17 12,-11 18,-24 18,-40 0,-16 -6,-29 -18,-41 -12,-11 -26,-17 -44,-17l-3 0c-17,0 -30,6 -42,18 -11,11 -17,25 -17,40zm35 -158c-7,7 -11,15 -11,25 0,10 3,18 10,25 7,7 15,11 26,11l4 0c11,0 20,-4 27,-11 7,-7 11,-16 11,-25 0,-10 -4,-18 -11,-25 -8,-7 -17,-10 -28,-10 -11,0 -20,3 -27,10zm179 27c4,-24 15,-43 33,-57 18,-14 39,-21 63,-21 27,0 49,8 67,25 18,16 27,38 27,63 0,27 -11,53 -33,78 -15,17 -29,34 -44,52 -15,17 -27,32 -37,44l114 0 0 41 -184 0 0 -18 121 -147c15,-17 22,-34 22,-49 0,-14 -5,-26 -15,-34 -10,-9 -23,-13 -38,-13 -14,0 -26,4 -36,13 -10,8 -16,20 -18,35l-42 -10zm257 221c-6,-5 -9,-12 -9,-20 0,-8 3,-15 9,-21 6,-6 13,-8 21,-8 8,0 15,3 21,8 6,6 9,12 9,21 0,8 -3,15 -9,20 -6,5 -13,8 -22,8 -8,0 -15,-3 -21,-8zm112 -146c0,-15 1,-28 2,-41 1,-12 4,-25 7,-36 3,-12 8,-22 13,-31 5,-9 12,-17 20,-24 8,-7 17,-12 29,-16 11,-4 24,-5 38,-5 17,0 32,3 45,8 13,5 23,12 31,21 8,9 15,20 19,34 5,13 8,27 10,42 2,14 3,31 3,49 0,18 -1,34 -3,48 -2,14 -5,28 -10,42 -5,13 -11,25 -19,34 -8,9 -18,16 -31,22 -13,5 -28,8 -45,8 -17,0 -32,-3 -44,-8 -13,-5 -23,-12 -31,-22 -8,-9 -15,-20 -20,-33 -5,-13 -9,-27 -11,-42 -2,-15 -3,-31 -3,-48zm42 0c0,13 1,25 2,36 1,11 3,21 6,31 3,10 7,18 12,25 5,7 11,12 19,16 8,4 17,6 28,6 11,0 20,-2 28,-6 8,-4 14,-9 19,-16 5,-7 9,-15 12,-25 3,-10 5,-20 6,-31 1,-11 2,-23 2,-36 0,-13 -1,-25 -2,-36 -1,-11 -3,-21 -6,-31 -3,-10 -7,-18 -12,-25 -5,-7 -11,-12 -19,-16 -8,-4 -17,-6 -28,-6 -11,0 -20,2 -28,6 -8,4 -14,9 -19,16 -5,7 -9,15 -12,25 -3,10 -5,20 -6,31 -1,11 -2,23 -2,36zm235 0c0,-15 1,-28 2,-41 1,-12 4,-25 7,-36 3,-12 8,-22 13,-31 5,-9 12,-17 20,-24 8,-7 17,-12 29,-16 11,-4 24,-5 38,-5 17,0 32,3 45,8 13,5 23,12 31,21 8,9 15,20 19,34 5,13 8,27 10,42 2,14 3,31 3,49 0,18 -1,34 -3,48 -2,14 -5,28 -10,42 -5,13 -11,25 -19,34 -8,9 -18,16 -31,22 -13,5 -28,8 -45,8 -17,0 -32,-3 -44,-8 -13,-5 -23,-12 -31,-22 -8,-9 -15,-20 -20,-33 -5,-13 -9,-27 -11,-42 -2,-15 -3,-31 -3,-48zm42 0c0,13 1,25 2,36 1,11 3,21 6,31 3,10 7,18 12,25 5,7 11,12 19,16 8,4 17,6 28,6 11,0 20,-2 28,-6 8,-4 14,-9 19,-16 5,-7 9,-15 12,-25 3,-10 5,-20 6,-31 1,-11 2,-23 2,-36 0,-13 -1,-25 -2,-36 -1,-11 -3,-21 -6,-31 -3,-10 -7,-18 -12,-25 -5,-7 -11,-12 -19,-16 -8,-4 -17,-6 -28,-6 -11,0 -20,2 -28,6 -8,4 -14,9 -19,16 -5,7 -9,15 -12,25 -3,10 -5,20 -6,31 -1,11 -2,23 -2,36z"/>
  <path id="1" class="fil14 str0" d="M2154 7641l0 -316 121 0c16,0 30,3 42,8 12,6 22,13 29,23 7,9 13,20 16,31 4,11 5,24 5,37 0,12 -2,23 -5,34 -3,11 -8,21 -14,30 -6,9 -15,17 -25,22 -11,6 -23,9 -37,11l84 120 -52 0 -82 -118 -40 0 0 118 -43 0zm43 -158l76 0c9,0 17,-2 24,-5 7,-3 13,-8 17,-13 4,-6 7,-12 9,-19 2,-7 3,-14 3,-22 0,-10 -2,-20 -5,-28 -3,-9 -9,-16 -17,-22 -8,-6 -18,-9 -29,-9l-77 0 0 118zm224 -50c1,-27 12,-50 31,-69 19,-18 43,-27 70,-26 27,1 49,11 66,29 17,18 27,43 30,74 3,39 1,77 -5,113 -5,28 -16,50 -35,67 -19,17 -41,25 -68,24 -9,0 -17,-1 -25,-3 -7,-2 -15,-5 -23,-9 -8,-4 -15,-10 -21,-18 -6,-8 -12,-17 -17,-28l38 -16c6,12 13,20 22,26 9,6 19,9 29,9 21,0 37,-10 50,-30 12,-20 17,-45 14,-75 -5,12 -12,20 -23,26 -11,5 -24,8 -38,8 -18,0 -34,-5 -49,-15 -15,-10 -26,-22 -34,-38 -8,-16 -11,-32 -11,-50zm42 2c-1,16 4,30 14,42 10,12 23,18 39,18 16,0 30,-5 42,-15 12,-11 18,-24 19,-40 0,-17 -5,-31 -16,-42 -11,-11 -24,-17 -40,-18 -16,-1 -29,4 -40,15 -11,11 -17,24 -18,40zm218 107c-3,-38 -1,-76 5,-113 5,-28 16,-50 35,-67 19,-17 41,-25 68,-24 9,0 17,1 25,3 7,2 15,5 23,9 8,4 15,10 21,18 6,8 12,17 17,28l-38 16c-6,-12 -13,-20 -22,-26 -9,-6 -19,-9 -29,-9 -21,0 -37,10 -50,30 -12,20 -17,45 -14,75 9,-22 29,-33 61,-33 18,0 34,5 49,15 15,10 26,22 34,38 8,16 11,32 11,50 -1,27 -12,50 -31,69 -19,18 -43,27 -70,26 -27,-1 -49,-11 -66,-29 -17,-18 -27,-43 -30,-73zm42 1c0,16 5,30 16,42 11,11 24,17 39,18 16,1 29,-4 40,-15 11,-11 17,-24 18,-40 1,-16 -4,-30 -14,-41 -10,-11 -23,-17 -39,-18 -16,0 -30,5 -42,15 -12,11 -18,24 -19,40zm189 145c21,-30 32,-63 31,-101l43 0c-2,26 -7,49 -15,68 -8,19 -18,33 -29,42l-29 -10zm122 -109l166 -238 31 0 0 199 43 0 0 38 -43 0 0 61 -42 0 0 -61 -156 0zm70 -38l86 0 0 -125 -86 125zm215 6c0,-17 4,-32 12,-46 8,-14 19,-26 34,-34 -15,-14 -22,-32 -22,-53 0,-21 8,-39 23,-54 15,-15 34,-22 57,-22 23,0 42,7 57,22 15,15 23,33 23,54 0,10 -2,20 -6,29 -4,9 -10,17 -17,24 15,9 26,20 34,34 8,14 12,29 12,46 0,27 -10,50 -30,69 -20,19 -44,28 -73,28 -29,0 -54,-9 -74,-28 -20,-19 -30,-42 -30,-69zm42 0c0,16 6,29 18,40 12,11 26,16 44,16 17,0 32,-6 44,-17 12,-11 18,-24 18,-40 0,-16 -6,-29 -18,-41 -12,-11 -26,-17 -44,-17l-3 0c-17,0 -30,6 -42,18 -11,11 -17,25 -17,40zm35 -158c-7,7 -11,15 -11,25 0,10 3,18 10,25 7,7 15,11 26,11l4 0c11,0 20,-4 27,-11 7,-7 11,-16 11,-25 0,-10 -4,-18 -11,-25 -8,-7 -17,-10 -28,-10 -11,0 -20,3 -27,10zm179 27c4,-24 15,-43 33,-57 18,-14 39,-21 63,-21 27,0 49,8 67,25 18,16 27,38 27,63 0,27 -11,53 -33,78 -15,17 -29,34 -44,52 -15,17 -27,32 -37,44l114 0 0 41 -184 0 0 -18 121 -147c15,-17 22,-34 22,-49 0,-14 -5,-26 -15,-34 -10,-9 -23,-13 -38,-13 -14,0 -26,4 -36,13 -10,8 -16,20 -18,35l-42 -10zm257 221c-6,-5 -9,-12 -9,-20 0,-8 3,-15 9,-21 6,-6 13,-8 21,-8 8,0 15,3 21,8 6,6 9,12 9,21 0,8 -3,15 -9,20 -6,5 -13,8 -22,8 -8,0 -15,-3 -21,-8zm112 -146c0,-15 1,-28 2,-41 1,-12 4,-25 7,-36 3,-12 8,-22 13,-31 5,-9 12,-17 20,-24 8,-7 17,-12 29,-16 11,-4 24,-5 38,-5 17,0 32,3 45,8 13,5 23,12 31,21 8,9 15,20 19,34 5,13 8,27 10,42 2,14 3,31 3,49 0,18 -1,34 -3,48 -2,14 -5,28 -10,42 -5,13 -11,25 -19,34 -8,9 -18,16 -31,22 -13,5 -28,8 -45,8 -17,0 -32,-3 -44,-8 -13,-5 -23,-12 -31,-22 -8,-9 -15,-20 -20,-33 -5,-13 -9,-27 -11,-42 -2,-15 -3,-31 -3,-48zm42 0c0,13 1,25 2,36 1,11 3,21 6,31 3,10 7,18 12,25 5,7 11,12 19,16 8,4 17,6 28,6 11,0 20,-2 28,-6 8,-4 14,-9 19,-16 5,-7 9,-15 12,-25 3,-10 5,-20 6,-31 1,-11 2,-23 2,-36 0,-13 -1,-25 -2,-36 -1,-11 -3,-21 -6,-31 -3,-10 -7,-18 -12,-25 -5,-7 -11,-12 -19,-16 -8,-4 -17,-6 -28,-6 -11,0 -20,2 -28,6 -8,4 -14,9 -19,16 -5,7 -9,15 -12,25 -3,10 -5,20 -6,31 -1,11 -2,23 -2,36zm235 0c0,-15 1,-28 2,-41 1,-12 4,-25 7,-36 3,-12 8,-22 13,-31 5,-9 12,-17 20,-24 8,-7 17,-12 29,-16 11,-4 24,-5 38,-5 17,0 32,3 45,8 13,5 23,12 31,21 8,9 15,20 19,34 5,13 8,27 10,42 2,14 3,31 3,49 0,18 -1,34 -3,48 -2,14 -5,28 -10,42 -5,13 -11,25 -19,34 -8,9 -18,16 -31,22 -13,5 -28,8 -45,8 -17,0 -32,-3 -44,-8 -13,-5 -23,-12 -31,-22 -8,-9 -15,-20 -20,-33 -5,-13 -9,-27 -11,-42 -2,-15 -3,-31 -3,-48zm42 0c0,13 1,25 2,36 1,11 3,21 6,31 3,10 7,18 12,25 5,7 11,12 19,16 8,4 17,6 28,6 11,0 20,-2 28,-6 8,-4 14,-9 19,-16 5,-7 9,-15 12,-25 3,-10 5,-20 6,-31 1,-11 2,-23 2,-36 0,-13 -1,-25 -2,-36 -1,-11 -3,-21 -6,-31 -3,-10 -7,-18 -12,-25 -5,-7 -11,-12 -19,-16 -8,-4 -17,-6 -28,-6 -11,0 -20,2 -28,6 -8,4 -14,9 -19,16 -5,7 -9,15 -12,25 -3,10 -5,20 -6,31 -1,11 -2,23 -2,36z"/>
  <path class="fil15" d="M2190 11319l0 -39 89 -33 0 302 -42 0 0 -247 -48 17zm157 6c4,-24 15,-43 33,-57 18,-14 39,-21 63,-21 27,0 49,8 67,25 18,16 27,38 27,63 0,27 -11,53 -33,78 -15,17 -29,34 -44,52 -15,17 -27,32 -37,44l114 0 0 41 -184 0 0 -18 121 -147c15,-17 22,-34 22,-49 0,-14 -5,-26 -15,-34 -10,-9 -23,-13 -38,-13 -14,0 -26,4 -36,13 -10,8 -16,20 -18,35l-42 -10zm258 221c-6,-5 -9,-12 -9,-20 0,-8 3,-15 9,-21 6,-6 13,-8 21,-8 8,0 15,3 21,8 6,6 9,12 9,21 0,8 -3,15 -9,20 -6,5 -13,8 -21,8 -8,0 -15,-3 -21,-8zm0 -166c-6,-6 -9,-12 -9,-21 0,-8 3,-15 9,-20 6,-5 13,-8 21,-8 8,0 15,3 21,8 6,5 9,12 9,20 0,8 -3,15 -9,21 -6,5 -13,8 -21,8 -8,0 -15,-3 -21,-8zm113 20c0,-15 1,-28 2,-41 1,-12 4,-25 7,-36 3,-12 8,-22 13,-31 5,-9 12,-17 20,-24 8,-7 17,-12 29,-16 11,-4 24,-5 38,-5 17,0 32,3 45,8 13,5 23,12 31,21 8,9 15,20 19,34 5,13 8,27 10,42 2,14 3,31 3,49 0,18 -1,34 -3,48 -2,14 -5,28 -10,42 -5,13 -11,25 -19,34 -8,9 -18,16 -31,22 -13,5 -28,8 -45,8 -17,0 -32,-3 -44,-8 -13,-5 -23,-12 -31,-22 -8,-9 -15,-20 -20,-33 -5,-13 -9,-27 -11,-42 -2,-15 -3,-31 -3,-48zm42 0c0,13 1,25 2,36 1,11 3,21 6,31 3,10 7,18 12,25 5,7 11,12 19,16 8,4 17,6 28,6 11,0 20,-2 28,-6 8,-4 14,-9 19,-16 5,-7 9,-15 12,-25 3,-10 5,-20 6,-31 1,-11 2,-23 2,-36 0,-13 -1,-25 -2,-36 -1,-11 -3,-21 -6,-31 -3,-10 -7,-18 -12,-25 -5,-7 -11,-12 -19,-16 -8,-4 -17,-6 -28,-6 -11,0 -20,2 -28,6 -8,4 -14,9 -19,16 -5,7 -9,15 -12,25 -3,10 -5,20 -6,31 -1,11 -2,23 -2,36zm235 0c0,-15 1,-28 2,-41 1,-12 4,-25 7,-36 3,-12 8,-22 13,-31 5,-9 12,-17 20,-24 8,-7 17,-12 29,-16 11,-4 24,-5 38,-5 17,0 32,3 45,8 13,5 23,12 31,21 8,9 15,20 19,34 5,13 8,27 10,42 2,14 3,31 3,49 0,18 -1,34 -3,48 -2,14 -5,28 -10,42 -5,13 -11,25 -19,34 -8,9 -18,16 -31,22 -13,5 -28,8 -45,8 -17,0 -32,-3 -44,-8 -13,-5 -23,-12 -31,-22 -8,-9 -15,-20 -20,-33 -5,-13 -9,-27 -11,-42 -2,-15 -3,-31 -3,-48zm42 0c0,13 1,25 2,36 1,11 3,21 6,31 3,10 7,18 12,25 5,7 11,12 19,16 8,4 17,6 28,6 11,0 20,-2 28,-6 8,-4 14,-9 19,-16 5,-7 9,-15 12,-25 3,-10 5,-20 6,-31 1,-11 2,-23 2,-36 0,-13 -1,-25 -2,-36 -1,-11 -3,-21 -6,-31 -3,-10 -7,-18 -12,-25 -5,-7 -11,-12 -19,-16 -8,-4 -17,-6 -28,-6 -11,0 -20,2 -28,6 -8,4 -14,9 -19,16 -5,7 -9,15 -12,25 -3,10 -5,20 -6,31 -1,11 -2,23 -2,36zm210 149l120 -316 46 0 119 316 -45 0 -31 -80 -134 0 -31 80 -45 0zm91 -119l104 0 -52 -140 -52 140zm225 119l38 -316 39 0 111 232 111 -232 39 0 38 316 -42 0 -29 -237 -99 202 -38 0 -99 -202 -29 237 -42 0z"/>
  <path class="fil15" d="M4786 11319l0 -39 89 -33 0 302 -42 0 0 -247 -48 17zm155 166l35 -19c6,15 14,26 26,35 11,8 24,13 38,13 24,0 42,-6 54,-17 12,-11 18,-26 18,-44 0,-18 -6,-33 -18,-42 -12,-10 -27,-15 -44,-15 -13,0 -25,2 -35,5 -10,4 -24,10 -39,20l-26 -21 26 -149 160 0 0 40 -127 0 -17 85c7,-5 16,-9 27,-12 11,-3 21,-5 30,-5 19,0 36,4 52,11 15,7 28,18 37,33 10,15 14,32 14,52 0,31 -11,55 -32,73 -21,18 -48,27 -82,27 -21,0 -40,-6 -59,-19 -18,-12 -32,-29 -41,-50zm277 60c-6,-5 -9,-12 -9,-20 0,-8 3,-15 9,-21 6,-6 13,-8 21,-8 8,0 15,3 21,8 6,6 9,12 9,21 0,8 -3,15 -9,20 -6,5 -13,8 -21,8 -8,0 -15,-3 -21,-8zm0 -166c-6,-6 -9,-12 -9,-21 0,-8 3,-15 9,-20 6,-5 13,-8 21,-8 8,0 15,3 21,8 6,5 9,12 9,20 0,8 -3,15 -9,21 -6,5 -13,8 -21,8 -8,0 -15,-3 -21,-8zm101 111l36 -20c5,11 12,20 23,28 10,8 21,12 33,13 17,1 31,-3 44,-13 13,-10 20,-22 20,-36 0,-14 -5,-27 -16,-38 -11,-11 -25,-16 -40,-16l-34 0 0 -40 34 0c10,0 19,-3 27,-10 8,-7 12,-15 14,-25 2,-13 0,-23 -5,-31 -3,-5 -8,-9 -14,-12 -6,-3 -13,-5 -20,-5 -22,-2 -39,7 -52,27l-31 -24c8,-14 20,-26 36,-34 15,-8 32,-11 51,-10 24,1 44,10 58,26 15,16 22,35 21,57 0,5 -1,11 -3,18 -5,18 -15,32 -30,41 15,6 26,16 35,32 9,16 13,32 12,49 -2,17 -7,32 -18,45 -10,13 -24,24 -40,31 -16,7 -33,10 -52,8 -19,-1 -37,-8 -53,-19 -16,-11 -28,-26 -36,-43zm256 -90c0,-15 1,-28 2,-41 1,-12 4,-25 7,-36 3,-12 8,-22 13,-31 5,-9 12,-17 20,-24 8,-7 17,-12 29,-16 11,-4 24,-5 38,-5 17,0 32,3 45,8 13,5 23,12 31,21 8,9 15,20 19,34 5,13 8,27 10,42 2,14 3,31 3,49 0,18 -1,34 -3,48 -2,14 -5,28 -10,42 -5,13 -11,25 -19,34 -8,9 -18,16 -31,22 -13,5 -28,8 -45,8 -17,0 -32,-3 -44,-8 -13,-5 -23,-12 -31,-22 -8,-9 -15,-20 -20,-33 -5,-13 -9,-27 -11,-42 -2,-15 -3,-31 -3,-48zm42 0c0,13 1,25 2,36 1,11 3,21 6,31 3,10 7,18 12,25 5,7 11,12 19,16 8,4 17,6 28,6 11,0 20,-2 28,-6 8,-4 14,-9 19,-16 5,-7 9,-15 12,-25 3,-10 5,-20 6,-31 1,-11 2,-23 2,-36 0,-13 -1,-25 -2,-36 -1,-11 -3,-21 -6,-31 -3,-10 -7,-18 -12,-25 -5,-7 -11,-12 -19,-16 -8,-4 -17,-6 -28,-6 -11,0 -20,2 -28,6 -8,4 -14,9 -19,16 -5,7 -9,15 -12,25 -3,10 -5,20 -6,31 -1,11 -2,23 -2,36zm248 149l0 -316 126 0c16,0 30,3 43,8 12,6 22,13 29,23 7,9 13,20 16,31 4,11 6,24 6,37 0,13 -2,25 -6,36 -4,11 -9,22 -16,31 -7,9 -17,17 -29,22 -12,6 -27,8 -43,8l-83 0 0 118 -43 0zm43 -158l80 0c12,0 23,-3 31,-9 8,-6 14,-13 18,-22 4,-9 5,-18 5,-28 0,-10 -2,-20 -5,-28 -3,-9 -9,-16 -17,-22 -8,-6 -18,-9 -30,-9l-83 0 0 118zm217 158l38 -316 39 0 111 232 111 -232 39 0 38 316 -42 0 -29 -237 -99 202 -38 0 -99 -202 -29 237 -42 0z"/>
  <path class="fil15" d="M7195 11325c4,-24 15,-43 33,-57 18,-14 39,-21 63,-21 27,0 49,8 67,25 18,16 27,38 27,63 0,27 -11,53 -33,78 -15,17 -29,34 -44,52 -15,17 -27,32 -37,44l114 0 0 41 -184 0 0 -18 121 -147c15,-17 22,-34 22,-49 0,-14 -5,-26 -15,-34 -10,-9 -23,-13 -38,-13 -14,0 -26,4 -36,13 -10,8 -16,20 -18,35l-42 -10zm238 -6l0 -39 89 -33 0 302 -42 0 0 -247 -48 17zm173 227c-6,-5 -9,-12 -9,-20 0,-8 3,-15 9,-21 6,-6 13,-8 21,-8 8,0 15,3 21,8 6,6 9,12 9,21 0,8 -3,15 -9,20 -6,5 -13,8 -21,8 -8,0 -15,-3 -21,-8zm0 -166c-6,-6 -9,-12 -9,-21 0,-8 3,-15 9,-20 6,-5 13,-8 21,-8 8,0 15,3 21,8 6,5 9,12 9,20 0,8 -3,15 -9,21 -6,5 -13,8 -21,8 -8,0 -15,-3 -21,-8zm101 111l36 -20c5,11 12,20 23,28 10,8 21,12 33,13 17,1 31,-3 44,-13 13,-10 20,-22 20,-36 0,-14 -5,-27 -16,-38 -11,-11 -25,-16 -40,-16l-34 0 0 -40 34 0c10,0 19,-3 27,-10 8,-7 12,-15 14,-25 2,-13 0,-23 -5,-31 -3,-5 -8,-9 -14,-12 -6,-3 -13,-5 -20,-5 -22,-2 -39,7 -52,27l-31 -24c8,-14 20,-26 36,-34 15,-8 32,-11 51,-10 24,1 44,10 58,26 15,16 22,35 21,57 0,5 -1,11 -3,18 -5,18 -15,32 -30,41 15,6 26,16 35,32 9,16 13,32 12,49 -2,17 -7,32 -18,45 -10,13 -24,24 -40,31 -16,7 -33,10 -52,8 -19,-1 -37,-8 -53,-19 -16,-11 -28,-26 -36,-43zm256 -90c0,-15 1,-28 2,-41 1,-12 4,-25 7,-36 3,-12 8,-22 13,-31 5,-9 12,-17 20,-24 8,-7 17,-12 29,-16 11,-4 24,-5 38,-5 17,0 32,3 45,8 13,5 23,12 31,21 8,9 15,20 19,34 5,13 8,27 10,42 2,14 3,31 3,49 0,18 -1,34 -3,48 -2,14 -5,28 -10,42 -5,13 -11,25 -19,34 -8,9 -18,16 -31,22 -13,5 -28,8 -45,8 -17,0 -32,-3 -44,-8 -13,-5 -23,-12 -31,-22 -8,-9 -15,-20 -20,-33 -5,-13 -9,-27 -11,-42 -2,-15 -3,-31 -3,-48zm42 0c0,13 1,25 2,36 1,11 3,21 6,31 3,10 7,18 12,25 5,7 11,12 19,16 8,4 17,6 28,6 11,0 20,-2 28,-6 8,-4 14,-9 19,-16 5,-7 9,-15 12,-25 3,-10 5,-20 6,-31 1,-11 2,-23 2,-36 0,-13 -1,-25 -2,-36 -1,-11 -3,-21 -6,-31 -3,-10 -7,-18 -12,-25 -5,-7 -11,-12 -19,-16 -8,-4 -17,-6 -28,-6 -11,0 -20,2 -28,6 -8,4 -14,9 -19,16 -5,7 -9,15 -12,25 -3,10 -5,20 -6,31 -1,11 -2,23 -2,36zm248 149l0 -316 126 0c16,0 30,3 43,8 12,6 22,13 29,23 7,9 13,20 16,31 4,11 6,24 6,37 0,13 -2,25 -6,36 -4,11 -9,22 -16,31 -7,9 -17,17 -29,22 -12,6 -27,8 -43,8l-83 0 0 118 -43 0zm43 -158l80 0c12,0 23,-3 31,-9 8,-6 14,-13 18,-22 4,-9 5,-18 5,-28 0,-10 -2,-20 -5,-28 -3,-9 -9,-16 -17,-22 -8,-6 -18,-9 -30,-9l-83 0 0 118zm217 158l38 -316 39 0 111 232 111 -232 39 0 38 316 -42 0 -29 -237 -99 202 -38 0 -99 -202 -29 237 -42 0z"/>
  <path class="fil3" d="M6602 7641l0 -316 121 0c16,0 30,3 42,8 12,6 22,13 29,23 7,9 13,20 16,31 4,11 5,24 5,37 0,12 -2,23 -5,34 -3,11 -8,21 -14,30 -6,9 -15,17 -25,22 -11,6 -23,9 -37,11l84 120 -52 0 -82 -118 -40 0 0 118 -43 0zm43 -158l76 0c9,0 17,-2 24,-5 7,-3 13,-8 17,-13 4,-6 7,-12 9,-19 2,-7 3,-14 3,-22 0,-10 -2,-20 -5,-28 -3,-9 -9,-16 -17,-22 -8,-6 -18,-9 -29,-9l-77 0 0 118zm230 60c-3,-38 -1,-76 5,-113 5,-28 16,-50 35,-67 19,-17 41,-25 68,-24 9,0 17,1 25,3 7,2 15,5 23,9 8,4 15,10 21,18 6,8 12,17 17,28l-38 16c-6,-12 -13,-20 -22,-26 -9,-6 -19,-9 -29,-9 -21,0 -37,10 -50,30 -12,20 -17,45 -14,75 9,-22 29,-33 61,-33 18,0 34,5 49,15 15,10 26,22 34,38 8,16 11,32 11,50 -1,27 -12,50 -31,69 -19,18 -43,27 -70,26 -27,-1 -49,-11 -66,-29 -17,-18 -27,-43 -30,-73zm42 1c0,16 5,30 16,42 11,11 24,17 39,18 16,1 29,-4 40,-15 11,-11 17,-24 18,-40 1,-16 -4,-30 -14,-41 -10,-11 -23,-17 -39,-18 -16,0 -30,5 -42,15 -12,11 -18,24 -19,40zm211 -52c0,-15 1,-28 2,-41 1,-12 4,-25 7,-36 3,-12 8,-22 13,-31 5,-9 12,-17 20,-24 8,-7 17,-12 29,-16 11,-4 24,-5 38,-5 17,0 32,3 45,8 13,5 23,12 31,21 8,9 15,20 19,34 5,13 8,27 10,42 2,14 3,31 3,49 0,18 -1,34 -3,48 -2,14 -5,28 -10,42 -5,13 -11,25 -19,34 -8,9 -18,16 -31,22 -13,5 -28,8 -45,8 -17,0 -32,-3 -44,-8 -13,-5 -23,-12 -31,-22 -8,-9 -15,-20 -20,-33 -5,-13 -9,-27 -11,-42 -2,-15 -3,-31 -3,-48zm42 0c0,13 1,25 2,36 1,11 3,21 6,31 3,10 7,18 12,25 5,7 11,12 19,16 8,4 17,6 28,6 11,0 20,-2 28,-6 8,-4 14,-9 19,-16 5,-7 9,-15 12,-25 3,-10 5,-20 6,-31 1,-11 2,-23 2,-36 0,-13 -1,-25 -2,-36 -1,-11 -3,-21 -6,-31 -3,-10 -7,-18 -12,-25 -5,-7 -11,-12 -19,-16 -8,-4 -17,-6 -28,-6 -11,0 -20,2 -28,6 -8,4 -14,9 -19,16 -5,7 -9,15 -12,25 -3,10 -5,20 -6,31 -1,11 -2,23 -2,36zm225 -81l0 -39 89 -33 0 302 -42 0 0 -247 -48 17zm141 278c21,-30 32,-63 31,-101l43 0c-2,26 -7,49 -15,68 -8,19 -18,33 -29,42l-29 -10zm133 -48l142 -258 -137 0 0 -41 207 0 -164 299 -48 0zm239 -59l36 -20c5,11 12,20 23,28 10,8 21,12 33,13 17,1 31,-3 44,-13 13,-10 20,-22 20,-36 0,-14 -5,-27 -16,-38 -11,-11 -25,-16 -40,-16l-34 0 0 -40 34 0c10,0 19,-3 27,-10 8,-7 12,-15 14,-25 2,-13 0,-23 -5,-31 -3,-5 -8,-9 -14,-12 -6,-3 -13,-5 -20,-5 -22,-2 -39,7 -52,27l-31 -24c8,-14 20,-26 36,-34 15,-8 32,-11 51,-10 24,1 44,10 58,26 15,16 22,35 21,57 0,5 -1,11 -3,18 -5,18 -15,32 -30,41 15,6 26,16 35,32 9,16 13,32 12,49 -2,17 -7,32 -18,45 -10,13 -24,24 -40,31 -16,7 -33,10 -52,8 -19,-1 -37,-8 -53,-19 -16,-11 -28,-26 -36,-43zm252 -35c0,-17 4,-32 12,-46 8,-14 19,-26 34,-34 -15,-14 -22,-32 -22,-53 0,-21 8,-39 23,-54 15,-15 34,-22 57,-22 23,0 42,7 57,22 15,15 23,33 23,54 0,10 -2,20 -6,29 -4,9 -10,17 -17,24 15,9 26,20 34,34 8,14 12,29 12,46 0,27 -10,50 -30,69 -20,19 -44,28 -73,28 -29,0 -54,-9 -74,-28 -20,-19 -30,-42 -30,-69zm42 0c0,16 6,29 18,40 12,11 26,16 44,16 17,0 32,-6 44,-17 12,-11 18,-24 18,-40 0,-16 -6,-29 -18,-41 -12,-11 -26,-17 -44,-17l-3 0c-17,0 -30,6 -42,18 -11,11 -17,25 -17,40zm35 -158c-7,7 -11,15 -11,25 0,10 3,18 10,25 7,7 15,11 26,11l4 0c11,0 20,-4 27,-11 7,-7 11,-16 11,-25 0,-10 -4,-18 -11,-25 -8,-7 -17,-10 -28,-10 -11,0 -20,3 -27,10zm195 248c-6,-5 -9,-12 -9,-20 0,-8 3,-15 9,-21 6,-6 13,-8 21,-8 8,0 15,3 21,8 6,6 9,12 9,21 0,8 -3,15 -9,20 -6,5 -13,8 -22,8 -8,0 -15,-3 -21,-8zm112 -146c0,-15 1,-28 2,-41 1,-12 4,-25 7,-36 3,-12 8,-22 13,-31 5,-9 12,-17 20,-24 8,-7 17,-12 29,-16 11,-4 24,-5 38,-5 17,0 32,3 45,8 13,5 23,12 31,21 8,9 15,20 19,34 5,13 8,27 10,42 2,14 3,31 3,49 0,18 -1,34 -3,48 -2,14 -5,28 -10,42 -5,13 -11,25 -19,34 -8,9 -18,16 -31,22 -13,5 -28,8 -45,8 -17,0 -32,-3 -44,-8 -13,-5 -23,-12 -31,-22 -8,-9 -15,-20 -20,-33 -5,-13 -9,-27 -11,-42 -2,-15 -3,-31 -3,-48zm42 0c0,13 1,25 2,36 1,11 3,21 6,31 3,10 7,18 12,25 5,7 11,12 19,16 8,4 17,6 28,6 11,0 20,-2 28,-6 8,-4 14,-9 19,-16 5,-7 9,-15 12,-25 3,-10 5,-20 6,-31 1,-11 2,-23 2,-36 0,-13 -1,-25 -2,-36 -1,-11 -3,-21 -6,-31 -3,-10 -7,-18 -12,-25 -5,-7 -11,-12 -19,-16 -8,-4 -17,-6 -28,-6 -11,0 -20,2 -28,6 -8,4 -14,9 -19,16 -5,7 -9,15 -12,25 -3,10 -5,20 -6,31 -1,11 -2,23 -2,36zm235 0c0,-15 1,-28 2,-41 1,-12 4,-25 7,-36 3,-12 8,-22 13,-31 5,-9 12,-17 20,-24 8,-7 17,-12 29,-16 11,-4 24,-5 38,-5 17,0 32,3 45,8 13,5 23,12 31,21 8,9 15,20 19,34 5,13 8,27 10,42 2,14 3,31 3,49 0,18 -1,34 -3,48 -2,14 -5,28 -10,42 -5,13 -11,25 -19,34 -8,9 -18,16 -31,22 -13,5 -28,8 -45,8 -17,0 -32,-3 -44,-8 -13,-5 -23,-12 -31,-22 -8,-9 -15,-20 -20,-33 -5,-13 -9,-27 -11,-42 -2,-15 -3,-31 -3,-48zm42 0c0,13 1,25 2,36 1,11 3,21 6,31 3,10 7,18 12,25 5,7 11,12 19,16 8,4 17,6 28,6 11,0 20,-2 28,-6 8,-4 14,-9 19,-16 5,-7 9,-15 12,-25 3,-10 5,-20 6,-31 1,-11 2,-23 2,-36 0,-13 -1,-25 -2,-36 -1,-11 -3,-21 -6,-31 -3,-10 -7,-18 -12,-25 -5,-7 -11,-12 -19,-16 -8,-4 -17,-6 -28,-6 -11,0 -20,2 -28,6 -8,4 -14,9 -19,16 -5,7 -9,15 -12,25 -3,10 -5,20 -6,31 -1,11 -2,23 -2,36z"/>
  <path id="1" class="fil14 str0" d="M6602 7641l0 -316 121 0c16,0 30,3 42,8 12,6 22,13 29,23 7,9 13,20 16,31 4,11 5,24 5,37 0,12 -2,23 -5,34 -3,11 -8,21 -14,30 -6,9 -15,17 -25,22 -11,6 -23,9 -37,11l84 120 -52 0 -82 -118 -40 0 0 118 -43 0zm43 -158l76 0c9,0 17,-2 24,-5 7,-3 13,-8 17,-13 4,-6 7,-12 9,-19 2,-7 3,-14 3,-22 0,-10 -2,-20 -5,-28 -3,-9 -9,-16 -17,-22 -8,-6 -18,-9 -29,-9l-77 0 0 118zm230 60c-3,-38 -1,-76 5,-113 5,-28 16,-50 35,-67 19,-17 41,-25 68,-24 9,0 17,1 25,3 7,2 15,5 23,9 8,4 15,10 21,18 6,8 12,17 17,28l-38 16c-6,-12 -13,-20 -22,-26 -9,-6 -19,-9 -29,-9 -21,0 -37,10 -50,30 -12,20 -17,45 -14,75 9,-22 29,-33 61,-33 18,0 34,5 49,15 15,10 26,22 34,38 8,16 11,32 11,50 -1,27 -12,50 -31,69 -19,18 -43,27 -70,26 -27,-1 -49,-11 -66,-29 -17,-18 -27,-43 -30,-73zm42 1c0,16 5,30 16,42 11,11 24,17 39,18 16,1 29,-4 40,-15 11,-11 17,-24 18,-40 1,-16 -4,-30 -14,-41 -10,-11 -23,-17 -39,-18 -16,0 -30,5 -42,15 -12,11 -18,24 -19,40zm211 -52c0,-15 1,-28 2,-41 1,-12 4,-25 7,-36 3,-12 8,-22 13,-31 5,-9 12,-17 20,-24 8,-7 17,-12 29,-16 11,-4 24,-5 38,-5 17,0 32,3 45,8 13,5 23,12 31,21 8,9 15,20 19,34 5,13 8,27 10,42 2,14 3,31 3,49 0,18 -1,34 -3,48 -2,14 -5,28 -10,42 -5,13 -11,25 -19,34 -8,9 -18,16 -31,22 -13,5 -28,8 -45,8 -17,0 -32,-3 -44,-8 -13,-5 -23,-12 -31,-22 -8,-9 -15,-20 -20,-33 -5,-13 -9,-27 -11,-42 -2,-15 -3,-31 -3,-48zm42 0c0,13 1,25 2,36 1,11 3,21 6,31 3,10 7,18 12,25 5,7 11,12 19,16 8,4 17,6 28,6 11,0 20,-2 28,-6 8,-4 14,-9 19,-16 5,-7 9,-15 12,-25 3,-10 5,-20 6,-31 1,-11 2,-23 2,-36 0,-13 -1,-25 -2,-36 -1,-11 -3,-21 -6,-31 -3,-10 -7,-18 -12,-25 -5,-7 -11,-12 -19,-16 -8,-4 -17,-6 -28,-6 -11,0 -20,2 -28,6 -8,4 -14,9 -19,16 -5,7 -9,15 -12,25 -3,10 -5,20 -6,31 -1,11 -2,23 -2,36zm225 -81l0 -39 89 -33 0 302 -42 0 0 -247 -48 17zm141 278c21,-30 32,-63 31,-101l43 0c-2,26 -7,49 -15,68 -8,19 -18,33 -29,42l-29 -10zm133 -48l142 -258 -137 0 0 -41 207 0 -164 299 -48 0zm239 -59l36 -20c5,11 12,20 23,28 10,8 21,12 33,13 17,1 31,-3 44,-13 13,-10 20,-22 20,-36 0,-14 -5,-27 -16,-38 -11,-11 -25,-16 -40,-16l-34 0 0 -40 34 0c10,0 19,-3 27,-10 8,-7 12,-15 14,-25 2,-13 0,-23 -5,-31 -3,-5 -8,-9 -14,-12 -6,-3 -13,-5 -20,-5 -22,-2 -39,7 -52,27l-31 -24c8,-14 20,-26 36,-34 15,-8 32,-11 51,-10 24,1 44,10 58,26 15,16 22,35 21,57 0,5 -1,11 -3,18 -5,18 -15,32 -30,41 15,6 26,16 35,32 9,16 13,32 12,49 -2,17 -7,32 -18,45 -10,13 -24,24 -40,31 -16,7 -33,10 -52,8 -19,-1 -37,-8 -53,-19 -16,-11 -28,-26 -36,-43zm252 -35c0,-17 4,-32 12,-46 8,-14 19,-26 34,-34 -15,-14 -22,-32 -22,-53 0,-21 8,-39 23,-54 15,-15 34,-22 57,-22 23,0 42,7 57,22 15,15 23,33 23,54 0,10 -2,20 -6,29 -4,9 -10,17 -17,24 15,9 26,20 34,34 8,14 12,29 12,46 0,27 -10,50 -30,69 -20,19 -44,28 -73,28 -29,0 -54,-9 -74,-28 -20,-19 -30,-42 -30,-69zm42 0c0,16 6,29 18,40 12,11 26,16 44,16 17,0 32,-6 44,-17 12,-11 18,-24 18,-40 0,-16 -6,-29 -18,-41 -12,-11 -26,-17 -44,-17l-3 0c-17,0 -30,6 -42,18 -11,11 -17,25 -17,40zm35 -158c-7,7 -11,15 -11,25 0,10 3,18 10,25 7,7 15,11 26,11l4 0c11,0 20,-4 27,-11 7,-7 11,-16 11,-25 0,-10 -4,-18 -11,-25 -8,-7 -17,-10 -28,-10 -11,0 -20,3 -27,10zm195 248c-6,-5 -9,-12 -9,-20 0,-8 3,-15 9,-21 6,-6 13,-8 21,-8 8,0 15,3 21,8 6,6 9,12 9,21 0,8 -3,15 -9,20 -6,5 -13,8 -22,8 -8,0 -15,-3 -21,-8zm112 -146c0,-15 1,-28 2,-41 1,-12 4,-25 7,-36 3,-12 8,-22 13,-31 5,-9 12,-17 20,-24 8,-7 17,-12 29,-16 11,-4 24,-5 38,-5 17,0 32,3 45,8 13,5 23,12 31,21 8,9 15,20 19,34 5,13 8,27 10,42 2,14 3,31 3,49 0,18 -1,34 -3,48 -2,14 -5,28 -10,42 -5,13 -11,25 -19,34 -8,9 -18,16 -31,22 -13,5 -28,8 -45,8 -17,0 -32,-3 -44,-8 -13,-5 -23,-12 -31,-22 -8,-9 -15,-20 -20,-33 -5,-13 -9,-27 -11,-42 -2,-15 -3,-31 -3,-48zm42 0c0,13 1,25 2,36 1,11 3,21 6,31 3,10 7,18 12,25 5,7 11,12 19,16 8,4 17,6 28,6 11,0 20,-2 28,-6 8,-4 14,-9 19,-16 5,-7 9,-15 12,-25 3,-10 5,-20 6,-31 1,-11 2,-23 2,-36 0,-13 -1,-25 -2,-36 -1,-11 -3,-21 -6,-31 -3,-10 -7,-18 -12,-25 -5,-7 -11,-12 -19,-16 -8,-4 -17,-6 -28,-6 -11,0 -20,2 -28,6 -8,4 -14,9 -19,16 -5,7 -9,15 -12,25 -3,10 -5,20 -6,31 -1,11 -2,23 -2,36zm235 0c0,-15 1,-28 2,-41 1,-12 4,-25 7,-36 3,-12 8,-22 13,-31 5,-9 12,-17 20,-24 8,-7 17,-12 29,-16 11,-4 24,-5 38,-5 17,0 32,3 45,8 13,5 23,12 31,21 8,9 15,20 19,34 5,13 8,27 10,42 2,14 3,31 3,49 0,18 -1,34 -3,48 -2,14 -5,28 -10,42 -5,13 -11,25 -19,34 -8,9 -18,16 -31,22 -13,5 -28,8 -45,8 -17,0 -32,-3 -44,-8 -13,-5 -23,-12 -31,-22 -8,-9 -15,-20 -20,-33 -5,-13 -9,-27 -11,-42 -2,-15 -3,-31 -3,-48zm42 0c0,13 1,25 2,36 1,11 3,21 6,31 3,10 7,18 12,25 5,7 11,12 19,16 8,4 17,6 28,6 11,0 20,-2 28,-6 8,-4 14,-9 19,-16 5,-7 9,-15 12,-25 3,-10 5,-20 6,-31 1,-11 2,-23 2,-36 0,-13 -1,-25 -2,-36 -1,-11 -3,-21 -6,-31 -3,-10 -7,-18 -12,-25 -5,-7 -11,-12 -19,-16 -8,-4 -17,-6 -28,-6 -11,0 -20,2 -28,6 -8,4 -14,9 -19,16 -5,7 -9,15 -12,25 -3,10 -5,20 -6,31 -1,11 -2,23 -2,36z"/>
  <path class="fil13" d="M6602 6904l0 -316 43 0 0 276 128 0 0 40 -171 0zm200 -107c0,-22 5,-42 15,-59 10,-17 23,-30 40,-39 16,-9 34,-13 54,-13 16,0 30,3 44,10 14,6 24,15 31,27l0 -32 42 0 0 214 -42 0 0 -33c-7,12 -17,21 -31,28 -14,7 -28,10 -44,10 -30,0 -56,-10 -77,-31 -21,-21 -32,-48 -32,-81zm43 0c0,21 7,38 20,51 13,13 30,20 49,20 20,0 37,-6 50,-19 14,-13 21,-30 21,-52 0,-15 -4,-27 -11,-38 -7,-11 -16,-19 -26,-24 -11,-5 -22,-8 -34,-8 -20,0 -36,6 -50,19 -13,13 -20,30 -20,51zm236 44l38 0c1,5 3,9 6,14 3,5 7,8 12,11 9,6 21,8 34,7 10,-1 17,-4 23,-9 6,-5 9,-12 9,-20 0,-7 -2,-13 -8,-18 -5,-5 -12,-8 -21,-10l-29 -7c-20,-6 -36,-14 -45,-25 -10,-11 -14,-26 -12,-45 1,-15 9,-28 24,-39 15,-10 31,-16 50,-16 9,0 18,1 26,3 8,2 15,6 22,10 7,5 12,11 17,19 4,8 7,17 8,28l-38 0c-1,-8 -5,-14 -11,-18 -6,-4 -14,-6 -22,-6 -8,0 -15,2 -21,5 -6,4 -10,8 -11,14 -2,7 -2,13 0,17 3,7 11,13 25,17l31 8c37,9 56,30 57,62 0,19 -8,34 -24,46 -16,12 -36,17 -59,17 -13,0 -26,-3 -37,-8 -12,-5 -22,-13 -30,-24 -8,-11 -12,-23 -13,-37zm194 -115l0 -35 38 0 0 -80 42 0 0 80 45 0 0 35 -45 0 0 179 -42 0 0 -179 -38 0zm260 117l166 -238 31 0 0 199 43 0 0 38 -43 0 0 61 -42 0 0 -61 -156 0zm70 -38l86 0 0 -125 -86 125zm215 6c0,-17 4,-32 12,-46 8,-14 19,-26 34,-34 -15,-14 -22,-32 -22,-53 0,-21 8,-39 23,-54 15,-15 34,-22 57,-22 23,0 42,7 57,22 15,15 23,33 23,54 0,10 -2,20 -6,29 -4,9 -10,17 -17,24 15,9 26,20 34,34 8,14 12,29 12,46 0,27 -10,50 -30,69 -20,19 -44,28 -73,28 -29,0 -54,-9 -74,-28 -20,-19 -30,-42 -30,-69zm42 0c0,16 6,29 18,40 12,11 26,16 44,16 17,0 32,-6 44,-17 12,-11 18,-24 18,-40 0,-16 -6,-29 -18,-41 -12,-11 -26,-17 -44,-17l-3 0c-17,0 -30,6 -42,18 -11,11 -17,25 -17,40zm35 -158c-7,7 -11,15 -11,25 0,10 3,18 10,25 7,7 15,11 26,11l4 0c11,0 20,-4 27,-11 7,-7 11,-16 11,-25 0,-10 -4,-18 -11,-25 -8,-7 -17,-10 -28,-10 -11,0 -20,3 -27,10zm309 251l0 -330 42 0 0 149c6,-12 16,-21 30,-27 14,-6 27,-10 41,-10 27,0 48,8 64,25 15,17 23,40 23,70l0 124 -42 0 0 -121c0,-17 -5,-31 -14,-41 -9,-10 -21,-15 -36,-15 -8,0 -15,1 -23,3 -7,2 -14,6 -21,10 -7,5 -12,11 -16,20 -4,8 -6,18 -6,29l0 115 -42 0zm266 0l0 -214 42 0 0 48c10,-35 30,-53 59,-53 7,0 15,1 22,3 7,2 12,4 16,6l-6 39c-10,-5 -21,-7 -32,-7 -13,0 -24,5 -33,14 -9,9 -15,21 -19,36 -4,15 -6,32 -6,51l0 78 -42 0zm163 -64l38 0c1,5 3,9 6,14 3,5 7,8 12,11 9,6 21,8 34,7 10,-1 17,-4 23,-9 6,-5 9,-12 9,-20 0,-7 -2,-13 -8,-18 -5,-5 -12,-8 -21,-10l-29 -7c-20,-6 -36,-14 -45,-25 -10,-11 -14,-26 -12,-45 1,-15 9,-28 24,-39 15,-10 31,-16 50,-16 9,0 18,1 26,3 8,2 15,6 22,10 7,5 12,11 17,19 4,8 7,17 8,28l-38 0c-1,-8 -5,-14 -11,-18 -6,-4 -14,-6 -22,-6 -8,0 -15,2 -21,5 -6,4 -10,8 -11,14 -2,7 -2,13 0,17 3,7 11,13 25,17l31 8c37,9 56,30 57,62 0,19 -8,34 -24,46 -16,12 -36,17 -59,17 -13,0 -26,-3 -37,-8 -12,-5 -22,-13 -30,-24 -8,-11 -12,-23 -13,-37z"/>
  <rect class="fil16" x="2102" y="12067" width="6876" height="29"/>
  <rect class="fil16" x="2147" y="15205" width="6876" height="29"/>
  <g>
   <rect class="fil7" x="8619" y="2763" width="435" height="34" rx="17" ry="17"/>
   <rect class="fil7" x="8619" y="2873" width="435" height="34" rx="17" ry="17"/>
   <rect class="fil7" x="8619" y="2983" width="435" height="34" rx="17" ry="17"/>
  </g>
  <path class="fil17" d="M2081 13333l0 -302 40 0 136 226 0 -226 41 0 0 302 -39 0 -138 -227 0 227 -41 0zm274 -103c0,-32 10,-57 30,-77 20,-19 45,-29 75,-29 30,0 54,10 73,29 19,19 29,45 29,77 0,8 0,13 0,16l-166 0c2,17 10,30 22,41 12,10 27,15 44,15 12,0 24,-3 34,-8 11,-6 19,-13 24,-23 4,2 10,4 18,7 8,3 14,5 16,6 -9,17 -21,31 -38,40 -17,9 -36,14 -56,14 -30,0 -55,-10 -75,-30 -20,-20 -30,-46 -30,-78zm40 -15l127 0c-2,-17 -9,-30 -20,-40 -11,-10 -25,-15 -42,-15 -17,0 -32,5 -43,15 -12,10 -19,23 -21,40zm196 -53l0 -34 37 0 0 -77 40 0 0 77 43 0 0 34 -43 0 0 171 -40 0 0 -171 -37 0zm271 171l0 -205 40 0 0 46c10,-34 29,-51 57,-51 7,0 14,1 21,2 7,2 12,3 15,5l-6 37c-10,-5 -20,-7 -30,-7 -13,0 -23,4 -32,13 -9,9 -15,20 -18,34 -4,14 -6,31 -6,49l0 74 -40 0zm154 -103c0,-32 10,-57 30,-77 20,-19 45,-29 75,-29 30,0 54,10 73,29 19,19 29,45 29,77 0,8 0,13 0,16l-166 0c2,17 10,30 22,41 12,10 27,15 44,15 12,0 24,-3 34,-8 11,-6 19,-13 24,-23 4,2 10,4 18,7 8,3 14,5 16,6 -9,17 -21,31 -38,40 -17,9 -36,14 -56,14 -30,0 -55,-10 -75,-30 -20,-20 -30,-46 -30,-78zm40 -15l127 0c-2,-17 -9,-30 -20,-40 -11,-10 -25,-15 -42,-15 -17,0 -32,5 -43,15 -12,10 -19,23 -21,40zm219 72c-10,-17 -15,-35 -15,-56 0,-21 5,-40 15,-56 10,-16 23,-29 40,-37 16,-9 34,-13 54,-13 16,0 30,3 44,9 14,6 25,14 35,24l-30 25c-13,-13 -29,-19 -49,-19 -19,0 -35,6 -49,19 -13,12 -20,28 -20,48 0,20 7,36 20,49 13,13 30,19 49,19 19,0 36,-7 49,-20l31 25c-10,11 -21,19 -35,25 -14,6 -28,9 -44,9 -19,0 -37,-4 -54,-13 -16,-9 -30,-21 -40,-38zm204 -56c0,-32 10,-57 30,-77 20,-19 45,-29 75,-29 30,0 54,10 73,29 19,19 29,45 29,77 0,8 0,13 0,16l-166 0c2,17 10,30 22,41 12,10 27,15 44,15 12,0 24,-3 34,-8 11,-6 19,-13 24,-23 4,2 10,4 18,7 8,3 14,5 16,6 -9,17 -21,31 -38,40 -17,9 -36,14 -56,14 -30,0 -55,-10 -75,-30 -20,-20 -30,-46 -30,-78zm40 -15l127 0c-2,-17 -9,-30 -20,-40 -11,-10 -25,-15 -42,-15 -17,0 -32,5 -43,15 -12,10 -19,23 -21,40zm217 -143c-5,-5 -8,-11 -8,-18 0,-7 3,-14 8,-18 5,-5 12,-7 19,-7 8,0 14,2 20,7 5,5 8,11 8,18 0,7 -3,14 -8,18 -5,5 -12,7 -20,7 -8,0 -14,-2 -19,-7zm-1 262l0 -205 40 0 0 205 -40 0zm81 -205l42 0 62 154 62 -154 43 0 -124 205 -85 -205zm231 102c0,-21 5,-40 14,-56 10,-16 22,-29 38,-37 16,-9 33,-13 52,-13 15,0 29,3 42,9 13,6 23,15 29,26l0 -31 40 0 0 205 -40 0 0 -31c-7,11 -16,20 -30,26 -13,6 -27,9 -42,9 -29,0 -53,-10 -74,-30 -20,-20 -30,-46 -30,-77zm41 0c0,20 6,36 19,49 13,13 29,19 47,19 19,0 35,-6 48,-18 13,-12 20,-29 20,-50 0,-14 -3,-26 -10,-37 -7,-10 -15,-18 -25,-23 -10,-5 -21,-7 -32,-7 -19,0 -35,6 -47,19 -13,12 -19,29 -19,49zm241 103l0 -316 40 0 0 142c7,-11 16,-20 29,-26 13,-6 27,-9 43,-9 19,0 36,4 52,13 16,9 28,21 38,37 9,16 14,35 14,56 0,21 -5,40 -14,56 -10,17 -22,29 -38,38 -16,9 -33,13 -52,13 -15,0 -29,-3 -42,-9 -13,-6 -23,-15 -30,-26l0 31 -40 0zm40 -103c0,21 7,38 20,50 13,12 29,18 48,18 19,0 34,-6 47,-19 13,-13 19,-29 19,-49 0,-20 -6,-36 -19,-49 -13,-12 -28,-19 -47,-19 -8,0 -17,1 -25,4 -8,3 -15,7 -22,13 -6,5 -12,13 -16,21 -4,9 -6,18 -6,29zm228 103l0 -316 40 0 0 316 -40 0zm93 -103c0,-32 10,-57 30,-77 20,-19 45,-29 75,-29 30,0 54,10 73,29 19,19 29,45 29,77 0,8 0,13 0,16l-166 0c2,17 10,30 22,41 12,10 27,15 44,15 12,0 24,-3 34,-8 11,-6 19,-13 24,-23 4,2 10,4 18,7 8,3 14,5 16,6 -9,17 -21,31 -38,40 -17,9 -36,14 -56,14 -30,0 -55,-10 -75,-30 -20,-20 -30,-46 -30,-78zm40 -15l127 0c-2,-17 -9,-30 -20,-40 -11,-10 -25,-15 -42,-15 -17,0 -32,5 -43,15 -12,10 -19,23 -21,40z"/>
  <path class="fil17" d="M2081 16609l0 -302 40 0 136 226 0 -226 41 0 0 302 -39 0 -138 -227 0 227 -41 0zm274 -103c0,-32 10,-57 30,-77 20,-19 45,-29 75,-29 30,0 54,10 73,29 19,19 29,45 29,77 0,8 0,13 0,16l-166 0c2,17 10,30 22,41 12,10 27,15 44,15 12,0 24,-3 34,-8 11,-6 19,-13 24,-23 4,2 10,4 18,7 8,3 14,5 16,6 -9,17 -21,31 -38,40 -17,9 -36,14 -56,14 -30,0 -55,-10 -75,-30 -20,-20 -30,-46 -30,-78zm40 -15l127 0c-2,-17 -9,-30 -20,-40 -11,-10 -25,-15 -42,-15 -17,0 -32,5 -43,15 -12,10 -19,23 -21,40zm196 -53l0 -34 37 0 0 -77 40 0 0 77 43 0 0 34 -43 0 0 171 -40 0 0 -171 -37 0zm271 270l0 -304 40 0 0 32c7,-11 16,-20 30,-27 13,-6 27,-10 42,-10 29,0 53,10 72,30 20,20 30,46 30,78 0,21 -5,40 -14,56 -9,16 -22,29 -37,37 -15,8 -32,13 -51,13 -15,0 -29,-3 -42,-9 -13,-6 -23,-15 -29,-26l0 130 -40 0zm40 -201c0,21 7,37 20,49 13,12 29,18 47,18 19,0 35,-6 47,-18 13,-12 19,-28 19,-48 0,-20 -6,-37 -19,-50 -13,-13 -28,-19 -47,-19 -19,0 -34,6 -47,19 -13,12 -19,29 -19,50zm213 -1c0,-21 5,-40 14,-56 10,-16 22,-29 38,-37 16,-9 33,-13 52,-13 15,0 29,3 42,9 13,6 23,15 29,26l0 -31 40 0 0 205 -40 0 0 -31c-7,11 -16,20 -30,26 -13,6 -27,9 -42,9 -29,0 -53,-10 -74,-30 -20,-20 -30,-46 -30,-77zm41 0c0,20 6,36 19,49 13,13 29,19 47,19 19,0 35,-6 48,-18 13,-12 20,-29 20,-50 0,-14 -3,-26 -10,-37 -7,-10 -15,-18 -25,-23 -10,-5 -21,-7 -32,-7 -19,0 -35,6 -47,19 -13,12 -19,29 -19,49zm216 -102l43 0 61 148 61 -148 43 0 -127 304 -42 0 43 -106 -82 -198zm230 102c0,-21 5,-40 14,-56 10,-16 22,-29 38,-37 16,-9 33,-13 52,-13 15,0 29,3 42,9 13,6 23,15 29,26l0 -31 40 0 0 205 -40 0 0 -31c-7,11 -16,20 -30,26 -13,6 -27,9 -42,9 -29,0 -53,-10 -74,-30 -20,-20 -30,-46 -30,-77zm41 0c0,20 6,36 19,49 13,13 29,19 47,19 19,0 35,-6 48,-18 13,-12 20,-29 20,-50 0,-14 -3,-26 -10,-37 -7,-10 -15,-18 -25,-23 -10,-5 -21,-7 -32,-7 -19,0 -35,6 -47,19 -13,12 -19,29 -19,49zm241 103l0 -316 40 0 0 142c7,-11 16,-20 29,-26 13,-6 27,-9 43,-9 19,0 36,4 52,13 16,9 28,21 38,37 9,16 14,35 14,56 0,21 -5,40 -14,56 -10,17 -22,29 -38,38 -16,9 -33,13 -52,13 -15,0 -29,-3 -42,-9 -13,-6 -23,-15 -30,-26l0 31 -40 0zm40 -103c0,21 7,38 20,50 13,12 29,18 48,18 19,0 34,-6 47,-19 13,-13 19,-29 19,-49 0,-20 -6,-36 -19,-49 -13,-12 -28,-19 -47,-19 -8,0 -17,1 -25,4 -8,3 -15,7 -22,13 -6,5 -12,13 -16,21 -4,9 -6,18 -6,29zm228 103l0 -316 40 0 0 316 -40 0zm93 -103c0,-32 10,-57 30,-77 20,-19 45,-29 75,-29 30,0 54,10 73,29 19,19 29,45 29,77 0,8 0,13 0,16l-166 0c2,17 10,30 22,41 12,10 27,15 44,15 12,0 24,-3 34,-8 11,-6 19,-13 24,-23 4,2 10,4 18,7 8,3 14,5 16,6 -9,17 -21,31 -38,40 -17,9 -36,14 -56,14 -30,0 -55,-10 -75,-30 -20,-20 -30,-46 -30,-78zm40 -15l127 0c-2,-17 -9,-30 -20,-40 -11,-10 -25,-15 -42,-15 -17,0 -32,5 -43,15 -12,10 -19,23 -21,40z"/>
  <path class="fil3" d="M2081 14051l0 -302 115 0c15,0 29,3 40,8 12,5 21,13 28,22 7,9 12,19 15,30 3,11 5,23 5,35 0,12 -1,22 -4,33 -3,10 -7,20 -13,28 -6,9 -14,16 -24,21 -10,6 -22,9 -35,10l81 115 -49 0 -78 -113 -39 0 0 113 -41 0zm41 -151l72 0c9,0 17,-2 23,-5 7,-3 12,-7 16,-13 4,-5 7,-11 8,-18 2,-7 3,-13 3,-21 0,-10 -2,-19 -5,-27 -3,-8 -8,-15 -16,-21 -8,-6 -17,-9 -28,-9l-74 0 0 113zm195 92l159 -227 30 0 0 191 41 0 0 37 -41 0 0 59 -40 0 0 -59 -149 0zm67 -37l82 0 0 -120 -82 120zm205 6c0,-16 4,-31 12,-44 8,-14 19,-24 32,-33 -14,-14 -21,-30 -21,-51 0,-20 7,-37 22,-52 15,-14 33,-21 55,-21 22,0 40,7 55,21 15,14 22,31 22,51 0,10 -2,19 -6,28 -4,9 -10,16 -17,23 14,8 25,19 33,33 8,13 12,28 12,44 0,26 -9,48 -28,66 -19,18 -42,27 -70,27 -28,0 -52,-9 -71,-27 -19,-18 -28,-40 -28,-66zm40 0c0,15 6,28 17,39 11,10 25,16 42,16 17,0 31,-5 42,-16 11,-11 17,-23 17,-38 0,-15 -6,-28 -17,-39 -11,-11 -25,-16 -42,-16l-3 0c-16,0 -29,6 -40,17 -11,11 -16,24 -16,38zm33 -151c-7,7 -11,15 -11,24 0,9 3,18 10,24 7,7 15,10 25,11l4 0c10,0 19,-4 26,-11 7,-7 10,-15 10,-24 0,-9 -4,-17 -11,-24 -7,-6 -16,-10 -27,-10 -10,0 -19,3 -26,10zm156 287c21,-28 30,-61 30,-96l41 0c-2,25 -7,47 -15,65 -8,18 -17,32 -28,41l-28 -9zm128 -260c4,-23 14,-41 31,-54 17,-14 37,-20 60,-20 25,0 47,8 64,24 17,16 26,36 26,61 0,26 -10,51 -31,74 -14,16 -28,33 -42,49 -14,17 -26,31 -36,43l109 0 0 39 -176 0 0 -17 115 -141c14,-17 21,-32 21,-47 0,-14 -5,-24 -15,-33 -10,-8 -22,-12 -36,-12 -13,0 -25,4 -34,12 -10,8 -15,19 -17,33l-40 -9zm227 -6l0 -38 85 -31 0 289 -40 0 0 -236 -46 16zm148 159l34 -18c5,14 14,25 25,33 11,8 23,12 37,12 23,0 40,-5 51,-16 11,-11 17,-25 17,-42 0,-18 -6,-31 -17,-41 -11,-9 -25,-14 -42,-14 -12,0 -24,2 -34,5 -10,3 -23,10 -37,19l-25 -20 25 -143 153 0 0 38 -121 0 -16 81c7,-5 15,-9 26,-12 11,-3 20,-5 29,-5 18,0 35,3 49,10 15,7 27,17 36,31 9,14 14,31 14,50 0,29 -10,53 -30,70 -20,17 -46,26 -78,26 -20,0 -39,-6 -56,-18 -17,-12 -30,-28 -39,-48zm264 58c-6,-5 -8,-12 -8,-19 0,-8 3,-14 8,-20 6,-5 12,-8 20,-8 8,0 15,3 20,8 6,5 9,12 9,20 0,8 -3,14 -8,19 -6,5 -12,8 -21,8 -8,0 -15,-3 -20,-8zm107 -139c0,-14 1,-27 2,-39 1,-12 4,-24 7,-35 3,-11 7,-21 13,-30 5,-9 12,-16 19,-23 8,-6 17,-11 27,-15 11,-3 23,-5 36,-5 16,0 30,3 43,8 12,5 22,12 30,20 8,9 14,19 19,32 5,13 8,26 10,40 2,14 3,29 3,47 0,17 -1,33 -3,46 -2,14 -5,27 -10,40 -5,13 -11,23 -19,32 -8,9 -18,15 -30,21 -12,5 -27,8 -43,8 -16,0 -30,-3 -43,-8 -12,-5 -22,-12 -30,-21 -8,-9 -14,-19 -19,-32 -5,-13 -8,-26 -10,-40 -2,-14 -3,-29 -3,-46zm40 0c0,13 1,24 2,34 1,10 3,20 6,29 3,9 7,17 11,24 5,6 11,11 18,15 8,4 16,6 26,6 10,0 19,-2 26,-6 8,-4 14,-9 18,-15 5,-6 9,-14 12,-23 3,-9 5,-19 6,-29 1,-10 2,-22 2,-34 0,-13 -1,-24 -2,-34 -1,-10 -3,-20 -6,-29 -3,-9 -7,-17 -12,-24 -5,-6 -11,-11 -18,-15 -8,-4 -16,-6 -26,-6 -10,0 -19,2 -26,6 -8,4 -14,9 -18,15 -5,6 -8,14 -11,24 -3,9 -5,19 -6,29 -1,10 -2,22 -2,34zm225 0c0,-14 1,-27 2,-39 1,-12 4,-24 7,-35 3,-11 7,-21 13,-30 5,-9 12,-16 19,-23 8,-6 17,-11 27,-15 11,-3 23,-5 36,-5 16,0 30,3 43,8 12,5 22,12 30,20 8,9 14,19 19,32 5,13 8,26 10,40 2,14 3,29 3,47 0,17 -1,33 -3,46 -2,14 -5,27 -10,40 -5,13 -11,23 -19,32 -8,9 -18,15 -30,21 -12,5 -27,8 -43,8 -16,0 -30,-3 -43,-8 -12,-5 -22,-12 -30,-21 -8,-9 -14,-19 -19,-32 -5,-13 -8,-26 -10,-40 -2,-14 -3,-29 -3,-46zm40 0c0,13 1,24 2,34 1,10 3,20 6,29 3,9 7,17 11,24 5,6 11,11 18,15 8,4 16,6 26,6 10,0 19,-2 26,-6 8,-4 14,-9 18,-15 5,-6 9,-14 12,-23 3,-9 5,-19 6,-29 1,-10 2,-22 2,-34 0,-13 -1,-24 -2,-34 -1,-10 -3,-20 -6,-29 -3,-9 -7,-17 -12,-24 -5,-6 -11,-11 -18,-15 -8,-4 -16,-6 -26,-6 -10,0 -19,2 -26,6 -8,4 -14,9 -18,15 -5,6 -8,14 -11,24 -3,9 -5,19 -6,29 -1,10 -2,22 -2,34z"/>
  <path id="1" class="fil14 str0" d="M2081 14051l0 -302 115 0c15,0 29,3 40,8 12,5 21,13 28,22 7,9 12,19 15,30 3,11 5,23 5,35 0,12 -1,22 -4,33 -3,10 -7,20 -13,28 -6,9 -14,16 -24,21 -10,6 -22,9 -35,10l81 115 -49 0 -78 -113 -39 0 0 113 -41 0zm41 -151l72 0c9,0 17,-2 23,-5 7,-3 12,-7 16,-13 4,-5 7,-11 8,-18 2,-7 3,-13 3,-21 0,-10 -2,-19 -5,-27 -3,-8 -8,-15 -16,-21 -8,-6 -17,-9 -28,-9l-74 0 0 113zm195 92l159 -227 30 0 0 191 41 0 0 37 -41 0 0 59 -40 0 0 -59 -149 0zm67 -37l82 0 0 -120 -82 120zm205 6c0,-16 4,-31 12,-44 8,-14 19,-24 32,-33 -14,-14 -21,-30 -21,-51 0,-20 7,-37 22,-52 15,-14 33,-21 55,-21 22,0 40,7 55,21 15,14 22,31 22,51 0,10 -2,19 -6,28 -4,9 -10,16 -17,23 14,8 25,19 33,33 8,13 12,28 12,44 0,26 -9,48 -28,66 -19,18 -42,27 -70,27 -28,0 -52,-9 -71,-27 -19,-18 -28,-40 -28,-66zm40 0c0,15 6,28 17,39 11,10 25,16 42,16 17,0 31,-5 42,-16 11,-11 17,-23 17,-38 0,-15 -6,-28 -17,-39 -11,-11 -25,-16 -42,-16l-3 0c-16,0 -29,6 -40,17 -11,11 -16,24 -16,38zm33 -151c-7,7 -11,15 -11,24 0,9 3,18 10,24 7,7 15,10 25,11l4 0c10,0 19,-4 26,-11 7,-7 10,-15 10,-24 0,-9 -4,-17 -11,-24 -7,-6 -16,-10 -27,-10 -10,0 -19,3 -26,10zm156 287c21,-28 30,-61 30,-96l41 0c-2,25 -7,47 -15,65 -8,18 -17,32 -28,41l-28 -9zm128 -260c4,-23 14,-41 31,-54 17,-14 37,-20 60,-20 25,0 47,8 64,24 17,16 26,36 26,61 0,26 -10,51 -31,74 -14,16 -28,33 -42,49 -14,17 -26,31 -36,43l109 0 0 39 -176 0 0 -17 115 -141c14,-17 21,-32 21,-47 0,-14 -5,-24 -15,-33 -10,-8 -22,-12 -36,-12 -13,0 -25,4 -34,12 -10,8 -15,19 -17,33l-40 -9zm227 -6l0 -38 85 -31 0 289 -40 0 0 -236 -46 16zm148 159l34 -18c5,14 14,25 25,33 11,8 23,12 37,12 23,0 40,-5 51,-16 11,-11 17,-25 17,-42 0,-18 -6,-31 -17,-41 -11,-9 -25,-14 -42,-14 -12,0 -24,2 -34,5 -10,3 -23,10 -37,19l-25 -20 25 -143 153 0 0 38 -121 0 -16 81c7,-5 15,-9 26,-12 11,-3 20,-5 29,-5 18,0 35,3 49,10 15,7 27,17 36,31 9,14 14,31 14,50 0,29 -10,53 -30,70 -20,17 -46,26 -78,26 -20,0 -39,-6 -56,-18 -17,-12 -30,-28 -39,-48zm264 58c-6,-5 -8,-12 -8,-19 0,-8 3,-14 8,-20 6,-5 12,-8 20,-8 8,0 15,3 20,8 6,5 9,12 9,20 0,8 -3,14 -8,19 -6,5 -12,8 -21,8 -8,0 -15,-3 -20,-8zm107 -139c0,-14 1,-27 2,-39 1,-12 4,-24 7,-35 3,-11 7,-21 13,-30 5,-9 12,-16 19,-23 8,-6 17,-11 27,-15 11,-3 23,-5 36,-5 16,0 30,3 43,8 12,5 22,12 30,20 8,9 14,19 19,32 5,13 8,26 10,40 2,14 3,29 3,47 0,17 -1,33 -3,46 -2,14 -5,27 -10,40 -5,13 -11,23 -19,32 -8,9 -18,15 -30,21 -12,5 -27,8 -43,8 -16,0 -30,-3 -43,-8 -12,-5 -22,-12 -30,-21 -8,-9 -14,-19 -19,-32 -5,-13 -8,-26 -10,-40 -2,-14 -3,-29 -3,-46zm40 0c0,13 1,24 2,34 1,10 3,20 6,29 3,9 7,17 11,24 5,6 11,11 18,15 8,4 16,6 26,6 10,0 19,-2 26,-6 8,-4 14,-9 18,-15 5,-6 9,-14 12,-23 3,-9 5,-19 6,-29 1,-10 2,-22 2,-34 0,-13 -1,-24 -2,-34 -1,-10 -3,-20 -6,-29 -3,-9 -7,-17 -12,-24 -5,-6 -11,-11 -18,-15 -8,-4 -16,-6 -26,-6 -10,0 -19,2 -26,6 -8,4 -14,9 -18,15 -5,6 -8,14 -11,24 -3,9 -5,19 -6,29 -1,10 -2,22 -2,34zm225 0c0,-14 1,-27 2,-39 1,-12 4,-24 7,-35 3,-11 7,-21 13,-30 5,-9 12,-16 19,-23 8,-6 17,-11 27,-15 11,-3 23,-5 36,-5 16,0 30,3 43,8 12,5 22,12 30,20 8,9 14,19 19,32 5,13 8,26 10,40 2,14 3,29 3,47 0,17 -1,33 -3,46 -2,14 -5,27 -10,40 -5,13 -11,23 -19,32 -8,9 -18,15 -30,21 -12,5 -27,8 -43,8 -16,0 -30,-3 -43,-8 -12,-5 -22,-12 -30,-21 -8,-9 -14,-19 -19,-32 -5,-13 -8,-26 -10,-40 -2,-14 -3,-29 -3,-46zm40 0c0,13 1,24 2,34 1,10 3,20 6,29 3,9 7,17 11,24 5,6 11,11 18,15 8,4 16,6 26,6 10,0 19,-2 26,-6 8,-4 14,-9 18,-15 5,-6 9,-14 12,-23 3,-9 5,-19 6,-29 1,-10 2,-22 2,-34 0,-13 -1,-24 -2,-34 -1,-10 -3,-20 -6,-29 -3,-9 -7,-17 -12,-24 -5,-6 -11,-11 -18,-15 -8,-4 -16,-6 -26,-6 -10,0 -19,2 -26,6 -8,4 -14,9 -18,15 -5,6 -8,14 -11,24 -3,9 -5,19 -6,29 -1,10 -2,22 -2,34z"/>
  <path class="fil18" d="M7830 13798l36 0 59 200 59 -200 34 0 -76 259 -36 0 -76 -259zm229 35c-5,-4 -7,-10 -7,-16 0,-6 2,-12 7,-16 5,-4 10,-6 17,-6 7,0 12,2 17,6 5,4 7,10 7,16 0,6 -2,12 -7,16 -5,4 -10,6 -17,6 -6,0 -12,-2 -17,-6zm-1 224l0 -175 34 0 0 175 -34 0zm80 -88c0,-27 9,-49 26,-66 17,-17 39,-25 64,-25 25,0 46,8 63,25 16,17 25,39 25,66 0,7 0,11 0,13l-142 0c2,15 8,26 19,35 10,9 23,13 38,13 11,0 20,-2 30,-7 9,-5 16,-11 21,-20 3,1 9,3 16,6 7,3 12,4 14,5 -7,15 -18,26 -33,34 -15,8 -30,12 -48,12 -25,0 -47,-9 -64,-25 -17,-17 -26,-39 -26,-66zm34 -13l109 0c-2,-15 -8,-26 -17,-34 -10,-8 -22,-13 -36,-13 -15,0 -27,4 -37,13 -10,8 -16,20 -18,34zm162 -74l37 0 44 123 44 -123 33 0 44 123 44 -123 37 0 -65 175 -28 0 -48 -129 -46 129 -28 0 -67 -175z"/>
  <path class="fil19 str1" d="M7576 13624l1298 0c79,0 144,65 144,144l0 319c0,79 -65,144 -144,144l-1298 0c-79,0 -144,-65 -144,-144l0 -319c0,-79 65,-144 144,-144z"/>
  <path class="fil3" d="M2081 17332l0 -302 115 0c15,0 29,3 40,8 12,5 21,13 28,22 7,9 12,19 15,30 3,11 5,23 5,35 0,12 -1,22 -4,33 -3,10 -7,20 -13,28 -6,9 -14,16 -24,21 -10,6 -22,9 -35,10l81 115 -49 0 -78 -113 -39 0 0 113 -41 0zm41 -151l72 0c9,0 17,-2 23,-5 7,-3 12,-7 16,-13 4,-5 7,-11 8,-18 2,-7 3,-13 3,-21 0,-10 -2,-19 -5,-27 -3,-8 -8,-15 -16,-21 -8,-6 -17,-9 -28,-9l-74 0 0 113zm212 -63c4,-23 14,-41 31,-54 17,-14 37,-20 60,-20 25,0 47,8 64,24 17,16 26,36 26,61 0,26 -10,51 -31,74 -14,16 -28,33 -42,49 -14,17 -26,31 -36,43l109 0 0 39 -176 0 0 -17 115 -141c14,-17 21,-32 21,-47 0,-14 -5,-24 -15,-33 -10,-8 -22,-12 -36,-12 -13,0 -25,4 -34,12 -10,8 -15,19 -17,33l-40 -9zm230 214l136 -247 -131 0 0 -39 198 0 -157 286 -46 0zm183 46c21,-28 30,-61 30,-96l41 0c-2,25 -7,47 -15,65 -8,18 -17,32 -28,41l-28 -9zm128 -260c4,-23 14,-41 31,-54 17,-14 37,-20 60,-20 25,0 47,8 64,24 17,16 26,36 26,61 0,26 -10,51 -31,74 -14,16 -28,33 -42,49 -14,17 -26,31 -36,43l109 0 0 39 -176 0 0 -17 115 -141c14,-17 21,-32 21,-47 0,-14 -5,-24 -15,-33 -10,-8 -22,-12 -36,-12 -13,0 -25,4 -34,12 -10,8 -15,19 -17,33l-40 -9zm234 16c1,-26 11,-48 30,-66 19,-18 41,-26 67,-25 26,1 47,10 63,28 17,17 26,41 28,70 3,37 1,73 -5,108 -4,26 -15,48 -33,64 -18,16 -40,24 -65,23 -9,0 -17,-1 -24,-3 -7,-2 -14,-5 -22,-9 -7,-4 -14,-9 -20,-17 -6,-7 -12,-16 -16,-27l36 -15c5,11 12,19 21,25 9,5 18,8 27,8 20,0 36,-9 48,-28 12,-19 16,-43 14,-72 -4,11 -12,19 -22,24 -10,5 -22,8 -36,8 -17,0 -33,-5 -47,-14 -14,-9 -25,-21 -32,-37 -8,-15 -11,-31 -10,-48zm40 2c-1,16 4,29 14,40 10,11 22,17 37,17 15,0 28,-4 40,-15 11,-10 17,-23 18,-38 0,-16 -5,-29 -15,-40 -10,-11 -23,-17 -38,-17 -15,-1 -28,4 -38,14 -10,10 -16,23 -17,38zm196 141l35 -19c5,10 12,19 22,27 10,8 20,12 32,13 16,1 30,-3 42,-12 12,-9 19,-21 19,-34 0,-14 -5,-26 -15,-36 -11,-10 -24,-15 -39,-15l-32 0 0 -38 32 0c10,0 19,-3 26,-9 7,-6 12,-14 14,-24 2,-12 0,-22 -5,-30 -3,-5 -8,-8 -14,-11 -6,-3 -12,-5 -19,-5 -21,-2 -38,7 -50,26l-29 -23c8,-14 19,-25 34,-32 15,-8 31,-11 49,-10 23,1 42,10 56,25 14,16 21,34 20,54 0,5 -1,11 -3,18 -5,17 -15,30 -29,39 14,5 25,16 34,31 9,15 12,31 11,46 -1,16 -7,30 -17,43 -10,13 -23,23 -38,29 -16,7 -32,9 -49,8 -19,-1 -36,-7 -51,-18 -15,-11 -27,-25 -34,-41zm255 53c-6,-5 -8,-12 -8,-19 0,-8 3,-14 8,-20 6,-5 12,-8 20,-8 8,0 15,3 20,8 6,5 9,12 9,20 0,8 -3,14 -8,19 -6,5 -12,8 -21,8 -8,0 -15,-3 -20,-8zm107 -139c0,-14 1,-27 2,-39 1,-12 4,-24 7,-35 3,-11 7,-21 13,-30 5,-9 12,-16 19,-23 8,-6 17,-11 27,-15 11,-3 23,-5 36,-5 16,0 30,3 43,8 12,5 22,12 30,20 8,9 14,19 19,32 5,13 8,26 10,40 2,14 3,29 3,47 0,17 -1,33 -3,46 -2,14 -5,27 -10,40 -5,13 -11,23 -19,32 -8,9 -18,15 -30,21 -12,5 -27,8 -43,8 -16,0 -30,-3 -43,-8 -12,-5 -22,-12 -30,-21 -8,-9 -14,-19 -19,-32 -5,-13 -8,-26 -10,-40 -2,-14 -3,-29 -3,-46zm40 0c0,13 1,24 2,34 1,10 3,20 6,29 3,9 7,17 11,24 5,6 11,11 18,15 8,4 16,6 26,6 10,0 19,-2 26,-6 8,-4 14,-9 18,-15 5,-6 9,-14 12,-23 3,-9 5,-19 6,-29 1,-10 2,-22 2,-34 0,-13 -1,-24 -2,-34 -1,-10 -3,-20 -6,-29 -3,-9 -7,-17 -12,-24 -5,-6 -11,-11 -18,-15 -8,-4 -16,-6 -26,-6 -10,0 -19,2 -26,6 -8,4 -14,9 -18,15 -5,6 -8,14 -11,24 -3,9 -5,19 -6,29 -1,10 -2,22 -2,34zm225 0c0,-14 1,-27 2,-39 1,-12 4,-24 7,-35 3,-11 7,-21 13,-30 5,-9 12,-16 19,-23 8,-6 17,-11 27,-15 11,-3 23,-5 36,-5 16,0 30,3 43,8 12,5 22,12 30,20 8,9 14,19 19,32 5,13 8,26 10,40 2,14 3,29 3,47 0,17 -1,33 -3,46 -2,14 -5,27 -10,40 -5,13 -11,23 -19,32 -8,9 -18,15 -30,21 -12,5 -27,8 -43,8 -16,0 -30,-3 -43,-8 -12,-5 -22,-12 -30,-21 -8,-9 -14,-19 -19,-32 -5,-13 -8,-26 -10,-40 -2,-14 -3,-29 -3,-46zm40 0c0,13 1,24 2,34 1,10 3,20 6,29 3,9 7,17 11,24 5,6 11,11 18,15 8,4 16,6 26,6 10,0 19,-2 26,-6 8,-4 14,-9 18,-15 5,-6 9,-14 12,-23 3,-9 5,-19 6,-29 1,-10 2,-22 2,-34 0,-13 -1,-24 -2,-34 -1,-10 -3,-20 -6,-29 -3,-9 -7,-17 -12,-24 -5,-6 -11,-11 -18,-15 -8,-4 -16,-6 -26,-6 -10,0 -19,2 -26,6 -8,4 -14,9 -18,15 -5,6 -8,14 -11,24 -3,9 -5,19 -6,29 -1,10 -2,22 -2,34z"/>
  <path id="1" class="fil14 str0" d="M2081 17332l0 -302 115 0c15,0 29,3 40,8 12,5 21,13 28,22 7,9 12,19 15,30 3,11 5,23 5,35 0,12 -1,22 -4,33 -3,10 -7,20 -13,28 -6,9 -14,16 -24,21 -10,6 -22,9 -35,10l81 115 -49 0 -78 -113 -39 0 0 113 -41 0zm41 -151l72 0c9,0 17,-2 23,-5 7,-3 12,-7 16,-13 4,-5 7,-11 8,-18 2,-7 3,-13 3,-21 0,-10 -2,-19 -5,-27 -3,-8 -8,-15 -16,-21 -8,-6 -17,-9 -28,-9l-74 0 0 113zm212 -63c4,-23 14,-41 31,-54 17,-14 37,-20 60,-20 25,0 47,8 64,24 17,16 26,36 26,61 0,26 -10,51 -31,74 -14,16 -28,33 -42,49 -14,17 -26,31 -36,43l109 0 0 39 -176 0 0 -17 115 -141c14,-17 21,-32 21,-47 0,-14 -5,-24 -15,-33 -10,-8 -22,-12 -36,-12 -13,0 -25,4 -34,12 -10,8 -15,19 -17,33l-40 -9zm230 214l136 -247 -131 0 0 -39 198 0 -157 286 -46 0zm183 46c21,-28 30,-61 30,-96l41 0c-2,25 -7,47 -15,65 -8,18 -17,32 -28,41l-28 -9zm128 -260c4,-23 14,-41 31,-54 17,-14 37,-20 60,-20 25,0 47,8 64,24 17,16 26,36 26,61 0,26 -10,51 -31,74 -14,16 -28,33 -42,49 -14,17 -26,31 -36,43l109 0 0 39 -176 0 0 -17 115 -141c14,-17 21,-32 21,-47 0,-14 -5,-24 -15,-33 -10,-8 -22,-12 -36,-12 -13,0 -25,4 -34,12 -10,8 -15,19 -17,33l-40 -9zm234 16c1,-26 11,-48 30,-66 19,-18 41,-26 67,-25 26,1 47,10 63,28 17,17 26,41 28,70 3,37 1,73 -5,108 -4,26 -15,48 -33,64 -18,16 -40,24 -65,23 -9,0 -17,-1 -24,-3 -7,-2 -14,-5 -22,-9 -7,-4 -14,-9 -20,-17 -6,-7 -12,-16 -16,-27l36 -15c5,11 12,19 21,25 9,5 18,8 27,8 20,0 36,-9 48,-28 12,-19 16,-43 14,-72 -4,11 -12,19 -22,24 -10,5 -22,8 -36,8 -17,0 -33,-5 -47,-14 -14,-9 -25,-21 -32,-37 -8,-15 -11,-31 -10,-48zm40 2c-1,16 4,29 14,40 10,11 22,17 37,17 15,0 28,-4 40,-15 11,-10 17,-23 18,-38 0,-16 -5,-29 -15,-40 -10,-11 -23,-17 -38,-17 -15,-1 -28,4 -38,14 -10,10 -16,23 -17,38zm196 141l35 -19c5,10 12,19 22,27 10,8 20,12 32,13 16,1 30,-3 42,-12 12,-9 19,-21 19,-34 0,-14 -5,-26 -15,-36 -11,-10 -24,-15 -39,-15l-32 0 0 -38 32 0c10,0 19,-3 26,-9 7,-6 12,-14 14,-24 2,-12 0,-22 -5,-30 -3,-5 -8,-8 -14,-11 -6,-3 -12,-5 -19,-5 -21,-2 -38,7 -50,26l-29 -23c8,-14 19,-25 34,-32 15,-8 31,-11 49,-10 23,1 42,10 56,25 14,16 21,34 20,54 0,5 -1,11 -3,18 -5,17 -15,30 -29,39 14,5 25,16 34,31 9,15 12,31 11,46 -1,16 -7,30 -17,43 -10,13 -23,23 -38,29 -16,7 -32,9 -49,8 -19,-1 -36,-7 -51,-18 -15,-11 -27,-25 -34,-41zm255 53c-6,-5 -8,-12 -8,-19 0,-8 3,-14 8,-20 6,-5 12,-8 20,-8 8,0 15,3 20,8 6,5 9,12 9,20 0,8 -3,14 -8,19 -6,5 -12,8 -21,8 -8,0 -15,-3 -20,-8zm107 -139c0,-14 1,-27 2,-39 1,-12 4,-24 7,-35 3,-11 7,-21 13,-30 5,-9 12,-16 19,-23 8,-6 17,-11 27,-15 11,-3 23,-5 36,-5 16,0 30,3 43,8 12,5 22,12 30,20 8,9 14,19 19,32 5,13 8,26 10,40 2,14 3,29 3,47 0,17 -1,33 -3,46 -2,14 -5,27 -10,40 -5,13 -11,23 -19,32 -8,9 -18,15 -30,21 -12,5 -27,8 -43,8 -16,0 -30,-3 -43,-8 -12,-5 -22,-12 -30,-21 -8,-9 -14,-19 -19,-32 -5,-13 -8,-26 -10,-40 -2,-14 -3,-29 -3,-46zm40 0c0,13 1,24 2,34 1,10 3,20 6,29 3,9 7,17 11,24 5,6 11,11 18,15 8,4 16,6 26,6 10,0 19,-2 26,-6 8,-4 14,-9 18,-15 5,-6 9,-14 12,-23 3,-9 5,-19 6,-29 1,-10 2,-22 2,-34 0,-13 -1,-24 -2,-34 -1,-10 -3,-20 -6,-29 -3,-9 -7,-17 -12,-24 -5,-6 -11,-11 -18,-15 -8,-4 -16,-6 -26,-6 -10,0 -19,2 -26,6 -8,4 -14,9 -18,15 -5,6 -8,14 -11,24 -3,9 -5,19 -6,29 -1,10 -2,22 -2,34zm225 0c0,-14 1,-27 2,-39 1,-12 4,-24 7,-35 3,-11 7,-21 13,-30 5,-9 12,-16 19,-23 8,-6 17,-11 27,-15 11,-3 23,-5 36,-5 16,0 30,3 43,8 12,5 22,12 30,20 8,9 14,19 19,32 5,13 8,26 10,40 2,14 3,29 3,47 0,17 -1,33 -3,46 -2,14 -5,27 -10,40 -5,13 -11,23 -19,32 -8,9 -18,15 -30,21 -12,5 -27,8 -43,8 -16,0 -30,-3 -43,-8 -12,-5 -22,-12 -30,-21 -8,-9 -14,-19 -19,-32 -5,-13 -8,-26 -10,-40 -2,-14 -3,-29 -3,-46zm40 0c0,13 1,24 2,34 1,10 3,20 6,29 3,9 7,17 11,24 5,6 11,11 18,15 8,4 16,6 26,6 10,0 19,-2 26,-6 8,-4 14,-9 18,-15 5,-6 9,-14 12,-23 3,-9 5,-19 6,-29 1,-10 2,-22 2,-34 0,-13 -1,-24 -2,-34 -1,-10 -3,-20 -6,-29 -3,-9 -7,-17 -12,-24 -5,-6 -11,-11 -18,-15 -8,-4 -16,-6 -26,-6 -10,0 -19,2 -26,6 -8,4 -14,9 -18,15 -5,6 -8,14 -11,24 -3,9 -5,19 -6,29 -1,10 -2,22 -2,34z"/>
  <path class="fil18" d="M7830 17079l36 0 59 200 59 -200 34 0 -76 259 -36 0 -76 -259zm229 35c-5,-4 -7,-10 -7,-16 0,-6 2,-12 7,-16 5,-4 10,-6 17,-6 7,0 12,2 17,6 5,4 7,10 7,16 0,6 -2,12 -7,16 -5,4 -10,6 -17,6 -6,0 -12,-2 -17,-6zm-1 224l0 -175 34 0 0 175 -34 0zm80 -88c0,-27 9,-49 26,-66 17,-17 39,-25 64,-25 25,0 46,8 63,25 16,17 25,39 25,66 0,7 0,11 0,13l-142 0c2,15 8,26 19,35 10,9 23,13 38,13 11,0 20,-2 30,-7 9,-5 16,-11 21,-20 3,1 9,3 16,6 7,3 12,4 14,5 -7,15 -18,26 -33,34 -15,8 -30,12 -48,12 -25,0 -47,-9 -64,-25 -17,-17 -26,-39 -26,-66zm34 -13l109 0c-2,-15 -8,-26 -17,-34 -10,-8 -22,-13 -36,-13 -15,0 -27,4 -37,13 -10,8 -16,20 -18,34zm162 -74l37 0 44 123 44 -123 33 0 44 123 44 -123 37 0 -65 175 -28 0 -48 -129 -46 129 -28 0 -67 -175z"/>
  <path class="fil19 str1" d="M7576 16905l1298 0c79,0 144,65 144,144l0 319c0,79 -65,144 -144,144l-1298 0c-79,0 -144,-65 -144,-144l0 -319c0,-79 65,-144 144,-144z"/>
  <rect class="fil16" x="2107" y="10677" width="6876" height="29"/>
  <g>
   <path class="fil20 str2" d="M2241 10412c62,-65 156,-170 156,-170l325 116 161 -249 617 5 312 -292c0,0 409,578 470,502 61,-76 211,-758 211,-758 0,0 226,-318 250,-275 24,43 136,193 136,193l152 53 329 -59 237 201 299 99 365 -684 266 309 227 225 433 126 356 161 281 -108 194 -278 110 -282 97 -205 207 -173 270 -142 146 -61"/>
   <path class="fil20 str3" d="M2241 10412l103 -16 115 -76 94 -76c0,0 -8,-24 45,-55 52,-31 163,-126 163,-126l163 -110 202 -94 150 -8 102 84 144 10 134 -42 184 -66 186 -170 105 -89c0,0 76,60 105,73 29,13 110,68 110,68 0,0 51,53 91,94 40,40 85,132 103,153 18,21 118,123 126,147 8,24 26,118 45,150 18,31 50,115 55,131 5,16 29,71 37,84 8,13 108,16 108,16 0,0 173,26 199,26 26,0 121,-16 121,-16l215 0c0,0 121,42 152,21 31,-21 126,-26 163,-84 37,-58 79,-105 89,-136 10,-31 0,-26 58,-115 58,-89 126,-152 126,-152 0,0 37,-10 73,-89 37,-79 152,-152 163,-226 10,-73 52,-282 121,-341 69,-59 54,23 69,-59 15,-82 57,-156 57,-156 0,0 42,-63 110,-110 68,-47 42,-21 131,-94 89,-73 73,-94 121,-100 47,-5 42,-5 105,-26 63,-21 73,-58 168,-63 94,-5 205,-47 357,-63 152,-16 142,-5 241,-26 100,-21 94,-42 210,-52 115,-10 205,-42 304,-63 100,-21 47,-10 136,-37 89,-26 121,-73 147,-84 26,-10 31,-26 68,-79 37,-52 58,-94 58,-94 0,0 63,-63 89,-79"/>
  </g>
 </g>
</svg>
