<?xml version="1.0" encoding="UTF-8"?>
<!DOCTYPE svg PUBLIC "-//W3C//DTD SVG 1.1//EN" "http://www.w3.org/Graphics/SVG/1.1/DTD/svg11.dtd">
<!-- Creator: CorelDRAW X6 -->
<svg xmlns="http://www.w3.org/2000/svg" xml:space="preserve" width="98.68mm" height="201.174mm" version="1.1" style="shape-rendering:geometricPrecision; text-rendering:geometricPrecision; image-rendering:optimizeQuality; fill-rule:evenodd; clip-rule:evenodd"
viewBox="0 0 9868 20117"
 xmlns:xlink="http://www.w3.org/1999/xlink">
 <defs>
  <style type="text/css">
   <![CDATA[
    .str0 {stroke:#D1D0C9;stroke-width:20}
    .str1 {stroke:#C834F7;stroke-width:20}
    .fil10 {fill:#D1D0C9}
    .fil4 {fill:#C834F7}
    .fil9 {fill:#13ECAB}
    .fil8 {fill:#4C57FF}
    .fil1 {fill:#FDE89E}
    .fil0 {fill:white}
    .fil6 {fill:#4C565D;fill-rule:nonzero}
    .fil7 {fill:#D1D0C9;fill-rule:nonzero}
    .fil3 {fill:#C834F7;fill-rule:nonzero}
    .fil5 {fill:#FDE89E;fill-rule:nonzero}
    .fil2 {fill:#13ECAB;fill-opacity:0.6}
   ]]>
  </style>
     <clipPath id="id0">
      <path d="M216 16753l9592 0 -36 2940 -9592 0 36 -2940z"/>
     </clipPath>
 </defs>
 <g id="Layer_x0020_1">
  <metadata id="CorelCorpID_0Corel-Layer"/>
  <path class="fil0" d="M1472 0l6924 0c810,0 1472,662 1472,1472l0 17173c0,810 -662,1472 -1472,1472l-6924 0c-810,0 -1472,-662 -1472,-1472l0 -17173c0,-810 662,-1472 1472,-1472z"/>
  <g id="_497108584">
   <rect class="fil1" x="1241" y="6620" width="3575" height="2729" rx="222" ry="222"/>
   <rect class="fil1" x="1241" y="9676" width="3575" height="2729" rx="222" ry="222"/>
   <rect class="fil1" x="5043" y="6620" width="3575" height="2729" rx="222" ry="222"/>
   <rect class="fil1" x="5043" y="9676" width="3575" height="2729" rx="222" ry="222"/>
   <path class="fil2" d="M1596 5398l1468 0c207,0 377,198 377,441l0 0c0,243 -170,441 -377,441l-1468 0c-207,0 -377,-198 -377,-441l0 0c0,-243 170,-441 377,-441z"/>
   <path class="fil2" d="M4174 5398l1468 0c207,0 377,198 377,441l0 0c0,243 -170,441 -377,441l-1468 0c-207,0 -377,-198 -377,-441l0 0c0,-243 170,-441 377,-441z"/>
   <path class="fil2" d="M6794 5398l1469 0c207,0 376,198 376,441l0 0c0,243 -169,441 -376,441l-1469 0c-206,0 -376,-198 -376,-441l0 0c0,-243 170,-441 376,-441z"/>
   <g>
    <path class="fil3" d="M3658 7307l32 -38 -36 5 0 -1 1 -3 1 -4 0 -5 0 -6 -2 -7 -1 -8 -3 -8 -3 -9 -4 -8 -4 -9 -5 -9 -6 -8 -6 -9 -7 -7 -7 -8 -7 -7 -8 -6 -8 -5 -8 -5 -8 -4 -9 -3 -9 -2 -9 -1 -9 0 -9 1 -10 2 -10 4 -11 5 -11 6 -11 9 -12 10 -34 -35 15 -13 15 -12 15 -9 15 -7 16 -5 15 -4 15 -1 15 0 14 1 14 4 13 4 12 6 12 7 12 8 10 8 10 9 9 10 9 10 7 11 8 10 6 11 6 12 5 11 4 11 3 11 3 11 1 11 1 11 0 11 -2 10 -3 10 -5 10 -37 6zm37 -6l-16 23 -21 -17 37 -6zm-32 -54l27 22 -32 38 -26 -23 -3 -2 34 -35zm-31 37l-2 -1 -1 -1 3 2zm-23 -20l31 -39 0 0 1 1 1 1 1 1 1 0 1 1 1 1 0 1 1 0 1 1 1 1 1 0 1 1 0 1 1 0 1 1 1 1 0 0 1 1 1 1 1 0 0 1 1 1 1 1 0 0 1 1 1 1 1 1 1 1 0 0 1 1 1 1 1 1 -37 33 -1 -1 0 0 -1 -1 0 -1 -1 -1 -1 0 0 -1 -1 0 0 -1 -1 0 0 -1 -1 0 0 -1 -1 0 0 -1 -1 0 0 -1 -1 0 0 0 -1 -1 0 0 -1 -1 -1 0 0 -1 -1 -1 -1 0 0 -1 -1 0 -1 -1 -1 -1 -1 0 -1 -1 0 0zm-122 47l-44 -22 0 0 4 -7 4 -7 4 -7 4 -7 4 -6 5 -7 4 -6 5 -6 5 -5 5 -5 5 -5 6 -5 5 -4 6 -4 6 -4 7 -3 6 -3 7 -2 7 -2 8 -1 7 -1 8 1 7 0 8 2 7 1 8 3 7 3 8 4 7 4 8 4 8 6 7 5 -31 39 -5 -5 -6 -3 -5 -4 -6 -3 -4 -2 -5 -2 -4 -1 -4 -1 -4 -1 -4 0 -4 0 -3 0 -3 0 -3 1 -4 1 -3 2 -3 1 -4 2 -3 2 -3 3 -4 3 -3 3 -4 4 -3 4 -4 4 -3 5 -4 5 -3 5 -4 6 -3 6 -4 6 -3 6 0 0zm-100 115l-9 -49 0 0 4 -1 3 0 3 -1 3 -1 2 -2 2 -1 3 -1 2 -2 2 -1 2 -2 2 -2 1 -2 2 -2 2 -3 2 -2 1 -3 2 -3 2 -3 1 -3 2 -4 2 -3 1 -4 2 -4 2 -4 1 -4 2 -4 2 -4 2 -4 2 -5 2 -4 2 -4 2 -5 44 22 -2 4 -2 4 -1 4 -2 4 -2 4 -2 4 -1 4 -2 4 -2 4 -2 4 -2 4 -2 4 -2 5 -2 4 -2 4 -3 4 -2 4 -3 5 -3 4 -3 4 -4 3 -3 4 -4 4 -4 3 -5 3 -5 3 -5 3 -5 3 -5 2 -6 2 -6 1 -6 2 0 0zm-197 -33l48 -8 -13 -18 -1 0 1 0 2 1 2 0 4 1 4 0 4 1 5 1 6 1 5 0 6 1 7 0 6 1 7 1 6 0 7 1 7 0 7 0 6 1 7 0 7 0 6 1 6 0 6 0 5 0 6 0 4 0 5 0 3 0 3 0 3 -1 1 0 9 49 -4 0 -5 1 -4 0 -5 0 -5 0 -5 0 -6 0 -6 0 -6 0 -7 0 -6 0 -7 -1 -7 0 -7 0 -7 -1 -7 0 -7 -1 -7 0 -7 -1 -7 -1 -7 0 -6 -1 -6 -1 -6 0 -6 -1 -5 -1 -5 -1 -4 -1 -5 -1 -4 -1 -4 -1 -5 -2 -12 -18zm12 18l-10 -6 -2 -12 12 18zm17 -71l35 34 -1 2 -2 1 -2 2 -2 1 -1 1 -2 1 -1 1 -2 1 -1 1 -1 0 -1 1 -1 1 -1 0 0 1 -1 0 0 0 0 0 0 0 1 0 0 -1 0 0 1 -1 0 -1 0 0 1 -1 0 -1 0 0 0 0 0 0 0 0 0 1 0 0 0 1 -48 8 -1 -2 0 -3 0 -3 0 -3 0 -3 0 -3 1 -3 0 -3 1 -3 1 -2 2 -3 1 -2 2 -3 2 -2 1 -2 2 -1 2 -2 1 -1 2 -1 1 -1 2 -1 1 -1 1 -1 1 -1 1 0 1 -1 2 -1 0 0 1 -1 1 0 1 -1 1 -1 -2 2zm35 34l0 1 -1 1 1 -2zm205 -205l-205 205 -35 -34 205 -206 1 0 34 35zm-35 -35l0 0 1 0 -1 0zm-132 303l-9 49 0 0 -3 -1 -3 -1 -3 0 -2 -1 -3 -1 -3 -1 -2 0 -3 -1 -3 -1 -2 -1 -2 0 -3 -1 -2 -1 -2 0 -2 -1 -2 0 -1 0 -1 0 -1 0 0 0 0 0 0 0 1 -1 1 0 2 -1 2 -2 1 -1 1 -2 1 -2 0 0 0 -1 0 1 -49 0 0 -5 1 -5 1 -5 2 -5 3 -5 4 -5 4 -3 5 -3 4 -2 5 -1 4 -1 4 0 4 -1 4 1 3 0 4 1 3 0 3 1 3 1 3 0 3 1 3 1 3 1 2 1 3 1 3 0 2 1 2 1 2 0 2 1 2 0 1 0 0 0zm77 4l2 49 0 0 -3 0 -2 0 -3 0 -2 0 -3 0 -2 0 -3 0 -3 0 -3 0 -2 0 -3 0 -3 0 -3 0 -3 0 -3 0 -3 0 -3 0 -3 -1 -3 0 -3 0 -3 0 -2 0 -3 0 -3 -1 -3 0 -3 0 -2 0 -3 -1 -2 0 -3 0 -2 -1 -3 0 9 -49 1 1 2 0 2 0 2 0 2 1 3 0 2 0 2 0 3 1 2 0 3 0 2 0 3 0 3 0 2 0 3 1 3 0 2 0 3 0 3 0 2 0 3 0 3 0 2 0 3 0 3 0 2 0 2 0 3 0 2 0 2 0 2 0 0 0zm95 -47l42 26 0 0 -3 4 -3 4 -2 3 -3 4 -3 3 -3 4 -4 3 -3 3 -4 4 -3 3 -4 2 -4 3 -4 3 -4 3 -4 2 -4 2 -5 3 -4 2 -5 2 -4 1 -5 2 -5 2 -5 1 -5 1 -5 2 -5 1 -5 1 -5 0 -6 1 -5 0 -6 1 -5 0 -2 -49 5 0 4 -1 4 0 4 0 4 -1 4 -1 4 0 4 -1 3 -1 4 -1 3 -1 3 -2 4 -1 3 -1 3 -2 3 -1 3 -2 2 -1 3 -2 3 -2 2 -2 3 -2 2 -2 2 -2 3 -2 2 -2 2 -2 2 -3 2 -2 2 -2 1 -3 2 -2 0 0zm114 -136l-16 46 0 0 1 1 2 0 1 0 1 -1 1 0 -1 0 -1 1 -1 2 -2 1 -2 3 -2 3 -2 3 -2 4 -2 4 -3 4 -2 5 -3 5 -2 5 -3 5 -2 6 -3 5 -2 6 -3 5 -2 6 -3 6 -3 5 -2 6 -3 5 -3 6 -3 5 -2 5 -3 5 -42 -26 2 -4 2 -4 3 -4 2 -5 3 -5 2 -5 3 -5 2 -6 3 -5 2 -6 3 -5 2 -6 3 -6 2 -5 3 -6 3 -5 3 -6 2 -5 3 -5 3 -5 3 -5 4 -4 3 -5 4 -4 4 -4 5 -4 5 -3 6 -3 6 -2 8 -1 7 0 8 2 0 0zm-16 46l0 0 3 2 -3 -2zm48 -22l-34 37 0 0 0 -1 0 0 0 0 -1 0 0 -1 -1 -1 -1 0 0 -1 -1 0 -1 -1 -1 -1 -1 -1 -1 -1 -1 0 -1 -1 -1 -1 -1 -1 0 -1 -1 0 -1 -1 -1 -1 -1 0 -1 -1 0 -1 -1 0 0 0 -1 -1 0 0 0 0 1 0 0 1 4 1 16 -46 3 1 2 1 1 1 2 1 1 1 0 0 1 1 1 1 1 1 1 0 1 1 1 1 1 1 1 1 1 1 1 1 1 1 2 0 0 1 1 1 1 1 1 1 1 1 1 0 1 1 1 1 0 0 1 1 0 0 1 1 0 0 1 0 0 0zm8 123l-35 -35 0 0 5 -5 4 -4 4 -4 4 -3 4 -3 3 -3 2 -3 3 -2 1 -2 2 -1 0 -1 1 0 -1 1 -1 2 0 2 -1 3 1 4 1 2 0 1 0 0 0 0 -1 -2 -2 -1 -2 -2 -3 -3 -3 -2 -3 -4 -4 -3 -5 -4 -5 -4 -5 -5 -6 -5 34 -37 5 5 5 5 5 4 4 4 4 3 4 4 4 3 3 3 3 3 3 3 2 3 3 3 3 4 2 5 2 5 1 7 -1 6 -1 6 -3 5 -2 4 -3 3 -2 3 -3 3 -2 3 -3 2 -3 3 -3 3 -4 3 -3 3 -4 4 -4 3 -4 5 0 0zm-35 -35l0 0 0 0 0 0zm-153 157l153 -157 35 35 -153 156 0 0 -35 -34zm35 34l0 0 0 0 0 0zm-192 189l-35 -35 -1 1 6 -6 5 -6 6 -5 6 -6 6 -6 6 -6 6 -6 6 -7 6 -6 6 -6 7 -6 6 -6 7 -6 6 -7 6 -6 7 -6 6 -6 7 -6 6 -7 6 -6 7 -6 6 -6 6 -6 6 -5 6 -6 6 -6 6 -6 6 -5 5 -6 6 -5 5 -5 5 -6 35 35 -5 5 -5 6 -6 5 -6 6 -6 6 -5 5 -6 6 -7 6 -6 6 -6 6 -6 6 -7 6 -6 6 -6 6 -7 6 -6 6 -7 7 -6 6 -6 6 -7 6 -6 6 -6 6 -6 6 -7 6 -6 6 -6 6 -5 6 -6 6 -6 6 -5 6 -6 5 -5 6 0 0zm0 0l0 0 0 0 0 0zm-496 427l461 -462 35 35 -461 462 -36 -34 1 -1zm-1 1l1 -1 0 0 -1 1zm-40 108l-35 -34 0 0 3 -3 2 -2 3 -3 2 -2 2 -3 3 -2 2 -2 3 -3 2 -2 2 -2 3 -3 2 -2 2 -2 3 -2 2 -3 2 -2 3 -2 2 -2 2 -3 3 -2 2 -2 2 -2 3 -3 2 -2 2 -2 3 -2 2 -3 2 -2 3 -2 2 -3 2 -2 2 -2 36 34 -3 2 -2 3 -2 2 -3 3 -2 2 -3 3 -2 2 -3 2 -2 3 -2 2 -3 2 -2 3 -2 2 -3 2 -2 2 -2 3 -3 2 -2 2 -2 2 -3 3 -2 2 -2 2 -3 2 -2 3 -2 2 -3 2 -2 2 -2 3 -3 2 -2 2 -2 3 -3 2 0 0zm0 0l0 0 0 0 0 0zm-150 82l115 -116 35 34 -116 116 0 1 -34 -35zm34 34l0 1 0 0 0 -1zm-229 188l35 -35 -26 -6 0 0 2 -1 2 -2 4 -3 5 -3 5 -4 5 -5 6 -6 7 -6 6 -6 7 -7 8 -7 7 -7 7 -7 8 -8 8 -8 7 -7 8 -8 7 -8 8 -8 7 -7 8 -8 7 -7 6 -7 7 -7 6 -6 6 -6 5 -5 5 -5 4 -5 4 -4 4 -4 34 36 -3 3 -4 4 -4 4 -5 5 -5 5 -6 6 -6 7 -6 6 -7 7 -7 7 -7 8 -8 8 -7 7 -8 8 -8 8 -7 8 -8 8 -8 8 -8 7 -7 8 -7 7 -8 7 -7 6 -6 7 -7 5 -6 6 -6 5 -5 4 -6 4 -5 4 -5 3 -6 3 -26 -6zm26 6l-15 5 -11 -11 26 6zm-8 -58l17 17 -35 35 -17 -18 -2 -2 37 -32zm-35 34l-1 -1 -1 -1 2 2zm-15 -20l41 -28 0 0 0 1 1 1 0 0 1 1 0 1 1 0 0 1 0 0 1 1 0 0 0 1 1 0 0 1 0 0 1 1 0 0 0 1 1 0 0 0 0 1 0 0 1 1 0 0 0 0 1 1 0 0 0 1 1 0 0 1 1 0 0 1 0 0 -39 30 0 -1 -1 0 0 -1 -1 0 0 -1 -1 -1 0 0 0 0 -1 -1 0 -1 0 0 -1 -1 0 0 -1 -1 0 0 0 -1 -1 0 0 -1 0 0 -1 -1 0 0 0 -1 -1 0 0 -1 -1 0 0 -1 0 -1 -1 0 0 -1 -1 0 0 -1 -1 -1 0 0zm0 0l0 0 1 0 -1 0zm13 -96l26 41 0 0 -2 2 -1 1 -2 1 -1 0 -2 1 -1 1 -1 1 0 0 -1 1 0 0 0 0 0 0 0 0 0 -1 1 0 0 -1 0 -1 0 0 0 0 0 0 0 0 0 0 0 1 1 2 0 1 1 2 1 2 1 2 2 3 2 3 2 3 2 3 -41 28 -2 -4 -3 -4 -3 -4 -2 -4 -2 -4 -2 -4 -1 -3 -2 -4 -1 -4 -1 -4 0 -4 -1 -3 0 -4 0 -4 1 -4 1 -4 1 -4 1 -4 2 -3 2 -3 2 -3 3 -2 2 -2 2 -2 2 -2 2 -2 3 -1 1 -2 3 -1 2 -1 1 -1 2 -1 0 0zm140 -181l48 8 0 0 -2 12 -2 11 -2 11 -2 10 -3 10 -3 9 -3 9 -3 9 -3 8 -4 8 -4 7 -4 8 -4 6 -5 7 -4 6 -5 6 -6 6 -5 5 -6 5 -6 5 -6 5 -6 4 -6 5 -7 5 -7 4 -7 4 -7 5 -8 5 -7 4 -8 5 -8 5 -9 5 -26 -41 9 -6 8 -5 8 -5 8 -4 7 -5 7 -4 6 -4 7 -4 6 -4 5 -4 5 -4 5 -4 5 -4 4 -4 4 -4 4 -4 3 -4 4 -4 3 -5 3 -5 3 -5 3 -6 3 -6 2 -6 3 -7 2 -7 3 -8 2 -8 2 -10 2 -9 2 -11 2 -11 0 0zm64 -178l9 48 0 0 -7 1 -6 2 -6 1 -4 2 -3 1 -2 1 -1 1 -1 0 0 0 0 0 1 0 0 0 -1 0 0 2 0 2 1 3 0 4 1 4 0 5 1 5 1 6 1 7 1 7 1 7 1 8 0 8 1 9 0 10 0 9 -1 11 -1 10 -2 12 -48 -8 1 -9 1 -9 0 -9 1 -8 0 -8 -1 -7 0 -7 -1 -7 -1 -6 0 -6 -1 -6 -1 -6 -1 -5 -1 -6 -1 -5 0 -5 -1 -6 0 -5 1 -6 1 -7 2 -6 2 -6 4 -6 5 -5 6 -5 5 -4 7 -3 6 -2 7 -3 8 -2 8 -2 8 -1 0 0zm72 -16l5 49 0 0 -3 0 -2 0 -3 1 -2 0 -2 0 -2 1 -2 0 -2 0 -2 1 -2 0 -2 1 -2 0 -2 1 -1 0 -2 1 -2 0 -2 1 -2 0 -1 1 -2 0 -2 1 -2 0 -2 1 -2 1 -3 0 -2 1 -2 0 -2 1 -3 0 -3 1 -2 0 -3 1 -9 -48 2 -1 3 0 2 -1 1 0 2 -1 2 0 2 0 2 -1 2 0 1 -1 2 0 2 -1 2 0 2 -1 2 -1 1 0 2 -1 3 0 2 -1 2 0 2 -1 3 -1 2 0 2 -1 3 0 3 -1 3 0 2 -1 3 0 3 -1 4 0 3 0 0 0zm116 -41l31 38 0 0 -4 3 -3 2 -3 3 -4 2 -4 2 -4 2 -4 2 -4 2 -4 2 -5 2 -4 2 -4 2 -5 2 -5 2 -4 2 -5 1 -5 2 -5 2 -5 1 -5 2 -4 1 -5 1 -5 2 -5 1 -5 1 -5 1 -4 1 -5 1 -5 1 -4 0 -5 1 -4 1 -5 -49 3 -1 4 0 3 -1 4 0 4 -1 4 -1 4 -1 4 -1 5 -1 4 -1 4 -1 4 -2 5 -1 4 -1 4 -2 5 -1 4 -2 4 -1 4 -2 4 -1 4 -2 3 -2 4 -1 4 -2 3 -2 3 -1 3 -2 3 -1 2 -2 2 -1 2 -2 2 -1 0 0zm63 -171l49 3 0 0 -1 5 0 6 -1 6 -1 6 -1 6 -1 6 -1 7 -1 7 -2 6 -1 8 -2 7 -2 7 -2 7 -2 7 -2 8 -2 7 -3 7 -2 8 -3 7 -3 7 -3 7 -3 7 -4 6 -3 7 -4 6 -4 7 -4 5 -4 6 -4 6 -5 5 -5 5 -5 4 -31 -38 3 -2 3 -3 2 -3 3 -4 3 -4 3 -4 3 -5 3 -5 3 -5 2 -6 3 -5 3 -6 2 -6 3 -7 2 -6 2 -7 2 -6 2 -7 2 -6 2 -7 1 -6 2 -7 1 -6 2 -6 1 -6 1 -6 1 -6 1 -5 0 -5 1 -5 0 -5 1 -4 0 0zm37 -84l22 44 0 0 -2 1 -1 0 -1 1 0 0 -1 1 0 0 -1 0 0 1 0 0 0 0 -1 1 0 0 0 0 0 1 0 1 -1 1 0 1 0 1 0 1 -1 2 0 1 0 2 0 2 0 2 0 3 -1 2 0 3 0 3 0 2 0 3 0 4 0 3 -49 -3 0 -3 0 -3 0 -3 0 -3 0 -2 0 -3 0 -3 1 -3 0 -2 0 -3 0 -3 1 -3 0 -2 1 -3 0 -3 1 -3 1 -3 1 -3 1 -3 1 -3 2 -3 1 -2 2 -3 2 -3 3 -2 2 -3 3 -2 2 -2 3 -2 3 -2 3 -2 3 -1 0 0zm324 -173l46 18 0 0 -9 19 -9 19 -10 17 -11 16 -12 14 -12 13 -12 13 -13 11 -14 10 -14 9 -14 8 -14 7 -14 6 -14 6 -14 4 -14 5 -14 3 -14 3 -13 3 -13 2 -12 1 -12 2 -11 1 -11 1 -10 1 -9 1 -8 1 -7 0 -6 1 -5 1 -3 1 0 0 -22 -44 8 -3 7 -2 7 -1 8 -1 8 -1 9 -1 9 -1 10 -1 10 -1 11 -1 11 -1 11 -2 12 -2 11 -2 13 -3 12 -3 12 -3 12 -5 12 -4 12 -6 12 -6 12 -6 11 -8 11 -8 11 -9 10 -10 10 -11 9 -12 9 -13 9 -14 8 -15 7 -17 0 0zm12 -146l49 0 0 0 0 6 0 7 0 5 0 6 1 5 0 6 0 5 0 4 1 5 0 5 0 4 1 4 0 5 0 4 0 4 0 5 0 4 0 5 -1 4 0 5 -1 5 0 4 -1 5 -1 5 -1 6 -2 5 -1 5 -2 6 -2 6 -2 6 -2 6 -2 7 -46 -18 2 -6 2 -6 2 -5 1 -5 2 -4 1 -5 1 -4 1 -4 1 -4 0 -3 1 -4 0 -3 0 -3 1 -4 0 -3 0 -4 0 -3 0 -4 0 -3 -1 -4 0 -4 0 -5 0 -4 -1 -5 0 -5 0 -5 0 -5 -1 -6 0 -6 0 -6 0 -7 0 -7 0 0zm-88 233l-32 -38 0 0 3 -2 2 -3 3 -3 3 -3 3 -3 3 -4 3 -4 3 -4 3 -5 3 -5 3 -4 3 -5 3 -6 3 -5 3 -5 2 -6 3 -5 2 -6 2 -5 2 -6 2 -5 1 -6 2 -5 1 -5 1 -5 1 -5 0 -5 1 -5 0 -4 0 -5 -1 -3 0 -4 48 -9 1 6 1 7 0 7 0 7 -1 7 0 7 -1 7 -2 7 -1 7 -2 7 -2 7 -2 6 -3 7 -2 7 -3 6 -3 7 -3 6 -3 7 -3 6 -4 6 -3 6 -4 6 -4 5 -3 6 -4 5 -4 5 -4 5 -4 5 -4 4 -4 4 -4 4 -4 4 0 0zm-199 60l-5 -49 1 0 5 0 6 0 6 -1 5 0 6 -1 6 0 5 0 6 -1 5 0 5 -1 6 0 5 -1 5 -1 6 0 5 -1 5 -1 5 -1 5 -2 6 -1 5 -2 5 -1 5 -2 5 -2 5 -3 6 -2 5 -3 5 -3 6 -3 5 -4 5 -4 6 -4 5 -4 32 38 -7 5 -7 5 -7 5 -6 4 -7 4 -7 4 -6 4 -7 3 -6 3 -7 3 -7 2 -6 2 -7 2 -6 2 -7 1 -6 2 -6 1 -6 1 -7 1 -6 1 -6 1 -6 0 -6 1 -6 0 -5 1 -6 0 -6 1 -5 0 -6 0 -6 1 -5 0 -5 0 0 0zm-85 -21l46 18 -20 -33 2 0 1 0 2 0 1 0 1 0 1 0 1 0 1 0 0 0 1 0 0 -1 1 0 1 0 1 0 1 -1 1 0 1 -1 1 0 2 -1 2 -1 2 -1 2 0 2 -1 2 -1 3 -1 2 0 3 -1 3 -1 3 0 4 -1 3 0 3 -1 5 49 -3 1 -2 0 -2 0 -1 1 -2 0 -1 0 -2 1 -1 0 -1 0 -1 1 -1 0 -2 1 -1 0 -1 1 -1 0 -2 1 -2 1 -1 0 -2 1 -2 1 -3 1 -2 0 -3 1 -2 0 -3 1 -3 0 -2 0 -3 0 -4 0 -3 0 -3 0 -3 0 -20 -34zm20 34l-32 -4 12 -30 20 34zm25 -86l32 37 0 0 -1 2 -2 1 -2 1 -1 1 -1 2 -2 1 -1 1 -2 1 -1 1 -1 1 -1 1 -1 1 -2 1 -1 1 -1 1 0 0 -1 1 -1 1 -1 1 -1 1 -1 1 0 1 -1 0 -1 1 0 1 -1 1 0 1 -1 1 -1 1 0 2 -1 1 0 1 -46 -18 1 -3 1 -2 1 -3 2 -2 1 -3 1 -2 2 -2 1 -2 2 -2 1 -2 2 -2 1 -2 2 -2 2 -1 1 -2 2 -1 1 -2 2 -1 1 -2 2 -1 1 -1 2 -1 1 -1 2 -1 1 -2 1 -1 2 -1 1 -1 1 -1 1 -1 2 -1 1 -1 0 0zm298 -256l-41 27 31 9 3 -2 -2 1 -3 3 -4 4 -6 6 -6 6 -7 7 -8 7 -8 9 -9 9 -9 9 -10 10 -10 11 -11 10 -10 11 -11 11 -11 12 -11 11 -11 11 -11 11 -11 11 -10 11 -10 10 -10 10 -10 10 -9 9 -8 8 -8 8 -7 7 -7 6 -6 6 -5 4 -32 -37 4 -4 5 -5 7 -6 7 -6 7 -8 9 -8 8 -9 10 -10 10 -9 10 -11 10 -10 11 -11 11 -11 11 -12 11 -11 11 -11 10 -11 11 -11 11 -11 10 -10 10 -10 9 -10 9 -9 8 -8 8 -8 8 -7 6 -7 6 -5 5 -5 4 -4 4 -3 7 -4 30 9zm-30 -9l19 -9 11 18 -30 -9zm50 85l-48 9 0 0 -1 -2 0 -2 -1 -3 0 -2 0 -2 -1 -2 0 -3 0 -2 -1 -2 0 -3 -1 -2 0 -2 0 -3 -1 -2 0 -2 -1 -2 0 -3 -1 -2 0 -2 0 -2 -1 -2 0 -1 -1 -2 0 -2 -1 -1 0 -1 -1 -2 0 -1 0 0 -1 -1 0 0 0 0 41 -27 2 2 1 3 1 2 2 3 0 2 1 2 1 3 1 2 1 3 0 2 1 3 0 2 1 3 1 2 0 3 1 2 0 3 1 2 0 3 0 2 1 3 0 2 1 3 0 2 0 2 1 3 0 2 1 2 0 2 0 2 1 2 0 2 0 0zm-538 559l-7 -49 0 0 7 -1 7 -2 7 -1 7 -1 6 -2 5 -1 5 -2 5 -2 5 -1 4 -2 4 -2 4 -2 4 -3 3 -2 3 -2 3 -3 2 -3 3 -3 3 -3 2 -3 2 -4 3 -4 2 -5 2 -5 2 -5 2 -5 2 -6 2 -7 2 -7 2 -7 2 -8 1 -8 49 10 -2 9 -2 8 -2 9 -2 8 -3 7 -2 8 -3 7 -3 7 -3 6 -3 7 -3 6 -4 6 -4 5 -4 6 -5 5 -4 5 -5 4 -6 4 -5 4 -6 4 -6 3 -6 3 -6 3 -7 3 -6 2 -7 2 -7 2 -7 2 -8 1 -8 2 -8 1 -8 2 0 0zm-53 13l-9 -49 0 0 2 0 1 -1 2 0 1 0 2 0 1 -1 1 0 2 -1 1 0 2 0 1 -1 2 0 1 -1 2 0 1 0 2 -1 1 0 2 -1 2 0 2 -1 1 0 2 -1 2 0 2 -1 2 0 2 -1 2 0 2 -1 2 0 2 0 3 -1 2 0 7 49 -2 0 -1 0 -2 0 -1 1 -2 0 -1 0 -2 1 -1 0 -2 0 -1 1 -2 0 -1 1 -2 0 -1 0 -2 1 -1 0 -2 1 -1 0 -2 1 -2 0 -1 1 -2 0 -2 1 -2 0 -2 1 -1 0 -2 0 -2 1 -2 0 -2 1 -2 0 -3 1 1 0zm-9 -49l0 0 1 0 -1 0zm-54 -9l35 35 -2 1 -5 4 -4 4 -3 3 -2 2 0 1 0 -1 1 -3 1 -7 -4 -9 -5 -6 -5 -2 -2 -1 0 0 0 0 2 0 2 0 3 -1 3 0 3 -1 3 -1 4 0 3 -1 3 -1 4 -1 3 -1 3 -1 2 -1 3 -1 2 0 1 -1 2 0 3 -1 9 49 2 -1 -1 0 -2 1 -2 0 -2 1 -3 1 -3 1 -4 1 -3 1 -4 1 -4 1 -4 1 -4 1 -5 1 -4 1 -4 1 -4 0 -5 0 -4 0 -6 0 -6 -2 -7 -3 -8 -8 -4 -12 0 -10 3 -7 3 -6 4 -5 4 -4 4 -5 6 -5 6 -5 -2 2zm35 35l-1 1 -1 0 2 -1zm201 -200l-201 200 -35 -35 202 -200 35 34 -1 1zm1 -1l-1 1 0 0 1 -1zm12 -70l11 48 0 0 -1 1 -1 0 -1 0 0 0 -1 1 0 0 -1 0 0 0 -1 1 0 0 -1 0 0 1 0 0 -1 0 0 1 -1 0 0 1 -1 0 0 1 -1 1 -1 1 -1 1 0 1 -1 1 -1 1 -1 1 -1 1 -1 2 -1 1 -2 1 -1 2 -1 1 -36 -33 1 -1 0 -1 1 -1 1 -1 1 -1 1 -1 0 -1 1 -1 1 -1 1 -1 1 -2 1 -1 1 -1 1 -1 2 -2 1 -1 1 -2 2 -1 1 -1 2 -2 2 -1 2 -2 2 -1 2 -1 2 -1 2 -1 2 -1 3 -1 2 -1 3 -1 2 -1 3 -1 0 0zm26 66l-48 -10 0 0 1 -2 0 -2 1 -2 0 -1 1 -2 0 -1 1 -2 0 -2 1 -1 0 -2 1 -1 0 -2 1 -1 0 -1 0 -1 1 -2 0 -1 0 0 0 -1 0 0 0 0 0 0 0 1 1 2 0 3 2 3 3 4 4 4 5 2 5 1 3 0 2 -1 -11 -48 4 0 6 0 6 1 6 3 6 4 3 5 3 5 1 5 0 3 0 3 0 3 0 3 0 2 -1 2 0 3 -1 2 0 2 -1 1 0 2 -1 2 0 2 -1 2 -1 1 0 2 -1 2 0 1 0 1 -1 2 0 1 0 0 -1 1 0 0 0 0zm-4 64l-49 -10 0 0 1 -1 0 -2 0 -1 0 -2 1 -1 0 -2 0 -2 0 -1 0 -2 0 -2 0 -2 0 -2 0 -1 0 -2 0 -2 0 -2 0 -2 0 -2 0 -3 0 -2 0 -2 0 -2 1 -3 0 -2 0 -2 0 -3 0 -2 1 -2 0 -3 0 -2 1 -3 0 -2 48 10 0 2 0 1 0 1 -1 2 0 1 0 2 0 2 0 1 0 2 0 2 0 2 -1 1 0 2 0 2 0 2 0 2 0 2 0 2 0 2 0 2 0 3 0 2 0 2 0 2 0 3 0 2 -1 2 0 3 0 2 0 3 -1 2 0 3 0 0zm-303 315l-50 0 0 0 0 -1 0 -1 0 -2 0 -3 0 -2 -1 -3 0 -3 0 -3 -1 -3 0 -4 -1 -3 0 -4 -1 -3 -1 -4 0 -3 -1 -4 -1 -4 -1 -3 0 -4 -1 -3 -1 -3 -1 -3 0 -3 -1 -3 -1 -3 0 -2 -1 -2 -1 -1 0 -2 0 0 0 0 0 1 41 -28 2 3 1 3 2 3 1 3 1 3 1 3 0 3 1 3 1 3 1 4 1 3 1 4 1 4 1 4 0 4 1 3 1 4 1 4 0 4 1 4 1 4 0 4 1 4 0 3 1 4 0 3 1 4 0 3 0 3 0 3 1 2 0 3 0 0zm-20 106l-46 -17 0 0 1 -3 1 -3 1 -2 1 -3 1 -3 1 -2 1 -3 0 -3 1 -3 1 -3 1 -2 0 -3 1 -3 0 -3 1 -3 1 -2 0 -3 0 -3 1 -3 0 -3 1 -3 0 -2 0 -3 1 -3 0 -3 0 -3 0 -2 0 -3 0 -3 0 -3 0 -2 0 -3 50 0 0 3 0 4 0 3 -1 3 0 3 0 4 0 3 0 3 -1 4 0 3 -1 3 0 4 0 3 -1 3 0 4 -1 3 -1 3 0 4 -1 3 -1 4 -1 3 0 3 -1 4 -1 3 -1 3 -1 4 -1 3 -1 3 -1 4 -1 3 -2 3 -1 3 0 0zm-48 62l-30 -39 0 0 2 -1 1 -1 2 -1 1 -1 1 -1 2 -2 1 -1 1 -1 1 -1 2 -1 1 -2 1 -1 1 -1 1 -1 1 -1 1 -1 1 -2 1 -1 1 -1 1 -1 0 -2 1 -1 1 -1 1 -2 1 -1 0 -1 1 -2 1 -1 0 -2 1 -1 1 -2 0 -1 46 17 -1 3 -1 2 -1 3 -1 2 -1 2 -1 2 -1 3 -1 2 -2 2 -1 2 -1 2 -2 2 -1 2 -2 2 -1 2 -2 2 -1 2 -2 2 -1 2 -2 2 -2 1 -1 2 -2 2 -2 2 -2 1 -1 2 -2 2 -2 1 -2 2 -2 1 -2 2 -2 1 0 0zm-86 167l-41 27 0 0 -8 -13 -7 -12 -6 -13 -4 -11 -4 -12 -3 -11 -1 -11 0 -11 0 -10 2 -10 3 -10 3 -9 4 -8 5 -8 6 -7 6 -7 6 -6 6 -6 7 -5 7 -5 7 -5 7 -5 7 -4 7 -4 7 -4 6 -4 7 -4 6 -4 6 -3 5 -4 5 -3 5 -4 30 39 -6 5 -7 4 -6 5 -7 4 -6 4 -7 3 -7 4 -6 4 -7 4 -6 4 -6 4 -5 4 -6 4 -5 4 -4 4 -4 4 -4 4 -3 4 -3 4 -2 5 -2 4 -1 5 -1 4 0 6 0 6 1 6 1 7 3 8 3 9 5 9 5 10 7 11 0 0zm22 102l-40 -28 0 0 2 -3 1 -2 1 -2 1 -2 1 -1 0 -1 0 0 0 0 0 0 0 0 0 1 0 0 0 0 1 1 -1 0 0 -1 0 -1 -1 -1 -1 -1 -1 -1 -1 -2 -2 -2 -2 -2 -2 -2 -2 -2 -2 -3 -2 -3 -3 -3 -2 -3 -3 -3 -3 -4 -2 -4 41 -27 2 3 2 3 2 2 2 3 2 2 2 2 1 3 2 2 2 2 2 2 2 2 2 2 2 3 2 2 1 3 2 3 2 3 2 3 1 4 1 4 1 4 0 5 0 4 0 4 -1 5 -1 4 -2 4 -1 4 -2 4 -3 3 -2 4 -3 4 0 0zm-56 31l0 -49 0 0 2 0 2 0 2 0 2 0 1 0 1 0 1 0 1 0 0 0 0 0 0 0 0 0 -1 0 -1 1 0 0 -1 0 -1 1 0 0 -1 0 0 1 0 0 0 -1 1 0 0 -1 1 0 0 -1 1 -2 1 -1 1 -1 1 -2 2 -2 1 -2 40 28 -1 2 -1 2 -1 2 -2 1 -1 2 -1 2 -1 1 -1 2 -1 1 -2 2 -1 1 -2 2 -1 1 -2 2 -2 2 -3 1 -2 1 -2 1 -3 1 -2 1 -2 0 -3 1 -2 0 -2 0 -2 0 -1 0 -2 0 -2 0 -2 0 -2 0 -2 0 -2 0 0 0zm-141 -9l10 -48 0 0 5 1 5 1 5 1 4 1 4 0 5 1 4 1 4 0 3 1 4 0 4 0 3 1 4 0 3 0 4 0 3 0 3 0 4 1 4 0 3 0 4 0 4 0 4 0 4 0 4 -1 4 0 4 0 5 0 5 0 5 0 5 0 5 0 0 49 -5 0 -5 0 -5 0 -4 1 -5 0 -4 0 -5 0 -4 0 -4 0 -4 0 -4 0 -4 0 -4 0 -4 0 -4 0 -4 -1 -4 0 -4 0 -4 0 -4 0 -4 -1 -4 0 -4 -1 -5 0 -4 -1 -5 0 -4 -1 -5 -1 -5 -1 -5 -1 -5 -1 -6 -1 0 0zm-105 -140l49 0 0 0 0 3 0 3 1 3 0 4 1 3 1 4 1 4 1 4 2 3 2 4 1 4 2 4 2 4 3 3 2 4 2 3 3 4 3 3 2 3 3 3 3 3 3 3 3 3 3 2 3 2 3 2 2 2 3 1 3 2 3 1 2 0 3 1 -10 48 -6 -1 -5 -2 -6 -2 -5 -3 -6 -2 -5 -3 -4 -4 -5 -3 -5 -4 -4 -3 -5 -5 -4 -4 -4 -4 -3 -5 -4 -4 -4 -5 -3 -5 -3 -5 -3 -5 -3 -5 -3 -5 -2 -6 -3 -5 -2 -5 -2 -6 -1 -5 -2 -6 -1 -5 -1 -6 -1 -6 0 -5 0 -6 0 0zm81 -141l34 35 0 0 -2 3 -3 2 -3 3 -3 3 -3 3 -3 3 -3 3 -3 2 -3 3 -3 3 -3 3 -2 3 -3 3 -3 4 -2 3 -3 3 -2 3 -2 3 -2 4 -2 3 -2 4 -2 3 -2 4 -1 3 -2 4 -1 4 -1 3 -1 4 0 4 -1 4 0 5 0 4 -49 0 0 -7 0 -6 1 -7 1 -6 1 -6 2 -6 2 -6 2 -6 2 -5 3 -5 2 -5 3 -5 3 -5 3 -5 3 -4 3 -5 3 -4 3 -4 4 -4 3 -3 3 -4 4 -4 3 -3 3 -3 3 -3 4 -4 3 -3 3 -2 3 -3 2 -3 3 -2 2 -3 1 0zm-1 0l1 0 0 0 -1 0zm132 -61l-97 96 -34 -35 97 -96 35 34 -1 1zm1 -1l0 0 -1 1 1 -1zm197 -225l-41 28 29 9 4 -2 -1 1 -2 2 -4 3 -5 4 -5 5 -6 6 -6 6 -7 7 -8 8 -8 7 -8 9 -8 8 -8 9 -9 8 -9 9 -9 9 -8 9 -9 8 -8 9 -8 8 -8 8 -7 8 -7 7 -6 6 -6 6 -5 6 -4 4 -4 4 -3 3 -2 2 -1 1 -36 -33 1 -2 2 -2 3 -3 4 -4 5 -5 5 -5 6 -6 6 -7 7 -7 7 -7 8 -8 8 -8 8 -9 9 -9 8 -8 9 -9 9 -9 9 -9 8 -9 9 -8 8 -8 8 -8 7 -8 7 -7 7 -6 6 -6 6 -5 5 -5 4 -4 4 -3 4 -3 8 -4 28 9zm-28 -9l17 -6 11 15 -28 -9z"/>
   </g>
   <g>
    <path class="fil3" d="M4000 7514l-79 0 0 0 0 -6 0 -6 0 -6 0 -6 0 -6 1 -6 0 -5 0 -6 0 -5 0 -6 0 -5 0 -5 0 -5 0 -5 0 -5 -1 -5 0 -4 0 -5 -1 -4 0 -4 -1 -4 -1 -4 -1 -4 -1 -3 -1 -3 -1 -4 -1 -3 -1 -3 -2 -2 -1 -3 -2 -3 -1 -2 63 -47 4 6 4 6 3 6 3 6 3 6 2 6 2 6 2 6 2 6 1 7 1 6 1 6 1 6 1 6 1 6 0 6 0 6 0 6 1 6 0 6 0 6 0 6 0 6 -1 6 0 6 0 5 0 6 0 6 0 5 0 6 0 6 0 5 0 0zm-79 0l0 0 0 0 0 0zm2 1165l-2 -1165 79 0 1 1164 -78 1 0 0zm18 180l-49 -61 0 0 2 -2 3 -2 2 -2 2 -3 2 -2 1 -2 2 -2 2 -3 1 -2 1 -3 1 -2 2 -3 1 -3 1 -3 1 -3 1 -4 1 -3 0 -4 1 -4 1 -4 0 -4 1 -5 0 -4 1 -5 0 -5 0 -5 0 -6 0 -5 1 -6 0 -6 0 -6 0 -6 78 -1 0 7 0 7 0 6 0 6 0 7 0 6 -1 6 0 6 0 6 -1 7 -1 6 0 5 -1 6 -1 6 -2 6 -1 6 -2 6 -1 5 -2 6 -2 6 -3 5 -2 6 -3 5 -3 5 -4 6 -3 5 -4 5 -4 5 -5 4 -4 5 -5 4 -5 4 0 0zm-194 39l0 -79 0 0 6 0 6 0 6 0 6 0 6 0 6 0 6 0 5 0 6 0 5 0 6 0 5 0 5 0 5 -1 5 0 4 -1 5 0 5 -1 4 0 4 -1 4 -1 4 -1 3 -1 4 -1 3 -1 4 -2 3 -1 3 -2 3 -1 2 -2 3 -2 3 -2 49 61 -6 5 -5 4 -6 3 -6 4 -6 3 -6 2 -6 3 -6 2 -7 2 -6 2 -6 2 -6 1 -6 1 -7 1 -6 1 -6 1 -6 0 -6 1 -7 0 -6 1 -6 0 -6 0 -6 0 -6 0 -6 0 -6 0 -7 0 -6 0 -6 0 -6 0 -5 0 -6 0 0 0zm-788 -79l788 0 0 79 -788 0 0 0 0 -79zm-376 80l4 -79 0 0 10 1 10 0 11 0 11 1 11 0 11 0 11 0 12 0 11 0 12 0 12 0 11 0 12 0 12 0 12 0 12 0 12 0 12 -1 12 0 13 0 12 0 12 -1 12 0 12 0 12 0 12 0 12 0 12 -1 11 0 12 0 12 0 11 0 0 79 -11 0 -11 0 -12 0 -11 0 -12 0 -12 0 -12 1 -12 0 -12 0 -12 0 -12 0 -12 1 -12 0 -12 0 -13 0 -12 0 -12 1 -12 0 -12 0 -12 0 -12 0 -12 0 -12 0 -12 0 -12 0 -11 0 -12 0 -11 -1 -11 0 -11 0 -11 -1 -11 0 0 0zm-178 -51l58 -53 0 0 2 3 3 2 2 2 2 2 3 1 2 2 2 1 3 1 2 2 3 1 3 1 3 1 3 0 3 1 4 1 4 0 3 1 4 0 4 1 5 0 4 0 5 0 5 1 5 0 5 0 5 0 6 0 5 0 6 0 6 1 6 0 6 0 -4 79 -6 -1 -5 0 -5 0 -6 0 -5 0 -5 0 -6 0 -5 -1 -6 0 -5 0 -6 0 -5 0 -6 -1 -6 0 -5 -1 -6 -1 -6 -1 -6 -1 -5 -1 -6 -2 -6 -1 -6 -2 -6 -3 -6 -2 -6 -3 -5 -3 -6 -4 -5 -4 -6 -4 -5 -5 -5 -5 -5 -5 0 0zm4 -232l55 55 1 0 -4 4 -4 4 -3 5 -3 4 -2 4 -3 4 -2 4 -2 5 -1 4 -1 4 -1 3 -1 4 -1 4 0 4 0 4 0 4 0 3 0 4 1 4 1 4 1 3 1 4 1 4 2 4 1 4 2 3 2 4 3 4 2 4 3 3 3 4 3 3 -58 53 -5 -6 -5 -5 -5 -7 -4 -6 -4 -6 -4 -7 -3 -7 -4 -7 -2 -7 -3 -7 -2 -7 -2 -8 -2 -7 -1 -8 -1 -8 0 -7 0 -8 0 -8 1 -8 1 -8 2 -8 2 -8 3 -7 3 -8 3 -8 4 -7 4 -8 4 -7 5 -7 6 -8 6 -6 6 -7 1 -1zm-1 1l0 -1 1 0 -1 1zm1111 -1002l-1055 1056 -55 -55 1055 -1056 56 55 -1 0zm1 0l-1 0 2 -2 -1 2zm-4 -108l52 59 -1 0 -1 1 -1 1 -1 1 -2 2 -1 1 -1 1 -2 2 -1 1 -1 1 -2 2 -1 1 -2 2 -1 1 -2 2 -1 2 -2 1 -1 2 -2 1 -1 2 -2 2 -1 1 -2 2 -1 2 -2 1 -2 2 -1 2 -2 2 -2 1 -1 2 -2 2 -2 2 -1 1 -56 -55 1 -1 2 -2 1 -1 1 -2 2 -2 1 -1 2 -2 1 -1 2 -2 1 -2 2 -1 2 -2 1 -1 2 -2 1 -2 2 -2 2 -1 1 -2 2 -2 1 -2 2 -1 2 -2 1 -2 2 -2 2 -1 2 -2 2 -2 1 -2 2 -1 2 -2 2 -2 2 -1 0 0zm48 -45l55 55 0 0 -1 2 -2 1 -2 2 -1 2 -2 1 -1 2 -2 1 -2 2 -1 1 -2 2 -1 1 -2 2 -1 2 -2 1 -2 2 -1 1 -2 2 -1 1 -2 2 -2 1 -1 2 -2 1 -1 2 -2 1 -2 2 -1 1 -2 2 -2 1 -1 2 -2 1 -2 2 -1 1 -52 -59 1 -2 2 -1 1 -1 2 -2 1 -1 2 -1 1 -2 2 -1 1 -1 2 -2 1 -1 2 -1 1 -2 2 -1 1 -2 2 -1 1 -1 1 -2 2 -1 1 -2 2 -1 1 -1 2 -2 1 -1 2 -2 1 -1 2 -2 1 -1 2 -2 1 -1 2 -2 2 -1 0 0zm98 -102l54 58 0 0 -3 3 -3 2 -3 3 -3 3 -3 3 -3 3 -3 3 -3 3 -3 3 -3 3 -3 3 -3 3 -3 3 -2 3 -3 3 -3 3 -3 4 -3 3 -3 3 -3 3 -3 3 -3 4 -3 3 -3 3 -3 3 -4 3 -3 4 -3 3 -3 3 -3 4 -3 3 -4 3 -55 -55 3 -3 3 -4 3 -3 3 -3 3 -3 3 -3 2 -3 3 -3 3 -3 3 -3 3 -4 3 -3 3 -3 3 -3 3 -3 3 -4 3 -3 3 -3 4 -3 3 -3 3 -4 3 -3 3 -3 3 -3 3 -3 3 -4 4 -3 3 -3 3 -3 4 -3 3 -4 3 -3 0 0zm117 -96l32 72 0 0 -3 1 -3 2 -3 1 -3 2 -3 2 -3 2 -3 2 -2 2 -3 2 -3 2 -3 3 -3 2 -3 3 -3 2 -3 3 -3 3 -3 3 -3 3 -3 3 -3 3 -3 3 -3 3 -3 3 -3 3 -3 3 -3 3 -3 3 -3 3 -3 3 -3 3 -3 3 -3 3 -54 -58 3 -2 2 -3 3 -2 3 -3 2 -2 3 -3 3 -3 3 -3 3 -3 3 -3 3 -4 3 -3 3 -3 4 -3 3 -4 4 -3 3 -4 4 -3 4 -3 4 -4 4 -3 4 -3 4 -3 4 -4 4 -3 5 -3 4 -3 5 -3 5 -2 5 -3 5 -3 5 -2 0 0zm190 60l-63 47 0 0 -3 -3 -2 -3 -2 -2 -3 -3 -3 -3 -3 -2 -3 -2 -3 -3 -3 -2 -3 -2 -4 -2 -3 -1 -3 -2 -4 -1 -3 -2 -4 -1 -3 -1 -4 -1 -3 -1 -4 0 -3 -1 -3 0 -3 0 -3 -1 -3 1 -3 0 -3 0 -3 0 -2 1 -2 1 -2 0 -2 1 -32 -72 6 -3 7 -2 6 -1 7 -2 6 -1 6 -1 7 0 6 0 7 0 6 0 7 1 6 1 7 1 6 2 6 1 7 2 6 2 6 3 6 2 6 3 6 3 6 4 6 3 5 4 6 4 5 4 5 5 5 4 5 5 5 5 5 6 4 5 0 0z"/>
   </g>
   <g>
    <path class="fil4" d="M3414 8446c-11,3 -82,78 -68,110 30,65 86,-39 96,-52 34,-45 -4,-67 -28,-58z"/>
    <path id="1" class="fil5" d="M3348 8555l-4 2 0 0 -1 -3 -1 -4 0 -4 0 -4 1 -4 1 -4 2 -4 1 -5 2 -4 2 -5 3 -4 3 -5 3 -5 3 -4 3 -5 3 -4 3 -4 4 -5 3 -4 4 -4 3 -3 3 -4 3 -3 4 -4 3 -3 2 -2 3 -3 2 -2 3 -1 1 -2 2 -1 2 -1 1 5 -1 0 -1 1 -2 1 -2 2 -2 2 -3 2 -2 3 -3 3 -3 3 -4 3 -3 4 -3 3 -3 4 -4 4 -3 4 -3 5 -4 4 -3 4 -3 5 -3 4 -2 5 -3 4 -2 5 -2 4 -1 4 -2 4 -1 4 0 4 0 3 0 4 0 3 1 2 0 0zm92 -53l4 3 0 0 -1 2 -2 2 -1 2 -2 3 -2 3 -2 3 -3 4 -2 4 -3 4 -3 4 -3 4 -3 5 -4 4 -3 4 -3 4 -4 4 -4 3 -3 4 -4 3 -4 2 -4 3 -4 1 -4 2 -3 0 -4 0 -4 0 -4 -2 -4 -2 -3 -3 -4 -4 -3 -5 -3 -6 4 -2 3 6 3 4 3 4 3 2 3 2 3 1 3 1 3 0 3 -1 4 -1 3 -1 4 -2 3 -3 4 -3 3 -3 4 -3 3 -4 4 -4 3 -4 3 -4 3 -4 3 -4 3 -5 3 -4 3 -3 2 -4 2 -4 2 -3 2 -2 2 -3 1 -2 1 -2 0 0zm-25 -54l-1 -5 0 0 2 0 3 -1 2 0 3 0 2 0 3 0 2 0 3 1 3 0 2 1 2 1 3 2 2 1 2 2 2 1 1 2 2 2 1 3 2 2 0 3 1 3 0 3 1 3 -1 3 0 3 -1 4 -1 3 -2 4 -2 4 -2 4 -2 4 -3 4 -4 -3 3 -4 2 -3 3 -4 1 -4 2 -3 1 -4 1 -3 0 -3 0 -2 0 -3 0 -3 -1 -2 -1 -2 -1 -2 -1 -2 -1 -2 -1 -2 -2 -1 -2 -1 -2 -2 -2 -1 -2 -1 -2 0 -2 -1 -2 -1 -3 0 -2 0 -2 0 -2 0 -3 0 -2 1 -2 1 0 0z"/>
   </g>
   <g>
    <path class="fil4" d="M3254 7971c-24,8 -43,45 -57,66 -36,54 11,67 21,65 10,-3 136,-127 36,-131z"/>
    <path id="1" class="fil5" d="M3199 8038l-4 -2 0 0 2 -2 1 -2 1 -2 2 -3 1 -2 2 -2 1 -3 2 -2 1 -3 2 -2 1 -3 2 -2 2 -3 1 -2 2 -3 2 -2 2 -3 2 -2 1 -2 2 -3 2 -2 2 -2 2 -2 2 -2 2 -2 2 -2 3 -1 2 -2 2 -1 2 -1 3 -2 2 0 2 4 -3 1 -2 1 -2 1 -2 1 -2 1 -2 2 -2 1 -2 2 -2 2 -2 2 -1 2 -2 2 -2 2 -2 3 -2 2 -1 2 -2 3 -2 2 -2 3 -1 2 -2 3 -1 2 -2 3 -2 2 -1 3 -2 2 -1 2 -1 3 -2 2 -1 2 -2 2 -1 2 0 0zm19 62l1 4 0 0 -2 0 -1 0 -2 0 -1 0 -2 0 -2 -1 -2 0 -2 -1 -2 0 -2 -1 -3 -1 -2 -2 -2 -1 -2 -1 -2 -2 -2 -2 -1 -2 -2 -2 -1 -3 -1 -2 -1 -3 0 -3 -1 -3 0 -4 1 -3 0 -4 2 -4 1 -4 2 -5 2 -4 3 -5 3 -5 4 2 -3 5 -3 5 -2 4 -2 4 -1 4 -1 4 -1 3 0 3 0 3 0 3 0 3 1 2 1 2 1 2 1 2 2 2 1 2 2 1 2 1 2 2 1 1 2 1 2 0 2 1 2 1 2 0 1 0 2 1 2 0 1 0 1 0 1 0 0 0zm37 -127l-2 -4 1 -1 9 1 8 2 6 2 6 3 4 3 4 4 2 4 1 5 1 6 -1 5 -1 5 -2 6 -2 6 -3 6 -3 6 -4 6 -4 6 -4 6 -4 6 -5 6 -5 5 -4 6 -5 5 -4 4 -5 5 -4 4 -3 3 -4 3 -3 3 -2 2 -2 1 -2 1 -1 -4 0 -1 2 -1 2 -2 3 -2 4 -3 3 -3 4 -4 5 -5 4 -4 5 -5 4 -6 5 -5 4 -6 5 -5 4 -6 4 -6 3 -6 3 -6 3 -6 2 -5 2 -6 1 -5 0 -4 0 -5 -1 -4 -2 -4 -3 -3 -4 -3 -4 -2 -6 -2 -8 -1 -8 -1 1 0zm-2 -4l1 -1 0 0 -1 1z"/>
   </g>
   <g>
    <path class="fil4" d="M3816 8269c-23,14 -77,85 -64,109 7,13 26,19 44,12 10,-5 44,-55 53,-68 29,-44 -8,-69 -33,-53z"/>
    <path id="1" class="fil5" d="M3754 8377l-4 2 0 0 -1 -2 -1 -3 0 -4 0 -3 0 -3 1 -4 1 -4 1 -4 1 -4 2 -4 2 -4 2 -4 2 -5 3 -4 3 -4 2 -4 3 -5 3 -4 3 -4 3 -4 3 -4 3 -4 3 -4 3 -3 3 -3 3 -4 3 -3 3 -2 3 -3 2 -2 3 -2 2 -1 3 3 -2 2 -3 2 -2 2 -3 2 -3 3 -2 2 -3 4 -3 3 -3 3 -3 4 -3 4 -3 4 -3 4 -3 4 -3 4 -3 4 -3 4 -2 4 -3 5 -2 4 -2 4 -2 4 -1 4 -2 4 -1 3 -1 4 -1 3 0 3 0 3 0 3 1 2 1 2 0 0zm41 11l2 4 0 0 -2 0 -2 1 -2 0 -1 1 -2 0 -2 1 -2 0 -1 0 -2 0 -2 0 -2 0 -1 0 -2 0 -2 -1 -1 0 -2 0 -1 -1 -2 0 -1 -1 -2 -1 -1 0 -2 -1 -1 -1 -1 -1 -1 -1 -2 -1 -1 -1 -1 -1 -1 -1 -1 -1 0 -1 -1 -2 4 -2 0 1 1 1 1 1 1 1 1 1 0 1 1 1 1 1 2 0 1 1 1 1 1 0 1 1 2 0 1 1 1 0 2 1 1 0 2 0 1 0 2 1 1 0 2 0 1 0 2 -1 1 0 2 0 2 0 1 -1 2 0 1 -1 2 0 0 0zm52 -68l4 3 0 0 -1 1 -1 2 -2 1 -1 2 -1 2 -2 3 -1 2 -2 2 -2 3 -2 2 -2 3 -1 3 -2 3 -2 2 -2 3 -3 3 -2 3 -2 3 -2 2 -2 3 -2 2 -2 3 -1 2 -2 2 -2 2 -2 2 -1 2 -2 1 -1 2 -2 1 -1 1 -1 1 -2 -4 1 -1 1 -1 1 -1 1 -1 1 -1 2 -2 2 -2 1 -2 2 -2 2 -2 2 -2 2 -3 2 -2 2 -3 2 -3 2 -3 2 -2 2 -3 2 -3 2 -3 2 -2 2 -3 2 -3 1 -2 2 -3 2 -2 1 -2 2 -2 1 -2 1 -2 1 -1 1 -2 0 0zm-30 -50l-3 -3 0 0 3 -2 3 -1 2 -1 3 -1 3 0 2 0 3 0 3 0 2 0 3 1 2 1 3 1 2 1 2 2 2 1 2 2 2 2 2 3 1 2 1 3 1 2 0 3 1 4 0 3 0 3 -1 4 -1 3 -1 4 -2 4 -1 4 -3 4 -2 4 -4 -3 2 -4 3 -3 1 -4 2 -4 1 -3 1 -3 0 -3 0 -3 0 -3 0 -3 0 -2 -1 -3 -1 -2 -1 -2 -2 -2 -1 -2 -2 -1 -1 -2 -2 -1 -2 -1 -2 -1 -2 -1 -3 0 -2 -1 -2 0 -2 0 -3 0 -2 1 -2 0 -3 1 -2 1 -2 1 0 0z"/>
   </g>
   <g>
    <path class="fil4" d="M3046 8479c-16,7 -76,78 -62,107 6,12 19,25 38,16 17,-7 43,-51 55,-67 24,-34 10,-75 -31,-56z"/>
    <path id="1" class="fil5" d="M2986 8585l-4 2 0 0 -2 -3 0 -4 -1 -3 1 -4 0 -4 1 -4 1 -4 1 -4 2 -4 2 -4 2 -4 2 -5 3 -4 2 -4 3 -5 3 -4 3 -4 3 -4 3 -4 3 -4 3 -4 3 -3 3 -4 3 -3 3 -3 3 -3 2 -2 3 -2 2 -2 2 -2 2 -1 2 -1 2 4 -1 1 -2 1 -2 1 -2 2 -3 2 -2 2 -3 3 -3 3 -3 3 -3 3 -3 4 -3 4 -3 3 -3 4 -3 4 -2 5 -3 4 -3 4 -3 4 -2 4 -2 5 -2 4 -2 4 -2 4 -1 4 -1 3 -1 4 0 3 0 4 0 3 1 2 1 3 0 0zm-4 2l0 0 1 2 -1 -2zm40 13l1 4 0 0 -2 1 -1 1 -2 0 -2 1 -2 0 -2 0 -1 0 -2 0 -2 0 -1 0 -2 0 -1 -1 -2 0 -1 -1 -2 -1 -1 0 -1 -1 -2 -1 -1 -1 -1 -1 -1 -1 -1 -1 -1 -1 -1 -1 -1 -1 -1 -1 -1 -1 -1 -2 0 -1 -1 -1 -1 -1 0 -1 4 -2 0 1 1 1 0 1 1 1 1 1 1 1 0 1 1 1 1 1 1 1 1 1 1 1 1 1 1 0 1 1 1 1 1 0 2 1 1 0 1 1 1 0 2 1 1 0 1 0 2 0 1 0 2 0 1 -1 2 0 1 0 2 -1 2 -1 0 0zm53 -66l3 2 0 0 -1 2 -1 1 -1 2 -1 2 -2 2 -1 3 -2 2 -2 2 -1 3 -2 2 -2 3 -1 3 -2 2 -2 3 -2 3 -2 2 -2 3 -2 2 -2 3 -2 2 -2 3 -1 2 -2 2 -2 3 -2 2 -2 1 -2 2 -2 2 -1 1 -2 1 -2 1 -2 1 -1 -4 1 0 1 -1 2 -1 2 -2 1 -1 2 -2 2 -2 1 -1 2 -3 2 -2 2 -2 2 -2 2 -3 2 -2 2 -3 2 -2 1 -3 2 -3 2 -2 2 -3 2 -2 1 -3 2 -3 2 -2 1 -2 2 -3 1 -2 2 -2 1 -2 1 -2 2 -2 1 -1 0 0zm-28 -53l-2 -4 0 0 4 -2 4 -1 3 -1 4 -1 3 0 3 0 3 0 3 1 3 1 2 1 3 1 2 2 2 2 1 2 2 2 1 2 1 3 1 2 0 3 1 3 0 3 0 3 0 3 -1 4 -1 3 -1 3 -1 3 -1 4 -2 3 -1 4 -2 3 -3 3 -3 -2 2 -3 2 -4 1 -3 2 -3 1 -3 1 -3 1 -3 1 -3 0 -3 0 -3 0 -3 0 -3 0 -2 -1 -3 0 -2 -1 -2 -1 -2 -1 -2 -2 -1 -1 -2 -2 -1 -2 -1 -2 -1 -2 -1 -2 0 -3 -1 -3 0 -3 1 -3 0 -3 1 -3 1 -4 2 0 0z"/>
   </g>
   <g>
    <path class="fil4" d="M3657 7915c-51,-2 -46,23 -67,51 0,0 -60,60 -6,74 38,10 42,-22 64,-49 7,-9 18,-22 23,-36 8,-22 -4,-25 -14,-40z"/>
    <path id="1" class="fil5" d="M3592 7968l-4 -3 0 0 2 -3 2 -2 1 -3 2 -2 1 -3 2 -2 1 -3 1 -2 2 -2 1 -3 1 -2 1 -2 1 -2 2 -2 1 -2 2 -2 1 -2 2 -2 2 -2 2 -1 2 -2 2 -1 3 -1 2 -1 3 -1 3 -1 4 0 3 -1 4 0 4 0 4 0 5 0 0 4 -5 0 -4 0 -4 0 -3 1 -4 0 -3 1 -3 0 -2 1 -3 1 -2 1 -2 1 -2 1 -1 2 -2 1 -1 2 -2 2 -1 1 -2 2 -1 2 -1 2 -1 2 -1 2 -2 3 -1 2 -1 2 -1 3 -2 2 -1 3 -2 3 -2 2 -1 3 -2 3 0 0zm-4 -3l0 0 0 0 0 0zm-4 73l-1 4 0 0 -5 -1 -4 -2 -4 -2 -3 -2 -2 -3 -3 -3 -1 -3 -1 -3 -1 -3 0 -3 0 -3 1 -4 1 -3 1 -3 1 -4 2 -3 1 -3 2 -3 2 -3 2 -3 2 -3 2 -3 2 -2 2 -2 1 -3 2 -2 1 -1 2 -2 1 -1 1 -1 0 0 0 0 4 3 -1 0 0 0 -1 1 -1 1 -1 2 -2 1 -1 2 -2 2 -2 3 -2 2 -2 3 -1 2 -2 3 -2 3 -2 3 -1 3 -2 3 -1 3 -1 3 -1 3 0 3 0 3 0 3 0 2 1 3 1 2 2 2 2 2 3 2 3 2 4 2 4 1 0 0zm62 -49l4 3 0 0 -2 2 -2 3 -2 3 -2 2 -1 3 -2 2 -1 3 -2 3 -1 2 -2 2 -2 3 -1 2 -2 2 -1 3 -2 2 -1 2 -2 2 -2 2 -2 1 -2 2 -2 1 -2 1 -2 2 -2 0 -3 1 -3 1 -2 0 -3 0 -3 0 -4 0 -3 -1 -4 -1 1 -4 4 1 3 0 3 1 3 0 2 0 3 -1 2 0 2 -1 2 0 2 -1 2 -2 2 -1 2 -1 1 -2 2 -1 1 -2 2 -2 1 -2 2 -2 1 -2 2 -3 1 -2 2 -2 1 -3 2 -2 1 -3 2 -3 2 -2 2 -3 1 -3 2 -2 2 -3 0 0zm4 3l0 0 0 0 0 0zm19 -38l4 1 0 0 0 2 -1 1 0 1 -1 2 -1 1 0 1 -1 2 -1 1 0 1 -1 2 -1 1 -1 1 0 1 -1 2 -1 1 -1 1 -1 1 -1 1 0 1 -1 2 -1 1 -1 1 -1 1 0 1 -1 1 -1 1 -1 1 0 1 -1 0 -1 1 0 1 -1 1 -4 -3 1 -1 1 0 0 -1 1 -1 1 -1 1 -1 0 -1 1 -1 1 -1 1 -1 0 -1 1 -1 1 -1 1 -1 1 -1 0 -2 1 -1 1 -1 1 -1 1 -1 0 -1 1 -2 1 -1 0 -1 1 -1 1 -2 0 -1 1 -1 1 -1 0 -2 1 -1 0 -1 0 0zm-12 -37l0 -4 2 1 1 1 1 1 1 1 0 2 1 1 1 1 1 1 1 1 1 1 1 1 1 1 1 1 0 1 1 1 1 1 0 1 1 1 1 1 0 1 1 2 0 1 0 1 1 2 0 1 0 2 0 1 -1 2 0 2 0 1 -1 2 0 2 -1 2 -4 -1 1 -2 0 -2 1 -2 0 -1 0 -2 0 -1 0 -1 0 -2 0 -1 0 -1 0 -1 -1 -1 0 -1 0 -1 -1 -1 0 -1 -1 -1 -1 -1 0 0 -1 -1 -1 -1 -1 -1 0 -1 -1 -1 -1 -1 -1 -1 -1 -1 -1 -2 -1 -1 -1 -1 -1 -1 -1 -2 2 1zm0 -4l1 0 1 1 -2 -1z"/>
   </g>
   <g>
    <path class="fil4" d="M3329 8313c38,14 49,-5 67,-34 20,-33 38,-34 29,-85 -45,-6 -39,-14 -80,49 -18,27 -28,34 -16,70z"/>
    <path id="1" class="fil5" d="M3394 8278l4 2 0 0 -2 3 -2 3 -1 2 -2 3 -1 2 -2 3 -1 2 -2 2 -2 2 -1 2 -2 2 -2 2 -1 2 -2 1 -2 2 -2 1 -2 2 -2 1 -2 1 -2 0 -3 1 -2 1 -3 0 -2 0 -3 0 -3 0 -3 0 -3 -1 -3 0 -3 -1 -3 -1 -4 -1 2 -5 3 2 3 1 3 0 3 1 3 0 3 1 2 0 3 0 2 0 2 -1 2 0 2 -1 2 0 2 -1 2 -1 2 -1 1 -2 2 -1 2 -1 1 -2 2 -2 1 -2 2 -2 1 -2 2 -2 1 -2 2 -2 2 -3 1 -2 2 -3 1 -2 2 -3 0 0zm30 -82l1 -4 2 1 1 5 0 4 1 5 0 4 0 3 0 4 0 3 0 3 0 3 -1 3 0 3 -1 2 -1 3 -1 2 -1 2 -1 2 -1 2 -1 2 -2 2 -1 2 -1 2 -2 2 -1 2 -2 3 -2 2 -1 2 -2 2 -2 3 -2 2 -2 3 -1 3 -2 2 -4 -2 2 -3 2 -3 2 -2 2 -3 1 -2 2 -3 2 -2 1 -2 2 -2 2 -2 1 -2 1 -2 2 -2 1 -2 1 -2 1 -2 1 -2 1 -2 1 -2 1 -2 0 -2 1 -3 0 -2 1 -3 0 -3 0 -3 0 -4 0 -3 -1 -4 0 -4 -1 -4 0 -5 1 2zm1 -4l2 0 0 1 -2 -1zm-78 52l-4 -2 0 0 4 -6 3 -5 3 -5 3 -5 3 -4 3 -4 2 -3 3 -4 2 -3 2 -2 2 -2 2 -3 2 -1 2 -2 2 -1 2 -1 1 -1 2 -1 2 -1 3 0 2 0 2 0 2 0 3 0 2 0 3 1 3 0 3 0 3 1 3 0 4 1 4 1 -1 4 -4 -1 -3 0 -4 -1 -3 0 -3 -1 -3 0 -2 0 -3 -1 -2 0 -2 0 -2 0 -2 0 -2 1 -1 0 -2 1 -1 0 -2 1 -2 2 -1 1 -2 2 -2 1 -2 3 -2 2 -2 3 -2 3 -2 4 -3 3 -3 5 -3 4 -3 5 -4 5 -3 6 0 0zm-17 67l-2 5 -1 -2 -1 -3 -1 -4 -1 -3 -1 -3 0 -2 -1 -3 0 -3 0 -2 0 -3 0 -2 0 -2 0 -2 0 -2 1 -2 0 -2 1 -2 0 -2 1 -2 1 -2 1 -2 1 -2 1 -1 1 -2 1 -2 2 -2 1 -2 1 -2 2 -2 1 -2 2 -3 1 -2 2 -2 4 2 -2 2 -2 3 -1 2 -2 2 -1 2 -1 2 -2 2 -1 2 -1 2 -1 2 -1 2 -1 1 -1 2 -1 2 0 1 -1 2 -1 2 0 2 0 1 -1 2 0 2 0 2 0 2 0 3 0 2 1 2 0 3 1 3 0 2 1 3 1 3 1 4 -1 -2zm-2 5l-1 -1 0 -1 1 2z"/>
   </g>
   <path class="fil4" d="M6721 11926c-73,0 -213,-2 -275,-30 -76,-33 -61,-56 -61,-163l0 -1223c-1,-39 7,-66 30,-84 64,-50 107,25 136,55 19,18 34,34 55,54 60,59 120,99 197,140 42,22 121,42 149,74 32,36 46,116 55,168l16 207c0,145 15,286 15,430 0,72 6,168 -23,234 -16,37 -35,60 -63,82 -47,36 -158,56 -231,56zm177 -1276c11,-7 12,-3 47,-27 9,-6 14,-8 21,-13l177 -167c49,-56 123,-36 130,35l-1 1295c1,59 10,91 -38,114 -53,25 -215,47 -260,38 14,-41 108,-33 116,-281 4,-132 -13,-254 -13,-384 0,-63 1,-127 -7,-188 -4,-31 -6,-59 -7,-89 -1,-39 -9,-59 -12,-91 -9,-82 -34,-195 -125,-220 -27,-7 -20,2 -28,-22zm-105 -42c-17,-84 73,-208 202,-208 20,0 42,8 62,13 50,11 10,36 -31,77 -52,52 -113,95 -180,133 -21,12 -38,-2 -53,-15zm-258 -230c38,-4 48,-4 75,-46 14,-22 53,-43 81,-19 21,18 29,57 66,56 34,0 54,-33 82,-40 13,11 24,31 19,56 -12,14 -27,21 -40,34 -11,11 -27,29 -36,42 -14,21 -16,31 -26,52 -11,24 -2,42 -19,58 -17,-1 -42,-27 -57,-39 -18,-16 -35,-30 -54,-48l-71 -78c-14,-14 -13,-6 -20,-28zm222 -63c-10,-13 -13,-23 -27,-37 -36,-34 -84,-20 -89,-29 -11,-21 83,-77 101,-82 34,-9 68,-18 103,-8 66,18 110,38 147,100 11,20 12,18 20,42 3,11 17,37 7,48 -9,9 -22,-2 -53,3 -21,3 -30,8 -54,6 -10,-14 -10,-30 -21,-49 -50,-82 -103,2 -134,6zm-282 2c-97,0 -53,42 -94,71 -34,25 -44,58 -44,102l0 1337c0,40 8,62 32,83 22,21 53,30 75,39 98,38 278,21 383,19l192 6c104,0 304,-21 304,-127l0 -1376c0,-62 -69,-112 -109,-112 -32,0 -44,1 -76,20 -25,14 -21,5 -42,-5 -7,-4 -13,-4 -18,-6 -4,-18 -6,-36 -11,-55 -12,-44 4,-3 -17,-54 -73,-173 -344,-223 -468,-21 -35,57 -17,92 -47,90 -16,0 -30,-11 -60,-11z"/>
   <path class="fil4" d="M6479 10952c0,61 -3,713 2,729 6,21 50,28 50,-18l0 -747c0,-41 -32,-32 -40,-27 -19,11 -12,41 -12,63z"/>
   <path class="fil4" d="M6478 10826c0,35 15,41 46,33 33,-74 -46,-92 -46,-33z"/>
   <path class="fil6" d="M1464 4700l-83 0 0 126 81 0c19,0 33,-5 42,-17 10,-12 15,-27 15,-46 0,-19 -5,-34 -15,-46 -8,-11 -22,-17 -40,-17zm-83 169l0 127 -46 0 0 -339 130 0c33,0 58,10 74,31 17,21 25,45 25,74 0,28 -7,52 -21,72 -14,20 -36,31 -66,33l91 129 -56 0 -88 -127 -43 0z"/>
   <path id="1" class="fil6" d="M1847 4880c0,11 0,16 0,18l-187 0c2,19 11,34 25,46 13,11 29,17 46,17 33,0 56,-12 69,-36 1,0 1,0 2,1 0,0 1,1 3,1 2,1 5,2 8,3 3,1 5,2 7,3l19 7c-10,20 -24,35 -43,45 -19,11 -40,16 -63,16 -33,0 -61,-11 -84,-33 -23,-23 -34,-52 -34,-88 0,-36 11,-64 34,-86 22,-22 50,-33 84,-33 34,0 61,11 82,33 21,22 32,51 32,86zm-67 -62c-13,-11 -29,-17 -47,-17 -19,0 -36,6 -49,17 -14,11 -22,27 -24,45l143 0c-3,-18 -10,-34 -23,-45z"/>
   <path id="2" class="fil6" d="M1920 4778c16,-11 34,-17 56,-17 22,0 40,6 54,17 14,11 22,27 24,48l-43 0c-1,-8 -5,-14 -11,-18 -8,-5 -16,-7 -24,-7 -9,0 -17,2 -23,6 -6,3 -10,8 -12,15 -2,7 -2,13 1,17 3,8 12,13 27,18l33 8c40,10 60,32 60,67 0,21 -9,37 -26,50 -17,13 -38,19 -61,19 -24,0 -44,-7 -61,-20 -18,-14 -26,-32 -27,-54l43 0c2,12 8,21 18,26 10,6 21,9 32,9 12,-1 21,-4 28,-10 6,-5 10,-12 10,-20 1,-8 -1,-15 -7,-20 -6,-4 -13,-8 -23,-10l-32 -7c-22,-6 -38,-15 -49,-27 -10,-12 -14,-27 -12,-46 1,-18 10,-33 25,-44z"/>
   <polygon id="3" class="fil6" points="2182,4682 2182,4766 2230,4766 2230,4806 2182,4806 2182,4996 2137,4996 2137,4806 2096,4806 2096,4766 2137,4766 2137,4682 "/>
   <path id="4" class="fil6" d="M2441 4936c15,-13 22,-32 22,-55 0,-24 -8,-42 -23,-56 -16,-13 -34,-20 -54,-20 -21,0 -39,7 -53,21 -14,14 -21,32 -21,54 0,23 7,41 22,55 14,15 32,22 53,22 21,0 39,-7 54,-21zm67 60l-45 0 0 -35c-7,12 -18,21 -32,29 -15,7 -31,11 -48,11 -32,0 -60,-11 -83,-34 -23,-22 -34,-51 -34,-86 0,-35 11,-64 34,-86 22,-22 50,-34 83,-34 17,0 33,4 48,11 15,7 26,17 32,29l0 -35 45 0 0 230z"/>
   <path id="5" class="fil6" d="M2740 4890l0 -124 45 0 0 230 -45 0 0 -34c-7,12 -16,22 -30,29 -13,7 -27,10 -42,10 -28,0 -50,-9 -65,-27 -16,-18 -23,-43 -23,-75l0 -133 45 0 0 130c0,19 4,34 13,45 9,11 22,16 40,16 18,0 32,-6 44,-17 12,-11 18,-28 18,-50z"/>
   <path id="6" class="fil6" d="M2904 4912l0 84 -45 0 0 -230 45 0 0 52c11,-38 32,-57 63,-57 19,0 32,3 40,9l-7 42c-10,-5 -21,-8 -33,-8 -21,0 -36,10 -47,29 -11,19 -16,46 -16,79z"/>
   <path id="7" class="fil6" d="M3212 4936c15,-13 22,-32 22,-55 0,-24 -7,-42 -23,-56 -15,-13 -33,-20 -54,-20 -21,0 -38,7 -52,21 -15,14 -22,32 -22,54 0,23 8,41 22,55 14,15 32,22 53,22 22,0 40,-7 54,-21zm68 60l-45 0 0 -35c-7,12 -18,21 -33,29 -14,7 -30,11 -48,11 -31,0 -59,-11 -82,-34 -23,-22 -34,-51 -34,-86 0,-35 11,-64 33,-86 22,-22 50,-34 83,-34 17,0 33,4 48,11 16,7 26,17 33,29l0 -35 45 0 0 230z"/>
   <path id="8" class="fil6" d="M3399 4872l0 124 -45 0 0 -230 45 0 0 35c6,-13 16,-23 29,-30 13,-6 28,-10 43,-10 28,0 50,9 65,27 15,17 23,42 23,75l0 133 -45 0 0 -130c0,-19 -4,-34 -13,-45 -9,-11 -22,-16 -40,-16 -17,0 -32,6 -44,17 -12,11 -18,28 -18,50z"/>
   <polygon id="9" class="fil6" points="3693,4682 3693,4766 3741,4766 3741,4806 3693,4806 3693,4996 3648,4996 3648,4806 3607,4806 3607,4766 3648,4766 3648,4682 "/>
   <path id="10" class="fil6" d="M3808 4778c16,-11 34,-17 56,-17 22,0 40,6 54,17 14,11 22,27 24,48l-42 0c-2,-8 -6,-14 -12,-18 -7,-5 -15,-7 -24,-7 -9,0 -17,2 -23,6 -6,3 -10,8 -12,15 -2,7 -2,13 1,17 3,8 12,13 27,18l34 8c39,10 59,32 59,67 0,21 -8,37 -26,50 -17,13 -38,19 -61,19 -23,0 -44,-7 -61,-20 -17,-14 -26,-32 -26,-54l42 0c2,12 8,21 18,26 10,6 21,9 33,9 11,-1 20,-4 27,-10 6,-5 10,-12 11,-20 0,-8 -2,-15 -8,-20 -6,-4 -13,-8 -23,-10l-31 -7c-23,-6 -39,-15 -50,-27 -10,-12 -14,-27 -12,-46 2,-18 10,-33 25,-44z"/>
   <path id="11" class="fil6" d="M4181 4872l0 124 -45 0 0 -230 45 0 0 35c6,-13 16,-23 30,-30 13,-6 27,-10 42,-10 29,0 50,9 65,27 15,17 23,42 23,75l0 133 -44 0 0 -130c0,-19 -5,-34 -14,-45 -9,-11 -22,-16 -39,-16 -18,0 -33,6 -45,17 -12,11 -18,28 -18,50z"/>
   <path id="12" class="fil6" d="M4630 4880c0,11 0,16 -1,18l-186 0c2,19 10,34 24,46 14,11 29,17 46,17 33,0 57,-12 70,-36 0,0 1,0 1,1 1,0 2,1 4,1 2,1 4,2 7,3 3,1 6,2 7,3l19 7c-9,20 -23,35 -43,45 -19,11 -40,16 -62,16 -33,0 -61,-11 -85,-33 -22,-23 -33,-52 -33,-88 0,-36 11,-64 33,-86 22,-22 50,-33 84,-33 34,0 61,11 82,33 22,22 33,51 33,86zm-67 -62c-13,-11 -29,-17 -48,-17 -19,0 -35,6 -49,17 -13,11 -21,27 -23,45l142 0c-2,-18 -10,-34 -22,-45z"/>
   <path id="13" class="fil6" d="M4846 4936c15,-13 22,-32 22,-55 0,-24 -7,-42 -23,-56 -15,-13 -33,-20 -54,-20 -21,0 -39,7 -53,21 -14,14 -21,32 -21,54 0,23 7,41 22,55 14,15 32,22 53,22 21,0 39,-7 54,-21zm68 60l-45 0 0 -35c-7,12 -18,21 -33,29 -15,7 -31,11 -48,11 -32,0 -59,-11 -83,-34 -22,-22 -34,-51 -34,-86 0,-35 12,-64 34,-86 22,-22 50,-34 83,-34 17,0 33,4 48,11 15,7 26,17 33,29l0 -35 45 0 0 230z"/>
   <path id="14" class="fil6" d="M5033 4912l0 84 -45 0 0 -230 45 0 0 52c11,-38 32,-57 63,-57 19,0 32,3 40,9l-7 42c-10,-5 -21,-8 -34,-8 -20,0 -35,10 -46,29 -11,19 -16,46 -16,79z"/>
   <path id="15" class="fil6" d="M5513 4872l0 124 -45 0 0 -130c0,-19 -4,-34 -14,-44 -8,-11 -21,-16 -38,-16 -17,0 -31,5 -43,16 -12,12 -19,28 -19,50l0 124 -44 0 0 -230 44 0 0 35c6,-11 15,-20 27,-27 13,-7 24,-11 35,-11 44,-3 73,12 87,46 16,-32 43,-48 80,-48 29,0 50,9 65,27 16,17 23,42 23,75l0 133 -44 0 0 -130c0,-18 -5,-33 -14,-44 -10,-11 -24,-17 -41,-17 -17,0 -31,6 -42,18 -11,13 -17,29 -17,49z"/>
   <path id="16" class="fil6" d="M5960 4880c0,11 0,16 -1,18l-186 0c2,19 10,34 24,46 14,11 29,17 46,17 33,0 56,-12 70,-36 0,0 1,0 1,1 1,0 2,1 4,1 2,1 4,2 7,3 3,1 6,2 7,3l19 7c-9,20 -23,35 -43,45 -19,11 -40,16 -62,16 -33,0 -61,-11 -85,-33 -22,-23 -33,-52 -33,-88 0,-36 11,-64 33,-86 22,-22 50,-33 84,-33 34,0 61,11 82,33 22,22 33,51 33,86zm-67 -62c-13,-11 -29,-17 -48,-17 -19,0 -35,6 -49,17 -13,11 -21,27 -23,45l142 0c-2,-18 -10,-34 -22,-45z"/>
   <rect class="fil1" x="1241" y="12732" width="3575" height="2729" rx="222" ry="222"/>
   <rect class="fil1" x="5043" y="12732" width="3575" height="2729" rx="222" ry="222"/>
   <path class="fil4" d="M2577 14649c-12,24 -134,98 -141,126 -3,9 30,103 -29,154 -97,84 -199,9 -213,-51 -14,-58 9,-66 -48,-86 -139,-49 -105,-201 -24,-238 88,-41 121,21 154,10 9,-4 32,-23 41,-31l75 -59c47,-41 19,-24 92,4 33,13 76,11 85,49 4,18 13,113 8,122zm-33 -578c41,-148 136,-328 222,-438 97,-125 134,-146 235,-234 18,-17 18,-14 36,-26 39,-25 83,-58 124,-77 18,-8 28,-12 47,-20 155,-66 332,-73 480,12 97,55 110,81 181,155 40,41 101,153 116,214 12,50 29,107 25,164 -8,144 -82,293 -178,390 -37,38 -66,67 -98,93 -70,59 -140,110 -223,155 -121,64 -297,124 -433,141 -194,24 -216,17 -411,17 -59,0 -12,-102 -60,-152 -22,-23 -46,-28 -68,-37 -39,-16 -27,-2 -71,-34l76 -323zm-40 722c22,-19 44,-40 66,-55 11,-9 23,-16 35,-27 14,-12 22,-22 35,-28 15,-6 199,0 238,-2l277 -32c23,-3 28,-10 49,-14 134,-21 364,-120 475,-209l106 -81c24,-20 38,-36 65,-59 93,-81 210,-281 216,-407 2,-38 3,-79 2,-119 -1,-17 -1,-40 -4,-58 -18,-89 -64,-186 -115,-258l-56 -68c-56,-60 -23,-32 -97,-90 -46,-36 -102,-72 -159,-90 -98,-30 -100,-33 -214,-33 -81,0 -58,7 -107,15 -241,38 -472,253 -614,438 -35,45 -45,65 -75,112 -27,43 -65,118 -83,166 -23,61 -51,116 -67,182 -5,20 -11,24 -15,47 -7,39 -23,73 -35,152 -20,132 -16,98 -89,160 -97,81 -68,58 -113,49 -51,-10 -115,-3 -154,28 -132,103 -88,265 11,320 70,40 26,2 54,70 26,61 62,103 131,119 54,12 45,11 101,-1 53,-12 115,-68 128,-122 13,-57 9,-47 8,-105z"/>
   <path class="fil4" d="M3892 13678c13,-21 -19,-57 -47,-38 -5,4 -37,49 -42,60 -15,35 22,58 48,37 13,-10 31,-43 41,-59z"/>
   <path class="fil4" d="M3690 13494c20,-27 3,-59 -35,-49 -22,6 -35,37 -46,55 -17,29 2,54 33,48 18,-3 31,-30 48,-54z"/>
   <path class="fil4" d="M2852 14235c25,-32 -13,-60 -38,-48 -8,4 -36,45 -44,58 -14,24 8,61 37,47 19,-9 32,-40 45,-57z"/>
   <path class="fil4" d="M3589 14245c18,-25 -2,-58 -35,-49 -15,4 -37,39 -47,54 -16,26 -3,58 34,49 15,-4 32,-33 48,-54z"/>
   <path class="fil4" d="M3143 14008c-7,-10 -14,-24 -31,-26 -32,-2 -68,70 -64,86 2,11 15,24 27,25 12,1 25,-9 32,-19 6,-7 6,-10 11,-18 9,-15 19,-22 25,-48z"/>
   <path class="fil4" d="M3419 13352c-6,5 -38,50 -42,60 -11,33 20,60 42,41 79,-67 34,-128 0,-101z"/>
   <path class="fil4" d="M3174 13369c-9,5 -36,45 -42,60 -11,27 11,61 39,45 7,-3 39,-47 43,-58 10,-28 -11,-63 -40,-47z"/>
   <path class="fil4" d="M2651 14017c-3,7 -83,103 -12,104 24,0 77,-51 53,-104l-41 0z"/>
   <path class="fil4" d="M2801 13875c34,13 44,8 63,-20 10,-14 36,-43 21,-65 -22,-32 -51,-5 -63,13 -16,24 -29,38 -21,72z"/>
   <path class="fil4" d="M3309 13741c25,-42 -35,-91 -85,10 -11,23 4,58 39,44l46 -54z"/>
   <path class="fil4" d="M3725 13979c53,-23 85,-111 33,-113 -22,-2 -101,84 -33,113z"/>
   <path class="fil4" d="M3164 14196c39,20 46,11 69,-25 24,-38 35,-35 8,-71 -56,-4 -78,58 -77,96z"/>
   <path class="fil4" d="M3567 13878c38,18 45,9 66,-20 22,-31 30,-32 12,-76 -41,-3 -40,5 -58,31 -14,23 -26,30 -20,65z"/>
   <path class="fil4" d="M6772 14847c-6,-6 -15,-10 -15,-22 1,-12 31,-33 38,-40 45,-45 33,-50 79,-3 39,39 51,36 22,63 -19,19 -43,51 -67,61l-57 -59zm-43 -78c-15,-10 -12,-18 -19,-38 -10,-26 -34,-62 -24,-79 8,-12 17,-21 31,-26l77 77c-8,21 -15,21 -30,35 -10,9 -20,24 -35,31zm192 -14c-53,-55 -52,-45 -20,-76 62,-61 42,-65 79,-34 0,22 -11,45 -20,65 -11,23 -12,41 -28,55l-11 -10zm-163 -164c-7,-18 7,-18 22,-32 49,-45 48,-68 78,-33 25,28 54,44 53,59 -3,13 -6,12 -17,22 -24,24 -44,52 -63,58l-73 -74zm243 5c-8,-10 -9,-9 -1,-25l16 0c0,11 -7,20 -15,25zm-337 2c-15,-4 -23,-20 -24,-29 -1,-19 2,-10 4,-13 9,-2 4,-3 12,5 19,18 20,22 8,37zm-26 -135c4,-9 28,-30 38,-40 31,-30 20,-31 41,-37l39 39c11,11 30,26 38,38 -8,21 -5,13 -20,24 -26,20 -38,56 -71,53 -6,-8 -7,-10 -15,-19 -16,-16 -45,-38 -50,-58zm319 79c-18,-4 -16,-6 -25,-17l-42 -40c-9,-8 -14,-9 -10,-24 3,-8 31,-32 39,-40 18,-18 18,-31 43,-35 15,31 64,56 72,83 -20,18 -59,64 -77,73zm-202 -193c5,-19 3,-13 16,-23 53,-42 55,-78 85,-42 70,84 80,32 0,123 -23,26 -19,25 -62,-20 -14,-14 -26,-25 -39,-38zm-213 -28c8,-17 18,-22 31,-35 28,-29 25,-20 53,8 51,51 65,41 9,95 -27,25 -24,31 -44,36 -14,-14 -17,-30 -26,-49 -5,-12 -6,-13 -11,-29 -5,-18 -3,-12 -12,-26zm453 25c9,-20 2,-9 18,-21 19,-14 38,-45 61,-56 14,6 41,32 45,44 -2,12 -16,41 -22,55 -8,21 -13,37 -21,55 -23,-7 -27,-21 -44,-39 -13,-13 -31,-22 -37,-38zm-118 -122c4,-8 28,-30 39,-41 16,-16 19,-32 46,-37 9,20 16,20 35,41 10,10 32,26 37,37 -12,19 -25,27 -39,42 -10,10 -27,30 -38,37 -17,-4 -74,-62 -80,-79zm-168 78c-8,-4 -17,-15 -22,-20 -64,-65 -63,-46 -11,-99 24,-24 20,-28 41,-37l78 72c-4,29 -9,15 -39,49 -18,19 -27,34 -47,35zm435 -53c-20,1 -38,-18 -13,-41 28,-26 21,-35 44,-41 2,16 -5,29 -12,44 -12,23 -11,29 -19,38zm-626 8c-4,-6 -42,-97 -43,-105 25,7 29,17 42,33 7,8 34,30 38,39 -6,17 -17,30 -37,33zm476 -151c10,-15 26,-27 40,-41 53,-57 41,-40 82,0 14,14 29,19 36,41 -6,10 -63,71 -79,79 -14,-13 -72,-66 -79,-79zm-200 -41c51,-52 34,-46 82,0 43,42 56,28 -2,84 -11,11 -26,30 -40,37 -14,-7 -30,-29 -40,-39 -13,-13 -33,-27 -39,-41l39 -41zm-280 46c8,-23 45,-51 64,-71 13,-15 0,-11 17,-11 15,0 15,8 23,18 27,33 48,34 54,64 -9,11 -26,27 -37,39 -65,64 -24,34 -121,-39zm449 -49c-29,-3 -42,-30 -74,-59 -25,-23 -5,-28 7,-39 33,-32 37,-51 65,-56 13,17 21,24 36,40 37,38 51,28 19,59l-53 55zm-254 -1c-8,-3 -34,-31 -39,-37 -37,-40 -45,-32 -12,-63l38 -39c11,-13 1,-8 21,-14l76 72c-2,17 -16,29 -37,47 -16,15 -23,35 -47,34zm487 1c-21,-4 -40,-34 -56,-49 -41,-39 -22,-24 31,-86 9,-11 14,-27 34,-13 1,0 47,50 50,54 5,20 -31,83 -59,94zm-643 -78c-4,15 -39,46 -53,60 -29,28 -27,24 -64,-14 -46,-48 -26,-61 -4,-83 12,-13 26,-29 42,-39 14,6 31,26 43,37 7,8 33,29 36,39zm704 -93c-11,-11 -7,4 -8,-16 7,-6 35,-2 43,2 2,15 1,37 -20,28 -5,-2 -11,-9 -15,-14zm-117 -12c-5,13 -51,58 -66,65l-67 -64c5,-11 18,-6 31,-6 23,0 85,-6 102,5zm-270 35c-29,30 -15,25 -35,30 -14,-5 -39,-35 -54,-48 -37,-32 7,-22 38,-22 32,0 65,-5 84,5 -10,13 -19,20 -33,35zm-343 -35c5,-11 39,-5 52,-5 32,0 64,-5 85,4 -5,7 -53,61 -73,67l-64 -66zm-159 -4c17,-5 43,-4 56,4 -11,15 -27,36 -47,35 -5,-10 -10,-24 -9,-39zm-51 -207c0,-25 17,-75 25,-95 6,-12 13,-26 22,-39 12,-16 14,-18 28,-33 22,-21 43,-40 70,-53 99,-48 106,-7 122,-56 4,-14 12,-28 19,-41 17,-30 30,-47 51,-67 106,-96 279,-90 381,33 57,69 21,70 7,79l-55 50c-83,98 -30,115 -5,102 17,-10 31,-80 111,-122 29,-14 100,17 127,35 12,9 26,16 34,24 34,31 75,91 82,147 9,68 1,140 -34,186l-926 0c-31,0 -33,-26 -44,-49 -10,-22 -15,-76 -15,-101zm463 -501c-51,10 -102,32 -134,56 -119,94 -87,144 -128,153 -132,28 -198,98 -242,224 -18,50 -9,152 12,200 9,22 11,8 12,38 0,28 5,37 21,72l80 200c23,66 70,166 94,230l255 635c10,19 22,40 45,48 108,35 121,-73 146,-125l416 -1029c10,-21 3,-21 5,-43 2,-18 8,-18 13,-33 18,-51 20,-66 18,-125 -3,-113 -53,-180 -132,-243 -18,-15 -38,-27 -61,-34 -13,-4 -21,-9 -33,-12 -51,-12 -22,16 -72,-69 -57,-95 -188,-167 -315,-143z"/>
   <path class="fil4" d="M6556 8453c5,-4 -1,-4 13,-4l518 0c24,0 24,11 9,52l-27 102c-2,13 -2,23 -6,35 -5,21 -4,68 -9,77 -14,22 -41,2 -52,32l2 20c26,10 29,1 41,0l10 1c26,78 -60,83 -110,99 -33,10 -176,9 -213,3 -42,-6 -152,-29 -130,-91 6,-18 25,-1 37,2 79,20 126,23 207,23 17,0 101,-11 120,-17 14,-5 26,-5 23,-24 -4,-26 -49,-14 -69,-9 -44,11 -110,7 -157,7 -29,-1 -40,-6 -65,-10 -54,-8 -23,-5 -59,-13 -51,-13 -28,-36 -41,-110 -2,-15 -5,-10 -8,-27l-30 -120c-5,-12 -4,-25 -4,-28zm25 -715c62,-5 399,-2 488,-2 13,0 11,5 15,16l51 271c10,172 14,191 -14,380 -26,9 -236,3 -284,3 -42,0 -274,6 -292,-3 -14,-19 -24,-139 -24,-173l0 -134 14 -146c2,-16 7,-25 9,-42 5,-60 26,-114 37,-170zm130 -518c7,-3 232,-2 243,3 11,44 -13,111 28,230l69 186c6,14 5,17 9,29 11,31 11,28 -22,28 -8,0 -19,2 -28,3 -15,1 -34,-4 -51,-3l-351 0c-1,0 -2,-1 -3,-1l-4 -2c-9,-12 20,-86 27,-102l37 -98c45,-116 41,-164 46,-273zm-40 -47c-7,-12 -3,-43 -3,-60 1,-28 13,-23 38,-21l249 0c29,-1 37,-7 37,24 -1,48 8,62 -16,63l-143 -1c-15,0 -150,5 -162,-5zm-4 65c0,73 -2,120 -24,192 -3,10 -5,12 -8,24l-68 187c-4,15 -5,12 -9,23l-34 125c-2,10 -1,17 -5,28 -34,116 -41,266 -41,387 0,52 9,91 11,137 2,40 17,88 24,127 7,41 38,118 44,179 5,50 9,33 9,100 0,36 -32,97 58,135 109,47 309,49 417,-1 10,-5 22,-14 31,-20 12,-10 14,-15 23,-31 13,-24 1,-67 1,-109 0,-41 10,-92 18,-131l40 -148c3,-10 3,-21 6,-33 2,-10 6,-17 8,-30 13,-122 14,-120 14,-248 0,-37 -1,-94 -7,-128 -4,-23 -5,-36 -7,-60 -2,-20 -9,-36 -11,-60 -2,-21 -8,-33 -11,-55l-35 -138c-3,-11 -6,-13 -9,-26 -18,-80 -96,-238 -101,-311 -2,-38 -6,-56 -6,-96 0,-65 22,-21 37,-50 4,-9 2,-37 2,-49 0,-19 5,-91 -5,-100 -13,-10 -258,-5 -307,-5 -25,0 -85,-10 -91,14 -4,13 -1,84 -2,104 -1,86 38,19 38,67z"/>
   <path class="fil4" d="M3350 11224l-25 326c-5,92 -23,234 -27,323 -58,25 -245,49 -322,47 -69,-1 -282,-16 -323,-47 -11,-19 -16,-128 -17,-159 -1,-58 -12,-108 -14,-164 -2,-29 -1,-56 -4,-85 -2,-24 -8,-51 -10,-75 -4,-57 -4,-104 -12,-161 -7,-53 -4,-111 -11,-165 -20,-142 -12,-120 38,-119l701 0c71,-1 48,-6 37,118 -5,55 -3,109 -11,161zm-778 -470c46,-6 457,-2 541,-2l262 1c88,6 88,131 4,134 -169,6 -361,1 -536,1 -88,0 -184,3 -270,-1 -88,-4 -96,-120 -1,-133zm24 -58c-5,-23 15,-70 23,-91 22,-58 55,-103 99,-143 66,-61 160,-100 258,-100 59,0 148,26 188,50 7,47 -36,167 -8,185 63,38 39,-113 74,-136 23,21 64,72 80,102 12,22 50,113 40,132 -24,12 -326,5 -378,5 -59,0 -342,4 -376,-4zm581 -346c-22,3 -41,-14 -64,-20 -32,-7 -32,-12 -70,-16 -68,-5 -90,-5 -158,2 -72,7 -174,73 -226,122 -59,57 -102,147 -115,229 -11,67 -38,26 -80,92 -21,35 -21,99 12,139 49,60 31,-15 50,122 8,51 4,108 10,161 7,56 8,105 13,160 2,27 8,50 10,76 2,29 2,57 4,86 2,56 12,101 13,159l19 243c5,12 11,13 25,18 17,6 16,9 30,12 189,43 276,44 480,31 28,-2 47,-11 72,-13 23,-2 124,-26 137,-35 20,-13 17,-46 18,-72 2,-58 10,-104 13,-160 3,-59 6,-105 13,-162 7,-54 2,-107 11,-161l24 -324c7,-95 6,-96 43,-130 13,-12 27,-31 32,-55 4,-22 5,-54 -2,-76 -20,-60 -76,-60 -85,-92 -9,-31 5,-13 -15,-71 -24,-71 -43,-110 -95,-167 -66,-72 -66,-30 -58,-106l29 -146 323 -31c17,-16 29,-41 1,-54 -21,-10 -58,2 -80,6 -28,4 -60,3 -88,5 -31,2 -56,10 -86,11 -84,6 -124,-11 -130,59 -2,33 -19,134 -30,158z"/>
   <path class="fil4" d="M3235 11830c22,-36 16,-19 17,-73 2,-85 13,-163 15,-254 1,-59 12,-110 13,-167 3,-81 18,-149 -31,-135 -30,8 -27,120 -27,151 0,62 -7,111 -12,170 -6,57 -1,115 -8,173 -3,30 -6,53 -8,83 -2,39 2,52 41,52z"/>
   <path class="fil4" d="M3237 11108c0,47 74,42 59,-38 -4,-20 -26,-28 -41,-22 -22,10 -18,33 -18,60z"/>
  </g>
  <g>
   <g>
    <g style="clip-path:url(#id0)">
     <image x="180" y="16753" width="9628" height="2940" xlink:href="youkeep illustration version 2 nr 7_Images\youkeep illustration version 2 nr 7_ImgID1.png"/>
    </g>
   </g>
   <rect class="fil0" x="382" y="16844" width="9193" height="2657" rx="880" ry="964"/>
   <polygon class="fil3" points="1313,18748 1313,18506 1364,18506 1364,18605 1450,18605 1450,18506 1503,18506 1503,18748 1450,18748 1450,18651 1364,18651 1364,18748 "/>
   <path id="1" class="fil3" d="M1539 18666c0,-17 4,-32 12,-45 8,-13 18,-23 31,-30 13,-7 27,-10 43,-10 15,0 29,3 42,10 13,7 23,17 31,30 8,14 12,28 12,45 0,16 -4,31 -12,44 -8,14 -18,24 -31,31 -13,7 -27,10 -42,10 -16,0 -30,-3 -43,-10 -13,-7 -23,-17 -31,-30 -8,-13 -12,-28 -12,-45zm49 0c0,11 3,19 10,26 8,7 16,11 27,11 10,0 19,-4 26,-11 7,-6 11,-15 11,-26 0,-11 -4,-20 -11,-27 -7,-6 -16,-10 -26,-10 -11,0 -19,4 -27,10 -7,7 -10,16 -10,27z"/>
   <path id="2" class="fil3" d="M1745 18748l0 -164 49 0 0 24c3,-9 9,-15 17,-20 8,-5 17,-7 26,-7 26,0 43,9 52,28 12,-19 29,-28 50,-28 20,0 35,6 46,19 11,12 17,31 17,55l0 93 -48 0 0 -88c0,-10 -3,-18 -8,-24 -6,-6 -12,-9 -20,-9 -8,0 -15,3 -20,9 -5,5 -8,13 -8,25l0 87 -49 0 0 -89c0,-10 -2,-18 -8,-23 -5,-6 -11,-9 -19,-9 -8,0 -15,3 -20,8 -6,6 -8,14 -8,26l0 87 -49 0z"/>
   <path id="3" class="fil3" d="M2047 18711c-8,-13 -12,-28 -12,-45 0,-17 4,-32 12,-45 8,-13 18,-23 31,-30 13,-7 27,-10 43,-10 12,0 23,2 33,6 10,4 19,10 27,17 7,8 13,17 18,28 4,11 6,22 6,35 0,4 0,9 0,15l-121 0c1,9 6,16 14,21 8,5 17,7 27,7 7,0 14,-1 20,-4 6,-3 12,-7 16,-12l35 25c-8,11 -18,19 -32,25 -13,5 -28,8 -43,8 -16,0 -30,-4 -43,-11 -13,-7 -23,-17 -31,-30zm38 -59l71 0c-1,-9 -5,-16 -12,-21 -7,-4 -15,-6 -23,-6 -8,0 -15,2 -22,6 -8,5 -12,11 -14,21z"/>
   <path class="fil7" d="M3235 18748l0 -242 96 0c21,0 38,6 51,18 13,13 20,29 20,50 0,9 -3,18 -8,26 -5,8 -13,15 -24,19 14,4 25,11 33,22 7,11 11,22 11,33 0,21 -7,38 -21,53 -14,14 -32,21 -55,21l-103 0zm51 -45l50 0c8,0 14,-3 19,-9 5,-6 7,-13 7,-21 0,-7 -3,-14 -7,-20 -5,-6 -12,-9 -20,-9l-49 0 0 59zm0 -101l40 0c7,0 13,-2 17,-7 4,-5 6,-11 6,-18 0,-8 -2,-14 -6,-19 -4,-4 -9,-7 -17,-7l-40 0 0 51z"/>
   <path id="1" class="fil7" d="M3452 18748l0 -164 49 0 0 40c4,-15 10,-25 19,-33 9,-7 18,-10 27,-10 11,0 21,2 29,6l-9 43c-7,-3 -15,-5 -25,-5 -14,0 -25,6 -31,17 -7,10 -10,27 -10,49l0 57 -49 0z"/>
   <path id="2" class="fil7" d="M3589 18666c0,-17 3,-32 11,-45 8,-13 18,-23 31,-30 13,-7 27,-10 43,-10 15,0 29,3 42,10 13,7 24,17 31,30 8,14 12,28 12,45 0,16 -4,31 -12,44 -7,14 -18,24 -31,31 -13,7 -27,10 -42,10 -16,0 -30,-3 -43,-10 -13,-7 -23,-17 -31,-30 -8,-13 -11,-28 -11,-45zm48 0c0,11 3,19 10,26 8,7 16,11 27,11 10,0 19,-4 26,-11 7,-6 11,-15 11,-26 0,-11 -4,-20 -11,-27 -7,-6 -16,-10 -26,-10 -11,0 -19,4 -27,10 -7,7 -10,16 -10,27z"/>
   <polygon id="3" class="fil7" points="3772,18584 3824,18584 3853,18682 3882,18584 3924,18584 3953,18682 3982,18584 4034,18584 3976,18748 3936,18748 3903,18644 3872,18748 3831,18748 "/>
   <path id="4" class="fil7" d="M4049 18696l45 0c1,4 3,8 8,12 5,3 10,5 17,5 5,0 10,-1 14,-4 4,-2 6,-6 6,-10 0,-3 -1,-6 -4,-8 -2,-2 -6,-4 -12,-5l-22 -6c-9,-3 -17,-6 -24,-9 -7,-4 -11,-8 -15,-11 -3,-3 -5,-7 -7,-12 -2,-5 -3,-8 -3,-11 0,-3 0,-6 0,-10 0,-12 7,-23 19,-32 13,-10 28,-14 45,-14 7,0 13,0 19,1 7,2 13,4 18,6 6,3 11,6 16,11 4,4 7,9 10,15 3,6 4,13 4,21l-46 0c0,-10 -6,-15 -18,-15 -6,0 -10,1 -13,3 -3,3 -5,5 -5,9 1,6 6,10 15,12l28 8c7,2 14,5 19,8 6,3 10,7 13,10 3,4 6,7 8,11 2,4 3,8 3,10 1,3 1,6 1,8 0,9 -2,17 -6,24 -4,6 -10,12 -17,16 -6,4 -14,7 -22,10 -8,2 -17,3 -26,3 -6,0 -13,-1 -20,-2 -6,-2 -12,-4 -18,-7 -6,-4 -11,-7 -16,-12 -4,-4 -8,-9 -10,-16 -3,-6 -4,-12 -4,-19z"/>
   <path id="5" class="fil7" d="M4225 18711c-8,-13 -12,-28 -12,-45 0,-17 4,-32 12,-45 7,-13 18,-23 31,-30 13,-7 27,-10 43,-10 11,0 22,2 32,6 11,4 20,10 27,17 8,8 14,17 18,28 5,11 7,22 7,35 0,4 -1,9 -1,15l-120 0c1,9 5,16 14,21 8,5 16,7 26,7 7,0 14,-1 21,-4 6,-3 11,-7 15,-12l36 25c-8,11 -19,19 -32,25 -14,5 -28,8 -43,8 -16,0 -30,-4 -43,-11 -13,-7 -24,-17 -31,-30zm37 -59l71 0c-1,-9 -5,-16 -12,-21 -7,-4 -14,-6 -22,-6 -8,0 -16,2 -23,6 -7,5 -12,11 -14,21z"/>
   <path class="fil7" d="M5490 18629c0,-22 6,-43 16,-62 11,-19 25,-35 44,-46 18,-11 39,-16 62,-16 21,0 40,4 58,13 18,10 32,22 43,38l-42 29c-7,-10 -15,-18 -26,-23 -10,-6 -21,-9 -33,-9 -20,0 -37,8 -50,22 -14,15 -20,33 -20,54 0,21 6,39 20,54 13,14 30,22 50,22 12,0 24,-3 34,-9 11,-6 19,-15 26,-25l42 29c-11,16 -26,29 -43,39 -18,9 -38,14 -59,14 -17,0 -33,-3 -48,-10 -15,-6 -28,-15 -39,-26 -11,-11 -19,-24 -25,-40 -7,-15 -10,-31 -10,-48z"/>
   <path id="1" class="fil7" d="M5734 18668c0,-13 3,-25 7,-36 5,-11 11,-20 19,-27 8,-7 17,-13 27,-17 10,-4 20,-6 31,-6 4,0 9,0 14,1 5,1 11,4 18,7 7,4 12,8 16,14l0 -18 48 0 0 164 -48 0 0 -19c-5,7 -12,13 -22,16 -9,4 -18,6 -26,6 -14,0 -28,-4 -40,-10 -13,-7 -23,-17 -31,-30 -9,-13 -13,-29 -13,-45zm63 -29c-8,8 -12,17 -12,29 0,11 4,20 12,28 9,7 18,10 29,10 11,0 20,-3 28,-10 8,-7 12,-17 12,-28 0,-12 -4,-22 -12,-29 -8,-7 -17,-11 -28,-11 -11,0 -20,4 -29,11z"/>
   <path id="2" class="fil7" d="M5959 18750l0 -164 49 0 0 39c4,-14 10,-25 19,-32 9,-7 18,-11 27,-11 11,0 21,2 28,6l-8 44c-7,-4 -16,-5 -26,-5 -14,0 -24,5 -30,16 -7,11 -10,27 -10,49l0 58 -49 0z"/>
   <polygon id="3" class="fil7" points="6094,18624 6094,18586 6123,18586 6123,18523 6172,18523 6172,18586 6206,18586 6206,18624 6172,18624 6172,18750 6123,18750 6123,18624 "/>
   <path class="fil7" d="M7701 18748l0 -242 100 0c13,0 25,2 35,7 11,4 19,10 25,18 7,8 11,16 15,25 3,10 4,19 4,30 0,10 -1,20 -4,29 -4,9 -8,18 -15,25 -6,8 -14,14 -25,18 -10,5 -22,7 -35,7l-48 0 0 83 -52 0zm52 -128l45 0c10,0 17,-4 23,-11 5,-7 8,-15 8,-23 0,-9 -3,-17 -8,-24 -5,-7 -12,-11 -21,-11l-47 0 0 69z"/>
   <path id="1" class="fil7" d="M7895 18666c0,-13 3,-24 8,-35 4,-11 11,-20 18,-27 8,-8 17,-13 27,-17 10,-4 20,-6 31,-6 4,0 9,0 14,1 5,1 11,3 18,7 7,3 12,8 16,13l0 -18 48 0 0 164 -48 0 0 -18c-5,7 -12,12 -22,16 -9,4 -18,5 -26,5 -14,0 -28,-3 -40,-10 -13,-6 -23,-16 -31,-30 -8,-13 -13,-28 -13,-45zm63 -28c-8,7 -12,17 -12,28 0,11 4,21 12,28 9,7 18,11 29,11 11,0 20,-4 28,-11 8,-7 12,-16 12,-28 0,-12 -4,-21 -12,-28 -8,-7 -17,-11 -28,-11 -11,0 -20,4 -29,11z"/>
   <path id="2" class="fil7" d="M8111 18696l45 0c0,4 3,8 8,12 4,3 10,5 16,5 6,0 11,-1 15,-4 4,-2 6,-6 6,-10 0,-3 -2,-6 -4,-8 -2,-2 -7,-4 -13,-5l-21 -6c-9,-3 -17,-6 -24,-9 -7,-4 -12,-8 -15,-11 -3,-3 -5,-7 -7,-12 -2,-5 -3,-8 -3,-11 0,-3 0,-6 0,-10 0,-12 6,-23 19,-32 13,-10 28,-14 45,-14 7,0 13,0 19,1 6,2 12,4 18,6 6,3 11,6 15,11 5,4 8,9 11,15 2,6 4,13 4,21l-46 0c0,-10 -6,-15 -19,-15 -5,0 -9,1 -12,3 -3,3 -5,5 -5,9 1,6 6,10 15,12l27 8c8,2 15,5 20,8 6,3 10,7 13,10 3,4 6,7 7,11 2,4 3,8 4,10 1,3 1,6 1,8 0,9 -2,17 -6,24 -4,6 -10,12 -17,16 -7,4 -14,7 -22,10 -9,2 -17,3 -26,3 -7,0 -13,-1 -20,-2 -6,-2 -13,-4 -18,-7 -6,-4 -11,-7 -16,-12 -4,-4 -8,-9 -10,-16 -3,-6 -4,-12 -4,-19z"/>
   <path id="3" class="fil7" d="M8275 18696l45 0c1,4 3,8 8,12 4,3 10,5 17,5 5,0 10,-1 14,-4 4,-2 6,-6 6,-10 0,-3 -2,-6 -4,-8 -2,-2 -6,-4 -12,-5l-22 -6c-9,-3 -17,-6 -24,-9 -7,-4 -11,-8 -15,-11 -3,-3 -5,-7 -7,-12 -2,-5 -3,-8 -3,-11 0,-3 0,-6 0,-10 0,-12 7,-23 19,-32 13,-10 28,-14 45,-14 7,0 13,0 19,1 7,2 13,4 18,6 6,3 11,6 16,11 4,4 7,9 10,15 3,6 4,13 4,21l-46 0c0,-10 -6,-15 -18,-15 -6,0 -10,1 -13,3 -3,3 -5,5 -5,9 1,6 6,10 15,12l28 8c7,2 14,5 19,8 6,3 10,7 13,10 3,4 6,7 8,11 1,4 3,8 3,10 1,3 1,6 1,8 0,9 -2,17 -6,24 -4,6 -10,12 -17,16 -6,4 -14,7 -22,10 -8,2 -17,3 -26,3 -6,0 -13,-1 -20,-2 -6,-2 -12,-4 -18,-7 -6,-4 -11,-7 -16,-12 -4,-4 -8,-9 -10,-16 -3,-6 -4,-12 -4,-19z"/>
   <g>
    <path class="fil8" d="M7573 17877c-3,13 -5,306 -3,336 32,5 58,17 74,41 16,23 29,57 32,100 130,0 259,-3 389,-2 131,0 262,1 392,-3 0,-40 4,-90 20,-118 13,-24 35,-47 69,-51l0 -265c-63,-22 -84,-87 -100,-158 -5,-20 0,-21 -16,-21 -83,1 -167,-1 -250,-1l-374 -3c-38,0 -88,-4 -125,0 -4,13 -5,39 -11,58 -18,54 -48,82 -97,87z"/>
    <path class="fil4" d="M7584 17875c48,-5 77,-32 94,-84 6,-18 8,-44 12,-56 36,-4 85,0 122,0l365 3c81,0 163,2 245,1 15,0 11,1 15,20 16,68 37,132 98,152l0 256c-33,4 -55,27 -68,50 -15,27 -19,75 -19,114 -127,3 -255,2 -383,2 -127,0 -254,2 -381,3 -2,-42 -15,-75 -30,-97 -16,-23 -42,-35 -73,-40 -2,-29 0,-311 3,-324zm873 471c3,-16 0,-45 4,-68 9,-58 31,-95 85,-96l0 -278c-4,-8 -15,-10 -22,-13 -8,-5 -13,-8 -20,-14 -12,-10 -23,-22 -30,-38 -11,-24 -30,-81 -33,-114l-763 -5c-1,35 -12,86 -28,105 -31,35 -58,30 -78,38l-2 353c66,-1 101,47 103,134 25,4 70,0 97,-1l294 -1c131,0 262,0 393,-2z"/>
    <path class="fil9" d="M8230 18061c12,-109 -50,-190 -149,-199 -104,-9 -183,63 -192,157 -23,233 312,289 341,42z"/>
    <path class="fil4" d="M8231 18060c-29,239 -367,185 -344,-41 9,-91 89,-160 194,-151 99,8 163,86 150,192zm-181 -202c-106,5 -179,86 -175,193 10,224 370,249 369,-20 0,-106 -81,-179 -194,-173z"/>
    <rect class="fil9" x="7887" y="17869" width="345" height="345" rx="150" ry="173"/>
    <g>
     <path class="fil4" d="M8078 18131c0,1 0,1 -1,2l0 1c0,0 0,0 0,1l0 0c0,0 0,0 0,0 0,0 1,1 1,1 0,0 0,0 0,0 0,0 0,1 0,1 0,0 1,0 1,1 0,0 0,0 0,0l0 0c0,0 0,0 0,0l0 0c0,1 0,1 1,2l4 6c1,1 2,2 3,3l1 1c1,0 1,1 2,1l1 1c0,0 0,0 0,0 0,1 2,2 2,2 0,0 1,0 1,0 0,1 1,1 1,1 0,0 0,0 0,0 0,0 0,0 0,0l1 0c0,0 0,1 1,1 0,0 1,0 1,0 0,0 0,0 0,0l1 1c0,0 0,0 0,0 1,0 1,0 1,0 0,0 0,0 0,0 0,0 0,0 1,0 0,0 0,0 0,0 0,0 0,0 0,0 1,0 1,0 1,0 0,0 0,0 1,0 0,0 0,0 0,1l0 0c1,0 0,0 1,0 0,0 0,0 0,0 0,0 1,0 1,0 0,0 0,0 1,0 0,0 1,0 1,0 0,0 0,0 0,0 1,0 1,0 1,0 1,0 1,0 2,0 0,0 0,0 0,0 0,0 0,0 0,0 0,0 0,-1 1,0l1 -1c1,0 3,0 3,-1 0,0 1,0 1,0 1,0 1,-1 2,-1l4 -2c0,0 0,0 0,0 1,-1 2,-1 2,-2 1,0 1,-1 2,-1 0,-1 2,-2 2,-3 1,0 1,-1 1,-1 0,0 1,-1 1,-1 0,0 1,-1 1,-1 0,0 0,-1 0,-1 0,0 1,0 1,-1l0 0c0,0 0,-1 0,-1 1,0 1,-1 1,-1l0 -1c0,0 0,0 0,0 0,0 0,0 0,0 1,-1 0,-1 1,-1l0 -1c0,0 0,0 0,0 0,0 0,0 0,0 0,0 0,0 0,0l0 -1c0,0 0,-1 1,-1 0,0 0,-1 0,-1 0,0 0,0 0,-1 0,0 0,0 0,0 0,0 0,0 0,-1 0,0 0,0 0,-1 0,0 0,-1 0,-1l0 0c0,0 0,-1 0,-1 0,0 0,-1 0,-1 0,0 0,0 0,-1 0,0 0,0 0,0 0,0 -1,-1 0,-1 -1,0 -1,-1 -1,-1l0 -1c0,0 0,-1 0,-1l0 0c0,0 0,-1 0,-1 -1,0 -1,-1 -1,-1 0,0 0,-1 0,-1l-2 -3c0,0 0,-1 0,-1 -1,-2 -4,-6 -6,-8 0,0 -1,-1 -1,-2 -1,0 -2,-1 -2,-2l0 0c0,0 0,0 -1,0 0,-1 0,-1 0,-1 -1,0 -1,0 -1,0 0,0 0,0 0,0 0,0 0,0 0,-1 0,0 -1,0 -1,0 0,0 0,0 0,0 -1,0 -1,0 -1,0 0,0 0,0 0,0 0,0 0,0 0,0 -1,0 -1,0 -2,0 0,0 0,0 0,0l0 0c0,1 0,1 -1,1 -1,0 -3,2 -4,3 0,0 0,1 -1,1l0 0 -2 1 0 0c0,0 0,0 0,0 0,0 0,0 0,1 0,0 0,0 0,0 0,0 0,0 0,0 0,0 -1,1 -1,1 -1,0 -1,1 -2,1 0,0 -1,1 -1,1 -1,1 -2,2 -3,3l0 0c0,0 0,0 0,0 0,0 -2,1 -2,1 0,1 0,1 0,1 0,0 0,0 0,0 1,2 3,3 3,4 1,1 1,1 1,1l3 4c0,1 0,1 1,2l2 3c0,1 1,1 1,2 1,0 1,1 1,1 1,1 1,2 1,2 1,1 1,1 2,2 0,0 0,1 1,1 0,1 0,1 0,1 1,1 0,0 1,1 0,0 1,1 1,2 0,-1 -2,-3 -3,-3 -1,-1 -2,-3 -2,-3 -1,-1 -1,-1 -2,-2 0,-1 -1,-1 -1,-1 0,-1 -1,-1 -1,-2 -1,0 -1,-1 -2,-1 0,-1 0,-1 -1,-2 0,0 0,0 0,-1 -1,0 -2,-1 -2,-2 -1,0 -1,-1 -2,-1 0,-1 0,0 0,-1 0,0 -1,-1 -2,-2 -1,-1 -1,-1 -2,-2 0,0 0,0 0,-1 0,0 -1,0 -1,0 0,0 0,0 0,0 0,0 0,0 0,0 -1,0 -1,0 -1,0 0,0 0,1 -1,1 0,0 0,0 0,0 -1,0 -2,1 -3,2 0,0 -2,1 -2,2 0,0 -2,1 -2,1 -1,0 -1,0 -1,1l-1 0c0,0 0,1 -1,1l0 0c0,0 0,0 -1,0 0,1 0,1 0,1 0,0 0,0 -1,0l0 0c-1,1 -1,1 -2,2 -1,0 -1,1 -2,1z"/>
     <path class="fil4" d="M8026 17998c1,0 2,1 3,1 1,1 2,2 3,3l5 3c0,0 0,1 0,1l31 24c1,0 2,1 3,2l45 35c-5,4 -11,9 -17,13l-7 5c-1,1 -1,1 -1,1l-12 9c-7,5 -15,12 -23,17l-4 4c0,0 -1,0 -1,1l-15 10c-2,3 -8,6 -10,8 -1,1 0,0 0,2 1,1 1,0 2,1 1,0 0,0 1,0l3 1c1,0 1,0 2,0l8 2c3,0 7,1 10,1l11 0 1 0c3,0 8,-1 11,-2l4 -1c0,0 1,-1 1,-1 0,0 1,0 1,0l6 -2c0,0 0,-1 1,-1 1,0 1,0 2,0 0,-1 0,-1 1,-1 2,-1 4,-2 6,-3 3,-3 7,-5 10,-8 1,-1 3,-3 4,-4 3,-3 6,-7 8,-10 3,-4 6,-8 7,-13l2 -4c2,-5 3,-10 4,-15 2,-12 0,-25 -4,-36l-3 -6c0,-1 0,-1 0,-2 -3,-5 -7,-11 -11,-15l-11 -11c-7,-5 -14,-8 -22,-11l-6 -2c0,-1 -1,-1 -2,-1 -1,0 0,0 -1,0 -1,0 -1,0 -2,0l-6 -1c-4,-1 -8,-1 -12,-1 -4,0 -10,1 -15,3l-9 2c-1,0 -2,0 -2,2z"/>
     <path class="fil4" d="M7984 17998c0,10 1,19 5,28l2 6c2,5 5,9 7,13l1 1c1,1 2,2 3,3l9 9c0,0 0,0 0,0 0,1 0,1 1,1l9 7 20 8c1,0 1,0 2,0 1,0 0,0 1,1 7,1 17,2 24,1 1,-1 2,-1 4,-1 2,0 6,-1 8,-1 4,-1 8,-2 11,-3 0,-1 -1,-2 -2,-3 -1,-1 -2,-1 -3,-2l-36 -27c0,0 0,0 0,-1 0,0 -1,0 -1,0l-9 -7c-1,-1 -1,-1 -2,-2l-3 -2c-1,-1 -2,-1 -3,-2 -1,-1 -2,-1 -3,-2 -2,-2 -4,-3 -6,-5 0,0 0,0 0,0 -1,-1 -1,0 -1,-1l-4 -3c-1,-1 -2,-1 -3,-2l-15 -11c2,-2 15,-12 17,-13l2 -2c1,0 0,0 1,0l41 -32c0,0 0,0 0,-1l28 -21c1,-1 1,0 1,-2 -2,-1 -8,-2 -11,-2 -6,-2 -10,-2 -14,-2l-11 0 -1 0c-4,0 -10,1 -14,2l-2 1c0,0 0,0 0,0l-3 1c-1,0 -1,0 -2,1l-3 1c-5,2 -10,5 -14,8l-3 2c-4,4 -7,7 -11,11 0,0 0,0 0,0l0 1c0,0 -1,0 -1,0 0,1 0,1 -1,1l-5 8c0,1 0,1 -1,2l-3 7c-4,8 -6,17 -6,26z"/>
     <path class="fil9" d="M8096 18119c0,0 0,0 0,0 0,0 0,0 0,0 0,0 1,0 1,0 0,1 0,1 0,1 1,1 1,1 2,2 1,1 2,2 2,2 0,1 0,0 0,1 1,0 1,1 2,1 0,1 1,2 2,2 0,1 0,1 0,1 1,1 1,1 1,2 1,0 1,1 2,1 0,1 1,1 1,2 0,0 1,0 1,1 1,1 1,1 2,2 0,0 1,2 2,3 1,0 3,2 3,3 0,-1 -1,-2 -1,-2 -1,-1 0,0 -1,-1 0,0 0,0 0,-1 -1,0 -1,-1 -1,-1 -1,-1 -1,-1 -2,-2 0,0 0,-1 -1,-2 0,0 0,-1 -1,-1 0,-1 -1,-1 -1,-2l-2 -3c-1,-1 -1,-1 -1,-2l-3 -4c0,0 0,0 -1,-1 0,-1 -2,-2 -3,-4 0,0 0,0 0,0 0,0 0,0 0,-1 0,0 2,-1 2,-1 0,0 0,0 0,0l-4 3c0,0 -1,0 -1,1z"/>
    </g>
   </g>
   <g>
    <path class="fil7" d="M4994 17035l-335 190 -24 -41 335 -191 24 0 0 42zm-24 -42l12 -6 12 6 -24 0zm328 229l-328 -187 24 -42 327 187 -23 42z"/>
   </g>
   <path class="fil4" d="M1669 18301c-3,0 -7,1 -8,-2 -1,-1 0,-7 0,-9l0 -281c0,-12 -2,-13 6,-13l186 0c4,0 4,3 4,7l0 291c0,4 0,6 -2,7 -2,1 -5,0 -7,0l-167 0c-6,0 -6,1 -12,0zm-244 -329c0,11 8,19 18,23 4,1 9,1 13,1 7,0 35,-1 41,0 5,0 4,5 4,9l0 295c-5,2 -1,1 -7,1l-48 0c-2,0 -7,1 -8,2 -1,1 -3,5 -3,7 0,8 -1,33 1,40 1,3 4,4 7,4l632 0c7,0 8,-5 8,-12l0 -33c0,-2 -2,-6 -3,-7 -4,-2 -42,-1 -45,-1 -22,0 -18,4 -18,-26l0 -254c0,-30 -5,-25 25,-25 16,0 41,4 49,-15 4,-10 2,-20 -5,-28 -5,-5 -30,-23 -39,-29l-47 -35c-10,-7 -23,-15 -32,-23 -2,-1 -4,-2 -5,-3l-37 -27c-7,-6 -14,-10 -22,-15l-5 -4c-3,-3 -7,-5 -10,-8 -2,-2 -1,-1 -3,-2l-8 -6c-3,-3 -11,-8 -15,-11l-21 -15c-2,-1 -2,-2 -3,-3 -5,-4 -13,-8 -19,-13l-44 -33c-2,0 -2,-1 -3,-1 -10,-6 -19,-6 -28,0 -4,2 -7,5 -11,8l-5 3c-2,2 -3,3 -5,4 -7,5 -15,10 -21,16 -1,1 -2,1 -3,2l-24 17c-6,5 -13,9 -19,13l-71 52c-5,4 -10,8 -16,12 -4,2 -7,5 -10,8 -5,2 -3,2 -5,4l-11 7c-2,2 -3,2 -5,4 -2,1 -2,1 -3,2 -1,1 -2,1 -3,2 -5,3 -10,8 -16,11l-26 19c-3,3 -7,6 -11,8l-5 4c-8,7 -18,12 -26,19 -4,3 -7,5 -11,8 -3,3 -7,5 -9,9 -3,5 -4,8 -4,15z"/>
   <g>
    <path class="fil10" d="M5588 17914l520 0c8,0 13,5 13,11l0 342c0,6 -5,11 -13,11l-520 0c-7,0 -13,-5 -13,-11l0 -342c0,-6 6,-11 13,-11zm-44 -77c-13,0 -34,0 -43,4 -3,2 -5,3 -6,4 -2,2 -2,2 -3,3 -4,5 -6,13 -6,19l0 460c0,4 3,13 6,16 1,1 1,1 2,2 3,4 0,1 4,4 6,4 14,5 22,5l662 0c2,0 10,-2 12,-3l9 -5c5,-5 8,-12 8,-19l0 -464c0,-3 -3,-12 -4,-14 -1,-1 -2,-1 -3,-2 -3,-2 0,-2 -9,-6 -3,-1 -3,-2 -7,-2 -10,-2 -19,-2 -30,-2 -205,0 -409,0 -614,0z"/>
    <path class="fil10 str0" d="M5756 17951c-16,-106 -3,-186 97,-186 85,8 114,73 92,189l51 -1c26,-145 -17,-229 -148,-233 -126,6 -174,84 -148,230l56 1z"/>
   </g>
   <path class="fil10" d="M3807 18225c-70,0 -118,-15 -164,-62 -55,-58 -76,-153 -42,-230 12,-27 25,-43 44,-62 21,-21 29,-31 60,-43 28,-12 52,-20 86,-16 34,5 47,-3 87,17 47,22 60,36 86,70 15,21 26,47 32,74 12,45 6,87 -11,128 -27,63 -105,124 -178,124zm-19 -505l11 0c43,1 86,11 126,31 37,19 60,36 87,63 23,23 47,60 59,90 45,111 27,205 -35,298 13,8 54,52 71,69 8,8 16,12 19,24 -16,4 -44,42 -70,59 -9,-5 -15,-12 -22,-21 -8,-11 -11,-13 -20,-23 -14,-13 -30,-32 -44,-42 -8,2 -40,23 -71,35 -55,21 -75,18 -132,18 -81,0 -186,-67 -226,-136 -41,-72 -49,-95 -49,-189 0,-38 18,-84 32,-111 51,-102 156,-163 264,-165z"/>
  </g>
  <path class="fil4" d="M1431 601l1054 0 0 382c0,254 209,463 463,463l3972 0c254,0 463,-209 463,-463l0 -382 1035 0c469,0 853,384 853,853l0 17163c0,469 -384,852 -853,852l-6987 0c-469,0 -852,-383 -852,-852l0 -17163c0,-469 383,-853 852,-853l0 0zm41 -601l6924 0c810,0 1472,662 1472,1472l0 17173c0,810 -662,1472 -1472,1472l-6924 0c-810,0 -1472,-662 -1472,-1472l0 -17173c0,-810 662,-1472 1472,-1472z"/>
  <path class="fil9" d="M4005 825c32,56 52,49 129,51l2221 18c85,0 272,25 264,-85 -5,-69 -68,-52 -140,-51 -714,11 -1474,-13 -2205,-5 -53,1 -115,0 -167,4 -71,7 -84,13 -103,68l1 0z"/>
  <ellipse class="fil9" cx="3333" cy="824" rx="84" ry="64"/>
  <g>
   <path class="fil3" d="M3383 2418c-29,29 -44,67 -44,115 0,48 16,85 46,112 31,27 67,40 110,40 42,0 78,-14 107,-42 29,-28 43,-65 43,-110 0,-46 -15,-84 -45,-113 -29,-29 -66,-44 -109,-45 -43,0 -79,14 -108,43zm-45 -122l0 73c16,-26 38,-46 67,-60 29,-16 61,-24 97,-24 65,0 121,23 166,69 45,45 68,104 68,177 0,72 -22,131 -67,176 -45,45 -101,68 -167,68 -36,0 -68,-7 -98,-21 -30,-14 -52,-34 -66,-59l0 219c1,57 -36,79 -91,79l0 -622c-1,-61 39,-77 91,-75z"/>
   <path class="fil3" d="M4178 2643c30,-28 45,-66 45,-114 0,-47 -16,-85 -47,-112 -32,-28 -69,-42 -111,-42 -43,0 -79,14 -107,43 -29,28 -44,65 -44,110 0,46 15,84 45,113 29,30 65,44 109,44 43,0 79,-14 110,-42zm46 122l0 -72c-15,24 -37,44 -67,59 -30,15 -62,23 -98,23 -65,0 -121,-23 -169,-69 -46,-45 -69,-104 -69,-176 0,-72 23,-131 68,-176 46,-45 102,-68 170,-69 34,0 67,8 99,22 30,15 52,35 66,59 1,-51 37,-69 91,-70l0 394c-2,59 -36,80 -91,75z"/>
   <path class="fil3" d="M4506 2296l320 0 0 77 -291 314 199 0c56,1 91,26 92,89l-423 0 0 -77 286 -314 -269 0c0,-57 31,-86 86,-89z"/>
   <path class="fil3" d="M5267 2643c31,-28 46,-66 46,-114 0,-47 -16,-85 -47,-112 -32,-28 -69,-42 -111,-42 -43,0 -79,14 -108,43 -28,28 -43,65 -43,110 0,46 15,84 44,113 30,30 66,44 109,44 44,0 80,-14 110,-42zm47 122l0 -72c-15,24 -37,44 -67,59 -30,15 -62,23 -98,23 -65,0 -121,-23 -169,-69 -46,-45 -69,-104 -69,-176 0,-72 23,-131 68,-176 46,-45 102,-68 170,-69 34,0 67,8 98,22 31,15 53,35 67,59 6,-57 40,-76 91,-70l0 396c-1,52 -31,76 -91,73z"/>
   <path class="fil3" d="M5560 2320c31,-23 69,-35 114,-35 44,0 81,12 110,35 29,22 45,55 49,97l-87 0c-3,-15 -11,-27 -24,-37 -15,-9 -31,-13 -49,-13 -18,0 -33,4 -46,11 -13,6 -21,17 -25,32 -4,14 -3,26 1,35 8,15 26,27 56,35l69 17c81,20 121,66 121,137 0,42 -17,77 -52,103 -36,25 -78,38 -126,38 -47,0 -89,-14 -124,-42 -36,-27 -53,-64 -54,-109l86 0c4,24 16,42 38,53 20,13 42,19 66,18 24,-2 42,-8 55,-20 13,-11 21,-25 22,-41 2,-17 -3,-30 -15,-40 -11,-10 -27,-17 -47,-21l-64 -15c-46,-12 -79,-30 -101,-54 -20,-25 -29,-56 -25,-93 3,-38 21,-68 52,-91z"/>
   <path class="fil3" d="M6663 2644c30,-29 44,-67 44,-114 0,-47 -14,-84 -44,-112 -29,-29 -65,-43 -109,-43 -44,0 -80,14 -110,42 -30,29 -45,66 -45,113 0,47 15,84 44,113 29,30 66,44 110,44 44,0 81,-14 110,-43zm-109 131c-69,0 -127,-23 -175,-68 -47,-45 -71,-104 -71,-177 0,-73 23,-132 70,-177 47,-45 105,-68 175,-68 69,0 128,23 175,68 47,46 71,105 71,177 0,72 -24,131 -71,176 -48,46 -106,69 -174,69z"/>
   <path class="fil3" d="M7026 2418c-29,29 -44,67 -44,115 0,48 15,85 46,112 31,27 67,40 109,40 43,0 79,-14 108,-42 28,-28 42,-65 42,-110 0,-46 -14,-84 -44,-113 -29,-29 -66,-44 -109,-45 -43,0 -79,14 -108,43zm-45 -122l0 73c15,-26 38,-46 67,-60 29,-16 61,-24 97,-24 65,0 121,23 166,69 45,45 68,104 68,177 0,72 -23,131 -68,176 -45,45 -100,68 -166,68 -36,0 -69,-7 -98,-21 -30,-14 -52,-34 -66,-59l0 219c-1,52 -28,79 -91,79l0 -620c0,-58 42,-78 91,-77z"/>
   <path class="fil3" d="M6124 2110l0 177 0 84 0 320c-2,48 -28,79 -95,79l0 -399 0 -84 0 -104c0,-57 40,-73 95,-73z"/>
   <path class="fil3" d="M6123 2290l25 0c60,2 78,23 78,85l-103 0 -96 0c-73,1 -85,-32 -88,-85l88 0 96 0z"/>
   <g>
    <path class="fil4 str1" d="M2558 2370l404 308 -43 11c-117,29 -238,-3 -323,-89 -60,-61 -94,-143 -94,-229 -1,-216 205,-371 413,-320l43 11 -400 308z"/>
    <path class="fil4 str1" d="M3091 2663l-400 -309 43 -10c208,-51 414,103 414,319 -1,86 -34,168 -95,230 -85,86 -206,117 -323,88l-43 -11 404 -307z"/>
    <path class="fil4" d="M3110 2828l38 45c43,51 36,127 -14,170l0 0c-51,43 -127,36 -170,-15l-41 -48c82,-27 143,-79 187,-152z"/>
    <polygon class="fil9" points="3015,2934 3100,3006 3042,2912 "/>
   </g>
  </g>
 </g>
</svg>
