<?xml version="1.0" encoding="UTF-8"?>
<!DOCTYPE svg PUBLIC "-//W3C//DTD SVG 1.1//EN" "http://www.w3.org/Graphics/SVG/1.1/DTD/svg11.dtd">
<!-- Creator: CorelDRAW X6 -->
<svg xmlns="http://www.w3.org/2000/svg" xml:space="preserve" width="112.68mm" height="200mm" version="1.1" style="shape-rendering:geometricPrecision; text-rendering:geometricPrecision; image-rendering:optimizeQuality; fill-rule:evenodd; clip-rule:evenodd"
viewBox="0 0 6716 11920"
 xmlns:xlink="http://www.w3.org/1999/xlink">
 <defs>
  <style type="text/css">
   <![CDATA[
    .str0 {stroke:#FEB434;stroke-width:30.2768}
    .fil20 {fill:none}
    .fil15 {fill:#00C2FF}
    .fil16 {fill:#3B9CFF}
    .fil18 {fill:#FBD13E}
    .fil17 {fill:#FEB434}
    .fil13 {fill:#3B9CFF;fill-rule:nonzero}
    .fil19 {fill:#FBD13E;fill-rule:nonzero}
    .fil14 {fill:#FEB434;fill-rule:nonzero}
    .fil0 {fill:none; opacity: 0.96}
    .fil6 {fill:#A3D1FF;fill-opacity:0.301961}
    .fil10 {fill:#E6F2FE;fill-opacity:0.450980}
    .fil11 {fill:#A3D1FF;fill-rule:nonzero;fill-opacity:0.450980}
    .fil12 {fill:#A3D1FF;fill-opacity:0.490196}
    .fil1 {fill:white;fill-opacity:0.96}
    .fil21 {fill:#CFE7FF;fill-opacity:0.6}
    .fil7 {fill:#00C2FF;fill-rule:nonzero;fill-opacity:0.6}
    .fil8 {fill:#3B9CFF;fill-rule:nonzero;fill-opacity:0.6}
    .fil9 {fill:#99E7FF;fill-rule:nonzero;fill-opacity:0.6}
    .fil22 {fill:#FEB434;fill-rule:nonzero;fill-opacity:0.6}
    .fil2 {fill:#FFFFFF;fill-opacity:0.99}
    .fil4 {fill:#3B9CFF;fill-rule:nonzero;fill-opacity:0.980392}
    .fil5 {fill:#FEB434;fill-rule:nonzero;fill-opacity:0.980392}
    .fil3 {fill:#3B9CFF;fill-rule:nonzero}
   ]]>
  </style>
 </defs>
 <g id="Layer_x0020_1">
  <metadata id="CorelCorpID_0Corel-Layer"/>
  <g id="_1236279440">
   <path class="fil0" d="M1363 616c-634,-38 -737,157 -759,639l5 9057c-7,626 153,912 610,946l4027 10c654,48 881,-321 866,-927l0 -9021c-8,-569 -212,-734 -743,-730l-462 454 -3059 12 -486 -440zm1495 4312l1000 0c75,0 137,62 137,137l0 192c0,75 -62,137 -137,137l-1000 0c-75,0 -137,-62 -137,-137l0 -192c0,-75 62,-137 137,-137z"/>
   <path class="fil1" d="M1269 1428l4178 0c124,0 226,102 226,226l0 560c0,124 -102,226 -226,226l-4178 0c-124,0 -226,-102 -226,-226l0 -560c0,-124 102,-226 226,-226z"/>
   <path class="fil2" d="M5482 11463l-4095 21c-876,22 -990,-407 -969,-1205l4 -9232c45,-332 206,-535 496,-593l504 0c147,58 206,433 613,432l2689 0c401,-81 363,-405 636,-437l446 12c303,43 463,343 467,688l6 9465c0,512 -222,847 -798,850zm-4595 -11463c-550,87 -871,442 -859,1185l-27 9601c-17,760 424,1096 1186,1134l4455 -4c596,13 964,-268 1048,-911l26 -9856c-14,-658 -549,-1151 -1180,-1147l-4649 -2z"/>
   <path class="fil1" d="M1263 2661l4190 0c121,0 220,99 220,220l0 572c0,121 -99,220 -220,220l-4190 0c-121,0 -220,-99 -220,-220l0 -572c0,-121 99,-220 220,-220z"/>
   <path class="fil3" d="M1523 3102l-48 129 -21 0 -35 -95 -34 95 -21 0 -49 -129 27 0 32 91 33 -91 24 0 32 91 32 -91 27 0zm219 0l-48 129 -21 0 -35 -95 -34 95 -21 0 -49 -129 27 0 32 91 33 -91 24 0 32 91 32 -91 27 0zm219 0l-48 129 -21 0 -35 -95 -34 95 -21 0 -49 -129 27 0 32 91 33 -91 24 0 32 91 32 -91 27 0zm25 115c0,-5 2,-9 5,-12 4,-3 8,-5 13,-5 5,0 9,2 13,5 4,3 5,7 5,13 0,5 -2,9 -6,12 -4,3 -8,5 -13,5 -5,0 -9,-2 -13,-5 -4,-3 -5,-7 -5,-12zm85 -108c9,-6 19,-9 31,-9 12,0 22,3 30,9 8,6 13,15 14,27l-24 0c-1,-4 -3,-8 -7,-10 -4,-2 -9,-4 -14,-4 -5,0 -9,1 -13,3 -4,2 -6,5 -7,9 -1,4 -1,7 0,10 2,4 7,7 15,10l19 5c22,6 34,18 34,38 0,12 -5,21 -15,28 -10,7 -21,10 -35,10 -13,0 -25,-4 -34,-11 -10,-8 -15,-18 -15,-30l24 0c1,7 4,12 10,15 6,4 12,5 18,5 7,0 12,-2 15,-5 4,-3 6,-7 6,-12 0,-5 -1,-8 -4,-11 -3,-3 -7,-5 -13,-6l-18 -4c-13,-3 -22,-8 -28,-15 -6,-7 -8,-15 -7,-26 1,-10 6,-19 14,-25zm150 27c-8,8 -12,19 -12,32 0,13 4,24 13,31 9,7 19,11 30,11 12,0 22,-4 30,-12 8,-8 12,-18 12,-31 0,-13 -4,-23 -12,-31 -8,-8 -18,-12 -30,-12 -12,0 -22,4 -30,12zm-38 -34l25 0 0 20c4,-7 10,-13 19,-17 8,-4 17,-6 27,-6 18,0 33,6 46,19 13,12 19,29 19,49 0,20 -6,36 -19,49 -12,12 -28,19 -46,19 -10,0 -19,-2 -27,-6 -8,-4 -14,-9 -18,-16l0 82 -25 0 0 -192zm259 96c8,-8 12,-18 12,-31 0,-13 -4,-24 -13,-31 -9,-8 -19,-11 -31,-12 -12,0 -22,4 -30,12 -8,8 -12,18 -12,31 0,13 4,23 12,31 8,8 18,12 30,12 12,0 22,-4 30,-12zm38 34l-25 0 0 -20c-4,7 -10,12 -18,16 -8,4 -17,6 -27,6 -18,0 -34,-6 -47,-19 -13,-13 -19,-29 -19,-49 0,-20 6,-36 19,-49 13,-12 28,-19 47,-19 9,0 18,2 27,6 9,4 15,10 18,16l0 -19 25 0 0 129zm37 -129l110 0 0 21 -79 85 79 0 0 24 -114 0 0 -21 77 -84 -73 0 0 -24zm234 96c8,-8 12,-18 12,-31 0,-13 -4,-24 -13,-31 -9,-8 -19,-11 -31,-12 -12,0 -22,4 -30,12 -8,8 -12,18 -12,31 0,13 4,23 12,31 8,8 18,12 30,12 12,0 22,-4 30,-12zm38 34l-25 0 0 -20c-4,7 -10,12 -18,16 -8,4 -17,6 -27,6 -18,0 -34,-6 -47,-19 -13,-13 -19,-29 -19,-49 0,-20 6,-36 19,-49 13,-12 28,-19 47,-19 9,0 18,2 27,6 9,4 15,10 18,16l0 -19 25 0 0 129zm156 -70l0 70 -25 0 0 -73c0,-11 -3,-19 -8,-25 -5,-6 -12,-9 -22,-9 -9,0 -18,3 -24,10 -7,6 -10,16 -10,28l0 70 -25 0 0 -129 25 0 0 20c3,-6 8,-11 15,-15 7,-4 14,-6 20,-6 25,-2 41,7 49,26 9,-18 24,-27 45,-27 16,0 29,5 37,15 9,10 13,24 13,42l0 75 -25 0 0 -73c0,-11 -3,-19 -8,-25 -6,-6 -13,-9 -23,-9 -10,0 -17,3 -24,10 -6,7 -10,16 -10,28zm220 36c8,-8 12,-18 12,-31 0,-13 -4,-24 -13,-31 -9,-8 -19,-11 -31,-12 -12,0 -22,4 -30,12 -8,8 -12,18 -12,31 0,13 4,23 12,31 8,8 18,12 30,12 12,0 22,-4 30,-12zm38 34l-25 0 0 -20c-4,7 -10,12 -18,16 -8,4 -17,6 -27,6 -18,0 -34,-6 -47,-19 -13,-13 -19,-29 -19,-49 0,-20 6,-36 19,-49 13,-12 28,-19 47,-19 9,0 18,2 27,6 9,4 15,10 18,16l0 -19 25 0 0 129zm42 0l0 -200 25 0 0 200 -25 0zm67 0l0 -200 25 0 0 200 -25 0zm65 -14c0,-5 2,-9 5,-12 4,-3 8,-5 13,-5 5,0 9,2 13,5 4,3 5,7 5,13 0,5 -2,9 -6,12 -4,3 -8,5 -13,5 -5,0 -9,-2 -13,-5 -4,-3 -5,-7 -5,-12zm137 -118c20,0 36,7 49,21l-19 16c-8,-8 -18,-12 -30,-12 -12,0 -23,4 -31,12 -9,8 -13,18 -13,31 0,13 4,23 13,31 9,8 19,12 31,12 12,0 22,-4 30,-13l20 16c-13,14 -29,21 -49,21 -20,0 -36,-6 -50,-19 -14,-13 -20,-29 -20,-49 0,-20 7,-36 20,-49 13,-12 30,-19 50,-19zm170 99c8,-8 12,-18 12,-31 0,-13 -4,-23 -12,-31 -8,-8 -18,-12 -30,-12 -12,0 -22,4 -30,12 -8,8 -12,18 -12,31 0,13 4,23 12,31 8,8 18,12 30,12 12,0 22,-4 30,-12zm-30 36c-19,0 -35,-6 -48,-19 -13,-12 -20,-29 -20,-49 0,-20 7,-36 20,-49 13,-12 29,-19 48,-19 19,0 35,6 48,19 13,13 20,29 20,49 0,20 -7,36 -20,49 -13,13 -29,19 -48,19zm216 -72l0 70 -25 0 0 -73c0,-11 -3,-19 -8,-25 -5,-6 -12,-9 -22,-9 -9,0 -18,3 -24,10 -7,6 -10,16 -10,28l0 70 -25 0 0 -129 25 0 0 20c3,-6 8,-11 15,-15 7,-4 14,-6 20,-6 25,-2 41,7 49,26 9,-18 24,-27 45,-27 16,0 29,5 37,15 9,10 13,24 13,42l0 75 -25 0 0 -73c0,-11 -3,-19 -8,-25 -6,-6 -13,-9 -23,-9 -10,0 -17,3 -24,10 -6,7 -10,16 -10,28z"/>
   <path class="fil1" d="M1285 3917l4146 0c131,0 238,106 238,235l0 6446c0,129 -107,235 -238,235l-4146 0c-131,0 -238,-106 -238,-235l0 -6446c0,-129 107,-235 238,-235z"/>
   <path class="fil4" d="M1409 4366l-54 0 0 82 52 0c12,0 21,-4 27,-11 6,-8 9,-18 9,-30 0,-12 -3,-22 -9,-29 -6,-8 -14,-11 -26,-11zm-54 109l0 82 -30 0 0 -219 84 0c21,0 38,7 48,20 11,13 16,29 16,48 0,18 -5,34 -14,47 -9,13 -23,20 -42,22l59 83 -36 0 -57 -82 -28 0zm301 7c0,7 0,10 0,11l-120 0c1,12 7,22 16,30 9,7 19,11 30,11 21,0 36,-8 45,-23 0,0 1,0 1,0 0,0 1,1 2,1 1,1 3,1 5,2 2,1 4,1 5,2l12 4c-6,12 -15,22 -28,29 -12,7 -26,10 -41,10 -21,0 -39,-7 -54,-21 -14,-14 -21,-33 -21,-56 0,-23 7,-42 21,-56 14,-14 32,-21 54,-21 22,0 40,7 53,21 14,14 21,33 21,56zm-43 -41c-8,-7 -19,-11 -31,-11 -12,0 -23,4 -32,11 -9,8 -14,17 -15,29l92 0c-1,-12 -6,-22 -15,-29zm123 6c-9,9 -14,21 -14,36 0,15 5,27 15,35 10,8 21,13 35,13 13,0 25,-4 34,-13 9,-9 13,-20 13,-35 0,-14 -5,-26 -14,-36 -9,-9 -21,-14 -35,-14 -14,0 -25,4 -34,13zm-43 -39l29 0 0 23c5,-8 12,-15 21,-19 9,-5 19,-7 31,-7 21,0 38,7 53,22 14,14 21,33 21,56 0,23 -7,42 -21,56 -14,14 -32,21 -53,21 -11,0 -22,-2 -31,-7 -9,-4 -16,-11 -21,-19l0 94 -29 0 0 -220zm296 110c9,-9 14,-21 14,-36 0,-15 -5,-27 -14,-36 -9,-9 -21,-13 -35,-14 -14,0 -25,4 -35,13 -9,9 -14,21 -14,36 0,15 5,27 14,36 9,9 21,14 35,14 14,0 26,-5 35,-14zm-35 41c-22,0 -40,-7 -55,-21 -15,-14 -23,-33 -23,-56 0,-23 7,-42 22,-56 15,-14 33,-21 55,-21 22,0 40,7 55,21 15,14 22,33 22,56 0,23 -8,41 -23,56 -15,14 -33,22 -55,22zm145 -57l0 54 -29 0 0 -148 29 0 0 33c7,-24 21,-37 41,-37 12,0 20,2 26,6l-4 27c-7,-3 -14,-5 -22,-5 -13,0 -23,6 -30,19 -7,13 -11,30 -11,51zm136 -149l0 54 31 0 0 26 -31 0 0 123 -29 0 0 -123 -27 0 0 -26 27 0 0 -54 29 0zm74 62c10,-7 22,-11 36,-11 14,0 26,4 35,11 9,7 14,17 16,31l-28 0c-1,-5 -3,-9 -8,-12 -5,-3 -10,-4 -16,-4 -6,0 -10,1 -14,4 -4,2 -7,5 -8,10 -1,5 -1,8 0,11 2,5 8,8 17,11l22 5c26,6 38,21 38,43 0,13 -6,24 -17,33 -11,8 -24,12 -40,12 -15,0 -28,-4 -39,-13 -11,-9 -17,-20 -17,-35l27 0c1,8 5,13 12,17 6,4 13,6 21,5 8,0 13,-2 17,-6 4,-4 6,-8 7,-13 0,-5 -1,-9 -5,-12 -4,-3 -9,-5 -15,-7l-20 -5c-14,-4 -25,-10 -32,-17 -7,-8 -9,-18 -8,-29 1,-12 7,-21 16,-29zm314 103c9,-9 14,-21 14,-36 0,-15 -5,-27 -14,-36 -9,-9 -21,-13 -35,-14 -14,0 -25,4 -35,13 -9,9 -14,21 -14,36 0,15 5,27 14,36 9,9 21,14 35,14 14,0 26,-5 35,-14zm-35 41c-22,0 -40,-7 -55,-21 -15,-14 -23,-33 -23,-56 0,-23 7,-42 22,-56 15,-14 33,-21 55,-21 22,0 40,7 55,21 15,14 22,33 22,56 0,23 -8,41 -23,56 -15,14 -33,22 -55,22zm159 -3l-62 -148 30 0 45 111 45 -111 31 0 -90 148zm259 -75c0,7 0,10 0,11l-120 0c1,12 7,22 16,30 9,7 19,11 30,11 21,0 36,-8 45,-23 0,0 1,0 1,0 0,0 1,1 2,1 1,1 3,1 5,2 2,1 4,1 5,2l12 4c-6,12 -15,22 -28,29 -12,7 -26,10 -41,10 -21,0 -39,-7 -54,-21 -14,-14 -21,-33 -21,-56 0,-23 7,-42 21,-56 14,-14 32,-21 54,-21 22,0 40,7 53,21 14,14 21,33 21,56zm-43 -41c-8,-7 -19,-11 -31,-11 -12,0 -23,4 -32,11 -9,8 -14,17 -15,29l92 0c-1,-12 -6,-22 -15,-29zm109 61l0 54 -29 0 0 -148 29 0 0 33c7,-24 21,-37 41,-37 12,0 20,2 26,6l-4 27c-7,-3 -14,-5 -22,-5 -13,0 -23,6 -30,19 -7,13 -11,30 -11,51zm139 54l-62 -148 30 0 45 111 45 -111 31 0 -90 148zm119 -190c-4,-4 -6,-8 -6,-13 0,-5 2,-10 6,-13 4,-4 9,-5 14,-5 5,0 10,2 14,5 4,4 6,8 6,13 0,5 -2,10 -6,14 -4,3 -9,5 -14,5 -5,0 -10,-2 -14,-5zm29 190l-29 0 0 -148 29 0 0 148zm188 -75c0,7 0,10 0,11l-120 0c1,12 7,22 16,30 9,7 19,11 30,11 21,0 36,-8 45,-23 0,0 1,0 1,0 0,0 1,1 2,1 1,1 3,1 5,2 2,1 4,1 5,2l12 4c-6,12 -15,22 -28,29 -12,7 -26,10 -41,10 -21,0 -39,-7 -54,-21 -14,-14 -21,-33 -21,-56 0,-23 7,-42 21,-56 14,-14 32,-21 54,-21 22,0 40,7 53,21 14,14 21,33 21,56zm-43 -41c-8,-7 -19,-11 -31,-11 -12,0 -23,4 -32,11 -9,8 -14,17 -15,29l92 0c-1,-12 -6,-22 -15,-29zm300 -33l-55 148 -24 0 -40 -109 -39 109 -24 0 -56 -148 31 0 37 104 37 -104 28 0 37 104 37 -104 31 0z"/>
   <path class="fil5" d="M1411 8067l-54 0 0 82 52 0c12,0 21,-4 27,-11 6,-8 9,-18 9,-30 0,-12 -3,-22 -9,-29 -6,-8 -14,-11 -26,-11zm-54 109l0 82 -30 0 0 -219 84 0c21,0 38,7 48,20 11,13 16,29 16,48 0,18 -5,34 -14,47 -9,13 -23,20 -42,22l59 83 -36 0 -57 -82 -28 0zm157 -125l143 0 -114 207 -33 0 99 -179 -95 0 0 -28zm233 183c16,0 28,-4 37,-11 8,-8 13,-18 13,-30 0,-12 -4,-22 -12,-29 -8,-7 -17,-11 -28,-11 -11,0 -20,1 -27,4 -7,2 -16,7 -27,14l-18 -15 18 -103 110 0 0 28 -87 0 -11 59c5,-4 11,-7 19,-9 8,-2 14,-3 20,-3 20,0 36,6 50,18 14,12 20,28 20,49 0,21 -7,38 -21,51 -14,13 -33,19 -56,19 -14,0 -28,-4 -41,-13 -13,-9 -22,-21 -28,-35l25 -13c4,10 10,18 18,24 7,6 16,9 26,9zm121 64l-20 -7c15,-21 22,-44 22,-70l30 0c-1,18 -5,33 -11,46 -6,13 -12,23 -20,30zm138 -137l-23 0 0 -28 23 0c7,0 13,-2 19,-6 5,-5 9,-11 10,-19 1,-8 0,-15 -4,-20 -5,-7 -13,-11 -24,-12 -15,-1 -27,5 -36,19l-21 -17c6,-10 14,-18 25,-23 11,-5 23,-8 35,-7 17,1 31,7 41,18 11,11 17,24 16,39 0,4 -1,8 -2,13 -4,12 -11,22 -22,28 11,4 19,11 25,22 6,11 9,22 8,34 -2,18 -10,32 -25,43 -15,11 -32,16 -51,15 -14,-1 -26,-5 -37,-13 -11,-8 -19,-18 -25,-30l25 -14c4,8 9,15 16,19 7,5 14,9 23,9 12,1 22,-2 31,-9 9,-7 14,-15 14,-25 0,-10 -4,-19 -12,-26 -8,-7 -18,-11 -29,-11zm220 52c7,-13 11,-33 11,-58 0,-26 -4,-45 -11,-58 -7,-13 -19,-20 -36,-20 -16,0 -28,7 -36,20 -7,13 -11,33 -11,58 0,26 4,45 11,58 7,13 19,20 36,20 16,0 28,-7 36,-20zm-111 -58c0,-31 5,-56 15,-75 12,-21 32,-31 61,-31 29,0 49,10 60,31 10,18 15,43 15,75 0,32 -5,57 -15,75 -11,21 -31,31 -60,31 -50,0 -76,-35 -76,-106zm281 -36c5,-5 7,-11 7,-18 0,-7 -3,-13 -8,-17 -5,-5 -11,-7 -19,-7 -8,0 -14,2 -19,7 -5,4 -8,10 -8,17 0,7 2,13 7,18 5,5 11,7 18,8l3 0c8,0 14,-3 19,-8zm-63 75c0,11 4,20 12,28 8,8 19,11 30,11 12,0 22,-4 30,-11 8,-8 12,-17 12,-28 0,-11 -4,-20 -12,-28 -8,-8 -18,-12 -31,-12l-2 0c-11,0 -21,5 -29,12 -8,8 -12,17 -12,28zm3 -56c-10,-10 -15,-22 -15,-37 0,-15 5,-27 16,-37 11,-10 24,-15 39,-15 16,0 29,5 39,15 11,10 16,22 16,37 0,15 -6,27 -17,37 10,6 18,14 24,24 6,10 8,21 8,32 0,19 -7,35 -21,48 -14,13 -31,20 -51,20 -20,0 -37,-6 -51,-19 -14,-13 -20,-29 -21,-48 0,-11 3,-22 8,-32 6,-10 13,-18 23,-24zm151 104c0,-6 2,-10 6,-14 4,-4 9,-6 15,-6 6,0 11,2 15,6 4,4 6,9 6,14 0,6 -2,10 -6,14 -4,4 -9,6 -15,6 -6,0 -10,-2 -15,-5 -4,-4 -6,-9 -6,-14zm195 -29c7,-13 11,-33 11,-58 0,-26 -4,-45 -11,-58 -7,-13 -19,-20 -36,-20 -16,0 -28,7 -36,20 -7,13 -11,33 -11,58 0,26 4,45 11,58 7,13 19,20 36,20 16,0 28,-7 36,-20zm-111 -58c0,-31 5,-56 15,-75 12,-21 32,-31 61,-31 29,0 49,10 60,31 10,18 15,43 15,75 0,32 -5,57 -15,75 -11,21 -31,31 -60,31 -50,0 -76,-35 -76,-106zm303 58c7,-13 11,-33 11,-58 0,-26 -4,-45 -11,-58 -7,-13 -19,-20 -36,-20 -16,0 -28,7 -36,20 -7,13 -11,33 -11,58 0,26 4,45 11,58 7,13 19,20 36,20 16,0 28,-7 36,-20zm-111 -58c0,-31 5,-56 15,-75 12,-21 32,-31 61,-31 29,0 49,10 60,31 10,18 15,43 15,75 0,32 -5,57 -15,75 -11,21 -31,31 -60,31 -50,0 -76,-35 -76,-106z"/>
   <path class="fil3" d="M1325 7534l0 -24 141 0 0 24 -58 0 0 166 -26 0 0 -166 -58 0zm259 133c8,-8 12,-18 12,-31 0,-13 -4,-23 -12,-31 -8,-8 -18,-12 -30,-12 -12,0 -22,4 -30,12 -8,8 -12,18 -12,31 0,13 4,23 12,31 8,8 18,12 30,12 12,0 22,-4 30,-12zm-30 36c-19,0 -35,-6 -48,-19 -13,-12 -20,-29 -20,-49 0,-20 6,-36 19,-49 13,-12 29,-19 48,-18 19,0 35,6 48,19 13,12 20,29 20,48 0,20 -7,36 -20,48 -13,12 -29,19 -48,19zm135 -178l0 47 27 0 0 22 -27 0 0 106 -25 0 0 -106 -23 0 0 -22 23 0 0 -47 25 0zm145 142c8,-8 12,-18 12,-31 0,-13 -4,-23 -13,-31 -9,-8 -19,-11 -30,-11 -12,0 -21,4 -29,12 -8,8 -12,18 -12,30 0,13 4,23 12,31 8,8 18,12 30,12 12,0 22,-4 30,-12zm38 33l-25 0 0 -20c-4,7 -10,12 -18,16 -8,4 -17,6 -27,6 -18,0 -33,-6 -46,-19 -13,-12 -19,-29 -19,-48 0,-20 6,-36 19,-48 12,-12 28,-19 47,-19 9,0 18,2 27,6 8,4 15,10 18,16l0 -19 25 0 0 129zm42 0l0 -199 25 0 0 199 -25 0zm147 -122c9,-6 19,-9 31,-9 12,0 22,3 30,9 8,6 13,15 14,27l-24 0c-1,-4 -3,-8 -7,-10 -4,-2 -8,-4 -13,-4 -5,0 -9,1 -12,3 -4,2 -6,5 -7,9 -1,4 -1,7 0,10 2,4 7,7 15,10l19 5c22,5 33,18 33,38 0,12 -5,21 -15,28 -10,7 -21,10 -34,10 -13,0 -25,-4 -34,-11 -10,-8 -15,-18 -15,-30l24 0c1,7 4,12 10,15 6,4 12,5 18,5 7,0 12,-2 15,-5 4,-3 6,-7 6,-11 0,-4 -1,-8 -4,-11 -3,-3 -7,-5 -13,-6l-18 -4c-12,-3 -22,-8 -27,-15 -6,-7 -8,-15 -7,-26 1,-10 6,-18 14,-25zm201 89c8,-8 12,-18 12,-31 0,-13 -4,-23 -13,-31 -9,-8 -19,-11 -30,-11 -12,0 -21,4 -29,12 -8,8 -12,18 -12,30 0,13 4,23 12,31 8,8 18,12 30,12 12,0 22,-4 30,-12zm38 33l-25 0 0 -20c-4,7 -10,12 -18,16 -8,4 -17,6 -27,6 -18,0 -33,-6 -46,-19 -13,-12 -19,-29 -19,-48 0,-20 6,-36 19,-48 12,-12 28,-19 47,-19 9,0 18,2 27,6 8,4 15,10 18,16l0 -19 25 0 0 129zm42 0l0 -199 25 0 0 199 -25 0zm188 -65c0,6 0,9 0,10l-104 0c1,10 6,19 14,26 8,6 16,9 26,9 19,0 32,-7 39,-20 0,0 0,0 1,0 0,0 1,1 2,1 1,0 2,1 4,2 2,1 3,1 4,2l11 4c-5,11 -13,19 -24,25 -11,6 -22,9 -35,9 -18,0 -34,-6 -47,-19 -12,-12 -19,-29 -19,-49 0,-20 6,-36 19,-48 12,-12 28,-18 47,-18 19,0 34,6 46,18 12,12 18,28 18,48zm-38 -35c-7,-6 -16,-9 -27,-9 -11,0 -20,3 -27,9 -8,7 -12,15 -13,25l80 0c-1,-10 -5,-19 -13,-25zm78 -22c9,-6 19,-9 31,-9 12,0 22,3 30,9 8,6 13,15 14,27l-24 0c-1,-4 -3,-8 -7,-10 -4,-2 -8,-4 -13,-4 -5,0 -9,1 -12,3 -4,2 -6,5 -7,9 -1,4 -1,7 0,10 2,4 7,7 15,10l19 5c22,5 33,18 33,38 0,12 -5,21 -15,28 -10,7 -21,10 -34,10 -13,0 -25,-4 -34,-11 -10,-8 -15,-18 -15,-30l24 0c1,7 4,12 10,15 6,4 12,5 18,5 7,0 12,-2 15,-5 4,-3 6,-7 6,-11 0,-4 -1,-8 -4,-11 -3,-3 -7,-5 -13,-6l-18 -4c-12,-3 -22,-8 -27,-15 -6,-7 -8,-15 -7,-26 1,-10 6,-18 14,-25z"/>
   <polygon class="fil6" points="1325,7137 5390,7137 5390,7179 1325,7179 "/>
   <g>
    <path class="fil7" d="M2669 10218l626 -226 10 27 -626 226 -14 -2 4 -25zm10 27l-8 3 -6 -5 14 2zm-688 -572l692 548 -18 23 -692 -548 4 -25 14 2zm-14 -2l8 -3 6 5 -14 -2zm-507 188l507 -188 10 27 -507 188 -2 1 -8 -28zm8 28l-170 32 162 -60 8 28zm521 -99l-521 99 -5 -28 521 -99 8 1 -3 27zm-5 -28l4 -1 4 2 -8 -1zm683 317l-686 -290 11 -27 686 290 4 24 -15 3zm15 -3l-7 6 -9 -4 15 -3zm635 -593l-635 593 -20 -21 635 -593 20 21z"/>
   </g>
   <g>
    <path class="fil8" d="M2724 9565l591 183 -9 28 -591 -183 -2 -27 10 -1zm-10 1l5 -2 5 2 -10 1zm-713 320l713 -320 12 26 -713 320 -5 1 -6 -28zm12 26l-3 1 -3 0 5 -1zm-596 -3l590 -24 1 29 -590 24 -4 0 2 -28zm-2 28l-109 -24 112 -5 -2 28zm584 127l-584 -127 6 -28 584 127 2 27 -9 1zm9 -1l-4 2 -4 -1 9 -1zm743 -306l-743 306 -11 -27 743 -306 12 26 -1 1zm1 -1l-1 0 -1 0 1 -1zm566 -296l-566 296 -13 -26 566 -296 3 -1 11 27zm-13 -26l1 -1 1 0 -3 1zm2088 -603l-2077 629 -8 -28 2077 -629 8 28z"/>
   </g>
   <g>
    <path class="fil7" d="M5359 9244l-3 -29 29 -3 3 29 -29 3zm-57 7l-3 -29 29 -3 3 29 -29 3zm-57 7l-3 -29 29 -3 3 29 -29 3zm-57 7l-3 -29 29 -3 3 29 -29 3zm-57 7l-3 -29 29 -3 3 29 -29 3zm-57 7l-3 -29 29 -3 3 29 -29 3zm-57 7l-3 -29 29 -3 3 29 -29 3zm-57 7l-3 -29 29 -3 3 29 -29 3zm-57 7l-3 -29 29 -3 3 29 -29 3zm-57 7l-3 -29 29 -3 3 29 -29 3zm-57 7l-3 -29 29 -3 3 29 -29 3zm-57 7l-3 -29 29 -3 3 29 -29 3zm-57 7l-3 -29 29 -3 3 29 -29 3zm-57 7l-3 -29 29 -3 3 29 -29 3zm-57 7l-3 -29 29 -3 3 29 -29 3zm-57 7l-3 -29 29 -3 3 29 -29 3zm-57 7l-3 -29 29 -3 3 29 -29 3zm-57 7l-3 -29 29 -3 3 29 -29 3zm-57 7l-3 -29 29 -3 3 29 -29 3zm-57 7l-3 -29 29 -3 3 29 -29 3zm-57 7l-3 -29 29 -3 3 29 -29 3zm-57 7l-3 -29 29 -3 3 29 -29 3zm-57 7l-3 -29 29 -3 3 29 -29 3zm-57 7l-3 -29 29 -3 3 29 -29 3zm-57 7l-3 -29 29 -3 3 29 -29 3zm-57 7l-3 -29 29 -3 3 29 -29 3zm-57 7l-3 -29 29 -3 3 29 -29 3zm-57 7l-3 -29 29 -3 3 29 -29 3zm-57 7l-3 -29 29 -3 3 29 -29 3zm-57 7l-3 -29 29 -3 3 29 -29 3zm-57 7l-3 -29 29 -3 3 29 -29 3zm-57 7l-3 -29 29 -3 3 29 -29 3zm-57 7l-3 -29 29 -3 3 29 -29 3zm-57 7l-3 -29 29 -3 3 29 -29 3zm-57 7l-3 -29 29 -3 3 29 -29 3zm-55 -23l23 -3 3 29 -23 3 -3 -29z"/>
   </g>
   <g>
    <polygon class="fil9" points="5390,10545 1317,10569 1317,10540 5390,10516 "/>
   </g>
   <g>
    <polygon class="fil9" points="1302,10592 1303,10514 1331,10514 1331,10593 "/>
   </g>
   <g>
    <polygon class="fil9" points="1985,10588 1984,10512 2012,10512 2013,10588 "/>
   </g>
   <g>
    <polygon class="fil9" points="2645,10584 2642,10510 2671,10509 2674,10583 "/>
   </g>
   <g>
    <polygon class="fil9" points="3290,10578 3289,10510 3318,10510 3319,10578 "/>
   </g>
   <g>
    <path class="fil10" d="M2866 4928l983 0c80,0 145,65 145,145l0 175c0,80 -65,145 -145,145l-983 0c-80,0 -145,-65 -145,-145l0 -175c0,-80 65,-145 145,-145z"/>
    <path id="1" class="fil11" d="M3849 4940l-983 0 0 -24 983 0 0 0 0 24zm157 134l-24 0 0 0 0 -7 -1 -7 -1 -7 -1 -7 -2 -6 -2 -6 -2 -6 -2 -6 -3 -6 -3 -6 -3 -6 -3 -5 -4 -5 -4 -5 -4 -5 -4 -5 -5 -4 -5 -4 -5 -4 -5 -4 -5 -3 -6 -3 -6 -3 -6 -3 -6 -2 -6 -2 -6 -2 -6 -1 -7 -1 -7 -1 -7 -1 -7 0 0 -24 8 0 8 1 8 1 8 1 8 2 7 2 7 2 7 3 7 3 7 3 7 4 6 4 6 4 6 5 6 5 5 5 5 5 5 6 5 6 4 6 4 6 4 7 3 7 3 7 3 7 2 7 2 7 2 8 1 8 1 8 1 8 0 8 0 0zm-24 175l0 -175 24 0 0 175 0 0 -24 0zm-133 157l0 -24 0 0 7 0 7 -1 7 -1 7 -1 6 -1 6 -2 6 -2 6 -2 6 -3 6 -3 6 -3 5 -3 5 -4 5 -4 5 -4 5 -4 4 -5 4 -5 4 -5 4 -5 3 -5 3 -6 3 -6 3 -6 2 -6 2 -6 2 -6 2 -6 1 -7 1 -7 1 -7 0 -7 24 0 0 8 -1 8 -1 8 -1 8 -2 8 -2 7 -2 7 -3 7 -3 7 -3 7 -4 7 -4 6 -4 6 -5 6 -5 6 -5 5 -5 5 -6 5 -6 5 -6 4 -6 4 -7 4 -7 3 -7 3 -7 3 -7 2 -7 2 -8 2 -8 1 -8 1 -8 1 -8 0 0 0zm-983 -24l983 0 0 24 -983 0 0 0 0 -24zm-157 -134l24 0 0 0 0 7 1 7 1 7 1 7 2 6 2 6 2 6 2 6 3 6 3 6 3 6 3 5 4 5 4 5 4 5 4 5 5 4 5 4 5 4 5 4 5 3 6 3 6 3 6 3 6 2 6 2 6 2 6 1 7 1 7 1 7 1 7 0 0 24 -8 0 -8 -1 -8 -1 -8 -1 -8 -2 -7 -2 -7 -2 -7 -3 -7 -3 -7 -3 -7 -4 -6 -4 -6 -4 -6 -5 -6 -5 -5 -5 -5 -5 -5 -6 -5 -6 -4 -6 -4 -6 -4 -7 -3 -7 -3 -7 -3 -7 -2 -7 -2 -7 -2 -8 -1 -8 -1 -8 -1 -8 0 -8 0 0zm24 -175l0 175 -24 0 0 -175 0 0 24 0zm133 -157l0 24 0 0 -7 0 -7 1 -7 1 -7 1 -6 1 -6 2 -6 2 -6 2 -6 3 -6 3 -6 3 -5 3 -5 4 -5 4 -5 4 -5 4 -4 5 -4 5 -4 5 -4 5 -3 5 -3 6 -3 6 -3 6 -2 6 -2 6 -2 6 -2 6 -1 7 -1 7 -1 7 0 7 -24 0 0 -8 1 -8 1 -8 1 -8 2 -8 2 -7 2 -7 3 -7 3 -7 3 -7 4 -7 4 -6 4 -6 5 -6 5 -6 5 -5 5 -5 6 -5 6 -5 6 -4 6 -4 7 -4 7 -3 7 -3 7 -3 7 -2 7 -2 8 -2 8 -1 8 -1 8 -1 8 0 0 0z"/>
   </g>
   <path class="fil12" d="M1474 4928l1000 0c75,0 137,62 137,137l0 192c0,75 -62,137 -137,137l-1000 0c-75,0 -137,-62 -137,-137l0 -192c0,-75 62,-137 137,-137z"/>
   <path class="fil3" d="M1529 5116l0 -16 93 0 0 16 -38 0 0 109 -17 0 0 -109 -38 0zm128 63l0 46 -16 0 0 -130 16 0 0 59c2,-5 6,-8 12,-11 6,-2 11,-4 16,-4 11,0 19,3 25,10 6,7 9,16 9,27l0 49 -16 0 0 -48c0,-7 -2,-12 -6,-16 -4,-4 -9,-6 -15,-6 -6,0 -12,2 -17,6 -5,4 -8,10 -8,19zm88 -62c-2,-2 -3,-5 -3,-8 0,-3 1,-6 3,-8 2,-2 5,-3 8,-3 3,0 6,1 8,3 2,2 3,5 3,8 0,3 -1,6 -3,8 -2,2 -5,3 -8,3 -3,0 -6,-1 -8,-3zm16 108l-16 0 0 -84 16 0 0 84zm33 -80c6,-4 12,-6 20,-6 8,0 15,2 20,6 5,4 8,10 9,18l-16 0c0,-3 -2,-5 -4,-7 -3,-2 -6,-2 -9,-2 -3,0 -6,1 -8,2 -2,1 -4,3 -5,6 -1,3 -1,5 0,6 1,3 5,5 10,6l12 3c15,4 22,12 22,25 0,8 -3,14 -10,18 -6,5 -14,7 -23,7 -9,0 -16,-2 -22,-7 -6,-5 -10,-12 -10,-20l16 0c1,4 3,8 7,10 4,2 8,3 12,3 4,0 8,-1 10,-3 2,-2 4,-5 4,-8 0,-3 -1,-5 -3,-7 -2,-2 -5,-3 -8,-4l-12 -3c-8,-2 -14,-5 -18,-10 -4,-4 -5,-10 -5,-17 1,-7 4,-12 9,-16zm195 35l0 45 -16 0 0 -48c0,-7 -2,-12 -5,-16 -3,-4 -8,-6 -14,-6 -6,0 -11,2 -16,6 -4,4 -7,10 -7,18l0 45 -16 0 0 -84 16 0 0 13c2,-4 5,-7 10,-10 5,-3 9,-4 13,-4 16,-1 27,5 32,17 6,-12 16,-18 29,-18 11,0 19,3 24,10 6,6 8,16 8,28l0 49 -16 0 0 -48c0,-7 -2,-12 -5,-16 -4,-4 -9,-6 -15,-6 -6,0 -11,2 -15,7 -4,5 -6,10 -6,18zm143 24c5,-5 8,-12 8,-20 0,-8 -3,-15 -8,-20 -5,-5 -12,-8 -20,-8 -8,0 -14,3 -20,8 -5,5 -8,12 -8,20 0,8 3,15 8,20 5,5 12,8 20,8 8,0 15,-3 20,-8zm-20 24c-12,0 -23,-4 -31,-12 -9,-8 -13,-19 -13,-32 0,-13 4,-24 13,-32 8,-8 19,-12 31,-12 13,0 23,4 31,12 9,8 13,19 13,32 0,13 -4,24 -13,32 -9,8 -19,12 -31,12zm82 -47l0 46 -16 0 0 -84 16 0 0 13c2,-5 6,-8 11,-11 5,-2 10,-4 16,-4 11,0 19,3 24,10 6,6 8,16 9,28l0 49 -16 0 0 -48c0,-7 -2,-13 -5,-16 -3,-4 -8,-6 -14,-6 -6,0 -12,2 -16,6 -4,4 -7,10 -7,18zm108 -70l0 31 18 0 0 15 -18 0 0 70 -16 0 0 -70 -15 0 0 -15 15 0 0 -31 16 0zm53 70l0 46 -16 0 0 -130 16 0 0 59c2,-5 6,-8 12,-11 6,-2 11,-4 16,-4 11,0 19,3 25,10 6,7 9,16 9,27l0 49 -16 0 0 -48c0,-7 -2,-12 -6,-16 -4,-4 -9,-6 -15,-6 -6,0 -12,2 -17,6 -5,4 -8,10 -8,19z"/>
   <path class="fil3" d="M2955 5116l0 -16 93 0 0 16 -38 0 0 109 -17 0 0 -109 -38 0zm128 63l0 46 -16 0 0 -130 16 0 0 59c2,-5 6,-8 12,-11 6,-2 11,-4 16,-4 11,0 19,3 25,10 6,7 9,16 9,27l0 49 -16 0 0 -48c0,-7 -2,-12 -6,-16 -4,-4 -9,-6 -15,-6 -6,0 -12,2 -17,6 -5,4 -8,10 -8,19zm88 -62c-2,-2 -3,-5 -3,-8 0,-3 1,-6 3,-8 2,-2 5,-3 8,-3 3,0 6,1 8,3 2,2 3,5 3,8 0,3 -1,6 -3,8 -2,2 -5,3 -8,3 -3,0 -6,-1 -8,-3zm16 108l-16 0 0 -84 16 0 0 84zm33 -80c6,-4 12,-6 20,-6 8,0 15,2 20,6 5,4 8,10 9,18l-16 0c0,-3 -2,-5 -4,-7 -3,-2 -6,-2 -9,-2 -3,0 -6,1 -8,2 -2,1 -4,3 -5,6 -1,3 -1,5 0,6 1,3 5,5 10,6l12 3c15,4 22,12 22,25 0,8 -3,14 -10,18 -6,5 -14,7 -23,7 -9,0 -16,-2 -22,-7 -6,-5 -10,-12 -10,-20l16 0c1,4 3,8 7,10 4,2 8,3 12,3 4,0 8,-1 10,-3 2,-2 4,-5 4,-8 0,-3 -1,-5 -3,-7 -2,-2 -5,-3 -8,-4l-12 -3c-8,-2 -14,-5 -18,-10 -4,-4 -5,-10 -5,-17 1,-7 4,-12 9,-16zm246 -4l-31 84 -14 0 -23 -62 -22 62 -13 0 -32 -84 18 0 21 59 21 -59 16 0 21 59 21 -59 18 0zm97 42c0,4 0,6 0,6l-69 0c1,7 4,12 9,17 5,4 11,6 17,6 12,0 21,-4 26,-13 0,0 0,0 1,0 0,0 1,0 1,1 1,0 2,1 3,1 1,0 2,1 3,1l7 3c-3,7 -9,13 -16,16 -7,4 -15,6 -23,6 -12,0 -22,-4 -31,-12 -8,-8 -12,-19 -12,-32 0,-13 4,-24 12,-32 8,-8 18,-12 31,-12 12,0 23,4 30,12 8,8 12,19 12,32zm-25 -23c-5,-4 -11,-6 -17,-6 -7,0 -13,2 -18,6 -5,4 -8,10 -9,17l52 0c-1,-7 -4,-12 -8,-17zm125 23c0,4 0,6 0,6l-69 0c1,7 4,12 9,17 5,4 11,6 17,6 12,0 21,-4 26,-13 0,0 0,0 1,0 0,0 1,0 1,1 1,0 2,1 3,1 1,0 2,1 3,1l7 3c-3,7 -9,13 -16,16 -7,4 -15,6 -23,6 -12,0 -22,-4 -31,-12 -8,-8 -12,-19 -12,-32 0,-13 4,-24 12,-32 8,-8 18,-12 31,-12 12,0 23,4 30,12 8,8 12,19 12,32zm-25 -23c-5,-4 -11,-6 -17,-6 -7,0 -13,2 -18,6 -5,4 -8,10 -9,17l52 0c-1,-7 -4,-12 -8,-17zm62 66l-16 0 0 -130 16 0 0 75 29 -29 22 0 -36 36 45 48 -22 0 -38 -41 0 41z"/>
   <g>
    <path class="fil10" d="M2864 6287l988 0c79,0 143,64 143,143l0 180c0,79 -64,143 -143,143l-988 0c-79,0 -143,-64 -143,-143l0 -180c0,-79 64,-143 143,-143z"/>
    <path id="1" class="fil11" d="M3852 6299l-988 0 0 -24 988 0 0 0 0 24zm155 131l-24 0 0 0 0 -7 -1 -7 -1 -7 -1 -6 -1 -6 -2 -6 -2 -6 -2 -6 -3 -6 -3 -6 -3 -6 -3 -5 -4 -5 -4 -5 -4 -5 -4 -5 -5 -4 -5 -4 -5 -4 -5 -4 -5 -3 -5 -3 -6 -3 -6 -3 -6 -2 -6 -2 -6 -2 -6 -1 -6 -1 -7 -1 -7 -1 -7 0 0 -24 8 0 8 1 8 1 8 1 7 2 7 2 7 2 7 3 7 3 7 3 6 4 6 4 6 4 6 5 6 5 5 5 5 5 5 6 5 6 4 6 4 6 4 6 3 7 3 7 3 7 2 7 2 7 2 7 1 8 1 8 1 8 0 8 0 0zm-24 180l0 -180 24 0 0 180 0 0 -24 0zm-131 155l0 -24 0 0 7 0 7 -1 7 -1 6 -1 6 -1 6 -2 6 -2 6 -2 6 -3 6 -3 5 -3 5 -3 5 -4 5 -4 5 -4 5 -4 4 -5 4 -5 4 -5 4 -5 3 -5 3 -6 3 -6 3 -6 2 -6 2 -6 2 -6 1 -6 1 -6 1 -7 1 -7 0 -7 24 0 0 8 -1 8 -1 8 -1 8 -2 7 -2 7 -2 7 -3 7 -3 7 -3 7 -4 6 -4 6 -4 6 -5 6 -5 6 -5 5 -5 5 -6 5 -6 5 -6 4 -6 4 -6 4 -7 3 -7 3 -7 3 -7 2 -7 2 -7 2 -8 1 -8 1 -8 1 -8 0 0 0zm-988 -24l988 0 0 24 -988 0 0 0 0 -24zm-155 -131l24 0 0 0 0 7 1 7 1 7 1 6 1 6 2 6 2 6 2 6 3 6 3 6 3 5 3 5 4 5 4 5 4 5 4 5 5 4 5 4 5 4 5 4 5 3 5 3 6 3 6 3 6 2 6 2 6 2 6 1 6 1 7 1 7 1 7 0 0 24 -8 0 -8 -1 -8 -1 -8 -1 -7 -2 -7 -2 -7 -2 -7 -3 -7 -3 -7 -3 -6 -4 -6 -4 -6 -4 -6 -5 -6 -5 -5 -5 -5 -5 -5 -6 -5 -6 -4 -6 -4 -6 -4 -6 -3 -7 -3 -7 -3 -7 -2 -7 -2 -7 -2 -7 -1 -8 -1 -8 -1 -8 0 -8 0 0zm24 -180l0 180 -24 0 0 -180 0 0 24 0zm131 -155l0 24 0 0 -7 0 -7 1 -7 1 -6 1 -6 1 -6 2 -6 2 -6 2 -6 3 -6 3 -5 3 -5 3 -5 4 -5 4 -5 4 -5 4 -4 5 -4 5 -4 5 -4 5 -3 5 -3 6 -3 6 -3 6 -2 6 -2 6 -2 6 -1 6 -1 6 -1 7 -1 7 0 7 -24 0 0 -8 1 -8 1 -8 1 -8 2 -7 2 -7 2 -7 3 -7 3 -7 3 -7 4 -6 4 -6 4 -6 5 -6 5 -6 5 -5 5 -5 6 -5 6 -5 6 -4 6 -4 6 -4 7 -3 7 -3 7 -3 7 -2 7 -2 7 -2 8 -1 8 -1 8 -1 8 0 0 0z"/>
   </g>
   <path class="fil12" d="M1463 6287l1021 0c69,0 126,57 126,126l0 213c0,69 -57,126 -126,126l-1021 0c-69,0 -126,-57 -126,-126l0 -213c0,-69 57,-126 126,-126z"/>
   <path class="fil3" d="M1673 6440l44 91 44 -91 15 0 15 125 -17 0 -11 -94 -39 80 -15 0 -39 -80 -11 94 -17 0 15 -125 15 0zm200 103c5,-5 8,-12 8,-20 0,-8 -3,-15 -8,-20 -5,-5 -12,-8 -20,-8 -8,0 -14,3 -20,8 -5,5 -8,12 -8,20 0,8 3,15 8,20 5,5 12,8 20,8 8,0 15,-3 20,-8zm-20 24c-12,0 -23,-4 -31,-12 -9,-8 -13,-19 -13,-32 0,-13 4,-24 13,-32 8,-8 19,-12 31,-12 13,0 23,4 31,12 9,8 13,19 13,32 0,13 -4,24 -13,32 -9,8 -19,12 -31,12zm82 -47l0 46 -16 0 0 -84 16 0 0 13c2,-5 6,-8 11,-11 5,-2 10,-4 16,-4 11,0 19,3 24,10 6,6 8,16 9,28l0 49 -16 0 0 -48c0,-7 -2,-13 -5,-16 -3,-4 -8,-6 -14,-6 -6,0 -12,2 -16,6 -4,4 -7,10 -7,18zm108 -70l0 31 18 0 0 15 -18 0 0 70 -16 0 0 -70 -15 0 0 -15 15 0 0 -31 16 0zm53 70l0 46 -16 0 0 -130 16 0 0 59c2,-5 6,-8 12,-11 6,-2 11,-4 16,-4 11,0 19,3 25,10 6,7 9,16 9,27l0 49 -16 0 0 -48c0,-7 -2,-12 -6,-16 -4,-4 -9,-6 -15,-6 -6,0 -12,2 -17,6 -5,4 -8,10 -8,19zm88 46l0 -130 16 0 0 130 -16 0zm119 -84l-52 125 -17 0 18 -44 -34 -82 18 0 25 61 25 -61 18 0z"/>
   <path class="fil3" d="M3174 6537l31 -98 16 0 -40 125 -15 0 -22 -78 -22 78 -17 0 -40 -125 18 0 31 98 23 -81 13 0 23 81zm145 -15c0,4 0,6 0,6l-69 0c1,7 4,12 9,17 5,4 11,6 17,6 12,0 21,-4 26,-13 0,0 0,0 1,0 0,0 1,0 1,1 1,0 2,1 3,1 1,0 2,1 3,1l7 3c-3,7 -9,13 -16,16 -7,4 -15,6 -23,6 -12,0 -22,-4 -31,-12 -8,-8 -12,-19 -12,-32 0,-13 4,-24 12,-32 8,-8 18,-12 31,-12 12,0 23,4 30,12 8,8 12,19 12,32zm-25 -23c-5,-4 -11,-6 -17,-6 -7,0 -13,2 -18,6 -5,4 -8,10 -9,17l52 0c-1,-7 -4,-12 -8,-17zm125 23c0,4 0,6 0,6l-69 0c1,7 4,12 9,17 5,4 11,6 17,6 12,0 21,-4 26,-13 0,0 0,0 1,0 0,0 1,0 1,1 1,0 2,1 3,1 1,0 2,1 3,1l7 3c-3,7 -9,13 -16,16 -7,4 -15,6 -23,6 -12,0 -22,-4 -31,-12 -8,-8 -12,-19 -12,-32 0,-13 4,-24 12,-32 8,-8 18,-12 31,-12 12,0 23,4 30,12 8,8 12,19 12,32zm-25 -23c-5,-4 -11,-6 -17,-6 -7,0 -13,2 -18,6 -5,4 -8,10 -9,17l52 0c-1,-7 -4,-12 -8,-17zm62 66l-16 0 0 -130 16 0 0 75 29 -29 22 0 -36 36 45 48 -22 0 -38 -41 0 41zm74 0l0 -130 16 0 0 130 -16 0zm119 -84l-52 125 -17 0 18 -44 -34 -82 18 0 25 61 25 -61 18 0z"/>
   <path class="fil3" d="M1326 5831l26 0c0,9 4,16 12,23 8,7 17,10 29,10 12,0 21,-3 27,-8 7,-5 10,-12 12,-20 1,-17 -9,-29 -32,-34l-24 -6c-31,-8 -46,-24 -46,-49 0,-16 6,-28 18,-38 12,-10 26,-15 43,-15 17,0 32,5 43,15 12,10 18,24 18,40l-26 0c0,-9 -3,-17 -10,-23 -7,-6 -15,-8 -25,-8 -10,0 -18,3 -26,8 -7,5 -10,12 -10,20 0,13 9,21 27,26l25 6c18,5 31,12 40,23 9,10 12,23 10,38 -2,15 -8,27 -20,36 -11,9 -26,14 -44,14 -18,0 -34,-6 -47,-17 -13,-12 -19,-25 -19,-40zm286 -10c0,6 0,9 0,10l-104 0c1,10 6,19 14,26 8,6 16,9 26,9 19,0 32,-7 39,-20 0,0 0,0 1,0 0,0 1,1 2,1 1,0 2,1 4,2 2,1 3,1 4,2l11 4c-5,11 -13,19 -24,25 -11,6 -22,9 -35,9 -18,0 -34,-6 -47,-19 -12,-12 -19,-29 -19,-49 0,-20 6,-36 19,-48 12,-12 28,-18 47,-18 19,0 34,6 46,18 12,12 18,28 18,48zm-38 -35c-7,-6 -16,-9 -27,-9 -11,0 -20,3 -27,9 -8,7 -12,15 -13,25l80 0c-1,-10 -5,-19 -13,-25zm69 100l0 -199 25 0 0 199 -25 0zm188 -65c0,6 0,9 0,10l-104 0c1,10 6,19 14,26 8,6 16,9 26,9 19,0 32,-7 39,-20 0,0 0,0 1,0 0,0 1,1 2,1 1,0 2,1 4,2 2,1 3,1 4,2l11 4c-5,11 -13,19 -24,25 -11,6 -22,9 -35,9 -18,0 -34,-6 -47,-19 -12,-12 -19,-29 -19,-49 0,-20 6,-36 19,-48 12,-12 28,-18 47,-18 19,0 34,6 46,18 12,12 18,28 18,48zm-38 -35c-7,-6 -16,-9 -27,-9 -11,0 -20,3 -27,9 -8,7 -12,15 -13,25l80 0c-1,-10 -5,-19 -13,-25zm130 -32c20,0 36,7 49,21l-19 16c-8,-8 -18,-12 -30,-12 -12,0 -22,4 -31,12 -8,8 -13,18 -13,31 0,13 4,23 13,31 9,8 19,12 31,12 12,0 22,-4 30,-13l19 16c-13,14 -29,21 -49,21 -20,0 -36,-6 -50,-19 -13,-13 -20,-29 -20,-49 0,-20 7,-36 20,-48 13,-12 30,-19 49,-19zm115 -44l0 47 27 0 0 22 -27 0 0 106 -25 0 0 -106 -23 0 0 -22 23 0 0 -47 25 0zm187 -23l14 0 0 24 -14 0c-16,0 -24,11 -24,33l0 13 30 0 0 22 -30 0 0 106 -25 0 0 -106 -25 0 0 -22 25 0 0 -13c0,-18 4,-32 12,-42 8,-10 20,-15 37,-15zm59 152l0 47 -25 0 0 -129 25 0 0 29c6,-21 18,-32 36,-32 10,0 18,2 22,5l-4 24c-6,-3 -12,-4 -19,-4 -11,0 -20,5 -26,16 -6,11 -9,26 -9,44zm205 -18c0,6 0,9 0,10l-104 0c1,10 6,19 14,26 8,6 16,9 26,9 19,0 32,-7 39,-20 0,0 0,0 1,0 0,0 1,1 2,1 1,0 2,1 4,2 2,1 3,1 4,2l11 4c-5,11 -13,19 -24,25 -11,6 -22,9 -35,9 -18,0 -34,-6 -47,-19 -12,-12 -19,-29 -19,-49 0,-20 6,-36 19,-48 12,-12 28,-18 47,-18 19,0 34,6 46,18 12,12 18,28 18,48zm-38 -35c-7,-6 -16,-9 -27,-9 -11,0 -20,3 -27,9 -8,7 -12,15 -13,25l80 0c-1,-10 -5,-19 -13,-25zm98 67c8,8 18,12 29,12 12,0 22,-4 30,-11 9,-7 13,-18 13,-31 0,-13 -4,-24 -12,-31 -8,-8 -18,-12 -30,-12 -12,0 -22,4 -30,12 -8,8 -12,18 -12,31 0,13 4,23 12,31zm72 -95l25 0 0 191 -25 0 0 -82c-4,7 -10,13 -18,16 -8,4 -17,6 -27,6 -18,0 -34,-6 -46,-18 -12,-12 -18,-28 -18,-48 0,-20 6,-36 19,-49 12,-13 28,-19 46,-19 10,0 18,2 27,6 8,4 14,9 18,17l0 -20zm155 69l0 -69 25 0 0 129 -25 0 0 -19c-4,7 -9,13 -17,16 -7,4 -15,6 -23,6 -16,0 -28,-5 -37,-15 -9,-10 -13,-24 -13,-42l0 -74 25 0 0 73c0,11 2,19 7,25 5,6 12,9 22,9 10,0 18,-3 25,-9 7,-6 10,-16 10,-28zm188 -6c0,6 0,9 0,10l-104 0c1,10 6,19 14,26 8,6 16,9 26,9 19,0 32,-7 39,-20 0,0 0,0 1,0 0,0 1,1 2,1 1,0 2,1 4,2 2,1 3,1 4,2l11 4c-5,11 -13,19 -24,25 -11,6 -22,9 -35,9 -18,0 -34,-6 -47,-19 -12,-12 -19,-29 -19,-49 0,-20 6,-36 19,-48 12,-12 28,-18 47,-18 19,0 34,6 46,18 12,12 18,28 18,48zm-38 -35c-7,-6 -16,-9 -27,-9 -11,0 -20,3 -27,9 -8,7 -12,15 -13,25l80 0c-1,-10 -5,-19 -13,-25zm94 30l0 69 -25 0 0 -129 25 0 0 19c4,-7 9,-13 17,-16 7,-4 15,-6 24,-6 16,0 28,5 37,15 9,10 13,24 13,42l0 74 -25 0 0 -73c0,-11 -3,-19 -8,-25 -5,-6 -12,-9 -22,-9 -10,0 -18,3 -25,10 -7,6 -10,16 -10,28zm191 -62c20,0 36,7 49,21l-19 16c-8,-8 -18,-12 -30,-12 -12,0 -22,4 -31,12 -8,8 -13,18 -13,31 0,13 4,23 13,31 9,8 19,12 31,12 12,0 22,-4 30,-13l19 16c-13,14 -29,21 -49,21 -20,0 -36,-6 -50,-19 -13,-13 -20,-29 -20,-49 0,-20 7,-36 20,-48 13,-12 30,-19 49,-19zm195 3l-80 191 -26 0 27 -66 -52 -125 27 0 38 93 39 -93 27 0zm134 34c-8,8 -12,18 -12,32 0,13 4,23 13,31 8,7 18,11 30,11 12,0 21,-4 30,-12 8,-8 12,-18 12,-30 0,-13 -4,-23 -12,-31 -8,-8 -18,-12 -30,-12 -12,0 -22,4 -30,12zm-37 -34l25 0 0 20c4,-7 10,-13 18,-17 8,-4 17,-6 26,-6 18,0 33,6 46,19 12,12 19,29 19,48 0,20 -6,36 -18,48 -12,12 -28,19 -46,19 -10,0 -19,-2 -27,-6 -8,-4 -14,-9 -18,-16l0 82 -25 0 0 -191zm289 64c0,6 0,9 0,10l-104 0c1,10 6,19 14,26 8,6 16,9 26,9 19,0 32,-7 39,-20 0,0 0,0 1,0 0,0 1,1 2,1 1,0 2,1 4,2 2,1 3,1 4,2l11 4c-5,11 -13,19 -24,25 -11,6 -22,9 -35,9 -18,0 -34,-6 -47,-19 -12,-12 -19,-29 -19,-49 0,-20 6,-36 19,-48 12,-12 28,-18 47,-18 19,0 34,6 46,18 12,12 18,28 18,48zm-38 -35c-7,-6 -16,-9 -27,-9 -11,0 -20,3 -27,9 -8,7 -12,15 -13,25l80 0c-1,-10 -5,-19 -13,-25zm94 53l0 47 -25 0 0 -129 25 0 0 29c6,-21 18,-32 36,-32 10,0 18,2 22,5l-4 24c-6,-3 -12,-4 -19,-4 -11,0 -20,5 -26,16 -6,11 -9,26 -9,44zm83 -118c-3,-3 -5,-7 -5,-12 0,-5 2,-8 5,-12 4,-3 8,-5 12,-5 5,0 9,2 12,5 4,3 5,7 5,12 0,5 -2,9 -5,12 -3,3 -8,5 -12,5 -5,0 -9,-2 -12,-5zm25 164l-25 0 0 -129 25 0 0 129zm131 -33c8,-8 12,-18 12,-31 0,-13 -4,-23 -12,-31 -8,-8 -18,-12 -30,-12 -12,0 -22,4 -30,12 -8,8 -12,18 -12,31 0,13 4,23 12,31 8,8 18,12 30,12 12,0 22,-4 30,-12zm-30 36c-19,0 -35,-6 -48,-19 -13,-12 -20,-29 -20,-49 0,-20 6,-36 19,-49 13,-12 29,-19 48,-18 19,0 35,6 48,19 13,12 20,29 20,48 0,20 -7,36 -20,48 -13,12 -29,19 -48,19zm189 -36c8,-8 13,-18 13,-31 0,-13 -4,-23 -13,-31 -9,-8 -19,-11 -30,-11 -12,0 -21,4 -29,12 -8,8 -12,18 -12,31 0,13 4,23 12,31 8,8 18,12 30,12 12,0 22,-4 30,-12zm38 33l-25 0 0 -20c-4,7 -10,12 -18,16 -8,4 -17,6 -27,6 -18,0 -33,-6 -46,-19 -12,-12 -19,-29 -19,-48 0,-20 6,-36 19,-48 12,-12 28,-19 46,-19 10,0 19,2 27,6 8,4 14,9 18,16l0 -89 25 0 0 199z"/>
   <g>
    <path class="fil13" d="M2162 1980c0,6 0,11 -1,16l-126 0c0,13 5,24 14,32 9,8 22,11 37,11 11,0 20,-1 27,-5 12,-7 17,-16 47,-15 -3,13 -11,24 -25,32 -14,8 -30,12 -49,12 -25,0 -45,-7 -60,-20 -15,-13 -22,-31 -22,-54 0,-15 3,-28 10,-39 7,-11 16,-20 28,-26 12,-6 26,-9 42,-9 15,0 29,3 40,8 12,6 21,13 27,24 6,10 10,22 10,34zm-30 -5c0,-12 -4,-22 -13,-29 -8,-7 -20,-11 -35,-11 -15,0 -26,4 -35,11 -9,7 -14,17 -14,29l97 0z"/>
    <path class="fil13" d="M1920 2063c-13,0 -25,-2 -35,-6 -10,-4 -18,-9 -24,-16 -6,-7 -9,-15 -9,-23 28,-1 24,4 41,18 7,5 17,7 28,7 9,0 17,-2 22,-5 5,-4 8,-9 8,-15 0,-5 -2,-9 -5,-12 -4,-3 -10,-6 -19,-8l-33 -7c-12,-3 -21,-8 -27,-14 -6,-7 -9,-15 -9,-25 0,-12 6,-21 17,-29 11,-8 26,-11 44,-11 19,0 35,4 46,11 11,8 17,18 17,31 -28,2 -26,-7 -39,-16 -6,-4 -14,-6 -25,-6 -9,0 -16,2 -21,5 -5,3 -8,8 -8,14 0,5 2,9 5,12 4,3 10,6 18,8l34 8c12,3 21,8 28,14 7,7 10,15 10,25 0,13 -6,24 -17,31 -11,8 -27,11 -46,11z"/>
    <path class="fil13" d="M1798 1918l0 125c1,13 11,16 27,16l0 -121c-1,-15 -12,-20 -27,-19z"/>
    <path class="fil14" d="M1812 1893c-5,0 -8,-2 -11,-4 -3,-3 -5,-7 -5,-11 0,-5 2,-8 5,-11 3,-3 7,-5 11,-5 5,0 8,2 11,5 3,3 5,7 5,11 0,4 -2,8 -5,11 -3,3 -7,4 -11,4z"/>
    <path class="fil13" d="M1686 2062c-17,-1 -31,-3 -44,-10 -12,-6 -22,-15 -28,-26 -6,-11 -9,-24 -9,-38 0,-14 3,-26 10,-38 7,-11 16,-20 28,-27 12,-7 27,-10 43,-10 16,0 52,6 57,22 2,-14 11,-18 24,-17l0 123c-1,12 -10,16 -24,16l0 -17c-9,15 -46,21 -58,20zm4 -24c17,0 31,-5 41,-14 10,-10 15,-21 15,-36 0,-14 -5,-26 -15,-36 -10,-10 -23,-15 -41,-15 -17,0 -30,5 -40,14 -10,9 -15,22 -15,36 0,15 5,27 15,36 10,9 23,14 40,14z"/>
    <polygon class="fil15" points="1446,1949 1446,2062 1334,2062 "/>
    <polygon class="fil16" points="1324,1939 1435,1939 1324,2052 "/>
    <polygon class="fil15" points="1436,1925 1324,1925 1324,1812 "/>
    <polygon class="fil16" points="1335,1802 1446,1802 1446,1914 "/>
    <path class="fil17" d="M1551 1846c19,21 31,49 33,79l-111 0 78 -79z"/>
    <path class="fil18" d="M1540 1836l-79 79 0 -113c30,2 57,14 79,33z"/>
   </g>
   <g>
    <path class="fil19" d="M1655 9852l-321 73 -7 -30 321 -73 1 0 6 30zm-7 -30l0 0 0 0 -1 0zm350 -36l-344 65 -6 -30 344 -65 9 1 -3 29zm-6 -30l4 -1 4 2 -9 -1zm207 117l-210 -89 12 -28 210 89 4 2 -15 26zm12 -28l2 1 2 1 -4 -2zm453 397l-469 -371 19 -24 469 371 -4 26 -15 -2zm15 2l-8 3 -7 -5 15 2zm626 -226l-626 226 -10 -28 626 -226 10 28z"/>
   </g>
   <polyline class="fil20 str0" points="1347,9907 2001,10051 2294,9931 2744,9745 3310,9449 5387,8819 "/>
   <path class="fil21" d="M4953 2915c139,0 251,112 251,251 0,139 -112,251 -251,251 -139,0 -251,-112 -251,-251 0,-139 112,-251 251,-251z"/>
   <g>
    <path class="fil13" d="M5327 3215l-64 -71 18 -16 64 71 1 15 -18 1zm18 -1l-9 12 -10 -11 18 -1zm54 -72l-54 72 -19 -14 54 -72 19 14z"/>
   </g>
   <path class="fil22" d="M4773 8713l26 0c0,9 4,16 12,23 8,7 17,10 29,10 12,0 21,-3 27,-8 7,-5 10,-12 12,-20 1,-17 -9,-29 -32,-34l-24 -6c-31,-8 -46,-24 -46,-49 0,-16 6,-28 18,-38 12,-10 26,-15 43,-15 17,0 32,5 43,15 12,10 18,24 18,40l-26 0c0,-9 -3,-17 -10,-23 -7,-6 -15,-8 -25,-8 -10,0 -18,3 -26,8 -7,5 -10,12 -10,20 0,13 9,21 27,26l25 6c18,5 31,12 40,23 9,10 12,23 10,38 -2,15 -8,27 -20,36 -11,9 -26,14 -44,14 -18,0 -34,-6 -47,-17 -13,-12 -19,-25 -19,-40zm254 21c8,-8 12,-18 12,-31 0,-13 -4,-23 -13,-31 -9,-8 -19,-11 -30,-11 -12,0 -21,4 -29,12 -8,8 -12,18 -12,30 0,13 4,23 12,31 8,8 18,12 30,12 12,0 22,-4 30,-12zm38 33l-25 0 0 -20c-4,7 -10,12 -18,16 -8,4 -17,6 -27,6 -18,0 -33,-6 -46,-19 -13,-12 -19,-29 -19,-48 0,-20 6,-36 19,-48 12,-12 28,-19 47,-19 9,0 18,2 27,6 8,4 15,10 18,16l0 -19 25 0 0 129zm42 0l0 -199 25 0 0 199 -25 0zm188 -65c0,6 0,9 0,10l-104 0c1,10 6,19 14,26 8,6 16,9 26,9 19,0 32,-7 39,-20 0,0 0,0 1,0 0,0 1,1 2,1 1,0 2,1 4,2 2,1 3,1 4,2l11 4c-5,11 -13,19 -24,25 -11,6 -22,9 -35,9 -18,0 -34,-6 -47,-19 -12,-12 -19,-29 -19,-49 0,-20 6,-36 19,-48 12,-12 28,-18 47,-18 19,0 34,6 46,18 12,12 18,28 18,48zm-38 -35c-7,-6 -16,-9 -27,-9 -11,0 -20,3 -27,9 -8,7 -12,15 -13,25l80 0c-1,-10 -5,-19 -13,-25zm78 -22c9,-6 19,-9 31,-9 12,0 22,3 30,9 8,6 13,15 14,27l-24 0c-1,-4 -3,-8 -7,-10 -4,-2 -8,-4 -13,-4 -5,0 -9,1 -12,3 -4,2 -6,5 -7,9 -1,4 -1,7 0,10 2,4 7,7 15,10l19 5c22,5 33,18 33,38 0,12 -5,21 -15,28 -10,7 -21,10 -34,10 -13,0 -25,-4 -34,-11 -10,-8 -15,-18 -15,-30l24 0c1,7 4,12 10,15 6,4 12,5 18,5 7,0 12,-2 15,-5 4,-3 6,-7 6,-11 0,-4 -1,-8 -4,-11 -3,-3 -7,-5 -13,-6l-18 -4c-12,-3 -22,-8 -27,-15 -6,-7 -8,-15 -7,-26 1,-10 6,-18 14,-25z"/>
   <path class="fil7" d="M4365 9602l0 -190 110 0 0 24 -85 0 0 61 67 0 0 24 -67 0 0 81 -26 0zm229 -33c8,-8 12,-18 12,-31 0,-13 -4,-23 -12,-31 -8,-8 -18,-12 -30,-12 -12,0 -22,4 -30,12 -8,8 -12,18 -12,31 0,13 4,23 12,31 8,8 18,12 30,12 12,0 22,-4 30,-12zm-30 36c-19,0 -35,-6 -48,-19 -13,-12 -20,-29 -20,-49 0,-20 6,-36 19,-49 13,-12 29,-19 48,-18 19,0 35,6 48,19 13,12 20,29 20,48 0,20 -7,36 -20,48 -13,12 -29,19 -48,19zm126 -50l0 47 -25 0 0 -129 25 0 0 29c6,-21 18,-32 36,-32 10,0 18,2 22,5l-4 24c-6,-3 -12,-4 -19,-4 -11,0 -20,5 -26,16 -6,11 -9,26 -9,44zm205 -18c0,6 0,9 0,10l-104 0c1,10 6,19 14,26 8,6 16,9 26,9 19,0 32,-7 39,-20 0,0 0,0 1,0 0,0 1,1 2,1 1,0 2,1 4,2 2,1 3,1 4,2l11 4c-5,11 -13,19 -24,25 -11,6 -22,9 -35,9 -18,0 -34,-6 -47,-19 -12,-12 -19,-29 -19,-49 0,-20 6,-36 19,-48 12,-12 28,-18 47,-18 19,0 34,6 46,18 12,12 18,28 18,48zm-38 -35c-7,-6 -16,-9 -27,-9 -11,0 -20,3 -27,9 -8,7 -12,15 -13,25l80 0c-1,-10 -5,-19 -13,-25zm130 -32c20,0 36,7 49,21l-19 16c-8,-8 -18,-12 -30,-12 -12,0 -22,4 -31,12 -8,8 -13,18 -13,31 0,13 4,23 13,31 9,8 19,12 31,12 12,0 22,-4 30,-13l19 16c-13,14 -29,21 -49,21 -20,0 -36,-6 -50,-19 -13,-13 -20,-29 -20,-49 0,-20 7,-36 20,-48 13,-12 30,-19 49,-19zm170 98c8,-8 12,-18 12,-31 0,-13 -4,-23 -13,-31 -9,-8 -19,-11 -30,-11 -12,0 -21,4 -29,12 -8,8 -12,18 -12,30 0,13 4,23 12,31 8,8 18,12 30,12 12,0 22,-4 30,-12zm38 33l-25 0 0 -20c-4,7 -10,12 -18,16 -8,4 -17,6 -27,6 -18,0 -33,-6 -46,-19 -13,-12 -19,-29 -19,-48 0,-20 6,-36 19,-48 12,-12 28,-19 47,-19 9,0 18,2 27,6 8,4 15,10 18,16l0 -19 25 0 0 129zm51 -122c9,-6 19,-9 31,-9 12,0 22,3 30,9 8,6 13,15 14,27l-24 0c-1,-4 -3,-8 -7,-10 -4,-2 -8,-4 -13,-4 -5,0 -9,1 -12,3 -4,2 -6,5 -7,9 -1,4 -1,7 0,10 2,4 7,7 15,10l19 5c22,5 33,18 33,38 0,12 -5,21 -15,28 -10,7 -21,10 -34,10 -13,0 -25,-4 -34,-11 -10,-8 -15,-18 -15,-30l24 0c1,7 4,12 10,15 6,4 12,5 18,5 7,0 12,-2 15,-5 4,-3 6,-7 6,-11 0,-4 -1,-8 -4,-11 -3,-3 -7,-5 -13,-6l-18 -4c-12,-3 -22,-8 -27,-15 -6,-7 -8,-15 -7,-26 1,-10 6,-18 14,-25zm147 -54l0 47 27 0 0 22 -27 0 0 106 -25 0 0 -106 -23 0 0 -22 23 0 0 -47 25 0z"/>
   <g>
    <polygon class="fil9" points="3924,10578 3921,10502 3950,10501 3952,10577 "/>
   </g>
   <g>
    <polygon class="fil9" points="4555,10574 4554,10497 4582,10496 4584,10573 "/>
   </g>
   <g>
    <polygon class="fil9" points="5184,10566 5182,10492 5210,10491 5213,10565 "/>
   </g>
   <g>
    <polygon class="fil9" points="5375,10542 5373,10518 5402,10516 5403,10540 "/>
   </g>
   <g>
    <path class="fil16" d="M4856 3112l148 113 -16 4c-43,11 -87,-1 -118,-32 -22,-23 -34,-52 -35,-84 0,-79 75,-136 151,-117l16 4 -146 113z"/>
    <path id="1" class="fil13" d="M5001 3228l-148 -113 4 -6 148 113 -1 6 -3 -1zm4 -6l6 5 -7 2 1 -6zm-19 3l16 -4 2 7 -16 4 -2 -7zm-120 -26l5 -5 0 0 3 3 3 3 3 3 3 2 3 2 3 2 3 2 3 2 3 2 3 2 3 2 4 2 4 1 4 1 4 1 4 1 4 1 4 1 4 1 4 1 4 0 4 0 4 0 4 0 4 0 4 0 4 0 4 0 4 -1 4 -1 4 -1 4 -1 2 7 -4 1 -4 1 -4 1 -4 1 -4 0 -4 0 -4 0 -4 0 -4 0 -4 0 -4 0 -4 0 -4 -1 -4 -1 -4 -1 -4 -1 -4 -1 -4 -1 -4 -1 -4 -2 -4 -2 -4 -2 -4 -2 -4 -2 -4 -2 -3 -2 -3 -2 -3 -2 -3 -3 -3 -3 -3 -3 -3 -3 0 0zm-36 -87l7 0 0 0 0 3 0 3 0 3 0 3 0 3 0 3 0 3 1 3 1 3 1 3 1 3 1 3 1 3 1 3 1 3 1 3 1 3 1 3 1 3 1 2 1 2 1 2 1 2 2 2 2 2 2 2 2 2 2 2 2 2 2 2 2 2 2 2 -5 5 -2 -2 -2 -2 -2 -2 -2 -2 -2 -2 -2 -2 -2 -2 -2 -2 -2 -3 -2 -3 -1 -3 -1 -3 -1 -3 -1 -3 -1 -3 -1 -3 -1 -3 -1 -3 -1 -3 -1 -3 -1 -3 -1 -3 -1 -3 -1 -3 -1 -3 0 -3 0 -3 0 -3 0 -3 0 -3 0 -3 0 -3 0 0zm156 -120l-2 7 0 0 -7 -1 -7 -1 -7 -1 -7 0 -7 0 -7 1 -7 1 -7 1 -6 2 -6 2 -6 2 -6 3 -6 3 -6 3 -5 4 -5 4 -5 4 -5 4 -5 5 -4 5 -4 5 -4 5 -3 6 -3 6 -3 6 -2 6 -2 6 -2 7 -1 7 -1 7 -1 7 0 7 -7 0 0 -8 1 -7 1 -7 1 -7 2 -7 2 -7 3 -7 3 -6 3 -6 4 -6 4 -6 4 -5 5 -5 5 -5 5 -5 5 -4 6 -4 6 -4 6 -3 6 -3 6 -3 7 -2 7 -2 7 -2 7 -1 7 -1 7 -1 7 0 7 0 7 1 7 1 7 2 0 0zm14 11l-16 -4 2 -7 16 4 1 6 -3 1zm2 -7l7 2 -6 5 -1 -6zm-149 114l146 -113 4 6 -146 113 -4 0 0 -6zm0 6l-4 -3 4 -3 0 6z"/>
   </g>
   <g>
    <path class="fil18" d="M5051 3219l-146 -113 16 -4c76,-19 152,38 151,117 0,32 -12,62 -35,84 -31,31 -75,43 -118,32l-16 -4 148 -113z"/>
    <path id="1" class="fil19" d="M4907 3103l146 113 -4 6 -146 -113 1 -6 3 1zm-4 6l-6 -5 7 -2 -1 6zm19 -3l-16 4 -2 -7 16 -4 0 0 2 7zm154 113l-7 0 0 0 0 -7 -1 -7 -1 -7 -1 -7 -2 -7 -2 -6 -2 -6 -3 -6 -3 -6 -3 -6 -4 -5 -4 -5 -4 -5 -5 -5 -5 -4 -5 -4 -5 -4 -5 -4 -6 -3 -6 -3 -6 -3 -6 -2 -6 -2 -6 -2 -7 -1 -7 -1 -7 -1 -7 0 -7 0 -7 1 -7 1 -7 1 -2 -7 7 -2 7 -1 7 -1 7 0 7 0 7 1 7 1 7 1 7 2 7 2 7 2 6 3 6 3 6 3 6 4 6 4 5 4 5 5 5 5 5 5 4 5 4 6 4 6 3 6 3 6 3 7 2 7 2 7 1 7 1 7 1 7 0 8 0 0zm-36 87l-5 -5 0 0 2 -2 2 -2 2 -2 2 -2 2 -2 2 -2 2 -2 2 -2 2 -2 1 -2 1 -2 1 -2 1 -2 1 -3 1 -3 1 -3 1 -3 1 -3 1 -3 1 -3 1 -3 1 -3 1 -3 1 -3 1 -3 0 -3 0 -3 0 -3 0 -3 0 -3 0 -3 0 -3 7 0 0 3 0 3 0 3 0 3 0 3 0 3 0 3 -1 3 -1 3 -1 3 -1 3 -1 3 -1 3 -1 3 -1 3 -1 3 -1 3 -1 3 -1 3 -1 3 -1 3 -1 3 -2 3 -2 3 -2 2 -2 2 -2 2 -2 2 -2 2 -2 2 -2 2 -2 2 0 0zm-122 33l2 -7 0 0 4 1 4 1 4 1 4 1 4 0 4 0 4 0 4 0 4 0 4 0 4 0 4 0 4 -1 4 -1 4 -1 4 -1 4 -1 4 -1 4 -1 4 -1 4 -2 3 -2 3 -2 3 -2 3 -2 3 -2 3 -2 3 -2 3 -2 3 -3 3 -3 3 -3 5 5 -3 3 -3 3 -3 3 -3 3 -3 2 -3 2 -3 2 -4 2 -4 2 -4 2 -4 2 -4 2 -4 2 -4 1 -4 1 -4 1 -4 1 -4 1 -4 1 -4 1 -4 0 -4 0 -4 0 -4 0 -4 0 -4 0 -4 0 -4 0 -4 -1 -4 -1 -4 -1 -4 -1 0 0zm-14 -11l16 4 -2 7 -16 -4 -1 -6 3 -1zm-2 7l-7 -2 6 -5 1 6zm151 -113l-148 113 -4 -6 148 -113 4 0 0 6zm0 -6l4 3 -4 3 0 -6z"/>
   </g>
   <g>
    <path class="fil10" d="M4250 4928l983 0c80,0 145,65 145,145l0 175c0,80 -65,145 -145,145l-983 0c-80,0 -145,-65 -145,-145l0 -175c0,-80 65,-145 145,-145z"/>
    <path id="1" class="fil11" d="M5233 4940l-983 0 0 -24 983 0 0 0 0 24zm157 134l-24 0 0 0 0 -7 -1 -7 -1 -7 -1 -7 -2 -6 -2 -6 -2 -6 -2 -6 -3 -6 -3 -6 -3 -6 -3 -5 -4 -5 -4 -5 -4 -5 -4 -5 -5 -4 -5 -4 -5 -4 -5 -4 -5 -3 -6 -3 -6 -3 -6 -3 -6 -2 -6 -2 -6 -2 -6 -1 -7 -1 -7 -1 -7 -1 -7 0 0 -24 8 0 8 1 8 1 8 1 8 2 7 2 7 2 7 3 7 3 7 3 7 4 6 4 6 4 6 5 6 5 5 5 5 5 5 6 5 6 4 6 4 6 4 7 3 7 3 7 3 7 2 7 2 7 2 8 1 8 1 8 1 8 0 8 0 0zm-24 175l0 -175 24 0 0 175 0 0 -24 0zm-133 157l0 -24 0 0 7 0 7 -1 7 -1 7 -1 6 -1 6 -2 6 -2 6 -2 6 -3 6 -3 6 -3 5 -3 5 -4 5 -4 5 -4 5 -4 4 -5 4 -5 4 -5 4 -5 3 -5 3 -6 3 -6 3 -6 2 -6 2 -6 2 -6 2 -6 1 -7 1 -7 1 -7 0 -7 24 0 0 8 -1 8 -1 8 -1 8 -2 8 -2 7 -2 7 -3 7 -3 7 -3 7 -4 7 -4 6 -4 6 -5 6 -5 6 -5 5 -5 5 -6 5 -6 5 -6 4 -6 4 -7 4 -7 3 -7 3 -7 3 -7 2 -7 2 -8 2 -8 1 -8 1 -8 1 -8 0 0 0zm-983 -24l983 0 0 24 -983 0 0 0 0 -24zm-157 -134l24 0 0 0 0 7 1 7 1 7 1 7 2 6 2 6 2 6 2 6 3 6 3 6 3 6 3 5 4 5 4 5 4 5 4 5 5 4 5 4 5 4 5 4 5 3 6 3 6 3 6 3 6 2 6 2 6 2 6 1 7 1 7 1 7 1 7 0 0 24 -8 0 -8 -1 -8 -1 -8 -1 -8 -2 -7 -2 -7 -2 -7 -3 -7 -3 -7 -3 -7 -4 -6 -4 -6 -4 -6 -5 -6 -5 -5 -5 -5 -5 -5 -6 -5 -6 -4 -6 -4 -6 -4 -7 -3 -7 -3 -7 -3 -7 -2 -7 -2 -7 -2 -8 -1 -8 -1 -8 -1 -8 0 -8 0 0zm24 -175l0 175 -24 0 0 -175 0 0 24 0zm133 -157l0 24 0 0 -7 0 -7 1 -7 1 -7 1 -6 1 -6 2 -6 2 -6 2 -6 3 -6 3 -6 3 -5 3 -5 4 -5 4 -5 4 -5 4 -4 5 -4 5 -4 5 -4 5 -3 5 -3 6 -3 6 -3 6 -2 6 -2 6 -2 6 -2 6 -1 7 -1 7 -1 7 0 7 -24 0 0 -8 1 -8 1 -8 1 -8 2 -8 2 -7 2 -7 3 -7 3 -7 3 -7 4 -7 4 -6 4 -6 5 -6 5 -6 5 -5 5 -5 6 -5 6 -5 6 -4 6 -4 7 -4 7 -3 7 -3 7 -3 7 -2 7 -2 8 -2 8 -1 8 -1 8 -1 8 0 0 0z"/>
   </g>
   <path class="fil3" d="M4486 5097l0 -16 93 0 0 16 -38 0 0 109 -17 0 0 -109 -38 0zm170 87c5,-5 8,-12 8,-20 0,-8 -3,-15 -8,-20 -5,-5 -12,-8 -20,-8 -8,0 -14,3 -20,8 -5,5 -8,12 -8,20 0,8 3,15 8,20 5,5 12,8 20,8 8,0 15,-3 20,-8zm-20 24c-12,0 -23,-4 -31,-12 -9,-8 -13,-19 -13,-32 0,-13 4,-24 13,-32 8,-8 19,-12 31,-12 13,0 23,4 31,12 9,8 13,19 13,32 0,13 -4,24 -13,32 -9,8 -19,12 -31,12zm124 -24c5,-5 8,-12 8,-20 0,-9 -3,-15 -8,-20 -6,-5 -12,-7 -20,-7 -8,0 -14,3 -19,8 -5,5 -8,12 -8,20 0,8 3,15 8,20 5,5 12,8 19,8 8,0 14,-3 20,-8zm25 22l-16 0 0 -13c-3,4 -7,8 -12,11 -5,3 -11,4 -18,4 -12,0 -22,-4 -30,-12 -8,-8 -12,-19 -12,-32 0,-13 4,-24 12,-32 8,-8 18,-12 30,-12 7,0 12,1 18,4 5,3 9,6 12,11l0 -59 16 0 0 130zm86 -22c5,-5 8,-12 8,-20 0,-9 -3,-15 -8,-20 -6,-5 -12,-7 -20,-7 -8,0 -14,3 -19,8 -5,5 -8,12 -8,20 0,8 3,15 8,20 5,5 12,8 20,8 8,0 14,-3 20,-8zm25 22l-16 0 0 -13c-3,4 -7,8 -12,11 -5,3 -11,4 -18,4 -12,0 -22,-4 -30,-12 -8,-8 -12,-19 -12,-32 0,-13 4,-24 12,-32 8,-8 18,-12 31,-12 6,0 12,1 18,4 6,3 10,6 12,11l0 -13 16 0 0 84zm102 -84l-52 125 -17 0 18 -44 -34 -82 18 0 25 61 25 -61 18 0z"/>
   <g>
    <path class="fil10" d="M4252 6287l980 0c81,0 147,66 147,147l0 172c0,81 -66,147 -147,147l-980 0c-81,0 -147,-66 -147,-147l0 -172c0,-81 66,-147 147,-147z"/>
    <path id="1" class="fil11" d="M5232 6299l-980 0 0 -24 980 0 0 0 0 24zm159 135l-24 0 0 0 0 -7 -1 -7 -1 -7 -1 -7 -2 -7 -2 -6 -2 -6 -2 -6 -3 -6 -3 -6 -3 -6 -4 -5 -4 -5 -4 -5 -4 -5 -4 -5 -5 -4 -5 -4 -5 -4 -5 -4 -5 -4 -6 -3 -6 -3 -6 -3 -6 -2 -6 -2 -6 -2 -7 -2 -7 -1 -7 -1 -7 -1 -7 0 0 -24 8 0 8 1 8 1 8 1 8 2 8 2 7 3 7 3 7 3 7 4 7 4 6 4 6 4 6 5 6 5 6 5 5 6 5 6 5 6 4 6 4 6 4 7 4 7 3 7 3 7 3 7 2 8 2 8 1 8 1 8 1 8 0 8 0 0zm-24 172l0 -172 24 0 0 172 0 0 -24 0zm-135 159l0 -24 0 0 7 0 7 -1 7 -1 7 -1 7 -2 6 -2 6 -2 6 -2 6 -3 6 -3 6 -3 5 -4 5 -4 5 -4 5 -4 5 -4 4 -5 4 -5 4 -5 4 -5 4 -5 3 -6 3 -6 3 -6 2 -6 2 -6 2 -6 2 -7 1 -7 1 -7 1 -7 0 -7 24 0 0 8 -1 8 -1 8 -1 8 -2 8 -2 8 -3 7 -3 7 -3 7 -4 7 -4 7 -4 6 -4 6 -5 6 -5 6 -5 6 -6 5 -6 5 -6 5 -6 4 -6 4 -7 4 -7 4 -7 3 -7 3 -7 3 -8 2 -8 2 -8 1 -8 1 -8 1 -8 0 0 0zm-980 -24l980 0 0 24 -980 0 0 0 0 -24zm-159 -135l24 0 0 0 0 7 1 7 1 7 1 7 2 7 2 6 2 6 2 6 3 6 3 6 3 6 4 5 4 5 4 5 4 5 4 5 5 4 5 4 5 4 5 4 5 4 6 3 6 3 6 3 6 2 6 2 6 2 7 2 7 1 7 1 7 1 7 0 0 24 -8 0 -8 -1 -8 -1 -8 -1 -8 -2 -8 -2 -7 -3 -7 -3 -7 -3 -7 -4 -7 -4 -6 -4 -6 -4 -6 -5 -6 -5 -6 -5 -5 -6 -5 -6 -5 -6 -4 -6 -4 -6 -4 -7 -4 -7 -3 -7 -3 -7 -3 -7 -2 -8 -2 -8 -1 -8 -1 -8 -1 -8 0 -8 0 0zm24 -172l0 172 -24 0 0 -172 0 0 24 0zm135 -159l0 24 0 0 -7 0 -7 1 -7 1 -7 1 -7 2 -6 2 -6 2 -6 2 -6 3 -6 3 -6 3 -5 4 -5 4 -5 4 -5 4 -5 4 -4 5 -4 5 -4 5 -4 5 -4 5 -3 6 -3 6 -3 6 -2 6 -2 6 -2 6 -2 7 -1 7 -1 7 -1 7 0 7 -24 0 0 -8 1 -8 1 -8 1 -8 2 -8 2 -8 3 -7 3 -7 3 -7 4 -7 4 -7 4 -6 4 -6 5 -6 5 -6 5 -6 6 -5 6 -5 6 -5 6 -4 6 -4 7 -4 7 -4 7 -3 7 -3 7 -3 8 -2 8 -2 8 -1 8 -1 8 -1 8 0 0 0z"/>
   </g>
   <path class="fil3" d="M4558 6456l0 93 31 0c13,0 22,-4 29,-13 7,-9 10,-20 10,-33 0,-14 -3,-25 -10,-34 -7,-9 -16,-13 -29,-13l-31 0zm31 109l-48 0 0 -125 48 0c17,0 31,6 41,18 10,12 15,27 15,45 0,18 -5,33 -15,45 -10,12 -24,17 -41,17zm138 -22c5,-5 8,-12 8,-20 0,-9 -3,-15 -8,-20 -6,-5 -12,-7 -20,-7 -8,0 -14,3 -19,8 -5,5 -8,12 -8,20 0,8 3,15 8,20 5,5 12,8 20,8 8,0 14,-3 20,-8zm25 22l-16 0 0 -13c-3,4 -7,8 -12,11 -5,3 -11,4 -18,4 -12,0 -22,-4 -30,-12 -8,-8 -12,-19 -12,-32 0,-13 4,-24 12,-32 8,-8 18,-12 31,-12 6,0 12,1 18,4 6,3 10,6 12,11l0 -13 16 0 0 84zm27 -108c-2,-2 -3,-5 -3,-8 0,-3 1,-6 3,-8 2,-2 5,-3 8,-3 3,0 6,1 8,3 2,2 3,5 3,8 0,3 -1,6 -3,8 -2,2 -5,3 -8,3 -3,0 -6,-1 -8,-3zm16 108l-16 0 0 -84 16 0 0 84zm27 0l0 -130 16 0 0 130 -16 0zm119 -84l-52 125 -17 0 18 -44 -34 -82 18 0 25 61 25 -61 18 0z"/>
  </g>
 </g>
</svg>
