<?xml version="1.0" encoding="UTF-8"?>
<!DOCTYPE svg PUBLIC "-//W3C//DTD SVG 1.1//EN" "http://www.w3.org/Graphics/SVG/1.1/DTD/svg11.dtd">
<!-- Creator: CorelDRAW X6 -->
<svg xmlns="http://www.w3.org/2000/svg" xml:space="preserve" width="196.361mm" height="113.814mm" version="1.1" style="shape-rendering:geometricPrecision; text-rendering:geometricPrecision; image-rendering:optimizeQuality; fill-rule:evenodd; clip-rule:evenodd"
viewBox="0 0 19890 11529"
 xmlns:xlink="http://www.w3.org/1999/xlink">
 <defs>
  <style type="text/css">
   <![CDATA[
    .str0 {stroke:#D5F6FF;stroke-width:42.8779}
    .fil1 {fill:none}
    .fil2 {fill:#FFFFFF}
    .fil0 {fill:none;fill-opacity:0.188235}
    .fil7 {fill:#3B9CFF;fill-rule:nonzero;fill-opacity:0.45}
    .fil5 {fill:#D5F6FF}
    .fil6 {fill:#e8f4ff}
    .fil4 {fill:#00C2FF;fill-rule:nonzero}
    .fil3 {fill:#3B9CFF;fill-rule:nonzero}
    .fil8 {fill:#95C9FF;fill-rule:nonzero}
   ]]>
  </style>
 </defs>
 <g id="Layer_x0020_1">
  <metadata id="CorelCorpID_0Corel-Layer"/>
  <path class="fil0" d="M3206 967l13490 0c541,0 534,5 532,543l-10 2911 -2 0 0 5229c0,547 -15,543 -532,543l-7218 0 0 0 -6260 0c-517,0 -532,4 -532,-543l0 -8139c0,-547 9,-543 532,-543z"/>
  <rect class="fil1 str0" x="7514" y="3889" width="4874" height="810" rx="183" ry="206"/>
  <path class="fil2" d="M14958 11529l-5492 0 -8610 0c-464,0 -844,-197 -844,-437l0 -82 -12 0 0 -616 9466 0 5498 0 4926 0 0 616 -12 0 0 82c0,240 -380,437 -844,437l-4076 0z"/>
  <path class="fil2" d="M14964 10434l-12320 0c-106,-10 -213,-122 -213,-229l0 -8835c0,-643 10,-651 1041,-651l12975 0c1062,0 1026,-3 1024,647l-13 3668 735 -1 25 -4259c2,-425 -336,-774 -747,-774l-15020 0c-411,0 -747,348 -747,774l0 9661 13261 0z"/>
  <path class="fil2" d="M9489 10434l-6845 0c-106,-10 -213,-122 -213,-229l0 -8835c0,-643 10,-651 1041,-651l6017 0 935 0 6017 0c1031,0 1041,8 1041,651l0 8835c0,106 -107,219 -213,229l-6845 0 -8721 0 0 -9661c0,-425 336,-774 747,-774l7039 0 935 0 7039 0c411,0 747,348 747,774l0 9661 -8721 0z"/>
  <rect class="fil1 str0" x="7514" y="2804" width="4874" height="810" rx="183" ry="206"/>
  <path class="fil3" d="M7504 2258l22 0c0,7 3,14 10,20 6,6 15,9 24,9 10,0 18,-2 23,-7 6,-4 9,-10 10,-17 1,-15 -8,-24 -28,-29l-21 -5c-26,-7 -40,-21 -40,-42 0,-13 5,-24 16,-33 10,-9 22,-13 37,-13 15,0 27,4 37,13 10,9 15,20 15,34l-22 0c0,-8 -3,-14 -9,-19 -6,-5 -13,-7 -21,-7 -8,0 -16,2 -22,7 -6,4 -9,10 -9,17 0,11 8,18 23,22l21 5c16,4 27,11 34,19 7,9 10,20 9,32 -1,13 -7,23 -17,31 -10,8 -22,12 -38,12 -16,0 -29,-5 -40,-14 -11,-10 -16,-21 -16,-35zm244 -9c0,5 0,8 0,8l-89 0c1,9 5,16 12,22 7,5 14,8 22,8 16,0 27,-6 33,-17 0,0 0,0 1,0 0,0 1,0 2,1 1,0 2,1 4,1 2,1 3,1 3,1l9 3c-5,9 -11,16 -21,21 -9,5 -19,8 -30,8 -16,0 -29,-5 -40,-16 -11,-11 -16,-25 -16,-42 0,-17 5,-31 16,-41 11,-10 24,-16 40,-16 16,0 29,5 39,16 10,10 16,24 16,41zm-32 -30c-6,-5 -14,-8 -23,-8 -9,0 -17,3 -23,8 -6,6 -10,13 -11,22l68 0c-1,-9 -5,-16 -11,-22zm89 -65l0 40 23 0 0 19 -23 0 0 91 -21 0 0 -91 -20 0 0 -19 20 0 0 -40 21 0zm123 100l0 -59 21 0 0 110 -21 0 0 -16c-3,6 -8,11 -14,14 -6,3 -13,5 -20,5 -14,0 -24,-4 -31,-13 -7,-9 -11,-21 -11,-36l0 -64 21 0 0 62c0,9 2,16 6,22 4,5 11,8 19,8 9,0 16,-3 21,-8 6,-5 8,-13 8,-24zm89 -31c-7,7 -10,16 -10,27 0,11 4,20 11,26 7,6 16,9 26,9 10,0 18,-3 25,-10 7,-7 10,-15 10,-26 0,-11 -3,-20 -10,-26 -7,-7 -16,-10 -26,-10 -10,0 -19,3 -25,10zm-32 -29l21 0 0 17c4,-6 9,-11 16,-14 7,-4 14,-5 23,-5 15,0 28,5 39,16 11,11 16,24 16,41 0,17 -5,31 -16,41 -11,11 -24,16 -39,16 -8,0 -16,-2 -23,-5 -7,-3 -12,-8 -15,-14l0 70 -21 0 0 -164zm303 0l-68 164 -22 0 23 -57 -44 -107 23 0 33 80 33 -80 23 0zm98 82c7,-7 10,-16 10,-27 0,-11 -3,-20 -10,-26 -7,-7 -15,-10 -26,-10 -10,0 -19,3 -26,10 -7,7 -11,15 -11,26 0,11 3,20 10,27 7,7 15,10 26,10 10,0 19,-3 26,-10zm-26 31c-16,0 -30,-5 -41,-16 -11,-11 -17,-24 -17,-42 0,-17 6,-31 17,-42 11,-11 25,-16 41,-16 16,0 30,5 41,16 11,11 17,25 17,41 0,17 -6,31 -17,41 -11,11 -25,16 -41,16zm161 -53l0 -59 21 0 0 110 -21 0 0 -16c-3,6 -8,11 -14,14 -6,3 -13,5 -20,5 -14,0 -24,-4 -31,-13 -7,-9 -11,-21 -11,-36l0 -64 21 0 0 62c0,9 2,16 6,22 4,5 11,8 19,8 9,0 16,-3 21,-8 6,-5 8,-13 8,-24zm78 11l0 40 -21 0 0 -110 21 0 0 25c5,-18 16,-27 31,-27 9,0 15,1 19,4l-3 20c-5,-3 -10,-4 -16,-4 -10,0 -17,5 -22,14 -5,9 -8,22 -8,38zm140 -64c7,-5 16,-8 27,-8 10,0 19,3 26,8 7,5 11,13 12,23l-20 0c-1,-4 -3,-6 -6,-9 -3,-2 -7,-3 -12,-3 -4,0 -8,1 -11,3 -3,1 -5,4 -6,7 -1,3 -1,6 0,8 2,4 6,6 13,8l16 4c19,5 29,15 29,32 0,10 -4,18 -12,24 -8,6 -18,9 -29,9 -11,0 -21,-3 -29,-10 -8,-6 -12,-15 -13,-26l20 0c1,6 4,10 9,13 5,3 10,4 16,4 6,0 10,-2 13,-4 3,-3 5,-6 5,-10 0,-4 -1,-7 -4,-9 -3,-2 -6,-4 -11,-5l-15 -4c-11,-3 -18,-7 -24,-13 -5,-6 -7,-13 -6,-22 1,-9 5,-16 12,-21zm125 -46l0 40 23 0 0 19 -23 0 0 91 -21 0 0 -91 -20 0 0 -19 20 0 0 -40 21 0zm124 122c7,-7 10,-16 10,-27 0,-11 -3,-20 -10,-26 -7,-7 -15,-10 -26,-10 -10,0 -19,3 -26,10 -7,7 -11,15 -11,26 0,11 3,20 10,27 7,7 15,10 26,10 10,0 19,-3 26,-10zm-26 31c-16,0 -30,-5 -41,-16 -11,-11 -17,-24 -17,-42 0,-17 6,-31 17,-42 11,-11 25,-16 41,-16 16,0 30,5 41,16 11,11 17,25 17,41 0,17 -6,31 -17,41 -11,11 -25,16 -41,16zm107 -42l0 40 -21 0 0 -110 21 0 0 25c5,-18 16,-27 31,-27 9,0 15,1 19,4l-3 20c-5,-3 -10,-4 -16,-4 -10,0 -17,5 -22,14 -5,9 -8,22 -8,38zm175 -15c0,5 0,8 0,8l-89 0c1,9 5,16 12,22 7,5 14,8 22,8 16,0 27,-6 33,-17 0,0 0,0 1,0 0,0 1,0 2,1 1,0 2,1 4,1 2,1 3,1 3,1l9 3c-5,9 -11,16 -21,21 -9,5 -19,8 -30,8 -16,0 -29,-5 -40,-16 -11,-11 -16,-25 -16,-42 0,-17 5,-31 16,-41 11,-10 24,-16 40,-16 16,0 29,5 39,16 10,10 16,24 16,41zm-32 -30c-6,-5 -14,-8 -23,-8 -9,0 -17,3 -23,8 -6,6 -10,13 -11,22l68 0c-1,-9 -5,-16 -11,-22z"/>
  <path class="fil4" d="M7818 3245l23 0c0,8 4,15 11,21 7,6 15,9 26,9 11,0 19,-2 25,-7 6,-5 9,-11 11,-18 1,-16 -8,-26 -29,-31l-22 -6c-28,-7 -42,-22 -42,-45 0,-14 6,-26 17,-35 11,-9 24,-14 39,-14 16,0 29,5 39,14 11,9 16,21 16,37l-23 0c0,-8 -3,-15 -9,-21 -6,-5 -14,-8 -23,-8 -9,0 -17,2 -24,7 -6,5 -10,11 -10,18 0,12 8,19 25,23l22 6c16,4 29,11 36,21 8,9 11,21 9,34 -2,13 -8,24 -18,33 -10,9 -24,13 -40,13 -17,0 -31,-5 -43,-15 -12,-11 -17,-23 -17,-37zm181 -110l0 43 25 0 0 20 -25 0 0 97 -23 0 0 -97 -21 0 0 -20 21 0 0 -43 23 0zm131 130c7,-7 11,-17 11,-28 0,-12 -4,-21 -11,-28 -7,-7 -16,-11 -27,-11 -11,0 -20,3 -27,11 -7,7 -11,16 -11,28 0,12 4,21 11,28 7,7 16,11 27,11 11,0 20,-4 27,-11zm-27 33c-17,0 -31,-6 -43,-17 -12,-11 -18,-26 -18,-44 0,-18 6,-33 18,-44 12,-11 26,-17 43,-17 17,0 32,6 44,17 12,11 18,26 18,44 0,18 -6,33 -18,44 -12,11 -26,17 -43,17zm114 -45l0 42 -23 0 0 -117 23 0 0 26c6,-19 17,-29 32,-29 9,0 16,1 20,4l-4 21c-5,-3 -11,-4 -17,-4 -10,0 -18,5 -24,15 -6,10 -8,23 -8,40zm186 -16c0,5 0,8 0,9l-95 0c1,9 5,17 12,23 7,6 15,9 23,9 17,0 29,-6 35,-18 0,0 0,0 1,0 0,0 1,0 2,1 1,0 2,1 4,1 2,1 3,1 4,2l10 4c-5,10 -12,17 -22,23 -10,5 -20,8 -32,8 -17,0 -31,-6 -43,-17 -11,-11 -17,-26 -17,-44 0,-18 6,-33 17,-44 11,-11 25,-17 43,-17 17,0 31,6 42,17 11,11 16,26 16,44zm-34 -32c-7,-6 -15,-8 -24,-8 -10,0 -18,3 -25,8 -7,6 -11,14 -12,23l72 0c-1,-9 -5,-17 -11,-23zm151 28l0 63 -23 0 0 -117 23 0 0 18c3,-7 8,-12 15,-15 7,-3 14,-5 21,-5 15,0 26,4 33,14 8,9 12,22 12,38l0 68 -23 0 0 -66c0,-10 -2,-17 -7,-23 -5,-6 -11,-8 -20,-8 -9,0 -16,3 -23,9 -6,6 -9,14 -9,25zm199 33c7,-7 11,-16 11,-28 0,-12 -4,-21 -12,-28 -8,-7 -17,-10 -28,-10 -11,0 -20,4 -27,11 -7,7 -11,16 -11,28 0,11 4,21 11,28 7,7 16,11 27,11 11,0 20,-4 27,-11zm34 30l-23 0 0 -18c-4,6 -9,11 -17,15 -7,4 -16,6 -24,6 -16,0 -30,-6 -42,-17 -11,-11 -17,-26 -17,-44 0,-18 6,-33 17,-44 11,-11 25,-17 42,-17 8,0 17,2 24,5 8,4 13,9 17,15l0 -18 23 0 0 117zm141 -63l0 63 -23 0 0 -66c0,-10 -2,-17 -7,-22 -4,-6 -11,-8 -20,-8 -8,0 -16,3 -22,9 -6,6 -9,14 -9,25l0 63 -23 0 0 -117 23 0 0 18c3,-6 7,-10 13,-14 7,-4 12,-5 18,-6 22,-1 37,7 45,24 8,-16 22,-24 40,-24 15,0 26,4 33,14 8,9 12,22 12,38l0 68 -23 0 0 -66c0,-10 -2,-17 -7,-23 -5,-6 -12,-8 -21,-8 -9,0 -16,3 -21,9 -6,6 -9,15 -9,25zm227 4c0,5 0,8 0,9l-95 0c1,9 5,17 12,23 7,6 15,9 23,9 17,0 29,-6 35,-18 0,0 0,0 1,0 0,0 1,0 2,1 1,0 2,1 4,1 2,1 3,1 4,2l10 4c-5,10 -12,17 -22,23 -10,5 -20,8 -32,8 -17,0 -31,-6 -43,-17 -11,-11 -17,-26 -17,-44 0,-18 6,-33 17,-44 11,-11 25,-17 43,-17 17,0 31,6 42,17 11,11 16,26 16,44zm-34 -32c-7,-6 -15,-8 -24,-8 -10,0 -18,3 -25,8 -7,6 -11,14 -12,23l72 0c-1,-9 -5,-17 -11,-23z"/>
  <path class="fil4" d="M7829 4333l23 0c0,8 4,15 11,21 7,6 15,9 26,9 11,0 19,-2 25,-7 6,-5 9,-11 11,-18 1,-16 -8,-26 -29,-31l-22 -6c-28,-7 -42,-22 -42,-45 0,-14 6,-26 17,-35 11,-9 24,-14 39,-14 16,0 29,5 39,14 11,9 16,21 16,37l-23 0c0,-8 -3,-15 -9,-21 -6,-5 -14,-8 -23,-8 -9,0 -17,2 -24,7 -6,5 -10,11 -10,18 0,12 8,19 25,23l22 6c16,4 29,11 36,21 8,9 11,21 9,34 -2,13 -8,24 -18,33 -10,9 -24,13 -40,13 -17,0 -31,-5 -43,-15 -12,-11 -17,-23 -17,-37zm181 -110l0 43 25 0 0 20 -25 0 0 97 -23 0 0 -97 -21 0 0 -20 21 0 0 -43 23 0zm131 130c7,-7 11,-17 11,-28 0,-12 -4,-21 -11,-28 -7,-7 -16,-11 -27,-11 -11,0 -20,3 -27,11 -7,7 -11,16 -11,28 0,12 4,21 11,28 7,7 16,11 27,11 11,0 20,-4 27,-11zm-27 33c-17,0 -31,-6 -43,-17 -12,-11 -18,-26 -18,-44 0,-18 6,-33 18,-44 12,-11 26,-17 43,-17 17,0 32,6 44,17 12,11 18,26 18,44 0,18 -6,33 -18,44 -12,11 -26,17 -43,17zm114 -45l0 42 -23 0 0 -117 23 0 0 26c6,-19 17,-29 32,-29 9,0 16,1 20,4l-4 21c-5,-3 -11,-4 -17,-4 -10,0 -18,5 -24,15 -6,10 -8,23 -8,40zm186 -16c0,5 0,8 0,9l-95 0c1,9 5,17 12,23 7,6 15,9 23,9 17,0 29,-6 35,-18 0,0 0,0 1,0 0,0 1,0 2,1 1,0 2,1 4,1 2,1 3,1 4,2l10 4c-5,10 -12,17 -22,23 -10,5 -20,8 -32,8 -17,0 -31,-6 -43,-17 -11,-11 -17,-26 -17,-44 0,-18 6,-33 17,-44 11,-11 25,-17 43,-17 17,0 31,6 42,17 11,11 16,26 16,44zm-34 -32c-7,-6 -15,-8 -24,-8 -10,0 -18,3 -25,8 -7,6 -11,14 -12,23l72 0c-1,-9 -5,-17 -11,-23zm301 -26l-43 117 -19 0 -32 -86 -31 86 -19 0 -44 -117 24 0 29 82 29 -82 22 0 29 82 29 -82 24 0zm134 58c0,5 0,8 0,9l-95 0c1,9 5,17 12,23 7,6 15,9 23,9 17,0 29,-6 35,-18 0,0 0,0 1,0 0,0 1,0 2,1 1,0 2,1 4,1 2,1 3,1 4,2l10 4c-5,10 -12,17 -22,23 -10,5 -20,8 -32,8 -17,0 -31,-6 -43,-17 -11,-11 -17,-26 -17,-44 0,-18 6,-33 17,-44 11,-11 25,-17 43,-17 17,0 31,6 42,17 11,11 16,26 16,44zm-34 -32c-7,-6 -15,-8 -24,-8 -10,0 -18,3 -25,8 -7,6 -11,14 -12,23l72 0c-1,-9 -5,-17 -11,-23zm98 4c-8,7 -12,16 -12,28 0,12 4,21 11,28 8,7 17,11 27,11 11,0 20,-4 27,-11 7,-7 11,-17 11,-28 0,-11 -4,-21 -11,-28 -7,-7 -16,-11 -26,-11 -10,0 -20,3 -27,10zm-12 87l-23 0 0 -180 23 0 0 81c8,-13 22,-20 41,-20 17,0 31,6 42,17 11,11 17,26 17,44 0,18 -6,33 -17,44 -12,11 -26,17 -42,17 -9,0 -17,-2 -24,-6 -7,-4 -13,-9 -17,-15l0 18zm138 -111c8,-6 17,-9 28,-9 11,0 20,3 27,9 7,6 11,14 12,24l-22 0c-1,-4 -3,-7 -6,-9 -4,-2 -8,-3 -12,-3 -4,0 -8,1 -11,3 -3,1 -5,4 -6,8 -1,4 -1,7 0,9 2,4 6,7 14,9l17 4c20,5 30,16 30,34 0,11 -4,19 -13,26 -9,6 -19,9 -31,9 -12,0 -22,-3 -31,-10 -9,-7 -13,-16 -13,-27l22 0c1,6 4,11 9,13 5,3 11,5 17,4 6,0 11,-2 14,-5 3,-3 5,-6 6,-10 0,-4 -1,-7 -4,-10 -3,-2 -7,-4 -12,-5l-16 -4c-11,-3 -20,-8 -25,-13 -5,-6 -7,-14 -6,-23 1,-9 5,-17 13,-23zm102 -39c-3,-3 -4,-6 -4,-11 0,-4 1,-8 4,-11 3,-3 7,-4 11,-4 4,0 8,1 11,4 3,3 5,6 5,11 0,4 -2,8 -5,11 -3,3 -7,4 -11,4 -4,0 -8,-1 -11,-4zm23 149l-23 0 0 -117 23 0 0 117zm69 -160l0 43 25 0 0 20 -25 0 0 97 -23 0 0 -97 -21 0 0 -20 21 0 0 -43 23 0zm161 101c0,5 0,8 0,9l-95 0c1,9 5,17 12,23 7,6 15,9 23,9 17,0 29,-6 35,-18 0,0 0,0 1,0 0,0 1,0 2,1 1,0 2,1 4,1 2,1 3,1 4,2l10 4c-5,10 -12,17 -22,23 -10,5 -20,8 -32,8 -17,0 -31,-6 -43,-17 -11,-11 -17,-26 -17,-44 0,-18 6,-33 17,-44 11,-11 25,-17 43,-17 17,0 31,6 42,17 11,11 16,26 16,44zm-34 -32c-7,-6 -15,-8 -24,-8 -10,0 -18,3 -25,8 -7,6 -11,14 -12,23l72 0c-1,-9 -5,-17 -11,-23zm208 37l0 -63 23 0 0 117 -23 0 0 -17c-3,6 -8,11 -15,15 -7,3 -14,5 -21,5 -14,0 -26,-5 -33,-14 -8,-9 -12,-22 -12,-38l0 -68 23 0 0 66c0,10 2,17 7,23 5,5 11,8 20,8 9,0 17,-3 23,-9 6,-6 9,-14 9,-25zm83 11l0 42 -23 0 0 -117 23 0 0 26c6,-19 17,-29 32,-29 9,0 16,1 20,4l-4 21c-5,-3 -11,-4 -17,-4 -10,0 -18,5 -24,15 -6,10 -8,23 -8,40zm76 42l0 -180 23 0 0 180 -23 0z"/>
  <path class="fil5" d="M7720 4974l4462 0c113,0 206,93 206,206l0 399c0,113 -93,206 -206,206l-4462 0c-113,0 -206,-93 -206,-206l0 -399c0,-113 93,-206 206,-206z"/>
  <path class="fil4" d="M9832 5291l0 172 -22 0 -79 -130 0 130 -23 0 0 -172 23 0 78 129 0 -129 23 0zm152 114c0,5 0,8 0,9l-95 0c1,9 5,17 12,23 7,6 15,9 23,9 17,0 29,-6 35,-18 0,0 0,0 1,0 0,0 1,0 2,1 1,0 2,1 4,1 2,1 3,1 4,2l10 4c-5,10 -12,17 -22,23 -10,5 -20,8 -32,8 -17,0 -31,-6 -43,-17 -11,-11 -17,-26 -17,-44 0,-18 6,-33 17,-44 11,-11 25,-17 43,-17 17,0 31,6 42,17 11,11 16,26 16,44zm-34 -32c-7,-6 -15,-8 -24,-8 -10,0 -18,3 -25,8 -7,6 -11,14 -12,23l72 0c-1,-9 -5,-17 -11,-23zm93 27l-38 -53 27 0 24 34 24 -34 27 0 -38 53 46 64 -27 0 -32 -45 -33 45 -27 0 46 -64zm126 -96l0 43 25 0 0 20 -25 0 0 97 -23 0 0 -97 -21 0 0 -20 21 0 0 -43 23 0z"/>
  <g id="_1012490448">
   <path class="fil6" d="M3418 2515l1358 0c43,0 77,35 77,77l0 330c0,42 -35,77 -77,77l-1358 0c-43,0 -77,-35 -77,-77l0 -330c0,-42 35,-77 77,-77z"/>
   <path class="fil3" d="M3509 2792l22 0c0,7 3,14 10,20 6,6 15,9 24,9 10,0 18,-2 23,-7 6,-4 9,-10 10,-17 1,-15 -8,-24 -28,-29l-21 -5c-26,-7 -40,-21 -40,-42 0,-13 5,-24 16,-33 10,-9 22,-13 37,-13 15,0 27,4 37,13 10,9 15,20 15,34l-22 0c0,-8 -3,-14 -9,-19 -6,-5 -13,-7 -21,-7 -8,0 -16,2 -22,7 -6,4 -9,10 -9,17 0,11 8,18 23,22l21 5c16,4 27,11 34,19 7,9 10,20 9,32 -1,13 -7,23 -17,31 -10,8 -22,12 -38,12 -16,0 -29,-5 -40,-14 -11,-10 -16,-21 -16,-35zm170 -104l0 40 23 0 0 19 -23 0 0 91 -21 0 0 -91 -20 0 0 -19 20 0 0 -40 21 0zm124 122c7,-7 10,-16 10,-27 0,-11 -3,-20 -10,-26 -7,-7 -15,-10 -26,-10 -10,0 -19,3 -26,10 -7,7 -11,15 -11,26 0,11 3,20 10,27 7,7 15,10 26,10 10,0 19,-3 26,-10zm-26 31c-16,0 -30,-5 -41,-16 -11,-11 -17,-24 -17,-42 0,-17 6,-31 17,-42 11,-11 25,-16 41,-16 16,0 30,5 41,16 11,11 17,25 17,41 0,17 -6,31 -17,41 -11,11 -25,16 -41,16zm107 -42l0 40 -21 0 0 -110 21 0 0 25c5,-18 16,-27 31,-27 9,0 15,1 19,4l-3 20c-5,-3 -10,-4 -16,-4 -10,0 -17,5 -22,14 -5,9 -8,22 -8,38zm175 -15c0,5 0,8 0,8l-89 0c1,9 5,16 12,22 7,5 14,8 22,8 16,0 27,-6 33,-17 0,0 0,0 1,0 0,0 1,0 2,1 1,0 2,1 4,1 2,1 3,1 3,1l9 3c-5,9 -11,16 -21,21 -9,5 -19,8 -30,8 -16,0 -29,-5 -40,-16 -11,-11 -16,-25 -16,-42 0,-17 5,-31 16,-41 11,-10 24,-16 40,-16 16,0 29,5 39,16 10,10 16,24 16,41zm-32 -30c-6,-5 -14,-8 -23,-8 -9,0 -17,3 -23,8 -6,6 -10,13 -11,22l68 0c-1,-9 -5,-16 -11,-22zm67 -19c7,-5 16,-8 27,-8 10,0 19,3 26,8 7,5 11,13 12,23l-20 0c-1,-4 -3,-6 -6,-9 -3,-2 -7,-3 -12,-3 -4,0 -8,1 -11,3 -3,1 -5,4 -6,7 -1,3 -1,6 0,8 2,4 6,6 13,8l16 4c19,5 29,15 29,32 0,10 -4,18 -12,24 -8,6 -18,9 -29,9 -11,0 -21,-3 -29,-10 -8,-6 -12,-15 -13,-26l20 0c1,6 4,10 9,13 5,3 10,4 16,4 6,0 10,-2 13,-4 3,-3 5,-6 5,-10 0,-4 -1,-7 -4,-9 -3,-2 -6,-4 -11,-5l-15 -4c-11,-3 -18,-7 -24,-13 -5,-6 -7,-13 -6,-22 1,-9 5,-16 12,-21z"/>
   <path class="fil7" d="M3632 3385l-16 -41 -69 0 -16 41 -23 0 62 -162 24 0 61 162 -23 0zm-50 -133l-27 72 54 0 -27 -72zm145 21c17,0 31,6 42,18l-16 14c-7,-7 -16,-10 -26,-10 -10,0 -19,3 -26,10 -7,7 -11,15 -11,26 0,11 4,20 11,27 7,7 16,10 26,10 10,0 19,-4 26,-11l17 14c-11,12 -25,18 -42,18 -17,0 -31,-5 -42,-16 -12,-11 -17,-25 -17,-42 0,-17 6,-31 17,-41 11,-11 25,-16 42,-16zm121 0c17,0 31,6 42,18l-16 14c-7,-7 -16,-10 -26,-10 -10,0 -19,3 -26,10 -7,7 -11,15 -11,26 0,11 4,20 11,27 7,7 16,10 26,10 10,0 19,-4 26,-11l17 14c-11,12 -25,18 -42,18 -17,0 -31,-5 -42,-16 -12,-11 -17,-25 -17,-42 0,-17 6,-31 17,-41 11,-11 25,-16 42,-16zm145 84c7,-7 10,-16 10,-27 0,-11 -3,-20 -10,-26 -7,-7 -15,-10 -26,-10 -10,0 -19,3 -26,10 -7,7 -11,15 -11,26 0,11 3,20 10,27 7,7 15,10 26,10 10,0 19,-3 26,-10zm-26 31c-16,0 -30,-5 -41,-16 -11,-11 -17,-24 -17,-42 0,-17 6,-31 17,-42 11,-11 25,-16 41,-16 16,0 30,5 41,16 11,11 17,25 17,41 0,17 -6,31 -17,41 -11,11 -25,16 -41,16zm161 -53l0 -59 21 0 0 110 -21 0 0 -16c-3,6 -8,11 -14,14 -6,3 -13,5 -20,5 -14,0 -24,-4 -31,-13 -7,-9 -11,-21 -11,-36l0 -64 21 0 0 62c0,9 2,16 6,22 4,5 11,8 19,8 9,0 16,-3 21,-8 6,-5 8,-13 8,-24zm78 -9l0 59 -21 0 0 -110 21 0 0 17c3,-6 8,-11 14,-14 6,-3 13,-5 20,-5 14,0 24,4 31,13 7,8 11,20 11,36l0 64 -21 0 0 -62c0,-9 -2,-16 -7,-21 -4,-5 -10,-8 -19,-8 -8,0 -15,3 -21,8 -6,5 -9,13 -9,24zm141 -91l0 40 23 0 0 19 -23 0 0 91 -21 0 0 -91 -20 0 0 -19 20 0 0 -40 21 0zm55 46c7,-5 16,-8 27,-8 10,0 19,3 26,8 7,5 11,13 12,23l-20 0c-1,-4 -3,-6 -6,-9 -3,-2 -7,-3 -12,-3 -4,0 -8,1 -11,3 -3,1 -5,4 -6,7 -1,3 -1,6 0,8 2,4 6,6 13,8l16 4c19,5 29,15 29,32 0,10 -4,18 -12,24 -8,6 -18,9 -29,9 -11,0 -21,-3 -29,-10 -8,-6 -12,-15 -13,-26l20 0c1,6 4,10 9,13 5,3 10,4 16,4 6,0 10,-2 13,-4 3,-3 5,-6 5,-10 0,-4 -1,-7 -4,-9 -3,-2 -6,-4 -11,-5l-15 -4c-11,-3 -18,-7 -24,-13 -5,-6 -7,-13 -6,-22 1,-9 5,-16 12,-21z"/>
   <path class="fil7" d="M3509 3725l22 0c0,7 3,14 10,20 6,6 15,9 24,9 10,0 18,-2 23,-7 6,-4 9,-10 10,-17 1,-15 -8,-24 -28,-29l-21 -5c-26,-7 -40,-21 -40,-42 0,-13 5,-24 16,-33 10,-9 22,-13 37,-13 15,0 27,4 37,13 10,9 15,20 15,34l-22 0c0,-8 -3,-14 -9,-19 -6,-5 -13,-7 -21,-7 -8,0 -16,2 -22,7 -6,4 -9,10 -9,17 0,11 8,18 23,22l21 5c16,4 27,11 34,19 7,9 10,20 9,32 -1,13 -7,23 -17,31 -10,8 -22,12 -38,12 -16,0 -29,-5 -40,-14 -11,-10 -16,-21 -16,-35zm141 -94c-3,-3 -4,-6 -4,-10 0,-4 1,-7 4,-10 3,-3 7,-4 11,-4 4,0 7,1 10,4 3,3 5,6 5,10 0,4 -1,7 -5,10 -3,3 -6,4 -10,4 -4,0 -7,-1 -11,-4zm21 141l-21 0 0 -110 21 0 0 110zm60 -29c7,7 15,10 25,10 10,0 19,-3 26,-10 7,-7 11,-15 11,-27 0,-11 -4,-20 -11,-27 -7,-6 -16,-10 -26,-10 -10,0 -19,3 -26,10 -7,7 -10,16 -10,27 0,11 3,19 10,26zm24 63c26,0 39,-17 39,-50 0,0 0,-1 0,-1l0 -1c-3,6 -8,11 -16,15 -7,4 -15,5 -23,5 -16,0 -29,-5 -40,-16 -11,-11 -16,-24 -16,-41 0,-17 6,-31 16,-42 11,-11 24,-16 39,-16 8,0 16,2 23,5 7,3 12,8 16,14l0 -17 21 0 0 93c0,48 -20,72 -60,72 -11,0 -20,-3 -29,-8 -9,-5 -16,-13 -21,-22 1,0 4,-2 9,-5l8 -4c3,6 7,10 13,14 6,3 12,5 18,5zm117 -94l0 59 -21 0 0 -110 21 0 0 17c3,-6 8,-11 14,-14 6,-3 13,-5 20,-5 14,0 24,4 31,13 7,8 11,20 11,36l0 64 -21 0 0 -62c0,-9 -2,-16 -7,-21 -4,-5 -10,-8 -19,-8 -8,0 -15,3 -21,8 -6,5 -9,13 -9,24zm172 -81c-3,-3 -4,-6 -4,-10 0,-4 1,-7 4,-10 3,-3 7,-4 11,-4 4,0 7,1 10,4 3,3 5,6 5,10 0,4 -1,7 -5,10 -3,3 -6,4 -10,4 -4,0 -7,-1 -11,-4zm21 141l-21 0 0 -110 21 0 0 110zm57 -59l0 59 -21 0 0 -110 21 0 0 17c3,-6 8,-11 14,-14 6,-3 13,-5 20,-5 14,0 24,4 31,13 7,8 11,20 11,36l0 64 -21 0 0 -62c0,-9 -2,-16 -7,-21 -4,-5 -10,-8 -19,-8 -8,0 -15,3 -21,8 -6,5 -9,13 -9,24zm119 -45c7,-5 16,-8 27,-8 10,0 19,3 26,8 7,5 11,13 12,23l-20 0c-1,-4 -3,-6 -6,-9 -3,-2 -7,-3 -12,-3 -4,0 -8,1 -11,3 -3,1 -5,4 -6,7 -1,3 -1,6 0,8 2,4 6,6 13,8l16 4c19,5 29,15 29,32 0,10 -4,18 -12,24 -8,6 -18,9 -29,9 -11,0 -21,-3 -29,-10 -8,-6 -12,-15 -13,-26l20 0c1,6 4,10 9,13 5,3 10,4 16,4 6,0 10,-2 13,-4 3,-3 5,-6 5,-10 0,-4 -1,-7 -4,-9 -3,-2 -6,-4 -11,-5l-15 -4c-11,-3 -18,-7 -24,-13 -5,-6 -7,-13 -6,-22 1,-9 5,-16 12,-21z"/>
   <path class="fil7" d="M3573 4016l-43 0 0 61 41 0c9,0 16,-3 21,-8 5,-6 7,-13 7,-22 0,-9 -2,-16 -7,-22 -5,-6 -11,-9 -20,-9zm-65 142l0 -162 65 0c16,0 28,5 36,15 8,10 12,22 12,36 0,14 -4,27 -12,36 -8,10 -20,14 -36,14l-43 0 0 61 -22 0zm215 -29c7,-7 11,-15 11,-27 0,-11 -4,-20 -11,-26 -7,-6 -16,-10 -26,-10 -10,0 -18,3 -25,10 -7,7 -10,15 -10,26 0,11 3,20 10,26 7,7 15,10 26,10 10,0 19,-3 26,-10zm32 29l-21 0 0 -17c-3,6 -9,10 -16,14 -7,4 -15,5 -23,5 -15,0 -28,-5 -40,-16 -11,-11 -16,-24 -16,-41 0,-17 5,-31 16,-41 11,-11 24,-16 40,-16 8,0 16,2 23,5 7,4 12,8 16,14l0 -17 21 0 0 110zm35 -141c-3,-3 -4,-6 -4,-10 0,-4 1,-7 4,-10 3,-3 7,-4 11,-4 4,0 7,1 10,4 3,3 5,6 5,10 0,4 -1,7 -5,10 -3,3 -6,4 -10,4 -4,0 -7,-1 -11,-4zm21 141l-21 0 0 -110 21 0 0 110zm43 -104c7,-5 16,-8 27,-8 10,0 19,3 26,8 7,5 11,13 12,23l-20 0c-1,-4 -3,-6 -6,-9 -3,-2 -7,-3 -12,-3 -4,0 -8,1 -11,3 -3,1 -5,4 -6,7 -1,3 -1,6 0,8 2,4 6,6 13,8l16 4c19,5 29,15 29,32 0,10 -4,18 -12,24 -8,6 -18,9 -29,9 -11,0 -21,-3 -29,-10 -8,-6 -12,-15 -13,-26l20 0c1,6 4,10 9,13 5,3 10,4 16,4 6,0 10,-2 13,-4 3,-3 5,-6 5,-10 0,-4 -1,-7 -4,-9 -3,-2 -6,-4 -11,-5l-15 -4c-11,-3 -18,-7 -24,-13 -5,-6 -7,-13 -6,-22 1,-9 5,-16 12,-21zm199 49c0,5 0,8 0,8l-89 0c1,9 5,16 12,22 7,5 14,8 22,8 16,0 27,-6 33,-17 0,0 0,0 1,0 0,0 1,0 2,1 1,0 2,1 4,1 2,1 3,1 3,1l9 3c-5,9 -11,16 -21,21 -9,5 -19,8 -30,8 -16,0 -29,-5 -40,-16 -11,-11 -16,-25 -16,-42 0,-17 5,-31 16,-41 11,-10 24,-16 40,-16 16,0 29,5 39,16 10,10 16,24 16,41zm-32 -30c-6,-5 -14,-8 -23,-8 -9,0 -17,3 -23,8 -6,6 -10,13 -11,22l68 0c-1,-9 -5,-16 -11,-22zm284 -25l-41 110 -18 0 -30 -81 -29 81 -17 0 -42 -110 23 0 27 77 28 -77 21 0 28 77 27 -77 23 0zm99 82c7,-7 11,-15 11,-27 0,-11 -4,-20 -11,-26 -7,-6 -16,-10 -26,-10 -10,0 -18,3 -25,10 -7,7 -10,15 -10,26 0,11 3,20 10,26 7,7 15,10 26,10 10,0 19,-3 26,-10zm32 29l-21 0 0 -17c-3,6 -9,10 -16,14 -7,4 -15,5 -23,5 -15,0 -28,-5 -40,-16 -11,-11 -16,-24 -16,-41 0,-17 5,-31 16,-41 11,-11 24,-16 40,-16 8,0 16,2 23,5 7,4 12,8 16,14l0 -17 21 0 0 110zm36 0l0 -170 21 0 0 170 -21 0zm57 0l0 -170 21 0 0 170 -21 0zm161 -55c0,5 0,8 0,8l-89 0c1,9 5,16 12,22 7,5 14,8 22,8 16,0 27,-6 33,-17 0,0 0,0 1,0 0,0 1,0 2,1 1,0 2,1 4,1 2,1 3,1 3,1l9 3c-5,9 -11,16 -21,21 -9,5 -19,8 -30,8 -16,0 -29,-5 -40,-16 -11,-11 -16,-25 -16,-42 0,-17 5,-31 16,-41 11,-10 24,-16 40,-16 16,0 29,5 39,16 10,10 16,24 16,41zm-32 -30c-6,-5 -14,-8 -23,-8 -9,0 -17,3 -23,8 -6,6 -10,13 -11,22l68 0c-1,-9 -5,-16 -11,-22zm89 -65l0 40 23 0 0 19 -23 0 0 91 -21 0 0 -91 -20 0 0 -19 20 0 0 -40 21 0z"/>
   <path class="fil7" d="M3509 4499l22 0c0,7 3,14 10,20 6,6 15,9 24,9 10,0 18,-2 23,-7 6,-4 9,-10 10,-17 1,-15 -8,-24 -28,-29l-21 -5c-26,-7 -40,-21 -40,-42 0,-13 5,-24 16,-33 10,-9 22,-13 37,-13 15,0 27,4 37,13 10,9 15,20 15,34l-22 0c0,-8 -3,-14 -9,-19 -6,-5 -13,-7 -21,-7 -8,0 -16,2 -22,7 -6,4 -9,10 -9,17 0,11 8,18 23,22l21 5c16,4 27,11 34,19 7,9 10,20 9,32 -1,13 -7,23 -17,31 -10,8 -22,12 -38,12 -16,0 -29,-5 -40,-14 -11,-10 -16,-21 -16,-35zm162 -13l0 59 -21 0 0 -170 21 0 0 76c3,-6 8,-11 15,-14 7,-3 14,-5 21,-5 14,0 25,4 33,13 8,9 12,21 12,36l0 64 -21 0 0 -62c0,-9 -2,-16 -7,-21 -5,-5 -11,-8 -19,-8 -8,0 -16,3 -23,8 -7,5 -10,13 -10,24zm191 31c7,-7 10,-16 10,-27 0,-11 -3,-20 -10,-26 -7,-7 -15,-10 -26,-10 -10,0 -19,3 -26,10 -7,7 -11,15 -11,26 0,11 3,20 10,27 7,7 15,10 26,10 10,0 19,-3 26,-10zm-26 31c-16,0 -30,-5 -41,-16 -11,-11 -17,-24 -17,-42 0,-17 6,-31 17,-42 11,-11 25,-16 41,-16 16,0 30,5 41,16 11,11 17,25 17,41 0,17 -6,31 -17,41 -11,11 -25,16 -41,16zm118 -84c-7,7 -10,16 -10,27 0,11 4,20 11,26 7,6 16,9 26,9 10,0 18,-3 25,-10 7,-7 10,-15 10,-26 0,-11 -3,-20 -10,-26 -7,-7 -16,-10 -26,-10 -10,0 -19,3 -25,10zm-32 -29l21 0 0 17c4,-6 9,-11 16,-14 7,-4 14,-5 23,-5 15,0 28,5 39,16 11,11 16,24 16,41 0,17 -5,31 -16,41 -11,11 -24,16 -39,16 -8,0 -16,-2 -23,-5 -7,-3 -12,-8 -15,-14l0 70 -21 0 0 -164zm175 29c-7,7 -10,16 -10,27 0,11 4,20 11,26 7,6 16,9 26,9 10,0 18,-3 25,-10 7,-7 10,-15 10,-26 0,-11 -3,-20 -10,-26 -7,-7 -16,-10 -26,-10 -10,0 -19,3 -25,10zm-32 -29l21 0 0 17c4,-6 9,-11 16,-14 7,-4 14,-5 23,-5 15,0 28,5 39,16 11,11 16,24 16,41 0,17 -5,31 -16,41 -11,11 -24,16 -39,16 -8,0 -16,-2 -23,-5 -7,-3 -12,-8 -15,-14l0 70 -21 0 0 -164zm247 55c0,5 0,8 0,8l-89 0c1,9 5,16 12,22 7,5 14,8 22,8 16,0 27,-6 33,-17 0,0 0,0 1,0 0,0 1,0 2,1 1,0 2,1 4,1 2,1 3,1 3,1l9 3c-5,9 -11,16 -21,21 -9,5 -19,8 -30,8 -16,0 -29,-5 -40,-16 -11,-11 -16,-25 -16,-42 0,-17 5,-31 16,-41 11,-10 24,-16 40,-16 16,0 29,5 39,16 10,10 16,24 16,41zm-32 -30c-6,-5 -14,-8 -23,-8 -9,0 -17,3 -23,8 -6,6 -10,13 -11,22l68 0c-1,-9 -5,-16 -11,-22zm81 45l0 40 -21 0 0 -110 21 0 0 25c5,-18 16,-27 31,-27 9,0 15,1 19,4l-3 20c-5,-3 -10,-4 -16,-4 -10,0 -17,5 -22,14 -5,9 -8,22 -8,38zm79 -64c7,-5 16,-8 27,-8 10,0 19,3 26,8 7,5 11,13 12,23l-20 0c-1,-4 -3,-6 -6,-9 -3,-2 -7,-3 -12,-3 -4,0 -8,1 -11,3 -3,1 -5,4 -6,7 -1,3 -1,6 0,8 2,4 6,6 13,8l16 4c19,5 29,15 29,32 0,10 -4,18 -12,24 -8,6 -18,9 -29,9 -11,0 -21,-3 -29,-10 -8,-6 -12,-15 -13,-26l20 0c1,6 4,10 9,13 5,3 10,4 16,4 6,0 10,-2 13,-4 3,-3 5,-6 5,-10 0,-4 -1,-7 -4,-9 -3,-2 -6,-4 -11,-5l-15 -4c-11,-3 -18,-7 -24,-13 -5,-6 -7,-13 -6,-22 1,-9 5,-16 12,-21z"/>
   <path class="fil7" d="M3573 4792l-43 0 0 61 41 0c9,0 16,-3 21,-8 5,-6 7,-13 7,-22 0,-9 -2,-16 -7,-22 -5,-6 -11,-9 -20,-9zm-65 142l0 -162 65 0c16,0 28,5 36,15 8,10 12,22 12,36 0,14 -4,27 -12,36 -8,10 -20,14 -36,14l-43 0 0 61 -22 0zm160 -40l0 40 -21 0 0 -110 21 0 0 25c5,-18 16,-27 31,-27 9,0 15,1 19,4l-3 20c-5,-3 -10,-4 -16,-4 -10,0 -17,5 -22,14 -5,9 -8,22 -8,38zm148 12c7,-7 10,-16 10,-27 0,-11 -3,-20 -10,-26 -7,-7 -15,-10 -26,-10 -10,0 -19,3 -26,10 -7,7 -11,15 -11,26 0,11 3,20 10,27 7,7 15,10 26,10 10,0 19,-3 26,-10zm-26 31c-16,0 -30,-5 -41,-16 -11,-11 -17,-24 -17,-42 0,-17 6,-31 17,-42 11,-11 25,-16 41,-16 16,0 30,5 41,16 11,11 17,25 17,41 0,17 -6,31 -17,41 -11,11 -25,16 -41,16zm138 -172l12 0 0 21 -12 0c-14,0 -21,9 -20,28l0 11 25 0 0 19 -25 0 0 91 -21 0 0 -91 -21 0 0 -19 21 0 0 -11c0,-16 3,-28 11,-36 7,-8 18,-13 31,-13zm29 29c-3,-3 -4,-6 -4,-10 0,-4 1,-7 4,-10 3,-3 7,-4 11,-4 4,0 7,1 10,4 3,3 5,6 5,10 0,4 -1,7 -5,10 -3,3 -6,4 -10,4 -4,0 -7,-1 -11,-4zm21 141l-21 0 0 -110 21 0 0 110zm36 0l0 -170 21 0 0 170 -21 0zm161 -55c0,5 0,8 0,8l-89 0c1,9 5,16 12,22 7,5 14,8 22,8 16,0 27,-6 33,-17 0,0 0,0 1,0 0,0 1,0 2,1 1,0 2,1 4,1 2,1 3,1 3,1l9 3c-5,9 -11,16 -21,21 -9,5 -19,8 -30,8 -16,0 -29,-5 -40,-16 -11,-11 -16,-25 -16,-42 0,-17 5,-31 16,-41 11,-10 24,-16 40,-16 16,0 29,5 39,16 10,10 16,24 16,41zm-32 -30c-6,-5 -14,-8 -23,-8 -9,0 -17,3 -23,8 -6,6 -10,13 -11,22l68 0c-1,-9 -5,-16 -11,-22z"/>
   <path class="fil8" d="M3531 2163l0 121 41 0c16,0 29,-6 38,-17 9,-11 13,-26 13,-44 0,-18 -4,-32 -13,-44 -9,-12 -21,-17 -38,-17l-41 0zm41 142l-63 0 0 -162 63 0c22,0 40,8 53,23 13,15 20,35 20,58 0,24 -7,43 -20,58 -13,15 -31,23 -54,23zm180 -29c7,-7 11,-15 11,-27 0,-11 -4,-20 -11,-26 -7,-6 -16,-10 -26,-10 -10,0 -18,3 -25,10 -7,7 -10,15 -10,26 0,11 3,20 10,26 7,7 15,10 26,10 10,0 19,-3 26,-10zm32 29l-21 0 0 -17c-3,6 -9,10 -16,14 -7,4 -15,5 -23,5 -15,0 -28,-5 -40,-16 -11,-11 -16,-24 -16,-41 0,-17 5,-31 16,-41 11,-11 24,-16 40,-16 8,0 16,2 23,5 7,4 12,8 16,14l0 -17 21 0 0 110zm43 -104c7,-5 16,-8 27,-8 10,0 19,3 26,8 7,5 11,13 12,23l-20 0c-1,-4 -3,-6 -6,-9 -3,-2 -7,-3 -12,-3 -4,0 -8,1 -11,3 -3,1 -5,4 -6,7 -1,3 -1,6 0,8 2,4 6,6 13,8l16 4c19,5 29,15 29,32 0,10 -4,18 -12,24 -8,6 -18,9 -29,9 -11,0 -21,-3 -29,-10 -8,-6 -12,-15 -13,-26l20 0c1,6 4,10 9,13 5,3 10,4 16,4 6,0 10,-2 13,-4 3,-3 5,-6 5,-10 0,-4 -1,-7 -4,-9 -3,-2 -6,-4 -11,-5l-15 -4c-11,-3 -18,-7 -24,-13 -5,-6 -7,-13 -6,-22 1,-9 5,-16 12,-21zm117 45l0 59 -21 0 0 -170 21 0 0 76c3,-6 8,-11 15,-14 7,-3 14,-5 21,-5 14,0 25,4 33,13 8,9 12,21 12,36l0 64 -21 0 0 -62c0,-9 -2,-16 -7,-21 -5,-5 -11,-8 -19,-8 -8,0 -16,3 -23,8 -7,5 -10,13 -10,24zm148 -22c-7,7 -11,15 -11,27 0,11 4,20 11,27 7,7 16,10 26,10 10,0 19,-3 25,-10 7,-7 10,-16 10,-26 0,-11 -3,-19 -10,-26 -7,-7 -15,-10 -25,-10 -10,0 -18,3 -26,10zm-11 82l-21 0 0 -170 21 0 0 76c8,-13 20,-19 39,-19 16,0 29,5 40,16 11,10 16,24 16,41 0,17 -6,31 -16,42 -11,11 -24,16 -39,16 -8,0 -16,-2 -23,-5 -7,-4 -12,-8 -16,-14l0 17zm199 -28c7,-7 10,-16 10,-27 0,-11 -3,-20 -10,-26 -7,-7 -15,-10 -26,-10 -10,0 -19,3 -26,10 -7,7 -11,15 -11,26 0,11 3,20 10,27 7,7 15,10 26,10 10,0 19,-3 26,-10zm-26 31c-16,0 -30,-5 -41,-16 -11,-11 -17,-24 -17,-42 0,-17 6,-31 17,-42 11,-11 25,-16 41,-16 16,0 30,5 41,16 11,11 17,25 17,41 0,17 -6,31 -17,41 -11,11 -25,16 -41,16zm162 -31c7,-7 11,-15 11,-27 0,-11 -4,-20 -11,-26 -7,-6 -16,-10 -26,-10 -10,0 -18,3 -25,10 -7,7 -10,15 -10,26 0,11 3,20 10,26 7,7 15,10 26,10 10,0 19,-3 26,-10zm32 29l-21 0 0 -17c-3,6 -9,10 -16,14 -7,4 -15,5 -23,5 -15,0 -28,-5 -40,-16 -11,-11 -16,-24 -16,-41 0,-17 5,-31 16,-41 11,-11 24,-16 40,-16 8,0 16,2 23,5 7,4 12,8 16,14l0 -17 21 0 0 110zm57 -40l0 40 -21 0 0 -110 21 0 0 25c5,-18 16,-27 31,-27 9,0 15,1 19,4l-3 20c-5,-3 -10,-4 -16,-4 -10,0 -17,5 -22,14 -5,9 -8,22 -8,38zm148 11c7,-7 11,-16 11,-27 0,-11 -4,-20 -11,-26 -7,-6 -16,-10 -26,-10 -10,0 -18,3 -25,10 -7,7 -10,15 -10,26 0,11 3,20 10,26 7,7 15,10 25,10 10,0 19,-3 26,-10zm32 29l-21 0 0 -17c-3,6 -9,10 -16,14 -7,4 -15,5 -23,5 -15,0 -28,-5 -40,-16 -11,-11 -16,-24 -16,-41 0,-17 5,-31 16,-41 11,-11 24,-16 40,-16 8,0 16,2 23,5 7,3 12,8 16,14l0 -76 21 0 0 170z"/>
  </g>
 </g>
</svg>
