<?xml version="1.0" encoding="UTF-8"?>
<!DOCTYPE svg PUBLIC "-//W3C//DTD SVG 1.1//EN" "http://www.w3.org/Graphics/SVG/1.1/DTD/svg11.dtd">
<!-- Creator: CorelDRAW X6 -->
<svg xmlns="http://www.w3.org/2000/svg" xml:space="preserve" width="197.812mm" height="62.8123mm" version="1.1" style="shape-rendering:geometricPrecision; text-rendering:geometricPrecision; image-rendering:optimizeQuality; fill-rule:evenodd; clip-rule:evenodd"
viewBox="0 0 19494 6190"
 xmlns:xlink="http://www.w3.org/1999/xlink">
 <defs>
  <style type="text/css">
   <![CDATA[
    .fil2 {fill:#3B9CFF}
    .fil0 {fill:#D9ECFF}
    .fil1 {fill:#3B9CFF;fill-rule:nonzero}
   ]]>
  </style>
 </defs>
 <g id="Layer_x0020_1">
  <metadata id="CorelCorpID_0Corel-Layer"/>
  <ellipse class="fil0" cx="3062" cy="3158" rx="3062" ry="3032"/>
  <g>
   <path class="fil1" d="M3128 1437l-628 800 -166 -130 628 -800 165 -1 1 132zm-166 -130l82 -104 83 103 -165 1zm619 892l-618 -760 164 -133 618 760 -164 133z"/>
  </g>
  <g>
   <path class="fil1" d="M1916 4516l2315 2 0 211 -2315 -2 -103 -84 103 -128zm0 211l-85 0 -18 -84 103 84zm-226 -1676l330 1548 -207 44 -330 -1548 103 -128 103 84zm-207 44l-27 -128 130 0 -103 128zm3072 84l-2968 0 0 -211 2968 0 103 127 -103 84zm0 -211l130 0 -27 127 -103 -127zm-428 1634l324 -1550 207 43 -324 1550 -103 84 -103 -127zm207 43l-18 84 -86 0 103 -84z"/>
  </g>
  <g>
   <path class="fil1" d="M4679 2485l-3262 0 0 -211 3262 0 0 0 0 211zm323 112l-211 0 0 0 0 -6 0 -6 -1 -6 -1 -5 -1 -5 -1 -5 -2 -5 -2 -5 -2 -5 -2 -5 -3 -5 -3 -5 -3 -4 -3 -4 -4 -4 -4 -4 -4 -4 -4 -4 -4 -3 -4 -3 -5 -3 -5 -3 -5 -2 -5 -2 -5 -2 -5 -2 -5 -1 -5 -1 -5 -1 -6 -1 -6 0 -6 0 0 -211 17 0 16 1 16 2 16 3 16 4 15 4 15 5 15 6 14 7 14 7 13 8 13 8 13 9 12 10 12 10 11 11 11 11 10 12 10 12 9 13 8 13 8 13 7 14 7 14 6 15 5 15 4 15 4 16 3 16 2 16 1 16 0 17 0 0zm-211 258l0 -258 211 0 0 258 0 0 -211 0zm-112 323l0 -211 0 0 6 0 6 0 6 -1 5 -1 5 -1 5 -1 5 -2 5 -2 5 -2 5 -3 5 -3 5 -3 4 -3 4 -3 4 -4 4 -4 4 -4 4 -4 3 -4 3 -4 3 -5 3 -5 2 -5 2 -5 2 -5 2 -5 1 -5 1 -5 1 -5 1 -6 0 -6 0 -6 211 0 0 17 -1 16 -2 16 -3 16 -4 16 -4 15 -5 15 -6 15 -7 14 -7 14 -8 14 -8 13 -9 13 -10 12 -10 12 -11 11 -11 11 -12 10 -12 10 -13 9 -13 8 -14 8 -14 7 -14 7 -15 6 -15 5 -15 4 -16 4 -16 3 -16 2 -16 1 -17 0 0 0zm-3262 -211l3262 0 0 211 -3262 0 0 0 0 -211zm-323 -112l211 0 0 0 0 6 0 6 1 6 1 5 1 5 1 5 2 5 2 5 2 5 2 5 3 5 3 5 3 4 3 4 4 4 4 4 4 4 4 4 4 3 4 3 5 3 5 3 5 2 5 2 5 2 5 2 5 1 5 1 5 1 6 1 6 0 6 0 0 211 -17 0 -16 -1 -16 -2 -16 -3 -16 -4 -15 -4 -15 -5 -15 -6 -14 -7 -14 -7 -14 -8 -13 -8 -13 -9 -12 -10 -12 -10 -11 -11 -11 -11 -10 -12 -10 -12 -9 -13 -8 -13 -8 -14 -7 -14 -7 -14 -6 -15 -5 -15 -4 -15 -4 -16 -3 -16 -2 -16 -1 -16 0 -17 0 0zm211 -258l0 258 -211 0 0 -258 0 0 211 0zm112 -323l0 211 0 0 -6 0 -6 0 -6 1 -5 1 -5 1 -5 1 -5 2 -5 2 -5 2 -5 2 -5 3 -5 3 -4 3 -4 3 -4 4 -4 4 -4 4 -4 4 -3 4 -3 4 -3 5 -3 5 -2 5 -2 5 -2 5 -2 5 -1 5 -1 5 -1 5 -1 6 0 6 0 6 -211 0 0 -17 1 -16 2 -16 3 -16 4 -16 4 -15 5 -15 6 -15 7 -14 7 -14 8 -13 8 -13 9 -13 10 -12 10 -12 11 -11 11 -11 12 -10 12 -10 13 -9 13 -8 14 -8 14 -7 14 -7 15 -6 15 -5 15 -4 16 -4 16 -3 16 -2 16 -1 17 0 0 0z"/>
  </g>
  <g>
   <path class="fil1" d="M2612 3518l-248 0 0 -211 248 0 106 106 -106 106zm0 -211l106 0 0 106 -106 -106zm-106 962l0 -856 211 0 0 856 -106 106 -106 -106zm211 0l0 106 -106 0 106 -106zm-354 -106l248 0 0 211 -248 0 -106 -106 106 -106zm0 211l-106 0 0 -106 106 106zm106 -962l0 856 -211 0 0 -856 106 -106 106 106zm-211 0l0 -106 106 0 -106 106z"/>
  </g>
  <g>
   <path class="fil1" d="M3179 3518l-248 0 0 -211 248 0 106 106 -106 106zm0 -211l106 0 0 106 -106 -106zm-106 962l0 -856 211 0 0 856 -106 106 -106 -106zm211 0l0 106 -106 0 106 -106zm-354 -106l248 0 0 211 -248 0 -106 -106 106 -106zm0 211l-106 0 0 -106 106 106zm106 -962l0 856 -211 0 0 -856 106 -106 106 106zm-211 0l0 -106 106 0 -106 106z"/>
  </g>
  <g>
   <path class="fil1" d="M3747 3518l-248 0 0 -211 248 0 106 106 -106 106zm0 -211l106 0 0 106 -106 -106zm-106 962l0 -856 211 0 0 856 -106 106 -106 -106zm211 0l0 106 -106 0 106 -106zm-354 -106l248 0 0 211 -248 0 -106 -106 106 -106zm0 211l-106 0 0 -106 106 106zm106 -962l0 856 -211 0 0 -856 106 -106 106 106zm-211 0l0 -106 106 0 -106 106z"/>
  </g>
  <ellipse class="fil0" cx="9730" cy="3032" rx="3062" ry="3032"/>
  <ellipse class="fil0" cx="16431" cy="3119" rx="3062" ry="3032"/>
  <path class="fil2" d="M18309 1849l-796 419 12 -410 -2636 0c-74,4 -111,43 -105,123l0 1341 -218 0 -12 -1399c47,-166 152,-253 298,-286l2673 6 -12 -404 796 609z"/>
  <path class="fil2" d="M14557 4388l796 -419 -12 410 2636 0c74,-4 111,-43 105,-123l0 -1341 218 0 12 1399c-47,166 -152,253 -298,286l-2673 -6 12 404 -796 -609z"/>
  <g>
   <g>
    <path class="fil2" d="M11947 1335l4 1101 -884 -407 326 -270c-1146,-1664 -3710,-794 -3770,1255l-239 -9c233,-2299 2797,-3125 4195,-1398l368 -271z"/>
    <path class="fil2" d="M7514 4730l-4 -1101 884 407 -326 270c1146,1664 3710,794 3770,-1255l239 9c-233,2299 -2797,3125 -4195,1398l-368 271z"/>
   </g>
   <path class="fil2" d="M9625 3753l0 -672c-90,-22 -178,-48 -263,-85 -81,-35 -149,-87 -201,-158 -54,-72 -76,-157 -76,-246 0,-93 20,-183 74,-261 55,-79 135,-132 223,-169 78,-33 160,-51 244,-59l0 -127 217 0 0 129c134,13 270,52 373,142 89,77 145,174 169,289l19 92 -218 16 -17 -67c-43,-171 -166,-251 -327,-275l0 597c51,12 102,25 153,40 52,15 105,31 154,54 62,29 122,66 171,114 42,42 76,90 99,145 23,57 33,117 33,178 0,163 -61,296 -194,393 -123,91 -265,133 -416,142l0 125 -217 0 0 -132c-147,-17 -294,-61 -408,-159 -105,-91 -169,-206 -193,-343l-15 -88 217 -20 17 69c25,102 76,189 165,249 66,45 140,73 218,88zm217 11c97,-7 199,-30 275,-90 72,-58 116,-132 116,-226 0,-60 -19,-114 -58,-161 -42,-49 -96,-82 -156,-104 -58,-21 -117,-38 -177,-53l0 633zm-217 -1465c-105,11 -224,42 -283,133 -28,43 -39,93 -39,144 0,55 17,103 53,144 37,41 83,70 135,88 44,16 89,28 134,40l0 -549z"/>
  </g>
 </g>
</svg>
