<svg xmlns="http://www.w3.org/2000/svg" xmlns:xlink="http://www.w3.org/1999/xlink" width="742" height="732"
     viewBox="0 0 742 732">
    <defs>
        <clipPath id="clip-Graphigem_Icon">
            <rect width="742" height="732"/>
        </clipPath>
    </defs>
    <g id="Graphigem_Icon" clip-path="url(#clip-Graphigem_Icon)">
        <g id="Group_2002" data-name="Group 2002" transform="translate(-8 -9)" opacity="0.999">
            <g id="Group_1981" data-name="Group 1981" transform="translate(184.476 11)">
                <g id="Group_1924" data-name="Group 1924">
                    <g id="Group_1892" data-name="Group 1892">
                        <path id="Cart_4_"
                              d="M645.531,173.889C622.156,105.46,534.118,74.414,447.707,75.483c-82.435,1.02-161.329,36.588-180.32,98.406h2.107c-8.081.226,110.58.074,250.768,0C578.68,173.858,645.531,173.889,645.531,173.889Zm-16.775,0H285.493c19.71-46.277,79.575-84.913,167.966-85.1,76.012.689,149.673,28.151,175.3,85.1Z"
                              transform="translate(-267.387 -75.457)" fill="#FBD13E"/>
                    </g>
                </g>
            </g>
            <g id="Group_1924-2" data-name="Group 1924" transform="translate(11 108.009)">
                <g id="Group_1892-2" data-name="Group 1892" transform="translate(0 0)">
                    <path id="Subtraction_1" data-name="Subtraction 1"
                          d="M116.6,105.043a128.246,128.246,0,0,1-44.625-7.921,117.8,117.8,0,0,1-37.83-22.564,103.6,103.6,0,0,1-25.3-33.819A93.955,93.955,0,0,1,0,.846C0,.615,0,.386,0,.154H233.5V0c0,.236,0,.476,0,.713V.846A93.989,93.989,0,0,1,224.329,41.4,104.078,104.078,0,0,1,199.3,74.52a118.071,118.071,0,0,1-37.118,22.333,128.229,128.229,0,0,1-45.455,8.19Z"
                          transform="translate(35.014 525.949)" fill="#FBD13E"/>
                    <path id="Subtraction_2" data-name="Subtraction 2"
                          d="M116.6,164.941a128.243,128.243,0,0,1-44.623-7.921,117.825,117.825,0,0,1-37.831-22.563,103.635,103.635,0,0,1-25.3-33.821A93.96,93.96,0,0,1,0,60.744c0-.228,0-.461,0-.689H211.616V0C225.937,17.781,233.5,38.787,233.5,60.744a94,94,0,0,1-9.176,40.553A104.076,104.076,0,0,1,199.3,134.418a118.06,118.06,0,0,1-37.117,22.333,128.223,128.223,0,0,1-45.454,8.19Z"
                          transform="translate(456.618 466.05)" fill="#FBD13E"/>
                    <path id="Cart_4_2" data-name="Cart_4_"
                          d="M682.477,174.847c-26.452-.939-100.028-1.592-100.028-1.592H114.219c-11.418.318-40.352,8.821-60.274,27.03C38.438,214.459,31.739,237.685,31.739,245l.089,410.372c-.022,11.076,2.948,28.263,23.779,45.788s52.256,24.311,59.543,24.311l565.406.749c12.735,0,34.9-5.308,55.469-24.167s24.09-46.12,24.09-51.344l.414-401.774c0-7.032-3.168-28.351-17.57-43.323C724.28,186.191,708.929,175.786,682.477,174.847Z"
                          transform="translate(-31.739 -173.255)" fill="#FBD13E"/>
                </g>
            </g>
            <g id="Group_1995" data-name="Group 1995" transform="translate(219.938 201.484)">
                <path id="Path_3174" data-name="Path 3174"
                      d="M0,0,123.153,110.082h0L62.86,187.311l62.055,63.976L.677,363.614Z" transform="translate(0 0)"
                      fill="#fff"/>
                <path id="Path_3173" data-name="Path 3173"
                      d="M-5330.239,14005.021l-5.323,108.669-59.255,78.669,59.255,64.086v112.726H-5188.3l-155.937-176.812,156.341-187.338Z"
                      transform="translate(5498.484 -14005.021)" fill="#fff"/>
            </g>
        </g>
    </g>
</svg>
