<svg xmlns="http://www.w3.org/2000/svg" xmlns:xlink="http://www.w3.org/1999/xlink" width="24" height="24"
     viewBox="0 0 900 900">
    <defs>
        <clipPath id="clip-Icon_3_Red">
            <rect width="900" height="900"/>
        </clipPath>
    </defs>
    <g id="Icon_3_Red" clip-path="url(#clip-Icon_3_Red)">
        <rect width="900" height="900" fill="none"/>
        <g id="Group_2028" data-name="Group 2028" transform="translate(-30.511)">
            <g id="Group_2019" data-name="Group 2019" transform="translate(265.511 66)">
                <g id="placeholder" transform="translate(0 259.326)">
                    <path id="Path_3248" data-name="Path 3248"
                          d="M141.605,0c-1.632,0-3.2,1.625-4.335,4.506-.74,1.872-18.332,46.548-36.2,107.172C76.647,194.5,64.267,263.987,64.267,318.2c0,105.04,34.694,190.5,77.338,190.5s77.338-85.456,77.338-190.5c0-54.213-12.381-123.7-36.8-206.522C164.272,51.053,146.68,6.379,145.94,4.507,144.8,1.625,143.238,0,141.605,0Z"
                          transform="translate(-64.267 0)" fill="none" stroke="#FFFFFF" opacity="0.3" stroke-width="12"/>
                </g>
                <g id="placeholder-2" data-name="placeholder" transform="translate(0 0)">
                    <path id="Path_3248-2" data-name="Path 3248"
                          d="M141.605,494.228c-1.632,0-3.2-1.579-4.335-4.378-.74-1.819-18.332-45.224-36.2-104.124-24.418-80.469-36.8-147.977-36.8-200.649C64.267,83.025,98.961,0,141.605,0s77.338,83.026,77.338,185.078c0,52.671-12.381,120.18-36.8,200.648-17.873,58.9-35.465,102.305-36.2,104.124C144.8,492.649,143.238,494.228,141.605,494.228Z"
                          transform="translate(-64.267 0)" fill="none" stroke="#FFFFFF" opacity="0.3" stroke-width="12"/>
                </g>
            </g>
            <g id="Group_2027" data-name="Group 2027" transform="translate(0 -2.375)">
                <g id="placeholder-3" data-name="placeholder"
                   transform="matrix(0.669, 0.743, -0.743, 0.669, 592.67, 162.375)">
                    <path id="Path_3248-3" data-name="Path 3248"
                          d="M141.605,342.564c-1.632,0-3.2-1.095-4.335-3.034-.74-1.261-25.064-30.613-46.125-69.313C66.727,214.442,64.267,164.792,64.267,128.283,64.267,57.547,98.961,0,141.605,0s77.338,57.548,77.338,128.283c0,36.508-12.381,83.3-36.8,139.075a752.9,752.9,0,0,1-36.2,72.171C144.8,341.47,143.238,342.564,141.605,342.564Z"
                          transform="translate(-64.267 0)" fill="none" stroke="#FFFFFF" opacity="0.3" stroke-width="12"/>
                </g>
                <g id="placeholder-4" data-name="placeholder" transform="translate(338.095 512.322) rotate(-48)">
                    <path id="Path_3248-4" data-name="Path 3248"
                          d="M77.339,0C75.706,0,74.143,1.095,73,3.034c-.74,1.261-21.023,32.357-44.341,71.295C4.244,130.1,0,177.773,0,214.282c0,70.736,34.694,128.283,77.338,128.283s77.338-57.548,77.338-128.283c0-36.508-12.381-83.3-36.8-139.075a752.89,752.89,0,0,0-36.2-72.171C80.534,1.095,78.971,0,77.339,0Z"
                          transform="translate(0)" fill="none" stroke="#FFFFFF" opacity="0.3" stroke-width="12"/>
                </g>
            </g>
        </g>
    </g>
</svg>
