<svg xmlns="http://www.w3.org/2000/svg" xmlns:xlink="http://www.w3.org/1999/xlink" width="118" height="45"
     viewBox="0 0 118 45">
  <defs>
    <style>
      .cls-1 {
      clip-path: url(#clip-Owami-45px_1_2);
      }

      .cls-3 {
      fill: #fb0028;
      }

      .cls-2{
      fill: #1199f8;
      }

      .cls-2 {
      fill-rule: evenodd;
      }

      .cls-4 {
      fill: #fff;
      }
    </style>
    <clipPath id="clip-Owami-45px_1_2">
      <rect width="118" height="45"/>
    </clipPath>
  </defs>
  <g id="Owami-45px_1_2" data-name="Owami-45px_1 – 2" class="cls-1">
    <g id="Group_2010" data-name="Group 2010">
      <path id="shop_2x_5_" data-name="shop@2x (5)" class="cls-2"
            d="M84.578,219.777v10.777h3.477l.005-.814c0-.448.015-3.079.027-5.846l.022-5.032.329-.173a6.918,6.918,0,0,1,1.994-.656,8.44,8.44,0,0,1,1.936.018,2.711,2.711,0,0,1,2.266,2.256l.1.384.012,4.931.012,4.931h3.514l-.012-5.315a50.2,50.2,0,0,0-.09-5.794A4.629,4.629,0,0,0,96.12,215.9a4.321,4.321,0,0,0-1.167-.557,7.7,7.7,0,0,0-4.127-.174,11.278,11.278,0,0,0-2.37.844c-.18.09-.335.164-.345.164s-.019-1.614-.019-3.586V209H84.578v10.777m22.543-4.824a8.829,8.829,0,0,0-3.245.767,6.006,6.006,0,0,0-2.008,1.609,7.81,7.81,0,0,0-1.395,3.894,20.039,20.039,0,0,0,0,3.348,7.424,7.424,0,0,0,2.109,4.712,6.71,6.71,0,0,0,4.118,1.675c.2.02.7.036,1.1.036a8.682,8.682,0,0,0,2.9-.421,6.22,6.22,0,0,0,4.072-4.225,12.838,12.838,0,0,0,.059-6.7,5.929,5.929,0,0,0-4.389-4.4,11.254,11.254,0,0,0-3.315-.3m16.047.015a14.58,14.58,0,0,0-3.149.528,3.124,3.124,0,0,0-2.547,2.068l-.086.238-.01,9.341-.01,9.341h3.441v-3.147c0-2.012.013-3.147.036-3.147a1.439,1.439,0,0,1,.239.09,9.84,9.84,0,0,0,3.664.68,6.285,6.285,0,0,0,4.774-1.854,7.711,7.711,0,0,0,2.009-4.734,17.243,17.243,0,0,0-.094-3.367,6.5,6.5,0,0,0-3.459-5.266,9.753,9.753,0,0,0-4.807-.769m-47.281.145a7.451,7.451,0,0,0-2.232.676,4.257,4.257,0,0,0-2.29,2.5,5.524,5.524,0,0,0,.1,3.352,4.2,4.2,0,0,0,1.773,1.842,11.469,11.469,0,0,0,1.752.7c.272.084.906.286,1.409.45,1.845.6,2.4,1.036,2.4,1.888a1.535,1.535,0,0,1-.819,1.374,5.887,5.887,0,0,1-4.469-.112,17.372,17.372,0,0,1-2.2-1.117l-.119-.072v1.627c0,1.518,0,1.629.064,1.647.035.011.27.1.521.209a13.863,13.863,0,0,0,2.562.8,12.941,12.941,0,0,0,2.974.059,7.907,7.907,0,0,0,2.89-.882,4.619,4.619,0,0,0,1.794-1.881,5.418,5.418,0,0,0,.265-3.315,3.771,3.771,0,0,0-2.129-2.463,11.475,11.475,0,0,0-2.1-.718,19.727,19.727,0,0,1-2.187-.744,1.528,1.528,0,0,1-1.068-1.3,1.373,1.373,0,0,1,.885-1.529,3.587,3.587,0,0,1,1.729-.305,5.832,5.832,0,0,1,3.238.9c.565.28,1.035.509,1.045.509s.017-.656.017-1.458v-1.458l-.509-.242a10.159,10.159,0,0,0-2.23-.829,10.262,10.262,0,0,0-3.061-.11m31.069,2.758a3.082,3.082,0,0,0-2.653,2.15,10.2,10.2,0,0,0-.242,4.956,5.275,5.275,0,0,0,.866,1.981,3.584,3.584,0,0,0,3.053,1.134,3.641,3.641,0,0,0,2.241-.725,4.951,4.951,0,0,0,1.46-3.163,14.213,14.213,0,0,0,.019-2.488c-.253-2.224-1.14-3.435-2.778-3.79a7.529,7.529,0,0,0-1.967-.055m16.3.1a5.826,5.826,0,0,0-1.871.4,1.252,1.252,0,0,0-.513.492c-.063.139-.067.36-.067,4.272v4.126l.412.2a6.059,6.059,0,0,0,2.9.6,3.546,3.546,0,0,0,3.624-2.757,9.568,9.568,0,0,0-.294-5.455,2.969,2.969,0,0,0-.62-.922c-.749-.788-1.8-1.069-3.57-.955"
            transform="translate(-20.309 -196)"/>
      <g id="Group_2009" data-name="Group 2009">
        <g id="Group_1892" data-name="Group 1892" transform="translate(2 0.21)">
          <path id="Subtraction_1" data-name="Subtraction 1" class="cls-3"
                d="M7.3,6.574a8.026,8.026,0,0,1-2.793-.5A7.372,7.372,0,0,1,2.137,4.666,6.483,6.483,0,0,1,.554,2.549,5.88,5.88,0,0,1,0,.053C0,.038,0,.024,0,.01H14.613V0c0,.015,0,.03,0,.045V.053a5.882,5.882,0,0,1-.574,2.538,6.513,6.513,0,0,1-1.566,2.073,7.389,7.389,0,0,1-2.323,1.4,8.025,8.025,0,0,1-2.845.513Z"
                transform="translate(2.191 38.426)"/>
          <path id="Subtraction_2" data-name="Subtraction 2" class="cls-3"
                d="M7.3,10.322a8.026,8.026,0,0,1-2.793-.5A7.374,7.374,0,0,1,2.137,8.415,6.486,6.486,0,0,1,.554,6.3,5.88,5.88,0,0,1,0,3.8c0-.014,0-.029,0-.043H13.243V0a6.015,6.015,0,0,1,1.37,3.8,5.882,5.882,0,0,1-.574,2.538,6.513,6.513,0,0,1-1.566,2.073,7.388,7.388,0,0,1-2.323,1.4,8.024,8.024,0,0,1-2.845.513Z"
                transform="translate(28.576 34.678)"/>
          <path id="Cart_4_" class="cls-3"
                d="M72.464,81.584c-1.655-.058-6.26-.1-6.26-.1-1.459-4.191-6.956-6.093-12.351-6.027-5.147.062-10.072,2.241-11.258,6.027H36.9a7.093,7.093,0,0,0-3.772,1.666,4.65,4.65,0,0,0-1.39,2.756l.006,25.3a3.524,3.524,0,0,0,1.488,2.823,7.593,7.593,0,0,0,3.726,1.5l35.384.046a5.434,5.434,0,0,0,3.471-1.49,4.888,4.888,0,0,0,1.508-3.165l.026-24.768a4.245,4.245,0,0,0-1.1-2.671A5.063,5.063,0,0,0,72.464,81.584Zm-7.307-.1H43.726c1.231-2.834,4.968-5.2,10.486-5.212,4.746.042,9.344,1.724,10.944,5.212Z"
                transform="translate(-31.739 -75.457)"/>
        </g>
        <g id="Group_1995" data-name="Group 1995" transform="translate(15.504 13)">
          <path id="Path_3174" data-name="Path 3174" class="cls-4"
                d="M0,0,7.621,6.67h0L3.89,11.349l3.84,3.876L.042,22.03Z" transform="translate(0 0)"/>
          <path id="Path_3173" data-name="Path 3173" class="cls-4"
                d="M-5390.821,14005.02l-.33,6.574-3.667,4.759,3.667,3.878v6.819h9.113l-9.649-10.7,9.674-11.333Z"
                transform="translate(5401.232 -14005.02)"/>
        </g>
      </g>
    </g>
  </g>
</svg>
