<?xml version="1.0" encoding="UTF-8"?>
<!DOCTYPE svg PUBLIC "-//W3C//DTD SVG 1.1//EN" "http://www.w3.org/Graphics/SVG/1.1/DTD/svg11.dtd">
<!-- Creator: CorelDRAW 2018 (64-Bit Evaluation Version) -->
<svg xmlns="http://www.w3.org/2000/svg" xml:space="preserve" width="145.546mm" height="23.8972mm" version="1.1" style="shape-rendering:geometricPrecision; text-rendering:geometricPrecision; image-rendering:optimizeQuality; fill-rule:evenodd; clip-rule:evenodd"
viewBox="0 0 8830.95 1449.95"
 xmlns:xlink="http://www.w3.org/1999/xlink">
 <defs>
  <style type="text/css">
   <![CDATA[
    .str1 {stroke:white;stroke-width:5.14;stroke-miterlimit:22.9256}
    .str0 {stroke:white;stroke-width:12.13;stroke-miterlimit:22.9256}
    .fil1 {fill:white}
    .fil0 {fill:white;fill-rule:nonzero}
   ]]>
  </style>
 </defs>
 <g id="Layer_x0020_1">
  <metadata id="CorelCorpID_0Corel-Layer"/>
  <g id="_1872430800944">
   <path class="fil0" d="M1938.77 741.86c-61.6,54.67 -92.56,129.12 -92.56,222.99 0,93.88 29.65,168.32 88.6,223.65 59.29,55.34 131.42,83 216.07,83 84.98,0 156.12,-28.98 213.11,-86.96 57.97,-57.64 86.96,-131.42 86.96,-220.68 0,-89.59 -28.66,-162.39 -85.97,-219.04 -56.98,-56.65 -126.82,-84.65 -209.16,-83.99 -82.35,0 -154.81,27.01 -217.06,81.03zm-274.38 685.77l0 -1288.37c-0.88,-101.96 68.91,-139.39 179.84,-136.54l0 640.65c62.91,-105.73 170.95,-158.43 324.11,-158.43 133.4,0 244.4,44.46 333,133.4 88.94,87.94 133.4,203.56 133.4,346.51 0,142.63 -46.11,258.9 -138,348.16 -92.23,89.59 -202.25,134.39 -330.37,134.39 -68.18,0 -131.75,-14.82 -191.04,-44.47 -58.96,-29.65 -102.76,-68.51 -131.09,-116.93 -0.18,117.5 -66.55,144.27 -179.84,141.64z"/>
   <path class="fil0" d="M2920.61 1427.62c-100.57,3.13 -177.38,-23.21 -179.84,-111.34l0 -811.58c118.59,-1.35 179.26,27.12 179.84,124.04l0 84.13c45.13,-151.84 130.44,-227.93 256.59,-227.93 72.8,0 126.15,11.86 160.41,35.25 -25.65,94.46 -76,146.71 -162.8,136.69 -0.4,-0.05 -0.82,-0.01 -1.23,-0.01 -81.35,0 -143.61,38.87 -187.42,116.6 -32.52,57.94 -60.32,130.93 -61.21,220.24l-4.34 433.91z"/>
   <path class="fil0" d="M3416.99 1427.62l0 -779.78c0.59,-105.37 68.08,-143.22 179.84,-143.14l0 799.64c-0.45,97.78 -64.87,125.37 -179.84,123.29z"/>
   <path class="fil0" d="M3418.31 247.78c-23.39,-22.73 -34.91,-50.4 -34.91,-83 0,-32.94 11.52,-60.28 34.91,-83.01 26.02,-22.39 55.34,-33.6 88.6,-33.6 33.27,0 62.59,10.87 87.61,32.61 25.36,22.07 37.89,50.07 37.89,84 0,33.92 -12.52,61.92 -37.89,83.99 -25.03,21.74 -54.35,32.61 -87.61,32.61 -33.27,0 -62.59,-11.19 -88.6,-33.6z"/>
   <path class="fil0" d="M4620.45 1427.62l0 -1296.79c-0.5,-89.17 84.94,-127.82 179.84,-128.12l0 823.46 253.65 -256.01c78.46,-83.31 176.04,-109.89 309.92,-65.47l-395.59 398.55 490.12 524.37c-120.16,19.7 -225.5,10.55 -297.23,-64.05l-360.87 -386.87 0 319.95c-3.8,82.71 -73.47,128.21 -179.84,130.97z"/>
   <path class="fil0" d="M5936.17 484.94c142.29,0 258.89,49.73 350.13,148.88 -80.18,52.3 -169.69,84.73 -299.66,31.08 -0.52,-0.21 -1.13,-0.18 -1.7,-0.25 -16.93,-2.54 -34.51,-3.82 -52.72,-3.82 -86.63,0 -160.41,28 -221.01,84.32 -60.94,55.34 -91.57,128.79 -91.57,220.69 0,91.57 30.96,166.01 92.56,223.32 61.92,57.65 135.7,86.3 222,86.3 40.47,0 77.67,-6.56 111.53,-19.69 1.1,-0.42 2.3,-0.69 3.3,-1.3 90.99,-56.09 168.63,-27.89 239.25,44.71 -91.9,98.81 -208.17,148.22 -348.16,148.22 -140.32,0 -258.89,-44.47 -355.73,-133.4 -96.51,-90.25 -144.6,-206.19 -144.6,-348.16 0,-141.96 47.43,-257.58 141.96,-346.51 94.86,-88.94 212.79,-133.73 354.42,-134.39z"/>
   <path class="fil0" d="M4201.09 484.94c142.29,0 258.89,49.73 350.13,148.88 -60.49,80.04 -138.12,103.97 -240.65,46.39 -1.61,-0.9 -3.5,-1.29 -5.25,-1.91 -33.12,-11.64 -69.2,-17.47 -108.18,-17.47 -86.63,0 -160.41,28 -221.01,84.32 -60.94,55.34 -91.57,128.79 -91.57,220.69 0,91.57 30.96,166.01 92.56,223.32 61.92,57.65 135.7,86.3 222,86.3 37.7,0 72.55,-5.69 104.52,-17.09 1.29,-0.46 2.62,-0.85 3.86,-1.41 103.97,-46.64 182.49,-23.27 245.7,42.22 -91.9,98.81 -208.17,148.22 -348.16,148.22 -140.32,0 -258.89,-44.47 -355.73,-133.4 -96.51,-90.25 -144.6,-206.19 -144.6,-348.16 0,-141.96 47.43,-257.58 141.96,-346.51 94.86,-88.94 212.78,-133.73 354.42,-134.39z"/>
   <path class="fil0" d="M7270.29 963.52c0,40.84 -0.66,64.23 -1.98,70.81l-749.01 0c8.89,74.44 41.84,136.04 98.49,185.12 54.67,45.12 115.94,67.85 184.12,67.85 74.74,0 143.57,-14.99 199.03,-53.12 0.95,-0.66 1.98,-1.19 2.82,-1.97 74.78,-69.39 152.72,-69.71 232.6,-28.24 -37.88,77.74 -95.19,137.68 -171.94,179.85 -76.41,42.48 -160.73,63.57 -252.64,63.57 -132.08,0 -244.73,-44.47 -338.6,-133.73 -89.26,-89.26 -133.73,-206.19 -133.73,-350.13 0,-144.27 44.47,-259.88 133.07,-347.17 88.94,-86.96 201.26,-130.76 337.62,-131.42 136.36,0 246.38,44.13 330.04,132.08 86.63,87.61 130.1,203.22 130.1,346.51zm-269.43 -252.3c-51.39,-44.13 -115.28,-66.21 -191.04,-66.21 -76.09,0 -141.31,22.07 -195.99,66.21 -54.02,47.1 -85.64,108.36 -94.53,182.81l572.14 0c-8.89,-74.44 -39.2,-135.7 -90.58,-182.81z"/>
   <path class="fil0" d="M7547.5 929.93l0 497.7c-132.26,0.82 -179.84,-7.91 -179.84,-141.73l0 -781.2c111.54,-1.36 178.02,11.55 179.84,96.52l0 42.16c26.35,-51.39 65.87,-90.91 118.9,-117.92 52.7,-27.01 109.35,-40.51 169.63,-40.51 115.94,0 203.23,35.57 262.19,107.05 61.59,70.16 92.88,170.94 93.54,302.04l0 418.62c-0.21,81.38 -45.06,117.54 -179.84,114.98l0 -521.74c0,-77.73 -18.45,-137.68 -55.01,-179.51 -35.57,-43.81 -87.94,-65.55 -157.44,-65.55 -70.16,0 -129.78,22.72 -178.52,68.51 -49.08,45.46 -73.45,112.65 -73.45,200.6z"/>
   <path class="fil0" d="M8637.27 313.57l0 191.13 53.02 0c99.31,-1.32 139.13,46.73 140.65,160.08l-193.67 0 0 762.85c-112.72,1.12 -174.82,-27.36 -179.84,-150.82l0 -612.03 -33.75 0c-120.71,-1.27 -130.11,-77.55 -132.26,-160.08l166.01 0 0 -337.95c112.18,-2.39 173.72,31.35 179.84,146.82z"/>
  </g>
  <g id="_1872430808464">
   <g>
    <path class="fil1 str0" d="M1276.14 7.71c-329.21,0 -738.9,241.05 -738.9,708.16 0,507.22 348.39,726.92 738.9,726.92l-556.41 -710.61 556.41 -724.47z"/>
    <path class="fil1 str0" d="M173.82 7.17c163.18,0 366.26,119.49 366.26,351.03 0,251.43 -172.69,360.33 -366.26,360.33l275.8 -352.25 -275.8 -359.11z"/>
    <path class="fil1 str0" d="M173.82 730.67c163.18,0 366.26,119.49 366.26,351.03 0,251.42 -172.69,360.33 -366.26,360.33l275.8 -352.25 -275.8 -359.11z"/>
   </g>
   <polygon class="fil1 str1" points="1405.55,44.8 1337.2,2.57 1447.38,2.57 1447.38,127.93 "/>
   <polygon class="fil1 str1" points="44.39,44.8 112.76,2.57 2.57,2.57 2.57,127.94 "/>
   <polygon class="fil1 str1" points="1405.56,1405.16 1337.2,1447.38 1447.39,1447.38 1447.39,1322.02 "/>
   <polygon class="fil1 str1" points="44.39,1405.16 112.76,1447.39 2.57,1447.39 2.57,1322.02 "/>
  </g>
 </g>
</svg>
