<?xml version="1.0" encoding="UTF-8"?>
<!DOCTYPE svg PUBLIC "-//W3C//DTD SVG 1.1//EN" "http://www.w3.org/Graphics/SVG/1.1/DTD/svg11.dtd">
<!-- Creator: CorelDRAW 2018 (64-Bit Evaluation Version) -->
<svg xmlns="http://www.w3.org/2000/svg" xml:space="preserve" width="72.7942mm" height="12.0305mm" version="1.1" style="shape-rendering:geometricPrecision; text-rendering:geometricPrecision; image-rendering:optimizeQuality; fill-rule:evenodd; clip-rule:evenodd"
viewBox="0 0 7524.08 1243.48"
 xmlns:xlink="http://www.w3.org/1999/xlink">
 <defs>
  <style type="text/css">
   <![CDATA[
    .str1 {stroke:white;stroke-width:8.75;stroke-miterlimit:22.9256}
    .str0 {stroke:white;stroke-width:20.67;stroke-miterlimit:22.9256}
    .fil1 {fill:white}
    .fil0 {fill:white;fill-rule:nonzero}
   ]]>
  </style>
 </defs>
 <g id="Layer_x0020_1">
  <metadata id="CorelCorpID_0Corel-Layer"/>
  <g id="_1872622549776">
   <path class="fil0" d="M1653.57 636.11c-52.47,46.57 -78.83,109.98 -78.83,189.94 0,79.96 25.24,143.36 75.46,190.49 50.5,47.13 111.94,70.7 184.04,70.7 72.38,0 132.98,-24.68 181.51,-74.07 49.39,-49.1 74.07,-111.94 74.07,-187.96 0,-76.31 -24.4,-138.32 -73.22,-186.58 -48.54,-48.25 -108.01,-72.09 -178.15,-71.54 -70.14,0 -131.86,23.01 -184.88,69.01zm-233.71 584.11l0 -1097.38c-0.74,-86.84 58.71,-118.72 153.18,-116.29l0 545.67c53.59,-90.06 145.61,-134.95 276.07,-134.95 113.63,0 208.18,37.88 283.64,113.62 75.75,74.92 113.62,173.39 113.62,295.15 0,121.48 -39.28,220.52 -117.55,296.54 -78.55,76.31 -172.26,114.47 -281.39,114.47 -58.08,0 -112.23,-12.63 -162.72,-37.88 -50.22,-25.25 -87.54,-58.35 -111.67,-99.6 -0.14,100.08 -56.68,122.89 -153.18,120.64z"/>
   <path class="fil0" d="M2489.87 1220.23c-85.68,2.67 -151.09,-19.76 -153.18,-94.83l0 -691.28c101,-1.15 152.68,23.1 153.18,105.66l0 71.66c38.43,-129.35 111.09,-194.15 218.55,-194.15 62.01,0 107.45,10.11 136.63,30.03 -21.85,80.46 -64.73,124.96 -138.67,116.43 -0.34,-0.03 -0.69,0 -1.04,0 -69.3,0 -122.33,33.11 -159.64,99.32 -27.69,49.35 -51.38,111.52 -52.14,187.59l-3.69 369.59z"/>
   <path class="fil0" d="M2912.66 1220.23l0 -664.19c0.51,-89.75 58,-121.99 153.19,-121.92l0 681.1c-0.38,83.29 -55.26,106.79 -153.19,105.01z"/>
   <path class="fil0" d="M2913.79 215.29c-19.92,-19.36 -29.74,-42.93 -29.74,-70.71 0,-28.05 9.82,-51.34 29.74,-70.7 22.16,-19.07 47.13,-28.61 75.46,-28.61 28.34,0 53.31,9.25 74.63,27.77 21.6,18.8 32.27,42.65 32.27,71.54 0,28.9 -10.67,52.75 -32.27,71.55 -21.31,18.52 -46.29,27.77 -74.63,27.77 -28.33,0 -53.3,-9.54 -75.46,-28.61z"/>
   <path class="fil0" d="M3937.72 1220.23l0 -1104.55c-0.42,-75.95 72.35,-108.88 153.18,-109.13l0 701.39 216.06 -218.06c66.83,-70.96 149.94,-93.6 263.98,-55.76l-336.95 339.47 417.46 446.64c-102.35,16.79 -192.08,8.99 -253.17,-54.55l-307.39 -329.52 0 272.52c-3.24,70.45 -62.57,109.2 -153.18,111.56z"/>
   <path class="fil0" d="M5058.41 417.28c121.19,0 220.51,42.37 298.23,126.81 -68.3,44.55 -144.54,72.18 -255.24,26.48 -0.45,-0.19 -0.97,-0.16 -1.46,-0.23 -14.42,-2.16 -29.4,-3.25 -44.9,-3.25 -73.79,0 -136.63,23.85 -188.25,71.83 -51.91,47.13 -78,109.69 -78,187.96 0,78 26.37,141.41 78.83,190.23 52.75,49.1 115.59,73.5 189.09,73.5 34.48,0 66.16,-5.59 95.01,-16.78 0.93,-0.36 1.95,-0.58 2.8,-1.11 77.51,-47.78 143.64,-23.75 203.79,38.08 -78.26,84.17 -177.31,126.26 -296.54,126.26 -119.52,0 -220.51,-37.88 -303,-113.62 -82.19,-76.87 -123.15,-175.63 -123.15,-296.55 0,-120.91 40.39,-219.39 120.91,-295.14 80.81,-75.75 181.24,-113.9 301.89,-114.47z"/>
   <path class="fil0" d="M3580.53 417.28c121.2,0 220.51,42.37 298.23,126.81 -51.53,68.18 -117.65,88.56 -204.98,39.51 -1.37,-0.78 -2.98,-1.1 -4.48,-1.62 -28.22,-9.92 -58.94,-14.88 -92.15,-14.88 -73.79,0 -136.63,23.85 -188.25,71.83 -51.91,47.13 -78,109.69 -78,187.96 0,78 26.38,141.41 78.83,190.23 52.75,49.1 115.59,73.5 189.1,73.5 32.1,0 61.8,-4.85 89.02,-14.55 1.11,-0.39 2.23,-0.72 3.3,-1.2 88.56,-39.73 155.43,-19.82 209.27,35.95 -78.28,84.17 -177.32,126.26 -296.55,126.26 -119.52,0 -220.51,-37.88 -302.99,-113.62 -82.2,-76.87 -123.16,-175.63 -123.16,-296.55 0,-120.91 40.39,-219.39 120.92,-295.14 80.8,-75.75 181.23,-113.9 301.88,-114.47z"/>
   <path class="fil0" d="M6194.77 824.93c0,34.78 -0.57,54.7 -1.68,60.31l-637.98 0c7.58,63.4 35.63,115.87 83.89,157.68 46.57,38.43 98.75,57.79 156.83,57.79 63.66,0 122.29,-12.77 169.52,-45.24 0.81,-0.56 1.7,-1.01 2.41,-1.68 63.69,-59.1 130.09,-59.37 198.12,-24.05 -32.27,66.21 -81.09,117.27 -146.45,153.18 -65.09,36.2 -136.91,54.15 -215.19,54.15 -112.5,0 -208.45,-37.88 -288.41,-113.9 -76.03,-76.03 -113.9,-175.63 -113.9,-298.23 0,-122.89 37.87,-221.36 113.35,-295.71 75.74,-74.07 171.41,-111.38 287.56,-111.95 116.16,0 209.86,37.6 281.12,112.51 73.79,74.63 110.82,173.1 110.82,295.15zm-229.5 -214.91c-43.76,-37.59 -98.19,-56.39 -162.72,-56.39 -64.81,0 -120.35,18.8 -166.93,56.39 -46.01,40.11 -72.94,92.3 -80.52,155.7l487.33 0c-7.58,-63.4 -33.39,-115.59 -77.16,-155.7z"/>
   <path class="fil0" d="M6430.88 796.31l0 423.91c-112.65,0.7 -153.18,-6.74 -153.18,-120.72l0 -665.4c95.01,-1.16 151.63,9.84 153.18,82.2l0 35.91c22.44,-43.76 56.1,-77.43 101.28,-100.44 44.88,-23 93.14,-34.51 144.48,-34.51 98.76,0 173.11,30.31 223.32,91.19 52.47,59.76 79.12,145.6 79.68,257.27l0 356.57c-0.18,69.31 -38.38,100.11 -153.18,97.92l0 -444.39c0,-66.21 -15.71,-117.27 -46.85,-152.91 -30.31,-37.31 -74.91,-55.83 -134.1,-55.83 -59.76,0 -110.54,19.36 -152.06,58.36 -41.81,38.72 -62.56,95.95 -62.56,170.86z"/>
   <path class="fil0" d="M7359.11 271.32l0 162.79 45.17 0c84.59,-1.13 118.5,39.79 119.8,136.35l-164.96 0 0 649.76c-96.01,0.96 -148.9,-23.3 -153.18,-128.46l0 -521.3 -28.74 0c-102.81,-1.09 -110.82,-66.06 -112.65,-136.35l141.4 0 0 -287.85c95.55,-2.04 147.97,26.71 153.18,125.06z"/>
  </g>
  <g id="_1872622555056">
   <g>
    <path class="fil1 str0" d="M1089.17 10.8c-280.42,0 -629.37,205.33 -629.37,603.18 0,432.04 296.75,619.17 629.37,619.17l-473.94 -605.28 473.94 -617.08z"/>
    <path class="fil1 str0" d="M150.25 10.34c138.99,0 311.97,101.78 311.97,298.99 0,214.15 -147.1,306.92 -311.97,306.92l234.92 -300.03 -234.92 -305.89z"/>
    <path class="fil1 str0" d="M150.25 626.59c138.99,0 311.97,101.77 311.97,298.99 0,214.15 -147.1,306.92 -311.97,306.92l234.92 -300.04 -234.92 -305.88z"/>
   </g>
   <polygon class="fil1 str1" points="1199.39,42.39 1141.17,6.43 1235.02,6.43 1235.02,113.2 "/>
   <polygon class="fil1 str1" points="40,42.39 98.23,6.43 4.38,6.43 4.38,113.21 "/>
   <polygon class="fil1 str1" points="1199.39,1201.1 1141.18,1237.05 1235.02,1237.05 1235.02,1130.28 "/>
   <polygon class="fil1 str1" points="40,1201.1 98.23,1237.06 4.38,1237.06 4.38,1130.28 "/>
  </g>
 </g>
</svg>
