<?xml version="1.0" encoding="UTF-8"?>
<svg viewBox="0 0 126 48" version="1.1" xmlns="http://www.w3.org/2000/svg" xmlns:xlink="http://www.w3.org/1999/xlink"
     width="1260px" height="360px">
    <!-- Generator: Sketch 50.2 (55047) - http://www.bohemiancoding.com/sketch -->
    <title>Plaid logo</title>
    <desc>Created with Sketch.</desc>
    <defs>
        <polygon id="path-1" points="0 47.473434 126 47.473434 126 0.000404 0 0.000404"/>
    </defs>
    <g id="Symbols" stroke="none" stroke-width="1" fill="none" fill-rule="evenodd">
        <g id="Nav-bar" transform="translate(-48.000000, -26.000000)">
            <g id="Plaid-logo" transform="translate(48.000000, 26.000000)">
                <path
                    d="M66.2476,16.267767 C65.1906,15.378967 63.3866,14.934567 60.8346,14.934567 L55.0786,14.934567 L55.0786,32.722687 L59.3826,32.722687 L59.3826,27.148497 L61.3106,27.148497 C63.6506,27.148497 65.3666,26.633397 66.4586,25.602187 C67.6896,24.446747 68.3076,22.908517 68.3076,20.988507 C68.3076,18.997797 67.6206,17.424217 66.2476,16.267767 M61.2036,23.122637 L59.3826,23.122637 L59.3826,18.961437 L61.0186,18.961437 C63.0086,18.961437 64.0036,19.659347 64.0036,21.055167 C64.0036,22.432807 63.0696,23.122637 61.2036,23.122637"
                    id="Fill-1" fill="#111111"/>
                <polygon id="Fill-3" fill="#111111"
                         points="75.6734 14.934264 71.1854 14.934264 71.1854 32.722384 80.8754 32.722384 80.8754 28.695514 75.6734 28.695514"/>
                <path
                    d="M89.6676,14.934264 L82.6176,32.722384 L87.4496,32.722384 L88.3736,30.135774 L94.4996,30.135774 L95.3446,32.722384 L100.2306,32.722384 L93.2316,14.934264 L89.6676,14.934264 Z M89.6146,26.535124 L91.4636,20.454924 L93.2846,26.535124 L89.6146,26.535124 Z"
                    id="Fill-5" fill="#111111"/>
                <mask id="mask-2" fill="white">
                    <use xlink:href="#path-1"/>
                </mask>
                <g id="Clip-8"/>
                <polygon id="Fill-7" fill="#111111" mask="url(#mask-2)"
                         points="102.473 32.722384 106.962 32.722384 106.962 14.934264 102.473 14.934264"/>
                <path
                    d="M124.3892,18.268072 C123.7902,17.414622 123.0772,16.730852 122.2502,16.214742 C120.8952,15.361292 119.0462,14.934062 116.7052,14.934062 L110.7912,14.934062 L110.7912,32.722182 L117.7092,32.722182 C120.2082,32.722182 122.2152,31.905092 123.7292,30.268892 C125.2432,28.633702 125.9992,26.464222 125.9992,23.761462 C125.9992,21.611172 125.4622,19.780042 124.3892,18.268072 M117.2072,28.695312 L115.2802,28.695312 L115.2802,18.960932 L117.2342,18.960932 C118.6072,18.960932 119.6622,19.390182 120.4022,20.247672 C121.1412,21.105162 121.5112,22.321202 121.5112,23.894782 C121.5112,27.095472 120.0772,28.695312 117.2072,28.695312"
                    id="Fill-9" fill="#111111" mask="url(#mask-2)"/>
                <path
                    d="M18.6373,0.000202 L4.0893,3.809922 L0.0813,18.438762 L5.0953,23.586732 L-0.0007,28.649862 L3.7723,43.343342 L18.2563,47.390412 L23.3523,42.326272 L28.3663,47.473232 L42.9133,43.663512 L46.9213,29.032652 L41.9083,23.886702 L47.0033,18.823572 L43.2313,4.130092 L28.7453,0.083022 L23.6513,5.146152 L18.6373,0.000202 Z M9.7093,6.623782 L17.3723,4.615902 L20.7233,8.055962 L15.8363,12.912042 L9.7093,6.623782 Z M26.5313,8.102422 L29.9363,4.718922 L37.5663,6.851032 L31.3393,13.038292 L26.5313,8.102422 Z M4.6723,17.237872 L6.7833,9.532582 L12.9083,15.820842 L8.0223,20.676922 L4.6723,17.237872 Z M34.2193,15.994562 L40.4463,9.806292 L42.4323,17.546932 L39.0283,20.930432 L34.2193,15.994562 Z M18.7173,15.868312 L23.6043,11.012232 L28.4113,15.948102 L23.5253,20.804182 L18.7173,15.868312 Z M10.9033,23.633192 L15.7893,18.777112 L20.5983,23.712982 L15.7113,28.569062 L10.9033,23.633192 Z M26.4063,23.760452 L31.2923,18.904372 L36.1003,23.840242 L31.2133,28.696322 L26.4063,23.760452 Z M4.5703,29.926502 L7.9763,26.541992 L12.7833,31.478872 L6.5583,37.665122 L4.5703,29.926502 Z M18.5913,31.525332 L23.4783,26.669252 L28.2863,31.605122 L23.4003,36.461202 L18.5913,31.525332 Z M34.0933,31.652592 L38.9803,26.796512 L42.3313,30.235562 L40.2203,37.940852 L34.0933,31.652592 Z M9.4373,40.622402 L15.6633,34.434132 L20.4723,39.370002 L17.0673,42.754512 L9.4373,40.622402 Z M26.2803,39.417472 L31.1663,34.561392 L37.2923,40.849652 L29.6303,42.856522 L26.2803,39.417472 Z"
                    id="Fill-10" fill="#111111" mask="url(#mask-2)"/>
            </g>
        </g>
    </g>
</svg>
