<?xml version="1.0" encoding="UTF-8"?>
<!DOCTYPE svg PUBLIC "-//W3C//DTD SVG 1.1//EN" "http://www.w3.org/Graphics/SVG/1.1/DTD/svg11.dtd">
<!-- Creator: CorelDRAW 2018 (64-Bit Evaluation Version) -->
<svg xmlns="http://www.w3.org/2000/svg" xml:space="preserve" width="316.442mm" height="152.047mm" version="1.1" style="shape-rendering:geometricPrecision; text-rendering:geometricPrecision; image-rendering:optimizeQuality; fill-rule:evenodd; clip-rule:evenodd"
viewBox="0 0 31185.87 14984.52"
 xmlns:xlink="http://www.w3.org/1999/xlink">
 <defs>
  <style type="text/css">
   <![CDATA[
    .fil3 {fill:#00C2FF}
    .fil5 {fill:#3B9CFF}
    .fil11 {fill:#3D4852}
    .fil12 {fill:#494A9C}
    .fil19 {fill:#4A4A95}
    .fil17 {fill:#4C4B9C}
    .fil18 {fill:#545390}
    .fil15 {fill:#8F8FB4}
    .fil14 {fill:#9293CE}
    .fil6 {fill:#99D2FF}
    .fil2 {fill:#99E7FF}
    .fil13 {fill:#C7C6EA}
    .fil7 {fill:#D4E8D6}
    .fil9 {fill:#D6D6EA}
    .fil10 {fill:#E3E2F6}
    .fil8 {fill:#E7E4E9}
    .fil4 {fill:#FBD13E}
    .fil16 {fill:#FCF8E9}
    .fil1 {fill:none;fill-opacity:0.149020}
    .fil0 {fill:#00C2FF;fill-opacity:0.258824}
   ]]>
  </style>
 </defs>
 <g id="Layer_x0020_1">
  <metadata id="CorelCorpID_0Corel-Layer"/>
  <g id="_2807525814528">
   <polygon class="fil0" points="11414.5,9169.39 8020.01,11560.75 11409.91,4451.99 14837.5,11537.61 "/>
   <polygon class="fil1" points="10533.44,8559.72 7728.71,10535.6 10529.64,4661.93 13361.72,10516.48 "/>
   <polygon class="fil0" points="19527.75,6321.85 17724.98,7591.88 19525.32,3816.49 21345.68,7579.58 "/>
   <polygon class="fil1" points="19059.83,5998.06 17570.27,7047.43 19057.82,3927.98 20561.9,7037.27 "/>
   <polygon class="fil0" points="28156.69,3323.04 26394.54,4564.43 28154.31,874.14 29933.64,4552.42 "/>
   <polygon class="fil0" points="4699.08,4266.32 2228.83,6006.57 4695.74,833.34 7190.08,5989.73 "/>
   <path class="fil1" d="M31185.87 14984.52l-31185.87 0 0 -14984.52 31185.87 0 0 14984.52zm-26486.78 -10718.19l-2470.27 1740.25 2466.91 -5173.22 2494.34 5156.4 -2490.97 -1723.42zm6715.4 4903.06l-3394.48 2391.38 3389.89 -7108.76 3427.58 7085.62 -3423 -2368.24zm8113.26 -2847.54l-1802.78 1270.04 1800.34 -3775.39 1820.35 3763.1 -1817.92 -1257.75zm8628.95 -2998.8l-1762.15 1241.4 1759.76 -3690.29 1779.32 3678.29 -1776.93 -1229.39zm-6713.23 9106.9l-1998.08 1407.59 1995.37 -4184.34 2017.53 4170.73 -2014.82 -1393.98z"/>
   <polygon class="fil1" points="27699.31,3006.54 26243.33,4032.25 27697.35,983.12 29167.52,4022.33 "/>
   <polygon class="fil1" points="4057.91,3822.65 2016.84,5260.54 4055.15,986.13 6116.12,5246.62 "/>
   <polygon class="fil0" points="21443.46,12429.93 19445.41,13837.52 21440.76,9653.17 23458.3,13823.9 "/>
   <polygon class="fil1" points="20924.85,12071.06 19273.94,13234.1 20922.63,9776.76 22589.63,13222.85 "/>
  </g>
  <g id="_2807525826240">
   <g>
    <path class="fil2" d="M10978.79 9476.34l-0.84 -597.1 618.27 -4.7 1386.54 4.76c35.45,-3.18 101.03,-12.22 134.39,-2.49 128.05,37.36 3.13,-49.86 75.06,51.61 105.88,-22.86 232.58,-31.29 366.8,-33.72l-1021.05 -2110.75c-145.52,1.39 -290.01,2.27 -432.88,2.14 -1404.47,-1.23 -1153.22,-240.44 -1171.34,1453.8l-2.86 1270.2 47.9 -33.74z"/>
    <polygon class="fil2" points="14224.43,10270.26 14611.71,11070.84 14248.99,11066.62 "/>
    <path class="fil3" d="M11705.82 9370.94c81.17,-220.96 268.78,-397.64 550.97,-387.79 727.96,25.39 620.33,629.14 494.31,1110.97l1404.19 971.49c31.24,0.3 62.48,0.63 93.7,0.99l-24.56 -796.35 -163.99 -339.02c-189.25,44.65 -227.01,175.32 -448.02,285.89 41.77,-146.47 83.3,-158.56 52.03,-274.72 -210.19,-72.25 -312.91,52.49 -499.14,-111.66 -103.85,-206.88 -80.14,-746.2 26.9,-902.31 -71.91,-101.48 53.02,-14.28 -75.04,-51.62 -33.37,-9.75 -98.95,-0.69 -134.4,2.49l-1386.56 -4.76 -677.21 4.7 0.89 638.6 494.61 -348.45 291.32 201.55z"/>
    <path class="fil4" d="M8750.77 10028.33l294.57 -617.72 2.7 0.76c48.8,316.59 -136.07,487.02 -228.22,673.57l-53.77 3.06c-4.36,-19.43 -9.48,-39.35 -15.29,-59.67z"/>
    <path class="fil3" d="M8291.85 10990.69c9.4,105.47 18.15,210.07 29.67,307.93 1.88,15.99 3.58,31.31 5.11,46.12l420.12 -295.97 -383.5 -207.8 -71.4 149.71zm1677.99 -803.55l-1222.12 860.96 -384.18 -207.72 361.46 -758.01 41.06 5.64 53.77 -3.06 707.6 -27.79c140.92,29.37 337.11,-6.63 420.99,100.19 8.02,10.21 15.12,20.13 21.43,29.8z"/>
    <path class="fil5" d="M11950.17 9540c19.07,-72.57 54.21,-151.33 105.2,-240.79l477.46 4.46c161.71,229.79 98.19,460.57 -19,626.31l237.27 164.16c126.03,-481.83 233.67,-1085.59 -494.32,-1110.97 -282.19,-9.84 -469.81,166.82 -550.99,387.77l244.37 169.07z"/>
    <path class="fil5" d="M8326.64 11344.75c-1.54,-14.81 -3.23,-30.14 -5.11,-46.12 -11.52,-97.86 -20.27,-202.46 -29.67,-307.93l-271.84 570.06 306.62 -216.01z"/>
    <path class="fil6" d="M12513.84 9929.98c117.19,-165.73 180.71,-396.51 19,-626.31l-477.46 -4.46c-50.99,89.47 -86.13,168.22 -105.2,240.79l563.67 389.98z"/>
    <path class="fil7" d="M8724.99 10082.37l41.06 5.64c-4.36,-19.43 -9.48,-39.35 -15.29,-59.67l-25.77 54.04z"/>
    <path class="fil3" d="M14499.98 11304.09c2.17,-1.58 4.32,-3.2 6.44,-4.86 -29.62,-109.27 -21.02,-114.81 -174.97,-111.74l168.53 116.6z"/>
    <path class="fil8" d="M13371.06 9137.3c31.45,23.62 -6.73,26.2 81.52,42.95 25.56,4.85 89.52,6.11 117.77,6.71 41.81,0.86 85.61,0.31 129.8,-0.5l-39.75 -82.17c-133.43,5.39 -245.28,16.45 -289.35,33.01z"/>
    <path class="fil9" d="M13364.92 9626.8c70.16,35.66 340.34,47.14 570.6,46.21l-40.79 -84.32 -35.99 -3.02c-149.63,-0.24 -365.64,-36.11 -493.82,41.13z"/>
    <path class="fil9" d="M13561.86 9463.64c50.28,28.77 167.64,43.07 295.55,47.91l-45.91 -94.9c-104.87,8.05 -197.46,24.06 -249.64,46.99z"/>
    <path class="fil5" d="M10930.9 9510.09l-258.67 182.22c0.66,-729.12 3.56,-1458.46 3.59,-2186.68 0.05,-1087.26 -335.13,-1050.43 1715.7,-1024.45l146.46 302.76c-145.52,1.39 -290.01,2.27 -432.88,2.14 -1404.47,-1.23 -1153.22,-240.44 -1171.34,1453.8l-2.86 1270.2zm3680.81 1560.75l225.79 466.77 -337.52 -233.52c2.17,-1.58 4.32,-3.2 6.44,-4.86 -29.62,-109.27 -21.02,-114.81 -174.97,-111.74l-176.13 -121.86c31.23,0.3 62.46,0.63 93.67,0.99l362.72 4.22z"/>
    <path class="fil5" d="M9045.34 9410.61l2.7 0.76c48.8,316.59 -136.07,487.02 -228.22,673.57l707.6 -27.79c186.07,-62.64 468.67,-96.72 545.39,-301.95 101.73,-272.19 -186.48,-293.13 -301.78,-454.76 85.6,-366.71 773.9,-340.33 588.75,-947.98 -253.42,-84 -322.09,62.11 -476.96,-48.27 36.03,-242.22 476.49,-248.09 538.83,-527.04 79.99,-357.83 -215.17,-359.59 -415.34,-381.77l-960.98 2015.23z"/>
    <path class="fil10" d="M13729.04 9300.44c9.19,5.91 20.75,11.39 34.2,16.42l-11.54 -23.85c-8.01,2.37 -15.59,4.83 -22.66,7.43z"/>
    <path class="fil4" d="M13527.7 8829.95l-205.67 0c-125.47,0 -228.14,102.65 -228.14,228.14l0 649.32c0,125.48 102.67,228.15 228.14,228.15l320.73 0c7.12,2.06 14.33,4.31 21.71,6.85 31.21,116.15 -10.28,128.27 -52.05,274.7 214.28,-107.19 256.3,-233.3 431.17,-281.55l18.92 0 -534.82 -1105.6z"/>
    <polygon class="fil5" points="11893.27,8628.31 12144.11,8628.26 12144.86,7418.39 11900.45,7417.05 "/>
    <path class="fil4" d="M12935.8 7606.37c-64.21,-65.67 -122.98,-122.83 -150.89,-133.94l-378.35 377.88c15.31,37.01 42.47,63.72 78.39,82.78l298.93 -289.66c64.44,36.49 213.62,214.31 318.9,308.12l-166.98 -345.18z"/>
    <path class="fil5" d="M11155.91 8123.01c48.64,-40.77 134.88,-90.86 202.29,-109.74 10.94,157.26 -1.36,167.11 -137.06,211.5 -12.25,-35.21 -7.31,-21.8 -28.68,-49.27l-36.55 -52.5zm-34.78 -325c71.7,-38.49 154.99,-93.53 239,-122.21l-7.36 151.56c-85.09,27.4 -149.08,101 -232.11,107.74l0.21 539.45c64.31,-36.7 162.19,-101.32 239.86,-125.79 0.36,122.83 26.29,131.78 -73.95,185.51 -54.67,29.24 -103.09,66.69 -164.68,74.11 26.02,21.9 -8.53,3.84 29.64,14.79 30.76,8.83 -11.1,0.18 23.85,4.57l190.97 -3.71 -2.94 -979.77 -243.04 1.24 0.55 152.5z"/>
    <path class="fil3" d="M12396.31 8621.06c71,9.55 633.29,10.81 1034.34,8.27l-42.97 -88.82c-400.09,-1.85 -936.58,-1.5 -992.81,9.68l1.44 70.88z"/>
    <path class="fil3" d="M13206.13 8165.2c-101.45,1.26 -188.94,3.09 -236.66,4.63l-542.11 3.66c-3.3,1.27 -67.55,15.38 -21.22,63.63 31.92,33.26 585.48,16.16 637.31,15.55 67.09,-0.82 135.78,-0.41 205.16,0.35l-42.48 -87.82z"/>
    <path class="fil3" d="M12396.37 8354.41l-0.52 84.47 942.49 -0.37 -40.39 -83.49c-159.02,0.71 -297.88,0.26 -331.85,-6.02 -84.68,-15.64 17.93,-6.51 -27.12,-5.83 -0.02,0 -52.77,8.9 -70.53,9.73l-472.07 1.53z"/>
    <path class="fil4" d="M11755.03 8493.7c-68.72,16.47 -159.49,81.86 -229.5,114.6 -12.21,-115.14 -20.44,-135.66 65.53,-178.72 55.29,-27.66 112.5,-66.94 162.21,-81.77l-0.35 -189.98 -230.91 117.04 -0.09 -143.53 233.53 -119.15 -12.19 -45.27 -234.6 2.77 0.56 655.55 244.38 1.09 1.44 -132.62z"/>
    <path class="fil3" d="M11120.87 8474.54l1.22 133.83c61.59,-7.42 110.01,-44.87 164.68,-74.11 100.25,-53.73 74.32,-62.69 73.95,-185.51 -77.67,24.47 -175.54,89.09 -239.86,125.79z"/>
    <path class="fil3" d="M11121.13 7798.01l-0.47 137.09c83.03,-6.74 147.02,-80.34 232.11,-107.74l7.36 -151.56c-84.01,28.69 -167.3,83.72 -239,122.21z"/>
    <polygon class="fil3" points="11752.91,8157.83 11755.44,8012.19 11521.91,8131.34 11522,8274.87 "/>
    <path class="fil3" d="M11755.03 8493.7l-1.76 -145.9c-49.71,14.83 -106.92,54.1 -162.21,81.77 -85.97,43.07 -77.74,63.59 -65.53,178.72 70.01,-32.74 160.78,-98.13 229.5,-114.6z"/>
    <path class="fil3" d="M11155.91 8123.01l36.55 52.5c21.37,27.47 16.43,14.05 28.68,49.27 135.7,-44.39 148,-54.24 137.06,-211.5 -67.41,18.87 -153.65,68.97 -202.29,109.74z"/>
   </g>
   <g>
    <path class="fil2" d="M10995.08 8879.12l601.15 -4.57 972.83 3.34 -1016.68 -2101.71c-778.4,-18.46 -603.4,39.33 -618.63,1463.71l-1.34 595.87 62.67 43.36z"/>
    <path class="fil3" d="M11705.85 9370.85c81.19,-220.92 268.78,-397.55 550.94,-387.7 202.73,7.08 340.51,59.09 431.28,140.75l-119.01 -246.01 -972.85 -3.34 -601.69 4.18 711.33 492.13zm1128.84 56.14c27.2,203.66 -26.26,447.93 -83.56,667.05l610.59 422.44 -527.03 -1089.49z"/>
    <path class="fil4" d="M9049.07 9605.44l-358.58 252.61c-86.69,-209.95 -220.92,-437.86 -345.31,-615.21l312.23 -654.77c188.71,43.68 122.89,163.16 215.45,273.7 -13.51,99.65 -28.56,159.17 -48.4,259.63 -0.33,1.62 -18.98,100.02 -18.92,102.38 5.18,228.5 -15.31,59.28 44.54,131.86l197.95 55.73c11.03,71.53 10.1,135.59 1.03,194.07zm-413.14 291.04l-256.69 180.83 -430.77 -2.56 365.82 -767.16c26.39,39.28 52.4,78.88 77.3,116.22 81.04,121.47 174.63,302.4 244.33,472.66z"/>
    <path class="fil3" d="M7745.73 10499.9l34.08 -0.31 599.43 -422.28 -430.77 -2.56 -202.74 425.15zm13.82 13.96l-16.27 -8.81 0 -0.01 16.3 8.81 -0.03 0.01z"/>
    <path class="fil5" d="M11950.19 9539.91c19.07,-72.55 54.21,-151.28 105.18,-240.7l477.46 4.46c161.69,229.76 98.21,460.5 -18.95,626.24l237.24 164.13c57.29,-219.1 110.72,-463.35 83.57,-667.02l-146.64 -303.13c-90.75,-81.66 -228.54,-133.67 -431.27,-140.73 -282.15,-9.84 -469.76,166.77 -550.96,387.68l244.36 169.07z"/>
    <polygon class="fil5" points="7779.81,10499.6 7745.73,10499.9 7736.84,10518.56 7738.42,10528.76 "/>
    <path class="fil6" d="M12513.88 9929.91c117.16,-165.73 180.65,-396.47 18.95,-626.24l-477.46 -4.46c-50.97,89.43 -86.11,168.15 -105.18,240.7l563.7 390z"/>
    <path class="fil7" d="M9286.87 7655.39l-84.11 168.76 -78.46 244.46c-24.33,94.4 6.87,30.74 -29.44,99.28 -59.4,112.08 -13.93,26.93 -57.54,77.21l-164.44 616.67c-13.51,99.65 -28.56,159.17 -48.4,259.63 -0.33,1.62 -18.98,100.02 -18.92,102.38 5.18,228.5 -15.31,59.28 44.54,131.86 48.89,-459.69 232.51,-1049.76 398.25,-1438.12l96.23 -164.36 21.14 -76.69c37.59,-118.15 82.74,-196.57 120.23,-268.28l7.87 -26.55 94.96 -122.81 139.36 -306.56c-147.19,61.68 -335.05,539.82 -441.27,703.13z"/>
    <path class="fil7" d="M8690.49 9858.04c-86.69,-209.95 -220.92,-437.86 -345.31,-615.21l-30.89 64.76c26.39,39.28 52.4,78.88 77.3,116.22 81.04,121.47 174.63,302.4 244.33,472.66l54.56 -38.44z"/>
    <path class="fil5" d="M11406.06 6473.7l146.32 302.48c-778.4,-18.46 -603.4,39.33 -618.63,1463.71l-1.34 595.87 -258.28 -178.69c0.86,-383.99 1.67,-767.87 1.69,-1151.43 0.04,-863.81 -211.21,-1018.04 730.25,-1031.94z"/>
    <path class="fil5" d="M9037.31 8245.1c43.62,-50.27 -1.85,34.88 57.54,-77.21 36.31,-68.54 5.1,-4.88 29.44,-99.28l78.46 -244.46 84.11 -168.76c106.22,-163.31 294.08,-641.44 441.27,-703.13l-139.36 306.56 -94.96 122.81 -7.87 26.55c-37.49,71.71 -82.65,150.12 -120.23,268.28l-21.14 76.69 -96.23 164.36c-165.73,388.35 -349.36,978.42 -398.25,1438.12l197.95 55.73c11.03,71.53 10.1,135.59 1.03,194.07l1320.85 -930.52c28.94,-83.69 31.01,-187.39 -10.14,-322.46 -253.42,-84 -322.09,62.11 -476.96,-48.27 36.03,-242.22 476.49,-248.09 538.83,-527.04 102.77,-459.73 -413.72,-331.72 -552.39,-414.37l-5.06 -121.88 39.13 -47.33 80.08 -112.56c143.27,-112.65 326.32,-384.67 346.24,-636.21 21.69,-273.52 -133.96,-530.37 -402.36,-519.73l-1269.89 2663c188.71,43.68 122.89,163.16 215.45,273.7l164.44 -616.67z"/>
    <polygon class="fil5" points="11893.27,8628.31 12144.11,8628.26 12144.49,8000.2 11899.99,7494.75 "/>
    <path class="fil5" d="M11155.91 8123.01c48.64,-40.77 134.88,-90.86 202.29,-109.74 10.94,157.26 -1.36,167.11 -137.06,211.5 -12.25,-35.21 -7.31,-21.8 -28.68,-49.27l-36.55 -52.5zm-34.78 -325c71.7,-38.49 154.99,-93.53 239,-122.21l-7.36 151.56c-85.09,27.4 -149.08,101 -232.11,107.74l0.21 539.45c64.31,-36.7 162.19,-101.32 239.86,-125.79 0.36,122.83 26.29,131.78 -73.95,185.51 -54.67,29.24 -103.09,66.69 -164.68,74.11 26.02,21.9 -8.53,3.84 29.64,14.79 30.76,8.83 -11.1,0.18 23.85,4.57l190.97 -3.71 -2.94 -979.77 -243.04 1.24 0.55 152.5z"/>
    <path class="fil3" d="M12396.31 8621.06c9.08,1.22 26.33,2.31 50.09,3.26l-36.76 -75.98c-6.41,0.58 -11.5,1.19 -14.77,1.84l1.44 70.88z"/>
    <path class="fil4" d="M11755.03 8493.7c-68.72,16.47 -159.49,81.86 -229.5,114.6 -12.21,-115.14 -20.44,-135.66 65.53,-178.72 55.29,-27.66 112.5,-66.94 162.21,-81.77l-0.35 -189.98 -230.91 117.04 -0.09 -143.53 233.53 -119.15 -12.19 -45.27 -234.6 2.77 0.56 655.55 244.38 1.09 1.44 -132.62z"/>
    <path class="fil3" d="M11120.87 8474.54l1.22 133.83c61.59,-7.42 110.01,-44.87 164.68,-74.11 100.25,-53.73 74.32,-62.69 73.95,-185.51 -77.67,24.47 -175.54,89.09 -239.86,125.79z"/>
    <path class="fil3" d="M11121.13 7798.01l-0.47 137.09c83.03,-6.74 147.02,-80.34 232.11,-107.74l7.36 -151.56c-84.01,28.69 -167.3,83.72 -239,122.21z"/>
    <polygon class="fil3" points="11752.91,8157.83 11755.44,8012.19 11521.91,8131.34 11522,8274.87 "/>
    <path class="fil3" d="M11755.03 8493.7l-1.76 -145.9c-49.71,14.83 -106.92,54.1 -162.21,81.77 -85.97,43.07 -77.74,63.59 -65.53,178.72 70.01,-32.74 160.78,-98.13 229.5,-114.6z"/>
    <path class="fil3" d="M11155.91 8123.01l36.55 52.5c21.37,27.47 16.43,14.05 28.68,49.27 135.7,-44.39 148,-54.24 137.06,-211.5 -67.41,18.87 -153.65,68.97 -202.29,109.74z"/>
   </g>
   <g>
    <path class="fil5" d="M17797.23 7540.96l-72.26 50.91 73.5 -154.13c-0.48,33.25 -0.91,67.61 -1.24,103.22z"/>
    <path class="fil11" d="M20354.96 6894.15c-99.56,-176.69 -258.94,-298.9 -466.6,-369.06l31.73 -131.34 62.1 -68.44c-246.21,-36.12 -25.25,-18.72 -123.17,42.16 -92.67,5.03 -179.1,4.89 -260.29,3.48l756.24 523.2zm-892.68 -526.17c-286.15,-5.91 -505.29,2.6 -711.84,238.51 -97.44,111.28 -161.66,258.26 -215.63,414.87l927.47 -653.38z"/>
   </g>
   <g>
    <path class="fil5" d="M17803.21 6883.33l-232.94 164.1 193.87 -406.56c24.5,57.1 35.26,135.35 39.07,242.46z"/>
    <path class="fil11" d="M20354.91 6894.06c-99.57,-176.64 -258.93,-298.83 -466.55,-368.97l31.73 -131.34 62.1 -68.44c-246.21,-36.12 -25.25,-18.72 -123.17,42.16 -92.64,5.03 -179.03,4.89 -260.21,3.48l756.1 523.11z"/>
   </g>
   <g>
    <path class="fil2" d="M9030.91 14984.52l74.32 -1706.64 8501.83 -3.06 1.19 -719.53 -9377.47 15.12c-190.83,0.02 -1191.73,88.05 -1243.5,-51.31 -85.77,112.55 -33.39,296.05 14,417.24 253.86,649.24 1026.64,171.7 1217.33,378l52.86 1670.18 759.42 0z"/>
    <path class="fil3" d="M16357.25 14984.52c75.42,-135.42 181.99,-269.44 329.38,-408.01 709.82,-667.3 1589.58,-334.17 2311.75,-446.05l77.93 -19.44c-613.4,-9.11 -734.21,-36.11 -1056.86,-359.27l-353.96 7.12c-10.56,-167.28 -52.83,-295.88 26.42,-431.1l-84.85 -52.93 1.16 487.78c-677.75,25.85 -1317.13,79.66 -1815.22,368.9 -307.28,178.47 -641.79,457.81 -808.63,853.01l1372.88 0z"/>
    <path class="fil2" d="M21534.78 13297.82l453.74 -22.53 92.31 1709.22 725.6 0 42.04 -1582.51 -1155.01 -799.1 -52.46 1.23 -106.23 693.69zm1657.59 -23.63c289.24,2.32 581.72,13.79 864.47,2.38 426.58,-17.21 516.82,-328.33 536.57,-722.76l-1295.12 14.1 -161.93 1.03 -281.94 6.63 337.94 698.61z"/>
    <path class="fil2" d="M10980.75 10880.91l-1.96 -1404.58 -47.9 33.73 -2.74 1219.5c19.25,167.73 -18.47,67.64 52.6,151.35zm2578.25 -1986.21c223.16,-4.07 467.11,8.39 670.75,-1.57l-9.77 -874.09c-189.76,-20.84 -146.36,19.47 -244.59,-132.41 -18.72,-30.71 -20.11,7.11 -42.43,-98.53 -26.44,-125.22 15.53,-225.1 28.91,-365.63 12.95,-136.01 12.64,-276.5 26.56,-395.57l149.72 -20.49 79.64 -27.07 -9.43 -158.78 3142.5 8.91c-130.56,-117.69 -2378.94,-41.55 -2594.94,-48.92 -715.48,-24.45 -1480.05,-3.68 -2217.98,3.4l1021.05 2110.75z"/>
    <path class="fil2" d="M16715.77 10380.87c164.6,148.08 171.73,400.81 182.12,615.46l-1367.07 -0.51 -37.52 -148.18c16.9,-231.19 33.33,-323.22 155.08,-456.84 -55.78,-594.91 -166.89,-1418.88 524.83,-1406.25 347.15,6.33 532.23,99.21 577.14,441.46 38.5,293.24 -17.35,662.89 -34.58,954.87zm-2491.34 -110.58l387.26 800.56 552.28 6.43 2198.28 -16.12 168.51 -1041.34 -2.08 -1133.04 -535.7 -8.14 -1502.82 -1.28 -1073.09 10.81c130.06,141.18 136.42,216.3 132.64,493.39 -3.31,241 14.16,323.6 -63.13,505.14l-273.1 28.68 10.94 354.92z"/>
    <path class="fil2" d="M7945.29 3842.95c116.99,60.85 109.89,171.66 0,234.59 -61.44,-99.18 -69.13,-127.81 0,-234.59zm-750.58 -164.48c-9.79,-240.99 657.82,-375.15 696.51,-944.16 6.43,-94.62 -2.92,-197.51 0.69,-291.21 7,-179.98 -25.9,-180.34 94.16,-234.28 97.83,122.89 42.08,305 40.96,486.31 -2.2,358.86 148.85,184.9 71.06,478.35 -382.58,203.83 36.44,-149.2 -675.55,426.71 -95.68,77.41 -122.25,125.23 -227.82,78.27zm1894.4 -698.91c-24.74,182.67 -183.54,150.74 -238.06,20.02l238.06 -20.02zm-2242.08 79.82c39.99,-28.07 -69.92,-43.2 119.43,-46.98 161.79,-3.27 99.74,35.68 115.51,46.98 -21.56,15.3 48.54,42.73 -115.68,47.98 -187.34,6.03 -92.21,-27.92 -119.26,-47.98zm1139.04 -1156.74c101.52,214.65 9.53,209.44 0,229.31 -38.98,-25.5 -87.97,42.14 -73.62,-129.59 13.76,-165.11 17.37,-60.68 73.62,-99.72zm-246.68 -82.56c-1649.61,307.74 -1146.24,2782.91 476.26,2445.48 601.68,-125.1 1110.65,-723.82 966.6,-1468.02 -116.66,-602.46 -718.23,-1112.65 -1442.86,-977.47z"/>
    <path class="fil3" d="M14217.81 6983.68c161.24,-2.64 967.7,-32.18 1014.36,48.51 107.95,26.16 102.25,-43.74 145.45,149.9l-37.38 789.58c-180,60.58 -362.62,22.98 -528.57,93.7l79.52 254.4c-322.44,-123.45 -179.16,-289.35 -671.2,-298.73l9.77 872.07 187.32 -4.95 1073.1 -10.79 -2.11 -50.02c-2.11,-246.48 57.81,-425.83 242.82,-488.86 57.13,-57.87 -31.57,-12.65 109.31,-75.22 56.99,-25.31 51.22,-14.63 112.32,-26.27l63.36 10.38c153.21,-219.04 9.13,-161.69 -115.59,-379.32 -93.3,-162.81 -246.55,-255.84 -86.94,-379.84 -14.33,-373.53 -6.44,-594.03 402.4,-582.81 442,12.13 466.33,106.75 464.03,542.57 121.46,230.66 31.98,189.43 -74.52,393.9 -163.55,313.98 -237.87,117.12 -171.18,379.18l104 15.97c85.45,16.4 68.01,5.74 142.81,39.61 67.74,30.7 36.53,18.6 77.46,57.75 120.23,20.54 -2.66,-82.95 125.55,61.07 10.71,12.04 60.79,111.9 69.98,136 41.85,109.62 46.24,157.64 42.37,279.89l-3.24 67.32 535.68 8.09 -16.98 -1932.82c-57.1,-171.71 -49.61,-162.68 -160.8,-175.32l-3142.49 -8.89 9.39 213.95z"/>
    <path class="fil3" d="M12695.1 10303.46c191.07,118.05 302.35,402.15 247.65,695.24l-298.26 -26.83 -1091.81 23.49c-26,-135.7 -35.47,-158.21 25.63,-258.34 12,-237.3 90.82,-342.75 241.44,-443.23 -114.26,-220.81 -221.38,-563.47 -129.06,-877.13 4.54,-15.42 9.59,-30.67 15.12,-45.73l-291.33 -201.56 -494.6 348.44 1.89 1363.1c38.65,260.85 444.77,183.86 734.7,183.6 285.47,-0.26 570.96,0.42 856.42,-0.02 546.29,-0.82 1095.98,-4.13 1642.36,1.11l-1404.17 -971.48c-19.21,73.42 -38.83,144.04 -56,209.32zm1365.33 -372.21l164 339.04 -10.94 -354.92c-61.06,0.22 -110.82,5.92 -153.06,15.89z"/>
    <path class="fil4" d="M7986.43 8848.56c-120.44,-28.4 -7.15,65.62 -134.27,-63.36 -99.65,-101.09 -45.69,-50.38 -90.03,-161.36l224.29 224.72zm764.34 1179.78l294.57 -617.73 -195.25 -54.97c-59.84,-72.58 -39.35,96.64 -44.54,-131.86 -0.06,-2.36 18.6,-100.76 18.92,-102.38 19.84,-100.46 34.89,-159.99 48.4,-259.63 -96.33,-115.04 -21.07,-239.79 -239.77,-278.66 -199.63,-35.5 -206.2,92.31 -361.72,23.9l-76.02 -421.34c-34.01,-196.44 -58.78,-378.72 -290.52,-373.03 -209.35,5.16 -201.55,124.37 -271.6,237.06 -42.1,67.76 2.76,20.62 -54.98,64.6 -369.38,-180.28 -377.38,-723.22 -957.87,-543.73 -279.59,644.61 450.04,705.84 639.22,954.85 -249.4,106.22 -446.17,-28.84 -345.35,425.52 134.25,54.77 471.69,82.23 577.39,202.54l-331.74 91.51c-32.21,477.08 377.6,305.06 676.64,463.41 -8.98,6.32 -22.08,12.65 -28.71,16.13l-194.97 100.77c-96.38,82.12 -79.18,113.08 -70.14,247.05l1159.42 6.9c-64.16,-209.52 -199.22,-488.55 -310.54,-655.42 -63.66,-95.44 -134.41,-205.68 -200.9,-287.42 -83.7,-102.85 -144.37,-167.59 -204.28,-287.84 166.34,48.23 -57.31,-130.87 247.09,245.27 179.23,221.46 428.76,624.94 517.25,934.52zm-1633.37 -1889.31c174.61,55.23 567.38,321.9 645.79,491.85l-551.1 -388.03c-90.8,-73.86 -42.02,-33.98 -94.69,-103.82z"/>
    <path class="fil4" d="M9528.52 11632c-4.7,42.09 -5.7,102.98 -36.4,191.78 -35.17,101.7 -24.6,60.8 -78.86,132.95l-198.99 0.34 -630.3 -3.15 -510.77 -4.52c-190.44,-141.57 -90.71,-350.58 -202.62,-565.18 -135.68,93.46 -331.56,401.39 -458.44,564.79 -140.3,180.62 -319.78,382.6 -424.85,570.11 51.77,139.35 1052.67,51.33 1243.5,51.31l9377.47 -15.12c8.01,-168.3 10.23,-32.74 -38.33,-84.99 -572.46,134.57 -1578.33,-40.86 -2195.94,39.64 -248.04,-19.88 -912.24,62.96 -1055.07,-69.02l-217.54 -8.34 -168.53 14.38 -137.43 -10.05c-513.37,-8.21 -3177.89,57.95 -3410.07,-30.16 -34.26,-153.98 296.6,-792.19 399.07,-903.56l-103.47 -213.64 -1081.64 -5.07 -36.84 159.66 -6.41 78.11 -27.54 109.74z"/>
    <path class="fil3" d="M7733.98 10500.01l492.07 -4.42c33.54,150.63 50.56,324.01 65.81,495.11l71.39 -149.72 -629.27 -340.97zm592.66 844.74c37.16,357.05 -16.85,383.27 257.34,609.17l630.3 3.15 198.99 -0.34c54.26,-72.15 43.69,-31.25 78.86,-132.95 30.7,-88.8 31.69,-149.69 36.4,-191.78l27.54 -109.74 2.74 -33.49 -812.04 -440 -420.12 295.97zm1643.2 -1157.62l-1222.12 860.97 811.25 438.6 3.49 -42.54 36.84 -159.66 1081.64 5.07 -4.72 -14.35 -1071.06 6.3 116.37 -697.44c80,-170.87 -0.73,-30.92 135.32,-100.56 96.42,-49.34 217.2,-136.71 112.99,-296.37zm-1606.3 653.26l361.47 -758.02 -22.86 -3.13 -1159.42 -6.9c-54.02,122.52 -114.4,206.79 -56.31,385.17l247.57 42.51 629.56 340.38z"/>
    <path class="fil11" d="M17295.67 11354.9c-7.34,11.41 -67.57,161.93 -109.49,209.31 -136.1,153.87 -113.6,30.14 -247.29,111.47l120.82 9.59c-214.35,130.59 -362.29,134.11 -640,175.51 -243.25,36.21 -446.86,71.56 -676.6,105.92l-416.01 -6.87c37.75,24.91 40.04,32.88 118.58,61.01 2.37,0.85 82.47,5.75 91.3,5.92 -100.13,-2.42 -151.84,22.69 -225.43,63.55 86.28,99.54 40.25,-1.27 56.26,183.66 5.68,65.73 1.76,161.61 6.17,235.96 617.61,-80.5 1623.48,94.93 2195.94,-39.64 48.56,52.25 46.34,-83.31 38.33,84.99l-1.19 719.53 1.16 487.78 411.23 -10.86c-276.34,-565.31 -164.04,-718.36 -70.43,-1383.65 62.33,-442.97 114.22,-959.79 200.63,-1395.39 67.7,-664.02 242.31,-1053.94 888.63,-1143.57l2132.84 12.06c-158.3,-577.76 -544.12,-679.57 -1188.05,-779.66 -72.86,119.5 -289.92,54.3 -424.01,50.53l-642.4 -72.97c-181.6,98.64 -414.79,139.04 -609,222.07 -232.89,99.59 -340.45,237.82 -519.26,321.91 -20.66,49.16 -216.71,399.3 -257.64,436.74l-168.51 1041.34 -2198.28 16.12 158.11 102.97c335.25,-147.19 535.36,-82.06 942.82,-86.36 361.69,-3.84 722.9,3.44 1083.49,-3.32l-52.72 264.35z"/>
    <path class="fil3" d="M20438.95 3823.24c50.94,-214.83 266.29,-330.31 403.55,-508.53 101.05,-131.17 337.45,-437.77 478.89,-456.76 -24.79,133.16 -289.62,410.33 -406.52,528.4 -116.74,117.93 -146.95,143.12 -236.39,253.92 -105.13,130.18 -81,181.04 -239.54,182.97zm2169.54 393.37c-61.72,-100.54 -49.61,-136.57 -119.56,-239.61l-531.48 -615.2c-110.64,-119.47 -679.21,-699.18 -676.55,-833.6 -209.17,116.1 -744.25,814.53 -938.8,1020.01 -155.75,164.51 -329.08,413.15 -97.94,630.28 171.63,161.31 598.68,85.76 873.84,100.01 104.43,192.45 60.74,386.61 367.84,388.67 298.9,2.02 269.09,-197.18 366.23,-393.67 136.74,-1.15 272.31,-1.09 409.13,0.31 288.46,2.93 276.03,13.71 347.3,-57.19z"/>
    <path class="fil3" d="M16858.54 14984.52c441.06,-501.37 1126.23,-366.44 1894.29,-363.22 458.44,1.93 690.14,-58.18 710.89,-509.86l-387.42 -0.42 -77.93 19.44c-722.17,111.88 -1601.93,-221.26 -2311.75,446.05 -147.39,138.57 -253.96,272.59 -329.38,408.01l501.29 0z"/>
    <path class="fil5" d="M15648.38 10390.79c26.49,199.18 25.86,351.19 173.96,432.2 209.63,64.83 55.77,24.14 116.88,-13.23l1.02 -151.26c-108.75,-268.83 -41.83,-443.51 -48.37,-744.35 -66.59,-262.59 -66.32,-425.24 93.79,-618.44l471.29 19.77c114.62,132.02 131.97,205.55 113.73,446.16 -0.72,82.68 -31.46,590.06 -82.25,614.96l-57.59 498.01c282.77,-83.14 225.17,-191.64 284.92,-493.75 17.23,-291.98 73.09,-661.63 34.58,-954.87 -44.91,-342.25 -229.99,-435.14 -577.14,-441.46 -691.72,-12.62 -580.61,811.35 -524.83,1406.25z"/>
    <path class="fil6" d="M18916.66 9039.09l642.4 72.97c134.09,3.77 351.15,68.98 424.01,-50.53 -15.91,-187.16 -68.1,-399.5 -3.96,-543.09 -160.36,-49.73 -451.3,45.96 -678.94,-9.86 -208.82,-51.22 -354.44,-180.47 -461.31,-265.76 23.53,-217.19 203.33,-227.39 3.74,-528.58l-81.93 5.48 -121.47 101.41c-89.83,-76.66 0.21,11.47 -62.93,-72.45 -6.23,-8.29 -29.26,-32.65 -32.83,-51.48 -2.65,-13.86 -9.02,-17.98 -14.99,-26.03 -22.19,203.38 25.09,663.73 120.88,833.81 174.92,310.55 500.18,241.25 267.31,534.11z"/>
    <path class="fil5" d="M11819.74 10293.8l260.63 13.51 72.56 -227.39c-188.59,-193.76 -254.16,-344.37 -202.76,-539.93l-244.37 -169.07c-5.54,15.06 -10.57,30.31 -15.12,45.74 -92.29,313.66 14.82,656.32 129.05,877.13zm694.1 -363.82c-40.4,57.14 -87.16,106.56 -133.29,145.53l54.93 238.32 259.62 -10.37c17.17,-65.28 36.79,-135.9 56,-209.32l-237.26 -164.16z"/>
    <path class="fil5" d="M21367.81 2406.51l-86.91 121.69c-2.66,134.42 565.9,714.13 676.55,833.6l531.48 615.2c69.95,103.04 57.84,139.07 119.56,239.61 201.23,-42.03 302.43,-277.99 146.64,-509.56l-1157.46 -1300.54c-9.36,-10.1 -21.47,-22.85 -28.1,-30.31l-67.61 -78.16c-3.02,-12.68 -11.38,-14.35 -16.93,-21.66l-117.22 130.14z"/>
    <path class="fil6" d="M15813.34 7485.02c-159.57,124.27 -6.34,217.52 86.95,380.7 124.74,218.15 268.82,160.67 115.59,380.2 201.08,79.84 245.08,148.23 418.18,-26.39 -66.69,-262.65 7.64,-65.35 171.18,-380.02 106.5,-204.93 195.97,-163.64 74.53,-394.8 -103.83,-95.27 -93.98,-175.92 -151.88,-320.31l-564.93 14.22 -149.64 346.4z"/>
    <path class="fil5" d="M7870.58 11384.21c111.92,214.61 12.18,423.61 202.62,565.18l510.77 4.52c-274.19,-225.9 -220.17,-252.12 -257.34,-609.17l-306.62 216.02 271.85 -570.06c-15.26,-171.11 -32.28,-344.49 -65.81,-495.11l-492.07 4.42 136.6 884.2z"/>
    <path class="fil12" d="M15019.71 7193.08c93.9,25.1 91.41,44.06 118.27,67.8 -231.53,106.03 -96.7,-28.76 -159.83,153.53 -24.3,70.19 -22.7,125.66 -37.44,198.09l199.97 97.09c-67.61,73.04 8.24,42.74 -137.51,80.1 -1.75,0.45 -153.27,5.02 -164.71,4.88 -110.03,-1.38 -216.83,-4.04 -327.5,-2.74 -395.92,4.74 -301.34,-28.41 -547.81,-165.35l12.25 260.14c98.23,151.89 54.82,111.57 244.59,132.41 492.05,9.42 348.75,175.73 671.2,299.42l-79.52 -254.96c165.95,-70.89 348.57,-33.2 528.59,-93.94l37.35 -791.38c-43.21,-194.05 -37.5,-124.04 -145.44,-150.23l-289.68 -8.58 77.23 173.72z"/>
    <path class="fil6" d="M12080.37 10307.31c62.29,300.24 275.51,351.95 355.11,6.51l-54.93 -238.32c46.13,-38.97 92.89,-88.39 133.29,-145.53l-563.67 -389.98c-51.39,195.56 14.17,346.16 202.76,539.93l-72.56 227.39z"/>
    <path class="fil6" d="M14252.55 12062.99l-110.73 102.26c-73.06,147.01 -28.94,76.63 -129.74,114.73 -20.58,61.57 35.87,22.35 -55.87,77.93l-23.37 89.05 168.53 -14.38c181.92,-120.62 399.17,-194.69 600.42,-61.28 -145.09,24.69 -279.39,-36.94 -382.87,69.62 142.82,131.98 807.02,49.14 1055.07,69.02 -4.41,-74.36 -0.49,-170.23 -6.17,-235.96 -16.01,-184.93 30.02,-84.12 -56.26,-183.66l-369.71 -97.53c-259.15,-31.95 -478.53,44.54 -689.29,70.2z"/>
    <path class="fil6" d="M15891.87 9914.16c65.53,54.26 108.43,98.36 182.89,161.35l-43.67 186.59c171.24,71.45 180.64,98.25 321.86,-23.04l-46.38 -161.02c153.97,-152.3 162.26,-165.47 264.11,-316.38 18.24,-240.61 0.89,-314.14 -113.73,-446.16l-471.29 -19.77c-160.11,193.2 -160.38,355.85 -93.79,618.44z"/>
    <path class="fil5" d="M21367.81 2406.51l117.22 -130.14c5.55,7.31 13.92,8.98 16.93,21.66l67.61 78.16c6.62,7.46 18.73,20.21 28.1,30.31l-6.03 -2406.51 -212.5 0 -11.32 2406.51z"/>
    <path class="fil5" d="M15730.87 8337.24c87.85,82.9 103.81,373.91 62.61,488.24l-305.39 1.73 2.08 50.13 1502.82 1.28 3.27 -67.46 -309.13 6.4c-40.48,-158.77 -50.08,-388.66 71.21,-484.45 -40.93,-39.25 -9.72,-27.12 -77.46,-57.86 -74.8,-33.95 -57.37,-23.28 -142.8,-39.71 -95.9,276.72 -500.86,270.56 -585.55,-0.03 -61.09,11.66 -55.34,0.97 -112.33,26.34 -140.88,62.7 -52.18,17.38 -109.33,75.38z"/>
    <path class="fil5" d="M22503.29 7832.08c263.87,234.3 612.14,448.64 431.84,1002.7 -98.56,302.89 -440.91,881.37 -21.3,1127.77 -270.15,-545.55 149.25,-716.95 262.26,-1215.99 118.93,-525.45 -258.3,-828.85 -672.8,-914.48z"/>
    <path class="fil6" d="M15615.9 11868.98l-19.08 106.84 146.29 -9.12c229.73,-34.36 433.35,-69.72 676.6,-105.92 277.72,-41.4 425.65,-44.92 640,-175.51l-120.82 -9.59c-321.85,-61.17 -357.78,-135.1 -757.05,-94.63 -290.31,29.42 -372.37,195.15 -565.93,287.93z"/>
    <path class="fil5" d="M7194.71 3678.46c105.57,46.96 132.14,-0.86 227.82,-78.27 712,-575.91 292.97,-222.87 675.55,-426.71 77.8,-293.45 -73.25,-119.49 -71.06,-478.35 1.12,-181.32 56.87,-363.42 -40.96,-486.31 -120.06,53.94 -87.16,54.3 -94.16,234.28 -3.61,93.7 5.74,196.59 -0.69,291.21 -38.69,569.01 -706.3,703.17 -696.51,944.16z"/>
    <path class="fil13" d="M14878.29 7289.07c36.84,46.35 86.17,-84.39 58.7,135.28 -18.82,150.46 -51.69,77.86 -99.49,109.09 -24,-44.53 -73.11,67.98 -49.06,-147.72 16.57,-148.81 -33.31,-32.95 89.85,-96.65zm-348.86 76.63c83.23,-69.59 -18.35,-28.8 101.05,-56.01l-101.05 56.01zm-144.61 -68.53c135.8,4.69 36.37,5.82 106.9,68.83l-199 -1.68c58.07,-66.6 -93.26,-73.55 92.1,-67.15zm-255.19 237.1c6.29,12.07 24.48,8.84 31.64,25.71 6.96,16.39 22.79,18.66 32.69,22.36 134.71,50.22 136.87,21.48 316.82,29.93 165.53,7.8 273.29,2.03 429.93,0.24 14.74,-72.43 13.14,-127.9 37.44,-198.09 63.13,-182.29 -71.7,-47.5 159.83,-153.53 -26.87,-23.74 -24.37,-42.7 -118.27,-67.8l-137.95 12.55 -94.57 2.22c-20.18,-2.8 -571.68,-5.82 -602.56,-3.3 -2.77,7.99 -4.82,20.29 -5.27,24.82l-42.06 218.38c141.89,13.05 88.36,-15 141.91,69.42l-149.59 17.11z"/>
    <path class="fil5" d="M21408.43 14984.52c-1.88,-61.82 -3.16,-121.43 -2.74,-177.19 3.99,-532.05 11.47,-1006.9 129.09,-1509.51l106.23 -693.69 52.46 -1.23 -250 -172.97 -1998.08 1407.59 1877.13 -3936.41c-46.65,-20.39 -97.02,-40.29 -151.41,-59.92l-2132.84 -12.06c-646.32,89.63 -820.94,479.55 -888.63,1143.57 -86.41,435.61 -138.3,952.42 -200.63,1395.39 -93.61,665.28 -205.91,818.33 70.43,1383.65 322.65,323.16 443.46,350.16 1056.86,359.27l387.42 0.42c-20.75,451.68 -252.45,511.79 -710.89,509.86 -768.06,-3.22 -1453.23,-138.15 -1894.29,363.22l4549.89 0zm1446 -2408.94l281.94 -6.63c-81.36,-139.26 -65.49,-123.64 -19.85,-275.85 189.93,73.76 119.45,76.72 259.96,148.3 -37.96,96.9 45.68,23.41 -78.18,126.51l1295.12 -14.1 -395.51 -970.72c-49.8,-121.13 -1.8,-45.98 -85,-71.65l-58.61 128.61c-72.64,-80.65 -43.74,1.77 -40.96,-138.77l-250.19 147.92 0.34 133.05 22.77 98.72 47.35 115.51 -106.51 -22.89 -19.91 9.08c99.95,127.11 -34.02,-209.56 61.45,132.22 -155.01,-37.44 -56.18,33.8 -170.24,-62.67 79.51,197.29 64.09,69.07 -18.99,195.56 -133.77,203.73 -175.22,125.03 -177.98,125.49 -9.75,1.57 -32.36,7.86 -39.71,-4.96 -14.02,-24.46 -52.96,32.25 -86.07,-93.68 -50.44,-191.64 152.42,-138.87 170.29,-190.6 3.45,-9.96 16.27,-5.35 23.55,-9.75 -100.36,-69.03 -179.93,-50.47 -311.78,-47.78 -260.5,5.32 -230.35,30.65 -336.71,-43.49 -211.63,-26.53 -171.49,-96.92 -169.83,-319.71 -130.12,-118.47 -196.85,-185.56 -303.83,-289.21 -40.69,-39.42 -76.62,-63.52 -111.84,-77.97l618.92 1279.48zm-1011.17 -2090.34c-26.27,-146.51 -79.89,-262.76 -174.75,-361.24l174.75 361.24z"/>
    <path class="fil4" d="M21646.16 12570.17l-5.15 33.97 52.94 -0.91 -47.79 -33.06zm1212.05 13.23l1735.2 -29.59 -445.51 -1130.33 -1911.02 -124.51 621.33 1284.43z"/>
    <path class="fil5" d="M22821 11983l886.19 -0.34 19.91 -9.08 59.16 -92.62 -22.77 -98.72 -0.34 -133.05c-490.46,228.14 -634.75,163.63 -1111.98,14.09 -1.66,222.8 -41.8,293.18 169.83,319.71z"/>
    <path class="fil14" d="M13975.41 7886.62l-12.25 -260.14c246.47,136.94 151.89,170.09 547.81,165.35 110.66,-1.3 217.46,1.36 327.5,2.74 11.44,0.14 162.96,-4.42 164.71,-4.88 145.75,-37.36 69.9,-7.07 137.51,-80.1l-199.97 -97.09c-156.64,1.79 -264.4,7.56 -429.93,-0.24 -179.96,-8.45 -182.11,20.29 -316.82,-29.93 -9.9,-3.71 -25.73,-5.97 -32.69,-22.36 -7.16,-16.87 -25.36,-13.64 -31.64,-25.71 -138.07,-181.72 -110.1,-343.11 8.54,-527.85l-149.72 20.49c-13.92,119.07 -13.61,259.56 -26.56,395.57 -13.37,140.52 -55.35,240.41 -28.91,365.63 22.31,105.64 23.7,67.82 42.43,98.53z"/>
    <path class="fil11" d="M15813.34 7485.02l149.64 -346.4 564.93 -14.22c57.9,144.39 48.04,225.04 151.88,320.31 2.27,-436.82 -22.04,-531.67 -464.06,-543.81 -408.83,-11.29 -416.71,209.75 -402.39,584.12z"/>
    <path class="fil5" d="M23395.45 8794.53c244.51,608.62 -633.01,915.98 61.41,1255.32 -496.39,-270.05 654.26,-1042.64 -61.41,-1255.32z"/>
    <path class="fil7" d="M9286.87 7655.39l-84.11 168.76 -78.46 244.46c-24.33,94.4 6.87,30.74 -29.44,99.28 -59.4,112.08 -13.93,26.93 -57.54,77.21l-164.44 616.67c-13.51,99.65 -28.56,159.17 -48.4,259.63 -0.33,1.62 -18.98,100.02 -18.92,102.38 5.18,228.5 -15.31,59.28 44.54,131.86 48.89,-459.69 232.51,-1049.76 398.25,-1438.12l96.23 -164.36 21.14 -76.69c37.59,-118.15 82.74,-196.57 120.23,-268.28l7.87 -26.55 94.96 -122.81 139.36 -306.56c-147.19,61.68 -335.05,539.82 -441.27,703.13z"/>
    <path class="fil15" d="M14184.63 7204.54c30.88,-2.52 582.37,0.5 602.56,3.3 -65.23,-81.47 -72.85,-108.58 -189.09,-170.98 192.15,-24.09 244.94,-3.17 283.66,168.76l137.95 -12.55 -77.23 -173.72 289.68 8.58c-46.66,-80.87 -853.12,-51.25 -1014.36,-48.61l-79.64 27.07 218.08 21.35 -171.61 176.78z"/>
    <path class="fil3" d="M22382.24 10329.99c-5.6,7.37 -13.28,17.6 -15.52,23 -112.26,268.99 -27.92,1023.47 499.15,1204.87 266.76,91.86 144.14,4.07 167.95,-13.89 -266.45,-156.13 -384.81,-162.56 -521.34,-415.3 -127.31,-235.6 -16.15,-617.63 -130.25,-798.69z"/>
    <path class="fil11" d="M16996.26 8811.17c3.84,-122.51 -0.53,-170.63 -42.38,-280.53 -9.19,-24.16 -59.27,-124.23 -69.98,-136.3 -128.22,-144.36 -5.32,-40.62 -125.55,-61.23 -121.3,95.79 -111.69,325.68 -71.21,484.45l309.13 -6.4z"/>
    <path class="fil16" d="M20438.95 3823.24c158.54,-1.93 134.41,-52.79 239.54,-182.97 89.44,-110.8 119.64,-135.99 236.39,-253.92 116.89,-118.07 381.73,-395.23 406.52,-528.4 -141.44,18.99 -377.84,325.59 -478.89,456.76 -137.26,178.22 -352.61,293.69 -403.55,508.53z"/>
    <path class="fil11" d="M15488.07 8827.21l305.41 -1.72c41.2,-114.34 25.24,-405.34 -62.59,-488.25 -185.01,63.16 -244.93,242.93 -242.82,489.97z"/>
    <path class="fil3" d="M12770.52 12115.07c115.56,90.13 1008.65,87.11 1118.18,0 -112.65,-94.95 -1005.62,-95.03 -1118.18,0z"/>
    <path class="fil5" d="M7739.4 1820.07c724.6,-135.18 1326.21,375 1442.84,977.49 144.06,744.16 -364.91,1342.89 -966.57,1468.02 -1622.52,337.41 -2125.89,-2137.76 -476.27,-2445.5zm1362.58 0.36c-1211.8,-1099.21 -3157.22,-21.95 -2762.02,1624.89 421.4,1756 3116.36,1659.69 3285.91,-288.71 22.38,-438.79 -196.06,-1038.8 -523.89,-1336.18z"/>
    <path class="fil7" d="M8702.14 10079.23l22.86 3.13 25.76 -54.03c-88.49,-309.58 -338.02,-713.06 -517.25,-934.52 -304.4,-376.13 -80.75,-197.03 -247.09,-245.27 59.91,120.25 120.58,184.99 204.28,287.84 66.48,81.74 137.23,191.98 200.9,287.42 111.31,166.87 246.38,445.9 310.54,655.42z"/>
    <path class="fil3" d="M13953.74 11327.36c190.18,31.63 414.7,72.73 546.23,-23.26l-168.54 -116.61c-46.06,0.93 -106.65,2.61 -187.22,2.52 -133.06,-0.22 -188.44,5.24 -190.47,137.34z"/>
    <path class="fil11" d="M15822.35 10822.99c-148.1,-81.01 -147.47,-233.02 -173.96,-432.2 -121.75,133.62 -138.18,225.64 -155.08,456.84l37.52 148.18 1367.07 0.51c-10.4,-214.65 -17.52,-467.37 -182.12,-615.46 -59.75,302.11 -2.15,410.62 -284.92,493.75l57.59 -498.01 -4.87 -127.11 -130.61 -10.45c-141.22,121.29 -150.62,94.49 -321.86,23.04 -122.47,30.75 -39.63,-34.56 -110.75,58.19l19.9 338.22 -1.02 151.26c-61.11,37.36 92.75,78.05 -116.88,13.23z"/>
    <path class="fil17" d="M14129.62 7534.26l149.59 -17.11c-53.55,-84.42 -0.02,-56.37 -141.91,-69.42l42.06 -218.38c0.45,-4.52 2.5,-16.82 5.27,-24.82l171.61 -176.78 -218.08 -21.35c-118.65,184.75 -146.62,346.13 -8.54,527.85z"/>
    <path class="fil3" d="M16352.96 10239.05l130.61 10.45 4.87 127.11c50.79,-24.9 81.53,-532.29 82.25,-614.96 -101.85,150.91 -110.14,164.08 -264.11,316.38l46.38 161.02z"/>
    <path class="fil8" d="M13700.14 9186.46c53.3,-1 107.14,-2.37 158.6,-2.15 195.03,0.85 384.96,30.54 484.12,-47.01 -86.34,-32.76 -424.7,-43.44 -682.46,-33.01l39.75 82.17z"/>
    <path class="fil3" d="M11844.35 12094.31l-18.25 55.2 -392.06 1.13c0,127.27 43.86,52.72 137.45,66.86 18.64,2.82 185.81,-1.02 220.92,0.07l274.17 -216.43c27.87,-73.54 25.52,-5.88 -7.53,-56.32l-419.56 10.01c62.55,96.05 -91.4,36.88 134.64,80.03 18.7,3.57 199.94,-1.59 229.65,-1.59 -96.57,93.09 8.4,36.11 -159.43,61.03z"/>
    <path class="fil9" d="M13935.5 9673.01c145.55,-0.58 275.18,-6.11 328.25,-13.63 154.66,-21.95 12,6.38 85.32,-32.58l-454.34 -38.11 40.78 84.32z"/>
    <path class="fil11" d="M16538.08 8235.55l-104.01 -16.02c-173.11,174.62 -217.1,106.23 -418.18,26.39l-63.35 -10.4c84.69,270.59 489.64,276.75 585.55,0.03z"/>
    <path class="fil3" d="M15940.24 10658.51l-19.9 -338.22c71.12,-92.76 -11.72,-27.45 110.75,-58.19l43.67 -186.59c-74.47,-62.98 -117.37,-107.09 -182.89,-161.35 6.54,300.84 -60.38,475.52 48.37,744.35z"/>
    <path class="fil9" d="M13857.4 9511.55c213.85,8.08 457.25,-10.29 466.31,-31.82 4.79,-11.37 16.79,-10.68 25.13,-16.08 -95.63,-48.94 -338.55,-62.26 -537.34,-46.99l45.91 94.9z"/>
    <path class="fil5" d="M12770.52 12115.07c112.56,-95.03 1005.52,-94.95 1118.18,0 -109.53,87.11 -1002.62,90.13 -1118.18,0zm-1839.63 -2605l-258.67 182.23c-0.48,527.93 0.21,1055.75 3.99,1582.91l4.72 14.35 103.47 213.64c-102.46,111.37 -433.32,749.58 -399.07,903.56 232.18,88.11 2896.7,21.95 3410.07,30.16l137.43 10.05 23.37 -89.05c91.74,-55.58 35.29,-16.37 55.87,-77.93 100.8,-38.1 56.69,32.28 129.74,-114.73l-151.43 -8.81 32.82 -77.95 229.35 -15.49c210.76,-25.66 430.14,-102.15 689.29,-70.2l369.71 97.53c73.59,-40.86 125.3,-65.97 225.43,-63.55 -8.83,-0.18 -88.93,-5.08 -91.3,-5.92 -78.54,-28.14 -80.83,-36.1 -118.58,-61.01l40.41 -87.77 248.39 -3.08c193.57,-92.78 275.62,-258.51 565.93,-287.93 399.27,-40.48 435.2,33.46 757.05,94.63 133.69,-81.33 111.19,42.4 247.29,-111.47 41.92,-47.38 102.15,-197.9 109.49,-209.31l66.58 -293.75 -2198.28 16.12 -552.28 -6.43 225.8 466.78 -337.52 -233.52c-131.54,95.99 -356.06,54.88 -546.23,23.26 2.03,-132.1 57.41,-137.56 190.47,-137.34 80.57,0.09 141.16,-1.6 187.22,-2.52l-176.13 -121.86c-546.39,-5.26 -1096.08,-1.94 -1642.36,-1.13 -285.48,0.46 -570.96,-0.24 -856.44,0.03 -289.93,0.24 -637.07,77.24 -675.73,-183.62 -71.07,-83.71 -33.35,16.38 -52.6,-151.35l2.74 -1219.5zm1460.61 -3028.88l146.46 302.76c737.93,-7.08 1502.5,-27.85 2217.98,-3.4 216,7.37 2464.38,-68.77 2594.94,48.92 111.2,12.67 103.71,-52.04 160.83,120.05l16.98 1937.25 2.08 1133.04c40.94,-37.44 236.99,-387.58 257.64,-436.74 50.16,-544.04 8.07,-1304.37 8.01,-1873.47 -0.01,-59.04 0.31,-115.15 0.82,-168.63l-72.26 50.91 73.5 -154.13c13.37,-935.22 67.1,-952.31 -636.26,-949.56 -1250.32,4.85 -2501.67,0.31 -3752.09,0.17 -392.26,-0.04 -729.13,-3.5 -1018.62,-7.16zm1847.03 5451.71c-173.37,43.88 -240.74,40.45 -418.44,10.15 18.45,-78.01 -21.05,-26.3 38.65,-79.96l337.22 -3.08 42.56 72.89zm703.31 22.29c-93.79,17.07 -176.93,33.31 -272.33,19.07 -239.39,-35.73 -112.07,11.71 -157.02,-86.14l418.62 -15.05 10.73 82.12zm-287.54 -291.76l91.52 -5.83c166.16,19.48 78.49,-30.4 121.29,90.65 -121.84,56.42 -293.75,76.11 -437.44,-0.3 62.9,-118.96 55.98,-86.67 224.64,-84.52zm-2555.91 451.64c99.94,-77 286.79,-105.49 403.98,0 -76.49,59.86 -152.78,81.14 -313.74,47.31 -79.47,-16.68 -49.9,-18.99 -90.24,-47.31zm-1325.61 0c80.8,-73.67 85.28,-65.9 232.22,-61.89 158.79,4.38 109.5,-12.39 194.04,61.89 -101.28,78.89 -326.25,81.26 -426.26,0zm2698.32 -203.95c-101.23,101 -301.12,107.68 -395.15,0 52.83,-36.83 94.52,-66.08 211.99,-61.6l151.16 40.87c7,-10.28 21.37,13.79 32,20.74zm-1412.04 33.7c33.04,50.44 35.4,-17.22 7.53,56.32l-274.17 216.43c-35.11,-1.09 -202.29,2.75 -220.92,-0.07 -93.59,-14.14 -137.45,60.41 -137.45,-66.86l18.52 -79.79c158.03,-18.31 245.69,-31.31 391.79,23.46 167.82,-24.92 62.86,32.06 159.43,-61.03 -29.7,0 -210.95,5.15 -229.65,1.59 -226.04,-43.16 -72.09,16.01 -134.64,-80.03l57.92 -93.91 334.88 11.31 26.77 72.58zm284.79 -33.7c88.26,-60.67 57.46,-59.72 209.74,-60.3 5.18,-0.01 114.52,10.26 120.51,11.63 76.34,17.14 48.86,18.53 92.37,48.67 -81.25,90.96 -48.92,69.51 -212.44,70.45 -245.97,1.46 -191.04,-48.78 -210.18,-70.45zm-1175.97 -61.07c143.75,0.34 155.94,21.95 209.4,61.07 -33.6,37 42.92,71.7 -209.99,71.26 -170.63,-0.29 -133.2,20.27 -225.96,-71.26l226.55 -61.07zm4407.2 -102.1c-111.05,59.63 -289.03,65.61 -407.06,0 39.66,-26.05 -74.16,-76.51 199.35,-78.33 188.42,-1.27 149.32,-20.99 207.71,78.33zm-2329.35 45.14c-187.11,-10.29 -117.74,-3.24 -158.38,-85.92 120.49,-62.44 259.24,-55.33 371.22,0 -50.99,92.54 -23.38,96.33 -212.84,85.92zm-1346.8 -1.82c-183.84,-11.04 -114.77,1.3 -158.56,-84.09 83.53,-43.09 134.15,-49.89 244.94,-42.15 180.51,12.59 112.74,-1.3 153.07,82.93 -79.62,42.53 -134.9,49.58 -239.45,43.31zm2039.99 -0.47c-210.91,-6.07 -139.66,16.58 -193.21,-89.07 83.59,-60.58 342.92,-39.08 432.49,-6.36 -49.42,111.94 -17.07,101.85 -239.28,95.43zm-1346.01 -0.29c-195.22,-4.29 -133.04,16 -190.97,-82.43 42.27,-40.12 107.25,-39.56 192.56,-39.51 239.75,0.29 174.19,-20.91 234.63,79.57 -83.42,40.6 -106.41,45.25 -236.22,42.37zm-1345.77 -0.18c-184.68,-7.32 -123.22,19.33 -187.29,-78.41 70.78,-73.16 321.73,-59.17 426.26,-4.75 -52.86,106.93 -75.45,89.63 -238.97,83.16z"/>
    <path class="fil3" d="M14745.82 11657.59l-91.52 5.83c-168.66,-2.15 -161.74,-34.44 -224.64,84.52 143.69,76.41 315.6,56.72 437.44,0.3 -42.8,-121.05 44.87,-71.16 -121.29,-90.65z"/>
    <path class="fil3" d="M13745.71 11701.71c53.55,105.65 -17.7,83 193.21,89.07 222.21,6.43 189.86,16.52 239.28,-95.43 -89.57,-32.72 -348.9,-54.22 -432.49,6.36z"/>
    <path class="fil5" d="M9037.31 8245.1c43.62,-50.27 -1.85,34.88 57.54,-77.21 36.31,-68.54 5.1,-4.88 29.44,-99.28l78.46 -244.46 84.11 -168.76c106.22,-163.31 294.08,-641.44 441.27,-703.13l-139.36 306.56 -94.96 122.81 -7.87 26.55c-37.49,71.71 -82.65,150.12 -120.23,268.28l-21.14 76.69 -96.23 164.36c-165.73,388.35 -349.36,978.42 -398.25,1438.12l195.25 54.97 960.99 -2015.23c-57.01,-6.32 -106.33,-14.28 -137.07,-32.6l-5.06 -121.88 39.13 -47.33 80.08 -112.56c143.27,-112.65 326.32,-384.67 346.24,-636.21 22.14,-279.3 -140.59,-541.26 -419.49,-518.75 -581.66,46.96 -404.76,851.63 -741.42,1163.21 -217.53,-10.77 -183.92,-186.24 -451,-195.35 -187.9,-6.39 -320.38,104.61 -340.27,283.86 -46.9,422.72 288.86,600.99 151.96,955.86l-334.08 52.03 76.02 421.34c155.52,68.41 162.1,-59.4 361.72,-23.9 218.7,38.88 143.43,163.63 239.77,278.66l164.44 -616.67z"/>
    <path class="fil3" d="M11059.85 11711.91c64.07,97.73 2.61,71.09 187.29,78.41 163.52,6.47 186.11,23.77 238.97,-83.16 -104.52,-54.42 -355.48,-68.41 -426.26,4.75z"/>
    <path class="fil3" d="M12343.85 11911.11c19.14,21.67 -35.78,71.91 210.18,70.45 163.52,-0.95 131.19,20.51 212.44,-70.45 -43.51,-30.15 -16.03,-31.54 -92.37,-48.67 -5.99,-1.37 -115.33,-11.64 -120.51,-11.63 -152.28,0.58 -121.47,-0.36 -209.74,60.3z"/>
    <path class="fil3" d="M12401.94 11708.07c57.93,98.43 -4.25,78.14 190.97,82.43 129.81,2.89 152.79,-1.76 236.22,-42.37 -60.44,-100.48 5.11,-79.28 -234.63,-79.57 -85.31,-0.05 -150.29,-0.61 -192.56,39.51z"/>
    <path class="fil7" d="M7117.4 8139.03c52.67,69.84 3.89,29.96 94.69,103.82l551.1 388.03c-78.41,-169.95 -471.18,-436.62 -645.79,-491.85z"/>
    <path class="fil3" d="M10941.33 11911.11c92.76,91.53 55.33,70.98 225.96,71.26 252.91,0.43 176.4,-34.27 209.99,-71.26 -53.46,-39.13 -65.66,-60.73 -209.4,-61.07l-226.55 61.07z"/>
    <path class="fil3" d="M11740.37 11707.16c43.79,85.4 -25.28,73.06 158.56,84.09 104.55,6.27 159.83,-0.79 239.45,-43.31 -40.33,-84.23 27.44,-70.35 -153.07,-82.93 -110.79,-7.74 -161.41,-0.94 -244.94,42.15z"/>
    <path class="fil10" d="M13763.22 9316.85c138.24,51.65 480.16,54.94 581.81,-16.41 -130.44,-55.07 -441.85,-52.17 -593.34,-7.43l11.53 23.84z"/>
    <path class="fil3" d="M15168.02 11747.94c118.03,65.61 296.01,59.63 407.06,0 -58.39,-99.32 -19.29,-79.6 -207.71,-78.33 -273.51,1.82 -159.69,52.28 -199.35,78.33z"/>
    <path class="fil3" d="M10772.78 12115.07c100.01,81.26 324.97,78.89 426.26,0 -84.54,-74.28 -35.25,-57.51 -194.04,-61.89 -146.94,-4.01 -151.41,-11.78 -232.22,61.89z"/>
    <path class="fil5" d="M14101.38 12432.59l217.54 8.34c103.48,-106.55 237.79,-44.93 382.87,-69.62 -201.24,-133.41 -418.5,-59.34 -600.42,61.28z"/>
    <path class="fil3" d="M13087.35 11707.16c40.64,82.68 -28.73,75.63 158.38,85.92 189.47,10.42 161.85,6.62 212.84,-85.92 -111.98,-55.33 -250.74,-62.44 -371.22,0z"/>
    <path class="fil3" d="M13075.95 11911.11c94.04,107.68 293.92,101 395.15,0 -10.63,-6.95 -25,-31.01 -32,-20.74l-151.16 -40.87c-117.47,-4.47 -159.16,24.78 -211.99,61.6z"/>
    <path class="fil3" d="M12098.39 12115.07c40.35,28.32 10.77,30.63 90.24,47.31 160.95,33.82 237.25,12.55 313.74,-47.31 -117.2,-105.49 -304.04,-77 -403.98,0z"/>
    <path class="fil3" d="M14941.85 11955.19l-10.73 -82.12 -418.62 15.05c44.95,97.85 -82.37,50.42 157.02,86.14 95.4,14.24 178.54,-2 272.33,-19.07z"/>
    <path class="fil11" d="M18760.68 7719.72l81.93 -5.48c199.59,301.19 19.79,311.39 -3.74,528.58 106.87,85.3 252.49,214.55 461.31,265.76 227.64,55.82 518.58,-39.87 678.94,9.86 276.94,-255.59 472.91,-553.25 492.81,-1052.95 9.19,-231 -32.21,-420.91 -116.96,-571.34l-756.23 -523.2c-47.2,-0.82 -92.62,-2.06 -136.47,-2.97l-927.45 653.38c-67.63,196.24 -119.15,407.59 -199.69,582.82l193.35 67c5.97,8.05 12.34,12.17 14.99,26.03 3.57,18.83 26.6,43.2 32.83,51.48 63.13,83.92 -26.9,-4.22 62.93,72.45l121.47 -101.41z"/>
    <path class="fil3" d="M13820.09 11943.04c177.7,30.29 245.07,33.72 418.44,-10.15l-42.56 -72.89 -337.22 3.08c-59.7,53.65 -20.2,1.94 -38.65,79.96z"/>
    <path class="fil3" d="M11434.04 12150.64l392.06 -1.13 18.25 -55.2c-146.1,-54.77 -233.76,-41.77 -391.79,-23.46l-18.52 79.79z"/>
    <path class="fil18" d="M14837.5 7533.43c47.8,-31.23 80.66,41.37 99.49,-109.09 27.48,-219.67 -21.86,-88.93 -58.7,-135.28 -123.16,63.7 -73.28,-52.16 -89.85,96.65 -24.05,215.7 25.06,103.19 49.06,147.72z"/>
    <polygon class="fil3" points="11639.49,11954.83 12059.06,11944.82 12032.29,11872.23 11697.41,11860.92 "/>
    <path class="fil11" d="M11578.32 10737.03c-61.1,100.14 -51.62,122.67 -25.63,258.34l1091.8 -23.48 298.28 26.82c54.71,-293.09 -56.59,-577.19 -247.66,-695.24l-259.62 10.37c-79.6,345.43 -292.82,293.72 -355.11,-6.51l-260.63 -13.51c-150.6,100.47 -229.41,205.92 -241.41,443.23z"/>
    <path class="fil19" d="M14787.19 7207.84l94.57 -2.22c-38.72,-171.93 -91.52,-192.85 -283.66,-168.76 116.24,62.39 123.86,89.5 189.09,170.98z"/>
    <polygon class="fil3" points="15327.1,11959.84 15743.11,11966.71 15596.82,11975.82 15615.9,11868.98 15367.51,11872.07 "/>
    <path class="fil5" d="M7986.07 2131.94c9.53,-19.87 101.52,-14.66 0,-229.31 -56.24,39.05 -59.86,-65.39 -73.62,99.72 -14.35,171.73 34.64,104.09 73.62,129.59z"/>
    <path class="fil5" d="M7945.29 3842.95c-69.13,106.78 -61.44,135.41 0,234.59 109.89,-62.94 116.99,-173.75 0,-234.59z"/>
    <path class="fil5" d="M8851.05 2999.57c54.52,130.73 213.33,162.65 238.06,-20.02l-238.06 20.02z"/>
    <path class="fil5" d="M6847.03 3059.37c27.05,20.07 -68.08,54.02 119.26,47.98 164.22,-5.25 94.12,-32.69 115.68,-47.98 -15.77,-11.3 46.28,-50.25 -115.51,-46.98 -189.35,3.78 -79.43,18.91 -119.43,46.98z"/>
    <polygon class="fil3" points="13990.39,12156.44 14141.82,12165.25 14252.55,12062.99 14023.2,12078.48 "/>
    <path class="fil7" d="M7986.43 8848.56l-224.29 -224.72c44.34,110.98 -9.62,60.26 90.03,161.36 127.11,128.97 13.83,34.96 134.27,63.36z"/>
    <path class="fil19" d="M14292.71 7364.32l199 1.68c-70.53,-63 28.91,-64.14 -106.9,-68.83 -185.36,-6.4 -34.03,0.55 -92.1,67.15z"/>
    <path class="fil19" d="M14529.43 7365.7l101.05 -56.01c-119.4,27.21 -17.82,-13.58 -101.05,56.01z"/>
    <path class="fil4" d="M14176.99 6947.66l1000.31 0c125.47,0 228.13,102.67 228.13,228.17l0 649.3c0,125.49 -102.66,228.15 -228.13,228.15l-320.71 0c-7.13,2.07 -14.35,4.35 -21.72,6.89 -31.23,116.15 10.29,128.22 52.05,274.69 -214.29,-107.21 -256.32,-233.32 -431.17,-281.58l-278.75 0c-51.28,0 -98.74,-17.14 -136.93,-45.97l-27.31 -2.87c-5.87,-13.85 -11.24,-27.13 -16.07,-39.93 -29.95,-38.64 -47.84,-87.01 -47.84,-139.37l0 -649.3c0,-125.5 102.64,-228.17 228.15,-228.17z"/>
    <path class="fil4" d="M14322.34 8829.95l-794.65 0 534.82 1105.6 259.83 0c51.28,0 98.76,-17.18 136.92,-46l27.33 -2.87c5.87,-13.85 11.23,-27.14 16.06,-39.94 29.96,-38.6 47.84,-86.98 47.84,-139.33l0 -649.32c0,-125.49 -102.65,-228.14 -228.15,-228.14z"/>
    <path class="fil4" d="M13427.45 7359.44l88.15 91.97c-22.53,46.46 -322.67,344.71 -362.54,368.49 -47.33,-35.03 -136.59,-131.01 -217.28,-213.55l166.98 345.18c18.32,16.32 35.32,30.13 50.3,40.18 86.57,-57.81 392.51,-414.07 466.08,-439.77 28.23,34.26 50.56,63.27 100.79,85.92l99.59 -385.68c-64.74,2.87 -353.07,80.19 -392.07,107.26z"/>
    <path class="fil3" d="M13430.64 8629.33c186.96,-1.18 338.93,-3.19 389.65,-5.57l1.99 -79.62c-32.77,-0.91 -212.72,-2.61 -434.61,-3.64l42.97 88.82z"/>
    <path class="fil3" d="M13821.53 8249.48l-0.78 -71.97c-50.78,-15.1 -372.51,-15.31 -614.63,-12.31l42.48 87.82c192.29,2.13 389.8,7.05 572.93,-3.54z"/>
    <path class="fil3" d="M13338.33 8438.5l483.2 -0.19 -0.5 -82.4c-98.01,-4.43 -326.04,-1.78 -523.08,-0.91l40.39 83.49z"/>
    <path class="fil5" d="M24262.2 11056.07l66.22 -319.9 191.88 16.63c63.06,259.66 31.1,317.4 -258.1,303.27zm-2041.73 208.98l15.03 31.06c35.22,14.46 71.16,38.54 111.86,77.98 304.11,504.61 1318.6,704.95 1780.31,-81.4 162.43,-4.71 311.07,13.12 436.26,-54.8 201.4,-109.26 439.77,-588.43 -242.27,-734.68l-2.67 -351.88 -2221.68 5.26c0.35,520.53 -34.64,674.15 144.45,1105.42l-21.28 3.05zm161.76 -935.06c114.07,181.06 2.96,563.08 130.23,798.67 136.54,252.75 254.9,259.19 521.34,415.33 -23.78,17.95 98.85,105.73 -167.93,13.89 -527.09,-181.42 -611.42,-935.89 -499.16,-1204.87 2.25,-5.39 9.93,-15.65 15.53,-23.01z"/>
   </g>
   <g>
    <path class="fil2" d="M22848.48 13401.99l3.3 -124.29c112.51,-3.91 226.3,-4.42 340.61,-3.51l-337.95 -698.61 -1160.96 27.33 1155 799.09z"/>
    <path class="fil5" d="M21693.48 12602.91l1160.96 -27.33 -618.92 -1279.47c-105.21,-43.21 -203.96,-0.38 -403.72,-23.53l11.03 -91.46c23.91,-292.43 32.56,-516.76 0.43,-695.9l-174.73 -361.21c-81.72,-84.83 -194.03,-156.49 -346,-222.89l-1877.12 3936.41 1998.05 -1407.59 250.02 172.98z"/>
    <polygon class="fil4" points="21842.82,11181.12 21842.68,11273.78 21646.16,12570.17 21693.96,12603.23 22858.22,12583.38 22236.89,11298.97 21831.8,11272.58 "/>
    <path class="fil5" d="M22220.48 11265.05l15.03 31.06c-105.21,-43.2 -203.97,-0.37 -403.74,-23.52l11.06 -91.45c-13.27,154.02 -6.61,82.82 168.2,101.53 44.68,4.78 148.85,-9.03 209.45,-17.62z"/>
   </g>
   <g>
    <polygon class="fil2" points="22283.02,12589.03 21693.57,12602.9 22589.63,13222.85 "/>
    <polygon class="fil11" points="20892.65,9839.61 20953.2,9839.96 20922.63,9776.76 "/>
    <polygon class="fil5" points="21693.57,12602.9 22283.02,12589.03 20953.2,9839.96 20892.65,9839.61 19273.94,13234.1 20924.85,12071.06 "/>
    <polygon class="fil4" points="21795.94,11582.1 21646.16,12570.11 21694.05,12603.23 22285.03,12593.16 "/>
   </g>
  </g>
 </g>
</svg>
