<?xml version="1.0" encoding="UTF-8"?>
<!DOCTYPE svg PUBLIC "-//W3C//DTD SVG 1.1//EN" "http://www.w3.org/Graphics/SVG/1.1/DTD/svg11.dtd">
<!-- Creator: CorelDRAW 2018 (64-Bit Evaluation Version) -->
<svg xmlns="http://www.w3.org/2000/svg" xml:space="preserve" width="316.442mm" height="152.047mm" version="1.1" style="shape-rendering:geometricPrecision; text-rendering:geometricPrecision; image-rendering:optimizeQuality; fill-rule:evenodd; clip-rule:evenodd"
viewBox="0 0 32421.96 15578.45"
 xmlns:xlink="http://www.w3.org/1999/xlink">
 <defs>
  <style type="text/css">
   <![CDATA[
    .str0 {stroke:#3B9CFF;stroke-width:384.34;stroke-miterlimit:22.9256}
    .str1 {stroke:#3B9CFF;stroke-width:384.34;stroke-miterlimit:22.9256}
    .fil2 {fill:none}
    .fil4 {fill:#00C2FF}
    .fil3 {fill:#3B9CFF}
    .fil10 {fill:#99D2FF}
    .fil9 {fill:#99E7FF}
    .fil8 {fill:#D8D983}
    .fil6 {fill:#D8F6FF}
    .fil5 {fill:#FBD13E}
    .fil7 {fill:#FDCD6C}
    .fil1 {fill:#00C2FF;fill-opacity:0.149020}
    .fil0 {fill:#00C2FF;fill-opacity:0.258824}
    .fil19 {fill:#00C2FF;fill-opacity:0.490196}
    .fil17 {fill:#3B9CFF;fill-opacity:0.490196}
    .fil16 {fill:#99D2FF;fill-opacity:0.490196}
    .fil18 {fill:#99E7FF;fill-opacity:0.490196}
    .fil20 {fill:#D8F6FF;fill-opacity:0.490196}
    .fil21 {fill:#DDDCDD;fill-opacity:0.490196}
    .fil15 {fill:#FBD13E;fill-opacity:0.490196}
    .fil12 {fill:#00C2FF;fill-opacity:0.501961}
    .fil11 {fill:#3B9CFF;fill-opacity:0.501961}
    .fil13 {fill:#D8F6FF;fill-opacity:0.501961}
    .fil14 {fill:#FBD13E;fill-opacity:0.501961}
   ]]>
  </style>
 </defs>
 <g id="Layer_x0020_1">
  <metadata id="CorelCorpID_0Corel-Layer"/>
  <g id="_2574304666512">
   <polygon class="fil0" points="11866.93,9532.83 8337.9,12018.97 11862.15,4628.45 15425.6,11994.92 "/>
   <polygon class="fil1" points="10950.94,8899 8035.05,10953.19 10947,4846.71 13891.32,10933.31 "/>
   <polygon class="fil0" points="20301.76,6572.42 18427.52,7892.79 20299.23,3967.76 22191.74,7880 "/>
   <polygon class="fil1" points="19815.29,6235.8 18266.69,7326.76 19813.2,4083.67 21376.89,7316.19 "/>
   <polygon class="fil0" points="29272.71,3454.75 27440.72,4745.35 29270.24,908.79 31120.09,4732.86 "/>
   <polygon class="fil0" points="4885.33,4435.42 2317.17,6244.65 4881.87,866.37 7475.07,6227.14 "/>
   <path class="fil1" d="M32421.96 15578.45l-32421.96 0 0 -15578.45 32421.96 0 0 15578.45zm-27536.61 -11143.02l-2568.18 1809.22 2564.69 -5378.26 2593.2 5360.77 -2589.71 -1791.73zm6981.57 5097.4l-3529.02 2486.16 3524.26 -7390.53 3563.44 7366.47 -3558.67 -2462.11zm8434.84 -2960.41l-1874.23 1320.38 1871.7 -3925.03 1892.5 3912.25 -1889.97 -1307.6zm8970.96 -3117.66l-1832 1290.6 1829.51 -3836.56 1849.85 3824.08 -1847.36 -1278.12zm-6979.31 9467.86l-2077.27 1463.38 2074.46 -4350.19 2097.5 4336.04 -2094.68 -1449.23z"/>
   <polygon class="fil1" points="28797.2,3125.71 27283.51,4192.08 28795.16,1022.09 30323.61,4181.76 "/>
   <polygon class="fil1" points="4218.75,3974.16 2096.78,5469.05 4215.88,1025.21 6358.54,5454.57 "/>
   <polygon class="fil0" points="22293.4,12922.6 20216.15,14385.99 22290.59,10035.79 24388.1,14371.83 "/>
   <polygon class="fil1" points="21754.23,12549.51 20037.89,13758.65 21751.92,10164.27 23484.99,13746.95 "/>
  </g>
  <polyline class="fil2 str0" points="12961.34,4830.71 12961.34,10712.88 19431.25,10747.73 19416.81,4830.76 "/>
  <line class="fil2 str1" x1="12971.57" y1="7686.64" x2="19460.62" y2= "7694.87" />
  <g id="_2574304673008">
   <path class="fil3" d="M16017.49 8531.26c-17.12,14.02 -62.89,22.8 -83.9,27.16 -17.5,3.63 -13.12,7.91 -38.63,13.59 -27.28,6.07 -16.6,3.39 -33.45,18.41l8.59 6.4c10.35,5.52 1.03,0.92 12.11,5.41 12.09,4.91 6.91,-6.35 10.71,5.33 -40,6.62 -18.51,-11.38 -39.77,34.01 -6.43,13.72 -1.53,-2.68 -5.58,11.92 -3.02,10.85 -2.06,23.67 -2.33,35.11 -0.97,40.73 -10.15,84.99 -16.08,117.38 -14.29,78.21 -16,689.03 -14.45,781.41 1.15,68.37 14.57,355.66 35.57,427.68l21.5 107.24c2.66,28.88 10.61,28.54 13.63,54.37 6.15,52.8 18.35,44.8 91.66,44.8 321.29,0 263.67,29.31 296.34,-81.82 4.35,-14.83 6.33,-29.45 8.9,-45.28 5,-30.65 11.03,-23.8 15.53,-41.3l38.09 -267.7c4.24,-24.44 3.67,-5.66 7.06,-23.99 4.63,-25.06 1.83,-81.67 3.3,-111.08 3.76,-75.83 3.27,-144.91 6.72,-220.04 9.58,-207.7 15.51,-453.44 2.85,-661.05 -2.74,-44.82 -4.99,-106.21 -20.11,-146.69 -7.43,-19.89 -4.11,-29.26 -1.07,-46.42 -15.64,-6.91 -39.64,-10.07 -47.5,-22.5 -32.22,0 -27.45,-4.82 -31.43,-13.6 -7.94,-5.17 -99.74,-14.08 -116.78,-14.44 -46.98,-0.98 -79.21,3.17 -121.47,5.69z"/>
   <path class="fil4" d="M15873.66 8566.97c-14.49,18.7 -12.22,12.87 -35.28,24.62 -99.54,50.74 -40.28,14.07 -62.84,83.63 -12.76,39.34 -0.74,32.26 -20.99,94.24l-18.21 274.09c0.13,152.66 -2.07,310.44 3.25,458.5 2.6,72.5 9.19,149.37 10.94,224.77l18.38 155.93c2.23,13.04 6.93,22.99 10.1,44.04 2.84,18.82 10.74,87.39 15.35,101.4 7.05,21.41 11.37,10.44 14.36,44.58 2.36,26.92 1,23.68 11.03,45.56 26.03,56.78 -2.7,79.66 58.31,105.78 26.37,11.29 22.36,16 22.44,46.45 22.2,0.16 13.26,4.83 35.69,9.84 -15.4,8.77 -1.26,0.75 -8.99,10.7l304.43 0.55 -17.23 -12.19c25.92,-6.35 22.5,-17.23 26.61,-44.85 24.03,-8.9 5.26,-13.9 46.21,-13.8 24.31,0.06 29.57,-0.02 41.25,-16.77 21.1,-30.27 50,-173.24 54.69,-183.7 19.43,-43.28 34.86,-200.84 47.21,-248.32 4.77,-18.36 2.56,-34.3 4.68,-53.9l16.61 -216.12c0.61,-83.19 9.1,-146.42 8.23,-229.23 -1.64,-158.03 5.16,-304.79 -9.2,-462.55 -1.41,-15.49 -5.01,-27.34 -7.65,-49.05 -3.2,-26.33 -8.93,-77.18 -16.92,-98.98 -9.59,-26.17 1.1,-33.71 1.79,-45.62 -14.45,-5.89 -5.43,-6.63 -21.24,-13.5l-41.82 -17.51c-18.2,-7.75 -0.89,-0.01 -12.17,-6.09 -12.09,-6.51 -12.44,-7.58 -29.53,-7.87 -4.84,-5.79 -1.82,-10.3 -2.51,-13.91 -1.5,-10.04 -52.24,-16.52 -64.91,-17.66 3.99,8.78 -0.79,13.6 31.43,13.6 7.86,12.43 31.86,15.59 47.5,22.5 -3.04,17.16 -6.36,26.54 1.07,46.42 15.12,40.48 17.38,101.87 20.11,146.69 12.66,207.61 6.73,453.35 -2.85,661.05 -3.45,75.13 -2.96,144.21 -6.72,220.04 -1.47,29.42 1.33,86.02 -3.3,111.08 -3.39,18.33 -2.82,-0.45 -7.06,23.99l-38.09 267.7c-4.5,17.5 -10.53,10.66 -15.53,41.3 -2.57,15.83 -4.55,30.45 -8.9,45.28 -32.67,111.14 24.95,81.82 -296.34,81.82 -73.31,0 -85.51,7.99 -91.66,-44.8 -3.01,-25.83 -10.96,-25.49 -13.63,-54.37l-21.5 -107.24c-21,-72.02 -34.43,-359.31 -35.57,-427.68 -1.56,-92.38 0.15,-703.2 14.45,-781.41 5.92,-32.39 15.1,-76.65 16.08,-117.38 0.27,-11.44 -0.7,-24.26 2.33,-35.11 4.06,-14.6 -0.85,1.8 5.58,-11.92 21.26,-45.39 -0.23,-27.39 39.77,-34.01 -3.8,-11.68 1.38,-0.42 -10.71,-5.33 -11.08,-4.49 -1.76,0.11 -12.11,-5.41l-8.59 -6.4c16.85,-15.02 6.17,-12.35 33.45,-18.41 25.5,-5.68 21.13,-9.96 38.63,-13.59 21.01,-4.36 66.78,-13.15 83.9,-27.16 -61.83,3.37 -66.93,7.52 -117.33,22.8 -14.19,4.3 -14.63,7.2 -26.5,12.91z"/>
   <path class="fil4" d="M16337.83 8560.96l-17.18 -3.28c0.69,3.62 -2.33,8.12 2.51,13.91 17.09,0.29 17.44,1.36 29.53,7.87 11.28,6.08 -6.02,-1.66 12.17,6.09l41.82 17.51c15.81,6.87 6.79,7.61 21.24,13.5 -0.7,11.92 -11.38,19.46 -1.79,45.62 7.98,21.8 13.72,72.65 16.92,98.98 2.64,21.71 6.24,33.55 7.65,49.05 14.36,157.75 7.56,304.52 9.2,462.55 0.87,82.81 -7.61,146.04 -8.23,229.23l-16.61 216.12c-2.12,19.6 0.09,35.54 -4.68,53.9 -12.36,47.48 -27.79,205.04 -47.21,248.32 -4.69,10.46 -33.6,153.43 -54.69,183.7 -11.68,16.75 -16.94,16.83 -41.25,16.77 -40.95,-0.1 -22.18,4.9 -46.21,13.8 -4.11,27.61 -0.69,38.49 -26.61,44.85l17.23 12.19c145.65,-3.32 128.49,32.47 197.82,-144.98l54.88 -149.78c3.93,-18.6 8.2,-38.98 12.73,-55.4 2.65,-9.6 2.59,-15.12 5.03,-26.03 5.41,-24.2 3.43,-5.55 9.55,-26.12l18.94 -119.8c6.09,-41.56 14.48,-73.26 14.89,-119.16 0.43,-48.27 6.57,-86.96 11.72,-127.88 7.1,-56.37 2.75,-456.28 2.53,-546.38 -0.2,-88.73 -13.36,-113.97 -17.23,-184.53 -1.44,-26.17 -17.7,-87.44 -22.45,-116.96 -9.34,-58.25 6.3,-10.4 -15.42,-82.71 -2.88,-9.56 -2.53,-19.06 -5.9,-30.34 -7.54,-25.23 -9.78,-2.73 -13.31,-58.01l-16.94 -3.95c0.71,4.94 37.64,111.64 37.98,143.59 -24.53,-1.21 -11.07,1.8 -31.17,-12.83 -31.24,-22.74 -64.11,-37.13 -95.7,-52.57 -11.04,-5.4 -7.97,-6.03 -20.08,-10.76 -5.45,-2.12 -21.15,-5.88 -21.68,-6.1z"/>
   <path class="fil3" d="M15718.54 8606.14l-3.11 33.36c25.33,0.83 12.16,0.61 15.26,-2.86 18.23,-24.49 74.36,-49.71 103.27,-64.72 8.85,-4.6 18.85,-11.91 37.11,-13.79 2.76,-23.54 -1.13,-28.69 5.54,-50.33 11.45,-37.22 17.25,-88.72 35.82,-126.1 5.19,-10.46 2.8,-7.59 6.51,-19.96l21.22 -60.73c5.76,-8.84 3.72,-5.04 10.25,-15.99 6.44,-10.8 4.89,-7.45 11.15,-16.19 9.67,-13.46 11.69,-26.15 16.85,-42.21 11.16,3.5 11.78,6.45 12.29,6.75 1,0.57 2.18,1.38 3.24,1.98l31.94 17.59c16.02,10.84 8.21,2.43 25.48,10.02 25.89,11.37 -8.19,4.99 24.67,10.14 20.34,3.18 43.9,6.1 67.3,3.44 27.08,-3.06 19.22,-13.63 58.46,-14.98 3.71,-20.74 14.72,-23.78 31.46,-29.56l13.64 35.3c15.27,46.36 11.91,20.55 29.84,68.28 5.68,15.12 6.24,21.85 11.19,38.92 4.05,13.94 8.68,18.33 12.02,32.15 5.77,23.89 2.8,29.6 16.89,82.59 3.7,13.91 8.63,21.77 8.17,41.91l-18.77 8.99c23.29,5.55 26.01,-3.04 31.63,20.81 0.53,0.22 16.23,3.98 21.68,6.1 12.11,4.72 9.04,5.36 20.08,10.76 31.59,15.44 64.46,29.84 95.7,52.57 20.1,14.63 6.64,11.62 31.17,12.83 -0.34,-31.96 -37.27,-138.66 -37.98,-143.59 1.5,-32.6 -16.77,-43.06 -27.76,-67.77l-32.85 -65.52c-23.75,-48.2 -46.57,-88.77 -81.18,-122.12 -16.61,-16.01 -31.18,-34.27 -49.23,-49.67l-57.87 -40.73c-44.43,-23.68 -112.27,-31.84 -176.96,-19.03 -29.66,5.88 -44.89,18.65 -64.61,33.08 -10.56,7.74 -19.53,12.03 -29.59,19.9l-36.15 35.82c-1.03,1.01 -6.09,5.85 -6.77,6.53l-6.71 6.94c-8.02,8.59 -14.89,16.18 -23.11,26.63 -9.67,12.29 -12.64,16.57 -20.93,28.59 -51.71,74.94 -83.25,149.62 -113.81,236.86l-22.42 77.02z"/>
   <path class="fil4" d="M15730.68 8636.64c-3.09,3.47 10.07,3.69 -15.26,2.86l3.11 -33.36 -13.82 17.06c-3.77,9.78 -2.21,45.81 -10.15,84.31l-18.45 106.91c-12.95,142.59 -15.8,739.8 2.84,846.21 6.64,37.91 7.33,73.29 12.75,113.18l69.88 303.46c5.88,13.8 13.42,31.84 16.99,45.68l37.18 88.29c32.17,61.77 12.24,80.88 111.47,79.86 7.73,-9.95 -6.41,-1.93 8.99,-10.7 -22.43,-5.01 -13.48,-9.67 -35.69,-9.84 -0.08,-30.45 3.93,-35.16 -22.44,-46.45 -61.01,-26.12 -32.27,-49 -58.31,-105.78 -10.03,-21.89 -8.68,-18.65 -11.03,-45.56 -2.99,-34.14 -7.32,-23.17 -14.36,-44.58 -4.61,-14.02 -12.51,-82.58 -15.35,-101.4 -3.18,-21.04 -7.87,-30.99 -10.1,-44.04l-18.38 -155.93c-1.75,-75.4 -8.34,-152.27 -10.94,-224.77 -5.32,-148.06 -3.11,-305.84 -3.25,-458.5l18.21 -274.09c20.26,-61.98 8.24,-54.9 20.99,-94.24 22.56,-69.56 -36.7,-32.89 62.84,-83.63 23.05,-11.75 20.79,-5.92 35.28,-24.62 -19.15,3.12 -59.8,23.22 -75.63,32.68 -25.42,15.2 -39.49,29.15 -67.35,36.99z"/>
   <path class="fil4" d="M15730.68 8636.64c27.86,-7.84 41.93,-21.78 67.35,-36.99 15.83,-9.47 56.49,-29.56 75.63,-32.68 11.86,-5.71 12.31,-8.61 26.5,-12.91 50.41,-15.28 55.5,-19.43 117.33,-22.8 42.26,-2.52 74.5,-6.67 121.47,-5.69 17.04,0.36 108.84,9.26 116.78,14.44 12.66,1.15 63.41,7.62 64.91,17.66l17.18 3.28c-5.61,-23.85 -8.34,-15.26 -31.63,-20.81l18.77 -8.99c0.46,-20.13 -4.47,-27.99 -8.17,-41.91 -14.09,-52.99 -11.12,-58.7 -16.89,-82.59 -3.34,-13.82 -7.97,-18.21 -12.02,-32.15 -4.95,-17.07 -5.51,-23.8 -11.19,-38.92 -17.93,-47.72 -14.57,-21.92 -29.84,-68.28l-13.64 -35.3c-16.74,5.78 -27.76,8.82 -31.46,29.56 -39.24,1.35 -31.38,11.92 -58.46,14.98 -23.4,2.65 -46.97,-0.27 -67.3,-3.44 -32.86,-5.15 1.22,1.23 -24.67,-10.14 -17.27,-7.59 -9.46,0.82 -25.48,-10.02l-31.94 -17.59c-1.06,-0.59 -2.23,-1.4 -3.24,-1.98 -0.51,-0.3 -1.14,-3.25 -12.29,-6.75 -5.16,16.07 -7.18,28.75 -16.85,42.21 -6.26,8.74 -4.7,5.39 -11.15,16.19 -6.53,10.95 -4.49,7.15 -10.25,15.99l-21.22 60.73c-3.71,12.37 -1.31,9.5 -6.51,19.96 -18.57,37.38 -24.36,88.87 -35.82,126.1 -6.67,21.64 -2.79,26.78 -5.54,50.33 -18.26,1.89 -28.26,9.19 -37.11,13.79 -28.9,15.01 -85.04,40.24 -103.27,64.72z"/>
   <path class="fil5" d="M14295.56 8963.44l-24.76 68.05c-30.82,87.03 -21.55,271.72 -21.55,365.18l0.67 676.1c6.12,31.66 4.39,6.07 9.47,21.46 8.21,24.87 -8.35,72.15 90.7,146.88 57.1,43.08 109.32,43.03 191.19,42.76 78.26,-0.26 157.45,0.53 235.76,1.27 66.93,0.62 138.09,-19.73 176.2,-59.55 10.44,-10.91 17.86,-18.82 29.12,-29.66 24.36,-23.46 47.92,-87.3 49.61,-128.1 6.3,-151.9 0.17,-318.17 0.17,-471.68 0,-151.27 7.53,-322.88 -1.09,-471.68 -1.43,-24.73 -1.75,-31.09 -8.6,-49.69 -13.22,-35.89 3.47,-14.07 -16.55,-55.73 -0.56,-1.16 -2.27,-4.92 -3.29,-8.94 -18.04,-72.06 -59.72,-132.11 -113.02,-183.91l-14.81 -21.6c-20.87,-27.21 -57.05,-28.76 -72.25,-82.67 -5.55,-19.69 -3.83,-19.44 -25.52,-22.64l-13.45 -0.87c-22.96,8.02 -217.3,10.56 -235.35,2.21l-10.32 -1.67c-16.7,7.97 -27.6,3.6 -36.26,21.26 -16,32.64 11.92,19.49 -52.6,70.16 -11.15,8.76 -23.68,15.28 -36.17,27.15 -32.54,30.97 -59.9,64.96 -81.24,104.88 -7.12,13.32 -18.94,28.66 -16.06,41.02z"/>
   <path class="fil3" d="M14528.2 8700.64c18.04,8.35 212.39,5.81 235.35,-2.21l2.07 -11.01 30.87 -5.99 1.14 -163.74c-34.22,-4.1 -34.67,-5.99 -34.67,-41.44 0,-37.39 -3.08,-29.52 -37.23,-35.96l-2.24 -195.23 -80.42 0.32c1.74,38.3 19.17,39.69 32.4,63.19 -14.34,10.74 -24.66,30.97 -25.73,28.96l-6.49 94.03c-4.58,43.24 19.15,19.27 -6.41,76.5 10.29,26.59 11.55,4.02 12.7,36.03l-5.98 125.95c-20.95,14.6 -18.82,14.04 -52.53,12.82 -26.36,-0.95 -35.93,-8.66 -53.64,-20.65 8.14,-38.2 3.37,-91.4 4.68,-136.02 27.94,-20.56 65.68,-7.23 69.87,-16.38 0.72,-1.58 2.52,-1 3.64,-1.75 -29.35,-19.94 -54.19,17.6 -49.63,-52.52l19.26 -13.25c8.54,-27.7 3.6,-158.08 3.8,-197.44l-25.07 0.04c-9.21,51.68 9.41,146.23 -4.85,200.1 -13.68,6.65 -28.48,0.95 -31.42,18.93 -3.66,22.35 4.46,29.32 -4.56,53.18l-25.98 4.56c-9.17,31.9 -3.34,116.22 -2.31,154.15 26.53,12.52 25.95,-11.37 33.39,24.86z"/>
   <path class="fil6" d="M14500.95 8691.19l-15.91 -10.87 1.27 -163.68 31.51 -13.86 1.18 -59.09 28.43 -8.48c-4.6,-32.64 -6.98,-177.33 4.09,-202.81 17.79,-7.2 175.11,-11.37 189.27,-5.5 8.88,21.89 3.68,74.54 3.68,104.3l3.69 98.07c0.2,-0.61 0.91,2.58 1.67,3.71 13.63,-7.06 8.36,8.77 12.29,-15.81l-2.28 -162.63 20.67 0.53c1.36,47.6 -0.22,96.42 0.28,144.26 0.31,29.27 -4.21,39.85 -4.61,67.95 -0.8,54.87 14.17,24.08 21.46,50.39l-1.14 163.74 -30.87 5.99 -2.07 11.01 13.45 0.87c0,-22.93 32.42,23.45 31.65,-36.31l-5.59 -227.5c-0.12,-92.05 6.56,-212.6 -1.62,-301.1 -50.47,-16.17 -161.08,1.27 -219.56,-0.29 -112.78,-2.99 -104.13,-33.64 -103.02,120.04 0.54,74.27 3.41,158.02 -0.39,231.37 -1.02,19.81 -6.74,33.48 -7.19,54.11 -0.43,19.29 0.19,39.66 0.2,59.1 0.02,76.13 -11.68,100.36 29.47,92.48z"/>
   <path class="fil7" d="M14295.56 8963.44c-21.11,9.5 -11.24,0.74 -25.52,41.51 -44.36,126.65 -29.29,240.97 -29.29,387.19 0,88.49 -5.77,657.64 4.06,718.42 5.19,32.12 17.81,46.51 25.37,60.7l9.17 22.55c0.35,0.46 9.85,7.18 14.92,11.73 8.97,8.02 8.49,10.86 14.39,17.88 7.24,8.65 -3.97,-3.12 6.45,6.67 27.61,25.95 73.64,50.56 109.01,58.77 28.54,6.61 374.94,6.06 421.26,1.96 29.96,-2.65 23.08,-6.76 45.67,-13.88 62.62,-19.73 132.56,-96.95 143.22,-151.09 2.89,-14.62 1.08,-13.56 6.21,-26.19 19.96,-49.16 7.39,-201.12 7.39,-263.19 0,-92.76 5.4,-677.09 -3.52,-716.84 -7.15,-31.9 -12.62,-65.09 -22,-94.09 -5.2,-16.1 -10.94,-28.75 -15.82,-43.37 -16.93,-50.77 -87.14,-166.04 -131.72,-177.55l14.81 21.6c53.3,51.8 94.98,111.85 113.02,183.91 1.01,4.03 2.73,7.79 3.29,8.94 20.02,41.66 3.33,19.84 16.55,55.73 6.84,18.61 7.16,24.96 8.6,49.69 8.62,148.8 1.09,320.41 1.09,471.68 0,153.5 6.13,319.77 -0.17,471.68 -1.69,40.8 -25.25,104.64 -49.61,128.1 -11.26,10.84 -18.68,18.75 -29.12,29.66 -38.1,39.82 -109.27,60.17 -176.2,59.55 -78.31,-0.74 -157.5,-1.53 -235.76,-1.27 -81.86,0.28 -134.09,0.33 -191.19,-42.76 -99.05,-74.73 -82.49,-122.02 -90.7,-146.88 -5.08,-15.4 -3.35,10.19 -9.47,-21.46l-0.67 -676.1c0,-93.46 -9.27,-278.15 21.55,-365.18l24.76 -68.05z"/>
   <path class="fil4" d="M14547.42 8435.21l-28.43 8.48 -1.18 59.09 -31.51 13.86 -1.27 163.68 15.91 10.87c18.36,-4.84 14.57,-2.82 16.94,7.78l10.32 1.67c-7.44,-36.23 -6.86,-12.34 -33.39,-24.86 -1.03,-37.93 -6.86,-122.25 2.31,-154.15l25.98 -4.56c9.02,-23.85 0.9,-30.83 4.56,-53.18 2.94,-17.98 17.75,-12.28 31.42,-18.93 14.25,-53.87 -4.36,-148.42 4.85,-200.1l25.07 -0.04c-0.2,39.35 4.74,169.73 -3.8,197.44l-19.26 13.25c-4.56,70.12 20.28,32.58 49.63,52.52 -1.12,0.75 -2.92,0.17 -3.64,1.75 -4.19,9.15 -41.93,-4.18 -69.87,16.38 -1.31,44.62 3.45,97.83 -4.68,136.02 17.7,11.99 27.27,19.69 53.64,20.65 33.71,1.22 31.58,1.78 52.53,-12.82l5.98 -125.95c-1.16,-32.02 -2.42,-9.45 -12.7,-36.03 25.56,-57.22 1.83,-33.26 6.41,-76.5l6.49 -94.03c1.07,2.01 11.38,-18.23 25.73,-28.96 -13.23,-23.49 -30.66,-24.89 -32.4,-63.19l80.42 -0.32c-4.09,-8.36 4.73,-11.24 -37,-9.77 -30.01,1.06 -126.95,-2.55 -128.17,8.65 -0.19,1.75 -1.29,2.4 -1.53,3.21 -1.56,5.41 -1.47,1.13 -2.55,11.38 -3.66,34.51 10.9,158.66 -6.8,176.71z"/>
   <path class="fil6" d="M14547.42 8435.21c17.7,-18.05 3.15,-142.2 6.8,-176.71 1.09,-10.26 0.99,-5.97 2.55,-11.38 0.24,-0.81 1.33,-1.45 1.53,-3.21 1.23,-11.2 98.16,-7.59 128.17,-8.65 41.73,-1.47 32.91,1.41 37,9.77l2.24 195.23c34.15,6.44 37.23,-1.42 37.23,35.96 0,35.45 0.45,37.35 34.67,41.44 -7.3,-26.31 -22.26,4.48 -21.46,-50.39 0.4,-28.1 4.92,-38.68 4.61,-67.95 -0.49,-47.84 1.09,-96.66 -0.28,-144.26l-20.67 -0.53 2.28 162.63c-3.93,24.58 1.33,8.75 -12.29,15.81 -0.76,-1.13 -1.47,-4.32 -1.67,-3.71l-3.69 -98.07c0,-29.76 5.2,-82.42 -3.68,-104.3 -14.16,-5.87 -171.48,-1.7 -189.27,5.5 -11.07,25.47 -8.69,170.16 -4.09,202.81z"/>
   <g>
    <path class="fil5" d="M17185.14 10242.84c3.43,-25.14 -4.05,-21.78 -0.48,-51.47 10.53,-87.79 6.84,-60.15 6.84,-154.85l0.33 -1425.06 93.56 11.41c13.72,48.36 -15.19,1471.73 8.98,1544.39l52.5 11.13c10.52,55.24 2.86,27.05 -34.1,45.14 22.15,0.44 38,3.25 46.39,19.34l-90.33 15.56c-49.23,7.21 -49.04,-8.03 -83.7,-15.59zm433.56 -141.84c0,91.65 -9.35,68.32 -104.73,68.05 -46.7,-0.12 -117.9,4.65 -161.22,-3.86 -9.24,-121.65 -1.39,-274.5 -1.39,-399.52l1.42 -1173.64 26.98 -8.82c47.57,-17.49 220.24,-11.45 226.13,-9.83 42.88,11.79 18.34,33.29 13.53,64.66l-0.73 1462.96zm409.38 153.66l-154.87 -2.99c-88.25,-7.51 -188.99,1.38 -268.94,-0.43 11.72,-16.53 17.4,-23.96 34.54,-27.7 -26.27,-11.29 -23.23,-13.54 -13.57,-49.95 76.27,-6.09 177.8,7.99 243.97,-8.65 9.66,-114.87 1.36,-267.41 1.36,-386.37l-0.34 -1064.05c0.77,-74.18 9.61,-66.62 -11.76,-83.83 11.75,-15.53 22.05,0.83 19.2,-31.91 -2.12,-24.5 -9.95,-21.27 -27.18,-25.1 -97.95,-21.78 -197.24,11.81 -234.12,-26.79 -51.79,-10.2 -118.16,-3.95 -173.43,-0.56l-152.41 17.49c28.43,-27.78 12.77,-147.41 12.63,-197.52 -0.08,-36.55 0,-73.08 -0.08,-109.63 -0.11,-49.39 -10.85,-85.45 16.69,-95.35l0.68 -7.62c-36.68,16.54 -27.41,28.91 -26.98,77.06 0.62,71 4.37,269.31 -4.6,316.49 -21.49,7.45 -98.05,40.17 -106.14,56.8 -6.22,17.66 -14.4,1572.29 -1.17,1638.83 35.13,41.07 126.37,24.74 190.51,24.14l613.2 2.15c28.09,-0.06 39.53,6.18 42.79,-14.51z"/>
    <path class="fil8" d="M17352.78 8592.03l-1.42 1173.64c0,125.03 -7.85,277.88 1.39,399.52 43.32,8.51 114.52,3.74 161.22,3.86 95.38,0.27 104.73,23.6 104.73,-68.05l0.73 -1462.96c4.81,-31.37 29.34,-52.87 -13.53,-64.66 -5.89,-1.63 -178.56,-7.66 -226.13,9.83l-26.98 8.82z"/>
    <path class="fil5" d="M17873.22 10251.67c-16.42,-33.66 -3.21,-3.51 -1.7,-17.95 2.24,-21.73 1.27,8.72 3.19,-15.82 2.65,-34.09 -25.56,-52.67 90.74,-47.76l78.22 -4.65c2.01,14.16 3.66,52.95 -3.62,70.21l-9.29 14.95c-0.53,0.82 -1.94,2.58 -2.66,4.01 40.13,1.25 29.92,-44.14 28.83,-82.7 -1.05,-36.53 -0.65,-73.09 -0.65,-109.64l0.02 -1315.55c0.09,-125.61 18.49,-150.09 -50.15,-169.41 -37.66,12.42 -34.4,-3.21 -99.09,-3.52 -35.26,-0.17 -22.09,-0.69 -46.81,-8.59l-16.27 -4.43c-76.41,-17.13 -143.64,-13.92 -227.58,-13.92 36.87,38.61 136.17,5.01 234.12,26.79 17.23,3.83 25.06,0.6 27.18,25.1 2.85,32.74 -7.45,16.37 -19.2,31.91 21.37,17.21 12.53,9.65 11.76,83.83l0.34 1064.05c0,118.96 8.3,271.5 -1.36,386.37 -66.18,16.64 -167.7,2.56 -243.97,8.65 -9.66,36.4 -12.7,38.66 13.57,49.95 -17.14,3.74 -22.82,11.18 -34.54,27.7 79.95,1.81 180.69,-7.08 268.94,0.43z"/>
    <path class="fil5" d="M17185.14 10242.84c34.66,7.56 34.47,22.81 83.7,15.59l90.33 -15.56c-8.39,-16.1 -24.24,-18.9 -46.39,-19.34 36.96,-18.09 44.62,10.09 34.1,-45.14l-52.5 -11.13c-24.17,-72.66 4.74,-1496.03 -8.98,-1544.39l-93.56 -11.41 -0.33 1425.06c0,94.7 3.69,67.07 -6.84,154.85 -3.57,29.69 3.91,26.33 0.48,51.47z"/>
    <path class="fil4" d="M17616.39 8546.89c83.94,0 151.17,-3.21 227.58,13.92l16.27 4.43c24.72,7.9 11.56,8.41 46.81,8.59 64.69,0.32 61.42,15.94 99.09,3.52 -19.62,-11.69 -39.07,-18.86 -62.38,-30.49 -10.94,-78.36 -0.35,-252.96 -2.35,-348.82 -0.67,-31.35 4.2,-31.54 -17.67,-40.05 10.85,93.04 -3.98,291.73 4.21,396.57 -55.79,8.93 -204.74,-6.72 -272.08,-9.12 -1.29,-28.75 5.52,-59.74 5.12,-95.29 -0.52,-47.72 -8.51,-259.41 8.87,-294.67l-211.68 0.69c12.18,103.23 -13.37,296.73 7.5,380.07l-152.41 12.4c-5.65,-51.42 -8.01,-353.17 6.51,-387.32 -27.54,9.9 -16.8,45.95 -16.69,95.35 0.08,36.55 0,73.08 0.08,109.63 0.13,50.11 15.8,169.74 -12.63,197.52l152.41 -17.49c55.27,-3.39 121.64,-9.64 173.43,0.56z"/>
    <path class="fil3" d="M17817.09 8160.54c135.15,21.65 99.85,-101.49 109.22,386.29 -36.95,-0.47 -85.01,3.9 -114.21,-8.36l1.59 -19.05c0.82,-4.54 2.58,-4.86 4.24,-18.76l-0.84 -340.12zm-147.22 -5.05c-17.39,35.26 -9.4,246.94 -8.87,294.67 0.4,35.54 -6.41,66.54 -5.12,95.29 67.34,2.4 216.29,18.05 272.08,9.12 -8.19,-104.85 6.64,-303.53 -4.21,-396.57 -1.03,-0.9 -2.99,-3.24 -3.57,-2.05l-122.46 -3.76c-40.48,0.55 -93.19,-5.65 -127.85,3.31z"/>
    <path class="fil3" d="M17458.19 8156.18l-137.72 -2.48 -0.68 7.62c-14.52,34.15 -12.15,335.9 -6.51,387.32l152.41 -12.4c-20.87,-83.34 4.68,-276.84 -7.5,-380.07z"/>
    <path class="fil4" d="M17817.09 8160.54l0.84 340.12c-1.66,13.9 -3.42,14.22 -4.24,18.76l-1.59 19.05c29.2,12.26 77.26,7.89 114.21,8.36 -9.37,-487.78 25.93,-364.64 -109.22,-386.29z"/>
    <path class="fil5" d="M17873.22 10251.67l154.87 2.99c0.73,-1.42 2.13,-3.19 2.66,-4.01l9.29 -14.95c7.27,-17.26 5.62,-56.05 3.62,-70.21l-78.22 4.65c-116.3,-4.92 -88.08,13.67 -90.74,47.76 -1.92,24.54 -0.94,-5.91 -3.19,15.82 -1.51,14.44 -14.72,-15.71 1.7,17.95z"/>
   </g>
  </g>
  <g id="_2574304705584">
   <path class="fil5" d="M15638.16 6036.65c4.95,10.47 13,84.21 14.46,104.88 1.13,15.93 3.37,37.69 6.78,51.13 16.03,63.01 7.32,57.4 13.95,106.57 3.17,23.46 7.58,35.31 10.1,52.37l26.99 215.88c8.2,36.68 5.35,73.43 11.91,109.41 10.23,56.08 12.98,4.64 14.51,105.47 0.77,50.55 6.03,37.66 10.82,49.2 5.18,12.52 2.58,39.66 7.52,57.8 105.77,-1.76 214.15,0.83 320.26,0.93 49.61,0.05 293.45,4.62 319.14,-3.52 27.53,-78.7 13.53,-110.64 30.26,-178.36 6.3,-25.51 -0.39,-51.19 15.87,-110 5.92,-21.4 18.83,-250.06 37.84,-294.94l21.58 -184.61c2.37,-15.32 8.57,-37.57 10.78,-56.03 5.35,-44.65 3.55,-83.37 13.05,-123.64 8.91,-37.7 4.27,-85.49 13.91,-128.15 7.92,-35.04 2.85,-98.39 11.57,-124 17.02,-49.96 5.72,-76.68 16.66,-119.63 14.44,-56.65 6.51,-74.16 15.7,-119.86 5.45,-27.1 21.19,-95.02 11.92,-123.66 -9.03,-35.69 6.11,-67.19 5.89,-104.34l-87.37 0.46c-9.39,7.28 -3.01,4.08 -8.38,9.64 -0.72,0.75 -1.79,1.97 -2.58,2.78 -23.93,24.65 -7.19,1.25 -23.2,30.25 -10.79,19.55 -10.43,5.73 -20.07,23.45l-56.84 122.36c-3.61,8.46 -3.04,12.44 -6.06,22.85l-30.91 89.38c-6.27,35.71 -14.91,47.05 -18.04,73.77l-47.5 258.64c-5.33,47.18 -0.85,68.04 -12.98,109.06 -12.57,42.45 -10.7,124.05 -15.51,164.22 -1.95,16.19 -6.54,33.43 -7.24,54 -2.58,75.52 -8.77,159.11 -12.58,232.98 -2.05,39.74 0.65,81.83 -1.5,121.49 -1.45,26.85 -7.55,20.49 -8.84,48.19l-1.51 184.67c-0.3,42.19 -5.52,79.86 -2.79,117.47 -87.87,-1.61 -196.83,6.26 -291.41,-0.25 -5.56,-0.39 -14.93,-1.6 -19.42,-1.84l-20.77 1.11c5.17,-22.74 16.65,-2.03 12.15,-42.11l-12.68 -171.98c-5.07,-74.92 -1.66,-165.19 -3.11,-242.13 -1.22,-64.47 7.42,-89.05 -8.83,-141.05 -3.17,-10.13 -3.45,-12.5 -4.43,-24.29l-25.99 -285.29c-2.62,-25.26 -2.35,-58.18 -8.6,-78.89 -14.9,-49.38 -21.93,-146.35 -31.27,-181.8 -17.22,-65.36 -16.91,-120.71 -29.68,-155.13 -30.69,-82.68 -16.01,-72.78 -42.03,-138.02 -5.26,-13.18 -10.3,-38.24 -15.38,-47.65 -21.34,-39.52 -10.01,-25.72 -17.56,-40.86 -9.71,-19.48 -4.58,8.11 -32.39,-59.95 -19.96,-48.87 -14.74,-22.65 -44.08,-49.37 31.19,-6.61 119.25,-9.4 147.55,-2.73 0.34,-0.61 -12.05,-21.99 6.21,-3.45l-247.15 -8.97 -7.89 0c2.37,50.84 -1.59,41.93 11.5,87.29 1.51,5.22 0.93,-0.96 2.5,10.55 8.25,60.79 11.2,151.51 22.53,210.5 10.47,54.51 10.56,102.32 18.85,150.98l29.61 262.8c3.5,37.71 11.71,56.53 14.21,103.99z"/>
   <path class="fil8" d="M15787.79 5222.94c30.7,2.07 86.66,-2.53 122.66,-2.36 77.84,0.4 308.19,-5.37 353.17,4.42 -2.93,33.04 -25.46,84.94 -35.15,118.05l-60.12 249.71c-5.69,21.91 -3.88,48.3 -8.02,71.26 -4.49,24.94 -9.36,34.78 -12.98,63.77 -11.49,91.86 -29.72,176.46 -31.37,277.96 -0.61,37.25 2.67,187.81 -26.46,208.4 -14.66,10.36 -37.4,19.03 -60.01,13.24 -53.65,-13.75 -43.86,-51.74 -47.96,-109.61 -1.57,-22.19 -7.64,-45.33 -9.13,-68.21 -1.64,-25.35 0.28,-50.09 -2.92,-75.28 -5.97,-47.07 -13.09,-87.56 -18.69,-134.55l-33.07 -200.97c-5.64,-17.57 -11.14,-38.89 -16.87,-59.84 -4.26,-15.53 -9.76,-49.53 -14.73,-63.83 -4.65,-13.4 -7.77,-12.43 -11.38,-25.82 -13.67,-50.57 5.01,-1.72 -18.54,-59.08 -10.43,-25.39 0.76,-25.54 -16.16,-62.17 -24.76,-53.65 -19.68,-89.73 -52.24,-145.1zm0 0c-28.3,-6.67 -116.36,-3.88 -147.55,2.73 29.33,26.72 24.12,0.5 44.08,49.37 27.81,68.06 22.67,40.47 32.39,59.95 7.55,15.14 -3.78,1.34 17.56,40.86 5.08,9.42 10.12,34.48 15.38,47.65 26.01,65.25 11.34,55.34 42.03,138.02 12.78,34.43 12.46,89.77 29.68,155.13 9.34,35.45 16.37,132.42 31.27,181.8 6.25,20.72 5.97,53.64 8.6,78.89l25.99 285.29c0.97,11.79 1.26,14.16 4.43,24.29 16.25,52.01 7.61,76.59 8.83,141.05 1.45,76.94 -1.96,167.21 3.11,242.13l12.68 171.98c4.5,40.08 -6.98,19.37 -12.15,42.11l20.77 -1.11c4.49,0.25 13.85,1.45 19.42,1.84 94.58,6.51 203.54,-1.36 291.41,0.25 -2.74,-37.61 2.49,-75.28 2.79,-117.47l1.51 -184.67c1.29,-27.69 7.39,-21.33 8.84,-48.19 2.14,-39.66 -0.55,-81.75 1.5,-121.49 3.81,-73.87 10,-157.46 12.58,-232.98 0.71,-20.56 5.3,-37.81 7.24,-54 4.82,-40.17 2.94,-121.77 15.51,-164.22 12.13,-41.01 7.65,-61.87 12.98,-109.06l47.5 -258.64c3.14,-26.72 11.77,-38.06 18.04,-73.77l30.91 -89.38c3.01,-10.41 2.45,-14.39 6.06,-22.85l56.84 -122.36c9.64,-17.73 9.28,-3.9 20.07,-23.45 16,-29 -0.74,-5.59 23.2,-30.25 0.79,-0.81 1.86,-2.03 2.58,-2.78 5.37,-5.56 -1,-2.36 8.38,-9.64l87.37 -0.46c0.22,37.15 -14.92,68.66 -5.89,104.34l4.53 -8.21c2.92,-7.18 1.98,-3.42 4.41,-12.45l8.7 -64.39c0.7,-38.36 -5.31,-31.7 -40.56,-31.2 -173.68,2.44 -1003.4,-7.74 -1023.94,2.89l247.15 8.97c-18.26,-18.53 -5.87,2.84 -6.21,3.45z"/>
   <path class="fil5" d="M15787.79 5222.94c32.56,55.37 27.48,91.45 52.24,145.1 16.92,36.63 5.73,36.78 16.16,62.17 23.56,57.36 4.88,8.5 18.54,59.08 3.62,13.39 6.73,12.42 11.38,25.82 4.97,14.3 10.47,48.3 14.73,63.83 5.74,20.94 11.24,42.26 16.87,59.84l33.07 200.97c5.59,46.99 12.72,87.48 18.69,134.55 3.2,25.18 1.28,49.93 2.92,75.28 1.49,22.88 7.56,46.01 9.13,68.21 4.1,57.87 -5.69,95.86 47.96,109.61 22.61,5.79 45.35,-2.88 60.01,-13.24 29.14,-20.59 25.85,-171.15 26.46,-208.4 1.65,-101.49 19.89,-186.09 31.37,-277.96 3.62,-28.99 8.49,-38.83 12.98,-63.77 4.14,-22.96 2.34,-49.35 8.02,-71.26l60.12 -249.71c9.69,-33.11 32.22,-85.01 35.15,-118.05 -44.98,-9.78 -275.34,-4.02 -353.17,-4.42 -36,-0.17 -91.97,4.43 -122.66,2.36z"/>
   <path class="fil5" d="M15538.96 5210.52l7.89 0c20.54,-10.62 850.27,-0.45 1023.94,-2.89 35.26,-0.5 41.26,-7.16 40.56,31.2 7.2,-30.5 4.49,-112.38 -2.59,-140.32 -77.64,-6.73 -670.74,-1.27 -800.24,-1.23 -63.56,0.02 -232.58,-3.64 -255.7,1.92 -1.17,0.28 -2.86,1 -3.78,1.26l-7.1 8.9c-1.93,7 -1.78,3.07 -2.83,12.88l-0.15 88.28z"/>
   <path class="fil9" d="M15755.2 6889.34l1.1 8.05c17.76,-13.52 -1.43,-5.58 23.09,-8.32 7.99,10.73 85.28,4.51 111.95,4.36 30.17,-0.16 27.95,-4.91 36.9,12.94 14.82,18.88 -11.73,-4.55 -3.07,74.06 3.1,28.13 7.78,53.16 8.73,88.13 2.05,74.52 7.95,89.81 9.93,136.15 1.1,25.39 -2.61,22.19 11.17,34.93 -46.11,9.05 -81.59,1.14 -122.47,7.57l168.47 -2.22c-6.72,-17.83 -15.1,-135.19 -15.08,-161.81 0.06,-134.87 -22.08,-171.81 30.81,-173.01 112.11,-2.55 86.68,-15.32 84.4,178.08 -0.37,31.01 -3.89,53.4 -3.91,87.18 -0.04,61.36 1.84,41.95 -19.09,68.45 28.77,1.58 266.61,10.85 275.95,-5.24 -22.77,17.14 -41.19,6.95 -69.91,5.96 -27.96,-0.96 -52.82,-0.46 -81.35,-2.41 0.55,-1.22 1.85,-4.13 2.16,-3.36l8.63 -29.19c1.62,-44.32 6.1,-156.22 15.89,-194.19l3.93 -68.47c0.4,-29.87 -3.19,-17.87 -9.97,-42.04l172.3 -1.43c-3.08,14.44 -9.99,27.24 -7.38,40.08 6.75,-11.98 4.1,-43.55 6.22,-56.85 -25.69,8.15 -269.53,3.58 -319.14,3.52 -106.12,-0.1 -214.5,-2.69 -320.26,-0.93z"/>
   <path class="fil3" d="M16478.56 6303.46c-19.01,44.88 -31.92,273.53 -37.84,294.94 -16.26,58.81 -9.57,84.49 -15.87,110 -16.72,67.71 -2.73,99.66 -30.26,178.36 -2.12,13.3 0.53,44.88 -6.22,56.85 0.2,21.54 -33.35,293.8 -34.31,295.05 -9.34,16.09 -247.18,6.81 -275.95,5.24 20.93,-26.51 19.05,-7.09 19.09,-68.45 0.02,-33.78 3.55,-56.17 3.91,-87.18 2.27,-193.4 27.7,-180.63 -84.4,-178.08 -52.89,1.2 -30.75,38.15 -30.81,173.01 -0.02,26.62 8.36,143.98 15.08,161.81l-168.47 2.22 -38.66 -3.01c0.09,-59.85 -42.67,-325.51 -37.56,-346.81l-1.1 -8.05c-4.94,-18.14 -2.34,-45.28 -7.52,-57.8 -4.78,-11.54 -10.05,1.35 -10.82,-49.2 -1.53,-100.83 -4.28,-49.39 -14.51,-105.47 -6.56,-35.98 -3.71,-72.73 -11.91,-109.41l-26.99 -215.88c-2.52,-17.06 -6.94,-28.9 -10.1,-52.37 -6.64,-49.17 2.08,-43.55 -13.95,-106.57 -3.41,-13.43 -5.66,-35.19 -6.78,-51.13 -1.45,-20.67 -9.51,-94.4 -14.46,-104.88 3.87,79.06 28.62,209.92 35.38,304.06l20.43 148.87c4.76,20.61 6.47,57.3 8.63,79.59 5.67,58.56 10.04,46.78 13.2,72.76 3.14,25.71 2.86,57.08 5.51,78.28 8.1,64.66 15.37,81.18 16.6,154.29 0.35,20.78 -2.05,40.53 3.6,58.64l6.59 18.18c4.92,18.63 3.32,50.1 4.7,78.77 1.65,34.26 12.97,27.04 14.32,72.56 0.58,19.48 2.2,61.97 6.82,78.96 28.6,105.19 -42.8,71.4 301.52,74.69 43.4,0.41 262.83,6.72 285.63,-3.25 6.49,-6.05 19.21,-124.63 21.9,-148.69l11.04 -85.58c7.69,-37.83 4.83,-81.74 9.69,-123.42l14.72 -119.31c8.61,-41.17 8.82,-71.69 15.24,-114.89 3.3,-22.25 11.27,-27.53 12.89,-53.62 1.38,-22.25 -0.04,-45.89 1.81,-68.29 2.02,-24.35 7.21,-25.52 11.14,-51.11 3.06,-19.94 3.45,-45.07 5.35,-62.13 5.35,-48.35 11.12,-69.57 13.69,-122.56z"/>
   <path class="fil4" d="M15832.51 7247.22c40.88,-6.43 76.36,1.48 122.47,-7.57 -13.78,-12.74 -10.07,-9.54 -11.17,-34.93 -1.98,-46.33 -7.88,-61.63 -9.93,-136.15 -0.95,-34.98 -5.62,-60 -8.73,-88.13 -8.66,-78.61 17.89,-55.17 3.07,-74.06 -8.94,-17.85 -6.72,-13.1 -36.9,-12.94 -26.67,0.14 -103.95,6.36 -111.95,-4.36 -24.53,2.74 -5.34,-5.2 -23.09,8.32 -5.11,21.3 37.65,286.96 37.56,346.81l38.66 3.01z"/>
   <path class="fil4" d="M16354.06 7238.65c0.96,-1.25 34.52,-273.51 34.31,-295.05 -2.61,-12.84 4.29,-25.65 7.38,-40.08l-172.3 1.43c6.78,24.17 10.37,12.17 9.97,42.04l-3.93 68.47c-9.79,37.97 -14.27,149.87 -15.89,194.19l-8.63 29.19c-0.31,-0.77 -1.61,2.14 -2.16,3.36 28.53,1.95 53.39,1.44 81.35,2.41 28.72,0.98 47.14,11.18 69.91,-5.96z"/>
   <g>
    <path class="fil4" d="M14621.76 5791.55c-2.55,-14.95 2.4,-49.97 -16.95,-43.72 -16.39,5.29 -10.4,25.06 -37.67,-2.17 -2.81,20.12 -2.81,37.46 -4.86,49.78 2.58,31.76 -25.27,7.94 -25.28,49.72 14.81,1.57 7.74,-0.55 11.27,-1.78l14.37 -6.62c-1.03,31.74 -19.5,32.93 -21.45,43.03 0,57.43 0.03,114.86 0,172.29 -0.06,90.23 2.55,38.82 8.02,76.89 5.95,41.31 -4.8,803.39 0.26,952.4 4.08,120.07 -12.62,49.62 -9.06,158.58 1.29,0.78 6.34,3.55 7.26,4.4l8.93 10.1c87.62,-5.04 247.33,5.51 308.71,0.75 51.52,-3.99 28.76,-33.04 45.9,-58.45 -18.68,-127.52 5.77,-1154.37 -5.6,-1399.21 -20.61,-12.93 -15.96,4.53 -30.03,-12.97 13.82,-16.48 1.43,-0.97 12.93,-7.24 25.65,-13.99 -18.02,13.78 6.11,-3.26 10.77,-7.59 1.55,7.11 7.57,-7.63 -10.83,-20.15 -17.41,-13.86 -41.9,-10.52 -22.64,3.08 -27.92,4.9 -54.3,4.9 -21.46,-4.16 29.27,-22.79 -100.1,-18.39 -39.64,1.35 -20.32,12.93 -49.19,15.6 -5.13,0.47 -16.99,-0.17 -22.78,-0.17l-0.9 -113.75c-5.94,-30.35 7.62,20.61 -2.38,-7.83 -0.42,-1.2 -1.39,-2.65 -1.78,-3.6 -0.39,-0.93 -1.13,-2.45 -1.96,-3.49l-5.15 162.35z"/>
    <path class="fil3" d="M14354.51 5792.17l9.83 1.49c2.07,30.3 1.01,29.72 26.54,39.43 -5.84,14.58 -9.53,-5.4 -7.98,24.38 0.81,15.57 1.31,29.2 1.29,44.99l-0.02 1178.82c0,23.31 -2.84,70.09 0.25,90.51 3.78,24.99 7.05,4.17 8.37,36.35 0.81,19.69 -1.3,20.81 3.87,39.59l-88.27 2.19 16.85 5.71c2.67,0.46 10.65,0.68 13.64,0.73 9.74,0.16 21.86,-0.37 31.87,-0.55l185.87 -1.34 -8.93 -10.1c-0.92,-0.85 -5.97,-3.62 -7.26,-4.4 -3.57,-108.96 13.14,-38.51 9.06,-158.58 -5.05,-149 5.7,-911.09 -0.26,-952.4 -5.47,-38.07 -8.08,13.34 -8.02,-76.89 0.03,-57.44 0,-114.87 0,-172.29 1.96,-10.1 20.42,-11.29 21.45,-43.03l-14.37 6.62c-3.53,1.23 3.53,3.35 -11.27,1.78 0.01,-41.78 27.86,-17.96 25.28,-49.72 -22.41,1.75 -48.61,3.34 -64.59,-3.25 -46.78,33.06 -6.5,2.69 -89.04,3.2 -5.99,10.95 -9.83,18.57 -22.35,23.07 -13.31,-16.64 -8.11,-10.04 -3.01,-33.88 -21.41,-19.1 -11.77,-19.57 -26.15,-26.31l-4.92 12.37c-0.26,1.5 -0.4,2.66 -0.52,4.18 -0.26,3 2.46,14.61 2.8,17.36z"/>
    <path class="fil4" d="M14308.39 7249.92l88.27 -2.19c-5.17,-18.78 -3.06,-19.9 -3.87,-39.59 -1.32,-32.18 -4.59,-11.36 -8.37,-36.35 -3.08,-20.42 -0.25,-67.2 -0.25,-90.51l0.02 -1178.82c0.02,-15.79 -0.48,-29.42 -1.29,-44.99 -1.55,-29.78 2.14,-9.81 7.98,-24.38 -25.52,-9.7 -24.47,-9.13 -26.54,-39.43l-9.83 -1.49 -19.4 0.65 -0.23 -40.4c-19.35,0.08 -11,-0.33 -31.24,10.62 -0.69,0.37 -2.63,2.62 -3.12,1.7 -0.5,-0.92 -2.16,1.06 -3.17,1.7 1.05,0.76 2.73,1.14 3.57,1.49l18.87 8.91c5.38,5.88 4.59,9.71 4.52,20.25 -25.29,0.88 -30.76,-7.59 -35.61,14.53l-0.28 1056.56c0,117.24 -6.34,252.95 0.84,367.89 8.16,5.54 13.37,8.83 19.12,13.86z"/>
    <path class="fil10" d="M14911.23 7196.76c-17.14,25.41 5.61,54.47 -45.9,58.45 -61.37,4.76 -221.08,-5.79 -308.71,-0.75l-185.87 1.34c-10.01,0.18 -22.13,0.72 -31.87,0.55 -2.99,-0.05 -10.96,-0.27 -13.64,-0.73l-16.85 -5.71c-5.75,-5.03 -10.96,-8.32 -19.12,-13.86 -7.18,-114.94 -0.84,-250.64 -0.84,-367.89l0.28 -1056.56c4.86,-22.12 10.33,-13.65 35.61,-14.53 0.07,-10.53 0.86,-14.36 -4.52,-20.25l-18.87 -8.91c-0.84,-0.35 -2.52,-0.73 -3.57,-1.49 1,-0.65 2.66,-2.62 3.17,-1.7 0.49,0.92 2.44,-1.33 3.12,-1.7 20.24,-10.95 11.89,-10.54 31.24,-10.62l0.23 40.4 19.4 -0.65c-0.34,-2.75 -3.05,-14.35 -2.8,-17.36 0.12,-1.52 0.27,-2.68 0.52,-4.18l4.92 -12.37c14.37,6.74 4.73,7.21 26.15,26.31 -5.1,23.84 -10.3,17.24 3.01,33.88 12.52,-4.51 16.35,-12.12 22.35,-23.07 82.54,-0.5 42.25,29.87 89.04,-3.2 15.98,6.59 42.18,5 64.59,3.25 2.05,-12.33 2.05,-29.66 4.86,-49.78 17.16,-159.93 -25.44,-111.83 -26.06,-173.93 -0.24,-23.18 5.26,-40.99 -3.79,-58.01 -10.27,-10.19 -64.74,-0.49 -76.29,-2.85 -24.32,-4.96 -12.48,3.38 -19.02,-15.99 -1.6,-25.7 -0.19,-55.82 -0.18,-82.06l0.54 -63.14c3.82,-20.17 0.32,-6.78 5.23,-11.65l26.79 -11.99 0.74 -54.51c30.89,-18.45 33.02,9.54 32.47,-58.17l-0.58 -67.87c-2.92,-12.76 0.03,-6.73 -7.17,-14.07l-2.22 113.66c-23.76,15.88 -32.84,-9.39 -31.76,45.57 0.79,40.5 -2.97,25.29 -31.59,36.03 -19.23,42.56 -7.63,149.11 -4.91,194.94l-70.06 47.22 -47.74 70.41c-16.44,27.77 -18.92,55.77 -27.99,90.72 -18.17,69.92 -9.16,494.41 -9.16,589.61l-0.02 834.23c-0.3,67.55 -7.45,55.99 14.77,105.82 37.16,7.65 257.42,3.83 312.83,3.8 60.59,-0.04 272.04,11.04 306.49,-11.18l2.76 -55.5z"/>
    <path class="fil3" d="M14505.31 5112.41l-159.34 -1.25c0.64,-10.71 155.81,-6.67 178.93,-6.67l158.81 -0.17c1.23,0.11 12.68,5.79 14.53,5.45l3.5 -5.24c-15.76,11.08 -23.46,-2.67 -30.53,21.59 -3.12,10.74 -3.43,119.64 4.11,142.81 16.87,6.13 10.76,-2.91 26.42,7.85 2.9,73.09 -1.2,45.2 42.57,72.57 4.7,39.86 -0.75,100.92 2.73,147.64 -24.06,2.65 -99.67,4.83 -119.09,3.21 0.8,-32.88 13.28,-126.87 -0.3,-165.41l-32.78 -5.78c8.72,-27.82 9.49,-4.18 8.19,-56.74l-20.24 -14.18c26.56,-8.17 22.8,-23.03 22.12,-53.79 -0.56,-25.34 1.8,-42.46 -3.32,-67.69 -117.81,-41.68 -37.49,89.5 -72.19,130.9 -26.88,-31.84 15.24,-113.26 -24.13,-155.09zm-5.49 19.02c7.2,7.34 4.25,1.31 7.17,14.07l0.58 67.87c0.55,67.7 -1.58,39.71 -32.47,58.17l-0.74 54.51 -26.79 11.99 31.95 2.69c4.32,-13.02 4.76,-16.87 4.89,-33.51 0.01,-2.63 -0.26,-16.08 -0.17,-16.9l1.55 -8.81c0.32,-1.55 1.01,-3.1 1.33,-4.35 0.33,-1.26 0.73,-3.02 1.52,-4.34l22.83 3.5c-1.35,28.13 -11.55,15.33 -17.27,32.23 8.93,3.57 21.82,4.92 32.18,8.05 -5.23,39.56 -23.46,9.96 -23.05,68.82 0.2,30.53 -0.2,60.42 -0.73,90.88l23.99 11.73c-23.45,12.7 -55.72,12.33 -83.26,9.98 41.25,12.51 61.93,-7.1 103.39,7.63 32.39,11.5 34.97,-18.92 83.09,10.85 2.14,33.03 -4.1,61.91 3.92,74.54l3.12 -7.14c6.33,-27.66 -7.19,-51.26 6.12,-70.29 12.67,-19.05 73.23,-9.21 107.61,-14.55l2.11 -163.31 -32.67 -8.66 -1.21 -58.3c-38.77,-14.63 -38.83,1.31 -38.43,-50.79 0.22,-28.16 -1.58,-60.61 1.68,-88.11 15.98,-9.96 23.99,-6.93 27.84,-17.47 7.22,-19.72 2.59,15.11 -0.36,-10.59 -2.22,-19.25 -25.56,-12.01 -57.67,-11.98 -98.35,0.09 -305.81,-13.3 -370.63,29.3 -28.42,18.67 -32.34,1.61 -36.29,38.88 44.66,-3.28 34.42,-22.46 109.47,-31.94 41.26,-5.22 95.95,-2.07 138.77,-2.21 14.25,3.59 4.86,-0.78 6.65,7.55z"/>
    <path class="fil3" d="M14345.97 5111.16l159.34 1.25c39.36,41.83 -2.76,123.25 24.13,155.09 34.7,-41.4 -45.61,-172.58 72.19,-130.9 5.12,25.24 2.76,42.36 3.32,67.69 0.68,30.76 4.44,45.62 -22.12,53.79l20.24 14.18c1.3,52.56 0.53,28.92 -8.19,56.74l32.78 5.78c13.58,38.53 1.1,132.53 0.3,165.41 19.42,1.62 95.03,-0.55 119.09,-3.21 -3.47,-46.72 1.98,-107.79 -2.73,-147.64 -43.77,-27.37 -39.67,0.52 -42.57,-72.57 -15.67,-10.76 -9.55,-1.72 -26.42,-7.85 -7.54,-23.17 -7.23,-132.07 -4.11,-142.81 7.07,-24.26 14.77,-10.51 30.53,-21.59l-3.5 5.24c-1.84,0.34 -13.3,-5.34 -14.53,-5.45l-158.81 0.17c-23.12,0 -178.3,-4.04 -178.93,6.67z"/>
    <path class="fil3" d="M14567.14 5745.66c27.27,27.23 21.28,7.46 37.67,2.17 19.34,-6.25 14.4,28.77 16.95,43.72 0.65,-1.21 1.29,-4.44 1.49,-3.82l3.56 -148.31c2.5,-45.43 17.99,-16.48 22.63,-53.9 7.67,-61.81 -27.41,-75.36 52.26,-73.72 55.29,1.15 43.51,-2.08 48.87,-12.76 -34.38,5.34 -94.94,-4.5 -107.61,14.55 -13.31,19.03 0.22,42.62 -6.12,70.29l-3.12 7.14c-8.02,-12.63 -1.78,-41.51 -3.92,-74.54 -48.12,-29.77 -50.71,0.65 -83.09,-10.85 -41.46,-14.73 -62.14,4.88 -103.39,-7.63l-1.32 -3.12c6.54,19.37 -5.31,11.03 19.02,15.99 11.55,2.36 66.02,-7.35 76.29,2.85 9.05,17.02 3.56,34.84 3.79,58.01 0.61,62.1 43.22,14.01 26.06,173.93z"/>
    <path class="fil3" d="M14447.58 5338.02c-4.91,4.87 -1.4,-8.52 -5.23,11.65l-0.54 63.14c-0.01,26.24 -1.41,56.36 0.18,82.06l1.32 3.12c27.54,2.35 59.8,2.73 83.26,-9.98l-23.99 -11.73c0.52,-30.46 0.93,-60.35 0.73,-90.88 -0.41,-58.86 17.83,-29.26 23.05,-68.82 -10.36,-3.14 -23.25,-4.49 -32.18,-8.05 5.73,-16.91 15.92,-4.1 17.27,-32.23l-22.83 -3.5c-0.79,1.32 -1.19,3.08 -1.52,4.34 -0.32,1.25 -1.01,2.81 -1.33,4.35l-1.55 8.81c-0.08,0.82 0.18,14.26 0.17,16.9 -0.12,16.64 -0.56,20.49 -4.89,33.51l-31.95 -2.69z"/>
   </g>
   <g>
    <path class="fil4" d="M18019.14 5877.09l1.49 87.73c-58.71,-3.56 -45.92,-23.71 -80.89,-30.89l-78.12 -20.08 -4.51 0.17 1.54 1164.28c-27.58,-2.58 -16.26,-1.77 -43.09,-42.67 -14.1,-21.51 -17.27,-27.27 -30.44,-51.74 -51.73,-96.12 -50.36,-149.17 -64.72,-193.61 -19.54,-60.4 -35.81,-132.78 -38.4,-207.06 -3.95,-112.91 -7,-214.15 -8.8,-325.79 -0.9,-56.83 0.3,-113.52 -0.34,-170.1 -0.56,-49.18 5.1,-33.35 13.71,-69.29 5.33,-22.25 2.97,-56.83 5.43,-82.67l-84.43 -37.68 2.15 -48.39c-22.6,-7.16 -28.9,-15.77 -44.24,-29.4 18.2,39.94 51.74,40.66 30.55,93.66 0.96,1.89 1.73,4.33 2.18,5.97l4.73 94.46 26.03 18.67c2.74,103.71 0.54,209.03 1.06,313.01 0.5,103.89 11.55,191.34 13.06,291.85 1.96,129.25 7.68,408.7 -6.63,535.9 -10.68,94.87 -6.68,56.99 182.66,64.41 90.78,3.56 104.4,8.42 178.41,-12.01 45.79,-35.31 30.77,-85.85 30.86,-160.71l0.01 -963.77c0,-68.35 18.11,-328.49 -5.67,-364.51 -6.44,21.13 -3.43,12.51 -3.66,38.6 -0.1,11.15 0.4,22.99 0.46,34.24 0.14,23.61 -2.05,48.09 -0.4,67.44z"/>
    <path class="fil3" d="M17398.73 5914.35c9.61,341.68 1.38,795.36 0.57,1157.53 -0.05,27.63 0.38,54.29 1.22,81.88 1.63,53.42 13,39.23 13.03,76.19 -52.62,11.7 -69.92,11.03 -122.06,-1.79 35.16,40.47 119.15,14.3 167.67,11.83 62.26,-3.16 125.73,0.16 184.66,5.81 56.77,5.44 129.28,-0.06 188.86,1.85 50.26,1.62 136.22,15.47 164.83,-21.85 -74.01,20.43 -87.63,15.56 -178.41,12.01 -189.34,-7.42 -193.34,30.46 -182.66,-64.41 14.31,-127.19 8.59,-406.65 6.63,-535.9 -1.52,-100.51 -12.56,-187.96 -13.06,-291.85 -0.51,-103.97 1.68,-209.3 -1.06,-313.01l-26.03 -18.67 -4.73 -94.46c-0.45,-1.64 -1.22,-4.09 -2.18,-5.97 -40.87,8.21 -55.27,-10.42 -96.12,-4.78 -53.91,7.45 -10.32,26.21 -52.42,22.07 -50.8,-5.01 6.89,-75.12 -38.04,-94.85 -9.26,27.59 -7.16,-1.67 -10.68,34.82 -1.17,12.17 0.3,30.1 -0.03,43.54z"/>
    <path class="fil6" d="M17260.51 7202.56c-12.42,-96.62 -4.04,-239.31 -4.04,-341.07 0,-113.12 0,-226.24 0,-339.36 0,-219.48 8.78,-457.72 -1.69,-674.86 -0.98,-29.52 -13.92,-105.78 16.91,-117.69 58.14,-22.5 51.77,30.41 50.97,-82.95 -0.39,-53.84 -14.64,-223.36 8.16,-257.17 15.05,-16.41 94.35,-5.59 128.54,-7.4l6.26 -169.84c9.08,-4.73 40.09,-23.58 48.11,-30.94 15.82,-17.61 2.35,-8.12 26.67,-15.13 9.31,-2.67 315.7,0.9 335.38,-12.65 17.4,4.96 -7.04,3.26 -11.65,-22.89 45.28,-0.2 109.85,-9.31 147.53,3.7 0.85,1.79 1.62,4.14 2.01,5.61l5.25 31.23c6.14,131.57 -8.08,418.37 0.72,534.61 1.51,19.87 -0.44,-5.62 1.97,18.29l1.14 12.79c23.78,36.02 5.67,296.16 5.67,364.51l-0.01 963.77c-0.09,74.86 14.93,125.4 -30.86,160.71 -28.62,37.33 -114.58,23.47 -164.83,21.85 -59.58,-1.92 -132.09,3.59 -188.86,-1.85 -58.93,-5.65 -122.4,-8.97 -184.66,-5.81 -48.52,2.47 -132.51,28.64 -167.67,-11.83l-17.62 -4.34c7.48,18.8 -0.37,8.74 11.85,21.42 26,26.98 236.12,2.69 336.55,9.77 46.34,3.27 345.07,8.23 370.25,-3.17 7.49,-3.39 18.12,-13.78 25.78,-21.77 38.27,-40 33.33,-40.56 32.06,-110.68 -7.38,-409.14 0.51,-892.19 1.82,-1303.13 0.2,-63.42 -6.52,-125.19 -6.53,-190.04l-0.29 -373.3c-0.31,-172.4 3,-91.32 -22.65,-150.91 -25.17,-0.92 -50.3,0.16 -75.22,-0.55 -66.03,-1.89 -3.62,-12.5 -73.09,-1.25 -11.42,1.84 -23.15,1.84 -34.72,1.85 -64.51,0.08 -295.02,12.64 -325.99,-6.38 -15.64,4.41 -19.05,21.25 -21.76,16.54 -0.89,-1.54 -3.39,2.9 -5.39,3.82l-15.11 -8.11c-1.25,-0.5 -3.09,-1.44 -4.35,-1.83 -1.14,-0.36 -2.97,-0.95 -4.11,-1.18 -25.68,-5.07 6.16,0.37 -24.12,1.52l-176.28 -4.32c-21.46,57.21 -24.21,-1.97 -22.77,103.27l0.07 407.67c-16.68,485.08 2.76,994.81 -5.6,1479.19 -0.47,26.7 -8.62,75.22 6.74,96.03 10.65,14.42 4.81,5.95 19.49,14.28z"/>
    <path class="fil4" d="M17260.51 7202.56c0.65,1.36 13.33,21.2 13.37,21.26l17.62 4.34c52.14,12.83 69.44,13.49 122.06,1.79 -0.03,-36.96 -11.4,-22.77 -13.03,-76.19 -0.84,-27.59 -1.27,-54.25 -1.22,-81.88 0.81,-362.17 9.04,-815.85 -0.57,-1157.53l-23.24 0.99 -1.87 -34.38c-18.47,5.28 -14.43,4.23 -31.92,10.44 -20.01,18.03 -10.06,30.3 -13.37,65.38 -36.64,-1.05 -13.99,-1.93 -33.86,-22.85 -12.24,-12.88 -7.75,-1.9 -20.03,-9.12l-6.84 -77.55 -12.82 0c10.47,217.14 1.69,455.38 1.69,674.86 0,113.12 0,226.24 0,339.36 0,101.76 -8.38,244.45 4.04,341.07z"/>
    <path class="fil4" d="M17691.98 5935.37c-2.46,25.84 -0.1,60.42 -5.43,82.67 -8.61,35.94 -14.27,20.11 -13.71,69.29 0.64,56.58 -0.56,113.27 0.34,170.1 1.8,111.64 4.85,212.88 8.8,325.79 2.59,74.28 18.86,146.66 38.4,207.06 14.36,44.45 12.99,97.5 64.72,193.61 13.17,24.47 16.34,30.24 30.44,51.74 26.83,40.9 15.51,40.09 43.09,42.67l-1.54 -1164.28c-18.94,-14.76 -32.82,2.82 -83.48,-0.47l-8.79 28.35c-24.96,-4.58 -38.55,-8.49 -72.85,-6.54z"/>
    <path class="fil10" d="M17398.35 5400.75l61.09 15.07c-12.76,37.41 -5.44,-21.29 -9.78,26.2 -0.7,7.67 6.59,161.66 0.19,234.82 -0.2,2.34 -1.38,11.02 -0.6,16.51 3.91,27.82 -7.41,5.4 7.05,14.36 -36.24,5.87 -1.09,-2.26 -17.22,14.47 31.43,-1.13 63.64,-4.28 95.2,-2.06 18.11,1.29 30.99,6.13 42.28,7.4 20.82,2.35 75.04,-15.62 93.44,26.51 5.4,12.34 -4.72,57.41 -3.44,86.45 70.54,5.47 53.39,-39.74 57.41,-93.51 38.47,-9.04 98.37,-6.49 137.83,-0.52l-0.55 85.88c13.72,8.95 22.77,10.06 46.41,10.48 9.12,0.16 17.06,-1.6 25.84,1.48 19.07,6.66 7.45,-5.26 15.93,13.92 -23.52,0.03 -24.88,-3.35 -41.39,5.57l-1.02 46.08 45.82 0.07 1.67 -46.93c37.13,2.78 22.71,13.26 64.64,14.09 -1.65,-19.34 0.54,-43.83 0.4,-67.44 -0.06,-11.25 -0.56,-23.09 -0.46,-34.24 0.23,-26.09 -2.79,-17.47 3.66,-38.6 -23.98,-10.25 -34.2,-3.53 -62.04,-8.81 -35.58,-46.21 9.69,-288 -19.37,-321.84 0,43.44 11.32,310.59 -6.78,328.7 -25.58,25.58 -56.29,-10.38 -121.53,-15.33 -103.91,-7.87 -153.92,27.75 -160.89,-19.94l-0.56 -283.77 -24.99 -27.14 17.45 -41.69c3.65,-13.2 2.88,-31.11 2.86,-46.43 -0.02,-15.65 0.81,-40.46 -0.53,-55.32 -2.47,-27.53 5.31,-16.44 -11.5,-33.02 23.81,-9.51 200.96,-19.43 234.79,-7.82 4.11,18.83 8.31,-5.08 -2.37,23.89 22.11,-15.07 15.24,-10.71 6.18,-36.44l-370.59 7.3c-35.45,38.11 -26.69,64.91 -26.57,121.69 0.18,94.97 3.66,79.61 -77.94,79.92z"/>
    <path class="fil9" d="M17941.32 5406.16c-8.48,-15.83 -32.43,-10.14 -54.06,-9.39l-53.3 -1.26c-47.16,-12.54 -21.36,-130.12 -19.92,-132.77 26.32,-33.58 37.45,-16.09 53.23,-34.46 10.68,-28.98 6.48,-5.06 2.37,-23.89 -33.83,-11.61 -210.98,-1.69 -234.79,7.82 16.8,16.58 9.03,5.49 11.5,33.02 1.34,14.86 0.51,39.67 0.53,55.32 0.02,15.33 0.79,33.24 -2.86,46.43l-17.45 41.69 24.99 27.14 0.56 283.77c6.97,47.68 56.98,12.07 160.89,19.94 65.23,4.95 95.94,40.91 121.53,15.33 18.1,-18.1 6.78,-285.25 6.78,-328.7z"/>
    <path class="fil3" d="M17513.73 5181.27c-8.02,7.37 -39.04,26.21 -48.11,30.94l-6.26 169.84c-34.19,1.8 -113.49,-9.02 -128.54,7.4 -22.8,33.81 -8.54,203.33 -8.16,257.17 0.8,113.36 7.17,60.45 -50.97,82.95 -30.83,11.92 -17.89,88.18 -16.91,117.69l12.82 0 1.47 -92.11c18.87,-14.21 24.28,-7.21 67.37,-5.95 0.54,40.75 -5.26,49.08 -0.09,67.52 8.53,30.49 8.43,38.87 5.37,74.68 17.49,-6.21 13.44,-5.16 31.92,-10.44l1.87 34.38 23.24 -0.99c0.33,-13.44 -1.14,-31.37 0.03,-43.54 3.51,-36.49 1.41,-7.22 10.68,-34.82l0.97 -87.29 145.16 -4.04c2.49,28.8 -3.99,57.25 9.89,75.23 15.34,13.63 21.64,22.23 44.24,29.4l-2.15 48.39 84.43 37.68c34.29,-1.96 47.89,1.96 72.85,6.54l8.79 -28.35c50.67,3.29 64.54,-14.29 83.48,0.47l4.51 -0.17c-11,-16.52 0.76,16.44 -6.48,-16 -0.96,-4.28 -2.62,-15.08 -2.65,-19.42 -0.2,-25.48 1.05,-23.08 8.76,-46.11l0.55 -85.88c-39.46,-5.96 -99.35,-8.51 -137.83,0.52 -4.02,53.77 13.14,98.98 -57.41,93.51 -1.28,-29.05 8.84,-74.12 3.44,-86.45 -18.4,-42.13 -72.62,-24.16 -93.44,-26.51 -11.29,-1.27 -24.17,-6.11 -42.28,-7.4 -31.57,-2.22 -63.77,0.93 -95.2,2.06l-103.3 8.62 2.79 -330.15 59.79 0.1c81.6,-0.31 78.12,15.05 77.94,-79.92 -0.12,-56.78 -8.88,-83.57 26.57,-121.69l370.59 -7.3c9.06,25.74 15.93,21.37 -6.18,36.44 -15.78,18.37 -26.91,0.88 -53.23,34.46 -1.44,2.64 -27.24,120.22 19.92,132.77l53.3 1.26c21.63,-0.76 45.57,-6.44 54.06,9.39 29.07,33.84 -16.21,275.63 19.37,321.84l-4.43 -349.08 -134.22 -1.56 1.21 -104.06c25.26,-24.33 36.18,-18.41 65.38,-33.94 3.98,-34.28 2.08,-42.66 -11.57,-67.39l-363.34 9.29z"/>
    <path class="fil6" d="M17513.73 5181.27l363.34 -9.29c13.65,24.72 15.54,33.1 11.57,67.39 -29.2,15.53 -40.12,9.61 -65.38,33.94l-1.21 104.06 134.22 1.56 4.43 349.08c27.84,5.28 38.06,-1.43 62.04,8.81l-1.14 -12.79c-2.41,-23.91 -0.46,1.58 -1.97,-18.29 -8.8,-116.24 5.42,-403.04 -0.72,-534.61l-5.25 -31.23c-0.39,-1.48 -1.16,-3.82 -2.01,-5.61 -37.68,-13.01 -102.25,-3.9 -147.53,-3.7 4.61,26.15 29.05,27.85 11.65,22.89 -19.67,13.56 -326.06,9.98 -335.38,12.65 -24.32,7.01 -10.85,-2.48 -26.67,15.13z"/>
    <path class="fil10" d="M17439.07 5722.18c16.14,-16.73 -19.02,-8.6 17.22,-14.47 -14.46,-8.97 -3.14,13.45 -7.05,-14.36 -0.78,-5.48 0.4,-14.17 0.6,-16.51 6.39,-73.17 -0.89,-227.15 -0.19,-234.82 4.34,-47.49 -2.97,11.21 9.78,-26.2l-61.09 -15.07 -59.79 -0.1 -2.79 330.15 103.3 -8.62z"/>
    <path class="fil3" d="M17409.44 5835.99c44.93,19.72 -12.76,89.84 38.04,94.85 42.1,4.14 -1.5,-14.62 52.42,-22.07 40.85,-5.64 55.25,12.99 96.12,4.78 21.19,-53 -12.36,-53.72 -30.55,-93.66 -13.87,-17.98 -7.4,-46.43 -9.89,-75.23l-145.16 4.04 -0.97 87.29z"/>
    <path class="fil10" d="M17267.6 5847.27l6.84 77.55c12.28,7.22 7.79,-3.76 20.03,9.12 19.88,20.92 -2.78,21.8 33.86,22.85 3.31,-35.08 -6.64,-47.35 13.37,-65.38 3.06,-35.81 3.17,-44.19 -5.37,-74.68 -5.16,-18.44 0.64,-26.77 0.09,-67.52 -43.08,-1.26 -48.49,-8.26 -67.37,5.95l-1.47 92.11z"/>
    <path class="fil3" d="M17861.61 5913.85l78.12 20.08c34.97,7.18 22.18,27.34 80.89,30.89l-1.49 -87.73c-41.93,-0.83 -27.51,-11.31 -64.64,-14.09l-1.67 46.93 -45.82 -0.07 1.02 -46.08c16.52,-8.92 17.87,-5.54 41.39,-5.57 -8.48,-19.18 3.14,-7.26 -15.93,-13.92 -8.78,-3.07 -16.72,-1.31 -25.84,-1.48 -23.65,-0.42 -32.69,-1.53 -46.41,-10.48 -7.72,23.02 -8.97,20.62 -8.76,46.11 0.03,4.33 1.69,15.13 2.65,19.42 7.23,32.45 -4.53,-0.51 6.48,16z"/>
   </g>
  </g>
  <g id="_2574304722160">
   <path class="fil11" d="M5112.11 13825.27c11.38,1.19 6.63,58.62 6.63,78.6 0,49.47 3.84,242.83 -2.8,263.58 -7.55,2.47 -102.56,8.1 -112.73,-1.07 -0.67,-0.78 -1.7,-2.96 -1.91,-2.42 -3.2,8.33 -4.21,-34.55 -4.21,-35.98 0.29,-64.68 -3.87,-271.75 2.37,-304.73 10.94,-4.29 100.84,-10.82 112.65,2.02zm238.4 100.81c6.07,18.17 -1.99,223.08 -8.4,235.58 -7.38,8.95 -96.6,4.52 -107.27,4.06 -10.18,-53.14 8.89,-170.68 7.19,-230.96 -0.17,-31.43 -1.7,-84 6.37,-109.7l110.07 -2.64c3.68,18.89 2,35.77 0.92,54.62 -1.58,27.39 -1.17,37.51 -8.88,49.05zm-483.41 -99.5l16.1 337.28c-24.1,1.89 -92.84,4.87 -113.61,-2.96 -0.73,-24.09 -16.35,-325.85 -12.22,-332.27 6.69,-10.39 101.32,-6.05 109.73,-2.05zm939.12 335.3c-8.07,11.22 0.72,5.24 -11.41,8.63l-106.22 -0.44c-4.16,-16.14 -4.85,-24.71 6.87,-39.88 -0.76,-15.56 11.26,-71.16 13.31,-91.25 2.63,-25.86 12.49,-74.35 9.75,-94.66 4.98,-31.88 10.51,-100.11 20.64,-122.4l113.74 -0.83c1.11,15.49 2.72,25.27 -6.08,36.99 2.84,23.76 -16.65,117.42 -20.55,150.11 -3.03,25.39 -23.09,140.46 -20.05,153.73zm-230.63 1.94l-112.51 2.61c-2.67,-16.2 22.99,-298.98 31.48,-342.41 18.92,-0.93 37.89,-0.51 56.84,-0.53 18.68,-0.03 48.76,-5.04 53.4,7.92l-29.21 332.41zm-1310 -339.99c131.15,-5.02 109.25,-3.2 116.33,40.4 2.4,14.77 5.19,22.59 6.54,43.42 2.91,44.9 38.3,237.96 36.7,257.29l-112.65 1.13c-7.74,-39.62 -49.9,-320.56 -46.92,-342.24zm1816.68 78.4c1.23,17.16 -44.27,251.75 -49.25,258.95 -6.57,5.87 4.13,0.84 -7.52,3.78l-105.16 -0.13c-1.62,-22.04 31.3,-159.65 37.79,-203.03l25.82 -138.36 114.36 -0.56 -9.81 70.46c-2.83,7.35 -2.52,5.18 -6.23,8.89zm-1450.06 8.14c-2.41,17.37 7.11,105.14 10.11,127.04 3.66,26.65 13.75,101 11,127.47l-109.24 1.27 -31.39 -317.05c-6.63,-8.63 -7.61,-4.23 -6.43,-22.52 12.33,-10.19 26.37,-6.05 52.17,-6 84.26,0.14 69.2,-15.54 73.78,89.79zm-613.7 -86.32l110.38 -0.55c0.12,0.44 65.81,310.11 65.21,328.05 -0.81,24.35 2.83,-14.88 -0.8,5.95 -0.13,0.78 -0.68,2.2 -0.82,2.83 -3.21,14.17 -104.1,5.64 -113.14,0.83 -3.81,-12.5 -2.93,-29.21 -6.1,-42.78 -3.1,-13.3 -6.22,-27.11 -8.78,-41.02 -8.23,-44.83 -47.83,-234.96 -45.95,-253.31zm988.08 -630.53l101.19 -0.68c11.24,3.66 6.85,-7.55 11.24,11.52 0.01,0.07 -0.16,17.76 -0.19,19.37 -0.53,30.51 4.6,284.96 -3.58,294.07 -15.34,10.46 -93.74,8.71 -115.45,2.26 -1.87,-6.89 -6.87,-264.83 -3.21,-308.17 1.99,-23.54 1.27,-13.59 10,-18.38zm-159.57 171.57l0.44 67.62c4.98,4.69 6.69,4.22 8.15,21.56l-0.67 66.04c-20.87,5.53 -96.88,5.79 -117.19,-0.5 -4.23,-19.41 -5.52,-43.55 -0.95,-62.2 -3.62,-2.59 -17.66,-242.29 -13.49,-265.37l115.54 2.95c5.18,19.05 11.34,147.22 8.18,169.9zm525.52 154.47c-24.34,0.68 -89.03,6.44 -105.96,-2.65 -0.6,-0.75 -1.22,-3.05 -1.37,-2.54 -0.14,0.52 -1.05,-2.01 -1.22,-2.67 -1.2,-4.51 -1.4,-2.51 -1.94,-9.68l7.49 -146.8c1.17,-35.4 3.94,-133.58 11.69,-161.26l107.39 -0.48c4.56,29.66 -5.29,197.41 -11.39,241.21 -3.82,27.37 3.3,58.32 -4.68,84.89zm523.94 -0.99l-112.65 0.08c2.77,-32.43 44.21,-312.69 49.34,-321.88 19.64,-9.74 81.93,-3.81 108.08,-3.05 4.15,28.67 -39.01,273.53 -44.77,324.85zm-260.18 -0.18l-110.52 1.57c-4.14,-18.26 23.2,-307.55 29.47,-325.32l110.7 -1.05 -29.64 324.8zm-1326.02 -138.88c4.78,4.06 7.5,-6.32 11.19,33.44 2.25,24.22 15.45,90.79 12.07,107.41 -21.41,5.12 -62.56,2.92 -88.06,3.22 -34.24,0.41 -24.38,-2.5 -29.48,-7.37 0.73,-10.43 -7.27,-64.52 -10.36,-78.32l-32.71 -243.84c18.99,-1.14 38.07,-0.6 57.1,-0.61 11.2,-0.01 46.12,-3.63 53.39,4.29 3.86,6.38 27.57,167.3 26.86,181.78zm1848.45 139.11l-111.5 1.28c-4.36,-21.14 51.54,-278.54 59.3,-324.62l112.69 -1.9 -60.49 325.23zm-1598.51 -320.21l30.32 320.11 -109.39 0.39c-6.07,-13.54 -24.03,-208.32 -21.84,-228.04 -12.77,-15.98 -13.92,-79 -12.44,-97.17l100.27 -3.5c12.7,2.95 6.87,0.77 13.09,8.22zm-664.88 -3.66l110.36 -1.37 63.43 325.28 -94.67 0.92c-23.41,-1.49 -16.74,6.22 -29.9,-64.27l-49.22 -260.56zm2661.66 -304.71l-2997.39 0.43c2.65,31.93 60.95,281.1 69.3,316.21 17.59,73.94 54.13,255.34 70.74,312.55 13.42,46.24 24.88,103.67 36.37,156.68l124.86 543.85c4.22,19.98 12.84,51.55 19.05,76.41 15.42,61.79 14.77,92.54 59.29,130.39 42.23,35.92 102.43,25.76 167.16,25.76l1912.5 0c69.32,0 116.04,10.75 159.99,-29.12 48.82,-44.28 40.91,-66.82 58.38,-135.07 13.61,-53.17 22.53,-99.99 35.08,-154.71l89.67 -389.39c30.7,-113.43 61.58,-285.97 90.75,-386.89 7.39,-25.54 11.72,-51.85 17.9,-78.98 5.83,-25.62 11.07,-48.57 17.11,-75.67 4.12,-18.47 5.74,-18.99 9.33,-40.05 9.55,-56.03 7.59,-34.79 17.82,-75.35 8.76,-34.75 41.13,-173.69 42.09,-197.04z"/>
   <path class="fil11" d="M5734.46 12575.82c73.14,-34.83 120.09,86.86 46.25,116.24 -56.71,22.56 -104.9,-37.58 -79.21,-87.11 10.1,-19.47 13.56,-19.89 32.96,-29.13zm-1393.67 0.99c17.1,-10.17 34.31,-7.78 49.27,-0.08 56.3,28.95 37.83,99.98 -0.14,115.38 -52.04,21.11 -107.33,-32.14 -79.51,-87.21 11.08,-21.93 12.99,-17.74 30.38,-28.08zm2332.34 203.79c1.99,-35.31 4.36,-215.05 -2.6,-239.57 -7.28,-25.65 -35.03,-49.16 -65.22,-54.03 -30.52,-4.92 -2667.71,-1.07 -2974.14,-1.07 -61.46,0 -161.77,-18.89 -181.09,58.5 -6.45,25.85 -3.78,200.41 -1.74,236.35l3224.8 -0.19z"/>
   <path class="fil11" d="M5512.76 12385.62l302.03 0.65c-1.62,-21.02 -346.64,-717.14 -387.18,-796.98 -15.61,-30.73 -81.17,-176.75 -104.05,-193.26 -49.92,-36.03 -89.38,-2.69 -142.18,23.69 -42.7,21.33 -100.24,32.61 -92.87,103.9 2.49,24.05 20.95,48.67 31.04,68.25 43.95,85.27 87.95,178.54 129.77,264.95l194.98 396.31c10.67,22.05 21.78,45.27 33.07,66.96 11.13,21.38 20.06,47.82 35.38,65.54z"/>
   <path class="fil11" d="M4573.76 12385.33c40.01,-87.81 86.42,-173.79 130.04,-264.12l194.73 -396.49c21.6,-45.5 41.94,-85.78 65.46,-131.27 26.93,-52.1 50.47,-100.33 -0.36,-142.57 -13.04,-10.85 -50.18,-27.26 -65.77,-34.34 -23.64,-10.73 -43.18,-23.04 -65.22,-31.59 -31.14,-12.09 -57.59,-0.78 -76.9,15.19 -23.84,19.7 -146.97,282.55 -166.4,324.52l-97.72 200.21c-31.9,65.5 -220.84,431.28 -223.39,461.4l305.54 -0.94z"/>
  </g>
  <g id="_2574304724048">
   <path class="fil12" d="M26181.55 3227.21c-57.18,0 -61.11,-1.48 -60.89,-58.63l0.02 -593.12c0,-182.83 -13.02,-169.64 68.2,-169.65l1017.53 0c34.44,0 37.53,11.45 36.83,45.07 -0.56,27.19 0.02,53.38 0.03,80.65l0.02 655.33c-0.1,26.44 -5.92,40.34 -33.22,40.34l-1028.52 0zm51.43 -1318.58c-133.13,12.41 -222.43,39.76 -295.91,111.12 -90.44,87.82 -67.66,192.68 -67.66,343.38 0,273.37 0,546.74 0,820.09 0,70.89 -7.98,357.97 7.89,403.45 30.39,87.03 136.64,147.07 256.56,153.04 130.72,6.51 277.56,0.46 410.05,0.46 99.57,0 325.75,4.41 409.52,-0.52 -8.26,-124.88 18.57,-231.26 108.29,-309.41 14.55,-12.67 18.43,-20.36 37.53,-31.98l218.84 -136.32c29.1,-17.81 58.99,-35.65 88.74,-54 28.19,-17.38 63.43,-36.38 87.61,-54.38 2.22,-267.99 0.1,-536.95 0.1,-805.07 0,-148.71 19.95,-248.39 -69.88,-331.79 -95.46,-88.63 -181.99,-90.58 -293.87,-108.74l-0.26 -189.95 -897.02 -0.35 -0.54 190.97z"/>
   <path class="fil11" d="M28103.17 4092.27c-64.8,0.67 -144.25,-9.14 -209.53,-13.42 -65.05,-4.27 -143.77,-3.07 -199.55,-25.1 -254.74,-100.56 -221.94,-455.64 27.31,-520.34 66.96,-17.39 133.06,-4.07 202.27,-0.65 71.47,3.53 144.26,9.21 215.2,14.25l-35.71 545.26zm-652.73 -810.21c12.55,-11.96 178.4,-111.56 206.3,-128 70.44,-41.52 132.57,-95.61 244.81,-84.22 96.65,9.82 168.24,68.78 204.76,128.48 51.69,84.49 51.72,165.61 14.12,262.03 -108.99,6.37 -310.42,-42.15 -433.16,-4.86 -58.5,17.77 -73.36,36.23 -102.57,48.51l-134.26 -221.94zm-1216.91 -1564.41l897.02 0.35 0.26 189.95c111.88,18.16 198.41,20.11 293.87,108.74 89.82,83.4 69.88,183.08 69.88,331.79 0,268.12 2.12,537.08 -0.1,805.07 -24.18,18 -59.43,37.01 -87.61,54.38 -29.75,18.35 -59.64,36.19 -88.74,54l-218.84 136.32c-19.1,11.62 -22.98,19.3 -37.53,31.98 -89.72,78.15 -116.55,184.54 -108.29,309.41 -83.77,4.93 -309.96,0.52 -409.52,0.52 -132.49,0 -279.33,6.05 -410.05,-0.46 -119.93,-5.97 -226.18,-66.01 -256.56,-153.04 -15.87,-45.48 -7.89,-332.56 -7.89,-403.45 0,-273.36 0,-546.73 0,-820.09 0,-150.7 -22.78,-255.56 67.66,-343.38 73.48,-71.35 162.77,-98.71 295.91,-111.12l0.54 -190.97zm-128.4 -479.25c18.04,-5.01 343.68,-1.91 391.2,-1.9l592.95 0c235.12,-0.05 200.02,-31.54 200,193.03 0,32.96 -0.08,65.91 0.01,98.85 0.09,32.26 1.5,58.73 -25.92,68.19 -19.59,6.75 -860.28,2.7 -986.66,2.7 -210.95,0 -202.13,17.51 -202.13,-96.53l-0.03 -197.7c-0.2,-35.76 -0.89,-57.89 30.57,-66.65zm1138.46 473.5c59.49,-5.89 98.45,-23.36 126.94,-59.62 33.99,-43.27 32.19,-84.74 32.21,-149.53 0.02,-61.01 0.11,-122.04 0.12,-183.05 0,-66.35 -1.95,-102.51 -38.63,-143.21 -29.52,-32.76 -69.19,-51.85 -132.19,-51.67 -360.88,1.03 -738.6,3.08 -1098.07,0.09 -59.68,-0.49 -101.56,14.62 -133.53,50.17 -36.62,40.72 -38.95,77.57 -39.38,144.61 -0.41,60.99 -0.12,122.06 -0.12,183.05 0,67.66 -3.47,104.89 33.55,150.5 26,32.03 64.49,55.9 125.83,58l0 125.77c-120.57,19.5 -236.98,84.2 -293.64,152.79 -92.77,112.29 -70.75,206 -70.76,376.97l0 1116.64c0,85.28 1.15,122.55 41.55,182.8 50.93,75.96 164.96,139.71 292.56,154.18 80.3,9.11 787.91,4.2 886.78,4.2 30.9,51.37 26.2,63.62 79.21,116.77 74.49,74.68 176.61,113.67 289.59,102.45 83.89,-8.33 103.24,-32.79 146.31,-47.18l41.65 49.19c42.54,45.84 102.61,81.62 168.57,98.94 58.36,15.34 255.37,22.61 327.9,26.59 107.99,5.91 223.56,17.28 333.38,24.09 126.1,7.82 199.74,4.86 289.21,-56.27 166.22,-113.56 204.9,-338.4 96.74,-496.6 -132.08,-193.19 -327.22,-156.13 -538.75,-175.32 1.92,-16.5 11.08,-39.56 14.81,-59.52 12.91,-68.96 5.74,-135.02 -19.89,-198.98 -61.58,-153.7 -220.22,-247.16 -389.06,-220.22 -109.28,17.44 -148.89,68.77 -207.04,94.62 -5.76,-37.89 -1.37,-748.66 -1.37,-807.89 0,-63.63 5.53,-132.03 -13.54,-186.84 -33,-94.84 -112.3,-160.93 -199.42,-203.23 -69.92,-33.93 -88.59,-30.72 -152.01,-49.3l0.52 -123.98z"/>
   <path class="fil11" d="M26378.22 2721.92l1 -17.32 191.06 0.11 0.03 -190.63 223.16 -0.9 0.3 191.52 191.67 0.26 -0.04 223.12 -190.76 0.04 -1.19 191.94 -222.5 0.05 -0.85 -191.94 -191.84 -0.06 -0.05 -206.2zm-196.67 505.29l1028.52 0c27.29,0 33.11,-13.89 33.22,-40.34l-0.02 -655.33c-0.01,-27.27 -0.59,-53.46 -0.03,-80.65 0.7,-33.62 -2.4,-45.07 -36.83,-45.07l-1017.53 0c-81.22,0.01 -68.2,-13.18 -68.2,169.65l-0.02 593.12c-0.22,57.15 3.71,58.63 60.89,58.63z"/>
   <path class="fil13" d="M26105.13 1238.41c-31.46,8.76 -30.78,30.89 -30.57,66.65l0.03 197.7c0,114.04 -8.82,96.53 202.13,96.53 126.38,0 967.07,4.05 986.66,-2.7 27.42,-9.46 26.01,-35.92 25.92,-68.19 -0.09,-32.94 -0.01,-65.89 -0.01,-98.85 0.02,-224.57 35.12,-193.08 -200,-193.03l-592.95 0c-47.52,-0.01 -373.16,-3.11 -391.2,1.9z"/>
   <path class="fil14" d="M28138.88 3547.01c-70.94,-5.04 -143.73,-10.72 -215.2,-14.25 -69.21,-3.42 -135.32,-16.74 -202.27,0.65 -249.25,64.7 -282.05,419.78 -27.31,520.34 55.78,22.03 134.5,20.83 199.55,25.1 65.28,4.28 144.72,14.09 209.53,13.42l35.71 -545.26z"/>
   <path class="fil14" d="M27450.44 3282.07l134.26 221.94c29.21,-12.28 44.07,-30.75 102.57,-48.51 122.74,-37.29 324.17,11.23 433.16,4.86 37.6,-96.41 37.57,-177.54 -14.12,-262.03 -36.53,-59.7 -108.11,-118.67 -204.76,-128.48 -112.24,-11.39 -174.37,42.7 -244.81,84.22 -27.9,16.44 -193.75,116.04 -206.3,128z"/>
   <path class="fil13" d="M26629.37 2571.9l105.34 -0.13 1.8 191.91 189.82 0.02 -0.19 105.65 -191.06 0.55 -1.69 191.23 -104.21 -0.58 -0.94 -191.16 -191.11 -0.32 1.75 -105.41 190.2 -0.1 0.3 -191.67zm-251.09 356.22l191.84 0.06 0.85 191.94 222.5 -0.05 1.19 -191.94 190.76 -0.04 0.04 -223.12 -191.67 -0.26 -0.3 -191.52 -223.16 0.9 -0.03 190.63 -191.06 -0.11 -1 17.32 0.05 206.2z"/>
   <polygon class="fil14" points="26629.07,2763.57 26438.87,2763.67 26437.11,2869.08 26628.23,2869.4 26629.17,3060.55 26733.38,3061.14 26735.07,2869.91 26926.14,2869.36 26926.33,2763.7 26736.51,2763.68 26734.7,2571.77 26629.37,2571.9 "/>
  </g>
  <path class="fil11" d="M28325.32 12443.75c-14.89,511.15 -488.04,970.64 -1042.41,971.17 -557.75,0.54 -1033.87,-459.69 -1045.36,-973.57l64.48 4.84c17.28,56.89 21.27,133.76 40.16,197.08 119.57,400.59 490.37,699.73 940.69,698.59 292.16,-0.74 524.25,-128.94 672.65,-267.53 286.89,-267.89 274.48,-555.21 308.1,-631.55l61.69 0.97zm-1180.25 -964.73c536.85,-90.17 955.57,315.22 1020.88,750.31 80.36,535.34 -313.69,953.17 -756.34,1018.04 -536.36,78.61 -945.32,-316.45 -1013.3,-752.17 -83.52,-535.28 303.93,-941.46 748.76,-1016.18zm1368.98 931.18l0 -58.82c-78.01,-66.54 -151.89,-7.13 -254.93,-37.73 -24.68,-432.87 -307.87,-772.61 -696.03,-890.98 -55.39,-16.9 -131.77,-19.25 -177.89,-42.79l-205.09 0c-64.87,32.71 -162.38,14.63 -342.48,106.9 -308.72,158.14 -504.82,447.98 -536.64,832.05 -56.15,3.27 -212.97,-13.86 -238.91,21.03 -22.16,29.85 -12.06,77.75 10.33,92.56 26.96,17.85 84.1,6.19 120.32,15.33 35.86,553.1 482.17,975.13 1039.45,1009.83 7.17,101.02 -3.58,76.23 -20.26,117.11 -8.85,21.67 -6.47,16.29 -7.93,42.22 -50.21,9.01 -78.17,-0.01 -80.81,57.57 -2.39,52 25.82,56.54 44.68,62.83 3.33,1.12 14.36,3.85 17.38,4.73l19.16 518.95 -278.92 2.81c-12.29,25.82 -15.7,40.67 -15.81,69.44 -57.57,1.03 -117.65,1.99 -108.69,69.91 7.6,57.64 68.2,50.39 126.85,49.95l710.02 0.1c58.12,0.5 116.59,6.17 123.73,-50.79 8.38,-66.87 -50.55,-68.02 -107.77,-68.92 -1.85,-81.61 -37.88,-72.48 -109.72,-71.95 -61.8,0.45 -125.3,4 -186.56,-3.31l0.03 -615.62c1.41,-133.5 -48.68,-74.53 -25.99,-155.31 23.45,-83.47 142.15,-1.82 414.29,-132.72 343.45,-165.18 586.3,-483.21 624.78,-909.36 91.05,-12.12 85.95,15.99 143.4,-35.03z"/>
  <g id="_2574304728720">
   <path class="fil11" d="M29007.87 8717.47c-30.44,-38.34 -75.01,-306.79 -78.97,-346.8 -99.48,-755.87 300.05,-454.13 326.12,-584.5 -31.63,-19.72 -120.77,-9 -163.47,-9.53l89.46 -16.02c55.27,-1.78 53.32,9.17 76.22,-21.64 -72.59,-42.33 -244.59,12.97 -336.96,4.39l-49.91 -16.19c12.62,-34.27 37.82,-29.08 79.69,-30.23 37.55,-1.02 74.45,-2.51 112,-4.16 58.32,-2.56 163.53,7.95 192.92,-24.6 -73.35,-48.63 -263.77,21.1 -358.42,2.56 -37.15,-7.27 -22.94,6.67 -37.78,-26.16 51.73,-63.8 344.48,16.64 391.77,-47.19 -61.51,-34.1 -237.58,-3.86 -319.1,0.22 -63.35,3.18 -72.52,15.6 -76.51,-35.61 69.58,-32.56 360.47,14.19 393.34,-35.39 -50.85,-33.78 -231.22,-7.13 -305.97,-3.26 -69.31,3.6 -74.97,13.95 -92.72,-20.34 33.66,-66.21 336.1,8.29 397.03,-47.19 -64.52,-47.27 -258.55,7.31 -350.15,-4.11l-49.68 -19.49c15.13,-29.29 48.44,-26.15 84.77,-26.58 71.99,-0.84 269.21,19.51 311.8,-20.61 -26.61,-15.94 -64.72,-13.49 -98.28,-12.36 -35.6,1.19 -70.86,2.05 -106.49,2.72 -46.75,0.86 -107.6,13.57 -154.3,3.1 -40.11,-8.97 -24.11,6.69 -40.6,-28.86 55.07,-48.28 261.46,-9.41 348.84,-20.03l31.48 -23.51c-97.62,-24.91 -264.43,19.68 -350.59,-0.93 -48.47,-11.61 -19.77,10.74 -33.31,-26.31 38.38,-62.78 322.28,14.34 400.95,-35.4 -2.64,-1.84 -7.04,-7.05 -8.67,-4.33l-28.84 -9.25c-12.79,-2.02 -44.16,-1.23 -58.36,-0.94 -70.41,1.4 -207.66,16.53 -271.89,3.25 -51.34,-10.6 -18.43,12.95 -35.78,-24.11 24.01,-40.45 140.77,-20.83 189.29,-21.12 60,-0.35 167.74,14.49 214.01,-14.27l-27.03 -12.15c-109.33,-25.61 -230.65,19.16 -340.65,-1.03 -53.85,-9.91 -18.05,13 -37.83,-22.2 15.57,-26.94 49.65,-23.17 84.44,-22.95 67.27,0.44 272.83,15.91 320.92,-12.45 -71.35,-57.18 -320.68,19.18 -406.77,-23.61 1.08,-64.2 64.3,-36.57 181.09,-36.55 65.61,0.01 175.34,16.62 225.35,-10.64 -43.36,-57.38 -284.2,1.97 -367.91,-18.02 -40.22,-9.59 -24.37,6.22 -40.54,-29.17l30.41 -12.12c3.65,-0.79 6.83,-1.62 10.96,-2.27l165.34 0.36c61.1,0.4 154.05,14.29 201.9,-9.57 -28.41,-38.38 -149.79,-19.03 -201.9,-19.39 -49.96,-0.34 -116.44,9.9 -166.22,-1.01 -38.71,-8.47 -24.91,4.41 -42.45,-26.78 3.22,-2.2 8.2,-8.41 10.41,-5.27l32.65 -11.16c95.23,-16.84 301.25,33.35 370.4,-7.18 -28.1,-36.84 -246.71,-21.96 -311.32,-21.77 -41.88,0.11 -81.62,6.31 -102.32,-25.42 42.24,-32.51 152.34,-17.8 208.85,-17.1 48.55,0.6 168.47,13.15 204.86,-6.49 -25.45,-39.54 -155.06,-21.68 -204.86,-22.67 -49.21,-0.99 -189.64,19.53 -211.17,-24.52 31.35,-70.44 353.82,29.36 418.48,-33.34 -66.41,-32.12 -239.73,-15.93 -325.97,-16.71 -45.31,-0.4 -74.19,9.53 -93.4,-20.74 12.43,-31.44 44.6,-26.22 81.28,-24.83 70.28,2.65 245.43,22.59 306.76,4.28 32.77,-9.77 10.44,1.17 28.34,-14.86 -74.13,-28.66 -381.49,11.12 -415.68,-35.4 11.76,-32.57 -5.62,-13.42 24.78,-24.54 69.76,-25.5 264.48,20.4 352.25,7.6 61.86,-9.03 26.41,0.18 45.58,-21.02 -107.89,-31.73 -273.44,5.58 -377.4,-18.3 -36.99,-8.51 -25.26,2.6 -42.72,-26.32l315.35 -8.06c11.4,0.6 50.42,3.05 59.33,2.07 31.98,-3.55 -8.46,4.77 20.61,-3.87 32.07,-9.55 6.81,4.01 25.04,-13.74 -82.46,-42.85 -351.46,9.77 -418.18,-35.39 8.4,-57.47 86.68,-31.42 186.75,-26.58 50.18,2.43 193.88,25.99 233.65,-8.81 -67.03,-34.48 -223.47,-20.01 -308.59,-22.65 -72.84,-2.25 -77.86,8.25 -95.97,-24.55 29.9,-43.92 139.01,-17.61 192.27,-15.34 35.08,1.49 69.88,2.7 104.94,4.96 11.47,0.74 50.67,3.85 59.52,3.1 27.45,-2.28 -5.09,3.42 21.84,-3.28 29.02,-7.24 12.47,-0.49 28.66,-13.03 -93.36,-49.42 -267.58,9.73 -359.91,-36.96 65.32,-1.14 328.47,10.25 363.95,-10.24 -9.77,-31.67 19.48,-15.29 -36.84,-31.18 -11.24,-3.18 -57.26,-6.69 -72.65,-8.48 -113.19,-13.19 -321.48,-68.61 -415.81,-28.88 -154.41,65.02 -117.61,317 -110.31,504.73 23.54,604.85 55.64,1228.21 -2.77,1833.21 -21.33,220.92 -166.9,680.12 146.89,716.79 490.01,57.25 227.58,-402.85 240.4,-603.71z"/>
   <path class="fil12" d="M27188.43 9174.59c-40.9,-89.01 -419.63,-1263.82 -419.78,-1302.66 44.14,37.99 88.93,73.97 134.24,112.56 67.48,57.45 87.81,55.07 103.18,147.75 20.07,121.05 40.87,228.62 62.13,348.62l120.23 693.72zm-385.18 -1554.68l-36.16 8.95c-31.19,-28.77 -51.94,-132.77 -54.31,-173.87l37.16 -15.65 53.68 153.11c5.24,41.3 2.07,2.14 -0.37,27.45zm-287.04 -24.56l33.5 -30.79c52.45,27.22 77.09,64.24 136.05,85.33 72.84,26.06 88.75,6.59 157.21,1.95l965.28 1078.97c-78.7,-35.29 -248.16,-205.11 -326.59,-275.09 -182.14,-162.47 -848.36,-738.12 -965.45,-860.37zm-750.28 -346.94c-231.02,-272.46 69.54,-475.08 262.53,-244.79 203.75,243.1 -45.37,500.91 -262.53,244.79zm1033.63 -707.09c129.25,344.73 -220.28,416.41 -332.96,130.31 -113.93,-289.35 216.45,-440.98 332.96,-130.31zm62.69 -81.89l-69.98 -110.86c-85.28,-59.43 -84.15,-100.78 -192.02,-95.79 -163.72,7.57 -287.06,130.47 -237.38,336.96 26.39,109.7 2.25,39.76 -23.78,104.25 -23.35,57.87 32.02,51.82 67.93,54.21 60.04,114.85 169.83,479.98 235.86,649.24 18,46.19 35.17,67.37 49.03,112.1 12.12,39.2 20.83,73.39 34.13,108.68 -109.9,9.18 -225.17,-178.07 -306.15,-274.04 -90.78,-107.56 -204.41,-228.96 -287.28,-340.88 13.23,-33.44 38.46,-43.09 14.05,-75.62 -27.9,-37.18 -49.99,-7.99 -89.46,-5.54 -72.49,-81 -165.13,-150.65 -273.45,-130.8 -66.17,12.12 -39.76,23.88 -94.79,-19.55 -60.19,-47.49 -119.74,-95.75 -177.24,-107.39 -47,-9.51 -173.26,-12.2 -206.9,55.03 16.59,99.55 179.23,-101 312.32,171.91 -100.12,166.72 -8.89,321.91 124.57,453.71 65.72,64.89 118.14,95.15 193.43,109.7 107.21,20.71 133.44,-8.7 240.71,-61.03 46.59,16.92 375.61,278.1 433.77,329.13 119.87,105.13 101.01,88.48 148.94,235.24l402.24 1238.7c12.86,39.13 22.33,114.2 64.43,129.31 35.55,-30.27 22.25,-22.91 0.37,-141.25l-137.71 -766.96c-8.73,-48.01 -58.62,-267.19 -46.02,-314.43l787.14 700.1c35.19,31.12 79.37,91.37 127.81,81.51 2.87,-27.8 8.07,-0.05 -4.78,-30.94 -17.22,-41.39 -892.09,-1004.2 -973.18,-1094.72 -212.99,-237.74 -158.18,-201.83 -211.34,-509.82 -12.65,-73.36 -41.05,-193.23 -39.65,-258.47 111.89,-91.22 233.36,-136.04 181.88,-377.76 -11.41,-53.63 -42.46,-106.44 -47.47,-153.91z"/>
  </g>
  <g id="_2574304729712">
   <path class="fil12" d="M3707.83 4123.34c10.25,-31.4 16.46,-34.53 33.36,-50.08 26.69,15.18 31.11,8.6 45.28,31.87l-78.64 18.21zm-114 -51.04l36.11 44.26c-28.93,4.41 -60.3,-6.01 -82.92,-13.91 16.8,-16.51 17.1,-18.98 46.81,-30.35zm275.15 -48.99c10.83,-4.96 -9.46,-5.49 27.59,-7.47 15.65,-0.84 15.12,1.37 28.57,4.18 -7.26,24.29 -33.89,37.77 -65.84,48.03l9.68 -44.74zm-393.72 45.13c-31.04,-14.48 -46.74,-20.11 -65.53,-55.37l58.46 -2.94 7.07 58.31zm120.52 -69.25c40.56,-14.75 32.74,-24.43 71.72,-45.82 5.26,3.37 13.74,7.72 22.82,14.42l54.9 38.13 -20.35 26.41c-36.67,-40.26 -25.56,-15.76 -57.37,-47.86 -26.95,14.61 -1.97,1.37 -21.41,17.27 -56.73,46.4 -20.96,7.3 -45.78,54.31l-4.53 -56.87zm226.98 -85.48c10.9,-1.39 16.63,0.88 27.37,1.52 3.39,40.46 -6.69,43.76 6.47,76.97l-70.46 -26.54 9.08 -42.2c10.76,-6.37 0.44,-6.28 27.55,-9.74zm-273.9 48.5c-49.36,19.5 -42.64,-2.85 -68.55,36.24 1.49,-22.33 6.23,-25.87 7.37,-34.68 6.22,-48.08 -29.22,-57.29 51.37,-54.79l9.82 53.24zm473.7 -70.29c-9.55,32.93 -23.5,53.88 -43.83,72.61l-9.73 -56.74 53.57 -15.87zm-652.7 16.77l-13.44 46.86c-19.75,-15.8 -31.71,-40.48 -39.02,-68.58 32.43,2.94 36.45,6.64 52.46,21.71zm688.85 -171.15c-0.33,25.65 1.9,41.99 -7.36,64.33l-7.27 9.42c-12.85,-10.48 -21.32,-23.5 -29.89,-35.52 14.11,-15.37 20.43,-30.51 44.52,-38.23zm-159.38 50.6c13.92,-10.89 11.37,-6.41 20.3,-12.17l36.32 -33.33c23.31,32.4 8.62,12.64 45.65,23.74 -44.52,18.9 -25.44,-2.33 -55.09,19.93 -10.54,7.92 2.23,3.07 -17.1,16.34 -9.57,6.58 -13.5,6.28 -21.72,9.71 22.1,81.89 36.52,71.86 53.06,86.45 -50.03,-0.72 -51.36,-4.81 -61.2,-28.38 -5.16,-12.38 -15.73,-44.53 -19.6,-59.9l19.39 -22.4zm-504.32 101.07c16.31,-27.5 30.5,-47.17 33.68,-86.86 -27.86,-13.14 -21.45,-10.3 -41.01,-22.91l-41.43 -19.03 39.54 -16.81 71.27 50.57 -26.98 92.84 -35.06 2.2zm-109.93 -158.06c21.14,10.95 22.62,15.18 38.4,30.29 -7.4,23.57 -5.89,30.53 -33.91,47.25l-4.49 -77.54zm611.6 -109.2c54.15,-0.19 33.51,26.92 82.35,9.24 -27.38,44.32 -7.15,-19.43 -45.98,65.29l-48.33 -25.56 11.97 -48.96zm-487.25 4.52c26.28,-9.4 -11.43,-3.35 33.31,-15l18.19 43.6c-21.9,33.08 -27.82,28.56 -49.06,32.66 -19.57,-31.97 -19.61,-39.53 -49.58,-57.46 21.28,-0.55 30.16,2.26 47.14,-3.8zm609.54 -44.82c21.35,17.9 22.92,31.07 30.62,71.26 -25.11,-3.53 -32.25,-11.2 -49.53,-20.18l18.9 -51.08zm-697.38 -5.65c9.25,14.19 14.82,23.98 20.16,49.12l-49.09 21.99 28.92 -71.11zm608.93 -124.02c23.26,12.88 36.26,28.9 50.45,59.26l-50.64 -6.37 0.19 -52.89zm-562.5 53.04c13.32,-33.81 20.89,-41.67 49.57,-55.05l-1.6 49.41 -47.97 5.65zm268.18 -29.99c19,-43.82 18.06,-3.38 35.79,-71.82 24.23,58.63 -5.53,26.79 40.34,63.65 -4.96,29.53 -10.89,29.61 -36.63,43.08 -21.95,-12.83 -27.17,-9.63 -39.5,-34.91zm129.84 -0.52c39.08,-32.4 12.8,-0.71 40.02,-43.26 1.45,66.32 -5.56,34.98 16.99,101.13 74.2,-3.83 62.27,4.05 94.45,-21.66 -10.31,23.6 -16.17,31.33 -24.59,47.56l-86.23 -0.23c-23.16,-41.55 -5.73,-61.39 -40.63,-83.54zm-239.63 46.97c28.53,-55.62 18.16,-68.65 8.32,-87.49 26.64,14.95 24.79,16.22 38.27,41.04 -10.75,22.94 -17.13,50.13 -24,79.72 -45.38,-2.04 -58.64,-9.87 -98.84,7.55 -5.74,-41.71 -9.14,-30.78 -13.74,-37.74l-9.02 -9.79c57.51,9.84 -5.98,15.37 81.46,10.27l17.54 -3.57zm-38.13 -120.09c14.32,-20.7 39.57,-27.62 66.19,-32.02l-15.61 45.42 -50.57 -13.4zm325.75 16.43l-20.43 -46.72c27.44,4.1 46.69,11.4 64.57,30.29 -7.22,6.05 -1.86,6.22 -20.98,12.98 -5.14,1.81 -18.29,2.89 -23.16,3.45zm-158.9 -2199.18c48.76,-30.06 80.36,55.17 31.27,73.98 -26.73,10.25 -47.66,-7.81 -53.93,-24.19 -12.32,-32.21 8.89,-41.31 22.66,-49.79zm115.85 1839.08c0.19,-95.17 22.04,-1823.13 6.86,-1869.47 -20.74,-63.27 -127.39,-82.25 -181.77,-43.18 -54.3,39.03 -36.96,156.62 -36.36,235.21 0.68,90 1.35,180.02 1.99,270.03l10.75 1595.61c0.09,70.77 -21.5,18.54 -149.69,98.93 -378.8,237.53 -224.82,849.47 244.69,853.65 469.13,4.17 637.23,-610.93 252.62,-853.28 -50.26,-31.67 -106.03,-41.61 -149.83,-66.59l0.75 -220.92z"/>
   <g>
    <path class="fil11" d="M6584.46 2876.1c-29.88,69.25 -223.69,141.55 -286.25,55.36 -53.23,-73.46 51.17,-134.94 93.1,-156.68 -2.6,-128.43 -189.78,-372.27 -333.91,-335.66 -39.25,221.22 199.31,743.17 -4.88,742.02 -82.79,-0.47 -238.25,-375.62 -521.2,-367.1 -221.11,278.41 235.71,532.35 457.99,596.36 170.06,48.97 317.94,72.37 226.48,326.11 -42.7,118.48 -153,294.15 -269.8,301.27 -58.05,-39.44 -174.61,-290.04 -225.97,-359.75 -158.58,-215.26 -164.23,-118.3 -442.37,-148.54 -160.04,-17.42 -206.82,-211.26 -228.95,-365.67 -52.48,-366.24 73.27,-251.85 246.21,-241.39 -24.93,-94.28 -267.39,-307.1 -396.73,-183.61 3.49,95.27 51.13,64.26 79.25,150.94 16.35,50.46 16.95,140.71 12.13,197.83 -23.46,277.35 -120.57,177.04 -140.23,309.75 119.24,-10.82 167.55,-24.59 224.44,77.02 62.65,111.87 33.36,130.89 -7.35,221.12 -26.72,59.25 4.93,197.85 47.17,224.39 65.56,41.19 155.42,-15.24 221.72,-33.03 15.53,-105.86 28.35,-227.58 163.88,-200.73 145.11,28.75 145.35,245.65 240.79,335.8 134.22,126.79 165.18,218.68 355.93,156.96 102.74,-33.23 172.63,-91.66 219.97,-160.22 85.82,-124.31 85.42,-146.83 -7.27,-230.77 -88.33,-79.98 -53.57,-201.18 36.23,-255.36 87.87,-53.03 207.86,-14.19 316.52,-17.33 -22.07,-120.96 -87.36,-99.91 -210.34,-129.24 -328.76,-78.43 -237.54,-216.53 -76.8,-279.33 334.98,-130.85 283.15,1.66 327.17,117.75 116.49,-48.69 159.99,-285.32 65.77,-380.87 -70.17,-71.17 -76.68,-53.13 -88.98,-182.62 -10.48,-110.41 -26.72,-136.35 -114.81,-166.82 15.46,118.63 72.07,263.88 21.11,382.05z"/>
    <path class="fil11" d="M5430.03 2529.22c15.77,-101.64 -34.13,-150.09 -0.13,-197.04 119.95,18.8 102.29,275.13 -62,301.82 -125.25,20.36 -116.34,-40.32 -185.41,-74.32 -139.56,-68.78 -559.5,12.06 -408,531.91 11.28,38.71 20.33,67.2 33.98,101.94 1.8,4.57 18.75,41.41 18.88,41.64 17.25,29.06 9.57,17.36 25.73,31.23 72.99,-64.05 94.18,-233.77 62.92,-346.86 -22.76,-82.26 -182.11,-162.95 -26.15,-265.7 154.14,-101.55 510.61,142.69 468.81,317.91 -104.35,38.43 -141.96,-7.83 -249.62,-6.67 -19.44,140.93 16.34,291.88 68.53,404.98 30.81,66.78 38.15,89.36 129.72,94.57 329.19,18.72 316.8,-118.26 654.64,500.92 87.25,-40.14 300.93,-337.84 170.45,-441.8 -0.66,-0.53 -850.58,-221.87 -720.46,-636.13 77.83,-247.82 277.08,-107.61 410.22,-32.07 -0.29,-183.22 81.32,-289.69 -202.07,-579.91 -165.25,-169.23 -217.23,-70.94 -315.74,126.13 -113.38,226.76 55.64,179.1 125.7,127.48z"/>
    <path class="fil11" d="M5942.89 2180.14c-24.78,-65.03 -73.04,-463.17 -85.43,-566.14 -20.68,-171.72 -66.68,-469.83 164.1,-438.28 188.93,25.83 92.25,348.54 55.82,494.78l-128.15 497.91c-0.89,-2.23 -3.57,8.27 -6.33,11.73zm577.96 681.15c27.51,-135.39 -12.11,-358.63 -63.63,-466.5 -77.46,-162.24 -161.9,-154.99 -339.16,-90.92 -100,36.14 -151.2,50.54 -126.35,-61.41l151.9 -639.1c29.95,-121.23 70.93,-348.59 -14.54,-428.02 -72.77,-67.58 -286.71,-98.15 -327.94,111.49 -47.28,240.53 82.38,686.38 88.18,953.35 -68.68,-20.82 -120.07,-60.2 -204.3,-22.12l-0.08 17.08c14.05,59.45 217.15,225.34 225.93,413.95 6.03,129.87 -66.43,98.6 13.69,263.11 25.08,51.5 82.14,173.04 135.39,184.29 39.94,-266.25 -241.08,-779.12 64.07,-733.44 109.37,16.36 213.58,147.6 264.06,221.96 147.7,217.55 59.42,177.92 -29.63,305.51 53.94,24.09 122.85,-3.89 162.41,-29.24z"/>
    <path class="fil11" d="M6327.77 3667.75c-7.31,58.22 26.42,69.76 55.8,103.62 77.34,-34.51 -4.88,-43.95 107.56,-47.81 44.43,-1.52 89.95,5.87 138.64,2.77 92.17,-5.86 154.68,-39.31 199.35,-89.84 68.88,-77.86 138.32,-312.11 12.47,-429.23 -77.83,36.96 -51.32,96 -166.99,76.13 -75.25,-35.44 -34.9,-149.23 -82.83,-156.37l-34.71 -3.76c-36.63,1.61 -229.56,45.61 -257.29,131.41 137.93,126.47 470.47,22.03 419.08,303.64 -127.3,67.38 -369.46,-63.03 -391.08,109.44z"/>
    <path class="fil11" d="M5434.14 3759.87c-44.78,84.88 -30.06,244.97 15.75,323.74 84.22,16.63 140.11,-45.33 177.56,-85.49 -9.46,-61.09 -33.65,-118 -60.95,-166.01 -33.7,-59.25 -47.89,-88.72 -132.36,-72.23z"/>
    <path class="fil11" d="M4837.61 3592.43c46.92,40.29 103.97,83.29 176.96,67.04 23.62,-45.89 32.81,-49.88 18.51,-112.36 -23.04,-100.79 -112.63,-108.06 -203.25,-64.6l7.78 109.92z"/>
   </g>
  </g>
  <g id="_2574304733584">
   <path class="fil11" d="M3328 8692.35c-69.67,-67.71 5.28,-240.35 -71.34,-295.93 -77.53,33.93 -13.74,90.44 -0.76,221.72 2.57,25.98 4.11,21.11 -0.26,46.34 -8.57,49.3 7.61,9.97 -16.83,43.65 -24.98,-28.58 -10.81,26.53 -31.33,-64.58l-20.12 -189.4c-16.18,-53.68 -5.45,-23.9 -19.89,-46.4 -82.26,40.22 -17.74,88.13 -3.41,226.43 7.03,67.73 0.61,67.47 -14.43,89.16 -47.6,-29.47 -36.23,-65.79 -41.07,-136.9 -4.53,-66.74 -1.57,-123.84 -30.28,-168.94 -99.48,19.16 -19.22,102.45 -4.18,238.62 11.39,103.3 17.41,62.55 -31.51,83.01 -36.26,-65.94 -21.28,-174.11 -32.25,-235.26 -17.07,-95.22 11.23,-43.38 -39.09,-76.37 -18.2,21.8 -48.92,-16.74 -4.46,174.6 44.56,191.75 18.63,139.36 -13.37,154.42l-22.97 -69.95c-11.8,-67.5 -3.09,-190.79 -30.54,-245.45 -140.74,10.9 42.88,222.35 -17.85,329.44 -73.2,-21.38 -36.99,-108.75 -56.45,-247.43 -12.19,-86.87 12.74,-41.04 -32.71,-73.84 -50.29,23.16 -44.85,-24.13 -31.34,85.31 2.69,21.79 17.56,78.56 23.61,107.25 40.28,191.39 2.55,96.47 -6.56,203.46 -4.36,51.35 15.97,184.98 21.5,245.84 8.64,95.16 -10.23,172.69 64.15,196.89 53.21,-39.27 37.65,-80 42.13,-160.46l22.94 111.4c9.54,-4.44 13.06,-15.76 13.98,-13.26 0.92,2.52 5.87,-9.51 6.99,-12.95 7.57,-23.08 6.96,-6.41 11.67,-45.76 6.91,-57.47 -14.89,-180.69 9.3,-250.19 46.13,27.46 30.25,70.89 28.17,141.45 -0.61,20.76 -3.65,73.56 -2.36,91.07 5.92,80.68 14.96,72.93 32.4,90.98l4.39 -318.12c55.07,22.87 38.92,70.31 37.26,135.91 -0.57,22.64 -3.47,71.34 -2.08,91.29 1.75,24.92 0.39,25.53 7.83,49.04 14.84,46.88 -6.35,9.15 21.84,40.03l6.68 -304.99c70.99,34.97 28.12,125.03 41.08,304.67 3.37,-3.7 7.13,-15.16 8.15,-12.61l19.92 -130.72c-1.07,-55.8 -8.33,-113 10.77,-155.67 62.41,32.08 15.19,142.41 27.43,227.54 13.97,97.27 -1.44,39.54 30.52,73.07l5.4 -294.25c72.4,24.1 22.78,139.71 34.95,221.23 9.72,64.95 11.2,54.07 33.09,77.6l2.75 -288.47c53.55,25.71 38.6,52.19 36.64,119.51 -4.78,165.42 -4.87,130.94 32.77,172.33l2.22 -285.36c73.5,43.07 21.42,132.01 34.75,222.16 17.98,121.6 -10.4,30.99 32.28,74.04l3.91 -285.71c75.84,36.04 21.44,121.3 34.99,211.74 18.88,126.12 -7.7,34.06 34.36,80.25l2.78 -285.2c72.27,42.72 20.71,131.75 34.34,222.75 17.77,118.76 -7.36,33.84 32.38,75.69l39.8 48.02c181.6,-19.9 -9.7,-253.68 152.49,-277.05 15.5,-2.21 51.67,-2.04 68.62,-2.01l438.33 0 -13.05 -239.56 416.64 -1.83 -3.09 241.03 2710.58 1.76 2.38 -251.97c-195.31,-40.03 -851.49,-9.94 -1089.06,-9.97l-2193.86 0.72c-313.46,0.72 -446.28,52.62 -584.52,-88.79 -66.11,-67.6 -37.7,0.05 -59.64,-82.09 -28.22,-105.75 23.9,-193.73 -51.45,-241.29 -23.92,27.45 -45.13,-4.78 -8.22,159.08 12.08,53.61 30.56,103.31 8.22,142.4 -92.56,-25.39 -17.19,-184.4 -71.34,-289.26 -130.23,11.78 4.86,136.11 -17.32,259.52 -9.63,53.65 10.09,8.05 -18.35,45.57z"/>
   <path class="fil14" d="M2832.35 6367.01c34.7,-45.87 94.92,-62.92 159.37,-76.22l1.56 190.88c-184.75,-33.36 -156.24,-67.69 -160.93,-114.66zm-124.71 17.82c116.25,98.45 344.68,132.87 495.5,132.31l4156.14 -0.75 -1.09 -252.83c-176.03,-19.64 -373.11,-7.6 -552.1,-7.18l-3727.79 -0.16c-84,0 -310.73,90.08 -370.65,128.61z"/>
   <path class="fil14" d="M3094.22 7863.63l1051.79 2.8 1.95 221.44 -1059.36 -0.96 5.62 -223.28zm2391.87 -15.59l-534.91 0.75c-587.29,-7.16 -1179.27,10.29 -1766.6,1.85 -144.79,-2.08 -239.97,-77.82 -368.2,37.61 -121.3,109.18 23.19,215.49 124.35,241.78 112.7,29.32 94.81,-8.18 191.41,-20.07l677.42 -1.47c400.01,0 3467.21,35.83 3566.75,-12.04 24.51,-45.87 25.84,-184.48 -0.19,-230.65 -44.6,-45.77 -1691.54,-15.5 -1890.02,-17.77z"/>
   <path class="fil12" d="M3065.71 7312.12l1050.7 0.33 -5.74 230.8 -1049.11 -1.43 4.15 -229.69zm1890.08 245.59l530.3 1.12 1865.08 -0.82c17.68,-80.31 20.31,-180.6 -2.04,-253.42 -235.02,-43.72 -4111.17,25.66 -4320.68,-13.67 -93.4,-17.5 -124.71,-46.74 -244.86,-42.98l-1.62 358.22c142.28,6.85 150.98,-50.11 492.51,-49.78 190.25,0.17 380.52,0.02 570.77,0 369.22,-0.03 741.84,7.6 1110.54,1.33z"/>
   <path class="fil11" d="M3064.85 6793.7l1053.12 0.96 1.47 224.27 -1058.05 -7.13 3.46 -218.1zm-158.92 243.65l4444.73 1.68c23.9,-76.96 23.14,-179.54 1.05,-253.47 -311.91,-20.48 -689.55,-8.79 -1009.36,-8.35l-3552.03 0.37c18.5,89.62 75.52,181.1 115.62,259.77z"/>
   <polygon class="fil14" points="3061.56,7541.81 4110.66,7543.24 4116.4,7312.44 3065.71,7312.12 "/>
   <polygon class="fil11" points="3088.6,8086.9 4147.96,8087.87 4146.01,7866.42 3094.22,7863.63 "/>
   <polygon class="fil14" points="3061.38,7011.8 4119.43,7018.93 4117.97,6794.66 3064.85,6793.7 "/>
   <path class="fil11" d="M2832.35 6367.01c4.69,46.97 -23.82,81.3 160.93,114.66l-1.56 -190.88c-64.46,13.3 -124.67,30.35 -159.37,76.22z"/>
  </g>
  <g id="_2574292256672">
   <path class="fil15" d="M13448.09 12421.48c-37.45,-518.26 131.57,-176.75 72.45,-734.5 -12.22,-115.18 -128.53,-192.7 -228.44,-128.42 -197.54,127.14 -13.45,618.72 -11.53,662.78 11.62,267.26 -2.74,215.57 -47.57,347.79 -29.32,86.45 -12.18,683.45 -12.26,823.08 -0.26,395.44 3.03,206.98 55.35,361.98 39.15,116.02 17.35,252.15 -17.89,334.31l207.19 13.77c-42.02,20.71 -126.24,-3.71 -205.6,22.2 -14.68,4.78 -16.31,1.97 -42.48,20.96 7.42,152.97 20.08,386.28 143.44,463.59 57.6,-28.56 69.89,-51.65 95.14,-131.12 128.76,-405.06 -11.58,-349.32 -24.38,-509.36 -17,-212.44 63.52,-237.93 76.42,-357.29l0.06 -833.56c2.1,-352.63 -46.87,-176.19 -59.9,-356.23z"/>
   <g>
    <path class="fil16" d="M17289.89 12938.76c-53.6,-173.1 -85.94,-557.74 -112.17,-766.47 -14.09,-112.05 -48.8,-299.9 1.51,-397.5 106.13,-205.94 453.29,-198.4 542.44,17.91 53.92,130.88 -83.18,1039.31 -118.83,1146.15 -96.01,19.51 -216.9,19.78 -312.95,-0.09zm483.68 -944.05c34.49,-369.92 -259.54,-458.93 -454.1,-385.97 -274.25,102.84 -206.15,377.53 -168.36,674.28 32.77,257.43 99.98,560.5 99.38,812.52 -0.73,300.59 -0.03,601.31 -0.03,901.92 0,107.96 -15.14,362.98 23.21,445.18 47.7,102.28 187.92,162.47 294.57,68.4 92.12,-81.24 74.42,-232.32 74.42,-380.95 -0.01,-357.35 -17.86,-1046.18 26.51,-1333.23 40.82,-264.05 79.35,-533.19 104.41,-802.14z"/>
    <path class="fil17" d="M17289.89 12938.76c96.04,19.88 216.93,19.6 312.95,0.09 35.66,-106.83 172.75,-1015.27 118.83,-1146.15 -89.15,-216.31 -436.32,-223.85 -542.44,-17.91 -50.31,97.59 -15.59,285.45 -1.51,397.5 26.23,208.73 58.58,593.36 112.17,766.47z"/>
    <path class="fil17" d="M17773.58 11994.71c-25.06,268.95 -63.6,538.09 -104.41,802.14 -44.36,287.06 -26.52,975.88 -26.51,1333.23 0,148.63 17.7,299.71 -74.42,380.95 -106.65,94.07 -246.86,33.88 -294.57,-68.4 -38.35,-82.2 -23.21,-337.22 -23.21,-445.18 0,-300.61 -0.7,-601.33 0.03,-901.92 0.59,-252.03 -66.62,-555.1 -99.38,-812.52 -37.79,-296.75 -105.89,-571.44 168.36,-674.28 194.57,-72.96 488.59,16.04 454.1,385.97zm-705.01 0c27.62,280.56 66.94,565.76 110.93,841.8 39.09,245.26 22.37,1073.34 20.81,1412.97 -2.18,473.86 370.87,402.41 460.9,221.24 49.85,-100.35 31.28,-319.38 31.28,-446.74 0,-318.24 1.32,-636.79 -0.12,-955.01 -1.11,-243.7 76.23,-591.27 106.85,-848.58 39.8,-334.39 72.65,-574.96 -237.09,-667.78 -222.08,-66.56 -531.75,54.13 -493.56,442.1z"/>
   </g>
   <g>
    <path class="fil17" d="M11228.54 14440.57l1274.49 -2.05c-34.24,188.93 -181.74,125.07 -638.43,125.07 -508.59,0 -582.81,65.29 -636.07,-123.02zm329.05 -1608.55c-1.02,-162.86 99.39,-1135.16 148.01,-1238.14l340.41 12.49 133.91 1225.41 -622.33 0.25zm926.59 1769.47c138.4,-194.93 138.76,-596.19 72.92,-875.48 -65.27,-276.91 -173.64,-507.43 -283.48,-738.04 -94.94,-199.28 -132.82,-1222.42 -180.6,-1360.71 -40.66,-117.66 -316.81,-105.1 -417.15,-57.77 -48.51,50.92 -25.65,8.1 -43.5,99.07l-79.71 716.61c-48.64,417.59 -8.4,405.99 -159.26,744.89 -178.17,400.31 -410.32,1029.91 -146.08,1478.98l1236.87 -7.55z"/>
    <path class="fil15" d="M11557.6 12832.02l622.33 -0.25 -133.91 -1225.41 -340.41 -12.49c-48.62,102.98 -149.04,1075.29 -148.01,1238.14z"/>
    <path class="fil15" d="M11228.54 14440.57c53.26,188.31 127.48,123.02 636.07,123.02 456.69,0 604.18,63.86 638.43,-125.07l-1274.49 2.05z"/>
   </g>
   <g>
    <path class="fil17" d="M16214.88 12593.76c1.81,-39.98 -13.28,-56.31 -9.95,-119.16 6.36,-119.79 24.59,-167.46 15.24,-352.73 -1.79,-35.55 -3.11,-97.16 3.5,-131.37 18.52,-95.77 8.47,-20.42 -8.25,-110.47l60.14 16.61c2.09,0.62 22.49,7.73 25.77,7.96 42.95,3.1 -28.63,-7.39 67.52,-21.64 -36.04,104.93 -42.58,43.24 2.12,92.93 -16.33,215.13 37.84,211.12 -58.22,219.93 -32.85,3.01 -13.8,-8.8 -52.85,-2.65 89.94,18.59 134.62,-41.18 117.31,279.54 -0.23,4.2 -0.74,7.65 -1.05,11.63 -0.31,3.75 -0.84,7.38 -1.18,10.89l-2.3 19.7c-0.32,2.55 -0.83,6.58 -1.15,8.98l-1.39 72.73c-0.56,10.09 3.06,8.02 -7.03,26.29 -34.97,63.35 -45.15,2.61 -59.26,66l82.47 -24.88c-8.19,76.34 -9.57,97.71 0.02,175.82 -39.43,-19.04 -30.47,-31.08 -24.89,10.57 -53.37,-21.68 -28.58,-17.14 -47.12,-40.3 -16.92,-21.11 -6.79,-1.76 -17.83,-24.28 37.13,33.81 25.63,21.37 27.09,94.74l56.26 -14.14c1.09,-3.24 6.47,-0.49 9.44,0.54 -10.85,65.66 -1.11,37.04 -30.78,77.26 -21.48,29.12 -18.62,6.19 -19.79,37.9 -1.39,37.14 2.69,59.96 3.14,124.63 43.11,-107.02 46.11,43.12 48.51,80.19 -25.82,-0.58 -28.29,0.88 -52.84,-6.41 -53.14,-15.78 -8.28,17.5 -27.42,-18.71 43.16,102.27 54.47,-69.46 81.04,73.92l-155.59 -20.79c-34.11,-12.41 -18.18,-4.03 -42.36,-23.16l38.3 -72.21c-51.78,-13.68 -34.62,19.73 -35.1,-61.87 -0.45,-73.21 15.67,-22.39 7.2,-195.51 63.94,32.44 1.35,27.41 43.21,-8.78 -4.13,-1.84 -17.24,-6.18 -19.6,-7.55 -24.46,-14.24 -2.89,3.17 -23.41,-19.52l11.06 -232.64zm48.53 -700.07c-72.34,-24.36 -7,-0.62 -41.58,-28.3 -2.1,-27.89 -0.45,-96.48 7.14,-121.76l135.53 2.95 5.25 85.57c-37.3,-12.4 -82.85,-15.03 -116.65,16.4 32.24,22.7 37.62,-5.16 38.65,-5.34 34.94,-5.81 36.65,13.95 31.52,47.93 -4.39,1.34 -15.1,8.8 -37.49,7.38 -4.55,-0.28 -18.08,-3.41 -22.37,-4.84zm-32.04 -179.96c7.54,-47.2 31.09,-98.41 65.22,-131.53 30.4,34.58 52.42,77.98 57.79,133.11l-123.01 -1.59zm65.22 -178.43c-151.09,86.03 -106.72,537.91 -110.03,736.15 -4.63,276.26 -9.99,549.98 -14.39,825.72 -2.16,136.2 -19.67,247.19 -19.63,392.45 0.04,139.71 1.76,280.17 1.22,419.61 -0.56,139.86 -0.89,279.72 -1.25,419.63 -0.35,132.38 -6.99,270.62 130.5,279.67 156.88,10.31 153.78,-142.39 153.38,-279.7l-0.05 -839.2c-0.08,-153 -15.06,-258.9 -19.99,-404.12l-19.76 -1233.61c-1.08,-102.16 -7.06,-253.31 -100,-316.58z"/>
    <path class="fil18" d="M16203.83 12826.4c20.52,22.68 -1.05,5.28 23.41,19.52 2.36,1.37 15.47,5.71 19.6,7.55 -41.85,36.19 20.74,41.22 -43.21,8.78 8.46,173.12 -7.65,122.3 -7.2,195.51 0.48,81.61 -16.68,48.2 35.1,61.87l-38.3 72.21c24.18,19.13 8.25,10.75 42.36,23.16l155.59 20.79c-26.58,-143.38 -37.89,28.35 -81.04,-73.92 19.14,36.21 -25.73,2.93 27.42,18.71 24.55,7.3 27.02,5.83 52.84,6.41 -2.41,-37.07 -5.4,-187.21 -48.51,-80.19 -0.44,-64.67 -4.53,-87.49 -3.14,-124.63 1.18,-31.71 -1.68,-8.78 19.79,-37.9 29.67,-40.22 19.93,-11.61 30.78,-77.26 -2.97,-1.03 -8.35,-3.78 -9.44,-0.54l-56.26 14.14c-1.45,-73.37 10.04,-60.93 -27.09,-94.74 11.03,22.52 0.91,3.18 17.83,24.28 18.54,23.16 -6.25,18.62 47.12,40.3 -5.58,-41.65 -14.54,-29.61 24.89,-10.57 -9.59,-78.1 -8.21,-99.48 -0.02,-175.82l-82.47 24.88c14.11,-63.39 24.29,-2.65 59.26,-66 10.09,-18.27 6.47,-16.2 7.03,-26.29l1.39 -72.73c0.32,-2.4 0.83,-6.42 1.15,-8.98l2.3 -19.7c0.34,-3.51 0.87,-7.14 1.18,-10.89 0.31,-3.98 0.82,-7.43 1.05,-11.63 17.31,-320.71 -27.38,-260.95 -117.31,-279.54 39.05,-6.15 20,5.67 52.85,2.65 96.05,-8.8 41.88,-4.8 58.22,-219.93 -44.7,-49.69 -38.17,12 -2.12,-92.93 -96.15,14.25 -24.57,24.74 -67.52,21.64 -3.28,-0.24 -23.68,-7.34 -25.77,-7.96l-60.14 -16.61c16.72,90.05 26.77,14.7 8.25,110.47 -6.62,34.21 -5.3,95.82 -3.5,131.37 9.35,185.27 -8.87,232.94 -15.24,352.73 -3.33,62.85 11.76,79.18 9.95,119.16l-11.06 232.64z"/>
    <path class="fil18" d="M16221.84 11865.39c34.58,27.67 -30.76,3.93 41.58,28.3 4.28,1.42 17.82,4.56 22.37,4.84 22.39,1.42 33.1,-6.03 37.49,-7.38 5.13,-33.98 3.42,-53.74 -31.52,-47.93 -1.02,0.17 -6.4,28.04 -38.65,5.34 33.8,-31.43 79.34,-28.8 116.65,-16.4l-5.25 -85.57 -135.53 -2.95c-7.59,25.28 -9.24,93.87 -7.14,121.76z"/>
    <path class="fil19" d="M16231.38 11713.73l123.01 1.59c-5.37,-55.13 -27.39,-98.53 -57.79,-133.11 -34.14,33.11 -57.68,84.32 -65.22,131.53z"/>
   </g>
   <g>
    <path class="fil15" d="M18625.95 12322.45c-20.76,-145.24 1.77,-117.75 -80.22,-221.43 -57.59,-72.85 -89.09,-89.53 -89.04,-211.02 0.09,-248.88 9.77,-318.66 271.95,-318.4 274.99,0.28 276.33,70.67 274.09,332.99 -1,116.36 -41.81,136.35 -96.42,205.52 -65.28,82.66 -59.72,88.62 -74.55,215.41l-205.81 -3.06zm-195.13 -332.46c19.54,79.82 150.93,133.9 169.38,317.06 43.07,427.69 -179.48,2037.07 -15.38,2243.23 72.41,90.98 277.1,76.59 315.06,-45.37 124.05,-398.43 -109.69,-1854.61 -25.4,-2268.57 28.05,-137.84 156.43,-148.95 159.09,-317.36 2.61,-164.9 14.19,-298.33 -120.36,-357.21 -101.18,-44.27 -339.07,-31.23 -414.24,25.86 -75.81,57.61 -98.45,278.54 -68.16,402.36z"/>
    <path class="fil20" d="M18626.29 12148.21c44.41,-23.74 155.32,-25.84 211.48,-8.15 2.73,66.84 -27.69,61.33 -94.24,64.3 -76.88,3.44 -110.69,11.96 -117.24,-56.16zm-2.67 -172.59c-41.75,-32.24 -81.02,-4.61 -98.94,-74.4 -16.93,-65.89 7.12,-92.95 59.31,-101.41 51.08,-8.31 278.4,-2.96 327.29,9.02 15.96,26.02 41.01,62.67 18.05,107.81 -19.2,37.76 -59.97,42.6 -93.77,59.3l21.02 101.01 -255.55 -4.36 22.58 -96.96zm-47.14 -330.72c374.39,-77.45 495.55,120.67 295.81,106.96 -84.74,-5.82 -177.05,-12.31 -262.42,-3.31 -177.93,18.72 -113.96,-86.97 -33.39,-103.65zm49.48 677.55l205.81 3.06c14.83,-126.79 9.27,-132.74 74.55,-215.41 54.61,-69.17 95.42,-89.16 96.42,-205.52 2.24,-262.32 0.9,-332.71 -274.09,-332.99 -262.18,-0.27 -271.86,69.52 -271.95,318.4 -0.05,121.49 31.44,138.17 89.04,211.02 82,103.68 59.47,76.19 80.22,221.43z"/>
    <path class="fil17" d="M18630.78 12047.54c13.91,-55.36 22.97,-39.12 97.85,-39.28 77.1,-0.17 84.71,-16.72 99.76,39.28 -38.96,21.12 -157.85,22.42 -197.61,0zm-7.16 -71.92l-22.58 96.96 255.55 4.36 -21.02 -101.01c33.8,-16.7 74.57,-21.55 93.77,-59.3 22.96,-45.13 -2.09,-81.78 -18.05,-107.81 -48.89,-11.98 -276.22,-17.33 -327.29,-9.02 -52.19,8.46 -76.24,35.52 -59.31,101.41 17.92,69.79 57.19,42.16 98.94,74.4z"/>
    <path class="fil17" d="M18576.48 11644.9c-80.57,16.68 -144.54,122.37 33.39,103.65 85.37,-9 177.67,-2.51 262.42,3.31 199.74,13.72 78.59,-184.4 -295.81,-106.96z"/>
    <path class="fil19" d="M18626.29 12148.21c6.56,68.11 40.36,59.6 117.24,56.16 66.55,-2.97 96.97,2.54 94.24,-64.3 -56.17,-17.69 -167.08,-15.59 -211.48,8.15z"/>
    <path class="fil19" d="M18728.63 12008.26c-74.88,0.16 -83.93,-16.08 -97.85,39.28 39.76,22.42 158.65,21.12 197.61,0 -15.05,-56 -22.66,-39.46 -99.76,-39.28z"/>
   </g>
   <g>
    <path class="fil19" d="M14686.66 14541.09l-392.05 -0.68c-46.61,-119.34 -43.42,-344.2 -30,-496.75l477.14 -2.31c9.71,164.22 26.32,409.38 -55.09,499.73zm-450.09 -1058.81c-38.49,-425.55 -88.37,-1087.87 -58.46,-1509.17 60.01,88.92 493.73,1355.87 520.44,1512.19l-461.97 -3.01zm422.3 -1353.58c21.07,79.78 28.57,57.94 6.14,135.35 -102.21,28.28 -105.7,-25.35 -122.94,-109.96 23.18,-31.38 77.61,-34.03 116.8,-25.39zm-38.6 -188.71l21.44 82.32c-76.27,21.03 -105.32,42.49 -173.08,22.73l-7.24 -49.47 158.88 -55.58zm-178.41 -157.07c100.89,-108.95 192.63,39.98 130.62,111.02 -70.7,80.98 -224.29,-9.85 -130.62,-111.02zm-257.41 -127.93l277.27 25.98c-90.85,88.68 -112.39,83.26 -286.14,84.48l8.87 -110.46zm13.94 -116.44c-107.26,120.46 -79.22,304.88 -79.92,496.66 -2.6,729.71 85.88,1476.99 92.25,2199.13 2.17,248.5 -46.8,365.11 224.88,364.35 478.51,-1.34 312.85,24.55 374.14,-765.74 15.02,19.41 3.81,-1.5 25.39,40.03 2.28,4.39 4.84,9.59 7.03,14.23 191.66,407.7 107.14,829.63 518.31,696.93 239.26,-77.21 209.07,-176.39 144.59,-406.88 -47.68,-170.49 -95.36,-340.65 -143.72,-511.65 -97.64,-345.31 -194.41,-696.8 -294.41,-1050.63 -51.33,-181.62 -96.93,-353.28 -147.6,-526.62 -64.09,-219.21 -1.74,-358.49 -98.49,-553.05 -111.52,0.58 -209.3,20.73 -325.59,20.34 -101.53,-0.35 -196.3,-23.38 -296.86,-17.09z"/>
    <path class="fil15" d="M14236.57 13482.28l461.97 3.01c-26.7,-156.32 -460.43,-1423.26 -520.44,-1512.19 -29.91,421.31 19.97,1083.63 58.46,1509.17z"/>
    <path class="fil15" d="M14630.28 14212.82c17.85,187.25 -137.46,244.66 -226.94,154.05 -91.47,-92.6 -27.52,-242.88 153.54,-227.42l73.4 73.37zm56.38 328.27c81.41,-90.35 64.8,-335.51 55.09,-499.73l-477.14 2.31c-13.42,152.55 -16.61,377.4 30,496.75l392.05 0.68z"/>
    <path class="fil19" d="M14527.14 14344.94c-47,13.39 -83.97,-19.29 -95.79,-44.63 -23.56,-50.53 6.66,-77.96 23.73,-103.67 177.7,-19.39 143.23,128.04 72.06,148.3zm103.13 -132.12l-73.4 -73.37c-181.06,-15.46 -245.02,134.81 -153.54,227.42 89.49,90.61 244.79,33.21 226.94,-154.05z"/>
    <path class="fil15" d="M14441.87 11782.92c-93.67,101.18 59.93,192.01 130.62,111.02 62.01,-71.04 -29.73,-219.98 -130.62,-111.02z"/>
    <path class="fil15" d="M14175.59 11765.45c173.76,-1.22 195.3,4.2 286.14,-84.48l-277.27 -25.98 -8.87 110.46z"/>
    <path class="fil15" d="M14455.09 14196.65c-17.07,25.71 -47.28,53.13 -23.73,103.67 11.81,25.34 48.79,58.02 95.79,44.63 71.17,-20.26 105.64,-167.68 -72.06,-148.3z"/>
    <path class="fil15" d="M14542.07 12154.09c17.24,84.61 20.73,138.24 122.94,109.96 22.43,-77.41 14.93,-55.56 -6.14,-135.35 -39.19,-8.64 -93.63,-5.99 -116.8,25.39z"/>
    <path class="fil15" d="M14461.4 11995.57l7.24 49.47c67.77,19.76 96.81,-1.69 173.08,-22.73l-21.44 -82.32 -158.88 55.58z"/>
   </g>
   <g>
    <path class="fil17" d="M21121.74 14324.09c-55.47,-104.41 -106.26,-238.61 -156.28,-352.71 -27.13,-61.87 -76.74,-132.61 -63.27,-187.57 9.11,-37.12 57.57,-145.05 91.44,-165.16 70.26,21.51 73.23,74.56 97.94,143.86 20.38,57.15 40.26,115.3 56.68,176.43 31.04,115.49 22.05,286.32 -26.52,385.15zm-238.52 -849.12c-0.17,-6.18 2.51,-7.89 3.69,-11.86l46.12 -0.77c2.06,-3.89 7.11,4.25 10.73,6.26 35.17,43.32 -49.01,100.53 -62.36,18.01 -0.41,-2.52 2,-5.78 1.82,-11.64zm-455.71 -1356.29c-43.37,-33.52 -30.33,-65.97 -29.59,-135.87 0.54,-50.83 -1.03,-102.13 -0.36,-152.65 1.33,-100.06 29.49,-182.57 8.17,-294.86 -208.25,68.8 -218.84,621.99 -225.39,806.04 -6.58,184.82 -63.29,251.13 -129.92,396.61 -142.37,310.91 -367.3,799.27 -473.96,1101.33 -98.26,278.3 103.11,713.57 202.07,769.76 16.09,-24.44 12.69,-50.75 5.19,-76.56 -5.92,-20.39 -15.93,-40.53 -23.25,-62.13 -15.08,-44.61 -28.75,-92.84 -40.08,-136.56 -25.51,-98.46 -54.07,-214.62 -39.13,-321.88 31.15,-223.41 300.85,-781.71 410.2,-998.28 255.66,-506.37 171.31,-449.84 431.07,-446.66 82.39,116.39 198.12,369.97 273.22,524.89 78.54,161.99 113.48,189.22 71.48,267.57 -98.13,183.06 26.03,213.89 58.01,251.69 -46.47,137.28 -91.13,170.64 -53.45,260.21 32.42,77.12 68.32,160.11 104.21,240.44 19.86,44.42 98.23,207.31 90.82,238.06 -17.33,71.92 -126.36,106.62 -129.59,199.98 84.77,-11.86 83,-98.59 165.46,-153.55 -20.78,141.69 -74.67,149.22 -40.04,212.3 87.37,-36.97 312.29,-483.34 200.89,-783.69 -95.28,-256.91 -202.41,-480.85 -308.63,-727.1 -92.78,-215.12 -285.29,-559.74 -290.14,-742.05 -7.19,-271.24 -19.01,-739.96 -228.65,-819.38 -1.36,67.09 36.5,532.73 -8.63,582.34z"/>
    <path class="fil21" d="M20886.9 13463.11c-1.18,3.98 -3.86,5.69 -3.69,11.86 0.17,5.86 -2.23,9.12 -1.82,11.64 13.35,82.52 97.53,25.31 62.36,-18.01 -3.62,-2.01 -8.67,-10.15 -10.73,-6.26l-46.12 0.77z"/>
   </g>
  </g>
 </g>
</svg>
