<svg xmlns="http://www.w3.org/2000/svg" xmlns:xlink="http://www.w3.org/1999/xlink" width="1451" height="1451"
     viewBox="0 0 1451 1451">
    <defs>
        <style>
            .cls-1 {
            clip-path: url(#clip-Step_4);
            }

            .cls-16, .cls-17, .cls-18, .cls-9 {
            fill: #fff;
            }
            .cls-2{
            fill: none;
            }


            .cls-3 {
            fill: #70C2FB;opacity: 0.99;
            }

            .cls-4 {
            fill: #70C2FB;opacity: 0.45;
            }

            .cls-5 {
            fill: #89c769;
            }

            .cls-6 {
            fill: #f5aa1b;
            }

            .cls-7 {
            fill: #87c669;
            }

            .cls-8 {
            fill: #179CF8;opacity: 0.99;
            }

            .cls-13, .cls-8 {
            fill-rule: evenodd;
            }

            .cls-9 {
            font-size: 11px;
            }

            .cls-16, .cls-9 {
            font-family: MavenPro-Medium, Maven Pro;
            font-weight: 500;
            }

            .cls-10, .cls-23 {
            fill: none;
            opacity: 1;
            }

            .cls-11, .cls-25 {
            fill: #FC667E;
            }

            .cls-12, .cls-13, .cls-19 {
            fill: #1B9BD9;
            }

            .cls-14 {
            fill: #179CF8;
            }

            .cls-15 {
            fill: #70C2FB;opacity: 0.45;
            }

            .cls-16, .cls-18 {
            font-size: 7px;
            }

            .cls-17 {
            font-size: 17px;
            }

            .cls-17, .cls-18 {
            font-family: Maven Pro;
            font-weight: 700;
            }

            .cls-19 {
            opacity: 0.92;
            }

            .cls-20 {
            fill: #14c6b7;
            }

            .cls-21 {
            fill: #179CF8;opacity: 0.99;
            }

            .cls-22 {
            fill: #70C2FB;opacity: 0.99;
            }

            .cls-23 {
            stroke: #B7E0FD;
            stroke-width: 24px;
            }

            .cls-24, .cls-25 {
            stroke: none;
            }

            .cls-26 {
            filter: url(#Path_4092);
            }
        </style>
        <filter id="Path_4092" x="511.687" y="535.176" width="293.873" height="251.314" filterUnits="userSpaceOnUse">
            <feOffset dy="3" input="SourceAlpha"/>
            <feGaussianBlur stdDeviation="3" result="blur"/>
            <feFlood flood-opacity="0.161"/>
            <feComposite operator="in" in2="blur"/>
            <feComposite in="SourceGraphic"/>
        </filter>
        <clipPath id="clip-Step_4">
            <rect width="1451" height="1451"/>
        </clipPath>
    </defs>
    <g id="Step_4" data-name="Step 4" class="cls-1">
        <rect fill="none" width="1451" height="1451"/>
        <g id="Group_2437" data-name="Group 2437" transform="translate(-7921 -1613)">
            <g id="Group_2425" data-name="Group 2425" transform="translate(-1569 127)">
                <rect id="Rectangle_511" data-name="Rectangle 511" class="cls-2" width="1451" height="1451"
                      transform="translate(9490 1486)" style="fill: none;"/>
                <g id="Group_2424" data-name="Group 2424" transform="translate(-0.876 -8.647)">
                    <g id="Group_2204" data-name="Group 2204" transform="translate(9982.601 2024.386)">
                        <path id="Path_4072" data-name="Path 4072" class="cls-3"
                              d="M-5483.015,2197.616s-28.547-60.356-40.039-4.021,18.322,145.619,18.322,145.619l-18.322,88.533s-38.5,61.652-70.7,119.845-27.134,99.9-27.134,99.9l-228.7-22.4s34.165,69.644,73.417,102.108,36.027,19.9,76.292,50.676,61.594,159.957,61.594,159.957,51.445,2.448,102.777-10.41c18.993-4.757,34.464-20.908,52.495-26.806,66.047-21.6,111.875-54.034,111.875-54.034s-67.271-99.816-76.62-152.872,29.581-77.629,29.581-77.629,48.614-71.8,32.507-139.115c-16.628-108.66-50.9-228.094-50.9-228.094Z"
                              transform="translate(5849.589 -2145.397)"/>
                        <path id="Path_4077" data-name="Path 4077" class="cls-4"
                              d="M-5718.881,2150.417l-31.1,21.638s11.82,51.957,23.032,69.276,21.808,0,21.808,0Z"
                              transform="translate(6120.645 -2150.417)"/>
                    </g>
                    <g id="Group_2216" data-name="Group 2216" transform="translate(9961.574 1806.394)">
                        <g id="Group_662" data-name="Group 662" transform="translate(87.677 151.207)">
                            <path id="Path_998" data-name="Path 998" class="cls-5"
                                  d="M-228.607,394.573a.951.951,0,0,0,.279-.707v-28.46a.939.939,0,0,0-.279-.728,1,1,0,0,0-.707-.257h-1.843a.96.96,0,0,0-.707.278.957.957,0,0,0-.279.707v14.959l-8.572-7.072a7.85,7.85,0,0,0-.9-.6,1.932,1.932,0,0,0-.815-.128h-2.143a.841.841,0,0,0-.622.236.9.9,0,0,0-.236.665,1.168,1.168,0,0,0,.472.814l10.03,8.23-11.1,10.629a1.294,1.294,0,0,0-.472.816.92.92,0,0,0,.236.643.806.806,0,0,0,.621.256h2.1a2.388,2.388,0,0,0,.921-.128,3.539,3.539,0,0,0,.794-.6l9.687-9.172v8.914a.955.955,0,0,0,.278.707.956.956,0,0,0,.707.279h1.843A.955.955,0,0,0-228.607,394.573Z"
                                  transform="translate(301.963 -364.421)"/>
                            <path id="Path_999" data-name="Path 999" class="cls-5"
                                  d="M-228.717,387.761a7.23,7.23,0,0,0,2.829-2.336,5.535,5.535,0,0,0,1.051-3.28,5.611,5.611,0,0,0-2.316-4.629,13.359,13.359,0,0,0-6.3-2.4l-6.43-.9v-1.243q0-4.413,5.1-4.414a5.663,5.663,0,0,1,3.171.793,5.068,5.068,0,0,1,1.758,1.864,1.381,1.381,0,0,0,.364.579.851.851,0,0,0,.536.15h1.672a.9.9,0,0,0,.663-.279.9.9,0,0,0,.279-.664,4.179,4.179,0,0,0-.922-2.294,7.463,7.463,0,0,0-2.849-2.271,10.465,10.465,0,0,0-4.715-.964q-4.8,0-6.88,2.229a7.858,7.858,0,0,0-2.078,5.572V387.2a.956.956,0,0,0,.279.707.952.952,0,0,0,.707.279h1.885a.885.885,0,0,0,.685-.279,1,1,0,0,0,.258-.707v-1.886a7.234,7.234,0,0,0,2.744,2.358,9.965,9.965,0,0,0,4.628.942A8.819,8.819,0,0,0-228.717,387.761Zm-9.365-4.115a7.355,7.355,0,0,1-1.8-5.357v-1.2l5.015.728a11.7,11.7,0,0,1,4.672,1.458,3.009,3.009,0,0,1,1.586,2.572,3.04,3.04,0,0,1-1.437,2.7,6.062,6.062,0,0,1-3.407.943A6.182,6.182,0,0,1-238.082,383.646Z"
                                  transform="translate(278.542 -357.758)"/>
                            <path id="Path_1000" data-name="Path 1000" class="cls-5"
                                  d="M-228.2,387.541a.949.949,0,0,0,.28-.707V366.561a1.029,1.029,0,0,0-.28-.729.923.923,0,0,0-.707-.3h-1.8a1.018,1.018,0,0,0-.751.278,1.014,1.014,0,0,0-.278.75v1.885q-1.758-2.914-5.96-2.914h-1.671a.986.986,0,0,0-.729.257.986.986,0,0,0-.258.729V368.1a1,1,0,0,0,.258.708.944.944,0,0,0,.729.278h2.444a4.965,4.965,0,0,1,3.706,1.372,5.087,5.087,0,0,1,1.352,3.729v12.644a.921.921,0,0,0,.3.707,1.029,1.029,0,0,0,.729.279h1.929A.95.95,0,0,0-228.2,387.541Z"
                                  transform="translate(256.464 -357.388)"/>
                            <path id="Path_1001" data-name="Path 1001" class="cls-5"
                                  d="M-227.978,387.351V375.865h3.386a.925.925,0,0,0,.686-.257.926.926,0,0,0,.257-.686V373.55a1,1,0,0,0-.257-.707.889.889,0,0,0-.686-.278h-3.386v-7.159a1,1,0,0,0-.258-.707.886.886,0,0,0-.685-.278h-1.887a.957.957,0,0,0-.707.278.963.963,0,0,0-.279.707v7.159h-5.315a.961.961,0,0,0-.706.278.957.957,0,0,0-.278.707v1.371a.886.886,0,0,0,.278.686,1,1,0,0,0,.706.257h5.315v11.187a6.222,6.222,0,0,1-.707,3.3,2.644,2.644,0,0,1-2.422,1.115h-2.614a.887.887,0,0,0-.686.279,1,1,0,0,0-.257.707v1.414a1,1,0,0,0,.257.707.885.885,0,0,0,.686.279h2.913Q-227.977,394.853-227.978,387.351Z"
                                  transform="translate(238.478 -364.421)"/>
                        </g>
                        <g id="Group_668" data-name="Group 668" transform="translate(164.322 128.264)">
                            <g id="Group_666" data-name="Group 666" transform="translate(0 0)">
                                <g id="Group_665" data-name="Group 665">
                                    <g id="Group_663" data-name="Group 663" transform="translate(5.762 53.664)">
                                        <path id="Wheel_2_5_" class="cls-6"
                                              d="M-245.327,368.612a9.076,9.076,0,0,0-9.074,9.076,9.076,9.076,0,0,0,9.074,9.076,9.076,9.076,0,0,0,9.076-9.076A9.077,9.077,0,0,0-245.327,368.612Z"
                                              transform="translate(285.372 -368.612)"/>
                                        <path id="Wheel_1_5_" class="cls-6"
                                              d="M-241.1,368.612a9.077,9.077,0,0,0-9.077,9.076,9.076,9.076,0,0,0,9.077,9.076,9.049,9.049,0,0,0,6.809-3.078,9.058,9.058,0,0,0,1.842-3.252,9.087,9.087,0,0,0,.422-2.746A9.077,9.077,0,0,0-241.1,368.612Z"
                                              transform="translate(250.175 -368.612)"/>
                                    </g>
                                    <path id="Cart_5_" class="cls-7"
                                          d="M-252.422,376.442h11.7v-1.21c0-7.7,7.1-13.942,15.854-13.942s15.852,6.241,15.852,13.942v1.21H-197.3a2.608,2.608,0,0,1,2.763,2.424v40.606A2.6,2.6,0,0,1-197.3,421.9h-55.118a2.606,2.606,0,0,1-2.766-2.423V378.866A2.608,2.608,0,0,1-252.422,376.442Zm17.913,0h19.292v-1.21c0-4.69-4.315-8.485-9.647-8.485s-9.645,3.795-9.645,8.485Z"
                                          transform="translate(255.187 -361.29)"/>
                                    <g id="Group_664" data-name="Group 664" transform="translate(16.013 24.738)">
                                        <path id="Path_1002" data-name="Path 1002" class="cls-2"
                                              d="M-224.731,390.119a.884.884,0,0,0,.347-.7V365.659a.894.894,0,0,0-.347-.7,1.239,1.239,0,0,0-.826-.293h-8.309a1.235,1.235,0,0,0-.825.293.891.891,0,0,0-.348.7v7.283l-4.916-7.467a1.918,1.918,0,0,0-1.741-.81h-9.612a1,1,0,0,0-.673.24.725.725,0,0,0-.284.57.687.687,0,0,0,.131.405l7.83,11.108-8.568,12.213a.589.589,0,0,0-.13.407.722.722,0,0,0,.281.568,1.016,1.016,0,0,0,.673.237h9.917a2.183,2.183,0,0,0,1.175-.273,1.84,1.84,0,0,0,.609-.572l5.309-8.02v7.875a.883.883,0,0,0,.348.7,1.218,1.218,0,0,0,.825.294h8.309A1.221,1.221,0,0,0-224.731,390.119Z"
                                              transform="translate(253.002 -364.665)"/>
                                    </g>
                                </g>
                            </g>
                            <g id="Group_667" data-name="Group 667" transform="translate(8.991 26.933)">
                                <path id="Path_1003" data-name="Path 1003" class="cls-7"
                                      d="M-250.774,368c-.013-1.975,19.308-.488,19.308-.488S-250.761,369.94-250.774,368Z"
                                      transform="translate(250.774 -352.271)"/>
                                <path id="Path_1004" data-name="Path 1004" class="cls-7"
                                      d="M-252.858,367.034c.155-1.975,30.3.123,30.3.123S-253.013,368.98-252.858,367.034Z"
                                      transform="translate(257.145 -357.229)"/>
                                <path id="Path_1005" data-name="Path 1005" class="cls-7"
                                      d="M-250.774,366.657c-.013-1.971,19.308-.49,19.308-.49S-250.762,368.6-250.774,366.657Z"
                                      transform="translate(250.774 -360.734)"/>
                                <path id="Path_1006" data-name="Path 1006" class="cls-7"
                                      d="M-250.774,368.664c-.014-1.975,19.308-.489,19.308-.489S-250.762,370.607-250.774,368.664Z"
                                      transform="translate(250.774 -348.04)"/>
                                <path id="Path_1007" data-name="Path 1007" class="cls-7"
                                      d="M-250.774,365.989c-.013-1.972,19.308-.49,19.308-.49S-250.762,367.928-250.774,365.989Z"
                                      transform="translate(250.774 -364.965)"/>
                            </g>
                        </g>
                        <path id="Path_1010" data-name="Path 1010" class="cls-8"
                              d="M-276.521,1023.188a40.975,40.975,0,0,0,41.043,41.043H64.278a40.975,40.975,0,0,0,41.042-41.043V384.832a40.975,40.975,0,0,0-41.042-41.042H-235.478a40.975,40.975,0,0,0-41.043,41.042Z"
                              transform="translate(276.521 -343.789)"/>
                        <path id="Path_1011" data-name="Path 1011" class="cls-2"
                              d="M-238.782,951.138H15.534c19.056,0,34.447-18.322,34.447-41.042V368.482c0-22.72-15.391-16.124-34.447-16.124H-238.049c-19.055,0-34.446-6.6-34.446,16.124V910.1C-273.229,932.816-257.838,951.138-238.782,951.138Z"
                              transform="translate(301.574 -295.768)" style="fill: #FFEFEF;"/>
                        <text id="Enjoy" class="cls-9" transform="translate(58.097 151.028)">
                            <tspan x="0" y="0">Enjoy</tspan>
                        </text>
                        <g id="Group_2215" data-name="Group 2215" transform="translate(135.095 493.535)">
                            <g id="Path_4093" data-name="Path 4093" class="cls-10" transform="translate(0 0)">
                                <path class="cls-24"
                                      d="M56.031,0A56.031,56.031,0,1,1,0,56.031,56.031,56.031,0,0,1,56.031,0Z"/>
                                <path class="cls-25"
                                      d="M 56.03061676025391 3 C 48.87021636962891 3 41.92558288574219 4.401718139648438 35.38963317871094 7.16619873046875 C 29.07514953613281 9.837013244628906 23.40351867675781 13.66114807128906 18.53231811523438 18.53237915039062 C 13.66110229492188 23.40361785888672 9.836982727050781 29.07526397705078 7.166183471679688 35.38980102539062 C 4.401702880859375 41.92578125 3 48.87044906616211 3 56.03089904785156 C 3 63.19134902954102 4.401702880859375 70.13601684570312 7.166183471679688 76.6719970703125 C 9.836982727050781 82.98651123046875 13.66110229492188 88.65818023681641 18.53231811523438 93.5294189453125 C 23.40351867675781 98.40065002441406 29.07514953613281 102.2247848510742 35.38963317871094 104.8955993652344 C 41.92558288574219 107.6600799560547 48.87021636962891 109.0617980957031 56.03061676025391 109.0617980957031 C 63.19101715087891 109.0617980957031 70.13565063476562 107.6600799560547 76.67160034179688 104.8955993652344 C 82.986083984375 102.2247848510742 88.65771484375 98.40065002441406 93.52891540527344 93.5294189453125 C 98.40013122558594 88.65818023681641 102.224250793457 82.98651123046875 104.8950500488281 76.6719970703125 C 107.6595306396484 70.13601684570312 109.0612335205078 63.19134902954102 109.0612335205078 56.03089904785156 C 109.0612335205078 48.87044906616211 107.6595306396484 41.92578125 104.8950500488281 35.38980102539062 C 102.224250793457 29.07526397705078 98.40013122558594 23.40361785888672 93.52891540527344 18.53237915039062 C 88.65771484375 13.66114807128906 82.986083984375 9.837013244628906 76.67160034179688 7.16619873046875 C 70.13565063476562 4.401718139648438 63.19101715087891 3 56.03061676025391 3 M 56.03061676025391 0 C 86.9754638671875 0 112.0612335205078 25.08588409423828 112.0612335205078 56.03089904785156 C 112.0612335205078 86.97589874267578 86.9754638671875 112.0617980957031 56.03061676025391 112.0617980957031 C 25.08576965332031 112.0617980957031 0 86.97589874267578 0 56.03089904785156 C 0 25.08588409423828 25.08576965332031 0 56.03061676025391 0 Z"/>
                            </g>
                            <path id="Path_3173" data-name="Path 3173" class="cls-11"
                                  d="M3.108,13.894,17.531,31.386,57.647,0l2.682,2.551-42.8,34.213L0,16.59Z"
                                  transform="matrix(0.998, -0.07, 0.07, 0.998, 26.423, 42.003)"/>
                        </g>
                        <g id="Group_2430" data-name="Group 2430" transform="translate(49.302 78.254)">
                            <g id="Group_1926" data-name="Group 1926" transform="translate(61.352 17.597)">
                                <path id="Path_3096" data-name="Path 3096" class="cls-11"
                                      d="M656.459,248.2v18.68a7.628,7.628,0,0,0,.341,2.991,5.4,5.4,0,0,0,3.779,3.19,9.359,9.359,0,0,0,2.7.039,7.751,7.751,0,0,0,1.785-.284c.166-.056.486-.106.594-.256a.6.6,0,0,0,.047-.342v-3.543c-.317.091-.6.266-.915.367a5.385,5.385,0,0,1-1.694.231,1.839,1.839,0,0,1-1.144-.259c-1.013-.707-.778-2.166-.778-3.238v-8.6h4.532v-3.589h-4.532V248.2Z"
                                      transform="translate(-656.456 -248.203)"/>
                                <path id="Path_3112" data-name="Path 3112" class="cls-12"
                                      d="M656.459,248.2v18.68a7.628,7.628,0,0,0,.341,2.991,5.4,5.4,0,0,0,3.779,3.19,9.359,9.359,0,0,0,2.7.039,7.751,7.751,0,0,0,1.785-.284c.166-.056.486-.106.594-.256a.6.6,0,0,0,.047-.342v-3.543c-.317.091-.6.266-.915.367a5.385,5.385,0,0,1-1.694.231,1.839,1.839,0,0,1-1.144-.259c-1.013-.707-.778-2.166-.778-3.238v-8.6h4.532v-3.589h-4.532V248.2Z"
                                      transform="translate(-589.96 -248.203)"/>
                                <path id="Path_3098" data-name="Path 3098" class="cls-12"
                                      d="M918.934,396.439H923.4V382.049c0-.238-.107-.836.073-1.014.108-.107.332-.105.474-.128.424-.07.85-.1,1.275-.146a20.229,20.229,0,0,1,3.279-.08,15.682,15.682,0,0,1,2.186.184v-2.6c0-.227.1-.738-.073-.912a1.464,1.464,0,0,0-.565-.272,7.753,7.753,0,0,0-1.639-.286,10.942,10.942,0,0,0-2.323.051,20.532,20.532,0,0,0-4.645,1.055,14.637,14.637,0,0,0-1.822.763c-.2.1-.517.195-.636.391a.775.775,0,0,0-.047.395v16.986Z"
                                      transform="translate(-906.907 -371.472)"/>
                                <path id="Path_3111" data-name="Path 3111" class="cls-12"
                                      d="M494.536-600.638a16.294,16.294,0,0,0-5.788,1.38l-.269.15-.014,2.031c0,1.12,0,2.036.018,2.036s.223-.132.465-.291a9.558,9.558,0,0,1,3.17-1.3,9.424,9.424,0,0,1,4.153-.141,4.024,4.024,0,0,1,1.958.975,3.3,3.3,0,0,1,.77,1.485,16.187,16.187,0,0,1,.087,2.632c-.023-.009-.282-.137-.583-.282a10.878,10.878,0,0,0-3.352-.947,17.693,17.693,0,0,0-3.188.023c-2.878.446-4.59,1.908-5.1,4.349a9.163,9.163,0,0,0,0,3.324,4.559,4.559,0,0,0,1.494,2.65,7.058,7.058,0,0,0,3.743,1.685,14.273,14.273,0,0,0,3.165.209c3.725-.087,5.993-.7,7.227-1.945a3.526,3.526,0,0,0,.943-2.059c.068-.492.068-9.9,0-10.5a5.448,5.448,0,0,0-1.535-3.411,5.217,5.217,0,0,0-1.58-1.125A10.891,10.891,0,0,0,494.536-600.638Zm1.412,10.9a10.322,10.322,0,0,1,2.746.533l.419.141v1.79c0,1.125-.018,1.881-.05,2.027-.178.833-1.079,1.157-3.388,1.211a7.227,7.227,0,0,1-1.489-.045,5.269,5.269,0,0,1-1.635-.537,2.354,2.354,0,0,1-1.293-1.334,3.529,3.529,0,0,1-.1-1.726c.3-1.266,1.453-1.963,3.443-2.072.314-.018.619-.027.683-.023S495.647-589.754,495.947-589.74Z"
                                      transform="translate(-439.8 605.592)"/>
                                <path id="shop_2x_5_" data-name="shop@2x (5)" class="cls-13"
                                      d="M76.729,287.241a8.773,8.773,0,0,0-2.63.8,5.015,5.015,0,0,0-2.7,2.947,6.507,6.507,0,0,0,.119,3.948,4.944,4.944,0,0,0,2.088,2.17,13.517,13.517,0,0,0,2.063.826c.32.1,1.067.337,1.66.53,2.173.708,2.824,1.221,2.824,2.224a1.809,1.809,0,0,1-.965,1.618c-1.1.657-3.411.6-5.265-.132a20.458,20.458,0,0,1-2.6-1.316l-.14-.085v1.917c0,1.788.005,1.918.075,1.94.042.013.318.123.614.246a16.328,16.328,0,0,0,3.018.943,15.245,15.245,0,0,0,3.5.069,9.313,9.313,0,0,0,3.4-1.039,5.44,5.44,0,0,0,2.113-2.216,6.382,6.382,0,0,0,.312-3.906,4.442,4.442,0,0,0-2.508-2.9,13.518,13.518,0,0,0-2.47-.846,23.245,23.245,0,0,1-2.576-.876,1.8,1.8,0,0,1-1.258-1.527,1.617,1.617,0,0,1,1.042-1.8,4.226,4.226,0,0,1,2.036-.36,6.871,6.871,0,0,1,3.815,1.055c.666.33,1.22.6,1.231.6s.02-.773.02-1.718v-1.718l-.6-.285a11.963,11.963,0,0,0-2.627-.976,12.086,12.086,0,0,0-3.606-.129"
                                      transform="translate(7.368 -280.965)"/>
                                <g id="e_2x" data-name="e@2x" transform="translate(26.599 4.919)">
                                    <path id="Path_3115" data-name="Path 3115" class="cls-12"
                                          d="M70.124-1000.712a8.236,8.236,0,0,0-5.457,2.274,8.2,8.2,0,0,0-1.237,1.6c-.1.181-.409.787-.464.927-.027.069-.066.159-.085.206a11.989,11.989,0,0,0-.45,1.391c-.071.31-.085.379-.137.639a16.48,16.48,0,0,0-.082,5.528c.038.225.154.807.187.933.014.052.036.126.044.165a9.443,9.443,0,0,0,.675,1.8c.074.151.173.335.217.411s.091.156.1.178a8.151,8.151,0,0,0,.982,1.289A10.3,10.3,0,0,0,66-982.066l.365.208a6.031,6.031,0,0,0,.746.373c.077.033.2.088.274.124a5.349,5.349,0,0,0,.672.233,9.6,9.6,0,0,0,1.728.357c.143.016.326.044.409.057.2.033,2.25.033,2.732,0,.532-.038,1.237-.121,1.646-.192l.315-.055c.184-.027.82-.17,1.084-.241l.453-.124c.337-.093.971-.313,1.377-.477l.321-.132.011-1.97c.008-1.081,0-1.975-.011-1.981a.639.639,0,0,0-.208.077,15.256,15.256,0,0,1-1.915.771c-.491.162-.582.189-1.166.346-.1.027-.269.06-.549.11-.1.016-.2.036-.233.044-.134.027-.694.093-1.07.121a13.934,13.934,0,0,1-1.865-.025,6.6,6.6,0,0,1-.892-.162c-.052-.016-.17-.049-.261-.071a2.6,2.6,0,0,1-.247-.082c-.044-.022-.167-.074-.274-.115a4.3,4.3,0,0,1-1.509-1.031,2.865,2.865,0,0,1-.343-.406,1.306,1.306,0,0,0-.082-.11,1.874,1.874,0,0,1-.192-.288.754.754,0,0,0-.077-.132,1.7,1.7,0,0,1-.126-.225c-.027-.06-.08-.178-.118-.261a5.845,5.845,0,0,1-.258-.672c-.016-.06-.041-.137-.055-.173a.429.429,0,0,1-.025-.129.109.109,0,0,0-.025-.08.248.248,0,0,1-.038-.118c-.008-.057-.03-.173-.047-.255s-.041-.219-.052-.3-.03-.176-.038-.206a2.423,2.423,0,0,1-.03-.271l-.016-.217,1.24.016c.683.011,3.651.019,6.592.022l5.35,0,.008-.409a19.664,19.664,0,0,0-.134-2.34,15.4,15.4,0,0,0-.491-2.5,12.5,12.5,0,0,0-.439-1.248,7.968,7.968,0,0,0-1.122-1.876,7.181,7.181,0,0,0-1.5-1.38c-.077-.047-.189-.115-.25-.159a6.63,6.63,0,0,0-1.44-.656c-.159-.049-.318-.1-.357-.112-.066-.022-.258-.071-.562-.137-.074-.019-.211-.044-.3-.058l-.329-.052A14.883,14.883,0,0,0,70.124-1000.712Zm1.317,3.481c.151.016.329.041.4.055.272.049.455.09.521.11l.192.055a1.974,1.974,0,0,1,.343.124,3.337,3.337,0,0,1,.628.351,4.026,4.026,0,0,1,.691.664c.027.044.071.1.093.132a4.291,4.291,0,0,1,.4.746c.025.06.058.132.071.156s.134.384.143.425c.014.072.03.14.1.425a6.471,6.471,0,0,1,.165,1.191c-.005.005-1.967.011-4.359.011H66.484l.014-.132c.008-.071.03-.2.047-.293s.036-.214.044-.275.077-.335.091-.381.036-.129.052-.181c.071-.26.1-.348.115-.4.014-.03.049-.129.082-.219a3.714,3.714,0,0,1,1.141-1.7c.058-.044.132-.1.159-.129a.21.21,0,0,1,.08-.047.856.856,0,0,0,.145-.082,3.053,3.053,0,0,1,.623-.3A13.412,13.412,0,0,1,71.441-997.231Z"
                                          transform="translate(-62.018 1000.735)"/>
                                    <path id="Path_3116" data-name="Path 3116" class="cls-12"
                                          d="M177.36-809.9a.055.055,0,0,0,.052,0c.011-.008-.005-.016-.036-.014S177.339-809.911,177.36-809.9Z"
                                          transform="translate(-174.184 815.154)"/>
                                    <path id="Path_3117" data-name="Path 3117" class="cls-12"
                                          d="M181.36-809.9a.055.055,0,0,0,.052,0c.011-.008-.005-.016-.036-.014S181.338-809.911,181.36-809.9Z"
                                          transform="translate(-178.074 815.154)"/>
                                    <path id="Path_3118" data-name="Path 3118" class="cls-12"
                                          d="M184.724-807.772a.184.184,0,0,0,.011.11c.011.008.022-.036.022-.1C184.757-807.9,184.74-807.9,184.724-807.772Z"
                                          transform="translate(-181.355 813.158)"/>
                                    <path id="Path_3119" data-name="Path 3119" class="cls-12"
                                          d="M186.724-799.772a.184.184,0,0,0,.011.11c.011.008.022-.036.022-.1C186.757-799.9,186.74-799.9,186.724-799.772Z"
                                          transform="translate(-183.3 805.378)"/>
                                    <path id="Path_3120" data-name="Path 3120" class="cls-12"
                                          d="M160.614-795.965c-.069.08-.071.11-.006.049a.491.491,0,0,0,.074-.077C160.683-796.012,160.639-796,160.614-795.965Z"
                                          transform="translate(-157.857 801.617)"/>
                                    <path id="Path_3121" data-name="Path 3121" class="cls-12"
                                          d="M155-783.97c0,.014.014.019.027.011s.027-.022.027-.03-.011-.011-.027-.011A.03.03,0,0,0,155-783.97Z"
                                          transform="translate(-152.449 789.946)"/>
                                    <path id="Path_3122" data-name="Path 3122" class="cls-12"
                                          d="M150.614-779.965c-.069.08-.071.11-.006.049a.482.482,0,0,0,.074-.077C150.683-780.012,150.639-780,150.614-779.965Z"
                                          transform="translate(-148.132 786.056)"/>
                                    <path id="Path_3123" data-name="Path 3123" class="cls-12"
                                          d="M194.366-748.955a.033.033,0,0,0,.014.044c.014.008.027,0,.027-.025C194.407-748.985,194.391-748.993,194.366-748.955Z"
                                          transform="translate(-190.732 755.886)"/>
                                    <path id="Path_3124" data-name="Path 3124" class="cls-12"
                                          d="M127-725.97c0,.014.014.019.027.011s.027-.022.027-.03-.011-.011-.027-.011A.03.03,0,0,0,127-725.97Z"
                                          transform="translate(-125.217 733.537)"/>
                                    <path id="Path_3125" data-name="Path 3125" class="cls-12"
                                          d="M127-556.973a.03.03,0,0,0,.03.027c.014,0,.019-.014.011-.027s-.022-.027-.03-.027S127-556.989,127-556.973Z"
                                          transform="translate(-125.217 569.173)"/>
                                    <path id="Path_3126" data-name="Path 3126" class="cls-12"
                                          d="M141-514.973a.03.03,0,0,0,.03.028c.014,0,.019-.014.011-.028s-.022-.027-.03-.027S141-514.989,141-514.973Z"
                                          transform="translate(-138.833 528.325)"/>
                                    <path id="Path_3127" data-name="Path 3127" class="cls-12"
                                          d="M196.588-492.757a.078.078,0,0,0,.005.074c.036.022.049-.022.027-.08S196.6-492.815,196.588-492.757Z"
                                          transform="translate(-192.89 506.735)"/>
                                    <path id="Path_3128" data-name="Path 3128" class="cls-12"
                                          d="M150.337-491.834c.027.036.06.069.074.069s0-.03-.038-.069C150.291-491.922,150.274-491.922,150.337-491.834Z"
                                          transform="translate(-147.877 505.859)"/>
                                    <path id="Path_3129" data-name="Path 3129" class="cls-12"
                                          d="M160.3-471.959c.011.022.03.041.044.041s.014-.016-.006-.041A.165.165,0,0,0,160.3-472C160.293-472,160.3-471.981,160.3-471.959Z"
                                          transform="translate(-157.6 486.505)"/>
                                    <path id="Path_3130" data-name="Path 3130" class="cls-12"
                                          d="M163.984-465.872c.038.044.077.088.085.1a.2.2,0,0,1,.03.055c.008.022.019.027.03.011s-.036-.077-.1-.137C163.948-465.924,163.934-465.93,163.984-465.872Z"
                                          transform="translate(-161.159 480.583)"/>
                                    <path id="Path_3131" data-name="Path 3131" class="cls-12"
                                          d="M216.363-447.973c.008.014.022.027.03.027s.011-.014.011-.027a.028.028,0,0,0-.03-.027C216.36-448,216.355-447.989,216.363-447.973Z"
                                          transform="translate(-212.125 463.164)"/>
                                    <path id="Path_3132" data-name="Path 3132" class="cls-12"
                                          d="M175.582-446.4c.047.052.085.1.091.107s.011.005.019,0-.033-.055-.091-.107l-.1-.093Z"
                                          transform="translate(-172.387 461.705)"/>
                                    <path id="Path_3133" data-name="Path 3133" class="cls-12"
                                          d="M218-444.078a.166.166,0,0,0,.041.044c.036.03.038.027.025-.011S218-444.108,218-444.078Z"
                                          transform="translate(-213.721 459.362)"/>
                                    <path id="Path_3134" data-name="Path 3134" class="cls-12"
                                          d="M222.363-437.973c.008.014.022.027.03.027s.011-.014.011-.027a.028.028,0,0,0-.03-.027C222.36-438,222.355-437.989,222.363-437.973Z"
                                          transform="translate(-217.96 453.438)"/>
                                    <path id="Path_3135" data-name="Path 3135" class="cls-12"
                                          d="M224-434.078a.167.167,0,0,0,.041.044c.036.03.038.027.025-.011S224-434.108,224-434.078Z"
                                          transform="translate(-219.556 449.636)"/>
                                    <path id="Path_3136" data-name="Path 3136" class="cls-12"
                                          d="M228.363-427.973c.008.014.022.027.03.027s.011-.014.011-.027a.028.028,0,0,0-.03-.027C228.36-428,228.355-427.989,228.363-427.973Z"
                                          transform="translate(-223.796 443.712)"/>
                                    <path id="Path_3137" data-name="Path 3137" class="cls-12"
                                          d="M230.415-423.945a.263.263,0,0,0,.06.055c.005,0-.005-.025-.025-.055s-.047-.055-.06-.055S230.388-423.975,230.415-423.945Z"
                                          transform="translate(-225.766 439.822)"/>
                                    <path id="Path_3138" data-name="Path 3138" class="cls-12"
                                          d="M234.667-418.8c-.011.016,0,.052.033.08s.055.036.055.019-.011-.033-.025-.033-.03-.022-.036-.049S234.678-418.816,234.667-418.8Z"
                                          transform="translate(-229.927 434.773)"/>
                                    <path id="Path_3139" data-name="Path 3139" class="cls-12"
                                          d="M205-412.877c0,.011.027.036.063.058.06.038.06.038.008-.022S205-412.91,205-412.877Z"
                                          transform="translate(-201.078 429.023)"/>
                                    <path id="Path_3140" data-name="Path 3140" class="cls-12"
                                          d="M238.663-412.817c-.008.047,0,.091.011.1s.022-.03.022-.082C238.7-412.921,238.679-412.929,238.663-412.817Z"
                                          transform="translate(-233.813 429.023)"/>
                                    <path id="Path_3141" data-name="Path 3141" class="cls-12"
                                          d="M210.4-408.973c-.008.014,0,.027.027.027s.036-.014.027-.027-.022-.027-.027-.027S210.412-408.989,210.4-408.973Z"
                                          transform="translate(-206.331 425.233)"/>
                                    <path id="Path_3142" data-name="Path 3142" class="cls-12"
                                          d="M214.391-406.466c-.008.016,0,.03.025.03a.064.064,0,0,1,.052.033c.005.019.019.027.03.019s-.005-.038-.036-.063S214.4-406.485,214.391-406.466Z"
                                          transform="translate(-210.208 422.779)"/>
                                    <path id="Path_3143" data-name="Path 3143" class="cls-12"
                                          d="M241.2-405.456c0,.044.005.06.014.033a.207.207,0,0,0,0-.082C241.205-405.522,241.2-405.5,241.2-405.456Z"
                                          transform="translate(-236.284 421.841)"/>
                                    <path id="Path_3144" data-name="Path 3144" class="cls-12"
                                          d="M220.295-402.151c-.049.022-.047.025.019.025a.118.118,0,0,1,.085.036c.005.019.019.027.03.019C220.465-402.1,220.35-402.173,220.295-402.151Z"
                                          transform="translate(-215.92 418.576)"/>
                                    <path id="Path_3145" data-name="Path 3145" class="cls-12"
                                          d="M238.509-400.957a.069.069,0,0,0,.014.06c.019.033.025.027.025-.022S238.534-401,238.509-400.957Z"
                                          transform="translate(-233.665 417.432)"/>
                                    <path id="Path_3146" data-name="Path 3146" class="cls-12"
                                          d="M226.6-398.875l-.1.019.118.005c.074,0,.112-.008.1-.025a.048.048,0,0,0-.022-.025A.856.856,0,0,1,226.6-398.875Z"
                                          transform="translate(-221.988 415.41)"/>
                                    <path id="Path_3147" data-name="Path 3147" class="cls-12"
                                          d="M235.36-395.9a.056.056,0,0,0,.052,0c.011-.008-.005-.016-.036-.014S235.339-395.911,235.36-395.9Z"
                                          transform="translate(-230.593 412.512)"/>
                                    <path id="Path_3148" data-name="Path 3148" class="cls-12"
                                          d="M597.36-765.9a.055.055,0,0,0,.052,0c.011-.008-.005-.016-.036-.014S597.338-765.911,597.36-765.9Z"
                                          transform="translate(-582.662 772.362)"/>
                                    <path id="Path_3149" data-name="Path 3149" class="cls-12"
                                          d="M589.281-763.872a.148.148,0,0,1-.126.134c-.044.008-.047.011-.008.027.066.025.2-.115.162-.17C589.287-763.916,589.281-763.913,589.281-763.872Z"
                                          transform="translate(-574.66 770.402)"/>
                                    <path id="Path_3150" data-name="Path 3150" class="cls-12"
                                          d="M600.439-763.367c-.016.047.014.071.058.047.022-.014.019-.03-.005-.052S600.452-763.4,600.439-763.367Z"
                                          transform="translate(-585.663 769.903)"/>
                                    <path id="Path_3151" data-name="Path 3151" class="cls-12"
                                          d="M604.3-759.945c.027.03.055.049.063.044s-.063-.1-.093-.1C604.255-760,604.268-759.975,604.3-759.945Z"
                                          transform="translate(-589.386 766.604)"/>
                                    <path id="Path_3152" data-name="Path 3152" class="cls-12"
                                          d="M585.042-754.591a.153.153,0,0,1-.036.113c-.019.005-.027.019-.019.03.038.041.1-.082.077-.162S585.045-754.692,585.042-754.591Z"
                                          transform="translate(-570.637 761.42)"/>
                                    <path id="Path_3153" data-name="Path 3153" class="cls-12"
                                          d="M608.366-754.955a.033.033,0,0,0,.014.044c.014.008.027,0,.027-.025C608.407-754.985,608.391-754.993,608.366-754.955Z"
                                          transform="translate(-593.374 761.721)"/>
                                    <path id="Path_3154" data-name="Path 3154" class="cls-12"
                                          d="M610.366-750.955a.033.033,0,0,0,.014.044c.014.008.027,0,.027-.025C610.407-750.985,610.391-750.993,610.366-750.955Z"
                                          transform="translate(-595.319 757.831)"/>
                                    <path id="Path_3155" data-name="Path 3155" class="cls-12"
                                          d="M612.563-746.872c-.008.03,0,.063.011.071s.025-.016.025-.055C612.6-746.941,612.582-746.949,612.563-746.872Z"
                                          transform="translate(-597.456 753.888)"/>
                                    <path id="Path_3156" data-name="Path 3156" class="cls-12"
                                          d="M583-741.97c0,.014.014.019.027.011s.027-.022.027-.03-.011-.011-.027-.011A.03.03,0,0,0,583-741.97Z"
                                          transform="translate(-568.708 749.098)"/>
                                    <path id="Path_3157" data-name="Path 3157" class="cls-12"
                                          d="M614.366-740.955a.034.034,0,0,0,.014.044c.014.008.027,0,.027-.025C614.407-740.985,614.391-740.994,614.366-740.955Z"
                                          transform="translate(-599.21 748.105)"/>
                                    <path id="Path_3158" data-name="Path 3158" class="cls-12"
                                          d="M616.363-735.973c.008.014.022.027.03.027s.011-.014.011-.027a.028.028,0,0,0-.03-.027C616.36-736,616.355-735.989,616.363-735.973Z"
                                          transform="translate(-601.152 743.263)"/>
                                    <path id="Path_3159" data-name="Path 3159" class="cls-12"
                                          d="M579-731.97c0,.014.014.019.027.011s.027-.022.027-.03-.011-.011-.027-.011A.03.03,0,0,0,579-731.97Z"
                                          transform="translate(-564.817 739.372)"/>
                                    <path id="Path_3160" data-name="Path 3160" class="cls-12"
                                          d="M618.363-729.973c.008.014.022.027.03.027s.011-.014.011-.027a.028.028,0,0,0-.03-.027C618.36-730,618.355-729.989,618.363-729.973Z"
                                          transform="translate(-603.097 737.427)"/>
                                    <path id="Path_3161" data-name="Path 3161" class="cls-12"
                                          d="M563-697.882c0,.03.011.049.027.038a.043.043,0,0,0,.008-.055C563.017-697.956,563-697.951,563-697.882Z"
                                          transform="translate(-549.256 706.245)"/>
                                    <path id="Path_3162" data-name="Path 3162" class="cls-12"
                                          d="M561-692.936c0,.022.014.033.027.025a.033.033,0,0,0,.014-.044C561.016-692.994,561-692.985,561-692.936Z"
                                          transform="translate(-547.311 701.422)"/>
                                    <path id="Path_3163" data-name="Path 3163" class="cls-12"
                                          d="M559.081-685.785c0,.03.008.038.016.016a.055.055,0,0,0,0-.052C559.087-685.832,559.078-685.815,559.081-685.785Z"
                                          transform="translate(-545.444 694.463)"/>
                                    <path id="Path_3164" data-name="Path 3164" class="cls-12"
                                          d="M605.651-685.844l-.151.159.159-.151c.146-.137.17-.165.148-.165C605.8-686,605.733-685.929,605.651-685.844Z"
                                          transform="translate(-590.59 694.634)"/>
                                    <path id="Path_3165" data-name="Path 3165" class="cls-12"
                                          d="M561-682.528c0,.019.011.033.025.033s.03.041.036.088c.008.091.008.091.025.016a.112.112,0,0,0-.033-.121C561.022-682.539,561-682.545,561-682.528Z"
                                          transform="translate(-547.311 691.267)"/>
                                    <path id="Path_3166" data-name="Path 3166" class="cls-12"
                                          d="M565-674.877c0,.011.027.036.063.057.06.038.06.038.008-.022S565-674.91,565-674.877Z"
                                          transform="translate(-551.201 683.835)"/>
                                </g>
                            </g>
                            <g id="Group_2006" data-name="Group 2006" transform="translate(1)">
                                <g id="Group_1981" data-name="Group 1981" transform="translate(13.363)">
                                    <g id="Group_1924" data-name="Group 1924">
                                        <g id="Group_1892" data-name="Group 1892">
                                            <path id="Cart_4_" class="cls-11"
                                                  d="M294.881,82.745c-1.7-5.067-8.1-7.366-14.384-7.286-5.994.076-11.73,2.709-13.111,7.286h.153c-.588.017,8.04.006,18.233,0C290.02,82.743,294.881,82.745,294.881,82.745Zm-1.22,0H268.7c1.433-3.427,5.786-6.287,12.213-6.3,5.527.051,10.883,2.084,12.746,6.3Z"
                                                  transform="translate(-267.387 -75.457)"/>
                                        </g>
                                    </g>
                                </g>
                                <g id="Group_1924-2" data-name="Group 1924" transform="translate(0 7.183)">
                                    <g id="Group_1892-2" data-name="Group 1892" transform="translate(0 0)">
                                        <path id="Subtraction_1" data-name="Subtraction 1" class="cls-11"
                                              d="M8.634,7.778a9.5,9.5,0,0,1-3.3-.587,8.722,8.722,0,0,1-2.8-1.671,7.671,7.671,0,0,1-1.873-2.5A6.957,6.957,0,0,1,0,.063C0,.046,0,.029,0,.011H17.29V0c0,.018,0,.035,0,.053v.01a6.959,6.959,0,0,1-.679,3,7.706,7.706,0,0,1-1.853,2.452,8.742,8.742,0,0,1-2.748,1.654,9.495,9.495,0,0,1-3.366.606Z"
                                              transform="translate(2.593 38.905)"/>
                                        <path id="Subtraction_2" data-name="Subtraction 2" class="cls-11"
                                              d="M8.633,12.213a9.5,9.5,0,0,1-3.3-.587,8.724,8.724,0,0,1-2.8-1.671,7.674,7.674,0,0,1-1.873-2.5A6.957,6.957,0,0,1,0,4.5c0-.017,0-.034,0-.051H15.669V0A7.117,7.117,0,0,1,17.29,4.5a6.96,6.96,0,0,1-.679,3,7.706,7.706,0,0,1-1.853,2.452,8.742,8.742,0,0,1-2.748,1.654,9.494,9.494,0,0,1-3.366.606Z"
                                              transform="translate(34.212 34.469)"/>
                                        <path id="Cart_4_2" data-name="Cart_4_" class="cls-11"
                                              d="M80.282,173.373c-1.973-.069-7.462-.118-7.462-.118H37.892a8.425,8.425,0,0,0-4.5,2,5.6,5.6,0,0,0-1.656,3.307l.007,30.357a4.239,4.239,0,0,0,1.774,3.387,9.015,9.015,0,0,0,4.442,1.8l42.177.055a6.454,6.454,0,0,0,4.138-1.788,5.884,5.884,0,0,0,1.8-3.8l.031-29.721a5.114,5.114,0,0,0-1.311-3.2A6.021,6.021,0,0,0,80.282,173.373Z"
                                              transform="translate(-31.739 -173.255)"/>
                                    </g>
                                </g>
                                <g id="Group_1995" data-name="Group 1995" transform="translate(15.645 14.364)">
                                    <path id="Path_3174" data-name="Path 3174" class="cls-12"
                                          d="M0,0,9.119,8.163h0L4.654,13.89l4.595,4.744-9.2,8.33Z"
                                          transform="translate(0 0)"/>
                                    <path id="Path_3173-2" data-name="Path 3173" class="cls-12"
                                          d="M-5390.036,14005.02l-.395,8.047-4.387,5.824,4.387,4.746v8.346h10.9l-11.546-13.092,11.575-13.871Z"
                                          transform="translate(5402.494 -14005.02)"/>
                                </g>
                            </g>
                        </g>
                    </g>
                    <path id="Path_4072-2" data-name="Path 4072" class="cls-3"
                          d="M-5533.405,2154.589s-41.728,11.751-53.478,69.8-9.195,78.1-9.5,130.69,14.539,33.481,0,90.709-23.1,37.031-51.345,97.061-52.8,143.3-52.8,143.3v34.894s4.965,14.951,37.725,47.044c13.006,12.742,20.421,41.893,39.25,180.578,0,0-6.244,6.245,61.293-16.017,17.02-5.61,12.778-1.286,28.855-6.208,46.035-14.094,91.53-49.934,91.53-49.934l-23.4-39.56s-37.513-88.435-30.759-143.877c11.447-93.97,30.759-91.969,30.759-167.383s-26.577-117.618-30.759-140.614c-13.757-75.621-21.143-123.36-21.143-123.36Z"
                          transform="translate(15926.108 -140.883)"/>
                    <path id="Path_4077-2" data-name="Path 4077" class="cls-14"
                          d="M-5718.588,2150.74l-27.56,20.709s5.845,53.464,17.222,71.042,24.294,0,24.294,0Z"
                          transform="translate(16113.672 -125.373)"/>
                    <path id="Path_4080" data-name="Path 4080" class="cls-15"
                          d="M-5843.118,2276.469h239.106l-2.865,2.548h-213.4Z" transform="translate(15835.586 249.84)"/>
                    <g id="Group_2247" data-name="Group 2247"
                       transform="matrix(0.891, -0.454, 0.454, 0.891, 10011.563, 2143.865)">
                        <g class="cls-26" transform="matrix(0.89, 0.45, -0.45, 0.89, -169.2, -814.84)">
                            <path id="Path_4092-2" data-name="Path 4092" class="cls-11"
                                  d="M10.577,0H227.4A10.7,10.7,0,0,1,237.98,10.815V129.783A10.7,10.7,0,0,1,227.4,140.6H10.577A10.7,10.7,0,0,1,0,129.783V10.815A10.7,10.7,0,0,1,10.577,0Z"
                                  transform="matrix(0.89, -0.45, 0.45, 0.89, 520.69, 649.22)"/>
                        </g>
                        <g id="Group_2240" data-name="Group 2240" transform="translate(16.249 72.494)">
                            <text id="Account_Holder" data-name="Account Holder" class="cls-16"
                                  transform="translate(0 7)">
                                <tspan x="0" y="0">Account Holder</tspan>
                            </text>
                            <text id="_1233_5456_7868_9099" data-name="1233 5456 7868 9099" class="cls-16"
                                  transform="translate(0 23.25)">
                                <tspan x="0" y="0">1233 5456 7868 9099</tspan>
                            </text>
                            <g id="Group_2239" data-name="Group 2239" transform="translate(0 36.11)">
                                <text id="_" data-name="*** ** " class="cls-17" transform="translate(0 16)">
                                    <tspan x="0" y="0">*** **</tspan>
                                </text>
                                <text id="_04_22" data-name="04/22" class="cls-18" transform="translate(176.939 7)">
                                    <tspan x="0" y="0">04/22</tspan>
                                </text>
                            </g>
                        </g>
                        <g id="Group_2241" data-name="Group 2241" transform="translate(15.836 10.23)">
                            <rect id="Rectangle_474" data-name="Rectangle 474" class="cls-19" width="36.11"
                                  height="23.472" rx="4" transform="translate(164.714 4.488)"/>
                            <g id="Group_2431" data-name="Group 2431" transform="translate(-1.989 -0.301)">
                                <g id="Group_1981-2" data-name="Group 1981" transform="translate(7.821)">
                                    <g id="Group_1924-3" data-name="Group 1924">
                                        <g id="Group_1892-3" data-name="Group 1892">
                                            <path id="Cart_4_3" data-name="Cart_4_" class="cls-20"
                                                  d="M283.478,79.722c-.995-2.965-4.741-4.311-8.418-4.265-3.508.044-6.865,1.586-7.673,4.265h.09c-.344.01,4.706,0,10.671,0C280.633,79.721,283.478,79.722,283.478,79.722Zm-.714,0H268.157c.839-2.005,3.386-3.68,7.148-3.688,3.235.03,6.369,1.22,7.46,3.688Z"
                                                  transform="translate(-267.387 -75.457)"/>
                                        </g>
                                    </g>
                                </g>
                                <g id="Group_1924-4" data-name="Group 1924" transform="translate(0 4.204)">
                                    <g id="Group_1892-4" data-name="Group 1892" transform="translate(0 0)">
                                        <path id="Subtraction_1-2" data-name="Subtraction 1" class="cls-20"
                                              d="M5.053,4.552a5.558,5.558,0,0,1-1.934-.343A5.1,5.1,0,0,1,1.48,3.231a4.489,4.489,0,0,1-1.1-1.466A4.072,4.072,0,0,1,0,.037c0-.01,0-.02,0-.03H10.119V0c0,.01,0,.021,0,.031V.037a4.073,4.073,0,0,1-.4,1.757A4.51,4.51,0,0,1,8.637,3.229,5.117,5.117,0,0,1,7.028,4.2a5.557,5.557,0,0,1-1.97.355Z"
                                              transform="translate(1.517 22.769)"/>
                                        <path id="Subtraction_2-2" data-name="Subtraction 2" class="cls-20"
                                              d="M5.053,7.148A5.558,5.558,0,0,1,3.119,6.8,5.106,5.106,0,0,1,1.48,5.827a4.491,4.491,0,0,1-1.1-1.466A4.072,4.072,0,0,1,0,2.632c0-.01,0-.02,0-.03h9.17V0a4.165,4.165,0,0,1,.948,2.632,4.073,4.073,0,0,1-.4,1.757A4.51,4.51,0,0,1,8.637,5.825a5.116,5.116,0,0,1-1.608.968,5.557,5.557,0,0,1-1.97.355Z"
                                              transform="translate(20.023 20.174)"/>
                                        <path id="Cart_4_4" data-name="Cart_4_" class="cls-20"
                                              d="M60.149,173.324c-1.155-.041-4.367-.069-4.367-.069H35.34a4.931,4.931,0,0,0-2.631,1.17,3.275,3.275,0,0,0-.969,1.936l0,17.767a2.481,2.481,0,0,0,1.038,1.982,5.276,5.276,0,0,0,2.6,1.053l24.685.032a3.778,3.778,0,0,0,2.422-1.046,3.444,3.444,0,0,0,1.052-2.223l.018-17.394a2.993,2.993,0,0,0-.767-1.876A3.524,3.524,0,0,0,60.149,173.324Z"
                                              transform="translate(-31.739 -173.255)"/>
                                    </g>
                                </g>
                                <g id="Group_1995-2" data-name="Group 1995" transform="translate(9.157 8.407)">
                                    <path id="Path_3174-2" data-name="Path 3174" class="cls-2"
                                          d="M0,0,5.337,4.778h0L2.724,8.129l2.689,2.777L.029,15.781Z"
                                          transform="translate(0 0)"/>
                                    <path id="Path_3173-3" data-name="Path 3173" class="cls-2"
                                          d="M-5392.019,14005.02l-.23,4.709-2.568,3.41,2.568,2.775v4.885h6.382l-6.757-7.66,6.774-8.119Z"
                                          transform="translate(5399.31 -14005.02)"/>
                                </g>
                            </g>
                        </g>
                    </g>
                    <g id="Finger2" transform="translate(9874.691 1916.946)">
                        <path id="Path_4366" data-name="Path 4366" class="cls-3"
                              d="M-12317.662-484.75l-39.412-11.889s-25.666,2.081-31.654,11.889,2.586,33.922,2.586,33.922l68.48,78.265Z"
                              transform="translate(12404.978 500.227)"/>
                        <path id="Path_4372" data-name="Path 4372" class="cls-21"
                              d="M-12114.273-620.865s-14.793-27.038-7.164-39.15,38.777-10.24,38.777-10.24l-6.516-1.854-19.416-3.732s-20.33-1.446-26.781,7.126,1.563,21.919,1.563,21.919l13.984,19.356Z"
                              transform="translate(12137.884 675.934)"/>
                    </g>
                    <g id="Finger3" transform="translate(9863.414 2044.464)">
                        <path id="Path_4363" data-name="Path 4363" class="cls-3"
                              d="M-12307.509-405.672l-52.932,29.049s-29.664,18.459-39.549,39.4-7.51,25.389,1.047,43.808c4.334,9.32,23,25.614,39.457,40.514,15.521,14.059,28.74,27.621,28.74,27.621s24.549,17.409,39.287,3.206,25.154-31.607,19.121-46.821-44.277-68.975-48.145-79.053,12.973-19.072,12.973-19.072Z"
                              transform="translate(12406.441 405.672)"/>
                        <path id="Path_4370" data-name="Path 4370" class="cls-22"
                              d="M-12345.143-293.089l.789,44.4s-16.859-21.029-15.912-30.235C-12358.822-285.054-12345.143-293.089-12345.143-293.089Z"
                              transform="translate(12444.03 329.385)"/>
                        <path id="Path_4373" data-name="Path 4373" class="cls-21"
                              d="M-12063.938-443.7c-7.75-5.2-41.891-41.666-45.967-49.043s-6.705-20.4,3.309-28.221,14.385-7.089,29.742,3.935,33.512,27.862,41.225,35.584,15.492,22.96,5.678,36.568S-12056.188-438.505-12063.938-443.7Z"
                              transform="translate(12158.037 622.239)"/>
                        <path id="Path_4377" data-name="Path 4377" class="cls-22"
                              d="M-12123.445-393.627l8.436,9.242s11.963,12.5,15.861,14.884-.777-1.3-14.756-15.658l-7.271-6.772Z"
                              transform="translate(12176.609 551.636)"/>
                    </g>
                    <g id="Finger5" transform="translate(9874.295 2336.863)">
                        <path id="Path_4365" data-name="Path 4365" class="cls-3"
                              d="M-12380.08-213.93s-14.473,22.8-15.7,39.515-.937,20.9,9.176,35.707,81.779,50.378,81.779,50.378,24.008,7.149,32.879-6.046,11.064-29.089,0-36.826-50.846-28.585-69.7-43.213S-12380.08-213.93-12380.08-213.93Z"
                              transform="translate(12396.284 213.93)"/>
                        <path id="Path_4379" data-name="Path 4379" class="cls-21"
                              d="M52.244,72.6c-7.635-4.69-43.622-34.64-47.638-41.3s-8.535-20.2,1.33-27.26S22.04-.569,37.171,9.381,69.426,35.033,77.026,42s6.891,17.325-.511,26.461S59.88,77.289,52.244,72.6Z"
                              transform="translate(49.127 62.216) rotate(-9)"/>
                    </g>
                    <g id="Finger4" transform="translate(9867.494 2202.443)">
                        <path id="Path_4364" data-name="Path 4364" class="cls-3"
                              d="M-12354.773-304.646s-32.5,31.7-38.941,49.738-14.9,28.854-6.779,56.246,70.752,85.271,70.752,85.271,28.588,14.129,47.057,3.919,23.236-28.047,18.535-41a126.863,126.863,0,0,0-12.873-24.848s-46.6-73.6-48.225-79.584-7.84-28.308-7.84-28.308Z"
                              transform="translate(12403.832 304.646)"/>
                        <path id="Path_4369" data-name="Path 4369" class="cls-22"
                              d="M-12361.633-291.167s6.053,3.966,10.547,6.382,13.707,3.67,13.707,3.67l.02,14.667v32.286s-13.449-16.706-17.9-27.805S-12361.633-291.167-12361.633-291.167Z"
                              transform="translate(12432.313 312.246)"/>
                        <path id="Path_4378" data-name="Path 4378" class="cls-21"
                              d="M57.877,86.251C49.417,80.679,9.552,45.1,5.1,37.185s-9.454-24,1.474-32.386,17.839-5.475,34.6,6.346S76.909,41.621,85.329,49.9s7.632,20.583-.564,31.437S66.335,91.823,57.877,86.251Z"
                              transform="matrix(0.995, 0.105, -0.105, 0.995, 58.296, 107.412)"/>
                        <path id="Path_4376" data-name="Path 4376" class="cls-22"
                              d="M-12124.318-394.141s18.994,26.8,23,30.281,22.85,15.353,30.523,19.766a36.42,36.42,0,0,0,13.783,4.9s-24.012-13.436-40.018-27.1A227.108,227.108,0,0,1-12124.318-394.141Z"
                              transform="translate(12151.707 537.233)"/>
                    </g>
                    <g id="Group_2328" data-name="Group 2328" transform="translate(9618.876 1622.647)">
                        <path id="Path_4087" data-name="Path 4087" class="cls-23"
                              d="M865.074,949.287c0,329.768-267.33,597.1-597.1,597.1s-597.1-267.33-597.1-597.1,267.33-597.1,597.1-597.1,597.1,267.329,597.1,597.1"
                              transform="translate(329.121 -352.189)"/>
                    </g>
                </g>
            </g>
        </g>
    </g>
</svg>
