<svg xmlns="http://www.w3.org/2000/svg" xmlns:xlink="http://www.w3.org/1999/xlink" width="1451" height="1451"
     viewBox="0 0 1451 1451">
    <defs>
        <style>
            .cls-1 {
            clip-path: url(#clip-Step_1);
            }

            .cls-2 {
            fill: #FFEFEF;
            opacity: 0.75;
            }

            .cls-3 {
            fill: rgba(255,202,8,0);
            }

            .cls-4 {
            fill: url(#linear-gradient);
            }

            .cls-5 {
            fill: #70C2FB;opacity: 0.99;
            }

            .cls-6 {
            fill: #70C2FB;opacity: 0.45;
            }

            .cls-7 {
            fill: #179CF8;opacity: 0.99;
            }

            .cls-10, .cls-7 {
            fill-rule: evenodd;
            }

            .cls-8 {
            fill: #FC667E;
            }

            .cls-10, .cls-9 {
            fill: #1B9BD9;
            }

            .cls-11 {
            fill: rgba(255,255,255,0.25);
            }

            .cls-12 {
            fill: #70C2FB;opacity: 0.45;
            }

            .cls-13 {
            fill: #70C2FB;opacity: 0.99;
            }

            .cls-14 {
            fill: #B7E0FD;opacity: 0.99;
            }

            .cls-15 {
            fill: none;
            stroke: #B7E0FD;
            stroke-width: 24px;
            opacity: 1;
            }

            .cls-16, .cls-17 {
            stroke: none;
            }

            .cls-17 {
            fill: rgba(255,202,8,0.1);
            }
        </style>
        <linearGradient id="linear-gradient" x1="3.487" y1="1.332" x2="-0.315" y2="0.425"
                        gradientUnits="objectBoundingBox">
            <stop offset="0" stop-color="#cf9174"/>
            <stop offset="1" stop-color="#91624c"/>
        </linearGradient>
        <clipPath id="clip-Step_1">
            <rect width="1451" height="1451"/>
        </clipPath>
    </defs>
    <g id="Step_1" data-name="Step 1" class="cls-1">
        <rect fill="none" width="1451" height="1451"/>
        <rect id="Rectangle_508" data-name="Rectangle 508" fill="none" width="1451" height="1451"/>
        <g id="Group_2440" data-name="Group 2440" transform="translate(-3343 -1477)">
            <rect id="Rectangle_509" data-name="Rectangle 509" fill="none" width="1451" height="1451"
                  transform="translate(3346 1477)"/>
            <g id="Group_2321" data-name="Group 2321" transform="translate(3482 1612)">
                <g id="Group_2320" data-name="Group 2320" transform="translate(241.925 129.602)">
                    <g id="Path_4327" data-name="Path 4327" class="cls-3" transform="translate(58.146 510.177)">
                        <path class="cls-16"
                              d="M9.431,0H245.21a9.431,9.431,0,0,1,9.431,9.431v96.2a9.431,9.431,0,0,1-9.431,9.431H9.431A9.431,9.431,0,0,1,0,105.629V9.431A9.431,9.431,0,0,1,9.431,0Z"/>
                        <path class="cls-17"
                              d="M 9.431167602539062 0.9999923706054688 C 4.782211303710938 0.9999923706054688 1 4.782188415527344 1 9.431159973144531 L 1 105.6290588378906 C 1 110.2780227661133 4.782211303710938 114.0602569580078 9.431167602539062 114.0602569580078 L 245.2103424072266 114.0602569580078 C 249.8592681884766 114.0602569580078 253.6414794921875 110.2780227661133 253.6414794921875 105.6290588378906 L 253.6414794921875 9.431159973144531 C 253.6414794921875 4.782188415527344 249.8592681884766 0.9999923706054688 245.2103424072266 0.9999923706054688 L 9.431167602539062 0.9999923706054688 M 9.431167602539062 -7.62939453125e-06 L 245.2103424072266 -7.62939453125e-06 C 250.4189758300781 -7.62939453125e-06 254.6414794921875 4.222488403320312 254.6414794921875 9.431159973144531 L 254.6414794921875 105.6290588378906 C 254.6414794921875 110.837760925293 250.4189758300781 115.0602569580078 245.2103424072266 115.0602569580078 L 9.431167602539062 115.0602569580078 C 4.22247314453125 115.0602569580078 0 110.837760925293 0 105.6290588378906 L 0 9.431159973144531 C 0 4.222488403320312 4.22247314453125 -7.62939453125e-06 9.431167602539062 -7.62939453125e-06 Z"/>
                    </g>
                    <path id="Path_4328" data-name="Path 4328" class="cls-4"
                          d="M955.739,760.706s19.06,72.95,12.049,97.487-12.049,61.34-12.049,61.34S956.122,791.157,955.739,760.706Z"
                          transform="translate(-613.805 -355.101)"/>
                    <g id="Group_2317" data-name="Group 2317" transform="translate(117.318 268.622)">
                        <path id="Path_4072" data-name="Path 4072" class="cls-5"
                              d="M-5487.53,2197.271s-28.195-59.612-39.544-3.972,18.093,143.825,18.093,143.825l-18.093,87.442s-38.025,60.893-69.83,118.369-26.8,98.672-26.8,98.672l-225.887-22.126s33.745,68.786,72.514,100.85,35.585,19.658,75.353,50.052,60.834,157.987,60.834,157.987,88.127-15.419,153.359-36.757,110.495-53.368,110.495-53.368-66.442-98.586-75.675-150.988,29.217-76.673,29.217-76.673,48.014-70.911,32.105-137.4c-16.422-107.321-50.275-225.283-50.275-225.283Z"
                              transform="translate(5849.589 -2145.695)"/>
                        <path id="Path_4077" data-name="Path 4077" class="cls-6"
                              d="M-5719.263,2150.417l-30.715,21.371s11.676,51.317,22.748,68.422,21.54,0,21.54,0Z"
                              transform="translate(6116.077 -2150.417)"/>
                    </g>
                    <g id="Group_2318" data-name="Group 2318" transform="translate(94.471)">
                        <path id="Path_1010" data-name="Path 1010" class="cls-7"
                              d="M-276.521,1065.166a43.507,43.507,0,0,0,43.578,43.578H85.335a43.507,43.507,0,0,0,43.578-43.578v-677.8a43.507,43.507,0,0,0-43.578-43.578H-232.943a43.507,43.507,0,0,0-43.578,43.578Z"
                              transform="translate(276.521 -343.789)"/>
                        <path id="Path_1011" data-name="Path 1011" class="cls-2"
                              d="M-236.7,988.189H33.332c20.233,0,36.575-19.454,36.575-43.578V369.533c0-24.124-16.342-17.12-36.575-17.12H-235.92c-20.233,0-36.574-7-36.574,17.12V944.611C-273.272,968.735-256.931,988.189-236.7,988.189Z"
                              transform="translate(304.125 -291.712)"/>
                        <g id="Group_2428" data-name="Group 2428" transform="translate(49.604 83.398)">
                            <g id="Group_1926" data-name="Group 1926" transform="translate(61.352 17.597)">
                                <path id="Path_3096" data-name="Path 3096" class="cls-8"
                                      d="M656.459,248.2v18.68a7.628,7.628,0,0,0,.341,2.991,5.4,5.4,0,0,0,3.779,3.19,9.359,9.359,0,0,0,2.7.039,7.751,7.751,0,0,0,1.785-.284c.166-.056.486-.106.594-.256a.6.6,0,0,0,.047-.342v-3.543c-.317.091-.6.266-.915.367a5.385,5.385,0,0,1-1.694.231,1.839,1.839,0,0,1-1.144-.259c-1.013-.707-.778-2.166-.778-3.238v-8.6h4.532v-3.589h-4.532V248.2Z"
                                      transform="translate(-656.456 -248.203)"/>
                                <path id="Path_3112" data-name="Path 3112" class="cls-9"
                                      d="M656.459,248.2v18.68a7.628,7.628,0,0,0,.341,2.991,5.4,5.4,0,0,0,3.779,3.19,9.359,9.359,0,0,0,2.7.039,7.751,7.751,0,0,0,1.785-.284c.166-.056.486-.106.594-.256a.6.6,0,0,0,.047-.342v-3.543c-.317.091-.6.266-.915.367a5.385,5.385,0,0,1-1.694.231,1.839,1.839,0,0,1-1.144-.259c-1.013-.707-.778-2.166-.778-3.238v-8.6h4.532v-3.589h-4.532V248.2Z"
                                      transform="translate(-589.96 -248.203)"/>
                                <path id="Path_3098" data-name="Path 3098" class="cls-9"
                                      d="M918.934,396.439H923.4V382.049c0-.238-.107-.836.073-1.014.108-.107.332-.105.474-.128.424-.07.85-.1,1.275-.146a20.229,20.229,0,0,1,3.279-.08,15.682,15.682,0,0,1,2.186.184v-2.6c0-.227.1-.738-.073-.912a1.464,1.464,0,0,0-.565-.272,7.753,7.753,0,0,0-1.639-.286,10.942,10.942,0,0,0-2.323.051,20.532,20.532,0,0,0-4.645,1.055,14.637,14.637,0,0,0-1.822.763c-.2.1-.517.195-.636.391a.775.775,0,0,0-.047.395v16.986Z"
                                      transform="translate(-906.907 -371.472)"/>
                                <path id="Path_3111" data-name="Path 3111" class="cls-9"
                                      d="M494.536-600.638a16.294,16.294,0,0,0-5.788,1.38l-.269.15-.014,2.031c0,1.12,0,2.036.018,2.036s.223-.132.465-.291a9.558,9.558,0,0,1,3.17-1.3,9.424,9.424,0,0,1,4.153-.141,4.024,4.024,0,0,1,1.958.975,3.3,3.3,0,0,1,.77,1.485,16.187,16.187,0,0,1,.087,2.632c-.023-.009-.282-.137-.583-.282a10.878,10.878,0,0,0-3.352-.947,17.693,17.693,0,0,0-3.188.023c-2.878.446-4.59,1.908-5.1,4.349a9.163,9.163,0,0,0,0,3.324,4.559,4.559,0,0,0,1.494,2.65,7.058,7.058,0,0,0,3.743,1.685,14.273,14.273,0,0,0,3.165.209c3.725-.087,5.993-.7,7.227-1.945a3.526,3.526,0,0,0,.943-2.059c.068-.492.068-9.9,0-10.5a5.448,5.448,0,0,0-1.535-3.411,5.217,5.217,0,0,0-1.58-1.125A10.891,10.891,0,0,0,494.536-600.638Zm1.412,10.9a10.322,10.322,0,0,1,2.746.533l.419.141v1.79c0,1.125-.018,1.881-.05,2.027-.178.833-1.079,1.157-3.388,1.211a7.227,7.227,0,0,1-1.489-.045,5.269,5.269,0,0,1-1.635-.537,2.354,2.354,0,0,1-1.293-1.334,3.529,3.529,0,0,1-.1-1.726c.3-1.266,1.453-1.963,3.443-2.072.314-.018.619-.027.683-.023S495.647-589.754,495.947-589.74Z"
                                      transform="translate(-439.8 605.592)"/>
                                <path id="shop_2x_5_" data-name="shop@2x (5)" class="cls-10"
                                      d="M76.729,287.241a8.773,8.773,0,0,0-2.63.8,5.015,5.015,0,0,0-2.7,2.947,6.507,6.507,0,0,0,.119,3.948,4.944,4.944,0,0,0,2.088,2.17,13.517,13.517,0,0,0,2.063.826c.32.1,1.067.337,1.66.53,2.173.708,2.824,1.221,2.824,2.224a1.809,1.809,0,0,1-.965,1.618c-1.1.657-3.411.6-5.265-.132a20.458,20.458,0,0,1-2.6-1.316l-.14-.085v1.917c0,1.788.005,1.918.075,1.94.042.013.318.123.614.246a16.328,16.328,0,0,0,3.018.943,15.245,15.245,0,0,0,3.5.069,9.313,9.313,0,0,0,3.4-1.039,5.44,5.44,0,0,0,2.113-2.216,6.382,6.382,0,0,0,.312-3.906,4.442,4.442,0,0,0-2.508-2.9,13.518,13.518,0,0,0-2.47-.846,23.245,23.245,0,0,1-2.576-.876,1.8,1.8,0,0,1-1.258-1.527,1.617,1.617,0,0,1,1.042-1.8,4.226,4.226,0,0,1,2.036-.36,6.871,6.871,0,0,1,3.815,1.055c.666.33,1.22.6,1.231.6s.02-.773.02-1.718v-1.718l-.6-.285a11.963,11.963,0,0,0-2.627-.976,12.086,12.086,0,0,0-3.606-.129"
                                      transform="translate(7.368 -280.965)"/>
                                <g id="e_2x" data-name="e@2x" transform="translate(26.599 4.919)">
                                    <path id="Path_3115" data-name="Path 3115" class="cls-9"
                                          d="M70.124-1000.712a8.236,8.236,0,0,0-5.457,2.274,8.2,8.2,0,0,0-1.237,1.6c-.1.181-.409.787-.464.927-.027.069-.066.159-.085.206a11.989,11.989,0,0,0-.45,1.391c-.071.31-.085.379-.137.639a16.48,16.48,0,0,0-.082,5.528c.038.225.154.807.187.933.014.052.036.126.044.165a9.443,9.443,0,0,0,.675,1.8c.074.151.173.335.217.411s.091.156.1.178a8.151,8.151,0,0,0,.982,1.289A10.3,10.3,0,0,0,66-982.066l.365.208a6.031,6.031,0,0,0,.746.373c.077.033.2.088.274.124a5.349,5.349,0,0,0,.672.233,9.6,9.6,0,0,0,1.728.357c.143.016.326.044.409.057.2.033,2.25.033,2.732,0,.532-.038,1.237-.121,1.646-.192l.315-.055c.184-.027.82-.17,1.084-.241l.453-.124c.337-.093.971-.313,1.377-.477l.321-.132.011-1.97c.008-1.081,0-1.975-.011-1.981a.639.639,0,0,0-.208.077,15.256,15.256,0,0,1-1.915.771c-.491.162-.582.189-1.166.346-.1.027-.269.06-.549.11-.1.016-.2.036-.233.044-.134.027-.694.093-1.07.121a13.934,13.934,0,0,1-1.865-.025,6.6,6.6,0,0,1-.892-.162c-.052-.016-.17-.049-.261-.071a2.6,2.6,0,0,1-.247-.082c-.044-.022-.167-.074-.274-.115a4.3,4.3,0,0,1-1.509-1.031,2.865,2.865,0,0,1-.343-.406,1.306,1.306,0,0,0-.082-.11,1.874,1.874,0,0,1-.192-.288.754.754,0,0,0-.077-.132,1.7,1.7,0,0,1-.126-.225c-.027-.06-.08-.178-.118-.261a5.845,5.845,0,0,1-.258-.672c-.016-.06-.041-.137-.055-.173a.429.429,0,0,1-.025-.129.109.109,0,0,0-.025-.08.248.248,0,0,1-.038-.118c-.008-.057-.03-.173-.047-.255s-.041-.219-.052-.3-.03-.176-.038-.206a2.423,2.423,0,0,1-.03-.271l-.016-.217,1.24.016c.683.011,3.651.019,6.592.022l5.35,0,.008-.409a19.664,19.664,0,0,0-.134-2.34,15.4,15.4,0,0,0-.491-2.5,12.5,12.5,0,0,0-.439-1.248,7.968,7.968,0,0,0-1.122-1.876,7.181,7.181,0,0,0-1.5-1.38c-.077-.047-.189-.115-.25-.159a6.63,6.63,0,0,0-1.44-.656c-.159-.049-.318-.1-.357-.112-.066-.022-.258-.071-.562-.137-.074-.019-.211-.044-.3-.058l-.329-.052A14.883,14.883,0,0,0,70.124-1000.712Zm1.317,3.481c.151.016.329.041.4.055.272.049.455.09.521.11l.192.055a1.974,1.974,0,0,1,.343.124,3.337,3.337,0,0,1,.628.351,4.026,4.026,0,0,1,.691.664c.027.044.071.1.093.132a4.291,4.291,0,0,1,.4.746c.025.06.058.132.071.156s.134.384.143.425c.014.072.03.14.1.425a6.471,6.471,0,0,1,.165,1.191c-.005.005-1.967.011-4.359.011H66.484l.014-.132c.008-.071.03-.2.047-.293s.036-.214.044-.275.077-.335.091-.381.036-.129.052-.181c.071-.26.1-.348.115-.4.014-.03.049-.129.082-.219a3.714,3.714,0,0,1,1.141-1.7c.058-.044.132-.1.159-.129a.21.21,0,0,1,.08-.047.856.856,0,0,0,.145-.082,3.053,3.053,0,0,1,.623-.3A13.412,13.412,0,0,1,71.441-997.231Z"
                                          transform="translate(-62.018 1000.735)"/>
                                    <path id="Path_3116" data-name="Path 3116" class="cls-9"
                                          d="M177.36-809.9a.055.055,0,0,0,.052,0c.011-.008-.005-.016-.036-.014S177.339-809.911,177.36-809.9Z"
                                          transform="translate(-174.184 815.154)"/>
                                    <path id="Path_3117" data-name="Path 3117" class="cls-9"
                                          d="M181.36-809.9a.055.055,0,0,0,.052,0c.011-.008-.005-.016-.036-.014S181.338-809.911,181.36-809.9Z"
                                          transform="translate(-178.074 815.154)"/>
                                    <path id="Path_3118" data-name="Path 3118" class="cls-9"
                                          d="M184.724-807.772a.184.184,0,0,0,.011.11c.011.008.022-.036.022-.1C184.757-807.9,184.74-807.9,184.724-807.772Z"
                                          transform="translate(-181.355 813.158)"/>
                                    <path id="Path_3119" data-name="Path 3119" class="cls-9"
                                          d="M186.724-799.772a.184.184,0,0,0,.011.11c.011.008.022-.036.022-.1C186.757-799.9,186.74-799.9,186.724-799.772Z"
                                          transform="translate(-183.3 805.378)"/>
                                    <path id="Path_3120" data-name="Path 3120" class="cls-9"
                                          d="M160.614-795.965c-.069.08-.071.11-.006.049a.491.491,0,0,0,.074-.077C160.683-796.012,160.639-796,160.614-795.965Z"
                                          transform="translate(-157.857 801.617)"/>
                                    <path id="Path_3121" data-name="Path 3121" class="cls-9"
                                          d="M155-783.97c0,.014.014.019.027.011s.027-.022.027-.03-.011-.011-.027-.011A.03.03,0,0,0,155-783.97Z"
                                          transform="translate(-152.449 789.946)"/>
                                    <path id="Path_3122" data-name="Path 3122" class="cls-9"
                                          d="M150.614-779.965c-.069.08-.071.11-.006.049a.482.482,0,0,0,.074-.077C150.683-780.012,150.639-780,150.614-779.965Z"
                                          transform="translate(-148.132 786.056)"/>
                                    <path id="Path_3123" data-name="Path 3123" class="cls-9"
                                          d="M194.366-748.955a.033.033,0,0,0,.014.044c.014.008.027,0,.027-.025C194.407-748.985,194.391-748.993,194.366-748.955Z"
                                          transform="translate(-190.732 755.886)"/>
                                    <path id="Path_3124" data-name="Path 3124" class="cls-9"
                                          d="M127-725.97c0,.014.014.019.027.011s.027-.022.027-.03-.011-.011-.027-.011A.03.03,0,0,0,127-725.97Z"
                                          transform="translate(-125.217 733.537)"/>
                                    <path id="Path_3125" data-name="Path 3125" class="cls-9"
                                          d="M127-556.973a.03.03,0,0,0,.03.027c.014,0,.019-.014.011-.027s-.022-.027-.03-.027S127-556.989,127-556.973Z"
                                          transform="translate(-125.217 569.173)"/>
                                    <path id="Path_3126" data-name="Path 3126" class="cls-9"
                                          d="M141-514.973a.03.03,0,0,0,.03.028c.014,0,.019-.014.011-.028s-.022-.027-.03-.027S141-514.989,141-514.973Z"
                                          transform="translate(-138.833 528.325)"/>
                                    <path id="Path_3127" data-name="Path 3127" class="cls-9"
                                          d="M196.588-492.757a.078.078,0,0,0,.005.074c.036.022.049-.022.027-.08S196.6-492.815,196.588-492.757Z"
                                          transform="translate(-192.89 506.735)"/>
                                    <path id="Path_3128" data-name="Path 3128" class="cls-9"
                                          d="M150.337-491.834c.027.036.06.069.074.069s0-.03-.038-.069C150.291-491.922,150.274-491.922,150.337-491.834Z"
                                          transform="translate(-147.877 505.859)"/>
                                    <path id="Path_3129" data-name="Path 3129" class="cls-9"
                                          d="M160.3-471.959c.011.022.03.041.044.041s.014-.016-.006-.041A.165.165,0,0,0,160.3-472C160.293-472,160.3-471.981,160.3-471.959Z"
                                          transform="translate(-157.6 486.505)"/>
                                    <path id="Path_3130" data-name="Path 3130" class="cls-9"
                                          d="M163.984-465.872c.038.044.077.088.085.1a.2.2,0,0,1,.03.055c.008.022.019.027.03.011s-.036-.077-.1-.137C163.948-465.924,163.934-465.93,163.984-465.872Z"
                                          transform="translate(-161.159 480.583)"/>
                                    <path id="Path_3131" data-name="Path 3131" class="cls-9"
                                          d="M216.363-447.973c.008.014.022.027.03.027s.011-.014.011-.027a.028.028,0,0,0-.03-.027C216.36-448,216.355-447.989,216.363-447.973Z"
                                          transform="translate(-212.125 463.164)"/>
                                    <path id="Path_3132" data-name="Path 3132" class="cls-9"
                                          d="M175.582-446.4c.047.052.085.1.091.107s.011.005.019,0-.033-.055-.091-.107l-.1-.093Z"
                                          transform="translate(-172.387 461.705)"/>
                                    <path id="Path_3133" data-name="Path 3133" class="cls-9"
                                          d="M218-444.078a.166.166,0,0,0,.041.044c.036.03.038.027.025-.011S218-444.108,218-444.078Z"
                                          transform="translate(-213.721 459.362)"/>
                                    <path id="Path_3134" data-name="Path 3134" class="cls-9"
                                          d="M222.363-437.973c.008.014.022.027.03.027s.011-.014.011-.027a.028.028,0,0,0-.03-.027C222.36-438,222.355-437.989,222.363-437.973Z"
                                          transform="translate(-217.96 453.438)"/>
                                    <path id="Path_3135" data-name="Path 3135" class="cls-9"
                                          d="M224-434.078a.167.167,0,0,0,.041.044c.036.03.038.027.025-.011S224-434.108,224-434.078Z"
                                          transform="translate(-219.556 449.636)"/>
                                    <path id="Path_3136" data-name="Path 3136" class="cls-9"
                                          d="M228.363-427.973c.008.014.022.027.03.027s.011-.014.011-.027a.028.028,0,0,0-.03-.027C228.36-428,228.355-427.989,228.363-427.973Z"
                                          transform="translate(-223.796 443.712)"/>
                                    <path id="Path_3137" data-name="Path 3137" class="cls-9"
                                          d="M230.415-423.945a.263.263,0,0,0,.06.055c.005,0-.005-.025-.025-.055s-.047-.055-.06-.055S230.388-423.975,230.415-423.945Z"
                                          transform="translate(-225.766 439.822)"/>
                                    <path id="Path_3138" data-name="Path 3138" class="cls-9"
                                          d="M234.667-418.8c-.011.016,0,.052.033.08s.055.036.055.019-.011-.033-.025-.033-.03-.022-.036-.049S234.678-418.816,234.667-418.8Z"
                                          transform="translate(-229.927 434.773)"/>
                                    <path id="Path_3139" data-name="Path 3139" class="cls-9"
                                          d="M205-412.877c0,.011.027.036.063.058.06.038.06.038.008-.022S205-412.91,205-412.877Z"
                                          transform="translate(-201.078 429.023)"/>
                                    <path id="Path_3140" data-name="Path 3140" class="cls-9"
                                          d="M238.663-412.817c-.008.047,0,.091.011.1s.022-.03.022-.082C238.7-412.921,238.679-412.929,238.663-412.817Z"
                                          transform="translate(-233.813 429.023)"/>
                                    <path id="Path_3141" data-name="Path 3141" class="cls-9"
                                          d="M210.4-408.973c-.008.014,0,.027.027.027s.036-.014.027-.027-.022-.027-.027-.027S210.412-408.989,210.4-408.973Z"
                                          transform="translate(-206.331 425.233)"/>
                                    <path id="Path_3142" data-name="Path 3142" class="cls-9"
                                          d="M214.391-406.466c-.008.016,0,.03.025.03a.064.064,0,0,1,.052.033c.005.019.019.027.03.019s-.005-.038-.036-.063S214.4-406.485,214.391-406.466Z"
                                          transform="translate(-210.208 422.779)"/>
                                    <path id="Path_3143" data-name="Path 3143" class="cls-9"
                                          d="M241.2-405.456c0,.044.005.06.014.033a.207.207,0,0,0,0-.082C241.205-405.522,241.2-405.5,241.2-405.456Z"
                                          transform="translate(-236.284 421.841)"/>
                                    <path id="Path_3144" data-name="Path 3144" class="cls-9"
                                          d="M220.295-402.151c-.049.022-.047.025.019.025a.118.118,0,0,1,.085.036c.005.019.019.027.03.019C220.465-402.1,220.35-402.173,220.295-402.151Z"
                                          transform="translate(-215.92 418.576)"/>
                                    <path id="Path_3145" data-name="Path 3145" class="cls-9"
                                          d="M238.509-400.957a.069.069,0,0,0,.014.06c.019.033.025.027.025-.022S238.534-401,238.509-400.957Z"
                                          transform="translate(-233.665 417.432)"/>
                                    <path id="Path_3146" data-name="Path 3146" class="cls-9"
                                          d="M226.6-398.875l-.1.019.118.005c.074,0,.112-.008.1-.025a.048.048,0,0,0-.022-.025A.856.856,0,0,1,226.6-398.875Z"
                                          transform="translate(-221.988 415.41)"/>
                                    <path id="Path_3147" data-name="Path 3147" class="cls-9"
                                          d="M235.36-395.9a.056.056,0,0,0,.052,0c.011-.008-.005-.016-.036-.014S235.339-395.911,235.36-395.9Z"
                                          transform="translate(-230.593 412.512)"/>
                                    <path id="Path_3148" data-name="Path 3148" class="cls-9"
                                          d="M597.36-765.9a.055.055,0,0,0,.052,0c.011-.008-.005-.016-.036-.014S597.338-765.911,597.36-765.9Z"
                                          transform="translate(-582.662 772.362)"/>
                                    <path id="Path_3149" data-name="Path 3149" class="cls-9"
                                          d="M589.281-763.872a.148.148,0,0,1-.126.134c-.044.008-.047.011-.008.027.066.025.2-.115.162-.17C589.287-763.916,589.281-763.913,589.281-763.872Z"
                                          transform="translate(-574.66 770.402)"/>
                                    <path id="Path_3150" data-name="Path 3150" class="cls-9"
                                          d="M600.439-763.367c-.016.047.014.071.058.047.022-.014.019-.03-.005-.052S600.452-763.4,600.439-763.367Z"
                                          transform="translate(-585.663 769.903)"/>
                                    <path id="Path_3151" data-name="Path 3151" class="cls-9"
                                          d="M604.3-759.945c.027.03.055.049.063.044s-.063-.1-.093-.1C604.255-760,604.268-759.975,604.3-759.945Z"
                                          transform="translate(-589.386 766.604)"/>
                                    <path id="Path_3152" data-name="Path 3152" class="cls-9"
                                          d="M585.042-754.591a.153.153,0,0,1-.036.113c-.019.005-.027.019-.019.03.038.041.1-.082.077-.162S585.045-754.692,585.042-754.591Z"
                                          transform="translate(-570.637 761.42)"/>
                                    <path id="Path_3153" data-name="Path 3153" class="cls-9"
                                          d="M608.366-754.955a.033.033,0,0,0,.014.044c.014.008.027,0,.027-.025C608.407-754.985,608.391-754.993,608.366-754.955Z"
                                          transform="translate(-593.374 761.721)"/>
                                    <path id="Path_3154" data-name="Path 3154" class="cls-9"
                                          d="M610.366-750.955a.033.033,0,0,0,.014.044c.014.008.027,0,.027-.025C610.407-750.985,610.391-750.993,610.366-750.955Z"
                                          transform="translate(-595.319 757.831)"/>
                                    <path id="Path_3155" data-name="Path 3155" class="cls-9"
                                          d="M612.563-746.872c-.008.03,0,.063.011.071s.025-.016.025-.055C612.6-746.941,612.582-746.949,612.563-746.872Z"
                                          transform="translate(-597.456 753.888)"/>
                                    <path id="Path_3156" data-name="Path 3156" class="cls-9"
                                          d="M583-741.97c0,.014.014.019.027.011s.027-.022.027-.03-.011-.011-.027-.011A.03.03,0,0,0,583-741.97Z"
                                          transform="translate(-568.708 749.098)"/>
                                    <path id="Path_3157" data-name="Path 3157" class="cls-9"
                                          d="M614.366-740.955a.034.034,0,0,0,.014.044c.014.008.027,0,.027-.025C614.407-740.985,614.391-740.994,614.366-740.955Z"
                                          transform="translate(-599.21 748.105)"/>
                                    <path id="Path_3158" data-name="Path 3158" class="cls-9"
                                          d="M616.363-735.973c.008.014.022.027.03.027s.011-.014.011-.027a.028.028,0,0,0-.03-.027C616.36-736,616.355-735.989,616.363-735.973Z"
                                          transform="translate(-601.152 743.263)"/>
                                    <path id="Path_3159" data-name="Path 3159" class="cls-9"
                                          d="M579-731.97c0,.014.014.019.027.011s.027-.022.027-.03-.011-.011-.027-.011A.03.03,0,0,0,579-731.97Z"
                                          transform="translate(-564.817 739.372)"/>
                                    <path id="Path_3160" data-name="Path 3160" class="cls-9"
                                          d="M618.363-729.973c.008.014.022.027.03.027s.011-.014.011-.027a.028.028,0,0,0-.03-.027C618.36-730,618.355-729.989,618.363-729.973Z"
                                          transform="translate(-603.097 737.427)"/>
                                    <path id="Path_3161" data-name="Path 3161" class="cls-9"
                                          d="M563-697.882c0,.03.011.049.027.038a.043.043,0,0,0,.008-.055C563.017-697.956,563-697.951,563-697.882Z"
                                          transform="translate(-549.256 706.245)"/>
                                    <path id="Path_3162" data-name="Path 3162" class="cls-9"
                                          d="M561-692.936c0,.022.014.033.027.025a.033.033,0,0,0,.014-.044C561.016-692.994,561-692.985,561-692.936Z"
                                          transform="translate(-547.311 701.422)"/>
                                    <path id="Path_3163" data-name="Path 3163" class="cls-9"
                                          d="M559.081-685.785c0,.03.008.038.016.016a.055.055,0,0,0,0-.052C559.087-685.832,559.078-685.815,559.081-685.785Z"
                                          transform="translate(-545.444 694.463)"/>
                                    <path id="Path_3164" data-name="Path 3164" class="cls-9"
                                          d="M605.651-685.844l-.151.159.159-.151c.146-.137.17-.165.148-.165C605.8-686,605.733-685.929,605.651-685.844Z"
                                          transform="translate(-590.59 694.634)"/>
                                    <path id="Path_3165" data-name="Path 3165" class="cls-9"
                                          d="M561-682.528c0,.019.011.033.025.033s.03.041.036.088c.008.091.008.091.025.016a.112.112,0,0,0-.033-.121C561.022-682.539,561-682.545,561-682.528Z"
                                          transform="translate(-547.311 691.267)"/>
                                    <path id="Path_3166" data-name="Path 3166" class="cls-9"
                                          d="M565-674.877c0,.011.027.036.063.057.06.038.06.038.008-.022S565-674.91,565-674.877Z"
                                          transform="translate(-551.201 683.835)"/>
                                </g>
                            </g>
                            <g id="Group_2006" data-name="Group 2006" transform="translate(1)">
                                <g id="Group_1981" data-name="Group 1981" transform="translate(13.363)">
                                    <g id="Group_1924" data-name="Group 1924">
                                        <g id="Group_1892" data-name="Group 1892">
                                            <path id="Cart_4_" class="cls-8"
                                                  d="M294.881,82.745c-1.7-5.067-8.1-7.366-14.384-7.286-5.994.076-11.73,2.709-13.111,7.286h.153c-.588.017,8.04.006,18.233,0C290.02,82.743,294.881,82.745,294.881,82.745Zm-1.22,0H268.7c1.433-3.427,5.786-6.287,12.213-6.3,5.527.051,10.883,2.084,12.746,6.3Z"
                                                  transform="translate(-267.387 -75.457)"/>
                                        </g>
                                    </g>
                                </g>
                                <g id="Group_1924-2" data-name="Group 1924" transform="translate(0 7.183)">
                                    <g id="Group_1892-2" data-name="Group 1892" transform="translate(0 0)">
                                        <path id="Subtraction_1" data-name="Subtraction 1" class="cls-8"
                                              d="M8.634,7.778a9.5,9.5,0,0,1-3.3-.587,8.722,8.722,0,0,1-2.8-1.671,7.671,7.671,0,0,1-1.873-2.5A6.957,6.957,0,0,1,0,.063C0,.046,0,.029,0,.011H17.29V0c0,.018,0,.035,0,.053v.01a6.959,6.959,0,0,1-.679,3,7.706,7.706,0,0,1-1.853,2.452,8.742,8.742,0,0,1-2.748,1.654,9.495,9.495,0,0,1-3.366.606Z"
                                              transform="translate(2.593 38.905)"/>
                                        <path id="Subtraction_2" data-name="Subtraction 2" class="cls-8"
                                              d="M8.633,12.213a9.5,9.5,0,0,1-3.3-.587,8.724,8.724,0,0,1-2.8-1.671,7.674,7.674,0,0,1-1.873-2.5A6.957,6.957,0,0,1,0,4.5c0-.017,0-.034,0-.051H15.669V0A7.117,7.117,0,0,1,17.29,4.5a6.96,6.96,0,0,1-.679,3,7.706,7.706,0,0,1-1.853,2.452,8.742,8.742,0,0,1-2.748,1.654,9.494,9.494,0,0,1-3.366.606Z"
                                              transform="translate(34.212 34.469)"/>
                                        <path id="Cart_4_2" data-name="Cart_4_" class="cls-8"
                                              d="M80.282,173.373c-1.973-.069-7.462-.118-7.462-.118H37.892a8.425,8.425,0,0,0-4.5,2,5.6,5.6,0,0,0-1.656,3.307l.007,30.357a4.239,4.239,0,0,0,1.774,3.387,9.015,9.015,0,0,0,4.442,1.8l42.177.055a6.454,6.454,0,0,0,4.138-1.788,5.884,5.884,0,0,0,1.8-3.8l.031-29.721a5.114,5.114,0,0,0-1.311-3.2A6.021,6.021,0,0,0,80.282,173.373Z"
                                              transform="translate(-31.739 -173.255)"/>
                                    </g>
                                </g>
                                <g id="Group_1995" data-name="Group 1995" transform="translate(15.645 14.364)">
                                    <path id="Path_3174" data-name="Path 3174" class="cls-9"
                                          d="M0,0,9.119,8.163h0L4.654,13.89l4.595,4.744-9.2,8.33Z"
                                          transform="translate(0 0)"/>
                                    <path id="Path_3173" data-name="Path 3173" class="cls-9"
                                          d="M-5390.036,14005.02l-.395,8.047-4.387,5.824,4.387,4.746v8.346h10.9l-11.546-13.092,11.575-13.871Z"
                                          transform="translate(5402.494 -14005.02)"/>
                                </g>
                            </g>
                        </g>
                    </g>
                    <g id="Group_2319" data-name="Group 2319" transform="translate(127.064 258.073)">
                        <path id="Path_4072-2" data-name="Path 4072" class="cls-5"
                              d="M-5535.464,2154.589s-41.215,11.606-52.818,68.94-9.083,77.134-9.383,129.08,14.36,33.069,0,89.591-22.812,36.574-50.712,95.865-52.151,141.538-52.151,141.538v34.463s4.9,14.767,37.26,46.465c12.846,12.584,10.85,37.539,29.445,174.515,0,0,1.278,10.005,67.984-11.983,15.543-5.123,31.618-4.538,46.4-9.083,47.241-14.532,74.379-46.366,74.379-46.366l-23.116-39.072s-37.051-87.346-30.38-142.1c11.307-92.812,30.38-90.836,30.38-165.32s-26.249-116.169-30.38-138.882c-13.588-74.689-20.883-121.839-20.883-121.839Z"
                              transform="translate(5930.769 -2154.589)"/>
                        <path id="Path_4077-2" data-name="Path 4077" class="cls-11"
                              d="M-5718.928,2150.741l-27.22,20.453s5.772,52.807,17.009,70.167,24,0,24,0Z"
                              transform="translate(6116.583 -2139.223)"/>
                        <path id="Path_4080" data-name="Path 4080" class="cls-12"
                              d="M-5843.118,2276.469h226.751v2.517h-204.2Z" transform="translate(5843.118 -1770.181)"/>
                    </g>
                    <path id="Path_4329" data-name="Path 4329" class="cls-13"
                          d="M-5784.277,2257.918l17.846-39.756v6.184s-.733,9.693-9.051,19.466S-5784.277,2257.918-5784.277,2257.918Z"
                          transform="translate(5860.904 -1599.306)"/>
                    <g id="Finger2" transform="translate(6.66 154.114)">
                        <path id="Path_4366" data-name="Path 4366" class="cls-5"
                              d="M-12317.662-484.75l-39.412-11.889s-25.666,2.081-31.654,11.889,2.586,33.922,2.586,33.922l68.48,78.265Z"
                              transform="translate(12404.978 500.227)"/>
                        <path id="Path_4372" data-name="Path 4372" class="cls-14"
                              d="M-12114.273-620.865s-14.793-27.038-7.164-39.15,38.777-10.24,38.777-10.24l-6.516-1.854-19.416-3.732s-20.33-1.446-26.781,7.126,1.563,21.919,1.563,21.919l13.984,19.356Z"
                              transform="translate(12137.884 675.934)"/>
                    </g>
                    <g id="Finger3" transform="translate(-4.617 281.632)">
                        <path id="Path_4363" data-name="Path 4363" class="cls-5"
                              d="M-12307.509-405.672l-52.932,29.049s-29.664,18.459-39.549,39.4-7.51,25.389,1.047,43.808c4.334,9.32,23,25.614,39.457,40.514,15.521,14.059,28.74,27.621,28.74,27.621s24.549,17.409,39.287,3.206,25.154-31.607,19.121-46.821-44.277-68.975-48.145-79.053,12.973-19.072,12.973-19.072Z"
                              transform="translate(12406.441 405.672)"/>
                        <path id="Path_4370" data-name="Path 4370" class="cls-13"
                              d="M-12345.143-293.089l.789,44.4s-16.859-21.029-15.912-30.235C-12358.822-285.054-12345.143-293.089-12345.143-293.089Z"
                              transform="translate(12444.03 329.385)"/>
                        <path id="Path_4373" data-name="Path 4373" class="cls-14"
                              d="M-12063.938-443.7c-7.75-5.2-41.891-41.666-45.967-49.043s-6.705-20.4,3.309-28.221,14.385-7.089,29.742,3.935,33.512,27.862,41.225,35.584,15.492,22.96,5.678,36.568S-12056.188-438.505-12063.938-443.7Z"
                              transform="translate(12158.037 622.239)"/>
                        <path id="Path_4377" data-name="Path 4377" class="cls-13"
                              d="M-12123.445-393.627l8.436,9.242s11.963,12.5,15.861,14.884-.777-1.3-14.756-15.658l-7.271-6.772Z"
                              transform="translate(12176.609 551.636)"/>
                    </g>
                    <g id="Finger5" transform="translate(6.264 574.03)">
                        <path id="Path_4365" data-name="Path 4365" class="cls-5"
                              d="M-12380.08-213.93s-14.473,22.8-15.7,39.515-.937,20.9,9.176,35.707,81.779,50.378,81.779,50.378,24.008,7.149,32.879-6.046,11.064-29.089,0-36.826-50.846-28.585-69.7-43.213S-12380.08-213.93-12380.08-213.93Z"
                              transform="translate(12396.284 213.93)"/>
                        <path id="Path_4379" data-name="Path 4379" class="cls-14"
                              d="M52.244,72.6c-7.635-4.69-43.622-34.64-47.638-41.3s-8.535-20.2,1.33-27.26S22.04-.569,37.171,9.381,69.426,35.033,77.026,42s6.891,17.325-.511,26.461S59.88,77.289,52.244,72.6Z"
                              transform="translate(49.127 62.216) rotate(-9)"/>
                    </g>
                    <g id="Finger4" transform="translate(-0.537 439.611)">
                        <path id="Path_4364" data-name="Path 4364" class="cls-5"
                              d="M-12354.773-304.646s-32.5,31.7-38.941,49.738-14.9,28.854-6.779,56.246,70.752,85.271,70.752,85.271,28.588,14.129,47.057,3.919,23.236-28.047,18.535-41a126.863,126.863,0,0,0-12.873-24.848s-46.6-73.6-48.225-79.584-7.84-28.308-7.84-28.308Z"
                              transform="translate(12403.832 304.646)"/>
                        <path id="Path_4369" data-name="Path 4369" class="cls-13"
                              d="M-12361.633-291.167s6.053,3.966,10.547,6.382,13.707,3.67,13.707,3.67l.02,14.667v32.286s-13.449-16.706-17.9-27.805S-12361.633-291.167-12361.633-291.167Z"
                              transform="translate(12432.313 312.246)"/>
                        <path id="Path_4378" data-name="Path 4378" class="cls-14"
                              d="M57.877,86.251C49.417,80.679,9.552,45.1,5.1,37.185s-9.454-24,1.474-32.386,17.839-5.475,34.6,6.346S76.909,41.621,85.329,49.9s7.632,20.583-.564,31.437S66.335,91.823,57.877,86.251Z"
                              transform="matrix(0.995, 0.105, -0.105, 0.995, 58.296, 107.412)"/>
                        <path id="Path_4376" data-name="Path 4376" class="cls-13"
                              d="M-12124.318-394.141s18.994,26.8,23,30.281,22.85,15.353,30.523,19.766a36.42,36.42,0,0,0,13.783,4.9s-24.012-13.436-40.018-27.1A227.108,227.108,0,0,1-12124.318-394.141Z"
                              transform="translate(12151.707 537.233)"/>
                    </g>
                    <g id="Group_2357" data-name="Group 2357" transform="translate(204.075 187.711)">
                        <g id="Group_2336" data-name="Group 2336" transform="translate(0 0)">
                            <path id="Path_3174-2" data-name="Path 3174" class="cls-8"
                                  d="M309,366.908a92.957,92.957,0,1,1-92.956-92.955A92.96,92.96,0,0,1,309,366.908Z"
                                  transform="translate(-123.087 -273.953)"/>
                            <g id="Group_1986" data-name="Group 1986" transform="translate(6.489 6.185)">
                                <path id="Path_3175" data-name="Path 3175" class="cls-2"
                                      d="M233.562,467.9a87.147,87.147,0,1,1,87.151-87.147A87.243,87.243,0,0,1,233.562,467.9Zm0-170.232c-46.907,0-85.069,37.281-85.069,83.1s38.162,83.1,85.069,83.1,85.076-37.281,85.076-83.1-38.162-83.106-85.076-83.106Z"
                                      transform="translate(-146.419 -293.609)"/>
                            </g>
                        </g>
                    </g>
                    <g id="Group_2358" data-name="Group 2358" transform="translate(204.075 438.985)">
                        <g id="Group_2336-2" data-name="Group 2336">
                            <path id="Path_3174-3" data-name="Path 3174" class="cls-8"
                                  d="M309,366.908a92.957,92.957,0,1,1-92.956-92.955A92.96,92.96,0,0,1,309,366.908Z"
                                  transform="translate(-123.087 -273.953)"/>
                            <g id="Group_1986-2" data-name="Group 1986" transform="translate(6.489 6.185)">
                                <path id="Path_3175-2" data-name="Path 3175" class="cls-2"
                                      d="M233.562,467.9a87.147,87.147,0,1,1,87.151-87.147A87.243,87.243,0,0,1,233.562,467.9Zm0-170.232c-46.907,0-85.069,37.281-85.069,83.1s38.162,83.1,85.069,83.1,85.076-37.281,85.076-83.1-38.162-83.106-85.076-83.106Z"
                                      transform="translate(-146.419 -293.609)"/>
                            </g>
                        </g>
                    </g>
                </g>
                <path id="Path_4330" data-name="Path 4330" class="cls-15"
                      d="M850.36,941.93c0,325.7-264.036,589.74-589.741,589.74s-589.74-264.036-589.74-589.74,264.036-589.741,589.74-589.741S850.36,616.225,850.36,941.93"
                      transform="translate(329.121 -352.189)"/>
            </g>
        </g>
    </g>
</svg>
