<?xml version="1.0" encoding="UTF-8"?>
<!DOCTYPE svg PUBLIC "-//W3C//DTD SVG 1.1//EN" "http://www.w3.org/Graphics/SVG/1.1/DTD/svg11.dtd">
<!-- Creator: CorelDRAW 2018 (64-Bit Evaluation Version) -->
<svg xmlns="http://www.w3.org/2000/svg" xml:space="preserve" width="200.2mm" height="200.2mm" version="1.1" style="shape-rendering:geometricPrecision; text-rendering:geometricPrecision; image-rendering:optimizeQuality; fill-rule:evenodd; clip-rule:evenodd"
viewBox="0 0 10048.51 10048.51"
 xmlns:xlink="http://www.w3.org/1999/xlink">
 <defs>
  <style type="text/css">
   <![CDATA[
    .str1 {stroke:#3B9CFF;stroke-width:34;stroke-miterlimit:22.9256}
    .str0 {stroke:none;stroke-width:10.04;stroke-miterlimit:22.9256}
    .fil1 {fill:none}
    .fil20 {fill:none}
    .fil4 {fill:#00C2FF}
    .fil2 {fill:#3B9CFF}
    .fil0 {fill:#3D4852}
    .fil3 {fill:#99E7FF}
    .fil16 {fill:#B4DCFF}
    .fil6 {fill:#D8F6FF}
    .fil5 {fill:#FBD13E}
    .fil17 {fill:white}
    .fil7 {fill:#00C2FF;fill-rule:nonzero}
    .fil8 {fill:#3B9CFF;fill-rule:nonzero}
    .fil14 {fill:#3B9CFF}
    .fil13 {fill:#84C3FF}
    .fil10 {fill:#8BC7FF}
    .fil9 {fill:#FBD13E}
    .fil12 {fill:#FBD13E}
    .fil19 {fill:#FDE89E}
    .fil15 {fill:white}
    .fil11 {fill:white}
    .fil18 {fill:white}
   ]]>
  </style>
 </defs>
 <g id="Layer_x0020_1">
  <metadata id="CorelCorpID_0Corel-Layer"/>
  <g id="_2242922731520">
   <polygon class="fil0 str0" points="5.02,5.02 10043.49,5.02 10043.49,10043.49 5.02,10043.49 "/>
   <polygon class="fil1 str1" points="3633.87,312.12 2024.76,1146.55 1059.74,2341.76 621.5,3112.01 552.87,4424.53 470.98,5756.97 946.84,6868.06 1210.23,7394.84 1590.93,7850.79 1971.63,8227.05 2580.29,8769.32 5014.97,9433.33 7817.07,8574.55 9189.34,6932.25 9707.26,4913.67 9401.81,3058.87 8578.43,1717.58 7737.36,978.32 6429.28,323.18 4678.51,99.63 "/>
   <ellipse class="fil2" cx="645.53" cy="3207.17" rx="377.66" ry="376.26"/>
   <polyline class="fil1 str1" points="2580.29,8769.32 3912.73,6332.42 4922.02,9094.67 5024.88,9430.29 4913.16,6173.07 4934.72,6801.33 7817.07,8574.55 6884.8,6437.85 6475.8,5739.24 "/>
   <line class="fil1 str1" x1="3315.14" y1="7810.92" x2="4621.01" y2= "9068.11" />
   <polyline class="fil1 str1" points="2592.77,8746.51 2770.65,7169.05 2009.26,8196.04 "/>
   <polyline class="fil1 str1" points="1626.35,7434.66 2770.65,7169.06 946.84,6868.06 "/>
   <line class="fil1 str1" x1="2724.18" y1="7127" x2="557.32" y2= "5827.76" />
   <line class="fil1 str1" x1="1484.71" y1="5157.12" x2="2764.02" y2= "7100.44" />
   <line class="fil1 str1" x1="1307.64" y1="5223.52" x2="1539.18" y2= "6416.48" />
   <line class="fil1 str1" x1="984.5" y1="5132.77" x2="541.83" y2= "5675.04" />
   <line class="fil1 str1" x1="2994.2" y1="5068.58" x2="2764.02" y2= "7100.44" />
   <line class="fil1 str1" x1="2812.71" y1="7132.52" x2="3822" y2= "6346.78" />
   <line class="fil1 str1" x1="1730.39" y1="4870.47" x2="3122.59" y2= "5136.08" />
   <line class="fil1 str1" x1="2648.93" y1="4669.06" x2="3071.68" y2= "5169.28" />
   <line class="fil1 str1" x1="3166.86" y1="4213.1" x2="2675.5" y2= "4600.43" />
   <line class="fil1 str1" x1="1725.97" y1="4746.51" x2="2591.39" y2= "4646.91" />
   <line class="fil1 str1" x1="1559.97" y1="4069.24" x2="2573.68" y2= "4622.58" />
   <line class="fil1 str1" x1="1834.43" y1="3126.37" x2="2591.4" y2= "4573.9" />
   <line class="fil1 str1" x1="1781.32" y1="3175.07" x2="1387.34" y2= "4387.98" />
   <line class="fil1 str1" x1="851.71" y1="3414.11" x2="1471.45" y2= "4011.71" />
   <line class="fil1 str1" x1="756.53" y1="3498.21" x2="1092.96" y2= "4361.42" />
   <line class="fil1 str1" x1="597.17" y1="4443.31" x2="838.43" y2= "4567.26" />
   <line class="fil1 str1" x1="955.73" y1="3161.79" x2="1761.39" y2= "3102.03" />
   <line class="fil1 str1" x1="1137.23" y1="2502.22" x2="1745.9" y2= "3031.21" />
   <line class="fil1 str1" x1="2578.12" y1="2345.07" x2="1830.01" y2= "3079.9" />
   <polyline class="fil1 str1" points="2279.32,1605.8 2593.61,2325.15 1227.98,2367.2 "/>
   <polyline class="fil1 str1" points="2655.58,2314.07 4198.29,2258.74 2480.73,1324.71 "/>
   <line class="fil1 str1" x1="2655.59" y1="2358.34" x2="3810.95" y2= "3194.99" />
   <line class="fil1 str1" x1="2640.09" y1="2387.11" x2="3408.13" y2= "3723.98" />
   <line class="fil1 str1" x1="1887.56" y1="3119.73" x2="3359.44" y2= "3816.94" />
   <line class="fil1 str1" x1="3702.51" y1="417.25" x2="4189.45" y2= "2196.78" />
   <line class="fil1 str1" x1="6196.48" y1="6547.34" x2="6871.99" y2= "6437.55" />
   <line class="fil1 str1" x1="6918.47" y1="6437.55" x2="9156.17" y2= "6915.64" />
   <line class="fil1 str1" x1="8952.54" y1="6349.02" x2="9200.55" y2= "6888.54" />
   <line class="fil1 str1" x1="6923.99" y1="6411" x2="8194.45" y2= "6045.79" />
   <line class="fil1 str1" x1="7842.52" y1="5206.94" x2="6899.64" y2= "6397.72" />
   <line class="fil1 str1" x1="7112.1" y1="5182.59" x2="7850.26" y2= "5188.13" />
   <line class="fil1 str1" x1="7149.73" y1="4999.99" x2="7840.3" y2= "5169.31" />
   <polyline class="fil1 str1" points="7343.39,3301.26 7865.75,5168.21 7168.55,4687.9 "/>
   <line class="fil1 str1" x1="9322.12" y1="3190.59" x2="7896.73" y2= "5204.74" />
   <line class="fil1 str1" x1="7276.99" y1="3243.71" x2="9286.71" y2= "3106.48" />
   <line class="fil1 str1" x1="7299.13" y1="3310.11" x2="6940.56" y2= "3960.83" />
   <line class="fil1 str1" x1="6325.25" y1="3186.16" x2="7276.99" y2= "3243.71" />
   <line class="fil1 str1" x1="6646.64" y1="2762.09" x2="6265.94" y2= "3147.22" />
   <line class="fil1 str1" x1="9685.11" y1="4939.14" x2="9085.3" y2= "5547.81" />
   <polyline class="fil1 str1" points="9667.41,4910.36 7896.73,5204.74 8297.35,5534.53 "/>
   <line class="fil1 str1" x1="8512" y1="1774.05" x2="7392.41" y2= "3235.83" />
   <line class="fil1 str1" x1="7772.75" y1="2181.3" x2="7343.39" y2= "3301.26" />
   <line class="fil1 str1" x1="6887.4" y1="2986.96" x2="7254.82" y2= "3220.47" />
   <line class="fil1 str1" x1="7135.3" y1="2910.6" x2="7297.98" y2= "3207.19" />
   <line class="fil1 str1" x1="7728.47" y1="2163.59" x2="7281.37" y2= "2424.77" />
   <line class="fil1 str1" x1="8514.21" y1="1743.05" x2="7834.71" y2= "2108.25" />
   <line class="fil1 str1" x1="6184.65" y1="2337.34" x2="6592.29" y2= "2833.18" />
   <line class="fil1 str1" x1="6197.93" y1="2295.29" x2="6609.61" y2= "2494.49" />
   <line class="fil1 str1" x1="6211.2" y1="2270.94" x2="7745.06" y2= "2146.99" />
   <line class="fil1 str1" x1="6129.31" y1="2297.49" x2="5801.73" y2= "2853.05" />
   <line class="fil1 str1" x1="5558.27" y1="2301.92" x2="5697.7" y2= "2879.61" />
   <line class="fil1 str1" x1="5496.29" y1="2299.71" x2="5210.77" y2= "2742.38" />
   <polyline class="fil1 str1" points="4232.46,2226.67 5529.48,2239.95 5587.03,2257.66 "/>
   <line class="fil1 str1" x1="5610.26" y1="2245.49" x2="6109.38" y2= "2282.01" />
   <line class="fil1 str1" x1="5598.1" y1="2208.97" x2="6700.34" y2= "1648.99" />
   <line class="fil1 str1" x1="6195.7" y1="2246.59" x2="6755.68" y2= "1653.42" />
   <line class="fil1 str1" x1="7536.97" y1="1133.28" x2="6996.91" y2= "1471.92" />
   <line class="fil1 str1" x1="6027.46" y1="1403.31" x2="6656.05" y2= "1520.62" />
   <line class="fil1 str1" x1="6429.28" y1="323.18" x2="6815.41" y2= "1456.43" />
   <line class="fil1 str1" x1="6386.02" y1="340.91" x2="5890.23" y2= "947.37" />
   <line class="fil1 str1" x1="4699.45" y1="150.55" x2="5297.05" y2= "965.06" />
   <polyline class="fil1 str1" points="4189.45,2196.78 4447.13,717.17 5150.97,1084.59 "/>
   <line class="fil1 str1" x1="3725.58" y1="323.19" x2="4447.13" y2= "717.17" />
   <line class="fil1 str1" x1="4664.03" y1="146.12" x2="4453.76" y2= "641.91" />
   <line class="fil1 str1" x1="4232.46" y1="2226.67" x2="5208.52" y2= "1567.08" />
   <line class="fil1 str1" x1="7798.1" y1="1314.77" x2="7787.04" y2= "2093.86" />
   <line class="fil1 str1" x1="7021.22" y1="1666.69" x2="7711.78" y2= "2107.14" />
   <line class="fil1 str1" x1="4179.27" y1="2270.93" x2="3986.7" y2= "3103.15" />
   <line class="fil1 str1" x1="4198.29" y1="2258.74" x2="4528.98" y2= "2906.16" />
   <ellipse class="fil2" cx="4991.56" cy="9477.43" rx="555.55" ry="553.5"/>
   <ellipse class="fil2" cx="2110.28" cy="1144.12" rx="555.55" ry="553.5"/>
   <ellipse class="fil2" cx="6631.61" cy="7846.33" rx="555.55" ry="553.5"/>
   <ellipse class="fil3" cx="8672.3" cy="5909.65" rx="555.55" ry="553.5"/>
   <ellipse class="fil2" cx="1255.37" cy="4804.08" rx="555.55" ry="553.5"/>
   <ellipse class="fil4" cx="5575.13" cy="1325.28" rx="524.13" ry="522.19"/>
   <ellipse class="fil5" cx="3183.93" cy="7667.74" rx="232.74" ry="231.88"/>
   <ellipse class="fil5" cx="6845.13" cy="1582.57" rx="232.74" ry="231.88"/>
   <ellipse class="fil2" cx="8577.9" cy="1720.32" rx="97.66" ry="97.3"/>
   <ellipse class="fil2" cx="6161.19" cy="2286.44" rx="97.66" ry="97.3"/>
   <ellipse class="fil3" cx="5529.48" cy="2239.95" rx="97.66" ry="97.3"/>
   <ellipse class="fil5" cx="4195.73" cy="2239.97" rx="97.66" ry="97.3"/>
   <ellipse class="fil5" cx="2618.43" cy="2341.22" rx="97.66" ry="97.3"/>
   <ellipse class="fil5" cx="2618.14" cy="4650.02" rx="97.66" ry="97.3"/>
   <ellipse class="fil3" cx="2776.95" cy="7159.41" rx="97.66" ry="97.3"/>
   <ellipse class="fil2" cx="1539.18" cy="6416.48" rx="97.66" ry="97.3"/>
   <ellipse class="fil5" cx="946.84" cy="6868.07" rx="134.14" ry="133.64"/>
   <ellipse class="fil2" cx="1998.96" cy="8230.67" rx="97.66" ry="97.3"/>
   <ellipse class="fil2" cx="2589.14" cy="8767.11" rx="97.66" ry="97.3"/>
   <ellipse class="fil2" cx="4679.11" cy="114.88" rx="97.66" ry="97.3"/>
   <ellipse class="fil2" cx="6429.28" cy="323.18" rx="97.66" ry="97.3"/>
   <ellipse class="fil2" cx="3662.06" cy="321.83" rx="151.54" ry="150.98"/>
   <ellipse class="fil5" cx="4425.12" cy="681.22" rx="97.66" ry="97.3"/>
   <ellipse class="fil5" cx="9730.61" cy="4923.9" rx="97.66" ry="97.3"/>
   <ellipse class="fil4" cx="7887.13" cy="5202.6" rx="97.66" ry="97.3"/>
   <ellipse class="fil5" cx="7328.55" cy="3263.33" rx="97.66" ry="97.3"/>
   <ellipse class="fil4" cx="7778.72" cy="2146.95" rx="97.66" ry="97.3"/>
   <ellipse class="fil5" cx="7817.77" cy="8578.98" rx="138.57" ry="138.06"/>
   <ellipse class="fil4" cx="9207.59" cy="6946.08" rx="138.57" ry="138.06"/>
   <ellipse class="fil2" cx="1804.07" cy="3108.74" rx="127.97" ry="127.5"/>
   <ellipse class="fil4" cx="1500.48" cy="4039.7" rx="127.97" ry="127.5"/>
   <ellipse class="fil2" cx="7780.28" cy="971.69" rx="377.66" ry="376.26"/>
   <ellipse class="fil4" cx="6944.59" cy="2620.75" rx="409.33" ry="407.82"/>
   <ellipse class="fil5" cx="9401.81" cy="3058.87" rx="232.74" ry="231.88"/>
   <ellipse class="fil3" cx="1052.78" cy="2380.48" rx="232.74" ry="231.88"/>
   <ellipse class="fil6" cx="5104.04" cy="4801.65" rx="2107.1" ry="2115.96"/>
   <line class="fil1 str1" x1="6880.82" y1="6473.13" x2="6721.46" y2= "7416.01" />
   <g>
    <path class="fil7" d="M4260.09 5018.36c28.09,-26.24 42.14,-61.12 42.14,-104.81 0,-43.68 -14.51,-78.25 -43.37,-103.57 -29.02,-25.32 -62.98,-38.13 -101.88,-38.44 -39.05,0 -71.78,13.12 -98.32,39.36 -26.55,26.55 -39.82,60.82 -39.82,103.11 0,42.14 13.43,76.71 40.28,103.42 26.86,26.86 60.05,40.29 99.56,40.29 39.52,0 73.32,-13.12 101.41,-39.37zm127.34 112.53c-53.12,0.56 -84.06,-11.39 -84.28,-64.96l0 -1.42c-13.58,22.69 -34.12,40.91 -61.59,54.79 -27.47,13.89 -57.57,20.84 -90.45,20.84 -60.05,0 -111.91,-20.99 -155.59,-62.98 -41.83,-41.83 -62.82,-96.16 -62.82,-162.69 0,-66.68 20.84,-120.86 62.36,-162.38 41.67,-41.67 93.38,-62.67 155.28,-62.97 33.34,0 63.75,6.48 90.91,19.44 27.01,12.97 47.7,31.34 61.9,54.79l0 -300.22c45.56,-0.05 82.89,14.51 84.28,67.88l0 599.86z"/>
    <path class="fil7" d="M4796.03 5018.36c28.09,-26.24 42.14,-61.12 42.14,-104.81 0,-43.68 -14.51,-78.25 -43.38,-103.57 -29.02,-25.32 -62.98,-38.13 -101.87,-38.44 -39.05,0 -71.78,13.12 -98.33,39.36 -26.55,26.55 -39.82,60.82 -39.82,103.11 0,42.14 13.43,76.71 40.28,103.42 26.86,26.86 60.05,40.29 99.56,40.29 39.52,0 73.32,-13.12 101.41,-39.37zm43.07 112.53l0 -66.37c-13.58,22.69 -34.11,40.91 -61.59,54.79 -27.48,13.89 -57.58,20.84 -90.45,20.84 -60.05,0 -111.91,-20.99 -155.59,-62.98 -41.83,-41.83 -62.82,-96.16 -62.82,-162.69 0,-66.68 20.84,-120.86 62.36,-162.38 41.68,-41.67 93.38,-62.67 155.28,-62.97 33.34,0 63.75,6.48 90.91,19.44 27.01,12.97 47.7,31.34 61.9,54.79l0 -232.16c-0.31,-54.38 32.64,-67.65 84.28,-68.05l0 602.81c-0.17,47.21 -27.77,65.07 -84.28,64.93z"/>
    <path class="fil8" d="M5169.53 4604.63l0 93.75 90.76 0c-2.22,44.24 -15.38,72.48 -60.17,75.02l-30.59 0 0 357.48c-47.85,-0.11 -82.57,-17.21 -84.28,-64.94l0 -292.55 -77.79 0c-1.23,-43.37 18.83,-72.62 64.23,-75.02l13.57 0 0 -158.36c50.19,0.45 82.75,18.58 84.28,64.61z"/>
    <path class="fil8" d="M6013.34 5018.82c27.78,-25.93 41.67,-60.81 41.67,-104.8 0,-43.99 -14.51,-78.72 -43.38,-104.03 -29.02,-25.32 -63.13,-38.13 -102.33,-38.44 -39.36,0 -72.24,13.12 -98.79,39.36 -26.55,25.93 -39.82,59.89 -39.82,102.18 0,42.14 13.58,76.87 40.75,103.88 27.17,27.17 60.66,40.76 100.49,40.76 39.82,0 73.63,-12.97 101.41,-38.9zm42.6 112.06l0 -66.37c-13.59,22.69 -34.12,40.91 -61.59,54.79 -27.47,13.89 -57.42,20.84 -90.14,20.84 -59.89,0 -111.91,-20.99 -155.9,-62.98 -42.45,-41.83 -63.75,-96.16 -63.75,-162.69 0,-66.68 20.99,-120.86 62.82,-162.38 41.99,-41.67 94.31,-62.67 156.98,-62.97 31.33,0 61.59,6.48 90.45,19.44 28.4,14.2 48.78,32.41 61.13,54.79l0 -3.74c1.02,-42.57 44.5,-60.13 84.27,-61.24l0 367.56c-2.33,48.85 -35.57,65.66 -84.27,64.94z"/>
    <path class="fil8" d="M6867.68 4605.36l0 93.02 90.76 0c-0.8,41.07 -19.11,74.81 -63.54,75.02l-27.22 0 0 357.48c-54.29,0.46 -83.99,-22.44 -84.27,-65.53l0 -291.96 -77.8 0c0.04,-44.92 23.82,-72.79 72.15,-75.02l5.65 0 0 -158.36c45.05,0.39 83.61,21.67 84.27,65.34z"/>
    <path class="fil5" d="M5007.45 4773.4c-0.2,-48 21.56,-74.02 68.3,-75.02l9.49 0 84.28 0 90.76 0c-1.79,49.73 -22.26,74.17 -60.17,75.02l-30.59 0 -84.28 0 -77.79 0z"/>
    <path class="fil5" d="M6705.51 4773.33c-0.2,-48 21.56,-74.03 68.3,-75.02l9.5 0 84.27 0 90.76 0c-1.8,49.73 -22.26,74.17 -60.18,75.02l-30.59 0 -84.27 0 -77.8 0z"/>
    <path class="fil8" d="M5436.78 5129.04c-48.11,1.5 -84.86,-11.1 -86.03,-53.26l0 -388.26c56.74,-0.65 85.76,12.97 86.03,59.34l0 40.25c21.59,-72.64 62.4,-109.04 122.75,-109.04 34.82,0 60.35,5.68 76.74,16.86 -12.27,45.19 -36.35,70.18 -77.88,65.39 -0.19,-0.02 -0.39,0 -0.59,0 -38.92,0 -68.7,18.6 -89.66,55.78 -15.55,27.72 -28.86,62.64 -29.28,105.36l-2.08 207.58z"/>
    <path class="fil8" d="M6459.07 4688.45c66.69,0 121.34,23.31 164.1,69.78 -28.35,37.51 -64.73,48.73 -112.79,21.74 -0.75,-0.43 -1.64,-0.6 -2.46,-0.89 -15.52,-5.46 -32.43,-8.19 -50.7,-8.19 -40.6,0 -75.18,13.12 -103.59,39.52 -28.56,25.93 -42.92,60.36 -42.92,103.43 0,42.92 14.51,77.81 43.38,104.67 29.02,27.01 63.6,40.44 104.05,40.44 17.67,0 34.01,-2.67 48.99,-8.01 0.61,-0.22 1.23,-0.4 1.81,-0.66 48.73,-21.86 85.53,-10.91 115.16,19.78 -43.08,46.32 -97.57,69.47 -163.18,69.47 -65.77,0 -121.34,-20.84 -166.73,-62.52 -45.23,-42.3 -67.77,-96.64 -67.77,-163.18 0,-66.53 22.23,-120.72 66.53,-162.4 44.46,-41.68 99.73,-62.68 166.11,-62.99z"/>
    <polygon class="fil5" points="3516,4854.2 3249.65,5041.84 3515.64,4484.03 3784.6,5040.02 "/>
    <polygon class="fil4" points="3599.67,4912.09 3277.31,5139.19 3599.24,4464.1 3924.75,5137 "/>
   </g>
   <ellipse class="fil5" cx="6884.8" cy="6437.84" rx="97.66" ry="97.3"/>
   <ellipse class="fil3" cx="452.98" cy="5790.15" rx="232.74" ry="231.88"/>
   <ellipse class="fil5" cx="552.87" cy="4424.52" rx="97.66" ry="97.3"/>
   <g>
    <polygon class="fil9" points="5051.45,9499.43 4862.46,9499.43 4862.46,9560.88 5051.45,9560.88 "/>
    <polygon class="fil10" points="4933.21,9499.43 4862.46,9499.43 4862.46,9560.88 4933.21,9560.88 "/>
    <polygon class="fil9" points="4834.19,9357.74 4645.19,9357.74 4645.19,9419.19 4834.19,9419.19 "/>
    <polygon class="fil10" points="4715.95,9357.74 4645.19,9357.74 4645.19,9419.19 4715.95,9419.19 "/>
    <polygon class="fil9" points="5051.45,9569.66 4862.46,9569.66 4862.46,9631.11 5051.45,9631.11 "/>
    <polygon class="fil10" points="4933.21,9569.66 4862.46,9569.66 4862.46,9631.11 4933.21,9631.11 "/>
    <polygon class="fil9" points="4834.19,9427.97 4645.19,9427.97 4645.19,9489.42 4834.19,9489.42 "/>
    <polygon class="fil10" points="4715.95,9427.97 4645.19,9427.97 4645.19,9489.42 4715.95,9489.42 "/>
    <polygon class="fil9" points="5051.45,9639.9 4862.46,9639.9 4862.46,9701.35 5051.45,9701.35 "/>
    <polygon class="fil10" points="4933.21,9639.9 4862.46,9639.9 4862.46,9701.35 4933.21,9701.35 "/>
    <polygon class="fil9" points="4834.19,9498.21 4645.19,9498.21 4645.19,9559.65 4834.19,9559.65 "/>
    <polygon class="fil10" points="4715.95,9498.21 4645.19,9498.21 4645.19,9559.65 4715.95,9559.65 "/>
    <polygon class="fil9" points="5051.45,9710.13 4862.46,9710.13 4862.46,9771.58 5051.45,9771.58 "/>
    <polygon class="fil10" points="4933.21,9710.13 4862.46,9710.13 4862.46,9771.58 4933.21,9771.58 "/>
    <polygon class="fil9" points="4834.19,9568.44 4645.19,9568.44 4645.19,9629.89 4834.19,9629.89 "/>
    <polygon class="fil10" points="4715.95,9568.44 4645.19,9568.44 4645.19,9629.89 4715.95,9629.89 "/>
    <polygon class="fil9" points="4834.19,9639.5 4645.19,9639.5 4645.19,9700.94 4834.19,9700.94 "/>
    <polygon class="fil10" points="4715.95,9639.5 4645.19,9639.5 4645.19,9700.94 4715.95,9700.94 "/>
    <polygon class="fil9" points="4834.19,9710.55 4645.19,9710.55 4645.19,9771.99 4834.19,9771.99 "/>
    <polygon class="fil10" points="4715.95,9710.55 4645.19,9710.55 4645.19,9771.99 4715.95,9771.99 "/>
    <path class="fil11" d="M4763.48 9182.87l510.79 0c18.86,0 34.29,15.42 34.29,34.28l0 156.41 -70.5 0c-37.59,0 -68.35,30.76 -68.35,68.35l0 0c0,37.59 30.75,68.35 68.35,68.35l70.5 0 0 162.84c0,18.86 -15.42,34.28 -34.29,34.28l-510.79 0c-7.42,0 -14.31,-2.38 -19.94,-6.43l90.64 0 0 -61.45 -104.99 0 0 -9.61 104.99 0 0 -61.45 -104.99 0 0 -8.79 104.99 0 0 -61.45 -104.99 0 0 -8.78 104.99 0 0 -61.45 -104.99 0 0 -8.79 104.99 0 0 -61.45 -104.99 0 0 -140.59c0,-18.86 15.43,-34.28 34.29,-34.28zm169.73 316.56l-70.76 0 0 61.45 70.76 0 118.23 0 0 -61.45 -118.23 0zm0 70.24l-70.76 0 0 61.44 70.76 0 118.23 0 0 -61.44 -118.23 0zm0 70.23l-70.76 0 0 61.45 70.76 0 118.23 0 0 -61.45 -118.23 0z"/>
    <circle class="fil1" cx="5246.85" cy="9445.12" r="30.77"/>
    <path class="fil12" d="M5238.07 9373.56l99.85 0 0 136.7 -99.85 0c-37.59,0 -68.35,-30.76 -68.35,-68.35l0 0c0,-37.59 30.75,-68.35 68.35,-68.35zm8.78 40.79c17,0 30.77,13.78 30.77,30.77 0,17 -13.77,30.77 -30.77,30.77 -17,0 -30.77,-13.78 -30.77,-30.77 0,-17 13.78,-30.77 30.77,-30.77z"/>
   </g>
   <ellipse class="fil2" cx="1242.06" cy="7563.04" rx="492.71" ry="490.89"/>
   <g>
    <g>
     <polygon class="fil13" points="1143.29,7694.01 1294.4,7694.01 1294.4,7743.14 1143.29,7743.14 "/>
     <polygon class="fil9" points="1237.82,7694.01 1294.4,7694.01 1294.4,7743.14 1237.82,7743.14 "/>
    </g>
    <g>
     <polygon class="fil13" points="1317.01,7580.72 1468.12,7580.72 1468.12,7629.85 1317.01,7629.85 "/>
     <polygon class="fil9" points="1411.54,7580.72 1468.12,7580.72 1468.12,7629.85 1411.54,7629.85 "/>
    </g>
    <g>
     <polygon class="fil13" points="1143.29,7750.16 1294.4,7750.16 1294.4,7799.3 1143.29,7799.3 "/>
     <polygon class="fil9" points="1237.82,7750.16 1294.4,7750.16 1294.4,7799.3 1237.82,7799.3 "/>
    </g>
    <g>
     <polygon class="fil13" points="1317.01,7636.88 1468.12,7636.88 1468.12,7686 1317.01,7686 "/>
     <polygon class="fil9" points="1411.54,7636.88 1468.12,7636.88 1468.12,7686 1411.54,7686 "/>
    </g>
    <g>
     <polygon class="fil13" points="1143.29,7806.33 1294.4,7806.33 1294.4,7855.46 1143.29,7855.46 "/>
     <polygon class="fil9" points="1237.82,7806.33 1294.4,7806.33 1294.4,7855.46 1237.82,7855.46 "/>
    </g>
    <g>
     <polygon class="fil13" points="1317.01,7693.03 1468.12,7693.03 1468.12,7742.16 1317.01,7742.16 "/>
     <polygon class="fil9" points="1411.54,7693.03 1468.12,7693.03 1468.12,7742.16 1411.54,7742.16 "/>
    </g>
    <g>
     <polygon class="fil13" points="1143.29,7862.48 1294.4,7862.48 1294.4,7911.61 1143.29,7911.61 "/>
     <polygon class="fil9" points="1237.82,7862.48 1294.4,7862.48 1294.4,7911.61 1237.82,7911.61 "/>
    </g>
    <g>
     <polygon class="fil13" points="1317.01,7749.19 1468.12,7749.19 1468.12,7798.32 1317.01,7798.32 "/>
     <polygon class="fil9" points="1411.54,7749.19 1468.12,7749.19 1468.12,7798.32 1411.54,7798.32 "/>
    </g>
    <g>
     <polygon class="fil13" points="1317.01,7806 1468.12,7806 1468.12,7855.13 1317.01,7855.13 "/>
     <polygon class="fil9" points="1411.54,7806 1468.12,7806 1468.12,7855.13 1411.54,7855.13 "/>
    </g>
    <g>
     <polygon class="fil13" points="1317.01,7862.81 1468.12,7862.81 1468.12,7911.94 1317.01,7911.94 "/>
     <polygon class="fil9" points="1411.54,7862.81 1468.12,7862.81 1468.12,7911.94 1411.54,7911.94 "/>
    </g>
    <path class="fil11" d="M1015.99 7296.02l336.47 0 0 284.7 -35.45 0 0 49.13 35.45 0 0 7.03 -35.45 0 0 49.13 35.45 0 0 7.03 -35.45 0 0 49.13 35.45 0 0 7.02 -35.45 0 0 21.76 -22.61 0 0 -20.78 -56.58 0 -94.54 0 0 20.78 -127.3 0 0 -474.93zm221.84 397.99l56.58 0 0 49.13 -56.58 0 -94.54 0 0 -49.13 94.54 0z"/>
    <path class="fil9" d="M1066.61 7214.14l235.23 0c27.84,0 50.62,22.78 50.62,50.62l0 31.26 -336.47 0 0 -31.26c0,-27.84 22.78,-50.62 50.62,-50.62zm171.22 592.19l56.58 0 0 49.13 -56.58 0 -94.54 0 0 -49.13 94.54 0zm114.63 -8.01l0 7.68 -35.45 0 0 49.13 11.55 0c-7.77,4.86 -16.93,7.68 -26.72,7.68l-7.44 0 0 -0.33 -56.58 0 -94.54 0 0 0.33 -76.68 0c-27.84,0 -50.62,-22.78 -50.62,-50.62l0 -41.24 127.3 0 0 28.35 94.54 0 56.58 0 0 -28.35 22.61 0 0 27.37 35.45 0z"/>
   </g>
   <g>
    <polygon class="fil9" points="6763.86,7617.86 6935.69,7617.86 6935.69,7596.91 6788.88,7454.35 6763.86,7454.35 "/>
    <polygon class="fil14" points="6455.53,7722.58 6723.97,7722.58 6723.97,7744.87 6455.53,7744.87 "/>
    <polygon class="fil12" points="6755.55,7722.58 6853.08,7722.58 6853.08,7743.02 6755.55,7743.02 "/>
    <polygon class="fil12" points="6755.55,7772.28 6853.08,7772.28 6853.08,7792.71 6755.55,7792.71 "/>
    <polygon class="fil12" points="6755.55,7821.98 6853.08,7821.98 6853.08,7842.41 6755.55,7842.41 "/>
    <polygon class="fil12" points="6755.55,7871.67 6853.08,7871.67 6853.08,7892.1 6755.55,7892.1 "/>
    <polygon class="fil12" points="6755.55,8044.43 6853.08,8044.43 6853.08,8064.87 6755.55,8064.87 "/>
    <polygon class="fil14" points="6455.53,7772.74 6629.23,7772.74 6629.23,7792.25 6455.53,7792.25 "/>
    <polygon class="fil14" points="6457.4,7825.68 6694.25,7825.68 6694.25,7847.05 6457.4,7847.05 "/>
    <polygon class="fil14" points="6457.4,7871.19 6673.82,7871.19 6673.82,7891.63 6457.4,7891.63 "/>
    <polygon class="fil14" points="6457.4,7991.95 6848.44,7991.95 6848.44,8010.52 6457.4,8010.52 "/>
    <path class="fil15" d="M6383.73 7454.35l380.13 -0.01 -1.15 164.41 172.76 -1.86 0 621.01 -505.3 0 -46.44 0c-33.94,3.42 -53.84,-15.49 -56.2,-62.29l4.64 -552.59c0.76,-23.39 31.82,-23.22 32.51,1.51l-5.59 546.56c1.9,21.27 10.35,33.32 24.63,37.17l0 -753.92zm73.67 537.6l391.04 0 0 18.58 -391.04 0 0 -18.58zm0 -120.75l216.42 0 0 20.44 -216.42 0 0 -20.44zm0 -45.51l236.86 0 0 21.36 -236.86 0 0 -21.36zm-1.86 -52.95l173.7 0 0 19.51 -173.7 0 0 -19.51zm300.02 271.7l97.53 0 0 20.43 -97.53 0 0 -20.43zm0 -172.76l97.53 0 0 20.43 -97.53 0 0 -20.43zm0 -49.7l97.53 0 0 20.43 -97.53 0 0 -20.43zm0 -49.7l97.53 0 0 20.43 -97.53 0 0 -20.43zm0 -49.7l97.53 0 0 20.44 -97.53 0 0 -20.44zm-300.02 0l268.44 0 0 22.3 -268.44 0 0 -22.3z"/>
   </g>
   <g>
    <path class="fil9" d="M8576.71 5996.84l384.52 0c12.24,0 22.26,10.01 22.26,22.26l0 26.72 -429.03 0 0 -26.72c0,-12.24 10.01,-22.26 22.26,-22.26zm406.78 103.51l0 153.58c0,12.24 -10.01,22.26 -22.26,22.26l-384.52 0c-12.24,0 -22.26,-10.01 -22.26,-22.26l0 -153.58 429.03 0z"/>
    <rect class="fil16" x="8601.48" y="6130.27" width="211.58" height="14.47"/>
    <rect class="fil16" x="8602.06" y="6158.22" width="88.75" height="14.47"/>
    <rect class="fil16" x="8602.65" y="6217.2" width="164.56" height="14.47"/>
    <rect class="fil17" x="8862.42" y="6130.39" width="73.46" height="54.53"/>
    <polygon class="fil9" points="8729.57,5681.2 8874.69,5681.2 8874.69,5663.51 8750.71,5543.11 8729.57,5543.11 "/>
    <polygon class="fil11" points="8554.46,6045.81 8983.49,6045.81 8983.49,6100.35 8554.46,6100.35 "/>
    <path class="fil15" d="M8408.56 5543.12l321.02 -0.01 -0.97 138.85 145.9 -1.57 0 316.45 -297.79 0c-12.24,0 -22.26,10.01 -22.26,22.26l0 26.72 0 54.53 0 104.49 -106.68 0 -39.22 0c-28.66,2.9 -45.47,-13.08 -47.46,-52.6l3.92 -466.67c0.64,-19.76 26.87,-19.62 27.46,1.27l-4.72 461.58c1.6,17.96 8.74,28.14 20.8,31.39l0 -636.69z"/>
   </g>
   <g>
    <path class="fil9" d="M5300.23 1100.19l471.47 0c15.96,0 29.01,13.06 29.01,29.01l0 34.82 -529.49 0 0 -34.82c0,-15.96 13.06,-29.01 29.01,-29.01zm500.48 134.91l0 200.19c0,15.96 -13.06,29.01 -29.01,29.01l-471.47 0c-15.96,0 -29.01,-13.05 -29.01,-29.01l0 -200.19 529.49 0z"/>
    <polygon class="fil11" points="5329.25,1274.1 5590.37,1274.1 5590.37,1292.96 5329.25,1292.96 "/>
    <polygon class="fil11" points="5329.98,1310.53 5439.5,1310.53 5439.5,1329.39 5329.98,1329.39 "/>
    <polygon class="fil11" points="5533.79,1387.41 5330.7,1387.41 5330.7,1406.27 5533.79,1406.27 "/>
    <polygon class="fil11" points="5651.29,1274.26 5741.96,1274.26 5741.96,1345.35 5651.29,1345.35 "/>
    <polygon class="fil15" points="5271.22,1164.02 5800.71,1164.02 5800.71,1235.1 5271.22,1235.1 "/>
    <polygon class="fil9" points="5800.71,1250.1 5879.05,1250.1 5879.05,1321.18 5800.71,1321.18 "/>
    <path class="fil15" d="M5800.71 1186.27l49.33 0c15.96,0 29.01,13.06 29.01,29.01l0 34.82 -78.34 0 0 -63.83zm78.34 134.91l0 200.19c0,15.96 -13.06,29.01 -29.01,29.01l-471.47 0c-15.96,0 -29.01,-13.06 -29.01,-29.01l0 -57.07 422.14 0c15.96,0 29.01,-13.05 29.01,-29.01l0 -114.11 78.34 0z"/>
   </g>
   <g>
    <path class="fil11" d="M7596.85 900.63l297.21 0c1.54,0 3.05,0.13 4.51,0.38l-54.27 -54.28c-10.47,-10.46 -10.46,-27.58 0,-38.04l0.69 -0.69c10.46,-10.47 27.62,-10.51 38.04,-0.01l117.1 118.08 -119.66 122.51c-10.4,10.51 -27.58,10.46 -38.04,0l-0.69 -0.69c-10.46,-10.46 -10.41,-27.53 -0.01,-38.04l54.09 -54.63c-0.59,0.04 -1.17,0.06 -1.77,0.06l-297.21 0c-14.77,0 -26.84,-12.08 -26.84,-26.84l0 -0.98c0,-14.76 12.08,-26.84 26.84,-26.84z"/>
    <path class="fil12" d="M7963.7 987.4l-23.44 0 -53.38 54.66 76.83 0c14.77,0 26.84,-12.08 26.84,-26.84l0 -0.98c0,-14.77 -12.08,-26.84 -26.84,-26.84zm-99.71 0l-197.5 0c-1.54,0 -3.05,0.14 -4.51,0.39l32.49 -32.5 -76.96 0 -57.09 57.57 119.66 122.52c10.4,10.51 27.58,10.46 38.04,-0.01l0.69 -0.69c10.46,-10.47 10.41,-27.53 0.01,-38.04l-54.09 -54.64c0.59,0.04 1.17,0.07 1.77,0.07l170.85 0c-5.73,-10.23 -4.22,-23.47 4.42,-32.2l22.24 -22.46zm-143.72 -86.77c-1.1,-1.84 -2.44,-3.58 -4.03,-5.16l-0.69 -0.69c-10.46,-10.46 -27.62,-10.51 -38.04,0l-5.8 5.85 48.56 0z"/>
   </g>
   <g>
    <path class="fil9" d="M1746.21 1033.84l728.15 0c14.58,0 26.51,11.93 26.51,26.51l0 47.73c0,14.58 -11.93,26.51 -26.51,26.51l-728.15 0c-14.58,0 -26.51,-11.93 -26.51,-26.51l0 -47.73c0,-14.58 11.93,-26.51 26.51,-26.51z"/>
    <path class="fil18" d="M1772.72 1154.02c14.17,115.46 41.8,230.93 86.6,346.39l475.41 8.84c49.46,-112.07 88.11,-236.97 106.92,-356.11l-668.93 0.88z"/>
    <path class="fil13" d="M2327.67 782.88l-268.63 265.1c-26.78,32.81 16.18,86.6 61.86,51.25l256.26 -254.5c23.12,-25.88 -11.03,-80.73 -49.48,-61.85z"/>
   </g>
   <g>
    <g>
     <polygon class="fil19" points="513.58,3063.14 647.16,3063.14 647.16,3106.57 513.58,3106.57 "/>
     <polygon class="fil9" points="597.15,3063.14 647.16,3063.14 647.16,3106.57 597.15,3106.57 "/>
    </g>
    <g>
     <polygon class="fil19" points="667.15,2962.99 800.72,2962.99 800.72,3006.43 667.15,3006.43 "/>
     <polygon class="fil9" points="750.71,2962.99 800.72,2962.99 800.72,3006.43 750.71,3006.43 "/>
    </g>
    <g>
     <polygon class="fil19" points="513.58,3112.78 647.16,3112.78 647.16,3156.22 513.58,3156.22 "/>
     <polygon class="fil9" points="597.15,3112.78 647.16,3112.78 647.16,3156.22 597.15,3156.22 "/>
    </g>
    <g>
     <polygon class="fil19" points="667.15,3012.63 800.72,3012.63 800.72,3056.07 667.15,3056.07 "/>
     <polygon class="fil9" points="750.71,3012.63 800.72,3012.63 800.72,3056.07 750.71,3056.07 "/>
    </g>
    <g>
     <polygon class="fil19" points="513.58,3162.42 647.16,3162.42 647.16,3205.86 513.58,3205.86 "/>
     <polygon class="fil9" points="597.15,3162.42 647.16,3162.42 647.16,3205.86 597.15,3205.86 "/>
    </g>
    <g>
     <polygon class="fil19" points="667.15,3062.28 800.72,3062.28 800.72,3105.71 667.15,3105.71 "/>
     <polygon class="fil9" points="750.71,3062.28 800.72,3062.28 800.72,3105.71 750.71,3105.71 "/>
    </g>
    <g>
     <polygon class="fil19" points="513.58,3212.06 647.16,3212.06 647.16,3255.5 513.58,3255.5 "/>
     <polygon class="fil9" points="597.15,3212.06 647.16,3212.06 647.16,3255.5 597.15,3255.5 "/>
    </g>
    <g>
     <polygon class="fil19" points="667.15,3111.92 800.72,3111.92 800.72,3155.35 667.15,3155.35 "/>
     <polygon class="fil9" points="750.71,3111.92 800.72,3111.92 800.72,3155.35 750.71,3155.35 "/>
    </g>
    <g>
     <polygon class="fil19" points="667.15,3162.14 800.72,3162.14 800.72,3205.57 667.15,3205.57 "/>
     <polygon class="fil9" points="750.71,3162.14 800.72,3162.14 800.72,3205.57 750.71,3205.57 "/>
    </g>
    <g>
     <polygon class="fil19" points="667.15,3212.36 800.72,3212.36 800.72,3255.79 667.15,3255.79 "/>
     <polygon class="fil9" points="750.71,3212.36 800.72,3212.36 800.72,3255.79 750.71,3255.79 "/>
    </g>
    <path class="fil11" d="M858.69 3237.9l-128.32 103.97 -119.11 2.63 3.29 -39.48 98.05 0c28.81,-3.4 41.78,-18.77 38.11,-46.74l-199.33 -0.29c-62.36,45.28 -119.47,98.26 -170.43,160.22l-0.41 33.15 153.73 -0.25 30.27 -35.54 169.11 1.32 171.09 -140.82c20.33,-22.68 -17.37,-65.49 -46.06,-38.17z"/>
   </g>
   <g>
    <polygon class="fil13" points="963.05,4640.46 1180.54,4640.46 1180.54,4841.99 963.05,4841.99 "/>
    <polygon class="fil20" points="1234.42,4639.46 1468.87,4639.46 1468.87,4659.42 1234.42,4659.42 "/>
    <polygon class="fil20" points="1236.39,4717.31 1353.62,4717.31 1353.62,4737.26 1236.39,4737.26 "/>
    <polygon class="fil20" points="968.32,4893.89 1142.89,4893.89 1142.89,4913.85 968.32,4913.85 "/>
    <polygon class="fil20" points="968.32,4931.54 1121.94,4931.54 1121.94,4951.49 968.32,4951.49 "/>
    <polygon class="fil20" points="968.32,4969.19 1181.8,4969.19 1181.8,4989.14 968.32,4989.14 "/>
    <polygon class="fil20" points="968.32,5006.84 1102.98,5006.84 1102.98,5026.8 968.32,5026.8 "/>
    <polygon class="fil9" points="1238.67,4893.89 1371.85,4893.89 1371.85,4913.85 1238.67,4913.85 "/>
    <polygon class="fil9" points="1238.67,4931.54 1356.38,4931.54 1356.38,4951.49 1238.67,4951.49 "/>
    <polygon class="fil9" points="1238.67,4969.19 1406.77,4969.19 1406.77,4989.14 1238.67,4989.14 "/>
    <polygon class="fil9" points="1238.67,5006.84 1339.92,5006.84 1339.92,5026.8 1238.67,5026.8 "/>
    <polygon class="fil20" points="1236.39,4756.24 1353.62,4756.24 1353.62,4776.19 1236.39,4776.19 "/>
    <polygon class="fil20" points="1236.41,4799.09 1273.32,4799.09 1273.32,4834.01 1236.41,4834.01 "/>
    <polygon class="fil20" points="1298.27,4799.09 1335.19,4799.09 1335.19,4834.01 1298.27,4834.01 "/>
    <polygon class="fil9" points="1495.31,4799.09 1532.23,4799.09 1532.23,4834.01 1495.31,4834.01 "/>
    <polygon class="fil20" points="920.65,4524.79 947.09,4524.79 947.09,4573.18 920.65,4573.18 "/>
    <polygon class="fil20" points="966.3,4524.79 992.74,4524.79 992.74,4573.18 966.3,4573.18 "/>
    <polygon class="fil20" points="1011.94,4524.79 1038.38,4524.79 1038.38,4573.18 1011.94,4573.18 "/>
    <path class="fil9" d="M900.2 4501.21l710.35 0 0 95.54 -710.35 0 0 -95.54zm20.45 23.58l26.44 0 0 48.39 -26.44 0 0 -48.39zm45.64 0l26.44 0 0 48.39 -26.44 0 0 -48.39zm45.64 0l26.44 0 0 48.39 -26.44 0 0 -48.39z"/>
    <path class="fil15" d="M900.2 4499.79l710.35 0 0 1.42 -710.35 0 0 -1.42zm710.35 96.96l0 511.62 -710.35 0 0 -511.62 710.35 0zm-376.13 42.71l234.46 0 0 19.95 -234.46 0 0 -19.95zm1.97 77.84l117.23 0 0 19.95 -117.23 0 0 -19.95zm0 38.93l117.23 0 0 19.96 -117.23 0 0 -19.96zm61.88 42.85l36.92 0 0 34.92 -36.92 0 0 -34.92zm-61.86 0l36.92 0 0 34.92 -36.92 0 0 -34.92zm258.9 0l36.92 0 0 34.92 -36.92 0 0 -34.92zm-256.64 94.8l133.18 0 0 19.96 -133.18 0 0 -19.96zm0 37.65l117.72 0 0 19.96 -117.72 0 0 -19.96zm0 37.65l168.1 0 0 19.95 -168.1 0 0 -19.95zm0 37.65l101.26 0 0 19.96 -101.26 0 0 -19.96zm-270.35 -112.95l174.57 0 0 19.96 -174.57 0 0 -19.96zm0 37.65l153.62 0 0 19.96 -153.62 0 0 -19.96zm0 37.65l213.48 0 0 19.95 -213.48 0 0 -19.95zm0 37.65l134.66 0 0 19.96 -134.66 0 0 -19.96zm-5.28 -366.38l217.5 0 0 201.53 -217.5 0 0 -201.53z"/>
   </g>
   <g>
    <path class="fil11" d="M6821.25 2600.96l52.98 -49.32c35.76,8.5 62.38,39.86 81.91,88.96 80.54,-117.34 152.7,-195.71 218.63,-239.98l0 49.94c-89.29,90.96 -164.97,198.28 -229.91,318.48 -32.51,-63.14 -73.25,-119.54 -123.61,-168.07z"/>
    <path class="fil12" d="M6964.08 2381.43l-30.45 0 -8.52 0c-115.88,0 -210.7,94.81 -210.7,210.7l0 9.28 0 47.96 0 210.7 210.7 0 38.97 0 20.99 0 -0.64 -0.99c102.4,-9.93 183.95,-93.96 189.97,-197.42l0.37 0.19 0 -12.48 0 -57.24 0 -141.58c-89.29,90.96 -164.97,198.28 -229.91,318.48 -32.51,-63.14 -73.25,-119.54 -123.61,-168.07l52.98 -49.32c35.76,8.5 62.38,39.86 81.91,88.96 80.54,-117.34 152.7,-195.71 218.63,-239.98l0 -19.18 -210.69 0z"/>
   </g>
  </g>
 </g>
</svg>
