<?xml version="1.0" encoding="UTF-8"?>
<!DOCTYPE svg PUBLIC "-//W3C//DTD SVG 1.1//EN" "http://www.w3.org/Graphics/SVG/1.1/DTD/svg11.dtd">
<!-- Creator: CorelDRAW 2018 (64-Bit Evaluation Version) -->
<svg xmlns="http://www.w3.org/2000/svg" xml:space="preserve" width="191.424mm" height="199.5mm" version="1.1" style="shape-rendering:geometricPrecision; text-rendering:geometricPrecision; image-rendering:optimizeQuality; fill-rule:evenodd; clip-rule:evenodd"
viewBox="0 0 163588.57 170489.71"
 xmlns:xlink="http://www.w3.org/1999/xlink">
 <defs>
  <style type="text/css">
   <![CDATA[
    .str0 {stroke:#3B9CFF;stroke-width:300;stroke-miterlimit:22.9256}
    .fil0 {fill:none}
    .fil19 {fill:none}
    .fil3 {fill:#00C2FF}
    .fil1 {fill:#3B9CFF}
    .fil2 {fill:#99E7FF}
    .fil15 {fill:#B4DCFF}
    .fil5 {fill:#D8F6FF}
    .fil4 {fill:#FBD13E}
    .fil16 {fill:white}
    .fil6 {fill:#00C2FF;fill-rule:nonzero}
    .fil7 {fill:#3B9CFF;fill-rule:nonzero}
    .fil13 {fill:#3B9CFF}
    .fil12 {fill:#84C3FF}
    .fil9 {fill:#8BC7FF}
    .fil8 {fill:#FBD13E}
    .fil11 {fill:#FBD13E}
    .fil18 {fill:#FDE89E}
    .fil14 {fill:white}
    .fil10 {fill:white}
    .fil17 {fill:white}
   ]]>
  </style>
 </defs>
 <g id="Layer_x0020_1">
  <metadata id="CorelCorpID_0Corel-Layer"/>
  <g id="_2242916490144">
   <polygon class="fil0 str0" points="58121.33,5014.89 30724.29,19222.06 14293.57,39572 6831.91,52686.41 5663.52,75033.69 4269.18,97720.16 12371.26,116637.98 16855.88,125606.96 23337.66,133370.03 29819.54,139776.44 40182.86,149009.23 81636.23,160314.74 129345.44,145693.01 152710.02,117730.83 161528.33,83361.98 156327.74,51781.74 142308.67,28944.61 127988.35,16357.82 105716.62,5203.15 75907.59,1396.91 "/>
   <ellipse class="fil1" cx="7241.14" cy="54306.78" rx="6430.05" ry="6406.29"/>
   <polyline class="fil0 str0" points="40182.86,149009.23 62869.24,107518 80053.62,154548.75 81804.93,160263.03 79902.87,104804.86 80269.83,115501.81 129345.44,145693.01 113472.42,109312.98 106508.65,97418.32 "/>
   <line class="fil0 str0" x1="52694.53" y1="132691.32" x2="74928.58" y2= "154096.42" />
   <polyline class="fil0 str0" points="40395.22,148620.82 43423.97,121762.69 30460.39,139248.48 "/>
   <polyline class="fil0 str0" points="23940.75,126284.9 43423.97,121762.86 12371.26,116637.98 "/>
   <line class="fil0 str0" x1="42632.79" y1="121046.63" x2="5739.15" y2= "98925.55" />
   <line class="fil0 str0" x1="21529.19" y1="87507.07" x2="43311.07" y2= "120594.47" />
   <line class="fil0 str0" x1="18514.37" y1="88637.61" x2="22456.67" y2= "108949.18" />
   <line class="fil0 str0" x1="13012.46" y1="87092.51" x2="5475.43" y2= "96325.3" />
   <line class="fil0 str0" x1="47230.13" y1="85999.58" x2="43311.07" y2= "120594.47" />
   <line class="fil0 str0" x1="44140.11" y1="121140.63" x2="61324.4" y2= "107762.5" />
   <line class="fil0 str0" x1="25712.13" y1="82626.53" x2="49416.07" y2= "87148.75" />
   <line class="fil0 str0" x1="41351.42" y1="79197.24" x2="48549.27" y2= "87714.05" />
   <line class="fil0 str0" x1="50169.91" y1="71433.83" x2="41803.84" y2= "78028.76" />
   <line class="fil0 str0" x1="25636.93" y1="80515.95" x2="40371.81" y2= "78820.11" />
   <line class="fil0 str0" x1="22810.55" y1="68984.58" x2="40070.31" y2= "78405.81" />
   <line class="fil0 str0" x1="27483.69" y1="52930.99" x2="40371.98" y2= "77577.03" />
   <line class="fil0 str0" x1="26579.28" y1="53760.11" x2="19871.37" y2= "74411.47" />
   <line class="fil0 str0" x1="10751.56" y1="57830.08" x2="21303.4" y2= "68004.97" />
   <line class="fil0 str0" x1="9131.09" y1="59262.03" x2="14859.22" y2= "73959.22" />
   <line class="fil0 str0" x1="6417.78" y1="75353.56" x2="10525.44" y2= "77463.97" />
   <line class="fil0 str0" x1="12522.69" y1="53534.07" x2="26240.01" y2= "52516.6" />
   <line class="fil0 str0" x1="15612.88" y1="42304.03" x2="25976.29" y2= "51310.69" />
   <line class="fil0 str0" x1="40145.85" y1="39628.4" x2="27408.32" y2= "52139.81" />
   <polyline class="fil0 str0" points="35058.41,27041.44 40409.58,39289.22 17157.97,40005.19 "/>
   <polyline class="fil0 str0" points="41464.74,39100.61 67731.24,38158.51 38487.7,22255.5 "/>
   <line class="fil0 str0" x1="41464.82" y1="39854.35" x2="61136.39" y2= "54099.3" />
   <line class="fil0 str0" x1="41201.01" y1="40344.2" x2="54277.73" y2= "63105.96" />
   <line class="fil0 str0" x1="28388.19" y1="52817.93" x2="53448.79" y2= "64688.74" />
   <line class="fil0 str0" x1="59290.06" y1="6804.82" x2="67580.75" y2= "37103.52" />
   <line class="fil0 str0" x1="101752.96" y1="111177.17" x2="113254.33" y2= "109308.02" />
   <line class="fil0 str0" x1="114045.76" y1="109308.02" x2="152145.31" y2= "117447.96" />
   <line class="fil0 str0" x1="148678.25" y1="107800.61" x2="152900.94" y2= "116986.65" />
   <line class="fil0 str0" x1="114139.68" y1="108855.86" x2="135770.91" y2= "102637.8" />
   <line class="fil0 str0" x1="129778.88" y1="88355.25" x2="113725.04" y2= "108629.82" />
   <line class="fil0 str0" x1="117342.59" y1="87940.69" x2="129910.58" y2= "88034.95" />
   <line class="fil0 str0" x1="117983.19" y1="84831.7" x2="129741.03" y2= "87714.57" />
   <polyline class="fil0 str0" points="121280.53,55908.71 130174.39,87695.77 118303.57,79518.05 "/>
   <line class="fil0 str0" x1="154970.92" y1="54024.43" x2="130701.75" y2= "88317.73" />
   <line class="fil0 str0" x1="120149.99" y1="54928.84" x2="154367.92" y2= "52592.4" />
   <line class="fil0 str0" x1="120526.87" y1="56059.38" x2="114421.87" y2= "67138.76" />
   <line class="fil0 str0" x1="103945.48" y1="53949.06" x2="120149.99" y2= "54928.84" />
   <line class="fil0 str0" x1="109417.41" y1="46728.65" x2="102935.53" y2= "53285.9" />
   <line class="fil0 str0" x1="161151.29" y1="83795.6" x2="150938.63" y2= "94159.01" />
   <polyline class="fil0 str0" points="160849.88,83305.67 130701.75,88317.73 137522.81,93932.89 "/>
   <line class="fil0 str0" x1="141177.54" y1="29906.02" x2="122115.2" y2= "54794.67" />
   <line class="fil0 str0" x1="128590.84" y1="36840.05" x2="121280.53" y2= "55908.71" />
   <line class="fil0 str0" x1="113516.77" y1="50557.37" x2="119772.52" y2= "54533.09" />
   <line class="fil0 str0" x1="117737.5" y1="49257.21" x2="120507.38" y2= "54307.05" />
   <line class="fil0 str0" x1="127836.92" y1="36538.47" x2="120224.6" y2= "40985.32" />
   <line class="fil0 str0" x1="141215.14" y1="29378.31" x2="129645.83" y2= "35596.29" />
   <line class="fil0 str0" x1="101551.44" y1="39496.8" x2="108492.14" y2= "47939.01" />
   <line class="fil0 str0" x1="101777.57" y1="38780.74" x2="108786.98" y2= "42172.42" />
   <line class="fil0 str0" x1="102003.61" y1="38366.18" x2="128119.36" y2= "36255.86" />
   <line class="fil0 str0" x1="100609.26" y1="38818.34" x2="95031.88" y2= "48277.34" />
   <line class="fil0 str0" x1="90886.54" y1="38893.71" x2="93260.67" y2= "48729.58" />
   <line class="fil0 str0" x1="89831.29" y1="38856.03" x2="84969.98" y2= "46393.06" />
   <polyline class="fil0 str0" points="68313.13,37612.52 90396.52,37838.64 91376.3,38140.14 "/>
   <line class="fil0 str0" x1="91771.89" y1="37932.82" x2="100269.91" y2= "38554.61" />
   <line class="fil0 str0" x1="91564.74" y1="37311.1" x2="110331.81" y2= "27776.73" />
   <line class="fil0 str0" x1="101739.62" y1="37951.7" x2="111274" y2= "27852.11" />
   <line class="fil0 str0" x1="124576.5" y1="18996.1" x2="115381.31" y2= "24761.92" />
   <line class="fil0 str0" x1="98875.13" y1="23593.7" x2="109577.64" y2= "25591.04" />
   <line class="fil0 str0" x1="105716.62" y1="5203.15" x2="112290.95" y2= "24498.19" />
   <line class="fil0 str0" x1="104980.05" y1="5504.99" x2="96538.61" y2= "15830.71" />
   <line class="fil0 str0" x1="76264.13" y1="2263.97" x2="86439.1" y2= "16132.04" />
   <polyline class="fil0 str0" points="67580.75,37103.52 71968.03,11911.32 83951.91,18167.07 "/>
   <line class="fil0 str0" x1="59682.74" y1="5203.41" x2="71968.03" y2= "11911.32" />
   <line class="fil0 str0" x1="75661.04" y1="2188.51" x2="72081.01" y2= "10630.04" />
   <line class="fil0 str0" x1="68313.13" y1="37612.52" x2="84931.69" y2= "26382.13" />
   <line class="fil0 str0" x1="129022.57" y1="22086.21" x2="128834.22" y2= "35351.28" />
   <line class="fil0 str0" x1="115795.19" y1="28078.06" x2="127552.86" y2= "35577.4" />
   <line class="fil0 str0" x1="67407.35" y1="38366.01" x2="64128.73" y2= "52535.57" />
   <line class="fil0 str0" x1="67731.24" y1="38158.51" x2="73361.61" y2= "49181.66" />
   <ellipse class="fil1" cx="81237.61" cy="161065.7" rx="9458.95" ry="9424"/>
   <ellipse class="fil1" cx="32180.38" cy="19180.74" rx="9458.95" ry="9424"/>
   <ellipse class="fil1" cx="109161.59" cy="133294.1" rx="9458.95" ry="9424"/>
   <ellipse class="fil2" cx="143906.79" cy="100319.77" rx="9458.95" ry="9424"/>
   <ellipse class="fil1" cx="17624.45" cy="81496.12" rx="9458.95" ry="9424"/>
   <ellipse class="fil3" cx="91173.77" cy="22265.23" rx="8923.94" ry="8890.97"/>
   <ellipse class="fil4" cx="50460.47" cy="130253.43" rx="3962.64" ry="3948"/>
   <ellipse class="fil4" cx="112797.05" cy="26645.93" rx="3962.64" ry="3948"/>
   <ellipse class="fil1" cx="142299.66" cy="28991.16" rx="1662.73" ry="1656.59"/>
   <ellipse class="fil1" cx="101152.14" cy="38630.13" rx="1662.73" ry="1656.59"/>
   <ellipse class="fil2" cx="90396.48" cy="37838.61" rx="1662.73" ry="1656.59"/>
   <ellipse class="fil4" cx="67687.62" cy="37838.87" rx="1662.73" ry="1656.59"/>
   <ellipse class="fil4" cx="40832.22" cy="39562.83" rx="1662.73" ry="1656.59"/>
   <ellipse class="fil4" cx="40827.26" cy="78872.98" rx="1662.73" ry="1656.59"/>
   <ellipse class="fil2" cx="43531.18" cy="121598.49" rx="1662.73" ry="1656.59"/>
   <ellipse class="fil1" cx="22456.63" cy="108949.15" rx="1662.73" ry="1656.59"/>
   <ellipse class="fil4" cx="12371.26" cy="116638.01" rx="2283.88" ry="2275.44"/>
   <ellipse class="fil1" cx="30284.91" cy="139838.03" rx="1662.73" ry="1656.59"/>
   <ellipse class="fil1" cx="40333.57" cy="148971.52" rx="1662.73" ry="1656.59"/>
   <ellipse class="fil1" cx="75917.89" cy="1656.59" rx="1662.73" ry="1656.59"/>
   <ellipse class="fil1" cx="105716.58" cy="5203.13" rx="1662.73" ry="1656.59"/>
   <ellipse class="fil1" cx="58601.29" cy="5180.14" rx="2580.12" ry="2570.58"/>
   <ellipse class="fil4" cx="71593.34" cy="11299.24" rx="1662.73" ry="1656.59"/>
   <ellipse class="fil4" cx="161925.85" cy="83536.12" rx="1662.73" ry="1656.59"/>
   <ellipse class="fil3" cx="130538.4" cy="88281.39" rx="1662.73" ry="1656.59"/>
   <ellipse class="fil4" cx="121027.87" cy="55262.88" rx="1662.73" ry="1656.59"/>
   <ellipse class="fil3" cx="128692.49" cy="36255.15" rx="1662.73" ry="1656.59"/>
   <ellipse class="fil4" cx="129357.38" cy="145768.36" rx="2359.41" ry="2350.69"/>
   <ellipse class="fil3" cx="153020.9" cy="117966.34" rx="2359.41" ry="2350.69"/>
   <ellipse class="fil1" cx="26966.7" cy="52630.8" rx="2178.89" ry="2170.84"/>
   <ellipse class="fil3" cx="21797.65" cy="68481.51" rx="2178.89" ry="2170.84"/>
   <ellipse class="fil1" cx="128719.08" cy="16244.92" rx="6430.05" ry="6406.29"/>
   <ellipse class="fil3" cx="114490.41" cy="44322.1" rx="6969.34" ry="6943.58"/>
   <ellipse class="fil4" cx="156327.75" cy="51781.73" rx="3962.64" ry="3948"/>
   <ellipse class="fil2" cx="14175.13" cy="40231.22" rx="3962.64" ry="3948"/>
   <ellipse class="fil5" cx="83152.87" cy="81454.63" rx="35876.08" ry="36026.83"/>
   <line class="fil0 str0" x1="113404.65" y1="109913.66" x2="110691.34" y2= "125967.43" />
   <g>
    <path class="fil6" d="M68783.5 85144.4c478.31,-446.78 717.43,-1040.63 717.43,-1784.46 0,-743.66 -246.98,-1332.39 -738.45,-1763.36 -494.12,-431.05 -1072.25,-649.23 -1734.56,-654.44 -664.87,0 -1222.06,223.39 -1674.05,670.17 -451.99,452.08 -678.03,1035.5 -678.03,1755.58 0,717.43 228.6,1306.15 685.89,1760.79 457.29,457.29 1022.34,685.98 1695.07,685.98 672.82,0 1248.38,-223.39 1726.69,-670.25zm2168.17 1915.9c-904.41,9.49 -1431.26,-193.91 -1434.94,-1106.01l0 -24.1c-231.25,386.36 -580.86,696.49 -1048.66,932.95 -467.72,236.55 -980.21,354.82 -1539.97,354.82 -1022.34,0 -1905.39,-357.39 -2649.13,-1072.25 -712.21,-712.21 -1069.6,-1637.22 -1069.6,-2769.97 0,-1135.32 354.82,-2057.76 1061.74,-2764.76 709.56,-709.56 1589.96,-1066.95 2643.84,-1072.17 567.7,0 1085.41,110.33 1547.91,331.07 459.94,220.83 812.11,533.52 1053.88,932.95l0 -5111.54c775.79,-0.77 1411.27,246.98 1434.94,1155.66l0 10213.34z"/>
    <path class="fil6" d="M77908.61 85144.4c478.31,-446.78 717.51,-1040.63 717.51,-1784.46 0,-743.66 -247.06,-1332.39 -738.53,-1763.36 -494.12,-431.05 -1072.25,-649.23 -1734.47,-654.44 -664.95,0 -1222.06,223.39 -1674.14,670.17 -451.99,452.08 -678.03,1035.5 -678.03,1755.58 0,717.43 228.69,1306.15 685.89,1760.79 457.38,457.29 1022.34,685.98 1695.16,685.98 672.82,0 1248.3,-223.39 1726.61,-670.25zm733.24 1915.9l0 -1130.11c-231.25,386.36 -580.78,696.49 -1048.58,932.95 -467.8,236.55 -980.3,354.82 -1540.05,354.82 -1022.34,0 -1905.39,-357.39 -2649.13,-1072.25 -712.13,-712.21 -1069.6,-1637.22 -1069.6,-2769.97 0,-1135.32 354.82,-2057.76 1061.74,-2764.76 709.65,-709.56 1589.96,-1066.95 2643.84,-1072.17 567.7,0 1085.41,110.33 1547.91,331.07 459.94,220.83 812.11,533.52 1053.88,932.95l0 -3952.89c-5.21,-925.86 555.65,-1151.9 1434.94,-1158.65l0 10263.51c-2.91,803.82 -472.76,1107.97 -1434.94,1105.49z"/>
    <path class="fil7" d="M84267.76 78100.21l0 1596.2 1545.26 0c-37.86,753.23 -261.85,1234.02 -1024.48,1277.27l-520.79 0 0 6086.63c-814.68,-1.88 -1405.88,-293.04 -1434.94,-1105.66l0 -4980.96 -1324.52 0c-21.02,-738.36 320.64,-1236.42 1093.53,-1277.27l230.99 0 0 -2696.31c854.5,7.69 1408.96,316.28 1434.94,1100.11z"/>
    <path class="fil7" d="M98634.82 85152.26c473.01,-441.48 709.56,-1035.42 709.56,-1784.38 0,-749.05 -247.06,-1340.33 -738.53,-1771.3 -494.04,-431.05 -1074.81,-649.23 -1742.33,-654.44 -670.17,0 -1230.01,223.39 -1682,670.17 -451.99,441.48 -678.03,1019.69 -678.03,1739.77 0,717.43 231.25,1308.8 693.75,1768.65 462.59,462.59 1032.85,693.92 1710.88,693.92 678.03,0 1253.68,-220.83 1726.69,-662.39zm725.37 1908.04l0 -1130.11c-231.34,386.36 -580.86,696.49 -1048.66,932.95 -467.72,236.55 -977.56,354.82 -1534.75,354.82 -1019.69,0 -1905.39,-357.39 -2654.35,-1072.25 -722.72,-712.21 -1085.41,-1637.22 -1085.41,-2769.97 0,-1135.32 357.39,-2057.76 1069.6,-2764.76 714.86,-709.56 1605.77,-1066.95 2672.81,-1072.17 533.43,0 1048.58,110.33 1539.97,331.07 483.61,241.76 830.57,551.89 1040.8,932.95l0 -63.67c17.35,-724.86 757.59,-1023.8 1434.85,-1042.77l0 6258.14c-39.65,831.77 -605.56,1117.97 -1434.85,1105.75z"/>
    <path class="fil7" d="M113180.92 78112.6l0 1583.81 1545.35 0c-13.67,699.22 -325.43,1273.76 -1081.91,1277.27l-463.44 0 0 6086.63c-924.32,7.78 -1429.98,-382 -1434.85,-1115.66l0 -4970.96 -1324.61 0c0.68,-764.86 405.59,-1239.32 1228.47,-1277.27l96.14 0 0 -2696.31c766.99,6.67 1423.49,368.93 1434.85,1112.5z"/>
    <path class="fil4" d="M81508.3 80973.67c-3.33,-817.24 367.05,-1260.35 1162.92,-1277.27l161.6 0 1434.94 0 1545.26 0c-30.51,846.72 -378.92,1262.82 -1024.48,1277.27l-520.79 0 -1434.94 0 -1324.52 0z"/>
    <path class="fil4" d="M110419.84 80972.56c-3.33,-817.33 367.05,-1260.43 1162.92,-1277.35l161.69 0 1434.85 0 1545.35 0c-30.59,846.72 -379.01,1262.91 -1024.56,1277.35l-520.79 0 -1434.85 0 -1324.61 0z"/>
    <path class="fil7" d="M88818.18 87028.85c-819.21,25.55 -1444.77,-189.03 -1464.85,-906.89l0 -6610.57c966.03,-11.02 1460.23,220.91 1464.85,1010.29l0 685.29c367.64,-1236.84 1062.42,-1856.59 2089.98,-1856.59 592.91,0 1027.56,96.65 1306.58,287.14 -208.95,769.38 -618.98,1194.97 -1326.06,1113.36 -3.25,-0.34 -6.67,0 -10,0 -662.65,0 -1169.76,316.62 -1526.55,949.79 -264.84,471.9 -491.39,1066.44 -498.57,1793.86l-35.38 3534.32z"/>
    <path class="fil7" d="M106223.81 79527.28c1135.49,0 2065.96,396.96 2794.07,1188.13 -482.67,638.63 -1102.16,829.63 -1920.43,370.21 -12.82,-7.26 -27.86,-10.26 -41.87,-15.21 -264.32,-92.98 -552.23,-139.47 -863.3,-139.47 -691.28,0 -1280.09,223.39 -1763.7,672.9 -486.26,441.57 -730.76,1027.73 -730.76,1761.05 0,730.76 247.06,1324.78 738.62,1782.16 494.12,459.94 1082.93,688.63 1771.56,688.63 300.9,0 578.98,-45.46 834.16,-136.39 10.34,-3.67 20.94,-6.75 30.85,-11.2 829.72,-372.26 1456.3,-185.79 1960.68,336.79 -733.41,788.61 -1661.23,1182.83 -2778.35,1182.83 -1119.77,0 -2065.96,-354.82 -2838.77,-1064.47 -770.15,-720.25 -1153.86,-1645.42 -1153.86,-2778.35 0,-1132.84 378.5,-2055.45 1132.84,-2765.1 756.99,-709.73 1697.98,-1067.21 2828.26,-1072.51z"/>
    <polygon class="fil4" points="56114.5,82349.38 51579.46,85544.26 56108.35,76046.89 60687.65,85513.32 "/>
    <polygon class="fil3" points="57539.1,83335.15 52050.42,87201.81 57531.75,75707.45 63073.91,87164.47 "/>
   </g>
   <ellipse class="fil4" cx="113472.38" cy="109312.95" rx="1662.73" ry="1656.59"/>
   <ellipse class="fil2" cx="3962.64" cy="98285.2" rx="3962.64" ry="3948"/>
   <ellipse class="fil4" cx="5663.48" cy="75033.67" rx="1662.73" ry="1656.59"/>
   <g>
    <polygon class="fil8" points="82257.34,161440.31 79039.57,161440.31 79039.57,162486.5 82257.34,162486.5 "/>
    <polygon class="fil9" points="80244.28,161440.31 79039.57,161440.31 79039.57,162486.5 80244.28,162486.5 "/>
    <polygon class="fil8" points="78558.18,159027.81 75340.32,159027.81 75340.32,160074 78558.18,160074 "/>
    <polygon class="fil9" points="76545.03,159027.81 75340.32,159027.81 75340.32,160074 76545.03,160074 "/>
    <polygon class="fil8" points="82257.34,162636.05 79039.57,162636.05 79039.57,163682.32 82257.34,163682.32 "/>
    <polygon class="fil9" points="80244.28,162636.05 79039.57,162636.05 79039.57,163682.32 80244.28,163682.32 "/>
    <polygon class="fil8" points="78558.18,160223.64 75340.32,160223.64 75340.32,161269.82 78558.18,161269.82 "/>
    <polygon class="fil9" points="76545.03,160223.64 75340.32,160223.64 75340.32,161269.82 76545.03,161269.82 "/>
    <polygon class="fil8" points="82257.34,163831.87 79039.57,163831.87 79039.57,164878.15 82257.34,164878.15 "/>
    <polygon class="fil9" points="80244.28,163831.87 79039.57,163831.87 79039.57,164878.15 80244.28,164878.15 "/>
    <polygon class="fil8" points="78558.18,161419.46 75340.32,161419.46 75340.32,162465.65 78558.18,162465.65 "/>
    <polygon class="fil9" points="76545.03,161419.46 75340.32,161419.46 75340.32,162465.65 76545.03,162465.65 "/>
    <polygon class="fil8" points="82257.34,165027.7 79039.57,165027.7 79039.57,166073.88 82257.34,166073.88 "/>
    <polygon class="fil9" points="80244.28,165027.7 79039.57,165027.7 79039.57,166073.88 80244.28,166073.88 "/>
    <polygon class="fil8" points="78558.18,162615.2 75340.32,162615.2 75340.32,163661.47 78558.18,163661.47 "/>
    <polygon class="fil9" points="76545.03,162615.2 75340.32,162615.2 75340.32,163661.47 76545.03,163661.47 "/>
    <polygon class="fil8" points="78558.18,163825.04 75340.32,163825.04 75340.32,164871.22 78558.18,164871.22 "/>
    <polygon class="fil9" points="76545.03,163825.04 75340.32,163825.04 75340.32,164871.22 76545.03,164871.22 "/>
    <polygon class="fil8" points="78558.18,165034.79 75340.32,165034.79 75340.32,166080.98 78558.18,166080.98 "/>
    <polygon class="fil9" points="76545.03,165034.79 75340.32,165034.79 75340.32,166080.98 76545.03,166080.98 "/>
    <path class="fil10" d="M77354.41 156050.35l8696.88 0c321.15,0 583.77,262.61 583.77,583.68l0 2663.06 -1200.27 0c-640.09,0 -1163.69,523.69 -1163.69,1163.69l0 0c0,640.09 523.61,1163.78 1163.69,1163.78l1200.27 0 0 2772.54c0,321.07 -262.61,583.68 -583.77,583.68l-8696.88 0c-126.39,0 -243.64,-40.59 -339.44,-109.56l1543.21 0 0 -1046.19 -1787.54 0 0 -163.57 1787.54 0 0 -1046.19 -1787.54 0 0 -149.64 1787.54 0 0 -1046.27 -1787.54 0 0 -149.55 1787.54 0 0 -1046.19 -1787.54 0 0 -149.64 1787.54 0 0 -1046.19 -1787.54 0 0 -2393.78c0,-321.07 262.7,-583.68 583.77,-583.68zm2889.87 5389.88l-1204.71 0 0 1046.27 1204.71 0 2013.07 0 0 -1046.27 -2013.07 0zm0 1195.91l-1204.71 0 0 1046.1 1204.71 0 2013.07 0 0 -1046.1 -2013.07 0zm0 1195.74l-1204.71 0 0 1046.27 1204.71 0 2013.07 0 0 -1046.27 -2013.07 0z"/>
    <ellipse class="fil0" cx="85584.28" cy="160515.58" rx="523.97" ry="523.94"/>
    <path class="fil11" d="M85434.79 159297.09l1700.03 0 0 2327.47 -1700.03 0c-640,0 -1163.69,-523.69 -1163.69,-1163.78l0 0c0,-640 523.61,-1163.69 1163.69,-1163.69zm149.47 694.52c289.45,0 523.95,234.58 523.95,523.95 0,289.36 -234.5,523.95 -523.95,523.95 -289.36,0 -523.95,-234.58 -523.95,-523.95 0,-289.36 234.58,-523.95 523.95,-523.95z"/>
   </g>
   <ellipse class="fil1" cx="17397.73" cy="128470.87" rx="8388.93" ry="8357.93"/>
   <g>
    <g>
     <polygon class="fil12" points="15716.03,130700.73 18288.93,130700.73 18288.93,131537.28 15716.03,131537.28 "/>
     <polygon class="fil8" points="17325.64,130700.73 18288.93,130700.73 18288.93,131537.28 17325.64,131537.28 "/>
    </g>
    <g>
     <polygon class="fil12" points="18673.84,128771.75 21246.75,128771.75 21246.75,129608.31 18673.84,129608.31 "/>
     <polygon class="fil8" points="20283.45,128771.75 21246.75,128771.75 21246.75,129608.31 20283.45,129608.31 "/>
    </g>
    <g>
     <polygon class="fil12" points="15716.03,131656.84 18288.93,131656.84 18288.93,132493.39 15716.03,132493.39 "/>
     <polygon class="fil8" points="17325.64,131656.84 18288.93,131656.84 18288.93,132493.39 17325.64,132493.39 "/>
    </g>
    <g>
     <polygon class="fil12" points="18673.84,129727.95 21246.75,129727.95 21246.75,130564.42 18673.84,130564.42 "/>
     <polygon class="fil8" points="20283.45,129727.95 21246.75,129727.95 21246.75,130564.42 20283.45,130564.42 "/>
    </g>
    <g>
     <polygon class="fil12" points="15716.03,132613.04 18288.93,132613.04 18288.93,133449.59 15716.03,133449.59 "/>
     <polygon class="fil8" points="17325.64,132613.04 18288.93,132613.04 18288.93,133449.59 17325.64,133449.59 "/>
    </g>
    <g>
     <polygon class="fil12" points="18673.84,130684.06 21246.75,130684.06 21246.75,131520.62 18673.84,131520.62 "/>
     <polygon class="fil8" points="20283.45,130684.06 21246.75,130684.06 21246.75,131520.62 20283.45,131520.62 "/>
    </g>
    <g>
     <polygon class="fil12" points="15716.03,133569.15 18288.93,133569.15 18288.93,134405.7 15716.03,134405.7 "/>
     <polygon class="fil8" points="17325.64,133569.15 18288.93,133569.15 18288.93,134405.7 17325.64,134405.7 "/>
    </g>
    <g>
     <polygon class="fil12" points="18673.84,131640.18 21246.75,131640.18 21246.75,132476.73 18673.84,132476.73 "/>
     <polygon class="fil8" points="20283.45,131640.18 21246.75,131640.18 21246.75,132476.73 20283.45,132476.73 "/>
    </g>
    <g>
     <polygon class="fil12" points="18673.84,132607.48 21246.75,132607.48 21246.75,133444.04 18673.84,133444.04 "/>
     <polygon class="fil8" points="20283.45,132607.48 21246.75,132607.48 21246.75,133444.04 20283.45,133444.04 "/>
    </g>
    <g>
     <polygon class="fil12" points="18673.84,133574.79 21246.75,133574.79 21246.75,134411.34 18673.84,134411.34 "/>
     <polygon class="fil8" points="20283.45,133574.79 21246.75,133574.79 21246.75,134411.34 20283.45,134411.34 "/>
    </g>
    <path class="fil10" d="M13548.62 123924.45l5728.81 0 0 4847.3 -603.59 0 0 836.56 603.59 0 0 119.64 -603.59 0 0 836.47 603.59 0 0 119.64 -603.59 0 0 836.56 603.59 0 0 119.56 -603.59 0 0 370.55 -384.91 0 0 -353.88 -963.29 0 -1609.61 0 0 353.88 -2167.4 0 0 -8086.27zm3777.02 6776.28l963.29 0 0 836.56 -963.29 0 -1609.61 0 0 -836.56 1609.61 0z"/>
    <path class="fil8" d="M14410.48 122530.28l4005.11 0c474.04,0 861.85,387.81 861.85,861.85l0 532.32 -5728.81 0 0 -532.32c0,-474.04 387.81,-861.85 861.85,-861.85zm2915.17 10082.76l963.29 0 0 836.56 -963.29 0 -1609.61 0 0 -836.56 1609.61 0zm1951.79 -136.31l0 130.75 -603.59 0 0 836.56 196.64 0c-132.29,82.81 -288.25,130.75 -454.9,130.75l-126.65 0 0 -5.64 -963.29 0 -1609.61 0 0 5.64 -1305.55 0c-474.04,0 -861.85,-387.81 -861.85,-861.85l0 -702.21 2167.4 0 0 482.67 1609.61 0 963.29 0 0 -482.67 384.91 0 0 466.01 603.59 0z"/>
   </g>
   <g>
    <polygon class="fil8" points="111413.21,129404.15 114338.89,129404.15 114338.89,129047.53 111839.31,126620.16 111413.21,126620.16 "/>
    <polygon class="fil13" points="106163.65,131187.16 110734.15,131187.16 110734.15,131566.77 106163.65,131566.77 "/>
    <polygon class="fil11" points="111271.86,131187.16 112932.41,131187.16 112932.41,131535.15 111271.86,131535.15 "/>
    <polygon class="fil11" points="111271.86,132033.37 112932.41,132033.37 112932.41,132381.27 111271.86,132381.27 "/>
    <polygon class="fil11" points="111271.86,132879.5 112932.41,132879.5 112932.41,133227.4 111271.86,133227.4 "/>
    <polygon class="fil11" points="111271.86,133725.62 112932.41,133725.62 112932.41,134073.53 111271.86,134073.53 "/>
    <polygon class="fil11" points="111271.86,136667.11 112932.41,136667.11 112932.41,137015.02 111271.86,137015.02 "/>
    <polygon class="fil13" points="106163.65,132041.15 109121.03,132041.15 109121.03,132373.33 106163.65,132373.33 "/>
    <polygon class="fil13" points="106195.36,132942.65 110228.15,132942.65 110228.15,133306.36 106195.36,133306.36 "/>
    <polygon class="fil13" points="106195.36,133717.51 109880.16,133717.51 109880.16,134065.49 106195.36,134065.49 "/>
    <polygon class="fil13" points="106195.36,135773.47 112853.36,135773.47 112853.36,136089.75 106195.36,136089.75 "/>
    <path class="fil14" d="M104941.08 126620.24l6472.13 -0.09 -19.57 2799.29 2941.49 -31.62 0 10573.46 -8603.3 0 -790.75 0c-577.79,58.28 -916.63,-263.73 -956.8,-1060.54l79.05 -9408.58c12.9,-398.32 541.72,-395.42 553.52,25.72l-95.12 9305.86c32.3,362.17 176.22,567.36 419.35,632.91l0 -12836.41zm1254.28 9153.23l6658 0 0 316.28 -6658 0 0 -316.28zm0 -2055.97l3684.81 0 0 347.99 -3684.81 0 0 -347.99zm0 -774.85l4032.8 0 0 363.71 -4032.8 0 0 -363.71zm-31.71 -901.5l2957.38 0 0 332.18 -2957.38 0 0 -332.18zm5108.21 4625.97l1660.55 0 0 347.9 -1660.55 0 0 -347.9zm0 -2941.49l1660.55 0 0 347.9 -1660.55 0 0 -347.9zm0 -846.13l1660.55 0 0 347.9 -1660.55 0 0 -347.9zm0 -846.13l1660.55 0 0 347.9 -1660.55 0 0 -347.9zm0 -846.21l1660.55 0 0 347.99 -1660.55 0 0 -347.99zm-5108.21 0l4570.5 0 0 379.61 -4570.5 0 0 -379.61z"/>
   </g>
   <g>
    <path class="fil8" d="M142279.36 101804.32l6546.99 0c208.43,0 378.92,170.49 378.92,378.92l0 454.9 -7304.84 0 0 -454.9c0,-208.43 170.49,-378.92 378.92,-378.92zm6925.92 1762.33l0 2614.95c0,208.43 -170.49,378.92 -378.92,378.92l-6546.99 0c-208.43,0 -378.92,-170.49 -378.92,-378.92l0 -2614.95 7304.84 0z"/>
    <rect class="fil15" x="142701.01" y="104076.12" width="3602.37" height="246.33"/>
    <rect class="fil15" x="142710.99" y="104551.92" width="1511.03" height="246.33"/>
    <rect class="fil15" x="142721.05" y="105556.23" width="2801.8" height="246.33"/>
    <rect class="fil16" x="147143.92" y="104078.2" width="1250.83" height="928.5"/>
    <polygon class="fil8" points="144882,96430.16 147352.79,96430.16 147352.79,96129 145241.87,94079.02 144882,94079.02 "/>
    <polygon class="fil10" points="141900.43,102638.14 149205.27,102638.14 149205.27,103566.65 141900.43,103566.65 "/>
    <path class="fil14" d="M139416.32 94079.1l5465.68 -0.09 -16.49 2364.04 2484.11 -26.66 0 5387.92 -5070.27 0c-208.43,0 -378.92,170.49 -378.92,378.92l0 454.9 0 928.51 0 1779.08 -1816.34 0 -667.77 0c-488.05,49.31 -774.17,-222.62 -808.1,-895.61l66.74 -7945.61c10.94,-336.45 457.55,-333.97 467.46,21.71l-80.33 7858.95c27.26,305.77 148.87,479.08 354.23,534.46l0 -10840.52z"/>
   </g>
   <g>
    <path class="fil8" d="M86493.19 18432.68l8027.31 0c271.67,0 493.95,222.28 493.95,493.95l0 592.83 -9015.21 0 0 -592.83c0,-271.67 222.28,-493.95 493.95,-493.95zm8521.26 2297.04l0 3408.44c0,271.76 -222.28,493.95 -493.95,493.95l-8027.31 0c-271.67,0 -493.95,-222.19 -493.95,-493.95l0 -3408.44 9015.21 0z"/>
    <polygon class="fil10" points="86987.23,21393.82 91433.13,21393.82 91433.13,21714.97 86987.23,21714.97 "/>
    <polygon class="fil10" points="86999.62,22013.99 88864.41,22013.99 88864.41,22335.15 86999.62,22335.15 "/>
    <polygon class="fil10" points="90469.84,23323.05 87012.01,23323.05 87012.01,23644.2 90469.84,23644.2 "/>
    <polygon class="fil10" points="92470.43,21396.55 94014.16,21396.55 94014.16,22606.82 92470.43,22606.82 "/>
    <polygon class="fil14" points="85999.24,19519.45 95014.45,19519.45 95014.45,20729.72 85999.24,20729.72 "/>
    <polygon class="fil8" points="95014.45,20985.07 96348.29,20985.07 96348.29,22195.34 95014.45,22195.34 "/>
    <path class="fil14" d="M95014.45 19898.29l839.89 0c271.67,0 493.95,222.28 493.95,493.95l0 592.83 -1333.84 0 0 -1086.78zm1333.84 2297.04l0 3408.44c0,271.67 -222.28,493.95 -493.95,493.95l-8027.31 0c-271.67,0 -493.95,-222.28 -493.95,-493.95l0 -971.67 7187.42 0c271.67,0 493.95,-222.19 493.95,-493.95l0 -1942.82 1333.84 0z"/>
   </g>
   <g>
    <path class="fil10" d="M125596.02 15035.01l5060.44 0c26.15,0 51.87,2.22 76.83,6.49l-924.07 -924.15c-178.18,-178.1 -178.1,-469.51 0,-647.69l11.79 -11.71c178.1,-178.18 470.28,-178.87 647.69,-0.09l1993.84 2010.5 -2037.34 2085.96c-177.16,178.95 -469.51,178.1 -647.61,0l-11.79 -11.79c-178.1,-178.1 -177.24,-468.66 -0.09,-647.69l920.9 -930.22c-10,0.68 -20,1.03 -30.17,1.03l-5060.44 0c-251.42,0 -457.03,-205.61 -457.03,-457.03l0 -16.66c0,-251.33 205.61,-456.95 457.03,-456.95z"/>
    <path class="fil11" d="M131842.03 16512.42l-399.18 0 -908.94 930.73 1308.12 0c251.42,0 457.03,-205.7 457.03,-457.03l0 -16.66c0,-251.42 -205.61,-457.03 -457.03,-457.03zm-1697.72 0l-3362.71 0c-26.15,0 -51.87,2.31 -76.83,6.58l553.26 -553.35 -1310.42 0 -972.09 980.13 2037.34 2086.05c177.16,178.95 469.51,178.1 647.61,-0.09l11.79 -11.71c178.1,-178.18 177.24,-468.74 0.09,-647.69l-920.9 -930.3c10,0.68 20,1.11 30.17,1.11l2908.93 0c-97.51,-174.25 -71.87,-399.69 75.2,-548.3l378.58 -382.43zm-2446.94 -1477.41c-18.72,-31.36 -41.62,-60.93 -68.54,-87.85l-11.79 -11.79c-178.1,-178.1 -470.28,-178.87 -647.69,0l-98.79 99.64 826.81 0z"/>
   </g>
   <g>
    <path class="fil8" d="M25981.59 17303l12397.58 0c248.26,0 451.31,203.05 451.31,451.31l0 812.63c0,248.26 -203.05,451.31 -451.31,451.31l-12397.58 0c-248.26,0 -451.31,-203.05 -451.31,-451.31l0 -812.63c0,-248.26 203.05,-451.31 451.31,-451.31z"/>
    <path class="fil17" d="M26432.98 19349.22c241.34,1965.89 711.61,3931.87 1474.5,5897.76l8094.39 150.49c842.11,-1908.21 1500.14,-4034.68 1820.53,-6063.3l-11389.42 15.04z"/>
    <path class="fil12" d="M35881.55 13030.15l-4573.84 4513.59c-456.01,558.64 275.43,1474.42 1053.19,872.62l4363.18 -4333.1c393.62,-440.63 -187.84,-1374.6 -842.54,-1053.11z"/>
   </g>
   <g>
    <g>
     <polygon class="fil18" points="4994.46,51854.47 7268.86,51854.47 7268.86,52593.94 4994.46,52593.94 "/>
     <polygon class="fil8" points="6417.35,51854.47 7268.86,51854.47 7268.86,52593.94 6417.35,52593.94 "/>
    </g>
    <g>
     <polygon class="fil18" points="7609.16,50149.31 9883.47,50149.31 9883.47,50888.78 7609.16,50888.78 "/>
     <polygon class="fil8" points="9031.96,50149.31 9883.47,50149.31 9883.47,50888.78 9031.96,50888.78 "/>
    </g>
    <g>
     <polygon class="fil18" points="4994.46,52699.65 7268.86,52699.65 7268.86,53439.13 4994.46,53439.13 "/>
     <polygon class="fil8" points="6417.35,52699.65 7268.86,52699.65 7268.86,53439.13 6417.35,53439.13 "/>
    </g>
    <g>
     <polygon class="fil18" points="7609.16,50994.5 9883.47,50994.5 9883.47,51733.97 7609.16,51733.97 "/>
     <polygon class="fil8" points="9031.96,50994.5 9883.47,50994.5 9883.47,51733.97 9031.96,51733.97 "/>
    </g>
    <g>
     <polygon class="fil18" points="4994.46,53544.84 7268.86,53544.84 7268.86,54284.31 4994.46,54284.31 "/>
     <polygon class="fil8" points="6417.35,53544.84 7268.86,53544.84 7268.86,54284.31 6417.35,54284.31 "/>
    </g>
    <g>
     <polygon class="fil18" points="7609.16,51839.68 9883.47,51839.68 9883.47,52579.16 7609.16,52579.16 "/>
     <polygon class="fil8" points="9031.96,51839.68 9883.47,51839.68 9883.47,52579.16 9031.96,52579.16 "/>
    </g>
    <g>
     <polygon class="fil18" points="4994.46,54390.03 7268.86,54390.03 7268.86,55129.5 4994.46,55129.5 "/>
     <polygon class="fil8" points="6417.35,54390.03 7268.86,54390.03 7268.86,55129.5 6417.35,55129.5 "/>
    </g>
    <g>
     <polygon class="fil18" points="7609.16,52684.96 9883.47,52684.96 9883.47,53424.43 7609.16,53424.43 "/>
     <polygon class="fil8" points="9031.96,52684.96 9883.47,52684.96 9883.47,53424.43 9031.96,53424.43 "/>
    </g>
    <g>
     <polygon class="fil18" points="7609.16,53539.97 9883.47,53539.97 9883.47,54279.44 7609.16,54279.44 "/>
     <polygon class="fil8" points="9031.96,53539.97 9883.47,53539.97 9883.47,54279.44 9031.96,54279.44 "/>
    </g>
    <g>
     <polygon class="fil18" points="7609.16,54395.07 9883.47,54395.07 9883.47,55134.54 7609.16,55134.54 "/>
     <polygon class="fil8" points="9031.96,54395.07 9883.47,54395.07 9883.47,55134.54 9031.96,55134.54 "/>
    </g>
    <path class="fil10" d="M10870.35 54829.88l-2184.75 1770.19 -2027.94 44.78 56.06 -672.22 1669.35 0c490.45,-57.86 711.27,-319.62 648.89,-795.79l-3393.82 -4.96c-1061.82,771.01 -2034.17,1672.94 -2901.84,2727.93l-7.01 564.37 2617.51 -4.19 515.4 -605.05 2879.36 22.39 2913.03 -2397.63c346.11,-386.19 -295.77,-1114.98 -784.25,-649.83z"/>
   </g>
   <g>
    <polygon class="fil12" points="12647.21,78710.3 16350.39,78710.3 16350.39,82141.55 12647.21,82141.55 "/>
    <polygon class="fil19" points="17267.62,78693.29 21259.56,78693.29 21259.56,79032.99 17267.62,79032.99 "/>
    <polygon class="fil19" points="17301.2,80018.67 19297.18,80018.67 19297.18,80358.37 17301.2,80358.37 "/>
    <polygon class="fil19" points="12737.02,83025.19 15709.28,83025.19 15709.28,83364.98 12737.02,83364.98 "/>
    <polygon class="fil19" points="12737.02,83666.22 15352.57,83666.22 15352.57,84006 12737.02,84006 "/>
    <polygon class="fil19" points="12737.02,84307.33 16371.75,84307.33 16371.75,84647.03 12737.02,84647.03 "/>
    <polygon class="fil19" points="12737.02,84948.35 15029.79,84948.35 15029.79,85288.14 12737.02,85288.14 "/>
    <polygon class="fil8" points="17340,83025.19 19607.56,83025.19 19607.56,83364.98 17340,83364.98 "/>
    <polygon class="fil8" points="17340,83666.22 19344.26,83666.22 19344.26,84006 17340,84006 "/>
    <polygon class="fil8" points="17340,84307.33 20202.18,84307.33 20202.18,84647.03 17340,84647.03 "/>
    <polygon class="fil8" points="17340,84948.35 19064.04,84948.35 19064.04,85288.14 17340,85288.14 "/>
    <polygon class="fil19" points="17301.2,80681.49 19297.18,80681.49 19297.18,81021.27 17301.2,81021.27 "/>
    <polygon class="fil19" points="17301.54,81411.13 17930.09,81411.13 17930.09,82005.75 17301.54,82005.75 "/>
    <polygon class="fil19" points="18354.82,81411.13 18983.37,81411.13 18983.37,82005.75 18354.82,82005.75 "/>
    <polygon class="fil8" points="21709.68,81411.13 22338.22,81411.13 22338.22,82005.75 21709.68,82005.75 "/>
    <polygon class="fil19" points="11925.42,76740.9 12375.62,76740.9 12375.62,77564.72 11925.42,77564.72 "/>
    <polygon class="fil19" points="12702.58,76740.9 13152.78,76740.9 13152.78,77564.72 12702.58,77564.72 "/>
    <polygon class="fil19" points="13479.74,76740.9 13929.94,76740.9 13929.94,77564.72 13479.74,77564.72 "/>
    <path class="fil8" d="M11577.18 76339.41l12094.54 0 0 1626.71 -12094.54 0 0 -1626.71zm348.24 401.49l450.2 0 0 823.82 -450.2 0 0 -823.82zm777.16 0l450.2 0 0 823.82 -450.2 0 0 -823.82zm777.16 0l450.2 0 0 823.82 -450.2 0 0 -823.82z"/>
    <path class="fil14" d="M11577.18 76315.23l12094.54 0 0 24.18 -12094.54 0 0 -24.18zm12094.54 1650.89l0 8710.98 -12094.54 0 0 -8710.98 12094.54 0zm-6404.11 727.17l3991.95 0 0 339.7 -3991.95 0 0 -339.7zm33.59 1325.38l1995.97 0 0 339.7 -1995.97 0 0 -339.7zm0 662.82l1995.97 0 0 339.78 -1995.97 0 0 -339.78zm1053.62 729.65l628.55 0 0 594.62 -628.55 0 0 -594.62zm-1053.28 0l628.55 0 0 594.62 -628.55 0 0 -594.62zm4408.13 0l628.55 0 0 594.62 -628.55 0 0 -594.62zm-4369.67 1614.06l2267.56 0 0 339.78 -2267.56 0 0 -339.78zm0 641.03l2004.26 0 0 339.78 -2004.26 0 0 -339.78zm0 641.11l2862.18 0 0 339.7 -2862.18 0 0 -339.7zm0 641.03l1724.04 0 0 339.78 -1724.04 0 0 -339.78zm-4602.98 -1923.16l2972.25 0 0 339.78 -2972.25 0 0 -339.78zm0 641.03l2615.55 0 0 339.78 -2615.55 0 0 -339.78zm0 641.11l3634.73 0 0 339.7 -3634.73 0 0 -339.7zm0 641.03l2292.77 0 0 339.78 -2292.77 0 0 -339.78zm-89.82 -6238.06l3703.18 0 0 3431.25 -3703.18 0 0 -3431.25z"/>
   </g>
   <g>
    <path class="fil10" d="M112390.43 43985.17l902.02 -839.8c608.89,144.68 1062.17,678.63 1394.69,1514.67 1371.27,-1997.85 2599.82,-3332.21 3722.41,-4086.04l0 850.23c-1520.31,1548.77 -2808.86,3375.96 -3914.44,5422.53 -553.52,-1074.99 -1247.1,-2035.37 -2104.68,-2861.59z"/>
    <path class="fil11" d="M114822.24 40247.46l-518.48 0 -145.11 0c-1973.07,0 -3587.39,1614.32 -3587.39,3587.39l0 158.01 0 816.56 0 3587.39 3587.39 0 663.59 0 357.3 0 -10.85 -16.92c1743.53,-169.12 3131.98,-1599.79 3234.53,-3361.26l6.32 3.25 0 -212.45 0 -974.57 0 -2410.62c-1520.31,1548.77 -2808.86,3375.96 -3914.44,5422.53 -553.52,-1074.99 -1247.1,-2035.37 -2104.68,-2861.59l902.02 -839.8c608.89,144.68 1062.17,678.63 1394.69,1514.67 1371.27,-1997.85 2599.82,-3332.21 3722.41,-4086.04l0 -326.54 -3587.3 0z"/>
   </g>
  </g>
 </g>
</svg>
