<svg xmlns="http://www.w3.org/2000/svg" xmlns:xlink="http://www.w3.org/1999/xlink" width="483" height="196" viewBox="0 0 483 196">
  <defs>
    <style>
      .cls-1 {
        clip-path: url(#clip-Kshopit_180px_2);
      }

      .cls-2, .cls-4 {
        fill: #FB0028;
      }

      .cls-3 {
        fill: #FFFFFF;
      }

      .cls-4 {
        fill-rule: evenodd;
      }
    </style>
    <clipPath id="clip-Kshopit_180px_2">
      <rect width="483" height="196"/>
    </clipPath>
  </defs>
  <g id="Kshopit_180px_2" data-name="Kshopit – 180px_2" class="cls-1">
    <g id="Group_1868" data-name="Group 1868" transform="translate(-9034.571 -3672.742)">
      <g id="Group_1855" data-name="Group 1855" transform="translate(9074 3672.742)">
        <g id="Group_1848" data-name="Group 1848" transform="translate(20.709 127.808)">
          <path id="Wheel_2_4_" class="cls-2" d="M94.879,432.09a26.1,26.1,0,1,1-26.1,26.1A26.1,26.1,0,0,1,94.879,432.09Z" transform="translate(-68.781 -432.09)"/>
          <path id="Wheel_1_4_" class="cls-2" d="M329.072,432.09a26.121,26.121,0,1,1-26.091,26.1A26.1,26.1,0,0,1,329.072,432.09Z" transform="translate(-230.764 -432.09)"/>
        </g>
        <path id="Cart_4_" class="cls-2" d="M183.251,98.971H150.913C145.68,82.63,126.438,72,107.092,72.251c-18.455.244-36.586,11.957-40.837,26.719H32.745a7.343,7.343,0,0,0-7.544,7.141V225.719a7.336,7.336,0,0,0,7.544,7.139H183.251a7.338,7.338,0,0,0,7.553-7.139V106.112A7.346,7.346,0,0,0,183.251,98.971Zm-37.892,0H71.883C76.3,87.92,91.45,76.777,107.092,76.641,123.209,76.5,139.622,85.371,145.359,98.971Z" transform="translate(-25.201 -72.247)"/>
        <g id="XMLID_1_" transform="translate(38.468 53.144)">
          <path id="XMLID_2_" class="cls-3" d="M191.431,230V215.826l18.928,25.717h37.386l-5.051-9.055-31.909-4.62,27.789-1.739-5.338-7.848-28.887-3.815,24.693-2.388-5.182-7.466-33.679-2.888,31.021-3.233c1.755-2.559,5.979-8.561,5.979-8.561l-22.832-5.717s26.172,1.013,26.9,0c3.174-4.444,5.642-7.857,5.642-7.857l-26.1-4.415,31.909-1.54,5.055-9.206h-38.6l-17.714,25.658V161.2h-33.38s.151,26.419,0,55.3l-.151,25.045h33.531Z" transform="translate(-157.9 -161.197)"/>
        </g>
      </g>
      <path id="shop_2x_5_" data-name="shop@2x (5)" class="cls-4" d="M121.2,249.173v40.173h12.959l.02-3.035c.011-1.669.057-11.476.1-21.792l.082-18.757,1.228-.643a25.788,25.788,0,0,1,7.434-2.445,31.457,31.457,0,0,1,7.216.067,10.105,10.105,0,0,1,8.446,8.409l.355,1.433.044,18.381.044,18.381h13.1l-.046-19.814c-.045-19.47-.051-19.845-.337-21.6-1.076-6.592-3.265-10.391-7.623-13.227a16.108,16.108,0,0,0-4.351-2.078,28.7,28.7,0,0,0-15.383-.648,42.035,42.035,0,0,0-8.836,3.144c-.669.336-1.249.611-1.288.611s-.071-6.016-.071-13.368V209H121.2v40.173m84.029-17.984a32.911,32.911,0,0,0-12.1,2.859,22.386,22.386,0,0,0-7.485,6c-2.79,3.707-4.432,8.289-5.2,14.514a74.7,74.7,0,0,0,0,12.482c1.014,7.864,3.531,13.489,7.86,17.564,3.786,3.564,8.771,5.592,15.35,6.244.75.075,2.592.135,4.092.135a32.365,32.365,0,0,0,10.8-1.569c7.471-2.486,12.614-7.822,15.179-15.748,2.269-7.011,2.361-17.521.218-24.958q-3.753-13.029-16.362-16.386a41.951,41.951,0,0,0-12.356-1.136m59.816.055a54.349,54.349,0,0,0-11.74,1.969c-4.133,1.354-7.51,3.68-8.757,6.034a15.671,15.671,0,0,0-.736,1.673l-.319.887-.036,34.819-.036,34.819h12.826V299.713c0-7.5.048-11.731.132-11.731a5.366,5.366,0,0,1,.892.336,36.683,36.683,0,0,0,13.659,2.533c7.479,0,13.28-2.256,17.794-6.912,4.225-4.358,6.77-10.355,7.487-17.646a64.271,64.271,0,0,0-.351-12.55c-1.363-9.426-5.905-16.341-12.9-19.631-4.982-2.345-10.935-3.3-17.92-2.868M88.8,231.786a27.77,27.77,0,0,0-8.321,2.52c-4.326,2.139-7.307,5.4-8.534,9.324a20.591,20.591,0,0,0,.375,12.494,15.645,15.645,0,0,0,6.608,6.867,42.744,42.744,0,0,0,6.53,2.615c1.013.312,3.376,1.067,5.252,1.679,6.877,2.242,8.935,3.863,8.935,7.036a5.724,5.724,0,0,1-3.052,5.121c-3.465,2.078-10.792,1.894-16.659-.418a64.743,64.743,0,0,1-8.219-4.164l-.443-.27v6.066c0,5.658.016,6.07.239,6.138.131.04,1.006.39,1.944.779A51.665,51.665,0,0,0,83,290.558a48.242,48.242,0,0,0,11.086.219,29.472,29.472,0,0,0,10.772-3.287,17.215,17.215,0,0,0,6.686-7.012,20.2,20.2,0,0,0,.989-12.358c-1.006-3.966-3.686-7.066-7.935-9.18-1.625-.808-2.634-1.154-7.814-2.677a73.53,73.53,0,0,1-8.152-2.772c-2.461-1.026-3.728-2.563-3.982-4.832-.3-2.672.745-4.477,3.3-5.7,1.794-.858,3.348-1.132,6.444-1.138,4.52-.008,6.33.492,12.071,3.338,2.107,1.044,3.859,1.9,3.894,1.9s.063-2.446.063-5.436v-5.436l-1.9-.9a37.865,37.865,0,0,0-8.313-3.089,38.252,38.252,0,0,0-11.41-.409M204.61,242.068c-5.13.856-8.044,3.217-9.889,8.014-1.741,4.527-2.137,12.637-.9,18.473a19.664,19.664,0,0,0,3.228,7.386c2.326,2.923,6.337,4.413,11.381,4.228a13.572,13.572,0,0,0,8.353-2.7c2.695-2.141,4.67-6.421,5.441-11.789a52.978,52.978,0,0,0,.072-9.276c-.942-8.291-4.249-12.8-10.354-14.129a28.059,28.059,0,0,0-7.332-.206m60.771.358a21.716,21.716,0,0,0-6.973,1.5,4.668,4.668,0,0,0-1.912,1.833c-.236.517-.249,1.342-.252,15.925l0,15.38,1.535.735a22.584,22.584,0,0,0,10.811,2.228c7.195-.307,11.567-3.633,13.508-10.276,1.672-5.722,1.142-15.557-1.1-20.334a11.064,11.064,0,0,0-2.31-3.436c-2.794-2.936-6.712-3.984-13.308-3.559" transform="translate(9182.089 3515.477)"/>
    </g>
  </g>
</svg>
