<?xml version="1.0" encoding="UTF-8"?>
<!DOCTYPE svg PUBLIC "-//W3C//DTD SVG 1.1//EN" "http://www.w3.org/Graphics/SVG/1.1/DTD/svg11.dtd">
<!-- Creator: CorelDRAW 2018 (64-Bit Evaluation Version) -->
<svg xmlns="http://www.w3.org/2000/svg" xml:space="preserve" width="41.8373mm" height="11.9062mm" version="1.1" style="shape-rendering:geometricPrecision; text-rendering:geometricPrecision; image-rendering:optimizeQuality; fill-rule:evenodd; clip-rule:evenodd"
viewBox="0 0 2161.64 615.17"
 xmlns:xlink="http://www.w3.org/1999/xlink">
 <defs>
  <style type="text/css">
   <![CDATA[
    .str0 {stroke:#5AEEBC;stroke-width:10.33;stroke-miterlimit:22.9256}
    .fil3 {fill:#0B85EA}
    .fil1 {fill:#313B4A}
    .fil2 {fill:#5AEEBC}
    .fil0 {fill:#313B4A;fill-rule:nonzero}
   ]]>
  </style>
 </defs>
 <g id="Layer_x0020_1">
  <metadata id="CorelCorpID_0Corel-Layer"/>
  <g id="_1794990911792">
   <path class="fil0" d="M1152.55 464.5c-31.37,1.76 -56.84,-15.24 -58.46,-49.02l0 -414.17c33.57,-1.58 57.68,11.64 58.46,49.39l0 218.29 86.12 -86.93c28.09,-25.36 68.53,-26.88 97.07,-17.57l-128.59 129.56 159.32 170.46c-25.89,10.34 -61.38,8.81 -91.62,-15.46l-122.31 -131.12 0 146.58z"/>
   <path class="fil0" d="M1393.16 85.65c-7.6,-7.39 -11.35,-16.38 -11.35,-26.98 0,-10.71 3.75,-19.59 11.35,-26.99 8.46,-7.28 17.99,-10.92 28.8,-10.92 10.81,0 20.34,3.53 28.48,10.6 8.25,7.18 12.32,16.28 12.32,27.31 0,11.03 -4.07,20.13 -12.32,27.3 -8.14,7.07 -17.67,10.6 -28.48,10.6 -10.81,0 -20.34,-3.64 -28.8,-10.92zm-0.43 383.53l0 -252.03c0.11,-31.45 21.96,-47.15 58.46,-47.98l0 246.16c0.05,37.62 -22.58,53.48 -58.46,53.86z"/>
   <path class="fil0" d="M1580.46 247.44c-18.52,18.41 -27.84,42.94 -27.84,73.66 0,30.62 9.85,54.5 29.45,71.63 19.7,17.13 42.94,25.69 69.92,25.69 26.98,0 50,-8.99 68.96,-26.98 17.99,-17.88 26.98,-41.43 26.98,-70.67 0,-29.23 -9.42,-53.32 -28.26,-72.06 -18.96,-18.73 -42.3,-28.27 -69.81,-28.48 -27.63,-0.21 -50.75,8.89 -69.38,27.2zm-28.48 -78.27l0 47.22c9.85,-16.81 24.09,-29.77 42.94,-38.76 18.41,-9.96 38.97,-14.88 61.78,-14.88 41.87,0 77.31,14.56 106.22,43.79 29.02,28.91 43.47,66.6 43.47,112.96 0,46.36 -14.35,83.94 -43.15,112.85 -28.7,28.8 -64.24,43.26 -106.54,43.26 -22.81,0 -43.69,-4.5 -62.74,-13.49 -18.96,-9 -32.98,-21.63 -41.97,-37.69l0 150.12c-1.22,32.83 -28.53,41.95 -58.46,40.47l0 -393.59c0.45,-45.25 27.02,-52.32 58.46,-52.25z"/>
   <path class="fil0" d="M2073.63 391.44c19.27,-17.99 28.91,-42.19 28.91,-72.7 0,-30.51 -10.06,-54.6 -30.09,-72.16 -20.13,-17.56 -43.79,-26.45 -70.99,-26.66 -27.31,0 -50.11,9.1 -68.53,27.3 -18.42,17.99 -27.63,41.55 -27.63,70.88 0,29.23 9.42,53.32 28.27,72.06 18.84,18.84 42.08,28.26 69.7,28.26 27.63,0 51.07,-8.99 70.35,-26.98zm29.55 77.73l0 -46.04c-9.42,15.74 -23.66,28.38 -42.72,38.01 -19.06,9.64 -39.83,14.46 -62.53,14.46 -41.55,0 -77.63,-14.57 -108.14,-43.69 -29.45,-29.02 -44.23,-66.7 -44.23,-112.85 0,-46.25 14.57,-83.84 43.58,-112.64 29.13,-28.91 65.42,-43.47 108.89,-43.68 21.74,0 42.72,4.5 62.75,13.49 19.7,9.85 33.84,22.48 42.4,38.01 0.69,-40.02 26.2,-47.34 58.46,-45.07l0 249.28c-1.91,33.98 -24.7,50.87 -58.46,50.73z"/>
   <path class="fil0" d="M661.77 0l32.76 0c5.8,38.34 -6.18,55.76 -32.87,55.89 -37.58,0.18 -56.21,25.59 -55.79,76.88l0 30.41 136.97 0.26c-0.67,28.8 -11.11,51.01 -43.43,52.03l-93.54 -0.26 0 198.68c0.16,30.64 -24.69,50.3 -58.46,49.3l0 -247.98 -58.46 0c-0.99,-27.25 11.95,-51.51 39.95,-52.03l18.51 0 0 -30.41c0,-42.4 9.53,-75.06 28.7,-97.97 19.16,-23.02 47.75,-34.59 85.65,-34.8z"/>
   <path class="fil0" d="M845.04 301.66l0 118.46c-0.88,33.87 -27.62,42.26 -58.46,43.33l0 -252.59c1.23,-36.68 25.67,-46.56 58.46,-47.42l0 45.07c8.57,-16.7 21.42,-29.55 38.65,-38.33 17.13,-8.78 35.55,-13.17 55.14,-13.17 37.69,0 66.07,11.56 85.23,34.8 20.03,22.81 30.19,55.57 30.41,98.19l0 173.45c-33.86,3.08 -56.55,-9.73 -58.46,-43.9l0 -125.71c0,-25.27 -6,-44.75 -17.88,-58.35 -11.56,-14.24 -28.59,-21.31 -51.18,-21.31 -22.81,0 -42.18,7.39 -58.03,22.27 -15.95,14.78 -23.88,36.62 -23.88,65.2z"/>
   <path class="fil1" d="M740.87 169.77l0 240.39c-0.8,38.74 -20.5,52.26 -58.46,53.28l0 -251.46c0.57,-33.3 29.74,-41.42 58.46,-42.22z"/>
   <path class="fil2 str0" d="M1421.98 20.11c10.81,0 20.35,3.53 28.48,10.6 8.24,7.17 12.31,16.28 12.31,27.3 0,11.03 -4.07,20.13 -12.31,27.3 -8.14,7.07 -17.67,10.6 -28.48,10.6 -10.81,0 -20.34,-3.64 -28.8,-10.92 -7.61,-7.39 -11.35,-16.38 -11.35,-26.98 0,-10.71 3.75,-19.59 11.35,-26.98 8.46,-7.28 17.99,-10.92 28.8,-10.92z"/>
   <g>
    <polygon class="fil2" points="318.58,229.93 463.09,48.64 181.54,179.86 311.8,463.2 "/>
    <polygon class="fil3" points="142.89,142.82 463.38,0 -0,0 1.05,463.21 "/>
   </g>
  </g>
 </g>
</svg>
