<?xml version="1.0" encoding="UTF-8"?>
<!DOCTYPE svg PUBLIC "-//W3C//DTD SVG 1.1//EN" "http://www.w3.org/Graphics/SVG/1.1/DTD/svg11.dtd">
<!-- Creator: CorelDRAW 2018 (64-Bit Evaluation Version) -->
<svg xmlns="http://www.w3.org/2000/svg" xml:space="preserve" width="41.8373mm" height="11.9063mm" version="1.1" style="shape-rendering:geometricPrecision; text-rendering:geometricPrecision; image-rendering:optimizeQuality; fill-rule:evenodd; clip-rule:evenodd"
viewBox="0 0 2251.14 640.64"
 xmlns:xlink="http://www.w3.org/1999/xlink">
 <defs>
  <style type="text/css">
   <![CDATA[
    .str0 {stroke:#313B4A;stroke-width:10.76;stroke-miterlimit:22.9256}
    .fil1 {fill:#313B4A}
    .fil0 {fill:#313B4A;fill-rule:nonzero}
   ]]>
  </style>
 </defs>
 <g id="Layer_x0020_1">
  <metadata id="CorelCorpID_0Corel-Layer"/>
  <g id="_1794985586176">
   <path class="fil0" d="M1200.27 483.74c-32.67,1.82 -59.2,-15.87 -60.88,-51.05l0 -431.32c34.96,-1.64 60.07,12.12 60.88,51.43l0 227.33 89.69 -90.52c29.25,-26.41 71.36,-28 101.09,-18.3l-133.91 134.92 165.92 177.52c-26.96,10.77 -63.92,9.18 -95.42,-16.1l-127.37 -136.55 0 152.65z"/>
   <path class="fil0" d="M1450.85 89.2c-7.92,-7.69 -11.82,-17.06 -11.82,-28.1 0,-11.15 3.9,-20.4 11.82,-28.1 8.81,-7.58 18.74,-11.37 30,-11.37 11.26,0 21.18,3.68 29.66,11.04 8.59,7.47 12.83,16.95 12.83,28.43 0,11.49 -4.24,20.96 -12.83,28.44 -8.47,7.36 -18.4,11.04 -29.66,11.04 -11.26,0 -21.18,-3.79 -30,-11.37zm-0.45 399.41l0 -262.47c0.12,-32.75 22.87,-49.1 60.88,-49.97l0 256.35c0.05,39.18 -23.51,55.69 -60.88,56.09z"/>
   <path class="fil0" d="M1645.9 257.68c-19.29,19.18 -28.99,44.71 -28.99,76.72 0,31.89 10.26,56.76 30.66,74.59 20.52,17.84 44.71,26.76 72.81,26.76 28.1,0 52.07,-9.37 71.81,-28.1 18.73,-18.62 28.1,-43.15 28.1,-73.59 0,-30.44 -9.81,-55.53 -29.43,-75.04 -19.74,-19.52 -44.05,-29.44 -72.7,-29.66 -28.77,-0.22 -52.85,9.26 -72.26,28.32zm-29.66 -81.51l0 49.17c10.26,-17.5 25.08,-31 44.71,-40.37 19.18,-10.37 40.59,-15.5 64.34,-15.5 43.6,0 80.51,15.16 110.62,45.61 30.22,30.11 45.27,69.36 45.27,117.64 0,48.28 -14.94,87.42 -44.93,117.53 -29.88,29.99 -66.9,45.05 -110.95,45.05 -23.75,0 -45.49,-4.68 -65.34,-14.05 -19.74,-9.37 -34.34,-22.52 -43.71,-39.25l0 156.34c-1.27,34.18 -29.71,43.69 -60.88,42.15l0 -409.89c0.47,-47.12 28.14,-54.49 60.88,-54.42z"/>
   <path class="fil0" d="M2159.48 407.66c20.07,-18.74 30.11,-43.93 30.11,-75.71 0,-31.78 -10.48,-56.87 -31.33,-75.16 -20.96,-18.28 -45.61,-27.54 -73.93,-27.76 -28.44,0 -52.19,9.48 -71.36,28.44 -19.18,18.73 -28.77,43.26 -28.77,73.82 0,30.44 9.81,55.53 29.44,75.04 19.62,19.62 43.83,29.44 72.59,29.44 28.77,0 53.19,-9.37 73.26,-28.1zm30.78 80.95l0 -47.95c-9.81,16.39 -24.64,29.55 -44.49,39.58 -19.85,10.04 -41.48,15.06 -65.12,15.06 -43.27,0 -80.84,-15.16 -112.62,-45.49 -30.66,-30.22 -46.06,-69.46 -46.06,-117.53 0,-48.17 15.17,-87.31 45.39,-117.3 30.33,-30.11 68.13,-45.27 113.4,-45.49 22.64,0 44.49,4.68 65.34,14.05 20.52,10.26 35.24,23.42 44.16,39.59 0.72,-41.68 27.29,-49.3 60.88,-46.94l0 259.6c-1.99,35.38 -25.73,52.97 -60.88,52.83z"/>
   <path class="fil0" d="M689.17 0l34.12 0c6.04,39.93 -6.44,58.07 -34.23,58.21 -39.14,0.19 -58.54,26.65 -58.1,80.06l0 31.67 142.64 0.27c-0.69,30 -11.57,53.12 -45.22,54.19l-97.41 -0.27 0 206.9c0.17,31.92 -25.71,52.39 -60.88,51.34l0 -258.24 -60.88 0c-1.03,-28.38 12.44,-53.65 41.6,-54.19l19.27 0 0 -31.67c0,-44.15 9.93,-78.17 29.89,-102.03 19.96,-23.97 49.73,-36.01 89.2,-36.24z"/>
   <path class="fil0" d="M880.03 314.16l0 123.36c-0.92,35.27 -28.76,44.02 -60.88,45.12l0 -263.05c1.28,-38.2 26.74,-48.5 60.88,-49.39l0 46.95c8.92,-17.4 22.3,-30.78 40.25,-39.92 17.84,-9.15 37.02,-13.72 57.42,-13.72 39.25,0 68.8,12.04 88.76,36.24 20.86,23.75 31.44,57.87 31.67,102.25l0 180.64c-35.26,3.21 -58.89,-10.13 -60.88,-45.71l0 -130.91c0,-26.31 -6.25,-46.61 -18.62,-60.77 -12.04,-14.83 -29.77,-22.19 -53.3,-22.19 -23.75,0 -43.93,7.69 -60.44,23.19 -16.62,15.39 -24.86,38.14 -24.86,67.91z"/>
   <path class="fil1" d="M771.54 176.8l0 250.35c-0.83,40.34 -21.35,54.43 -60.88,55.49l0 -261.86c0.6,-34.68 30.97,-43.14 60.88,-43.97z"/>
   <path class="fil1 str0" d="M1480.86 20.95c11.26,0 21.19,3.68 29.66,11.04 8.58,7.47 12.82,16.95 12.82,28.43 0,11.49 -4.24,20.96 -12.82,28.44 -8.47,7.36 -18.4,11.04 -29.66,11.04 -11.26,0 -21.18,-3.79 -29.99,-11.37 -7.92,-7.69 -11.82,-17.06 -11.82,-28.1 0,-11.15 3.9,-20.4 11.82,-28.1 8.81,-7.58 18.73,-11.37 29.99,-11.37z"/>
   <g>
    <polygon class="fil1" points="331.77,239.46 482.27,50.65 189.06,187.31 324.71,482.39 "/>
    <polygon class="fil1" points="148.81,148.73 482.57,0 -0,0 1.1,482.39 "/>
   </g>
  </g>
 </g>
</svg>
