<?xml version="1.0" encoding="UTF-8"?>
<!DOCTYPE svg PUBLIC "-//W3C//DTD SVG 1.1//EN" "http://www.w3.org/Graphics/SVG/1.1/DTD/svg11.dtd">
<!-- Creator: CorelDRAW 2018 (64-Bit Evaluation Version) -->
<svg xmlns="http://www.w3.org/2000/svg" xml:space="preserve" width="24.532mm" height="23.7531mm" version="1.1" style="shape-rendering:geometricPrecision; text-rendering:geometricPrecision; image-rendering:optimizeQuality; fill-rule:evenodd; clip-rule:evenodd"
viewBox="0 0 324.93 314.61"
 xmlns:xlink="http://www.w3.org/1999/xlink">
 <defs>
  <style type="text/css">
   <![CDATA[
    .fil0 {fill:#00C2FF}
    .fil2 {fill:#4A71DD}
    .fil1 {fill:#00C2FF;fill-rule:nonzero}
   ]]>
  </style>
 </defs>
 <g id="Layer_x0020_1">
  <metadata id="CorelCorpID_0Corel-Layer"/>
  <g id="_2194170276544">
   <g>
    <path class="fil0" d="M190.14 20.06c-10.13,-14.05 -45,-14.24 -54.64,-2.11l-125.18 212.68 1.88 0.42c19.73,4.36 26.7,-3.27 33.22,-13.02l116.32 -196.52 -8.41 -4.93 0.06 -0.06 0 -0 0.06 -0.06 0.06 -0.06 0 -0 0.06 -0.05 0.06 -0.06 0.01 -0 0.06 -0.06 0.06 -0.06 0 -0.01 0.06 -0.05 0.06 -0.05 0.01 -0.01 0.05 -0.05 0.06 -0.05 0.01 -0.01 0.06 -0.04 0.06 -0.05 0.02 -0.01 0.05 -0.04 0.06 -0.05 0.01 -0.01 0.05 -0.04 0.07 -0.05 0.02 -0.01 0.05 -0.03 0.06 -0.05 0.02 -0.01 0.05 -0.03 0.07 -0.05 0.01 -0.01 0.05 -0.03 0.07 -0.04 0.02 -0.01 0.05 -0.02 0.06 -0.04 0.03 -0.01 0.05 -0.03 0.07 -0.04 0.03 -0.01 0.05 -0.02 0.07 -0.04 0.03 -0.02 0.05 -0.02 0.07 -0.03 0.03 -0.01 0.04 -0.02 0.07 -0.03 0.04 -0.01 0.04 -0.01 0.07 -0.03 0.03 -0.01 0.04 -0.01 0.06 -0.03 0.04 -0.01 0.03 -0.01 0.07 -0.02 0.04 -0.01 0.03 -0.01 0.07 -0.02 0.04 -0.01 0.03 -0.01 0.07 -0.02 0.04 -0.01 0.03 -0.01 0.07 -0.02 0.05 -0.01 0.02 -0.01 0.07 -0.02 0.05 -0.01 0.03 -0.01 0.07 -0.01 0.05 -0.01 0.03 -0.01 0.12 -0.02 0.02 -0.01 0.07 -0.01 0.05 -0.01 0.02 -0 0.07 -0.01 0.06 -0.01 0.01 0 0.01 0c1.38,0.12 4.28,2.9 5.38,4.11l26.72 33.98 12.36 -13.73 -11.46 -18.91z"/>
    <path id="1" class="fil1" d="M139.88 22.66l-8.76 -9.42 0.57 -0.83 1.42 -1.6 1.53 -1.41 1.61 -1.24 1.7 -1.1 1.77 -0.97 1.84 -0.86 1.91 -0.76 1.97 -0.66 2.03 -0.57 2.08 -0.48 2.13 -0.4 2.16 -0.31 2.2 -0.23 2.22 -0.15 2.24 -0.06 2.25 0.02 2.25 0.1 2.24 0.18 2.23 0.26 2.21 0.35 2.18 0.43 2.15 0.52 2.11 0.62 2.06 0.71 2 0.81 1.94 0.91 1.88 1.02 1.81 1.14 1.73 1.28 1.64 1.43 1.54 1.6 1.43 1.79 -8.01 10.56 -0.61 -0.76 -0.77 -0.79 -0.93 -0.8 -1.07 -0.79 -1.21 -0.76 -1.34 -0.73 -1.45 -0.68 -1.55 -0.63 -1.64 -0.57 -1.72 -0.5 -1.79 -0.43 -1.84 -0.37 -1.88 -0.3 -1.91 -0.23 -1.94 -0.15 -1.95 -0.09 -1.94 -0.02 -1.93 0.06 -1.91 0.13 -1.88 0.2 -1.83 0.26 -1.78 0.33 -1.71 0.4 -1.63 0.46 -1.54 0.51 -1.43 0.57 -1.31 0.61 -1.18 0.65 -1.03 0.67 -0.88 0.67 -0.7 0.65 -0.53 0.6 0.57 -0.83zm-8.76 -9.42l0.26 -0.44 0.31 -0.39 -0.57 0.83zm-125.18 212.68l125.18 -212.68 8.76 9.42 -125.18 212.68 -5.28 2.75 -3.47 -12.17zm3.47 12.17l-9.41 -2.08 5.94 -10.09 3.47 12.17zm1.88 0.42l-1.88 -0.42 1.81 -14.93 1.88 0.42 -1.81 14.93 -0 -0zm29.76 -25.21l8.74 9.45 -0.22 0.35 -0.65 0.97 -0.67 0.96 -0.69 0.97 -0.71 0.96 -0.74 0.95 -0.76 0.94 -0.79 0.93 -0.83 0.92 -0.86 0.89 -0.9 0.87 -0.94 0.84 -0.97 0.8 -1.01 0.76 -1.06 0.72 -1.1 0.67 -1.14 0.62 -1.18 0.57 -1.22 0.51 -1.26 0.45 -1.31 0.39 -1.35 0.33 -1.4 0.27 -1.44 0.2 -1.48 0.14 -1.54 0.08 -1.59 0.01 -1.63 -0.06 -1.69 -0.12 -1.75 -0.19 -1.8 -0.26 -1.87 -0.33 -1.93 -0.4 1.81 -14.93 1.69 0.35 1.61 0.28 1.54 0.22 1.45 0.16 1.38 0.1 1.31 0.05 1.24 -0.01 1.17 -0.06 1.11 -0.1 1.04 -0.15 0.98 -0.19 0.93 -0.23 0.87 -0.26 0.83 -0.3 0.78 -0.33 0.74 -0.36 0.71 -0.39 0.67 -0.41 0.65 -0.44 0.63 -0.47 0.61 -0.5 0.59 -0.53 0.58 -0.56 0.57 -0.59 0.56 -0.62 0.56 -0.66 0.56 -0.69 0.56 -0.73 0.56 -0.75 0.56 -0.79 0.57 -0.82 0.57 -0.85 -0.22 0.35zm8.74 9.45l-0.1 0.17 -0.12 0.18 0.22 -0.35zm116.32 -196.52l-116.32 196.52 -8.74 -9.45 116.32 -196.52 6.59 -2.21 2.14 11.66zm-2.14 -11.66l6.72 3.94 -4.57 7.73 -2.14 -11.66zm-8.41 -4.93l8.41 4.93 -4.45 13.88 -8.41 -4.93 -1.15 -12.97 5.6 -0.9zm-4.45 13.88l-8.8 -5.16 7.65 -7.81 1.15 12.97zm5.66 -0.97l-0.06 0.06 -6.74 -12.07 0.06 -0.06 8.97 6.04 -2.22 6.04zm2.22 -6.04l0 3.77 -2.22 2.27 2.22 -6.04zm0 -0l0 0 -11.19 0 0 -0 2.17 -5.98 9.02 5.98zm-11.19 0l0 -3.71 2.17 -2.27 -2.17 5.98zm9.08 5.92l-0.06 0.06 -6.85 -11.96 0.06 -0.06 0.19 -0.19 6.66 12.15zm-6.85 -11.96l0.09 -0.1 0.1 -0.1 -0.19 0.19zm6.72 12.09l-0.06 0.06 -6.47 -12.34 0.06 -0.06 8.83 6.17 -2.36 6.17zm2.36 -6.17l0 3.91 -2.36 2.26 2.36 -6.17zm0 -0l0 0 -11.19 0 0 -0 2.37 -6.18 8.82 6.18zm-11.19 0l0 -3.92 2.37 -2.26 -2.37 6.18zm8.87 6.13l-0.06 0.05 -6.44 -12.37 0.06 -0.05 0.04 -0.03 6.41 12.4zm-6.44 -12.37l0.04 -0.03 -0.05 0.05 0.02 -0.02zm6.47 12.34l-0.06 0.06 -6.37 -12.44 0.06 -0.06 2.17 -1.22 4.2 13.66zm-6.37 -12.44l0.99 -0.92 1.18 -0.3 -2.17 1.22zm4.21 13.65l-0.01 0 -2.03 -14.87 0.01 -0 4.29 13.57 -2.26 1.31zm2.26 -1.31l-1.02 1 -1.24 0.31 2.26 -1.31zm0.06 -0.06l-0.06 0.06 -6.55 -12.26 0.06 -0.06 0.05 -0.04 6.51 12.31zm-6.55 -12.26l0.05 -0.04 -0.01 0.01 -0.03 0.03zm6.57 12.25l-0.06 0.06 -6.46 -12.35 0.06 -0.06 7.86 10.41 -1.4 1.94zm1.4 -1.94l-0.57 1.14 -0.83 0.8 1.4 -1.94zm0 -0.01l-0 0.01 -9.27 -8.47 0 -0.01 1.81 -2.29 7.46 10.77zm-9.27 -8.47l0.71 -1.43 1.1 -0.87 -1.81 2.29zm7.52 10.72l-0.06 0.05 -5.65 -13.06 0.06 -0.05 5.9 12.85 -0.26 0.21zm0.26 -0.21l-0.12 0.11 -0.13 0.1 0.26 -0.21zm0.06 -0.05l-0.06 0.05 -6.16 -12.63 0.06 -0.05 1.33 -0.87 4.83 13.5zm-6.16 -12.63l0.62 -0.55 0.71 -0.32 -1.33 0.87zm4.84 13.5l-0.01 0.01 -3.49 -14.37 0.01 -0.01 4.96 13.38 -1.46 0.99zm1.46 -0.99l-0.68 0.64 -0.79 0.35 1.46 -0.99zm0.05 -0.05l-0.05 0.05 -6.42 -12.39 0.05 -0.05 0.08 -0.08 6.34 12.47zm-6.42 -12.39l0.03 -0.02 0.06 -0.05 -0.08 0.08zm6.4 12.41l-0.06 0.05 -6.25 -12.55 0.06 -0.05 1.19 -0.82 5.07 13.37zm-6.25 -12.55l0.56 -0.51 0.63 -0.32 -1.19 0.82zm5.08 13.36l-0.01 0.01 -3.88 -14.19 0.01 -0.01 4.57 13.77 -0.69 0.42zm0.69 -0.42l-0.34 0.24 -0.36 0.18 0.69 -0.42zm0.06 -0.04l-0.06 0.04 -5.26 -13.35 0.06 -0.04 5.55 13.13 -0.28 0.22zm0.28 -0.22l-0.14 0.11 -0.15 0.11 0.28 -0.22zm0.06 -0.05l-0.06 0.05 -5.83 -12.91 0.06 -0.05 0.2 -0.16 5.63 13.07zm-5.83 -12.91l0.11 -0.09 0.09 -0.07 -0.2 0.16zm5.65 13.06l-0.02 0.01 -5.43 -13.23 0.02 -0.01 5.72 12.99 -0.29 0.23zm0.29 -0.23l-0.14 0.12 -0.15 0.11 0.29 -0.23zm0.05 -0.04l-0.05 0.04 -6.01 -12.76 0.05 -0.04 0.13 -0.11 5.88 12.87zm-6.01 -12.76l0.06 -0.05 0.08 -0.06 -0.13 0.11zm5.94 12.82l-0.06 0.05 -5.74 -12.98 0.06 -0.05 1.42 -0.81 4.32 13.8zm-5.74 -12.98l0.67 -0.54 0.75 -0.27 -1.42 0.81zm4.34 13.79l-0.01 0.01 -2.91 -14.61 0.01 -0.01 4.12 13.96 -1.21 0.65zm1.21 -0.65l-0.58 0.42 -0.63 0.23 1.21 -0.65zm0.05 -0.04l-0.05 0.04 -5.32 -13.3 0.05 -0.04 0.09 -0.06 5.23 13.37zm-5.32 -13.3l0.06 -0.04 0.03 -0.02 -0.09 0.06zm5.3 13.32l-0.07 0.05 -5.14 -13.43 0.07 -0.05 0.25 -0.17 4.89 13.6zm-5.14 -13.43l0.14 -0.1 0.12 -0.07 -0.25 0.17zm4.91 13.59l-0.02 0.01 -4.64 -13.77 0.02 -0.01 4.84 13.63 -0.21 0.14zm0.21 -0.14l-0.12 0.08 -0.08 0.05 0.21 -0.14zm0.05 -0.03l-0.05 0.03 -5.05 -13.5 0.05 -0.03 5.14 13.44 -0.09 0.06zm0.09 -0.06l-0.04 0.03 -0.05 0.03 0.09 -0.06zm0.06 -0.05l-0.06 0.05 -5.23 -13.37 0.06 -0.05 0.14 -0.1 5.09 13.47zm-5.23 -13.37l0.08 -0.06 0.06 -0.04 -0.14 0.1zm5.1 13.46l-0.02 0.01 -4.95 -13.57 0.02 -0.01 0.32 -0.2 4.63 13.76zm-4.95 -13.57l0.15 -0.1 0.17 -0.1 -0.32 0.2zm4.68 13.74l-0.05 0.03 -4.31 -13.96 0.05 -0.03 4.73 13.7 -0.42 0.26zm0.42 -0.26l-0.2 0.14 -0.22 0.12 0.42 -0.26zm0.07 -0.05l-0.07 0.05 -5.14 -13.43 0.07 -0.05 0.19 -0.13 4.95 13.56zm-5.14 -13.43l0.1 -0.07 0.08 -0.05 -0.19 0.13zm4.97 13.55l-0.01 0.01 -4.77 -13.69 0.01 -0.01 0.18 -0.11 4.59 13.8zm-4.77 -13.69l0.1 -0.06 0.08 -0.05 -0.18 0.11zm4.64 13.77l-0.05 0.03 -4.41 -13.91 0.05 -0.03 4.5 13.85 -0.09 0.06zm0.09 -0.06l-0.09 0.06 -0 0 0.09 -0.06zm0.07 -0.04l-0.07 0.04 -4.59 -13.8 0.07 -0.04 4.83 13.64 -0.24 0.16zm0.24 -0.16l-0.12 0.08 -0.12 0.07 0.24 -0.16zm0.02 -0.01l-0.02 0.01 -5.07 -13.48 0.02 -0.01 0.55 -0.33 4.52 13.81zm-5.07 -13.48l0.28 -0.19 0.27 -0.14 -0.55 0.33zm4.57 13.79l-0.05 0.02 -3.98 -14.14 0.05 -0.02 4.4 13.9 -0.42 0.25zm0.42 -0.25l-0.22 0.14 -0.21 0.11 0.42 -0.25zm0.06 -0.04l-0.06 0.04 -4.82 -13.65 0.06 -0.04 1.01 -0.5 3.81 14.15zm-4.82 -13.65l0.48 -0.31 0.52 -0.18 -1.01 0.5zm3.84 14.14l-0.03 0.01 -2.8 -14.64 0.03 -0.01 3.58 14.29 -0.78 0.35zm0.78 -0.35l-0.38 0.21 -0.4 0.14 0.78 -0.35zm0.05 -0.03l-0.05 0.03 -4.35 -13.93 0.05 -0.03 0.01 -0.01 4.35 13.94zm-4.35 -13.93l0.01 -0.01 0 0 -0.01 0.01zm4.41 13.9l-0.07 0.04 -4.34 -13.94 0.07 -0.04 0.58 -0.28 3.75 14.23zm-4.34 -13.94l0.29 -0.16 0.3 -0.12 -0.58 0.28zm3.78 14.21l-0.03 0.01 -3.17 -14.51 0.03 -0.01 3.38 14.42 -0.21 0.09zm0.21 -0.09l-0.09 0.04 -0.11 0.05 0.21 -0.09zm0.05 -0.02l-0.05 0.02 -3.58 -14.33 0.05 -0.02 3.93 14.15 -0.35 0.18zm0.35 -0.18l-0.18 0.1 -0.17 0.08 0.35 -0.18zm0.07 -0.04l-0.07 0.04 -4.28 -13.98 0.07 -0.04 4.41 13.9 -0.13 0.07zm0.13 -0.07l-0.06 0.03 -0.07 0.04 0.13 -0.07zm0.03 -0.02l-0.03 0.02 -4.54 -13.83 0.03 -0.02 0.79 -0.38 3.75 14.21zm-4.54 -13.83l0.38 -0.23 0.4 -0.15 -0.79 0.38zm3.8 14.19l-0.05 0.02 -2.96 -14.59 0.05 -0.02 3.35 14.42 -0.39 0.17zm0.39 -0.17l-0.19 0.09 -0.2 0.07 0.39 -0.17zm0.07 -0.03l-0.07 0.03 -3.74 -14.26 0.07 -0.03 0.22 -0.1 3.52 14.36zm-3.74 -14.26l0.1 -0.05 0.13 -0.05 -0.22 0.1zm3.55 14.34l-0.03 0.01 -3.3 -14.46 0.03 -0.01 3.65 14.29 -0.35 0.16zm0.35 -0.16l-0.17 0.09 -0.19 0.08 0.35 -0.16zm0.04 -0.02l-0.04 0.02 -4 -14.13 0.04 -0.02 0.2 -0.1 3.8 14.23zm-4 -14.13l0.08 -0.04 0.12 -0.05 -0.2 0.1zm3.87 14.19l-0.07 0.03 -3.6 -14.32 0.07 -0.03 0.37 -0.15 3.23 14.47zm-3.6 -14.32l0.19 -0.09 0.18 -0.07 -0.37 0.15zm3.27 14.46l-0.04 0.01 -2.86 -14.63 0.04 -0.01 2.99 14.58 -0.13 0.05zm0.13 -0.05l-0.06 0.02 -0.07 0.03 0.13 -0.05zm0.04 -0.01l-0.04 0.01 -3.12 -14.53 0.04 -0.01 3.24 14.48 -0.12 0.05zm0.12 -0.05l-0.05 0.02 -0.07 0.03 0.12 -0.05zm0.07 -0.03l-0.07 0.03 -3.36 -14.43 0.07 -0.03 0.01 -0 3.35 14.43zm-3.36 -14.43l0.01 -0 -0.19 0.08 0.18 -0.08zm3.39 14.42l-0.03 0.01 -3.34 -14.44 0.03 -0.01 0.24 -0.09 3.1 14.53zm-3.34 -14.44l0.12 -0.05 0.12 -0.04 -0.24 0.09zm3.14 14.52l-0.04 0.01 -2.86 -14.63 0.04 -0.01 2.97 14.58 -0.11 0.04zm0.11 -0.04l-0.07 0.03 -0.04 0.01 0.11 -0.04zm0.06 -0.03l-0.06 0.03 -3.08 -14.54 0.06 -0.03 0.32 -0.11 2.77 14.65zm-3.08 -14.54l0.16 -0.06 0.16 -0.05 -0.32 0.11zm2.81 14.64l-0.04 0.01 -2.45 -14.76 0.04 -0.01 2.94 14.58 -0.49 0.18zm0.49 -0.18l-0.24 0.11 -0.25 0.07 0.49 -0.18zm0.03 -0.01l-0.03 0.01 -3.43 -14.4 0.03 -0.01 0.47 -0.17 2.96 14.57zm-3.43 -14.4l0.23 -0.1 0.23 -0.07 -0.47 0.17zm3.03 14.55l-0.07 0.02 -2.49 -14.75 0.07 -0.02 2.67 14.69 -0.17 0.06zm0.17 -0.06l-0.07 0.03 -0.1 0.03 0.17 -0.06zm0.04 -0.01l-0.04 0.01 -2.84 -14.63 0.04 -0.01 0.19 -0.06 2.65 14.7zm-2.84 -14.63l0.08 -0.03 0.11 -0.03 -0.19 0.06zm2.68 14.69l-0.03 0.01 -2.46 -14.76 0.03 -0.01 2.62 14.71 -0.16 0.05zm0.16 -0.05l-0.08 0.03 -0.08 0.02 0.16 -0.05zm0.07 -0.02l-0.07 0.02 -2.78 -14.65 0.07 -0.02 0.34 -0.1 2.44 14.76zm-2.78 -14.65l0.16 -0.06 0.17 -0.05 -0.34 0.1zm2.48 14.75l-0.04 0.01 -2.1 -14.86 0.04 -0.01 0.2 -0.05 1.9 14.9zm-2.1 -14.86l0.11 -0.03 0.09 -0.02 -0.2 0.05zm1.93 14.9l-0.03 0.01 -1.7 -14.95 0.03 -0.01 2.19 14.82 -0.49 0.13zm0.49 -0.13l-0.24 0.08 -0.25 0.05 0.49 -0.13zm0.07 -0.02l-0.07 0.02 -2.68 -14.69 0.07 -0.02 0.09 -0.03 2.59 14.72zm-2.68 -14.69l0.03 -0.01 0.06 -0.02 -0.09 0.03zm2.63 14.7l-0.04 0.01 -2.5 -14.74 0.04 -0.01 0.31 -0.08 2.19 14.83zm-2.5 -14.74l0.15 -0.05 0.16 -0.04 -0.31 0.08zm2.23 14.82l-0.03 0.01 -1.88 -14.91 0.03 -0.01 1.96 14.89 -0.08 0.02zm0.08 -0.02l-0.06 0.01 -0.02 0 0.08 -0.02zm0.07 -0.02l-0.07 0.02 -2.03 -14.87 0.07 -0.02 0.24 -0.05 1.79 14.93zm-2.03 -14.87l0.12 -0.03 0.13 -0.02 -0.24 0.05zm1.84 14.92l-0.05 0.01 -1.55 -14.98 0.05 -0.01 2.32 14.76 -0.77 0.22zm0.77 -0.22l-0.38 0.15 -0.39 0.07 0.77 -0.22zm0.02 -0.01l-0.02 0.01 -3.09 -14.54 0.02 -0.01 0.6 -0.19 2.49 14.72zm-3.09 -14.54l0.3 -0.12 0.3 -0.07 -0.6 0.19zm2.57 14.71l-0.07 0.02 -1.89 -14.91 0.07 -0.02 0.1 -0.02 1.79 14.93zm-1.89 -14.91l0.1 -0.02 -0.02 0 -0.09 0.02zm1.83 14.92l-0.05 0.01 -1.68 -14.96 0.05 -0.01 1.7 14.95 -0.02 0zm0.02 -0l-0.02 0 -0.01 0 0.03 -0.01zm0.03 -0.01l-0.03 0.01 -1.72 -14.95 0.03 -0.01 0.09 -0.02 1.63 14.97zm-1.72 -14.95l0.03 -0.01 0.05 -0.01 -0.09 0.02zm1.7 14.95l-0.07 0.01 -1.55 -14.98 0.07 -0.01 0.17 -0.03 1.37 15.01zm-1.55 -14.98l0.06 -0.01 0.11 -0.02 -0.17 0.03zm1.43 15l-0.05 0.01 -1.2 -15.04 0.05 -0.01 1.42 15 -0.22 0.04zm0.22 -0.04l-0.1 0.02 -0.12 0.02 0.22 -0.04zm0.03 -0.01l-0.03 0.01 -1.64 -14.96 0.03 -0.01 0.14 -0.03 1.5 14.99zm-1.64 -14.96l0.09 -0.02 0.05 -0.01 -0.14 0.03zm1.62 14.97l-0.12 0.02 -1.35 -15.02 0.12 -0.02 1.94 14.88 -0.58 0.14zm0.58 -0.14l-0.29 0.09 -0.29 0.05 0.58 -0.14zm0.02 -0.01l-0.02 0.01 -2.52 -14.74 0.02 -0.01 0.8 -0.17 1.72 14.91zm-2.52 -14.74l0.39 -0.12 0.41 -0.05 -0.8 0.17zm1.79 14.9l-0.07 0.01 -0.92 -15.08 0.07 -0.01 0.99 15.07 -0.07 0.01zm0.07 -0.01l-0.01 0 -0.06 0.01 0.07 -0.01zm0.05 -0.01l-0.05 0.01 -1.06 -15.06 0.05 -0.01 1.3 15.02 -0.24 0.04zm0.24 -0.04l-0.13 0.02 -0.11 0.01 0.24 -0.04zm0.02 -0l-0.02 0 -1.54 -14.98 0.02 -0 0.31 -0.05 1.23 15.03zm-1.54 -14.98l0.16 -0.03 0.15 -0.02 -0.31 0.05zm1.3 15.02l-0.07 0.01 -0.92 -15.08 0.07 -0.01 0.08 -0.01 0.83 15.08zm-0.92 -15.08l0.08 -0.01 0 0 -0.08 0.01zm0.89 15.08l-0.06 0.01 -0.75 -15.09 0.06 -0.01 0.37 -0.02 0.37 15.11zm-0.75 -15.09l0.19 -0.02 0.19 0 -0.37 0.02zm0.39 15.11l-0.01 0 0 -15.13 0.01 0 0 0 0 15.13zm0.01 0l-0.01 0 0 -15.13 0.01 0 0.36 0.02 -0.36 15.11zm0 -15.13l0.18 0 0.18 0.02 -0.36 -0.02zm9.21 6.16l-7.67 11.02 0.29 0.34 -0.07 -0.08 -0.07 -0.08 -0.08 -0.08 -0.1 -0.1 -0.12 -0.13 -0.12 -0.12 -0.12 -0.11 -0.12 -0.12 -0.15 -0.14 -0.15 -0.14 -0.13 -0.12 -0.14 -0.12 -0.16 -0.14 -0.15 -0.13 -0.13 -0.11 -0.15 -0.13 -0.15 -0.12 -0.12 -0.1 -0.14 -0.11 -0.12 -0.09 -0.12 -0.08 -0.1 -0.07 -0.09 -0.06 -0.07 -0.05 -0.04 -0.02 -0.04 -0.02 0.01 0 0.04 0.02 0.07 0.03 0.14 0.04 0.21 0.05 0.29 0.04 0.72 -15.1 0.56 0.08 0.5 0.12 0.43 0.14 0.39 0.15 0.37 0.17 0.35 0.18 0.31 0.17 0.32 0.19 0.29 0.19 0.28 0.19 0.28 0.2 0.27 0.19 0.26 0.2 0.25 0.2 0.26 0.21 0.24 0.2 0.24 0.2 0.26 0.22 0.23 0.2 0.22 0.2 0.23 0.21 0.23 0.21 0.2 0.19 0.19 0.19 0.21 0.2 0.2 0.2 0.18 0.18 0.17 0.17 0.17 0.18 0.18 0.19 0.16 0.18 0.14 0.16 0.29 0.34zm-0.29 -0.34l0.16 0.17 0.13 0.17 -0.29 -0.34zm19.34 45.34l-26.72 -33.98 7.67 -11.02 26.72 33.98 -0.28 11.35 -7.38 -0.33zm7.38 0.33l-3.8 4.22 -3.58 -4.56 7.38 0.33zm12.36 -13.73l-12.36 13.73 -7.1 -11.69 12.36 -13.73 7.88 1.05 -0.78 10.64zm0.78 -10.64l3.54 5.84 -4.32 4.79 0.78 -10.64zm-11.46 -18.91l11.46 18.91 -8.66 9.58 -11.46 -18.91 8.34 -10.07 0.32 0.49zm-0.32 -0.49l0.17 0.23 0.15 0.26 -0.32 -0.49z"/>
   </g>
   <path class="fil2" d="M130.36 14.53c15.52,-3.72 25.6,11.69 33.76,24.4l103.48 179.1c14.1,27.49 35.75,23.17 57.33,15.75l-132.52 -221.6c-19.52,-19.71 -53.79,-12.97 -62.05,2.35z"/>
   <path class="fil0" d="M152.15 314.61l0 -81.92 0 0 0 -31.71 81.44 0c20.78,0.33 28.67,16.73 28.23,38.79l-72.15 0 0.11 53.15c-0.57,17.85 -16.85,21.8 -37.62,21.69z"/>
   <path class="fil2" d="M140.17 240.2l-44.46 0c-19.83,-0.41 -27.21,-20 -27.52,-39.02l71.97 0 0 31.63 0 0 0 7.4z"/>
   <path class="fil2" d="M189.89 114.51l0 74.53 -37.73 0 0 -46.8c-0.48,-20.52 17.66,-27.59 37.73,-27.72z"/>
  </g>
 </g>
</svg>
