<?xml version="1.0" encoding="UTF-8"?>
<!DOCTYPE svg PUBLIC "-//W3C//DTD SVG 1.1//EN" "http://www.w3.org/Graphics/SVG/1.1/DTD/svg11.dtd">
<!-- Creator: CorelDRAW 2018 (64-Bit Evaluation Version) -->
<svg xmlns="http://www.w3.org/2000/svg" xml:space="preserve" width="24.1639mm" height="23.8125mm" version="1.1" style="shape-rendering:geometricPrecision; text-rendering:geometricPrecision; image-rendering:optimizeQuality; fill-rule:evenodd; clip-rule:evenodd"
viewBox="0 0 231.46 228.09"
 xmlns:xlink="http://www.w3.org/1999/xlink">
 <defs>
  <style type="text/css">
   <![CDATA[
    .fil2 {fill:#F0805F}
    .fil0 {fill:#282829}
    .fil1 {fill:#282829;fill-rule:nonzero}
   ]]>
  </style>
 </defs>
 <g id="Layer_x0020_1">
  <metadata id="CorelCorpID_0Corel-Layer"/>
  <g>
   <path class="fil0" d="M109.74 17.68c-4.53,-8.49 -16.03,-12.92 -24.39,-6.37l-0.4 0.3 -0.08 0.06 -0.15 0.12 -0.23 0.19 -0.09 0.08 -0.13 0.12 -0.22 0.2 -0.1 0.09 -0.12 0.11 -0.33 0.32 -0.11 0.1 -0.22 0.22 -0.12 0.13 -0.09 0.09 -0.34 0.37 -0.08 0.09 -0.2 0.24 -0.14 0.16 -0.06 0.08 -0.2 0.25 -0.14 0.18 -0.05 0.07 -0.19 0.26 -0.15 0.2 -0.04 0.06 -0.19 0.27 -0.15 0.23 -0.03 0.04 -0.18 0.28 -0.16 0.25 -0.02 0.03 -0.06 0.1 -0.27 0.46 -0.01 0.02 -0.17 0.29 -0.16 0.3 -74.09 200.85 1.07 0.37c17.66,6.17 22.55,-1.86 26.26,-10.65l64.28 -176.2 -4.79 -4.45 0.04 -0.06 0 0 0.03 -0.05 0.03 -0.05 0 -0 0.03 -0.05 0.03 -0.05 0 0 0.03 -0.05 0.04 -0.05 0 -0.01 0.03 -0.04 0.03 -0.05 0.01 -0 0.03 -0.04 0.04 -0.05 0.01 -0.01 0.03 -0.04 0.04 -0.05 0.01 -0.01 0.03 -0.04 0.03 -0.05 0.01 -0 0.03 -0.03 0.04 -0.04 0.01 -0.01 0.03 -0.03 0.04 -0.04 0.01 -0.01 0.03 -0.03 0.04 -0.04 0.01 -0.01 0.03 -0.02 0.04 -0.04 0.01 -0.01 0.03 -0.02 0.04 -0.04 0.02 -0.01 0.03 -0.02 0.04 -0.03 0.02 -0.01 0.03 -0.02 0.04 -0.03 0.01 -0.01 0.03 -0.02 0.04 -0.03 0.02 -0.01 0.02 -0.02 0.04 -0.03 0.02 -0.01 0.02 -0.01 0.04 -0.02 0.02 -0.01 0.02 -0.01 0.04 -0.02 0.02 -0.01 0.02 -0.01 0.04 -0.02 0.02 -0.01 0.02 -0.01 0.04 -0.02 0.02 -0.01 0.02 -0.01 0.04 -0.02 0.02 -0.01 0.02 -0.01 0.04 -0.02 0.03 -0.01 0.01 -0.01 0.04 -0.01 0.03 -0.01 0.02 -0 0.04 -0.01 0.03 -0.01 0.02 -0.01 0.07 -0.02 0.01 -0 0.04 -0.01 0.03 -0.01 0.01 -0 0.04 -0.01 0.03 -0.01 0.01 0 0.01 0c0.79,0.11 1.58,0.73 2.2,1.82l10.11 27.45 10.11 -17.78 -7.52 -19.66z"/>
   <path id="1" class="fil1" d="M86.41 17.74l-2.12 -12.86 -0.03 0.03 0.91 -0.67 0.93 -0.59 0.94 -0.52 0.95 -0.45 0.95 -0.38 0.96 -0.31 0.96 -0.25 0.96 -0.19 0.96 -0.12 0.96 -0.07 0.96 -0.01 0.96 0.05 0.95 0.1 0.95 0.15 0.94 0.2 0.93 0.25 0.92 0.3 0.9 0.35 0.89 0.4 0.88 0.44 0.86 0.49 0.84 0.53 0.82 0.58 0.8 0.62 0.78 0.67 0.75 0.71 0.73 0.76 0.71 0.81 0.68 0.86 0.65 0.91 0.62 0.98 0.59 1.04 -4.2 10.26 -0.3 -0.53 -0.34 -0.54 -0.39 -0.55 -0.43 -0.55 -0.47 -0.54 -0.51 -0.53 -0.55 -0.52 -0.58 -0.5 -0.61 -0.47 -0.64 -0.45 -0.66 -0.42 -0.68 -0.39 -0.71 -0.36 -0.73 -0.32 -0.74 -0.29 -0.75 -0.25 -0.77 -0.21 -0.77 -0.17 -0.78 -0.13 -0.78 -0.08 -0.79 -0.04 -0.79 0.01 -0.79 0.05 -0.78 0.1 -0.77 0.15 -0.77 0.2 -0.76 0.25 -0.74 0.3 -0.73 0.34 -0.71 0.39 -0.69 0.44 -0.67 0.49 -0.03 0.03zm0.03 -0.03l-0.03 0.02 -0.01 0.01 0.03 -0.03zm-2.56 -12.53l0.4 -0.3 2.12 12.86 -0.4 0.3 -2.15 -12.84 0.03 -0.02zm-0.03 0.02l0.01 -0.01 0.02 -0.01 -0.03 0.02zm-0.08 0.06l0.08 -0.06 2.18 12.82 -0.08 0.06 -2.22 -12.78 0.04 -0.03zm-0.04 0.03l0.03 -0.02 0.01 -0.01 -0.04 0.03zm-0.15 0.12l0.15 -0.12 2.26 12.75 -0.15 0.12 -2.27 -12.75 0.01 -0.01zm-0.01 0.01l0.01 -0.01 -0.05 0.04 0.05 -0.04zm-0.23 0.19l0.23 -0.19 2.28 12.74 -0.23 0.19 -2.31 -12.71 0.03 -0.03zm-0.03 0.03l0.02 -0.02 0.02 -0.01 -0.03 0.03zm-0.09 0.08l0.09 -0.08 2.34 12.68 -0.09 0.08 -2.37 -12.66 0.02 -0.02zm-0.02 0.02l0.02 -0.02 0.05 -0.04 -0.07 0.06zm-0.13 0.12l0.13 -0.12 2.39 12.65 -0.13 0.12 -2.39 -12.64 0.01 -0.01zm-0.01 0.01l0.01 -0.01 -0.09 0.08 0.08 -0.07zm-0.22 0.2l0.22 -0.2 2.4 12.63 -0.22 0.2 -2.48 -12.57 0.07 -0.07zm-0.07 0.07l0.04 -0.04 0.03 -0.03 -0.07 0.07zm-0.1 0.09l0.1 -0.09 2.55 12.5 -0.1 0.09 -2.55 -12.5 0 -0zm-0 0l0 -0 0.07 -0.07 -0.07 0.07zm-0.12 0.11l0.12 -0.11 2.55 12.49 -0.12 0.11 -2.58 -12.47 0.03 -0.02zm-0.03 0.02l-0.01 0.01 0.04 -0.03 -0.03 0.02zm-0.33 0.32l0.33 -0.32 2.61 12.44 -0.33 0.32 -0.01 0.01 -2.6 -12.45zm2.61 12.44l-0.01 0.01 -0.05 0.04 0.05 -0.05zm-2.71 -12.35l0.11 -0.1 2.6 12.46 -0.11 0.1 -2.66 -12.39 0.07 -0.07zm-0.07 0.07l0.05 -0.05 0.01 -0.01 -0.07 0.07zm-0.22 0.22l0.22 -0.22 2.73 12.33 -0.22 0.22 -2.76 -12.29 0.04 -0.04zm-0.04 0.04l0.04 -0.04 -0.02 0.02 -0.01 0.01zm-0.12 0.13l0.12 -0.13 2.8 12.25 -0.12 0.13 -0 0.01 -2.79 -12.26zm2.8 12.25l-0 0.01 -0.15 0.16 0.16 -0.17zm-2.89 -12.16l0.09 -0.09 2.79 12.26 -0.09 0.09 -2.86 -12.19 0.07 -0.07zm-0.07 0.07l0.05 -0.05 0.02 -0.02 -0.07 0.07zm-0.34 0.37l0.34 -0.37 2.92 12.12 -0.34 0.37 -0.02 0.02 -2.9 -12.14zm2.92 12.12l-0.02 0.02 -0.03 0.04 0.05 -0.06zm-2.98 -12.06l0.08 -0.09 2.88 12.17 -0.08 0.09 -2.98 -12.05 0.1 -0.11zm-0.1 0.11l0.05 -0.06 0.05 -0.05 -0.1 0.11zm-0.2 0.24l0.2 -0.24 3.08 11.94 -0.2 0.24 -0.01 0.01 -3.07 -11.95zm3.08 11.94l-0.01 0.01 0.04 -0.05 -0.03 0.04zm-3.21 -11.79l0.14 -0.16 3.06 11.96 -0.14 0.16 -3.14 -11.86 0.08 -0.09zm-0.08 0.09l0.03 -0.04 0.05 -0.05 -0.08 0.09zm-0.06 0.08l0.06 -0.08 3.22 11.77 -0.06 0.08 -0 0 -3.22 -11.77zm3.22 11.77l0 0 -0 0 0 -0zm-3.42 -11.52l0.2 -0.25 3.21 11.78 -0.2 0.25 -3.23 -11.76 0.02 -0.02zm-0.02 0.02l0.02 -0.02 -0.03 0.04 0.01 -0.02zm-0.14 0.18l0.14 -0.18 3.25 11.74 -0.14 0.18 -3.29 -11.68 0.05 -0.06zm-0.05 0.06l0.03 -0.04 0.02 -0.02 -0.05 0.06zm-0.05 0.07l0.05 -0.07 3.34 11.62 -0.05 0.07 -3.35 -11.6 0.02 -0.02zm-0.02 0.02l0.02 -0.02 0.02 -0.02 -0.03 0.05zm-0.19 0.26l0.19 -0.26 3.37 11.58 -0.19 0.26 -3.4 -11.54 0.03 -0.04zm-0.03 0.04l0.03 -0.04 -0.04 0.05 0.01 -0.01zm-0.15 0.2l0.15 -0.2 3.43 11.5 -0.15 0.2 -3.48 -11.42 0.05 -0.08zm-0.05 0.08l0.05 -0.07 0.01 -0.01 -0.05 0.08zm-0.04 0.06l0.04 -0.06 3.54 11.34 -0.04 0.06 0 0 -3.54 -11.34zm-0.19 0.27l0.19 -0.27 3.54 11.34 -0.19 0.27 -3.57 -11.3 0.03 -0.05zm-0.03 0.05l0.03 -0.05 -0.04 0.05 0 -0.01zm-0.15 0.23l0.15 -0.23 3.6 11.25 -0.15 0.23 -3.63 -11.21 0.03 -0.04zm-0.03 0.04l0.03 -0.04 -0.03 0.04 -0 0zm-0.03 0.04l0.03 -0.04 3.66 11.17 -0.03 0.04 -3.7 -11.11 0.04 -0.06zm-0.04 0.06l0.04 -0.06 0 -0 -0.04 0.06zm-0.18 0.28l0.18 -0.28 3.74 11.04 -0.18 0.28 -3.74 -11.04 0 -0.01zm-0 0.01l0 -0.01 0.03 -0.05 -0.04 0.06zm-0.16 0.25l0.16 -0.25 3.75 11.03 -0.16 0.25 -3.95 -10.68 0.2 -0.35zm-0.2 0.35l0.1 -0.18 0.11 -0.16 -0.2 0.35zm-0.02 0.03l0.02 -0.03 4.16 10.34 -0.02 0.03 -0.13 0.23 -4.02 -10.57zm4.16 10.34l-0.07 0.12 -0.07 0.11 0.13 -0.23zm-4.08 -10.47l0.06 -0.1 3.89 10.8 -0.06 0.1 -3.91 -10.77 0.02 -0.03zm-0.02 0.03l0.02 -0.03 -0.06 0.1 0.05 -0.08zm-0.27 0.46l0.27 -0.46 3.92 10.75 -0.27 0.46 -4.14 -10.36 0.21 -0.39zm-0.21 0.39l0.1 -0.2 0.11 -0.19 -0.21 0.39zm-0.01 0.02l0.01 -0.02 4.35 9.97 -0.01 0.02 -0.14 0.27 -4.21 -10.23zm4.35 9.97l-0.07 0.14 -0.07 0.13 0.14 -0.27zm-4.37 -9.94l0.17 -0.29 4.07 10.5 -0.17 0.29 -4.1 -10.45 0.03 -0.05zm-0.03 0.05l0.03 -0.05 0.01 -0.02 -0.04 0.08zm-0.16 0.3l0.16 -0.3 4.13 10.39 -0.16 0.3 -4.56 -9.42 0.44 -0.97zm-0.44 0.97l0.2 -0.53 0.24 -0.44 -0.44 0.97zm-74.09 200.85l74.09 -200.85 5 8.45 -74.09 200.85 -3.01 2.5 -1.99 -10.96zm1.99 10.96l-5.34 -1.86 3.35 -9.09 1.99 10.96zm1.07 0.37l-1.07 -0.37 1.02 -13.46 1.07 0.37 0 0 -1.03 13.46zm24.26 -21.58l5.02 8.39 -0.15 0.38 -0.38 0.9 -0.4 0.91 -0.42 0.91 -0.44 0.92 -0.47 0.92 -0.5 0.91 -0.53 0.89 -0.56 0.88 -0.59 0.85 -0.62 0.82 -0.66 0.79 -0.69 0.74 -0.73 0.7 -0.76 0.65 -0.8 0.59 -0.84 0.54 -0.87 0.48 -0.91 0.43 -0.95 0.36 -1 0.3 -1.04 0.24 -1.09 0.17 -1.13 0.11 -1.18 0.04 -1.24 -0.02 -1.29 -0.1 -1.35 -0.17 -1.41 -0.24 -1.47 -0.32 -1.53 -0.39 -1.6 -0.47 -1.67 -0.55 1.03 -13.46 1.57 0.52 1.49 0.44 1.42 0.36 1.34 0.29 1.27 0.22 1.21 0.15 1.14 0.08 1.07 0.02 1.01 -0.04 0.95 -0.09 0.89 -0.14 0.83 -0.19 0.78 -0.24 0.73 -0.28 0.67 -0.31 0.63 -0.35 0.58 -0.38 0.54 -0.41 0.51 -0.43 0.47 -0.45 0.44 -0.48 0.42 -0.5 0.4 -0.52 0.38 -0.54 0.36 -0.56 0.35 -0.59 0.34 -0.61 0.33 -0.64 0.33 -0.67 0.32 -0.69 0.32 -0.72 0.32 -0.74 -0.15 0.38zm5.02 8.39l-0.07 0.2 -0.07 0.18 0.15 -0.38zm64.28 -176.2l-64.28 176.2 -5.02 -8.39 64.28 -176.2 3.78 -2.06 1.24 10.45zm-1.24 -10.45l3.78 3.51 -2.53 6.95 -1.24 -10.45zm-4.79 -4.45l4.79 4.45 -2.53 12.51 -4.79 -4.45 -0.66 -11.69 3.19 -0.82zm-2.53 12.51l-5 -4.64 4.35 -7.05 0.66 11.69zm3.23 -0.88l-0.04 0.06 -3.85 -10.87 0.04 -0.06 3.87 10.84 -0.02 0.03zm0.02 -0.03l-0.02 0.03 0.04 -0.06 -0.02 0.03zm-1.94 -5.4l0 0 0 0 0 0 -1.94 -5.4 1.94 5.4zm1.94 5.4l-0.02 0.03 0.04 -0.06 -0.02 0.03zm0.03 -0.05l-0.03 0.05 -3.89 -10.81 0.03 -0.05 0.07 -0.11 3.82 10.92zm-3.89 -10.81l0.04 -0.06 0.03 -0.05 -0.07 0.11zm3.85 10.87l-0.03 0.05 -3.75 -11.03 0.03 -0.05 5.06 5.52 -1.31 5.52zm1.31 -5.52l0 3.47 -1.31 2.04 1.31 -5.52zm0 -0l0 0 -6.37 0 0 -0 1.38 -5.62 4.99 5.62zm-6.37 0l0 -3.59 1.38 -2.03 -1.38 5.62zm5.02 5.57l-0.03 0.05 -3.61 -11.24 0.03 -0.05 3.68 11.14 -0.07 0.1zm0.07 -0.1l-0.04 0.05 -0.03 0.05 0.07 -0.1zm0.03 -0.05l-0.03 0.05 -3.75 -11.03 0.03 -0.05 1.87 -1.3 1.87 12.34zm-3.75 -11.03l0.84 -1.3 1.04 0 -1.87 1.3zm1.88 12.34l-0 0 0 -13.64 0 0 1.91 12.27 -1.91 1.36zm1.91 -1.36l-0.85 1.36 -1.06 0 1.91 -1.36zm0.03 -0.05l-0.03 0.05 -3.82 -10.91 0.03 -0.05 0.14 -0.21 3.68 11.12zm-3.82 -10.91l0.07 -0.11 0.07 -0.1 -0.14 0.21zm3.72 11.07l-0.04 0.05 -3.54 -11.33 0.04 -0.05 4.49 9.22 -0.95 2.11zm0.95 -2.11l-0.36 1.28 -0.58 0.83 0.95 -2.11zm0 -0.01l-0 0.01 -5.44 -7.12 0 -0.01 1.13 -2.36 4.3 9.47zm-5.44 -7.12l0.43 -1.49 0.71 -0.87 -1.13 2.36zm4.34 9.43l-0.03 0.04 -3.17 -11.83 0.03 -0.04 3.4 11.52 -0.23 0.31zm0.23 -0.31l-0.12 0.17 -0.11 0.14 0.23 -0.31zm0.03 -0.05l-0.03 0.05 -3.63 -11.2 0.03 -0.05 0.81 -0.87 2.82 12.07zm-3.63 -11.2l0.38 -0.56 0.43 -0.31 -0.81 0.87zm2.83 12.07l-0.01 0 -2.02 -12.94 0.01 -0 2.84 12.05 -0.82 0.88zm0.82 -0.88l-0.38 0.57 -0.44 0.31 0.82 -0.88zm0.03 -0.04l-0.03 0.04 -3.66 -11.17 0.03 -0.04 0.13 -0.18 3.53 11.35zm-3.66 -11.17l0.07 -0.1 0.06 -0.08 -0.13 0.18zm3.57 11.3l-0.04 0.05 -3.4 -11.53 0.04 -0.05 0.2 -0.25 3.2 11.78zm-3.4 -11.53l0.09 -0.12 0.11 -0.12 -0.2 0.25zm3.21 11.77l-0.01 0.01 -3 -12.03 0.01 -0.01 0.02 -0.02 2.98 12.06zm-3 -12.03l0.02 -0.02 -0.01 0.01 -0.01 0.01zm3.01 12.02l-0.03 0.04 -2.96 -12.08 0.03 -0.04 3.18 11.81 -0.22 0.27zm0.22 -0.27l-0.1 0.14 -0.12 0.14 0.22 -0.27zm0.04 -0.05l-0.04 0.05 -3.4 -11.53 0.04 -0.05 0.23 -0.29 3.17 11.82zm-3.4 -11.53l0.11 -0.14 0.13 -0.14 -0.23 0.29zm3.18 11.81l-0.01 0.01 -2.93 -12.1 0.01 -0.01 3.09 11.92 -0.16 0.18zm0.16 -0.18l-0.07 0.09 -0.09 0.1 0.16 -0.18zm0.03 -0.04l-0.03 0.04 -3.25 -11.74 0.03 -0.04 3.31 11.66 -0.06 0.08zm0.06 -0.08l-0.04 0.06 -0.02 0.02 0.06 -0.08zm0.03 -0.05l-0.03 0.05 -3.37 -11.58 0.03 -0.05 0.88 -0.81 2.48 12.39zm-3.37 -11.58l0.41 -0.55 0.47 -0.26 -0.88 0.81zm2.49 12.38l-0.01 0 -1.6 -13.2 0.01 -0 2.28 12.64 -0.68 0.56zm0.68 -0.56l-0.33 0.37 -0.35 0.2 0.68 -0.56zm0.03 -0.03l-0.03 0.03 -2.96 -12.07 0.03 -0.03 2.99 12.04 -0.03 0.03zm0.03 -0.03l-0 0 -0.03 0.03 0.03 -0.03zm0.04 -0.04l-0.04 0.04 -3.02 -12.01 0.04 -0.04 0.4 -0.39 2.63 12.39zm-3.02 -12.01l0.19 -0.22 0.2 -0.16 -0.4 0.39zm2.64 12.38l-0.01 0.01 -2.23 -12.78 0.01 -0.01 2.61 12.42 -0.38 0.36zm0.38 -0.36l-0.18 0.21 -0.19 0.15 0.38 -0.36zm0.03 -0.03l-0.03 0.03 -2.98 -12.05 0.03 -0.03 0.06 -0.07 2.92 12.12zm-2.98 -12.05l0.04 -0.04 0.02 -0.02 -0.06 0.07zm2.96 12.08l-0.04 0.04 -2.86 -12.19 0.04 -0.04 2.9 12.15 -0.04 0.04zm0.04 -0.04l-0.04 0.04 -0.02 0.02 0.05 -0.06zm0.01 -0.01l-0.01 0.01 -2.93 -12.1 0.01 -0.01 0.23 -0.23 2.7 12.34zm-2.93 -12.1l0.12 -0.13 0.11 -0.1 -0.23 0.23zm2.73 12.31l-0.03 0.03 -2.47 -12.57 0.03 -0.03 2.72 12.32 -0.25 0.25zm0.25 -0.25l-0.12 0.14 -0.13 0.12 0.25 -0.25zm0.04 -0.04l-0.04 0.04 -2.97 -12.07 0.04 -0.04 0.02 -0.02 2.95 12.08zm-2.97 -12.07l0.02 -0.02 -0.08 0.09 0.06 -0.07zm2.96 12.08l-0.01 0.01 -2.93 -12.1 0.01 -0.01 0.34 -0.33 2.59 12.43zm-2.93 -12.1l0.17 -0.19 0.17 -0.14 -0.34 0.33zm2.62 12.41l-0.03 0.02 -2.25 -12.76 0.03 -0.02 2.53 12.5 -0.28 0.26zm0.28 -0.26l-0.14 0.15 -0.14 0.11 0.28 -0.26zm0.04 -0.04l-0.04 0.04 -2.81 -12.24 0.04 -0.04 0.06 -0.06 2.75 12.3zm-2.81 -12.24l0.04 -0.04 0.02 -0.02 -0.06 0.06zm2.76 12.29l-0.01 0.01 -2.7 -12.36 0.01 -0.01 0.21 -0.19 2.49 12.54zm-2.7 -12.36l0.1 -0.1 0.11 -0.09 -0.21 0.19zm2.52 12.52l-0.03 0.02 -2.28 -12.73 0.03 -0.02 2.49 12.54 -0.21 0.19zm0.21 -0.19l-0.1 0.1 -0.11 0.09 0.21 -0.19zm0.04 -0.04l-0.04 0.04 -2.7 -12.36 0.04 -0.04 0.46 -0.37 2.24 12.72zm-2.7 -12.36l0.22 -0.22 0.23 -0.15 -0.46 0.37zm2.26 12.71l-0.02 0.01 -1.79 -13.09 0.02 -0.01 2.11 12.84 -0.33 0.25zm0.33 -0.25l-0.16 0.14 -0.17 0.11 0.33 -0.25zm0.03 -0.02l-0.03 0.02 -2.44 -12.6 0.03 -0.02 2.45 12.59 -0.01 0.01zm0.01 -0.01l-0.01 0.01 -0.11 0.1 0.12 -0.11zm0.04 -0.03l-0.04 0.03 -2.46 -12.58 0.04 -0.03 0.26 -0.2 2.21 12.78zm-2.46 -12.58l0.13 -0.11 0.13 -0.09 -0.26 0.2zm2.22 12.77l-0.02 0.01 -1.95 -12.98 0.02 -0.01 2.03 12.93 -0.08 0.06zm0.08 -0.06l-0.03 0.02 -0.05 0.03 0.08 -0.06zm0.03 -0.02l-0.03 0.02 -2.11 -12.87 0.03 -0.02 2.26 12.75 -0.15 0.12zm0.15 -0.12l-0.08 0.07 -0.07 0.05 0.15 -0.12zm0.04 -0.03l-0.04 0.03 -2.4 -12.63 0.04 -0.03 0.01 -0.01 2.4 12.64zm-2.4 -12.63l-0.01 0.01 0.02 -0.02 -0.01 0.01zm2.41 12.62l-0.01 0.01 -2.39 -12.64 0.01 -0.01 0.28 -0.21 2.11 12.85zm-2.39 -12.64l0.14 -0.12 0.14 -0.09 -0.28 0.21zm2.14 12.83l-0.03 0.02 -1.83 -13.06 0.03 -0.02 2.03 12.92 -0.19 0.14zm0.19 -0.14l-0.09 0.07 -0.1 0.06 0.19 -0.14zm0.04 -0.03l-0.04 0.03 -2.22 -12.79 0.04 -0.03 0.28 -0.19 1.94 12.98zm-2.22 -12.79l0.13 -0.11 0.14 -0.08 -0.28 0.19zm1.96 12.96l-0.02 0.01 -1.66 -13.17 0.02 -0.01 1.95 12.97 -0.28 0.19zm0.28 -0.19l-0.14 0.11 -0.15 0.09 0.28 -0.19zm0.02 -0.02l-0.02 0.02 -2.23 -12.78 0.02 -0.02 0.13 -0.1 2.1 12.88zm-2.23 -12.78l0.07 -0.06 0.06 -0.04 -0.13 0.1zm2.13 12.85l-0.04 0.03 -1.96 -12.98 0.04 -0.03 0.07 -0.05 1.89 13.03zm-1.96 -12.98l0.03 -0.02 0.05 -0.03 -0.07 0.05zm1.91 13.01l-0.02 0.01 -1.82 -13.07 0.02 -0.01 1.92 13.01 -0.1 0.07zm0.1 -0.07l-0.05 0.04 -0.05 0.03 0.1 -0.07zm0.02 -0.01l-0.02 0.01 -2.02 -12.94 0.02 -0.01 0.12 -0.08 1.89 13.02zm-2.02 -12.94l0.06 -0.04 0.06 -0.04 -0.12 0.08zm1.93 12.99l-0.04 0.02 -1.77 -13.1 0.04 -0.02 1.79 13.09 -0.02 0.01zm0.02 -0.01l-0.01 0 -0.02 0.01 0.02 -0.01zm0.02 -0.01l-0.02 0.01 -1.82 -13.07 0.02 -0.01 0.02 -0.01 1.79 13.09zm-1.82 -13.07l0.01 -0 0.02 -0.01 -0.02 0.01zm1.81 13.08l-0.02 0.01 -1.77 -13.1 0.02 -0.01 0.09 -0.05 1.68 13.16zm-1.77 -13.1l0.04 -0.03 0.05 -0.03 -0.09 0.05zm1.72 13.13l-0.04 0.02 -1.59 -13.21 0.04 -0.02 0.01 -0.01 1.57 13.22zm-1.59 -13.21l0.01 -0.01 0.05 -0.02 -0.06 0.03zm1.6 13.2l-0.02 0.01 -1.56 -13.22 0.02 -0.01 1.73 13.12 -0.17 0.1zm0.17 -0.1l-0.09 0.06 -0.08 0.04 0.17 -0.1zm0.02 -0.01l-0.02 0.01 -1.89 -13.02 0.02 -0.01 0.22 -0.13 1.67 13.15zm-1.89 -13.02l0.11 -0.07 0.11 -0.06 -0.22 0.13zm1.71 13.13l-0.04 0.02 -1.45 -13.28 0.04 -0.02 1.51 13.25 -0.06 0.03zm0.06 -0.03l-0.01 0.01 -0.05 0.02 0.06 -0.03zm0.02 -0.01l-0.02 0.01 -1.56 -13.22 0.02 -0.01 1.58 13.21 -0.02 0.01zm0.02 -0.01l-0.01 0.01 -0.01 0 0.02 -0.01zm0.02 -0.01l-0.02 0.01 -1.6 -13.2 0.02 -0.01 0.08 -0.04 1.53 13.24zm-1.6 -13.2l0.03 -0.01 0.05 -0.02 -0.08 0.04zm1.57 13.22l-0.04 0.02 -1.45 -13.28 0.04 -0.02 0.06 -0.03 1.39 13.31zm-1.45 -13.28l0.02 -0.01 0.03 -0.02 -0.06 0.03zm1.41 13.3l-0.02 0.01 -1.33 -13.34 0.02 -0.01 0.13 -0.05 1.21 13.39zm-1.33 -13.34l0.07 -0.03 0.06 -0.02 -0.13 0.05zm1.23 13.38l-0.02 0.01 -1.08 -13.44 0.02 -0.01 1.3 13.34 -0.22 0.1zm0.22 -0.1l-0.11 0.06 -0.11 0.04 0.22 -0.1zm0.04 -0.02l-0.04 0.02 -1.52 -13.25 0.04 -0.02 0.21 -0.09 1.31 13.34zm-1.52 -13.25l0.1 -0.05 0.11 -0.04 -0.21 0.09zm1.33 13.33l-0.02 0.01 -1.1 -13.43 0.02 -0.01 1.16 13.41 -0.07 0.03zm0.07 -0.03l-0.03 0.01 -0.03 0.01 0.07 -0.03zm0.02 -0.01l-0.02 0.01 -1.23 -13.38 0.02 -0.01 0.04 -0.02 1.19 13.4zm-1.23 -13.38l0.04 -0.02 0 0 -0.04 0.02zm1.23 13.38l-0.04 0.02 -1.16 -13.41 0.04 -0.02 0.05 -0.02 1.1 13.43zm-1.16 -13.41l0.02 -0.01 0.04 -0.01 -0.05 0.02zm1.13 13.42l-0.03 0.01 -1.05 -13.45 0.03 -0.01 1.44 13.26 -0.39 0.2zm0.39 -0.2l-0.19 0.12 -0.2 0.07 0.39 -0.2zm0.01 -0.01l-0.01 0.01 -1.83 -13.06 0.01 -0.01 0.44 -0.21 1.4 13.27zm-1.83 -13.06l0.21 -0.14 0.22 -0.07 -0.44 0.21zm1.44 13.26l-0.04 0.01 -0.96 -13.48 0.04 -0.01 0.97 13.48 -0.01 0zm0.01 -0l-0.01 0 0 0 0.01 -0zm0.03 -0.01l-0.03 0.01 -0.98 -13.48 0.03 -0.01 0.03 -0.01 0.95 13.49zm-0.98 -13.48l0 0 0.03 -0.01 -0.03 0.01zm0.97 13.48l-0.02 0 -0.92 -13.49 0.02 -0 0 -0 0.92 13.5zm-0.92 -13.49l0 -0 0.24 -0.07 -0.25 0.08zm0.96 13.48l-0.04 0.01 -0.91 -13.5 0.04 -0.01 0.07 -0.02 0.84 13.52zm-0.91 -13.5l0.03 -0.01 0.04 -0.01 -0.07 0.02zm0.87 13.51l-0.03 0.01 -0.76 -13.54 0.03 -0.01 0.93 13.49 -0.17 0.05zm0.17 -0.05l-0.09 0.03 -0.08 0.02 0.17 -0.05zm0.02 -0.01l-0.02 0.01 -1.1 -13.43 0.02 -0.01 0.18 -0.06 0.92 13.49zm-1.1 -13.43l0.09 -0.03 0.09 -0.02 -0.18 0.06zm0.99 13.47l-0.07 0.02 -0.74 -13.55 0.07 -0.02 0.93 13.49 -0.19 0.06zm0.19 -0.06l-0.1 0.04 -0.1 0.02 0.19 -0.06zm0.01 -0l-0.01 0 -1.13 -13.42 0.01 -0 0.29 -0.08 0.84 13.51zm-1.13 -13.42l0.14 -0.05 0.15 -0.03 -0.29 0.08zm0.88 13.5l-0.04 0.01 -0.55 -13.59 0.04 -0.01 0.67 13.56 -0.12 0.03zm0.12 -0.03l-0.06 0.02 -0.06 0.01 0.12 -0.03zm0.03 -0.01l-0.03 0.01 -0.79 -13.53 0.03 -0.01 0.02 -0.01 0.76 13.54zm-0.79 -13.53l0.02 -0.01 0.02 -0 -0.04 0.01zm0.77 13.54l-0.01 0 -0.74 -13.55 0.01 -0 0.13 -0.03 0.61 13.57zm-0.74 -13.55l0.07 -0.02 0.06 -0.01 -0.13 0.03zm0.65 13.57l-0.04 0.01 -0.48 -13.6 0.04 -0.01 0.5 13.6 -0.02 0zm0.02 -0l-0.02 0 -0.02 0 0.04 -0.01zm0.03 -0.01l-0.03 0.01 -0.52 -13.59 0.03 -0.01 0.26 -0.02 0.26 13.62zm-0.52 -13.59l0.13 -0.02 0.13 0 -0.26 0.02zm0.27 13.62l-0.01 0 0 -13.64 0.01 0 0 0 0 13.64zm0.01 0l-0.01 0 0 -13.64 0.01 0 0.21 0.01 -0.21 13.62zm0 -13.64l0.1 0 0.1 0.01 -0.21 -0.01zm4.71 4.42l-5 8.44 0.49 1.06 -0.01 -0.02 -0 -0.01 -0 -0.01 -0.01 -0.02 0 0 -0.01 -0.02 -0.01 -0.02 -0.01 -0.01 -0.01 -0.02 -0.01 -0.02 -0 -0.01 -0.01 -0.01 -0.01 -0.01 -0.01 -0.01 -0.01 -0.01 -0.02 -0.02 -0.01 -0.01 -0.01 -0.01 -0.01 -0.01 -0.02 -0.01 -0.02 -0.01 -0.01 -0.01 -0.01 -0.01 -0 -0 -0.02 -0.01 -0.03 -0.01 -0 -0 -0.02 -0 -0.02 -0.01 -0.02 -0 -0.02 -0 -0.01 -0 0.41 -13.61 0.14 0.02 0.13 0.03 0.13 0.03 0.13 0.04 0.13 0.04 0.14 0.05 0.12 0.05 0.13 0.06 0.14 0.07 0.13 0.07 0.13 0.07 0.13 0.08 0.12 0.08 0.13 0.09 0.13 0.1 0.13 0.1 0.12 0.1 0.13 0.11 0.13 0.12 0.12 0.12 0.12 0.13 0.13 0.14 0.12 0.14 0.12 0.14 0.12 0.16 0.12 0.15 0.11 0.15 0.13 0.18 0.11 0.17 0.12 0.18 0.11 0.19 0.11 0.18 0.49 1.06zm-0.49 -1.06l0.27 0.47 0.22 0.59 -0.49 -1.06zm5.59 36.96l-10.11 -27.45 5 -8.44 10.11 27.45 -0.48 9.49 -4.52 -1.05zm4.52 1.05l-2.51 4.42 -2.01 -5.47 4.52 1.05zm10.11 -17.78l-10.11 17.78 -4.04 -10.54 10.11 -17.78 4.49 0.95 -0.44 9.59zm0.44 -9.59l2.02 5.27 -2.46 4.32 0.44 -9.59zm-7.52 -19.66l7.52 19.66 -4.93 8.64 -7.52 -19.66 4.56 -9.45 0.36 0.81zm-0.36 -0.81l0.2 0.37 0.17 0.44 -0.36 -0.81z"/>
  </g>
  <path class="fil2" d="M75.36 19.07c8.84,-3.35 9.49,3.13 14.13,14.59l58.93 161.47c6.68,14.61 26.81,28.93 40.58,21.44l-75.61 -203.85c-9.2,-20.21 -36.35,-15.04 -38.04,6.35z"/>
  <g>
   <path class="fil0" d="M226.08 110.16c1.28,-7.99 -5.74,-21.28 -13.8,-24.58l-63.76 0.67c-0.03,10.45 8.74,17.97 17.52,17.97l53.57 -1.34c-1.7,1.97 0.19,5.67 -8.42,13.67l11.34 4.36 3.54 -10.74z"/>
   <path id="1" class="fil1" d="M212.38 88.65l-0.19 -6.14 1.1 0.21 0.93 0.42 0.91 0.48 0.88 0.53 0.86 0.59 0.83 0.63 0.81 0.68 0.78 0.72 0.76 0.76 0.74 0.79 0.71 0.82 0.68 0.85 0.66 0.88 0.63 0.91 0.61 0.93 0.58 0.95 0.55 0.96 0.52 0.98 0.49 0.99 0.46 1 0.42 1.01 0.39 1.02 0.35 1.02 0.32 1.03 0.28 1.03 0.23 1.02 0.19 1.02 0.15 1.02 0.1 1.01 0.05 1.01 -0 1 -0.06 0.99 -0.12 0.97 -5.75 -1.15 0.07 -0.55 0.04 -0.6 0 -0.64 -0.03 -0.68 -0.07 -0.71 -0.11 -0.74 -0.14 -0.76 -0.18 -0.78 -0.21 -0.8 -0.25 -0.81 -0.28 -0.82 -0.31 -0.83 -0.34 -0.82 -0.38 -0.82 -0.4 -0.82 -0.43 -0.81 -0.45 -0.8 -0.48 -0.78 -0.5 -0.76 -0.52 -0.74 -0.53 -0.71 -0.55 -0.69 -0.56 -0.65 -0.58 -0.62 -0.58 -0.58 -0.59 -0.54 -0.6 -0.5 -0.6 -0.45 -0.6 -0.41 -0.59 -0.36 -0.59 -0.31 -0.58 -0.26 1.1 0.21zm-0.19 -6.14l0.57 -0.01 0.53 0.22 -1.1 -0.21zm-63.76 0.67l63.76 -0.67 0.19 6.14 -63.76 0.67 -3.01 -3.15 2.82 -2.99zm-2.82 2.99l0.01 -2.96 2.81 -0.03 -2.82 2.99zm20.3 14.98l0.27 6.13 -0.07 0 -0.97 -0.03 -0.97 -0.08 -0.96 -0.13 -0.95 -0.18 -0.94 -0.22 -0.93 -0.27 -0.92 -0.31 -0.9 -0.36 -0.89 -0.4 -0.87 -0.44 -0.85 -0.48 -0.83 -0.52 -0.81 -0.56 -0.79 -0.6 -0.76 -0.64 -0.73 -0.68 -0.7 -0.72 -0.67 -0.75 -0.64 -0.79 -0.61 -0.82 -0.57 -0.86 -0.53 -0.89 -0.49 -0.92 -0.45 -0.95 -0.4 -0.98 -0.35 -1.01 -0.3 -1.03 -0.25 -1.06 -0.2 -1.08 -0.14 -1.1 -0.09 -1.12 -0.03 -1.14 5.83 0.16 0.02 0.8 0.06 0.78 0.1 0.76 0.14 0.75 0.17 0.73 0.21 0.71 0.24 0.69 0.28 0.67 0.31 0.66 0.34 0.64 0.37 0.62 0.4 0.6 0.43 0.58 0.45 0.56 0.48 0.53 0.5 0.51 0.52 0.48 0.55 0.46 0.57 0.43 0.58 0.41 0.6 0.38 0.62 0.35 0.63 0.32 0.64 0.29 0.65 0.26 0.66 0.22 0.66 0.19 0.67 0.16 0.67 0.12 0.68 0.09 0.68 0.05 0.68 0.02 -0.07 0zm0.27 6.13l-0.04 0 -0.03 0 0.07 -0zm53.57 -1.34l-53.57 1.34 -0.27 -6.13 53.57 -1.34 2.32 5.15 -2.05 0.98zm-0.27 -6.13l6.9 -0.17 -4.58 5.33 -2.32 -5.15zm-7.33 13.85l-1.89 5.76 -1.01 -5.2 0.73 -0.69 0.67 -0.67 0.61 -0.64 0.56 -0.61 0.51 -0.58 0.46 -0.56 0.41 -0.53 0.36 -0.5 0.33 -0.48 0.29 -0.45 0.25 -0.43 0.22 -0.4 0.19 -0.38 0.17 -0.36 0.15 -0.34 0.13 -0.33 0.11 -0.32 0.1 -0.31 0.09 -0.3 0.08 -0.29 0.08 -0.3 0.08 -0.3 0.08 -0.3 0.08 -0.32 0.09 -0.33 0.1 -0.34 0.12 -0.37 0.15 -0.39 0.18 -0.4 0.22 -0.41 0.27 -0.41 0.31 -0.4 4.37 4.17 0.01 -0.02 0.01 -0.01 -0 0.01 -0.02 0.05 -0.03 0.08 -0.04 0.13 -0.05 0.18 -0.06 0.22 -0.07 0.26 -0.08 0.3 -0.09 0.34 -0.1 0.37 -0.11 0.41 -0.13 0.43 -0.15 0.45 -0.17 0.48 -0.2 0.5 -0.23 0.52 -0.25 0.54 -0.29 0.56 -0.32 0.58 -0.35 0.59 -0.39 0.61 -0.43 0.63 -0.47 0.65 -0.52 0.66 -0.56 0.68 -0.61 0.7 -0.66 0.72 -0.71 0.74 -0.76 0.76 -0.82 0.78 -1.01 -5.2zm-1.89 5.76l-4.68 -1.8 3.66 -3.4 1.01 5.2zm11.34 4.36l-11.34 -4.36 1.89 -5.76 11.34 4.36 1.81 3.94 -3.7 1.82zm3.7 -1.82l-0.95 2.87 -2.76 -1.06 3.7 -1.82zm3.54 -10.74l-3.54 10.74 -5.52 -2.13 3.54 -10.74 5.63 1.64 -0.12 0.49zm0.12 -0.49l-0.04 0.25 -0.08 0.24 0.12 -0.49z"/>
  </g>
  <path class="fil2" d="M209.66 82.45c5.16,5.45 3.28,6.72 1.2,14.6l-34.13 101.93 -0.12 -0.33c-21.03,-58.74 -45.76,-120.62 -69.24,-186.14 -5.91,4.86 -14.93,23.2 -9.95,40.63l3.24 9.07 -0.01 0.01 54.59 146.24c0.24,0.81 0.42,0.94 0.68,1.64 9.63,25.42 36.35,23.09 43.95,-1.85l30.22 -99.49c5.94,-12.83 -8.86,-27.6 -20.44,-26.31z"/>
 </g>
</svg>
