<?xml version="1.0" encoding="UTF-8"?>
<!DOCTYPE svg PUBLIC "-//W3C//DTD SVG 1.1//EN" "http://www.w3.org/Graphics/SVG/1.1/DTD/svg11.dtd">
<!-- Creator: CorelDRAW 2018 (64-Bit Evaluation Version) -->
<svg xmlns="http://www.w3.org/2000/svg" xml:space="preserve" width="108.014mm" height="23.9885mm" version="1.1" style="shape-rendering:geometricPrecision; text-rendering:geometricPrecision; image-rendering:optimizeQuality; fill-rule:evenodd; clip-rule:evenodd"
viewBox="0 0 6256.32 1389.45"
 xmlns:xlink="http://www.w3.org/1999/xlink">
 <defs>
  <style type="text/css">
   <![CDATA[
    .str0 {stroke:white;stroke-width:11.58;stroke-miterlimit:22.9256}
    .fil0 {fill:white}
    .fil2 {fill:white;fill-rule:nonzero}
    .fil1 {fill:white;fill-rule:nonzero}
   ]]>
  </style>
 </defs>
 <g id="Layer_x0020_1">
  <metadata id="CorelCorpID_0Corel-Layer"/>
  <g id="_1794984948960">
   <g>
    <path class="fil0" d="M398.17 267.83l-1.15 0.67 -0.89 0.52 -0.25 0.15 -1.14 0.71 -0.28 0.17 -0.85 0.54 -1.12 0.73 -0.33 0.24 -1.88 1.33 -0.38 0.28 -0.68 0.52 -1.09 0.82 -0.43 0.35 -0.64 0.5 -1.04 0.85 -0.47 0.41 -0.57 0.49 -1.55 1.4 -0.5 0.43 -1 0.94 -0.57 0.56 -0.43 0.42 -1.59 1.63 -0.37 0.38 -0.95 1.04 -0.64 0.7 -0.3 0.35 -0.93 1.09 -0.67 0.79 -0.24 0.29 -0.9 1.12 -0.7 0.89 -0.19 0.25 -0.87 1.16 -0.73 0.99 -0.13 0.19 -0.84 1.2 -0.75 1.08 -0.09 0.14 -0.28 0.44 -1.29 2 -0.03 0.06 -0.78 1.29 -0.76 1.3 -339.44 850.23 5 1.63c55.19,17.97 119.39,17.5 134.71,-28.47l296.97 -746.93 -37.75 -33.2 0.16 -0.25 0 -0.01 0.15 -0.23 0.16 -0.24 0 -0.02 0.15 -0.21 0.17 -0.23 0.01 -0.01 0.16 -0.21 0.16 -0.22 0.02 -0.03 0.15 -0.17 0.16 -0.22 0.03 -0.02 0.13 -0.19 0.16 -0.21 0.03 -0.03 0.16 -0.16 0.16 -0.2 0.03 -0.05 0.14 -0.16 0.16 -0.19 0.05 -0.03 0.14 -0.16 0.17 -0.18 0.05 -0.03 0.13 -0.14 0.19 -0.18 0.04 -0.04 0.13 -0.12 0.18 -0.18 0.03 -0.04 0.14 -0.1 0.17 -0.17 0.05 -0.06 0.13 -0.09 0.17 -0.17 0.07 -0.04 0.12 -0.1 0.18 -0.14 0.07 -0.05 0.12 -0.09 0.17 -0.14 0.07 -0.06 0.13 -0.07 0.17 -0.13 0.08 -0.04 0.11 -0.08 0.18 -0.12 0.09 -0.05 0.09 -0.06 0.2 -0.11 0.09 -0.06 0.1 -0.06 0.19 -0.09 0.1 -0.06 0.08 -0.05 0.2 -0.09 0.1 -0.05 0.09 -0.04 0.19 -0.1 0.1 -0.05 0.09 -0.02 0.19 -0.1 0.12 -0.04 0.08 -0.03 0.19 -0.07 0.13 -0.04 0.06 -0.04 0.2 -0.06 0.12 -0.03 0.07 -0.02 0.19 -0.06 0.14 -0.02 0.07 -0.03 0.32 -0.07 0.06 -0.03 0.2 -0.03 0.14 -0.03 0.05 -0.01 0.2 -0.03 0.15 -0.03 0.03 0 0.03 0c100.26,13.09 47.17,-113.25 -38.37,-67.04z"/>
    <path id="1" class="fil1" d="M392.84 239.99l1.15 -0.67 8.35 57.02 -1.15 0.67 -8.39 -56.99 0.03 -0.02zm-0.03 0.02l0.03 -0.02 0.51 -0.3 -0.54 0.32zm-0.89 0.52l0.89 -0.52 8.42 56.97 -0.89 0.52 -8.44 -56.97 0.02 -0.01zm-0.02 0.01l0.02 -0.01 -1.67 0.98 1.66 -0.98zm-0.25 0.15l0.25 -0.15 8.46 56.96 -0.25 0.15 -8.7 -56.81 0.24 -0.15zm-0.24 0.15l0.19 -0.12 0.06 -0.03 -0.24 0.15zm-1.14 0.71l1.14 -0.71 8.94 56.66 -1.14 0.71 -0.16 0.1 -8.79 -56.76zm8.94 56.66l-0.16 0.1 -0.01 0.01 0.17 -0.1zm-9.06 -56.59l0.28 -0.17 8.63 56.86 -0.28 0.17 -8.89 -56.69 0.26 -0.16zm-0.26 0.16l0.12 -0.08 0.14 -0.09 -0.26 0.16zm-0.85 0.54l0.85 -0.54 9.15 56.53 -0.85 0.54 -9.21 -56.49 0.06 -0.04zm-0.06 0.04l0.06 -0.04 0.3 -0.2 -0.36 0.24zm-1.12 0.73l1.12 -0.73 9.27 56.45 -1.12 0.73 -9.68 -56.17 0.42 -0.28zm-0.42 0.28l0.17 -0.13 0.24 -0.16 -0.42 0.28zm-0.33 0.24l0.33 -0.24 10.1 55.88 -0.33 0.24 -0.08 0.05 -10.03 -55.93zm10.1 55.88l-0.08 0.05 0.16 -0.12 -0.09 0.06zm-11.9 -54.61l1.88 -1.33 9.95 55.99 -1.88 1.33 -10.17 -55.83 0.22 -0.16zm-0.22 0.16l0.02 -0.02 0.2 -0.14 -0.22 0.16zm-0.38 0.28l0.38 -0.28 10.39 55.67 -0.38 0.28 -10.46 -55.62 0.07 -0.06zm-0.07 0.06l0.07 -0.06 0.46 -0.35 -0.53 0.41zm-0.68 0.52l0.68 -0.52 10.53 55.56 -0.68 0.52 -10.54 -55.55 0.01 -0.01zm-1.09 0.83l1.09 -0.82 10.54 55.55 -1.09 0.82 -10.88 -55.29 0.34 -0.26zm-0.34 0.26l0.12 -0.1 0.21 -0.16 -0.34 0.26zm-0.43 0.35l0.43 -0.35 11.21 55.03 -0.43 0.35 -0.12 0.1 -11.1 -55.12zm11.21 55.03l-0.12 0.1 -0.23 0.18 0.34 -0.28zm-11.73 -54.62l0.64 -0.5 10.98 55.22 -0.64 0.5 -11.13 -55.09 0.15 -0.13zm-0.15 0.13l0.15 -0.13 0.17 -0.14 -0.32 0.27zm-1.04 0.85l1.04 -0.85 11.28 54.97 -1.04 0.85 -11.57 -54.73 0.29 -0.24zm-0.29 0.24l0.02 -0.02 0.27 -0.22 -0.29 0.24zm-0.47 0.41l0.47 -0.41 11.86 54.49 -0.47 0.41 -11.87 -54.48 0.01 -0.01zm-0.57 0.5l0.57 -0.49 11.87 54.47 -0.57 0.49 -12.08 -54.3 0.2 -0.17zm-0.2 0.17l0.2 -0.17 -0.26 0.23 0.06 -0.05zm-1.55 1.4l1.55 -1.4 12.28 54.12 -1.55 1.4 -0.23 0.2 -12.05 -54.32zm12.28 54.12l-0.08 0.07 -0.16 0.13 0.23 -0.2zm-12.55 -53.89l0.5 -0.43 11.82 54.53 -0.5 0.43 -12.27 -54.12 0.45 -0.41zm-0.45 0.41l0.2 -0.19 0.25 -0.22 -0.45 0.41zm-1 0.94l1 -0.94 12.72 53.72 -1 0.94 -12.98 -53.46 0.26 -0.25zm-0.26 0.25l0.26 -0.25 -0.06 0.06 -0.2 0.19zm-0.57 0.56l0.57 -0.56 13.24 53.21 -0.57 0.56 -0.09 0.09 -13.15 -53.3zm13.24 53.21l-0.09 0.09 -0.06 0.05 0.15 -0.14zm-13.58 -52.88l0.43 -0.42 13.06 53.39 -0.43 0.42 -13.34 -53.11 0.28 -0.28zm-0.28 0.28l0.14 -0.15 0.14 -0.13 -0.28 0.28zm-1.59 1.63l1.59 -1.63 13.62 52.82 -1.59 1.63 -0.06 0.06 -13.57 -52.88zm13.62 52.82l0.09 -0.09 -0.15 0.15 0.06 -0.06zm-13.94 -52.51l0.37 -0.38 13.51 52.94 -0.37 0.38 -13.93 -52.49 0.42 -0.45zm-0.42 0.45l0.2 -0.22 0.22 -0.23 -0.42 0.45zm-0.95 1.04l0.95 -1.04 14.35 52.05 -0.95 1.04 -0.03 0.03 -14.32 -52.08zm14.35 52.05l-0.03 0.03 -0.45 0.49 0.47 -0.52zm-14.96 -51.39l0.64 -0.7 14.3 52.12 -0.64 0.7 -14.69 -51.66 0.4 -0.46zm-0.4 0.46l0.26 -0.31 0.14 -0.15 -0.4 0.46zm-0.3 0.35l0.3 -0.35 15.09 51.2 -0.3 0.35 -15.13 -51.16 0.04 -0.05zm-0.04 0.05l0.04 -0.05 -0.19 0.23 0.15 -0.18zm-0.93 1.09l0.93 -1.09 15.18 51.11 -0.93 1.09 0 0 -15.18 -51.11zm-0.67 0.79l0.67 -0.79 15.18 51.11 -0.67 0.79 -15.35 -50.9 0.18 -0.21zm-0.18 0.21l0.06 -0.07 0.12 -0.14 -0.18 0.21zm-0.24 0.29l0.24 -0.29 15.53 50.68 -0.24 0.29 -15.64 -50.54 0.11 -0.14zm-0.11 0.14l0.2 -0.25 -0.09 0.11 -0.11 0.14zm-0.9 1.12l0.9 -1.12 15.75 50.4 -0.9 1.12 -15.85 -50.29 0.09 -0.12zm-0.09 0.12l0.09 -0.12 -0.06 0.08 -0.03 0.03zm-0.7 0.89l0.7 -0.89 15.94 50.17 -0.7 0.89 -16.42 -49.54 0.48 -0.63zm-0.48 0.63l0.21 -0.29 0.27 -0.34 -0.48 0.63zm-0.19 0.25l0.19 -0.25 16.9 48.91 -0.19 0.25 -0.21 0.29 -16.69 -49.2zm16.9 48.91l-0.21 0.29 0.1 -0.13 0.12 -0.16zm-17.56 -48.04l0.87 -1.16 16.47 49.49 -0.87 1.16 -16.61 -49.3 0.14 -0.19zm-0.14 0.19l0.03 -0.05 0.1 -0.13 -0.14 0.19zm-0.73 0.99l0.73 -0.99 16.75 49.12 -0.73 0.99 -17.32 -48.29 0.57 -0.82zm-0.57 0.82l0.31 -0.46 0.26 -0.36 -0.57 0.82zm-0.13 0.19l0.13 -0.19 17.9 47.47 -0.13 0.19 -0.25 0.38 -17.64 -47.85zm17.9 47.47l-0.17 0.25 -0.09 0.13 0.25 -0.38zm-18.48 -46.64l0.84 -1.2 17.39 48.23 -0.84 1.2 -17.45 -48.14 0.06 -0.09zm-0.06 0.09l0.06 -0.09 0.19 -0.28 -0.25 0.36zm-0.75 1.08l0.75 -1.08 17.5 48.05 -0.75 1.08 -18.3 -46.82 0.79 -1.23zm-0.79 1.23l0.38 -0.64 0.41 -0.59 -0.79 1.23zm-0.09 0.14l0.09 -0.14 19.09 45.58 -0.09 0.14 -0.41 0.65 -18.69 -46.24zm19.09 45.58l-0.22 0.37 -0.19 0.28 0.41 -0.65zm-18.97 -45.8l0.28 -0.44 18.28 46.89 -0.28 0.44 -18.31 -46.85 0.03 -0.04zm-0.03 0.04l0.03 -0.04 -0.61 0.94 0.58 -0.9zm-1.29 2l1.29 -2 18.34 46.81 -1.29 2 -19.25 -45.27 0.91 -1.54zm-0.91 1.54l0.45 -0.82 0.46 -0.72 -0.91 1.54zm-0.03 0.06l0.03 -0.06 20.16 43.73 -0.03 0.06 -0.54 0.94 -19.62 -44.67zm20.16 43.73l-0.25 0.45 -0.29 0.49 0.54 -0.94zm-20.39 -43.38l0.78 -1.29 19.08 45.61 -0.78 1.29 -19.19 -45.43 0.11 -0.18zm-0.11 0.18l0.11 -0.18 -0.22 0.36 0.11 -0.19zm-0.76 1.3l0.76 -1.3 19.3 45.25 -0.76 1.3 -21.3 -41.12 2 -4.12zm-2 4.12l0.91 -2.27 1.09 -1.85 -2 4.12zm-339.44 850.23l339.44 -850.23 23.3 37 -339.44 850.23 -14.05 10.81 -9.25 -47.81zm9.25 47.81l-25.08 -8.17 15.83 -39.65 9.25 47.81zm5 1.63l-5 -1.63 4.8 -58.63 5 1.63 -4.8 58.63zm125.45 -76.24l23.33 36.91 0.74 -2.01 -2.61 6.92 -2.94 6.2 -3.17 5.5 -3.41 4.89 -3.56 4.31 -3.72 3.82 -3.87 3.38 -4 2.98 -4.14 2.64 -4.26 2.32 -4.39 2.03 -4.5 1.76 -4.63 1.51 -4.74 1.27 -4.84 1.04 -4.95 0.83 -5.03 0.63 -5.12 0.43 -5.19 0.24 -5.26 0.06 -5.32 -0.12 -5.37 -0.29 -5.41 -0.45 -5.45 -0.61 -5.47 -0.76 -5.48 -0.92 -5.49 -1.05 -5.49 -1.19 -5.47 -1.31 -5.45 -1.45 -5.41 -1.57 -5.38 -1.68 4.8 -58.63 5.03 1.58 5.06 1.47 5.1 1.36 5.11 1.23 5.11 1.11 5.12 0.98 5.11 0.85 5.07 0.71 5.03 0.56 4.98 0.42 4.92 0.27 4.84 0.11 4.75 -0.05 4.65 -0.21 4.53 -0.38 4.41 -0.54 4.26 -0.71 4.11 -0.89 3.94 -1.05 3.75 -1.22 3.55 -1.38 3.32 -1.54 3.1 -1.69 2.84 -1.8 2.57 -1.92 2.28 -1.99 1.98 -2.02 1.67 -2.02 1.34 -1.92 1.05 -1.82 0.78 -1.63 0.54 -1.43 0.74 -2.01zm-0.74 2.01l0.33 -0.99 0.41 -1.02 -0.74 2.01zm321.04 -712.03l-296.97 746.93 -23.33 -36.91 296.97 -746.93 17.67 -8.72 5.66 45.63zm-5.66 -45.63l17.64 15.51 -11.98 30.12 -5.66 -45.63zm-37.75 -33.2l37.75 33.2 -12.01 54.35 -37.75 -33.2 -3.08 -50.71 15.09 -3.64zm-12.01 54.35l-22.95 -20.19 19.88 -30.52 3.08 50.71zm15.25 -3.89l-0.16 0.25 -18.16 -47.07 0.16 -0.25 23.97 23.53 -5.81 23.53zm5.81 -23.53l0 14.61 -5.81 8.92 5.81 -23.53zm0 -0.01l0 0.01 -29.78 0 0 -0.01 5.94 -23.74 23.84 23.74zm-29.78 0l0 -14.82 5.94 -8.91 -5.94 23.74zm23.99 23.51l-0.15 0.23 -17.9 -47.47 0.15 -0.23 0.14 -0.21 17.76 47.68zm-17.9 -47.47l0.14 -0.21 0 0 -0.14 0.21zm17.92 47.44l-0.16 0.24 -17.62 -47.89 0.16 -0.24 23.7 23.94 -6.08 23.94zm6.08 -23.94l0 15.04 -6.08 8.9 6.08 -23.94zm0 -0.02l0 0.02 -29.78 0 0 -0.02 6.4 -24.4 23.38 24.4zm-29.78 0l0 -15.53 6.4 -8.86 -6.4 24.4zm23.53 24.19l-0.15 0.21 -16.98 -48.79 0.15 -0.21 0.17 -0.23 16.81 49.02zm-16.98 -48.79l0.14 -0.2 0.02 -0.03 -0.17 0.23zm16.98 48.8l-0.17 0.23 -16.65 -49.26 0.17 -0.23 1.65 -1.92 15 51.18zm-16.65 -49.26l0.79 -1.06 0.86 -0.86 -1.65 1.92zm15.01 51.17l-0.01 0.01 -13.35 -53.1 0.01 -0.01 15.11 51.03 -1.76 2.07zm1.76 -2.07l-0.85 1.16 -0.92 0.92 1.76 -2.07zm0.16 -0.21l-0.16 0.21 -16.87 -48.96 0.16 -0.21 17.02 48.75 -0.15 0.21zm0.15 -0.21l-0.06 0.08 -0.09 0.13 0.15 -0.21zm0.16 -0.22l-0.16 0.22 -17.17 -48.54 0.16 -0.22 19.13 45.24 -1.96 3.3zm1.96 -3.3l-0.91 1.82 -1.05 1.47 1.96 -3.3zm0.02 -0.03l-0.02 0.03 -21.08 -41.95 0.02 -0.03 3.09 -4.74 18 46.68zm-21.08 -41.95l1.39 -2.78 1.7 -1.96 -3.09 4.74zm18.15 46.51l-0.15 0.17 -14.91 -51.42 0.15 -0.17 16.04 49.98 -1.13 1.44zm1.13 -1.44l-0.55 0.77 -0.58 0.67 1.13 -1.44zm0.16 -0.22l-0.16 0.22 -17.17 -48.54 0.16 -0.22 4.96 -4.54 12.2 53.08zm-17.17 -48.54l2.27 -3.19 2.69 -1.35 -4.96 4.54zm12.24 53.06l-0.03 0.02 -7.24 -57.62 0.03 -0.02 12.31 52.92 -5.07 4.7zm5.07 -4.7l-2.31 3.32 -2.76 1.38 5.07 -4.7zm0.13 -0.19l-0.13 0.19 -17.39 -48.23 0.13 -0.19 0.63 -0.85 16.76 49.08zm-17.39 -48.23l0.32 -0.45 0.31 -0.4 -0.63 0.85zm16.92 48.87l-0.16 0.21 -16.14 -49.93 0.16 -0.21 0.39 -0.49 15.74 50.41zm-16.14 -49.93l0.16 -0.21 0.23 -0.28 -0.39 0.49zm15.77 50.38l-0.03 0.03 -15.35 -50.9 0.03 -0.03 0.81 -0.9 14.54 51.8zm-15.35 -50.9l0.42 -0.5 0.38 -0.4 -0.81 0.9zm14.7 51.64l-0.16 0.16 -13.74 -52.71 0.16 -0.16 14.61 51.72 -0.87 0.98zm0.87 -0.98l-0.44 0.53 -0.43 0.45 0.87 -0.98zm0.16 -0.2l-0.16 0.2 -15.49 -50.74 0.16 -0.2 16.02 50.06 -0.53 0.68zm0.53 -0.68l-0.25 0.34 -0.28 0.34 0.53 -0.68zm0.03 -0.05l-0.03 0.05 -16.55 -49.38 0.03 -0.05 0.76 -0.94 15.8 50.33zm-16.55 -49.38l0.35 -0.47 0.41 -0.47 -0.76 0.94zm15.93 50.17l-0.14 0.16 -15.04 -51.27 0.14 -0.16 15.09 51.21 -0.06 0.06zm0.06 -0.06l-0.06 0.06 0.38 -0.45 -0.32 0.38zm0.16 -0.19l-0.16 0.19 -15.15 -51.14 0.16 -0.19 3.12 -2.77 12.03 53.91zm-15.15 -51.14l1.48 -1.74 1.64 -1.03 -3.12 2.77zm12.08 53.88l-0.05 0.03 -8.91 -56.68 0.05 -0.03 11.77 54.21 -2.86 2.47zm2.86 -2.47l-1.37 1.54 -1.49 0.93 2.86 -2.47zm0.14 -0.16l-0.14 0.16 -14.63 -51.74 0.14 -0.16 0.28 -0.31 14.35 52.05zm-14.63 -51.74l0.17 -0.19 0.12 -0.12 -0.28 0.31zm14.52 51.87l-0.17 0.18 -14.06 -52.36 0.17 -0.18 1.79 -1.62 12.27 53.98zm-14.06 -52.36l0.87 -0.94 0.92 -0.68 -1.79 1.62zm12.32 53.95l-0.05 0.03 -10.48 -55.6 0.05 -0.03 12.39 53.86 -1.91 1.74zm1.91 -1.74l-0.92 1.01 -0.98 0.74 1.91 -1.74zm0.13 -0.14l-0.13 0.14 -14.3 -52.12 0.13 -0.14 0.64 -0.66 13.65 52.78zm-14.3 -52.12l0.31 -0.34 0.34 -0.32 -0.64 0.66zm13.84 52.6l-0.19 0.18 -13.01 -53.44 0.19 -0.18 13.18 53.27 -0.17 0.17zm0.17 -0.17l-0.17 0.17 0 0 0.17 -0.17zm0.04 -0.04l-0.04 0.04 -13.35 -53.1 0.04 -0.04 0.72 -0.68 12.62 53.78zm-13.35 -53.1l0.37 -0.37 0.35 -0.31 -0.72 0.68zm12.75 53.66l-0.13 0.12 -11.9 -54.46 0.13 -0.12 12.62 53.78 -0.72 0.68zm0.72 -0.68l-0.37 0.37 -0.35 0.31 0.72 -0.68zm0.18 -0.18l-0.18 0.18 -13.35 -53.1 0.18 -0.18 14.19 52.19 -0.85 0.92zm0.85 -0.92l-0.42 0.49 -0.43 0.43 0.85 -0.92zm0.03 -0.04l-0.03 0.04 -15.04 -51.27 0.03 -0.04 2.46 -2.3 12.57 53.57zm-15.04 -51.27l1.18 -1.38 1.28 -0.92 -2.46 2.3zm12.72 53.47l-0.14 0.1 -10.11 -55.87 0.14 -0.1 11.55 54.66 -1.44 1.21zm1.44 -1.21l-0.71 0.69 -0.72 0.52 1.44 -1.21zm0.17 -0.17l-0.17 0.17 -12.99 -53.45 0.17 -0.17 13.74 52.67 -0.75 0.78zm0.75 -0.78l-0.34 0.37 -0.42 0.41 0.75 -0.78zm0.05 -0.06l-0.05 0.06 -14.49 -51.9 0.05 -0.06 2.43 -2.15 12.07 54.05zm-14.49 -51.9l1.16 -1.29 1.26 -0.86 -2.43 2.15zm12.19 53.97l-0.13 0.09 -9.64 -56.21 0.13 -0.09 11.31 54.83 -1.67 1.38zm1.67 -1.38l-0.83 0.81 -0.84 0.57 1.67 -1.38zm0.17 -0.17l-0.17 0.17 -12.99 -53.45 0.17 -0.17 2.31 -1.78 10.67 55.23zm-12.99 -53.45l1.14 -1.1 1.18 -0.68 -2.31 1.78zm10.74 55.19l-0.07 0.04 -8.36 -57.02 0.07 -0.04 10.06 55.8 -1.7 1.22zm1.7 -1.22l-0.85 0.72 -0.85 0.5 1.7 -1.22zm0.12 -0.1l-0.12 0.1 -11.76 -54.57 0.12 -0.1 0.3 -0.25 11.46 54.82zm-11.76 -54.57l0.21 -0.19 0.08 -0.06 -0.3 0.25zm11.64 54.68l-0.18 0.14 -11.17 -55.07 0.18 -0.14 0.86 -0.63 10.3 55.7zm-11.17 -55.07l0.4 -0.32 0.46 -0.31 -0.86 0.63zm10.37 55.66l-0.07 0.05 -9.44 -56.33 0.07 -0.05 9.74 56.13 -0.3 0.2zm0.3 -0.2l-0.04 0.03 -0.26 0.17 0.3 -0.2zm0.12 -0.09l-0.12 0.09 -10.04 -55.93 0.12 -0.09 10.76 55.37 -0.72 0.56zm0.72 -0.56l-0.41 0.34 -0.31 0.22 0.72 -0.56zm0.17 -0.14l-0.17 0.14 -11.48 -54.81 0.17 -0.14 0 0 11.48 54.81zm0.07 -0.06l-0.07 0.06 -11.48 -54.81 0.07 -0.06 1.97 -1.33 9.51 56.14zm-11.48 -54.81l0.98 -0.82 0.99 -0.52 -1.97 1.33zm9.64 56.07l-0.13 0.07 -7.54 -57.47 0.13 -0.07 9.11 56.46 -1.57 1.01zm1.57 -1.01l-0.79 0.61 -0.78 0.41 1.57 -1.01zm0.17 -0.13l-0.17 0.13 -10.68 -55.44 0.17 -0.13 1.72 -1.09 8.96 56.53zm-10.68 -55.44l0.86 -0.66 0.86 -0.43 -1.72 1.09zm9.04 56.49l-0.08 0.04 -7.24 -57.62 0.08 -0.04 8.78 56.67 -1.54 0.95zm1.54 -0.95l-0.76 0.56 -0.78 0.39 1.54 -0.95zm0.11 -0.08l-0.11 0.08 -10.32 -55.72 0.11 -0.08 0.37 -0.26 9.95 55.98zm-10.32 -55.72l0.16 -0.12 0.21 -0.14 -0.37 0.26zm10.13 55.86l-0.18 0.12 -9.58 -56.24 0.18 -0.12 0.75 -0.46 8.83 56.71zm-9.58 -56.24l0.38 -0.25 0.37 -0.21 -0.75 0.46zm8.93 56.65l-0.09 0.05 -8.09 -57.17 0.09 -0.05 9.18 56.46 -1.09 0.71zm1.09 -0.71l-0.53 0.39 -0.56 0.32 1.09 -0.71zm0.09 -0.06l-0.09 0.06 -10.28 -55.76 0.09 -0.06 1.12 -0.72 9.16 56.48zm-10.28 -55.76l0.57 -0.42 0.55 -0.31 -1.12 0.72zm9.35 56.37l-0.2 0.11 -8.04 -57.2 0.2 -0.11 8.47 56.94 -0.43 0.26zm0.43 -0.26l-0.27 0.17 -0.16 0.09 0.43 -0.26zm0.09 -0.06l-0.09 0.06 -8.91 -56.68 0.09 -0.06 0.24 -0.14 8.67 56.83zm-8.91 -56.68l0.05 -0.03 0.2 -0.12 -0.24 0.14zm8.76 56.77l-0.1 0.06 -8.42 -56.97 0.1 -0.06 0.81 -0.43 7.62 57.4zm-8.42 -56.97l0.43 -0.25 0.38 -0.17 -0.81 0.43zm7.8 57.31l-0.19 0.09 -6.81 -57.83 0.19 -0.09 7.4 57.53 -0.59 0.3zm0.59 -0.3l-0.28 0.16 -0.31 0.14 0.59 -0.3zm0.1 -0.06l-0.1 0.06 -7.99 -57.23 0.1 -0.06 8.39 56.99 -0.39 0.23zm0.39 -0.23l-0.21 0.13 -0.18 0.1 0.39 -0.23zm0.08 -0.05l-0.08 0.05 -8.78 -56.76 0.08 -0.05 0.97 -0.53 7.81 57.29zm-8.78 -56.76l0.47 -0.3 0.5 -0.23 -0.97 0.53zm8 57.2l-0.2 0.09 -6.83 -57.82 0.2 -0.09 0.18 -0.08 6.66 57.9zm-6.83 -57.82l0.18 -0.08 -0.13 0.06 -0.05 0.02zm6.76 57.85l-0.1 0.05 -6.48 -57.98 0.1 -0.05 6.63 57.91 -0.16 0.07zm0.16 -0.07l0 0 -0.16 0.07 0.16 -0.07zm0.09 -0.04l-0.09 0.04 -6.79 -57.84 0.09 -0.04 7.23 57.62 -0.44 0.22zm0.44 -0.22l-0.23 0.12 -0.21 0.1 0.44 -0.22zm0.19 -0.1l-0.19 0.1 -7.67 -57.4 0.19 -0.1 0.6 -0.29 7.07 57.69zm-7.67 -57.4l0.28 -0.15 0.31 -0.14 -0.6 0.29zm7.18 57.64l-0.1 0.05 -6.48 -57.98 0.1 -0.05 1.76 -0.56 4.72 58.54zm-6.48 -57.98l0.86 -0.38 0.89 -0.18 -1.76 0.56zm4.81 58.52l-0.09 0.02 -2.97 -59.1 0.09 -0.02 5.32 58.25 -2.35 0.85zm2.35 -0.85l-1.15 0.61 -1.2 0.24 2.35 -0.85zm0.19 -0.1l-0.19 0.1 -7.67 -57.4 0.19 -0.1 1.26 -0.56 6.41 57.96zm-7.67 -57.4l0.63 -0.34 0.63 -0.22 -1.26 0.56zm6.52 57.92l-0.12 0.04 -5.14 -58.51 0.12 -0.04 5.2 58.49 -0.05 0.02zm0.05 -0.02l-0.05 0.02 0.17 -0.06 -0.12 0.05zm0.08 -0.03l-0.08 0.03 -5.25 -58.48 0.08 -0.03 5.38 58.43 -0.13 0.05zm0.13 -0.05l-0.13 0.05 -0.24 0.09 0.37 -0.14zm0.19 -0.07l-0.19 0.07 -5.5 -58.37 0.19 -0.07 0.5 -0.17 5 58.55zm-5.5 -58.37l0.29 -0.11 0.21 -0.06 -0.5 0.17zm5.13 58.51l-0.13 0.04 -4.49 -58.72 0.13 -0.04 6.77 57.66 -2.28 1.07zm2.28 -1.07l-1.12 0.71 -1.15 0.35 2.28 -1.07zm0.06 -0.04l-0.06 0.04 -9.05 -56.59 0.06 -0.04 2.14 -1.03 6.91 57.61zm-9.05 -56.59l1.07 -0.68 1.07 -0.35 -2.14 1.03zm7.11 57.55l-0.2 0.06 -4.77 -58.64 0.2 -0.06 0.17 -0.05 4.6 58.69zm-4.77 -58.64l0 0 0.17 -0.05 -0.17 0.05zm4.71 58.66l-0.12 0.03 -4.43 -58.74 0.12 -0.03 4.67 58.67 -0.24 0.08zm0.24 -0.08l-0.07 0.02 -0.17 0.05 0.24 -0.08zm0.07 -0.02l-0.07 0.02 -4.91 -58.59 0.07 -0.02 0.22 -0.07 4.69 58.66zm-4.91 -58.59l0.22 -0.07 -0.13 0.04 -0.09 0.03zm4.88 58.6l-0.19 0.06 -4.47 -58.73 0.19 -0.06 1 -0.23 3.48 58.96zm-4.47 -58.73l0.48 -0.14 0.52 -0.09 -1 0.23zm3.61 58.94l-0.14 0.02 -2.48 -59.2 0.14 -0.02 4.29 58.67 -1.81 0.53zm1.81 -0.53l-0.9 0.38 -0.9 0.15 1.81 -0.53zm0.07 -0.03l-0.07 0.03 -6.09 -58.14 0.07 -0.03 1.42 -0.45 4.67 58.59zm-6.09 -58.14l0.71 -0.3 0.71 -0.16 -1.42 0.45zm4.99 58.52l-0.32 0.07 -3.24 -59.05 0.32 -0.07 5.24 58.33 -2 0.71zm2 -0.71l-0.98 0.49 -1.02 0.22 2 -0.71zm0.06 -0.03l-0.06 0.03 -7.24 -57.62 0.06 -0.03 2.53 -0.81 4.71 58.43zm-7.24 -57.62l1.25 -0.63 1.28 -0.19 -2.53 0.81zm4.91 58.4l-0.2 0.03 -2.19 -59.24 0.2 -0.03 2.95 59.09 -0.76 0.15zm0.76 -0.15l-0.38 0.09 -0.38 0.06 0.76 -0.15zm0.14 -0.03l-0.14 0.03 -3.71 -58.94 0.14 -0.03 0 0 3.71 58.94zm0.05 -0.01l-0.05 0.01 -3.71 -58.94 0.05 -0.01 0.76 -0.15 2.95 59.09zm-3.71 -58.94l0.38 -0.09 0.38 -0.06 -0.76 0.15zm3.15 59.06l-0.2 0.03 -2.19 -59.24 0.2 -0.03 2.53 59.18 -0.34 0.06zm0.34 -0.06l-0.19 0.03 -0.14 0.02 0.34 -0.06zm0.15 -0.03l-0.15 0.03 -2.86 -59.13 0.15 -0.03 1.43 -0.14 1.43 59.27zm-2.86 -59.13l0.72 -0.14 0.71 0 -1.43 0.14zm1.47 59.27l-0.03 0 0 -59.4 0.03 0 0 0 0 59.4zm0.03 0l-0.03 0 0 -59.4 0.03 0 0.97 0.06 -0.97 59.34zm0 -59.4l0.49 0 0.49 0.06 -0.97 -0.06zm-34.19 -8.83l-8.35 -57.02 0.28 -0.16 8.67 -4.21 8.49 -3.17 8.26 -2.2 8 -1.27 7.73 -0.41 7.44 0.41 7.13 1.16 6.79 1.87 6.45 2.53 6.09 3.15 5.72 3.72 5.34 4.3 4.96 4.87 4.56 5.47 4.18 6.16 3.77 7 3.31 8.13 2.68 9.58 1.72 11.23 0.27 12.59 -1.52 12.54 -3.08 10.96 -4.09 8.72 -4.67 6.66 -5.1 5.12 -5.54 3.96 -6.06 3.05 -6.64 2.22 -7.29 1.46 -8 0.71 -8.75 -0.08 -9.53 -0.88 1.95 -59.28 8.38 0.78 7.4 0.06 6.46 -0.57 5.49 -1.1 4.52 -1.51 3.52 -1.76 2.51 -1.78 1.47 -1.46 0.46 -0.64 -0.36 0.81 -0.71 2.56 -0.46 3.76 0.06 3.55 0.3 2.04 0.09 0.36 -0.43 -1.03 -1.05 -1.94 -1.7 -2.48 -2.31 -2.76 -2.86 -2.81 -3.39 -2.73 -3.88 -2.53 -4.34 -2.24 -4.76 -1.87 -5.14 -1.42 -5.5 -0.9 -5.84 -0.31 -6.15 0.31 -6.43 1.03 -6.7 1.78 -6.93 2.59 -7.16 3.46 0.28 -0.16zm-8.35 -57.02l0.07 -0.04 0.21 -0.12 -0.28 0.16z"/>
   </g>
   <path class="fil0 str0" d="M345.21 305.92c41.32,-14.61 43.63,14.06 65.36,63.97l301.19 740.02c37.79,89.38 111.85,95.4 176.24,62.78l-361.44 -889.13c-43.96,-98.74 -166.77,-81.62 -181.34,22.36z"/>
  </g>
  <path class="fil0" d="M3333.46 693.88l-0.14 -0.42 -1.08 -3.13 -0.1 -0.33 -0.63 -1.7 -0.16 -0.44 -0.47 -1.25 -0.63 -1.71 -0.61 -1.56 -0.05 -0.14 -0.66 -1.67 -0.67 -1.62 -0.01 -0.04 -0.68 -1.64 -0.72 -1.63 -0.02 -0.07 -0.69 -1.58 -0.74 -1.6 -0.06 -0.16 -0.3 -0.66 -1.11 -2.37 -0.12 -0.22 -0.67 -1.36 -0.78 -1.55 -0.61 -1.21 -0.18 -0.36 -0.82 -1.52 -0.19 -0.36 -0.63 -1.15 -0.82 -1.51 -0.25 -0.43 -1.44 -2.51 -0.31 -0.52 -0.56 -0.92 -0.87 -1.44 -0.37 -0.59 -0.53 -0.84 -0.89 -1.39 -0.43 -0.63 -0.5 -0.75 -1.42 -2.06 -0.43 -0.66 -0.95 -1.33 -0.55 -0.75 -0.41 -0.54 -1.6 -2.07 -0.37 -0.47 -0.98 -1.25 -0.67 -0.83 -0.34 -0.38 -1.03 -1.2 -0.74 -0.86 -0.28 -0.31 -0.15 -0.35 -0.82 -0.89 -0.23 -0.24 -1.07 -1.12 -0.9 -0.92 -0.17 -0.16 -1.09 -1.05 -0.97 -0.93 -0.12 -0.11 -0.38 -0.34 -1.78 -1.61 -0.06 -0.05 -1.2 -0.57 -1.32 -0.8 -441.47 -164.18c-25.39,82.18 -17.73,135.81 51.23,166.46l400.72 144.32 -11.18 -8.31 0.23 0.2 0 0 0.2 0.19 0.21 0.2 0.02 0.01 0.19 0.19 0.2 0.2 0.01 0.02 0.2 0.18 0.21 0.22 0.02 0.01 0.17 0.2 0.2 0.19 0.02 0.06 0.16 0.16 0.2 0.21 0.03 0.03 0.15 0.2 0.19 0.21 0.05 0.05 0.14 0.17 0.18 0.21 0.03 0.05 0.15 0.17 0.18 0.23 0.03 0.07 0.13 0.18 0.19 0.24 0.05 0.03 0.11 0.18 0.18 0.24 0.03 0.05 0.12 0.18 0.17 0.23 0.05 0.08 0.11 0.17 0.16 0.23 0.04 0.09 0.12 0.17 0.13 0.23 0.06 0.09 0.1 0.16 0.14 0.24 0.06 0.1 0.08 0.16 0.14 0.23 0.06 0.12 0.09 0.14 0.12 0.24 0.07 0.14 0.08 0.12 0.12 0.26 0.06 0.13 0.08 0.13 0.1 0.25 0.08 0.13 0.05 0.11 0.12 0.27 0.08 0.15 0.03 0.1 0.13 0.27 0.05 0.14 0.05 0.12 0.12 0.25 0.05 0.16 0.05 0.11 0.1 0.27 0.06 0.17 0.04 0.09 0.1 0.27 0.05 0.17 0.03 0.1 0.09 0.26 0.06 0.2 33.52 -85.23z"/>
  <path class="fil0" d="M3288.91 627.69c20.26,44.58 8.57,36.76 -22.37,78.07l-496.23 540.66 -3.06 8.55c-0.03,-396.85 0.01,-812.27 -0.18,-1254.98 -48.26,2.97 -147.87,10.63 -147.87,125.57l0.12 1073.91c-0.33,5.36 0.51,6.57 0.58,11.28 -0.7,133.15 83.59,217.43 206.6,160.78 27.02,-17.1 53.73,-46.3 75.25,-65.05l430.7 -494.27c66.5,-61.1 32.55,-164 -43.54,-184.52z"/>
  <path class="fil2" d="M1373.13 335.15l-232.2 0 0 353.8 226.92 0c52.55,0 92.24,-15.84 118.62,-47.73 26.61,-34.19 39.92,-77.09 39.92,-129.17 0,-52.08 -13.3,-94.3 -39.92,-127.11 -24.55,-33.27 -62.41,-49.79 -113.35,-49.79zm-232.2 473.56l-1.06 274.08c-4.53,88.92 -49.41,114 -128.02,108.67l1.06 -976.07 362.28 0c92.93,0 162.68,28.91 209.03,86.73 46.34,57.82 69.75,126.42 70.21,206.26 -0.46,79.84 -20.42,147.07 -60.12,202.37 -39.69,55.06 -101.18,86.04 -184,93.38l253.75 359.76c-66.15,45.33 -130.62,41.96 -180.93,-34.06l-220.59 -321.11 -121.61 0z"/>
  <path class="fil2" d="M1772.36 335.15c-0.39,-77.09 31.7,-119.16 103.84,-119.76l602.37 0c-1.16,81.66 -41.48,118.69 -116.2,119.76l-172.89 0 0.62 855.51c-77.11,-0.52 -123.73,-16.54 -128.02,-113.62l-0.62 -741.88 -289.09 0z"/>
  <path class="fil2" d="M3510.84 1186.85l0 -971.46 560.29 0c-0.92,82.56 -20.45,119.65 -95.18,118.94l-337.08 0.83 0 302.86 264.83 0.01c81.12,1.59 111.97,40.52 112.37,119.76l-377.2 0 0 309.31 446.03 0c-0.59,74.05 -24.61,119.02 -116.9,119.76l-457.16 0z"/>
  <path class="fil2" d="M4867.42 1101.49l-62.32 -177.15 -402.43 0 -65.47 184.5c-27.33,80.78 -74.74,95.33 -162.59,70.35l318.51 -853.47c29.13,-85.83 79.47,-125.64 179.6,-110.34l359.08 963.81c-83.21,24.68 -138.14,5.15 -164.38,-77.7zm-263.07 -715.41l-157.4 421.25 313.87 0 -156.47 -421.25z"/>
  <path class="fil2" d="M5356.72 212.02l332.43 699.71 334.75 -696.34c69.94,-18.55 116.7,-7.22 126.71,79.75l105.71 891.72c-88.6,14.59 -126.12,-7.74 -138.34,-99.67l-74.81 -636.39 -296.44 608.24c-61.51,19.07 -114.13,5.24 -149.07,-73.8l-33.04 -67.39 -229.03 -467.06 -71.81 611.87c-5.57,101.03 -50.97,147.29 -141.33,124.2l106.03 -882.49c9.43,-72.81 52.4,-103.3 128.25,-92.34z"/>
 </g>
</svg>
