<?xml version="1.0" encoding="UTF-8"?>
<!DOCTYPE svg PUBLIC "-//W3C//DTD SVG 1.1//EN" "http://www.w3.org/Graphics/SVG/1.1/DTD/svg11.dtd">
<!-- Creator: CorelDRAW 2018 (64-Bit Evaluation Version) -->
<svg xmlns="http://www.w3.org/2000/svg" xml:space="preserve" width="159.932mm" height="38.135mm" version="1.1" style="shape-rendering:geometricPrecision; text-rendering:geometricPrecision; image-rendering:optimizeQuality; fill-rule:evenodd; clip-rule:evenodd"
viewBox="0 0 390.14 93.03"
 xmlns:xlink="http://www.w3.org/1999/xlink">
 <defs>
  <style type="text/css">
   <![CDATA[
    .fil0 {fill:#0FC6FF}
    .fil3 {fill:#313B4A}
    .fil1 {fill:#96FEFD}
    .fil2 {fill:#313B4A;fill-rule:nonzero}
    .fil4 {fill:#96FEFD;fill-rule:nonzero}
   ]]>
  </style>
 </defs>
 <g id="Layer_x0020_1">
  <metadata id="CorelCorpID_0Corel-Layer"/>
  <g id="_2685473478224">
   <g>
    <path class="fil0" d="M33.8 16.41l-22.64 22.82c-3.82,3.1 -7.46,3.81 -11.16,0.4l35.82 -36.14c3.25,-3.29 10.43,-4.11 14.66,-3.05 5.85,1.48 9.65,5.99 14.35,10.72 9.2,9.28 19.27,18.81 28.05,28.37 -3.39,3.4 -7.44,2.84 -11.66,-0.95 -2.45,-2.35 -19.22,-20.12 -22.97,-23.43 -4.02,-4.05 -7.43,-7.57 -12.34,-7.58 -4.93,-0 -8.06,4.75 -12.12,8.85z"/>
    <path class="fil1" d="M80.02 92.94c0.02,0 0.04,-0.01 0.06,-0.02 1.9,-0.55 6.95,-2.4 10.09,-7.68 2.84,-4.78 2.17,-10.03 2.17,-16.17 0,-12.02 0.26,-11.3 -0.19,-23.23 -4.38,0.01 -7.35,2.87 -7.64,8.08 -0.08,3.12 0.4,12.15 0.31,16.72 0.14,6.15 0.19,9.24 -2.99,12.45 -4.48,3.58 -10.35,1.77 -14.86,-2.19 -2.93,-3.14 -14.95,-14.24 -14.95,-17.81 0,-3.13 2.21,-5.3 4.74,-7.87 2.08,-2.39 11.41,-10.59 12.88,-12.15 2.38,-2.69 1.34,-7.62 -0.79,-9.78 -5.99,5.61 -11.7,10.91 -17.51,16.78 -2.97,3 -5.49,6.53 -6.42,10.26 -1.24,4.99 1.05,9.62 1.21,9.86 5.01,5.67 10.11,11.06 15.45,15.72l-27.48 0 -0.02 -2.9 0.01 -0.14 -0.06 -3.36 0.03 -6.58c-0,-5.31 -0.41,-6.4 0.51,-8.5 0,-0.01 -0,0.01 0,0 0.4,-0.82 0.75,-1.64 1.37,-2.14 3.78,-3.04 6.28,-6.59 7.42,-10.99 0,-0 0.03,-0.15 0.03,-0.16 0.74,-2.85 0.06,-8.33 -2.24,-11.18 -2.65,-3.89 -6.28,-5.98 -10.68,-6.62l-0.04 -0.02 -7.07 0.02c-0.21,2.47 1.1,6.46 6.35,6.77 0.33,0.04 0.65,0.1 0.96,0.17 3.39,0.82 5.31,3.61 5.91,5.77 0.01,0.02 0.01,0.05 0.02,0.07 0.5,1.75 0.36,3.49 -0.28,5.24 -0,0.01 -0.01,0.02 -0.01,0.03 -1.34,3.67 -4.58,4.19 -6.41,6.44 -1.73,2.13 -2.84,4.6 -3.31,7.25l-0.05 1.11 0 2.99 -0.15 10.46 -0 0.34 0.05 5.55 -9.43 0c-0.09,0 -0.19,-0.01 -0.28,-0.02 -0.94,-0.06 -1.9,-0.28 -2.87,-0.7 -1.1,-0.41 -2.05,-1.08 -2.95,-1.83 -3.17,-3.21 -2.99,-7.11 -3,-12.36 -0.3,-4.59 0.1,-13.59 0.01,-16.72 -0.3,-5.21 -3.22,-8.07 -7.6,-8.08 -0.35,9.47 -0.1,19.33 -0.18,28.89 -0.03,3.6 0.46,7.02 2.6,10.43 3.83,5.92 9.61,7.56 10.45,7.76 0.04,0.01 0.06,0.02 0.08,0.02l8.79 -0.02c0.03,-0.01 0.07,-0.02 0.1,-0.02l11.11 0.02 0 0 1.33 0 35.68 0c0,0 0.01,0 0.02,0l9.68 0.02z"/>
   </g>
   <g>
    <path class="fil2" d="M113.5 54.03l0 16.55c-4.17,0.22 -8.61,-1.59 -8.87,-7.03l0 -38.47c5.85,0.12 8.82,1.11 8.87,6.53l0 3.73c2.22,-7.49 6.43,-11.24 12.65,-11.24 3.59,0 6.22,0.59 7.91,1.74 -1.23,3.1 -1.35,5.44 -7.93,5.77 -4,0.2 -7.24,2.88 -9.39,6.71 -2.16,3.85 -3.23,9.08 -3.23,15.7z"/>
    <path class="fil2" d="M179.92 47.7c0,2.01 -0.03,3.17 -0.1,3.49l-36.93 0c0.44,3.67 2.06,6.71 4.85,9.13 2.7,2.22 5.72,3.34 9.08,3.34 4.22,0 7.56,-1.06 10.22,-2.91 4.02,-2.79 6.16,-3.94 11.2,-1.2 -1.87,3.83 -4.69,6.79 -8.48,8.87 -3.77,2.09 -7.92,3.13 -12.46,3.13 -6.51,0 -12.07,-2.19 -16.69,-6.59 -4.4,-4.4 -6.59,-10.17 -6.59,-17.26 0,-7.11 2.19,-12.81 6.56,-17.12 4.38,-4.29 9.92,-6.45 16.64,-6.48 6.72,0 12.15,2.18 16.27,6.51 4.27,4.32 6.42,10.02 6.42,17.08zm-13.28 -12.44c-2.53,-2.18 -5.69,-3.26 -9.42,-3.26 -3.75,0 -6.96,1.09 -9.66,3.26 -2.66,2.32 -4.22,5.34 -4.66,9.01l28.21 0c-0.44,-3.67 -1.93,-6.69 -4.46,-9.01z"/>
    <path class="fil2" d="M240.37 70.82c-5.27,-0.04 -8.7,-1.47 -8.87,-6.75l0 -63.56c5.01,-0.03 8.76,1.41 8.87,6.01l0 34.62 0 7.43 0 22.25z"/>
    <g>
     <path class="fil3" d="M241.7 50.31c-1.12,-1.09 -1.68,-2.91 -1.71,-4.75l-0 0 0 -0.08 0 -0.01 0 -0.01 0 -0.08 0 0 0 -0.03 0 -0.06 0 -0.09 0 -0.04 0 -0.05 0 -0.09 0 -0.04 0 -0.05 0.01 -0.09 0 -0.05 0 -0.04 0.01 -0.09 0.01 -0.05 0 -0.03 0.01 -0.09 0.01 -0.06 0 -0.03 0.01 -0.09 0.01 -0.06 0 -0.02 0.02 -0.15 0 -0.02 0.03 -0.16 0 -0.02 0.02 -0.09 0 -0.02 0.01 -0.06 0.02 -0.09 0.02 -0.08 0 -0.01 0.02 -0.08 0.02 -0.08 0 -0 0.02 -0.09 0.02 -0.08 0 -0 0.02 -0.08 0.02 -0.08 0 -0.01 0.01 -0.03 0.04 -0.12 0 -0.01 0.02 -0.07 0.03 -0.08 0.02 -0.06 0.01 -0.02 0.03 -0.08 0.01 -0.02 0.02 -0.06 0.03 -0.08 0.01 -0.02 0.05 -0.13 0.01 -0.03 0.02 -0.05 0.03 -0.07 0.01 -0.03 0.02 -0.04 0.03 -0.07 0.02 -0.03 0.02 -0.04 0.06 -0.11 0.02 -0.03 0.04 -0.07 0.02 -0.04 0.02 -0.03 0.07 -0.11 0.01 -0.03 0.04 -0.07 0.03 -0.04 0.01 -0.02 0.04 -0.07 0.03 -0.05 0.01 -0.02 0.05 -0.06 0.03 -0.05 0.01 -0.01 0.05 -0.06 0.04 -0.05 0.01 -0.01 0.05 -0.06 0.04 -0.05 0.01 -0 0.02 -0.02 0.08 -0.09 0 -0 0.05 -0.05 0.05 -0.05 22.68 -15.38c2.09,3.7 1.17,6.68 -1.3,8.19l-18.82 12.88 -0.8 -1.56 -0.01 0.01 0 0 -0.01 0.01 -0.01 0.01 0 0 -0.01 0.01 -0.01 0.01 0 0 -0.01 0.01 -0.01 0.01 -0 0 -0.01 0.01 -0.01 0.01 -0 0 -0.01 0.01 -0.01 0.01 -0 0 -0.01 0.01 -0.01 0.01 -0 0 -0 0.01 -0.01 0.01 0 0 -0.01 0.01 -0.01 0.01 0 0 -0.01 0.01 -0.01 0.01 0 0 -0 0.01 -0.01 0.01 -0 0 -0 0.01 -0.01 0.01 -0 0 -0 0.01 -0.01 0.01 -0 0 -0 0.01 -0.01 0.01 -0 0 -0 0.01 -0 0.01 -0 0 -0 0.01 -0.01 0.01 0 0 -0 0.01 -0 0.01 -0 0.01 -0 0.01 -0 0.01 -0 0.01 0 0.01 -0 0.01 -0 0.01 -0 0 -0 0.01 -0 0.01 -0 0 -0 0.01 -0 0.01 -0 0 -0 0.01 -0 0.01 -0 0.01 -0 0.01 0 0.01 -0 0 -0 0.01 0 0.01 -0 0 -0 0.01 0 0.01 -0 0 -0 0.02 0 0 -0 0.01 0 0.01 -0 0 0 0.01 -0 0.01 0 0 0 0c0.02,0.26 0.13,0.51 0.32,0.72l4.9 3.29 -3.17 3.29 -3.51 -2.44z"/>
     <path id="1" class="fil2" d="M239.99 44.52l1.22 1.02 0 0.15 0 0.16 0.01 0.16 0.01 0.15 0.01 0.15 0.02 0.15 0.02 0.16 0.02 0.16 0.02 0.14 0.03 0.15 0.03 0.15 0.03 0.14 0.04 0.14 0.04 0.14 0.04 0.14 0.05 0.14 0.05 0.13 0.05 0.13 0.05 0.13 0.05 0.12 0.06 0.12 0.06 0.12 0.06 0.11 0.06 0.11 0.07 0.11 0.06 0.1 0.07 0.1 0.07 0.1 0.07 0.08 0.07 0.09 0.08 0.08 0.07 0.08 -1.83 1.37 -0.13 -0.13 -0.12 -0.13 -0.12 -0.14 -0.12 -0.15 -0.11 -0.14 -0.1 -0.15 -0.1 -0.16 -0.1 -0.15 -0.09 -0.16 -0.09 -0.16 -0.08 -0.16 -0.08 -0.17 -0.07 -0.17 -0.07 -0.17 -0.07 -0.17 -0.06 -0.18 -0.06 -0.17 -0.05 -0.17 -0.05 -0.18 -0.05 -0.18 -0.04 -0.18 -0.04 -0.18 -0.04 -0.18 -0.03 -0.19 -0.03 -0.18 -0.03 -0.18 -0.02 -0.19 -0.02 -0.19 -0.01 -0.19 -0.01 -0.18 -0.01 -0.19 -0 -0.19 1.22 1.02 0 -2.07zm0 0l1.2 0 0.01 1.02 -1.22 -1.02zm-0 2.07l-1.22 -1.04 1.22 -1.04 0 0 0 2.07 -0 0zm0 0l-1.22 0 0 -1.04 1.22 1.04zm-1.22 -1.11l2.43 0 0 0.08 -2.43 0 0 -0.08zm0 -0.01l2.43 0 0 0.01 -2.43 0 0 -0.01zm0 -0.01l2.43 0 0 0.01 -2.43 0 0 -0.01zm0 -0.08l0 -0.07 2.43 0.07 0 0.08 -2.43 0 0 -0.08zm0 0l0 -0.04 0 -0.03 -0 0.07zm1.22 0l0 0 0 0 0 0 -1.21 -0.07 1.21 0.07zm-1.22 0l0 -0.04 0 -0.03 -0 0.07zm0 -0.1l2.43 0.07 -0 0.07 -0 0.03 -2.43 -0.15 0 -0.03zm2.43 0.07l0 0.04 -0 0.03 0 -0.07zm-2.43 -0.06l0 -0.02 2.43 0.02 0 0.06 -2.43 0 0 -0.06zm0 0l0 -0.02 0 0 0 0.02zm0 -0.11l0 -0.03 2.43 0.08 -0 0.09 -2.43 -0.05 0 -0.09zm0 0l0 -0.03 -0 0.04 0 -0.01zm0 -0.07l2.43 0.1 -0 0.01 -0 0.04 -2.43 -0.11 0 -0.04zm2.43 0.1l-0 0.01 0.01 -0.12 -0 0.1zm-2.43 -0.13l2.43 0.07 0 0.02 -0 0.05 -2.43 -0.08 0 -0.05zm2.43 0.07l0 0.04 0 -0.02 0 -0.02zm-2.43 -0.14l0 -0.02 2.43 0.07 -0 0.09 -2.43 -0.05 0 -0.09zm0 0l0 -0.02 -0 0.06 0 -0.04zm0 -0.07l2.43 0.1 0 0 -0 0.04 -2.43 -0.1 0 -0.04zm2.43 0.1l0 0 -0 0.04 0 -0.05zm-2.43 -0.14l0 -0.03 2.43 0.12 -0 0.05 -2.43 -0.09 0 -0.05zm0 0l0 -0.03 0 -0.05 -0 0.07zm0.01 -0.11l2.43 0.12 0 0.03 -0.01 0.09 -2.43 -0.15 0.01 -0.09zm2.43 0.12l0 0.03 -0 0.04 0 -0.07zm-2.43 -0.14l0 -0.01 2.43 0.1 -0 0.05 -2.43 -0.09 0 -0.05zm0 0l0 -0.01 0 -0.04 -0 0.05zm0 -0.05l0 -0.02 2.43 0.12 -0 0.04 -2.43 -0.1 0 -0.04zm0 0l0 -0.02 0 -0.05 -0 0.08zm0.01 -0.11l0 -0.05 2.42 0.19 -0.01 0.09 -2.43 -0.15 0.01 -0.09zm0 0l0 -0.03 0 -0.02 -0 0.05zm0.01 -0.1l2.42 0.18 -0 0.06 -0.01 0.05 -2.42 -0.24 0.01 -0.05zm2.42 0.18l-0 0.04 -0 0.01 0 -0.06zm-2.43 -0.16l0 -0.03 2.43 0.16 -0 0.03 -2.43 -0.13 0 -0.03zm0 0l0 -0.03 0 0 -0 0.03zm0.01 -0.12l0 -0.01 2.42 0.21 -0.01 0.09 -2.42 -0.2 0.01 -0.09zm0 0l0 -0.01 -0.01 0.08 0.01 -0.07zm0.01 -0.07l2.42 0.18 -0 0.04 -0.01 0.06 -2.42 -0.22 0.01 -0.06zm2.42 0.18l-0 0.04 0 -0.04 0 0.01zm-2.43 -0.18l0.01 -0.05 2.42 0.2 -0 0.03 -2.43 -0.15 0 -0.03zm0 0l0.01 -0.05 -0.01 0.06 0 -0.01zm0.02 -0.14l2.42 0.22 -0 0.02 -0.01 0.09 -2.42 -0.24 0.01 -0.09zm2.42 0.22l-0 0.02 0.01 -0.1 -0.01 0.08zm-2.42 -0.26l2.42 0.19 0 0.01 -0.01 0.06 -2.42 -0.2 0.01 -0.06zm2.42 0.19l0 0.01 -0.01 0.08 0.01 -0.09zm-2.42 -0.2l0.01 -0.05 2.42 0.23 -0 0.02 -2.42 -0.18 0 -0.02zm0 0l0.01 -0.05 -0 0.04 -0 0.01zm0.03 -0.2l2.42 0.24 -0.01 0.04 -0.02 0.15 -2.41 -0.28 0.02 -0.15zm2.42 0.24l-0.01 0.04 0.01 -0.06 -0 0.01zm-2.42 -0.22l0.01 -0.05 2.42 0.25 -0 0.02 -2.42 -0.2 0 -0.02zm0 0l0 -0.02 0 -0.03 -0.01 0.05zm0.03 -0.21l2.41 0.27 -0 0.02 -0.03 0.16 -2.41 -0.3 0.03 -0.16zm2.41 0.27l-0 0.02 -0.01 0.04 0.01 -0.06zm-2.41 -0.27l0.01 -0.05 2.41 0.3 -0 0.02 -2.42 -0.25 0 -0.02zm0 0l0.01 -0.05 0 0 -0.01 0.04zm0.02 -0.13l0 -0.02 2.4 0.37 -0.02 0.09 -2.4 -0.35 0.02 -0.09zm0 0l0 -0.02 -0.01 0.04 0 -0.02zm0.01 -0.04l2.4 0.37 -0 0.02 -0 0.02 -2.39 -0.39 0 -0.02zm2.4 0.37l-0 0.02 0.01 -0.04 -0 0.02zm-2.39 -0.41l2.4 0.34 0 0 -0.01 0.06 -2.4 -0.35 0.01 -0.06zm2.4 0.34l0 0 -0.03 0.17 0.03 -0.18zm-2.38 -0.42l0 -0.02 2.4 0.36 -0.02 0.09 -2.4 -0.34 0.02 -0.09zm0 0l0 -0.02 -0 0.02 0 -0zm0.02 -0.1l2.41 0.19 -0.02 0.19 -0.02 0.08 -2.39 -0.38 0.02 -0.08zm2.41 0.19l0 0.09 -0.02 0.1 0.02 -0.19zm-2.43 -0.01l0.02 -0.2 2.41 0.2 0 0.01 -2.43 0 0 -0.01zm0 0l0 -0.1 0.02 -0.1 -0.02 0.2zm0.04 -0.29l0 -0.01 2.39 0.41 -0.02 0.08 -2.39 -0.4 0.02 -0.08zm0 0l0 -0.01 0.06 -0.24 -0.06 0.25zm0.02 -0.09l0.27 -0.46 2.12 0.88 -0.02 0.08 -2.39 -0.42 0.02 -0.08zm0 0l0.06 -0.26 0.2 -0.2 -0.27 0.46zm0.27 -0.46l2.12 0.87 -0.27 0.47 -0 0 -1.85 -1.34 0 -0zm2.12 0.87l-0.06 0.27 -0.21 0.21 0.27 -0.47zm-2.37 -0.48l0.01 -0.03 2.38 0.42 -0.02 0.09 -2.39 -0.4 0.02 -0.09zm0 0l0 -0.01 0 -0.02 -0.01 0.03zm0.03 -0.11l2.41 0.23 -0.03 0.23 -0.02 0.08 -2.38 -0.45 0.02 -0.08zm2.41 0.23l0 0.12 -0.03 0.11 0.03 -0.23zm-2.43 -0l0.03 -0.23 2.4 0.23 0 0 -2.43 0 0 -0zm0 0l0 -0.12 0.03 -0.12 -0.03 0.23zm0.05 -0.31l0.01 -0.02 2.36 0.49 -0.02 0.08 -2.37 -0.47 0.02 -0.08zm0 0l0 -0 0.01 -0.02 -0.01 0.02zm0.03 -0.1l0.01 -0.02 2.35 0.54 -0.02 0.08 -2.36 -0.52 0.02 -0.08zm0 0l0.01 -0.03 0 0 -0.01 0.02zm0.01 -0.03l2.35 0.53 -0.01 0.04 -0 0.01 -2.34 -0.57 0 -0.01zm2.35 0.53l-0 0.02 -0.01 0.02 0.01 -0.04zm-2.36 -0.52l0.01 -0.03 2.36 0.52 -0.01 0.03 -2.37 -0.49 0.01 -0.03zm0 0l0.01 -0.03 -0.01 0.04 0 -0.01zm0.05 -0.15l2.36 0.49 -0.02 0.06 -0.04 0.12 -2.35 -0.55 0.04 -0.12zm2.36 0.49l-0 0.02 -0.01 0.03 0.02 -0.06zm-2.38 -0.44l0.01 -0.05 2.37 0.48 -0 0.01 -2.38 -0.43 0 -0.01zm0 0l0.01 -0.05 -0.01 0.04 -0 0.01zm0.04 -0.12l0.02 -0.05 2.33 0.58 -0.02 0.07 -2.35 -0.53 0.02 -0.07zm0 0l0.01 -0.03 0.01 -0.02 -0.02 0.05zm0.05 -0.13l2.34 0.58 -0.02 0.05 -0.03 0.08 -2.32 -0.63 0.03 -0.08zm2.34 0.58l0 -0 -0.02 0.06 0.02 -0.05zm-2.34 -0.59l0.03 -0.09 2.32 0.62 -0.02 0.06 -2.36 -0.53 0.02 -0.06zm0 0l0.01 -0.04 0.02 -0.05 -0.03 0.09zm0.04 -0.11l2.3 0.67 -0.01 0.04 -0.01 0.02 -2.29 -0.71 0.01 -0.02zm2.3 0.67l-0.01 0.04 0 0 0.01 -0.04zm-2.29 -0.71l2.32 0.63 -0.03 0.08 -2.32 -0.63 0.03 -0.08zm0.01 -0.02l2.32 0.63 -0.01 0.02 -2.32 -0.63 0.01 -0.02zm0.02 -0.06l2.32 0.63 -0.02 0.06 -2.32 -0.63 0.02 -0.06zm0.03 -0.08l0.02 -0.05 2.3 0.68 -0.03 0.08 -2.32 -0.63 0.03 -0.08zm0 0l0.02 -0.05 0 -0 -0.02 0.05zm0.03 -0.07l2.29 0.7 -0.01 0.03 -0.01 0.02 -2.28 -0.73 0.01 -0.02zm2.29 0.7l-0.01 0.03 -0.01 0.03 0.02 -0.06zm-2.24 -0.81l0.01 -0.03 2.28 0.71 -0.05 0.13 -2.3 -0.68 0.05 -0.13zm0 0l0.01 -0.02 0.01 -0.01 -0.01 0.03zm0.03 -0.06l2.27 0.74 -0 0 -0.01 0.03 -2.27 -0.75 0.01 -0.03zm2.27 0.74l-0 0 0.13 -0.3 -0.13 0.29zm-2.25 -0.79l0 -0.01 2.27 0.75 -0.02 0.05 -2.27 -0.74 0.02 -0.05zm0 0l0 -0.01 0.02 -0.04 -0.02 0.05zm0.04 -0.09l2.29 0.7 -0.02 0.06 -0.03 0.07 -2.26 -0.77 0.03 -0.07zm2.29 0.7l-0.02 0.05 -0 0.01 0.02 -0.06zm-2.3 -0.68l0.04 -0.08 2.28 0.73 -0.01 0.03 -2.31 -0.64 0.01 -0.03zm0 0l0.02 -0.04 0.02 -0.04 -0.04 0.08zm0.06 -0.13l2.25 0.79 -0.01 0.02 -0.02 0.04 -2.24 -0.81 0.02 -0.04zm2.25 0.79l-0.01 0.02 0.03 -0.06 -0.02 0.04zm-2.23 -0.84l0.02 -0.05 2.24 0.81 -0.03 0.07 -2.26 -0.77 0.03 -0.07zm0 0l0.01 -0.03 0.01 -0.02 -0.02 0.05zm0.04 -0.08l2.23 0.84 -0.01 0.03 -0.02 0.03 -2.22 -0.86 0.02 -0.03zm2.23 0.84l-0.01 0.03 -0.02 0.03 0.03 -0.06zm-2.22 -0.85l0.01 -0.02 2.23 0.83 -0.02 0.04 -2.24 -0.81 0.02 -0.04zm0 0l0.01 -0.02 -0.02 0.04 0.01 -0.01zm0.07 -0.13l2.23 0.83 -0.01 0.02 -0.06 0.11 -2.22 -0.85 0.06 -0.11zm2.23 0.83l-0.01 0.02 0.02 -0.04 -0.01 0.01zm-2.22 -0.84l0.02 -0.05 2.22 0.86 -0.02 0.03 -2.24 -0.81 0.02 -0.03zm0 0l0.02 -0.05 0 0 -0.02 0.05zm0.06 -0.12l2.21 0.88 -0.01 0.03 -0.04 0.07 -2.19 -0.91 0.04 -0.07zm2.21 0.88l-0.01 0.03 -0.01 0.02 0.03 -0.05zm-2.2 -0.89l0.02 -0.04 2.2 0.89 -0.02 0.04 -2.22 -0.85 0.02 -0.04zm0 0l0.02 -0.03 0 -0 -0.02 0.04zm0.04 -0.07l0.01 -0.02 2.17 0.95 -0.02 0.03 -2.18 -0.92 0.02 -0.03zm0 0l0.01 -0.01 0.01 -0.01 -0.01 0.02zm0.08 -0.13l2.18 0.92 -0.03 0.05 -0.07 0.11 -2.15 -0.97 0.07 -0.11zm2.18 0.92l-0.01 0.01 -0.02 0.03 0.03 -0.05zm-2.2 -0.9l0.03 -0.05 2.18 0.93 -0.01 0.03 -2.21 -0.87 0.01 -0.03zm0 0l0.03 -0.05 -0.02 0.03 -0.01 0.02zm0.07 -0.12l0.01 -0.02 2.13 1 -0.04 0.07 -2.15 -0.98 0.04 -0.07zm0 0l0.01 -0.02 -0.04 0.06 0.03 -0.04zm0.04 -0.06l0.03 -0.05 2.09 1.07 -0.03 0.04 -2.12 -1.02 0.03 -0.04zm0 0l0.02 -0.04 0.01 -0.01 -0.03 0.05zm0.05 -0.07l2.09 1.07 -0.03 0.05 -0.01 0.02 -2.05 -1.11 0.01 -0.02zm2.09 1.07l-0.02 0.04 -0.01 0.01 0.03 -0.05zm-2.07 -1.09l0.03 -0.04 2.09 1.06 -0.04 0.07 -2.12 -1.02 0.04 -0.07zm0 0l0.03 -0.04 0.01 -0.01 -0.04 0.05zm0.06 -0.09l2.07 1.09 -0.01 0.01 -0.03 0.05 -2.06 -1.1 0.03 -0.05zm2.07 1.09l-0.01 0.01 -0.05 0.06 0.05 -0.07zm-2.07 -1.1l0 -0.01 2.07 1.09 -0.01 0.02 -2.08 -1.08 0.01 -0.02zm0 0l0.02 -0.03 -0.01 0.02 -0 0.01zm0.05 -0.07l2.08 1.08 -0.01 0.02 -0.05 0.06 -2.07 -1.09 0.05 -0.06zm2.08 1.08l-0.01 0.02 0 -0.01 0.01 -0.01zm-2.06 -1.11l0.12 -0.14 1.97 1.2 -0.03 0.05 -2.09 -1.06 0.03 -0.05zm0 0l0.05 -0.07 0.07 -0.07 -0.12 0.14zm0.13 -0.15l1.95 1.23 -0.1 0.11 -0.01 0.01 -1.85 -1.34 0.01 -0.01zm1.95 1.23l-0.04 0.05 -0.06 0.06 0.1 -0.11zm-2 -1.19l0.02 -0.02 2.02 1.15 -0.05 0.06 -2.04 -1.13 0.05 -0.06zm0 0l0 -0 0.02 -0.02 -0.02 0.02zm0.06 -0.08l0.08 -0.08 1.93 1.26 -0.04 0.05 -2.01 -1.18 0.04 -0.05zm0 0l0.03 -0.04 0.04 -0.04 -0.08 0.08zm0.08 -0.09l1.92 1.27 -0.07 0.07 -0.01 0.01 -1.85 -1.34 0.01 -0.01zm1.92 1.27l-0.02 0.03 -0.04 0.04 0.07 -0.07zm-1.94 -1.26l1.99 1.19 -0 0.01 -0.05 0.06 -1.99 -1.2 0.05 -0.06zm1.99 1.19l-0 0.01 -0.06 0.07 0.07 -0.08zm-1.95 -1.24l0.25 -0.22 1.75 1.41 -0.04 0.05 -2 -1.19 0.04 -0.05zm0 0l0.1 -0.13 0.14 -0.1 -0.25 0.22zm0.25 -0.23l1.73 1.43 -0.22 0.2 -0.01 0 -1.5 -1.63 0.01 -0zm1.73 1.43l-0.1 0.11 -0.13 0.09 0.22 -0.2zm-1.93 -1.26l0.02 -0.02 1.93 1.26 -0.02 0.02 -1.95 -1.24 0.02 -0.02zm0 0l0.02 -0.02 0 0 -0.02 0.02zm0.1 -0.11l0.03 -0.03 1.89 1.31 -0.08 0.09 -1.92 -1.28 0.08 -0.09zm0 0l0 0 0.03 -0.03 -0.03 0.03zm0.03 -0.03l1.85 1.34 -0 0 -1.85 -1.34 0 -0zm0.05 -0.05l1.85 1.34 -0.05 0.05 -1.85 -1.34 0.05 -0.05zm0.05 -0.05l0.17 -0.14 1.69 1.48 -0.05 0.05 -1.85 -1.34 0.05 -0.05zm0 0l0.08 -0.08 0.09 -0.06 -0.17 0.14zm22.85 -15.51l1.86 0.36 -0.34 1.26 -22.68 15.38 -1.52 -1.62 22.68 -15.38zm0 0l1.2 -0.81 0.66 1.17 -1.86 -0.36zm-1.3 8.19l0.05 -0.03 0.18 -0.11 0.17 -0.12 0.16 -0.13 0.16 -0.14 0.15 -0.14 0.14 -0.15 0.13 -0.15 0.12 -0.16 0.12 -0.17 0.1 -0.17 0.1 -0.18 0.09 -0.18 0.08 -0.19 0.07 -0.2 0.06 -0.2 0.05 -0.21 0.04 -0.22 0.03 -0.22 0.01 -0.23 0 -0.24 -0.01 -0.25 -0.02 -0.25 -0.03 -0.26 -0.05 -0.27 -0.06 -0.27 -0.08 -0.28 -0.09 -0.29 -0.11 -0.3 -0.12 -0.3 -0.14 -0.3 -0.15 -0.31 -0.17 -0.31 2.2 -0.9 0.2 0.37 0.18 0.37 0.17 0.37 0.15 0.37 0.13 0.36 0.11 0.35 0.1 0.36 0.08 0.35 0.06 0.34 0.05 0.34 0.03 0.34 0.01 0.33 -0 0.33 -0.02 0.32 -0.04 0.32 -0.05 0.31 -0.07 0.3 -0.09 0.3 -0.1 0.29 -0.11 0.29 -0.13 0.28 -0.15 0.27 -0.16 0.27 -0.18 0.25 -0.19 0.24 -0.21 0.24 -0.21 0.22 -0.23 0.22 -0.24 0.2 -0.25 0.2 -0.26 0.19 -0.27 0.18 0.05 -0.03 -1.53 -1.61zm0 0l0.02 -0.01 0.04 -0.02 -0.05 0.03zm-17.29 14.5l-1.88 -0.4 0.35 -1.22 18.82 -12.88 1.53 1.61 -18.82 12.88zm0 0l-1.24 0.85 -0.64 -1.25 1.88 0.4zm-2.68 -1.95l0.19 -1.08 2.04 0.26 0.8 1.56 -2.23 0.82 -0.8 -1.56zm0.19 -1.08l1.27 -1.27 0.78 1.52 -2.04 -0.26zm1.84 1.35l-1.93 -1.25 0.08 -0.09 0.01 -0.01 1.85 1.34 -0.01 0.01zm-1.93 -1.25l0.04 -0.05 0.04 -0.04 -0.08 0.09zm1.01 0.58l0 0 0 0 0 0 1.01 0.58 -1.01 -0.58zm-1.01 -0.58l0.04 -0.05 0.04 -0.04 -0.08 0.09zm2 1.18l-0.08 0.09 -1.93 -1.25 0.01 -0.01 2.01 1.17 -0.01 0.01zm0 0l-0.04 0.05 -0.04 0.04 0.08 -0.09zm-0.09 0.1l-1.85 -1.34 0.01 -0.01 1.85 1.34 -0.01 0.01zm-0.93 -0.67l0 0 0 0 0 0 0.93 0.67 -0.93 -0.67zm0.92 0.68l-1.93 -1.25 0.08 -0.09 0.01 -0.01 1.85 1.34 -0.01 0.01zm-1.93 -1.25l0.04 -0.05 0.04 -0.04 -0.08 0.09zm2 1.18l-2.22 -0.58 0.21 -0.58 0.01 -0.01 2.01 1.17 -0.01 0.01zm-2.22 -0.58l0 -0.32 0.21 -0.27 -0.21 0.58zm2.43 0l-0.19 0.56 -2.24 -0.56 0 -0 2.43 0 0 0zm0 0l0 0.3 -0.19 0.25 0.19 -0.56zm-0.2 0.57l-0.02 0.03 -2.03 -1.14 0.01 -0.01 2.05 1.11 -0.01 0.01zm0 0l-0.02 0.03 0.03 -0.04 -0.01 0.01zm-0.03 0.04l-1.01 0.45 -1.01 -1.62 0.01 -0.01 2.01 1.17 -0.01 0.01zm0 0l-0.36 0.45 -0.64 0 1.01 -0.45zm-1.01 0.45l-1.03 -1.59 1.03 -0.48 0 0 0 2.07 -0 0zm-1.03 -1.59l0.36 -0.48 0.67 0 -1.03 0.48zm2.05 1.12l-2.11 -1.03 0.06 -0.09 0.01 -0.01 2.05 1.11 -0.01 0.01zm-2.11 -1.03l0.03 -0.05 0.02 -0.03 -0.06 0.09zm2.16 0.95l-0.16 0.2 -2.01 -1.14 0.01 -0.01 2.17 0.94 -0.01 0.01zm0 0l-0.07 0.11 -0.09 0.09 0.16 -0.2zm-0.16 0.2l-1.85 -1.34 0 -0 1.85 1.34 -0 0zm-0.01 0.01l-2.01 -1.14 0.16 -0.2 0.01 -0.01 1.85 1.34 -0.01 0.01zm-2.01 -1.14l0.07 -0.11 0.09 -0.09 -0.16 0.2zm2.16 0.95l-0.16 0.2 -2.01 -1.14 0.01 -0.01 2.17 0.94 -0.01 0.01zm0 0l-0.07 0.11 -0.09 0.09 0.16 -0.2zm-0.16 0.2l-1.95 -1.23 0.1 -0.11 0 -0 1.85 1.34 -0 0zm-1.95 -1.23l0.04 -0.06 0.06 -0.06 -0.1 0.11zm2.05 1.12l-2.11 -1.03 0.06 -0.09 0.01 -0.01 2.05 1.11 -0.01 0.01zm-2.11 -1.03l0.03 -0.05 0.02 -0.03 -0.06 0.09zm2.16 0.95l-0.16 0.2 -2.01 -1.14 0.01 -0.01 2.17 0.94 -0.01 0.01zm0 0l-0.07 0.11 -0.09 0.09 0.16 -0.2zm-0.16 0.2l-2.05 -1.08 0.19 -0.27 0 -0 1.85 1.34 -0 0zm-2.05 -1.08l0.07 -0.15 0.12 -0.12 -0.19 0.27zm2.23 0.82l-0.11 0.18 -2.12 -0.99 0 -0.01 2.24 0.81 -0 0.01zm0 0l-0.05 0.09 -0.07 0.09 0.11 -0.18zm-0.12 0.19l-2.22 -0.58 0.21 -0.58 0.01 -0.01 2.01 1.17 -0.01 0.01zm-2.22 -0.58l0 -0.32 0.21 -0.27 -0.21 0.58zm2.43 0l-0.19 0.56 -2.24 -0.56 0 -0 2.43 0 0 0zm0 0l0 0.3 -0.19 0.25 0.19 -0.56zm-0.2 0.57l-2.11 -1.03 0.06 -0.09 0.01 -0.01 2.05 1.11 -0.01 0.01zm-2.11 -1.03l0.03 -0.05 0.02 -0.03 -0.06 0.09zm2.16 0.95l-2.3 -0.47 0.13 -0.47 0.01 -0.01 2.17 0.94 -0.01 0.01zm-2.3 -0.47l0 -0.25 0.13 -0.22 -0.13 0.47zm2.43 0l-0.19 0.56 -2.24 -0.56 0 -0 2.43 0 0 0zm0 0l0 0.3 -0.19 0.25 0.19 -0.56zm-0.2 0.57l-2.11 -1.03 0.06 -0.09 0.01 -0.01 2.05 1.11 -0.01 0.01zm-2.11 -1.03l0.03 -0.05 0.02 -0.03 -0.06 0.09zm2.16 0.95l-2.3 -0.47 0.13 -0.47 0.01 -0.01 2.17 0.94 -0.01 0.01zm-2.3 -0.47l0 -0.25 0.13 -0.22 -0.13 0.47zm2.43 0l-0.1 0.4 -2.34 -0.4 0 -0 2.43 0 0 0zm0 0l0 0.21 -0.1 0.2 0.1 -0.4zm-0.1 0.41l-0.04 0.07 -2.2 -0.88 0 -0.01 2.24 0.81 -0 0.01zm0 0l-0.01 0.03 -0.02 0.04 0.04 -0.07zm-0.04 0.08l-0.16 0.2 -2.01 -1.14 0.01 -0.01 2.17 0.94 -0.01 0.01zm0 0l-0.07 0.11 -0.09 0.09 0.16 -0.2zm-0.16 0.2l-2.05 -1.08 0.19 -0.27 0 -0 1.85 1.34 -0 0zm-2.05 -1.08l0.07 -0.15 0.12 -0.12 -0.19 0.27zm2.23 0.82l-0.04 0.07 -2.2 -0.88 0 -0.01 2.24 0.81 -0 0.01zm0 0l-0.01 0.03 -0.02 0.04 0.04 -0.07zm-0.04 0.08l-2.2 -0.88 0.04 -0.07 0.01 -0.01 2.17 0.94 -0.01 0.01zm-2.2 -0.88l0.01 -0.03 0.02 -0.04 -0.04 0.07zm2.24 0.81l-2.29 -0.69 0.05 -0.12 0 -0 2.24 0.81 -0 0zm-2.29 -0.69l0.02 -0.06 0.03 -0.06 -0.05 0.12zm2.34 0.57l-0.09 0.19 -2.25 -0.75 0 -0.01 2.34 0.57 -0 0.01zm0 0l-0.03 0.09 -0.06 0.1 0.09 -0.19zm-0.1 0.2l-2.2 -0.88 0.04 -0.07 0.01 -0.01 2.17 0.94 -0.01 0.01zm-2.2 -0.88l0.01 -0.03 0.02 -0.04 -0.04 0.07zm2.24 0.81l-2.31 -0.62 0.07 -0.19 0 -0 2.24 0.81 -0 0zm-2.31 -0.62l0.02 -0.1 0.05 -0.09 -0.07 0.19zm2.38 0.44l-0.11 0.26 -2.27 -0.69 0 -0.01 2.38 0.43 -0 0.01zm0 0l-0.03 0.13 -0.07 0.12 0.11 -0.26zm-0.11 0.27l-2.2 -0.88 0.04 -0.07 0.01 -0.01 2.17 0.94 -0.01 0.01zm-2.2 -0.88l0.01 -0.03 0.02 -0.04 -0.04 0.07zm2.24 0.81l-2.29 -0.69 0.05 -0.12 0 -0 2.24 0.81 -0 0zm-2.29 -0.69l0.02 -0.06 0.03 -0.06 -0.05 0.12zm2.34 0.57l-0.02 0.05 -2.32 -0.62 0 -0.01 2.34 0.57 -0 0.01zm0 0l-0 0.01 -0.01 0.04 0.02 -0.05zm-0.02 0.06l-0.03 0.07 -2.27 -0.74 0 -0.01 2.3 0.67 -0 0.01zm0 0l-0.01 0.04 -0.02 0.03 0.03 -0.07zm-0.03 0.08l-2.31 -0.62 0.07 -0.19 0 -0 2.24 0.81 -0 0zm-2.31 -0.62l0.02 -0.1 0.05 -0.09 -0.07 0.19zm2.38 0.44l-0.11 0.26 -2.27 -0.69 0 -0.01 2.38 0.43 -0 0.01zm0 0l-0.03 0.13 -0.07 0.12 0.11 -0.26zm-0.11 0.27l-2.3 -0.47 0.13 -0.47 0.01 -0.01 2.17 0.94 -0.01 0.01zm-2.3 -0.47l0 -0.25 0.13 -0.22 -0.13 0.47zm2.43 0l-0.16 0.51 -2.28 -0.51 0 -0 2.43 0 0 0zm0 0l0 0.27 -0.16 0.24 0.16 -0.51zm-0.16 0.52l-2.21 -0.84 0.09 -0.18 0 -0.01 2.12 1.02 -0 0.01zm-2.21 -0.84l0.04 -0.09 0.06 -0.08 -0.09 0.18zm2.3 0.68l-2.32 -0.62 0.02 -0.05 0 -0.01 2.3 0.67 -0 0.01zm-2.32 -0.62l0 -0.01 0.01 -0.04 -0.02 0.05zm2.34 0.57l-2.34 -0.57 0 -0.01 2.34 0.57 -0 0.01zm-0 0.01l-0.02 0.05 -2.32 -0.62 0 -0.01 2.34 0.57 -0 0.01zm0 0l-0 0.01 -0.01 0.04 0.02 -0.05zm-0.02 0.06l-2.32 -0.62 0.02 -0.05 0 -0.01 2.3 0.67 -0 0.01zm-2.32 -0.62l0 -0.01 0.01 -0.04 -0.02 0.05zm2.34 0.57l-2.39 -0.28 0.05 -0.28 0 -0.01 2.34 0.57 -0 0.01zm-2.39 -0.28l0 -0.14 0.05 -0.14 -0.05 0.28zm2.43 0.01l-0.07 0.33 -2.37 -0.33 0 -0.01 2.43 0 0 0.01zm0 0l0 0.17 -0.07 0.16 0.07 -0.33zm-0.07 0.35l-2.32 -0.62 0.02 -0.05 0 -0.01 2.3 0.67 -0 0.01zm-2.32 -0.62l0 -0.01 0.01 -0.04 -0.02 0.05zm2.34 0.57l-0.05 0.12 -2.29 -0.69 0 -0.01 2.34 0.57 -0 0.01zm0 0l-0.02 0.06 -0.03 0.06 0.05 -0.12zm-0.05 0.13l-2.32 -0.55 0.09 -0.26 0 -0 2.24 0.81 -0 0zm-2.32 -0.55l0.02 -0.13 0.06 -0.13 -0.09 0.26zm2.41 0.31l-0.03 0.14 -2.38 -0.43 0 -0.01 2.41 0.29 -0 0.01zm0 0l-0.01 0.07 -0.02 0.07 0.03 -0.14zm-0.04 0.14l-0.05 0.12 -2.29 -0.69 0 -0.01 2.34 0.57 -0 0.01zm0 0l-0.02 0.06 -0.03 0.06 0.05 -0.12zm-0.05 0.13l-2.32 -0.58 0.08 -0.23 0 -0 2.24 0.81 -0 0zm-2.32 -0.58l0.02 -0.12 0.06 -0.11 -0.08 0.23zm2.4 0.36l-0.01 0.04 -2.39 -0.39 0 -0.01 2.4 0.35 -0 0.01zm0 0l-0 0.01 -0.01 0.03 0.01 -0.04zm-0.01 0.05l-0.07 0.19 -2.31 -0.62 0 -0.01 2.38 0.43 -0 0.01zm0 0l-0.02 0.1 -0.05 0.09 0.07 -0.19zm-0.07 0.2l-2.32 -0.58 0.08 -0.23 0 -0 2.24 0.81 -0 0zm-2.32 -0.58l0.02 -0.12 0.06 -0.11 -0.08 0.23zm2.4 0.36l-0.03 0.11 -2.37 -0.46 0 -0.01 2.4 0.35 -0 0.01zm0 0l-0.01 0.06 -0.02 0.05 0.03 -0.11zm-0.03 0.12l-2.34 -0.57 0 -0.01 2.34 0.57 -0 0.01zm-0 0.01l-2.37 -0.46 0.03 -0.11 0 -0.01 2.34 0.57 -0 0.01zm-2.37 -0.46l0.01 -0.06 0.02 -0.05 -0.03 0.11zm2.4 0.36l-2.42 -0.17 0.02 -0.17 0 -0.01 2.4 0.35 -0 0.01zm-2.42 -0.17l0 -0.09 0.02 -0.09 -0.02 0.17zm2.43 0.01l-0.1 0.4 -2.34 -0.4 0 -0.01 2.43 0 0 0.01zm0 0l0 0.21 -0.1 0.2 0.1 -0.4zm-0.1 0.41l-2.32 -0.58 0.08 -0.23 0 -0 2.24 0.81 -0 0zm-2.32 -0.58l0.02 -0.12 0.06 -0.11 -0.08 0.23zm2.4 0.36l-2.42 -0.17 0.02 -0.17 0 -0.01 2.4 0.35 -0 0.01zm-2.42 -0.17l0 -0.09 0.02 -0.09 -0.02 0.17zm2.43 0.01l-0.1 0.4 -2.34 -0.4 0 -0.01 2.43 0 0 0.01zm0 0l0 0.21 -0.1 0.2 0.1 -0.4zm-0.1 0.41l-2.32 -0.58 0.08 -0.23 0 -0 2.24 0.81 -0 0zm-2.32 -0.58l0.02 -0.12 0.06 -0.11 -0.08 0.23zm2.4 0.36l-2.42 -0.17 0.02 -0.17 0 -0.01 2.4 0.35 -0 0.01zm-2.42 -0.17l0 -0.09 0.02 -0.09 -0.02 0.17zm2.43 0.01l-0.1 0.4 -2.34 -0.4 0 -0.01 2.43 0 0 0.01zm0 0l0 0.21 -0.1 0.2 0.1 -0.4zm-0.1 0.41l-2.33 -0.5 0.09 -0.31 0 -0 2.24 0.81 -0 0zm-2.33 -0.5l0.02 -0.16 0.08 -0.15 -0.09 0.31zm2.42 0.22l-2.43 -0.1 0 -0.1 0 -0.02 2.42 0.2 -0 0.02zm-2.43 -0.1l0 -0.05 0 -0.04 -0 0.1zm2.43 0l-0.02 0.17 -2.42 -0.17 0 -0 2.43 0 0 0zm0 0l0 0.09 -0.02 0.09 0.02 -0.17zm-0.02 0.19l-2.42 -0.17 0.02 -0.17 0 -0.01 2.4 0.35 -0 0.01zm-2.42 -0.17l0 -0.09 0.02 -0.09 -0.02 0.17zm2.43 0.01l-0.1 0.4 -2.34 -0.4 0 -0.01 2.43 0 0 0.01zm0 0l0 0.21 -0.1 0.2 0.1 -0.4zm-0.1 0.41l-2.34 -0.4 0.1 -0.4 0 -0 2.24 0.81 -0 0zm-2.34 -0.4l0 -0.21 0.1 -0.2 -0.1 0.4zm2.43 0.01l-0.03 0.21 -2.41 -0.21 0 -0.01 2.43 0 0 0.01zm0 0l0 0.11 -0.03 0.11 0.03 -0.21zm-0.03 0.22l-2.41 -0.21 0.03 -0.21 0 -0.01 2.38 0.43 -0 0.01zm-2.41 -0.21l0 -0.11 0.03 -0.11 -0.03 0.21zm2.43 0l-2.43 0.07 -0 -0.07 0 -0 2.43 0 0 0zm-2.43 0.07l-0 -0.03 0 -0.03 0 0.07zm1.21 -0.07l0 0 0 0 0 0 1.21 -0.07 -1.21 0.07zm-1.21 0.07l-0 -0.03 0 -0.03 0 0.07zm0.79 1.46l-0.19 -0.16 -0.05 -0.05 -0.02 -0.02 -0.02 -0.02 -0.02 -0.02 -0.06 -0.07 -0.05 -0.08 0 0 -0.01 -0.02 -0.05 -0.08 -0.01 -0.02 -0.01 -0.02 -0.03 -0.06 -0.03 -0.06 -0.01 -0.02 -0.02 -0.04 -0.03 -0.06 -0.01 -0.02 -0.01 -0.02 -0.02 -0.06 -0.02 -0.07 0.01 0.02 -0.03 -0.08 -0.01 -0.05 -0.01 -0.02 -0.01 -0.04 -0.02 -0.07 -0.01 -0.07 0 0.03 -0.01 -0.07 -0.01 -0.08 -0 -0.02 -0 -0.05 2.43 -0.13 0 0 0 0.02 -0 -0.03 -0 -0.02 0.01 0.08 -0 -0.02 -0 -0.02 0 0.01 0.01 0.02 -0 -0 -0.01 -0.03 0.02 0.06 -0.01 -0.02 -0 -0.02 0.01 0.02 0.01 0.02 -0.01 -0.01 0 0 0.01 0.02 -0.01 -0.01 -0.01 -0.01 0.01 0.02 0.01 0.02 -0.02 -0.03 0.01 0.02 0.03 0.05 -0.02 -0.03 -0.03 -0.03 0.02 0.02 0.02 0.02 0.02 0.02 -0.01 -0.01 -0.19 -0.16 -1.51 1.62zm0 0l-0.11 -0.07 -0.08 -0.09 0.19 0.16zm6.41 1.66l0.19 1.47 -1.69 0.15 -4.9 -3.29 1.51 -1.62 4.9 3.29zm0 0l0.98 0.65 -0.79 0.82 -0.19 -1.47zm-2.99 4.76l-1.71 0.14 -0.17 -1.46 3.17 -3.29 1.88 1.32 -3.17 3.29zm0 0l-0.77 0.8 -0.94 -0.66 1.71 -0.14zm-5.22 -2.3l-0.14 -0.12 1.69 -1.48 3.51 2.44 -1.54 1.6 -3.51 -2.44zm0 0l-0.08 -0.06 -0.06 -0.06 0.14 0.12z"/>
    </g>
    <path class="fil3" d="M241.95 39.23c-0.72,2.49 0.21,2.62 2.6,4.51l24.18 16.72c4,2.58 3.75,7.09 1.48,11.06l-29.45 -20.57c-3.5,-4.07 -2.19,-10.24 1.19,-11.72z"/>
    <path class="fil2" d="M276.08 70.78l0 -38.02c0.07,-5.53 3.8,-7.42 8.86,-7.47l0 38.66c-0.11,5.03 -3.04,6.94 -8.86,6.83z"/>
    <path class="fil4" d="M276.09 10.24c-1.15,-1.12 -1.72,-2.48 -1.72,-4.09 0,-1.62 0.57,-2.97 1.72,-4.09 1.28,-1.11 2.73,-1.66 4.37,-1.66 1.64,0 3.08,0.54 4.32,1.61 1.25,1.09 1.87,2.47 1.87,4.14 0,1.67 -0.61,3.05 -1.87,4.14 -1.23,1.07 -2.68,1.61 -4.32,1.61 -1.64,0 -3.09,-0.55 -4.37,-1.66z"/>
    <path class="fil2" d="M302.91 37.28c-2.81,2.79 -4.22,6.51 -4.22,11.17 0,4.64 1.49,8.26 4.46,10.86 2.99,2.6 6.51,3.9 10.6,3.9 4.09,0 7.58,-1.36 10.46,-4.09 2.73,-2.71 4.09,-6.28 4.09,-10.72 0,-4.43 -1.43,-8.08 -4.29,-10.93 -2.87,-2.84 -6.41,-4.29 -10.58,-4.32 -4.19,-0.03 -7.7,1.35 -10.52,4.12zm-13.18 -11.87c6.27,-0.08 8.86,1.93 8.86,7.16 1.49,-2.55 3.65,-4.51 6.51,-5.88 2.79,-1.51 5.91,-2.26 9.37,-2.26 6.35,0 11.72,2.21 16.11,6.64 4.4,4.38 6.59,10.1 6.59,17.13 0,7.03 -2.18,12.73 -6.54,17.11 -4.35,4.37 -9.74,6.56 -16.15,6.56 -3.46,0 -6.63,-0.68 -9.51,-2.05 -2.87,-1.36 -5,-3.28 -6.36,-5.71l0 28.9c-5.69,0.16 -8.61,-1.2 -8.82,-7.23l-0.05 -60.38z"/>
    <path class="fil2" d="M376.8 59.12c2.92,-2.73 4.38,-6.4 4.38,-11.02 0,-4.63 -1.52,-8.28 -4.56,-10.94 -3.05,-2.66 -6.64,-4.01 -10.76,-4.04 -4.14,0 -7.6,1.38 -10.39,4.14 -2.79,2.73 -4.19,6.3 -4.19,10.75 0,4.43 1.43,8.08 4.29,10.93 2.86,2.86 6.38,4.29 10.57,4.29 4.19,0 7.74,-1.36 10.67,-4.09zm4.48 11.78l0 -6.98c-1.43,2.39 -3.59,4.3 -6.48,5.76 -2.89,1.46 -6.04,2.19 -9.48,2.19 -6.3,0 -11.77,-2.21 -16.4,-6.63 -4.46,-4.4 -6.7,-10.11 -6.7,-17.11 0,-7.01 2.21,-12.71 6.61,-17.08 4.42,-4.38 9.92,-6.59 16.51,-6.62 3.3,0 6.48,0.68 9.51,2.05 2.99,1.49 5.13,3.41 6.43,5.76 -0.13,-5.44 3.37,-6.71 8.86,-6.84l0 38.74c-0.07,5.69 -3.18,6.75 -8.86,6.75z"/>
    <path class="fil2" d="M194.5 46.03l0 17.83c-0.13,5.1 -4.16,6.36 -8.8,6.52l0 -38.03c0.19,-5.52 3.86,-7.01 8.8,-7.14l0 6.79c1.29,-2.52 3.22,-4.45 5.82,-5.77 2.58,-1.32 5.35,-1.98 8.3,-1.98 5.67,0 9.95,1.74 12.83,5.24 3.02,3.43 4.55,8.36 4.58,14.78l0 26.11c-5.1,0.47 -8.51,-1.46 -8.8,-6.61l0 -18.93c0,-3.8 -0.9,-6.74 -2.69,-8.78 -1.74,-2.14 -4.3,-3.21 -7.7,-3.21 -3.43,0 -6.35,1.11 -8.74,3.35 -2.4,2.22 -3.59,5.51 -3.59,9.82z"/>
   </g>
  </g>
 </g>
</svg>
