<?xml version="1.0" encoding="UTF-8"?>
<!DOCTYPE svg PUBLIC "-//W3C//DTD SVG 1.1//EN" "http://www.w3.org/Graphics/SVG/1.1/DTD/svg11.dtd">
<!-- Creator: CorelDRAW 2018 (64-Bit Evaluation Version) -->
<svg xmlns="http://www.w3.org/2000/svg" xml:space="preserve" width="15.9932mm" height="3.8135mm" version="1.1" style="shape-rendering:geometricPrecision; text-rendering:geometricPrecision; image-rendering:optimizeQuality; fill-rule:evenodd; clip-rule:evenodd"
viewBox="0 0 422.67 100.78"
 xmlns:xlink="http://www.w3.org/1999/xlink">
 <defs>
  <style type="text/css">
   <![CDATA[
    .fil0 {fill:white}
    .fil1 {fill:white;fill-rule:nonzero}
   ]]>
  </style>
 </defs>
 <g id="Layer_x0020_1">
  <metadata id="CorelCorpID_0Corel-Layer"/>
  <g id="_2685608571760">
   <g>
    <path class="fil0" d="M36.62 17.78l-24.53 24.72c-4.14,3.36 -8.08,4.13 -12.09,0.44l38.8 -39.16c3.53,-3.56 11.3,-4.46 15.88,-3.3 6.34,1.6 10.46,6.49 15.54,11.62 9.96,10.06 20.87,20.38 30.39,30.73 -3.67,3.68 -8.06,3.08 -12.63,-1.03 -2.66,-2.55 -20.83,-21.8 -24.88,-25.39 -4.36,-4.39 -8.05,-8.2 -13.36,-8.21 -5.35,-0.01 -8.73,5.15 -13.13,9.58z"/>
    <path class="fil0" d="M86.69 100.69c0.02,0 0.04,-0.01 0.07,-0.02 2.05,-0.6 7.53,-2.6 10.93,-8.32 3.08,-5.18 2.35,-10.87 2.35,-17.52 0,-13.02 0.28,-12.24 -0.2,-25.17 -4.74,0.01 -7.96,3.11 -8.28,8.76 -0.09,3.39 0.43,13.16 0.34,18.11 0.15,6.66 0.2,10.01 -3.23,13.49 -4.85,3.87 -11.22,1.91 -16.1,-2.37 -3.18,-3.4 -16.2,-15.43 -16.2,-19.29 0,-3.39 2.39,-5.75 5.14,-8.52 2.25,-2.59 12.36,-11.47 13.96,-13.16 2.58,-2.91 1.45,-8.26 -0.86,-10.6 -6.49,6.07 -12.67,11.82 -18.97,18.17 -3.22,3.25 -5.95,7.07 -6.95,11.11 -1.34,5.41 1.13,10.42 1.31,10.68 5.42,6.15 10.95,11.98 16.74,17.03l-29.77 0 -0.02 -3.14 0.01 -0.15 -0.06 -3.64 0.04 -7.13c-0.01,-5.75 -0.44,-6.93 0.55,-9.21 0.01,-0.01 -0.01,0.01 0,0 0.44,-0.89 0.81,-1.78 1.48,-2.32 4.1,-3.29 6.8,-7.14 8.04,-11.91 0,-0.01 0.03,-0.16 0.03,-0.17 0.8,-3.08 0.07,-9.03 -2.43,-12.11 -2.88,-4.22 -6.81,-6.47 -11.57,-7.17l-0.04 -0.02 -7.66 0.03c-0.23,2.68 1.19,7 6.88,7.33 0.36,0.04 0.71,0.11 1.04,0.18 3.68,0.89 5.75,3.91 6.4,6.25 0.01,0.02 0.01,0.05 0.02,0.08 0.54,1.89 0.39,3.78 -0.3,5.68 -0,0.01 -0.01,0.02 -0.01,0.03 -1.45,3.97 -4.96,4.54 -6.95,6.98 -1.88,2.31 -3.07,4.98 -3.58,7.86l-0.05 1.2 0 3.24 -0.16 11.33 -0.01 0.37 0.06 6.01 -10.22 0c-0.1,0 -0.2,-0.01 -0.3,-0.02 -1.02,-0.07 -2.05,-0.3 -3.11,-0.76 -1.19,-0.44 -2.22,-1.17 -3.2,-1.98 -3.44,-3.48 -3.24,-7.71 -3.25,-13.39 -0.33,-4.97 0.11,-14.72 0.02,-18.11 -0.32,-5.65 -3.49,-8.74 -8.23,-8.76 -0.38,10.26 -0.11,20.94 -0.19,31.3 -0.03,3.9 0.49,7.6 2.82,11.3 4.15,6.41 10.41,8.19 11.32,8.41 0.04,0.01 0.07,0.02 0.09,0.02l9.52 -0.02c0.04,-0.01 0.07,-0.03 0.11,-0.03l12.04 0.02 0 0 1.44 0 38.66 0c0.01,0 0.01,0 0.02,0l10.49 0.02z"/>
   </g>
   <g>
    <path class="fil1" d="M122.96 58.54l0 17.93c-4.51,0.24 -9.33,-1.72 -9.61,-7.61l0 -41.68c6.34,0.13 9.55,1.2 9.61,7.08l0 4.04c2.41,-8.11 6.97,-12.18 13.71,-12.18 3.89,0 6.74,0.63 8.57,1.88 -1.33,3.36 -1.46,5.9 -8.59,6.26 -4.34,0.22 -7.84,3.12 -10.18,7.27 -2.34,4.17 -3.5,9.83 -3.5,17.01z"/>
    <path class="fil1" d="M194.92 51.67c0,2.18 -0.03,3.43 -0.11,3.78l-40.01 0c0.48,3.98 2.23,7.27 5.26,9.89 2.92,2.41 6.19,3.62 9.84,3.62 4.57,0 8.19,-1.15 11.07,-3.15 4.36,-3.03 6.68,-4.27 12.13,-1.3 -2.02,4.15 -5.08,7.35 -9.18,9.61 -4.08,2.27 -8.58,3.39 -13.49,3.39 -7.05,0 -13.07,-2.37 -18.08,-7.14 -4.77,-4.77 -7.14,-11.02 -7.14,-18.7 0,-7.71 2.38,-13.88 7.11,-18.54 4.75,-4.65 10.75,-6.98 18.03,-7.02 7.28,0 13.16,2.36 17.63,7.06 4.63,4.68 6.95,10.85 6.95,18.51zm-14.39 -13.48c-2.75,-2.36 -6.16,-3.54 -10.21,-3.54 -4.06,0 -7.55,1.18 -10.47,3.54 -2.88,2.52 -4.57,5.79 -5.05,9.76l30.56 0c-0.48,-3.97 -2.09,-7.25 -4.84,-9.76z"/>
    <path class="fil1" d="M260.41 76.73c-5.71,-0.04 -9.42,-1.59 -9.61,-7.31l0 -68.86c5.43,-0.03 9.48,1.52 9.61,6.51l0 37.5 0 8.05 0 24.1z"/>
    <g>
     <path class="fil0" d="M261.84 54.51c-1.21,-1.18 -1.82,-3.15 -1.85,-5.15l-0 0 0 -0.08 0 -0.02 0 -0.01 0 -0.09 0 0 0 -0.03 0 -0.06 0 -0.1 0 -0.04 0 -0.06 0 -0.1 0 -0.05 0 -0.05 0.01 -0.1 0 -0.05 0 -0.04 0.01 -0.1 0.01 -0.06 0 -0.04 0.01 -0.1 0.01 -0.06 0 -0.03 0.01 -0.1 0.01 -0.07 0 -0.03 0.03 -0.17 0 -0.02 0.03 -0.17 0 -0.02 0.02 -0.09 0.01 -0.02 0.01 -0.07 0.02 -0.1 0.02 -0.08 0 -0.01 0.02 -0.09 0.02 -0.09 0 -0 0.02 -0.09 0.02 -0.09 0 -0 0.02 -0.09 0.03 -0.09 0 -0.01 0.01 -0.04 0.04 -0.13 0 -0.01 0.02 -0.08 0.03 -0.08 0.02 -0.07 0.01 -0.02 0.03 -0.08 0.01 -0.02 0.02 -0.06 0.03 -0.08 0.01 -0.02 0.06 -0.14 0.01 -0.03 0.02 -0.05 0.04 -0.08 0.01 -0.03 0.02 -0.05 0.04 -0.08 0.02 -0.03 0.02 -0.04 0.06 -0.12 0.02 -0.04 0.04 -0.07 0.02 -0.04 0.02 -0.03 0.07 -0.12 0.02 -0.03 0.04 -0.07 0.03 -0.05 0.02 -0.02 0.05 -0.07 0.04 -0.05 0.01 -0.02 0.05 -0.07 0.04 -0.05 0.01 -0.01 0.05 -0.07 0.04 -0.06 0.01 -0.01 0.05 -0.06 0.05 -0.06 0.01 -0.01 0.02 -0.02 0.09 -0.1 0 -0 0.06 -0.06 0.06 -0.06 24.57 -16.66c2.26,4 1.27,7.24 -1.4,8.87l-20.38 13.96 -0.86 -1.69 -0.01 0.01 0 0 -0.01 0.01 -0.01 0.01 0 0 -0.01 0.01 -0.01 0.01 0 0 -0.01 0.01 -0.01 0.01 -0 0 -0.01 0.01 -0.01 0.01 -0 0 -0.01 0.01 -0.01 0.01 -0 0 -0.01 0.01 -0.01 0.01 -0 0 -0.01 0.01 -0.01 0.01 0 0 -0.01 0.01 -0.01 0.01 0 0 -0.01 0.01 -0.01 0.01 0 0 -0.01 0.01 -0.01 0.01 -0 0 -0.01 0.01 -0.01 0.01 -0 0.01 -0 0.01 -0.01 0.01 -0 0.01 -0 0.01 -0.01 0.01 -0 0.01 -0 0.01 -0.01 0.01 -0 0.01 -0 0.01 -0.01 0.01 0 0.01 -0.01 0.01 -0.01 0.01 -0 0.01 -0 0.01 -0.01 0.01 -0 0.01 0 0.01 -0.01 0.01 -0 0.01 -0 0.01 -0 0.02 -0 0.01 -0 0.01 -0 0.01 -0 0.01 -0 0.01 -0 0.01 -0 0.01 -0 0.01 -0 0.01 0 0.01 -0 0.01 -0 0.01 0 0.01 -0 0.01 -0 0.01 0 0.01 -0 0.01 -0 0.02 0 0.01 -0 0.01 0 0.01 -0 0.01 0 0.01 -0 0.01 0 0.01 0 0c0.02,0.28 0.14,0.56 0.35,0.78l5.31 3.56 -3.44 3.56 -3.8 -2.65z"/>
     <path id="1" class="fil1" d="M260 48.24l1.32 1.11 0.01 0.17 0.01 0.17 0.01 0.17 0.01 0.17 0.02 0.16 0.02 0.16 0.02 0.17 0.02 0.17 0.03 0.15 0.03 0.17 0.03 0.16 0.04 0.15 0.04 0.15 0.04 0.15 0.05 0.15 0.05 0.15 0.05 0.14 0.06 0.14 0.06 0.14 0.06 0.13 0.06 0.13 0.07 0.13 0.07 0.12 0.07 0.12 0.07 0.12 0.07 0.1 0.08 0.11 0.08 0.11 0.07 0.09 0.08 0.09 0.08 0.09 0.08 0.08 -1.98 1.48 -0.14 -0.15 -0.13 -0.14 -0.13 -0.15 -0.13 -0.16 -0.12 -0.16 -0.11 -0.16 -0.11 -0.17 -0.1 -0.17 -0.1 -0.17 -0.09 -0.17 -0.09 -0.17 -0.09 -0.18 -0.08 -0.18 -0.08 -0.18 -0.07 -0.18 -0.07 -0.19 -0.06 -0.18 -0.06 -0.19 -0.06 -0.2 -0.05 -0.2 -0.05 -0.2 -0.04 -0.2 -0.04 -0.19 -0.03 -0.21 -0.03 -0.2 -0.03 -0.2 -0.02 -0.2 -0.02 -0.21 -0.01 -0.21 -0.01 -0.2 -0.01 -0.2 -0.01 -0.21 1.32 1.11 0 -2.25zm0 0l1.3 0 0.02 1.11 -1.32 -1.11zm-0 2.25l-1.32 -1.12 1.32 -1.12 0 0 0 2.25 -0 0zm0 0l-1.32 0 0 -1.12 1.32 1.12zm-1.32 -1.21l2.64 0 0 0.08 -2.64 0 0 -0.08zm0 -0.02l2.64 0 0 0.02 -2.64 0 0 -0.02zm0 -0.01l2.64 0 0 0.01 -2.64 0 0 -0.01zm0 -0.09l0 -0.08 2.63 0.08 0 0.09 -2.64 0 0 -0.09zm0 0l0 -0.05 0 -0.03 -0 0.08zm1.32 0l0 0 0 0 0 0 -1.32 -0.08 1.32 0.08zm-1.32 0l0 -0.05 0 -0.03 -0 0.08zm0.01 -0.11l2.63 0.08 -0 0.08 -0 0.03 -2.63 -0.16 0 -0.03zm2.63 0.08l0 0.05 -0 0.03 0 -0.08zm-2.64 -0.06l0 -0.03 2.64 0.03 0 0.06 -2.64 0 0 -0.06zm0 0l0 -0.03 0 0 0 0.03zm0 -0.12l0 -0.03 2.63 0.09 -0 0.1 -2.64 -0.05 0 -0.1zm0 0l0 -0.03 -0 0.05 0 -0.01zm0.01 -0.08l2.63 0.11 -0 0.02 -0 0.04 -2.63 -0.12 0 -0.04zm2.63 0.11l-0 0.02 0.01 -0.13 -0.01 0.11zm-2.63 -0.15l2.64 0.07 0 0.02 -0 0.06 -2.64 -0.09 0 -0.06zm2.64 0.07l0 0.04 0 -0.03 0 -0.02zm-2.63 -0.15l0 -0.03 2.63 0.08 -0 0.1 -2.64 -0.05 0 -0.1zm0 0l0 -0.03 -0 0.07 0 -0.04zm0.01 -0.07l2.63 0.1 -0 0 -0 0.05 -2.63 -0.11 0 -0.05zm2.63 0.1l-0 0 0.05 -0.86 -0.04 0.85zm-2.63 -0.15l0 -0.03 2.63 0.13 -0 0.05 -2.64 -0.1 0 -0.05zm0 0l0 -0.03 -0 0.04 0 -0.01zm0.01 -0.12l2.63 0.13 -0 0.03 -0.01 0.1 -2.63 -0.16 0.01 -0.1zm2.63 0.13l0 0 -0 0.03 0 -0.03zm-2.63 -0.15l0 -0.01 2.63 0.1 -0 0.05 -2.64 -0.1 0 -0.05zm0 0l0 -0.01 -0.02 0.25 0.01 -0.25zm0.01 -0.05l0 -0.02 2.63 0.13 -0 0.04 -2.63 -0.11 0 -0.04zm0 0l0 -0.02 0.01 -0.06 -0.01 0.08zm0.01 -0.12l0.01 -0.05 2.63 0.21 -0.01 0.1 -2.63 -0.16 0.01 -0.1zm0 0l0 -0.03 0 -0.02 -0.01 0.05zm0.01 -0.11l2.63 0.2 -0.01 0.06 -0.01 0.06 -2.62 -0.26 0.01 -0.06zm2.63 0.2l-0 0.05 -0 0.01 0.01 -0.06zm-2.63 -0.17l0 -0.04 2.63 0.17 -0 0.04 -2.63 -0.14 0 -0.04zm0 0l0 -0.04 0 0 -0 0.04zm0.01 -0.13l0 -0.01 2.62 0.22 -0.01 0.1 -2.63 -0.21 0.01 -0.1zm0 0l0 -0.01 -0.01 0.08 0.01 -0.07zm0.01 -0.08l2.63 0.2 -0.01 0.04 -0.01 0.06 -2.62 -0.24 0.01 -0.06zm2.63 0.2l-0.01 0.04 0.01 -0.05 0 0.01zm-2.63 -0.19l0.01 -0.05 2.63 0.21 -0 0.03 -2.63 -0.16 0 -0.03zm0 0l0 -0.04 0 -0.02 -0.01 0.05zm0.02 -0.15l2.62 0.24 -0 0.02 -0.01 0.1 -2.62 -0.26 0.01 -0.1zm2.62 0.24l-0 0.03 0 -0.01 0 -0.02zm-2.62 -0.29l2.63 0.2 0 0.01 -0.01 0.07 -2.63 -0.22 0.01 -0.07zm2.63 0.2l0 0.01 -0.01 0.09 0.01 -0.1zm-2.62 -0.22l0.01 -0.06 2.62 0.25 -0 0.03 -2.63 -0.19 0 -0.03zm0 0l0.01 -0.06 0 0.01 -0.01 0.06zm0.03 -0.22l2.62 0.26 -0.01 0.04 -0.03 0.17 -2.62 -0.3 0.03 -0.17zm2.62 0.26l-0.01 0.04 0 -0.01 0.01 -0.04zm-2.62 -0.24l0.01 -0.06 2.62 0.27 -0 0.02 -2.63 -0.21 0 -0.02zm0 0l0 -0.03 0.01 -0.03 -0.01 0.06zm0.04 -0.22l2.61 0.3 -0 0.03 -0.03 0.17 -2.61 -0.32 0.03 -0.17zm2.61 0.3l-0 0.03 -0.01 0.04 0.01 -0.07zm-2.61 -0.29l0.01 -0.05 2.61 0.32 -0 0.02 -2.62 -0.27 0 -0.02zm0 0l0.01 -0.05 0 0.01 -0.01 0.05zm0.03 -0.15l0.01 -0.02 2.6 0.4 -0.02 0.09 -2.6 -0.38 0.02 -0.09zm0 0l0.01 -0.02 -0.01 0.05 0.01 -0.03zm0.01 -0.04l2.6 0.4 -0.01 0.02 -0.01 0.02 -2.59 -0.42 0.01 -0.02zm2.6 0.4l-0.01 0.02 0.01 -0.05 -0.01 0.03zm-2.59 -0.44l2.6 0.37 0 0.01 -0.01 0.07 -2.6 -0.38 0.01 -0.07zm2.6 0.37l0 0.01 -0.04 0.18 0.04 -0.19zm-2.58 -0.46l0 -0.02 2.6 0.39 -0.02 0.1 -2.6 -0.36 0.02 -0.1zm0 0l0 -0.02 0.02 -0.08 -0.02 0.11zm0.02 -0.11l2.62 0.21 -0.02 0.21 -0.02 0.08 -2.6 -0.41 0.02 -0.08zm2.62 0.21l0 0.11 -0.02 0.1 0.02 -0.21zm-2.64 -0.01l0.03 -0.22 2.61 0.22 0 0.01 -2.64 0 0 -0.01zm0 0l0 -0.11 0.03 -0.11 -0.03 0.22zm0.05 -0.31l0 -0.01 2.58 0.45 -0.02 0.09 -2.58 -0.44 0.02 -0.09zm0 0l0 -0.01 0.06 -0.26 -0.06 0.27zm0.02 -0.1l0.29 -0.5 2.3 0.95 -0.02 0.09 -2.58 -0.45 0.02 -0.09zm0 0l0.07 -0.28 0.22 -0.22 -0.29 0.5zm0.29 -0.5l2.3 0.94 -0.29 0.51 -0 0 -2.01 -1.45 0 -0zm2.3 0.94l-0.07 0.29 -0.22 0.22 0.29 -0.51zm-2.57 -0.52l0.01 -0.03 2.58 0.46 -0.02 0.09 -2.59 -0.43 0.02 -0.09zm0 0l0 -0.01 0.01 -0.02 -0.01 0.03zm0.03 -0.12l2.61 0.25 -0.03 0.25 -0.02 0.09 -2.57 -0.49 0.02 -0.09zm2.61 0.25l0 0.13 -0.03 0.12 0.03 -0.25zm-2.64 -0l0.03 -0.25 2.6 0.25 0 0 -2.64 0 0 -0zm0 0l0 -0.13 0.03 -0.13 -0.03 0.25zm0.06 -0.34l0.01 -0.03 2.56 0.53 -0.02 0.09 -2.57 -0.51 0.02 -0.09zm0 0l0 -0 0.01 -0.02 -0.01 0.03zm0.03 -0.11l0.01 -0.03 2.55 0.59 -0.03 0.09 -2.55 -0.56 0.03 -0.09zm0 0l0.01 -0.03 0 0 -0.01 0.03zm0.01 -0.03l2.55 0.57 -0.01 0.04 -0 0.01 -2.54 -0.61 0 -0.01zm2.55 0.57l-0.01 0.02 -0.01 0.02 0.01 -0.04zm-2.55 -0.57l0.01 -0.03 2.55 0.56 -0.01 0.04 -2.56 -0.53 0.01 -0.04zm0 0l0.01 -0.03 -0.01 0.04 0 -0.01zm0.05 -0.16l2.56 0.53 -0.02 0.06 -0.04 0.13 -2.54 -0.59 0.04 -0.13zm2.56 0.53l-0.01 0.03 -0.01 0.04 0.02 -0.06zm-2.58 -0.48l0.02 -0.05 2.56 0.52 -0 0.01 -2.58 -0.47 0 -0.01zm0 0l0.02 -0.05 -0.01 0.04 -0 0.01zm0.04 -0.13l0.02 -0.06 2.53 0.63 -0.02 0.08 -2.55 -0.57 0.02 -0.08zm0 0l0.01 -0.04 0.01 -0.02 -0.02 0.06zm0.05 -0.14l2.53 0.63 -0.02 0.06 -0.03 0.08 -2.51 -0.68 0.03 -0.08zm2.53 0.63l0 -0.01 -0.02 0.06 0.02 -0.06zm-2.53 -0.64l0.04 -0.1 2.52 0.67 -0.02 0.07 -2.55 -0.57 0.02 -0.07zm0 0l0.01 -0.04 0.02 -0.06 -0.04 0.1zm0.04 -0.12l2.49 0.72 -0.02 0.04 -0.01 0.02 -2.48 -0.77 0.01 -0.02zm2.49 0.72l-0.02 0.04 0 0 0.02 -0.04zm-2.48 -0.77l2.51 0.68 -0.03 0.08 -2.51 -0.68 0.03 -0.08zm0.01 -0.02l2.51 0.68 -0.01 0.02 -2.51 -0.68 0.01 -0.02zm0.02 -0.06l2.51 0.68 -0.02 0.06 -2.51 -0.68 0.02 -0.06zm0.03 -0.08l0.02 -0.06 2.49 0.74 -0.03 0.08 -2.51 -0.68 0.03 -0.08zm0 0l0.02 -0.05 0 -0.01 -0.02 0.06zm0.03 -0.08l2.48 0.76 -0.01 0.03 -0.01 0.02 -2.47 -0.79 0.01 -0.02zm2.48 0.76l-0.01 0.03 -0.02 0.03 0.03 -0.06zm-2.43 -0.88l0.02 -0.04 2.47 0.77 -0.06 0.14 -2.49 -0.73 0.06 -0.14zm0 0l0.01 -0.02 0.01 -0.02 -0.02 0.04zm0.03 -0.07l2.46 0.81 -0 0 -0.01 0.03 -2.46 -0.81 0.01 -0.03zm2.46 0.81l-0 0 0.15 -0.32 -0.14 0.32zm-2.44 -0.86l0.01 -0.01 2.46 0.82 -0.02 0.05 -2.46 -0.8 0.02 -0.05zm0 0l0.01 -0.01 0.02 -0.04 -0.02 0.05zm0.04 -0.09l2.48 0.76 -0.03 0.07 -0.04 0.08 -2.45 -0.83 0.04 -0.08zm2.48 0.76l-0.02 0.05 -0.01 0.01 0.03 -0.07zm-2.49 -0.73l0.04 -0.09 2.47 0.79 -0.01 0.03 -2.51 -0.7 0.01 -0.03zm0 0l0.02 -0.04 0.02 -0.04 -0.04 0.09zm0.06 -0.14l2.44 0.85 -0.01 0.02 -0.02 0.05 -2.43 -0.88 0.02 -0.05zm2.44 0.85l-0.01 0.02 0.03 -0.06 -0.02 0.04zm-2.42 -0.91l0.03 -0.05 2.43 0.88 -0.04 0.08 -2.45 -0.83 0.04 -0.08zm0 0l0.01 -0.03 0.01 -0.02 -0.03 0.05zm0.04 -0.09l2.41 0.91 -0.01 0.03 -0.02 0.03 -2.4 -0.94 0.02 -0.03zm2.41 0.91l-0.01 0.03 -0.02 0.03 0.03 -0.06zm-2.4 -0.92l0.01 -0.02 2.41 0.9 -0.02 0.04 -2.43 -0.88 0.02 -0.04zm0 0l0.01 -0.02 -0.02 0.04 0.01 -0.02zm0.08 -0.14l2.41 0.9 -0.01 0.02 -0.06 0.12 -2.4 -0.92 0.06 -0.12zm2.41 0.9l-0.01 0.02 0.02 -0.04 -0.01 0.02zm-2.41 -0.91l0.03 -0.05 2.4 0.93 -0.02 0.04 -2.43 -0.88 0.02 -0.04zm0 0l0.03 -0.05 0 0 -0.03 0.05zm0.07 -0.13l2.39 0.95 -0.02 0.03 -0.04 0.07 -2.37 -0.98 0.04 -0.07zm2.39 0.95l-0.02 0.03 -0.01 0.02 0.03 -0.05zm-2.38 -0.96l0.02 -0.04 2.38 0.96 -0.02 0.04 -2.4 -0.92 0.02 -0.04zm0 0l0.02 -0.04 0 -0 -0.02 0.04zm0.04 -0.07l0.02 -0.03 2.35 1.03 -0.02 0.03 -2.36 -1 0.02 -0.03zm0 0l0.01 -0.02 0.01 -0.01 -0.02 0.03zm0.09 -0.15l2.36 1 -0.03 0.05 -0.07 0.12 -2.33 -1.05 0.07 -0.12zm2.36 1l-0.01 0.02 -0.02 0.04 0.03 -0.05zm-2.38 -0.98l0.03 -0.06 2.36 1 -0.02 0.03 -2.39 -0.95 0.02 -0.03zm0 0l0.03 -0.06 -0.02 0.03 -0.02 0.03zm0.08 -0.13l0.02 -0.02 2.31 1.09 -0.04 0.07 -2.33 -1.06 0.04 -0.07zm0 0l0 0 0.02 -0.02 -0.02 0.02zm0.05 -0.07l0.03 -0.05 2.26 1.16 -0.03 0.05 -2.29 -1.11 0.03 -0.05zm0 0l0.01 -0.02 0.02 -0.03 -0.03 0.05zm0.05 -0.07l2.26 1.16 -0.03 0.05 -0.02 0.02 -2.23 -1.21 0.02 -0.02zm2.26 1.16l-0.01 0.02 -0.02 0.03 0.03 -0.05zm-2.25 -1.18l0.03 -0.04 2.26 1.15 -0.05 0.07 -2.29 -1.11 0.05 -0.07zm0 0l0.03 -0.04 -0.01 0.01 -0.02 0.03zm0.07 -0.09l2.24 1.18 -0.01 0.01 -0.04 0.05 -2.24 -1.19 0.04 -0.05zm2.24 1.18l-0.01 0.01 -0.05 0.07 0.06 -0.08zm-2.24 -1.19l0.01 -0.01 2.25 1.18 -0.01 0.02 -2.25 -1.17 0.01 -0.02zm0 0l0.02 -0.03 -0.02 0.02 -0.01 0.01zm0.06 -0.08l2.25 1.17 -0.01 0.02 -0.05 0.07 -2.24 -1.18 0.05 -0.07zm2.25 1.17l-0.01 0.02 0.01 -0.01 0.01 -0.01zm-2.23 -1.2l0.13 -0.15 2.14 1.3 -0.04 0.05 -2.27 -1.15 0.04 -0.05zm0 0l0.06 -0.08 0.07 -0.07 -0.13 0.15zm0.14 -0.17l2.11 1.34 -0.1 0.12 -0.01 0.01 -2.01 -1.45 0.01 -0.01zm2.11 1.34l-0.04 0.06 -0.06 0.06 0.1 -0.12zm-2.16 -1.29l0.02 -0.03 2.19 1.25 -0.05 0.07 -2.21 -1.22 0.05 -0.07zm0 0l0 -0.01 0.02 -0.02 -0.02 0.03zm0.07 -0.08l0.08 -0.09 2.09 1.36 -0.04 0.06 -2.17 -1.27 0.04 -0.06zm0 0l0.03 -0.04 0.05 -0.05 -0.08 0.09zm0.09 -0.1l2.08 1.38 -0.07 0.08 -0.01 0.01 -2.01 -1.45 0.01 -0.01zm2.08 1.38l-0.03 0.03 -0.04 0.04 0.07 -0.08zm-2.1 -1.36l2.16 1.29 -0.01 0.01 -0.05 0.06 -2.15 -1.3 0.05 -0.06zm2.16 1.29l-0.01 0.01 0.08 -0.1 -0.07 0.09zm-2.12 -1.34l0.27 -0.24 1.9 1.52 -0.05 0.06 -2.17 -1.28 0.05 -0.06zm0 0l0.11 -0.13 0.16 -0.11 -0.27 0.24zm0.28 -0.25l1.87 1.55 -0.24 0.21 -0.01 0.01 -1.63 -1.77 0.01 -0.01zm1.87 1.55l-0.1 0.12 -0.14 0.09 0.24 -0.21zm-2.1 -1.36l0.02 -0.02 2.1 1.36 -0.02 0.02 -2.11 -1.34 0.02 -0.02zm0 0l0.02 -0.02 0 0 -0.02 0.02zm0.11 -0.12l0.03 -0.03 2.04 1.42 -0.09 0.1 -2.08 -1.38 0.09 -0.1zm0 0l0 0 0.03 -0.03 -0.03 0.03zm0.04 -0.04l2.01 1.45 -0 0 -2.01 -1.45 0 -0zm0.06 -0.06l2.01 1.45 -0.06 0.06 -2.01 -1.45 0.06 -0.06zm0.06 -0.06l0.18 -0.15 1.83 1.6 -0.06 0.06 -2.01 -1.45 0.06 -0.06zm0 0l0.08 -0.08 0.1 -0.07 -0.18 0.15zm24.75 -16.81l2.01 0.39 -0.37 1.36 -24.57 16.66 -1.64 -1.75 24.57 -16.66zm0 0l1.29 -0.88 0.72 1.27 -2.01 -0.39zm-1.41 8.87l0.06 -0.04 0.2 -0.13 0.18 -0.13 0.18 -0.14 0.17 -0.15 0.16 -0.15 0.15 -0.16 0.14 -0.16 0.13 -0.17 0.13 -0.18 0.11 -0.18 0.11 -0.2 0.09 -0.19 0.08 -0.21 0.08 -0.22 0.06 -0.22 0.05 -0.23 0.04 -0.24 0.03 -0.24 0.02 -0.25 0 -0.26 -0.01 -0.27 -0.02 -0.27 -0.04 -0.28 -0.06 -0.29 -0.07 -0.3 -0.08 -0.3 -0.1 -0.31 -0.12 -0.32 -0.13 -0.32 -0.15 -0.33 -0.17 -0.34 -0.19 -0.34 2.38 -0.97 0.22 0.4 0.2 0.4 0.18 0.4 0.16 0.4 0.14 0.39 0.12 0.38 0.11 0.39 0.09 0.38 0.07 0.37 0.05 0.37 0.03 0.37 0.01 0.36 -0 0.35 -0.02 0.35 -0.04 0.35 -0.06 0.34 -0.07 0.33 -0.09 0.33 -0.11 0.31 -0.12 0.31 -0.15 0.31 -0.16 0.29 -0.17 0.29 -0.19 0.27 -0.2 0.26 -0.22 0.26 -0.23 0.24 -0.25 0.24 -0.26 0.22 -0.27 0.21 -0.29 0.2 -0.3 0.19 0.06 -0.04 -1.65 -1.75zm0 0l0.02 -0.01 0.04 -0.02 -0.06 0.04zm-18.73 15.71l-2.04 -0.43 0.38 -1.32 20.38 -13.96 1.65 1.75 -20.38 13.96zm0 0l-1.35 0.92 -0.69 -1.35 2.04 0.43zm-2.9 -2.11l0.21 -1.17 2.21 0.28 0.86 1.69 -2.42 0.89 -0.86 -1.69zm0.21 -1.17l1.37 -1.37 0.84 1.65 -2.21 -0.28zm2 1.46l-2.09 -1.36 0.08 -0.1 0.01 -0.01 2.01 1.45 -0.01 0.01zm-2.09 -1.36l0.04 -0.05 0.04 -0.04 -0.08 0.1zm1.09 0.63l0 0 0 0 0 0 1.09 0.63 -1.09 -0.63zm-1.09 -0.63l0.04 -0.05 0.04 -0.04 -0.08 0.1zm2.17 1.28l-0.08 0.1 -2.09 -1.36 0.01 -0.01 2.18 1.26 -0.01 0.01zm0 0l-0.04 0.05 -0.04 0.04 0.08 -0.1zm-0.1 0.11l-2.01 -1.45 0.01 -0.01 2.01 1.45 -0.01 0.01zm-1 -0.73l0 0 0 0 0 0 1 0.73 -1 -0.73zm0.99 0.74l-2.09 -1.36 0.08 -0.1 0.01 -0.01 2.01 1.45 -0.01 0.01zm-2.09 -1.36l0.04 -0.05 0.04 -0.04 -0.08 0.1zm2.17 1.28l-2.41 -0.63 0.23 -0.63 0.01 -0.01 2.18 1.26 -0.01 0.01zm-2.41 -0.63l0 -0.34 0.23 -0.29 -0.23 0.63zm2.64 0l-0.21 0.6 -2.43 -0.6 0 -0 2.64 0 0 0zm0 0l0 0.33 -0.21 0.27 0.21 -0.6zm-0.21 0.61l-0.02 0.03 -2.2 -1.23 0.01 -0.01 2.23 1.21 -0.01 0.01zm0 0l-0.02 0.03 0.03 -0.04 -0.01 0.01zm-0.03 0.04l-1.09 0.49 -1.09 -1.75 0.01 -0.01 2.18 1.26 -0.01 0.01zm0 0l-0.39 0.49 -0.7 0 1.09 -0.49zm-1.09 0.49l-1.11 -1.73 1.11 -0.52 0 0 0 2.25 -0 0zm-1.11 -1.73l0.39 -0.52 0.72 0 -1.11 0.52zm2.22 1.22l-2.29 -1.11 0.06 -0.09 0.01 -0.01 2.23 1.21 -0.01 0.01zm-2.29 -1.11l0.03 -0.06 0.03 -0.03 -0.06 0.09zm2.34 1.03l-0.17 0.22 -2.18 -1.24 0.01 -0.01 2.35 1.02 -0.01 0.01zm0 0l-0.07 0.12 -0.1 0.1 0.17 -0.22zm-0.17 0.22l-2.01 -1.45 0 -0 2.01 1.45 -0 0zm-0.01 0.01l-2.18 -1.24 0.17 -0.22 0.01 -0.01 2.01 1.45 -0.01 0.01zm-2.18 -1.24l0.07 -0.12 0.1 -0.1 -0.17 0.22zm2.34 1.03l-0.17 0.22 -2.18 -1.24 0.01 -0.01 2.35 1.02 -0.01 0.01zm0 0l-0.07 0.12 -0.1 0.1 0.17 -0.22zm-0.17 0.22l-2.12 -1.33 0.11 -0.12 0 -0 2.01 1.45 -0 0zm-2.12 -1.33l0.05 -0.06 0.06 -0.06 -0.11 0.12zm2.22 1.22l-2.29 -1.11 0.06 -0.09 0.01 -0.01 2.23 1.21 -0.01 0.01zm-2.29 -1.11l0.03 -0.06 0.03 -0.03 -0.06 0.09zm2.34 1.03l-0.17 0.22 -2.18 -1.24 0.01 -0.01 2.35 1.02 -0.01 0.01zm0 0l-0.07 0.12 -0.1 0.1 0.17 -0.22zm-0.17 0.22l-2.22 -1.17 0.21 -0.29 0 -0 2.01 1.45 -0 0zm-2.22 -1.17l0.08 -0.16 0.13 -0.13 -0.21 0.29zm2.42 0.89l-0.12 0.19 -2.3 -1.07 0.01 -0.01 2.43 0.88 -0.01 0.01zm0 0l-0.05 0.1 -0.07 0.09 0.12 -0.19zm-0.13 0.21l-2.41 -0.63 0.23 -0.63 0.01 -0.01 2.18 1.26 -0.01 0.01zm-2.41 -0.63l0 -0.34 0.23 -0.29 -0.23 0.63zm2.64 0l-0.21 0.6 -2.43 -0.6 0 -0 2.64 0 0 0zm0 0l0 0.33 -0.21 0.27 0.21 -0.6zm-0.21 0.61l-2.29 -1.11 0.06 -0.09 0.01 -0.01 2.23 1.21 -0.01 0.01zm-2.29 -1.11l0.03 -0.06 0.03 -0.03 -0.06 0.09zm2.34 1.03l-2.49 -0.51 0.15 -0.51 0.01 -0.01 2.35 1.02 -0.01 0.01zm-2.49 -0.51l0 -0.27 0.15 -0.24 -0.15 0.51zm2.64 0l-0.21 0.6 -2.43 -0.6 0 -0 2.64 0 0 0zm0 0l0 0.33 -0.21 0.27 0.21 -0.6zm-0.21 0.61l-2.29 -1.11 0.06 -0.09 0.01 -0.01 2.23 1.21 -0.01 0.01zm-2.29 -1.11l0.03 -0.06 0.03 -0.03 -0.06 0.09zm2.34 1.03l-2.49 -0.51 0.15 -0.51 0.01 -0.01 2.35 1.02 -0.01 0.01zm-2.49 -0.51l0 -0.27 0.15 -0.24 -0.15 0.51zm2.64 0l-0.11 0.44 -2.53 -0.44 0 -0 2.64 0 0 0zm0 0l0 0.23 -0.11 0.21 0.11 -0.44zm-0.11 0.45l-0.04 0.07 -2.39 -0.95 0.01 -0.01 2.43 0.88 -0.01 0.01zm0 0l-0.02 0.03 -0.02 0.04 0.04 -0.07zm-0.05 0.08l-0.17 0.22 -2.18 -1.24 0.01 -0.01 2.35 1.02 -0.01 0.01zm0 0l-0.07 0.12 -0.1 0.1 0.17 -0.22zm-0.17 0.22l-2.22 -1.17 0.21 -0.29 0 -0 2.01 1.45 -0 0zm-2.22 -1.17l0.08 -0.16 0.13 -0.13 -0.21 0.29zm2.42 0.89l-0.04 0.07 -2.39 -0.95 0.01 -0.01 2.43 0.88 -0.01 0.01zm0 0l-0.02 0.03 -0.02 0.04 0.04 -0.07zm-0.05 0.08l-2.39 -0.95 0.04 -0.07 0.01 -0.01 2.35 1.02 -0.01 0.01zm-2.39 -0.95l0.02 -0.03 0.02 -0.04 -0.04 0.07zm2.42 0.88l-2.48 -0.75 0.06 -0.13 0 -0.01 2.43 0.88 -0 0.01zm-2.48 -0.75l0.02 -0.06 0.03 -0.07 -0.06 0.13zm2.53 0.62l-0.1 0.2 -2.44 -0.82 0 -0.01 2.54 0.61 -0 0.01zm0 0l-0.03 0.1 -0.06 0.1 0.1 -0.2zm-0.1 0.22l-2.39 -0.95 0.04 -0.07 0.01 -0.01 2.35 1.02 -0.01 0.01zm-2.39 -0.95l0.02 -0.03 0.02 -0.04 -0.04 0.07zm2.42 0.88l-2.5 -0.67 0.08 -0.21 0 -0.01 2.43 0.88 -0 0.01zm-2.5 -0.67l0.03 -0.11 0.05 -0.1 -0.08 0.21zm2.58 0.48l-0.12 0.28 -2.46 -0.74 0 -0.01 2.58 0.47 -0 0.01zm0 0l-0.04 0.14 -0.08 0.13 0.12 -0.28zm-0.12 0.29l-2.39 -0.95 0.04 -0.07 0.01 -0.01 2.35 1.02 -0.01 0.01zm-2.39 -0.95l0.02 -0.03 0.02 -0.04 -0.04 0.07zm2.42 0.88l-2.48 -0.75 0.06 -0.13 0 -0.01 2.43 0.88 -0 0.01zm-2.48 -0.75l0.02 -0.06 0.03 -0.07 -0.06 0.13zm2.53 0.62l-0.02 0.06 -2.52 -0.67 0 -0.01 2.54 0.61 -0 0.01zm0 0l-0.01 0.02 -0.02 0.04 0.02 -0.06zm-0.03 0.07l-0.03 0.08 -2.46 -0.8 0.01 -0.01 2.49 0.72 -0.01 0.01zm0 0l-0.02 0.04 -0.02 0.04 0.03 -0.08zm-0.04 0.08l-2.5 -0.67 0.08 -0.21 0 -0.01 2.43 0.88 -0 0.01zm-2.5 -0.67l0.03 -0.11 0.05 -0.1 -0.08 0.21zm2.58 0.48l-0.12 0.28 -2.46 -0.74 0 -0.01 2.58 0.47 -0 0.01zm0 0l-0.04 0.14 -0.08 0.13 0.12 -0.28zm-0.12 0.29l-2.49 -0.51 0.15 -0.51 0.01 -0.01 2.35 1.02 -0.01 0.01zm-2.49 -0.51l0 -0.27 0.15 -0.24 -0.15 0.51zm2.64 0.01l-0.17 0.55 -2.47 -0.55 0 -0.01 2.64 0 0 0.01zm0 0l0 0.3 -0.17 0.26 0.17 -0.55zm-0.18 0.56l-2.39 -0.92 0.1 -0.19 0.01 -0.01 2.29 1.11 -0.01 0.01zm-2.39 -0.92l0.04 -0.11 0.06 -0.09 -0.1 0.19zm2.49 0.74l-2.52 -0.67 0.02 -0.06 0.01 -0.01 2.49 0.72 -0.01 0.01zm-2.52 -0.67l0.01 -0.02 0.02 -0.04 -0.02 0.06zm2.53 0.62l-2.54 -0.61 0 -0.01 2.54 0.61 -0 0.01zm-0 0.01l-0.02 0.06 -2.52 -0.67 0 -0.01 2.54 0.61 -0 0.01zm0 0l-0.01 0.02 -0.02 0.04 0.02 -0.06zm-0.03 0.07l-2.52 -0.67 0.02 -0.06 0.01 -0.01 2.49 0.72 -0.01 0.01zm-2.52 -0.67l0.01 -0.02 0.02 -0.04 -0.02 0.06zm2.53 0.62l-2.59 -0.31 0.05 -0.31 0 -0.01 2.54 0.61 -0 0.01zm-2.59 -0.31l0 -0.16 0.05 -0.15 -0.05 0.31zm2.64 0.01l-0.07 0.36 -2.57 -0.36 0 -0.01 2.64 0 0 0.01zm0 0l0 0.18 -0.07 0.18 0.07 -0.36zm-0.08 0.38l-2.52 -0.67 0.02 -0.06 0.01 -0.01 2.49 0.72 -0.01 0.01zm-2.52 -0.67l0.01 -0.02 0.02 -0.04 -0.02 0.06zm2.53 0.62l-0.06 0.13 -2.48 -0.75 0 -0.01 2.54 0.61 -0 0.01zm0 0l-0.02 0.06 -0.03 0.07 0.06 -0.13zm-0.06 0.14l-2.52 -0.6 0.09 -0.28 0 -0.01 2.43 0.88 -0 0.01zm-2.52 -0.6l0.02 -0.14 0.07 -0.14 -0.09 0.28zm2.61 0.33l-0.04 0.15 -2.57 -0.47 0 -0.02 2.61 0.32 -0 0.02zm0 0l-0.01 0.07 -0.02 0.07 0.04 -0.15zm-0.04 0.16l-0.06 0.13 -2.48 -0.75 0 -0.01 2.54 0.61 -0 0.01zm0 0l-0.02 0.06 -0.03 0.07 0.06 -0.13zm-0.06 0.14l-2.51 -0.63 0.09 -0.25 0 -0.01 2.43 0.88 -0 0.01zm-2.51 -0.63l0.03 -0.13 0.06 -0.12 -0.09 0.25zm2.6 0.39l-0.01 0.04 -2.59 -0.42 0 -0.01 2.6 0.38 -0 0.01zm0 0l-0 0.01 -0.01 0.03 0.01 -0.04zm-0.01 0.06l-0.08 0.21 -2.5 -0.67 0 -0.01 2.58 0.47 -0 0.01zm0 0l-0.03 0.11 -0.05 0.1 0.08 -0.21zm-0.08 0.21l-2.51 -0.63 0.09 -0.25 0 -0.01 2.43 0.88 -0 0.01zm-2.51 -0.63l0.03 -0.13 0.06 -0.12 -0.09 0.25zm2.6 0.39l-0.03 0.12 -2.57 -0.49 0 -0.01 2.6 0.38 -0 0.01zm0 0l-0.01 0.06 -0.02 0.06 0.03 -0.12zm-0.03 0.13l-2.54 -0.61 0 -0.01 2.54 0.61 -0 0.01zm-0 0.01l-2.57 -0.49 0.03 -0.12 0 -0.01 2.54 0.61 -0 0.01zm-2.57 -0.49l0.01 -0.06 0.02 -0.06 -0.03 0.12zm2.6 0.39l-2.62 -0.19 0.02 -0.19 0 -0.01 2.6 0.38 -0 0.01zm-2.62 -0.19l0 -0.1 0.02 -0.09 -0.02 0.19zm2.64 0.01l-0.11 0.44 -2.53 -0.44 0 -0.01 2.64 0 0 0.01zm0 0l0 0.23 -0.11 0.21 0.11 -0.44zm-0.11 0.44l-2.51 -0.63 0.09 -0.25 0 -0.01 2.43 0.88 -0 0.01zm-2.51 -0.63l0.03 -0.13 0.06 -0.12 -0.09 0.25zm2.6 0.39l-2.62 -0.19 0.02 -0.19 0 -0.01 2.6 0.38 -0 0.01zm-2.62 -0.19l0 -0.1 0.02 -0.09 -0.02 0.19zm2.64 0.01l-0.11 0.44 -2.53 -0.44 0 -0.01 2.64 0 0 0.01zm0 0l0 0.23 -0.11 0.21 0.11 -0.44zm-0.11 0.44l-2.51 -0.63 0.09 -0.25 0 -0.01 2.43 0.88 -0 0.01zm-2.51 -0.63l0.03 -0.13 0.06 -0.12 -0.09 0.25zm2.6 0.39l-2.62 -0.19 0.02 -0.19 0 -0.01 2.6 0.38 -0 0.01zm-2.62 -0.19l0 -0.1 0.02 -0.09 -0.02 0.19zm2.64 0.01l-0.11 0.44 -2.53 -0.44 0 -0.01 2.64 0 0 0.01zm0 0l0 0.23 -0.11 0.21 0.11 -0.44zm-0.11 0.44l-2.53 -0.54 0.1 -0.33 0 -0.01 2.43 0.88 -0 0.01zm-2.53 -0.54l0.02 -0.17 0.08 -0.16 -0.1 0.33zm2.62 0.24l-2.63 -0.11 0.01 -0.11 0 -0.02 2.63 0.21 -0 0.02zm-2.63 -0.11l0 -0.06 0.01 -0.05 -0.01 0.11zm2.64 0.01l-0.02 0.19 -2.62 -0.19 0 -0.01 2.64 0 0 0.01zm0 0l0 0.1 -0.02 0.09 0.02 -0.19zm-0.02 0.2l-2.62 -0.19 0.02 -0.19 0 -0.01 2.6 0.38 -0 0.01zm-2.62 -0.19l0 -0.1 0.02 -0.09 -0.02 0.19zm2.64 0.01l-0.11 0.44 -2.53 -0.44 0 -0.01 2.64 0 0 0.01zm0 0l0 0.23 -0.11 0.21 0.11 -0.44zm-0.11 0.44l-2.53 -0.44 0.11 -0.44 0 -0.01 2.43 0.88 -0 0.01zm-2.53 -0.44l0 -0.23 0.11 -0.21 -0.11 0.44zm2.64 0.01l-0.03 0.23 -2.61 -0.23 0 -0.01 2.64 0 0 0.01zm0 0l0 0.12 -0.03 0.12 0.03 -0.23zm-0.03 0.24l-2.61 -0.23 0.03 -0.23 0 -0.01 2.58 0.47 -0 0.01zm-2.61 -0.23l0 -0.12 0.03 -0.12 -0.03 0.23zm2.64 0.01l-2.63 0.07 -0 -0.07 0 -0.01 2.64 0 0 0.01zm-2.63 0.07l-0 -0.03 0 -0.04 0 0.07zm1.32 -0.07l0 0 0 0 0 0 1.32 -0.07 -1.32 0.07zm-1.32 0.07l-0 -0.03 0 -0.04 0 0.07zm0.85 1.59l-0.21 -0.18 -0.05 -0.06 -0.02 -0.02 -0.02 -0.02 -0.02 -0.02 -0.07 -0.08 -0.06 -0.08 0 0 -0.02 -0.02 -0.06 -0.08 -0.01 -0.02 -0.02 -0.02 -0.03 -0.06 -0.03 -0.06 -0.01 -0.02 -0.02 -0.04 -0.03 -0.07 -0.01 -0.02 -0.01 -0.03 -0.03 -0.07 -0.02 -0.07 0.01 0.02 -0.03 -0.08 -0.02 -0.06 -0.01 -0.02 -0.01 -0.04 -0.02 -0.07 -0.01 -0.07 0.01 0.03 -0.02 -0.07 -0.01 -0.08 -0 -0.03 -0.01 -0.05 2.63 -0.14 0 0 0 0.03 -0 -0.03 -0.01 -0.02 0.02 0.08 -0.01 -0.02 -0 -0.02 0 0.01 0.01 0.02 -0.01 -0.01 -0.01 -0.03 0.02 0.07 -0.01 -0.02 -0.01 -0.02 0.01 0.03 0.01 0.02 -0.01 -0.02 0 0.01 0.01 0.02 -0.01 -0.02 -0.01 -0.02 0.02 0.02 0.01 0.02 -0.02 -0.04 0.02 0.02 0.03 0.05 -0.03 -0.03 -0.03 -0.04 0.02 0.02 0.02 0.02 0.02 0.02 -0.01 -0.01 -0.21 -0.18 -1.63 1.77zm0 0l-0.11 -0.07 -0.1 -0.1 0.21 0.18zm6.94 1.79l0.2 1.6 -1.84 0.17 -5.31 -3.56 1.63 -1.77 5.31 3.56zm0 0l1.06 0.71 -0.86 0.89 -0.2 -1.6zm-3.23 5.16l-1.86 0.16 -0.18 -1.58 3.44 -3.56 2.04 1.43 -3.44 3.56zm0 0l-0.84 0.87 -1.02 -0.71 1.86 -0.16zm-5.66 -2.49l-0.16 -0.13 1.83 -1.61 3.8 2.65 -1.67 1.74 -3.8 -2.65zm0 0l-0.08 -0.06 -0.08 -0.07 0.16 0.13z"/>
    </g>
    <path class="fil0" d="M262.12 42.5c-0.78,2.7 0.23,2.84 2.81,4.88l26.2 18.12c4.33,2.8 4.06,7.69 1.61,11.98l-31.91 -22.28c-3.79,-4.41 -2.38,-11.09 1.29,-12.69z"/>
    <path class="fil1" d="M299.09 76.68l0 -41.19c0.07,-5.99 4.11,-8.04 9.6,-8.1l0 41.88c-0.12,5.45 -3.29,7.52 -9.6,7.4z"/>
    <path class="fil1" d="M299.11 11.09c-1.25,-1.21 -1.87,-2.69 -1.87,-4.43 0,-1.76 0.62,-3.22 1.87,-4.43 1.39,-1.2 2.95,-1.79 4.73,-1.79 1.78,0 3.34,0.58 4.68,1.74 1.36,1.18 2.02,2.67 2.02,4.48 0,1.81 -0.67,3.31 -2.02,4.48 -1.34,1.16 -2.9,1.74 -4.68,1.74 -1.78,0 -3.34,-0.6 -4.73,-1.79z"/>
    <path class="fil1" d="M328.16 40.39c-3.04,3.03 -4.57,7.05 -4.57,12.1 0,5.03 1.62,8.95 4.84,11.77 3.24,2.81 7.05,4.22 11.49,4.22 4.43,0 8.21,-1.48 11.33,-4.43 2.95,-2.94 4.43,-6.81 4.43,-11.61 0,-4.8 -1.55,-8.76 -4.64,-11.84 -3.11,-3.08 -6.95,-4.64 -11.47,-4.68 -4.54,-0.03 -8.34,1.46 -11.4,4.47zm-14.28 -12.86c6.79,-0.08 9.6,2.1 9.6,7.76 1.62,-2.76 3.96,-4.89 7.05,-6.37 3.02,-1.64 6.4,-2.44 10.15,-2.44 6.88,0 12.7,2.39 17.45,7.19 4.76,4.75 7.14,10.94 7.14,18.56 0,7.62 -2.36,13.79 -7.09,18.54 -4.71,4.73 -10.55,7.11 -17.5,7.11 -3.75,0 -7.18,-0.74 -10.31,-2.22 -3.11,-1.48 -5.42,-3.55 -6.9,-6.19l0 31.31c-6.17,0.17 -9.33,-1.3 -9.55,-7.83l-0.05 -65.41z"/>
    <path class="fil1" d="M408.21 64.05c3.17,-2.95 4.75,-6.93 4.75,-11.94 0,-5.01 -1.65,-8.97 -4.94,-11.86 -3.31,-2.88 -7.19,-4.34 -11.66,-4.38 -4.48,0 -8.23,1.5 -11.26,4.48 -3.02,2.95 -4.54,6.82 -4.54,11.64 0,4.8 1.55,8.76 4.64,11.84 3.1,3.09 6.91,4.64 11.45,4.64 4.54,0 8.39,-1.48 11.55,-4.43zm4.85 12.77l0 -7.56c-1.55,2.58 -3.89,4.66 -7.02,6.24 -3.13,1.58 -6.54,2.38 -10.27,2.38 -6.82,0 -12.75,-2.39 -17.76,-7.18 -4.84,-4.76 -7.26,-10.96 -7.26,-18.54 0,-7.6 2.39,-13.77 7.16,-18.5 4.79,-4.75 10.75,-7.14 17.89,-7.18 3.57,0 7.02,0.74 10.31,2.22 3.23,1.62 5.56,3.69 6.96,6.24 -0.14,-5.89 3.65,-7.27 9.6,-7.41l0 41.97c-0.07,6.17 -3.45,7.31 -9.6,7.31z"/>
    <path class="fil1" d="M210.71 49.87l0 19.32c-0.15,5.52 -4.5,6.9 -9.54,7.07l0 -41.2c0.2,-5.98 4.19,-7.6 9.54,-7.74l0 7.35c1.4,-2.72 3.49,-4.82 6.3,-6.25 2.8,-1.43 5.8,-2.15 8.99,-2.15 6.15,0 10.77,1.89 13.9,5.68 3.27,3.72 4.93,9.06 4.96,16.01l0 28.29c-5.52,0.5 -9.22,-1.59 -9.54,-7.16l0 -20.5c0,-4.12 -0.98,-7.3 -2.92,-9.52 -1.88,-2.32 -4.66,-3.48 -8.35,-3.48 -3.72,0 -6.88,1.21 -9.47,3.63 -2.6,2.41 -3.89,5.97 -3.89,10.63z"/>
   </g>
  </g>
 </g>
</svg>
