<svg xmlns="http://www.w3.org/2000/svg" width="1214" height="1319.545" viewBox="0 0 1214 1319.545">
  <defs>
    <style>
      .cls-1 {
        fill: #fb0028;
      }

      .cls-2 {
        fill: #FFFFFF;
      }
    </style>
  </defs>
  <g id="Group_1865" data-name="Group 1865" transform="translate(-5426 -5480.742)">
    <g id="Group_1846" data-name="Group 1846" transform="translate(5577.813 6417.677)">
      <path id="Wheel_2_4_" class="cls-1" d="M260.1,432.09c105.623,0,191.281,85.68,191.281,191.311S365.723,814.7,260.1,814.7c-105.68,0-191.319-85.658-191.319-191.3S154.42,432.09,260.1,432.09Z" transform="translate(-68.781 -432.09)"/>
      <path id="Wheel_1_4_" class="cls-1" d="M494.248,432.09c105.675,0,191.332,85.68,191.332,191.311S599.923,814.7,494.248,814.7A191.055,191.055,0,0,1,302.981,623.4C302.981,517.77,388.62,432.09,494.248,432.09Z" transform="translate(226.429 -432.09)"/>
    </g>
    <path id="Cart_4_" class="cls-1" d="M1183.833,268.155H946.773C908.41,148.366,767.348,70.408,625.529,72.28c-135.292,1.786-268.2,87.658-299.367,195.875H80.5c-30.664,0-55.3,23.465-55.3,52.35V1197.32c0,28.945,24.64,52.332,55.3,52.332H1183.834c30.721,0,55.367-23.387,55.367-52.332V320.5C1239.2,291.62,1214.555,268.155,1183.833,268.155Zm-277.778,0H367.417c32.348-81.01,143.441-162.7,258.112-163.693C743.675,103.433,864,168.458,906.056,268.155Z" transform="translate(5400.799 5408.495)"/>
    <g id="XMLID_1_" transform="translate(5609 5810.219)">
      <path id="XMLID_2_" class="cls-2" d="M403.71,665.572v-103.9L542.464,750.2H816.53l-71.2-114.148L533.572,605.572l175.045-27.5-64.67-91.948L403.71,454.207l227.8-34.526c12.863-18.757,34.278-47.841,34.278-47.841l29.789-41.907-162-32.751L736.94,272.337,816.559,161.2H533.572L403.71,349.294V161.2h-244.7s1.106,193.676,0,405.4L157.9,750.2H403.71Z" transform="translate(-62.9 -100.417)"/>
    </g>
  </g>
</svg>
