<svg xmlns="http://www.w3.org/2000/svg" xmlns:xlink="http://www.w3.org/1999/xlink" width="118" height="55" viewBox="0 0 118 55">
  <defs>
    <style>
      .cls-1 {
        clip-path: url(#clip-Kmall-45px_1);
      }

      .cls-2 {
        fill: #fb0028;
      }

      .cls-3 {
        fill: #FFFFFF;
      }
    </style>
    <clipPath id="clip-Kmall-45px_1">
      <rect width="118" height="55"/>
    </clipPath>
  </defs>
  <g id="Kmall-45px_1" class="cls-1">
    <g id="Group_1882" data-name="Group 1882" transform="translate(-5414 -5476)">
      <g id="Group_1865" data-name="Group 1865" transform="translate(5426 5480.742)">
        <g id="Group_1846" data-name="Group 1846" transform="translate(5.207 32.135)">
          <path id="Wheel_2_4_" class="cls-2" d="M75.343,432.09a6.561,6.561,0,1,1-6.562,6.562A6.562,6.562,0,0,1,75.343,432.09Z" transform="translate(-68.781 -432.09)"/>
          <path id="Wheel_1_4_" class="cls-2" d="M309.542,432.09a6.568,6.568,0,1,1-6.56,6.562A6.562,6.562,0,0,1,309.542,432.09Z" transform="translate(-284.824 -432.09)"/>
        </g>
        <path id="Cart_4_" class="cls-2" d="M64.94,78.966H56.81c-1.316-4.109-6.154-6.782-11.018-6.718-4.64.061-9.2,3.007-10.268,6.718H27.1a1.846,1.846,0,0,0-1.9,1.8v30.073a1.844,1.844,0,0,0,1.9,1.795H64.94a1.845,1.845,0,0,0,1.9-1.795V80.761A1.847,1.847,0,0,0,64.94,78.966Zm-9.527,0H36.939c1.109-2.779,4.92-5.58,8.853-5.614C49.844,73.316,53.97,75.547,55.413,78.966Z" transform="translate(-25.201 -72.247)"/>
        <g id="XMLID_1_" transform="translate(9.535 13.397)">
          <path id="XMLID_2_" class="cls-3" d="M166.331,178.5v-3.564l4.759,6.466h9.4l-2.442-3.915-7.263-.911,6-1.078-2.218-3.154-8.24-1.095,7.813-1.184c.441-.643,1.176-1.641,1.176-1.641l1.022-1.437-5.557-1.547,6.975-.429,2.731-3.812h-9.706l-4.454,6.451V161.2h-8.393s.038,6.643,0,13.9l-.038,6.3h8.431Z" transform="translate(-157.9 -161.197)"/>
        </g>
      </g>
      <g id="mall_2x" data-name="mall@2x" transform="translate(5471.068 5494.127)">
        <path id="Path_3087" data-name="Path 3087" class="cls-2" d="M1224-755.916v10.084h3.4l-.007-10.077-.01-10.073-1.687-.01L1224-766Z" transform="translate(-1184.111 766)"/>
        <path id="Path_3088" data-name="Path 3088" class="cls-2" d="M1404-755.916v10.084h3.361V-766H1404Z" transform="translate(-1357.937 766)"/>
        <path id="Path_3089" data-name="Path 3089" class="cls-2" d="M67.105-614.777a20.808,20.808,0,0,0-4.627.923,9.137,9.137,0,0,0-1.176.467l-.3.141v13.435h3.4L64.4-605.6l.01-5.786.288-.1a6.939,6.939,0,0,1,4.167-.2,2.406,2.406,0,0,1,1.3,1.1,3.687,3.687,0,0,1,.333,1.228c.021.226.034,2.12.034,4.953v4.589h3.4L73.92-605.1c-.007-4.853-.014-5.316-.069-5.632-.034-.189-.065-.374-.069-.412-.007-.055.058-.1.312-.23a5.172,5.172,0,0,1,2.895-.511,3.006,3.006,0,0,1,1.842.71,2.069,2.069,0,0,1,.611.943c.22.641.216.521.216,5.714v4.709h3.4v-5.172c0-4.212-.01-5.241-.051-5.563a4.234,4.234,0,0,0-3.732-4.061,8.746,8.746,0,0,0-2.116-.175,9.815,9.815,0,0,0-1.423.062,12.387,12.387,0,0,0-3.193.892l-.281.12-.165-.12a5.011,5.011,0,0,0-.58-.319,6.717,6.717,0,0,0-2.5-.614C68.635-614.8,67.489-614.8,67.105-614.777Z" transform="translate(-61 619.98)"/>
        <path id="Path_3090" data-name="Path 3090" class="cls-2" d="M771.155-614.512a12.324,12.324,0,0,0-4,.971l-.388.185v1.578c0,.864.007,1.574.014,1.574s.165-.1.346-.223c1.77-1.2,4.792-1.615,6.414-.878a2.244,2.244,0,0,1,1.327,1.54,4.914,4.914,0,0,1,.086,1.2c.01.514.01.936,0,.936s-.182-.082-.388-.185a8.461,8.461,0,0,0-2.432-.727,13.589,13.589,0,0,0-2.692,0,4.357,4.357,0,0,0-3.581,2.343,6.076,6.076,0,0,0-.12,4.284,2.982,2.982,0,0,0,.566.943,5.733,5.733,0,0,0,4.1,1.8,18.79,18.79,0,0,0,4.294-.189c1.893-.329,3.049-1.053,3.454-2.161.192-.532.189-.388.2-4.442.01-3.917,0-4.322-.137-4.956a4.395,4.395,0,0,0-3.114-3.234,8.5,8.5,0,0,0-1.389-.319A16.864,16.864,0,0,0,771.155-614.512Zm1.688,8.406a9.734,9.734,0,0,1,1.742.37l.36.113v3.015l-.086.165c-.23.456-.785.628-2.247.707a4.973,4.973,0,0,1-2.456-.319,2.063,2.063,0,0,1-1.29-1.293,3.19,3.19,0,0,1,0-1.3,1.663,1.663,0,0,1,.466-.755,2.82,2.82,0,0,1,1.629-.682c.172-.021.346-.045.394-.051A10.188,10.188,0,0,1,772.843-606.105Z" transform="translate(-741.247 619.739)"/>
      </g>
    </g>
  </g>
</svg>
