<svg xmlns="http://www.w3.org/2000/svg" xmlns:xlink="http://www.w3.org/1999/xlink" width="456" height="204" viewBox="0 0 456 204">
  <defs>
    <style>
      .cls-1 {
        clip-path: url(#clip-Kmall-180px_1);
      }

      .cls-2 {
        fill: #fb0028;
      }

      .cls-3 {
        fill: #FFFFFF;
      }
    </style>
    <clipPath id="clip-Kmall-180px_1">
      <rect width="456" height="204"/>
    </clipPath>
  </defs>
  <g id="Kmall-180px_1" class="cls-1">
    <g id="Group_1880" data-name="Group 1880" transform="translate(-5386 -5469)">
      <g id="Group_1865" data-name="Group 1865" transform="translate(5426 5480.742)">
        <g id="Group_1846" data-name="Group 1846" transform="translate(20.739 127.991)">
          <path id="Wheel_2_4_" class="cls-2" d="M94.917,432.09a26.133,26.133,0,1,1-26.135,26.134A26.136,26.136,0,0,1,94.917,432.09Z" transform="translate(-68.781 -432.09)"/>
          <path id="Wheel_1_4_" class="cls-2" d="M329.11,432.09a26.158,26.158,0,1,1-26.128,26.134A26.138,26.138,0,0,1,329.11,432.09Z" transform="translate(-230.661 -432.09)"/>
        </g>
        <path id="Cart_4_" class="cls-2" d="M183.478,99.009H151.094C145.853,82.645,126.583,72,107.21,72.251c-18.482.244-36.638,11.975-40.9,26.758H32.756A7.353,7.353,0,0,0,25.2,106.16V225.939a7.346,7.346,0,0,0,7.555,7.149H183.478a7.349,7.349,0,0,0,7.563-7.149V106.16A7.356,7.356,0,0,0,183.478,99.009Zm-37.946,0H71.95c4.419-11.066,19.6-22.225,35.26-22.362C123.349,76.507,139.786,85.39,145.532,99.009Z" transform="translate(-25.201 -72.247)"/>
        <g id="XMLID_1_" transform="translate(-57 -7.523)">
          <path id="XMLID_2_" class="cls-3" d="M191.471,230.08V215.89l18.95,25.747H247.85l-9.663-15.286-32.28-4.589,27.17-3.846-8.828-12.539-33.109-4.393,31.4-4.213c1.757-2.562,4.725-6.805,4.725-6.805l4.324-6-24.865-3.392,30.258-4.192L247.854,161.2H209.206l-17.735,25.689V161.2H158.051s.151,26.45,0,55.365l-.151,25.075h33.57Z" transform="translate(-62.9 -100.417)"/>
        </g>
      </g>
      <g id="mall_2x" data-name="mall@2x" transform="translate(5605.501 5534.054)">
        <path id="Path_3087" data-name="Path 3087" class="cls-2" d="M1224-725.838v40.162h13.524l-.027-40.135-.041-40.121-6.721-.041L1224-766Z" transform="translate(-1065.127 766)"/>
        <path id="Path_3088" data-name="Path 3088" class="cls-2" d="M1404-725.838v40.162h13.387V-766H1404Z" transform="translate(-1220.538 766)"/>
        <path id="Path_3089" data-name="Path 3089" class="cls-2" d="M85.316-614.726a82.843,82.843,0,0,0-18.428,3.675,36.406,36.406,0,0,0-4.686,1.858l-1.2.56v53.509H74.524l.027-23.045.041-23.046,1.147-.383c5.874-1.981,12.322-2.295,16.6-.806a9.582,9.582,0,0,1,5.177,4.385,14.683,14.683,0,0,1,1.325,4.891c.082.9.137,8.442.137,19.726v18.278h13.538L112.46-576.2c-.027-19.33-.055-21.174-.273-22.431-.137-.751-.26-1.489-.273-1.639-.027-.219.232-.4,1.243-.915a20.6,20.6,0,0,1,11.53-2.035c3.265.314,5.587,1.216,7.336,2.828a8.238,8.238,0,0,1,2.432,3.757c.874,2.555.861,2.076.861,22.759v18.756h13.524v-20.6c-.014-16.775-.041-20.873-.2-22.158-1.12-9.235-5.792-14.316-14.863-16.174a34.831,34.831,0,0,0-8.429-.7,39.108,39.108,0,0,0-5.669.246,49.332,49.332,0,0,0-12.718,3.552l-1.12.478-.656-.478a19.969,19.969,0,0,0-2.309-1.271,26.756,26.756,0,0,0-9.972-2.445C91.409-614.808,86.846-614.835,85.316-614.726Z" transform="translate(-61 635.449)"/>
        <path id="Path_3090" data-name="Path 3090" class="cls-2" d="M788.3-614.415c-6.216.574-12.117,1.994-15.942,3.866l-1.544.738v6.284c0,3.442.027,6.27.055,6.27s.656-.4,1.38-.888c7.049-4.781,19.084-6.434,25.545-3.5a8.938,8.938,0,0,1,5.287,6.134,19.556,19.556,0,0,1,.342,4.768c.041,2.049.041,3.729,0,3.729s-.724-.328-1.544-.738a33.7,33.7,0,0,0-9.685-2.9,54.1,54.1,0,0,0-10.724-.014c-7.131,1.12-11.748,4.139-14.262,9.33-2.2,4.549-2.418,12.213-.478,17.062a11.871,11.871,0,0,0,2.254,3.757c3.347,4.071,8.552,6.366,16.311,7.172a74.824,74.824,0,0,0,17.1-.751c7.541-1.311,12.144-4.194,13.756-8.606.765-2.117.751-1.544.806-17.691.041-15.6,0-17.212-.546-19.74-1.3-6.065-5.724-10.655-12.4-12.882a33.851,33.851,0,0,0-5.533-1.27A67.161,67.161,0,0,0,788.3-614.415Zm6.721,33.482a38.755,38.755,0,0,1,6.94,1.475l1.434.451V-567l-.342.656c-.915,1.817-3.128,2.5-8.948,2.814-4.494.246-7.076-.1-9.781-1.27-2.841-1.257-4.4-2.814-5.136-5.15a12.708,12.708,0,0,1,.014-5.177,6.622,6.622,0,0,1,1.858-3.005,11.231,11.231,0,0,1,6.489-2.719c.683-.082,1.38-.178,1.571-.2A40.539,40.539,0,0,1,795.022-580.933Z" transform="translate(-669.181 634.234)"/>
      </g>
    </g>
  </g>
</svg>
