<svg xmlns="http://www.w3.org/2000/svg" xmlns:xlink="http://www.w3.org/1999/xlink" width="225" height="110" viewBox="0 0 225 110">
  <defs>
    <style>
      .cls-1 {
        clip-path: url(#clip-Kmall-90px_1);
      }

      .cls-2 {
        fill: #fb0028;
      }

      .cls-3 {
        fill: #FFFFFF;
      }
    </style>
    <clipPath id="clip-Kmall-90px_1">
      <rect width="225" height="110"/>
    </clipPath>
  </defs>
  <g id="Kmall-90px_1" class="cls-1">
    <g id="Group_1881" data-name="Group 1881" transform="translate(-5408 -5471)">
      <g id="Group_1865" data-name="Group 1865" transform="translate(5426 5480.742)">
        <g id="Group_1846" data-name="Group 1846" transform="translate(10.384 64.087)">
          <path id="Wheel_2_4_" class="cls-2" d="M81.868,432.09a13.085,13.085,0,1,1-13.086,13.086A13.087,13.087,0,0,1,81.868,432.09Z" transform="translate(-68.781 -432.09)"/>
          <path id="Wheel_1_4_" class="cls-2" d="M316.064,432.09a13.1,13.1,0,1,1-13.083,13.086A13.088,13.088,0,0,1,316.064,432.09Z" transform="translate(-266.769 -432.09)"/>
        </g>
        <path id="Cart_4_" class="cls-2" d="M104.453,85.647H88.238c-2.624-8.194-12.273-13.526-21.973-13.4-9.254.122-18.345,6-20.477,13.4h-16.8A3.682,3.682,0,0,0,25.2,89.228V149.2a3.678,3.678,0,0,0,3.783,3.58h75.469a3.68,3.68,0,0,0,3.787-3.58V89.228A3.683,3.683,0,0,0,104.453,85.647Zm-19,0H48.609c2.213-5.541,9.812-11.129,17.655-11.2C74.346,74.38,82.576,78.828,85.453,85.647Z" transform="translate(-25.201 -72.247)"/>
        <g id="XMLID_1_" transform="translate(-76 -33.899)">
          <path id="XMLID_2_" class="cls-3" d="M174.579,196.078v-7.185l9.415,13.038h18.6l-4.8-7.741-16.038-2.324,13.5-1.948-4.386-6.35-16.45-2.224,15.6-2.134c.873-1.3,2.348-3.446,2.348-3.446l2.148-3.041-12.354-1.718,15.033-2.123,5.4-7.686h-19.2l-8.811,13.008V161.2h-16.6s.075,13.394,0,28.036l-.075,12.7h16.679Z" transform="translate(-62.9 -100.417)"/>
        </g>
      </g>
      <g id="mall_2x" data-name="mall@2x" transform="translate(5515.879 5507.436)">
        <path id="Path_3087" data-name="Path 3087" class="cls-2" d="M1224-745.89v20.11h6.772l-.014-20.1-.021-20.089-3.365-.021L1224-766Z" transform="translate(-1144.45 766)"/>
        <path id="Path_3088" data-name="Path 3088" class="cls-2" d="M1404-745.89v20.11h6.7V-766H1404Z" transform="translate(-1312.137 766)"/>
        <path id="Path_3089" data-name="Path 3089" class="cls-2" d="M73.175-614.76a41.485,41.485,0,0,0-9.227,1.84,18.23,18.23,0,0,0-2.346.93l-.6.28v26.793h6.772l.014-11.539.021-11.539.575-.192a13.838,13.838,0,0,1,8.311-.4,4.8,4.8,0,0,1,2.592,2.2,7.352,7.352,0,0,1,.663,2.449c.041.451.068,4.227.068,9.877v9.152h6.779l-.027-10.554c-.014-9.679-.027-10.6-.137-11.231-.068-.376-.13-.746-.137-.821-.014-.109.116-.2.622-.458A10.315,10.315,0,0,1,92.889-609a5.994,5.994,0,0,1,3.673,1.416,4.125,4.125,0,0,1,1.218,1.881c.438,1.279.431,1.04.431,11.4v9.391h6.772v-10.315c-.007-8.4-.021-10.452-.1-11.095-.561-4.624-2.9-7.168-7.442-8.1a17.44,17.44,0,0,0-4.22-.349,19.581,19.581,0,0,0-2.839.123,24.7,24.7,0,0,0-6.368,1.779l-.561.239-.328-.239a10,10,0,0,0-1.156-.636,13.4,13.4,0,0,0-4.993-1.224C76.226-614.8,73.941-614.814,73.175-614.76Z" transform="translate(-61 625.136)"/>
        <path id="Path_3090" data-name="Path 3090" class="cls-2" d="M776.871-614.479a24.58,24.58,0,0,0-7.982,1.936l-.773.369v3.146c0,1.724.014,3.14.027,3.14s.328-.2.691-.445c3.529-2.394,9.556-3.222,12.791-1.751a4.475,4.475,0,0,1,2.647,3.071,9.793,9.793,0,0,1,.171,2.387c.021,1.026.021,1.867,0,1.867s-.363-.164-.773-.369a16.875,16.875,0,0,0-4.85-1.45,27.088,27.088,0,0,0-5.37-.007c-3.571.561-5.883,2.073-7.141,4.672a12.118,12.118,0,0,0-.239,8.543,5.944,5.944,0,0,0,1.129,1.881c1.676,2.038,4.282,3.188,8.167,3.591a37.468,37.468,0,0,0,8.564-.376c3.776-.657,6.081-2.1,6.888-4.309.383-1.06.376-.773.4-8.858.021-7.811,0-8.619-.273-9.884a8.765,8.765,0,0,0-6.211-6.45,16.956,16.956,0,0,0-2.77-.636A33.616,33.616,0,0,0,776.871-614.479Zm3.365,16.765a19.409,19.409,0,0,1,3.475.739l.718.226v6.012l-.171.328c-.458.91-1.566,1.252-4.48,1.409a9.918,9.918,0,0,1-4.9-.636,4.114,4.114,0,0,1-2.572-2.579,6.363,6.363,0,0,1,.007-2.592,3.317,3.317,0,0,1,.93-1.5,5.624,5.624,0,0,1,3.249-1.361c.342-.041.691-.089.787-.1A20.308,20.308,0,0,1,780.236-597.714Z" transform="translate(-717.225 624.904)"/>
      </g>
    </g>
  </g>
</svg>
