<?xml version="1.0" encoding="UTF-8"?>
<!DOCTYPE svg PUBLIC "-//W3C//DTD SVG 1.1//EN" "http://www.w3.org/Graphics/SVG/1.1/DTD/svg11.dtd">
<!-- Creator: CorelDRAW 2018 (64-Bit Evaluation Version) -->
<svg xmlns="http://www.w3.org/2000/svg" xml:space="preserve" width="39.1208mm" height="11.9062mm" version="1.1" style="shape-rendering:geometricPrecision; text-rendering:geometricPrecision; image-rendering:optimizeQuality; fill-rule:evenodd; clip-rule:evenodd"
viewBox="0 0 2313.1 703.98"
 xmlns:xlink="http://www.w3.org/1999/xlink">
 <defs>
  <style type="text/css">
   <![CDATA[
    .fil1 {fill:#3D4852}
    .fil0 {fill:white}
    .fil2 {fill:#3D4852;fill-rule:nonzero}
   ]]>
  </style>
 </defs>
 <g id="Layer_x0020_1">
  <metadata id="CorelCorpID_0Corel-Layer"/>
  <g id="_2685606147248">
   <rect class="fil0" x="0" y="-0" width="2313.09" height="703.98"/>
   <path class="fil1" d="M542.18 605.57c-19.72,4.74 -40.3,7.27 -61.46,7.27 -144.82,0 -262.22,-117.4 -262.22,-262.22 0,-131.97 97.5,-241.15 224.39,-259.48l-1.25 311.11c1.21,102.22 25,166.15 100.54,203.32z"/>
   <path class="fil1" d="M520.37 91.39c126.01,19.12 222.57,127.9 222.57,259.23 0,91.43 -46.8,171.92 -117.75,218.84 -73.46,-43.69 -108.88,-68.98 -104.82,-154.51l0 -323.56z"/>
   <path class="fil2" d="M865.92 294.79c-15.91,15.82 -23.91,36.88 -23.91,63.28 0,26.31 8.46,46.82 25.29,61.53 16.92,14.72 36.88,22.07 60.06,22.07 23.18,0 42.96,-7.72 59.23,-23.18 15.46,-15.36 23.18,-35.59 23.18,-60.71 0,-25.11 -8.09,-45.81 -24.28,-61.9 -16.28,-16.1 -36.33,-24.28 -59.97,-24.47 -23.73,-0.18 -43.6,7.63 -59.61,23.36zm-24.47 -72.72l0 46.05c8.46,-14.44 20.69,-25.57 36.88,-33.3 15.82,-8.55 33.48,-12.78 53.07,-12.78 35.97,0 66.41,12.51 91.24,37.62 24.93,24.84 37.34,57.21 37.34,97.04 0,39.83 -12.32,72.12 -37.07,96.95 -24.65,24.74 -55.19,37.16 -91.52,37.16 -19.59,0 -37.53,-3.86 -53.9,-11.59 -16.28,-7.72 -28.33,-18.58 -36.06,-32.37l0 121.47c-1.05,31.65 -9.64,40.64 -50.22,42.25l0 -334.19c-0.94,-37.63 20.6,-53.82 50.22,-54.3z"/>
   <path class="fil2" d="M1121.29 240.89c17.2,-12.6 37.99,-18.86 62.46,-18.86 24.37,0 44.61,6.26 60.52,18.76 16.01,12.51 25.11,30.36 27.23,53.53 -31.73,10.5 -43.2,-3.65 -61.17,-20.14 -7,-6.42 -17.02,-7.45 -26.95,-7.45 -9.84,0 -18.22,2.12 -25.02,6.35 -7.36,3.31 -11.96,9.11 -13.98,17.2 -1.93,8.09 -1.66,14.53 0.83,19.32 4.14,8.28 14.26,14.72 30.35,19.31l37.99 9.29c44.61,10.94 66.87,36.06 66.87,75.33 0,23.27 -9.66,42.03 -29.07,56.48 -19.59,13.89 -42.49,20.78 -68.71,20.78 -26.31,0 -49.12,-7.54 -68.52,-22.72 -19.41,-15.08 -29.25,-35.13 -29.62,-60.24 17.05,-0.18 39.66,-5.66 58,22.01 2.21,3.34 6.23,5.15 9.97,7.43 11.33,6.89 23.36,10.21 36.42,9.47 13.06,-0.73 23.18,-4.23 30.36,-10.48 7.17,-6.35 11.22,-13.98 12.14,-23 0.74,-9.01 -2.02,-16.18 -8.37,-21.61 -6.25,-5.43 -14.9,-9.38 -25.84,-11.87l-35.32 -8.19c-24.92,-6.71 -43.32,-16.56 -55.09,-29.71 -11.31,-13.62 -16.01,-30.63 -13.98,-51.14 1.93,-20.51 11.49,-37.07 28.51,-49.85z"/>
   <path class="fil2" d="M1303.92 490.83l0 -360.98c0.01,-32.4 28.97,-38.31 50.22,-38.37l0 368.27c-0.2,23.86 -15.53,32.09 -50.22,31.08z"/>
   <path class="fil2" d="M1647.49 355.65c0,11.41 -0.18,17.93 -0.56,19.77l-209.16 0c2.48,20.79 11.68,37.99 27.51,51.69 15.27,12.6 32.37,18.95 51.42,18.95 26.94,0 48.62,-6.35 63.25,-20.94 13.61,-13.56 36.81,-17.75 58.07,-2.34 -10.58,21.71 -26.58,38.44 -48.02,50.22 -21.34,11.87 -44.88,17.76 -70.55,17.76 -36.88,0 -68.34,-12.42 -94.56,-37.34 -24.92,-24.93 -37.34,-57.58 -37.34,-97.77 0,-40.29 12.42,-72.57 37.16,-96.95 24.83,-24.28 56.2,-36.52 94.28,-36.7 38.08,0 68.8,12.33 92.16,36.88 24.19,24.47 36.33,56.76 36.33,96.77zm-75.24 -70.46c-14.35,-12.33 -32.19,-18.49 -53.35,-18.49 -21.25,0 -39.46,6.16 -54.73,18.49 -15.08,13.15 -23.92,30.26 -26.4,51.04l159.77 0c-2.48,-20.78 -10.94,-37.89 -25.29,-51.04z"/>
   <path class="fil2" d="M1819.44 221.89c39.74,0 72.3,13.89 97.78,41.58 -13.73,33.21 -40.35,24.19 -60.18,15.98 -11.81,-4.89 -24.39,-8.43 -38.7,-8.43 -24.19,0 -44.79,7.82 -61.72,23.54 -17.02,15.45 -25.57,35.96 -25.57,61.63 0,25.57 8.64,46.36 25.84,62.36 17.29,16.09 37.89,24.1 61.99,24.1 13.13,0 25.18,-2.18 35.68,-7.43 17.47,-8.73 48.93,-20.45 63.2,14.05 -25.66,27.59 -58.13,41.39 -97.22,41.39 -39.18,0 -72.29,-12.42 -99.34,-37.25 -26.95,-25.21 -40.38,-57.58 -40.38,-97.22 0,-39.64 13.24,-71.93 39.64,-96.77 26.49,-24.83 59.42,-37.34 98.97,-37.53z"/>
   <path class="fil2" d="M2044.81 123.54l0 98.58 0 46.7 0 183.34c-0.11,28.75 -12.62,40.86 -52.46,39.19l0 -222.53 0 -46.7 0 -51.97c1.92,-34.35 15.91,-47.83 52.46,-46.62z"/>
   <path class="fil2" d="M2044.82 222.12l13.76 0c32.75,1.09 42.99,12.36 42.73,46.7l-56.5 0 -52.46 0c-40,0.7 -46.44,-17.44 -48.43,-46.7l48.43 0 52.46 0z"/>
  </g>
 </g>
</svg>
