<?xml version="1.0" encoding="UTF-8"?>
<!DOCTYPE svg PUBLIC "-//W3C//DTD SVG 1.1//EN" "http://www.w3.org/Graphics/SVG/1.1/DTD/svg11.dtd">
<!-- Creator: CorelDRAW 2018 (64-Bit Evaluation Version) -->
<svg xmlns="http://www.w3.org/2000/svg" xml:space="preserve" width="39.1208mm" height="240px" version="1.1" style="shape-rendering:geometricPrecision; text-rendering:geometricPrecision; image-rendering:optimizeQuality; fill-rule:evenodd; clip-rule:evenodd"
viewBox="0 0 2378.72 723.95"
 xmlns:xlink="http://www.w3.org/1999/xlink">
 <defs>
  <style type="text/css">
   <![CDATA[
    .fil1 {fill:#00AEEF}
    .fil0 {fill:none}
    .fil2 {fill:white}
    .fil4 {fill:#00AEEF;fill-rule:nonzero}
    .fil3 {fill:white;fill-rule:nonzero}
   ]]>
  </style>
 </defs>
 <g id="Layer_x0020_1">
  <metadata id="CorelCorpID_0Corel-Layer"/>
  <rect class="fil0" x="0" y="-0" width="2378.72" height="723.95"/>
  <path class="fil1" d="M557.57 622.75c-20.28,4.87 -41.44,7.47 -63.21,7.47 -148.93,0 -269.66,-120.73 -269.66,-269.66 0,-135.71 100.27,-247.99 230.76,-266.85l-1.29 319.94c1.25,105.12 25.71,170.86 103.39,209.09z"/>
  <path class="fil2" d="M535.13 93.99c129.58,19.66 228.88,131.53 228.88,266.59 0,94.02 -48.13,176.8 -121.09,225.05 -75.54,-44.93 -111.97,-70.94 -107.79,-158.89l0 -332.74z"/>
  <path class="fil3" d="M890.48 303.15c-16.36,16.27 -24.59,37.93 -24.59,65.08 0,27.05 8.7,48.15 26.01,63.28 17.4,15.13 37.93,22.7 61.77,22.7 23.84,0 44.17,-7.94 60.91,-23.84 15.89,-15.8 23.84,-36.6 23.84,-62.43 0,-25.82 -8.32,-47.11 -24.97,-63.66 -16.75,-16.56 -37.36,-24.97 -61.67,-25.16 -24.41,-0.19 -44.84,7.85 -61.3,24.02zm-25.16 -74.78l0 47.35c8.7,-14.85 21.28,-26.3 37.93,-34.25 16.27,-8.79 34.43,-13.15 54.58,-13.15 36.99,0 68.3,12.87 93.83,38.68 25.64,25.54 38.4,58.83 38.4,99.79 0,40.96 -12.67,74.16 -38.12,99.7 -25.35,25.44 -56.75,38.21 -94.12,38.21 -20.14,0 -38.59,-3.97 -55.43,-11.92 -16.74,-7.94 -29.13,-19.1 -37.08,-33.29l0 124.92c-1.08,32.55 -9.92,41.8 -51.65,43.45l0 -343.67c-0.97,-38.7 21.18,-55.34 51.65,-55.84z"/>
  <path class="fil3" d="M1153.1 247.72c17.69,-12.96 39.07,-19.39 64.23,-19.39 25.06,0 45.88,6.43 62.24,19.29 16.46,12.87 25.82,31.22 28,55.05 -32.63,10.79 -44.42,-3.75 -62.9,-20.72 -7.2,-6.6 -17.5,-7.66 -27.71,-7.66 -10.12,0 -18.73,2.18 -25.73,6.53 -7.56,3.41 -12.29,9.36 -14.37,17.69 -1.99,8.32 -1.7,14.95 0.85,19.86 4.26,8.51 14.66,15.13 31.21,19.86l39.07 9.56c45.88,11.25 68.77,37.08 68.77,77.47 0,23.93 -9.94,43.23 -29.89,58.08 -20.15,14.28 -43.7,21.37 -70.66,21.37 -27.05,0 -50.51,-7.75 -70.47,-23.36 -19.96,-15.51 -30.08,-36.13 -30.46,-61.95 17.53,-0.18 40.79,-5.83 59.64,22.63 2.27,3.44 6.41,5.3 10.26,7.64 11.66,7.08 24.02,10.49 37.46,9.74 13.43,-0.75 23.84,-4.35 31.22,-10.78 7.38,-6.53 11.54,-14.38 12.48,-23.65 0.76,-9.27 -2.08,-16.64 -8.61,-22.22 -6.43,-5.58 -15.32,-9.65 -26.58,-12.2l-36.32 -8.42c-25.63,-6.9 -44.55,-17.03 -56.66,-30.55 -11.63,-14 -16.46,-31.5 -14.37,-52.6 1.98,-21.09 11.82,-38.12 29.32,-51.26z"/>
  <path class="fil3" d="M1340.92 504.76l0 -371.22c0.01,-33.32 29.79,-39.4 51.64,-39.46l0 378.72c-0.2,24.53 -15.97,33 -51.64,31.96z"/>
  <path class="fil3" d="M1694.23 365.75c0,11.73 -0.19,18.44 -0.57,20.33l-215.1 0c2.55,21.38 12.01,39.07 28.29,53.16 15.7,12.96 33.29,19.49 52.88,19.49 27.71,0 50,-6.53 65.05,-21.53 14,-13.95 37.86,-18.25 59.72,-2.4 -10.88,22.32 -27.34,39.54 -49.38,51.64 -21.94,12.2 -46.16,18.26 -72.55,18.26 -37.93,0 -70.28,-12.77 -97.24,-38.4 -25.63,-25.64 -38.4,-59.21 -38.4,-100.55 0,-41.43 12.78,-74.63 38.22,-99.7 25.54,-24.97 57.79,-37.55 96.96,-37.74 39.16,0 70.75,12.68 94.78,37.93 24.88,25.16 37.36,58.37 37.36,99.51zm-77.37 -72.45c-14.76,-12.68 -33.11,-19.01 -54.86,-19.01 -21.85,0 -40.58,6.34 -56.28,19.01 -15.51,13.52 -24.6,31.12 -27.15,52.49l164.31 0c-2.55,-21.37 -11.25,-38.97 -26.01,-52.49z"/>
  <path class="fil3" d="M1871.07 228.19c40.87,0 74.35,14.28 100.55,42.76 -14.12,34.15 -41.49,24.88 -61.89,16.43 -12.14,-5.03 -25.08,-8.67 -39.8,-8.67 -24.88,0 -46.07,8.04 -63.47,24.21 -17.5,15.89 -26.29,36.98 -26.29,63.38 0,26.29 8.89,47.67 26.58,64.13 17.79,16.55 38.97,24.78 63.75,24.78 13.5,0 25.89,-2.24 36.69,-7.64 17.96,-8.97 50.32,-21.03 64.99,14.45 -26.39,28.38 -59.78,42.56 -99.98,42.56 -40.3,0 -74.35,-12.77 -102.16,-38.31 -27.71,-25.92 -41.52,-59.22 -41.52,-99.98 0,-40.77 13.62,-73.97 40.77,-99.51 27.24,-25.54 61.1,-38.4 101.77,-38.59z"/>
  <path class="fil3" d="M2102.83 127.05l0 101.38 0 48.02 0 188.54c-0.12,29.56 -12.98,42.02 -53.95,40.3l0 -228.84 0 -48.02 0 -53.44c1.98,-35.33 16.36,-49.18 53.95,-47.94z"/>
  <path class="fil4" d="M2102.83 228.42l14.16 0c33.68,1.12 44.21,12.71 43.94,48.02l-58.1 0 -53.95 0c-41.13,0.72 -47.76,-17.93 -49.81,-48.02l49.81 0 53.95 0z"/>
 </g>
</svg>
