<?xml version="1.0" encoding="UTF-8"?>
<!DOCTYPE svg PUBLIC "-//W3C//DTD SVG 1.1//EN" "http://www.w3.org/Graphics/SVG/1.1/DTD/svg11.dtd">
<!-- Creator: CorelDRAW 2018 (64-Bit Evaluation Version) -->
<svg xmlns="http://www.w3.org/2000/svg" xml:space="preserve" width="78.2412mm" height="23.8124mm" version="1.1" style="shape-rendering:geometricPrecision; text-rendering:geometricPrecision; image-rendering:optimizeQuality; fill-rule:evenodd; clip-rule:evenodd"
viewBox="0 0 2671.79 813.15"
 xmlns:xlink="http://www.w3.org/1999/xlink">
 <defs>
  <style type="text/css">
   <![CDATA[
    .fil1 {fill:#00AEEF}
    .fil0 {fill:#3D4852}
    .fil2 {fill:white}
    .fil4 {fill:#00AEEF;fill-rule:nonzero}
    .fil3 {fill:white;fill-rule:nonzero}
   ]]>
  </style>
 </defs>
 <g id="Layer_x0020_1">
  <metadata id="CorelCorpID_0Corel-Layer"/>
  <rect class="fil0" x="0" y="-0" width="2671.79" height="813.15"/>
  <path class="fil1" d="M626.26 699.49c-22.77,5.47 -46.54,8.39 -70.99,8.39 -167.27,0 -302.87,-135.6 -302.87,-302.87 0,-152.43 112.62,-278.55 259.19,-299.73l-1.44 359.36c1.4,118.07 28.88,191.91 116.12,234.85z"/>
  <path class="fil2" d="M601.06 105.57c145.54,22.08 257.08,147.72 257.08,299.43 0,105.61 -54.06,198.57 -136.01,252.77 -84.85,-50.47 -125.77,-79.68 -121.07,-178.47l0 -373.73z"/>
  <path class="fil3" d="M1000.2 340.5c-18.38,18.27 -27.62,42.6 -27.62,73.09 0,30.39 9.77,54.08 29.22,71.08 19.55,17 42.6,25.5 69.38,25.5 26.77,0 49.62,-8.93 68.42,-26.78 17.85,-17.74 26.77,-41.11 26.77,-70.12 0,-29.01 -9.35,-52.91 -28.05,-71.5 -18.81,-18.59 -41.96,-28.05 -69.27,-28.26 -27.41,-0.21 -50.36,8.82 -68.85,26.99zm-28.26 -83.99l0 53.18c9.77,-16.68 23.9,-29.53 42.6,-38.46 18.27,-9.88 38.67,-14.77 61.3,-14.77 41.54,0 76.71,14.45 105.39,43.45 28.79,28.68 43.14,66.08 43.14,112.09 0,46 -14.24,83.29 -42.82,111.98 -28.47,28.58 -63.74,42.92 -105.71,42.92 -22.63,0 -43.35,-4.46 -62.26,-13.39 -18.81,-8.93 -32.72,-21.46 -41.65,-37.4l0 140.31c-1.22,36.56 -11.14,46.95 -58.01,48.8l0 -386.01c-1.09,-43.47 23.79,-62.17 58.01,-62.72z"/>
  <path class="fil3" d="M1295.17 278.25c19.87,-14.56 43.88,-21.78 72.14,-21.78 28.15,0 51.53,7.22 69.91,21.67 18.48,14.45 29,35.06 31.45,61.83 -36.65,12.13 -49.89,-4.21 -70.65,-23.27 -8.08,-7.42 -19.66,-8.61 -31.13,-8.61 -11.37,0 -21.04,2.44 -28.9,7.33 -8.5,3.82 -13.81,10.52 -16.15,19.87 -2.23,9.35 -1.91,16.79 0.96,22.31 4.78,9.56 16.47,17 35.06,22.31l43.88 10.73c51.53,12.65 77.24,41.65 77.24,87.01 0,26.88 -11.16,48.56 -33.57,65.23 -22.63,16.04 -49.08,24.01 -79.36,24.01 -30.38,0 -56.73,-8.71 -79.15,-26.24 -22.41,-17.42 -33.79,-40.59 -34.21,-69.59 19.69,-0.2 45.82,-6.54 66.99,25.42 2.56,3.86 7.2,5.95 11.52,8.57 13.1,7.96 26.99,11.79 42.07,10.94 15.09,-0.85 26.77,-4.89 35.06,-12.11 8.29,-7.33 12.96,-16.15 14.02,-26.56 0.85,-10.41 -2.34,-18.7 -9.67,-24.97 -7.23,-6.27 -17.21,-10.84 -29.86,-13.71l-40.8 -9.46c-28.79,-7.76 -50.04,-19.12 -63.64,-34.32 -13.07,-15.73 -18.48,-35.38 -16.15,-59.07 2.23,-23.69 13.28,-42.81 32.94,-57.58z"/>
  <path class="fil3" d="M1506.12 566.95l0 -416.97c0.01,-37.42 33.46,-44.25 58.01,-44.31l0 425.38c-0.23,27.56 -17.95,37.06 -58.01,35.9z"/>
  <path class="fil3" d="M1902.96 410.81c0,13.17 -0.21,20.72 -0.64,22.84l-241.6 0c2.87,24.01 13.49,43.88 31.77,59.71 17.63,14.55 37.4,21.89 59.39,21.89 31.12,0 56.16,-7.33 73.06,-24.18 15.72,-15.67 42.52,-20.5 67.07,-2.7 -12.22,25.07 -30.7,44.41 -55.46,58.01 -24.65,13.7 -51.85,20.51 -81.49,20.51 -42.6,0 -78.94,-14.34 -109.22,-43.14 -28.79,-28.79 -43.14,-66.51 -43.14,-112.94 0,-46.53 14.35,-83.83 42.92,-111.98 28.68,-28.05 64.92,-42.18 108.9,-42.39 43.99,0 79.47,14.24 106.46,42.6 27.94,28.26 41.97,65.55 41.97,111.77zm-86.91 -81.38c-16.58,-14.24 -37.19,-21.36 -61.62,-21.36 -24.54,0 -45.58,7.12 -63.22,21.36 -17.42,15.19 -27.62,34.95 -30.49,58.96l184.55 0c-2.87,-24.01 -12.65,-43.77 -29.22,-58.96z"/>
  <path class="fil3" d="M2101.59 256.31c45.9,0 83.51,16.04 112.93,48.02 -15.85,38.35 -46.6,27.94 -69.51,18.46 -13.64,-5.65 -28.17,-9.75 -44.7,-9.75 -27.94,0 -51.74,9.03 -71.29,27.2 -19.66,17.85 -29.54,41.54 -29.54,71.18 0,29.54 9.99,53.55 29.86,72.04 19.97,18.59 43.77,27.83 71.61,27.83 15.17,0 29.08,-2.52 41.21,-8.58 20.18,-10.08 56.52,-23.62 73.01,16.23 -29.64,31.87 -67.15,47.81 -112.3,47.81 -45.26,0 -83.51,-14.34 -114.74,-43.03 -31.13,-29.11 -46.64,-66.51 -46.64,-112.3 0,-45.79 15.3,-83.08 45.79,-111.77 30.6,-28.69 68.63,-43.14 114.32,-43.35z"/>
  <path class="fil3" d="M2361.9 142.7l0 113.87 0 53.94 0 211.78c-0.13,33.21 -14.57,47.2 -60.6,45.27l0 -257.04 0 -53.94 0 -60.03c2.22,-39.67 18.37,-55.24 60.6,-53.84z"/>
  <path class="fil4" d="M2361.91 256.57l15.9 0c37.83,1.26 49.66,14.28 49.36,53.94l-65.26 0 -60.6 0c-46.2,0.81 -53.64,-20.14 -55.94,-53.94l55.94 0 60.6 0z"/>
 </g>
</svg>
