<?xml version="1.0" encoding="UTF-8"?>
<!DOCTYPE svg PUBLIC "-//W3C//DTD SVG 1.1//EN" "http://www.w3.org/Graphics/SVG/1.1/DTD/svg11.dtd">
<!-- Creator: CorelDRAW 2018 (64-Bit Evaluation Version) -->
<svg xmlns="http://www.w3.org/2000/svg" xml:space="preserve" width="42.9695mm" height="11.9062mm" version="1.1" style="shape-rendering:geometricPrecision; text-rendering:geometricPrecision; image-rendering:optimizeQuality; fill-rule:evenodd; clip-rule:evenodd"
viewBox="0 0 6071.37 1682.29"
 xmlns:xlink="http://www.w3.org/1999/xlink">
 <defs>
  <style type="text/css">
   <![CDATA[
    .fil0 {fill:#00AEEF}
    .fil1 {fill:#3D4852}
    .fil3 {fill:#00AEEF;fill-rule:nonzero}
    .fil2 {fill:#3D4852;fill-rule:nonzero}
   ]]>
  </style>
 </defs>
 <g id="Layer_x0020_1">
  <metadata id="CorelCorpID_0Corel-Layer"/>
  <path class="fil0" d="M1043.75 1658.87c-63.58,15.27 -129.93,23.41 -198.19,23.41 -466.98,0 -845.55,-378.56 -845.55,-845.54 0,-425.55 314.41,-777.62 723.59,-836.75l-4.04 1003.24c3.91,329.63 80.62,535.76 324.2,655.64z"/>
  <path class="fil1" d="M973.4 0.83c406.32,61.63 717.69,412.41 717.69,835.92 0,294.83 -150.92,554.37 -379.69,705.68 -236.88,-140.91 -351.12,-222.45 -338.01,-498.25l0 -1043.35z"/>
  <path class="fil2" d="M2087.68 656.7c-51.32,51.02 -77.12,118.94 -77.12,204.07 0,84.82 27.28,150.96 81.56,198.42 54.58,47.46 118.94,71.18 193.69,71.18 74.75,0 138.51,-24.91 191.02,-74.75 49.82,-49.52 74.73,-114.79 74.73,-195.75 0,-80.98 -26.1,-147.71 -78.29,-199.62 -52.51,-51.9 -117.16,-78.31 -193.39,-78.88 -76.53,-0.59 -140.59,24.61 -192.19,75.32zm-78.9 -234.48l0 148.47c27.28,-46.57 66.73,-82.46 118.93,-107.37 51.02,-27.58 107.96,-41.23 171.15,-41.23 115.96,0 214.15,40.34 294.22,121.32 80.38,80.07 120.43,184.47 120.43,312.91 0,128.42 -39.75,232.53 -119.54,312.62 -79.48,79.79 -177.96,119.83 -295.11,119.83 -63.19,0 -121.02,-12.46 -173.82,-37.37 -52.49,-24.92 -91.35,-59.92 -116.26,-104.4l0 391.7c-3.41,102.07 -31.11,131.07 -161.95,136.25l0 -1077.64c-3.02,-121.34 66.41,-173.55 161.95,-175.08z"/>
  <path class="fil2" d="M2911.16 482.89c55.46,-40.64 122.5,-60.8 201.39,-60.8 78.6,0 143.85,20.16 195.17,60.5 51.6,40.34 80.98,97.89 87.79,172.62 -102.33,33.85 -139.29,-11.77 -197.23,-64.95 -22.56,-20.7 -54.88,-24.02 -86.91,-24.02 -31.73,0 -58.72,6.82 -80.67,20.46 -23.74,10.68 -38.56,29.38 -45.09,55.47 -6.23,26.1 -5.34,46.85 2.67,62.28 13.34,26.69 45.96,47.46 97.88,62.28l122.5 29.95c143.85,35.3 215.63,116.27 215.63,242.93 0,75.03 -31.16,135.54 -93.74,182.1 -63.17,44.79 -137.03,67.04 -221.56,67.04 -84.82,0 -158.38,-24.33 -220.96,-73.26 -62.59,-48.65 -94.33,-113.3 -95.52,-194.28 54.98,-0.57 127.91,-18.26 187.03,70.97 7.14,10.78 20.09,16.62 32.16,23.94 36.57,22.23 75.34,32.92 117.46,30.56 42.12,-2.37 74.75,-13.65 97.88,-33.81 23.13,-20.47 36.19,-45.09 39.15,-74.15 2.37,-29.08 -6.53,-52.21 -26.99,-69.7 -20.18,-17.51 -48.05,-30.27 -83.35,-38.26l-113.9 -26.41c-80.38,-21.65 -139.7,-53.38 -177.66,-95.8 -36.48,-43.9 -51.6,-98.77 -45.09,-164.91 6.23,-66.14 37.08,-119.54 91.95,-160.77z"/>
  <path class="fil2" d="M3500.06 1288.86l0 -1164.04c0.04,-104.47 93.42,-123.52 161.95,-123.7l0 1187.51c-0.64,76.94 -50.1,103.48 -161.95,100.23z"/>
  <path class="fil2" d="M4607.94 852.97c0,36.78 -0.59,57.83 -1.78,63.77l-674.49 0c8.01,67.03 37.67,122.49 88.69,166.69 49.24,40.64 104.4,61.1 165.8,61.1 86.88,0 156.78,-20.46 203.97,-67.5 43.9,-43.74 118.72,-57.22 187.24,-7.53 -34.11,70 -85.71,123.97 -154.82,161.94 -68.81,38.26 -144.74,57.24 -227.5,57.24 -118.94,0 -220.38,-40.04 -304.9,-120.41 -80.38,-80.38 -120.43,-185.68 -120.43,-315.29 0,-129.92 40.04,-234.03 119.83,-312.63 80.07,-78.29 181.22,-117.74 304.01,-118.33 122.8,0 221.86,39.75 297.2,118.93 78.01,78.9 117.16,183.01 117.16,312.04zm-242.63 -227.2c-46.26,-39.75 -103.81,-59.61 -172.03,-59.61 -68.51,0 -127.24,19.87 -176.48,59.61 -48.65,42.42 -77.12,97.58 -85.13,164.61l515.2 0c-8.01,-67.03 -35.3,-122.19 -81.57,-164.61z"/>
  <path class="fil2" d="M5162.45 421.64c128.13,0 233.12,44.79 315.29,134.06 -44.27,107.07 -130.1,78.02 -194.05,51.53 -38.08,-15.77 -78.64,-27.2 -124.79,-27.2 -78.01,0 -144.45,25.21 -199.03,75.93 -54.86,49.82 -82.45,115.96 -82.45,198.72 0,82.46 27.88,149.49 83.34,201.09 55.77,51.91 122.21,77.71 199.92,77.71 42.35,0 81.17,-7.02 115.03,-23.95 56.35,-28.15 157.8,-65.94 203.82,45.31 -82.76,88.97 -187.46,133.47 -313.51,133.47 -126.36,0 -233.14,-40.04 -320.33,-120.13 -86.91,-81.26 -130.22,-185.66 -130.22,-313.51 0,-127.83 42.71,-231.94 127.84,-312.02 85.41,-80.09 191.6,-120.43 319.14,-121.02z"/>
  <path class="fil2" d="M5889.16 104.49l0 317.89 0 150.58 0 591.22c-0.34,92.7 -40.68,131.76 -169.17,126.37l0 -717.59 0 -150.58 0 -167.58c6.22,-110.76 51.3,-154.22 169.17,-150.31z"/>
  <path class="fil3" d="M5889.17 422.39l44.39 0c105.6,3.52 138.64,39.86 137.79,150.58l-182.19 0 -169.17 0c-128.96,2.26 -149.73,-56.22 -156.16,-150.58l156.16 0 169.17 0z"/>
 </g>
</svg>
