<?xml version="1.0" encoding="UTF-8"?>
<!DOCTYPE svg PUBLIC "-//W3C//DTD SVG 1.1//EN" "http://www.w3.org/Graphics/SVG/1.1/DTD/svg11.dtd">
<svg width="150" height="130" viewBox="0 0 15 13" fill="none" xmlns="http://www.w3.org/2000/svg">
    <path
        d="M4.16015 2.76035C4.44055 1.19792 5.82346 0 7.50003 0C9.17666 0 10.5595 1.19784 10.8399 2.76035C11.0822 2.70631 11.3312 2.6666 11.5909 2.6666C13.4699 2.6666 15 4.16278 15 5.99996C15 7.72318 13.6497 9.13206 11.9318 9.30198V12.6667C11.9318 12.8509 11.7793 13 11.5909 13H3.40909C3.22066 13 3.06818 12.8509 3.06818 12.6667V9.30198C1.35032 9.13214 0 7.7233 0 5.99996C0 4.16271 1.53017 2.6666 3.40909 2.6666C3.66876 2.6666 3.91778 2.70631 4.16015 2.76035Z"
        fill="#EE1C25"/>
</svg>
