<?xml version="1.0" encoding="UTF-8"?>
<!DOCTYPE svg PUBLIC "-//W3C//DTD SVG 1.1//EN" "http://www.w3.org/Graphics/SVG/1.1/DTD/svg11.dtd">
<!-- Creator: CorelDRAW X6 -->
<svg xmlns="http://www.w3.org/2000/svg" xml:space="preserve" width="23.8126mm" height="23.8126mm" version="1.1" style="shape-rendering:geometricPrecision; text-rendering:geometricPrecision; image-rendering:optimizeQuality; fill-rule:evenodd; clip-rule:evenodd"
viewBox="0 0 379 379"
 xmlns:xlink="http://www.w3.org/1999/xlink">
 <defs>
  <style type="text/css">
   <![CDATA[
    .fil0 {fill:none;fill-rule:nonzero}
    .fil1 {fill:#13ECAB}
    .fil3 {fill:#4C57FF}
    .fil2 {fill:#C834F7}
   ]]>
  </style>
 </defs>
 <g id="Layer_x0020_1">
  <metadata id="CorelCorpID_0Corel-Layer"/>
  <g id="_2093619168">
   <circle class="fil0" cx="189" cy="189" r="189"/>
   <path class="fil1" d="M119 367c-53,-20 -94,-63 -110,-116 -11,-34 12,-40 26,-40l133 0 0 121c2,36 -30,42 -49,35z"/>
   <path class="fil2" d="M261 366c52,-19 93,-62 110,-115 10,-34 -12,-41 -26,-41l-133 0 0 122c-2,36 30,41 49,34z"/>
   <path class="fil3" d="M168 168l-138 0c-18,-1 -27,-15 -25,-28 3,-21 15,-41 27,-58 8,-12 25,-23 45,-6l91 92 0 0 0 0 0 0z"/>
   <path class="fil3" d="M212 168l138 0c17,-1 26,-15 25,-28 -3,-22 -15,-41 -27,-59 -8,-11 -26,-23 -45,-5l-91 91 0 0 0 0 0 1z"/>
  </g>
 </g>
</svg>
