<?xml version="1.0" encoding="UTF-8"?>
<!DOCTYPE svg PUBLIC "-//W3C//DTD SVG 1.1//EN" "http://www.w3.org/Graphics/SVG/1.1/DTD/svg11.dtd">
<!-- Creator: CorelDRAW 2018 (64-Bit Evaluation Version) -->
<svg xmlns="http://www.w3.org/2000/svg" xml:space="preserve" width="11.9062mm" height="12.1059mm" version="1.1" style="shape-rendering:geometricPrecision; text-rendering:geometricPrecision; image-rendering:optimizeQuality; fill-rule:evenodd; clip-rule:evenodd"
viewBox="0 0 426.93 434.09"
 xmlns:xlink="http://www.w3.org/1999/xlink">
 <defs>
  <style type="text/css">
   <![CDATA[
    .str0 {stroke:#FBD13E;stroke-width:7.17;stroke-miterlimit:22.9256}
    .fil1 {fill:#FBD13E}
    .fil0 {fill:#3B9CFF;fill-opacity:0.980392}
   ]]>
  </style>
 </defs>
 <g id="Layer_x0020_1">
  <metadata id="CorelCorpID_0Corel-Layer"/>
  <path class="fil0" d="M213.46 3.58c117.89,0 213.46,95.57 213.46,213.46 0,117.89 -95.57,213.46 -213.46,213.46 -117.89,0 -213.46,-95.57 -213.46,-213.46 0,-117.89 95.57,-213.46 213.46,-213.46z"/>
  <g id="_2160277548816">
   <path class="fil1 str0" d="M93.8 151.38l181.54 138.18 -19.49 4.84c-52.38,13 -106.93,-1.06 -145.01,-39.68 -27.25,-27.65 -42.34,-64.44 -42.49,-103.25 -0.39,-97.12 92.33,-166.41 185.71,-143.47l19.4 4.76 -179.67 138.62z"/>
   <path class="fil1 str0" d="M333.13 282.77l-179.67 -138.62 19.4 -4.77c93.38,-22.93 186.1,46.36 185.71,143.47 -0.16,38.82 -15.25,75.61 -42.5,103.26 -38.07,38.62 -92.62,52.67 -145,39.67l-19.49 -4.84 181.54 -138.18z"/>
  </g>
 </g>
</svg>
