<?xml version="1.0" encoding="UTF-8"?>
<!DOCTYPE svg PUBLIC "-//W3C//DTD SVG 1.1//EN" "http://www.w3.org/Graphics/SVG/1.1/DTD/svg11.dtd">
<!-- Creator: CorelDRAW 2018 (64-Bit Evaluation Version) -->
<svg xmlns="http://www.w3.org/2000/svg" xml:space="preserve" width="270px" height="270px" version="1.1" style="shape-rendering:geometricPrecision; text-rendering:geometricPrecision; image-rendering:optimizeQuality; fill-rule:evenodd; clip-rule:evenodd"
     viewBox="0 0 969.72 969.72"
     xmlns:xlink="http://www.w3.org/1999/xlink">
 <defs>
  <style type="text/css">
   <![CDATA[
    .fil0 {fill:#3D4852;}
    .fil1 {fill:#3D4852;}
   ]]>
  </style>
 </defs>
    <g id="Layer_x0020_1">
  <metadata id="CorelCorpID_0Corel-Layer"/>
        <g id="_2920020816672">
            <path class="fil1" d="M224.77 488.56c-16.91,-0.34 -10.25,-4.85 -23.29,-4.11 -0.53,9.87 3.4,10.12 9.22,18.41l67.03 90.23c5.5,6.4 6.46,8.76 11.03,15.17 3.71,5.2 2.27,3.05 5.73,8.57 7.75,12.36 6.47,4.85 12.92,15.43l38.61 51.93c7.22,12.38 5.33,6.65 11.64,14.66 22.67,28.8 25.75,28.29 10.23,48.31 -4.33,5.6 -8.5,7.61 -12.48,13.43l-30.71 41.07c-0.32,0.38 -0.81,0.89 -1.13,1.25l-67.28 89.92c-1.51,1.87 -2.92,2.77 -5.51,6.51l-1.81 3.01c-0.28,0.45 -0.58,1.09 -0.86,1.52 -0.27,0.43 -0.59,1.07 -0.87,1.49 -0.27,0.41 -0.64,1.01 -0.92,1.4 -3.37,4.58 -7.17,6.96 -12.02,13.93 -8.7,12.51 -29.83,38.21 -30.51,45.12 34.11,2.89 64.54,-1.25 95.1,-11.57 0.59,-0.2 1.23,-0.39 1.81,-0.59l48.45 -25.65c22.3,-15.61 45.65,-37.55 60.97,-60.57 5.2,-7.81 17.66,-32.25 19.89,-39.41l15.48 -75.48c1.66,-24.3 -0.59,-61.3 -6.61,-83.93l-13.27 -46.67c-4.08,-13.86 -32.5,-45 -37.99,-54.76 -7.24,-12.85 -2.3,-6.04 -15.15,-13.76 -6.73,-4.04 -9.24,-9.36 -16.01,-15.02 -5.51,-4.61 -12.78,-8.82 -18.13,-12.62 -11.25,-8 -17.99,-8.09 -30.78,-14.89 -28.2,-15.01 -23.51,-10.59 -55.22,-18.72 -13.67,-3.5 -9.55,-3.25 -27.57,-3.62z"/>

  </g>
 </g>
</svg>
