<?xml version="1.0" encoding="UTF-8"?>
<!DOCTYPE svg PUBLIC "-//W3C//DTD SVG 1.1//EN" "http://www.w3.org/Graphics/SVG/1.1/DTD/svg11.dtd">
<!-- Creator: CorelDRAW 2018 (64-Bit Evaluation Version) -->
<svg xmlns="http://www.w3.org/2000/svg" xml:space="preserve" width="119.062mm" height="121.059mm" version="1.1" style="shape-rendering:geometricPrecision; text-rendering:geometricPrecision; image-rendering:optimizeQuality; fill-rule:evenodd; clip-rule:evenodd"
     viewBox="0 0 168.35 171.18"
     xmlns:xlink="http://www.w3.org/1999/xlink">
 <defs>
  <style type="text/css">
   <![CDATA[
    .str0 {stroke:none;stroke-width:2.83;stroke-miterlimit:22.9256}
    .fil0 {fill:none}
    .fil2 {fill:#FFFFFF; opacity:0.3}
    .fil1 {fill:#FFFFFF; opacity:0.15}
   ]]>
  </style>
 </defs>
    <g id="Layer_x0020_1">
  <metadata id="CorelCorpID_0Corel-Layer"/>
        <g id="_2161426273280">
   <circle class="fil0" cx="84.18" cy="85.59" r="84.18"/>
            <g>
    <path class="fil2 str0" d="M36.99 59.69l71.59 54.49 -7.68 1.91c-20.65,5.13 -42.17,-0.42 -57.18,-15.65 -10.75,-10.9 -16.7,-25.41 -16.76,-40.71 -0.15,-38.3 36.41,-65.62 73.23,-56.58l7.65 1.88 -70.85 54.66z"/>
                <path class="fil1 str0" d="M131.37 111.51l-70.85 -54.66 7.65 -1.88c36.82,-9.04 73.39,18.28 73.23,56.58 -0.06,15.31 -6.01,29.81 -16.76,40.72 -15.01,15.23 -36.53,20.77 -57.18,15.64l-7.69 -1.91 71.59 -54.49z"/>
   </g>
  </g>
 </g>
</svg>
