<svg width="1440" height="105" viewBox="0 0 1440 105" xmlns="http://www.w3.org/2000/svg">
    <path
        d="M-11.9006989 2344.999L61.1717677 2344.999 61.1717677 2363.02261 171.166741 2363.02261 171.166741 2323 243.144115 2323 243.144115 2335.04048 383.161825 2335.04048 383.161825 2369.23219 639.223666 2369.23219 639.223666 2323.46581 762.222968 2323.46581 762.222968 2337.14762 870.246145 2337.14762 870.246145 2375.83046 1028.25382 2375.83046 1028.25382 2354.97456 1140.55746 2354.97456 1140.55746 2388.0047 1221.33842 2388.0047 1221.33842 2331.99165 1303.34918 2331.99165 1303.34918 2352.9987 1360.31181 2352.9987 1360.31181 2379.67875 1444 2379.67875 1444 2428 -13 2428z"
        transform="translate(0 -2323)" fill="#3D4852" fill-rule="evenodd"/>
</svg>
