<?xml version="1.0" encoding="UTF-8"?>
<!DOCTYPE svg PUBLIC "-//W3C//DTD SVG 1.1//EN" "http://www.w3.org/Graphics/SVG/1.1/DTD/svg11.dtd">
<!-- Creator: CorelDRAW 2018 (64-Bit Evaluation Version) -->
<svg xmlns="http://www.w3.org/2000/svg" xml:space="preserve" width="65.2256mm" height="11.9062mm" version="1.1" style="shape-rendering:geometricPrecision; text-rendering:geometricPrecision; image-rendering:optimizeQuality; fill-rule:evenodd; clip-rule:evenodd"
viewBox="0 0 3251.38 593.5"
 xmlns:xlink="http://www.w3.org/1999/xlink">
 <defs>
  <style type="text/css">
   <![CDATA[
    .fil2 {fill:#FBD13E}
    .fil3 {fill:#00C2FF}
    .fil0 {fill:#00C2FF;fill-rule:nonzero}
    .fil1 {fill:#3B9CFF;fill-rule:nonzero}
   ]]>
  </style>
 </defs>
 <g id="Layer_x0020_1">
  <metadata id="CorelCorpID_0Corel-Layer"/>
  <g id="_1820550441856">
   <path class="fil0" d="M885.82 486.73c24.63,-23 36.94,-53.58 36.94,-91.88 0,-38.3 -12.72,-68.61 -38.02,-90.8 -25.44,-22.19 -55.21,-33.42 -89.31,-33.69 -34.24,0 -62.92,11.5 -86.2,34.5 -23.27,23.27 -34.91,53.31 -34.91,90.39 0,36.94 11.77,67.25 35.32,90.66 23.55,23.54 52.64,35.32 87.28,35.32 34.64,0 64.28,-11.5 88.9,-34.51zm111.63 98.65c-46.57,0.49 -73.69,-9.98 -73.88,-56.95l0 -1.24c-11.91,19.89 -29.9,35.86 -54,48.04 -24.08,12.18 -50.47,18.27 -79.29,18.27 -52.63,0 -98.1,-18.4 -136.4,-55.21 -36.67,-36.67 -55.07,-84.3 -55.07,-142.63 0,-58.45 18.27,-105.95 54.67,-142.35 36.53,-36.53 81.87,-54.94 136.13,-55.21 29.23,0 55.89,5.68 79.7,17.05 23.68,11.37 41.82,27.47 54.26,48.04l0 -263.19c39.95,-0.03 72.66,12.72 73.88,59.51l0 525.87z"/>
   <path class="fil0" d="M1355.67 486.73c24.63,-23 36.94,-53.58 36.94,-91.88 0,-38.3 -12.72,-68.61 -38.02,-90.8 -25.44,-22.19 -55.21,-33.42 -89.31,-33.69 -34.24,0 -62.92,11.5 -86.2,34.5 -23.27,23.27 -34.91,53.31 -34.91,90.39 0,36.94 11.77,67.25 35.32,90.66 23.55,23.54 52.64,35.32 87.28,35.32 34.64,0 64.27,-11.5 88.9,-34.51zm37.75 98.65l0 -58.19c-11.91,19.89 -29.9,35.86 -53.99,48.04 -24.09,12.18 -50.48,18.27 -79.29,18.27 -52.64,0 -98.11,-18.4 -136.4,-55.21 -36.67,-36.67 -55.07,-84.3 -55.07,-142.63 0,-58.45 18.27,-105.95 54.67,-142.35 36.54,-36.53 81.87,-54.94 136.13,-55.21 29.23,0 55.88,5.68 79.7,17.05 23.68,11.37 41.81,27.47 54.26,48.04l0 -203.53c-0.26,-47.67 28.61,-59.31 73.88,-59.66l0 528.46c-0.15,41.39 -24.34,57.05 -73.88,56.92z"/>
   <path class="fil1" d="M1683.09 124.04l0 82.18 79.57 0c-1.95,38.79 -13.48,63.54 -52.75,65.77l-26.81 0 0 313.39c-41.94,-0.1 -72.39,-15.09 -73.88,-56.93l0 -256.46 -68.2 0c-1.08,-38.02 16.51,-63.67 56.3,-65.77l11.9 0 0 -138.83c44,0.4 72.54,16.29 73.88,56.65z"/>
   <path class="fil1" d="M2422.84 487.14c24.36,-22.73 36.53,-53.32 36.53,-91.88 0,-38.57 -12.72,-69.01 -38.02,-91.2 -25.44,-22.19 -55.35,-33.42 -89.72,-33.69 -34.5,0 -63.33,11.5 -86.6,34.5 -23.27,22.73 -34.91,52.5 -34.91,89.58 0,36.94 11.91,67.39 35.73,91.07 23.81,23.82 53.18,35.73 88.09,35.73 34.91,0 64.55,-11.37 88.9,-34.1zm37.35 98.24l0 -58.19c-11.91,19.89 -29.9,35.86 -54,48.04 -24.08,12.18 -50.33,18.27 -79.02,18.27 -52.51,0 -98.11,-18.4 -136.67,-55.21 -37.21,-36.67 -55.88,-84.3 -55.88,-142.63 0,-58.45 18.4,-105.95 55.07,-142.35 36.81,-36.53 82.68,-54.94 137.62,-55.21 27.47,0 53.99,5.68 79.29,17.05 24.9,12.45 42.76,28.42 53.59,48.04l0 -3.28c0.89,-37.32 39.01,-52.71 73.88,-53.69l0 322.22c-2.04,42.83 -31.18,57.56 -73.88,56.94z"/>
   <path class="fil1" d="M3171.81 124.67l0 81.55 79.56 0c-0.7,36 -16.75,65.59 -55.71,65.77l-23.86 0 0 313.39c-47.6,0.4 -73.63,-19.67 -73.88,-57.45l0 -255.95 -68.2 0c0.04,-39.39 20.89,-63.82 63.25,-65.77l4.95 0 0 -138.83c39.49,0.34 73.3,19 73.88,57.28z"/>
   <path class="fil2" d="M1541.01 271.99c-0.17,-42.08 18.9,-64.9 59.88,-65.77l8.32 0 73.88 0 79.57 0c-1.57,43.6 -19.52,65.02 -52.75,65.77l-26.81 0 -73.88 0 -68.2 0z"/>
   <path class="fil2" d="M3029.64 271.93c-0.17,-42.08 18.9,-64.9 59.88,-65.76l8.32 0 73.88 0 79.57 0c-1.58,43.59 -19.52,65.02 -52.75,65.76l-26.81 0 -73.88 0 -68.2 0z"/>
   <g>
    <polygon class="fil2" points="233.51,342.82 -0,507.32 233.19,18.31 468.98,505.73 "/>
       <polygon class="fil3" points="306.86,393.58 24.25,592.67 306.48,0.83 591.84,590.75 "/>
   </g>
   <path class="fil1" d="M1917.39 583.76c-42.18,1.32 -74.39,-9.73 -75.43,-46.7l0 -340.37c49.74,-0.57 75.19,11.38 75.43,52.02l0 35.28c18.93,-63.68 54.7,-95.59 107.61,-95.59 30.53,0 52.91,4.97 67.28,14.78 -10.76,39.61 -31.87,61.53 -68.28,57.33 -0.17,-0.02 -0.34,0 -0.51,0 -34.12,0 -60.23,16.3 -78.6,48.9 -13.64,24.3 -25.3,54.91 -25.67,92.37l-1.82 181.98z"/>
   <path class="fil1" d="M2813.59 197.51c58.47,0 106.38,20.44 143.86,61.17 -24.85,32.89 -56.75,42.72 -98.88,19.06 -0.66,-0.37 -1.44,-0.53 -2.16,-0.78 -13.61,-4.79 -28.43,-7.18 -44.45,-7.18 -35.59,0 -65.91,11.5 -90.81,34.64 -25.03,22.74 -37.63,52.92 -37.63,90.68 0,37.62 12.73,68.21 38.03,91.76 25.44,23.69 55.76,35.46 91.22,35.46 15.49,0 29.81,-2.34 42.95,-7.02 0.53,-0.19 1.08,-0.35 1.59,-0.58 42.72,-19.17 74.98,-9.57 100.95,17.34 -37.75,40.6 -85.53,60.9 -143.05,60.9 -57.65,0 -106.38,-18.27 -146.17,-54.81 -39.65,-37.08 -59.41,-84.72 -59.41,-143.05 0,-58.33 19.49,-105.84 58.33,-142.38 38.98,-36.54 87.43,-54.95 145.63,-55.22z"/>
  </g>
 </g>
</svg>
