<svg id="Layer_1" data-name="Layer 1" xmlns="http://www.w3.org/2000/svg" viewBox="0 0 200 45">
    <defs>
        <style>.cls-1{fill:#3c3c3b;}.cls-2{fill:#e42032;}.cls-3{fill:#408fcd;}</style>
    </defs>
    <path class="cls-1"
          d="M58.33,11.25a11.17,11.17,0,0,0-4.91-1,13.56,13.56,0,0,0-4.5.81,16.89,16.89,0,0,0-2.7,1.2V.47H41.11V35.22h5.06l0-19A13.34,13.34,0,0,1,49,15.07,10.38,10.38,0,0,1,52,14.63a5.34,5.34,0,0,1,4.18,1.56,6.49,6.49,0,0,1,1.42,4.53v14.5h5.11V20.08a12.2,12.2,0,0,0-1.15-5.67A7.06,7.06,0,0,0,58.33,11.25Z"/>
    <path class="cls-1"
          d="M86.9,11.69a13.41,13.41,0,0,0-6.67-1.49q-5.64,0-8.63,3.09T68.6,23q0,6.24,2.9,9.59T80.33,36Q86,36,89,32.57t3-9.57a17.14,17.14,0,0,0-1.27-7A9,9,0,0,0,86.9,11.69Zm-.56,15.79a6.09,6.09,0,0,1-2.12,3,6.4,6.4,0,0,1-3.94,1.1q-3.6,0-5.11-2.29A11.44,11.44,0,0,1,73.66,23a14.27,14.27,0,0,1,.64-4.57,5.58,5.58,0,0,1,2.09-2.92,6.66,6.66,0,0,1,3.89-1,7,7,0,0,1,3.9.95,5.5,5.5,0,0,1,2.14,2.84A14.24,14.24,0,0,1,87,23,13.94,13.94,0,0,1,86.34,27.48Z"/>
    <path class="cls-2"
          d="M114.54,11.42a14.17,14.17,0,0,0-5.93-1.22,26.11,26.11,0,0,0-3.73.27,15.24,15.24,0,0,0-3.43.88A6.67,6.67,0,0,0,98.94,13,3.57,3.57,0,0,0,98,15.51V45h5.06V34.55a10.41,10.41,0,0,0,1.07.45,16.91,16.91,0,0,0,2.72.68,14.39,14.39,0,0,0,2.29.22,11.64,11.64,0,0,0,6.13-1.53A9.89,9.89,0,0,0,119.12,30a15.51,15.51,0,0,0,1.31-6.6,16.28,16.28,0,0,0-1.61-7.91A9.22,9.22,0,0,0,114.54,11.42Zm-.09,16.4a5.9,5.9,0,0,1-2.34,2.82,7.22,7.22,0,0,1-3.89,1,9.3,9.3,0,0,1-2.58-.37,12.34,12.34,0,0,1-2.58-1V16.63c0-.65.49-1.15,1.48-1.49a12.38,12.38,0,0,1,3.92-.51,6.58,6.58,0,0,1,4.18,1.15,5.81,5.81,0,0,1,2,3.14,16.06,16.06,0,0,1,.56,4.42A11.68,11.68,0,0,1,114.45,27.82Z"/>
    <path class="cls-3"
          d="M142.86,11.42a14.17,14.17,0,0,0-5.93-1.22,26.11,26.11,0,0,0-3.73.27,15.38,15.38,0,0,0-3.43.88,6.63,6.63,0,0,0-2.5,1.63,3.54,3.54,0,0,0-1,2.53V45h5.06V34.55a10.41,10.41,0,0,0,1.07.45,17,17,0,0,0,2.73.68,14.28,14.28,0,0,0,2.28.22,11.62,11.62,0,0,0,6.13-1.53A9.89,9.89,0,0,0,147.44,30a15.36,15.36,0,0,0,1.31-6.6,16.41,16.41,0,0,0-1.6-7.91A9.24,9.24,0,0,0,142.86,11.42Zm-.09,16.4a5.9,5.9,0,0,1-2.34,2.82,7.2,7.2,0,0,1-3.89,1,9.3,9.3,0,0,1-2.58-.37,12.34,12.34,0,0,1-2.58-1V16.63c0-.65.49-1.15,1.48-1.49a12.38,12.38,0,0,1,3.92-.51A6.64,6.64,0,0,1,141,15.78a5.92,5.92,0,0,1,2,3.14,16.45,16.45,0,0,1,.56,4.42A11.48,11.48,0,0,1,142.77,27.82Z"/>
    <rect class="cls-1" x="154.64" y="1.54" width="5.06" height="33.68"/>
    <path class="cls-1"
          d="M181.33,31.23a15.75,15.75,0,0,1-3.09.29,7.12,7.12,0,0,1-5.59-2.12,8.33,8.33,0,0,1-1.87-5.23h17.15a21.49,21.49,0,0,0-1.05-7.32A9.7,9.7,0,0,0,183.35,12,10.63,10.63,0,0,0,177,10.2q-5.35,0-8.35,3.29t-3,9.66a15.53,15.53,0,0,0,1.44,7,9.79,9.79,0,0,0,4.08,4.33A12.84,12.84,0,0,0,177.42,36a23.38,23.38,0,0,0,4.81-.46,21,21,0,0,0,3.85-1.2V29.57a22.09,22.09,0,0,1-2.09.9A17.7,17.7,0,0,1,181.33,31.23Zm-7.81-16a6.46,6.46,0,0,1,3.31-.8,5.4,5.4,0,0,1,4.43,1.73,8,8,0,0,1,1.47,4.26H170.91a11.28,11.28,0,0,1,.54-2.46A5,5,0,0,1,173.52,15.19Z"/>
    <path class="cls-1"
          d="M33.43,16.62l-4.8-4.35,7.81-7.81a.52.52,0,0,0,.14-.35.52.52,0,0,0-.14-.36,13,13,0,0,0-18-.2.1.1,0,0,0,0,0l-.15.14,0,0s0,0,0,0A10.93,10.93,0,0,0,19,19l4.88,4.47-7.68,7.68a.5.5,0,0,0,0,.71l.15.15a13,13,0,0,0,9,3.69,12.49,12.49,0,0,0,8.67-3.47l.06,0,.16-.16s0,0,0,0h0A11,11,0,0,0,33.43,16.62ZM18.76,5,32.61,17.53A9.78,9.78,0,0,1,33.7,30.8L19.81,18.1A9.71,9.71,0,0,1,18.76,5Z"/>
</svg>
