<?xml version="1.0" encoding="UTF-8"?>
<!DOCTYPE svg PUBLIC "-//W3C//DTD SVG 1.1//EN" "http://www.w3.org/Graphics/SVG/1.1/DTD/svg11.dtd">
<!-- Creator: CorelDRAW X6 -->
<svg xmlns="http://www.w3.org/2000/svg" xml:space="preserve" width="52.6928mm" height="11.9062mm" version="1.1" style="shape-rendering:geometricPrecision; text-rendering:geometricPrecision; image-rendering:optimizeQuality; fill-rule:evenodd; clip-rule:evenodd"
     viewBox="0 0 2930 662"
     xmlns:xlink="http://www.w3.org/1999/xlink">
 <defs>
  <style type="text/css">
   <![CDATA[
    .fil1 {fill:#13ECAB}
    .fil0 {fill:#4C57FF}
    .fil2 {fill:#C834F7}
    .fil3 {fill:#C834F7;fill-rule:nonzero}
    .fil4 {fill:#13ECAB;fill-rule:nonzero}
   ]]>
  </style>
 </defs>
    <g id="Layer_x0020_1">
  <metadata id="CorelCorpID_0Corel-Layer"/>
        <circle class="fil0" cx="331" cy="331" r="331"/>
        <rect class="fil1" transform="matrix(0.160158 -0.160157 0.156344 0.156344 165.535 331.071)" width="1034" height="1059"/>
        <rect class="fil1" transform="matrix(0.101611 -0.160157 0.0991917 0.156344 226.049 331.071)" width="1034" height="1059"/>
        <path class="fil1" d="M545 331l101 -101c11,32 16,66 16,101 0,35 -5,69 -16,101l-101 -101z"/>
        <path class="fil1" d="M16 230l101 101 -101 101c-10,-32 -16,-66 -16,-101 0,-35 6,-69 16,-101z"/>
        <path class="fil2" d="M331 117l-101 -101c32,-10 66,-16 101,-16 35,0 69,6 101,16l-101 101z"/>
        <path class="fil2" d="M230 646l101 -101 101 101c-32,11 -66,16 -101,16 -35,0 -69,-5 -101,-16z"/>
        <path class="fil3" d="M2352 419c20,-20 30,-46 30,-78 0,-32 -10,-57 -30,-77 -20,-19 -45,-29 -75,-29 -30,0 -55,10 -75,29 -20,20 -31,45 -31,77 0,32 10,58 30,78 20,20 46,30 76,30 30,0 55,-10 75,-30l0 0zm-75 89c-47,0 -86,-15 -119,-46 -32,-31 -49,-71 -49,-121 0,-50 16,-90 48,-121 32,-30 72,-46 119,-46 48,0 88,16 120,47 32,31 48,71 48,120 0,49 -16,89 -49,120 -32,31 -72,47 -118,47l0 0z"/>
        <path class="fil4" d="M986 419c20,-19 30,-45 30,-78 0,-32 -10,-58 -32,-77 -21,-19 -46,-28 -76,-29 -29,0 -53,10 -73,30 -19,19 -29,44 -29,75 0,32 10,57 30,77 20,21 45,31 74,31 30,0 55,-10 76,-29zm31 88l0 -54c-10,17 -25,30 -46,40 -20,11 -42,16 -66,16 -45,0 -83,-16 -116,-47 -31,-31 -47,-71 -47,-121 0,-49 15,-89 46,-120 32,-31 70,-46 117,-47 23,0 45,5 67,15 21,10 36,24 45,40 1,-37 25,-57 63,-56l0 274c-1,38 -24,58 -63,60z"/>
        <path class="fil4" d="M1122 510l0 -455c0,-38 27,-53 62,-55l-1 461c-1,32 -24,49 -61,49z"/>
        <path class="fil4" d="M1349 102l0 73 70 0c-1,36 -15,58 -57,58l-13 0 0 278c-38,3 -66,-5 -66,-49l0 -229 -61 0c-1,-40 11,-56 50,-59l11 0 0 -123c44,1 63,14 66,51l0 0z"/>
        <path class="fil4" d="M1349 175l70 0c-1,36 -15,58 -57,58l-13 0 -66 0 -61 0c-1,-40 11,-55 50,-58l11 0 66 0 0 0z"/>
        <path class="fil3" d="M2861 104l0 72 69 0c-1,36 -15,57 -56,57l-13 0 0 274c-37,3 -65,-5 -65,-48l0 -226 -60 0c-1,-39 11,-55 49,-57l11 0 0 -122c43,1 62,13 65,50l0 0z"/>
        <path class="fil3" d="M2861 176l69 0c-1,36 -15,57 -56,57l-13 0 -65 0 -60 0c-1,-39 11,-54 49,-57l11 0 65 0 0 0z"/>
        <path class="fil3" d="M1825 267c-20,19 -30,46 -30,79 0,33 11,58 32,77 21,18 46,28 75,28 29,0 54,-10 75,-29 19,-20 29,-45 29,-76 0,-32 -11,-58 -31,-78 -20,-20 -45,-30 -75,-30 -30,-1 -55,9 -75,29l0 0zm-93 -85c45,-1 63,15 63,51 10,-18 26,-32 46,-42 20,-10 42,-16 66,-16 45,0 84,16 115,47 31,31 47,72 47,122 0,50 -16,90 -47,121 -31,31 -69,47 -114,47 -25,0 -47,-5 -68,-14 -20,-10 -35,-24 -45,-41l0 205c-37,0 -61,-6 -63,-57l0 -423 0 0z"/>
        <path class="fil3" d="M1496 197c21,-15 47,-23 77,-23 31,0 56,8 76,23 20,16 31,38 33,67 -39,13 -53,-5 -76,-25 -8,-8 -21,-9 -33,-9 -12,0 -23,2 -31,7 -9,5 -15,12 -17,22 -3,10 -3,18 1,24 5,11 17,18 37,24l48 12c56,13 83,44 83,93 0,29 -12,53 -36,70 -24,18 -53,26 -85,26 -33,0 -62,-9 -86,-28 -24,-19 -36,-44 -37,-75 21,0 50,-7 72,28 3,4 8,6 13,9 14,8 29,13 45,12 16,-1 29,-6 38,-14 9,-7 14,-17 15,-28 1,-12 -3,-20 -11,-27 -7,-7 -18,-12 -32,-15l-43 -10c-31,-8 -54,-20 -69,-37 -14,-17 -20,-38 -17,-63 2,-26 14,-46 35,-62l0 0 0 -1z"/>
        <path class="fil3" d="M2548 388l0 121c-31,2 -64,-11 -66,-51l0 -283c43,1 65,8 66,48l0 28c16,-55 47,-83 92,-83 27,0 46,4 58,13 -9,23 -10,40 -58,42 -29,2 -53,21 -69,50 -16,28 -23,66 -23,115z"/>
        <polygon class="fil2" points="331,166 331,497 166,331 "/>
 </g>
</svg>
