<?xml version="1.0" encoding="UTF-8"?>
<!DOCTYPE svg PUBLIC "-//W3C//DTD SVG 1.1//EN" "http://www.w3.org/Graphics/SVG/1.1/DTD/svg11.dtd">
<!-- Creator: CorelDRAW 2018 (64-Bit Evaluation Version) -->
<svg xmlns="http://www.w3.org/2000/svg" xml:space="preserve" width="70.0363mm" height="240px" version="1.1" style="shape-rendering:geometricPrecision; text-rendering:geometricPrecision; image-rendering:optimizeQuality; fill-rule:evenodd; clip-rule:evenodd"
viewBox="0 0 715.78 121.68"
 xmlns:xlink="http://www.w3.org/1999/xlink">
 <defs>
  <style type="text/css">
   <![CDATA[
    .fil0 {fill:#e2f0cd}
    .fil1 {fill:#e2f0cd;fill-rule:nonzero}
   ]]>
  </style>
 </defs>
 <g id="Layer_x0020_1">
  <metadata id="CorelCorpID_0Corel-Layer"/>
  <g id="_2131656121968">
   <g>
    <path class="fil0" d="M55.58 4.82c-0.17,0.39 -2.02,1.88 -2.43,2.25 -0.35,0.31 -0.8,0.7 -1.22,1.09 -0.29,0.28 -0.89,0.9 -1.32,1.07 -1.69,1.45 -3.29,2.9 -4.87,4.31 -2.87,2.56 -6.43,5.57 -9.14,8.09 -0.23,0.21 -0.38,0.35 -0.61,0.54l-4.81 4.25c-0.17,0.35 -0.31,0.43 -0.63,0.7 -0.25,0.21 -0.38,0.32 -0.62,0.54 -0.38,0.35 -0.88,0.94 -1.41,1.1 -0.16,0.28 -5.19,4.63 -5.89,5.28 -0.58,0.53 -1.37,1.23 -1.99,1.76l-3.98 3.53c-1.25,1.14 -2.63,2.33 -3.88,3.45 -0.09,0.35 -0.22,0.31 -0.74,0.78 -0.28,0.26 -0.52,0.45 -0.76,0.67 -0.37,0.34 -1.03,1.07 -1.63,1.37 -0.9,0.69 -1.75,1.65 -2.63,2.28 -0.14,0.32 -0.14,0.28 -0.43,0.52 -0.28,0.23 -0.17,0.25 -0.59,0.38 -0.55,0.61 -1.65,1.5 -2.43,2.19 -1.86,1.64 -4.34,3.11 -3.31,5.65 0.57,1.4 1.97,1.12 3.76,1.12l55.2 0c1.77,0 3.5,0.25 4.3,-0.54 0.96,-0.93 0.94,-2.15 0.94,-3.6l0 -48.44c0,-1.06 0.17,-3.41 -0.19,-4.26 -0.45,-1.04 -2.32,-1.1 -3.67,-0.4 -0.47,0.25 -4.45,3.65 -5,4.29z"/>
    <path class="fil0" d="M4.98 73.29c0.13,0.3 1.52,1.41 1.78,1.64l3.71 3.23c2.34,2.04 5.05,4.52 7.36,6.42 1.73,1.43 3.76,3.41 5.5,4.8 0.69,0.55 1.21,1.12 1.85,1.63 1.52,1.21 4.06,3.52 5.44,4.76l2.76 2.43c1.47,1.14 3.11,2.73 4.6,3.98 1.2,1 2.5,2.22 3.65,3.19 1.49,1.26 5.19,4.63 6.47,5.59l4.57 4c1.76,1.47 6.06,5.42 7.32,6.36 0.86,0.64 2.03,0.33 2.83,-0.09 0.57,-0.3 1.6,-1.09 1.49,-1.79 0.4,-0.47 0.31,-0.85 0.31,-1.48l0 -48.71c0,-0.67 -0.01,-0.98 -0.13,-1.59 -0.11,-0.55 -0.39,-0.93 -0.41,-1.21 -0.21,-0.14 -0.1,-0.07 -0.28,-0.24 -0.92,-0.9 -0.95,-0.68 -3.05,-0.68l-58.27 -0c-1.47,0 -2.2,0.45 -2.23,1.92 -0.03,1.55 0.15,1.14 0.28,1.85 0.2,0.11 0.25,0.3 0.46,0.54 0.49,0.56 2.67,2.27 3.36,3 0.17,0.18 0.06,0.14 0.27,0.29 0.23,0.17 -0.07,0.06 0.38,0.16z"/>
    <path class="fil0" d="M80.16 2.12c-0.34,-0.09 -0.49,-0.14 -0.72,-0.43 -1.42,-0.87 -3.06,-2.38 -4.78,-1.33 -0.93,0.57 -0.86,1.14 -0.86,2.39l-0 52.68c-0,1.23 0.16,1.66 1.18,2.11 1.42,0.63 2.39,-0.18 3.62,-0.95 0.34,-0.21 0.64,-0.43 1.01,-0.64l4.49 -2.74c1.24,-0.87 1.72,-1.05 2.28,-1.42 0.11,-0.08 0.03,-0.02 0.17,-0.12l5.33 -3.41c0.31,-0.16 0.74,-0.45 1.01,-0.65l5.08 -3.19c1.89,-1.3 5.13,-3.14 7.23,-4.55l5.15 -3.23c1.26,-0.8 6.22,-3.83 7.21,-4.57 1.29,-0.96 4.94,-2.08 3.52,-4.09 -0.32,-0.45 -3.67,-2.44 -4.58,-3.01l-2.68 -1.62c-0.02,-0.01 -0.04,-0.03 -0.06,-0.04 -2.87,-2 -6.02,-3.81 -9.04,-5.75 -1.36,-0.87 -2.64,-1.61 -4.14,-2.58 -1.24,-0.8 -2.71,-1.75 -4.05,-2.56l-3.39 -2.16c-0.06,-0.05 -0.22,-0.16 -0.22,-0.16l-3.65 -2.21c-2.14,-1.55 -6.58,-4.09 -9.13,-5.77z"/>
    <path class="fil0" d="M73.77 66.76c0.16,0.67 0.03,50.34 0.03,52.84 0,0.82 0.15,1.22 0.72,1.62 1.79,1.25 3.58,-0.36 5.03,-1.24 3.71,-2.24 8.28,-4.89 11.81,-7.19 0.75,-0.49 2.05,-1.11 2.64,-1.56l12.21 -7.47c1.02,-0.59 1.89,-1.07 2.92,-1.76 1.17,-0.78 3.79,-2.19 4.87,-2.93 1.48,-1.01 4.17,-2.42 5.54,-3.43 0.54,-0.4 2.54,-1.03 2.06,-2.44 -0.2,-0.57 -0.66,-0.84 -1.14,-1.15l-7.4 -4.49c-0.2,-0.12 -1.26,-0.7 -1.37,-0.9l-28.07 -17.01c-1.6,-0.92 -3.12,-1.9 -4.7,-2.82 -0.7,-0.4 -1.66,-1.21 -2.56,-1.27 -1.55,-0.1 -1.89,0.27 -2.5,1.08l-0.1 0.12z"/>
    <path class="fil0" d="M50.61 9.24c0.43,-0.17 1.02,-0.79 1.32,-1.07 0.42,-0.4 0.87,-0.78 1.22,-1.09 0.42,-0.38 2.26,-1.86 2.43,-2.25 -0.27,0.11 -0.17,0.05 -0.43,0.24 -0.18,0.13 -0.16,0.1 -0.31,0.26 -0.66,0.71 -4.08,3.51 -4.23,3.92z"/>
    <path class="fil0" d="M9.63 45.61c0.6,-0.3 1.26,-1.04 1.63,-1.37 0.25,-0.23 0.48,-0.41 0.76,-0.67 0.52,-0.47 0.65,-0.43 0.74,-0.78 -0.47,0.22 -1.27,0.99 -1.63,1.34 -0.43,0.43 -1.31,0.95 -1.51,1.48z"/>
    <path class="fil0" d="M28.52 28.77c0.52,-0.16 1.03,-0.75 1.41,-1.1 0.23,-0.22 0.36,-0.33 0.62,-0.54 0.32,-0.27 0.46,-0.35 0.63,-0.7 -0.51,0.16 -0.27,0.14 -0.76,0.58 -0.23,0.21 -0.4,0.34 -0.63,0.53 -0.26,0.22 -0.46,0.44 -0.65,0.6 -0.36,0.31 -0.43,0.27 -0.62,0.62z"/>
    <path class="fil0" d="M5.98 48.79c0.41,-0.13 0.31,-0.15 0.59,-0.38 0.29,-0.24 0.29,-0.19 0.43,-0.52 -0.28,0.13 -0.06,0 -0.25,0.13l-0.76 0.77z"/>
    <path class="fil0" d="M80.16 2.12c-0.22,-0.3 -0.39,-0.35 -0.72,-0.43 0.23,0.3 0.38,0.34 0.72,0.43z"/>
   </g>
   <g>
    <path class="fil0" d="M466.23 1.68c-0.03,0.06 -0.31,0.29 -0.38,0.35 -0.05,0.05 -0.12,0.11 -0.19,0.17 -0.04,0.04 -0.14,0.14 -0.2,0.17 -0.26,0.22 -0.51,0.45 -0.76,0.67 -0.45,0.4 -1,0.87 -1.42,1.26 -0.04,0.03 -0.06,0.05 -0.1,0.08l-0.75 0.66c-0.03,0.05 -0.05,0.07 -0.1,0.11 -0.04,0.03 -0.06,0.05 -0.1,0.08 -0.06,0.05 -0.14,0.15 -0.22,0.17 -0.03,0.04 -0.81,0.72 -0.92,0.82 -0.09,0.08 -0.21,0.19 -0.31,0.27l-0.62 0.55c-0.19,0.18 -0.41,0.36 -0.6,0.54 -0.02,0.06 -0.03,0.05 -0.12,0.12 -0.04,0.04 -0.08,0.07 -0.12,0.11 -0.06,0.05 -0.16,0.17 -0.25,0.21 -0.14,0.11 -0.27,0.26 -0.41,0.35 -0.02,0.05 -0.02,0.04 -0.07,0.08 -0.04,0.04 -0.03,0.04 -0.09,0.06 -0.09,0.1 -0.26,0.23 -0.38,0.34 -0.29,0.26 -0.68,0.48 -0.52,0.88 0.09,0.22 0.31,0.17 0.58,0.17l8.59 0c0.28,0 0.54,0.04 0.67,-0.08 0.15,-0.14 0.15,-0.34 0.15,-0.56l0 -7.54c0,-0.17 0.03,-0.53 -0.03,-0.66 -0.07,-0.16 -0.36,-0.17 -0.57,-0.06 -0.07,0.04 -0.69,0.57 -0.78,0.67z"/>
    <path class="fil0" d="M458.36 12.33c0.02,0.05 0.24,0.22 0.28,0.26l0.58 0.5c0.36,0.32 0.79,0.7 1.14,1 0.27,0.22 0.59,0.53 0.86,0.75 0.11,0.09 0.19,0.17 0.29,0.25 0.24,0.19 0.63,0.55 0.85,0.74l0.43 0.38c0.23,0.18 0.48,0.43 0.72,0.62 0.19,0.16 0.39,0.34 0.57,0.5 0.23,0.2 0.81,0.72 1.01,0.87l0.71 0.62c0.27,0.23 0.94,0.84 1.14,0.99 0.13,0.1 0.32,0.05 0.44,-0.01 0.09,-0.05 0.25,-0.17 0.23,-0.28 0.06,-0.07 0.05,-0.13 0.05,-0.23l0 -7.58c0,-0.1 -0,-0.15 -0.02,-0.25 -0.02,-0.08 -0.06,-0.15 -0.06,-0.19 -0.03,-0.02 -0.02,-0.01 -0.04,-0.04 -0.14,-0.14 -0.15,-0.11 -0.47,-0.11l-9.06 -0c-0.23,0 -0.34,0.07 -0.35,0.3 -0,0.24 0.02,0.18 0.04,0.29 0.03,0.02 0.04,0.05 0.07,0.08 0.08,0.09 0.41,0.35 0.52,0.47 0.03,0.03 0.01,0.02 0.04,0.05 0.04,0.03 -0.01,0.01 0.06,0.02z"/>
    <path class="fil0" d="M470.05 1.26c-0.05,-0.01 -0.08,-0.02 -0.11,-0.07 -0.22,-0.13 -0.48,-0.37 -0.74,-0.21 -0.15,0.09 -0.13,0.18 -0.13,0.37l0 8.19c0,0.19 0.02,0.26 0.18,0.33 0.22,0.1 0.37,-0.03 0.56,-0.15 0.05,-0.03 0.1,-0.07 0.16,-0.1l0.7 -0.43c0.19,-0.14 0.27,-0.16 0.35,-0.22 0.02,-0.01 0.01,-0 0.03,-0.02l0.83 -0.53c0.05,-0.02 0.11,-0.07 0.16,-0.1l0.79 -0.5c0.3,-0.2 0.8,-0.49 1.13,-0.71l0.8 -0.5c0.2,-0.12 0.97,-0.6 1.12,-0.71 0.2,-0.15 0.77,-0.32 0.55,-0.64 -0.05,-0.07 -0.57,-0.38 -0.71,-0.47l-0.42 -0.25c-0,-0 -0.01,-0 -0.01,-0.01 -0.45,-0.31 -0.94,-0.59 -1.41,-0.89 -0.21,-0.14 -0.41,-0.25 -0.64,-0.4 -0.19,-0.13 -0.42,-0.27 -0.63,-0.4l-0.53 -0.34c-0.01,-0.01 -0.03,-0.02 -0.03,-0.02l-0.57 -0.34c-0.33,-0.24 -1.02,-0.64 -1.42,-0.9z"/>
    <path class="fil0" d="M469.06 11.31c0.02,0.1 0,7.83 0.01,8.22 0,0.13 0.02,0.19 0.11,0.25 0.28,0.19 0.56,-0.06 0.78,-0.19 0.58,-0.35 1.29,-0.76 1.84,-1.12 0.12,-0.08 0.32,-0.17 0.41,-0.24l1.9 -1.16c0.16,-0.09 0.29,-0.17 0.45,-0.27 0.18,-0.12 0.59,-0.34 0.76,-0.45 0.23,-0.16 0.65,-0.38 0.86,-0.53 0.08,-0.06 0.4,-0.16 0.32,-0.38 -0.03,-0.09 -0.1,-0.13 -0.18,-0.18l-1.15 -0.7c-0.03,-0.02 -0.2,-0.11 -0.21,-0.14l-4.37 -2.64c-0.25,-0.14 -0.48,-0.3 -0.73,-0.44 -0.11,-0.06 -0.26,-0.19 -0.4,-0.2 -0.24,-0.02 -0.29,0.04 -0.39,0.17l-0.02 0.02z"/>
    <path class="fil0" d="M465.45 2.36c0.07,-0.03 0.16,-0.12 0.2,-0.17 0.07,-0.06 0.14,-0.12 0.19,-0.17 0.06,-0.06 0.35,-0.29 0.38,-0.35 -0.04,0.02 -0.03,0.01 -0.07,0.04 -0.03,0.02 -0.02,0.02 -0.05,0.04 -0.1,0.11 -0.63,0.55 -0.66,0.61z"/>
    <path class="fil0" d="M459.08 8.02c0.09,-0.05 0.2,-0.16 0.25,-0.21 0.04,-0.04 0.07,-0.06 0.12,-0.11 0.08,-0.07 0.1,-0.07 0.12,-0.12 -0.07,0.03 -0.2,0.15 -0.25,0.21 -0.07,0.07 -0.2,0.15 -0.24,0.23z"/>
    <path class="fil0" d="M462.02 5.4c0.08,-0.02 0.16,-0.12 0.22,-0.17 0.04,-0.03 0.06,-0.05 0.1,-0.08 0.05,-0.04 0.07,-0.05 0.1,-0.11 -0.08,0.03 -0.04,0.02 -0.12,0.09 -0.04,0.03 -0.06,0.05 -0.1,0.08 -0.04,0.03 -0.07,0.07 -0.1,0.09 -0.06,0.05 -0.07,0.04 -0.1,0.1z"/>
    <path class="fil0" d="M458.51 8.52c0.06,-0.02 0.05,-0.02 0.09,-0.06 0.04,-0.04 0.05,-0.03 0.07,-0.08 -0.04,0.02 -0.01,0 -0.04,0.02l-0.12 0.12z"/>
    <path class="fil0" d="M470.05 1.26c-0.03,-0.05 -0.06,-0.05 -0.11,-0.07 0.04,0.05 0.06,0.05 0.11,0.07z"/>
   </g>
   <path class="fil1" d="M154.83 76.52c3.65,3.57 8.2,5.36 13.66,5.36 5.44,0 10.14,-1.79 14.09,-5.36 3.93,-3.57 5.91,-8.37 5.91,-14.43 0,-6.06 -1.91,-10.86 -5.74,-14.39 -3.83,-3.49 -8.48,-5.23 -13.96,-5.23 -5.48,0 -10.09,1.87 -13.83,5.61 -3.74,3.76 -5.61,8.56 -5.61,14.37 0,5.82 1.83,10.5 5.48,14.07zm12.73 34.04c14.11,0 21.19,-8.97 21.19,-26.88 0,-0.17 -0.04,-0.38 -0.13,-0.62l0 -0.81c-1.7,3.4 -4.51,6.08 -8.42,8.03 -3.91,1.96 -8.05,2.93 -12.47,2.93 -8.54,0 -15.72,-2.85 -21.53,-8.52 -5.8,-5.69 -8.71,-13.18 -8.71,-22.42 0,-9.26 2.98,-16.77 8.9,-22.48 5.93,-5.74 13.07,-8.63 21.36,-8.67 4.53,0 8.69,0.98 12.45,2.93 3.74,1.7 6.54,4.25 8.42,7.67 -0.25,-7.69 4.69,-9.21 11.6,-9.33l0 50.51c0,25.86 -10.88,38.78 -32.66,38.74 -5.7,0.04 -10.9,-1.36 -15.64,-4.19 -4.72,-2.85 -8.48,-6.84 -11.26,-11.96 5.8,-2.51 10.53,-2.51 13.9,0.15 0.09,0.07 0.18,0.15 0.27,0.23 0.84,0.69 1.75,1.32 2.74,1.89 3.21,1.85 6.52,2.78 9.99,2.78z"/>
   <path class="fil1" d="M499.4 76.52c3.66,3.57 8.2,5.36 13.66,5.36 5.44,0 10.14,-1.79 14.09,-5.36 3.93,-3.57 5.91,-8.37 5.91,-14.43 0,-6.06 -1.91,-10.86 -5.74,-14.39 -3.83,-3.49 -8.48,-5.23 -13.96,-5.23 -5.48,0 -10.09,1.87 -13.83,5.61 -3.74,3.76 -5.61,8.56 -5.61,14.37 0,5.82 1.83,10.5 5.48,14.07zm12.73 34.04c14.11,0 21.19,-8.97 21.19,-26.88 0,-0.17 -0.04,-0.38 -0.13,-0.62l0 -0.81c-1.7,3.4 -4.51,6.08 -8.42,8.03 -3.91,1.96 -8.05,2.93 -12.47,2.93 -8.54,0 -15.73,-2.85 -21.53,-8.52 -5.8,-5.69 -8.71,-13.18 -8.71,-22.42 0,-9.26 2.98,-16.77 8.9,-22.48 5.93,-5.74 13.07,-8.63 21.36,-8.67 4.53,0 8.69,0.98 12.45,2.93 3.74,1.7 6.54,4.25 8.42,7.67 -0.25,-7.69 4.69,-9.21 11.6,-9.33l0 50.51c0,25.86 -10.88,38.78 -32.66,38.74 -5.7,0.04 -10.9,-1.36 -15.64,-4.19 -4.72,-2.85 -8.48,-6.84 -11.26,-11.96 5.8,-2.51 10.53,-2.51 13.9,0.15 0.09,0.07 0.18,0.15 0.27,0.23 0.84,0.69 1.75,1.32 2.74,1.89 3.21,1.85 6.52,2.78 9.99,2.78z"/>
   <path class="fil1" d="M220.93 70.3l0 21.66c-6.19,0.24 -11.6,-0.44 -11.6,-9.13l0 -50.41c6.96,-0.13 11.49,1.64 11.6,8.46l0 4.98c2.91,-9.8 8.42,-14.71 16.55,-14.71 4.7,0 8.14,0.76 10.35,2.27 -0.71,5.32 -3.59,8.7 -10.23,8.73 -0.11,0 -0.23,0 -0.34,0.01 -4.85,0.16 -9.32,2.65 -12.11,7.61 -2.83,5.03 -4.23,11.88 -4.23,20.55z"/>
   <path class="fil1" d="M296.51 76.52c3.83,-3.57 5.74,-8.37 5.74,-14.43 0,-6.06 -2,-10.84 -5.97,-14.32 -4,-3.49 -8.69,-5.25 -14.09,-5.29 -5.42,0 -9.95,1.81 -13.6,5.42 -3.65,3.57 -5.48,8.24 -5.48,14.07 0,5.8 1.87,10.58 5.61,14.3 3.74,3.74 8.35,5.61 13.83,5.61 5.48,0 10.14,-1.79 13.96,-5.36zm5.87 15.43l0 -9.14c-1.87,3.12 -4.7,5.63 -8.48,7.54 -3.78,1.91 -7.91,2.87 -12.41,2.87 -8.25,0 -15.41,-2.89 -21.46,-8.67 -5.84,-5.76 -8.78,-13.24 -8.78,-22.4 0,-9.18 2.89,-16.64 8.65,-22.36 5.78,-5.74 12.98,-8.63 21.61,-8.67 4.31,0 8.48,0.89 12.45,2.68 3.91,1.96 6.71,4.46 8.42,7.54 -0.43,-7.3 3.63,-8.66 11.6,-8.95l0 50.37c0.14,6.71 -5.27,9.41 -11.6,9.18z"/>
   <path class="fil1" d="M341.13 47.94c-3.68,3.66 -5.53,8.52 -5.53,14.62 0,6.08 1.96,10.82 5.84,14.22 3.91,3.4 8.52,5.1 13.88,5.1 5.35,0 9.92,-1.79 13.68,-5.36 3.57,-3.55 5.36,-8.22 5.36,-14.03 0,-5.8 -1.87,-10.58 -5.61,-14.3 -3.76,-3.72 -8.39,-5.61 -13.86,-5.65 -5.48,-0.04 -10.07,1.76 -13.77,5.4zm-5.65 -15.53l0 9.37c1.96,-3.34 4.78,-5.91 8.52,-7.69 3.65,-1.98 7.74,-2.95 12.26,-2.95 8.31,0 15.34,2.89 21.08,8.69 5.76,5.74 8.63,13.22 8.63,22.42 0,9.2 -2.85,16.66 -8.56,22.4 -5.69,5.72 -12.75,8.58 -21.14,8.58 -4.53,0 -8.67,-0.89 -12.45,-2.68 -3.76,-1.78 -6.55,-4.29 -8.33,-7.48l0 30.33c0.27,5.83 -4.85,7.51 -11.6,7.49l0 -79.11c0.38,-7.74 5.11,-9.77 11.6,-9.38z"/>
   <path class="fil1" d="M407.13 59.84l0 32.11c-7.17,0.24 -11.9,-2.47 -11.6,-10.54l0 -81.39c7.14,0.23 11.87,2.26 11.6,9.78l0 31.55c1.61,-3.31 4.38,-5.87 8.29,-7.61 3.89,-1.74 7.67,-2.61 11.33,-2.61 7.52,0 13.45,2.34 17.77,7.03 4.31,4.7 6.44,11.14 6.35,19.36l0 25.11c-0.2,5.49 -4.26,9.55 -11.6,9.32l0 -33.66c0,-4.95 -1.32,-8.76 -3.93,-11.45 -2.53,-2.91 -6.03,-4.36 -10.52,-4.36 -4.48,0 -8.54,1.42 -12.2,4.29 -3.65,2.87 -5.48,7.22 -5.48,13.07z"/>
   <path class="fil1" d="M461.24 91.95l0 -49.79c0.24,-7.44 5.65,-10.14 11.6,-9.76l0 50.02c0.13,6.38 -3.93,9.76 -11.6,9.53z"/>
   <path class="fil1" d="M613.77 62.01c0,2.63 -0.04,4.14 -0.13,4.57l-48.32 0c0.57,4.8 2.7,8.78 6.35,11.94 3.53,2.91 7.48,4.38 11.88,4.38 5.44,0 9.84,-1.23 13.21,-3.69 0.12,-0.08 0.24,-0.17 0.35,-0.26 4.94,-3.92 9.74,-3.58 14.47,-1.43 -2.44,5.01 -6.14,8.88 -11.09,11.6 -4.93,2.74 -10.37,4.1 -16.3,4.1 -8.52,0 -15.79,-2.87 -21.85,-8.63 -5.76,-5.76 -8.63,-13.3 -8.63,-22.59 0,-9.31 2.87,-16.77 8.58,-22.4 5.74,-5.61 12.98,-8.44 21.78,-8.48 8.8,0 15.9,2.85 21.29,8.52 5.59,5.65 8.39,13.11 8.39,22.36zm-17.38 -16.28c-3.32,-2.85 -7.44,-4.27 -12.33,-4.27 -4.91,0 -9.12,1.42 -12.64,4.27 -3.49,3.04 -5.52,6.99 -6.1,11.79l36.91 0c-0.57,-4.8 -2.53,-8.76 -5.84,-11.79z"/>
   <path class="fil1" d="M675.25 59.94l0 31.61c-6.98,0.3 -11.28,-1.3 -11.45,-9.69l0 -23.58c0,-4.87 -1.17,-8.62 -3.5,-11.28 -2.24,-2.77 -5.54,-4.15 -9.84,-4.15 -4.26,0 -7.95,1.45 -11.05,4.34 -3.13,2.89 -4.68,7.15 -4.68,12.75l0 21.98c-0.08,7.18 -4.64,9.41 -11.45,9.63l0 -48.56c0.05,-7.05 4.61,-10.05 11.45,-10.21l0 8.93c1.36,-2.81 3.59,-5.12 6.71,-6.9 3.27,-1.78 6.25,-2.75 8.91,-2.92 11.31,-0.69 18.79,3.27 22.44,11.87 4.09,-8.16 10.84,-12.25 20.3,-12.25 7.36,0 12.96,2.27 16.78,6.82 3.92,4.47 5.89,10.89 5.89,19.23l0 33.98c-6.8,-0.07 -11.36,-2.47 -11.45,-9.51l0 -23.63c0,-4.78 -1.2,-8.58 -3.57,-11.41 -2.56,-2.77 -6.02,-4.17 -10.36,-4.22 -4.32,-0.04 -7.93,1.51 -10.78,4.66 -2.87,3.15 -4.32,7.3 -4.36,12.5z"/>
  </g>
 </g>
</svg>
