<svg xmlns="http://www.w3.org/2000/svg" xmlns:xlink="http://www.w3.org/1999/xlink" width="95" height="47" viewBox="0 0 95 47">
  <defs>
    <style>
      .cls-1 {
        clip-path: url(#clip-KKART-43px_LOGO_New_4);
      }

      .cls-2 {
        fill: #f50a2b;
      }

      .cls-3 {
        fill: #f50a2b;
      }

      .cls-4 {
        fill: #f6ab1b;
      }

      .cls-5 {
        fill: #FFFFFF;
      }
    </style>
    <clipPath id="clip-KKART-43px_LOGO_New_4">
      <rect width="95" height="47"/>
    </clipPath>
  </defs>
  <g id="KKART-43px_LOGO_New_4" data-name="KKART-43px_LOGO_New - 4" class="cls-1">
    <g id="Group_1777" data-name="Group 1777" transform="translate(-375 -2740)">
      <g id="Group_1774" data-name="Group 1774" transform="translate(380.577 2770.622)">
        <path id="Wheel_2_4_" class="cls-2" d="M74.549,432.09a5.767,5.767,0,1,1-5.768,5.767A5.768,5.768,0,0,1,74.549,432.09Z" transform="translate(-68.781 -432.09)"/>
        <path id="Wheel_1_4_" class="cls-2" d="M308.747,432.09a5.773,5.773,0,1,1-5.766,5.767A5.768,5.768,0,0,1,308.747,432.09Z" transform="translate(-287.022 -432.09)"/>
      </g>
      <path id="Cart_4_" class="cls-3" d="M60.13,78.152H52.983c-1.157-3.611-5.409-5.961-9.684-5.9-4.079.054-8.085,2.643-9.025,5.9H26.868A1.623,1.623,0,0,0,25.2,79.731v26.433a1.621,1.621,0,0,0,1.667,1.578H60.13a1.622,1.622,0,0,0,1.669-1.578V79.731A1.623,1.623,0,0,0,60.13,78.152Zm-8.374,0H35.518c.975-2.442,4.324-4.9,7.781-4.935C46.861,73.187,50.488,75.147,51.756,78.152Z" transform="translate(350.799 2670.13)"/>
      <g id="Group_1773" data-name="Group 1773" transform="translate(419.088 2752.997)">
        <path id="Path_2833" data-name="Path 2833" class="cls-4" d="M1626.655,4169.593h-.364v20.046l2.228-.126a1.934,1.934,0,0,0,.939-.637c.267-.431.523-.971.523-.971l.1-4.363,5.877,6.1h4.854l-7.657-8.127,7-6.526h-4.828l-5.251,4.984v-10.377h-3.786" transform="translate(-1626.291 -4169.593)"/>
        <path id="XMLID_2_" class="cls-4" d="M274.526,217.722a5.678,5.678,0,0,1-3.99-2.723,3.014,3.014,0,0,1-.336-1.718,3.241,3.241,0,0,1,1.156-2.8c.839-.768,1.921-1.243,4.624-2.01,3.226-.914,3.729-1.188,3.767-1.919a1.321,1.321,0,0,0-.97-1.224,5.158,5.158,0,0,0-3.319,0,2.123,2.123,0,0,0-1.193,1.407l-.149.548-1.66-.018a9.92,9.92,0,0,1-1.753-.11,4.857,4.857,0,0,1,.448-2.23,4.3,4.3,0,0,1,2.872-2.339,13.366,13.366,0,0,1,5.333-.238,5.119,5.119,0,0,1,3.767,2.6c.429.969.578,2.485.5,5.556a15.315,15.315,0,0,1-.261,3.363c-.746,2.65-3.058,4.075-6.582,4.057A17.079,17.079,0,0,1,274.526,217.722Zm3.114-2.8a3.179,3.179,0,0,0,1.846-1.535,4.215,4.215,0,0,0,.317-1.882,6.782,6.782,0,0,0,0-1.352,42.362,42.362,0,0,0-4.718,1.48,1.819,1.819,0,0,0-1.007,1.681,1.067,1.067,0,0,0,.448,1.042,2.382,2.382,0,0,0,.876.567A4.225,4.225,0,0,0,277.64,214.926Zm18.348,2.814a3.663,3.663,0,0,1-1.827-1.17c-.653-.841-.653-.841-.653-9.485V199.1l1.305.037c1.1.037,1.361.073,1.641.274a2.6,2.6,0,0,1,.858,2.047l.093,1.005,1.529.037,1.529.037v.731c0,1.444-.69,2.083-2.238,2.083h-.876v8.991l.28.311a1.468,1.468,0,0,0,.727.384,5.553,5.553,0,0,0,1.921-.146c.168-.073.186.073.168,1.316l-.037,1.389-.727.146A11.36,11.36,0,0,1,295.989,217.74Zm-10.983-6.213c0-3.6.056-6.287.13-6.67a3.131,3.131,0,0,1,2.405-2.5,13.036,13.036,0,0,1,4.009-.055l.9.128V205.2l-.392-.091a7.358,7.358,0,0,0-1.305-.091c-.746,0-.988.055-1.249.238-.634.475-.634.384-.634,6.542v5.72h-3.841v-5.994Z" transform="translate(-255.357 -197.917)"/>
        <path id="Path_2836" data-name="Path 2836" class="cls-4" d="M3617.165,5825.787l-.006,3.953h1.784a2.1,2.1,0,0,0,1.406-.686,2.055,2.055,0,0,0,.553-.982v-2.352Z" transform="translate(-3617.16 -5809.688)"/>
      </g>
      <g id="XMLID_1_" transform="translate(382.904 2752.659)">
        <path id="XMLID_2_2" data-name="XMLID_2_" class="cls-5" d="M164.349,181.314A5.157,5.157,0,0,0,166.406,179v-4.156l4.8,7.143h9.483l-1.281-2.343-8.094-1.2,7.049-.45-1.354-2.031-7.328-.987,6.264-.618-1.314-1.932-8.543-.747,7.869-.837c.445-.662,1.517-2.215,1.517-2.215l-5.792-1.479s6.639.262,6.823,0c.805-1.15,1.431-2.033,1.431-2.033l-6.621-1.143,7.656-.381,1.613-2.4H170.9l-4.494,6.64V161.2h-8.467s.038,6.837,0,14.311l-.038,6.481h4.409A4.029,4.029,0,0,0,164.349,181.314Z" transform="translate(-157.9 -161.197)"/>
      </g>
    </g>
  </g>
</svg>
