<?xml version="1.0" encoding="UTF-8"?>
<!DOCTYPE svg PUBLIC "-//W3C//DTD SVG 1.1//EN" "http://www.w3.org/Graphics/SVG/1.1/DTD/svg11.dtd">
<!-- Creator: CorelDRAW 2018 (64-Bit Evaluation Version) -->
<svg xmlns="http://www.w3.org/2000/svg" xml:space="preserve" width="130.451mm" height="23.8125mm" version="1.1" style="shape-rendering:geometricPrecision; text-rendering:geometricPrecision; image-rendering:optimizeQuality; fill-rule:evenodd; clip-rule:evenodd"
viewBox="0 0 6790.29 1239.5"
 xmlns:xlink="http://www.w3.org/1999/xlink">
 <defs>
  <style type="text/css">
   <![CDATA[
    .fil3 {fill:#00C2FF}
    .fil1 {fill:#00C2FF}
    .fil2 {fill:white}
    .fil0 {fill:white;fill-rule:nonzero}
   ]]>
  </style>
 </defs>
 <g id="Layer_x0020_1">
  <metadata id="CorelCorpID_0Corel-Layer"/>
  <path class="fil0" d="M1849.98 1016.52c51.43,-48.04 77.15,-111.91 77.15,-191.89 0,-79.97 -26.57,-143.27 -79.42,-189.62 -53.12,-46.35 -115.3,-69.81 -186.51,-70.37 -71.5,0 -131.42,24.02 -180.02,72.07 -48.6,48.61 -72.91,111.35 -72.91,188.77 0,77.15 24.59,140.45 73.76,189.34 49.17,49.18 109.93,73.76 182.28,73.76 72.35,0 134.24,-24.02 185.67,-72.07zm233.14 206.02c-97.25,1.02 -153.9,-20.85 -154.3,-118.93l0 -2.58c-24.87,41.54 -62.45,74.89 -112.76,100.32 -50.3,25.44 -105.41,38.15 -165.6,38.15 -109.93,0 -204.88,-38.44 -284.86,-115.3 -76.58,-76.58 -115.02,-176.06 -115.02,-297.86 0,-122.08 38.15,-221.27 114.17,-297.3 76.3,-76.3 170.98,-114.73 284.29,-115.3 61.05,0 116.72,11.86 166.46,35.6 49.45,23.74 87.32,57.37 113.32,100.33l0 -549.66c83.43,-0.08 151.76,26.56 154.3,124.27l0 1098.26z"/>
  <path class="fil0" d="M2831.22 1016.52c51.43,-48.04 77.15,-111.91 77.15,-191.89 0,-79.97 -26.56,-143.27 -79.41,-189.62 -53.13,-46.35 -115.3,-69.81 -186.51,-70.37 -71.5,0 -131.41,24.02 -180.02,72.07 -48.61,48.61 -72.91,111.35 -72.91,188.77 0,77.15 24.58,140.45 73.76,189.34 49.17,49.18 109.93,73.76 182.28,73.76 72.35,0 134.24,-24.02 185.67,-72.07zm78.84 206.02l0 -121.52c-24.87,41.54 -62.45,74.89 -112.76,100.32 -50.3,25.44 -105.41,38.15 -165.6,38.15 -109.93,0 -204.88,-38.44 -284.86,-115.3 -76.58,-76.58 -115.02,-176.06 -115.02,-297.86 0,-122.08 38.15,-221.27 114.17,-297.3 76.3,-76.3 170.97,-114.73 284.29,-115.3 61.05,0 116.72,11.86 166.46,35.6 49.45,23.74 87.32,57.37 113.32,100.33l0 -425.06c-0.56,-99.56 59.75,-123.87 154.3,-124.6l0 1103.65c-0.31,86.44 -50.83,119.14 -154.3,118.88z"/>
  <path class="fil0" d="M3515.03 259.04l0 171.65 166.17 0c-4.08,80.99 -28.17,132.69 -110.17,137.35l-56 0 0 654.5c-87.6,-0.2 -151.18,-31.51 -154.3,-118.89l0 -535.61 -142.43 0c-2.25,-79.4 34.48,-132.96 117.59,-137.35l24.84 0 0 -289.95c91.89,0.83 151.51,34.02 154.3,118.3z"/>
  <path class="fil0" d="M5059.95 1017.37c50.87,-47.47 76.3,-111.35 76.3,-191.89 0,-80.54 -26.56,-144.12 -79.41,-190.47 -53.13,-46.35 -115.59,-69.81 -187.36,-70.37 -72.07,0 -132.26,24.02 -180.87,72.07 -48.61,47.47 -72.91,109.65 -72.91,187.08 0,77.15 24.87,140.74 74.6,190.19 49.74,49.74 111.06,74.61 183.98,74.61 72.91,0 134.8,-23.74 185.67,-71.22zm78 205.17l0 -121.52c-24.87,41.54 -62.46,74.89 -112.76,100.32 -50.3,25.44 -105.12,38.15 -165.04,38.15 -109.65,0 -204.89,-38.44 -285.43,-115.3 -77.71,-76.58 -116.71,-176.06 -116.71,-297.86 0,-122.08 38.44,-221.27 115.01,-297.3 76.87,-76.3 172.67,-114.73 287.41,-115.3 57.37,0 112.76,11.86 165.6,35.6 52,26 89.31,59.34 111.91,100.33l0 -6.85c1.87,-77.95 81.47,-110.09 154.3,-112.13l0 672.94c-4.26,89.44 -65.12,120.22 -154.3,118.9z"/>
  <path class="fil0" d="M6624.12 260.37l0 170.32 166.17 0c-1.47,75.18 -34.99,136.97 -116.34,137.35l-49.83 0 0 654.5c-99.39,0.83 -153.77,-41.07 -154.3,-119.97l0 -534.53 -142.43 0c0.07,-82.25 43.61,-133.27 132.09,-137.35l10.34 0 0 -289.95c82.48,0.72 153.08,39.67 154.3,119.63z"/>
  <path class="fil1" d="M3218.3 568.04c-0.36,-87.89 39.47,-135.53 125.05,-137.35l17.38 0 154.3 0 166.17 0c-3.28,91.04 -40.75,135.79 -110.17,137.35l-56 0 -154.3 0 -142.43 0z"/>
  <path class="fil1" d="M6327.21 567.91c-0.35,-87.89 39.47,-135.53 125.06,-137.35l17.38 0 154.3 0 166.17 0c-3.28,91.04 -40.76,135.79 -110.17,137.35l-56 0 -154.3 0 -142.44 0z"/>
  <polygon class="fil2" points="640.85,821.97 50.65,1237.76 640.06,1.74 1236.02,1233.74 "/>
  <polygon class="fil3" points="487.66,715.96 -0,1059.51 487,38.24 979.42,1056.19 "/>
  <path class="fil0" d="M4004.35 1219.15c-88.09,2.75 -155.37,-20.32 -157.52,-97.52l0 -710.84c103.87,-1.18 157.01,23.75 157.52,108.64l0 73.69c39.52,-133 114.24,-199.64 224.74,-199.64 63.76,0 110.5,10.39 140.5,30.87 -22.47,82.74 -66.56,128.5 -142.6,119.73 -0.35,-0.04 -0.71,0 -1.07,0 -71.26,0 -125.79,34.04 -164.16,102.13 -28.48,50.75 -52.83,114.68 -53.61,192.9l-3.8 380.05z"/>
  <path class="fil0" d="M5876.01 412.5c122.1,0 222.16,42.68 300.45,127.75 -51.9,68.68 -118.52,89.22 -206.5,39.81 -1.38,-0.78 -3,-1.1 -4.51,-1.63 -28.43,-10 -59.38,-15 -92.84,-15 -74.33,0 -137.65,24.03 -189.65,72.36 -52.29,47.49 -78.58,110.51 -78.58,189.37 0,78.58 26.57,142.46 79.43,191.64 53.14,49.47 116.45,74.05 190.5,74.05 32.35,0 62.26,-4.89 89.7,-14.66 1.11,-0.4 2.25,-0.73 3.32,-1.21 89.22,-40.02 156.59,-19.97 210.83,36.22 -78.85,84.79 -178.63,127.2 -298.75,127.2 -120.41,0 -222.16,-38.16 -305.26,-114.47 -82.82,-77.44 -124.08,-176.94 -124.08,-298.76 0,-121.82 40.7,-221.03 121.82,-297.34 81.4,-76.32 182.59,-114.75 304.13,-115.32z"/>
 </g>
</svg>
