<?xml version="1.0" encoding="UTF-8"?>
<!DOCTYPE svg PUBLIC "-//W3C//DTD SVG 1.1//EN" "http://www.w3.org/Graphics/SVG/1.1/DTD/svg11.dtd">
<!-- Creator: CorelDRAW 2018 (64-Bit Evaluation Version) -->
<svg xmlns="http://www.w3.org/2000/svg" xml:space="preserve" width="121.241mm" height="23.8124mm" version="1.1" style="shape-rendering:geometricPrecision; text-rendering:geometricPrecision; image-rendering:optimizeQuality; fill-rule:evenodd; clip-rule:evenodd"
viewBox="0 0 5601.42 1100.15"
 xmlns:xlink="http://www.w3.org/1999/xlink">
 <defs>
  <style type="text/css">
   <![CDATA[
    .fil3 {fill:#006648}
    .fil2 {fill:#FFC83A}
    .fil1 {fill:#006648;fill-rule:nonzero}
    .fil0 {fill:#FFC83A;fill-rule:nonzero}
   ]]>
  </style>
 </defs>
 <g id="Layer_x0020_1">
  <metadata id="CorelCorpID_0Corel-Layer"/>
  <path class="fil0" d="M1143.05 443c-33.12,32.92 -49.78,76.76 -49.78,131.7 0,54.75 17.61,97.44 52.65,128.07 35.22,30.63 76.76,45.94 125,45.94 48.24,0 89.39,-16.09 123.28,-48.24 32.16,-31.97 48.24,-74.08 48.24,-126.34 0,-52.27 -16.84,-95.33 -50.53,-128.83 -33.88,-33.5 -75.61,-50.54 -124.81,-50.92 -49.39,-0.38 -90.74,15.89 -124.04,48.63zm-50.92 -139.93l0 84.42c17.61,-30.05 43.07,-53.22 76.76,-69.3 32.92,-17.8 69.68,-26.61 110.45,-26.61 74.85,0 138.2,26.03 189.89,78.29 51.87,51.68 77.72,119.07 77.72,201.95 0,82.89 -25.65,150.07 -77.15,201.76 -51.3,51.49 -114.86,77.34 -190.46,77.34 -40.78,0 -78.1,-8.04 -112.18,-24.12 -33.87,-16.08 -58.95,-38.67 -75.03,-67.38l0 242.59c1.74,62.23 -38.11,97.12 -104.52,98.14l0 -715.51c0.79,-69.85 47.04,-84.03 104.52,-81.58z"/>
  <path class="fil1" d="M5445.98 703.69c33.12,-32.92 49.78,-76.76 49.78,-131.7 0,-54.75 -17.61,-97.44 -52.65,-128.07 -35.22,-30.63 -76.76,-45.94 -125,-45.94 -48.24,0 -89.39,16.09 -123.28,48.24 -32.16,31.97 -48.24,74.08 -48.24,126.34 0,52.27 16.84,95.33 50.53,128.83 33.88,33.5 75.61,50.54 124.81,50.92 49.39,0.38 90.74,-15.89 124.04,-48.63zm50.92 139.93l0 -84.42c-17.61,30.05 -43.07,53.22 -76.76,69.3 -32.92,17.8 -69.68,26.61 -110.45,26.61 -74.85,0 -138.2,-26.03 -189.89,-78.29 -51.87,-51.68 -77.72,-119.07 -77.72,-201.95 0,-82.89 25.65,-150.07 77.15,-201.76 51.3,-51.49 114.86,-77.34 190.46,-77.34 40.78,0 78.1,8.04 112.18,24.12 33.87,16.08 58.95,38.67 75.03,67.38l0 -242.59c-1.74,-62.23 38.11,-97.12 104.52,-98.14l0 715.51c-0.79,69.85 -47.04,84.03 -104.52,81.58z"/>
  <path class="fil0" d="M2064.26 704.65c34.45,-32.16 51.68,-75.42 51.68,-129.97 0,-54.56 -17.99,-97.63 -53.79,-129.02 -35.99,-31.4 -78.29,-47.28 -126.9,-47.68 -48.82,0 -89.59,16.28 -122.51,48.82 -32.93,32.16 -49.38,74.28 -49.38,126.71 0,52.27 16.83,95.33 50.52,128.84 33.7,33.69 75.24,50.53 124.63,50.53 49.39,0 91.3,-16.08 125.77,-48.24zm52.97 147.07l-0.14 -90.41c-16.84,28.14 -42.3,50.73 -76.38,67.96 -34.07,17.23 -71.21,25.84 -111.79,25.84 -74.27,0 -138.78,-26.03 -193.34,-78.1 -52.65,-51.87 -79.06,-119.26 -79.06,-201.76 0,-82.69 26.03,-149.88 77.91,-201.38 52.07,-51.68 116.96,-77.71 194.69,-78.1 38.85,0 76.38,8.04 112.18,24.12 35.22,17.62 60.49,40.2 75.8,67.96 1.83,-63.33 41.35,-96.4 104.96,-95.12l-0.43 459.84c-1.22,62.51 -39.67,96.95 -104.38,99.15z"/>
  <path class="fil0" d="M3322.1 704.65c34.45,-32.16 51.68,-75.42 51.68,-129.97 0,-54.56 -17.99,-97.63 -53.79,-129.02 -35.99,-31.4 -78.29,-47.28 -126.91,-47.68 -48.81,0 -89.59,16.28 -122.51,48.82 -32.93,32.16 -49.39,74.28 -49.39,126.71 0,52.27 16.84,95.33 50.54,128.84 33.69,33.69 75.23,50.53 124.61,50.53 49.39,0 91.31,-16.08 125.77,-48.24zm52.86 147.07l-0.04 -90.41c-16.83,28.14 -42.3,50.73 -76.37,67.96 -34.07,17.23 -71.21,25.84 -111.79,25.84 -74.27,0 -138.78,-26.03 -193.34,-78.1 -52.65,-51.87 -79.06,-119.26 -79.06,-201.76 0,-82.69 26.03,-149.88 77.9,-201.38 52.06,-51.68 116.97,-77.71 194.69,-78.1 38.85,0 76.37,8.04 112.18,24.12 35.22,17.62 60.5,40.2 75.79,67.96 1.84,-63.33 41.25,-92.52 104.85,-91.24l-0.32 455.96c-1.22,62.51 -39.78,96.95 -104.49,99.15z"/>
  <path class="fil1" d="M4195.75 704.65c34.47,-32.16 51.69,-75.42 51.69,-129.97 0,-54.56 -18,-97.63 -53.79,-129.02 -35.99,-31.4 -78.29,-47.28 -126.92,-47.68 -48.81,0 -89.57,16.28 -122.51,48.82 -32.92,32.16 -49.39,74.28 -49.39,126.71 0,52.27 16.85,95.33 50.54,128.84 33.69,33.69 75.23,50.53 124.63,50.53 49.38,0 91.3,-16.08 125.75,-48.24zm53.95 147.07l-1.11 -90.41c-16.85,28.14 -42.3,50.73 -76.37,67.96 -34.08,17.23 -71.21,25.84 -111.79,25.84 -74.28,0 -138.78,-26.03 -193.33,-78.1 -52.65,-51.87 -79.06,-119.26 -79.06,-201.76 0,-82.69 26.03,-149.88 77.91,-201.38 52.06,-51.68 116.96,-77.71 194.68,-78.1 38.85,0 76.37,8.04 112.16,24.12 35.22,17.62 60.5,40.2 75.81,67.96 1.83,-63.33 42.32,-92.52 105.92,-91.24l-1.4 455.96c-1.21,62.51 -38.7,96.95 -103.41,99.15z"/>
  <path class="fil0" d="M2442.89 293.43l373.09 0 0 89.02 -336.85 363.02 336.85 0c-0.85,58.4 -30,101.53 -98.52,103.49l-390.6 0 0 -89.62 330.51 -362.42 -311.28 0c-1.81,-60.66 13.59,-101.9 96.8,-103.49z"/>
  <path class="fil1" d="M3582.01 855.09l0 -760.28c0.18,-63.21 45.31,-88.83 103.97,-91.96l-2.07 770.88c-0.79,53.66 -39.13,82.09 -101.9,81.36z"/>
  <path class="fil1" d="M4557.13 552.34l0 302.57c-62.2,2.76 -101.65,-24.06 -107.13,-95.02l0 -469.22c73.22,-5.94 102.24,35.95 107.13,90.98 15.69,-30.61 39.24,-54.15 70.83,-70.24 31.39,-16.09 65.14,-24.13 101.05,-24.13 69.06,0 121.06,21.19 156.17,63.76 36.69,41.79 55.33,101.83 55.72,179.92l0 229.66c-3.73,65.15 -40.79,95.16 -107.13,94.3l0 -316.89c0,-46.3 -10.99,-82.01 -32.77,-106.93 -21.19,-26.09 -52.38,-39.04 -93.79,-39.04 -41.79,0 -77.3,13.54 -106.34,40.81 -29.24,27.07 -43.76,67.11 -43.76,119.48z"/>
  <g id="_2286779009072">
   <path class="fil2" d="M531.7 11.88c-267.28,-56.61 -500.13,93.59 -529.81,355.92 248.82,40.89 476.84,-108.52 529.81,-355.92z"/>
   <path class="fil2" d="M427.41 695.15c-38.51,-222.72 -240.81,-320.03 -427.41,-286.23 50.55,200.95 219.83,323.03 427.41,286.23z"/>
   <path class="fil3" d="M351.43 1088.27c267.28,56.61 500.13,-93.59 529.81,-355.92 -248.82,-40.89 -476.84,108.51 -529.81,355.92z"/>
   <path class="fil3" d="M453.76 406.55c38.5,222.72 240.81,320.03 427.4,286.23 -50.54,-200.95 -219.83,-323.03 -427.4,-286.23z"/>
  </g>
 </g>
</svg>
