<?xml version="1.0" encoding="UTF-8"?>
<!DOCTYPE svg PUBLIC "-//W3C//DTD SVG 1.1//EN" "http://www.w3.org/Graphics/SVG/1.1/DTD/svg11.dtd">
<!-- Creator: CorelDRAW 2018 (64-Bit Evaluation Version) -->
<svg xmlns="http://www.w3.org/2000/svg" xml:space="preserve" width="130.451mm" height="23.8125mm" version="1.1" style="shape-rendering:geometricPrecision; text-rendering:geometricPrecision; image-rendering:optimizeQuality; fill-rule:evenodd; clip-rule:evenodd"
     viewBox="0 0 6737.53 1229.87"
     xmlns:xlink="http://www.w3.org/1999/xlink">
 <defs>
  <style type="text/css">
    <![CDATA[
    .fil2 {fill:#FFFFFF}
    .fil3 {fill:#FBD13E}
    .fil0 {fill:#FFFFFF;fill-rule:nonzero}
    .fil1 {fill:#FFFFFF;fill-rule:nonzero}
   ]]>
  </style>
 </defs>
    <g id="Layer_x0020_1">
  <metadata id="CorelCorpID_0Corel-Layer"/>
        <path class="fil0" d="M1835.61 1008.62c51.03,-47.67 76.55,-111.04 76.55,-190.39 0,-79.35 -26.36,-142.16 -78.8,-188.15 -52.71,-45.99 -114.4,-69.26 -185.06,-69.82 -70.95,0 -130.4,23.84 -178.62,71.51 -48.22,48.23 -72.34,110.48 -72.34,187.31 0,76.55 24.4,139.36 73.19,187.87 48.79,48.8 109.08,73.19 180.86,73.19 71.79,0 133.19,-23.83 184.23,-71.51zm231.33 204.42c-96.49,1.01 -152.7,-20.68 -153.1,-118.01l0 -2.56c-24.67,41.22 -61.97,74.31 -111.88,99.54 -49.91,25.24 -104.59,37.86 -164.32,37.86 -109.08,0 -203.29,-38.14 -282.65,-114.41 -75.99,-75.99 -114.13,-174.69 -114.13,-295.55 0,-121.13 37.86,-219.56 113.28,-294.99 75.71,-75.71 169.65,-113.84 282.09,-114.4 60.57,0 115.81,11.77 165.16,35.33 49.07,23.56 86.64,56.92 112.44,99.55l0 -545.39c82.78,-0.08 150.58,26.35 153.1,123.31l0 1089.72z"/>
        <path class="fil0" d="M2809.23 1008.62c51.03,-47.67 76.55,-111.04 76.55,-190.39 0,-79.35 -26.36,-142.16 -78.79,-188.15 -52.72,-45.99 -114.4,-69.26 -185.06,-69.82 -70.94,0 -130.39,23.84 -178.62,71.51 -48.23,48.23 -72.34,110.48 -72.34,187.31 0,76.55 24.39,139.36 73.19,187.87 48.79,48.8 109.08,73.19 180.86,73.19 71.79,0 133.19,-23.83 184.23,-71.51zm78.23 204.42l0 -120.57c-24.67,41.22 -61.97,74.31 -111.88,99.54 -49.91,25.24 -104.59,37.86 -164.32,37.86 -109.08,0 -203.29,-38.14 -282.65,-114.41 -75.99,-75.99 -114.13,-174.69 -114.13,-295.55 0,-121.13 37.86,-219.56 113.28,-294.99 75.71,-75.71 169.64,-113.84 282.09,-114.4 60.57,0 115.81,11.77 165.16,35.33 49.07,23.56 86.64,56.92 112.44,99.55l0 -421.76c-0.55,-98.79 59.29,-122.91 153.1,-123.63l0 1095.08c-0.3,85.77 -50.44,118.22 -153.1,117.95z"/>
        <path class="fil1" d="M3487.72 257.03l0 170.31 164.88 0c-4.04,80.36 -27.95,131.66 -109.31,136.28l-55.56 0 0 649.42c-86.92,-0.2 -150.01,-31.27 -153.1,-117.97l0 -531.45 -141.32 0c-2.24,-78.78 34.22,-131.92 116.68,-136.28l24.65 0 0 -287.69c91.17,0.82 150.33,33.75 153.1,117.38z"/>
        <path class="fil1" d="M5020.63 1009.46c50.48,-47.1 75.71,-110.48 75.71,-190.39 0,-79.91 -26.36,-143 -78.79,-188.99 -52.72,-45.99 -114.69,-69.26 -185.91,-69.82 -71.51,0 -131.23,23.84 -179.46,71.51 -48.23,47.1 -72.34,108.8 -72.34,185.62 0,76.55 24.67,139.65 74.02,188.72 49.35,49.35 110.2,74.03 182.55,74.03 72.34,0 133.75,-23.55 184.22,-70.66zm77.39 203.58l0 -120.57c-24.68,41.22 -61.97,74.31 -111.88,99.54 -49.91,25.24 -104.31,37.86 -163.75,37.86 -108.8,0 -203.3,-38.14 -283.21,-114.41 -77.11,-75.99 -115.8,-174.69 -115.8,-295.55 0,-121.13 38.14,-219.56 114.12,-294.99 76.27,-75.71 171.33,-113.84 285.17,-114.4 56.93,0 111.88,11.77 164.32,35.33 51.6,25.8 88.61,58.88 111.04,99.55l0 -6.8c1.85,-77.34 80.83,-109.24 153.1,-111.25l0 667.71c-4.23,88.75 -64.61,119.29 -153.1,117.98z"/>
        <path class="fil1" d="M6572.65 258.35l0 169 164.88 0c-1.46,74.6 -34.72,135.9 -115.43,136.28l-49.45 0 0 649.42c-98.62,0.83 -152.58,-40.76 -153.1,-119.04l0 -530.38 -141.32 0c0.07,-81.61 43.28,-132.23 131.07,-136.28l10.26 0 0 -287.69c81.84,0.71 151.89,39.36 153.1,118.7z"/>
        <path class="fil2" d="M3193.3 563.62c-0.36,-87.2 39.16,-134.48 124.08,-136.28l17.25 0 153.1 0 164.88 0c-3.26,90.33 -40.44,134.74 -109.31,136.28l-55.56 0 -153.1 0 -141.32 0z"/>
        <path class="fil2" d="M6278.05 563.49c-0.35,-87.2 39.16,-134.48 124.08,-136.28l17.25 0 153.1 0 164.88 0c-3.26,90.34 -40.44,134.74 -109.32,136.28l-55.56 0 -153.1 0 -141.33 0z"/>
        <g id="_1820558461104">
   <polygon class="fil2" points="483.87,710.4 -0,1051.28 483.22,37.95 971.81,1047.98 "/>
            <polygon class="fil3" points="635.87,815.58 50.25,1228.15 635.08,1.73 1226.42,1224.15 "/>
  </g>
        <path class="fil1" d="M3973.24 1209.68c-87.41,2.73 -154.16,-20.16 -156.29,-96.76l0 -705.32c103.06,-1.17 155.79,23.57 156.29,107.8l0 73.11c39.22,-131.97 113.36,-198.09 222.99,-198.09 63.26,0 109.64,10.31 139.41,30.63 -22.29,82.09 -66.05,127.5 -141.49,118.8 -0.35,-0.04 -0.71,0 -1.06,0 -70.71,0 -124.81,33.78 -162.88,101.33 -28.26,50.36 -52.42,113.79 -53.19,191.4l-3.77 377.1z"/>
        <path class="fil1" d="M5830.35 409.3c121.16,0 220.43,42.35 298.12,126.76 -51.5,68.15 -117.6,88.52 -204.9,39.5 -1.37,-0.77 -2.97,-1.09 -4.47,-1.62 -28.2,-9.92 -58.92,-14.88 -92.11,-14.88 -73.75,0 -136.58,23.84 -188.18,71.8 -51.88,47.12 -77.97,109.65 -77.97,187.9 0,77.97 26.37,141.35 78.81,190.15 52.73,49.08 115.54,73.48 189.02,73.48 32.1,0 61.78,-4.85 89,-14.55 1.1,-0.39 2.23,-0.73 3.29,-1.2 88.53,-39.71 155.38,-19.82 209.19,35.94 -78.24,84.13 -177.24,126.21 -296.43,126.21 -119.47,0 -220.43,-37.86 -302.89,-113.58 -82.17,-76.84 -123.11,-175.56 -123.11,-296.44 0,-120.87 40.38,-219.31 120.87,-295.03 80.77,-75.73 181.17,-113.86 301.76,-114.43z"/>
 </g>
</svg>
