<?xml version="1.0" encoding="UTF-8"?>
<!DOCTYPE svg PUBLIC "-//W3C//DTD SVG 1.1//EN" "http://www.w3.org/Graphics/SVG/1.1/DTD/svg11.dtd">
<!-- Creator: CorelDRAW 2018 (64-Bit Evaluation Version) -->
<svg xmlns="http://www.w3.org/2000/svg" xml:space="preserve" width="126.574mm" height="25.5916mm" version="1.1" style="shape-rendering:geometricPrecision; text-rendering:geometricPrecision; image-rendering:optimizeQuality; fill-rule:evenodd; clip-rule:evenodd"
viewBox="0 0 5992.35 1211.57"
 xmlns:xlink="http://www.w3.org/1999/xlink">
 <defs>
  <style type="text/css">
   <![CDATA[
    .fil0 {fill:#3B9CFF}
    .fil1 {fill:#3B9CFF;fill-rule:nonzero}
    .fil2 {fill:#3B9CFF;fill-rule:nonzero}
   ]]>
  </style>
 </defs>
 <g id="Layer_x0020_1">
  <metadata id="CorelCorpID_0Corel-Layer"/>
  <g id="_2350997023200">
   <g>
    <path class="fil0" d="M83.16 423.24l504.64 384.11 -54.17 13.45c-145.6,36.13 -297.25,-2.94 -403.07,-110.3 -75.75,-76.85 -117.7,-179.11 -118.12,-287 -1.08,-269.96 256.65,-462.57 516.23,-398.82l53.92 13.24 -499.43 385.33z"/>
    <path id="1" class="fil1" d="M580.27 817.25l-504.64 -384.11 15.06 -19.79 504.64 384.11 -4.54 21.96 -10.53 -2.17zm15.06 -19.79l20.64 15.71 -25.18 6.25 4.54 -21.96zm-64.7 11.27l54.17 -13.45 5.99 24.14 -54.17 13.45 0 0 -5.99 -24.14zm-408.93 -89.51l17.71 -17.45 0 0 9.76 9.57 10 9.18 10.24 8.79 10.48 8.4 10.69 8 10.92 7.61 11.11 7.21 11.31 6.81 11.5 6.42 11.67 6.02 11.85 5.62 12 5.22 12.16 4.81 12.29 4.41 12.43 4.01 12.56 3.6 12.66 3.19 12.78 2.78 12.87 2.38 12.95 1.96 13.04 1.55 13.1 1.13 13.17 0.72 13.21 0.3 13.25 -0.11 13.29 -0.54 13.31 -0.95 13.33 -1.38 13.33 -1.8 13.32 -2.23 13.31 -2.65 13.29 -3.08 5.99 24.14 -14.05 3.25 -14.07 2.8 -14.09 2.36 -14.1 1.9 -14.1 1.46 -14.09 1.01 -14.07 0.57 -14.05 0.12 -14 -0.32 -13.95 -0.76 -13.89 -1.21 -13.82 -1.64 -13.75 -2.08 -13.65 -2.52 -13.55 -2.95 -13.45 -3.39 -13.33 -3.83 -13.2 -4.25 -13.06 -4.69 -12.92 -5.11 -12.76 -5.54 -12.58 -5.97 -12.41 -6.4 -12.21 -6.82 -12.03 -7.24 -11.81 -7.66 -11.59 -8.08 -11.37 -8.5 -11.13 -8.92 -10.88 -9.33 -10.62 -9.74 -10.35 -10.16 0 0zm-121.7 -295.68l24.86 -0.1 0 0 0.16 9.8 0.39 9.76 0.62 9.72 0.86 9.68 1.08 9.63 1.32 9.58 1.54 9.53 1.77 9.47 1.99 9.41 2.22 9.35 2.44 9.27 2.66 9.2 2.88 9.14 3.1 9.06 3.31 8.97 3.53 8.89 3.74 8.81 3.96 8.71 4.17 8.62 4.38 8.51 4.59 8.41 4.79 8.31 4.99 8.2 5.21 8.09 5.41 7.97 5.61 7.85 5.81 7.73 6.01 7.59 6.21 7.47 6.41 7.34 6.6 7.21 6.79 7.06 -17.71 17.45 -7.22 -7.49 -7.01 -7.65 -6.79 -7.79 -6.59 -7.93 -6.39 -8.08 -6.17 -8.21 -5.96 -8.34 -5.75 -8.47 -5.53 -8.59 -5.32 -8.72 -5.09 -8.83 -4.87 -8.94 -4.65 -9.05 -4.43 -9.16 -4.2 -9.26 -3.98 -9.35 -3.75 -9.44 -3.52 -9.54 -3.3 -9.62 -3.06 -9.71 -2.82 -9.78 -2.6 -9.86 -2.35 -9.93 -2.12 -10 -1.88 -10.06 -1.64 -10.12 -1.4 -10.17 -1.15 -10.23 -0.91 -10.27 -0.67 -10.32 -0.41 -10.36 -0.17 -10.4 0 0zm531.62 -410.94l-5.93 24.14 0 0 -23.62 -5.08 -23.56 -3.65 -23.44 -2.26 -23.3 -0.89 -23.1 0.44 -22.86 1.73 -22.58 3.01 -22.25 4.23 -21.87 5.44 -21.46 6.61 -20.99 7.75 -20.48 8.86 -19.92 9.93 -19.31 10.98 -18.66 11.99 -17.97 12.97 -17.22 13.92 -16.44 14.83 -15.6 15.71 -14.72 16.57 -13.79 17.38 -12.82 18.17 -11.81 18.92 -10.74 19.64 -9.64 20.33 -8.48 20.99 -7.3 21.63 -6.05 22.21 -4.76 22.79 -3.43 23.34 -2.06 23.84 -0.63 24.33 -24.86 0.1 0.67 -25.82 2.18 -25.34 3.65 -24.81 5.07 -24.25 6.44 -23.65 7.76 -23.02 9.03 -22.35 10.25 -21.64 11.43 -20.9 12.56 -20.13 13.63 -19.32 14.65 -18.47 15.64 -17.6 16.57 -16.69 17.44 -15.74 18.27 -14.78 19.06 -13.76 19.8 -12.72 20.49 -11.65 21.12 -10.54 21.72 -9.4 22.27 -8.22 22.76 -7.01 23.21 -5.77 23.61 -4.5 23.97 -3.19 24.26 -1.84 24.52 -0.46 24.72 0.95 24.88 2.39 24.98 3.88 25.02 5.38 0 0zm48 37.39l-53.92 -13.24 5.93 -24.14 53.92 13.24 4.63 21.91 -10.56 2.23zm5.93 -24.14l25.06 6.15 -20.43 15.76 -4.63 -21.91zm-509.98 387.56l499.43 -385.33 15.19 19.69 -499.43 385.33 -15.13 0.05 -0.06 -19.74zm0.06 19.74l-12.91 -9.82 12.85 -9.91 0.06 19.74z"/>
   </g>
   <g>
    <path class="fil0" d="M748.45 788.48l-499.42 -385.33 53.92 -13.24c259.57,-63.75 517.31,128.86 516.23,398.82 -0.43,107.9 -42.39,210.17 -118.14,287.02 -105.83,107.36 -257.47,146.42 -403.06,110.29l-54.17 -13.45 504.64 -384.11z"/>
    <path id="1" class="fil1" d="M256.62 393.3l499.42 385.33 -15.19 19.69 -499.42 -385.33 4.63 -21.91 10.56 2.23zm-15.19 19.69l-20.43 -15.76 25.06 -6.15 -4.63 21.91zm64.48 -11.01l-53.92 13.24 -5.93 -24.14 53.92 -13.24 5.93 24.14zm525.7 386.79l-24.86 -0.09 0 0 -0.63 -24.34 -2.06 -23.84 -3.43 -23.34 -4.76 -22.79 -6.05 -22.21 -7.3 -21.63 -8.49 -20.99 -9.64 -20.33 -10.74 -19.65 -11.8 -18.92 -12.82 -18.17 -13.8 -17.38 -14.72 -16.57 -15.6 -15.71 -16.44 -14.83 -17.22 -13.92 -17.97 -12.97 -18.66 -11.99 -19.31 -10.98 -19.92 -9.93 -20.48 -8.86 -20.99 -7.75 -21.46 -6.61 -21.87 -5.44 -22.25 -4.23 -22.58 -3.01 -22.86 -1.73 -23.1 -0.44 -23.3 0.89 -23.44 2.26 -23.56 3.65 -23.62 5.08 -5.93 -24.14 25.02 -5.38 24.98 -3.88 24.88 -2.39 24.72 -0.95 24.52 0.46 24.26 1.84 23.97 3.19 23.61 4.5 23.21 5.77 22.76 7.01 22.27 8.22 21.72 9.4 21.12 10.54 20.49 11.65 19.8 12.72 19.06 13.76 18.27 14.78 17.44 15.74 16.57 16.69 15.64 17.6 14.66 18.47 13.63 19.32 12.55 20.13 11.43 20.9 10.25 21.64 9.04 22.35 7.76 23.02 6.44 23.65 5.07 24.25 3.65 24.81 2.18 25.34 0.67 25.82 0 0zm-121.72 295.7l-17.71 -17.46 0 0 6.79 -7.05 6.6 -7.21 6.41 -7.34 6.21 -7.47 6 -7.6 5.81 -7.73 5.61 -7.85 5.41 -7.97 5.21 -8.09 4.99 -8.2 4.8 -8.31 4.59 -8.41 4.38 -8.51 4.17 -8.62 3.96 -8.71 3.74 -8.81 3.53 -8.88 3.31 -8.98 3.1 -9.05 2.88 -9.14 2.67 -9.21 2.44 -9.27 2.22 -9.35 2 -9.41 1.77 -9.47 1.54 -9.53 1.32 -9.58 1.09 -9.63 0.86 -9.68 0.62 -9.72 0.39 -9.76 0.16 -9.8 24.86 0.09 -0.17 10.4 -0.41 10.36 -0.67 10.32 -0.9 10.28 -1.16 10.23 -1.4 10.18 -1.64 10.12 -1.88 10.06 -2.12 10 -2.35 9.93 -2.6 9.86 -2.83 9.79 -3.06 9.71 -3.3 9.62 -3.52 9.54 -3.75 9.45 -3.98 9.35 -4.2 9.26 -4.43 9.16 -4.65 9.05 -4.88 8.94 -5.09 8.83 -5.32 8.71 -5.53 8.6 -5.75 8.47 -5.96 8.34 -6.17 8.2 -6.38 8.08 -6.59 7.94 -6.8 7.79 -7.01 7.65 -7.22 7.5 0 0zm-414.91 113.63l5.99 -24.14 0 0 13.28 3.08 13.31 2.65 13.33 2.23 13.33 1.8 13.32 1.38 13.31 0.95 13.29 0.54 13.25 0.11 13.21 -0.3 13.16 -0.72 13.1 -1.13 13.04 -1.55 12.96 -1.96 12.86 -2.37 12.78 -2.78 12.66 -3.19 12.55 -3.6 12.43 -4.01 12.29 -4.41 12.16 -4.81 12.01 -5.21 11.85 -5.62 11.67 -6.02 11.5 -6.42 11.31 -6.81 11.11 -7.21 10.92 -7.61 10.69 -8 10.48 -8.4 10.24 -8.78 10 -9.18 9.76 -9.58 17.71 17.46 -10.35 10.15 -10.62 9.74 -10.88 9.33 -11.13 8.91 -11.37 8.5 -11.59 8.08 -11.81 7.66 -12.03 7.24 -12.21 6.82 -12.41 6.4 -12.58 5.97 -12.75 5.54 -12.92 5.11 -13.06 4.69 -13.2 4.25 -13.33 3.83 -13.45 3.39 -13.55 2.95 -13.66 2.51 -13.74 2.08 -13.82 1.64 -13.89 1.21 -13.95 0.76 -14 0.32 -14.05 -0.12 -14.07 -0.57 -14.09 -1.01 -14.1 -1.46 -14.1 -1.9 -14.09 -2.36 -14.07 -2.8 -14.04 -3.25 0 0zm-48.18 -37.58l54.17 13.45 -5.99 24.14 -54.17 -13.45 -4.54 -21.96 10.53 -2.17zm-5.99 24.14l-25.18 -6.25 20.64 -15.71 4.54 21.96zm515.17 -386.28l-504.64 384.11 -15.06 -19.79 504.64 -384.11 15.13 0.05 -0.06 19.74zm0.06 -19.74l12.85 9.91 -12.91 9.82 0.06 -19.74z"/>
   </g>
  </g>
  <path class="fil2" d="M1212.17 484.5c-36.1,35.88 -54.25,83.66 -54.25,143.54 0,59.68 19.2,106.2 57.38,139.59 38.39,33.38 83.66,50.07 136.24,50.07 52.58,0 97.44,-17.53 134.37,-52.58 35.05,-34.84 52.57,-80.74 52.57,-137.7 0,-56.96 -18.35,-103.9 -55.08,-140.42 -36.93,-36.51 -82.41,-55.08 -136.03,-55.5 -53.83,-0.42 -98.9,17.32 -135.2,53zm-55.5 -152.52l0 92.01c19.19,-32.76 46.94,-58 83.66,-75.53 35.88,-19.41 75.94,-29 120.39,-29 81.58,0 150.63,28.38 206.97,85.34 56.54,56.34 84.71,129.78 84.71,220.11 0,90.35 -27.96,163.58 -84.09,219.92 -55.91,56.12 -125.18,84.29 -207.59,84.29 -44.45,0 -85.13,-8.76 -122.27,-26.29 -36.93,-17.53 -64.26,-42.14 -81.78,-73.44l0 264.41c1.89,67.83 -41.54,105.86 -113.93,106.97l0 -779.86c0.86,-76.13 51.27,-91.59 113.93,-88.92z"/>
  <path class="fil1" d="M2216.24 778.83c37.56,-35.05 56.34,-82.21 56.34,-141.67 0,-59.46 -19.62,-106.41 -58.63,-140.62 -39.23,-34.22 -85.34,-51.53 -138.34,-51.95 -53.2,0 -97.64,17.73 -133.53,53.21 -35.89,35.05 -53.83,80.95 -53.83,138.11 0,56.96 18.36,103.9 55.08,140.42 36.73,36.72 82,55.08 135.83,55.08 53.83,0 99.52,-17.53 137.08,-52.58zm57.58 151.47l0 -89.72c-18.35,30.67 -46.11,55.3 -83.24,74.07 -37.14,18.78 -77.62,28.17 -121.85,28.17 -80.95,0 -151.26,-28.38 -210.73,-85.13 -57.38,-56.54 -86.17,-129.98 -86.17,-219.91 0,-90.13 28.38,-163.37 84.92,-219.49 56.74,-56.33 127.48,-84.71 212.19,-85.13 42.35,0 83.25,8.76 122.26,26.29 38.39,19.2 65.93,43.82 82.62,74.07 2,-69.03 44.6,-89.22 113.93,-87.83l0 485.36c-1.33,68.14 -43.39,96.85 -113.93,99.25z"/>
  <path class="fil1" d="M3587.21 778.83c37.56,-35.05 56.34,-82.21 56.34,-141.67 0,-59.46 -19.61,-106.41 -58.63,-140.62 -39.22,-34.22 -85.34,-51.53 -138.33,-51.95 -53.2,0 -97.64,17.73 -133.53,53.21 -35.89,35.05 -53.83,80.95 -53.83,138.11 0,56.96 18.36,103.9 55.08,140.42 36.72,36.72 82,55.08 135.83,55.08 53.83,0 99.52,-17.53 137.07,-52.58zm57.59 151.47l0 -89.72c-18.36,30.67 -46.11,55.3 -83.24,74.07 -37.14,18.78 -77.62,28.17 -121.85,28.17 -80.95,0 -151.26,-28.38 -210.73,-85.13 -57.38,-56.54 -86.17,-129.98 -86.17,-219.91 0,-90.13 28.38,-163.37 84.92,-219.49 56.75,-56.33 127.48,-84.71 212.19,-85.13 42.35,0 83.25,8.76 122.26,26.29 38.39,19.2 65.93,43.82 82.62,74.07 2,-69.03 44.6,-89.22 113.92,-87.83l0 485.36c-1.32,68.14 -43.38,96.85 -113.92,99.25z"/>
  <path class="fil1" d="M5358.84 778.83c37.56,-35.05 56.34,-82.21 56.34,-141.67 0,-59.46 -19.62,-106.41 -58.63,-140.62 -39.23,-34.22 -85.34,-51.53 -138.33,-51.95 -53.2,0 -97.65,17.73 -133.53,53.21 -35.89,35.05 -53.83,80.95 -53.83,138.11 0,56.96 18.35,103.9 55.08,140.42 36.72,36.72 82,55.08 135.83,55.08 53.83,0 99.52,-17.53 137.08,-52.58zm57.59 151.47l0 -89.72c-18.36,30.67 -46.11,55.3 -83.25,74.07 -37.14,18.78 -77.62,28.17 -121.85,28.17 -80.95,0 -151.26,-28.38 -210.72,-85.13 -57.38,-56.54 -86.17,-129.98 -86.17,-219.91 0,-90.13 28.38,-163.37 84.92,-219.49 56.74,-56.33 127.48,-84.71 212.19,-85.13 42.35,0 83.25,8.76 122.26,26.29 38.39,19.2 65.93,43.82 82.62,74.07 2,-69.03 44.6,-89.22 113.92,-87.83l0 485.36c-1.33,68.14 -43.39,96.85 -113.92,99.25z"/>
  <path class="fil1" d="M2629.68 345.69l392.62 0 0 93.68 -354.48 382.02 354.48 0c-0.89,61.46 -31.58,106.85 -103.68,108.91l-411.05 0 0 -94.31 347.81 -381.39 -327.57 0c-1.9,-63.84 14.3,-107.24 101.87,-108.91z"/>
  <path class="fil1" d="M4393.14 621.97l0 314.43c-69.44,2.99 -112.22,-12.95 -113.92,-96.37l0 -234.54c0,-48.4 -11.68,-85.75 -34.84,-112.25 -22.33,-27.54 -55.08,-41.31 -97.85,-41.31 -42.35,0 -79.08,14.4 -109.96,43.19 -31.08,28.79 -46.52,71.15 -46.52,126.85l0 218.65c-0.8,71.48 -46.16,93.64 -113.92,95.77l0 -483.01c0.52,-70.15 45.87,-99.97 113.92,-101.6l0 88.88c13.56,-27.96 35.68,-50.91 66.76,-68.64 32.55,-17.73 62.18,-27.34 88.68,-29 112.46,-6.89 186.94,32.55 223.24,118.09 40.69,-81.16 107.87,-121.85 201.96,-121.85 73.24,0 128.94,22.54 166.92,67.81 39.02,44.45 58.63,108.29 58.63,191.33l0 338c-67.61,-0.67 -113.02,-24.6 -113.92,-94.57l0 -235.08c0,-47.57 -11.9,-85.34 -35.47,-113.5 -25.45,-27.54 -59.87,-41.52 -103.06,-41.94 -42.98,-0.41 -78.87,15.03 -107.25,46.32 -28.58,31.3 -42.98,72.61 -43.4,124.35z"/>
  <path class="fil1" d="M5650.15 931.25l0 -820.22c0.37,-58.63 49.39,-96.82 113.32,-100.24l0 806.81c0.11,65.56 -44.91,114.43 -113.32,113.65z"/>
  <path class="fil1" d="M5879.02 931.25l0 -820.22c0.37,-58.63 49.39,-96.82 113.32,-100.24l0 806.81c0.11,65.56 -44.91,114.43 -113.32,113.65z"/>
 </g>
</svg>
