<?xml version="1.0" encoding="UTF-8"?>
<!DOCTYPE svg PUBLIC "-//W3C//DTD SVG 1.1//EN" "http://www.w3.org/Graphics/SVG/1.1/DTD/svg11.dtd">
<!-- Creator: CorelDRAW X6 -->
<svg xmlns="http://www.w3.org/2000/svg" xml:space="preserve" width="48.8699mm" height="10.3935mm" version="1.1" style="shape-rendering:geometricPrecision; text-rendering:geometricPrecision; image-rendering:optimizeQuality; fill-rule:evenodd; clip-rule:evenodd"
     viewBox="0 0 5121 1089"
     xmlns:xlink="http://www.w3.org/1999/xlink">
 <defs>
  <style type="text/css">
   <![CDATA[
    .str0 {stroke:#C834F7;stroke-width:20.957}
    .str1 {stroke:#13ECAB;stroke-width:20.957}
    .fil1 {fill:#C834F7}
    .fil2 {fill:#13ECAB}
    .fil0 {fill:#13ECAB;fill-rule:nonzero}
   ]]>
  </style>
 </defs>
    <g id="Layer_x0020_1">
  <metadata id="CorelCorpID_0Corel-Layer"/>
        <g id="_616774352">
   <path class="fil0" d="M934 405c-31,30 -46,70 -46,120 0,51 16,90 48,118 32,28 71,42 115,42 44,0 82,-15 113,-44 29,-30 44,-68 44,-116 0,-48 -15,-87 -46,-118 -31,-31 -70,-46 -115,-47 -45,0 -83,15 -113,45zm-47 -129l0 78c16,-28 39,-49 70,-64 30,-16 64,-24 101,-24 69,0 127,24 175,72 47,47 71,109 71,185 0,76 -24,137 -71,185 -47,47 -105,71 -175,71 -37,0 -71,-8 -102,-22 -31,-15 -54,-36 -69,-62l0 229c1,61 -38,83 -96,83l0 -652c-1,-63 41,-80 96,-79z"/>
            <path class="fil0" d="M1766 641c32,-30 48,-69 48,-119 0,-50 -17,-90 -49,-119 -33,-28 -72,-43 -117,-43 -45,0 -82,15 -112,44 -30,30 -45,68 -45,117 0,47 15,87 46,118 31,31 69,46 114,46 45,0 84,-15 115,-44zm49 127l0 -75c-16,25 -39,46 -70,62 -31,16 -65,24 -103,24 -68,0 -127,-24 -177,-72 -48,-47 -72,-109 -72,-185 0,-76 24,-137 71,-184 48,-48 107,-72 179,-72 35,0 70,7 102,22 33,16 56,37 70,62 1,-53 39,-72 96,-74l0 414c-3,62 -38,84 -96,78z"/>
            <path class="fil0" d="M2111 276l335 0 0 81 -305 329 208 0c59,1 96,27 97,94l-443 0 0 -81 299 -329 -282 0c1,-60 32,-90 91,-94z"/>
            <path class="fil0" d="M2908 641c32,-30 48,-69 48,-119 0,-50 -17,-90 -49,-119 -33,-28 -72,-43 -117,-43 -45,0 -82,15 -112,44 -30,30 -45,68 -45,117 0,47 15,87 46,118 31,31 69,46 114,46 45,0 84,-15 115,-44zm49 127l0 -75c-16,25 -39,46 -70,62 -31,16 -65,24 -103,24 -68,0 -127,-24 -177,-72 -48,-47 -72,-109 -72,-185 0,-76 24,-137 71,-184 48,-48 107,-72 179,-72 35,0 70,7 102,22 33,16 56,37 70,62 7,-60 42,-79 96,-74l0 416c-1,54 -33,79 -96,76z"/>
            <path class="fil0" d="M3215 302c33,-24 72,-36 119,-36 46,0 85,12 115,36 31,24 48,58 52,102l-91 0c-3,-16 -11,-29 -25,-39 -16,-9 -33,-14 -52,-14 -19,0 -35,4 -48,12 -14,7 -22,18 -26,33 -4,16 -3,28 1,37 8,16 28,28 58,37l73 18c85,20 127,68 127,143 0,45 -18,80 -55,108 -38,26 -81,40 -131,40 -50,0 -94,-15 -131,-44 -37,-28 -56,-67 -56,-115l90 0c4,26 17,45 39,57 22,13 45,19 70,18 25,-2 44,-8 58,-20 13,-13 21,-27 23,-44 1,-17 -4,-31 -16,-41 -12,-11 -29,-18 -49,-23l-68 -16c-47,-13 -82,-31 -105,-56 -22,-26 -30,-59 -27,-98 4,-39 22,-71 55,-95z"/>
            <path class="fil0" d="M4371 642c31,-31 46,-70 46,-119 0,-50 -15,-89 -46,-118 -31,-30 -69,-45 -115,-45 -45,0 -84,14 -115,44 -31,30 -47,69 -47,118 0,49 16,89 46,119 31,31 69,46 116,46 46,0 84,-15 115,-45zm-115 137c-72,0 -132,-24 -182,-71 -51,-48 -76,-110 -76,-186 0,-76 25,-138 74,-186 50,-47 111,-70 183,-70 73,0 134,24 184,71 49,48 74,109 74,185 0,76 -25,137 -75,185 -49,48 -110,72 -182,72z"/>
            <path class="fil0" d="M4751 405c-31,30 -46,70 -46,120 0,51 16,90 48,118 33,28 71,42 115,42 44,0 82,-15 113,-44 29,-30 44,-68 44,-116 0,-48 -15,-87 -46,-118 -31,-31 -70,-46 -115,-47 -45,0 -83,15 -113,45zm-47 -129l0 78c16,-28 39,-49 70,-64 30,-16 64,-24 102,-24 68,0 126,24 174,72 47,47 71,109 71,185 0,76 -24,137 -71,185 -47,47 -105,71 -174,71 -38,0 -72,-8 -103,-22 -31,-15 -54,-36 -69,-62l0 230c-2,54 -29,82 -96,82l0 -649c0,-61 44,-82 96,-82z"/>
            <path class="fil0" d="M3805 83l0 185 0 88 0 335c-1,50 -28,83 -98,83l0 -418 0 -88 0 -109c0,-60 41,-77 98,-76z"/>
            <path class="fil0" d="M3805 271l26 0c63,2 82,23 82,89l-108 0 -101 0c-76,1 -88,-33 -92,-89l92 0 101 0z"/>
            <g>
    <path class="fil2 str1" d="M70 355l423 322 -45 11c-123,31 -250,-2 -338,-92 -64,-65 -99,-150 -100,-241 0,-226 216,-388 433,-334l46 11 -419 323z"/>
                <path class="fil1 str0" d="M628 661l-419 -323 45 -11c218,-53 434,108 433,335 0,90 -35,176 -99,240 -89,90 -216,123 -338,93l-45 -12 423 -322z"/>
                <path class="fil1" d="M647 834l41 48c44,53 37,133 -16,178l0 0c-53,44 -133,37 -177,-16l-43 -51c86,-27 150,-82 195,-159z"/>
                <polygon class="fil2" points="548,946 637,1021 576,923 "/>
   </g>
  </g>
 </g>
</svg>
