<?xml version="1.0" encoding="UTF-8"?>
<!DOCTYPE svg PUBLIC "-//W3C//DTD SVG 1.1//EN" "http://www.w3.org/Graphics/SVG/1.1/DTD/svg11.dtd">
<!-- Creator: CorelDRAW 2018 (64-Bit Evaluation Version) -->
<svg xmlns="http://www.w3.org/2000/svg" xml:space="preserve" width="72.3811mm" height="11.9062mm" version="1.1" style="shape-rendering:geometricPrecision; text-rendering:geometricPrecision; image-rendering:optimizeQuality; fill-rule:evenodd; clip-rule:evenodd"
viewBox="0 0 11928.34 1962.13"
 xmlns:xlink="http://www.w3.org/1999/xlink">
 <defs>
  <style type="text/css">
   <![CDATA[
    .fil1 {fill:white}
    .fil0 {fill:white;fill-rule:nonzero}
   ]]>
  </style>
 </defs>
 <g id="Layer_x0020_1">
  <metadata id="CorelCorpID_0Corel-Layer"/>
  <g id="_2128277748096">
   <g>
    <path class="fil0" d="M2568.41 1003.99c-83.65,74.24 -125.69,175.35 -125.69,302.82 0,127.49 40.26,228.59 120.32,303.74 80.52,75.15 178.49,112.72 293.44,112.72 115.41,0 212.03,-39.37 289.42,-118.1 78.72,-78.28 118.1,-178.48 118.1,-299.7 0,-121.67 -38.93,-220.52 -116.76,-297.46 -77.37,-76.94 -172.22,-114.96 -284.03,-114.06 -111.83,0 -210.25,36.67 -294.79,110.04zm-372.61 931.3l0 -1749.66c-1.19,-138.46 93.59,-189.29 244.23,-185.42l0 870.02c85.43,-143.59 232.15,-215.16 440.16,-215.16 181.16,0 331.91,60.38 452.23,181.16 120.78,119.43 181.16,276.43 181.16,470.57 0,193.7 -62.62,351.6 -187.41,472.83 -125.26,121.67 -274.65,182.5 -448.67,182.5 -92.6,0 -178.92,-20.12 -259.44,-60.38 -80.08,-40.26 -139.55,-93.05 -178.03,-158.8 -0.25,159.56 -90.38,195.91 -244.23,192.34z"/>
    <path class="fil0" d="M3901.82 1935.29c-136.6,4.27 -240.9,-31.51 -244.23,-151.2l0 -1102.16c161.06,-1.85 243.44,36.82 244.23,168.44l0 114.26c61.27,-206.21 177.13,-309.54 348.45,-309.54 98.86,0 171.33,16.1 217.85,47.86 -34.84,128.3 -103.21,199.26 -221.09,185.65 -0.54,-0.07 -1.1,0 -1.66,0 -110.5,0 -195.04,52.79 -254.53,158.34 -44.15,78.69 -81.92,177.82 -83.12,299.11l-5.88 589.26z"/>
    <path class="fil0" d="M4575.91 1935.3l0 -1058.98c0.81,-143.1 92.47,-194.5 244.23,-194.4l0 1085.93c-0.61,132.8 -88.1,170.27 -244.23,167.45z"/>
    <path class="fil0" d="M4577.71 333.01c-31.77,-30.87 -47.41,-68.44 -47.41,-112.72 0,-44.73 15.64,-81.86 47.41,-112.72 35.33,-30.42 75.15,-45.62 120.32,-45.62 45.19,0 85,14.75 118.98,44.28 34.44,29.96 51.45,68 51.45,114.06 0,46.08 -17.01,84.1 -51.45,114.07 -33.98,29.52 -73.8,44.28 -118.98,44.28 -45.17,0 -84.99,-15.21 -120.32,-45.63z"/>
    <path class="fil0" d="M6210.27 1935.29l0 -1761.08c-0.68,-121.09 115.34,-173.6 244.23,-173.99l0 1118.28 344.46 -347.66c106.56,-113.13 239.07,-149.24 420.9,-88.91l-537.23 541.25 665.61 712.11c-163.18,26.76 -306.25,14.34 -403.66,-86.98l-490.08 -525.38 0 434.49c-5.17,112.33 -99.79,174.11 -244.23,177.87z"/>
    <path class="fil0" d="M7997.08 655.08c193.24,0 351.6,67.55 475.49,202.19 -108.88,71.03 -230.46,115.06 -406.95,42.21 -0.71,-0.3 -1.53,-0.23 -2.31,-0.35 -22.99,-3.44 -46.87,-5.17 -71.59,-5.17 -117.65,0 -217.85,38.02 -300.15,114.5 -82.76,75.15 -124.36,174.9 -124.36,299.7 0,124.36 42.04,225.45 125.69,303.28 84.1,78.28 184.29,117.19 301.48,117.19 54.96,0 105.49,-8.92 151.48,-26.73 1.48,-0.58 3.11,-0.94 4.47,-1.78 123.58,-76.17 229.02,-37.87 324.92,60.73 -124.8,134.18 -282.7,201.29 -472.81,201.29 -190.56,0 -351.58,-60.38 -483.11,-181.16 -131.05,-122.56 -196.36,-280.01 -196.36,-472.81 0,-192.8 64.4,-349.8 192.78,-470.57 128.84,-120.78 288.98,-181.63 481.31,-182.52z"/>
    <path class="fil0" d="M5640.74 655.08c193.24,0 351.6,67.55 475.49,202.19 -82.14,108.69 -187.56,141.18 -326.81,63 -2.19,-1.24 -4.75,-1.75 -7.12,-2.59 -44.99,-15.82 -93.98,-23.73 -146.92,-23.73 -117.65,0 -217.85,38.02 -300.15,114.5 -82.76,75.15 -124.36,174.9 -124.36,299.7 0,124.36 42.04,225.45 125.69,303.28 84.1,78.28 184.29,117.19 301.48,117.19 51.2,0 98.53,-7.73 141.96,-23.2 1.75,-0.63 3.56,-1.15 5.26,-1.91 141.2,-63.35 247.82,-31.61 333.65,57.33 -124.8,134.18 -282.7,201.29 -472.81,201.29 -190.56,0 -351.58,-60.38 -483.09,-181.16 -131.06,-122.56 -196.37,-280.01 -196.37,-472.81 0,-192.8 64.4,-349.8 192.78,-470.57 128.84,-120.78 288.98,-181.63 481.31,-182.52z"/>
    <path class="fil0" d="M9808.89 1305.03c0,55.47 -0.89,87.23 -2.69,96.18l-1017.19 0c12.08,101.09 56.81,184.74 133.75,251.38 74.24,61.27 157.45,92.14 250.03,92.14 101.5,0 194.99,-20.35 270.3,-72.13 1.29,-0.89 2.69,-1.62 3.84,-2.67 101.53,-94.25 207.4,-94.68 315.87,-38.37 -51.43,105.57 -129.27,186.98 -233.49,244.25 -103.79,57.7 -218.29,86.32 -343.1,86.32 -179.38,0 -332.37,-60.38 -459.84,-181.61 -121.23,-121.23 -181.61,-280.01 -181.61,-475.49 0,-195.93 60.38,-352.93 180.7,-471.47 120.78,-118.1 273.32,-177.59 458.5,-178.48 185.18,0 334.59,59.94 448.2,179.37 117.65,118.98 176.7,276.01 176.7,470.58zm-365.9 -342.65c-69.78,-59.94 -156.56,-89.9 -259.44,-89.9 -103.33,0 -191.89,29.96 -266.15,89.9 -73.37,63.98 -116.3,147.18 -128.38,248.27l776.98 0c-12.08,-101.09 -53.23,-184.29 -123.01,-248.27z"/>
    <path class="fil0" d="M10185.34 1259.4l0 675.89c-179.61,1.12 -244.23,-10.74 -244.23,-192.47l0 -1060.89c151.48,-1.85 241.76,15.67 244.23,131.06l0 57.25c35.79,-69.78 89.47,-123.47 161.49,-160.14 71.57,-36.68 148.5,-55.03 230.37,-55.03 157.45,0 275.99,48.32 356.05,145.39 83.65,95.27 126.15,232.15 127.04,410.19l0 568.51c-0.28,110.51 -61.19,159.61 -244.23,156.13l0 -708.54c0,-105.57 -25.05,-186.98 -74.7,-243.79 -48.32,-59.49 -119.43,-89.01 -213.81,-89.01 -95.29,0 -176.25,30.85 -242.45,93.03 -66.64,61.73 -99.75,152.98 -99.75,272.41z"/>
    <path class="fil0" d="M11665.32 422.36l0 259.56 72 0c134.87,-1.8 188.96,63.45 191.02,217.39l-263.02 0 0 1035.98c-153.08,1.53 -237.41,-37.15 -244.23,-204.81l0 -831.16 -45.83 0c-163.93,-1.71 -176.7,-105.31 -179.61,-217.39l225.45 0 0 -458.95c152.34,-3.25 235.93,42.57 244.23,199.39z"/>
   </g>
   <g>
    <polygon class="fil1" points="1074,528.92 733.16,950.07 367.16,546.44 719.33,116.73 "/>
    <polygon class="fil1" points="419.74,1469.71 1147.46,601.83 1462.44,980.36 1350.83,1115.43 720.24,1845.4 "/>
    <polygon class="fil1" points="295.09,618.51 659.92,1024.14 349.31,1399.56 -0.02,979.71 "/>
   </g>
   <path class="fil1" d="M863.94 0c489.29,0 1098.17,329.58 1098.17,968.23 0,693.51 -517.78,993.9 -1098.17,993.9l826.96 -971.59 -826.96 -990.54z"/>
  </g>
 </g>
</svg>
