<?xml version="1.0" encoding="UTF-8"?>
<!DOCTYPE svg PUBLIC "-//W3C//DTD SVG 1.1//EN" "http://www.w3.org/Graphics/SVG/1.1/DTD/svg11.dtd">
<!-- Creator: CorelDRAW 2018 (64-Bit Evaluation Version) -->
<svg xmlns="http://www.w3.org/2000/svg" xml:space="preserve" width="122.203mm" height="23.9794mm" version="1.1" style="shape-rendering:geometricPrecision; text-rendering:geometricPrecision; image-rendering:optimizeQuality; fill-rule:evenodd; clip-rule:evenodd"
viewBox="0 0 46936.7 9210.23"
 xmlns:xlink="http://www.w3.org/1999/xlink">
 <defs>
  <style type="text/css">
   <![CDATA[
    .str0 {stroke:white;stroke-width:76.82;stroke-miterlimit:22.9256}
    .fil1 {fill:white}
    .fil0 {fill:white;fill-rule:nonzero}
   ]]>
  </style>
 </defs>
 <g id="Layer_x0020_1">
  <metadata id="CorelCorpID_0Corel-Layer"/>
  <g id="_2685599088160">
   <path class="fil0" d="M8509.42 3656.64c-278.54,276.97 -418.62,645.69 -418.62,1107.79 0,460.52 148.1,819.57 442.78,1077.22 296.25,257.65 645.69,386.43 1051.44,386.43 405.75,0 751.97,-135.24 1036.96,-405.75 270.48,-268.9 405.75,-623.11 405.75,-1062.7 0,-439.55 -141.69,-801.86 -425.11,-1083.63 -284.99,-281.81 -636.01,-425.11 -1049.79,-428.3 -415.43,-3.23 -763.22,133.62 -1043.42,408.94zm-428.3 -1177l0 710.1c148.14,-252.81 362.27,-447.66 645.65,-582.89 276.97,-149.76 586.12,-223.85 929.07,-223.85 629.6,0 1162.56,219.01 1597.31,658.6 436.33,434.71 653.72,1001.51 653.72,1698.71 0,697.2 -215.78,1262.35 -648.92,1697.1 -431.49,433.14 -966.06,650.49 -1602.11,650.49 -342.95,0 -656.95,-67.6 -943.55,-202.88 -284.99,-135.24 -495.94,-325.25 -631.17,-566.76l0 2108.04c9.68,552.36 -346.49,755.85 -879.18,758.08l0 -5982.92c-5.84,-584.01 380.06,-735.57 879.18,-721.82z"/>
   <path class="fil0" d="M16152.99 5822.33c289.83,-270.51 434.75,-634.4 434.75,-1093.31 0,-458.87 -151.37,-821.18 -452.46,-1085.24 -302.74,-264.02 -658.56,-397.69 -1067.58,-400.91 -410.55,0 -753.51,136.89 -1030.47,410.59 -276.97,270.51 -415.43,624.72 -415.43,1065.92 0,439.55 141.69,801.86 425.07,1083.63 283.38,283.38 632.79,425.07 1048.22,425.07 415.43,0 768.06,-135.24 1057.9,-405.75zm444.39 1168.98l0 -692.36c-141.69,236.68 -355.82,426.68 -642.43,571.6 -286.65,144.92 -599.03,217.36 -940.37,217.36 -624.76,0 -1167.36,-218.97 -1626.23,-656.95 -442.82,-436.33 -665.05,-1003.13 -665.05,-1697.1 0,-695.59 219.01,-1260.73 655.33,-1693.87 438.02,-434.75 983.84,-653.76 1637.56,-656.98 326.86,0 642.47,67.68 943.55,202.88 296.29,148.18 508.84,338.15 637.63,571.64 10.72,-490.41 358.43,-665.2 879.18,-677.88l0 3793.84c-23.78,570.8 -347.95,771.79 -879.18,717.82z"/>
   <path class="fil0" d="M19313.89 2479.64l3074.86 0 0 740.52 -2802.24 3019.98 1913.15 0c539.84,9.22 877.49,249.27 889.09,860.94l-4068.93 0 0 -745.52 2749.43 -3014.95 -2589.45 0c5.42,-551.4 297.36,-824.87 834.09,-860.97z"/>
   <path class="fil0" d="M26633.48 5822.33c289.83,-270.51 434.75,-634.4 434.75,-1093.31 0,-458.87 -151.37,-821.18 -452.46,-1085.24 -302.74,-264.02 -658.56,-397.69 -1067.58,-400.91 -410.55,0 -753.51,136.89 -1030.47,410.59 -276.97,270.51 -415.43,624.72 -415.43,1065.92 0,439.55 141.69,801.86 425.07,1083.63 283.38,283.38 632.83,425.07 1048.22,425.07 415.43,0 768.06,-135.24 1057.9,-405.75zm444.39 1168.98l0 -692.36c-141.69,236.68 -355.82,426.68 -642.43,571.6 -286.61,144.92 -599.03,217.36 -940.37,217.36 -624.76,0 -1167.36,-218.97 -1626.23,-656.95 -442.82,-436.33 -665.05,-1003.13 -665.05,-1697.1 0,-695.59 219.01,-1260.73 655.33,-1693.87 438.02,-434.75 983.84,-653.76 1637.56,-656.98 326.86,0 642.47,67.68 943.55,202.88 296.29,148.18 508.84,338.15 637.63,571.64 63.87,-551.48 389.31,-731.46 879.18,-677.88l0 3816.12c-9.64,493.52 -303.32,724.81 -879.18,695.55z"/>
   <path class="fil0" d="M29444.43 2713.13c301.09,-220.62 665.01,-330.12 1093.31,-330.12 426.68,0 780.93,109.5 1059.51,328.51 280.12,218.97 439.55,531.35 476.58,937.1l-838.89 0c-25.77,-146.53 -103.05,-264.06 -231.84,-352.59 -141.73,-87 -297.9,-130.44 -471.82,-130.44 -172.26,0 -318.79,36.99 -437.98,111.08 -128.79,57.96 -209.29,159.4 -244.7,301.13 -33.84,141.69 -29,254.38 14.48,338.08 72.44,144.96 249.58,257.69 531.35,338.15l665.01 162.62c780.89,191.62 1170.59,631.17 1170.59,1318.77 0,407.33 -169.08,735.84 -508.84,988.61 -342.95,243.13 -743.87,363.89 -1202.81,363.89 -460.48,0 -859.78,-132.01 -1199.55,-397.72 -339.73,-264.02 -512.03,-615.04 -518.48,-1054.63l830.86 0c37.03,233.45 156.17,405.79 359.09,515.26 196.42,123.98 408.98,178.76 637.59,165.85 228.65,-12.87 405.79,-74.05 531.39,-183.56 125.56,-111.12 196.42,-244.74 212.55,-402.53 12.87,-157.82 -35.45,-283.38 -146.57,-378.4 -109.47,-94.99 -260.84,-164.24 -452.46,-207.72l-618.31 -143.3c-436.33,-117.53 -758.35,-289.8 -964.49,-520.1 -198.04,-238.29 -280.15,-536.19 -244.7,-895.24 33.8,-359.09 201.26,-648.88 499.12,-872.69z"/>
   <path class="fil0" d="M40056.9 5830.4c281.77,-276.97 423.46,-640.89 423.46,-1091.74 0,-452.42 -141.69,-813.08 -423.46,-1083.63 -281.77,-272.09 -632.83,-408.94 -1053.1,-412.17 -418.62,0 -771.25,135.24 -1056.25,407.37 -288.22,273.74 -433.1,634.36 -433.1,1083.63 0,447.62 141.69,811.54 423.46,1091.7 281.77,281.77 634.4,421.88 1057.86,421.88 425.07,0 779.36,-138.5 1061.12,-417.04zm-1056.28 1257.51c-656.95,0 -1214.07,-217.36 -1674.59,-652.11 -460.48,-434.75 -690.78,-1001.51 -690.78,-1701.94 0,-700.39 227.04,-1268.8 679.49,-1703.55 452.5,-434.75 1011.19,-650.49 1677.82,-647.31 669.85,0 1230.2,217.39 1682.66,652.15 455.68,437.98 684.29,1004.74 684.29,1698.71 0,693.97 -228.61,1259.16 -685.94,1697.1 -457.3,437.98 -1016.03,656.95 -1672.94,656.95z"/>
   <path class="fil0" d="M43539.2 3656.64c-278.54,276.97 -418.62,645.69 -418.62,1107.79 0,460.52 148.14,819.57 442.78,1077.22 296.29,257.65 645.69,386.43 1051.44,386.43 405.79,0 751.97,-135.24 1036.96,-405.75 270.51,-268.9 405.75,-623.11 405.75,-1062.7 0,-439.55 -141.69,-801.86 -425.11,-1083.63 -284.99,-281.81 -635.97,-425.11 -1049.79,-428.3 -415.43,-3.23 -763.22,133.62 -1043.42,408.94zm-428.3 -1177l0 710.1c148.14,-252.81 362.31,-447.66 645.69,-582.89 276.97,-149.76 586.12,-223.85 929.07,-223.85 629.56,0 1162.52,219.01 1597.27,658.6 436.36,434.71 653.76,1001.51 653.76,1698.71 0,697.2 -215.78,1262.35 -648.92,1697.1 -431.52,433.14 -966.1,650.49 -1602.11,650.49 -342.95,0 -656.95,-67.6 -943.59,-202.88 -284.99,-135.24 -495.9,-325.25 -631.17,-566.76l0 2108.34c-14.17,501.16 -268.56,755.54 -879.14,757.77l0 -5957.19c0,-557.77 404.52,-751.24 879.14,-747.55z"/>
   <path class="fil0" d="M34865.28 699.66l0 1700.75 0 805.63 0 3077.13c-10.6,456.72 -264.98,762.03 -905.11,762.03l0 -3839.16 0 -805.63 0 -1001.94c-2.27,-551.82 379.1,-701.23 905.11,-698.81z"/>
   <g>
    <path class="fil1 str0" d="M582.78 3200.19l3883.91 2956.26 -416.89 103.47c-1120.58,278.12 -2287.75,-22.58 -3102.21,-848.91 -583.01,-591.5 -905.87,-1378.53 -909.18,-2208.9 -8.3,-2077.73 1975.33,-3560.16 3973.13,-3069.49l415.01 101.9 -3843.77 2965.67z"/>
    <path class="fil1 str0" d="M5703.11 6011.19l-3843.77 -2965.67 415.01 -101.9c1997.8,-490.67 3981.43,991.76 3973.13,3069.49 -3.3,830.4 -326.25,1617.52 -909.29,2208.97 -814.46,826.29 -1981.59,1126.92 -3102.1,848.84l-416.89 -103.47 3883.91 -2956.26z"/>
   </g>
   <path class="fil0" d="M34857.9 2426.41l241.36 0c574.14,19.17 753.7,216.74 749.13,818.69l-990.49 0 -919.74 0c-701.15,12.29 -814.08,-305.7 -848.99,-818.69l848.99 0 919.74 0z"/>
  </g>
 </g>
</svg>
