<?xml version="1.0" encoding="UTF-8"?>
<!DOCTYPE svg PUBLIC "-//W3C//DTD SVG 1.1//EN" "http://www.w3.org/Graphics/SVG/1.1/DTD/svg11.dtd">
<!-- Creator: CorelDRAW 2018 (64-Bit Evaluation Version) -->
<svg xmlns="http://www.w3.org/2000/svg" xml:space="preserve" width="72.5893mm" height="11.9062mm" version="1.1" style="shape-rendering:geometricPrecision; text-rendering:geometricPrecision; image-rendering:optimizeQuality; fill-rule:evenodd; clip-rule:evenodd"
viewBox="0 0 6391.8 1048.39"
 xmlns:xlink="http://www.w3.org/1999/xlink">
 <defs>
  <style type="text/css">
   <![CDATA[
    .fil1 {fill:#3D4852}
    .fil0 {fill:#3D4852;fill-rule:nonzero}
   ]]>
  </style>
 </defs>
 <g id="Layer_x0020_1">
  <metadata id="CorelCorpID_0Corel-Layer"/>
  <g id="_2920077210656">
   <g>
    <path class="fil0" d="M1390.67 536.44c-44.7,39.67 -67.16,93.69 -67.16,161.8 0,68.12 21.51,122.14 64.29,162.29 43.02,40.15 95.37,60.23 156.79,60.23 61.66,0 113.29,-21.04 154.64,-63.1 42.06,-41.83 63.1,-95.36 63.1,-160.14 0,-65.01 -20.8,-117.83 -62.39,-158.94 -41.34,-41.11 -92.02,-61.43 -151.76,-60.94 -59.75,0 -112.34,19.59 -157.51,58.79zm-199.09 497.6l0 -934.86c-0.63,-73.98 50.01,-101.14 130.5,-99.07l0 464.86c45.65,-76.72 124.04,-114.96 235.18,-114.96 96.8,0 177.34,32.26 241.63,96.8 64.53,63.81 96.8,147.7 96.8,251.43 0,103.5 -33.46,187.86 -100.14,252.64 -66.93,65.01 -146.75,97.51 -239.73,97.51 -49.48,0 -95.6,-10.75 -138.62,-32.26 -42.79,-21.51 -74.56,-49.72 -95.13,-84.85 -0.13,85.25 -48.29,104.68 -130.5,102.77z"/>
    <path class="fil0" d="M2103.12 1034.05c-72.99,2.28 -128.72,-16.84 -130.5,-80.79l0 -588.9c86.06,-0.99 130.07,19.67 130.5,90l0 61.05c32.74,-110.18 94.64,-165.39 186.18,-165.39 52.82,0 91.54,8.6 116.4,25.57 -18.61,68.55 -55.15,106.47 -118.13,99.19 -0.29,-0.04 -0.59,0 -0.89,0 -59.04,0 -104.21,28.2 -136,84.6 -23.59,42.05 -43.77,95.01 -44.41,159.82l-3.14 314.85z"/>
    <path class="fil0" d="M2463.3 1034.06l0 -565.83c0.43,-76.46 49.41,-103.92 130.5,-103.87l0 580.22c-0.33,70.95 -47.07,90.98 -130.5,89.47z"/>
    <path class="fil0" d="M2464.26 177.93c-16.98,-16.49 -25.33,-36.57 -25.33,-60.23 0,-23.9 8.36,-43.74 25.33,-60.23 18.88,-16.25 40.15,-24.37 64.29,-24.37 24.14,0 45.42,7.88 63.58,23.66 18.4,16.01 27.49,36.33 27.49,60.94 0,24.62 -9.09,44.93 -27.49,60.95 -18.16,15.77 -39.43,23.66 -63.58,23.66 -24.14,0 -45.41,-8.13 -64.29,-24.38z"/>
    <path class="fil0" d="M3336.56 1034.05l0 -940.97c-0.36,-64.7 61.63,-92.76 130.5,-92.97l0 597.51 184.05 -185.76c56.94,-60.45 127.74,-79.74 224.89,-47.51l-287.05 289.2 355.64 380.49c-87.19,14.3 -163.63,7.66 -215.68,-46.48l-261.86 -280.72 0 232.16c-2.76,60.02 -53.32,93.03 -130.5,95.04z"/>
    <path class="fil0" d="M4291.27 350.02c103.25,0 187.86,36.09 254.06,108.03 -58.18,37.95 -123.14,61.48 -217.44,22.55 -0.38,-0.16 -0.82,-0.12 -1.23,-0.18 -12.28,-1.84 -25.04,-2.76 -38.25,-2.76 -62.86,0 -116.4,20.31 -160.37,61.18 -44.22,40.15 -66.45,93.45 -66.45,160.14 0,66.45 22.46,120.46 67.16,162.05 44.93,41.83 98.47,62.62 161.09,62.62 29.37,0 56.36,-4.76 80.94,-14.28 0.79,-0.31 1.66,-0.5 2.39,-0.95 66.03,-40.7 122.37,-20.23 173.61,32.45 -66.68,71.69 -151.05,107.55 -252.63,107.55 -101.82,0 -187.85,-32.26 -258.13,-96.8 -70.02,-65.49 -104.92,-149.61 -104.92,-252.63 0,-103.01 34.41,-186.9 103.01,-251.43 68.84,-64.53 154.4,-97.04 257.17,-97.52z"/>
    <path class="fil0" d="M3032.25 350.02c103.25,0 187.86,36.09 254.06,108.03 -43.89,58.07 -100.21,75.44 -174.62,33.66 -1.17,-0.66 -2.54,-0.93 -3.8,-1.38 -24.04,-8.45 -50.22,-12.68 -78.5,-12.68 -62.86,0 -116.4,20.31 -160.37,61.18 -44.22,40.15 -66.45,93.45 -66.45,160.14 0,66.45 22.46,120.46 67.16,162.05 44.93,41.83 98.47,62.62 161.09,62.62 27.36,0 52.65,-4.13 75.85,-12.4 0.93,-0.33 1.9,-0.62 2.81,-1.02 75.44,-33.85 132.42,-16.89 178.27,30.63 -66.68,71.69 -151.05,107.55 -252.63,107.55 -101.82,0 -187.85,-32.26 -258.12,-96.8 -70.03,-65.49 -104.93,-149.61 -104.93,-252.63 0,-103.01 34.41,-186.9 103.01,-251.43 68.84,-64.53 154.4,-97.04 257.17,-97.52z"/>
    <path class="fil0" d="M5259.35 697.29c0,29.64 -0.48,46.61 -1.44,51.39l-543.5 0c6.45,54.01 30.35,98.71 71.46,134.32 39.67,32.74 84.13,49.23 133.6,49.23 54.23,0 104.19,-10.87 144.43,-38.54 0.69,-0.48 1.44,-0.86 2.05,-1.43 54.25,-50.36 110.82,-50.59 168.77,-20.5 -27.48,56.41 -69.07,99.91 -124.76,130.51 -55.46,30.83 -116.64,46.12 -183.32,46.12 -95.85,0 -177.59,-32.26 -245.7,-97.04 -64.77,-64.77 -97.04,-149.61 -97.04,-254.06 0,-104.69 32.26,-188.58 96.55,-251.91 64.53,-63.1 146.04,-94.89 244.98,-95.36 98.95,0 178.78,32.03 239.48,95.84 62.86,63.58 94.41,147.47 94.41,251.44zm-195.51 -183.08c-37.29,-32.03 -83.65,-48.03 -138.62,-48.03 -55.21,0 -102.53,16.01 -142.21,48.03 -39.2,34.18 -62.14,78.64 -68.59,132.65l415.15 0c-6.45,-54.01 -28.44,-98.47 -65.72,-132.65z"/>
    <path class="fil0" d="M5460.49 672.91l0 361.14c-95.97,0.6 -130.5,-5.74 -130.5,-102.84l0 -566.85c80.94,-0.99 129.18,8.37 130.5,70.03l0 30.59c19.13,-37.28 47.8,-65.97 86.28,-85.56 38.24,-19.6 79.35,-29.4 123.09,-29.4 84.13,0 147.46,25.82 190.24,77.68 44.7,50.9 67.41,124.04 67.88,219.17l0 303.76c-0.15,59.05 -32.69,85.28 -130.5,83.42l0 -378.58c0,-56.41 -13.38,-99.91 -39.92,-130.26 -25.82,-31.79 -63.81,-47.56 -114.24,-47.56 -50.91,0 -94.17,16.48 -129.55,49.71 -35.61,32.99 -53.3,81.74 -53.3,145.55z"/>
    <path class="fil0" d="M6251.26 225.67l0 138.69 38.47 0c72.06,-0.96 100.96,33.9 102.06,116.15l-140.53 0 0 553.54c-81.79,0.82 -126.85,-19.85 -130.5,-109.43l0 -444.1 -24.49 0c-87.59,-0.92 -94.41,-56.27 -95.98,-116.15l120.47 0 0 -245.22c81.4,-1.73 126.06,22.74 130.5,106.54z"/>
   </g>
   <path class="fil1" d="M516.54 554.16c0.04,21.04 -0.02,51.13 4.39,70.65l15.75 75.94c12.03,34.24 32.91,94.14 50.81,121.65l34.76 44.71c5.26,6.77 6.53,12.04 12.84,18.01 15.83,15.02 30.2,34.68 48.97,46.39 11.17,6.97 8.94,7.85 16.97,13.57l17.12 13.57c13.3,10.82 45.98,26.82 61.63,33.49 15.81,6.73 28.21,14.71 44.01,19.88l72.46 20.57c81.47,17.89 91,7.09 145.85,15.81 -2.67,-13.53 -11.85,-15.76 -18.17,-25.39l-16.47 -22.03c-0.32,-0.48 -0.71,-1.13 -1.05,-1.6l-38.01 -49.06c-22.39,-35.68 -50.48,-61.92 -72.46,-97.27 -5.89,-9.47 -4.65,-7.8 -11.9,-16.39 -5.29,-6.25 -9.34,-10.41 -13.19,-15.05 -6.45,-7.77 -2.76,-8.41 -11.06,-17.21 -3.59,-3.81 -4.44,-3.6 -7.33,-8.29l-72.61 -96.16c-5.66,-10.73 -33.7,-39.38 -48.57,-64.76l-20.28 -23.72c-9.65,-9.03 -2.08,-6.48 -10.98,-17.05 -5.89,-7.01 -7.93,-6.62 -13.17,-15.12l-24.48 -31.91c-19.62,-26.1 -10.77,-20.23 14.07,-51.75l71.24 -98.35c7.56,-8.61 6.01,-9.58 11.42,-16.85l12.74 -15.3c12.17,-19.46 29.43,-36.34 41.76,-55.81 2.44,-3.85 4.58,-6 6.85,-8.72 8.91,-10.66 15.99,-22.14 25.17,-33.94 5.61,-7.22 6.18,-10.36 11.43,-16.87l25.17 -31.2c5.67,-9.49 9.73,-10.28 14.86,-18.39l36.12 -51.08c12.86,-20.9 48.19,-68.16 65.52,-86.23 3,-3.13 0.03,0.38 3.5,-4.22l20.18 -28.6c6.07,-8.73 17.18,-16.32 17.74,-27.12l-141.43 16.53c-18.17,4.85 -31.9,8.37 -47.68,16.41 -15.61,7.95 -33,10.73 -47.98,19.02 -21.56,11.92 -42.05,21.74 -61.54,35.75l-45.61 34.11c-6.11,5.82 -4.26,3.14 -10.58,7.34l-78.1 86.31c-16.62,19.67 -21,34.41 -25.03,39.33l-27.24 54.79c-18.69,43.97 -20.4,52.97 -31.07,99.76 -9.81,43.01 -7.43,94.6 -7.33,141.86z"/>
   <path class="fil1" d="M162.05 1002.96l39.66 -52.52c4.48,-6.08 4.71,-8.07 9.62,-13.33l25.9 -33.02c2.52,-4.08 1.73,-2.81 5.55,-7.41l19.68 -26.44c5.32,-9.76 13.48,-15.88 20.25,-25.91 5.21,-7.7 14.61,-18.35 20.49,-25.91 5.08,-6.54 3.99,-7.56 9.24,-13.88 4.57,-5.51 9.39,-6.99 9.18,-16.77 -0.18,-8.41 -14.05,-23.26 -19.04,-29.94l-140.53 -187.95c-7.4,3.04 -15.23,19.08 -20.18,25.88l-40.8 51.65c-6.89,11.43 -13.58,17.88 -20.81,27.76l-8.95 14.36c-3.82,5.15 -7.53,7.19 -11.22,11.79 -7.28,9.1 -12.06,17.38 -20.78,27.79l-29.77 39.81c-4.58,5.82 -9.86,8.23 -9.49,16.08 0.5,10.79 -0.74,1.1 2.79,7.41l3.33 4.86c8.73,13.92 23.04,28.01 32.84,43.76l100.28 136.29c4.91,8.18 14.56,22.97 22.76,25.63z"/>
   <path class="fil1" d="M159.48 477.54c8.09,-3.19 16.4,-19.38 21.24,-25.69l68.28 -90.84c4.17,-6.14 6.08,-6.98 10.62,-12.29 4.18,-4.9 5.75,-8.53 10,-13.23 19.05,-21.02 20.13,-27.44 31.06,-40.78 34.25,-41.82 23.68,-29.52 -15.61,-86.87l-81.86 -107.96c-7.11,-9.15 -13.42,-18.17 -20.23,-28.65 -4.3,-6.61 -16.18,-23.16 -23.49,-25.84 -4.42,2.98 -2,1.44 -5.2,5.44l-44.74 60.72c-11.57,11.76 -30.7,43.5 -40.28,54.79l-30.35 38.96c-4.91,6.23 -4.91,4.15 -10.28,13.01 -18.02,29.78 -36.94,31.22 -24.79,49.47l11.45 17.26c0.33,0.45 0.82,1.02 1.15,1.46 22.89,30.41 63.49,81.61 81.73,111.05 5.06,8.17 5.12,6.58 10.61,12.02 8.26,8.19 3.66,5.77 9.51,13.6 4.43,5.93 7.55,6.84 11.06,11.95 3.08,4.47 6.85,10.34 9.25,14.02l15.46 20.38c0.33,0.43 0.75,1.07 1.07,1.51 0.33,0.45 0.75,1.12 1.07,1.57l3.27 4.93z"/>
   <path class="fil1" d="M241.54 528.2c-18.17,-0.37 -11.02,-5.24 -25.03,-4.45 -0.57,10.67 3.66,10.94 9.91,19.9l72.03 97.55c5.91,6.92 6.94,9.47 11.85,16.4 3.98,5.62 2.44,3.29 6.15,9.25 8.31,13.38 6.95,5.25 13.88,16.7l41.5 56.13c7.76,13.39 5.72,7.2 12.5,15.86 24.36,31.14 27.67,30.58 11,52.22 -4.67,6.05 -9.14,8.22 -13.42,14.52l-33 44.4c-0.33,0.41 -0.87,0.95 -1.22,1.36l-72.3 97.22c-1.63,2.03 -3.14,2.99 -5.92,7.04l-1.95 3.26c-0.29,0.48 -0.62,1.18 -0.92,1.65 -0.29,0.47 -0.63,1.15 -0.93,1.6 -0.3,0.45 -0.69,1.1 -1,1.52 -3.62,4.95 -7.7,7.52 -12.92,15.06 -9.35,13.53 -32.06,41.32 -32.79,48.78 36.67,3.13 69.36,-1.36 102.2,-12.51 0.63,-0.21 1.33,-0.41 1.95,-0.64l52.07 -27.72c23.97,-16.87 49.06,-40.59 65.52,-65.49 5.59,-8.44 18.98,-34.87 21.37,-42.61l16.64 -81.6c1.79,-26.28 -0.64,-66.28 -7.1,-90.74l-14.26 -50.46c-4.39,-15 -34.92,-48.65 -40.83,-59.2 -7.78,-13.89 -2.47,-6.53 -16.27,-14.88 -7.23,-4.37 -9.93,-10.12 -17.21,-16.24 -5.93,-4.98 -13.73,-9.54 -19.48,-13.65 -12.1,-8.65 -19.35,-8.74 -33.08,-16.1 -30.31,-16.23 -25.26,-11.45 -59.34,-20.23 -14.7,-3.79 -10.27,-3.51 -29.63,-3.91z"/>
   <path class="fil1" d="M218.37 518.16l46.37 0.37 65.2 -17.03c19.16,-5.85 27.2,-12.04 43.03,-21.49l19.28 -14.16c6.72,-7.26 9.55,-10.36 16.49,-16.85 33.09,-30.95 63.18,-81.87 65.19,-128.42 1.68,-39.12 4.75,-9.76 4.75,-61.63 -0.01,-18.72 -0.94,-43.81 -4.94,-60.04 -3.96,-16.08 -11.12,-34.85 -15.74,-48.39 -4.08,-11.98 -15.54,-28.89 -23.52,-40.58 -5.93,-8.67 -22.63,-28.17 -31.46,-35.24 -17.42,-13.95 -14.01,-14.09 -36.24,-28.3 -9.4,-6.01 -10.36,-8.7 -19.57,-13.54 -5.94,-3.13 -15.87,-8.32 -22.52,-10.8l-39.01 -14.44c-4.7,-1.41 -2.43,-0.81 -8.12,-1.73 -18.59,-3.03 -46.08,-1.8 -61.03,-5.89 0.97,12.43 13.45,20.66 21.58,31.25l11.54 16.77c3.91,5.63 7.84,11.67 11.34,17.01l53.46 72.41c10.44,16.62 19.08,24.73 30.23,39.08l59.93 81.88c5.27,14.55 -11.06,24.46 -17.76,32.58 -16.72,20.23 -15.92,22.42 -23.61,33.02l-127.1 168.14c-5.43,6.75 -13.96,13.45 -17.77,26.03z"/>
  </g>
 </g>
</svg>
