<?xml version="1.0" encoding="UTF-8"?>
<!DOCTYPE svg PUBLIC "-//W3C//DTD SVG 1.1//EN" "http://www.w3.org/Graphics/SVG/1.1/DTD/svg11.dtd">
<!-- Creator: CorelDRAW 2018 (64-Bit Evaluation Version) -->
<svg xmlns="http://www.w3.org/2000/svg" xml:space="preserve" width="55.1334mm" height="12.0735mm" version="1.1" style="shape-rendering:geometricPrecision; text-rendering:geometricPrecision; image-rendering:optimizeQuality; fill-rule:evenodd; clip-rule:evenodd"
viewBox="0 0 1834.14 401.65"
 xmlns:xlink="http://www.w3.org/1999/xlink">
 <defs>
  <style type="text/css">
   <![CDATA[
    .str0 {stroke:#3B9CFF;stroke-width:6.65;stroke-miterlimit:22.9256}
    .str1 {stroke:#FBD13E;stroke-width:6.65;stroke-miterlimit:22.9256}
    .fil0 {fill:#3B9CFF}
    .fil1 {fill:#FBD13E}
    .fil2 {fill:#3B9CFF;fill-rule:nonzero}
   ]]>
  </style>
 </defs>
 <g id="Layer_x0020_1">
  <metadata id="CorelCorpID_0Corel-Layer"/>
  <g id="_2124142446608">
   <g>
    <path class="fil0 str0" d="M26.87 140.07l167.97 127.85 -18.03 4.47c-48.46,12.03 -98.94,-0.97 -134.16,-36.71 -25.21,-25.58 -39.18,-59.62 -39.32,-95.53 -0.36,-89.85 85.43,-153.97 171.83,-132.75l17.95 4.41 -166.23 128.26z"/>
    <path class="fil1 str1" d="M248.31 261.64l-166.23 -128.26 17.95 -4.41c86.4,-21.22 172.18,42.89 171.83,132.75 -0.14,35.92 -14.11,69.95 -39.33,95.54 -35.22,35.73 -85.7,48.74 -134.16,36.71l-18.03 -4.47 167.97 -127.85z"/>
   </g>
   <g>
    <path class="fil2" d="M382.71 160.46c-12.02,11.94 -18.06,27.85 -18.06,47.78 0,19.86 6.39,35.35 19.1,46.46 12.78,11.11 27.85,16.67 45.35,16.67 17.5,0 32.43,-5.84 44.72,-17.5 11.67,-11.6 17.5,-26.88 17.5,-45.84 0,-18.96 -6.11,-34.58 -18.33,-46.74 -12.29,-12.15 -27.43,-18.33 -45.28,-18.47 -17.92,-0.14 -32.92,5.77 -45,17.64zm-18.47 -50.77l0 30.63c6.39,-10.9 15.63,-19.31 27.85,-25.14 11.94,-6.46 25.28,-9.65 40.07,-9.65 27.15,0 50.14,9.44 68.89,28.4 18.82,18.75 28.2,43.2 28.2,73.27 0,30.07 -9.31,54.45 -27.99,73.2 -18.61,18.68 -41.67,28.05 -69.1,28.05 -14.79,0 -28.33,-2.92 -40.7,-8.75 -12.29,-5.84 -21.39,-14.03 -27.22,-24.44l0 88.01c0.63,22.58 -13.83,35.24 -37.92,35.61l0 -259.58c0.28,-25.34 17.06,-30.48 37.92,-29.59z"/>
    <path class="fil2" d="M696.97 258.42c12.5,-11.67 18.75,-27.36 18.75,-47.15 0,-19.79 -6.53,-35.42 -19.51,-46.81 -13.06,-11.39 -28.41,-17.15 -46.05,-17.29 -17.71,0 -32.5,5.9 -44.45,17.71 -11.95,11.67 -17.92,26.95 -17.92,45.97 0,18.96 6.11,34.58 18.33,46.74 12.22,12.22 27.29,18.33 45.21,18.33 17.92,0 33.13,-5.84 45.63,-17.5zm19.17 50.42l0 -29.86c-6.11,10.21 -15.35,18.4 -27.7,24.65 -12.37,6.25 -25.84,9.37 -40.56,9.37 -26.95,0 -50.35,-9.44 -70.14,-28.33 -19.1,-18.82 -28.68,-43.26 -28.68,-73.19 0,-30 9.45,-54.38 28.27,-73.06 18.89,-18.75 42.43,-28.2 70.63,-28.34 14.1,0 27.71,2.92 40.7,8.75 12.78,6.39 21.95,14.58 27.5,24.65 0.67,-22.97 14.85,-29.69 37.92,-29.24l0 161.55c-0.44,22.68 -14.44,32.24 -37.92,33.04z"/>
    <path class="fil2" d="M1113.39 258.42c12.5,-11.67 18.75,-27.36 18.75,-47.15 0,-19.79 -6.53,-35.42 -19.51,-46.81 -13.06,-11.39 -28.4,-17.15 -46.04,-17.29 -17.71,0 -32.5,5.9 -44.45,17.71 -11.94,11.67 -17.91,26.95 -17.91,45.97 0,18.96 6.11,34.58 18.33,46.74 12.23,12.22 27.3,18.33 45.21,18.33 17.92,0 33.12,-5.84 45.62,-17.5zm19.17 50.42l0 -29.86c-6.11,10.21 -15.35,18.4 -27.71,24.65 -12.36,6.25 -25.84,9.37 -40.56,9.37 -26.95,0 -50.35,-9.44 -70.14,-28.33 -19.1,-18.82 -28.68,-43.26 -28.68,-73.19 0,-30 9.44,-54.38 28.26,-73.06 18.89,-18.75 42.43,-28.2 70.63,-28.34 14.1,0 27.71,2.92 40.69,8.75 12.78,6.39 21.95,14.58 27.5,24.65 0.67,-22.97 14.84,-29.69 37.92,-29.24l0 161.55c-0.44,22.68 -14.44,32.24 -37.92,33.04z"/>
    <path class="fil2" d="M1663.18 258.42c12.5,-11.67 18.75,-27.36 18.75,-47.15 0,-19.79 -6.53,-35.42 -19.51,-46.81 -13.06,-11.39 -28.4,-17.15 -46.04,-17.29 -17.71,0 -32.5,5.9 -44.45,17.71 -11.95,11.67 -17.92,26.95 -17.92,45.97 0,18.96 6.11,34.58 18.33,46.74 12.22,12.22 27.29,18.33 45.21,18.33 17.92,0 33.12,-5.84 45.63,-17.5zm19.17 50.42l0 -29.86c-6.11,10.21 -15.35,18.4 -27.71,24.65 -12.36,6.25 -25.84,9.37 -40.56,9.37 -26.95,0 -50.35,-9.44 -70.14,-28.33 -19.1,-18.82 -28.68,-43.26 -28.68,-73.19 0,-30 9.44,-54.38 28.27,-73.06 18.89,-18.75 42.43,-28.2 70.63,-28.34 14.1,0 27.71,2.92 40.7,8.75 12.78,6.39 21.95,14.58 27.5,24.65 0.67,-22.97 14.85,-29.69 37.92,-29.24l0 161.55c-0.44,22.68 -14.44,32.24 -37.92,33.04z"/>
    <path class="fil2" d="M814.63 114.25l130.68 0 0 31.18 -117.99 127.16 117.99 0c-0.3,20.45 -10.51,35.56 -34.51,36.25l-136.82 0 0 -31.39 115.77 -126.95 -109.03 0c-0.64,-21.25 4.76,-35.69 33.91,-36.25z"/>
    <path class="fil2" d="M1361.69 206.21l0 104.66c-23.11,1 -37.35,-4.31 -37.91,-32.08l0 -78.06c0,-16.11 -3.89,-28.54 -11.6,-37.36 -7.43,-9.17 -18.33,-13.75 -32.57,-13.75 -14.1,0 -26.32,4.79 -36.6,14.38 -10.35,9.58 -15.49,23.68 -15.49,42.22l0 72.78c-0.27,23.79 -15.36,31.17 -37.92,31.88l0 -160.77c0.17,-23.35 15.27,-33.28 37.92,-33.82l0 29.58c4.51,-9.3 11.88,-16.94 22.22,-22.85 10.84,-5.9 20.7,-9.1 29.51,-9.65 37.43,-2.29 62.23,10.84 74.31,39.31 13.54,-27.02 35.91,-40.56 67.22,-40.56 24.38,0 42.92,7.5 55.56,22.57 12.99,14.79 19.51,36.05 19.51,63.68l0 112.5c-22.51,-0.22 -37.62,-8.19 -37.92,-31.48l0 -78.25c0,-15.83 -3.96,-28.4 -11.81,-37.78 -8.47,-9.17 -19.93,-13.82 -34.31,-13.96 -14.31,-0.14 -26.25,5 -35.7,15.42 -9.51,10.42 -14.3,24.17 -14.45,41.39z"/>
    <path class="fil2" d="M1740.19 309.16l0 -273.01c0.13,-19.52 16.44,-32.23 37.72,-33.37l0 268.55c0.03,21.82 -14.95,38.09 -37.72,37.82z"/>
    <path class="fil2" d="M1796.41 309.16l0 -273.01c0.12,-19.52 16.44,-32.23 37.72,-33.37l0 268.55c0.04,21.82 -14.95,38.09 -37.72,37.82z"/>
   </g>
  </g>
 </g>
</svg>
