<svg id="Layer_1" data-name="Layer 1" xmlns="http://www.w3.org/2000/svg" viewBox="0 0 200 45">
    <defs>
        <style>.cls-1{fill: #FFEFEF;}.cls-2{fill:#fff;}</style>
    </defs>
    <rect class="cls-1" width="200" height="45"/>
    <path class="cls-2"
          d="M56.63,11.25a11,11,0,0,0-4.91-1,13.8,13.8,0,0,0-4.5.8,18.4,18.4,0,0,0-2.7,1.2V.47H39.4V35.22h5.07l.05-19a13.26,13.26,0,0,1,2.79-1.17,10.44,10.44,0,0,1,2.95-.44,5.34,5.34,0,0,1,4.18,1.56,6.53,6.53,0,0,1,1.41,4.52V35.22H61V20.08a12.21,12.21,0,0,0-1.14-5.67A7,7,0,0,0,56.63,11.25Z"/>
    <path class="cls-2"
          d="M85.2,11.69a13.41,13.41,0,0,0-6.67-1.49q-5.64,0-8.64,3.09T66.9,23q0,6.24,2.9,9.59T78.63,36q5.64,0,8.69-3.38t3-9.57a17.14,17.14,0,0,0-1.27-7A9,9,0,0,0,85.2,11.69Zm-.56,15.79a6.09,6.09,0,0,1-2.12,3,6.4,6.4,0,0,1-3.94,1.1c-2.4,0-4.1-.77-5.11-2.29A11.46,11.46,0,0,1,72,23a14.27,14.27,0,0,1,.64-4.57,5.53,5.53,0,0,1,2.09-2.92,6.66,6.66,0,0,1,3.89-1,7.13,7.13,0,0,1,3.9.94,5.57,5.57,0,0,1,2.14,2.85A14.24,14.24,0,0,1,85.3,23,13.94,13.94,0,0,1,84.64,27.48Z"/>
    <path class="cls-2"
          d="M112.84,11.42a14.17,14.17,0,0,0-5.93-1.22,26.11,26.11,0,0,0-3.73.27,15.24,15.24,0,0,0-3.43.88A6.55,6.55,0,0,0,97.25,13a3.54,3.54,0,0,0-1,2.53V45h5.06V34.55a10.41,10.41,0,0,0,1.07.45,17.17,17.17,0,0,0,2.72.68,14.39,14.39,0,0,0,2.29.22,11.62,11.62,0,0,0,6.13-1.53A9.86,9.86,0,0,0,117.42,30a15.43,15.43,0,0,0,1.31-6.59,16.41,16.41,0,0,0-1.6-7.91A9.24,9.24,0,0,0,112.84,11.42Zm-.09,16.4a6,6,0,0,1-2.34,2.82,7.22,7.22,0,0,1-3.89,1,9.69,9.69,0,0,1-2.58-.37,11.86,11.86,0,0,1-2.58-1.05V16.63c0-.65.49-1.15,1.48-1.49a12.38,12.38,0,0,1,3.92-.51A6.7,6.7,0,0,1,111,15.77a6,6,0,0,1,2,3.14,16.53,16.53,0,0,1,.55,4.43A11.71,11.71,0,0,1,112.75,27.82Z"/>
    <path class="cls-2"
          d="M141.17,11.42a14.24,14.24,0,0,0-5.94-1.22,26,26,0,0,0-3.72.27,15.1,15.1,0,0,0-3.43.88A6.59,6.59,0,0,0,125.57,13a3.58,3.58,0,0,0-.95,2.53V45h5.06V34.55a10.41,10.41,0,0,0,1.07.45,17,17,0,0,0,2.73.68,14.39,14.39,0,0,0,2.28.22,11.65,11.65,0,0,0,6.14-1.53A9.84,9.84,0,0,0,145.74,30a15.28,15.28,0,0,0,1.32-6.59,16.4,16.4,0,0,0-1.61-7.91A9.27,9.27,0,0,0,141.17,11.42Zm-.1,16.4a6,6,0,0,1-2.34,2.82,7.2,7.2,0,0,1-3.89,1,9.8,9.8,0,0,1-2.58-.37,11.86,11.86,0,0,1-2.58-1.05V16.63c0-.65.5-1.15,1.49-1.49a12.27,12.27,0,0,1,3.91-.51,6.68,6.68,0,0,1,4.19,1.14,5.9,5.9,0,0,1,2,3.14,16.52,16.52,0,0,1,.56,4.43A11.52,11.52,0,0,1,141.07,27.82Z"/>
    <rect class="cls-2" x="152.94" y="1.54" width="5.06" height="33.68"/>
    <path class="cls-2"
          d="M179.64,31.23a15.9,15.9,0,0,1-3.09.29A7.14,7.14,0,0,1,171,29.4a8.38,8.38,0,0,1-1.87-5.23h17.15a21.5,21.5,0,0,0-1-7.32,9.83,9.83,0,0,0-3.53-4.9,10.75,10.75,0,0,0-6.38-1.75q-5.35,0-8.34,3.29t-3,9.66a15.53,15.53,0,0,0,1.44,7,9.81,9.81,0,0,0,4.09,4.33A12.77,12.77,0,0,0,175.72,36a23.55,23.55,0,0,0,4.82-.46,20.66,20.66,0,0,0,3.84-1.2V29.57c-.58.29-1.28.59-2.09.9A17.57,17.57,0,0,1,179.64,31.23Zm-7.81-16a6.44,6.44,0,0,1,3.31-.8,5.35,5.35,0,0,1,4.42,1.73A8,8,0,0,1,181,20.37H169.21a11.28,11.28,0,0,1,.55-2.45A5,5,0,0,1,171.83,15.19Z"/>
    <path class="cls-2"
          d="M31.73,16.62l-4.81-4.35,7.83-7.83a.5.5,0,0,0,0-.69,13,13,0,0,0-18-.2.1.1,0,0,0-.05,0l-.15.14,0,0a0,0,0,0,0,0,0A10.94,10.94,0,0,0,17.28,19l4.89,4.47-7.68,7.69a.48.48,0,0,0,0,.7l.15.14a12.94,12.94,0,0,0,9,3.7,12.49,12.49,0,0,0,8.67-3.47l0,0,.17-.16v0h0A11,11,0,0,0,31.73,16.62ZM17.06,5,30.91,17.52A9.8,9.8,0,0,1,32,30.8L18.1,18.1A9.7,9.7,0,0,1,17.06,5Z"/>
</svg>
