<?xml version="1.0" encoding="UTF-8"?>
<!DOCTYPE svg PUBLIC "-//W3C//DTD SVG 1.1//EN" "http://www.w3.org/Graphics/SVG/1.1/DTD/svg11.dtd">
<!-- Creator: CorelDRAW 2018 (64-Bit Evaluation Version) -->
<svg xmlns="http://www.w3.org/2000/svg" xml:space="preserve" width="38.3229mm" height="11.9062mm" version="1.1" style="shape-rendering:geometricPrecision; text-rendering:geometricPrecision; image-rendering:optimizeQuality; fill-rule:evenodd; clip-rule:evenodd"
viewBox="0 0 941.43 292.48"
 xmlns:xlink="http://www.w3.org/1999/xlink">
 <defs>
  <style type="text/css">
   <![CDATA[
    .fil1 {fill:white}
    .fil0 {fill:white;fill-rule:nonzero}
   ]]>
  </style>
 </defs>
 <g id="Layer_x0020_1">
  <metadata id="CorelCorpID_0Corel-Layer"/>
  <path class="fil0" d="M941.43 200.12c0,6.86 -0.27,12.69 -0.8,17.5l-142.15 0c0.27,15.09 5.57,26.93 15.93,35.51 10.35,8.58 24.29,12.86 41.81,12.86 12.21,0 22.61,-1.65 30.66,-6 14.04,-7.6 19.61,-18 52.56,-17.32 -3.18,14.63 -12.47,26.53 -27.87,35.68 -15.39,9.15 -33.84,13.72 -55.34,13.72 -28.14,0 -50.5,-7.49 -67.09,-22.47 -16.59,-14.98 -24.88,-35.28 -24.88,-60.89 0,-16.47 3.71,-30.99 11.15,-43.57 7.43,-12.58 17.98,-22.3 31.65,-29.16 13.67,-6.86 29.53,-10.29 47.58,-10.29 16.99,0 32.05,3.14 45.19,9.43 13.14,6.29 23.36,15.1 30.66,26.41 7.3,11.32 10.95,24.19 10.95,38.6zm-33.84 -5.49c0,-13.95 -4.71,-24.93 -14.13,-32.93 -9.42,-8.01 -22.5,-12.01 -39.22,-12.01 -16.45,0 -29.66,4.12 -39.61,12.35 -9.96,8.23 -15.33,19.1 -16.13,32.59l109.1 0z"/>
  <path class="fil0" d="M670 292.48c-14.6,0 -27.68,-2.23 -39.22,-6.69 -11.55,-4.46 -20.57,-10.63 -27.08,-18.52 -6.5,-7.89 -9.75,-16.64 -9.75,-26.24 31.05,-0.66 27.13,4.89 46.19,19.72 7.48,5.82 18.58,7.72 31.85,7.72 10.35,0 18.58,-2.06 24.69,-6.18 6.11,-4.11 9.16,-9.61 9.16,-16.47 0,-5.72 -1.99,-10.35 -5.97,-13.89 -3.98,-3.54 -11.15,-6.46 -21.5,-8.75l-37.43 -8.23c-13.54,-3.2 -23.82,-8.52 -30.86,-15.95 -7.03,-7.43 -10.55,-16.64 -10.55,-27.61 0,-13.27 6.44,-24.13 19.31,-32.59 12.87,-8.46 29.26,-12.69 49.17,-12.69 21.77,0 38.95,4.23 51.56,12.69 12.61,8.46 18.92,20.12 18.92,34.99 -30.98,1.87 -29.36,-7.83 -43.8,-18.01 -6.54,-4.61 -15.93,-6.69 -27.87,-6.69 -9.82,0 -17.78,1.89 -23.89,5.66 -6.1,3.77 -9.16,8.86 -9.16,15.27 0,5.26 2.06,9.66 6.18,13.21 4.11,3.54 10.95,6.46 20.5,8.75l37.82 8.92c13.54,3.2 24.02,8.58 31.46,16.12 7.43,7.55 11.15,16.81 11.15,27.79 0,14.86 -6.37,26.53 -19.11,34.99 -12.74,8.46 -29.99,12.69 -51.76,12.69z"/>
  <path class="fil0" d="M532.36 129.7l-0.44 139.92c0.88,14.43 12.2,17.67 30.87,17.99l0 -136.29c-1.09,-16.69 -13.05,-22 -30.43,-21.62z"/>
  <path class="fil0" d="M548.76 101.63c-5.1,0 -9.34,-1.69 -12.74,-5.06 -3.4,-3.37 -5.09,-7.59 -5.09,-12.65 0,-5.06 1.7,-9.32 5.09,-12.78 3.4,-3.46 7.64,-5.19 12.74,-5.19 5.09,0 9.34,1.73 12.74,5.19 3.39,3.46 5.09,7.72 5.09,12.78 0,5.06 -1.7,9.28 -5.09,12.65 -3.4,3.38 -7.64,5.06 -12.74,5.06z"/>
  <path class="fil0" d="M406.61 291.73c-18.79,-1.51 -35.17,-3.6 -48.98,-10.81 -13.8,-7.2 -24.22,-17.1 -31.25,-29.68 -7.04,-12.58 -10.55,-26.76 -10.55,-42.54 0,-15.55 3.72,-29.67 11.15,-42.37 7.43,-12.7 18.05,-22.7 31.85,-30.02 13.8,-7.32 30,-11.45 48.58,-10.98 18.33,0.47 57.96,6.27 64.5,24.75 1.91,-15.2 11.97,-20.27 26.93,-19.23l0 138.25c-0.75,13.38 -11.19,18.27 -26.93,18.5l0 -18.88c-10.3,16.61 -51.54,24.11 -65.3,23zm4.78 -26.76c19.38,0 34.58,-5.37 45.59,-16.12 11.02,-10.75 16.52,-24.13 16.52,-40.14 0,-16.01 -5.51,-29.45 -16.52,-40.31 -11.02,-10.86 -26.21,-16.29 -45.59,-16.29 -18.58,0 -33.45,5.32 -44.59,15.95 -11.15,10.63 -16.72,24.18 -16.72,40.65 0,16.47 5.57,29.96 16.72,40.48 11.15,10.52 26.01,15.78 44.59,15.78z"/>
  <g id="_1956435858992">
   <polygon class="fil1" points="137.54,164.69 137.54,291.84 11.47,291.84 "/>
   <polygon class="fil1" points="-0,153.73 125.25,153.73 -0,280.05 "/>
   <polygon class="fil1" points="126.4,138.12 -0,138.12 -0,10.63 "/>
   <polygon class="fil1" points="12.62,0 137.54,0 137.54,125.99 "/>
   <path class="fil1" d="M254.63 49.48c21.2,23.86 34.86,54.67 37.22,88.63l-125.09 0 87.88 -88.63z"/>
   <path class="fil1" d="M243.04 37.81l-88.36 89.12 0 -126.6c33.85,2.25 64.58,16.02 88.36,37.47z"/>
  </g>
 </g>
</svg>
