<?xml version="1.0" encoding="UTF-8"?>
<!DOCTYPE svg PUBLIC "-//W3C//DTD SVG 1.1//EN" "http://www.w3.org/Graphics/SVG/1.1/DTD/svg11.dtd">
<!-- Creator: CorelDRAW 2018 (64-Bit Evaluation Version) -->
<svg xmlns="http://www.w3.org/2000/svg" xml:space="preserve" width="140.073mm" height="23.8126mm" version="1.1" style="shape-rendering:geometricPrecision; text-rendering:geometricPrecision; image-rendering:optimizeQuality; fill-rule:evenodd; clip-rule:evenodd"
viewBox="0 0 5133.37 872.68"
 xmlns:xlink="http://www.w3.org/1999/xlink">
 <defs>
  <style type="text/css">
   <![CDATA[
    .fil0 {fill:#F3F6F9}
    .fil1 {fill:#F3F6F9;fill-rule:nonzero}
   ]]>
  </style>
 </defs>
 <g id="Layer_x0020_1">
  <metadata id="CorelCorpID_0Corel-Layer"/>
  <g id="_2131529993488">
   <g>
    <path class="fil0" d="M398.58 34.58c-1.25,2.8 -14.47,13.46 -17.46,16.16 -2.48,2.24 -5.73,5 -8.73,7.85 -2.1,1.99 -6.38,6.45 -9.44,7.65 -12.11,10.39 -23.56,20.82 -34.9,30.91 -20.61,18.36 -46.07,39.98 -65.58,58.04 -1.64,1.52 -2.71,2.48 -4.39,3.91l-34.51 30.49c-1.19,2.51 -2.23,3.05 -4.52,4.99 -1.81,1.53 -2.73,2.31 -4.41,3.87 -2.71,2.52 -6.34,6.76 -10.1,7.9 -1.17,2.01 -37.19,33.23 -42.26,37.85 -4.14,3.77 -9.82,8.84 -14.28,12.64l-28.58 25.29c-8.93,8.15 -18.88,16.72 -27.84,24.72 -0.67,2.54 -1.6,2.22 -5.31,5.61 -2.03,1.85 -3.69,3.21 -5.48,4.83 -2.67,2.42 -7.4,7.66 -11.72,9.84 -6.48,4.95 -12.58,11.83 -18.88,16.33 -0.98,2.32 -1,1.99 -3.06,3.71 -2,1.67 -1.24,1.78 -4.2,2.74 -3.95,4.38 -11.81,10.77 -17.43,15.74 -13.33,11.76 -31.15,22.31 -23.76,40.56 4.05,10 14.11,8.06 26.95,8.06l395.85 0c12.71,0 25.11,1.76 30.86,-3.84 6.85,-6.67 6.74,-15.46 6.74,-25.8l0 -347.44c0,-7.63 1.23,-24.48 -1.37,-30.52 -3.21,-7.44 -16.64,-7.92 -26.33,-2.88 -3.38,1.76 -31.92,26.18 -35.86,30.8z"/>
    <path class="fil0" d="M35.73 525.58c0.96,2.13 10.94,10.13 12.77,11.75l26.6 23.15c16.81,14.63 36.24,32.39 52.78,46.05 12.43,10.27 26.99,24.48 39.45,34.45 4.94,3.94 8.65,8.05 13.24,11.67 10.94,8.65 29.11,25.25 39.03,34.17l19.8 17.44c10.58,8.19 22.33,19.61 33,28.56 8.59,7.19 17.93,15.89 26.17,22.88 10.68,9.06 37.19,33.24 46.39,40.06l32.76 28.69c12.61,10.58 43.46,38.88 52.48,45.6 6.15,4.57 14.57,2.37 20.32,-0.64 4.1,-2.14 11.47,-7.83 10.66,-12.83 2.86,-3.37 2.22,-6.12 2.21,-10.6l0 -349.38c0.01,-4.79 -0.11,-7.04 -0.96,-11.4 -0.77,-3.92 -2.8,-6.67 -2.97,-8.67 -1.54,-0.98 -0.73,-0.48 -2.01,-1.73 -6.63,-6.43 -6.83,-4.86 -21.87,-4.86l-417.92 -0.01c-10.54,0.03 -15.78,3.2 -15.99,13.76 -0.22,11.13 1.11,8.2 2.04,13.29 1.47,0.82 1.8,2.14 3.27,3.84 3.5,4.03 19.13,16.32 24.13,21.48 1.24,1.28 0.44,1 1.95,2.11 1.67,1.23 -0.52,0.44 2.69,1.17z"/>
    <path class="fil0" d="M574.87 15.19c-2.42,-0.64 -3.51,-0.98 -5.14,-3.1 -10.22,-6.24 -21.93,-17.06 -34.28,-9.5 -6.67,4.08 -6.17,8.16 -6.16,17.17l-0.01 377.79c-0.02,8.85 1.15,11.89 8.49,15.14 10.21,4.52 17.13,-1.32 25.96,-6.83 2.44,-1.52 4.56,-3.11 7.21,-4.61l32.17 -19.64c8.92,-6.26 12.32,-7.51 16.35,-10.22 0.82,-0.55 0.24,-0.15 1.24,-0.86l38.24 -24.46c2.25,-1.14 5.28,-3.21 7.26,-4.63l36.44 -22.91c13.59,-9.33 36.79,-22.51 51.86,-32.62l36.91 -23.13c9,-5.71 44.61,-27.49 51.7,-32.77 9.22,-6.87 35.46,-14.92 25.24,-29.33 -2.27,-3.21 -26.34,-17.49 -32.83,-21.6l-19.19 -11.59c-0.11,-0.07 -0.29,-0.19 -0.4,-0.27 -20.56,-14.33 -43.16,-27.35 -64.81,-41.25 -9.77,-6.27 -18.97,-11.54 -29.71,-18.54 -8.87,-5.77 -19.47,-12.59 -29.01,-18.37l-24.33 -15.48c-0.45,-0.34 -1.55,-1.15 -1.57,-1.17l-26.2 -15.83c-15.36,-11.12 -47.17,-29.36 -65.45,-41.38z"/>
    <path class="fil0" d="M529.04 478.81c1.14,4.84 0.21,361.01 0.22,379 0,5.91 1.06,8.71 5.18,11.59 12.83,8.97 25.66,-2.62 36.1,-8.91 26.6,-16.03 59.4,-35.09 84.72,-51.58 5.39,-3.51 14.73,-7.99 18.9,-11.16l87.58 -53.56c7.33,-4.27 13.58,-7.7 20.97,-12.64 8.4,-5.62 27.21,-15.71 34.95,-20.99 10.65,-7.26 29.93,-17.38 39.71,-24.56 3.88,-2.85 18.25,-7.36 14.75,-17.51 -1.41,-4.1 -4.72,-6.03 -8.15,-8.24l-53.04 -32.24c-1.47,-0.85 -9.06,-5.05 -9.84,-6.49l-201.34 -121.98c-11.5,-6.59 -22.34,-13.59 -33.73,-20.2 -4.99,-2.9 -11.87,-8.66 -18.33,-9.08 -11.15,-0.73 -13.53,1.94 -17.92,7.71l-0.74 0.85z"/>
    <path class="fil0" d="M362.95 66.24c3.06,-1.2 7.34,-5.66 9.44,-7.65 2.99,-2.84 6.24,-5.61 8.73,-7.85 2.99,-2.69 16.21,-13.36 17.46,-16.16 -1.94,0.76 -1.22,0.33 -3.12,1.68 -1.28,0.91 -1.15,0.74 -2.19,1.86 -4.77,5.08 -29.26,25.17 -30.32,28.12z"/>
    <path class="fil0" d="M69.06 327.14c4.32,-2.18 9.05,-7.43 11.72,-9.84 1.79,-1.62 3.45,-2.98 5.48,-4.83 3.71,-3.39 4.64,-3.07 5.31,-5.61 -3.36,1.55 -9.14,7.09 -11.69,9.63 -3.1,3.09 -9.36,6.81 -10.82,10.65z"/>
    <path class="fil0" d="M204.54 206.35c3.76,-1.15 7.39,-5.39 10.1,-7.9 1.69,-1.56 2.6,-2.34 4.41,-3.87 2.29,-1.94 3.33,-2.48 4.52,-4.99 -3.64,1.17 -1.96,1.03 -5.43,4.18 -1.63,1.48 -2.88,2.43 -4.52,3.82 -1.88,1.59 -3.3,3.16 -4.63,4.31 -2.56,2.2 -3.05,1.97 -4.45,4.45z"/>
    <path class="fil0" d="M42.92 349.91c2.97,-0.96 2.2,-1.07 4.2,-2.74 2.05,-1.72 2.08,-1.38 3.06,-3.71 -2.04,0.93 -0.43,0.01 -1.78,0.92l-5.48 5.53z"/>
    <path class="fil0" d="M574.87 15.19c-1.55,-2.13 -2.76,-2.48 -5.14,-3.1 1.63,2.12 2.72,2.47 5.14,3.1z"/>
   </g>
   <g>
    <path class="fil0" d="M3343.66 12.02c-0.19,0.44 -2.25,2.1 -2.72,2.51 -0.38,0.35 -0.89,0.78 -1.36,1.22 -0.33,0.31 -0.99,1 -1.47,1.19 -1.88,1.62 -3.66,3.24 -5.43,4.81 -3.21,2.85 -7.17,6.22 -10.2,9.03 -0.25,0.24 -0.42,0.38 -0.68,0.61l-5.37 4.74c-0.18,0.39 -0.34,0.48 -0.7,0.78 -0.28,0.24 -0.42,0.36 -0.69,0.6 -0.42,0.39 -0.99,1.05 -1.57,1.23 -0.18,0.31 -5.78,5.17 -6.57,5.89 -0.65,0.59 -1.53,1.37 -2.22,1.97l-4.45 3.93c-1.39,1.27 -2.94,2.6 -4.33,3.85 -0.11,0.39 -0.25,0.34 -0.83,0.87 -0.32,0.29 -0.58,0.5 -0.85,0.75 -0.42,0.37 -1.15,1.19 -1.83,1.53 -1.01,0.77 -1.96,1.84 -2.94,2.54 -0.15,0.36 -0.16,0.31 -0.48,0.58 -0.31,0.26 -0.19,0.28 -0.65,0.43 -0.62,0.68 -1.84,1.68 -2.72,2.45 -2.07,1.83 -4.84,3.47 -3.69,6.31 0.63,1.55 2.2,1.25 4.19,1.25l61.58 0c1.98,0 3.91,0.27 4.8,-0.6 1.06,-1.04 1.05,-2.4 1.05,-4.01l0 -54.05c0,-1.18 0.19,-3.81 -0.21,-4.75 -0.5,-1.16 -2.59,-1.23 -4.1,-0.45 -0.52,0.27 -4.97,4.07 -5.58,4.79z"/>
    <path class="fil0" d="M3287.22 88.4c0.15,0.33 1.7,1.58 1.99,1.83l4.14 3.6c2.62,2.27 5.64,5.04 8.21,7.16 1.94,1.6 4.2,3.81 6.14,5.36 0.77,0.61 1.34,1.25 2.06,1.82 1.7,1.34 4.53,3.92 6.07,5.31l3.08 2.71c1.65,1.28 3.47,3.05 5.13,4.45 1.34,1.12 2.79,2.47 4.07,3.56 1.66,1.41 5.79,5.17 7.22,6.23l5.1 4.46c1.96,1.65 6.76,6.05 8.16,7.1 0.96,0.71 2.27,0.37 3.16,-0.1 0.64,-0.33 1.78,-1.22 1.66,-1.99 0.45,-0.52 0.35,-0.95 0.34,-1.65l0 -54.35c0,-0.74 -0.02,-1.1 -0.15,-1.77 -0.12,-0.61 -0.44,-1.04 -0.46,-1.35 -0.24,-0.15 -0.11,-0.07 -0.31,-0.27 -1.03,-1 -1.06,-0.76 -3.4,-0.76l-65.01 0c-1.64,0 -2.46,0.5 -2.49,2.14 -0.03,1.73 0.17,1.28 0.32,2.07 0.23,0.13 0.28,0.33 0.51,0.6 0.55,0.63 2.98,2.54 3.75,3.34 0.19,0.2 0.07,0.15 0.3,0.33 0.26,0.19 -0.08,0.07 0.42,0.18z"/>
    <path class="fil0" d="M3371.09 9c-0.38,-0.1 -0.55,-0.15 -0.8,-0.48 -1.59,-0.97 -3.41,-2.65 -5.33,-1.48 -1.04,0.63 -0.96,1.27 -0.96,2.67l0 58.77c-0,1.38 0.18,1.85 1.32,2.35 1.59,0.7 2.66,-0.21 4.04,-1.06 0.38,-0.23 0.71,-0.48 1.13,-0.71l5 -3.06c1.39,-0.97 1.92,-1.17 2.54,-1.59 0.13,-0.09 0.04,-0.03 0.19,-0.14l5.95 -3.8c0.35,-0.18 0.82,-0.5 1.13,-0.72l5.67 -3.56c2.11,-1.45 5.72,-3.5 8.07,-5.08l5.74 -3.6c1.4,-0.89 6.94,-4.28 8.04,-5.1 1.44,-1.07 5.52,-2.32 3.92,-4.56 -0.35,-0.5 -4.1,-2.72 -5.11,-3.36l-2.99 -1.8c-0.02,-0.01 -0.04,-0.03 -0.06,-0.04 -3.2,-2.23 -6.71,-4.25 -10.08,-6.42 -1.52,-0.97 -2.95,-1.8 -4.62,-2.88 -1.38,-0.9 -3.03,-1.96 -4.51,-2.85l-3.79 -2.41c-0.07,-0.05 -0.24,-0.18 -0.24,-0.18l-4.08 -2.46c-2.39,-1.73 -7.34,-4.57 -10.18,-6.44z"/>
    <path class="fil0" d="M3363.96 81.12c0.18,0.75 0.03,56.16 0.03,58.96 0,0.92 0.16,1.36 0.81,1.8 2,1.39 3.99,-0.41 5.61,-1.39 4.14,-2.49 9.24,-5.46 13.18,-8.02 0.84,-0.55 2.29,-1.24 2.94,-1.74l13.62 -8.33c1.14,-0.66 2.11,-1.2 3.26,-1.97 1.31,-0.87 4.23,-2.44 5.44,-3.27 1.66,-1.13 4.65,-2.7 6.18,-3.82 0.6,-0.44 2.84,-1.15 2.29,-2.73 -0.22,-0.64 -0.73,-0.94 -1.26,-1.28l-8.25 -5.02c-0.23,-0.13 -1.41,-0.78 -1.53,-1.01l-31.32 -18.98c-1.79,-1.02 -3.47,-2.11 -5.25,-3.14 -0.78,-0.45 -1.85,-1.35 -2.85,-1.41 -1.73,-0.11 -2.1,0.3 -2.79,1.2l-0.11 0.13z"/>
    <path class="fil0" d="M3338.12 16.95c0.48,-0.19 1.14,-0.88 1.47,-1.19 0.47,-0.44 0.97,-0.87 1.36,-1.22 0.47,-0.42 2.52,-2.08 2.72,-2.51 -0.3,0.12 -0.19,0.05 -0.48,0.26 -0.2,0.14 -0.18,0.12 -0.34,0.29 -0.74,0.79 -4.55,3.91 -4.72,4.38z"/>
    <path class="fil0" d="M3292.41 57.53c0.67,-0.34 1.41,-1.16 1.83,-1.53 0.27,-0.25 0.54,-0.47 0.85,-0.75 0.58,-0.53 0.72,-0.48 0.83,-0.87 -0.52,0.24 -1.42,1.1 -1.82,1.5 -0.48,0.48 -1.45,1.06 -1.68,1.66z"/>
    <path class="fil0" d="M3313.48 38.74c0.59,-0.18 1.15,-0.84 1.57,-1.23 0.26,-0.24 0.4,-0.36 0.69,-0.6 0.36,-0.3 0.52,-0.38 0.7,-0.78 -0.56,0.18 -0.3,0.16 -0.84,0.65 -0.26,0.23 -0.45,0.38 -0.7,0.59 -0.29,0.25 -0.51,0.49 -0.72,0.67 -0.4,0.34 -0.47,0.31 -0.69,0.69z"/>
    <path class="fil0" d="M3288.34 61.07c0.46,-0.15 0.34,-0.16 0.65,-0.43 0.32,-0.27 0.32,-0.22 0.48,-0.58 -0.32,0.14 -0.07,0 -0.28,0.14l-0.85 0.86z"/>
    <path class="fil0" d="M3371.09 9c-0.24,-0.33 -0.43,-0.39 -0.8,-0.48 0.25,0.33 0.42,0.38 0.8,0.48z"/>
   </g>
   <path class="fil1" d="M1110.43 548.81c26.21,25.61 58.83,38.41 98,38.41 39.02,0 72.7,-12.8 101.05,-38.41 28.2,-25.6 42.37,-60.05 42.37,-103.48 0,-43.43 -13.71,-77.88 -41.15,-103.18 -27.43,-25 -60.81,-37.49 -100.13,-37.49 -39.32,0 -72.39,13.41 -99.22,40.24 -26.83,26.98 -40.24,61.42 -40.24,103.03 0,41.76 13.11,75.29 39.32,100.89zm91.29 244.15c101.2,0 151.95,-64.32 151.95,-192.79 0,-1.22 -0.3,-2.74 -0.91,-4.42l0 -5.79c-12.19,24.39 -32.31,43.59 -60.35,57.61 -28.04,14.02 -57.76,21.03 -89.46,21.03 -61.27,0 -112.78,-20.42 -154.39,-61.11 -41.61,-40.84 -62.49,-94.49 -62.49,-160.79 0,-66.45 21.34,-120.25 63.86,-161.25 42.52,-41.15 93.73,-61.88 153.17,-62.18 32.46,0 62.33,7.01 89.31,21.03 26.82,12.19 46.94,30.48 60.35,55.02 -1.79,-55.12 33.66,-66.02 83.21,-66.91l0 362.27c0,185.48 -78.03,278.14 -234.25,277.83 -40.85,0.3 -78.18,-9.75 -112.17,-30.02 -33.83,-20.42 -60.81,-49.08 -80.78,-85.81 41.6,-17.97 75.54,-17.97 99.67,1.1 0.67,0.53 1.31,1.1 1.97,1.64 6.02,4.93 12.58,9.48 19.68,13.57 23,13.27 46.79,19.97 71.63,19.97z"/>
   <path class="fil1" d="M3581.58 548.81c26.21,25.61 58.83,38.41 98,38.41 39.02,0 72.7,-12.8 101.05,-38.41 28.2,-25.6 42.37,-60.05 42.37,-103.48 0,-43.43 -13.71,-77.88 -41.15,-103.18 -27.43,-25 -60.81,-37.49 -100.13,-37.49 -39.32,0 -72.39,13.41 -99.22,40.24 -26.83,26.98 -40.24,61.42 -40.24,103.03 0,41.76 13.11,75.29 39.32,100.89zm91.29 244.15c101.2,0 151.95,-64.32 151.95,-192.79 0,-1.22 -0.3,-2.74 -0.91,-4.42l0 -5.79c-12.19,24.39 -32.31,43.59 -60.35,57.61 -28.04,14.02 -57.76,21.03 -89.46,21.03 -61.27,0 -112.78,-20.42 -154.39,-61.11 -41.61,-40.84 -62.49,-94.49 -62.49,-160.79 0,-66.45 21.34,-120.25 63.86,-161.25 42.52,-41.15 93.73,-61.88 153.17,-62.18 32.46,0 62.33,7.01 89.31,21.03 26.82,12.19 46.94,30.48 60.35,55.02 -1.79,-55.12 33.66,-66.02 83.21,-66.91l0 362.27c0,185.48 -78.03,278.14 -234.25,277.83 -40.85,0.3 -78.18,-9.75 -112.17,-30.02 -33.83,-20.42 -60.81,-49.08 -80.78,-85.81 41.6,-17.97 75.54,-17.97 99.67,1.1 0.67,0.53 1.31,1.1 1.97,1.64 6.02,4.93 12.58,9.48 19.68,13.57 23,13.27 46.79,19.97 71.63,19.97z"/>
   <path class="fil1" d="M1584.47 504.16l0 155.3c-44.42,1.69 -83.21,-3.16 -83.21,-65.5l0 -361.54c49.95,-0.91 82.42,11.79 83.21,60.64l0 35.68c20.88,-70.26 60.35,-105.46 118.72,-105.46 33.68,0 58.37,5.49 74.22,16.31 -5.08,38.15 -25.73,62.4 -73.34,62.58 -0.81,0 -1.62,0.03 -2.43,0.05 -34.75,1.15 -66.85,18.99 -86.85,54.56 -20.3,36.1 -30.33,85.2 -30.33,147.38z"/>
   <path class="fil1" d="M2126.48 548.81c27.43,-25.6 41.15,-60.05 41.15,-103.48 0,-43.43 -14.33,-77.73 -42.82,-102.72 -28.65,-24.99 -62.33,-37.64 -101.05,-37.95 -38.86,0 -71.33,12.95 -97.54,38.86 -26.21,25.6 -39.32,59.13 -39.32,100.89 0,41.61 13.41,75.9 40.24,102.57 26.82,26.82 59.89,40.24 99.22,40.24 39.32,0 72.69,-12.8 100.13,-38.41zm42.06 110.65l0 -65.53c-13.41,22.4 -33.68,40.39 -60.81,54.1 -27.13,13.72 -56.69,20.57 -89.01,20.57 -59.13,0 -110.49,-20.73 -153.93,-62.18 -41.91,-41.3 -62.95,-94.95 -62.95,-160.64 0,-65.84 20.73,-119.33 62.03,-160.33 41.46,-41.15 93.12,-61.88 155,-62.18 30.94,0 60.81,6.4 89.31,19.2 28.04,14.02 48.16,32 60.35,54.1 -3.07,-52.38 26.01,-62.07 83.21,-64.16l0 361.21c0.98,48.13 -37.81,67.52 -83.21,65.83z"/>
   <path class="fil1" d="M2446.49 343.83c-26.37,26.21 -39.63,61.11 -39.63,104.86 0,43.59 14.02,77.57 41.91,101.96 28.04,24.39 61.11,36.58 99.52,36.58 38.41,0 71.17,-12.8 98.15,-38.41 25.6,-25.45 38.4,-58.98 38.4,-100.59 0,-41.61 -13.41,-75.9 -40.23,-102.57 -26.98,-26.67 -60.2,-40.24 -99.37,-40.54 -39.32,-0.3 -72.24,12.65 -98.76,38.71zm-40.54 -111.41l0 67.21c14.02,-23.93 34.29,-42.37 61.11,-55.17 26.21,-14.18 55.48,-21.19 87.94,-21.19 59.59,0 110.03,20.73 151.19,62.33 41.3,41.15 61.88,94.8 61.88,160.79 0,65.99 -20.42,119.49 -61.42,160.63 -40.84,41 -91.44,61.57 -151.64,61.57 -32.46,0 -62.18,-6.4 -89.31,-19.2 -26.98,-12.8 -46.94,-30.78 -59.74,-53.64l0 217.54c1.92,41.78 -34.77,53.84 -83.21,53.74l0 -567.34c2.72,-55.49 36.66,-70.04 83.21,-67.28z"/>
   <path class="fil1" d="M2919.86 429.17l0 230.28c-51.41,1.69 -85.35,-17.7 -83.21,-75.6l0 -583.71c51.2,1.64 85.14,16.19 83.21,70.14l0 226.29c11.58,-23.77 31.4,-42.06 59.44,-54.56 27.89,-12.5 55.02,-18.75 81.23,-18.75 53.95,0 96.48,16.76 127.41,50.45 30.94,33.68 46.18,79.86 45.57,138.84l0 180.09c-1.44,39.4 -30.53,68.49 -83.21,66.81l0 -241.41c0,-35.51 -9.45,-62.79 -28.2,-82.15 -18.13,-20.88 -43.28,-31.25 -75.44,-31.25 -32.16,0 -61.27,10.21 -87.48,30.79 -26.21,20.57 -39.32,51.82 -39.32,93.73z"/>
   <path class="fil1" d="M3307.92 659.46l0 -357.08c1.72,-53.33 40.5,-72.72 83.21,-69.96l0 358.73c0.92,45.76 -28.17,70 -83.21,68.31z"/>
   <path class="fil1" d="M4401.82 444.72c0,18.9 -0.3,29.72 -0.91,32.77l-346.57 0c4.12,34.44 19.35,62.94 45.57,85.65 25.3,20.88 53.65,31.4 85.2,31.4 38.99,0 70.56,-8.82 94.75,-26.45 0.84,-0.61 1.68,-1.22 2.5,-1.87 35.43,-28.13 69.82,-25.7 103.78,-10.24 -17.53,35.97 -44.05,63.7 -79.55,83.21 -35.36,19.66 -74.38,29.41 -116.9,29.41 -61.12,0 -113.24,-20.57 -156.67,-61.88 -41.3,-41.3 -61.88,-95.41 -61.88,-162.01 0,-66.75 20.58,-120.24 61.57,-160.63 41.15,-40.24 93.12,-60.51 156.22,-60.81 63.1,0 114,20.42 152.71,61.11 40.08,40.54 60.2,94.03 60.2,160.33zm-124.67 -116.74c-23.77,-20.42 -53.34,-30.63 -88.39,-30.63 -35.2,0 -65.38,10.21 -90.68,30.63 -24.99,21.79 -39.62,50.14 -43.74,84.59l264.73 0c-4.12,-34.45 -18.14,-62.79 -41.91,-84.59z"/>
   <path class="fil1" d="M4842.76 429.88l0 226.68c-50.06,2.16 -80.9,-9.33 -82.13,-69.47l0 -169.09c0,-34.9 -8.43,-61.82 -25.12,-80.93 -16.1,-19.86 -39.71,-29.79 -70.55,-29.79 -30.53,0 -57.01,10.38 -79.27,31.14 -22.41,20.76 -33.54,51.3 -33.54,91.45l0 157.64c-0.58,51.53 -33.28,67.51 -82.13,69.04l0 -348.23c0.37,-50.57 33.07,-72.08 82.13,-73.25l0 64.08c9.78,-20.16 25.72,-36.7 48.13,-49.49 23.47,-12.79 44.83,-19.71 63.93,-20.91 81.08,-4.96 134.78,23.47 160.95,85.14 29.33,-58.52 77.77,-87.85 145.61,-87.85 52.8,0 92.96,16.25 120.34,48.89 28.13,32.04 42.27,78.07 42.27,137.94l0 243.68c-48.75,-0.48 -81.48,-17.74 -82.13,-68.18l0 -169.48c0,-34.29 -8.58,-61.52 -25.58,-81.83 -18.35,-19.86 -43.17,-29.94 -74.3,-30.24 -30.99,-0.3 -56.86,10.83 -77.32,33.39 -20.61,22.56 -30.99,52.35 -31.29,89.65z"/>
  </g>
 </g>
</svg>
