<?xml version="1.0" encoding="UTF-8"?>
<!DOCTYPE svg PUBLIC "-//W3C//DTD SVG 1.1//EN" "http://www.w3.org/Graphics/SVG/1.1/DTD/svg11.dtd">
<!-- Creator: CorelDRAW X6 -->
<svg xmlns="http://www.w3.org/2000/svg" xml:space="preserve" width="121.428mm" height="23.8124mm" version="1.1" style="shape-rendering:geometricPrecision; text-rendering:geometricPrecision; image-rendering:optimizeQuality; fill-rule:evenodd; clip-rule:evenodd"
viewBox="0 0 5722 1122"
 xmlns:xlink="http://www.w3.org/1999/xlink">
 <defs>
  <style type="text/css">
   <![CDATA[
    .fil1 {fill:none}
    .fil2 {fill:white}
    .fil0 {fill:white;fill-rule:nonzero}
   ]]>
  </style>
 </defs>
 <g id="Layer_x0020_1">
  <metadata id="CorelCorpID_0Corel-Layer"/>
  <g id="_530570688">
   <path class="fil0" d="M1870 298l-313 748c-21,56 -52,81 -144,75l116 -286 -222 -537c72,-28 118,2 144,69l137 332 136 -327c33,-80 76,-100 146,-73l0 0z"/>
   <path class="fil0" d="M2344 709c35,-34 52,-79 52,-134 0,-55 -17,-100 -52,-133 -35,-33 -78,-50 -129,-51 -51,0 -95,16 -130,50 -35,34 -53,78 -53,133 0,55 17,100 52,134 35,35 78,52 130,52 52,0 96,-17 130,-51l0 0zm-130 154c-81,0 -149,-27 -205,-80 -56,-53 -85,-123 -85,-209 0,-86 28,-156 83,-209 55,-53 124,-80 206,-79 82,0 151,27 206,80 56,54 84,123 84,209 0,85 -28,154 -84,208 -56,54 -125,81 -205,81l0 0z"/>
   <path class="fil0" d="M3013 597l0 -299c75,1 106,20 108,81l0 485c-69,-1 -107,-21 -108,-95 -16,31 -39,54 -71,70 -32,16 -65,24 -101,24 -69,0 -121,-22 -158,-65 -37,-43 -55,-103 -55,-180l0 -234c0,-60 39,-91 108,-87l0 313c0,46 11,82 32,109 21,26 53,39 96,39 43,0 79,-13 107,-40 29,-27 43,-67 42,-121l0 0z"/>
   <circle class="fil1" cx="547" cy="574" r="547"/>
   <path class="fil2" d="M485 1122c-255,-28 -457,-231 -485,-485l485 0 0 485z"/>
   <path class="fil2" d="M1093 636c-28,255 -231,457 -485,485l0 -485 485 0z"/>
   <path class="fil2" d="M485 514l-485 0c14,-128 72,-242 158,-328l327 327 0 0 0 0z"/>
   <path class="fil2" d="M936 187c86,86 143,200 157,327l-484 0 327 -327z"/>
   <path class="fil0" d="M5146 291c74,-5 114,23 108,97 18,-31 44,-55 79,-71 34,-18 72,-27 114,-27 77,0 142,27 195,81 53,53 80,123 80,208 0,85 -26,155 -79,208 -53,53 -118,80 -196,80 -42,0 -80,-8 -115,-25 -35,-17 -61,-40 -77,-69l0 351c-74,4 -109,-18 -108,-79l0 -751zm160 154c-34,34 -51,79 -51,136 0,56 18,100 54,132 36,32 79,47 129,47 50,0 92,-17 127,-50 33,-33 50,-76 50,-130 0,-54 -17,-98 -52,-133 -35,-34 -78,-52 -128,-52 -51,0 -93,16 -128,50z"/>
   <path class="fil0" d="M5009 575c0,24 0,38 -1,42l-448 0c5,45 25,81 59,111 33,27 69,41 110,41 56,0 100,-14 132,-42 41,-36 64,-49 128,-8 -23,47 -57,82 -103,108 -46,25 -96,38 -151,38 -79,0 -146,-27 -203,-80 -53,-53 -80,-123 -80,-209 0,-86 27,-155 80,-208 53,-52 120,-78 202,-79 82,0 147,26 197,79 52,52 78,122 78,207zm-161 -151c-31,-26 -69,-40 -114,-40 -46,0 -85,13 -117,40 -32,28 -51,65 -57,109l342 0c-5,-45 -23,-81 -54,-109z"/>
   <path class="fil0" d="M4316 575c0,24 0,38 -1,42l-448 0c5,45 25,81 59,111 33,27 69,41 110,41 56,0 98,-17 133,-42 38,-28 67,-52 127,-7 -23,47 -57,82 -103,108 -46,25 -96,38 -151,38 -79,0 -146,-27 -203,-80 -53,-53 -80,-123 -80,-209 0,-86 27,-155 80,-208 53,-52 120,-78 202,-79 82,0 147,26 197,79 52,52 78,122 78,207zm-161 -151c-31,-26 -69,-40 -114,-40 -46,0 -85,13 -117,40 -32,28 -51,65 -57,109l342 0c-5,-45 -23,-81 -54,-109z"/>
   <path class="fil0" d="M3365 864c-70,0 -106,-25 -108,-87l0 -776c73,2 108,28 108,98l0 394 151 -153c54,-49 116,-60 186,-40l-237 238 304 325c-67,2 -134,11 -199,-61l-205 -220 0 281z"/>
  </g>
 </g>
</svg>
