<svg id="Layer_1" data-name="Layer 1" xmlns="http://www.w3.org/2000/svg" viewBox="0 0 200 45">
    <defs>
        <style>.cls-1{fill:#fff;}</style>
    </defs>
    <rect width="200" height="45"/>
    <path class="cls-1"
          d="M56.27,11.1a11.09,11.09,0,0,0-4.93-1,13.91,13.91,0,0,0-4.52.8,18,18,0,0,0-2.71,1.21V.28H39V35.16h5.08l0-19a14,14,0,0,1,2.81-1.18,10.5,10.5,0,0,1,2.95-.44,5.42,5.42,0,0,1,4.21,1.57,6.57,6.57,0,0,1,1.41,4.54V35.16h5.13V20a12.15,12.15,0,0,0-1.15-5.7A7.11,7.11,0,0,0,56.27,11.1Z"/>
    <path class="cls-1"
          d="M85,11.54a13.49,13.49,0,0,0-6.69-1.49q-5.67,0-8.67,3.1t-3,9.75q0,6.26,2.91,9.62t8.87,3.38q5.67,0,8.72-3.4t3-9.6a17.22,17.22,0,0,0-1.27-7A9,9,0,0,0,85,11.54Zm-.56,15.85a6.21,6.21,0,0,1-2.12,3.06,6.48,6.48,0,0,1-4,1.1q-3.61,0-5.13-2.3a11.45,11.45,0,0,1-1.52-6.35,14.69,14.69,0,0,1,.64-4.59,5.63,5.63,0,0,1,2.1-2.94,6.73,6.73,0,0,1,3.91-1,7.14,7.14,0,0,1,3.91,1,5.51,5.51,0,0,1,2.15,2.86,14.32,14.32,0,0,1,.68,4.74A14,14,0,0,1,84.39,27.39Z"/>
    <path class="cls-1"
          d="M112.71,11.27a14.3,14.3,0,0,0-6-1.22,26.24,26.24,0,0,0-3.74.27,15.42,15.42,0,0,0-3.45.88,6.59,6.59,0,0,0-2.51,1.63,3.58,3.58,0,0,0-1,2.54V45h5.09V34.49a10.41,10.41,0,0,0,1.07.45,16.91,16.91,0,0,0,2.74.69,15.67,15.67,0,0,0,2.29.22,11.73,11.73,0,0,0,6.16-1.54A9.91,9.91,0,0,0,117.3,30a15.42,15.42,0,0,0,1.32-6.62A16.5,16.5,0,0,0,117,15.4,9.3,9.3,0,0,0,112.71,11.27Zm-.1,16.47a5.94,5.94,0,0,1-2.35,2.83,7.23,7.23,0,0,1-3.9,1,9.76,9.76,0,0,1-2.59-.37,11.93,11.93,0,0,1-2.59-1.05V16.5c0-.65.49-1.15,1.49-1.49a12.37,12.37,0,0,1,3.93-.52,6.73,6.73,0,0,1,4.2,1.15,5.94,5.94,0,0,1,2,3.15,16.67,16.67,0,0,1,.56,4.45A11.62,11.62,0,0,1,112.61,27.74Z"/>
    <path class="cls-1"
          d="M141.14,11.27a14.3,14.3,0,0,0-6-1.22,26.35,26.35,0,0,0-3.74.27,15.33,15.33,0,0,0-3.44.88,6.71,6.71,0,0,0-2.52,1.63,3.62,3.62,0,0,0-1,2.54V45h5.08V34.49a9.73,9.73,0,0,0,1.08.45,17.07,17.07,0,0,0,2.73.69,15.79,15.79,0,0,0,2.3.22,11.76,11.76,0,0,0,6.16-1.54A9.91,9.91,0,0,0,145.74,30a15.42,15.42,0,0,0,1.32-6.62,16.37,16.37,0,0,0-1.62-7.94A9.26,9.26,0,0,0,141.14,11.27Zm-.09,16.47a6.05,6.05,0,0,1-2.35,2.83,7.27,7.27,0,0,1-3.91,1,9.82,9.82,0,0,1-2.59-.37,12.14,12.14,0,0,1-2.59-1.05V16.5c0-.65.5-1.15,1.49-1.49a12.48,12.48,0,0,1,3.94-.52,6.73,6.73,0,0,1,4.2,1.15,6,6,0,0,1,2,3.15,16.67,16.67,0,0,1,.56,4.45A11.62,11.62,0,0,1,141.05,27.74Z"/>
    <rect class="cls-1" x="152.97" y="1.35" width="5.08" height="33.81"/>
    <path class="cls-1"
          d="M179.77,31.16a16,16,0,0,1-3.11.29A7.17,7.17,0,0,1,171,29.32a8.42,8.42,0,0,1-1.87-5.25h17.22a21.67,21.67,0,0,0-1-7.35,9.89,9.89,0,0,0-3.55-4.91,10.66,10.66,0,0,0-6.4-1.76q-5.37,0-8.38,3.3t-3,9.7a15.62,15.62,0,0,0,1.44,7,9.88,9.88,0,0,0,4.1,4.35,12.81,12.81,0,0,0,6.28,1.47,23,23,0,0,0,4.84-.47,21.12,21.12,0,0,0,3.86-1.2V29.49a22.21,22.21,0,0,1-2.1.91A17.7,17.7,0,0,1,179.77,31.16Zm-7.85-16.1a6.44,6.44,0,0,1,3.33-.81A5.41,5.41,0,0,1,179.69,16a8,8,0,0,1,1.47,4.28H169.3a11.62,11.62,0,0,1,.55-2.47A5,5,0,0,1,171.92,15.06Z"/>
    <path class="cls-1"
          d="M31.56,16.61l-4.8-4.35,7.82-7.82a.49.49,0,0,0,0-.69,13,13,0,0,0-18-.21l-.05,0-.14.14,0,0,0,0A10.92,10.92,0,0,0,17.13,19L22,23.46l-7.68,7.68a.48.48,0,0,0-.14.36.52.52,0,0,0,.14.35l.16.14a13,13,0,0,0,9,3.7,12.54,12.54,0,0,0,8.67-3.47l.05,0,.17-.16s0,0,0,0h0A11,11,0,0,0,31.56,16.61ZM16.9,5,30.75,17.52a9.78,9.78,0,0,1,1.09,13.27L18,18.09A9.7,9.7,0,0,1,16.9,5Z"/>
</svg>
