<?xml version="1.0" encoding="UTF-8"?>
<!DOCTYPE svg PUBLIC "-//W3C//DTD SVG 1.1//EN" "http://www.w3.org/Graphics/SVG/1.1/DTD/svg11.dtd">
<!-- Creator: CorelDRAW 2018 (64-Bit Evaluation Version) -->
<svg xmlns="http://www.w3.org/2000/svg" xml:space="preserve" width="140.097mm" height="23.8126mm" version="1.1" style="shape-rendering:geometricPrecision; text-rendering:geometricPrecision; image-rendering:optimizeQuality; fill-rule:evenodd; clip-rule:evenodd"
viewBox="0 0 5151.7 875.65"
 xmlns:xlink="http://www.w3.org/1999/xlink">
 <defs>
  <style type="text/css">
   <![CDATA[
    .fil0 {fill:#3D4852}
    .fil1 {fill:white}
    .fil2 {fill:white;fill-rule:nonzero}
   ]]>
  </style>
 </defs>
 <g id="Layer_x0020_1">
  <metadata id="CorelCorpID_0Corel-Layer"/>
  <g id="_2131648106800">
   <rect class="fil0" x="-0" y="-0" width="5151.69" height="875.64"/>
   <g>
    <path class="fil1" d="M400.8 34.7c-1.25,2.81 -14.52,13.51 -17.52,16.21 -2.49,2.24 -5.75,5.02 -8.76,7.87 -2.11,2 -6.4,6.47 -9.48,7.68 -12.15,10.42 -23.64,20.89 -35.02,31.02 -20.68,18.43 -46.23,40.11 -65.8,58.23 -1.64,1.53 -2.72,2.49 -4.41,3.92l-34.62 30.59c-1.2,2.52 -2.24,3.06 -4.53,5 -1.82,1.53 -2.74,2.32 -4.43,3.88 -2.72,2.53 -6.36,6.78 -10.13,7.93 -1.18,2.02 -37.32,33.35 -42.41,37.97 -4.15,3.78 -9.86,8.87 -14.33,12.69l-28.68 25.38c-8.97,8.18 -18.95,16.77 -27.94,24.8 -0.68,2.54 -1.61,2.22 -5.33,5.63 -2.04,1.86 -3.7,3.22 -5.5,4.85 -2.68,2.42 -7.42,7.69 -11.76,9.88 -6.51,4.97 -12.63,11.87 -18.95,16.38 -0.98,2.33 -1.01,1.99 -3.07,3.72 -2.01,1.68 -1.24,1.79 -4.22,2.75 -3.96,4.4 -11.85,10.81 -17.49,15.79 -13.37,11.8 -31.26,22.38 -23.84,40.7 4.07,10.03 14.15,8.08 27.04,8.08l397.2 0c12.76,0 25.2,1.77 30.96,-3.85 6.87,-6.7 6.77,-15.51 6.77,-25.89l0 -348.62c0,-7.65 1.24,-24.56 -1.38,-30.62 -3.22,-7.46 -16.7,-7.94 -26.42,-2.89 -3.39,1.76 -32.03,26.27 -35.98,30.9z"/>
    <path class="fil1" d="M36.72 527.37c0.97,2.13 10.98,10.17 12.82,11.79l26.69 23.23c16.87,14.68 36.36,32.5 52.96,46.2 12.47,10.3 27.09,24.56 39.58,34.56 4.95,3.96 8.68,8.08 13.28,11.71 10.98,8.68 29.2,25.34 39.17,34.29l19.86 17.5c10.62,8.22 22.41,19.68 33.12,28.66 8.62,7.22 17.99,15.94 26.26,22.96 10.72,9.09 37.32,33.35 46.55,40.2l32.87 28.79c12.65,10.61 43.61,39.01 52.66,45.75 6.17,4.59 14.62,2.38 20.39,-0.64 4.11,-2.15 11.51,-7.86 10.69,-12.87 2.87,-3.38 2.23,-6.14 2.21,-10.63l0 -350.57c0.01,-4.8 -0.11,-7.07 -0.96,-11.44 -0.78,-3.93 -2.81,-6.69 -2.98,-8.7 -1.54,-0.99 -0.74,-0.49 -2.02,-1.74 -6.65,-6.45 -6.85,-4.88 -21.94,-4.88l-419.35 -0.01c-10.58,0.03 -15.83,3.21 -16.04,13.8 -0.22,11.17 1.11,8.23 2.04,13.34 1.47,0.82 1.8,2.15 3.28,3.86 3.51,4.04 19.19,16.37 24.21,21.55 1.24,1.28 0.44,1 1.96,2.12 1.68,1.24 -0.53,0.44 2.7,1.17z"/>
    <path class="fil1" d="M577.69 15.24c-2.43,-0.64 -3.53,-0.99 -5.16,-3.11 -10.26,-6.26 -22,-17.11 -34.39,-9.54 -6.69,4.09 -6.19,8.19 -6.19,17.22l-0.01 379.07c-0.02,8.88 1.16,11.93 8.52,15.19 10.24,4.53 17.18,-1.33 26.05,-6.85 2.45,-1.53 4.58,-3.12 7.24,-4.63l32.28 -19.7c8.95,-6.28 12.36,-7.54 16.4,-10.25 0.82,-0.55 0.24,-0.15 1.25,-0.87l38.37 -24.54c2.25,-1.15 5.3,-3.22 7.29,-4.65l36.56 -22.99c13.63,-9.37 36.92,-22.58 52.04,-32.73l37.03 -23.21c9.03,-5.73 44.76,-27.58 51.88,-32.89 9.26,-6.89 35.58,-14.97 25.33,-29.43 -2.28,-3.22 -26.43,-17.55 -32.94,-21.67l-19.26 -11.63c-0.11,-0.07 -0.29,-0.19 -0.4,-0.27 -20.63,-14.38 -43.31,-27.44 -65.03,-41.39 -9.8,-6.29 -19.03,-11.58 -29.81,-18.6 -8.9,-5.79 -19.53,-12.63 -29.11,-18.43l-24.41 -15.53c-0.46,-0.34 -1.55,-1.15 -1.57,-1.17l-26.28 -15.89c-15.41,-11.16 -47.33,-29.46 -65.67,-41.52z"/>
    <path class="fil1" d="M531.71 480.44c1.15,4.85 0.21,362.24 0.22,380.29 0,5.93 1.07,8.74 5.2,11.63 12.87,9 25.75,-2.63 36.22,-8.94 26.69,-16.08 59.6,-35.21 85.01,-51.76 5.41,-3.53 14.78,-8.02 18.97,-11.2l87.88 -53.75c7.35,-4.28 13.62,-7.73 21.04,-12.68 8.43,-5.64 27.3,-15.76 35.07,-21.06 10.69,-7.29 30.03,-17.44 39.84,-24.65 3.89,-2.86 18.31,-7.38 14.8,-17.57 -1.42,-4.11 -4.74,-6.05 -8.17,-8.27l-53.22 -32.34c-1.47,-0.85 -9.09,-5.06 -9.87,-6.51l-202.02 -122.39c-11.54,-6.61 -22.41,-13.64 -33.85,-20.27 -5.01,-2.91 -11.91,-8.69 -18.4,-9.12 -11.19,-0.74 -13.58,1.95 -17.98,7.74l-0.74 0.85z"/>
    <path class="fil1" d="M365.05 66.47c3.07,-1.21 7.37,-5.68 9.48,-7.68 3,-2.85 6.27,-5.63 8.76,-7.87 3,-2.7 16.26,-13.4 17.52,-16.21 -1.95,0.76 -1.23,0.33 -3.13,1.68 -1.29,0.92 -1.15,0.74 -2.2,1.86 -4.78,5.1 -29.36,25.26 -30.42,28.22z"/>
    <path class="fil1" d="M70.16 328.25c4.34,-2.19 9.08,-7.45 11.76,-9.88 1.79,-1.63 3.46,-2.99 5.5,-4.85 3.73,-3.4 4.66,-3.08 5.33,-5.63 -3.37,1.55 -9.17,7.11 -11.73,9.67 -3.11,3.1 -9.4,6.83 -10.86,10.69z"/>
    <path class="fil1" d="M206.1 207.05c3.78,-1.15 7.41,-5.41 10.13,-7.93 1.69,-1.57 2.61,-2.35 4.43,-3.88 2.3,-1.94 3.34,-2.49 4.53,-5 -3.65,1.18 -1.97,1.04 -5.45,4.2 -1.64,1.49 -2.89,2.44 -4.53,3.84 -1.88,1.6 -3.31,3.17 -4.65,4.32 -2.57,2.21 -3.06,1.98 -4.47,4.46z"/>
    <path class="fil1" d="M43.93 351.1c2.98,-0.96 2.21,-1.07 4.22,-2.75 2.06,-1.72 2.08,-1.39 3.07,-3.72 -2.04,0.93 -0.43,0.01 -1.79,0.92l-5.5 5.55z"/>
    <path class="fil1" d="M577.69 15.24c-1.56,-2.14 -2.77,-2.49 -5.16,-3.11 1.63,2.13 2.73,2.47 5.16,3.11z"/>
   </g>
   <g>
    <path class="fil1" d="M3355.9 12.06c-0.19,0.44 -2.26,2.1 -2.72,2.52 -0.39,0.35 -0.89,0.78 -1.36,1.22 -0.33,0.31 -1,1.01 -1.47,1.2 -1.89,1.62 -3.68,3.25 -5.45,4.82 -3.22,2.86 -7.19,6.24 -10.24,9.06 -0.25,0.24 -0.42,0.39 -0.68,0.61l-5.39 4.76c-0.18,0.39 -0.35,0.48 -0.71,0.78 -0.28,0.24 -0.42,0.36 -0.69,0.6 -0.42,0.39 -0.99,1.06 -1.58,1.24 -0.18,0.31 -5.8,5.19 -6.59,5.91 -0.65,0.59 -1.53,1.38 -2.23,1.97l-4.46 3.95c-1.39,1.27 -2.95,2.61 -4.34,3.86 -0.11,0.39 -0.25,0.35 -0.83,0.88 -0.32,0.29 -0.58,0.5 -0.85,0.75 -0.42,0.38 -1.16,1.2 -1.83,1.54 -1.01,0.77 -1.96,1.85 -2.95,2.55 -0.15,0.36 -0.16,0.31 -0.48,0.58 -0.31,0.26 -0.19,0.28 -0.65,0.43 -0.62,0.68 -1.85,1.68 -2.72,2.46 -2.08,1.83 -4.86,3.48 -3.71,6.33 0.63,1.56 2.2,1.26 4.21,1.26l61.78 0c1.99,0 3.92,0.27 4.82,-0.6 1.07,-1.04 1.05,-2.41 1.05,-4.03l0 -54.23c0,-1.19 0.19,-3.82 -0.21,-4.76 -0.5,-1.16 -2.6,-1.24 -4.11,-0.45 -0.53,0.27 -4.98,4.09 -5.6,4.81z"/>
    <path class="fil1" d="M3299.27 88.7c0.15,0.33 1.71,1.58 1.99,1.83l4.15 3.61c2.63,2.28 5.66,5.05 8.24,7.19 1.94,1.6 4.21,3.82 6.16,5.38 0.77,0.61 1.35,1.26 2.07,1.82 1.71,1.35 4.54,3.94 6.09,5.33l3.09 2.72c1.65,1.28 3.49,3.06 5.15,4.46 1.34,1.12 2.8,2.48 4.08,3.57 1.67,1.42 5.81,5.19 7.24,6.25l5.12 4.48c1.97,1.65 6.78,6.07 8.19,7.12 0.96,0.71 2.28,0.37 3.17,-0.1 0.64,-0.33 1.79,-1.22 1.66,-2 0.45,-0.53 0.35,-0.96 0.35,-1.65l0 -54.53c0,-0.75 -0.02,-1.1 -0.15,-1.78 -0.12,-0.61 -0.44,-1.04 -0.46,-1.36 -0.24,-0.15 -0.11,-0.07 -0.31,-0.27 -1.04,-1 -1.07,-0.76 -3.42,-0.76l-65.23 0c-1.65,0 -2.46,0.5 -2.5,2.15 -0.03,1.74 0.17,1.28 0.32,2.07 0.23,0.13 0.28,0.33 0.51,0.6 0.55,0.63 2.99,2.55 3.77,3.35 0.19,0.2 0.07,0.15 0.31,0.33 0.26,0.19 -0.08,0.07 0.42,0.18z"/>
    <path class="fil1" d="M3383.42 9.03c-0.38,-0.1 -0.55,-0.15 -0.8,-0.49 -1.6,-0.97 -3.42,-2.66 -5.35,-1.49 -1.04,0.64 -0.96,1.28 -0.96,2.68l0 58.97c-0,1.38 0.18,1.86 1.32,2.36 1.6,0.71 2.67,-0.21 4.05,-1.07 0.38,-0.24 0.71,-0.48 1.13,-0.72l5.02 -3.07c1.39,-0.97 1.92,-1.17 2.55,-1.59 0.13,-0.09 0.04,-0.03 0.19,-0.14l5.97 -3.82c0.35,-0.18 0.82,-0.5 1.13,-0.72l5.69 -3.57c2.12,-1.46 5.74,-3.52 8.09,-5.09l5.76 -3.61c1.4,-0.89 6.96,-4.29 8.07,-5.12 1.44,-1.07 5.53,-2.33 3.94,-4.58 -0.35,-0.5 -4.11,-2.73 -5.12,-3.37l-3 -1.81c-0.02,-0.01 -0.04,-0.03 -0.06,-0.04 -3.21,-2.24 -6.74,-4.27 -10.12,-6.44 -1.52,-0.98 -2.96,-1.8 -4.64,-2.89 -1.38,-0.9 -3.04,-1.96 -4.53,-2.86l-3.8 -2.42c-0.07,-0.06 -0.24,-0.18 -0.24,-0.18l-4.09 -2.47c-2.4,-1.74 -7.36,-4.58 -10.22,-6.46z"/>
    <path class="fil1" d="M3376.26 81.4c0.18,0.75 0.03,56.35 0.03,59.16 0,0.92 0.17,1.36 0.81,1.81 2,1.4 4,-0.41 5.63,-1.39 4.16,-2.5 9.27,-5.48 13.22,-8.05 0.84,-0.55 2.3,-1.25 2.95,-1.74l13.67 -8.36c1.14,-0.67 2.12,-1.2 3.27,-1.97 1.31,-0.88 4.25,-2.45 5.46,-3.28 1.66,-1.13 4.67,-2.71 6.2,-3.83 0.61,-0.44 2.85,-1.15 2.3,-2.74 -0.22,-0.64 -0.74,-0.94 -1.27,-1.28l-8.28 -5.03c-0.23,-0.13 -1.41,-0.79 -1.53,-1.01l-31.43 -19.04c-1.79,-1.03 -3.49,-2.12 -5.27,-3.15 -0.78,-0.45 -1.85,-1.35 -2.86,-1.42 -1.74,-0.11 -2.11,0.31 -2.8,1.21l-0.11 0.13z"/>
    <path class="fil1" d="M3350.34 17c0.48,-0.19 1.15,-0.89 1.47,-1.2 0.47,-0.44 0.97,-0.88 1.36,-1.22 0.47,-0.42 2.53,-2.08 2.72,-2.52 -0.3,0.12 -0.19,0.05 -0.49,0.26 -0.2,0.14 -0.18,0.12 -0.34,0.29 -0.74,0.79 -4.57,3.93 -4.73,4.39z"/>
    <path class="fil1" d="M3304.47 57.73c0.67,-0.34 1.41,-1.16 1.83,-1.54 0.28,-0.25 0.54,-0.47 0.85,-0.75 0.58,-0.53 0.72,-0.48 0.83,-0.88 -0.53,0.24 -1.43,1.11 -1.83,1.5 -0.49,0.48 -1.46,1.06 -1.69,1.66z"/>
    <path class="fil1" d="M3325.61 38.87c0.59,-0.18 1.15,-0.84 1.58,-1.24 0.26,-0.24 0.4,-0.36 0.69,-0.6 0.36,-0.3 0.52,-0.39 0.71,-0.78 -0.57,0.18 -0.31,0.16 -0.85,0.65 -0.26,0.23 -0.45,0.38 -0.71,0.6 -0.29,0.25 -0.51,0.49 -0.72,0.67 -0.4,0.35 -0.47,0.31 -0.69,0.69z"/>
    <path class="fil1" d="M3300.39 61.28c0.46,-0.15 0.34,-0.17 0.65,-0.43 0.32,-0.27 0.32,-0.22 0.48,-0.58 -0.32,0.14 -0.07,0 -0.28,0.14l-0.85 0.86z"/>
    <path class="fil1" d="M3383.42 9.03c-0.24,-0.33 -0.43,-0.39 -0.8,-0.49 0.25,0.33 0.42,0.39 0.8,0.49z"/>
   </g>
   <path class="fil2" d="M1115.08 550.68c26.3,25.69 59.03,38.54 98.33,38.54 39.15,0 72.95,-12.84 101.39,-38.54 28.29,-25.69 42.51,-60.25 42.51,-103.83 0,-43.58 -13.76,-78.15 -41.29,-103.53 -27.53,-25.08 -61.02,-37.62 -100.47,-37.62 -39.46,0 -72.64,13.46 -99.55,40.37 -26.92,27.07 -40.37,61.63 -40.37,103.38 0,41.9 13.15,75.55 39.45,101.23zm91.6 244.99c101.54,0 152.46,-64.54 152.46,-193.45 0,-1.22 -0.31,-2.75 -0.92,-4.43l0 -5.81c-12.23,24.47 -32.42,43.74 -60.56,57.81 -28.14,14.07 -57.96,21.1 -89.77,21.1 -61.48,0 -113.16,-20.49 -154.91,-61.32 -41.75,-40.98 -62.7,-94.81 -62.7,-161.34 0,-66.68 21.41,-120.66 64.08,-161.79 42.67,-41.29 94.05,-62.09 153.69,-62.39 32.57,0 62.55,7.03 89.61,21.1 26.91,12.23 47.1,30.58 60.56,55.21 -1.8,-55.31 33.77,-66.25 83.5,-67.14l0 363.5c0,186.11 -78.3,279.08 -235.04,278.78 -40.99,0.31 -78.45,-9.79 -112.55,-30.12 -33.95,-20.49 -61.02,-49.24 -81.05,-86.1 41.74,-18.03 75.8,-18.03 100.01,1.1 0.67,0.53 1.31,1.1 1.97,1.65 6.05,4.95 12.62,9.51 19.75,13.62 23.07,13.32 46.95,20.03 71.88,20.03z"/>
   <path class="fil2" d="M3594.62 550.68c26.3,25.69 59.03,38.54 98.33,38.54 39.15,0 72.95,-12.84 101.39,-38.54 28.29,-25.69 42.51,-60.25 42.51,-103.83 0,-43.58 -13.76,-78.15 -41.29,-103.53 -27.53,-25.08 -61.02,-37.62 -100.47,-37.62 -39.46,0 -72.64,13.46 -99.55,40.37 -26.92,27.07 -40.37,61.63 -40.37,103.38 0,41.9 13.15,75.55 39.45,101.23zm91.6 244.99c101.54,0 152.46,-64.54 152.46,-193.45 0,-1.22 -0.31,-2.75 -0.92,-4.43l0 -5.81c-12.23,24.47 -32.42,43.74 -60.56,57.81 -28.14,14.07 -57.96,21.1 -89.77,21.1 -61.48,0 -113.16,-20.49 -154.91,-61.32 -41.75,-40.98 -62.7,-94.81 -62.7,-161.34 0,-66.68 21.41,-120.66 64.08,-161.79 42.67,-41.29 94.05,-62.09 153.69,-62.39 32.57,0 62.55,7.03 89.61,21.1 26.91,12.23 47.1,30.58 60.56,55.21 -1.8,-55.31 33.77,-66.25 83.5,-67.14l0 363.5c0,186.11 -78.3,279.08 -235.04,278.78 -40.99,0.31 -78.45,-9.79 -112.55,-30.12 -33.95,-20.49 -61.02,-49.24 -81.05,-86.1 41.74,-18.03 75.8,-18.03 100.01,1.1 0.67,0.53 1.31,1.1 1.97,1.65 6.05,4.95 12.62,9.51 19.75,13.62 23.07,13.32 46.95,20.03 71.88,20.03z"/>
   <path class="fil2" d="M1590.73 505.87l0 155.83c-44.58,1.7 -83.5,-3.17 -83.5,-65.73l0 -362.77c50.12,-0.91 82.7,11.83 83.5,60.85l0 35.8c20.95,-70.5 60.56,-105.82 119.13,-105.82 33.8,0 58.57,5.5 74.48,16.36 -5.09,38.28 -25.81,62.61 -73.59,62.79 -0.81,0 -1.63,0.03 -2.44,0.06 -34.86,1.15 -67.07,19.06 -87.14,54.75 -20.37,36.22 -30.43,85.48 -30.43,147.88z"/>
   <path class="fil2" d="M2134.57 550.68c27.53,-25.69 41.29,-60.25 41.29,-103.83 0,-43.58 -14.37,-77.99 -42.97,-103.07 -28.75,-25.08 -62.55,-37.77 -101.39,-38.08 -39,0 -71.57,13 -97.87,39 -26.3,25.69 -39.45,59.33 -39.45,101.23 0,41.75 13.46,76.16 40.37,102.92 26.91,26.91 60.1,40.37 99.55,40.37 39.45,0 72.94,-12.84 100.47,-38.54zm42.21 111.02l0 -65.76c-13.46,22.48 -33.8,40.52 -61.02,54.29 -27.22,13.76 -56.89,20.64 -89.31,20.64 -59.33,0 -110.87,-20.8 -154.45,-62.39 -42.06,-41.44 -63.16,-95.27 -63.16,-161.18 0,-66.06 20.8,-119.74 62.24,-160.88 41.6,-41.29 93.44,-62.09 155.53,-62.39 31.04,0 61.02,6.42 89.61,19.27 28.14,14.07 48.32,32.11 60.56,54.29 -3.09,-52.56 26.1,-62.29 83.5,-64.38l0 362.44c0.98,48.29 -37.93,67.75 -83.5,66.06z"/>
   <path class="fil2" d="M2455.68 344.99c-26.46,26.3 -39.76,61.32 -39.76,105.21 0,43.73 14.07,77.84 42.06,102.3 28.14,24.47 61.32,36.7 99.86,36.7 38.54,0 71.42,-12.84 98.48,-38.54 25.69,-25.54 38.53,-59.18 38.53,-100.93 0,-41.75 -13.46,-76.16 -40.37,-102.92 -27.07,-26.76 -60.41,-40.37 -99.71,-40.68 -39.45,-0.31 -72.49,12.69 -99.09,38.84zm-40.68 -111.79l0 67.44c14.07,-24.01 34.41,-42.51 61.32,-55.36 26.3,-14.22 55.67,-21.26 88.24,-21.26 59.79,0 110.41,20.8 151.7,62.55 41.44,41.29 62.09,95.12 62.09,161.34 0,66.22 -20.49,119.89 -61.63,161.18 -40.98,41.14 -91.75,61.78 -152.16,61.78 -32.57,0 -62.4,-6.42 -89.61,-19.27 -27.07,-12.84 -47.1,-30.89 -59.95,-53.83l0 218.28c1.93,41.92 -34.89,54.02 -83.5,53.92l0 -569.27c2.72,-55.68 36.78,-70.28 83.5,-67.51z"/>
   <path class="fil2" d="M2930.65 430.63l0 231.07c-51.58,1.7 -85.64,-17.76 -83.5,-75.85l0 -585.7c51.37,1.65 85.43,16.24 83.5,70.38l0 227.06c11.62,-23.85 31.5,-42.21 59.64,-54.75 27.98,-12.54 55.2,-18.81 81.51,-18.81 54.14,0 96.8,16.82 127.85,50.62 31.04,33.8 46.34,80.13 45.72,139.32l0 180.7c-1.45,39.54 -30.64,68.73 -83.5,67.03l0 -242.23c0,-35.63 -9.48,-63.01 -28.29,-82.43 -18.19,-20.95 -43.43,-31.35 -75.7,-31.35 -32.27,0 -61.48,10.25 -87.78,30.89 -26.3,20.64 -39.45,51.99 -39.45,94.05z"/>
   <path class="fil2" d="M3320.04 661.7l0 -358.3c1.72,-53.51 40.64,-72.97 83.5,-70.2l0 359.95c0.93,45.91 -28.26,70.24 -83.5,68.54z"/>
   <path class="fil2" d="M4417.66 446.23c0,18.96 -0.31,29.82 -0.92,32.88l-347.75 0c4.13,34.56 19.42,63.16 45.72,85.94 25.39,20.95 53.83,31.5 85.48,31.5 39.12,0 70.8,-8.85 95.07,-26.54 0.84,-0.61 1.69,-1.23 2.5,-1.88 35.56,-28.23 70.06,-25.78 104.14,-10.27 -17.59,36.09 -44.2,63.92 -79.83,83.5 -35.48,19.73 -74.63,29.51 -117.29,29.51 -61.33,0 -113.62,-20.64 -157.21,-62.09 -41.44,-41.44 -62.09,-95.73 -62.09,-162.56 0,-66.98 20.65,-120.65 61.78,-161.18 41.29,-40.37 93.44,-60.71 156.75,-61.02 63.31,0 114.39,20.49 153.23,61.32 40.22,40.68 60.4,94.35 60.4,160.88zm-125.09 -117.14c-23.85,-20.49 -53.52,-30.74 -88.7,-30.74 -35.32,0 -65.61,10.24 -90.99,30.74 -25.08,21.87 -39.76,50.31 -43.89,84.87l265.63 0c-4.13,-34.56 -18.2,-63.01 -42.06,-84.87z"/>
   <path class="fil2" d="M4860.09 431.34l0 227.46c-50.23,2.17 -81.18,-9.37 -82.41,-69.71l0 -169.67c0,-35.02 -8.45,-62.04 -25.21,-81.2 -16.15,-19.93 -39.85,-29.89 -70.79,-29.89 -30.64,0 -57.21,10.41 -79.54,31.25 -22.49,20.83 -33.66,51.47 -33.66,91.77l0 158.18c-0.58,51.71 -33.39,67.74 -82.41,69.28l0 -349.41c0.38,-50.75 33.18,-72.32 82.41,-73.5l0 64.3c9.81,-20.22 25.81,-36.83 48.3,-49.66 23.55,-12.83 44.98,-19.77 64.15,-20.98 81.35,-4.98 135.23,23.55 161.5,85.43 29.43,-58.71 78.03,-88.15 146.1,-88.15 52.98,0 93.28,16.3 120.75,49.05 28.22,32.15 42.41,78.34 42.41,138.41l0 244.51c-48.91,-0.48 -81.76,-17.8 -82.41,-68.41l0 -170.06c0,-34.41 -8.6,-61.73 -25.66,-82.11 -18.41,-19.93 -43.31,-30.04 -74.56,-30.34 -31.09,-0.3 -57.05,10.87 -77.58,33.51 -20.68,22.64 -31.09,52.53 -31.4,89.96z"/>
  </g>
 </g>
</svg>
