<?xml version="1.0" encoding="UTF-8"?>
<!DOCTYPE svg PUBLIC "-//W3C//DTD SVG 1.1//EN" "http://www.w3.org/Graphics/SVG/1.1/DTD/svg11.dtd">
<!-- Creator: CorelDRAW 2018 (64-Bit Evaluation Version) -->
<svg xmlns="http://www.w3.org/2000/svg" xml:space="preserve" width="76.8147mm" height="23.865mm" version="1.1" style="shape-rendering:geometricPrecision; text-rendering:geometricPrecision; image-rendering:optimizeQuality; fill-rule:evenodd; clip-rule:evenodd"
viewBox="0 0 2926.41 909.19"
 xmlns:xlink="http://www.w3.org/1999/xlink">
 <defs>
  <style type="text/css">
   <![CDATA[
    .fil2 {fill:#00C2FF}
    .fil4 {fill:#00C2FF}
    .fil3 {fill:#3B9CFF}
    .fil6 {fill:#FBD13E}
    .fil5 {fill:#FEB434}
    .fil0 {fill:#3B9CFF;fill-rule:nonzero}
    .fil1 {fill:#FEB434;fill-rule:nonzero}
   ]]>
  </style>
 </defs>
 <g id="Layer_x0020_1">
  <metadata id="CorelCorpID_0Corel-Layer"/>
  <path class="fil0" d="M2926.41 622.08c0,21.33 -0.83,39.46 -2.47,54.38l-441.86 0c0.83,46.92 17.32,83.72 49.51,110.37 32.17,26.66 75.5,39.99 129.96,39.99 37.95,0 70.28,-5.13 95.3,-18.66 43.63,-23.61 60.96,-55.94 163.38,-53.85 -9.9,45.49 -38.78,82.46 -86.64,110.9 -47.85,28.44 -105.2,42.65 -172.03,42.65 -87.46,0 -156.99,-23.28 -208.56,-69.85 -51.56,-46.57 -77.35,-109.66 -77.35,-189.29 0,-51.18 11.55,-96.32 34.65,-135.43 23.11,-39.1 55.9,-69.32 98.39,-90.64 42.5,-21.33 91.8,-31.99 147.91,-31.99 52.81,0 99.64,9.77 140.48,29.33 40.85,19.55 72.62,46.92 95.3,82.1 22.69,35.2 34.04,75.18 34.04,119.97zm-105.2 -17.06c0,-43.36 -14.65,-77.49 -43.93,-102.37 -29.29,-24.89 -69.94,-37.33 -121.93,-37.33 -51.15,0 -92.2,12.8 -123.14,38.39 -30.95,25.59 -47.65,59.36 -50.13,101.3l339.13 0z"/>
  <path class="fil0" d="M2082.68 909.19c-45.39,0 -86.03,-6.93 -121.92,-20.8 -35.9,-13.86 -63.94,-33.05 -84.17,-57.58 -20.22,-24.53 -30.31,-51.72 -30.31,-81.58 96.51,-2.03 84.34,15.2 143.56,61.32 23.26,18.1 57.77,23.99 99.02,23.99 32.17,0 57.76,-6.39 76.73,-19.19 18.99,-12.79 28.47,-29.86 28.47,-51.19 0,-17.77 -6.19,-32.16 -18.57,-43.18 -12.37,-11.02 -34.66,-20.08 -66.83,-27.19l-116.35 -25.59c-42.07,-9.95 -74.05,-26.48 -95.92,-49.59 -21.86,-23.1 -32.8,-51.72 -32.8,-85.84 0,-41.24 20,-75.01 60.03,-101.3 40.02,-26.31 90.97,-39.46 152.86,-39.46 67.66,0 121.09,13.15 160.27,39.46 39.19,26.29 58.8,62.56 58.8,108.76 -96.3,5.82 -91.27,-24.35 -136.15,-55.99 -20.31,-14.31 -49.51,-20.79 -86.64,-20.79 -30.52,0 -55.27,5.87 -74.25,17.59 -18.98,11.73 -28.47,27.55 -28.47,47.46 0,16.35 6.4,30.03 19.2,41.05 12.78,11.02 34.03,20.08 63.74,27.19l117.57 27.72c42.09,9.95 74.67,26.66 97.78,50.12 23.1,23.46 34.66,52.26 34.66,86.38 0,46.21 -19.8,82.47 -59.41,108.77 -39.61,26.3 -93.23,39.46 -160.89,39.46z"/>
  <path class="fil0" d="M1654.82 403.16l-1.38 434.96c2.74,44.85 37.94,54.91 95.96,55.93l0 -423.67c-3.38,-51.88 -40.55,-68.38 -94.58,-67.22z"/>
  <path class="fil1" d="M1705.82 315.91c-15.84,0 -29.05,-5.24 -39.61,-15.73 -10.56,-10.48 -15.83,-23.59 -15.83,-39.32 0,-15.73 5.28,-28.96 15.83,-39.72 10.57,-10.74 23.77,-16.12 39.61,-16.12 15.84,0 29.04,5.37 39.6,16.12 10.56,10.75 15.84,23.99 15.84,39.72 0,15.73 -5.28,28.84 -15.84,39.32 -10.56,10.49 -23.76,15.73 -39.6,15.73z"/>
  <path class="fil0" d="M1263.96 906.85c-58.4,-4.69 -109.34,-11.2 -152.24,-33.59 -42.91,-22.39 -75.3,-53.15 -97.15,-92.25 -21.88,-39.1 -32.8,-83.18 -32.8,-132.23 0,-48.34 11.55,-92.24 34.65,-131.69 23.11,-39.46 56.12,-70.56 99.02,-93.31 42.9,-22.74 93.26,-35.6 151,-34.12 56.99,1.46 180.15,19.5 200.5,76.93 5.95,-47.24 37.2,-63.01 83.73,-59.79l0 429.74c-2.34,41.59 -34.79,56.8 -83.73,57.52l0 -58.7c-32.01,51.64 -160.21,74.94 -202.98,71.5zm14.85 -83.18c60.24,0 107.48,-16.71 141.72,-50.12 34.24,-33.41 51.36,-75.01 51.36,-124.77 0,-49.77 -17.12,-91.53 -51.36,-125.3 -34.25,-33.77 -81.48,-50.65 -141.72,-50.65 -57.76,0 -103.97,16.53 -138.61,49.59 -34.67,33.06 -51.99,75.18 -51.99,126.36 0,51.18 17.32,93.14 51.99,125.84 34.65,32.7 80.85,49.05 138.61,49.05z"/>
  <g id="_1992364737424">
   <polygon class="fil2" points="427.53,511.93 427.53,907.18 35.65,907.18 "/>
   <polygon class="fil3" points="-0,477.86 389.34,477.86 -0,870.55 "/>
   <polygon class="fil4" points="392.9,429.33 -0,429.33 -0,33.05 "/>
   <polygon class="fil3" points="39.22,0 427.53,0 427.53,391.66 "/>
   <path class="fil5" d="M791.49 153.81c65.9,74.17 108.37,169.95 115.69,275.51l-388.85 0 273.16 -275.51z"/>
   <path class="fil6" d="M755.48 117.53l-274.68 277.04 0 -393.52c105.23,6.99 200.74,49.8 274.68,116.48z"/>
  </g>
 </g>
</svg>
