<?xml version="1.0" encoding="UTF-8"?>
<!DOCTYPE svg PUBLIC "-//W3C//DTD SVG 1.1//EN" "http://www.w3.org/Graphics/SVG/1.1/DTD/svg11.dtd">
<!-- Creator: CorelDRAW 2018 (64-Bit Evaluation Version) -->
<svg xmlns="http://www.w3.org/2000/svg" xml:space="preserve" width="76.8147mm" height="23.865mm" version="1.1" style="shape-rendering:geometricPrecision; text-rendering:geometricPrecision; image-rendering:optimizeQuality; fill-rule:evenodd; clip-rule:evenodd"
viewBox="0 0 9447.02 2935.03"
 xmlns:xlink="http://www.w3.org/1999/xlink">
 <defs>
  <style type="text/css">
   <![CDATA[
    .fil1 {fill:#3D4852}
    .fil0 {fill:#3D4852;fill-rule:nonzero}
   ]]>
  </style>
 </defs>
 <g id="Layer_x0020_1">
  <metadata id="CorelCorpID_0Corel-Layer"/>
  <path class="fil0" d="M9447.02 2008.19c0,68.85 -2.67,127.38 -7.98,175.56l-1426.41 0c2.67,151.47 55.91,270.26 159.83,356.31 103.86,86.05 243.72,129.08 419.54,129.08 122.52,0 226.88,-16.55 307.63,-60.24 140.85,-76.21 196.8,-180.59 527.41,-173.84 -31.96,146.86 -125.2,266.21 -279.7,358.02 -154.46,91.8 -339.6,137.69 -555.34,137.69 -282.35,0 -506.79,-75.16 -673.28,-225.49 -166.46,-150.32 -249.7,-354.01 -249.7,-611.05 0,-165.23 37.28,-310.95 111.85,-437.19 74.59,-126.22 180.44,-223.77 317.63,-292.62 137.2,-68.85 296.34,-103.26 477.48,-103.26 170.47,0 321.65,31.53 453.49,94.67 131.88,63.1 234.43,151.47 307.66,265.04 73.26,113.63 109.89,242.71 109.89,387.29zm-339.62 -55.08c0,-139.98 -47.29,-250.15 -141.83,-330.46 -94.56,-80.35 -225.78,-120.5 -393.6,-120.5 -165.12,0 -297.65,41.32 -397.52,123.93 -99.91,82.62 -153.83,191.62 -161.82,327.03l1094.77 0z"/>
  <path class="fil0" d="M6723.3 2935.03c-146.52,0 -277.71,-22.38 -393.58,-67.15 -115.89,-44.73 -206.42,-106.7 -271.71,-185.88 -65.27,-79.18 -97.86,-166.96 -97.86,-263.35 311.54,-6.57 272.25,49.08 463.44,197.94 75.08,58.44 186.48,77.43 319.66,77.43 103.86,0 186.44,-20.64 247.7,-61.96 61.3,-41.3 91.92,-96.38 91.92,-165.24 0,-57.36 -19.98,-103.82 -59.94,-139.4 -39.93,-35.58 -111.88,-64.84 -215.75,-87.79l-375.59 -82.62c-135.82,-32.14 -239.03,-85.49 -309.65,-160.09 -70.56,-74.57 -105.88,-166.96 -105.88,-277.11 0,-133.12 64.58,-242.13 193.79,-327.02 129.2,-84.92 293.66,-127.39 493.45,-127.39 218.42,0 390.91,42.47 517.4,127.39 126.53,84.88 189.81,201.94 189.81,351.11 -310.88,18.79 -294.63,-78.61 -439.51,-180.74 -65.58,-46.21 -159.83,-67.11 -279.7,-67.11 -98.54,0 -178.43,18.94 -239.71,56.79 -61.26,37.88 -91.92,88.93 -91.92,153.2 0,52.78 20.67,96.95 61.97,132.53 41.26,35.58 109.86,64.84 205.75,87.79l379.56 89.5c135.86,32.14 241.05,86.06 315.65,161.8 74.57,75.73 111.88,168.7 111.88,278.84 0,149.17 -63.93,266.22 -191.79,351.15 -127.87,84.91 -300.98,127.38 -519.39,127.38z"/>
  <path class="fil0" d="M5342.08 1301.47l-4.45 1404.14c8.84,144.78 122.48,177.26 309.77,180.55l0 -1367.7c-10.92,-167.48 -130.92,-220.75 -305.32,-216.99z"/>
  <path class="fil0" d="M5506.71 1019.83c-51.15,0 -93.76,-16.92 -127.88,-50.78 -34.08,-33.85 -51.11,-76.16 -51.11,-126.94 0,-50.77 17.03,-93.49 51.11,-128.21 34.12,-34.68 76.73,-52.02 127.88,-52.02 51.12,0 93.74,17.34 127.83,52.02 34.09,34.72 51.14,77.44 51.14,128.21 0,50.78 -17.05,93.1 -51.14,126.94 -34.09,33.86 -76.71,50.78 -127.83,50.78z"/>
  <path class="fil0" d="M4080.3 2927.49c-188.52,-15.13 -352.97,-36.15 -491.46,-108.44 -138.53,-72.29 -243.08,-171.58 -313.64,-297.79 -70.62,-126.21 -105.88,-268.51 -105.88,-426.87 0,-156.04 37.29,-297.76 111.85,-425.13 74.59,-127.39 181.16,-227.78 319.66,-301.24 138.49,-73.42 301.05,-114.92 487.45,-110.15 183.97,4.72 581.56,62.94 647.26,248.33 19.2,-152.51 120.09,-203.42 270.28,-193.01l0 1387.29c-7.56,134.26 -112.31,183.36 -270.28,185.68l0 -189.49c-103.32,166.69 -517.17,241.91 -655.25,230.82zm47.93 -268.52c194.46,0 346.95,-53.94 457.5,-161.79 110.54,-107.87 165.8,-242.13 165.8,-402.79 0,-160.65 -55.26,-295.48 -165.8,-404.5 -110.55,-109 -263.04,-163.52 -457.5,-163.52 -186.46,0 -335.62,53.38 -447.47,160.09 -111.92,106.73 -167.82,242.7 -167.82,407.93 0,165.23 55.91,300.66 167.82,406.23 111.84,105.56 261.01,158.34 447.47,158.34z"/>
  <g id="_1992332010080">
   <polygon class="fil1" points="1380.15,1652.62 1380.15,2928.56 115.09,2928.56 "/>
   <polygon class="fil1" points="-0,1542.62 1256.85,1542.62 -0,2810.3 "/>
   <polygon class="fil1" points="1268.35,1385.96 -0,1385.96 -0,106.69 "/>
   <polygon class="fil1" points="126.6,0 1380.15,0 1380.15,1264.34 "/>
   <path class="fil1" d="M2555.09 496.54c212.75,239.44 349.85,548.65 373.48,889.41l-1255.29 0 881.81 -889.41z"/>
   <path class="fil1" d="M2438.85 379.42l-886.71 894.34 0 -1270.37c339.7,22.56 648.04,160.78 886.71,376.03z"/>
  </g>
 </g>
</svg>
