<?xml version="1.0" encoding="UTF-8"?>
<!DOCTYPE svg PUBLIC "-//W3C//DTD SVG 1.1//EN" "http://www.w3.org/Graphics/SVG/1.1/DTD/svg11.dtd">
<!-- Creator: CorelDRAW X6 -->
<svg xmlns="http://www.w3.org/2000/svg" xml:space="preserve" width="110.219mm" height="23.8124mm" version="1.1" style="shape-rendering:geometricPrecision; text-rendering:geometricPrecision; image-rendering:optimizeQuality; fill-rule:evenodd; clip-rule:evenodd"
viewBox="0 0 8857 1913"
 xmlns:xlink="http://www.w3.org/1999/xlink">
 <defs>
  <style type="text/css">
   <![CDATA[
    .fil0 {fill:none;fill-rule:nonzero}
    .fil1 {fill:#13ECAB}
    .fil3 {fill:#4C57FF}
    .fil2 {fill:#C834F7}
    .fil4 {fill:#4C57FF;fill-rule:nonzero}
   ]]>
  </style>
 </defs>
 <g id="Layer_x0020_1">
  <metadata id="CorelCorpID_0Corel-Layer"/>
  <g id="_2093610096">
   <circle class="fil0" cx="885" cy="956" r="885"/>
   <path class="fil1" d="M555 1785c-245,-91 -436,-292 -513,-540 -49,-158 55,-189 121,-189l623 0 0 567c9,170 -140,196 -231,162z"/>
   <path class="fil2" d="M1220 1783c245,-91 436,-292 513,-540 50,-158 -55,-190 -121,-189l-623 0 0 567c-9,170 140,196 231,162z"/>
   <path class="fil3" d="M786 857l-645 0c-83,-4 -125,-69 -117,-130 13,-101 68,-191 125,-273 37,-54 119,-108 209,-27l428 429 0 0 0 0 0 1z"/>
   <path class="fil3" d="M989 855l645 0c83,-5 125,-69 117,-130 -13,-101 -68,-191 -125,-273 -37,-54 -119,-109 -209,-27l-428 428 0 0 0 0 0 2z"/>
  </g>
  <path class="fil4" d="M2818 508l-532 1276c-36,96 -89,139 -245,128l198 -488 -379 -916c124,-49 201,3 245,117l234 566 231 -558c57,-135 129,-171 248,-125l0 0 0 0z"/>
  <path class="fil4" d="M3523 1210c58,-59 88,-134 88,-228 0,-94 -30,-171 -88,-228 -59,-57 -133,-86 -220,-86 -87,0 -161,29 -221,86 -60,57 -90,132 -90,228 0,94 30,171 88,228 59,58 133,88 221,88 89,0 165,-28 223,-87l0 0 -1 -1zm-222 263c-137,0 -254,-46 -350,-136 -95,-91 -144,-209 -144,-357 0,-147 47,-266 143,-357 93,-90 211,-135 351,-135 141,0 258,45 352,135 96,92 143,211 143,355 0,146 -47,263 -144,356 -96,92 -213,137 -351,137l0 0 0 2z"/>
  <path class="fil4" d="M4596 1019l0 -510c127,2 179,35 184,139l0 826c-117,-1 -183,-35 -184,-161 -27,52 -67,93 -123,119 -53,29 -110,42 -172,42 -117,0 -206,-37 -270,-110 -62,-74 -94,-176 -94,-307l0 -399c0,-102 67,-155 185,-147l0 533c0,78 18,140 55,186 37,43 90,65 164,65 74,0 134,-23 183,-69 48,-47 72,-114 72,-206l0 0 0 -1z"/>
  <path class="fil4" d="M7875 496c125,-8 194,40 184,164 30,-52 76,-94 134,-122 59,-32 122,-47 194,-47 131,0 243,45 334,137 90,91 136,210 136,355 0,146 -46,263 -136,354 -91,90 -201,136 -335,136 -72,0 -138,-14 -198,-42 -59,-29 -104,-69 -132,-119l0 598c-128,7 -186,-30 -185,-136l0 -1281 4 3zm273 263c-59,59 -87,134 -87,231 0,96 30,171 92,225 62,53 134,80 219,80 86,0 158,-28 217,-85 56,-56 85,-131 85,-222 0,-92 -30,-167 -89,-226 -60,-58 -132,-89 -219,-89 -87,0 -159,29 -218,86z"/>
  <path class="fil4" d="M7741 980c0,42 0,65 -2,72l-764 0c8,75 42,139 101,189 55,46 119,69 187,69 96,0 171,-23 225,-70 68,-61 109,-84 218,-14 -39,79 -98,141 -176,185 -79,43 -165,65 -258,65 -134,0 -250,-45 -346,-136 -90,-90 -135,-211 -135,-357 0,-147 45,-264 135,-353 91,-89 207,-134 346,-134 139,0 251,45 336,134 89,89 133,208 133,353l0 -3zm-275 -258c-52,-45 -117,-67 -194,-67 -77,0 -144,22 -200,67 -55,49 -87,111 -97,186l583 0c-8,-75 -40,-139 -92,-186z"/>
  <path class="fil4" d="M6638 980c0,42 0,65 -2,72l-763 0c8,75 41,139 100,189 55,46 119,69 188,69 95,0 167,-30 226,-72 65,-47 114,-89 216,-13 -39,78 -97,140 -176,184 -79,44 -164,65 -258,65 -134,0 -250,-45 -345,-135 -91,-91 -136,-211 -136,-357 0,-148 45,-265 136,-354 90,-89 206,-134 345,-134 139,0 251,45 337,134 89,89 132,208 132,354l0 -2zm-275 -258c-52,-45 -117,-67 -194,-67 -77,0 -144,22 -199,67 -56,49 -87,111 -97,186l583 0c-9,-75 -41,-139 -93,-186z"/>
  <path class="fil4" d="M5097 1473c-119,0 -181,-42 -185,-149l0 -1324c124,3 185,47 185,168l0 673 258 -260c92,-83 197,-102 316,-67l-403 407 517 555c-114,3 -228,20 -340,-104l-350 -375 0 479 2 -3z"/>
 </g>
</svg>
