<?xml version="1.0" encoding="UTF-8"?>
<!-- Generator: Adobe Illustrator 22.0.1, SVG Export Plug-In . SVG Version: 6.00 Build 0)  -->
<svg version="1.1" xmlns="http://www.w3.org/2000/svg" xmlns:xlink="http://www.w3.org/1999/xlink" x="0px" y="0px"
     viewBox="0 0 522.6 667" style="enable-background:new 0 0 522.6 667;" xml:space="preserve">
<style type="text/css">
	.st0{opacity:8.000000e-02;}
	.st1{fill:#081922;}
	.st2{fill:rgb(236, 236, 236, 0.75);stroke:#081922;stroke-width:5;stroke-linecap:round;stroke-linejoin:round;stroke-miterlimit:10;}
	.st3{fill:#F6AB1B;}
	.st4{fill:#F6AB1B;}
	.st5{fill:none;stroke:#081922;stroke-width:5;stroke-linecap:round;stroke-linejoin:round;stroke-miterlimit:10;}
	.st6{fill:#e2f0cd;}
	.st7{opacity:6.000000e-02;fill:none;stroke:#000000;stroke-width:8;stroke-linecap:round;stroke-miterlimit:10;}
	.st8{fill:none;stroke:#081922;stroke-width:2.2555;stroke-linecap:round;stroke-linejoin:round;stroke-miterlimit:10;}
	.st9{fill:#F6AB1B;}
	.st10{fill:rgb(236, 236, 236, 0.75);}
	.st11{fill:#EDD000;stroke:#081922;stroke-width:4;stroke-linecap:round;stroke-linejoin:round;stroke-miterlimit:10;}
	.st12{fill:#EDD000;stroke:#081922;stroke-width:5;stroke-linecap:round;stroke-linejoin:round;stroke-miterlimit:10;}
	.st13{fill:#F6AB1B;stroke:#081922;stroke-width:1.8044;stroke-linecap:round;stroke-miterlimit:10;}
	.st14{fill:#EEBA9D;}
	.st15{fill:#F4F5F6;}
	.st16{fill:#87d068;}
	.st17{opacity:6.000000e-02;}
	.st18{fill:#87d068;}
	.st19{fill:#F6AB1B;}
	.st20{fill:#F5AA1B65;}
	.st21{fill:none;stroke:#081922;stroke-width:5.0003;stroke-linecap:round;stroke-linejoin:round;stroke-miterlimit:10;}
	.st22{fill:#D6D4D4;}
	.st23{fill:#F7F8F9;}
	.st24{fill:none;}
	.st25{fill:#F9C7A5;}
	.st26{fill:#F9C7A5;stroke:#081922;stroke-width:5;stroke-miterlimit:10;}
	.st27{fill:none;stroke:#081922;stroke-width:4.1966;stroke-linecap:round;stroke-linejoin:round;stroke-miterlimit:10;}
	.st28{opacity:0.13;}
	.st29{fill:#FAD0B9;}
	.st30{fill:#FFE230;}
	.st31{fill:none;stroke:#081922;stroke-width:4;stroke-linecap:round;stroke-miterlimit:10;}
	.st32{fill:#F5AD93;}
	.st33{fill:#E53527;}
	.st34{fill:#87d068;stroke:#081922;stroke-width:4.3733;stroke-linecap:round;stroke-miterlimit:10;}
	.st35{fill:none;stroke:#081922;stroke-width:5;stroke-linecap:round;stroke-miterlimit:10;}
	.st36{fill:#FFFFFF;}
	.st37{fill:#D62229;}
</style>
    <g id="Schaduw">
	<g class="st0">
		<path class="st1"
              d="M225.8,660.7c4.5-1.7,9-3,13.5-4.2c4.5-1.2,9-2.2,13.5-3.2c9-1.9,18-3.3,27-4.4c18-2.2,35.9-3.2,53.9-3.2    c18,0,35.9,1,53.9,3.2c9,1.1,18,2.6,27,4.4c4.5,0.9,9,2,13.5,3.2c4.5,1.2,9,2.5,13.5,4.2c-4.5,1.7-9,3-13.5,4.2s-9,2.3-13.5,3.2    c-9,1.9-18,3.3-27,4.4c-18,2.2-35.9,3.2-53.9,3.2c-18,0-35.9-1-53.9-3.2c-9-1.1-18-2.6-27-4.4c-4.5-0.9-9-2-13.5-3.2    C234.8,663.7,230.3,662.4,225.8,660.7z"/>
	</g>
</g>
    <g id="Schoen_links">
	<path class="st2"
          d="M227.1,658.7c-4,0-7-1.7-7.9-5.1c-1.4-5.3-0.3-11.5,5.1-14.9c3-1.9,29.2-3,32.7-3.7c1.9-0.4,4-0.8,5.7-1.6   c6.6-3.1,12.9-6.7,18.7-11.2c2-1.5,3.8-1.6,5.8-0.4c2,1.2,3.9,2.6,6,3.8c1.7,1,3.5,2.1,5.4,2.7c2.6,0.8,5.1,0.5,6.9-2.1   c0.7-1,1.9-1.9,3.1-2.3c2.8-1.1,6.5,0.9,7.9,3.9c1.1,2.4,1,4.9,0.7,7.4c-0.3,3.5-0.9,7-0.9,10.4c0,3.4,0.5,6.8,0.7,10.2   c0.2,2.5-0.2,3-2.7,3c-10.7,0-21.5,0-32.2,0C271.4,658.7,237.8,658.7,227.1,658.7z"/>
        <line class="st2" x1="313.8" y1="650.8" x2="219.7" y2="650.8"/>
        <line class="st2" x1="269.4" y1="625.5" x2="277.4" y2="632.4"/>
        <line class="st2" x1="259.9" y1="629.4" x2="267.9" y2="636.2"/>
</g>
    <g id="Schoen_rechts">
	<path class="st2"
          d="M382.4,658.1c-10.7,0-21.5,0-32.2,0c-2.5,0-2.9-0.5-2.7-3c0.3-3.4,0.8-6.8,0.7-10.2c0-3.5-0.6-7-0.9-10.4   c-0.2-2.5-0.4-5,0.7-7.4c1.4-3.1,5.2-5,7.9-3.9c1.2,0.5,2.4,1.3,3.1,2.3c1.8,2.5,4.3,2.9,6.9,2.1c1.9-0.6,3.7-1.6,5.4-2.7   c2-1.2,3.9-2.6,6-3.8c2-1.2,3.8-1.1,5.8,0.4c5.7,4.5,12.1,8.1,18.7,11.2c1.8,0.8,3.8,1.2,5.7,1.6c3.4,0.7,29.7,1.8,32.7,3.7   c5.3,3.4,6.5,9.6,5.1,14.9c-0.9,3.3-3.8,5-7.9,5.1C426.7,658.2,393.1,658.1,382.4,658.1z"/>
        <line class="st2" x1="350.7" y1="650.2" x2="444.8" y2="650.2"/>
        <line class="st2" x1="395.1" y1="625" x2="387" y2="631.8"/>
        <line class="st2" x1="404.6" y1="628.8" x2="396.6" y2="635.7"/>
</g>
    <g id="Onderbeen_links">
	<path class="st3"
          d="M290.7,486.4c-4.7,0.4-9.4,0.7-14.1,1.1c-9.3,0.7-16.4,7-15.3,16.2c5.3,44.2,15.1,123.1,15.1,123.1   s21.4,9.2,40.9,0.6c-5.4-27.7-8-99.8-9-125.2c-0.3-9.3-8.2-16.5-17.5-15.8C290.8,486.3,290.7,486.3,290.7,486.4z"/>
        <path class="st4"
              d="M290.9,485.9c-1.2,34.7,0.7,114.6,7.6,145c0,0,0,0.1,0.1,0.1c6,0.1,12.6-0.8,19-3.6c0,0,0.1-0.1,0.1-0.1   c-5.4-27.8-8.1-100-9-125.5C308.3,492.3,300.3,485.1,290.9,485.9L290.9,485.9C291,485.8,290.9,485.8,290.9,485.9z"/>
        <path class="st5"
              d="M263.8,525.4c2.2,19.9,7.4,81.1,11.9,99.5c1.1,1.1,2.3,2.3,3.4,3.4c12.6,2.3,25.2,4.6,37.8-1.1   c-5.7-31-9.1-70.4-9-102.1"/>
</g>
    <g id="Onderbeen_rechts">
	<path class="st3"
          d="M373.4,485.2c4.7,0.4,9.4,0.7,14.1,1.1c9.3,0.7,17.7,6.7,16.6,15.9c-5.3,44.2-16.5,123.3-16.5,123.3   s-21.4,9.2-40.9,0.6c5.4-27.7,8-99.8,9-125.2c0.3-9.3,8.2-16.5,17.5-15.8C373.2,485.2,373.3,485.2,373.4,485.2z"/>
        <path class="st4"
              d="M393.4,498.4c-0.3,0-0.7,0.1-1,0.1c-9.6,0.9-17.5,8.1-19,17.7c-3.4,20.2-10.5,95.5-14.4,111.3   c5.3,1.2,12.5-1.7,17.7-0.5l0.1,0c6.4,1.4,12.8-2.5,14.5-8.8c5-19.2,9.6-87.4,12.5-109.4c0.8-6-4.3-10.9-10.3-10.3L393.4,498.4z"/>
        <path class="st5"
              d="M400.3,524.2c-1.1,20.3-7.4,81.1-11.9,99.5c-1.1,1.1-2.3,2.3-3.4,3.4c-12.6,2.3-25.2,4.6-37.8-1.1   c5.7-31,8.8-70.7,8.7-102.4"/>
</g>
    <g id="Bovenbeen_links">
	<path class="st3"
          d="M297.1,509.7c0,0,0.1,0,0.1,0c6.3-0.4,11.2-5.1,11.2-11c0.2-19.5,1.1-57.3,2.3-72.5l1-11.9   c2.7-29.9,6-49.8,6-49.8l-27.8-5l-16.9,0c-2.8,7.4-10.2,28.4-11.7,50.1c-2.8,22.3-1.6,66.1-0.4,90.1c0.3,6.2,6.1,11,12.7,10.5   C282,509.5,288.8,510.2,297.1,509.7z"/>
        <path class="st4"
              d="M297.3,521c0,0,0.1,0,0.1,0c6.3-0.4,11.3-5.6,11.4-12c0.2-20.8,1-61.2,2.1-77.3l1-12.8   c2.7-32.2,5.8-53.6,5.8-53.6l-9.5-1.8c-8.2,38.3-16.3,113.7-18,158.3C292.2,521.6,295.4,521.2,297.3,521z"/>
        <path class="st5" d="M307.4,511.7c0-18.1,1.9-59.1,3.1-77.2"/>
</g>
    <g id="Bovenbeen_rechts">
	<path class="st3"
          d="M354.2,431.3c1.1,15.6,1.9,54.8,2.1,75.4c0.1,7.4,6,13.5,13.5,13.7c7.1,0.2,12.8,0.4,19.9,0.6c0,0,1.5,0,1.6,0   c7.6,0.2,12.4-5.7,12.8-13.2c1.1-25.1,2.2-71.7-0.4-94.4c-1.4-23.3-8.8-45.9-11.6-53.9h-16.9l-27.8,5.4c0,0,3.2,21.4,5.8,53.6   L354.2,431.3z"/>
        <path class="st4"
              d="M375.5,428.2c1.4,19.9-1.7,70.3-2.8,92.1c5.4,0.1,13.9,0.8,19.3,1c0,0,0.1,0,0.1,0c6.6,0.2,11.3-5.2,11.7-11.8   c2.8-44,1.1-112.5-12.1-149.7h-13.6l-9.5,2c0,0,3.2,21.4,5.8,53.6L375.5,428.2z"/>
        <path class="st5" d="M356.4,510.5c0-18.1-0.8-59.1-2-77.2"/>
</g>
    <g id="Bovenarm_links">
	<g>
		<path class="st6"
              d="M274.5,166.9c-0.5,0.5-3.6,3.9-8,9.8c-6.5,8.8-15.8,23.1-22.7,41.8c-3.4,9.3-6.3,19.6-7.9,30.8    c-1.6,11.1-1.8,23.1-0.2,35.5c1.4,10.9,12.6,18.3,24.9,16.7c12.3-1.6,21.2-11.7,19.9-22.6c-1.4-12.1-0.4-23.4,2-33.7    c3.6-15.6,10.4-28.8,16.3-38.1c3-4.6,5.7-8.2,7.5-10.5c0.9-1.2,1.7-2,2.1-2.5c0.2-0.3,0.4-0.4,0.5-0.5l0.1-0.1l-5.2-4l5.2,4l0,0    l-5.2-4l5.2,4l-11.1-8.5l11,8.5l0,0l-11.1-8.5l11,8.5l-13.5-10.5l13.5,10.5l0,0l-13.5-10.5l13.5,10.5l0,0l-16.8-13l16.7,13l0,0    l-16.8-13l16.7,13c8.4-8.9,7.7-22.1-1.8-29.6C297.6,156.6,282.9,157.8,274.5,166.9L274.5,166.9z"/>
	</g>
        <path class="st5" d="M269.3,172c-23.5,30.2-38.3,66-35.2,103.7"/>
        <path class="st7" d="M283.3,281.6c0,0-7.1-24.5,1.5-49.8"/>
</g>
    <g id="Bovenarm_rechts">
	<g>
		<path class="st6"
              d="M390.4,165.9c0.6,0.5,4.2,3.4,9.3,8.6c7.7,7.8,19,20.6,28.6,38c4.8,8.7,9.1,18.5,12.3,29.3    c3.2,10.8,5.2,22.5,5.4,35.1c0.2,11-9.7,20-22.1,20.1c-12.4,0.2-22.7-8.5-23-19.5c-0.3-12.1-3-23.2-6.9-33    c-5.8-14.9-14.5-27-21.7-35.3c-3.6-4.1-6.8-7.3-9-9.3c-1.1-1-1.9-1.8-2.5-2.2c-0.3-0.2-0.4-0.4-0.5-0.4l-0.1,0l4.6-4.7l-4.5,4.7    l0,0l4.6-4.7l-4.5,4.7l9.7-10l-9.7,10l0,0l9.7-10l-9.7,10l11.8-12.3l-11.8,12.3l0,0l11.8-12.3l-11.8,12.3l0,0L375,182l-14.6,15.3    l0,0L375,182l-14.6,15.3c-9.7-7.6-10.8-20.8-2.6-29.5C366.1,159.1,380.7,158.2,390.4,165.9L390.4,165.9z"/>
	</g>
        <path class="st5" d="M437.7,230c-9.9-24.8-26.8-48-47.8-64.6c-3.1-2.5-6.4-4.3-10.5-4.6"/>
</g>
    <g id="Romp">
	<path class="st4"
          d="M238,154.2C238,154.2,238,154.2,238,154.2c-3.7-0.3-6.5-3.4-6.5-7.1c-0.1-12.4-0.6-36.4-1.2-46l-0.6-7.6   c-1.5-19.2,2.5-28.9,2.5-28.9l-0.4-4.1c4.7,22.8,9.3,55,10.3,81.5C241,141.8,239.1,154.3,238,154.2z"/>
        <path class="st3"
              d="M225.9,82.2L225.9,82.2c-5.9,12.9-1.5,28.8,10.2,36.5l9.6,6.3l-6.5-44.4l-9.9-3.1L225.9,82.2z"/>
        <path class="st8" d="M231.9,60.4c0,0-5.3,13.7-2.8,17.1c0,0-13.1,23,3.4,38.2"/>
        <path class="st8" d="M250.1,91.6"/>
        <path class="st9"
              d="M133.3,3c0.7,0,1.3,0,2,0C204.2,3,260,58.8,260,127.6s-55.8,124.6-124.6,124.6S10.7,196.5,10.7,127.6   c0-32,12.1-61.2,31.9-83.2"/>
        <path class="st9" d="M42.6,44.4C65,19.5,97.3,3.6,133.3,3"/>
        <circle class="st10" cx="134.7" cy="128.1" r="116.6"/>
        <path class="st11"
              d="M134.5,137l-1-1c-2.4-2.4-2.4-6.2,0-8.6L187.9,73c2.4-2.4,6.2-2.4,8.6,0l1,1c2.4,2.4,2.4,6.2,0,8.6L143,137   C140.7,139.3,136.8,139.3,134.5,137z"/>
        <path class="st11"
              d="M142.6,137.7l-2.5,1.5c-2.5,1.5-5.8,0.6-7.3-1.9l-27.5-47.6c-1.5-2.5-0.6-5.8,1.9-7.3l2.5-1.5   c2.5-1.5,5.8-0.6,7.3,1.9l27.5,47.6C146,133,145.1,136.3,142.6,137.7z"/>
        <circle class="st12" cx="138.3" cy="132.1" r="7.9"/>
        <path class="st5"
              d="M182.7,242.9c-14.6,6-30.6,9.3-47.3,9.3c-68.8,0-124.6-55.8-124.6-124.6c0-25.4,7.6-49,20.6-68.6"/>
        <path class="st5"
              d="M85.6,13.3C100.9,6.7,117.7,3,135.4,3C204.2,3,260,58.8,260,127.6c0,52.1-31.9,96.7-77.3,115.3"/>
        <path class="st13"
              d="M136.4,41.7h-1c-1,0-1.8-0.8-1.8-1.8V24.6c0-1,0.8-1.8,1.8-1.8h1c1,0,1.8,0.8,1.8,1.8v15.2   C138.3,40.9,137.5,41.7,136.4,41.7z"/>
        <path class="st13"
              d="M136.4,232.5h-1c-1,0-1.8-0.8-1.8-1.8v-15.2c0-1,0.8-1.8,1.8-1.8h1c1,0,1.8,0.8,1.8,1.8v15.2   C138.3,231.7,137.5,232.5,136.4,232.5z"/>
        <path class="st13"
              d="M221.9,128.1v-1c0-1,0.8-1.8,1.8-1.8H239c1,0,1.8,0.8,1.8,1.8v1c0,1-0.8,1.8-1.8,1.8h-15.2   C222.7,130,221.9,129.2,221.9,128.1z"/>
        <path class="st13"
              d="M31.1,128.1v-1c0-1,0.8-1.8,1.8-1.8h15.2c1,0,1.8,0.8,1.8,1.8v1c0,1-0.8,1.8-1.8,1.8H32.9   C31.9,130,31.1,129.2,31.1,128.1z"/>
        <path class="st13"
              d="M197.1,67.2l-0.7-0.7c-0.7-0.7-0.7-1.9,0-2.6l10.8-10.8c0.7-0.7,1.9-0.7,2.6,0l0.7,0.7c0.7,0.7,0.7,1.9,0,2.6   l-10.8,10.8C199,67.9,197.8,67.9,197.1,67.2z"/>
        <path class="st13"
              d="M62.1,202.2l-0.7-0.7c-0.7-0.7-0.7-1.9,0-2.6L72.2,188c0.7-0.7,1.9-0.7,2.6,0l0.7,0.7c0.7,0.7,0.7,1.9,0,2.6   l-10.8,10.8C64,202.9,62.9,202.9,62.1,202.2z"/>
        <path class="st13"
              d="M196.3,188.8l0.7-0.7c0.7-0.7,1.9-0.7,2.6,0l10.8,10.8c0.7,0.7,0.7,1.9,0,2.6l-0.7,0.7   c-0.7,0.7-1.9,0.7-2.6,0l-10.8-10.8C195.6,190.7,195.6,189.5,196.3,188.8z"/>
        <path class="st13"
              d="M61.4,53.8l0.7-0.7c0.7-0.7,1.9-0.7,2.6,0l10.8,10.8c0.7,0.7,0.7,1.9,0,2.6l-0.7,0.7c-0.7,0.7-1.9,0.7-2.6,0   L61.4,56.4C60.7,55.7,60.7,54.6,61.4,53.8z"/>
        <rect x="315.4" y="128.5" class="st14" width="42.1" height="28.7"/>
        <path class="st15"
              d="M349.7,247.8c0-0.1,0-0.1,0-0.2c-0.3-6.3-0.3-12.6-0.5-19.1c-0.4-13.9-2.2-28.3-6.1-41.2   c-2.6-8.4-6.9-14-11.6-19.7c-9.6-4-20.2-7-22.1-8.2l0-0.1h-0.1c-0.1-0.1-0.1-0.1-0.2-0.2c0,0,0,0,0,0.2h-9.5c0-0.1,0-0.2,0-0.2   c0,0.1-0.1,0.1-0.2,0.2h-0.3l0,0.2c-1,0.6-3.5,1.4-6.7,2.5c-14.2,4.9-24.8,20.9-26.4,40.2c0,0.1,0,0.2,0,0.3   c-1.6,20.5,4.3,40.8,7.5,60.6c1.6,10,3.1,20.1,3.1,30.4c0,9.2-1.5,18.1-4.2,26.6c-2.7,8.6-6.5,17-7.2,26.5   c-0.6,8.2,1.4,15.9,5.5,22l0.1,0.1c4.8,7.2,11.5,11.6,18.7,12.4c8,0.9,14.2,0.8,14.9,0.8c1.2,0,55.6,3,70.4-1.2   c13.1-3.7-16.1-23.5-18.6-40.9l-6.4-46V247.8z"/>
        <path class="st15"
              d="M320.9,247.8c0-0.1,0-0.1,0-0.2c0.3-6.3,0.3-12.6,0.5-19.1c0.4-13.9-8.7-49.9-4.7-62.9   c2.6-8.4,13,1.4,17.7-4.3c9.6-4,24.9-0.7,26.8-1.9l0-0.1h0.1c0.1-0.1,0.1-0.1,0.2-0.2c0,0,0,0,0,0.2h9.5c0-0.1,0-0.2,0-0.2   c0,0.1,0.1,0.1,0.2,0.2h0.3l0,0.2c1,0.6,3.5,1.4,6.7,2.5c14.2,4.9,24.8,20.9,26.4,40.2c0,0.1,0,0.2,0,0.3   c1.6,20.5-4.3,40.8-7.5,60.6c-1.6,10-3.1,20.1-3.1,30.4c0,9.2,1.5,18.1,4.2,26.6c2.7,8.6,6.5,17,7.2,26.5c0.6,8.2-1.4,15.9-5.5,22   l-0.1,0.1c-4.8,7.2-11.5,11.6-18.7,12.4c-8,0.9-14.2,0.8-14.9,0.8c-1.2,0-18,0-32.8-4.2c-13.1-3.7-21.5-20.6-19-38l6.4-46V247.8z"/>
        <path class="st3" d="M274.8,348c3.6,14.7,19.4,77.9,20.7,77.6c1.5-0.4,44.3-12.6,74.9-1.1l20.7-76.5H274.8z"/>
        <path class="st16"
              d="M355.1,399.8c-5.7,0.7-12.1,1.2-18.8,1.3v0c-0.2,0-0.4,0-0.6,0c-0.2,0-0.4,0-0.6,0v0   c-24.1-0.2-43.9-6.3-43.9-6.3l0.7-57.9l-27.9-5.2L253.2,448c5.2,5.6,18.3,9.8,32.6,13c33.1,7.3,67.2,7.3,100.3-0.1   c14-3.1,26.9-7.4,32-12.9l-11.7-116.1l-26.9,5l0.7,57.9c0,0-8.5,2.6-21.1,4.5"/>
        <path class="st17"
              d="M345,166.7c0,0,12.1,23.1-13.8,31.6l19.8,0.6c5.7,0.2,10.4-3.4,10-7.8l-2.5-24.4L345,166.7z"/>
        <path class="st18"
              d="M405.2,331.5l-26.9,5l0.7,57.9c0,0-8.5,2.6-21.1,4.5l-23.8,3l21,63.2c10-0.9,20-2.4,29.9-4.6   c14-3.1,26.9-7.4,32-12.9L405.2,331.5z"/>
        <path class="st19"
              d="M406.1,331.9l-3.6-35.2l-1.7-16.6c0,0-31.6-52.7-33.8-84.6c0-4.1,0-8.2,0-10.8c0-2,0-4.1,0.2-6.1   c0.3-3.6,0.5-9.2,0.1-12.8c-0.8-5.7-8.4-2.7-8.4-2.7l-1.3,31.5c-5.6,1.1-13.4,2.2-22.8,2.2c-9.4,0-17.1-1.1-22.7-2.2l-1.3-31.5   c0,0-7.6-3.1-8.4,2.7c-0.5,3.6-0.2,9.2,0.1,12.8c0.2,2,0.2,4.1,0.2,6.1c0,1.9,0,4.6,0,7.5l0,0c0,31.4-34,87.9-34,87.9l-1.5,16.4   l-3.3,35.2l27.9,5.2l-0.7,57.9c0,0,19.8,6.1,43.9,6.3v0c0.2,0,0.4,0,0.6,0c0.2,0,0.4,0,0.6,0v0c24.1-0.2,43.9-6.3,43.9-6.3   l-0.7-57.9L406.1,331.9z"/>
        <path class="st20"
              d="M405.7,332.3l-3.6-35.2l-1.7-16.6c0,0-31.6-52.7-33.8-84.6c0-4.1,0-8.2,0-10.8c0-2,0-4.1,0.2-6.1   c0.3-3.6,0.5-9.2,0.1-12.8c-0.8-5.7-8.4-2.7-8.4-2.7l-1.3,31.5c-4.9,1-11.6,1.9-19.6,2.1c2.2,7.7,4.8,15.3,6,23.3   c1.5,10,0.6,20.5-0.3,30.5c-3.4,37.7-12,74.7-11.6,112.8c0.1,9.4,1,18.7,1.7,28c0.2,3.3,0.5,6.5,0.8,9.8c0.2,0,0.3,0,0.5,0v0   c0.2,0,0.4,0,0.6,0c0.2,0,0.4,0,0.6,0v0c24.1-0.2,43.9-6.3,43.9-6.3l-0.7-57.9L405.7,332.3z"/>
        <path class="st21"
              d="M303,193.9L303,193.9c0,31.3-34,87.9-34,87.9l-1.5,16.4l-3.3,35.2l-10.8,116.2c5.2,5.6,18.3,9.8,32.6,13   c33.1,7.3,67.2,7.3,100.3-0.1c14-3.1,26.9-7.4,32-12.9l-11.7-116.1l-2.8-27.3"/>
        <path class="st21" d="M359.6,399.3c7.4-0.5,14.3-2.8,21.2-5.1c0-18.4,0-37.8-1.1-56.2c8-3.4,17.2-3.4,26.8-6"/>
        <path class="st21"
              d="M265,331.8c9.1,0.5,18.3,5.1,27.4,5.1c-1.1,16.1,1.1,32.1-1.1,49.3c0,3.4-1.1,8,1.1,8c19.5,5.7,39,9.2,59.2,6   "/>
        <rect x="310.2" y="147.3" class="st22" width="50.1" height="19.5"/>
        <polyline class="st23" points="318.4,146.6 333.3,147.6 322.1,159.6 299.3,179.6 309.7,146 318.4,146.6  "/>
        <polygon class="st23" points="338.5,147.4 349.7,159.4 372.5,179.4 362.2,145.8  "/>
        <polyline class="st21" points="316.3,164.7 299.3,179.6 309.7,146 332.4,148  "/>
        <polyline class="st21" points="355.6,164.7 372.5,179.6 362.2,146  "/>
        <path class="st24" d="M370.6,288.4c3.4,1.4,7,2.2,7,2.2l-1.5,3.8l-10.6,4.4c-4.2,0.1-8.5,0.4-12.3,1"/>
        <path class="st21" d="M377,292.3"/>
        <path class="st17" d="M318.1,164.3l15.1-9.5c2-1.3,4.6-1.3,6.6,0l16.2,10.1L338,147.6h-3.9L318.1,164.3z"/>
        <g>
		<rect x="329.3" y="219.2" class="st16" width="12.3" height="12.3"/>
            <g>
			<path class="st16"
                  d="M327.2,216.3v16.9H344v-16.9H327.2z M334.2,229.9C334.2,229.9,334.2,229.9,334.2,229.9     c-0.1,0.1-0.1,0.1-0.6,0.1h0h-0.1h0c-0.5,0-0.6,0-0.6-0.1c0,0,0,0,0,0c0,0-1.3-2.2-1.4-2.3c0,0.9,0,2.1,0,2.2c0,0,0,0,0,0.1     c0,0-0.1,0.1-0.6,0.1h0h-0.1h0c-0.5,0-0.6,0-0.6-0.1c0,0,0-0.1,0-0.1c0-0.1,0-1.4,0-2.3c0-0.9,0-2.2,0-2.3c0,0,0,0,0-0.1     c0,0,0.1-0.1,0.6-0.1h0h0h0h0c0.5,0,0.6,0,0.6,0.1c0,0,0,0,0,0c0.3,0.6,0.6,1,0.7,1.3c0.3,0.6,0.5,0.8,0.6,1.1v0     c0-0.9,0-2.2,0-2.3c0,0,0,0,0-0.1c0,0,0.1-0.1,0.6-0.1h0h0h0h0c0.5,0,0.5,0,0.6,0.1c0,0,0,0.1,0,0.1c0,0.1,0,1.5,0,2.3     C334.2,228.4,334.2,229.7,334.2,229.9z M334.3,221.6L334.3,221.6c0,1.4-1,2.1-2.6,2.1c-0.1,0-0.2,0-0.3,0c0,0.3,0,0.5,0,0.6     c0,0,0,0,0,0.1c0,0-0.1,0.1-0.6,0.1h0h-0.1h0c-0.5,0-0.6,0-0.6-0.1c0,0,0-0.1,0-0.1c0-0.1,0-1.2,0-2v-0.1V222v-0.1     c0-0.9,0-2.1,0-2.2c0-0.1,0.1-0.1,0.1-0.1c0.2,0,1.2-0.1,1.6,0C333.4,219.6,334.3,220.2,334.3,221.6L334.3,221.6z M336.3,229.9     C336.3,229.9,336.3,229.9,336.3,229.9c-0.1,0.1-0.1,0.1-0.6,0.1h0h-0.1h0h0c-0.5,0-0.6,0-0.6-0.1c0,0,0-0.1,0-0.1     c0-0.1,0-1,0-1.9c0-0.9,0-1.7,0-1.9c0,0,0,0,0-0.1c0,0,0.1-0.1,0.6-0.1h0h0h0h0c0.5,0,0.6,0,0.6,0.1c0,0,0,0.1,0,0.1     c0,0.1,0,1,0,1.9C336.3,228.9,336.3,229.7,336.3,229.9z M334.9,224.8c0-0.4,0.3-0.7,0.7-0.7c0.4,0,0.7,0.3,0.7,0.7     c0,0.4-0.3,0.7-0.7,0.7C335.2,225.5,334.9,225.2,334.9,224.8z M336.3,223.4C336.3,223.4,336.3,223.4,336.3,223.4     c-0.1,0.1-0.1,0.1-0.6,0.1h0h0h0h0c-0.5,0-0.6,0-0.6-0.1c0,0,0-0.1,0-0.1c0-0.1,0-1,0-1.9c0-0.9,0-1.7,0-1.9c0,0,0,0,0-0.1     c0,0,0.1-0.1,0.6-0.1h0h0h0.1h0c0.5,0,0.6,0,0.6,0.1c0,0,0,0.1,0,0.1c0,0.1,0,1,0,1.9C336.3,222.4,336.3,223.2,336.3,223.4z      M341.2,229.4c-0.3,0.2-0.6,0.4-1,0.5c-0.2,0.1-0.4,0.1-0.7,0.1c-0.1,0-0.1,0-0.2,0c0,0,0,0-0.1,0h0c-0.6,0-1.2-0.3-1.6-0.6     c0,0,0,0,0,0c0,0,0,0-0.1-0.1c-0.4-0.4-0.7-1-0.7-1.8c0-1.6,1.2-2.5,2.6-2.5c0.6,0,1.1,0.2,1.6,0.5c0,0,0,0.1,0,0.1     c0,0.1-0.1,0.3-0.3,0.5c-0.1,0.1-0.2,0.3-0.3,0.4c-0.1,0.1-0.1,0.1-0.2,0c-0.2-0.1-0.5-0.2-0.8-0.2c-0.7,0-1.2,0.4-1.2,1.2     c0,0,0,0.1,0,0.1c0,0.7,0.6,1.1,1.3,1.1c0.2,0,0.3-0.1,0.5-0.1c0.1,0,0.2-0.1,0.3-0.2c0.1-0.1,0.1-0.1,0.2,0     c0.1,0.1,0.2,0.2,0.3,0.4c0.2,0.2,0.3,0.5,0.3,0.5C341.2,229.4,341.2,229.4,341.2,229.4z M341.2,223.9c-0.3,0.2-0.6,0.4-1,0.5     c-0.2,0.1-0.4,0.1-0.7,0.1c-0.1,0-0.1,0-0.2,0c0,0,0,0-0.1,0h0c-0.6,0-1.2-0.3-1.6-0.6c0,0,0,0,0,0c0,0,0,0-0.1-0.1     c-0.4-0.4-0.7-1-0.7-1.8c0-1.6,1.2-2.5,2.6-2.5c0.6,0,1.1,0.2,1.6,0.5c0,0,0,0.1,0,0.1c0,0.1-0.1,0.3-0.3,0.5     c-0.1,0.1-0.2,0.3-0.3,0.4c-0.1,0.1-0.1,0.1-0.2,0c-0.2-0.1-0.5-0.2-0.8-0.2c-0.7,0-1.2,0.4-1.2,1.2c0,0,0,0.1,0,0.1     c0,0.7,0.6,1.1,1.3,1.1c0.2,0,0.3-0.1,0.5-0.1c0.1,0,0.2-0.1,0.3-0.2c0.1-0.1,0.1-0.1,0.2,0c0.1,0.1,0.2,0.2,0.3,0.4     c0.2,0.2,0.3,0.5,0.3,0.5C341.2,223.8,341.2,223.8,341.2,223.9z"/>
                <path class="st16"
                      d="M331.9,220.9c-0.2,0-0.3,0-0.4,0v1.5c0.1,0,0.2,0,0.4,0c0.7,0,1.1-0.2,1.1-0.8v0v0     C332.9,221.1,332.6,220.9,331.9,220.9z"/>
		</g>
	</g>
</g>
    <g id="Onderarm_links">
	<g>
		<path class="st6"
              d="M228.2,228.7c0.3,4.6,0.3,9.3-0.1,14.2c-0.7,10.6-3.1,21.7-8,32.8c-4.4,10,1.1,22.3,12.4,27.5    c11.3,5.2,24.1,1.3,28.7-8.7c5.2-11.4,8.5-22.9,10.2-34c1.2-7.8,1.8-15.3,1.8-22.6C258.1,235.1,243.2,231.7,228.2,228.7z"/>
	</g>
        <g>
		<path class="st5"
              d="M272.2,248.9c-1.8,11.1-6.9,34-12.1,45.4c-4.6,10-17.4,13.8-28.7,8.7c-11.3-5.2-16.8-17.4-12.4-27.5    c4.9-11.1,7.3-22.2,8-32.8c0.9-13.5-0.8-26.2-3.2-36.1"/>
	</g>
        <path class="st17"
              d="M242.5,239.8c0,0-15.5,71.4,6.7,54.9c1.4-1.1,7-6.4,8.8-6.5c1.8-0.2,5.7,0.8,2.1,5.4c0,0-13.7,23.6-37.1,3.3   c0,0-8.6-10.8-4.2-21.1c0,0,8-19.3,6.6-20.2c-1.3-0.9,2.3-15.8,2.3-15.8S242.4,239.9,242.5,239.8z"/>
</g>
    <g id="Hand_links">
	<path class="st25"
          d="M244.5,190.1c0,0-8-4.1-8.3-12.3c0,0-0.8-11-4.9-16.6c-2.8-3.7-8.7-2.5-9.6,2.1c-0.5,2.6-0.1,6.3,2.3,11.8   c0,0,9,14.4,2.5,20.5c0,0-13,6.2-4.7,19c0,0-5.3,7.6,3.5,13.3c0,0-5.6,20.7,27.3,6.6c0,0,19.7-10.6,2.5-30.8"/>
        <path class="st14"
              d="M240.1,238.2c2.9-0.4,5.8-1.1,8.5-2c1.4-0.4,2.8-1,4.2-1.5c1.3-0.5,2.6-0.9,3.7-1.5c-1.5-2-3.8-2.1-7.4-1.1   c-0.5,0.1-1,0.3-1.5,0.5c-2,0.3-4.2,0.8-6.2,1.1c-2,0.1-4.2,0.1-6.3,0.3c-0.5-0.1-1-0.1-1.5-0.1c-4-0.2-6.2,0.4-7.2,3.1   C230.2,238.9,235.4,238.9,240.1,238.2z"/>
        <path class="st5"
              d="M245,190c0,0-8-4.1-8.3-12.3c0,0-0.8-11-4.9-16.6c-2.8-3.7-8.7-2.5-9.6,2.1c-0.5,2.6-0.1,6.3,2.3,11.8   c0,0,9,14.4,2.5,20.5c0,0-13,6.2-4.7,19c0,0-5.3,7.6,3.5,13.3c0,0-5.6,20.7,27.3,6.6c0,0,19.7-10.6,2.5-30.8"/>
        <path class="st5" d="M246,201c0,0,5.5,0.7,6.1,4.1c0.7,3.4,3.3,8-2,8c-5.3,0-19.4-1.4-19.4-1.4"/>
        <path class="st26" d="M250.4,224.9c0,0,4.9,0,5.2,2.7s2.2,6.2-2.7,6.8s-17.8,1-17.8,1"/>
        <path class="st5" d="M247.8,213c0,0,5.5,0.7,6.1,4.1c0.7,3.4,3.3,8-2,8s-19.4-1.4-19.4-1.4"/>
        <path class="st27" d="M252.1,225.3c0,0,3.3-0.4,3.5,2.3s2.2,6.2-2.7,6.8s-17.8,1-17.8,1"/>
</g>
    <g id="Onderarm_rechts">
	<g>
		<path class="st6"
              d="M435.7,219.9c0,4.6,0.3,9.3,1,14.2c1.4,10.5,4.5,21.4,10.1,32.2c5.1,9.7,0.4,22.3-10.5,28.2    c-10.9,5.9-24,2.9-29.2-6.7c-6-11.1-10-22.3-12.5-33.3c-1.8-7.7-2.8-15.2-3.3-22.4C406.2,228.2,420.9,223.8,435.7,219.9z"/>
	</g>
        <g>
		<path class="st5"
              d="M393.1,242.9c2.5,10.9,9.1,33.5,15.1,44.5c5.2,9.7,18.3,12.7,29.2,6.7c10.9-5.9,15.6-18.5,10.5-28.2    c-5.6-10.8-8.7-21.7-10.1-32.2c-1.8-13.4-0.9-26.2,0.8-36.2"/>
	</g>
        <path class="st17"
              d="M423.6,233.7c0,0,18.8,68.3-4.5,53.3c-1.5-1-7.4-5.9-9.2-5.9c-1.8-0.1-5.7,1.2-1.8,5.6   c0,0,15.3,22.6,37.2,0.8c0,0,7.9-11.3,2.8-21.3c0,0-9.2-18.7-8-19.7s-2.5-12.8-2.5-12.8S423.7,233.9,423.6,233.7z"/>
</g>
    <g id="Hand_rechts">
	<path class="st25"
          d="M415.9,186.7c0,0,7.5-5,6.9-13.1c0,0-0.4-11,3.1-17c2.4-4,8.4-3.4,9.8,1.1c0.7,2.5,0.8,6.3-1,12   c0,0-7.4,15.3-0.3,20.6c0,0,13.6,4.7,6.7,18.4c0,0,6.1,7-2,13.6c0,0,7.8,20-26.5,9.5c0,0-20.7-8.4-5.8-30.3"/>
        <path class="st28"
              d="M401.4,221.9c0.7,1.8,1.9,3.5,3.2,5.1c0.7,0.8,1.6,1.5,2.4,2.3c0.7,0.7,1.4,1.4,2.5,2   c3.2-1.8,3.2-3.4,1.6-5.5c-0.2-0.3-0.5-0.6-0.8-0.8c-0.5-1.3-1.2-2.6-1.8-3.8c-0.2-1.3-0.3-2.9-0.5-4.2c0.1-0.4,0.2-0.7,0.2-1.1   c0.3-2.8-0.7-4.1-5-3.8C400.2,215.3,400.2,218.9,401.4,221.9z"/>
        <path class="st14"
              d="M425.3,234.1c-2.9-0.1-5.9-0.5-8.7-1c-1.5-0.3-2.9-0.7-4.3-1c-1.3-0.3-2.7-0.6-3.9-1.1   c1.3-2.2,3.5-2.5,7.2-1.9c0.5,0.1,1,0.2,1.5,0.3c2,0.1,4.3,0.3,6.3,0.4c2-0.1,4.2-0.3,6.3-0.4c0.5-0.1,1-0.2,1.5-0.3   c3.9-0.6,6.2-0.3,7.5,2.3C435.3,233.7,430.1,234.3,425.3,234.1z"/>
        <path class="st5"
              d="M415.3,186.8c0,0,7.5-5,6.9-13.1c0,0-0.4-11,3.1-17c2.4-4,8.4-3.4,9.8,1.1c0.7,2.5,0.8,6.3-1,12   c0,0-7.4,15.3-0.3,20.6c0,0,13.6,4.7,6.7,18.4c0,0,6.1,7-2,13.6c0,0,7.8,20-26.5,9.5c0,0-20.7-8.4-5.8-30.3"/>
        <path class="st5" d="M415.5,197.8c0,0-5.3,1.3-5.7,4.7c-0.3,3.4-2.4,8.3,2.9,7.8s19.2-3.5,19.2-3.5"/>
        <path class="st26" d="M413.7,222c0,0-4.9,0.5-4.9,3.2s-1.5,6.4,3.5,6.5c4.9,0,17.8-1,17.8-1"/>
        <path class="st5" d="M415,209.9c0,0-5.3,1.3-5.7,4.7c-0.3,3.4-2.4,8.3,2.9,7.8s19.2-3.5,19.2-3.5"/>
        <path class="st27" d="M412.1,222.5c0,0-3.3,0-3.3,2.6s-1.5,6.4,3.5,6.5c4.9,0,17.8-1,17.8-1"/>
</g>
    <g id="Hoofd">
	<path class="st29"
          d="M326.5,50.8l5.3-5.9c11.7-2,19.4,3.4,25.4,32.1c1.5,7.3,5.5,5.3,8.3,11.6c2.1,4.9,0.9,20.1,0.1,24.4   c-1.6,8.4-4.8,21.1-16.6,25.9c-0.4,0.2-0.8,0.3-1.2,0.5c-1.1,0.4-2.2,0.9-3.3,1.4c-0.4,0.2-0.8,0.4-1.2,0.5c-11.8,4.8-23-2-30-6.9   c-3.6-2.5-14.9-12.6-16.8-17.6c-2.5-6.4,1.6-7.7-2.4-14C262.3,52.9,326.5,50.8,326.5,50.8z"/>
        <path class="st30" d="M336.8,77.1c0.1,0.2,0.3,0.3,0.4,0.5C337.1,77.4,337,77.3,336.8,77.1z"/>
        <path class="st30" d="M337.2,77.6c0.4,0.5,0.9,1.2,1.4,1.8C338.3,78.9,337.8,78.3,337.2,77.6z"/>
        <path class="st30" d="M336.4,76.6C336.4,76.6,336.5,76.7,336.4,76.6C336.4,76.6,336.4,76.6,336.4,76.6z"/>
        <path class="st30" d="M338.7,79.4c0.1,0.1,0.1,0.2,0.2,0.3C338.8,79.6,338.7,79.5,338.7,79.4z"/>
        <path class="st30" d="M336.5,76.7c0.1,0.1,0.2,0.2,0.4,0.4C336.7,77,336.6,76.8,336.5,76.7z"/>
        <path class="st30" d="M340.2,81.4C340.2,81.4,340.3,81.4,340.2,81.4L340.2,81.4z"/>
        <path class="st30" d="M340,81.1c0.1,0.2,0.2,0.3,0.2,0.3C340.2,81.4,340.1,81.3,340,81.1z"/>
        <path class="st30" d="M339.9,81c0,0.1,0.1,0.1,0.1,0.2C340,81.1,339.9,81,339.9,81z"/>
        <path class="st30" d="M338.9,79.7c0.1,0.2,0.3,0.3,0.4,0.5C339.1,80,339,79.9,338.9,79.7z"/>
        <path class="st30" d="M339.2,80.2c0.3,0.3,0.5,0.6,0.6,0.8C339.7,80.7,339.5,80.5,339.2,80.2z"/>
        <path class="st30" d="M306.2,89.6c0,0.2,0,0.4,0.1,0.6C306.3,90,306.3,89.8,306.2,89.6z"/>
        <path class="st30" d="M306.3,90.2c0.1,0.9,0.2,1.7,0.2,2.3C306.5,91.7,306.4,90.9,306.3,90.2z"/>
        <path class="st30" d="M306.5,92.5c0,0.1,0,0.2,0,0.3C306.6,92.7,306.6,92.6,306.5,92.5z"/>
        <path class="st30" d="M306.2,89.1c0,0.2,0,0.4,0.1,0.6C306.2,89.4,306.2,89.2,306.2,89.1z"/>
        <path class="st30" d="M306.2,88.9c0,0,0,0,0,0.1C306.2,89,306.2,89,306.2,88.9z"/>
        <path class="st30" d="M306.7,94.5c0,0.1,0,0.1,0,0.2C306.8,94.6,306.8,94.5,306.7,94.5z"/>
        <path class="st30" d="M306.6,92.8c0,0.2,0,0.4,0.1,0.6C306.6,93.3,306.6,93.1,306.6,92.8z"/>
        <path class="st30" d="M306.8,94.7c0,0.2,0,0.3,0,0.4C306.8,95,306.8,94.9,306.8,94.7z"/>
        <path class="st30" d="M306.8,95.1C306.8,95.1,306.8,95.1,306.8,95.1L306.8,95.1z"/>
        <path class="st30" d="M306.6,93.4c0,0.4,0.1,0.7,0.1,1C306.7,94.2,306.7,93.9,306.6,93.4z"/>
        <path class="st30"
              d="M288.6,92.5c0.2,0.2,0.3,0.4,0.4,0.6c2.7,5.7,3.4,12.5-1.1,6.5c0,0-1.6-0.6-0.9,2c0.1,0.4,0.4,0.8,0.8,1.1   l0.6,0.5c0.5,0.4,0.8,1,0.9,1.6l0.4,6.2c0,0.5,0.2,1,0.6,1.4l5.1,5.6l-1.9-1.7c0,0-0.8-1-3.2-0.4c-0.7,0.2-1.5,0-2-0.4   c-1.3-1-3.4-3-2.7-4.7c0.3-0.6,0.4-1.2,0.3-1.8c-0.2-0.9-0.9-2-2.7-2.6c-0.2-0.1-0.3-0.1-0.5-0.2c-1.2-0.7-6.4-4.2-3.9-8.2   c0.4-0.6,0.5-1.4,0.2-2.1l-4.2-12.4c-0.1-0.4-0.4-0.7-0.7-1c-0.7-0.6-2-2.1-1.7-5.4c0.3-2.5,2.8-0.5,4.3,1   c-0.1-0.2-0.2-0.3-0.2-0.5c-0.1-0.5-0.4-0.9-0.8-1.2c-2.8-2.3-11.1-9.1-3.9-17c0.8-0.8,1.7-4.1,4.2-4.4c1.9-0.2,3,0.5,4.6-0.5   c0.6-0.3,1.3-0.9,2.1-1.8c2.2-2.4,4.1-3.3,5.1-3.5c0.3-0.1,0.7-0.1,1-0.1l0.4,0c1.4,2.1,2.7,4.2,4.1,6.3c2.4,3.7,4.9,7.5,6.8,11.5   c0.5,0.9,0.2,2.1-0.7,2.9c-0.5,0.4-0.9,1-1.2,1.6c-0.5,0.9-0.7,2.1-0.6,3.3c0.2,1.9,1.4,4.1,1,5.8c-1.1,4-5.7,1.5-8.3,3   c-2.1,1.2-2.6,3.3-2.2,6.6c0.3,3,2.2,5.3,4.6,6.7c0.8,0.5,1.2,1.6,1.5,2.8c0.4,1.3-5-10-5.7-9.3c0,0,0,0,0,0   c-0.5,0.5-0.4,0.7-0.5,1.5L288.6,92.5z"/>
        <path class="st30"
              d="M351.5,64.9c2.1,6.6,6.5,12.8,5.4,4.8c0,0,0.8-1.9,2.3,1.7l-0.2,2.6l5.2,6.8l0.5,9l0.1-2.7   c0,0-0.2-1.7,2.7-3.2c0,0,1.2-6.8-1.9-7.1c0,0-2.3-2-0.7-5.3c0,0,2.3-9.2-4.1-9.8L353.7,45c0,0,0.9-2.9-2.6-6.1   c-1.9-1.8-2.2,1.6-2.1,3.9c-0.1-0.4-0.3-0.8-0.7-1c0,0,2.3-17.8-9.7-19.1c-1.1-0.1-3.3-0.3-5.2,1.3c-1.9,1.6-1.7,3.5-6,3.1   c-4.4-0.4-6.3,1.2-6.3,1.2l-0.5,0.6c0.6,2.7,1.1,5.3,1.7,8c1.1,5.4,2.3,11,4.3,16.2c1.1-0.4,2.3-0.5,3.6,0c1,0.4,1.9,1.1,2.7,2.2   c1.2,1.6,1.9,4.3,3.4,5.3c3.5,2.4,4.8-2.9,7.5-3.7c2.2-0.6,4,0.7,6,3.6c1.8,2.6,2.2,5.8,1.6,8.6c-0.2,0.9,0.3,2.1,0.9,3.3   c0.7,1.3,1.6,2,2.6,2.1c0,0,0,0,0,0c0.7,0.1,0.7,0.3,1.4,0.8L351.5,64.9z"/>
        <path class="st29"
              d="M351,71.9c0,0-1-5.2,8.9-7.1c9.9-1.9,11.3,8,10.1,12.5c0,0-1.1,7.4,2,10.5s-0.8,9.2-16.3,8.5"/>
        <path class="st31" d="M356.6,70.7c-0.6-4.1,3.8-6.9,7.6-6.7c5.2,0.4,6.5,7.3,6.4,11.5c-0.1,2.2-0.2,4.3,0.1,6.6"/>
        <circle class="st32" cx="349.8" cy="93.5" r="8.9"/>
        <line class="st33" x1="290.3" y1="83.4" x2="293.7" y2="76.5"/>
        <path class="st29"
              d="M289.7,90.2c0,0-1.4,6.1-2.2,6c-1.8-0.2-2.6-2.3-6.6,1.4c-7.2,6.7-0.2,13.7,4.2,15.4c0,0,6.6,3.5,7.2,7.8   c0.6,4.3,7.8,4.8,16.3-7.8"/>
        <circle class="st32" cx="307.4" cy="110.8" r="8.9"/>
        <path class="st31" d="M287.8,98.2c-3-2.9-7.9-1-9.9,2.1c-2.8,4.4,2,9.6,5.4,12c1.8,1.3,3.6,2.4,5.2,4"/>
        <path class="st28"
              d="M357.8,71.3c0,0-1.9-3.6,1-4.7c2.9-1,5.8-3.6,8.2-1c2.4,2.6,2.8,6.8,2.7,9.1c-0.1,2.2-1.9,5.5-0.5,8.5   S365.4,68.3,357.8,71.3z"/>
        <path class="st28"
              d="M288.6,100c0,0-1.2-3.9-4-2.7c-2.8,1.3-6.7,1.5-6.6,5c0.1,3.5,2.8,6.8,4.4,8.4c1.6,1.6,5.2,2.7,6.3,5.8   C289.9,119.6,281.1,103.2,288.6,100z"/>
        <path class="st30"
              d="M287.7,60.5c0,0-8.5-7.5-3.8-9.4c4.7-1.9,0.1-9.4,6.4-11.2c6.3-1.8,16.5-7.5,24-8.2c7.5-0.7,11,0.2,11,0.2   l6.5,21.6c0,0-7.3,6.9-11.8,5.6c-4.4-1.3-11.8,5.6-14.7,6c-3,0.4-7.1,7.6-10.8,6C290.6,69.5,287.7,60.5,287.7,60.5z"/>
        <circle class="st30" cx="287.9" cy="56.1" r="12.7"/>
        <circle class="st30" cx="343.1" cy="43.8" r="12.7"/>
        <ellipse transform="matrix(0.9259 -0.3777 0.3777 0.9259 6.9617 118.2364)" class="st30" cx="305" cy="41.4"
                 rx="21.7" ry="12.7"/>

        <ellipse transform="matrix(0.9259 -0.3777 0.3777 0.9259 7.5447 123.1849)" class="st30" cx="317.9" cy="42.4"
                 rx="21.7" ry="12.7"/>
        <path class="st28"
              d="M276.8,84.3L276.8,84.3c1.5,3.8,5.7,5.7,9.6,4.3c8.7-3,23.1-8.6,28.8-14.1c8.5-8.1,30.4-12.7,35.4-12.8   c5-0.1,5.5-9.8,5.5-9.8L329,38.7L276.8,84.3z"/>
</g>
    <g id="Pet">
	<path class="st34"
          d="M352.9,55.4c3.2-0.1,6-2.7,6.7-6.5c0.9-4.5,0.7-10.1-0.4-17.9c-4-27.7-19.9-25.3-19.9-25.3   c-28.4,0.5-50.9,32.9-50.9,32.9C276.1,53.8,266.1,61,260.9,63c-3.8,1.5-7.7,3.2-10.6,6.5C238,83.4,254.3,89,260.6,88.7   c0,0,27.2-7.1,43.6-19.4c0,0,14.7-9.2,24.9-11.5C336,56.2,346.8,55.6,352.9,55.4z"/>
        <path class="st18"
              d="M345.9,34.4c-7,7.5-15.6,12.2-25.1,15.7c-9,3.4-18.1,6.5-26.7,10.8c-7.6,3.7-15,8.3-21.1,14.3   c-3.5,3.5-6.3,7.4-8.5,11.7c8.7-2.7,26.4-8.9,38.3-17.9c0,0,14.7-9.2,24.9-11.5c7-1.6,17.8-2.2,23.8-2.4c3.2-0.1,6-2.7,6.7-6.5   c0.9-4.5,0.7-10.1-0.4-17.9c-0.5-3.5-1.2-6.5-2-9.1C352.7,26.2,349.6,30.5,345.9,34.4z"/>
        <path class="st35"
              d="M352.9,55.4c3.2-0.1,6-2.7,6.7-6.5c0.9-4.5,0.7-10.1-0.4-17.9c-4-27.7-19.9-25.3-19.9-25.3   c-28.4,0.5-50.9,32.9-50.9,32.9C276.1,53.8,266.1,61,260.9,63c-3.8,1.5-7.7,3.2-10.6,6.5C238,83.4,254.3,89,260.6,88.7   c0,0,27.2-7.1,43.6-19.4c0,0,14.7-9.2,24.9-11.5C336,56.2,346.8,55.6,352.9,55.4z"/>
</g>
    <g id="Mond">
	<g class="st28">
		<path
            d="M335,128.6c1-1.6,2-2.5,2.9-3.4c1-0.8,1.9-1.4,3-1.8c1-0.4,2.1-0.7,3.3-0.8c1.2-0.1,2.6,0,4.4,0.4    c-0.1,1.9-0.9,3.3-1.8,4.4c-0.9,1.1-2.1,1.9-3.4,2.4c-1.3,0.5-2.6,0.7-4.1,0.6C337.9,130.3,336.4,129.9,335,128.6z"/>
	</g>
        <path class="st1"
              d="M315.7,114c0,0-4.3,0.8-1,4.8c3.3,4,15.2,10.9,24.6,8.1c9.4-2.7,16.3-17.5,14.3-25.3c0,0-0.7-3.5-3.5-1.6   C349.5,100.5,335,116.3,315.7,114z"/>
        <path class="st36"
              d="M315.8,114l0.7,3.5c0.2,0.4,0.3,0.8,0.8,0.7c4.4-0.5,25.9-3.6,33.2-14.2c0.3-0.5,0.4-1.1,0.3-1.6l-0.7-2.3   c0,0-6.2,4.2-15.6,8.3C329.2,110.8,323,112.6,315.8,114z"/>
        <path class="st37"
              d="M325.1,125.6c0,0,3-5,11.4-6.2c0,0,2.3-0.3,6.1-2.3c3.8-2,6.6,1.5,6.6,1.5s-3.2,7.5-12.2,8.9   c-0.2,0-0.4,0.1-0.5,0.1C335.9,127.8,332.1,128.2,325.1,125.6z"/>
</g>
    <g id="Neus">
	<g class="st28">
		<path class="st1"
              d="M321.6,103.5c1.5-1.8,2.6-2.8,3.5-3.6c0.9-0.8,1.7-1.3,2.6-1.6c0.8-0.3,1.7-0.4,2.9-0.3    c1.2,0.1,2.6,0.2,4.9,0.6c0.6,2.3,0.1,4.1-0.8,5.6c-1,1.5-2.4,2.5-3.9,3c-1.6,0.5-3.3,0.6-4.9,0    C324.1,106.7,322.5,105.6,321.6,103.5z"/>
	</g>
        <path class="st31" d="M335.5,96.4c-2.9,5.5-10.6,6.9-14.5,4.6c-4.5-2.6-5.7-5.6-5.7-8.3"/>
</g>
    <g id="Wenk_links">
	<g>
		<path
            d="M295.3,82.9c0-0.3,0.1-0.6,0.4-1c0.3-0.5,0.8-1.2,1.5-1.7c0.7-0.6,1.5-1,2.4-1.4c0.9-0.4,1.8-0.6,2.6-0.6    c0.8-0.1,1.6,0,2.2,0.3c0.9,0.4,2-0.1,2.4-1c0.4-0.9-0.1-2-1-2.4c-1.2-0.5-2.6-0.6-3.8-0.5c-1.3,0.1-2.6,0.4-3.7,0.9    c-1.6,0.7-3.1,1.6-4.2,2.7c-0.6,0.6-1.1,1.2-1.5,1.9c-0.4,0.7-0.7,1.5-0.8,2.3c-0.1,1,0.6,1.9,1.6,2    C294.3,84.5,295.2,83.8,295.3,82.9L295.3,82.9z"/>
	</g>
        <path class="st28" d="M305.8,78.9c0,0-3.7,4.9-10,4.1C289.5,82.2,305.9,73,305.8,78.9z"/>
</g>
    <g id="Wenk_rechts">
	<g>
		<path
            d="M343,61.6c-0.7-0.5-1.4-0.9-2.2-1.1c-1.2-0.3-2.4-0.4-3.6-0.3c-1.2,0.1-2.5,0.4-3.7,0.9c-1.2,0.5-2.3,1.1-3.3,2    c-1,0.8-1.8,1.9-2.4,3.1c-0.4,0.9,0,2,0.9,2.4c0.9,0.4,2,0,2.4-0.9c0.3-0.6,0.7-1.2,1.4-1.8c0.6-0.5,1.5-1,2.3-1.4    c1.2-0.5,2.5-0.7,3.6-0.7c0.5,0,1,0.1,1.4,0.2c0.4,0.1,0.7,0.3,0.9,0.4c0.8,0.6,1.9,0.5,2.5-0.3C343.9,63.4,343.8,62.2,343,61.6    L343,61.6z"/>
	</g>
        <path class="st28" d="M330.7,67.9c0,0,6.1,0.9,10-4.1S326.4,63.8,330.7,67.9z"/>
</g>
    <g id="Oog_rechts">
	<g class="st28">
		<path
            d="M334.8,77.8c1.4-1.5,2-2.4,2.2-3.2c0.2-0.7,0-1-0.2-0.9c-0.2,0.1-0.1,0.5,0.6,0.7c0.7,0.3,1.8,0.4,3.8,0.4    c1.6,1.2,2.1,2.6,2,4c-0.1,1.4-1.1,2.7-2.5,3.3c-1.4,0.7-3,0.6-4.2-0.2C335.4,81.1,334.7,79.8,334.8,77.8z"/>
	</g>
        <path class="st31" d="M343.2,76.4c0,0-5.7-3.7-8.4,2.5"/>
</g>
    <g id="Oog_links">
	<path class="st1"
          d="M301.9,83.2c-0.8,0.3-1.2,1-1.5,1.8c-0.2,0.8-0.2,1.6,0.1,2.2l1.7,4.2c0.3,0.7,0.8,1.1,1.5,1.3   c0.6,0.2,1.4,0.2,2.1-0.1c0.7-0.3,1.2-0.8,1.6-1.4c0.3-0.6,0.4-1.3,0.1-2l-1.7-4.2c-0.3-0.7-0.8-1.2-1.5-1.6   C303.5,83.1,302.7,82.9,301.9,83.2z"/>
        <g class="st28">
		<path class="st1"
              d="M301.2,90.9c1.3-1.4,1.9-2.3,2.2-3c0.3-0.7,0.1-0.9-0.1-0.9c-0.1,0,0,0.4,0.6,0.6c0.7,0.2,1.7,0.3,3.7,0.2    c1.5,1.2,2,2.5,1.9,3.9c-0.1,1.3-1.1,2.6-2.5,3.2c-1.3,0.6-2.9,0.6-4-0.2C301.9,94,301.2,92.8,301.2,90.9z"/>
	</g>
</g>
</svg>
