<?xml version="1.0" encoding="UTF-8"?>
<svg width="2435px" height="2336px" viewBox="0 0 2435 2336" version="1.1" xmlns="http://www.w3.org/2000/svg"
     xmlns:xlink="http://www.w3.org/1999/xlink">
    <!-- Generator: Sketch 52.6 (67491) - http://www.bohemiancoding.com/sketch -->
    <title>Artboard</title>
    <desc>Created with Sketch.</desc>
    <g id="Artboard" stroke="none" stroke-width="1" fill="none" fill-rule="evenodd">
        <g id="cutImagePhoneAlt" transform="translate(21.000000, 31.000000)">
            <path
                d="M1700.7,739 C1857.1,715.5 1785.3,741.8 1801.1,598.4 C1777.6,593.2 1753.9,584.3 1732.8,580.3 C1687.5,571.9 1625.7,581.5 1587.8,613.3 C1589,613.5 1590.2,613.7 1591.3,613.9 C1625.7,620.9 1527.5,765 1700.7,739"
                id="Path" fill="#D8B5A2"/>
            <path
                d="M1685.5,652.4 C1622.7,656.9 1562.1,610.2 1536.8,576.6 C1523.9,559.5 1507.6,520.5 1506.3,494.2 C1504.6,460.2 1522.8,431.9 1513.7,396.4 C1441.1,113.1 1745.8,201.9 1745.8,201.9 L1779.7,182.5 C1837.5,190.9 1865.4,228.2 1849.8,372.3 C1845.9,408.7 1867.7,405.5 1870.9,439.4 C1873.3,465.6 1844.3,535.1 1834,553.9 C1813.8,590.8 1779.1,645.7 1716.3,650.2"
                id="Path" fill="#FAD0B9"/>
            <path
                d="M1840.2,313 C1839.9,345.5 1850.6,379.9 1857.2,342 C1857.2,342 1863.5,334.6 1865,352.8 L1860.1,364.1 L1873.4,401.9 L1862.5,442.9 L1867,430.9 C1867,430.9 1868.6,422.8 1883.8,420.5 C1883.8,420.5 1899.3,391.8 1885.6,385.9 C1885.6,385.9 1878.1,373.8 1890.4,361.3 C1890.4,361.3 1914,323.7 1886.5,311.7 L1879.1,227.2 C1879.1,227.2 1887.2,215.7 1876.5,196.2 C1870.5,185.2 1864.4,200.1 1861.3,210.6 C1861.4,208.7 1861,206.8 1859.9,205 C1859.9,205 1896.1,128.7 1844.2,105.7 C1839.5,103.6 1830.1,99.4 1819.1,104 C1808.1,108.6 1806.5,117.3 1787.7,109 C1768.8,100.7 1757.9,105.2 1757.9,105.2 L1754.9,107.3 C1753.5,120 1752.2,132.8 1750.8,145.5 C1747.9,171.1 1745,198.1 1746.1,224.1 C1751.7,223.9 1757.3,225.4 1762.1,229.4 C1765.8,232.5 1769,237 1771,243 C1774,251.8 1773.3,264.9 1778.3,271.4 C1790.5,287 1804.1,265.4 1817.3,266 C1828,266.5 1834.2,275.2 1839.1,290.7 C1843.6,304.9 1840.5,319.7 1833.8,331.7 C1831.7,335.5 1832.2,341.6 1833.1,347.7 C1834.1,354.3 1837.4,359.2 1841.6,360.9 C1841.6,360.9 1841.6,360.9 1841.7,360.9 C1844.7,362.2 1844.5,363.3 1846.6,366.4 L1840.2,313 Z"
                id="Path" fill="#FFE230"/>
            <path
                d="M1508.6,325.5 C1505.3,311.4 1516.7,302.8 1527.2,300.8 C1540.1,298.3 1556.1,315 1566.4,299.6 C1570.6,293.2 1568.4,282 1570.3,273.9 C1571.6,268.4 1574.2,263.9 1577.5,260.7 C1579.7,258.5 1582.2,256.9 1584.9,255.8 C1589.5,253.8 1592.2,249.2 1591.6,244.6 C1589,224.9 1583.8,205.1 1578.8,186.2 C1575.9,175.4 1573.2,164.5 1570.3,153.7 L1568.8,153.1 C1567.5,152.5 1566.1,152.2 1564.7,152.2 C1560.5,152.1 1550.9,152.8 1538.1,160.2 C1520.5,170.3 1517.9,162.9 1506.5,160.6 C1495.1,158.3 1486.8,170.8 1482.4,173.3 C1441.2,196.8 1466.6,236.7 1475.4,250.5 C1476.7,252.5 1477.5,254.8 1477.2,257.1 C1477.1,257.9 1477.1,258.7 1477.3,259.5 C1473,250.9 1465.2,238.9 1460.6,249.3 C1454.5,262.8 1457.8,271.1 1460.1,274.7 C1461.1,276.3 1461.7,278 1461.8,279.8 L1462.5,338.2 C1462.6,341.4 1461.3,344.5 1458.7,346.6 C1442.2,360 1459.6,381.8 1463.8,386.6 C1464.3,387.2 1464.9,387.7 1465.6,388.2 C1472.6,393.2 1473.8,398.9 1473.6,402.9 C1473.4,405.6 1471.9,408 1470,410 C1464.5,415.9 1470.6,427.2 1474.8,433.5 C1476.5,436.1 1479.4,437.9 1482.8,438.2 C1494,439.2 1495.9,444.6 1495.9,444.6 L1501.8,454.4 L1487.7,423.6 C1486.8,421.6 1486.6,419.3 1487.1,417.1 L1493.9,390 C1494.6,387.2 1494.1,384.3 1492.5,382 L1490.5,379.1 C1489.3,377.4 1488.7,375.4 1488.8,373.3 C1489.2,361.3 1495.2,366 1495.2,366 C1505.9,397.3 1512.4,367.6 1508.8,339.9 C1508.7,338.8 1508.3,337.8 1507.8,336.8 L1507.7,336.6 C1506.7,334.6 1506.9,332.2 1508,330.3 C1508.6,328.6 1509,327.2 1508.6,325.5 Z"
                id="Path" fill="#FFE230"/>
            <path
                d="M1515.9,369.9 C1515.9,369.9 1506.6,347.5 1470.6,367 C1435.5,386 1453.7,426.2 1468.1,440.2 C1468.1,440.2 1489.1,465.5 1486.3,484.9 C1483.4,504.3 1510.7,518.2 1560,476.1"
                id="Path" fill="#FAD0B9"/>
            <path
                d="M1496.3,379.6 C1488.4,362.6 1467.4,364 1456,375.1 C1440.4,390.4 1452.2,419.6 1462.3,434.8 C1467.7,443 1473.1,450.6 1477.5,459.8"
                id="Path" stroke="#081922" stroke-width="17.7801" stroke-linecap="round"/>
            <path
                d="M1485.7,389.6 C1485.7,389.6 1485.9,370.6 1473.6,372.2 C1461.4,373.8 1446.4,369.5 1442.5,384.9 C1438.6,400.3 1444.9,418.5 1449.1,427.5 C1453.3,436.6 1465.7,446.7 1466.2,461.8 C1466.8,477 1453.2,392.9 1485.7,389.6 Z"
                id="Path" fill="#000000" opacity="0.13"/>
            <path
                d="M1821.5,333 C1821.5,333 1824.8,305.8 1875.4,311.4 C1927.6,317.1 1918.5,369 1904.9,389.8 C1904.9,389.8 1898,409 1892.4,426.9 C1889.9,434.8 1889.2,443.1 1888.8,451.4 C1887.8,469.4 1847.1,484.9 1806.1,458.5"
                id="Path" fill="#FAD0B9"/>
            <path
                d="M1845.8,335.9 C1849.5,314.6 1875.4,307.2 1893.4,314.4 C1918.7,324.4 1914,361.5 1906.5,382.2 C1902.6,393.2 1898.4,403.5 1896.2,415"
                id="Path" stroke="#081922" stroke-width="17.7801" stroke-linecap="round"/>
            <path
                d="M1850.9,340.8 C1850.9,340.8 1847.5,319.9 1863,319 C1878.7,318.2 1897.3,309.9 1905.1,326.5 C1913,343.2 1907.9,365.2 1904,376.3 C1900.1,387.3 1885.9,400.8 1887.8,417.9 C1889.6,435.2 1892.6,337.8 1850.9,340.8 Z"
                id="Path" fill="#000000" opacity="0.13"/>
            <path
                d="M1735.9,439.7 C1733,463.8 1749.3,486.4 1772.6,490.2 C1796.2,494.1 1818.1,477.3 1821.1,452.6 C1824.2,427.8 1807.1,404.9 1783.3,401.7 C1759.9,398.5 1738.8,415.5 1735.9,439.7 Z"
                id="Path" fill="#F5AD93"/>
            <path
                d="M1528.8,428.3 C1548.7,422.3 1569.8,435.6 1575.6,458.2 C1581.4,480.9 1569.6,503.8 1549.5,509.3 C1529.6,514.7 1509.1,501.1 1503.5,479 C1498,456.8 1509.2,434.2 1528.8,428.3 Z"
                id="Path" fill="#F5AD93"/>
            <path d="M1716.8,351.7 C1716.9,351.9 1716.9,352.1 1717,352.3 C1716.9,351.9 1716.8,351.7 1716.8,351.7 Z"
                  id="Path" fill="#FFE230"/>
            <path d="M1722.8,368.6 C1723,369.1 1723.2,369.6 1723.3,370.1 C1723.2,369.6 1723,369.1 1722.8,368.6 Z"
                  id="Path" fill="#FFE230"/>
            <path d="" id="Path" fill="#FFE230"/>
            <path d="M1726.4,378.8 C1726.7,379.7 1726.9,380.3 1727,380.5 C1727,380.3 1726.8,379.7 1726.4,378.8 Z"
                  id="Path" fill="#FFE230"/>
            <path d="M1726.1,377.8 C1726.2,378.2 1726.4,378.5 1726.5,378.8 C1726.3,378.5 1726.2,378.2 1726.1,377.8 Z"
                  id="Path" fill="#FFE230"/>
            <path d="M1724.4,373 C1725.1,375 1725.7,376.7 1726.1,377.8 C1725.6,376.5 1725,374.8 1724.4,373 Z" id="Path"
                  fill="#FFE230"/>
            <path d="M1569.7,365 C1569.7,365 1569.7,365.2 1569.6,365.6 C1569.6,365.4 1569.6,365.2 1569.7,365 Z"
                  id="Path" fill="#FFE230"/>
            <path d="M1564.8,391 C1564.7,391.4 1564.7,391.7 1564.6,392 C1564.7,391.7 1564.8,391.3 1564.8,391 Z"
                  id="Path" fill="#FFE230"/>
            <path d="M1564.6,392 C1564.4,392.9 1564.3,393.5 1564.3,393.7 C1564.4,393.5 1564.5,392.9 1564.6,392 Z"
                  id="Path" fill="#FFE230"/>
            <path d="" id="Path" fill="#FFE230"/>
            <path
                d="M1767.7,137.7 C1767.7,137.7 1785.3,84.3 1760.4,87.9 C1735.5,91.5 1736.4,47.8 1704.9,56.1 C1673.4,64.3 1615.5,65.5 1581.5,81.4 C1547.5,97.3 1534.8,110 1534.8,110 L1561.6,218.7 C1561.6,218.7 1610.4,229.7 1626.1,212.9 C1641.8,196.1 1690.6,207.1 1704.3,201.5 C1718,195.9 1753.6,216.1 1765.8,199.8 C1778,183.5 1767.7,137.7 1767.7,137.7 Z"
                id="Path" fill="#FFE230"/>
            <circle id="Oval" fill="#FFE230" cx="1756" cy="119.4" r="62.9"/>
            <ellipse id="Oval" fill="#FFE230"
                     transform="translate(1649.642930, 124.911630) rotate(-8.319705) translate(-1649.642930, -124.911630) "
                     cx="1649.64293" cy="124.91163" rx="107.802605" ry="45.6011021"/>
            <ellipse id="Oval" fill="#FFE230"
                     transform="translate(1535.296730, 162.600260) rotate(-15.224465) translate(-1535.296730, -162.600260) "
                     cx="1535.29673" cy="162.60026" rx="106.899507" ry="45.9997877"/>
            <ellipse id="Oval" fill="#FFE230"
                     transform="translate(1471.341420, 221.112840) rotate(-8.319705) translate(-1471.341420, -221.112840) "
                     cx="1471.34142" cy="221.11284" rx="35.9008677" ry="46.7011287"/>
            <ellipse id="Oval" fill="#FFE230"
                     transform="translate(1825.546380, 172.912500) rotate(-8.319705) translate(-1825.546380, -172.912500) "
                     cx="1825.54638" cy="172.9125" rx="55.7013463" ry="53.9013027"/>
            <path
                d="M1461,282.8 L1463.5,317.8 C1463.5,317.8 1604,320.9 1656.3,295.8 C1708.6,270.7 1818.3,282.9 1842.1,290 C1865.9,297.1 1882.8,252.5 1882.8,252.5 L1776,148.8 L1461,282.8 Z"
                id="Path" fill="#000000" opacity="0.13"/>
            <path
                d="M1862.5,263.9 C1877.6,268.3 1894.7,260.2 1903.8,243.8 C1914.8,223.9 1922.7,197.4 1929.3,159.1 C1953,22.7 1874.5,9.6 1874.5,9.6 C1740.5,-31.7 1585,86.2 1585,86.2 C1504.6,138.8 1446.7,156.9 1418.8,158.6 C1398.7,159.8 1377.5,161.9 1358.8,173 C1280.3,219.4 1348.3,270.6 1378.3,278.6 C1378.3,278.6 1516.8,287.1 1612.5,254.4 C1612.5,254.4 1695.5,233.9 1746.8,238.6 C1782.3,241.9 1833.9,255.7 1862.5,263.9 Z"
                id="Path" stroke="#081922" stroke-width="22.2252" fill="#E20613" stroke-linecap="round"/>
            <path
                d="M1861.9,154.8 C1817.6,179.2 1769.9,188 1719.8,190.1 C1672.2,192.1 1624.9,193 1577.7,199.7 C1536.1,205.6 1494.5,215.4 1456.8,234.5 C1435.1,245.5 1415.7,259.6 1398.7,276.2 C1443.7,276.9 1536.2,275 1606,251.2 C1606,251.2 1689,230.7 1740.3,235.4 C1775.7,238.6 1827.3,252.4 1855.9,260.7 C1871,265.1 1888.1,257 1897.2,240.6 C1908.2,220.7 1916.1,194.2 1922.7,155.9 C1925.7,138.7 1927,123.4 1927.1,109.9 C1906.5,126.4 1885.1,142 1861.9,154.8 Z"
                id="Path" fill="#951914"/>
            <path
                d="M1862.5,263.9 C1877.6,268.3 1894.7,260.2 1903.8,243.8 C1914.8,223.9 1922.7,197.4 1929.3,159.1 C1953,22.7 1874.5,9.6 1874.5,9.6 C1740.5,-31.7 1585,86.2 1585,86.2 C1504.6,138.8 1446.7,156.9 1418.8,158.6 C1398.7,159.8 1377.5,161.9 1358.8,173 C1280.3,219.4 1348.3,270.6 1378.3,278.6 C1378.3,278.6 1516.8,287.1 1612.5,254.4 C1612.5,254.4 1695.5,233.9 1746.8,238.6 C1782.3,241.9 1833.9,255.7 1862.5,263.9 Z"
                id="Path" stroke="#081922" stroke-width="22.2252" stroke-linecap="round"/>
            <g id="Group" opacity="0.13" transform="translate(1600.000000, 534.000000)" fill="#081922">
                <path
                    d="M0.3,0.8 C2.4,1.3 4.2,2 5.9,2.6 C7.7,3.1 9.3,3.7 10.9,4.2 C12.6,4.6 14.1,5.1 15.6,5.5 C17.2,5.8 18.6,6.3 20,6.6 C25.7,8 30.9,8.9 36.2,9.5 C41.5,10.1 46.8,10.5 52.8,10.6 C55.8,10.7 58.9,10.6 62.3,10.6 C63.2,10.6 64,10.5 64.9,10.5 C65.8,10.5 66.7,10.5 67.6,10.5 C69.4,10.4 71.3,10.4 73.5,10.5 C72.8,12.4 71.8,14.2 70.7,15.9 C69.6,17.6 68.3,19 66.9,20.5 C66.6,20.9 66.2,21.2 65.9,21.6 C65.5,21.9 65.2,22.2 64.8,22.6 C64,23.2 63.3,23.9 62.5,24.5 C60.9,25.8 59.2,26.7 57.4,27.6 C50.2,31.3 41.8,32.7 33.5,31.7 C25.3,30.7 17.3,27.2 11.2,21.8 C9.7,20.4 8.3,18.9 7,17.4 C5.8,15.8 4.7,14.1 3.7,12.4 C2.8,10.6 2,8.7 1.4,6.9 C0.9,4.9 0.5,2.9 0.3,0.8 Z"
                    id="Path"/>
            </g>
            <path
                d="M1771.8,499.1 C1771.8,499.1 1796.4,492.6 1789.3,521.5 C1782.2,550.4 1737.5,615.9 1681.8,625.2 C1626.1,634.5 1553.5,575 1544.3,529.7 C1544.3,529.7 1539,510 1558.5,512.8 C1562.3,513.3 1677.4,558.9 1771.8,499.1 Z"
                id="Path" fill="#081922"/>
            <g id="Group" opacity="0.13" transform="translate(1629.000000, 616.000000)" fill="#000000">
                <path
                    d="M80.4,7.5 C78.1,11.5 75.2,14.4 72.3,17.1 C70.8,18.4 69.2,19.6 67.6,20.6 C66,21.6 64.3,22.6 62.7,23.5 C56,26.9 48.8,28.8 41.5,29.3 C34.2,29.8 26.8,29 19.6,26.5 C17.8,25.9 16,25.1 14.3,24.3 C12.6,23.4 10.8,22.4 9.2,21.4 C5.9,19.1 2.7,16.5 0,12.8 C2,11.5 3.8,10.6 5.6,9.7 C7.4,8.8 9.1,8 10.9,7.3 C12.6,6.6 14.3,6 15.9,5.4 C17.5,4.8 19.2,4.3 20.8,3.9 C27.2,2.1 33.4,1 39.6,0.6 C45.8,0.2 52.1,0.3 58.8,1.3 C60.5,1.5 62.1,1.8 63.9,2.2 C65.6,2.6 67.4,2.9 69.2,3.5 C71,4 72.8,4.5 74.7,5.2 C76.3,5.7 78.3,6.4 80.4,7.5 Z"
                    id="Path"/>
            </g>
            <path
                d="M1771.4,499.1 L1776.4,519 C1776.4,521.7 1776.5,523.9 1773.9,524.7 C1749.6,532.9 1630.3,570.5 1565.8,533.9 C1562.9,532.2 1560.9,529.4 1560.2,526.1 L1558.3,512.5 C1558.3,512.5 1600.8,518.7 1660.1,516.8 C1693.6,515.9 1730.5,509.9 1771.4,499.1 Z"
                id="Path" fill="#FFFFFF"/>
            <path
                d="M1751.9,582.7 C1751.9,582.7 1723.6,564.1 1677.3,579.2 C1677.3,579.2 1664.6,583.3 1639.6,582.5 C1614.6,581.7 1608.9,607.1 1608.9,607.1 C1608.9,607.1 1644.3,638.1 1694.6,622.6 C1695.6,622.3 1696.6,622 1697.7,621.7 C1701.4,620.7 1722.3,613.6 1751.9,582.7 Z"
                id="Path" fill="#D62229"/>
            <g id="Group" opacity="0.13" transform="translate(1606.000000, 459.000000)" fill="#081922">
                <path
                    d="M0.8,7.8 C2.7,7.2 4.5,6.8 6.2,6.5 C7.9,6.1 9.6,5.8 11.2,5.6 C12.8,5.3 14.4,5 15.9,4.8 C17.4,4.5 18.9,4.3 20.3,4.2 C26.1,3.4 31.5,2.9 36.9,2.4 C42.3,1.9 47.6,1.5 53.4,1.3 C54.8,1.2 56.3,1.1 57.8,1.1 C59.3,1 60.9,1 62.5,0.9 C64.1,0.8 65.8,0.8 67.5,0.8 C69.2,0.7 71,0.7 73.1,0.9 C72.5,2.8 71.6,4.5 70.7,6.1 C69.7,7.7 68.6,9.1 67.5,10.6 C66.3,12 65,13.2 63.6,14.5 C62.2,15.7 60.7,16.7 59.2,17.7 C53.1,21.6 46,23.9 38.8,24.5 C31.6,25.1 24.3,24.1 17.7,21.4 C16,20.7 14.4,19.9 12.9,19.1 C11.3,18.2 9.8,17.2 8.4,16.1 C7,14.9 5.6,13.7 4.3,12.4 C3,11 1.8,9.5 0.8,7.8 Z"
                    id="Path"/>
            </g>
            <path d="M1682.1,449.2 C1661.5,472.4 1623.3,469.9 1606.9,454.2 C1588.3,436.3 1586.4,420.6 1589.3,407.4"
                  id="Path" stroke="#081922" stroke-width="17.7801" stroke-linecap="round"/>
            <path d="M1762,294.2 C1751.5,278.3 1714.2,277.7 1699.5,295.7" id="Path" stroke="#081922"
                  stroke-width="22.2252" stroke-linecap="round" stroke-linejoin="round"/>
            <path d="M1703.5,301.8 C1703.5,301.8 1729.6,315 1755.1,296.3 C1781,277.2 1690.5,276.2 1703.5,301.8 Z"
                  id="Path" fill="#000000" opacity="0.13"/>
            <path d="M1526.7,318.8 C1533.5,302.2 1566.1,294 1581.7,307.9" id="Path" stroke="#081922"
                  stroke-width="22.2252" stroke-linecap="round" stroke-linejoin="round"/>
            <path d="M1581.4,318.5 C1581.4,318.5 1559.9,336 1535.3,323.6 C1511.2,311.4 1589.8,291.5 1581.4,318.5 Z"
                  id="Path" fill="#000000" opacity="0.13"/>
            <path
                d="M1550.2,370.8 L1548.7,349.2 C1548.5,346 1549.5,342.3 1551.3,339.2 C1552.2,337.6 1553.3,336.2 1554.7,335.1 C1556.1,334 1557.7,333.1 1559.5,332.9 L1559.9,332.9 C1561.7,332.7 1563.4,333.1 1564.9,333.9 C1567.2,335.1 1569,337 1570.5,339.1 C1571.9,341.3 1572.9,343.7 1573.3,346.1 L1573.4,347 L1575,368.8 C1575.4,375.2 1570.7,380.8 1564.3,381.7 L1563.5,381.8 C1557.1,382.4 1551.4,378 1550.4,371.7 L1550.2,370.8 Z"
                id="Path" fill="#081922"/>
            <g id="Group" opacity="0.13" transform="translate(1546.000000, 361.000000)" fill="#081922">
                <path
                    d="M0.9,5.7 C2.3,5.3 3.5,5 4.5,4.8 L7.4,4 C9.2,3.5 10.6,3 11.7,2.6 C12.3,2.4 12.7,2.1 13.1,2 C13.5,1.8 13.8,1.6 14.1,1.5 C14.4,1.3 14.6,1.2 14.8,1.1 C14.9,1 15,1 15.1,1 C15.2,1 15.3,1 15.4,0.9 C16.1,0.8 17.2,1.2 19.7,1.3 L20.7,1.4 L21.8,1.4 C22.6,1.4 23.4,1.5 24.3,1.4 L25.8,1.4 C26.3,1.4 26.8,1.4 27.4,1.4 C28.5,1.3 29.7,1.4 31.2,1.4 C32.4,3.9 32.8,6.3 32.7,8.5 C32.7,9.1 32.6,9.6 32.6,10.2 C32.5,10.7 32.4,11.3 32.2,11.8 C32.1,12.3 31.9,12.9 31.7,13.4 C31.5,13.9 31.2,14.4 30.9,14.9 C30.6,15.4 30.3,15.9 30,16.4 C29.7,16.9 29.3,17.3 28.9,17.7 C28.5,18.1 28.1,18.6 27.7,19 C27.2,19.4 26.7,19.8 26.2,20.1 C25.7,20.5 25.2,20.8 24.6,21.1 C24,21.4 23.4,21.6 22.8,21.9 C21.6,22.4 20.3,22.7 19,23 C18.7,23.1 18.4,23.1 18,23.2 L17,23.2 C16.3,23.2 15.7,23.2 15,23.2 C13.7,23.1 12.4,22.8 11.2,22.5 C10,22.1 8.8,21.6 7.8,21 C6.8,20.3 5.8,19.7 5,18.9 C3.3,17.3 2.1,15.3 1.4,13.2 C0.7,10.8 0.4,8.4 0.9,5.7 Z"
                    id="Path"/>
            </g>
            <path
                d="M1716.5,356 L1714.9,333.1 C1714.7,329.7 1715.8,325.9 1717.8,322.6 C1719.8,319.4 1722.8,316.5 1726.7,315.9 L1727.1,315.8 C1729,315.6 1730.9,316 1732.6,316.8 C1735.1,318 1737.2,320 1738.7,322.2 C1740.3,324.5 1741.4,327 1741.7,329.6 L1741.8,330.5 L1743.4,353.5 C1743.6,356.9 1742.4,360.1 1740.3,362.5 C1738.2,364.9 1735.1,366.6 1731.7,367.1 L1730.8,367.2 C1723.8,367.8 1717.5,363.3 1716.5,356.7 L1716.5,356 Z"
                id="Path" fill="#081922"/>
            <g id="Group" opacity="0.13" transform="translate(1712.000000, 346.000000)" fill="#081922">
                <path
                    d="M1,5.7 C2.4,5.3 3.7,5 4.8,4.8 L7.9,4.1 C8.8,3.9 9.7,3.6 10.5,3.4 C10.9,3.3 11.3,3.2 11.6,3.1 C11.9,3 12.3,2.9 12.6,2.8 C13.2,2.6 13.8,2.4 14.3,2.2 C14.8,2 15.2,1.8 15.6,1.7 C16,1.5 16.3,1.4 16.6,1.3 C16.7,1.2 16.9,1.2 17,1.2 C17.1,1.2 17.3,1.2 17.4,1.1 C18.5,0.9 20,1.1 22.7,1.1 C23,1.1 23.4,1.1 23.8,1.1 L25,1.1 C25.8,1.1 26.7,1.1 27.7,1 L29.2,0.9 C29.8,0.9 30.3,0.9 30.9,0.8 C32,0.7 33.3,0.7 34.8,0.7 C35.8,3.4 36,5.9 35.8,8.2 C35.7,8.8 35.7,9.4 35.5,10 C35.4,10.6 35.2,11.1 35,11.7 C34.8,12.3 34.6,12.8 34.4,13.4 C34.1,13.9 33.8,14.4 33.5,14.9 C33.2,15.4 32.8,15.9 32.5,16.4 C32.1,16.9 31.7,17.3 31.3,17.8 C30.9,18.2 30.4,18.7 29.9,19.1 C29.4,19.5 28.9,19.9 28.3,20.2 C27.8,20.6 27.2,20.9 26.6,21.2 C26,21.5 25.4,21.7 24.8,22 C23.6,22.5 22.2,22.8 20.9,23 C20.6,23.1 20.2,23.1 19.9,23.2 L18.9,23.2 C18.2,23.2 17.5,23.2 16.9,23.2 C15.6,23.1 14.2,22.9 13,22.6 C11.8,22.2 10.5,21.7 9.4,21.1 C8.3,20.4 7.2,19.8 6.4,19 C5.5,18.2 4.6,17.3 4,16.3 C3.3,15.3 2.7,14.3 2.3,13.2 C1.1,11 0.7,8.5 1,5.7 Z"
                    id="Path"/>
            </g>
            <path
                d="M1450.8,771.2 C1448.3,769.5 1432.4,758.7 1405.5,744.6 C1365.3,723.5 1300.7,694.6 1219.8,677.9 C1179.6,669.6 1135.5,664.4 1088.7,665 C1042.1,665.6 993,671.9 942.9,686.5 C899.2,699.2 875.7,749.5 890.2,798.8 C904.7,848.1 951.7,878.2 995.5,866 C1044,852.5 1091,849.6 1134.8,853 C1200.9,858 1130.3,1180.5 1171.8,1198.9 C1192.6,1208.1 1366.1,997.7 1376.8,1003.9 C1382.2,1007 1358.4,925.9 1360.8,927.4 C1362,928.2 1362.8,928.7 1363.2,928.9 L1363.5,929.1 L1376.5,905.3 L1363.4,929 L1363.5,929.1 L1376.5,905.3 L1363.4,929 L1391.3,878.4 L1363.3,928.9 L1363.4,929 L1391.3,878.4 L1363.3,928.9 L1397.7,866.9 L1363.3,928.9 L1397.7,866.9 L1363.3,928.9 L1405.9,852.1 L1363.2,928.8 L1363.3,928.9 L1405.9,852.1 L1363.2,928.8 C1405.1,957.8 1458.8,946.4 1483.3,903 C1507.6,859.3 1493.2,800.2 1450.8,771.2 Z"
                id="Path" fill="#e9f4ff"/>
            <path
                d="M2223.1,1061.5 C2246.3,1003.9 2291.2,988.1 2333.1,1008.6 C2375,1029.1 2389.3,1074 2356.8,1127 L2194.7,1365 C2172,1398.3 2121.3,1379.1 2123.6,1338.1 C2123.7,1337.2 2123.7,1336.3 2123.8,1335.4 L2223.1,1061.5"
                id="Path" fill="#F9C7A5"/>
            <path
                d="M2206.1,1351.1 L2361.5,1122.3 C2394,1069.3 2379.6,1024.4 2337.8,1003.9 C2296,983.4 2251,999.2 2227.8,1056.8 L2137.6,1286.8"
                id="Path" stroke="#081922" stroke-width="22.0716" stroke-linecap="round" stroke-linejoin="round"/>
            <path
                d="M1883.8,729.8 C1886.9,729.8 1906,730.2 1936.2,734.1 C1981.2,740 2050.7,753.6 2126.5,786.5 C2164.1,802.9 2203.2,824 2241.1,851.5 C2278.8,878.8 2315.4,912.2 2347.9,953 C2376.3,988.6 2366.5,1043.2 2326.3,1075.2 C2286.1,1107.1 2230.3,1104.7 2201.5,1069.5 C2169.6,1030.5 2132.9,1001.1 2095.1,978.6 C2038.2,944.7 1978.9,926.9 1934.3,918 C1912,913.5 1893.5,911.3 1881.1,910.2 C1874.9,909.6 1870.3,909.4 1867.5,909.2 C1866.1,909.1 1865.1,909.1 1864.7,909.1 L1864.4,909.1 L1867.5,882.2 L1864.5,909.1 L1864.4,909.1 L1867.5,882.2 L1864.5,909.1 L1870.9,851.7 L1864.7,909.1 L1864.6,909.1 L1871,851.7 L1864.8,909.1 L1872.4,838.6 L1864.8,909.1 L1872.4,838.6 L1864.8,909.1 L1874.2,821.8 L1865,909.1 L1864.8,909.1 L1874.2,821.8 L1865,909.1 C1814.1,908.7 1776.7,868.4 1781.7,818.9 C1786.5,769.1 1832.4,729.1 1883.8,729.8 Z"
                id="Path" fill="#e9f4ff"/>
            <path
                d="M2333.2,936 C2333.2,936 2348,928.6 2354.5,940.4 C2361,952.2 2373.4,951.9 2373.9,964.4 C2374.4,976.9 2382.4,1034.4 2329.9,1072.8 C2277.5,1111.1 2227.9,1112.5 2221.3,1100.9 C2214.7,1089.2 2188.7,1096.3 2197.5,1081.1 C2206.3,1065.9 2295.1,1024.3 2333.2,936 Z"
                id="Path" fill="#ECECEC"/>
            <path
                d="M2003.3,944.4 C2031.1,954.2 2060.5,967.3 2089.3,984.4 C2127.1,1006.9 2163.8,1036.3 2195.7,1075.2 C2196.9,1076.7 2198.3,1078 2199.6,1079.4 C2197,1081.6 2195.1,1083.5 2194.2,1085.2 C2185.3,1100.3 2211.4,1093.5 2217.9,1105.2 C2224.4,1116.9 2274,1115.8 2326.6,1077.8 C2379.3,1039.8 2371.7,982.2 2371.3,969.8 C2370.8,957.3 2358.4,957.5 2352,945.6 C2345.6,933.7 2330.7,941 2330.7,941 C2330.3,941.9 2329.9,942.7 2329.5,943.6 C2300.2,909.6 2268.2,881.1 2235.3,857.3 C2213.4,841.5 2191.1,827.8 2169,815.8"
                id="Path" stroke="#081922" stroke-width="23.7167" stroke-linecap="round" stroke-linejoin="round"/>
            <path d="M2199.1,1049.6 C2199.1,1049.6 2133.6,966.4 2027.2,934.5" id="Path" stroke="#081922"
                  stroke-width="33.1313" opacity="0.06" stroke-linecap="round"/>
            <path
                d="M1562.7,2274.9 C1540.8,2276 1518.8,2277.2 1496.9,2278.3 C1453.6,2280.5 1413.6,2304.3 1418,2342.1 C1439,2520.4 1483.4,2830.1 1483.4,2830.1 C1483.4,2830.1 1578.8,2867 1667.4,2835.8 C1646.9,2728.9 1644,2443.9 1643,2340.9 C1642.6,2303.1 1606.7,2272.8 1563.5,2274.9 C1563.2,2274.9 1563,2274.9 1562.7,2274.9 Z"
                id="Path" fill="#1A66AA"/>
            <path
                d="M1552.9,2274.3 C1543.4,2415.6 1554.5,2730.4 1582.6,2847.6 C1582.6,2847.8 1582.8,2847.9 1583,2847.9 C1609.9,2848.6 1639.7,2845.8 1668.8,2835.5 C1669,2835.4 1669.1,2835.3 1669.1,2835.1 C1648.5,2727.8 1645.9,2447.3 1645,2343.9 C1644.7,2305.7 1608.7,2274.2 1573.3,2272"
                id="Path" fill="#095990"/>
            <path
                d="M1817.4,2268.8 C1839.3,2269.9 1861.3,2271.1 1883.2,2272.2 C1926.5,2274.4 1966.5,2298.2 1962.1,2336 C1941.1,2514.3 1896.7,2824 1896.7,2824 C1896.7,2824 1801.3,2860.9 1712.7,2829.7 C1733.2,2722.8 1736.1,2437.8 1737.1,2334.8 C1737.5,2297 1773.4,2266.7 1816.6,2268.8 C1816.9,2268.7 1817.2,2268.7 1817.4,2268.8 Z"
                id="Path" fill="#1A66AA"/>
            <path
                d="M1827.2,2268.1 C1836.7,2409.4 1825.6,2724.2 1797.5,2841.4 C1797.5,2841.6 1797.3,2841.7 1797.1,2841.7 C1770.2,2842.4 1740.4,2839.6 1711.3,2829.3 C1711.1,2829.2 1711,2829.1 1711,2828.9 C1731.6,2721.6 1734.2,2441.1 1735.1,2337.7 C1735.4,2299.5 1771.4,2268 1806.8,2265.8"
                id="Path" fill="#095990"/>
            <path
                d="M1615.5,2397.7 C1615.7,2397.7 1615.9,2397.7 1616,2397.6 C1646.1,2393.5 1645.9,2363 1643.6,2337.7 C1635.8,2252.6 1644.6,2092.2 1643.6,2023.4 L1643.1,1968.7 C1642.8,1830.1 1649.5,1735.8 1649.5,1735.8 L1506.5,1723.4 L1421.2,1730.1 C1410.8,1766 1385.1,1866.7 1389.6,1967 C1387.5,2069.4 1404.2,2270.3 1422.6,2374.3 C1427.3,2401 1463.8,2419.3 1495.8,2414.8 C1535.7,2409.2 1575.5,2403.1 1615.5,2397.7 Z"
                id="Path" fill="#1A66AA"/>
            <path
                d="M1549.6,2418.8 L1530.5,1955.3 L1668.2,1958.4 C1668.2,1958.4 1645.3,2328.6 1644.5,2376 C1643.6,2423.4 1549.6,2418.8 1549.6,2418.8 Z"
                id="Path" fill="#095990"/>
            <path d="M1645.2,2278.1 C1644.4,2204.4 1653.1,2067.5 1658.7,1991.6" id="Path" stroke="#081922"
                  stroke-width="22.9594" stroke-linecap="round" stroke-linejoin="round"/>
            <path
                d="M1764.6,2391.6 C1764.4,2391.6 1764.2,2391.6 1764.1,2391.5 C1734,2387.4 1734.2,2356.9 1736.5,2331.6 C1744.3,2246.5 1735.5,2086.1 1736.5,2017.3 L1737,1962.6 C1737.3,1824 1730.6,1729.7 1730.6,1729.7 L1873.6,1717.3 L1958.9,1724 C1969.3,1759.9 1995,1860.6 1990.5,1960.9 C1992.6,2063.3 1975.9,2264.2 1957.5,2368.2 C1952.8,2394.9 1916.3,2413.2 1884.3,2408.7 C1844.4,2403.1 1804.6,2397 1764.6,2391.6 Z"
                id="Path" fill="#1A66AA"/>
            <path
                d="M1830.6,2412.7 L1849.7,1949.2 L1712,1952.3 C1712,1952.3 1734.9,2322.5 1735.7,2369.9 C1736.5,2417.3 1830.6,2412.7 1830.6,2412.7 Z"
                id="Path" fill="#095990"/>
            <path d="M1735,2272 C1735.8,2198.3 1727.1,2061.4 1721.5,1985.5" id="Path" stroke="#081922"
                  stroke-width="22.9594" stroke-linecap="round" stroke-linejoin="round"/>
            <path d="M1414.3,1283.3 C1414.3,1283.3 1382.3,1173.6 1421.1,1060.2" id="Path" stroke="#000000"
                  stroke-width="36.735" opacity="0.06" stroke-linecap="round"/>
            <path d="M1985.2,1304.4 C1985.2,1304.4 2008.4,1192.5 1960.7,1082.5" id="Path" stroke="#000000"
                  stroke-width="36.735" opacity="0.06" stroke-linecap="round"/>
            <path
                d="M1383.8,1611.8 C1403.5,1676.5 1486.9,1949.4 1493.6,1948 C1501.2,1946.4 1714.8,1894.3 1867.3,1943.1 L1976.5,1611.8 L1383.8,1611.8 Z"
                id="Path" fill="#1A66AA"/>
            <path
                d="M1750.3,1128.7 C1750.4,1128.4 1750.4,1128.1 1750.5,1127.8 C1749.4,1100 1749.5,1072 1748.5,1043.3 C1746.5,981.1 1738.1,916.7 1718.5,857.9 C1705.8,819.7 1683.8,793.9 1660.3,768.1 C1611.9,749.9 1558.4,735.8 1548.8,730.2 L1548.7,729.7 L1548,729.7 C1547.6,729.4 1547.3,729.1 1547.2,728.9 C1547.1,728.7 1547.1,729.1 1547.1,729.7 L1499.4,729.7 C1499.4,729.1 1499.4,728.7 1499.3,728.9 C1499.2,729.1 1498.9,729.4 1498.5,729.7 L1497.1,729.7 L1496.9,730.7 C1491.9,733.3 1479.5,737.3 1463.2,742.4 C1392.1,765 1340.6,838.2 1334.4,925.9 C1334.4,926.4 1334.3,926.9 1334.3,927.5 C1328.2,1019.6 1333.8,1226.2 1351.1,1313.1 C1359.7,1356.6 1393.5,1283.9 1394.2,1328.1 C1394.9,1367.6 1388.3,1405.4 1376,1441.4 C1363.5,1477.9 1346.2,1513.2 1343.9,1553.1 C1341.9,1587.4 1351.9,1619.1 1372.1,1644.6 L1372.5,1645.1 C1395.9,1674.6 1428.1,1692.8 1462.3,1696 C1500.3,1699.5 1529.7,1699.5 1533,1699.5 C1538.6,1699.5 1797.1,1711.7 1867.4,1694.5 C1929.6,1679.3 1791.4,1597.3 1780.1,1524.6 L1749.8,1329.3 L1750.3,1128.7 Z"
                id="Path" fill="#e9f4ff"/>
            <path
                d="M1620.6,1128.7 C1620.5,1128.4 1620.5,1128.1 1620.4,1127.8 C1621.5,1100 1621.4,1072 1622.3,1043.3 C1624.3,981.1 1578,818.3 1597.5,758.8 C1610.2,720.2 1663.1,765 1686.7,739.1 C1735.1,720.8 1812.2,735.8 1821.9,730.2 L1822,729.7 L1822.7,729.7 C1823.1,729.4 1823.4,729.1 1823.5,728.9 C1823.6,728.7 1823.6,729.1 1823.6,729.7 L1871.3,729.7 C1871.3,729.1 1871.3,728.7 1871.4,728.9 C1871.5,729.1 1871.8,729.4 1872.2,729.7 L1873.6,729.7 L1873.8,730.7 C1878.8,733.3 1891.2,737.3 1907.5,742.4 C1978.7,765 2030.2,838.2 2036.4,925.9 C2036.4,926.4 2036.5,926.9 2036.5,927.5 C2042.7,1019.6 2044.2,1214 2027,1300.8 C2018.4,1344.3 1977.5,1283.9 1976.8,1328 C1976.2,1367.5 1982.7,1405.3 1995.1,1441.3 C2007.7,1477.8 2025,1513.1 2027.3,1553 C2029.3,1587.3 2019.3,1619 1999.2,1644.5 L1998.8,1645 C1975.4,1674.5 1943.3,1692.7 1909,1695.9 C1871,1699.4 1841.6,1699.4 1838.3,1699.4 C1832.7,1699.4 1752.7,1699.5 1682.5,1682.3 C1620.4,1667 1579.8,1597.2 1591,1524.5 L1621.1,1329.2 L1620.6,1128.7 Z"
                id="Path" fill="#e9f4ff"/>
            <path
                d="M1791.5,1837.9 C1762.8,1841 1730.7,1843.2 1696.9,1843.4 C1695.9,1843.4 1694.9,1843.4 1694,1843.4 C1693,1843.4 1692,1843.4 1691.1,1843.4 C1570,1842.6 1470.3,1816.3 1470.3,1816.3 L1470.4,1562.5 L1327.5,1539.5 L1285.4,2042.2 C1311.6,2065.6 1376.9,2083.4 1447.9,2096.4 C1611.4,2126.5 1779.8,2126.6 1943.2,2096 C2012.8,2083 2076.6,2065.3 2102.5,2042.2 L2055.6,1540.3 L1917.7,1562.5 L1917.7,1816.3 C1917.7,1816.3 1874.9,1827.6 1811.4,1835.6"
                id="Path" fill="#E20613"/>
            <path
                d="M2049.8,1538.6 L1911.9,1560.8 L1912,1814.6 C1912,1814.6 1869.2,1825.9 1805.7,1833.9 L1686.1,1846.7 L1789.9,2113.6 C1839.4,2109.9 1888.7,2103.6 1937.6,2094.4 C2007.2,2081.4 2071,2063.7 2096.9,2040.6 L2049.8,1538.6 Z"
                id="Path" fill="#951914"/>
            <path
                d="M2054.1,1540.2 L2039.3,1381.5 L2032.2,1305.7 C2032.2,1305.7 1870.6,1059.9 1860.6,907.8 C1861,888.1 1861.2,868 1861.1,855.6 C1861,845.7 1861.5,835.7 1862.4,825.8 C1864,808.1 1865.8,780.9 1863.4,763.3 C1859.6,735.1 1818.4,750.2 1818.4,750.2 L1810.1,903.3 C1780.5,908.6 1739,913.7 1688.9,913.8 C1639.2,913.7 1598,908.6 1568.5,903.4 L1560.2,750.2 C1560.2,750.2 1519,735.2 1515.2,763.3 C1512.8,780.9 1514.6,808 1516.2,825.8 C1517.1,835.7 1517.6,845.7 1517.5,855.6 C1517.4,864.6 1517.5,877.7 1517.7,891.7 C1519.2,1041.7 1345.7,1305.8 1345.7,1305.8 L1339.4,1381 L1326.1,1539.5 L1469,1562.5 L1468.9,1816.3 C1468.9,1816.3 1568.6,1842.6 1689.7,1843.4 C1690.7,1843.4 1691.7,1843.4 1692.6,1843.4 C1693.6,1843.4 1694.6,1843.4 1695.5,1843.4 C1816.6,1842.6 1916.3,1816.3 1916.3,1816.3 L1916.3,1562.5 L2054.1,1540.2 Z"
                id="Path" fill="#666766"/>
            <path
                d="M2052.1,1541.9 L2037.2,1383.3 L2030.1,1307.5 C2030.1,1307.5 1868.5,1061.7 1858.5,909.6 C1858.9,889.9 1859.1,869.8 1859,857.4 C1858.9,847.5 1859.4,837.5 1860.3,827.6 C1861.9,809.9 1863.7,782.8 1861.3,765.1 C1857.5,736.9 1816.3,752 1816.3,752 L1808,905 C1781.8,909.7 1746.2,914.2 1703.6,915.3 C1715.4,952.3 1729,988.8 1735,1026.7 C1742.5,1074.2 1737.8,1123.4 1732.9,1170.4 C1714.9,1344.7 1670.4,1512.2 1672.8,1680.9 C1673.4,1721.9 1677.7,1762.3 1681.3,1802.7 C1682.6,1816.8 1683.8,1830.8 1685.2,1844.8 C1686,1844.8 1686.8,1844.8 1687.7,1844.8 C1688.7,1844.8 1689.7,1844.8 1690.6,1844.8 C1691.6,1844.8 1692.6,1844.8 1693.5,1844.8 C1814.6,1844 1914.2,1817.7 1914.2,1817.7 L1914.2,1564 L2052.1,1541.9 Z"
                id="Path" fill="#4F4F4F"/>
            <path
                d="M1520.4,900 C1521.9,1049.9 1348.4,1313.7 1348.4,1313.7 L1342.1,1388.8 L1328.8,1547.1 L1286.6,2049.4 C1312.8,2072.7 1378.1,2090.5 1449,2103.6 C1612.5,2133.7 1780.8,2133.8 1944.1,2103.2 C2013.6,2090.2 2077.4,2072.5 2103.3,2049.4 L2056.4,1547.9 L2044.9,1425.3"
                id="Path" stroke="#081922" stroke-width="22.9594" stroke-linecap="round" stroke-linejoin="round"/>
            <path
                d="M1814,1835.7 C1851.2,1833.6 1885.9,1823.8 1920.6,1813.9 C1921.7,1734.3 1923,1648.9 1918.3,1567.7 C1959.6,1552.4 2006.4,1552.4 2056,1540.8"
                id="Path" stroke="#081922" stroke-width="22.9594" stroke-linecap="round" stroke-linejoin="round"/>
            <path
                d="M1332.5,1539.8 C1379,1542 1426.3,1562.5 1473.1,1562.5 C1468.2,1633.7 1480.8,1704.2 1470.2,1779.1 C1470.4,1794 1464.9,1813.8 1476.4,1813.8 C1574.6,1838.5 1672.5,1853.3 1774,1839.9"
                id="Path" stroke="#081922" stroke-width="22.9594" stroke-linecap="round" stroke-linejoin="round"/>
            <polygon id="Path" fill="#D6D4D4" points="1826.1 768.1 1557.7 768.1 1557 672 1826.9 672"/>
            <path
                d="M1601.3,668.6 L1681.4,673.7 L1621.4,732.8 L1543.8,795.3 C1530.9,805.7 1512.4,792.9 1517.5,777.2 L1553.9,665.5 L1601.3,668.6"
                id="Path" fill="#F7F8F9"/>
            <path
                d="M1706.2,669.6 L1766.2,728.7 L1846.2,793.2 C1858.4,803 1875.9,791 1871,776.1 L1833.7,661.5 L1706.2,669.6 Z"
                id="Path" fill="#F7F8F9"/>
            <path d="M1590,758.2 L1538,800.1 C1527,808.9 1510.4,799.1 1514.5,786.2 L1553.8,665.7 L1676.3,675.9"
                  id="Path" stroke="#081922" stroke-width="22.9594" stroke-linecap="round" stroke-linejoin="round"/>
            <path d="M1801,758.2 L1849.3,797.2 C1861.3,806.9 1879.6,796.1 1875,782 L1837.1,665.7" id="Path"
                  stroke="#081922" stroke-width="22.9594" stroke-linecap="round" stroke-linejoin="round"/>
            <path
                d="M1908.6,1017.4 C1908.6,1017.4 1912.9,1018.4 1921.4,1018.8 C1937.9,1019.6 1970.4,1018.4 2018.4,1004.1"
                id="Path" stroke="#081922" stroke-width="22.9594" stroke-linecap="round" stroke-linejoin="round"/>
            <path
                d="M1983.2,1000.2 L1976.5,953.2 C1974.8,941.5 1964,933.3 1952.2,935 C1940.5,936.7 1932.3,947.5 1934,959.3 L1940.8,1006.8 C1955.2,1006.1 1969.9,1005.5 1983.2,1000.2 Z"
                id="Path" stroke="#081922" stroke-width="18.3675" fill="#6181C0" stroke-linecap="round"
                stroke-linejoin="round"/>
            <g id="Group" transform="translate(1945.000000, 955.000000)">
                <path
                    d="M29.5,114.5 C27.5,114.5 25.5,113.8 23.9,112.6 C22,111.1 20.7,108.9 20.4,106.5 L9.7,22.6 C9.4,20.2 10.1,17.7 11.5,15.8 C13,13.9 15.2,12.6 17.6,12.3 L36.1,9.9 C36.5,9.8 36.9,9.8 37.3,9.8 C41.9,9.8 45.8,13.2 46.4,17.8 L57.1,101.7 C57.7,106.7 54.2,111.3 49.2,112 L30.7,114.4 C30.3,114.4 29.9,114.5 29.5,114.5 Z"
                    id="Path" fill="#6181C0"/>
                <path
                    d="M37.3,19 L48,102.9 L29.5,105.3 L18.8,21.4 L37.3,19 Z M37.3,0.6 C36.5,0.6 35.7,0.6 34.9,0.8 L16.4,3.2 C11.6,3.8 7.2,6.3 4.2,10.2 C1.2,14.1 -0.1,18.9 0.5,23.8 L11.2,107.7 C12.4,117 20.3,123.7 29.4,123.7 C30.2,123.7 31,123.7 31.8,123.5 L50.3,121.1 C55.1,120.5 59.5,118 62.5,114.1 C65.5,110.2 66.8,105.4 66.2,100.5 L55.5,16.6 C54.3,7.4 46.4,0.6 37.3,0.6 Z"
                    id="Shape" fill="#081922" fill-rule="nonzero"/>
            </g>
            <path
                d="M1754.6,767.5 C1754.6,767.5 1812.3,877.6 1689,918.1 L1783,921.2 C1810.3,922.1 1832.5,904.8 1830.4,884.3 L1818.5,768.2 L1754.6,767.5 Z"
                id="Path" fill="#000000" opacity="0.06"/>
            <path
                d="M1615.4,745.2 L1683.1,702.8 C1692.1,697.2 1703.7,697.2 1712.7,702.7 L1785.2,747.7 L1704.2,670.3 L1687,670.3 L1615.4,745.2 Z"
                id="Path" fill="#000000" opacity="0.06"/>
            <g id="Group" transform="translate(1655.000000, 987.000000)" fill="#E20613">
                <rect id="Rectangle" x="0.7" y="0.8" width="75.5" height="75.5"/>
                <path
                    d="M21.8,21.1 C21,21.1 20.4,21.1 20,21.1 L20,27.9 C20.5,27.9 20.9,28 21.8,28 C24.8,27.9 26.5,26.9 26.6,24.6 L26.6,24.5 C26.5,22.2 24.8,21.1 21.8,21.1 Z"
                    id="Path"/>
            </g>
            <path
                d="M1386.8,1146.6 C1386.8,1146.6 1428.9,1017 1487.2,1020.2 C1487.2,1020.2 1409.4,1256.7 1377,1256.7 C1364,1256.7 1383.5,1259.9 1383.5,1259.9 L1386.8,1146.6 Z"
                id="Path" fill="#000000" opacity="0.06"/>
            <path
                d="M1221.2,1074.3 C1221.2,1074.3 1348.7,887.8 1371.1,1014.4 C1371.1,1014.4 1186.3,1181.2 1158.1,1165.1 C1146.8,1158.7 1162.1,1171.1 1162.1,1171.1 L1221.2,1074.3 Z"
                id="Path" fill="#000000" opacity="0.06"/>
            <path d="M2237.3,1102.1 L2159.4,1290.1" id="Path" stroke="#081922" stroke-width="35.9639" opacity="0.06"
                  stroke-linecap="round"/>
            <path
                d="M2150.2,1462.5 L2153.1,1430.4 L2199,1360.1 L2156.3,1310.5 L2075.4,1379.7 C2075.4,1379.7 2036.5,1384.2 2035.2,1386.1 C2033.9,1388 2036.5,1424 2040.3,1418.4 C2041.9,1416.1 2054.1,1413.5 2068.1,1411.3 C2092.6,1407.3 2115.8,1425 2119.8,1450.6 L2150.2,1462.5 Z"
                id="Path" fill="#F9C7A5"/>
            <path
                d="M2110.5,1413.3 C2113.9,1415.3 2117.2,1417.3 2120.5,1419.5 C2125.1,1422.5 2129.6,1425.7 2134,1429.1 C2134.4,1429.5 2139.5,1433.6 2139.9,1434 C2141,1435 2142.1,1436.1 2143.2,1437.1 C2145.8,1440.8 2148.3,1444.6 2150.8,1448.3 C2120.4,1472.7 2127.9,1512.3 2099.5,1542.9 L2090.4,1552.7 C2089,1554.2 2088,1556.1 2087.5,1558.1 L2064,1654 C2061.2,1665.4 2045.9,1666.4 2042,1655.4 C2041.9,1655.2 2041.9,1655 2041.8,1654.8 C2041.7,1654.5 2041.7,1653.6 2041.5,1653.9 C2041.1,1654.5 2036.1,1672.1 2024.6,1657.9 C2021.1,1653.7 2018.6,1649.7 2016.8,1646.3 C2014.9,1642.7 2011.2,1641 2007.2,1640.9 C2005.3,1640.9 2002.7,1639.5 1999.1,1635.6 C1991.2,1627.1 1984.4,1597.3 1991.6,1567.6 L2110.5,1413.3 Z"
                id="Path" fill="#F9C7A5"/>
            <path
                d="M2023.2,1456.6 L2017.8,1451.9 C2035.3,1432.6 2046.8,1409.9 2053.8,1385.7 C2057.1,1382.1 2060.4,1378.6 2063.8,1375.2 C2077.7,1378.7 2091.4,1382.9 2104.9,1387.8 C2105.1,1387.9 2105.2,1387.9 2105.4,1388 C2106.9,1388.6 2108.3,1389.2 2109.8,1389.8 C2113.3,1391.4 2116.8,1392.9 2120.2,1394.5 C2124.9,1396.7 2129.6,1399.1 2134.2,1401.6 L1988.2,1576.2 C1979.5,1572.3 1987.4,1540.1 1995.5,1521.2 L2023.2,1456.6 Z"
                id="Path" fill="#F9C7A5"/>
            <path
                d="M2037.3,1400.3 C2037.3,1400.3 2046.7,1428 2014.7,1470.6 C1985.7,1509.2 1977.9,1564 1984.2,1616.4 C2003,1636 2024.9,1662.2 2053,1662.2 C2056.1,1662.2 2059.3,1662.2 2062.4,1658.9 C2065.5,1652.4 2071.8,1645.8 2071.8,1636 C2074.9,1567.2 2085.6,1550.4 2123.4,1496.8 C2123.4,1496.8 2154.7,1457.5 2151.5,1418.2 C2151.5,1418.2 2160.9,1405.1 2179.6,1388.7"
                id="Path" stroke="#0A1922" stroke-width="22.0716" stroke-linecap="round" stroke-linejoin="round"/>
            <path d="M2020.8,1611 C2020.8,1611 2027.2,1525.9 2042.4,1509.4" id="Path" stroke="#0A1922"
                  stroke-width="23.7167" stroke-linecap="round" stroke-linejoin="round"/>
            <path d="M2051.1,1625.9 C2051.1,1625.9 2052,1541.9 2074.8,1527" id="Path" stroke="#0A1922"
                  stroke-width="23.7167" stroke-linecap="round" stroke-linejoin="round"/>
            <path d="M2034.2,1379.6 C2054.3,1386.4 2080.5,1372.3 2080.5,1372.3 L2117.8,1338.2" id="Path"
                  stroke="#0A1922" stroke-width="22.0716" stroke-linecap="round" stroke-linejoin="round"/>
            <path d="M2328.7,942.5 C2328.7,942.5 2294.2,1006.9 2270.6,1021.5" id="Path" stroke="#081922"
                  stroke-width="23.7167" stroke-linecap="round" stroke-linejoin="round"/>
            <path
                d="M255.7,861.8 C257.6,864.5 269.3,881.6 284.7,910.5 C307.7,953.8 339.3,1023.3 357.8,1110.5 C367,1153.8 372.8,1201.4 372.4,1251.9 C372,1302.1 365.5,1355.2 350,1409.4 C336.5,1456.7 282.3,1482.3 229,1467 C175.7,1451.7 142.9,1401.2 155.8,1353.8 C170.1,1301.3 173,1250.7 169.1,1203.4 C163.3,1132.1 141.8,1068.9 121.7,1024.2 C111.6,1001.8 102,984.1 95.3,972.6 C91.9,966.8 89.2,962.6 87.6,960 C86.8,958.7 86.2,957.9 85.9,957.5 L85.7,957.2 L111.3,943.1 L85.7,957.4 L85.6,957.3 L111.2,943.2 L85.6,957.5 L140.1,927.1 L85.7,957.7 L85.6,957.6 L140.1,927.2 L85.7,957.8 L152.5,920.3 L85.7,957.8 L152.5,920.3 L85.7,957.8 L168.4,911.3 L85.8,957.9 L85.7,957.8 L168.4,911.3 L85.8,957.9 C54.2,912.9 66.3,854.8 113,828.2 C160.2,801.1 224.2,816.3 255.7,861.8 Z"
                id="Path" fill="#e9f4ff"/>
            <path
                d="M358.6,1388.2 C358.6,1388.2 374.4,1396.7 367.9,1409.8 C361.5,1422.9 369.4,1433.6 358.7,1441.9 C348,1450.1 302.1,1492.9 235.6,1470.4 C169.1,1448 137.1,1405.1 143.4,1392.1 C149.6,1379.1 127.2,1360.5 146.1,1358.8 C165.1,1357 257,1409.5 358.6,1388.2 Z"
                id="Path" fill="#ECECEC"/>
            <path
                d="M172.1,1206.7 C176,1254 173.1,1304.6 158.8,1357.1 C158.3,1359.1 157.9,1361.1 157.5,1363.1 C153.9,1362.2 151,1361.7 149,1361.9 C130.1,1363.6 152.5,1382.2 146.3,1395.2 C140.1,1408.2 172.1,1451.1 238.5,1473.5 C305,1496 350.9,1453.2 361.6,1445 C372.3,1436.8 364.4,1426 370.8,1413 C377.3,1399.9 361.5,1391.5 361.5,1391.5 C360.5,1391.7 359.5,1391.9 358.4,1392.1 C370,1345.1 375,1299.1 375.3,1255.3 C375.7,1204.8 369.8,1157.2 360.7,1113.9 C342.2,1026.7 310.7,957.2 287.6,914 C272.2,885.1 260.5,868 258.6,865.3"
                id="Path" stroke="#081922" stroke-width="22.9594" stroke-linecap="round" stroke-linejoin="round"/>
            <path d="M182.9,1355.3 C182.9,1355.3 214.9,1245.6 176.1,1132.2" id="Path" stroke="#000000"
                  stroke-width="36.735" opacity="0.06" stroke-linecap="round"/>
            <path
                d="M210.4,1218.6 C210.4,1218.6 168.3,1089 110,1092.2 C110,1092.2 187.8,1328.7 220.2,1328.7 C233.2,1328.7 213.7,1331.9 213.7,1331.9 L210.4,1218.6 Z"
                id="Path" fill="#000000" opacity="0.06"/>
            <path
                d="M1346.8,728.8 C1346.8,803.9 1296.9,864.8 1235.3,864.8 C1173.7,864.8 1180.8,804.9 1180.8,729.8 C1180.8,654.7 1174.2,592.8 1235.8,592.8 C1297.3,592.8 1346.8,653.7 1346.8,728.8 Z"
                id="Path" stroke="#000000" stroke-width="20" fill="#F9C7A5"/>
            <ellipse id="Oval" stroke="#000000" stroke-width="19.99956" fill="#F9C7A5"
                     transform="translate(225.259600, 501.690700) rotate(-30.000728) translate(-225.259600, -501.690700) "
                     cx="225.2596" cy="501.6907" rx="135.997008" ry="111.497547"/>
            <path
                d="M452.4,703.7 C452.4,703.7 325.7,622.2 334.7,486.5 C334.7,486.5 339.7,302.2 279.4,203.3 C239.2,137.3 273.2,190.5 252,264.8 C240,306.7 240,370 270.6,465.1 C270.6,465.1 262.3,676.6 144.7,767.1 C144.7,767.1 -81.6,848.6 36.1,1074.9 C36.1,1074.9 -63.5,1192.6 72.3,1301.2 C72.3,1301.2 -54.4,1636.1 515.8,1455.1 C515.8,1455.1 859.8,1310.3 606.3,948.2"
                id="Path" fill="#F9C7A5"/>
            <path
                d="M461.4,703.7 C461.4,703.7 334.7,622.2 343.7,486.5 C343.7,486.5 348.7,302.2 288.4,203.3 C248.2,137.3 387.3,251.8 307.7,268.8 C265.1,277.9 249,370 279.6,465.1 C279.6,465.1 271.3,676.6 153.7,767.1 C153.7,767.1 -72.6,848.6 45.1,1074.9 C45.1,1074.9 -54.5,1192.6 81.3,1301.2 C81.3,1301.2 -45.4,1636.1 524.8,1455.1 C524.8,1455.1 868.8,1310.3 615.3,948.2"
                id="Path" stroke="#081922" stroke-width="22" stroke-linecap="round" stroke-linejoin="round"/>
            <path
                d="M1055.7,1757.8 L395.2,1757.8 C321,1757.8 260.2,1697 260.2,1622.8 L260.2,258.8 C260.2,184.6 321,123.8 395.2,123.8 L1055.7,123.8 C1129.9,123.8 1190.7,184.6 1190.7,258.8 L1190.7,1622.8 C1190.7,1697 1129.9,1757.8 1055.7,1757.8 Z"
                id="Path" stroke="#000000" stroke-width="19.6765" fill="#000000"/>
            <circle id="Oval" fill="#555555" cx="723.8" cy="1658.8" r="61"/>
            <g id="Group" transform="translate(171.000000, 874.000000)">
                <path d="M61.3,612 C61.8,611.8 62.3,611.6 62.8,611.3 C62.2,611.6 61.8,611.8 61.3,612 Z" id="Path"/>
                <path d="M32.3,526.3 C32.8,526.7 33.4,527.2 33.9,527.6 C33.4,527.2 32.8,526.7 32.3,526.3 Z" id="Path"/>
                <path d="M59.3,612.9 C59.8,612.7 60.2,612.5 60.7,612.3 C60.2,612.5 59.8,612.7 59.3,612.9 Z" id="Path"/>
                <path d="M66.9,609.2 C67.4,608.9 68,608.6 68.5,608.3 C68,608.6 67.4,608.9 66.9,609.2 Z" id="Path"/>
                <path d="M65.1,610.2 C65.6,609.9 66.1,609.6 66.7,609.4 C66.1,609.7 65.6,609.9 65.1,610.2 Z" id="Path"/>
                <path d="M63.2,611.2 C63.7,611 64.2,610.7 64.7,610.5 C64.2,610.7 63.7,610.9 63.2,611.2 Z" id="Path"/>
                <path d="M64.3,553.1 C64.9,553.8 65.5,554.6 66,555.3 C65.5,554.6 64.9,553.8 64.3,553.1 Z" id="Path"/>
                <path d="M66.7,569.1 C65.7,570.5 64.2,571.9 62.4,573.2 C64.3,571.9 65.7,570.5 66.7,569.1 Z" id="Path"/>
                <path d="M57.3,613.7 C57.8,613.5 58.2,613.3 58.7,613.2 C58.2,613.4 57.7,613.5 57.3,613.7 Z" id="Path"/>
                <path d="M60.2,548.8 C60.9,549.5 61.6,550.2 62.2,550.8 C61.6,550.2 60.9,549.5 60.2,548.8 Z" id="Path"/>
                <path d="M55.2,614.5 C55.6,614.3 56.1,614.2 56.5,614 C56,614.2 55.6,614.3 55.2,614.5 Z" id="Path"/>
                <path d="M50.1,540.2 C51.1,541 52,541.7 52.9,542.5 C52,541.8 51,541 50.1,540.2 Z" id="Path"/>
                <path d="M54.5,543.8 C55.4,544.5 56.3,545.3 57.1,546 C56.3,545.3 55.4,544.6 54.5,543.8 Z" id="Path"/>
                <path d="M53,615.2 C53.4,615.1 53.9,614.9 54.3,614.8 C53.9,614.9 53.4,615.1 53,615.2 Z" id="Path"/>
                <path d="M52.6,42.8 C51.6,42.1 50.6,41.5 49.6,40.8 C50.6,41.5 51.6,42.1 52.6,42.8 Z" id="Path"/>
                <path d="M98.3,90.3 C97.5,88.9 96.6,87.5 95.7,86.1 C96.6,87.5 97.5,88.9 98.3,90.3 Z" id="Path"/>
                <path d="M95.8,86.1 C94.9,84.7 94,83.3 93.1,82 C94,83.3 94.9,84.7 95.8,86.1 Z" id="Path"/>
                <path d="M19,24 C17.9,23.5 16.8,23 15.7,22.5 C16.8,23 17.9,23.5 19,24 Z" id="Path"/>
                <path d="M45.6,38.2 C44.3,37.4 42.9,36.5 41.6,35.7 C42.9,36.6 44.3,37.4 45.6,38.2 Z" id="Path"/>
                <path d="M91.6,80 C87.3,74 82.6,68.5 77.5,63.4 C82.6,68.5 87.3,74.1 91.6,80 Z" id="Path"/>
                <path d="M65,52.1 C63.1,50.6 61.3,49.1 59.3,47.7 C61.2,49.1 63.1,50.6 65,52.1 Z" id="Path"/>
                <path d="M68.7,55.2 C67.5,54.2 66.3,53.1 65,52.1 C66.2,53.1 67.5,54.1 68.7,55.2 Z" id="Path"/>
                <path d="M101.6,220.8 C109.7,199 113.8,179.2 114.7,161.4 C113.8,179.2 109.6,199 101.6,220.8 Z"
                      id="Path"/>
                <path d="M114.7,160.1 C114.9,156.3 114.9,152.6 114.8,149 C114.9,152.6 114.9,156.3 114.7,160.1 Z"
                      id="Path"/>
                <path d="M68.6,608.2 C69.2,607.9 69.7,607.5 70.3,607.2 C69.8,607.5 69.2,607.9 68.6,608.2 Z" id="Path"/>
                <path d="M31.3,150.5 C31.1,150.9 30.8,151.3 30.5,151.8 C30.8,151.3 31.1,150.9 31.3,150.5 Z" id="Path"/>
                <path d="M4.7,17.9 C3.4,17.4 2,16.9 0.7,16.3 C2,16.8 3.3,17.4 4.7,17.9 Z" id="Path"/>
                <path d="M100.7,94.7 C99.9,93.2 99.1,91.8 98.3,90.3 C99.2,91.7 100,93.2 100.7,94.7 Z" id="Path"/>
                <path d="M114.8,148.3 C114.7,145.5 114.5,142.7 114.2,140 C114.5,142.7 114.7,145.5 114.8,148.3 Z"
                      id="Path"/>
                <path d="M109.5,115.9 C107.2,108.4 104.3,101.3 100.8,94.7 C104.2,101.3 107.2,108.4 109.5,115.9 Z"
                      id="Path"/>
                <path d="M41.3,618.1 C41.7,618 42.1,617.9 42.6,617.9 C42.1,617.9 41.7,618 41.3,618.1 Z" id="Path"/>
                <path d="M43.8,617.6 C44.2,617.5 44.6,617.4 45,617.3 C44.6,617.4 44.2,617.5 43.8,617.6 Z" id="Path"/>
                <path d="M34.1,585.4 C35.8,584.9 37.5,584.4 39.2,583.9 C37.5,584.4 35.8,584.9 34.1,585.4 Z" id="Path"/>
                <path d="M34.4,560.1 L34.4,558.5 C34.9,558.9 35.4,559.3 35.8,559.6 C35.4,559.8 34.9,560 34.4,560.1 Z"
                      id="Path"/>
                <path d="M29.8,586.6 C31.2,586.2 32.6,585.8 34.1,585.4 C32.7,585.8 31.3,586.2 29.8,586.6 Z" id="Path"/>
                <path d="M110.2,118.4 C111.9,124.3 113.1,130.5 113.9,137 C113.1,130.6 111.9,124.3 110.2,118.4 Z"
                      id="Path"/>
                <path
                    d="M83.3,442.1 C217.5,325.9 92.5,242.7 92.5,242.7 C95.3,236.7 97.7,230.9 99.9,225.3 C97.7,231 95.2,236.8 92.5,242.7 C92.5,242.6 217.5,325.9 83.3,442.1 C83.3,442.1 133.9,566.4 70.4,607.2 C133.8,566.3 83.3,442.1 83.3,442.1 Z"
                    id="Path"/>
                <path d="M74,60 C72.2,58.3 70.5,56.7 68.6,55.2 C70.5,56.7 72.3,58.3 74,60 Z" id="Path"/>
                <path
                    d="M38.9,618.5 C38.8,618.5 38.7,618.5 38.7,618.5 C39.2,618.4 39.6,618.3 40.1,618.3 C39.6,618.4 39.3,618.4 38.9,618.5 Z"
                    id="Path"/>
                <path d="M55.5,44.8 C56.8,45.7 58.1,46.7 59.4,47.6 C58.1,46.7 56.8,45.8 55.5,44.8 Z" id="Path"/>
                <path d="M60.9,574.3 C59.9,575 58.7,575.7 57.4,576.4 C58.8,575.7 59.9,575 60.9,574.3 Z" id="Path"/>
                <path d="M48.5,616.5 C48.9,616.4 49.3,616.3 49.7,616.2 C49.3,616.3 48.9,616.4 48.5,616.5 Z" id="Path"/>
                <path
                    d="M45.3,581.7 C46.3,581.3 47.4,580.9 48.4,580.5 C51.9,579.1 54.9,577.7 57.5,576.3 C55,577.7 52,579.1 48.4,580.5 C47.4,580.9 46.4,581.3 45.3,581.7 Z"
                    id="Path"/>
                <path d="M50.8,615.9 C51.2,615.8 51.6,615.6 52.1,615.5 C51.6,615.6 51.2,615.7 50.8,615.9 Z" id="Path"/>
                <path d="M46.2,617.1 C46.6,617 47,616.9 47.4,616.8 C47,616.9 46.6,617 46.2,617.1 Z" id="Path"/>
                <path d="M45.3,581.7 C43.2,582.5 41.2,583.2 39.1,583.8 C41.2,583.2 43.3,582.5 45.3,581.7 Z" id="Path"/>
                <path
                    d="M34.1,585.4 C35.8,584.9 37.5,584.4 39.2,583.9 C41.3,583.2 43.3,582.5 45.4,581.8 C46.4,581.4 47.5,581 48.5,580.6 C52,579.2 55,577.8 57.6,576.4 C58.9,575.7 60,575 61.1,574.3 C61.6,574 62.1,573.6 62.6,573.3 C64.5,571.9 65.9,570.5 66.9,569.2 C70.3,564.7 69.5,560.2 66.2,555.4 C65.7,554.7 65.1,553.9 64.5,553.2 C63.9,552.5 63.2,551.7 62.5,550.9 C61.9,550.2 61.2,549.6 60.5,548.9 C60,548.4 59.5,547.9 58.9,547.5 C58.4,547.1 57.9,546.6 57.4,546.1 C56.6,545.4 55.7,544.6 54.8,543.9 C54.3,543.5 53.7,543 53.2,542.6 C52.3,541.9 51.3,541.1 50.4,540.3 C47.2,537.8 43.8,535.2 40.3,532.5 C38.6,531.2 36.8,529.8 35.1,528.4 L20.8,152.9 C-3.1,145.9 -3.8,88.7 21.8,66.9 C22.8,66 31.3,66.1 30.8,64.9 L13.1,21.9 C-2.9,10.4 24.8,23.7 25.1,23.9 C26.5,24.7 44.6,37.5 45.9,38.4 C47.2,39.2 48.6,40.1 49.9,41 C50.9,41.7 51.9,42.3 52.9,43 C53.9,43.7 54.8,44.3 55.8,45 C57.1,45.9 58.4,46.9 59.7,47.8 C61.6,49.2 63.5,50.7 65.4,52.2 C66.6,53.2 67.9,54.2 69.1,55.3 C70.9,56.9 72.7,58.5 74.5,60.1 C75.7,61.2 76.8,62.3 78,63.5 C83.1,68.6 87.9,74.2 92.1,80.1 C92.6,80.8 93,81.4 93.5,82.1 C94.4,83.4 95.3,84.8 96.2,86.2 C97.1,87.6 97.9,89 98.8,90.4 C99.6,91.8 100.4,93.3 101.2,94.8 C104.7,101.4 107.6,108.5 109.9,116 C110.2,116.8 110.4,117.7 110.6,118.5 C112.3,124.4 113.5,130.6 114.3,137.1 C114.4,138.1 114.5,139 114.6,140 C114.9,142.7 115.1,145.5 115.2,148.3 C115.2,148.5 115.2,148.8 115.2,149 C115.3,152.6 115.3,156.3 115.1,160.1 C115.1,160.5 115.1,161 115,161.4 C114.1,179.2 110,199 101.9,220.8 C101.4,222.2 100.8,223.7 100.2,225.2 C98,230.9 95.5,236.7 92.8,242.6 C92.8,242.6 217.8,325.8 83.6,442 C83.6,442 134.2,566.3 70.7,607.1 C70.2,607.5 69.6,607.8 69,608.1 L68.9,608.2 C68.4,608.5 67.8,608.8 67.3,609.1 C67.2,609.1 67.1,609.2 67,609.2 C66.5,609.5 66,609.8 65.4,610 C65.3,610.1 65.1,610.1 65,610.2 C64.5,610.5 64,610.7 63.5,610.9 C63.3,611 63.2,611 63,611.1 C62.5,611.3 62,611.6 61.5,611.8 C61.3,611.9 61.1,612 60.9,612 C60.4,612.2 60,612.4 59.5,612.6 C59.3,612.7 59,612.8 58.8,612.9 C58.3,613.1 57.9,613.3 57.4,613.4 C57.1,613.5 56.9,613.6 56.6,613.7 C56.2,613.9 55.7,614 55.3,614.2 C55,614.3 54.7,614.4 54.4,614.5 C54,614.6 53.6,614.8 53.1,614.9 C52.8,615 52.5,615.1 52.1,615.2 C51.7,615.3 51.3,615.5 50.8,615.6 C50.5,615.7 50.1,615.8 49.8,615.9 C49.4,616 49,616.1 48.6,616.2 C48.2,616.3 47.9,616.4 47.5,616.5 C47.1,616.6 46.7,616.7 46.3,616.8 C45.9,616.9 45.5,617 45.1,617.1 C44.7,617.2 44.3,617.3 43.9,617.4 C43.5,617.5 43.1,617.6 42.7,617.6 C42.3,617.7 41.9,617.8 41.4,617.8 C41,617.9 40.6,617.9 40.1,618 C39.6,618.1 39.2,618.2 38.7,618.2 C37.1,618.5 35.4,618.7 33.7,618.9 L34.1,585.4 Z"
                    id="Path" fill="#F9C7A5"/>
                <path
                    d="M38.6,618.5 C38.7,618.5 38.8,618.5 38.8,618.5 C39.2,618.4 39.6,618.4 40,618.3 C40.4,618.2 40.8,618.2 41.3,618.1 C41.7,618 42.1,617.9 42.6,617.9 C43,617.8 43.4,617.7 43.8,617.7 C44.2,617.6 44.6,617.5 45,617.4 C45.4,617.3 45.8,617.2 46.2,617.1 C46.6,617 47,616.9 47.4,616.8 C47.8,616.7 48.1,616.6 48.5,616.5 C48.9,616.4 49.3,616.3 49.7,616.2 C50,616.1 50.4,616 50.7,615.9 C51.1,615.8 51.5,615.6 52,615.5 C52.3,615.4 52.6,615.3 53,615.2 C53.4,615.1 53.9,614.9 54.3,614.8 C54.6,614.7 54.9,614.6 55.2,614.5 C55.6,614.3 56.1,614.2 56.5,614 C56.8,613.9 57,613.8 57.3,613.7 C57.8,613.5 58.2,613.3 58.7,613.2 C58.9,613.1 59.2,613 59.4,612.9 C59.9,612.7 60.3,612.5 60.8,612.3 C61,612.2 61.2,612.1 61.4,612.1 C61.9,611.9 62.4,611.7 62.9,611.4 C63.1,611.3 63.2,611.3 63.4,611.2 C63.9,611 64.4,610.7 64.9,610.5 C65,610.4 65.2,610.4 65.3,610.3 C65.8,610 66.3,609.7 66.9,609.5 C67,609.5 67.1,609.4 67.2,609.4 C67.7,609.1 68.3,608.8 68.8,608.5 L68.9,608.4 C69.5,608.1 70,607.7 70.6,607.4 C134.1,566.6 83.5,442.3 83.5,442.3 C217.7,326.1 92.7,242.9 92.7,242.9 C95.5,236.9 97.9,231.1 100.1,225.5 C100.7,224 101.2,222.6 101.8,221.1 C109.9,199.3 114,179.5 114.9,161.7 C114.9,161.3 114.9,160.8 115,160.4 C115.2,156.6 115.2,152.9 115.1,149.3 C115.1,149.1 115.1,148.8 115.1,148.6 C115,145.8 114.8,143 114.5,140.3 C114.4,139.3 114.3,138.4 114.2,137.4 C113.4,130.9 112.2,124.7 110.5,118.8 C110.3,118 110,117.1 109.8,116.3 C107.5,108.8 104.6,101.7 101.1,95.1 C100.3,93.6 99.5,92.2 98.7,90.7 C97.9,89.3 97,87.9 96.1,86.5 C95.2,85.1 94.3,83.7 93.4,82.4 C92.9,81.7 92.5,81.1 92,80.4 C87.7,74.4 83,68.9 77.9,63.8 C76.8,62.7 75.6,61.5 74.4,60.4 C72.6,58.7 70.9,57.1 69,55.6 C67.8,54.6 66.6,53.5 65.3,52.5 C63.4,51 61.6,49.5 59.6,48.1 C58.3,47.1 57,46.2 55.7,45.3 C54.7,44.6 53.8,43.9 52.8,43.3 C51.8,42.6 50.8,42 49.8,41.3 C48.5,40.4 47.1,39.6 45.8,38.7 C44.5,37.9 32.1,29 30.8,28.2 C30.5,28 16,28.7 31,28.2 L30.3,0.5 C63,17.5 105.8,50.6 124,87.5 C144.9,129.8 144.1,179.7 121.9,235.9 C139.8,252.4 166.7,284.2 169.4,327.7 C170.8,349.2 166,370.9 155.4,392.2 C145.7,411.5 131,430.7 111.5,449.5 C114.8,459.7 118.9,473.9 122,490 C130.6,534.6 127.3,570.7 112.3,597.2 C105.5,609.2 96.4,619.2 85.1,626.7 C73.3,634.7 59.1,640 42.9,642.5 L42.6,642.5 C39.6,643 36.6,643.4 33.7,643.8 L34,619.5 C35.4,619 37,618.8 38.6,618.5 Z"
                    id="Path" fill="#081922"/>
                <path
                    d="M40,532.4 C43.5,535.1 46.9,537.7 50.1,540.2 C51.1,541 52,541.7 52.9,542.5 C53.4,542.9 54,543.4 54.5,543.8 C55.4,544.5 56.3,545.3 57.1,546 C57.6,546.5 58.1,546.9 58.6,547.4 C59.1,547.9 59.7,548.4 60.2,548.8 C60.9,549.5 61.6,550.2 62.2,550.8 C62.9,551.6 63.6,552.3 64.2,553.1 C64.8,553.8 65.4,554.6 65.9,555.3 C69.2,560.1 70,564.6 66.6,569.1 C65.6,570.5 64.1,571.9 62.3,573.2 C61.8,573.5 61.3,573.9 60.8,574.2 C59.8,574.9 58.6,575.6 57.3,576.3 C54.8,577.7 51.8,579.1 48.2,580.5 C47.2,580.9 46.2,581.3 45.1,581.7 C43,582.5 38.8,581.7 38.9,583.8 C41.5,660.7 17.2,586.2 15.5,586.7 L2.5,547.7 C3,547.5 14,536.9 14.5,536.7 C14,536.3 18,406.1 17.5,405.7 L54.5,396.7 C56.5,398.2 38.3,531.1 40,532.4 Z"
                    id="Path" fill="#F9C7A5"/>
                <path d="M114.8,149 C114.8,148.8 114.8,148.5 114.8,148.3 C114.8,148.5 114.8,148.8 114.8,149 Z" id="Path"
                      fill="#081922"/>
                <path d="M21.6,620.8 C23.1,620.6 24.5,620.4 25.9,620.3 C24.5,620.5 23.1,620.7 21.6,620.8 Z" id="Path"
                      fill="#081922"/>
                <path d="M114.7,161.4 C114.7,161 114.7,160.5 114.8,160.1 C114.7,160.5 114.7,161 114.7,161.4 Z" id="Path"
                      fill="#081922"/>
                <path d="M114.2,139.9 C114.1,138.9 114,138 113.9,137 C114,138 114.1,139 114.2,139.9 Z" id="Path"
                      fill="#081922"/>
                <path d="M54.3,614.8 C54.6,614.7 54.9,614.6 55.2,614.5 C54.9,614.6 54.6,614.7 54.3,614.8 Z" id="Path"
                      fill="#081922"/>
                <path d="M47.4,616.8 C47.8,616.7 48.1,616.6 48.5,616.5 C48.1,616.6 47.8,616.7 47.4,616.8 Z" id="Path"
                      fill="#081922"/>
                <path d="M58.6,613.2 C58.8,613.1 59.1,613 59.3,612.9 C59.1,613 58.8,613.1 58.6,613.2 Z" id="Path"
                      fill="#081922"/>
                <path d="M60.7,612.3 C60.9,612.2 61.1,612.1 61.3,612.1 C61.1,612.1 60.9,612.2 60.7,612.3 Z" id="Path"
                      fill="#081922"/>
                <path d="M49.7,616.2 C50,616.1 50.4,616 50.7,615.9 C50.4,616 50.1,616.1 49.7,616.2 Z" id="Path"
                      fill="#081922"/>
                <path d="M56.5,614 C56.8,613.9 57,613.8 57.3,613.7 C57,613.8 56.7,613.9 56.5,614 Z" id="Path"
                      fill="#081922"/>
                <path d="M52,615.5 C52.3,615.4 52.6,615.3 53,615.2 C52.7,615.3 52.4,615.4 52,615.5 Z" id="Path"
                      fill="#081922"/>
                <path d="M45,617.3 C45.4,617.2 45.8,617.1 46.2,617 C45.8,617.2 45.4,617.2 45,617.3 Z" id="Path"
                      fill="#081922"/>
                <path d="M40,618.3 C40.4,618.2 40.8,618.2 41.3,618.1 C40.9,618.2 40.5,618.2 40,618.3 Z" id="Path"
                      fill="#081922"/>
                <path d="M68.5,608.3 L68.6,608.2 C68.6,608.2 68.5,608.3 68.5,608.3 Z" id="Path" fill="#081922"/>
                <path d="M99.9,225.2 C100.5,223.7 101,222.3 101.6,220.8 C101,222.2 100.5,223.7 99.9,225.2 Z" id="Path"
                      fill="#081922"/>
                <path d="M62.7,611.4 C62.9,611.3 63,611.3 63.2,611.2 C63,611.2 62.9,611.3 62.7,611.4 Z" id="Path"
                      fill="#081922"/>
                <path d="M64.7,610.4 C64.8,610.3 65,610.3 65.1,610.2 C64.9,610.3 64.8,610.3 64.7,610.4 Z" id="Path"
                      fill="#081922"/>
                <path d="M66.6,609.4 C66.7,609.4 66.8,609.3 66.9,609.3 C66.8,609.3 66.7,609.3 66.6,609.4 Z" id="Path"
                      fill="#081922"/>
                <path d="M42.5,617.8 C42.9,617.7 43.3,617.6 43.7,617.6 C43.4,617.7 42.9,617.8 42.5,617.8 Z" id="Path"
                      fill="#081922"/>
                <path d="M58.7,547.4 C59.2,547.9 59.8,548.4 60.3,548.8 C59.7,548.4 59.2,547.9 58.7,547.4 Z" id="Path"
                      fill="#081922"/>
                <path d="M40,532.4 C38.3,531.1 36.5,529.7 34.8,528.3 C36.5,529.7 38.3,531.1 40,532.4 Z" id="Path"
                      fill="#081922"/>
                <path d="M34.8,528.3 C34.5,528.1 34.2,527.8 33.9,527.6 C34.2,527.8 34.5,528.1 34.8,528.3 Z" id="Path"
                      fill="#081922"/>
                <path d="M57.1,546 C57.6,546.5 58.1,546.9 58.6,547.4 C58.2,546.9 57.6,546.5 57.1,546 Z" id="Path"
                      fill="#081922"/>
                <path d="M52.9,542.5 C53.4,542.9 54,543.4 54.5,543.8 C54,543.4 53.4,542.9 52.9,542.5 Z" id="Path"
                      fill="#081922"/>
                <path d="M40,532.4 C43.5,535.1 46.9,537.7 50.1,540.2 C46.9,537.7 43.5,535.1 40,532.4 Z" id="Path"
                      fill="#081922"/>
                <path d="M62.2,550.8 C62.9,551.6 63.6,552.3 64.2,553.1 C63.7,552.4 63,551.6 62.2,550.8 Z" id="Path"
                      fill="#081922"/>
                <path d="M38.6,618.5 C37,618.8 35.3,619 33.6,619.2 C35.4,619 37,618.8 38.6,618.5 Z" id="Path"
                      fill="#081922"/>
                <path d="M33.7,619.3 C31.2,619.7 28.6,620 26,620.3 C28.6,620 31.1,619.6 33.7,619.3 Z" id="Path"
                      fill="#081922"/>
                <polygon id="Path" fill="#081922" points="31.9 149.5 32.1 149.2 32.1 149.2"/>
                <path d="M35.4,32.3 C34,31.5 32.7,30.8 31.3,30.1 C32.7,30.8 34.1,31.5 35.4,32.3 Z" id="Path"
                      fill="#081922"/>
                <path d="M15.7,22.5 C14.7,22.1 13.8,21.7 12.8,21.2 C13.8,21.7 14.7,22.1 15.7,22.5 Z" id="Path"
                      fill="#081922"/>
                <path d="M8.7,19.5 C7.3,18.9 6,18.4 4.6,17.9 C6,18.4 7.4,19 8.7,19.5 Z" id="Path" fill="#081922"/>
                <path d="M55.5,44.8 C54.5,44.1 53.6,43.4 52.6,42.8 C53.5,43.5 54.5,44.1 55.5,44.8 Z" id="Path"
                      fill="#081922"/>
            </g>
            <path d="M1190.8,1173.8 L1355.8,1024.8" id="Path" stroke="#081922" stroke-width="23.7167"
                  stroke-linecap="round" stroke-linejoin="round"/>
            <path d="M1346.8,748.8 C1346.8,748.8 1374.8,752.8 1410.8,767.8 C1429.8,736.8 1526.8,722.8 1526.8,722.8"
                  id="Path" stroke="#081922" stroke-width="23.7167" stroke-linecap="round" stroke-linejoin="round"/>
            <path d="M1348.8,1313.8 L1333.8,1063.8" id="Path" stroke="#081922" stroke-width="23.7167"
                  stroke-linecap="round" stroke-linejoin="round"/>
            <path d="M1873.8,729.8 C1873.8,729.8 1953.8,724.8 2126.8,786.8" id="Path" stroke="#081922"
                  stroke-width="23.7167" stroke-linecap="round" stroke-linejoin="round"/>
            <path d="M32.8,1049.8 C32.8,1049.8 58.3,1137.3 176.3,1132.3" id="Path" stroke="#081922" stroke-width="22"
                  stroke-linecap="round" stroke-linejoin="round"/>
            <path d="M176.3,1132.3 C176.3,1132.3 265.3,1130.3 286.3,1091.3" id="Path" stroke="#081922" stroke-width="22"
                  stroke-linecap="round" stroke-linejoin="round"/>
            <path d="M21.8,1229.8 C21.8,1229.8 42.3,1329.3 215.3,1312.3" id="Path" stroke="#081922" stroke-width="22"
                  stroke-linecap="round" stroke-linejoin="round"/>
            <rect id="Rectangle" fill="#999999" x="342.8" y="220.3" width="775" height="1347"/>
            <path
                d="M1096.5,967.8 L752.5,967.8 C743,967.8 735.2,960.1 735.2,950.5 L735.2,398 C735.2,388.5 742.9,380.7 752.5,380.7 L1096.5,380.7 C1106,380.7 1113.8,388.4 1113.8,398 L1113.8,950.4 C1113.8,960 1106,967.8 1096.5,967.8 Z"
                id="Path" fill="#FFFFFF"/>
            <path
                d="M1096.5,1560.8 L752.5,1560.8 C743,1560.8 735.2,1553.1 735.2,1543.5 L735.2,991.1 C735.2,981.6 742.9,973.8 752.5,973.8 L1096.5,973.8 C1106,973.8 1113.8,981.5 1113.8,991.1 L1113.8,1543.5 C1113.8,1553.1 1106,1560.8 1096.5,1560.8 Z"
                id="Path" fill="#FFFFFF"/>
            <path
                d="M710,967.8 L366,967.8 C356.5,967.8 348.7,960.1 348.7,950.5 L348.7,398 C348.7,388.5 356.4,380.7 366,380.7 L710,380.7 C719.5,380.7 727.3,388.4 727.3,398 L727.3,950.4 C727.3,960 719.5,967.8 710,967.8 Z"
                id="Path" fill="#FFFFFF"/>
            <path
                d="M710,1560.8 L366,1560.8 C356.5,1560.8 348.7,1553.1 348.7,1543.5 L348.7,991.1 C348.7,981.6 356.4,973.8 366,973.8 L710,973.8 C719.5,973.8 727.3,981.5 727.3,991.1 L727.3,1543.5 C727.3,1553.1 719.5,1560.8 710,1560.8 Z"
                id="Path" fill="#FFFFFF"/>
            <rect id="Rectangle" fill="#E20613" x="342.8" y="220.3" width="775" height="153.5"/>
            <g id="Group" transform="translate(862.000000, 488.000000)">
                <path
                    d="M119.2,370.8 L19.1,370.1 C10.6,370 3.7,363.1 3.8,354.5 L5.8,75.9 L136.8,76.9 L134.8,355.5 C134.7,364 127.7,370.9 119.2,370.8 Z"
                    id="Path" fill="#FF8F8F"/>
                <path
                    d="M126.2,22.8 L17.2,22 L17.3,8.2 C17.3,5.9 19.2,4.1 21.5,4.1 L122.2,4.8 C124.5,4.8 126.3,6.7 126.3,9 L126.2,22.8 Z"
                    id="Path" fill="#FF8F8F"/>
                <polygon id="Path" fill="#FFBBBB" points="5.8 76 17.2 22 126.2 22.8 136.8 76.9"/>
                <ellipse id="Oval" fill="#FF4343"
                         transform="translate(72.103041, 56.423775) rotate(-89.579753) translate(-72.103041, -56.423775) "
                         cx="72.1030413" cy="56.4237752" rx="14.0003766" ry="25.2006779"/>
                <rect id="Rectangle" fill="#FF4343"
                      transform="translate(72.226074, 48.725597) rotate(-89.579753) translate(-72.226074, -48.725597) "
                      x="64.525867" y="23.5249189" width="15.4004143" height="50.4013557"/>
                <ellipse id="Oval" fill="#FFFFFF"
                         transform="translate(72.201474, 42.428688) rotate(-89.579753) translate(-72.201474, -42.428688) "
                         cx="72.2014738" cy="42.4286877" rx="14.0003766" ry="25.2006779"/>
                <path d="M122.1,4.8 L72.3,4.4 L72.2,22.4 L126.2,22.8 L126.3,9 C126.3,6.7 124.4,4.8 122.1,4.8 Z"
                      id="Path" fill="#FF4343"/>
                <path
                    d="M72.8,76.4 L70.6,370.4 L119.2,370.8 C127.7,370.9 134.7,364 134.8,355.5 L136.8,76.9 L72.8,76.4 Z"
                    id="Path" fill="#FF4343"/>
                <polygon id="Path" fill="#FFFFFF" points="4.6 231.9 140.2 291.9 140.9 196.9 5.3 136.9"/>
                <path
                    d="M130.2,13.9 L130.1,27.9 C130.1,27.9 139.9,61.2 141.3,75.5 C142.2,85.5 139.7,355 139.7,355 C139.7,355 139.5,376 119.5,375.9 C99.5,375.8 39.5,375.3 39.5,375.3"
                    id="Path" stroke="#000000" stroke-width="11" stroke-linecap="round" stroke-linejoin="round"/>
                <path d="M73.8,0.9 L15.8,3.5 C11.8,8.5 13.7,22.5 13.7,22.5 L2.3,75.4 L0.4,331.4" id="Path"
                      stroke="#000000" stroke-width="11" stroke-linecap="round" stroke-linejoin="round"/>
            </g>
            <g id="Group" transform="translate(455.000000, 493.000000)">
                <g id="Path" transform="translate(1.000000, 3.000000)">
                    <g id="Group">
                        <path
                            d="M152.2,135.7 C152.2,116.3 138.1,96 124,75.9 C113.4,60.9 111.9,38.7 111.9,28.3 L113.2,28.3 C119.4,28.3 124.4,24.1 124.5,18.8 L124.6,10.4 C124.6,5.1 119.7,0.7 113.5,0.7 L78.4,0.5 L78.1,0.5 L43,0.3 C36.8,0.3 31.8,4.5 31.7,9.9 L31.6,18.3 C31.6,23.6 36.5,27.9 42.7,28 L44,28 C43.8,38.3 42,60.6 31.2,75.4 C16.7,95.3 2.3,115.4 2.1,134.8 C2.1,134.9 2.1,135.1 2.1,135.2 C2.1,135.3 2,135.4 2,135.5 L0.6,333.6 C0.5,351 28.4,369.7 75.3,370.1 C75.4,370.1 75.4,370.1 75.5,370.1 C75.6,370.1 75.6,370.1 75.7,370.1 C122.6,370.4 150.7,352.1 150.9,334.7 L152.3,136.6 C152.3,136.5 152.2,136.4 152.2,136.3 C152.1,136 152.2,135.8 152.2,135.7 Z"
                            id="Path" fill="#CAECF4"/>
                        <path
                            d="M17.8,138.1 L16.4,333.9 C16.3,345.5 42.9,355.1 75.7,355.3 C108.5,355.5 135.2,346.3 135.3,334.7 L136.7,138.9 L17.8,138.1 Z"
                            id="Path" fill="#4DBFD9"/>
                        <path
                            d="M136.6,139 C136.6,144.7 109.9,149.1 77.1,148.8 C44.3,148.6 17.7,143.8 17.8,138.1 C17.8,132.4 44.5,128 77.3,128.3 C110.1,128.5 136.7,133.3 136.6,139 Z"
                            id="Path" fill="#95D8E9"/>
                        <path
                            d="M124.4,22.1 C124.4,27.6 119.9,32.1 114.3,32 L40.6,31.5 C35.1,31.5 30.6,27 30.7,21.4 L30.8,10.1 C30.8,4.6 35.3,0.1 40.9,0.2 L114.6,0.7 C120.1,0.7 124.6,5.2 124.5,10.8 L124.4,22.1 Z"
                            id="Path" fill="#4DBFD9"/>
                        <path
                            d="M100.5,105.5 C100.5,111 96,115.5 90.4,115.4 L88.3,115.4 C82.8,115.4 78.3,110.9 78.4,105.3 L78.8,51.1 C78.8,45.6 83.3,41.1 88.9,41.2 L91,41.2 C96.5,41.2 101,45.7 100.9,51.3 L100.5,105.5 Z"
                            id="Path" fill="#FFFFFF"/>
                    </g>
                    <path
                        d="M123.8,303.8 C123.8,309.3 119.3,313.8 113.7,313.7 L109.8,313.7 C104.3,313.7 99.8,309.2 99.9,303.6 L100.8,173.9 C100.8,168.4 105.3,163.9 110.9,164 L114.8,164 C120.3,164 124.8,168.5 124.7,174.1 L123.8,303.8 Z"
                        fill="#FFFFFF"/>
                </g>
                <path
                    d="M75.3,34.7 C77.1,35.4 115.1,34.7 115.1,34.7 C115.1,34.7 116,52.7 124.8,71.8 C133.7,90.9 153.3,104.7 153.1,152.3 C152.9,200 151.9,337.9 151.9,337.9 C151.9,337.9 148.7,372.9 81.2,372.9 C13.7,372.9 1.6,342.4 1.6,342.4"
                    id="Path" stroke="#000000" stroke-width="11" stroke-linecap="round" stroke-linejoin="round"/>
                <path d="M0.8,142.4 C2.8,144.4 0,253.4 0,253.4" id="Path" stroke="#000000" stroke-width="11"
                      stroke-linecap="round" stroke-linejoin="round"/>
                <path
                    d="M108.8,1.2 L43.8,0.7 C43.8,0.7 29.8,-3.4 29.7,18.6 C29.5,40.6 43.6,35.7 43.6,35.7 C43.6,35.7 45.4,63.7 19.2,94.5"
                    id="Path" stroke="#000000" stroke-width="11" stroke-linecap="round" stroke-linejoin="round"/>
            </g>
            <g id="Group" transform="translate(384.000000, 1137.000000)">
                <path
                    d="M210.6,288.5 L252.1,223.1 C250.7,222.5 249.4,221.9 248.1,221 C236.7,213.7 233.3,198.6 240.6,187.2 C247.9,175.8 263,172.4 274.4,179.7 C275.7,180.5 276.9,181.5 278,182.5 L284.8,171.8 C279.2,166.8 277.9,158.4 282,151.9 C286.1,145.4 294.3,143 301.2,146 L314.7,124.7 L164.9,20.1 C116.2,-10.8 51.6,3.6 20.7,52.3 C-10.2,101 4.2,165.6 52.9,196.5 L210.6,288.5 Z"
                    id="Path" fill="#FFD56C"/>
                <circle id="Oval" fill="#F7B634" cx="200.6" cy="214.7" r="24"/>
                <circle id="Oval" fill="#F7B634" cx="233.5" cy="115.3" r="12.5"/>
                <circle id="Oval" fill="#F7B634" cx="166.4" cy="129.6" r="10.5"/>
                <circle id="Oval" fill="#F7B634" cx="103.9" cy="66.7" r="26"/>
                <circle id="Oval" fill="#F7B634" cx="108.7" cy="172.9" r="7"/>
                <path d="M5.9,77.5 C5.9,77.5 23.9,8.1 97.9,1.6" id="Path" stroke="#F7B634" stroke-width="11"/>
                <path d="M242.9,241.5 L210.7,292.1 L54.1,201 C54.1,201 -23.8,153.9 7.4,73" id="Path" stroke="#000000"
                      stroke-width="11" stroke-linecap="round" stroke-linejoin="round"/>
                <path
                    d="M283.8,178 L287.6,172.1 C287.6,172.1 278.2,162.6 285,153.8 C291.7,145.1 303.5,149 303.5,149 L318.5,125.4 L208.6,48.5 L176.8,25.9 C176.8,25.9 138.9,-7.7 93.3,2.5"
                    id="Path" stroke="#000000" stroke-width="11" stroke-linecap="round" stroke-linejoin="round"/>
            </g>
            <g id="Group" transform="translate(803.000000, 1087.000000)">
                <path d="M70.6,100.9 C70.6,100.9 69.9,66.4 114.3,62.1 L116.1,80.8 L70.6,100.9 Z" id="Path"
                      fill="#6B9314"/>
                <path d="M164.6,91.8 C164.6,91.8 158.7,57.8 114.2,62.1 L116,80.8 L164.6,91.8 Z" id="Path"
                      fill="#5F7F08"/>
                <path d="M116.1,80.9 L135.8,284.3 L105.3,287.3 C-24.3,269.5 -35.4,95.6 116.1,80.9 Z" id="Path"
                      fill="#C6064B"/>
                <path
                    d="M166.3,281.3 L105.3,287.2 C117.1,296.8 125.3,311.7 126.9,329.3 C127.8,339.4 136.3,352 151.5,355.7 L157.8,349.7 C132.4,335.2 152,290.1 166.3,281.3 Z"
                    id="Path" fill="#C6064B"/>
                <path d="M83,77.9 C83,77.9 68.7,53.1 51.3,37.7 L60.1,28.2 C60.1,28.2 73.2,36.1 98,69.6 L83,77.9 Z"
                      id="Path" fill="#6B9314"/>
                <path
                    d="M113.8,64.3 C110.5,52.3 101.8,23 91.6,3.7 L81.8,8.8 C81.8,8.8 92.3,43.2 98.2,71.4 L113.8,64.3 Z"
                    id="Path" fill="#6B9314"/>
                <path
                    d="M148.1,71.6 C148.1,71.6 157.4,44.5 171.5,26.1 L161,18.4 C161,18.4 149.7,28.7 131.8,66.3 L148.1,71.6 Z"
                    id="Path" fill="#5F7F08"/>
                <path
                    d="M115.1,64.5 C116,52.3 118.9,21.5 125.3,0.4 L135.9,3.5 C135.9,3.5 132.2,39.3 131.8,68.1 L115.1,64.5 Z"
                    id="Path" fill="#5F7F08"/>
                <path d="M166.3,281.3 L135.8,284.3 L116.1,80.9 C267.6,66.2 290.1,239 166.3,281.3 Z" id="Path"
                      fill="#A50446"/>
                <path
                    d="M247.7,183.9 C247.7,183.9 264.2,108.4 163.5,79.2 C162.7,78.2 159,73 152.4,68.3 C152.4,68.3 161.5,38.6 171.6,26.4 L160.1,18.2 C160.1,18.2 140.4,42.8 134,59.1 C133.4,59.7 133.8,16.9 136,2.6 C135.9,3.5 125.4,0.1 125.4,0.1 C125.4,0.1 118.5,29.9 115.9,51.6"
                    id="Path" stroke="#000000" stroke-width="11" stroke-linecap="round" stroke-linejoin="round"/>
                <path
                    d="M0.2,180.7 C0.2,180.7 1.9,110.5 68.9,90.6 C68.1,89.6 75.6,77 77.8,74.6 C77.8,74.6 61.9,47.5 47.6,38.9 L59.8,25.2 C59.8,25.2 89.9,51.1 96,64.2 C102.1,77.4 85.1,27.2 85.1,27.2"
                    id="Path" stroke="#000000" stroke-width="11" stroke-linecap="round" stroke-linejoin="round"/>
                <polyline id="Path" stroke="#000000" stroke-width="11" stroke-linecap="round" stroke-linejoin="round"
                          points="81.5 9.4 91.5 3.6 114.3 62.1"/>
                <path d="M158.1,349.5 C158.1,349.5 127.6,307.8 180.7,275.5" id="Path" stroke="#000000" stroke-width="11"
                      stroke-linecap="round" stroke-linejoin="round"/>
                <path d="M118.2,311.4 C118.2,311.4 111.1,292 103.2,289.9 C95.3,287.8 32.3,280.8 13,228.5" id="Path"
                      stroke="#000000" stroke-width="11" stroke-linecap="round" stroke-linejoin="round"/>
            </g>
        </g>
    </g>
</svg>
