<?xml version="1.0" encoding="UTF-8"?>
<svg width="516.3" height="886.5" viewBox="0 0 1721 2955" version="1.1" xmlns="http://www.w3.org/2000/svg"
     xmlns:xlink="http://www.w3.org/1999/xlink">
    <!-- Generator: Sketch 52.6 (67491) - http://www.bohemiancoding.com/sketch -->
    <title>usp2</title>
    <desc>Created with Sketch.</desc>
    <defs>
        <radialGradient cx="49.9884994%" cy="49.9586249%" fx="49.9884994%" fy="49.9586249%" r="50.0007695%"
                        gradientTransform="translate(0.499885,0.499586),scale(1.000000,0.965546),rotate(2.217187),translate(-0.499885,-0.499586)"
                        id="radialGradient-1">
            <stop stop-color="#87d068" offset="0%"/>
            <stop stop-color="#EE2C81" offset="8.510262%"/>
            <stop stop-color="#F14F96" offset="24.46%"/>
            <stop stop-color="#F689B9" offset="46.13%"/>
            <stop stop-color="#FCD8E8" offset="72.43%"/>
            <stop stop-color="#FFFFFF" offset="84.49%"/>
        </radialGradient>
        <radialGradient cx="49.9860912%" cy="49.9829691%" fx="49.9860912%" fy="49.9829691%" r="50.0007695%"
                        gradientTransform="translate(0.499861,0.499830),scale(1.000000,0.965546),rotate(2.217187),translate(-0.499861,-0.499830)"
                        id="radialGradient-2">
            <stop stop-color="#87d068" offset="0%"/>
            <stop stop-color="#EE2C81" offset="8.510262%"/>
            <stop stop-color="#F14F96" offset="24.46%"/>
            <stop stop-color="#F689B9" offset="46.13%"/>
            <stop stop-color="#FCD8E8" offset="72.43%"/>
            <stop stop-color="#FFFFFF" offset="84.49%"/>
        </radialGradient>
    </defs>
    <g id="Page-1" stroke="none" stroke-width="1" fill="none" fill-rule="evenodd">
        <g id="usp2" transform="translate(11.000000, 11.000000)">
            <g id="Layer_7" transform="translate(1383.000000, 1838.000000)"/>
            <g id="Arm_links">
                <path
                    d="M191.1,2943.3 C579.4,2943.3 1061.3,2934 1296.9,2919.2 C1491.7,2907 1475.7,2891.1 1475.7,2873.6 C1475.7,2856.3 1492.7,2840.4 1299.4,2828.2 C1063.8,2813.3 577.7,2855 187.9,2855 C175.3,2855 163.1,2855 151,2855 C81.9,2855 89.9,2913 89.9,2913 C90,2937.9 147,2943.3 191.1,2943.3 Z"
                    id="Path" fill="#B5ADA6" opacity="0.3"/>
                <path
                    d="M378.6,2567.2 L467,2438 C442.5,2428 418.2,2417.7 393.6,2407.9 C384.9,2404.4 376,2400.5 366.9,2396.8 L300.2,2536.8 C326.1,2547.5 352.1,2557.9 378.6,2567.2 Z"
                    id="Path" fill="#C69481"/>
                <path d="M340.7,2464.9 C350.9,2442.3 361,2419.6 371.2,2397" id="Path" stroke="#081922" stroke-width="13"
                      stroke-linecap="round" stroke-linejoin="round"/>
                <path
                    d="M740.4,1884.3 C720.5,1875.6 700.6,1867 680.7,1858.3 C643.5,1842.1 546.4,1955 529.3,1995.9 C462.3,2156.8 397.8,2283.8 360.8,2352.6 C352.7,2367.7 354,2386.1 364.5,2397.9 C380.1,2415.5 409.8,2436.7 463.3,2439.1 C550.8,2331.2 718.3,2092.6 771.7,1985.6 C791.2,1946.6 777.5,1900.7 741,1884.6 C740.9,1884.5 740.7,1884.4 740.4,1884.3 Z"
                    id="Path" fill="#F5AA1B"/>
                <path
                    d="M742.6,1882.8 C660.2,2023.8 465.4,2296.7 423.7,2436.4 C423.6,2436.6 423.7,2436.8 423.9,2436.9 C446.3,2449.4 434.3,2438.1 464.7,2439.5 C464.9,2439.5 465.1,2439.4 465.1,2439.2 C507.1,2313.4 720.6,2091.7 774.3,1984.3 C794,1945 780,1898.8 743.1,1882.6 C742.9,1882.6 742.7,1882.6 742.6,1882.8 Z"
                    id="Path" fill="#F5AA1B"/>
                <path
                    d="M547.6,1975.2 C481.5,2063.6 354.3,2379 356.1,2386.1 C398.6,2421.4 402.1,2435.6 462.7,2437.7 C552.5,2317.8 696.3,2114.5 767.8,1983.4"
                    id="Path" stroke="#081922" stroke-width="22" stroke-linecap="round" stroke-linejoin="round"/>
                <path
                    d="M962.9,2721.1 L946.8,2565.4 C973.1,2568.3 999.4,2570.8 1025.7,2573.9 C1035,2575 1044.7,2575.7 1054.4,2576.9 L1046.3,2731.8 C1018.5,2728.8 990.6,2725.5 962.9,2721.1 Z"
                    id="Path" fill="#C69481"/>
                <path
                    d="M970.2,1948.3 C991.8,1950.1 1013.4,1952.1 1035.1,1953.9 C1075.5,1957.4 1107.1,2102.9 1102.6,2147 C1084.9,2320.4 1081,2462.8 1080.8,2540.9 C1080.7,2558.1 1070.9,2573.6 1056,2579 C1033.9,2587 997.7,2591.5 949.5,2568.1 C924,2431.5 890.4,2141.9 894.4,2022.4 C895.9,1978.9 929.8,1945 969.5,1948.2 C969.7,1948.3 970,1948.3 970.2,1948.3 Z"
                    id="Path" fill="#F5AA1B"/>
                <path
                    d="M969.1,1946 C974.4,2109.2 1015.6,2442 985.7,2584.6 C985.7,2584.8 985.5,2584.9 985.3,2584.9 C959.6,2585.2 975.6,2581 948.2,2567.8 C948,2567.7 947.9,2567.5 948,2567.3 C971.1,2436.7 889,2140.1 892.9,2020.1 C894.4,1976.2 928.7,1942.2 968.8,1945.5 C968.9,1945.6 969.1,1945.7 969.1,1946 Z"
                    id="Path" fill="#F5AA1B"/>
                <path d="M1045,2649.2 C1046.9,2624.4 1048.7,2605.8 1050.6,2581.1" id="Path" stroke="#081922"
                      stroke-width="13" stroke-linecap="round" stroke-linejoin="round"/>
                <path
                    d="M1096.5,2120.1 C1112.5,2229.3 1074,2567.2 1069,2572.6 C1014.8,2583.4 1004.9,2594.2 950.7,2567.2 C928.9,2419 899.3,2171.7 898.9,2022.4"
                    id="Path" stroke="#081922" stroke-width="22" stroke-linecap="round" stroke-linejoin="round"/>
                <path
                    d="M22.3,2541.3 C5.7,2532.3 -2.7,2518.4 1.2,2502.8 C7.4,2477.6 25.9,2454.7 55.6,2452.4 C72.3,2451.1 135.7,2479.7 151.6,2484.4 C160.6,2487 169.7,2490.1 178.9,2490.6 C213.1,2492.4 247.3,2491.9 281.1,2486.2 C292.7,2484.2 300.3,2488.2 305.8,2497.3 C311.5,2506.8 316.2,2516.9 321.9,2526.4 C326.9,2534.5 331.9,2542.9 338.5,2549.6 C347.5,2558.7 358.4,2562.9 371.6,2556.5 C376.8,2554 383.7,2553.2 389.6,2553.8 C403.6,2555.4 414.6,2571.9 413.6,2587.8 C412.8,2600 406.7,2610.1 400.2,2619.9 C391.1,2633.6 381.1,2646.7 373.2,2661.1 C365.5,2675.1 359.9,2690.2 353.4,2704.9 C348.6,2715.7 345.8,2716.7 335.4,2711.1 C291,2687.1 246.7,2663 202.3,2639 C158.1,2614.9 66.5,2565.3 22.3,2541.3 Z"
                    id="Path" stroke="#081922" stroke-width="22" fill="#ECECEC" stroke-linecap="round"
                    stroke-linejoin="round"/>
                <path d="M356.4,2679.9 L9.6,2491.9" id="Path" stroke="#081922" stroke-width="22" fill="#ECECEC"
                      stroke-linecap="round" stroke-linejoin="round"/>
                <path d="M224.2,2473.3 L242,2519.7" id="Path" stroke="#081922" stroke-width="22" fill="#ECECEC"
                      stroke-linecap="round" stroke-linejoin="round"/>
                <path d="M176.1,2467.7 L193.9,2514.1" id="Path" stroke="#081922" stroke-width="22" fill="#ECECEC"
                      stroke-linecap="round" stroke-linejoin="round"/>
                <path
                    d="M1093.5,2868.6 C1043,2868.6 992.6,2868.6 942.1,2868.6 C930.4,2868.6 928.3,2866.4 929.2,2854.6 C930.4,2838.6 932.8,2822.6 932.6,2806.7 C932.5,2790.3 930,2774 928.5,2757.6 C927.4,2745.8 926.8,2734.1 932,2723 C938.7,2708.5 956.3,2699.3 969.3,2704.5 C974.8,2706.7 980.4,2710.7 983.8,2715.4 C992.4,2727.4 1003.9,2728.9 1016.2,2725.1 C1025.2,2722.4 1033.6,2717.4 1041.8,2712.6 C1051.4,2707 1060.3,2700.3 1069.8,2694.7 C1079,2689.3 1087.6,2689.5 1096.8,2696.7 C1123.8,2717.9 1153.6,2734.6 1184.5,2749.3 C1192.8,2753.3 1202.3,2754.9 1211.4,2756.9 C1227.6,2760.4 1297,2765.4 1311,2774.5 C1336,2790.7 1341.3,2819.7 1334.8,2844.7 C1330.7,2860.3 1316.8,2868.4 1297.9,2868.5 C1248,2868.6 1143.8,2868.6 1093.5,2868.6 Z"
                    id="Path" stroke="#081922" stroke-width="22" fill="#ECECEC" stroke-linecap="round"
                    stroke-linejoin="round"/>
                <path d="M938.5,2831.2 L1332.9,2831.2" id="Path" stroke="#081922" stroke-width="22" fill="#ECECEC"
                      stroke-linecap="round" stroke-linejoin="round"/>
                <path d="M1163.1,2712.5 L1125.4,2744.9" id="Path" stroke="#081922" stroke-width="22" fill="#ECECEC"
                      stroke-linecap="round" stroke-linejoin="round"/>
                <path d="M1208.1,2730.5 L1170.3,2762.9" id="Path" stroke="#081922" stroke-width="22" fill="#ECECEC"
                      stroke-linecap="round" stroke-linejoin="round"/>
                <path
                    d="M1118.9,385.1 C1118.9,385.1 1096.8,647 1109.5,674.9 L1347.9,723.9 C1347.9,723.9 1447.4,620.4 1451.4,576.7 C1455.4,533 1251.6,349 1118.9,385.1 Z"
                    id="Path" fill="#2B100D"/>
                <path
                    d="M1492.8,866.4 C1494.5,868.9 1505.5,884.5 1520.5,911.4 C1543,951.6 1575,1016.7 1598.6,1100.3 C1610.3,1141.8 1619.9,1187.8 1625,1237.3 C1630,1286.5 1630.6,1339 1624.2,1393.4 C1618.7,1440.9 1579.2,1470.9 1536,1460.9 C1492.9,1450.8 1462,1404.4 1467,1356.9 C1472.6,1304.3 1469.5,1254.4 1461.5,1208.5 C1449.5,1139.3 1426,1079.4 1405.6,1037.6 C1395.4,1016.6 1386,1000.2 1379.5,989.5 C1376.2,984.2 1373.7,980.2 1372.2,977.9 C1371.4,976.7 1370.9,975.9 1370.6,975.6 L1370.4,975.3 L1388.9,959.1 L1370.5,975.4 L1370.4,975.3 L1388.9,959.1 L1370.5,975.4 L1409.7,940.6 L1370.5,975.5 L1370.4,975.4 L1409.6,940.6 L1370.4,975.5 L1418.5,932.7 L1370.4,975.6 L1418.5,932.8 L1370.4,975.7 L1429.9,922.6 L1370.5,975.8 L1370.4,975.7 L1429.9,922.6 L1370.5,975.8 C1341.2,934.7 1344.4,876.8 1378,846.4 C1412,815.8 1463.4,824.8 1492.8,866.4 Z"
                    id="Path" fill="#F6F6F6"/>
                <path d="M1497.5,1362.9 C1497.5,1362.9 1510.9,1252.6 1468.9,1145.2" id="Path" stroke="#000000"
                      stroke-width="22" opacity="0.06" stroke-linecap="round"/>
                <path
                    d="M1630.9,1186.6 C1610.2,1071.2 1564.5,956.4 1500.8,866.6 C1491.2,853.1 1480.9,842.6 1466.8,837.5"
                    id="Path" stroke="#081922" stroke-width="22" stroke-linecap="round" stroke-linejoin="round"/>
                <path d="M1592.1,1466.9 C1592.8,1465 1662.8,1341 1529.5,1302.9" id="Path" stroke="#081922"
                      stroke-width="22" stroke-linecap="round" stroke-linejoin="round"/>
                <path
                    d="M904.1,708.8 C901.1,710 882.6,717.4 854,732.3 C811.2,754.5 745.7,793 676.5,852.2 C642.2,881.6 607,916.1 573.7,956.2 C540.6,996 509.4,1041.2 483,1091.9 C460,1136.1 476.2,1184.3 519.1,1199.8 C562,1215.3 615.6,1192.3 639.1,1148.3 C665.1,1099.6 696.9,1058.1 730.7,1022.8 C781.5,969.6 836.7,930.9 878.6,906 C899.6,893.5 917.2,884.6 929.1,879 C935,876.2 939.5,874.2 942.2,873.1 C943.6,872.5 944.5,872.1 944.9,872 L945.2,871.9 L938.8,847.5 L945,871.9 L945.1,871.8 L938.7,847.4 L944.9,871.8 L931.6,819.7 L944.8,871.9 L944.9,871.8 L931.6,819.7 L944.8,871.9 L928.6,807.8 L944.7,871.9 L928.5,807.8 L944.6,871.9 L924.6,792.6 L944.4,872 L944.6,871.9 L924.6,792.6 L944.4,872 C993.6,852.8 1024.7,800.8 1013.7,755.6 C1003,710.2 953.7,689.2 904.1,708.8 Z"
                    id="Path" fill="#F6F6F6"/>
                <path d="M900.1,709.9 C891.3,715.9 883,717.7 874.7,719.5 C724.2,793.5 586.6,904.6 500.9,1054.3"
                      id="Path" stroke="#081922" stroke-width="22" stroke-linecap="round" stroke-linejoin="round"/>
                <path d="M631.3,1138.2 C631.3,1138.2 684.4,1035.2 783.4,965.8" id="Path" stroke="#000000"
                      stroke-width="22" opacity="0.06" stroke-linecap="round"/>
                <path d="M474,1156.2 C474,1156.2 476.4,997.8 638.5,1027.2" id="Path" stroke="#081922" stroke-width="22"
                      stroke-linecap="round" stroke-linejoin="round"/>
                <path
                    d="M872,2121.7 C871.8,2121.6 871.7,2121.6 871.5,2121.5 C846.2,2112.2 832.6,2083.3 840.4,2054.9 C866.6,1960 915.6,1774.9 931.7,1699.7 L944.1,1640.4 C974.4,1491.7 988.8,1391.1 988.8,1391.1 L1110.7,1399.6 L1180.5,1419.4 C1181.9,1458.8 1183.3,1569.6 1159.1,1676.9 C1139.8,1788.8 1070.8,2008.1 1032.5,2123 C1022.6,2152.8 999.4,2169.6 972.5,2159.6 C939,2147 905.6,2134 872,2121.7 Z"
                    id="Path" fill="#F5AA1B"/>
                <path
                    d="M872,2121.7 C871.8,2121.6 871.7,2121.6 871.5,2121.5 C845.8,2112.1 831.9,2082.8 839.9,2053.9 C865.9,1959.7 914.5,1775.9 930.4,1701.7 L942.8,1642.4 C973.1,1493.7 987.5,1393.1 987.5,1393.1 L1029.3,1396 C1013.9,1579.1 978.4,1832.8 928.2,2036.5 C920.4,2033.5 879.9,2124.6 872,2121.7 Z"
                    id="Path" fill="#F5AA1B"/>
                <path d="M842.3,2067.4 C865.7,1985.6 910.5,1797.8 928.6,1714.7" id="Path" stroke="#081922"
                      stroke-width="22" stroke-linecap="round" stroke-linejoin="round"/>
                <path
                    d="M738.3,2083.7 C738.5,2083.7 738.6,2083.8 738.8,2083.8 C765.2,2089.2 792,2071.8 800.3,2043.5 C827.9,1949 883.5,1765.7 909.4,1693.4 L930,1636.5 C982.4,1494.1 1023.1,1400.9 1023.1,1400.9 L915,1344 L845.2,1324.2 C823.3,1356.9 763.9,1450.5 728,1554.5 C685.6,1659.8 629,1882.6 601.2,2000.5 C594,2031.1 604.9,2057.6 633,2063.2 C668,2070 703.2,2076.5 738.3,2083.7 Z"
                    id="Path" fill="#F5AA1B"/>
                <path
                    d="M738.3,2083.7 C738.5,2083.7 738.6,2083.8 738.8,2083.8 C765.6,2089.3 792.8,2071.7 801.2,2043 C828.6,1949.3 883.9,1767.3 909.4,1695.8 L930,1638.9 C982.4,1496.5 1023.1,1403.3 1023.1,1403.3 L986,1383.8 C902.8,1547.6 799.6,1782.1 735.3,1981.8 C743.5,1983.3 730.1,2082 738.3,2083.7 Z"
                    id="Path" fill="#F5AA1B"/>
                <path d="M792.1,2053.1 C815.2,1971.2 875.9,1787.9 904.2,1707.7" id="Path" stroke="#081922"
                      stroke-width="22" stroke-linecap="round" stroke-linejoin="round"/>
                <path
                    d="M717.3,1577.9 C715.6,1636.8 708.8,1890.5 714.3,1890.7 C720.6,1890.9 897.7,1891.8 1002.8,1968 L1163.5,1704.7 L717.3,1577.9 Z"
                    id="Path" fill="#F5AA1B"/>
                <path
                    d="M1373.3,973 C1363.9,952.6 1355.3,926.5 1355.4,926.3 C1365.2,883.6 1427.6,875.3 1439.5,833.2 C1439.6,833 1357.7,791.9 1357.5,791.8 C1354.4,788.8 1352,786.4 1350.6,784.6 L1350.8,783.3 L1349.5,782.9 C1349.3,782.4 1349.1,782 1349.2,781.6 C1349.2,781.4 1349.1,781.8 1348.8,782.6 L1306.4,770.5 C1306.7,769.7 1306.8,769.2 1306.7,769.4 C1306.5,769.7 1306.2,770 1305.7,770.3 L1305.1,770.1 L1304.8,770.7 C1298.3,773.5 1276.6,776.3 1249.7,780.4 C1249.4,780.4 1249.1,780.3 1249,780 C1242.1,759.9 1214.4,769.3 1195.5,763.8 L1195.6,763.6 C1195.7,763.2 1195.4,762.8 1195,762.8 C1193.9,762.8 1192.9,762.7 1191.8,762.5 C1190.8,762.1 1189.8,761.6 1188.9,761.1 C1188.5,760.9 1188.1,761 1187.9,761.5 L1187.8,761.7 C1168.9,756.4 1150.3,733.9 1133.8,747.3 C1133.6,747.5 1133.2,747.5 1133,747.3 C1112.2,729.6 1095.2,715.9 1091.2,710.1 L1091.3,709.4 L1090.7,709.2 C1090.4,708.7 1090.3,708.3 1090.3,707.9 C1090.3,707.6 1090.2,708.1 1090,709 L1047.6,696.9 C1047.8,696.1 1047.9,695.6 1047.8,695.8 C1047.7,696.1 1047.3,696.4 1046.9,696.7 L1045.6,696.3 L1045.1,697.5 C1043,698.3 1039.7,699.2 1035.4,700 C1035.2,700 984.4,701.9 951.5,699.1 C907.9,695.4 1010.6,784.7 996.5,826.2 C996.4,826.4 970.1,783.2 969.9,783.3 C905.4,818.5 821.7,938.3 855.3,1037.2 C859.5,1049.5 864.1,1060.8 869.1,1071.3 C868.6,1071.9 868.1,1072.5 867.5,1073.2 C875.2,1099.3 881,1126.5 878.7,1158.3 C878,1168.1 874.5,1180.1 869.3,1193.4 C869.3,1193.4 869.3,1193.5 869.3,1193.5 C868.2,1199.5 867.1,1204.5 866.6,1206.7 C853.3,1273.7 832,1340.9 809.9,1405.5 C789.2,1466.3 759.9,1524.7 723.3,1578 C712.2,1594.2 709.3,1614.6 716.1,1633 L716.3,1633.5 C727.4,1663.4 746.8,1685.3 770.5,1694.9 C796.8,1705.5 817.7,1711.4 820.1,1712.1 C821.9,1712.6 862.1,1726.4 910,1741 C910.1,1741.1 910.1,1741.2 910.3,1741.2 C911.4,1741.5 912.4,1741.8 913.5,1742 C914.5,1742.3 915.6,1742.6 916.6,1743 C916.7,1743 916.8,1743 916.9,1743 C965.3,1755.8 1006.7,1765.2 1008.5,1765.7 C1010.8,1766.4 1031.7,1772.4 1059.7,1777.2 C1085,1781.5 1113,1773.1 1138.1,1753.5 L1138.5,1753.2 C1153.9,1741.1 1162.2,1722.2 1161.3,1702.6 C1158.2,1638 1164,1572.9 1178.3,1510.3 C1193.5,1443.7 1210.7,1375.3 1234.6,1311.3 C1235.4,1309.3 1237,1304.3 1239.3,1298.7 C1239.3,1298.7 1239.3,1298.6 1239.3,1298.6 C1241.9,1284.6 1245.2,1272.5 1249.8,1263.8 C1264.6,1235.6 1220.6,1193.4 1304.1,1197.3 C1304,1196.5 1303.9,1195.7 1303.7,1194.9 C1313.5,1188.6 1323.4,1181.4 1333.4,1173.2 C1414,1106.8 1392.6,1014.8 1373.3,973 Z"
                    id="Path" fill="#F4F5F6"/>
                <path
                    d="M1243.3,791.8 C1243.3,791.8 1258.4,943.3 1129.2,960.7 L1215.7,989.4 C1240.8,997.7 1267.6,982.2 1272.9,956.3 L1302.7,809.5 L1243.3,791.8 Z"
                    id="Path" fill="#000000" opacity="0.06"/>
                <path
                    d="M937.1,1909 C916.9,1906.2 894.6,1902.1 871.6,1896.1 C870.9,1895.9 870.3,1895.7 869.6,1895.5 C868.9,1895.3 868.3,1895.2 867.6,1895 C785.7,1871.9 723.8,1831.3 723.8,1831.3 L782.6,1605.7 L685.4,1555.8 L554.6,1982.2 C567.5,2005.2 606.9,2030.6 650.5,2053.2 C750.2,2104.8 858.7,2134.2 971.6,2139.9 C1019.9,2142.3 1066,2140.2 1089.1,2127.3 L1207.2,1700.4 L1101.9,1693.7 L1028.5,1914.6 C1028.5,1914.6 996.4,1916 951.2,1910.9"
                    id="Path" fill="#87d068"/>
                <path
                    d="M1210.6,1702.4 L1105.3,1695.7 L1032.1,1916.9 C1032.1,1916.9 1000,1918.3 954.8,1913.2 L870.6,1901.7 L875.4,2131.1 C908.2,2137 941.6,2140.8 975.4,2142.5 C1023.7,2144.9 1069.8,2142.8 1092.9,2129.9 L1210.6,1702.4 Z"
                    id="Path" fill="#87d068"/>
                <path
                    d="M1206,1699.9 L1248.2,1547.1 L1269.3,1470.6 C1269.3,1470.6 1233.5,1175 1282.6,996.4 C1290.6,972.7 1298.7,948.4 1303.5,933.2 C1307.4,921 1311.7,908.8 1316.5,896.7 C1325,875 1337.5,841.2 1342.8,818.2 C1351.3,781 1310.4,790.6 1310.4,790.6 L1243.4,979.3 C1217.3,978.9 1181.6,975.5 1140.8,964.1 C1100.4,952.5 1068.5,937 1046.1,923.8 L1092.3,728.6 C1092.3,728.6 1062.7,699 1049.7,734.9 C1041.6,757.2 1033.8,792.4 1029.1,815.3 C1026.5,828 1023.6,840.6 1020.1,853 C1017,864.2 1012.8,880.4 1008.3,897.7 C975.4,1024.1 861.7,1186.9 798.1,1271.2 C768.2,1310.8 745.6,1355.3 731.1,1402.7 L731,1403.1 L684.4,1555.3 L781.6,1605.2 L722.9,1830.8 C722.9,1830.8 784.8,1871.4 866.7,1894.5 C867.4,1894.7 868,1894.8 868.7,1895 C869.4,1895.2 870,1895.4 870.7,1895.6 C952.9,1917.3 1027.5,1914 1027.5,1914 L1100.9,1693.1 L1206,1699.9 Z"
                    id="Path" fill="#F5AA1B"/>
                <path
                    d="M1186.3,1700 C1196.6,1700.7 1206,1694 1208.7,1684 L1246.1,1548.4 L1266,1476.1 C1266.7,1473.4 1267,1470.6 1266.7,1467.9 C1262.6,1431.6 1234.8,1165.1 1280.1,998.9 C1280.2,998.4 1280.4,997.9 1280.5,997.5 C1288.4,974.1 1296.3,950.1 1301.1,935 C1304.9,922.8 1309.3,910.6 1314,898.5 C1322.5,876.8 1335,843 1340.2,820 C1343.8,804.1 1338.4,796.8 1331,793.6 C1319.8,788.8 1306.8,795.2 1302.7,806.7 L1246.2,965.9 C1243,975 1234.1,981 1224.4,980.4 C1210.1,979.5 1193.9,977.8 1176.1,974.5 C1163.3,972.2 1151.2,981.4 1150.3,994.4 C1147.6,1032.6 1145,1070.2 1138.1,1107.3 C1127.7,1162.8 1107.4,1216.4 1088.2,1266.5 C1020,1444.1 939.2,1598 895.9,1752.3 C885.8,1788.3 878.6,1824 870.9,1859.1 C868.3,1871.2 865.7,1883.2 863.2,1895.1 C863.8,1895.3 864.3,1895.4 864.9,1895.6 C865.6,1895.8 866.2,1895.9 866.9,1896.1 C867.6,1896.3 868.2,1896.5 868.9,1896.7 C928.2,1912.3 983.5,1915 1009.7,1915.2 C1019.2,1915.3 1027.6,1909.2 1030.5,1900.3 L1093.5,1710.3 C1096.6,1700.9 1105.7,1694.8 1115.6,1695.4 L1186.3,1700 Z"
                    id="Path" fill="#F5AA1B65"/>
                <path
                    d="M1007.9,908.8 C975.1,1034.4 861.9,1196.2 798.4,1280.2 C768.4,1319.8 745.7,1364.3 731.1,1411.8 L684.5,1563.3 L554,1988.1 C566.9,2011 606.2,2036.3 649.8,2058.9 C749.3,2110.3 857.7,2139.8 970.3,2145.4 C1018.5,2147.8 1064.5,2145.8 1087.6,2132.9 L1205.3,1707.6 L1237.6,1590.7"
                    id="Path" stroke="#081922" stroke-width="22" stroke-linecap="round" stroke-linejoin="round"/>
                <path
                    d="M952.9,1911.3 C978.7,1916.5 1004.8,1914.7 1031.1,1913 C1054.2,1846.2 1079.8,1772.1 1100.7,1698.4 C1134.8,1692.5 1168.2,1701.7 1207.2,1700.8"
                    id="Path" stroke="#081922" stroke-width="22" stroke-linecap="round" stroke-linejoin="round"/>
                <path
                    d="M688.9,1557.1 C721.9,1568.4 751,1597 784.6,1606.2 C764.1,1670.7 756.5,1736.3 732.1,1799.5 C728.9,1812.3 720.8,1828.2 728.7,1830.3 C790,1869.4 852.9,1899.8 924.9,1907.4"
                    id="Path" stroke="#081922" stroke-width="22" stroke-linecap="round" stroke-linejoin="round"/>
                <path d="M882.4,914.7 C847.1,960 837.9,1026.5 878.7,1071.5" id="Path" stroke="#081922" stroke-width="22"
                      stroke-linecap="round" stroke-linejoin="round"/>
                <path
                    d="M1359.3,963.8 C1391.1,1030.8 1400,1113.7 1332.4,1169.5 C1332.3,1169.6 1332.2,1169.7 1332.1,1169.7 C1314.6,1184.1 1292.9,1192.2 1270.3,1193.8 C1242,1195.7 1234.8,1261.1 1234.89898,1261.6"
                    id="Path" stroke="#081922" stroke-width="22" stroke-linecap="round" stroke-linejoin="round"/>
                <polygon id="Path" fill="#AE7B6B"
                         points="1292.2 727.8 1157.3 689.4 1180.9 593.7 1241.6 637.8 1322.6 633.9"/>
                <rect id="Rectangle" fill="#D6D4D4"
                      transform="translate(1211.182530, 735.603960) rotate(15.861183) translate(-1211.182530, -735.603960) "
                      x="1093.4358" y="689.755232" width="235.493465" height="91.6974553"/>
                <path
                    d="M1148.6,666.9 L1214.5,690.7 L1148.5,730.5 L1083.3,761.4 C1065.1,770 1047,749.4 1058,732.5 L1109.6,652.9 L1148.6,666.9"
                    id="Path" fill="#F7F8F9"/>
                <path
                    d="M1238.3,696.5 L1273.5,765 L1318.1,833.9 C1327.5,848.4 1350,841.5 1349.7,824.2 L1347.5,719.4 L1238.3,696.5 Z"
                    id="Path" fill="#F7F8F9"/>
                <path
                    d="M1115.4,746.2 L1077.6,764.1 C1061.1,771.9 1044.7,753.2 1054.6,737.8 L1109.7,652.7 L1209.9,691.2"
                    id="Path" stroke="#081922" stroke-width="22" stroke-linecap="round" stroke-linejoin="round"/>
                <path d="M1293.4,796.8 L1312.6,826.5 C1323.5,843.4 1349.8,835.3 1349.4,815.2 L1347.4,720.4" id="Path"
                      stroke="#081922" stroke-width="22" stroke-linecap="round" stroke-linejoin="round"/>
                <path
                    d="M1112.1,752.1 L1198.4,724.3 C1209.8,720.6 1222.3,724.2 1230.1,733.2 L1293.2,806.6 L1239.5,695.8 L1213,688.3 L1112.1,752.1 Z"
                    id="Path" fill="#000000" opacity="0.06"/>
                <g id="Group" transform="translate(1068.000000, 1020.000000)" fill="#87d068">
                    <rect id="Rectangle"
                          transform="translate(46.668340, 51.383630) rotate(15.861183) translate(-46.668340, -51.383630) "
                          x="18.3191267" y="23.0344167" width="56.6984266" height="56.6984266"/>
                    <g>
                        <path
                            d="M21.3,0.8 L0,75.6 L74.8,96.9 L96.1,22.1 L21.3,0.8 Z M35.3,69.6 C35.3,69.6 35.3,69.7 35.1,69.8 C34.9,69.9 34.8,70 32.4,69.3 L32.3,69.3 L32,69.2 L31.9,69.2 C29.6,68.5 29.5,68.4 29.4,68.2 C29.4,68.2 29.4,68.1 29.3,68.1 C29.3,68 26.1,56.7 26,56.3 C24.9,60.1 23.3,65.6 23,66.2 C23,66.2 22.9,66.3 22.8,66.4 C22.6,66.5 22.5,66.6 20.1,65.9 L20,65.9 L19.7,65.8 L19.6,65.8 C17.2,65.1 17.2,65 17.1,64.8 C17,64.7 17,64.5 17,64.5 C17.1,63.8 18.6,58.2 19.7,54.4 C20.8,50.6 22.5,44.7 22.8,44.1 C22.8,44.1 22.8,44 23,43.9 C23.2,43.8 23.3,43.7 25.7,44.4 L25.9,44.5 L26.1,44.6 C28.4,45.3 28.5,45.4 28.6,45.6 C28.6,45.6 28.6,45.7 28.7,45.7 C29.4,48.7 30,50.8 30.4,52.3 C31.2,55.2 31.5,56.5 31.8,58 L31.8,57.9 C32.9,54.1 34.6,48.2 34.9,47.6 C34.9,47.6 35,47.5 35.1,47.4 C35.3,47.3 35.4,47.2 37.8,47.9 L38,48 L38.2,48.1 C40.5,48.8 40.6,48.9 40.7,49.1 C40.8,49.2 40.8,49.4 40.8,49.4 C40.7,50.1 39.1,56 38,59.8 C37.2,63.4 35.6,69 35.3,69.6 Z M46.4,33.4 L46.4,33.5 C44.7,39.4 39.6,41.4 32.4,39.3 C32,39.2 31.5,39 31,38.9 C30.6,40.2 30.3,41.2 30.2,41.4 C30.2,41.4 30.1,41.5 30,41.6 C29.8,41.7 29.7,41.8 27.3,41.1 L27.2,41.1 L26.9,41 L26.8,41 C24.5,40.3 24.4,40.2 24.3,40 C24.2,39.9 24.2,39.7 24.2,39.7 C24.3,39.1 25.6,34.4 26.6,30.7 L26.7,30.3 L26.9,29.6 L27,29.2 C28.1,25.4 29.7,19.9 30,19.3 C30.1,19 30.4,19 30.6,19 C31.6,19.2 35.8,20.2 37.6,20.8 C44.8,23 48.1,26.9 46.4,33.1 L46.4,33.4 Z M44.6,72.3 C44.6,72.3 44.6,72.4 44.4,72.5 C44.2,72.6 44.1,72.7 41.7,72 L41.6,72 L41.3,71.9 L41.2,71.9 C38.8,71.2 38.8,71.1 38.7,70.9 C38.6,70.8 38.6,70.6 38.6,70.6 C38.7,69.9 39.7,66.1 40.8,62.3 C41.9,58.5 43,54.7 43.3,54.1 C43.3,54.1 43.3,54 43.5,53.9 C43.7,53.8 43.8,53.7 46.2,54.4 L46.4,54.5 L46.6,54.6 C48.9,55.3 49,55.4 49.1,55.6 C49.2,55.7 49.2,55.9 49.2,55.9 C49.1,56.6 48.1,60.4 47,64.2 C46,67.9 44.9,71.7 44.6,72.3 Z M45,48 C45.5,46.3 47.3,45.3 49,45.8 C50.7,46.3 51.7,48.1 51.2,49.8 C50.7,51.5 48.9,52.5 47.2,52 C45.5,51.5 44.5,49.7 45,48 Z M52.8,43.6 C52.8,43.6 52.8,43.7 52.6,43.8 C52.4,43.9 52.3,44 49.9,43.3 L49.7,43.2 L49.5,43.1 C47.1,42.4 47.1,42.3 47,42.1 C46.9,42 46.9,41.8 46.9,41.8 C47,41.1 48,37.3 49.1,33.5 C50.2,29.7 51.3,25.9 51.6,25.3 C51.6,25.3 51.6,25.2 51.8,25.1 C52,25 52.1,24.9 54.5,25.6 L54.6,25.6 L54.9,25.7 L55,25.7 C57.3,26.4 57.4,26.5 57.5,26.7 C57.6,26.8 57.6,27 57.6,27 C57.5,27.7 56.5,31.5 55.4,35.3 C54.2,39.2 53.1,43 52.8,43.6 Z M66.9,76.5 C65.3,77.2 63.6,77.6 61.7,77.6 C60.7,77.6 59.6,77.5 58.5,77.2 C58.2,77.1 57.9,77 57.6,76.9 C57.5,76.9 57.4,76.8 57.3,76.8 C54.7,75.9 52.5,74.2 51.2,72 C51.2,72 51.2,72 51.2,72 C51.1,71.9 51.1,71.8 51,71.7 C49.6,69.3 49.2,66.2 50.2,62.9 C52.2,55.9 58.5,53.3 64.9,55.1 C67.6,55.9 69.8,57.4 71.3,59.4 C71.4,59.5 71.4,59.7 71.2,59.9 C70.9,60.2 70.3,61 69.2,61.9 C68.6,62.4 68.1,62.8 67.4,63.2 C66.9,63.5 66.9,63.4 66.5,63 C65.6,62 64.4,61.3 63.2,61 C60.3,60.2 57.3,61.4 56.4,64.6 C56.4,64.6 56.3,64.8 56.3,64.9 C55.6,68.2 57.6,70.7 60.6,71.3 C61.4,71.5 62.2,71.5 63,71.4 C63.5,71.3 64.1,71.2 64.6,71.1 C65,71 65.2,70.9 65.4,71.3 C65.7,71.8 65.9,72.4 66.2,73.2 C66.6,74.5 66.9,75.6 66.9,76 C67.2,76.4 67,76.4 66.9,76.5 Z M73.9,51.8 C72.3,52.5 70.6,52.9 68.7,52.9 C67.7,52.9 66.6,52.8 65.5,52.5 C65.2,52.4 64.9,52.3 64.6,52.2 C64.5,52.2 64.4,52.1 64.3,52.1 C61.7,51.2 59.5,49.5 58.2,47.3 C58.2,47.3 58.2,47.3 58.2,47.3 C58.1,47.2 58.1,47.1 58,47 C56.6,44.6 56.2,41.5 57.2,38.2 C59.2,31.2 65.5,28.6 71.9,30.4 C74.6,31.2 76.8,32.7 78.3,34.7 C78.4,34.8 78.4,35 78.2,35.2 C77.9,35.5 77.3,36.3 76.2,37.2 C75.6,37.7 75.1,38.1 74.4,38.6 C73.9,38.9 73.9,38.8 73.5,38.4 C72.6,37.4 71.4,36.7 70.2,36.4 C67.3,35.6 64.3,36.8 63.4,40 C63.4,40 63.3,40.2 63.3,40.3 C62.6,43.6 64.6,46.1 67.6,46.7 C68.4,46.9 69.2,46.9 70,46.8 C70.5,46.7 71.1,46.6 71.6,46.5 C72,46.4 72.2,46.3 72.4,46.7 C72.7,47.2 72.9,47.8 73.2,48.6 C73.6,49.9 73.9,51 73.9,51.4 C74.2,51.7 74.1,51.8 73.9,51.8 Z"
                            id="Shape" fill-rule="nonzero"/>
                        <path
                            d="M36.5,26.8 C35.7,26.5 35.1,26.4 34.7,26.3 L32.8,33 C33.3,33.2 33.7,33.3 34.6,33.6 C37.6,34.4 39.6,33.9 40.3,31.6 L40.3,31.5 C40.9,29.2 39.4,27.7 36.5,26.8 Z"
                            id="Path"/>
                    </g>
                </g>
                <path
                    d="M630.2,1181.9 L555.1,1490.3 C550.5,1510.6 546.4,1517.9 519.5,1515.3 C492.7,1512.7 491.1,1501.7 492.1,1481.2 L511.1,1142.4 C513.4,1101.4 547.4,1081.7 590.1,1084.4 C686.4,1086 639.3,1140.9 630.2,1181.9"
                    id="Path" fill="#C69481"/>
                <path
                    d="M489.1,1471.1 L510.2,1138 C512.7,1097.2 545.1,1077.4 585.8,1079.8 C626.8,1082.2 653.8,1105.9 644.9,1146.8 L581.7,1357.8"
                    id="Path" stroke="#081922" stroke-width="22" stroke-linecap="round" stroke-linejoin="round"/>
                <path
                    d="M1454.1,1433.5 L1357.2,1761.9 C1350.5,1783.3 1350,1792.2 1371.3,1801.5 C1392.5,1810.7 1399.1,1800.9 1408.5,1780.8 L1562.1,1447.8 C1580.7,1407.5 1565.3,1373.7 1532.2,1357.6 C1459.9,1316.9 1467.7,1390.2 1454.1,1433.5"
                    id="Path" fill="#C69481"/>
                <path
                    d="M1415.2,1772.2 L1564.9,1444 C1583.3,1403.8 1568.3,1370.3 1535.8,1354.4 C1503.1,1338.3 1470.5,1348.8 1457,1392 L1400.5,1622.3"
                    id="Path" stroke="#081922" stroke-width="22" stroke-linecap="round" stroke-linejoin="round"/>
                <path
                    d="M1318,1831.6 C1310.4,1826.4 1300.5,1816.2 1297.3,1808.9 C1273.7,1754.8 1201.7,1744 1172.7,1722.7 C1164.4,1716.6 1158.6,1708.6 1160.8,1698.7 L1364.3,1754.9 L1392.8,1762.3 C1398.5,1763.7 1404.6,1764.4 1410.5,1765.4 C1411,1752.2 1412.3,1737.1 1418.5,1725.2 C1423.1,1716.3 1453,1699.8 1458.5,1714.2 C1461,1720.6 1451,1735.4 1448.8,1741.6 C1445.1,1752 1442,1762.8 1439.9,1773.7 C1437.1,1788.2 1442.8,1798.9 1429.9,1807.7 C1421.2,1813.6 1410.4,1819.2 1401.8,1826.6 C1378.5,1846.8 1344.5,1849.5 1318.9,1832.4 C1318.7,1832.1 1318.3,1831.9 1318,1831.6 Z"
                    id="Path" stroke="#081922" stroke-width="22" fill="#C69481" stroke-linecap="round"
                    stroke-linejoin="round"/>
                <path
                    d="M1375.5,1766.7 C1371.3,1765.7 1367.2,1764.5 1363.2,1763.2 L1320,1750.8 C1325.3,1762.4 1336.1,1778.7 1355.6,1783.1 C1372,1786.8 1394.9,1781.5 1408.7,1776.3 L1375.5,1766.7 Z"
                    id="Path" fill="#AE7B6B"/>
                <path
                    d="M522,1615.4 C531.1,1615 544.8,1611.6 551.3,1607.2 C599.5,1574.2 665.8,1603 701.3,1600.3 C711.5,1599.5 720.5,1595.9 723.9,1586.4 L523.3,1526.6 L495.5,1517.8 C490,1516 484.4,1513.4 479,1511.1 C485.5,1499.8 492.4,1486.3 493.4,1473.1 C494.2,1463.2 477.8,1433.6 465.6,1442.8 C460.1,1446.9 460.7,1464.6 459.3,1470.9 C456.9,1481.6 453.8,1492.3 449.9,1502.5 C444.6,1516.2 434.2,1522.2 440.4,1536.3 C444.6,1545.8 450.8,1556.3 454,1567 C462.9,1596.2 490.1,1616.4 520.6,1615.5 C521.2,1615.4 521.6,1615.4 522,1615.4 Z"
                    id="Path" stroke="#081922" stroke-width="22" fill="#C69481" stroke-linecap="round"
                    stroke-linejoin="round"/>
                <path
                    d="M591.4,1544.8 C619.6,1541.3 563.9,1565.5 531.4,1557.9 C498.9,1550.3 488.9,1513.2 489.1,1512.5 C489.1,1512.5 540.3,1551.1 591.4,1544.8 Z"
                    id="Path" fill="#AE7B6B"/>
                <path
                    d="M1107.4,473.5 C1110.7,478.6 1113,484.3 1113.8,490.5 C1115.9,505.7 1118.2,522.4 1118.3,523.3 C1119.4,537.8 1124.5,552 1133.5,564.5 C1161.1,603.1 1201.5,657.6 1266.5,662.9 L1266.5,663 C1267.1,663 1267.7,663 1268.3,663 C1268.9,663 1269.5,663.1 1270.1,663.1 L1270.1,663 C1335.3,662.7 1389.6,611.9 1420.1,575.6 C1430,563.8 1436.2,550.1 1438.4,535.7 C1438.5,534.9 1439.1,521.1 1439.7,507.3 C1440.3,493.5 1447.6,481.1 1458.9,473.2 C1463.5,470 1467.6,465.5 1470.8,459.8 C1479.6,443.7 1497.4,401.6 1475.1,391.7 C1460.9,385.4 1456.5,393.6 1455.7,395.8 C1455.8,395.3 1456,394.4 1456.2,393 C1457.3,385.3 1457,377.4 1455.4,369.7 C1441.7,302 1434,259.6 1373.3,274.3 C1373.2,274.3 1373.2,274.3 1373.1,274.3 C1355.9,278.5 1337.8,272.1 1327.4,257.7 C1313.6,238.7 1299.9,214.5 1286,215.5 C1265.6,212.4 1246.7,211.9 1226.3,209.9 C1222.2,209.5 1218.2,208.5 1214.4,206.9 C1210,205 1205.6,203.5 1201.1,202 C1141.7,182.6 1123.6,289.5 1104.7,356 C1102.6,363.6 1101.6,371.4 1102.1,379.2 C1102.2,380.6 1102.3,381.5 1102.4,382 C1101.7,379.7 1098,371.2 1083.3,376.4 C1060.2,384.5 1074.7,427.9 1082.3,444.6 C1085.3,451.2 1089.8,456.6 1094.8,460.2 C1099.7,464 1104.1,468.4 1107.4,473.5"
                    id="Path" fill="#C69481"/>
                <path
                    d="M1229.6,354.3 C1229.6,354.3 1198.5,374.1 1163.2,359.3 C1127.9,344.5 1241.9,323.6 1229.6,354.3 Z"
                    id="Path" fill="#000000" opacity="0.13"/>
                <path d="M1334.2,358.3 C1334.2,358.3 1363.7,380.4 1400,368.4 C1436.3,356.4 1324.2,326.8 1334.2,358.3 Z"
                      id="Path" fill="#000000" opacity="0.13"/>
                <path
                    d="M1288.3,96.8 C1311.5,98.2 1324.3,79.1 1356.8,81 C1389.3,82.9 1502.8,143 1528.2,365.4 C1528.2,365.4 1535,409.2 1530.9,478.7 C1526.8,548.2 1499.7,541.5 1497.2,556 C1494.7,570.5 1505.6,584 1518.4,583.5 C1518.4,583.5 1507.9,593.8 1489.5,584.9 C1489.5,584.9 1486.8,605.8 1506.2,616.2 C1506.2,616.2 1477.9,626.3 1454.6,609.9 C1454.6,609.9 1458.2,636.1 1483.4,643.8 C1483.4,643.8 1470,666 1434.7,656.8 C1434.7,656.8 1438.9,676 1452.2,681.4 C1452.2,681.4 1428.5,690.6 1416.9,671.8 L1354.4,708 L1372.1,687.2 C1376.4,682.2 1380.9,677.3 1385.4,672.6 C1398.3,659 1437.1,606.1 1438.9,460.7 L1359.9,349.2 C1359.9,349.2 1305.2,300 1329.3,322.3 C1329.3,322.3 1289.7,304.1 1282.4,300.7 C1248.6,285 1261.6,379.3 1194.5,273.6 C1194.5,273.6 1176.2,268.4 1164.7,287 C1163.7,288.6 1161.8,290.8 1163.3,291.8 C1163.3,291.8 1163.5,302.2 1157.8,303.6 C1157.8,303.6 1153.4,352.4 1129.8,383.8 C1106.2,415.1 1106.9,543.9 1139.2,676.1 C1139.2,676.1 1117.6,655.2 1109.8,655.6 C1102,656 1083.1,667.5 1083.1,667.5 C1083.1,667.5 1093.4,640 1090.3,629.9 C1090.3,629.9 1057.7,636.1 1036.7,601.3 C1036.7,601.3 1060.9,603.7 1074,591.5 C1074,591.5 1043.4,598 1020,573.9 C1020,573.9 1036.6,567.8 1046.2,549.8 C1046.2,549.8 1020.5,559.4 1005.8,540.3 C1005.8,540.3 1035.3,535.8 1038.4,523.1 C1041.5,510.4 997.2,510.3 1006.7,416.2 C1016.2,322.1 1057.3,243.5 1091.6,187.8 C1125.9,132.1 1187.5,76.3 1235.5,79.2 C1258.9,80.4 1257.3,94.9 1288.3,96.8 Z"
                    id="Path" fill="#511E15"/>
                <path
                    d="M1132.4,454.6 C1132.4,454.6 1121.9,401.3 1082,430.1 C1044.2,457.4 1068.2,491.4 1088.9,504.9 C1093.3,507.8 1097.6,510.7 1101.6,514 C1108.4,519.8 1119,528.8 1127.7,536.8 C1131.6,540.4 1134.3,544.9 1136.8,549.5 C1145.1,564.8 1187.9,558.3 1210.3,516.3"
                    id="Path" fill="#C69481"/>
                <path
                    d="M1107.5,446.7 C1111.4,442.5 1111.5,436.5 1106.9,433.1 C1104.1,430.9 1100.4,429.9 1095.8,432.2 C1084.1,438.1 1071.2,448.2 1072.3,463.1 C1073.4,478.1 1082.1,483.2 1089.5,489.3 C1089.6,489.4 1089.6,489.4 1089.7,489.5 C1112.8,508.9 1121,502.6 1107.8,475.4 C1102.8,464.8 1100.4,454.3 1107.5,446.7 Z"
                    id="Path" fill="#000000" opacity="0.13"/>
                <path
                    d="M1148.7,494.7 C1136.9,496.1 1129.2,499 1129,502.6 C1128.8,508.4 1148.8,513.9 1173.6,514.9 C1193.9,515.7 1211.3,513.2 1217,509.1 C1194.9,515.2 1165.8,507.5 1148.7,494.7 Z"
                    id="Path" fill="#AE7B6B"/>
                <path
                    d="M1404,504.7 C1398.3,511.4 1389.7,517 1381.9,518.9 C1364.9,523.1 1349.4,515.2 1333.3,512.4 C1336.8,517.5 1355.1,522 1377.3,522.8 C1402.2,523.8 1422.5,519.8 1422.7,514 C1422.9,510.4 1415.4,507 1404,504.7 Z"
                    id="Path" fill="#AE7B6B"/>
                <path
                    d="M1248.5,523.7 C1246.8,566.9 1211.7,600.5 1170,598.9 C1128.3,597.3 1095.9,561 1097.6,517.8 C1099.3,474.6 1134.4,441 1176.1,442.6 C1217.7,444.2 1250.1,480.5 1248.5,523.7 Z"
                    id="Path" fill="url(#radialGradient-1)" opacity="0.26"/>
                <path
                    d="M1458.7,531.8 C1457,575 1421.9,608.6 1380.2,607 C1338.5,605.4 1306.1,569.1 1307.8,525.9 C1309.5,482.7 1344.6,449.1 1386.3,450.7 C1427.9,452.4 1460.3,488.7 1458.7,531.8 Z"
                    id="Path" fill="url(#radialGradient-2)" opacity="0.26"/>
                <path
                    d="M1201.4,275.4 C1183.3,237.6 1340.7,282.7 1340.7,282.7 C1340.7,282.7 1381.5,433.9 1408,453.2 C1407.2,453.8 1251.7,380.2 1201.4,275.4 Z"
                    id="Path" fill="#511E15"/>
                <path
                    d="M1157.5,291 C1163.3,311 1176.2,375.3 1275.5,402.5 C1275.5,402.5 1202.8,347.5 1189.4,255.4 C1188.4,255.1 1149.6,263.8 1157.5,291 Z"
                    id="Path" fill="#511E15"/>
                <circle id="Oval" stroke="#081922" stroke-width="13" stroke-linecap="round" stroke-linejoin="round"
                        cx="1193.5" cy="441.7" r="67"/>
                <circle id="Oval" stroke="#081922" stroke-width="13" stroke-linecap="round" stroke-linejoin="round"
                        cx="1363.6" cy="448.3" r="67"/>
                <path d="M1265.4,444.5 L1296.6,445.7" id="Path" stroke="#081922" stroke-width="13"
                      stroke-linecap="round" stroke-linejoin="round"/>
                <path
                    d="M1215.9,355.7 C1206.9,353.7 1198.2,352.7 1190.2,352.7 C1180,352.6 1170.9,354.1 1163.5,356.8 C1159.3,358.3 1132.3,364.8 1130.8,361.4 C1129.4,358.1 1153.8,346.1 1157.6,344.3 C1166.9,340 1178.2,337.2 1191.3,336 C1201.8,335.1 1213.7,335.2 1226.5,336.7 C1235.6,337.8 1240.9,343.4 1237.5,349.1 C1234.1,354.7 1224.2,357.6 1215.9,355.7 Z"
                    id="Path" fill="#081922"/>
                <path
                    d="M1341.9,360.6 C1351,359.3 1359.8,359 1367.7,359.6 C1377.9,360.3 1386.8,362.5 1394,365.8 C1398,367.6 1424.5,376.2 1426.2,373 C1427.9,369.8 1404.5,355.9 1400.8,353.9 C1391.9,348.9 1380.8,345.2 1367.9,343 C1357.5,341.2 1345.7,340.5 1332.8,341 C1323.6,341.4 1318,346.6 1320.9,352.5 C1323.8,358.2 1333.4,361.8 1341.9,360.6 Z"
                    id="Path" fill="#081922"/>
                <g id="Group" opacity="0.13" transform="translate(1253.000000, 522.000000)" fill="#081922">
                    <path
                        d="M0.2,3 C1.8,2.6 3.2,2.2 4.5,2 C5.9,1.7 7.1,1.5 8.3,1.4 C9.5,1.2 10.7,1 11.7,0.9 C12.8,0.7 13.9,0.6 14.9,0.6 C19,0.3 22.5,0.3 26,0.7 C29.5,1 32.9,1.7 36.8,2.7 C37.8,2.9 38.8,3.2 39.8,3.6 C40.8,3.9 41.9,4.3 43.1,4.6 C44.2,5 45.4,5.4 46.7,5.9 C48,6.3 49.3,6.8 50.8,7.5 C50.3,9 49.6,10.4 48.8,11.6 C48,12.8 47.1,13.9 46.1,15 C45.1,16 44.1,16.9 42.9,17.7 C41.8,18.5 40.6,19.2 39.4,19.8 C34.5,22.2 29,23.1 23.8,22.6 C18.5,22.1 13.4,20.2 9.1,16.9 C8,16.1 7,15.2 6.1,14.2 C5.2,13.2 4.3,12.1 3.5,11 C2.7,9.8 2,8.6 1.4,7.3 C0.9,6 0.5,4.6 0.2,3 Z"
                        id="Path"/>
                </g>
                <path d="M1307.4,522.5 C1286,538.8 1251.4,525.6 1246.8,499" id="Path" stroke="#081922" stroke-width="13"
                      stroke-linecap="round"/>
                <g id="Group" opacity="0.13" transform="translate(1244.000000, 625.000000)" fill="#000000">
                    <path
                        d="M0.2,5.6 C1.9,4.8 3.5,4.3 5.1,3.8 C6.7,3.3 8.2,2.9 9.7,2.5 C11.2,2.1 12.7,1.8 14.1,1.5 C15.5,1.2 17,1 18.3,0.8 C23.9,-6.9388939e-18 29.2,-0.1 34.5,0.2 C39.8,0.5 45,1.1 50.5,2.4 C51.9,2.7 53.2,3 54.6,3.5 C56,3.9 57.4,4.3 58.8,4.8 C60.2,5.3 61.7,5.8 63.2,6.5 C64.7,7.1 66.3,7.8 67.9,8.7 C65.6,11.6 63,13.7 60.2,15.5 C58.8,16.4 57.4,17.2 55.9,17.9 C54.5,18.6 53,19.2 51.5,19.7 C45.5,21.7 39.3,22.5 33.2,22.2 C27.1,21.9 21,20.5 15.3,17.9 C13.9,17.2 12.5,16.5 11.1,15.7 C9.7,14.9 8.4,14 7.1,13 C4.8,11 2.3,8.7 0.2,5.6 Z"
                        id="Path"/>
                </g>
                <path
                    d="M1201.3,535.1 C1201.3,535.1 1181.6,530.2 1187.6,553.3 C1193.7,576.3 1230.4,628.1 1275.1,634.7 C1319.8,641.3 1377,592.7 1383.8,556.3 C1383.8,556.3 1387.7,540.5 1372.2,543 C1369.2,543.5 1277.7,581.6 1201.3,535.1 Z"
                    id="Path" fill="#081922"/>
                <path
                    d="M1201.6,535.1 L1197.8,551.1 C1197.8,553.3 1197.8,555 1199.8,555.7 C1219.3,561.9 1315.3,590.3 1366.4,560.1 C1368.7,558.7 1370.3,556.4 1370.8,553.8 L1372.1,542.9 C1372.1,542.9 1338.2,548.5 1290.7,547.8 C1264.2,547.4 1234.5,543.1 1201.6,535.1 Z"
                    id="Path" fill="#FFFFFF"/>
                <path
                    d="M1218.5,601.7 C1218.5,601.7 1240.9,586.4 1278.1,597.8 C1278.1,597.8 1288.3,600.9 1308.3,599.9 C1328.3,598.9 1333.2,619.1 1333.2,619.1 C1333.2,619.1 1305.3,644.4 1264.8,632.7 C1264,632.5 1263.2,632.2 1262.3,632 C1259.4,631.4 1242.6,626 1218.5,601.7 Z"
                    id="Path" fill="#D62229"/>
                <path d="M1216.3,438.4 C1216.3,438.4 1195,411 1171.5,441.9" id="Path" stroke="#081922" stroke-width="13"
                      stroke-linecap="round"/>
                <g id="Group" opacity="0.13" transform="translate(1176.000000, 429.000000)" fill="#000000">
                    <path
                        d="M0.9,5.9 C2.3,5.4 3.5,5.1 4.5,4.8 L7.5,3.9 C9.3,3.4 10.8,2.8 11.9,2.4 C14.3,1.5 15.5,0.8 16.6,0.6 C17.7,0.4 19,0.7 21.6,0.8 C22.2,0.8 23,0.9 23.7,0.9 C24.5,0.9 25.4,1 26.3,0.9 L27.8,0.9 C28.3,0.9 28.9,0.9 29.4,0.9 C30.5,0.8 31.8,0.8 33.2,0.9 C34.3,3.5 34.5,5.9 34.3,8.2 C34.2,9.4 33.9,10.5 33.6,11.6 C33.4,12.1 33.2,12.7 33,13.2 C32.7,13.7 32.5,14.2 32.1,14.7 C29.7,18.7 25.2,21.7 20,22.5 C14.9,23.4 9.6,21.9 6.1,18.9 C4.3,17.4 2.9,15.5 2,13.4 C1.2,11 0.7,8.7 0.9,5.9 Z"
                        id="Path"/>
                </g>
                <path d="M1385.2,445.4 C1385.2,445.4 1360.9,417.8 1337.7,446.2" id="Path" stroke="#081922"
                      stroke-width="13" stroke-linecap="round"/>
                <g id="Group" opacity="0.13" transform="translate(1343.000000, 433.000000)" fill="#000000">
                    <path
                        d="M0.2,6 C1.6,5.5 2.8,5.2 3.8,4.9 L6.8,4 C8.6,3.5 10.1,2.9 11.2,2.5 C13.6,1.6 14.8,0.9 15.9,0.7 C17,0.5 18.3,0.8 20.9,0.9 C21.5,0.9 22.3,1 23,1 C23.8,1 24.7,1.1 25.6,1 L27.1,1 C27.6,1 28.2,1 28.7,1 C29.8,0.9 31.1,0.9 32.5,1 C33.6,3.6 33.8,6 33.6,8.3 C33.5,9.5 33.2,10.6 32.9,11.7 C32.7,12.2 32.5,12.8 32.3,13.3 C32,13.8 31.8,14.3 31.4,14.8 C29,18.8 24.5,21.8 19.3,22.6 C14.2,23.5 8.9,22 5.4,19 C3.6,17.5 2.2,15.6 1.3,13.5 C0.5,11.2 -0.1,8.9 0.2,6 Z"
                        id="Path"/>
                </g>
                <g id="Group" transform="translate(723.000000, 687.000000)">
                    <g transform="translate(0.000000, 60.000000)" id="Path">
                        <path
                            d="M103.4,43.4 C122.8,74.2 112.9,97.6 91.2,111.4 C69.4,125.1 44,124 24.6,93.2 C5.2,62.4 20.9,0 20.9,0 C20.9,0 84,12.7 103.4,43.4 Z"
                            fill="#399E1D"/>
                        <path
                            d="M96.5,13.2 C96.5,13.2 74.1,39.5 63.7,67.8 C33.6,65.1 0.3,73.9 0.3,73.9 C0.3,73.9 13.8,136.9 44.8,155.9 C75.2,174.6 98.3,165.1 111.8,144 C136.7,140.8 155.2,124.1 151.4,88.6 C147.5,52.5 96.5,13.2 96.5,13.2 Z"
                            fill="#30B200"/>
                        <path
                            d="M109.4,64.3 C83.8,49.2 51.3,42.7 51.3,42.7 C51.3,42.7 43.4,73.9 45.7,103.1 C23.4,114.8 4.1,134.6 4.1,134.6 C4.1,134.6 30.8,170.7 63,177.9 C79,181.5 91.2,179.4 100.1,173.6 L179.7,299.6 C187.3,311.6 203.1,315.2 215.1,307.6 C227.1,300 230.7,284.2 223.1,272.2 L143.5,146.1 C153.3,140.8 161.1,130.5 165,113.5 C172.4,81.4 153.6,45.5 153.6,45.5 C153.6,45.5 129.6,52 109.4,64.3 Z"
                            fill="#6AC116"/>
                    </g>
                    <g transform="translate(105.000000, 4.000000)" id="Path">
                        <path
                            d="M132.3,80.3 C132.8,116.7 112.1,131.5 86.4,131.9 C60.6,132.3 39.6,118 39.1,81.6 C38.6,45.2 84.6,0.2 84.6,0.2 C84.6,0.2 131.8,43.9 132.3,80.3 Z"
                            fill="#399E1D"/>
                        <path
                            d="M142.2,50.9 C142.2,50.9 109.4,61.7 85.7,80.4 C61.5,62.4 28.4,52.5 28.4,52.5 C28.4,52.5 7,113.2 23.6,145.7 C39.8,177.5 64.4,181.4 87,170.5 C109.9,180.8 134.3,176.2 149.7,143.9 C165.2,111 142.2,50.9 142.2,50.9 Z"
                            fill="#30B200"/>
                        <path
                            d="M126.5,101.2 C112.6,75 88.2,52.4 88.2,52.4 C88.2,52.4 65.2,74.9 51.9,101 C26.7,99.3 -4.54747351e-13,106.2 -4.54747351e-13,106.2 C-4.54747351e-13,106.2 3.9,151 27.6,173.9 C39.4,185.3 50.9,189.9 61.5,189.6 L63.6,338.6 C63.8,352.8 75.4,364.1 89.6,363.9 C103.8,363.7 115.1,352.1 114.9,337.9 L112.8,188.7 C123.9,189.3 136,184.6 148.1,172.2 C171.2,148.6 173.9,108.3 173.9,108.3 C173.9,108.3 150.2,101.3 126.5,101.2 Z"
                            fill="#6AC116"/>
                    </g>
                    <path d="M232.5,55.4 C232,51.4 197.7,5.5 191,0.3 C188.6,-2.4 156.7,31 150.4,52" id="Path"
                          stroke="#000000" stroke-width="11" stroke-linecap="round" stroke-linejoin="round"/>
                    <path d="M176.6,71.3 C176.6,71.3 139.5,49.9 130.7,52.1 C131.8,53 124.8,69 122.6,82.4" id="Path"
                          stroke="#000000" stroke-width="11" stroke-linecap="round" stroke-linejoin="round"/>
                    <path d="M85.3,83.3 C85.3,83.3 40.3,63 19.8,60.6 C14.6,59.3 9.6,113.4 12.4,127.1" id="Path"
                          stroke="#000000" stroke-width="11" stroke-linecap="round" stroke-linejoin="round"/>
                    <path d="M79.6,110.8 C79.6,110.8 57.8,104.1 51.6,102.9 C45.4,101.7 45.4,163.2 45.4,163.2" id="Path"
                          stroke="#000000" stroke-width="11" stroke-linecap="round" stroke-linejoin="round"/>
                    <path
                        d="M157.2,193 C157.2,193 152.3,201.6 143.8,205.8 C139.1,208.4 167.2,243.8 167.2,243.8 L166.7,207.3"
                        id="Path" stroke="#000000" stroke-width="11" stroke-linecap="round" stroke-linejoin="round"/>
                    <path
                        d="M218.1,215.5 L220.1,326.1 C220.1,326.1 240.7,349.6 219.8,364.9 C198.9,380.2 183.6,371.1 168.8,342.8 C154,314.5 100,233.8 100,233.8 C100,233.8 62.3,265.7 7.4,198.9"
                        id="Path" stroke="#000000" stroke-width="11" stroke-linecap="round" stroke-linejoin="round"/>
                    <path d="M218,87.1 L231.5,105.5 L278.8,112.4 C278.8,112.4 276.1,153.1 252.9,176.3" id="Path"
                          stroke="#000000" stroke-width="11" stroke-linecap="round" stroke-linejoin="round"/>
                </g>
                <g id="Group" transform="translate(875.000000, 724.000000)">
                    <g transform="translate(170.000000, 0.000000)" id="Path">
                        <path d="M13.9,0.4 C-0.3,13.6 0.2,34.5 0.9,44.9 L8.4,45.8 L13.9,0.4 Z" fill="#50720F"/>
                        <path d="M13.9,0.4 C24.5,16.6 19,36.8 15.9,46.7 L8.4,45.8 L13.9,0.4 Z" fill="#3C5407"/>
                    </g>
                    <polygon id="Path" fill="#9B6026"
                             points="178.6 345.2 142.5 340.8 106.3 336.4 97 381.4 108.1 374.5 115.7 383.7 127.3 376.9 136.9 386.3 148.5 379.4 158.2 388.8 167.7 381.8 176.9 391.1"/>
                    <path d="M172.8,44.5 L157.5,31.6 C157.4,28.3 156.3,15.4 162.8,4.1 C169.8,13.3 172.1,35 172.8,44.5 Z"
                          id="Path" fill="#3C5407"/>
                    <path d="M184.1,45.8 L202,37 C202.9,33.8 207.1,21.6 203.5,9 C194.4,16.3 187,36.8 184.1,45.8 Z"
                          id="Path" fill="#50720F"/>
                    <path
                        d="M178.5,44.6 L139.7,363.5 C63.5,354.2 -7.8,305.7 1.7,227.2 C16.9,102.6 122.3,140.7 148.2,63.4 C151.6,53.3 154.7,42.4 157.5,31.6 L178.5,44.6 Z"
                        id="Path" fill="#F5B500"/>
                    <path
                        d="M306.4,264.2 C296.8,342.7 215.9,372.7 139.7,363.5 L178.5,44.6 L202,37 C202.1,48.3 202.5,59.6 203.4,70.1 C210.1,151.4 321.5,139.7 306.4,264.2 Z"
                        id="Path" fill="#F79B14"/>
                    <path d="M11,188.2 C11,188.2 23.4,149.4 98.9,113.6 C151.3,88.7 151.9,50.5 151.9,50.5" id="Path"
                          stroke="#1D1D1B" stroke-width="10" stroke-linecap="round"/>
                    <path
                        d="M186.1,4.3 C186.1,4.3 193.5,19.5 189.6,30.8 C189.6,31.1 195.9,16.1 204.2,6.1 C204.2,6.1 208.5,20.7 205.2,31.4 C201.9,42.1 203.3,76 208.7,89.7"
                        id="Path" stroke="#000000" stroke-width="11" stroke-linecap="round" stroke-linejoin="round"/>
                    <path d="M176,100.8 L160.6,216.7" id="Path" stroke="#000000" stroke-width="11"
                          stroke-linecap="round" stroke-linejoin="round"/>
                    <path
                        d="M272.7,154.4 C272.7,154.4 328.3,202.5 306.1,277.3 C283.9,352.2 229.2,361.1 179.8,366.5 C178.2,364.8 178.2,392.7 178.2,392.7 L167.5,382.4 L157.4,390.2 L148.1,380.2 L136.5,387.6 L126.5,378.3"
                        id="Path" stroke="#000000" stroke-width="11" stroke-linecap="round" stroke-linejoin="round"/>
                    <path d="M95.5,373.1 L100,356.8 C100,356.8 19,334.6 3.4,270.8" id="Path" stroke="#000000"
                          stroke-width="11" stroke-linecap="round" stroke-linejoin="round"/>
                </g>
                <g id="Group" transform="translate(1344.000000, 850.000000)">
                    <path
                        d="M111.3,379.9 L12.9,361.5 C4.5,359.9 -1,351.9 0.6,343.5 L51.8,69.7 L180.6,93.8 L129.4,367.6 C127.7,375.9 119.7,381.4 111.3,379.9 Z"
                        id="Path" fill="#FF8F8F"/>
                    <path
                        d="M179.6,38.6 L72.5,18.6 L75,5 C75.4,2.7 77.6,1.3 79.9,1.7 L178.9,20.2 C181.2,20.6 182.6,22.8 182.2,25.1 L179.6,38.6 Z"
                        id="Path" fill="#FF8F8F"/>
                    <polygon id="Path" fill="#FFBBBB" points="51.8 69.6 72.5 18.6 179.6 38.6 180.5 93.7"/>
                    <ellipse id="Oval" fill="#FF4343"
                             transform="translate(120.321040, 62.214440) rotate(-79.402520) translate(-120.321040, -62.214440) "
                             cx="120.32104" cy="62.21444" rx="13.9993813" ry="25.1988864"/>
                    <rect id="Rectangle" fill="#FF4343"
                          transform="translate(121.817370, 54.453450) rotate(10.597480) translate(-121.817370, -54.453450) "
                          x="96.6184836" y="46.7537903" width="50.3977728" height="15.3993195"/>
                    <ellipse id="Oval" fill="#FFFFFF"
                             transform="translate(122.961150, 48.440270) rotate(-79.402520) translate(-122.961150, -48.440270) "
                             cx="122.96115" cy="48.44027" rx="13.9993813" ry="25.1988864"/>
                    <path
                        d="M178.9,20.2 L129.9,11 L126.6,28.7 L179.7,38.6 L182.2,25 C182.6,22.8 181.1,20.6 178.9,20.2 Z"
                        id="Path" fill="#FF4343"/>
                    <path
                        d="M117.6,81.9 L63.5,370.9 L111.2,379.8 C119.6,381.4 127.6,375.8 129.2,367.5 L180.4,93.7 L117.6,81.9 Z"
                        id="Path" fill="#FF4343"/>
                    <polygon id="Path" fill="#FFFFFF" points="23.1 223 145.9 306 163.4 212.6 40.5 129.6"/>
                    <path
                        d="M185.2,30.5 L182.6,44.3 C182.6,44.3 186.4,78.8 185.2,93.1 C184.3,103.1 134.3,367.9 134.3,367.9 C134.3,367.9 130.4,388.5 110.8,384.9 C91.1,381.2 32.2,370.2 32.2,370.2"
                        id="Path" stroke="#000000" stroke-width="11" stroke-linecap="round" stroke-linejoin="round"/>
                    <path d="M132,7.8 L74.4,0.1 C69.5,4.3 68.9,18.4 68.9,18.4 L48.3,68.5 L1.2,320.1" id="Path"
                          stroke="#000000" stroke-width="11" stroke-linecap="round" stroke-linejoin="round"/>
                </g>
                <g id="Group" transform="translate(1135.000000, 854.000000)">
                    <path d="M100.7,97.9 C100.7,97.9 110.3,61 159,69.8 L155.3,90.3 L100.7,97.9 Z" id="Path"
                          fill="#6B9314"/>
                    <path d="M203.6,116.6 C203.6,116.6 207.6,78.7 159,69.8 L155.3,90.3 L203.6,116.6 Z" id="Path"
                          fill="#5F7F08"/>
                    <path d="M155.2,90.3 L114.7,312.7 L81.4,306.6 C-51.2,248.6 -10.4,60.1 155.2,90.3 Z" id="Path"
                          fill="#C6064B"/>
                    <path
                        d="M148.1,318.8 L81.4,306.7 C91,320.4 95.3,338.8 91.6,358 C89.5,369 94.7,385 109.8,393.6 L118.4,389.1 C95.7,365.9 130.2,323.8 148.1,318.8 Z"
                        id="Path" fill="#C6064B"/>
                    <path
                        d="M120.9,77.1 C120.9,77.1 113.2,46.3 99.3,24.8 L111.6,17.3 C111.6,17.3 123.1,29.7 139.4,72.8 L120.9,77.1 Z"
                        id="Path" fill="#6B9314"/>
                    <path
                        d="M157.8,72 C157.9,58.2 157.5,24.4 152.5,0.7 L140.5,3.1 C140.5,3.1 141.3,42.9 139,74.7 L157.8,72 Z"
                        id="Path" fill="#6B9314"/>
                    <path
                        d="M192,90.1 C192,90.1 210.1,64 230.6,48.8 L221.7,37.5 C221.7,37.5 206.6,45.1 176.1,79.6 L192,90.1 Z"
                        id="Path" fill="#5F7F08"/>
                    <path
                        d="M159.1,72.6 C163.8,59.9 176.2,28 189.3,7.5 L199.7,14 C199.7,14 184.9,51 175.8,81.5 L159.1,72.6 Z"
                        id="Path" fill="#5F7F08"/>
                    <path d="M148.1,318.8 L114.7,312.7 L155.2,90.3 C320.9,120.5 292.6,311.2 148.1,318.8 Z" id="Path"
                          fill="#A50446"/>
                    <path
                        d="M264.2,239.8 C264.2,239.8 304.6,164.4 206.3,102.9 C205.8,101.6 203.3,94.9 197.7,88 C197.7,88 216.4,59.2 230.8,49.3 L221,37.1 C221,37.1 192.6,57.4 180.8,72.7 C179.9,73.1 193.4,27.7 200,13.2 C199.6,14.1 189.5,7.3 189.5,7.3 C189.5,7.3 173.2,36.9 163.8,59.2"
                        id="Path" stroke="#000000" stroke-width="11" stroke-linecap="round" stroke-linejoin="round"/>
                    <path
                        d="M1.7,161.5 C1.7,161.5 24.7,87.3 102.1,86.4 C101.6,85.1 113.3,74 116.4,72.1 C116.4,72.1 107.6,38.4 95.1,24.9 L112.2,14 C112.2,14 136.5,50.6 138.9,66.5 C141.4,82.4 138.5,23.8 138.5,23.8"
                        id="Path" stroke="#000000" stroke-width="11" stroke-linecap="round" stroke-linejoin="round"/>
                    <polyline id="Path" stroke="#000000" stroke-width="11" stroke-linecap="round"
                              stroke-linejoin="round" points="140 3.8 152.4 0.7 158.9 69.8"/>
                    <path d="M118.7,388.9 C118.7,388.9 98.8,335.3 165.2,317" id="Path" stroke="#000000"
                          stroke-width="11" stroke-linecap="round" stroke-linejoin="round"/>
                    <path d="M87.8,336.2 C87.8,336.2 86.1,313.4 78.4,308.8 C70.6,304.1 5.7,277.7 0.9,216.1" id="Path"
                          stroke="#000000" stroke-width="11" stroke-linecap="round" stroke-linejoin="round"/>
                </g>
                <g id="Group" transform="translate(1010.000000, 831.000000)">
                    <g transform="translate(1.000000, 3.000000)" id="Path">
                        <g>
                            <path
                                d="M210.3,165.5 C216.8,147.2 210.2,123.4 203.5,99.7 C198.4,82 204.4,60.6 207.8,50.8 L209,51.2 C214.8,53.3 221,50.9 222.8,45.9 L225.6,38 C227.4,33 224.2,27.2 218.3,25.1 L185.3,13.2 L185,13.1 L152,1.2 C146.2,-0.9 140,1.5 138.2,6.5 L135.4,14.4 C133.6,19.4 136.8,25.1 142.7,27.2 L143.9,27.6 C140.3,37.3 131.2,57.7 116.1,68 C95.8,81.9 75.6,96.1 68.9,114.3 C68.9,114.4 68.8,114.6 68.8,114.7 C68.8,114.8 68.7,114.9 68.7,115 L1.6,301.4 C-4.3,317.8 15.8,344.6 59.9,360.6 C59.9,360.6 60,360.6 60,360.7 C60,360.7 60.1,360.7 60.1,360.8 C104.2,376.6 136.9,368.8 142.8,352.4 L209.9,166 C209.9,165.9 209.9,165.8 210,165.7 C210.1,165.7 210.2,165.6 210.3,165.5 Z"
                                fill="#CAECF4"/>
                            <path
                                d="M82.7,123.2 L16.4,307.4 C12.5,318.3 34.3,336.2 65.2,347.3 C96.1,358.4 124.3,358.6 128.2,347.7 L194.5,163.5 L82.7,123.2 Z"
                                fill="#4DBFD9"/>
                            <path
                                d="M194.5,163.4 C192.6,168.7 166,164 135.1,152.9 C104.2,141.8 80.8,128.5 82.7,123.1 C84.6,117.8 111.2,122.5 142.1,133.6 C173,144.8 196.5,158.1 194.5,163.4 Z"
                                fill="#95D8E9"/>
                            <path
                                d="M221.8,49.1 C219.9,54.3 214.2,57 209,55.1 L139.7,30.1 C134.5,28.2 131.8,22.5 133.7,17.3 L137.5,6.7 C139.4,1.5 145.1,-1.2 150.3,0.7 L219.6,25.7 C224.8,27.6 227.5,33.3 225.6,38.5 L221.8,49.1 Z"
                                fill="#4DBFD9"/>
                            <path
                                d="M171.6,119.9 C169.7,125.1 164,127.8 158.8,125.9 L156.8,125.2 C151.6,123.3 148.9,117.6 150.8,112.4 L169.2,61.4 C171.1,56.2 176.8,53.5 182,55.4 L184,56.1 C189.2,58 191.9,63.7 190,68.9 L171.6,119.9 Z"
                                fill="#FFFFFF"/>
                        </g>
                        <path
                            d="M127.7,314.6 C125.8,319.8 120.1,322.5 114.9,320.6 L111.2,319.3 C106,317.4 103.3,311.7 105.2,306.5 L149.1,184.5 C151,179.3 156.7,176.6 161.9,178.5 L165.6,179.8 C170.8,181.7 173.5,187.4 171.6,192.6 L127.7,314.6 Z"
                            fill="#FFFFFF"/>
                    </g>
                    <path
                        d="M172.3,44.5 C173.7,45.8 209.8,57.7 209.8,57.7 C209.8,57.7 204.6,75 206.7,95.9 C208.7,116.8 222.6,136.4 206.6,181.3 C190.6,226.2 143.8,356 143.8,356 C143.8,356 129.2,387.9 65.5,365.5 C1.8,343.1 0.6,310.3 0.6,310.3"
                        id="Path" stroke="#000000" stroke-width="11" stroke-linecap="round" stroke-linejoin="round"/>
                    <path d="M66.3,121.4 C67.5,124 28.7,225.8 28.7,225.8" id="Path" stroke="#000000" stroke-width="11"
                          stroke-linecap="round" stroke-linejoin="round"/>
                    <path
                        d="M215.1,24 L153.9,2 C153.9,2 142.1,-6.5 134.6,14.2 C127.1,34.9 142,34.9 142,34.9 C142,34.9 134.4,61.9 99.4,82.3"
                        id="Path" stroke="#000000" stroke-width="11" stroke-linecap="round" stroke-linejoin="round"/>
                </g>
                <g id="Group" transform="translate(631.000000, 821.000000)">
                    <path
                        d="M338.3,134.1 C355.7,213.6 305.2,292.1 225.6,309.5 C146,326.9 67.4,276.6 50,197.1 C32.6,117.6 115.6,32 162.7,21.7 C209.4,11.5 320.9,54.6 338.3,134.1 Z"
                        id="Path" fill="#D8AAF9"/>
                    <path
                        d="M213.5,77.9 C140.6,40.8 90.7,48 90.7,48 C45.6,105.1 41.2,171.6 71.8,223.6 C114.6,296.5 214.1,96.3 213.5,77.9 Z"
                        id="Path" fill="#B8A1E5"/>
                    <path
                        d="M286.3,279.8 C280.2,248.9 198.4,133.1 165.4,112.3 C131.1,90.6 96.2,75 56.6,74.6 C32.7,110.5 22.9,155.6 32.8,201 C52.3,289.8 287.7,286.9 286.3,279.8 Z"
                        id="Path" fill="#A687D8"/>
                    <path
                        d="M113.1,212.7 C105.2,193.7 216.9,-13.4 256.2,5.9 C293.9,24.4 323.9,57.1 341.2,95.1 C395.3,214.6 313.9,344.1 192.3,338.3 C193.3,332.5 113.8,214.3 113.1,212.7 Z"
                        id="Path" fill="#A687D8"/>
                    <path d="M2.1,144.7 C-17.7,325.3 199.4,427.4 327.5,305.1 C242.9,205 131.9,131.8 2.1,144.7 Z"
                          id="Path" fill="#9075D3"/>
                    <path
                        d="M380.2,83.1 C388.1,101.9 393.2,122.2 394.8,143.6 C406.1,295.4 241.5,406.3 109.6,338.8 C162,218.9 251.9,107.8 380.2,83.1 Z"
                        id="Path" fill="#844FB7"/>
                    <path
                        d="M307.3,89.4 C314.1,99.8 300.9,29.2 262.3,18.9 C252.2,16.2 242.4,17.6 234.7,24.1 C218.8,37.5 292.6,66.9 307.3,89.4 Z"
                        id="Path" fill="#FFFFFF" opacity="0.27"/>
                    <path d="M170.3,30.2 C173.4,33.2 177.2,37 181.2,39 C201.6,49 195.3,12.7 170.3,30.2 Z" id="Path"
                          fill="#FFFFFF" opacity="0.52"/>
                    <path
                        d="M353.9,103.1 C343.6,106.2 336.5,113.3 335.3,123.8 C328,186.4 344.2,178.1 314.7,259.5 C362.7,262.7 400.4,89.1 353.9,103.1 Z"
                        id="Path" fill="#FFFFFF" opacity="0.28"/>
                    <path d="M372,83.1 C372,83.1 257.2,92.1 164.9,230.1" id="Path" stroke="#000000" stroke-width="11"
                          stroke-linecap="round" stroke-linejoin="round"/>
                    <path d="M328.1,67.6 C328.1,67.6 286.5,12.6 255.3,1.7 C241.1,-3.4 215.1,0.7 132.7,147.8" id="Path"
                          stroke="#000000" stroke-width="11" stroke-linecap="round" stroke-linejoin="round"/>
                    <path d="M144.3,95.9 C144.3,95.9 118,74.9 57.7,71.3 C46.7,73.4 37,96.6 29.1,139.1" id="Path"
                          stroke="#000000" stroke-width="11" stroke-linecap="round" stroke-linejoin="round"/>
                    <path d="M163.1,55.5 C163.1,55.5 141.8,46.3 100.9,44.1" id="Path" stroke="#000000" stroke-width="11"
                          stroke-linecap="round" stroke-linejoin="round"/>
                    <path d="M211.5,20.4 C211.5,20.4 156.9,3.9 118.8,42.9" id="Path" stroke="#000000" stroke-width="11"
                          stroke-linecap="round" stroke-linejoin="round"/>
                    <path d="M385.7,99 C385.7,99 445.1,276.2 262.6,345.7 C80.1,415.2 3.4,219 1.8,184.3" id="Path"
                          stroke="#000000" stroke-width="11" stroke-linecap="round" stroke-linejoin="round"/>
                </g>
                <g id="Group" transform="translate(1290.000000, 957.000000)">
                    <g transform="translate(4.000000, 2.000000)" id="Path">
                        <path
                            d="M5.3,398.1 C6,398.5 6.7,399 7.4,399.4 C25.4,410.3 46.2,410.6 58.1,398.4 L390.5,56.8 C402.2,44.7 401.6,24.2 390.5,6.5 C390.3,6.4 390.2,6.3 390,6.2 C370.1,-6.4 331.4,4.3 284.4,32 C277.1,36.2 269.8,41 262.1,46 C252.5,52.5 242.5,59.5 232.5,67.2 C225.8,72.2 219.1,77.5 212.3,83.1 C203.3,90.5 194.2,98.3 185,106.6 C178.7,112.2 172.4,117.9 166.1,123.9 C158,131.7 149.8,139.8 141.6,148.1 L140.6,149.1 C134.6,155.3 128.7,161.5 123,167.7 C114.8,176.7 106.8,185.7 99.4,194.6 C93.7,201.2 88.3,207.9 83.1,214.5 C75.4,224.2 68.2,233.9 61.5,243.4 C56.4,250.6 51.5,257.8 46.9,264.9 C8.9,323.6 -8.1,373.8 5.3,398.1 Z"
                            fill="#FFC562"/>
                        <path
                            d="M262.2,46 L291,74 C296,78.9 304.1,78.7 309,73.7 C313.9,68.6 313.9,60.6 308.8,55.7 L284.4,32 C277.1,36.2 269.8,40.9 262.2,46 Z"
                            fill="#D68525"/>
                        <path
                            d="M212.4,83.1 L248.2,117.9 C253.2,122.8 261.3,122.7 266.2,117.6 C271.1,112.5 271.1,104.5 266,99.6 L232.6,67.1 C225.9,72.2 219.2,77.5 212.4,83.1 Z"
                            fill="#D68525"/>
                        <path
                            d="M166.2,123.9 L205.3,162 C210.3,166.9 218.4,166.8 223.3,161.7 C228.2,156.6 228.2,148.6 223.1,143.7 L185,106.6 C178.8,112.1 172.5,117.8 166.2,123.9 Z"
                            fill="#D68525"/>
                        <path
                            d="M123.2,167.7 L162.5,205.9 C167.5,210.8 175.6,210.6 180.5,205.6 C185.4,200.5 185.4,192.5 180.3,187.6 L140.7,149.1 C134.8,155.2 129,161.5 123.2,167.7 Z"
                            fill="#D68525"/>
                        <path
                            d="M83.3,214.4 L119.7,249.9 C124.7,254.8 132.8,254.7 137.7,249.6 C142.6,244.5 142.6,236.5 137.5,231.6 L99.5,194.6 C94,201.2 88.5,207.9 83.3,214.4 Z"
                            fill="#D68525"/>
                        <path
                            d="M47.2,264.8 L77.1,293.9 C82.1,298.8 90.2,298.7 95.1,293.6 C100,288.5 100,280.5 94.9,275.6 L61.8,243.4 C56.5,250.5 51.7,257.7 47.2,264.8 Z"
                            fill="#D68525"/>
                    </g>
                    <path
                        d="M11.4,401.4 C29.4,412.3 50.2,412.6 62.1,400.4 L394.5,58.8 C406.2,46.7 405.6,26.2 394.5,8.5 C394.3,8.4 394.2,8.3 394,8.2 L11.4,401.4 Z"
                        id="Path" fill="#F3AA43"/>
                    <path
                        d="M0,391.7 C0,391.7 19.6,230.8 227.9,69.3 C347.5,-13.8 371.6,-4.4 394.2,9.3 C416.9,23 396.1,61.4 361.2,97.2"
                        id="Path" stroke="#000000" stroke-width="11" stroke-linecap="round" stroke-linejoin="round"/>
                    <path d="M254.6,207.6 L69.1,398.2" id="Path" stroke="#000000" stroke-width="11"
                          stroke-linecap="round" stroke-linejoin="round"/>
                </g>
                <g id="Group" transform="translate(1244.000000, 949.000000)">
                    <path
                        d="M136,333.9 C164.6,269 195.4,133.4 181.5,81.3 C164.6,17.8 112.5,42.2 104.6,96.8 C94.9,163.2 73.7,229.1 37.8,292 C-1.6,361 99.3,414.5 136,333.9 Z"
                        id="Path" fill="#239130"/>
                    <path
                        d="M149.1,43.8 C149.1,43.8 182.1,52.2 189.7,29.6 C189.7,29.6 176.7,22.8 168.3,26.8 C159.9,30.8 155.9,34.6 155.9,34.6 C155.9,34.6 165.4,25.1 155.3,3 C155.3,3 138.1,15.8 143.9,34.9 C143.9,34.9 131.7,18.9 115.5,28.4 C115.5,28.3 120.2,45.1 149.1,43.8 Z"
                        id="Path" fill="#FFC82C"/>
                    <path
                        d="M131.3,343.1 C131.3,343.1 101.9,369.3 89,362.9 C89,362.9 116.5,317.1 120,268.5 C120,268.5 95.5,356.3 69.7,357.9 C69.7,357.9 69.7,312.6 81.7,284.8 C81.7,284.8 56.8,333 53.3,353.1 C53.3,353.1 43.7,354.5 29.1,328.2 C29.1,328.2 30.1,360.1 66.3,372.5 C66.2,372.5 105.8,386.1 131.3,343.1 Z"
                        id="Path" fill="#64CC5C"/>
                    <path
                        d="M142.8,202.8 C141.3,208.1 142.4,213 145.1,213.8 C147.8,214.6 151.3,210.9 152.7,205.6 C154.2,200.3 153.1,195.4 150.4,194.6 C147.7,193.8 144.3,197.5 142.8,202.8 Z"
                        id="Path" fill="#64CC5C"/>
                    <path
                        d="M105.3,222.1 C103.8,227.4 104.9,232.3 107.6,233.1 C110.3,233.9 113.8,230.2 115.2,224.9 C116.7,219.6 115.6,214.7 112.9,213.9 C110.2,213.1 106.8,216.8 105.3,222.1 Z"
                        id="Path" fill="#64CC5C"/>
                    <path
                        d="M129.6,272.3 C128.1,277.6 129.2,282.5 131.9,283.3 C134.6,284.1 138.1,280.4 139.5,275.1 C141,269.8 139.9,264.9 137.2,264.1 C134.5,263.3 131.1,266.9 129.6,272.3 Z"
                        id="Path" fill="#64CC5C"/>
                    <path
                        d="M87.9,294 C86.4,299.3 87.5,304.2 90.2,305 C92.9,305.8 96.4,302.1 97.9,296.8 C99.4,291.5 98.3,286.6 95.6,285.8 C92.9,285 89.4,288.6 87.9,294 Z"
                        id="Path" fill="#64CC5C"/>
                    <path
                        d="M63.7,258.6 C62.2,263.9 63.3,268.8 66,269.6 C68.7,270.4 72.2,266.7 73.7,261.4 C75.2,256.1 74.1,251.2 71.4,250.4 C68.6,249.6 65.2,253.3 63.7,258.6 Z"
                        id="Path" fill="#64CC5C"/>
                    <path
                        d="M101.7,173.7 C100.2,179 101.3,183.9 104,184.7 C106.7,185.5 110.2,181.8 111.6,176.5 C113.1,171.2 112,166.3 109.3,165.5 C106.6,164.7 103.2,168.4 101.7,173.7 Z"
                        id="Path" fill="#64CC5C"/>
                    <path
                        d="M152.3,145 C150.8,150.3 151.9,155.2 154.6,156 C157.3,156.8 160.8,153.1 162.2,147.8 C163.7,142.5 162.6,137.6 159.9,136.8 C157.2,136 153.8,139.7 152.3,145 Z"
                        id="Path" fill="#64CC5C"/>
                    <path
                        d="M123.2,100.1 C121.7,105.4 122.8,110.3 125.5,111.1 C128.2,111.9 131.7,108.2 133.2,102.9 C134.7,97.6 133.6,92.7 130.9,91.9 C128.2,91.1 124.7,94.8 123.2,100.1 Z"
                        id="Path" fill="#64CC5C"/>
                    <path
                        d="M157.4,72.8 C155.9,78.1 157,83 159.7,83.8 C162.4,84.6 165.9,80.9 167.4,75.6 C168.9,70.3 167.8,65.4 165.1,64.6 C162.3,63.8 158.9,67.5 157.4,72.8 Z"
                        id="Path" fill="#64CC5C"/>
                    <path
                        d="M37.2,315.4 C35.7,320.7 36.8,325.6 39.5,326.4 C42.2,327.2 45.7,323.5 47.1,318.2 C48.6,312.9 47.5,308 44.8,307.2 C42.1,306.4 38.7,310.1 37.2,315.4 Z"
                        id="Path" fill="#64CC5C"/>
                    <path
                        d="M97.8,297.8 C107.8,239.2 104,122.7 80.5,83.3 C51.9,35.3 12.8,66 18.1,112 C24.6,167.9 21.1,225.9 4.4,284.4 C-14,348.7 84.4,370.9 97.8,297.8 Z"
                        id="Path" fill="#48B53C"/>
                    <path
                        d="M44.5,59.6 C44.5,59.6 74.7,59.5 76.1,39.6 C76.1,39.6 63.4,36.8 57.2,41.8 C50.9,46.8 48.3,50.7 48.3,50.7 C48.3,50.7 54.3,41 40.7,25.1 C40.7,25.1 28.8,39.1 38,53.4 C38,53.4 24,43 12.2,54.1 C12.2,54.1 20.1,66.7 44.5,59.6 Z"
                        id="Path" fill="#FFC82C"/>
                    <path
                        d="M95.8,306.3 C95.8,306.3 76.5,333.7 64,331.2 C64,331.2 77.4,288.3 69.5,248.1 C69.5,248.1 68,324.5 46.4,331.1 C46.4,331.1 36.3,294.4 40.4,269.3 C40.4,269.3 29.8,313.6 31.3,330.7 C31.3,330.7 23.4,333.9 5,315.6 C5,315.6 13,341.3 46.7,343.7 C46.7,343.8 83.6,346.5 95.8,306.3 Z"
                        id="Path" fill="#64CC5C"/>
                    <path
                        d="M74.5,189.9 C74.4,194.5 76.4,198.3 78.9,198.3 C81.4,198.3 83.5,194.6 83.6,190 C83.7,185.4 81.7,181.6 79.2,181.6 C76.7,181.6 74.6,185.3 74.5,189.9 Z"
                        id="Path" fill="#64CC5C"/>
                    <path
                        d="M46.7,213.5 C46.6,218.1 48.6,221.9 51.1,221.9 C53.6,221.9 55.7,218.2 55.8,213.6 C55.9,209 53.9,205.2 51.4,205.2 C48.8,205.1 46.7,208.8 46.7,213.5 Z"
                        id="Path" fill="#64CC5C"/>
                    <path
                        d="M78.6,249.1 C78.5,253.7 80.5,257.5 83,257.5 C85.5,257.5 87.6,253.8 87.7,249.2 C87.8,244.6 85.8,240.8 83.3,240.8 C80.8,240.8 78.7,244.5 78.6,249.1 Z"
                        id="Path" fill="#64CC5C"/>
                    <path
                        d="M47.8,275.5 C47.7,280.1 49.7,283.9 52.2,283.9 C54.7,283.9 56.8,280.2 56.9,275.6 C57,271 55,267.2 52.5,267.2 C50,267.1 47.9,270.8 47.8,275.5 Z"
                        id="Path" fill="#64CC5C"/>
                    <path
                        d="M19.2,251.9 C19.1,256.5 21.1,260.3 23.6,260.3 C26.1,260.3 28.2,256.6 28.3,252 C28.4,247.4 26.4,243.6 23.9,243.6 C21.3,243.5 19.2,247.2 19.2,251.9 Z"
                        id="Path" fill="#64CC5C"/>
                    <path
                        d="M32.8,175 C32.7,179.6 34.7,183.4 37.2,183.4 C39.7,183.4 41.8,179.7 41.9,175.1 C42,170.5 40,166.7 37.5,166.7 C35,166.6 32.9,170.3 32.8,175 Z"
                        id="Path" fill="#64CC5C"/>
                    <path
                        d="M69.8,141.1 C69.7,145.7 71.7,149.5 74.2,149.5 C76.7,149.5 78.8,145.8 78.9,141.2 C79,136.6 77,132.8 74.5,132.8 C72,132.7 69.8,136.4 69.8,141.1 Z"
                        id="Path" fill="#64CC5C"/>
                    <path
                        d="M34.8,110.7 C34.7,115.3 36.7,119.1 39.2,119.1 C41.7,119.1 43.8,115.4 43.9,110.8 C44,106.2 42,102.4 39.5,102.4 C37,102.4 34.9,106.1 34.8,110.7 Z"
                        id="Path" fill="#64CC5C"/>
                    <path
                        d="M58.1,81.4 C58,86 60,89.8 62.5,89.8 C65,89.8 67.1,86.1 67.2,81.5 C67.3,76.9 65.3,73.1 62.8,73.1 C60.3,73.1 58.1,76.8 58.1,81.4 Z"
                        id="Path" fill="#64CC5C"/>
                    <path
                        d="M9.1,303.5 C9,308.1 11,311.9 13.5,311.9 C16,311.9 18.1,308.2 18.2,303.6 C18.3,299 16.3,295.2 13.8,295.2 C11.3,295.2 9.2,298.9 9.1,303.5 Z"
                        id="Path" fill="#64CC5C"/>
                    <path d="M95.7,133.1 C95.7,133.1 80.5,51.5 45.4,58.9 C10.3,66.3 16.5,109.4 18.9,143.5" id="Path"
                          stroke="#000000" stroke-width="11" stroke-linecap="round" stroke-linejoin="round"/>
                    <path
                        d="M35,48.7 C35,48.7 29.4,27.2 40.5,20.3 C41.5,21.3 56.2,36.6 52.1,43.5 C53.1,45.5 57.2,35.6 76.2,39.9 C76.2,39.9 78.3,56.1 63,62.3"
                        id="Path" stroke="#000000" stroke-width="11" stroke-linecap="round" stroke-linejoin="round"/>
                    <path d="M100.6,193.4 C100.6,193.4 99.1,144.1 92.7,120.1" id="Path" stroke="#000000"
                          stroke-width="11" stroke-linecap="round" stroke-linejoin="round"/>
                    <path d="M95.6,137.7 C95.6,137.7 101.7,63.4 125.4,53.3" id="Path" stroke="#000000" stroke-width="11"
                          stroke-linecap="round" stroke-linejoin="round"/>
                    <path
                        d="M174.2,215.7 C174.2,215.7 212.1,82.9 162.9,46.8 C164.3,45.2 186.1,46.9 189.4,29.9 C189.4,29.9 180.4,13.1 158.7,29.6 C159,28.2 168.6,18.6 156.9,0.4 C156.9,-0.6 132.3,12.9 143.2,31.6 C143.6,30.7 126.6,20.8 111.4,27.6 C112.4,27.6 114,32.3 119.1,35.6"
                        id="Path" stroke="#000000" stroke-width="11" stroke-linecap="round" stroke-linejoin="round"/>
                    <path
                        d="M104.3,246.7 C104.3,246.7 114.9,351.7 47,343.5 C-20.9,335.3 6.2,271.8 6.2,271.8 C6.2,271.8 19.2,227 20.2,192"
                        id="Path" stroke="#000000" stroke-width="11" stroke-linecap="round" stroke-linejoin="round"/>
                    <path d="M165,249.8 C165,249.8 139,402.1 65.5,372.9" id="Path" stroke="#000000" stroke-width="11"
                          stroke-linecap="round" stroke-linejoin="round"/>
                </g>
                <g id="Group" transform="translate(1304.000000, 1090.000000)">
                    <g transform="translate(0.000000, 58.000000)" id="Path">
                        <path
                            d="M222.9,52.9 L23.5,164.1 L2,125.6 C-2.8,117 1.6,105.3 11.9,99.6 L174.2,9.1 C180.4,5.6 186.9,2.7 193.6,0.4 L222.9,52.9 Z"
                            fill="#AD1010"/>
                        <path
                            d="M234.6,117.4 L72.3,207.9 C62,213.6 49.8,211.3 45,202.7 L23.5,164.2 L222.9,53 L252.2,105.5 C246.7,109.9 240.8,113.9 234.6,117.4 Z"
                            fill="#870303"/>
                    </g>
                    <path
                        d="M320.2,56.7 L222.9,111 L193.6,58.5 C204.2,54.8 215.1,52.7 226,52.2 C275.9,49.8 310,38.5 310,38.5 L320.2,56.7 Z"
                        id="Path" fill="#AD1010"/>
                    <path
                        d="M252.2,163.4 L222.9,110.9 L320.2,56.6 L330.4,74.9 C330.4,74.9 302.8,97.9 274.6,139.1 C268.4,148.2 260.8,156.4 252.2,163.4 Z"
                        id="Path" fill="#870303"/>
                    <rect id="Rectangle" fill="#491308"
                          transform="translate(348.834470, 40.561555) rotate(-29.130846) translate(-348.834470, -40.561555) "
                          x="316.034856" y="22.8117637" width="65.5992289" height="35.4995827"/>
                    <path
                        d="M386.6,44.2 C385.4,44.9 383.9,44.4 383.2,43.2 L364.8,10.2 C364.1,9 364.6,7.5 365.8,6.8 L377.1,0.5 C378.3,-0.2 379.8,0.3 380.5,1.5 L398.9,34.5 C399.6,35.7 399.1,37.2 397.9,37.9 L386.6,44.2 Z"
                        id="Path" fill="#491308"/>
                    <path
                        d="M352.2,14.3 L311.9,39.2 C311.9,39.2 268.1,48.1 254.5,49.7 C240.9,51.3 214,50.9 194.1,58.8 C174.2,66.7 21.1,152.6 21.1,152.6"
                        id="Path" stroke="#000000" stroke-width="11" stroke-linecap="round" stroke-linejoin="round"/>
                    <path
                        d="M8.3,194.8 L44.8,260.2 C44.8,260.2 51.8,275.7 71.7,267.9 C91.6,260 232.7,181.3 232.7,181.3 C232.7,181.3 273.1,150.8 287.8,125.5"
                        id="Path" stroke="#000000" stroke-width="11" stroke-linecap="round" stroke-linejoin="round"/>
                    <polyline id="Path" stroke="#000000" stroke-width="11" stroke-linecap="round"
                              stroke-linejoin="round" points="385.1 6.5 399.9 34.6 392.6 40.8 382.6 44.2 331.5 74.4"/>
                    <polygon id="Path" fill="#FFFFFF" points="151.8 89.4 200.8 188.6 119.3 230.9 62.4 137.6"/>
                </g>
                <g id="Group" transform="translate(935.000000, 969.000000)">
                    <path
                        d="M195.9,2.7 L118.6,7.2 C119,8.6 119.2,10.1 119.3,11.7 C120.1,25.2 109.8,36.8 96.3,37.6 C82.8,38.4 71.2,28.1 70.4,14.6 C70.3,13.1 70.4,11.6 70.6,10.1 L58,10.8 C57.2,18.2 51.2,24.2 43.5,24.7 C35.8,25.1 29.1,19.9 27.5,12.6 L2.3,14.1 L5,196.8 C8.4,254.4 57.8,298.4 115.4,295 C173,291.6 217,242.2 213.6,184.6 L195.9,2.7 Z"
                        id="Path" fill="#FFD56C"/>
                    <circle id="Oval" fill="#F7B634" cx="141.8" cy="53.9" r="24"/>
                    <circle id="Oval" fill="#F7B634" cx="41.9" cy="85.3" r="12.5"/>
                    <circle id="Oval" fill="#F7B634" cx="92.7" cy="131.4" r="10.5"/>
                    <circle id="Oval" fill="#F7B634" cx="78.3" cy="218.9" r="26"/>
                    <circle id="Oval" fill="#F7B634" cx="161.6" cy="152.9" r="7"/>
                    <path d="M144.3,292.2 C144.3,292.2 77.5,318.2 28.9,261.9" id="Path" stroke="#F7B634"
                          stroke-width="11"/>
                    <path d="M138.9,4 L198.8,0.5 L216.3,180.8 C216.3,180.8 223.6,271.5 139.7,293.5" id="Path"
                          stroke="#000000" stroke-width="11" stroke-linecap="round" stroke-linejoin="round"/>
                    <path
                        d="M63.5,7.9 L56.5,8.3 C56.5,8.3 54.3,21.5 43.2,21.1 C32.2,20.7 28.5,8.9 28.5,8.9 L0.5,10.5 L2.3,144.6 L2.6,183.7 C2.6,183.7 -2.5,234.1 32.4,265.1"
                        id="Path" stroke="#000000" stroke-width="11" stroke-linecap="round" stroke-linejoin="round"/>
                </g>
                <g id="Group" transform="translate(485.000000, 978.000000)">
                    <polygon id="Path" fill="#87d068" points="902.4 795.5 0.9 538 133.4 34.8 1055.7 298.2"/>
                    <polygon id="Path" fill="#87d068" opacity="0.55"
                             points="880 749.6 44.2 510.9 167 44.4 1022.1 288.6"/>
                    <path
                        d="M1062.4,334 L108.8,61.6 L125.4,3.6 C126.1,1.1 128.7,-0.4 131.2,0.4 L1075.7,270.2 C1078.2,270.9 1079.7,273.5 1078.9,276 L1062.4,334 Z"
                        id="Path" fill="#87d068"/>
                    <polygon id="Path" fill="#000000" opacity="0.13"
                             points="1032.1 376 115 114.1 123.2 65.7 1045.5 329.1"/>
                    <polyline id="Path" stroke="#0A1922" stroke-width="22" stroke-linecap="round"
                              stroke-linejoin="round" points="125.6 72 3 535.8 681 732.2"/>
                    <path d="M495,174.7 L114.6,66 L127.3,21.5 C130.1,11.6 140.5,5.8 150.4,8.6 L960.9,240.1" id="Path"
                          stroke="#0A1922" stroke-width="22" stroke-linecap="round" stroke-linejoin="round"/>
                </g>
                <path
                    d="M1473.4,234.7 C1486.7,238.8 1501.9,231.9 1510.3,217.5 C1520.4,200.1 1527.7,176.7 1534.2,142.9 C1557.2,22.5 1487.9,9.7 1487.9,9.7 C1369.9,-28.9 1230.3,73.1 1230.3,73.1 C1158.3,118.5 1106.7,133.6 1082,134.7 C1064.2,135.4 1045.4,137 1028.7,146.5 C984.8,171.4 991.6,198.9 1009.3,217.9 C1023,232.5 1042.3,240.6 1062.3,241.4 C1099.4,242.9 1186.8,243.6 1252.2,222.6 C1252.2,222.6 1326,205.7 1371.4,210.6 C1402.7,214 1448.2,227 1473.4,234.7 Z"
                    id="Path" stroke="#081922" stroke-width="5" fill="#87d068" stroke-linecap="round"/>
                <path
                    d="M1477.3,135.7 C1438,157.2 1395.7,164.9 1351.4,166.7 C1309.3,168.4 1267.4,169.1 1225.5,174.9 C1188.6,180 1151.7,188.6 1118.3,205.4 C1099.1,215.1 1081.8,227.5 1066.8,242.2 C1106.7,242.9 1188.6,241.4 1250.4,220.5 C1250.4,220.5 1324,202.5 1369.4,206.8 C1400.7,209.7 1446.4,222.1 1471.8,229.5 C1485.2,233.4 1500.3,226.3 1508.4,211.8 C1518.2,194.2 1525.2,170.7 1531.2,136.9 C1533.9,121.7 1535.1,108.2 1535.2,96.2 C1516.9,110.7 1497.9,124.4 1477.3,135.7 Z"
                    id="Path" fill="#87d068"/>
                <path
                    d="M1473.4,234.7 C1486.7,238.8 1501.9,231.9 1510.3,217.5 C1520.4,200.1 1527.7,176.7 1534.2,142.9 C1557.2,22.5 1487.9,9.7 1487.9,9.7 C1369.9,-28.9 1230.3,73.1 1230.3,73.1 C1158.3,118.5 1106.7,133.6 1082,134.7 C1064.2,135.4 1045.4,137 1028.7,146.5 C984.8,171.4 991.6,198.9 1009.3,217.9 C1023,232.5 1042.3,240.6 1062.3,241.4 C1099.4,242.9 1186.8,243.6 1252.2,222.6 C1252.2,222.6 1326,205.7 1371.4,210.6 C1402.7,214 1448.2,227 1473.4,234.7 Z"
                    id="Path" stroke="#081922" stroke-width="22" stroke-linecap="round"/>
            </g>
        </g>
    </g>
</svg>
