<?xml version="1.0" encoding="UTF-8"?>
<!DOCTYPE svg PUBLIC "-//W3C//DTD SVG 1.1//EN" "http://www.w3.org/Graphics/SVG/1.1/DTD/svg11.dtd">
<!-- Creator: CorelDRAW 2018 (64-Bit Evaluation Version) -->
<svg xmlns="http://www.w3.org/2000/svg" xml:space="preserve" width="48.3285mm" height="11.9063mm" version="1.1" style="shape-rendering:geometricPrecision; text-rendering:geometricPrecision; image-rendering:optimizeQuality; fill-rule:evenodd; clip-rule:evenodd"
viewBox="0 0 1820.18 448.42"
 xmlns:xlink="http://www.w3.org/1999/xlink">
 <defs>
  <style type="text/css">
   <![CDATA[
    .str1 {stroke:#313B4A;stroke-width:3.19;stroke-miterlimit:22.9256}
    .str0 {stroke:#313B4A;stroke-width:7.53;stroke-miterlimit:22.9256}
    .fil1 {fill:#313B4A}
    .fil3 {fill:#313B4A}
    .fil0 {fill:#313B4A;fill-rule:nonzero}
    .fil2 {fill:#313B4A;fill-rule:nonzero}
   ]]>
  </style>
 </defs>
 <g id="Layer_x0020_1">
  <metadata id="CorelCorpID_0Corel-Layer"/>
  <g id="_2685608704224">
   <path class="fil0" d="M1095.47 345.88c-25.52,-0.19 -42.1,-7.1 -42.96,-32.66l-1.01 -312.68c24.25,-0.14 42.39,6.82 42.96,29.11l0 167.6 0 35.96 1.01 112.68z"/>
   <g>
    <path class="fil1" d="M1100.87 241.63c-5.41,-5.25 -8.12,-14.08 -8.26,-23.01l-0.01 0 0 -0.36 0 -0.07 0 -0.06 0 -0.39 0 0 0 -0.15 0 -0.27 0.02 -0.43 0 -0.19 0.01 -0.25 0.02 -0.43 0.01 -0.21 0.02 -0.22 0.03 -0.43 0.02 -0.24 0.02 -0.2 0.03 -0.43 0.03 -0.26 0.02 -0.17 0.05 -0.43 0.03 -0.28 0.02 -0.15 0.05 -0.42 0.04 -0.3 0.02 -0.12 0.11 -0.75 0.01 -0.1 0.13 -0.75 0.01 -0.08 0.08 -0.41 0.02 -0.11 0.06 -0.31 0.08 -0.41 0.08 -0.38 0.01 -0.03 0.09 -0.41 0.09 -0.4 0 -0.01 0.1 -0.41 0.11 -0.4 0 -0.02 0.11 -0.38 0.12 -0.4 0.01 -0.03 0.05 -0.16 0.18 -0.59 0.02 -0.05 0.11 -0.34 0.14 -0.39 0.1 -0.3 0.03 -0.09 0.14 -0.38 0.03 -0.1 0.11 -0.28 0.14 -0.38 0.05 -0.11 0.26 -0.63 0.06 -0.13 0.11 -0.23 0.16 -0.36 0.07 -0.15 0.1 -0.21 0.17 -0.35 0.08 -0.16 0.1 -0.19 0.28 -0.52 0.09 -0.17 0.18 -0.34 0.11 -0.2 0.08 -0.14 0.32 -0.53 0.07 -0.13 0.21 -0.32 0.14 -0.22 0.07 -0.1 0.21 -0.32 0.16 -0.22 0.06 -0.09 0.23 -0.3 0.17 -0.23 0.05 -0.06 0.23 -0.29 0.2 -0.24 0.03 -0.05 0.24 -0.28 0.21 -0.25 0.03 -0.03 0.09 -0.09 0.4 -0.43 0.01 -0.02 0.26 -0.26 0.26 -0.26 109.79 -74.44c10.1,17.89 5.65,32.35 -6.27,39.65l-91.1 62.37 -3.84 -7.54 -0.05 0.05 0 0 -0.04 0.05 -0.05 0.05 -0 0 -0.04 0.05 -0.05 0.06 0 0 -0.05 0.05 -0.05 0.06 -0 0 -0.04 0.05 -0.04 0.06 -0 0.01 -0.04 0.05 -0.04 0.05 -0.01 0.01 -0.03 0.05 -0.04 0.06 -0.01 0.02 -0.03 0.05 -0.04 0.05 -0.01 0.02 -0.03 0.05 -0.04 0.06 -0.01 0.02 -0.03 0.05 -0.04 0.06 -0.01 0.01 -0.02 0.05 -0.03 0.06 -0.01 0.02 -0.02 0.05 -0.03 0.06 -0.01 0.02 -0.02 0.04 -0.03 0.06 -0.01 0.03 -0.02 0.04 -0.03 0.06 -0.01 0.02 -0.02 0.04 -0.03 0.06 -0.01 0.02 -0.02 0.05 -0.02 0.06 -0.01 0.03 -0.02 0.03 -0.03 0.06 -0.01 0.03 -0.02 0.03 -0.02 0.06 -0.01 0.03 -0.01 0.03 -0.02 0.06 -0.01 0.04 -0.01 0.03 -0.02 0.06 -0.01 0.04 -0.01 0.02 -0.02 0.06 -0.01 0.04 -0 0.03 -0.02 0.06 -0.01 0.04 -0.01 0.03 -0.02 0.06 -0.01 0.05 -0.01 0.02 -0.01 0.06 -0.01 0.04 -0 0.03 -0.01 0.06 -0.01 0.05 -0 0.02 -0.02 0.11 -0 0.02 -0.01 0.07 -0 0.05 -0 0.02 -0.01 0.06 -0 0.05 0 0.02 0 0.01c0.09,1.24 0.63,2.49 1.57,3.47l23.72 15.9 -15.37 15.92 -16.98 -11.84z"/>
    <path id="1" class="fil0" d="M1092.61 213.61l5.89 4.95 0.02 0.76 0.03 0.76 0.05 0.76 0.06 0.75 0.07 0.75 0.09 0.74 0.1 0.74 0.11 0.73 0.13 0.73 0.14 0.71 0.15 0.71 0.17 0.71 0.18 0.69 0.19 0.68 0.21 0.67 0.22 0.66 0.23 0.63 0.24 0.63 0.25 0.62 0.26 0.59 0.28 0.58 0.29 0.57 0.29 0.55 0.31 0.53 0.31 0.5 0.33 0.49 0.33 0.48 0.34 0.44 0.35 0.44 0.35 0.41 0.35 0.38 0.37 0.37 -8.87 6.61 -0.63 -0.64 -0.61 -0.66 -0.58 -0.68 -0.55 -0.69 -0.54 -0.72 -0.5 -0.72 -0.49 -0.73 -0.47 -0.76 -0.44 -0.76 -0.42 -0.78 -0.4 -0.78 -0.38 -0.79 -0.37 -0.82 -0.34 -0.82 -0.32 -0.82 -0.3 -0.85 -0.28 -0.84 -0.26 -0.85 -0.24 -0.85 -0.23 -0.87 -0.21 -0.87 -0.19 -0.88 -0.18 -0.9 -0.15 -0.89 -0.14 -0.9 -0.12 -0.9 -0.11 -0.9 -0.09 -0.91 -0.08 -0.91 -0.05 -0.91 -0.04 -0.92 -0.02 -0.92 5.89 4.95 0 -10.03zm0 0l5.82 0 0.08 4.95 -5.89 -4.95zm-0.01 10.03l-5.89 -5.01 5.89 -5.01 0.01 0 0 10.03 -0.01 0zm0 0l-5.89 0 0 -5.01 5.89 5.01zm-5.89 -5.37l11.78 0 0 0.36 -11.78 0 0 -0.36zm0 -0.07l11.78 0 0 0.07 -11.78 0 0 -0.07zm0 -0.06l11.78 0 0 0.06 -11.78 0 0 -0.06zm0 -0.39l5.89 -5.01 5.89 5.01 0 0.39 -11.78 0 0 -0.39zm0 0l0 -5.01 5.89 0 -5.89 5.01zm5.89 -5.01l5.89 5.12 -5.89 4.9 -0 0 0 -10.03 0 0zm5.89 5.12l-0.12 4.9 -5.77 0 5.89 -4.9zm-11.78 -0.37l11.78 0.17 0 0.05 -0 0.15 -11.78 -0.22 0 -0.15zm11.78 0.17l0 0.11 0 -0.06 0 -0.05zm-11.78 -0.39l0 -0.09 11.78 0.21 -0 0.27 -11.78 -0.12 0 -0.27zm0 0l0 -0.09 0 -0.06 -0 0.15zm0.02 -0.52l11.78 0.24 0 0.06 -0.02 0.43 -11.78 -0.3 0.02 -0.43zm11.78 0.24l0 0.06 -0 0.09 0 -0.15zm-11.78 -0.36l0 -0.11 11.78 0.28 -0 0.19 -11.78 -0.17 0 -0.19zm0 0l0 -0.04 0 -0.06 -0 0.11zm0.02 -0.35l11.77 0.38 0 0 -0.01 0.25 -11.77 -0.38 0.01 -0.25zm11.77 0.38l0 0 -0 0.11 0 -0.11zm-11.75 -0.81l0 -0.05 11.77 0.42 -0.02 0.43 -11.77 -0.38 0.02 -0.43zm0 0l0 -0.05 0.01 -0.18 -0.01 0.23zm0.01 -0.25l0 -0.06 11.77 0.52 -0.01 0.21 -11.77 -0.47 0.01 -0.21zm0 0l0 -0 0 -0.05 -0 0.06zm0.02 -0.28l11.77 0.55 0 0.03 -0.02 0.22 -11.77 -0.58 0.02 -0.22zm11.77 0.55l0 0.03 -0.02 0.28 0.02 -0.31zm-11.74 -0.95l0 -0.08 11.76 0.6 -0.03 0.43 -11.77 -0.53 0.03 -0.43zm0 0l0 -0.08 0 -0.05 -0.01 0.13zm0.02 -0.31l11.76 0.66 0 0.02 -0.02 0.24 -11.76 -0.68 0.02 -0.24zm11.76 0.66l0 0.02 -0.03 0.37 0.03 -0.38zm-11.74 -0.84l0 -0.02 11.76 0.66 -0.02 0.2 -11.76 -0.64 0.02 -0.2zm0 0l0 -0.02 0.03 -0.34 -0.03 0.36zm0.03 -0.44l0.01 -0.1 11.75 0.78 -0.03 0.43 -11.76 -0.68 0.03 -0.43zm0 0l0.01 -0.1 -0.02 0.15 0 -0.05zm0.04 -0.35l11.74 0.81 -0.01 0.06 -0.03 0.26 -11.74 -0.87 0.03 -0.26zm11.74 0.81l-0.01 0.06 0.02 -0.15 -0.01 0.09zm-11.74 -0.92l0.01 -0.11 11.74 0.86 -0.02 0.17 -11.75 -0.75 0.02 -0.17zm0 0l0 -0.05 0.01 -0.06 -0.01 0.11zm0.06 -0.54l11.73 0.95 -0 0.03 -0.05 0.43 -11.73 -0.97 0.05 -0.43zm11.73 0.95l-0 0.03 0.02 -0.15 -0.02 0.13zm-11.71 -1.2l0.01 -0.08 11.72 1 -0.03 0.28 -11.74 -0.92 0.03 -0.28zm0 0l0.01 -0.08 -0.02 0.12 0 -0.03zm0.03 -0.23l11.72 1.07 -0 0.01 -0.02 0.15 -11.71 -1.08 0.02 -0.15zm11.72 1.07l-0 0.01 0.09 -0.73 -0.09 0.72zm-11.67 -1.48l11.72 1.06 -0.05 0.42 -11.72 -1.06 0.05 -0.42zm0.04 -0.3l0.02 -0.11 11.71 1.17 -0.04 0.3 -11.72 -1.06 0.04 -0.3zm0 0l0.01 -0.06 0.01 -0.05 -0.02 0.11zm0.03 -0.23l11.69 1.28 -0.02 0.12 -11.69 -1.28 0.02 -0.12zm0.11 -0.75l11.71 1.11 -0.02 0.17 -0.11 0.75 -11.69 -1.28 0.11 -0.75zm11.71 1.11l-0.01 0.08 -0.02 0.09 0.02 -0.17zm-11.72 -1.04l0.04 -0.27 11.69 1.21 -0.01 0.1 -11.74 -0.94 0.01 -0.1zm0 0l0.01 -0.08 0.03 -0.18 -0.04 0.27zm0.17 -1.02l11.68 1.31 -0.03 0.16 -0.13 0.75 -11.65 -1.48 0.13 -0.75zm11.68 1.31l-0.01 0.05 -0.02 0.11 0.03 -0.16zm-11.69 -1.24l0.04 -0.23 11.67 1.38 -0.01 0.08 -11.71 -1.15 0.01 -0.08zm0 0l0.02 -0.1 0.02 -0.12 -0.04 0.23zm0.12 -0.64l0.02 -0.1 11.61 1.7 -0.08 0.41 -11.63 -1.6 0.08 -0.41zm0 0l0.02 -0.1 0 0.01 -0.02 0.09zm0.04 -0.2l11.61 1.73 -0.02 0.07 -0.02 0.11 -11.59 -1.8 0.02 -0.11zm11.61 1.73l0.01 -0.03 -0.02 0.1 0.02 -0.07zm-11.56 -1.97l0 -0.01 11.62 1.67 -0.06 0.31 -11.62 -1.66 0.06 -0.31zm0 0l0 -0.01 -0.18 0.92 0.18 -0.92zm0.09 -0.42l0.02 -0.08 11.6 1.76 -0.08 0.41 -11.62 -1.68 0.08 -0.41zm0 0l0.02 -0.08 0 0 -0.02 0.08zm0.1 -0.46l0 -0.02 11.58 1.85 -0.08 0.38 -11.59 -1.83 0.08 -0.38zm0 0l0 -0.02 -0.03 0.11 0.02 -0.09zm0.01 -0.05l0.01 -0.04 11.57 1.9 -0.01 0.03 -11.58 -1.86 0.01 -0.03zm0 0l0.01 -0.04 0.02 -0.09 -0.03 0.13zm0.1 -0.44l0.01 -0.03 11.55 1.96 -0.09 0.41 -11.56 -1.94 0.09 -0.41zm0 0l0.01 -0.03 -0.05 0.21 0.05 -0.19zm0.1 -0.42l0.11 -0.37 11.44 2.36 -0.09 0.4 -11.55 -1.99 0.09 -0.4zm0 0l0.05 -0.2 0.06 -0.17 -0.11 0.37zm0.11 -0.38l11.43 2.41 -0.09 0.32 -0 0.01 -11.34 -2.73 0 -0.01zm11.43 2.41l-0.04 0.17 -0.05 0.16 0.09 -0.32zm-11.42 -2.49l0.02 -0.06 11.51 2.14 -0.1 0.41 -11.52 -2.09 0.1 -0.41zm0 0l-0 0.01 0.02 -0.07 -0.02 0.06zm0.12 -0.46l11.51 2.14 -0.02 0.06 -0.11 0.4 -11.49 -2.2 0.11 -0.4zm11.51 2.14l0 -0.01 -0.02 0.07 0.02 -0.06zm-11.52 -2.1l0.03 -0.1 11.5 2.18 -0 0.02 -11.52 -2.09 0 -0.02zm0 0l0 -0.02 0.02 -0.08 -0.03 0.1zm0.13 -0.48l0.02 -0.07 11.45 2.35 -0.11 0.38 -11.47 -2.28 0.11 -0.38zm0 0l0.02 -0.07 0.02 -0.05 -0.03 0.12zm0.14 -0.47l0.05 -0.15 11.39 2.58 -0.12 0.4 -11.43 -2.43 0.12 -0.4zm0 0l0.02 -0.06 0.03 -0.09 -0.05 0.15zm0.06 -0.19l11.4 2.53 -0.06 0.21 -0.01 0.03 -11.34 -2.73 0.01 -0.03zm11.4 2.53l-0.03 0.09 -0.04 0.11 0.06 -0.21zm-11.42 -2.48l0.03 -0.11 11.43 2.43 -0.05 0.16 -11.46 -2.32 0.05 -0.16zm0 0l-0 0.01 0.04 -0.12 -0.03 0.11zm0.21 -0.7l0.06 -0.19 11.34 2.73 -0.18 0.59 -11.4 -2.54 0.18 -0.59zm0 0l0.05 -0.14 0.02 -0.05 -0.06 0.19zm0.08 -0.24l11.32 2.8 -0.04 0.12 -0.02 0.05 -11.28 -2.92 0.02 -0.05zm11.32 2.8l-0.04 0.12 0.04 -0.11 0 -0.01zm-11.25 -3.02l0.03 -0.09 11.33 2.77 -0.11 0.34 -11.36 -2.68 0.11 -0.34zm0 0l0.02 -0.06 0.01 -0.03 -0.03 0.09zm0.17 -0.48l11.33 2.77 -0.03 0.09 -0.14 0.39 -11.3 -2.86 0.14 -0.39zm11.33 2.77l-0.03 0.09 -0.01 0.02 0.04 -0.11zm-11.26 -2.98l0.03 -0.09 11.33 2.76 -0.1 0.3 -11.36 -2.67 0.1 -0.3zm0 0l0 0 0.03 -0.09 -0.03 0.09zm0.06 -0.17l0.04 -0.12 11.26 2.97 -0.03 0.09 -11.3 -2.85 0.03 -0.09zm0 0l0.04 -0.12 0.01 -0.02 -0.05 0.14zm0.18 -0.5l11.26 2.96 -0.05 0.13 -0.14 0.38 -11.22 -3.09 0.14 -0.38zm11.26 2.96l-0.03 0.1 -0.01 0.03 0.05 -0.13zm-11.27 -2.93l0.06 -0.15 11.25 2.98 -0.03 0.1 -11.31 -2.83 0.03 -0.1zm0 0l0.02 -0.05 0.04 -0.11 -0.06 0.15zm0.17 -0.43l11.2 3.11 -0.01 0.02 -0.11 0.28 -11.19 -3.13 0.11 -0.28zm11.2 3.11l-0.01 0.02 0.16 -0.41 -0.15 0.38zm-11.07 -3.46l0.1 -0.24 11.11 3.33 -0.14 0.38 -11.22 -3.09 0.14 -0.38zm0 0l0.03 -0.09 0.07 -0.15 -0.1 0.24zm0.15 -0.35l11.07 3.44 -0.06 0.13 -0.05 0.11 -11.01 -3.57 0.05 -0.11zm11.07 3.44l-0.06 0.13 0.03 -0.06 0.03 -0.07zm-10.87 -3.94l0.05 -0.11 11.08 3.42 -0.26 0.63 -11.13 -3.31 0.26 -0.63zm0 0l0.05 -0.11 -0 0.01 -0.04 0.1zm0.1 -0.24l0.02 -0.04 11.02 3.56 -0.06 0.13 -11.04 -3.53 0.06 -0.13zm0 0l0.02 -0.04 -0.09 0.21 0.08 -0.17zm0.12 -0.27l11.01 3.59 -0.01 0.02 -0.11 0.23 -11 -3.6 0.11 -0.23zm11.01 3.59l-0.01 0.02 0.09 -0.21 -0.09 0.2zm-10.85 -3.93l0.02 -0.05 10.99 3.62 -0.16 0.36 -11.01 -3.57 0.16 -0.36zm0 0l0 0 0.02 -0.05 -0.02 0.05zm0.09 -0.2l0.02 -0.04 10.95 3.71 -0.07 0.15 -10.97 -3.67 0.07 -0.15zm0 0l0.02 -0.04 0.01 -0.02 -0.03 0.06zm0.12 -0.26l0.02 -0.03 10.91 3.79 -0.1 0.21 -10.93 -3.75 0.1 -0.21zm0 0l0.02 -0.03 0.05 -0.1 -0.06 0.13zm0.18 -0.38l0.01 -0.02 10.89 3.83 -0.17 0.35 -10.9 -3.82 0.17 -0.35zm0 0l-0.02 0.04 0.03 -0.05 -0.01 0.02zm0.09 -0.18l0.04 -0.07 10.85 3.92 -0.08 0.16 -10.88 -3.85 0.08 -0.16zm0 0l0.04 -0.07 -0.06 0.13 0.03 -0.06zm0.14 -0.26l0.05 -0.09 10.76 4.08 -0.1 0.19 -10.81 -3.99 0.1 -0.19zm0 0l0.02 -0.05 0.02 -0.04 -0.05 0.09zm0.32 -0.61l10.74 4.12 -0.02 0.05 -0.28 0.52 -10.72 -4.17 0.28 -0.52zm10.74 4.12l-0.02 0.05 -0.04 0.08 0.06 -0.12zm-10.68 -4.24l0.03 -0.07 10.73 4.15 -0.09 0.17 -10.76 -4.08 0.09 -0.17zm0 0l0.03 -0.07 0.09 -0.16 -0.12 0.23zm0.22 -0.41l0.06 -0.1 10.64 4.32 -0.18 0.34 -10.7 -4.22 0.18 -0.34zm0 0l0.06 -0.1 -0.09 0.15 0.03 -0.05zm0.17 -0.3l0 -0 10.57 4.43 -0.11 0.2 -10.58 -4.42 0.11 -0.2zm0 0l0 -0 -0.46 0.79 0.45 -0.78zm0.09 -0.15l0.05 -0.09 10.52 4.52 -0.08 0.14 -10.57 -4.43 0.08 -0.14zm0 0l0.05 -0.09 0.03 -0.06 -0.09 0.15zm0.38 -0.63l10.55 4.46 -0.09 0.15 -0.32 0.53 -10.46 -4.62 0.32 -0.53zm10.55 4.46l-0.04 0.08 -0.05 0.08 0.09 -0.15zm-10.57 -4.44l0.17 -0.29 10.47 4.59 -0.07 0.13 -10.64 -4.31 0.07 -0.13zm0 0l0.08 -0.15 0.09 -0.14 -0.17 0.29zm0.38 -0.6l10.33 4.83 -0.03 0.05 -0.21 0.32 -10.3 -4.88 0.21 -0.32zm10.33 4.83l-0.03 0.05 -0.04 0.06 0.07 -0.11zm-10.22 -5l0.17 -0.26 10.18 5.04 -0.14 0.22 -10.36 -4.78 0.14 -0.22zm0 0l0.09 -0.15 0.08 -0.11 -0.17 0.26zm0.24 -0.35l10.11 5.16 -0.1 0.14 -0.07 0.1 -10.01 -5.3 0.07 -0.1zm10.11 5.16l-0.05 0.08 -0.05 0.06 0.1 -0.14zm-9.99 -5.33l0.06 -0.09 10.14 5.11 -0.21 0.32 -10.21 -5.02 0.21 -0.32zm0 0l0.01 -0.01 0.06 -0.08 -0.06 0.09zm0.22 -0.31l10.19 5.03 -0.11 0.17 -0.16 0.22 -10.08 -5.2 0.16 -0.22zm10.19 5.03l-0.05 0.08 -0.06 0.08 0.11 -0.17zm-10.25 -4.95l0.18 -0.26 10.12 5.13 -0.06 0.09 -10.3 -4.87 0.06 -0.09zm0 0l0.09 -0.14 0.1 -0.13 -0.18 0.26zm0.41 -0.56l9.95 5.37 -0.02 0.02 -0.23 0.3 -9.94 -5.39 0.23 -0.3zm9.95 5.37l-0.02 0.02 0.1 -0.14 -0.09 0.12zm-9.79 -5.59l0.16 -0.2 9.81 5.56 -0.17 0.23 -9.97 -5.36 0.17 -0.23zm0 0l0.06 -0.08 0.1 -0.12 -0.16 0.2zm0.21 -0.26l9.75 5.62 -0.11 0.13 -0.05 0.06 -9.65 -5.75 0.05 -0.06zm9.75 5.62l-0.05 0.06 -0.06 0.08 0.11 -0.13zm-9.63 -5.78l0.09 -0.11 9.77 5.6 -0.23 0.29 -9.86 -5.49 0.23 -0.29zm0 0l0.03 -0.04 0.06 -0.08 -0.09 0.11zm0.29 -0.36l9.81 5.56 -0.13 0.16 -0.2 0.24 -9.68 -5.72 0.2 -0.24zm9.81 5.56l-0.05 0.06 -0.08 0.1 0.13 -0.16zm-9.9 -5.44l0.22 -0.27 9.71 5.67 -0.03 0.05 -9.94 -5.39 0.03 -0.05zm0 0l0.1 -0.14 0.12 -0.14 -0.22 0.27zm0.46 -0.55l9.52 5.91 -0.03 0.03 -0.24 0.28 -9.49 -5.94 0.24 -0.28zm9.52 5.91l-0.03 0.03 0.05 -0.05 -0.02 0.02zm-9.33 -6.14l0.29 -0.31 9.26 6.19 -0.21 0.25 -9.54 -5.88 0.21 -0.25zm0 0l0.13 -0.15 0.16 -0.16 -0.29 0.31zm0.32 -0.34l9.13 6.34 -0.15 0.16 -0.03 0.03 -8.97 -6.5 0.03 -0.03zm9.13 6.34l-0.05 0.05 -0.11 0.11 0.15 -0.16zm-9.19 -6.28l0 -0 9.28 6.19 -0.09 0.09 -9.28 -6.18 0.09 -0.09zm0.4 -0.44l9.6 5.79 -0.33 0.4 -0.4 0.43 -9.27 -6.19 0.4 -0.43zm9.6 5.79l-0.16 0.21 -0.17 0.18 0.33 -0.4zm-9.92 -5.41l0.48 -0.55 9.45 5.95 -0.01 0.02 -9.94 -5.39 0.01 -0.02zm0 0l0.21 -0.29 0.27 -0.27 -0.48 0.55zm0.74 -0.81l9 6.47 -0.03 0.03 -0.26 0.26 -8.97 -6.5 0.26 -0.26zm9 6.47l-0.03 0.03 0.29 -0.29 -0.26 0.26zm-8.77 -6.71l0.84 -0.7 8.19 7.14 -0.26 0.26 -9.03 -6.45 0.26 -0.26zm0 0l0.37 -0.38 0.47 -0.32 -0.84 0.7zm110.64 -75.13l8.98 1.75 -1.64 6.09 -109.79 74.44 -7.34 -7.84 109.79 -74.44zm0 0l5.78 -3.92 3.2 5.67 -8.98 -1.75zm-6.3 39.66l0.25 -0.17 0.87 -0.56 0.83 -0.59 0.79 -0.62 0.75 -0.65 0.71 -0.68 0.67 -0.71 0.64 -0.75 0.59 -0.77 0.55 -0.81 0.5 -0.82 0.46 -0.87 0.43 -0.9 0.37 -0.92 0.34 -0.96 0.28 -0.98 0.23 -1.03 0.18 -1.06 0.13 -1.09 0.07 -1.12 0.02 -1.16 -0.05 -1.2 -0.11 -1.22 -0.17 -1.25 -0.24 -1.29 -0.3 -1.32 -0.37 -1.35 -0.44 -1.39 -0.52 -1.41 -0.59 -1.44 -0.67 -1.47 -0.75 -1.5 -0.83 -1.53 10.62 -4.34 0.98 1.81 0.9 1.79 0.81 1.78 0.72 1.77 0.64 1.74 0.55 1.73 0.47 1.71 0.38 1.7 0.31 1.67 0.23 1.66 0.14 1.64 0.06 1.6 -0.02 1.59 -0.1 1.57 -0.18 1.54 -0.26 1.5 -0.34 1.48 -0.41 1.46 -0.49 1.42 -0.56 1.39 -0.64 1.34 -0.7 1.31 -0.78 1.28 -0.85 1.23 -0.92 1.19 -0.98 1.14 -1.04 1.1 -1.1 1.05 -1.16 1.01 -1.22 0.95 -1.27 0.9 -1.32 0.85 0.25 -0.17 -7.39 -7.81zm0 0l0.15 -0.11 0.1 -0.06 -0.25 0.17zm-83.71 70.18l-9.1 -1.91 1.71 -5.9 91.1 -62.37 7.39 7.81 -91.1 62.37zm0 0l-6.03 4.12 -3.07 -6.03 9.1 1.91zm-12.94 -9.45l0.92 -5.25 9.89 1.25 3.84 7.54 -10.81 3.99 -3.84 -7.54zm0.92 -5.25l6.13 -6.13 3.76 7.38 -9.89 -1.25zm8.92 6.55l-9.39 -6.04 0.41 -0.46 0.05 -0.05 8.97 6.5 -0.05 0.05zm-9.39 -6.04l0.18 -0.23 0.23 -0.23 -0.41 0.46zm4.9 2.79l0 0 0 0 0 0 4.9 2.79 -4.9 -2.79zm-4.9 -2.79l0.18 -0.23 0.23 -0.23 -0.41 0.46zm9.76 5.63l-0.28 0.32 -9.52 -5.89 0.04 -0.05 9.8 5.57 -0.04 0.05zm0 0l-0.1 0.13 -0.18 0.19 0.28 -0.32zm-0.33 0.37l-4.62 1.91 -4.62 -8.12 0.05 -0.05 9.24 6.21 -0.05 0.05zm0 0l-1.77 1.91 -2.85 0 4.62 -1.91zm-4.62 1.91l-4.9 -7.8 4.9 -2.23 0 0 0 10.03 -0 0zm-4.9 -7.8l1.75 -2.23 3.15 0 -4.9 2.23zm9.76 5.63l-0.03 0.03 -9.77 -5.61 0.04 -0.05 9.8 5.57 -0.04 0.05zm0 0l-0.03 0.03 0.2 -0.24 -0.17 0.21zm-0.08 0.09l-10.76 -2.82 1.02 -2.82 0.05 -0.06 9.74 5.64 -0.05 0.06zm-10.76 -2.82l0 -1.54 1.02 -1.28 -1.02 2.82zm11.78 0l-1.26 3.1 -10.52 -3.1 0 -0 11.78 0 0 0zm0 0l0 1.73 -1.26 1.36 1.26 -3.1zm-1.3 3.14l-9.5 -5.92 0.24 -0.27 0.05 -0.05 9.27 6.19 -0.05 0.05zm-9.5 -5.92l0.11 -0.14 0.13 -0.14 -0.24 0.27zm9.69 5.7l-0.38 0.43 -9.36 -6.07 0.05 -0.06 9.74 5.64 -0.05 0.06zm0 0l-0.18 0.23 -0.2 0.2 0.38 -0.43zm-0.39 0.43l-9.42 -6 0.44 -0.5 0 -0 8.97 6.5 -0 0zm-9.42 -6l0.2 -0.26 0.24 -0.24 -0.44 0.5zm9.82 5.54l-9.93 -5.4 0.07 -0.09 0.04 -0.05 9.86 5.49 -0.04 0.05zm-9.93 -5.4l0.03 -0.05 0.03 -0.04 -0.07 0.09zm9.95 5.37l-10.67 -4.02 0.67 -1.29 0.04 -0.06 10 5.31 -0.04 0.06zm-10.67 -4.02l0.23 -0.69 0.44 -0.6 -0.67 1.29zm11.33 2.75l-0.86 1.53 -10.47 -4.27 0 -0.01 11.34 2.73 -0 0.01zm0 0l-0.27 0.83 -0.59 0.7 0.86 -1.53zm-0.9 1.58l-9.71 -5.69 0.09 -0.11 0.04 -0.05 9.61 5.8 -0.04 0.05zm-9.71 -5.69l0 0 0.09 -0.11 -0.09 0.11zm9.76 5.63l-10.03 -5.26 0.23 -0.31 0.04 -0.05 9.8 5.57 -0.04 0.05zm-10.03 -5.26l0.11 -0.17 0.12 -0.15 -0.23 0.31zm10.24 4.96l-10.35 -4.8 0.09 -0.15 0.01 -0.01 10.25 4.95 -0.01 0.01zm-10.35 -4.8l0.05 -0.08 0.05 -0.07 -0.09 0.15zm10.41 4.7l-0.22 0.33 -10.22 -4.98 0.03 -0.05 10.44 4.66 -0.03 0.05zm0 0l-0.09 0.15 -0.13 0.17 0.22 -0.33zm-0.26 0.38l-10.42 -4.62 0.43 -0.69 0.04 -0.06 10 5.31 -0.04 0.06zm-10.42 -4.62l0.18 -0.35 0.25 -0.34 -0.43 0.69zm10.84 3.94l-0.46 0.73 -10.39 -4.66 0.01 -0.02 10.85 3.92 -0.01 0.02zm0 0l-0.19 0.38 -0.26 0.35 0.46 -0.73zm-0.49 0.78l-10 -5.3 0.07 -0.09 0.03 -0.05 9.94 5.39 -0.03 0.05zm-10 -5.3l0.06 -0.08 0.01 -0.02 -0.07 0.09zm10.03 5.26l-10.46 -4.56 0.39 -0.64 0.04 -0.05 10.07 5.2 -0.04 0.05zm-10.46 -4.56l0.16 -0.32 0.23 -0.32 -0.39 0.64zm10.84 3.94l-0.15 0.27 -10.7 -4.19 0.01 -0.02 10.85 3.92 -0.01 0.02zm0 0l-0.06 0.11 -0.09 0.16 0.15 -0.27zm-0.17 0.31l-0.08 0.12 -10.48 -4.58 0.03 -0.05 10.55 4.46 -0.03 0.05zm0 0l-0.03 0.06 -0.04 0.07 0.08 -0.12zm-0.11 0.18l-10.78 -3.97 0.38 -0.74 0.04 -0.06 10.4 4.71 -0.04 0.06zm-10.78 -3.97l0.15 -0.38 0.23 -0.36 -0.38 0.74zm11.15 3.25l-0.3 0.61 -10.85 -3.85 0.01 -0.02 11.16 3.23 -0.01 0.02zm0 0l-0.12 0.31 -0.18 0.31 0.3 -0.61zm-0.33 0.66l-0.08 0.12 -10.48 -4.58 0.03 -0.05 10.55 4.46 -0.03 0.05zm0 0l-0.03 0.06 -0.04 0.07 0.08 -0.12zm-0.11 0.18l-0.08 0.12 -10.33 -4.83 0.04 -0.06 10.4 4.71 -0.04 0.06zm0 0l-0.08 0.12 0 0 0.08 -0.12zm-0.08 0.13l-10.55 -4.44 0.3 -0.51 0.01 -0.01 10.25 4.95 -0.01 0.01zm-10.55 -4.44l0.13 -0.26 0.17 -0.25 -0.3 0.51zm10.82 3.97l-0.18 0.32 -10.67 -4.24 0.02 -0.05 10.85 3.92 -0.02 0.05zm0 0l-0.06 0.13 -0.11 0.19 0.18 -0.32zm-0.21 0.37l-0.28 0.42 -10.21 -4.98 0.03 -0.06 10.49 4.56 -0.03 0.06zm0 0l-0.14 0.23 -0.14 0.18 0.28 -0.42zm-0.29 0.43l-10.52 -4.37 0.59 -1.02 0.01 -0.02 9.94 5.39 -0.01 0.02zm-10.52 -4.37l0.22 -0.53 0.37 -0.49 -0.59 1.02zm11.09 3.4l-0.24 0.49 -10.87 -3.84 0.02 -0.05 11.11 3.35 -0.02 0.05zm0 0l-0.1 0.24 -0.14 0.25 0.24 -0.49zm-0.27 0.55l-0.07 0.11 -10.56 -4.44 0.03 -0.06 10.63 4.33 -0.03 0.06zm0 0l0 0 -0.07 0.11 0.07 -0.11zm-0.08 0.13l-10.74 -4.09 0.25 -0.47 0.01 -0.02 10.49 4.56 -0.01 0.02zm-10.74 -4.09l0.11 -0.23 0.14 -0.24 -0.25 0.47zm10.97 3.66l-0.13 0.26 -10.86 -3.88 0.02 -0.04 10.99 3.62 -0.02 0.04zm0 0l-0.07 0.16 -0.06 0.11 0.13 -0.26zm-0.16 0.32l-10.9 -3.79 0.17 -0.35 0.03 -0.06 10.73 4.14 -0.03 0.06zm-10.9 -3.79l0.08 -0.18 0.09 -0.17 -0.17 0.35zm11.06 3.46l-0.04 0.09 -11.03 -3.53 0.01 -0.03 11.07 3.43 -0.01 0.03zm0 0l0.01 -0.02 -0.05 0.11 0.04 -0.09zm-0.06 0.13l-0.07 0.15 -10.92 -3.77 0.02 -0.04 10.99 3.62 -0.02 0.04zm0 0l-0.06 0.12 -0.02 0.03 0.07 -0.15zm-0.1 0.21l-11.09 -3.33 0.24 -0.6 0.03 -0.06 10.85 3.92 -0.03 0.06zm-11.09 -3.33l0.11 -0.32 0.14 -0.28 -0.24 0.6zm11.33 2.76l-0.04 0.12 -11.3 -2.85 0.01 -0.02 11.34 2.73 -0.01 0.02zm0 0l-0.04 0.12 -0.02 0.04 0.05 -0.16zm-0.05 0.16l-0.21 0.48 -11.05 -3.45 0.02 -0.04 11.26 2.97 -0.02 0.04zm0 0l-0.09 0.23 -0.12 0.24 0.21 -0.48zm-0.24 0.54l-0.18 0.32 -10.67 -4.24 0.03 -0.06 10.85 3.92 -0.03 0.06zm0 0l-0.06 0.13 -0.11 0.19 0.18 -0.32zm-0.19 0.34l-10.91 -3.65 0.42 -0.91 0.01 -0.02 10.49 4.56 -0.01 0.02zm-10.91 -3.65l0.16 -0.47 0.26 -0.44 -0.42 0.91zm11.32 2.78l-0.06 0.16 -11.28 -2.89 0.02 -0.05 11.34 2.73 -0.02 0.05zm0 0l-0.02 0.07 -0.03 0.09 0.06 -0.16zm-0.08 0.22l-11.22 -3.05 0.02 -0.06 11.22 3.05 -0.02 0.06zm-0.01 0.03l-0.1 0.25 -11.12 -3.3 0.01 -0.03 11.22 3.05 -0.01 0.03zm0 0l-0.05 0.13 -0.05 0.12 0.1 -0.25zm-0.12 0.28l-11.03 -3.52 0.01 -0.03 0.02 -0.03 11.02 3.55 -0.02 0.03zm-11.03 -3.52l0.01 -0.03 0.02 -0.03 -0.03 0.06zm11.02 3.56l-11.31 -2.68 0.27 -0.82 0.03 -0.06 11.04 3.5 -0.03 0.06zm-11.31 -2.68l0.09 -0.42 0.17 -0.4 -0.27 0.82zm11.57 1.89l-0.37 1.03 -11.21 -2.89 0.01 -0.03 11.58 1.86 -0.01 0.03zm0 0l-0.12 0.54 -0.24 0.49 0.37 -1.03zm-0.38 1.06l-11.07 -3.4 0.22 -0.52 0.02 -0.03 10.85 3.92 -0.02 0.03zm-11.07 -3.4l0.1 -0.28 0.12 -0.24 -0.22 0.52zm11.26 2.95l-0.03 0.08 -11.25 -2.97 0.02 -0.06 11.28 2.88 -0.02 0.06zm0 0l-0.02 0.04 -0.02 0.04 0.03 -0.08zm-0.04 0.11l-11.4 -2.46 0.18 -0.6 0.01 -0.03 11.22 3.05 -0.01 0.03zm-11.4 -2.46l0.07 -0.3 0.11 -0.29 -0.18 0.6zm11.57 1.89l-0.09 0.36 -11.48 -2.22 0.01 -0.03 11.58 1.86 -0.01 0.03zm0 0l-0.05 0.2 -0.05 0.16 0.09 -0.36zm-0.11 0.42l-11.4 -2.53 0.02 -0.05 0.02 -0.06 11.39 2.58 -0.02 0.06zm-11.4 -2.53l0.02 -0.05 -0.01 0.03 -0.01 0.02zm11.41 2.52l-0.17 0.48 -11.25 -2.96 0.01 -0.04 11.42 2.48 -0.01 0.04zm0 0l-0.08 0.25 -0.1 0.23 0.17 -0.48zm-0.18 0.5l-11.25 -2.93 0.18 -0.5 0.01 -0.03 11.07 3.43 -0.01 0.03zm-11.25 -2.93l0.08 -0.25 0.11 -0.25 -0.18 0.5zm11.42 2.5l-11.54 -1.98 0.11 -0.45 0.02 -0.06 11.43 2.43 -0.02 0.06zm-11.54 -1.98l0.04 -0.23 0.06 -0.21 -0.11 0.45zm11.64 1.58l-0.4 1.19 -11.25 -2.73 0.01 -0.04 11.65 1.54 -0.01 0.04zm0 0l-0.11 0.62 -0.29 0.57 0.4 -1.19zm-0.41 1.22l-11.2 -2.95 0.35 -0.98 0.01 -0.02 10.85 3.92 -0.01 0.02zm-11.2 -2.95l0.12 -0.51 0.23 -0.47 -0.35 0.98zm11.54 2.03l-0.07 0.26 -11.49 -2.22 0.02 -0.06 11.55 1.97 -0.02 0.06zm0 0l-0.03 0.14 -0.03 0.12 0.07 -0.26zm-0.08 0.29l-11.56 -1.85 0.14 -0.63 0.01 -0.04 11.42 2.48 -0.01 0.04zm-11.56 -1.85l0.05 -0.32 0.09 -0.31 -0.14 0.63zm11.69 1.24l-0.13 0.61 -11.57 -1.82 0 -0.03 11.7 1.21 -0 0.03zm0 0l-0.05 0.32 -0.09 0.29 0.13 -0.61zm-0.15 0.67l-11.52 -2.06 0.09 -0.38 0.02 -0.06 11.43 2.43 -0.02 0.06zm-11.52 -2.06l0.05 -0.22 0.05 -0.16 -0.09 0.38zm11.61 1.72l-0.08 0.35 -11.53 -2.03 0.01 -0.04 11.62 1.68 -0.01 0.04zm0 0l-0.04 0.19 -0.05 0.16 0.08 -0.35zm-0.09 0.37l-11.5 -2.17 0.05 -0.2 0.01 -0.03 11.45 2.37 -0.01 0.03zm-11.5 -2.17l0.03 -0.11 0.03 -0.1 -0.05 0.2zm11.54 2.03l-11.61 -1.69 0.06 -0.28 0.02 -0.06 11.55 1.97 -0.02 0.06zm-11.61 -1.69l0.02 -0.13 0.03 -0.15 -0.06 0.28zm11.66 1.45l-0.17 0.66 -11.5 -2.07 0.01 -0.05 11.67 1.41 -0.01 0.05zm0 0l-0.06 0.33 -0.11 0.33 0.17 -0.66zm-0.17 0.69l-11.49 -2.16 0.15 -0.58 0.01 -0.02 11.34 2.73 -0.01 0.02zm-11.49 -2.16l0.05 -0.28 0.1 -0.29 -0.15 0.58zm11.63 1.64l-11.64 -1.56 0 -0.02 0.01 -0.06 11.64 1.58 -0.01 0.06zm-11.64 -1.56l0 -0.02 0.01 -0.06 -0.02 0.08zm11.64 1.58l-11.67 -1.37 0.03 -0.16 0.01 -0.04 11.65 1.54 -0.01 0.04zm-11.67 -1.37l0.01 -0.08 0.02 -0.08 -0.03 0.16zm11.69 1.24l-0.02 0.14 -11.68 -1.35 0 -0.03 11.7 1.21 -0 0.03zm0 0l-0.01 0.06 -0.02 0.08 0.02 -0.14zm-0.03 0.2l-11.66 -1.45 0.01 -0.04 0.01 -0.06 11.65 1.49 -0.01 0.06zm-11.66 -1.45l0.01 -0.04 -0.01 0.06 0 -0.02zm11.66 1.45l-11.67 -1.41 0.01 -0.05 11.67 1.41 -0.01 0.05zm-0 0.02l-11.69 -1.29 0.02 -0.12 0 -0.02 11.67 1.41 -0 0.02zm-11.69 -1.29l0.02 -0.12 -0.01 0.08 -0.01 0.05zm11.69 1.28l-0.05 0.26 -11.66 -1.42 0.02 -0.11 11.71 1.17 -0.02 0.11zm0 0l-0.02 0.1 -0.03 0.16 0.05 -0.26zm-0.05 0.27l-11.68 -1.31 0.06 -0.37 0 -0.02 11.62 1.68 -0 0.02zm-11.68 -1.31l0.02 -0.15 0.04 -0.21 -0.06 0.37zm11.73 1.01l-11.75 -0.82 0.01 -0.12 0.01 -0.07 11.74 0.94 -0.01 0.07zm-11.75 -0.82l0 -0.06 0.01 -0.06 -0.01 0.12zm11.75 0.75l-0.12 0.69 -11.64 -1.4 0 -0.05 11.76 0.71 -0 0.05zm0 0l-0.03 0.34 -0.09 0.35 0.12 -0.69zm-0.12 0.7l-11.63 -1.54 0.1 -0.54 0 -0.02 11.52 2.09 -0 0.02zm-11.63 -1.54l0.03 -0.26 0.07 -0.29 -0.1 0.54zm11.72 1.07l-11.75 -0.81 0.02 -0.2 0.01 -0.06 11.73 1 -0.01 0.06zm-11.75 -0.81l0.01 -0.09 0.01 -0.11 -0.02 0.2zm11.76 0.66l-11.77 -0.31 0.01 -0.31 0 -0.05 11.77 0.61 -0 0.05zm-11.77 -0.31l0 -0.2 0.01 -0.11 -0.01 0.31zm11.78 0.02l-11.78 0 0 -0.02 11.78 0 0 0.02zm0 0.01l-11.77 0.32 -0.01 -0.32 0 -0.01 11.78 0 0 0.01zm-11.77 0.32l-0.01 -0.15 0 -0.18 0.01 0.32zm3.8 7.08l-0.92 -0.76 -0.17 -0.18 -0.16 -0.18 -0.15 -0.18 -0.15 -0.18 -0.15 -0.19 -0.14 -0.18 -0.13 -0.19 -0.13 -0.19 -0.15 -0.24 -0.1 -0.16 -0.09 -0.16 -0.09 -0.16 -0.14 -0.25 -0.12 -0.25 -0.07 -0.14 -0.08 -0.17 -0.1 -0.23 -0.1 -0.26 -0.06 -0.17 -0.06 -0.18 -0.06 -0.18 -0.08 -0.24 -0.07 -0.26 -0.03 -0.12 -0.05 -0.18 -0.06 -0.26 -0.05 -0.25 -0.03 -0.17 -0.03 -0.18 -0.03 -0.26 -0.02 -0.18 -0.02 -0.2 11.76 -0.65 0 0.03 0 0.05 -0 -0.03 0.01 0.05 0.01 0.06 -0 -0.02 -0.01 -0.03 0.02 0.05 0.03 0.12 -0.01 -0.03 -0 -0.02 0.02 0.05 0.02 0.05 0.02 0.05 -0.01 -0.03 -0 -0.01 0.03 0.05 0.04 0.08 -0.02 -0.03 -0.02 -0.04 0.03 0.05 0.03 0.05 0.03 0.05 -0.02 -0.03 0.01 0.02 0.01 0.02 0.01 0.02 0 0 0.02 0.02 0.01 0.01 0.01 0.01 0.01 0.01 -0.92 -0.76 -7.29 7.88zm0 0l-0.51 -0.34 -0.41 -0.43 0.92 0.76zm31.01 8.03l0.91 7.12 -8.2 0.76 -23.72 -15.9 7.29 -7.88 23.72 15.9zm0 0l4.73 3.17 -3.82 3.95 -0.91 -7.12zm-14.46 23.04l-8.29 0.7 -0.82 -7.06 15.37 -15.92 9.11 6.36 -15.37 15.92zm0 0l-3.74 3.87 -4.55 -3.17 8.29 -0.7zm-25.27 -11.14l-0.7 -0.58 8.17 -7.18 16.98 11.84 -7.46 7.76 -16.98 -11.84zm0 0l-0.38 -0.26 -0.32 -0.31 0.7 0.58z"/>
   </g>
   <path class="fil1" d="M1102.11 187.96c-3.49,12.06 1.02,12.68 12.57,21.81l117.01 85.13c19.35,12.51 18.14,34.35 7.19,53.53l-142.54 -103.75c-16.93,-19.69 -10.61,-49.55 5.77,-56.72z"/>
   <path class="fil0" d="M711.53 286.41c13.81,-13.57 20.76,-31.41 20.76,-53.5 0,-22.17 -6.94,-39.85 -20.76,-53.1 -13.81,-13.34 -31.01,-20.04 -51.61,-20.2 -20.52,0 -37.8,6.63 -51.76,19.96 -14.13,13.42 -21.23,31.09 -21.23,53.11 0,21.93 6.94,39.77 20.75,53.5 13.81,13.81 31.09,20.67 51.84,20.67 20.83,0 38.19,-6.79 52,-20.44zm-51.76 61.63c-32.19,0 -59.5,-10.65 -82.07,-31.96 -22.57,-21.3 -33.85,-49.08 -33.85,-83.4 0,-34.33 11.13,-62.18 33.3,-83.49 22.17,-21.31 49.55,-31.88 82.22,-31.72 32.83,0 60.29,10.65 82.46,31.96 22.33,21.46 33.53,49.24 33.53,83.25 0,34.01 -11.2,61.71 -33.61,83.17 -22.41,21.46 -49.79,32.2 -81.99,32.2z"/>
   <path class="fil0" d="M965.67 286.29c13.78,-13.54 20.71,-31.34 20.71,-53.38 0,-22.13 -6.93,-39.76 -20.71,-52.99 -13.78,-13.31 -30.94,-20 -51.5,-20.16 -20.47,0 -37.71,6.62 -51.65,19.92 -14.09,13.39 -21.18,31.02 -21.18,52.99 0,21.89 6.93,39.68 20.71,53.38 13.78,13.78 31.02,20.63 51.73,20.63 20.79,0 38.11,-6.77 51.89,-20.39zm-51.65 61.5c-32.12,0 -59.37,-10.63 -81.89,-31.89 -22.52,-21.26 -33.78,-48.97 -33.78,-83.22 0,-34.25 11.1,-62.05 33.23,-83.3 22.12,-21.26 49.44,-31.81 82.04,-31.65 32.76,0 60.15,10.63 82.28,31.89 22.28,21.42 33.46,49.13 33.46,83.07 0,33.93 -11.18,61.57 -33.54,82.99 -22.36,21.41 -49.68,32.13 -81.81,32.13z"/>
   <path class="fil0" d="M1267.04 345.88l0.62 -194.28c0.32,-26.75 18.39,-35.93 42.92,-36.2l-0.62 197.39c-0.53,24.34 -14.7,33.6 -42.92,33.08z"/>
   <path class="fil2" d="M1267.39 47.63c-5.58,-5.42 -8.33,-12.03 -8.33,-19.81 0,-7.86 2.75,-14.38 8.33,-19.81 6.21,-5.34 13.2,-8.02 21.14,-8.02 7.94,0 14.93,2.59 20.91,7.78 6.05,5.27 9.04,11.95 9.04,20.04 0,8.09 -2.99,14.78 -9.04,20.04 -5.97,5.19 -12.97,7.78 -20.91,7.78 -7.94,0 -14.93,-2.67 -21.14,-8.01z"/>
   <path class="fil0" d="M1397.23 178.54c-13.6,13.52 -20.44,31.52 -20.44,54.08 0,22.48 7.23,40.01 21.61,52.58 14.46,12.58 31.52,18.87 51.32,18.87 19.81,0 36.71,-6.61 50.62,-19.81 13.2,-13.13 19.81,-30.42 19.81,-51.87 0,-21.46 -6.92,-39.14 -20.75,-52.9 -13.91,-13.75 -31.04,-20.75 -51.24,-20.91 -20.28,-0.16 -37.26,6.52 -50.93,19.96zm-63.6 -63.13c30.34,-0.39 42.7,15.04 42.7,40.34 7.23,-12.34 17.68,-21.85 31.52,-28.45 13.52,-7.31 28.61,-10.93 45.35,-10.93 30.73,0 56.75,10.69 77.97,32.15 21.3,21.22 31.91,48.89 31.91,82.92 0,34.03 -10.53,61.62 -31.68,82.84 -21.06,21.14 -47.16,31.76 -78.2,31.76 -16.74,0 -32.07,-3.3 -46.06,-9.91 -13.91,-6.6 -24.21,-15.87 -30.81,-27.67l0 139.91c-27.57,0.77 -41.7,-5.8 -42.69,-35l-0.01 -297.96z"/>
   <path class="fil0" d="M1754.93 284.25c14.15,-13.2 21.22,-30.97 21.22,-53.36 0,-22.4 -7.39,-40.09 -22.09,-52.98 -14.78,-12.89 -32.15,-19.42 -52.11,-19.57 -20.04,0 -36.79,6.68 -50.3,20.04 -13.52,13.2 -20.28,30.5 -20.28,52.03 0,21.46 6.91,39.14 20.75,52.9 13.83,13.83 30.89,20.75 51.17,20.75 20.28,0 37.49,-6.61 51.64,-19.81zm21.72 61.63l-0.02 -38.36c-6.92,11.55 -17.37,20.83 -31.36,27.9 -13.99,7.07 -29.24,10.61 -45.9,10.61 -30.5,0 -56.98,-10.69 -79.38,-32.07 -21.62,-21.3 -32.46,-48.97 -32.46,-82.84 0,-33.95 10.69,-61.54 31.99,-82.68 21.38,-21.22 48.03,-31.91 79.94,-32.07 15.95,0 31.36,3.3 46.06,9.91 14.46,7.23 24.84,16.51 31.13,27.9 -0.62,-26.35 16.94,-38.17 43.55,-38.77l-0.62 197.79c-0.32,27.57 -15.4,32.68 -42.92,32.68z"/>
   <path class="fil0" d="M354.19 177.91c-14.69,13.04 -22.07,30.79 -22.07,53.18 0,22.39 7.07,40.14 21.13,53.33 14.14,13.2 31.34,19.8 51.53,19.8 20.27,0 37.23,-6.91 50.82,-20.74 13.83,-13.75 20.74,-31.34 20.74,-52.63 0,-21.37 -6.83,-38.72 -20.5,-52.24 -13.59,-13.51 -30.24,-20.19 -49.88,-20.03 -19.64,0 -36.92,6.44 -51.77,19.32zm-65.37 167.96l-0.06 -311.68c-0.21,-24.32 16.44,-33.24 42.89,-32.56l0 152.78c15,-25.22 40.77,-37.78 77.3,-37.78 31.81,0 58.29,10.61 79.42,31.81 21.21,20.97 31.81,48.55 31.81,82.64 0,34.01 -11,61.74 -32.91,83.03 -22,21.37 -48.23,32.05 -78.79,32.05 -16.26,0 -31.42,-3.54 -45.56,-10.61 -14.06,-7.07 -24.51,-16.34 -31.26,-27.89 -0.04,28.02 -15.81,38.83 -42.83,38.2z"/>
   <path class="fil3 str0" d="M42.03 4.84c38.53,0 86.47,28.02 86.47,82.32 0,58.96 -40.77,84.5 -86.47,84.5l65.11 -82.6 -65.11 -84.21z"/>
   <path class="fil3 str0" d="M42.03 174.5c38.53,0 86.47,28.02 86.47,82.32 0,58.96 -40.77,84.5 -86.47,84.5l65.11 -82.6 -65.11 -84.21z"/>
   <polygon class="fil3 str1" points="11.47,13.66 27.61,3.77 1.6,3.77 1.6,33.16 "/>
   <polygon class="fil3 str1" points="11.47,332.67 27.61,342.57 1.6,342.57 1.6,313.17 "/>
   <polygon class="fil3" points="191.96,175.3 236.07,45.13 104.94,175.12 235.64,306.56 "/>
  </g>
 </g>
</svg>
