<?xml version="1.0" encoding="UTF-8"?>
<!DOCTYPE svg PUBLIC "-//W3C//DTD SVG 1.1//EN" "http://www.w3.org/Graphics/SVG/1.1/DTD/svg11.dtd">
<!-- Creator: CorelDRAW 2018 (64-Bit Evaluation Version) -->
<svg xmlns="http://www.w3.org/2000/svg" xml:space="preserve" width="96.6147mm" height="23.8125mm" version="1.1" style="shape-rendering:geometricPrecision; text-rendering:geometricPrecision; image-rendering:optimizeQuality; fill-rule:evenodd; clip-rule:evenodd"
viewBox="0 0 5196.29 1280.72"
 xmlns:xlink="http://www.w3.org/1999/xlink">
 <defs>
  <style type="text/css">
   <![CDATA[
    .str1 {stroke:#313B4A;stroke-width:4.56;stroke-miterlimit:22.9256}
    .str0 {stroke:#313B4A;stroke-width:10.76;stroke-miterlimit:22.9256}
    .fil1 {fill:#313B4A}
    .fil3 {fill:#313B4A}
    .fil0 {fill:#313B4A;fill-rule:nonzero}
    .fil2 {fill:#313B4A;fill-rule:nonzero}
   ]]>
  </style>
 </defs>
 <g id="Layer_x0020_1">
  <metadata id="CorelCorpID_0Corel-Layer"/>
  <g id="_2685471981360">
   <path class="fil0" d="M3126.47 987.85c-72.89,-0.56 -120.25,-20.28 -122.71,-93.29l-2.86 -893.05c69.25,-0.41 121.07,19.49 122.7,83.15l0 478.67 0 102.7 2.87 321.82z"/>
   <g>
    <path class="fil1" d="M3141.88 690.12c-15.45,-15.01 -23.19,-40.22 -23.58,-65.71l-0.02 0 0 -1.03 0 -0.2 0 -0.18 0 -1.11 0.01 0 0.01 -0.41 0.01 -0.77 0.04 -1.22 0.02 -0.54 0.03 -0.7 0.05 -1.23 0.04 -0.6 0.04 -0.63 0.08 -1.22 0.05 -0.68 0.04 -0.56 0.1 -1.22 0.08 -0.74 0.04 -0.48 0.13 -1.22 0.09 -0.8 0.05 -0.42 0.16 -1.2 0.11 -0.86 0.05 -0.35 0.32 -2.13 0.04 -0.3 0.38 -2.16 0.03 -0.23 0.22 -1.18 0.06 -0.3 0.17 -0.87 0.24 -1.19 0.24 -1.09 0.02 -0.1 0.26 -1.17 0.27 -1.12 0.01 -0.04 0.29 -1.16 0.3 -1.15 0.01 -0.04 0.3 -1.1 0.34 -1.13 0.03 -0.1 0.13 -0.46 0.52 -1.68 0.05 -0.16 0.31 -0.95 0.39 -1.11 0.28 -0.86 0.09 -0.25 0.4 -1.09 0.1 -0.27 0.31 -0.81 0.41 -1.07 0.13 -0.31 0.75 -1.81 0.16 -0.37 0.3 -0.66 0.47 -1.04 0.19 -0.41 0.28 -0.61 0.49 -1 0.23 -0.46 0.28 -0.55 0.79 -1.49 0.25 -0.48 0.53 -0.97 0.32 -0.55 0.24 -0.41 0.93 -1.53 0.2 -0.36 0.6 -0.9 0.39 -0.62 0.2 -0.29 0.61 -0.89 0.45 -0.65 0.17 -0.24 0.64 -0.86 0.49 -0.67 0.15 -0.18 0.65 -0.84 0.57 -0.69 0.1 -0.13 0.69 -0.8 0.61 -0.73 0.09 -0.08 0.25 -0.27 1.14 -1.24 0.03 -0.04 0.74 -0.73 0.74 -0.75 313.59 -212.6c28.85,51.11 16.14,92.39 -17.92,113.24l-260.19 178.12 -10.98 -21.54 -0.14 0.16 0 0 -0.12 0.15 -0.14 0.16 -0.01 0 -0.12 0.15 -0.13 0.16 0 0.02 -0.12 0.14 -0.12 0.16 -0.02 0.01 -0.1 0.14 -0.12 0.16 -0.02 0.03 -0.1 0.13 -0.12 0.16 -0.02 0.03 -0.09 0.14 -0.11 0.16 -0.03 0.04 -0.09 0.12 -0.11 0.16 -0.02 0.04 -0.08 0.13 -0.11 0.17 -0.02 0.05 -0.08 0.13 -0.1 0.17 -0.03 0.03 -0.06 0.13 -0.1 0.17 -0.03 0.04 -0.06 0.13 -0.09 0.17 -0.04 0.05 -0.05 0.12 -0.09 0.16 -0.03 0.08 -0.06 0.12 -0.08 0.17 -0.03 0.08 -0.04 0.11 -0.09 0.17 -0.03 0.06 -0.04 0.12 -0.07 0.17 -0.03 0.09 -0.05 0.1 -0.07 0.17 -0.03 0.1 -0.04 0.09 -0.06 0.18 -0.03 0.09 -0.03 0.09 -0.05 0.17 -0.03 0.11 -0.03 0.08 -0.05 0.19 -0.03 0.11 -0.03 0.07 -0.05 0.18 -0.03 0.11 -0.02 0.08 -0.05 0.18 -0.03 0.11 -0.02 0.08 -0.04 0.18 -0.02 0.12 -0.02 0.07 -0.03 0.18 -0.02 0.12 -0.02 0.06 -0.03 0.18 -0.02 0.13 -0.01 0.07 -0.04 0.31 -0.01 0.05 -0.02 0.19 -0.02 0.13 -0.01 0.05 -0.02 0.18 -0.01 0.16 0 0.04 0 0.02c0.27,3.54 1.79,7.11 4.49,9.91l67.75 45.43 -43.89 45.46 -48.5 -33.81z"/>
    <path id="1" class="fil0" d="M3118.3 610.08l16.83 14.14 0.05 2.16 0.09 2.18 0.13 2.16 0.17 2.14 0.21 2.14 0.25 2.13 0.29 2.11 0.32 2.08 0.37 2.08 0.4 2.05 0.44 2.03 0.47 2 0.51 1.96 0.55 1.94 0.59 1.9 0.62 1.88 0.66 1.84 0.69 1.8 0.72 1.73 0.76 1.72 0.79 1.67 0.82 1.61 0.84 1.57 0.87 1.51 0.9 1.47 0.93 1.4 0.94 1.34 0.97 1.3 0.99 1.24 1 1.16 1.02 1.11 1.04 1.05 -25.32 18.87 -1.81 -1.82 -1.74 -1.88 -1.67 -1.94 -1.59 -1.98 -1.52 -2.02 -1.46 -2.07 -1.39 -2.11 -1.32 -2.15 -1.26 -2.18 -1.2 -2.22 -1.14 -2.26 -1.08 -2.28 -1.02 -2.31 -0.97 -2.37 -0.9 -2.36 -0.86 -2.39 -0.8 -2.41 -0.75 -2.44 -0.7 -2.47 -0.65 -2.49 -0.59 -2.5 -0.55 -2.52 -0.49 -2.53 -0.45 -2.55 -0.4 -2.57 -0.35 -2.57 -0.3 -2.58 -0.25 -2.59 -0.21 -2.61 -0.15 -2.6 -0.11 -2.59 -0.06 -2.62 16.83 14.14 0 -28.65zm0 0l16.61 0 0.22 14.14 -16.83 -14.14zm-0.02 28.65l-16.83 -14.32 16.83 -14.32 0.02 0 0 28.65 -0.02 0zm0 0l-16.83 0 0 -14.32 16.83 14.32zm-16.83 -15.35l33.66 0 0 1.03 -33.66 0 0 -1.03zm0 -0.2l33.66 0 0 0.2 -33.66 0 0 -0.2zm0 -0.18l33.66 0 0 0.18 -33.66 0 0 -0.18zm0 -1.11l16.83 -14.32 16.83 14.32 0 1.11 -33.66 0 0 -1.11zm0 0l0 -14.32 16.83 0 -16.83 14.32zm16.84 -14.32l16.82 14.64 -16.82 14.01 -0.01 0 0 -28.65 0.01 0zm16.82 14.64l-0.37 14.01 -16.46 0 16.82 -14.01zm-33.64 -1.05l33.65 0.49 -0.01 0.15 -0.01 0.41 -33.65 -0.63 0.01 -0.41zm33.65 0.49l-0.01 0.15 0.01 -0.28 0 0.13zm-33.65 -1.11l0.01 -0.26 33.65 0.6 -0.01 0.77 -33.66 -0.34 0.01 -0.77zm0 0l0 -0.18 0.01 -0.08 -0.01 0.26zm0.05 -1.48l33.65 0.79 0 0.07 -0.04 1.22 -33.65 -0.86 0.04 -1.22zm33.65 0.79l0 0.07 -0.01 0.38 0.01 -0.45zm-33.63 -1.26l0.01 -0.2 33.64 0.92 -0.02 0.54 -33.65 -0.72 0.02 -0.54zm0 0l0.01 -0.23 0 0.03 -0.01 0.2zm0.04 -0.9l33.64 1.04 0 0.08 -0.03 0.7 -33.64 -1.12 0.03 -0.7zm33.64 1.04l0 0.08 -0.02 0.48 0.02 -0.56zm-33.59 -2.18l0.01 -0.28 33.63 1.24 -0.05 1.23 -33.64 -0.96 0.05 -1.23zm0 0l0.01 -0.29 0 0.01 -0.01 0.28zm0.05 -0.88l0.01 -0.08 33.61 1.59 -0.04 0.6 -33.61 -1.52 0.04 -0.6zm0 0l0.01 -0.08 -0.01 0.11 0 -0.04zm0.05 -0.7l33.61 1.59 -0.01 0.08 -0.04 0.63 -33.6 -1.67 0.04 -0.63zm33.61 1.59l0 0.02 -0.01 0.06 0.01 -0.08zm-33.54 -2.73l0.02 -0.21 33.6 1.72 -0.08 1.22 -33.61 -1.51 0.08 -1.22zm0 0l0 -0.03 0.02 -0.18 -0.02 0.21zm0.07 -0.89l33.59 1.78 -0.01 0.15 -0.05 0.68 -33.58 -1.93 0.05 -0.68zm33.59 1.78l-0.01 0.15 0.01 -0.08 0.01 -0.06zm-33.57 -2.19l0.02 -0.2 33.59 1.83 -0.04 0.56 -33.6 -1.64 0.04 -0.56zm0 0l0 -0.03 0.02 -0.17 -0.02 0.2zm0.12 -1.42l0.02 -0.23 33.55 2.26 -0.1 1.22 -33.57 -2.03 0.1 -1.22zm0 0l0.01 -0.09 0.02 -0.14 -0.02 0.23zm0.1 -0.96l33.54 2.32 -0.02 0.16 -0.08 0.74 -33.53 -2.48 0.08 -0.74zm33.54 2.32l0 0.03 -0.02 0.13 0.02 -0.16zm-33.52 -2.65l0.03 -0.26 33.53 2.43 -0.04 0.48 -33.56 -2.16 0.04 -0.48zm0 0l0.03 -0.26 -0.02 0.16 -0.01 0.1zm0.16 -1.48l0.01 -0.04 33.5 2.73 -0.13 1.22 -33.51 -2.69 0.13 -1.22zm0 0l0.01 -0.04 -0.04 0.35 0.03 -0.31zm0.1 -0.84l33.5 2.76 0 0 -0.09 0.8 -33.5 -2.76 0.09 -0.8zm0.05 -0.42l0.02 -0.19 33.47 2.95 -0.05 0.42 -33.5 -2.76 0.05 -0.42zm0 0l0.02 -0.19 0 0.01 -0.02 0.18zm0.18 -1.39l33.46 3.09 -0.01 0.05 -0.16 1.2 -33.45 -3.14 0.16 -1.2zm33.46 3.09l-0.01 0.05 -0.03 0.19 0.03 -0.24zm-33.36 -3.9l0.05 -0.34 33.42 3.38 -0.11 0.86 -33.46 -3.04 0.11 -0.86zm0 0l0.02 -0.13 0.03 -0.2 -0.05 0.34zm0.1 -0.69l33.38 3.66 -0.01 0.06 -0.05 0.35 -33.37 -3.72 0.05 -0.35zm33.38 3.66l-0.01 0.06 0.06 -0.4 -0.05 0.34zm-33.07 -5.73l33.43 3.35 -0.04 0.26 -0.32 2.13 -33.39 -3.6 0.32 -2.13zm33.43 3.35l-0.01 0.04 -0.03 0.22 0.04 -0.26zm-33.43 -3.38l0.09 -0.56 33.38 3.65 -0.04 0.3 -33.46 -3.09 0.04 -0.3zm0 0l0.03 -0.25 0.05 -0.31 -0.09 0.56zm0.46 -2.72l33.36 3.79 -0.06 0.41 -0.38 2.16 -33.29 -4.21 0.38 -2.16zm33.36 3.79l-0.03 0.22 -0.03 0.19 0.06 -0.41zm-33.39 -3.61l0.09 -0.55 33.33 3.93 -0.03 0.23 -33.42 -3.38 0.03 -0.23zm0 0l0.04 -0.25 0.05 -0.3 -0.09 0.55zm0.31 -1.74l0.08 -0.37 33.16 4.86 -0.22 1.18 -33.24 -4.49 0.22 -1.18zm0 0l0.03 -0.18 0.04 -0.19 -0.08 0.37zm0.14 -0.67l33.14 4.99 -0.05 0.24 -0.06 0.3 -33.09 -5.23 0.06 -0.3zm33.14 4.99l0.01 -0.05 -0.06 0.29 0.05 -0.24zm-33.02 -5.62l0.02 -0.08 33.18 4.82 -0.17 0.87 -33.2 -4.74 0.17 -0.87zm0 0l0.02 -0.08 -0.04 0.21 0.03 -0.13zm0.26 -1.26l0.03 -0.16 33.13 5.06 -0.24 1.19 -33.16 -4.89 0.24 -1.19zm0 0l0.03 -0.16 0.01 -0.04 -0.04 0.2zm0.27 -1.25l0.02 -0.05 33.08 5.27 -0.24 1.09 -33.1 -5.22 0.24 -1.09zm0 0l0.02 -0.05 -0.23 1.01 0.21 -0.95zm0.04 -0.15l0.01 -0.04 33.06 5.36 -0.02 0.1 -33.07 -5.32 0.02 -0.1zm0 0l0.01 -0.04 0.19 -0.83 -0.19 0.87zm0.27 -1.2l0.05 -0.23 33 5.63 -0.26 1.17 -33.06 -5.4 0.26 -1.17zm0 0l0.02 -0.08 0.04 -0.15 -0.05 0.23zm0.33 -1.34l0.12 -0.46 32.82 6.31 -0.27 1.12 -32.95 -5.85 0.27 -1.12zm0 0l0.04 -0.17 0.08 -0.29 -0.12 0.46zm0.13 -0.49l32.82 6.32 -0.12 0.44 -0.01 0.04 -32.7 -6.77 0.01 -0.04zm32.82 6.32l-0.05 0.19 -0.07 0.25 0.12 -0.44zm-32.65 -7.04l0.05 -0.18 32.89 6.07 -0.29 1.16 -32.94 -5.88 0.29 -1.16zm0 0l0.05 -0.18 -0.05 0.2 0.01 -0.02zm0.35 -1.33l32.88 6.1 -0.04 0.15 -0.3 1.15 -32.84 -6.25 0.3 -1.15zm32.88 6.1l-0.01 0.04 -0.03 0.1 0.04 -0.15zm-32.9 -6l0.06 -0.26 32.85 6.22 -0.01 0.04 -32.92 -5.96 0.01 -0.04zm0 0l0.06 -0.26 0.02 -0.06 -0.08 0.32zm0.37 -1.37l0.08 -0.29 32.71 6.77 -0.3 1.1 -32.79 -6.49 0.3 -1.1zm0 0l0.05 -0.17 0.03 -0.11 -0.08 0.29zm0.42 -1.42l32.73 6.66 -0.11 0.4 -0.34 1.13 -32.63 -7.06 0.34 -1.13zm32.73 6.66l-0.11 0.4 0.02 -0.08 0.09 -0.32zm-32.81 -6.36l0.1 -0.34 32.74 6.6 -0.03 0.1 -32.84 -6.26 0.03 -0.1zm0 0l0.04 -0.15 0.06 -0.2 -0.1 0.34zm0.23 -0.8l0.04 -0.15 32.6 7.1 -0.13 0.46 -32.65 -6.95 0.13 -0.46zm0 0l0.04 -0.15 0.03 -0.09 -0.07 0.24zm0.56 -1.83l0.13 -0.41 32.43 7.66 -0.52 1.68 -32.56 -7.25 0.52 -1.68zm0 0l0.05 -0.18 0.08 -0.23 -0.13 0.41zm0.19 -0.56l32.38 7.82 -0.09 0.25 -0.05 0.16 -32.29 -8.07 0.05 -0.16zm32.38 7.82l-0.09 0.25 0.1 -0.28 -0.01 0.03zm-32.16 -8.52l0.1 -0.3 32.36 7.87 -0.31 0.95 -32.46 -7.57 0.31 -0.95zm0 0l0.1 -0.3 -0.09 0.25 -0.02 0.04zm0.49 -1.4l32.34 7.92 -0.08 0.24 -0.39 1.11 -32.26 -8.16 0.39 -1.11zm32.34 7.92l-0.08 0.24 0.02 -0.07 0.06 -0.17zm-32.14 -8.54l0.16 -0.46 32.26 8.14 -0.28 0.86 -32.42 -7.68 0.28 -0.86zm0 0l0.1 -0.31 0.05 -0.15 -0.16 0.46zm0.25 -0.7l0.01 -0.02 32.1 8.61 -0.09 0.25 -32.11 -8.59 0.09 -0.25zm0 0l0.01 -0.02 0.12 -0.34 -0.13 0.35zm0.41 -1.1l32.17 8.43 -0.07 0.19 -0.4 1.09 -32.1 -8.63 0.4 -1.09zm32.17 8.43l-0.04 0.11 -0.03 0.09 0.07 -0.19zm-32.14 -8.51l0.12 -0.33 32.11 8.57 -0.1 0.27 -32.24 -8.24 0.1 -0.27zm0 0l0.03 -0.08 0.1 -0.25 -0.12 0.33zm0.44 -1.14l0.01 -0.03 31.98 8.93 -0.31 0.81 -31.99 -8.9 0.31 -0.81zm0 0l0.01 -0.03 0.23 -0.58 -0.24 0.61zm0.42 -1.1l0.22 -0.53 31.75 9.49 -0.41 1.07 -31.97 -8.96 0.41 -1.07zm0 0l0.08 -0.2 0.14 -0.32 -0.22 0.53zm0.35 -0.83l31.64 9.76 -0.11 0.25 -0.13 0.31 -31.53 -10.01 0.13 -0.31zm31.64 9.76l-0.05 0.13 -0.05 0.12 0.11 -0.25zm-31 -11.32l0.09 -0.22 31.66 9.72 -0.75 1.81 -31.74 -9.51 0.75 -1.81zm0 0l0.09 -0.22 0.06 -0.14 -0.15 0.35zm0.25 -0.59l0.06 -0.12 31.51 10.06 -0.16 0.37 -31.57 -9.94 0.16 -0.37zm0 0l0.06 -0.12 -0.19 0.44 0.13 -0.31zm0.35 -0.79l0.01 -0.01 31.45 10.2 -0.3 0.66 -31.45 -10.19 0.3 -0.66zm0 0l0.01 -0.01 -0.19 0.44 0.19 -0.42zm0.47 -1.05l0.09 -0.19 31.36 10.4 -0.47 1.04 -31.44 -10.21 0.47 -1.04zm0 0l0.09 -0.19 -0.04 0.09 -0.05 0.1zm0.28 -0.6l31.32 10.47 -0.05 0.11 -0.19 0.41 -31.27 -10.58 0.19 -0.41zm31.32 10.47l-0.05 0.11 0.09 -0.2 -0.04 0.09zm-31.1 -10.97l0.15 -0.32 31.23 10.68 -0.28 0.61 -31.38 -10.36 0.28 -0.61zm0 0l0.1 -0.22 0.05 -0.1 -0.15 0.32zm0.64 -1.32l0.08 -0.16 31 11.17 -0.49 1 -31.08 -11 0.49 -1zm0 0l0.03 -0.06 0.05 -0.1 -0.08 0.16zm0.31 -0.62l0.02 -0.04 30.89 11.36 -0.23 0.46 -30.91 -11.33 0.23 -0.46zm0 0l0.02 -0.04 -0.32 0.63 0.3 -0.59zm0.3 -0.59l0.1 -0.19 30.77 11.6 -0.28 0.55 -30.87 -11.4 0.28 -0.55zm0 0l0.1 -0.19 0.05 -0.09 -0.15 0.29zm0.89 -1.68l30.74 11.66 -0.06 0.13 -0.79 1.49 -30.68 -11.79 0.79 -1.49zm30.74 11.66l-0.06 0.13 -0.09 0.16 0.15 -0.29zm-30.56 -12.01l0.16 -0.31 30.65 11.84 -0.25 0.48 -30.81 -11.53 0.25 -0.48zm0 0l0.11 -0.22 0.05 -0.09 -0.16 0.31zm0.69 -1.27l0.15 -0.25 30.34 12.4 -0.53 0.97 -30.48 -12.14 0.53 -0.97zm0 0l0.02 -0.04 0.12 -0.22 -0.15 0.25zm0.46 -0.8l0 -0.01 30.19 12.66 -0.32 0.55 -30.19 -12.65 0.32 -0.55zm0.24 -0.41l0.14 -0.23 30.05 12.89 -0.24 0.41 -30.19 -12.66 0.24 -0.41zm0 0l0.01 -0.01 0.13 -0.22 -0.14 0.23zm1.06 -1.76l30.11 12.78 -0.2 0.34 -0.93 1.53 -29.91 -13.12 0.93 -1.53zm30.11 12.78l-0.09 0.16 -0.11 0.18 0.2 -0.34zm-30.11 -12.81l0.49 -0.8 29.82 13.24 -0.2 0.36 -30.31 -12.45 0.2 -0.36zm0 0l0.22 -0.39 0.27 -0.4 -0.49 0.8zm1.09 -1.7l29.52 13.75 -0.18 0.29 -0.6 0.9 -29.33 -14.04 0.6 -0.9zm29.52 13.75l-0.1 0.16 -0.09 0.13 0.18 -0.29zm-29.31 -14.09l0.41 -0.62 29.29 14.09 -0.39 0.62 -29.7 -13.47 0.39 -0.62zm0 0l0.2 -0.32 0.22 -0.3 -0.41 0.62zm0.62 -0.91l28.96 14.58 -0.09 0.13 -0.2 0.29 -28.87 -14.72 0.2 -0.29zm28.96 14.58l-0.09 0.13 -0.04 0.05 0.13 -0.19zm-28.44 -15.34l0.07 -0.11 28.98 14.55 -0.61 0.89 -29.05 -14.45 0.61 -0.89zm0 0l0.07 -0.11 0.21 -0.3 -0.28 0.4zm0.52 -0.75l28.97 14.58 -0.06 0.09 -0.45 0.65 -28.91 -14.66 0.45 -0.65zm28.97 14.58l-0.06 0.1 0.01 -0.01 0.06 -0.09zm-28.87 -14.73l0.32 -0.45 28.71 14.94 -0.17 0.24 -29.03 -14.49 0.17 -0.24zm0 0l0.13 -0.19 0.19 -0.25 -0.32 0.45zm0.96 -1.3l28.46 15.29 -0.07 0.09 -0.64 0.86 -28.39 -15.38 0.64 -0.86zm28.46 15.29l-0.07 0.09 0.16 -0.21 -0.09 0.12zm-28.03 -15.87l0.48 -0.62 28.04 15.82 -0.49 0.67 -28.53 -15.2 0.49 -0.67zm0 0l0.22 -0.29 0.27 -0.33 -0.48 0.62zm0.63 -0.8l27.85 16.07 -0.29 0.37 -0.15 0.18 -27.56 -16.44 0.15 -0.18zm27.85 16.07l-0.16 0.2 -0.13 0.16 0.29 -0.37zm-27.49 -16.55l0.28 -0.35 27.86 16.06 -0.65 0.84 -28.14 -15.7 0.65 -0.84zm0 0l0.18 -0.24 0.1 -0.12 -0.28 0.35zm0.85 -1.05l27.98 15.91 -0.4 0.51 -0.57 0.69 -27.58 -16.41 0.57 -0.69zm27.98 15.91l-0.18 0.24 -0.22 0.26 0.4 -0.51zm-28.28 -15.53l0.63 -0.79 27.74 16.19 -0.1 0.13 -28.38 -15.4 0.1 -0.13zm0 0l0.29 -0.39 0.34 -0.4 -0.63 0.79zm1.32 -1.58l27.22 16.85 -0.11 0.13 -0.69 0.8 -27.11 -16.97 0.69 -0.8zm27.22 16.85l-0.11 0.13 0.17 -0.19 -0.05 0.06zm-26.72 -17.44l1.2 -1.27 26.13 17.99 -0.61 0.73 -27.33 -16.72 0.61 -0.73zm0 0l0.56 -0.67 0.64 -0.6 -1.2 1.27zm1.29 -1.35l25.71 18.45 -0.79 0.8 -0.09 0.08 -24.92 -19.25 0.09 -0.08zm25.71 18.45l-0.4 0.44 -0.39 0.37 0.79 -0.8zm-26.26 -17.92l26.52 17.64 -0.01 0.01 -0.25 0.27 -26.5 -17.65 0.25 -0.27zm26.52 17.64l-0.01 0.01 0.36 -0.39 -0.35 0.38zm-25.39 -18.87l28.12 15.54 -1.6 2.09 -1.14 1.24 -26.53 -17.63 1.14 -1.24zm28.12 15.54l-0.69 1.1 -0.91 0.99 1.6 -2.09zm-29.69 -13.49l2.12 -2.64 27.6 16.08 -0.03 0.04 -29.72 -13.45 0.03 -0.04zm0 0l0.88 -1.41 1.24 -1.23 -2.12 2.64zm2.86 -3.36l25.67 18.52 -0.19 0.19 -0.74 0.73 -25.47 -18.72 0.74 -0.73zm25.67 18.52l-0.08 0.08 -0.12 0.11 0.19 -0.19zm-25.12 -19.08l2.44 -2.03 23.42 20.36 -0.74 0.75 -25.86 -18.33 0.74 -0.75zm0 0l1.1 -1.12 1.34 -0.91 -2.44 2.03zm316.03 -214.63l25.65 5 -4.68 17.4 -313.59 212.6 -20.98 -22.4 313.59 -212.6zm0 0l16.51 -11.19 9.14 16.19 -25.65 -5zm-17.97 113.28l0.72 -0.46 2.49 -1.6 2.38 -1.69 2.26 -1.77 2.16 -1.86 2.04 -1.94 1.92 -2.03 1.81 -2.12 1.69 -2.2 1.58 -2.3 1.45 -2.37 1.33 -2.47 1.2 -2.55 1.08 -2.64 0.94 -2.74 0.8 -2.82 0.66 -2.93 0.52 -3.02 0.36 -3.1 0.21 -3.21 0.04 -3.3 -0.13 -3.4 -0.3 -3.49 -0.48 -3.58 -0.67 -3.69 -0.86 -3.76 -1.06 -3.86 -1.26 -3.95 -1.47 -4.03 -1.69 -4.12 -1.91 -4.21 -2.14 -4.29 -2.36 -4.36 30.33 -12.4 2.8 5.16 2.55 5.13 2.31 5.08 2.06 5.03 1.82 4.99 1.58 4.93 1.35 4.9 1.1 4.84 0.87 4.78 0.63 4.73 0.4 4.66 0.17 4.6 -0.06 4.54 -0.29 4.47 -0.51 4.39 -0.74 4.31 -0.95 4.22 -1.18 4.15 -1.39 4.05 -1.6 3.96 -1.82 3.85 -2.02 3.75 -2.23 3.64 -2.41 3.51 -2.61 3.39 -2.79 3.27 -2.97 3.14 -3.15 3.01 -3.31 2.86 -3.47 2.72 -3.63 2.57 -3.77 2.43 0.72 -0.46 -21.09 -22.32zm0 0l0.34 -0.23 0.38 -0.23 -0.72 0.46zm-239.09 200.44l-25.99 -5.46 4.89 -16.86 260.19 -178.12 21.09 22.32 -260.19 178.12zm0 0l-17.2 11.78 -8.79 -17.24 25.99 5.46zm-36.97 -27l2.06 -14.38 28.82 2.99 10.98 21.54 -30.88 11.39 -10.98 -21.54zm2.06 -14.38l17.4 -19.42 11.42 22.41 -28.82 -2.99zm26.62 17.53l-27.18 -16.89 0.41 -0.48 0.14 -0.16 26.76 17.37 -0.14 0.16zm-27.18 -16.89l0.22 -0.26 0.2 -0.22 -0.41 0.48zm13.8 8.2l0 0 0 0 0 0 13.8 8.2 -13.8 -8.2zm-13.8 -8.2l0.22 -0.26 0.2 -0.22 -0.41 0.48zm27.47 16.55l-0.41 0.48 -27.18 -16.89 0.12 -0.15 27.59 16.4 -0.12 0.15zm0 0l-0.22 0.26 -0.2 0.22 0.41 -0.48zm-0.55 0.64l-13.38 5.64 -13.38 -23.01 0.14 -0.16 26.76 17.37 -0.14 0.16zm0 0l-5.06 5.64 -8.33 0 13.38 -5.64zm-13.39 5.64l-13.62 -22.73 13.62 -5.92 0.01 0 0 28.65 -0.01 0zm-13.62 -22.73l5.04 -5.92 8.58 0 -13.62 5.92zm27.12 16.96l-0.05 0.06 -27.19 -16.88 0.12 -0.15 27.25 16.81 -0.12 0.15zm0 0l-0.05 0.06 -0.1 0.12 0.16 -0.18zm-0.19 0.22l-30.4 -8.47 3.26 -8.47 0.13 -0.16 27.14 16.94 -0.13 0.16zm-30.4 -8.47l0 -4.69 3.26 -3.78 -3.26 8.47zm33.66 0.02l-3.38 8.61 -30.27 -8.61 0 -0.02 33.66 0 0 0.02zm0 0l0 4.79 -3.38 3.82 3.38 -8.61zm-3.51 8.75l-27.54 -16.44 0.65 -0.79 0.12 -0.14 26.89 17.22 -0.12 0.14zm-27.54 -16.44l0.29 -0.37 0.37 -0.41 -0.65 0.79zm28.07 15.81l-3.72 3.45 -24.48 -19.1 0.12 -0.16 28.19 15.65 -0.12 0.16zm0 0l-1.52 1.98 -2.19 1.46 3.72 -3.45zm-3.73 3.46l-24.67 -18.84 3.91 -3.71 0.02 -0.01 20.76 22.55 -0.02 0.01zm-24.67 -18.84l1.58 -2.15 2.33 -1.56 -3.91 3.71zm28.48 15.26l-0.02 0.02 -28.56 -15.15 0.1 -0.14 28.58 15.12 -0.1 0.14zm0 0l-0.02 0.02 0.12 -0.16 -0.1 0.14zm-0.13 0.18l-29.26 -14.1 0.72 -1.07 0.12 -0.16 28.55 15.17 -0.12 0.16zm-29.26 -14.1l0.31 -0.52 0.4 -0.55 -0.72 1.07zm29.96 13.05l-1.03 1.49 -28.95 -14.52 0.02 -0.03 29.98 13.03 -0.02 0.03zm0 0l-0.46 0.76 -0.58 0.73 1.03 -1.49zm-1.13 1.62l-28.05 -15.83 0.14 -0.18 0.1 -0.13 27.91 16.01 -0.1 0.13zm-28.05 -15.83l0.14 -0.18 -0.12 0.15 -0.02 0.03zm28.07 15.81l-0.19 0.23 -28.01 -15.88 0.12 -0.16 28.19 15.65 -0.12 0.16zm0 0l-0.19 0.23 0.26 -0.33 -0.08 0.1zm-0.21 0.26l-28.82 -14.7 1 -1.41 0.02 -0.03 27.82 16.11 -0.02 0.03zm-28.82 -14.7l0.44 -0.71 0.56 -0.7 -1 1.41zm29.73 13.42l-0.45 0.69 -29.37 -13.97 0.09 -0.14 29.82 13.28 -0.09 0.14zm0 0l-0.22 0.35 -0.23 0.33 0.45 -0.69zm-0.56 0.85l-29.32 -14.05 0.4 -0.61 0.11 -0.16 28.91 14.66 -0.11 0.16zm-29.32 -14.05l0.18 -0.3 0.22 -0.31 -0.4 0.61zm29.69 13.49l-0.61 0.9 -29.11 -14.35 0.03 -0.04 29.72 13.45 -0.03 0.04zm0 0l-0.3 0.48 -0.31 0.42 0.61 -0.9zm-0.7 1.03l-28.88 -14.69 0.39 -0.56 0.09 -0.12 28.49 15.25 -0.09 0.12zm-28.88 -14.69l0.24 -0.36 0.15 -0.2 -0.39 0.56zm29.16 14.3l-29.77 -13.33 0.5 -0.81 0.11 -0.16 29.27 14.13 -0.11 0.16zm-29.77 -13.33l0.23 -0.4 0.27 -0.41 -0.5 0.81zm30.25 12.56l-0.15 0.25 -30.12 -12.77 0.02 -0.04 30.27 12.52 -0.02 0.04zm0 0l-0.13 0.23 -0.02 0.03 0.15 -0.25zm-0.23 0.39l-0.24 0.38 -29.74 -13.4 0.08 -0.13 29.98 13.03 -0.08 0.13zm0 0l-0.08 0.14 -0.16 0.24 0.24 -0.38zm-0.34 0.54l-30.94 -10.8 1.44 -2.98 0.11 -0.17 29.51 13.78 -0.11 0.17zm-30.94 -10.8l0.52 -1.56 0.91 -1.42 -1.44 2.98zm32.36 7.87l-1.33 2.81 -31.05 -10.63 0.02 -0.05 32.38 7.82 -0.02 0.05zm0 0l-0.49 1.47 -0.84 1.34 1.33 -2.81zm-1.41 2.94l-29.88 -13.18 0.16 -0.26 0.08 -0.13 29.72 13.45 -0.08 0.13zm-29.88 -13.18l0.06 -0.11 0.1 -0.16 -0.16 0.26zm29.94 13.09l-1.3 1.82 -28.75 -14.74 0.1 -0.17 30.04 12.92 -0.1 0.17zm0 0l-0.55 0.93 -0.74 0.89 1.3 -1.82zm-1.32 1.86l-29.31 -13.7 1.86 -2.87 0.03 -0.03 27.45 16.57 -0.03 0.03zm-29.31 -13.7l0.73 -1.51 1.13 -1.36 -1.86 2.87zm31.1 10.97l-0.49 0.93 -30.67 -11.76 0.06 -0.13 31.16 10.83 -0.06 0.13zm0 0l-0.2 0.42 -0.29 0.51 0.49 -0.93zm-0.59 1.09l-0.7 1.1 -29.47 -13.78 0.1 -0.17 30.17 12.68 -0.1 0.17zm0 0l-0.34 0.59 -0.36 0.51 0.7 -1.1zm-0.73 1.13l-30.14 -12.46 1.38 -2.41 0.03 -0.04 28.76 14.88 -0.03 0.04zm-30.14 -12.46l0.56 -1.27 0.82 -1.15 -1.38 2.41zm31.46 10.18l-0.51 1.03 -31.01 -11.08 0.06 -0.13 31.52 10.05 -0.06 0.13zm0 0l-0.23 0.51 -0.29 0.52 0.51 -1.03zm-0.6 1.2l-0.79 1.27 -29.7 -13.39 0.09 -0.17 30.5 12.11 -0.09 0.17zm0 0l-0.37 0.67 -0.42 0.6 0.79 -1.27zm-0.83 1.33l-30.35 -12.04 1.44 -2.62 0.04 -0.05 28.91 14.66 -0.04 0.05zm-30.35 -12.04l0.56 -1.38 0.87 -1.25 -1.44 2.62zm31.74 9.53l-0.74 1.51 -31.05 -10.92 0.05 -0.12 31.79 9.41 -0.05 0.12zm0 0l-0.31 0.76 -0.42 0.75 0.74 -1.51zm-0.83 1.67l-31.26 -10.38 0.95 -2.05 0.09 -0.16 30.31 12.43 -0.09 0.16zm-31.26 -10.38l0.37 -1.04 0.58 -1.02 -0.95 2.05zm32.18 8.4l-0.62 1.44 -31.59 -9.77 0.03 -0.08 32.21 8.33 -0.03 0.08zm0 0l-0.26 0.72 -0.36 0.73 0.62 -1.44zm-0.68 1.56l-31.04 -11.06 0.08 -0.15 0.06 -0.12 30.97 11.21 -0.06 0.12zm-31.04 -11.06l0 0 0.08 -0.15 -0.08 0.15zm31.04 11.07l-31.66 -9.62 0.54 -1.29 0.08 -0.17 31.12 10.91 -0.08 0.17zm-31.66 -9.62l0.23 -0.64 0.31 -0.65 -0.54 1.29zm32.18 8.4l-0.1 0.25 -32.11 -8.58 0.03 -0.08 32.21 8.33 -0.03 0.08zm0 0l-0.1 0.25 0.1 -0.27 -0.01 0.02zm-0.14 0.37l-0.6 1.34 -31.41 -10.18 0.04 -0.11 32.01 8.83 -0.04 0.11zm0 0l-0.27 0.72 -0.32 0.63 0.6 -1.34zm-0.68 1.51l-30.89 -11.36 0.08 -0.16 0.09 -0.17 30.82 11.52 -0.09 0.17zm-30.89 -11.36l0.08 -0.16 0.09 -0.17 -0.16 0.32zm30.94 11.27l-31.78 -9.2 0.81 -2.01 0.03 -0.06 30.97 11.21 -0.03 0.06zm-31.78 -9.2l0.31 -1.02 0.49 -0.99 -0.81 2.01zm32.54 7.31l-0.44 1.22 -32.14 -8.41 0.04 -0.12 32.58 7.19 -0.04 0.12zm0 0l-0.19 0.62 -0.25 0.6 0.44 -1.22zm-0.51 1.39l-32.11 -8.49 0.41 -1.13 0.07 -0.17 31.7 9.63 -0.07 0.17zm-32.11 -8.49l0.18 -0.58 0.23 -0.56 -0.41 1.13zm32.5 7.44l-0.66 1.67 -31.87 -9.03 0.03 -0.09 32.53 7.36 -0.03 0.09zm0 0l-0.26 0.84 -0.39 0.83 0.66 -1.67zm-0.7 1.77l-31.46 -10.17 0.24 -0.54 0.05 -0.1 31.22 10.7 -0.05 0.1zm-31.46 -10.17l0.1 -0.24 0.15 -0.3 -0.24 0.54zm31.63 9.79l-32.27 -7.94 0.57 -1.68 0.07 -0.17 31.7 9.63 -0.07 0.17zm-32.27 -7.94l0.23 -0.87 0.34 -0.81 -0.57 1.68zm32.81 6.36l-0.65 1.87 -32.19 -8.13 0.03 -0.1 32.84 6.26 -0.03 0.1zm0 0l-0.25 0.95 -0.4 0.91 0.65 -1.87zm-0.69 1.95l-31.89 -9.12 0.35 -0.88 0.04 -0.09 31.54 9.99 -0.04 0.09zm-31.89 -9.12l0.14 -0.4 0.21 -0.47 -0.35 0.88zm32.17 8.42l-32.24 -8.24 0.06 -0.18 32.24 8.24 -0.06 0.18zm-0.03 0.09l-32.44 -7.59 0.2 -0.65 0.03 -0.09 32.24 8.24 -0.03 0.09zm-32.44 -7.59l0.12 -0.4 0.09 -0.25 -0.2 0.65zm32.62 7.04l-0.06 0.2 -32.59 -7.15 0.03 -0.09 32.65 6.95 -0.03 0.09zm0 0l-0.06 0.2 -0.02 0.05 0.08 -0.26zm-0.11 0.38l-32.57 -7.22 0.04 -0.13 0.05 -0.17 32.53 7.36 -0.05 0.17zm-32.57 -7.22l-0.03 0.08 0.07 -0.22 -0.04 0.13zm32.58 7.2l-0.49 1.36 -32.12 -8.45 0.03 -0.11 32.61 7.09 -0.03 0.11zm0 0l-0.2 0.69 -0.29 0.67 0.49 -1.36zm-0.53 1.44l-32.25 -7.97 0.63 -1.84 0.03 -0.08 31.62 9.81 -0.03 0.08zm-32.25 -7.97l0.24 -0.94 0.39 -0.9 -0.63 1.84zm32.83 6.31l-32.9 -6.04 0.02 -0.08 0.05 -0.19 32.88 6.12 -0.05 0.19zm-32.9 -6.04l0.02 -0.08 0.15 -0.56 -0.16 0.65zm32.89 6.07l-0.46 1.47 -32.45 -7.43 0.03 -0.11 32.92 5.96 -0.03 0.11zm0 0l-0.19 0.77 -0.27 0.7 0.46 -1.47zm-0.49 1.54l-32.41 -7.6 0.42 -1.31 0.03 -0.07 31.99 8.91 -0.03 0.07zm-32.41 -7.6l0.18 -0.69 0.24 -0.61 -0.42 1.31zm32.78 6.48l-32.87 -6.13 0.04 -0.17 0.05 -0.18 32.83 6.29 -0.05 0.18zm-32.87 -6.13l0.04 -0.17 -0.02 0.09 -0.02 0.08zm32.89 6.07l-33.01 -5.55 0.1 -0.41 0.03 -0.11 32.92 5.96 -0.03 0.11zm-33.01 -5.55l0.03 -0.15 0.06 -0.26 -0.1 0.41zm33.09 5.22l-0.16 0.67 -32.95 -5.81 0.02 -0.08 33.11 5.14 -0.02 0.08zm0 0l-0.08 0.35 -0.09 0.32 0.16 -0.67zm-0.21 0.84l-32.89 -6.08 0.1 -0.39 0.05 -0.18 32.79 6.48 -0.05 0.18zm-32.89 -6.08l0.03 -0.14 0.07 -0.25 -0.1 0.39zm32.96 5.8l-0.09 0.32 -32.9 -6.01 0.03 -0.11 32.99 5.69 -0.03 0.11zm0 0l0 0 -0.09 0.32 0.09 -0.32zm-0.11 0.4l-32.97 -5.71 0.15 -0.62 0.02 -0.08 32.82 6.34 -0.02 0.08zm-32.97 -5.71l0.06 -0.29 0.09 -0.33 -0.15 0.62zm33.08 5.27l-33.21 -4.64 0.09 -0.45 0.04 -0.18 33.12 5.09 -0.04 0.18zm-33.21 -4.64l0.04 -0.23 0.05 -0.22 -0.09 0.45zm33.27 4.32l-0.37 1.53 -32.93 -5.72 0.02 -0.12 33.29 4.2 -0.02 0.12zm0 0l-0.13 0.78 -0.23 0.75 0.37 -1.53zm-0.39 1.6l-32.91 -5.81 0.35 -1.44 0.02 -0.07 32.56 7.25 -0.02 0.07zm-32.91 -5.81l0.13 -0.73 0.22 -0.7 -0.35 1.44zm33.23 4.56l-33.26 -4.38 0.03 -0.18 33.26 4.38 -0.03 0.18zm-0.02 0.12l-0.17 0.79 -33.09 -5.17 0.02 -0.12 33.26 4.38 -0.02 0.12zm0 0l-0.07 0.38 -0.1 0.41 0.17 -0.79zm-0.19 0.86l-33.16 -4.76 0.24 -1.2 0.02 -0.06 32.92 5.96 -0.02 0.06zm-33.16 -4.76l0.08 -0.56 0.16 -0.64 -0.24 1.2zm33.37 3.74l-0.03 0.15 -33.37 -3.71 0.03 -0.18 33.4 3.56 -0.03 0.18zm0 0l-0.03 0.15 0.06 -0.37 -0.03 0.22zm-0.05 0.29l-33.36 -3.79 0.01 -0.07 0.02 -0.13 33.35 3.86 -0.02 0.13zm-33.36 -3.79l0.01 -0.07 0 0 -0.01 0.07zm33.36 3.79l-33.4 -3.53 0.03 -0.19 0.01 -0.07 33.37 3.72 -0.01 0.07zm-33.4 -3.53l0.03 -0.19 -0.05 0.35 0.02 -0.16zm33.39 3.65l-0.18 0.99 -33.25 -4.33 0.04 -0.31 33.43 3.33 -0.04 0.31zm0 0l-0.06 0.45 -0.12 0.54 0.18 -0.99zm-0.19 1.04l-33.28 -4.05 0.22 -1.27 0.01 -0.05 33.07 5.32 -0.01 0.05zm-33.28 -4.05l0.07 -0.63 0.15 -0.65 -0.22 1.27zm33.47 2.96l-0.02 0.13 -33.48 -2.9 0.02 -0.19 33.5 2.78 -0.02 0.19zm0 0l0 0 -0.02 0.13 0.02 -0.13zm-0.03 0.26l-0.2 1.15 -33.27 -4.18 0.02 -0.13 33.46 3.03 -0.02 0.13zm0 0l-0.07 0.57 -0.13 0.58 0.2 -1.15zm-0.21 1.19l-33.31 -3.76 0.25 -1.56 0.01 -0.05 33.07 5.32 -0.01 0.05zm-33.31 -3.76l0.07 -0.75 0.18 -0.81 -0.25 1.56zm33.54 2.38l-33.58 -1.94 0.02 -0.26 0.02 -0.18 33.56 2.21 -0.02 0.18zm-33.58 -1.94l0.01 -0.11 0.02 -0.15 -0.02 0.26zm33.59 1.83l-33.63 -0.84 0.03 -0.84 0.01 -0.16 33.6 1.68 -0.01 0.16zm-33.63 -0.84l0 -0.45 0.03 -0.39 -0.03 0.84zm33.66 0.04l-33.66 0 0 -0.04 33.66 0 0 0.04zm0 0.02l-33.62 0.93 -0.04 -0.93 0 -0.02 33.66 0 0 0.02zm-33.62 0.93l-0.04 -0.49 0 -0.43 0.04 0.93zm10.86 20.23l-2.6 -2.17 -0.49 -0.52 -0.45 -0.5 -0.39 -0.45 -0.48 -0.58 -0.46 -0.59 -0.37 -0.49 -0.38 -0.53 -0.37 -0.54 -0.39 -0.59 -0.31 -0.49 -0.33 -0.55 -0.33 -0.59 -0.32 -0.59 -0.3 -0.6 -0.23 -0.48 -0.24 -0.52 -0.26 -0.61 -0.25 -0.61 -0.24 -0.62 -0.21 -0.59 -0.17 -0.53 -0.17 -0.54 -0.17 -0.6 -0.16 -0.6 -0.15 -0.61 -0.11 -0.54 -0.13 -0.62 -0.1 -0.61 -0.09 -0.54 -0.08 -0.61 -0.07 -0.62 -0.05 -0.59 33.58 -1.85 0.01 0.08 0.01 0.03 0.01 0.06 0.02 0.12 0.01 0.04 0.01 0.05 0.03 0.12 0.01 0.04 0.01 0.05 0.02 0.05 0.03 0.12 0.04 0.11 0.02 0.05 0.01 0.03 0.01 0.02 0.02 0.02 0.05 0.11 0.07 0.15 0.01 0.03 0.01 0.02 0.02 0.03 0.04 0.05 0.05 0.1 0 0 0.04 0.05 0.03 0.04 0.06 0.08 -0.02 -0.02 -0.02 -0.03 0.08 0.1 0.04 0.04 0.01 0.01 -2.6 -2.17 -20.84 22.49zm0 0l-1.44 -0.96 -1.16 -1.2 2.6 2.17zm88.58 22.93l2.59 20.34 -23.42 2.16 -67.75 -45.43 20.84 -22.49 67.75 45.43zm0 0l13.49 9.05 -10.9 11.29 -2.59 -20.34zm-41.31 65.79l-23.67 1.99 -2.34 -20.17 43.89 -45.46 26.01 18.18 -43.89 45.46zm0 0l-10.67 11.05 -13 -9.06 23.67 -1.99zm-72.17 -31.82l-2 -1.65 23.33 -20.51 48.5 33.81 -21.33 22.16 -48.5 -33.81zm0 0l-1.06 -0.74 -0.93 -0.9 2 1.65z"/>
   </g>
   <path class="fil1" d="M3145.42 536.84c-9.97,34.43 2.92,36.22 35.91,62.3l334.18 243.13c55.26,35.73 51.82,98.1 20.53,152.89l-407.1 -296.32c-48.34,-56.25 -30.31,-141.54 16.48,-162z"/>
   <path class="fil0" d="M2029.92 817.99c39.44,-38.76 59.27,-89.69 59.27,-152.8 0,-63.33 -19.83,-113.82 -59.27,-151.68 -39.44,-38.08 -88.58,-57.24 -147.4,-57.69 -58.6,0 -107.95,18.93 -147.84,57.02 -40.34,38.32 -60.62,88.8 -60.62,151.68 0,62.65 19.83,113.59 59.27,152.8 39.44,39.44 88.8,59.05 148.07,59.05 59.5,0 109.08,-19.38 148.52,-58.38zm-147.85 176.02c-91.95,0 -169.93,-30.43 -234.39,-91.28 -64.46,-60.85 -96.69,-140.18 -96.69,-238.22 0,-98.04 31.78,-177.59 95.11,-238.44 63.32,-60.85 141.53,-91.05 234.84,-90.6 93.76,0 172.18,30.43 235.51,91.28 63.79,61.3 95.78,140.63 95.78,237.77 0,97.13 -32,176.24 -96.01,237.54 -64,61.3 -142.21,91.96 -234.16,91.96z"/>
   <path class="fil0" d="M2755.73 817.66c39.35,-38.68 59.14,-89.5 59.14,-152.47 0,-63.19 -19.79,-113.56 -59.14,-151.34 -39.35,-38 -88.38,-57.12 -147.07,-57.57 -58.47,0 -107.71,18.89 -147.51,56.89 -40.25,38.23 -60.5,88.6 -60.5,151.35 0,62.51 19.79,113.33 59.14,152.47 39.35,39.35 88.6,58.92 147.75,58.92 59.37,0 108.84,-19.34 148.19,-58.25zm-147.52 175.63c-91.75,0 -169.56,-30.36 -233.87,-91.08 -64.32,-60.71 -96.48,-139.87 -96.48,-237.69 0,-97.83 31.71,-177.2 94.9,-237.92 63.18,-60.72 141.22,-90.85 234.32,-90.4 93.55,0 171.8,30.36 234.99,91.08 63.64,61.16 95.57,140.32 95.57,237.24 0,96.92 -31.93,175.85 -95.8,237.01 -63.86,61.17 -141.9,91.75 -233.64,91.75z"/>
   <path class="fil0" d="M3616.49 987.85l1.76 -554.87c0.91,-76.4 52.53,-102.63 122.58,-103.38l-1.76 563.76c-1.51,69.53 -41.98,95.96 -122.58,94.49z"/>
   <path class="fil2" d="M3617.46 136.04c-15.94,-15.5 -23.79,-34.35 -23.79,-56.57 0,-22.44 7.86,-41.07 23.79,-56.57 17.74,-15.26 37.72,-22.9 60.39,-22.9 22.67,0 42.65,7.41 59.71,22.22 17.29,15.04 25.82,34.12 25.82,57.24 0,23.12 -8.53,42.2 -25.82,57.25 -17.05,14.81 -37.04,22.22 -59.71,22.22 -22.68,0 -42.65,-7.63 -60.39,-22.9z"/>
   <path class="fil0" d="M3988.31 509.91c-38.84,38.61 -58.37,90.01 -58.37,154.45 0,64.2 20.65,114.26 61.73,150.17 41.31,35.92 90.02,53.88 146.59,53.88 56.56,0 104.83,-18.86 144.56,-56.57 37.71,-37.49 56.57,-86.88 56.57,-148.15 0,-61.29 -19.76,-111.8 -59.27,-151.08 -39.73,-39.28 -88.67,-59.26 -146.36,-59.71 -57.92,-0.45 -106.41,18.63 -145.47,57.02zm-181.66 -180.3c86.66,-1.1 121.95,42.96 121.95,115.21 20.65,-35.24 50.51,-62.41 90.02,-81.27 38.61,-20.88 81.71,-31.2 129.52,-31.2 87.77,0 162.08,30.53 222.69,91.81 60.83,60.61 91.14,139.63 91.14,236.84 0,97.19 -30.09,175.98 -90.47,236.59 -60.16,60.38 -134.69,90.7 -223.36,90.7 -47.81,0 -91.58,-9.43 -131.54,-28.29 -39.73,-18.86 -69.14,-45.34 -88,-79.02l0 399.58c-78.73,2.19 -119.09,-16.56 -121.93,-99.96l-0.02 -851z"/>
   <path class="fil0" d="M5009.93 811.84c40.41,-37.71 60.61,-88.45 60.61,-152.42 0,-63.99 -21.1,-114.49 -63.08,-151.31 -42.2,-36.81 -91.81,-55.44 -148.83,-55.89 -57.24,0 -105.06,19.08 -143.67,57.24 -38.61,37.71 -57.91,87.1 -57.91,148.61 0,61.28 19.75,111.79 59.26,151.07 39.51,39.51 88.22,59.27 146.14,59.27 57.91,0 107.08,-18.86 147.48,-56.57zm62.02 176.01l-0.06 -109.57c-19.75,33.01 -49.62,59.49 -89.57,79.69 -39.96,20.21 -83.51,30.31 -131.1,30.31 -87.1,0 -162.75,-30.54 -226.72,-91.59 -61.74,-60.83 -92.71,-139.85 -92.71,-236.6 0,-96.98 30.53,-175.78 91.36,-236.16 61.06,-60.6 137.16,-91.13 228.3,-91.58 45.57,0 89.57,9.43 131.54,28.28 41.31,20.65 70.94,47.14 88.9,79.69 -1.77,-75.24 48.39,-109.02 124.4,-110.72l-1.77 564.92c-0.9,78.73 -43.99,93.33 -122.57,93.33z"/>
   <path class="fil0" d="M1009.31 508.12c-41.96,37.24 -63.04,87.95 -63.04,151.88 0,63.94 20.19,114.64 60.35,152.34 40.38,37.69 89.51,56.53 147.17,56.53 57.88,0 106.34,-19.74 145.16,-59.23 39.48,-39.26 59.23,-89.52 59.23,-150.31 0,-61.03 -19.52,-110.61 -58.55,-149.2 -38.82,-38.59 -86.38,-57.66 -142.47,-57.21 -56.09,0 -105.45,18.4 -147.85,55.19zm-186.71 479.73l-0.18 -890.17c-0.6,-69.45 46.94,-94.94 122.5,-93l0 436.36c42.85,-72.02 116.44,-107.91 220.76,-107.91 90.86,0 166.47,30.29 226.82,90.86 60.58,59.9 90.86,138.65 90.86,236.02 0,97.14 -31.41,176.34 -94,237.14 -62.82,61.03 -137.76,91.54 -225.03,91.54 -46.44,0 -89.74,-10.1 -130.12,-30.29 -40.16,-20.2 -69.99,-46.67 -89.29,-79.65 -0.12,80.04 -45.16,110.9 -122.32,109.11z"/>
   <path class="fil3 str0" d="M117.75 13.82c110.04,0 246.97,80.03 246.97,235.1 0,168.39 -116.45,241.33 -246.97,241.33l185.97 -235.92 -185.97 -240.51z"/>
   <path class="fil3 str0" d="M117.75 498.39c110.04,0 246.97,80.02 246.97,235.1 0,168.39 -116.45,241.33 -246.97,241.33l185.97 -235.92 -185.97 -240.51z"/>
   <polygon class="fil3 str1" points="30.47,39.03 76.58,10.75 2.28,10.75 2.28,94.71 "/>
   <polygon class="fil3 str1" points="30.47,950.12 76.58,978.4 2.28,978.4 2.28,894.44 "/>
   <polygon class="fil3" points="545.96,500.66 671.94,128.89 297.43,500.16 670.72,875.55 "/>
  </g>
 </g>
</svg>
