<?xml version="1.0" encoding="UTF-8"?>
<!DOCTYPE svg PUBLIC "-//W3C//DTD SVG 1.1//EN" "http://www.w3.org/Graphics/SVG/1.1/DTD/svg11.dtd">
<!-- Creator: CorelDRAW 2018 (64-Bit Evaluation Version) -->
<svg xmlns="http://www.w3.org/2000/svg" xml:space="preserve" width="48.3285mm" height="11.9063mm" version="1.1" style="shape-rendering:geometricPrecision; text-rendering:geometricPrecision; image-rendering:optimizeQuality; fill-rule:evenodd; clip-rule:evenodd"
viewBox="0 0 1972.49 485.95"
 xmlns:xlink="http://www.w3.org/1999/xlink">
 <defs>
  <style type="text/css">
   <![CDATA[
    .str1 {stroke:white;stroke-width:3.46;stroke-miterlimit:22.9256}
    .str0 {stroke:white;stroke-width:8.16;stroke-miterlimit:22.9256}
    .fil1 {fill:white}
    .fil0 {fill:white;fill-rule:nonzero}
   ]]>
  </style>
 </defs>
 <g id="Layer_x0020_1">
  <metadata id="CorelCorpID_0Corel-Layer"/>
  <g id="_2685444386496">
   <g>
    <path class="fil0" d="M1187.14 374.82c-27.66,-0.21 -45.62,-7.69 -46.56,-35.4l-1.09 -338.85c26.28,-0.16 45.94,7.4 46.56,31.55l0 181.62 0 38.97 1.09 122.1z"/>
    <g>
     <path class="fil1" d="M1192.98 261.85c-5.86,-5.69 -8.8,-15.26 -8.95,-24.93l-0.01 0 0 -0.39 0 -0.07 0 -0.07 0 -0.42 0 0 0 -0.16 0 -0.29 0.02 -0.47 0 -0.2 0.01 -0.27 0.02 -0.47 0.01 -0.22 0.02 -0.24 0.03 -0.46 0.02 -0.26 0.02 -0.22 0.04 -0.46 0.03 -0.28 0.02 -0.18 0.05 -0.47 0.03 -0.3 0.02 -0.16 0.06 -0.46 0.04 -0.33 0.02 -0.13 0.12 -0.81 0.01 -0.11 0.14 -0.82 0.01 -0.09 0.09 -0.45 0.02 -0.11 0.07 -0.33 0.09 -0.45 0.09 -0.41 0.01 -0.04 0.1 -0.44 0.1 -0.43 0 -0.01 0.11 -0.44 0.11 -0.43 0 -0.02 0.11 -0.42 0.13 -0.43 0.01 -0.04 0.05 -0.18 0.2 -0.64 0.02 -0.06 0.12 -0.36 0.15 -0.42 0.11 -0.33 0.03 -0.09 0.16 -0.41 0.04 -0.11 0.12 -0.31 0.16 -0.41 0.05 -0.12 0.28 -0.69 0.06 -0.14 0.11 -0.25 0.18 -0.39 0.07 -0.16 0.11 -0.23 0.18 -0.38 0.09 -0.18 0.11 -0.21 0.3 -0.56 0.09 -0.18 0.2 -0.37 0.12 -0.21 0.09 -0.16 0.35 -0.58 0.08 -0.14 0.22 -0.34 0.15 -0.24 0.08 -0.11 0.23 -0.34 0.17 -0.24 0.06 -0.09 0.24 -0.33 0.19 -0.25 0.06 -0.07 0.24 -0.32 0.22 -0.27 0.04 -0.05 0.26 -0.3 0.23 -0.27 0.03 -0.03 0.09 -0.1 0.43 -0.47 0.01 -0.02 0.28 -0.28 0.28 -0.29 118.98 -80.67c10.95,19.39 6.12,35.06 -6.8,42.97l-98.72 67.58 -4.16 -8.17 -0.06 0.06 0 0 -0.04 0.06 -0.05 0.06 -0 0 -0.04 0.06 -0.05 0.06 0 0 -0.05 0.05 -0.05 0.06 -0 0 -0.04 0.05 -0.04 0.06 -0 0.01 -0.04 0.05 -0.04 0.06 -0.01 0.01 -0.03 0.05 -0.04 0.06 -0.01 0.02 -0.04 0.05 -0.04 0.06 -0.01 0.02 -0.03 0.05 -0.04 0.07 -0.01 0.02 -0.03 0.05 -0.04 0.07 -0.01 0.01 -0.02 0.05 -0.04 0.06 -0.01 0.02 -0.02 0.05 -0.04 0.07 -0.01 0.02 -0.02 0.04 -0.03 0.06 -0.01 0.03 -0.02 0.04 -0.03 0.07 -0.01 0.02 -0.02 0.04 -0.03 0.07 -0.01 0.02 -0.02 0.05 -0.02 0.07 -0.01 0.03 -0.02 0.04 -0.03 0.07 -0.01 0.04 -0.02 0.03 -0.02 0.07 -0.01 0.03 -0.01 0.04 -0.02 0.07 -0.01 0.04 -0.01 0.03 -0.02 0.07 -0.01 0.04 -0.01 0.02 -0.02 0.07 -0.01 0.04 -0 0.03 -0.02 0.07 -0.01 0.04 -0.01 0.03 -0.02 0.07 -0.01 0.05 -0.01 0.02 -0.01 0.07 -0.01 0.04 -0 0.03 -0.01 0.07 -0.01 0.05 -0 0.02 -0.02 0.12 -0 0.02 -0.01 0.07 -0 0.05 -0 0.02 -0.01 0.07 -0 0.06 0 0.02 0 0.01c0.1,1.34 0.68,2.7 1.7,3.76l25.7 17.24 -16.65 17.25 -18.4 -12.83z"/>
     <path id="1" class="fil0" d="M1184.04 231.49l6.38 5.36 0.02 0.82 0.04 0.82 0.05 0.82 0.07 0.82 0.08 0.81 0.1 0.8 0.11 0.8 0.12 0.79 0.14 0.79 0.15 0.77 0.17 0.77 0.18 0.77 0.2 0.74 0.21 0.74 0.22 0.73 0.24 0.71 0.24 0.69 0.27 0.69 0.27 0.67 0.28 0.64 0.3 0.63 0.31 0.62 0.32 0.6 0.33 0.58 0.33 0.55 0.36 0.53 0.36 0.52 0.36 0.48 0.38 0.47 0.38 0.44 0.38 0.41 0.4 0.4 -9.61 7.16 -0.69 -0.69 -0.67 -0.72 -0.63 -0.74 -0.6 -0.74 -0.58 -0.78 -0.55 -0.78 -0.53 -0.8 -0.51 -0.82 -0.47 -0.82 -0.46 -0.84 -0.43 -0.85 -0.41 -0.86 -0.4 -0.89 -0.36 -0.89 -0.35 -0.89 -0.33 -0.92 -0.3 -0.91 -0.28 -0.93 -0.27 -0.93 -0.24 -0.95 -0.23 -0.95 -0.21 -0.95 -0.19 -0.97 -0.16 -0.97 -0.16 -0.97 -0.13 -0.98 -0.11 -0.98 -0.09 -0.98 -0.08 -0.99 -0.06 -0.98 -0.04 -0.99 -0.02 -0.99 6.38 5.36 0 -10.86zm0 0l6.3 0 0.08 5.36 -6.38 -5.36zm-0.01 10.86l-6.38 -5.43 6.38 -5.43 0.01 0 0 10.86 -0.01 0zm0 0l-6.38 0 0 -5.43 6.38 5.43zm-6.38 -5.82l12.77 0 0 0.39 -12.77 0 0 -0.39zm0 -0.07l12.77 0 0 0.07 -12.77 0 0 -0.07zm0 -0.07l12.77 0 0 0.07 -12.77 0 0 -0.07zm0 -0.42l6.38 -5.43 6.38 5.43 0 0.42 -12.77 0 0 -0.42zm0 0l0 -5.43 6.38 0 -6.38 5.43zm6.39 -5.43l6.38 5.55 -6.38 5.31 -0 0 0 -10.86 0 0zm6.38 5.55l-0.13 5.31 -6.25 0 6.38 -5.31zm-12.76 -0.4l12.77 0.18 0 0.05 -0 0.16 -12.77 -0.24 0 -0.16zm12.77 0.18l0 0.12 0 -0.07 0 -0.05zm-12.76 -0.42l0 -0.1 12.77 0.23 -0 0.29 -12.77 -0.13 0 -0.29zm0 0l0 -0.1 0 -0.07 -0 0.16zm0.02 -0.56l12.77 0.26 0 0.07 -0.02 0.47 -12.77 -0.33 0.02 -0.47zm12.77 0.26l0 0.07 -0 0.09 0 -0.16zm-12.76 -0.39l0 -0.11 12.76 0.3 -0 0.2 -12.77 -0.19 0 -0.2zm0 0l0 -0.04 0 -0.07 -0 0.11zm0.02 -0.38l12.76 0.41 0 0 -0.01 0.27 -12.76 -0.42 0.01 -0.27zm12.76 0.41l0 0 -0 0.11 0 -0.12zm-12.74 -0.87l0 -0.05 12.76 0.46 -0.02 0.47 -12.76 -0.41 0.02 -0.47zm0 0l0 -0.05 0.01 -0.2 -0.01 0.25zm0.01 -0.27l0 -0.06 12.75 0.57 -0.01 0.22 -12.76 -0.51 0.01 -0.22zm0 0l0 -0 0 -0.06 -0 0.06zm0.02 -0.3l12.75 0.6 0 0.03 -0.02 0.24 -12.75 -0.63 0.02 -0.24zm12.75 0.6l0 0.03 -0.02 0.3 0.02 -0.33zm-12.72 -1.03l0 -0.08 12.75 0.65 -0.03 0.46 -12.75 -0.57 0.03 -0.46zm0 0l0 -0.08 0 -0.06 -0.01 0.14zm0.02 -0.34l12.74 0.71 0 0.02 -0.02 0.26 -12.74 -0.73 0.02 -0.26zm12.74 0.71l0 0.02 -0.03 0.4 0.03 -0.42zm-12.73 -0.91l0 -0.02 12.74 0.71 -0.02 0.22 -12.74 -0.69 0.02 -0.22zm0 0l0 -0.02 0.03 -0.37 -0.03 0.39zm0.04 -0.48l0.01 -0.11 12.73 0.84 -0.04 0.46 -12.74 -0.73 0.04 -0.46zm0 0l0.01 -0.11 -0.02 0.16 0 -0.06zm0.04 -0.38l12.73 0.88 -0.01 0.07 -0.03 0.28 -12.72 -0.95 0.03 -0.28zm12.73 0.88l-0.01 0.07 0.02 -0.17 -0.01 0.1zm-12.72 -1l0.01 -0.12 12.72 0.93 -0.02 0.18 -12.73 -0.82 0.02 -0.18zm0 0l0 -0.05 0.01 -0.07 -0.01 0.12zm0.07 -0.58l12.71 1.02 -0 0.03 -0.05 0.47 -12.71 -1.05 0.05 -0.47zm12.71 1.02l-0 0.03 0.02 -0.17 -0.02 0.14zm-12.69 -1.3l0.01 -0.09 12.71 1.09 -0.03 0.3 -12.72 -1 0.03 -0.3zm0 0l0.01 -0.09 -0.02 0.13 0 -0.04zm0.03 -0.25l12.7 1.16 -0 0.01 -0.02 0.16 -12.69 -1.18 0.02 -0.16zm12.7 1.16l-0 0.01 0.1 -0.8 -0.1 0.78zm-12.64 -1.61l12.7 1.15 -0.06 0.46 -12.7 -1.15 0.06 -0.46zm0.04 -0.33l0.02 -0.12 12.69 1.27 -0.04 0.33 -12.7 -1.15 0.04 -0.33zm0 0l0.01 -0.06 0.01 -0.06 -0.02 0.12zm0.04 -0.25l12.67 1.39 -0.02 0.13 -12.67 -1.39 0.02 -0.13zm0.12 -0.81l12.69 1.2 -0.02 0.18 -0.12 0.81 -12.67 -1.39 0.12 -0.81zm12.69 1.2l-0.01 0.08 -0.02 0.1 0.02 -0.18zm-12.71 -1.13l0.04 -0.29 12.67 1.31 -0.01 0.11 -12.72 -1.02 0.01 -0.11zm0 0l0.01 -0.09 0.04 -0.2 -0.04 0.29zm0.19 -1.11l12.66 1.42 -0.03 0.18 -0.14 0.82 -12.63 -1.6 0.14 -0.82zm12.66 1.42l-0.01 0.06 -0.02 0.12 0.03 -0.18zm-12.67 -1.34l0.04 -0.24 12.64 1.49 -0.01 0.09 -12.69 -1.25 0.01 -0.09zm0 0l0.02 -0.11 0.02 -0.13 -0.04 0.24zm0.13 -0.69l0.02 -0.11 12.58 1.84 -0.09 0.45 -12.6 -1.74 0.09 -0.45zm0 0l0.02 -0.11 0 0.01 -0.02 0.1zm0.04 -0.22l12.58 1.88 -0.02 0.07 -0.02 0.11 -12.56 -1.95 0.02 -0.11zm12.58 1.88l0.01 -0.04 -0.02 0.11 0.02 -0.07zm-12.53 -2.13l0 -0.01 12.59 1.81 -0.07 0.33 -12.6 -1.8 0.07 -0.33zm0 0l0 -0.01 -0.2 1 0.2 -0.99zm0.09 -0.46l0.02 -0.08 12.57 1.9 -0.09 0.45 -12.59 -1.82 0.09 -0.45zm0 0l0.02 -0.08 0 0 -0.02 0.08zm0.11 -0.49l0 -0.02 12.55 2 -0.09 0.41 -12.55 -1.98 0.09 -0.41zm0 0l0 -0.02 -0.03 0.12 0.02 -0.1zm0.01 -0.05l0.01 -0.04 12.54 2.06 -0.01 0.04 -12.55 -2.02 0.01 -0.04zm0 0l0.01 -0.04 0.02 -0.1 -0.03 0.14zm0.11 -0.48l0.01 -0.03 12.52 2.13 -0.1 0.44 -12.53 -2.1 0.1 -0.44zm0 0l0.01 -0.03 -0.06 0.23 0.05 -0.2zm0.11 -0.46l0.11 -0.4 12.4 2.56 -0.1 0.43 -12.51 -2.15 0.1 -0.43zm0 0l0.05 -0.22 0.06 -0.19 -0.11 0.4zm0.12 -0.42l12.39 2.61 -0.1 0.35 -0 0.01 -12.29 -2.96 0 -0.01zm12.39 2.61l-0.04 0.18 -0.06 0.17 0.1 -0.35zm-12.38 -2.7l0.02 -0.06 12.47 2.32 -0.11 0.44 -12.49 -2.26 0.11 -0.44zm0 0l-0 0.01 0.02 -0.07 -0.02 0.06zm0.13 -0.49l12.47 2.32 -0.02 0.06 -0.11 0.43 -12.46 -2.38 0.11 -0.43zm12.47 2.32l0 -0.01 -0.02 0.07 0.02 -0.06zm-12.49 -2.28l0.03 -0.11 12.46 2.37 -0 0.02 -12.49 -2.26 0 -0.02zm0 0l0 -0.02 0.02 -0.08 -0.03 0.11zm0.14 -0.52l0.02 -0.08 12.41 2.55 -0.11 0.42 -12.43 -2.47 0.11 -0.42zm0 0l0.02 -0.08 0.02 -0.05 -0.04 0.13zm0.15 -0.51l0.05 -0.17 12.34 2.8 -0.13 0.43 -12.39 -2.63 0.13 -0.43zm0 0l0.02 -0.07 0.03 -0.1 -0.05 0.17zm0.07 -0.2l12.35 2.74 -0.07 0.22 -0.01 0.04 -12.29 -2.96 0.01 -0.04zm12.35 2.74l-0.03 0.1 -0.04 0.12 0.07 -0.22zm-12.37 -2.69l0.04 -0.12 12.39 2.63 -0.05 0.18 -12.42 -2.51 0.05 -0.18zm0 0l-0 0.01 0.04 -0.13 -0.04 0.12zm0.23 -0.76l0.07 -0.2 12.29 2.95 -0.2 0.64 -12.35 -2.75 0.2 -0.64zm0 0l0.05 -0.16 0.02 -0.05 -0.07 0.2zm0.09 -0.26l12.26 3.03 -0.04 0.13 -0.02 0.06 -12.22 -3.16 0.02 -0.06zm12.26 3.03l-0.04 0.13 0.04 -0.12 0 -0.01zm-12.19 -3.27l0.03 -0.1 12.28 3 -0.12 0.36 -12.31 -2.91 0.12 -0.36zm0 0l0.02 -0.07 0.01 -0.03 -0.03 0.1zm0.18 -0.52l12.28 3 -0.03 0.1 -0.15 0.42 -12.24 -3.1 0.15 -0.42zm12.28 3l-0.03 0.1 -0.01 0.02 0.04 -0.12zm-12.2 -3.22l0.03 -0.09 12.28 2.99 -0.11 0.33 -12.31 -2.9 0.11 -0.33zm0 0l0 0 0.03 -0.09 -0.03 0.09zm0.07 -0.19l0.04 -0.13 12.2 3.22 -0.03 0.09 -12.24 -3.09 0.03 -0.09zm0 0l0.04 -0.13 0.01 -0.02 -0.05 0.15zm0.2 -0.54l12.2 3.21 -0.05 0.14 -0.16 0.41 -12.15 -3.35 0.16 -0.41zm12.2 3.21l-0.04 0.11 -0.01 0.03 0.05 -0.14zm-12.22 -3.18l0.06 -0.16 12.19 3.23 -0.04 0.11 -12.25 -3.07 0.04 -0.11zm0 0l0.02 -0.05 0.04 -0.11 -0.06 0.16zm0.18 -0.47l12.14 3.37 -0.01 0.02 -0.12 0.31 -12.13 -3.4 0.12 -0.31zm12.14 3.37l-0.01 0.02 0.17 -0.44 -0.16 0.42zm-12 -3.75l0.11 -0.26 12.04 3.61 -0.16 0.41 -12.15 -3.35 0.16 -0.41zm0 0l0.04 -0.1 0.07 -0.16 -0.11 0.26zm0.16 -0.38l12 3.73 -0.06 0.14 -0.05 0.12 -11.93 -3.87 0.05 -0.12zm12 3.73l-0.06 0.14 0.03 -0.07 0.03 -0.07zm-11.77 -4.27l0.05 -0.12 12.01 3.7 -0.28 0.69 -12.06 -3.58 0.28 -0.69zm0 0l0.05 -0.12 -0 0.01 -0.04 0.11zm0.11 -0.26l0.02 -0.04 11.94 3.86 -0.06 0.14 -11.96 -3.82 0.06 -0.14zm0 0l0.02 -0.04 -0.1 0.23 0.08 -0.19zm0.13 -0.29l11.93 3.89 -0.01 0.02 -0.11 0.25 -11.92 -3.9 0.11 -0.25zm11.93 3.89l-0.01 0.02 0.1 -0.23 -0.09 0.21zm-11.76 -4.26l0.02 -0.05 11.91 3.92 -0.18 0.39 -11.93 -3.87 0.18 -0.39zm0 0l0 0 0.02 -0.05 -0.02 0.05zm0.1 -0.21l0.02 -0.04 11.86 4.02 -0.07 0.16 -11.89 -3.98 0.07 -0.16zm0 0l0.02 -0.04 0.01 -0.02 -0.03 0.07zm0.13 -0.28l0.02 -0.04 11.83 4.1 -0.11 0.23 -11.84 -4.07 0.11 -0.23zm0 0l0.02 -0.04 0.05 -0.11 -0.07 0.14zm0.2 -0.42l0.01 -0.02 11.8 4.15 -0.18 0.38 -11.81 -4.14 0.18 -0.38zm0 0l-0.02 0.04 0.03 -0.06 -0.01 0.02zm0.09 -0.19l0.04 -0.08 11.75 4.25 -0.09 0.18 -11.8 -4.17 0.09 -0.18zm0 0l0.04 -0.08 -0.07 0.14 0.03 -0.06zm0.15 -0.29l0.05 -0.09 11.66 4.42 -0.11 0.21 -11.71 -4.33 0.11 -0.21zm0 0l0.02 -0.05 0.02 -0.04 -0.05 0.09zm0.35 -0.66l11.64 4.47 -0.02 0.05 -0.3 0.56 -11.62 -4.51 0.3 -0.56zm11.64 4.47l-0.02 0.05 -0.04 0.08 0.07 -0.13zm-11.57 -4.6l0.04 -0.08 11.63 4.49 -0.09 0.18 -11.66 -4.42 0.09 -0.18zm0 0l0.04 -0.08 0.09 -0.18 -0.13 0.25zm0.24 -0.44l0.07 -0.11 11.53 4.68 -0.2 0.37 -11.59 -4.57 0.2 -0.37zm0 0l0.07 -0.11 -0.09 0.16 0.03 -0.05zm0.19 -0.32l0 -0 11.46 4.8 -0.12 0.21 -11.46 -4.79 0.12 -0.21zm0 0l0 -0 -0.49 0.85 0.49 -0.85zm0.09 -0.16l0.06 -0.1 11.4 4.9 -0.09 0.16 -11.45 -4.8 0.09 -0.16zm0 0l0.06 -0.1 0.04 -0.06 -0.09 0.16zm0.41 -0.68l11.44 4.84 -0.1 0.17 -0.35 0.58 -11.34 -5 0.35 -0.58zm11.44 4.84l-0.04 0.08 -0.05 0.09 0.1 -0.17zm-11.46 -4.81l0.19 -0.31 11.35 4.98 -0.08 0.14 -11.53 -4.67 0.08 -0.14zm0 0l0.09 -0.16 0.1 -0.15 -0.19 0.31zm0.41 -0.65l11.19 5.24 -0.03 0.05 -0.22 0.34 -11.16 -5.29 0.22 -0.34zm11.19 5.24l-0.03 0.05 -0.04 0.07 0.08 -0.12zm-11.07 -5.42l0.19 -0.28 11.04 5.46 -0.15 0.24 -11.22 -5.18 0.15 -0.24zm0 0l0.1 -0.16 0.09 -0.11 -0.19 0.28zm0.27 -0.38l10.95 5.59 -0.11 0.15 -0.08 0.11 -10.85 -5.74 0.08 -0.11zm10.95 5.59l-0.06 0.08 -0.05 0.07 0.11 -0.15zm-10.83 -5.78l0.07 -0.1 10.99 5.53 -0.23 0.34 -11.06 -5.44 0.23 -0.34zm0 0l0.01 -0.01 0.06 -0.09 -0.07 0.1zm0.24 -0.34l11.04 5.45 -0.12 0.18 -0.17 0.24 -10.92 -5.63 0.17 -0.24zm11.04 5.45l-0.06 0.09 -0.07 0.09 0.12 -0.18zm-11.11 -5.37l0.2 -0.29 10.97 5.56 -0.06 0.09 -11.17 -5.27 0.06 -0.09zm0 0l0.09 -0.15 0.11 -0.14 -0.2 0.29zm0.44 -0.61l10.78 5.82 -0.02 0.02 -0.24 0.33 -10.77 -5.84 0.24 -0.33zm10.78 5.82l-0.02 0.02 0.11 -0.15 -0.09 0.13zm-10.61 -6.06l0.17 -0.22 10.63 6.02 -0.19 0.25 -10.8 -5.8 0.19 -0.25zm0 0l0.06 -0.08 0.11 -0.13 -0.17 0.22zm0.23 -0.29l10.57 6.09 -0.11 0.14 -0.06 0.07 -10.46 -6.24 0.06 -0.07zm10.57 6.09l-0.05 0.06 -0.07 0.08 0.11 -0.14zm-10.44 -6.27l0.1 -0.12 10.59 6.07 -0.24 0.32 -10.69 -5.95 0.24 -0.32zm0 0l0.03 -0.04 0.07 -0.08 -0.1 0.12zm0.31 -0.39l10.63 6.02 -0.14 0.18 -0.22 0.27 -10.49 -6.2 0.22 -0.27zm10.63 6.02l-0.05 0.07 -0.09 0.11 0.14 -0.18zm-10.73 -5.89l0.24 -0.3 10.53 6.14 -0.04 0.05 -10.77 -5.84 0.04 -0.05zm0 0l0.11 -0.15 0.13 -0.15 -0.24 0.3zm0.5 -0.6l10.31 6.41 -0.03 0.03 -0.26 0.3 -10.29 -6.44 0.26 -0.3zm10.31 6.41l-0.03 0.03 0.05 -0.06 -0.02 0.02zm-10.11 -6.65l0.31 -0.33 10.03 6.71 -0.23 0.27 -10.34 -6.38 0.23 -0.27zm0 0l0.14 -0.16 0.17 -0.17 -0.31 0.33zm0.34 -0.37l9.89 6.87 -0.17 0.17 -0.03 0.03 -9.72 -7.04 0.03 -0.03zm9.89 6.87l-0.05 0.05 -0.12 0.12 0.17 -0.17zm-9.96 -6.8l0 -0 10.05 6.71 -0.09 0.1 -10.06 -6.7 0.09 -0.1zm0.44 -0.47l10.41 6.28 -0.36 0.43 -0.43 0.47 -10.05 -6.71 0.43 -0.47zm10.41 6.28l-0.17 0.23 -0.19 0.2 0.36 -0.43zm-10.75 -5.86l0.52 -0.6 10.24 6.44 -0.01 0.02 -10.77 -5.84 0.01 -0.02zm0 0l0.23 -0.31 0.29 -0.29 -0.52 0.6zm0.8 -0.88l9.75 7.02 -0.03 0.03 -0.28 0.28 -9.72 -7.04 0.28 -0.28zm9.75 7.02l-0.03 0.03 0.31 -0.31 -0.28 0.29zm-9.51 -7.27l0.91 -0.76 8.87 7.74 -0.28 0.29 -9.79 -6.99 0.28 -0.29zm0 0l0.4 -0.41 0.51 -0.35 -0.91 0.76zm119.9 -81.42l9.73 1.9 -1.78 6.6 -118.98 80.67 -7.96 -8.5 118.98 -80.67zm0 0l6.26 -4.25 3.47 6.15 -9.73 -1.9zm-6.82 42.98l0.27 -0.18 0.95 -0.61 0.9 -0.64 0.86 -0.67 0.82 -0.71 0.77 -0.74 0.73 -0.77 0.69 -0.81 0.64 -0.83 0.6 -0.87 0.55 -0.89 0.5 -0.94 0.46 -0.98 0.4 -1 0.36 -1.04 0.3 -1.07 0.25 -1.11 0.2 -1.15 0.14 -1.18 0.08 -1.21 0.02 -1.25 -0.05 -1.3 -0.11 -1.33 -0.18 -1.35 -0.26 -1.4 -0.33 -1.43 -0.4 -1.46 -0.48 -1.51 -0.56 -1.53 -0.64 -1.56 -0.73 -1.59 -0.81 -1.63 -0.9 -1.66 11.51 -4.7 1.06 1.96 0.97 1.94 0.87 1.93 0.78 1.91 0.69 1.89 0.6 1.87 0.51 1.85 0.42 1.84 0.33 1.81 0.24 1.8 0.15 1.78 0.07 1.74 -0.02 1.72 -0.11 1.7 -0.2 1.67 -0.28 1.63 -0.36 1.6 -0.45 1.58 -0.53 1.53 -0.61 1.5 -0.69 1.46 -0.76 1.42 -0.85 1.39 -0.92 1.33 -0.99 1.29 -1.06 1.23 -1.12 1.19 -1.2 1.14 -1.26 1.09 -1.32 1.03 -1.38 0.98 -1.43 0.92 0.27 -0.18 -8.01 -8.46zm0 0l0.17 -0.11 0.11 -0.07 -0.27 0.18zm-90.71 76.05l-9.86 -2.07 1.85 -6.4 98.72 -67.58 8.01 8.46 -98.72 67.58zm0 0l-6.53 4.47 -3.33 -6.54 9.86 2.07zm-14.02 -10.24l1 -5.69 10.72 1.36 4.16 8.17 -11.71 4.33 -4.16 -8.17zm1 -5.69l6.64 -6.64 4.08 8 -10.72 -1.36zm9.66 7.1l-10.17 -6.54 0.45 -0.5 0.06 -0.06 9.72 7.04 -0.06 0.06zm-10.17 -6.54l0.2 -0.25 0.25 -0.25 -0.45 0.5zm5.31 3.02l0 0 0 0 0 0 5.31 3.02 -5.31 -3.02zm-5.31 -3.02l0.2 -0.25 0.25 -0.25 -0.45 0.5zm10.57 6.1l-0.3 0.35 -10.32 -6.39 0.04 -0.06 10.62 6.04 -0.04 0.06zm0 0l-0.11 0.14 -0.19 0.2 0.3 -0.35zm-0.36 0.4l-5.01 2.07 -5.01 -8.8 0.05 -0.06 10.02 6.73 -0.05 0.06zm0 0l-1.92 2.07 -3.09 0 5.01 -2.07zm-5.01 2.07l-5.31 -8.45 5.31 -2.41 0 0 0 10.86 -0 0zm-5.31 -8.45l1.89 -2.41 3.42 0 -5.31 2.41zm10.57 6.1l-0.03 0.04 -10.59 -6.08 0.04 -0.06 10.62 6.04 -0.04 0.06zm0 0l-0.03 0.04 0.21 -0.27 -0.18 0.23zm-0.08 0.1l-11.66 -3.06 1.11 -3.06 0.05 -0.06 10.55 6.11 -0.05 0.06zm-11.66 -3.06l0 -1.67 1.11 -1.38 -1.11 3.06zm12.77 0l-1.36 3.35 -11.4 -3.35 0 -0 12.77 0 0 0zm0 0l0 1.88 -1.36 1.48 1.36 -3.35zm-1.41 3.41l-10.3 -6.41 0.26 -0.3 0.05 -0.05 10.04 6.71 -0.05 0.05zm-10.3 -6.41l0.12 -0.15 0.14 -0.15 -0.26 0.3zm10.51 6.18l-0.42 0.47 -10.14 -6.58 0.05 -0.06 10.55 6.11 -0.05 0.06zm0 0l-0.2 0.24 -0.22 0.22 0.42 -0.47zm-0.42 0.47l-10.2 -6.5 0.48 -0.55 0 -0 9.72 7.04 -0 0zm-10.2 -6.5l0.22 -0.28 0.27 -0.27 -0.48 0.55zm10.64 6l-10.76 -5.85 0.07 -0.1 0.04 -0.05 10.69 5.95 -0.04 0.05zm-10.76 -5.85l0.04 -0.05 0.04 -0.04 -0.07 0.1zm10.79 5.82l-11.56 -4.36 0.73 -1.4 0.04 -0.06 10.83 5.75 -0.04 0.06zm-11.56 -4.36l0.25 -0.74 0.48 -0.65 -0.73 1.4zm12.28 2.98l-0.93 1.66 -11.35 -4.62 0 -0.01 12.29 2.96 -0 0.01zm0 0l-0.3 0.9 -0.64 0.76 0.93 -1.66zm-0.98 1.71l-10.52 -6.16 0.1 -0.12 0.04 -0.05 10.42 6.29 -0.04 0.05zm-10.52 -6.16l0 0 0.1 -0.12 -0.1 0.12zm10.57 6.1l-10.86 -5.7 0.24 -0.34 0.04 -0.06 10.62 6.04 -0.04 0.06zm-10.86 -5.7l0.12 -0.18 0.13 -0.16 -0.24 0.34zm11.1 5.38l-11.21 -5.2 0.1 -0.16 0.01 -0.01 11.11 5.36 -0.01 0.01zm-11.21 -5.2l0.05 -0.08 0.05 -0.08 -0.1 0.16zm11.28 5.1l-0.24 0.36 -11.07 -5.4 0.03 -0.05 11.31 5.04 -0.03 0.05zm0 0l-0.1 0.17 -0.14 0.19 0.24 -0.36zm-0.29 0.42l-11.29 -5 0.46 -0.75 0.04 -0.06 10.83 5.75 -0.04 0.06zm-11.29 -5l0.19 -0.38 0.27 -0.37 -0.46 0.75zm11.75 4.27l-0.49 0.8 -11.26 -5.05 0.01 -0.02 11.75 4.25 -0.01 0.02zm0 0l-0.21 0.41 -0.29 0.38 0.49 -0.8zm-0.53 0.84l-10.84 -5.74 0.07 -0.1 0.04 -0.05 10.77 5.84 -0.04 0.05zm-10.84 -5.74l0.06 -0.09 0.01 -0.02 -0.07 0.1zm10.87 5.7l-11.33 -4.95 0.42 -0.69 0.04 -0.06 10.91 5.64 -0.04 0.06zm-11.33 -4.95l0.18 -0.35 0.24 -0.34 -0.42 0.69zm11.75 4.27l-0.16 0.29 -11.6 -4.54 0.01 -0.02 11.75 4.25 -0.01 0.02zm0 0l-0.06 0.12 -0.1 0.17 0.16 -0.29zm-0.19 0.34l-0.08 0.13 -11.35 -4.97 0.03 -0.05 11.44 4.83 -0.03 0.05zm0 0l-0.04 0.06 -0.04 0.07 0.08 -0.13zm-0.12 0.2l-11.68 -4.3 0.41 -0.8 0.04 -0.07 11.27 5.1 -0.04 0.07zm-11.68 -4.3l0.16 -0.41 0.24 -0.39 -0.41 0.8zm12.08 3.52l-0.33 0.67 -11.76 -4.17 0.01 -0.02 12.09 3.5 -0.01 0.02zm0 0l-0.13 0.33 -0.19 0.33 0.33 -0.67zm-0.36 0.71l-0.08 0.13 -11.35 -4.97 0.03 -0.05 11.44 4.83 -0.03 0.05zm0 0l-0.04 0.06 -0.04 0.07 0.08 -0.13zm-0.12 0.2l-0.08 0.13 -11.19 -5.23 0.04 -0.07 11.27 5.1 -0.04 0.07zm0 0l-0.08 0.13 0 0 0.08 -0.13zm-0.09 0.14l-11.43 -4.81 0.32 -0.56 0.01 -0.01 11.11 5.36 -0.01 0.01zm-11.43 -4.81l0.14 -0.29 0.18 -0.27 -0.32 0.56zm11.73 4.3l-0.19 0.34 -11.56 -4.6 0.02 -0.05 11.75 4.25 -0.02 0.05zm0 0l-0.07 0.14 -0.12 0.2 0.19 -0.34zm-0.23 0.4l-0.3 0.45 -11.07 -5.39 0.04 -0.06 11.37 4.94 -0.04 0.06zm0 0l-0.15 0.25 -0.15 0.2 0.3 -0.45zm-0.31 0.47l-11.4 -4.74 0.64 -1.11 0.01 -0.02 10.77 5.84 -0.01 0.02zm-11.4 -4.74l0.24 -0.58 0.4 -0.53 -0.64 1.11zm12.02 3.68l-0.26 0.53 -11.78 -4.16 0.02 -0.05 12.04 3.63 -0.02 0.05zm0 0l-0.11 0.26 -0.16 0.27 0.26 -0.53zm-0.3 0.6l-0.07 0.12 -11.44 -4.82 0.04 -0.07 11.52 4.69 -0.04 0.07zm0 0l0 0 -0.07 0.12 0.07 -0.12zm-0.09 0.14l-11.64 -4.43 0.27 -0.51 0.01 -0.02 11.37 4.94 -0.01 0.02zm-11.64 -4.43l0.11 -0.25 0.16 -0.26 -0.27 0.51zm11.89 3.96l-0.14 0.29 -11.77 -4.2 0.02 -0.04 11.91 3.92 -0.02 0.04zm0 0l-0.08 0.17 -0.06 0.11 0.14 -0.29zm-0.17 0.35l-11.82 -4.11 0.18 -0.38 0.03 -0.06 11.63 4.49 -0.03 0.06zm-11.82 -4.11l0.09 -0.2 0.1 -0.18 -0.18 0.38zm11.99 3.75l-0.04 0.1 -11.95 -3.82 0.01 -0.03 12 3.72 -0.01 0.03zm0 0l0.01 -0.02 -0.05 0.11 0.04 -0.1zm-0.07 0.14l-0.08 0.17 -11.83 -4.09 0.02 -0.04 11.91 3.92 -0.02 0.04zm0 0l-0.06 0.13 -0.02 0.03 0.08 -0.17zm-0.11 0.23l-12.02 -3.61 0.27 -0.64 0.03 -0.07 11.75 4.25 -0.03 0.07zm-12.02 -3.61l0.11 -0.34 0.15 -0.3 -0.27 0.64zm12.28 2.99l-0.04 0.13 -12.24 -3.09 0.01 -0.02 12.29 2.96 -0.01 0.02zm0 0l-0.04 0.13 -0.02 0.04 0.06 -0.17zm-0.06 0.17l-0.22 0.52 -11.98 -3.73 0.02 -0.04 12.2 3.22 -0.02 0.04zm0 0l-0.09 0.25 -0.13 0.27 0.22 -0.52zm-0.26 0.58l-0.19 0.34 -11.56 -4.6 0.03 -0.07 11.75 4.25 -0.03 0.07zm0 0l-0.07 0.14 -0.12 0.2 0.19 -0.34zm-0.2 0.36l-11.83 -3.95 0.46 -0.99 0.01 -0.02 11.37 4.94 -0.01 0.02zm-11.83 -3.95l0.17 -0.51 0.29 -0.48 -0.46 0.99zm12.27 3.01l-0.06 0.17 -12.22 -3.13 0.02 -0.05 12.29 2.96 -0.02 0.05zm0 0l-0.02 0.07 -0.04 0.1 0.06 -0.17zm-0.09 0.24l-12.16 -3.31 0.02 -0.07 12.16 3.31 -0.02 0.07zm-0.01 0.03l-0.11 0.27 -12.05 -3.58 0.01 -0.03 12.16 3.31 -0.01 0.03zm0 0l-0.05 0.14 -0.06 0.13 0.11 -0.27zm-0.13 0.31l-11.95 -3.82 0.01 -0.03 0.02 -0.04 11.94 3.84 -0.02 0.04zm-11.95 -3.82l0.01 -0.03 0.02 -0.04 -0.03 0.07zm11.94 3.85l-12.26 -2.9 0.29 -0.89 0.03 -0.07 11.97 3.79 -0.03 0.07zm-12.26 -2.9l0.1 -0.45 0.19 -0.43 -0.29 0.89zm12.54 2.05l-0.4 1.12 -12.15 -3.13 0.01 -0.04 12.55 2.02 -0.01 0.04zm0 0l-0.13 0.59 -0.27 0.53 0.4 -1.12zm-0.41 1.15l-11.99 -3.69 0.24 -0.56 0.02 -0.03 11.75 4.25 -0.02 0.03zm-11.99 -3.69l0.11 -0.31 0.13 -0.26 -0.24 0.56zm12.2 3.2l-0.03 0.09 -12.2 -3.22 0.02 -0.07 12.23 3.13 -0.02 0.07zm0 0l-0.02 0.04 -0.02 0.04 0.03 -0.09zm-0.04 0.12l-12.35 -2.66 0.19 -0.64 0.01 -0.03 12.16 3.31 -0.01 0.03zm-12.35 -2.66l0.07 -0.33 0.12 -0.32 -0.19 0.64zm12.54 2.05l-0.1 0.39 -12.44 -2.4 0.01 -0.04 12.55 2.02 -0.01 0.04zm0 0l-0.05 0.21 -0.05 0.18 0.1 -0.39zm-0.12 0.45l-12.36 -2.74 0.02 -0.05 0.02 -0.07 12.34 2.79 -0.02 0.07zm-12.36 -2.74l0.02 -0.05 -0.01 0.03 -0.01 0.02zm12.36 2.73l-0.19 0.52 -12.19 -3.2 0.01 -0.04 12.37 2.69 -0.01 0.04zm0 0l-0.08 0.27 -0.11 0.25 0.19 -0.52zm-0.2 0.55l-12.2 -3.18 0.2 -0.54 0.01 -0.03 12 3.72 -0.01 0.03zm-12.2 -3.18l0.08 -0.27 0.11 -0.27 -0.2 0.54zm12.37 2.71l-12.51 -2.15 0.11 -0.49 0.02 -0.07 12.39 2.64 -0.02 0.07zm-12.51 -2.15l0.04 -0.25 0.07 -0.23 -0.11 0.49zm12.61 1.71l-0.43 1.29 -12.19 -2.96 0.01 -0.04 12.62 1.67 -0.01 0.04zm0 0l-0.12 0.67 -0.31 0.62 0.43 -1.29zm-0.44 1.32l-12.14 -3.19 0.38 -1.06 0.01 -0.02 11.75 4.25 -0.01 0.02zm-12.14 -3.19l0.13 -0.56 0.25 -0.51 -0.38 1.06zm12.51 2.2l-0.07 0.28 -12.45 -2.41 0.02 -0.07 12.52 2.13 -0.02 0.07zm0 0l-0.04 0.15 -0.04 0.13 0.07 -0.28zm-0.09 0.32l-12.53 -2 0.15 -0.69 0.01 -0.04 12.37 2.69 -0.01 0.04zm-12.53 -2l0.05 -0.35 0.1 -0.34 -0.15 0.69zm12.67 1.34l-0.14 0.66 -12.53 -1.98 0 -0.03 12.68 1.31 -0 0.03zm0 0l-0.05 0.34 -0.09 0.32 0.14 -0.66zm-0.16 0.73l-12.49 -2.23 0.1 -0.41 0.02 -0.07 12.39 2.64 -0.02 0.07zm-12.49 -2.23l0.05 -0.24 0.05 -0.17 -0.1 0.41zm12.58 1.86l-0.09 0.38 -12.5 -2.2 0.01 -0.04 12.59 1.82 -0.01 0.04zm0 0l-0.04 0.2 -0.05 0.17 0.09 -0.38zm-0.1 0.4l-12.46 -2.35 0.06 -0.22 0.01 -0.03 12.41 2.57 -0.01 0.03zm-12.46 -2.35l0.03 -0.11 0.03 -0.11 -0.06 0.22zm12.51 2.2l-12.58 -1.83 0.06 -0.3 0.02 -0.07 12.52 2.13 -0.02 0.07zm-12.58 -1.83l0.02 -0.14 0.04 -0.16 -0.06 0.3zm12.64 1.58l-0.18 0.72 -12.46 -2.24 0.01 -0.05 12.64 1.53 -0.01 0.05zm0 0l-0.06 0.36 -0.12 0.36 0.18 -0.72zm-0.19 0.74l-12.45 -2.34 0.16 -0.62 0.01 -0.02 12.29 2.96 -0.01 0.02zm-12.45 -2.34l0.06 -0.31 0.11 -0.32 -0.16 0.62zm12.6 1.78l-12.62 -1.69 0 -0.02 0.01 -0.07 12.61 1.71 -0.01 0.07zm-12.62 -1.69l0 -0.02 0.01 -0.07 -0.02 0.09zm12.61 1.71l-12.65 -1.49 0.03 -0.18 0.01 -0.04 12.62 1.67 -0.01 0.04zm-12.65 -1.49l0.01 -0.09 0.02 -0.09 -0.03 0.18zm12.67 1.34l-0.02 0.15 -12.65 -1.47 0 -0.03 12.68 1.31 -0 0.03zm0 0l-0.01 0.07 -0.02 0.09 0.02 -0.15zm-0.04 0.22l-12.64 -1.57 0.01 -0.04 0.01 -0.07 12.63 1.62 -0.01 0.07zm-12.64 -1.57l0.01 -0.04 -0.01 0.07 0 -0.02zm12.64 1.58l-12.64 -1.53 0.01 -0.05 12.64 1.53 -0.01 0.05zm-0 0.02l-12.66 -1.4 0.02 -0.13 0 -0.02 12.64 1.53 -0 0.02zm-12.66 -1.4l0.02 -0.13 -0.01 0.08 -0.01 0.05zm12.67 1.38l-0.05 0.28 -12.64 -1.54 0.02 -0.12 12.69 1.27 -0.02 0.12zm0 0l-0.02 0.11 -0.03 0.17 0.05 -0.28zm-0.05 0.3l-12.65 -1.42 0.07 -0.4 0 -0.02 12.59 1.82 -0 0.02zm-12.65 -1.42l0.02 -0.17 0.04 -0.23 -0.07 0.4zm12.71 1.09l-12.73 -0.89 0.01 -0.13 0.01 -0.07 12.72 1.02 -0.01 0.07zm-12.73 -0.89l0 -0.07 0.01 -0.06 -0.01 0.13zm12.74 0.82l-0.13 0.75 -12.62 -1.51 0 -0.05 12.74 0.77 -0 0.05zm0 0l-0.03 0.36 -0.1 0.38 0.13 -0.75zm-0.13 0.76l-12.6 -1.67 0.11 -0.59 0 -0.02 12.49 2.26 -0 0.02zm-12.6 -1.67l0.03 -0.28 0.08 -0.31 -0.11 0.59zm12.7 1.16l-12.73 -0.87 0.02 -0.21 0.01 -0.07 12.71 1.09 -0.01 0.07zm-12.73 -0.87l0.01 -0.1 0.01 -0.11 -0.02 0.21zm12.75 0.72l-12.76 -0.33 0.01 -0.33 0 -0.06 12.75 0.66 -0 0.06zm-12.76 -0.33l0 -0.22 0.01 -0.11 -0.01 0.33zm12.77 0.02l-12.77 0 0 -0.02 12.77 0 0 0.02zm0 0.01l-12.75 0.35 -0.01 -0.35 0 -0.01 12.77 0 0 0.01zm-12.75 0.35l-0.01 -0.16 0 -0.19 0.01 0.35zm4.12 7.68l-0.99 -0.83 -0.18 -0.19 -0.18 -0.2 -0.16 -0.19 -0.16 -0.2 -0.16 -0.21 -0.15 -0.2 -0.14 -0.2 -0.14 -0.2 -0.17 -0.26 -0.11 -0.17 -0.1 -0.17 -0.1 -0.18 -0.15 -0.27 -0.13 -0.27 -0.07 -0.15 -0.09 -0.19 -0.11 -0.24 -0.11 -0.28 -0.07 -0.19 -0.07 -0.19 -0.07 -0.19 -0.09 -0.26 -0.08 -0.28 -0.03 -0.13 -0.05 -0.19 -0.07 -0.29 -0.05 -0.27 -0.03 -0.19 -0.03 -0.2 -0.04 -0.29 -0.02 -0.2 -0.02 -0.22 12.74 -0.7 0 0.03 0 0.05 -0 -0.03 0.01 0.05 0.01 0.07 -0 -0.02 -0.01 -0.03 0.02 0.05 0.03 0.13 -0.01 -0.04 -0 -0.02 0.02 0.05 0.02 0.05 0.02 0.06 -0.01 -0.04 -0 -0.01 0.03 0.06 0.04 0.09 -0.02 -0.04 -0.02 -0.04 0.03 0.05 0.04 0.06 0.03 0.06 -0.02 -0.03 0.01 0.02 0.01 0.02 0.01 0.02 0 0 0.02 0.02 0.01 0.01 0.01 0.01 0.01 0.01 -0.99 -0.83 -7.9 8.54zm0 0l-0.55 -0.37 -0.44 -0.46 0.99 0.83zm33.61 8.7l0.98 7.72 -8.89 0.82 -25.7 -17.24 7.9 -8.54 25.7 17.24zm0 0l5.12 3.43 -4.14 4.29 -0.98 -7.72zm-15.67 24.97l-8.98 0.76 -0.89 -7.65 16.65 -17.25 9.87 6.9 -16.65 17.25zm0 0l-4.05 4.19 -4.93 -3.44 8.98 -0.76zm-27.38 -12.07l-0.76 -0.62 8.85 -7.78 18.4 12.83 -8.09 8.41 -18.4 -12.83zm0 0l-0.41 -0.29 -0.35 -0.34 0.76 0.62z"/>
    </g>
    <path class="fil1" d="M1194.33 203.69c-3.78,13.06 1.11,13.74 13.62,23.64l126.8 92.25c20.97,13.56 19.66,37.22 7.79,58.01l-154.47 -112.43c-18.35,-21.34 -11.5,-53.7 6.25,-61.47z"/>
    <path class="fil0" d="M771.07 310.37c14.97,-14.71 22.49,-34.03 22.49,-57.98 0,-24.03 -7.53,-43.19 -22.49,-57.55 -14.96,-14.45 -33.61,-21.72 -55.92,-21.89 -22.24,0 -40.96,7.18 -56.09,21.64 -15.31,14.54 -23,33.69 -23,57.55 0,23.77 7.52,43.1 22.49,57.98 14.96,14.96 33.69,22.4 56.18,22.4 22.57,0 41.39,-7.35 56.35,-22.15zm-56.09 66.78c-34.89,0 -64.48,-11.55 -88.93,-34.63 -24.46,-23.08 -36.68,-53.19 -36.68,-90.38 0,-37.2 12.06,-67.38 36.09,-90.48 24.03,-23.09 53.7,-34.55 89.1,-34.37 35.57,0 65.33,11.54 89.36,34.63 24.2,23.26 36.34,53.36 36.34,90.22 0,36.86 -12.14,66.87 -36.43,90.13 -24.29,23.26 -53.96,34.89 -88.85,34.89z"/>
    <path class="fil0" d="M1046.47 310.24c14.93,-14.67 22.44,-33.96 22.44,-57.85 0,-23.98 -7.51,-43.09 -22.44,-57.43 -14.93,-14.42 -33.53,-21.67 -55.81,-21.84 -22.18,0 -40.87,7.17 -55.97,21.59 -15.27,14.51 -22.95,33.62 -22.95,57.43 0,23.72 7.51,43 22.44,57.85 14.93,14.93 33.62,22.35 56.06,22.35 22.53,0 41.3,-7.34 56.23,-22.1zm-55.97 66.64c-34.81,0 -64.34,-11.52 -88.74,-34.56 -24.4,-23.04 -36.6,-53.07 -36.6,-90.19 0,-37.12 12.03,-67.24 36.01,-90.27 23.97,-23.04 53.58,-34.47 88.91,-34.3 35.5,0 65.19,11.52 89.17,34.55 24.15,23.21 36.26,53.24 36.26,90.02 0,36.77 -12.11,66.72 -36.34,89.93 -24.24,23.21 -53.84,34.81 -88.65,34.81z"/>
    <path class="fil0" d="M1373.06 374.82l0.67 -210.53c0.35,-28.99 19.93,-38.94 46.51,-39.23l-0.67 213.91c-0.57,26.38 -15.93,36.41 -46.51,35.85z"/>
    <path class="fil0" d="M1373.44 51.62c-6.05,-5.88 -9.03,-13.03 -9.03,-21.46 0,-8.52 2.98,-15.59 9.03,-21.46 6.73,-5.79 14.31,-8.69 22.91,-8.69 8.6,0 16.18,2.81 22.66,8.43 6.56,5.71 9.8,12.95 9.8,21.72 0,8.77 -3.24,16.01 -9.8,21.72 -6.47,5.62 -14.05,8.43 -22.66,8.43 -8.6,0 -16.18,-2.89 -22.91,-8.69z"/>
    <path class="fil0" d="M1514.15 193.48c-14.73,14.65 -22.15,34.15 -22.15,58.6 0,24.36 7.84,43.35 23.42,56.98 15.67,13.63 34.15,20.44 55.62,20.44 21.46,0 39.78,-7.16 54.85,-21.47 14.31,-14.22 21.46,-32.96 21.46,-56.21 0,-23.25 -7.5,-42.42 -22.49,-57.32 -15.07,-14.91 -33.64,-22.48 -55.53,-22.66 -21.97,-0.17 -40.37,7.07 -55.19,21.64zm-68.93 -68.41c32.88,-0.42 46.27,16.3 46.27,43.71 7.84,-13.37 19.16,-23.68 34.15,-30.84 14.65,-7.92 31.01,-11.84 49.15,-11.84 33.3,0 61.49,11.59 84.49,34.84 23.08,23 34.58,52.98 34.58,89.86 0,36.88 -11.42,66.78 -34.33,89.77 -22.82,22.91 -51.1,34.41 -84.75,34.41 -18.14,0 -34.75,-3.58 -49.92,-10.73 -15.07,-7.15 -26.23,-17.2 -33.39,-29.98l0 151.61c-29.87,0.83 -45.19,-6.29 -46.26,-37.93l-0.01 -322.89z"/>
    <path class="fil0" d="M1901.78 308.03c15.33,-14.31 23,-33.56 23,-57.83 0,-24.28 -8.01,-43.44 -23.93,-57.41 -16.02,-13.97 -34.83,-21.04 -56.47,-21.21 -21.72,0 -39.86,7.24 -54.51,21.72 -14.65,14.31 -21.97,33.05 -21.97,56.38 0,23.26 7.49,42.42 22.48,57.32 14.99,14.99 33.47,22.49 55.45,22.49 21.97,0 40.63,-7.16 55.96,-21.47zm23.53 66.78l-0.02 -41.57c-7.5,12.52 -18.83,22.57 -33.99,30.24 -15.16,7.66 -31.69,11.5 -49.74,11.5 -33.05,0 -61.75,-11.59 -86.02,-34.75 -23.43,-23.08 -35.18,-53.06 -35.18,-89.77 0,-36.79 11.58,-66.69 34.66,-89.6 23.17,-22.99 52.05,-34.58 86.62,-34.75 17.29,0 33.99,3.58 49.91,10.73 15.67,7.84 26.92,17.89 33.73,30.24 -0.67,-28.55 18.36,-41.37 47.2,-42.01l-0.67 214.34c-0.34,29.87 -16.69,35.41 -46.51,35.41z"/>
    <path class="fil0" d="M383.83 192.8c-15.92,14.13 -23.92,33.37 -23.92,57.63 0,24.26 7.66,43.5 22.9,57.8 15.32,14.3 33.97,21.45 55.84,21.45 21.96,0 40.35,-7.49 55.07,-22.47 14.98,-14.9 22.47,-33.97 22.47,-57.03 0,-23.15 -7.4,-41.97 -22.22,-56.61 -14.73,-14.64 -32.77,-21.88 -54.05,-21.7 -21.28,0 -40.01,6.98 -56.1,20.94zm-70.84 182.02l-0.07 -337.76c-0.22,-26.35 17.81,-36.02 46.48,-35.28l0 165.57c16.26,-27.33 44.18,-40.94 83.76,-40.94 34.48,0 63.16,11.49 86.06,34.48 22.98,22.73 34.48,52.61 34.48,89.55 0,36.86 -11.92,66.91 -35.67,89.97 -23.84,23.15 -52.27,34.73 -85.38,34.73 -17.62,0 -34.05,-3.83 -49.37,-11.49 -15.24,-7.66 -26.56,-17.71 -33.88,-30.22 -0.04,30.37 -17.13,42.08 -46.41,41.39z"/>
   </g>
   <g id="_2685444387456">
    <path class="fil1 str0" d="M45.54 5.24c41.75,0 93.71,30.37 93.71,89.2 0,63.89 -44.18,91.57 -93.71,91.57l70.56 -89.51 -70.56 -91.26z"/>
    <path class="fil1 str0" d="M45.54 189.1c41.75,0 93.71,30.37 93.71,89.21 0,63.89 -44.18,91.57 -93.71,91.57l70.56 -89.51 -70.56 -91.26z"/>
    <polygon class="fil1 str1" points="12.43,14.81 29.92,4.08 1.73,4.08 1.73,35.94 "/>
    <polygon class="fil1 str1" points="12.43,360.5 29.92,371.23 1.73,371.23 1.73,339.37 "/>
   </g>
   <polygon class="fil1" points="208.02,189.97 255.82,48.91 113.72,189.77 255.36,332.21 "/>
  </g>
 </g>
</svg>
