<?xml version="1.0" encoding="UTF-8"?>
<!DOCTYPE svg PUBLIC "-//W3C//DTD SVG 1.1//EN" "http://www.w3.org/Graphics/SVG/1.1/DTD/svg11.dtd">
<!-- Creator: CorelDRAW 2018 (64-Bit Evaluation Version) -->
<svg xmlns="http://www.w3.org/2000/svg" xml:space="preserve" width="35mm" height="35mm" version="1.1" style="shape-rendering:geometricPrecision; text-rendering:geometricPrecision; image-rendering:optimizeQuality; fill-rule:evenodd; clip-rule:evenodd"
viewBox="0 0 334.52 334.52"
 xmlns:xlink="http://www.w3.org/1999/xlink">
 <defs>
  <style type="text/css">
   <![CDATA[
    .fil0 {fill:none}
    .fil2 {fill:#3B9CFF;fill-rule:nonzero}
    .fil1 {fill:#00C2FF;fill-rule:nonzero}
   ]]>
  </style>
 </defs>
 <g id="Layer_x0020_1">
  <metadata id="CorelCorpID_0Corel-Layer"/>
  <rect class="fil0" width="334.52" height="334.52" rx="66.1" ry="66.1"/>
  <path class="fil1" d="M217.37 168.35c14.38,0 25.14,3.72 32.26,11.15 7.13,7.43 10.69,19.31 10.69,35.62 0,16.5 -3.56,28.46 -10.69,35.9 -7.12,7.43 -17.88,11.15 -32.26,11.15 -14.52,0 -25.34,-3.72 -32.47,-11.15 -7.13,-7.43 -10.69,-19.4 -10.69,-35.9 0,-16.32 3.56,-28.19 10.69,-35.62 7.12,-7.43 17.95,-11.15 32.47,-11.15zm0 70.16c4.03,0 7.49,-0.32 10.38,-0.95 2.89,-0.63 5.21,-1.77 6.96,-3.4 1.75,-1.63 3.02,-3.99 3.83,-7.07 0.81,-3.08 1.21,-7.07 1.21,-11.97 0,-4.89 -0.4,-8.84 -1.21,-11.83 -0.81,-2.99 -2.08,-5.35 -3.83,-7.07 -1.75,-1.72 -4.07,-2.85 -6.96,-3.4 -2.89,-0.54 -6.35,-0.82 -10.38,-0.82 -4.17,0 -7.66,0.27 -10.49,0.82 -2.82,0.54 -5.14,1.68 -6.96,3.4 -1.81,1.72 -3.13,4.08 -3.93,7.07 -0.81,2.99 -1.21,6.93 -1.21,11.83 0,4.89 0.4,8.88 1.21,11.97 0.81,3.08 2.12,5.44 3.93,7.07 1.81,1.63 4.13,2.77 6.96,3.4 2.82,0.63 6.32,0.95 10.49,0.95z"/>
  <polygon class="fil2" points="229.26,66.1 121.79,268.42 103.44,268.42 212.32,66.1 "/>
  <path class="fil1" d="M117.35 69.91c14.38,0 25.14,3.72 32.26,11.15 7.13,7.43 10.69,19.31 10.69,35.62 0,16.5 -3.56,28.46 -10.69,35.89 -7.12,7.43 -17.88,11.15 -32.26,11.15 -14.52,0 -25.34,-3.72 -32.47,-11.15 -7.12,-7.43 -10.69,-19.4 -10.69,-35.89 0,-16.32 3.56,-28.19 10.69,-35.62 7.13,-7.43 17.95,-11.15 32.47,-11.15zm0 70.16c4.03,0 7.49,-0.32 10.38,-0.95 2.89,-0.63 5.21,-1.77 6.96,-3.4 1.75,-1.63 3.02,-3.99 3.83,-7.07 0.81,-3.08 1.21,-7.07 1.21,-11.96 0,-4.9 -0.4,-8.84 -1.21,-11.83 -0.81,-2.99 -2.08,-5.35 -3.83,-7.07 -1.75,-1.72 -4.07,-2.86 -6.96,-3.4 -2.89,-0.54 -6.35,-0.82 -10.38,-0.82 -4.17,0 -7.66,0.27 -10.49,0.82 -2.82,0.54 -5.14,1.68 -6.96,3.4 -1.82,1.72 -3.13,4.08 -3.93,7.07 -0.81,2.99 -1.21,6.93 -1.21,11.83 0,4.89 0.4,8.88 1.21,11.96 0.81,3.08 2.12,5.44 3.93,7.07 1.81,1.63 4.13,2.76 6.96,3.4 2.82,0.63 6.32,0.95 10.49,0.95z"/>
 </g>
</svg>
