<?xml version="1.0" encoding="UTF-8"?>
<!DOCTYPE svg PUBLIC "-//W3C//DTD SVG 1.1//EN" "http://www.w3.org/Graphics/SVG/1.1/DTD/svg11.dtd">
<!-- Creator: CorelDRAW 2018 (64-Bit Evaluation Version) -->
<svg xmlns="http://www.w3.org/2000/svg" xml:space="preserve" width="35mm" height="35mm" version="1.1" style="shape-rendering:geometricPrecision; text-rendering:geometricPrecision; image-rendering:optimizeQuality; fill-rule:evenodd; clip-rule:evenodd"
viewBox="0 0 15613.45 15613.45"
 xmlns:xlink="http://www.w3.org/1999/xlink">
 <defs>
  <style type="text/css">
   <![CDATA[
    .fil3 {fill:none}
    .fil1 {fill:#3B9CFF}
    .fil2 {fill:#00C2FF}
    .fil0 {fill:none}
   ]]>
  </style>
 </defs>
 <g id="Layer_x0020_1">
  <metadata id="CorelCorpID_0Corel-Layer"/>
  <rect class="fil0" x="0" y="0" width="15613.45" height="15613.45" rx="3085.33" ry="3085.33"/>
  <g id="_1956435802704">
   <path class="fil1" d="M9800.83 6365.92c0,-7 222.38,-448.82 253.74,-518.77 77.44,-172.68 152.52,-378.16 209.4,-567.39 123.39,-410.59 211.27,-836.97 290.14,-1274.82 248.16,0.67 526.8,-7.45 766.84,5.35 -7.94,68.21 -102.83,284.7 -134.01,356.83 -210.11,486.29 -401.89,828.14 -703.81,1249.61 -70.84,98.9 -136.55,177.99 -213.77,268.64 -82.22,96.58 -325.16,362.68 -410.9,436.55 -17.04,14.68 -52.33,31.85 -57.64,43.99zm-4243.07 -510.52l250.31 510.65c-4.82,-10.3 -44.92,-33.23 -63.52,-50.32l-358.13 -371.29c-282.07,-304.46 -630.83,-862.44 -816.4,-1254.74 -58.93,-124.6 -270.16,-570.78 -282.02,-683.96l766.71 0.4c120.49,613.79 243.48,1282.85 503.07,1849.26zm1712.17 2017.48c19.67,84.89 6.74,1133.22 6.74,1313.14 0,359.33 81.99,764.88 -258.96,896.08 -44.43,17.09 -110.19,19.63 -141.19,33.46 -16.51,53.8 -16.28,383.06 -3.57,434.01l1390.31 16.37c107.06,0 379.94,12.94 467.56,-6.38l4.73 -338.32c0.09,-10.08 0.49,-51.84 -0.36,-59.06 -13.7,-111.21 -98.59,-12.36 -253.07,-136.1 -219.53,-175.9 -156.36,-473.27 -156.36,-828.27 0,-135.44 -9.95,-1282.58 3.52,-1310.82 41.58,-44.43 149.18,-57.55 216.98,-77.04l446.1 -165.46c61.34,-27.12 153.19,-64.24 209.84,-96.58 241.96,-138.02 326.95,-166.62 574.57,-331.18 301.12,-200.12 661.88,-513.82 887.16,-772.15 27.61,-31.63 47.78,-44.21 74.01,-78.6 25.52,-33.41 47.38,-50.05 71.69,-81.19 379.01,-485.67 464.08,-590.14 785.8,-1191.48 109.74,-205.07 515.51,-1074.29 486.02,-1316.17 -20.39,-167.29 -139.45,-294.11 -258.11,-351.57 -245.35,-118.84 -1096.82,-9.06 -1158.87,-62.77 -32.34,-27.97 34.13,-250.22 7.63,-338.41l-5735.31 -2.81c-25.16,85.65 10.57,200.88 17.98,283 8.3,92.3 0.76,66.16 -244.95,66.16 -207.84,0 -415.76,0.54 -623.6,-0.09 -412.51,-1.29 -649.43,263.06 -520.6,653.18 273.64,828.67 602.59,1433.18 1076.66,2064.68 164.7,219.39 465.95,545.49 678.38,733.25 284.08,251.11 681.86,528.76 1037.85,703.5 142.53,69.95 283.27,130.13 433.96,190.04 179.38,71.29 362.68,112.6 477.46,157.61z"/>
   <path class="fil2" d="M6033.97 10735.85l-4.95 2015.61c-7.05,27.79 -6.11,19.23 -10.88,28.59 -311.78,19.23 -417.68,-1.65 -393.73,431.91 2.54,45.73 -10.08,54.83 38.5,54.83l4309.09 -2.54 11.87 -65.22c9.46,-203.82 11.46,-411.53 -237.55,-413.4 -164.25,-1.2 -126.02,53 -126.02,-352.11l-4.1 -1704.14 -3582.22 6.47z"/>
   <path class="fil2" d="M4792.66 2357.1c-246.34,40.06 -270.2,420.31 -32.61,495.21 87.75,27.66 2393.36,11.42 2597.23,11.42 86.68,0 3371.26,11.87 3463.11,-4.28 244.02,-42.96 274.04,-419.51 29.22,-496.64 -89.62,-28.19 -3927.59,-10.88 -4327.74,-10.88 -137.35,0 -1634.01,-10.3 -1729.21,5.17z"/>
   <path class="fil3" d="M9800.83 6365.92c5.31,-12.13 40.59,-29.31 57.64,-43.99 85.74,-73.87 328.69,-339.97 410.9,-436.55 77.22,-90.65 142.93,-169.74 213.77,-268.64 301.92,-421.47 493.7,-763.32 703.81,-1249.61 31.18,-72.13 126.07,-288.63 134.01,-356.83 -240.05,-12.8 -518.68,-4.68 -766.84,-5.35 -78.87,437.85 -166.75,864.23 -290.14,1274.82 -56.88,189.24 -131.96,394.71 -209.4,567.39 -31.36,69.95 -253.74,511.76 -253.74,518.77z"/>
   <path class="fil3" d="M5808.07 6366.05l-250.31 -510.65c-259.58,-566.41 -382.57,-1235.47 -503.07,-1849.26l-766.71 -0.4c11.87,113.18 223.09,559.36 282.02,683.96 185.58,392.3 534.34,950.28 816.4,1254.74l358.13 371.29c18.6,17.09 58.71,40.02 63.52,50.32z"/>
  </g>
 </g>
</svg>
