<?xml version="1.0" encoding="UTF-8"?>
<!DOCTYPE svg PUBLIC "-//W3C//DTD SVG 1.1//EN" "http://www.w3.org/Graphics/SVG/1.1/DTD/svg11.dtd">
<!-- Creator: CorelDRAW X6 -->
<svg xmlns="http://www.w3.org/2000/svg" xml:space="preserve" width="14.2582mm" height="30mm" version="1.1" style="shape-rendering:geometricPrecision; text-rendering:geometricPrecision; image-rendering:optimizeQuality; fill-rule:evenodd; clip-rule:evenodd"
viewBox="0 0 487 1024"
 xmlns:xlink="http://www.w3.org/1999/xlink">
 <defs>
  <style type="text/css">
   <![CDATA[
    .fil0 {fill:#FDE89E}
   ]]>
  </style>
 </defs>
 <g id="Layer_x0020_1">
  <metadata id="CorelCorpID_0Corel-Layer"/>
  <g id="_616762064">
   <path class="fil0" d="M347 592c20,-5 38,-3 52,6 13,9 17,20 25,37 6,14 25,84 24,101 -2,27 -25,44 -47,49l-94 29c-10,2 -12,1 -23,6 -48,19 -75,-27 -82,-69 -2,-16 -21,-54 -19,-74 3,-37 35,-49 68,-57 10,-2 14,-6 24,-8 10,-2 13,-1 24,-5 9,-4 36,-13 48,-15zm-203 -53c-10,-7 -17,-17 -21,-31 -11,-45 -22,-45 53,-80 7,-3 11,-6 17,-9 25,-10 38,-11 59,-17 9,-3 82,-11 90,-10 16,3 22,14 25,28 3,15 13,29 8,43 -9,26 -73,5 -162,44 -19,9 -60,31 -69,32zm64 -447c40,-8 59,17 71,51 4,11 4,13 6,26 3,13 5,12 9,23 5,15 12,36 8,52 -5,14 -17,31 -28,38 -8,5 -87,25 -94,28 -30,13 -69,26 -96,4 -8,-7 -19,-24 -22,-38 -24,-91 -55,-129 51,-155l95 -29zm-97 -14c-22,22 -63,6 -96,55 -25,36 -14,79 1,118 15,38 6,65 54,98 52,36 97,-3 121,-2l8 24c-28,39 -148,32 -115,139 43,138 130,15 159,28 11,11 12,20 14,41 -13,3 -46,12 -56,17 -37,18 -62,62 -56,95 2,9 6,19 8,30l27 85c9,20 17,29 35,40 72,46 118,-36 130,22 7,32 14,45 23,83l16 53c4,11 4,18 15,20 11,2 16,-5 22,-11 3,-43 -51,-153 -42,-181 7,-10 58,-2 93,-52 31,-46 4,-89 -3,-118 -13,-59 -37,-118 -112,-112 -19,2 -43,15 -61,16 -5,-16 -18,-33 -8,-43l4 -2c9,-3 76,-3 97,-16 13,-8 18,-20 23,-36 5,-16 -2,-36 -7,-53 -8,-33 -21,-59 -59,-61 -58,-2 -90,13 -111,9l-7 -25c24,-16 72,-14 97,-54 27,-44 10,-74 -1,-121 -8,-39 -20,-75 -54,-97 -53,-35 -106,6 -117,1 -17,-11 -11,-75 -43,-67 -30,7 1,58 1,77z"/>
   <path class="fil0" d="M264 765c25,-4 44,17 84,7 39,-9 42,-35 53,-40 9,-4 23,7 26,-14 4,-19 -3,-25 -20,-26 -30,-2 -39,9 -51,33 -1,1 -1,2 -1,2l-2 4c-20,15 -78,-7 -85,-6 -27,1 -53,24 -41,54 19,13 28,-5 37,-14z"/>
   <path class="fil0" d="M98 201c37,-4 39,15 91,3 12,-3 28,-12 32,-19 14,-22 -2,-18 28,-22 34,-4 10,-51 -31,-34 -34,14 -15,44 -59,44 -24,0 -50,-20 -77,-8 -31,15 -28,47 -14,53 17,2 21,-9 30,-17z"/>
   <path class="fil0" d="M250 236c1,-1 50,-3 31,-31 -1,-2 -10,-8 -14,-10 -38,-12 -52,26 -56,32 -12,20 -52,10 -73,4 -24,-7 -56,6 -57,29 3,3 17,10 20,11 11,4 11,0 20,-3 13,-4 24,7 47,7 72,3 71,-23 82,-39z"/>
   <path class="fil0" d="M405 661c9,-41 -21,-43 -37,-37 -28,9 -24,31 -41,40 -24,13 -45,-2 -69,-5 -24,-2 -50,8 -53,31l30 12c20,-5 4,-12 30,-2 9,3 25,5 34,5 64,0 63,-21 78,-42l28 -2z"/>
  </g>
 </g>
</svg>
