<?xml version="1.0" encoding="UTF-8"?>
<!DOCTYPE svg PUBLIC "-//W3C//DTD SVG 1.1//EN" "http://www.w3.org/Graphics/SVG/1.1/DTD/svg11.dtd">
<!-- Creator: CorelDRAW X6 -->
<svg xmlns="http://www.w3.org/2000/svg" xml:space="preserve" width="28.3503mm" height="30mm" version="1.1" style="shape-rendering:geometricPrecision; text-rendering:geometricPrecision; image-rendering:optimizeQuality; fill-rule:evenodd; clip-rule:evenodd"
viewBox="0 0 953 1008"
 xmlns:xlink="http://www.w3.org/1999/xlink">
 <defs>
  <style type="text/css">
   <![CDATA[
    .fil0 {fill:#FDE89E}
   ]]>
  </style>
 </defs>
 <g id="Layer_x0020_1">
  <metadata id="CorelCorpID_0Corel-Layer"/>
  <g id="_631056024">
   <path class="fil0" d="M95 779c17,0 29,9 38,4 13,-8 49,-60 64,-68 17,5 15,5 35,9 56,10 35,11 47,51 10,37 16,13 -14,51 -5,7 -7,9 -12,14 -46,46 -17,32 -17,71 0,70 -80,89 -114,40 -15,-22 -7,-27 -15,-38 -8,-13 -23,-5 -38,-12 -65,-31 -45,-122 26,-122zm127 -247l15 -84 32 -98c3,-6 6,-14 10,-22 12,-29 39,-75 58,-103 5,-7 10,-12 14,-19 9,-13 51,-59 62,-68 68,-62 128,-105 229,-105 105,0 202,79 248,160 4,8 3,4 7,12 2,6 3,8 5,12 31,66 25,158 -9,219 -21,40 -23,45 -50,82 -14,18 -55,63 -72,78l-17 16c-27,24 -75,57 -109,74l-67 32c-28,13 -97,33 -127,38 -11,2 -15,6 -27,7 -22,3 -94,18 -111,14 -4,-10 -6,-27 -9,-39 -17,-56 -58,-30 -92,-53l-1 -33 11 -120zm371 -528c-10,3 -13,4 -24,6 -15,2 -53,18 -67,25 -27,13 -56,33 -75,48 -12,10 -23,20 -33,29l-22 23c-46,47 -77,97 -109,154 -25,46 -55,138 -61,185 -2,10 -5,15 -7,24l-9 83c-1,23 0,98 -12,112l-44 48c-7,7 -10,8 -21,7 -41,-3 -71,13 -87,34 -15,20 -15,16 -20,42 -7,40 4,64 31,90 12,12 23,12 41,21 21,10 1,5 25,36 8,11 18,19 34,28 28,16 70,11 94,-7 25,-18 42,-47 41,-81 0,-23 -13,-28 2,-44 13,-15 47,-56 63,-60 18,-4 34,-1 55,-7l51 -10c9,-2 18,-1 27,-4 46,-14 69,-18 117,-37 29,-12 59,-25 84,-39 57,-32 67,-43 108,-76 29,-23 68,-66 91,-95 75,-97 126,-231 48,-367 -8,-13 -17,-26 -25,-37 -13,-19 -43,-48 -61,-62 -29,-21 -63,-45 -99,-55 -12,-3 -10,-6 -23,-8 -34,-5 -77,-16 -113,-6z"/>
   <path class="fil0" d="M280 483c-23,8 -30,72 0,55 8,-5 13,-22 18,-32 6,-12 -4,-28 -18,-23z"/>
   <path class="fil0" d="M497 128l-19 -3c-4,7 -6,7 -9,12 -7,14 -19,40 1,45 15,3 19,-11 23,-21 7,-15 11,-15 4,-33z"/>
   <path class="fil0" d="M349 353c-23,18 -24,69 4,52 5,-2 15,-24 18,-32 3,-14 -8,-31 -22,-20z"/>
   <path class="fil0" d="M550 277c-8,4 -16,24 -18,33 -4,19 16,48 39,-13 5,-12 -7,-26 -21,-20z"/>
   <path class="fil0" d="M746 299c-36,-24 -40,39 -39,42 9,28 45,-12 39,-42z"/>
   <path class="fil0" d="M576 141c0,0 17,23 30,5 28,-40 1,-63 -15,-41 -4,6 -13,28 -15,36z"/>
   <path class="fil0" d="M699 174c35,22 40,-39 40,-40 -5,-15 -25,-10 -31,1 -9,19 -10,21 -9,39z"/>
   <path class="fil0" d="M814 257c21,3 21,-2 29,-18 6,-11 11,-28 0,-35 -17,-11 -29,23 -33,35 -3,9 1,12 4,18z"/>
   <path class="fil0" d="M368 557c-18,8 -30,67 2,51 8,-4 14,-21 18,-31 5,-15 -6,-27 -20,-20z"/>
  </g>
 </g>
</svg>
