<?xml version="1.0" encoding="UTF-8"?>
<!DOCTYPE svg PUBLIC "-//W3C//DTD SVG 1.1//EN" "http://www.w3.org/Graphics/SVG/1.1/DTD/svg11.dtd">
<!-- Creator: CorelDRAW X6 -->
<svg xmlns="http://www.w3.org/2000/svg" xml:space="preserve" width="200mm" height="200mm" version="1.1" style="shape-rendering:geometricPrecision; text-rendering:geometricPrecision; image-rendering:optimizeQuality; fill-rule:evenodd; clip-rule:evenodd"
viewBox="0 0 20299 20299"
 xmlns:xlink="http://www.w3.org/1999/xlink">
 <defs>
  <style type="text/css">
   <![CDATA[
    .fil1 {fill:#4C57FF}
    .fil0 {fill:#13ECAB;fill-rule:nonzero}
   ]]>
  </style>
 </defs>
 <g id="Layer_x0020_1">
  <metadata id="CorelCorpID_0Corel-Layer"/>
  <g>
   <path class="fil0" d="M4432 17648l1749 2188 -182 227 -1749 -2187 0 -228 182 0zm-182 228l-91 -114 91 -114 0 228zm1931 -2188l-1749 2188 -182 -228 1749 -2187 182 0 0 227zm-182 -227l91 -114 91 114 -182 0zm1750 2415l-1750 -2188 182 -227 1750 2187 0 228 -182 0zm182 -228l91 114 -91 114 0 -228zm-1932 2188l1750 -2188 182 228 -1750 2187 -182 0 0 -227zm182 227l-91 114 -91 -114 182 0z"/>
  </g>
  <g>
   <path class="fil0" d="M372 12573l1750 2188 -182 227 -1750 -2187 0 -228 182 0zm-182 228l-90 -114 90 -114 0 228zm1932 -2188l-1750 2188 -182 -228 1750 -2187 182 0 0 227zm-182 -227l91 -114 91 114 -182 0zm1750 2415l-1750 -2188 182 -227 1750 2187 0 228 -182 0zm182 -228l91 114 -91 114 0 -228zm-1932 2188l1750 -2188 182 228 -1750 2187 -182 0 0 -227zm182 227l-91 114 -91 -114 182 0z"/>
  </g>
  <g>
   <path class="fil0" d="M12550 17648l1750 2188 -182 227 -1750 -2187 0 -228 182 0zm-182 228l-91 -114 91 -114 0 228zm1932 -2188l-1750 2188 -182 -228 1750 -2187 182 0 0 227zm-182 -227l91 -114 91 114 -182 0zm1750 2415l-1750 -2188 182 -227 1750 2187 0 228 -182 0zm182 -228l90 114 -90 114 0 -228zm-1932 2188l1750 -2188 182 228 -1750 2187 -182 0 0 -227zm182 227l-91 114 -91 -114 182 0z"/>
  </g>
  <g>
   <path class="fil0" d="M8491 12573l1750 2188 -182 227 -1750 -2187 0 -228 182 0zm-182 228l-91 -114 91 -114 0 228zm1932 -2188l-1750 2188 -182 -228 1750 -2187 182 0 0 227zm-182 -227l91 -114 91 114 -182 0zm1749 2415l-1749 -2188 182 -227 1749 2187 0 228 -182 0zm182 -228l91 114 -91 114 0 -228zm-1931 2188l1749 -2188 182 228 -1749 2187 -182 0 0 -227zm182 227l-91 114 -91 -114 182 0z"/>
  </g>
  <g>
   <path class="fil0" d="M4432 7499l1749 2187 -182 228 -1749 -2188 0 -227 182 0zm-182 227l-91 -114 91 -113 0 227zm1931 -2187l-1749 2187 -182 -227 1749 -2188 182 0 0 228zm-182 -228l91 -114 91 114 -182 0zm1750 2415l-1750 -2187 182 -228 1750 2188 0 227 -182 0zm182 -227l91 113 -91 114 0 -227zm-1932 2187l1750 -2187 182 227 -1750 2188 -182 0 0 -228zm182 228l-91 113 -91 -113 182 0z"/>
  </g>
  <g>
   <path class="fil0" d="M372 2424l1750 2187 -182 228 -1750 -2188 0 -227 182 0zm-182 227l-90 -114 90 -113 0 227zm1932 -2187l-1750 2187 -182 -227 1750 -2188 182 0 0 228zm-182 -228l91 -113 91 113 -182 0zm1750 2415l-1750 -2187 182 -228 1750 2188 0 227 -182 0zm182 -227l91 113 -91 114 0 -227zm-1932 2187l1750 -2187 182 227 -1750 2188 -182 0 0 -228zm182 228l-91 113 -91 -113 182 0z"/>
  </g>
  <g>
   <g>
    <path class="fil0" d="M1089 2424l1033 1291 -182 228 -1033 -1292 0 -227 182 0zm-182 227l-91 -113 91 -114 0 227zm1215 -1291l-1033 1291 -182 -227 1033 -1292 182 0 0 228zm-182 -228l91 -113 91 113 -182 0zm1033 1519l-1033 -1291 182 -228 1033 1292 0 227 -182 0zm182 -227l91 114 -91 113 0 -227zm-1215 1291l1033 -1291 182 227 -1033 1292 -182 0 0 -228zm182 228l-91 113 -91 -113 182 0z"/>
   </g>
   <g>
    <path class="fil0" d="M1785 2424l337 422 -182 227 -337 -422 0 -227 182 0zm-182 227l-91 -113 91 -114 0 227zm519 -422l-337 422 -182 -227 337 -422 182 0 0 227zm-182 -227l91 -114 91 114 -182 0zm338 649l-338 -422 182 -227 338 422 0 227 -182 0zm182 -227l91 114 -91 113 0 -227zm-520 422l338 -422 182 227 -338 422 -182 0 0 -227zm182 227l-91 114 -91 -114 182 0z"/>
   </g>
  </g>
  <g>
   <g>
    <path class="fil0" d="M5148 2424l1033 1291 -182 227 -1032 -1291 0 -227 181 0zm-181 227l-91 -114 91 -113 0 227zm1214 -1291l-1033 1291 -181 -227 1032 -1292 182 0 0 228zm-182 -228l91 -113 91 113 -182 0zm1033 1519l-1033 -1291 182 -228 1033 1292 0 227 -182 0zm182 -227l91 113 -91 114 0 -227zm-1215 1291l1033 -1291 182 227 -1033 1291 -182 0 0 -227zm182 227l-91 114 -91 -114 182 0z"/>
   </g>
   <g>
    <path class="fil0" d="M5844 2424l337 422 -182 227 -337 -422 0 -227 182 0zm-182 227l-91 -114 91 -113 0 227zm519 -422l-337 422 -182 -227 337 -422 182 0 0 227zm-182 -227l91 -114 91 114 -182 0zm338 649l-338 -422 182 -227 338 422 0 227 -182 0zm182 -227l91 113 -91 114 0 -227zm-520 422l338 -422 182 227 -338 422 -182 0 0 -227zm182 227l-91 114 -91 -114 182 0z"/>
   </g>
  </g>
  <g>
   <g>
    <path class="fil0" d="M9208 2424l1033 1291 -182 228 -1033 -1292 0 -227 182 0zm-182 227l-91 -113 91 -114 0 227zm1215 -1291l-1033 1291 -182 -227 1033 -1292 182 0 0 228zm-182 -228l91 -113 91 113 -182 0zm1033 1519l-1033 -1291 182 -228 1033 1292 0 227 -182 0zm182 -227l90 114 -90 113 0 -227zm-1215 1291l1033 -1291 182 227 -1033 1292 -182 0 0 -228zm182 228l-91 113 -91 -113 182 0z"/>
   </g>
   <g>
    <path class="fil0" d="M9903 2424l338 422 -182 227 -338 -422 0 -227 182 0zm-182 227l-91 -113 91 -114 0 227zm520 -422l-338 422 -182 -227 338 -422 182 0 0 227zm-182 -227l91 -114 91 114 -182 0zm337 649l-337 -422 182 -227 337 422 0 227 -182 0zm182 -227l91 114 -91 113 0 -227zm-519 422l337 -422 182 227 -337 422 -182 0 0 -227zm182 227l-91 114 -91 -114 182 0z"/>
   </g>
  </g>
  <g>
   <g>
    <path class="fil0" d="M13267 2424l1033 1291 -182 227 -1033 -1291 0 -227 182 0zm-182 227l-91 -114 91 -113 0 227zm1215 -1291l-1033 1291 -182 -227 1033 -1292 182 0 0 228zm-182 -228l91 -113 91 113 -182 0zm1033 1519l-1033 -1291 182 -228 1033 1292 0 227 -182 0zm182 -227l91 113 -91 114 0 -227zm-1215 1291l1033 -1291 182 227 -1033 1291 -182 0 0 -227zm182 227l-91 114 -91 -114 182 0z"/>
   </g>
   <g>
    <path class="fil0" d="M13962 2424l338 422 -182 227 -338 -422 0 -227 182 0zm-182 227l-91 -114 91 -113 0 227zm520 -422l-338 422 -182 -227 338 -422 182 0 0 227zm-182 -227l91 -114 91 114 -182 0zm337 649l-337 -422 182 -227 337 422 0 227 -182 0zm182 -227l91 113 -91 114 0 -227zm-519 422l337 -422 182 227 -337 422 -182 0 0 -227zm182 227l-91 114 -91 -114 182 0z"/>
   </g>
  </g>
  <g>
   <g>
    <path class="fil0" d="M17326 2424l1033 1291 -182 228 -1033 -1292 0 -227 182 0zm-182 227l-91 -113 91 -114 0 227zm1215 -1291l-1033 1291 -182 -227 1033 -1292 182 0 0 228zm-182 -228l91 -113 91 113 -182 0zm1033 1519l-1033 -1291 182 -228 1033 1292 0 227 -182 0zm182 -227l91 114 -91 113 0 -227zm-1215 1291l1033 -1291 182 227 -1033 1292 -182 0 0 -228zm182 228l-91 113 -91 -113 182 0z"/>
   </g>
   <g>
    <path class="fil0" d="M18022 2424l337 422 -182 227 -337 -422 0 -227 182 0zm-182 227l-91 -113 91 -114 0 227zm519 -422l-337 422 -182 -227 337 -422 182 0 0 227zm-182 -227l91 -114 91 114 -182 0zm338 649l-338 -422 182 -227 338 422 0 227 -182 0zm182 -227l91 114 -91 113 0 -227zm-520 422l338 -422 182 227 -338 422 -182 0 0 -227zm182 227l-91 114 -91 -114 182 0z"/>
   </g>
  </g>
  <g>
   <g>
    <path class="fil0" d="M17326 7498l1033 1292 -182 227 -1033 -1291 0 -228 182 0zm-182 228l-91 -114 91 -114 0 228zm1215 -1292l-1033 1292 -182 -228 1033 -1291 182 0 0 227zm-182 -227l91 -114 91 114 -182 0zm1033 1519l-1033 -1292 182 -227 1033 1291 0 228 -182 0zm182 -228l91 114 -91 114 0 -228zm-1215 1292l1033 -1292 182 228 -1033 1291 -182 0 0 -227zm182 227l-91 114 -91 -114 182 0z"/>
   </g>
   <g>
    <path class="fil0" d="M18022 7498l337 422 -182 228 -337 -422 0 -228 182 0zm-182 228l-91 -114 91 -114 0 228zm519 -422l-337 422 -182 -228 337 -422 182 0 0 228zm-182 -228l91 -113 91 113 -182 0zm338 650l-338 -422 182 -228 338 422 0 228 -182 0zm182 -228l91 114 -91 114 0 -228zm-520 422l338 -422 182 228 -338 422 -182 0 0 -228zm182 228l-91 114 -91 -114 182 0z"/>
   </g>
  </g>
  <g>
   <g>
    <path class="fil0" d="M13267 7499l1033 1291 -182 227 -1033 -1291 0 -227 182 0zm-182 227l-91 -114 91 -113 0 227zm1215 -1291l-1033 1291 -182 -227 1033 -1292 182 0 0 228zm-182 -228l91 -113 91 113 -182 0zm1033 1519l-1033 -1291 182 -228 1033 1292 0 227 -182 0zm182 -227l91 113 -91 114 0 -227zm-1215 1291l1033 -1291 182 227 -1033 1291 -182 0 0 -227zm182 227l-91 114 -91 -114 182 0z"/>
   </g>
   <g>
    <path class="fil0" d="M13962 7499l338 422 -182 227 -338 -422 0 -227 182 0zm-182 227l-91 -114 91 -113 0 227zm520 -422l-338 422 -182 -227 338 -422 182 0 0 227zm-182 -227l91 -114 91 114 -182 0zm337 649l-337 -422 182 -227 337 422 0 227 -182 0zm182 -227l91 113 -91 114 0 -227zm-519 422l337 -422 182 227 -337 422 -182 0 0 -227zm182 227l-91 114 -91 -114 182 0z"/>
   </g>
  </g>
  <g>
   <g>
    <path class="fil0" d="M9208 7498l1033 1292 -182 227 -1033 -1291 0 -228 182 0zm-182 228l-91 -114 91 -114 0 228zm1215 -1292l-1033 1292 -182 -228 1033 -1291 182 0 0 227zm-182 -227l91 -114 91 114 -182 0zm1033 1519l-1033 -1292 182 -227 1033 1291 0 228 -182 0zm182 -228l90 114 -90 114 0 -228zm-1215 1292l1033 -1292 182 228 -1033 1291 -182 0 0 -227zm182 227l-91 114 -91 -114 182 0z"/>
   </g>
   <g>
    <path class="fil0" d="M9903 7498l338 422 -182 228 -338 -422 0 -228 182 0zm-182 228l-91 -114 91 -114 0 228zm520 -422l-338 422 -182 -228 338 -422 182 0 0 228zm-182 -228l91 -113 91 113 -182 0zm337 650l-337 -422 182 -228 337 422 0 228 -182 0zm182 -228l91 114 -91 114 0 -228zm-519 422l337 -422 182 228 -337 422 -182 0 0 -228zm182 228l-91 114 -91 -114 182 0z"/>
   </g>
  </g>
  <g>
   <g>
    <path class="fil0" d="M5148 7499l1033 1291 -182 227 -1032 -1291 0 -227 181 0zm-181 227l-91 -114 91 -113 0 227zm1214 -1291l-1033 1291 -181 -227 1032 -1292 182 0 0 228zm-182 -228l91 -113 91 113 -182 0zm1033 1519l-1033 -1291 182 -228 1033 1292 0 227 -182 0zm182 -227l91 113 -91 114 0 -227zm-1215 1291l1033 -1291 182 227 -1033 1291 -182 0 0 -227zm182 227l-91 114 -91 -114 182 0z"/>
   </g>
   <g>
    <path class="fil0" d="M5844 7499l337 422 -182 227 -337 -422 0 -227 182 0zm-182 227l-91 -114 91 -113 0 227zm519 -422l-337 422 -182 -227 337 -422 182 0 0 227zm-182 -227l91 -114 91 114 -182 0zm338 649l-338 -422 182 -227 338 422 0 227 -182 0zm182 -227l91 113 -91 114 0 -227zm-520 422l338 -422 182 227 -338 422 -182 0 0 -227zm182 227l-91 114 -91 -114 182 0z"/>
   </g>
  </g>
  <g>
   <g>
    <path class="fil0" d="M1089 7498l1033 1292 -182 227 -1033 -1291 0 -228 182 0zm-182 228l-91 -114 91 -114 0 228zm1215 -1292l-1033 1292 -182 -228 1033 -1291 182 0 0 227zm-182 -227l91 -114 91 114 -182 0zm1033 1519l-1033 -1292 182 -227 1033 1291 0 228 -182 0zm182 -228l91 114 -91 114 0 -228zm-1215 1292l1033 -1292 182 228 -1033 1291 -182 0 0 -227zm182 227l-91 114 -91 -114 182 0z"/>
   </g>
   <g>
    <path class="fil0" d="M1785 7498l337 422 -182 228 -337 -422 0 -228 182 0zm-182 228l-91 -114 91 -114 0 228zm519 -422l-337 422 -182 -228 337 -422 182 0 0 228zm-182 -228l91 -113 91 113 -182 0zm338 650l-338 -422 182 -228 338 422 0 228 -182 0zm182 -228l91 114 -91 114 0 -228zm-520 422l338 -422 182 228 -338 422 -182 0 0 -228zm182 228l-91 114 -91 -114 182 0z"/>
   </g>
  </g>
  <g>
   <g>
    <path class="fil0" d="M1089 12573l1033 1292 -182 227 -1033 -1291 0 -228 182 0zm-182 228l-91 -114 91 -114 0 228zm1215 -1292l-1033 1292 -182 -228 1033 -1291 182 0 0 227zm-182 -227l91 -114 91 114 -182 0zm1033 1519l-1033 -1292 182 -227 1033 1291 0 228 -182 0zm182 -228l91 114 -91 114 0 -228zm-1215 1292l1033 -1292 182 228 -1033 1291 -182 0 0 -227zm182 227l-91 114 -91 -114 182 0z"/>
   </g>
   <g>
    <path class="fil0" d="M1785 12573l337 422 -182 228 -337 -422 0 -228 182 0zm-182 228l-91 -114 91 -114 0 228zm519 -422l-337 422 -182 -228 337 -422 182 0 0 228zm-182 -228l91 -113 91 113 -182 0zm338 650l-338 -422 182 -228 338 422 0 228 -182 0zm182 -228l91 114 -91 114 0 -228zm-520 422l338 -422 182 228 -338 422 -182 0 0 -228zm182 228l-91 114 -91 -114 182 0z"/>
   </g>
  </g>
  <g>
   <g>
    <path class="fil0" d="M5148 12573l1033 1292 -182 227 -1032 -1291 0 -228 181 0zm-181 228l-91 -114 91 -114 0 228zm1214 -1292l-1033 1292 -181 -228 1032 -1291 182 0 0 227zm-182 -227l91 -114 91 114 -182 0zm1033 1519l-1033 -1292 182 -227 1033 1291 0 228 -182 0zm182 -228l91 114 -91 114 0 -228zm-1215 1292l1033 -1292 182 228 -1033 1291 -182 0 0 -227zm182 227l-91 114 -91 -114 182 0z"/>
   </g>
   <g>
    <path class="fil0" d="M5844 12573l337 422 -182 228 -337 -422 0 -228 182 0zm-182 228l-91 -114 91 -114 0 228zm519 -422l-337 422 -182 -228 337 -422 182 0 0 228zm-182 -228l91 -113 91 113 -182 0zm338 650l-338 -422 182 -228 338 422 0 228 -182 0zm182 -228l91 114 -91 114 0 -228zm-520 422l338 -422 182 228 -338 422 -182 0 0 -228zm182 228l-91 113 -91 -113 182 0z"/>
   </g>
  </g>
  <g>
   <g>
    <path class="fil0" d="M9208 12573l1033 1292 -182 227 -1033 -1291 0 -228 182 0zm-182 228l-91 -114 91 -114 0 228zm1215 -1292l-1033 1292 -182 -228 1033 -1291 182 0 0 227zm-182 -227l91 -114 91 114 -182 0zm1033 1519l-1033 -1292 182 -227 1033 1291 0 228 -182 0zm182 -228l90 114 -90 114 0 -228zm-1215 1292l1033 -1292 182 228 -1033 1291 -182 0 0 -227zm182 227l-91 114 -91 -114 182 0z"/>
   </g>
   <g>
    <path class="fil0" d="M9903 12573l338 422 -182 228 -338 -422 0 -228 182 0zm-182 228l-91 -114 91 -114 0 228zm520 -422l-338 422 -182 -228 338 -422 182 0 0 228zm-182 -228l91 -113 91 113 -182 0zm337 650l-337 -422 182 -228 337 422 0 228 -182 0zm182 -228l91 114 -91 114 0 -228zm-519 422l337 -422 182 228 -337 422 -182 0 0 -228zm182 228l-91 114 -91 -114 182 0z"/>
   </g>
  </g>
  <g>
   <g>
    <path class="fil0" d="M13267 12573l1033 1292 -182 227 -1033 -1291 0 -228 182 0zm-182 228l-91 -114 91 -114 0 228zm1215 -1292l-1033 1292 -182 -228 1033 -1291 182 0 0 227zm-182 -227l91 -114 91 114 -182 0zm1033 1519l-1033 -1292 182 -227 1033 1291 0 228 -182 0zm182 -228l91 114 -91 114 0 -228zm-1215 1292l1033 -1292 182 228 -1033 1291 -182 0 0 -227zm182 227l-91 114 -91 -114 182 0z"/>
   </g>
   <g>
    <path class="fil0" d="M13962 12573l338 422 -182 228 -338 -422 0 -228 182 0zm-182 228l-91 -114 91 -114 0 228zm520 -422l-338 422 -182 -228 338 -422 182 0 0 228zm-182 -228l91 -113 91 113 -182 0zm337 650l-337 -422 182 -228 337 422 0 228 -182 0zm182 -228l91 114 -91 114 0 -228zm-519 422l337 -422 182 228 -337 422 -182 0 0 -228zm182 228l-91 113 -91 -113 182 0z"/>
   </g>
  </g>
  <g>
   <g>
    <path class="fil0" d="M17326 12573l1033 1292 -182 227 -1033 -1291 0 -228 182 0zm-182 228l-91 -114 91 -114 0 228zm1215 -1292l-1033 1292 -182 -228 1033 -1291 182 0 0 227zm-182 -227l91 -114 91 114 -182 0zm1033 1519l-1033 -1292 182 -227 1033 1291 0 228 -182 0zm182 -228l91 114 -91 114 0 -228zm-1215 1292l1033 -1292 182 228 -1033 1291 -182 0 0 -227zm182 227l-91 114 -91 -114 182 0z"/>
   </g>
   <g>
    <path class="fil0" d="M18022 12573l337 422 -182 228 -337 -422 0 -228 182 0zm-182 228l-91 -114 91 -114 0 228zm519 -422l-337 422 -182 -228 337 -422 182 0 0 228zm-182 -228l91 -113 91 113 -182 0zm338 650l-338 -422 182 -228 338 422 0 228 -182 0zm182 -228l91 114 -91 114 0 -228zm-520 422l338 -422 182 228 -338 422 -182 0 0 -228zm182 228l-91 114 -91 -114 182 0z"/>
   </g>
  </g>
  <g>
   <g>
    <path class="fil0" d="M17326 17648l1033 1291 -182 228 -1033 -1292 0 -227 182 0zm-182 227l-91 -113 91 -114 0 227zm1215 -1291l-1033 1291 -182 -227 1033 -1291 182 0 0 227zm-182 -227l91 -114 91 114 -182 0zm1033 1518l-1033 -1291 182 -227 1033 1291 0 227 -182 0zm182 -227l91 114 -91 113 0 -227zm-1215 1291l1033 -1291 182 227 -1033 1292 -182 0 0 -228zm182 228l-91 114 -91 -114 182 0z"/>
   </g>
   <g>
    <path class="fil0" d="M18022 17648l337 422 -182 227 -337 -422 0 -227 182 0zm-182 227l-91 -113 91 -114 0 227zm519 -421l-337 421 -182 -227 337 -422 182 0 0 228zm-182 -228l91 -114 91 114 -182 0zm338 649l-338 -421 182 -228 338 422 0 227 -182 0zm182 -227l91 114 -91 113 0 -227zm-520 422l338 -422 182 227 -338 422 -182 0 0 -227zm182 227l-91 114 -91 -114 182 0z"/>
   </g>
  </g>
  <g>
   <g>
    <path class="fil0" d="M13267 17648l1033 1292 -182 227 -1033 -1291 0 -228 182 0zm-182 228l-91 -114 91 -114 0 228zm1215 -1292l-1033 1292 -182 -228 1033 -1291 182 0 0 227zm-182 -227l91 -114 91 114 -182 0zm1033 1519l-1033 -1292 182 -227 1033 1291 0 228 -182 0zm182 -228l91 114 -91 114 0 -228zm-1215 1292l1033 -1292 182 228 -1033 1291 -182 0 0 -227zm182 227l-91 114 -91 -114 182 0z"/>
   </g>
   <g>
    <path class="fil0" d="M13962 17648l338 422 -182 228 -338 -422 0 -228 182 0zm-182 228l-91 -114 91 -114 0 228zm520 -422l-338 422 -182 -228 338 -422 182 0 0 228zm-182 -228l91 -113 91 113 -182 0zm337 650l-337 -422 182 -228 337 422 0 228 -182 0zm182 -228l91 114 -91 114 0 -228zm-519 422l337 -422 182 228 -337 422 -182 0 0 -228zm182 228l-91 113 -91 -113 182 0z"/>
   </g>
  </g>
  <g>
   <g>
    <path class="fil0" d="M9208 17648l1033 1291 -182 228 -1033 -1292 0 -227 182 0zm-182 227l-91 -113 91 -114 0 227zm1215 -1291l-1033 1291 -182 -227 1033 -1291 182 0 0 227zm-182 -227l91 -114 91 114 -182 0zm1033 1518l-1033 -1291 182 -227 1033 1291 0 227 -182 0zm182 -227l90 114 -90 113 0 -227zm-1215 1291l1033 -1291 182 227 -1033 1292 -182 0 0 -228zm182 228l-91 114 -91 -114 182 0z"/>
   </g>
   <g>
    <path class="fil0" d="M9903 17648l338 422 -182 227 -338 -422 0 -227 182 0zm-182 227l-91 -113 91 -114 0 227zm520 -421l-338 421 -182 -227 338 -422 182 0 0 228zm-182 -228l91 -114 91 114 -182 0zm337 649l-337 -421 182 -228 337 422 0 227 -182 0zm182 -227l91 114 -91 113 0 -227zm-519 422l337 -422 182 227 -337 422 -182 0 0 -227zm182 227l-91 114 -91 -114 182 0z"/>
   </g>
  </g>
  <g>
   <g>
    <path class="fil0" d="M5148 17648l1033 1292 -182 227 -1032 -1291 0 -228 181 0zm-181 228l-91 -114 91 -114 0 228zm1214 -1292l-1033 1292 -181 -228 1032 -1291 182 0 0 227zm-182 -227l91 -114 91 114 -182 0zm1033 1519l-1033 -1292 182 -227 1033 1291 0 228 -182 0zm182 -228l91 114 -91 114 0 -228zm-1215 1292l1033 -1292 182 228 -1033 1291 -182 0 0 -227zm182 227l-91 114 -91 -114 182 0z"/>
   </g>
   <g>
    <path class="fil0" d="M5844 17648l337 422 -182 228 -337 -422 0 -228 182 0zm-182 228l-91 -114 91 -114 0 228zm519 -422l-337 422 -182 -228 337 -422 182 0 0 228zm-182 -228l91 -113 91 113 -182 0zm338 650l-338 -422 182 -228 338 422 0 228 -182 0zm182 -228l91 114 -91 114 0 -228zm-520 422l338 -422 182 228 -338 422 -182 0 0 -228zm182 228l-91 113 -91 -113 182 0z"/>
   </g>
  </g>
  <g>
   <g>
    <path class="fil0" d="M1089 17648l1033 1291 -182 228 -1033 -1292 0 -227 182 0zm-182 227l-91 -113 91 -114 0 227zm1215 -1291l-1033 1291 -182 -227 1033 -1291 182 0 0 227zm-182 -227l91 -114 91 114 -182 0zm1033 1518l-1033 -1291 182 -227 1033 1291 0 227 -182 0zm182 -227l91 114 -91 113 0 -227zm-1215 1291l1033 -1291 182 227 -1033 1292 -182 0 0 -228zm182 228l-91 114 -91 -114 182 0z"/>
   </g>
   <g>
    <path class="fil0" d="M1785 17648l337 422 -182 227 -337 -422 0 -227 182 0zm-182 227l-91 -113 91 -114 0 227zm519 -421l-337 421 -182 -227 337 -422 182 0 0 228zm-182 -228l91 -114 91 114 -182 0zm338 649l-338 -421 182 -228 338 422 0 227 -182 0zm182 -227l91 114 -91 113 0 -227zm-520 422l338 -422 182 227 -338 422 -182 0 0 -227zm182 227l-91 114 -91 -114 182 0z"/>
   </g>
  </g>
  <g>
   <path class="fil0" d="M16609 12573l1750 2188 -182 227 -1750 -2187 0 -228 182 0zm-182 228l-91 -114 91 -114 0 228zm1932 -2188l-1750 2188 -182 -228 1750 -2187 182 0 0 227zm-182 -227l91 -114 91 114 -182 0zm1750 2415l-1750 -2188 182 -227 1750 2187 0 228 -182 0zm182 -228l91 114 -91 114 0 -228zm-1932 2188l1750 -2188 182 228 -1750 2187 -182 0 0 -227zm182 227l-91 114 -91 -114 182 0z"/>
  </g>
  <g>
   <path class="fil0" d="M12550 7499l1750 2187 -182 228 -1750 -2188 0 -227 182 0zm-182 227l-91 -114 91 -113 0 227zm1932 -2187l-1750 2187 -182 -227 1750 -2188 182 0 0 228zm-182 -228l91 -114 91 114 -182 0zm1750 2415l-1750 -2187 182 -228 1750 2188 0 227 -182 0zm182 -227l90 113 -90 114 0 -227zm-1932 2187l1750 -2187 182 227 -1750 2188 -182 0 0 -228zm182 228l-91 113 -91 -113 182 0z"/>
  </g>
  <g>
   <path class="fil0" d="M8491 2424l1750 2187 -182 228 -1750 -2188 0 -227 182 0zm-182 227l-91 -114 91 -113 0 227zm1932 -2187l-1750 2187 -182 -227 1750 -2188 182 0 0 228zm-182 -228l91 -113 91 113 -182 0zm1749 2415l-1749 -2187 182 -228 1749 2188 0 227 -182 0zm182 -227l91 113 -91 114 0 -227zm-1931 2187l1749 -2187 182 227 -1749 2188 -182 0 0 -228zm182 228l-91 113 -91 -113 182 0z"/>
  </g>
  <g>
   <path class="fil0" d="M16609 2424l1750 2187 -182 228 -1750 -2188 0 -227 182 0zm-182 227l-91 -114 91 -113 0 227zm1932 -2187l-1750 2187 -182 -227 1750 -2188 182 0 0 228zm-182 -228l91 -113 91 113 -182 0zm1750 2415l-1750 -2187 182 -228 1750 2188 0 227 -182 0zm182 -227l91 113 -91 114 0 -227zm-1932 2187l1750 -2187 182 227 -1750 2188 -182 0 0 -228zm182 228l-91 113 -91 -113 182 0z"/>
  </g>
  <polygon class="fil1" points="2311,20299 4061,18112 5811,20299 "/>
  <polygon class="fil1" points="2,17412 0,17410 0,13039 2,13037 1751,15224 "/>
  <polygon class="fil1" points="10430,20299 12179,18112 13929,20299 "/>
  <polygon class="fil1" points="8120,17412 6370,15224 8120,13037 9870,15224 "/>
  <polygon class="fil1" points="4061,12337 2311,10150 4061,7962 5811,10150 "/>
  <polygon class="fil1" points="2,7262 0,7260 0,2889 2,2887 1751,5075 "/>
  <polygon class="fil1" points="18548,20299 20298,18112 20299,18114 20299,20299 "/>
  <polygon class="fil1" points="16239,17412 14489,15224 16239,13037 17988,15224 "/>
  <polygon class="fil1" points="12179,12337 10430,10150 12179,7962 13929,10150 "/>
  <polygon class="fil1" points="8120,7262 6370,5075 8120,2887 9870,5075 "/>
  <polygon class="fil1" points="4061,2187 2311,0 5811,0 "/>
  <polygon class="fil1" points="20298,12337 18548,10150 20298,7962 20299,7964 20299,12335 "/>
  <polygon class="fil1" points="16239,7262 14489,5075 16239,2887 17988,5075 "/>
  <polygon class="fil1" points="12179,2187 10430,0 13929,0 "/>
  <polygon class="fil1" points="20298,2187 18548,0 20299,0 20299,2186 "/>
  <polygon class="fil1" points="0,18114 1,18112 1751,20299 0,20299 "/>
  <polygon class="fil1" points="6370,20299 8120,18112 9870,20299 "/>
  <polygon class="fil1" points="4061,17412 2311,15224 4061,13037 5810,15224 "/>
  <polygon class="fil1" points="1,12337 0,12335 0,7964 1,7962 1751,10150 "/>
  <polygon class="fil1" points="14489,20299 16238,18112 17988,20299 "/>
  <polygon class="fil1" points="12179,17412 10429,15224 12179,13037 13929,15224 "/>
  <polygon class="fil1" points="8120,12337 6370,10150 8120,7962 9870,10150 "/>
  <polygon class="fil1" points="4061,7262 2311,5075 4061,2887 5810,5075 "/>
  <polygon class="fil1" points="1,2187 0,2186 0,0 1751,0 "/>
  <polygon class="fil1" points="20298,17412 18548,15224 20298,13037 20299,13039 20299,17410 "/>
  <polygon class="fil1" points="16238,12337 14489,10150 16238,7962 17988,10150 "/>
  <polygon class="fil1" points="12179,7262 10429,5075 12179,2887 13929,5075 "/>
  <polygon class="fil1" points="8120,2187 6370,0 9870,0 "/>
  <polygon class="fil1" points="20298,7262 18548,5075 20298,2887 20299,2889 20299,7260 "/>
  <polygon class="fil1" points="16238,2187 14489,0 17988,0 "/>
  <g>
   <path class="fil0" d="M372 17648l1750 2188 -182 227 -1750 -2188 0 -227 182 0zm-182 227l-90 -113 90 -114 0 227zm1932 -2187l-1750 2187 -182 -227 1750 -2187 182 0 0 227zm-182 -227l91 -114 91 114 -182 0zm1750 2414l-1750 -2187 182 -227 1750 2187 0 227 -182 0zm182 -227l91 114 -91 113 0 -227zm-1932 2188l1750 -2188 182 227 -1750 2188 -182 0 0 -227zm182 227l-91 114 -91 -114 182 0z"/>
  </g>
  <g>
   <path class="fil0" d="M8491 17648l1750 2188 -182 227 -1750 -2188 0 -227 182 0zm-182 227l-91 -113 91 -114 0 227zm1932 -2187l-1750 2187 -182 -227 1750 -2187 182 0 0 227zm-182 -227l91 -114 91 114 -182 0zm1749 2414l-1749 -2187 182 -227 1749 2187 0 227 -182 0zm182 -227l91 114 -91 113 0 -227zm-1931 2188l1749 -2188 182 227 -1749 2188 -182 0 0 -227zm182 227l-91 114 -91 -114 182 0z"/>
  </g>
  <g>
   <path class="fil0" d="M4432 12573l1749 2188 -182 227 -1749 -2187 0 -228 182 0zm-182 228l-91 -114 91 -114 0 228zm1931 -2188l-1749 2188 -182 -228 1749 -2187 182 0 0 227zm-182 -227l91 -114 91 114 -182 0zm1750 2415l-1750 -2188 182 -227 1750 2187 0 228 -182 0zm182 -228l91 114 -91 114 0 -228zm-1932 2188l1750 -2188 182 228 -1750 2187 -182 0 0 -227zm182 227l-91 114 -91 -114 182 0z"/>
  </g>
  <g>
   <path class="fil0" d="M372 7498l1750 2188 -182 227 -1750 -2187 0 -228 182 0zm-182 228l-90 -114 90 -114 0 228zm1932 -2188l-1750 2188 -182 -228 1750 -2187 182 0 0 227zm-182 -227l91 -114 91 114 -182 0zm1750 2415l-1750 -2188 182 -227 1750 2187 0 228 -182 0zm182 -228l91 114 -91 114 0 -228zm-1932 2188l1750 -2188 182 228 -1750 2187 -182 0 0 -227zm182 227l-91 114 -91 -114 182 0z"/>
  </g>
  <g>
   <path class="fil0" d="M16609 17648l1750 2188 -182 227 -1750 -2188 0 -227 182 0zm-182 227l-91 -113 91 -114 0 227zm1932 -2187l-1750 2187 -182 -227 1750 -2187 182 0 0 227zm-182 -227l91 -114 91 114 -182 0zm1750 2414l-1750 -2187 182 -227 1750 2187 0 227 -182 0zm182 -227l91 114 -91 113 0 -227zm-1932 2188l1750 -2188 182 227 -1750 2188 -182 0 0 -227zm182 227l-91 114 -91 -114 182 0z"/>
  </g>
  <g>
   <path class="fil0" d="M12550 12573l1750 2188 -182 227 -1750 -2187 0 -228 182 0zm-182 228l-91 -114 91 -114 0 228zm1932 -2188l-1750 2188 -182 -228 1750 -2187 182 0 0 227zm-182 -227l91 -114 91 114 -182 0zm1750 2415l-1750 -2188 182 -227 1750 2187 0 228 -182 0zm182 -228l90 114 -90 114 0 -228zm-1932 2188l1750 -2188 182 228 -1750 2187 -182 0 0 -227zm182 227l-91 114 -91 -114 182 0z"/>
  </g>
  <g>
   <path class="fil0" d="M8491 7498l1750 2188 -182 227 -1750 -2187 0 -228 182 0zm-182 228l-91 -114 91 -114 0 228zm1932 -2188l-1750 2188 -182 -228 1750 -2187 182 0 0 227zm-182 -227l91 -114 91 114 -182 0zm1749 2415l-1749 -2188 182 -227 1749 2187 0 228 -182 0zm182 -228l91 114 -91 114 0 -228zm-1931 2188l1749 -2188 182 228 -1749 2187 -182 0 0 -227zm182 227l-91 114 -91 -114 182 0z"/>
  </g>
  <g>
   <path class="fil0" d="M4432 2424l1749 2187 -182 228 -1749 -2188 0 -227 182 0zm-182 227l-91 -114 91 -113 0 227zm1931 -2187l-1749 2187 -182 -227 1749 -2188 182 0 0 228zm-182 -228l91 -114 91 114 -182 0zm1750 2415l-1750 -2187 182 -228 1750 2188 0 227 -182 0zm182 -227l91 113 -91 114 0 -227zm-1932 2187l1750 -2187 182 227 -1750 2188 -182 0 0 -228zm182 228l-91 113 -91 -113 182 0z"/>
  </g>
  <g>
   <path class="fil0" d="M16609 7498l1750 2188 -182 227 -1750 -2187 0 -228 182 0zm-182 228l-91 -114 91 -114 0 228zm1932 -2188l-1750 2188 -182 -228 1750 -2187 182 0 0 227zm-182 -227l91 -114 91 114 -182 0zm1750 2415l-1750 -2188 182 -227 1750 2187 0 228 -182 0zm182 -228l91 114 -91 114 0 -228zm-1932 2188l1750 -2188 182 228 -1750 2187 -182 0 0 -227zm182 227l-91 114 -91 -114 182 0z"/>
  </g>
  <g>
   <path class="fil0" d="M12550 2424l1750 2187 -182 228 -1750 -2188 0 -227 182 0zm-182 227l-91 -114 91 -113 0 227zm1932 -2187l-1750 2187 -182 -227 1750 -2188 182 0 0 228zm-182 -228l91 -114 91 114 -182 0zm1750 2415l-1750 -2187 182 -228 1750 2188 0 227 -182 0zm182 -227l90 113 -90 114 0 -227zm-1932 2187l1750 -2187 182 227 -1750 2188 -182 0 0 -228zm182 228l-91 113 -91 -113 182 0z"/>
  </g>
 </g>
</svg>
