<?xml version="1.0" encoding="UTF-8"?>
<!DOCTYPE svg PUBLIC "-//W3C//DTD SVG 1.1//EN" "http://www.w3.org/Graphics/SVG/1.1/DTD/svg11.dtd">
<!-- Creator: CorelDRAW X6 -->
<svg xmlns="http://www.w3.org/2000/svg" xml:space="preserve" width="100mm" height="100mm" version="1.1" style="shape-rendering:geometricPrecision; text-rendering:geometricPrecision; image-rendering:optimizeQuality; fill-rule:evenodd; clip-rule:evenodd"
viewBox="0 0 78320 78320"
 xmlns:xlink="http://www.w3.org/1999/xlink">
 <defs>
  <style type="text/css">
   <![CDATA[
    .fil0 {fill:#4C57FF}
    .fil1 {fill:#13ECAB}
   ]]>
  </style>
 </defs>
 <g id="Layer_x0020_1">
  <metadata id="CorelCorpID_0Corel-Layer"/>
  <g id="_483101136">
   <polygon class="fil0" points="0,37132 0,15105 11247,26143 "/>
   <polygon class="fil0" points="52210,37132 52210,15105 63456,26143 "/>
   <path class="fil1" d="M0 19490c3487,0 6313,2842 6313,6349 0,3507 -2826,6350 -6313,6350l0 0 0 -3616 0 0c1502,0 2719,-1224 2719,-2734 0,-1510 -1217,-2734 -2719,-2734l0 0 0 -3615 0 0z"/>
   <path class="fil1" d="M52209 19490c3487,0 6314,2842 6314,6349 0,3507 -2827,6350 -6314,6350l0 0 0 -3616 0 0c1502,0 2719,-1224 2719,-2734 0,-1510 -1217,-2734 -2719,-2734l0 0 0 -3615 0 0z"/>
   <g>
    <polygon class="fil0" points="37413,26115 26101,15097 14839,26143 26101,37140 "/>
    <path class="fil1" d="M26126 19490c3486,0 6313,2843 6313,6349 0,3507 -2827,6350 -6313,6350 -3487,0 -6314,-2843 -6314,-6350 0,-3506 2827,-6349 6314,-6349zm0 3615c1501,0 2718,1224 2718,2734 0,1510 -1217,2734 -2718,2734 -1502,0 -2719,-1224 -2719,-2734 0,-1510 1217,-2734 2719,-2734z"/>
   </g>
   <g>
    <polygon class="fil0" points="78320,15107 78310,15097 67048,26143 78310,37140 78320,37131 "/>
    <path class="fil1" d="M78320 32189c-3480,-9 -6298,-2848 -6298,-6350 0,-3501 2818,-6341 6298,-6349l0 3615c-1495,9 -2704,1229 -2704,2734 0,1505 1209,2726 2704,2734l0 3616z"/>
   </g>
   <g>
    <polygon class="fil0" points="24311,13073 13055,2100 1796,13074 13055,24046 "/>
    <polygon class="fil0" points="50419,13063 39142,2062 27827,13066 39142,24084 "/>
    <path class="fil1" d="M13061 6723c3487,0 6313,2843 6313,6350 0,3507 -2826,6349 -6313,6349 -3487,0 -6313,-2842 -6313,-6349 0,-3507 2826,-6350 6313,-6350zm0 3616c1502,0 2719,1224 2719,2734 0,1510 -1217,2734 -2719,2734 -1501,0 -2718,-1224 -2718,-2734 0,-1510 1217,-2734 2718,-2734z"/>
    <path class="fil1" d="M38833 6723c3487,0 6313,2843 6313,6350 0,3507 -2826,6349 -6313,6349 -3487,0 -6314,-2842 -6314,-6349 0,-3507 2827,-6350 6314,-6350zm0 3616c1501,0 2718,1224 2718,2734 0,1510 -1217,2734 -2718,2734 -1502,0 -2719,-1224 -2719,-2734 0,-1510 1217,-2734 2719,-2734z"/>
    <g>
     <polygon class="fil0" points="76520,13073 65264,2100 54005,13074 65264,24046 "/>
     <path class="fil1" d="M65271 6723c3487,0 6313,2843 6313,6350 0,3507 -2826,6349 -6313,6349 -3487,0 -6314,-2842 -6314,-6349 0,-3507 2827,-6350 6314,-6350zm0 3616c1501,0 2718,1224 2718,2734 0,1510 -1217,2734 -2718,2734 -1502,0 -2719,-1224 -2719,-2734 0,-1510 1217,-2734 2719,-2734z"/>
    </g>
   </g>
   <g>
    <polygon class="fil0" points="24311,39150 13055,28177 1796,39152 13055,50123 "/>
    <polygon class="fil0" points="50419,39140 39142,28139 27827,39144 39142,50162 "/>
    <path class="fil1" d="M13061 32801c3487,0 6313,2843 6313,6349 0,3507 -2826,6350 -6313,6350 -3487,0 -6313,-2843 -6313,-6350 0,-3506 2826,-6349 6313,-6349zm0 3615c1502,0 2719,1224 2719,2734 0,1511 -1217,2735 -2719,2735 -1501,0 -2718,-1224 -2718,-2735 0,-1510 1217,-2734 2718,-2734z"/>
    <path class="fil1" d="M38833 32801c3487,0 6313,2843 6313,6349 0,3507 -2826,6350 -6313,6350 -3487,0 -6314,-2843 -6314,-6350 0,-3506 2827,-6349 6314,-6349zm0 3615c1501,0 2718,1224 2718,2734 0,1511 -1217,2735 -2718,2735 -1502,0 -2719,-1224 -2719,-2735 0,-1510 1217,-2734 2719,-2734z"/>
    <g>
     <polygon class="fil0" points="76520,39150 65264,28177 54005,39152 65264,50123 "/>
     <path class="fil1" d="M65271 32801c3487,0 6313,2843 6313,6349 0,3507 -2826,6350 -6313,6350 -3487,0 -6314,-2843 -6314,-6350 0,-3506 2827,-6349 6314,-6349zm0 3615c1501,0 2718,1224 2718,2734 0,1511 -1217,2735 -2718,2735 -1502,0 -2719,-1224 -2719,-2735 0,-1510 1217,-2734 2719,-2734z"/>
    </g>
   </g>
   <polygon class="fil0" points="63506,26109 52228,15107 40914,26112 52228,37130 "/>
   <path class="fil1" d="M51919 19769c3487,0 6314,2843 6314,6350 0,3506 -2827,6349 -6314,6349 -3486,0 -6313,-2843 -6313,-6349 0,-3507 2827,-6350 6313,-6350zm0 3615c1502,0 2719,1224 2719,2735 0,1510 -1217,2734 -2719,2734 -1501,0 -2718,-1224 -2718,-2734 0,-1511 1217,-2735 2718,-2735z"/>
   <polygon class="fil0" points="52209,4 52209,11040 63456,4 "/>
   <g>
    <polygon class="fil0" points="37346,4 14754,4 26016,11048 "/>
    <path class="fil1" d="M32078 4l0 0c0,3507 -2827,6350 -6314,6350 -3486,0 -6313,-2843 -6313,-6350l0 0 3595 0 0 0c0,1510 1217,2734 2718,2734 1502,0 2719,-1224 2719,-2734l0 0 3595 0z"/>
   </g>
   <g>
    <polygon class="fil0" points="63506,0 40913,0 52175,11044 "/>
    <path class="fil1" d="M58237 0l0 0c0,3507 -2827,6350 -6313,6350 -3487,0 -6313,-2843 -6313,-6350l0 0 3594 0 0 0c0,1510 1217,2734 2719,2734 1501,0 2718,-1224 2718,-2734l0 0 3595 0z"/>
   </g>
   <g>
    <polygon class="fil0" points="78320,4 66963,4 78225,11048 78320,10956 "/>
    <path class="fil1" d="M78320 6344c-115,6 -230,10 -346,10 -3487,0 -6313,-2843 -6313,-6350l0 0 3594 0 0 0c0,1510 1217,2734 2719,2734 117,0 232,-7 346,-22l0 3628z"/>
   </g>
   <g>
    <polygon class="fil0" points="0,4 0,11040 11247,4 "/>
    <path class="fil1" d="M6313 4l0 0c0,3507 -2826,6349 -6313,6349l0 0 0 -3615 0 0c1502,0 2719,-1224 2719,-2734l0 0 3594 0z"/>
   </g>
   <path class="fil1" d="M58523 4l0 0c0,3507 -2827,6349 -6314,6349l0 0 0 -3615 0 0c1502,0 2719,-1224 2719,-2734l0 0 3595 0z"/>
   <g>
    <polygon class="fil0" points="0,41188 0,63214 11247,52177 "/>
    <polygon class="fil0" points="52210,41188 52210,63214 63456,52177 "/>
    <path class="fil1" d="M0 58830c3487,0 6313,-2843 6313,-6350 0,-3506 -2826,-6349 -6313,-6349l0 0 0 3615 0 0c1502,0 2719,1224 2719,2734 0,1511 -1217,2735 -2719,2735l0 0 0 3615 0 0z"/>
    <path class="fil1" d="M52209 58830c3487,0 6314,-2843 6314,-6350 0,-3506 -2827,-6349 -6314,-6349l0 0 0 3615 0 0c1502,0 2719,1224 2719,2734 0,1511 -1217,2735 -2719,2735l0 0 0 3615 0 0z"/>
    <g>
     <polygon class="fil0" points="37413,52205 26101,63222 14839,52177 26101,41180 "/>
     <path class="fil1" d="M26126 58830c3486,0 6313,-2843 6313,-6350 0,-3507 -2827,-6349 -6313,-6349 -3487,0 -6314,2842 -6314,6349 0,3507 2827,6350 6314,6350zm0 -3615c1501,0 2718,-1225 2718,-2735 0,-1510 -1217,-2734 -2718,-2734 -1502,0 -2719,1224 -2719,2734 0,1510 1217,2735 2719,2735z"/>
    </g>
    <g>
     <polygon class="fil0" points="78320,63213 78310,63222 67048,52177 78310,41180 78320,41189 "/>
     <path class="fil1" d="M78320 46131c-3480,8 -6298,2848 -6298,6349 0,3502 2818,6341 6298,6350l0 -3616c-1495,-8 -2704,-1229 -2704,-2734 0,-1505 1209,-2725 2704,-2734l0 -3615z"/>
    </g>
    <g>
     <polygon class="fil0" points="24311,65247 13055,76220 1796,65245 13055,54274 "/>
     <polygon class="fil0" points="50419,65257 39142,76258 27827,65253 39142,54235 "/>
     <path class="fil1" d="M13061 71596c3487,0 6313,-2843 6313,-6349 0,-3507 -2826,-6350 -6313,-6350 -3487,0 -6313,2843 -6313,6350 0,3506 2826,6349 6313,6349zm0 -3615c1502,0 2719,-1224 2719,-2734 0,-1511 -1217,-2735 -2719,-2735 -1501,0 -2718,1224 -2718,2735 0,1510 1217,2734 2718,2734z"/>
     <path class="fil1" d="M38833 71596c3487,0 6313,-2843 6313,-6349 0,-3507 -2826,-6350 -6313,-6350 -3487,0 -6314,2843 -6314,6350 0,3506 2827,6349 6314,6349zm0 -3615c1501,0 2718,-1224 2718,-2734 0,-1511 -1217,-2735 -2718,-2735 -1502,0 -2719,1224 -2719,2735 0,1510 1217,2734 2719,2734z"/>
     <g>
      <polygon class="fil0" points="76520,65247 65264,76220 54005,65245 65264,54274 "/>
      <path class="fil1" d="M65271 71596c3487,0 6313,-2843 6313,-6349 0,-3507 -2826,-6350 -6313,-6350 -3487,0 -6314,2843 -6314,6350 0,3506 2827,6349 6314,6349zm0 -3615c1501,0 2718,-1224 2718,-2734 0,-1511 -1217,-2735 -2718,-2735 -1502,0 -2719,1224 -2719,2735 0,1510 1217,2734 2719,2734z"/>
     </g>
    </g>
    <polygon class="fil0" points="63506,52211 52228,63212 40914,52207 52228,41190 "/>
    <path class="fil1" d="M51919 58550c3487,0 6314,-2842 6314,-6349 0,-3507 -2827,-6350 -6314,-6350 -3486,0 -6313,2843 -6313,6350 0,3507 2827,6349 6313,6349zm0 -3615c1502,0 2719,-1224 2719,-2734 0,-1510 -1217,-2734 -2719,-2734 -1501,0 -2718,1224 -2718,2734 0,1510 1217,2734 2718,2734z"/>
    <polygon class="fil0" points="52209,78316 52209,67279 63456,78316 "/>
    <g>
     <polygon class="fil0" points="37346,78316 14754,78316 26016,67271 "/>
     <path class="fil1" d="M32078 78316l0 0c0,-3507 -2827,-6350 -6314,-6350 -3486,0 -6313,2843 -6313,6350l0 0 3595 0 0 0c0,-1511 1217,-2735 2718,-2735 1502,0 2719,1224 2719,2735l0 0 3595 0z"/>
    </g>
    <g>
     <polygon class="fil0" points="63506,78320 40913,78320 52175,67275 "/>
     <path class="fil1" d="M58237 78320l0 -1c0,-3506 -2827,-6349 -6313,-6349 -3487,0 -6313,2843 -6313,6349l0 1 3594 0 0 -1c0,-1510 1217,-2734 2719,-2734 1501,0 2718,1224 2718,2734l0 1 3595 0z"/>
    </g>
    <g>
     <polygon class="fil0" points="78320,78316 66963,78316 78225,67271 78320,67363 "/>
     <path class="fil1" d="M78320 71976c-115,-7 -230,-10 -346,-10 -3487,0 -6313,2843 -6313,6350l0 0 3594 0 0 0c0,-1511 1217,-2735 2719,-2735 117,0 232,8 346,22l0 -3627z"/>
    </g>
    <g>
     <polygon class="fil0" points="0,78316 0,67279 11247,78316 "/>
     <path class="fil1" d="M6313 78316l0 0c0,-3507 -2826,-6350 -6313,-6350l0 0 0 3615 0 0c1502,0 2719,1225 2719,2735l0 0 3594 0z"/>
    </g>
    <path class="fil1" d="M58523 78316l0 0c0,-3507 -2827,-6350 -6314,-6350l0 0 0 3615 0 0c1502,0 2719,1225 2719,2735l0 0 3595 0z"/>
   </g>
  </g>
 </g>
</svg>
