<?xml version="1.0" encoding="UTF-8"?>
<!DOCTYPE svg PUBLIC "-//W3C//DTD SVG 1.1//EN" "http://www.w3.org/Graphics/SVG/1.1/DTD/svg11.dtd">
<!-- Creator: CorelDRAW X6 -->
<svg xmlns="http://www.w3.org/2000/svg" xml:space="preserve" width="121.797mm" height="121.635mm" version="1.1" style="shape-rendering:geometricPrecision; text-rendering:geometricPrecision; image-rendering:optimizeQuality; fill-rule:evenodd; clip-rule:evenodd"
viewBox="0 0 31589 31547"
 xmlns:xlink="http://www.w3.org/1999/xlink">
 <defs>
  <style type="text/css">
   <![CDATA[
    .fil0 {fill:#C834F7}
    .fil1 {fill:#13ECAB}
   ]]>
  </style>
 </defs>
 <g id="Layer_x0020_1">
  <metadata id="CorelCorpID_0Corel-Layer"/>
  <g id="_452677240">
   <ellipse class="fil0" transform="matrix(0.212102 -0.212102 0.208788 0.208788 3162.93 3154.1)" rx="10375" ry="10540"/>
   <path class="fil1" d="M964 951c1215,1216 1214,3186 -1,4401l-2 2c-1214,-1216 -1214,-3186 1,-4401l2 -2z"/>
   <path class="fil1" d="M965 5354c1215,-1215 3185,-1216 4401,-1l-2 2c-1215,1215 -3185,1215 -4400,1l1 -2z"/>
   <path class="fil1" d="M5362 952l-2 2c-1215,1215 -3184,1216 -4400,2l2 -3c1215,-1215 3185,-1215 4400,-1z"/>
   <path class="fil1" d="M5363 957l2 -2c1214,1215 1214,3185 -1,4400l-2 2c-1215,-1216 -1214,-3185 1,-4400z"/>
   <polygon class="fil1" points="6318,0 6318,953 5365,953 5365,0 "/>
   <polygon class="fil1" points="0,0 0,953 953,953 953,0 "/>
   <polygon class="fil1" points="953,5354 953,6306 0,6306 0,5354 "/>
   <polygon class="fil1" points="5365,5354 5365,6306 6318,6306 6318,5354 "/>
   <path class="fil1" d="M4594 4585c-791,-790 -2072,-790 -2862,0 790,-790 790,-2071 0,-2861 790,790 2071,790 2862,0 -791,790 -791,2071 0,2861z"/>
   <ellipse class="fil0" transform="matrix(0.212102 -0.212102 0.208788 0.208788 3162.93 9464.17)" rx="10375" ry="10540"/>
   <path class="fil1" d="M964 7262c1215,1215 1214,3185 -1,4400l-2 2c-1214,-1216 -1214,-3185 1,-4400l2 -2z"/>
   <path class="fil1" d="M965 11664c1215,-1215 3185,-1215 4401,-1l-2 2c-1215,1215 -3185,1215 -4400,1l1 -2z"/>
   <path class="fil1" d="M5362 7262l-2 2c-1215,1215 -3184,1216 -4400,2l2 -2c1215,-1215 3185,-1216 4400,-2z"/>
   <path class="fil1" d="M5363 7267l2 -2c1214,1215 1214,3185 -1,4400l-2 2c-1215,-1216 -1214,-3185 1,-4400z"/>
   <polygon class="fil1" points="6318,6310 6318,7263 5365,7263 5365,6310 "/>
   <polygon class="fil1" points="0,6310 0,7263 953,7263 953,6310 "/>
   <polygon class="fil1" points="953,11664 953,12616 0,12616 0,11664 "/>
   <polygon class="fil1" points="5365,11664 5365,12616 6318,12616 6318,11664 "/>
   <path class="fil1" d="M4594 10895c-791,-790 -2072,-790 -2862,0 790,-790 790,-2071 0,-2861 790,790 2071,790 2862,0 -791,790 -791,2071 0,2861z"/>
   <ellipse class="fil0" transform="matrix(0.212102 -0.212102 0.208788 0.208788 3162.93 15774.2)" rx="10375" ry="10540"/>
   <path class="fil1" d="M964 13572c1215,1215 1214,3185 -1,4400l-2 2c-1214,-1216 -1214,-3185 1,-4400l2 -2z"/>
   <path class="fil1" d="M965 17974c1215,-1215 3185,-1215 4401,-1l-2 2c-1215,1215 -3185,1215 -4400,1l1 -2z"/>
   <path class="fil1" d="M5362 13572l-2 2c-1215,1215 -3184,1216 -4400,2l2 -2c1215,-1215 3185,-1216 4400,-2z"/>
   <path class="fil1" d="M5363 13577l2 -2c1214,1215 1214,3185 -1,4400l-2 2c-1215,-1216 -1214,-3185 1,-4400z"/>
   <polygon class="fil1" points="6318,12620 6318,13573 5365,13573 5365,12620 "/>
   <polygon class="fil1" points="0,12620 0,13573 953,13573 953,12620 "/>
   <polygon class="fil1" points="953,17974 953,18926 0,18926 0,17974 "/>
   <polygon class="fil1" points="5365,17974 5365,18926 6318,18926 6318,17974 "/>
   <path class="fil1" d="M4594 17205c-791,-790 -2072,-790 -2862,0 790,-790 790,-2071 0,-2861 790,790 2071,790 2862,0 -791,790 -791,2071 0,2861z"/>
   <ellipse class="fil0" transform="matrix(0.212102 -0.212102 0.208788 0.208788 3162.93 22084.3)" rx="10375" ry="10540"/>
   <path class="fil1" d="M964 19882c1215,1215 1214,3185 -1,4400l-2 2c-1214,-1216 -1214,-3185 1,-4400l2 -2z"/>
   <path class="fil1" d="M965 24284c1215,-1215 3185,-1215 4401,-1l-2 2c-1215,1215 -3185,1215 -4400,1l1 -2z"/>
   <path class="fil1" d="M5362 19882l-2 3c-1215,1215 -3184,1215 -4400,1l2 -2c1215,-1215 3185,-1216 4400,-2z"/>
   <path class="fil1" d="M5363 19887l2 -2c1214,1215 1214,3185 -1,4400l-2 2c-1215,-1216 -1214,-3185 1,-4400z"/>
   <polygon class="fil1" points="6318,18930 6318,19883 5365,19883 5365,18930 "/>
   <polygon class="fil1" points="0,18930 0,19883 953,19883 953,18930 "/>
   <polygon class="fil1" points="953,24284 953,25236 0,25236 0,24284 "/>
   <polygon class="fil1" points="5365,24284 5365,25236 6318,25236 6318,24284 "/>
   <path class="fil1" d="M4594 23515c-791,-790 -2072,-790 -2862,0 790,-790 790,-2071 0,-2861 790,790 2071,790 2862,0 -791,790 -791,2071 0,2861z"/>
   <ellipse class="fil0" transform="matrix(0.212102 -0.212102 0.208788 0.208788 3162.93 28394.4)" rx="10375" ry="10540"/>
   <path class="fil1" d="M964 26192c1215,1215 1214,3185 -1,4400l-2 2c-1214,-1216 -1214,-3185 1,-4400l2 -2z"/>
   <path class="fil1" d="M965 30594c1215,-1215 3185,-1215 4401,-1l-2 2c-1215,1215 -3185,1215 -4400,1l1 -2z"/>
   <path class="fil1" d="M5362 26193l-2 2c-1215,1215 -3184,1215 -4400,1l2 -2c1215,-1215 3185,-1216 4400,-1z"/>
   <path class="fil1" d="M5363 26197l2 -2c1214,1215 1214,3185 -1,4400l-2 2c-1215,-1215 -1214,-3185 1,-4400z"/>
   <polygon class="fil1" points="6318,25240 6318,26193 5365,26193 5365,25240 "/>
   <polygon class="fil1" points="0,25240 0,26193 953,26193 953,25240 "/>
   <polygon class="fil1" points="953,30594 953,31547 0,31547 0,30594 "/>
   <polygon class="fil1" points="5365,30594 5365,31547 6318,31547 6318,30594 "/>
   <path class="fil1" d="M4594 29825c-791,-790 -2072,-790 -2862,0 790,-790 790,-2071 0,-2861 790,790 2071,790 2862,0 -791,790 -791,2071 0,2861z"/>
   <ellipse class="fil0" transform="matrix(0.212102 -0.212102 0.208788 0.208788 9480.66 3154.1)" rx="10375" ry="10540"/>
   <path class="fil1" d="M7282 951c1214,1216 1214,3186 -1,4401l-2 2c-1214,-1216 -1214,-3186 1,-4401l2 -2z"/>
   <path class="fil1" d="M7283 5354c1215,-1215 3185,-1216 4400,-1l-2 2c-1215,1215 -3184,1215 -4400,1l2 -2z"/>
   <path class="fil1" d="M11680 952l-2 2c-1215,1215 -3185,1216 -4400,2l2 -3c1215,-1215 3185,-1215 4400,-1z"/>
   <path class="fil1" d="M11680 957l3 -2c1214,1215 1213,3185 -2,4400l-2 2c-1214,-1216 -1214,-3185 1,-4400z"/>
   <polygon class="fil1" points="12635,0 12635,953 11683,953 11683,0 "/>
   <polygon class="fil1" points="6318,0 6318,953 7270,953 7270,0 "/>
   <polygon class="fil1" points="7270,5354 7270,6306 6318,6306 6318,5354 "/>
   <polygon class="fil1" points="11683,5354 11683,6306 12635,6306 12635,5354 "/>
   <path class="fil1" d="M10911 4585c-790,-790 -2071,-790 -2861,0 790,-790 790,-2071 0,-2861 790,790 2071,790 2861,0 -790,790 -790,2071 0,2861z"/>
   <ellipse class="fil0" transform="matrix(0.212102 -0.212102 0.208788 0.208788 9480.66 9464.17)" rx="10375" ry="10540"/>
   <path class="fil1" d="M7282 7262c1214,1215 1214,3185 -1,4400l-2 2c-1214,-1216 -1214,-3185 1,-4400l2 -2z"/>
   <path class="fil1" d="M7283 11664c1215,-1215 3185,-1215 4400,-1l-2 2c-1215,1215 -3184,1215 -4400,1l2 -2z"/>
   <path class="fil1" d="M11680 7262l-2 2c-1215,1215 -3185,1216 -4400,2l2 -2c1215,-1215 3185,-1216 4400,-2z"/>
   <path class="fil1" d="M11680 7267l3 -2c1214,1215 1213,3185 -2,4400l-2 2c-1214,-1216 -1214,-3185 1,-4400z"/>
   <polygon class="fil1" points="12635,6310 12635,7263 11683,7263 11683,6310 "/>
   <polygon class="fil1" points="6318,6310 6318,7263 7270,7263 7270,6310 "/>
   <polygon class="fil1" points="7270,11664 7270,12616 6318,12616 6318,11664 "/>
   <polygon class="fil1" points="11683,11664 11683,12616 12635,12616 12635,11664 "/>
   <path class="fil1" d="M10911 10895c-790,-790 -2071,-790 -2861,0 790,-790 790,-2071 0,-2861 790,790 2071,790 2861,0 -790,790 -790,2071 0,2861z"/>
   <ellipse class="fil0" transform="matrix(0.212102 -0.212102 0.208788 0.208788 9480.66 15774.2)" rx="10375" ry="10540"/>
   <path class="fil1" d="M7282 13572c1214,1215 1214,3185 -1,4400l-2 2c-1214,-1216 -1214,-3185 1,-4400l2 -2z"/>
   <path class="fil1" d="M7283 17974c1215,-1215 3185,-1215 4400,-1l-2 2c-1215,1215 -3184,1215 -4400,1l2 -2z"/>
   <path class="fil1" d="M11680 13572l-2 2c-1215,1215 -3185,1216 -4400,2l2 -2c1215,-1215 3185,-1216 4400,-2z"/>
   <path class="fil1" d="M11680 13577l3 -2c1214,1215 1213,3185 -2,4400l-2 2c-1214,-1216 -1214,-3185 1,-4400z"/>
   <polygon class="fil1" points="12635,12620 12635,13573 11683,13573 11683,12620 "/>
   <polygon class="fil1" points="6318,12620 6318,13573 7270,13573 7270,12620 "/>
   <polygon class="fil1" points="7270,17974 7270,18926 6318,18926 6318,17974 "/>
   <polygon class="fil1" points="11683,17974 11683,18926 12635,18926 12635,17974 "/>
   <path class="fil1" d="M10911 17205c-790,-790 -2071,-790 -2861,0 790,-790 790,-2071 0,-2861 790,790 2071,790 2861,0 -790,790 -790,2071 0,2861z"/>
   <ellipse class="fil0" transform="matrix(0.212102 -0.212102 0.208788 0.208788 9480.66 22084.3)" rx="10375" ry="10540"/>
   <path class="fil1" d="M7282 19882c1214,1215 1214,3185 -1,4400l-2 2c-1214,-1216 -1214,-3185 1,-4400l2 -2z"/>
   <path class="fil1" d="M7283 24284c1215,-1215 3185,-1215 4400,-1l-2 2c-1215,1215 -3184,1215 -4400,1l2 -2z"/>
   <path class="fil1" d="M11680 19882l-2 3c-1215,1215 -3185,1215 -4400,1l2 -2c1215,-1215 3185,-1216 4400,-2z"/>
   <path class="fil1" d="M11680 19887l3 -2c1214,1215 1213,3185 -2,4400l-2 2c-1214,-1216 -1214,-3185 1,-4400z"/>
   <polygon class="fil1" points="12635,18930 12635,19883 11683,19883 11683,18930 "/>
   <polygon class="fil1" points="6318,18930 6318,19883 7270,19883 7270,18930 "/>
   <polygon class="fil1" points="7270,24284 7270,25236 6318,25236 6318,24284 "/>
   <polygon class="fil1" points="11683,24284 11683,25236 12635,25236 12635,24284 "/>
   <path class="fil1" d="M10911 23515c-790,-790 -2071,-790 -2861,0 790,-790 790,-2071 0,-2861 790,790 2071,790 2861,0 -790,790 -790,2071 0,2861z"/>
   <ellipse class="fil0" transform="matrix(0.212102 -0.212102 0.208788 0.208788 9480.66 28394.4)" rx="10375" ry="10540"/>
   <path class="fil1" d="M7282 26192c1214,1215 1214,3185 -1,4400l-2 2c-1214,-1216 -1214,-3185 1,-4400l2 -2z"/>
   <path class="fil1" d="M7283 30594c1215,-1215 3185,-1215 4400,-1l-2 2c-1215,1215 -3184,1215 -4400,1l2 -2z"/>
   <path class="fil1" d="M11680 26193l-2 2c-1215,1215 -3185,1215 -4400,1l2 -2c1215,-1215 3185,-1216 4400,-1z"/>
   <path class="fil1" d="M11680 26197l3 -2c1214,1215 1213,3185 -2,4400l-2 2c-1214,-1215 -1214,-3185 1,-4400z"/>
   <polygon class="fil1" points="12635,25240 12635,26193 11683,26193 11683,25240 "/>
   <polygon class="fil1" points="6318,25240 6318,26193 7270,26193 7270,25240 "/>
   <polygon class="fil1" points="7270,30594 7270,31547 6318,31547 6318,30594 "/>
   <polygon class="fil1" points="11683,30594 11683,31547 12635,31547 12635,30594 "/>
   <path class="fil1" d="M10911 29825c-790,-790 -2071,-790 -2861,0 790,-790 790,-2071 0,-2861 790,790 2071,790 2861,0 -790,790 -790,2071 0,2861z"/>
   <ellipse class="fil0" transform="matrix(0.212102 -0.212102 0.208788 0.208788 15798.4 3154.1)" rx="10375" ry="10540"/>
   <path class="fil1" d="M13600 951c1214,1216 1214,3186 -1,4401l-2 2c-1215,-1216 -1214,-3186 1,-4401l2 -2z"/>
   <path class="fil1" d="M13601 5354c1215,-1215 3185,-1216 4400,-1l-2 2c-1215,1215 -3185,1215 -4400,1l2 -2z"/>
   <path class="fil1" d="M17998 952l-2 2c-1215,1215 -3185,1216 -4400,2l2 -3c1215,-1215 3184,-1215 4400,-1z"/>
   <path class="fil1" d="M17998 957l2 -2c1214,1215 1214,3185 -1,4400l-2 2c-1214,-1216 -1214,-3185 1,-4400z"/>
   <polygon class="fil1" points="18953,0 18953,953 18001,953 18001,0 "/>
   <polygon class="fil1" points="12635,0 12635,953 13588,953 13588,0 "/>
   <polygon class="fil1" points="13588,5354 13588,6306 12636,6306 12635,5354 "/>
   <polygon class="fil1" points="18001,5354 18001,6306 18953,6306 18953,5354 "/>
   <path class="fil1" d="M17229 4585c-790,-790 -2071,-790 -2861,0 790,-790 790,-2071 0,-2861 790,790 2071,790 2861,0 -790,790 -790,2071 0,2861z"/>
   <ellipse class="fil0" transform="matrix(0.212102 -0.212102 0.208788 0.208788 15798.4 9464.17)" rx="10375" ry="10540"/>
   <path class="fil1" d="M13600 7262c1214,1215 1214,3185 -1,4400l-2 2c-1215,-1216 -1214,-3185 1,-4400l2 -2z"/>
   <path class="fil1" d="M13601 11664c1215,-1215 3185,-1215 4400,-1l-2 2c-1215,1215 -3185,1215 -4400,1l2 -2z"/>
   <path class="fil1" d="M17998 7262l-2 2c-1215,1215 -3185,1216 -4400,2l2 -2c1215,-1215 3184,-1216 4400,-2z"/>
   <path class="fil1" d="M17998 7267l2 -2c1214,1215 1214,3185 -1,4400l-2 2c-1214,-1216 -1214,-3185 1,-4400z"/>
   <polygon class="fil1" points="18953,6310 18953,7263 18001,7263 18001,6310 "/>
   <polygon class="fil1" points="12635,6310 12635,7263 13588,7263 13588,6310 "/>
   <polygon class="fil1" points="13588,11664 13588,12616 12636,12616 12635,11664 "/>
   <polygon class="fil1" points="18001,11664 18001,12616 18953,12616 18953,11664 "/>
   <path class="fil1" d="M17229 10895c-790,-790 -2071,-790 -2861,0 790,-790 790,-2071 0,-2861 790,790 2071,790 2861,0 -790,790 -790,2071 0,2861z"/>
   <ellipse class="fil0" transform="matrix(0.212102 -0.212102 0.208788 0.208788 15798.4 15774.2)" rx="10375" ry="10540"/>
   <path class="fil1" d="M13600 13572c1214,1215 1214,3185 -1,4400l-2 2c-1215,-1216 -1214,-3185 1,-4400l2 -2z"/>
   <path class="fil1" d="M13601 17974c1215,-1215 3185,-1215 4400,-1l-2 2c-1215,1215 -3185,1215 -4400,1l2 -2z"/>
   <path class="fil1" d="M17998 13572l-2 2c-1215,1215 -3185,1216 -4400,2l2 -2c1215,-1215 3184,-1216 4400,-2z"/>
   <path class="fil1" d="M17998 13577l2 -2c1214,1215 1214,3185 -1,4400l-2 2c-1214,-1216 -1214,-3185 1,-4400z"/>
   <polygon class="fil1" points="18953,12620 18953,13573 18001,13573 18001,12620 "/>
   <polygon class="fil1" points="12635,12620 12635,13573 13588,13573 13588,12620 "/>
   <polygon class="fil1" points="13588,17974 13588,18926 12636,18926 12635,17974 "/>
   <polygon class="fil1" points="18001,17974 18001,18926 18953,18926 18953,17974 "/>
   <path class="fil1" d="M17229 17205c-790,-790 -2071,-790 -2861,0 790,-790 790,-2071 0,-2861 790,790 2071,790 2861,0 -790,790 -790,2071 0,2861z"/>
   <ellipse class="fil0" transform="matrix(0.212102 -0.212102 0.208788 0.208788 15798.4 22084.3)" rx="10375" ry="10540"/>
   <path class="fil1" d="M13600 19882c1214,1215 1214,3185 -1,4400l-2 2c-1215,-1216 -1214,-3185 1,-4400l2 -2z"/>
   <path class="fil1" d="M13601 24284c1215,-1215 3185,-1215 4400,-1l-2 2c-1215,1215 -3185,1215 -4400,1l2 -2z"/>
   <path class="fil1" d="M17998 19882l-2 3c-1215,1215 -3185,1215 -4400,1l2 -2c1215,-1215 3184,-1216 4400,-2z"/>
   <path class="fil1" d="M17998 19887l2 -2c1214,1215 1214,3185 -1,4400l-2 2c-1214,-1216 -1214,-3185 1,-4400z"/>
   <polygon class="fil1" points="18953,18930 18953,19883 18001,19883 18001,18930 "/>
   <polygon class="fil1" points="12635,18930 12635,19883 13588,19883 13588,18930 "/>
   <polygon class="fil1" points="13588,24284 13588,25236 12636,25236 12635,24284 "/>
   <polygon class="fil1" points="18001,24284 18001,25236 18953,25236 18953,24284 "/>
   <path class="fil1" d="M17229 23515c-790,-790 -2071,-790 -2861,0 790,-790 790,-2071 0,-2861 790,790 2071,790 2861,0 -790,790 -790,2071 0,2861z"/>
   <ellipse class="fil0" transform="matrix(0.212102 -0.212102 0.208788 0.208788 15798.4 28394.4)" rx="10375" ry="10540"/>
   <path class="fil1" d="M13600 26192c1214,1215 1214,3185 -1,4400l-2 2c-1215,-1216 -1214,-3185 1,-4400l2 -2z"/>
   <path class="fil1" d="M13601 30594c1215,-1215 3185,-1215 4400,-1l-2 2c-1215,1215 -3185,1215 -4400,1l2 -2z"/>
   <path class="fil1" d="M17998 26193l-2 2c-1215,1215 -3185,1215 -4400,1l2 -2c1215,-1215 3184,-1216 4400,-1z"/>
   <path class="fil1" d="M17998 26197l2 -2c1214,1215 1214,3185 -1,4400l-2 2c-1214,-1215 -1214,-3185 1,-4400z"/>
   <polygon class="fil1" points="18953,25240 18953,26193 18001,26193 18001,25240 "/>
   <polygon class="fil1" points="12635,25240 12635,26193 13588,26193 13588,25240 "/>
   <polygon class="fil1" points="13588,30594 13588,31547 12636,31547 12635,30594 "/>
   <polygon class="fil1" points="18001,30594 18001,31547 18953,31547 18953,30594 "/>
   <path class="fil1" d="M17229 29825c-790,-790 -2071,-790 -2861,0 790,-790 790,-2071 0,-2861 790,790 2071,790 2861,0 -790,790 -790,2071 0,2861z"/>
   <ellipse class="fil0" transform="matrix(0.212102 -0.212102 0.208788 0.208788 22116.1 3154.1)" rx="10375" ry="10540"/>
   <path class="fil1" d="M19918 951c1214,1216 1213,3186 -2,4401l-2 2c-1214,-1216 -1214,-3186 1,-4401l3 -2z"/>
   <path class="fil1" d="M19919 5354c1215,-1215 3184,-1216 4400,-1l-2 2c-1215,1215 -3185,1215 -4400,1l2 -2z"/>
   <path class="fil1" d="M24316 952l-2 2c-1215,1215 -3185,1216 -4400,2l1 -3c1215,-1215 3185,-1215 4401,-1z"/>
   <path class="fil1" d="M24316 957l2 -2c1214,1215 1214,3185 -1,4400l-2 2c-1214,-1216 -1214,-3185 1,-4400z"/>
   <polygon class="fil1" points="25271,0 25271,953 24318,953 24318,0 "/>
   <polygon class="fil1" points="18953,0 18953,953 19906,953 19906,0 "/>
   <polygon class="fil1" points="19906,5354 19906,6306 18953,6306 18953,5354 "/>
   <polygon class="fil1" points="24318,5354 24318,6306 25271,6306 25271,5354 "/>
   <path class="fil1" d="M23547 4585c-790,-790 -2071,-790 -2861,0 790,-790 790,-2071 0,-2861 790,790 2071,790 2861,0 -790,790 -790,2071 0,2861z"/>
   <ellipse class="fil0" transform="matrix(0.212102 -0.212102 0.208788 0.208788 22116.1 9464.17)" rx="10375" ry="10540"/>
   <path class="fil1" d="M19918 7262c1214,1215 1213,3185 -2,4400l-2 2c-1214,-1216 -1214,-3185 1,-4400l3 -2z"/>
   <path class="fil1" d="M19919 11664c1215,-1215 3184,-1215 4400,-1l-2 2c-1215,1215 -3185,1215 -4400,1l2 -2z"/>
   <path class="fil1" d="M24316 7262l-2 2c-1215,1215 -3185,1216 -4400,2l1 -2c1215,-1215 3185,-1216 4401,-2z"/>
   <path class="fil1" d="M24316 7267l2 -2c1214,1215 1214,3185 -1,4400l-2 2c-1214,-1216 -1214,-3185 1,-4400z"/>
   <polygon class="fil1" points="25271,6310 25271,7263 24318,7263 24318,6310 "/>
   <polygon class="fil1" points="18953,6310 18953,7263 19906,7263 19906,6310 "/>
   <polygon class="fil1" points="19906,11664 19906,12616 18953,12616 18953,11664 "/>
   <polygon class="fil1" points="24318,11664 24318,12616 25271,12616 25271,11664 "/>
   <path class="fil1" d="M23547 10895c-790,-790 -2071,-790 -2861,0 790,-790 790,-2071 0,-2861 790,790 2071,790 2861,0 -790,790 -790,2071 0,2861z"/>
   <ellipse class="fil0" transform="matrix(0.212102 -0.212102 0.208788 0.208788 22116.1 15774.2)" rx="10375" ry="10540"/>
   <path class="fil1" d="M19918 13572c1214,1215 1213,3185 -2,4400l-2 2c-1214,-1216 -1214,-3185 1,-4400l3 -2z"/>
   <path class="fil1" d="M19919 17974c1215,-1215 3184,-1215 4400,-1l-2 2c-1215,1215 -3185,1215 -4400,1l2 -2z"/>
   <path class="fil1" d="M24316 13572l-2 2c-1215,1215 -3185,1216 -4400,2l1 -2c1215,-1215 3185,-1216 4401,-2z"/>
   <path class="fil1" d="M24316 13577l2 -2c1214,1215 1214,3185 -1,4400l-2 2c-1214,-1216 -1214,-3185 1,-4400z"/>
   <polygon class="fil1" points="25271,12620 25271,13573 24318,13573 24318,12620 "/>
   <polygon class="fil1" points="18953,12620 18953,13573 19906,13573 19906,12620 "/>
   <polygon class="fil1" points="19906,17974 19906,18926 18953,18926 18953,17974 "/>
   <polygon class="fil1" points="24318,17974 24318,18926 25271,18926 25271,17974 "/>
   <path class="fil1" d="M23547 17205c-790,-790 -2071,-790 -2861,0 790,-790 790,-2071 0,-2861 790,790 2071,790 2861,0 -790,790 -790,2071 0,2861z"/>
   <ellipse class="fil0" transform="matrix(0.212102 -0.212102 0.208788 0.208788 22116.1 22084.3)" rx="10375" ry="10540"/>
   <path class="fil1" d="M19918 19882c1214,1215 1213,3185 -2,4400l-2 2c-1214,-1216 -1214,-3185 1,-4400l3 -2z"/>
   <path class="fil1" d="M19919 24284c1215,-1215 3184,-1215 4400,-1l-2 2c-1215,1215 -3185,1215 -4400,1l2 -2z"/>
   <path class="fil1" d="M24316 19882l-2 3c-1215,1215 -3185,1215 -4400,1l1 -2c1215,-1215 3185,-1216 4401,-2z"/>
   <path class="fil1" d="M24316 19887l2 -2c1214,1215 1214,3185 -1,4400l-2 2c-1214,-1216 -1214,-3185 1,-4400z"/>
   <polygon class="fil1" points="25271,18930 25271,19883 24318,19883 24318,18930 "/>
   <polygon class="fil1" points="18953,18930 18953,19883 19906,19883 19906,18930 "/>
   <polygon class="fil1" points="19906,24284 19906,25236 18953,25236 18953,24284 "/>
   <polygon class="fil1" points="24318,24284 24318,25236 25271,25236 25271,24284 "/>
   <path class="fil1" d="M23547 23515c-790,-790 -2071,-790 -2861,0 790,-790 790,-2071 0,-2861 790,790 2071,790 2861,0 -790,790 -790,2071 0,2861z"/>
   <ellipse class="fil0" transform="matrix(0.212102 -0.212102 0.208788 0.208788 22116.1 28394.4)" rx="10375" ry="10540"/>
   <path class="fil1" d="M19918 26192c1214,1215 1213,3185 -2,4400l-2 2c-1214,-1216 -1214,-3185 1,-4400l3 -2z"/>
   <path class="fil1" d="M19919 30594c1215,-1215 3184,-1215 4400,-1l-2 2c-1215,1215 -3185,1215 -4400,1l2 -2z"/>
   <path class="fil1" d="M24316 26193l-2 2c-1215,1215 -3185,1215 -4400,1l1 -2c1215,-1215 3185,-1216 4401,-1z"/>
   <path class="fil1" d="M24316 26197l2 -2c1214,1215 1214,3185 -1,4400l-2 2c-1214,-1215 -1214,-3185 1,-4400z"/>
   <polygon class="fil1" points="25271,25240 25271,26193 24318,26193 24318,25240 "/>
   <polygon class="fil1" points="18953,25240 18953,26193 19906,26193 19906,25240 "/>
   <polygon class="fil1" points="19906,30594 19906,31547 18953,31547 18953,30594 "/>
   <polygon class="fil1" points="24318,30594 24318,31547 25271,31547 25271,30594 "/>
   <path class="fil1" d="M23547 29825c-790,-790 -2071,-790 -2861,0 790,-790 790,-2071 0,-2861 790,790 2071,790 2861,0 -790,790 -790,2071 0,2861z"/>
   <ellipse class="fil0" transform="matrix(0.212102 -0.212102 0.208788 0.208788 28433.9 3154.1)" rx="10375" ry="10540"/>
   <path class="fil1" d="M26235 951c1214,1216 1214,3186 -1,4401l-2 2c-1214,-1216 -1214,-3186 1,-4401l2 -2z"/>
   <path class="fil1" d="M26236 5354c1215,-1215 3185,-1216 4400,-1l-2 2c-1214,1215 -3184,1215 -4400,1l2 -2z"/>
   <path class="fil1" d="M30633 952l-2 2c-1215,1215 -3184,1216 -4400,2l2 -3c1215,-1215 3185,-1215 4400,-1z"/>
   <path class="fil1" d="M30634 957l2 -2c1214,1215 1213,3185 -2,4400l-2 2c-1214,-1216 -1213,-3185 2,-4400z"/>
   <polygon class="fil1" points="31589,0 31589,953 30636,953 30636,0 "/>
   <polygon class="fil1" points="25271,0 25271,953 26224,953 26224,0 "/>
   <polygon class="fil1" points="26224,5354 26224,6306 25271,6306 25271,5354 "/>
   <polygon class="fil1" points="30636,5354 30636,6306 31589,6306 31589,5354 "/>
   <path class="fil1" d="M29864 4585c-790,-790 -2071,-790 -2861,0 790,-790 790,-2071 0,-2861 790,790 2071,790 2861,0 -790,790 -790,2071 0,2861z"/>
   <ellipse class="fil0" transform="matrix(0.212102 -0.212102 0.208788 0.208788 28433.9 9464.17)" rx="10375" ry="10540"/>
   <path class="fil1" d="M26235 7262c1214,1215 1214,3185 -1,4400l-2 2c-1214,-1216 -1214,-3185 1,-4400l2 -2z"/>
   <path class="fil1" d="M26236 11664c1215,-1215 3185,-1215 4400,-1l-2 2c-1214,1215 -3184,1215 -4400,1l2 -2z"/>
   <path class="fil1" d="M30633 7262l-2 2c-1215,1215 -3184,1216 -4400,2l2 -2c1215,-1215 3185,-1216 4400,-2z"/>
   <path class="fil1" d="M30634 7267l2 -2c1214,1215 1213,3185 -2,4400l-2 2c-1214,-1216 -1213,-3185 2,-4400z"/>
   <polygon class="fil1" points="31589,6310 31589,7263 30636,7263 30636,6310 "/>
   <polygon class="fil1" points="25271,6310 25271,7263 26224,7263 26224,6310 "/>
   <polygon class="fil1" points="26224,11664 26224,12616 25271,12616 25271,11664 "/>
   <polygon class="fil1" points="30636,11664 30636,12616 31589,12616 31589,11664 "/>
   <path class="fil1" d="M29864 10895c-790,-790 -2071,-790 -2861,0 790,-790 790,-2071 0,-2861 790,790 2071,790 2861,0 -790,790 -790,2071 0,2861z"/>
   <ellipse class="fil0" transform="matrix(0.212102 -0.212102 0.208788 0.208788 28433.9 15774.2)" rx="10375" ry="10540"/>
   <path class="fil1" d="M26235 13572c1214,1215 1214,3185 -1,4400l-2 2c-1214,-1216 -1214,-3185 1,-4400l2 -2z"/>
   <path class="fil1" d="M26236 17974c1215,-1215 3185,-1215 4400,-1l-2 2c-1214,1215 -3184,1215 -4400,1l2 -2z"/>
   <path class="fil1" d="M30633 13572l-2 2c-1215,1215 -3184,1216 -4400,2l2 -2c1215,-1215 3185,-1216 4400,-2z"/>
   <path class="fil1" d="M30634 13577l2 -2c1214,1215 1213,3185 -2,4400l-2 2c-1214,-1216 -1213,-3185 2,-4400z"/>
   <polygon class="fil1" points="31589,12620 31589,13573 30636,13573 30636,12620 "/>
   <polygon class="fil1" points="25271,12620 25271,13573 26224,13573 26224,12620 "/>
   <polygon class="fil1" points="26224,17974 26224,18926 25271,18926 25271,17974 "/>
   <polygon class="fil1" points="30636,17974 30636,18926 31589,18926 31589,17974 "/>
   <path class="fil1" d="M29864 17205c-790,-790 -2071,-790 -2861,0 790,-790 790,-2071 0,-2861 790,790 2071,790 2861,0 -790,790 -790,2071 0,2861z"/>
   <ellipse class="fil0" transform="matrix(0.212102 -0.212102 0.208788 0.208788 28433.9 22084.3)" rx="10375" ry="10540"/>
   <path class="fil1" d="M26235 19882c1214,1215 1214,3185 -1,4400l-2 2c-1214,-1216 -1214,-3185 1,-4400l2 -2z"/>
   <path class="fil1" d="M26236 24284c1215,-1215 3185,-1215 4400,-1l-2 2c-1214,1215 -3184,1215 -4400,1l2 -2z"/>
   <path class="fil1" d="M30633 19882l-2 3c-1215,1215 -3184,1215 -4400,1l2 -2c1215,-1215 3185,-1216 4400,-2z"/>
   <path class="fil1" d="M30634 19887l2 -2c1214,1215 1213,3185 -2,4400l-2 2c-1214,-1216 -1213,-3185 2,-4400z"/>
   <polygon class="fil1" points="31589,18930 31589,19883 30636,19883 30636,18930 "/>
   <polygon class="fil1" points="25271,18930 25271,19883 26224,19883 26224,18930 "/>
   <polygon class="fil1" points="26224,24284 26224,25236 25271,25236 25271,24284 "/>
   <polygon class="fil1" points="30636,24284 30636,25236 31589,25236 31589,24284 "/>
   <path class="fil1" d="M29864 23515c-790,-790 -2071,-790 -2861,0 790,-790 790,-2071 0,-2861 790,790 2071,790 2861,0 -790,790 -790,2071 0,2861z"/>
   <ellipse class="fil0" transform="matrix(0.212102 -0.212102 0.208788 0.208788 28433.9 28394.4)" rx="10375" ry="10540"/>
   <path class="fil1" d="M26235 26192c1214,1215 1214,3185 -1,4400l-2 2c-1214,-1216 -1214,-3185 1,-4400l2 -2z"/>
   <path class="fil1" d="M26236 30594c1215,-1215 3185,-1215 4400,-1l-2 2c-1214,1215 -3184,1215 -4400,1l2 -2z"/>
   <path class="fil1" d="M30633 26193l-2 2c-1215,1215 -3184,1215 -4400,1l2 -2c1215,-1215 3185,-1216 4400,-1z"/>
   <path class="fil1" d="M30634 26197l2 -2c1214,1215 1213,3185 -2,4400l-2 2c-1214,-1215 -1213,-3185 2,-4400z"/>
   <polygon class="fil1" points="31589,25240 31589,26193 30636,26193 30636,25240 "/>
   <polygon class="fil1" points="25271,25240 25271,26193 26224,26193 26224,25240 "/>
   <polygon class="fil1" points="26224,30594 26224,31547 25271,31547 25271,30594 "/>
   <polygon class="fil1" points="30636,30594 30636,31547 31589,31547 31589,30594 "/>
   <path class="fil1" d="M29864 29825c-790,-790 -2071,-790 -2861,0 790,-790 790,-2071 0,-2861 790,790 2071,790 2861,0 -790,790 -790,2071 0,2861z"/>
  </g>
 </g>
</svg>
