<?xml version="1.0" encoding="UTF-8"?>
<!DOCTYPE svg PUBLIC "-//W3C//DTD SVG 1.1//EN" "http://www.w3.org/Graphics/SVG/1.1/DTD/svg11.dtd">
<!-- Creator: CorelDRAW X6 -->
<svg xmlns="http://www.w3.org/2000/svg" xml:space="preserve" width="128.542mm" height="110.98mm" version="1.1" style="shape-rendering:geometricPrecision; text-rendering:geometricPrecision; image-rendering:optimizeQuality; fill-rule:evenodd; clip-rule:evenodd"
viewBox="0 0 15035 12981"
 xmlns:xlink="http://www.w3.org/1999/xlink">
 <defs>
  <style type="text/css">
   <![CDATA[
    .str0 {stroke:#4C57FF;stroke-width:99.0356}
    .fil0 {fill:none}
   ]]>
  </style>
 </defs>
 <g id="Layer_x0020_1">
  <metadata id="CorelCorpID_0Corel-Layer"/>
  <path class="fil0 str0" d="M10023 667c204,14 404,-83 632,-307 317,-311 778,-440 1129,-144 307,258 456,446 730,455 294,5 430,-120 739,-419 304,-294 794,-253 1112,46 247,232 459,360 668,369"/>
  <path class="fil0 str0" d="M10023 1579c204,-14 404,83 632,307 317,311 778,439 1129,144 307,-259 456,-446 730,-455 294,-6 430,120 739,419 304,294 794,253 1112,-46 247,-232 459,-360 668,-370"/>
  <path class="fil0 str0" d="M10023 1126c245,2 488,-103 687,-302 322,-325 749,-464 1072,-75 177,213 468,377 728,375 298,-3 471,-91 741,-339 559,-515 806,-188 1210,136 177,141 375,208 572,205"/>
  <path class="fil0 str0" d="M10023 1119c245,-1 488,103 687,303 322,324 749,464 1072,75 177,-213 468,-377 728,-375 298,2 471,91 741,339 559,514 806,187 1210,-136 177,-141 375,-208 572,-206"/>
  <path class="fil0 str0" d="M10023 2814c204,14 404,-83 632,-307 317,-311 778,-439 1129,-144 307,259 456,446 730,455 294,5 430,-120 739,-419 304,-294 794,-253 1112,46 247,232 459,360 668,369"/>
  <path class="fil0 str0" d="M10023 3726c204,-14 404,83 632,307 317,311 778,439 1129,144 307,-259 456,-446 730,-455 294,-6 430,120 739,419 304,294 794,253 1112,-46 247,-232 459,-360 668,-370"/>
  <path class="fil0 str0" d="M10023 3273c245,2 488,-103 687,-302 322,-325 749,-464 1072,-75 177,213 468,377 728,375 298,-3 471,-91 741,-339 559,-515 806,-187 1210,136 177,141 375,208 572,205"/>
  <path class="fil0 str0" d="M10023 3266c245,-1 488,103 687,303 322,325 749,464 1072,75 177,-213 468,-377 728,-375 298,2 471,91 741,339 559,514 806,187 1210,-136 177,-141 375,-208 572,-206"/>
  <path class="fil0 str0" d="M10023 4961c204,14 404,-83 632,-307 317,-311 778,-439 1129,-144 307,259 456,446 730,455 294,5 430,-120 739,-419 304,-294 794,-253 1112,46 247,232 459,360 668,369"/>
  <path class="fil0 str0" d="M10023 5873c204,-14 404,83 632,307 317,311 778,439 1129,144 307,-259 456,-446 730,-455 294,-5 430,120 739,419 304,294 794,253 1112,-46 247,-232 459,-360 668,-370"/>
  <path class="fil0 str0" d="M10023 5420c245,2 488,-102 687,-302 322,-325 749,-464 1072,-75 177,213 468,377 728,375 298,-3 471,-91 741,-339 559,-515 806,-187 1210,136 177,141 375,208 572,205"/>
  <path class="fil0 str0" d="M10023 5413c245,-1 488,103 687,303 322,325 749,464 1072,75 177,-213 468,-377 728,-375 298,3 471,91 741,339 559,514 806,187 1210,-136 177,-141 375,-208 572,-206"/>
  <path class="fil0 str0" d="M10023 7108c204,14 404,-83 632,-307 317,-311 778,-439 1129,-144 307,259 456,446 730,455 294,5 430,-120 739,-419 304,-294 794,-253 1112,46 247,232 459,360 668,370"/>
  <path class="fil0 str0" d="M10023 8020c204,-14 404,83 632,307 317,311 778,439 1129,144 307,-259 456,-446 730,-455 294,-5 430,120 739,419 304,294 794,253 1112,-46 247,-232 459,-360 668,-370"/>
  <path class="fil0 str0" d="M10023 7567c245,2 488,-102 687,-302 322,-325 749,-464 1072,-75 177,213 468,377 728,375 298,-3 471,-91 741,-339 559,-515 806,-187 1210,136 177,141 375,208 572,205"/>
  <path class="fil0 str0" d="M10023 7561c245,-2 488,102 687,302 322,325 749,464 1072,75 177,-213 468,-377 728,-375 298,3 471,91 741,339 559,515 806,187 1210,-136 177,-141 375,-208 572,-205"/>
  <path class="fil0 str0" d="M10023 9255c204,14 404,-83 632,-307 317,-311 778,-439 1129,-144 307,259 456,446 730,455 294,5 430,-120 739,-419 304,-294 794,-253 1112,46 247,232 459,360 668,370"/>
  <path class="fil0 str0" d="M10023 10167c204,-14 404,83 632,307 317,311 778,439 1129,144 307,-259 456,-446 730,-455 294,-5 430,120 739,419 304,294 794,253 1112,-46 247,-232 459,-360 668,-369"/>
  <path class="fil0 str0" d="M10023 9715c245,1 488,-103 687,-303 322,-325 749,-464 1072,-75 177,213 468,377 728,375 298,-3 471,-91 741,-339 559,-514 806,-187 1210,136 177,141 375,208 572,206"/>
  <path class="fil0 str0" d="M10023 9708c245,-2 488,102 687,302 322,325 749,464 1072,75 177,-213 468,-377 728,-375 298,3 471,91 741,339 559,515 806,187 1210,-136 177,-141 375,-208 572,-205"/>
  <path class="fil0 str0" d="M10023 11402c204,14 404,-83 632,-307 317,-311 778,-439 1129,-144 307,259 456,446 730,455 294,6 430,-120 739,-419 304,-294 794,-253 1112,46 247,232 459,360 668,370"/>
  <path class="fil0 str0" d="M10023 12314c204,-14 404,83 632,307 317,311 778,439 1129,144 307,-259 456,-446 730,-455 294,-5 430,120 739,419 304,294 794,253 1112,-46 247,-232 459,-360 668,-369"/>
  <path class="fil0 str0" d="M10023 11862c245,1 488,-103 687,-303 322,-325 749,-464 1072,-75 177,213 468,377 728,375 298,-2 471,-91 741,-339 559,-514 806,-187 1210,136 177,141 375,208 572,206"/>
  <path class="fil0 str0" d="M10023 11855c245,-2 488,102 687,302 322,325 749,464 1072,75 177,-213 468,-377 728,-375 298,3 471,91 741,339 559,515 806,187 1210,-136 177,-141 375,-208 572,-205"/>
  <path class="fil0 str0" d="M5013 667c204,14 405,-83 632,-307 317,-311 779,-440 1130,-144 306,258 456,446 729,455 294,5 430,-120 739,-419 304,-294 794,-253 1113,46 246,232 458,360 667,369"/>
  <path class="fil0 str0" d="M5013 1579c204,-14 405,83 632,307 317,311 779,439 1130,144 306,-259 456,-446 729,-455 294,-6 430,120 739,419 304,294 794,253 1113,-46 246,-232 458,-360 667,-370"/>
  <path class="fil0 str0" d="M5013 1126c245,2 488,-103 687,-302 323,-325 749,-464 1072,-75 177,213 468,377 728,375 298,-3 471,-91 741,-339 559,-515 806,-188 1211,136 176,141 374,208 571,205"/>
  <path class="fil0 str0" d="M5013 1119c245,-1 488,103 687,303 323,324 749,464 1072,75 177,-213 468,-377 728,-375 298,2 471,91 741,339 559,514 806,187 1211,-136 176,-141 374,-208 571,-206"/>
  <path class="fil0 str0" d="M5013 2814c204,14 405,-83 632,-307 317,-311 779,-439 1130,-144 306,259 456,446 729,455 294,5 430,-120 739,-419 304,-294 794,-253 1113,46 246,232 458,360 667,369"/>
  <path class="fil0 str0" d="M5013 3726c204,-14 405,83 632,307 317,311 779,439 1130,144 306,-259 456,-446 729,-455 294,-6 430,120 739,419 304,294 794,253 1113,-46 246,-232 458,-360 667,-370"/>
  <path class="fil0 str0" d="M5013 3273c245,2 488,-103 687,-302 323,-325 749,-464 1072,-75 177,213 468,377 728,375 298,-3 471,-91 741,-339 559,-515 806,-187 1211,136 176,141 374,208 571,205"/>
  <path class="fil0 str0" d="M5013 3266c245,-1 488,103 687,303 323,325 749,464 1072,75 177,-213 468,-377 728,-375 298,2 471,91 741,339 559,514 806,187 1211,-136 176,-141 374,-208 571,-206"/>
  <path class="fil0 str0" d="M5013 4961c204,14 405,-83 632,-307 317,-311 779,-439 1130,-144 306,259 456,446 729,455 294,5 430,-120 739,-419 304,-294 794,-253 1113,46 246,232 458,360 667,369"/>
  <path class="fil0 str0" d="M5013 5873c204,-14 405,83 632,307 317,311 779,439 1130,144 306,-259 456,-446 729,-455 294,-5 430,120 739,419 304,294 794,253 1113,-46 246,-232 458,-360 667,-370"/>
  <path class="fil0 str0" d="M5013 5420c245,2 488,-102 687,-302 323,-325 749,-464 1072,-75 177,213 468,377 728,375 298,-3 471,-91 741,-339 559,-515 806,-187 1211,136 176,141 374,208 571,205"/>
  <path class="fil0 str0" d="M5013 5413c245,-1 488,103 687,303 323,325 749,464 1072,75 177,-213 468,-377 728,-375 298,3 471,91 741,339 559,514 806,187 1211,-136 176,-141 374,-208 571,-206"/>
  <path class="fil0 str0" d="M5013 7108c204,14 405,-83 632,-307 317,-311 779,-439 1130,-144 306,259 456,446 729,455 294,5 430,-120 739,-419 304,-294 794,-253 1113,46 246,232 458,360 667,370"/>
  <path class="fil0 str0" d="M5013 8020c204,-14 405,83 632,307 317,311 779,439 1130,144 306,-259 456,-446 729,-455 294,-5 430,120 739,419 304,294 794,253 1113,-46 246,-232 458,-360 667,-370"/>
  <path class="fil0 str0" d="M5013 7567c245,2 488,-102 687,-302 323,-325 749,-464 1072,-75 177,213 468,377 728,375 298,-3 471,-91 741,-339 559,-515 806,-187 1211,136 176,141 374,208 571,205"/>
  <path class="fil0 str0" d="M5013 7561c245,-2 488,102 687,302 323,325 749,464 1072,75 177,-213 468,-377 728,-375 298,3 471,91 741,339 559,515 806,187 1211,-136 176,-141 374,-208 571,-205"/>
  <path class="fil0 str0" d="M5013 9255c204,14 405,-83 632,-307 317,-311 779,-439 1130,-144 306,259 456,446 729,455 294,5 430,-120 739,-419 304,-294 794,-253 1113,46 246,232 458,360 667,370"/>
  <path class="fil0 str0" d="M5013 10167c204,-14 405,83 632,307 317,311 779,439 1130,144 306,-259 456,-446 729,-455 294,-5 430,120 739,419 304,294 794,253 1113,-46 246,-232 458,-360 667,-369"/>
  <path class="fil0 str0" d="M5013 9715c245,1 488,-103 687,-303 323,-325 749,-464 1072,-75 177,213 468,377 728,375 298,-3 471,-91 741,-339 559,-514 806,-187 1211,136 176,141 374,208 571,206"/>
  <path class="fil0 str0" d="M5013 9708c245,-2 488,102 687,302 323,325 749,464 1072,75 177,-213 468,-377 728,-375 298,3 471,91 741,339 559,515 806,187 1211,-136 176,-141 374,-208 571,-205"/>
  <path class="fil0 str0" d="M5013 11402c204,14 405,-83 632,-307 317,-311 779,-439 1130,-144 306,259 456,446 729,455 294,6 430,-120 739,-419 304,-294 794,-253 1113,46 246,232 458,360 667,370"/>
  <path class="fil0 str0" d="M5013 12314c204,-14 405,83 632,307 317,311 779,439 1130,144 306,-259 456,-446 729,-455 294,-5 430,120 739,419 304,294 794,253 1113,-46 246,-232 458,-360 667,-369"/>
  <path class="fil0 str0" d="M5013 11862c245,1 488,-103 687,-303 323,-325 749,-464 1072,-75 177,213 468,377 728,375 298,-2 471,-91 741,-339 559,-514 806,-187 1211,136 176,141 374,208 571,206"/>
  <path class="fil0 str0" d="M5013 11855c245,-2 488,102 687,302 323,325 749,464 1072,75 177,-213 468,-377 728,-375 298,3 471,91 741,339 559,515 806,187 1211,-136 176,-141 374,-208 571,-205"/>
  <path class="fil0 str0" d="M4 667c203,14 404,-83 632,-307 316,-311 778,-440 1129,-144 307,258 456,446 729,455 294,5 430,-120 739,-419 304,-294 795,-253 1113,46 247,232 458,360 667,369"/>
  <path class="fil0 str0" d="M4 1579c203,-14 404,83 632,307 316,311 778,439 1129,144 307,-259 456,-446 729,-455 294,-6 430,120 739,419 304,294 795,253 1113,-46 247,-232 458,-360 667,-370"/>
  <path class="fil0 str0" d="M4 1126c244,2 487,-103 686,-302 323,-325 749,-464 1073,-75 177,213 468,377 727,375 298,-3 471,-91 741,-339 559,-515 806,-188 1211,136 176,141 374,208 571,205"/>
  <path class="fil0 str0" d="M4 1119c244,-1 487,103 686,303 323,324 749,464 1073,75 177,-213 468,-377 727,-375 298,2 471,91 741,339 559,514 806,187 1211,-136 176,-141 374,-208 571,-206"/>
  <path class="fil0 str0" d="M4 2814c203,14 404,-83 632,-307 316,-311 778,-439 1129,-144 307,259 456,446 729,455 294,5 430,-120 739,-419 304,-294 795,-253 1113,46 247,232 458,360 667,369"/>
  <path class="fil0 str0" d="M4 3726c203,-14 404,83 632,307 316,311 778,439 1129,144 307,-259 456,-446 729,-455 294,-6 430,120 739,419 304,294 795,253 1113,-46 247,-232 458,-360 667,-370"/>
  <path class="fil0 str0" d="M4 3273c244,2 487,-103 686,-302 323,-325 749,-464 1073,-75 177,213 468,377 727,375 298,-3 471,-91 741,-339 559,-515 806,-187 1211,136 176,141 374,208 571,205"/>
  <path class="fil0 str0" d="M4 3266c244,-1 487,103 686,303 323,325 749,464 1073,75 177,-213 468,-377 727,-375 298,2 471,91 741,339 559,514 806,187 1211,-136 176,-141 374,-208 571,-206"/>
  <path class="fil0 str0" d="M4 4961c203,14 404,-83 632,-307 316,-311 778,-439 1129,-144 307,259 456,446 729,455 294,5 430,-120 739,-419 304,-294 795,-253 1113,46 247,232 458,360 667,369"/>
  <path class="fil0 str0" d="M4 5873c203,-14 404,83 632,307 316,311 778,439 1129,144 307,-259 456,-446 729,-455 294,-5 430,120 739,419 304,294 795,253 1113,-46 247,-232 458,-360 667,-370"/>
  <path class="fil0 str0" d="M4 5420c244,2 487,-102 686,-302 323,-325 749,-464 1073,-75 177,213 468,377 727,375 298,-3 471,-91 741,-339 559,-515 806,-187 1211,136 176,141 374,208 571,205"/>
  <path class="fil0 str0" d="M4 5413c244,-1 487,103 686,303 323,325 749,464 1073,75 177,-213 468,-377 727,-375 298,3 471,91 741,339 559,514 806,187 1211,-136 176,-141 374,-208 571,-206"/>
  <path class="fil0 str0" d="M4 7108c203,14 404,-83 632,-307 316,-311 778,-439 1129,-144 307,259 456,446 729,455 294,5 430,-120 739,-419 304,-294 795,-253 1113,46 247,232 458,360 667,370"/>
  <path class="fil0 str0" d="M4 8020c203,-14 404,83 632,307 316,311 778,439 1129,144 307,-259 456,-446 729,-455 294,-5 430,120 739,419 304,294 795,253 1113,-46 247,-232 458,-360 667,-370"/>
  <path class="fil0 str0" d="M4 7567c244,2 487,-102 686,-302 323,-325 749,-464 1073,-75 177,213 468,377 727,375 298,-3 471,-91 741,-339 559,-515 806,-187 1211,136 176,141 374,208 571,205"/>
  <path class="fil0 str0" d="M4 7561c244,-2 487,102 686,302 323,325 749,464 1073,75 177,-213 468,-377 727,-375 298,3 471,91 741,339 559,515 806,187 1211,-136 176,-141 374,-208 571,-205"/>
  <path class="fil0 str0" d="M4 9255c203,14 404,-83 632,-307 316,-311 778,-439 1129,-144 307,259 456,446 729,455 294,5 430,-120 739,-419 304,-294 795,-253 1113,46 247,232 458,360 667,370"/>
  <path class="fil0 str0" d="M4 10167c203,-14 404,83 632,307 316,311 778,439 1129,144 307,-259 456,-446 729,-455 294,-5 430,120 739,419 304,294 795,253 1113,-46 247,-232 458,-360 667,-369"/>
  <path class="fil0 str0" d="M4 9715c244,1 487,-103 686,-303 323,-325 749,-464 1073,-75 177,213 468,377 727,375 298,-3 471,-91 741,-339 559,-514 806,-187 1211,136 176,141 374,208 571,206"/>
  <path class="fil0 str0" d="M4 9708c244,-2 487,102 686,302 323,325 749,464 1073,75 177,-213 468,-377 727,-375 298,3 471,91 741,339 559,515 806,187 1211,-136 176,-141 374,-208 571,-205"/>
  <path class="fil0 str0" d="M4 11402c203,14 404,-83 632,-307 316,-311 778,-439 1129,-144 307,259 456,446 729,455 294,6 430,-120 739,-419 304,-294 795,-253 1113,46 247,232 458,360 667,370"/>
  <path class="fil0 str0" d="M4 12314c203,-14 404,83 632,307 316,311 778,439 1129,144 307,-259 456,-446 729,-455 294,-5 430,120 739,419 304,294 795,253 1113,-46 247,-232 458,-360 667,-369"/>
  <path class="fil0 str0" d="M4 11862c244,1 487,-103 686,-303 323,-325 749,-464 1073,-75 177,213 468,377 727,375 298,-2 471,-91 741,-339 559,-514 806,-187 1211,136 176,141 374,208 571,206"/>
  <path class="fil0 str0" d="M4 11855c244,-2 487,102 686,302 323,325 749,464 1073,75 177,-213 468,-377 727,-375 298,3 471,91 741,339 559,515 806,187 1211,-136 176,-141 374,-208 571,-205"/>
 </g>
</svg>
