<?xml version="1.0" encoding="UTF-8"?>
<!DOCTYPE svg PUBLIC "-//W3C//DTD SVG 1.1//EN" "http://www.w3.org/Graphics/SVG/1.1/DTD/svg11.dtd">
<!-- Creator: CorelDRAW X6 -->
<svg xmlns="http://www.w3.org/2000/svg" xml:space="preserve" width="123.212mm" height="123.135mm" version="1.1" style="shape-rendering:geometricPrecision; text-rendering:geometricPrecision; image-rendering:optimizeQuality; fill-rule:evenodd; clip-rule:evenodd"
viewBox="0 0 28943 28925"
 xmlns:xlink="http://www.w3.org/1999/xlink">
 <defs>
  <style type="text/css">
   <![CDATA[
    .fil1 {fill:#13ECAB}
    .fil0 {fill:#4C57FF}
   ]]>
  </style>
 </defs>
 <g id="Layer_x0020_1">
  <metadata id="CorelCorpID_0Corel-Layer"/>
  <g id="_328134768">
   <path class="fil0" d="M4946 12c-1095,1127 -2971,1122 -4094,0 4,-4 8,-8 12,-12l4069 0 13 12z"/>
   <path class="fil0" d="M4 860c1127,1095 1122,2971 0,4095l-4 -4 0 -4086 4 -5z"/>
   <polygon class="fil1" points="839,0 847,8 0,855 0,0 "/>
   <polygon class="fil1" points="4946,8 4954,0 6633,0 6641,8 5793,855 "/>
   <polygon class="fil1" points="847,5798 0,6645 0,4950 "/>
   <path class="fil0" d="M10735 8c-1095,1127 -2971,1122 -4094,0l8 -8 4077 0 9 8z"/>
   <path class="fil0" d="M5793 856c1127,1095 1122,2971 0,4095 -1143,-1111 -1128,-2966 0,-4095z"/>
   <polygon class="fil1" points="10735,4 10739,0 12426,0 12430,4 11582,851 "/>
   <polygon class="fil1" points="6636,5794 5789,6641 4941,5794 5789,4946 "/>
   <path class="fil0" d="M16524 4c-1095,1127 -2971,1122 -4094,0l4 -4 4085 0 5 4z"/>
   <path class="fil0" d="M11582 852c1127,1095 1122,2971 0,4095 -1143,-1111 -1128,-2966 0,-4095z"/>
   <polygon class="fil1" points="18219,0 17371,847 16524,0 "/>
   <polygon class="fil1" points="12425,5790 11578,6637 10730,5790 11578,4942 "/>
   <path class="fil0" d="M28095 0c-1094,1119 -2960,1114 -4082,0l4082 0z"/>
   <path class="fil0" d="M23159 842c1127,1095 1122,2971 0,4095 -1144,-1111 -1128,-2966 0,-4095z"/>
   <polygon class="fil1" points="28943,833 28111,0 28943,0 "/>
   <polygon class="fil1" points="24002,5780 23155,6627 22307,5780 23155,4932 "/>
   <path class="fil0" d="M22312 0c-1094,1127 -2970,1122 -4094,0l4094 0 0 0z"/>
   <path class="fil0" d="M17371 848c1126,1095 1122,2971 0,4095 -1144,-1111 -1128,-2966 0,-4095z"/>
   <polygon class="fil1" points="24003,0 23160,843 22317,0 "/>
   <polygon class="fil1" points="18214,5785 17367,6633 16519,5785 17367,4938 "/>
   <path class="fil0" d="M28943 4929c-1137,-1110 -1122,-2958 0,-4087l0 4087z"/>
   <polygon class="fil1" points="28943,6623 28096,5775 28943,4928 "/>
   <path class="fil0" d="M4946 5797c-1095,1126 -2971,1122 -4094,-1 1110,-1143 2965,-1127 4094,1z"/>
   <path class="fil0" d="M4 6645c1127,1094 1122,2970 0,4094l-4 -4 0 -4086 4 -4z"/>
   <polygon class="fil1" points="847,11582 0,12429 0,10735 "/>
   <path class="fil0" d="M10735 5793c-1095,1126 -2971,1122 -4094,-1 1110,-1143 2965,-1127 4094,1z"/>
   <path class="fil0" d="M5793 6641c1127,1094 1122,2970 0,4094 -1143,-1110 -1128,-2965 0,-4094z"/>
   <polygon class="fil1" points="6636,11578 5789,12425 4941,11578 5789,10731 "/>
   <path class="fil0" d="M16524 5789c-1095,1126 -2971,1122 -4094,-1 1110,-1143 2965,-1127 4094,1z"/>
   <path class="fil0" d="M11582 6637c1127,1094 1122,2970 0,4094 -1143,-1110 -1128,-2965 0,-4094z"/>
   <polygon class="fil1" points="12425,11574 11578,12421 10730,11574 11578,10727 "/>
   <path class="fil0" d="M28101 5779c-1095,1126 -2971,1122 -4094,-1 1110,-1143 2965,-1127 4094,1z"/>
   <path class="fil0" d="M23159 6627c1127,1094 1122,2970 0,4094 -1144,-1110 -1128,-2965 0,-4094z"/>
   <polygon class="fil1" points="24002,11564 23155,12411 22307,11564 23155,10717 "/>
   <path class="fil0" d="M22312 5785c-1094,1126 -2970,1122 -4094,-1 1111,-1143 2966,-1127 4094,1z"/>
   <path class="fil0" d="M17371 6633c1126,1094 1122,2970 0,4094 -1144,-1110 -1128,-2965 0,-4094z"/>
   <polygon class="fil1" points="18214,11570 17367,12417 16519,11570 17367,10723 "/>
   <path class="fil0" d="M28943 10713c-1137,-1109 -1122,-2958 0,-4086l0 4086z"/>
   <polygon class="fil1" points="28943,12407 28096,11560 28943,10713 "/>
   <path class="fil0" d="M4946 11581c-1095,1127 -2971,1122 -4094,0 1110,-1143 2965,-1128 4094,0z"/>
   <path class="fil0" d="M4 12429c1127,1095 1122,2971 0,4095l-4 -4 0 -4087 4 -4z"/>
   <polygon class="fil1" points="847,17366 0,18214 0,16519 "/>
   <path class="fil0" d="M10735 11577c-1095,1127 -2971,1122 -4094,0 1110,-1143 2965,-1128 4094,0z"/>
   <path class="fil0" d="M5793 12425c1127,1095 1122,2971 0,4095 -1143,-1111 -1128,-2966 0,-4095z"/>
   <polygon class="fil1" points="6636,17362 5789,18210 4941,17362 5789,16515 "/>
   <path class="fil0" d="M16524 11573c-1095,1127 -2971,1122 -4094,0 1110,-1143 2965,-1128 4094,0z"/>
   <path class="fil0" d="M11582 12421c1127,1095 1122,2971 0,4095 -1143,-1111 -1128,-2966 0,-4095z"/>
   <polygon class="fil1" points="12425,17359 11578,18206 10730,17359 11578,16511 "/>
   <path class="fil0" d="M28101 11563c-1095,1127 -2971,1122 -4094,0 1110,-1143 2965,-1128 4094,0z"/>
   <path class="fil0" d="M23159 12411c1127,1095 1122,2971 0,4095 -1144,-1111 -1128,-2966 0,-4095z"/>
   <polygon class="fil1" points="24002,17349 23155,18196 22307,17349 23155,16501 "/>
   <path class="fil0" d="M22312 11569c-1094,1127 -2970,1122 -4094,0 1111,-1143 2966,-1128 4094,0z"/>
   <path class="fil0" d="M17371 12417c1126,1095 1122,2971 0,4094 -1144,-1110 -1128,-2965 0,-4094z"/>
   <polygon class="fil1" points="18214,17354 17367,18202 16519,17354 17367,16507 "/>
   <path class="fil0" d="M28943 16497c-1137,-1109 -1122,-2958 0,-4086l0 4086z"/>
   <polygon class="fil1" points="28943,18192 28096,17344 28943,16497 "/>
   <path class="fil0" d="M4946 17366c-1095,1127 -2971,1123 -4094,0 1110,-1143 2965,-1127 4094,0z"/>
   <path class="fil0" d="M4 18214c1127,1095 1122,2971 0,4095l-4 -4 0 -4086 4 -5z"/>
   <polygon class="fil1" points="847,23152 0,23999 0,22304 "/>
   <path class="fil0" d="M10735 17362c-1095,1127 -2971,1123 -4094,0 1110,-1143 2965,-1127 4094,0z"/>
   <path class="fil0" d="M5793 18210c1127,1095 1122,2971 0,4095 -1143,-1111 -1128,-2966 0,-4095z"/>
   <polygon class="fil1" points="6636,23148 5789,23995 4941,23148 5789,22300 "/>
   <path class="fil0" d="M16524 17358c-1095,1127 -2971,1123 -4094,0 1110,-1143 2965,-1127 4094,0z"/>
   <path class="fil0" d="M11582 18206c1127,1095 1122,2971 0,4095 -1143,-1111 -1128,-2966 0,-4095z"/>
   <polygon class="fil1" points="12425,23144 11578,23991 10730,23144 11578,22296 "/>
   <path class="fil0" d="M28101 17348c-1095,1127 -2971,1123 -4094,0 1110,-1143 2965,-1127 4094,0z"/>
   <path class="fil0" d="M23159 18196c1127,1095 1122,2971 0,4095 -1144,-1111 -1128,-2966 0,-4095z"/>
   <polygon class="fil1" points="24002,23134 23155,23981 22307,23134 23155,22286 "/>
   <path class="fil0" d="M22312 17354c-1094,1127 -2970,1123 -4094,0 1111,-1143 2966,-1127 4094,0z"/>
   <path class="fil0" d="M17371 18202c1126,1095 1122,2971 0,4095 -1144,-1111 -1128,-2966 0,-4095z"/>
   <polygon class="fil1" points="18214,23140 17367,23987 16519,23140 17367,22292 "/>
   <path class="fil0" d="M28943 22283c-1137,-1110 -1122,-2958 0,-4086l0 4086z"/>
   <polygon class="fil1" points="28943,23977 28096,23130 28943,22282 "/>
   <path class="fil0" d="M4946 23151c-1095,1126 -2971,1122 -4094,-1 1110,-1143 2965,-1127 4094,1z"/>
   <path class="fil0" d="M4 23999c1127,1094 1122,2970 0,4094l-4 -4 0 -4086 4 -4z"/>
   <polygon class="fil1" points="0,28088 837,28925 0,28925 "/>
   <path class="fil0" d="M10735 23147c-1095,1126 -2971,1122 -4094,-1 1110,-1143 2965,-1127 4094,1z"/>
   <path class="fil0" d="M5793 23995c1127,1094 1122,2970 0,4094 -1143,-1110 -1128,-2965 0,-4094z"/>
   <polygon class="fil1" points="4948,28925 5789,28084 6630,28925 "/>
   <path class="fil0" d="M16524 23143c-1095,1126 -2971,1122 -4094,-1 1110,-1143 2965,-1127 4094,1z"/>
   <path class="fil0" d="M11582 23991c1127,1094 1122,2970 0,4094 -1143,-1110 -1128,-2965 0,-4094z"/>
   <polygon class="fil1" points="10733,28925 11578,28081 12423,28925 "/>
   <path class="fil0" d="M28101 23133c-1095,1126 -2971,1122 -4094,-1 1110,-1143 2965,-1127 4094,1z"/>
   <path class="fil0" d="M23159 23981c1127,1094 1122,2970 0,4094 -1144,-1110 -1128,-2965 0,-4094z"/>
   <polygon class="fil1" points="24002,28918 23995,28925 22315,28925 22307,28918 23155,28070 "/>
   <path class="fil0" d="M22312 23139c-1094,1126 -2970,1122 -4094,-1 1111,-1143 2966,-1127 4094,1z"/>
   <path class="fil0" d="M17371 23987c1126,1094 1122,2970 0,4094 -1144,-1110 -1128,-2965 0,-4094z"/>
   <polygon class="fil1" points="18214,28924 18213,28925 16521,28925 16519,28924 17367,28076 "/>
   <path class="fil0" d="M28943 28067c-1137,-1110 -1122,-2958 0,-4086l0 4086z"/>
   <polygon class="fil1" points="28107,28925 28096,28914 28943,28066 28943,28925 "/>
   <path class="fil0" d="M864 28925c1107,-1127 2943,-1111 4069,0l-4069 0z"/>
   <path class="fil0" d="M6649 28925c1108,-1132 2950,-1117 4077,0l-4077 0z"/>
   <path class="fil0" d="M12434 28925c1109,-1137 2957,-1122 4085,0l-4085 0z"/>
   <path class="fil0" d="M28101 28919l-6 6 -4082 0 -6 -6c1110,-1143 2965,-1127 4094,0z"/>
   <path class="fil0" d="M18218 28925l0 0c1111,-1143 2965,-1127 4094,0l-4094 0z"/>
  </g>
 </g>
</svg>
