<?xml version="1.0" encoding="UTF-8"?>
<!DOCTYPE svg PUBLIC "-//W3C//DTD SVG 1.1//EN" "http://www.w3.org/Graphics/SVG/1.1/DTD/svg11.dtd">
<!-- Creator: CorelDRAW 2018 (64-Bit Evaluation Version) -->
<svg xmlns="http://www.w3.org/2000/svg" xml:space="preserve" width="158.75mm" height="134.189mm" version="1.1" style="shape-rendering:geometricPrecision; text-rendering:geometricPrecision; image-rendering:optimizeQuality; fill-rule:evenodd; clip-rule:evenodd"
viewBox="0 0 15875.04 13418.91"
 xmlns:xlink="http://www.w3.org/1999/xlink">
 <defs>
  <style type="text/css">
   <![CDATA[
    .fil1 {fill:#FFC83A}
    .fil0 {fill:#FFC83A}
   ]]>
  </style>
 </defs>
 <g id="Layer_x0020_1">
  <metadata id="CorelCorpID_0Corel-Layer"/>
  <g id="_1643162198208">
   <polygon class="fil0" points="1494.66,12744.47 1047.97,13239.9 641.9,12736.37 "/>
   <polygon class="fil0" points="7760.79,12744.47 7314.1,13239.9 6908.03,12736.37 "/>
   <polygon class="fil0" points="2785.79,12744.47 2339.1,13239.9 1933.02,12736.37 "/>
   <polygon class="fil0" points="9051.9,12744.47 8605.22,13239.9 8199.15,12736.37 "/>
   <polygon class="fil0" points="4076.9,12744.47 3630.22,13239.9 3224.15,12736.37 "/>
   <polygon class="fil0" points="10343.03,12744.47 9896.34,13239.9 9490.27,12736.37 "/>
   <polygon class="fil0" points="14057.49,12744.47 13610.79,13239.9 13204.72,12736.37 "/>
   <polygon class="fil0" points="5275.94,12744.47 4829.25,13239.9 4423.18,12736.37 "/>
   <polygon class="fil0" points="11542.06,12744.47 11095.38,13239.9 10689.31,12736.37 "/>
   <polygon class="fil0" points="15256.52,12744.47 14809.84,13239.9 14403.76,12736.37 "/>
   <polygon class="fil0" points="6536.37,12744.47 6089.69,13239.9 5683.6,12736.37 "/>
   <polygon class="fil0" points="12802.49,12744.47 12355.8,13239.9 11949.73,12736.37 "/>
   <polygon class="fil0" points="1494.66,11683.11 1047.97,12178.54 641.9,11675.01 "/>
   <polygon class="fil0" points="7760.79,11683.11 7314.1,12178.54 6908.03,11675.01 "/>
   <polygon class="fil0" points="2785.79,11683.11 2339.1,12178.54 1933.02,11675.01 "/>
   <polygon class="fil0" points="9051.9,11683.11 8605.22,12178.54 8199.15,11675.01 "/>
   <polygon class="fil0" points="4076.9,11683.11 3630.22,12178.54 3224.15,11675.01 "/>
   <polygon class="fil0" points="10343.03,11683.11 9896.34,12178.54 9490.27,11675.01 "/>
   <polygon class="fil0" points="14057.49,11683.11 13610.79,12178.54 13204.72,11675.01 "/>
   <polygon class="fil0" points="5275.94,11683.11 4829.25,12178.54 4423.18,11675.01 "/>
   <polygon class="fil0" points="11542.06,11683.11 11095.38,12178.54 10689.31,11675.01 "/>
   <polygon class="fil0" points="15256.52,11683.11 14809.84,12178.54 14403.76,11675.01 "/>
   <polygon class="fil0" points="6536.37,11683.11 6089.69,12178.54 5683.6,11675.01 "/>
   <polygon class="fil0" points="12802.49,11683.11 12355.8,12178.54 11949.73,11675.01 "/>
   <polygon class="fil0" points="1494.66,10621.75 1047.97,11117.17 641.9,10613.64 "/>
   <polygon class="fil0" points="7760.79,10621.75 7314.1,11117.17 6908.03,10613.64 "/>
   <polygon class="fil0" points="2785.79,10621.75 2339.1,11117.17 1933.02,10613.64 "/>
   <polygon class="fil0" points="9051.9,10621.75 8605.22,11117.17 8199.15,10613.64 "/>
   <polygon class="fil0" points="4076.9,10621.75 3630.22,11117.17 3224.15,10613.64 "/>
   <polygon class="fil0" points="10343.03,10621.75 9896.34,11117.17 9490.27,10613.64 "/>
   <polygon class="fil0" points="14057.49,10621.75 13610.79,11117.17 13204.72,10613.64 "/>
   <polygon class="fil0" points="5275.94,10621.75 4829.25,11117.17 4423.18,10613.64 "/>
   <polygon class="fil0" points="11542.06,10621.75 11095.38,11117.17 10689.31,10613.64 "/>
   <polygon class="fil0" points="15256.52,10621.75 14809.84,11117.17 14403.76,10613.64 "/>
   <polygon class="fil0" points="6536.37,10621.75 6089.69,11117.17 5683.6,10613.64 "/>
   <polygon class="fil0" points="12802.49,10621.75 12355.8,11117.17 11949.73,10613.64 "/>
   <polygon class="fil0" points="1494.66,9560.38 1047.97,10055.81 641.9,9552.27 "/>
   <polygon class="fil0" points="7760.79,9560.38 7314.1,10055.81 6908.03,9552.27 "/>
   <polygon class="fil0" points="2785.79,9560.38 2339.1,10055.81 1933.02,9552.27 "/>
   <polygon class="fil0" points="9051.9,9560.38 8605.22,10055.81 8199.15,9552.27 "/>
   <polygon class="fil0" points="4076.9,9560.38 3630.22,10055.81 3224.15,9552.27 "/>
   <polygon class="fil0" points="10343.03,9560.38 9896.34,10055.81 9490.27,9552.27 "/>
   <polygon class="fil0" points="14057.49,9560.38 13610.79,10055.81 13204.72,9552.27 "/>
   <polygon class="fil0" points="5275.94,9560.38 4829.25,10055.81 4423.18,9552.27 "/>
   <polygon class="fil0" points="11542.06,9560.38 11095.38,10055.81 10689.31,9552.27 "/>
   <polygon class="fil0" points="15256.52,9560.38 14809.84,10055.81 14403.76,9552.27 "/>
   <polygon class="fil0" points="6536.37,9560.38 6089.69,10055.81 5683.6,9552.27 "/>
   <polygon class="fil0" points="12802.49,9560.38 12355.8,10055.81 11949.73,9552.27 "/>
   <polygon class="fil0" points="1494.66,8499.01 1047.97,8994.44 641.9,8490.91 "/>
   <polygon class="fil0" points="7760.79,8499.01 7314.1,8994.44 6908.03,8490.91 "/>
   <polygon class="fil0" points="2785.79,8499.01 2339.1,8994.44 1933.02,8490.91 "/>
   <polygon class="fil0" points="9051.9,8499.01 8605.22,8994.44 8199.15,8490.91 "/>
   <polygon class="fil0" points="4076.9,8499.01 3630.22,8994.44 3224.15,8490.91 "/>
   <polygon class="fil0" points="10343.03,8499.01 9896.34,8994.44 9490.27,8490.91 "/>
   <polygon class="fil0" points="14057.49,8499.01 13610.79,8994.44 13204.72,8490.91 "/>
   <polygon class="fil0" points="5275.94,8499.01 4829.25,8994.44 4423.18,8490.91 "/>
   <polygon class="fil0" points="11542.06,8499.01 11095.38,8994.44 10689.31,8490.91 "/>
   <polygon class="fil0" points="15256.52,8499.01 14809.84,8994.44 14403.76,8490.91 "/>
   <polygon class="fil0" points="6536.37,8499.01 6089.69,8994.44 5683.6,8490.91 "/>
   <polygon class="fil0" points="12802.49,8499.01 12355.8,8994.44 11949.73,8490.91 "/>
   <polygon class="fil0" points="1494.66,7437.65 1047.97,7933.08 641.9,7429.55 "/>
   <polygon class="fil0" points="7760.79,7437.65 7314.1,7933.08 6908.03,7429.55 "/>
   <polygon class="fil0" points="2785.79,7437.65 2339.1,7933.08 1933.02,7429.55 "/>
   <polygon class="fil0" points="9051.9,7437.65 8605.22,7933.08 8199.15,7429.55 "/>
   <polygon class="fil0" points="4076.9,7437.65 3630.22,7933.08 3224.15,7429.55 "/>
   <polygon class="fil0" points="10343.03,7437.65 9896.34,7933.08 9490.27,7429.55 "/>
   <polygon class="fil0" points="14057.49,7437.65 13610.79,7933.08 13204.72,7429.55 "/>
   <polygon class="fil0" points="5275.94,7437.65 4829.25,7933.08 4423.18,7429.55 "/>
   <polygon class="fil0" points="11542.06,7437.65 11095.38,7933.08 10689.31,7429.55 "/>
   <polygon class="fil0" points="15256.52,7437.65 14809.84,7933.08 14403.76,7429.55 "/>
   <polygon class="fil0" points="6536.37,7437.65 6089.69,7933.08 5683.6,7429.55 "/>
   <polygon class="fil0" points="12802.49,7437.65 12355.8,7933.08 11949.73,7429.55 "/>
   <polygon class="fil0" points="1494.66,6376.29 1047.97,6871.72 641.9,6368.19 "/>
   <polygon class="fil0" points="7760.79,6376.29 7314.1,6871.72 6908.03,6368.19 "/>
   <polygon class="fil0" points="2785.79,6376.29 2339.1,6871.72 1933.02,6368.19 "/>
   <polygon class="fil0" points="9051.9,6376.29 8605.22,6871.72 8199.15,6368.19 "/>
   <polygon class="fil0" points="4076.9,6376.29 3630.22,6871.72 3224.15,6368.19 "/>
   <polygon class="fil0" points="10343.03,6376.29 9896.34,6871.72 9490.27,6368.19 "/>
   <polygon class="fil0" points="14057.49,6376.29 13610.79,6871.72 13204.72,6368.19 "/>
   <polygon class="fil0" points="5275.94,6376.29 4829.25,6871.72 4423.18,6368.19 "/>
   <polygon class="fil0" points="11542.06,6376.29 11095.38,6871.72 10689.31,6368.19 "/>
   <polygon class="fil0" points="15256.52,6376.29 14809.84,6871.72 14403.76,6368.19 "/>
   <polygon class="fil0" points="6536.37,6376.29 6089.69,6871.72 5683.6,6368.19 "/>
   <polygon class="fil0" points="12802.49,6376.29 12355.8,6871.72 11949.73,6368.19 "/>
   <polygon class="fil0" points="1494.66,5314.92 1047.97,5810.35 641.9,5306.81 "/>
   <polygon class="fil0" points="7760.79,5314.92 7314.1,5810.35 6908.03,5306.81 "/>
   <polygon class="fil0" points="2785.79,5314.92 2339.1,5810.35 1933.02,5306.81 "/>
   <polygon class="fil0" points="9051.9,5314.92 8605.22,5810.35 8199.15,5306.81 "/>
   <polygon class="fil0" points="4076.9,5314.92 3630.22,5810.35 3224.15,5306.81 "/>
   <polygon class="fil0" points="10343.03,5314.92 9896.34,5810.35 9490.27,5306.81 "/>
   <polygon class="fil0" points="14057.49,5314.92 13610.79,5810.35 13204.72,5306.81 "/>
   <polygon class="fil0" points="5275.94,5314.92 4829.25,5810.35 4423.18,5306.81 "/>
   <polygon class="fil0" points="11542.06,5314.92 11095.38,5810.35 10689.31,5306.81 "/>
   <polygon class="fil0" points="15256.52,5314.92 14809.84,5810.35 14403.76,5306.81 "/>
   <polygon class="fil0" points="6536.37,5314.92 6089.69,5810.35 5683.6,5306.81 "/>
   <polygon class="fil0" points="12802.49,5314.92 12355.8,5810.35 11949.73,5306.81 "/>
   <polygon class="fil0" points="1494.66,4253.56 1047.97,4748.98 641.9,4245.45 "/>
   <polygon class="fil0" points="7760.79,4253.56 7314.1,4748.98 6908.03,4245.45 "/>
   <polygon class="fil0" points="2785.79,4253.56 2339.1,4748.98 1933.02,4245.45 "/>
   <polygon class="fil0" points="9051.9,4253.56 8605.22,4748.98 8199.15,4245.45 "/>
   <polygon class="fil0" points="4076.9,4253.56 3630.22,4748.98 3224.15,4245.45 "/>
   <polygon class="fil0" points="10343.03,4253.56 9896.34,4748.98 9490.27,4245.45 "/>
   <polygon class="fil0" points="14057.49,4253.56 13610.79,4748.98 13204.72,4245.45 "/>
   <polygon class="fil0" points="5275.94,4253.56 4829.25,4748.98 4423.18,4245.45 "/>
   <polygon class="fil0" points="11542.06,4253.56 11095.38,4748.98 10689.31,4245.45 "/>
   <polygon class="fil0" points="15256.52,4253.56 14809.84,4748.98 14403.76,4245.45 "/>
   <polygon class="fil0" points="6536.37,4253.56 6089.69,4748.98 5683.6,4245.45 "/>
   <polygon class="fil0" points="12802.49,4253.56 12355.8,4748.98 11949.73,4245.45 "/>
   <polygon class="fil0" points="1494.66,3192.19 1047.97,3687.62 641.9,3184.09 "/>
   <polygon class="fil0" points="7760.79,3192.19 7314.1,3687.62 6908.03,3184.09 "/>
   <polygon class="fil0" points="2785.79,3192.19 2339.1,3687.62 1933.02,3184.09 "/>
   <polygon class="fil0" points="9051.9,3192.19 8605.22,3687.62 8199.15,3184.09 "/>
   <polygon class="fil0" points="4076.9,3192.19 3630.22,3687.62 3224.15,3184.09 "/>
   <polygon class="fil0" points="10343.03,3192.19 9896.34,3687.62 9490.27,3184.09 "/>
   <polygon class="fil0" points="14057.49,3192.19 13610.79,3687.62 13204.72,3184.09 "/>
   <polygon class="fil0" points="5275.94,3192.19 4829.25,3687.62 4423.18,3184.09 "/>
   <polygon class="fil0" points="11542.06,3192.19 11095.38,3687.62 10689.31,3184.09 "/>
   <polygon class="fil0" points="15256.52,3192.19 14809.84,3687.62 14403.76,3184.09 "/>
   <polygon class="fil0" points="6536.37,3192.19 6089.69,3687.62 5683.6,3184.09 "/>
   <polygon class="fil0" points="12802.49,3192.19 12355.8,3687.62 11949.73,3184.09 "/>
   <polygon class="fil0" points="1494.66,2130.83 1047.97,2626.26 641.9,2122.73 "/>
   <polygon class="fil0" points="7760.79,2130.83 7314.1,2626.26 6908.03,2122.73 "/>
   <polygon class="fil0" points="2785.79,2130.83 2339.1,2626.26 1933.02,2122.73 "/>
   <polygon class="fil0" points="9051.9,2130.83 8605.22,2626.26 8199.15,2122.73 "/>
   <polygon class="fil0" points="4076.9,2130.83 3630.22,2626.26 3224.15,2122.73 "/>
   <polygon class="fil0" points="10343.03,2130.83 9896.34,2626.26 9490.27,2122.73 "/>
   <polygon class="fil0" points="14057.49,2130.83 13610.79,2626.26 13204.72,2122.73 "/>
   <polygon class="fil0" points="5275.94,2130.83 4829.25,2626.26 4423.18,2122.73 "/>
   <polygon class="fil0" points="11542.06,2130.83 11095.38,2626.26 10689.31,2122.73 "/>
   <polygon class="fil0" points="15256.52,2130.83 14809.84,2626.26 14403.76,2122.73 "/>
   <polygon class="fil0" points="6536.37,2130.83 6089.69,2626.26 5683.6,2122.73 "/>
   <polygon class="fil0" points="12802.49,2130.83 12355.8,2626.26 11949.73,2122.73 "/>
   <polygon class="fil0" points="1494.66,1069.46 1047.97,1564.89 641.9,1061.36 "/>
   <polygon class="fil0" points="7760.79,1069.46 7314.1,1564.89 6908.03,1061.36 "/>
   <polygon class="fil0" points="2785.79,1069.46 2339.1,1564.89 1933.02,1061.36 "/>
   <polygon class="fil0" points="9051.9,1069.46 8605.22,1564.89 8199.15,1061.36 "/>
   <polygon class="fil0" points="4076.9,1069.46 3630.22,1564.89 3224.15,1061.36 "/>
   <polygon class="fil0" points="10343.03,1069.46 9896.34,1564.89 9490.27,1061.36 "/>
   <polygon class="fil0" points="14057.49,1069.46 13610.79,1564.89 13204.72,1061.36 "/>
   <polygon class="fil0" points="5275.94,1069.46 4829.25,1564.89 4423.18,1061.36 "/>
   <polygon class="fil0" points="11542.06,1069.46 11095.38,1564.89 10689.31,1061.36 "/>
   <polygon class="fil0" points="15256.52,1069.46 14809.84,1564.89 14403.76,1061.36 "/>
   <polygon class="fil0" points="6536.37,1069.46 6089.69,1564.89 5683.6,1061.36 "/>
   <polygon class="fil0" points="12802.49,1069.46 12355.8,1564.89 11949.73,1061.36 "/>
   <polygon class="fil1" points="852.75,674.44 406.07,179.01 -0,682.54 "/>
   <polygon class="fil1" points="7118.88,674.44 6672.2,179.01 6266.12,682.54 "/>
   <polygon class="fil1" points="2143.88,674.44 1697.19,179.01 1291.11,682.54 "/>
   <polygon class="fil1" points="8410,674.44 7963.32,179.01 7557.24,682.54 "/>
   <polygon class="fil1" points="3435,674.44 2988.31,179.01 2582.24,682.54 "/>
   <polygon class="fil1" points="9701.12,674.44 9254.43,179.01 8848.36,682.54 "/>
   <polygon class="fil1" points="13415.57,674.44 12968.89,179.01 12562.82,682.54 "/>
   <polygon class="fil1" points="4634.03,674.44 4187.35,179.01 3781.27,682.54 "/>
   <polygon class="fil1" points="10900.16,674.44 10453.48,179.01 10047.4,682.54 "/>
   <polygon class="fil1" points="14614.61,674.44 14167.93,179.01 13761.85,682.54 "/>
   <polygon class="fil1" points="5894.45,674.44 5447.77,179.01 5041.7,682.54 "/>
   <polygon class="fil1" points="12160.58,674.44 11713.9,179.01 11307.83,682.54 "/>
   <polygon class="fil1" points="15875.04,674.44 15428.35,179.01 15022.28,682.54 "/>
   <polygon class="fil1" points="852.75,1735.8 406.07,1240.37 -0,1743.9 "/>
   <polygon class="fil1" points="7118.88,1735.8 6672.2,1240.37 6266.12,1743.9 "/>
   <polygon class="fil1" points="2143.88,1735.8 1697.19,1240.37 1291.11,1743.9 "/>
   <polygon class="fil1" points="8410,1735.8 7963.32,1240.37 7557.24,1743.9 "/>
   <polygon class="fil1" points="3435,1735.8 2988.31,1240.37 2582.24,1743.9 "/>
   <polygon class="fil1" points="9701.12,1735.8 9254.43,1240.37 8848.36,1743.9 "/>
   <polygon class="fil1" points="13415.57,1735.8 12968.89,1240.37 12562.82,1743.9 "/>
   <polygon class="fil1" points="4634.03,1735.8 4187.35,1240.37 3781.27,1743.9 "/>
   <polygon class="fil1" points="10900.16,1735.8 10453.48,1240.37 10047.4,1743.9 "/>
   <polygon class="fil1" points="14614.61,1735.8 14167.93,1240.37 13761.85,1743.9 "/>
   <polygon class="fil1" points="5894.45,1735.8 5447.77,1240.37 5041.7,1743.9 "/>
   <polygon class="fil1" points="12160.58,1735.8 11713.9,1240.37 11307.83,1743.9 "/>
   <polygon class="fil1" points="15875.04,1735.8 15428.35,1240.37 15022.28,1743.9 "/>
   <polygon class="fil1" points="852.75,2797.17 406.07,2301.75 -0,2805.28 "/>
   <polygon class="fil1" points="7118.88,2797.17 6672.2,2301.75 6266.12,2805.28 "/>
   <polygon class="fil1" points="2143.88,2797.17 1697.19,2301.75 1291.11,2805.28 "/>
   <polygon class="fil1" points="8410,2797.17 7963.32,2301.75 7557.24,2805.28 "/>
   <polygon class="fil1" points="3435,2797.17 2988.31,2301.75 2582.24,2805.28 "/>
   <polygon class="fil1" points="9701.12,2797.17 9254.43,2301.75 8848.36,2805.28 "/>
   <polygon class="fil1" points="13415.57,2797.17 12968.89,2301.75 12562.82,2805.28 "/>
   <polygon class="fil1" points="4634.03,2797.17 4187.35,2301.75 3781.27,2805.28 "/>
   <polygon class="fil1" points="10900.16,2797.17 10453.48,2301.75 10047.4,2805.28 "/>
   <polygon class="fil1" points="14614.61,2797.17 14167.93,2301.75 13761.85,2805.28 "/>
   <polygon class="fil1" points="5894.45,2797.17 5447.77,2301.75 5041.7,2805.28 "/>
   <polygon class="fil1" points="12160.58,2797.17 11713.9,2301.75 11307.83,2805.28 "/>
   <polygon class="fil1" points="15875.04,2797.17 15428.35,2301.75 15022.28,2805.28 "/>
   <polygon class="fil1" points="852.75,3858.53 406.07,3363.11 -0,3866.64 "/>
   <polygon class="fil1" points="7118.88,3858.53 6672.2,3363.11 6266.12,3866.64 "/>
   <polygon class="fil1" points="2143.88,3858.53 1697.19,3363.11 1291.11,3866.64 "/>
   <polygon class="fil1" points="8410,3858.53 7963.32,3363.11 7557.24,3866.64 "/>
   <polygon class="fil1" points="3435,3858.53 2988.31,3363.11 2582.24,3866.64 "/>
   <polygon class="fil1" points="9701.12,3858.53 9254.43,3363.11 8848.36,3866.64 "/>
   <polygon class="fil1" points="13415.57,3858.53 12968.89,3363.11 12562.82,3866.64 "/>
   <polygon class="fil1" points="4634.03,3858.53 4187.35,3363.11 3781.27,3866.64 "/>
   <polygon class="fil1" points="10900.16,3858.53 10453.48,3363.11 10047.4,3866.64 "/>
   <polygon class="fil1" points="14614.61,3858.53 14167.93,3363.11 13761.85,3866.64 "/>
   <polygon class="fil1" points="5894.45,3858.53 5447.77,3363.11 5041.7,3866.64 "/>
   <polygon class="fil1" points="12160.58,3858.53 11713.9,3363.11 11307.83,3866.64 "/>
   <polygon class="fil1" points="15875.04,3858.53 15428.35,3363.11 15022.28,3866.64 "/>
   <polygon class="fil1" points="852.75,4919.9 406.07,4424.47 -0,4928 "/>
   <polygon class="fil1" points="7118.88,4919.9 6672.2,4424.47 6266.12,4928 "/>
   <polygon class="fil1" points="2143.88,4919.9 1697.19,4424.47 1291.11,4928 "/>
   <polygon class="fil1" points="8410,4919.9 7963.32,4424.47 7557.24,4928 "/>
   <polygon class="fil1" points="3435,4919.9 2988.31,4424.47 2582.24,4928 "/>
   <polygon class="fil1" points="9701.12,4919.9 9254.43,4424.47 8848.36,4928 "/>
   <polygon class="fil1" points="13415.57,4919.9 12968.89,4424.47 12562.82,4928 "/>
   <polygon class="fil1" points="4634.03,4919.9 4187.35,4424.47 3781.27,4928 "/>
   <polygon class="fil1" points="10900.16,4919.9 10453.48,4424.47 10047.4,4928 "/>
   <polygon class="fil1" points="14614.61,4919.9 14167.93,4424.47 13761.85,4928 "/>
   <polygon class="fil1" points="5894.45,4919.9 5447.77,4424.47 5041.7,4928 "/>
   <polygon class="fil1" points="12160.58,4919.9 11713.9,4424.47 11307.83,4928 "/>
   <polygon class="fil1" points="15875.04,4919.9 15428.35,4424.47 15022.28,4928 "/>
   <polygon class="fil1" points="852.75,5981.27 406.07,5485.83 -0,5989.37 "/>
   <polygon class="fil1" points="7118.88,5981.27 6672.2,5485.83 6266.12,5989.37 "/>
   <polygon class="fil1" points="2143.88,5981.27 1697.19,5485.83 1291.11,5989.37 "/>
   <polygon class="fil1" points="8410,5981.27 7963.32,5485.83 7557.24,5989.37 "/>
   <polygon class="fil1" points="3435,5981.27 2988.31,5485.83 2582.24,5989.37 "/>
   <polygon class="fil1" points="9701.12,5981.27 9254.43,5485.83 8848.36,5989.37 "/>
   <polygon class="fil1" points="13415.57,5981.27 12968.89,5485.83 12562.82,5989.37 "/>
   <polygon class="fil1" points="4634.03,5981.27 4187.35,5485.83 3781.27,5989.37 "/>
   <polygon class="fil1" points="10900.16,5981.27 10453.48,5485.83 10047.4,5989.37 "/>
   <polygon class="fil1" points="14614.61,5981.27 14167.93,5485.83 13761.85,5989.37 "/>
   <polygon class="fil1" points="5894.45,5981.27 5447.77,5485.83 5041.7,5989.37 "/>
   <polygon class="fil1" points="12160.58,5981.27 11713.9,5485.83 11307.83,5989.37 "/>
   <polygon class="fil1" points="15875.04,5981.27 15428.35,5485.83 15022.28,5989.37 "/>
   <polygon class="fil1" points="852.75,7042.63 406.07,6547.2 -0,7050.73 "/>
   <polygon class="fil1" points="7118.88,7042.63 6672.2,6547.2 6266.12,7050.73 "/>
   <polygon class="fil1" points="2143.88,7042.63 1697.19,6547.2 1291.11,7050.73 "/>
   <polygon class="fil1" points="8410,7042.63 7963.32,6547.2 7557.24,7050.73 "/>
   <polygon class="fil1" points="3435,7042.63 2988.31,6547.2 2582.24,7050.73 "/>
   <polygon class="fil1" points="9701.12,7042.63 9254.43,6547.2 8848.36,7050.73 "/>
   <polygon class="fil1" points="13415.57,7042.63 12968.89,6547.2 12562.82,7050.73 "/>
   <polygon class="fil1" points="4634.03,7042.63 4187.35,6547.2 3781.27,7050.73 "/>
   <polygon class="fil1" points="10900.16,7042.63 10453.48,6547.2 10047.4,7050.73 "/>
   <polygon class="fil1" points="14614.61,7042.63 14167.93,6547.2 13761.85,7050.73 "/>
   <polygon class="fil1" points="5894.45,7042.63 5447.77,6547.2 5041.7,7050.73 "/>
   <polygon class="fil1" points="12160.58,7042.63 11713.9,6547.2 11307.83,7050.73 "/>
   <polygon class="fil1" points="15875.04,7042.63 15428.35,6547.2 15022.28,7050.73 "/>
   <polygon class="fil1" points="852.75,8103.99 406.07,7608.56 -0,8112.1 "/>
   <polygon class="fil1" points="7118.88,8103.99 6672.2,7608.56 6266.12,8112.1 "/>
   <polygon class="fil1" points="2143.88,8103.99 1697.19,7608.56 1291.11,8112.1 "/>
   <polygon class="fil1" points="8410,8103.99 7963.32,7608.56 7557.24,8112.1 "/>
   <polygon class="fil1" points="3435,8103.99 2988.31,7608.56 2582.24,8112.1 "/>
   <polygon class="fil1" points="9701.12,8103.99 9254.43,7608.56 8848.36,8112.1 "/>
   <polygon class="fil1" points="13415.57,8103.99 12968.89,7608.56 12562.82,8112.1 "/>
   <polygon class="fil1" points="4634.03,8103.99 4187.35,7608.56 3781.27,8112.1 "/>
   <polygon class="fil1" points="10900.16,8103.99 10453.48,7608.56 10047.4,8112.1 "/>
   <polygon class="fil1" points="14614.61,8103.99 14167.93,7608.56 13761.85,8112.1 "/>
   <polygon class="fil1" points="5894.45,8103.99 5447.77,7608.56 5041.7,8112.1 "/>
   <polygon class="fil1" points="12160.58,8103.99 11713.9,7608.56 11307.83,8112.1 "/>
   <polygon class="fil1" points="15875.04,8103.99 15428.35,7608.56 15022.28,8112.1 "/>
   <polygon class="fil1" points="852.75,9165.35 406.07,8669.93 -0,9173.46 "/>
   <polygon class="fil1" points="7118.88,9165.35 6672.2,8669.93 6266.12,9173.46 "/>
   <polygon class="fil1" points="2143.88,9165.35 1697.19,8669.93 1291.11,9173.46 "/>
   <polygon class="fil1" points="8410,9165.35 7963.32,8669.93 7557.24,9173.46 "/>
   <polygon class="fil1" points="3435,9165.35 2988.31,8669.93 2582.24,9173.46 "/>
   <polygon class="fil1" points="9701.12,9165.35 9254.43,8669.93 8848.36,9173.46 "/>
   <polygon class="fil1" points="13415.57,9165.35 12968.89,8669.93 12562.82,9173.46 "/>
   <polygon class="fil1" points="4634.03,9165.35 4187.35,8669.93 3781.27,9173.46 "/>
   <polygon class="fil1" points="10900.16,9165.35 10453.48,8669.93 10047.4,9173.46 "/>
   <polygon class="fil1" points="14614.61,9165.35 14167.93,8669.93 13761.85,9173.46 "/>
   <polygon class="fil1" points="5894.45,9165.35 5447.77,8669.93 5041.7,9173.46 "/>
   <polygon class="fil1" points="12160.58,9165.35 11713.9,8669.93 11307.83,9173.46 "/>
   <polygon class="fil1" points="15875.04,9165.35 15428.35,8669.93 15022.28,9173.46 "/>
   <polygon class="fil1" points="852.75,10226.73 406.07,9731.29 -0,10234.83 "/>
   <polygon class="fil1" points="7118.88,10226.73 6672.2,9731.29 6266.12,10234.83 "/>
   <polygon class="fil1" points="2143.88,10226.73 1697.19,9731.29 1291.11,10234.83 "/>
   <polygon class="fil1" points="8410,10226.73 7963.32,9731.29 7557.24,10234.83 "/>
   <polygon class="fil1" points="3435,10226.73 2988.31,9731.29 2582.24,10234.83 "/>
   <polygon class="fil1" points="9701.12,10226.73 9254.43,9731.29 8848.36,10234.83 "/>
   <polygon class="fil1" points="13415.57,10226.73 12968.89,9731.29 12562.82,10234.83 "/>
   <polygon class="fil1" points="4634.03,10226.73 4187.35,9731.29 3781.27,10234.83 "/>
   <polygon class="fil1" points="10900.16,10226.73 10453.48,9731.29 10047.4,10234.83 "/>
   <polygon class="fil1" points="14614.61,10226.73 14167.93,9731.29 13761.85,10234.83 "/>
   <polygon class="fil1" points="5894.45,10226.73 5447.77,9731.29 5041.7,10234.83 "/>
   <polygon class="fil1" points="12160.58,10226.73 11713.9,9731.29 11307.83,10234.83 "/>
   <polygon class="fil1" points="15875.04,10226.73 15428.35,9731.29 15022.28,10234.83 "/>
   <polygon class="fil1" points="852.75,11288.09 406.07,10792.66 -0,11296.19 "/>
   <polygon class="fil1" points="7118.88,11288.09 6672.2,10792.66 6266.12,11296.19 "/>
   <polygon class="fil1" points="2143.88,11288.09 1697.19,10792.66 1291.11,11296.19 "/>
   <polygon class="fil1" points="8410,11288.09 7963.32,10792.66 7557.24,11296.19 "/>
   <polygon class="fil1" points="3435,11288.09 2988.31,10792.66 2582.24,11296.19 "/>
   <polygon class="fil1" points="9701.12,11288.09 9254.43,10792.66 8848.36,11296.19 "/>
   <polygon class="fil1" points="13415.57,11288.09 12968.89,10792.66 12562.82,11296.19 "/>
   <polygon class="fil1" points="4634.03,11288.09 4187.35,10792.66 3781.27,11296.19 "/>
   <polygon class="fil1" points="10900.16,11288.09 10453.48,10792.66 10047.4,11296.19 "/>
   <polygon class="fil1" points="14614.61,11288.09 14167.93,10792.66 13761.85,11296.19 "/>
   <polygon class="fil1" points="5894.45,11288.09 5447.77,10792.66 5041.7,11296.19 "/>
   <polygon class="fil1" points="12160.58,11288.09 11713.9,10792.66 11307.83,11296.19 "/>
   <polygon class="fil1" points="15875.04,11288.09 15428.35,10792.66 15022.28,11296.19 "/>
   <polygon class="fil1" points="852.75,12349.45 406.07,11854.02 -0,12357.55 "/>
   <polygon class="fil1" points="7118.88,12349.45 6672.2,11854.02 6266.12,12357.55 "/>
   <polygon class="fil1" points="2143.88,12349.45 1697.19,11854.02 1291.11,12357.55 "/>
   <polygon class="fil1" points="8410,12349.45 7963.32,11854.02 7557.24,12357.55 "/>
   <polygon class="fil1" points="3435,12349.45 2988.31,11854.02 2582.24,12357.55 "/>
   <polygon class="fil1" points="9701.12,12349.45 9254.43,11854.02 8848.36,12357.55 "/>
   <polygon class="fil1" points="13415.57,12349.45 12968.89,11854.02 12562.82,12357.55 "/>
   <polygon class="fil1" points="4634.03,12349.45 4187.35,11854.02 3781.27,12357.55 "/>
   <polygon class="fil1" points="10900.16,12349.45 10453.48,11854.02 10047.4,12357.55 "/>
   <polygon class="fil1" points="14614.61,12349.45 14167.93,11854.02 13761.85,12357.55 "/>
   <polygon class="fil1" points="5894.45,12349.45 5447.77,11854.02 5041.7,12357.55 "/>
   <polygon class="fil1" points="12160.58,12349.45 11713.9,11854.02 11307.83,12357.55 "/>
   <polygon class="fil1" points="15875.04,12349.45 15428.35,11854.02 15022.28,12357.55 "/>
   <polygon class="fil1" points="852.75,13410.81 406.07,12915.38 -0,13418.91 "/>
   <polygon class="fil1" points="7118.88,13410.81 6672.2,12915.38 6266.12,13418.91 "/>
   <polygon class="fil1" points="2143.88,13410.81 1697.19,12915.38 1291.11,13418.91 "/>
   <polygon class="fil1" points="8410,13410.81 7963.32,12915.38 7557.24,13418.91 "/>
   <polygon class="fil1" points="3435,13410.81 2988.31,12915.38 2582.24,13418.91 "/>
   <polygon class="fil1" points="9701.12,13410.81 9254.43,12915.38 8848.36,13418.91 "/>
   <polygon class="fil1" points="13415.57,13410.81 12968.89,12915.38 12562.82,13418.91 "/>
   <polygon class="fil1" points="4634.03,13410.81 4187.35,12915.38 3781.27,13418.91 "/>
   <polygon class="fil1" points="10900.16,13410.81 10453.48,12915.38 10047.4,13418.91 "/>
   <polygon class="fil1" points="14614.61,13410.81 14167.93,12915.38 13761.85,13418.91 "/>
   <polygon class="fil1" points="5894.45,13410.81 5447.77,12915.38 5041.7,13418.91 "/>
   <polygon class="fil1" points="12160.58,13410.81 11713.9,12915.38 11307.83,13418.91 "/>
   <polygon class="fil1" points="15875.04,13410.81 15428.35,12915.38 15022.28,13418.91 "/>
   <polygon class="fil0" points="1494.66,8.1 1047.97,503.53 641.9,0 "/>
   <polygon class="fil0" points="7760.79,8.1 7314.1,503.53 6908.03,0 "/>
   <polygon class="fil0" points="2785.79,8.1 2339.1,503.53 1933.02,0 "/>
   <polygon class="fil0" points="9051.9,8.1 8605.22,503.53 8199.15,0 "/>
   <polygon class="fil0" points="4076.9,8.1 3630.22,503.53 3224.15,0 "/>
   <polygon class="fil0" points="10343.03,8.1 9896.34,503.53 9490.27,0 "/>
   <polygon class="fil0" points="14057.49,8.1 13610.79,503.53 13204.72,0 "/>
   <polygon class="fil0" points="5275.94,8.1 4829.25,503.53 4423.18,0 "/>
   <polygon class="fil0" points="11542.06,8.1 11095.38,503.53 10689.31,0 "/>
   <polygon class="fil0" points="15256.52,8.1 14809.84,503.53 14403.76,0 "/>
   <polygon class="fil0" points="6536.37,8.1 6089.69,503.53 5683.6,0 "/>
   <polygon class="fil0" points="12802.49,8.1 12355.8,503.53 11949.73,0 "/>
  </g>
 </g>
</svg>
