<?xml version="1.0" encoding="UTF-8"?>
<!DOCTYPE svg PUBLIC "-//W3C//DTD SVG 1.1//EN" "http://www.w3.org/Graphics/SVG/1.1/DTD/svg11.dtd">
<!-- Creator: CorelDRAW X6 -->
<svg xmlns="http://www.w3.org/2000/svg" xml:space="preserve" width="198.839mm" height="198.839mm" version="1.1" style="shape-rendering:geometricPrecision; text-rendering:geometricPrecision; image-rendering:optimizeQuality; fill-rule:evenodd; clip-rule:evenodd"
viewBox="0 0 19884 19884"
 xmlns:xlink="http://www.w3.org/1999/xlink">
 <defs>
  <style type="text/css">
   <![CDATA[
    .fil1 {fill:none}
    .fil0 {fill:#13ECAB}
    .fil2 {fill:#C834F7}
   ]]>
  </style>
 </defs>
 <g id="Layer_x0020_1">
  <metadata id="CorelCorpID_0Corel-Layer"/>
  <g id="_324641328">
   <polygon class="fil0" points="3260,3977 3977,3260 4694,3977 3977,4694 "/>
   <polygon class="fil0" points="4694,0 3977,717 3260,0 "/>
   <polygon class="fil0" points="0,3260 717,3977 0,4694 "/>
   <polygon class="fil0" points="717,0 0,717 0,0 "/>
   <polygon class="fil0" points="3260,7954 3977,7237 4694,7954 3977,8671 "/>
   <polygon class="fil0" points="0,7237 717,7954 0,8671 "/>
   <polygon class="fil0" points="3260,11930 3977,11213 4694,11930 3977,12647 "/>
   <polygon class="fil0" points="0,11213 717,11930 0,12647 "/>
   <polygon class="fil0" points="3260,15907 3977,15190 4694,15907 3977,16624 "/>
   <polygon class="fil0" points="3260,19884 3977,19167 4694,19884 "/>
   <polygon class="fil0" points="0,15190 717,15907 0,16624 "/>
   <polygon class="fil0" points="0,19167 717,19884 0,19884 "/>
   <polygon class="fil0" points="7237,3977 7954,3260 8671,3977 7954,4694 "/>
   <polygon class="fil0" points="8671,0 7954,717 7237,0 "/>
   <polygon class="fil0" points="7237,7954 7954,7237 8671,7954 7954,8671 "/>
   <polygon class="fil0" points="7237,11930 7954,11213 8671,11930 7954,12647 "/>
   <polygon class="fil0" points="7237,15907 7954,15190 8671,15907 7954,16624 "/>
   <polygon class="fil0" points="7237,19884 7954,19167 8671,19884 "/>
   <polygon class="fil0" points="11213,3977 11930,3260 12647,3977 11930,4694 "/>
   <polygon class="fil0" points="12647,0 11930,717 11213,0 "/>
   <polygon class="fil0" points="11213,7954 11930,7237 12647,7954 11930,8671 "/>
   <polygon class="fil0" points="11213,11930 11930,11213 12647,11930 11930,12647 "/>
   <polygon class="fil0" points="11213,15907 11930,15190 12647,15907 11930,16624 "/>
   <polygon class="fil0" points="11213,19884 11930,19167 12647,19884 "/>
   <polygon class="fil0" points="15190,3977 15907,3260 16624,3977 15907,4694 "/>
   <polygon class="fil0" points="16624,0 15907,717 15190,0 "/>
   <polygon class="fil0" points="19167,3977 19884,3260 19884,4694 "/>
   <polygon class="fil0" points="19884,717 19167,0 19884,0 "/>
   <polygon class="fil0" points="15190,7954 15907,7237 16624,7954 15907,8671 "/>
   <polygon class="fil0" points="19167,7954 19884,7237 19884,8671 "/>
   <polygon class="fil0" points="15190,11930 15907,11213 16624,11930 15907,12647 "/>
   <polygon class="fil0" points="19167,11930 19884,11213 19884,12647 "/>
   <polygon class="fil0" points="15190,15907 15907,15190 16624,15907 15907,16624 "/>
   <polygon class="fil0" points="15190,19884 15907,19167 16624,19884 "/>
   <polygon class="fil0" points="19167,15907 19884,15190 19884,16624 "/>
   <polygon class="fil0" points="19167,19884 19884,19167 19884,19884 "/>
   <g>
    <path class="fil2" d="M805 808c652,-653 1709,-653 2361,0 653,652 653,1709 0,2361 -652,653 -1709,653 -2361,0 -652,-652 -652,-1709 0,-2361z"/>
    <path class="fil2" d="M579 1763c125,-125 327,-125 452,-1 125,125 124,327 -1,452 -125,125 -327,125 -452,1 -124,-125 -124,-327 1,-452z"/>
    <path class="fil2" d="M1760 582c125,-125 327,-125 452,-1 125,125 124,327 -1,452 -125,125 -327,126 -452,1 -124,-125 -124,-327 1,-452z"/>
    <path class="fil2" d="M2941 1763c125,-125 327,-125 452,-1 124,125 124,327 -1,452 -125,125 -327,125 -452,1 -125,-125 -124,-327 1,-452z"/>
    <path class="fil0" d="M805 808c652,652 652,1709 0,2361 -652,-652 -652,-1709 0,-2361zm-226 955c125,-125 327,-125 452,-1 125,125 124,327 -1,452 -125,125 -327,125 -452,1 -124,-125 -124,-327 1,-452z"/>
    <path class="fil0" d="M3166 808c-652,652 -1709,652 -2361,0 652,-653 1709,-653 2361,0zm-1406 -226c125,-125 327,-125 452,-1 125,125 124,327 -1,452 -125,125 -327,126 -452,1 -124,-125 -124,-327 1,-452z"/>
    <path class="fil0" d="M3166 3169l0 0c-652,-652 -652,-1709 0,-2361 653,652 653,1709 0,2361zm-225 -1406c125,-125 327,-125 452,-1 124,125 124,327 -1,452 -125,125 -327,125 -452,1 -125,-125 -124,-327 1,-452z"/>
    <g>
     <path class="fil2" d="M4781 808c652,-653 1709,-653 2361,0 653,652 653,1709 0,2361 -652,653 -1709,653 -2361,0 -652,-652 -652,-1709 0,-2361z"/>
     <path class="fil2" d="M4555 1763c125,-125 327,-125 452,-1 125,125 124,327 -1,452 -125,125 -327,125 -452,1 -124,-125 -124,-327 1,-452z"/>
     <path class="fil0" d="M4781 808c652,652 652,1709 0,2361 -652,-652 -652,-1709 0,-2361zm-226 955c125,-125 327,-125 452,-1 125,125 124,327 -1,452 -125,125 -327,125 -452,1 -124,-125 -124,-327 1,-452z"/>
     <path class="fil2" d="M5736 582c125,-125 327,-125 452,-1 125,125 124,327 -1,452 -125,125 -327,126 -452,1 -124,-125 -124,-327 1,-452z"/>
     <path class="fil0" d="M7142 808c-652,652 -1709,652 -2361,0 652,-653 1709,-653 2361,0zm-1406 -226c125,-125 327,-125 452,-1 125,125 124,327 -1,452 -125,125 -327,126 -452,1 -124,-125 -124,-327 1,-452z"/>
     <path class="fil2" d="M6917 1763c125,-125 327,-125 452,-1 124,125 124,327 -1,452 -125,125 -327,125 -452,1 -125,-125 -124,-327 1,-452z"/>
     <path class="fil2" d="M5736 2944c125,-125 327,-126 452,-1 125,125 124,327 -1,452 -125,125 -327,125 -452,1 -124,-125 -124,-327 1,-452z"/>
     <path class="fil0" d="M4781 3169c652,-652 1709,-652 2361,0l0 0c-652,653 -1709,653 -2361,0zm955 -225c125,-125 327,-126 452,-1 125,125 124,327 -1,452 -125,125 -327,125 -452,1 -124,-125 -124,-327 1,-452z"/>
     <path class="fil0" d="M7142 3169l0 0c-652,-652 -652,-1709 0,-2361 653,652 653,1709 0,2361zm-225 -1406c125,-125 327,-125 452,-1 124,125 124,327 -1,452 -125,125 -327,125 -452,1 -125,-125 -124,-327 1,-452z"/>
    </g>
    <g>
     <path class="fil2" d="M8760 808c652,-653 1709,-653 2361,0 652,652 652,1709 0,2361 -652,653 -1709,653 -2361,0 -653,-652 -653,-1709 0,-2361z"/>
     <path class="fil2" d="M8534 1763c125,-125 327,-125 452,-1 125,125 124,327 -1,452 -125,125 -327,125 -452,1 -124,-125 -124,-327 1,-452z"/>
     <path class="fil0" d="M8760 808c652,652 652,1709 0,2361 -653,-652 -653,-1709 0,-2361zm-226 955c125,-125 327,-125 452,-1 125,125 124,327 -1,452 -125,125 -327,125 -452,1 -124,-125 -124,-327 1,-452z"/>
     <path class="fil2" d="M9715 582c125,-125 327,-125 452,-1 124,125 124,327 -1,452 -125,125 -327,126 -452,1 -125,-125 -124,-327 1,-452z"/>
     <path class="fil0" d="M11121 808c-652,652 -1709,652 -2361,0 652,-653 1709,-653 2361,0zm-1406 -226c125,-125 327,-125 452,-1 124,125 124,327 -1,452 -125,125 -327,126 -452,1 -125,-125 -124,-327 1,-452z"/>
     <path class="fil2" d="M10896 1763c125,-125 327,-125 452,-1 124,125 124,327 -1,452 -125,125 -328,125 -452,1 -125,-125 -124,-327 1,-452z"/>
     <path class="fil2" d="M9715 2944c125,-125 327,-126 452,-1 124,125 124,327 -1,452 -125,125 -327,125 -452,1 -125,-125 -124,-327 1,-452z"/>
     <path class="fil0" d="M8760 3169c652,-652 1709,-652 2361,0l0 0c-652,653 -1709,653 -2361,0zm955 -225c125,-125 327,-126 452,-1 124,125 124,327 -1,452 -125,125 -327,125 -452,1 -125,-125 -124,-327 1,-452z"/>
     <path class="fil0" d="M11121 3169l0 0c-652,-652 -652,-1709 0,-2361 652,652 652,1709 0,2361zm-225 -1406c125,-125 327,-125 452,-1 124,125 124,327 -1,452 -125,125 -328,125 -452,1 -125,-125 -124,-327 1,-452z"/>
    </g>
    <g>
     <path class="fil2" d="M12738 808c652,-653 1710,-653 2362,0 652,652 652,1709 0,2361 -652,653 -1710,653 -2362,0 -652,-652 -652,-1709 0,-2361z"/>
     <path class="fil2" d="M12513 1763c125,-125 327,-125 452,-1 124,125 124,327 -1,452 -125,125 -327,125 -452,1 -125,-125 -124,-327 1,-452z"/>
     <path class="fil0" d="M12738 808c652,652 652,1709 0,2361 -652,-652 -652,-1709 0,-2361zm-225 955c125,-125 327,-125 452,-1 124,125 124,327 -1,452 -125,125 -327,125 -452,1 -125,-125 -124,-327 1,-452z"/>
     <path class="fil2" d="M13694 582c125,-125 327,-125 452,-1 124,125 124,327 -1,452 -125,125 -328,126 -452,1 -125,-125 -124,-327 1,-452z"/>
     <path class="fil0" d="M15100 808c-652,652 -1710,652 -2362,0 652,-653 1710,-653 2362,0zm-1406 -226c125,-125 327,-125 452,-1 124,125 124,327 -1,452 -125,125 -328,126 -452,1 -125,-125 -124,-327 1,-452z"/>
     <path class="fil2" d="M14874 1763c125,-125 328,-125 452,-1 125,125 125,327 0,452 -125,125 -328,125 -452,1 -125,-125 -125,-327 0,-452z"/>
     <path class="fil2" d="M13694 2944c125,-125 327,-126 452,-1 124,125 124,327 -1,452 -125,125 -328,125 -452,1 -125,-125 -124,-327 1,-452z"/>
     <path class="fil0" d="M12738 3169c652,-652 1710,-652 2362,0l0 0c-652,653 -1710,653 -2362,0zm956 -225c125,-125 327,-126 452,-1 124,125 124,327 -1,452 -125,125 -328,125 -452,1 -125,-125 -124,-327 1,-452z"/>
     <path class="fil0" d="M15100 3169l0 0c-652,-652 -652,-1709 0,-2361 652,652 652,1709 0,2361zm-226 -1406c125,-125 328,-125 452,-1 125,125 125,327 0,452 -125,125 -328,125 -452,1 -125,-125 -125,-327 0,-452z"/>
    </g>
    <g>
     <path class="fil2" d="M16717 808c652,-653 1710,-653 2362,0 652,652 652,1709 0,2361 -652,653 -1710,653 -2362,0 -652,-652 -652,-1709 0,-2361z"/>
     <path class="fil2" d="M16491 1763c126,-125 328,-125 452,-1 125,125 125,327 0,452 -125,125 -328,125 -452,1 -125,-125 -125,-327 0,-452z"/>
     <path class="fil0" d="M16717 808c652,652 652,1709 0,2361 -652,-652 -652,-1709 0,-2361zm-226 955c126,-125 328,-125 452,-1 125,125 125,327 0,452 -125,125 -328,125 -452,1 -125,-125 -125,-327 0,-452z"/>
     <path class="fil2" d="M17672 582c125,-125 328,-125 452,-1 125,125 125,327 0,452 -125,125 -328,126 -452,1 -125,-125 -125,-327 0,-452z"/>
     <path class="fil0" d="M19079 808c-652,652 -1710,652 -2362,0 652,-653 1710,-653 2362,0zm-1407 -226c125,-125 328,-125 452,-1 125,125 125,327 0,452 -125,125 -328,126 -452,1 -125,-125 -125,-327 0,-452z"/>
     <path class="fil2" d="M18853 1763c125,-125 328,-125 452,-1 125,125 125,327 -1,452 -125,125 -327,125 -452,1 -124,-125 -124,-327 1,-452z"/>
     <path class="fil2" d="M17672 2944c125,-125 328,-126 452,-1 125,125 125,327 0,452 -125,125 -328,125 -452,1 -125,-125 -125,-327 0,-452z"/>
     <path class="fil0" d="M16717 3169c652,-652 1710,-652 2362,0l0 0c-652,653 -1710,653 -2362,0zm955 -225c125,-125 328,-126 452,-1 125,125 125,327 0,452 -125,125 -328,125 -452,1 -125,-125 -125,-327 0,-452z"/>
     <path class="fil0" d="M19079 3169l0 0c-652,-652 -652,-1709 0,-2361 652,652 652,1709 0,2361zm-226 -1406c125,-125 328,-125 452,-1 125,125 125,327 -1,452 -125,125 -327,125 -452,1 -124,-125 -124,-327 1,-452z"/>
    </g>
    <path class="fil0" d="M805 3169c652,-652 1709,-652 2361,0l0 0c-652,653 -1709,653 -2361,0zm955 -225c125,-125 327,-126 452,-1 125,125 124,327 -1,452 -125,125 -327,125 -452,1 -124,-125 -124,-327 1,-452z"/>
   </g>
   <g>
    <path class="fil2" d="M805 4786c652,-652 1709,-652 2361,0 653,653 653,1710 0,2362 -652,652 -1709,652 -2361,0 -652,-652 -652,-1709 0,-2362z"/>
    <path class="fil2" d="M579 5742c125,-125 327,-126 452,-1 125,125 124,327 -1,452 -125,125 -327,125 -452,1 -124,-125 -124,-327 1,-452z"/>
    <path class="fil2" d="M1760 4561c125,-125 327,-126 452,-1 125,125 124,327 -1,452 -125,125 -327,125 -452,1 -124,-125 -124,-327 1,-452z"/>
    <path class="fil2" d="M2941 5742c125,-125 327,-126 452,-1 124,125 124,327 -1,452 -125,125 -327,125 -452,1 -125,-125 -124,-327 1,-452z"/>
    <path class="fil0" d="M805 4786c652,653 652,1710 0,2362 -652,-652 -652,-1709 0,-2362zm-226 956c125,-125 327,-126 452,-1 125,125 124,327 -1,452 -125,125 -327,125 -452,1 -124,-125 -124,-327 1,-452z"/>
    <path class="fil0" d="M3166 4786c-652,653 -1709,653 -2361,0 652,-652 1709,-652 2361,0zm-1406 -225c125,-125 327,-126 452,-1 125,125 124,327 -1,452 -125,125 -327,125 -452,1 -124,-125 -124,-327 1,-452z"/>
    <path class="fil0" d="M3166 7148l0 0c-652,-652 -652,-1709 0,-2362 653,653 653,1710 0,2362zm-225 -1406c125,-125 327,-126 452,-1 124,125 124,327 -1,452 -125,125 -327,125 -452,1 -125,-125 -124,-327 1,-452z"/>
    <g>
     <path class="fil2" d="M4781 4786c652,-652 1709,-652 2361,0 653,653 653,1710 0,2362 -652,652 -1709,652 -2361,0 -652,-652 -652,-1709 0,-2362z"/>
     <path class="fil2" d="M4555 5742c125,-125 327,-126 452,-1 125,125 124,327 -1,452 -125,125 -327,125 -452,1 -124,-125 -124,-327 1,-452z"/>
     <path class="fil0" d="M4781 4786c652,653 652,1710 0,2362 -652,-652 -652,-1709 0,-2362zm-226 956c125,-125 327,-126 452,-1 125,125 124,327 -1,452 -125,125 -327,125 -452,1 -124,-125 -124,-327 1,-452z"/>
     <path class="fil2" d="M5736 4561c125,-125 327,-126 452,-1 125,125 124,327 -1,452 -125,125 -327,125 -452,1 -124,-125 -124,-327 1,-452z"/>
     <path class="fil0" d="M7142 4786c-652,653 -1709,653 -2361,0 652,-652 1709,-652 2361,0zm-1406 -225c125,-125 327,-126 452,-1 125,125 124,327 -1,452 -125,125 -327,125 -452,1 -124,-125 -124,-327 1,-452z"/>
     <path class="fil2" d="M6917 5742c125,-125 327,-126 452,-1 124,125 124,327 -1,452 -125,125 -327,125 -452,1 -125,-125 -124,-327 1,-452z"/>
     <path class="fil2" d="M5736 6923c125,-125 327,-126 452,-1 125,124 124,327 -1,452 -125,125 -327,125 -452,1 -124,-125 -124,-327 1,-452z"/>
     <path class="fil0" d="M4781 7148c652,-652 1709,-652 2361,0l0 0c-652,652 -1709,652 -2361,0zm955 -225c125,-125 327,-126 452,-1 125,124 124,327 -1,452 -125,125 -327,125 -452,1 -124,-125 -124,-327 1,-452z"/>
     <path class="fil0" d="M7142 7148l0 0c-652,-652 -652,-1709 0,-2362 653,653 653,1710 0,2362zm-225 -1406c125,-125 327,-126 452,-1 124,125 124,327 -1,452 -125,125 -327,125 -452,1 -125,-125 -124,-327 1,-452z"/>
    </g>
    <g>
     <path class="fil2" d="M8760 4786c652,-652 1709,-652 2361,0 652,653 652,1710 0,2362 -652,652 -1709,652 -2361,0 -653,-652 -653,-1709 0,-2362z"/>
     <path class="fil2" d="M8534 5742c125,-125 327,-126 452,-1 125,125 124,327 -1,452 -125,125 -327,125 -452,1 -124,-125 -124,-327 1,-452z"/>
     <path class="fil0" d="M8760 4786c652,653 652,1710 0,2362 -653,-652 -653,-1709 0,-2362zm-226 956c125,-125 327,-126 452,-1 125,125 124,327 -1,452 -125,125 -327,125 -452,1 -124,-125 -124,-327 1,-452z"/>
     <path class="fil2" d="M9715 4561c125,-125 327,-126 452,-1 124,125 124,327 -1,452 -125,125 -327,125 -452,1 -125,-125 -124,-327 1,-452z"/>
     <path class="fil0" d="M11121 4786c-652,653 -1709,653 -2361,0 652,-652 1709,-652 2361,0zm-1406 -225c125,-125 327,-126 452,-1 124,125 124,327 -1,452 -125,125 -327,125 -452,1 -125,-125 -124,-327 1,-452z"/>
     <path class="fil2" d="M10896 5742c125,-125 327,-126 452,-1 124,125 124,327 -1,452 -125,125 -328,125 -452,1 -125,-125 -124,-327 1,-452z"/>
     <path class="fil2" d="M9715 6923c125,-125 327,-126 452,-1 124,124 124,327 -1,452 -125,125 -327,125 -452,1 -125,-125 -124,-327 1,-452z"/>
     <path class="fil0" d="M8760 7148c652,-652 1709,-652 2361,0l0 0c-652,652 -1709,652 -2361,0zm955 -225c125,-125 327,-126 452,-1 124,124 124,327 -1,452 -125,125 -327,125 -452,1 -125,-125 -124,-327 1,-452z"/>
     <path class="fil0" d="M11121 7148l0 0c-652,-652 -652,-1709 0,-2362 652,653 652,1710 0,2362zm-225 -1406c125,-125 327,-126 452,-1 124,125 124,327 -1,452 -125,125 -328,125 -452,1 -125,-125 -124,-327 1,-452z"/>
    </g>
    <g>
     <path class="fil2" d="M12738 4786c652,-652 1710,-652 2362,0 652,653 652,1710 0,2362 -652,652 -1710,652 -2362,0 -652,-652 -652,-1709 0,-2362z"/>
     <path class="fil2" d="M12513 5742c125,-125 327,-126 452,-1 124,125 124,327 -1,452 -125,125 -327,125 -452,1 -125,-125 -124,-327 1,-452z"/>
     <path class="fil0" d="M12738 4786c652,653 652,1710 0,2362 -652,-652 -652,-1709 0,-2362zm-225 956c125,-125 327,-126 452,-1 124,125 124,327 -1,452 -125,125 -327,125 -452,1 -125,-125 -124,-327 1,-452z"/>
     <path class="fil2" d="M13694 4561c125,-125 327,-126 452,-1 124,125 124,327 -1,452 -125,125 -328,125 -452,1 -125,-125 -124,-327 1,-452z"/>
     <path class="fil0" d="M15100 4786c-652,653 -1710,653 -2362,0 652,-652 1710,-652 2362,0zm-1406 -225c125,-125 327,-126 452,-1 124,125 124,327 -1,452 -125,125 -328,125 -452,1 -125,-125 -124,-327 1,-452z"/>
     <path class="fil2" d="M14874 5742c125,-125 328,-126 452,-1 125,125 125,327 0,452 -125,125 -328,125 -452,1 -125,-125 -125,-327 0,-452z"/>
     <path class="fil2" d="M13694 6923c125,-125 327,-126 452,-1 124,124 124,327 -1,452 -125,125 -328,125 -452,1 -125,-125 -124,-327 1,-452z"/>
     <path class="fil0" d="M12738 7148c652,-652 1710,-652 2362,0l0 0c-652,652 -1710,652 -2362,0zm956 -225c125,-125 327,-126 452,-1 124,124 124,327 -1,452 -125,125 -328,125 -452,1 -125,-125 -124,-327 1,-452z"/>
     <path class="fil0" d="M15100 7148l0 0c-652,-652 -652,-1709 0,-2362 652,653 652,1710 0,2362zm-226 -1406c125,-125 328,-126 452,-1 125,125 125,327 0,452 -125,125 -328,125 -452,1 -125,-125 -125,-327 0,-452z"/>
    </g>
    <g>
     <path class="fil2" d="M16717 4786c652,-652 1710,-652 2362,0 652,653 652,1710 0,2362 -652,652 -1710,652 -2362,0 -652,-652 -652,-1709 0,-2362z"/>
     <path class="fil2" d="M16491 5742c126,-125 328,-126 452,-1 125,125 125,327 0,452 -125,125 -328,125 -452,1 -125,-125 -125,-327 0,-452z"/>
     <path class="fil0" d="M16717 4786c652,653 652,1710 0,2362 -652,-652 -652,-1709 0,-2362zm-226 956c126,-125 328,-126 452,-1 125,125 125,327 0,452 -125,125 -328,125 -452,1 -125,-125 -125,-327 0,-452z"/>
     <path class="fil2" d="M17672 4561c125,-125 328,-126 452,-1 125,125 125,327 0,452 -125,125 -328,125 -452,1 -125,-125 -125,-327 0,-452z"/>
     <path class="fil0" d="M19079 4786c-652,653 -1710,653 -2362,0 652,-652 1710,-652 2362,0zm-1407 -225c125,-125 328,-126 452,-1 125,125 125,327 0,452 -125,125 -328,125 -452,1 -125,-125 -125,-327 0,-452z"/>
     <path class="fil2" d="M18853 5742c125,-125 328,-126 452,-1 125,125 125,327 -1,452 -125,125 -327,125 -452,1 -124,-125 -124,-327 1,-452z"/>
     <path class="fil2" d="M17672 6923c125,-125 328,-126 452,-1 125,124 125,327 0,452 -125,125 -328,125 -452,1 -125,-125 -125,-327 0,-452z"/>
     <path class="fil0" d="M16717 7148c652,-652 1710,-652 2362,0l0 0c-652,652 -1710,652 -2362,0zm955 -225c125,-125 328,-126 452,-1 125,124 125,327 0,452 -125,125 -328,125 -452,1 -125,-125 -125,-327 0,-452z"/>
     <path class="fil0" d="M19079 7148l0 0c-652,-652 -652,-1709 0,-2362 652,653 652,1710 0,2362zm-226 -1406c125,-125 328,-126 452,-1 125,125 125,327 -1,452 -125,125 -327,125 -452,1 -124,-125 -124,-327 1,-452z"/>
    </g>
    <path class="fil0" d="M805 7148c652,-652 1709,-652 2361,0l0 0c-652,652 -1709,652 -2361,0zm955 -225c125,-125 327,-126 452,-1 125,124 124,327 -1,452 -125,125 -327,125 -452,1 -124,-125 -124,-327 1,-452z"/>
   </g>
   <g>
    <path class="fil2" d="M805 8765c652,-652 1709,-652 2361,0 653,652 653,1710 0,2362 -652,652 -1709,652 -2361,0 -652,-652 -652,-1710 0,-2362z"/>
    <path class="fil2" d="M579 9720c125,-125 327,-125 452,0 125,124 124,327 -1,452 -125,125 -327,125 -452,0 -124,-124 -124,-327 1,-452z"/>
    <path class="fil2" d="M1760 8540c125,-125 327,-126 452,-1 125,124 124,327 -1,452 -125,125 -327,125 -452,1 -124,-125 -124,-327 1,-452z"/>
    <path class="fil2" d="M2941 9720c125,-125 327,-125 452,0 124,124 124,327 -1,452 -125,125 -327,125 -452,0 -125,-124 -124,-327 1,-452z"/>
    <path class="fil0" d="M805 8765c652,652 652,1710 0,2362 -652,-652 -652,-1710 0,-2362zm-226 955c125,-125 327,-125 452,0 125,124 124,327 -1,452 -125,125 -327,125 -452,0 -124,-124 -124,-327 1,-452z"/>
    <path class="fil0" d="M3166 8765c-652,652 -1709,652 -2361,0 652,-652 1709,-652 2361,0zm-1406 -225c125,-125 327,-126 452,-1 125,124 124,327 -1,452 -125,125 -327,125 -452,1 -124,-125 -124,-327 1,-452z"/>
    <path class="fil0" d="M3166 11127l0 0c-652,-652 -652,-1710 0,-2362 653,652 653,1710 0,2362zm-225 -1407c125,-125 327,-125 452,0 124,124 124,327 -1,452 -125,125 -327,125 -452,0 -125,-124 -124,-327 1,-452z"/>
    <g>
     <path class="fil2" d="M4781 8765c652,-652 1709,-652 2361,0 653,652 653,1710 0,2362 -652,652 -1709,652 -2361,0 -652,-652 -652,-1710 0,-2362z"/>
     <path class="fil2" d="M4555 9720c125,-125 327,-125 452,0 125,124 124,327 -1,452 -125,125 -327,125 -452,0 -124,-124 -124,-327 1,-452z"/>
     <path class="fil0" d="M4781 8765c652,652 652,1710 0,2362 -652,-652 -652,-1710 0,-2362zm-226 955c125,-125 327,-125 452,0 125,124 124,327 -1,452 -125,125 -327,125 -452,0 -124,-124 -124,-327 1,-452z"/>
     <path class="fil2" d="M5736 8540c125,-125 327,-126 452,-1 125,124 124,327 -1,452 -125,125 -327,125 -452,1 -124,-125 -124,-327 1,-452z"/>
     <path class="fil0" d="M7142 8765c-652,652 -1709,652 -2361,0 652,-652 1709,-652 2361,0zm-1406 -225c125,-125 327,-126 452,-1 125,124 124,327 -1,452 -125,125 -327,125 -452,1 -124,-125 -124,-327 1,-452z"/>
     <path class="fil2" d="M6917 9720c125,-125 327,-125 452,0 124,124 124,327 -1,452 -125,125 -327,125 -452,0 -125,-124 -124,-327 1,-452z"/>
     <path class="fil2" d="M5736 10901c125,-125 327,-125 452,0 125,124 124,327 -1,452 -125,125 -327,125 -452,0 -124,-124 -124,-327 1,-452z"/>
     <path class="fil0" d="M4781 11127c652,-652 1709,-652 2361,0l0 0c-652,652 -1709,652 -2361,0zm955 -226c125,-125 327,-125 452,0 125,124 124,327 -1,452 -125,125 -327,125 -452,0 -124,-124 -124,-327 1,-452z"/>
     <path class="fil0" d="M7142 11127l0 0c-652,-652 -652,-1710 0,-2362 653,652 653,1710 0,2362zm-225 -1407c125,-125 327,-125 452,0 124,124 124,327 -1,452 -125,125 -327,125 -452,0 -125,-124 -124,-327 1,-452z"/>
    </g>
    <g>
     <path class="fil2" d="M8760 8765c652,-652 1709,-652 2361,0 652,652 652,1710 0,2362 -652,652 -1709,652 -2361,0 -653,-652 -653,-1710 0,-2362z"/>
     <path class="fil2" d="M8534 9720c125,-125 327,-125 452,0 125,124 124,327 -1,452 -125,125 -327,125 -452,0 -124,-124 -124,-327 1,-452z"/>
     <path class="fil0" d="M8760 8765c652,652 652,1710 0,2362 -653,-652 -653,-1710 0,-2362zm-226 955c125,-125 327,-125 452,0 125,124 124,327 -1,452 -125,125 -327,125 -452,0 -124,-124 -124,-327 1,-452z"/>
     <path class="fil2" d="M9715 8540c125,-125 327,-126 452,-1 124,124 124,327 -1,452 -125,125 -327,125 -452,1 -125,-125 -124,-327 1,-452z"/>
     <path class="fil0" d="M11121 8765c-652,652 -1709,652 -2361,0 652,-652 1709,-652 2361,0zm-1406 -225c125,-125 327,-126 452,-1 124,124 124,327 -1,452 -125,125 -327,125 -452,1 -125,-125 -124,-327 1,-452z"/>
     <path class="fil2" d="M10896 9720c125,-125 327,-125 452,0 124,124 124,327 -1,452 -125,125 -328,125 -452,0 -125,-124 -124,-327 1,-452z"/>
     <path class="fil2" d="M9715 10901c125,-125 327,-125 452,0 124,124 124,327 -1,452 -125,125 -327,125 -452,0 -125,-124 -124,-327 1,-452z"/>
     <path class="fil0" d="M8760 11127c652,-652 1709,-652 2361,0l0 0c-652,652 -1709,652 -2361,0zm955 -226c125,-125 327,-125 452,0 124,124 124,327 -1,452 -125,125 -327,125 -452,0 -125,-124 -124,-327 1,-452z"/>
     <path class="fil0" d="M11121 11127l0 0c-652,-652 -652,-1710 0,-2362 652,652 652,1710 0,2362zm-225 -1407c125,-125 327,-125 452,0 124,124 124,327 -1,452 -125,125 -328,125 -452,0 -125,-124 -124,-327 1,-452z"/>
    </g>
    <g>
     <path class="fil2" d="M12738 8765c652,-652 1710,-652 2362,0 652,652 652,1710 0,2362 -652,652 -1710,652 -2362,0 -652,-652 -652,-1710 0,-2362z"/>
     <path class="fil2" d="M12513 9720c125,-125 327,-125 452,0 124,124 124,327 -1,452 -125,125 -327,125 -452,0 -125,-124 -124,-327 1,-452z"/>
     <path class="fil0" d="M12738 8765c652,652 652,1710 0,2362 -652,-652 -652,-1710 0,-2362zm-225 955c125,-125 327,-125 452,0 124,124 124,327 -1,452 -125,125 -327,125 -452,0 -125,-124 -124,-327 1,-452z"/>
     <path class="fil2" d="M13694 8540c125,-125 327,-126 452,-1 124,124 124,327 -1,452 -125,125 -328,125 -452,1 -125,-125 -124,-327 1,-452z"/>
     <path class="fil0" d="M15100 8765c-652,652 -1710,652 -2362,0 652,-652 1710,-652 2362,0zm-1406 -225c125,-125 327,-126 452,-1 124,124 124,327 -1,452 -125,125 -328,125 -452,1 -125,-125 -124,-327 1,-452z"/>
     <path class="fil2" d="M14874 9720c125,-125 328,-125 452,0 125,124 125,327 0,452 -125,125 -328,125 -452,0 -125,-124 -125,-327 0,-452z"/>
     <path class="fil2" d="M13694 10901c125,-125 327,-125 452,0 124,124 124,327 -1,452 -125,125 -328,125 -452,0 -125,-124 -124,-327 1,-452z"/>
     <path class="fil0" d="M12738 11127c652,-652 1710,-652 2362,0l0 0c-652,652 -1710,652 -2362,0zm956 -226c125,-125 327,-125 452,0 124,124 124,327 -1,452 -125,125 -328,125 -452,0 -125,-124 -124,-327 1,-452z"/>
     <path class="fil0" d="M15100 11127l0 0c-652,-652 -652,-1710 0,-2362 652,652 652,1710 0,2362zm-226 -1407c125,-125 328,-125 452,0 125,124 125,327 0,452 -125,125 -328,125 -452,0 -125,-124 -125,-327 0,-452z"/>
    </g>
    <g>
     <path class="fil2" d="M16717 8765c652,-652 1710,-652 2362,0 652,652 652,1710 0,2362 -652,652 -1710,652 -2362,0 -652,-652 -652,-1710 0,-2362z"/>
     <path class="fil2" d="M16491 9720c126,-125 328,-125 452,0 125,124 125,327 0,452 -125,125 -328,125 -452,0 -125,-124 -125,-327 0,-452z"/>
     <path class="fil0" d="M16717 8765c652,652 652,1710 0,2362 -652,-652 -652,-1710 0,-2362zm-226 955c126,-125 328,-125 452,0 125,124 125,327 0,452 -125,125 -328,125 -452,0 -125,-124 -125,-327 0,-452z"/>
     <path class="fil2" d="M17672 8540c125,-125 328,-126 452,-1 125,124 125,327 0,452 -125,125 -328,125 -452,1 -125,-125 -125,-327 0,-452z"/>
     <path class="fil0" d="M19079 8765c-652,652 -1710,652 -2362,0 652,-652 1710,-652 2362,0zm-1407 -225c125,-125 328,-126 452,-1 125,124 125,327 0,452 -125,125 -328,125 -452,1 -125,-125 -125,-327 0,-452z"/>
     <path class="fil2" d="M18853 9720c125,-125 328,-125 452,0 125,124 125,327 -1,452 -125,125 -327,125 -452,0 -124,-124 -124,-327 1,-452z"/>
     <path class="fil2" d="M17672 10901c125,-125 328,-125 452,0 125,124 125,327 0,452 -125,125 -328,125 -452,0 -125,-124 -125,-327 0,-452z"/>
     <path class="fil0" d="M16717 11127c652,-652 1710,-652 2362,0l0 0c-652,652 -1710,652 -2362,0zm955 -226c125,-125 328,-125 452,0 125,124 125,327 0,452 -125,125 -328,125 -452,0 -125,-124 -125,-327 0,-452z"/>
     <path class="fil0" d="M19079 11127l0 0c-652,-652 -652,-1710 0,-2362 652,652 652,1710 0,2362zm-226 -1407c125,-125 328,-125 452,0 125,124 125,327 -1,452 -125,125 -327,125 -452,0 -124,-124 -124,-327 1,-452z"/>
    </g>
    <path class="fil0" d="M805 11127c652,-652 1709,-652 2361,0l0 0c-652,652 -1709,652 -2361,0zm955 -226c125,-125 327,-125 452,0 125,124 124,327 -1,452 -125,125 -327,125 -452,0 -124,-124 -124,-327 1,-452z"/>
   </g>
   <g>
    <path class="fil2" d="M805 12744c652,-652 1709,-652 2361,0 653,652 653,1710 0,2362 -652,652 -1709,652 -2361,0 -652,-652 -652,-1710 0,-2362z"/>
    <path class="fil2" d="M579 13699c125,-125 327,-125 452,0 125,124 124,327 -1,452 -125,125 -327,125 -452,0 -124,-124 -124,-327 1,-452z"/>
    <path class="fil2" d="M1760 12518c125,-125 327,-125 452,0 125,124 124,327 -1,452 -125,125 -327,125 -452,0 -124,-124 -124,-327 1,-452z"/>
    <path class="fil2" d="M2941 13699c125,-125 327,-125 452,0 124,124 124,327 -1,452 -125,125 -327,125 -452,0 -125,-124 -124,-327 1,-452z"/>
    <path class="fil0" d="M805 12744c652,652 652,1710 0,2362 -652,-652 -652,-1710 0,-2362zm-226 955c125,-125 327,-125 452,0 125,124 124,327 -1,452 -125,125 -327,125 -452,0 -124,-124 -124,-327 1,-452z"/>
    <path class="fil0" d="M3166 12744c-652,652 -1709,652 -2361,0 652,-652 1709,-652 2361,0zm-1406 -226c125,-125 327,-125 452,0 125,124 124,327 -1,452 -125,125 -327,125 -452,0 -124,-124 -124,-327 1,-452z"/>
    <path class="fil0" d="M3166 15106l0 0c-652,-652 -652,-1710 0,-2362 653,652 653,1710 0,2362zm-225 -1407c125,-125 327,-125 452,0 124,124 124,327 -1,452 -125,125 -327,125 -452,0 -125,-124 -124,-327 1,-452z"/>
    <g>
     <path class="fil2" d="M4781 12744c652,-652 1709,-652 2361,0 653,652 653,1710 0,2362 -652,652 -1709,652 -2361,0 -652,-652 -652,-1710 0,-2362z"/>
     <path class="fil2" d="M4555 13699c125,-125 327,-125 452,0 125,124 124,327 -1,452 -125,125 -327,125 -452,0 -124,-124 -124,-327 1,-452z"/>
     <path class="fil0" d="M4781 12744c652,652 652,1710 0,2362 -652,-652 -652,-1710 0,-2362zm-226 955c125,-125 327,-125 452,0 125,124 124,327 -1,452 -125,125 -327,125 -452,0 -124,-124 -124,-327 1,-452z"/>
     <path class="fil2" d="M5736 12518c125,-125 327,-125 452,0 125,124 124,327 -1,452 -125,125 -327,125 -452,0 -124,-124 -124,-327 1,-452z"/>
     <path class="fil0" d="M7142 12744c-652,652 -1709,652 -2361,0 652,-652 1709,-652 2361,0zm-1406 -226c125,-125 327,-125 452,0 125,124 124,327 -1,452 -125,125 -327,125 -452,0 -124,-124 -124,-327 1,-452z"/>
     <path class="fil2" d="M6917 13699c125,-125 327,-125 452,0 124,124 124,327 -1,452 -125,125 -327,125 -452,0 -125,-124 -124,-327 1,-452z"/>
     <path class="fil2" d="M5736 14880c125,-125 327,-125 452,-1 125,125 124,327 -1,452 -125,125 -327,126 -452,1 -124,-124 -124,-327 1,-452z"/>
     <path class="fil0" d="M4781 15106c652,-652 1709,-652 2361,0l0 0c-652,652 -1709,652 -2361,0zm955 -226c125,-125 327,-125 452,-1 125,125 124,327 -1,452 -125,125 -327,126 -452,1 -124,-124 -124,-327 1,-452z"/>
     <path class="fil0" d="M7142 15106l0 0c-652,-652 -652,-1710 0,-2362 653,652 653,1710 0,2362zm-225 -1407c125,-125 327,-125 452,0 124,124 124,327 -1,452 -125,125 -327,125 -452,0 -125,-124 -124,-327 1,-452z"/>
    </g>
    <g>
     <path class="fil2" d="M8760 12744c652,-652 1709,-652 2361,0 652,652 652,1710 0,2362 -652,652 -1709,652 -2361,0 -653,-652 -653,-1710 0,-2362z"/>
     <path class="fil2" d="M8534 13699c125,-125 327,-125 452,0 125,124 124,327 -1,452 -125,125 -327,125 -452,0 -124,-124 -124,-327 1,-452z"/>
     <path class="fil0" d="M8760 12744c652,652 652,1710 0,2362 -653,-652 -653,-1710 0,-2362zm-226 955c125,-125 327,-125 452,0 125,124 124,327 -1,452 -125,125 -327,125 -452,0 -124,-124 -124,-327 1,-452z"/>
     <path class="fil2" d="M9715 12518c125,-125 327,-125 452,0 124,124 124,327 -1,452 -125,125 -327,125 -452,0 -125,-124 -124,-327 1,-452z"/>
     <path class="fil0" d="M11121 12744c-652,652 -1709,652 -2361,0 652,-652 1709,-652 2361,0zm-1406 -226c125,-125 327,-125 452,0 124,124 124,327 -1,452 -125,125 -327,125 -452,0 -125,-124 -124,-327 1,-452z"/>
     <path class="fil2" d="M10896 13699c125,-125 327,-125 452,0 124,124 124,327 -1,452 -125,125 -328,125 -452,0 -125,-124 -124,-327 1,-452z"/>
     <path class="fil2" d="M9715 14880c125,-125 327,-125 452,-1 124,125 124,327 -1,452 -125,125 -327,126 -452,1 -125,-124 -124,-327 1,-452z"/>
     <path class="fil0" d="M8760 15106c652,-652 1709,-652 2361,0l0 0c-652,652 -1709,652 -2361,0zm955 -226c125,-125 327,-125 452,-1 124,125 124,327 -1,452 -125,125 -327,126 -452,1 -125,-124 -124,-327 1,-452z"/>
     <path class="fil0" d="M11121 15106l0 0c-652,-652 -652,-1710 0,-2362 652,652 652,1710 0,2362zm-225 -1407c125,-125 327,-125 452,0 124,124 124,327 -1,452 -125,125 -328,125 -452,0 -125,-124 -124,-327 1,-452z"/>
    </g>
    <g>
     <path class="fil2" d="M12738 12744c652,-652 1710,-652 2362,0 652,652 652,1710 0,2362 -652,652 -1710,652 -2362,0 -652,-652 -652,-1710 0,-2362z"/>
     <path class="fil2" d="M12513 13699c125,-125 327,-125 452,0 124,124 124,327 -1,452 -125,125 -327,125 -452,0 -125,-124 -124,-327 1,-452z"/>
     <path class="fil0" d="M12738 12744c652,652 652,1710 0,2362 -652,-652 -652,-1710 0,-2362zm-225 955c125,-125 327,-125 452,0 124,124 124,327 -1,452 -125,125 -327,125 -452,0 -125,-124 -124,-327 1,-452z"/>
     <path class="fil2" d="M13694 12518c125,-125 327,-125 452,0 124,124 124,327 -1,452 -125,125 -328,125 -452,0 -125,-124 -124,-327 1,-452z"/>
     <path class="fil0" d="M15100 12744c-652,652 -1710,652 -2362,0 652,-652 1710,-652 2362,0zm-1406 -226c125,-125 327,-125 452,0 124,124 124,327 -1,452 -125,125 -328,125 -452,0 -125,-124 -124,-327 1,-452z"/>
     <path class="fil2" d="M14874 13699c125,-125 328,-125 452,0 125,124 125,327 0,452 -125,125 -328,125 -452,0 -125,-124 -125,-327 0,-452z"/>
     <path class="fil2" d="M13694 14880c125,-125 327,-125 452,-1 124,125 124,327 -1,452 -125,125 -328,126 -452,1 -125,-124 -124,-327 1,-452z"/>
     <path class="fil0" d="M12738 15106c652,-652 1710,-652 2362,0l0 0c-652,652 -1710,652 -2362,0zm956 -226c125,-125 327,-125 452,-1 124,125 124,327 -1,452 -125,125 -328,126 -452,1 -125,-124 -124,-327 1,-452z"/>
     <path class="fil0" d="M15100 15106l0 0c-652,-652 -652,-1710 0,-2362 652,652 652,1710 0,2362zm-226 -1407c125,-125 328,-125 452,0 125,124 125,327 0,452 -125,125 -328,125 -452,0 -125,-124 -125,-327 0,-452z"/>
    </g>
    <g>
     <path class="fil2" d="M16717 12744c652,-652 1710,-652 2362,0 652,652 652,1710 0,2362 -652,652 -1710,652 -2362,0 -652,-652 -652,-1710 0,-2362z"/>
     <path class="fil2" d="M16491 13699c126,-125 328,-125 452,0 125,124 125,327 0,452 -125,125 -328,125 -452,0 -125,-124 -125,-327 0,-452z"/>
     <path class="fil0" d="M16717 12744c652,652 652,1710 0,2362 -652,-652 -652,-1710 0,-2362zm-226 955c126,-125 328,-125 452,0 125,124 125,327 0,452 -125,125 -328,125 -452,0 -125,-124 -125,-327 0,-452z"/>
     <path class="fil2" d="M17672 12518c125,-125 328,-125 452,0 125,124 125,327 0,452 -125,125 -328,125 -452,0 -125,-124 -125,-327 0,-452z"/>
     <path class="fil0" d="M19079 12744c-652,652 -1710,652 -2362,0 652,-652 1710,-652 2362,0zm-1407 -226c125,-125 328,-125 452,0 125,124 125,327 0,452 -125,125 -328,125 -452,0 -125,-124 -125,-327 0,-452z"/>
     <path class="fil2" d="M18853 13699c125,-125 328,-125 452,0 125,124 125,327 -1,452 -125,125 -327,125 -452,0 -124,-124 -124,-327 1,-452z"/>
     <path class="fil2" d="M17672 14880c125,-125 328,-125 452,-1 125,125 125,327 0,452 -125,125 -328,126 -452,1 -125,-124 -125,-327 0,-452z"/>
     <path class="fil0" d="M16717 15106c652,-652 1710,-652 2362,0l0 0c-652,652 -1710,652 -2362,0zm955 -226c125,-125 328,-125 452,-1 125,125 125,327 0,452 -125,125 -328,126 -452,1 -125,-124 -125,-327 0,-452z"/>
     <path class="fil0" d="M19079 15106l0 0c-652,-652 -652,-1710 0,-2362 652,652 652,1710 0,2362zm-226 -1407c125,-125 328,-125 452,0 125,124 125,327 -1,452 -125,125 -327,125 -452,0 -124,-124 -124,-327 1,-452z"/>
    </g>
    <path class="fil0" d="M805 15106c652,-652 1709,-652 2361,0l0 0c-652,652 -1709,652 -2361,0zm955 -226c125,-125 327,-125 452,-1 125,125 124,327 -1,452 -125,125 -327,126 -452,1 -124,-124 -124,-327 1,-452z"/>
   </g>
   <g>
    <path class="fil2" d="M805 16723c652,-652 1709,-652 2361,0 653,652 653,1709 0,2362 -652,652 -1709,652 -2361,0 -652,-653 -652,-1710 0,-2362z"/>
    <path class="fil2" d="M579 17678c125,-125 327,-125 452,-1 125,125 124,327 -1,452 -125,125 -327,126 -452,1 -124,-125 -124,-327 1,-452z"/>
    <path class="fil2" d="M1760 16497c125,-125 327,-125 452,-1 125,125 124,327 -1,452 -125,125 -327,126 -452,1 -124,-124 -124,-327 1,-452z"/>
    <path class="fil2" d="M2941 17678c125,-125 327,-125 452,-1 124,125 124,327 -1,452 -125,125 -327,126 -452,1 -125,-125 -124,-327 1,-452z"/>
    <path class="fil0" d="M805 16723c652,652 652,1709 0,2362 -652,-653 -652,-1710 0,-2362zm-226 955c125,-125 327,-125 452,-1 125,125 124,327 -1,452 -125,125 -327,126 -452,1 -124,-125 -124,-327 1,-452z"/>
    <path class="fil0" d="M3166 16723c-652,652 -1709,652 -2361,0 652,-652 1709,-652 2361,0zm-1406 -226c125,-125 327,-125 452,-1 125,125 124,327 -1,452 -125,125 -327,126 -452,1 -124,-124 -124,-327 1,-452z"/>
    <path class="fil0" d="M3166 19085l0 0c-652,-653 -652,-1710 0,-2362 653,652 653,1709 0,2362zm-225 -1407c125,-125 327,-125 452,-1 124,125 124,327 -1,452 -125,125 -327,126 -452,1 -125,-125 -124,-327 1,-452z"/>
    <g>
     <path class="fil2" d="M4781 16723c652,-652 1709,-652 2361,0 653,652 653,1709 0,2362 -652,652 -1709,652 -2361,0 -652,-653 -652,-1710 0,-2362z"/>
     <path class="fil2" d="M4555 17678c125,-125 327,-125 452,-1 125,125 124,327 -1,452 -125,125 -327,126 -452,1 -124,-125 -124,-327 1,-452z"/>
     <path class="fil0" d="M4781 16723c652,652 652,1709 0,2362 -652,-653 -652,-1710 0,-2362zm-226 955c125,-125 327,-125 452,-1 125,125 124,327 -1,452 -125,125 -327,126 -452,1 -124,-125 -124,-327 1,-452z"/>
     <path class="fil2" d="M5736 16497c125,-125 327,-125 452,-1 125,125 124,327 -1,452 -125,125 -327,126 -452,1 -124,-124 -124,-327 1,-452z"/>
     <path class="fil0" d="M7142 16723c-652,652 -1709,652 -2361,0 652,-652 1709,-652 2361,0zm-1406 -226c125,-125 327,-125 452,-1 125,125 124,327 -1,452 -125,125 -327,126 -452,1 -124,-124 -124,-327 1,-452z"/>
     <path class="fil2" d="M6917 17678c125,-125 327,-125 452,-1 124,125 124,327 -1,452 -125,125 -327,126 -452,1 -125,-125 -124,-327 1,-452z"/>
     <path class="fil2" d="M5736 18859c125,-125 327,-125 452,-1 125,125 124,327 -1,452 -125,125 -327,126 -452,1 -124,-125 -124,-327 1,-452z"/>
     <path class="fil0" d="M4781 19085c652,-653 1709,-653 2361,0l0 0c-652,652 -1709,652 -2361,0zm955 -226c125,-125 327,-125 452,-1 125,125 124,327 -1,452 -125,125 -327,126 -452,1 -124,-125 -124,-327 1,-452z"/>
     <path class="fil0" d="M7142 19085l0 0c-652,-653 -652,-1710 0,-2362 653,652 653,1709 0,2362zm-225 -1407c125,-125 327,-125 452,-1 124,125 124,327 -1,452 -125,125 -327,126 -452,1 -125,-125 -124,-327 1,-452z"/>
    </g>
    <g>
     <path class="fil2" d="M8760 16723c652,-652 1709,-652 2361,0 652,652 652,1709 0,2362 -652,652 -1709,652 -2361,0 -653,-653 -653,-1710 0,-2362z"/>
     <path class="fil2" d="M8534 17678c125,-125 327,-125 452,-1 125,125 124,327 -1,452 -125,125 -327,126 -452,1 -124,-125 -124,-327 1,-452z"/>
     <path class="fil0" d="M8760 16723c652,652 652,1709 0,2362 -653,-653 -653,-1710 0,-2362zm-226 955c125,-125 327,-125 452,-1 125,125 124,327 -1,452 -125,125 -327,126 -452,1 -124,-125 -124,-327 1,-452z"/>
     <path class="fil2" d="M9715 16497c125,-125 327,-125 452,-1 124,125 124,327 -1,452 -125,125 -327,126 -452,1 -125,-124 -124,-327 1,-452z"/>
     <path class="fil0" d="M11121 16723c-652,652 -1709,652 -2361,0 652,-652 1709,-652 2361,0zm-1406 -226c125,-125 327,-125 452,-1 124,125 124,327 -1,452 -125,125 -327,126 -452,1 -125,-124 -124,-327 1,-452z"/>
     <path class="fil2" d="M10896 17678c125,-125 327,-125 452,-1 124,125 124,327 -1,452 -125,125 -328,126 -452,1 -125,-125 -124,-327 1,-452z"/>
     <path class="fil2" d="M9715 18859c125,-125 327,-125 452,-1 124,125 124,327 -1,452 -125,125 -327,126 -452,1 -125,-125 -124,-327 1,-452z"/>
     <path class="fil0" d="M8760 19085c652,-653 1709,-653 2361,0l0 0c-652,652 -1709,652 -2361,0zm955 -226c125,-125 327,-125 452,-1 124,125 124,327 -1,452 -125,125 -327,126 -452,1 -125,-125 -124,-327 1,-452z"/>
     <path class="fil0" d="M11121 19085l0 0c-652,-653 -652,-1710 0,-2362 652,652 652,1709 0,2362zm-225 -1407c125,-125 327,-125 452,-1 124,125 124,327 -1,452 -125,125 -328,126 -452,1 -125,-125 -124,-327 1,-452z"/>
    </g>
    <g>
     <path class="fil2" d="M12738 16723c652,-652 1710,-652 2362,0 652,652 652,1709 0,2362 -652,652 -1710,652 -2362,0 -652,-653 -652,-1710 0,-2362z"/>
     <path class="fil2" d="M12513 17678c125,-125 327,-125 452,-1 124,125 124,327 -1,452 -125,125 -327,126 -452,1 -125,-125 -124,-327 1,-452z"/>
     <path class="fil0" d="M12738 16723c652,652 652,1709 0,2362 -652,-653 -652,-1710 0,-2362zm-225 955c125,-125 327,-125 452,-1 124,125 124,327 -1,452 -125,125 -327,126 -452,1 -125,-125 -124,-327 1,-452z"/>
     <path class="fil2" d="M13694 16497c125,-125 327,-125 452,-1 124,125 124,327 -1,452 -125,125 -328,126 -452,1 -125,-124 -124,-327 1,-452z"/>
     <path class="fil0" d="M15100 16723c-652,652 -1710,652 -2362,0 652,-652 1710,-652 2362,0zm-1406 -226c125,-125 327,-125 452,-1 124,125 124,327 -1,452 -125,125 -328,126 -452,1 -125,-124 -124,-327 1,-452z"/>
     <path class="fil2" d="M14874 17678c125,-125 328,-125 452,-1 125,125 125,327 0,452 -125,125 -328,126 -452,1 -125,-125 -125,-327 0,-452z"/>
     <path class="fil2" d="M13694 18859c125,-125 327,-125 452,-1 124,125 124,327 -1,452 -125,125 -328,126 -452,1 -125,-125 -124,-327 1,-452z"/>
     <path class="fil0" d="M12738 19085c652,-653 1710,-653 2362,0l0 0c-652,652 -1710,652 -2362,0zm956 -226c125,-125 327,-125 452,-1 124,125 124,327 -1,452 -125,125 -328,126 -452,1 -125,-125 -124,-327 1,-452z"/>
     <path class="fil0" d="M15100 19085l0 0c-652,-653 -652,-1710 0,-2362 652,652 652,1709 0,2362zm-226 -1407c125,-125 328,-125 452,-1 125,125 125,327 0,452 -125,125 -328,126 -452,1 -125,-125 -125,-327 0,-452z"/>
    </g>
    <g>
     <path class="fil2" d="M16717 16723c652,-652 1710,-652 2362,0 652,652 652,1709 0,2362 -652,652 -1710,652 -2362,0 -652,-653 -652,-1710 0,-2362z"/>
     <path class="fil2" d="M16491 17678c126,-125 328,-125 452,-1 125,125 125,327 0,452 -125,125 -328,126 -452,1 -125,-125 -125,-327 0,-452z"/>
     <path class="fil0" d="M16717 16723c652,652 652,1709 0,2362 -652,-653 -652,-1710 0,-2362zm-226 955c126,-125 328,-125 452,-1 125,125 125,327 0,452 -125,125 -328,126 -452,1 -125,-125 -125,-327 0,-452z"/>
     <path class="fil2" d="M17672 16497c125,-125 328,-125 452,-1 125,125 125,327 0,452 -125,125 -328,126 -452,1 -125,-124 -125,-327 0,-452z"/>
     <path class="fil0" d="M19079 16723c-652,652 -1710,652 -2362,0 652,-652 1710,-652 2362,0zm-1407 -226c125,-125 328,-125 452,-1 125,125 125,327 0,452 -125,125 -328,126 -452,1 -125,-124 -125,-327 0,-452z"/>
     <path class="fil2" d="M18853 17678c125,-125 328,-125 452,-1 125,125 125,327 -1,452 -125,125 -327,126 -452,1 -124,-125 -124,-327 1,-452z"/>
     <path class="fil2" d="M17672 18859c125,-125 328,-125 452,-1 125,125 125,327 0,452 -125,125 -328,126 -452,1 -125,-125 -125,-327 0,-452z"/>
     <path class="fil0" d="M16717 19085c652,-653 1710,-653 2362,0l0 0c-652,652 -1710,652 -2362,0zm955 -226c125,-125 328,-125 452,-1 125,125 125,327 0,452 -125,125 -328,126 -452,1 -125,-125 -125,-327 0,-452z"/>
     <path class="fil0" d="M19079 19085l0 0c-652,-653 -652,-1710 0,-2362 652,652 652,1709 0,2362zm-226 -1407c125,-125 328,-125 452,-1 125,125 125,327 -1,452 -125,125 -327,126 -452,1 -124,-125 -124,-327 1,-452z"/>
    </g>
    <path class="fil0" d="M805 19085c652,-653 1709,-653 2361,0l0 0c-652,652 -1709,652 -2361,0zm955 -226c125,-125 327,-125 452,-1 125,125 124,327 -1,452 -125,125 -327,126 -452,1 -124,-125 -124,-327 1,-452z"/>
   </g>
  </g>
 </g>
</svg>
