<?xml version="1.0" encoding="UTF-8"?>
<!DOCTYPE svg PUBLIC "-//W3C//DTD SVG 1.1//EN" "http://www.w3.org/Graphics/SVG/1.1/DTD/svg11.dtd">
<!-- Creator: CorelDRAW X6 -->
<svg xmlns="http://www.w3.org/2000/svg" xml:space="preserve" width="120.48mm" height="120.478mm" version="1.1" style="shape-rendering:geometricPrecision; text-rendering:geometricPrecision; image-rendering:optimizeQuality; fill-rule:evenodd; clip-rule:evenodd"
viewBox="0 0 100918 100916"
 xmlns:xlink="http://www.w3.org/1999/xlink">
 <defs>
  <style type="text/css">
   <![CDATA[
    .str1 {stroke:#A4C7C1;stroke-width:354.57}
    .str0 {stroke:#A4C7C1;stroke-width:567.329}
    .fil0 {fill:none}
    .fil1 {fill:#B3BE8D}
   ]]>
  </style>
 </defs>
 <g id="Layer_x0020_1">
  <metadata id="CorelCorpID_0Corel-Layer"/>
  <path class="fil0" d="M31481 54532l-7212 7187 14438 0 -7226 -7187zm-7225 8276l7225 7188 7238 -7188 -14463 0z"/>
  <path class="fil0" d="M62549 8125l-7212 7188 14438 0 -7226 -7188zm-7225 8276l7225 7188 7238 -7188 -14463 0z"/>
  <path class="fil0" d="M31481 8125l-7212 7188 14438 0 -7226 -7188zm-7225 8276l7225 7188 7238 -7188 -14463 0z"/>
  <path class="fil0" d="M31481 23586l-7212 7188 14438 0 -7226 -7188zm-7225 8277l7225 7187 7238 -7187 -14463 0z"/>
  <path class="fil0" d="M15947 23586l-7212 7188 14437 0 -7225 -7188zm-7225 8277l7225 7187 7238 -7187 -14463 0z"/>
  <polygon class="fil0 str0" points="8182,15864 402,8126 8168,400 15947,8125 "/>
  <path class="fil1 str1" d="M402 8144l7778 4721 7767 -4721 -7772 -4746 -7773 4746zm7773 -3922c2170,0 3930,1751 3930,3910 0,2159 -1760,3909 -3930,3909 -2171,0 -3930,-1750 -3930,-3909 0,-2159 1759,-3910 3930,-3910z"/>
  <path class="fil0 str0" d="M8182 31328l-7780 -7738 7766 -7726 7779 7725 -7765 7739zm-7 -11642c2170,0 3930,1751 3930,3910 0,2159 -1760,3909 -3930,3909 -2171,0 -3930,-1750 -3930,-3909 0,-2159 1759,-3910 3930,-3910z"/>
  <path class="fil1 str1" d="M402 23608l7778 4721 7767 -4721 -7772 -4746 -7773 4746zm7773 -3922c2170,0 3930,1751 3930,3910 0,2159 -1760,3909 -3930,3909 -2171,0 -3930,-1750 -3930,-3909 0,-2159 1759,-3910 3930,-3910z"/>
  <path class="fil0 str0" d="M8182 46792l-7780 -7738 7766 -7726 7779 7725 -7765 7739zm-7 -11642c2170,0 3930,1751 3930,3910 0,2159 -1760,3909 -3930,3909 -2171,0 -3930,-1750 -3930,-3909 0,-2159 1759,-3910 3930,-3910z"/>
  <path class="fil1 str1" d="M402 39072l7778 4721 7767 -4721 -7772 -4746 -7773 4746zm7773 -3922c2170,0 3930,1751 3930,3910 0,2159 -1760,3909 -3930,3909 -2171,0 -3930,-1750 -3930,-3909 0,-2159 1759,-3910 3930,-3910z"/>
  <path class="fil0 str0" d="M8182 62256l-7780 -7738 7766 -7726 7779 7725 -7765 7739zm-7 -11642c2170,0 3930,1751 3930,3910 0,2159 -1760,3909 -3930,3909 -2171,0 -3930,-1750 -3930,-3909 0,-2159 1759,-3910 3930,-3910z"/>
  <path class="fil1 str1" d="M402 54536l7778 4721 7767 -4721 -7772 -4746 -7773 4746zm7773 -3922c2170,0 3930,1751 3930,3910 0,2159 -1760,3909 -3930,3909 -2171,0 -3930,-1750 -3930,-3909 0,-2159 1759,-3910 3930,-3910z"/>
  <path class="fil0 str0" d="M8182 77720l-7780 -7739 7766 -7725 7779 7725 -7765 7739zm-7 -11642c2170,0 3930,1750 3930,3910 0,2159 -1760,3909 -3930,3909 -2171,0 -3930,-1750 -3930,-3909 0,-2160 1759,-3910 3930,-3910z"/>
  <path class="fil1 str1" d="M402 70000l7778 4721 7767 -4721 -7772 -4746 -7773 4746zm7773 -3922c2170,0 3930,1750 3930,3910 0,2159 -1760,3909 -3930,3909 -2171,0 -3930,-1750 -3930,-3909 0,-2160 1759,-3910 3930,-3910z"/>
  <path class="fil0 str0" d="M8182 93184l-7780 -7739 7766 -7725 7779 7725 -7765 7739zm-7 -11642c2170,0 3930,1750 3930,3910 0,2159 -1760,3909 -3930,3909 -2171,0 -3930,-1750 -3930,-3909 0,-2160 1759,-3910 3930,-3910z"/>
  <path class="fil1 str1" d="M402 85464l7778 4721 7767 -4722 -7772 -4745 -7773 4746zm7773 -3922c2170,0 3930,1750 3930,3910 0,2159 -1760,3909 -3930,3909 -2171,0 -3930,-1750 -3930,-3909 0,-2160 1759,-3910 3930,-3910z"/>
  <path class="fil0 str0" d="M23726 93184l-7779 -7739 7766 -7725 7779 7725 -7766 7739zm-7 -11642c2171,0 3930,1750 3930,3910 0,2159 -1759,3909 -3930,3909 -2170,0 -3930,-1750 -3930,-3909 0,-2160 1760,-3910 3930,-3910z"/>
  <path class="fil1 str1" d="M15947 85464l7778 4721 7767 -4722 -7772 -4745 -7773 4746zm7772 -3922c2171,0 3930,1750 3930,3910 0,2159 -1759,3909 -3930,3909 -2170,0 -3930,-1750 -3930,-3909 0,-2160 1760,-3910 3930,-3910z"/>
  <path class="fil0 str0" d="M39271 93184l-7779 -7739 7766 -7725 7778 7725 -7765 7739zm-7 -11642c2171,0 3930,1750 3930,3910 0,2159 -1759,3909 -3930,3909 -2171,0 -3930,-1750 -3930,-3909 0,-2160 1759,-3910 3930,-3910z"/>
  <path class="fil1 str1" d="M31492 85464l7778 4721 7766 -4722 -7772 -4745 -7772 4746zm7772 -3922c2171,0 3930,1750 3930,3910 0,2159 -1759,3909 -3930,3909 -2171,0 -3930,-1750 -3930,-3909 0,-2160 1759,-3910 3930,-3910z"/>
  <path class="fil0 str0" d="M54816 93184l-7780 -7739 7766 -7725 7779 7725 -7765 7739zm-7 -11642c2170,0 3930,1750 3930,3910 0,2159 -1760,3909 -3930,3909 -2171,0 -3930,-1750 -3930,-3909 0,-2160 1759,-3910 3930,-3910z"/>
  <path class="fil1 str1" d="M47036 85464l7779 4721 7766 -4722 -7772 -4745 -7773 4746zm7773 -3922c2170,0 3930,1750 3930,3910 0,2159 -1760,3909 -3930,3909 -2171,0 -3930,-1750 -3930,-3909 0,-2160 1759,-3910 3930,-3910z"/>
  <path class="fil0 str0" d="M70360 93184l-7779 -7739 7766 -7725 7779 7725 -7766 7739zm-7 -11642c2171,0 3930,1750 3930,3910 0,2159 -1759,3909 -3930,3909 -2170,0 -3930,-1750 -3930,-3909 0,-2160 1760,-3910 3930,-3910z"/>
  <path class="fil1 str1" d="M62581 85464l7778 4721 7767 -4722 -7772 -4745 -7773 4746zm7772 -3922c2171,0 3930,1750 3930,3910 0,2159 -1759,3909 -3930,3909 -2170,0 -3930,-1750 -3930,-3909 0,-2160 1760,-3910 3930,-3910z"/>
  <path class="fil0 str0" d="M85905 93184l-7779 -7739 7766 -7725 7778 7725 -7765 7739zm-7 -11642c2171,0 3930,1750 3930,3910 0,2159 -1759,3909 -3930,3909 -2171,0 -3930,-1750 -3930,-3909 0,-2160 1759,-3910 3930,-3910z"/>
  <path class="fil1 str1" d="M78126 85464l7778 4721 7766 -4722 -7772 -4745 -7772 4746zm7772 -3922c2171,0 3930,1750 3930,3910 0,2159 -1759,3909 -3930,3909 -2171,0 -3930,-1750 -3930,-3909 0,-2160 1759,-3910 3930,-3910z"/>
  <path class="fil0 str0" d="M23726 77720l-7779 -7739 7766 -7725 7779 7725 -7766 7739zm-7 -11642c2171,0 3930,1750 3930,3910 0,2159 -1759,3909 -3930,3909 -2170,0 -3930,-1750 -3930,-3909 0,-2160 1760,-3910 3930,-3910z"/>
  <path class="fil1 str1" d="M15947 70000l7778 4721 7767 -4721 -7772 -4746 -7773 4746zm7772 -3922c2171,0 3930,1750 3930,3910 0,2159 -1759,3909 -3930,3909 -2170,0 -3930,-1750 -3930,-3909 0,-2160 1760,-3910 3930,-3910z"/>
  <path class="fil0 str0" d="M39271 77720l-7779 -7739 7766 -7725 7778 7725 -7765 7739zm-7 -11642c2171,0 3930,1750 3930,3910 0,2159 -1759,3909 -3930,3909 -2171,0 -3930,-1750 -3930,-3909 0,-2160 1759,-3910 3930,-3910z"/>
  <path class="fil1 str1" d="M31492 70000l7778 4721 7766 -4721 -7772 -4746 -7772 4746zm7772 -3922c2171,0 3930,1750 3930,3910 0,2159 -1759,3909 -3930,3909 -2171,0 -3930,-1750 -3930,-3909 0,-2160 1759,-3910 3930,-3910z"/>
  <path class="fil0 str0" d="M70360 77720l-7779 -7739 7766 -7725 7779 7725 -7766 7739zm-7 -11642c2171,0 3930,1750 3930,3910 0,2159 -1759,3909 -3930,3909 -2170,0 -3930,-1750 -3930,-3909 0,-2160 1760,-3910 3930,-3910z"/>
  <path class="fil1 str1" d="M62581 70000l7778 4721 7767 -4721 -7772 -4746 -7773 4746zm7772 -3922c2171,0 3930,1750 3930,3910 0,2159 -1759,3909 -3930,3909 -2170,0 -3930,-1750 -3930,-3909 0,-2160 1760,-3910 3930,-3910z"/>
  <path class="fil0 str0" d="M54816 77720l-7780 -7739 7766 -7725 7779 7725 -7765 7739zm-7 -11642c2170,0 3930,1750 3930,3910 0,2159 -1760,3909 -3930,3909 -2171,0 -3930,-1750 -3930,-3909 0,-2160 1759,-3910 3930,-3910z"/>
  <path class="fil1 str1" d="M47036 70000l7779 4721 7766 -4721 -7772 -4746 -7773 4746zm7773 -3922c2170,0 3930,1750 3930,3910 0,2159 -1760,3909 -3930,3909 -2171,0 -3930,-1750 -3930,-3909 0,-2160 1759,-3910 3930,-3910z"/>
  <path class="fil0 str0" d="M85905 77720l-7779 -7739 7766 -7725 7778 7725 -7765 7739zm-7 -11642c2171,0 3930,1750 3930,3910 0,2159 -1759,3909 -3930,3909 -2171,0 -3930,-1750 -3930,-3909 0,-2160 1759,-3910 3930,-3910z"/>
  <path class="fil1 str1" d="M78126 70000l7778 4721 7766 -4721 -7772 -4746 -7772 4746zm7772 -3922c2171,0 3930,1750 3930,3910 0,2159 -1759,3909 -3930,3909 -2171,0 -3930,-1750 -3930,-3909 0,-2160 1759,-3910 3930,-3910z"/>
  <path class="fil0 str0" d="M23726 62256l-7779 -7738 7766 -7726 7779 7725 -7766 7739zm-7 -11642c2171,0 3930,1751 3930,3910 0,2159 -1759,3909 -3930,3909 -2170,0 -3930,-1750 -3930,-3909 0,-2159 1760,-3910 3930,-3910z"/>
  <path class="fil1 str1" d="M15947 54536l7778 4721 7767 -4721 -7772 -4746 -7773 4746zm7772 -3922c2171,0 3930,1751 3930,3910 0,2159 -1759,3909 -3930,3909 -2170,0 -3930,-1750 -3930,-3909 0,-2159 1760,-3910 3930,-3910z"/>
  <path class="fil0 str0" d="M39271 62256l-7779 -7738 7766 -7726 7778 7725 -7765 7739zm-7 -11642c2171,0 3930,1751 3930,3910 0,2159 -1759,3909 -3930,3909 -2171,0 -3930,-1750 -3930,-3909 0,-2159 1759,-3910 3930,-3910z"/>
  <path class="fil1 str1" d="M31492 54536l7778 4721 7766 -4721 -7772 -4746 -7772 4746zm7772 -3922c2171,0 3930,1751 3930,3910 0,2159 -1759,3909 -3930,3909 -2171,0 -3930,-1750 -3930,-3909 0,-2159 1759,-3910 3930,-3910z"/>
  <path class="fil0 str0" d="M54816 62256l-7780 -7738 7766 -7726 7779 7725 -7765 7739zm-7 -11642c2170,0 3930,1751 3930,3910 0,2159 -1760,3909 -3930,3909 -2171,0 -3930,-1750 -3930,-3909 0,-2159 1759,-3910 3930,-3910z"/>
  <path class="fil1 str1" d="M47036 54536l7779 4721 7766 -4721 -7772 -4746 -7773 4746zm7773 -3922c2170,0 3930,1751 3930,3910 0,2159 -1760,3909 -3930,3909 -2171,0 -3930,-1750 -3930,-3909 0,-2159 1759,-3910 3930,-3910z"/>
  <path class="fil0 str0" d="M70360 62256l-7779 -7738 7766 -7726 7779 7725 -7766 7739zm-7 -11642c2171,0 3930,1751 3930,3910 0,2159 -1759,3909 -3930,3909 -2170,0 -3930,-1750 -3930,-3909 0,-2159 1760,-3910 3930,-3910z"/>
  <path class="fil1 str1" d="M62581 54536l7778 4721 7767 -4721 -7772 -4746 -7773 4746zm7772 -3922c2171,0 3930,1751 3930,3910 0,2159 -1759,3909 -3930,3909 -2170,0 -3930,-1750 -3930,-3909 0,-2159 1760,-3910 3930,-3910z"/>
  <path class="fil0 str0" d="M85905 62256l-7779 -7738 7766 -7726 7778 7725 -7765 7739zm-7 -11642c2171,0 3930,1751 3930,3910 0,2159 -1759,3909 -3930,3909 -2171,0 -3930,-1750 -3930,-3909 0,-2159 1759,-3910 3930,-3910z"/>
  <path class="fil1 str1" d="M78126 54536l7778 4721 7766 -4721 -7772 -4746 -7772 4746zm7772 -3922c2171,0 3930,1751 3930,3910 0,2159 -1759,3909 -3930,3909 -2171,0 -3930,-1750 -3930,-3909 0,-2159 1759,-3910 3930,-3910z"/>
  <path class="fil0 str0" d="M39271 46792l-7779 -7738 7766 -7726 7778 7725 -7765 7739zm-7 -11642c2171,0 3930,1751 3930,3910 0,2159 -1759,3909 -3930,3909 -2171,0 -3930,-1750 -3930,-3909 0,-2159 1759,-3910 3930,-3910z"/>
  <path class="fil1 str1" d="M31492 39072l7778 4721 7766 -4721 -7772 -4746 -7772 4746zm7772 -3922c2171,0 3930,1751 3930,3910 0,2159 -1759,3909 -3930,3909 -2171,0 -3930,-1750 -3930,-3909 0,-2159 1759,-3910 3930,-3910z"/>
  <path class="fil0 str0" d="M54816 46792l-7780 -7738 7766 -7726 7779 7725 -7765 7739zm-7 -11642c2170,0 3930,1751 3930,3910 0,2159 -1760,3909 -3930,3909 -2171,0 -3930,-1750 -3930,-3909 0,-2159 1759,-3910 3930,-3910z"/>
  <path class="fil1 str1" d="M47036 39072l7779 4721 7766 -4721 -7772 -4746 -7773 4746zm7773 -3922c2170,0 3930,1751 3930,3910 0,2159 -1760,3909 -3930,3909 -2171,0 -3930,-1750 -3930,-3909 0,-2159 1759,-3910 3930,-3910z"/>
  <path class="fil0 str0" d="M70360 46792l-7779 -7738 7766 -7726 7779 7725 -7766 7739zm-7 -11642c2171,0 3930,1751 3930,3910 0,2159 -1759,3909 -3930,3909 -2170,0 -3930,-1750 -3930,-3909 0,-2159 1760,-3910 3930,-3910z"/>
  <path class="fil1 str1" d="M62581 39072l7778 4721 7767 -4721 -7772 -4746 -7773 4746zm7772 -3922c2171,0 3930,1751 3930,3910 0,2159 -1759,3909 -3930,3909 -2170,0 -3930,-1750 -3930,-3909 0,-2159 1760,-3910 3930,-3910z"/>
  <path class="fil0 str0" d="M85905 46792l-7779 -7738 7766 -7726 7778 7725 -7765 7739zm-7 -11642c2171,0 3930,1751 3930,3910 0,2159 -1759,3909 -3930,3909 -2171,0 -3930,-1750 -3930,-3909 0,-2159 1759,-3910 3930,-3910z"/>
  <path class="fil1 str1" d="M78126 39072l7778 4721 7766 -4721 -7772 -4746 -7772 4746zm7772 -3922c2171,0 3930,1751 3930,3910 0,2159 -1759,3909 -3930,3909 -2171,0 -3930,-1750 -3930,-3909 0,-2159 1759,-3910 3930,-3910z"/>
  <path class="fil0 str0" d="M23726 46792l-7779 -7738 7766 -7726 7779 7725 -7766 7739zm-7 -11642c2171,0 3930,1751 3930,3910 0,2159 -1759,3909 -3930,3909 -2170,0 -3930,-1750 -3930,-3909 0,-2159 1760,-3910 3930,-3910z"/>
  <path class="fil1 str1" d="M15947 39072l7778 4721 7767 -4721 -7772 -4746 -7773 4746zm7772 -3922c2171,0 3930,1751 3930,3910 0,2159 -1759,3909 -3930,3909 -2170,0 -3930,-1750 -3930,-3909 0,-2159 1760,-3910 3930,-3910z"/>
  <path class="fil0 str0" d="M23726 31328l-7779 -7738 7766 -7726 7779 7725 -7766 7739zm-7 -11642c2171,0 3930,1751 3930,3910 0,2159 -1759,3909 -3930,3909 -2170,0 -3930,-1750 -3930,-3909 0,-2159 1760,-3910 3930,-3910z"/>
  <path class="fil1 str1" d="M15947 23608l7778 4721 7767 -4721 -7772 -4746 -7773 4746zm7772 -3922c2171,0 3930,1751 3930,3910 0,2159 -1759,3909 -3930,3909 -2170,0 -3930,-1750 -3930,-3909 0,-2159 1760,-3910 3930,-3910z"/>
  <path class="fil0 str0" d="M39271 31328l-7779 -7738 7766 -7726 7778 7725 -7765 7739zm-7 -11642c2171,0 3930,1751 3930,3910 0,2159 -1759,3909 -3930,3909 -2171,0 -3930,-1750 -3930,-3909 0,-2159 1759,-3910 3930,-3910z"/>
  <path class="fil1 str1" d="M31492 23608l7778 4721 7766 -4721 -7772 -4746 -7772 4746zm7772 -3922c2171,0 3930,1751 3930,3910 0,2159 -1759,3909 -3930,3909 -2171,0 -3930,-1750 -3930,-3909 0,-2159 1759,-3910 3930,-3910z"/>
  <path class="fil0 str0" d="M54816 31328l-7780 -7738 7766 -7726 7779 7725 -7765 7739zm-7 -11642c2170,0 3930,1751 3930,3910 0,2159 -1760,3909 -3930,3909 -2171,0 -3930,-1750 -3930,-3909 0,-2159 1759,-3910 3930,-3910z"/>
  <path class="fil1 str1" d="M47036 23608l7779 4721 7766 -4721 -7772 -4746 -7773 4746zm7773 -3922c2170,0 3930,1751 3930,3910 0,2159 -1760,3909 -3930,3909 -2171,0 -3930,-1750 -3930,-3909 0,-2159 1759,-3910 3930,-3910z"/>
  <path class="fil0 str0" d="M70360 31328l-7779 -7738 7766 -7726 7779 7725 -7766 7739zm-7 -11642c2171,0 3930,1751 3930,3910 0,2159 -1759,3909 -3930,3909 -2170,0 -3930,-1750 -3930,-3909 0,-2159 1760,-3910 3930,-3910z"/>
  <path class="fil1 str1" d="M62581 23608l7778 4721 7767 -4721 -7772 -4746 -7773 4746zm7772 -3922c2171,0 3930,1751 3930,3910 0,2159 -1759,3909 -3930,3909 -2170,0 -3930,-1750 -3930,-3909 0,-2159 1760,-3910 3930,-3910z"/>
  <path class="fil0 str0" d="M85905 31328l-7779 -7738 7766 -7726 7778 7725 -7765 7739zm-7 -11642c2171,0 3930,1751 3930,3910 0,2159 -1759,3909 -3930,3909 -2171,0 -3930,-1750 -3930,-3909 0,-2159 1759,-3910 3930,-3910z"/>
  <path class="fil1 str1" d="M78126 23608l7778 4721 7766 -4721 -7772 -4746 -7772 4746zm7772 -3922c2171,0 3930,1751 3930,3910 0,2159 -1759,3909 -3930,3909 -2171,0 -3930,-1750 -3930,-3909 0,-2159 1759,-3910 3930,-3910z"/>
  <path class="fil0 str0" d="M23726 15864l-7779 -7738 7766 -7726 7779 7725 -7766 7739zm-7 -11642c2171,0 3930,1751 3930,3910 0,2159 -1759,3910 -3930,3910 -2170,0 -3930,-1751 -3930,-3910 0,-2159 1760,-3910 3930,-3910z"/>
  <path class="fil1 str1" d="M15947 8144l7778 4721 7767 -4721 -7772 -4746 -7773 4746zm7772 -3922c2171,0 3930,1751 3930,3910 0,2159 -1759,3910 -3930,3910 -2170,0 -3930,-1751 -3930,-3910 0,-2159 1760,-3910 3930,-3910z"/>
  <path class="fil0 str0" d="M39271 15864l-7779 -7738 7766 -7726 7778 7725 -7765 7739zm-7 -11642c2171,0 3930,1751 3930,3910 0,2159 -1759,3910 -3930,3910 -2171,0 -3930,-1751 -3930,-3910 0,-2159 1759,-3910 3930,-3910z"/>
  <path class="fil1 str1" d="M31492 8144l7778 4721 7766 -4721 -7772 -4746 -7772 4746zm7772 -3922c2171,0 3930,1751 3930,3910 0,2159 -1759,3910 -3930,3910 -2171,0 -3930,-1751 -3930,-3910 0,-2159 1759,-3910 3930,-3910z"/>
  <path class="fil0 str0" d="M54816 15864l-7780 -7738 7766 -7726 7779 7725 -7765 7739zm-7 -11642c2170,0 3930,1751 3930,3910 0,2159 -1760,3910 -3930,3910 -2171,0 -3930,-1751 -3930,-3910 0,-2159 1759,-3910 3930,-3910z"/>
  <path class="fil1 str1" d="M47036 8144l7779 4721 7766 -4721 -7772 -4746 -7773 4746zm7773 -3922c2170,0 3930,1751 3930,3910 0,2159 -1760,3910 -3930,3910 -2171,0 -3930,-1751 -3930,-3910 0,-2159 1759,-3910 3930,-3910z"/>
  <path class="fil0 str0" d="M85905 15864l-7779 -7738 7766 -7726 7778 7725 -7765 7739zm-7 -11642c2171,0 3930,1751 3930,3910 0,2159 -1759,3910 -3930,3910 -2171,0 -3930,-1751 -3930,-3910 0,-2159 1759,-3910 3930,-3910z"/>
  <path class="fil1 str1" d="M78126 8144l7778 4721 7766 -4721 -7772 -4746 -7772 4746zm7772 -3922c2171,0 3930,1751 3930,3910 0,2159 -1759,3910 -3930,3910 -2171,0 -3930,-1751 -3930,-3910 0,-2159 1759,-3910 3930,-3910z"/>
  <path class="fil0 str0" d="M70360 15864l-7779 -7738 7766 -7726 7779 7725 -7766 7739zm-7 -11642c2171,0 3930,1751 3930,3910 0,2159 -1759,3910 -3930,3910 -2170,0 -3930,-1751 -3930,-3910 0,-2159 1760,-3910 3930,-3910z"/>
  <path class="fil1 str1" d="M62581 8144l7778 4721 7767 -4721 -7772 -4746 -7773 4746zm7772 -3922c2171,0 3930,1751 3930,3910 0,2159 -1759,3910 -3930,3910 -2170,0 -3930,-1751 -3930,-3910 0,-2159 1760,-3910 3930,-3910z"/>
  <g id="_453689128">
   <polygon class="fil1" points="15949,9360 9708,15580 22202,15580 "/>
   <polygon class="fil1" points="15949,22366 9708,16146 22202,16146 "/>
  </g>
  <g id="_444324592">
   <polygon class="fil1" points="31482,9354 25241,15574 37735,15574 "/>
   <polygon class="fil1" points="31482,22360 25241,16140 37735,16140 "/>
  </g>
  <g id="_444322120">
   <polygon class="fil1" points="47016,9354 40775,15574 53269,15574 "/>
   <polygon class="fil1" points="47016,22360 40775,16140 53269,16140 "/>
  </g>
  <g id="_444324016">
   <polygon class="fil1" points="78084,40301 71843,46521 84337,46521 "/>
   <polygon class="fil1" points="78084,53307 71843,47087 84337,47087 "/>
  </g>
  <g id="_209264656">
   <polygon class="fil1" points="15948,40301 9707,46521 22201,46521 "/>
   <polygon class="fil1" points="15948,53307 9707,47087 22201,47087 "/>
  </g>
  <g id="_209267200">
   <polygon class="fil1" points="47016,40301 40775,46521 53269,46521 "/>
   <polygon class="fil1" points="47016,53307 40775,47087 53269,47087 "/>
  </g>
  <g id="_209268400">
   <polygon class="fil1" points="62632,40301 56391,46521 68885,46521 "/>
   <polygon class="fil1" points="62632,53307 56391,47087 68885,47087 "/>
  </g>
  <g id="_209256736">
   <polygon class="fil1" points="31482,40301 25241,46521 37735,46521 "/>
   <polygon class="fil1" points="31482,53307 25241,47087 37735,47087 "/>
  </g>
  <g id="_206761256">
   <polygon class="fil1" points="78084,24816 71843,31035 84337,31035 "/>
   <polygon class="fil1" points="78084,37821 71843,31601 84337,31601 "/>
  </g>
  <g id="_206762960">
   <polygon class="fil1" points="78166,9354 71925,15574 84419,15574 "/>
   <polygon class="fil1" points="78166,22360 71925,16140 84419,16140 "/>
  </g>
  <g id="_206763536">
   <polygon class="fil1" points="62632,24816 56391,31035 68885,31035 "/>
   <polygon class="fil1" points="62632,37821 56391,31601 68885,31601 "/>
  </g>
  <g id="_206771144">
   <polygon class="fil1" points="47016,24816 40775,31035 53269,31035 "/>
   <polygon class="fil1" points="47016,37821 40775,31601 53269,31601 "/>
  </g>
  <g id="_206773088">
   <polygon class="fil1" points="31482,24816 25241,31035 37735,31035 "/>
   <polygon class="fil1" points="31482,37821 25241,31601 37735,31601 "/>
  </g>
  <g id="_206774984">
   <polygon class="fil1" points="15948,71221 9706,77441 22201,77441 "/>
   <polygon class="fil1" points="15948,84227 9706,78007 22201,78007 "/>
  </g>
  <g id="_206775296">
   <polygon class="fil1" points="78084,55761 71843,61981 84337,61981 "/>
   <polygon class="fil1" points="78084,68767 71843,62547 84337,62547 "/>
  </g>
  <g id="_328142616">
   <polygon class="fil1" points="62632,55761 56391,61981 68885,61981 "/>
   <polygon class="fil1" points="62632,68767 56391,62547 68885,62547 "/>
  </g>
  <g id="_328135176">
   <polygon class="fil1" points="47016,55761 40775,61981 53269,61981 "/>
   <polygon class="fil1" points="47016,68767 40775,62547 53269,62547 "/>
  </g>
  <g id="_328135560">
   <polygon class="fil1" points="62632,71221 56391,77441 68885,77441 "/>
   <polygon class="fil1" points="62632,84227 56391,78007 68885,78007 "/>
  </g>
  <g id="_328136976">
   <polygon class="fil1" points="78084,71221 71843,77441 84337,77441 "/>
   <polygon class="fil1" points="78084,84227 71843,78007 84337,78007 "/>
  </g>
  <g id="_328137744">
   <polygon class="fil1" points="47016,71221 40775,77441 53269,77441 "/>
   <polygon class="fil1" points="47016,84227 40775,78007 53269,78007 "/>
  </g>
  <g id="_328138104">
   <polygon class="fil1" points="31482,71221 25241,77441 37735,77441 "/>
   <polygon class="fil1" points="31482,84227 25241,78007 37735,78007 "/>
  </g>
  <g id="_328139184">
   <polygon class="fil1" points="31482,55761 25240,61981 37735,61981 "/>
   <polygon class="fil1" points="31482,68767 25240,62547 37735,62547 "/>
  </g>
  <g id="_328139616">
   <polygon class="fil1" points="15948,55761 9706,61981 22201,61981 "/>
   <polygon class="fil1" points="15948,68767 9706,62547 22201,62547 "/>
  </g>
  <g id="_328140696">
   <polygon class="fil1" points="15948,86681 9706,92901 22201,92901 "/>
   <polygon class="fil1" points="15948,99687 9706,93467 22201,93467 "/>
  </g>
  <g id="_328141440">
   <polygon class="fil1" points="31482,86681 25241,92901 37735,92901 "/>
   <polygon class="fil1" points="31482,99687 25241,93467 37735,93467 "/>
  </g>
  <g id="_328142376">
   <polygon class="fil1" points="47016,86681 40775,92901 53269,92901 "/>
   <polygon class="fil1" points="47016,99687 40775,93467 53269,93467 "/>
  </g>
  <g id="_447239408">
   <polygon class="fil1" points="62632,86681 56391,92901 68885,92901 "/>
   <polygon class="fil1" points="62632,99687 56391,93467 68885,93467 "/>
  </g>
  <g id="_447242744">
   <polygon class="fil1" points="78084,86681 71843,92901 84337,92901 "/>
   <polygon class="fil1" points="78084,99687 71843,93467 84337,93467 "/>
  </g>
  <g id="_447246416">
   <polygon class="fil1" points="93681,86681 87440,92901 99934,92901 "/>
   <polygon class="fil1" points="93681,99687 87440,93467 99934,93467 "/>
  </g>
  <g id="_447249344">
   <polygon class="fil1" points="93681,71221 87440,77441 99934,77441 "/>
   <polygon class="fil1" points="93681,84227 87440,78007 99934,78007 "/>
  </g>
  <g id="_447252656">
   <polygon class="fil1" points="93681,55761 87440,61981 99934,61981 "/>
   <polygon class="fil1" points="93681,68767 87440,62547 99934,62547 "/>
  </g>
  <g id="_447255992">
   <polygon class="fil1" points="93681,40301 87440,46521 99934,46521 "/>
   <polygon class="fil1" points="93681,53307 87440,47087 99934,47087 "/>
  </g>
  <g id="_447257888">
   <polygon class="fil1" points="93681,24816 87440,31035 99934,31035 "/>
   <polygon class="fil1" points="93681,37821 87440,31601 99934,31601 "/>
  </g>
  <g id="_447262376">
   <polygon class="fil1" points="93681,9637 87440,15857 99934,15857 "/>
   <polygon class="fil1" points="93681,22643 87440,16423 99934,16423 "/>
  </g>
  <g id="_447269168">
   <polygon class="fil1" points="15948,24816 9707,31035 22201,31035 "/>
   <polygon class="fil1" points="15948,37821 9707,31601 22201,31601 "/>
  </g>
  <g id="_447236000">
   <polygon class="fil1" points="62550,9354 56309,15574 68803,15574 "/>
   <polygon class="fil1" points="62550,22360 56309,16140 68803,16140 "/>
  </g>
  <path class="fil0" d="M78165 8125l-7212 7188 14438 0 -7226 -7188zm-7224 8276l7224 7188 7239 -7188 -14463 0z"/>
  <path class="fil0" d="M93680 8125l-7212 7188 14438 0 -7226 -7188zm-7225 8276l7225 7188 7238 -7188 -14463 0z"/>
  <path class="fil0" d="M47015 23586l-7212 7188 14438 0 -7226 -7188zm-7225 8277l7225 7187 7238 -7187 -14463 0z"/>
  <path class="fil0" d="M62631 23586l-7212 7188 14438 0 -7226 -7188zm-7224 8277l7224 7187 7239 -7187 -14463 0z"/>
  <path class="fil0" d="M78083 23586l-7212 7188 14438 0 -7226 -7188zm-7225 8277l7225 7187 7238 -7187 -14463 0z"/>
  <path class="fil0" d="M93680 23586l-7212 7188 14438 0 -7226 -7188zm-7225 8277l7225 7187 7238 -7187 -14463 0z"/>
  <path class="fil0" d="M15947 39072l-7212 7187 14437 0 -7225 -7187zm-7225 8276l7225 7188 7238 -7188 -14463 0z"/>
  <path class="fil0" d="M31481 39072l-7212 7187 14438 0 -7226 -7187zm-7225 8276l7225 7188 7238 -7188 -14463 0z"/>
  <path class="fil0" d="M47015 39072l-7212 7187 14438 0 -7226 -7187zm-7225 8276l7225 7188 7238 -7188 -14463 0z"/>
  <path class="fil0" d="M62631 39072l-7212 7187 14438 0 -7226 -7187zm-7224 8276l7224 7188 7239 -7188 -14463 0z"/>
  <path class="fil0" d="M78083 39072l-7212 7187 14438 0 -7226 -7187zm-7225 8276l7225 7188 7238 -7188 -14463 0z"/>
  <path class="fil0" d="M93680 39072l-7212 7187 14438 0 -7226 -7187zm-7225 8276l7225 7188 7238 -7188 -14463 0z"/>
  <path class="fil0" d="M15947 54532l-7212 7187 14437 0 -7225 -7187zm-7225 8276l7225 7188 7238 -7188 -14463 0z"/>
  <path class="fil0" d="M47015 54532l-7212 7187 14438 0 -7226 -7187zm-7225 8276l7225 7188 7238 -7188 -14463 0z"/>
  <path class="fil0" d="M62631 54532l-7212 7187 14438 0 -7226 -7187zm-7224 8276l7224 7188 7239 -7188 -14463 0z"/>
  <path class="fil0" d="M78083 54532l-7212 7187 14438 0 -7226 -7187zm-7225 8276l7225 7188 7238 -7188 -14463 0z"/>
  <path class="fil0" d="M93680 54532l-7212 7187 14438 0 -7226 -7187zm-7225 8276l7225 7188 7238 -7188 -14463 0z"/>
  <path class="fil0" d="M15947 69992l-7212 7188 14437 0 -7225 -7188zm-7225 8276l7225 7188 7238 -7188 -14463 0z"/>
  <path class="fil0" d="M31481 40188l-7212 7187 14437 0 -7225 -7187zm-7225 8276l7225 7188 7238 -7188 -14463 0z"/>
  <path class="fil0" d="M31481 54532l-7212 7188 14437 0 -7225 -7188zm-7225 8276l7225 7188 7238 -7188 -14463 0z"/>
  <path class="fil0" d="M15947 54532l-7212 7188 14437 0 -7225 -7188zm-7225 8276l7225 7188 7238 -7188 -14463 0z"/>
  <path class="fil0" d="M31481 69992l-7212 7188 14438 0 -7226 -7188zm-7225 8276l7225 7188 7238 -7188 -14463 0z"/>
  <path class="fil0" d="M47015 69992l-7212 7188 14438 0 -7226 -7188zm-7225 8276l7225 7188 7238 -7188 -14463 0z"/>
  <path class="fil0" d="M62631 69992l-7212 7188 14438 0 -7226 -7188zm-7224 8276l7224 7188 7239 -7188 -14463 0z"/>
  <path class="fil0" d="M78083 69992l-7212 7188 14438 0 -7226 -7188zm-7225 8276l7225 7188 7238 -7188 -14463 0z"/>
  <path class="fil0" d="M93680 69992l-7212 7188 14438 0 -7226 -7188zm-7225 8276l7225 7188 7238 -7188 -14463 0z"/>
  <path class="fil0" d="M15947 85452l-7212 7188 14437 0 -7225 -7188zm-7225 8276l7225 7188 7238 -7188 -14463 0z"/>
  <path class="fil0" d="M31481 85452l-7212 7188 14438 0 -7226 -7188zm-7225 8276l7225 7188 7238 -7188 -14463 0z"/>
  <path class="fil0" d="M47015 85452l-7212 7188 14438 0 -7226 -7188zm-7225 8276l7225 7188 7238 -7188 -14463 0z"/>
  <path class="fil0" d="M62631 85452l-7212 7188 14438 0 -7226 -7188zm-7224 8276l7224 7188 7239 -7188 -14463 0z"/>
  <path class="fil0" d="M78083 85452l-7212 7188 14438 0 -7226 -7188zm-7225 8276l7225 7188 7238 -7188 -14463 0z"/>
  <path class="fil0" d="M93680 85452l-7212 7188 14438 0 -7226 -7188zm-7225 8276l7225 7188 7238 -7188 -14463 0z"/>
 </g>
</svg>
