<?xml version="1.0" encoding="UTF-8"?>
<!DOCTYPE svg PUBLIC "-//W3C//DTD SVG 1.1//EN" "http://www.w3.org/Graphics/SVG/1.1/DTD/svg11.dtd">
<!-- Creator: CorelDRAW X6 -->
<svg xmlns="http://www.w3.org/2000/svg" xml:space="preserve" width="121.895mm" height="120.837mm" version="1.1" style="shape-rendering:geometricPrecision; text-rendering:geometricPrecision; image-rendering:optimizeQuality; fill-rule:evenodd; clip-rule:evenodd"
viewBox="0 0 35338 35031"
 xmlns:xlink="http://www.w3.org/1999/xlink">
 <defs>
  <style type="text/css">
   <![CDATA[
    .str0 {fill:#4C57FF;stroke-width:122.718}
    .str1 {fill:#4C57FF;stroke-width:196.354}
    .fil2 {fill:none}
    .fil0 {fill:#4C57FF}
    .fil1 {fill:#13ECAB}
   ]]>
  </style>
 </defs>
 <g id="Layer_x0020_1">
  <metadata id="CorelCorpID_0Corel-Layer"/>
  <g id="_452939152">
   <rect class="fil0" x="318" y="98" width="34737" height="34790"/>
   <path class="fil1 str0" d="M4189 7759l2367 -3879 -2311 -3782 -112 0 -2323 3785 2379 3876zm-1966 -3876c0,-1082 878,-1960 1960,-1960 1082,0 1960,878 1960,1960 0,1082 -878,1960 -1960,1960 -1082,0 -1960,-878 -1960,-1960z"/>
   <path class="fil1 str0" d="M4189 15511l2367 -3879 -2367 -3873 -2379 3876 2379 3876zm-1966 -3876c0,-1083 878,-1960 1960,-1960 1082,0 1960,877 1960,1960 0,1082 -878,1960 -1960,1960 -1082,0 -1960,-878 -1960,-1960z"/>
   <path class="fil1 str0" d="M4189 23263l2367 -3879 -2367 -3873 -2379 3876 2379 3876zm-1966 -3876c0,-1083 878,-1960 1960,-1960 1082,0 1960,877 1960,1960 0,1082 -878,1960 -1960,1960 -1082,0 -1960,-878 -1960,-1960z"/>
   <path class="fil1 str0" d="M4189 31015l2367 -3879 -2367 -3873 -2379 3875 2379 3877zm-1966 -3876c0,-1083 878,-1960 1960,-1960 1082,0 1960,877 1960,1960 0,1082 -878,1959 -1960,1959 -1082,0 -1960,-877 -1960,-1959z"/>
   <path class="fil1 str0" d="M6554 34890l2 -2 -2367 -3873 -2379 3875 0 0 413 0c0,-1082 878,-1959 1960,-1959 1082,0 1960,877 1960,1959l411 0z"/>
   <path class="fil1 str0" d="M11943 7759l2367 -3879 -2312 -3782 -111 0 -2323 3785 2379 3876zm-1966 -3876c0,-1082 877,-1960 1960,-1960 1082,0 1960,878 1960,1960 0,1082 -878,1960 -1960,1960 -1083,0 -1960,-878 -1960,-1960z"/>
   <path class="fil1 str0" d="M11943 15511l2367 -3879 -2367 -3873 -2379 3876 2379 3876zm-1966 -3876c0,-1083 877,-1960 1960,-1960 1082,0 1960,877 1960,1960 0,1082 -878,1960 -1960,1960 -1083,0 -1960,-878 -1960,-1960z"/>
   <path class="fil1 str0" d="M11943 23263l2367 -3879 -2367 -3873 -2379 3876 2379 3876zm-1966 -3876c0,-1083 877,-1960 1960,-1960 1082,0 1960,877 1960,1960 0,1082 -878,1960 -1960,1960 -1083,0 -1960,-878 -1960,-1960z"/>
   <path class="fil1 str0" d="M11943 31015l2367 -3879 -2367 -3873 -2379 3875 2379 3877zm-1966 -3876c0,-1083 877,-1960 1960,-1960 1082,0 1960,877 1960,1960 0,1082 -878,1959 -1960,1959 -1083,0 -1960,-877 -1960,-1959z"/>
   <path class="fil1 str0" d="M14308 34890l2 -2 -2367 -3873 -2379 3875 0 0 413 0c0,-1082 877,-1959 1960,-1959 1082,0 1960,877 1960,1959l411 0z"/>
   <path class="fil1 str0" d="M19680 7759l2366 -3879 -2311 -3782 -111 0 -2323 3785 2379 3876zm-1966 -3876c0,-1082 877,-1960 1960,-1960 1082,0 1959,878 1959,1960 0,1082 -877,1960 -1959,1960 -1083,0 -1960,-878 -1960,-1960z"/>
   <path class="fil1 str0" d="M19680 15511l2366 -3879 -2366 -3873 -2379 3876 2379 3876zm-1966 -3876c0,-1083 877,-1960 1960,-1960 1082,0 1959,877 1959,1960 0,1082 -877,1960 -1959,1960 -1083,0 -1960,-878 -1960,-1960z"/>
   <path class="fil1 str0" d="M19680 23263l2366 -3879 -2366 -3873 -2379 3876 2379 3876zm-1966 -3876c0,-1083 877,-1960 1960,-1960 1082,0 1959,877 1959,1960 0,1082 -877,1960 -1959,1960 -1083,0 -1960,-878 -1960,-1960z"/>
   <path class="fil1 str0" d="M19680 31015l2366 -3879 -2366 -3873 -2379 3875 2379 3877zm-1966 -3876c0,-1083 877,-1960 1960,-1960 1082,0 1959,877 1959,1960 0,1082 -877,1959 -1959,1959 -1083,0 -1960,-877 -1960,-1959z"/>
   <path class="fil1 str0" d="M22045 34890l1 -2 -2366 -3873 -2379 3875 0 0 413 0c0,-1082 877,-1959 1960,-1959 1082,0 1959,877 1959,1959l412 0z"/>
   <path class="fil1 str0" d="M27393 7759l2367 -3879 -2311 -3782 -112 0 -2323 3785 2379 3876zm-1966 -3876c0,-1082 878,-1960 1960,-1960 1083,0 1960,878 1960,1960 0,1082 -877,1960 -1960,1960 -1082,0 -1960,-878 -1960,-1960z"/>
   <path class="fil1 str0" d="M27393 15511l2367 -3879 -2367 -3873 -2379 3876 2379 3876zm-1966 -3876c0,-1083 878,-1960 1960,-1960 1083,0 1960,877 1960,1960 0,1082 -877,1960 -1960,1960 -1082,0 -1960,-878 -1960,-1960z"/>
   <path class="fil1 str0" d="M27393 23263l2367 -3879 -2367 -3873 -2379 3876 2379 3876zm-1966 -3876c0,-1083 878,-1960 1960,-1960 1083,0 1960,877 1960,1960 0,1082 -877,1960 -1960,1960 -1082,0 -1960,-878 -1960,-1960z"/>
   <path class="fil1 str0" d="M27393 31015l2367 -3879 -2367 -3873 -2379 3875 2379 3877zm-1966 -3876c0,-1083 878,-1960 1960,-1960 1083,0 1960,877 1960,1960 0,1082 -877,1959 -1960,1959 -1082,0 -1960,-877 -1960,-1959z"/>
   <path class="fil1 str0" d="M29758 34890l2 -2 -2367 -3873 -2379 3875 0 0 413 0c0,-1082 878,-1959 1960,-1959 1083,0 1960,877 1960,1959l411 0z"/>
   <path class="fil1 str0" d="M35121 98l-2323 3785 2361 3847 0 -1887c-1077,-7 -1948,-882 -1948,-1960 0,-1079 871,-1954 1948,-1960l0 -1825 -38 0z"/>
   <path class="fil1 str0" d="M35159 7787l-2361 3848 2361 3847 0 -1887c-1077,-7 -1948,-882 -1948,-1960 0,-1079 871,-1954 1948,-1960l0 -1888z"/>
   <path class="fil1 str0" d="M35159 15539l-2361 3848 2361 3847 0 -1888c-1077,-6 -1948,-881 -1948,-1959 0,-1079 871,-1954 1948,-1960l0 -1888z"/>
   <path class="fil1 str0" d="M35159 23291l-2361 3847 2361 3848 0 -1888c-1077,-6 -1948,-881 -1948,-1959 0,-1079 871,-1954 1948,-1960l0 -1888z"/>
   <path class="fil1 str0" d="M2679 31043l-2361 3847 0 0 413 0c0,-1078 871,-1953 1948,-1959l0 -1888z"/>
   <polygon class="fil1 str1" points="8061,34890 8063,34889 8065,34890 "/>
   <polygon class="fil1 str1" points="15813,34890 15815,34889 15817,34890 "/>
   <polygon class="fil1 str1" points="23565,34890 23567,34889 23569,34890 "/>
   <polygon class="fil1 str1" points="31317,34890 31319,34889 31320,34890 "/>
   <path class="fil1 str1" d="M8070 34889l-3880 -3879 3873 -3873 3879 3872 -3872 3880zm-4 -5836c1083,0 1960,877 1960,1960 0,1082 -877,1960 -1960,1960 -1082,0 -1960,-878 -1960,-1960 0,-1083 878,-1960 1960,-1960z"/>
   <path class="fil1 str0" d="M4190 31019l3879 2367 3873 -2367 -3876 -2379 -3876 2379zm3876 -1966c1083,0 1960,877 1960,1960 0,1082 -877,1960 -1960,1960 -1082,0 -1960,-878 -1960,-1960 0,-1083 878,-1960 1960,-1960z"/>
   <path class="fil1 str1" d="M15822 34889l-3880 -3879 3873 -3873 3879 3872 -3872 3880zm-4 -5836c1083,0 1960,877 1960,1960 0,1082 -877,1960 -1960,1960 -1082,0 -1960,-878 -1960,-1960 0,-1083 878,-1960 1960,-1960z"/>
   <path class="fil1 str0" d="M11942 31019l3879 2367 3873 -2367 -3876 -2379 -3876 2379zm3876 -1966c1083,0 1960,877 1960,1960 0,1082 -877,1960 -1960,1960 -1082,0 -1960,-878 -1960,-1960 0,-1083 878,-1960 1960,-1960z"/>
   <path class="fil1 str1" d="M31325 34889l-3879 -3879 3873 -3873 3840 3833 0 78 -3834 3841zm-3 -5836c1082,0 1960,877 1960,1960 0,1082 -878,1960 -1960,1960 -1083,0 -1960,-878 -1960,-1960 0,-1083 877,-1960 1960,-1960z"/>
   <path class="fil1 str0" d="M27446 31019l3879 2367 3834 -2344 0 -47 -3837 -2355 -3876 2379zm3876 -1966c1082,0 1960,877 1960,1960 0,1082 -878,1960 -1960,1960 -1083,0 -1960,-878 -1960,-1960 0,-1083 877,-1960 1960,-1960z"/>
   <path class="fil1 str1" d="M23574 34889l-3880 -3879 3873 -3873 3879 3872 -3872 3880zm-4 -5836c1082,0 1960,877 1960,1960 0,1082 -878,1960 -1960,1960 -1082,0 -1960,-878 -1960,-1960 0,-1083 878,-1960 1960,-1960z"/>
   <path class="fil1 str0" d="M19694 31019l3879 2367 3873 -2367 -3876 -2379 -3876 2379zm3876 -1966c1082,0 1960,877 1960,1960 0,1082 -878,1960 -1960,1960 -1082,0 -1960,-878 -1960,-1960 0,-1083 878,-1960 1960,-1960z"/>
   <path class="fil1 str1" d="M8070 27137l-3880 -3879 3873 -3873 3879 3872 -3872 3880zm-4 -5836c1083,0 1960,877 1960,1960 0,1082 -877,1960 -1960,1960 -1082,0 -1960,-878 -1960,-1960 0,-1083 878,-1960 1960,-1960z"/>
   <path class="fil1 str0" d="M4190 23267l3879 2367 3873 -2367 -3876 -2379 -3876 2379zm3876 -1966c1083,0 1960,877 1960,1960 0,1082 -877,1960 -1960,1960 -1082,0 -1960,-878 -1960,-1960 0,-1083 878,-1960 1960,-1960z"/>
   <path class="fil1 str1" d="M15822 27137l-3880 -3879 3873 -3873 3879 3872 -3872 3880zm-4 -5836c1083,0 1960,877 1960,1960 0,1082 -877,1960 -1960,1960 -1082,0 -1960,-878 -1960,-1960 0,-1083 878,-1960 1960,-1960z"/>
   <path class="fil1 str0" d="M11942 23267l3879 2367 3873 -2367 -3876 -2379 -3876 2379zm3876 -1966c1083,0 1960,877 1960,1960 0,1082 -877,1960 -1960,1960 -1082,0 -1960,-878 -1960,-1960 0,-1083 878,-1960 1960,-1960z"/>
   <path class="fil1 str1" d="M23574 27137l-3880 -3879 3873 -3873 3879 3872 -3872 3880zm-4 -5836c1082,0 1960,877 1960,1960 0,1082 -878,1960 -1960,1960 -1082,0 -1960,-878 -1960,-1960 0,-1083 878,-1960 1960,-1960z"/>
   <path class="fil1 str0" d="M19694 23267l3879 2367 3873 -2367 -3876 -2379 -3876 2379zm3876 -1966c1082,0 1960,877 1960,1960 0,1082 -878,1960 -1960,1960 -1082,0 -1960,-878 -1960,-1960 0,-1083 878,-1960 1960,-1960z"/>
   <path class="fil1 str1" d="M31325 27137l-3879 -3879 3873 -3873 3840 3834 0 77 -3834 3841zm-3 -5836c1082,0 1960,877 1960,1960 0,1082 -878,1960 -1960,1960 -1083,0 -1960,-878 -1960,-1960 0,-1083 877,-1960 1960,-1960z"/>
   <path class="fil1 str0" d="M27446 23267l3879 2367 3834 -2343 0 -48 -3837 -2355 -3876 2379zm3876 -1966c1082,0 1960,877 1960,1960 0,1082 -878,1960 -1960,1960 -1083,0 -1960,-878 -1960,-1960 0,-1083 877,-1960 1960,-1960z"/>
   <path class="fil1 str1" d="M15822 19385l-3880 -3879 3873 -3873 3879 3873 -3872 3879zm-4 -5836c1083,0 1960,878 1960,1960 0,1082 -877,1960 -1960,1960 -1082,0 -1960,-878 -1960,-1960 0,-1082 878,-1960 1960,-1960z"/>
   <path class="fil1 str0" d="M11942 15515l3879 2367 3873 -2367 -3876 -2379 -3876 2379zm3876 -1966c1083,0 1960,878 1960,1960 0,1082 -877,1960 -1960,1960 -1082,0 -1960,-878 -1960,-1960 0,-1082 878,-1960 1960,-1960z"/>
   <path class="fil1 str1" d="M23574 19385l-3880 -3879 3873 -3873 3879 3873 -3872 3879zm-4 -5836c1082,0 1960,878 1960,1960 0,1082 -878,1960 -1960,1960 -1082,0 -1960,-878 -1960,-1960 0,-1082 878,-1960 1960,-1960z"/>
   <path class="fil1 str0" d="M19694 15515l3879 2367 3873 -2367 -3876 -2379 -3876 2379zm3876 -1966c1082,0 1960,878 1960,1960 0,1082 -878,1960 -1960,1960 -1082,0 -1960,-878 -1960,-1960 0,-1082 878,-1960 1960,-1960z"/>
   <path class="fil1 str1" d="M31325 19385l-3879 -3879 3873 -3873 3840 3834 0 77 -3834 3841zm-3 -5836c1082,0 1960,878 1960,1960 0,1082 -878,1960 -1960,1960 -1083,0 -1960,-878 -1960,-1960 0,-1082 877,-1960 1960,-1960z"/>
   <path class="fil1 str0" d="M27446 15515l3879 2367 3834 -2343 0 -48 -3837 -2355 -3876 2379zm3876 -1966c1082,0 1960,878 1960,1960 0,1082 -878,1960 -1960,1960 -1083,0 -1960,-878 -1960,-1960 0,-1082 877,-1960 1960,-1960z"/>
   <path class="fil1 str1" d="M8070 19385l-3880 -3879 3873 -3873 3879 3873 -3872 3879zm-4 -5836c1083,0 1960,878 1960,1960 0,1082 -877,1960 -1960,1960 -1082,0 -1960,-878 -1960,-1960 0,-1082 878,-1960 1960,-1960z"/>
   <path class="fil1 str0" d="M4190 15515l3879 2367 3873 -2367 -3876 -2379 -3876 2379zm3876 -1966c1083,0 1960,878 1960,1960 0,1082 -877,1960 -1960,1960 -1082,0 -1960,-878 -1960,-1960 0,-1082 878,-1960 1960,-1960z"/>
   <path class="fil1 str1" d="M8070 11633l-3880 -3879 3873 -3873 3879 3873 -3872 3879zm-4 -5836c1083,0 1960,878 1960,1960 0,1082 -877,1960 -1960,1960 -1082,0 -1960,-878 -1960,-1960 0,-1082 878,-1960 1960,-1960z"/>
   <path class="fil1 str0" d="M4190 7763l3879 2367 3873 -2367 -3876 -2379 -3876 2379zm3876 -1966c1083,0 1960,878 1960,1960 0,1082 -877,1960 -1960,1960 -1082,0 -1960,-878 -1960,-1960 0,-1082 878,-1960 1960,-1960z"/>
   <path class="fil1 str1" d="M15822 11633l-3880 -3879 3873 -3873 3879 3873 -3872 3879zm-4 -5836c1083,0 1960,878 1960,1960 0,1082 -877,1960 -1960,1960 -1082,0 -1960,-878 -1960,-1960 0,-1082 878,-1960 1960,-1960z"/>
   <path class="fil1 str0" d="M11942 7763l3879 2367 3873 -2367 -3876 -2379 -3876 2379zm3876 -1966c1083,0 1960,878 1960,1960 0,1082 -877,1960 -1960,1960 -1082,0 -1960,-878 -1960,-1960 0,-1082 878,-1960 1960,-1960z"/>
   <path class="fil1 str1" d="M23574 11633l-3880 -3879 3873 -3873 3879 3873 -3872 3879zm-4 -5836c1082,0 1960,878 1960,1960 0,1082 -878,1960 -1960,1960 -1082,0 -1960,-878 -1960,-1960 0,-1082 878,-1960 1960,-1960z"/>
   <path class="fil1 str0" d="M19694 7763l3879 2367 3873 -2367 -3876 -2379 -3876 2379zm3876 -1966c1082,0 1960,878 1960,1960 0,1082 -878,1960 -1960,1960 -1082,0 -1960,-878 -1960,-1960 0,-1082 878,-1960 1960,-1960z"/>
   <path class="fil1 str1" d="M31325 11633l-3879 -3879 3873 -3873 3840 3834 0 78 -3834 3840zm-3 -5836c1082,0 1960,878 1960,1960 0,1082 -878,1960 -1960,1960 -1083,0 -1960,-878 -1960,-1960 0,-1082 877,-1960 1960,-1960z"/>
   <path class="fil1 str0" d="M27446 7763l3879 2367 3834 -2343 0 -48 -3837 -2355 -3876 2379zm3876 -1966c1082,0 1960,878 1960,1960 0,1082 -878,1960 -1960,1960 -1083,0 -1960,-878 -1960,-1960 0,-1082 877,-1960 1960,-1960z"/>
   <path class="fil1 str1" d="M8070 3881l-3784 -3783 1823 0c48,1039 906,1867 1957,1867 1051,0 1909,-828 1958,-1867l1822 0 -3776 3783z"/>
   <path class="fil1 str0" d="M4333 98l3736 2280 3731 -2280 -1776 0c-49,1039 -907,1867 -1958,1867 -1051,0 -1909,-828 -1957,-1867l-1776 0z"/>
   <path class="fil1 str1" d="M15822 3881l-3784 -3783 1823 0c48,1039 906,1867 1957,1867 1051,0 1909,-828 1958,-1867l1822 0 -3776 3783z"/>
   <path class="fil1 str0" d="M12085 98l3736 2280 3731 -2280 -1776 0c-49,1039 -907,1867 -1958,1867 -1051,0 -1909,-828 -1957,-1867l-1776 0z"/>
   <path class="fil1 str1" d="M23574 3881l-3784 -3783 1822 0c49,1039 907,1867 1958,1867 1051,0 1909,-828 1958,-1867l1822 0 -3776 3783z"/>
   <path class="fil1 str0" d="M19836 98l3737 2280 3730 -2280 -1775 0c-49,1039 -907,1867 -1958,1867 -1051,0 -1909,-828 -1958,-1867l-1776 0z"/>
   <path class="fil1 str1" d="M31325 3881l-3783 -3783 1822 0c49,1039 907,1867 1958,1867 1051,0 1909,-828 1957,-1867l1823 0 -3777 3783z"/>
   <path class="fil1 str0" d="M27588 98l3737 2280 3730 -2280 -1776 0c-48,1039 -906,1867 -1957,1867 -1051,0 -1909,-828 -1958,-1867l-1776 0z"/>
   <rect class="fil2" x="237" y="98" width="34922" height="34796"/>
   <g>
    <polygon class="fil1 str1" points="237,34894 239,34892 241,34894 "/>
    <path class="fil1 str1" d="M246 34892l-9 -8 0 -1908 5 0c1082,0 1960,-877 1960,-1960 0,-1082 -878,-1959 -1960,-1959l-5 0 0 -1915 2 -1 3879 3872 -3872 3879z"/>
    <path class="fil1 str0" d="M237 33384l8 5 3873 -2367 -3876 -2378 -5 3 0 410 5 0c1082,0 1960,877 1960,1959 0,1083 -878,1960 -1960,1960l-5 0 0 408z"/>
    <path class="fil1 str1" d="M246 27141l-9 -9 0 -1908 5 0c1082,0 1960,-877 1960,-1959 0,-1083 -878,-1960 -1960,-1960l-5 0 0 -1915 2 -1 3879 3872 -3872 3880z"/>
    <path class="fil1 str0" d="M237 25633l8 4 3873 -2366 -3876 -2379 -5 3 0 410 5 0c1082,0 1960,877 1960,1960 0,1082 -878,1959 -1960,1959l-5 0 0 409z"/>
    <path class="fil1 str1" d="M246 19389l-9 -9 0 -1907 5 0c1082,0 1960,-878 1960,-1960 0,-1083 -878,-1960 -1960,-1960l-5 0 0 -1914 2 -2 3879 3872 -3872 3880z"/>
    <path class="fil1 str0" d="M237 17881l8 5 3873 -2367 -3876 -2379 -5 3 0 410 5 0c1082,0 1960,877 1960,1960 0,1082 -878,1960 -1960,1960l-5 0 0 408z"/>
    <path class="fil1 str1" d="M246 11637l-9 -9 0 -1907 5 0c1082,0 1960,-878 1960,-1960 0,-1083 -878,-1960 -1960,-1960l-5 0 0 -1914 2 -2 3879 3872 -3872 3880z"/>
    <path class="fil1 str0" d="M237 10129l8 5 3873 -2367 -3876 -2379 -5 3 0 410 5 0c1082,0 1960,877 1960,1960 0,1082 -878,1960 -1960,1960l-5 0 0 408z"/>
    <path class="fil1 str1" d="M246 3885l-9 -9 0 -1907 5 0c1051,0 1909,-828 1958,-1867l1822 0 -3776 3783z"/>
    <path class="fil1 str0" d="M237 2377l8 5 3730 -2280 -1775 0c-49,1039 -907,1867 -1958,1867l-5 0 0 408z"/>
   </g>
  </g>
 </g>
</svg>
