<?xml version="1.0" encoding="UTF-8"?>
<!DOCTYPE svg PUBLIC "-//W3C//DTD SVG 1.1//EN" "http://www.w3.org/Graphics/SVG/1.1/DTD/svg11.dtd">
<!-- Creator: CorelDRAW X6 -->
<svg xmlns="http://www.w3.org/2000/svg" xml:space="preserve" width="121.714mm" height="121.714mm" version="1.1" style="shape-rendering:geometricPrecision; text-rendering:geometricPrecision; image-rendering:optimizeQuality; fill-rule:evenodd; clip-rule:evenodd"
viewBox="0 0 28156 28156"
 xmlns:xlink="http://www.w3.org/1999/xlink">
 <defs>
  <style type="text/css">
   <![CDATA[
    .fil0 {fill:#4C57FF}
    .fil1 {fill:#C834F7}
   ]]>
  </style>
 </defs>
 <g id="Layer_x0020_1">
  <metadata id="CorelCorpID_0Corel-Layer"/>
  <polygon class="fil0" points="0,0 28156,0 28156,28156 0,28156 "/>
  <path class="fil1" d="M0 20678c149,-134 1114,-1216 1168,-1276l2372 -2585c174,-195 409,-495 589,-656 210,-188 381,-476 602,-642 135,101 477,497 593,627 99,111 186,217 287,323 63,65 98,82 162,154 194,220 380,455 587,659 241,239 504,595 752,810 192,167 407,439 583,638l599 646c131,147 1031,1157 1203,1286 141,-107 2437,-2650 2652,-2889 60,-66 92,-80 151,-141 255,-265 473,-573 745,-817 228,-204 1004,-1154 1194,-1296l4599 5149c99,-34 430,-470 575,-633l1704 -1938c327,-368 860,-910 1130,-1290 106,-149 1043,-1204 1155,-1288 115,86 1083,1186 1180,1286l598 646c51,56 87,102 138,155l1486 1615c247,244 500,579 749,813 175,164 475,458 592,653l11 -9 0 -951c-4,2 -8,3 -11,4l-444 -458c-290,-327 -571,-676 -885,-971l-1762 -1950c-62,-65 -97,-82 -162,-154l-897 -983c-177,-175 -421,-523 -593,-652 -110,82 -2400,2732 -2539,2887l-990 1137c-258,301 -751,952 -1006,1144l-4622 -5175c-106,82 -208,220 -299,323 -105,118 -194,192 -300,310 -196,221 -385,450 -586,660l-1774 1911c-201,227 -386,433 -586,660l-599 646c-99,111 -186,218 -288,323 -62,65 -97,82 -161,154 -55,63 -94,116 -155,162 -63,-46 -84,-87 -148,-144 -181,-157 -1121,-1213 -1331,-1452l-311 -322c-102,-114 -187,-210 -288,-323l-311 -323c-201,-209 -376,-432 -575,-647l-737 -801c-242,-239 -533,-619 -752,-809 -120,-104 -206,-241 -313,-321 -101,76 -1125,1223 -1180,1285l-1773 1912c-201,227 -385,433 -586,660l-300 310c-105,118 -194,217 -299,336l-593 627 0 985z"/>
  <path class="fil1" d="M0 8473c179,150 1002,1104 1168,1277 59,61 91,74 150,141l575 647c64,72 100,90 162,154l587 660c103,116 193,191 299,310 174,195 410,495 589,656 221,198 397,424 597,649l604 639c62,-46 83,-87 148,-144 340,-296 1111,-1269 1490,-1609 59,-53 97,-104 152,-165l599 -646c201,-209 376,-432 575,-647l1197 -1292c112,-125 478,-544 605,-639 175,132 1003,1124 1183,1281 314,271 575,661 882,949 260,244 466,567 727,812 265,248 502,539 747,815 61,69 89,82 150,142 246,243 832,977 1053,1143l4622 -5175 3396 3877c264,296 887,1104 1145,1298 156,-117 293,-322 431,-472 63,-67 99,-84 162,-154 202,-224 386,-434 587,-659l598 -646c174,-195 413,-499 593,-653 303,-259 578,-674 870,-962l1047 -1125c151,-150 290,-374 455,-497l11 11 0 -934 -11 -8c-220,165 -509,575 -730,783 -162,152 -302,336 -450,503l-299 310c-201,199 -388,433 -576,647 -65,73 -96,91 -161,155l-737 801c-203,200 -388,444 -587,659l-1203 1285c-208,-156 -1934,-2184 -2273,-2565 -194,-217 -371,-416 -565,-633l-564 -659c-215,-242 -976,-1150 -1156,-1286l-1560 1764c-602,595 -1313,1448 -1888,2094 -215,241 -977,1150 -1157,1285 -151,-113 -714,-763 -880,-950l-311 -322c-197,-223 -379,-424 -576,-647l-1784 -1925c-240,-270 -470,-567 -734,-804 -60,-53 -97,-103 -152,-165 -93,-104 -204,-254 -305,-330l-444 459c-55,62 -94,106 -149,168 -102,114 -186,209 -288,323l-311 323c-341,387 -981,1117 -1334,1449 -55,52 -99,108 -151,166 -101,114 -186,209 -287,323l-299 312c-208,195 -394,444 -587,658l-312 323c-191,214 -378,469 -604,639 -154,-116 -293,-328 -441,-461 -214,-192 -535,-594 -739,-824l-1025 -1124c-302,-300 -588,-634 -874,-957 -64,-73 -99,-90 -162,-155l-897 -982c-122,-126 -507,-540 -582,-665l-11 8 0 983z"/>
  <path class="fil1" d="M0 22583l11 -9c136,102 443,484 582,640 50,56 86,102 138,155l1485 1615c66,75 90,90 160,156 185,174 400,445 577,645l1484 1615c98,110 203,231 317,317 83,-140 449,-526 579,-642 241,-217 487,-578 737,-802 213,-191 396,-439 589,-656 64,-73 99,-90 162,-155 105,-109 196,-221 299,-336 99,-111 185,-218 287,-323l1488 -1613c209,-187 381,-476 602,-642 120,91 1225,1348 1467,1609l311 323c200,224 376,451 596,649 240,215 482,556 716,798l1652 1790 3459 -3896c219,-245 986,-1162 1169,-1299 90,68 200,208 282,303l990 1138c58,67 68,101 126,169 278,324 600,633 863,968 54,68 65,100 127,168 243,272 649,687 851,957 286,384 768,820 997,1156 82,121 206,218 276,336 262,-197 660,-702 892,-963 109,-123 203,-201 311,-323 241,-272 469,-560 725,-814 471,-465 1206,-1302 1646,-1796l1192 -1299c3,3 7,6 11,10l0 -931 -11 -9 -869 963c-67,75 -91,90 -161,156l-1635 1782c-106,118 -194,217 -300,336l-598 646c-211,237 -1084,1196 -1203,1286 -117,-196 -1670,-1917 -1974,-2255l-276 -336c-386,-433 -755,-847 -1140,-1279 -263,-296 -887,-1105 -1145,-1299l-4599 5175 -2221 -2429c-65,-74 -97,-91 -162,-155 -244,-242 -462,-563 -715,-800l-1650 -1791c-159,119 -418,471 -581,640l-300 310c-145,163 -281,342 -438,490 -303,284 -1042,1118 -1346,1461l-748 814c-65,74 -97,91 -161,155 -197,195 -398,445 -587,659l-605 640c-302,-295 -578,-650 -869,-964l-311 -322c-200,-225 -383,-440 -586,-660l-887 -968c-62,-71 -84,-82 -149,-144 -238,-223 -513,-572 -738,-825l-598 -646c-102,-114 -186,-209 -288,-323l-305 -306 0 980z"/>
  <path class="fil1" d="M0 6573c127,-60 476,-504 581,-623l3109 -3385c55,-57 95,-107 149,-168l892 -989c159,120 418,471 581,640 59,62 91,75 150,142 56,61 94,106 150,168 145,163 281,342 438,490 303,284 1042,1118 1346,1461l748 815c65,73 96,91 161,155 197,194 397,445 587,659l605 639c132,-100 445,-486 581,-640l2532 -2739c55,-54 97,-109 150,-168l1186 -1305c97,-110 202,-231 316,-317l4587 5163c108,-80 1037,-1127 1136,-1271 149,-217 380,-444 556,-642 236,-264 786,-839 989,-1112 218,-293 474,-555 715,-826 209,-235 981,-1054 1134,-1312 186,140 693,757 880,951l910 968c179,203 401,482 588,658 261,245 476,556 737,801l1651 1791c3,-2 7,-6 11,-9l0 -930 -11 9 -1629 -1790c-62,-68 -99,-85 -162,-154 -292,-325 -578,-666 -886,-970 -312,-309 -569,-693 -895,-985 -304,-271 -575,-693 -879,-978 -103,-97 -203,-233 -315,-318l-259 330c-286,320 -594,633 -853,981 -291,391 -675,739 -977,1125 -265,337 -571,636 -853,956 -62,70 -77,111 -137,182 -278,324 -600,633 -863,968 -159,203 -378,508 -570,653l-4622 -5175c-170,129 -997,1054 -1197,1279 -394,442 -780,849 -1174,1292l-2377 2578c-187,-141 -943,-1065 -1188,-1277 -178,-155 -423,-465 -591,-655l-2072 -2248c-265,-298 -701,-669 -892,-989 -59,45 -90,90 -143,149 -63,71 -100,87 -162,154 -246,265 -482,551 -737,802 -364,360 -1160,1333 -1474,1627 -70,66 -94,81 -160,156l-887 969c-101,114 -186,209 -287,323 -56,63 -94,106 -150,169l-449 477c-78,89 -199,271 -305,313l0 982z"/>
  <path class="fil1" d="M2390 6171c224,-210 570,-616 781,-854 138,-154 264,-270 403,-426l1157 -1286 2366 2565c216,243 554,670 788,846 -69,117 -283,331 -386,446l-1176 1290c-263,235 -536,581 -780,855 -66,74 -128,153 -197,219 -197,185 -491,552 -592,628 -163,-123 -1467,-1579 -1767,-1919 -77,-88 -134,-125 -208,-207 -132,-147 -247,-278 -379,-426l-777 -860 767 -871zm-2171 845c97,164 408,466 558,614 189,188 381,428 564,633l1968 2158c106,119 195,192 300,310l701 789c60,65 91,77 151,141 99,108 183,235 293,317l4512 -4910 -1111 -1259c-66,-61 -87,-72 -149,-143 -51,-58 -87,-97 -138,-155l-553 -620c-343,-339 -520,-574 -851,-931 -60,-65 -91,-77 -151,-141l-989 -1086c-137,-154 -436,-526 -570,-627 -108,33 -575,613 -707,757l-3828 4153z"/>
  <path class="fil1" d="M0 10672l11 -12 974 1078c89,83 125,116 206,208 133,149 248,278 380,426 71,80 125,140 196,220 76,87 132,121 207,206 133,150 248,279 380,427l789 847 -1963 2164c-117,131 -261,315 -382,424 -150,134 -265,276 -401,429 -100,113 -284,343 -386,420l-11 -13 0 1529c238,-187 711,-776 972,-1058 60,-65 91,-77 151,-141l978 -1073c55,-57 95,-108 149,-168 190,-213 363,-407 553,-620 51,-58 86,-99 138,-156 60,-66 91,-80 150,-141 316,-329 611,-692 990,-1086 147,-152 265,-325 443,-459 -85,-141 -414,-513 -535,-640l-2844 -3088c-193,-217 -369,-418 -563,-633 -125,-139 -457,-436 -571,-626l-11 8 0 1528z"/>
  <path class="fil1" d="M17503 12153c71,-73 126,-142 195,-220l1169 -1273c170,128 560,663 782,853 208,178 572,664 891,964 165,154 1355,1517 1458,1595 -112,187 -513,587 -697,769 -35,35 -57,64 -92,103 -260,293 -505,580 -771,866l-1571 1699 -1387 -1519c-78,-87 -111,-116 -195,-195l-772 -865c-74,-82 -130,-118 -208,-206 -127,-144 -509,-551 -569,-652l1767 -1919zm-3172 1893c70,116 2089,2304 2538,2810 102,115 188,184 288,297l1140 1254c189,212 373,434 570,626 129,-97 527,-582 696,-769l1554 -1692c410,-460 1114,-1258 1554,-1693l708 -782c-104,-174 -2494,-2735 -2815,-3094 -167,-189 -392,-475 -566,-631 -208,-186 -373,-398 -562,-610 -89,-100 -183,-220 -277,-309 -109,-102 -216,-189 -292,-317 -132,98 -424,462 -559,613 -191,215 -372,392 -564,608 -188,211 -360,413 -552,620l-852 930c-101,115 -186,183 -288,297l-1721 1842z"/>
  <path class="fil1" d="M6343 28130c157,-93 281,-277 408,-420l783 -853c132,-148 248,-278 380,-426l1381 -1499c66,-74 129,-130 179,-213 103,78 294,317 397,433l794 866c132,148 247,279 379,426 74,82 131,119 208,207l576 646c159,179 677,693 777,859l1381 0c-80,-135 -520,-597 -685,-782l-2686 -2928c-195,-170 -384,-414 -560,-612 -88,-99 -187,-225 -279,-308 -108,-97 -207,-234 -302,-306 -154,116 -401,451 -558,614l-841 917c-101,115 -186,183 -288,297l-1128 1241c-161,181 -385,467 -556,616 -350,303 -635,745 -994,1055 -63,55 -107,102 -148,170 4,6 10,14 19,26l1385 0 -22 -26z"/>
  <path class="fil1" d="M13013 18975c75,-85 131,-119 208,-206 66,-76 117,-132 184,-207 136,-153 255,-287 391,-440l397 -407c148,112 447,517 595,650 159,143 432,464 585,636l392 413c180,194 633,737 776,860 223,191 616,727 783,853l-1179 1312c-74,82 -131,118 -208,206l-1744 1919c-159,-120 -559,-658 -796,-864 -191,-166 -705,-817 -881,-975 -197,-176 -493,-532 -677,-739 -67,-75 -126,-150 -196,-219l-207 -207c-101,-114 -305,-318 -374,-433l1951 -2152zm-3355 2126l1536 1713c60,64 91,76 151,141 195,211 371,417 563,633 192,215 373,392 564,608 193,216 368,422 564,633l288 297c131,147 737,838 869,937 186,-140 931,-1032 1123,-1221 384,-380 646,-729 978,-1073 59,-61 90,-75 150,-141l828 -932c60,-64 91,-76 150,-141l979 -1073c80,-83 227,-238 281,-329 -35,-149 -948,-1078 -1110,-1260 -190,-213 -363,-407 -553,-620l-1843 -2015c-247,-232 -472,-507 -701,-764 -49,-55 -87,-104 -138,-154 -42,-42 -126,-119 -167,-149l-1675 1841c-175,197 -382,461 -565,632 -65,61 -87,73 -149,143 -51,58 -86,97 -138,155 -174,197 -527,611 -699,765 -56,50 -90,95 -141,153l-690 775c-93,97 -400,361 -455,446z"/>
  <path class="fil1" d="M1623 21127c61,-102 301,-362 391,-440 143,-122 256,-274 386,-420l1369 -1512c72,-79 123,-110 197,-193l765 -847c127,38 672,741 802,857 260,232 539,584 780,856 76,85 132,119 208,206l1364 1519c-190,143 -786,861 -1111,1182 -289,287 -618,737 -977,1074 -227,213 -817,968 -1066,1155 -103,-172 -612,-674 -777,-859 -136,-153 -255,-287 -391,-440 -71,-79 -125,-140 -196,-220 -73,-83 -125,-114 -196,-193 -259,-288 -505,-591 -771,-866 -210,-218 -648,-642 -777,-859zm-1404 -26c88,148 412,476 546,627l576 620c178,200 522,605 700,765 55,49 89,95 140,152 102,114 187,209 288,323l415 465c312,309 1764,1947 1847,2010 103,-31 1098,-1168 1145,-1221l1128 -1241c62,-70 81,-85 148,-145l417 -462c192,-216 361,-433 573,-623l1124 -1244c-131,-99 -423,-463 -558,-614l-288 -297c-102,-105 -188,-212 -287,-323l-2264 -2473c-250,-216 -627,-738 -839,-919 -108,-93 -194,-232 -299,-310 -72,121 -176,213 -280,306l-1671 1845c-105,118 -194,192 -299,310l-2262 2449z"/>
  <path class="fil1" d="M25014 14072c106,-80 208,-237 306,-329 308,-289 586,-639 873,-958 74,-82 130,-118 208,-206l773 -863c268,-240 636,-729 971,-1056l11 13 0 -1528c-183,155 -1130,1256 -1251,1364 -173,155 -525,569 -700,765l-299 310c-186,184 -373,419 -553,620l-1277 1384c-54,51 -87,99 -138,155 -73,79 -253,222 -306,303 34,141 434,499 547,626l1140 1254c192,216 361,433 573,623l1844 2013c124,123 294,361 420,462l0 -1527 -397 -408c-136,-153 -255,-287 -391,-440l-403 -426c-132,-149 -248,-278 -380,-426 -268,-301 -527,-566 -794,-866 -137,-153 -256,-286 -392,-440 -121,-137 -295,-267 -385,-419z"/>
  <path class="fil1" d="M25813 27270c51,-55 64,-56 115,-104 37,-34 59,-63 93,-102l2135 -2333 0 -1502 -11 -9 -2815 3069c-230,258 -453,531 -701,763 -183,172 -584,686 -845,912 -72,62 -104,87 -152,166 5,8 11,17 17,26l1388 0 776 -886z"/>
  <path class="fil1" d="M15736 28156c60,-102 300,-362 391,-439 210,-180 711,-821 894,-986 46,-41 55,-42 102,-93l1744 -1919c103,174 264,282 397,433l2734 3004 1381 0 -2251 -2461c-190,-198 -367,-413 -552,-621 -52,-58 -86,-97 -138,-155l-438 -465c-188,-212 -353,-424 -561,-610 -185,-165 -393,-489 -572,-624 -100,75 -177,197 -290,295l-832 927c-60,64 -91,76 -151,141 -52,56 -86,98 -137,155l-553 621c-105,118 -195,192 -299,310 -190,213 -363,407 -553,620l-1416 1537c-61,61 -87,74 -149,143 -65,72 -111,86 -156,161l24 26 1381 0z"/>
  <path class="fil1" d="M22314 18975c77,-88 134,-124 208,-206 288,-320 563,-666 873,-958 46,-44 50,-58 99,-96l3131 3412 -1295 1415c-36,35 -58,64 -92,103l-1744 1919c-159,-120 -559,-658 -796,-864l-775 -861c-77,-87 -132,-121 -208,-207l-575 -646c-184,-207 -675,-688 -777,-859l1951 -2152zm-3355 2126l1536 1713c60,64 91,76 151,141 195,211 371,417 563,633 192,215 373,392 564,608 193,216 368,422 564,633l996 1079c63,54 98,108 161,155 186,-140 931,-1032 1123,-1221l978 -1073c375,-390 674,-758 989,-1086 59,-61 91,-74 151,-141 51,-57 86,-98 138,-155 189,-213 362,-408 552,-621l581 -613c-73,-124 -650,-742 -823,-937 -104,-118 -193,-192 -299,-310 -189,-214 -363,-407 -552,-621l-993 -1082c-178,-160 -532,-577 -711,-778l-576 -621c-146,-164 -416,-489 -581,-613l-411 469c-66,59 -85,74 -147,144 -189,215 -363,408 -553,621l-1129 1239c-65,61 -87,73 -149,143 -190,216 -664,765 -837,920 -140,125 -634,723 -831,928l-300 285c-38,39 -134,128 -155,161z"/>
  <path class="fil1" d="M6366 13c2,-4 5,-8 8,-13l-1401 0 950 1079c64,64 96,81 161,155l2831 3101c101,113 484,585 582,614 131,-99 423,-463 558,-614 50,-56 86,-102 138,-155 59,-61 90,-75 150,-141l1818 -2017c60,-65 91,-77 151,-141l978 -1073c181,-189 363,-434 561,-610 58,-52 114,-97 135,-185l-8 -13 -1385 0 12 13c-112,188 -513,587 -697,769 -291,288 -589,710 -977,1073l-864 969c-74,82 -131,118 -208,206 -98,112 -286,345 -385,420 -62,-104 -608,-669 -777,-859l-1463 -1614c-47,-44 -56,-43 -103,-91l-765 -873z"/>
  <path class="fil1" d="M25037 13l7 -13 -1403 0c136,183 1469,1633 1666,1854 49,55 87,105 138,155 440,435 1156,1246 1566,1706 92,104 180,215 276,310 262,258 759,850 858,924 3,-1 7,-3 11,-5l0 -1506 -11 12c-88,-148 -594,-654 -777,-859 -231,-259 -447,-523 -690,-751 -191,-179 -681,-801 -868,-963 -124,-108 -701,-743 -773,-864z"/>
  <path class="fil1" d="M15736 13l8 -13 -1405 0c134,216 381,416 551,600 196,212 371,418 564,634 191,215 372,392 564,607 192,216 367,422 563,634l841 917c105,119 195,192 299,310 193,218 371,416 564,633l582 614 1122 -1221c385,-380 646,-728 978,-1073 375,-389 675,-758 990,-1085l1266 -1370c50,-56 125,-115 156,-161 -7,-12 -16,-25 -26,-39l-1363 0 8 13 -777 859c-136,152 -254,291 -391,440l-208 206c-67,76 -117,132 -184,207 -136,153 -255,287 -392,439l-391 414c-135,153 -255,287 -391,439 -101,113 -306,319 -374,433 -237,-178 -582,-614 -800,-859 -139,-156 -265,-271 -403,-427l-1174 -1292c-133,-149 -255,-298 -391,-439 -50,-52 -67,-55 -116,-104l-270 -316z"/>
  <path class="fil1" d="M0 24731l1571 1700c230,258 447,523 690,751 219,205 685,831 882,948 -4,7 -10,16 -18,26l1399 0c-210,-158 -815,-963 -1119,-1225l-2824 -3084c-136,-154 -436,-527 -570,-627 -3,2 -7,5 -11,8l0 1503z"/>
  <path class="fil1" d="M7730 12579c66,-65 120,-135 184,-207l587 -659c72,-82 123,-111 196,-193l777 -860 1191 1299c75,85 131,119 207,206l1359 1500c76,85 354,350 374,432l-973 1080c-73,82 -130,118 -207,206l-771 866c-76,85 -131,119 -208,206 -247,281 -752,888 -972,1054l-789 -872c-139,-156 -264,-271 -403,-427l-680 -761c-342,-321 -560,-632 -874,-958l-207 -206c-66,-74 -129,-131 -178,-213l1387 -1493zm-2792 1467c132,221 385,425 559,613 196,212 371,418 564,634 195,219 380,400 575,620 189,212 370,432 564,633l288 297c175,196 527,611 700,765 59,53 97,104 152,166l1134 1259c104,-78 188,-200 281,-304l3108 -3385c245,-242 633,-745 837,-922 81,-70 234,-238 286,-325l-1939 -2164c-60,-67 -92,-81 -151,-142l-851 -930c-278,-289 -544,-644 -851,-932 -52,-49 -91,-99 -139,-154 -137,-154 -469,-489 -558,-639 -125,93 -1012,1098 -1134,1234 -60,67 -91,80 -150,141l-691 776c-105,119 -196,193 -299,310l-1128 1241c-271,304 -873,994 -1157,1208z"/>
  <path class="fil1" d="M21152 6170c240,-271 522,-624 780,-855 124,-112 274,-303 394,-437 132,-148 248,-277 379,-427 78,-87 134,-124 208,-206 130,-144 486,-569 581,-640l3131 3411c-64,107 -671,786 -779,883 -263,235 -536,581 -781,855l-403 427c-77,87 -1063,1194 -1168,1273 -80,-61 -127,-142 -204,-211 -175,-157 -1525,-1663 -1758,-1928 -77,-87 -133,-121 -208,-206l-961 -1067 789 -872zm-2193 846l2100 2320c63,65 98,82 162,155l1128 1240c183,206 374,446 564,633l581 614c154,-115 401,-450 558,-614 59,-61 91,-75 150,-141l828 -932c60,-64 91,-76 151,-141 196,-211 371,-417 563,-633l565 -608c189,-213 362,-407 552,-620 276,-310 972,-995 1122,-1247 -98,-164 -970,-1102 -1099,-1247l-978 -1072c-62,-65 -98,-82 -162,-155l-2250 -2462c-210,125 -699,792 -993,1056 -139,125 -633,723 -831,928 -59,61 -91,75 -151,141l-1415 1564c-95,107 -178,209 -276,311l-869 910z"/>
  <path class="fil1" d="M11062 7042c83,-139 1548,-1709 1569,-1727l774 -864c77,-87 133,-124 207,-206 130,-144 487,-569 581,-640l1560 1712c129,145 258,307 391,439l783 854c77,87 134,124 208,206 66,73 115,145 189,200 -64,107 -671,786 -779,883 -263,235 -536,581 -781,855 -65,74 -127,154 -196,219 -346,324 -682,780 -978,1073l-207 207c-65,74 -116,145 -190,201 -79,-60 -127,-140 -201,-213l-1761 -1926c-77,-87 -132,-121 -208,-206l-961 -1067zm-1404 -26l1269 1392c56,50 90,95 141,153l1980 2170c174,196 1028,1159 1145,1247 154,-115 401,-450 558,-614l2958 -3243c60,-65 91,-77 151,-141l845 -938c-113,-190 -439,-479 -558,-613l-2820 -3089c-189,-212 -354,-423 -562,-610 -185,-165 -392,-489 -572,-624 -210,125 -699,792 -993,1056 -139,125 -633,723 -831,928l-1566 1705c-95,107 -178,209 -276,311l-715 748c-75,71 -97,67 -154,162z"/>
  <path class="fil1" d="M3135 0c-162,260 -558,606 -770,846 -260,296 -507,574 -770,867 -74,82 -131,118 -208,206l-771 866c-128,144 -465,444 -581,639 -12,-8 -23,-17 -35,-27l0 1539 11 13c130,-97 528,-582 696,-769l1555 -1693c378,-424 749,-815 1128,-1240 98,-110 178,-200 276,-311l288 -296c98,-110 179,-201 276,-310l294 -317 -12 -13 -1377 0z"/>
  <path class="fil0" d="M21498 28156c-118,-172 -485,-544 -634,-691 -270,-267 -552,-631 -817,-918l-507 -542c-113,-127 -209,-235 -322,-362l-351 -356c-139,83 -1641,1781 -1998,2152l-627 717 5256 0z"/>
  <path class="fil0" d="M2106 21153c110,82 505,566 651,717 65,68 105,91 173,168l1801 1983c133,-100 229,-218 340,-342l483 -543c67,-76 108,-97 173,-167l1473 -1629c79,-82 116,-82 179,-187 -67,-113 -1535,-1709 -1790,-1997 -67,-76 -108,-96 -174,-167 -131,-142 -563,-657 -661,-731 -196,148 -1558,1695 -1997,2151l-651 744z"/>
  <path class="fil0" d="M0 2872c4,4 8,7 11,10 107,-80 230,-247 328,-356l817 -892c69,-74 115,-100 185,-180l657 -736c139,-129 559,-577 653,-718l-2651 0 0 2872z"/>
  <path class="fil0" d="M6849 39l1974 2151c107,120 212,252 323,362l351 355 1963 -2163c143,-134 587,-607 661,-731l-12 -13 -5248 0c-4,12 -9,25 -12,39z"/>
  <path class="fil0" d="M16219 39c118,88 218,242 328,355l2320 2513 1478 -1622c66,-73 108,-94 174,-167l657 -736c124,-116 251,-223 338,-369 -4,-3 -9,-7 -15,-13l-5246 0 -34 39z"/>
  <path class="fil0" d="M28156 25271l-11 -9c-68,112 -222,262 -317,368 -117,131 -220,220 -334,349 -286,323 -528,608 -828,905l-806 904c-88,98 -250,217 -340,368l2636 0 0 -2885z"/>
  <path class="fil0" d="M2106 7042c88,146 481,527 651,717l1974 2152c99,-30 1128,-1205 1341,-1415 218,-216 433,-490 644,-724 195,-216 517,-486 663,-730l-2625 -2894c-94,70 -371,406 -489,537 -65,72 -108,94 -173,167 -225,249 -432,485 -656,737l-1330 1453z"/>
  <path class="fil0" d="M25520 14097c62,104 233,285 322,362l1481 1621c310,291 546,657 833,877l0 -5745c-191,154 -810,874 -972,1057l-1003 1097c-143,134 -587,607 -661,731z"/>
  <path class="fil0" d="M12112 28156c4,-9 7,-18 9,-26 -88,-26 -265,-259 -339,-342l-1473 -1629c-68,-75 -108,-96 -174,-167 -131,-142 -563,-657 -661,-730 -88,147 -483,528 -651,717l-1974 2177 5263 0z"/>
  <path class="fil0" d="M16219 14072c80,133 1739,1913 1974,2177 59,66 101,117 161,181l513 536c113,-85 993,-1084 1145,-1247l506 -543c107,-119 223,-268 335,-373 143,-134 587,-607 661,-731 -118,-71 -1214,-1298 -1329,-1428l-484 -543c-69,-79 -103,-100 -172,-168 -165,-163 -538,-636 -662,-730 -115,86 -1353,1491 -1479,1622 -66,68 -106,91 -173,167 -113,128 -210,236 -323,362 -113,127 -209,235 -322,362l-351 356z"/>
  <path class="fil0" d="M11546 21127c115,194 514,563 650,717 190,214 465,561 662,730 197,169 471,516 661,730l674 717 1986 -2164c103,-116 215,-259 323,-361 124,-116 252,-223 339,-369 -125,-94 -853,-919 -985,-1066 -119,-135 -225,-227 -345,-362 -286,-322 -517,-596 -817,-892 -146,-144 -363,-446 -501,-549l-662 704c-113,127 -209,235 -322,362 -121,135 -227,228 -345,362 -220,248 -425,475 -645,724 -114,129 -217,217 -334,348 -95,107 -240,294 -339,369z"/>
  <path class="fil0" d="M25520 13c62,104 1105,1228 1307,1454 213,239 1256,1338 1318,1440l11 -9 0 -2898 -2624 0 -12 13z"/>
  <path class="fil0" d="M6849 14097l2625 2869c210,-158 471,-491 661,-704l1986 -2165 -1306 -1454c-65,-71 -106,-91 -173,-167l-810 -900c-108,-94 -265,-255 -335,-373 -294,221 -1533,1718 -1997,2153 -106,99 -589,637 -651,741z"/>
  <path class="fil0" d="M2636 28156c-80,-133 -497,-545 -650,-717 -223,-250 -420,-507 -666,-726l-1320 -1439 0 2882 2636 0z"/>
  <path class="fil0" d="M20847 7016c34,146 221,269 316,368l1980 2171c112,126 217,255 351,356l2625 -2869c-68,-112 -222,-262 -317,-368 -59,-67 -101,-114 -161,-181 -67,-76 -108,-97 -173,-167l-817 -918c-69,-68 -104,-90 -173,-168l-823 -911c-71,-61 -114,-128 -184,-181l-2435 2694c-60,68 -100,148 -189,174z"/>
  <path class="fil0" d="M20847 21127l477 549c67,76 108,97 173,167l1997 2178 650 -717c66,-73 108,-95 174,-167 59,-66 101,-115 160,-182l1664 -1828c-167,-126 -1841,-2017 -2147,-2320 -59,-58 -105,-117 -161,-181 -95,-106 -240,-293 -340,-368l-984 1066c-121,135 -227,228 -345,362 -221,248 -425,475 -645,724l-673 717z"/>
  <path class="fil0" d="M11546 7042l2296 2513c59,67 101,117 161,182 45,49 143,139 190,174l2625 -2869c-133,-222 -466,-517 -651,-716l-817 -918c-269,-266 -1019,-1139 -1180,-1260 -111,185 -759,839 -973,1079 -116,131 -216,243 -333,375 -107,120 -212,251 -323,361 -69,69 -103,90 -173,168l-822 911z"/>
  <path class="fil0" d="M0 16954l11 12 2124 -2320c112,-127 382,-349 501,-549l-2625 -2894c-3,3 -7,6 -11,9l0 5742z"/>
  <path class="fil0" d="M20847 7016c89,-26 129,-106 189,-174l2435 -2694c70,53 113,120 184,181l823 911c69,78 104,100 173,168l817 918c65,70 106,91 173,167 60,67 102,114 161,181 95,106 249,256 317,368l-2625 2869c-134,-101 -239,-230 -351,-356l-1980 -2171c-95,-99 -282,-222 -316,-368zm-484 26l961 1067c75,85 131,119 208,206 233,265 1583,1771 1758,1928 77,69 124,150 204,211 105,-79 1091,-1186 1168,-1273l403 -427c245,-274 518,-620 781,-855 108,-97 715,-776 779,-883l-3131 -3411c-95,71 -451,496 -581,640 -74,82 -130,119 -208,206 -131,150 -247,279 -379,427 -120,134 -270,325 -394,437 -258,231 -540,584 -780,855l-789 872z"/>
  <path class="fil0" d="M28156 2898l-11 9c-62,-102 -1105,-1201 -1318,-1440 -202,-226 -1245,-1350 -1307,-1454l12 -13 -488 0 -7 13c72,121 649,756 773,864 187,162 677,784 868,963 243,228 459,492 690,751 183,205 689,711 777,859l11 -12 0 -540z"/>
  <path class="fil0" d="M12368 6131c70,-78 104,-99 173,-168 111,-110 216,-241 323,-361 117,-132 217,-244 333,-375 214,-240 862,-894 973,-1079 161,121 911,994 1180,1260l817 918c185,199 518,494 651,716l-2625 2869c-47,-35 -145,-125 -190,-174 -60,-65 -102,-115 -161,-182l-2296 -2513 822 -911zm-1306 911l961 1067c76,85 131,119 208,206l1761 1926c74,73 122,153 201,213 74,-56 125,-127 190,-201l207 -207c296,-293 632,-749 978,-1073 69,-65 131,-145 196,-219 245,-274 518,-620 781,-855 108,-97 715,-776 779,-883 -74,-55 -123,-127 -189,-200 -74,-82 -131,-119 -208,-206l-783 -854c-133,-132 -262,-294 -391,-439l-1560 -1712c-94,71 -451,496 -581,640 -74,82 -130,119 -207,206l-774 864c-21,18 -1486,1588 -1569,1727z"/>
  <path class="fil0" d="M0 11212c4,-3 8,-6 11,-9l2625 2894c-119,200 -389,422 -501,549l-2124 2320 -11 -12 0 542 11 13c102,-77 286,-307 386,-420 136,-153 251,-295 401,-429 121,-109 265,-293 382,-424l1963 -2164 -789 -847c-132,-148 -247,-277 -380,-427 -75,-85 -131,-119 -207,-206 -71,-80 -125,-140 -196,-220 -132,-148 -247,-277 -380,-426 -81,-92 -117,-125 -206,-208l-974 -1078 -11 12 0 540z"/>
  <path class="fil0" d="M0 25274l1320 1439c246,219 443,476 666,726 153,172 570,584 650,717l489 0c8,-10 14,-19 18,-26 -197,-117 -663,-743 -882,-948 -243,-228 -460,-493 -690,-751l-1571 -1700 0 543z"/>
  <path class="fil0" d="M21520 20410c220,-249 424,-476 645,-724 118,-134 224,-227 345,-362l984 -1066c100,75 245,262 340,368 56,64 102,123 161,181 306,303 1980,2194 2147,2320l-1664 1828c-59,67 -101,116 -160,182 -66,72 -108,94 -174,167l-650 717 -1997 -2178c-65,-70 -106,-91 -173,-167l-477 -549 673 -717zm-1157 717c102,171 593,652 777,859l575 646c76,86 131,120 208,207l775 861c237,206 637,744 796,864l1744 -1919c34,-39 56,-68 92,-103l1295 -1415 -3131 -3412c-49,38 -53,52 -99,96 -310,292 -585,638 -873,958 -74,82 -131,118 -208,206l-1951 2152z"/>
  <path class="fil0" d="M6849 14097c62,-104 545,-642 651,-741 464,-435 1703,-1932 1997,-2153 70,118 227,279 335,373l810 900c67,76 108,96 173,167l1306 1454 -1986 2165c-190,213 -451,546 -661,704l-2625 -2869zm-506 -25c49,82 112,139 178,213l207 206c314,326 532,637 874,958l680 761c139,156 264,271 403,427l789 872c220,-166 725,-773 972,-1054 77,-87 132,-121 208,-206l771 -866c77,-88 134,-124 207,-206l973 -1080c-20,-82 -298,-347 -374,-432l-1359 -1500c-76,-87 -132,-121 -207,-206l-1191 -1299 -777 860c-73,82 -124,111 -196,193l-587 659c-64,72 -118,142 -184,207l-1387 1493z"/>
  <path class="fil0" d="M8823 25979c168,-189 563,-570 651,-717 98,73 530,588 661,730 66,71 106,92 174,167l1473 1629c74,83 251,316 339,342 -2,8 -5,17 -9,26l493 0c-100,-166 -618,-680 -777,-859l-576 -646c-77,-88 -134,-125 -208,-207 -132,-147 -247,-278 -379,-426l-794 -866c-103,-116 -294,-355 -397,-433 -50,83 -113,139 -179,213l-1381 1499c-132,148 -248,278 -380,426l-783 853c-127,143 -251,327 -408,420l22 26 484 0 1974 -2177z"/>
  <path class="fil0" d="M11546 21127c99,-75 244,-262 339,-369 117,-131 220,-219 334,-348 220,-249 425,-476 645,-724 118,-134 224,-227 345,-362 113,-127 209,-235 322,-362l662 -704c138,103 355,405 501,549 300,296 531,570 817,892 120,135 226,227 345,362 132,147 860,972 985,1066 -87,146 -215,253 -339,369 -108,102 -220,245 -323,361l-1986 2164 -674 -717c-190,-214 -464,-561 -661,-730 -197,-169 -472,-516 -662,-730 -136,-154 -535,-523 -650,-717zm-484 0c69,115 273,319 374,433l207 207c70,69 129,144 196,219 184,207 480,563 677,739 176,158 690,809 881,975 237,206 637,744 796,864l1744 -1919c77,-88 134,-124 208,-206l1179 -1312c-167,-126 -560,-662 -783,-853 -143,-123 -596,-666 -776,-860l-392 -413c-153,-172 -426,-493 -585,-636 -148,-133 -447,-538 -595,-650l-397 407c-136,153 -255,287 -391,440 -67,75 -118,131 -184,207 -77,87 -133,121 -208,206l-1951 2152z"/>
  <path class="fil0" d="M16570 13716c113,-127 209,-235 322,-362 113,-126 210,-234 323,-362 67,-76 107,-99 173,-167 126,-131 1364,-1536 1479,-1622 124,94 497,567 662,730 69,68 103,89 172,168l484 543c115,130 1211,1357 1329,1428 -74,124 -518,597 -661,731 -112,105 -228,254 -335,373l-506 543c-152,163 -1032,1162 -1145,1247l-513 -536c-60,-64 -102,-115 -161,-181 -235,-264 -1894,-2044 -1974,-2177l351 -356zm-834 356c60,101 442,508 569,652 78,88 134,124 208,206l772 865c84,79 117,108 195,195l1387 1519 1571 -1699c266,-286 511,-573 771,-866 35,-39 57,-68 92,-103 184,-182 585,-582 697,-769 -103,-78 -1293,-1441 -1458,-1595 -319,-300 -683,-786 -891,-964 -222,-190 -612,-725 -782,-853l-1169 1273c-69,78 -124,147 -195,220l-1767 1919z"/>
  <path class="fil0" d="M21499 0c6,6 11,10 15,13 -87,146 -214,253 -338,369l-657 736c-66,73 -108,94 -174,167l-1478 1622 -2320 -2513c-110,-113 -210,-267 -328,-355l34 -39 -509 0 -8 13 270 316c49,49 66,52 116,104 136,141 258,290 391,439l1174 1292c138,156 264,271 403,427 218,245 563,681 800,859 68,-114 273,-320 374,-433 136,-152 256,-286 391,-439l391 -414c137,-152 256,-286 392,-439 67,-75 117,-131 184,-207l208 -206c137,-149 255,-288 391,-440l777 -859 -8 -13 -491 0z"/>
  <path class="fil0" d="M3436 5589c224,-252 431,-488 656,-737 65,-73 108,-95 173,-167 118,-131 395,-467 489,-537l2625 2894c-146,244 -468,514 -663,730 -211,234 -426,508 -644,724 -213,210 -1242,1385 -1341,1415l-1974 -2152c-170,-190 -563,-571 -651,-717l1330 -1453zm-1813 1453l777 860c132,148 247,279 379,426 74,82 131,119 208,207 300,340 1604,1796 1767,1919 101,-76 395,-443 592,-628 69,-66 131,-145 197,-219 244,-274 517,-620 780,-855l1176 -1290c103,-115 317,-329 386,-446 -234,-176 -572,-603 -788,-846l-2366 -2565 -1157 1286c-139,156 -265,272 -403,426 -211,238 -557,644 -781,854l-767 871z"/>
  <path class="fil0" d="M2651 0c-94,141 -514,589 -653,718l-657 736c-70,80 -116,106 -185,180l-817 892c-98,109 -221,276 -328,356 -3,-3 -7,-6 -11,-10l0 525c12,10 23,19 35,27 116,-195 453,-495 581,-639l771 -866c77,-88 134,-124 208,-206 263,-293 510,-571 770,-867 212,-240 608,-586 770,-846l-484 0z"/>
  <path class="fil0" d="M6849 39c3,-14 8,-27 12,-39l-487 0c-3,5 -6,9 -8,13l765 873c47,48 56,47 103,91l1463 1614c169,190 715,755 777,859 99,-75 287,-308 385,-420 77,-88 134,-124 208,-206l864 -969c388,-363 686,-785 977,-1073 184,-182 585,-581 697,-769l-12 -13 -484 0 12 13c-74,124 -518,597 -661,731l-1963 2163 -351 -355c-111,-110 -216,-242 -323,-362l-1974 -2151z"/>
  <path class="fil0" d="M25520 14097c74,-124 518,-597 661,-731l1003 -1097c162,-183 781,-903 972,-1057l0 -539 -11 -13c-335,327 -703,816 -971,1056l-773 863c-78,88 -134,124 -208,206 -287,319 -565,669 -873,958 -98,92 -200,249 -306,329 90,152 264,282 385,419 136,154 255,287 392,440 267,300 526,565 794,866 132,148 248,277 380,426l403 426c136,153 255,287 391,440l397 408 0 -540c-287,-220 -523,-586 -833,-877l-1481 -1621c-89,-77 -260,-258 -322,-362z"/>
  <path class="fil0" d="M2757 20409c439,-456 1801,-2003 1997,-2151 98,74 530,589 661,731 66,71 107,91 174,167 255,288 1723,1884 1790,1997 -63,105 -100,105 -179,187l-1473 1629c-65,70 -106,91 -173,167l-483 543c-111,124 -207,242 -340,342l-1801 -1983c-68,-77 -108,-100 -173,-168 -146,-151 -541,-635 -651,-717l651 -744zm-1134 718c129,217 567,641 777,859 266,275 512,578 771,866 71,79 123,110 196,193 71,80 125,141 196,220 136,153 255,287 391,440 165,185 674,687 777,859 249,-187 839,-942 1066,-1155 359,-337 688,-787 977,-1074 325,-321 921,-1039 1111,-1182l-1364 -1519c-76,-87 -132,-121 -208,-206 -241,-272 -520,-624 -780,-856 -130,-116 -675,-819 -802,-857l-765 847c-74,83 -125,114 -197,193l-1369 1512c-130,146 -243,298 -386,420 -90,78 -330,338 -391,440z"/>
  <path class="fil0" d="M25520 28156c90,-151 252,-270 340,-368l806 -904c300,-297 542,-582 828,-905 114,-129 217,-218 334,-349 95,-106 249,-256 317,-368l11 9 0 -540 -2135 2333c-34,39 -56,68 -93,102 -51,48 -64,49 -115,104l-776 886 483 0z"/>
  <path class="fil0" d="M16869 27439c357,-371 1859,-2069 1998,-2152l351 356c113,127 209,235 322,362l507 542c265,287 547,651 817,918 149,147 516,519 634,691l500 0 -2734 -3004c-133,-151 -294,-259 -397,-433l-1744 1919c-47,51 -56,52 -102,93 -183,165 -684,806 -894,986 -91,77 -331,337 -391,439l506 0 627 -717z"/>
 </g>
</svg>
