<?xml version="1.0" encoding="UTF-8"?>
<!DOCTYPE svg PUBLIC "-//W3C//DTD SVG 1.1//EN" "http://www.w3.org/Graphics/SVG/1.1/DTD/svg11.dtd">
<!-- Creator: CorelDRAW X6 -->
<svg xmlns="http://www.w3.org/2000/svg" xml:space="preserve" width="200.79mm" height="200.843mm" version="1.1" style="shape-rendering:geometricPrecision; text-rendering:geometricPrecision; image-rendering:optimizeQuality; fill-rule:evenodd; clip-rule:evenodd"
     viewBox="0 0 20756 20762"
     xmlns:xlink="http://www.w3.org/1999/xlink">
 <defs>
  <style type="text/css">
   <![CDATA[
    .str0 {stroke:#fffef9;stroke-width:175.04}
    .fil1 {fill:none}
    .fil0 {fill:#fffef9}
   ]]>
  </style>
 </defs>
    <g id="Layer_x0020_1">
  <metadata id="CorelCorpID_0Corel-Layer"/>
        <path class="fil0" d="M2472 3370c444,-111 752,-419 889,-867 132,530 424,814 921,907 -488,127 -760,392 -885,830 -126,-524 -447,-782 -925,-870z"/>
        <path class="fil0" d="M5771 3370c445,-111 752,-419 889,-867 132,530 424,814 921,907 -488,127 -759,392 -884,830 -126,-524 -448,-782 -926,-870z"/>
        <path class="fil0" d="M9070 3370c445,-111 752,-419 889,-867 132,530 424,814 921,907 -488,127 -759,392 -884,830 -126,-524 -448,-782 -926,-870z"/>
        <path class="fil0" d="M12370 3370c444,-111 751,-419 888,-867 133,530 425,814 921,907 -488,127 -759,392 -884,830 -126,-524 -448,-782 -925,-870z"/>
        <path class="fil0" d="M15647 3370c445,-111 752,-419 889,-867 132,530 424,814 921,907 -488,127 -760,392 -885,830 -126,-524 -447,-782 -925,-870z"/>
        <path class="fil0" d="M18946 3370c445,-111 752,-419 889,-867 132,530 424,814 921,907 -488,127 -759,392 -884,830 -126,-524 -448,-782 -926,-870z"/>
        <path class="fil0" d="M2464 6674c445,-111 752,-418 889,-866 132,530 424,813 921,906 -488,128 -760,393 -885,830 -126,-523 -447,-782 -925,-870z"/>
        <path class="fil0" d="M5763 6674c445,-111 752,-418 889,-866 132,530 424,813 921,906 -488,128 -759,393 -884,830 -126,-523 -448,-782 -926,-870z"/>
        <path class="fil0" d="M9063 6674c444,-111 751,-418 888,-866 133,530 425,813 921,906 -488,128 -759,393 -884,830 -126,-523 -448,-782 -925,-870z"/>
        <path class="fil0" d="M12362 6674c444,-111 751,-418 888,-866 133,530 425,813 922,906 -489,128 -760,393 -885,830 -126,-523 -448,-782 -925,-870z"/>
        <path class="fil0" d="M15639 6674c445,-111 752,-418 889,-866 132,530 424,813 921,906 -488,128 -759,393 -885,830 -126,-523 -447,-782 -925,-870z"/>
        <path class="fil0" d="M18938 6674c445,-111 752,-418 889,-866 132,530 424,813 921,906 -488,128 -759,393 -884,830 -126,-523 -448,-782 -926,-870z"/>
        <path class="fil0" d="M2456 9979c445,-111 752,-419 889,-867 132,530 424,814 921,907 -488,127 -759,392 -885,829 -126,-523 -447,-782 -925,-869z"/>
        <path class="fil0" d="M5755 9979c445,-111 752,-419 889,-867 132,530 424,814 921,907 -488,127 -759,392 -884,829 -126,-523 -448,-782 -926,-869z"/>
        <path class="fil0" d="M9055 9979c444,-111 751,-419 888,-867 133,530 425,814 921,907 -488,127 -759,392 -884,829 -126,-523 -448,-782 -925,-869z"/>
        <path class="fil0" d="M12354 9979c444,-111 752,-419 888,-867 133,530 425,814 922,907 -488,127 -760,392 -885,829 -126,-523 -448,-782 -925,-869z"/>
        <path class="fil0" d="M15631 9979c445,-111 752,-419 889,-867 132,530 424,814 921,907 -488,127 -759,392 -884,829 -126,-523 -448,-782 -926,-869z"/>
        <path class="fil0" d="M18930 9979c445,-111 752,-419 889,-867 133,530 424,814 921,907 -488,127 -759,392 -884,829 -126,-523 -448,-782 -926,-869z"/>
        <path class="fil0" d="M2448 13283c445,-111 752,-418 889,-867 132,530 424,814 921,907 -488,128 -759,392 -884,830 -126,-524 -448,-782 -926,-870z"/>
        <path class="fil0" d="M5747 13283c445,-111 752,-418 889,-867 132,530 424,814 921,907 -488,128 -759,392 -884,830 -126,-524 -448,-782 -926,-870z"/>
        <path class="fil0" d="M9047 13283c444,-111 751,-418 888,-867 133,530 425,814 921,907 -488,128 -759,392 -884,830 -126,-524 -448,-782 -925,-870z"/>
        <path class="fil0" d="M12346 13283c445,-111 752,-418 889,-867 132,530 424,814 921,907 -488,128 -760,392 -885,830 -126,-524 -447,-782 -925,-870z"/>
        <path class="fil0" d="M15623 13283c445,-111 752,-418 889,-867 132,530 424,814 921,907 -488,128 -759,392 -884,830 -126,-524 -448,-782 -926,-870z"/>
        <path class="fil0" d="M18923 13283c444,-111 751,-418 888,-867 133,530 425,814 921,907 -488,128 -759,392 -884,830 -126,-524 -448,-782 -925,-870z"/>
        <path class="fil0" d="M2440 16587c445,-111 752,-418 889,-866 132,530 424,813 921,906 -488,128 -759,393 -884,830 -126,-523 -448,-782 -926,-870z"/>
        <path class="fil0" d="M5740 16587c444,-111 751,-418 888,-866 133,530 425,813 921,906 -488,128 -759,393 -884,830 -126,-523 -448,-782 -925,-870z"/>
        <path class="fil0" d="M9039 16587c444,-111 751,-418 888,-866 133,530 425,813 922,906 -489,128 -760,393 -885,830 -126,-523 -448,-782 -925,-870z"/>
        <path class="fil0" d="M12338 16587c445,-111 752,-418 889,-866 132,530 424,813 921,906 -488,128 -760,393 -885,830 -126,-523 -447,-782 -925,-870z"/>
        <path class="fil0" d="M15615 16587c445,-111 752,-418 889,-866 132,530 424,813 921,906 -488,128 -759,393 -884,830 -126,-523 -448,-782 -926,-870z"/>
        <path class="fil0" d="M18915 16587c444,-111 751,-418 888,-866 133,530 425,813 921,906 -488,128 -759,393 -884,830 -126,-523 -448,-782 -925,-870z"/>
        <path class="fil0" d="M2432 19892c445,-111 752,-419 889,-867 132,530 424,814 921,907 -488,127 -759,392 -884,830 -126,-524 -448,-782 -926,-870z"/>
        <path class="fil0" d="M5732 19892c444,-111 751,-419 888,-867 133,530 425,814 921,907 -488,127 -759,392 -884,830 -126,-524 -448,-782 -925,-870z"/>
        <path class="fil0" d="M9031 19892c444,-111 751,-419 888,-867 133,530 425,814 922,907 -488,127 -760,392 -885,830 -126,-524 -448,-782 -925,-870z"/>
        <path class="fil0" d="M12330 19892c445,-111 752,-419 889,-867 132,530 424,814 921,907 -488,127 -759,392 -885,830 -126,-524 -447,-782 -925,-870z"/>
        <path class="fil0" d="M15607 19892c445,-111 752,-419 889,-867 132,530 424,814 921,907 -488,127 -759,392 -884,830 -126,-524 -448,-782 -926,-870z"/>
        <path class="fil0" d="M18907 19892c444,-111 751,-419 888,-867 133,530 425,814 921,907 -488,127 -759,392 -884,830 -126,-524 -448,-782 -925,-870z"/>
        <path class="fil1 str0" d="M548 6237l0 0zm2368 -2387l0 0zm5 4l0 0zm-2377 2378l0 0zm47 -2335c654,-656 1693,-676 2325,-47l3 2 2 2c626,635 606,1678 -47,2334l-1 1 -1 1c-653,655 -1692,676 -2324,47l-2 -2 -2 -3c-627,-635 -606,-1678 47,-2335z"/>
        <path class="fil1 str0" d="M3844 6237l0 0zm2368 -2387l0 0zm4 4l0 0zm-2377 2378l0 0zm48 -2335c653,-656 1693,-676 2325,-47l2 2 2 2c627,635 606,1678 -46,2334l-1 1 -1 1c-654,655 -1692,676 -2324,47l-2 -2 -3 -3c-626,-635 -605,-1678 48,-2335z"/>
        <path class="fil1 str0" d="M7140 2933l0 0zm2368 -2387l0 0zm4 4l0 0zm-2377 2378l0 0zm48 -2335c653,-656 1692,-676 2325,-47l2 2 2 2c626,635 606,1678 -46,2334l-1 1 -1 1c-654,655 -1692,676 -2324,47l-3 -2 -2 -3c-626,-635 -606,-1678 48,-2335z"/>
        <path class="fil1 str0" d="M7140 6237l0 0zm2368 -2387l0 0zm4 4l0 0zm-2377 2378l0 0zm48 -2335c653,-656 1692,-676 2325,-47l2 2 2 2c626,635 606,1678 -46,2334l-1 1 -1 1c-654,655 -1692,676 -2324,47l-3 -2 -2 -3c-626,-635 -606,-1678 48,-2335z"/>
        <path class="fil1 str0" d="M10435 6237l0 0zm2368 -2387l0 0zm5 4l0 0zm-2377 2378l0 0zm47 -2335c654,-656 1693,-676 2325,-47l3 2 2 2c626,635 606,1678 -47,2334l-1 1 -1 1c-653,655 -1692,676 -2324,47l-2 -2 -2 -3c-627,-635 -606,-1678 47,-2335z"/>
        <path class="fil1 str0" d="M13731 6237l0 0zm2368 -2387l0 0zm5 4l0 0zm-2378 2378l0 0zm48 -2335c653,-656 1693,-676 2325,-47l2 2 3 2c626,635 605,1678 -47,2334l-1 1 -1 1c-654,655 -1692,676 -2324,47l-2 -2 -2 -3c-627,-635 -606,-1678 47,-2335z"/>
        <path class="fil1 str0" d="M17027 6237l0 0zm2368 -2387l0 0zm4 4l0 0zm-2377 2378l0 0zm48 -2335c653,-656 1692,-676 2325,-47l2 2 2 2c626,635 606,1678 -46,2334l-1 1 -1 1c-654,655 -1692,676 -2324,47l-3 -2 -2 -3c-626,-635 -606,-1678 48,-2335z"/>
        <path class="fil1 str0" d="M548 9541l0 0zm2368 -2387l0 0zm5 4l0 0zm-2377 2378l0 0zm47 -2334c654,-657 1693,-677 2325,-48l3 2 2 2c626,635 606,1678 -47,2334l-1 1 -1 1c-653,655 -1692,676 -2324,47l-2 -2 -2 -3c-627,-635 -606,-1678 47,-2334z"/>
        <path class="fil1 str0" d="M3844 9541l0 0zm2368 -2387l0 0zm4 4l0 0zm-2377 2378l0 0zm48 -2334c653,-657 1693,-677 2325,-48l2 2 2 2c627,635 606,1678 -46,2334l-1 1 -1 1c-654,655 -1692,676 -2324,47l-2 -2 -3 -3c-626,-635 -605,-1678 48,-2334z"/>
        <path class="fil1 str0" d="M7140 9541l0 0zm2368 -2387l0 0zm4 4l0 0zm-2377 2378l0 0zm48 -2334c653,-657 1692,-677 2325,-48l2 2 2 2c626,635 606,1678 -46,2334l-1 1 -1 1c-654,655 -1692,676 -2324,47l-3 -2 -2 -3c-626,-635 -606,-1678 48,-2334z"/>
        <path class="fil1 str0" d="M10435 9541l0 0zm2368 -2387l0 0zm5 4l0 0zm-2377 2378l0 0zm47 -2334c654,-657 1693,-677 2325,-48l3 2 2 2c626,635 606,1678 -47,2334l-1 1 -1 1c-653,655 -1692,676 -2324,47l-2 -2 -2 -3c-627,-635 -606,-1678 47,-2334z"/>
        <path class="fil1 str0" d="M13731 9541l0 0zm2368 -2387l0 0zm5 4l0 0zm-2378 2378l0 0zm48 -2334c653,-657 1693,-677 2325,-48l2 2 3 2c626,635 605,1678 -47,2334l-1 1 -1 1c-654,655 -1692,676 -2324,47l-2 -2 -2 -3c-627,-635 -606,-1678 47,-2334z"/>
        <path class="fil1 str0" d="M17027 9541l0 0zm2368 -2387l0 0zm4 4l0 0zm-2377 2378l0 0zm48 -2334c653,-657 1692,-677 2325,-48l2 2 2 2c626,635 606,1678 -46,2334l-1 1 -1 1c-654,655 -1692,676 -2324,47l-3 -2 -2 -3c-626,-635 -606,-1678 48,-2334z"/>
        <path class="fil1 str0" d="M548 12845l0 0zm2368 -2387l0 0zm5 5l0 0zm-2377 2378l0 0zm47 -2335c654,-657 1693,-677 2325,-48l3 2 2 3c626,634 606,1677 -47,2333l-1 1 -1 1c-653,656 -1692,676 -2324,47l-2 -2 -2 -2c-627,-635 -606,-1679 47,-2335z"/>
        <path class="fil1 str0" d="M3844 12845l0 0zm2368 -2387l0 0zm4 5l0 0zm-2377 2378l0 0zm48 -2335c653,-657 1693,-677 2325,-48l2 2 2 3c627,634 606,1677 -46,2333l-1 1 -1 1c-654,656 -1692,676 -2324,47l-2 -2 -3 -2c-626,-635 -605,-1679 48,-2335z"/>
        <path class="fil1 str0" d="M7140 12845l0 0zm2368 -2387l0 0zm4 5l0 0zm-2377 2378l0 0zm48 -2335c653,-657 1692,-677 2325,-48l2 2 2 3c626,634 606,1677 -46,2333l-1 1 -1 1c-654,656 -1692,676 -2324,47l-3 -2 -2 -2c-626,-635 -606,-1679 48,-2335z"/>
        <path class="fil1 str0" d="M10435 12845l0 0zm2368 -2387l0 0zm5 5l0 0zm-2377 2378l0 0zm47 -2335c654,-657 1693,-677 2325,-48l3 2 2 3c626,634 606,1677 -47,2333l-1 1 -1 1c-653,656 -1692,676 -2324,47l-2 -2 -2 -2c-627,-635 -606,-1679 47,-2335z"/>
        <path class="fil1 str0" d="M13731 12845l0 0zm2368 -2387l0 0zm5 5l0 0zm-2378 2378l0 0zm48 -2335c653,-657 1693,-677 2325,-48l2 2 3 3c626,634 605,1677 -47,2333l-1 1 -1 1c-654,656 -1692,676 -2324,47l-2 -2 -2 -2c-627,-635 -606,-1679 47,-2335z"/>
        <path class="fil1 str0" d="M17027 12845l0 0zm2368 -2387l0 0zm4 5l0 0zm-2377 2378l0 0zm48 -2335c653,-657 1692,-677 2325,-48l2 2 2 3c626,634 606,1677 -46,2333l-1 1 -1 1c-654,656 -1692,676 -2324,47l-3 -2 -2 -2c-626,-635 -606,-1679 48,-2335z"/>
        <path class="fil1 str0" d="M548 16149l0 0zm2368 -2387l0 0zm5 5l0 0zm-2377 2378l0 0zm47 -2335c654,-656 1693,-677 2325,-48l3 2 2 3c626,634 606,1677 -47,2333l-1 1 -1 2c-653,655 -1692,675 -2324,46l-2 -2 -2 -2c-627,-635 -606,-1679 47,-2335z"/>
        <path class="fil1 str0" d="M3844 16149l0 0zm2368 -2387l0 0zm4 5l0 0zm-2377 2378l0 0zm48 -2335c653,-656 1693,-677 2325,-48l2 2 2 3c627,634 606,1677 -46,2333l-1 1 -1 2c-654,655 -1692,675 -2324,46l-2 -2 -3 -2c-626,-635 -605,-1679 48,-2335z"/>
        <path class="fil1 str0" d="M7140 16149l0 0zm2368 -2387l0 0zm4 5l0 0zm-2377 2378l0 0zm48 -2335c653,-656 1692,-677 2325,-48l2 2 2 3c626,634 606,1677 -46,2333l-1 1 -1 2c-654,655 -1692,675 -2324,46l-3 -2 -2 -2c-626,-635 -606,-1679 48,-2335z"/>
        <path class="fil1 str0" d="M10435 16149l0 0zm2368 -2387l0 0zm5 5l0 0zm-2377 2378l0 0zm47 -2335c654,-656 1693,-677 2325,-48l3 2 2 3c626,634 606,1677 -47,2333l-1 1 -1 2c-653,655 -1692,675 -2324,46l-2 -2 -2 -2c-627,-635 -606,-1679 47,-2335z"/>
        <path class="fil1 str0" d="M13731 16149l0 0zm2368 -2387l0 0zm5 5l0 0zm-2378 2378l0 0zm48 -2335c653,-656 1693,-677 2325,-48l2 2 3 3c626,634 605,1677 -47,2333l-1 1 -1 2c-654,655 -1692,675 -2324,46l-2 -2 -2 -2c-627,-635 -606,-1679 47,-2335z"/>
        <path class="fil1 str0" d="M17027 16149l0 0zm2368 -2387l0 0zm4 5l0 0zm-2377 2378l0 0zm48 -2335c653,-656 1692,-677 2325,-48l2 2 2 3c626,634 606,1677 -46,2333l-1 1 -1 2c-654,655 -1692,675 -2324,46l-3 -2 -2 -2c-626,-635 -606,-1679 48,-2335z"/>
        <path class="fil1 str0" d="M548 19453l0 0zm2368 -2387l0 0zm5 5l0 0zm-2377 2378l0 0zm47 -2335c654,-656 1693,-677 2325,-48l3 2 2 3c626,634 606,1677 -47,2333l-1 2 -1 1c-653,655 -1692,675 -2324,46l-2 -2 -2 -2c-627,-635 -606,-1679 47,-2335z"/>
        <path class="fil1 str0" d="M3844 19453l0 0zm2368 -2387l0 0zm4 5l0 0zm-2377 2378l0 0zm48 -2335c653,-656 1693,-677 2325,-48l2 2 2 3c627,634 606,1677 -46,2333l-1 2 -1 1c-654,655 -1692,675 -2324,46l-2 -2 -3 -2c-626,-635 -605,-1679 48,-2335z"/>
        <path class="fil1 str0" d="M7140 19453l0 0zm2368 -2387l0 0zm4 5l0 0zm-2377 2378l0 0zm48 -2335c653,-656 1692,-677 2325,-48l2 2 2 3c626,634 606,1677 -46,2333l-1 2 -1 1c-654,655 -1692,675 -2324,46l-3 -2 -2 -2c-626,-635 -606,-1679 48,-2335z"/>
        <path class="fil1 str0" d="M10435 19453l0 0zm2368 -2387l0 0zm5 5l0 0zm-2377 2378l0 0zm47 -2335c654,-656 1693,-677 2325,-48l3 2 2 3c626,634 606,1677 -47,2333l-1 2 -1 1c-653,655 -1692,675 -2324,46l-2 -2 -2 -2c-627,-635 -606,-1679 47,-2335z"/>
        <path class="fil1 str0" d="M13731 19453l0 0zm2368 -2387l0 0zm5 5l0 0zm-2378 2378l0 0zm48 -2335c653,-656 1693,-677 2325,-48l2 2 3 3c626,634 605,1677 -47,2333l-1 2 -1 1c-654,655 -1692,675 -2324,46l-2 -2 -2 -2c-627,-635 -606,-1679 47,-2335z"/>
        <path class="fil1 str0" d="M17027 19453l0 0zm2368 -2387l0 0zm4 5l0 0zm-2377 2378l0 0zm48 -2335c653,-656 1692,-677 2325,-48l2 2 2 3c626,634 606,1677 -46,2333l-1 2 -1 1c-654,655 -1692,675 -2324,46l-3 -2 -2 -2c-626,-635 -606,-1679 48,-2335z"/>
        <path class="fil1 str0" d="M548 2933l0 0zm2368 -2387l0 0zm5 4l0 0zm-2377 2378l0 0zm47 -2335c654,-656 1693,-676 2325,-47l3 2 2 2c626,635 606,1678 -47,2334l-1 1 -1 1c-653,655 -1692,676 -2324,47l-2 -2 -2 -3c-627,-635 -606,-1678 47,-2335z"/>
        <path class="fil1 str0" d="M3846 2933l0 0zm2364 -2387l0 0zm4 4l0 0zm-2373 2378l0 0zm48 -2335c652,-656 1690,-676 2321,-47l2 2 2 2c626,635 605,1678 -46,2334l-1 1 -1 1c-652,655 -1689,676 -2320,47l-2 -2 -3 -3c-625,-635 -604,-1678 48,-2335z"/>
        <path class="fil1 str0" d="M7140 2933l0 0zm2368 -2387l0 0zm4 4l0 0zm-2377 2378l0 0zm48 -2335c653,-656 1692,-676 2325,-47l2 2 2 2c626,635 606,1678 -46,2334l-1 1 -1 1c-654,655 -1692,676 -2324,47l-3 -2 -2 -3c-626,-635 -606,-1678 48,-2335z"/>
        <path class="fil1 str0" d="M10435 2933l0 0zm2368 -2387l0 0zm5 4l0 0zm-2377 2378l0 0zm47 -2335c654,-656 1693,-676 2325,-47l3 2 2 2c626,635 606,1678 -47,2334l-1 1 -1 1c-653,655 -1692,676 -2324,47l-2 -2 -2 -3c-627,-635 -606,-1678 47,-2335z"/>
        <path class="fil1 str0" d="M13731 2933l0 0zm2368 -2387l0 0zm5 4l0 0zm-2378 2378l0 0zm48 -2335c653,-656 1693,-676 2325,-47l2 2 3 2c626,635 605,1678 -47,2334l-1 1 -1 1c-654,655 -1692,676 -2324,47l-2 -2 -2 -3c-627,-635 -606,-1678 47,-2335z"/>
        <path class="fil1 str0" d="M17027 2933l0 0zm2368 -2387l0 0zm4 4l0 0zm-2377 2378l0 0zm48 -2335c653,-656 1692,-676 2325,-47l2 2 2 2c626,635 606,1678 -46,2334l-1 1 -1 1c-654,655 -1692,676 -2324,47l-3 -2 -2 -3c-626,-635 -606,-1678 48,-2335z"/>
        <path class="fil0" d="M1323 132l829 3209c-315,52 -605,47 -859,-15l884 -3191c-282,-99 -563,-102 -854,-3zm1591 437c199,184 337,435 419,745l-3197 830c70,290 198,546 415,751l2363 -2326zm412 1610c-84,296 -224,539 -421,744l-2313 -2362c-221,208 -351,453 -444,718l1587 450 1591 450z"/>
        <path class="fil0" d="M1312 3459l846 3205c-314,54 -604,50 -858,-10l866 -3196c-283,-98 -563,-99 -854,1zm1593 429c200,183 340,433 424,743l-3193 847c71,290 201,545 419,749l2350 -2339zm421 1608c-82,295 -220,540 -417,745l-2326 -2349c-220,210 -349,455 -440,722l1590 440 1593 442z"/>
        <path class="fil0" d="M4608 155l846 3205c-315,54 -605,50 -859,-10l866 -3196c-282,-98 -563,-99 -853,1zm1592 429c201,183 340,433 424,743l-3192 847c71,290 200,546 418,749l2350 -2339zm422 1608c-83,296 -221,540 -418,746l-2326 -2350c-219,210 -348,455 -440,722l1590 440 1594 442z"/>
        <path class="fil0" d="M4608 3460l846 3205c-315,53 -605,49 -859,-11l866 -3196c-282,-98 -563,-99 -853,2zm1592 428c201,183 340,433 424,743l-3192 847c71,290 200,546 418,749l2350 -2339zm422 1608c-83,296 -221,540 -418,746l-2326 -2349c-219,209 -348,455 -440,721l1590 440 1594 442z"/>
        <path class="fil0" d="M7903 155l847 3205c-315,54 -605,50 -859,-10l866 -3196c-282,-98 -563,-99 -854,1zm1593 429c201,183 340,433 424,743l-3192 847c71,290 200,546 418,749l2350 -2339zm421 1608c-82,296 -220,540 -417,746l-2326 -2350c-219,210 -348,455 -440,722l1590 440 1593 442z"/>
        <path class="fil0" d="M7903 13372l847 3205c-315,54 -605,50 -859,-11l866 -3196c-282,-97 -563,-99 -854,2zm1593 429c201,183 340,433 424,742l-3192 847c71,290 200,546 418,750l2350 -2339zm421 1607c-82,296 -220,541 -417,746l-2326 -2349c-219,209 -348,455 -440,721l1590 441 1593 441z"/>
        <path class="fil0" d="M17790 16676l847 3205c-315,54 -605,50 -859,-11l866 -3196c-282,-97 -563,-99 -854,2zm1593 429c201,183 340,433 424,742l-3192 848c71,289 200,545 418,749l2350 -2339zm422 1607c-83,296 -221,541 -418,746l-2326 -2349c-219,210 -348,455 -440,721l1590 441 1594 441z"/>
        <path class="fil0" d="M14495 16676l846 3205c-315,54 -605,50 -859,-11l866 -3196c-282,-97 -563,-99 -853,2zm1592 429c201,183 340,433 424,742l-3192 848c71,289 200,545 418,749l2350 -2339zm422 1607c-82,296 -221,541 -418,746l-2326 -2349c-219,210 -348,455 -440,721l1590 441 1594 441z"/>
        <path class="fil0" d="M11199 16676l846 3205c-314,54 -604,50 -858,-11l866 -3196c-283,-97 -564,-99 -854,2zm1593 429c200,183 340,433 423,742l-3192 848c71,289 200,545 419,749l2350 -2339zm421 1607c-82,296 -221,541 -417,746l-2326 -2349c-220,210 -349,455 -440,721l1590 441 1593 441z"/>
        <path class="fil0" d="M7903 16676l847 3205c-315,54 -605,50 -859,-11l866 -3196c-282,-97 -563,-99 -854,2zm1593 429c201,183 340,433 424,742l-3192 848c71,289 200,545 418,749l2350 -2339zm421 1607c-82,296 -220,541 -417,746l-2326 -2349c-219,210 -348,455 -440,721l1590 441 1593 441z"/>
        <path class="fil0" d="M4608 16676l846 3205c-315,54 -605,50 -859,-11l866 -3196c-282,-97 -563,-99 -853,2zm1592 429c201,183 340,433 424,742l-3192 848c71,289 200,545 418,749l2350 -2339zm422 1607c-83,296 -221,541 -418,746l-2326 -2349c-219,210 -348,455 -440,721l1590 441 1594 441z"/>
        <path class="fil0" d="M1312 16676l846 3205c-314,54 -604,50 -858,-11l866 -3196c-283,-97 -564,-99 -854,2zm1592 429c201,183 341,433 424,742l-3192 848c71,289 200,545 419,749l2349 -2339zm422 1607c-82,296 -221,541 -417,746l-2326 -2349c-220,210 -349,455 -441,721l1591 441 1593 441z"/>
        <path class="fil0" d="M17790 13372l847 3205c-315,54 -605,50 -859,-11l866 -3196c-282,-97 -563,-99 -854,2zm1593 429c201,183 340,433 424,742l-3192 847c71,290 200,546 418,750l2350 -2339zm422 1607c-83,296 -221,541 -418,746l-2326 -2349c-219,209 -348,455 -440,721l1590 441 1594 441z"/>
        <path class="fil0" d="M14495 13372l846 3205c-315,54 -605,50 -859,-11l866 -3196c-282,-97 -563,-99 -853,2zm1592 429c201,183 340,433 424,742l-3192 847c71,290 200,546 418,750l2350 -2339zm422 1607c-82,296 -221,541 -418,746l-2326 -2349c-219,209 -348,455 -440,721l1590 441 1594 441z"/>
        <path class="fil0" d="M11199 13372l846 3205c-314,54 -604,50 -858,-11l866 -3196c-283,-97 -564,-99 -854,2zm1593 429c200,183 340,433 423,742l-3192 847c71,290 200,546 419,750l2350 -2339zm421 1607c-82,296 -221,541 -417,746l-2326 -2349c-220,209 -349,455 -440,721l1590 441 1593 441z"/>
        <path class="fil0" d="M4608 13372l846 3205c-315,54 -605,50 -859,-11l866 -3196c-282,-97 -563,-99 -853,2zm1592 429c201,183 340,433 424,742l-3192 847c71,290 200,546 418,750l2350 -2339zm422 1607c-83,296 -221,541 -418,746l-2326 -2349c-219,209 -348,455 -440,721l1590 441 1594 441z"/>
        <path class="fil0" d="M1312 13372l846 3205c-314,54 -604,50 -858,-11l866 -3196c-283,-97 -564,-99 -854,2zm1592 429c201,183 341,433 424,742l-3192 847c71,290 200,546 419,750l2349 -2339zm422 1607c-82,296 -221,541 -417,746l-2326 -2349c-220,209 -349,455 -441,721l1591 441 1593 441z"/>
        <path class="fil0" d="M17790 10068l847 3205c-315,54 -605,49 -859,-11l866 -3196c-282,-97 -563,-99 -854,2zm1593 429c201,182 340,432 424,742l-3192 847c71,290 200,546 418,749l2350 -2338zm422 1607c-83,296 -221,540 -418,746l-2326 -2349c-219,209 -348,455 -440,721l1590 441 1594 441z"/>
        <path class="fil0" d="M14495 10068l846 3205c-315,54 -605,49 -859,-11l866 -3196c-282,-97 -563,-99 -853,2zm1592 429c201,182 340,432 424,742l-3192 847c71,290 200,546 418,749l2350 -2338zm422 1607c-82,296 -221,540 -418,746l-2326 -2349c-219,209 -348,455 -440,721l1590 441 1594 441z"/>
        <path class="fil0" d="M11199 10068l846 3205c-314,54 -604,49 -858,-11l866 -3196c-283,-97 -564,-99 -854,2zm1593 429c200,182 340,432 423,742l-3192 847c71,290 200,546 419,749l2350 -2338zm421 1607c-82,296 -221,540 -417,746l-2326 -2349c-220,209 -349,455 -440,721l1590 441 1593 441z"/>
        <path class="fil0" d="M7903 10068l847 3205c-315,54 -605,49 -859,-11l866 -3196c-282,-97 -563,-99 -854,2zm1593 429c201,182 340,432 424,742l-3192 847c71,290 200,546 418,749l2350 -2338zm421 1607c-82,296 -220,540 -417,746l-2326 -2349c-219,209 -348,455 -440,721l1590 441 1593 441z"/>
        <path class="fil0" d="M4608 10068l846 3205c-315,54 -605,49 -859,-11l866 -3196c-282,-97 -563,-99 -853,2zm1592 429c201,182 340,432 424,742l-3192 847c71,290 200,546 418,749l2350 -2338zm422 1607c-83,296 -221,540 -418,746l-2326 -2349c-219,209 -348,455 -440,721l1590 441 1594 441z"/>
        <path class="fil0" d="M1312 10068l846 3205c-314,54 -604,49 -858,-11l866 -3196c-283,-97 -564,-99 -854,2zm1592 429c201,182 341,432 424,742l-3192 847c71,290 200,546 419,749l2349 -2338zm422 1607c-82,296 -221,540 -417,746l-2326 -2349c-220,209 -349,455 -441,721l1591 441 1593 441z"/>
        <path class="fil0" d="M7903 6764l847 3205c-315,53 -605,49 -859,-11l866 -3196c-282,-97 -563,-99 -854,2zm1593 428c201,183 340,433 424,743l-3192 847c71,290 200,546 418,749l2350 -2339zm421 1608c-82,296 -220,540 -417,746l-2326 -2349c-219,209 -348,455 -440,721l1590 440 1593 442z"/>
        <path class="fil0" d="M17790 6764l847 3205c-315,53 -605,49 -859,-11l866 -3196c-282,-97 -563,-99 -854,2zm1593 428c201,183 340,433 424,743l-3192 847c71,290 200,546 418,749l2350 -2339zm422 1608c-83,296 -221,540 -418,746l-2326 -2349c-219,209 -348,455 -440,721l1590 440 1594 442z"/>
        <path class="fil0" d="M11199 6764l846 3205c-314,53 -604,49 -858,-11l866 -3196c-283,-97 -564,-99 -854,2zm1593 428c200,183 340,433 423,743l-3192 847c71,290 200,546 419,749l2350 -2339zm421 1608c-82,296 -221,540 -417,746l-2326 -2349c-220,209 -349,455 -440,721l1590 440 1593 442z"/>
        <path class="fil0" d="M14495 6764l846 3205c-315,53 -605,49 -859,-11l866 -3196c-282,-97 -563,-99 -853,2zm1592 428c201,183 340,433 424,743l-3192 847c71,290 200,546 418,749l2350 -2339zm422 1608c-82,296 -221,540 -418,746l-2326 -2349c-219,209 -348,455 -440,721l1590 440 1594 442z"/>
        <path class="fil0" d="M4608 6764l846 3205c-315,53 -605,49 -859,-11l866 -3196c-282,-97 -563,-99 -853,2zm1592 428c201,183 340,433 424,743l-3192 847c71,290 200,546 418,749l2350 -2339zm422 1608c-83,296 -221,540 -418,746l-2326 -2349c-219,209 -348,455 -440,721l1590 440 1594 442z"/>
        <path class="fil0" d="M1312 6764l846 3205c-314,53 -604,49 -858,-11l866 -3196c-283,-97 -564,-99 -854,2zm1592 428c201,183 341,433 424,743l-3192 847c71,290 200,546 419,749l2349 -2339zm422 1608c-82,296 -221,540 -417,746l-2326 -2349c-220,209 -349,455 -441,721l1591 440 1593 442z"/>
        <path class="fil0" d="M17790 3460l847 3205c-315,53 -605,49 -859,-11l866 -3196c-282,-98 -563,-99 -854,2zm1593 428c201,183 340,433 424,743l-3192 847c71,290 200,546 418,749l2350 -2339zm422 1608c-83,296 -221,540 -418,746l-2326 -2349c-219,209 -348,455 -440,721l1590 440 1594 442z"/>
        <path class="fil0" d="M14495 3460l846 3205c-315,53 -605,49 -859,-11l866 -3196c-282,-98 -563,-99 -853,2zm1592 428c201,183 340,433 424,743l-3192 847c71,290 200,546 418,749l2350 -2339zm422 1608c-82,296 -221,540 -418,746l-2326 -2349c-219,209 -348,455 -440,721l1590 440 1594 442z"/>
        <path class="fil0" d="M11199 3460l846 3205c-314,53 -604,49 -858,-11l866 -3196c-283,-98 -564,-99 -854,2zm1593 428c200,183 340,433 423,743l-3192 847c71,290 200,546 419,749l2350 -2339zm421 1608c-82,296 -221,540 -417,746l-2326 -2349c-220,209 -349,455 -440,721l1590 440 1593 442z"/>
        <path class="fil0" d="M17790 155l847 3205c-315,54 -605,50 -859,-10l866 -3196c-282,-98 -563,-99 -854,1zm1593 429c201,183 340,433 424,743l-3192 847c71,290 200,546 418,749l2350 -2339zm422 1608c-83,296 -221,540 -418,746l-2326 -2350c-219,210 -348,455 -440,722l1590 440 1594 442z"/>
        <path class="fil0" d="M14495 155l846 3205c-315,54 -605,50 -859,-10l866 -3196c-282,-98 -563,-99 -853,1zm1592 429c201,183 340,433 424,743l-3192 847c71,290 200,546 418,749l2350 -2339zm422 1608c-82,296 -221,540 -418,746l-2326 -2350c-219,210 -348,455 -440,722l1590 440 1594 442z"/>
        <path class="fil0" d="M7903 3460l847 3205c-315,53 -605,49 -859,-11l866 -3196c-282,-98 -563,-99 -854,2zm1593 428c201,183 340,433 424,743l-3192 847c71,290 200,546 418,749l2350 -2339zm421 1608c-82,296 -220,540 -417,746l-2326 -2349c-219,209 -348,455 -440,721l1590 440 1593 442z"/>
        <path class="fil0" d="M11199 155l846 3205c-314,54 -604,50 -858,-10l866 -3196c-283,-98 -564,-99 -854,1zm1593 429c200,183 340,433 423,743l-3192 847c71,290 200,546 419,749l2350 -2339zm421 1608c-82,296 -221,540 -417,746l-2326 -2350c-220,210 -349,455 -440,722l1590 440 1593 442z"/>
 </g>
</svg>
