<?xml version="1.0" encoding="UTF-8"?>
<!DOCTYPE svg PUBLIC "-//W3C//DTD SVG 1.1//EN" "http://www.w3.org/Graphics/SVG/1.1/DTD/svg11.dtd">
<!-- Creator: CorelDRAW X6 -->
<svg xmlns="http://www.w3.org/2000/svg" xml:space="preserve" width="200mm" height="200mm" version="1.1" style="shape-rendering:geometricPrecision; text-rendering:geometricPrecision; image-rendering:optimizeQuality; fill-rule:evenodd; clip-rule:evenodd"
viewBox="0 0 20167 20167"
 xmlns:xlink="http://www.w3.org/1999/xlink">
 <defs>
  <style type="text/css">
   <![CDATA[
    .fil0 {fill:#13ECAB}
    .fil1 {fill:#4C57FF}
   ]]>
  </style>
 </defs>
 <g id="Layer_x0020_1">
  <metadata id="CorelCorpID_0Corel-Layer"/>
  <g id="_324644760">
   <g>
    <circle class="fil0" cx="1681" cy="1681" r="1681"/>
    <path class="fil1" d="M1682 0c0,928 -753,1680 -1680,1680l-2 0c1,-928 753,-1680 1681,-1680l1 0z"/>
    <path class="fil1" d="M2 1681c927,0 1680,752 1680,1680l-1 0c-928,0 -1680,-752 -1681,-1679l2 -1z"/>
    <path class="fil1" d="M3361 1680l-1 0c-928,0 -1680,-752 -1681,-1680l2 0c927,0 1680,752 1680,1680z"/>
    <path class="fil1" d="M3360 1681l1 1c0,927 -753,1679 -1680,1679l-2 0c1,-928 753,-1680 1681,-1680z"/>
    <path class="fil1" d="M1972 1594l369 0 43 0c32,0 59,27 59,61l0 52c0,33 -27,61 -59,61l-15 0 0 -1 -397 0 0 -173zm-208 173l-167 0 0 -173 0 0 167 0 0 173zm-375 0l-318 0 0 1 -94 0c-32,0 -59,-28 -59,-61l0 -52c0,-34 27,-61 59,-61l65 0 347 0 0 173zm375 503l0 140c0,34 -26,61 -58,61l-51 0c-32,0 -58,-27 -58,-61l0 -427 167 0 0 287 0 0zm-167 -892l0 -427c0,-34 26,-61 58,-61l51 0c31,0 56,25 58,56l0 432 -167 0z"/>
   </g>
   <g>
    <circle class="fil0" cx="5042" cy="1681" r="1681"/>
    <path class="fil1" d="M5043 0c0,928 -752,1680 -1680,1680l-2 0c1,-928 753,-1680 1681,-1680l1 0z"/>
    <path class="fil1" d="M3363 1681c928,0 1680,752 1680,1680l-1 0c-928,0 -1680,-752 -1681,-1679l2 -1z"/>
    <path class="fil1" d="M6722 1680l-1 0c-928,0 -1680,-752 -1681,-1680l2 0c928,0 1680,752 1680,1680z"/>
    <path class="fil1" d="M6721 1681l1 1c0,927 -752,1679 -1680,1679l-2 0c1,-928 753,-1680 1681,-1680z"/>
    <path class="fil1" d="M5333 1594l369 0 43 0c33,0 59,27 59,61l0 52c0,33 -26,61 -59,61l-15 0 0 -1 -397 0 0 -173zm-208 173l-167 0 0 -173 0 0 167 0 0 173zm-375 0l-318 0 0 1 -94 0c-32,0 -58,-28 -58,-61l0 -52c0,-34 26,-61 58,-61l66 0 346 0 0 173zm376 503l0 140c0,34 -27,61 -59,61l-50 0c-33,0 -59,-27 -59,-61l0 -427 167 0 0 287 1 0zm-168 -892l0 -427c0,-34 26,-61 59,-61l50 0c31,0 56,25 58,56l0 432 -167 0z"/>
   </g>
   <g>
    <circle class="fil0" cx="8403" cy="1681" r="1681"/>
    <path class="fil1" d="M8405 0c-1,928 -753,1680 -1681,1680l-2 0c1,-928 753,-1680 1681,-1680l2 0z"/>
    <path class="fil1" d="M6724 1681c928,0 1680,752 1681,1680l-2 0c-928,0 -1680,-752 -1681,-1679l2 -1z"/>
    <path class="fil1" d="M10084 1680l-2 0c-928,0 -1680,-752 -1681,-1680l2 0c928,0 1680,752 1681,1680z"/>
    <path class="fil1" d="M10082 1681l2 1c-1,927 -753,1679 -1681,1679l-2 0c1,-928 753,-1680 1681,-1680z"/>
    <path class="fil1" d="M8694 1594l369 0 44 0c32,0 58,27 58,61l0 52c0,33 -26,61 -58,61l-15 0 0 -1 -398 0 0 -173zm-207 173l-168 0 0 -173 0 0 168 0 0 173zm-376 0l-318 0 0 1 -94 0c-32,0 -58,-28 -58,-61l0 -52c0,-34 26,-61 58,-61l66 0 346 0 0 173zm376 503l0 140c0,34 -27,61 -59,61l-50 0c-33,0 -59,-27 -59,-61l0 -427 168 0 0 287 0 0zm-168 -892l0 -427c0,-34 26,-61 59,-61l50 0c31,0 56,25 59,56l0 432 -168 0z"/>
   </g>
   <g>
    <circle class="fil0" cx="11764" cy="1681" r="1681"/>
    <path class="fil1" d="M11766 0c-1,928 -753,1680 -1681,1680l-1 0c0,-928 752,-1680 1680,-1680l2 0z"/>
    <path class="fil1" d="M10085 1681c928,0 1680,752 1681,1680l-2 0c-928,0 -1680,-752 -1680,-1679l1 -1z"/>
    <path class="fil1" d="M13445 1680l-2 0c-928,0 -1680,-752 -1680,-1680l1 0c928,0 1680,752 1681,1680z"/>
    <path class="fil1" d="M13443 1681l2 1c-1,927 -753,1679 -1681,1679l-1 0c0,-928 752,-1680 1680,-1680z"/>
    <path class="fil1" d="M12055 1594l369 0 44 0c32,0 58,27 58,61l0 52c0,33 -26,61 -58,61l-15 0 0 -1 -398 0 0 -173zm-207 173l-168 0 0 -173 0 0 168 0 0 173zm-375 0l-319 0 0 1 -93 0c-33,0 -59,-28 -59,-61l0 -52c0,-34 26,-61 59,-61l65 0 347 0 0 173zm375 503l0 140c0,34 -26,61 -59,61l-50 0c-32,0 -59,-27 -59,-61l0 -427 168 0 0 287 0 0zm-168 -892l0 -427c0,-34 27,-61 59,-61l50 0c31,0 56,25 59,56l0 432 -168 0z"/>
   </g>
   <g>
    <circle class="fil0" cx="15125" cy="1681" r="1681"/>
    <path class="fil1" d="M15127 0c-1,928 -753,1680 -1681,1680l-1 0c0,-928 752,-1680 1680,-1680l2 0z"/>
    <path class="fil1" d="M13446 1681c928,0 1680,752 1681,1680l-2 0c-928,0 -1680,-752 -1680,-1679l1 -1z"/>
    <path class="fil1" d="M16806 1680l-2 0c-927,0 -1680,-752 -1680,-1680l1 0c928,0 1680,752 1681,1680z"/>
    <path class="fil1" d="M16804 1681l2 1c-1,927 -753,1679 -1681,1679l-1 0c0,-928 753,-1680 1680,-1680z"/>
    <path class="fil1" d="M15417 1594l369 0 43 0c32,0 59,27 59,61l0 52c0,33 -27,61 -59,61l-15 0 0 -1 -397 0 0 -173zm-208 173l-168 0 0 -173 0 0 168 0 0 173zm-375 0l-318 0 0 1 -94 0c-33,0 -59,-28 -59,-61l0 -52c0,-34 26,-61 59,-61l65 0 347 0 0 173zm375 503l0 140c0,34 -26,61 -59,61l-50 0c-32,0 -59,-27 -59,-61l0 -427 168 0 0 287 0 0zm-168 -892l0 -427c0,-34 27,-61 59,-61l50 0c31,0 57,25 59,56l0 432 -168 0z"/>
   </g>
   <g>
    <circle class="fil0" cx="18487" cy="1681" r="1681"/>
    <path class="fil1" d="M18488 0c0,928 -753,1680 -1681,1680l-1 0c0,-928 753,-1680 1681,-1680l1 0z"/>
    <path class="fil1" d="M16807 1681c928,0 1681,752 1681,1680l-1 0c-928,0 -1681,-752 -1681,-1679l1 -1z"/>
    <path class="fil1" d="M20167 1680l-1 0c-928,0 -1681,-752 -1681,-1680l2 0c927,0 1680,752 1680,1680z"/>
    <path class="fil1" d="M20166 1681l1 1c0,927 -753,1679 -1680,1679l-2 0c0,-928 753,-1680 1681,-1680z"/>
    <path class="fil1" d="M18778 1594l369 0 43 0c32,0 59,27 59,61l0 52c0,33 -27,61 -59,61l-15 0 0 -1 -397 0 0 -173zm-208 173l-167 0 0 -173 0 0 167 0 0 173zm-375 0l-318 0 0 1 -94 0c-32,0 -59,-28 -59,-61l0 -52c0,-34 27,-61 59,-61l65 0 347 0 0 173zm375 503l0 140c0,34 -26,61 -58,61l-51 0c-32,0 -58,-27 -58,-61l0 -427 167 0 0 287 0 0zm-167 -892l0 -427c0,-34 26,-61 58,-61l51 0c30,0 56,25 58,56l0 432 -167 0z"/>
   </g>
  </g>
  <g id="_324658536">
   <g>
    <circle class="fil0" cx="1681" cy="5042" r="1681"/>
    <path class="fil1" d="M1682 3361c0,928 -753,1680 -1680,1680l-2 0c1,-928 753,-1680 1681,-1680l1 0z"/>
    <path class="fil1" d="M2 5043c927,0 1680,752 1680,1679l-1 0c-928,0 -1680,-752 -1681,-1679l2 0z"/>
    <path class="fil1" d="M3361 5041l-1 0c-928,0 -1680,-752 -1681,-1680l2 0c927,0 1680,752 1680,1680z"/>
    <path class="fil1" d="M3360 5043l1 0c0,927 -753,1679 -1680,1679l-2 0c1,-927 753,-1679 1681,-1679z"/>
    <path class="fil1" d="M1972 4955l369 0 43 0c32,0 59,27 59,61l0 52c0,33 -27,61 -59,61l-15 0 0 0 -397 0 0 -174zm-208 174l-167 0 0 -174 0 0 167 0 0 174zm-375 0l-318 0 0 0 -94 0c-32,0 -59,-28 -59,-61l0 -52c0,-34 27,-61 59,-61l65 0 347 0 0 174zm375 503l0 139c0,34 -26,61 -58,61l-51 0c-32,0 -58,-27 -58,-61l0 -427 167 0 0 288 0 0zm-167 -892l0 -428c0,-33 26,-61 58,-61l51 0c31,0 56,25 58,56l0 433 -167 0z"/>
   </g>
   <g>
    <circle class="fil0" cx="5042" cy="5042" r="1681"/>
    <path class="fil1" d="M5043 3361c0,928 -752,1680 -1680,1680l-2 0c1,-928 753,-1680 1681,-1680l1 0z"/>
    <path class="fil1" d="M3363 5043c928,0 1680,752 1680,1679l-1 0c-928,0 -1680,-752 -1681,-1679l2 0z"/>
    <path class="fil1" d="M6722 5041l-1 0c-928,0 -1680,-752 -1681,-1680l2 0c928,0 1680,752 1680,1680z"/>
    <path class="fil1" d="M6721 5043l1 0c0,927 -752,1679 -1680,1679l-2 0c1,-927 753,-1679 1681,-1679z"/>
    <path class="fil1" d="M5333 4955l369 0 43 0c33,0 59,27 59,61l0 52c0,33 -26,61 -59,61l-15 0 0 0 -397 0 0 -174zm-208 174l-167 0 0 -174 0 0 167 0 0 174zm-375 0l-318 0 0 0 -94 0c-32,0 -58,-28 -58,-61l0 -52c0,-34 26,-61 58,-61l66 0 346 0 0 174zm376 503l0 139c0,34 -27,61 -59,61l-50 0c-33,0 -59,-27 -59,-61l0 -427 167 0 0 288 1 0zm-168 -892l0 -428c0,-33 26,-61 59,-61l50 0c31,0 56,25 58,56l0 433 -167 0z"/>
   </g>
   <g>
    <circle class="fil0" cx="8403" cy="5042" r="1681"/>
    <path class="fil1" d="M8405 3361c-1,928 -753,1680 -1681,1680l-2 0c1,-928 753,-1680 1681,-1680l2 0z"/>
    <path class="fil1" d="M6724 5043c928,0 1680,752 1681,1679l-2 0c-928,0 -1680,-752 -1681,-1679l2 0z"/>
    <path class="fil1" d="M10084 5041l-2 0c-928,0 -1680,-752 -1681,-1680l2 0c928,0 1680,752 1681,1680z"/>
    <path class="fil1" d="M10082 5043l2 0c-1,927 -753,1679 -1681,1679l-2 0c1,-927 753,-1679 1681,-1679z"/>
    <path class="fil1" d="M8694 4955l369 0 44 0c32,0 58,27 58,61l0 52c0,33 -26,61 -58,61l-15 0 0 0 -398 0 0 -174zm-207 174l-168 0 0 -174 0 0 168 0 0 174zm-376 0l-318 0 0 0 -94 0c-32,0 -58,-28 -58,-61l0 -52c0,-34 26,-61 58,-61l66 0 346 0 0 174zm376 503l0 139c0,34 -27,61 -59,61l-50 0c-33,0 -59,-27 -59,-61l0 -427 168 0 0 288 0 0zm-168 -892l0 -428c0,-33 26,-61 59,-61l50 0c31,0 56,25 59,56l0 433 -168 0z"/>
   </g>
   <g>
    <circle class="fil0" cx="11764" cy="5042" r="1681"/>
    <path class="fil1" d="M11766 3361c-1,928 -753,1680 -1681,1680l-1 0c0,-928 752,-1680 1680,-1680l2 0z"/>
    <path class="fil1" d="M10085 5043c928,0 1680,752 1681,1679l-2 0c-928,0 -1680,-752 -1680,-1679l1 0z"/>
    <path class="fil1" d="M13445 5041l-2 0c-928,0 -1680,-752 -1680,-1680l1 0c928,0 1680,752 1681,1680z"/>
    <path class="fil1" d="M13443 5043l2 0c-1,927 -753,1679 -1681,1679l-1 0c0,-927 752,-1679 1680,-1679z"/>
    <path class="fil1" d="M12055 4955l369 0 44 0c32,0 58,27 58,61l0 52c0,33 -26,61 -58,61l-15 0 0 0 -398 0 0 -174zm-207 174l-168 0 0 -174 0 0 168 0 0 174zm-375 0l-319 0 0 0 -93 0c-33,0 -59,-28 -59,-61l0 -52c0,-34 26,-61 59,-61l65 0 347 0 0 174zm375 503l0 139c0,34 -26,61 -59,61l-50 0c-32,0 -59,-27 -59,-61l0 -427 168 0 0 288 0 0zm-168 -892l0 -428c0,-33 27,-61 59,-61l50 0c31,0 56,25 59,56l0 433 -168 0z"/>
   </g>
   <g>
    <circle class="fil0" cx="15125" cy="5042" r="1681"/>
    <path class="fil1" d="M15127 3361c-1,928 -753,1680 -1681,1680l-1 0c0,-928 752,-1680 1680,-1680l2 0z"/>
    <path class="fil1" d="M13446 5043c928,0 1680,752 1681,1679l-2 0c-928,0 -1680,-752 -1680,-1679l1 0z"/>
    <path class="fil1" d="M16806 5041l-2 0c-927,0 -1680,-752 -1680,-1680l1 0c928,0 1680,752 1681,1680z"/>
    <path class="fil1" d="M16804 5043l2 0c-1,927 -753,1679 -1681,1679l-1 0c0,-927 753,-1679 1680,-1679z"/>
    <path class="fil1" d="M15417 4955l369 0 43 0c32,0 59,27 59,61l0 52c0,33 -27,61 -59,61l-15 0 0 0 -397 0 0 -174zm-208 174l-168 0 0 -174 0 0 168 0 0 174zm-375 0l-318 0 0 0 -94 0c-33,0 -59,-28 -59,-61l0 -52c0,-34 26,-61 59,-61l65 0 347 0 0 174zm375 503l0 139c0,34 -26,61 -59,61l-50 0c-32,0 -59,-27 -59,-61l0 -427 168 0 0 288 0 0zm-168 -892l0 -428c0,-33 27,-61 59,-61l50 0c31,0 57,25 59,56l0 433 -168 0z"/>
   </g>
   <g>
    <circle class="fil0" cx="18487" cy="5042" r="1681"/>
    <path class="fil1" d="M18488 3361c0,928 -753,1680 -1681,1680l-1 0c0,-928 753,-1680 1681,-1680l1 0z"/>
    <path class="fil1" d="M16807 5043c928,0 1681,752 1681,1679l-1 0c-928,0 -1681,-752 -1681,-1679l1 0z"/>
    <path class="fil1" d="M20167 5041l-1 0c-928,0 -1681,-752 -1681,-1680l2 0c927,0 1680,752 1680,1680z"/>
    <path class="fil1" d="M20166 5043l1 0c0,927 -753,1679 -1680,1679l-2 0c0,-927 753,-1679 1681,-1679z"/>
    <path class="fil1" d="M18778 4955l369 0 43 0c32,0 59,27 59,61l0 52c0,33 -27,61 -59,61l-15 0 0 0 -397 0 0 -174zm-208 174l-167 0 0 -174 0 0 167 0 0 174zm-375 0l-318 0 0 0 -94 0c-32,0 -59,-28 -59,-61l0 -52c0,-34 27,-61 59,-61l65 0 347 0 0 174zm375 503l0 139c0,34 -26,61 -58,61l-51 0c-32,0 -58,-27 -58,-61l0 -427 167 0 0 288 0 0zm-167 -892l0 -428c0,-33 26,-61 58,-61l51 0c30,0 56,25 58,56l0 433 -167 0z"/>
   </g>
  </g>
  <g id="_452927440">
   <g>
    <circle class="fil0" cx="1681" cy="8403" r="1681"/>
    <path class="fil1" d="M1682 6722c0,928 -753,1680 -1680,1680l-2 0c1,-928 753,-1680 1681,-1680l1 0z"/>
    <path class="fil1" d="M2 8404c927,0 1680,752 1680,1680l-1 0c-928,0 -1680,-752 -1681,-1680l2 0z"/>
    <path class="fil1" d="M3361 8402l-1 0c-928,0 -1680,-752 -1681,-1680l2 0c927,0 1680,752 1680,1680z"/>
    <path class="fil1" d="M3360 8404l1 0c0,928 -753,1680 -1680,1680l-2 0c1,-928 753,-1680 1681,-1680z"/>
    <path class="fil1" d="M1972 8316l369 0 43 0c32,0 59,27 59,61l0 52c0,34 -27,61 -59,61l-15 0 0 0 -397 0 0 -174zm-208 174l-167 0 0 -174 0 0 167 0 0 174zm-375 0l-318 0 0 0 -94 0c-32,0 -59,-27 -59,-61l0 -52c0,-34 27,-61 59,-61l65 0 347 0 0 174zm375 503l0 140c0,33 -26,60 -58,60l-51 0c-32,0 -58,-27 -58,-60l0 -428 167 0 0 288 0 0zm-167 -892l0 -428c0,-33 26,-61 58,-61l51 0c31,0 56,25 58,57l0 432 -167 0z"/>
   </g>
   <g>
    <circle class="fil0" cx="5042" cy="8403" r="1681"/>
    <path class="fil1" d="M5043 6722c0,928 -752,1680 -1680,1680l-2 0c1,-928 753,-1680 1681,-1680l1 0z"/>
    <path class="fil1" d="M3363 8404c928,0 1680,752 1680,1680l-1 0c-928,0 -1680,-752 -1681,-1680l2 0z"/>
    <path class="fil1" d="M6722 8402l-1 0c-928,0 -1680,-752 -1681,-1680l2 0c928,0 1680,752 1680,1680z"/>
    <path class="fil1" d="M6721 8404l1 0c0,928 -752,1680 -1680,1680l-2 0c1,-928 753,-1680 1681,-1680z"/>
    <path class="fil1" d="M5333 8316l369 0 43 0c33,0 59,27 59,61l0 52c0,34 -26,61 -59,61l-15 0 0 0 -397 0 0 -174zm-208 174l-167 0 0 -174 0 0 167 0 0 174zm-375 0l-318 0 0 0 -94 0c-32,0 -58,-27 -58,-61l0 -52c0,-34 26,-61 58,-61l66 0 346 0 0 174zm376 503l0 140c0,33 -27,60 -59,60l-50 0c-33,0 -59,-27 -59,-60l0 -428 167 0 0 288 1 0zm-168 -892l0 -428c0,-33 26,-61 59,-61l50 0c31,0 56,25 58,57l0 432 -167 0z"/>
   </g>
   <g>
    <circle class="fil0" cx="8403" cy="8403" r="1681"/>
    <path class="fil1" d="M8405 6722c-1,928 -753,1680 -1681,1680l-2 0c1,-928 753,-1680 1681,-1680l2 0z"/>
    <path class="fil1" d="M6724 8404c928,0 1680,752 1681,1680l-2 0c-928,0 -1680,-752 -1681,-1680l2 0z"/>
    <path class="fil1" d="M10084 8402l-2 0c-928,0 -1680,-752 -1681,-1680l2 0c928,0 1680,752 1681,1680z"/>
    <path class="fil1" d="M10082 8404l2 0c-1,928 -753,1680 -1681,1680l-2 0c1,-928 753,-1680 1681,-1680z"/>
    <path class="fil1" d="M8694 8316l369 0 44 0c32,0 58,27 58,61l0 52c0,34 -26,61 -58,61l-15 0 0 0 -398 0 0 -174zm-207 174l-168 0 0 -174 0 0 168 0 0 174zm-376 0l-318 0 0 0 -94 0c-32,0 -58,-27 -58,-61l0 -52c0,-34 26,-61 58,-61l66 0 346 0 0 174zm376 503l0 140c0,33 -27,60 -59,60l-50 0c-33,0 -59,-27 -59,-60l0 -428 168 0 0 288 0 0zm-168 -892l0 -428c0,-33 26,-61 59,-61l50 0c31,0 56,25 59,57l0 432 -168 0z"/>
   </g>
   <g>
    <circle class="fil0" cx="11764" cy="8403" r="1681"/>
    <path class="fil1" d="M11766 6722c-1,928 -753,1680 -1681,1680l-1 0c0,-928 752,-1680 1680,-1680l2 0z"/>
    <path class="fil1" d="M10085 8404c928,0 1680,752 1681,1680l-2 0c-928,0 -1680,-752 -1680,-1680l1 0z"/>
    <path class="fil1" d="M13445 8402l-2 0c-928,0 -1680,-752 -1680,-1680l1 0c928,0 1680,752 1681,1680z"/>
    <path class="fil1" d="M13443 8404l2 0c-1,928 -753,1680 -1681,1680l-1 0c0,-928 752,-1680 1680,-1680z"/>
    <path class="fil1" d="M12055 8316l369 0 44 0c32,0 58,27 58,61l0 52c0,34 -26,61 -58,61l-15 0 0 0 -398 0 0 -174zm-207 174l-168 0 0 -174 0 0 168 0 0 174zm-375 0l-319 0 0 0 -93 0c-33,0 -59,-27 -59,-61l0 -52c0,-34 26,-61 59,-61l65 0 347 0 0 174zm375 503l0 140c0,33 -26,60 -59,60l-50 0c-32,0 -59,-27 -59,-60l0 -428 168 0 0 288 0 0zm-168 -892l0 -428c0,-33 27,-61 59,-61l50 0c31,0 56,25 59,57l0 432 -168 0z"/>
   </g>
   <g>
    <circle class="fil0" cx="15125" cy="8403" r="1681"/>
    <path class="fil1" d="M15127 6722c-1,928 -753,1680 -1681,1680l-1 0c0,-928 752,-1680 1680,-1680l2 0z"/>
    <path class="fil1" d="M13446 8404c928,0 1680,752 1681,1680l-2 0c-928,0 -1680,-752 -1680,-1680l1 0z"/>
    <path class="fil1" d="M16806 8402l-2 0c-927,0 -1680,-752 -1680,-1680l1 0c928,0 1680,752 1681,1680z"/>
    <path class="fil1" d="M16804 8404l2 0c-1,928 -753,1680 -1681,1680l-1 0c0,-928 753,-1680 1680,-1680z"/>
    <path class="fil1" d="M15417 8316l369 0 43 0c32,0 59,27 59,61l0 52c0,34 -27,61 -59,61l-15 0 0 0 -397 0 0 -174zm-208 174l-168 0 0 -174 0 0 168 0 0 174zm-375 0l-318 0 0 0 -94 0c-33,0 -59,-27 -59,-61l0 -52c0,-34 26,-61 59,-61l65 0 347 0 0 174zm375 503l0 140c0,33 -26,60 -59,60l-50 0c-32,0 -59,-27 -59,-60l0 -428 168 0 0 288 0 0zm-168 -892l0 -428c0,-33 27,-61 59,-61l50 0c31,0 57,25 59,57l0 432 -168 0z"/>
   </g>
   <g>
    <circle class="fil0" cx="18487" cy="8403" r="1681"/>
    <path class="fil1" d="M18488 6722c0,928 -753,1680 -1681,1680l-1 0c0,-928 753,-1680 1681,-1680l1 0z"/>
    <path class="fil1" d="M16807 8404c928,0 1681,752 1681,1680l-1 0c-928,0 -1681,-752 -1681,-1680l1 0z"/>
    <path class="fil1" d="M20167 8402l-1 0c-928,0 -1681,-752 -1681,-1680l2 0c927,0 1680,752 1680,1680z"/>
    <path class="fil1" d="M20166 8404l1 0c0,928 -753,1680 -1680,1680l-2 0c0,-928 753,-1680 1681,-1680z"/>
    <path class="fil1" d="M18778 8316l369 0 43 0c32,0 59,27 59,61l0 52c0,34 -27,61 -59,61l-15 0 0 0 -397 0 0 -174zm-208 174l-167 0 0 -174 0 0 167 0 0 174zm-375 0l-318 0 0 0 -94 0c-32,0 -59,-27 -59,-61l0 -52c0,-34 27,-61 59,-61l65 0 347 0 0 174zm375 503l0 140c0,33 -26,60 -58,60l-51 0c-32,0 -58,-27 -58,-60l0 -428 167 0 0 288 0 0zm-167 -892l0 -428c0,-33 26,-61 58,-61l51 0c30,0 56,25 58,57l0 432 -167 0z"/>
   </g>
  </g>
  <g id="_452925136">
   <g>
    <circle class="fil0" cx="1681" cy="11764" r="1681"/>
    <path class="fil1" d="M1682 10084c0,927 -753,1679 -1680,1679l-2 0c1,-928 753,-1679 1681,-1679l1 0z"/>
    <path class="fil1" d="M2 11765c927,0 1680,752 1680,1680l-1 0c-928,0 -1680,-752 -1681,-1680l2 0z"/>
    <path class="fil1" d="M3361 11763l-1 0c-928,0 -1680,-752 -1681,-1679l2 0c927,0 1680,751 1680,1679z"/>
    <path class="fil1" d="M3360 11765l1 0c0,928 -753,1680 -1680,1680l-2 0c1,-928 753,-1680 1681,-1680z"/>
    <path class="fil1" d="M1972 11677l369 0 43 0c32,0 59,28 59,61l0 52c0,34 -27,61 -59,61l-15 0 0 0 -397 0 0 -174zm-208 174l-167 0 0 -174 0 0 167 0 0 174zm-375 0l-318 0 0 0 -94 0c-32,0 -59,-27 -59,-61l0 -52c0,-33 27,-61 59,-61l65 0 347 0 0 174zm375 503l0 140c0,33 -26,61 -58,61l-51 0c-32,0 -58,-28 -58,-61l0 -428 167 0 0 288 0 0zm-167 -892l0 -428c0,-33 26,-60 58,-60l51 0c31,0 56,24 58,56l0 432 -167 0z"/>
   </g>
   <g>
    <circle class="fil0" cx="5042" cy="11764" r="1681"/>
    <path class="fil1" d="M5043 10084c0,927 -752,1679 -1680,1679l-2 0c1,-928 753,-1679 1681,-1679l1 0z"/>
    <path class="fil1" d="M3363 11765c928,0 1680,752 1680,1680l-1 0c-928,0 -1680,-752 -1681,-1680l2 0z"/>
    <path class="fil1" d="M6722 11763l-1 0c-928,0 -1680,-752 -1681,-1679l2 0c928,0 1680,751 1680,1679z"/>
    <path class="fil1" d="M6721 11765l1 0c0,928 -752,1680 -1680,1680l-2 0c1,-928 753,-1680 1681,-1680z"/>
    <path class="fil1" d="M5333 11677l369 0 43 0c33,0 59,28 59,61l0 52c0,34 -26,61 -59,61l-15 0 0 0 -397 0 0 -174zm-208 174l-167 0 0 -174 0 0 167 0 0 174zm-375 0l-318 0 0 0 -94 0c-32,0 -58,-27 -58,-61l0 -52c0,-33 26,-61 58,-61l66 0 346 0 0 174zm376 503l0 140c0,33 -27,61 -59,61l-50 0c-33,0 -59,-28 -59,-61l0 -428 167 0 0 288 1 0zm-168 -892l0 -428c0,-33 26,-60 59,-60l50 0c31,0 56,24 58,56l0 432 -167 0z"/>
   </g>
   <g>
    <circle class="fil0" cx="8403" cy="11764" r="1681"/>
    <path class="fil1" d="M8405 10084c-1,927 -753,1679 -1681,1679l-2 0c1,-928 753,-1679 1681,-1679l2 0z"/>
    <path class="fil1" d="M6724 11765c928,0 1680,752 1681,1680l-2 0c-928,0 -1680,-752 -1681,-1680l2 0z"/>
    <path class="fil1" d="M10084 11763l-2 0c-928,0 -1680,-752 -1681,-1679l2 0c928,0 1680,751 1681,1679z"/>
    <path class="fil1" d="M10082 11765l2 0c-1,928 -753,1680 -1681,1680l-2 0c1,-928 753,-1680 1681,-1680z"/>
    <path class="fil1" d="M8694 11677l369 0 44 0c32,0 58,28 58,61l0 52c0,34 -26,61 -58,61l-15 0 0 0 -398 0 0 -174zm-207 174l-168 0 0 -174 0 0 168 0 0 174zm-376 0l-318 0 0 0 -94 0c-32,0 -58,-27 -58,-61l0 -52c0,-33 26,-61 58,-61l66 0 346 0 0 174zm376 503l0 140c0,33 -27,61 -59,61l-50 0c-33,0 -59,-28 -59,-61l0 -428 168 0 0 288 0 0zm-168 -892l0 -428c0,-33 26,-60 59,-60l50 0c31,0 56,24 59,56l0 432 -168 0z"/>
   </g>
   <g>
    <circle class="fil0" cx="11764" cy="11764" r="1681"/>
    <path class="fil1" d="M11766 10084c-1,927 -753,1679 -1681,1679l-1 0c0,-928 752,-1679 1680,-1679l2 0z"/>
    <path class="fil1" d="M10085 11765c928,0 1680,752 1681,1680l-2 0c-928,0 -1680,-752 -1680,-1680l1 0z"/>
    <path class="fil1" d="M13445 11763l-2 0c-928,0 -1680,-752 -1680,-1679l1 0c928,0 1680,751 1681,1679z"/>
    <path class="fil1" d="M13443 11765l2 0c-1,928 -753,1680 -1681,1680l-1 0c0,-928 752,-1680 1680,-1680z"/>
    <path class="fil1" d="M12055 11677l369 0 44 0c32,0 58,28 58,61l0 52c0,34 -26,61 -58,61l-15 0 0 0 -398 0 0 -174zm-207 174l-168 0 0 -174 0 0 168 0 0 174zm-375 0l-319 0 0 0 -93 0c-33,0 -59,-27 -59,-61l0 -52c0,-33 26,-61 59,-61l65 0 347 0 0 174zm375 503l0 140c0,33 -26,61 -59,61l-50 0c-32,0 -59,-28 -59,-61l0 -428 168 0 0 288 0 0zm-168 -892l0 -428c0,-33 27,-60 59,-60l50 0c31,0 56,24 59,56l0 432 -168 0z"/>
   </g>
   <g>
    <circle class="fil0" cx="15125" cy="11764" r="1681"/>
    <path class="fil1" d="M15127 10084c-1,927 -753,1679 -1681,1679l-1 0c0,-928 752,-1679 1680,-1679l2 0z"/>
    <path class="fil1" d="M13446 11765c928,0 1680,752 1681,1680l-2 0c-928,0 -1680,-752 -1680,-1680l1 0z"/>
    <path class="fil1" d="M16806 11763l-2 0c-927,0 -1680,-752 -1680,-1679l1 0c928,0 1680,751 1681,1679z"/>
    <path class="fil1" d="M16804 11765l2 0c-1,928 -753,1680 -1681,1680l-1 0c0,-928 753,-1680 1680,-1680z"/>
    <path class="fil1" d="M15417 11677l369 0 43 0c32,0 59,28 59,61l0 52c0,34 -27,61 -59,61l-15 0 0 0 -397 0 0 -174zm-208 174l-168 0 0 -174 0 0 168 0 0 174zm-375 0l-318 0 0 0 -94 0c-33,0 -59,-27 -59,-61l0 -52c0,-33 26,-61 59,-61l65 0 347 0 0 174zm375 503l0 140c0,33 -26,61 -59,61l-50 0c-32,0 -59,-28 -59,-61l0 -428 168 0 0 288 0 0zm-168 -892l0 -428c0,-33 27,-60 59,-60l50 0c31,0 57,24 59,56l0 432 -168 0z"/>
   </g>
   <g>
    <circle class="fil0" cx="18487" cy="11764" r="1681"/>
    <path class="fil1" d="M18488 10084c0,927 -753,1679 -1681,1679l-1 0c0,-928 753,-1679 1681,-1679l1 0z"/>
    <path class="fil1" d="M16807 11765c928,0 1681,752 1681,1680l-1 0c-928,0 -1681,-752 -1681,-1680l1 0z"/>
    <path class="fil1" d="M20167 11763l-1 0c-928,0 -1681,-752 -1681,-1679l2 0c927,0 1680,751 1680,1679z"/>
    <path class="fil1" d="M20166 11765l1 0c0,928 -753,1680 -1680,1680l-2 0c0,-928 753,-1680 1681,-1680z"/>
    <path class="fil1" d="M18778 11677l369 0 43 0c32,0 59,28 59,61l0 52c0,34 -27,61 -59,61l-15 0 0 0 -397 0 0 -174zm-208 174l-167 0 0 -174 0 0 167 0 0 174zm-375 0l-318 0 0 0 -94 0c-32,0 -59,-27 -59,-61l0 -52c0,-33 27,-61 59,-61l65 0 347 0 0 174zm375 503l0 140c0,33 -26,61 -58,61l-51 0c-32,0 -58,-28 -58,-61l0 -428 167 0 0 288 0 0zm-167 -892l0 -428c0,-33 26,-60 58,-60l51 0c30,0 56,24 58,56l0 432 -167 0z"/>
   </g>
  </g>
  <g id="_453685504">
   <g>
    <circle class="fil0" cx="1681" cy="15125" r="1681"/>
    <path class="fil1" d="M1682 13445c0,927 -753,1679 -1680,1679l-2 0c1,-927 753,-1679 1681,-1679l1 0z"/>
    <path class="fil1" d="M2 15126c927,0 1680,752 1680,1680l-1 0c-928,0 -1680,-752 -1681,-1680l2 0z"/>
    <path class="fil1" d="M3361 15124l-1 0c-928,0 -1680,-752 -1681,-1679l2 0c927,0 1680,752 1680,1679z"/>
    <path class="fil1" d="M3360 15126l1 0c0,928 -753,1680 -1680,1680l-2 0c1,-928 753,-1680 1681,-1680z"/>
    <path class="fil1" d="M1972 15038l369 0 43 0c32,0 59,28 59,61l0 52c0,34 -27,61 -59,61l-15 0 0 0 -397 0 0 -174zm-208 174l-167 0 0 -174 0 0 167 0 0 174zm-375 0l-318 0 0 0 -94 0c-32,0 -59,-27 -59,-61l0 -52c0,-33 27,-61 59,-61l65 0 347 0 0 174zm375 503l0 140c0,33 -26,61 -58,61l-51 0c-32,0 -58,-28 -58,-61l0 -428 167 0 0 288 0 0zm-167 -892l0 -427c0,-34 26,-61 58,-61l51 0c31,0 56,25 58,56l0 432 -167 0z"/>
   </g>
   <g>
    <circle class="fil0" cx="5042" cy="15125" r="1681"/>
    <path class="fil1" d="M5043 13445c0,927 -752,1679 -1680,1679l-2 0c1,-927 753,-1679 1681,-1679l1 0z"/>
    <path class="fil1" d="M3363 15126c928,0 1680,752 1680,1680l-1 0c-928,0 -1680,-752 -1681,-1680l2 0z"/>
    <path class="fil1" d="M6722 15124l-1 0c-928,0 -1680,-752 -1681,-1679l2 0c928,0 1680,752 1680,1679z"/>
    <path class="fil1" d="M6721 15126l1 0c0,928 -752,1680 -1680,1680l-2 0c1,-928 753,-1680 1681,-1680z"/>
    <path class="fil1" d="M5333 15038l369 0 43 0c33,0 59,28 59,61l0 52c0,34 -26,61 -59,61l-15 0 0 0 -397 0 0 -174zm-208 174l-167 0 0 -174 0 0 167 0 0 174zm-375 0l-318 0 0 0 -94 0c-32,0 -58,-27 -58,-61l0 -52c0,-33 26,-61 58,-61l66 0 346 0 0 174zm376 503l0 140c0,33 -27,61 -59,61l-50 0c-33,0 -59,-28 -59,-61l0 -428 167 0 0 288 1 0zm-168 -892l0 -427c0,-34 26,-61 59,-61l50 0c31,0 56,25 58,56l0 432 -167 0z"/>
   </g>
   <g>
    <circle class="fil0" cx="8403" cy="15125" r="1681"/>
    <path class="fil1" d="M8405 13445c-1,927 -753,1679 -1681,1679l-2 0c1,-927 753,-1679 1681,-1679l2 0z"/>
    <path class="fil1" d="M6724 15126c928,0 1680,752 1681,1680l-2 0c-928,0 -1680,-752 -1681,-1680l2 0z"/>
    <path class="fil1" d="M10084 15124l-2 0c-928,0 -1680,-752 -1681,-1679l2 0c928,0 1680,752 1681,1679z"/>
    <path class="fil1" d="M10082 15126l2 0c-1,928 -753,1680 -1681,1680l-2 0c1,-928 753,-1680 1681,-1680z"/>
    <path class="fil1" d="M8694 15038l369 0 44 0c32,0 58,28 58,61l0 52c0,34 -26,61 -58,61l-15 0 0 0 -398 0 0 -174zm-207 174l-168 0 0 -174 0 0 168 0 0 174zm-376 0l-318 0 0 0 -94 0c-32,0 -58,-27 -58,-61l0 -52c0,-33 26,-61 58,-61l66 0 346 0 0 174zm376 503l0 140c0,33 -27,61 -59,61l-50 0c-33,0 -59,-28 -59,-61l0 -428 168 0 0 288 0 0zm-168 -892l0 -427c0,-34 26,-61 59,-61l50 0c31,0 56,25 59,56l0 432 -168 0z"/>
   </g>
   <g>
    <circle class="fil0" cx="11764" cy="15125" r="1681"/>
    <path class="fil1" d="M11766 13445c-1,927 -753,1679 -1681,1679l-1 0c0,-927 752,-1679 1680,-1679l2 0z"/>
    <path class="fil1" d="M10085 15126c928,0 1680,752 1681,1680l-2 0c-928,0 -1680,-752 -1680,-1680l1 0z"/>
    <path class="fil1" d="M13445 15124l-2 0c-928,0 -1680,-752 -1680,-1679l1 0c928,0 1680,752 1681,1679z"/>
    <path class="fil1" d="M13443 15126l2 0c-1,928 -753,1680 -1681,1680l-1 0c0,-928 752,-1680 1680,-1680z"/>
    <path class="fil1" d="M12055 15038l369 0 44 0c32,0 58,28 58,61l0 52c0,34 -26,61 -58,61l-15 0 0 0 -398 0 0 -174zm-207 174l-168 0 0 -174 0 0 168 0 0 174zm-375 0l-319 0 0 0 -93 0c-33,0 -59,-27 -59,-61l0 -52c0,-33 26,-61 59,-61l65 0 347 0 0 174zm375 503l0 140c0,33 -26,61 -59,61l-50 0c-32,0 -59,-28 -59,-61l0 -428 168 0 0 288 0 0zm-168 -892l0 -427c0,-34 27,-61 59,-61l50 0c31,0 56,25 59,56l0 432 -168 0z"/>
   </g>
   <g>
    <circle class="fil0" cx="15125" cy="15125" r="1681"/>
    <path class="fil1" d="M15127 13445c-1,927 -753,1679 -1681,1679l-1 0c0,-927 752,-1679 1680,-1679l2 0z"/>
    <path class="fil1" d="M13446 15126c928,0 1680,752 1681,1680l-2 0c-928,0 -1680,-752 -1680,-1680l1 0z"/>
    <path class="fil1" d="M16806 15124l-2 0c-927,0 -1680,-752 -1680,-1679l1 0c928,0 1680,752 1681,1679z"/>
    <path class="fil1" d="M16804 15126l2 0c-1,928 -753,1680 -1681,1680l-1 0c0,-928 753,-1680 1680,-1680z"/>
    <path class="fil1" d="M15417 15038l369 0 43 0c32,0 59,28 59,61l0 52c0,34 -27,61 -59,61l-15 0 0 0 -397 0 0 -174zm-208 174l-168 0 0 -174 0 0 168 0 0 174zm-375 0l-318 0 0 0 -94 0c-33,0 -59,-27 -59,-61l0 -52c0,-33 26,-61 59,-61l65 0 347 0 0 174zm375 503l0 140c0,33 -26,61 -59,61l-50 0c-32,0 -59,-28 -59,-61l0 -428 168 0 0 288 0 0zm-168 -892l0 -427c0,-34 27,-61 59,-61l50 0c31,0 57,25 59,56l0 432 -168 0z"/>
   </g>
   <g>
    <circle class="fil0" cx="18487" cy="15125" r="1681"/>
    <path class="fil1" d="M18488 13445c0,927 -753,1679 -1681,1679l-1 0c0,-927 753,-1679 1681,-1679l1 0z"/>
    <path class="fil1" d="M16807 15126c928,0 1681,752 1681,1680l-1 0c-928,0 -1681,-752 -1681,-1680l1 0z"/>
    <path class="fil1" d="M20167 15124l-1 0c-928,0 -1681,-752 -1681,-1679l2 0c927,0 1680,752 1680,1679z"/>
    <path class="fil1" d="M20166 15126l1 0c0,928 -753,1680 -1680,1680l-2 0c0,-928 753,-1680 1681,-1680z"/>
    <path class="fil1" d="M18778 15038l369 0 43 0c32,0 59,28 59,61l0 52c0,34 -27,61 -59,61l-15 0 0 0 -397 0 0 -174zm-208 174l-167 0 0 -174 0 0 167 0 0 174zm-375 0l-318 0 0 0 -94 0c-32,0 -59,-27 -59,-61l0 -52c0,-33 27,-61 59,-61l65 0 347 0 0 174zm375 503l0 140c0,33 -26,61 -58,61l-51 0c-32,0 -58,-28 -58,-61l0 -428 167 0 0 288 0 0zm-167 -892l0 -427c0,-34 26,-61 58,-61l51 0c30,0 56,25 58,56l0 432 -167 0z"/>
   </g>
  </g>
  <g id="_426650816">
   <g>
    <circle class="fil0" cx="1681" cy="18486" r="1681"/>
    <path class="fil1" d="M1682 16806c0,928 -753,1680 -1680,1680l-2 0c1,-928 753,-1680 1681,-1680l1 0z"/>
    <path class="fil1" d="M2 18487c927,0 1680,752 1680,1680l-1 0c-928,0 -1680,-752 -1681,-1680l2 0z"/>
    <path class="fil1" d="M3361 18486l-1 0c-928,0 -1680,-752 -1681,-1680l2 0c927,0 1680,752 1680,1680z"/>
    <path class="fil1" d="M3360 18487l1 0c0,928 -753,1680 -1680,1680l-2 0c1,-928 753,-1680 1681,-1680z"/>
    <path class="fil1" d="M1972 18400l369 0 43 0c32,0 59,27 59,60l0 53c0,33 -27,60 -59,60l-15 0 0 0 -397 0 0 -173zm-208 173l-167 0 0 -173 0 0 167 0 0 173zm-375 0l-318 0 0 0 -94 0c-32,0 -59,-27 -59,-60l0 -53c0,-33 27,-60 59,-60l65 0 347 0 0 173zm375 503l0 140c0,34 -26,61 -58,61l-51 0c-32,0 -58,-27 -58,-61l0 -427 167 0 0 287 0 0zm-167 -892l0 -427c0,-34 26,-61 58,-61l51 0c31,0 56,25 58,56l0 432 -167 0z"/>
   </g>
   <g>
    <circle class="fil0" cx="5042" cy="18486" r="1681"/>
    <path class="fil1" d="M5043 16806c0,928 -752,1680 -1680,1680l-2 0c1,-928 753,-1680 1681,-1680l1 0z"/>
    <path class="fil1" d="M3363 18487c928,0 1680,752 1680,1680l-1 0c-928,0 -1680,-752 -1681,-1680l2 0z"/>
    <path class="fil1" d="M6722 18486l-1 0c-928,0 -1680,-752 -1681,-1680l2 0c928,0 1680,752 1680,1680z"/>
    <path class="fil1" d="M6721 18487l1 0c0,928 -752,1680 -1680,1680l-2 0c1,-928 753,-1680 1681,-1680z"/>
    <path class="fil1" d="M5333 18400l369 0 43 0c33,0 59,27 59,60l0 53c0,33 -26,60 -59,60l-15 0 0 0 -397 0 0 -173zm-208 173l-167 0 0 -173 0 0 167 0 0 173zm-375 0l-318 0 0 0 -94 0c-32,0 -58,-27 -58,-60l0 -53c0,-33 26,-60 58,-60l66 0 346 0 0 173zm376 503l0 140c0,34 -27,61 -59,61l-50 0c-33,0 -59,-27 -59,-61l0 -427 167 0 0 287 1 0zm-168 -892l0 -427c0,-34 26,-61 59,-61l50 0c31,0 56,25 58,56l0 432 -167 0z"/>
   </g>
   <g>
    <circle class="fil0" cx="8403" cy="18486" r="1681"/>
    <path class="fil1" d="M8405 16806c-1,928 -753,1680 -1681,1680l-2 0c1,-928 753,-1680 1681,-1680l2 0z"/>
    <path class="fil1" d="M6724 18487c928,0 1680,752 1681,1680l-2 0c-928,0 -1680,-752 -1681,-1680l2 0z"/>
    <path class="fil1" d="M10084 18486l-2 0c-928,0 -1680,-752 -1681,-1680l2 0c928,0 1680,752 1681,1680z"/>
    <path class="fil1" d="M10082 18487l2 0c-1,928 -753,1680 -1681,1680l-2 0c1,-928 753,-1680 1681,-1680z"/>
    <path class="fil1" d="M8694 18400l369 0 44 0c32,0 58,27 58,60l0 53c0,33 -26,60 -58,60l-15 0 0 0 -398 0 0 -173zm-207 173l-168 0 0 -173 0 0 168 0 0 173zm-376 0l-318 0 0 0 -94 0c-32,0 -58,-27 -58,-60l0 -53c0,-33 26,-60 58,-60l66 0 346 0 0 173zm376 503l0 140c0,34 -27,61 -59,61l-50 0c-33,0 -59,-27 -59,-61l0 -427 168 0 0 287 0 0zm-168 -892l0 -427c0,-34 26,-61 59,-61l50 0c31,0 56,25 59,56l0 432 -168 0z"/>
   </g>
   <g>
    <circle class="fil0" cx="11764" cy="18486" r="1681"/>
    <path class="fil1" d="M11766 16806c-1,928 -753,1680 -1681,1680l-1 0c0,-928 752,-1680 1680,-1680l2 0z"/>
    <path class="fil1" d="M10085 18487c928,0 1680,752 1681,1680l-2 0c-928,0 -1680,-752 -1680,-1680l1 0z"/>
    <path class="fil1" d="M13445 18486l-2 0c-928,0 -1680,-752 -1680,-1680l1 0c928,0 1680,752 1681,1680z"/>
    <path class="fil1" d="M13443 18487l2 0c-1,928 -753,1680 -1681,1680l-1 0c0,-928 752,-1680 1680,-1680z"/>
    <path class="fil1" d="M12055 18400l369 0 44 0c32,0 58,27 58,60l0 53c0,33 -26,60 -58,60l-15 0 0 0 -398 0 0 -173zm-207 173l-168 0 0 -173 0 0 168 0 0 173zm-375 0l-319 0 0 0 -93 0c-33,0 -59,-27 -59,-60l0 -53c0,-33 26,-60 59,-60l65 0 347 0 0 173zm375 503l0 140c0,34 -26,61 -59,61l-50 0c-32,0 -59,-27 -59,-61l0 -427 168 0 0 287 0 0zm-168 -892l0 -427c0,-34 27,-61 59,-61l50 0c31,0 56,25 59,56l0 432 -168 0z"/>
   </g>
   <g>
    <circle class="fil0" cx="15125" cy="18486" r="1681"/>
    <path class="fil1" d="M15127 16806c-1,928 -753,1680 -1681,1680l-1 0c0,-928 752,-1680 1680,-1680l2 0z"/>
    <path class="fil1" d="M13446 18487c928,0 1680,752 1681,1680l-2 0c-928,0 -1680,-752 -1680,-1680l1 0z"/>
    <path class="fil1" d="M16806 18486l-2 0c-927,0 -1680,-752 -1680,-1680l1 0c928,0 1680,752 1681,1680z"/>
    <path class="fil1" d="M16804 18487l2 0c-1,928 -753,1680 -1681,1680l-1 0c0,-928 753,-1680 1680,-1680z"/>
    <path class="fil1" d="M15417 18400l369 0 43 0c32,0 59,27 59,60l0 53c0,33 -27,60 -59,60l-15 0 0 0 -397 0 0 -173zm-208 173l-168 0 0 -173 0 0 168 0 0 173zm-375 0l-318 0 0 0 -94 0c-33,0 -59,-27 -59,-60l0 -53c0,-33 26,-60 59,-60l65 0 347 0 0 173zm375 503l0 140c0,34 -26,61 -59,61l-50 0c-32,0 -59,-27 -59,-61l0 -427 168 0 0 287 0 0zm-168 -892l0 -427c0,-34 27,-61 59,-61l50 0c31,0 57,25 59,56l0 432 -168 0z"/>
   </g>
   <g>
    <circle class="fil0" cx="18487" cy="18486" r="1681"/>
    <path class="fil1" d="M18488 16806c0,928 -753,1680 -1681,1680l-1 0c0,-928 753,-1680 1681,-1680l1 0z"/>
    <path class="fil1" d="M16807 18487c928,0 1681,752 1681,1680l-1 0c-928,0 -1681,-752 -1681,-1680l1 0z"/>
    <path class="fil1" d="M20167 18486l-1 0c-928,0 -1681,-752 -1681,-1680l2 0c927,0 1680,752 1680,1680z"/>
    <path class="fil1" d="M20166 18487l1 0c0,928 -753,1680 -1680,1680l-2 0c0,-928 753,-1680 1681,-1680z"/>
    <path class="fil1" d="M18778 18400l369 0 43 0c32,0 59,27 59,60l0 53c0,33 -27,60 -59,60l-15 0 0 0 -397 0 0 -173zm-208 173l-167 0 0 -173 0 0 167 0 0 173zm-375 0l-318 0 0 0 -94 0c-32,0 -59,-27 -59,-60l0 -53c0,-33 27,-60 59,-60l65 0 347 0 0 173zm375 503l0 140c0,34 -26,61 -58,61l-51 0c-32,0 -58,-27 -58,-61l0 -427 167 0 0 287 0 0zm-167 -892l0 -427c0,-34 26,-61 58,-61l51 0c30,0 56,25 58,56l0 432 -167 0z"/>
   </g>
  </g>
 </g>
</svg>
