<?xml version="1.0" encoding="UTF-8"?>
<!DOCTYPE svg PUBLIC "-//W3C//DTD SVG 1.1//EN" "http://www.w3.org/Graphics/SVG/1.1/DTD/svg11.dtd">
<!-- Creator: CorelDRAW X6 -->
<svg xmlns="http://www.w3.org/2000/svg" xml:space="preserve" width="105.717mm" height="105.717mm" version="1.1" style="shape-rendering:geometricPrecision; text-rendering:geometricPrecision; image-rendering:optimizeQuality; fill-rule:evenodd; clip-rule:evenodd"
viewBox="0 0 4312 4312"
 xmlns:xlink="http://www.w3.org/1999/xlink">
 <defs>
  <style type="text/css">
   <![CDATA[
    .fil0 {fill:#4C57FF; opacity: 0.6}
   ]]>
  </style>
 </defs>
 <g id="Layer_x0020_1">
  <metadata id="CorelCorpID_0Corel-Layer"/>
  <g id="_453692080">
   <path class="fil0" d="M164 1078l556 610 556 -610 -556 -613 -556 613zm834 -2c0,-169 -125,-306 -278,-306 -154,0 -278,137 -278,306 0,169 124,306 278,306 153,0 278,-137 278,-306z"/>
   <path class="fil0" d="M1596 1078l556 610 556 -610 -556 -613 -556 613zm834 -2c0,-169 -125,-306 -278,-306 -154,0 -278,137 -278,306 0,169 124,306 278,306 153,0 278,-137 278,-306z"/>
   <path class="fil0" d="M3034 1078l557 610 556 -610 -556 -613 -557 613zm835 -2c0,-169 -125,-306 -278,-306 -154,0 -278,137 -278,306 0,169 124,306 278,306 153,0 278,-137 278,-306z"/>
   <path class="fil0" d="M882 2158l556 610 556 -610 -556 -614 -556 614zm834 -2c0,-169 -124,-306 -278,-306 -154,0 -278,137 -278,306 0,169 124,306 278,306 154,0 278,-137 278,-306z"/>
   <path class="fil0" d="M2319 2158l557 610 555 -610 -556 -614 -556 614zm834 -2c0,-169 -124,-306 -278,-306 -153,0 -278,137 -278,306 0,169 125,306 278,306 154,0 278,-137 278,-306z"/>
   <path class="fil0" d="M164 3236l556 610 556 -610 -556 -614 -556 614zm834 -2c0,-169 -125,-306 -278,-306 -154,0 -278,137 -278,306 0,169 124,306 278,306 153,0 278,-137 278,-306z"/>
   <path class="fil0" d="M0 2767l0 1 556 -610 -556 -614 0 0 0 306c154,0 278,137 278,306 0,169 -124,306 -278,306l0 305z"/>
   <path class="fil0" d="M0 611l0 1 556 -610 -1 -2 -277 0c0,169 -124,306 -278,306l0 305z"/>
   <path class="fil0" d="M882 2l556 610 556 -610 -1 -2 -277 0c0,169 -124,306 -278,306 -154,0 -278,-137 -278,-306l-277 0 -1 2z"/>
   <path class="fil0" d="M2319 2l557 610 555 -610 -1 -2 -277 0c0,169 -124,306 -278,306 -153,0 -278,-137 -278,-306l-277 0 -1 2z"/>
   <path class="fil0" d="M3756 2l556 609 0 -305c-153,0 -278,-137 -278,-306l-277 0 -1 2z"/>
   <path class="fil0" d="M3756 2158l556 609 0 -305c-153,0 -278,-137 -278,-306 0,-169 125,-306 278,-306l0 -306 -556 614z"/>
   <path class="fil0" d="M4312 3700l-555 612 277 0 0 0c0,-169 125,-306 278,-306l0 -306z"/>
   <path class="fil0" d="M3430 4312l-555 -612 -555 612 277 0 0 0c0,-169 124,-306 278,-306 154,0 278,137 278,306l0 0 277 0z"/>
   <path class="fil0" d="M1993 4312l-555 -612 -555 612 277 0 0 0c0,-169 124,-306 278,-306 153,0 278,137 278,306l0 0 277 0z"/>
   <path class="fil0" d="M555 4312l-555 -612 0 0 0 306c154,0 278,137 278,306l0 0 277 0z"/>
   <path class="fil0" d="M1596 3236l556 610 556 -610 -556 -614 -556 614zm834 -2c0,-169 -125,-306 -278,-306 -154,0 -278,137 -278,306 0,169 124,306 278,306 153,0 278,-137 278,-306z"/>
   <path class="fil0" d="M3026 3236l557 610 556 -610 -556 -614 -557 614zm835 -2c0,-169 -125,-306 -279,-306 -153,0 -278,137 -278,306 0,169 125,306 278,306 154,0 279,-137 279,-306z"/>
   <g>
    <polygon class="fil0" points="4312,1316 4312,1316 4312,1316 3581,2089 2883,1315 2171,2089 1441,1320 708,2089 0,1344 0,1198 709,1947 1441,1178 2171,1947 2882,1178 3581,1947 4312,1179 4312,1177 4312,1177 "/>
    <polygon class="fil0" points="4312,838 4312,838 4312,838 3581,65 2883,839 2171,65 1441,834 708,65 0,810 0,956 709,207 1441,976 2171,207 2882,976 3581,207 4312,975 4312,977 4312,977 "/>
    <polygon class="fil0" points="4312,3474 4312,3474 4312,3474 3581,4247 2883,3473 2171,4247 1441,3478 708,4247 0,3502 0,3356 709,4105 1441,3336 2171,4105 2882,3336 3581,4105 4312,3337 4312,3335 4312,3335 "/>
    <polygon class="fil0" points="4312,2996 4312,2996 4312,2996 3581,2223 2883,2997 2171,2223 1441,2992 708,2223 0,2968 0,3114 709,2365 1441,3134 2171,2365 2882,3134 3581,2365 4312,3133 4312,3135 4312,3135 "/>
   </g>
  </g>
 </g>
</svg>
