<?xml version="1.0" encoding="UTF-8"?>
<!DOCTYPE svg PUBLIC "-//W3C//DTD SVG 1.1//EN" "http://www.w3.org/Graphics/SVG/1.1/DTD/svg11.dtd">
<!-- Creator: CorelDRAW 2018 (64-Bit Evaluation Version) -->
<svg xmlns="http://www.w3.org/2000/svg" xml:space="preserve" width="265.619mm" height="158.75mm" version="1.1" style="shape-rendering:geometricPrecision; text-rendering:geometricPrecision; image-rendering:optimizeQuality; fill-rule:evenodd; clip-rule:evenodd"
viewBox="0 0 26561.86 15875"
 xmlns:xlink="http://www.w3.org/1999/xlink">
 <defs>
  <style type="text/css">
   <![CDATA[
    .str0 {stroke:#FBD13E;stroke-width:20;stroke-miterlimit:22.9256}
    .fil1 {fill:none}
    .fil0 {fill:#fce38b}
    .fil7 {fill:#00C2FF}
    .fil3 {fill:#6E00C3}
    .fil2 {fill:#AD41ED}
    .fil6 {fill:#FBD13E}
    .fil4 {fill:#dceeff}
    .fil5 {fill:#3B9CFF}
   ]]>
  </style>
 </defs>
 <g id="Layer_x0020_1">
  <metadata id="CorelCorpID_0Corel-Layer"/>
  <g id="_1643172997184">
   <polygon class="fil0" points="39.62,0 26522.24,0 26522.24,15875 39.62,15875 "/>
   <g>
    <polyline class="fil1 str0" points="39.62,15875 39.62,14169.34 39.62,12150.82 39.62,10132.26 39.62,8113.74 39.62,6095.22 39.62,4076.66 39.62,2058.14 39.62,39.62 39.62,0 "/>
    <polyline class="fil1 str0" points="3349.91,15875 3349.91,14169.34 3349.91,12150.82 3349.91,10132.26 3349.91,8113.74 3349.91,6095.22 3349.91,4076.66 3349.91,2058.14 3349.91,39.62 3349.91,0 "/>
    <polyline class="fil1 str0" points="6660.24,15875 6660.24,14169.34 6660.24,12150.82 6660.24,10132.26 6660.24,8113.74 6660.24,6095.22 6660.24,4076.66 6660.24,2058.14 6660.24,39.62 6660.24,0 "/>
    <polyline class="fil1 str0" points="9970.54,15875 9970.54,14169.34 9970.54,12150.82 9970.54,10132.26 9970.54,8113.74 9970.54,6095.22 9970.54,4076.66 9970.54,2058.14 9970.54,39.62 9970.54,0 "/>
    <polyline class="fil1 str0" points="13280.91,15875 13280.91,14169.34 13280.91,12150.82 13280.91,10132.26 13280.91,8113.74 13280.91,6095.22 13280.91,4076.66 13280.91,2058.14 13280.91,39.62 13280.91,0 "/>
    <polyline class="fil1 str0" points="16591.24,15875 16591.24,14169.34 16591.24,12150.82 16591.24,10132.26 16591.24,8113.74 16591.24,6095.22 16591.24,4076.66 16591.24,2058.14 16591.24,39.62 16591.24,0 "/>
    <polyline class="fil1 str0" points="19901.54,15875 19901.54,14169.34 19901.54,12150.82 19901.54,10132.26 19901.54,8113.74 19901.54,6095.22 19901.54,4076.66 19901.54,2058.14 19901.54,39.62 19901.54,0 "/>
    <polyline class="fil1 str0" points="23211.87,15875 23211.87,14169.34 23211.87,12150.82 23211.87,10132.26 23211.87,8113.74 23211.87,6095.22 23211.87,4076.66 23211.87,2058.14 23211.87,39.62 23211.87,0 "/>
    <polyline class="fil1 str0" points="26522.24,15875 26522.24,14169.34 26522.24,12150.82 26522.24,10132.26 26522.24,8113.74 26522.24,6095.22 26522.24,4076.66 26522.24,2058.14 26522.24,39.62 26522.24,0 "/>
    <polyline class="fil1 str0" points="-0,14169.34 39.62,14169.34 3349.91,14169.34 6660.24,14169.34 9970.54,14169.34 13280.91,14169.34 16591.24,14169.34 19901.54,14169.34 23211.87,14169.34 26522.24,14169.34 26561.86,14169.34 "/>
    <polyline class="fil1 str0" points="-0,12150.82 39.62,12150.82 3349.91,12150.82 6660.24,12150.82 9970.54,12150.82 13280.91,12150.82 16591.24,12150.82 19901.54,12150.82 23211.87,12150.82 26522.24,12150.82 26561.86,12150.82 "/>
    <polyline class="fil1 str0" points="-0,10132.26 39.62,10132.26 3349.91,10132.26 6660.24,10132.26 9970.54,10132.26 13280.91,10132.26 16591.24,10132.26 19901.54,10132.26 23211.87,10132.26 26522.24,10132.26 26561.86,10132.26 "/>
    <polyline class="fil1 str0" points="-0,8113.74 39.62,8113.74 3349.91,8113.74 6660.24,8113.74 9970.54,8113.74 13280.91,8113.74 16591.24,8113.74 19901.54,8113.74 23211.87,8113.74 26522.24,8113.74 26561.86,8113.74 "/>
    <polyline class="fil1 str0" points="-0,6095.22 39.62,6095.22 3349.91,6095.22 6660.24,6095.22 9970.54,6095.22 13280.91,6095.22 16591.24,6095.22 19901.54,6095.22 23211.87,6095.22 26522.24,6095.22 26561.86,6095.22 "/>
    <polyline class="fil1 str0" points="-0,4076.66 39.62,4076.66 3349.91,4076.66 6660.24,4076.66 9970.54,4076.66 13280.91,4076.66 16591.24,4076.66 19901.54,4076.66 23211.87,4076.66 26522.24,4076.66 26561.86,4076.66 "/>
    <polyline class="fil1 str0" points="-0,2058.14 39.62,2058.14 3349.91,2058.14 6660.24,2058.14 9970.54,2058.14 13280.91,2058.14 16591.24,2058.14 19901.54,2058.14 23211.87,2058.14 26522.24,2058.14 26561.86,2058.14 "/>
    <polyline class="fil1 str0" points="-0,39.62 39.62,39.62 3349.91,39.62 6660.24,39.62 9970.54,39.62 13280.91,39.62 16591.24,39.62 19901.54,39.62 23211.87,39.62 26522.24,39.62 26561.86,39.62 "/>
   </g>
   <path class="fil2" d="M25076.83 671.24c-303.95,0 -550.33,246.38 -550.33,550.33 0,303.95 246.38,550.33 550.33,550.33 303.95,0 550.33,-246.38 550.33,-550.33 0,-303.95 -246.38,-550.33 -550.33,-550.33z"/>
   <path class="fil3" d="M25076.83 2359.11c-303.95,0 -550.33,246.39 -550.33,550.33 0,303.95 246.38,550.33 550.33,550.33 303.95,0 550.33,-246.38 550.33,-550.33 0,-303.94 -246.38,-550.33 -550.33,-550.33z"/>
   <path class="fil4" d="M25076.83 4046.98c-303.95,0 -550.33,246.39 -550.33,550.33 0,303.95 246.38,550.33 550.33,550.33 303.95,0 550.33,-246.38 550.33,-550.33 0,-303.94 -246.38,-550.33 -550.33,-550.33z"/>
   <path class="fil5" d="M25076.83 5734.86c-303.95,0 -550.33,246.38 -550.33,550.33 0,303.94 246.38,550.32 550.33,550.32 303.95,0 550.33,-246.38 550.33,-550.32 0,-303.95 -246.38,-550.33 -550.33,-550.33z"/>
   <path class="fil6" d="M25076.83 7422.73c-303.95,0 -550.33,246.38 -550.33,550.33 0,303.94 246.38,550.33 550.33,550.33 303.95,0 550.33,-246.39 550.33,-550.33 0,-303.95 -246.38,-550.33 -550.33,-550.33z"/>
   <path class="fil2" d="M23130.57 671.24c-303.94,0 -550.32,246.38 -550.32,550.33 0,303.95 246.38,550.33 550.32,550.33 303.95,0 550.33,-246.38 550.33,-550.33 0,-303.95 -246.38,-550.33 -550.33,-550.33z"/>
   <path class="fil3" d="M23130.57 2359.11c-303.94,0 -550.32,246.39 -550.32,550.33 0,303.95 246.38,550.33 550.32,550.33 303.95,0 550.33,-246.38 550.33,-550.33 0,-303.94 -246.38,-550.33 -550.33,-550.33z"/>
   <path class="fil4" d="M23130.57 4046.98c-303.94,0 -550.32,246.39 -550.32,550.33 0,303.95 246.38,550.33 550.32,550.33 303.95,0 550.33,-246.38 550.33,-550.33 0,-303.94 -246.38,-550.33 -550.33,-550.33z"/>
   <path class="fil5" d="M23130.57 5734.86c-303.94,0 -550.32,246.38 -550.32,550.33 0,303.94 246.38,550.32 550.32,550.32 303.95,0 550.33,-246.38 550.33,-550.32 0,-303.95 -246.38,-550.33 -550.33,-550.33z"/>
   <path class="fil6" d="M23130.57 7422.73c-303.94,0 -550.32,246.38 -550.32,550.33 0,303.94 246.38,550.33 550.32,550.33 303.95,0 550.33,-246.39 550.33,-550.33 0,-303.95 -246.38,-550.33 -550.33,-550.33z"/>
   <path class="fil2" d="M21296.16 671.24c-303.95,0 -550.33,246.38 -550.33,550.33 0,303.95 246.38,550.33 550.33,550.33 303.94,0 550.33,-246.38 550.33,-550.33 0,-303.95 -246.39,-550.33 -550.33,-550.33z"/>
   <path class="fil3" d="M21296.16 2359.11c-303.95,0 -550.33,246.39 -550.33,550.33 0,303.95 246.38,550.33 550.33,550.33 303.94,0 550.33,-246.38 550.33,-550.33 0,-303.94 -246.39,-550.33 -550.33,-550.33z"/>
   <path class="fil4" d="M21296.16 4046.98c-303.95,0 -550.33,246.39 -550.33,550.33 0,303.95 246.38,550.33 550.33,550.33 303.94,0 550.33,-246.38 550.33,-550.33 0,-303.94 -246.39,-550.33 -550.33,-550.33z"/>
   <path class="fil5" d="M21296.16 5734.86c-303.95,0 -550.33,246.38 -550.33,550.33 0,303.94 246.38,550.32 550.33,550.32 303.94,0 550.33,-246.38 550.33,-550.32 0,-303.95 -246.39,-550.33 -550.33,-550.33z"/>
   <path class="fil6" d="M21296.16 7422.73c-303.95,0 -550.33,246.38 -550.33,550.33 0,303.94 246.38,550.33 550.33,550.33 303.94,0 550.33,-246.39 550.33,-550.33 0,-303.95 -246.39,-550.33 -550.33,-550.33z"/>
   <path class="fil2" d="M19409.41 671.24c-303.95,0 -550.33,246.38 -550.33,550.33 0,303.95 246.38,550.33 550.33,550.33 303.94,0 550.32,-246.38 550.32,-550.33 0,-303.95 -246.38,-550.33 -550.32,-550.33z"/>
   <path class="fil3" d="M19409.41 2359.11c-303.95,0 -550.33,246.39 -550.33,550.33 0,303.95 246.38,550.33 550.33,550.33 303.94,0 550.32,-246.38 550.32,-550.33 0,-303.94 -246.38,-550.33 -550.32,-550.33z"/>
   <path class="fil4" d="M19409.41 4046.98c-303.95,0 -550.33,246.39 -550.33,550.33 0,303.95 246.38,550.33 550.33,550.33 303.94,0 550.32,-246.38 550.32,-550.33 0,-303.94 -246.38,-550.33 -550.32,-550.33z"/>
   <path class="fil5" d="M19409.41 5734.86c-303.95,0 -550.33,246.38 -550.33,550.33 0,303.94 246.38,550.32 550.33,550.32 303.94,0 550.32,-246.38 550.32,-550.32 0,-303.95 -246.38,-550.33 -550.32,-550.33z"/>
   <path class="fil6" d="M19409.41 7422.73c-303.95,0 -550.33,246.38 -550.33,550.33 0,303.94 246.38,550.33 550.33,550.33 303.94,0 550.32,-246.39 550.32,-550.33 0,-303.95 -246.38,-550.33 -550.32,-550.33z"/>
   <polygon class="fil7" points="13.75,32.64 13329.72,32.64 13329.72,8161.24 13.75,8161.24 "/>
  </g>
 </g>
</svg>
