<?xml version="1.0" encoding="UTF-8"?>
<!DOCTYPE svg PUBLIC "-//W3C//DTD SVG 1.1//EN" "http://www.w3.org/Graphics/SVG/1.1/DTD/svg11.dtd">
<!-- Creator: CorelDRAW X6 -->
<svg xmlns="http://www.w3.org/2000/svg" xml:space="preserve" width="119.339mm" height="119.339mm" version="1.1" style="shape-rendering:geometricPrecision; text-rendering:geometricPrecision; image-rendering:optimizeQuality; fill-rule:evenodd; clip-rule:evenodd"
viewBox="0 0 43496 43496"
 xmlns:xlink="http://www.w3.org/1999/xlink">
 <defs>
  <style type="text/css">
   <![CDATA[
    .fil0 {fill:#ec004f}
    .fil1 {fill:#ffffff}
   ]]>
  </style>
 </defs>
 <g id="Layer_x0020_1">
  <metadata id="CorelCorpID_0Corel-Layer"/>
  <g id="_318141000">
   <g>
    <polygon class="fil1" points="43496,21774 36226,16341 28938,21670 21697,16240 14475,21717 7269,16362 0,21778 0,20777 7261,15328 14465,20713 21713,15236 28935,20657 36221,15319 43496,20756 "/>
    <polygon class="fil1" points="43496,32540 36320,27177 29055,32634 21710,27135 14513,32577 7258,27168 66,32593 0,32544 0,31543 65,31592 7245,26168 14503,31575 21704,26127 29052,31624 36324,26161 43496,31521 "/>
    <polygon class="fil1" points="43496,43446 36292,38062 29207,43496 29174,43496 21850,38047 14595,43496 14587,43496 7299,38030 70,43496 61,43496 0,43450 0,42450 65,42498 7293,37030 14592,42497 21841,37041 29102,42449 36286,37039 43496,42427 "/>
   </g>
   <g>
    <polygon class="fil1" points="43496,10664 43357,10769 36130,5363 28884,10836 21706,5463 14497,10856 7220,5448 0,10835 0,9833 7213,4450 14498,9854 21712,4440 28890,9816 36137,4337 43354,9748 43496,9641 "/>
    <path class="fil1" d="M29059 0l-50 37 -50 -37 100 0zm-14556 0l-32 24 -32 -24 64 0z"/>
    <g>
     <polygon class="fil0" points="15776,10779 15776,10779 21720,15224 27631,10782 27639,10782 27635,10779 27639,10776 27631,10776 21720,6334 15776,10779 15776,10779 15776,10779 "/>
     <polygon class="fil0" points="15761,21679 15761,21679 21704,26123 27615,21682 27624,21682 27619,21679 27624,21675 27615,21675 21704,17234 15761,21679 15761,21679 15761,21679 "/>
     <polygon class="fil0" points="15942,32610 15942,32610 21886,37054 27797,32613 27805,32613 27801,32609 27805,32606 27797,32606 21886,28165 15942,32609 15942,32609 15942,32609 "/>
     <polygon class="fil0" points="27794,43496 21886,39056 15949,43496 "/>
     <polygon class="fil0" points="30278,10876 30278,10876 36221,15321 42132,10879 42141,10879 42137,10876 42141,10873 42132,10873 36221,6431 30278,10876 30278,10876 30278,10876 "/>
     <polygon class="fil0" points="30373,21706 30373,21706 36317,26151 42228,21710 42237,21710 42232,21706 42237,21703 42228,21703 36317,17262 30373,21706 30373,21706 30373,21706 "/>
     <polygon class="fil0" points="30341,32589 30341,32589 36284,37034 42195,32592 42204,32592 42200,32589 42204,32586 42195,32586 36284,28144 30341,32589 30341,32589 30341,32589 "/>
     <polygon class="fil0" points="42192,43496 36284,39056 30348,43496 "/>
     <polygon class="fil0" points="15784,0 21716,4436 27620,0 "/>
     <polygon class="fil0" points="30338,0 36137,4337 41884,0 "/>
     <path class="fil1" d="M29009 910l-4786 3560 4801 3574 4771 -3588 -4786 -3546zm0 -869l-5920 4429 5906 4429 5920 -4443 -5906 -4415z"/>
     <path class="fil1" d="M28884 11705l-4786 3560 4801 3573 4772 -3587 -4787 -3546zm0 -869l-5920 4429 5906 4429 5920 -4443 -5906 -4415z"/>
     <path class="fil1" d="M28941 22549l-4786 3559 4800 3574 4772 -3587 -4786 -3546zm0 -870l-5920 4429 5905 4429 5920 -4442 -5905 -4416z"/>
     <path class="fil1" d="M29058 33509l-4786 3560 4801 3573 4772 -3587 -4787 -3546zm0 -870l-5920 4430 5906 4429 5920 -4443 -5906 -4416z"/>
     <g>
      <polygon class="fil1" points="43496,668 38728,4214 43496,7762 43496,8640 37594,4214 43227,0 43496,0 "/>
      <polygon class="fil1" points="43496,11531 38713,15088 43496,18649 43496,19509 43484,19517 37610,15112 43496,10662 "/>
      <polygon class="fil1" points="43496,22550 38728,26096 43496,29645 43496,30522 37594,26096 43496,21681 "/>
      <polygon class="fil1" points="43496,33366 38728,36912 43496,40461 43496,41338 37594,36912 43496,32497 "/>
     </g>
     <g>
      <polygon class="fil0" points="1324,10876 1324,10876 7267,15321 13178,10879 13187,10879 13183,10876 13187,10873 13178,10873 7267,6431 1324,10876 1324,10876 1324,10876 "/>
      <polygon class="fil0" points="1300,21716 1301,21716 7244,26161 13155,21719 13164,21719 13159,21716 13164,21713 13155,21713 7244,17271 1301,21716 1300,21716 1300,21716 "/>
      <polygon class="fil0" points="1382,32595 1383,32595 7326,37040 13220,32546 7326,28150 1383,32595 1382,32595 1383,32595 "/>
      <polygon class="fil0" points="13234,43496 7326,39056 1390,43496 "/>
      <polygon class="fil0" points="1277,0 7214,4439 13122,0 "/>
      <g>
       <polygon class="fil0" points="0,7911 4730,4355 0,850 0,0 25,0 5849,4355 0,8744 "/>
       <polygon class="fil0" points="0,18777 4730,15221 0,11716 0,10848 5849,15221 0,19611 "/>
       <polygon class="fil0" points="0,29700 4730,26143 0,22639 0,21770 5849,26143 0,30533 "/>
       <polygon class="fil0" points="0,40514 4730,36958 0,33453 0,32584 5849,36958 0,41347 "/>
      </g>
      <path class="fil1" d="M14463 906l-4786 3559 4800 3574 4772 -3587 -4786 -3546zm0 -870l-5920 4429 5905 4429 5920 -4442 -5905 -4416z"/>
      <path class="fil1" d="M14497 11727l-4786 3560 4801 3574 4771 -3588 -4786 -3546zm0 -869l-5920 4429 5906 4429 5920 -4443 -5906 -4415z"/>
      <path class="fil1" d="M14475 22596l-4786 3560 4801 3573 4772 -3587 -4787 -3546zm0 -869l-5920 4429 5906 4429 5920 -4443 -5906 -4415z"/>
      <path class="fil1" d="M14597 33462l-4786 3560 4801 3574 4771 -3588 -4786 -3546zm0 -869l-5920 4429 5906 4429 5920 -4443 -5906 -4415z"/>
     </g>
    </g>
   </g>
  </g>
 </g>
</svg>
