<?xml version="1.0" encoding="UTF-8"?>
<!DOCTYPE svg PUBLIC "-//W3C//DTD SVG 1.1//EN" "http://www.w3.org/Graphics/SVG/1.1/DTD/svg11.dtd">
<!-- Creator: CorelDRAW X6 -->
<svg xmlns="http://www.w3.org/2000/svg" xml:space="preserve" width="183.957mm" height="183.957mm" version="1.1" style="shape-rendering:geometricPrecision; text-rendering:geometricPrecision; image-rendering:optimizeQuality; fill-rule:evenodd; clip-rule:evenodd"
viewBox="0 0 19815 19815"
 xmlns:xlink="http://www.w3.org/1999/xlink">
 <defs>
  <style type="text/css">
   <![CDATA[
    .fil0 {fill:#4C57FF}
    .fil1 {fill:#13ECAB}
   ]]>
  </style>
 </defs>
 <g id="Layer_x0020_1">
  <metadata id="CorelCorpID_0Corel-Layer"/>
  <g id="_324642792">
   <path class="fil1" d="M1774 0l0 5c0,929 -781,1682 -1745,1682 -10,0 -19,0 -29,0l0 -1687 1774 0z"/>
   <path class="fil1" d="M18039 19815l0 -3c0,-930 781,-1683 1745,-1683 10,0 20,0 31,0l0 1686 -1776 0z"/>
   <path class="fil1" d="M9680 0l0 5c0,929 -781,1682 -1745,1682 -964,0 -1745,-753 -1745,-1682l0 -5 3490 0z"/>
   <path class="fil1" d="M10133 19815l0 -3c0,-930 781,-1683 1745,-1683 964,0 1745,753 1745,1683l0 3 -3490 0z"/>
   <polygon class="fil0" points="1774,2809 1773,1612 261,2211 "/>
   <polygon class="fil0" points="18039,17008 18040,18205 19552,17605 "/>
   <g>
    <polygon class="fil0" points="9680,2809 9679,1612 8167,2211 "/>
    <polygon class="fil0" points="6190,2809 6191,1612 7704,2211 "/>
   </g>
   <g>
    <polygon class="fil0" points="10133,17008 10134,18205 11646,17605 "/>
    <polygon class="fil0" points="13623,17008 13622,18205 12109,17605 "/>
   </g>
   <path class="fil1" d="M29 2731c964,0 1745,753 1745,1682 0,930 -781,1683 -1745,1683 -10,0 -19,0 -29,0l0 -3365c10,0 19,0 29,0z"/>
   <path class="fil1" d="M19784 17085c-964,0 -1745,-753 -1745,-1682 0,-930 781,-1683 1745,-1683 10,0 20,0 31,0l0 3365c-11,0 -21,0 -31,0z"/>
   <path class="fil1" d="M7935 2731c964,0 1745,753 1745,1682 0,930 -781,1683 -1745,1683 -964,0 -1745,-753 -1745,-1683 0,-929 781,-1682 1745,-1682z"/>
   <path class="fil1" d="M11878 17085c-964,0 -1745,-753 -1745,-1682 0,-930 781,-1683 1745,-1683 964,0 1745,753 1745,1683 0,929 -781,1682 -1745,1682z"/>
   <polygon class="fil0" points="1774,7218 1773,6021 261,6620 "/>
   <polygon class="fil0" points="18039,12599 18040,13796 19552,13196 "/>
   <g>
    <polygon class="fil0" points="9680,7218 9679,6021 8167,6620 "/>
    <polygon class="fil0" points="6190,7218 6191,6021 7704,6620 "/>
   </g>
   <g>
    <polygon class="fil0" points="10133,12599 10134,13796 11646,13196 "/>
    <polygon class="fil0" points="13623,12599 13622,13796 12109,13196 "/>
   </g>
   <path class="fil1" d="M29 7115c964,0 1745,753 1745,1682 0,930 -781,1683 -1745,1683 -10,0 -19,0 -29,0l0 -3365c10,0 19,0 29,0z"/>
   <path class="fil1" d="M19784 12702c-964,0 -1745,-754 -1745,-1683 0,-929 781,-1683 1745,-1683 10,0 20,0 31,1l0 3364c-11,0 -21,1 -31,1z"/>
   <path class="fil1" d="M7935 7115c964,0 1745,753 1745,1682 0,930 -781,1683 -1745,1683 -964,0 -1745,-753 -1745,-1683 0,-929 781,-1682 1745,-1682z"/>
   <path class="fil1" d="M11878 12702c-964,0 -1745,-754 -1745,-1683 0,-929 781,-1683 1745,-1683 964,0 1745,754 1745,1683 0,929 -781,1683 -1745,1683z"/>
   <polygon class="fil0" points="1774,11601 1773,10404 261,11004 "/>
   <polygon class="fil0" points="18039,8215 18040,9412 19552,8812 "/>
   <g>
    <polygon class="fil0" points="9680,11601 9679,10404 8167,11004 "/>
    <polygon class="fil0" points="6190,11601 6191,10404 7704,11004 "/>
   </g>
   <g>
    <polygon class="fil0" points="10133,8215 10134,9412 11646,8812 "/>
    <polygon class="fil0" points="13623,8215 13622,9412 12109,8812 "/>
   </g>
   <path class="fil1" d="M29 11492c964,0 1745,753 1745,1683 0,929 -781,1682 -1745,1682 -10,0 -19,0 -29,0l0 -3365c10,0 19,0 29,0z"/>
   <path class="fil1" d="M19784 8324c-964,0 -1745,-753 -1745,-1682 0,-930 781,-1683 1745,-1683 10,0 20,0 31,0l0 3365c-11,0 -21,0 -31,0z"/>
   <path class="fil1" d="M7935 11492c964,0 1745,753 1745,1683 0,929 -781,1682 -1745,1682 -964,0 -1745,-753 -1745,-1682 0,-930 781,-1683 1745,-1683z"/>
   <path class="fil1" d="M11878 8324c-964,0 -1745,-753 -1745,-1682 0,-930 781,-1683 1745,-1683 964,0 1745,753 1745,1683 0,929 -781,1682 -1745,1682z"/>
   <polygon class="fil0" points="1774,15979 1773,14782 261,15381 "/>
   <polygon class="fil0" points="18039,3838 18040,5035 19552,4435 "/>
   <g>
    <polygon class="fil0" points="9680,15979 9679,14782 8167,15381 "/>
    <polygon class="fil0" points="6190,15979 6191,14782 7704,15381 "/>
   </g>
   <g>
    <polygon class="fil0" points="10133,3838 10134,5035 11646,4435 "/>
    <polygon class="fil0" points="13623,3838 13622,5035 12109,4435 "/>
   </g>
   <path class="fil1" d="M29 15925c964,0 1745,754 1745,1683 0,929 -781,1683 -1745,1683 -10,0 -19,-1 -29,-1l0 -3364c10,-1 19,-1 29,-1z"/>
   <path class="fil1" d="M19784 3891c-964,0 -1745,-753 -1745,-1683 0,-929 781,-1682 1745,-1682 10,0 20,0 31,0l0 3365c-11,0 -21,0 -31,0z"/>
   <path class="fil1" d="M7935 15925c964,0 1745,754 1745,1683 0,929 -781,1683 -1745,1683 -964,0 -1745,-754 -1745,-1683 0,-929 781,-1683 1745,-1683z"/>
   <path class="fil1" d="M11878 3891c-964,0 -1745,-753 -1745,-1683 0,-929 781,-1682 1745,-1682 964,0 1745,753 1745,1682 0,930 -781,1683 -1745,1683z"/>
   <polygon class="fil0" points="1774,19815 1773,19215 261,19815 261,19815 "/>
   <polygon class="fil0" points="18039,0 18040,601 19552,2 19548,0 "/>
   <g>
    <g>
     <polygon class="fil0" points="5727,601 5727,0 4223,0 4214,4 "/>
     <polygon class="fil0" points="2237,601 2237,0 3741,0 3750,4 "/>
    </g>
    <path class="fil1" d="M3982 517c964,0 1745,753 1745,1682 0,930 -781,1683 -1745,1683 -964,0 -1745,-753 -1745,-1683 0,-929 781,-1682 1745,-1682z"/>
    <g>
     <polygon class="fil0" points="5727,5003 5726,3806 4214,4406 "/>
     <polygon class="fil0" points="2237,5003 2238,3806 3750,4406 "/>
    </g>
    <path class="fil1" d="M3982 4926c964,0 1745,753 1745,1682 0,929 -781,1683 -1745,1683 -964,0 -1745,-754 -1745,-1683 0,-929 781,-1682 1745,-1682z"/>
    <g>
     <polygon class="fil0" points="5727,9412 5726,8215 4214,8815 "/>
     <polygon class="fil0" points="2237,9412 2238,8215 3750,8815 "/>
    </g>
    <path class="fil1" d="M3982 9309c964,0 1745,754 1745,1683 0,929 -781,1683 -1745,1683 -964,0 -1745,-754 -1745,-1683 0,-929 781,-1683 1745,-1683z"/>
    <g>
     <polygon class="fil0" points="5727,13796 5726,12599 4214,13199 "/>
     <polygon class="fil0" points="2237,13796 2238,12599 3750,13199 "/>
    </g>
    <path class="fil1" d="M3982 13687c964,0 1745,753 1745,1682 0,930 -781,1683 -1745,1683 -964,0 -1745,-753 -1745,-1683 0,-929 781,-1682 1745,-1682z"/>
    <g>
     <polygon class="fil0" points="5727,18173 5726,16976 4214,17576 "/>
     <polygon class="fil0" points="2237,18173 2238,16976 3750,17576 "/>
    </g>
    <path class="fil1" d="M3982 18120c964,0 1745,753 1745,1683 0,4 0,8 0,12l-3490 0c0,-4 0,-8 0,-12 0,-930 781,-1683 1745,-1683z"/>
   </g>
   <g>
    <g>
     <polygon class="fil0" points="14086,19215 14087,19815 15594,19815 15599,19812 "/>
     <polygon class="fil0" points="17576,19215 17576,19815 16068,19815 16063,19812 "/>
    </g>
    <path class="fil1" d="M15831 19300c-964,0 -1745,-754 -1745,-1683 0,-929 781,-1683 1745,-1683 964,0 1745,754 1745,1683 0,929 -781,1683 -1745,1683z"/>
    <g>
     <polygon class="fil0" points="14086,14813 14087,16010 15599,15410 "/>
     <polygon class="fil0" points="17576,14813 17575,16010 16063,15410 "/>
    </g>
    <path class="fil1" d="M15831 14891c-964,0 -1745,-754 -1745,-1683 0,-929 781,-1683 1745,-1683 964,0 1745,754 1745,1683 0,929 -781,1683 -1745,1683z"/>
    <g>
     <polygon class="fil0" points="14086,10404 14087,11601 15599,11001 "/>
     <polygon class="fil0" points="17576,10404 17575,11601 16063,11001 "/>
    </g>
    <path class="fil1" d="M15831 10507c-964,0 -1745,-754 -1745,-1683 0,-929 781,-1683 1745,-1683 964,0 1745,754 1745,1683 0,929 -781,1683 -1745,1683z"/>
    <g>
     <polygon class="fil0" points="14086,6020 14087,7217 15599,6618 "/>
     <polygon class="fil0" points="17576,6020 17575,7217 16063,6618 "/>
    </g>
    <path class="fil1" d="M15831 6130c-964,0 -1745,-754 -1745,-1683 0,-929 781,-1683 1745,-1683 964,0 1745,754 1745,1683 0,929 -781,1683 -1745,1683z"/>
    <g>
     <polygon class="fil0" points="14086,1643 14087,2840 15599,2240 "/>
     <polygon class="fil0" points="17576,1643 17575,2840 16063,2240 "/>
    </g>
    <path class="fil1" d="M15831 1696c-964,0 -1745,-753 -1745,-1682 0,-5 0,-9 0,-14l3490 0c0,5 0,9 0,14 0,929 -781,1682 -1745,1682z"/>
   </g>
   <g>
    <polygon class="fil0" points="9680,19815 9679,19215 8167,19815 8167,19815 "/>
    <polygon class="fil0" points="6191,19815 6191,19215 7704,19815 7704,19815 "/>
   </g>
   <g>
    <polygon class="fil0" points="10133,0 10134,601 11646,2 11642,0 "/>
    <polygon class="fil0" points="13622,0 13622,601 12109,2 12114,0 "/>
   </g>
  </g>
 </g>
</svg>
