<?xml version="1.0" encoding="UTF-8"?>
<!DOCTYPE svg PUBLIC "-//W3C//DTD SVG 1.1//EN" "http://www.w3.org/Graphics/SVG/1.1/DTD/svg11.dtd">
<!-- Creator: CorelDRAW 2018 (64-Bit Evaluation Version) -->
<svg xmlns="http://www.w3.org/2000/svg" xml:space="preserve" width="263.337mm" height="158.75mm" version="1.1" style="shape-rendering:geometricPrecision; text-rendering:geometricPrecision; image-rendering:optimizeQuality; fill-rule:evenodd; clip-rule:evenodd"
viewBox="0 0 26333.72 15875.01"
 xmlns:xlink="http://www.w3.org/1999/xlink">
 <defs>
  <style type="text/css">
   <![CDATA[
    .fil6 {fill:#006648}
    .fil0 {fill:#FFC83A}
    .fil2 {fill:#FFC83A}
    .fil1 {fill:#FFC83A}
    .fil5 {fill:#FFC83A}
    .fil3 {fill:#fce38b}
    .fil4 {fill:#006648}
   ]]>
  </style>
 </defs>
 <g id="Layer_x0020_1">
  <metadata id="CorelCorpID_0Corel-Layer"/>
  <g id="_1607317290528">
   <polygon class="fil0" points="-0,0 26319.09,0 26319.09,15875.01 -0,15875.01 "/>
   <g>
    <path class="fil1" d="M449.4 8759.12c269.2,0 487.41,218.21 487.41,487.41 0,269.19 -218.21,487.4 -487.41,487.4 -189.82,0 -354.28,-108.53 -434.77,-266.91l0 -440.98c80.49,-158.39 244.95,-266.92 434.77,-266.92z"/>
    <path class="fil2" d="M449.4 10254c269.2,0 487.41,218.21 487.41,487.4 0,269.19 -218.21,487.4 -487.41,487.4 -189.82,0 -354.28,-108.52 -434.77,-266.91l0 -440.98c80.49,-158.39 244.95,-266.91 434.77,-266.91z"/>
    <path class="fil3" d="M449.4 11748.87c269.2,0 487.41,218.21 487.41,487.41 0,269.19 -218.21,487.4 -487.41,487.4 -189.82,0 -354.28,-108.53 -434.77,-266.91l0 -440.98c80.49,-158.39 244.95,-266.92 434.77,-266.92z"/>
    <path class="fil4" d="M449.4 13243.75c269.2,0 487.41,218.21 487.41,487.4 0,269.2 -218.21,487.41 -487.41,487.41 -189.82,0 -354.28,-108.53 -434.77,-266.92l0 -440.98c80.49,-158.38 244.95,-266.91 434.77,-266.91z"/>
    <path class="fil5" d="M449.4 14738.63c269.2,0 487.41,218.21 487.41,487.4 0,269.19 -218.21,487.4 -487.41,487.4 -189.82,0 -354.28,-108.52 -434.77,-266.91l0 -440.98c80.49,-158.39 244.95,-266.91 434.77,-266.91z"/>
    <path class="fil1" d="M1941.02 8759.12c269.19,0 487.4,218.21 487.4,487.41 0,269.19 -218.21,487.4 -487.4,487.4 -269.2,0 -487.41,-218.21 -487.41,-487.4 0,-269.2 218.21,-487.41 487.41,-487.41z"/>
    <path class="fil2" d="M1941.02 10254c269.19,0 487.4,218.21 487.4,487.4 0,269.19 -218.21,487.4 -487.4,487.4 -269.2,0 -487.41,-218.21 -487.41,-487.4 0,-269.19 218.21,-487.4 487.41,-487.4z"/>
    <path class="fil3" d="M1941.02 11748.87c269.19,0 487.4,218.21 487.4,487.41 0,269.19 -218.21,487.4 -487.4,487.4 -269.2,0 -487.41,-218.21 -487.41,-487.4 0,-269.2 218.21,-487.41 487.41,-487.41z"/>
    <path class="fil4" d="M1941.02 13243.75c269.19,0 487.4,218.21 487.4,487.4 0,269.2 -218.21,487.41 -487.4,487.41 -269.2,0 -487.41,-218.21 -487.41,-487.41 0,-269.19 218.21,-487.4 487.41,-487.4z"/>
    <path class="fil5" d="M1941.02 14738.63c269.19,0 487.4,218.21 487.4,487.4 0,269.19 -218.21,487.4 -487.4,487.4 -269.2,0 -487.41,-218.21 -487.41,-487.4 0,-269.19 218.21,-487.4 487.41,-487.4z"/>
    <path class="fil1" d="M3652.21 8759.12c269.19,0 487.4,218.21 487.4,487.41 0,269.19 -218.21,487.4 -487.4,487.4 -269.19,0 -487.4,-218.21 -487.4,-487.4 0,-269.2 218.21,-487.41 487.4,-487.41z"/>
    <path class="fil2" d="M3652.21 10254c269.19,0 487.4,218.21 487.4,487.4 0,269.19 -218.21,487.4 -487.4,487.4 -269.19,0 -487.4,-218.21 -487.4,-487.4 0,-269.19 218.21,-487.4 487.4,-487.4z"/>
    <path class="fil3" d="M3652.21 11748.87c269.19,0 487.4,218.21 487.4,487.41 0,269.19 -218.21,487.4 -487.4,487.4 -269.19,0 -487.4,-218.21 -487.4,-487.4 0,-269.2 218.21,-487.41 487.4,-487.41z"/>
    <path class="fil4" d="M3652.21 13243.75c269.19,0 487.4,218.21 487.4,487.4 0,269.2 -218.21,487.41 -487.4,487.41 -269.19,0 -487.4,-218.21 -487.4,-487.41 0,-269.19 218.21,-487.4 487.4,-487.4z"/>
    <path class="fil5" d="M3652.21 14738.63c269.19,0 487.4,218.21 487.4,487.4 0,269.19 -218.21,487.4 -487.4,487.4 -269.19,0 -487.4,-218.21 -487.4,-487.4 0,-269.19 218.21,-487.4 487.4,-487.4z"/>
    <path class="fil1" d="M5375.93 8759.12c269.19,0 487.4,218.21 487.4,487.41 0,269.19 -218.21,487.4 -487.4,487.4 -269.2,0 -487.41,-218.21 -487.41,-487.4 0,-269.2 218.21,-487.41 487.41,-487.41z"/>
    <path class="fil2" d="M5375.93 10254c269.19,0 487.4,218.21 487.4,487.4 0,269.19 -218.21,487.4 -487.4,487.4 -269.2,0 -487.41,-218.21 -487.41,-487.4 0,-269.19 218.21,-487.4 487.41,-487.4z"/>
    <path class="fil3" d="M5375.93 11748.87c269.19,0 487.4,218.21 487.4,487.41 0,269.19 -218.21,487.4 -487.4,487.4 -269.2,0 -487.41,-218.21 -487.41,-487.4 0,-269.2 218.21,-487.41 487.41,-487.41z"/>
    <path class="fil4" d="M5375.93 13243.75c269.19,0 487.4,218.21 487.4,487.4 0,269.2 -218.21,487.41 -487.4,487.41 -269.2,0 -487.41,-218.21 -487.41,-487.41 0,-269.19 218.21,-487.4 487.41,-487.4z"/>
    <path class="fil5" d="M5375.93 14738.63c269.19,0 487.4,218.21 487.4,487.4 0,269.19 -218.21,487.4 -487.4,487.4 -269.2,0 -487.41,-218.21 -487.41,-487.4 0,-269.19 218.21,-487.4 487.41,-487.4z"/>
    <path class="fil1" d="M7000.6 8759.12c269.19,0 487.41,218.21 487.41,487.41 0,269.19 -218.22,487.4 -487.41,487.4 -269.19,0 -487.4,-218.21 -487.4,-487.4 0,-269.2 218.21,-487.41 487.4,-487.41z"/>
    <path class="fil2" d="M7000.6 10254c269.19,0 487.41,218.21 487.41,487.4 0,269.19 -218.22,487.4 -487.41,487.4 -269.19,0 -487.4,-218.21 -487.4,-487.4 0,-269.19 218.21,-487.4 487.4,-487.4z"/>
    <path class="fil3" d="M7000.6 11748.87c269.19,0 487.41,218.21 487.41,487.41 0,269.19 -218.22,487.4 -487.41,487.4 -269.19,0 -487.4,-218.21 -487.4,-487.4 0,-269.2 218.21,-487.41 487.4,-487.41z"/>
    <path class="fil4" d="M7000.6 13243.75c269.19,0 487.41,218.21 487.41,487.4 0,269.2 -218.22,487.41 -487.41,487.41 -269.19,0 -487.4,-218.21 -487.4,-487.41 0,-269.19 218.21,-487.4 487.4,-487.4z"/>
    <path class="fil5" d="M7000.6 14738.63c269.19,0 487.41,218.21 487.41,487.4 0,269.19 -218.22,487.4 -487.41,487.4 -269.19,0 -487.4,-218.21 -487.4,-487.4 0,-269.19 218.21,-487.4 487.4,-487.4z"/>
    <path class="fil1" d="M8671.62 8759.12c269.19,0 487.4,218.21 487.4,487.41 0,269.19 -218.21,487.4 -487.4,487.4 -269.19,0 -487.4,-218.21 -487.4,-487.4 0,-269.2 218.21,-487.41 487.4,-487.41z"/>
    <path class="fil2" d="M8671.62 10254c269.19,0 487.4,218.21 487.4,487.4 0,269.19 -218.21,487.4 -487.4,487.4 -269.19,0 -487.4,-218.21 -487.4,-487.4 0,-269.19 218.21,-487.4 487.4,-487.4z"/>
    <path class="fil3" d="M8671.62 11748.87c269.19,0 487.4,218.21 487.4,487.41 0,269.19 -218.21,487.4 -487.4,487.4 -269.19,0 -487.4,-218.21 -487.4,-487.4 0,-269.2 218.21,-487.41 487.4,-487.41z"/>
    <path class="fil4" d="M8671.62 13243.75c269.19,0 487.4,218.21 487.4,487.4 0,269.2 -218.21,487.41 -487.4,487.41 -269.19,0 -487.4,-218.21 -487.4,-487.41 0,-269.19 218.21,-487.4 487.4,-487.4z"/>
    <path class="fil5" d="M8671.62 14738.63c269.19,0 487.4,218.21 487.4,487.4 0,269.19 -218.21,487.4 -487.4,487.4 -269.19,0 -487.4,-218.21 -487.4,-487.4 0,-269.19 218.21,-487.4 487.4,-487.4z"/>
   </g>
   <rect class="fil4" x="18512.25" y="8658.94" width="7821.47" height="408.35"/>
   <rect class="fil4" x="18512.25" y="10144.31" width="7821.47" height="408.35"/>
   <rect class="fil4" x="18512.25" y="11629.68" width="7821.47" height="408.35"/>
   <circle class="fil3" cx="22318.55" cy="4013.43" r="2135.25"/>
   <path class="fil5" d="M22205.92 6145.71c-1126.89,-58.57 -2022.62,-990.81 -2022.62,-2132.28 0,-1141.48 895.73,-2073.73 2022.62,-2132.3l0 4264.58z"/>
   <polygon class="fil6" points="6138.84,7180.94 7279.09,5995.08 2991.8,1616.58 6770.67,1618.54 6769.95,8.6 4.77,8.6 7.15,6729.61 1712.31,6730.09 1714.73,2939.23 "/>
  </g>
 </g>
</svg>
