<svg xmlns="http://www.w3.org/2000/svg" xmlns:xlink="http://www.w3.org/1999/xlink" width="234" height="100" viewBox="0 0 234 100">
  <defs>
    <style>
      .cls-1 {
        clip-path: url(#clip-Kpay_90px__2);
      }

      .cls-2 {
        fill: #2c2c2c;
      }

      .cls-3 {
        fill: #FFFFFF;
      }
    </style>
    <clipPath id="clip-Kpay_90px__2">
      <rect width="234" height="100"/>
    </clipPath>
  </defs>
  <g id="Kpay_90px__2" data-name="Kpay – 90px _2" class="cls-1">
    <g id="Group_1862" data-name="Group 1862" transform="translate(-9052 -1989.742)">
      <g id="Group_1854" data-name="Group 1854" transform="translate(9074 1994.742)">
        <g id="Group_1847" data-name="Group 1847" transform="translate(10.354 63.904)">
          <path id="Wheel_2_4_" class="cls-2" d="M81.83,432.09a13.048,13.048,0,1,1-13.049,13.048A13.049,13.049,0,0,1,81.83,432.09Z" transform="translate(-68.781 -432.09)"/>
          <path id="Wheel_1_4_" class="cls-2" d="M316.027,432.09a13.061,13.061,0,1,1-13.045,13.048A13.05,13.05,0,0,1,316.027,432.09Z" transform="translate(-266.873 -432.09)"/>
        </g>
        <path id="Cart_4_" class="cls-2" d="M104.226,85.609H88.057c-2.617-8.17-12.238-13.487-21.911-13.36-9.228.122-18.293,5.979-20.418,13.36H28.973A3.671,3.671,0,0,0,25.2,89.179v59.8a3.668,3.668,0,0,0,3.772,3.569h75.253A3.669,3.669,0,0,0,108,148.983v-59.8A3.673,3.673,0,0,0,104.226,85.609Zm-18.946,0H48.542c2.206-5.525,9.783-11.1,17.6-11.165C74.2,74.374,82.411,78.809,85.28,85.609Z" transform="translate(-25.201 -72.247)"/>
        <g id="XMLID_1_" transform="translate(19.234 26.572)">
          <path id="XMLID_2_" class="cls-3" d="M174.666,195.6v-7.086l9.464,12.858h18.693l-2.525-4.527-15.955-2.31,13.895-.869-2.669-3.924-14.443-1.908,12.346-1.194-2.591-3.733-16.84-1.444,15.511-1.617c.877-1.279,2.99-4.281,2.99-4.281l-11.416-2.858s13.086.507,13.448,0c1.587-2.222,2.821-3.928,2.821-3.928l-13.051-2.208,15.955-.77,2.527-4.6h-19.3l-8.857,12.829V161.2h-16.69s.075,13.21,0,27.65L157.9,201.37h16.766Z" transform="translate(-157.9 -161.197)"/>
        </g>
      </g>
      <g id="pay_2x_1_" data-name="pay@2x (1)" transform="translate(9163.621 2031.795)">
        <path id="Path_3084" data-name="Path 3084" class="cls-2" d="M70.015-601.562a20.209,20.209,0,0,0-7.632,1.644,5.464,5.464,0,0,0-3.165,3.233l-.184.546-.02,17.413L59-561.32l3.253-.014,3.26-.021v-11.752l.239.1a20.825,20.825,0,0,0,2.858.907c3.976.8,7.271.552,10.033-.757a12.051,12.051,0,0,0,6.063-7.216,18.908,18.908,0,0,0,.873-6.855,21.913,21.913,0,0,0-.627-5.3,11.914,11.914,0,0,0-5.252-7.469A17.4,17.4,0,0,0,70.015-601.562Zm2.8,5.7a5.741,5.741,0,0,1,3.8,1.685c1.357,1.35,2.08,3.526,2.223,6.718.293,6.227-1.732,9.6-6.159,10.258a14.246,14.246,0,0,1-1.473.061,10.73,10.73,0,0,1-5.013-1.132l-.641-.314v-3.792c-.007-9.365.007-11.684.061-11.834.321-.846,2.073-1.528,4.324-1.678A13.518,13.518,0,0,1,72.812-595.866Z" transform="translate(-59 601.603)"/>
        <path id="Path_3085" data-name="Path 3085" class="cls-2" d="M498.429-600.62a24.4,24.4,0,0,0-8.669,2.067l-.4.225-.021,3.042c-.007,1.678,0,3.049.027,3.049s.334-.2.7-.437a14.318,14.318,0,0,1,4.747-1.944,14.112,14.112,0,0,1,6.22-.211,6.026,6.026,0,0,1,2.933,1.46,4.948,4.948,0,0,1,1.153,2.223,24.253,24.253,0,0,1,.13,3.942c-.034-.014-.423-.2-.873-.423a16.291,16.291,0,0,0-5.02-1.419,26.5,26.5,0,0,0-4.774.034c-4.311.668-6.875,2.858-7.632,6.514a13.727,13.727,0,0,0-.007,4.979,6.829,6.829,0,0,0,2.237,3.97,10.572,10.572,0,0,0,5.607,2.524,21.377,21.377,0,0,0,4.74.314c5.579-.13,8.976-1.043,10.824-2.912a5.281,5.281,0,0,0,1.412-3.083c.1-.737.1-14.821,0-15.721a8.16,8.16,0,0,0-2.3-5.109,7.812,7.812,0,0,0-2.367-1.685C504.684-600.416,502.112-600.832,498.429-600.62Zm2.114,16.322a15.46,15.46,0,0,1,4.113.8l.628.211v2.681c0,1.685-.027,2.817-.075,3.035-.266,1.248-1.616,1.733-5.074,1.814a10.822,10.822,0,0,1-2.23-.068,7.892,7.892,0,0,1-2.448-.8,3.527,3.527,0,0,1-1.937-2,5.284,5.284,0,0,1-.143-2.585c.45-1.9,2.176-2.94,5.156-3.1.471-.027.928-.041,1.023-.034S500.093-584.319,500.544-584.3Z" transform="translate(-457.54 600.737)"/>
        <path id="Path_3086" data-name="Path 3086" class="cls-2" d="M877.29-590.918c.157.382,8.355,20.462,9.74,23.872L888.8-562.7l-.273.825a8.213,8.213,0,0,1-1.848,3.281,4.043,4.043,0,0,1-3.206,1.221,10.959,10.959,0,0,1-1.248-.061,15.275,15.275,0,0,1-1.651-.457c-.089-.041-.1.293-.089,2.776l.021,2.824.764.252a9.3,9.3,0,0,0,2.919.512,5.556,5.556,0,0,0,1.705-.116c2.285-.464,3.915-1.548,5.811-3.854a22.79,22.79,0,0,0,2.906-5.456c1.064-2.694,11.643-29.976,11.643-30.01S904.7-591,902.786-591h-3.472l-.136.389c-.409,1.187-7.046,20.032-7.059,20.046s-1.657-4.577-3.663-10.19l-3.649-10.21-3.779-.021A21.43,21.43,0,0,0,877.29-590.918Z" transform="translate(-821.478 591.723)"/>
      </g>
    </g>
  </g>
</svg>
