<svg xmlns="http://www.w3.org/2000/svg" xmlns:xlink="http://www.w3.org/1999/xlink" width="231" height="111" viewBox="0 0 231 111">
  <defs>
    <style>
      .cls-1 {
        clip-path: url(#clip-Kshopit_90px_2);
      }

      .cls-2, .cls-4 {
        fill: #fb0028;
      }

      .cls-3 {
        fill: #FFFFFF;
      }

      .cls-4 {
        fill-rule: evenodd;
      }
    </style>
    <clipPath id="clip-Kshopit_90px_2">
      <rect width="231" height="111"/>
    </clipPath>
  </defs>
  <g id="Kshopit_90px_2" data-name="Kshopit – 90px_2" class="cls-1">
    <g id="Group_1868" data-name="Group 1868" transform="translate(-9056.571 -3661.742)">
      <g id="Group_1855" data-name="Group 1855" transform="translate(9074 3672.742)">
        <g id="Group_1848" data-name="Group 1848" transform="translate(10.354 63.904)">
          <path id="Wheel_2_4_" class="cls-2" d="M81.83,432.09a13.048,13.048,0,1,1-13.049,13.048A13.049,13.049,0,0,1,81.83,432.09Z" transform="translate(-68.781 -432.09)"/>
          <path id="Wheel_1_4_" class="cls-2" d="M316.027,432.09a13.061,13.061,0,1,1-13.045,13.048A13.05,13.05,0,0,1,316.027,432.09Z" transform="translate(-266.873 -432.09)"/>
        </g>
        <path id="Cart_4_" class="cls-2" d="M104.226,85.609H88.057c-2.617-8.17-12.238-13.487-21.911-13.36-9.228.122-18.293,5.979-20.418,13.36H28.973A3.671,3.671,0,0,0,25.2,89.179v59.8a3.668,3.668,0,0,0,3.772,3.569h75.253A3.669,3.669,0,0,0,108,148.983v-59.8A3.673,3.673,0,0,0,104.226,85.609Zm-18.946,0H48.542c2.206-5.525,9.783-11.1,17.6-11.165C74.2,74.374,82.411,78.809,85.28,85.609Z" transform="translate(-25.201 -72.247)"/>
        <g id="XMLID_1_" transform="translate(19.234 26.572)">
          <path id="XMLID_2_" class="cls-3" d="M174.666,195.6v-7.086l9.464,12.858h18.693l-2.525-4.527-15.955-2.31,13.895-.869-2.669-3.924-14.443-1.907,12.346-1.194-2.591-3.733-16.84-1.444,15.511-1.617c.877-1.279,2.99-4.281,2.99-4.281l-11.416-2.858s13.086.506,13.448,0c1.587-2.222,2.821-3.928,2.821-3.928l-13.051-2.208,15.955-.77,2.527-4.6h-19.3l-8.857,12.829V161.2h-16.69s.075,13.21,0,27.65L157.9,201.37h16.766Z" transform="translate(-157.9 -161.197)"/>
        </g>
      </g>
      <path id="shop_2x_5_" data-name="shop@2x (5)" class="cls-4" d="M96.174,229.087v20.086h6.48l.01-1.518c.006-.835.029-5.738.051-10.9l.041-9.378.614-.322a12.894,12.894,0,0,1,3.717-1.222,15.729,15.729,0,0,1,3.608.033,5.053,5.053,0,0,1,4.223,4.2l.178.716.022,9.191.022,9.191h6.549l-.023-9.907c-.023-9.735-.025-9.922-.168-10.8-.538-3.3-1.632-5.2-3.811-6.614a8.054,8.054,0,0,0-2.175-1.039,14.35,14.35,0,0,0-7.691-.324,21.016,21.016,0,0,0-4.418,1.572c-.335.168-.624.306-.644.306s-.035-3.008-.035-6.684V209H96.174v20.086m42.014-8.992a16.455,16.455,0,0,0-6.048,1.43,11.193,11.193,0,0,0-3.742,3,14.556,14.556,0,0,0-2.6,7.257,37.35,37.35,0,0,0,0,6.241c.507,3.932,1.766,6.744,3.93,8.782a12.506,12.506,0,0,0,7.675,3.122c.375.037,1.3.068,2.046.068a16.183,16.183,0,0,0,5.4-.785,11.593,11.593,0,0,0,7.589-7.874,23.927,23.927,0,0,0,.109-12.479,11.05,11.05,0,0,0-8.181-8.193,20.976,20.976,0,0,0-6.178-.568m29.908.027a27.174,27.174,0,0,0-5.87.984,5.821,5.821,0,0,0-4.747,3.854l-.16.443-.018,17.409-.018,17.409H163.7v-5.866c0-3.75.024-5.866.066-5.866a2.683,2.683,0,0,1,.446.168,18.342,18.342,0,0,0,6.829,1.267,11.714,11.714,0,0,0,8.9-3.456,14.371,14.371,0,0,0,3.743-8.823,32.136,32.136,0,0,0-.176-6.275c-.682-4.713-2.953-8.17-6.448-9.815a18.178,18.178,0,0,0-8.96-1.434m-88.121.271a13.885,13.885,0,0,0-4.161,1.26,7.935,7.935,0,0,0-4.267,4.662,10.3,10.3,0,0,0,.188,6.247A7.822,7.822,0,0,0,75.04,236,21.372,21.372,0,0,0,78.3,237.3c.506.156,1.688.534,2.626.839,3.438,1.121,4.467,1.931,4.467,3.518a2.862,2.862,0,0,1-1.526,2.561c-1.733,1.039-5.4.947-8.33-.209a32.372,32.372,0,0,1-4.109-2.082l-.222-.135v3.033c0,2.829.008,3.035.119,3.069.066.02.5.2.972.389a25.832,25.832,0,0,0,4.774,1.492,24.121,24.121,0,0,0,5.543.11,14.736,14.736,0,0,0,5.386-1.643,8.608,8.608,0,0,0,3.343-3.506,10.1,10.1,0,0,0,.494-6.179,7.028,7.028,0,0,0-3.968-4.59,21.385,21.385,0,0,0-3.907-1.339,36.765,36.765,0,0,1-4.076-1.386,2.849,2.849,0,0,1-1.991-2.416,2.559,2.559,0,0,1,1.649-2.849,6.685,6.685,0,0,1,3.222-.569c2.26,0,3.165.246,6.035,1.669,1.053.522,1.93.949,1.947.949s.032-1.223.032-2.718v-2.718l-.949-.451a18.933,18.933,0,0,0-4.156-1.545,19.126,19.126,0,0,0-5.705-.2m57.906,5.141a5.745,5.745,0,0,0-4.945,4.007,19.012,19.012,0,0,0-.45,9.237,9.832,9.832,0,0,0,1.614,3.693c1.163,1.462,3.168,2.207,5.691,2.114a6.786,6.786,0,0,0,4.177-1.351c1.347-1.07,2.335-3.21,2.72-5.895a26.489,26.489,0,0,0,.036-4.638c-.471-4.146-2.125-6.4-5.177-7.064a14.029,14.029,0,0,0-3.666-.1m30.385.179a10.858,10.858,0,0,0-3.486.752,2.334,2.334,0,0,0-.956.917c-.118.259-.124.671-.126,7.963l0,7.69.767.368a11.292,11.292,0,0,0,5.405,1.114c3.6-.153,5.783-1.816,6.754-5.138.836-2.861.571-7.778-.548-10.167a5.532,5.532,0,0,0-1.155-1.718c-1.4-1.468-3.356-1.992-6.654-1.78" transform="translate(9092.468 3489.609)"/>
    </g>
  </g>
</svg>
