<svg xmlns="http://www.w3.org/2000/svg" xmlns:xlink="http://www.w3.org/1999/xlink" width="122" height="58" viewBox="0 0 122 58">
  <defs>
    <style>
      .cls-1 {
        clip-path: url(#clip-Kshopit_45px_2);
      }

      .cls-2, .cls-4 {
        fill: #FB0028;
      }

      .cls-3 {
        fill: #FFFFFF;
      }

      .cls-4 {
        fill-rule: evenodd;
      }
    </style>
    <clipPath id="clip-Kshopit_45px_2">
      <rect width="122" height="58"/>
    </clipPath>
  </defs>
  <g id="Kshopit_45px_2" data-name="Kshopit – 45px_2" class="cls-1">
    <g id="Group_1868" data-name="Group 1868" transform="translate(-9063.571 -3665.742)">
      <g id="Group_1855" data-name="Group 1855" transform="translate(9074 3672.742)">
        <g id="Group_1848" data-name="Group 1848" transform="translate(5.148 31.773)">
          <path id="Wheel_2_4_" class="cls-2" d="M75.269,432.09a6.487,6.487,0,1,1-6.488,6.488A6.488,6.488,0,0,1,75.269,432.09Z" transform="translate(-68.781 -432.09)"/>
          <path id="Wheel_1_4_" class="cls-2" d="M309.468,432.09a6.494,6.494,0,1,1-6.486,6.488A6.489,6.489,0,0,1,309.468,432.09Z" transform="translate(-285.028 -432.09)"/>
        </g>
        <path id="Cart_4_" class="cls-2" d="M64.492,78.89H56.453c-1.3-4.062-6.085-6.706-10.894-6.642-4.588.061-9.1,2.973-10.152,6.642H27.077A1.825,1.825,0,0,0,25.2,80.665V110.4a1.824,1.824,0,0,0,1.875,1.775H64.492A1.824,1.824,0,0,0,66.37,110.4V80.665A1.826,1.826,0,0,0,64.492,78.89Zm-9.42,0H36.806c1.1-2.747,4.864-5.517,8.753-5.551C49.566,73.3,53.646,75.509,55.073,78.89Z" transform="translate(-25.201 -72.247)"/>
        <g id="XMLID_1_" transform="translate(9.563 13.212)">
          <path id="XMLID_2_" class="cls-3" d="M166.236,178.3v-3.523l4.705,6.393h9.294l-1.256-2.251-7.933-1.148,6.908-.432-1.327-1.951-7.181-.948,6.139-.594L174.3,171.99l-8.373-.718,7.712-.8c.436-.636,1.486-2.128,1.486-2.128l-5.676-1.421s6.506.252,6.686,0c.789-1.1,1.4-1.953,1.4-1.953l-6.489-1.1,7.933-.383,1.257-2.289h-9.6l-4.4,6.379V161.2h-8.3s.038,6.568,0,13.748l-.037,6.226h8.336Z" transform="translate(-157.9 -161.197)"/>
        </g>
      </g>
      <path id="shop_2x_5_" data-name="shop@2x (5)" class="cls-4" d="M83.594,218.987v9.987h3.222l0-.755c0-.415.014-2.853.025-5.417l.02-4.663.305-.16a6.411,6.411,0,0,1,1.848-.608,7.821,7.821,0,0,1,1.794.017,2.512,2.512,0,0,1,2.1,2.09l.088.356.011,4.57.011,4.57H96.28l-.011-4.926a46.52,46.52,0,0,0-.084-5.369,4.289,4.289,0,0,0-1.9-3.288,4,4,0,0,0-1.082-.517,7.135,7.135,0,0,0-3.824-.161,10.45,10.45,0,0,0-2.2.782c-.166.084-.31.152-.32.152s-.018-1.5-.018-3.323V209H83.594v9.987m20.89-4.471a8.181,8.181,0,0,0-3.007.711,5.565,5.565,0,0,0-1.861,1.491,7.237,7.237,0,0,0-1.293,3.608,18.571,18.571,0,0,0,0,3.1,6.88,6.88,0,0,0,1.954,4.366,6.218,6.218,0,0,0,3.816,1.552c.187.019.644.034,1.017.034a8.046,8.046,0,0,0,2.684-.39,5.764,5.764,0,0,0,3.773-3.915,11.9,11.9,0,0,0,.054-6.2,5.494,5.494,0,0,0-4.068-4.073,10.429,10.429,0,0,0-3.072-.282m14.87.014a13.51,13.51,0,0,0-2.919.489,2.894,2.894,0,0,0-2.36,1.916l-.079.22-.009,8.656-.009,8.656h3.189v-2.916c0-1.865.012-2.916.033-2.916a1.336,1.336,0,0,1,.222.084,9.119,9.119,0,0,0,3.4.63,5.824,5.824,0,0,0,4.424-1.718,7.145,7.145,0,0,0,1.861-4.387,15.978,15.978,0,0,0-.087-3.12,6.019,6.019,0,0,0-3.206-4.88,9.038,9.038,0,0,0-4.455-.713m-43.814.135a6.9,6.9,0,0,0-2.069.626,3.945,3.945,0,0,0-2.122,2.318,5.119,5.119,0,0,0,.093,3.106,3.889,3.889,0,0,0,1.643,1.707,10.626,10.626,0,0,0,1.623.65c.252.077.839.265,1.306.417,1.71.557,2.221.96,2.221,1.749a1.423,1.423,0,0,1-.759,1.273,5.456,5.456,0,0,1-4.141-.1,16.1,16.1,0,0,1-2.043-1.035l-.11-.067v1.508c0,1.407,0,1.509.059,1.526.033.01.25.1.483.194a12.844,12.844,0,0,0,2.374.742,11.993,11.993,0,0,0,2.756.054,7.326,7.326,0,0,0,2.678-.817,4.28,4.28,0,0,0,1.662-1.743,5.021,5.021,0,0,0,.246-3.072,3.494,3.494,0,0,0-1.973-2.282,10.632,10.632,0,0,0-1.943-.666,18.279,18.279,0,0,1-2.027-.689,1.416,1.416,0,0,1-.99-1.2,1.272,1.272,0,0,1,.82-1.416,3.323,3.323,0,0,1,1.6-.283,5.4,5.4,0,0,1,3,.83c.524.26.959.472.968.472s.016-.608.016-1.351v-1.351l-.472-.224a9.414,9.414,0,0,0-2.067-.768,9.51,9.51,0,0,0-2.837-.1m28.791,2.556a2.856,2.856,0,0,0-2.458,1.992,9.452,9.452,0,0,0-.224,4.592,4.888,4.888,0,0,0,.8,1.836,3.321,3.321,0,0,0,2.829,1.051,3.374,3.374,0,0,0,2.077-.672,4.588,4.588,0,0,0,1.353-2.931,13.171,13.171,0,0,0,.018-2.306c-.234-2.061-1.056-3.183-2.574-3.512a6.976,6.976,0,0,0-1.823-.051m15.108.089a5.4,5.4,0,0,0-1.733.374,1.16,1.16,0,0,0-.475.456,26,26,0,0,0-.063,3.959v3.823l.382.183a5.614,5.614,0,0,0,2.688.554,3.286,3.286,0,0,0,3.358-2.555,8.866,8.866,0,0,0-.272-5.055,2.751,2.751,0,0,0-.574-.854c-.694-.73-1.669-.991-3.308-.885" transform="translate(9047.406 3476.603)"/>
    </g>
  </g>
</svg>
