<?xml version="1.0" encoding="UTF-8"?>
<!DOCTYPE svg PUBLIC "-//W3C//DTD SVG 1.1//EN" "http://www.w3.org/Graphics/SVG/1.1/DTD/svg11.dtd">
<!-- Creator: CorelDRAW 2018 (64-Bit Evaluation Version) -->
<svg xmlns="http://www.w3.org/2000/svg" xml:space="preserve" width="158.95mm" height="155.689mm" version="1.1" style="shape-rendering:geometricPrecision; text-rendering:geometricPrecision; image-rendering:optimizeQuality; fill-rule:evenodd; clip-rule:evenodd"
viewBox="0 0 15895.02 15568.89"
 xmlns:xlink="http://www.w3.org/1999/xlink">
 <defs>
  <style type="text/css">
   <![CDATA[
    .str0 {stroke:#F56F45;stroke-width:20;stroke-miterlimit:22.9256}
    .str1 {stroke:rgba(255, 255, 255, 0.06)stroke-width:20;stroke-miterlimit:22.9256}
    .fil0 {fill:#F56F45}
    .fil1 {fill:#FBF0C8}
   ]]>
  </style>
 </defs>
 <g id="Layer_x0020_1">
  <metadata id="CorelCorpID_0Corel-Layer"/>
  <g id="_2091702531488">
   <path class="fil0 str0" d="M3476.92 1132.92l188.58 13049.14c4045.13,1962.94 8123.97,1645.72 12219.49,188.59l-47.25 -13181.14c-3977.07,-1474.24 -8081.92,-1649.78 -12360.82,-56.59z"/>
   <path class="fil1 str1" d="M15752.78 5064.8l123.01 6731.97c-7844.72,972.14 -4651.28,-5812.71 -123.01,-6731.97z"/>
   <path class="fil1 str1" d="M4193.33 1557.41c3564.06,-1075.69 7128.03,-1030.15 10692.08,56.59 -3588.63,1139.9 -7153.61,1166.84 -10692.08,-56.59z"/>
   <path class="fil0 str0" d="M3515.76 3819.98l27.51 1904.21c-1913.26,-55.94 -2204.2,3134.22 49.39,3414.1l23.38 1620.56c-4840.94,164.13 -4741.73,-6669.26 -100.28,-6938.88z"/>
  </g>
 </g>
</svg>
