<?xml version="1.0" encoding="UTF-8"?>
<!DOCTYPE svg PUBLIC "-//W3C//DTD SVG 1.1//EN" "http://www.w3.org/Graphics/SVG/1.1/DTD/svg11.dtd">
<!-- Creator: CorelDRAW 2018 (64-Bit Evaluation Version) -->
<svg xmlns="http://www.w3.org/2000/svg" xml:space="preserve" width="119.03mm" height="158.75mm" version="1.1" style="shape-rendering:geometricPrecision; text-rendering:geometricPrecision; image-rendering:optimizeQuality; fill-rule:evenodd; clip-rule:evenodd"
viewBox="0 0 11902.98 15874.96"
 xmlns:xlink="http://www.w3.org/1999/xlink">
 <defs>
  <style type="text/css">
   <![CDATA[
    .str0 {stroke:#3B9CFF;stroke-width:20;stroke-miterlimit:22.9256}
    .str2 {stroke:#C4E1FF;stroke-width:20;stroke-miterlimit:22.9256}
    .str1 {stroke:#FBF0C8;stroke-width:20;stroke-miterlimit:22.9256}
    .str3 {stroke:#C4E1FF;stroke-width:7.62;stroke-miterlimit:22.9256}
    .fil0 {fill:#3B9CFF}
    .fil1 {fill:#C4E1FF}
    .fil2 {fill:#FBF0C8}
   ]]>
  </style>
 </defs>
 <g id="Layer_x0020_1">
  <metadata id="CorelCorpID_0Corel-Layer"/>
  <g id="_2091701991696">
   <path class="fil0 str0" d="M1937.11 11722.53c192.28,-17.43 131.39,-29.4 326.28,46.84l1184.65 628.7c501.4,261.72 1092.11,554.55 1566.67,849.5 5.31,30.69 -2.18,2.99 5.46,33.74 18.56,74.52 98.06,211.28 -107.74,185.23 -136.47,-17.28 -1192.36,-615.88 -1365.1,-708.25 -88.45,-47.31 -1539.07,-807.39 -1577.63,-851.8 -35.57,-40.97 -44.12,-133.44 -32.59,-183.96zm4447.76 -2606.21c338.91,-632.45 704.27,-1340.55 1059.57,-1956.75l109.45 54.71c-57.54,194.53 -885.73,1702.92 -1012.35,1940.92 -58.44,109.44 -125.55,252.88 -203.16,323.81 -132.92,-84.21 -83.79,-119.65 46.49,-362.69zm-1315.04 3368c-154.06,-11.37 -382.95,-166.73 -547.26,-247.96 -547.21,-270.5 -632.77,-272.32 -389.89,-616.63 116.72,-165.46 306.18,-177.01 482.84,-61.47 241.63,158.05 127.15,40.94 284.89,61.59 607.05,79.46 381.57,643.13 169.42,864.47zm1132.76 -3847.21l-208.3 383.4c-23.87,43.04 -47.09,89.28 -77.17,126.94 -54.79,68.57 -43.73,63.5 -126.51,45.95 -8.97,-34.65 -10.38,-8.32 -8.07,-52.29 5.32,-101.21 433.93,-866 519.23,-945.64 74.4,59.75 53.69,108.08 5.18,204.75 -47.81,95.3 -52.3,139.97 -104.36,236.89zm-312.53 1404.76l127.27 17.15c4.65,-0.48 10.4,-1.44 14.92,-2.07 82.56,-11.93 36.75,-27.8 98.08,-10.66 0.51,-0.28 72.87,-67.29 175.52,-7.06 80.26,47.07 35.48,102.98 -8.33,174.63 -55.42,11.39 -81.76,24.3 -161.19,4.39 -56.96,-18.54 -152.5,-3.75 -197.41,19.88 -45.02,33.87 -99.89,27.65 -141.84,51.5 -61.77,35.09 -73.21,88.21 -91.81,153.6 57.41,81.31 220.47,116.31 305,201.55 35.14,35.46 63.96,85.21 40.09,136.78 -28.94,62.47 -63.12,34.77 -129.85,84.85l16.97 118.62c-122,21.95 -158.27,69.12 -329.51,0.48 -37.72,-13.67 -165.05,-9.89 -201.94,-7.48l-173.93 328.64c159.89,241.6 296.72,257.74 222.59,418.4 -184.04,-20.06 -178.04,-123 -259.16,-208.97 -64.52,-68.43 -61.53,-59.63 -110.18,-127.75 -42.99,-60.17 -77.08,-70.79 -127.76,-123l-202.82 -259.45c-75.77,-116.87 -177.35,-130.85 -135.16,-273.83 109.7,-21.09 394.06,-13.25 531.82,49.68l15.5 -2.01c81.66,-68.89 29.83,-55.28 155.49,-37.95 176.71,24.36 336.93,82.39 332.31,10.91 -2.93,-44.8 -30.46,-9.76 -51.13,-75.9 -107.49,-52.08 -214.23,-102.68 -314.54,-167.69 -284.72,-184.54 -168.73,-42.12 -288.5,-121.8 -47.99,-31.92 -139.04,-129.36 -133.55,-220.32 1.73,-28.54 111.43,-189.19 150.03,-255.28 85.69,-146.77 82.5,-159.29 202.78,-213.86 60.52,-27.47 167.61,-55.06 253.2,-39.55 286.58,52.01 240.41,274.17 417.04,383.57zm211.03 -2650.42c-160.97,-4.49 -967.34,-447.59 -1065.91,-553.61l48.79 -96.67c161.08,-7.58 419.91,176.42 592.95,271.43 221.45,121.62 463.54,195.34 424.17,378.85zm-2358.14 4376.19c-135.84,12.85 -596.74,-268.82 -755.82,-355.21 -185.16,-100.53 -510.27,-176.82 -120.88,-551.86 224.95,-216.66 490.31,-148.08 627.8,13.3 157.7,185.1 0.37,512.93 11.97,625.93 132.37,92.95 322.62,109.04 236.93,267.84zm162.77 -1528.82l15.78 25.08c17.64,28.24 9.12,20.09 22,35.96 98.86,121.85 341.9,-68.66 551.23,82.4 -57.35,132.04 -71.32,115.5 -186.16,120.93 -129.87,6.16 -132.9,-13.86 -242.07,16.98l-56.53 149.76c23.15,14.79 51.46,35.34 70.05,42.48 132.14,50.85 22.03,-68.87 224.31,64.55l-78.22 200.19 -68.18 -42.18c82.04,286.62 -448.93,-37.29 -508.58,-61.88 -158.03,-65.19 -523.75,-246.76 -575.91,-382.12 -53.91,-139.89 237.02,-667.62 625.5,-496.5 59.34,26.15 116.8,60.43 157.66,111.39 13.26,16.54 27.78,43.25 35.1,63.45l14.02 69.51zm2126.91 -3749.85c-41.82,42.72 -1.57,10.91 -51.44,30.11 -2.87,1.1 -45.33,11.54 -53.14,12.88 -141.44,24.63 -96.06,-21.62 -273.26,61.95 -5.47,2.57 -21.59,9.93 -27.06,12.5 -34.37,16.25 -3.97,-4.54 -44.41,21.42 179.34,98.06 727.55,295.61 687.77,474.15 -130.79,103.65 -441.56,-107.97 -620.7,-207.75 -227.15,-126.51 -504.38,-162.94 -472.25,-399.21 249,-105.46 302.51,-60.34 516.4,-107.51l551.5 -93.5c-4.12,4.25 -26.34,-131.68 -277.41,-223.74 -101.28,-37.13 -307.4,-123.99 -380.34,-217.19 38.74,-169.18 84.29,-130.1 238.55,-44.75 246.38,136.32 708.22,348.4 860.22,500.98 -71.21,114.91 -155.61,110.01 -318,133.53 -50.1,7.26 -112.22,18.51 -166.15,30.4l-126.1 22.58c-54.24,-1.79 28.59,15.04 -44.18,-6.85zm-879.3 1205.42c59.53,-109.57 114.66,-228.88 210.95,-265.16 159.24,109.88 -58.52,257.17 -86.09,444.61 -16.92,114.97 95.77,167.69 234.95,214.93 132.41,-78.83 169.35,-343.92 280.54,-455 35.06,-34.99 13.34,-17.75 47.63,-32.67l34.1 -73.43c16.71,-5.97 13.56,-75.57 122.17,18.37 115.89,100.24 -301.03,701.86 -358.69,785.19 -245.18,15.53 -644.29,-301.22 -905.95,-414.6 -76.26,89.56 -184.81,286.58 -166.61,412.45 216.59,116.68 645.07,313.2 788.08,456.75 85.39,47.75 55.36,69.94 26.04,152.61 -345.58,33.62 -1044.73,-655.46 -978.3,-225.16 19.05,123.41 57.02,79.82 77.22,102.54 -20.63,7.25 -23.76,14.64 -46.49,27.12 265.89,83.75 450.55,246.03 482.13,460.57 29.48,200.31 38.77,341.98 -80.08,508.34 -48.44,67.77 -72.88,85.76 -139.12,111.69 -4.2,1.63 -11.46,3.7 -17.21,5.43 -60.6,98.42 -255.03,122.53 -370.68,138.68 -189.96,26.5 -265.29,-67.89 -446.37,-167.73 -117.25,-108.48 -198.71,-296.47 -194.37,-421.68 1.34,-38.2 49.49,-225.39 61.22,-258.31 46.16,-129.6 103.92,-160.64 155.11,-248.03 44.91,-86.55 142.76,-182.48 207.49,-236.19 -42.35,-53.82 -93.4,-78.01 -76.21,-150.36l184.62 -390.78c226.7,-388.88 134.24,-259.53 276.55,-329.93 83.21,-41.19 0.75,-30.58 77.91,-59.89 -71.12,-90.6 -82.06,-106.14 -11.69,-234.08 109.02,-198.2 138.27,-358.12 311.17,-527.38 89.86,-87.96 202.4,-27.67 217.5,23.08 4.3,76.42 -82.18,270.75 -114.06,346.03 -60.65,143.18 -161.91,145.46 -116.28,282.44 9.54,12.46 127.18,85.29 191.36,72.51 56.78,-11.32 -58.77,43.29 42.6,-22.72l78.86 -50.24zm5564.1 -3688.24c-104.54,-17.73 -440.8,105.68 -565.46,224.63 -242.56,231.42 -198.1,440.62 -589.91,219.25 -223.88,-126.48 -767.37,-534.76 -1048.86,-491.63 -95.54,14.63 -212.72,38 -281.75,124.75l-803.94 841.69c-51.36,33.17 -101.91,18.27 -188.56,40.15 -237.21,59.92 -470.87,14.38 -670.81,-188.14 -125.02,-126.61 -171.33,-256.92 -281.8,-328.79 -162.35,-105.64 -167.16,-100.77 -291.99,-68.08 -3.63,0.94 -9.21,2.84 -12.86,3.61l-40.26 4.47c-173.57,3.77 -74.72,-12.08 -300.5,83.61 -313.19,132.76 -223.89,220.39 -366.72,216.48 -65.21,187.71 -2750.37,5157.72 -2979.57,5586.32 -164.12,306.89 -324.96,623.86 -494.45,926.68 -158.3,282.85 -389.31,372.66 -579.57,699.47 -4.56,0.52 -16.03,-3.06 -13.8,-0.69 18.6,19.9 -22.02,-0.07 -26.31,1.07 -47.15,12.68 -4.45,-15.81 -45.25,25.78 -22.99,23.46 -62.48,95.36 -89.88,124.51 -76.53,81.39 -77.62,-24.89 -176.03,200.37l12.95 89.06c198.26,98.48 335.27,187.43 508.49,291.79 285.91,172.21 1239.03,659.02 1574.4,836.8 348.57,184.79 702.45,370.01 1047.56,560.5 346.49,191.26 727.24,416 1077.82,587.69 75.77,-161.82 55.09,-96.76 -5.66,-214.85 110.13,-221.55 181.01,-14.03 288.19,-508.85 20.6,-95.07 75.31,-191.67 65.01,-286.71l-13.6 -94.08c12.68,-199.74 535.94,-1135.56 662.69,-1367.5 1108.24,-2027.62 2219.58,-4149.53 3315.17,-6198.29 224.26,-419.35 438.94,-865.41 654.57,-1260.55 -207.5,-100.88 -84.05,24.68 -212,-38.12 84.43,-104.58 58.67,35.88 205.72,-188.72 221.42,-338.24 67.74,-103.86 202.19,-224.17 48.83,-43.72 33.99,-60.12 100.6,-100.57 170.07,-103.21 237.64,-36.83 364.18,-128.94z"/>
   <path class="fil1" d="M6918.66 2522.14c94.27,-168.05 102.75,-123 347.77,6.6l1152.41 616.4c504.04,269.56 1051.74,539.12 1540,827.83 -3.7,90.16 76.06,260.48 -234.24,89.98 -520.04,-285.74 -2664.38,-1380.62 -2805.94,-1540.81zm1062.91 1710.41c43.56,-127.31 353.24,-322.01 408.44,-342.66 38.39,-14.38 118.81,-29.34 169.95,-18.83 787.23,162.05 1005.04,727.38 1312.77,567.9l267.34 -274.98c110.58,-140.68 77.34,-55.78 302.19,-164.05 76.33,-36.73 96.97,-23.63 145.51,-101.76 138.98,60.81 145.08,15.41 214.49,-20.6 46.82,-24.29 45.7,-10.85 75.26,-30.17 100.1,-65.38 89.53,-150.15 252.15,-236.2l400.61 -728.46c41.27,-101.82 23.45,-66.2 -53.81,-118.86 -110.74,-75.48 -51.41,-134.13 -104.26,-228.55 -108.05,-28.84 -178.79,52.66 -285.23,29.49 -55.25,-27.85 -64.71,-155.12 -134.06,-253.2 -101.12,-10.98 -184.3,61.06 -228.37,49.13 -101.13,-68.28 -103.31,-165.26 -153.87,-258.16l-188.09 57.63c-162.63,-98.15 -121,-134.49 -195.86,-263.4 -130.38,3.88 -168.22,92.26 -267.3,38.06 -83.71,-45.78 -63.95,-155.09 -116.29,-244.57 -86.47,10.77 -106.19,21.98 -193.72,68.32 -137.37,-54.9 -112.64,-38.19 -147.58,-153.21l-49.81 -124.08c-25.64,11.59 -187.23,58.74 -213.8,55.47 -118.47,-14.69 -102.51,-95.83 -152.36,-183.94l21.92 -66.3c-198.12,-79.48 -110.62,15.29 -303.9,-4.31 -51.04,-74.7 -56.08,-115.4 -61.47,-206.52 -79.39,-48.69 -79.87,-50.38 -151.63,-32.45 -45.49,11.37 -92.2,23.08 -142.81,52.23 -67.91,-67.43 -24.31,-10.01 -61.66,-87.9 -66.83,-139.25 18.33,-102.41 -124.67,-181.08 -37.5,16.55 -192.51,76.82 -230.44,52.99 -71.05,-95.92 -52.19,-196.86 -154.41,-257.13 -56.12,4.13 -139.53,44.9 -206.19,49.65 -149.75,-90.96 -60.05,-149.41 -158.93,-248.7l-122.9 37.45c-34.34,58.26 -22.97,73.76 -92.48,63.2l-127.54 -36.41 -88.24 170.04c205.63,-56.73 -118.15,59.05 55.52,-24.22l108.61 -46.63c185.48,187.95 3052.8,1661.35 3738.44,2037.16 154.98,84.97 429.89,185.19 489.09,314.37 -57.13,146.88 -42.48,134.28 -170.69,140.61 -132.79,6.54 -710.33,-343.82 -853.41,-420.33l-3332.6 -1779.64c-79.97,-63.37 13.29,-25.41 -89.27,-129.01l-158.86 293.92c8.21,0.66 12.03,-3.75 23.31,-0.71l114.95 -16.67c66.13,3.18 335.21,165.05 410.57,205.29 186.33,99.48 373.1,198.19 559.31,297.83l2810.84 1504.23c93.8,49.37 188.57,96.26 282.41,146.01 120.26,63.73 115.82,83.55 175.8,183.51 -28.14,83.74 -73.37,130.78 -130.79,154.7l-4315.77 -2300.16c-60.56,141.07 -45.53,237.81 -112.24,381.44 -65.99,142.09 -40.35,91.9 -43.66,198.47 -2.28,74.05 -41.61,116.59 -64.64,192.98 -47.83,158.7 38.56,6.97 -57.13,285.63 -54.04,157.38 62.76,63.66 -165.45,492.87 -292.98,550.97 -578.8,1108.38 -871.77,1657.14 33.62,-34.23 194.11,-85.82 256.56,-104.41 25.21,-7.5 33.13,-9.78 50.74,-16.89 92.16,-37.16 108.24,-98.96 340.64,-89.02 151.48,6.47 277.56,139.78 354.29,231.95 25.65,30.83 39.07,37.37 67.06,66.57 65.29,68.12 30.72,41.83 56.41,87.45 32.61,57.89 89.51,95.71 137.41,148.27 116.72,128.08 185.5,141.82 341.45,115.12 91.17,-15.59 263.82,-28.82 348.97,-90.08 42.5,-30.58 36.81,-27.03 73.55,-52.07l348.9 -375.79c22.86,-30.78 46.38,-62.47 68.02,-79.9 54.38,-43.69 91.24,-34.47 94.48,-35.07z"/>
   <path class="fil0" d="M772.3 12505.47c110.29,-132.02 207.99,-56.57 478.13,96.94 1190.59,676.61 2734.67,1394.05 3836.11,2081.09l-53.38 89.65c-238.26,-52.85 -806.25,-403.46 -1063.54,-537.1l-3197.32 -1730.58zm4020.02 2607.67c-98.94,18.44 -152.35,-27.7 -258.26,-84.86l-3668.58 -1957.98c-168.05,-92.17 -203.89,-86.87 -211.36,-170.21 51.89,-26.62 1.49,-18.92 64.24,-11.01 54.64,6.9 403.55,205.54 455.58,234.27 173.05,95.6 349.54,186.57 523.97,279.89 349.27,186.78 698.26,373.85 1047.82,560.02 349.06,185.93 696.97,378.12 1047.85,559.97 176.17,91.3 349.34,185.81 523.78,280.25 159.68,86.41 431.4,199.06 474.96,309.66zm-4020.02 -2607.67c-7.22,48.42 -15.06,11.11 17.53,49.03 38.08,44.34 419.9,249.88 472.79,277.06l1640.65 879.13c506.54,276.43 1723,934.31 2200.19,1149.41 -74.25,169.61 -66.18,152.87 -171.95,310.4 -40.08,59.69 -65.11,236.62 -154.07,259.38 -18.61,16.21 10.18,-1.98 -51.89,-44.4 -155.32,-106.16 -166.44,32.24 -276.6,-60.39 -62.1,-52.22 -39.3,-98.8 -111.65,-141.25 -89.78,-52.71 -104.4,3.43 -179.92,-10.48 -68.08,-12.54 -118.24,-71.31 -153.13,-122.13 -72.58,-105.68 8.27,-58.49 -229.43,-90.26 -171.11,-22.88 -102.96,-110.76 -188.28,-176.57 -210.11,-98.9 -236.62,42.49 -339.37,-146.31 -105.11,-193.11 -183.11,-13.17 -336.69,-141.64 -92.68,-77.54 2.79,-83.36 -125.62,-141.3 -125.04,-56.43 -53.78,35.39 -190.66,-23.55 -161.68,-69.66 -100.13,-206.85 -305.8,-212.64 -240.99,-6.81 -163.25,-149.56 -322.99,-198 -137.89,-41.8 -174.56,79.39 -298.67,-136.38 -99.38,-172.75 -210.95,26.06 -339.4,-129.63 -63.3,-76.72 11.26,-91.5 -111.34,-147.67 -93.55,-42.86 -82.68,-4.23 -163.01,10.21 -145.07,-109.99 -106.98,-92.61 -147.03,-146.52 -92.5,-124.47 -172.44,-23.87 -311.89,-130.79 -165.81,-127.12 -76.18,-231.47 -76.18,-231.47 -3.8,-5.63 7.64,-9.45 11.87,-13.81l3891.38 2076.44c179.34,97.7 316.4,206.42 489.17,104.9 -9.15,-83.96 5.71,-9.8 -25.02,-71.68 -41.81,-84.26 -52.59,-106.04 -112.9,-137.52l-821.77 -443.51c-381.62,-196.07 -756.62,-404.71 -1136.11,-604.86 -258.6,-136.37 -1495.48,-782.45 -1693.98,-917.39 -92.99,-63.21 -165.46,-95.21 -266.19,-135.95 -215.73,-87.28 -4.87,-47.43 -261.9,-82.28l-0.83 -34.61c0.06,-4.78 0.1,-11.32 0.21,-16.45 2.96,-135.51 8.65,-179.13 130.16,-261.42 56.99,56.73 -17.03,-14.63 50.32,34.9zm10030.51 -8449.4c4.96,-1.94 12.5,33.32 12.9,-9.44 0.43,-45.22 5.71,1.18 -8.39,-51.64 -56.3,29.12 -15.46,24.6 -89.89,11.16 -126.54,92.11 -194.11,25.73 -364.18,128.94 -66.61,40.45 -51.77,56.85 -100.6,100.57 -134.45,120.31 19.23,-114.07 -202.19,224.17 -147.05,224.6 -121.29,84.14 -205.72,188.72 127.95,62.8 4.5,-62.76 212,38.12 -215.63,395.14 -430.31,841.2 -654.57,1260.55 -1095.59,2048.76 -2206.93,4170.67 -3315.17,6198.29 -126.75,231.94 -650.01,1167.76 -662.69,1367.5l13.6 94.08c10.3,95.04 -44.41,191.64 -65.01,286.71 -107.18,494.82 -178.06,287.3 -288.19,508.85 60.75,118.09 81.43,53.03 5.66,214.85 -350.58,-171.69 -731.33,-396.43 -1077.82,-587.69 -345.11,-190.49 -698.99,-375.71 -1047.56,-560.5 -335.37,-177.78 -1288.49,-664.59 -1574.4,-836.8 -173.22,-104.36 -310.23,-193.31 -508.49,-291.79l-12.95 -89.06c98.41,-225.26 99.5,-118.98 176.03,-200.37 27.4,-29.15 66.89,-101.05 89.88,-124.51 40.8,-41.59 -1.9,-13.1 45.25,-25.78 4.29,-1.14 44.91,18.83 26.31,-1.07 -2.23,-2.37 9.24,1.21 13.8,0.69 190.26,-326.81 421.27,-416.62 579.57,-699.47 169.49,-302.82 330.33,-619.79 494.45,-926.68 229.2,-428.6 2914.36,-5398.61 2979.57,-5586.32l27.6 -133.21 -22.4 -11.98c-89.94,179.84 -163.06,361.18 -269.27,559.78 -102.71,192.07 -205.42,384.12 -308.13,576.18l-2725.9 5098.83c-143.4,268.66 -153.25,331.85 -324.69,509.47 -60.7,62.88 -108.67,141.64 -172.36,208.56 -115.08,120.95 -247.18,231.88 -352.48,363.72 -99.85,124.99 -128.47,80.93 -195.66,178.89 -166.97,243.41 -55.54,83.11 -176.58,205.92 -76.58,77.68 -409.88,738.2 -459.69,847.56 61.96,26.13 147.23,37.18 191.03,115.39 138.44,247.21 -35.05,185.14 189.05,167.62 51.51,-4.04 108.16,5.83 156.65,11.49 52.84,71.48 83.72,179.5 100.48,190.01 141.58,24.27 165.64,-27.34 272.97,-6.55 103.06,102.62 7.18,154.96 207.3,242.21 85.21,-39.59 83.48,-26.65 173.96,-31.35 35.78,53.06 87.24,201.72 185.31,224.53 99.74,23.21 183.28,-97 268.83,89.97 85.3,186.36 126.62,90.5 248.75,104.46 147.79,16.86 125.73,141.77 228.3,233.18 86.45,-25.01 92.84,-62.84 219.38,10.14 97.72,56.37 108.17,113.1 148.36,183.99 74.11,5.56 149.74,-23.81 225.62,3.31 136.08,48.67 59.59,115.96 171.01,183.9 96.96,59.16 132.44,-12.72 221.54,13.4 103.21,30.29 90.13,116.42 138.83,189.42 59.36,50.76 95.6,13.51 281.86,18.78 53.64,88.01 42.82,174.63 131.44,210.52 74.95,30.36 55.54,-7.98 126.74,-7.64 72.03,0.36 120.42,39.44 190.95,84.22 25.31,119.81 -31.78,83.24 143.13,159.04 81.15,-51.65 81.44,-36.59 141.66,-61.8 71.22,43.85 62.55,73.35 129.01,90.91 134.04,35.4 374.6,-581.84 419.06,-696.97 66.9,-173.32 58.5,-83.56 109.93,-338.1l88.15 -349.91c15.17,-76.28 -11.26,-57.21 23.44,-154.85 117.6,-330.78 18.92,-160.42 77.16,-342.49 97.82,-305.91 27.65,-247.16 182.94,-529.33 604.94,-1099.13 1206.45,-2258.83 1801.48,-3370.24 787.29,-1470.53 1620.03,-2995.74 2389.3,-4470.5 96.92,-185.8 289.09,-597.27 422.41,-713.92 45.63,-39.92 75.52,-57.52 111.72,-104.98 54.76,-71.83 56.6,-98.03 121.96,-139.26 56.1,-35.42 63.26,-20.87 117.37,-112.66 55.67,-94.5 50.26,-124.06 151.28,-131.74z"/>
   <path class="fil1" d="M2734.62 14676.32c50.85,45.32 3.03,73.98 87.65,101.33 72.37,23.41 34.73,3.88 73.35,-7.18 182.58,-52.28 235.92,72.33 272.55,208.42l82.79 42.02c125.19,-59.65 193.6,-138.32 252.28,22.95 17.39,47.78 24.8,32.03 15.95,84.63 182.17,124.86 141.82,0.35 339.27,29.22 31.16,44.34 34.99,61.68 53.92,111.99 69.88,185.72 58.21,104.92 268.59,106.18l54.38 0.87c56.19,68.97 84.51,214.7 171.16,225.83 6.96,0.89 109.97,-45.79 217.86,-29.48l64.65 107.62c25.3,76.04 1.82,116.81 125.99,123.73 129.58,-239.27 256.89,-480.17 385.23,-720.15 61.18,-114.4 149.18,-252.19 174.87,-363.76 14.76,-64.01 14.75,-108.51 30.46,-171.21 27.54,-109.89 61.36,-122.13 72.94,-256.29l161.91 -762.01c66.48,-341.69 16.63,-174.28 215.18,-543.75 546.77,-1017.42 1090.36,-2036.51 1635.03,-3055.09l2437 -4557.23c95.97,-180.59 300.53,-626.77 420.04,-735.32l444.5 -530.6c13.67,-41.63 9.85,-37.74 10.64,-52.97 -101.02,7.68 -95.61,37.24 -151.28,131.74 -54.11,91.79 -61.27,77.24 -117.37,112.66 -65.36,41.23 -67.2,67.43 -121.96,139.26 -36.2,47.46 -66.09,65.06 -111.72,104.98 -133.32,116.65 -325.49,528.12 -422.41,713.92 -769.27,1474.76 -1602.01,2999.97 -2389.3,4470.5 -595.03,1111.41 -1196.54,2271.11 -1801.48,3370.24 -155.29,282.17 -85.12,223.42 -182.94,529.33 -58.24,182.07 40.44,11.71 -77.16,342.49 -34.7,97.64 -8.27,78.57 -23.44,154.85l-88.15 349.91c-51.43,254.54 -43.03,164.78 -109.93,338.1 -44.46,115.13 -285.02,732.37 -419.06,696.97 -66.46,-17.56 -57.79,-47.06 -129.01,-90.91 -60.22,25.21 -60.51,10.15 -141.66,61.8 -174.91,-75.8 -117.82,-39.23 -143.13,-159.04 -70.53,-44.78 -118.92,-83.86 -190.95,-84.22 -71.2,-0.34 -51.79,38 -126.74,7.64 -88.62,-35.89 -77.8,-122.51 -131.44,-210.52 -186.26,-5.27 -222.5,31.98 -281.86,-18.78 -48.7,-73 -35.62,-159.13 -138.83,-189.42 -89.1,-26.12 -124.58,45.76 -221.54,-13.4 -111.42,-67.94 -34.93,-135.23 -171.01,-183.9 -75.88,-27.12 -151.51,2.25 -225.62,-3.31 -40.19,-70.89 -50.64,-127.62 -148.36,-183.99 -126.54,-72.98 -132.93,-35.15 -219.38,-10.14 -102.57,-91.41 -80.51,-216.32 -228.3,-233.18 -122.13,-13.96 -163.45,81.9 -248.75,-104.46 -85.55,-186.97 -169.09,-66.76 -268.83,-89.97 -98.07,-22.81 -149.53,-171.47 -185.31,-224.53 -90.48,4.7 -88.75,-8.24 -173.96,31.35 -200.12,-87.25 -104.24,-139.59 -207.3,-242.21 -107.33,-20.79 -131.39,30.82 -272.97,6.55 -16.76,-10.51 -47.64,-118.53 -100.48,-190.01 -48.49,-5.66 -105.14,-15.53 -156.65,-11.49 -224.1,17.52 -50.61,79.59 -189.05,-167.62 -43.8,-78.21 -129.07,-89.26 -191.03,-115.39 49.81,-109.36 383.11,-769.88 459.69,-847.56 121.04,-122.81 9.61,37.49 176.58,-205.92 67.19,-97.96 95.81,-53.9 195.66,-178.89 105.3,-131.84 237.4,-242.77 352.48,-363.72 63.69,-66.92 111.66,-145.68 172.36,-208.56 171.44,-177.62 181.29,-240.81 324.69,-509.47l2725.9 -5098.83c102.71,-192.06 205.42,-384.11 308.13,-576.18 106.21,-198.6 179.33,-379.94 269.27,-559.78l87.92 -214.73 -50.57 -4.6c-322.48,555.76 -624.46,1156.74 -927.18,1727.11 -306.26,577.1 -616.1,1152.56 -924.12,1728.75 -548.96,1026.96 -1163.09,2217.59 -1728.22,3229.86l-97.72 145.91c-48.69,48.47 -11.58,14.93 -40.46,29.39 -86.58,132.48 -126.25,133.68 -205.96,216.69 -77.67,80.89 -344.42,407.19 -407.23,448.02 -102.96,66.93 -108.28,142.1 -199.28,226.24 -90.13,83.35 -74,6.6 -206.11,246.08 -116.95,212.03 -444.47,804.62 -501.19,963.58 137.5,76.37 263.69,-142.23 339.14,102.09 85.62,277.32 202.82,26.02 338.41,138.41 48.38,68.77 65.34,138.06 98.94,192.89 120.43,33.67 178.88,-41.63 297.18,-9.83 37.24,80.58 20.19,170.74 144.5,233.67 85.45,21.64 249.52,-181.31 312.59,171.29 115.37,69.44 117.25,30.13 212.39,11.83l61.51 -7.69c-2.21,-2.97 11.1,-1.1 16.68,-1.63 86.22,109.77 95.34,344.45 355.29,187.84 129.38,101.98 75.75,157.28 171.66,254.43 143.36,23.34 155.13,-95.46 314.55,26.18 1.64,29.36 -0.52,48.99 -7.31,91.58z"/>
   <path class="fil0 str0" d="M772.3 12505.47c-67.35,-49.53 6.67,21.83 -50.32,-34.9 -121.51,82.29 -127.2,125.91 -130.16,261.42 -0.11,5.13 -0.15,11.67 -0.21,16.45l0.83 34.61c257.03,34.85 46.17,-5 261.9,82.28 100.73,40.74 173.2,72.74 266.19,135.95 198.5,134.94 1435.38,781.02 1693.98,917.39 379.49,200.15 754.49,408.79 1136.11,604.86l821.77 443.51c60.31,31.48 71.09,53.26 112.9,137.52 30.73,61.88 15.87,-12.28 25.02,71.68 -172.77,101.52 -309.83,-7.2 -489.17,-104.9l-3891.38 -2076.44c-4.23,4.36 -15.67,8.18 -11.87,13.81 0,0 -89.63,104.35 76.18,231.47 139.45,106.92 219.39,6.32 311.89,130.79 40.05,53.91 1.96,36.53 147.03,146.52 80.33,-14.44 69.46,-53.07 163.01,-10.21 122.6,56.17 48.04,70.95 111.34,147.67 128.45,155.69 240.02,-43.12 339.4,129.63 124.11,215.77 160.78,94.58 298.67,136.38 159.74,48.44 82,191.19 322.99,198 205.67,5.79 144.12,142.98 305.8,212.64 136.88,58.94 65.62,-32.88 190.66,23.55 128.41,57.94 32.94,63.76 125.62,141.3 153.58,128.47 231.58,-51.47 336.69,141.64 102.75,188.8 129.26,47.41 339.37,146.31 85.32,65.81 17.17,153.69 188.28,176.57 237.7,31.77 156.85,-15.42 229.43,90.26 34.89,50.82 85.05,109.59 153.13,122.13 75.52,13.91 90.14,-42.23 179.92,10.48 72.35,42.45 49.55,89.03 111.65,141.25 110.16,92.63 121.28,-45.77 276.6,60.39 62.07,42.42 33.28,60.61 51.89,44.4 88.96,-22.76 113.99,-199.69 154.07,-259.38 105.77,-157.53 97.7,-140.79 171.95,-310.4 -477.19,-215.1 -1693.65,-872.98 -2200.19,-1149.41l-1640.65 -879.13c-52.89,-27.18 -434.71,-232.72 -472.79,-277.06 -32.59,-37.92 -24.75,-0.61 -17.53,-49.03z"/>
   <path class="fil0" d="M9067.79 1286.57l-21.92 66.3c49.85,88.11 33.89,169.25 152.36,183.94 26.57,3.27 188.16,-43.88 213.8,-55.47l49.81 124.08c34.94,115.02 10.21,98.31 147.58,153.21 87.53,-46.34 107.25,-57.55 193.72,-68.32 52.34,89.48 32.58,198.79 116.29,244.57 99.08,54.2 136.92,-34.18 267.3,-38.06 74.86,128.91 33.23,165.25 195.86,263.4l188.09 -57.63c50.56,92.9 52.74,189.88 153.87,258.16 44.07,11.93 127.25,-60.11 228.37,-49.13 69.35,98.08 78.81,225.35 134.06,253.2 106.44,23.17 177.18,-58.33 285.23,-29.49 52.85,94.42 -6.48,153.07 104.26,228.55 77.26,52.66 95.08,17.04 53.81,118.86l-400.61 728.46c-74.83,102.02 -138.29,138.17 -202.69,214.21 -132.63,156.65 -96.15,89.27 -209.55,180.74 74.43,13.44 33.59,17.96 89.89,-11.16 14.1,52.82 8.82,6.42 8.39,51.64 -0.4,42.76 -7.94,7.5 -12.9,9.44 -0.79,15.23 3.03,11.34 -10.64,52.97l-444.5 530.6c-119.51,108.55 -324.07,554.73 -420.04,735.32l-2437 4557.23c-544.67,1018.58 -1088.26,2037.67 -1635.03,3055.09 -198.55,369.47 -148.7,202.06 -215.18,543.75l-161.91 762.01c-11.58,134.16 -45.4,146.4 -72.94,256.29 -15.71,62.7 -15.7,107.2 -30.46,171.21 -25.69,111.57 -113.69,249.36 -174.87,363.76 -128.34,239.98 -255.65,480.88 -385.23,720.15 -124.17,-6.92 -100.69,-47.69 -125.99,-123.73l-64.65 -107.62c-107.89,-16.31 -210.9,30.37 -217.86,29.48 -86.65,-11.13 -114.97,-156.86 -171.16,-225.83l-54.38 -0.87c-210.38,-1.26 -198.71,79.54 -268.59,-106.18 -18.93,-50.31 -22.76,-67.65 -53.92,-111.99 -197.45,-28.87 -157.1,95.64 -339.27,-29.22 -24.31,62.06 40.55,134.26 204.02,103.73l95.59 -0.35c76.17,115 40.46,249.52 286.95,199.1 186.4,-38.12 64.55,124.98 255.05,211.84 125.99,57.46 113.89,-73.61 274.66,35.52 1.25,5.31 -3.92,11.23 1.12,16.34 8.74,8.93 -13.13,44.69 23.25,91.36 45.41,58.17 54.89,0.68 72.57,88.93 67.72,-10.58 64.61,-17.8 140.22,-0.35 60.35,-110.28 -17.59,-39.47 59.7,-191.09 34.95,-68.53 77.64,-140.61 114.33,-209.83 88.51,-167.04 405.75,-715.72 429.07,-856.85 10.69,-64.78 6.76,-127.52 23.1,-182.93 36.99,-125.44 52.91,-82.6 51.28,-203.16 -1.31,-95.17 1.65,-83.04 42.28,-191.62 36.82,-98.39 19.77,-116.77 36.68,-198.63 13.17,-63.81 61.89,-137.19 67.57,-197.76 9.71,-103.51 -35.77,-33.41 25.69,-197.53 94.68,-252.85 3734.34,-7008.25 4169.12,-7820.17 144.04,-268.99 309.5,-622.85 469.52,-871.54 23.34,-36.26 95.13,-140.35 127.04,-168.43 77.57,-68.23 57.57,-22.88 145.82,-144.14l374.13 -428.45c28.01,-22.95 -3.17,6.13 36.24,-32.8 62.34,-61.63 85.42,-99.24 141.79,-171.15 111.26,-141.96 92.07,-10.05 267.19,-334.68l445.8 -862.15c1.51,-5.51 3.28,-12.92 4.01,-19.53l-130.35 -91.59c-215.33,116 -103.73,16.5 -196.61,73.55 -55.44,-50.49 17.99,23.36 -15.28,-111.82 -13.01,-52.7 -21.25,-83.67 -83.01,-122.44 -137.18,-86.07 -87.39,-28.85 -152.25,-12.13l-25.54 6.12c-73.16,11.65 -51.9,-16.86 -98.75,17.38 -2.69,-92.89 -30.96,-44.9 -60.04,-138.94 -0.15,-0.43 8.76,-122.11 -147.26,-120.46 -70.13,0.75 -198.07,116.13 -239.79,-144.69 -214.94,-130.85 -159.72,-33.43 -302.25,-42.21 -110.62,-78.35 -40.97,-55 -77.93,-148.22 -223.86,-183.1 -190.07,1.61 -339.42,-79.11 -77.57,-96.61 52.18,-122.43 -232.17,-237.7 -58.57,28.47 -97.21,116.91 -178.05,-12.11 -34.73,-55.43 -11.67,-127.87 -153.09,-163.38 -106.42,-26.73 -117.73,85.45 -210.69,-18.12 -72.49,-80.76 52.16,-88.19 -134.87,-180.41 -211.49,-104.29 -50.08,103.72 -212.79,-16.36 -116.25,-85.85 19.18,10.5 -52.77,-91.8 -112.67,-160.22 -253.95,-107.41 -294.47,-103.68 -42.93,3.96 -52.82,22.97 -107.32,-36.93 -36.09,-39.65 -22.45,-57.24 -29.64,-110.46 -167.7,-104.93 -166.67,-54.37 -298.77,-44.41 -99.89,-88.71 -63.63,-153.08 -158.19,-209.03 -137.84,-81.6 -117.55,50.8 -272.59,-35.19 -42.6,-38.87 4.79,-104.92 -111.34,-172.22 -130.69,-75.76 -167.83,11.2 -221.62,-2.98 -152.54,-90.42 -15.51,-74.01 -132.7,-141.93 -42.51,126.17 65.54,183.65 134.28,222.36 271.98,-167.24 233.44,98.59 299.48,154.42 123.84,73.61 153.49,-1.43 270.76,-2.43 92.46,90.09 50.6,150.34 160.24,246.24 71.63,-7.61 171.8,-54.01 254.4,-13.84 65.6,47.77 2.33,54.5 107.68,218.57 158.99,15.85 330.83,-149.58 352.05,187.11 140.65,47.57 153.23,4.54 244.78,-43.67 181.71,97.18 128.38,126.08 128.38,126.14l0.28 24.23c0.32,3.72 0.88,10 1.35,13.85 2.18,17.92 11.58,31.35 14.34,70.15 203.23,88.06 200.29,-38.28 302.69,19.62 93.03,52.55 36.71,161.25 149.19,226.9 78.05,12.27 69.11,-10.97 141.17,-28.84 200.62,-49.71 93.88,167.28 276.75,255.11 61.6,-44.17 120.55,-55.3 204.54,-46.52 86.85,94.04 39.98,171.05 159.78,247.04 404.94,-128.02 175.84,45.15 382.53,208.49 364.39,-79.48 218.29,-50.06 321.18,136.83l21.04 37.59c30.45,40.12 -4.9,14.66 57.12,44.58 30.2,-20.68 -2.94,-2.26 38.37,-18.75 221.75,-88.48 219.73,24.44 245.07,78.36 33.42,71.09 63.42,-14.64 12.68,100.51l122.95 64c31.17,-43.45 26.19,-39.17 84.37,-54.71 59.01,-15.79 73.63,-5.03 153,24.48 -96.17,180.46 -190.36,362.01 -286.89,542.53 -75.16,140.54 -202.47,443.14 -305.57,487.64 -9.56,-46.88 -12.04,-24.43 3.5,-86.36l419.17 -787.75c-191.35,-105.19 -111.82,-43.16 -188.08,-72.85 -108.78,-42.32 -70.56,-97.76 -106.27,-174.78 -63.99,-63.72 -224.08,-5.45 -283.42,25.9 -4.3,-6.29 -8.67,-13.46 -12.38,-19.21l-60.32 -105.41c-13.42,-44.8 -44.41,24.66 6.76,-87.81 -193.18,-103.31 -133.52,-52.18 -253.71,-19.05l-62.06 10.01c-7.96,-2.31 -11.48,1.25 -17.23,1.88 -2.49,-4.95 -5.62,-11.52 -7.37,-14.92l-51.32 -107.91c-21.78,-71.79 -40.75,-149.86 -140.46,-130.15 -1.54,0.3 -30.66,9.77 -39.83,12.03 -210.78,52.03 -194.37,-64.2 -228.15,-138.15 -77,-168.61 -193.17,-5.46 -292.58,-47.83 -127.03,-94.76 -35.67,-149.39 -166.07,-235.33 -113,-10.69 -130.53,42.41 -219.67,32.86 -110.51,-62.29 -70.77,-189.19 -144.42,-232.54 -46.57,-27.43 -86.98,-12.92 -131.26,2.86 -45.43,16.18 -3.61,29.76 -147.41,13.08 -29.44,-43.56 -20.47,-32.45 -46.65,-93.58 -14.51,-33.93 -0.71,-6.28 -17.55,-40.52l-26.85 -46.79z"/>
   <path class="fil1" d="M1598.86 11184.65c28.88,-14.46 -8.23,19.08 40.46,-29.39l97.72 -145.91c565.13,-1012.27 1179.26,-2202.9 1728.22,-3229.86 308.02,-576.19 617.86,-1151.65 924.12,-1728.75 302.72,-570.37 604.7,-1171.35 927.18,-1727.11l50.57 4.6 -87.92 214.73 22.4 11.98 15.68 -22.59c91.5,-130.43 201.69,-375.97 283.11,-528.46l728.96 -1362.69c53.42,-106.41 45.79,-161.62 68.49,-255.57l223.17 -974.84c112.71,-337.6 -50.11,-71.56 185.86,-511.51 98.78,-184.15 195.93,-384.52 303.04,-562.35 101.03,63.07 59.45,139.73 221.02,126.83 4.56,-0.36 11.84,-2.27 17.84,-2.96l122.9 -37.45c98.88,99.29 9.18,157.74 158.93,248.7 66.66,-4.75 150.07,-45.52 206.19,-49.65 102.22,60.27 83.36,161.21 154.41,257.13 37.93,23.83 192.94,-36.44 230.44,-52.99 143,78.67 57.84,41.83 124.67,181.08 37.35,77.89 -6.25,20.47 61.66,87.9 50.61,-29.15 97.32,-40.86 142.81,-52.23 71.76,-17.93 72.24,-16.24 151.63,32.45 5.39,91.12 10.43,131.82 61.47,206.52 193.28,19.6 105.78,-75.17 303.9,4.31l26.85 46.79c16.84,34.24 3.04,6.59 17.55,40.52 26.18,61.13 17.21,50.02 46.65,93.58 143.8,16.68 101.98,3.1 147.41,-13.08 44.28,-15.78 84.69,-30.29 131.26,-2.86 73.65,43.35 33.91,170.25 144.42,232.54 89.14,9.55 106.67,-43.55 219.67,-32.86 130.4,85.94 39.04,140.57 166.07,235.33 99.41,42.37 215.58,-120.78 292.58,47.83 33.78,73.95 17.37,190.18 228.15,138.15 9.17,-2.26 38.29,-11.73 39.83,-12.03 99.71,-19.71 118.68,58.36 140.46,130.15l51.32 107.91c1.75,3.4 4.88,9.97 7.37,14.92 5.75,-0.63 9.27,-4.19 17.23,-1.88l62.06 -10.01c120.19,-33.13 60.53,-84.26 253.71,19.05 -51.17,112.47 -20.18,43.01 -6.76,87.81l60.32 105.41c3.71,5.75 8.08,12.92 12.38,19.21 59.34,-31.35 219.43,-89.62 283.42,-25.9 35.71,77.02 -2.51,132.46 106.27,174.78 76.26,29.69 -3.27,-32.34 188.08,72.85l-419.17 787.75c-15.54,61.93 -13.06,39.48 -3.5,86.36 103.1,-44.5 230.41,-347.1 305.57,-487.64 96.53,-180.52 190.72,-362.07 286.89,-542.53 -79.37,-29.51 -93.99,-40.27 -153,-24.48 -58.18,15.54 -53.2,11.26 -84.37,54.71l-122.95 -64c50.74,-115.15 20.74,-29.42 -12.68,-100.51 -25.34,-53.92 -23.32,-166.84 -245.07,-78.36 -41.31,16.49 -8.17,-1.93 -38.37,18.75 -62.02,-29.92 -26.67,-4.46 -57.12,-44.58l-21.04 -37.59c-102.89,-186.89 43.21,-216.31 -321.18,-136.83 -206.69,-163.34 22.41,-336.51 -382.53,-208.49 -119.8,-75.99 -72.93,-153 -159.78,-247.04 -83.99,-8.78 -142.94,2.35 -204.54,46.52 -182.87,-87.83 -76.13,-304.82 -276.75,-255.11 -72.06,17.87 -63.12,41.11 -141.17,28.84 -112.48,-65.65 -56.16,-174.35 -149.19,-226.9 -102.4,-57.9 -99.46,68.44 -302.69,-19.62 -2.76,-38.8 -12.16,-52.23 -14.34,-70.15 -0.47,-3.85 -1.03,-10.13 -1.35,-13.85l-0.28 -24.23c0,-0.06 53.33,-28.96 -128.38,-126.14 -91.55,48.21 -104.13,91.24 -244.78,43.67 -21.22,-336.69 -193.06,-171.26 -352.05,-187.11 -105.35,-164.07 -42.08,-170.8 -107.68,-218.57 -82.6,-40.17 -182.77,6.23 -254.4,13.84 -109.64,-95.9 -67.78,-156.15 -160.24,-246.24 -117.27,1 -146.92,76.04 -270.76,2.43 -66.04,-55.83 -27.5,-321.66 -299.48,-154.42 -68.74,-38.71 -176.79,-96.19 -134.28,-222.36 -155.11,-71.85 -132.54,-3.85 -227.63,163.68 -123.5,217.65 -478.7,867.55 -503.36,1042.37 -6.35,45.08 -5.74,99.56 -16.55,146.64 -13.8,60.15 -36.47,104.71 -45.92,160.21l-146.71 643.92c-13.6,136.88 -26.62,185.36 -98.02,334.63 -224.96,470.42 -514.9,969.24 -763.9,1433.4l-2295.85 4295.91c-255.25,477.26 -510.41,954.53 -765.69,1431.77 -251.3,469.87 -501.55,975.5 -770.94,1431.22z"/>
   <path class="fil0" d="M7072.29 726.86c133.44,-111.54 311.58,41.97 498.1,141.75l3369.6 1803.08c282.28,154.03 421.84,169.24 416.06,346.06 -117.95,54.49 -352.1,-97.56 -501.94,-185.47 -178.91,-104.93 -373.55,-203.28 -557.77,-300.65 -998.47,-527.73 -2066.83,-1126.98 -3055.29,-1635.73 -109.84,-56.55 -173.17,-62.51 -168.76,-169.04zm4080.36 2647.82c-117.58,142.16 -241.34,-7.4 -544.9,-165.68 -188.03,-98.05 -372.15,-199.54 -559.31,-297.79l-2794.33 -1493.13c-241.8,-129.32 -482.85,-199.65 -358.72,-337.17 155.57,-5.43 1869.59,961.68 2163.69,1118.96 360.85,192.95 721.37,386.71 1082.61,578.94 189.21,100.66 937.1,455.7 1010.96,595.87zm-5835.36 1157.67l45.13 -45.26c9.52,143.39 -27.26,62.73 14.35,70.83 81.49,-56.13 67.94,-57.04 159.5,-94.33 162.75,-66.26 348.51,-186.84 505.4,-174.92 317.45,24.11 478.25,342.08 512.5,377.61 41.33,42.87 93.09,104.3 130.95,137.76 147.51,130.46 280.85,142.89 409.8,121.69 126.49,-20.78 217.43,-31.28 332.33,-114.97 64.02,-46.64 81.59,-38.12 145.53,-115.56 67.68,-81.93 81.73,-76.94 138.77,-131.87 45.6,-43.94 108.13,-118.04 143.07,-154.15 50.21,-51.83 96.67,-112.11 126.95,-176.63 -3.24,0.6 -40.1,-8.62 -94.48,35.07 -21.64,17.43 -45.16,49.12 -68.02,79.9l-348.9 375.79c-36.74,25.04 -31.05,21.49 -73.55,52.07 -85.15,61.26 -257.8,74.49 -348.97,90.08 -155.95,26.7 -224.73,12.96 -341.45,-115.12 -47.9,-52.56 -104.8,-90.38 -137.41,-148.27 -25.69,-45.62 8.88,-19.33 -56.41,-87.45 -27.99,-29.2 -41.41,-35.74 -67.06,-66.57 -76.73,-92.17 -202.81,-225.48 -354.29,-231.95 -232.4,-9.94 -248.48,51.86 -340.64,89.02 -17.61,7.11 -25.53,9.39 -50.74,16.89 -62.45,18.59 -222.94,70.18 -256.56,104.41 292.97,-548.76 578.79,-1106.17 871.77,-1657.14 228.21,-429.21 111.41,-335.49 165.45,-492.87 95.69,-278.66 9.3,-126.93 57.13,-285.63 23.03,-76.39 62.36,-118.93 64.64,-192.98 3.31,-106.57 -22.33,-56.38 43.66,-198.47 66.71,-143.63 51.68,-240.37 112.24,-381.44l4315.77 2300.16c57.42,-23.92 102.65,-70.96 130.79,-154.7 -59.98,-99.96 -55.54,-119.78 -175.8,-183.51 -93.84,-49.75 -188.61,-96.64 -282.41,-146.01l-2810.84 -1504.23c-186.21,-99.64 -372.98,-198.35 -559.31,-297.83 -75.36,-40.24 -344.44,-202.11 -410.57,-205.29l-114.95 16.67c-11.28,-3.04 -15.1,1.37 -23.31,0.71l158.86 -293.92c102.56,103.6 9.3,65.64 89.27,129.01l3332.6 1779.64c143.08,76.51 720.62,426.87 853.41,420.33 128.21,-6.33 113.56,6.27 170.69,-140.61 -59.2,-129.18 -334.11,-229.4 -489.09,-314.37 -685.64,-375.81 -3552.96,-1849.21 -3738.44,-2037.16l-108.61 46.63c-173.67,83.27 150.11,-32.51 -55.52,24.22l88.24 -170.04 127.54 36.41c69.51,10.56 58.14,-4.94 92.48,-63.2 -6,0.69 -13.28,2.6 -17.84,2.96 -161.57,12.9 -119.99,-63.76 -221.02,-126.83 -107.11,177.83 -204.26,378.2 -303.04,562.35 -235.97,439.95 -73.15,173.91 -185.86,511.51l-223.17 974.84c-22.7,93.95 -15.07,149.16 -68.49,255.57l-728.96 1362.69c-81.42,152.49 -191.61,398.03 -283.11,528.46z"/>
   <path class="fil0" d="M2734.62 14676.32c6.79,-42.59 8.95,-62.22 7.31,-91.58 -159.42,-121.64 -171.19,-2.84 -314.55,-26.18 -95.91,-97.15 -42.28,-152.45 -171.66,-254.43 -259.95,156.61 -269.07,-78.07 -355.29,-187.84 -5.58,0.53 -18.89,-1.34 -16.68,1.63l-61.51 7.69c-95.14,18.3 -97.02,57.61 -212.39,-11.83 -63.07,-352.6 -227.14,-149.65 -312.59,-171.29 -124.31,-62.93 -107.26,-153.09 -144.5,-233.67 -118.3,-31.8 -176.75,43.5 -297.18,9.83 -33.6,-54.83 -50.56,-124.12 -98.94,-192.89 -135.59,-112.39 -252.79,138.91 -338.41,-138.41 -75.45,-244.32 -201.64,-25.72 -339.14,-102.09 56.72,-158.96 384.24,-751.55 501.19,-963.58 132.11,-239.48 115.98,-162.73 206.11,-246.08 91,-84.14 96.32,-159.31 199.28,-226.24 62.81,-40.83 329.56,-367.13 407.23,-448.02 79.71,-83.01 119.38,-84.21 205.96,-216.69 269.39,-455.72 519.64,-961.35 770.94,-1431.22 255.28,-477.24 510.44,-954.51 765.69,-1431.77l2295.85 -4295.91c249,-464.16 538.94,-962.98 763.9,-1433.4 71.4,-149.27 84.42,-197.75 98.02,-334.63l146.71 -643.92c9.45,-55.5 32.12,-100.06 45.92,-160.21 10.81,-47.08 10.2,-101.56 16.55,-146.64 24.66,-174.82 379.86,-824.72 503.36,-1042.37 95.09,-167.53 72.52,-235.53 227.63,-163.68 38.79,-66.34 -109.23,-108.7 -138.03,-99.69 -67.02,20.98 -562.81,984.07 -575.18,1075.69 -13.43,99.32 -18.45,111.79 -65.58,218.52 -56.49,127.86 -25.87,103.46 -39.11,211.94 -9.54,78.06 -41.31,113.38 -63.01,181.86 -45.04,142.09 41.33,10.98 -22.96,197.39l-93.07 400.04c-45.76,300.52 -223.97,561.24 -385.52,863.28l-3810.91 7123.23c-235.64,441 -306.06,713.78 -612.91,1010.17 -53.85,52 -85.4,115.84 -138.69,167.67 -63.37,61.65 -83.78,58.26 -145.51,141.5 -126.91,171.11 -298.73,313.69 -425.36,450.05 -103.16,111.03 -189.26,192.44 -270.41,342.38 -89.23,164.84 -437.98,759.89 -447.18,881.08 149.03,215.23 180.54,23.61 340.45,114.21 8.92,8.42 57.39,172.97 114.27,203.56 116.38,62.56 196.1,-91.08 279.78,58.91l84.62 144.14 134.11 15.23c64.15,5.2 50.52,-16.67 133.66,-12.06 43.47,54.06 23.42,52.73 48.1,95.23 22.06,37.97 40.08,48.05 84.57,75.19 111.81,68.14 127.66,47.95 159.49,45.94 191.44,-12 44.56,68.95 241.81,170.48 120.48,61.99 125.49,3.32 241.14,11.31 80.61,66.1 64.17,87.18 82.18,153.58 166.11,97.76 100.81,59.27 236.62,49.29 225.43,-16.56 70.59,292.33 372.4,210.33 81.99,-22.26 35.51,-29.73 88.37,-11.29 17.11,5.96 38.19,26.47 43.14,31.23l49.91 55.03z"/>
   <path class="fil1" d="M772.3 12505.47l3197.32 1730.58c257.29,133.64 825.28,484.25 1063.54,537.1l53.38 -89.65c-1101.44,-687.04 -2645.52,-1404.48 -3836.11,-2081.09 -270.14,-153.51 -367.84,-228.96 -478.13,-96.94z"/>
   <path class="fil0 str1" d="M3918.93 9749.22c116.8,71.86 290.39,194.84 405.34,175.6 295.42,-49.41 463.87,-252.56 455.33,-495.15 -5.82,-165.31 -22.85,-160.05 -131.02,-292.35 -126.02,-154.17 -360.12,-184.29 -426.33,-172.55 -67.77,12.07 59.43,-33.27 -36.09,13.63 -3.54,1.73 -8.54,4.88 -12.09,6.88 -3.72,2.08 -8.59,5.29 -12.36,7.62l-146.39 113.45c-34.34,22.06 -80.24,23.36 -133.05,153.69 -25.41,62.78 -38.41,259.88 -4,345.42 23.69,58.83 32.5,76.21 40.66,143.76z"/>
   <path class="fil1 str2" d="M4954.64 13358.72c-113.38,56.14 -207.48,-43.09 -343.2,-112.87 -355.9,-183.06 -2231.45,-1167.89 -2456.56,-1316.26 -85.83,-56.56 -111.83,-59.97 -120.85,-132.77 51.24,-23.97 12.78,-19.22 77.06,-6.82 1.52,0.29 75.33,28.59 79.21,30.28 345.52,151.11 1673.16,886.59 2077.33,1102.72 164.25,87.83 650.16,305.07 687.01,435.72zm-3017.53 -1636.19c-11.53,50.52 -2.98,142.99 32.59,183.96 38.56,44.41 1489.18,804.49 1577.63,851.8 172.74,92.37 1228.63,690.97 1365.1,708.25 205.8,26.05 126.3,-110.71 107.74,-185.23 -7.64,-30.75 -0.15,-3.05 -5.46,-33.74 -474.56,-294.95 -1065.27,-587.78 -1566.67,-849.5l-1184.65 -628.7c-194.89,-76.24 -134,-64.27 -326.28,-46.84z"/>
   <path class="fil1 str3" d="M11310.76 2993.53c-155.48,14.45 -819.44,-394.84 -1016.39,-500.22l-2915.97 -1559.58c-46.92,-25.23 -95.83,-49.02 -141.96,-73.53 -81.2,-43.15 -82.6,-22.29 -96.8,-97.32 83.02,-41.59 69.42,-14.02 260.32,88.54l3439.86 1839.67c142.61,76.87 417.87,169.67 470.94,302.44zm-4238.47 -2266.67c-4.41,106.53 58.92,112.49 168.76,169.04 988.46,508.75 2056.82,1108 3055.29,1635.73 184.22,97.37 378.86,195.72 557.77,300.65 149.84,87.91 383.99,239.96 501.94,185.47 5.78,-176.82 -133.78,-192.03 -416.06,-346.06l-3369.6 -1803.08c-186.52,-99.78 -364.66,-253.29 -498.1,-141.75z"/>
   <path class="fil1" d="M4792.32 15113.14c-43.56,-110.6 -315.28,-223.25 -474.96,-309.66 -174.44,-94.44 -347.61,-188.95 -523.78,-280.25 -350.88,-181.85 -698.79,-374.04 -1047.85,-559.97 -349.56,-186.17 -698.55,-373.24 -1047.82,-560.02 -174.43,-93.32 -350.92,-184.29 -523.97,-279.89 -52.03,-28.73 -400.94,-227.37 -455.58,-234.27 -62.75,-7.91 -12.35,-15.61 -64.24,11.01 7.47,83.34 43.31,78.04 211.36,170.21l3668.58 1957.98c105.91,57.16 159.32,103.3 258.26,84.86z"/>
   <path class="fil1 str2" d="M3918.93 9749.22c-8.16,-67.55 -16.97,-84.93 -40.66,-143.76 -34.41,-85.54 -21.41,-282.64 4,-345.42 52.81,-130.33 98.71,-131.63 133.05,-153.69l146.39 -113.45c3.77,-2.33 8.64,-5.54 12.36,-7.62 3.55,-2 8.55,-5.15 12.09,-6.88 95.52,-46.9 -31.68,-1.56 36.09,-13.63 66.21,-11.74 300.31,18.38 426.33,172.55 108.17,132.3 125.2,127.04 131.02,292.35 8.54,242.59 -159.91,445.74 -455.33,495.15 -114.95,19.24 -288.54,-103.74 -405.34,-175.6zm-57.38 150.7c181.08,99.84 256.41,194.23 446.37,167.73 115.65,-16.15 310.08,-40.26 370.68,-138.68 52.25,-80.2 311.09,-242.28 181.95,-652.51 -109.72,-348.57 -401.15,-447.73 -723.4,-404.43 -249.71,33.57 -495.65,503.72 -413.12,734.18l19.67 53.5c11.77,31.51 17.4,51.93 32.74,76.81 60.05,97.22 92.4,48.7 85.11,163.4z"/>
   <path class="fil1 str2" d="M3883.51 8971.9c4.77,-2.03 10.56,-5.88 13.49,-7.67 2.92,-1.76 9.75,-5.55 13.3,-7.77l38.08 -25.34c150.5,-98.51 294.24,-149.25 484.5,-88.18 22.73,-12.48 25.86,-19.87 46.49,-27.12 -20.2,-22.72 -58.17,20.87 -77.22,-102.54 -66.43,-430.3 632.72,258.78 978.3,225.16 29.32,-82.67 59.35,-104.86 -26.04,-152.61 -48.09,104.78 -107.83,117.98 -210.45,65.02l-697.64 -374.65c-32.75,-12.71 -30.03,-12 -65.18,-17.07 -28.47,-4.13 -36.65,-1.72 -50.12,-0.77 -69.43,29.69 -158.78,452.15 -285.23,143.08l371.24 -691.58c102.99,-3.29 38.19,-35.88 156.22,17.85 -27.51,118.4 -113.92,230.89 -131.68,330.39l124.76 70.98c-18.2,-125.87 90.35,-322.89 166.61,-412.45 261.66,113.38 660.77,430.13 905.95,414.6 57.66,-83.33 474.58,-684.95 358.69,-785.19 -108.61,-93.94 -105.46,-24.34 -122.17,-18.37l95.98 53.11c12.42,117.07 -102.55,276.69 -175.37,412.3 -59.2,110.29 -141,313.74 -260.98,287.94 -72.11,5.07 -193.06,-66.91 -257.77,-101.25 -932.23,-494.8 -801.27,-353.67 -557.71,-852.2 75.63,-154.81 147,-353.29 305.33,-279.35 12.57,208.76 -224.35,398.71 -264.43,615.59 51.8,75.68 100.17,99.9 198.79,138.99 118.1,46.82 131.98,5.85 194.08,-108.41l-78.86 50.24c-101.37,66.01 14.18,11.4 -42.6,22.72 -64.18,12.78 -181.82,-60.05 -191.36,-72.51 -45.63,-136.98 55.63,-139.26 116.28,-282.44 31.88,-75.28 118.36,-269.61 114.06,-346.03 -15.1,-50.75 -127.64,-111.04 -217.5,-23.08 -172.9,169.26 -202.15,329.18 -311.17,527.38 -70.37,127.94 -59.43,143.48 11.69,234.08 -77.16,29.31 5.3,18.7 -77.91,59.89 -142.31,70.4 -49.85,-58.95 -276.55,329.93l-184.62 390.78c-17.19,72.35 33.86,96.54 76.21,150.36 -64.73,53.71 -162.58,149.64 -207.49,236.19z"/>
   <path class="fil1 str2" d="M4954.64 13358.72c-36.85,-130.65 -522.76,-347.89 -687.01,-435.72 -404.17,-216.13 -1731.81,-951.61 -2077.33,-1102.72 -3.88,-1.69 -77.69,-29.99 -79.21,-30.28 -64.28,-12.4 -25.82,-17.15 -77.06,6.82 9.02,72.8 35.02,76.21 120.85,132.77 225.11,148.37 2100.66,1133.2 2456.56,1316.26 135.72,69.78 229.82,169.01 343.2,112.87z"/>
   <path class="fil1" d="M11310.76 2993.53c-53.07,-132.77 -328.33,-225.57 -470.94,-302.44l-3439.86 -1839.67c-190.9,-102.56 -177.3,-130.13 -260.32,-88.54 14.2,75.03 15.6,54.17 96.8,97.32 46.13,24.51 95.04,48.3 141.96,73.53l2915.97 1559.58c196.95,105.38 860.91,514.67 1016.39,500.22z"/>
   <path class="fil1 str2" d="M6541.54 9155.2c126.62,-238 954.81,-1746.39 1012.35,-1940.92l-109.45 -54.71c-355.3,616.2 -720.66,1324.3 -1059.57,1956.75 -130.28,243.04 -179.41,278.48 -46.49,362.69 77.61,-70.93 144.72,-214.37 203.16,-323.81z"/>
   <path class="fil1" d="M11079.6 3386.34c54.88,-76.69 -118.38,-132.27 -185.62,-166.58 -479.22,-244.61 -3826.44,-2078.18 -3939.81,-2090.97 -34.37,-3.88 -25.86,-0.21 -46.16,4.21 41.67,90.31 119.25,110.35 228.94,168.16 652.89,344.07 3850.85,2090.76 3942.65,2085.18z"/>
   <path class="fil1" d="M11079.6 3386.34c-91.8,5.58 -3289.76,-1741.11 -3942.65,-2085.18 -109.69,-57.81 -187.27,-77.85 -228.94,-168.16 20.3,-4.42 11.79,-8.09 46.16,-4.21 113.37,12.79 3460.59,1846.36 3939.81,2090.97 67.24,34.31 240.5,89.89 185.62,166.58zm73.05 -11.66c-73.86,-140.17 -821.75,-495.21 -1010.96,-595.87 -361.24,-192.23 -721.76,-385.99 -1082.61,-578.94 -294.1,-157.28 -2008.12,-1124.39 -2163.69,-1118.96 -124.13,137.52 116.92,207.85 358.72,337.17l2794.33 1493.13c187.16,98.25 371.28,199.74 559.31,297.79 303.56,158.28 427.32,307.84 544.9,165.68z"/>
   <path class="fil1 str2" d="M9902.66 4092.35c32.26,-116.05 -131.65,-162.13 -250.19,-230.77 -120.13,-69.57 -260.77,-135.55 -385.78,-202.41l-1920.39 -1027.84c-323.9,-173.39 -279.82,-198.62 -358.1,-108.22 41.95,89.33 216.08,153.29 342.66,221.06l1100.23 587.98c231.48,123.46 1311.89,739.89 1471.57,760.2z"/>
   <path class="fil1 str2" d="M6032.63 6488.97c-65.65,-22.25 -219.74,0.96 -288.14,12.8 -94.87,16.41 -198.33,28.34 -249.18,95.39 122.28,156.6 521.12,261.97 694.92,416.65 -37.93,54.14 11.63,18.63 -48.42,36.22 -15.11,4.42 -46.22,-1.18 -58.33,-4.83 -39.33,-11.8 -85.01,-40.08 -121.67,-60.48l-523.72 -281.45c-56.23,-26.97 -274.58,-102.46 -171.68,-190.37 45.87,-39.21 637.44,-115.32 761.36,-139.15l262.62 -47.34c83.5,-104.33 -148.33,-235.86 -233.14,-276.58 -72.22,-34.67 -143,-66.75 -214.63,-103.3 -142.6,-72.72 -144.21,-76.96 -143.35,-138.34l131.07 34.36c31.4,15.39 73.07,40.29 104.41,58.09l670.23 378.04c-58.27,150.72 -193.68,95.55 -470.02,159.34 -14.71,3.39 -34.06,6.5 -41.7,9.23 -47.53,17.03 -26.39,-9.25 -60.63,41.72zm0 0c72.77,21.89 -10.06,5.06 44.18,6.85l126.1 -22.58c53.93,-11.89 116.05,-23.14 166.15,-30.4 162.39,-23.52 246.79,-18.62 318,-133.53 -152,-152.58 -613.84,-364.66 -860.22,-500.98 -154.26,-85.35 -199.81,-124.43 -238.55,44.75 72.94,93.2 279.06,180.06 380.34,217.19 251.07,92.06 273.29,227.99 277.41,223.74l-551.5 93.5c-213.89,47.17 -267.4,2.05 -516.4,107.51 -32.13,236.27 245.1,272.7 472.25,399.21 179.14,99.78 489.91,311.4 620.7,207.75 39.78,-178.54 -508.43,-376.09 -687.77,-474.15 40.44,-25.96 10.04,-5.17 44.41,-21.42 5.47,-2.57 21.59,-9.93 27.06,-12.5 177.2,-83.57 131.82,-37.32 273.26,-61.95 7.81,-1.34 50.27,-11.78 53.14,-12.88 49.87,-19.2 9.62,12.61 51.44,-30.11z"/>
   <path class="fil1 str2" d="M5649.35 10132.76l41.75 -90.59c103.5,57.43 103.87,59.5 217.33,103.23 -74.72,54.02 2.92,7.79 -60.15,21.58 -43.92,9.63 -18.36,-0.38 -48.36,5.6 -2.44,0.51 -109.66,-2.37 -226.56,232.37l82.06 79.01c52.75,85.58 205.33,106.43 259.6,201.06 -197.95,-6.17 -493.64,-236.78 -670.03,-344.32 -95.7,-58.34 -174.41,-47.66 -227.37,-136.78 43.6,-13.59 -39.13,-73.6 174.42,66.89 61.76,40.63 128.08,74.37 185.61,68.17 -97.78,-68.85 -202.65,-121.39 -301.96,-193.83 30.32,-77.35 74.87,-180.63 139.36,-232.72 78.38,-63.32 102.32,-62.58 194.08,-70.25 194.76,-16.27 198.53,135.26 240.22,290.58zm6.07 351.2l11.46 -92.19c52.53,-160.11 134.66,-189.35 272.04,-153.64 44.91,-23.63 140.45,-38.42 197.41,-19.88l92.81 -47.58c46.76,-25.82 45.73,-31.9 73.19,-85.62 -72.34,-21.71 -72.29,-2.3 -172,-38.76 -61.33,-17.14 -15.52,-1.27 -98.08,10.66 -4.52,0.63 -10.27,1.59 -14.92,2.07l-127.27 -17.15c-0.11,0.11 -57.15,126.22 -132.61,-40.79 -74,-163.73 -153.15,-335.85 -427.11,-280.76 -220.7,44.39 -338.02,279.95 -392.33,484.31 70.87,109.44 105.84,106.09 242.02,173.83l567.71 323.87c109.64,58.64 191.34,119.38 242.14,-11.71 -60.44,-75.25 -228.09,-173.04 -334.46,-206.66z"/>
   <path class="fil0" d="M9902.66 4092.35c-159.68,-20.31 -1240.09,-636.74 -1471.57,-760.2l-1100.23 -587.98c-126.58,-67.77 -300.71,-131.73 -342.66,-221.06 78.28,-90.4 34.2,-65.17 358.1,108.22l1920.39 1027.84c125.01,66.86 265.65,132.84 385.78,202.41 118.54,68.64 282.45,114.72 250.19,230.77zm-2984 -1570.21c141.56,160.19 2285.9,1255.07 2805.94,1540.81 310.3,170.5 230.54,0.18 234.24,-89.98 -488.26,-288.71 -1035.96,-558.27 -1540,-827.83l-1152.41 -616.4c-245.02,-129.6 -253.5,-174.65 -347.77,-6.6z"/>
   <path class="fil1 str1" d="M4568.36 11760.1c75.01,132.52 -28.06,269.07 -144.91,281.55 -202.23,-29.33 -322.89,-175.4 -212.23,-360.39 39.54,-17.66 44.35,-14.84 91.49,-36.81 78.35,-36.5 47.63,-44.33 129.76,-8.46 47.72,26.92 101.04,47.69 135.89,124.11zm287.17 21.37c100.29,-33.18 287.84,54.84 271.83,163.96 29.18,38.95 31.89,43.01 80.79,77.86 117.47,-239.65 -204.44,-347.65 -299.63,-361.23 -88.52,-12.63 -13.91,-10.3 -84.25,13.9 -215.29,74.06 -170.14,-106.91 -347.68,-138.28l-58.86 0.62c-117.62,3.59 -43.73,-18.47 -127.37,13.86 -83.39,32.22 -263.23,227.09 -239.4,355.12 45.78,84.52 908.98,539.72 989.53,524.93 74.06,-34.4 216.14,-301.21 194.26,-393.86l-31.28 20.64c-59.79,58.1 -48.89,67.64 -93.75,149.08 -34.49,62.54 -59.61,95.54 -104.07,132.71 -93,-11.78 -308.12,-128.61 -402.75,-192.7 -7.43,-142.22 78.67,-253.56 178.82,-375.3 41.13,0.83 32.19,4.25 73.81,8.69z"/>
   <path class="fil1 str3" d="M6342.76 6354.8c17.98,-79.67 98.76,-108.31 24.98,-166.77 80.24,40.99 123.48,29.78 168.06,104.73 -39.62,56.31 -2.95,21.69 -52.41,39.45l-140.63 22.59zm-310.13 134.17c34.24,-50.97 13.1,-24.69 60.63,-41.72 7.64,-2.73 26.99,-5.84 41.7,-9.23 276.34,-63.79 411.75,-8.62 470.02,-159.34l-670.23 -378.04c-31.34,-17.8 -73.01,-42.7 -104.41,-58.09l-131.07 -34.36c-0.86,61.38 0.75,65.62 143.35,138.34 71.63,36.55 142.41,68.63 214.63,103.3 84.81,40.72 316.64,172.25 233.14,276.58l-262.62 47.34c-123.92,23.83 -715.49,99.94 -761.36,139.15 -102.9,87.91 115.45,163.4 171.68,190.37l523.72 281.45c36.66,20.4 82.34,48.68 121.67,60.48 12.11,3.65 43.22,9.25 58.33,4.83 60.05,-17.59 10.49,17.92 48.42,-36.22 -173.8,-154.68 -572.64,-260.05 -694.92,-416.65 50.85,-67.05 154.31,-78.98 249.18,-95.39 68.4,-11.84 222.49,-35.05 288.14,-12.8z"/>
   <path class="fil1 str2" d="M5166.93 10779.74c73.76,21.27 98.91,13.93 191.37,33.72 217.45,46.51 284.72,-10.04 505.4,104.63 -59.86,55.56 -119.01,73.17 -208.3,39.53 -16.14,9.5 -16.97,17.62 -47.43,27.89 171.24,68.64 207.51,21.47 329.51,-0.48l-16.97 -118.62c66.73,-50.08 100.91,-22.38 129.85,-84.85 23.87,-51.57 -4.95,-101.32 -40.09,-136.78 -84.53,-85.24 -247.59,-120.24 -305,-201.55 18.6,-65.39 30.04,-118.51 91.81,-153.6 41.95,-23.85 96.82,-17.63 141.84,-51.5 -137.38,-35.71 -219.51,-6.47 -272.04,153.64l-11.46 92.19c106.37,33.62 274.02,131.41 334.46,206.66 -50.8,131.09 -132.5,70.35 -242.14,11.71l-567.71 -323.87c-136.18,-67.74 -171.15,-64.39 -242.02,-173.83 54.31,-204.36 171.63,-439.92 392.33,-484.31 273.96,-55.09 353.11,117.03 427.11,280.76 75.46,167.01 132.5,40.9 132.61,40.79 -176.63,-109.4 -130.46,-331.56 -417.04,-383.57 -85.59,-15.51 -192.68,12.08 -253.2,39.55 -120.28,54.57 -117.09,67.09 -202.78,213.86 -38.6,66.09 -148.3,226.74 -150.03,255.28 -5.49,90.96 85.56,188.4 133.55,220.32 119.77,79.68 3.78,-62.74 288.5,121.8 100.31,65.01 207.05,115.61 314.54,167.69 20.67,66.14 48.2,31.1 51.13,75.9 4.62,71.48 -155.6,13.45 -332.31,-10.91 -125.66,-17.33 -73.83,-30.94 -155.49,37.95z"/>
   <path class="fil1 str1" d="M3261.18 10449.01c37.72,-131.4 119.06,-275.22 222.87,-302.39 108.26,-28.36 249.76,47.36 275.57,151.62 16.51,66.7 -37.81,292.28 -130.95,323.59 -65.49,22.02 -297.46,-122.66 -367.49,-172.82zm641.22 -140.29c-17.61,76.16 64.07,33.11 86.8,153.44 -85.9,3.85 3.74,-9.65 -118.71,46.72l-51.32 19.55 -20.91 -82.4c-0.08,-0.37 -7.77,-54.96 -7.8,-56.59 -1.53,-59.43 58.9,-146.54 -77.12,-249.66 -78.28,-59.35 -84.38,-41.17 -156.14,-48.24 -128.95,-12.66 -148.44,2.01 -236.72,123.29 -104.52,143.62 -78.31,192.84 -94.27,233.68l-44.15 53.54c-46.8,-61.67 -77.55,16.99 0.72,-131.69l192.25 -313.27c-23.44,11.22 -2,-7.85 -39.23,23.6l-180.85 254.06c-85.3,133.27 -22.13,227.53 134.69,284.37 146.16,52.98 149.98,90.56 265.11,152.07 36.69,19.62 475.02,221.63 528.87,213.13 8.24,-27.94 68.24,-20.49 -102.68,-125.82 -51.81,-31.91 -152.8,-83.66 -190.28,-115.57 -4.36,-79.34 15.86,-144.98 73.99,-205.15 113,-116.92 409.52,-29.42 541.66,-99.41 36.01,-180.62 -378.25,39.05 -503.91,-129.65z"/>
   <path class="fil1 str2" d="M3270.05 11374.57c-106.9,-62.82 -277.48,-112.31 -341.65,-183.81 -94.55,-105.38 86.56,-242.31 146.86,-272.51 96.41,-48.24 555.85,74.87 194.79,456.32zm-0.21 39.27c105.17,-59.76 117.69,-139.54 156.19,-192.44 86.13,-118.28 28.61,-44.55 85.72,-62.5 -33.45,106.9 -72.18,281.99 -48.55,381.85l257.66 152.08c-81.22,49.49 -197.5,-44.08 -276.3,-86l-562.41 -293.27c-128.27,-72.47 -173.44,-70.59 -112.41,-198.67 34.48,-72.38 106.98,-196.04 158.38,-253.75 163.49,-183.59 642.75,-82.04 554.33,200.8 -24.47,-16.27 -332.68,-392.04 -548.19,-80.66 -149.21,215.54 -59.04,294.9 335.58,432.56zm473.11 353.8c85.69,-158.8 -104.56,-174.89 -236.93,-267.84 -11.6,-113 145.73,-440.83 -11.97,-625.93 -137.49,-161.38 -402.85,-229.96 -627.8,-13.3 -389.39,375.04 -64.28,451.33 120.88,551.86 159.08,86.39 619.98,368.06 755.82,355.21z"/>
   <path class="fil0 str0" d="M8231.45 4083.15c69.03,-86.75 186.21,-110.12 281.75,-124.75 281.49,-43.13 824.98,365.15 1048.86,491.63 391.81,221.37 347.35,12.17 589.91,-219.25 124.66,-118.95 460.92,-242.36 565.46,-224.63 113.4,-91.47 76.92,-24.09 209.55,-180.74 64.4,-76.04 127.86,-112.19 202.69,-214.21 -162.62,86.05 -152.05,170.82 -252.15,236.2 -29.56,19.32 -28.44,5.88 -75.26,30.17 -69.41,36.01 -75.51,81.41 -214.49,20.6 -48.54,78.13 -69.18,65.03 -145.51,101.76 -224.85,108.27 -191.61,23.37 -302.19,164.05l-267.34 274.98c-307.73,159.48 -525.54,-405.85 -1312.77,-567.9 -51.14,-10.51 -131.56,4.45 -169.95,18.83 -55.2,20.65 -364.88,215.35 -408.44,342.66 88.55,-10.15 114.85,-100.77 180.5,-134.38 47.47,-24.32 3.43,-17.03 69.38,-15.02z"/>
   <path class="fil1 str2" d="M5535.04 8281.02c119.98,25.8 201.78,-177.65 260.98,-287.94 72.82,-135.61 187.79,-295.23 175.37,-412.3l-95.98 -53.11 -34.1 73.43c-36.65,78.8 -227.98,451.97 -272.9,494.79 -163.76,55.09 -288.84,-61.75 -360.85,-181.55 60.03,-179 191.46,-390.32 148.62,-428.17 -32.28,17.34 -26.62,14.93 -60.92,59.34 29.84,-4.2 18.51,19.05 32.2,-5.22 -41.52,83.14 -147.24,297.88 -144.94,379.14 3.53,125.58 143.68,176.03 296.16,258.34l123.95 -70.48c32.61,256.53 -290.31,37.24 -513.25,-80.01 -112.42,-59.13 -169.75,-104.75 -295.41,-161.66 -155.8,-70.55 -211.33,-83.44 -153.29,-237.77 6.56,-0.56 27.9,1.24 33.17,3.45l51.81 26.15c49.1,-152.86 235.35,-365.61 239.75,-490.3 -40.47,-40.86 -83.99,-11.8 -125.91,42.55l-252.51 478.03c-16.85,150.9 301,241.33 423.06,319.92 161.1,103.73 365.34,171.05 524.99,273.37z"/>
   <path class="fil1" d="M5274.01 4688.15c142.83,3.91 53.53,-83.72 366.72,-216.48 225.78,-95.69 126.93,-79.84 300.5,-83.61l40.26 -4.47c3.65,-0.77 9.23,-2.67 12.86,-3.61 124.83,-32.69 129.64,-37.56 291.99,68.08 110.47,71.87 156.78,202.18 281.8,328.79 199.94,202.52 433.6,248.06 670.81,188.14 86.65,-21.88 137.2,-6.98 188.56,-40.15l803.94 -841.69c-65.95,-2.01 -21.91,-9.3 -69.38,15.02 -65.65,33.61 -91.95,124.23 -180.5,134.38 -30.28,64.52 -76.74,124.8 -126.95,176.63 -34.94,36.11 -97.47,110.21 -143.07,154.15 -57.04,54.93 -71.09,49.94 -138.77,131.87 -63.94,77.44 -81.51,68.92 -145.53,115.56 -114.9,83.69 -205.84,94.19 -332.33,114.97 -128.95,21.2 -262.29,8.77 -409.8,-121.69 -37.86,-33.46 -89.62,-94.89 -130.95,-137.76 -34.25,-35.53 -195.05,-353.5 -512.5,-377.61 -156.89,-11.92 -342.65,108.66 -505.4,174.92 -91.56,37.29 -78.01,38.2 -159.5,94.33 -41.61,-8.1 -4.83,72.56 -14.35,-70.83l-45.13 45.26 -15.68 22.59 -27.6 133.21z"/>
   <path class="fil1 str2" d="M5135.5 11187.59c-75.94,-26.38 -135.66,-74.2 -171.74,-129.69 -25.73,-39.63 -2.32,-9.67 -31.51,-51.84 -46.22,-66.84 -53.05,-47.2 -76.07,-125.04l330.72 21.95c71.45,26.67 60.24,3.98 66.77,54.27 35.76,65.92 -70.13,196.91 -118.17,230.35zm519.9 -229.97c89.29,33.64 148.44,16.03 208.3,-39.53 -220.68,-114.67 -287.95,-58.12 -505.4,-104.63 -92.46,-19.79 -117.61,-12.45 -191.37,-33.72l-15.5 2.01c-5.74,0.72 -19.43,-2.12 -17.35,0.61 24.61,32.3 3.73,-0.61 -97.49,-1.69 -48.47,-0.52 -47.63,3.92 -102.09,-2.19 -59.48,-6.68 -102,-19.21 -162.47,-2.66 -4.91,1.36 -10.32,3.1 -15.19,4.67l-50.19 20.56c-8.73,89.36 2.48,98.19 76.82,172.74 94.45,94.69 43.12,67.33 101.98,139.61 57.4,70.5 78.49,68.86 127.97,136.66 49.46,67.73 90.13,95.41 176.68,129.17 58,-242.43 178.51,-561.74 465.3,-421.61z"/>
   <path class="fil1 str2" d="M5127.36 11945.43c-10.5,83.5 -23.05,353.23 -168.96,322.1 -48.05,16.68 -269.8,-113.17 -323.49,-157.48 -5.74,-55.88 25.96,-142.52 70.39,-202.65 60.61,-82 105.79,-88.23 150.23,-125.93 -41.62,-4.44 -32.68,-7.86 -73.81,-8.69 -100.15,121.74 -186.25,233.08 -178.82,375.3 94.63,64.09 309.75,180.92 402.75,192.7 44.46,-37.17 69.58,-70.17 104.07,-132.71 44.86,-81.44 33.96,-90.98 93.75,-149.08l31.28 -20.64c21.88,92.65 -120.2,359.46 -194.26,393.86 -80.55,14.79 -943.75,-440.41 -989.53,-524.93 -23.83,-128.03 156.01,-322.9 239.4,-355.12 83.64,-32.33 9.75,-10.27 127.37,-13.86l58.86 -0.62c177.54,31.37 132.39,212.34 347.68,138.28 70.34,-24.2 -4.27,-26.53 84.25,-13.9 95.19,13.58 417.1,121.58 299.63,361.23 -48.9,-34.85 -51.61,-38.91 -80.79,-77.86zm-57.53 538.89c212.15,-221.34 437.63,-785.01 -169.42,-864.47 -157.74,-20.65 -43.26,96.46 -284.89,-61.59 -176.66,-115.54 -366.12,-103.99 -482.84,61.47 -242.88,344.31 -157.32,346.13 389.89,616.63 164.31,81.23 393.2,236.59 547.26,247.96z"/>
   <path class="fil1 str2" d="M5535.04 8281.02c-159.65,-102.32 -363.89,-169.64 -524.99,-273.37 -122.06,-78.59 -439.91,-169.02 -423.06,-319.92l252.51 -478.03c41.92,-54.35 85.44,-83.41 125.91,-42.55 -4.4,124.69 -190.65,337.44 -239.75,490.3l6.53 91.01 303.86 168.63c112.08,-95.48 175.11,-239.89 259.21,-371.58 34.3,-44.41 28.64,-42 60.92,-59.34 42.84,37.85 -88.59,249.17 -148.62,428.17 72.01,119.8 197.09,236.64 360.85,181.55 44.92,-42.82 236.25,-415.99 272.9,-494.79 -34.29,14.92 -12.57,-2.32 -47.63,32.67 -111.19,111.08 -148.13,376.17 -280.54,455 -139.18,-47.24 -251.87,-99.96 -234.95,-214.93 27.57,-187.44 245.33,-334.73 86.09,-444.61 -96.29,36.28 -151.42,155.59 -210.95,265.16 -62.1,114.26 -75.98,155.23 -194.08,108.41 -98.62,-39.09 -146.99,-63.31 -198.79,-138.99 40.08,-216.88 277,-406.83 264.43,-615.59 -158.33,-73.94 -229.7,124.54 -305.33,279.35 -243.56,498.53 -374.52,357.4 557.71,852.2 64.71,34.34 185.66,106.32 257.77,101.25z"/>
   <path class="fil1 str2" d="M6101.07 7391.44c39.39,-183.5 -210.25,-222.04 -431.71,-343.69 -173.05,-94.99 -436.89,-248.78 -585.39,-306.58l-48.77 96.68c98.54,106.03 904.92,549.11 1065.87,553.59z"/>
   <path class="fil1 str2" d="M3375.03 10057.09c23.67,-13.95 122.58,-47.57 139.71,-50.59 47.86,-8.46 99.74,-3.9 153.93,15.61 199,71.62 125.2,146.81 237.05,216.71 -14.59,24.88 -17.85,13.77 -3.32,69.9 125.66,168.7 539.92,-50.97 503.91,129.65 -132.14,69.99 -428.66,-17.51 -541.66,99.41 -58.13,60.17 -78.35,125.81 -73.99,205.15 37.48,31.91 138.47,83.66 190.28,115.57 170.92,105.33 110.92,97.88 102.68,125.82 -53.85,8.5 -492.18,-193.51 -528.87,-213.13 -115.13,-61.51 -118.95,-99.09 -265.11,-152.07 -156.82,-56.84 -219.99,-151.1 -134.69,-284.37l180.85 -254.06c37.23,-31.45 15.79,-12.38 39.23,-23.6zm782.9 877.88c-108.34,-78.83 -217.09,-135.07 -339.98,-215.12 35.73,-141.28 126.73,-237.5 248.55,-199.68 109.17,-30.84 112.2,-10.82 242.07,-16.98 114.84,-5.43 128.81,11.11 186.16,-120.93 -209.33,-151.06 -452.37,39.45 -551.23,-82.4 -12.88,-15.87 -4.36,-7.72 -22,-35.96l-15.78 -25.08 -14.02 -69.51c-7.32,-20.2 -21.84,-46.91 -35.1,-63.45 -40.86,-50.96 -98.32,-85.24 -157.66,-111.39 -388.48,-171.12 -679.41,356.61 -625.5,496.5 52.16,135.36 417.88,316.93 575.91,382.12 59.65,24.59 590.62,348.5 508.58,61.88z"/>
   <path class="fil1 str3" d="M3269.84 11413.84c-394.62,-137.66 -484.79,-217.02 -335.58,-432.56 215.51,-311.38 523.72,64.39 548.19,80.66 88.42,-282.84 -390.84,-384.39 -554.33,-200.8 -51.4,57.71 -123.9,181.37 -158.38,253.75 -61.03,128.08 -15.86,126.2 112.41,198.67l562.41 293.27c78.8,41.92 195.08,135.49 276.3,86l-257.66 -152.08c-23.63,-99.86 15.1,-274.95 48.55,-381.85 -57.11,17.95 0.41,-55.78 -85.72,62.5 -38.5,52.9 -51.02,132.68 -156.19,192.44z"/>
   <path class="fil1 str1" d="M4120.13 8664.34c110.73,-1.5 89.6,-154.81 200.25,-241.85 161.31,-64.61 660.3,329.23 902.4,409.3l71.64 -47.02c-198.4,-192.96 -784.92,-372.74 -884.61,-554.47l119.01 -265.99c-101.39,-8.31 -94.34,27.85 -143.9,126.95 -46.28,92.44 -85.57,117.23 -121.92,184.02 -46.31,85.15 -12.69,89.4 -63.65,187.67 -48.08,92.79 -79.32,104.42 -79.22,201.39z"/>
   <path class="fil0 str2" d="M3261.18 10449.01c70.03,50.16 302,194.84 367.49,172.82 93.14,-31.31 147.46,-256.89 130.95,-323.59 -25.81,-104.26 -167.31,-179.98 -275.57,-151.62 -103.81,27.17 -185.15,170.99 -222.87,302.39z"/>
   <path class="fil1 str2" d="M4199.35 8462.95c50.96,-98.27 17.34,-102.52 63.65,-187.67 36.35,-66.79 75.64,-91.58 121.92,-184.02 49.56,-99.1 42.51,-135.26 143.9,-126.95l-119.01 265.99c99.69,181.73 686.21,361.51 884.61,554.47l-71.64 47.02c-242.1,-80.07 -741.09,-473.91 -902.4,-409.3 -110.65,87.04 -89.52,240.35 -200.25,241.85 -0.1,-96.97 31.14,-108.6 79.22,-201.39zm1155.06 322.88c-143.01,-143.55 -571.49,-340.07 -788.08,-456.75l-124.76 -70.98c17.76,-99.5 104.17,-211.99 131.68,-330.39 -118.03,-53.73 -53.23,-21.14 -156.22,-17.85l-371.24 691.58c126.45,309.07 215.8,-113.39 285.23,-143.08 13.47,-0.95 21.65,-3.36 50.12,0.77 35.15,5.07 32.43,4.36 65.18,17.07l697.64 374.65c102.62,52.96 162.36,39.76 210.45,-65.02z"/>
   <path class="fil0 str2" d="M3270.05 11374.57c361.06,-381.45 -98.38,-504.56 -194.79,-456.32 -60.3,30.2 -241.41,167.13 -146.86,272.51 64.17,71.5 234.75,120.99 341.65,183.81z"/>
   <path class="fil1 str2" d="M5607.97 10985.51c30.46,-10.27 31.29,-18.39 47.43,-27.89 -286.79,-140.13 -407.3,179.18 -465.3,421.61 -86.55,-33.76 -127.22,-61.44 -176.68,-129.17 -49.48,-67.8 -70.57,-66.16 -127.97,-136.66 -58.86,-72.28 -7.53,-44.92 -101.98,-139.61 -74.34,-74.55 -85.55,-83.38 -76.82,-172.74l50.19 -20.56c4.87,-1.57 10.28,-3.31 15.19,-4.67 60.47,-16.55 102.99,-4.02 162.47,2.66 54.46,6.11 53.62,1.67 102.09,2.19 101.22,1.08 122.1,33.99 97.49,1.69 -2.08,-2.73 11.61,0.11 17.35,-0.61 -137.76,-62.93 -422.12,-70.77 -531.82,-49.68 -42.19,142.98 59.39,156.96 135.16,273.83l202.82 259.45c50.68,52.21 84.77,62.83 127.76,123 48.65,68.12 45.66,59.32 110.18,127.75 81.12,85.97 75.12,188.91 259.16,208.97 74.13,-160.66 -62.7,-176.8 -222.59,-418.4l173.93 -328.64c36.89,-2.41 164.22,-6.19 201.94,7.48z"/>
   <path class="fil1 str2" d="M6202.59 8637.11c52.06,-96.92 56.55,-141.59 104.36,-236.89 48.51,-96.67 69.22,-145 -5.18,-204.75 -85.3,79.64 -513.91,844.43 -519.23,945.64 -2.31,43.97 -0.9,17.64 8.07,52.29 82.78,17.55 71.72,22.62 126.51,-45.95 30.08,-37.66 53.3,-83.9 77.17,-126.94l208.3 -383.4z"/>
   <path class="fil0 str1" d="M5479.87 10353.09c53.22,-77.28 125,-179.41 125.18,-263.65 0.4,-218.39 -317.89,-391.24 -469.23,85.67l344.05 177.98z"/>
   <path class="fil0 str1" d="M4673.11 12071.02c18.99,58.52 248.56,171.87 294.89,168.03 185.49,-15.37 178.69,-506.42 -113.01,-412.86 -69.22,22.19 -214.13,145.53 -181.88,244.83z"/>
   <path class="fil1 str2" d="M3861.55 9899.92c7.29,-114.7 -25.06,-66.18 -85.11,-163.4 -15.34,-24.88 -20.97,-45.3 -32.74,-76.81l-19.67 -53.5c-82.53,-230.46 163.41,-700.61 413.12,-734.18 322.25,-43.3 613.68,55.86 723.4,404.43 129.14,410.23 -129.7,572.31 -181.95,652.51 5.75,-1.73 13.01,-3.8 17.21,-5.43 66.24,-25.93 90.68,-43.92 139.12,-111.69 118.85,-166.36 109.56,-308.03 80.08,-508.34 -31.58,-214.54 -216.24,-376.82 -482.13,-460.57 -190.26,-61.07 -334,-10.33 -484.5,88.18l-38.08 25.34c-3.55,2.22 -10.38,6.01 -13.3,7.77 -2.93,1.79 -8.72,5.64 -13.49,7.67 -51.19,87.39 -108.95,118.43 -155.11,248.03 -11.73,32.92 -59.88,220.11 -61.22,258.31 -4.34,125.21 77.12,313.2 194.37,421.68z"/>
   <path class="fil1 str2" d="M5295.26 7545.51c-84.1,131.69 -147.13,276.1 -259.21,371.58l-303.86 -168.63 -6.53 -91.01 -51.81 -26.15c-5.27,-2.21 -26.61,-4.01 -33.17,-3.45 -58.04,154.33 -2.51,167.22 153.29,237.77 125.66,56.91 182.99,102.53 295.41,161.66 222.94,117.25 545.86,336.54 513.25,80.01l-123.95 70.48c-152.48,-82.31 -292.63,-132.76 -296.16,-258.34 -2.3,-81.26 103.42,-296 144.94,-379.14 -13.69,24.27 -2.36,1.02 -32.2,5.22z"/>
   <path class="fil1 str2" d="M5655.42 10483.96l-82.06 -79.01c116.9,-234.74 224.12,-231.86 226.56,-232.37 30,-5.98 4.44,4.03 48.36,-5.6 63.07,-13.79 -14.57,32.44 60.15,-21.58 -113.46,-43.73 -113.83,-45.8 -217.33,-103.23l-41.75 90.59c-88.85,160.3 -97.52,327.96 -271.7,206.22 -57.53,6.2 -123.85,-27.54 -185.61,-68.17 -213.55,-140.49 -130.82,-80.48 -174.42,-66.89 52.96,89.12 131.67,78.44 227.37,136.78 176.39,107.54 472.08,338.15 670.03,344.32 -54.27,-94.63 -206.85,-115.48 -259.6,-201.06z"/>
   <path class="fil1 str2" d="M3902.4 10308.72c-14.53,-56.13 -11.27,-45.02 3.32,-69.9 -111.85,-69.9 -38.05,-145.09 -237.05,-216.71 -54.19,-19.51 -106.07,-24.07 -153.93,-15.61 -17.13,3.02 -116.04,36.64 -139.71,50.59l-192.25 313.27c-78.27,148.68 -47.52,70.02 -0.72,131.69l44.15 -53.54c15.96,-40.84 -10.25,-90.06 94.27,-233.68 88.28,-121.28 107.77,-135.95 236.72,-123.29 71.76,7.07 77.86,-11.11 156.14,48.24 136.02,103.12 75.59,190.23 77.12,249.66 0.03,1.63 7.72,56.22 7.8,56.59l20.91 82.4 51.32 -19.55c122.45,-56.37 32.81,-42.87 118.71,-46.72 -22.73,-120.33 -104.41,-77.28 -86.8,-153.44z"/>
   <path class="fil1 str2" d="M4157.93 10934.97l68.18 42.18 78.22 -200.19c-202.28,-133.42 -92.17,-13.7 -224.31,-64.55 -18.59,-7.14 -46.9,-27.69 -70.05,-42.48l56.53 -149.76c-121.82,-37.82 -212.82,58.4 -248.55,199.68 122.89,80.05 231.64,136.29 339.98,215.12z"/>
   <path class="fil0 str2" d="M4568.36 11760.1c-34.85,-76.42 -88.17,-97.19 -135.89,-124.11l-33.95 13.87c-4.71,1.98 -10.67,4.4 -15.68,6.58l-53.28 24.92c-20.62,11.49 -58.69,38.5 -71.57,54.93 -113.52,144.85 80.13,214.22 149.78,252.81 142.89,-53.56 108.6,-82.75 160.59,-229z"/>
   <path class="fil1 str2" d="M5479.87 10353.09l-344.05 -177.98c151.34,-476.91 469.63,-304.06 469.23,-85.67 -0.18,84.24 -71.96,186.37 -125.18,263.65zm-102.22 -14.11c174.18,121.74 182.85,-45.92 271.7,-206.22 -41.69,-155.32 -45.46,-306.85 -240.22,-290.58 -91.76,7.67 -115.7,6.93 -194.08,70.25 -64.49,52.09 -109.04,155.37 -139.36,232.72 99.31,72.44 204.18,124.98 301.96,193.83z"/>
   <path class="fil1 str2" d="M4568.36 11760.1c-51.99,146.25 -17.7,175.44 -160.59,229 -69.65,-38.59 -263.3,-107.96 -149.78,-252.81 12.88,-16.43 50.95,-43.44 71.57,-54.93l53.28 -24.92c5.01,-2.18 10.97,-4.6 15.68,-6.58l33.95 -13.87c-82.13,-35.87 -51.41,-28.04 -129.76,8.46 -47.14,21.97 -51.95,19.15 -91.49,36.81 -110.66,184.99 10,331.06 212.23,360.39 116.85,-12.48 219.92,-149.03 144.91,-281.55z"/>
   <path class="fil1 str2" d="M4673.11 12071.02c-32.25,-99.3 112.66,-222.64 181.88,-244.83 291.7,-93.56 298.5,397.49 113.01,412.86 -46.33,3.84 -275.9,-109.51 -294.89,-168.03zm454.25 -125.59c16.01,-109.12 -171.54,-197.14 -271.83,-163.96 -44.44,37.7 -89.62,43.93 -150.23,125.93 -44.43,60.13 -76.13,146.77 -70.39,202.65 53.69,44.31 275.44,174.16 323.49,157.48 145.91,31.13 158.46,-238.6 168.96,-322.1z"/>
   <path class="fil2 str2" d="M5132.66 11138.31c-132.19,-51.88 -132.89,-54.78 -185.51,-208.64l96.7 5.65c215.76,51.68 127.05,138.69 88.81,202.99zm2.84 49.28c48.04,-33.44 153.93,-164.43 118.17,-230.35 -6.53,-50.29 4.68,-27.6 -66.77,-54.27l-330.72 -21.95c23.02,77.84 29.85,58.2 76.07,125.04 29.19,42.17 5.78,12.21 31.51,51.84 36.08,55.49 95.8,103.31 171.74,129.69z"/>
   <path class="fil0 str2" d="M5132.66 11138.31c38.24,-64.3 126.95,-151.31 -88.81,-202.99l-96.7 -5.65c52.62,153.86 53.32,156.76 185.51,208.64z"/>
   <path class="fil1 str2" d="M6136.33 10218.25c79.43,19.91 105.77,7 161.19,-4.39 43.81,-71.65 88.59,-127.56 8.33,-174.63 -102.65,-60.23 -175.01,6.78 -175.52,7.06 99.71,36.46 99.66,17.05 172,38.76 -27.46,53.72 -26.43,59.8 -73.19,85.62l-92.81 47.58z"/>
   <path class="fil1 str2" d="M6483.39 6332.21c49.46,-17.76 12.79,16.86 52.41,-39.45 -44.58,-74.95 -87.82,-63.74 -168.06,-104.73 73.78,58.46 -7,87.1 -24.98,166.77l140.63 -22.59z"/>
  </g>
 </g>
</svg>
