<?xml version="1.0" encoding="UTF-8"?>
<!DOCTYPE svg PUBLIC "-//W3C//DTD SVG 1.1//EN" "http://www.w3.org/Graphics/SVG/1.1/DTD/svg11.dtd">
<!-- Creator: CorelDRAW 2018 (64-Bit Evaluation Version) -->
<svg xmlns="http://www.w3.org/2000/svg" xml:space="preserve" width="124.315mm" height="159.114mm" version="1.1" style="shape-rendering:geometricPrecision; text-rendering:geometricPrecision; image-rendering:optimizeQuality; fill-rule:evenodd; clip-rule:evenodd"
viewBox="0 0 12431.54 15911.52"
 xmlns:xlink="http://www.w3.org/1999/xlink">
 <defs>
  <style type="text/css">
   <![CDATA[
    .str0 {stroke:#1B9BD9;stroke-width:20;stroke-miterlimit:22.9256}
    .str1 {stroke:#3B9CFF;stroke-width:20;stroke-miterlimit:22.9256}
    .fil2 {fill:none}
    .fil1 {fill:#3B9CFF}
    .fil0 {fill:#E3EEFD}
   ]]>
  </style>
 </defs>
 <g id="Layer_x0020_1">
  <metadata id="CorelCorpID_0Corel-Layer"/>
  <g id="_2091702049680">
   <polygon class="fil0 str0" points="10.62,655.65 10814.46,25.71 11727.92,15113.37 987.05,15900.81 "/>
   <polygon class="fil1 str1" points="10814.46,25.71 11475.96,687.19 12420.9,15680.34 987.05,15900.81 11727.92,15113.37 "/>
   <polygon class="fil2 str1" points="1617,9506.69 10531.01,8845.19 10971.96,14357.41 1932,14955.87 "/>
   <rect class="fil1 str1" transform="matrix(5.94735 -0.244424 0.244424 5.94735 3373.12 10375.7)" width="904.88" height="66.15"/>
   <rect class="fil1 str1" transform="matrix(5.94735 -0.244424 0.244424 5.94735 3398.78 11383.5)" width="1047.76" height="68.79"/>
   <rect class="fil1 str1" transform="matrix(5.94735 -0.244424 0.244424 5.94735 3538.44 12481.2)" width="907.53" height="68.79"/>
   <rect class="fil1 str1" transform="matrix(5.94735 -0.244424 0.244424 5.94735 4556.79 13479.6)" width="605.89" height="71.44"/>
   <ellipse class="fil1 str1" cx="5727.54" cy="4939.41" rx="4472.75" ry="2693.1"/>
  </g>
 </g>
</svg>
