<?xml version="1.0" encoding="UTF-8"?>
<!DOCTYPE svg PUBLIC "-//W3C//DTD SVG 1.1//EN" "http://www.w3.org/Graphics/SVG/1.1/DTD/svg11.dtd">
<!-- Creator: CorelDRAW 2018 (64-Bit Evaluation Version) -->
<svg xmlns="http://www.w3.org/2000/svg" xml:space="preserve" width="35.4384mm" height="158.951mm" version="1.1" style="shape-rendering:geometricPrecision; text-rendering:geometricPrecision; image-rendering:optimizeQuality; fill-rule:evenodd; clip-rule:evenodd"
viewBox="0 0 3526.39 15816.78"
 xmlns:xlink="http://www.w3.org/1999/xlink">
 <defs>
  <style type="text/css">
   <![CDATA[
    .str0 {stroke:#F56F45;stroke-width:19.9;stroke-miterlimit:22.9256}
    .fil0 {fill:#F56F45}
    .fil1 {fill:#FBF0C8}
   ]]>
  </style>
 </defs>
 <g id="Layer_x0020_1">
  <metadata id="CorelCorpID_0Corel-Layer"/>
  <g id="_2128114137824">
   <path class="fil0 str0" d="M2843.44 9.98l-2815.91 20.25 112.43 14135.59 558.19 396.18 921.11 3.67 0 594.53c-606.75,16.44 -1080.44,154.54 -1080.44,322.5 0,179.02 538.15,324.13 1201.99,324.13 663.85,0 1201.99,-145.1 1201.99,-324.13 0,-162.93 -445.81,-297.77 -1026.4,-320.66l0 -595.17 1599.97 6.36 -103.45 -13971.26 -569.48 -591.98z"/>
   <polygon class="fil1 str0" points="27.52,30.23 639.78,534.44 3331.89,570.45 2809.67,12.23 "/>
   <polygon class="fil1 str0" points="133.52,334.36 511.69,667.5 511.66,2337.71 133.52,2040.6 "/>
   <polygon class="fil1 str0" points="133.52,2346.35 511.69,2714.78 511.66,4561.85 133.52,4233.28 "/>
   <polygon class="fil1 str0" points="133.52,4588.25 511.69,4997.02 511.66,7046.28 133.52,6681.74 "/>
   <polygon class="fil1 str0" points="133.52,7006.77 511.69,7401.14 511.66,9378.23 133.52,9026.52 "/>
   <polygon class="fil1 str0" points="142.34,9446.97 520.5,9841.33 520.47,11818.43 142.34,11466.72 "/>
   <polygon class="fil1 str0" points="151.15,11887.17 529.32,12281.52 529.29,14258.62 151.15,13906.92 "/>
   <rect class="fil1 str0" x="707.23" y="691.9" width="2683.09" height="1733.2"/>
   <rect class="fil1 str0" x="702.7" y="2688.47" width="2692.15" height="1965.07"/>
   <rect class="fil1 str0" x="702.7" y="4984.41" width="2692.15" height="2124.88"/>
   <rect class="fil1 str0" x="702.7" y="7369.61" width="2692.15" height="2161.66"/>
   <rect class="fil1 str0" x="711.51" y="9809.81" width="2692.15" height="2161.66"/>
   <rect class="fil1 str0" x="720.33" y="12250" width="2692.15" height="2161.66"/>
  </g>
 </g>
</svg>
