<?xml version="1.0" encoding="UTF-8"?>
<!DOCTYPE svg PUBLIC "-//W3C//DTD SVG 1.1//EN" "http://www.w3.org/Graphics/SVG/1.1/DTD/svg11.dtd">
<!-- Creator: CorelDRAW 2018 (64-Bit Evaluation Version) -->
<svg xmlns="http://www.w3.org/2000/svg" xml:space="preserve" width="89.8158mm" height="159.225mm" version="1.1" style="shape-rendering:geometricPrecision; text-rendering:geometricPrecision; image-rendering:optimizeQuality; fill-rule:evenodd; clip-rule:evenodd"
viewBox="0 0 8981.72 15922.76"
 xmlns:xlink="http://www.w3.org/1999/xlink">
 <defs>
  <style type="text/css">
   <![CDATA[
    .str0 {stroke:#F56F45;stroke-width:20;stroke-miterlimit:22.9256}
    .fil0 {fill:#F56F45}
    .fil1 {fill:#FBF0C8}
   ]]>
  </style>
 </defs>
 <g id="Layer_x0020_1">
  <metadata id="CorelCorpID_0Corel-Layer"/>
  <g id="_2091706465536">
   <path class="fil0 str0" d="M2785.04 9630.78l3929.49 53.45c181.3,2076.18 23.64,4152.21 -721.76,6228.35l-2165.19 -53.44c-714.08,-2076.08 -1041.33,-4152.21 -1042.54,-6228.36z"/>
   <path class="fil0 str0" d="M8116.57 1379.3l-2363.86 8287.6 810.59 15.25c258.18,-236.42 455.22,-510.42 616.59,-806.43l-250.55 -366.96 248.56 -317.52 233.35 133.89c219.93,-219.18 373.08,-446.33 471.03,-679.91l-442.62 -200.34 291.09 -430.52 442.38 102.53c1043.13,-1928.84 893.74,-2748.67 508.47,-4184.58l-393.24 423.62 -202.45 -134.03 530.77 -559.93c1.02,-369.15 -70.3,-1137.34 -500.12,-1282.67z"/>
   <path class="fil1 str0" d="M8083.22 1439.47l-2330.49 8227.54 -405.31 -1.41c-907.04,-3137.48 441.07,-6177.54 2735.79,-8226.13z"/>
   <path class="fil0 str0" d="M2750.89 37.35l2269.21 9623.79 1140.79 17.08c976.93,-4402.63 -885.98,-8781 -1499.8,-8347.68l-462.52 326.54 -165.08 -138.82 145.28 -672.3c59.96,-277.53 -902.66,-626.85 -1427.87,-808.6z"/>
   <path class="fil1 str0" d="M2750.89 37.35l2298.05 9624.2 -1435.04 -19.5c-1552.13,-3461.97 -1799.56,-6655.15 -863,-9604.7z"/>
   <path class="fil0 str0" d="M31.75 4311.31l3930.05 5335.44 654.07 8.89c63.45,-240.35 48.29,-475.1 -13.08,-706.51l-467.78 -93.55 0 -280.71 294.05 -26.73c41.98,-214.48 20.41,-404.68 -53.5,-574.71l-521.22 80.17 -40.1 -360.84 454.44 -133.66c-363.37,-1659.08 -1285.07,-2640.24 -2646.46,-3087.51l-53.44 400.95 -267.33 13.38 80.22 -534.6c-428.12,-126.84 -877.2,-144.83 -1349.92,-40.01z"/>
   <path class="fil1 str0" d="M31.75 4311.31l3930.05 5335.44 -1176.76 -15.97c-2390.9,-1441.15 -2894.79,-3307.59 -2753.29,-5319.47z"/>
  </g>
 </g>
</svg>
