<?xml version="1.0" encoding="UTF-8"?>
<!DOCTYPE svg PUBLIC "-//W3C//DTD SVG 1.1//EN" "http://www.w3.org/Graphics/SVG/1.1/DTD/svg11.dtd">
<!-- Creator: CorelDRAW 2018 (64-Bit Evaluation Version) -->
<svg xmlns="http://www.w3.org/2000/svg" xml:space="preserve" width="84.9325mm" height="158.95mm" version="1.1" style="shape-rendering:geometricPrecision; text-rendering:geometricPrecision; image-rendering:optimizeQuality; fill-rule:evenodd; clip-rule:evenodd"
viewBox="0 0 8493.44 15895.35"
 xmlns:xlink="http://www.w3.org/1999/xlink">
 <defs>
  <style type="text/css">
   <![CDATA[
    .str0 {stroke:#F56F45;stroke-width:20;stroke-miterlimit:22.9256}
    .str1 {stroke:#FBF0C8;stroke-width:20;stroke-miterlimit:22.9256}
    .fil1 {fill:#F56F45}
    .fil0 {fill:#FBF0C8}
   ]]>
  </style>
 </defs>
 <g id="Layer_x0020_1">
  <metadata id="CorelCorpID_0Corel-Layer"/>
  <g id="_2091704153040">
   <path class="fil0 str0" d="M25.2 7254.95l0.77 4620.05 23.23 40.28c61.63,5.77 464.91,10.68 496.94,-5.23 18.24,-34.21 9.46,-81.33 11.41,-128.16 1.91,-45.66 11.08,-75.92 20.76,-115.52 16.48,-67.47 -9.6,-54.25 31.8,-104.16 15.23,-18.36 4.39,-1.73 13.6,-21.1 7.1,-14.97 0.84,-8.7 9.86,-24.39l74.03 -78.36c63.95,-58.28 44.67,-26.97 69.48,-50.82 18.21,-17.5 4.92,-19.16 33.36,-32.2 29.35,-13.46 76.31,-15.95 108.58,-28.97 57.25,-23.1 200,-26.35 242.15,-9.89l49.75 18.57c65.29,19.3 98.05,43.28 148.46,88.38 70.63,63.21 134.45,112.94 160.41,211.36 38.77,146.98 -23.36,263.37 60.33,277.94l5164.7 -0.22c49.16,0 169.04,-5.83 210.07,3.27 97.99,21.76 85.1,15.34 207.52,14.92l1295.48 -0.83c0,-77.13 -10.51,-337.04 5.3,-391.13 15.84,-78.57 1.7,-937.75 1.19,-1095.17l-7.74 -2191.24c-1.16,-358.52 -14.24,-736.82 -3.74,-1092.26l-1307.53 -0.71c-37.01,0.12 -74.09,1 -111.14,1.29 -84.39,0.66 -65.57,13.2 -89.06,20.05 -36.61,10.67 -4002.13,3.06 -4538.36,3.06 -174.75,0 -718.1,-8.73 -846.18,0.73 -37.38,121.66 -27.41,56.4 -27.39,206.69l-0.05 2890.38c0.37,83.04 6.75,139.22 -23.29,194.9 -0.93,1.72 -11.6,21.88 -11.93,22.63l-23.68 52.57c-25.69,47.46 -18.83,31.53 -58.1,50.66 -6.54,69.22 -1.45,37.64 -23.06,83.5l-9.02 32.95c-38.92,-13.47 22.35,-2.68 -29.02,-18.53 -53.12,-16.39 -38.34,28.63 -76.3,44.81l-32.26 10.8c-102.85,36.26 -429.14,7.34 -450.48,-10.93 -12.79,-23.53 -10.59,-54.38 -27.04,-77.91l-44.96 -15.29c-36.86,-10.39 -19.82,-0.56 -40.1,-19.31l-83.27 -92.67c-5.43,-10.76 -3.7,-11.71 -10.26,-24.35 -20.52,-39.43 -39.39,-33.54 -44,-88.94 -11.33,-135.97 -1.09,-319.24 -1.09,-460.37l0.06 -2660.18c0.09,-18.39 1.27,-42.42 0.13,-60.15 -1.49,-23.19 -2.54,-43.17 -16.92,-48.26 -1.59,-0.57 -4.68,-1.86 -6.67,-2.53 -1.97,-0.65 -4.49,-1.61 -6.71,-2.29 -2.65,-0.81 -10.79,-3.06 -13.68,-3.73l-106.03 -5.22c-475.75,1.52 -295.23,-14.25 -370.31,71.23z"/>
   <path class="fil1 str0" d="M646.03 6280.76c41.12,-43.62 58.14,-81.2 107.82,-125.48 39.76,-35.43 23.31,-19.45 42.97,-59.49 30.52,-2.27 58.95,-1.37 79.67,-11.74l260.51 -23.55c46.88,7.18 7.91,0.16 31.71,11.01 25.83,11.77 37.97,12.03 63.59,20.82 88.4,30.35 69.73,45.35 108.61,62.72 35.02,15.68 40.14,-2.2 62.18,31.94 11.43,17.69 12.93,40 24.74,61.02 109.34,194.6 24,130.2 68.23,274.2 6.87,22.37 12.22,18.34 11.44,76.18 -0.5,36.04 -8.39,53.48 -8.39,76.59l0.08 255.79c0.27,160.77 18.41,213.37 -47.12,224.62l-844.67 -1.6c-31.69,-52.91 -26.3,-26.33 -27.04,-112.11l0.58 -434.9c-0.6,-143.53 15.3,-116.48 17.02,-178.78 0.39,-14.53 -1.24,-39.11 0.1,-52.23 3.35,-33.17 10.17,-25.68 25.78,-60.04l22.18 -34.95zm-616.33 5653.16l-3.73 -58.91 -0.77 -4620.05c-9.11,-161.35 44.45,-111.54 464.19,-111.59l58.38 8.13c24.53,7.75 17.59,9.3 29.87,33.56 26.61,52.57 12.52,303.52 12.52,368.13l0 2557.86c0,164.75 -12.67,250.97 45.25,376.18 17.13,37.02 38.67,57.6 66.22,84.83 23.46,23.18 10.07,14.16 24.39,36.56 23.19,36.24 51.96,24.15 83.04,45.33l62.47 25.08c63.69,16.86 71.41,41.8 155.97,54.47 99.07,14.85 174.99,-20.48 249.59,-65.06l61.02 -41.54c1.34,-1.14 3.07,-2.96 4.36,-4.14 43.55,-39.85 35.98,-45.92 65.25,-87.85 14.92,-21.38 7.95,-0.6 29.47,-29.38 4.47,-5.98 58.79,-142.76 60.73,-150.5 22.03,-87.32 -10.47,-3141.65 6.26,-3166.25 4.5,-6.59 31.05,-42.45 42.19,-53.24 29.19,-28.28 37,-19.9 71.02,-11.03 81.8,21.34 4373.99,4.42 5221.17,6.93l92.84 -3.03c2.53,-0.5 5.54,-1.55 7.56,-1.99l15.47 -76.2c-7.02,-178.45 0.02,-358.68 0.02,-537.21 0,-165.09 14.13,-1187.25 -7.27,-1258.66 -9.87,-32.96 -11.34,-20.72 -28.15,-40.91l-15.08 -32.21c-4.4,-32.06 3.92,-37.96 -7.16,-71.73 -20.92,-63.76 -7.07,-104.95 -39.66,-149.41 -33.82,-46.14 -19.87,-115.44 -23.67,-173.34 -37.43,-12.91 -6.49,-16.68 -54.6,-21.61 -0.43,-123.26 -57.9,-127.77 -69.28,-198.72l-6.42 -38.64c-0.88,-2.32 -1.94,-4.37 -2.97,-6.5 -0.98,-2 -2.39,-3.92 -3.48,-5.73 -34.62,-57.68 -54.8,-55.95 -57.57,-147.98l-39.42 -19.98c-1.24,-1.16 -2.74,-3.2 -3.94,-4.42l-26.79 -25.34c-14.39,-11.99 -18.49,-23.18 -38.66,-30.14 7.54,-31.79 9.4,-15.6 0.38,-46.98l-32.58 -63.92c-24.8,-28.53 -59.76,-49.02 -80.14,-80.8 -20.59,-32.09 -17.26,-45.11 -49.43,-72.22 -24.79,-20.89 -19.91,-47.35 -58.55,-56.18 -7.74,-1.77 -15.07,-2.76 -22.81,-4.05 -16.7,-2.81 -24.12,-5.87 -46.81,-6.77l-15.49 -77.23c-9.7,-24.14 -24.96,-27.36 -39.55,-38.26 -96.25,-71.93 -39.14,-13.57 -101.46,-93.27 -24.71,-31.61 -61.69,-47.77 -100.97,-50.38 -18.44,-1.23 -4.9,1.94 -17.13,-5.04l-48.71 -17.72c-4.58,-62.52 -4.93,-13.15 -30.62,-69.34l-9.55 -18.07c-38.6,-51.87 -104.46,-5.66 -143.14,-56.52 -0.48,-0.63 -1.76,-2.56 -2.15,-3.24 -36.89,-62 16.82,-53.94 -111.76,-57.56 -23.55,-91.15 -163.08,-54.38 -175.37,-64.57l-19.02 -31.4c-36.28,-35.47 -143.87,-33.45 -198.41,-47.84l-13.34 -8.19c-0.84,-0.67 -2.49,-2.62 -3.42,-3.36 -30.83,-24.25 -61.01,-23.8 -101.62,-51.09 -50.92,-34.19 -169.26,-15.4 -238.81,-15.23 -186.41,0.43 -63.07,-22.21 -160.75,-30.88 -147.43,-13.09 -429.06,4.35 -597.75,0.01 -251.81,-6.48 -531.91,-5.19 -784.07,-0.31 -108.37,2.09 -300.49,-20.33 -388.66,6.75 -51.69,15.87 -99.19,-7.73 -165.25,-8.33l-122.47 12.51c-16.95,8.07 -16.88,17.48 -40.57,10.78 7.51,-18.06 21.44,-8.75 34.01,-27.06 17.5,-25.5 16.68,-142.7 6.9,-178.15l-10.95 -24.95 2.16 198.46c-478.33,25.76 -773.9,-0.11 -1221,198.28 -687.35,305.02 -1084.79,809.57 -1295.81,1540.79 -57.57,199.51 -101.89,388.94 -101.89,611.74l-0.15 1423.88c-0.11,123.6 -13.6,213.41 -13.59,332.52l2.13 4579.34c4.76,43.89 -7.58,24.21 17.57,40.13z"/>
   <path class="fil1 str0" d="M1471.11 11908.5c5.91,48.14 33.39,26.6 45.73,52.72 12.65,26.76 11.21,457.68 -44.3,567.51 -21.23,42.01 -26.94,23.43 -53.05,56.7 -64.53,82.21 -33.04,27.48 -87.62,64.95 -32.39,22.23 -2.48,16.38 -65.01,45.06l-72.55 39.61c-36.48,29.61 -16.78,22.6 -82.47,24.27 -35.98,0.92 -72.85,3.06 -108.4,-1.78 -22.68,-3.08 -66.91,-10.36 -94.14,-16.94 -72.22,-17.47 -96.97,-15.99 -121.17,-45.46 -42.81,-52.07 -67.6,-51.03 -132.51,-124.08l-50.21 -69.19c-17.19,-22.59 -36.31,-139.28 -37.66,-182.17 -2.33,-73.68 0.71,-148.21 0.03,-222.05 -0.63,-69.78 -13.5,-124.66 40.95,-170.14 52.01,-43.45 741.67,13.06 862.4,-19zm-1447.62 36.97c-10.64,930.67 -1.02,1908.04 0.58,2846.44 0.15,89.02 -15.49,415.44 10.63,471.74 20.6,44.37 49.82,76.13 77.5,159.73 35.46,107.1 34.83,37.66 68.74,134.6l5.49 13.54c0.46,-1.28 1.67,4.74 3.09,6.76 19.69,12.28 31.21,10.04 47.75,28.25 17.09,18.86 7.35,19.63 25.89,42.24 9.92,12.12 71.55,58.12 81.89,63.99 49.47,28.09 41.1,43.63 82.38,62.45 114.83,52.35 17.19,34.84 94.08,50.48 121.12,24.64 103.86,55.63 231.65,58.55 93.34,2.13 188.04,0.52 281.53,0.38l5744.23 -9.91c224.97,-0.81 969.37,10.04 1134.88,-16.41 92.17,-14.73 68.62,-17.86 157.32,-63.24 67.07,-34.31 142.59,-101.97 196.36,-153.39 115.24,-110.2 117.2,-158.82 173.92,-261.3 40.19,-72.61 6.68,-73.83 42.03,-96.48l0 -833.26 -11.04 0c-25.19,93.67 3.53,518.85 -3.75,665.26 -1.63,32.82 1.05,80.53 -2.3,109.43l-101.69 250.53c-47.22,61.65 -39.16,67.22 -57.55,86.08l-31.9 28.2c-1.33,1.38 -2.98,3.29 -4.24,4.7l-19.44 22.39c-14.64,14.77 -11.57,10.47 -27.37,22.4 -64.31,48.55 4.4,8.48 -97.29,72.96 -50.75,32.16 -39.73,55.68 -135.64,82.64 -175.47,49.34 -107.76,62.5 -317.43,62.48 -393.07,-0.01 -972.69,25.91 -1319.14,4.14 21.79,-8.69 25.97,-6.21 47.24,-13.23 39.27,-12.95 -8.59,6.6 30.46,-21.76l167.91 -86.68c23.75,-9.72 50.1,-8.39 61.22,-68.25 100.79,-4.36 50.56,-39.08 89.38,-72.17 7.04,-6 40.54,-16.95 51.85,-25.01 28.92,-20.61 15.13,-15.87 26.44,-50.76l47.9 -114.61c10.12,-28 2.8,-40.07 14.38,-62.55 11.65,-22.62 17.43,19.25 19.26,-56.46 42.12,-4.99 47.16,-20.7 48.65,-62.93 1.16,-32.51 -0.58,-69.85 -0.58,-103l2.2 -3112.65c-3.59,-58.9 -16.61,-54.2 -96.76,-53.38 -879.75,9.01 -1803.87,0.12 -2684.68,0.12 -802.12,0 -1637.02,-7.32 -2437.46,0.18 -43.42,0.4 -138.94,8.87 -162.41,7.76 -57.73,-2.75 -44.16,-73.18 -108.54,-57.97 29.62,-96.56 10.83,-188.64 0.18,-219.38l-20.95 -69.91c-9.7,-67.43 -9.33,-27.26 -49.22,-57.87 -4.51,-97.83 -21.81,-31.99 -77.22,-85.25l-13.42 -13.13c-1.3,-1.22 -3.32,-2.81 -4.61,-4.02l-8.62 -7.8c-13.54,-13.74 -22.66,-31.36 -55.91,-48.65 -67.32,-35 -212.18,-34.63 -284.02,-28.33 -65.15,5.73 -60.64,23.96 -74.14,33.98 -40.28,29.94 -59.79,1.74 -85.89,41.2 -35.23,53.28 20.69,-5.65 -20.46,13.66l-56.15 45.84c-21.29,17.56 -70.69,69.32 -78.69,95.2 -67.7,218.88 -27.79,210.76 -48.33,306.03 -55.22,25.42 -23.56,65.01 -100.53,54.89l-328.11 -5.97c-54.82,2.34 -69.13,17.2 -117.67,-2.09 -2.55,-1 -5.56,-2.56 -7.67,-3.46l-16.18 -7.96z"/>
   <path class="fil1 str0" d="M2640.28 3008.76l10.95 24.95c9.78,35.45 10.6,152.65 -6.9,178.15 -12.57,18.31 -26.5,9 -34.01,27.06 23.69,6.7 23.62,-2.71 40.57,-10.78l122.47 -12.51c66.06,0.6 113.56,24.2 165.25,8.33 88.17,-27.08 280.29,-4.66 388.66,-6.75 252.16,-4.88 532.26,-6.17 784.07,0.31 168.69,4.34 450.32,-13.1 597.75,-0.01 97.68,8.67 -25.66,31.31 160.75,30.88 69.54,-0.17 187.88,-18.96 238.81,15.23 40.61,27.29 70.79,26.84 101.62,51.09 0.93,0.74 2.58,2.69 3.42,3.36l13.34 8.19c54.54,14.39 162.13,12.37 198.41,47.84l19.02 31.4c12.29,10.19 151.82,-26.58 175.37,64.57 128.58,3.62 74.87,-4.44 111.76,57.56 0.39,0.68 1.67,2.61 2.15,3.24 38.68,50.86 104.54,4.65 143.14,56.52l9.55 18.07c25.69,56.19 26.04,6.82 30.62,69.34l48.71 17.72c12.23,6.98 -1.31,3.81 17.13,5.04 39.28,2.61 76.26,18.77 100.97,50.38 62.32,79.7 5.21,21.34 101.46,93.27 14.59,10.9 29.85,14.12 39.55,38.26l15.49 77.23c22.69,0.9 30.11,3.96 46.81,6.77 7.74,1.29 15.07,2.28 22.81,4.05 38.64,8.83 33.76,35.29 58.55,56.18 32.17,27.11 28.84,40.13 49.43,72.22 20.38,31.78 55.34,52.27 80.14,80.8l32.58 63.92c9.02,31.38 7.16,15.19 -0.38,46.98 20.17,6.96 24.27,18.15 38.66,30.14l26.79 25.34c1.2,1.22 2.7,3.26 3.94,4.42l39.42 19.98c2.77,92.03 22.95,90.3 57.57,147.98 1.09,1.81 2.5,3.73 3.48,5.73 1.03,2.13 2.09,4.18 2.97,6.5l6.42 38.64c11.38,70.95 68.85,75.46 69.28,198.72 48.11,4.93 17.17,8.7 54.6,21.61 3.8,57.9 -10.15,127.2 23.67,173.34 32.59,44.46 18.74,85.65 39.66,149.41 11.08,33.77 2.76,39.67 7.16,71.73l15.08 32.21c16.81,20.19 18.28,7.95 28.15,40.91 21.4,71.41 7.27,1093.56 7.27,1258.66 0,178.53 -7.04,358.76 -0.02,537.21l-15.47 76.2c-2.02,0.44 -5.03,1.49 -7.56,1.99l-92.84 3.03c-847.18,-2.51 -5139.36,14.41 -5221.17,-6.93 -34.02,-8.87 -41.83,-17.25 -71.02,11.03 -11.14,10.79 -37.69,46.65 -42.19,53.24 -16.73,24.6 15.77,3078.93 -6.26,3166.25 -1.94,7.74 -56.26,144.52 -60.73,150.5 -21.52,28.78 -14.55,8 -29.47,29.38 -29.27,41.93 -21.7,48 -65.25,87.85 -1.29,1.18 -3.02,3 -4.36,4.14l-61.02 41.54c-74.59,44.58 -150.51,79.91 -249.59,65.06 -84.56,-12.67 -92.28,-37.61 -155.97,-54.47l-62.47 -25.08c-31.08,-21.18 -59.85,-9.09 -83.04,-45.33 -14.32,-22.4 -0.93,-13.38 -24.39,-36.56 -27.55,-27.23 -49.09,-47.81 -66.22,-84.83 -57.92,-125.21 -45.25,-211.42 -45.25,-376.18l0 -2557.86c0,-64.61 14.09,-315.56 -12.52,-368.13 -12.28,-24.26 -5.34,-25.81 -29.87,-33.56l-58.38 -8.13c-419.74,0.05 -473.3,-49.76 -464.19,111.59 75.08,-85.48 -105.44,-69.71 370.31,-71.23l106.03 5.22c2.89,0.67 11.03,2.92 13.68,3.73 2.22,0.68 4.74,1.64 6.71,2.29 1.99,0.67 5.08,1.96 6.67,2.53 14.38,5.09 15.43,25.07 16.92,48.26 1.14,17.73 -0.04,41.76 -0.13,60.15l-0.06 2660.18c0,141.13 -10.24,324.4 1.09,460.37 4.61,55.4 23.48,49.51 44,88.94 6.56,12.64 4.83,13.59 10.26,24.35l83.27 92.67c20.28,18.75 3.24,8.92 40.1,19.31l44.96 15.29c16.45,23.53 14.25,54.38 27.04,77.91 21.34,18.27 347.63,47.19 450.48,10.93l32.26 -10.8c37.96,-16.18 23.18,-61.2 76.3,-44.81 51.37,15.85 -9.9,5.06 29.02,18.53l9.02 -32.95c21.61,-45.86 16.52,-14.28 23.06,-83.5 39.27,-19.13 32.41,-3.2 58.1,-50.66l23.68 -52.57c0.33,-0.75 11,-20.91 11.93,-22.63 30.04,-55.68 23.66,-111.86 23.29,-194.9l0.05 -2890.38c-0.02,-150.29 -9.99,-85.03 27.39,-206.69 128.08,-9.46 671.43,-0.73 846.18,-0.73 536.23,0 4501.75,7.61 4538.36,-3.06 23.49,-6.85 4.67,-19.39 89.06,-20.05 37.05,-0.29 74.13,-1.17 111.14,-1.29l1307.53 0.71c6.85,-263.94 -2.24,-543.27 -3.28,-809.08 -1.08,-272.84 -2.03,-545.67 -2.97,-818.51 -0.98,-283.59 14.61,-508.82 -70.51,-747.54 -72.83,-204.25 -83.14,-244.35 -188.65,-424.54 -112.59,-192.31 -299.23,-417.4 -463.86,-548.54 -347.14,-276.51 -639.24,-429.68 -1100.12,-536.39 -346.1,-80.13 -664.33,-54.22 -743.73,-73.62 -14.05,-237.11 0.77,-692.92 -1.95,-977.85 -0.45,-46.46 -0.19,-43.02 -11.77,-62.64 9.94,171.63 2.78,365.64 2.78,540.42 0,172.28 3.81,358.05 -2.69,528.93 -32.54,-5.85 -27,-22.96 -77.37,-26.6 -25.41,-1.84 -69.98,2.42 -100.77,2.02 -259.78,-3.26 -548.24,-0.05 -801.52,-17.41 -61.74,-4.22 -139.19,1.51 -204.13,0.58 -397.52,-5.67 -817.85,3.03 -1218.73,0.1l-715.95 -0.71c-14.77,0.12 -37.96,1.65 -51.45,0.78 -14,-0.92 -11.5,-1.23 -22.9,-3.49 -1.78,-0.36 -5.58,0.44 -6.83,-2.26 -1.24,-2.66 -4.57,-1.39 -6.66,-2.5l-4.72 -948.77c1.83,-75.53 8.24,-62.67 27.49,-99.34l54.2 -136.58c-52.45,27.64 -90.32,98.95 -99.44,179.1 -9.3,81.69 -2.82,194.02 -2.15,278.9 1.43,183.6 7.2,371.7 5.05,554.24z"/>
   <path class="fil1 str0" d="M25.97 11875.01l3.73 58.91 -6.21 11.55 16.18 7.96c2.11,0.9 5.12,2.46 7.67,3.46 48.54,19.29 62.85,4.43 117.67,2.09l328.11 5.97c76.97,10.12 45.31,-29.47 100.53,-54.89 20.54,-95.26 -19.37,-87.14 48.33,-306.03 8,-25.88 57.4,-77.64 78.69,-95.2l56.15 -45.84c41.15,-19.31 -14.77,39.62 20.46,-13.66 26.1,-39.46 45.61,-11.26 85.89,-41.2 13.5,-10.02 8.99,-28.25 74.14,-33.98 71.83,-6.3 216.69,-6.67 284.02,28.33 33.25,17.29 42.37,34.91 55.91,48.65l8.62 7.8c1.29,1.21 3.31,2.8 4.61,4.02l13.42 13.13c55.41,53.26 72.71,-12.58 77.22,85.25 39.89,30.61 39.52,-9.56 49.22,57.87l20.95 69.91c10.65,30.74 29.44,122.82 -0.18,219.38 64.38,-15.21 50.81,55.22 108.54,57.97 23.47,1.11 118.99,-7.36 162.41,-7.76 800.45,-7.5 1635.35,-0.18 2437.46,-0.18 880.81,0 1804.93,8.89 2684.68,-0.12 80.15,-0.82 93.17,-5.52 96.76,53.38l-2.2 3112.65c0,33.15 1.74,70.49 0.58,103 -1.49,42.23 -6.53,57.94 -48.65,62.93 -1.83,75.71 -7.61,33.84 -19.26,56.46 -11.58,22.48 -4.26,34.55 -14.38,62.55l-47.9 114.61c-11.31,34.89 2.48,30.15 -26.44,50.76 -11.31,8.06 -44.81,19.01 -51.85,25.01 -38.82,33.09 11.41,67.81 -89.38,72.17 -11.12,59.86 -37.47,58.53 -61.22,68.25l-167.91 86.68c-39.05,28.36 8.81,8.81 -30.46,21.76 -21.27,7.02 -25.45,4.54 -47.24,13.23 346.45,21.77 926.07,-4.15 1319.14,-4.14 209.66,0.02 141.95,-13.14 317.43,-62.48 95.91,-26.96 84.89,-50.48 135.64,-82.64 101.69,-64.48 32.98,-24.41 97.29,-72.96 15.8,-11.93 12.73,-7.63 27.37,-22.4l19.44 -22.39c1.26,-1.41 2.91,-3.32 4.24,-4.7l31.9 -28.2c18.39,-18.86 10.33,-24.43 57.55,-86.08l101.69 -250.53c3.35,-28.9 0.67,-76.61 2.3,-109.43 7.28,-146.41 -21.44,-571.59 3.75,-665.26 20.9,-76.9 3.9,-609.4 3.41,-733.03 -0.98,-244.42 -1.57,-488.84 -2.6,-733.25 -0.68,-157.66 8.58,-1411.89 -10,-1445.63 -15.81,54.09 -5.3,314 -5.3,391.13l-1295.48 0.83c-122.42,0.42 -109.53,6.84 -207.52,-14.92 -41.03,-9.1 -160.91,-3.27 -210.07,-3.27l-5164.7 0.22c-83.69,-14.57 -21.56,-130.95 -60.33,-277.94 -25.96,-98.42 -89.78,-148.15 -160.41,-211.36 -50.41,-45.1 -83.17,-69.08 -148.46,-88.38l-49.75 -18.57c-42.14,-16.46 -184.89,-13.21 -242.15,9.89 -32.27,13.02 -79.23,15.51 -108.58,28.97 -28.44,13.04 -15.15,14.7 -33.36,32.2 -24.81,23.85 -5.53,-7.46 -69.48,50.82l-74.03 78.36c-9.02,15.69 -2.76,9.42 -9.86,24.39 -9.21,19.37 1.63,2.74 -13.6,21.1 -41.4,49.91 -15.32,36.69 -31.8,104.16 -9.68,39.6 -18.85,69.86 -20.76,115.52 -1.95,46.83 6.83,93.95 -11.41,128.16 -32.03,15.91 -435.31,11 -496.94,5.23l-23.23 -40.28z"/>
   <path class="fil1 str0" d="M4793.15 787.39c9.51,-15.06 20.17,-58.95 105.19,-74.35l2.86 207.86c-17.6,2.24 -28.41,3.47 -41.99,6.51 -24.33,5.45 15.28,16.66 -20.94,3.38 -5.99,64.13 -17.09,37.2 -21.78,80.46 -11.93,-27.56 -13.15,-32.86 -57.33,-31.65 -30.2,0.8 -37.63,7.05 -66,20.2 -122.89,57.05 -85.54,26.01 -113.07,71.36 -160.9,4.85 -50.55,30.11 -230.1,19.65 -0.76,-1.13 -2,-2.88 -2.3,-3.36l-14.12 -58.39c-2.13,-18.69 3.55,-91.49 20.8,-113.15 16.23,-20.4 6.45,-8.39 28.48,-23.54 30.73,-21.11 133.69,-49.18 154.49,-50.92 175.39,-14.67 147.46,-54.5 255.81,-54.06zm-1590.61 1014.51c-132.45,-11.91 -435.53,118.24 -465.72,194.61l-54.2 136.58c-19.25,36.67 -25.66,23.81 -27.49,99.34l4.72 948.77c2.09,1.11 5.42,-0.16 6.66,2.5 1.25,2.7 5.05,1.9 6.83,2.26 11.4,2.26 8.9,2.57 22.9,3.49 13.49,0.87 36.68,-0.66 51.45,-0.78l715.95 0.71c400.88,2.93 821.21,-5.77 1218.73,-0.1 64.94,0.93 142.39,-4.8 204.13,-0.58 253.28,17.36 541.74,14.15 801.52,17.41 30.79,0.4 75.36,-3.86 100.77,-2.02 50.37,3.64 44.83,20.75 77.37,26.6 6.5,-170.88 2.69,-356.65 2.69,-528.93 0,-174.78 7.16,-368.79 -2.78,-540.42 -0.53,-122.8 -131.39,-300.39 -296.45,-354.07 -92.14,-29.97 -189.64,-23.18 -299.21,-24.19 -76.9,-0.7 -267.39,-13.1 -328.95,0.96 -60.59,-14.98 -33.43,-40.92 -31.53,-105.07 5.16,-174.27 8.5,-932.32 -8.4,-995.79 -88.83,13.63 -41.04,37.06 -100.55,49.49 -30.1,6.28 -39.8,-0.29 -64.52,12.23 -31.14,15.76 -2.47,11.64 -44.66,23.28 -23.81,6.55 -40.79,4.67 -67.01,10.77 -31.94,7.42 -19.89,11.73 -52.31,22.72 -65.74,22.29 -51.75,-11.81 -103.18,40.76 -37.72,1.34 -89.18,-0.38 -116.65,12.54 -131.04,61.72 -33.57,20.39 -145.78,40.8 -24.8,4.52 -22.02,8.91 -42.71,16.21l-223.59 23.62c-43.69,3.16 -70.41,13.43 -110.58,13.8 -74.93,0.7 -40.14,-25.68 -101.95,4.46 -34.61,16.87 -65.32,7.84 -109.75,9.79l-1.47 646.8c-0.94,142.28 32.27,75.52 14.45,140.22 -15.42,55.96 -56.77,48.98 -116.39,48.42 -59.3,-0.57 -277.08,9.5 -312.33,2.79z"/>
   <path class="fil1 str0" d="M2616.32 216.94c43.67,-40.55 18.3,-47.55 98.59,-56.65 47.26,-5.36 109.79,-10.04 134.93,18.27 23.07,26 29.38,83.92 15.58,123.88 -13.33,38.66 -43.29,60.3 -78.42,77.95 -66.17,33.25 -160.16,95.69 -232.11,33.32 -33.42,-28.97 -25.09,-73.27 -22.09,-127.13l83.51 -69.64zm952.43 1560.34c45.02,-48.43 29.63,-116.45 29.65,-192.45 0.05,-114.66 15.09,-579.04 -24.2,-621.92 -11.4,-7.11 9.1,-0.9 -18.57,-6.92 -9.79,-2.12 -13.21,-2.09 -23.19,-2.62 -90.7,-4.88 -225.32,4.13 -341.87,-2.83 -145.33,-8.67 -76.86,-25.82 -160.99,-29.12 -129.72,-5.07 -368.44,-48.12 -469.27,-121.87 -94.37,-69.01 -50.85,-47.36 -95.64,-99.81 -37.98,-44.47 -52.43,-58.69 -46.27,-135.72 16.9,4.77 83.23,88.09 132.99,95.15 58.82,8.34 36.47,-17.37 101.51,14.91 25.29,12.54 9.46,8.58 52.23,9.78 63.75,1.78 28.89,5.05 69.53,12.82l81.65 4.65c27.92,3.37 60.64,10.62 89.33,20.54 68.43,23.68 590.12,8.31 662.7,1.7 75.39,-6.84 128.43,-13.91 213.92,-16.5 73.85,-2.24 16.6,-28.11 186.8,-34.3l0 -13.15c121.46,-5.7 73.55,-10.73 120.57,-17.38 105.27,-14.88 119.11,-15 216.09,-48.85 72.99,-25.48 115.26,-5.2 208.3,-57.08 32.18,-17.95 9,-25.58 94.42,-31.06 79.52,-5.11 52,-20.71 95.97,-34 72.51,-21.92 31.63,7.45 74.28,-50.34 90.63,-5.43 156.76,-58.53 302.13,-92.84 57.11,-13.49 54.62,-2.89 103.17,-24.89 18.93,-8.57 5.58,0.29 23.38,-11.41 40.42,-26.52 4.02,-19.51 64.18,-27.3 75.96,-9.82 73,1.51 108.22,-22.15 47.36,-31.84 42.14,-13.07 106.76,-19.47 53.48,-5.3 18.26,-7.03 53.18,-14.6 14.88,-3.22 40.98,-3.51 56.9,-4.01 186.97,-5.89 319.11,-6.47 499.59,19.77l171.9 24.78c42.09,9.15 -3.62,5.95 45.38,14.56l225.93 29.19c-1.42,0.4 -14.94,3.91 -17.7,5.58 -22.06,13.27 -8.44,-7.12 -4.43,7.48 59.82,2.28 58.59,-5.16 97.05,22.81 41.3,30.03 38.89,16.26 89.35,30.37 29.84,8.34 52.52,23.99 88.24,31.69 32.41,6.98 75.78,9.77 102.05,18.16 53,16.94 113.3,65.88 189.44,38.32 35.28,-12.76 41.4,-25 84.93,-33.63 63.41,-12.56 32.11,0.94 64.82,-43.09 79.29,2.34 144.38,92.86 199.67,114.73 -5.34,30.29 -19.91,51.54 -42.61,71.5 -242.98,213.66 -124.34,178.37 -265.87,129.5 -16.41,-5.68 -33.86,-7.76 -49.33,-13.27 -23.49,-8.37 -10.84,-6.55 -36.64,-20.28 -106.95,-56.93 -241.88,-96.27 -359.24,-127.15 -23.46,-6.19 -65.08,-25.48 -85.75,-29.16 -36.91,-6.59 -76.07,-3.02 -110.06,-12.84 -42.9,-12.42 -36.66,-22.61 -97.75,-26.71 -41.87,-2.81 -73.51,-4.39 -115.65,-9.57 -38.73,-4.75 -65.99,-12.14 -94.66,-21.69 -40.04,-13.37 -52.97,-13.99 -96.88,-19.74 -57.74,-7.55 -157.68,2.47 -225.96,3.68 -99.51,1.75 -159.69,-4.14 -202.38,41.11 159.94,-8.71 282.84,-25.2 448.39,-7.25 149.41,16.21 270.37,36.12 409.69,66.59 131.12,28.69 246.82,68.97 368.46,109.12 93.95,31.01 289.97,123.76 339.54,135.99 84.78,-64.7 179.63,-181.31 260.95,-263.08 -135.72,-133.81 -442.14,-273.97 -664.59,-343.36 -374.78,-116.9 -739.72,-143.89 -1139.26,-137.47 -82.1,1.32 -155.99,12.8 -238.57,14.82 -144.9,3.55 -311.84,38.39 -452.57,59.75 -713.69,108.24 -1145.06,146.01 -1855.54,-1 -133.06,-27.53 -333.62,-104.92 -491.54,-57.62 -14.13,4.23 -15.14,5.64 -24.69,10 -92.14,41.98 -179.67,98.59 -233.48,185.63 -46.35,75 -36.21,109.19 -65.27,191.24 -29.36,82.9 32.38,231.73 77.89,295.21 57.36,79.97 38.9,74.74 131.31,126.4 23.82,13.31 47.33,33.48 78.58,46.76 246.96,104.96 659.83,92.07 922.21,85.81 5.7,152.89 17.52,680.23 7.13,809.4z"/>
   <path class="fil1 str0" d="M3568.75 1777.29c-63.71,-3.69 -323.44,-10.07 -366.21,24.61 35.25,6.71 253.03,-3.36 312.33,-2.79 59.62,0.56 100.97,7.54 116.39,-48.42 17.82,-64.7 -15.39,2.06 -14.45,-140.22l1.47 -646.8c44.43,-1.95 75.14,7.08 109.75,-9.79 61.81,-30.14 27.02,-3.76 101.95,-4.46 40.17,-0.37 66.89,-10.64 110.58,-13.8l223.59 -23.62c20.69,-7.3 17.91,-11.69 42.71,-16.21 112.21,-20.41 14.74,20.92 145.78,-40.8 27.47,-12.92 78.93,-11.2 116.65,-12.54 51.43,-52.57 37.44,-18.47 103.18,-40.76 32.42,-10.99 20.37,-15.3 52.31,-22.72 26.22,-6.1 43.2,-4.22 67.01,-10.77 42.19,-11.64 13.52,-7.52 44.66,-23.28 24.72,-12.52 34.42,-5.95 64.52,-12.23 59.51,-12.43 11.72,-35.86 100.55,-49.49 16.9,63.47 13.56,821.52 8.4,995.79 -1.9,64.15 -29.06,90.09 31.53,105.07 -18.81,-60.61 -10.56,-996.76 3.34,-1094.45 100.89,-93.15 554.27,-223.29 745.3,-239.27 42.69,-45.25 102.87,-39.36 202.38,-41.11 68.27,-1.21 168.21,-11.23 225.96,-3.68 43.91,5.75 56.84,6.37 96.88,19.74 28.67,9.55 55.93,16.94 94.66,21.69 42.14,5.18 73.78,6.76 115.65,9.57 61.09,4.1 54.85,14.29 97.75,26.71 33.99,9.82 73.15,6.25 110.06,12.84 20.67,3.68 62.29,22.97 85.75,29.16 117.36,30.88 252.29,70.22 359.24,127.15 25.8,13.73 13.15,11.91 36.64,20.28 15.47,5.51 32.92,7.59 49.33,13.27 141.52,48.87 22.89,84.16 265.87,-129.5 22.7,-19.96 37.27,-41.21 42.61,-71.5 -55.29,-21.87 -120.38,-112.39 -199.67,-114.73 -32.71,44.03 -1.41,30.53 -64.82,43.09 -43.53,8.63 -49.65,20.87 -84.93,33.63 -76.14,27.56 -136.44,-21.38 -189.44,-38.32 -26.27,-8.39 -69.64,-11.18 -102.05,-18.16 -35.72,-7.7 -58.4,-23.35 -88.24,-31.69 -50.46,-14.11 -48.05,-0.34 -89.35,-30.37 -38.46,-27.97 -37.23,-20.53 -97.05,-22.81 -4.01,-14.6 -17.63,5.79 4.43,-7.48 2.76,-1.67 16.28,-5.18 17.7,-5.58l-225.93 -29.19c-49,-8.61 -3.29,-5.41 -45.38,-14.56l-171.9 -24.78c-180.48,-26.24 -312.62,-25.66 -499.59,-19.77 -15.92,0.5 -42.02,0.79 -56.9,4.01 -34.92,7.57 0.3,9.3 -53.18,14.6 -64.62,6.4 -59.4,-12.37 -106.76,19.47 -35.22,23.66 -32.26,12.33 -108.22,22.15 -60.16,7.79 -23.76,0.78 -64.18,27.3 -17.8,11.7 -4.45,2.84 -23.38,11.41 -48.55,22 -46.06,11.4 -103.17,24.89 -145.36,34.31 -211.49,87.41 -302.13,92.84 -42.65,57.79 -1.77,28.42 -74.28,50.34 -43.97,13.29 -16.45,28.89 -95.97,34 -85.42,5.48 -62.24,13.11 -94.42,31.06 -93.04,51.88 -135.31,31.6 -208.3,57.08 -96.98,33.85 -110.82,33.97 -216.09,48.85 -47.02,6.65 0.89,11.68 -120.57,17.38l0 13.15c-170.2,6.19 -112.95,32.06 -186.8,34.3 -85.49,2.59 -138.53,9.66 -213.92,16.5 -72.58,6.61 -594.27,21.98 -662.7,-1.7 -28.69,-9.92 -61.41,-17.17 -89.33,-20.54l-81.65 -4.65c-40.64,-7.77 -5.78,-11.04 -69.53,-12.82 -42.77,-1.2 -26.94,2.76 -52.23,-9.78 -65.04,-32.28 -42.69,-6.57 -101.51,-14.91 -49.76,-7.06 -116.09,-90.38 -132.99,-95.15 -6.16,77.03 8.29,91.25 46.27,135.72 44.79,52.45 1.27,30.8 95.64,99.81 100.83,73.75 339.55,116.8 469.27,121.87 84.13,3.3 15.66,20.45 160.99,29.12 116.55,6.96 251.17,-2.05 341.87,2.83 9.98,0.53 13.4,0.5 23.19,2.62 27.67,6.02 7.17,-0.19 18.57,6.92 39.29,42.88 24.25,507.26 24.2,621.92 -0.02,76 15.37,144.02 -29.65,192.45z"/>
   <path class="fil0 str1" d="M796.83 6095.79c-19.66,40.04 -3.21,24.06 -42.97,59.49 -49.68,44.28 -66.7,81.86 -107.82,125.48l-22.18 34.95c-15.61,34.36 -22.43,26.87 -25.78,60.04 -1.34,13.12 0.29,37.7 -0.1,52.23 -1.72,62.3 -17.62,35.25 -17.02,178.78l-0.58 434.9c0.74,85.78 -4.65,59.2 27.04,112.11l844.67 1.6c65.53,-11.24 47.39,-63.84 47.12,-224.62l-0.08 -255.79c0,-23.11 7.89,-40.55 8.39,-76.59 0.78,-57.84 -4.57,-53.81 -11.44,-76.18 -44.23,-143.99 41.11,-79.59 -68.23,-274.2 -11.81,-21.02 -13.31,-43.33 -24.74,-61.02 -22.04,-34.14 -27.16,-16.26 -62.18,-31.94 -38.88,-17.37 -20.21,-32.37 -108.61,-62.72 -25.62,-8.79 -37.76,-9.05 -63.59,-20.82 -23.8,-10.85 15.17,-3.83 -31.71,-11.01l-260.51 23.55c-20.72,10.37 -49.15,9.47 -79.67,11.74z"/>
   <path class="fil0 str1" d="M1471.11 11908.5c-120.73,32.06 -810.39,-24.45 -862.4,19 -54.45,45.48 -41.58,100.36 -40.95,170.14 0.68,73.84 -2.36,148.37 -0.03,222.05 1.35,42.89 20.47,159.58 37.66,182.17l50.21 69.19c64.91,73.05 89.7,72.01 132.51,124.08 24.2,29.47 48.95,27.99 121.17,45.46 27.23,6.58 71.46,13.86 94.14,16.94 35.55,4.84 72.42,2.7 108.4,1.78 65.69,-1.67 45.99,5.34 82.47,-24.27l72.55 -39.61c62.53,-28.68 32.62,-22.83 65.01,-45.06 54.58,-37.47 23.09,17.26 87.62,-64.95 26.11,-33.27 31.82,-14.69 53.05,-56.7 55.51,-109.83 56.95,-540.75 44.3,-567.51 -12.34,-26.12 -39.82,-4.58 -45.73,-52.72z"/>
   <path class="fil1 str0" d="M4793.15 787.39c-108.34,-0.44 -80.41,39.39 -255.81,54.06 -20.8,1.74 -123.76,29.81 -154.49,50.92 -22.03,15.15 -12.25,3.14 -28.48,23.54 -17.25,21.66 -22.93,94.46 -20.8,113.15l14.12 58.39c0.3,0.48 1.54,2.23 2.3,3.36 179.54,10.46 69.19,-14.8 230.1,-19.65 27.53,-45.35 -9.82,-14.31 113.07,-71.36 28.37,-13.15 35.8,-19.4 66,-20.2 44.18,-1.21 45.4,4.09 57.33,31.65 4.69,-43.26 15.79,-16.33 21.78,-80.46 36.22,13.28 -3.39,2.07 20.94,-3.38 13.58,-3.04 24.39,-4.27 41.99,-6.51l-2.86 -207.86c-85.02,15.4 -95.68,59.29 -105.19,74.35z"/>
   <path class="fil1 str0" d="M2532.81 286.59c-3,53.86 -11.33,98.16 22.09,127.13 71.94,62.37 165.93,-0.07 232.11,-33.32 35.13,-17.65 65.09,-39.29 78.42,-77.95 13.8,-39.96 7.49,-97.88 -15.58,-123.88 -25.14,-28.31 -87.67,-23.63 -134.93,-18.27 -80.29,9.1 -54.92,16.1 -98.59,56.65l-83.51 69.64z"/>
  </g>
 </g>
</svg>
