<?xml version="1.0" encoding="UTF-8"?>
<!DOCTYPE svg PUBLIC "-//W3C//DTD SVG 1.1//EN" "http://www.w3.org/Graphics/SVG/1.1/DTD/svg11.dtd">
<!-- Creator: CorelDRAW 2018 (64-Bit Evaluation Version) -->
<svg xmlns="http://www.w3.org/2000/svg" xml:space="preserve" width="158.948mm" height="148.536mm" version="1.1" style="shape-rendering:geometricPrecision; text-rendering:geometricPrecision; image-rendering:optimizeQuality; fill-rule:evenodd; clip-rule:evenodd"
viewBox="0 0 15894.7 14853.48"
 xmlns:xlink="http://www.w3.org/1999/xlink">
 <defs>
  <style type="text/css">
   <![CDATA[
    .str0 {stroke:#3B9CFF;stroke-width:20;stroke-miterlimit:22.9256}
    .fil0 {fill:#3B9CFF}
    .fil1 {fill:#E3EEFD}
   ]]>
  </style>
 </defs>
 <g id="Layer_x0020_1">
  <metadata id="CorelCorpID_0Corel-Layer"/>
  <g id="_2091706463104">
   <path class="fil0 str0" d="M7858.85 3901.17c-114.87,35.42 -114.34,10.54 -185.73,21.01 -94.85,13.94 -112.81,36.08 -178.49,145.42 -32.46,54.07 -86.5,145.68 -104.41,188.61 -109.3,262.09 -304.21,663.73 -300.82,947.89 133.98,127.31 190.16,60.8 328.08,113.43 66.61,-32.49 409.81,-38.31 516.47,-53.56 96.4,-13.8 153.95,-8.99 261.82,-6.26 320.01,8.1 773,-3.67 1060.98,25.33l2385.03 290.08c447.03,65.25 536.1,132.2 815.82,200.35 375.86,91.58 570.23,250.65 813.08,367.16 177.67,85.26 365.17,246.27 552.42,365.82 372.21,237.63 776.33,642.01 1065.64,942.8 250.32,260.24 235.94,178.2 512.3,169.55 162.52,-5.07 439.87,-6.72 480.61,-164.56 27.48,-106.47 -130.89,-449.59 -178.29,-515.97 -208.86,-292.49 -579.85,-727.15 -854.44,-962.98 -518.6,-445.41 -570.19,-487.4 -1135.72,-856.38 -294.77,-192.34 -1054.53,-523.91 -1355.27,-603.67l-1868.78 -356.08c-92.87,-15.26 -181.66,-30.58 -265.03,-38.13l-2365.26 -219.85z"/>
   <path class="fil1 str0" d="M2421.08 2868.08c237.66,130.99 833.77,419.18 1002.42,556.7 -46.97,66.14 -95.35,129.97 -145.92,193.46 -220.99,277.49 -214.74,138.35 -459.64,-13.6 -117.88,-73.16 -172.34,-88.66 -300.22,-191.94 -415.27,-335.31 -281.47,-105.6 -96.65,-544.62zm500.74 -595.8c78.07,-113.08 222.53,-212.64 325.19,-287.89 169.69,107.1 662.7,707.27 711.48,835.97 -95.55,127.66 -212.68,252.88 -327.61,320.85l-646.62 -798.24c-51.31,-72.88 51.37,-57.96 -62.44,-70.69zm1888.9 5228.34c43.86,-251.17 -187.93,-281.97 324.33,-603.96 115.6,-72.68 193.28,-118.51 297.52,-183.92 112.83,-70.83 220.66,-120.23 327.09,-179.49 -64.47,-63.24 -86.35,-156.99 -111.91,-240.23 -139.77,-455.46 -392.95,-879.95 -629.19,-1292.03 -68.25,-119.08 -25.02,-91.58 -164.03,-217.77l360.7 -425.11c332.42,235.05 993.41,411.83 1406.52,531.69l456.44 94.75c-158.43,313.82 174.92,419.61 339.32,332.97 -137.92,-52.63 -194.1,13.88 -328.08,-113.43 -3.39,-284.16 191.52,-685.8 300.82,-947.89 17.91,-42.93 71.95,-134.54 104.41,-188.61 65.68,-109.34 83.64,-131.48 178.49,-145.42 71.39,-10.47 70.86,14.41 185.73,-21.01 -231.44,-150.89 -379.53,115.94 -495.07,191.95 -139.3,-54.61 -236.72,-52.12 -372.49,-61.28l-772.16 -70.83 -369.93 -122.06c-131.73,-58.78 -246.74,-106.37 -393.74,-212.26 -99.54,-71.7 -123.95,-71.22 -207.98,-116.56 -74.7,-40.33 -129.11,-97.97 -207.49,-135.11 -269.06,-127.51 -151.61,-108.9 -312.35,-295l-449.35 -521.8c-143.48,-134.71 -100.63,-75.4 -133.32,-165.94 -30.75,-85.19 -200.7,-199.06 -331.15,-346.85 -119.55,-135.46 -180.02,-206.69 -346.43,-345.53 -330.67,-275.9 -172.2,-198.19 -325.98,-331.07 -527.65,-455.9 -1079.47,-920.76 -1622.35,-1358.11 -111.65,22.8 -123.53,14.58 -219.24,158.98 295.35,328.34 799.8,1010.23 1110.46,1418.92 150.21,197.6 121.25,238.91 145.32,277.81l340.21 391.19c66.15,108.28 -8.4,44.76 117.04,179.19l573.86 752.46 -132.39 139.77c-157.99,-9.28 -688.5,-316.53 -858.91,-429.69 -134.67,-89.45 -86.82,-36.33 -208.54,-79.18 -38.35,-13.5 -172.61,-81.76 -197.85,-95.62 -81.92,-44.95 -135.23,-92.07 -220.33,-130.02 -100.48,-44.82 -120.34,-24.33 -195.28,-49.68l-433.21 -233.99c-89.73,-42.44 -130.5,-62.7 -217.59,-124.43 -118.68,-84.14 -100.72,-56.71 -202.94,-102.47 -37.48,-16.79 -481.82,-308.84 -588.81,-341.32 -3.79,-1.14 -11.02,-2.18 -14.5,-3.1 -86.08,-22.5 -113.02,-63.28 -212.54,-140.96 -187.37,236.14 -134.17,152.74 530.26,753.71 604.69,546.96 1101.42,872.91 1660.21,1328.48l821.07 562c822.17,487.8 537.31,289.06 1036.34,906.6 498.48,616.86 446.56,745.1 640.76,1466.38 15.94,59.22 35.56,130.61 48.97,185.91 13.24,54.59 52.28,128.61 42.17,187.66 -37.6,104.98 -135.35,123.72 -144.71,256.25 -6.75,95.17 14.88,182.79 71.78,255.04z"/>
   <path class="fil0 str0" d="M5759.65 6533.25c-106.43,59.26 -214.26,108.66 -327.09,179.49 -104.24,65.41 -181.92,111.24 -297.52,183.92 -512.26,322 -280.47,352.8 -324.33,603.96 38.26,127.62 96.48,309.91 116.8,438.65 19.83,125.69 52.25,161.27 59.2,278.29l958.45 3186.28c162.36,397.61 147.57,331.3 304.66,647.93l259.68 456.11c525.41,769.73 1805.71,2048.78 2782.02,2295.98 163.69,41.44 353.21,108.72 375.83,-151.77 14.1,-162.52 4.96,-306.07 -20.43,-450.1 -48.9,-277.52 -31.77,-220.4 -300.96,-396.71 -620.68,-406.52 -1706.52,-1462.87 -2004.68,-2117.85l-73.49 -182.43c-31.59,-84.74 -60.06,-121.48 -104.22,-218.69l-154.5 -434.82c-30.1,-78.47 -55.06,-143.45 -69.87,-217.47 -23.86,-119.25 -135.14,-357.52 -199.1,-658.49l-116.34 -438.29c-37.81,-115.45 -115.95,-340.02 -109.5,-422.62 -42.3,-63.62 -25.19,-30.83 -47.84,-86.28l-109.21 -457.85c-23.2,-98.08 -37.56,-173.17 -57.75,-271.27 -23.66,-114.94 -47.11,-169.02 -32.81,-257.99 -51.15,-57.08 -25.72,19.6 -44.83,-100.08l-40.48 -254.66c-33.16,-232.26 -71.53,-239.53 -21.36,-361.04 5.8,-129.85 -36.22,-266.09 -38.07,-415.03 -3.07,-248.07 -7.58,-317.41 -159.17,-427.72 -55.26,16.46 -165.11,50.05 -203.1,50.51z"/>
   <path class="fil0" d="M2921.81 2272.28c113.81,12.73 11.13,-2.19 62.44,70.69l646.62 798.24c114.93,-67.97 232.06,-193.19 327.61,-320.85 -48.78,-128.7 -541.8,-728.87 -711.48,-835.97 -102.66,75.25 -247.12,174.81 -325.19,287.89z"/>
   <path class="fil0" d="M2421.08 2868.08c-184.82,439.02 -318.62,209.31 96.65,544.62 127.88,103.28 182.34,118.78 300.22,191.94 244.9,151.95 238.65,291.09 459.64,13.6 50.57,-63.49 98.95,-127.32 145.92,-193.46 -168.65,-137.52 -764.76,-425.71 -1002.42,-556.7z"/>
   <path class="fil0" d="M6514.26 9114.64c16.97,-104.62 -16.11,-196.62 -46.08,-296.17l-113.97 -524.19c-29.35,-160.34 -29.1,-220.78 -87.56,-253.03 -14.3,88.97 9.15,143.05 32.81,257.99 20.19,98.1 34.55,173.19 57.75,271.27l109.21 457.85c22.65,55.45 5.54,22.66 47.84,86.28z"/>
   <path class="fil0" d="M6266.65 8041.26c15.2,-53.44 -56.95,-621.39 -106.67,-715.77 -50.17,121.51 -11.8,128.78 21.36,361.04l40.48 254.66c19.11,119.68 -6.32,43 44.83,100.08z"/>
  </g>
 </g>
</svg>
