<?xml version="1.0" encoding="UTF-8"?>
<!DOCTYPE svg PUBLIC "-//W3C//DTD SVG 1.1//EN" "http://www.w3.org/Graphics/SVG/1.1/DTD/svg11.dtd">
<!-- Creator: CorelDRAW 2018 (64-Bit Evaluation Version) -->
<svg xmlns="http://www.w3.org/2000/svg" xml:space="preserve" width="158.75mm" height="158.485mm" version="1.1" style="shape-rendering:geometricPrecision; text-rendering:geometricPrecision; image-rendering:optimizeQuality; fill-rule:evenodd; clip-rule:evenodd"
viewBox="0 0 15875.06 15848.54"
 xmlns:xlink="http://www.w3.org/1999/xlink">
 <defs>
  <style type="text/css">
   <![CDATA[
    .fil0 {fill:#FBD13E}
   ]]>
  </style>
 </defs>
 <g id="Layer_x0020_1">
  <metadata id="CorelCorpID_0Corel-Layer"/>
  <g id="_2128060760960">
   <path class="fil0" d="M9525.89 7498.91c-634.96,0 -1149.63,-503.05 -1149.63,-1090.79l0 -94.23c0,-588.95 511.73,-1089.18 1168.46,-1089.18 603.74,0 1110.94,533.56 1105.43,1145.44 -5.54,614.16 -510.3,1128.77 -1124.26,1128.77zm3354.95 -3201.7c-84.2,565.15 -637.13,1047.87 -1302.27,941.46 -565.22,-90.42 -1050.82,-617.33 -944.71,-1305.22 86.86,-563.01 631.95,-1048.11 1307.3,-941.17 568.31,89.99 1040.28,629.89 939.68,1304.93zm-7356.52 4418.31l823.34 815.58c173.8,179.71 114.76,36.59 226.8,168.69 25.52,30.09 76.17,84.58 93.78,113.98 163.19,272.38 304.67,273.49 495.25,538.32 123.49,-18.51 1672.81,-795.74 1957.19,-956.77 214.47,-121.43 406.01,-242.52 608.16,-371.68 616.23,-393.63 1145.05,-784.28 1690.5,-1230.63l520.88 -458.53c211.21,-177.82 546.24,-506.97 741.22,-709.7 269.18,-279.89 446.88,-500.63 686.99,-763.98 348.79,-382.55 967.36,-1255.18 1223.64,-1697.18 120.23,-207.39 238.49,-409.58 350.3,-630.21 83.04,-163.84 275.79,-510.49 314.11,-677.85 -160.77,-78.19 -491.17,-359.44 -644.21,-479.96 -306.74,-241.55 -913.44,-839.79 -1133.8,-1127.91l-504.82 -630.96c-613.87,200 -1951.87,1065.56 -2436.18,1450.79 -184.63,146.87 -361.01,277.12 -530.01,430.66 -94.52,85.87 -438.1,368.6 -518.94,461.21 -150.25,172.16 -585.99,544.66 -841.85,854.28l-336.45 379.69c-567.43,614.21 -1375.67,1808.43 -1814.22,2557.51 -202.59,346.06 -949.24,1726.79 -971.67,1964.66z"/>
   <path class="fil0" d="M4412.52 8251.34c337.97,0 582.29,21.27 920.73,42.6 98.02,-256.49 662.98,-1276.62 699.96,-1427.5 -669.19,20.31 -1335.64,54.27 -1997.34,84.47 -617.32,28.18 -475.8,-50.45 -782.85,257.56 -180.14,180.7 -347.98,346.77 -527.55,527.46 -695.99,700.36 -1384.64,1383.65 -2083.61,2081.15 -163.21,162.87 -367.52,342.65 -513.19,522.95 -258.26,319.68 -112.4,476.94 300.61,206.72 103,-67.38 182.5,-146.17 282.66,-225.88 464.39,-369.61 1655.36,-1389.17 2054.65,-1620.1 456.38,-263.94 1021.66,-449.44 1645.93,-449.44z"/>
   <path class="fil0" d="M7569.77 10530.75c58.43,832.52 121.68,1481.18 -257.72,2276.5 -275.36,577.19 -1053.97,1460.43 -1483.36,1983.43 -92,112.06 -808.36,906.78 -625.09,1049.32 208.61,78.29 627.35,-405.41 712.54,-490.6l2912.96 -2909.49c85.65,-83.66 61.09,-101.99 68.49,-254.38 38.08,-784.16 48.4,-1585.27 102.82,-2365.73l-1430.65 710.95z"/>
   <path class="fil0" d="M15875.06 408.73l0 -408.73 -463.48 0c-32.83,14.23 -476.27,50.07 -567.98,63.87 -357.1,53.74 -1319.8,276.49 -1547.11,426.15 72.14,209.52 1002.13,1203.2 1206.27,1372.77 96.01,79.78 175.47,155.11 279.39,247.95 89.99,80.39 491.19,404.55 603.73,449.57 180.05,-523.97 340.35,-981.56 424.55,-1553.74 12.69,-86.22 51.89,-566.61 64.63,-597.84z"/>
   <path class="fil0" d="M9363.31 5556.89c-1102.41,207.84 -737.89,1836.99 318.4,1609.69 398.63,-85.78 725.89,-469.82 635.89,-963.85 -72.04,-395.38 -467.51,-737.6 -954.29,-645.83z"/>
   <path class="fil0" d="M12238.88 4781.18c282.92,-199.72 486.12,-668.44 219.21,-1099.21 -178.93,-288.78 -640.43,-538.31 -1090,-293.11 -902.28,492.09 -261.11,1850.16 668.04,1499.69 1.94,-4.76 3.94,-11.19 5.07,-14.57l26.72 -85.17c55.4,-18.09 106.33,-9.31 125.27,-58.09 -28.97,-57.08 -45.76,-48.38 -118.58,-24.66 19.27,-38.95 66.37,-55.9 107.13,-31.58 82.43,49.17 10.27,36.88 57.14,106.71z"/>
   <path class="fil0" d="M5448.07 9365.61l604.74 629.7c106.73,-38.58 173.82,-208.8 360.14,125.76 -39.63,21.37 -38.55,-44.07 -104.55,120.22l275.65 278.45c73.72,-26.98 173.24,-132.39 210.71,-191.36 -201.29,-276.18 -239.5,-168.99 -420.04,-406.88 -48.22,-63.55 -87.63,-97.61 -142.22,-158.93 -172.12,-193.4 -394.62,-403.7 -584.9,-585.96l-199.53 189z"/>
  </g>
 </g>
</svg>
