<?xml version="1.0" encoding="UTF-8"?>
<!DOCTYPE svg PUBLIC "-//W3C//DTD SVG 1.1//EN" "http://www.w3.org/Graphics/SVG/1.1/DTD/svg11.dtd">
<!-- Creator: CorelDRAW 2018 (64-Bit Evaluation Version) -->
<svg xmlns="http://www.w3.org/2000/svg" xml:space="preserve" width="158.749mm" height="55.3962mm" version="1.1" style="shape-rendering:geometricPrecision; text-rendering:geometricPrecision; image-rendering:optimizeQuality; fill-rule:evenodd; clip-rule:evenodd"
viewBox="0 0 15874.92 5539.62"
 xmlns:xlink="http://www.w3.org/1999/xlink">
 <defs>
  <style type="text/css">
   <![CDATA[
    .fil0 {fill:#F56F45}
   ]]>
  </style>
 </defs>
 <g id="Layer_x0020_1">
  <metadata id="CorelCorpID_0Corel-Layer"/>
  <path class="fil0" d="M3646 5005.88c-324.82,0 -159.13,-12.29 -335.13,-38.07 -104.21,-15.26 -229.33,-12.14 -322.88,-30.55 -105.33,-20.72 -170.63,-61.62 -285.18,-84.87l-416.74 -128.27c-44.28,-18.49 -71.07,-38.62 -121.44,-56.86 -219.91,-79.61 -344.95,-209.45 -506.3,-378.48 -51.41,-53.89 -123.77,-130.18 -160.62,-207.71 -26.29,-55.21 -29.49,-68.7 -61.09,-116.55 -94.51,-143.03 -220.39,-672.07 -230.73,-845.4 -13.8,-230.98 -8.32,-462.05 -1.49,-693.37 3.65,-124 22.85,-193.51 48.91,-306.21 69.6,-300.87 -2.67,-192.53 140.67,-583.07 8.46,-23.05 116.35,-200.65 133.35,-220.16l137.32 -143.22c26.96,-25.98 19.32,-24.71 41.41,-47.45 58.67,-60.3 386.41,-232.28 476,-245.66 291.62,-43.63 87.14,-78.99 602.04,-109.01 291.85,-17.01 217.41,66.17 144.32,86.13 -145.78,39.8 -151.54,3.37 -287.63,82 -47.87,27.68 -78.79,22.99 -130.68,46.07 -64.07,28.45 -255.53,184.88 -306.46,240.01 -120.65,130.6 -85.01,109.71 -149.83,203.94 -111.71,162.42 -43.41,84.47 -107.75,261.17 -65.58,179.97 -153.46,727.17 -153.46,912.08 0,350.26 -20.77,443.16 63.79,779.5 15.96,63.59 23.81,149.19 35.89,214.43l130.89 357.4c28.84,37.3 23.97,15.38 49.44,68.76 91.03,190.73 40.4,68.42 94.51,155.87 94.2,152.27 159.89,197.98 293.19,312.28 150.59,129.11 195.93,120.14 304.64,182.52 85.03,48.8 43.49,41.63 166.92,67.44 208.1,43.51 110,76.26 372.66,113.68 187.75,26.73 151.29,43.74 179.82,73.14 66.6,68.7 127.74,21.98 161.64,78.49zm8441.76 -20.81c-61.82,52.04 -217.33,24.71 -287.38,8.35 -93.97,-21.98 -169.39,-30.89 -267.56,-41.35 -120.06,-12.76 -144.88,-18.04 -245.15,-65.52 -70.98,-33.62 -158.71,-34.13 -230.25,-65.28 -45.93,-20.01 -54.42,-37.35 -105.73,-56.05 -43.06,-15.71 -70.83,-14.92 -107.55,-40.22 -48.26,-33.26 -23.75,-37.67 -94.48,-68.51 -145.1,-63.33 -59.37,-33.51 -196.52,-112.69 -61.7,-35.62 -22.74,-29.27 -75.02,-72.81 -140.53,-117 -184.13,-145.75 -313.83,-291.25 -149.18,-167.4 -156.89,-152.59 -264.35,-355.41 -114.92,-216.93 -116.04,-179.76 -191.89,-412.55 -26.7,-81.88 -62.65,-114.77 -90.34,-219.96 -23.59,-89.53 -60.67,-143.53 -81.61,-228.26 -22.57,-91.41 -20.8,-163.32 -49.22,-246.08 -101.28,-294.85 -200.48,-987.07 91.28,-1231.18 169.87,-142.13 -9.39,-25.39 185.05,-124.51 62.63,-31.93 28.11,-39.63 91.47,-71.26 36.68,-18.3 75,-18.21 114.3,-32.46 76.12,-27.61 108.53,-60.7 205.15,-90.83 296.99,-92.6 600.83,-245.1 928.27,-295.33 110.81,-16.98 145.13,-53.63 235.76,-73.45 144.99,-31.74 331.17,-22.32 418.96,-39.41 54.17,-10.52 235.51,-90.55 370.64,-20.27 -406.74,58.13 -195.2,51.39 -313.63,106.37 -84.76,39.35 -244.85,26.06 -327.44,71.2 -77.75,42.53 -104.96,44.05 -201.49,64.04 -107.75,22.29 -109.44,34.38 -191.91,73.82 -65.75,31.4 -137.55,30.75 -202.74,62.57 -90.4,44.14 -88.85,43.66 -194.35,71.54 -77.95,20.64 -96.98,53.16 -182.38,82.65 -84.25,29.12 -107.75,60.07 -172.15,93.66 -191.6,99.88 -293.39,218.79 -333.11,464.02 -33.79,208.58 -38.09,258.26 -8.49,464.16 42.56,296.23 -11.7,134.63 86.66,444.26 23.59,74.16 24.04,149.69 45.2,220.92 19.51,65.59 52.49,123.86 71.49,193.71l143.03 388.75c98.16,184.68 154.94,336.09 288.27,508.43 27.35,35.36 30.22,24.79 63.81,69.1 67.66,89.25 122.28,121.27 195.62,202.7 79.7,88.49 172.74,136.03 215.98,182.58 62.68,67.55 496.79,308.88 593.63,335.81 66.99,18.64 162.34,15.23 210.36,55.07 41.35,34.29 3.88,34.97 71.43,62.09 30.69,12.32 72.8,18.02 102.21,28.84zm303.28 549.76c153.2,0 864.6,-89.02 980.81,-136.11 87.93,-35.61 123.43,-43.32 215.89,-64.74 97.9,-22.68 116.18,-56.56 200.2,-80.76 147.07,-42.36 266.91,-103.7 382.33,-177.54 39.41,-25.22 67.75,-27.22 101.56,-46.58 115.37,-66.15 230.43,-161.27 321.62,-239.37 25.72,-22.03 53.69,-34.15 77.33,-55.12 37.72,-33.51 28.93,-42.56 66.45,-80.96 24.46,-25.05 43.52,-39.66 67.36,-65.81 63.47,-69.48 230.28,-467.67 258.75,-582.02 37.31,-150.03 89.17,-277.68 117.56,-428.16 17.8,-94.31 43.1,-130.79 67.75,-214.25 37.05,-125.43 27.86,-280.1 85.93,-473.53l130.13 -995.79c7.08,-185.55 1.91,-212.93 82.19,-341.74 19.31,-31 28.08,-60.32 44.92,-87.56 63.17,-102.04 255.84,-154.47 274.64,-285.43 10.66,-74.36 -4.86,-165.88 -0.11,-247.8 10.4,-178.84 21.17,-619.53 -31.68,-754.29 -98.16,-25.78 -532.53,-59.71 -654.39,-65.67l-1372.69 -62.34c-217.63,-14.37 -449.74,-47.99 -663.95,-47.99l-619.81 0c-136.19,0 -1093.33,86.08 -1206.98,111.26 -96.28,21.31 -169.34,47.68 -276.66,62.24 -404.32,54.84 -278.35,65.78 -394.84,90.18 -50.97,10.65 -89.9,10.6 -142.47,21.56l-1496.27 479.9c-94.93,13.47 -195.65,21.65 -288.61,38.01 -734.16,129.31 -1122.03,68.9 -1841.97,-36.46l-521.99 -141.9c-85.62,-38.01 -161.38,-35.34 -245.77,-78.15l-729.44 -259.6c-215.47,-49.36 -314.25,-86.13 -548.27,-114.38 -104.57,-12.6 -174.71,-36.74 -266.68,-58.59 -171.68,-40.76 -420.23,-32.32 -601.4,-63.36 -377.41,-64.65 -782.4,-50.71 -1163.55,-50.71 -256.6,0 -522.58,35.76 -776.31,55.1 -451.65,34.49 -1200.94,18.58 -1583.58,67.63 -382.38,49.05 -439.51,-42.3 -436.83,338.59l6.85 546.16c-7.98,114.02 -35.13,214.51 70.96,284 40.39,26.48 95.63,74.33 140.35,110.25 52.17,41.89 63.64,77.17 104.94,146.26 57.6,96.45 46.18,50.38 63.33,188.17 19.23,154.42 14.28,309.75 39.38,459.75l97.1 657.96c17.62,77.64 40.73,111.06 52.99,198.66 25.38,181.45 36.99,248.18 84.38,415.61 20.58,72.78 29.18,137.32 42.42,209.48 15.44,84.22 43.32,109.52 63.84,186.01 18.13,67.58 30.47,139.85 50.83,200.31l150.75 336.4c31.68,57.69 43.83,119.25 80.4,170.35 60.69,84.7 169.56,172.52 253.05,248.7 28.65,26.14 48.07,31.9 77.95,54.98 115.7,89.39 249.31,164.42 376.85,242.96 46.47,28.64 120.91,57.57 166.95,83.63 64.77,36.65 121.33,35.78 190.11,61.39 67.44,25.1 90.88,54.09 175.38,75.14 76.16,18.98 127.88,24.26 199.31,50.85 129.73,48.35 493.34,103.73 631.08,123.52 475.58,68.34 969.79,-10.54 1431.59,-67.97l621.13 -128.49c57.68,-20.58 108.08,-43.52 173.41,-62.8 180.84,-53.36 346.04,-149.44 485.16,-266.97 53.89,-45.54 83.91,-43.2 139.68,-96.45 142.97,-136.44 379.38,-335.94 489.61,-499.32l560.72 -929.7c28.19,-70.31 28.47,-113.15 71.34,-179.57 48.77,-75.62 39.33,-88.86 63.87,-171.51 22.91,-77.1 51.5,-111.82 73.23,-178.86 21.08,-64.99 22.26,-127.51 50.68,-199.31 30.7,-77.58 43.38,-104.48 54.59,-195.42 13.21,-107.07 49.48,-289.96 119.72,-368.25 158.21,-176.34 110.06,-105.86 283.19,-218.56 69.46,-45.23 71.43,-57.94 180.3,-57.94 143.82,0 296.4,82.42 376.82,156.61 201.64,186.01 194.75,250.13 240.74,511.5 15.66,88.86 37.95,118.34 62.38,189.27 23.19,67.38 21.76,133.21 47.34,202.42 37.58,101.79 96.42,270 146.9,355.51 30.65,51.87 35.73,123.66 67.33,183.23 56.05,105.58 114.24,218.84 166.7,335.27 65.16,144.72 296.48,453.99 399.73,603.62 32.97,47.79 28.33,22.24 67.38,65.33 24.65,27.24 34.91,51.84 56.64,76.32 43.83,49.31 90.01,75.08 130.57,120.06l125.21 125.85c99.68,93.61 164.36,118.68 218.22,165.43l149.92 101.09c180.91,129.31 225.67,126.41 423.12,196.97 233.93,83.6 234.27,47.14 405.77,96.14 177.04,50.54 665.46,131.13 855.69,145.64l530.95 12.56z"/>
 </g>
</svg>
