<?xml version="1.0" encoding="UTF-8"?>
<!DOCTYPE svg PUBLIC "-//W3C//DTD SVG 1.1//EN" "http://www.w3.org/Graphics/SVG/1.1/DTD/svg11.dtd">
<!-- Creator: CorelDRAW 2018 (64-Bit Evaluation Version) -->
<svg xmlns="http://www.w3.org/2000/svg" xml:space="preserve" width="84.926mm" height="158.85mm" version="1.1" style="shape-rendering:geometricPrecision; text-rendering:geometricPrecision; image-rendering:optimizeQuality; fill-rule:evenodd; clip-rule:evenodd"
viewBox="0 0 8492 15883.86"
 xmlns:xlink="http://www.w3.org/1999/xlink">
 <defs>
  <style type="text/css">
   <![CDATA[
    .str0 {stroke:#3B9CFF;stroke-width:20;stroke-miterlimit:22.9256}
    .fil1 {fill:#3B9CFF}
    .fil0 {fill:#C4E1FF}
   ]]>
  </style>
 </defs>
 <g id="Layer_x0020_1">
  <metadata id="CorelCorpID_0Corel-Layer"/>
  <g id="_2091702530208">
   <path class="fil0 str0" d="M25.2 7254.28l0.77 4619.61 23.23 40.27c61.63,5.77 464.87,10.68 496.89,-5.22 18.24,-34.22 9.45,-81.32 11.41,-128.15 1.91,-45.66 11.08,-75.92 20.75,-115.51 16.48,-67.48 -9.59,-54.25 31.81,-104.16 15.23,-18.36 4.39,-1.72 13.59,-21.09 7.11,-14.97 0.84,-8.7 9.87,-24.39l74.01 -78.35c63.96,-58.29 44.68,-26.98 69.49,-50.82 18.21,-17.5 4.92,-19.16 33.35,-32.2 29.36,-13.46 76.31,-15.95 108.57,-28.97 57.26,-23.11 199.99,-26.35 242.13,-9.89l49.74 18.57c65.29,19.3 98.05,43.27 148.45,88.37 70.64,63.21 134.45,112.93 160.41,211.34 38.76,146.98 -23.36,263.35 60.33,277.92l5164.21 -0.22c49.16,0 169.03,-5.84 210.06,3.27 97.99,21.76 85.09,15.34 207.52,14.91l1295.35 -0.83c0,-77.11 -10.5,-337 5.3,-391.08 15.85,-78.56 1.7,-937.67 1.19,-1095.08l-7.74 -2191.03c-1.16,-358.47 -14.24,-736.75 -3.74,-1092.16l-1307.41 -0.71c-37.01,0.12 -74.08,1.01 -111.13,1.29 -84.38,0.67 -65.57,13.2 -89.05,20.05 -36.61,10.67 -4001.75,3.06 -4537.93,3.06 -174.74,0 -718.04,-8.73 -846.1,0.74 -37.38,121.65 -27.41,56.39 -27.39,206.67l-0.05 2890.11c0.37,83.04 6.75,139.22 -23.29,194.9 -0.93,1.72 -11.6,21.88 -11.94,22.62l-23.67 52.58c-25.69,47.46 -18.83,31.53 -58.1,50.66 -6.54,69.22 -1.45,37.64 -23.06,83.49l-9.03 32.95c-38.91,-13.47 22.35,-2.68 -29.01,-18.53 -53.13,-16.39 -38.34,28.62 -76.3,44.81l-32.25 10.8c-102.84,36.26 -429.1,7.34 -450.44,-10.93 -12.8,-23.53 -10.59,-54.38 -27.05,-77.9l-44.95 -15.29c-36.86,-10.4 -19.82,-0.56 -40.11,-19.31l-83.25 -92.66c-5.44,-10.77 -3.7,-11.72 -10.27,-24.35 -20.51,-39.43 -39.38,-33.54 -44,-88.93 -11.32,-135.96 -1.08,-319.21 -1.08,-460.33l0.06 -2659.92c0.08,-18.4 1.26,-42.43 0.13,-60.16 -1.49,-23.19 -2.54,-43.17 -16.92,-48.26 -1.6,-0.57 -4.68,-1.86 -6.67,-2.52 -1.98,-0.66 -4.49,-1.62 -6.71,-2.3 -2.65,-0.81 -10.8,-3.06 -13.68,-3.72l-106.02 -5.23c-475.71,1.52 -295.21,-14.25 -370.27,71.23z"/>
   <path class="fil1 str0" d="M645.97 6280.17c41.12,-43.61 58.14,-81.19 107.8,-125.46 39.76,-35.43 23.32,-19.45 42.98,-59.5 30.52,-2.26 58.95,-1.36 79.66,-11.74l260.48 -23.55c46.88,7.18 7.9,0.17 31.71,11.02 25.83,11.77 37.96,12.02 63.59,20.82 88.38,30.35 69.73,45.34 108.59,62.72 35.03,15.67 40.14,-2.21 62.19,31.93 11.43,17.7 12.93,40 24.74,61.02 109.32,194.59 24,130.2 68.23,274.18 6.86,22.37 12.22,18.33 11.43,76.16 -0.49,36.04 -8.38,53.49 -8.38,76.58l0.08 255.76c0.27,160.77 18.41,213.36 -47.12,224.59l-844.59 -1.59c-31.7,-52.92 -26.3,-26.34 -27.04,-112.1l0.58 -434.87c-0.6,-143.52 15.3,-116.47 17.02,-178.76 0.39,-14.54 -1.24,-39.12 0.09,-52.23 3.36,-33.17 10.18,-25.68 25.78,-60.05l22.19 -34.95zm-616.29 5652.63l-3.72 -58.91 -0.77 -4619.61c-9.11,-161.35 44.45,-111.53 464.15,-111.59l58.38 8.13c24.52,7.75 17.58,9.3 29.87,33.56 26.61,52.57 12.52,303.49 12.52,368.09l0 2557.62c0,164.73 -12.68,250.94 45.25,376.13 17.12,37.03 38.66,57.61 66.22,84.82 23.46,23.18 10.07,14.17 24.39,36.57 23.19,36.24 51.96,24.14 83.03,45.33l62.47 25.08c63.69,16.86 71.4,41.8 155.95,54.47 99.07,14.85 174.99,-20.48 249.57,-65.06l61.01 -41.54c1.35,-1.14 3.08,-2.97 4.37,-4.15 43.55,-39.84 35.97,-45.91 65.25,-87.83 14.92,-21.38 7.95,-0.6 29.47,-29.38 4.47,-5.98 58.78,-142.75 60.73,-150.49 22.03,-87.31 -10.47,-3141.36 6.26,-3165.96 4.49,-6.59 31.05,-42.45 42.19,-53.24 29.19,-28.28 37,-19.9 71,-11.02 81.8,21.33 4373.58,4.41 5220.68,6.93l92.83 -3.04c2.54,-0.49 5.54,-1.54 7.57,-1.99l15.46 -76.19c-7.02,-178.43 0.02,-358.63 0.02,-537.16 0,-165.08 14.13,-1187.14 -7.27,-1258.54 -9.87,-32.95 -11.34,-20.71 -28.15,-40.91l-15.08 -32.2c-4.39,-32.07 3.92,-37.96 -7.16,-71.72 -20.92,-63.76 -7.07,-104.94 -39.66,-149.4 -33.81,-46.14 -19.87,-115.43 -23.66,-173.33 -37.43,-12.91 -6.49,-16.68 -54.6,-21.61 -0.44,-123.26 -57.9,-127.76 -69.28,-198.71l-6.43 -38.65c-0.87,-2.31 -1.93,-4.37 -2.97,-6.5 -0.97,-2 -2.38,-3.91 -3.48,-5.72 -34.62,-57.69 -54.79,-55.95 -57.57,-147.97l-39.42 -19.98c-1.23,-1.16 -2.73,-3.2 -3.93,-4.43l-26.79 -25.33c-14.39,-11.99 -18.49,-23.18 -38.67,-30.14 7.54,-31.79 9.4,-15.6 0.38,-46.99l-32.57 -63.91c-24.8,-28.53 -59.76,-49.03 -80.14,-80.8 -20.59,-32.08 -17.25,-45.1 -49.43,-72.21 -24.78,-20.88 -19.91,-47.34 -58.54,-56.17 -7.74,-1.77 -15.08,-2.76 -22.81,-4.05 -16.7,-2.81 -24.12,-5.87 -46.81,-6.77l-15.5 -77.22c-9.69,-24.15 -24.96,-27.36 -39.55,-38.27 -96.23,-71.91 -39.14,-13.56 -101.44,-93.25 -24.71,-31.61 -61.7,-47.77 -100.97,-50.39 -18.43,-1.22 -4.89,1.95 -17.12,-5.03l-48.71 -17.72c-4.58,-62.52 -4.93,-13.15 -30.63,-69.34l-9.55 -18.07c-38.6,-51.87 -104.45,-5.66 -143.12,-56.52 -0.48,-0.63 -1.76,-2.56 -2.16,-3.24 -36.88,-62 16.82,-53.94 -111.75,-57.56 -23.55,-91.14 -163.07,-54.38 -175.35,-64.57l-19.03 -31.4c-36.27,-35.47 -143.86,-33.45 -198.39,-47.85l-13.35 -8.18c-0.84,-0.67 -2.49,-2.62 -3.42,-3.36 -30.83,-24.25 -61,-23.8 -101.6,-51.09 -50.92,-34.2 -169.25,-15.4 -238.78,-15.23 -186.41,0.43 -63.07,-22.21 -160.75,-30.88 -147.42,-13.09 -429.01,4.35 -597.69,0.01 -251.78,-6.48 -531.86,-5.19 -784,-0.31 -108.36,2.09 -300.46,-20.33 -388.61,6.75 -51.69,15.87 -99.18,-7.73 -165.25,-8.33l-122.46 12.5c-16.95,8.08 -16.87,17.49 -40.56,10.79 7.5,-18.06 21.44,-8.75 34.01,-27.06 17.49,-25.5 16.68,-142.69 6.89,-178.14l-10.95 -24.95 2.17 198.45c-478.29,25.76 -773.83,-0.11 -1220.88,198.27 -687.28,304.98 -1084.7,809.49 -1295.69,1540.65 -57.58,199.5 -101.88,388.9 -101.88,611.69l-0.16 1423.74c-0.1,123.6 -13.59,213.39 -13.58,332.49l2.13 4578.92c4.76,43.89 -7.58,24.2 17.56,40.13z"/>
   <path class="fil1" d="M1470.98 11907.38c5.91,48.14 33.39,26.6 45.73,52.72 12.65,26.75 11.21,457.64 -44.3,567.45 -21.23,42.02 -26.94,23.44 -53.05,56.7 -64.53,82.2 -33.05,27.49 -87.62,64.95 -32.38,22.23 -2.48,16.39 -65,45.06l-72.54 39.61c-36.48,29.62 -16.79,22.6 -82.46,24.27 -35.99,0.92 -72.84,3.06 -108.39,-1.78 -22.68,-3.08 -66.91,-10.36 -94.13,-16.94 -72.21,-17.46 -96.97,-15.99 -121.16,-45.45 -42.81,-52.08 -67.6,-51.04 -132.51,-124.08l-50.2 -69.19c-17.2,-22.59 -36.31,-139.27 -37.67,-182.15 -2.32,-73.68 0.72,-148.2 0.04,-222.04 -0.64,-69.78 -13.5,-124.64 40.95,-170.13 52.01,-43.44 741.6,13.06 862.32,-18.99zm-1447.49 36.97c-10.64,930.57 -1.02,1907.87 0.58,2846.18 0.15,89 -15.49,415.4 10.63,471.69 20.6,44.37 49.81,76.12 77.49,159.72 35.46,107.09 34.83,37.66 68.74,134.59l5.49 13.54c0.46,-1.28 1.67,4.74 3.09,6.76 19.69,12.28 31.21,10.04 47.75,28.26 17.09,18.85 7.35,19.62 25.89,42.24 9.92,12.12 71.54,58.12 81.88,63.98 49.46,28.09 41.1,43.63 82.37,62.45 114.82,52.35 17.19,34.84 94.07,50.48 121.11,24.64 103.84,55.63 231.62,58.55 93.33,2.13 188.03,0.52 281.49,0.38l5743.69 -9.91c224.94,-0.81 969.28,10.04 1134.77,-16.4 92.17,-14.74 68.62,-17.87 157.31,-63.25 67.07,-34.31 142.58,-101.96 196.35,-153.38 115.23,-110.18 117.19,-158.81 173.92,-261.27 40.18,-72.6 6.67,-73.82 42.02,-96.47l0 -833.18 -11.04 0c-25.19,93.66 3.53,518.8 -3.75,665.2 -1.63,32.82 1.05,80.52 -2.29,109.43l-101.69 250.49c-47.22,61.65 -39.16,67.22 -57.55,86.08l-31.9 28.19c-1.32,1.38 -2.97,3.29 -4.24,4.7l-19.43 22.39c-14.65,14.77 -11.58,10.47 -27.38,22.4 -64.31,48.56 4.4,8.48 -97.28,72.95 -50.74,32.16 -39.73,55.68 -135.63,82.63 -175.45,49.34 -107.75,62.5 -317.4,62.49 -393.03,-0.02 -972.59,25.9 -1319.02,4.13 21.79,-8.69 25.98,-6.21 47.25,-13.23 39.26,-12.95 -8.59,6.6 30.45,-21.76l167.91 -86.66c23.75,-9.73 50.09,-8.4 61.21,-68.26 100.79,-4.36 50.57,-39.08 89.38,-72.16 7.04,-6 40.53,-16.95 51.84,-25.01 28.92,-20.61 15.13,-15.86 26.44,-50.76l47.9 -114.6c10.12,-28 2.8,-40.07 14.39,-62.55 11.65,-22.62 17.43,19.25 19.25,-56.46 42.12,-4.99 47.16,-20.7 48.66,-62.93 1.16,-32.51 -0.58,-69.84 -0.58,-102.99l2.2 -3112.35c-3.6,-58.9 -16.62,-54.2 -96.76,-53.38 -879.66,9.01 -1803.69,0.12 -2684.43,0.12 -802.03,0 -1636.86,-7.32 -2437.23,0.18 -43.42,0.4 -138.93,8.87 -162.41,7.75 -57.72,-2.74 -44.15,-73.17 -108.52,-57.96 29.62,-96.55 10.83,-188.64 0.17,-219.36l-20.95 -69.91c-9.69,-67.43 -9.32,-27.26 -49.21,-57.87 -4.51,-97.83 -21.81,-31.99 -77.21,-85.25l-13.42 -13.12c-1.31,-1.23 -3.33,-2.81 -4.62,-4.02l-8.61 -7.81c-13.54,-13.74 -22.67,-31.35 -55.91,-48.64 -67.32,-35.01 -212.18,-34.64 -283.99,-28.33 -65.15,5.73 -60.65,23.96 -74.13,33.98 -40.29,29.93 -59.8,1.74 -85.88,41.2 -35.23,53.28 20.68,-5.65 -20.46,13.66l-56.16 45.84c-21.29,17.56 -70.68,69.32 -78.67,95.19 -67.7,218.85 -27.8,210.74 -48.33,306 -55.23,25.42 -23.56,65.01 -100.53,54.89l-328.07 -5.97c-54.82,2.34 -69.13,17.2 -117.67,-2.09 -2.54,-1 -5.55,-2.57 -7.66,-3.46l-16.18 -7.96z"/>
   <path class="fil1" d="M2640.02 3008.48l10.95 24.95c9.79,35.45 10.6,152.64 -6.89,178.14 -12.57,18.31 -26.51,9 -34.01,27.06 23.69,6.7 23.61,-2.71 40.56,-10.79l122.46 -12.5c66.07,0.6 113.56,24.2 165.25,8.33 88.15,-27.08 280.25,-4.66 388.61,-6.75 252.14,-4.88 532.22,-6.17 784,0.31 168.68,4.34 450.27,-13.1 597.69,-0.01 97.68,8.67 -25.66,31.31 160.75,30.88 69.54,-0.17 187.87,-18.97 238.78,15.23 40.61,27.29 70.77,26.84 101.6,51.09 0.93,0.74 2.58,2.69 3.42,3.36l13.35 8.18c54.53,14.4 162.12,12.38 198.39,47.85l19.03 31.4c12.28,10.19 151.8,-26.58 175.35,64.57 128.57,3.62 74.87,-4.44 111.75,57.56 0.4,0.68 1.68,2.61 2.16,3.24 38.67,50.86 104.52,4.65 143.12,56.52l9.55 18.07c25.7,56.19 26.05,6.82 30.63,69.34l48.71 17.72c12.23,6.98 -1.31,3.81 17.12,5.03 39.28,2.62 76.26,18.78 100.97,50.39 62.31,79.69 5.21,21.34 101.44,93.25 14.59,10.91 29.86,14.12 39.55,38.27l15.5 77.22c22.69,0.9 30.11,3.96 46.81,6.77 7.73,1.29 15.07,2.28 22.81,4.05 38.63,8.83 33.76,35.29 58.54,56.17 32.18,27.12 28.84,40.14 49.43,72.21 20.39,31.78 55.35,52.28 80.14,80.8l32.57 63.91c9.02,31.39 7.16,15.2 -0.38,46.99 20.18,6.96 24.28,18.15 38.67,30.14l26.79 25.33c1.2,1.23 2.7,3.27 3.93,4.43l39.42 19.98c2.78,92.02 22.95,90.28 57.57,147.97 1.1,1.81 2.51,3.72 3.48,5.72 1.04,2.13 2.1,4.19 2.97,6.5l6.43 38.65c11.38,70.94 68.84,75.44 69.28,198.71 48.11,4.93 17.17,8.7 54.6,21.61 3.79,57.9 -10.15,127.19 23.66,173.33 32.59,44.46 18.74,85.64 39.66,149.4 11.08,33.77 2.77,39.66 7.16,71.72l15.08 32.2c16.81,20.2 18.28,7.96 28.15,40.91 21.4,71.4 7.27,1093.46 7.27,1258.54 0,178.53 -7.04,358.73 -0.02,537.16l-15.46 76.19c-2.03,0.45 -5.03,1.5 -7.57,1.99l-92.83 3.04c-847.1,-2.52 -5138.88,14.4 -5220.68,-6.93 -34.01,-8.88 -41.82,-17.26 -71,11.02 -11.14,10.79 -37.7,46.65 -42.19,53.24 -16.73,24.6 15.77,3078.64 -6.26,3165.96 -1.95,7.74 -56.26,144.51 -60.73,150.49 -21.52,28.78 -14.55,8 -29.47,29.38 -29.28,41.93 -21.7,48 -65.25,87.83 -1.29,1.18 -3.02,3.01 -4.37,4.15l-61.01 41.54c-74.58,44.58 -150.5,79.9 -249.57,65.06 -84.54,-12.67 -92.26,-37.61 -155.95,-54.47l-62.47 -25.08c-31.08,-21.19 -59.85,-9.09 -83.03,-45.33 -14.32,-22.4 -0.93,-13.39 -24.39,-36.57 -27.56,-27.22 -49.1,-47.8 -66.22,-84.82 -57.93,-125.19 -45.25,-211.41 -45.25,-376.13l0 -2557.62c0,-64.61 14.09,-315.53 -12.52,-368.09 -12.29,-24.26 -5.35,-25.81 -29.87,-33.56l-58.38 -8.13c-419.7,0.06 -473.26,-49.76 -464.15,111.59 75.06,-85.48 -105.43,-69.72 370.27,-71.23l106.02 5.23c2.88,0.66 11.03,2.91 13.68,3.72 2.22,0.68 4.73,1.64 6.71,2.3 1.99,0.66 5.07,1.95 6.67,2.52 14.38,5.09 15.43,25.07 16.92,48.26 1.13,17.73 -0.05,41.76 -0.13,60.16l-0.06 2659.92c0,141.12 -10.24,324.37 1.08,460.33 4.62,55.4 23.49,49.51 44,88.93 6.57,12.63 4.83,13.58 10.27,24.35l83.25 92.66c20.29,18.75 3.25,8.91 40.11,19.31l44.95 15.29c16.46,23.53 14.25,54.38 27.05,77.9 21.34,18.27 347.6,47.19 450.44,10.93l32.25 -10.8c37.97,-16.19 23.18,-61.2 76.3,-44.81 51.36,15.85 -9.9,5.06 29.01,18.53l9.03 -32.95c21.61,-45.86 16.52,-14.28 23.06,-83.49 39.27,-19.13 32.41,-3.2 58.1,-50.66l23.67 -52.58c0.34,-0.74 11.01,-20.9 11.94,-22.62 30.04,-55.68 23.66,-111.85 23.29,-194.9l0.05 -2890.11c-0.02,-150.28 -9.99,-85.01 27.39,-206.67 128.06,-9.47 671.36,-0.74 846.1,-0.74 536.18,0 4501.32,7.61 4537.93,-3.06 23.49,-6.85 4.67,-19.38 89.05,-20.05 37.05,-0.28 74.12,-1.17 111.13,-1.29l1307.41 0.71c6.86,-263.9 -2.24,-543.22 -3.27,-809 -1.09,-272.81 -2.04,-545.62 -2.98,-818.43 -0.98,-283.55 14.61,-508.76 -70.51,-747.46 -72.82,-204.25 -83.13,-244.32 -188.63,-424.5 -112.58,-192.3 -299.21,-417.37 -463.83,-548.49 -347.11,-276.48 -639.17,-429.64 -1100.02,-536.34 -346.06,-80.12 -664.26,-54.22 -743.65,-73.61 -14.06,-237.08 0.76,-692.85 -1.96,-977.76 -0.45,-46.46 -0.18,-43.02 -11.77,-62.64 9.95,171.62 2.79,365.6 2.79,540.36 0,172.28 3.8,358.02 -2.7,528.89 -32.54,-5.86 -26.99,-22.96 -77.36,-26.6 -25.41,-1.85 -69.97,2.42 -100.75,2.02 -259.75,-3.26 -548.2,-0.05 -801.45,-17.41 -61.73,-4.23 -139.18,1.51 -204.12,0.58 -397.48,-5.67 -817.76,3.03 -1218.6,0.1l-715.89 -0.71c-14.76,0.12 -37.95,1.65 -51.44,0.78 -14,-0.92 -11.51,-1.23 -22.91,-3.49 -1.78,-0.36 -5.57,0.44 -6.83,-2.26 -1.23,-2.66 -4.57,-1.39 -6.65,-2.5l-4.72 -948.68c1.83,-75.52 8.24,-62.67 27.48,-99.33l54.21 -136.57c-52.45,27.64 -90.32,98.94 -99.43,179.09 -9.3,81.68 -2.82,194.01 -2.16,278.87 1.44,183.58 7.21,371.66 5.05,554.19z"/>
   <path class="fil1 str0" d="M25.97 11873.89l3.72 58.91 -6.2 11.55 16.18 7.96c2.11,0.89 5.12,2.46 7.66,3.46 48.55,19.29 62.86,4.43 117.67,2.09l328.07 5.97c76.97,10.12 45.31,-29.47 100.53,-54.89 20.53,-95.26 -19.37,-87.14 48.33,-306 8,-25.88 57.39,-77.63 78.67,-95.19l56.16 -45.84c41.14,-19.31 -14.77,39.62 20.46,-13.66 26.09,-39.46 45.6,-11.27 85.88,-41.2 13.49,-10.02 8.99,-28.25 74.13,-33.98 71.81,-6.31 216.67,-6.68 283.99,28.33 33.24,17.29 42.37,34.9 55.91,48.64l8.61 7.81c1.29,1.21 3.31,2.79 4.62,4.02l13.42 13.12c55.41,53.27 72.7,-12.58 77.21,85.25 39.89,30.61 39.52,-9.56 49.21,57.87l20.95 69.91c10.66,30.73 29.45,122.81 -0.17,219.36 64.38,-15.22 50.81,55.22 108.52,57.96 23.48,1.12 118.99,-7.35 162.41,-7.75 800.36,-7.5 1635.19,-0.18 2437.23,-0.18 880.74,0 1804.77,8.89 2684.43,-0.12 80.14,-0.82 93.16,-5.52 96.76,53.38l-2.2 3112.35c0,33.16 1.74,70.49 0.58,102.99 -1.5,42.23 -6.54,57.94 -48.66,62.93 -1.82,75.7 -7.6,33.84 -19.25,56.46 -11.59,22.48 -4.27,34.55 -14.39,62.55l-47.9 114.6c-11.31,34.9 2.48,30.15 -26.44,50.76 -11.31,8.06 -44.8,19.01 -51.84,25.01 -38.82,33.09 11.41,67.81 -89.38,72.16 -11.12,59.86 -37.46,58.53 -61.21,68.26l-167.91 86.66c-39.04,28.36 8.81,8.81 -30.45,21.76 -21.27,7.02 -25.46,4.54 -47.25,13.23 346.43,21.77 925.98,-4.15 1319.02,-4.13 209.65,0.01 141.95,-13.15 317.4,-62.49 95.9,-26.96 84.89,-50.48 135.63,-82.63 101.68,-64.48 32.98,-24.4 97.28,-72.95 15.8,-11.93 12.73,-7.63 27.38,-22.4l19.43 -22.39c1.27,-1.41 2.92,-3.32 4.24,-4.7l31.9 -28.19c18.39,-18.87 10.33,-24.44 57.55,-86.08l101.69 -250.49c3.34,-28.91 0.66,-76.61 2.29,-109.43 7.28,-146.4 -21.44,-571.54 3.75,-665.2 20.91,-76.89 3.9,-609.35 3.41,-732.96 -0.97,-244.39 -1.56,-488.79 -2.6,-733.18 -0.68,-157.65 8.58,-1411.75 -10,-1445.49 -15.8,54.09 -5.3,313.97 -5.3,391.08l-1295.35 0.83c-122.42,0.43 -109.52,6.85 -207.52,-14.91 -41.03,-9.11 -160.9,-3.27 -210.06,-3.27l-5164.21 0.22c-83.68,-14.57 -21.57,-130.94 -60.33,-277.92 -25.96,-98.4 -89.77,-148.13 -160.41,-211.34 -50.4,-45.11 -83.16,-69.08 -148.45,-88.37l-49.74 -18.57c-42.15,-16.46 -184.88,-13.22 -242.13,9.89 -32.26,13.02 -79.21,15.51 -108.57,28.97 -28.43,13.04 -15.14,14.7 -33.35,32.2 -24.81,23.84 -5.53,-7.47 -69.49,50.82l-74.01 78.35c-9.03,15.69 -2.76,9.42 -9.87,24.39 -9.2,19.37 1.64,2.73 -13.59,21.09 -41.4,49.92 -15.33,36.69 -31.81,104.16 -9.67,39.59 -18.84,69.86 -20.75,115.51 -1.96,46.83 6.83,93.93 -11.41,128.15 -32.03,15.9 -435.27,10.99 -496.89,5.22l-23.23 -40.27z"/>
   <path class="fil1 str0" d="M4792.7 787.31c9.51,-15.06 20.16,-58.95 105.18,-74.34l2.85 207.85c-17.59,2.24 -28.4,3.47 -41.99,6.51 -24.32,5.46 15.28,16.66 -20.94,3.38 -5.99,64.13 -17.09,37.2 -21.78,80.45 -11.92,-27.55 -13.15,-32.85 -57.32,-31.65 -30.21,0.81 -37.64,7.05 -66,20.21 -122.89,57.04 -85.53,26.01 -113.06,71.34 -160.9,4.85 -50.56,30.11 -230.08,19.65 -0.75,-1.12 -2,-2.87 -2.29,-3.35l-14.12 -58.4c-2.14,-18.69 3.55,-91.47 20.79,-113.14 16.23,-20.4 6.45,-8.39 28.48,-23.54 30.74,-21.11 133.69,-49.18 154.49,-50.91 175.37,-14.68 147.45,-54.51 255.78,-54.07zm-1590.47 1014.42c-132.43,-11.91 -435.49,118.23 -465.67,194.6l-54.21 136.57c-19.24,36.67 -25.65,23.81 -27.48,99.33l4.72 948.68c2.08,1.11 5.42,-0.16 6.65,2.5 1.26,2.7 5.05,1.9 6.83,2.26 11.4,2.26 8.91,2.57 22.91,3.49 13.49,0.87 36.68,-0.66 51.44,-0.78l715.89 0.71c400.84,2.93 821.12,-5.77 1218.6,-0.1 64.94,0.93 142.39,-4.81 204.12,-0.58 253.25,17.36 541.7,14.15 801.45,17.41 30.79,0.4 75.34,-3.87 100.75,-2.02 50.38,3.64 44.83,20.74 77.36,26.6 6.5,-170.87 2.7,-356.61 2.7,-528.89 0,-174.76 7.16,-368.74 -2.79,-540.36 -0.52,-122.79 -131.38,-300.36 -296.41,-354.03 -92.14,-29.97 -189.63,-23.18 -299.19,-24.19 -76.88,-0.7 -267.35,-13.1 -328.91,0.96 -60.59,-14.98 -33.44,-40.91 -31.53,-105.06 5.15,-174.26 8.5,-932.23 -8.41,-995.7 -88.82,13.63 -41.04,37.06 -100.54,49.49 -30.09,6.28 -39.8,-0.28 -64.52,12.23 -31.14,15.76 -2.47,11.64 -44.66,23.28 -23.81,6.56 -40.78,4.68 -67,10.77 -31.95,7.43 -19.89,11.73 -52.32,22.73 -65.74,22.28 -51.75,-11.82 -103.17,40.75 -37.71,1.34 -89.17,-0.38 -116.63,12.55 -131.03,61.71 -33.58,20.38 -145.77,40.79 -24.8,4.52 -22.03,8.91 -42.71,16.21l-223.57 23.62c-43.68,3.16 -70.4,13.43 -110.57,13.8 -74.92,0.7 -40.14,-25.68 -101.93,4.46 -34.61,16.88 -65.32,7.84 -109.74,9.79l-1.48 646.74c-0.94,142.27 32.28,75.51 14.45,140.21 -15.42,55.96 -56.76,48.98 -116.37,48.42 -59.3,-0.57 -277.05,9.5 -312.31,2.79z"/>
   <path class="fil1 str0" d="M2616.08 216.93c43.67,-40.56 18.29,-47.56 98.58,-56.66 47.25,-5.35 109.78,-10.03 134.92,18.27 23.07,26 29.37,83.92 15.58,123.87 -13.33,38.66 -43.29,60.3 -78.42,77.94 -66.16,33.25 -160.14,95.68 -232.07,33.32 -33.42,-28.97 -25.1,-73.26 -22.09,-127.11l83.5 -69.64zm952.34 1560.19c45.02,-48.43 29.63,-116.44 29.65,-192.44 0.04,-114.65 15.08,-578.99 -24.21,-621.87 -11.4,-7.1 9.11,-0.9 -18.57,-6.92 -9.79,-2.12 -13.21,-2.09 -23.19,-2.62 -90.69,-4.88 -225.29,4.13 -341.83,-2.83 -145.33,-8.67 -76.86,-25.82 -160.99,-29.12 -129.7,-5.07 -368.39,-48.12 -469.22,-121.86 -94.37,-69.01 -50.86,-47.36 -95.63,-99.8 -37.98,-44.47 -52.43,-58.69 -46.28,-135.7 16.91,4.76 83.23,88.07 132.99,95.13 58.82,8.34 36.47,-17.36 101.5,14.91 25.29,12.55 9.46,8.58 52.23,9.78 63.74,1.78 28.89,5.05 69.53,12.82l81.64 4.66c27.92,3.36 60.64,10.61 89.32,20.53 68.42,23.68 590.07,8.31 662.64,1.71 75.37,-6.84 128.41,-13.92 213.9,-16.51 73.84,-2.24 16.6,-28.11 186.79,-34.3l0 -13.15c121.45,-5.69 73.54,-10.73 120.55,-17.38 105.26,-14.88 119.11,-15 216.07,-48.85 72.99,-25.47 115.26,-5.2 208.3,-57.08 32.17,-17.95 8.99,-25.57 94.4,-31.06 79.51,-5.1 52,-20.71 95.97,-34 72.49,-21.91 31.63,7.45 74.26,-50.34 90.63,-5.43 156.76,-58.52 302.1,-92.83 57.12,-13.49 54.62,-2.89 103.16,-24.89 18.93,-8.56 5.59,0.29 23.39,-11.41 40.41,-26.52 4.01,-19.5 64.17,-27.3 75.95,-9.82 73,1.51 108.21,-22.15 47.37,-31.83 42.14,-13.07 106.76,-19.46 53.47,-5.3 18.26,-7.04 53.18,-14.6 14.87,-3.23 40.97,-3.51 56.89,-4.02 186.97,-5.89 319.09,-6.47 499.55,19.78l171.89 24.77c42.09,9.15 -3.63,5.96 45.37,14.56l225.91 29.19c-1.42,0.4 -14.94,3.91 -17.71,5.58 -22.05,13.27 -8.43,-7.12 -4.42,7.48 59.81,2.28 58.59,-5.16 97.04,22.81 41.3,30.03 38.88,16.26 89.33,30.37 29.85,8.34 52.52,23.99 88.23,31.69 32.42,6.99 75.77,9.77 102.04,18.17 53,16.94 113.29,65.88 189.44,38.31 35.28,-12.76 41.4,-25 84.92,-33.62 63.41,-12.57 32.1,0.94 64.81,-43.1 79.28,2.34 144.38,92.86 199.67,114.73 -5.35,30.28 -19.92,51.54 -42.62,71.48 -242.95,213.64 -124.32,178.36 -265.83,129.49 -16.42,-5.67 -33.87,-7.76 -49.34,-13.27 -23.48,-8.37 -10.84,-6.54 -36.64,-20.28 -106.94,-56.93 -241.85,-96.25 -359.19,-127.14 -23.47,-6.19 -65.09,-25.48 -85.74,-29.16 -36.92,-6.59 -76.07,-3.01 -110.06,-12.84 -42.89,-12.41 -36.65,-22.61 -97.74,-26.71 -41.86,-2.81 -73.49,-4.38 -115.64,-9.56 -38.73,-4.76 -65.99,-12.14 -94.64,-21.7 -40.05,-13.36 -52.97,-13.99 -96.88,-19.73 -57.73,-7.56 -157.67,2.47 -225.92,3.67 -99.51,1.76 -159.69,-4.13 -202.37,41.11 159.92,-8.71 282.81,-25.2 448.35,-7.24 149.4,16.2 270.34,36.12 409.64,66.59 131.11,28.68 246.8,68.96 368.43,109.1 93.93,31.02 289.93,123.75 339.51,135.98 84.76,-64.7 179.61,-181.3 260.92,-263.05 -135.72,-133.79 -442.1,-273.94 -664.53,-343.32 -374.75,-116.9 -739.66,-143.88 -1139.15,-137.47 -82.09,1.32 -155.98,12.8 -238.54,14.82 -144.9,3.55 -311.82,38.39 -452.54,59.75 -713.62,108.23 -1144.94,146 -1855.36,-1 -133.05,-27.53 -333.6,-104.9 -491.5,-57.61 -14.13,4.23 -15.15,5.64 -24.69,10 -92.13,41.98 -179.66,98.58 -233.45,185.62 -46.35,74.98 -36.21,109.18 -65.27,191.22 -29.37,82.9 32.38,231.71 77.88,295.18 57.35,79.96 38.9,74.73 131.3,126.4 23.81,13.31 47.32,33.47 78.57,46.75 246.93,104.95 659.76,92.07 922.11,85.8 5.71,152.88 17.52,680.16 7.14,809.32z"/>
   <path class="fil1 str0" d="M3568.42 1777.12c-63.72,-3.69 -323.41,-10.07 -366.18,24.61 35.26,6.71 253.01,-3.36 312.31,-2.79 59.62,0.56 100.95,7.54 116.37,-48.42 17.83,-64.7 -15.39,2.06 -14.45,-140.21l1.48 -646.74c44.43,-1.95 75.13,7.09 109.74,-9.79 61.8,-30.14 27.01,-3.76 101.93,-4.46 40.18,-0.37 66.9,-10.64 110.57,-13.8l223.57 -23.62c20.68,-7.3 17.91,-11.69 42.71,-16.21 112.19,-20.41 14.74,20.92 145.77,-40.79 27.46,-12.93 78.92,-11.21 116.63,-12.55 51.43,-52.57 37.44,-18.47 103.17,-40.75 32.43,-11 20.37,-15.3 52.32,-22.73 26.22,-6.09 43.19,-4.21 67,-10.77 42.19,-11.64 13.52,-7.52 44.66,-23.28 24.72,-12.51 34.43,-5.95 64.52,-12.23 59.51,-12.43 11.72,-35.86 100.54,-49.49 16.91,63.47 13.56,821.44 8.41,995.7 -1.91,64.16 -29.06,90.08 31.53,105.06 -18.81,-60.61 -10.56,-996.67 3.34,-1094.35 100.87,-93.14 554.21,-223.27 745.23,-239.24 42.68,-45.24 102.85,-39.35 202.37,-41.11 68.26,-1.2 168.2,-11.23 225.92,-3.67 43.92,5.74 56.84,6.37 96.88,19.73 28.66,9.56 55.92,16.94 94.64,21.7 42.15,5.18 73.78,6.75 115.64,9.56 61.1,4.1 54.86,14.3 97.74,26.71 33.99,9.83 73.14,6.25 110.06,12.84 20.66,3.68 62.28,22.97 85.74,29.16 117.34,30.89 252.25,70.22 359.19,127.14 25.8,13.74 13.16,11.91 36.64,20.28 15.47,5.51 32.92,7.6 49.34,13.27 141.51,48.87 22.88,84.15 265.83,-129.49 22.7,-19.95 37.27,-41.21 42.62,-71.48 -55.29,-21.87 -120.38,-112.39 -199.67,-114.73 -32.71,44.04 -1.4,30.53 -64.81,43.1 -43.53,8.62 -49.65,20.86 -84.92,33.62 -76.14,27.57 -136.44,-21.37 -189.44,-38.31 -26.27,-8.4 -69.63,-11.18 -102.04,-18.17 -35.72,-7.7 -58.39,-23.35 -88.23,-31.69 -50.46,-14.11 -48.04,-0.34 -89.33,-30.37 -38.46,-27.97 -37.24,-20.53 -97.04,-22.81 -4.01,-14.6 -17.63,5.79 4.42,-7.48 2.77,-1.67 16.29,-5.18 17.71,-5.58l-225.91 -29.19c-49,-8.6 -3.28,-5.41 -45.37,-14.56l-171.89 -24.77c-180.47,-26.25 -312.59,-25.67 -499.55,-19.78 -15.92,0.51 -42.02,0.79 -56.89,4.02 -34.92,7.56 0.29,9.3 -53.18,14.6 -64.63,6.39 -59.4,-12.37 -106.76,19.46 -35.21,23.66 -32.26,12.33 -108.21,22.15 -60.16,7.8 -23.76,0.78 -64.17,27.3 -17.8,11.7 -4.46,2.85 -23.39,11.41 -48.55,22 -46.05,11.4 -103.16,24.89 -145.34,34.32 -211.47,87.4 -302.1,92.83 -42.64,57.79 -1.77,28.43 -74.26,50.34 -43.98,13.29 -16.46,28.9 -95.97,34 -85.41,5.49 -62.24,13.11 -94.4,31.06 -93.03,51.88 -135.3,31.61 -208.3,57.08 -96.96,33.85 -110.81,33.97 -216.07,48.85 -47.01,6.65 0.9,11.69 -120.55,17.38l0 13.15c-170.19,6.19 -112.94,32.06 -186.79,34.3 -85.49,2.59 -138.53,9.67 -213.9,16.51 -72.57,6.6 -594.23,21.97 -662.64,-1.71 -28.69,-9.92 -61.41,-17.17 -89.32,-20.53l-81.64 -4.66c-40.64,-7.77 -5.79,-11.04 -69.53,-12.82 -42.77,-1.2 -26.94,2.77 -52.23,-9.78 -65.04,-32.27 -42.69,-6.57 -101.5,-14.91 -49.76,-7.06 -116.08,-90.37 -132.99,-95.13 -6.15,77.01 8.3,91.23 46.28,135.7 44.78,52.45 1.26,30.8 95.63,99.8 100.82,73.74 339.52,116.79 469.22,121.86 84.12,3.3 15.66,20.45 160.99,29.12 116.53,6.96 251.13,-2.05 341.83,2.83 9.98,0.53 13.4,0.5 23.19,2.62 27.68,6.02 7.17,-0.18 18.57,6.92 39.29,42.88 24.25,507.21 24.21,621.87 -0.02,75.99 15.37,144.01 -29.65,192.44z"/>
   <path class="fil0" d="M796.75 6095.21c-19.66,40.05 -3.22,24.07 -42.98,59.5 -49.67,44.27 -66.69,81.85 -107.8,125.46l-22.19 34.95c-15.6,34.37 -22.42,26.88 -25.78,60.05 -1.33,13.11 0.3,37.69 -0.09,52.23 -1.72,62.29 -17.62,35.24 -17.02,178.76l-0.58 434.87c0.74,85.76 -4.66,59.19 27.04,112.1l844.59 1.59c65.53,-11.23 47.39,-63.83 47.12,-224.59l-0.08 -255.76c0,-23.1 7.89,-40.55 8.38,-76.58 0.79,-57.84 -4.57,-53.8 -11.43,-76.16 -44.23,-143.98 41.1,-79.59 -68.23,-274.18 -11.81,-21.02 -13.31,-43.32 -24.74,-61.02 -22.05,-34.14 -27.16,-16.26 -62.19,-31.93 -38.87,-17.38 -20.21,-32.37 -108.59,-62.72 -25.63,-8.8 -37.76,-9.05 -63.59,-20.82 -23.81,-10.85 15.17,-3.84 -31.71,-11.02l-260.48 23.55c-20.72,10.38 -49.15,9.48 -79.66,11.74z"/>
   <path class="fil0" d="M1470.98 11907.38c-120.72,32.05 -810.31,-24.45 -862.32,18.99 -54.45,45.49 -41.59,100.35 -40.95,170.13 0.68,73.84 -2.36,148.36 -0.04,222.04 1.36,42.88 20.47,159.56 37.67,182.15l50.2 69.19c64.92,73.04 89.7,72 132.51,124.08 24.19,29.46 48.95,27.99 121.16,45.45 27.23,6.58 71.45,13.86 94.13,16.94 35.55,4.84 72.4,2.7 108.39,1.78 65.68,-1.67 45.99,5.35 82.46,-24.27l72.54 -39.61c62.52,-28.67 32.62,-22.83 65,-45.06 54.58,-37.46 23.1,17.26 87.62,-64.95 26.11,-33.26 31.82,-14.68 53.05,-56.7 55.51,-109.81 56.95,-540.7 44.3,-567.45 -12.34,-26.12 -39.82,-4.58 -45.73,-52.72z"/>
   <path class="fil1 str0" d="M4792.7 787.31c-108.33,-0.44 -80.41,39.39 -255.78,54.07 -20.8,1.73 -123.75,29.8 -154.49,50.91 -22.03,15.15 -12.25,3.14 -28.48,23.54 -17.24,21.67 -22.93,94.45 -20.79,113.14l14.12 58.4c0.29,0.48 1.54,2.23 2.29,3.35 179.53,10.46 69.19,-14.8 230.08,-19.65 27.53,-45.34 -9.83,-14.31 113.06,-71.34 28.36,-13.16 35.79,-19.4 66,-20.21 44.17,-1.2 45.4,4.1 57.32,31.65 4.69,-43.26 15.79,-16.33 21.78,-80.45 36.22,13.28 -3.38,2.08 20.94,-3.38 13.59,-3.04 24.4,-4.27 41.99,-6.51l-2.85 -207.85c-85.02,15.4 -95.67,59.29 -105.18,74.34z"/>
   <path class="fil1 str0" d="M2532.57 286.57c-3.01,53.85 -11.33,98.14 22.09,127.11 71.93,62.37 165.92,-0.07 232.07,-33.32 35.14,-17.65 65.1,-39.29 78.42,-77.94 13.79,-39.95 7.49,-97.87 -15.58,-123.87 -25.14,-28.3 -87.67,-23.62 -134.92,-18.27 -80.29,9.1 -54.92,16.1 -98.58,56.66l-83.5 69.64z"/>
  </g>
 </g>
</svg>
