<svg xmlns="http://www.w3.org/2000/svg" xmlns:xlink="http://www.w3.org/1999/xlink" width="241" height="107" viewBox="0 0 241 107">
  <defs>
    <style>
      .cls-1 {
        clip-path: url(#clip-kmall_180px_2);
      }

      .cls-2 {
        fill: #fb0028;
      }

      .cls-3 {
        fill: #FFFFFF;
      }
    </style>
    <clipPath id="clip-kmall_180px_2">
      <rect width="241" height="107"/>
    </clipPath>
  </defs>
  <g id="kmall_180px_2" data-name="kmall_180px – 2" class="cls-1">
    <g id="Group_1871" data-name="Group 1871" transform="translate(-9058 -5335.742)">
      <g id="Group_1856" data-name="Group 1856" transform="translate(9074 5344.742)">
        <g id="Group_1849" data-name="Group 1849" transform="translate(10.354 63.904)">
          <path id="Wheel_2_4_" class="cls-2" d="M81.83,432.09a13.048,13.048,0,1,1-13.049,13.048A13.049,13.049,0,0,1,81.83,432.09Z" transform="translate(-68.781 -432.09)"/>
          <path id="Wheel_1_4_" class="cls-2" d="M316.027,432.09a13.061,13.061,0,1,1-13.045,13.048A13.05,13.05,0,0,1,316.027,432.09Z" transform="translate(-266.873 -432.09)"/>
        </g>
        <path id="Cart_4_" class="cls-2" d="M104.226,85.609H88.057c-2.617-8.17-12.238-13.487-21.911-13.36-9.228.122-18.293,5.979-20.418,13.36H28.973A3.671,3.671,0,0,0,25.2,89.179v59.8a3.668,3.668,0,0,0,3.772,3.569h75.253A3.669,3.669,0,0,0,108,148.983v-59.8A3.673,3.673,0,0,0,104.226,85.609Zm-18.946,0H48.542c2.206-5.525,9.783-11.1,17.6-11.165C74.2,74.374,82.411,78.809,85.28,85.609Z" transform="translate(-25.201 -72.247)"/>
        <g id="XMLID_1_" transform="translate(19.234 26.572)">
          <path id="XMLID_2_" class="cls-3" d="M174.666,195.6v-7.086l9.464,12.858h18.693l-2.525-4.527-15.955-2.31,13.895-.869-2.669-3.924-14.443-1.908,12.346-1.194-2.591-3.733-16.84-1.444,15.511-1.617c.877-1.279,2.99-4.281,2.99-4.281l-11.416-2.858s13.086.506,13.448,0c1.587-2.222,2.821-3.928,2.821-3.928l-13.051-2.208,15.955-.77,2.527-4.6h-19.3l-8.857,12.829V161.2h-16.69s.075,13.21,0,27.65L157.9,201.37h16.766Z" transform="translate(-157.9 -161.197)"/>
        </g>
      </g>
      <g id="mall_2x" data-name="mall@2x" transform="translate(9163.621 5371.359)">
        <path id="Path_3087" data-name="Path 3087" class="cls-2" d="M1224-745.948V-725.9h6.752l-.014-20.039-.021-20.032-3.356-.02L1224-766Z" transform="translate(-1144.677 766)"/>
        <path id="Path_3088" data-name="Path 3088" class="cls-2" d="M1404-745.948V-725.9h6.684V-766H1404Z" transform="translate(-1312.4 766)"/>
        <path id="Path_3089" data-name="Path 3089" class="cls-2" d="M73.141-614.76a41.368,41.368,0,0,0-9.2,1.835A18.184,18.184,0,0,0,61.6-612l-.6.28V-585h6.752l.014-11.506.02-11.506.573-.191a13.8,13.8,0,0,1,8.287-.4,4.784,4.784,0,0,1,2.585,2.189,7.331,7.331,0,0,1,.662,2.442c.041.45.068,4.215.068,9.849V-585H86.72l-.027-10.524c-.014-9.651-.027-10.572-.136-11.2-.068-.375-.13-.744-.136-.818-.014-.109.116-.2.621-.457a10.285,10.285,0,0,1,5.757-1.016,5.977,5.977,0,0,1,3.663,1.412,4.113,4.113,0,0,1,1.214,1.876c.437,1.275.43,1.037.43,11.363V-585h6.752v-10.285c-.007-8.376-.02-10.422-.1-11.063-.559-4.611-2.892-7.148-7.421-8.076a17.392,17.392,0,0,0-4.208-.348,19.53,19.53,0,0,0-2.831.123,24.634,24.634,0,0,0-6.35,1.773l-.559.239-.327-.239a9.981,9.981,0,0,0-1.153-.634,13.358,13.358,0,0,0-4.979-1.221C76.182-614.8,73.9-614.815,73.141-614.76Z" transform="translate(-61 625.107)"/>
        <path id="Path_3090" data-name="Path 3090" class="cls-2" d="M776.838-614.48a24.512,24.512,0,0,0-7.96,1.93l-.771.368v3.137c0,1.719.014,3.131.027,3.131s.327-.2.689-.443c3.519-2.387,9.528-3.213,12.754-1.746a4.463,4.463,0,0,1,2.64,3.062,9.762,9.762,0,0,1,.17,2.38c.021,1.023.021,1.862,0,1.862s-.361-.164-.771-.368a16.825,16.825,0,0,0-4.836-1.446,27.017,27.017,0,0,0-5.354-.007c-3.56.559-5.866,2.067-7.121,4.658a12.083,12.083,0,0,0-.239,8.519,5.926,5.926,0,0,0,1.125,1.876c1.671,2.033,4.27,3.178,8.144,3.581a37.363,37.363,0,0,0,8.539-.375c3.765-.655,6.063-2.094,6.868-4.3.382-1.057.375-.771.4-8.833.02-7.789,0-8.594-.273-9.856a8.74,8.74,0,0,0-6.193-6.432,16.9,16.9,0,0,0-2.762-.634A33.528,33.528,0,0,0,776.838-614.48Zm3.356,16.717a19.344,19.344,0,0,1,3.465.737l.716.225v6l-.17.327c-.457.907-1.562,1.248-4.467,1.405a9.89,9.89,0,0,1-4.883-.634,4.1,4.1,0,0,1-2.565-2.571,6.345,6.345,0,0,1,.007-2.585,3.306,3.306,0,0,1,.928-1.5,5.607,5.607,0,0,1,3.24-1.357c.341-.041.689-.089.784-.1A20.232,20.232,0,0,1,780.194-597.763Z" transform="translate(-717.363 624.874)"/>
      </g>
    </g>
  </g>
</svg>
