<svg xmlns="http://www.w3.org/2000/svg" width="620.586" height="668" viewBox="0 0 620.586 668">
  <defs>
    <style>
      .cls-1 {
      fill: #f5aa1b;
      }

      .cls-2 {
      fill: #f5aa1b;
      }

      .cls-3 {
      fill: #fff;
      }
    </style>
  </defs>
  <g id="Group_1918" data-name="Group 1918" transform="translate(-28 0)">
    <g id="Group_1887" data-name="Group 1887" transform="translate(-51.539 -11)">
      <path id="Wheel_2_4_" class="cls-1" d="M164.428,432.09a95.64,95.64,0,1,1-95.647,95.643A95.65,95.65,0,0,1,164.428,432.09Z" transform="translate(92.99 55.63)"/>
      <path id="Wheel_1_4_" class="cls-1" d="M398.6,432.09a95.731,95.731,0,1,1-95.621,95.643A95.655,95.655,0,0,1,398.6,432.09Z" transform="translate(123.46 55.63)"/>
    </g>
    <path id="Cart_4_" class="cls-2" d="M585.862,175.1c-22.525-.856-85.176-1.452-85.176-1.452-19.857-62-92.871-102.354-166.277-101.385-70.028.924-138.821,45.372-154.953,101.385H101.973c-9.723.29-34.361,8.045-51.325,24.651-13.205,12.926-18.909,34.107-18.909,40.776l.076,374.248c-.019,10.1,2.511,25.775,20.248,41.757s44.5,22.171,50.7,22.171l481.461.683c10.845,0,29.717-4.841,47.234-22.04s20.513-42.06,20.513-46.824l.353-366.407c0-6.413-2.7-25.855-14.962-39.509C621.459,185.447,608.387,175.958,585.862,175.1ZM479.61,173.649H200.81c16.743-41.931,74.245-84.214,133.6-84.728,61.153-.533,123.433,33.124,145.2,84.728Z" transform="translate(-3.739 -72.247)"/>
    <g id="XMLID_1_" transform="translate(173.461 203.418)">
      <path id="XMLID_2_" class="cls-3" d="M280.789,413.351V361.408l69.368,94.249H487.171l-35.594-57.066L345.711,385.316l87.511-15.711-32.331-45.968-120.1-15.955,113.885-17.261C401.1,281.045,411.81,266.5,411.81,266.5L426.7,245.554l-80.992-22.545,101.671-6.249,39.8-55.563H345.711l-64.922,94.036V161.2H158.453s.553,96.825,0,202.672l-.553,91.789H280.789Z" transform="translate(-157.9 -161.197)"/>
    </g>
  </g>
</svg>