<?xml version="1.0" encoding="UTF-8"?>
<!DOCTYPE svg PUBLIC "-//W3C//DTD SVG 1.1//EN" "http://www.w3.org/Graphics/SVG/1.1/DTD/svg11.dtd">
<!-- Creator: CorelDRAW 2018 (64-Bit Evaluation Version) -->
<svg xmlns="http://www.w3.org/2000/svg" xml:space="preserve" width="23.8124mm" height="23.8126mm" version="1.1" style="shape-rendering:geometricPrecision; text-rendering:geometricPrecision; image-rendering:optimizeQuality; fill-rule:evenodd; clip-rule:evenodd"
viewBox="0 0 185.61 185.61"
 xmlns:xlink="http://www.w3.org/1999/xlink">
 <defs>
  <style type="text/css">
   <![CDATA[
    .fil0 {fill:#e2f0cd}
   ]]>
  </style>
 </defs>
 <g id="Layer_x0020_1">
  <metadata id="CorelCorpID_0Corel-Layer"/>
  <g id="_2131649627264">
   <path class="fil0" d="M84.77 7.36c-0.27,0.6 -3.08,2.86 -3.71,3.44 -0.53,0.48 -1.22,1.06 -1.86,1.67 -0.45,0.42 -1.36,1.37 -2.01,1.63 -2.58,2.21 -5.01,4.43 -7.42,6.57 -4.38,3.91 -9.8,8.5 -13.95,12.34 -0.35,0.32 -0.58,0.53 -0.93,0.83l-7.34 6.49c-0.25,0.53 -0.47,0.65 -0.96,1.06 -0.39,0.33 -0.58,0.49 -0.94,0.82 -0.58,0.54 -1.35,1.44 -2.15,1.68 -0.25,0.43 -7.91,7.07 -8.99,8.05 -0.88,0.8 -2.09,1.88 -3.04,2.69l-6.08 5.38c-1.9,1.73 -4.02,3.56 -5.92,5.26 -0.14,0.54 -0.34,0.47 -1.13,1.19 -0.43,0.39 -0.78,0.68 -1.17,1.03 -0.57,0.51 -1.57,1.63 -2.49,2.09 -1.38,1.05 -2.68,2.52 -4.02,3.47 -0.21,0.49 -0.21,0.42 -0.65,0.79 -0.43,0.36 -0.26,0.38 -0.89,0.58 -0.84,0.93 -2.51,2.29 -3.71,3.35 -2.83,2.5 -6.63,4.74 -5.05,8.63 0.86,2.13 3,1.71 5.73,1.71l84.19 0c2.7,0 5.34,0.37 6.56,-0.82 1.46,-1.42 1.43,-3.29 1.43,-5.49l0 -73.9c0,-1.62 0.26,-5.21 -0.29,-6.49 -0.68,-1.58 -3.54,-1.68 -5.6,-0.61 -0.72,0.37 -6.79,5.57 -7.63,6.55z"/>
   <path class="fil0" d="M7.6 111.79c0.21,0.45 2.33,2.16 2.72,2.5l5.66 4.92c3.58,3.11 7.71,6.89 11.23,9.79 2.64,2.18 5.74,5.21 8.39,7.33 1.05,0.84 1.84,1.71 2.82,2.48 2.33,1.84 6.19,5.37 8.3,7.27l4.21 3.71c2.25,1.74 4.75,4.17 7.02,6.07 1.83,1.53 3.81,3.38 5.57,4.87 2.27,1.93 7.91,7.07 9.87,8.52l6.97 6.1c2.68,2.25 9.24,8.27 11.16,9.7 1.31,0.97 3.1,0.5 4.32,-0.14 0.87,-0.46 2.44,-1.67 2.27,-2.73 0.61,-0.72 0.47,-1.3 0.47,-2.25l0 -74.31c0,-1.02 -0.02,-1.5 -0.2,-2.42 -0.16,-0.83 -0.6,-1.42 -0.63,-1.85 -0.33,-0.21 -0.16,-0.1 -0.43,-0.37 -1.41,-1.37 -1.45,-1.03 -4.65,-1.03l-88.89 -0c-2.24,0.01 -3.36,0.68 -3.4,2.93 -0.05,2.37 0.24,1.74 0.43,2.83 0.31,0.17 0.38,0.46 0.7,0.82 0.74,0.86 4.07,3.47 5.13,4.57 0.26,0.27 0.09,0.21 0.41,0.45 0.36,0.26 -0.11,0.09 0.57,0.25z"/>
   <path class="fil0" d="M122.27 3.23c-0.52,-0.14 -0.75,-0.21 -1.09,-0.66 -2.17,-1.33 -4.66,-3.63 -7.29,-2.02 -1.42,0.87 -1.31,1.74 -1.31,3.65l-0 80.35c-0,1.88 0.25,2.53 1.81,3.22 2.17,0.96 3.64,-0.28 5.52,-1.45 0.52,-0.32 0.97,-0.66 1.53,-0.98l6.84 -4.18c1.9,-1.33 2.62,-1.6 3.48,-2.17 0.17,-0.12 0.05,-0.03 0.26,-0.18l8.13 -5.2c0.48,-0.24 1.12,-0.68 1.54,-0.99l7.75 -4.87c2.89,-1.99 7.83,-4.79 11.03,-6.94l7.85 -4.92c1.91,-1.21 9.49,-5.85 11,-6.97 1.96,-1.46 7.54,-3.17 5.37,-6.24 -0.48,-0.68 -5.6,-3.72 -6.98,-4.59l-4.08 -2.47c-0.02,-0.02 -0.06,-0.04 -0.08,-0.06 -4.37,-3.05 -9.18,-5.82 -13.78,-8.77 -2.08,-1.33 -4.03,-2.45 -6.32,-3.94 -1.89,-1.23 -4.14,-2.68 -6.17,-3.91l-5.17 -3.29c-0.1,-0.07 -0.33,-0.24 -0.33,-0.25l-5.57 -3.37c-3.27,-2.36 -10.03,-6.25 -13.92,-8.8z"/>
   <path class="fil0" d="M112.52 101.84c0.24,1.03 0.04,76.78 0.05,80.61 0,1.26 0.23,1.85 1.1,2.47 2.73,1.91 5.46,-0.56 7.68,-1.89 5.66,-3.41 12.63,-7.46 18.02,-10.97 1.15,-0.75 3.13,-1.7 4.02,-2.37l18.63 -11.39c1.56,-0.91 2.89,-1.64 4.46,-2.69 1.79,-1.19 5.79,-3.34 7.43,-4.46 2.27,-1.54 6.37,-3.7 8.45,-5.22 0.83,-0.61 3.88,-1.57 3.14,-3.72 -0.3,-0.87 -1,-1.28 -1.73,-1.75l-11.28 -6.86c-0.31,-0.18 -1.93,-1.07 -2.09,-1.38l-42.82 -25.94c-2.45,-1.4 -4.75,-2.89 -7.17,-4.3 -1.06,-0.62 -2.53,-1.84 -3.9,-1.93 -2.37,-0.16 -2.88,0.41 -3.81,1.64l-0.16 0.18z"/>
   <path class="fil0" d="M77.2 14.09c0.65,-0.26 1.56,-1.2 2.01,-1.63 0.64,-0.6 1.33,-1.19 1.86,-1.67 0.64,-0.57 3.45,-2.84 3.71,-3.44 -0.41,0.16 -0.26,0.07 -0.66,0.36 -0.27,0.19 -0.24,0.16 -0.47,0.4 -1.01,1.08 -6.22,5.35 -6.45,5.98z"/>
   <path class="fil0" d="M14.69 69.58c0.92,-0.46 1.93,-1.58 2.49,-2.09 0.38,-0.34 0.73,-0.63 1.17,-1.03 0.79,-0.72 0.99,-0.65 1.13,-1.19 -0.71,0.33 -1.94,1.51 -2.49,2.05 -0.66,0.66 -1.99,1.45 -2.3,2.27z"/>
   <path class="fil0" d="M43.5 43.89c0.8,-0.24 1.57,-1.15 2.15,-1.68 0.36,-0.33 0.55,-0.5 0.94,-0.82 0.49,-0.41 0.71,-0.53 0.96,-1.06 -0.77,0.25 -0.42,0.22 -1.16,0.89 -0.35,0.32 -0.61,0.52 -0.96,0.81 -0.4,0.34 -0.7,0.67 -0.99,0.92 -0.54,0.47 -0.65,0.42 -0.95,0.95z"/>
   <path class="fil0" d="M9.13 74.42c0.63,-0.2 0.47,-0.23 0.89,-0.58 0.44,-0.37 0.44,-0.29 0.65,-0.79 -0.43,0.2 -0.09,0 -0.38,0.19l-1.17 1.18z"/>
   <path class="fil0" d="M122.27 3.23c-0.33,-0.45 -0.59,-0.53 -1.09,-0.66 0.35,0.45 0.58,0.52 1.09,0.66z"/>
  </g>
 </g>
</svg>
