<svg xmlns="http://www.w3.org/2000/svg" xmlns:xlink="http://www.w3.org/1999/xlink" width="1027" height="1104" viewBox="0 0 1027 1104">
  <defs>
    <style>
      .cls-1 {
        clip-path: url(#clip-KKART_MAIN_New_Icon_v.4_);
      }

      .cls-2 {
        fill: none;
        stroke: #3C444C;
        stroke-linecap: square;
        stroke-linejoin: round;
        stroke-width: 40px;
      }

      .cls-3 {
        fill: #00aeef;
      }

      .cls-4 {
        fill: #00aeef;
      }

      .cls-5 {
        fill: #FFFFFF;
      }
    </style>
    <clipPath id="clip-KKART_MAIN_New_Icon_v.4_">
      <rect width="1027" height="1104"/>
    </clipPath>
  </defs>
  <g id="KKART_MAIN_New_Icon_v.4_" data-name="KKART_MAIN_New_Icon v.4 –" class="cls-1">
    <path id="Path_110" data-name="Path 110" class="cls-2" d="M-1033.87-1320.655" transform="translate(1170 1450)"/>
    <g id="Group_1776" data-name="Group 1776" transform="translate(-346 -2715.377)">
      <g id="Group_1774" data-name="Group 1774" transform="translate(496.882 3488.421)">
        <path id="Wheel_2_4_" class="cls-3" d="M221.121,432.09A152.329,152.329,0,1,1,68.781,584.423,152.344,152.344,0,0,1,221.121,432.09Z" transform="translate(-68.781 -432.09)"/>
        <path id="Wheel_1_4_" class="cls-3" d="M455.28,432.09a152.475,152.475,0,1,1-152.3,152.333A152.353,152.353,0,0,1,455.28,432.09Z" transform="translate(118.567 -432.09)"/>
      </g>
      <path id="Cart_4_" class="cls-4" d="M947.774,228.241H759.013C728.466,132.857,616.143,70.783,503.219,72.273c-107.728,1.422-213.559,69.8-238.374,155.968H69.237c-24.417,0-44.036,18.685-44.036,41.684V968.1c0,23.048,19.619,41.67,44.036,41.67H947.775c24.462,0,44.087-18.623,44.087-41.67V269.925C991.861,246.925,972.236,228.241,947.774,228.241Zm-221.183,0h-428.9C323.452,163.736,411.911,98.693,503.219,97.9,597.293,97.079,693.1,148.856,726.591,228.241Z" transform="translate(350.799 2670.13)"/>
      <g id="XMLID_1_" transform="translate(558.348 3013.971)">
        <path id="XMLID_2_" class="cls-5" d="M328.233,692.542c37.213-19.912,54.329-61.072,54.329-61.072V521.707L509.379,710.373H759.866l-33.841-61.89L512.23,616.907l186.19-11.884L662.657,551.38,469.114,525.3l165.444-16.321-34.717-51.029-225.656-19.74,207.845-22.1c11.757-17.488,40.062-58.516,40.062-58.516L469.114,318.524s175.358,6.924,180.2,0c21.265-30.378,37.8-53.7,37.8-53.7L512.23,234.644l202.208-10.065,42.6-63.382H501.251L382.562,336.576V161.2H158.911s1.011,180.581,0,377.988L157.9,710.373H274.344S291.02,712.454,328.233,692.542Z" transform="translate(-157.9 -161.197)"/>
      </g>
    </g>
  </g>
</svg>
