<svg xmlns="http://www.w3.org/2000/svg" xmlns:xlink="http://www.w3.org/1999/xlink" width="118" height="45" viewBox="0 0 118 45">
  <defs>
    <style>
      .cls-1 {
        clip-path: url(#clip-KKART-43px_LOGO_5);
      }

      .cls-2, .cls-3 {
        fill: #89c76a;
      }

      .cls-2 {
        font-size: 35px;
        font-family: Rubik-Medium, Rubik;
        font-weight: 500;
        letter-spacing: -0.047em;
      }

      .cls-4 {
        fill: #f6ab1b;
      }

      .cls-5 {
        fill: #FFFFFF;
      }

      .cls-6 {
        fill: #FBD13E;
      }
    </style>
    <clipPath id="clip-KKART-43px_LOGO_5">
      <rect width="118" height="45"/>
    </clipPath>
  </defs>
  <g id="KKART-43px_LOGO_5" data-name="KKART-43px_LOGO – 5" class="cls-1">
    <g id="Group_85" data-name="Group 85" transform="translate(2)">
      <text id="k_t" data-name="k     t" class="cls-2" transform="translate(49 35)"><tspan x="0" y="0" xml:space="preserve">k     t</tspan></text>
      <g id="Group_66" data-name="Group 66" transform="translate(67.788 17.071)">
        <path id="Path_109" data-name="Path 109" class="cls-3" d="M793.816,285.413a.723.723,0,0,1-.381-.558l-.026-16.171a.813.813,0,0,1,.382-.6,1.318,1.318,0,0,1,.815-.16h2.142a1.186,1.186,0,0,1,.765.16.665.665,0,0,1,.284.6l.061,1.432c1.15-1.595,2.829-2.389,6.311-2.187a.813.813,0,0,1,.691.738l0,2.035a.813.813,0,0,1-.227.607.87.87,0,0,1-.484.242,32.452,32.452,0,0,0-4.732.145c-.621.247-1.36,1.034-1.411,3.315v9.839a.653.653,0,0,1-.342.564,1.294,1.294,0,0,1-.776.128h-2.261A1.375,1.375,0,0,1,793.816,285.413Z" transform="translate(-775.5 -267.898)"/>
        <path id="Path_106" data-name="Path 106" class="cls-3" d="M637.931,282.077a5.725,5.725,0,0,1-2.272-1.743,4.279,4.279,0,0,1-.881-2.695,4.551,4.551,0,0,1,1.523-3.413,11.264,11.264,0,0,1,5.3-2.07l4.61-.669v-1.011c0-2.253-2.144-2.664-3.736-2.489a3.879,3.879,0,0,0-1.552.644,1.588,1.588,0,0,1-.654.158h-2.916c-.228,0-1,.068-1.169-.075s0-.533.549-1.2a6.167,6.167,0,0,1,2.42-1.828,9.791,9.791,0,0,1,3.7-.778,8.668,8.668,0,0,1,6.072,1.711,6.281,6.281,0,0,1,1.836,4.375l0,10.642a.908.908,0,0,1-.215.505.77.77,0,0,1-.454.211h-3.045a.8.8,0,0,1-.381-.18.784.784,0,0,1-.289-.5v-1.364c-.625.732-1.539,2.211-5.43,2.365A6.5,6.5,0,0,1,637.931,282.077Zm7.381-3.979a4.543,4.543,0,0,0,.968-2.9v-.938l-3.319.539a7.129,7.129,0,0,0-1.9.657c-.76.351-2.574,2.246-.791,3.661A4.6,4.6,0,0,0,645.312,278.1Z" transform="translate(-633.777 -264.897)"/>
      </g>
    </g>
    <g id="Group_80" data-name="Group 80" transform="translate(8 0.044)">
      <g id="Group_37" data-name="Group 37" transform="translate(0 0)">
        <g id="Group_36" data-name="Group 36">
          <g id="Group_34" data-name="Group 34" transform="translate(4.015 29.653)">
            <path id="Wheel_2_4_" class="cls-4" d="M75.105,432.09a6.323,6.323,0,1,1-6.324,6.323A6.324,6.324,0,0,1,75.105,432.09Z" transform="translate(-68.781 -432.09)"/>
            <path id="Wheel_1_4_" class="cls-4" d="M309.3,432.09a6.329,6.329,0,1,1-6.322,6.323A6.324,6.324,0,0,1,309.3,432.09Z" transform="translate(-281.403 -432.09)"/>
          </g>
          <path id="Cart_4_" class="cls-3" d="M65.53,76.762H57.113c-1.335-3.865-6-6.565-10.938-6.5-4.709.058-9.711,3.005-10.549,6.5h-8.5A1.817,1.817,0,0,0,25.2,78.451v28.293a1.815,1.815,0,0,0,1.925,1.689h38.4a1.816,1.816,0,0,0,1.927-1.689V78.451A1.817,1.817,0,0,0,65.53,76.762Zm-9.655,0H36.81c.992-2.688,5.374-5.643,9.365-5.675C50.287,71.054,54.411,73.545,55.875,76.762Z" transform="translate(-25.201 -70.257)"/>
        </g>
      </g>
      <g id="Group_81" data-name="Group 81" transform="translate(7.61 10.3)">
        <g id="Group_35" data-name="Group 35" transform="translate(0)">
          <path id="Path_43" data-name="Path 43" class="cls-5" d="M146.631,237.446a.839.839,0,0,1-.329-.659V214.294a.844.844,0,0,1,.329-.663,1.175,1.175,0,0,1,.782-.277h7.864a1.172,1.172,0,0,1,.781.277.844.844,0,0,1,.329.663v6.893l4.653-7.068a1.816,1.816,0,0,1,1.648-.766h9.1a.95.95,0,0,1,.637.227.687.687,0,0,1,.269.54.65.65,0,0,1-.124.383l-7.412,10.514,8.11,11.56a.554.554,0,0,1,.123.385.682.682,0,0,1-.265.537.961.961,0,0,1-.638.225H163.1a2.07,2.07,0,0,1-1.112-.259,1.74,1.74,0,0,1-.576-.542l-5.024-7.591v7.454a.838.838,0,0,1-.329.659,1.157,1.157,0,0,1-.781.279h-7.864A1.159,1.159,0,0,1,146.631,237.446Z" transform="translate(-146.302 -213.353)"/>
        </g>
        <g id="Group_38" data-name="Group 38" transform="translate(8.808 1.118)">
          <g id="Group_79" data-name="Group 79">
            <path id="Path_45" data-name="Path 45" class="cls-6" d="M175.16,298.786c-.107-2.55-20.868.159-20.868.159S175.267,301.3,175.16,298.786Z" transform="translate(-154.292 -288.055)"/>
            <path id="Path_48" data-name="Path 48" class="cls-6" d="M282.316,231.251c.009-2.5-12.509-.621-12.509-.621S282.308,233.713,282.316,231.251Z" transform="translate(-260.268 -229.952)"/>
            <path id="Path_97" data-name="Path 97" class="cls-6" d="M282.316,231.251c.009-2.5-12.509-.621-12.509-.621S282.308,233.713,282.316,231.251Z" transform="translate(-263.147 -225.195)"/>
            <path id="Path_98" data-name="Path 98" class="cls-6" d="M282.316,231.251c.009-2.5-12.509-.621-12.509-.621S282.308,233.713,282.316,231.251Z" transform="translate(-263.523 -215.557)"/>
            <path id="Path_96" data-name="Path 96" class="cls-6" d="M282.316,231.251c.009-2.5-12.509-.621-12.509-.621S282.308,233.713,282.316,231.251Z" transform="translate(-260.268 -210.801)"/>
          </g>
        </g>
      </g>
    </g>
  </g>
</svg>
