<svg id="Layer_1" data-name="Layer 1" xmlns="http://www.w3.org/2000/svg" viewBox="0 0 1080 1080"><defs><style>.cls-1{fill:#3d3d3b;}.cls-2{fill:#FBD13E;}.cls-3{fill:#3B9CFF;}</style></defs><path class="cls-1" d="M296,460.08q-11.54-5.61-27.72-5.62A77.1,77.1,0,0,0,242.93,459a100.78,100.78,0,0,0-15.23,6.76V399.29H198.88v196h28.54l.28-107a77.49,77.49,0,0,1,15.78-6.59,58.34,58.34,0,0,1,16.6-2.47q15.65,0,23.61,8.78t8,25.53v81.78h28.82V509.9q0-19.77-6.45-32A40,40,0,0,0,296,460.08Z"/><path class="cls-1" d="M457.14,462.55q-14.82-8.37-37.6-8.37-31.83,0-48.71,17.43T354,526.37q0,35.13,16.33,54.06t49.81,18.94q31.85,0,49-19.07t17.16-53.93q0-23.06-7.14-39.25A51,51,0,0,0,457.14,462.55ZM454,551.62a34.57,34.57,0,0,1-11.94,17.15Q433.82,575,419.82,575q-20.31,0-28.82-12.9t-8.51-35.68q0-15.09,3.57-25.8t11.8-16.47q8.24-5.76,22-5.77t22,5.36Q450,489,453.85,499.74t3.84,26.63A78.91,78.91,0,0,1,454,551.62Z"/><path class="cls-2" d="M613,461a80,80,0,0,0-33.48-6.86,149.15,149.15,0,0,0-21,1.51,87.24,87.24,0,0,0-19.35,4.94,37.62,37.62,0,0,0-14.14,9.2,20.16,20.16,0,0,0-5.35,14.27V650.42h28.54v-59a50.71,50.71,0,0,0,6,2.56,93.89,93.89,0,0,0,15.37,3.84,83,83,0,0,0,12.9,1.24q20.31,0,34.58-8.65A55.24,55.24,0,0,0,638.83,566q7.41-15.76,7.41-37.18,0-28.28-9-44.6T613,461Zm-.54,92.5a33.42,33.42,0,0,1-13.18,15.91q-8.79,5.5-21.95,5.5a54.3,54.3,0,0,1-14.55-2.06A70.46,70.46,0,0,1,548.26,567V490.41q0-5.49,8.37-8.37t22.1-2.88q15.36,0,23.6,6.45a33.06,33.06,0,0,1,11.39,17.7,92.54,92.54,0,0,1,3.16,25Q616.88,543.11,612.49,553.54Z"/><path class="cls-3" d="M772.77,461a80.1,80.1,0,0,0-33.49-6.86,149.15,149.15,0,0,0-21,1.51,87.24,87.24,0,0,0-19.35,4.94,37.62,37.62,0,0,0-14.14,9.2,20.16,20.16,0,0,0-5.35,14.27V650.42H708v-59a51.42,51.42,0,0,0,6,2.56,93.89,93.89,0,0,0,15.37,3.84,83,83,0,0,0,12.9,1.24q20.31,0,34.58-8.65A55.32,55.32,0,0,0,798.57,566Q806,550.26,806,528.84q0-28.28-9.06-44.6T772.77,461Zm-.55,92.5A33.42,33.42,0,0,1,759,569.45q-8.77,5.5-21.95,5.5a54.3,54.3,0,0,1-14.55-2.06A70.46,70.46,0,0,1,708,567V490.41q0-5.49,8.37-8.37t22.1-2.88q15.36,0,23.6,6.45a33.06,33.06,0,0,1,11.39,17.7,92.54,92.54,0,0,1,3.16,25Q776.61,543.11,772.22,553.54Z"/><rect class="cls-1" x="839.18" y="405.33" width="28.54" height="189.93"/><path class="cls-1" d="M989.72,572.75a87.29,87.29,0,0,1-17.43,1.65q-20.85,0-31.56-11.94Q931.34,552,930.19,533h96.72q.27-23.6-5.9-41.3t-19.9-27.59q-13.73-9.87-36-9.88-30.2,0-47.07,18.53t-16.88,54.48q0,23.32,8.1,39.52a55.2,55.2,0,0,0,23.05,24.43q15,8.24,35.27,8.23a129.09,129.09,0,0,0,27.17-2.61,118.23,118.23,0,0,0,21.68-6.72V563.42c-3.29,1.64-7.23,3.34-11.8,5.07A95,95,0,0,1,989.72,572.75Zm-44.05-90.44q7.68-4.53,18.67-4.53,17,0,25,9.75c4.4,5.38,7.14,13.42,8.27,24H930.93A63.14,63.14,0,0,1,934,497.68Q938,486.85,945.67,482.31Z"/><path class="cls-1" d="M153.7,492.43l-29.27-26.51,17.33-17.33,28.72-28.72.09-.08a70,70,0,0,0-98.07-.9l0,0-.87.86-.06.06,1,.87,33.11,30,17.89,16.21,29.34,26.57a57.8,57.8,0,0,1,4.62,81l.9.87h0A59.08,59.08,0,0,0,153.7,492.43Z"/><path class="cls-1" d="M112.55,533.38,76.88,500.77a57.27,57.27,0,0,1-4.41-80.06l-.92-.92A58.6,58.6,0,0,0,76,501.74l29.71,27.16L89.12,545.51l-.66.67L60.4,574.24l-.08.08c.28.28.57.53.85.81,27.05,26.21,69.15,27.1,96.26,1h0l.93-.9h0l-.9-.88-6.57-5.95Z"/></svg>
