<?xml version="1.0" encoding="UTF-8"?>
<!DOCTYPE svg PUBLIC "-//W3C//DTD SVG 1.1//EN" "http://www.w3.org/Graphics/SVG/1.1/DTD/svg11.dtd">
<!-- Creator: CorelDRAW 2018 (64-Bit Evaluation Version) -->
<svg xmlns="http://www.w3.org/2000/svg" xml:space="preserve" width="140.097mm" height="23.8126mm" version="1.1" style="shape-rendering:geometricPrecision; text-rendering:geometricPrecision; image-rendering:optimizeQuality; fill-rule:evenodd; clip-rule:evenodd"
viewBox="0 0 5144.33 874.39"
 xmlns:xlink="http://www.w3.org/1999/xlink">
 <defs>
  <style type="text/css">
   <![CDATA[
    .fil4 {fill:#00C2FF}
    .fil2 {fill:#3A9CFF}
    .fil0 {fill:#3D4852}
    .fil1 {fill:#5AEEBC}
    .fil9 {fill:#F3F6F9}
    .fil6 {fill:#F6858A}
    .fil5 {fill:#F78D92}
    .fil7 {fill:#F89DA1}
    .fil3 {fill:#FBD13D}
    .fil8 {fill:#FEE9A3}
    .fil10 {fill:#F3F6F9;fill-rule:nonzero}
   ]]>
  </style>
 </defs>
 <g id="Layer_x0020_1">
  <metadata id="CorelCorpID_0Corel-Layer"/>
  <g id="_2131529992560">
   <rect class="fil0" x="-0" y="-0" width="5144.33" height="874.39"/>
   <g>
    <path class="fil1" d="M400.22 34.65c-1.25,2.81 -14.5,13.49 -17.49,16.19 -2.49,2.24 -5.74,5.01 -8.74,7.86 -2.11,2 -6.39,6.46 -9.46,7.67 -12.13,10.41 -23.61,20.86 -34.97,30.97 -20.65,18.4 -46.16,40.05 -65.71,58.15 -1.64,1.52 -2.72,2.48 -4.4,3.92l-34.58 30.55c-1.19,2.51 -2.23,3.06 -4.53,5 -1.82,1.53 -2.73,2.31 -4.42,3.88 -2.72,2.52 -6.35,6.77 -10.12,7.92 -1.18,2.02 -37.27,33.3 -42.35,37.92 -4.15,3.78 -9.84,8.85 -14.31,12.67l-28.63 25.34c-8.95,8.17 -18.92,16.75 -27.9,24.77 -0.68,2.54 -1.6,2.22 -5.32,5.62 -2.03,1.86 -3.7,3.22 -5.49,4.84 -2.67,2.42 -7.41,7.67 -11.74,9.86 -6.5,4.96 -12.61,11.86 -18.92,16.36 -0.98,2.33 -1.01,1.99 -3.06,3.71 -2.01,1.68 -1.24,1.78 -4.21,2.75 -3.95,4.39 -11.83,10.8 -17.47,15.77 -13.35,11.78 -31.22,22.35 -23.8,40.64 4.06,10.02 14.13,8.07 27,8.07l396.63 0c12.74,0 25.16,1.76 30.92,-3.85 6.86,-6.69 6.76,-15.49 6.76,-25.85l0 -348.12c0,-7.64 1.23,-24.53 -1.38,-30.58 -3.22,-7.45 -16.67,-7.93 -26.38,-2.89 -3.39,1.76 -31.99,26.23 -35.93,30.86z"/>
    <path class="fil2" d="M36.66 526.62c0.97,2.13 10.96,10.15 12.8,11.78l26.65 23.19c16.85,14.65 36.31,32.45 52.88,46.14 12.45,10.29 27.05,24.53 39.53,34.51 4.95,3.95 8.67,8.07 13.26,11.7 10.96,8.67 29.16,25.3 39.11,34.24l19.84 17.48c10.6,8.21 22.37,19.65 33.07,28.62 8.61,7.21 17.96,15.92 26.22,22.92 10.7,9.08 37.27,33.3 46.48,40.14l32.82 28.75c12.64,10.6 43.55,38.96 52.58,45.69 6.16,4.58 14.6,2.37 20.36,-0.64 4.11,-2.14 11.49,-7.85 10.68,-12.85 2.87,-3.37 2.23,-6.14 2.21,-10.62l0 -350.06c0.01,-4.8 -0.11,-7.06 -0.96,-11.42 -0.77,-3.93 -2.81,-6.68 -2.97,-8.69 -1.54,-0.98 -0.73,-0.48 -2.02,-1.73 -6.64,-6.44 -6.84,-4.87 -21.91,-4.87l-418.75 -0.01c-10.56,0.03 -15.81,3.21 -16.02,13.78 -0.22,11.16 1.11,8.22 2.04,13.32 1.47,0.82 1.8,2.15 3.28,3.85 3.51,4.04 19.16,16.35 24.18,21.52 1.24,1.28 0.44,1 1.95,2.12 1.68,1.23 -0.53,0.44 2.7,1.17z"/>
    <path class="fil3" d="M576.86 15.22c-2.43,-0.64 -3.52,-0.98 -5.15,-3.11 -10.24,-6.25 -21.97,-17.09 -34.34,-9.52 -6.68,4.08 -6.18,8.17 -6.18,17.2l-0.01 378.53c-0.02,8.87 1.16,11.91 8.51,15.17 10.23,4.52 17.16,-1.33 26.01,-6.84 2.45,-1.52 4.57,-3.11 7.23,-4.62l32.23 -19.67c8.94,-6.27 12.35,-7.53 16.38,-10.24 0.82,-0.55 0.24,-0.15 1.24,-0.87l38.31 -24.5c2.25,-1.15 5.29,-3.22 7.28,-4.64l36.51 -22.96c13.61,-9.35 36.87,-22.55 51.96,-32.69l36.98 -23.18c9.01,-5.72 44.7,-27.54 51.8,-32.84 9.24,-6.88 35.53,-14.94 25.29,-29.38 -2.28,-3.22 -26.39,-17.52 -32.9,-21.64l-19.23 -11.61c-0.11,-0.07 -0.29,-0.19 -0.4,-0.27 -20.6,-14.36 -43.24,-27.4 -64.94,-41.33 -9.79,-6.28 -19,-11.56 -29.77,-18.57 -8.88,-5.78 -19.51,-12.61 -29.07,-18.41l-24.37 -15.51c-0.46,-0.34 -1.55,-1.15 -1.57,-1.17l-26.25 -15.86c-15.39,-11.14 -47.26,-29.42 -65.57,-41.46z"/>
    <path class="fil4" d="M530.95 479.75c1.15,4.85 0.21,361.72 0.22,379.74 0,5.92 1.06,8.73 5.19,11.61 12.86,8.99 25.71,-2.62 36.17,-8.93 26.65,-16.06 59.52,-35.16 84.89,-51.68 5.41,-3.52 14.75,-8.01 18.94,-11.18l87.76 -53.67c7.34,-4.27 13.6,-7.71 21.01,-12.66 8.42,-5.63 27.26,-15.74 35.02,-21.03 10.67,-7.28 29.99,-17.41 39.79,-24.61 3.89,-2.86 18.29,-7.37 14.78,-17.54 -1.41,-4.11 -4.73,-6.04 -8.16,-8.26l-53.14 -32.3c-1.47,-0.85 -9.07,-5.06 -9.86,-6.5l-201.73 -122.22c-11.52,-6.6 -22.38,-13.62 -33.8,-20.24 -5,-2.9 -11.9,-8.68 -18.37,-9.1 -11.17,-0.73 -13.56,1.94 -17.95,7.73l-0.74 0.85z"/>
    <path class="fil5" d="M364.52 66.37c3.07,-1.2 7.35,-5.67 9.46,-7.67 3,-2.85 6.26,-5.62 8.74,-7.86 2.99,-2.7 16.24,-13.38 17.49,-16.19 -1.95,0.76 -1.23,0.33 -3.12,1.68 -1.29,0.91 -1.15,0.74 -2.2,1.86 -4.78,5.09 -29.31,25.22 -30.38,28.18z"/>
    <path class="fil6" d="M70.06 327.78c4.33,-2.19 9.07,-7.44 11.74,-9.86 1.79,-1.62 3.46,-2.99 5.49,-4.84 3.72,-3.4 4.65,-3.08 5.32,-5.62 -3.36,1.55 -9.15,7.1 -11.72,9.65 -3.11,3.09 -9.38,6.82 -10.84,10.67z"/>
    <path class="fil7" d="M205.8 206.76c3.77,-1.15 7.4,-5.4 10.12,-7.92 1.69,-1.56 2.6,-2.35 4.42,-3.88 2.29,-1.94 3.33,-2.49 4.53,-5 -3.64,1.18 -1.97,1.04 -5.44,4.19 -1.64,1.49 -2.88,2.43 -4.52,3.83 -1.88,1.59 -3.3,3.17 -4.64,4.32 -2.56,2.21 -3.06,1.98 -4.46,4.46z"/>
    <path class="fil6" d="M43.87 350.6c2.97,-0.96 2.2,-1.07 4.21,-2.75 2.06,-1.72 2.08,-1.38 3.06,-3.71 -2.04,0.93 -0.43,0.01 -1.78,0.92l-5.49 5.54z"/>
    <path class="fil8" d="M576.86 15.22c-1.55,-2.14 -2.77,-2.48 -5.15,-3.11 1.63,2.13 2.72,2.47 5.15,3.11z"/>
   </g>
   <g>
    <path class="fil1" d="M3351.1 12.04c-0.19,0.44 -2.25,2.1 -2.72,2.52 -0.39,0.35 -0.89,0.78 -1.36,1.22 -0.33,0.31 -1,1.01 -1.47,1.19 -1.89,1.62 -3.67,3.24 -5.44,4.82 -3.21,2.86 -7.18,6.23 -10.22,9.04 -0.25,0.24 -0.42,0.39 -0.68,0.61l-5.38 4.75c-0.18,0.39 -0.35,0.48 -0.71,0.78 -0.28,0.24 -0.42,0.36 -0.69,0.6 -0.42,0.39 -0.99,1.05 -1.58,1.23 -0.18,0.31 -5.79,5.18 -6.58,5.9 -0.65,0.59 -1.53,1.38 -2.23,1.97l-4.45 3.94c-1.39,1.27 -2.94,2.61 -4.34,3.86 -0.11,0.39 -0.25,0.35 -0.83,0.87 -0.32,0.29 -0.58,0.5 -0.85,0.75 -0.42,0.37 -1.16,1.19 -1.83,1.53 -1.01,0.77 -1.96,1.84 -2.94,2.54 -0.15,0.36 -0.16,0.31 -0.48,0.58 -0.31,0.26 -0.19,0.28 -0.65,0.43 -0.62,0.68 -1.84,1.68 -2.72,2.45 -2.07,1.83 -4.85,3.48 -3.7,6.32 0.63,1.56 2.2,1.26 4.2,1.26l61.7 0c1.98,0 3.91,0.27 4.81,-0.6 1.06,-1.04 1.05,-2.41 1.05,-4.02l0 -54.15c0,-1.19 0.19,-3.82 -0.21,-4.76 -0.5,-1.16 -2.6,-1.23 -4.11,-0.45 -0.53,0.27 -4.98,4.08 -5.59,4.8z"/>
    <path class="fil2" d="M3294.55 88.57c0.15,0.33 1.71,1.58 1.99,1.83l4.15 3.61c2.62,2.28 5.65,5.05 8.23,7.18 1.94,1.6 4.21,3.82 6.15,5.37 0.77,0.61 1.35,1.26 2.06,1.82 1.7,1.35 4.53,3.93 6.08,5.32l3.09 2.72c1.65,1.28 3.48,3.06 5.14,4.45 1.34,1.12 2.79,2.47 4.08,3.57 1.67,1.41 5.8,5.18 7.23,6.24l5.11 4.47c1.96,1.65 6.77,6.06 8.18,7.11 0.96,0.71 2.27,0.37 3.17,-0.1 0.64,-0.33 1.79,-1.22 1.66,-2 0.45,-0.53 0.35,-0.95 0.35,-1.65l0 -54.46c0,-0.75 -0.02,-1.1 -0.15,-1.77 -0.12,-0.61 -0.44,-1.04 -0.46,-1.35 -0.24,-0.15 -0.11,-0.07 -0.31,-0.27 -1.04,-1 -1.06,-0.76 -3.41,-0.76l-65.13 0c-1.65,0 -2.46,0.5 -2.49,2.14 -0.03,1.73 0.17,1.28 0.32,2.07 0.23,0.13 0.28,0.33 0.51,0.6 0.55,0.63 2.98,2.54 3.76,3.35 0.19,0.2 0.07,0.15 0.3,0.33 0.26,0.19 -0.08,0.07 0.42,0.18z"/>
    <path class="fil3" d="M3378.58 9.02c-0.38,-0.1 -0.55,-0.15 -0.8,-0.48 -1.59,-0.97 -3.42,-2.66 -5.34,-1.48 -1.04,0.64 -0.96,1.27 -0.96,2.68l0 58.88c-0,1.38 0.18,1.85 1.32,2.36 1.59,0.71 2.67,-0.21 4.05,-1.06 0.38,-0.24 0.71,-0.48 1.13,-0.72l5.01 -3.06c1.39,-0.97 1.92,-1.17 2.55,-1.59 0.13,-0.09 0.04,-0.03 0.19,-0.14l5.96 -3.81c0.35,-0.18 0.82,-0.5 1.13,-0.72l5.68 -3.57c2.12,-1.45 5.73,-3.51 8.08,-5.09l5.75 -3.61c1.4,-0.89 6.95,-4.29 8.06,-5.11 1.44,-1.07 5.53,-2.32 3.93,-4.57 -0.35,-0.5 -4.11,-2.72 -5.12,-3.37l-2.99 -1.81c-0.02,-0.01 -0.04,-0.03 -0.06,-0.04 -3.2,-2.23 -6.73,-4.26 -10.1,-6.43 -1.52,-0.98 -2.96,-1.8 -4.63,-2.89 -1.38,-0.9 -3.03,-1.96 -4.52,-2.86l-3.79 -2.41c-0.07,-0.06 -0.24,-0.18 -0.24,-0.18l-4.08 -2.47c-2.39,-1.73 -7.35,-4.58 -10.2,-6.45z"/>
    <path class="fil4" d="M3371.44 81.28c0.18,0.75 0.03,56.27 0.03,59.07 0,0.92 0.17,1.36 0.81,1.81 2,1.4 4,-0.41 5.63,-1.39 4.15,-2.5 9.26,-5.47 13.2,-8.04 0.84,-0.55 2.29,-1.24 2.95,-1.74l13.65 -8.35c1.14,-0.66 2.12,-1.2 3.27,-1.97 1.31,-0.87 4.24,-2.45 5.45,-3.27 1.66,-1.13 4.66,-2.71 6.19,-3.83 0.61,-0.44 2.85,-1.15 2.3,-2.73 -0.22,-0.64 -0.73,-0.94 -1.27,-1.28l-8.27 -5.03c-0.23,-0.13 -1.41,-0.79 -1.53,-1.01l-31.38 -19.01c-1.79,-1.02 -3.48,-2.12 -5.26,-3.15 -0.78,-0.45 -1.85,-1.35 -2.86,-1.42 -1.74,-0.11 -2.11,0.3 -2.79,1.2l-0.11 0.13z"/>
    <path class="fil9" d="M3345.55 16.98c0.48,-0.19 1.15,-0.88 1.47,-1.19 0.47,-0.44 0.97,-0.87 1.36,-1.22 0.47,-0.42 2.53,-2.08 2.72,-2.52 -0.3,0.12 -0.19,0.05 -0.48,0.26 -0.2,0.14 -0.18,0.12 -0.34,0.29 -0.74,0.79 -4.56,3.92 -4.73,4.38z"/>
    <path class="fil9" d="M3299.75 57.64c0.67,-0.34 1.41,-1.16 1.83,-1.53 0.28,-0.25 0.54,-0.47 0.85,-0.75 0.58,-0.53 0.72,-0.48 0.83,-0.87 -0.53,0.24 -1.42,1.11 -1.82,1.5 -0.48,0.48 -1.46,1.06 -1.69,1.66z"/>
    <path class="fil9" d="M3320.86 38.82c0.59,-0.18 1.15,-0.84 1.58,-1.23 0.26,-0.24 0.4,-0.36 0.69,-0.6 0.36,-0.3 0.52,-0.39 0.71,-0.78 -0.57,0.18 -0.3,0.16 -0.84,0.65 -0.26,0.23 -0.45,0.38 -0.71,0.59 -0.29,0.25 -0.51,0.49 -0.72,0.67 -0.4,0.35 -0.47,0.31 -0.69,0.69z"/>
    <path class="fil9" d="M3295.67 61.19c0.46,-0.15 0.34,-0.17 0.65,-0.43 0.32,-0.27 0.32,-0.22 0.48,-0.58 -0.32,0.14 -0.07,0 -0.28,0.14l-0.85 0.86z"/>
    <path class="fil9" d="M3378.58 9.02c-0.24,-0.33 -0.43,-0.39 -0.8,-0.48 0.25,0.33 0.42,0.39 0.8,0.48z"/>
   </g>
   <path class="fil10" d="M1113.48 549.89c26.27,25.66 58.95,38.48 98.19,38.48 39.1,0 72.84,-12.83 101.24,-38.48 28.25,-25.65 42.45,-60.17 42.45,-103.69 0,-43.52 -13.74,-78.03 -41.23,-103.38 -27.49,-25.05 -60.93,-37.57 -100.33,-37.57 -39.4,0 -72.54,13.44 -99.41,40.31 -26.88,27.03 -40.31,61.54 -40.31,103.23 0,41.84 13.13,75.44 39.4,101.09zm91.47 244.63c101.39,0 152.24,-64.44 152.24,-193.17 0,-1.22 -0.3,-2.75 -0.91,-4.43l0 -5.81c-12.22,24.43 -32.37,43.67 -60.47,57.72 -28.1,14.05 -57.88,21.07 -89.64,21.07 -61.39,0 -113,-20.46 -154.69,-61.23 -41.69,-40.92 -62.61,-94.68 -62.61,-161.1 0,-66.58 21.38,-120.49 63.98,-161.56 42.61,-41.23 93.91,-62 153.47,-62.3 32.53,0 62.46,7.02 89.49,21.07 26.88,12.22 47.03,30.54 60.47,55.13 -1.8,-55.23 33.72,-66.15 83.38,-67.04l0 362.98c0,185.84 -78.18,278.69 -234.71,278.38 -40.93,0.3 -78.34,-9.77 -112.39,-30.08 -33.9,-20.46 -60.93,-49.17 -80.93,-85.98 41.68,-18.01 75.69,-18.01 99.86,1.1 0.67,0.53 1.31,1.1 1.97,1.65 6.04,4.94 12.61,9.5 19.72,13.6 23.04,13.3 46.88,20 71.77,20z"/>
   <path class="fil10" d="M3589.48 549.89c26.27,25.66 58.95,38.48 98.19,38.48 39.1,0 72.84,-12.83 101.24,-38.48 28.25,-25.65 42.45,-60.17 42.45,-103.69 0,-43.52 -13.74,-78.03 -41.23,-103.38 -27.49,-25.05 -60.93,-37.57 -100.33,-37.57 -39.4,0 -72.54,13.44 -99.41,40.31 -26.88,27.03 -40.31,61.54 -40.31,103.23 0,41.84 13.13,75.44 39.4,101.09zm91.47 244.63c101.39,0 152.24,-64.44 152.24,-193.17 0,-1.22 -0.3,-2.75 -0.91,-4.43l0 -5.81c-12.22,24.43 -32.37,43.67 -60.47,57.72 -28.1,14.05 -57.88,21.07 -89.64,21.07 -61.39,0 -113,-20.46 -154.69,-61.23 -41.69,-40.92 -62.61,-94.68 -62.61,-161.1 0,-66.58 21.38,-120.49 63.98,-161.56 42.61,-41.23 93.91,-62 153.47,-62.3 32.53,0 62.46,7.02 89.49,21.07 26.88,12.22 47.03,30.54 60.47,55.13 -1.8,-55.23 33.72,-66.15 83.38,-67.04l0 362.98c0,185.84 -78.18,278.69 -234.71,278.38 -40.93,0.3 -78.34,-9.77 -112.39,-30.08 -33.9,-20.46 -60.93,-49.17 -80.93,-85.98 41.68,-18.01 75.69,-18.01 99.86,1.1 0.67,0.53 1.31,1.1 1.97,1.65 6.04,4.94 12.61,9.5 19.72,13.6 23.04,13.3 46.88,20 71.77,20z"/>
   <path class="fil10" d="M1588.45 505.15l0 155.61c-44.51,1.69 -83.38,-3.17 -83.38,-65.63l0 -362.25c50.05,-0.91 82.58,11.81 83.38,60.76l0 35.75c20.92,-70.4 60.47,-105.67 118.96,-105.67 33.75,0 58.49,5.5 74.37,16.34 -5.09,38.23 -25.78,62.52 -73.48,62.7 -0.81,0 -1.63,0.03 -2.44,0.06 -34.81,1.15 -66.98,19.03 -87.02,54.67 -20.34,36.17 -30.39,85.36 -30.39,147.67z"/>
   <path class="fil10" d="M2131.52 549.89c27.49,-25.65 41.23,-60.17 41.23,-103.69 0,-43.52 -14.35,-77.88 -42.91,-102.93 -28.71,-25.04 -62.46,-37.72 -101.24,-38.02 -38.94,0 -71.47,12.98 -97.73,38.94 -26.27,25.65 -39.4,59.25 -39.4,101.09 0,41.69 13.44,76.05 40.31,102.77 26.88,26.88 60.01,40.31 99.41,40.31 39.4,0 72.84,-12.83 100.33,-38.48zm42.15 110.86l0 -65.66c-13.44,22.45 -33.75,40.47 -60.93,54.21 -27.18,13.74 -56.81,20.61 -89.18,20.61 -59.25,0 -110.71,-20.77 -154.23,-62.3 -42,-41.38 -63.07,-95.14 -63.07,-160.95 0,-65.97 20.77,-119.57 62.15,-160.65 41.54,-41.23 93.31,-62 155.3,-62.3 31,0 60.93,6.41 89.49,19.24 28.1,14.05 48.25,32.07 60.47,54.21 -3.08,-52.48 26.06,-62.2 83.38,-64.29l0 361.92c0.98,48.22 -37.88,67.66 -83.38,65.96z"/>
   <path class="fil10" d="M2452.16 344.5c-26.42,26.27 -39.71,61.23 -39.71,105.06 0,43.67 14.05,77.72 42,102.16 28.1,24.43 61.23,36.65 99.72,36.65 38.48,0 71.31,-12.83 98.34,-38.48 25.65,-25.5 38.48,-59.1 38.48,-100.78 0,-41.69 -13.44,-76.05 -40.31,-102.77 -27.03,-26.72 -60.32,-40.31 -99.57,-40.62 -39.4,-0.3 -72.38,12.68 -98.95,38.79zm-40.62 -111.63l0 67.34c14.05,-23.97 34.36,-42.45 61.23,-55.28 26.27,-14.2 55.59,-21.23 88.11,-21.23 59.71,0 110.25,20.77 151.48,62.46 41.38,41.23 62,94.98 62,161.1 0,66.12 -20.46,119.72 -61.54,160.95 -40.92,41.08 -91.62,61.69 -151.94,61.69 -32.53,0 -62.31,-6.41 -89.49,-19.24 -27.03,-12.83 -47.03,-30.84 -59.86,-53.75l0 217.97c1.93,41.86 -34.84,53.95 -83.38,53.84l0 -568.46c2.72,-55.6 36.73,-70.18 83.38,-67.41z"/>
   <path class="fil10" d="M2926.46 430.02l0 230.74c-51.51,1.69 -85.51,-17.74 -83.38,-75.75l0 -584.86c51.3,1.65 85.3,16.22 83.38,70.27l0 226.74c11.6,-23.82 31.46,-42.15 59.56,-54.67 27.94,-12.52 55.12,-18.78 81.39,-18.78 54.06,0 96.66,16.8 127.66,50.54 31,33.75 46.27,80.02 45.66,139.12l0 180.44c-1.44,39.48 -30.59,68.63 -83.38,66.94l0 -241.88c0,-35.58 -9.47,-62.92 -28.25,-82.31 -18.17,-20.92 -43.37,-31.31 -75.59,-31.31 -32.22,0 -61.39,10.23 -87.65,30.85 -26.27,20.61 -39.4,51.92 -39.4,93.91z"/>
   <path class="fil10" d="M3315.29 660.75l0 -357.78c1.72,-53.43 40.58,-72.86 83.38,-70.1l0 359.44c0.93,45.85 -28.22,70.14 -83.38,68.45z"/>
   <path class="fil10" d="M4411.34 445.59c0,18.94 -0.3,29.78 -0.91,32.83l-347.25 0c4.12,34.51 19.39,63.07 45.66,85.82 25.35,20.92 53.75,31.46 85.36,31.46 39.06,0 70.7,-8.83 94.93,-26.5 0.84,-0.61 1.69,-1.23 2.5,-1.87 35.5,-28.19 69.96,-25.75 103.99,-10.26 -17.56,36.04 -44.13,63.83 -79.71,83.38 -35.43,19.7 -74.52,29.47 -117.13,29.47 -61.24,0 -113.46,-20.61 -156.98,-62 -41.38,-41.38 -62,-95.59 -62,-162.33 0,-66.89 20.62,-120.48 61.69,-160.95 41.23,-40.31 93.31,-60.62 156.53,-60.93 63.22,0 114.22,20.46 153.01,61.23 40.16,40.62 60.32,94.22 60.32,160.65zm-124.91 -116.97c-23.82,-20.46 -53.45,-30.69 -88.57,-30.69 -35.27,0 -65.51,10.23 -90.86,30.69 -25.04,21.84 -39.7,50.24 -43.83,84.75l265.25 0c-4.12,-34.51 -18.17,-62.92 -42,-84.75z"/>
   <path class="fil10" d="M4853.14 430.72l0 227.13c-50.16,2.16 -81.06,-9.35 -82.29,-69.61l0 -169.43c0,-34.97 -8.44,-61.95 -25.17,-81.08 -16.13,-19.9 -39.79,-29.85 -70.69,-29.85 -30.59,0 -57.13,10.4 -79.43,31.2 -22.45,20.8 -33.61,51.4 -33.61,91.63l0 157.95c-0.58,51.63 -33.35,67.65 -82.29,69.18l0 -348.92c0.37,-50.67 33.14,-72.22 82.29,-73.39l0 64.2c9.8,-20.2 25.77,-36.77 48.23,-49.59 23.51,-12.81 44.92,-19.74 64.06,-20.95 81.24,-4.97 135.04,23.51 161.27,85.31 29.39,-58.63 77.92,-88.02 145.9,-88.02 52.9,0 93.14,16.28 120.58,48.98 28.18,32.1 42.35,78.22 42.35,138.21l0 244.16c-48.84,-0.48 -81.64,-17.77 -82.29,-68.31l0 -169.82c0,-34.36 -8.59,-61.64 -25.63,-81.99 -18.39,-19.9 -43.25,-30 -74.45,-30.3 -31.05,-0.3 -56.97,10.85 -77.47,33.46 -20.65,22.61 -31.05,52.45 -31.35,89.83z"/>
  </g>
 </g>
</svg>
