<?xml version="1.0" encoding="UTF-8"?>
<!DOCTYPE svg PUBLIC "-//W3C//DTD SVG 1.1//EN" "http://www.w3.org/Graphics/SVG/1.1/DTD/svg11.dtd">
<!-- Creator: CorelDRAW 2018 (64-Bit Evaluation Version) -->
<svg xmlns="http://www.w3.org/2000/svg" xml:space="preserve" width="126.574mm" height="25.5916mm" version="1.1" style="shape-rendering:geometricPrecision; text-rendering:geometricPrecision; image-rendering:optimizeQuality; fill-rule:evenodd; clip-rule:evenodd"
viewBox="0 0 165362.73 33434.15"
 xmlns:xlink="http://www.w3.org/1999/xlink">
 <defs>
  <style type="text/css">
   <![CDATA[
    .fil0 {fill:white}
    .fil1 {fill:white;fill-rule:nonzero}
   ]]>
  </style>
 </defs>
 <g id="Layer_x0020_1">
  <metadata id="CorelCorpID_0Corel-Layer"/>
  <g id="_2350990666320">
   <g>
    <g>
     <path class="fil0" d="M2294.78 11679.66l13925.97 10599.75 -1494.84 371.03c-4017.86,997.08 -8202.68,-81 -11123.12,-3043.9 -2090.32,-2120.76 -3247.97,-4942.69 -3259.72,-7920.09 -29.79,-7449.64 7082.53,-12764.93 14245.66,-11005.67l1488.05 365.41 -13782 10633.46z"/>
     <path id="1" class="fil1" d="M16012.9 22552.46l-13925.97 -10599.75 415.71 -546.1 13925.97 10599.75 -125.16 606.06 -290.55 -59.97zm415.71 -546.1l569.61 433.61 -694.77 172.45 125.16 -606.06zm-1785.39 311.07l1494.84 -371.03 165.4 666.03 -1494.84 371.03 0 0 -165.4 -666.03zm-11284.72 -2470.1l488.61 -481.56 0 0 269.39 264.16 276.05 253.45 282.72 242.61 289.25 231.76 295.13 220.79 301.4 209.95 306.62 198.97 312.24 188 317.47 177.15 322.17 166.05 327 155.08 331.19 144.1 335.5 132.74 339.29 121.76 343.07 110.53 346.47 99.29 349.48 88.05 352.61 76.82 355.09 65.58 357.44 54.22 359.8 42.72 361.63 31.22 363.32 19.99 364.63 8.36 365.68 -3.14 366.72 -14.89 367.37 -26.26 367.77 -38.15 367.9 -49.65 367.64 -61.4 367.37 -73.16 366.72 -85.05 165.4 666.03 -387.62 89.75 -388.28 77.34 -388.8 65.06 -389.06 52.52 -389.19 40.24 -388.8 27.83 -388.15 15.68 -387.62 3.4 -386.32 -8.88 -385.01 -21.03 -383.31 -33.31 -381.48 -45.33 -379.39 -57.35 -376.78 -69.5 -374.04 -81.52 -371.16 -93.54 -367.9 -105.56 -364.24 -117.32 -360.45 -129.34 -356.4 -141.1 -352.09 -152.99 -347.12 -164.74 -342.55 -176.5 -337.06 -188.13 -331.84 -199.76 -325.96 -211.51 -319.95 -223.01 -313.68 -234.64 -307.02 -246.14 -300.22 -257.5 -293.04 -268.87 -285.59 -280.36 0 0zm-3358.49 -8159.43l686.15 -2.87 0 0.13 4.31 270.44 10.84 269.26 17.11 268.34 23.78 267.04 29.92 265.86 36.32 264.29 42.59 262.99 48.86 261.42 55 259.72 61.27 257.89 67.28 255.93 73.42 253.97 79.56 252.14 85.44 249.92 91.45 247.57 97.46 245.22 103.34 243 109.22 240.26 114.97 237.77 120.85 234.9 126.6 232.16 132.21 229.28 137.83 226.15 143.71 223.14 149.2 219.88 154.81 216.74 160.3 213.34 165.79 209.55 171.28 206.16 176.76 202.63 182.12 198.84 187.34 194.79 -488.61 481.56 -199.1 -206.81 -193.35 -211.12 -187.48 -214.91 -181.99 -218.96 -176.24 -222.88 -170.23 -226.67 -164.48 -230.07 -158.6 -233.72 -152.59 -236.99 -146.71 -240.52 -140.57 -243.65 -134.43 -246.79 -128.42 -249.79 -122.28 -252.67 -116.01 -255.41 -109.87 -258.15 -103.47 -260.64 -97.2 -263.25 -90.93 -265.6 -84.53 -267.82 -77.86 -269.91 -71.72 -272.13 -64.93 -274.09 -58.4 -275.92 -52 -277.62 -45.2 -279.19 -38.67 -280.76 -31.75 -282.32 -25.08 -283.5 -18.42 -284.81 -11.37 -285.98 -4.57 -286.9 0 0.13zm14670.52 -11340.25l-163.57 666.29 0 0 -651.79 -140.18 -650.09 -100.73 -646.82 -62.32 -642.9 -24.56 -637.42 12.02 -630.75 47.82 -623.05 82.96 -614.03 116.8 -603.45 150.11 -592.08 182.51 -579.15 213.87 -565.04 244.57 -549.75 274.09 -532.9 303.1 -515 330.92 -495.8 357.97 -475.29 384.23 -453.6 409.31 -430.48 433.61 -406.18 457.26 -380.57 479.6 -353.79 501.42 -325.83 522.19 -296.43 542.05 -265.99 560.99 -234.12 579.28 -201.32 596.79 -166.96 612.99 -131.3 628.93 -94.72 644.08 -56.83 657.93 -17.38 671.52 -686.15 2.87 18.42 -712.54 60.23 -699.21 100.73 -684.58 139.92 -669.16 177.68 -652.7 214.13 -635.2 249.27 -616.64 282.98 -597.05 315.51 -576.8 346.47 -555.37 376.26 -533.03 404.35 -509.65 431.52 -485.74 457.13 -460.52 481.3 -434.39 504.29 -407.74 526.11 -379.65 546.36 -351.04 565.3 -321.39 582.94 -290.82 599.27 -259.46 614.42 -226.93 628.14 -193.49 640.55 -159.26 651.4 -124.11 661.46 -87.92 669.42 -50.69 676.61 -12.8 682.1 26.13 686.54 65.98 689.28 107 690.46 148.54 0 0zm1324.48 1031.7l-1488.05 -365.41 163.57 -666.29 1488.05 365.41 127.77 604.76 -291.34 61.53zm163.57 -666.29l691.5 169.84 -563.73 434.92 -127.77 -604.76zm-14073.34 10694.99l13782 -10633.46 419.11 543.22 -13782 10633.46 -417.41 1.44 -1.7 -544.66zm1.7 544.66l-356.27 -271.09 354.57 -273.57 1.7 544.66z"/>
    </g>
    <g>
     <path class="fil0" d="M20653.93 21758.53l-13781.87 -10633.46 1487.92 -365.41c7163.13,-1759.27 14275.45,3556.03 14245.79,11005.67 -11.89,2977.53 -1169.8,5799.72 -3260.25,7920.48 -2920.44,2962.64 -7105.13,4040.59 -11122.72,3043.51l-1494.84 -371.03 13925.97 -10599.75z"/>
     <path id="1" class="fil1" d="M7081.61 10853.46l13781.87 10633.46 -419.11 543.22 -13781.87 -10633.46 127.77 -604.76 291.34 61.53zm-419.11 543.22l-563.73 -434.92 691.5 -169.84 -127.77 604.76zm1779.25 -303.88l-1487.92 365.41 -163.57 -666.29 1487.92 -365.41 163.57 666.29zm14507.08 10673.83l-686.15 -2.61 0 0 -17.38 -671.65 -56.83 -657.93 -94.72 -644.08 -131.3 -628.93 -166.96 -612.99 -201.32 -596.79 -234.25 -579.28 -265.99 -560.99 -296.43 -542.18 -325.7 -522.19 -353.79 -501.28 -380.7 -479.6 -406.18 -457.26 -430.48 -433.61 -453.6 -409.31 -475.29 -384.23 -495.8 -357.97 -515 -330.92 -532.9 -303.1 -549.75 -274.09 -565.04 -244.57 -579.15 -213.87 -592.08 -182.51 -603.45 -150.11 -614.03 -116.8 -623.05 -82.96 -630.75 -47.82 -637.42 -12.02 -642.9 24.56 -646.82 62.32 -650.09 100.73 -651.79 140.18 -163.57 -666.29 690.46 -148.54 689.28 -107 686.54 -65.98 682.1 -26.13 676.61 12.8 669.42 50.69 661.46 87.92 651.4 124.11 640.55 159.26 628.14 193.49 614.42 226.93 599.27 259.46 582.94 290.82 565.3 321.39 546.36 351.04 526.11 379.65 504.29 407.74 481.3 434.39 457.13 460.52 431.52 485.74 404.48 509.65 376.26 533.16 346.34 555.37 315.51 576.67 282.98 597.05 249.4 616.64 214.13 635.2 177.68 652.7 139.92 669.16 100.73 684.58 60.23 699.21 18.42 712.41 0 0zm-3359.01 8160.09l-488.61 -481.82 0 0 187.34 -194.66 182.12 -198.97 176.89 -202.5 171.28 -206.03 165.66 -209.82 160.43 -213.34 154.81 -216.61 149.2 -219.88 143.71 -223.14 137.83 -226.28 132.34 -229.28 126.6 -232.16 120.85 -234.9 114.97 -237.77 109.22 -240.26 103.34 -243 97.46 -245.09 91.45 -247.83 85.44 -249.79 79.56 -252.14 73.55 -254.1 67.28 -255.93 61.27 -258.02 55.13 -259.59 48.73 -261.42 42.59 -262.99 36.32 -264.43 30.05 -265.73 23.65 -267.17 17.25 -268.34 10.84 -269.26 4.31 -270.44 686.15 2.61 -4.57 286.9 -11.37 285.98 -18.55 284.81 -24.95 283.63 -31.88 282.19 -38.67 280.89 -45.2 279.19 -51.87 277.62 -58.53 276.05 -64.93 273.96 -71.72 272.13 -78 270.04 -84.53 267.82 -90.93 265.47 -97.2 263.25 -103.47 260.77 -109.87 258.15 -116.01 255.41 -122.28 252.67 -128.42 249.79 -134.69 246.79 -140.44 243.65 -146.71 240.39 -152.59 237.25 -158.6 233.72 -164.48 230.2 -170.36 226.41 -176.11 222.88 -181.99 219.09 -187.61 215.04 -193.35 210.99 -199.1 206.94 0 0zm-11449.73 3135.61l165.4 -666.03 0 0 366.59 85.05 367.37 73.16 367.77 61.4 367.9 49.65 367.64 38.15 367.37 26.26 366.72 14.89 365.68 3.14 364.63 -8.36 363.19 -19.99 361.63 -31.22 359.8 -42.72 357.58 -54.22 354.96 -65.45 352.61 -76.82 349.48 -88.05 346.34 -99.29 343.07 -110.53 339.29 -121.76 335.5 -132.87 331.32 -143.84 326.87 -155.08 322.17 -166.05 317.47 -177.15 312.24 -188 306.62 -198.97 301.4 -209.95 295.13 -220.79 289.25 -231.89 282.72 -242.35 276.05 -253.45 269.39 -264.29 488.61 481.82 -285.59 280.23 -293.04 268.87 -300.22 257.5 -307.02 246 -313.68 234.64 -319.95 223.01 -325.96 211.51 -331.84 199.76 -337.06 188.13 -342.55 176.5 -347.25 164.74 -351.96 152.99 -356.4 140.97 -360.45 129.34 -364.24 117.32 -367.77 105.56 -371.16 93.54 -374.04 81.52 -376.91 69.37 -379.26 57.35 -381.48 45.33 -383.31 33.31 -384.88 21.03 -386.32 8.88 -387.62 -3.4 -388.15 -15.68 -388.8 -27.83 -389.06 -40.24 -389.06 -52.52 -388.93 -65.06 -388.28 -77.34 -387.49 -89.75 0 0zm-1329.44 -1037.06l1494.84 371.03 -165.4 666.03 -1494.84 -371.03 -125.16 -606.06 290.55 -59.97zm-165.4 666.03l-694.77 -172.45 569.61 -433.61 125.16 606.06zm14216.53 -10659.72l-13925.97 10599.75 -415.71 -546.1 13925.97 -10599.75 417.41 1.44 -1.7 544.66zm1.7 -544.66l354.57 273.57 -356.27 271.09 1.7 -544.66z"/>
    </g>
   </g>
   <path class="fil1" d="M33450.74 13370.21c-996.17,990.16 -1497.19,2308.76 -1497.19,3961.03 0,1646.78 529.77,2930.76 1583.55,3852.07 1059.4,921.05 2308.76,1381.7 3759.57,1381.7 1450.94,0 2688.8,-483.65 3707.97,-1450.94 967.3,-961.42 1450.81,-2228.15 1450.81,-3799.94 0,-1571.92 -506.51,-2867.27 -1519.92,-3874.93 -1019.03,-1007.53 -2274.27,-1520.05 -3753.95,-1531.55 -1485.43,-11.5 -2729.17,478.03 -3730.83,1462.57zm-1531.55 -4208.86l0 2539.09c529.63,-903.93 1295.48,-1600.66 2308.76,-2084.31 990.16,-535.51 2095.68,-800.33 3322.17,-800.33 2251.14,0 4156.86,783.09 5711.41,2354.88 1560.29,1554.68 2337.76,3581.37 2337.76,6074.21 0,2493.23 -771.59,4514.05 -2320.52,6068.72 -1542.92,1548.67 -3454.52,2326 -5728.65,2326 -1226.5,0 -2349.13,-241.82 -3374.04,-725.47 -1019.03,-483.65 -1773.24,-1163 -2256.89,-2026.7l0 7296.65c52.26,1871.75 -1146.41,2921.35 -3143.84,2951.92l0 -21520.89c23.65,-2100.77 1414.89,-2527.46 3143.84,-2453.77z"/>
   <path class="fil1" d="M61158.58 21492.28c1036.41,-967.3 1554.68,-2268.52 1554.68,-3909.42 0,-1640.9 -541.39,-2936.38 -1617.91,-3880.55 -1082.52,-944.3 -2354.88,-1422.07 -3817.45,-1433.7 -1468.19,0 -2694.55,489.4 -3684.71,1468.32 -990.42,967.16 -1485.56,2233.9 -1485.56,3811.31 0,1571.92 506.64,2867.27 1519.92,3874.93 1013.54,1013.41 2262.9,1520.05 3748.34,1520.05 1485.43,0 2746.42,-483.78 3782.7,-1450.94zm1589.04 4179.99l0 -2475.85c-506.51,846.45 -1272.35,1525.93 -2297.13,2043.94 -1024.91,518.27 -2141.92,777.47 -3362.54,777.47 -2233.9,0 -4174.24,-783.09 -5815.14,-2349.26 -1583.42,-1560.29 -2378,-3586.86 -2378,-6068.46 0,-2487.22 783.09,-4508.17 2343.51,-6056.96 1565.91,-1554.54 3517.88,-2337.5 5855.51,-2349.13 1168.62,0 2297.26,241.82 3373.78,725.47 1059.4,529.77 1819.49,1209.12 2280.02,2043.94 55.26,-1904.8 1230.81,-2462.14 3143.84,-2423.86l0 13393.86c-36.58,1880.24 -1197.36,2672.6 -3143.84,2738.84z"/>
   <path class="fil1" d="M98991.54 21492.28c1036.54,-967.3 1554.68,-2268.52 1554.68,-3909.42 0,-1640.9 -541.26,-2936.38 -1617.91,-3880.55 -1082.39,-944.3 -2354.88,-1422.07 -3817.32,-1433.7 -1468.19,0 -2694.55,489.4 -3684.84,1468.32 -990.29,967.16 -1485.43,2233.9 -1485.43,3811.31 0,1571.92 506.64,2867.27 1519.92,3874.93 1013.41,1013.41 2262.9,1520.05 3748.34,1520.05 1485.43,0 2746.29,-483.78 3782.56,-1450.94zm1589.17 4179.99l0 -2475.85c-506.64,846.45 -1272.35,1525.93 -2297.13,2043.94 -1025.04,518.27 -2141.92,777.47 -3362.54,777.47 -2233.9,0 -4174.24,-783.09 -5815.14,-2349.26 -1583.42,-1560.29 -2378,-3586.86 -2378,-6068.46 0,-2487.22 783.09,-4508.17 2343.38,-6056.96 1566.04,-1554.54 3518.01,-2337.5 5855.51,-2349.13 1168.75,0 2297.39,241.82 3373.91,725.47 1059.4,529.77 1819.49,1209.12 2280.02,2043.94 55.13,-1904.8 1230.81,-2462.14 3143.71,-2423.86l0 13393.86c-36.45,1880.24 -1197.23,2672.6 -3143.71,2738.84z"/>
   <path class="fil1" d="M147880.86 21492.28c1036.41,-967.3 1554.68,-2268.52 1554.68,-3909.42 0,-1640.9 -541.39,-2936.38 -1617.91,-3880.55 -1082.52,-944.3 -2354.88,-1422.07 -3817.32,-1433.7 -1468.19,0 -2694.68,489.4 -3684.84,1468.32 -990.42,967.16 -1485.43,2233.9 -1485.43,3811.31 0,1571.92 506.51,2867.27 1519.92,3874.93 1013.41,1013.41 2262.77,1520.05 3748.2,1520.05 1485.56,0 2746.42,-483.78 3782.7,-1450.94zm1589.17 4179.99l0 -2475.85c-506.64,846.45 -1272.48,1525.93 -2297.26,2043.94 -1024.91,518.27 -2141.92,777.47 -3362.54,777.47 -2233.9,0 -4174.24,-783.09 -5815.01,-2349.26 -1583.55,-1560.29 -2378,-3586.86 -2378,-6068.46 0,-2487.22 783.09,-4508.17 2343.38,-6056.96 1565.91,-1554.54 3517.88,-2337.5 5855.51,-2349.13 1168.75,0 2297.26,241.82 3373.91,725.47 1059.4,529.77 1819.49,1209.12 2280.02,2043.94 55.13,-1904.8 1230.68,-2462.14 3143.71,-2423.86l0 13393.86c-36.58,1880.24 -1197.36,2672.6 -3143.71,2738.84z"/>
   <path class="fil1" d="M72567.81 9539.57l10834.52 0 0 2585.07 -9782.17 10542.14 9782.17 0c-24.69,1695.9 -871.4,2948.53 -2860.99,3005.49l-11343.12 0 0 -2602.45 9597.97 -10524.76 -9039.46 0c-52.52,-1761.62 394.55,-2959.37 2811.09,-3005.49z"/>
   <path class="fil1" d="M121231.5 17163.62l0 8676.79c-1916.17,82.57 -3096.81,-357.31 -3143.58,-2659.28l0 -6472.28c0,-1335.71 -322.43,-2366.37 -961.55,-3097.59 -616.12,-760.09 -1519.92,-1140.01 -2700.3,-1140.01 -1168.75,0 -2182.16,397.29 -3034.36,1191.74 -857.68,794.58 -1283.85,1963.46 -1283.85,3500.63l0 6033.84c-22.21,1972.48 -1273.79,2584.16 -3143.71,2642.95l0 -13329.06c14.37,-1935.9 1265.95,-2758.83 3143.71,-2803.77l0 2452.73c374.17,-771.46 984.54,-1404.83 1842.36,-1894.22 898.18,-489.4 1715.89,-754.34 2447.11,-800.33 3103.34,-190.09 5158.78,898.18 6160.56,3258.81 1122.76,-2239.78 2976.75,-3362.54 5573.32,-3362.54 2021.08,0 3558.25,621.87 4606.15,1871.23 1076.78,1226.5 1617.91,2988.24 1617.91,5279.76l0 9327.4c-1865.87,-18.55 -3118.76,-678.96 -3143.58,-2609.76l0 -6487.18c0,-1312.85 -328.31,-2354.88 -978.92,-3132.21 -702.35,-760.09 -1652.27,-1145.89 -2844.14,-1157.38 -1186.13,-11.37 -2176.42,414.67 -2959.5,1278.23 -788.7,863.69 -1186,2003.7 -1197.62,3431.52z"/>
   <path class="fil1" d="M155919.58 25698.39l0 -22634.38c10.32,-1618.04 1362.89,-2671.82 3127.25,-2766.28l0 22264.52c3,1809.17 -1239.3,3157.69 -3127.25,3136.13z"/>
   <path class="fil1" d="M162235.35 25698.39l0 -22634.38c10.32,-1618.04 1362.89,-2671.82 3127.25,-2766.28l0 22264.52c3,1809.17 -1239.3,3157.69 -3127.25,3136.13z"/>
  </g>
 </g>
</svg>
