<svg id="Layer_1" data-name="Layer 1" xmlns="http://www.w3.org/2000/svg" viewBox="0 0 200 45"><defs><style>.cls-1{fill:#1D9CD3;}</style></defs><path class="cls-1" d="M58.33,11.25a11,11,0,0,0-4.91-1,13.8,13.8,0,0,0-4.5.8,19,19,0,0,0-2.71,1.2V.47H41.1V35.22h5.07l0-19A13.57,13.57,0,0,1,49,15.07a10.44,10.44,0,0,1,3-.44,5.34,5.34,0,0,1,4.18,1.56,6.53,6.53,0,0,1,1.41,4.52V35.22h5.11V20.08a12.21,12.21,0,0,0-1.14-5.67A7.06,7.06,0,0,0,58.33,11.25Z"/><path class="cls-1" d="M86.9,11.69a13.44,13.44,0,0,0-6.67-1.49q-5.64,0-8.64,3.09T68.6,23q0,6.24,2.9,9.59T80.33,36Q86,36,89,32.57t3-9.57a17.14,17.14,0,0,0-1.27-7A9,9,0,0,0,86.9,11.69Zm-.56,15.79a6.09,6.09,0,0,1-2.12,3,6.4,6.4,0,0,1-3.94,1.1c-2.4,0-4.1-.77-5.11-2.29A11.38,11.38,0,0,1,73.66,23a14.58,14.58,0,0,1,.63-4.57,5.59,5.59,0,0,1,2.1-2.92,6.66,6.66,0,0,1,3.89-1,7.07,7.07,0,0,1,3.89.94,5.53,5.53,0,0,1,2.15,2.85A14.24,14.24,0,0,1,87,23,13.94,13.94,0,0,1,86.34,27.48Z"/><path class="cls-1" d="M114.54,11.42a14.18,14.18,0,0,0-5.94-1.22,26.07,26.07,0,0,0-3.72.27,15.24,15.24,0,0,0-3.43.88A6.67,6.67,0,0,0,98.94,13,3.57,3.57,0,0,0,98,15.51V45h5.06V34.55a10.41,10.41,0,0,0,1.07.45,16.91,16.91,0,0,0,2.72.68,14.39,14.39,0,0,0,2.29.22,11.64,11.64,0,0,0,6.13-1.53A9.86,9.86,0,0,0,119.12,30a15.43,15.43,0,0,0,1.31-6.59,16.41,16.41,0,0,0-1.6-7.91A9.29,9.29,0,0,0,114.54,11.42Zm-.09,16.4a6,6,0,0,1-2.34,2.82,7.22,7.22,0,0,1-3.89,1,9.69,9.69,0,0,1-2.58-.37,11.86,11.86,0,0,1-2.58-1.05V16.63c0-.65.49-1.15,1.48-1.49a12.38,12.38,0,0,1,3.92-.51,6.65,6.65,0,0,1,4.18,1.14,5.84,5.84,0,0,1,2,3.14,16.13,16.13,0,0,1,.56,4.43A11.71,11.71,0,0,1,114.45,27.82Z"/><path class="cls-1" d="M142.87,11.42a14.24,14.24,0,0,0-5.94-1.22,26,26,0,0,0-3.72.27,15.33,15.33,0,0,0-3.44.88,6.63,6.63,0,0,0-2.5,1.63,3.58,3.58,0,0,0-1,2.53V45h5.06V34.55a10.41,10.41,0,0,0,1.07.45,17,17,0,0,0,2.73.68,14.28,14.28,0,0,0,2.28.22,11.68,11.68,0,0,0,6.14-1.53A9.9,9.9,0,0,0,147.44,30a15.29,15.29,0,0,0,1.31-6.59,16.41,16.41,0,0,0-1.6-7.91A9.27,9.27,0,0,0,142.87,11.42Zm-.1,16.4a6,6,0,0,1-2.34,2.82,7.2,7.2,0,0,1-3.89,1,9.8,9.8,0,0,1-2.58-.37,11.86,11.86,0,0,1-2.58-1.05V16.63c0-.65.49-1.15,1.48-1.49a12.38,12.38,0,0,1,3.92-.51A6.7,6.7,0,0,1,141,15.77a6,6,0,0,1,2,3.14,16.52,16.52,0,0,1,.56,4.43A11.52,11.52,0,0,1,142.77,27.82Z"/><rect class="cls-1" x="154.64" y="1.54" width="5.06" height="33.68"/><path class="cls-1" d="M181.34,31.23a15.9,15.9,0,0,1-3.09.29,7.14,7.14,0,0,1-5.6-2.12,8.38,8.38,0,0,1-1.87-5.23h17.15a21.25,21.25,0,0,0-1.05-7.32,9.82,9.82,0,0,0-3.52-4.9A10.75,10.75,0,0,0,177,10.2q-5.35,0-8.35,3.29t-3,9.66a15.53,15.53,0,0,0,1.44,7,9.81,9.81,0,0,0,4.09,4.33A12.77,12.77,0,0,0,177.42,36a23.55,23.55,0,0,0,4.82-.46,20.9,20.9,0,0,0,3.84-1.2V29.57c-.58.29-1.28.59-2.09.9A17.57,17.57,0,0,1,181.34,31.23Zm-7.81-16a6.44,6.44,0,0,1,3.31-.8,5.35,5.35,0,0,1,4.42,1.73,8,8,0,0,1,1.47,4.25H170.91a11.28,11.28,0,0,1,.55-2.45A5,5,0,0,1,173.53,15.19Z"/><path class="cls-1" d="M33.09,17l-5.19-4.7L31,9.21l5.09-5.09v0a12.42,12.42,0,0,0-17.39-.16h0l-.15.15h0l.17.16,5.87,5.31,3.17,2.88,5.2,4.71a10.24,10.24,0,0,1,.82,14.36l.16.15h0A10.47,10.47,0,0,0,33.09,17Z"/><path class="cls-1" d="M25.8,24.25l-6.33-5.79a10.15,10.15,0,0,1-.78-14.19l-.16-.17a10.4,10.4,0,0,0,.79,14.54l5.27,4.81L21.64,26.4l-.12.12-5,5,0,0,.16.14a12.2,12.2,0,0,0,17.06.18h0l.16-.16h0l-.16-.15L32.6,30.46Z"/><path class="cls-1" d="M33.42,16.62l-4.8-4.35,7.82-7.83a.49.49,0,0,0,0-.69,13,13,0,0,0-18-.2l-.06,0-.14.14,0,0,0,0A11,11,0,0,0,19,19l4.89,4.47-7.69,7.69a.5.5,0,0,0-.14.35.47.47,0,0,0,.15.35l.15.14a12.94,12.94,0,0,0,9,3.7,12.49,12.49,0,0,0,8.67-3.47l.05,0,.17-.16v0h0A11,11,0,0,0,33.42,16.62ZM18.75,5,32.61,17.52A9.8,9.8,0,0,1,33.7,30.8L19.8,18.1A9.72,9.72,0,0,1,18.75,5Z"/></svg>
