<?xml version="1.0" encoding="UTF-8"?>
<!DOCTYPE svg PUBLIC "-//W3C//DTD SVG 1.1//EN" "http://www.w3.org/Graphics/SVG/1.1/DTD/svg11.dtd">
<!-- Creator: CorelDRAW 2018 (64-Bit Evaluation Version) -->
<svg xmlns="http://www.w3.org/2000/svg" xml:space="preserve" width="158.948mm" height="69.2504mm" version="1.1" style="shape-rendering:geometricPrecision; text-rendering:geometricPrecision; image-rendering:optimizeQuality; fill-rule:evenodd; clip-rule:evenodd"
viewBox="0 0 15894.84 6925.04"
 xmlns:xlink="http://www.w3.org/1999/xlink">
 <defs>
  <style type="text/css">
   <![CDATA[
    .str1 {stroke:#F56F45;stroke-width:20;stroke-miterlimit:22.9256;stroke-opacity:0.768627}
    .str0 {stroke:#F56F45;stroke-width:20;stroke-miterlimit:22.9256}
    .fil0 {fill:#F56F45}
    .fil1 {fill:#FBF0C8}
    .fil2 {fill:#F56F45;fill-opacity:0.768627}
   ]]>
  </style>
 </defs>
 <g id="Layer_x0020_1">
  <metadata id="CorelCorpID_0Corel-Layer"/>
  <g id="_2128060712832">
   <path class="fil0 str0" d="M1241.46 6177.38c155.51,44.69 1399.26,12.07 1663.98,12.13l5041.73 -0.03c124.78,0 6582.34,23.28 6725.77,-10.17l0.07 -935.09 -13437.93 -6.09 6.38 939.25z"/>
   <path class="fil1 str0" d="M1235.08 5238.13l13437.93 6.09 -0.07 935.09c-143.43,33.45 -6600.99,10.17 -6725.77,10.17l-5041.73 0.03c-264.72,-0.06 -1508.47,32.56 -1663.98,-12.13l-6.38 -939.25zm8059.85 -56.02c76.25,-49.85 181.98,-34.54 306.36,-54.07 337.13,-52.96 343.55,-59.88 467.69,-516.38 55.13,81.95 67.12,268.29 128.53,374.83 122.41,212.37 229.95,102.39 337.24,201.09l-1239.82 -5.47zm5100.61 -1457.29c3.93,287.47 -4.86,597.13 -25.82,883.99 -25.46,348.57 -20.74,469.3 -388.36,494.38 -743.32,50.7 -2728.05,76.19 -3438.86,0.52 -271.6,-28.92 -330.99,-80.42 -407.56,-484.74 -39.49,-208.52 -61.42,-643.93 -20.65,-847.04l4281.25 -47.11zm-8648.04 28.53c36.04,167.84 43.41,661.43 19.26,833.83 -52.93,377.73 -144.63,453.95 -408.57,488.46 -701.54,91.71 -2721.1,83.26 -3465.01,41.6 -362.51,-20.3 -360.19,-176.48 -383.23,-510.98 -19.87,-288.34 -32.93,-574.48 -36.86,-862.57l4274.41 9.66zm4254.8 2.49c17.34,285.9 51.68,547.93 12.16,835.05 -45.98,334.06 -117.1,451.09 -391.94,484.1 -709.09,85.13 -2701.09,92.4 -3427.9,40.33 -327.83,-23.48 -324.99,-224.42 -343.84,-534.92 -17.02,-280.35 -30.39,-555.74 -32.91,-837.03l3161 -0.69c193.8,1.7 890.88,-22.91 1023.43,13.16zm-4168.34 -70.08c43.45,-305.05 472.69,-467.97 814.77,-530.43 621.31,-113.46 1945.23,-109.56 2576.42,-38.31 374.43,42.26 781.37,193.52 768.7,574.12l-4159.89 -5.38zm-4343.63 1.52c71.72,-625.92 1674.08,-623.58 2135.35,-617.14 404.79,5.65 949.58,0.69 1340.79,49.22 330.49,40.99 783.38,155.09 778.86,571.19l-4255 -3.27zm8619.71 23.1c-17.65,-398.49 430.4,-525.72 809.65,-573.29 364.98,-45.78 939.42,-55.09 1314.28,-58.9 454.54,-4.63 2075.27,-44.61 2142.91,594.1l-4266.84 38.09zm-4313.71 -125.51c-61.52,-386.33 -161.82,-2200.27 -74.19,-2506.48l190.23 -0.48c49.37,152.02 25.94,1094.96 16.73,1311.49 -8.84,207.98 -20.95,420.08 -32.58,625.5 -12.75,225.27 -6.81,429.53 -100.19,569.97zm4240.78 -15.78c-58.41,-267.97 -143.08,-2280.07 -73.43,-2490.21 68.02,-2.36 171.27,-11.38 216.86,11.75 88.71,84.92 12.84,1631.24 -13.83,1921.66 -19.29,210.06 -2.31,433.56 -129.6,556.8zm-8825.69 1604.25c-135.45,-630.21 -306.2,-1260.74 -431.44,-1904.19 -63.75,-327.48 -128.02,-653.71 -175.06,-990.26 -25.54,-182.71 -120.04,-608.5 23.01,-745.71 349.65,-335.39 503.66,434.88 563.04,718.77 56.92,272.16 269.95,1210.59 235.5,1462.96 -21.33,156.28 2.98,408.01 9.65,573.23 41.2,1020.5 173.86,710.09 252.06,874.62l-476.76 10.58zm6643.05 -4810.31c158.13,-78.05 388.87,144.99 480.63,217.66 255.45,202.31 366.61,305.69 578.4,511.24l482.11 588.45c166.44,229.19 67.89,310.42 -70.36,490.98 -105.12,137.31 -209.31,273.81 -327.64,392.44 -129.13,129.47 -208.02,242.38 -352.16,368.03 -92.24,80.42 -95.15,104.94 -269.72,96.88 -109.89,-5.08 -221.14,-7.39 -331.22,-10.02 -765.86,-18.34 -633.14,147.27 -1116.82,-349.47 -113.3,-116.35 -229.8,-248.84 -334.61,-385.63 -76.47,-99.82 -260.19,-307.82 -201.53,-476.73 39.92,-114.91 232.46,-340.14 305.53,-434.03 175.9,-226.01 221.57,-232.91 349.86,-370.35 205.64,-220.29 541.01,-507.9 807.53,-639.45zm4237.89 -3.3c202.54,-107.31 783.03,448.75 890.53,536.76 177.8,145.54 389.74,382.99 538.19,571.18 275.86,349.68 267.23,437.51 87.83,724.43 -203.85,326.05 -313.11,368.13 -503.63,585.99 -59.35,67.87 -111.39,97.02 -185.37,165.12 -134.44,123.76 -300.46,71.14 -631.79,78.25 -747.74,16.04 -593.56,117.87 -905.32,-155.27l-349.59 -370.31c-120.2,-129.77 -442.39,-506.89 -388.43,-679.87 58.84,-188.61 532.46,-698.93 649.91,-809.42 225.55,-212.14 532.64,-506.43 797.67,-646.86zm-9056.78 2656.18c-67.38,-88.01 -108.93,-115.26 -181.68,-185.62 -248.98,-240.83 -465.36,-508.04 -674.35,-785.41 -49.71,-65.99 -94.4,-153.27 -44.73,-251.75 98.93,-196.19 502.46,-650.69 657.3,-801.8 121.01,-118.09 240.39,-223.88 380.14,-339.89 487.91,-405.03 463.82,-394.3 901.54,-72.64l668.84 615.93c40.69,39.97 51.78,42.75 87.16,87.63 422.44,536 487.85,540.5 245.36,902.03l-328.56 411.39c-36.22,37.64 -67.12,54.2 -104.51,89.76 -38.6,36.72 -40.36,47.91 -80.48,94.49 -59.14,68.62 -124.02,103.82 -187.49,163.31 -116.44,109.15 -77.23,93.81 -280.36,85.27 -280.21,-11.78 -915.07,4.29 -1058.18,-12.7zm11165.3 2140.36c39.73,-106.08 173.64,-59.71 210,-372.61 50.03,-430.42 19.82,-741.19 35.46,-1129.6 5.83,-144.82 231.96,-1295.17 265.87,-1447.75 53.15,-239.21 155.11,-761.01 398.03,-755.63 80.93,1.8 151.54,75.8 184.27,112.69 230.6,259.85 -548.29,3336.96 -609.58,3612.95l-484.05 -20.05zm529.52 114.12c0,-89.38 346.97,-1555.71 398.17,-1793.58 78.05,-362.51 345.88,-1622.38 238.92,-1921.06 199.45,0.49 454.66,30.93 455.64,229.28 2.09,425.08 -316.88,3113.86 -391.44,3768.55 -11.33,99.53 -31.7,547.04 -85.23,596.26 -34.93,37.96 -522.42,34.59 -613.53,20.9l-2.53 -900.35zm-14228.62 887.05c-35.92,-280.25 -481.33,-4155.76 -457.16,-4410.68 16.07,-169.47 303.86,-193.02 484.73,-193.18 -116,347.49 223.89,1875.06 318.1,2291.88 283.16,1252.77 311.03,1030.35 331.43,2336.34l-677.1 -24.36zm13885.78 -2613.67c-124.26,-287.52 -176.76,103.74 -204.12,-998.05 -10.14,-408.3 1.03,-806.64 -7.14,-1211.94l821.93 79.04c-64.58,74.05 -85.39,47.53 -157.24,200.26 -127.93,271.98 -157.9,478.28 -224.2,789.36 -19.49,91.46 -183.8,1075.86 -229.23,1141.33zm-12678.15 -2208.28c-6.18,614.48 -23.08,1148.89 -65.84,1755.25 -21.12,299.46 21.94,262.2 -159.02,429.88 -37.49,-304.71 -240.96,-1370.97 -337.18,-1688.6 -65.17,-215.12 -113.91,-276.72 -248.56,-419.47l810.6 -77.06zm-225 -33.79c-40.16,-144.26 59.28,-253.59 213.61,-216.53 13.27,79.66 17.92,118.19 -1.98,194.16l-211.63 22.37zm12710.11 -21.13c0.52,-77.1 -4.52,-144.04 20.76,-203.89 141.37,2.73 194,79.61 191.59,220.9l-212.35 -17.01zm-2547.59 -643.55c-40.3,34.95 -61.26,43.53 -99.3,77.69l-445.28 430.73c-71.84,63.92 -113.49,135.67 -159.45,165.12 -45.39,58.01 -51.98,74.8 -105.43,134.86 -37.82,42.5 -65.79,84.52 -98.08,134.86 -209.66,326.83 -210.76,291.95 17.66,627.09l192 252.49c176.85,251.7 428,429.56 575.89,590.37 -249.1,34.06 -496.25,10.42 -756.78,58.03 -293.05,53.54 -386.09,120.78 -588.45,247.44l30.76 -389.45c63.28,-720.77 60.54,-1443.75 7.19,-2164.46 -4.78,-137.12 -23.03,-294.34 -38.44,-433.45 -17.08,-154.18 -32.71,-295.97 141.23,-306.68 183.84,-11.32 682.47,35.61 888.33,53.33 690.15,13.94 1334.81,27.12 2027.82,2.12 238.07,2.75 640.17,-70.41 843.86,-50.8 164.46,15.85 138.08,170.25 125.68,312.19 -11.3,129.44 -18.25,260.86 -30.54,390.46 -32.21,745.45 -47.46,1424.75 -4.95,2179.27l23.3 369.55c-80.68,-30.16 -166.5,-91.29 -272.87,-127.9 -96.54,-33.22 -197.94,-63.35 -303.79,-84.31 -236.55,-46.85 -479.86,-65.07 -723.28,-78.3 76.77,-101.53 205.52,-164.41 289.62,-267.87l273.95 -277.56c75.68,-133.87 347.09,-422.94 326.42,-634.08 -13.77,-140.71 -301.07,-502.42 -365.35,-574.6 -50.33,-32.12 -242.92,-261.83 -323.17,-333.35l-338.89 -298.69c-137.36,-73.43 -380.16,-331.52 -566,-341.71 -129.97,-7.12 -220.68,94.66 -303.67,151.25 -62.66,42.71 -192.52,136.06 -239.99,186.36zm-5966.16 153.33c2.06,366.72 -25.35,739.16 -21.95,1112.4 3.28,361.37 28.8,715.5 33.91,1074.76l24.53 400.61c-101.53,-71.79 -130.03,-123.18 -265.82,-186.79 -95.42,-44.69 -200.2,-75.3 -310.68,-98.48 -240.76,-50.49 -536.63,-51.45 -787.31,-53.8 24.72,-71.27 225.62,-213.9 288.71,-275.62 63.45,-62.05 216.17,-255.34 275.48,-287 66.23,-138.95 344.7,-384.98 345.69,-593.15 0.73,-150.74 -210.35,-386.01 -308.26,-512.22 -1.6,-2.06 -22.53,-29.71 -24.74,-32.9 -23.43,-33.65 -3.13,5.81 -20.99,-34.63 -9.19,-6.58 -485.19,-505.82 -665.84,-645.87l-264.34 -198.42c-63.48,-45.45 -209.8,-150.66 -295.24,-158.67 -187.86,-17.62 -433.87,266.11 -566.14,334.46l-698.63 702.61c-61.45,64.83 -339.4,413.17 -349.74,528.1 -14.8,164.49 268.23,423.52 333.24,543.03 42.17,38.97 107.09,111.7 146.17,162.03 87.04,112.08 370.43,343.59 439.82,458.18 -685.93,27.88 -784.86,88.01 -1322.6,302.37l28.47 -374.75c10.81,-350.16 42.48,-696.98 52.29,-1053.39 10.21,-371.45 1.98,-721.86 -16.66,-1090.88 -4.25,-133.43 -22.69,-286.65 -37.89,-420.37 -15.46,-135.98 -58.43,-304.76 89.28,-330.65 107.4,-18.82 705.42,30.22 862.28,38.28 683.51,24.69 1384.25,13.96 2068.46,-7.23 150.34,-5.64 798.47,-53.31 893.36,-31.52 142.44,32.71 114.01,184.6 102.67,323.5 -10.93,133.95 -19.45,278.5 -27.53,406.01zm1215.68 -679.04c336.59,12.11 673.09,22.52 1011.79,26.7 337.73,4.17 673.6,-19.1 1006.69,-17.28 281.72,-8.11 585.56,-49.54 863.02,-54.71 207.77,-3.87 195.12,115.28 176.55,299.51 -13.68,135.67 -21.32,278.89 -30.32,410.32 -7.74,367.06 -26.15,717.8 -21.85,1087.97 3.7,318.07 -4.78,755.31 42.65,1061.87l14.64 463.99c-78.23,-140.57 -378.49,-260.56 -555.02,-297.5 -259.98,-54.39 -533.26,-42 -801,-55.77 5.36,-14.45 428.41,-438.84 491.91,-512.94l239.5 -303.4c354.24,-456.21 193.47,-381.1 -222.27,-973.68 -62.92,-41.03 -223.85,-242.32 -306.55,-319.33 -58.64,-54.6 -110.95,-90.67 -167.21,-144.76 -49.8,-47.88 -137.3,-113.24 -160.18,-144.83 -87.46,-68.04 -172.73,-134.56 -269.19,-204.05 -70.13,-50.53 -171.18,-149.76 -295.01,-138.34 -138.17,12.75 -431.05,275.21 -546.27,342.98 -21.14,28.76 -134.45,130.46 -173.19,162.06 -69.08,56.35 -112.49,93.78 -176.11,155.11 -120.64,116.29 -193.05,219.56 -321.15,340.58 -67.81,131.65 -359.56,393.44 -359.45,588.13 0.13,207.91 300.87,490.95 342.55,588.31 114.3,99 421.61,448.8 566.34,539.47l-85.74 25.68c-415.11,50.3 -807.39,58.56 -1178.98,326.09l-55.23 36.87c-2.81,-4.36 -10.42,6.68 -17.41,9.34l30.5 -434.92c25.2,-754.2 33.04,-1421.43 11.36,-2179.18 -11.77,-144 -17.97,-286.39 -32.32,-430.92 -14.5,-146.26 -29.36,-283.96 123.87,-300.91 150.17,-16.62 669.34,34.92 853.08,47.54zm3058.06 916.74c49.3,-1049.76 189.53,-1031.01 -477.71,-979.83 -864.69,66.31 -2220.84,62.99 -3087.54,-6.46 -653.47,-52.38 -522.01,-66.33 -467.56,990.57l-209.08 -4.32c13.57,-251.8 37.39,-511.49 47.33,-760.91 13.27,-332.97 -271.58,-253.38 -537.5,-237.38 -865.07,52.05 -2234.79,60.39 -3095.57,4.25 -282.18,-18.4 -532.12,-99.31 -487.98,273.18 28.03,236.58 59.36,483.36 60.04,723.2 -229.31,15.31 -248.4,66.74 -273.32,283.96 -174.37,16.6 -628.19,42.98 -747.55,112.17 -60.27,34.93 -66.27,61.44 -147.46,71.36 -113.82,13.91 -381.42,9.73 -492.06,127.12 -125.97,133.65 203.29,2717.24 242.87,3074.67 52.37,473.04 88.93,1065.77 175.22,1527.27l495.62 11.54 103.36 676.4 292.52 -6.61c56.55,-87.52 106.07,-531.59 129.79,-663.44l12952.81 0.3 116.52 667.92 290.93 -2.96c56.09,-92.66 99.5,-530.96 116.48,-668.96l405.7 -18.67c39.35,-8.98 22.12,-3.29 44.09,-18.43 51.79,-102.56 314.23,-2690.09 347.81,-3036.24 25.39,-261.77 51.45,-517.64 77.26,-778.38 61,-616.14 169.67,-814.63 -309.93,-879.1 -379.41,-51 -101.15,2.8 -331.39,-95.25 -202.18,-86.12 -539.8,-51.21 -719.43,-112.48l-26.64 -113.32c-30.29,-110.62 -94.99,-121.9 -190.85,-158.95 -30.84,-11.92 -31.22,-11.63 -48,-22.97 76.15,-1056.32 176.47,-1005.75 -513.11,-955.85 -512.36,37.08 -1023.54,46.17 -1538.32,44.14 -2483.7,-9.82 -2001.38,-437.85 -1960.59,938.36l-236.76 -5.9z"/>
   <path class="fil1 str0" d="M10114.29 3771.93c-40.77,203.11 -18.84,638.52 20.65,847.04 76.57,404.32 135.96,455.82 407.56,484.74 710.81,75.67 2695.54,50.18 3438.86,-0.52 367.62,-25.08 362.9,-145.81 388.36,-494.38 20.96,-286.86 29.75,-596.52 25.82,-883.99l-4281.25 47.11z"/>
   <path class="fil1 str0" d="M5747.5 3753.35l-4274.41 -9.66c3.93,288.09 16.99,574.23 36.86,862.57 23.04,334.5 20.72,490.68 383.23,510.98 743.91,41.66 2763.47,50.11 3465.01,-41.6 263.94,-34.51 355.64,-110.73 408.57,-488.46 24.15,-172.4 16.78,-665.99 -19.26,-833.83z"/>
   <path class="fil1 str0" d="M10002.3 3755.84c-132.55,-36.07 -829.63,-11.46 -1023.43,-13.16l-3161 0.69c2.52,281.29 15.89,556.68 32.91,837.03 18.85,310.5 16.01,511.44 343.84,534.92 726.81,52.07 2718.81,44.8 3427.9,-40.33 274.84,-33.01 345.96,-150.04 391.94,-484.1 39.52,-287.12 5.18,-549.15 -12.16,-835.05z"/>
   <path class="fil1 str0" d="M12092.36 359.73c-265.03,140.43 -572.12,434.72 -797.67,646.86 -117.45,110.49 -591.07,620.81 -649.91,809.42 -53.96,172.98 268.23,550.1 388.43,679.87l349.59 370.31c311.76,273.14 157.58,171.31 905.32,155.27 331.33,-7.11 497.35,45.51 631.79,-78.25 73.98,-68.1 126.02,-97.25 185.37,-165.12 190.52,-217.86 299.78,-259.94 503.63,-585.99 179.4,-286.92 188.03,-374.75 -87.83,-724.43 -148.45,-188.19 -360.39,-425.64 -538.19,-571.18 -107.5,-88.01 -687.99,-644.07 -890.53,-536.76z"/>
   <path class="fil1 str0" d="M7854.47 363.03c-266.52,131.55 -601.89,419.16 -807.53,639.45 -128.29,137.44 -173.96,144.34 -349.86,370.35 -73.07,93.89 -265.61,319.12 -305.53,434.03 -58.66,168.91 125.06,376.91 201.53,476.73 104.81,136.79 221.31,269.28 334.61,385.63 483.68,496.74 350.96,331.13 1116.82,349.47 110.08,2.63 221.33,4.94 331.22,10.02 174.57,8.06 177.48,-16.46 269.72,-96.88 144.14,-125.65 223.03,-238.56 352.16,-368.03 118.33,-118.63 222.52,-255.13 327.64,-392.44 138.25,-180.56 236.8,-261.79 70.36,-490.98l-482.11 -588.45c-211.79,-205.55 -322.95,-308.93 -578.4,-511.24 -91.76,-72.67 -322.5,-295.71 -480.63,-217.66z"/>
   <path class="fil1 str0" d="M3035.58 3015.91c143.11,16.99 777.97,0.92 1058.18,12.7 203.13,8.54 163.92,23.88 280.36,-85.27 63.47,-59.49 128.35,-94.69 187.49,-163.31 40.12,-46.58 41.88,-57.77 80.48,-94.49 37.39,-35.56 68.29,-52.12 104.51,-89.76l328.56 -411.39c242.49,-361.53 177.08,-366.03 -245.36,-902.03 -35.38,-44.88 -46.47,-47.66 -87.16,-87.63l-668.84 -615.93c-437.72,-321.66 -413.63,-332.39 -901.54,72.64 -139.75,116.01 -259.13,221.8 -380.14,339.89 -154.84,151.11 -558.37,605.61 -657.3,801.8 -49.67,98.48 -4.98,185.76 44.73,251.75 208.99,277.37 425.37,544.58 674.35,785.41 72.75,70.36 114.3,97.61 181.68,185.62z"/>
   <path class="fil1 str0" d="M501.78 6157.44l677.1 24.36c-20.4,-1305.99 -48.27,-1083.57 -331.43,-2336.34 -94.21,-416.82 -434.1,-1944.39 -318.1,-2291.88 -180.87,0.16 -468.66,23.71 -484.73,193.18 -24.17,254.92 421.24,4130.43 457.16,4410.68z"/>
   <path class="fil1 str0" d="M14730.4 5270.39l2.53 900.35c91.11,13.69 578.6,17.06 613.53,-20.9 53.53,-49.22 73.9,-496.73 85.23,-596.26 74.56,-654.69 393.53,-3343.47 391.44,-3768.55 -0.98,-198.35 -256.19,-228.79 -455.64,-229.28 106.96,298.68 -160.87,1558.55 -238.92,1921.06 -51.2,237.87 -398.17,1704.2 -398.17,1793.58z"/>
   <path class="fil0 str0" d="M1490.33 3687.28l4255 3.27c4.52,-416.1 -448.37,-530.2 -778.86,-571.19 -391.21,-48.53 -936,-43.57 -1340.79,-49.22 -461.27,-6.44 -2063.63,-8.78 -2135.35,617.14z"/>
   <path class="fil0 str0" d="M10110.04 3710.38l4266.84 -38.09c-67.64,-638.71 -1688.37,-598.73 -2142.91,-594.1 -374.86,3.81 -949.3,13.12 -1314.28,58.9 -379.25,47.57 -827.3,174.8 -809.65,573.29z"/>
   <path class="fil0 str0" d="M5833.96 3685.76l4159.89 5.38c12.67,-380.6 -394.27,-531.86 -768.7,-574.12 -631.19,-71.25 -1955.11,-75.15 -2576.42,38.31 -342.08,62.46 -771.32,225.38 -814.77,530.43z"/>
   <path class="fil0 str0" d="M14200.88 5156.27l484.05 20.05c61.29,-275.99 840.18,-3353.1 609.58,-3612.95 -32.73,-36.89 -103.34,-110.89 -184.27,-112.69 -242.92,-5.38 -344.88,516.42 -398.03,755.63 -33.91,152.58 -260.04,1302.93 -265.87,1447.75 -15.64,388.41 14.57,699.18 -35.46,1129.6 -36.36,312.9 -170.27,266.53 -210,372.61z"/>
   <path class="fil0 str0" d="M1211.42 5173.34l476.76 -10.58c-78.2,-164.53 -210.86,145.88 -252.06,-874.62 -6.67,-165.22 -30.98,-416.95 -9.65,-573.23 34.45,-252.37 -178.58,-1190.8 -235.5,-1462.96 -59.38,-283.89 -213.39,-1054.16 -563.04,-718.77 -143.05,137.21 -48.55,563 -23.01,745.71 47.04,336.55 111.31,662.78 175.06,990.26 125.24,643.45 295.99,1273.98 431.44,1904.19z"/>
   <path class="fil0 str0" d="M9112.74 1246.39c415.74,592.58 576.51,517.47 222.27,973.68l-239.5 303.4 34.15 26.72c180.12,170.83 366.69,441.21 822.43,440.81l-7.11 -65.31c-47.43,-306.56 -38.95,-743.8 -42.65,-1061.87 -4.3,-370.17 14.11,-720.91 21.85,-1087.97 -357.2,-8.88 -695.99,277.61 -811.44,470.54z"/>
   <path class="fil0 str0" d="M4909.34 1303.53c17.86,40.44 -2.44,0.98 20.99,34.63 2.21,3.19 23.14,30.84 24.74,32.9 97.91,126.21 308.99,361.48 308.26,512.22 -0.99,208.17 -279.46,454.2 -345.69,593.15 172.1,221.72 386.7,480.9 775.09,501.08 -5.11,-359.26 -30.63,-713.39 -33.91,-1074.76 -3.4,-373.24 24.01,-745.68 21.95,-1112.4 -342.36,-0.6 -642.92,315.58 -771.43,513.18z"/>
   <path class="fil1 str0" d="M10217.66 801.79c141.65,3.3 341.29,120.81 430.62,190.88 62.32,48.88 111.17,100.24 158.7,152.4 52.02,57.09 78.98,127.44 135.92,165.49 45.96,-29.45 87.61,-101.2 159.45,-165.12l445.28 -430.73c38.04,-34.16 59,-42.74 99.3,-77.69 -37,-83.35 -26.82,-26.78 -134.8,-119.27 -48.15,-41.24 -80.71,-76.48 -117.73,-115.39 -70.24,-73.8 -133,-172.37 -185.62,-287.37 -205.86,-17.72 -704.49,-64.65 -888.33,-53.33 -173.94,10.71 -158.31,152.5 -141.23,306.68 15.41,139.11 33.66,296.33 38.44,433.45z"/>
   <path class="fil1 str0" d="M1730.14 812.33c410,67.43 623.1,480.19 689.01,525.31l698.63 -702.61 -71.21 -61.06c-26.98,-19.02 -42,-28.18 -68.15,-48.43 -42.87,-33.19 -82.82,-72.75 -129.17,-123.66 -71.26,-78.27 -142.47,-239.25 -205.44,-302.29 -156.86,-8.06 -754.88,-57.1 -862.28,-38.28 -147.71,25.89 -104.74,194.67 -89.28,330.65 15.2,133.72 33.64,286.94 37.89,420.37z"/>
   <path class="fil1 str0" d="M4712.27 92.36c-42.37,130.51 -119.18,232.13 -200.97,321.04 -134.5,146.17 -206.76,164.89 -243.9,205.07 -41.73,45.16 4.49,-43.34 -23.9,39.19 180.65,140.05 656.65,639.29 665.84,645.87 128.51,-197.6 429.07,-513.78 771.43,-513.18 8.08,-127.51 16.6,-272.06 27.53,-406.01 11.34,-138.9 39.77,-290.79 -102.67,-323.5 -94.89,-21.79 -743.02,25.88 -893.36,31.52z"/>
   <path class="fil0 str0" d="M5940.46 2974.78c359.83,-37.91 589.95,-288.91 740.52,-502.53 -41.68,-97.36 -342.42,-380.4 -342.55,-588.31 -0.11,-194.69 291.64,-456.48 359.45,-588.13 -54.41,-43.59 -91.59,-117.86 -135.71,-168.83 -49.96,-57.71 -96.95,-95.59 -164.65,-146.54 -103.35,-77.79 -277.33,-183.78 -445.7,-184.84 21.68,757.75 13.84,1424.98 -11.36,2179.18z"/>
   <path class="fil1 str0" d="M5951.82 795.6c168.37,1.06 342.35,107.05 445.7,184.84 67.7,50.95 114.69,88.83 164.65,146.54 44.12,50.97 81.3,125.24 135.71,168.83 128.1,-121.02 200.51,-224.29 321.15,-340.58 63.62,-61.33 107.03,-98.76 176.11,-155.11 38.74,-31.6 152.05,-133.3 173.19,-162.06 -183.35,-121.2 -401.88,-287.19 -471.88,-526.75 -183.74,-12.62 -702.91,-64.16 -853.08,-47.54 -153.23,16.95 -138.37,154.65 -123.87,300.91 14.35,144.53 20.55,286.92 32.32,430.92z"/>
   <path class="fil1 str0" d="M8914.93 120.73c-15.49,113.56 -123.53,235.47 -188.16,303.46 -37.18,39.1 -68.88,71.44 -120.27,113.32 -45.11,36.78 -94.74,57.18 -127.7,99.96 22.88,31.59 110.38,96.95 160.18,144.83 56.26,54.09 108.57,90.16 167.21,144.76 82.7,77.01 243.63,278.3 306.55,319.33 115.45,-192.93 454.24,-479.42 811.44,-470.54 9,-131.43 16.64,-274.65 30.32,-410.32 18.57,-184.23 31.22,-303.38 -176.55,-299.51 -277.46,5.17 -581.3,46.6 -863.02,54.71z"/>
   <path class="fil0 str0" d="M13418.65 1273.16c64.28,72.18 351.58,433.89 365.35,574.6 20.67,211.14 -250.74,500.21 -326.42,634.08 40.96,41.9 82.33,106.28 124.97,150.9 47.92,50.16 95.81,94.87 154.5,137.31 113.7,82.23 258.48,166.2 433.6,178.18 -42.51,-754.52 -27.26,-1433.82 4.95,-2179.27 -177.84,13.8 -344.96,112.56 -453.78,192.92 -70.98,52.42 -111.44,86.05 -164.16,147 -38.82,44.89 -89.42,133.97 -139.01,164.28z"/>
   <path class="fil1 str0" d="M13236.6 117.11c-39.6,194.32 -306.84,445.47 -480.01,524.01l338.89 298.69c80.25,71.52 272.84,301.23 323.17,333.35 49.59,-30.31 100.19,-119.39 139.01,-164.28 52.72,-60.95 93.18,-94.58 164.16,-147 108.82,-80.36 275.94,-179.12 453.78,-192.92 12.29,-129.6 19.24,-261.02 30.54,-390.46 12.4,-141.94 38.78,-296.34 -125.68,-312.19 -203.69,-19.61 -605.79,53.55 -843.86,50.8z"/>
   <path class="fil0 str0" d="M10210.47 2966.25c213.89,-24.47 444.75,-181.46 587.14,-334.52 81.32,-87.41 80.78,-139.14 151.44,-171.87l-192 -252.49c-228.42,-335.14 -227.32,-300.26 -17.66,-627.09 32.29,-50.34 60.26,-92.36 98.08,-134.86 53.45,-60.06 60.04,-76.85 105.43,-134.86 -56.94,-38.05 -83.9,-108.4 -135.92,-165.49 -47.53,-52.16 -96.38,-103.52 -158.7,-152.4 -89.33,-70.07 -288.97,-187.58 -430.62,-190.88 53.35,720.71 56.09,1443.69 -7.19,2164.46z"/>
   <path class="fil0 str0" d="M1694.51 2956.6c285.05,-23.7 623.12,-336.86 708.14,-547.83 -65.01,-119.51 -348.04,-378.54 -333.24,-543.03 10.34,-114.93 288.29,-463.27 349.74,-528.1 -65.91,-45.12 -279.01,-457.88 -689.01,-525.31 18.64,369.02 26.87,719.43 16.66,1090.88 -9.81,356.41 -41.48,703.23 -52.29,1053.39z"/>
   <path class="fil2" d="M14387.56 3543.77c45.43,-65.47 209.74,-1049.87 229.23,-1141.33 66.3,-311.08 96.27,-517.38 224.2,-789.36 71.85,-152.73 92.66,-126.21 157.24,-200.26l-821.93 -79.04c8.17,405.3 -3,803.64 7.14,1211.94 27.36,1101.79 79.86,710.53 204.12,998.05z"/>
   <path class="fil2 str1" d="M898.81 1412.55c134.65,142.75 183.39,204.35 248.56,419.47 96.22,317.63 299.69,1383.89 337.18,1688.6 180.96,-167.68 137.9,-130.42 159.02,-429.88 42.76,-606.36 59.66,-1140.77 65.84,-1755.25l-810.6 77.06z"/>
   <path class="fil0 str0" d="M3117.78 635.03c132.27,-68.35 378.28,-352.08 566.14,-334.46 85.44,8.01 231.76,113.22 295.24,158.67l264.34 198.42c28.39,-82.53 -17.83,5.97 23.9,-39.19 37.14,-40.18 109.4,-58.9 243.9,-205.07 81.79,-88.91 158.6,-190.53 200.97,-321.04 -684.21,21.19 -1384.95,31.92 -2068.46,7.23 62.97,63.04 134.18,224.02 205.44,302.29 46.35,50.91 86.3,90.47 129.17,123.66 26.15,20.25 41.17,29.41 68.15,48.43l71.21 61.06z"/>
   <path class="fil0 str0" d="M11646.93 637.02c47.47,-50.3 177.33,-143.65 239.99,-186.36 82.99,-56.59 173.7,-158.37 303.67,-151.25 185.84,10.19 428.64,268.28 566,341.71 173.17,-78.54 440.41,-329.69 480.01,-524.01 -693.01,25 -1337.67,11.82 -2027.82,-2.12 52.62,115 115.38,213.57 185.62,287.37 37.02,38.91 69.58,74.15 117.73,115.39 107.98,92.49 97.8,35.92 134.8,119.27z"/>
   <path class="fil0 str0" d="M7368.33 638.06c115.22,-67.77 408.1,-330.23 546.27,-342.98 123.83,-11.42 224.88,87.81 295.01,138.34 96.46,69.49 181.73,136.01 269.19,204.05 32.96,-42.78 82.59,-63.18 127.7,-99.96 51.39,-41.88 83.09,-74.22 120.27,-113.32 64.63,-67.99 172.67,-189.9 188.16,-303.46 -333.09,-1.82 -668.96,21.45 -1006.69,17.28 -338.7,-4.18 -675.2,-14.59 -1011.79,-26.7 70,239.56 288.53,405.55 471.88,526.75z"/>
   <path class="fil1 str0" d="M10037.11 3569.09c127.29,-123.24 110.31,-346.74 129.6,-556.8 26.67,-290.42 102.54,-1836.74 13.83,-1921.66 -45.59,-23.13 -148.84,-14.11 -216.86,-11.75 -69.65,210.14 15.02,2222.24 73.43,2490.21z"/>
   <path class="fil1 str0" d="M5796.33 3584.87c93.38,-140.44 87.44,-344.7 100.19,-569.97 11.63,-205.42 23.74,-417.52 32.58,-625.5 9.21,-216.53 32.64,-1159.47 -16.73,-1311.49l-190.23 0.48c-87.63,306.21 12.67,2120.15 74.19,2506.48z"/>
   <path class="fil1 str0" d="M1694.51 2956.6l-28.47 374.75c537.74,-214.36 636.67,-274.49 1322.6,-302.37 -69.39,-114.59 -352.78,-346.1 -439.82,-458.18 -39.08,-50.33 -104,-123.06 -146.17,-162.03 -85.02,210.97 -423.09,524.13 -708.14,547.83z"/>
   <path class="fil1 str0" d="M5940.46 2974.78l-30.5 434.92c6.99,-2.66 14.6,-13.7 17.41,-9.34l55.23 -36.87c371.59,-267.53 763.87,-275.79 1178.98,-326.09l85.74 -25.68c-144.73,-90.67 -452.04,-440.47 -566.34,-539.47 -150.57,213.62 -380.69,464.62 -740.52,502.53z"/>
   <path class="fil1 str0" d="M10210.47 2966.25l-30.76 389.45c202.36,-126.66 295.4,-193.9 588.45,-247.44 260.53,-47.61 507.68,-23.97 756.78,-58.03 -147.89,-160.81 -399.04,-338.67 -575.89,-590.37 -70.66,32.73 -70.12,84.46 -151.44,171.87 -142.39,153.06 -373.25,310.05 -587.14,334.52z"/>
   <path class="fil1 str0" d="M14170.65 2948.23c-175.12,-11.98 -319.9,-95.95 -433.6,-178.18 -58.69,-42.44 -106.58,-87.15 -154.5,-137.31 -42.64,-44.62 -84.01,-109 -124.97,-150.9l-273.95 277.56c-84.1,103.46 -212.85,166.34 -289.62,267.87 243.42,13.23 486.73,31.45 723.28,78.3 105.85,20.96 207.25,51.09 303.79,84.31 106.37,36.61 192.19,97.74 272.87,127.9l-23.3 -369.55z"/>
   <path class="fil1 str0" d="M5692.73 2977.51c-388.39,-20.18 -602.99,-279.36 -775.09,-501.08 -59.31,31.66 -212.03,224.95 -275.48,287 -63.09,61.72 -263.99,204.35 -288.71,275.62 250.68,2.35 546.55,3.31 787.31,53.8 110.48,23.18 215.26,53.79 310.68,98.48 135.79,63.61 164.29,115 265.82,186.79l-24.53 -400.61z"/>
   <path class="fil1 str0" d="M9944.98 2925.69l7.11 65.31c-455.74,0.4 -642.31,-269.98 -822.43,-440.81l-34.15 -26.72c-63.5,74.1 -486.55,498.49 -491.91,512.94 267.74,13.77 541.02,1.38 801,55.77 176.53,36.94 476.79,156.93 555.02,297.5l-14.64 -463.99z"/>
   <path class="fil1 str0" d="M9294.93 5182.11l1239.82 5.47c-107.29,-98.7 -214.83,11.28 -337.24,-201.09 -61.41,-106.54 -73.4,-292.88 -128.53,-374.83 -124.14,456.5 -130.56,463.42 -467.69,516.38 -124.38,19.53 -230.11,4.22 -306.36,54.07z"/>
   <path class="fil1 str0" d="M1484.41 1301.7l211.63 -22.37c19.9,-75.97 15.25,-114.5 1.98,-194.16 -154.33,-37.06 -253.77,72.27 -213.61,216.53z"/>
   <path class="fil1 str0" d="M14194.52 1280.57l212.35 17.01c2.41,-141.29 -50.22,-218.17 -191.59,-220.9 -25.28,59.85 -20.24,126.79 -20.76,203.89z"/>
  </g>
 </g>
</svg>
