<?xml version="1.0" encoding="UTF-8"?>
<!DOCTYPE svg PUBLIC "-//W3C//DTD SVG 1.1//EN" "http://www.w3.org/Graphics/SVG/1.1/DTD/svg11.dtd">
<!-- Creator: CorelDRAW 2018 (64-Bit Evaluation Version) -->
<svg xmlns="http://www.w3.org/2000/svg" xml:space="preserve" width="35.4384mm" height="158.95mm" version="1.1" style="shape-rendering:geometricPrecision; text-rendering:geometricPrecision; image-rendering:optimizeQuality; fill-rule:evenodd; clip-rule:evenodd"
viewBox="0 0 3526.35 15816.56"
 xmlns:xlink="http://www.w3.org/1999/xlink">
 <defs>
  <style type="text/css">
   <![CDATA[
    .str1 {stroke:#1B9BD9;stroke-width:19.9;stroke-miterlimit:22.9256}
    .str0 {stroke:#1D9CD3;stroke-width:19.9;stroke-miterlimit:22.9256}
    .fil0 {fill:#1D9CD3}
    .fil1 {fill:#fef1ed}
   ]]>
  </style>
 </defs>
 <g id="Layer_x0020_1">
  <metadata id="CorelCorpID_0Corel-Layer"/>
  <g id="_2128060713248">
   <path class="fil0 str0" d="M2843.4 9.98l-2815.88 20.25 112.43 14135.4 558.18 396.16 921.1 3.67 0 594.52c-606.74,16.44 -1080.43,154.53 -1080.43,322.5 0,179.02 538.14,324.12 1201.98,324.12 663.85,0 1201.98,-145.1 1201.98,-324.12 0,-162.93 -445.81,-297.75 -1026.38,-320.66l0 -595.17 1599.94 6.36 -103.45 -13971.06 -569.47 -591.97z"/>
   <polygon class="fil1 str1" points="27.52,30.23 639.78,534.44 3331.85,570.44 2809.64,12.23 "/>
   <polygon class="fil1 str1" points="133.52,334.34 511.69,667.49 511.65,2337.67 133.52,2040.57 "/>
   <polygon class="fil1 str1" points="133.52,2346.32 511.69,2714.74 511.65,4561.79 133.52,4233.22 "/>
   <polygon class="fil1 str1" points="133.52,4588.19 511.69,4996.94 511.65,7046.19 133.52,6681.64 "/>
   <polygon class="fil1 str1" points="133.52,7006.68 511.69,7401.04 511.65,9378.1 133.52,9026.4 "/>
   <polygon class="fil1 str1" points="142.33,9446.84 520.5,9841.2 520.47,11818.26 142.33,11466.56 "/>
   <polygon class="fil1 str1" points="151.15,11887 529.31,12281.36 529.28,14258.42 151.15,13906.72 "/>
   <rect class="fil1 str1" x="707.22" y="691.89" width="2683.06" height="1733.17"/>
   <rect class="fil1 str1" x="702.69" y="2688.43" width="2692.12" height="1965.05"/>
   <rect class="fil1 str1" x="702.69" y="4984.34" width="2692.12" height="2124.85"/>
   <rect class="fil1 str1" x="702.69" y="7369.51" width="2692.12" height="2161.63"/>
   <rect class="fil1 str1" x="711.51" y="9809.67" width="2692.12" height="2161.63"/>
   <rect class="fil1 str1" x="720.32" y="12249.83" width="2692.12" height="2161.63"/>
  </g>
 </g>
</svg>
