<?xml version="1.0" encoding="UTF-8"?>
<!DOCTYPE svg PUBLIC "-//W3C//DTD SVG 1.1//EN" "http://www.w3.org/Graphics/SVG/1.1/DTD/svg11.dtd">
<!-- Creator: CorelDRAW 2018 (64-Bit Evaluation Version) -->
<svg xmlns="http://www.w3.org/2000/svg" xml:space="preserve" width="158.75mm" height="117.525mm" version="1.1" style="shape-rendering:geometricPrecision; text-rendering:geometricPrecision; image-rendering:optimizeQuality; fill-rule:evenodd; clip-rule:evenodd"
viewBox="0 0 15875.04 11752.55"
 xmlns:xlink="http://www.w3.org/1999/xlink">
 <defs>
  <style type="text/css">
   <![CDATA[
    .fil0 {fill:#F56F45}
   ]]>
  </style>
 </defs>
 <g id="Layer_x0020_1">
  <metadata id="CorelCorpID_0Corel-Layer"/>
  <path class="fil0" d="M7075.54 4006.42c-28.76,-358.05 101.84,-288.56 -32.65,-566.71 -66.96,-138.47 -181.39,-294.51 -256.83,-408.85 -450.02,-681.8 -723.45,-900.03 -1271.26,-1384.24 -724.98,-640.84 -1657.15,-1134.58 -2610.33,-1436.47 -902.31,-285.81 -1302.64,-338.04 -1930.46,214.17 -1530.88,1346.56 -909.69,4606.27 -460.77,6548.35 131.87,570.52 105.16,518.34 672.67,660.17 341.44,85.36 826.03,112.72 1193.45,143.4 -49.91,412.52 -759.34,1983.09 -794.52,2175.45 888.93,298.83 998.46,331.7 1626.47,829.18 378.86,300.14 921.14,840.37 1469.25,971.67 864.72,-1254.56 676.38,-2573.01 825.16,-3756.32 65.61,-521.7 271.39,-653.17 224.62,-1209.54 325.67,-98.13 572.92,-342.72 810.08,-533.98 460.6,-371.39 470.43,-409.07 530.97,-800.82 172.51,181.91 49.3,258.79 799.54,245.46 600.33,-10.66 449.93,-33.13 818.22,-264.34 113.2,397.26 766.28,919.09 1112.67,1148.83 500.24,331.78 262.12,111.28 378.73,616.06 66,285.55 185.67,580.14 221.29,888.37 157.74,1363.74 24.13,2743.73 832.9,3664.97 548.58,-161.72 1076.44,-698.06 1476.68,-988.11 660.87,-478.95 659.6,-522.26 1590.5,-798.76 -27.4,-227.76 -313.56,-791.42 -422.26,-1094.97 -79.85,-223.04 -351.46,-941.82 -368.15,-1087.67 384.93,-44.58 885.78,-60.58 1240.88,-151.8 587.96,-151.1 509.76,-130.25 638.05,-686.65 155.46,-674.46 377.59,-1546.7 427.5,-2280.95 119.5,-1759.43 151.63,-3341.14 -952.09,-4272.96 -719.56,-607.49 -1194.41,-385.33 -2094.71,-110.93 -602.12,183.49 -1339,573.01 -1772.41,882.9 -676.21,483.54 -868.43,686.61 -1435.34,1284.55 -216.74,228.63 -681.58,853.52 -809.47,1176.19 -67,169.06 -58.87,322.82 -129.02,503.56 -95.16,-807.99 -48.43,-340.1 -782.42,-501.38 -157.83,-34.7 -331.44,-86.5 -491.36,-10.23 -297.26,141.79 -120.03,145.38 -275.58,392.41z"/>
 </g>
</svg>
