<?xml version="1.0" encoding="UTF-8"?>
<!DOCTYPE svg PUBLIC "-//W3C//DTD SVG 1.1//EN" "http://www.w3.org/Graphics/SVG/1.1/DTD/svg11.dtd">
<!-- Creator: CorelDRAW 2018 (64-Bit Evaluation Version) -->
<svg xmlns="http://www.w3.org/2000/svg" xml:space="preserve" width="48.0466mm" height="11.9062mm" version="1.1" style="shape-rendering:geometricPrecision; text-rendering:geometricPrecision; image-rendering:optimizeQuality; fill-rule:evenodd; clip-rule:evenodd"
viewBox="0 0 1362.74 337.69"
 xmlns:xlink="http://www.w3.org/1999/xlink">
 <defs>
  <style type="text/css">
   <![CDATA[
    .fil0 {fill:none}
    .fil2 {fill:#313B4A}
    .fil1 {fill:#313B4A;fill-rule:nonzero}
   ]]>
  </style>
 </defs>
 <g id="Layer_x0020_1">
  <metadata id="CorelCorpID_0Corel-Layer"/>
  <rect class="fil0" x="-0" y="0.47" width="262.61" height="262.61"/>
  <path class="fil1" d="M396.6 84.01c20.95,0 36.8,5.92 47.52,17.75 10.72,11.84 16.09,29.22 16.09,52.15l0 72.92c-1.42,24.85 -13.01,32.12 -32.17,32.1l0 -90.97c0,-19.23 -3.39,-33.41 -10.17,-42.53 -6.78,-9.12 -17.69,-13.68 -32.73,-13.68 -15.53,0 -27.43,5.11 -35.69,15.35 -8.26,10.23 -12.39,24.1 -12.39,41.6l0 58.21c-0.8,21.32 -14.68,32.04 -32.17,32.03l0 -226.63c0.89,-21.38 12.74,-30.92 32.17,-32.24l0 119.82c4.68,-11.09 12.14,-19.85 22.37,-26.26 10.23,-6.41 22.62,-9.62 37.17,-9.62z"/>
  <path class="fil1" d="M584.83 263.36c-18,0 -33.71,-3.94 -47.15,-11.83 -13.44,-7.89 -23.73,-18.67 -30.88,-32.36 -7.15,-13.68 -10.72,-28.78 -10.72,-45.3 0,-16.76 3.57,-31.99 10.72,-45.67 7.15,-13.68 17.44,-24.47 30.88,-32.36 13.44,-7.89 29.15,-11.83 47.15,-11.83 18,0 33.71,3.94 47.15,11.83 13.44,7.89 23.73,18.68 30.88,32.36 7.15,13.68 10.72,28.91 10.72,45.67 0,16.52 -3.64,31.62 -10.91,45.3 -7.27,13.69 -17.57,24.47 -30.88,32.36 -13.31,7.89 -28.97,11.83 -46.97,11.83zm0 -28.84c17.5,0 31.31,-5.73 41.42,-17.2 10.11,-11.46 15.16,-25.95 15.16,-43.45 0,-17.75 -5.05,-32.36 -15.16,-43.82 -10.11,-11.46 -23.92,-17.2 -41.42,-17.2 -17.51,0 -31.38,5.73 -41.61,17.2 -10.23,11.46 -15.35,26.07 -15.35,43.82 0,17.51 5.12,31.99 15.35,43.45 10.23,11.46 24.1,17.2 41.61,17.2z"/>
  <path class="fil1" d="M801.29 84.01c16.03,0 30.33,3.76 42.9,11.28 12.57,7.52 22.31,18.12 29.22,31.8 6.9,13.68 10.35,29.28 10.35,46.78 0,17.26 -3.57,32.67 -10.72,46.23 -7.15,13.56 -17.13,24.16 -29.95,31.8 -12.82,7.64 -27.36,11.46 -43.64,11.46 -13.06,0 -25.14,-3.08 -36.24,-9.24 -11.1,-6.16 -19.35,-14.55 -24.78,-25.15l0 76.76c-0.23,22.51 -13.03,31.89 -31.8,31.96l0 -219.71c0.06,-22.78 12.49,-29.46 31.8,-29.54l0 30.33c5.42,-10.6 13.81,-19.05 25.15,-25.33 11.34,-6.29 23.92,-9.43 37.72,-9.43zm-6.29 150.51c16.52,0 30.08,-5.67 40.68,-17.01 10.6,-11.34 15.9,-25.89 15.9,-43.64 0,-11.59 -2.4,-22.06 -7.21,-31.43 -4.8,-9.37 -11.52,-16.64 -20.15,-21.82 -8.63,-5.18 -18.37,-7.77 -29.21,-7.77 -17.01,0 -30.94,5.67 -41.79,17.01 -10.85,11.34 -16.27,26.01 -16.27,44.01 0,17.75 5.42,32.3 16.27,43.64 10.85,11.34 24.77,17.01 41.79,17.01z"/>
  <path class="fil1" d="M1013.34 84.01c16.03,0 30.32,3.76 42.9,11.28 12.57,7.52 22.31,18.12 29.22,31.8 6.9,13.68 10.35,29.28 10.35,46.78 0,17.26 -3.57,32.67 -10.72,46.23 -7.15,13.56 -17.14,24.16 -29.96,31.8 -12.82,7.64 -27.36,11.46 -43.64,11.46 -13.07,0 -25.15,-3.08 -36.24,-9.24 -11.1,-6.16 -19.35,-14.55 -24.78,-25.15l0 76.67c-0.44,22.6 -13.6,32.08 -31.8,32.05l0 -219.81c0.61,-21.5 14.7,-29.45 31.8,-29.44l0 30.33c5.42,-10.6 13.81,-19.05 25.15,-25.33 11.34,-6.29 23.92,-9.43 37.72,-9.43zm-6.29 150.51c16.52,0 30.08,-5.67 40.68,-17.01 10.6,-11.34 15.9,-25.89 15.9,-43.64 0,-11.59 -2.4,-22.06 -7.21,-31.43 -4.8,-9.37 -11.52,-16.64 -20.15,-21.82 -8.63,-5.18 -18.37,-7.77 -29.22,-7.77 -17.01,0 -30.94,5.67 -41.79,17.01 -10.85,11.34 -16.27,26.01 -16.27,44.01 0,17.75 5.42,32.3 16.27,43.64 10.85,11.34 24.77,17.01 41.79,17.01z"/>
  <path class="fil1" d="M1130.72 0.06c19.37,0.04 31.86,7.77 32.17,32.29l0 226.57c-18.11,0.02 -31.8,-9.83 -32.17,-32.06l0 -226.8z"/>
  <path class="fil1" d="M1362.74 164.25c0,7.4 -0.25,13.69 -0.74,18.86l-132.02 0c0.25,16.27 5.18,29.03 14.79,38.28 9.62,9.24 22.56,13.87 38.83,13.87 11.34,0 20.83,-2.16 28.47,-6.47 7.64,-4.32 13.19,-10.54 16.64,-18.68l32.17 0c-2.35,12.54 -8.28,23.21 -17.79,32.01 -0.02,0.02 -0.04,0.04 -0.07,0.06 -2.44,2.25 -5.12,4.38 -8.03,6.39 -14.3,9.86 -31.43,14.79 -51.4,14.79 -26.13,0 -46.91,-8.07 -62.31,-24.22 -15.41,-16.15 -23.12,-38.03 -23.12,-65.64 0,-17.75 3.45,-33.41 10.36,-46.97 6.9,-13.56 16.7,-24.04 29.4,-31.43 12.7,-7.4 27.43,-11.1 44.19,-11.1 15.78,0 29.77,3.39 41.97,10.17 12.2,6.78 21.69,16.27 28.48,28.48 6.78,12.2 10.17,26.07 10.17,41.6zm-31.43 -5.92c0,-15.04 -4.38,-26.87 -13.13,-35.5 -8.75,-8.63 -20.89,-12.94 -36.42,-12.94 -15.29,0 -27.55,4.44 -36.8,13.31 -9.25,8.87 -14.24,20.59 -14.98,35.13l101.33 0z"/>
  <g id="_1780554676672">
   <polygon class="fil2" points="262.6,0 84.76,0 84.73,190.6 139.84,59.81 "/>
   <polygon class="fil2" points="-0,263.54 177.84,263.54 177.87,72.94 122.77,203.73 "/>
  </g>
 </g>
</svg>
