<?xml version="1.0" encoding="UTF-8"?>
<!DOCTYPE svg PUBLIC "-//W3C//DTD SVG 1.1//EN" "http://www.w3.org/Graphics/SVG/1.1/DTD/svg11.dtd">
<!-- Creator: CorelDRAW 2018 (64-Bit Evaluation Version) -->
<svg xmlns="http://www.w3.org/2000/svg" xml:space="preserve" width="48.0466mm" height="11.9062mm" version="1.1" style="shape-rendering:geometricPrecision; text-rendering:geometricPrecision; image-rendering:optimizeQuality; fill-rule:evenodd; clip-rule:evenodd"
viewBox="0 0 1361.4 337.36"
 xmlns:xlink="http://www.w3.org/1999/xlink">
 <defs>
  <style type="text/css">
   <![CDATA[
    .fil1 {fill:#3B9CFF}
    .fil0 {fill:#3B9CFF;fill-rule:nonzero}
   ]]>
  </style>
 </defs>
 <g id="Layer_x0020_1">
  <metadata id="CorelCorpID_0Corel-Layer"/>
  <path class="fil0" d="M396.21 83.92c20.93,0 36.76,5.91 47.47,17.73 10.71,11.82 16.07,29.19 16.07,52.09l0 72.85c-1.42,24.83 -13,32.09 -32.14,32.07l0 -90.88c0,-19.21 -3.39,-33.37 -10.16,-42.49 -6.77,-9.11 -17.67,-13.67 -32.7,-13.67 -15.52,0 -27.4,5.11 -35.65,15.33 -8.25,10.22 -12.38,24.08 -12.38,41.56l0 58.15c-0.8,21.3 -14.66,32.01 -32.14,32l0 -226.4c0.89,-21.36 12.73,-30.89 32.14,-32.21l0 119.7c4.68,-11.08 12.13,-19.83 22.35,-26.23 10.22,-6.4 22.6,-9.61 37.13,-9.61z"/>
  <path class="fil0" d="M584.25 263.1c-17.98,0 -33.68,-3.94 -47.11,-11.82 -13.42,-7.88 -23.7,-18.66 -30.85,-32.33 -7.14,-13.67 -10.71,-28.75 -10.71,-45.26 0,-16.75 3.57,-31.96 10.71,-45.62 7.14,-13.67 17.43,-24.44 30.85,-32.33 13.43,-7.88 29.13,-11.82 47.11,-11.82 17.98,0 33.68,3.94 47.1,11.82 13.42,7.88 23.7,18.66 30.85,32.33 7.14,13.67 10.71,28.88 10.71,45.62 0,16.5 -3.63,31.59 -10.9,45.26 -7.27,13.67 -17.55,24.45 -30.85,32.33 -13.3,7.88 -28.94,11.82 -46.92,11.82zm0 -28.81c17.49,0 31.28,-5.73 41.38,-17.18 10.1,-11.45 15.15,-25.92 15.15,-43.41 0,-17.73 -5.05,-32.32 -15.15,-43.78 -10.1,-11.45 -23.89,-17.18 -41.38,-17.18 -17.49,0 -31.34,5.73 -41.56,17.18 -10.22,11.45 -15.33,26.05 -15.33,43.78 0,17.49 5.11,31.96 15.33,43.41 10.22,11.45 24.08,17.18 41.56,17.18z"/>
  <path class="fil0" d="M800.5 83.92c16.01,0 30.3,3.75 42.86,11.27 12.56,7.51 22.29,18.1 29.19,31.77 6.9,13.67 10.34,29.25 10.34,46.73 0,17.24 -3.57,32.64 -10.71,46.18 -7.14,13.55 -17.12,24.14 -29.92,31.77 -12.81,7.64 -27.34,11.45 -43.6,11.45 -13.05,0 -25.12,-3.08 -36.2,-9.23 -11.08,-6.16 -19.34,-14.53 -24.75,-25.12l0 76.69c-0.23,22.49 -13.01,31.86 -31.77,31.93l0 -219.5c0.06,-22.76 12.48,-29.43 31.77,-29.51l0 30.3c5.42,-10.59 13.79,-19.03 25.12,-25.31 11.33,-6.28 23.89,-9.42 37.68,-9.42zm-6.28 150.36c16.5,0 30.05,-5.67 40.64,-17 10.59,-11.33 15.89,-25.86 15.89,-43.6 0,-11.57 -2.4,-22.04 -7.21,-31.4 -4.8,-9.36 -11.51,-16.63 -20.13,-21.8 -8.62,-5.17 -18.35,-7.76 -29.18,-7.76 -17,0 -30.91,5.66 -41.75,16.99 -10.84,11.33 -16.26,25.99 -16.26,43.96 0,17.73 5.42,32.26 16.26,43.6 10.84,11.33 24.75,17 41.75,17z"/>
  <path class="fil0" d="M1012.34 83.92c16.01,0 30.29,3.75 42.85,11.27 12.56,7.51 22.29,18.1 29.19,31.77 6.9,13.67 10.34,29.25 10.34,46.73 0,17.24 -3.57,32.64 -10.71,46.18 -7.15,13.55 -17.12,24.14 -29.93,31.77 -12.81,7.64 -27.34,11.45 -43.59,11.45 -13.05,0 -25.12,-3.08 -36.21,-9.23 -11.08,-6.16 -19.34,-14.53 -24.75,-25.12l0 76.59c-0.44,22.58 -13.58,32.05 -31.77,32.02l0 -219.59c0.61,-21.48 14.69,-29.42 31.77,-29.41l0 30.3c5.42,-10.59 13.79,-19.03 25.12,-25.31 11.33,-6.28 23.89,-9.42 37.69,-9.42zm-6.28 150.36c16.5,0 30.05,-5.67 40.64,-17 10.59,-11.33 15.88,-25.86 15.88,-43.6 0,-11.57 -2.4,-22.04 -7.21,-31.4 -4.8,-9.36 -11.51,-16.63 -20.13,-21.8 -8.62,-5.17 -18.35,-7.76 -29.19,-7.76 -17,0 -30.91,5.66 -41.75,16.99 -10.84,11.33 -16.26,25.99 -16.26,43.96 0,17.73 5.42,32.26 16.26,43.6 10.84,11.33 24.75,17 41.75,17z"/>
  <path class="fil0" d="M1129.61 0.06c19.35,0.04 31.83,7.77 32.14,32.26l0 226.35c-18.09,0.02 -31.77,-9.82 -32.14,-32.03l0 -226.58z"/>
  <path class="fil0" d="M1361.4 164.09c0,7.39 -0.25,13.67 -0.74,18.84l-131.89 0c0.25,16.26 5.17,29 14.78,38.24 9.61,9.23 22.53,13.85 38.79,13.85 11.33,0 20.81,-2.16 28.45,-6.46 7.64,-4.31 13.18,-10.53 16.63,-18.66l32.14 0c-2.35,12.53 -8.28,23.19 -17.78,31.98 -0.02,0.02 -0.04,0.04 -0.07,0.06 -2.43,2.25 -5.11,4.38 -8.02,6.38 -14.28,9.85 -31.4,14.78 -51.35,14.78 -26.11,0 -46.86,-8.07 -62.25,-24.2 -15.4,-16.13 -23.09,-37.99 -23.09,-65.58 0,-17.73 3.45,-33.37 10.35,-46.92 6.9,-13.55 16.69,-24.01 29.37,-31.4 12.68,-7.39 27.4,-11.08 44.15,-11.08 15.76,0 29.74,3.39 41.93,10.16 12.19,6.77 21.67,16.26 28.45,28.45 6.77,12.19 10.16,26.05 10.16,41.56zm-31.4 -5.91c0,-15.02 -4.37,-26.84 -13.12,-35.47 -8.74,-8.62 -20.87,-12.93 -36.39,-12.93 -15.27,0 -27.52,4.43 -36.76,13.3 -9.24,8.87 -14.22,20.57 -14.96,35.1l101.23 0z"/>
  <g id="_1780699665008">
   <polygon class="fil1" points="262.34,0 84.68,0 84.65,190.41 139.7,59.75 "/>
   <polygon class="fil1" points="-0,263.28 177.67,263.28 177.69,72.87 122.64,203.53 "/>
  </g>
 </g>
</svg>
