<?xml version="1.0" encoding="UTF-8"?>
<!DOCTYPE svg PUBLIC "-//W3C//DTD SVG 1.1//EN" "http://www.w3.org/Graphics/SVG/1.1/DTD/svg11.dtd">
<!-- Creator: CorelDRAW 2018 (64-Bit Evaluation Version) -->
<svg xmlns="http://www.w3.org/2000/svg" xml:space="preserve" width="48.0466mm" height="11.9062mm" version="1.1" style="shape-rendering:geometricPrecision; text-rendering:geometricPrecision; image-rendering:optimizeQuality; fill-rule:evenodd; clip-rule:evenodd"
viewBox="0 0 1320.32 327.18"
 xmlns:xlink="http://www.w3.org/1999/xlink">
 <defs>
  <style type="text/css">
   <![CDATA[
    .fil1 {fill:#FFFFFF}
    .fil0 {fill:#FFFFFF;fill-rule:nonzero}
   ]]>
  </style>
 </defs>
 <g id="Layer_x0020_1">
  <metadata id="CorelCorpID_0Corel-Layer"/>
  <path class="fil0" d="M384.25 81.39c20.3,0 35.65,5.74 46.04,17.2 10.39,11.47 15.59,28.31 15.59,50.52l0 70.65c-1.38,24.08 -12.61,31.12 -31.17,31.1l0 -88.14c0,-18.63 -3.29,-32.37 -9.85,-41.2 -6.57,-8.84 -17.14,-13.26 -31.71,-13.26 -15.05,0 -26.57,4.95 -34.58,14.87 -8,9.91 -12,23.35 -12,40.31l0 56.39c-0.77,20.66 -14.22,31.05 -31.17,31.03l0 -219.57c0.86,-20.72 12.34,-29.95 31.17,-31.24l0 116.09c4.54,-10.75 11.76,-19.23 21.68,-25.44 9.91,-6.21 21.92,-9.32 36.01,-9.32z"/>
  <path class="fil0" d="M566.62 255.16c-17.44,0 -32.67,-3.82 -45.69,-11.46 -13.02,-7.64 -22.99,-18.09 -29.92,-31.35 -6.93,-13.26 -10.39,-27.89 -10.39,-43.89 0,-16.24 3.46,-30.99 10.39,-44.25 6.93,-13.26 16.9,-23.71 29.92,-31.35 13.02,-7.64 28.25,-11.46 45.69,-11.46 17.44,0 32.67,3.82 45.68,11.46 13.02,7.64 22.99,18.1 29.92,31.35 6.93,13.26 10.39,28.01 10.39,44.25 0,16 -3.52,30.63 -10.57,43.89 -7.05,13.26 -17.02,23.71 -29.92,31.35 -12.9,7.64 -28.07,11.46 -45.5,11.46zm0 -27.94c16.96,0 30.34,-5.55 40.13,-16.66 9.79,-11.11 14.69,-25.14 14.69,-42.1 0,-17.2 -4.9,-31.35 -14.69,-42.46 -9.79,-11.11 -23.17,-16.66 -40.13,-16.66 -16.96,0 -30.4,5.55 -40.31,16.66 -9.91,11.11 -14.87,25.26 -14.87,42.46 0,16.96 4.96,30.99 14.87,42.1 9.91,11.11 23.35,16.66 40.31,16.66z"/>
  <path class="fil0" d="M776.35 81.39c15.53,0 29.38,3.64 41.56,10.93 12.18,7.28 21.62,17.55 28.31,30.81 6.69,13.26 10.03,28.36 10.03,45.32 0,16.72 -3.46,31.65 -10.39,44.79 -6.93,13.14 -16.6,23.41 -29.02,30.81 -12.42,7.41 -26.51,11.11 -42.28,11.11 -12.66,0 -24.36,-2.98 -35.11,-8.96 -10.75,-5.97 -18.75,-14.09 -24.01,-24.36l0 74.37c-0.22,21.81 -12.62,30.9 -30.81,30.96l0 -212.87c0.05,-22.07 12.1,-28.54 30.81,-28.62l0 29.38c5.25,-10.27 13.38,-18.45 24.36,-24.54 10.99,-6.09 23.17,-9.14 36.55,-9.14zm-6.09 145.83c16,0 29.14,-5.5 39.41,-16.48 10.27,-10.99 15.41,-25.08 15.41,-42.28 0,-11.23 -2.33,-21.38 -6.99,-30.45 -4.66,-9.08 -11.17,-16.13 -19.53,-21.14 -8.36,-5.02 -17.8,-7.52 -28.3,-7.52 -16.48,0 -29.98,5.49 -40.49,16.48 -10.51,10.99 -15.77,25.2 -15.77,42.64 0,17.2 5.25,31.29 15.77,42.28 10.51,10.99 24,16.48 40.49,16.48z"/>
  <path class="fil0" d="M981.8 81.39c15.53,0 29.38,3.64 41.56,10.93 12.18,7.28 21.62,17.55 28.31,30.81 6.69,13.26 10.03,28.36 10.03,45.32 0,16.72 -3.46,31.65 -10.39,44.79 -6.93,13.14 -16.6,23.41 -29.02,30.81 -12.42,7.41 -26.51,11.11 -42.28,11.11 -12.66,0 -24.36,-2.98 -35.11,-8.96 -10.75,-5.97 -18.75,-14.09 -24.01,-24.36l0 74.28c-0.43,21.9 -13.17,31.09 -30.81,31.05l0 -212.97c0.59,-20.84 14.24,-28.53 30.81,-28.53l0 29.38c5.25,-10.27 13.38,-18.45 24.36,-24.54 10.99,-6.09 23.17,-9.14 36.55,-9.14zm-6.09 145.83c16,0 29.14,-5.5 39.41,-16.48 10.27,-10.99 15.41,-25.08 15.41,-42.28 0,-11.23 -2.33,-21.38 -6.99,-30.45 -4.66,-9.08 -11.17,-16.13 -19.52,-21.14 -8.36,-5.02 -17.8,-7.52 -28.31,-7.52 -16.48,0 -29.98,5.49 -40.49,16.48 -10.51,10.99 -15.77,25.2 -15.77,42.64 0,17.2 5.25,31.29 15.77,42.28 10.51,10.99 24,16.48 40.49,16.48z"/>
  <path class="fil0" d="M1095.53 0.06c18.77,0.04 30.87,7.53 31.17,31.29l0 219.52c-17.55,0.02 -30.81,-9.52 -31.17,-31.07l0 -219.74z"/>
  <path class="fil0" d="M1320.32 159.14c0,7.17 -0.24,13.26 -0.72,18.27l-127.91 0c0.24,15.77 5.02,28.13 14.33,37.08 9.32,8.96 21.85,13.44 37.62,13.44 10.99,0 20.18,-2.09 27.59,-6.27 7.41,-4.18 12.78,-10.21 16.13,-18.1l31.17 0c-2.28,12.15 -8.03,22.49 -17.24,31.01 -0.02,0.02 -0.04,0.04 -0.06,0.06 -2.36,2.18 -4.96,4.25 -7.78,6.19 -13.85,9.55 -30.46,14.33 -49.8,14.33 -25.32,0 -45.45,-7.82 -60.37,-23.47 -14.93,-15.65 -22.4,-36.85 -22.4,-63.6 0,-17.2 3.34,-32.37 10.03,-45.5 6.69,-13.14 16.18,-23.29 28.49,-30.45 12.3,-7.17 26.57,-10.75 42.82,-10.75 15.29,0 28.84,3.28 40.67,9.85 11.82,6.57 21.02,15.77 27.59,27.59 6.57,11.82 9.85,25.26 9.85,40.31zm-30.46 -5.73c0,-14.57 -4.24,-26.03 -12.72,-34.4 -8.48,-8.36 -20.24,-12.54 -35.29,-12.54 -14.81,0 -26.69,4.3 -35.65,12.9 -8.96,8.6 -13.79,19.95 -14.51,34.04l98.18 0z"/>
  <g id="_1780709059360">
   <polygon class="fil1" points="254.43,0 82.12,0 82.1,184.67 135.49,57.95 "/>
   <polygon class="fil1" points="-0,255.34 172.31,255.34 172.33,70.67 118.94,197.39 "/>
  </g>
 </g>
</svg>
