<svg xmlns="http://www.w3.org/2000/svg" xmlns:xlink="http://www.w3.org/1999/xlink" width="98" height="50" viewBox="0 0 98 50">
  <defs>
    <style>
      .cls-1 {
        clip-path: url(#clip-Kpay_45px_2);
      }

      .cls-2 {
        fill: #2c2c2c;
      }

      .cls-3 {
        fill: #FFFFFF;
      }
    </style>
    <clipPath id="clip-Kpay_45px_2">
      <rect width="98" height="50"/>
    </clipPath>
  </defs>
  <g id="Kpay_45px_2" data-name="Kpay – 45px_2" class="cls-1">
    <g id="Group_1862" data-name="Group 1862" transform="translate(-9067 -1991.742)">
      <g id="Group_1854" data-name="Group 1854" transform="translate(9074 1994.742)">
        <g id="Group_1847" data-name="Group 1847" transform="translate(5.177 31.952)">
          <path id="Wheel_2_4_" class="cls-2" d="M75.306,432.09a6.524,6.524,0,1,1-6.524,6.524A6.525,6.525,0,0,1,75.306,432.09Z" transform="translate(-68.781 -432.09)"/>
          <path id="Wheel_1_4_" class="cls-2" d="M309.5,432.09a6.53,6.53,0,1,1-6.523,6.524A6.525,6.525,0,0,1,309.5,432.09Z" transform="translate(-284.927 -432.09)"/>
        </g>
        <path id="Cart_4_" class="cls-2" d="M64.714,78.928H56.629c-1.308-4.085-6.119-6.744-10.955-6.68-4.614.061-9.146,2.989-10.209,6.68H27.087A1.836,1.836,0,0,0,25.2,80.713v29.9a1.834,1.834,0,0,0,1.886,1.785H64.714a1.835,1.835,0,0,0,1.888-1.785v-29.9A1.836,1.836,0,0,0,64.714,78.928Zm-9.473,0H36.872c1.1-2.763,4.892-5.548,8.8-5.582C49.7,73.31,53.806,75.528,55.241,78.928Z" transform="translate(-25.201 -72.247)"/>
        <g id="XMLID_1_" transform="translate(9.617 13.286)">
          <path id="XMLID_2_" class="cls-3" d="M166.283,178.4v-3.543l4.732,6.429h9.346L179.1,179.02l-7.977-1.155,6.947-.435-1.334-1.962-7.222-.954,6.173-.6-1.3-1.866-8.42-.722,7.755-.808c.439-.64,1.495-2.14,1.495-2.14l-5.708-1.429s6.543.253,6.724,0c.793-1.111,1.411-1.964,1.411-1.964l-6.526-1.1,7.977-.385,1.264-2.3h-9.651l-4.429,6.415V161.2h-8.345s.038,6.6,0,13.825l-.038,6.261h8.383Z" transform="translate(-157.9 -161.197)"/>
        </g>
      </g>
      <g id="pay_2x_1_" data-name="pay@2x (1)" transform="translate(9118.811 2013.268)">
        <path id="Path_3084" data-name="Path 3084" class="cls-2" d="M64.508-601.582a10.1,10.1,0,0,0-3.816.822,2.732,2.732,0,0,0-1.582,1.616l-.092.273-.01,8.706-.007,8.7,1.627-.007,1.63-.01v-5.876l.119.051a10.412,10.412,0,0,0,1.429.454,7.855,7.855,0,0,0,5.016-.379,6.025,6.025,0,0,0,3.032-3.608,9.454,9.454,0,0,0,.437-3.427,10.957,10.957,0,0,0-.314-2.65,5.957,5.957,0,0,0-2.626-3.734A8.7,8.7,0,0,0,64.508-601.582Zm1.4,2.848a2.871,2.871,0,0,1,1.9.842,4.889,4.889,0,0,1,1.112,3.359c.147,3.114-.866,4.8-3.079,5.129a7.123,7.123,0,0,1-.737.031,5.365,5.365,0,0,1-2.507-.566l-.321-.157v-1.9c0-4.682,0-5.842.031-5.917.16-.423,1.037-.764,2.162-.839A6.759,6.759,0,0,1,65.906-598.735Z" transform="translate(-59 601.603)"/>
        <path id="Path_3085" data-name="Path 3085" class="cls-2" d="M492.571-600.647a12.2,12.2,0,0,0-4.334,1.033l-.2.113-.01,1.521c0,.839,0,1.524.014,1.524s.167-.1.348-.218a7.159,7.159,0,0,1,2.374-.972,7.056,7.056,0,0,1,3.11-.106,3.013,3.013,0,0,1,1.466.73,2.474,2.474,0,0,1,.576,1.112,12.127,12.127,0,0,1,.065,1.971c-.017-.007-.211-.1-.437-.211a8.145,8.145,0,0,0-2.51-.709,13.248,13.248,0,0,0-2.387.017c-2.155.334-3.438,1.429-3.816,3.257a6.863,6.863,0,0,0,0,2.489,3.415,3.415,0,0,0,1.119,1.985,5.286,5.286,0,0,0,2.8,1.262,10.688,10.688,0,0,0,2.37.157c2.79-.065,4.488-.522,5.412-1.456a2.64,2.64,0,0,0,.706-1.541c.051-.368.051-7.411,0-7.861a4.08,4.08,0,0,0-1.149-2.554,3.906,3.906,0,0,0-1.183-.842A8.157,8.157,0,0,0,492.571-600.647Zm1.057,8.161a7.73,7.73,0,0,1,2.056.4l.314.106v1.34c0,.842-.014,1.408-.038,1.518-.133.624-.808.866-2.537.907a5.411,5.411,0,0,1-1.115-.034,3.946,3.946,0,0,1-1.224-.4,1.763,1.763,0,0,1-.969-1,2.642,2.642,0,0,1-.072-1.292c.225-.948,1.088-1.47,2.578-1.552.235-.014.464-.02.512-.017S493.4-592.5,493.628-592.486Z" transform="translate(-472.126 600.705)"/>
        <path id="Path_3086" data-name="Path 3086" class="cls-2" d="M877.29-590.959c.078.191,4.177,10.231,4.87,11.936l.887,2.172-.136.413a4.108,4.108,0,0,1-.924,1.64,2.022,2.022,0,0,1-1.6.61,5.485,5.485,0,0,1-.624-.031,7.638,7.638,0,0,1-.825-.229c-.044-.02-.051.147-.044,1.388l.01,1.412.382.126a4.651,4.651,0,0,0,1.46.256,2.778,2.778,0,0,0,.853-.058,4.772,4.772,0,0,0,2.906-1.927,11.4,11.4,0,0,0,1.453-2.728c.532-1.347,5.821-14.988,5.821-15.005s-.781-.017-1.736-.017H888.3l-.068.194c-.2.593-3.523,10.016-3.53,10.023s-.829-2.288-1.831-5.095l-1.824-5.105-1.889-.01A10.726,10.726,0,0,0,877.29-590.959Z" transform="translate(-849.384 591.362)"/>
      </g>
    </g>
  </g>
</svg>
