<svg xmlns="http://www.w3.org/2000/svg" xmlns:xlink="http://www.w3.org/1999/xlink" width="439" height="223" viewBox="0 0 439 223">
  <defs>
    <style>
      .cls-1 {
        clip-path: url(#clip-Kpay_180px_2);
      }

      .cls-2 {
        fill: #2c2c2c;
      }

      .cls-3 {
        fill: #FFFFFF;
      }
    </style>
    <clipPath id="clip-Kpay_180px_2">
      <rect width="439" height="223"/>
    </clipPath>
  </defs>
  <g id="Kpay_180px_2" data-name="Kpay – 180px_2" class="cls-1">
    <g id="Group_1862" data-name="Group 1862" transform="translate(-9043 -1972.742)">
      <g id="Group_1854" data-name="Group 1854" transform="translate(9074 1994.742)">
        <g id="Group_1847" data-name="Group 1847" transform="translate(20.709 127.808)">
          <path id="Wheel_2_4_" class="cls-2" d="M94.879,432.09a26.1,26.1,0,1,1-26.1,26.1A26.1,26.1,0,0,1,94.879,432.09Z" transform="translate(-68.781 -432.09)"/>
          <path id="Wheel_1_4_" class="cls-2" d="M329.072,432.09a26.121,26.121,0,1,1-26.091,26.1A26.1,26.1,0,0,1,329.072,432.09Z" transform="translate(-230.764 -432.09)"/>
        </g>
        <path id="Cart_4_" class="cls-2" d="M183.251,98.971H150.914C145.68,82.63,126.438,72,107.092,72.251c-18.455.244-36.586,11.957-40.837,26.719H32.745a7.343,7.343,0,0,0-7.544,7.141V225.719a7.336,7.336,0,0,0,7.544,7.139H183.251a7.338,7.338,0,0,0,7.553-7.139V106.112A7.346,7.346,0,0,0,183.251,98.971Zm-37.892,0H71.883C76.3,87.92,91.45,76.777,107.092,76.641,123.209,76.5,139.622,85.371,145.359,98.971Z" transform="translate(-25.201 -72.247)"/>
        <g id="XMLID_1_" transform="translate(38.468 53.144)">
          <path id="XMLID_2_" class="cls-3" d="M191.431,230V215.826l18.928,25.717h37.386l-5.051-9.055-31.909-4.62,27.789-1.739-5.338-7.848-28.887-3.815,24.693-2.388-5.182-7.466-33.679-2.888,31.021-3.233c1.755-2.559,5.979-8.561,5.979-8.561l-22.832-5.717s26.172,1.013,26.9,0c3.174-4.444,5.642-7.857,5.642-7.857l-26.1-4.415,31.909-1.54,5.055-9.206h-38.6l-17.714,25.658V161.2h-33.38s.151,26.419,0,55.3l-.151,25.045h33.531Z" transform="translate(-157.9 -161.197)"/>
        </g>
      </g>
      <g id="pay_2x_1_" data-name="pay@2x (1)" transform="translate(9253.243 2068.848)">
        <path id="Path_3084" data-name="Path 3084" class="cls-2" d="M81.03-601.521c-6.425.355-11.636,1.487-15.264,3.287-3.547,1.773-5.361,3.615-6.329,6.466l-.368,1.091-.041,34.826L59-521.038l6.507-.027,6.52-.041v-23.5l.477.2a41.632,41.632,0,0,0,5.716,1.814c7.953,1.6,14.541,1.1,20.066-1.514,5.552-2.633,9.917-7.83,12.127-14.432a37.815,37.815,0,0,0,1.746-13.709,43.83,43.83,0,0,0-1.255-10.6c-1.651-6.561-5.456-11.963-10.5-14.937C95.531-600.648,88.751-601.957,81.03-601.521Zm5.593,11.39c3.547.437,5.552,1.337,7.6,3.369,2.715,2.7,4.161,7.052,4.447,13.436.587,12.454-3.465,19.193-12.318,20.516a28.524,28.524,0,0,1-2.946.123,21.463,21.463,0,0,1-10.026-2.265l-1.282-.628v-7.584c-.014-18.729.014-23.367.123-23.667.641-1.692,4.147-3.056,8.648-3.356A27.067,27.067,0,0,1,86.623-590.13Z" transform="translate(-59 601.603)"/>
        <path id="Path_3085" data-name="Path 3085" class="cls-2" d="M510.146-600.568c-6.166.355-13.778,2.169-17.338,4.133l-.8.45-.041,6.084c-.014,3.356,0,6.1.055,6.1s.668-.4,1.391-.873a28.632,28.632,0,0,1,9.494-3.888,28.226,28.226,0,0,1,12.441-.423,12.055,12.055,0,0,1,5.866,2.919,9.9,9.9,0,0,1,2.305,4.447c.245,1.146.477,7.994.259,7.885-.068-.027-.846-.409-1.746-.846a32.585,32.585,0,0,0-10.04-2.837,53,53,0,0,0-9.549.068c-8.621,1.337-13.75,5.716-15.264,13.027a27.454,27.454,0,0,0-.014,9.958,13.659,13.659,0,0,0,4.474,7.939c2.756,2.564,6.029,4.038,11.213,5.047a42.749,42.749,0,0,0,9.48.628c11.158-.259,17.952-2.087,21.648-5.825a10.562,10.562,0,0,0,2.824-6.166c.2-1.473.2-29.642,0-31.443a16.32,16.32,0,0,0-4.6-10.217,15.622,15.622,0,0,0-4.733-3.369C522.655-600.159,517.512-600.991,510.146-600.568Zm4.229,32.643a30.924,30.924,0,0,1,8.225,1.6l1.255.423v5.361c0,3.369-.055,5.634-.15,6.07-.532,2.5-3.233,3.465-10.149,3.628a21.638,21.638,0,0,1-4.461-.136,15.787,15.787,0,0,1-4.9-1.61,7.053,7.053,0,0,1-3.874-4,10.568,10.568,0,0,1-.286-5.17c.9-3.792,4.352-5.879,10.313-6.207.941-.055,1.855-.082,2.046-.068S513.475-567.966,514.375-567.925Z" transform="translate(-428.368 600.8)"/>
        <path id="Path_3086" data-name="Path 3086" class="cls-2" d="M877.291-590.836c.314.764,16.71,40.923,19.479,47.744l3.547,8.689-.546,1.651a16.425,16.425,0,0,1-3.7,6.561,8.086,8.086,0,0,1-6.411,2.442,21.915,21.915,0,0,1-2.5-.123,30.591,30.591,0,0,1-3.3-.914c-.177-.082-.2.587-.177,5.552l.041,5.647,1.528.5a18.609,18.609,0,0,0,5.839,1.023,11.11,11.11,0,0,0,3.41-.232c4.57-.928,7.83-3.1,11.622-7.707a45.585,45.585,0,0,0,5.811-10.913c2.128-5.388,23.285-59.953,23.285-60.021,0-.041-3.124-.068-6.943-.068h-6.943l-.273.777c-.818,2.374-14.091,40.064-14.119,40.091s-3.315-9.153-7.325-20.38l-7.3-20.421-7.557-.041C878.751-591,877.237-590.973,877.291-590.836Z" transform="translate(-765.666 592.446)"/>
      </g>
    </g>
  </g>
</svg>
