<svg xmlns="http://www.w3.org/2000/svg" xmlns:xlink="http://www.w3.org/1999/xlink" width="1340" height="660" viewBox="0 0 1340 660">
  <defs>
    <style>
      .cls-1 {
        clip-path: url(#clip-Kpay_2);
      }

      .cls-2 {
        fill: #2c2c2c;
      }

      .cls-3 {
        fill: #FFFFFF;
      }
    </style>
    <clipPath id="clip-Kpay_2">
      <rect width="1340" height="660"/>
    </clipPath>
  </defs>
  <g id="Kpay_2" class="cls-1">
    <g id="Group_1862" data-name="Group 1862" transform="translate(-9009 -1965)">
      <g id="Group_1854" data-name="Group 1854" transform="translate(9074 1994.742)">
        <g id="Group_1847" data-name="Group 1847" transform="translate(69.057 426.199)">
          <path id="Wheel_2_4_" class="cls-2" d="M155.809,432.09a87.022,87.022,0,1,1-87.028,87.024A87.031,87.031,0,0,1,155.809,432.09Z" transform="translate(-68.781 -432.09)"/>
          <path id="Wheel_1_4_" class="cls-2" d="M389.986,432.09a87.106,87.106,0,1,1-87,87.025A87.036,87.036,0,0,1,389.986,432.09Z" transform="translate(-62.16 -432.09)"/>
        </g>
        <path id="Cart_4_" class="cls-2" d="M552.247,161.363H444.412c-17.451-54.49-81.618-89.952-146.129-89.1-61.542.812-122,39.874-136.178,89.1H50.358c-13.949,0-25.157,10.674-25.157,23.813V584.027c0,13.167,11.208,23.805,25.157,23.805H552.247c13.975,0,25.186-10.639,25.186-23.805V185.176C577.433,172.037,566.222,161.363,552.247,161.363Zm-126.357,0H180.87c14.715-36.85,65.25-74.008,117.412-74.462C352.025,86.433,406.757,116.012,425.89,161.363Z" transform="translate(-25.201 -72.247)"/>
        <g id="XMLID_1_" transform="translate(128.278 177.218)">
          <path id="XMLID_2_" class="cls-3" d="M269.716,390.63V343.368l63.117,85.757H457.5L440.659,398.93l-106.407-15.4,92.668-5.8-17.8-26.171-96.328-12.722,82.342-7.963-17.279-24.9-112.31-9.631,103.446-10.783c5.851-8.532,19.939-28.548,19.939-28.548l-76.138-19.063s87.277,3.378,89.689,0c10.583-14.82,18.816-26.2,18.816-26.2L334.252,197.03,440.659,191.9l16.856-30.7H328.788l-59.072,85.563V161.2H158.4s.5,88.1,0,184.41l-.5,83.518H269.716Z" transform="translate(-157.9 -161.197)"/>
        </g>
      </g>
      <g id="pay_2x_1_" data-name="pay@2x (1)" transform="translate(9671.721 2241.862)">
        <path id="Path_3084" data-name="Path 3084" class="cls-2" d="M132.464-601.329c-21.425,1.183-38.8,4.958-50.9,10.963-11.827,5.913-17.877,12.054-21.107,21.562l-1.228,3.639-.136,116.132L59-332.946l21.7-.091,21.744-.136V-411.55l1.592.682a138.817,138.817,0,0,0,19.06,6.05c26.52,5.322,48.491,3.685,66.914-5.049,18.514-8.779,33.07-26.11,40.439-48.127,4.594-13.738,6.232-26.7,5.823-45.716-.364-15.239-1.41-24.245-4.185-35.345-5.5-21.88-18.2-39.894-35.026-49.81C180.819-598.417,158.211-602.784,132.464-601.329Zm18.65,37.983c11.827,1.456,18.514,4.458,25.337,11.236,9.052,9.007,13.874,23.518,14.829,44.806,1.956,41.531-11.554,64-41.076,68.415a95.166,95.166,0,0,1-9.826.409,71.57,71.57,0,0,1-33.434-7.551l-4.276-2.092v-25.292c-.045-62.456.045-77.922.409-78.923,2.138-5.641,13.829-10.189,28.84-11.19C140.7-564.119,145.292-564.073,151.114-563.346Z" transform="translate(-59 601.603)"/>
        <path id="Path_3085" data-name="Path 3085" class="cls-2" d="M564.856-600.322c-20.561,1.183-45.944,7.233-57.816,13.783l-2.684,1.5-.136,20.288c-.045,11.19,0,20.333.182,20.333.136,0,2.229-1.319,4.64-2.911,8.6-5.732,18.468-9.78,31.66-12.964,14.693-3.594,28.476-4.048,41.486-1.41,7.733,1.592,14.829,5.14,19.56,9.735,3.321,3.321,6.5,9.416,7.688,14.829.819,3.821,1.592,26.656.864,26.292-.227-.091-2.82-1.365-5.823-2.82A108.665,108.665,0,0,0,571-523.127c-7.233-.91-25.337-.773-31.842.227-28.749,4.458-45.853,19.06-50.9,43.442a91.55,91.55,0,0,0-.046,33.207c2.229,11.054,6.55,18.7,14.92,26.474,9.189,8.552,20.106,13.465,37.392,16.831,9.143,1.774,18.7,2.411,31.615,2.092,37.21-.864,59.863-6.96,72.19-19.424,5.049-5.095,8.324-12.191,9.416-20.561.682-4.913.682-98.847,0-104.851-1.547-14.192-6.459-25.064-15.33-34.071A52.105,52.105,0,0,0,622.627-591C606.569-598.957,589.42-601.732,564.856-600.322Zm14.1,108.854a103.132,103.132,0,0,1,27.43,5.322l4.185,1.41v17.877c0,11.236-.182,18.787-.5,20.242-1.774,8.324-10.781,11.554-33.844,12.1-8.37.227-11.327.136-14.875-.455a52.65,52.65,0,0,1-16.33-5.368c-7.142-3.73-10.417-7.1-12.919-13.328-1.683-4.139-2.092-12.282-.955-17.24,3-12.646,14.511-19.606,34.389-20.7,3.139-.182,6.186-.273,6.823-.227C573-491.74,575.956-491.6,578.958-491.467Z" transform="translate(-292.152 601.096)"/>
        <path id="Path_3086" data-name="Path 3086" class="cls-2" d="M877.294-590.454c1.046,2.547,55.724,136.466,64.958,159.21l11.827,28.976-1.82,5.5c-3.23,9.689-7.233,16.74-12.327,21.88-5.777,5.823-11.964,8.188-21.38,8.142a73.1,73.1,0,0,1-8.324-.409A102.1,102.1,0,0,1,899.22-370.2c-.591-.273-.682,1.956-.591,18.514l.136,18.832,5.095,1.683a62.047,62.047,0,0,0,19.469,3.412,37.059,37.059,0,0,0,11.372-.773c15.239-3.093,26.11-10.326,38.756-25.7,6-7.369,13.51-21.425,19.378-36.391,7.1-17.968,77.649-199.922,77.649-200.15,0-.136-10.417-.227-23.154-.227h-23.154l-.91,2.593c-2.729,7.915-46.99,133.6-47.081,133.691-.046.091-11.054-30.523-24.427-67.96l-24.336-68.1-25.2-.136C882.162-591,877.112-590.909,877.294-590.454Z" transform="translate(-505.061 595.823)"/>
      </g>
    </g>
  </g>
</svg>
