<svg width="70" height="70" viewBox="0 0 70 70" fill="none" xmlns="http://www.w3.org/2000/svg" role="img" alt=""
     icon="BrandFirst">
    <path d="M35 70C54.33 70 70 54.33 70 35C70 15.67 54.33 0 35 0C15.67 0 0 15.67 0 35C0 54.33 15.67 70 35 70Z"
          fill="#1B9BD9"></path>
    <path
        d="M42.7046 51.3287H27.9766C27.5986 51.3287 27.2906 51.0207 27.2906 50.6427V34.8973C27.2906 34.5193 27.5986 34.2113 27.9766 34.2113H42.7046C43.0826 34.2113 43.3906 34.5193 43.3906 34.8973V50.6427C43.3953 51.0207 43.0873 51.3287 42.7046 51.3287Z"
        fill="#1B9BD9"></path>
    <path
        d="M41.944 50.4747H28.6767C28.476 50.4747 28.308 50.3113 28.308 50.106V35.4433C28.308 35.2427 28.4713 35.0747 28.6767 35.0747H41.944C42.1447 35.0747 42.3127 35.238 42.3127 35.4433V50.1107C42.3127 50.3113 42.1447 50.4747 41.944 50.4747Z"
        fill="#f50a2b"></path>
    <path
        d="M27.566 51.3567H13.0713C12.6933 51.3567 12.3853 51.0487 12.3853 50.6707V43.1807C12.3853 42.8027 12.6933 42.4947 13.0713 42.4947H27.5613C27.9393 42.4947 28.2473 42.8027 28.2473 43.1807V50.6707C28.252 51.0487 27.944 51.3567 27.566 51.3567Z"
        fill="#1B9BD9"></path>
    <path
        d="M26.922 50.4327H13.6547C13.454 50.4327 13.286 50.2693 13.286 50.064V43.8013C13.286 43.6007 13.4493 43.4327 13.6547 43.4327H26.922C27.1227 43.4327 27.2907 43.596 27.2907 43.8013V50.0687C27.286 50.2693 27.1227 50.4327 26.922 50.4327Z"
        fill="#f50a2b"></path>
    <path
        d="M57.4887 51.3333H42.9987C42.6207 51.3333 42.3127 51.0253 42.3127 50.6473V39.424C42.3127 39.046 42.6207 38.738 42.9987 38.738H57.4887C57.8667 38.738 58.1747 39.046 58.1747 39.424V50.6473C58.1747 51.0253 57.8667 51.3333 57.4887 51.3333Z"
        fill="#1B9BD9"></path>
    <path
        d="M56.8447 50.4093H43.5773C43.3767 50.4093 43.2087 50.246 43.2087 50.0407V40.04C43.2087 39.8393 43.372 39.6713 43.5773 39.6713H56.8447C57.0453 39.6713 57.2133 39.8347 57.2133 40.04V50.0407C57.2133 50.2413 57.05 50.4093 56.8447 50.4093Z"
        fill="#f50a2b"></path>
    <path
        d="M33.404 12.656C33.446 14.2147 32.858 15.078 31.5 15.0827H29.8527C29.6427 15.0827 29.47 15.2553 29.47 15.4653V18.2373C29.47 18.4473 29.6427 18.62 29.8527 18.62H32.396C32.606 18.62 32.7787 18.7927 32.7787 19.0027V28.7933C32.7787 29.0033 32.606 29.176 32.396 29.176H29.8527C29.6427 29.176 29.47 29.3487 29.47 29.5587V32.5267C29.47 32.7367 29.6427 32.9093 29.8527 32.9093H41.118C41.328 32.9093 41.5007 32.7367 41.5007 32.5267V29.6893C41.5007 29.4793 41.328 29.3067 41.118 29.3067H38.4767C38.2667 29.3067 38.094 29.134 38.094 28.924V13.0293C38.094 12.8193 37.926 12.6467 37.7113 12.6467C36.596 12.642 33.404 12.6327 33.404 12.656Z"
        fill="#1B9BD9"></path>
    <path
        d="M34.2673 13.5753H37.1606V29.022C37.2633 29.7453 37.6786 30.1513 38.3926 30.254H40.572V31.9853H30.4033V30.1093H32.4753C33.0913 30.03 33.5533 29.7267 33.698 28.966V18.942C33.6466 18.256 33.25 17.8733 32.6013 17.71H30.3846V16.0253H31.5466C32.928 15.932 33.9826 15.344 34.2673 13.5753Z"
        fill="#f50a2b"></path>
    <path d="M27.412 48.3093H18.0786V48.4353H27.412V48.3093Z" fill="#1B9BD9"></path>
    <path d="M52.2387 48.3093H42.9053V48.4353H52.2387V48.3093Z" fill="#1B9BD9"></path>
    <path d="M37.5527 46.466H28.2193V46.592H37.5527V46.466Z" fill="#1B9BD9"></path>
    <path d="M42.112 47.2593H28.112V47.3853H42.112V47.2593Z" fill="#1B9BD9"></path>
</svg>
