<svg width="70" height="70" viewBox="0 0 70 70" fill="none" xmlns="http://www.w3.org/2000/svg" role="img" alt=""
     icon="BrandApproved">
    <path d="M35 70C54.33 70 70 54.33 70 35C70 15.67 54.33 0 35 0C15.67 0 0 15.67 0 35C0 54.33 15.67 70 35 70Z"
          fill="#1D9CD3"></path>
    <path
        d="M21.7233 21.7187L24.164 16.2307L30.1373 16.856L35 13.328L39.8627 16.856L45.836 16.2307L48.2813 21.7233L53.7693 24.164L53.144 30.1373L56.672 35L53.144 39.8627L53.7693 45.836L48.2767 48.2813L45.836 53.7693L39.8627 53.144L35 56.672L30.1373 53.144L24.164 53.7693L21.7187 48.2767L16.2307 45.836L16.856 39.8627L13.328 35L16.856 30.1373L16.2307 24.164L21.7233 21.7187Z"
        fill="#1D9CD3"></path>
    <path
        d="M17.1547 24.6867L22.3534 22.372L24.6867 17.1453L30.3474 17.738L34.986 14.3873L39.6107 17.7427L45.2807 17.1453L47.6047 22.358L52.8174 24.682L52.234 30.3613L55.5754 34.9813L52.2247 39.6013L52.8267 45.2667L47.6047 47.5953L45.2854 52.8127L39.62 52.2247L34.986 55.5707L30.3567 52.2247L24.6867 52.8127L22.3767 47.6L17.1407 45.2667L17.7474 39.6013L14.3827 34.972L17.7474 30.352L17.1547 24.6867Z"
        fill="#F56F45"></path>
    <path
        d="M18.3307 25.3727L23.1933 23.212L25.3727 18.3213L30.6693 18.8767L35.0047 15.7407L39.3307 18.8813L44.632 18.3213L46.8067 23.198L51.6787 25.3727L51.1327 30.6787L54.2593 35L51.128 39.3213L51.688 44.6227L46.8067 46.7973L44.6413 51.6787L39.34 51.1233L35.0047 54.2593L30.674 51.1233L25.3727 51.6787L23.212 46.802L18.3213 44.6227L18.886 39.3213L15.7407 34.9953L18.886 30.674L18.3307 25.3727Z"
        fill="#1D9CD3"></path>
    <path
        d="M19.3853 26.012L23.9493 23.9867L25.9933 19.4087L30.9633 19.9267L35.028 16.996L39.0926 19.936L44.0627 19.4087L46.102 23.9727L50.6753 26.012L50.1667 30.9773L53.0973 35.028L50.1573 39.074L50.6847 44.0347L46.102 46.074L44.072 50.6427L39.0973 50.1247L35.028 53.06L30.968 50.1247L25.9933 50.6427L23.968 46.0787L19.376 44.0347L19.908 39.074L16.954 35.0187L19.908 30.9727L19.3853 26.012Z"
        fill="#F56F45"></path>
    <path
        d="M23.8326 37.0393L26.824 34.062L30.9213 38.1453L43.1853 25.886L46.1673 28.868L30.9166 44.114L23.8326 37.0393Z"
        fill="#1D9CD3"></path>
    <path
        d="M25.3027 37.0347L26.8473 35.4994L30.8467 39.5594L43.148 27.356L44.674 28.9147L30.9447 42.7374L25.3027 37.0347Z"
        fill="#F56F45"></path>
</svg>
