<svg xmlns="http://www.w3.org/2000/svg" xmlns:xlink="http://www.w3.org/1999/xlink" width="1000" height="1000" viewBox="0 0 1000 1000">
  <defs>
    <style>
      .cls-1 {
      clip-path: url(#clip-Youkeep_Icon_1);
      }

      .cls-2 {
      fill: none;
      }

      .cls-3 {
      fill: #e2f0cd;
      }

      .cls-4 {
      fill: #e2f0cd;
      }

      .cls-5 {
      fill: #fff;
      }

      .cls-6, .cls-7 {
      stroke: none;
      }

      .cls-7 {
      fill: #F56F45;
      }
    </style>
    <clipPath id="clip-Youkeep_Icon_1">
      <rect width="1000" height="1000"/>
    </clipPath>
  </defs>
  <g id="Youkeep_Icon_1" data-name="Youkeep_Icon – 1" class="cls-1">
    <g id="Path_3113" data-name="Path 3113" class="cls-2" transform="translate(98 159)">
      <path class="cls-6" d="M55,28h0Z"/>
      <path class="cls-7" d="M 0 28 L 55 28 L 0 28 Z"/>
    </g>
    <g id="Group_1981" data-name="Group 1981" transform="translate(243.908 11)">
      <g id="Group_1924" data-name="Group 1924">
        <g id="Group_1892" data-name="Group 1892">
          <path id="Cart_4_" class="cls-3" d="M775.08,207.612C743.7,115.74,625.5,74.057,509.483,75.492c-110.676,1.37-216.6,49.122-242.1,132.119h2.828c-10.849.3,148.463.1,336.679,0C685.326,207.57,775.08,207.612,775.08,207.612Zm-22.522,0H291.7c26.462-62.131,106.837-114,225.51-114.257,102.053.925,200.949,37.795,235.353,114.257Z" transform="translate(-267.387 -75.457)"/>
        </g>
      </g>
    </g>
    <g id="Group_1924-2" data-name="Group 1924" transform="translate(11 141.243)">
      <g id="Group_1892-2" data-name="Group 1892" transform="translate(0 0)">
        <path id="Subtraction_1" data-name="Subtraction 1" class="cls-4" d="M156.55,141.029a172.181,172.181,0,0,1-59.913-10.635A158.157,158.157,0,0,1,45.847,100.1a139.088,139.088,0,0,1-33.97-45.405A126.143,126.143,0,0,1,0,1.136C0,.825,0,.518,0,.207H313.5V0c0,.317,0,.639.005.958v.179a126.19,126.19,0,0,1-12.32,54.446,139.734,139.734,0,0,1-33.6,44.467,158.521,158.521,0,0,1-49.834,29.984,172.16,172.16,0,0,1-61.027,11Z" transform="translate(47.01 706.134)"/>
        <path id="Subtraction_2" data-name="Subtraction 2" class="cls-4" d="M156.544,221.449a172.178,172.178,0,0,1-59.91-10.635A158.191,158.191,0,0,1,45.842,180.52a139.14,139.14,0,0,1-33.965-45.407A126.149,126.149,0,0,1,0,81.555c0-.307,0-.62,0-.926H284.114V0C303.341,23.872,313.5,52.075,313.5,81.555A126.2,126.2,0,0,1,301.178,136a139.731,139.731,0,0,1-33.6,44.468,158.507,158.507,0,0,1-49.833,29.984,172.151,172.151,0,0,1-61.026,11Z" transform="translate(613.052 625.715)"/>
        <path id="Cart_4_2" data-name="Cart_4_" class="cls-4" d="M905.415,175.392c-35.515-1.261-134.3-2.137-134.3-2.137H142.476c-15.33.427-54.176,11.843-80.923,36.291-20.821,19.03-29.814,50.213-29.814,60.029l.12,550.962c-.03,14.87,3.958,37.945,31.925,61.474s70.158,32.64,79.941,32.64l759.11,1.005c17.1,0,46.854-7.126,74.472-32.447s32.343-61.92,32.343-68.934l.556-539.418c0-9.441-4.253-38.064-23.59-58.165C961.539,190.623,940.929,176.653,905.415,175.392Z" transform="translate(-31.739 -173.255)"/>
      </g>
    </g>
    <g id="Group_1995" data-name="Group 1995" transform="translate(291 267)">
      <path id="Path_3174" data-name="Path 3174" class="cls-5" d="M0,0,166.139,148.506h0L84.8,252.691,168.516,339,.914,490.533Z" transform="translate(0 0)"/>
      <path id="Path_3173" data-name="Path 3173" class="cls-5" d="M-5307.7,14005.021l-7.181,146.6-79.938,106.129,79.938,86.455v152.072h198.658l-210.366-238.527,210.912-252.729Z" transform="translate(5534.668 -14005.021)"/>
    </g>
  </g>
</svg>
