<svg xmlns="http://www.w3.org/2000/svg" xmlns:xlink="http://www.w3.org/1999/xlink" width="900" height="900" viewBox="0 0 900 900">
    <defs>
        <clipPath id="clip-Icon_3_Blue_1">
            <rect width="900" height="900"/>
        </clipPath>
    </defs>
    <g id="Icon_3_Blue_1" data-name="Icon_3_Blue – 1" clip-path="url(#clip-Icon_3_Blue_1)">
        <g id="Group_2030" data-name="Group 2030">
            <path id="Path_3254" data-name="Path 3254" d="M4905.333,12360" transform="translate(-4483.586 -11921.629)" fill="none" stroke="#fff" stroke-width="1"/>
            <g id="Group_1981" data-name="Group 1981" transform="translate(227.766 56)">
                <g id="Group_1924" data-name="Group 1924">
                    <g id="Group_1892" data-name="Group 1892">
                        <path id="Cart_4_" d="M685.674,184.339C659.817,108.646,562.434,74.3,466.849,75.486c-91.186,1.129-178.456,40.472-199.462,108.853h2.33c-8.939.25,122.319.082,277.389,0C611.726,184.3,685.674,184.339,685.674,184.339Zm-18.556,0h-379.7c21.8-51.189,88.023-93.928,185.8-94.136,84.081.762,165.562,31.139,193.907,94.136Z" transform="translate(-267.387 -75.457)" fill="#f50a2b"/>
                    </g>
                </g>
            </g>
            <g id="Group_1892-2" data-name="Group 1892" transform="translate(47 146)">
                <path id="Subtraction_1" data-name="Subtraction 1" d="M128.981,116.194a141.86,141.86,0,0,1-49.362-8.762,130.3,130.3,0,0,1-41.846-24.96A114.594,114.594,0,0,1,9.785,45.063,103.929,103.929,0,0,1,0,.936C0,.68,0,.427,0,.171H258.29V0c0,.261,0,.526,0,.789V.936a103.967,103.967,0,0,1-10.151,44.858,115.127,115.127,0,0,1-27.682,36.637,130.6,130.6,0,0,1-41.058,24.7,141.842,141.842,0,0,1-50.28,9.059Z" transform="translate(38.731 581.783)" fill="#f50a2b"/>
                <path id="Subtraction_2" data-name="Subtraction 2" d="M128.976,182.451a141.857,141.857,0,0,1-49.36-8.762A130.333,130.333,0,0,1,37.769,148.73,114.637,114.637,0,0,1,9.785,111.319,103.934,103.934,0,0,1,0,67.193c0-.253,0-.51,0-.763H234.081V0c15.841,19.668,24.209,42.9,24.209,67.193a103.975,103.975,0,0,1-10.15,44.858,115.125,115.125,0,0,1-27.68,36.637,130.594,130.594,0,0,1-41.057,24.7,141.835,141.835,0,0,1-50.279,9.059Z" transform="translate(505.092 515.525)" fill="#f50a2b"/>
                <path id="Cart_4_2" data-name="Cart_4_" d="M751.559,175.016c-29.26-1.039-110.646-1.761-110.646-1.761H122.975c-12.631.352-44.635,9.758-66.672,29.9-17.154,15.678-24.564,41.37-24.564,49.458l.1,453.936c-.025,12.251,3.261,31.263,26.3,50.648s57.8,26.892,65.864,26.892l625.429.828c14.087,0,38.6-5.871,61.358-26.733s26.647-51.016,26.647-56.795l.458-444.425c0-7.778-3.5-31.361-19.435-47.922C797.8,187.564,780.819,176.055,751.559,175.016Z" transform="translate(-31.739 -173.255)" fill="#f50a2b"/>
            </g>
            <g id="Group_2029" data-name="Group 2029" transform="translate(55.489 153.131)">
                <g id="Group_2019" data-name="Group 2019" transform="translate(265.511 66)">
                    <g id="placeholder" transform="translate(0 155.96)">
                        <path id="Path_3248" data-name="Path 3248" d="M110.779,0c-.982,0-1.922.978-2.607,2.71C107.726,3.836,97.146,30.7,86.4,67.164c-14.685,49.811-22.131,91.6-22.131,124.2,0,63.171,20.865,114.565,46.512,114.565s46.512-51.394,46.512-114.565c0-32.6-7.446-74.392-22.131-124.2C124.41,30.7,113.831,3.836,113.386,2.71,112.7.978,111.76,0,110.779,0Z" transform="translate(-64.267 0)" stroke-width="29" fill="#fff" stroke="none"/>
                    </g>
                    <g id="placeholder-2" data-name="placeholder" transform="translate(0 0)">
                        <path id="Path_3248-2" data-name="Path 3248" d="M110.779,297.231c-.982,0-1.922-.95-2.607-2.633-.445-1.094-11.025-27.2-21.774-62.621-14.685-48.395-22.131-88.994-22.131-120.671C64.267,49.932,85.132,0,110.779,0S157.29,49.932,157.29,111.307c0,31.677-7.446,72.277-22.131,120.671C124.41,267.4,113.831,293.5,113.386,294.6,112.7,296.282,111.76,297.231,110.779,297.231Z" transform="translate(-64.267 0)" stroke-width="29" fill="#fff" stroke="none"/>
                    </g>
                </g>
                <g id="Group_2027" data-name="Group 2027" transform="translate(309.163 122.532)">
                    <g id="placeholder-3" data-name="placeholder" transform="matrix(0.669, 0.743, -0.743, 0.669, 153.103, 0)">
                        <path id="Path_3248-3" data-name="Path 3248" d="M46.512,206.02A3.183,3.183,0,0,1,43.9,204.2a310.88,310.88,0,0,1-27.74-41.685C1.479,128.966,0,99.106,0,77.15,0,34.609,20.865,0,46.512,0S93.023,34.609,93.023,77.15c0,21.956-7.446,50.1-22.131,83.641a452.792,452.792,0,0,1-21.774,43.4A3.183,3.183,0,0,1,46.512,206.02Z" stroke-width="29" fill="#fff" stroke="none"/>
                    </g>
                    <g id="placeholder-4" data-name="placeholder" transform="translate(0 210.46) rotate(-48)">
                        <path id="Path_3248-4" data-name="Path 3248" d="M46.512,0A3.183,3.183,0,0,0,43.9,1.825c-.445.758-12.644,19.46-26.667,42.877C2.552,78.246,0,106.914,0,128.87c0,42.541,20.865,77.15,46.511,77.15s46.512-34.609,46.512-77.15c0-21.956-7.446-50.1-22.131-83.641a452.791,452.791,0,0,0-21.774-43.4A3.183,3.183,0,0,0,46.512,0Z" transform="translate(0 0)" stroke-width="29" fill="#fff" stroke="none"/>
                    </g>
                </g>
            </g>
        </g>
    </g>
</svg>
