<svg xmlns="http://www.w3.org/2000/svg" xmlns:xlink="http://www.w3.org/1999/xlink" width="1340" height="660" viewBox="0 0 1340 660">
  <defs>
    <style>
      .cls-1 {
        clip-path: url(#clip-Kshopit_2);
      }

      .cls-2 {
        fill: #F6AB1B;
      }

      .cls-3 {
        fill: #fb0028;
      }

      .cls-4 {
        fill: #FFFFFF;
      }
    </style>
    <clipPath id="clip-Kshopit_2">
      <rect width="1340" height="660"/>
    </clipPath>
  </defs>
  <g id="Kshopit_2" class="cls-1">
    <g id="Group_1860" data-name="Group 1860" transform="translate(-9027.654 -151)">
      <g id="Group_1852" data-name="Group 1852" transform="translate(9074 179.742)">
        <g id="Group_1840" data-name="Group 1840" transform="translate(69.423 428.458)">
          <path id="Wheel_2_4_" class="cls-2" d="M156.271,432.09a87.483,87.483,0,1,1-87.489,87.486A87.492,87.492,0,0,1,156.271,432.09Z" transform="translate(-68.781 -432.09)"/>
          <path id="Wheel_1_4_" class="cls-2" d="M390.447,432.09a87.567,87.567,0,1,1-87.466,87.486A87.5,87.5,0,0,1,390.447,432.09Z" transform="translate(-60.884 -432.09)"/>
        </g>
        <path id="Cart_4_" class="cls-3" d="M555.04,161.835H446.634c-17.543-54.779-82.051-90.429-146.9-89.573-61.869.817-122.648,40.086-136.9,89.573H50.491c-14.023,0-25.29,10.731-25.29,23.94V586.739c0,13.236,11.268,23.931,25.29,23.931H555.04c14.049,0,25.319-10.695,25.319-23.931V185.774C580.359,172.566,569.089,161.835,555.04,161.835Zm-127.027,0H181.7c14.793-37.046,65.6-74.4,118.034-74.856C353.757,86.508,408.779,116.244,428.013,161.835Z" transform="translate(-25.201 -72.247)"/>
        <g id="XMLID_1_" transform="translate(128.958 178.157)">
          <path id="XMLID_2_" class="cls-4" d="M270.308,391.846V344.333l63.452,86.211H459.09L442.158,400.19,335.187,384.7l93.159-5.829-17.893-26.309-96.838-12.789,82.779-8-17.37-25.027-112.905-9.682,103.994-10.84c5.882-8.577,20.045-28.7,20.045-28.7l-76.542-19.164s87.739,3.4,90.164,0c10.64-14.9,18.915-26.338,18.915-26.338l-87.506-14.8,106.971-5.161L459.1,161.2H329.694l-59.385,86.016V161.2h-111.9s.506,88.567,0,185.387l-.506,83.961H270.308Z" transform="translate(-157.9 -161.197)"/>
        </g>
      </g>
      <g id="Group_1853" data-name="Group 1853" transform="translate(9674.888 361.864)">
        <path id="Path_3096" data-name="Path 3096" class="cls-3" d="M60,228V493.69h44.358L104.815,410c4.868,5.086,9.231,10.69,13.848,16.005,12.525,14.421,24.89,28.982,37.369,43.443l14.176,16.463c1.98,2.295,4.11,5.912,6.861,7.3,1.59.8,3.76.47,5.486.47h52.132c-1.98-3.165-4.707-5.852-7.124-8.689Q220.7,476.95,213.723,469c-12.767-14.509-25.336-29.218-37.9-43.9-7.59-8.868-15.268-17.66-22.865-26.523-3.843-4.483-7.651-10.3-12.471-13.719,8.993-8.993,18.336-17.651,27.438-26.53,10.246-10,20.166-20.378,30.639-30.134,5.9-5.5,11.4-11.473,17.377-16.883,3.4-3.073,8.1-6.383,10.061-10.6H177.068c-1.657,0-3.845-.362-5.41.276-2.83,1.153-5.618,5.231-7.588,7.5-4.221,4.859-8.826,9.4-13.145,14.176-7.287,8.053-14.886,15.833-22.289,23.779-7.936,8.519-15.589,17.372-23.821,25.609V228H60m542.812,18.292V431.954c0,10.333-.549,19.952,3.407,29.724a53.925,53.925,0,0,0,37.75,31.7c8.419,1.786,18.47,1.194,26.981.384,6.114-.582,11.945-.856,17.835-2.822,1.66-.553,4.852-1.057,5.931-2.543.663-.912.471-2.344.471-3.4V449.789c-3.165.905-6.013,2.644-9.146,3.645a54.043,54.043,0,0,1-16.92,2.3c-4.166,0-7.865-.1-11.432-2.571-10.115-7.028-7.774-21.524-7.774-32.183V335.465h45.272V299.8H649.913v-53.5Z" transform="translate(-60 -228)"/>
        <path id="Path_3098" data-name="Path 3098" class="cls-3" d="M918.963,574.419h44.815V429.913c0-2.389-1.079-8.391.732-10.179,1.088-1.074,3.334-1.057,4.756-1.29,4.262-.7,8.533-.96,12.8-1.466a203.088,203.088,0,0,1,32.925-.8c7.326.321,14.711.5,21.95,1.847V391.958c0-2.281.96-7.412-.732-9.161-1.358-1.4-3.869-2.116-5.671-2.726-5.469-1.853-10.811-2.209-16.463-2.876-7.724-.911-15.621-.235-23.322.51-15.974,1.546-31.462,5.424-46.644,10.6a146.87,146.87,0,0,0-18.292,7.66c-1.964.982-5.2,1.956-6.389,3.922-.684,1.128-.47,2.705-.47,3.965V574.419Z" transform="translate(-524.315 -308.73)"/>
        <path id="Path_3111" data-name="Path 3111" class="cls-3" d="M565.27-600.32c-20.67,1.189-46.187,7.271-58.122,13.856l-2.7,1.509-.137,20.4c-.046,11.25,0,20.441.183,20.441.137,0,2.241-1.326,4.664-2.927,8.643-5.762,18.566-9.832,31.828-13.033,14.771-3.613,28.627-4.07,41.705-1.418,7.774,1.6,14.908,5.167,19.664,9.786,3.338,3.338,6.539,9.466,7.728,14.908.823,3.841,1.6,26.8.869,26.432-.229-.091-2.835-1.372-5.853-2.835a109.244,109.244,0,0,0-33.657-9.512c-7.271-.915-25.471-.777-32.011.229-28.9,4.482-46.1,19.161-51.172,43.672a92.036,92.036,0,0,0-.046,33.383c2.241,11.112,6.585,18.795,15,26.615,9.237,8.6,20.213,13.536,37.59,16.92,9.192,1.783,18.795,2.424,31.782,2.1,37.407-.869,60.18-7,72.573-19.527,5.076-5.122,8.368-12.256,9.466-20.67.686-4.939.686-99.371,0-105.407-1.555-14.268-6.494-25.2-15.411-34.252a52.38,52.38,0,0,0-15.868-11.3C607.2-598.948,589.964-601.737,565.27-600.32Zm14.176,109.431a103.678,103.678,0,0,1,27.575,5.35l4.207,1.418v17.972c0,11.3-.183,18.886-.5,20.35-1.783,8.369-10.838,11.615-34.023,12.164-8.414.229-11.387.137-14.954-.457a52.93,52.93,0,0,1-16.417-5.4c-7.18-3.75-10.472-7.134-12.987-13.4-1.692-4.161-2.1-12.347-.96-17.332,3.018-12.713,14.588-19.71,34.572-20.807,3.155-.183,6.219-.274,6.859-.229C573.456-491.163,576.428-491.026,579.447-490.888Z" transform="translate(-298.438 665.577)"/>
      </g>
    </g>
  </g>
</svg>
