<?xml version="1.0" encoding="UTF-8"?>
<!DOCTYPE svg PUBLIC "-//W3C//DTD SVG 1.1//EN" "http://www.w3.org/Graphics/SVG/1.1/DTD/svg11.dtd">
<!-- Creator: CorelDRAW 2018 (64-Bit Evaluation Version) -->
<svg xmlns="http://www.w3.org/2000/svg" xml:space="preserve" width="35.8775mm" height="35.6659mm" version="1.1" style="shape-rendering:geometricPrecision; text-rendering:geometricPrecision; image-rendering:optimizeQuality; fill-rule:evenodd; clip-rule:evenodd"
viewBox="0 0 750.5 746.08"
 xmlns:xlink="http://www.w3.org/1999/xlink">
 <defs>
  <style type="text/css">
   <![CDATA[
    .fil1 {fill:#3B9CFF}
    .fil3 {fill:#FFFFFF}
    .fil0 {fill:#FBD13E}
    .fil2 {fill:#FBD13E}
   ]]>
  </style>
 </defs>
 <g id="Layer_x0020_1">
  <metadata id="CorelCorpID_0Corel-Layer"/>
  <path class="fil0" d="M175.53 209.76l359.76 0c12.18,0 22.14,9.96 22.14,22.14l0 26.57 -404.04 0 0 -26.57c0,-12.18 9.96,-22.14 22.14,-22.14zm381.9 102.95l0 152.76c0,12.18 -9.96,22.14 -22.14,22.14l-359.76 0c-12.18,0 -22.14,-9.96 -22.14,-22.14l0 -152.76 404.04 0z"/>
  <path class="fil1" d="M212.53 0l325.44 0c116.89,0 212.53,95.64 212.53,212.53l0 321.01c0,116.89 -95.64,212.53 -212.53,212.53l-325.44 0c-116.89,0 -212.53,-95.64 -212.53,-212.53l0 -321.01c0,-116.89 95.64,-212.53 212.53,-212.53zm-37 209.76l359.76 0c12.18,0 22.14,9.96 22.14,22.14l0 26.57 -404.04 0 0 -26.57c0,-12.18 9.96,-22.14 22.14,-22.14zm381.9 114.39l59.78 0 0 54.24 -59.78 0 0 87.07c0,12.18 -9.96,22.14 -22.14,22.14l-359.76 0c-12.18,0 -22.14,-9.96 -22.14,-22.14l0 -152.76 404.04 0 0 11.44z"/>
  <polygon class="fil2" points="197.67,342.48 396.92,342.48 396.92,356.87 197.67,356.87 "/>
  <polygon class="fil2" points="198.22,370.27 281.8,370.27 281.8,384.66 198.22,384.66 "/>
  <polygon class="fil2" points="353.75,428.94 198.78,428.94 198.78,443.33 353.75,443.33 "/>
  <polygon class="fil2" points="443.41,342.6 512.6,342.6 512.6,396.84 443.41,396.84 "/>
  <polygon class="fil3" points="153.39,258.47 557.43,258.47 557.43,312.71 153.39,312.71 "/>
  <polygon class="fil2" points="557.43,324.16 617.21,324.16 617.21,378.4 557.43,378.4 "/>
  <path class="fil3" d="M557.43 275.45l37.64 0c12.18,0 22.14,9.96 22.14,22.14l0 26.57 -59.78 0 0 -48.71zm59.78 102.95l0 152.76c0,12.18 -9.96,22.14 -22.14,22.14l-359.76 0c-12.18,0 -22.14,-9.96 -22.14,-22.14l0 -43.55 322.12 0c12.18,0 22.14,-9.96 22.14,-22.14l0 -87.07 59.78 0z"/>
 </g>
</svg>
