<?xml version="1.0" encoding="UTF-8"?>
<!DOCTYPE svg PUBLIC "-//W3C//DTD SVG 1.1//EN" "http://www.w3.org/Graphics/SVG/1.1/DTD/svg11.dtd">
<!-- Creator: CorelDRAW 2018 (64-Bit Evaluation Version) -->
<svg xmlns="http://www.w3.org/2000/svg" xml:space="preserve" width="35.8775mm" height="35.6659mm" version="1.1" style="shape-rendering:geometricPrecision; text-rendering:geometricPrecision; image-rendering:optimizeQuality; fill-rule:evenodd; clip-rule:evenodd"
viewBox="0 0 1269.15 1261.66"
 xmlns:xlink="http://www.w3.org/1999/xlink">
 <defs>
  <style type="text/css">
   <![CDATA[
    .fil3 {fill:#3B9CFF}
    .fil4 {fill:#FFFFFF}
    .fil0 {fill:#13ECAB}
    .fil2 {fill:#13ECAB}
    .fil1 {fill:#FFFFFF;}
   ]]>
  </style>
 </defs>
 <g id="Layer_x0020_1">
  <metadata id="CorelCorpID_0Corel-Layer"/>
  <polygon class="fil0" points="803.47,383.24 976.62,383.24 976.62,362.13 828.69,218.48 803.47,218.48 "/>
  <polygon class="fil1" points="492.8,488.76 763.29,488.76 763.29,511.23 492.8,511.23 "/>
  <polygon class="fil2" points="795.11,488.76 893.38,488.76 893.38,509.35 795.11,509.35 "/>
  <polygon class="fil2" points="795.11,538.84 893.38,538.84 893.38,559.43 795.11,559.43 "/>
  <polygon class="fil2" points="795.11,588.92 893.38,588.92 893.38,609.51 795.11,609.51 "/>
  <polygon class="fil2" points="795.11,638.99 893.38,638.99 893.38,659.58 795.11,659.58 "/>
  <polygon class="fil2" points="795.11,813.07 893.38,813.07 893.38,833.66 795.11,833.66 "/>
  <polygon class="fil1" points="492.8,539.3 667.82,539.3 667.82,558.96 492.8,558.96 "/>
  <polygon class="fil1" points="494.67,592.65 733.34,592.65 733.34,614.18 494.67,614.18 "/>
  <polygon class="fil1" points="494.67,638.51 712.75,638.51 712.75,659.11 494.67,659.11 "/>
  <polygon class="fil1" points="494.67,760.19 888.71,760.19 888.71,778.91 494.67,778.91 "/>
  <path class="fil3" d="M359.41 0l550.34 0c197.67,0 359.41,161.73 359.41,359.41l0 542.85c0,197.67 -161.73,359.41 -359.41,359.41l-550.34 0c-197.67,0 -359.41,-161.73 -359.41,-359.41l0 -542.85c0,-197.67 161.73,-359.41 359.41,-359.41zm135.27 760.19l394.04 0 0 18.72 -394.04 0 0 -18.72zm0 -121.67l218.08 0 0 20.59 -218.08 0 0 -20.59zm0 -45.86l238.67 0 0 21.53 -238.67 0 0 -21.53zm-1.87 -53.35l175.03 0 0 19.66 -175.03 0 0 -19.66zm302.31 273.77l98.27 0 0 20.59 -98.27 0 0 -20.59zm0 -174.08l98.27 0 0 20.59 -98.27 0 0 -20.59zm0 -50.08l98.27 0 0 20.59 -98.27 0 0 -20.59zm0 -50.08l98.27 0 0 20.59 -98.27 0 0 -20.59zm0 -50.08l98.27 0 0 20.59 -98.27 0 0 -20.59zm-302.31 0l270.49 0 0 22.46 -270.49 0 0 -22.46zm310.68 -105.52l173.15 0 0 -21.11 -147.93 -143.66 -25.22 0 0 164.76z"/>
  <path class="fil4" d="M420.44 218.48l383.03 -0 -1.16 165.67 174.09 -1.87 0 625.75 -509.16 0 -46.8 0c-34.2,3.45 -54.25,-15.6 -56.63,-62.76l4.68 -556.82c0.77,-23.57 32.06,-23.4 32.76,1.52l-5.63 550.74c1.91,21.43 10.43,33.57 24.82,37.45l0 -759.69zm74.23 541.71l394.04 0 0 18.72 -394.04 0 0 -18.72zm0 -121.67l218.08 0 0 20.59 -218.08 0 0 -20.59zm0 -45.86l238.67 0 0 21.53 -238.67 0 0 -21.53zm-1.87 -53.35l175.03 0 0 19.66 -175.03 0 0 -19.66zm302.31 273.77l98.27 0 0 20.59 -98.27 0 0 -20.59zm0 -174.08l98.27 0 0 20.59 -98.27 0 0 -20.59zm0 -50.08l98.27 0 0 20.59 -98.27 0 0 -20.59zm0 -50.08l98.27 0 0 20.59 -98.27 0 0 -20.59zm0 -50.08l98.27 0 0 20.59 -98.27 0 0 -20.59zm-302.31 0l270.49 0 0 22.46 -270.49 0 0 -22.46z"/>
 </g>
</svg>
