<?xml version="1.0" encoding="UTF-8"?>
<!DOCTYPE svg PUBLIC "-//W3C//DTD SVG 1.1//EN" "http://www.w3.org/Graphics/SVG/1.1/DTD/svg11.dtd">
<!-- Creator: CorelDRAW 2018 (64-Bit Evaluation Version) -->
<svg xmlns="http://www.w3.org/2000/svg" xml:space="preserve" width="35mm" height="35mm" version="1.1" style="shape-rendering:geometricPrecision; text-rendering:geometricPrecision; image-rendering:optimizeQuality; fill-rule:evenodd; clip-rule:evenodd"
viewBox="0 0 2718.92 2718.92"
 xmlns:xlink="http://www.w3.org/1999/xlink">
 <defs>
  <style type="text/css">
   <![CDATA[
    .fil3 {fill:none}
    .fil4 {fill:#FFC83A}
    .fil0 {fill:#006648}
    .fil1 {fill:#FFFFFF;}
    .fil2 {fill:#FFFFFF;}
   ]]>
  </style>
 </defs>
 <g id="Layer_x0020_1">
  <metadata id="CorelCorpID_0Corel-Layer"/>
  <rect class="fil0" x="0" y="0" width="2718.92" height="2718.92" rx="537.28" ry="537.28"/>
  <path class="fil1" d="M1072.18 950.15c10.81,-0.36 16.82,1.72 26.33,2.31l24.91 3.85c6.81,1.93 15.81,3.94 22.57,6.39 33.01,11.98 39.5,17.02 66.5,35.22 11.05,7.46 13.12,10 23.55,19.36 14.51,13.02 29.12,32.55 39.51,48.93 8.13,12.82 9.28,17.17 15.15,29.39 6.8,14.14 7.44,21.32 11.63,33.21 10.33,29.33 10.79,83.4 3.54,113.28 -6.78,27.95 -5.12,20.8 -13.42,44.32 -2.52,7.15 -6.58,13.27 -9.38,19.66 -8.29,18.86 -35.9,52.67 -50.9,66.11l-8.14 6.6c-3.61,2.92 -4.99,4.26 -8.04,6.67 -9.59,7.61 -25.81,17.32 -36.33,22.89 -12.84,6.81 -29.02,13.56 -42.33,17.26 -59.29,16.48 -110.02,12.09 -166.41,-10.98 -7.73,-3.15 -13.54,-6.75 -20.07,-9.99 -22.78,-11.3 -41.22,-29.38 -58.12,-45.35 -7.78,-7.35 -7.51,-8.37 -13.7,-15.72 -2.51,-2.98 -4.43,-5.16 -6.56,-8.21l-17.16 -27.2c-1.32,-2.29 -1.15,-2.18 -2.47,-5 -9.77,-20.87 -16.72,-38.45 -21.99,-61.34l-4.89 -39.81 2.14 -42.15c5.24,-34.19 17.18,-66.85 35.18,-96.25 9.19,-14.99 18.92,-24.95 29.34,-37.52 4.87,-5.87 7.05,-6.36 11.27,-10.8 5.68,-5.97 9.3,-8.51 15.96,-13.52 15.12,-11.38 17.59,-13.79 35.72,-23.42 13.03,-6.92 27.59,-12.57 42.76,-17.88 8.66,-3.04 42.62,-9.26 50.81,-9.53l23.06 -0.77zm-212.13 478.39c0.86,-2.94 9.82,-14.32 13.79,-15.19 3.86,-0.85 3.28,0.14 5.65,2.37 10.91,10.29 29.07,22.72 42.8,30.28 8.12,4.46 15.04,8.3 23.9,12.42 18.15,8.43 61.99,23.24 83.92,24.09 12.2,0.48 19.64,2.7 33.66,2.38 22.88,-0.51 46.38,-0.96 69.05,-6.43l56 -18.92c4.01,-1.49 8.93,-4.39 12.79,-6.3 12.44,-6.17 22.89,-12.8 34.54,-20.49 29.48,-19.47 51.42,-45.03 72.93,-72.9 9.6,-12.45 19.91,-31.59 26.36,-46.4 6.82,-15.68 9.18,-25.62 14.65,-40.12 6.37,-16.9 6.85,-36.17 8.97,-44.43 2.23,-8.68 1.41,-24 1.95,-33.98 0.66,-12.23 -0.75,-22.61 -1.99,-34.65 -0.57,-5.62 -0.64,-12.16 -1.63,-17.84 -2.41,-13.95 -8.03,-29.84 -11.49,-43.86 -3.97,-16.06 -15.33,-37.27 -23.22,-51.27 -13.02,-23.12 -29.4,-43.83 -47.78,-61.79 -6.3,-6.15 -11.11,-10.82 -19.05,-17.63 -10.42,-8.93 -21.18,-15.51 -32.15,-23.17 -14.92,-10.4 -31.83,-16.96 -48.18,-24.47 -2.73,-1.25 -3.58,-1.23 -6.91,-2.44 -2.84,-1.04 -2.29,-1.31 -5.93,-2.39 -28.77,-8.51 -27.3,-8.14 -58.95,-12.76 -13.28,-1.94 -19.47,-2.15 -33.19,-2.07 -54.89,0.33 -92.56,9.9 -136.4,32.36 -4.2,2.15 -7.94,3.94 -11.79,6.23 -4.35,2.59 -8.06,4.67 -11.82,7.22 -11.4,7.74 -20.81,13.84 -31.35,23.44 -16.16,14.72 -22.06,20.7 -35.98,36.43 -10.6,11.99 -22.46,29.12 -29.72,43.29 -22.59,44.05 -37.91,85.09 -37.59,142.56 0.12,20.83 2.26,48.52 8.09,67.43 1.83,5.95 1.68,9.18 3.97,15.24 1.06,2.77 1.01,4.91 1.9,7.75 5.37,17.21 14.15,35.65 22.68,51.71 1.01,1.91 1.69,3.1 3.05,5.47l7.26 11.75c7.5,11.31 14.58,21.34 23.51,31.33 4.73,5.3 14.7,13.77 16.2,19.42 -1.65,2.22 -12.86,14.17 -15.09,15.38 -12.68,-7.12 -26.58,-35.43 -48.28,-15.91l-14.81 14.57c-18.47,16.75 -34.76,36.66 -52.48,52.47 -3.51,3.14 -6.07,6.14 -9.52,9.35 -5.73,5.34 -13.2,13.93 -19.17,19.63l-76.65 76.56c-17.15,18.16 -46.4,38.43 -48.83,65.12 -0.5,5.54 -0.33,12.92 0.18,18.67 0.76,8.69 1.16,8.09 3.78,15.21 10.62,28.84 41.38,44.77 71.8,38.97 14.99,-2.85 27.88,-10.44 36.67,-21.6 2.67,-3.39 4.98,-6.42 8.64,-10.23 12.27,-12.77 23.44,-27.94 35.83,-40.57l116.34 -132.84c9.1,-10.42 31.82,-32.07 32.15,-43.5 0.6,-21.3 -18.13,-22.04 -23.09,-34.98z"/>
  <polygon class="fil2" points="1761.24,853.91 2141.48,853.91 2141.48,807.56 1816.63,492.09 1761.24,492.09 "/>
  <path class="fil3" d="M1078.99 1085.64l207.1 0c1.31,2.86 2.71,5.99 4.61,9.94 6.8,14.14 7.45,21.32 11.63,33.21 0.69,1.95 1.33,4.02 1.93,6.18l-225.27 0 0 -49.33zm262.69 0l331.31 0 0 49.33 -317.12 0c-2.78,-11.99 -7.11,-24.84 -9.97,-36.42 -0.99,-4.05 -2.46,-8.41 -4.23,-12.91z"/>
  <polygon class="fil3" points="1742.88,1085.64 1958.69,1085.64 1958.69,1130.86 1742.88,1130.86 "/>
  <polygon class="fil3" points="1742.88,1195.61 1958.69,1195.61 1958.69,1240.83 1742.88,1240.83 "/>
  <polygon class="fil3" points="1742.88,1305.58 1958.69,1305.58 1958.69,1350.8 1742.88,1350.8 "/>
  <polygon class="fil3" points="1742.88,1415.55 1958.69,1415.55 1958.69,1460.77 1742.88,1460.77 "/>
  <polygon class="fil3" points="1742.88,1797.84 1958.69,1797.84 1958.69,1843.06 1742.88,1843.06 "/>
  <path class="fil3" d="M1078.99 1196.63l231.76 0c-0.22,15.93 -1.72,31.24 -4.36,43.17l-227.4 0 0 -43.17zm281.95 0l102.41 0 0 43.17 -106.06 0c0.59,-4.47 1.1,-8.27 1.78,-10.91 2.11,-8.2 1.5,-22.3 1.87,-32.25z"/>
  <path class="fil3" d="M1083.1 1313.79l195.99 0c-8.34,14.56 -23.35,33.71 -35.86,47.27l-160.13 0 0 -47.27zm252.19 0l271.93 0 0 47.27 -299.08 0 0.94 -1.22c9.52,-12.35 19.75,-31.29 26.21,-46.05z"/>
  <path class="fil3" d="M1083.1 1414.5l83.93 0c-9.9,4.5 -20.5,8.51 -29.72,11.08 -18.78,5.22 -36.7,8.34 -54.21,9.45l0 -20.52zm176.81 0l302.1 0 0 45.22 -373.74 0 0.55 -0.19c4.01,-1.49 8.93,-4.39 12.8,-6.3 12.43,-6.17 22.87,-12.79 34.53,-20.49 8.49,-5.61 16.35,-11.71 23.76,-18.24z"/>
  <polygon class="fil3" points="1083.1,1681.7 1948.42,1681.7 1948.42,1722.81 1083.1,1722.81 "/>
  <path class="fil4" d="M920.1 492.09l841.14 -0.01 -2.54 363.82 382.3 -4.11 0 1374.17 -1118.13 0 -102.77 0c-75.1,7.58 -119.14,-34.27 -124.36,-137.83l4.39 -523.06 50.86 -58.07c4.85,-5.55 13.54,-14.27 20.67,-22.95l-6.07 594.07c4.19,47.06 22.9,73.73 54.5,82.25l0 -715.62 2.19 1.23c8.11,4.47 15.04,8.32 23.9,12.43 18.14,8.44 61.99,23.24 83.92,24.09 12.2,0.48 19.64,2.7 33.65,2.38 22.89,-0.51 46.38,-0.96 69.07,-6.44l55.44 -18.74 373.74 0 0 -45.22 -302.1 0c17.95,-15.8 33.23,-34.05 48.23,-53.44l299.08 0 0 -47.27 -271.93 0 0.15 -0.35c6.82,-15.68 9.18,-25.61 14.65,-40.13 4.33,-11.47 5.94,-24.04 7.19,-33.51l106.06 0 0 -43.17 -102.41 0 0.08 -1.72c0.65,-12.23 -0.75,-22.61 -1.99,-34.65 -0.57,-5.62 -0.64,-12.15 -1.63,-17.84 -0.42,-2.43 -0.93,-4.92 -1.52,-7.44l317.12 0 0 -49.33 -331.31 0c-5.24,-13.38 -13.09,-27.89 -18.99,-38.36 -13.03,-23.12 -29.4,-43.82 -47.78,-61.8 -6.3,-6.14 -11.11,-10.81 -19.05,-17.61 -10.42,-8.93 -21.18,-15.53 -32.15,-23.17 -14.92,-10.4 -31.82,-16.95 -48.19,-24.46 -2.72,-1.26 -3.57,-1.24 -6.9,-2.45 -2.84,-1.03 -2.3,-1.31 -5.92,-2.39 -28.77,-8.51 -27.31,-8.14 -58.96,-12.76 -13.28,-1.94 -19.47,-2.15 -33.19,-2.07 -54.89,0.33 -92.57,9.9 -136.4,32.37 -4.19,2.14 -7.93,3.93 -11.78,6.23l-2.27 1.34 0 -448.42zm-118.58 907.67l0.72 -86.07c3.3,7.08 6.83,14.01 10.3,20.56 1.01,1.91 1.69,3.1 3.05,5.47l7.26 11.75c7.5,11.32 14.6,21.35 23.51,31.32 4.74,5.3 14.7,13.78 16.21,19.43 -1.66,2.22 -12.86,14.16 -15.09,15.38 -12.22,-6.87 -25.58,-33.43 -45.97,-17.84zm2.79 -331.5l1.7 -202.92c1.69,-51.77 70.41,-51.4 71.94,3.34l-1.06 103.24c-14.46,13.23 -20.44,19.37 -33.68,34.33 -10.6,11.99 -22.46,29.12 -29.72,43.29 -3.22,6.28 -6.28,12.5 -9.19,18.71zm71.83 -22.72l-2.97 290.79 -0.71 -1.01 -17.15 -27.19c-1.33,-2.29 -1.15,-2.18 -2.48,-4.99 -9.78,-20.87 -16.73,-38.46 -21.98,-61.34l-4.9 -39.81 2.14 -42.16c5.24,-34.18 17.18,-66.86 35.18,-96.25 4.18,-6.81 8.47,-12.59 12.88,-18.05zm-3.76 368.44l-0.29 27.61c-4.79,-3.87 -9.82,-7.22 -12.06,-13.05 0.78,-2.62 7.99,-11.96 12.34,-14.56zm47.71 -29.85l0 -382.58c14.9,-11.19 17.43,-13.65 35.45,-23.22 13.03,-6.92 27.6,-12.57 42.76,-17.88 8.66,-3.04 42.62,-9.25 50.81,-9.53l23.06 -0.76c10.81,-0.37 16.82,1.72 26.33,2.3l24.9 3.84c6.81,1.93 15.82,3.95 22.57,6.39 33.01,11.98 39.5,17.02 66.5,35.23 11.05,7.45 13.12,9.99 23.55,19.35 14.5,13.02 29.12,32.55 39.51,48.93 5.5,8.67 7.81,13.47 10.53,19.44l-207.1 0 0 49.33 225.27 0c4.73,17 6.8,39.9 6.49,61.66l-231.76 0 0 43.17 227.4 0 -0.52 2.28c-6.79,27.95 -5.12,20.8 -13.42,44.31 -2.53,7.15 -6.59,13.28 -9.39,19.66 -1.04,2.37 -2.38,4.97 -3.97,7.74l-195.99 0 0 47.27 160.13 0c-4.06,4.4 -7.85,8.22 -11.07,11.1l-8.14 6.59c-3.61,2.93 -4.99,4.26 -8.04,6.68 -9.59,7.61 -25.81,17.31 -36.32,22.89 -3.95,2.1 -8.22,4.18 -12.62,6.18l-83.93 0 0 20.52c-37.78,2.38 -73.67,-4.65 -112.2,-20.42 -7.72,-3.15 -13.54,-6.75 -20.07,-9.99 -11.18,-5.55 -21.32,-12.72 -30.73,-20.49zm163 297.57l865.32 0 0 41.11 -865.32 0 0 -41.11zm659.77 116.14l215.81 0 0 45.22 -215.81 0 0 -45.22zm0 -382.29l215.81 0 0 45.22 -215.81 0 0 -45.22zm0 -109.97l215.81 0 0 45.22 -215.81 0 0 -45.22zm0 -109.97l215.81 0 0 45.22 -215.81 0 0 -45.22zm0 -109.97l215.81 0 0 45.22 -215.81 0 0 -45.22z"/>
 </g>
</svg>
