<?xml version="1.0" encoding="UTF-8"?>
<!DOCTYPE svg PUBLIC "-//W3C//DTD SVG 1.1//EN" "http://www.w3.org/Graphics/SVG/1.1/DTD/svg11.dtd">
<!-- Creator: CorelDRAW 2018 (64-Bit Evaluation Version) -->
<svg xmlns="http://www.w3.org/2000/svg" xml:space="preserve" width="200.342mm" height="137.993mm" version="1.1" style="shape-rendering:geometricPrecision; text-rendering:geometricPrecision; image-rendering:optimizeQuality; fill-rule:evenodd; clip-rule:evenodd"
viewBox="0 0 21752.82 14983.08"
 xmlns:xlink="http://www.w3.org/1999/xlink">
 <defs>
  <style type="text/css">
   <![CDATA[
    .str0 {stroke:white;stroke-width:45.96;stroke-miterlimit:22.9256}
    .fil16 {fill:none}
    .fil3 {fill:#C4E1FF}
    .fil2 {fill:#E5F2FF}
    .fil15 {fill:#3B9CFF;fill-rule:nonzero}
    .fil4 {fill:#FFFFFF;fill-rule:nonzero}
    .fil12 {fill:white;fill-rule:nonzero}
    .fil0 {fill:#FFFFFF}
    .fil5 {fill:#FBD13E;fill-opacity:0.470588}
    .fil8 {fill:#FBD13E;fill-rule:nonzero;fill-opacity:0.470588}
    .fil11 {fill:#3B9CFF;fill-opacity:0.490196}
    .fil14 {fill:#3B9CFF;fill-opacity:0.960784}
    .fil13 {fill:#C4E1FF;fill-opacity:0.960784}
    .fil1 {fill:#E5F2FF;fill-opacity:0.960784}
    .fil7 {fill: #fef1c5;}
    .fil9 {fill:#3B9CFF}
    .fil6 {fill:#FBD13E}
    .fil10 {fill:#3B9CFF;fill-rule:nonzero}
   ]]>
  </style>
 </defs>
 <g id="Layer_x0020_1">
  <metadata id="CorelCorpID_0Corel-Layer"/>
  <g id="_2467842822576">
   <path class="fil0" d="M17131.99 5236.27c-547.3,-32.53 -635.93,135.93 -655.44,551.68l4.19 7817.98c-6.31,540.63 132.05,787.5 526.99,816.81l3476.3 8.46c564.31,41.17 760.86,-276.76 747.19,-799.9l0 -7787.26c-7.2,-491.09 -183.42,-633.86 -641.13,-630.59l-398.48 391.85 -2640.37 10.76 -419.24 -379.79z"/>
   <path class="fil1" d="M20687.48 14588.97l-3534.75 17.95c-755.86,18.84 -855.03,-351.23 -836.34,-1040.48l3.51 -7969.23c39.06,-286.6 177.43,-462.24 428.18,-512.28l435.26 -0.2c126.79,50.13 178,373.56 528.78,372.63l2321.58 0.42c346.39,-69.56 313.07,-349.95 549.37,-376.96l385.43 10.65c261.9,37.42 399.41,296.2 402.88,593.55l4.93 8170.45c0.26,442.07 -191.79,730.98 -688.83,733.5zm-3966.52 -9895.69c-475.08,75.09 -751.98,381.48 -741.43,1023.16l-23.54 8287.69c-14.65,655.76 365.79,945.77 1023.62,978.95l3846.09 -3.24c514.69,10.89 832.14,-231.05 904.77,-786.77l22.35 -8508.33c-11.73,-568.03 -473.91,-993.22 -1018.71,-990l-4013.14 -1.47z"/>
   <path class="fil2" d="M16033.63 12401.2l-15115.99 0c-497.43,0 -904.32,-210.66 -904.32,-468.2l0 -88.24 -13.32 0 0 -660.06 16040.53 0 -2.38 419.31 -4.53 797.19z"/>
   <path class="fil2" d="M16040.53 11184.7l-13206.42 0c-113.27,-10.61 -228.31,-131.15 -228.31,-244.95l0 -9469.97c0,-689.55 10.92,-698.22 1116.31,-698.22l13908.19 0c1137.88,0 1097.13,-2.96 1097.14,693.03l0.11 3229.43 787.32 -1.61 11.94 -3863.23c1.4,-456.07 -360.34,-829.18 -800.8,-829.18l-16099.62 0c-440.46,0 -800.8,373.12 -800.8,829.18l0 10355.52 14214.94 0z"/>
   <path class="fil0" d="M3436.47 1036.28l14460.35 -0.51c580.04,-0.02 569.46,5.03 570.07,581.64l3.25 3076.5 -1584.63 -0.59c-418.72,-15.23 -873.15,194.04 -905.93,897.7l-14.83 5333.07 -12528.27 0c-554.03,0 -570.07,4.77 -570.07,-581.64l0 -8724.53c0,-586.4 9.53,-581.62 570.07,-581.64zm259.86 493.12l13751.55 0c153.77,0 279.54,128.45 279.54,285.21l0 1314.87c0,156.78 -125.87,285.2 -279.54,285.2l-13751.55 0c-153.64,0 -279.54,-128.33 -279.54,-285.2l0 -1314.87c0,-156.87 125.79,-285.21 279.54,-285.21z"/>
   <rect class="fil3" x="6657.57" y="7674.13" width="1954.41" height="1977.77" rx="248.14" ry="249.82"/>
   <rect class="fil3" x="10029.07" y="7694.06" width="1954.42" height="1957.62" rx="170.26" ry="187.24"/>
   <rect class="fil3" x="13157.92" y="7724.01" width="1954.41" height="1927.33" rx="170.75" ry="186.02"/>
   <rect class="fil3" x="13157.92" y="4677.56" width="1954.41" height="1109.98" rx="207.19" ry="217.16"/>
   <rect class="fil3" x="3405.69" y="4638.06" width="2098.88" height="5011.31" rx="323.24" ry="321.06"/>
   <rect class="fil3" x="6655.71" y="6626.05" width="5328.91" height="645.81" rx="329.21" ry="322.92"/>
   <polygon class="fil4" points="6688.16,5362.19 6688.16,5024.38 6733.75,5024.38 6733.75,5362.19 "/>
   <path id="1" class="fil4" d="M6861.63 5238.71l0 123.48 -44.61 0 0 -228.97 44.61 0 0 34.41c6.54,-12.75 16.34,-22.56 29.5,-29.26 13.07,-6.7 27.13,-10.04 42.08,-10.04 28.76,0 50.41,8.82 65.05,26.56 15.28,17.41 23.04,42.41 23.2,74.93l0 132.38 -44.61 0 0 -129.44c0,-19.28 -4.58,-34.16 -13.65,-44.54 -8.83,-10.87 -21.82,-16.27 -39.07,-16.27 -17.41,0 -32.19,5.65 -44.29,17 -12.17,11.27 -18.22,27.95 -18.22,49.76z"/>
   <path id="2" class="fil4" d="M7109.07 5145.06c15.28,-11.19 33.75,-16.74 55.48,-16.74 21.65,0 39.63,5.55 53.77,16.67 14.22,11.11 22.31,26.96 24.19,47.56l-42.57 0c-1.31,-7.44 -5.23,-13.4 -11.77,-17.89 -7.19,-4.42 -15.11,-6.62 -23.94,-6.62 -8.74,0 -16.18,1.88 -22.23,5.65 -6.54,2.93 -10.62,8.09 -12.42,15.28 -1.72,7.19 -1.47,12.91 0.74,17.16 3.67,7.36 12.66,13.07 26.96,17.17l33.76 8.25c39.63,9.73 59.4,32.03 59.4,66.93 0,20.67 -8.58,37.34 -25.82,50.17 -17.41,12.33 -37.75,18.47 -61.04,18.47 -23.38,0 -43.64,-6.71 -60.88,-20.18 -17.24,-13.41 -25.98,-31.22 -26.31,-53.53l42.16 0c1.88,11.85 7.93,20.6 18.22,26.15 9.97,6.3 20.76,9.08 32.37,8.43 11.6,-0.66 20.59,-3.77 26.96,-9.32 6.37,-5.65 9.97,-12.42 10.79,-20.43 0.65,-8 -1.8,-14.38 -7.44,-19.2 -5.56,-4.83 -13.25,-8.34 -22.96,-10.54l-31.38 -7.27c-22.15,-5.97 -38.49,-14.71 -48.95,-26.4 -10.05,-12.1 -14.22,-27.21 -12.42,-45.43 1.72,-18.23 10.22,-32.93 25.33,-44.3z"/>
   <polygon id="3" class="fil4" points="7370.07,5049.37 7370.07,5133.22 7418.12,5133.22 7418.12,5172.93 7370.07,5172.93 7370.07,5362.19 7325.45,5362.19 7325.45,5172.93 7284.26,5172.93 7284.26,5133.22 7325.45,5133.22 7325.45,5049.37 "/>
   <path id="4" class="fil4" d="M7627.79 5302.86c14.71,-13.72 22.06,-32.19 22.06,-55.48 0,-23.29 -7.68,-41.67 -22.95,-55.08 -15.36,-13.4 -33.43,-20.17 -54.18,-20.35 -20.84,0 -38.24,6.95 -52.3,20.85 -14.05,13.72 -21.08,31.7 -21.08,54.09 0,22.3 7.19,40.7 21.56,54.99 14.39,14.38 32.12,21.57 53.2,21.57 21.09,0 38.98,-6.87 53.68,-20.6zm67.18 59.33l-44.61 0 0 -35.14c-7.2,12.01 -18.07,21.65 -32.61,29.01 -14.55,7.35 -30.4,11.03 -47.72,11.03 -31.72,0 -59.25,-11.12 -82.54,-33.34 -22.46,-22.15 -33.75,-50.91 -33.75,-86.12 0,-35.31 11.12,-63.99 33.26,-85.97 22.23,-22.06 49.92,-33.17 83.11,-33.33 16.59,0 32.61,3.43 47.88,10.29 15.04,7.51 25.82,17.16 32.37,29.01l0 -34.41 44.61 0 0 228.97z"/>
   <path id="5" class="fil4" d="M7813.54 5238.71l0 123.48 -44.61 0 0 -228.97 44.61 0 0 34.41c6.54,-12.75 16.34,-22.56 29.5,-29.26 13.07,-6.7 27.13,-10.04 42.08,-10.04 28.76,0 50.41,8.82 65.05,26.56 15.28,17.41 23.04,42.41 23.2,74.93l0 132.38 -44.61 0 0 -129.44c0,-19.28 -4.58,-34.16 -13.65,-44.54 -8.83,-10.87 -21.82,-16.27 -39.07,-16.27 -17.41,0 -32.19,5.65 -44.29,17 -12.17,11.27 -18.22,27.95 -18.22,49.76z"/>
   <polygon id="6" class="fil4" points="8106.74,5049.37 8106.74,5133.22 8154.79,5133.22 8154.79,5172.93 8106.74,5172.93 8106.74,5362.19 8062.12,5362.19 8062.12,5172.93 8020.93,5172.93 8020.93,5133.22 8062.12,5133.22 8062.12,5049.37 "/>
   <path id="7" class="fil4" d="M8440.96 5128.32c35.3,0 64.22,12.33 86.86,36.93l-34 28.27c-14.3,-14.38 -32.28,-21.57 -53.85,-21.57 -21.49,0 -39.79,6.95 -54.83,20.92 -15.11,13.72 -22.71,31.95 -22.71,54.76 0,22.71 7.69,41.18 22.96,55.4 15.36,14.3 33.67,21.41 55.08,21.41 21.56,0 39.38,-7.51 53.36,-22.55l34.48 28.44c-22.8,24.52 -51.64,36.78 -86.37,36.78 -34.81,0 -64.22,-11.03 -88.25,-33.09 -23.94,-22.4 -35.87,-51.16 -35.87,-86.37 0,-35.22 11.77,-63.91 35.22,-85.97 23.53,-22.06 52.79,-33.17 87.93,-33.33z"/>
   <path id="8" class="fil4" d="M8628.5 5238.71l0 123.48 -44.61 0 0 -353.5 44.61 0 0 158.94c6.21,-12.75 16.83,-22.56 31.87,-29.26 14.95,-6.7 29.5,-10.04 43.56,-10.04 28.93,0 51.73,8.98 68.31,27.05 16.59,18.06 24.77,42.81 24.44,74.44l0 132.38 -44.63 0 0 -129.44c0,-19.04 -5.06,-33.67 -15.11,-44.05 -9.73,-11.19 -23.2,-16.75 -40.45,-16.75 -17.24,0 -32.86,5.48 -46.91,16.51 -14.06,11.03 -21.09,27.79 -21.09,50.25z"/>
   <path id="9" class="fil4" d="M9083.81 5247.05c0,10.13 -0.16,15.93 -0.49,17.57l-185.82 0c2.2,18.47 10.38,33.75 24.43,45.93 13.57,11.19 28.77,16.83 45.69,16.83 33.09,0 56.21,-11.85 69.46,-35.55 0.33,0 0.81,0.09 1.47,0.41 0.58,0.33 1.72,0.9 3.36,1.72 1.88,0.81 4.41,1.79 7.6,2.86 3.18,1.15 5.64,2.13 7.19,2.94l18.71 6.95c-9.39,19.28 -23.62,34.16 -42.65,44.61 -18.96,10.54 -39.88,15.78 -62.68,15.78 -32.77,0 -60.72,-11.03 -84,-33.18 -22.15,-22.15 -33.18,-51.15 -33.18,-86.86 0,-35.8 11.03,-64.47 33.02,-86.14 22.06,-21.56 49.92,-32.43 83.76,-32.6 33.82,0 61.12,10.94 81.88,32.77 21.49,21.73 32.27,50.41 32.27,85.96zm-66.84 -62.6c-12.75,-10.96 -28.6,-16.43 -47.39,-16.43 -18.87,0 -35.06,5.47 -48.62,16.43 -13.4,11.68 -21.25,26.88 -23.45,45.35l141.94 0c-2.2,-18.47 -9.73,-33.67 -22.48,-45.35z"/>
   <path id="10" class="fil4" d="M9248.48 5128.32c35.3,0 64.22,12.33 86.86,36.93l-34 28.27c-14.3,-14.38 -32.28,-21.57 -53.85,-21.57 -21.49,0 -39.79,6.95 -54.83,20.92 -15.11,13.72 -22.71,31.95 -22.71,54.76 0,22.71 7.69,41.18 22.96,55.4 15.36,14.3 33.67,21.41 55.08,21.41 21.56,0 39.38,-7.51 53.36,-22.55l34.48 28.44c-22.8,24.52 -51.64,36.78 -86.37,36.78 -34.81,0 -64.22,-11.03 -88.25,-33.09 -23.94,-22.4 -35.87,-51.16 -35.87,-86.37 0,-35.22 11.77,-63.91 35.22,-85.97 23.53,-22.06 52.79,-33.17 87.93,-33.33z"/>
   <polygon id="11" class="fil4" points="9436.02,5362.19 9391.4,5362.19 9391.4,5008.69 9436.02,5008.69 9436.02,5212.98 9515.04,5133.22 9575.83,5133.22 9477.69,5232.1 9599.28,5362.19 9540.37,5362.19 9436.02,5250.32 "/>
   <path id="12" class="fil4" d="M9795.97 5303.27c14.3,-14.06 21.49,-32.53 21.49,-55.41 0,-22.96 -7.19,-41.27 -21.49,-54.99 -14.3,-13.81 -32.12,-20.75 -53.44,-20.92 -21.25,0 -39.14,6.87 -53.61,20.68 -14.63,13.89 -21.99,32.19 -21.99,54.99 0,22.71 7.2,41.18 21.5,55.4 14.3,14.3 32.19,21.41 53.68,21.41 21.57,0 39.56,-7.03 53.85,-21.16zm-53.61 63.82c-33.34,0 -61.62,-11.03 -84.98,-33.09 -23.38,-22.06 -35.06,-50.84 -35.06,-86.37 0,-35.55 11.52,-64.4 34.48,-86.46 22.96,-22.06 51.31,-33.01 85.15,-32.84 34,0 62.43,11.03 85.4,33.09 23.13,22.23 34.72,50.99 34.72,86.21 0,35.21 -11.6,63.9 -34.81,86.12 -23.2,22.23 -51.56,33.34 -84.9,33.34z"/>
   <path id="13" class="fil4" d="M10078.14 5256.85l0 -123.64 44.61 0 0 228.97 -44.61 0 0 -34.16c-6.54,12.58 -16.34,22.31 -29.5,29.01 -13.07,6.7 -26.97,10.05 -41.67,10.05 -28.36,0 -50.17,-8.91 -65.46,-26.81 -15.28,-17.89 -22.88,-42.74 -22.71,-74.53l0 -132.54 44.61 0 0 129.36c0,19.03 4.42,34 13.16,44.86 8.83,10.69 22.06,16.02 39.79,16.02 17.73,0 32.44,-5.56 44.29,-16.75 11.85,-11.19 17.65,-27.79 17.49,-49.85z"/>
   <polygon id="14" class="fil4" points="10258.32,5049.37 10258.32,5133.22 10306.37,5133.22 10306.37,5172.93 10258.32,5172.93 10258.32,5362.19 10213.7,5362.19 10213.7,5172.93 10172.51,5172.93 10172.51,5133.22 10213.7,5133.22 10213.7,5049.37 "/>
   <path class="fil5" d="M3692.32 1530.43l13749.89 0c156.87,0 285.21,128.33 285.21,285.2l0 1314.87c0,156.87 -128.34,285.21 -285.21,285.21l-13749.89 0c-156.87,0 -285.21,-128.34 -285.21,-285.21l0 -1314.87c0,-156.87 128.34,-285.2 285.21,-285.2z"/>
   <polygon class="fil6" points="16379.49,2549.69 15991.15,2823.28 16378.97,2010 16771.1,2820.63 "/>
   <polygon class="fil7" points="16501.49,2634.11 16031.49,2965.22 16500.85,1980.94 16975.44,2962.02 "/>
   <path class="fil8" d="M4202.48 2684.55l0 -25.39 168.6 -205.5c20.26,-23.57 30.39,-45.86 30.39,-66.76 0,-21.01 -7.35,-37.54 -21.97,-49.7 -14.61,-12.26 -32.1,-18.45 -52.47,-18.66 -20.27,0 -37.33,6.08 -51.09,18.35 -13.87,12.16 -22.07,28.26 -24.85,48.2l-55.03 -13.54c5.55,-32.84 20.48,-59.4 44.58,-79.77 25.17,-20.15 55.14,-30.17 89.9,-30.17 34.77,0 64.83,11.41 90.33,34.33 25.48,22.82 38.18,52.57 38.18,89.26 0,36.69 -15.15,72.83 -45.65,108.35l-114.32 134.05 160.61 0 0 56.95 -257.22 0z"/>
   <path class="fil9" d="M4327.89 2124.74c192.38,0 348.33,155.96 348.33,348.34 0,192.39 -155.95,348.34 -348.33,348.34 -192.38,0 -348.34,-155.95 -348.34,-348.34 0,-192.38 155.96,-348.34 348.34,-348.34zm-125.41 559.81l0 -25.39 168.6 -205.5c20.26,-23.57 30.39,-45.86 30.39,-66.76 0,-21.01 -7.35,-37.54 -21.97,-49.7 -14.61,-12.26 -32.1,-18.45 -52.47,-18.66 -20.27,0 -37.33,6.08 -51.09,18.35 -13.87,12.16 -22.07,28.26 -24.85,48.2l-55.03 -13.54c5.55,-32.84 20.48,-59.4 44.58,-79.77 25.17,-20.15 55.14,-30.17 89.9,-30.17 34.77,0 64.83,11.41 90.33,34.33 25.48,22.82 38.18,52.57 38.18,89.26 0,36.69 -15.15,72.83 -45.65,108.35l-114.32 134.05 160.61 0 0 56.95 -257.22 0z"/>
   <path class="fil10" d="M5161.24 2572.61c-43.44,-44.52 -65.21,-98.24 -65.21,-161.21 0,-62.85 21.77,-116.58 65.21,-161.09 43.76,-44.52 98.35,-66.82 163.66,-66.82 65.43,0 119.59,24.89 162.81,74.65l-45.27 37.54c-33.56,-36.57 -73.78,-54.91 -120.65,-54.91 -46.98,0 -86.34,16.62 -118.19,49.87 -31.86,33.25 -47.73,73.46 -47.73,120.76 0,47.41 15.87,87.53 47.73,120.55 31.42,32.82 71.21,49.23 119.47,49.23 48.17,0 88.38,-18.98 120.66,-56.84l45.16 38.18c-43.12,50.63 -97.6,75.94 -163.35,75.94 -65.74,0 -120.55,-21.99 -164.31,-65.85zm450.04 -102.64l0 162.05 -58.57 0 0 -463.98 58.57 0 0 208.61c8.14,-16.73 22.08,-29.6 41.82,-38.39 19.63,-8.79 38.72,-13.19 57.17,-13.19 37.97,0 67.88,11.79 89.66,35.49 21.77,23.7 32.5,56.2 32.06,97.71l0 173.75 -58.56 0 0 -169.88c0,-24.99 -6.66,-44.19 -19.85,-57.82 -12.76,-14.69 -30.46,-21.99 -53.08,-21.99 -22.63,0 -43.12,7.19 -61.56,21.67 -18.45,14.47 -27.67,36.46 -27.67,65.96zm522.41 84.72c18.77,-18.45 28.21,-42.68 28.21,-72.71 0,-30.14 -9.44,-54.16 -28.21,-72.18 -18.76,-18.12 -42.15,-27.24 -70.14,-27.46 -27.88,0 -51.37,9.01 -70.36,27.13 -19.2,18.24 -28.85,42.26 -28.85,72.18 0,29.82 9.45,54.06 28.21,72.71 18.77,18.77 42.26,28.1 70.47,28.1 28.32,0 51.91,-9.22 70.67,-27.77zm-70.35 83.77c-43.77,0 -80.87,-14.48 -111.54,-43.44 -30.67,-28.96 -46.02,-66.71 -46.02,-113.37 0,-46.66 15.12,-84.51 45.26,-113.46 30.14,-28.96 67.36,-43.33 111.76,-43.12 44.61,0 81.94,14.47 112.07,43.43 30.36,29.18 45.59,66.93 45.59,113.15 0,46.23 -15.23,83.88 -45.69,113.05 -30.47,29.16 -67.68,43.76 -111.43,43.76zm442.73 -83.77c18.77,-18.45 28.21,-42.68 28.21,-72.71 0,-30.14 -9.44,-54.16 -28.21,-72.18 -18.76,-18.12 -42.15,-27.24 -70.14,-27.46 -27.88,0 -51.37,9.01 -70.36,27.13 -19.2,18.24 -28.85,42.26 -28.85,72.18 0,29.82 9.45,54.06 28.21,72.71 18.77,18.77 42.26,28.1 70.47,28.1 28.32,0 51.91,-9.22 70.67,-27.77zm-70.35 83.77c-43.77,0 -80.87,-14.48 -111.54,-43.44 -30.67,-28.96 -46.02,-66.71 -46.02,-113.37 0,-46.66 15.12,-84.51 45.26,-113.46 30.14,-28.96 67.36,-43.33 111.76,-43.12 44.61,0 81.94,14.47 112.07,43.43 30.36,29.18 45.59,66.93 45.59,113.15 0,46.23 -15.23,83.88 -45.69,113.05 -30.47,29.16 -67.68,43.76 -111.43,43.76zm255.79 -291.4c20.07,-14.7 44.3,-21.99 72.82,-21.99 28.43,0 52.02,7.29 70.58,21.88 18.66,14.58 29.28,35.39 31.75,62.42l-55.89 0c-1.72,-9.76 -6.86,-17.59 -15.44,-23.5 -9.44,-5.79 -19.84,-8.69 -31.42,-8.69 -11.48,0 -21.24,2.46 -29.18,7.41 -8.58,3.85 -13.94,10.62 -16.3,20.05 -2.26,9.44 -1.93,16.95 0.97,22.52 4.82,9.65 16.62,17.17 35.39,22.53l44.3 10.83c52.02,12.77 77.97,42.04 77.97,87.84 0,27.13 -11.26,49.01 -33.89,65.85 -22.84,16.2 -49.56,24.25 -80.12,24.25 -30.67,0 -57.28,-8.79 -79.9,-26.49 -22.63,-17.59 -34.1,-40.97 -34.54,-70.25l55.34 0c2.46,15.55 10.4,27.03 23.92,34.32 13.08,8.25 27.24,11.9 42.48,11.04 15.22,-0.86 27.03,-4.93 35.39,-12.23 8.37,-7.39 13.08,-16.3 14.16,-26.81 0.86,-10.51 -2.36,-18.88 -9.76,-25.21 -7.29,-6.32 -17.37,-10.93 -30.13,-13.83l-41.19 -9.54c-29.06,-7.83 -50.51,-19.31 -64.23,-34.65 -13.19,-15.86 -18.66,-35.71 -16.31,-59.63 2.26,-23.91 13.41,-43.21 33.25,-58.12zm544.63 133.84c0,13.3 -0.22,20.91 -0.64,23.06l-243.9 0c2.9,24.23 13.63,44.29 32.07,60.27 17.81,14.69 37.75,22.1 59.95,22.1 43.44,0 73.79,-15.55 91.17,-46.66 0.42,0 1.06,0.11 1.92,0.54 0.76,0.42 2.26,1.17 4.4,2.25 2.48,1.07 5.8,2.36 9.98,3.76 4.18,1.5 7.41,2.79 9.44,3.85l24.56 9.12c-12.33,25.31 -30.99,44.83 -55.98,58.56 -24.89,13.83 -52.33,20.71 -82.26,20.71 -43.01,0 -79.69,-14.48 -110.26,-43.55 -29.06,-29.07 -43.54,-67.13 -43.54,-114.01 0,-46.97 14.48,-84.62 43.33,-113.04 28.96,-28.32 65.53,-42.58 109.92,-42.79 44.41,0 80.23,14.36 107.47,43.01 28.21,28.52 42.37,66.17 42.37,112.82zm-87.73 -82.15c-16.73,-14.38 -37.55,-21.56 -62.2,-21.56 -24.78,0 -46.02,7.19 -63.82,21.56 -17.59,15.33 -27.88,35.29 -30.78,59.52l186.3 0c-2.9,-24.23 -12.76,-44.19 -29.49,-59.52zm387.94 71.22l0 162.05 -58.57 0 0 -463.98 58.57 0 0 208.61c8.14,-16.73 22.08,-29.6 41.82,-38.39 19.63,-8.79 38.72,-13.19 57.17,-13.19 37.97,0 67.88,11.79 89.66,35.49 21.77,23.7 32.5,56.2 32.06,97.71l0 173.75 -58.56 0 0 -169.88c0,-24.99 -6.66,-44.19 -19.85,-57.82 -12.76,-14.69 -30.46,-21.99 -53.08,-21.99 -22.63,0 -43.12,7.19 -61.56,21.67 -18.45,14.47 -27.67,36.46 -27.67,65.96zm522.41 84.72c18.77,-18.45 28.21,-42.68 28.21,-72.71 0,-30.14 -9.44,-54.16 -28.21,-72.18 -18.76,-18.12 -42.15,-27.24 -70.14,-27.46 -27.88,0 -51.37,9.01 -70.36,27.13 -19.2,18.24 -28.85,42.26 -28.85,72.18 0,29.82 9.45,54.06 28.21,72.71 18.77,18.77 42.26,28.1 70.47,28.1 28.32,0 51.91,-9.22 70.67,-27.77zm-70.35 83.77c-43.77,0 -80.87,-14.48 -111.54,-43.44 -30.67,-28.96 -46.02,-66.71 -46.02,-113.37 0,-46.66 15.12,-84.51 45.26,-113.46 30.14,-28.96 67.36,-43.33 111.76,-43.12 44.61,0 81.94,14.47 112.07,43.43 30.36,29.18 45.59,66.93 45.59,113.15 0,46.23 -15.23,83.88 -45.69,113.05 -30.47,29.16 -67.68,43.76 -111.43,43.76zm680.72 -306.96l-111.22 300.52 -48.37 0 -81.73 -220.73 -79.15 220.73 -47.72 0 -114.44 -300.52 62.53 0 75.07 210.33 75.51 -210.33 56.53 0 75.4 210.33 75.08 -210.33 62.52 0zm310.39 -110.03l0 110.03 63.06 0 0 52.13 -63.06 0 0 248.39 -58.56 0 0 -248.39 -54.06 0 0 -52.13 54.06 0 0 -110.03 58.56 0zm337.73 333.23c18.77,-18.45 28.21,-42.68 28.21,-72.71 0,-30.14 -9.44,-54.16 -28.21,-72.18 -18.76,-18.12 -42.15,-27.24 -70.14,-27.46 -27.88,0 -51.37,9.01 -70.36,27.13 -19.2,18.24 -28.85,42.26 -28.85,72.18 0,29.82 9.45,54.06 28.21,72.71 18.77,18.77 42.26,28.1 70.47,28.1 28.32,0 51.91,-9.22 70.67,-27.77zm-70.35 83.77c-43.77,0 -80.87,-14.48 -111.54,-43.44 -30.67,-28.96 -46.02,-66.71 -46.02,-113.37 0,-46.66 15.12,-84.51 45.26,-113.46 30.14,-28.96 67.36,-43.33 111.76,-43.12 44.61,0 81.94,14.47 112.07,43.43 30.36,29.18 45.59,66.93 45.59,113.15 0,46.23 -15.23,83.88 -45.69,113.05 -30.47,29.16 -67.68,43.76 -111.43,43.76zm489.07 -228.56c-18.56,18.45 -27.88,43.01 -27.88,73.79 0,30.67 9.87,54.59 29.49,71.75 19.74,17.17 43.01,25.74 70.03,25.74 27.04,0 50.09,-9.01 69.08,-27.03 18.01,-17.92 27.03,-41.51 27.03,-70.79 0,-29.27 -9.44,-53.41 -28.32,-72.17 -18.98,-18.77 -42.36,-28.32 -69.92,-28.53 -27.68,-0.22 -50.84,8.9 -69.5,27.24zm-87.09 -78.4l58.57 0 0 47.3c9.86,-16.83 24.13,-29.82 43.01,-38.82 18.45,-9.98 39.03,-14.91 61.88,-14.91 41.93,0 77.44,14.58 106.4,43.87 29.07,28.96 43.54,66.71 43.54,113.15 0,46.44 -14.36,84.08 -43.21,113.04 -28.75,28.85 -64.35,43.33 -106.72,43.33 -22.84,0 -43.76,-4.51 -62.85,-13.52 -18.99,-9.01 -33.04,-21.66 -42.04,-37.75l0 190.91 -58.57 0 0 -446.6zm600.3 222.66c19.31,-18.02 28.96,-42.26 28.96,-72.82 0,-30.58 -10.09,-54.7 -30.14,-72.29 -20.16,-17.59 -43.87,-26.49 -71.11,-26.71 -27.35,0 -50.2,9.12 -68.64,27.35 -18.45,18.02 -27.67,41.62 -27.67,71 0,29.28 9.44,53.42 28.32,72.18 18.87,18.88 42.15,28.32 69.82,28.32 27.68,0 51.16,-9.01 70.47,-27.03zm88.15 77.86l-58.56 0 0 -46.11c-9.44,15.77 -23.7,28.41 -42.79,38.07 -19.09,9.65 -39.9,14.48 -62.64,14.48 -41.61,0 -77.75,-14.59 -108.32,-43.76 -29.5,-29.07 -44.3,-66.82 -44.3,-113.05 0,-46.33 14.58,-83.97 43.65,-112.82 29.18,-28.96 65.54,-43.55 109.08,-43.76 21.77,0 42.79,4.51 62.85,13.51 19.74,9.87 33.9,22.53 42.48,38.08l0 -45.16 58.56 0 0 300.52zm364.88 -300.52l-186.61 446.6 -61.24 0 63.06 -155.3 -120.34 -291.3 62.53 0 89.87 217.52 90.2 -217.52 62.53 0z"/>
   <path class="fil11" d="M16851.9 6066.05l4003.6 0c56.59,0 102.89,46.28 102.89,102.87l0 893.34c0,56.59 -46.3,102.88 -102.89,102.88l-4003.6 0c-56.57,0 -102.87,-46.29 -102.87,-102.88l0 -893.34c0,-56.59 46.3,-102.87 102.87,-102.87z"/>
   <path class="fil11" d="M16852.89 12483.03l4003.6 0c56.59,0 102.89,46.28 102.89,102.87l0 893.34c0,56.59 -46.3,102.88 -102.89,102.88l-4003.6 0c-56.57,0 -102.87,-46.29 -102.87,-102.88l0 -893.34c0,-56.59 46.3,-102.87 102.87,-102.87z"/>
   <polygon class="fil12" points="17372.4,6498.74 17372.4,6457.71 17614.36,6457.71 17614.36,6498.74 17515.31,6498.74 17515.31,6782.67 17471.45,6782.67 17471.45,6498.74 "/>
   <path id="1" class="fil12" d="M17815.75 6726c13.76,-13.52 20.67,-31.28 20.67,-53.3 0,-22.08 -6.92,-39.7 -20.67,-52.9 -13.76,-13.28 -30.89,-19.97 -51.4,-20.12 -20.45,0 -37.65,6.6 -51.57,19.88 -14.07,13.37 -21.14,30.98 -21.14,52.91 0,21.85 6.92,39.62 20.67,53.29 13.76,13.76 30.97,20.6 51.64,20.6 20.76,0 38.05,-6.75 51.8,-20.36zm-51.56 61.39c-32.07,0 -59.27,-10.61 -81.75,-31.84 -22.49,-21.22 -33.72,-48.89 -33.72,-83.08 0,-34.2 11.09,-61.94 33.17,-83.17 22.08,-21.23 49.37,-31.76 81.91,-31.6 32.7,0 60.05,10.61 82.14,31.84 22.25,21.38 33.41,49.04 33.41,82.93 0,33.88 -11.16,61.47 -33.49,82.86 -22.32,21.38 -49.6,32.06 -81.67,32.06z"/>
   <polygon id="2" class="fil12" points="17995.69,6481.76 17995.69,6562.41 18041.92,6562.41 18041.92,6600.62 17995.69,6600.62 17995.69,6782.67 17952.77,6782.67 17952.77,6600.62 17913.15,6600.62 17913.15,6562.41 17952.77,6562.41 17952.77,6481.76 "/>
   <path id="3" class="fil12" d="M18243.63 6725.61c14.15,-13.2 21.22,-30.98 21.22,-53.38 0,-22.4 -7.38,-40.09 -22.08,-52.99 -14.78,-12.89 -32.15,-19.41 -52.12,-19.57 -20.04,0 -36.79,6.68 -50.32,20.04 -13.52,13.2 -20.27,30.5 -20.27,52.04 0,21.46 6.92,39.14 20.75,52.9 13.83,13.83 30.89,20.75 51.17,20.75 20.28,0 37.49,-6.6 51.65,-19.8zm64.61 57.07l-42.92 0 0 -33.8c-6.92,11.55 -17.37,20.83 -31.37,27.9 -14,7.08 -29.24,10.61 -45.91,10.61 -30.5,0 -56.99,-10.68 -79.39,-32.06 -21.62,-21.3 -32.46,-48.98 -32.46,-82.86 0,-33.96 10.68,-61.55 31.99,-82.7 21.39,-21.22 48.04,-31.91 79.95,-32.06 15.96,0 31.37,3.3 46.07,9.9 14.46,7.23 24.84,16.5 31.13,27.9l0 -33.09 42.92 0 0 220.26z"/>
   <polygon id="4" class="fil12" points="18379.38,6782.67 18379.38,6442.61 18422.3,6442.61 18422.3,6782.67 "/>
   <path id="5" class="fil12" d="M18748.29 6498.74l-79.56 0 0 121.22 77.74 0c18,0 31.61,-5.43 40.64,-16.35 9.12,-11.72 13.68,-26.42 13.68,-44.26 0,-17.85 -4.56,-32.31 -13.68,-43.55 -8.4,-11.4 -21.38,-17.06 -38.83,-17.06zm-79.56 162.25l0 121.68 -43.87 0 0 -324.96 124.13 0c31.84,0 55.73,9.9 71.61,29.71 15.89,19.82 23.9,43.31 24.06,70.67 -0.16,27.35 -7,50.39 -20.6,69.33 -13.59,18.87 -34.67,29.48 -63.04,32l86.94 123.26 -53.14 0 -84.43 -121.68 -41.66 0z"/>
   <path id="6" class="fil12" d="M18994.5 6638.82l-34.75 0 0 -41.03 34.75 0c10.46,0.31 19.73,-2.83 27.9,-9.44 7.86,-7.07 12.81,-16.5 14.93,-28.14 2.2,-11.7 0.31,-21.53 -5.49,-29.56 -7.23,-11.09 -19.11,-16.98 -35.69,-17.76 -22.1,-1.97 -40.1,7.23 -53.93,27.67l-31.52 -24.92c8.41,-14.54 20.75,-26.02 36.87,-34.51 16.74,-8.01 34.12,-11.48 52.27,-10.22 24.84,1.17 45.35,10.29 61.39,27.27 16.67,16.28 24.77,35.53 24.29,57.86 0,5.97 -1.02,12.26 -2.99,18.86 -5.66,18.47 -16.82,32.46 -33.41,41.74 15.65,5.74 28.14,16.67 37.34,33.02 9.28,16.28 13.05,33.02 11.32,50.15 -2.67,26.1 -15.17,47.64 -37.5,64.54 -22.32,16.82 -47.71,24.21 -76.09,22.1 -20.12,-1.57 -38.28,-8.1 -54.4,-19.58 -16.11,-11.55 -28.46,-26.34 -37.03,-44.5l37.26 -20.21c5.66,11.95 13.52,21.54 23.51,28.77 10.29,8.1 21.46,12.66 33.64,13.6 17.93,0.86 33.18,-3.46 45.6,-13.13 13.83,-10.14 20.9,-22.64 21.38,-37.58 0.47,-14.85 -5.27,-27.75 -17.3,-38.68 -11.94,-10.92 -26.1,-16.35 -42.37,-16.35z"/>
   <path id="7" class="fil12" d="M19306.72 6644.95c-10.61,-12.27 -24.05,-18.56 -40.33,-18.87 -16.28,-0.31 -30.58,4.88 -42.85,15.65 -12.26,10.77 -18.55,24.45 -18.86,41.03 -0.31,16.74 5.03,30.98 16.11,42.85 11.4,11.63 25.16,17.76 41.42,18.39 16.28,0.63 29.79,-4.32 40.56,-14.94 11.94,-11.07 18.15,-25.07 18.63,-41.98 0.47,-16.82 -4.41,-30.89 -14.7,-42.13zm16.35 -98.58c-11.72,-23.58 -28.7,-35.37 -50.94,-35.37 -22.24,0 -39.7,10.14 -52.51,30.35 -12.74,20.28 -17.69,45.98 -14.93,77.11 9.03,-23.34 30.18,-34.98 63.36,-34.82 27.27,0 50.23,10.68 68.86,32.07 18.39,21.3 26.96,45.98 25.79,73.96 -1.26,27.9 -11.79,51.41 -31.61,70.51 -19.8,19.02 -43.55,27.99 -71.37,26.73 -27.75,-1.57 -50.47,-11.64 -68.15,-30.42 -17.69,-18.71 -27.75,-45.13 -30.2,-79.24 -2.43,-34.03 -0.62,-71.53 5.59,-112.41 4.71,-28.22 16.58,-51.17 35.45,-68.86 19.49,-17.6 42.92,-26.02 70.2,-25.07 20.43,0.94 38.05,5.82 52.75,14.7 14.7,8.96 26.57,23.81 35.45,44.72l-37.73 16.04z"/>
   <path id="8" class="fil12" d="M19424.88 6842.1l-30.18 -9.9c22.25,-30.81 32.86,-65.4 31.99,-103.76l43.87 0c-1.97,26.09 -7.23,48.97 -15.8,68.77 -8.64,19.82 -18.56,34.75 -29.87,44.89z"/>
   <path id="9" class="fil12" d="M19703.95 6715.62c10.68,-19.57 16.04,-48.5 16.04,-86.78 0,-38.36 -5.35,-67.21 -16.04,-86.63 -10.69,-19.41 -28.31,-29.16 -52.75,-29.32 -24.45,0.15 -42.14,9.9 -53.14,29.32 -10.86,19.42 -16.28,48.27 -16.28,86.63 0,38.27 5.42,67.21 16.28,86.78 10.85,19.58 28.45,29.33 52.9,29.33 24.45,0 42.14,-9.75 52.99,-29.33zm-165.08 -86.62c0,-45.43 7.47,-82.62 22.32,-111.39 17.22,-31.13 47.32,-46.69 90.24,-46.69 42.92,0 72.56,15.48 88.91,46.46 15.01,26.88 22.56,63.91 22.56,111.23 0,47.24 -7.39,84.51 -22.17,111.71 -16.04,31.21 -45.91,46.76 -89.53,46.61 -74.92,0 -112.34,-52.67 -112.34,-157.93z"/>
   <path id="10" class="fil12" d="M19989.3 6715.62c10.68,-19.57 16.04,-48.5 16.04,-86.78 0,-38.36 -5.35,-67.21 -16.04,-86.63 -10.69,-19.41 -28.31,-29.16 -52.75,-29.32 -24.45,0.15 -42.14,9.9 -53.14,29.32 -10.86,19.42 -16.28,48.27 -16.28,86.63 0,38.27 5.42,67.21 16.28,86.78 10.85,19.58 28.45,29.33 52.9,29.33 24.45,0 42.14,-9.75 52.99,-29.33zm-165.08 -86.62c0,-45.43 7.47,-82.62 22.32,-111.39 17.22,-31.13 47.32,-46.69 90.24,-46.69 42.92,0 72.56,15.48 88.91,46.46 15.01,26.88 22.56,63.91 22.56,111.23 0,47.24 -7.39,84.51 -22.17,111.71 -16.04,31.21 -45.91,46.76 -89.53,46.61 -74.92,0 -112.34,-52.67 -112.34,-157.93z"/>
   <path id="11" class="fil12" d="M20274.66 6715.62c10.68,-19.57 16.04,-48.5 16.04,-86.78 0,-38.36 -5.35,-67.21 -16.04,-86.63 -10.69,-19.41 -28.31,-29.16 -52.75,-29.32 -24.45,0.15 -42.14,9.9 -53.14,29.32 -10.86,19.42 -16.28,48.27 -16.28,86.63 0,38.27 5.42,67.21 16.28,86.78 10.85,19.58 28.45,29.33 52.9,29.33 24.45,0 42.14,-9.75 52.99,-29.33zm-165.08 -86.62c0,-45.43 7.47,-82.62 22.32,-111.39 17.22,-31.13 47.32,-46.69 90.24,-46.69 42.92,0 72.56,15.48 88.91,46.46 15.01,26.88 22.56,63.91 22.56,111.23 0,47.24 -7.39,84.51 -22.17,111.71 -16.04,31.21 -45.91,46.76 -89.53,46.61 -74.92,0 -112.34,-52.67 -112.34,-157.93z"/>
   <path class="fil12" d="M17521.04 12916.43l-85.2 0 0 121.09 82.69 0c17.98,-0.16 31.72,-5.73 41.3,-16.81 9.5,-11.07 14.36,-25.36 14.53,-43.03 0,-17.67 -4.56,-32.43 -13.59,-44.21 -9.41,-11.38 -22.69,-17.04 -39.73,-17.04zm-129.01 283.63l0 -324.62 129.48 0c32.12,0 56.07,9.89 72.09,29.69 16.42,19.23 24.58,43.18 24.58,72.09 0,28.97 -8.17,53.07 -24.42,72.31 -16.33,19.32 -40.45,28.98 -72.4,28.98l-85.52 0 0 121.55 -43.81 0z"/>
   <path id="1" class="fil12" d="M17711.94 13120.05l0 80.01 -42.87 0 0 -220.02 42.87 0 0 49.63c10.76,-36.2 31.1,-54.34 61.17,-54.34 17.35,0 30.08,2.82 38.24,8.4l-6.68 40.21c-9.65,-5.1 -20.49,-7.62 -32.42,-7.62 -19.4,0 -34.25,9.26 -44.68,27.8 -10.45,18.61 -15.64,43.9 -15.64,75.94z"/>
   <path id="2" class="fil12" d="M18007.19 13143.45c13.74,-13.51 20.65,-31.26 20.65,-53.25 0,-22.06 -6.92,-39.65 -20.65,-52.85 -13.75,-13.27 -30.87,-19.95 -51.36,-20.1 -20.41,0 -37.61,6.59 -51.51,19.87 -14.06,13.34 -21.13,30.93 -21.13,52.85 0,21.82 6.92,39.58 20.65,53.24 13.75,13.75 30.94,20.58 51.6,20.58 20.73,0 38,-6.75 51.75,-20.34zm-51.52 61.33c-32.03,0 -59.2,-10.6 -81.66,-31.8 -22.45,-21.21 -33.68,-48.84 -33.68,-83 0,-34.16 11.06,-61.88 33.14,-83.08 22.06,-21.19 49.31,-31.72 81.81,-31.56 32.67,0 60,10.6 82.06,31.8 22.22,21.36 33.37,49 33.37,82.85 0,33.84 -11.15,61.4 -33.45,82.76 -22.29,21.36 -49.54,32.04 -81.59,32.04z"/>
   <path id="3" class="fil12" d="M18231.3 12975.32c33.92,0 61.73,11.86 83.48,35.49l-32.67 27.17c-13.74,-13.82 -31.01,-20.73 -51.75,-20.73 -20.65,0 -38.24,6.68 -52.68,20.1 -14.53,13.19 -21.84,30.71 -21.84,52.62 0,21.82 7.38,39.58 22.07,53.24 14.76,13.75 32.35,20.58 52.92,20.58 20.73,0 37.85,-7.23 51.27,-21.67l33.14 27.33c-21.9,23.55 -49.62,35.33 -83,35.33 -33.45,0 -61.72,-10.6 -84.81,-31.8 -23,-21.52 -34.46,-49.15 -34.46,-83 0,-33.84 11.3,-61.41 33.84,-82.61 22.61,-21.21 50.73,-31.89 84.48,-32.04z"/>
   <path id="4" class="fil12" d="M18575.94 13089.42c0,9.74 -0.15,15.31 -0.47,16.88l-178.57 0c2.13,17.74 9.98,32.43 23.49,44.13 13.03,10.76 27.63,16.18 43.89,16.18 31.8,0 54.03,-11.38 66.75,-34.16 0.3,0 0.78,0.08 1.41,0.39 0.54,0.31 1.65,0.87 3.21,1.65 1.81,0.79 4.25,1.73 7.31,2.75 3.06,1.11 5.42,2.04 6.91,2.83l17.98 6.67c-9.02,18.53 -22.69,32.82 -40.99,42.88 -18.22,10.13 -38.32,15.16 -60.23,15.16 -31.49,0 -58.34,-10.6 -80.72,-31.88 -21.28,-21.28 -31.88,-49.16 -31.88,-83.48 0,-34.4 10.6,-61.95 31.72,-82.76 21.21,-20.74 47.98,-31.18 80.49,-31.34 32.51,0 58.74,10.52 78.69,31.49 20.65,20.89 31.01,48.45 31.01,82.61zm-64.23 -60.15c-12.25,-10.52 -27.48,-15.78 -45.54,-15.78 -18.14,0 -33.69,5.26 -46.72,15.78 -12.88,11.24 -20.41,25.84 -22.54,43.58l136.4 0c-2.12,-17.74 -9.34,-32.35 -21.6,-43.58z"/>
   <path id="5" class="fil12" d="M18645.82 12991.43c14.69,-10.76 32.43,-16.1 53.32,-16.1 20.8,0 38.08,5.34 51.66,16.02 13.67,10.68 21.44,25.92 23.25,45.7l-40.91 0c-1.25,-7.14 -5.03,-12.88 -11.3,-17.19 -6.92,-4.25 -14.53,-6.36 -23.01,-6.36 -8.4,0 -15.55,1.8 -21.36,5.42 -6.29,2.82 -10.21,7.77 -11.94,14.68 -1.64,6.92 -1.41,12.41 0.72,16.49 3.53,7.07 12.17,12.56 25.91,16.49l32.43 7.93c38.08,9.35 57.09,30.78 57.09,64.31 0,19.87 -8.25,35.89 -24.82,48.21 -16.72,11.87 -36.28,17.75 -58.65,17.75 -22.45,0 -41.93,-6.44 -58.5,-19.39 -16.57,-12.88 -24.97,-30 -25.29,-51.43l40.52 0c1.81,11.38 7.62,19.78 17.51,25.13 9.58,6.05 19.95,8.72 31.1,8.09 11.15,-0.63 19.78,-3.62 25.91,-8.96 6.12,-5.42 9.59,-11.93 10.37,-19.63 0.63,-7.69 -1.73,-13.81 -7.14,-18.45 -5.34,-4.64 -12.73,-8.01 -22.06,-10.13l-30.15 -6.99c-21.28,-5.73 -36.99,-14.14 -47.04,-25.36 -9.66,-11.62 -13.67,-26.15 -11.94,-43.66 1.65,-17.5 9.82,-31.64 24.34,-42.55z"/>
   <path id="6" class="fil12" d="M18852.65 12991.43c14.69,-10.76 32.43,-16.1 53.32,-16.1 20.8,0 38.08,5.34 51.66,16.02 13.67,10.68 21.44,25.92 23.25,45.7l-40.91 0c-1.25,-7.14 -5.03,-12.88 -11.3,-17.19 -6.92,-4.25 -14.53,-6.36 -23.01,-6.36 -8.4,0 -15.55,1.8 -21.36,5.42 -6.29,2.82 -10.21,7.77 -11.94,14.68 -1.64,6.92 -1.41,12.41 0.72,16.49 3.53,7.07 12.17,12.56 25.91,16.49l32.43 7.93c38.08,9.35 57.09,30.78 57.09,64.31 0,19.87 -8.25,35.89 -24.82,48.21 -16.72,11.87 -36.28,17.75 -58.65,17.75 -22.45,0 -41.93,-6.44 -58.5,-19.39 -16.57,-12.88 -24.97,-30 -25.29,-51.43l40.52 0c1.81,11.38 7.62,19.78 17.51,25.13 9.58,6.05 19.95,8.72 31.1,8.09 11.15,-0.63 19.78,-3.62 25.91,-8.96 6.12,-5.42 9.59,-11.93 10.37,-19.63 0.63,-7.69 -1.73,-13.81 -7.14,-18.45 -5.34,-4.64 -12.73,-8.01 -22.06,-10.13l-30.15 -6.99c-21.28,-5.73 -36.99,-14.14 -47.04,-25.36 -9.66,-11.62 -13.67,-26.15 -11.94,-43.66 1.65,-17.5 9.82,-31.64 24.34,-42.55z"/>
   <path id="7" class="fil12" d="M19318.78 13143.45c13.74,-13.51 20.65,-31.26 20.65,-53.25 0,-22.06 -6.92,-39.65 -20.65,-52.85 -13.75,-13.27 -30.87,-19.95 -51.36,-20.1 -20.41,0 -37.61,6.59 -51.51,19.87 -14.06,13.34 -21.13,30.93 -21.13,52.85 0,21.82 6.92,39.58 20.65,53.24 13.75,13.75 30.94,20.58 51.6,20.58 20.73,0 38,-6.75 51.75,-20.34zm-51.52 61.33c-32.03,0 -59.2,-10.6 -81.66,-31.8 -22.45,-21.21 -33.68,-48.84 -33.68,-83 0,-34.16 11.06,-61.88 33.14,-83.08 22.06,-21.19 49.31,-31.72 81.81,-31.56 32.67,0 60,10.6 82.06,31.8 22.22,21.36 33.37,49 33.37,82.85 0,33.84 -11.15,61.4 -33.45,82.76 -22.29,21.36 -49.54,32.04 -81.59,32.04z"/>
   <path id="8" class="fil12" d="M19482.02 13120.05l0 80.01 -42.87 0 0 -220.02 42.87 0 0 49.63c10.76,-36.2 31.1,-54.34 61.17,-54.34 17.35,0 30.08,2.82 38.24,8.4l-6.68 40.21c-9.65,-5.1 -20.49,-7.62 -32.42,-7.62 -19.4,0 -34.25,9.26 -44.68,27.8 -10.45,18.61 -15.64,43.9 -15.64,75.94z"/>
   <path id="9" class="fil12" d="M19776.97 13142.82c14.29,-13.36 21.43,-31.1 21.43,-53.32 0,-22.22 -7.38,-39.8 -22.06,-52.68 -14.77,-12.88 -32.04,-19.4 -51.82,-19.55 -19.87,0 -36.51,6.68 -50.02,20.02 -13.51,13.51 -20.26,30.93 -20.26,52.45 0,21.43 6.83,39.02 20.5,52.61 13.66,13.67 30.54,20.5 50.64,20.5 20.11,0 37.3,-6.68 51.6,-20.02zm64.78 57.24l-42.88 0 0 -33.77c-6.91,11.54 -17.35,20.81 -31.32,27.88 -13.97,7.06 -29.29,10.6 -46.02,10.6 -30.54,0 -56.93,-10.68 -79.15,-32.04 -21.28,-21.28 -31.95,-48.91 -31.95,-82.76 0,-33.92 10.6,-61.49 31.72,-82.61 21.21,-21.21 47.51,-31.89 79,-32.04 16.96,0 32.43,3.3 46.24,9.89 13.75,6.6 24.27,15.94 31.49,27.88l0 -152.74 42.88 0 0 339.7z"/>
   <path id="10" class="fil12" d="M20120.58 13089.42c0,9.74 -0.15,15.31 -0.47,16.88l-178.57 0c2.13,17.74 9.98,32.43 23.49,44.13 13.03,10.76 27.63,16.18 43.89,16.18 31.8,0 54.03,-11.38 66.75,-34.16 0.3,0 0.78,0.08 1.41,0.39 0.54,0.31 1.65,0.87 3.21,1.65 1.81,0.79 4.25,1.73 7.31,2.75 3.06,1.11 5.42,2.04 6.91,2.83l17.98 6.67c-9.02,18.53 -22.69,32.82 -40.99,42.88 -18.22,10.13 -38.32,15.16 -60.23,15.16 -31.49,0 -58.34,-10.6 -80.72,-31.88 -21.28,-21.28 -31.88,-49.16 -31.88,-83.48 0,-34.4 10.6,-61.95 31.72,-82.76 21.21,-20.74 47.98,-31.18 80.49,-31.34 32.51,0 58.74,10.52 78.69,31.49 20.65,20.89 31.01,48.45 31.01,82.61zm-64.23 -60.15c-12.25,-10.52 -27.48,-15.78 -45.54,-15.78 -18.14,0 -33.69,5.26 -46.72,15.78 -12.88,11.24 -20.41,25.84 -22.54,43.58l136.4 0c-2.12,-17.74 -9.34,-32.35 -21.6,-43.58z"/>
   <path id="11" class="fil12" d="M20217.95 13120.05l0 80.01 -42.87 0 0 -220.02 42.87 0 0 49.63c10.76,-36.2 31.1,-54.34 61.17,-54.34 17.35,0 30.08,2.82 38.24,8.4l-6.68 40.21c-9.65,-5.1 -20.49,-7.62 -32.42,-7.62 -19.4,0 -34.25,9.26 -44.68,27.8 -10.45,18.61 -15.64,43.9 -15.64,75.94z"/>
   <path class="fil4" d="M16991.04 7948.12l-94.53 0 0 134.34 91.74 0c19.95,-0.17 35.19,-6.36 45.82,-18.64 10.54,-12.29 15.95,-28.14 16.12,-47.74 0,-19.61 -5.06,-35.98 -15.07,-49.06 -10.46,-12.63 -25.18,-18.9 -44.08,-18.9zm-143.15 314.68l0 -360.17 143.67 0c35.62,0 62.2,10.98 79.98,32.93 18.21,21.35 27.26,47.93 27.26,79.98 0,32.15 -9.06,58.89 -27.09,80.24 -18.12,21.43 -44.88,32.15 -80.33,32.15l-94.88 0 0 134.87 -48.62 0z"/>
   <path id="1" class="fil4" d="M17324.63 8199.56c15.68,-14.64 23.53,-34.33 23.53,-59.15 0,-24.83 -8.2,-44.44 -24.48,-58.73 -16.38,-14.28 -35.64,-21.51 -57.76,-21.68 -22.22,0 -40.77,7.41 -55.75,22.22 -14.98,14.64 -22.48,33.8 -22.48,57.67 0,23.79 7.67,43.39 23,58.63 15.33,15.34 34.23,23.01 56.72,23.01 22.48,0 41.55,-7.32 57.23,-21.95zm71.62 63.25l-47.57 0 0 -37.46c-7.67,12.8 -19.25,23.08 -34.77,30.92 -15.5,7.84 -32.41,11.76 -50.88,11.76 -33.8,0 -63.16,-11.85 -87.99,-35.54 -23.95,-23.62 -35.98,-54.28 -35.98,-91.82 0,-37.64 11.86,-68.22 35.46,-91.65 23.7,-23.53 53.24,-35.37 88.6,-35.55 17.69,0 34.77,3.66 51.05,10.98 16.04,8.01 27.54,18.3 34.51,30.92l0 -36.68 47.57 0 0 244.12z"/>
   <polygon id="2" class="fil4" points="17692.62,8018.69 17541.03,8381.46 17491.28,8381.46 17542.51,8255.31 17444.77,8018.69 17495.55,8018.69 17568.56,8195.38 17641.83,8018.69 "/>
   <path id="3" class="fil4" d="M17956.95 8131.51l0 131.29 -47.57 0 0 -138.18c0,-20.21 -4.88,-35.81 -14.55,-46.87 -9.33,-11.5 -23,-17.24 -40.86,-17.24 -17.69,0 -33.02,6 -45.92,18.03 -12.98,12.02 -19.42,29.71 -19.42,52.96l0 131.29 -47.57 0 0 -244.12 47.57 0 0 37.11c5.66,-11.67 14.9,-21.25 27.88,-28.65 13.58,-7.41 25.96,-11.42 37.03,-12.12 46.95,-2.88 78.06,13.59 93.21,49.32 16.99,-33.9 45.04,-50.88 84.33,-50.88 30.59,0 53.84,9.4 69.7,28.32 16.3,18.56 24.48,45.21 24.48,79.88l0 141.14 -47.57 0 0 -137.66c0,-19.86 -4.96,-35.62 -14.81,-47.39 -10.63,-11.5 -25.01,-17.33 -43.04,-17.5 -17.95,-0.17 -32.93,6.26 -44.78,19.34 -11.93,13.06 -17.95,30.32 -18.12,51.92z"/>
   <path id="4" class="fil4" d="M18431.51 8140.05c0,10.8 -0.17,16.99 -0.52,18.74l-198.12 0c2.36,19.69 11.06,35.97 26.06,48.96 14.46,11.93 30.66,17.95 48.7,17.95 35.29,0 59.94,-12.64 74.05,-37.9 0.35,0 0.87,0.1 1.57,0.45 0.61,0.35 1.82,0.96 3.57,1.82 2,0.87 4.7,1.92 8.1,3.05 3.4,1.22 6,2.27 7.67,3.14l19.95 7.41c-10.01,20.55 -25.18,36.42 -45.47,47.57 -20.22,11.24 -42.52,16.81 -66.82,16.81 -34.94,0 -64.73,-11.76 -89.57,-35.36 -23.6,-23.62 -35.37,-54.54 -35.37,-92.62 0,-38.15 11.77,-68.73 35.2,-91.82 23.52,-23 53.24,-34.58 89.29,-34.76 36.07,0 65.17,11.67 87.3,34.93 22.92,23.18 34.42,53.76 34.42,91.65zm-71.27 -66.73c-13.58,-11.67 -30.49,-17.51 -50.53,-17.51 -20.12,0 -37.37,5.84 -51.84,17.51 -14.29,12.46 -22.65,28.66 -25.01,48.35l151.34 0c-2.36,-19.69 -10.37,-35.89 -23.96,-48.35z"/>
   <path id="5" class="fil4" d="M18539.53 8131.16l0 131.64 -47.57 0 0 -244.12 47.57 0 0 36.68c6.97,-13.58 17.43,-24.04 31.44,-31.18 13.94,-7.14 28.93,-10.72 44.88,-10.72 30.66,0 53.75,9.4 69.35,28.32 16.29,18.56 24.56,45.21 24.73,79.88l0 141.14 -47.57 0 0 -138c0,-20.55 -4.88,-36.42 -14.54,-47.48 -9.41,-11.59 -23.27,-17.33 -41.65,-17.33 -18.56,0 -34.32,6 -47.22,18.11 -12.98,12.03 -19.42,29.8 -19.42,53.06z"/>
   <polygon id="6" class="fil4" points="18852.13,7929.31 18852.13,8018.69 18903.36,8018.69 18903.36,8061.03 18852.13,8061.03 18852.13,8262.8 18804.56,8262.8 18804.56,8061.03 18760.65,8061.03 18760.65,8018.69 18804.56,8018.69 18804.56,7929.31 "/>
   <path id="7" class="fil4" d="M19309.25 8131.51l0 131.29 -47.57 0 0 -138.18c0,-20.21 -4.88,-35.81 -14.55,-46.87 -9.33,-11.5 -23,-17.24 -40.86,-17.24 -17.69,0 -33.02,6 -45.92,18.03 -12.98,12.02 -19.42,29.71 -19.42,52.96l0 131.29 -47.57 0 0 -244.12 47.57 0 0 37.11c5.66,-11.67 14.9,-21.25 27.88,-28.65 13.58,-7.41 25.96,-11.42 37.03,-12.12 46.95,-2.88 78.06,13.59 93.21,49.32 16.99,-33.9 45.04,-50.88 84.33,-50.88 30.59,0 53.84,9.4 69.7,28.32 16.3,18.56 24.48,45.21 24.48,79.88l0 141.14 -47.57 0 0 -137.66c0,-19.86 -4.96,-35.62 -14.81,-47.39 -10.63,-11.5 -25.01,-17.33 -43.04,-17.5 -17.95,-0.17 -32.93,6.26 -44.78,19.34 -11.93,13.06 -17.95,30.32 -18.12,51.92z"/>
   <path id="8" class="fil4" d="M19783.81 8140.05c0,10.8 -0.17,16.99 -0.52,18.74l-198.12 0c2.36,19.69 11.06,35.97 26.06,48.96 14.46,11.93 30.66,17.95 48.7,17.95 35.29,0 59.94,-12.64 74.05,-37.9 0.35,0 0.87,0.1 1.57,0.45 0.61,0.35 1.82,0.96 3.57,1.82 2,0.87 4.7,1.92 8.1,3.05 3.4,1.22 6,2.27 7.67,3.14l19.95 7.41c-10.01,20.55 -25.18,36.42 -45.47,47.57 -20.22,11.24 -42.52,16.81 -66.82,16.81 -34.94,0 -64.73,-11.76 -89.57,-35.36 -23.6,-23.62 -35.37,-54.54 -35.37,-92.62 0,-38.15 11.77,-68.73 35.2,-91.82 23.52,-23 53.24,-34.58 89.29,-34.76 36.07,0 65.17,11.67 87.3,34.93 22.92,23.18 34.42,53.76 34.42,91.65zm-71.27 -66.73c-13.58,-11.67 -30.49,-17.51 -50.53,-17.51 -20.12,0 -37.37,5.84 -51.84,17.51 -14.29,12.46 -22.65,28.66 -25.01,48.35l151.34 0c-2.36,-19.69 -10.37,-35.89 -23.96,-48.35z"/>
   <polygon id="9" class="fil4" points="19910.13,7929.31 19910.13,8018.69 19961.35,8018.69 19961.35,8061.03 19910.13,8061.03 19910.13,8262.8 19862.56,8262.8 19862.56,8061.03 19818.65,8061.03 19818.65,8018.69 19862.56,8018.69 19862.56,7929.31 "/>
   <path id="10" class="fil4" d="M20063.11 8131.16l0 131.64 -47.57 0 0 -376.89 47.57 0 0 169.45c6.62,-13.58 17.95,-24.04 33.97,-31.18 15.95,-7.14 31.46,-10.72 46.44,-10.72 30.84,0 55.15,9.58 72.83,28.84 17.69,19.25 26.4,45.65 26.05,79.36l0 141.14 -47.57 0 0 -138c0,-20.29 -5.41,-35.9 -16.11,-46.96 -10.37,-11.93 -24.75,-17.85 -43.13,-17.85 -18.38,0 -35.03,5.83 -50.01,17.59 -14.98,11.77 -22.48,29.62 -22.48,53.58z"/>
   <path id="11" class="fil4" d="M20487.48 8199.99c15.24,-14.98 22.91,-34.68 22.91,-59.07 0,-24.48 -7.67,-44 -22.91,-58.63 -15.24,-14.72 -34.23,-22.13 -56.98,-22.3 -22.65,0 -41.73,7.32 -57.14,22.04 -15.59,14.81 -23.44,34.32 -23.44,58.63 0,24.21 7.68,43.91 22.92,59.07 15.24,15.24 34.32,22.82 57.23,22.82 23.01,0 42.17,-7.49 57.42,-22.56zm-57.16 68.04c-35.54,0 -65.69,-11.76 -90.6,-35.28 -24.92,-23.53 -37.38,-54.19 -37.38,-92.09 0,-37.9 12.29,-68.65 36.76,-92.18 24.48,-23.52 54.71,-35.19 90.78,-35.02 36.24,0 66.57,11.76 91.04,35.28 24.66,23.7 37.03,54.37 37.03,91.92 0,37.55 -12.37,68.12 -37.11,91.82 -24.75,23.69 -54.97,35.54 -90.52,35.54z"/>
   <path id="12" class="fil4" d="M20789.62 8199.3c15.85,-14.81 23.78,-34.51 23.78,-59.16 0,-24.65 -8.19,-44.17 -24.47,-58.46 -16.38,-14.28 -35.55,-21.51 -57.5,-21.68 -22.04,0 -40.51,7.41 -55.49,22.22 -14.98,14.98 -22.48,34.32 -22.48,58.2 0,23.78 7.58,43.29 22.74,58.36 15.16,15.17 33.89,22.75 56.19,22.75 22.3,0 41.39,-7.41 57.24,-22.22zm71.88 63.51l-47.57 0 0 -37.46c-7.67,12.8 -19.26,23.08 -34.77,30.92 -15.5,7.84 -32.5,11.76 -51.05,11.76 -33.89,0 -63.16,-11.85 -87.82,-35.54 -23.6,-23.62 -35.46,-54.28 -35.46,-91.82 0,-37.64 11.77,-68.22 35.2,-91.65 23.52,-23.53 52.7,-35.37 87.64,-35.55 18.82,0 35.98,3.66 51.31,10.98 15.24,7.32 26.92,17.69 34.94,30.92l0 -169.45 47.57 0 0 376.89z"/>
   <path class="fil13" d="M16966.2 8819.05l182.35 0c68.83,0 125.14,56.31 125.14,125.14l0 184.04c0,68.83 -56.31,125.14 -125.14,125.14l-182.35 0c-68.83,0 -125.14,-56.31 -125.14,-125.14l0 -184.04c0,-68.83 56.31,-125.14 125.14,-125.14z"/>
   <path class="fil14" d="M16991.21 9745.52l139.22 0c80.7,0 146.7,66 146.7,146.7l0 140.91c0,80.7 -66,146.7 -146.7,146.7l-139.22 0c-80.7,0 -146.7,-66 -146.7,-146.7l0 -140.91c0,-80.7 66,-146.7 146.7,-146.7z"/>
   <path class="fil13" d="M16991.25 10584.35l150.66 0c77.55,0 140.98,63.43 140.98,140.98l0 152.36c0,77.55 -63.43,140.98 -140.98,140.98l-150.66 0c-77.55,0 -140.98,-63.43 -140.98,-140.98l0 -152.36c0,-77.55 63.43,-140.98 140.98,-140.98z"/>
   <path class="fil13" d="M16991.25 11451.08l150.66 0c77.55,0 140.98,63.43 140.98,140.98l0 152.36c0,77.55 -63.43,140.98 -140.98,140.98l-150.66 0c-77.55,0 -140.98,-63.43 -140.98,-140.98l0 -152.36c0,-77.55 63.43,-140.98 140.98,-140.98z"/>
   <path class="fil4" d="M17842.64 9131.11c-24.34,-24.94 -36.55,-55.05 -36.55,-90.33 0,-35.22 12.2,-65.33 36.55,-90.27 24.52,-24.94 55.11,-37.45 91.72,-37.45 36.66,0 67.01,13.94 91.23,41.84l-25.35 21.03c-18.82,-20.49 -41.36,-30.77 -67.62,-30.77 -26.32,0 -48.38,9.32 -66.23,27.95 -17.85,18.63 -26.74,41.17 -26.74,67.68 0,26.56 8.89,49.04 26.74,67.56 17.61,18.38 39.91,27.58 66.96,27.58 26.98,0 49.52,-10.64 67.61,-31.85l25.3 21.39c-24.16,28.37 -54.69,42.55 -91.53,42.55 -36.84,0 -67.56,-12.32 -92.07,-36.91z"/>
   <path id="1" class="fil4" d="M18094.83 9103.16l0 61.25 -32.81 0 0 -168.41 32.81 0 0 37.98c8.24,-27.7 23.8,-41.59 46.82,-41.59 13.29,0 23.02,2.16 29.27,6.43l-5.1 30.77c-7.39,-3.91 -15.69,-5.83 -24.82,-5.83 -14.85,0 -26.21,7.09 -34.2,21.28 -7.99,14.25 -11.97,33.59 -11.97,58.11z"/>
   <path id="2" class="fil4" d="M18362.94 9079.73c0,7.45 -0.12,11.72 -0.36,12.92l-136.67 0c1.62,13.58 7.63,24.82 17.97,33.78 9.98,8.23 21.15,12.38 33.59,12.38 24.34,0 41.35,-8.72 51.09,-26.15 0.24,0 0.61,0.07 1.09,0.3 0.42,0.24 1.26,0.66 2.46,1.26 1.38,0.6 3.25,1.32 5.59,2.11 2.33,0.84 4.14,1.56 5.29,2.16l13.76 5.11c-6.91,14.18 -17.36,25.11 -31.37,32.81 -13.94,7.75 -29.33,11.6 -46.1,11.6 -24.09,0 -44.66,-8.11 -61.78,-24.4 -16.29,-16.29 -24.4,-37.62 -24.4,-63.89 0,-26.33 8.11,-47.43 24.28,-63.36 16.22,-15.86 36.72,-23.85 61.61,-23.97 24.88,0 44.95,8.06 60.22,24.1 15.81,15.98 23.74,37.08 23.74,63.23zm-49.16 -46.04c-9.37,-8.06 -21.03,-12.08 -34.85,-12.08 -13.89,0 -25.79,4.03 -35.77,12.08 -9.85,8.59 -15.62,19.77 -17.24,33.36l104.4 0c-1.63,-13.58 -7.16,-24.77 -16.54,-33.36z"/>
   <path id="3" class="fil4" d="M18520.95 9120.6c10.93,-10.22 16.41,-23.8 16.41,-40.81 0,-17 -5.65,-30.47 -16.88,-40.33 -11.3,-9.86 -24.53,-14.84 -39.67,-14.96 -15.2,0 -27.95,5.1 -38.28,15.32 -10.34,10.34 -15.5,23.68 -15.5,40.15 0,16.41 5.23,29.87 15.69,40.27 10.46,10.46 23.38,15.68 38.76,15.68 15.39,0 28.56,-5.1 39.49,-15.32zm49.59 43.81l-32.82 0 0 -25.84c-5.29,8.84 -13.28,15.93 -23.97,21.34 -10.71,5.41 -22.42,8.11 -35.22,8.11 -23.38,0 -43.57,-8.18 -60.59,-24.52 -16.29,-16.29 -24.45,-37.45 -24.45,-63.36 0,-25.96 8.11,-47.06 24.28,-63.23 16.22,-16.22 36.36,-24.4 60.46,-24.52 12.99,0 24.82,2.52 35.41,7.57 10.51,5.05 18.57,12.2 24.09,21.34l0 -116.9 32.82 0 0 260z"/>
   <path id="4" class="fil4" d="M18625.17 8949.12c-4.27,-4.15 -6.37,-9.19 -6.37,-15.14 0,-6.02 2.11,-11 6.37,-15.15 4.74,-4.09 10.1,-6.13 16.17,-6.13 6.07,0 11.42,1.99 15.98,5.95 4.64,4.03 6.92,9.13 6.92,15.33 0,6.19 -2.28,11.29 -6.92,15.32 -4.56,3.96 -9.91,5.95 -15.98,5.95 -6.07,0 -11.42,-2.04 -16.17,-6.13zm32.57 215.29l-32.81 0 0 -168.41 32.81 0 0 168.41z"/>
   <polygon id="5" class="fil4" points="18757.87,8934.34 18757.87,8996 18793.21,8996 18793.21,9025.21 18757.87,9025.21 18757.87,9164.41 18725.06,9164.41 18725.06,9025.21 18694.77,9025.21 18694.77,8996 18725.06,8996 18725.06,8934.34 "/>
   <path id="6" class="fil4" d="M19003.68 8992.4c25.97,0 47.24,9.08 63.89,27.17l-24.99 20.79c-10.52,-10.58 -23.75,-15.86 -39.61,-15.86 -15.81,0 -29.27,5.1 -40.33,15.39 -11.12,10.1 -16.71,23.5 -16.71,40.26 0,16.71 5.65,30.29 16.88,40.75 11.3,10.52 24.77,15.75 40.51,15.75 15.86,0 28.97,-5.54 39.25,-16.59l25.36 20.91c-16.78,18.03 -37.99,27.05 -63.53,27.05 -25.6,0 -47.24,-8.11 -64.91,-24.34 -17.61,-16.46 -26.38,-37.62 -26.38,-63.53 0,-25.9 8.65,-46.99 25.9,-63.23 17.31,-16.22 38.83,-24.4 64.67,-24.52z"/>
   <path id="7" class="fil4" d="M19225.64 9120.77c10.81,-10.1 16.22,-23.68 16.22,-40.8 0,-17.13 -5.65,-30.65 -16.88,-40.51 -11.3,-9.86 -24.58,-14.84 -39.85,-14.96 -15.33,0 -28.13,5.1 -38.47,15.32 -10.34,10.1 -15.5,23.32 -15.5,39.79 0,16.41 5.29,29.92 15.87,40.45 10.58,10.58 23.62,15.86 39.12,15.86 15.5,0 28.66,-5.05 39.49,-15.15zm49.4 43.64l-32.81 0 0 -25.84c-5.3,8.84 -13.29,15.93 -23.98,21.34 -10.69,5.41 -22.36,8.11 -35.1,8.11 -23.31,0 -43.57,-8.18 -60.7,-24.52 -16.54,-16.29 -24.82,-37.45 -24.82,-63.36 0,-25.96 8.17,-47.06 24.45,-63.23 16.35,-16.22 36.73,-24.4 61.13,-24.52 12.2,0 23.97,2.52 35.22,7.57 11.05,5.54 18.99,12.63 23.8,21.34l0 -25.3 32.81 0 0 168.41z"/>
   <path id="8" class="fil4" d="M19362.24 9103.16l0 61.25 -32.81 0 0 -168.41 32.81 0 0 37.98c8.24,-27.7 23.8,-41.59 46.82,-41.59 13.29,0 23.02,2.16 29.27,6.43l-5.1 30.77c-7.39,-3.91 -15.69,-5.83 -24.82,-5.83 -14.85,0 -26.21,7.09 -34.2,21.28 -7.99,14.25 -11.97,33.59 -11.97,58.11z"/>
   <path id="9" class="fil4" d="M19587.99 9120.6c10.93,-10.22 16.41,-23.8 16.41,-40.81 0,-17 -5.65,-30.47 -16.88,-40.33 -11.3,-9.86 -24.53,-14.84 -39.67,-14.96 -15.2,0 -27.95,5.1 -38.28,15.32 -10.34,10.34 -15.5,23.68 -15.5,40.15 0,16.41 5.23,29.87 15.69,40.27 10.46,10.46 23.38,15.68 38.76,15.68 15.39,0 28.56,-5.1 39.49,-15.32zm49.59 43.81l-32.82 0 0 -25.84c-5.29,8.84 -13.28,15.93 -23.97,21.34 -10.71,5.41 -22.42,8.11 -35.22,8.11 -23.38,0 -43.57,-8.18 -60.59,-24.52 -16.29,-16.29 -24.45,-37.45 -24.45,-63.36 0,-25.96 8.11,-47.06 24.28,-63.23 16.22,-16.22 36.36,-24.4 60.46,-24.52 12.99,0 24.82,2.52 35.41,7.57 10.51,5.05 18.57,12.2 24.09,21.34l0 -116.9 32.82 0 0 260z"/>
   <path class="fil15" d="M17907.96 9834.66l-65.2 0 0 92.68 63.28 0c13.77,-0.12 24.29,-4.39 31.62,-12.87 7.27,-8.47 11,-19.41 11.12,-32.93 0,-13.53 -3.49,-24.82 -10.4,-33.83 -7.21,-8.72 -17.36,-13.05 -30.41,-13.05zm-98.74 217.09l0 -248.46 99.11 0c24.58,0 42.91,7.57 55.17,22.71 12.56,14.72 18.82,33.06 18.82,55.18 0,22.17 -6.25,40.63 -18.7,55.35 -12.5,14.78 -30.94,22.17 -55.41,22.17l-65.45 0 0 93.04 -33.54 0z"/>
   <path id="1" class="fil15" d="M18138.09 10008.11c10.81,-10.1 16.22,-23.68 16.22,-40.8 0,-17.13 -5.65,-30.65 -16.88,-40.51 -11.3,-9.86 -24.58,-14.84 -39.85,-14.96 -15.33,0 -28.13,5.1 -38.47,15.32 -10.34,10.1 -15.5,23.32 -15.5,39.79 0,16.41 5.29,29.92 15.87,40.45 10.58,10.58 23.62,15.86 39.12,15.86 15.5,0 28.66,-5.05 39.49,-15.15zm49.4 43.64l-32.81 0 0 -25.84c-5.3,8.84 -13.29,15.93 -23.98,21.34 -10.69,5.41 -22.36,8.11 -35.1,8.11 -23.31,0 -43.57,-8.18 -60.7,-24.52 -16.54,-16.29 -24.82,-37.45 -24.82,-63.36 0,-25.96 8.17,-47.06 24.45,-63.23 16.35,-16.22 36.73,-24.4 61.13,-24.52 12.2,0 23.97,2.52 35.22,7.57 11.05,5.54 18.99,12.63 23.8,21.34l0 -25.3 32.81 0 0 168.41z"/>
   <polygon id="2" class="fil15" points="18391.96,9883.35 18287.38,10133.61 18253.07,10133.61 18288.4,10046.58 18220.97,9883.35 18256.01,9883.35 18306.38,10005.24 18356.92,9883.35 "/>
   <polygon id="3" class="fil15" points="18768.98,9883.35 18706.65,10051.75 18679.54,10051.75 18633.76,9928.06 18589.39,10051.75 18562.65,10051.75 18498.52,9883.35 18533.56,9883.35 18575.63,10001.21 18617.95,9883.35 18649.62,9883.35 18691.87,10001.21 18733.94,9883.35 "/>
   <path id="4" class="fil15" d="M18803.66 9836.46c-4.27,-4.15 -6.37,-9.19 -6.37,-15.14 0,-6.02 2.11,-11 6.37,-15.15 4.74,-4.09 10.1,-6.13 16.17,-6.13 6.07,0 11.42,1.99 15.98,5.95 4.64,4.03 6.92,9.13 6.92,15.33 0,6.19 -2.28,11.29 -6.92,15.32 -4.56,3.96 -9.91,5.95 -15.98,5.95 -6.07,0 -11.42,-2.04 -16.17,-6.13zm32.57 215.29l-32.81 0 0 -168.41 32.81 0 0 168.41z"/>
   <polygon id="5" class="fil15" points="18936.36,9821.69 18936.36,9883.35 18971.71,9883.35 18971.71,9912.55 18936.36,9912.55 18936.36,10051.75 18903.55,10051.75 18903.55,9912.55 18873.26,9912.55 18873.26,9883.35 18903.55,9883.35 18903.55,9821.69 "/>
   <path id="6" class="fil15" d="M19041.89 9960.94l0 90.81 -32.81 0 0 -260 32.81 0 0 116.9c4.57,-9.37 12.39,-16.58 23.44,-21.51 11,-4.93 21.69,-7.39 32.04,-7.39 21.27,0 38.04,6.61 50.24,19.89 12.2,13.28 18.21,31.5 17.97,54.76l0 97.36 -32.81 0 0 -95.2c0,-14.01 -3.72,-24.77 -11.12,-32.4 -7.16,-8.23 -17.07,-12.31 -29.75,-12.31 -12.68,0 -24.16,4.03 -34.5,12.14 -10.35,8.11 -15.52,20.43 -15.52,36.96z"/>
   <polygon id="7" class="fil15" points="19357.26,9821.69 19357.26,9883.35 19392.6,9883.35 19392.6,9912.55 19357.26,9912.55 19357.26,10051.75 19324.44,10051.75 19324.44,9912.55 19294.15,9912.55 19294.15,9883.35 19324.44,9883.35 19324.44,9821.69 "/>
   <path id="8" class="fil15" d="M19588.64 9967.07c0,7.45 -0.12,11.72 -0.36,12.92l-136.67 0c1.62,13.58 7.63,24.82 17.97,33.78 9.98,8.23 21.15,12.38 33.59,12.38 24.34,0 41.35,-8.72 51.09,-26.15 0.24,0 0.61,0.07 1.09,0.3 0.42,0.24 1.26,0.66 2.46,1.26 1.38,0.6 3.25,1.32 5.59,2.11 2.33,0.84 4.14,1.56 5.29,2.16l13.76 5.11c-6.91,14.18 -17.36,25.11 -31.37,32.81 -13.94,7.75 -29.33,11.6 -46.1,11.6 -24.09,0 -44.66,-8.11 -61.78,-24.4 -16.29,-16.29 -24.4,-37.62 -24.4,-63.89 0,-26.33 8.11,-47.43 24.28,-63.36 16.22,-15.86 36.72,-23.85 61.61,-23.97 24.88,0 44.95,8.06 60.22,24.1 15.81,15.98 23.74,37.08 23.74,63.23zm-49.16 -46.04c-9.37,-8.06 -21.03,-12.08 -34.85,-12.08 -13.89,0 -25.79,4.03 -35.77,12.08 -9.85,8.59 -15.62,19.77 -17.24,33.36l104.4 0c-1.63,-13.58 -7.16,-24.77 -16.54,-33.36z"/>
   <path id="9" class="fil15" d="M19663.17 9990.5l0 61.25 -32.81 0 0 -168.41 32.81 0 0 37.98c8.24,-27.7 23.8,-41.59 46.82,-41.59 13.29,0 23.02,2.16 29.27,6.43l-5.1 30.77c-7.39,-3.91 -15.69,-5.83 -24.82,-5.83 -14.85,0 -26.21,7.09 -34.2,21.28 -7.99,14.25 -11.97,33.59 -11.97,58.11z"/>
   <path id="10" class="fil15" d="M19921.55 9961.18l0 90.58 -32.82 0 0 -95.32c0,-13.94 -3.37,-24.7 -10.03,-32.33 -6.43,-7.94 -15.86,-11.9 -28.19,-11.9 -12.2,0 -22.78,4.15 -31.67,12.44 -8.96,8.3 -13.41,20.49 -13.41,36.54l0 90.58 -32.81 0 0 -168.41 32.81 0 0 25.6c3.91,-8.06 10.28,-14.67 19.24,-19.77 9.37,-5.11 17.9,-7.87 25.54,-8.35 32.4,-1.99 53.85,9.37 64.31,34.02 11.72,-23.39 31.08,-35.1 58.18,-35.1 21.1,0 37.14,6.49 48.09,19.53 11.24,12.8 16.88,31.19 16.88,55.11l0 97.36 -32.81 0 0 -94.96c0,-13.7 -3.43,-24.58 -10.22,-32.69 -7.34,-7.94 -17.25,-11.97 -29.7,-12.08 -12.38,-0.12 -22.71,4.33 -30.89,13.34 -8.23,9.01 -12.38,20.91 -12.5,35.82z"/>
   <path id="11" class="fil15" d="M20102.03 9892.07c11.24,-8.24 24.82,-12.32 40.81,-12.32 15.92,0 29.14,4.08 39.54,12.26 10.46,8.18 16.41,19.84 17.79,34.98l-31.31 0c-0.96,-5.47 -3.84,-9.86 -8.65,-13.17 -5.29,-3.24 -11.12,-4.86 -17.61,-4.86 -6.43,0 -11.9,1.38 -16.34,4.15 -4.81,2.16 -7.82,5.95 -9.14,11.24 -1.26,5.29 -1.07,9.5 0.54,12.63 2.7,5.41 9.32,9.61 19.84,12.62l24.82 6.07c29.15,7.16 43.69,23.56 43.69,49.22 0,15.21 -6.31,27.47 -18.99,36.91 -12.8,9.08 -27.76,13.58 -44.9,13.58 -17.19,0 -32.1,-4.93 -44.78,-14.84 -12.68,-9.86 -19.11,-22.96 -19.35,-39.37l31.01 0c1.38,8.72 5.83,15.15 13.41,19.24 7.33,4.63 15.26,6.67 23.8,6.19 8.53,-0.49 15.14,-2.77 19.83,-6.85 4.69,-4.15 7.33,-9.14 7.94,-15.03 0.48,-5.9 -1.32,-10.58 -5.47,-14.13 -4.08,-3.55 -9.74,-6.13 -16.88,-7.75l-23.08 -5.35c-16.29,-4.39 -28.31,-10.81 -36,-19.41 -7.38,-8.89 -10.46,-20.01 -9.13,-33.41 1.26,-13.41 7.51,-24.22 18.63,-32.57z"/>
   <polygon class="fil4" points="17807.04,10929.71 17807.04,10681.25 17840.58,10681.25 17840.58,10929.71 "/>
   <path id="1" class="fil4" d="M17934.63 10838.89l0 90.81 -32.81 0 0 -168.41 32.81 0 0 25.3c4.81,-9.37 12.02,-16.58 21.7,-21.51 9.61,-4.93 19.95,-7.39 30.94,-7.39 21.16,0 37.09,6.49 47.84,19.53 11.25,12.8 16.95,31.19 17.08,55.11l0 97.36 -32.82 0 0 -95.2c0,-14.18 -3.37,-25.13 -10.03,-32.76 -6.49,-7.99 -16.05,-11.95 -28.73,-11.95 -12.8,0 -23.68,4.15 -32.57,12.5 -8.96,8.3 -13.41,20.55 -13.41,36.6z"/>
   <path id="2" class="fil4" d="M18116.62 10770.02c11.24,-8.24 24.82,-12.32 40.81,-12.32 15.92,0 29.14,4.08 39.54,12.26 10.46,8.18 16.41,19.84 17.79,34.98l-31.31 0c-0.96,-5.47 -3.84,-9.86 -8.65,-13.17 -5.29,-3.24 -11.12,-4.86 -17.61,-4.86 -6.43,0 -11.9,1.38 -16.34,4.15 -4.81,2.16 -7.82,5.95 -9.14,11.24 -1.26,5.29 -1.07,9.5 0.54,12.63 2.7,5.41 9.32,9.61 19.84,12.62l24.82 6.07c29.15,7.16 43.69,23.56 43.69,49.22 0,15.21 -6.31,27.47 -18.99,36.91 -12.8,9.08 -27.76,13.58 -44.9,13.58 -17.19,0 -32.1,-4.93 -44.78,-14.84 -12.68,-9.86 -19.11,-22.96 -19.35,-39.37l31.01 0c1.38,8.72 5.83,15.15 13.41,19.24 7.33,4.63 15.26,6.67 23.8,6.19 8.53,-0.49 15.14,-2.77 19.83,-6.85 4.69,-4.15 7.33,-9.14 7.94,-15.03 0.48,-5.9 -1.32,-10.58 -5.47,-14.13 -4.08,-3.55 -9.74,-6.13 -16.88,-7.75l-23.08 -5.35c-16.29,-4.39 -28.31,-10.81 -36,-19.41 -7.38,-8.89 -10.46,-20.01 -9.13,-33.41 1.26,-13.41 7.51,-24.22 18.63,-32.57z"/>
   <polygon id="3" class="fil4" points="18308.58,10699.64 18308.58,10761.3 18343.93,10761.3 18343.93,10790.51 18308.58,10790.51 18308.58,10929.71 18275.77,10929.71 18275.77,10790.51 18245.48,10790.51 18245.48,10761.3 18275.77,10761.3 18275.77,10699.64 "/>
   <path id="4" class="fil4" d="M18498.14 10886.07c10.81,-10.1 16.22,-23.68 16.22,-40.8 0,-17.13 -5.65,-30.65 -16.88,-40.51 -11.3,-9.86 -24.58,-14.84 -39.85,-14.96 -15.33,0 -28.13,5.1 -38.47,15.32 -10.34,10.1 -15.5,23.32 -15.5,39.79 0,16.41 5.29,29.92 15.87,40.45 10.58,10.58 23.62,15.86 39.12,15.86 15.5,0 28.66,-5.05 39.49,-15.15zm49.4 43.64l-32.81 0 0 -25.84c-5.3,8.84 -13.29,15.93 -23.98,21.34 -10.69,5.41 -22.36,8.11 -35.1,8.11 -23.31,0 -43.57,-8.18 -60.7,-24.52 -16.54,-16.29 -24.82,-37.45 -24.82,-63.36 0,-25.96 8.17,-47.06 24.45,-63.23 16.35,-16.22 36.73,-24.4 61.13,-24.52 12.2,0 23.97,2.52 35.22,7.57 11.05,5.54 18.99,12.63 23.8,21.34l0 -25.3 32.81 0 0 168.41z"/>
   <path id="5" class="fil4" d="M18634.74 10838.89l0 90.81 -32.81 0 0 -168.41 32.81 0 0 25.3c4.81,-9.37 12.02,-16.58 21.7,-21.51 9.61,-4.93 19.95,-7.39 30.94,-7.39 21.16,0 37.09,6.49 47.84,19.53 11.25,12.8 16.95,31.19 17.08,55.11l0 97.36 -32.82 0 0 -95.2c0,-14.18 -3.37,-25.13 -10.03,-32.76 -6.49,-7.99 -16.05,-11.95 -28.73,-11.95 -12.8,0 -23.68,4.15 -32.57,12.5 -8.96,8.3 -13.41,20.55 -13.41,36.6z"/>
   <polygon id="6" class="fil4" points="18850.39,10699.64 18850.39,10761.3 18885.73,10761.3 18885.73,10790.51 18850.39,10790.51 18850.39,10929.71 18817.58,10929.71 18817.58,10790.51 18787.28,10790.51 18787.28,10761.3 18817.58,10761.3 18817.58,10699.64 "/>
   <polygon id="7" class="fil4" points="19016.81,10929.71 19016.81,10669.7 19049.62,10669.7 19049.62,10929.71 "/>
   <path id="8" class="fil4" d="M19220.85 10886.37c10.52,-10.34 15.81,-23.92 15.81,-40.75 0,-16.88 -5.29,-30.35 -15.81,-40.45 -10.52,-10.16 -23.62,-15.27 -39.31,-15.39 -15.62,0 -28.78,5.05 -39.42,15.2 -10.76,10.22 -16.17,23.68 -16.17,40.45 0,16.71 5.29,30.29 15.81,40.75 10.51,10.52 23.68,15.75 39.48,15.75 15.87,0 29.09,-5.17 39.61,-15.57zm-39.42 46.94c-24.52,0 -45.32,-8.11 -62.51,-24.34 -17.19,-16.22 -25.78,-37.38 -25.78,-63.53 0,-26.13 8.47,-47.35 25.35,-63.58 16.89,-16.22 37.75,-24.28 62.63,-24.16 25.01,0 45.92,8.11 62.81,24.34 17,16.34 25.54,37.5 25.54,63.4 0,25.91 -8.53,47 -25.6,63.36 -17.07,16.34 -37.93,24.52 -62.44,24.52z"/>
   <path id="9" class="fil4" d="M19429.83 10886.07c10.81,-10.1 16.22,-23.68 16.22,-40.8 0,-17.13 -5.65,-30.65 -16.88,-40.51 -11.3,-9.86 -24.58,-14.84 -39.85,-14.96 -15.33,0 -28.13,5.1 -38.47,15.32 -10.34,10.1 -15.5,23.32 -15.5,39.79 0,16.41 5.29,29.92 15.87,40.45 10.58,10.58 23.62,15.86 39.12,15.86 15.5,0 28.66,-5.05 39.49,-15.15zm49.4 43.64l-32.81 0 0 -25.84c-5.3,8.84 -13.29,15.93 -23.98,21.34 -10.69,5.41 -22.36,8.11 -35.1,8.11 -23.31,0 -43.57,-8.18 -60.7,-24.52 -16.54,-16.29 -24.82,-37.45 -24.82,-63.36 0,-25.96 8.17,-47.06 24.45,-63.23 16.35,-16.22 36.73,-24.4 61.13,-24.52 12.2,0 23.97,2.52 35.22,7.57 11.05,5.54 18.99,12.63 23.8,21.34l0 -25.3 32.81 0 0 168.41z"/>
   <path id="10" class="fil4" d="M19566.43 10838.89l0 90.81 -32.81 0 0 -168.41 32.81 0 0 25.3c4.81,-9.37 12.02,-16.58 21.7,-21.51 9.61,-4.93 19.95,-7.39 30.94,-7.39 21.16,0 37.09,6.49 47.84,19.53 11.25,12.8 16.95,31.19 17.08,55.11l0 97.36 -32.82 0 0 -95.2c0,-14.18 -3.37,-25.13 -10.03,-32.76 -6.49,-7.99 -16.05,-11.95 -28.73,-11.95 -12.8,0 -23.68,4.15 -32.57,12.5 -8.96,8.3 -13.41,20.55 -13.41,36.6z"/>
   <path class="fil4" d="M17909.85 11579.34l-65.2 0 0 92.68 63.28 0c13.77,-0.12 24.29,-4.39 31.62,-12.87 7.27,-8.47 11,-19.41 11.12,-32.93 0,-13.53 -3.49,-24.82 -10.4,-33.83 -7.21,-8.72 -17.36,-13.05 -30.41,-13.05zm-98.74 217.09l0 -248.46 99.11 0c24.58,0 42.91,7.57 55.17,22.71 12.56,14.72 18.82,33.06 18.82,55.18 0,22.17 -6.25,40.63 -18.7,55.35 -12.5,14.78 -30.94,22.17 -55.41,22.17l-65.45 0 0 93.04 -33.54 0z"/>
   <path id="1" class="fil4" d="M18139.98 11752.8c10.81,-10.1 16.22,-23.68 16.22,-40.8 0,-17.13 -5.65,-30.65 -16.88,-40.51 -11.3,-9.86 -24.58,-14.84 -39.85,-14.96 -15.33,0 -28.13,5.1 -38.47,15.32 -10.34,10.1 -15.5,23.32 -15.5,39.79 0,16.41 5.29,29.92 15.87,40.45 10.58,10.58 23.62,15.86 39.12,15.86 15.5,0 28.66,-5.05 39.49,-15.15zm49.4 43.64l-32.81 0 0 -25.84c-5.3,8.84 -13.29,15.93 -23.98,21.34 -10.69,5.41 -22.36,8.11 -35.1,8.11 -23.31,0 -43.57,-8.18 -60.7,-24.52 -16.54,-16.29 -24.82,-37.45 -24.82,-63.36 0,-25.96 8.17,-47.06 24.45,-63.23 16.35,-16.22 36.73,-24.4 61.13,-24.52 12.2,0 23.97,2.52 35.22,7.57 11.05,5.54 18.99,12.63 23.8,21.34l0 -25.3 32.81 0 0 168.41z"/>
   <polygon id="2" class="fil4" points="18393.85,11628.03 18289.27,11878.29 18254.96,11878.29 18290.29,11791.26 18222.86,11628.03 18257.9,11628.03 18308.27,11749.92 18358.81,11628.03 "/>
   <path id="3" class="fil4" d="M18637.5 11753.1c10.52,-10.34 15.81,-23.92 15.81,-40.75 0,-16.88 -5.29,-30.35 -15.81,-40.45 -10.52,-10.16 -23.62,-15.27 -39.31,-15.39 -15.62,0 -28.78,5.05 -39.42,15.2 -10.76,10.22 -16.17,23.68 -16.17,40.45 0,16.71 5.29,30.29 15.81,40.75 10.51,10.52 23.68,15.75 39.48,15.75 15.87,0 29.09,-5.17 39.61,-15.57zm-39.42 46.94c-24.52,0 -45.32,-8.11 -62.51,-24.34 -17.19,-16.22 -25.78,-37.38 -25.78,-63.53 0,-26.13 8.47,-47.35 25.35,-63.58 16.89,-16.22 37.75,-24.28 62.63,-24.16 25.01,0 45.92,8.11 62.81,24.34 17,16.34 25.54,37.5 25.54,63.4 0,25.91 -8.53,47 -25.6,63.36 -17.07,16.34 -37.93,24.52 -62.44,24.52z"/>
   <path id="4" class="fil4" d="M18762.45 11705.62l0 90.81 -32.81 0 0 -168.41 32.81 0 0 25.3c4.81,-9.37 12.02,-16.58 21.7,-21.51 9.61,-4.93 19.95,-7.39 30.94,-7.39 21.16,0 37.09,6.49 47.84,19.53 11.25,12.8 16.95,31.19 17.08,55.11l0 97.36 -32.82 0 0 -95.2c0,-14.18 -3.37,-25.13 -10.03,-32.76 -6.49,-7.99 -16.05,-11.95 -28.73,-11.95 -12.8,0 -23.68,4.15 -32.57,12.5 -8.96,8.3 -13.41,20.55 -13.41,36.6z"/>
   <path id="5" class="fil4" d="M19142.66 11752.62c10.93,-10.22 16.41,-23.8 16.41,-40.81 0,-17 -5.65,-30.47 -16.88,-40.33 -11.3,-9.86 -24.53,-14.84 -39.67,-14.96 -15.2,0 -27.95,5.1 -38.28,15.32 -10.34,10.34 -15.5,23.68 -15.5,40.15 0,16.41 5.23,29.87 15.69,40.27 10.46,10.46 23.38,15.68 38.76,15.68 15.39,0 28.56,-5.1 39.49,-15.32zm49.59 43.81l-32.82 0 0 -25.84c-5.29,8.84 -13.28,15.93 -23.97,21.34 -10.71,5.41 -22.42,8.11 -35.22,8.11 -23.38,0 -43.57,-8.18 -60.59,-24.52 -16.29,-16.29 -24.45,-37.45 -24.45,-63.36 0,-25.96 8.11,-47.06 24.28,-63.23 16.22,-16.22 36.36,-24.4 60.46,-24.52 12.99,0 24.82,2.52 35.41,7.57 10.51,5.05 18.57,12.2 24.09,21.34l0 -116.9 32.82 0 0 260z"/>
   <path id="6" class="fil4" d="M19405.66 11711.75c0,7.45 -0.12,11.72 -0.36,12.92l-136.67 0c1.62,13.58 7.63,24.82 17.97,33.78 9.98,8.23 21.15,12.38 33.59,12.38 24.34,0 41.35,-8.72 51.09,-26.15 0.24,0 0.61,0.07 1.09,0.3 0.42,0.24 1.26,0.66 2.46,1.26 1.38,0.6 3.25,1.32 5.59,2.11 2.33,0.84 4.14,1.56 5.29,2.16l13.76 5.11c-6.91,14.18 -17.36,25.11 -31.37,32.81 -13.94,7.75 -29.33,11.6 -46.1,11.6 -24.09,0 -44.66,-8.11 -61.78,-24.4 -16.29,-16.29 -24.4,-37.62 -24.4,-63.89 0,-26.33 8.11,-47.43 24.28,-63.36 16.22,-15.86 36.72,-23.85 61.61,-23.97 24.88,0 44.95,8.06 60.22,24.1 15.81,15.98 23.74,37.08 23.74,63.23zm-49.16 -46.04c-9.37,-8.06 -21.03,-12.08 -34.85,-12.08 -13.89,0 -25.79,4.03 -35.77,12.08 -9.85,8.59 -15.62,19.77 -17.24,33.36l104.4 0c-1.63,-13.58 -7.16,-24.77 -16.54,-33.36z"/>
   <polygon id="7" class="fil4" points="19447.38,11796.43 19447.38,11536.43 19480.19,11536.43 19480.19,11796.43 "/>
   <path id="8" class="fil4" d="M19534.76 11581.14c-4.27,-4.15 -6.37,-9.19 -6.37,-15.14 0,-6.02 2.11,-11 6.37,-15.15 4.74,-4.09 10.1,-6.13 16.17,-6.13 6.07,0 11.42,1.99 15.98,5.95 4.64,4.03 6.92,9.13 6.92,15.33 0,6.19 -2.28,11.29 -6.92,15.32 -4.56,3.96 -9.91,5.95 -15.98,5.95 -6.07,0 -11.42,-2.04 -16.17,-6.13zm32.57 215.29l-32.81 0 0 -168.41 32.81 0 0 168.41z"/>
   <polygon id="9" class="fil4" points="19670.71,11796.43 19600.81,11628.03 19635.3,11628.03 19686.52,11754.48 19737.42,11628.03 19772.46,11628.03 "/>
   <path id="10" class="fil4" d="M19964.55 11711.75c0,7.45 -0.12,11.72 -0.36,12.92l-136.67 0c1.62,13.58 7.63,24.82 17.97,33.78 9.98,8.23 21.15,12.38 33.59,12.38 24.34,0 41.35,-8.72 51.09,-26.15 0.24,0 0.61,0.07 1.09,0.3 0.42,0.24 1.26,0.66 2.46,1.26 1.38,0.6 3.25,1.32 5.59,2.11 2.33,0.84 4.14,1.56 5.29,2.16l13.76 5.11c-6.91,14.18 -17.36,25.11 -31.37,32.81 -13.94,7.75 -29.33,11.6 -46.1,11.6 -24.09,0 -44.66,-8.11 -61.78,-24.4 -16.29,-16.29 -24.4,-37.62 -24.4,-63.89 0,-26.33 8.11,-47.43 24.28,-63.36 16.22,-15.86 36.72,-23.85 61.61,-23.97 24.88,0 44.95,8.06 60.22,24.1 15.81,15.98 23.74,37.08 23.74,63.23zm-49.16 -46.04c-9.37,-8.06 -21.03,-12.08 -34.85,-12.08 -13.89,0 -25.79,4.03 -35.77,12.08 -9.85,8.59 -15.62,19.77 -17.24,33.36l104.4 0c-1.63,-13.58 -7.16,-24.77 -16.54,-33.36z"/>
   <path id="11" class="fil4" d="M20039.07 11735.18l0 61.25 -32.81 0 0 -168.41 32.81 0 0 37.98c8.24,-27.7 23.8,-41.59 46.82,-41.59 13.29,0 23.02,2.16 29.27,6.43l-5.1 30.77c-7.39,-3.91 -15.69,-5.83 -24.82,-5.83 -14.85,0 -26.21,7.09 -34.2,21.28 -7.99,14.25 -11.97,33.59 -11.97,58.11z"/>
   <polygon id="12" class="fil4" points="20298.6,11628.03 20194.02,11878.29 20159.7,11878.29 20195.04,11791.26 20127.61,11628.03 20162.65,11628.03 20213.02,11749.92 20263.56,11628.03 "/>
   <polyline class="fil16 str0" points="16972.08,9959.05 17031.72,10031.67 17149.55,9893.68 "/>
  </g>
 </g>
</svg>
