<svg xmlns="http://www.w3.org/2000/svg" xmlns:xlink="http://www.w3.org/1999/xlink" width="1340" height="660" viewBox="0 0 1340 660">
  <defs>
    <style>
      .cls-1 {
        clip-path: url(#clip-kmall_2);
      }

      .cls-2 {
        fill: #FB0028;
      }

      .cls-3 {
        fill: #FFFFFF;
      }
    </style>
    <clipPath id="clip-kmall_2">
      <rect width="1340" height="660"/>
    </clipPath>
  </defs>
  <g id="kmall_2" class="cls-1">
    <g id="Group_1871" data-name="Group 1871" transform="translate(-9050 -5315)">
      <g id="Group_1856" data-name="Group 1856" transform="translate(9074 5344.742)">
        <g id="Group_1849" data-name="Group 1849" transform="translate(69.115 426.552)">
          <path id="Wheel_2_4_" class="cls-2" d="M155.882,432.09a87.094,87.094,0,1,1-87.1,87.1A87.1,87.1,0,0,1,155.882,432.09Z" transform="translate(-68.781 -432.09)"/>
          <path id="Wheel_1_4_" class="cls-2" d="M390.058,432.09a87.178,87.178,0,1,1-87.077,87.1A87.108,87.108,0,0,1,390.058,432.09Z" transform="translate(-61.96 -432.09)"/>
        </g>
        <path id="Cart_4_" class="cls-2" d="M552.684,161.436H444.759C427.294,106.9,363.073,71.41,298.509,72.262c-61.593.813-122.1,39.907-136.291,89.175H50.379c-13.96,0-25.178,10.683-25.178,23.833V584.451c0,13.177,11.217,23.825,25.178,23.825H552.684c13.986,0,25.207-10.647,25.207-23.825V185.269C577.89,172.119,566.67,161.436,552.684,161.436Zm-126.462,0H181c14.727-36.881,65.3-74.069,117.509-74.523C352.3,86.445,407.073,116.048,426.222,161.436Z" transform="translate(-25.201 -72.247)"/>
        <g id="XMLID_1_" transform="translate(128.384 177.365)">
          <path id="XMLID_2_" class="cls-3" d="M269.808,390.82v-47.3l63.17,85.828H457.75l-16.857-30.22L334.4,383.71l92.744-5.8-17.814-26.192-96.408-12.732,82.411-7.969L378.039,306.1l-112.4-9.639,103.531-10.791c5.856-8.539,19.956-28.572,19.956-28.572l-76.2-19.079s87.349,3.381,89.763,0c10.592-14.833,18.831-26.221,18.831-26.221L334.4,197.059l106.5-5.138,16.87-30.724H328.929L269.808,246.83V161.2H158.4s.5,88.173,0,184.563l-.5,83.587H269.808Z" transform="translate(-157.9 -161.197)"/>
        </g>
      </g>
      <g id="mall_2x" data-name="mall@2x" transform="translate(9672.216 5522.412)">
        <path id="Path_3087" data-name="Path 3087" class="cls-2" d="M1224-632.153v133.847h45.071l-.091-133.756-.137-133.711-22.4-.137L1224-766Z" transform="translate(-694.529 766)"/>
        <path id="Path_3088" data-name="Path 3088" class="cls-2" d="M1404-632.153v133.847h44.616V-766H1404Z" transform="translate(-792.581 766)"/>
        <path id="Path_3089" data-name="Path 3089" class="cls-2" d="M142.037-614.569c-18.575,1.275-43.387,6.237-61.415,12.247a121.285,121.285,0,0,0-15.616,6.192L61-594.264v178.327h45.071l.091-76.8.137-76.8,3.824-1.275c19.576-6.6,41.065-7.648,55.314-2.686,7.284,2.55,14.25,8.468,17.254,14.614a48.937,48.937,0,0,1,4.416,16.3c.273,3,.455,28.135.455,65.74v60.914H232.68l-.182-70.247c-.091-64.42-.182-70.566-.911-74.754-.455-2.5-.865-4.962-.911-5.463-.091-.728.774-1.32,4.143-3.05,11.837-5.918,24.448-8.149,38.424-6.783,10.881,1.047,18.62,4.052,24.448,9.424a27.456,27.456,0,0,1,8.1,12.52c2.914,8.513,2.868,6.92,2.868,75.847v62.508h45.071v-68.654c-.046-55.906-.137-69.564-.683-73.844-3.733-30.776-19.3-47.712-49.533-53.9-9.469-1.912-14.3-2.322-28.09-2.322-10.016,0-14.341.182-18.893.819A164.426,164.426,0,0,0,214.151-602l-3.733,1.594L208.232-602a66.561,66.561,0,0,0-7.694-4.234c-9.515-4.6-19.03-6.92-33.234-8.149C162.342-614.842,147.136-614.933,142.037-614.569Z" transform="translate(-61 683.632)"/>
        <path id="Path_3090" data-name="Path 3090" class="cls-2" d="M841.706-614.114c-20.714,1.912-40.382,6.647-53.129,12.884l-5.144,2.458v20.942c0,11.473.091,20.9.182,20.9.137,0,2.185-1.32,4.6-2.959,23.492-15.934,63.6-21.443,85.134-11.655,9.378,4.28,15.024,10.835,17.619,20.441.774,3,.956,5.236,1.138,15.889.137,6.829.137,12.429,0,12.429-.091,0-2.413-1.093-5.144-2.458-8.878-4.416-20.578-7.922-32.278-9.652-7.831-1.184-28.317-1.229-35.738-.046-23.765,3.733-39.153,13.794-47.529,31.094-7.33,15.16-8.058,40.7-1.593,56.862a39.557,39.557,0,0,0,7.512,12.52c11.154,13.567,28.5,21.215,54.358,23.9,14.568,1.548,40.245.41,57-2.5,25.13-4.371,40.473-13.977,45.845-28.682,2.549-7.057,2.5-5.145,2.686-58.957.137-51.991,0-57.363-1.821-65.785-4.325-20.214-19.076-35.511-41.338-42.931a112.811,112.811,0,0,0-18.438-4.234C869.295-614.615,850.128-614.843,841.706-614.114Zm22.4,111.585a129.139,129.139,0,0,1,23.127,4.917l4.78,1.5v40.018l-1.138,2.185c-3.05,6.055-10.426,8.331-29.82,9.378-14.978.819-23.583-.319-32.6-4.234-9.469-4.188-14.66-9.378-17.118-17.163-1.184-3.6-1.138-13.84.046-17.254a22.071,22.071,0,0,1,6.192-10.016c4.826-4.735,12.474-7.922,21.625-9.06,2.276-.273,4.6-.592,5.236-.683C847.4-503.349,858.505-503.121,864.1-502.529Z" transform="translate(-444.716 683.496)"/>
      </g>
    </g>
  </g>
</svg>
