<?xml version="1.0" encoding="UTF-8"?>
<!DOCTYPE svg PUBLIC "-//W3C//DTD SVG 1.1//EN" "http://www.w3.org/Graphics/SVG/1.1/DTD/svg11.dtd">
<!-- Creator: CorelDRAW 2018 (64-Bit Evaluation Version) -->
<svg xmlns="http://www.w3.org/2000/svg" xml:space="preserve" width="12.082mm" height="240px" version="1.1" style="shape-rendering:geometricPrecision; text-rendering:geometricPrecision; image-rendering:optimizeQuality; fill-rule:evenodd; clip-rule:evenodd"
viewBox="0 0 62.44 61.53"
 xmlns:xlink="http://www.w3.org/1999/xlink">
 <defs>
  <style type="text/css">
   <![CDATA[
    .fil0 {fill:white}
    .fil1 {fill:white;fill-rule:nonzero}
   ]]>
  </style>
 </defs>
 <g id="Layer_x0020_1">
  <metadata id="CorelCorpID_0Corel-Layer"/>
  <g>
   <path class="fil0" d="M29.6 4.77c-1.22,-2.29 -4.32,-3.49 -6.58,-1.72l-0.11 0.08 -0.02 0.02 -0.04 0.03 -0.06 0.05 -0.03 0.02 -0.04 0.03 -0.06 0.05 -0.03 0.03 -0.03 0.03 -0.09 0.09 -0.03 0.03 -0.06 0.06 -0.03 0.03 -0.02 0.03 -0.09 0.1 -0.02 0.02 -0.05 0.06 -0.04 0.04 -0.02 0.02 -0.05 0.07 -0.04 0.05 -0.01 0.02 -0.05 0.07 -0.04 0.05 -0.01 0.02 -0.05 0.07 -0.04 0.06 -0.01 0.01 -0.05 0.07 -0.04 0.07 -0.01 0.01 -0.02 0.03 -0.07 0.12 -0 0 -0.04 0.08 -0.04 0.08 -19.98 54.18 0.29 0.1c4.76,1.67 6.08,-0.5 7.08,-2.87l17.34 -47.53 -1.29 -1.2 0.01 -0.02 0 0 0.01 -0.01 0.01 -0.01 0 -0 0.01 -0.01 0.01 -0.01 0 -0 0.01 -0.01 0.01 -0.01 0 -0 0.01 -0.01 0.01 -0.01 0 -0 0.01 -0.01 0.01 -0.01 0 -0 0.01 -0.01 0.01 -0.01 0 -0 0.01 -0.01 0.01 -0.01 0 -0 0.01 -0.01 0.01 -0.01 0 -0 0.01 -0.01 0.01 -0.01 0 -0 0.01 -0.01 0.01 -0.01 0 -0 0.01 -0.01 0.01 -0.01 0 -0 0.01 -0.01 0.01 -0.01 0 -0 0.01 -0.01 0.01 -0.01 0 -0 0.01 -0.01 0.01 -0.01 0 -0 0.01 -0 0.01 -0.01 0.01 -0 0.01 -0.01 0.01 -0.01 0.01 -0 0.01 -0 0.01 -0.01 0.01 -0 0.01 -0 0.01 -0.01 0.01 -0 0 -0 0.01 -0.01 0.01 -0 0 -0 0.01 -0.01 0.01 -0 0.01 -0 0.01 -0.01 0.01 -0 0.01 -0 0.01 -0 0.01 -0 0 -0 0.01 -0 0.01 -0 0 -0 0.01 -0 0.01 -0 0 -0 0.02 -0 0 -0 0.01 -0 0.01 -0 0 -0 0.01 -0 0.01 -0 0 0 0 0c0.21,0.03 0.43,0.2 0.59,0.49l2.73 7.41 2.73 -4.8 -2.03 -5.3z"/>
   <path id="1" class="fil1" d="M23.31 4.79l-0.57 -3.47 -0.01 0.01 0.25 -0.18 0.25 -0.16 0.25 -0.14 0.26 -0.12 0.26 -0.1 0.26 -0.08 0.26 -0.07 0.26 -0.05 0.26 -0.03 0.26 -0.02 0.26 -0 0.26 0.01 0.26 0.03 0.26 0.04 0.25 0.05 0.25 0.07 0.25 0.08 0.24 0.09 0.24 0.11 0.24 0.12 0.23 0.13 0.23 0.14 0.22 0.16 0.21 0.17 0.21 0.18 0.2 0.19 0.2 0.2 0.19 0.22 0.18 0.23 0.18 0.25 0.17 0.26 0.16 0.28 -1.13 2.77 -0.08 -0.14 -0.09 -0.15 -0.1 -0.15 -0.12 -0.15 -0.13 -0.15 -0.14 -0.14 -0.15 -0.14 -0.16 -0.13 -0.17 -0.13 -0.17 -0.12 -0.18 -0.11 -0.19 -0.1 -0.19 -0.1 -0.2 -0.09 -0.2 -0.08 -0.2 -0.07 -0.21 -0.06 -0.21 -0.05 -0.21 -0.03 -0.21 -0.02 -0.21 -0.01 -0.21 0 -0.21 0.01 -0.21 0.03 -0.21 0.04 -0.21 0.05 -0.2 0.07 -0.2 0.08 -0.2 0.09 -0.19 0.11 -0.19 0.12 -0.18 0.13 -0.01 0.01zm0.01 -0.01l-0 0 -0.01 0.01 0.01 -0.01zm-0.69 -3.38l0.11 -0.08 0.57 3.47 -0.11 0.08 -0.57 -3.47 0.01 -0zm-0.01 0l0.01 -0 -0.02 0.02 0.02 -0.01zm-0.02 0.02l0.02 -0.02 0.58 3.46 -0.02 0.02 -0.6 -3.45 0.02 -0.02zm-0.02 0.02l0.01 -0.01 0.01 -0.01 -0.02 0.02zm-0.04 0.03l0.04 -0.03 0.62 3.43 -0.04 0.03 -0 0 -0.62 -3.43zm0.62 3.43l-0 0 -0.01 0.01 0.01 -0.01zm-0.68 -3.38l0.06 -0.05 0.61 3.44 -0.06 0.05 -0.62 -3.43 0.01 -0.01zm-0.01 0.01l0.01 -0.01 0.02 -0.02 -0.03 0.02zm-0.03 0.02l0.03 -0.02 0.63 3.43 -0.03 0.02 -0.64 -3.42 0.01 -0.01zm-0.01 0.01l0.01 -0.01 -0.02 0.01 0.01 -0.01zm-0.04 0.03l0.04 -0.03 0.65 3.41 -0.04 0.03 -0.65 -3.41zm-0.06 0.05l0.06 -0.05 0.65 3.41 -0.06 0.05 -0.66 -3.39 0.02 -0.01zm-0.02 0.01l0.02 -0.01 -0.01 0.01 -0.01 0.01zm-0.03 0.03l0.03 -0.03 0.68 3.38 -0.03 0.03 -0.69 -3.37 0 -0zm-0 0l0 -0 -0.02 0.02 0.02 -0.02zm-0.03 0.03l0.03 -0.03 0.69 3.37 -0.03 0.03 -0.7 -3.36 0.01 -0.01zm-0.01 0.01l0.01 -0.01 0.01 -0.01 -0.02 0.02zm-0.09 0.09l0.09 -0.09 0.7 3.36 -0.09 0.09 -0 0 -0.7 -3.36zm0.7 3.36l-0 0 -0.01 0.01 0.02 -0.01zm-0.73 -3.33l0.03 -0.03 0.69 3.37 -0.03 0.03 -0.71 -3.35 0.02 -0.02zm-0.02 0.02l0.01 -0.01 0.01 -0.01 -0.02 0.02zm-0.06 0.06l0.06 -0.06 0.73 3.33 -0.06 0.06 -0.74 -3.32 0.01 -0.01zm-0.01 0.01l-0 0 0.01 -0.01 -0.01 0.01zm-0.03 0.03l0.03 -0.03 0.76 3.31 -0.03 0.03 -0.76 -3.3 0 -0.01zm-0 0.01l0 -0.01 0.01 -0.01 -0.02 0.02zm-0.02 0.03l0.02 -0.03 0.76 3.29 -0.02 0.03 -0.78 -3.28 0.01 -0.01zm-0.01 0.01l0.01 -0.01 0 -0 -0.01 0.01zm-0.09 0.1l0.09 -0.1 0.79 3.27 -0.09 0.1 -0 0 -0.79 -3.27zm0.79 3.27l-0 0 0.03 -0.03 -0.02 0.03zm-0.81 -3.25l0.02 -0.02 0.78 3.27 -0.02 0.02 -0.81 -3.25 0.02 -0.03zm-0.02 0.03l0.01 -0.01 0.01 -0.01 -0.02 0.03zm-0.05 0.06l0.05 -0.06 0.83 3.22 -0.05 0.06 -0 0 -0.83 -3.23zm0.83 3.22l0 0 -0 0 0 -0zm-0.86 -3.18l0.04 -0.04 0.82 3.23 -0.04 0.04 -0.85 -3.2 0.03 -0.03zm-0.03 0.03l0.01 -0.01 0.02 -0.02 -0.03 0.03zm-0.02 0.02l0.02 -0.02 0.88 3.16 -0.02 0.02 -0.01 0.01 -0.87 -3.17zm0.88 3.16l-0.01 0.01 0.01 -0.01 -0 0zm-0.92 -3.11l0.05 -0.07 0.86 3.18 -0.05 0.07 -0.87 -3.17 0.01 -0.01zm-0.01 0.01l0.01 -0.01 -0 0 -0.01 0.01zm-0.04 0.05l0.04 -0.05 0.88 3.16 -0.04 0.05 -0.88 -3.15 0 -0zm-0.01 0.02l0.01 -0.02 0.88 3.15 -0.01 0.02 -0.9 -3.14 0.01 -0.02zm-0.01 0.02l0.01 -0.02 -0.01 0.01 -0.01 0.01zm-0.05 0.07l0.05 -0.07 0.91 3.12 -0.05 0.07 -0.92 -3.11 0 -0.01zm-0 0.01l-0 0 0.01 -0.01 -0 0.01zm-0.04 0.05l0.04 -0.05 0.92 3.11 -0.04 0.05 -0.94 -3.08 0.02 -0.02zm-0.02 0.02l0 -0.01 0.01 -0.02 -0.02 0.02zm-0.01 0.02l0.01 -0.02 0.95 3.06 -0.01 0.02 0 0 -0.95 -3.06zm-0.05 0.07l0.05 -0.07 0.95 3.06 -0.05 0.07 -0.96 -3.05 0.01 -0.01zm-0.01 0.01l0.01 -0.01 -0.02 0.02 0.01 -0.02zm-0.04 0.06l0.04 -0.06 0.97 3.04 -0.04 0.06 -0.98 -3.02 0.02 -0.03zm-0.02 0.03l0.02 -0.02 0 -0 -0.02 0.03zm-0.01 0.01l0.01 -0.01 1 2.99 -0.01 0.01 -1.01 -2.98 0.01 -0.01zm-0.01 0.01l0 -0 0 -0 -0.01 0.01zm-0.05 0.07l0.05 -0.07 1.01 2.97 -0.05 0.07 -1.01 -2.97 0 -0zm-0 0l0 -0 -0.05 0.08 0.05 -0.08zm-0.04 0.07l0.04 -0.07 1.01 2.97 -0.04 0.07 -1.04 -2.92 0.03 -0.04zm-0.03 0.04l0.02 -0.03 0.01 -0.01 -0.03 0.04zm-0.01 0.01l0.01 -0.01 1.07 2.88 -0.01 0.01 -0.01 0.02 -1.05 -2.91zm1.07 2.88l-0.02 0.03 0 -0 0.01 -0.02zm-1.07 -2.88l0.02 -0.03 1.04 2.93 -0.02 0.03 -1.05 -2.91 0.01 -0.02zm-0.01 0.02l0.01 -0.02 0 -0.01 -0.01 0.02zm-0.07 0.12l0.07 -0.12 1.06 2.9 -0.07 0.12 -1.08 -2.86 0.02 -0.04zm-0.02 0.04l0.01 -0.02 0.01 -0.02 -0.02 0.04zm-0 0l0 -0 1.11 2.82 -0 0 -0 0 -1.1 -2.82zm1.11 2.82l-0 0 -0.03 0.06 0.04 -0.06zm-1.15 -2.74l0.04 -0.08 1.1 2.82 -0.04 0.08 -1.11 -2.81 0 -0.01zm-0 0.01l0 -0.01 -0.01 0.02 0.01 -0.01zm-0.04 0.08l0.04 -0.08 1.11 2.81 -0.04 0.08 -1.23 -2.54 0.12 -0.26zm-0.12 0.26l0.05 -0.14 0.07 -0.12 -0.12 0.26zm-19.98 54.18l19.98 -54.18 1.35 2.28 -19.98 54.18 -0.81 0.68 -0.54 -2.96zm0.54 2.96l-1.44 -0.5 0.9 -2.45 0.54 2.96zm0.29 0.1l-0.29 -0.1 0.28 -3.63 0.29 0.1 0 0 -0.28 3.63zm6.54 -5.82l1.35 2.26 -0.04 0.1 -0.1 0.24 -0.11 0.24 -0.12 0.25 -0.12 0.25 -0.13 0.25 -0.13 0.25 -0.14 0.24 -0.15 0.24 -0.16 0.23 -0.17 0.22 -0.18 0.21 -0.19 0.2 -0.2 0.19 -0.21 0.17 -0.22 0.16 -0.23 0.15 -0.24 0.13 -0.25 0.11 -0.26 0.1 -0.27 0.08 -0.28 0.07 -0.29 0.05 -0.31 0.03 -0.32 0.01 -0.33 -0.01 -0.35 -0.03 -0.36 -0.05 -0.38 -0.07 -0.4 -0.09 -0.41 -0.11 -0.43 -0.13 -0.45 -0.15 0.28 -3.63 0.42 0.14 0.4 0.12 0.38 0.1 0.36 0.08 0.34 0.06 0.32 0.04 0.31 0.02 0.29 0.01 0.27 -0.01 0.26 -0.02 0.24 -0.04 0.22 -0.05 0.21 -0.06 0.2 -0.07 0.18 -0.08 0.17 -0.09 0.16 -0.1 0.15 -0.11 0.14 -0.12 0.13 -0.12 0.12 -0.13 0.11 -0.13 0.11 -0.14 0.1 -0.15 0.1 -0.15 0.09 -0.16 0.09 -0.16 0.09 -0.17 0.09 -0.18 0.09 -0.19 0.09 -0.19 0.09 -0.2 -0.04 0.1zm1.35 2.26l-0.02 0.05 -0.02 0.05 0.04 -0.1zm17.34 -47.53l-17.34 47.53 -1.35 -2.26 17.34 -47.53 1.02 -0.56 0.34 2.82zm-0.34 -2.82l1.02 0.95 -0.68 1.87 -0.34 -2.82zm-1.29 -1.2l1.29 1.2 -0.68 3.38 -1.29 -1.2 -0.17 -3.17 0.85 -0.21zm-0.68 3.38l-1.37 -1.27 1.2 -1.9 0.17 3.17zm0.86 -0.22l-0.01 0.02 -1.02 -2.96 0.01 -0.02 1.05 2.9 -0.03 0.06zm0.03 -0.06l-0.01 0.02 -0.02 0.04 0.03 -0.06zm-0.54 -1.42l0 0 0 0 0 0 -0.54 -1.42 0.54 1.42zm0.54 1.42l-0.01 0.02 -0.02 0.04 0.03 -0.06zm0.01 -0.01l-0.01 0.01 -1.09 -2.85 0.01 -0.01 0.06 -0.09 1.03 2.94zm-1.09 -2.85l0.03 -0.05 0.03 -0.05 -0.06 0.09zm1.04 2.92l-0.01 0.01 -0.97 -3.03 0.01 -0.01 1.35 1.52 -0.37 1.52zm0.37 -1.52l0 0.97 -0.37 0.55 0.37 -1.52zm0 -0l0 0 -1.72 0 0 -0 0.34 -1.47 1.38 1.47zm-1.72 0l0 -0.91 0.34 -0.55 -0.34 1.47zm1.39 1.45l-0.01 0.01 -1.04 -2.93 0.01 -0.01 0.04 -0.07 1 3zm-1.04 -2.93l0.02 -0.03 0.02 -0.04 -0.04 0.07zm1.01 2.98l-0.01 0.01 -0.95 -3.06 0.01 -0.01 0.11 -0.13 0.84 3.2zm-0.95 -3.06l0.05 -0.08 0.06 -0.06 -0.11 0.13zm0.84 3.2l-0 0 -0.73 -3.33 0 -0 0.86 3.16 -0.14 0.17zm0.14 -0.17l-0.06 0.1 -0.07 0.07 0.14 -0.17zm0.01 -0.01l-0.01 0.01 -1 -2.99 0.01 -0.01 0.02 -0.03 0.98 3.02zm-1 -2.99l0.01 -0.01 0.01 -0.01 -0.02 0.03zm0.99 3.01l-0.01 0.01 -0.96 -3.05 0.01 -0.01 1.07 2.87 -0.11 0.18zm0.11 -0.18l-0.05 0.1 -0.06 0.08 0.11 -0.18zm0 -0l-0 0 -1.17 -2.69 0 -0 0.16 -0.25 1.02 2.94zm-1.17 -2.69l0.07 -0.14 0.09 -0.11 -0.16 0.25zm1.02 2.93l-0.01 0.01 -0.86 -3.19 0.01 -0.01 0.91 3.12 -0.05 0.07zm0.05 -0.07l-0.02 0.03 -0.03 0.03 0.05 -0.07zm0.01 -0.01l-0.01 0.01 -0.96 -3.05 0.01 -0.01 0.12 -0.14 0.84 3.19zm-0.96 -3.05l0.06 -0.08 0.06 -0.06 -0.12 0.14zm0.85 3.19l-0 0 -0.73 -3.33 0 -0 0.85 3.18 -0.12 0.15zm0.12 -0.15l-0.06 0.09 -0.06 0.06 0.12 -0.15zm0.01 -0.01l-0.01 0.01 -0.97 -3.03 0.01 -0.01 0.02 -0.03 0.95 3.06zm-0.97 -3.03l0.01 -0.01 0.01 -0.01 -0.02 0.03zm0.96 3.05l-0.01 0.01 -0.94 -3.09 0.01 -0.01 0.1 -0.12 0.83 3.21zm-0.94 -3.09l0.05 -0.07 0.05 -0.05 -0.1 0.12zm0.83 3.21l-0 0 -0.73 -3.33 0 -0 0.78 3.28 -0.05 0.06zm0.05 -0.06l-0.02 0.03 -0.03 0.03 0.05 -0.06zm0.01 -0.01l-0.01 0.01 -0.83 -3.22 0.01 -0.01 0.87 3.18 -0.03 0.04zm0.03 -0.04l-0.02 0.03 -0.01 0.02 0.03 -0.04zm0.01 -0.01l-0.01 0.01 -0.9 -3.13 0.01 -0.01 0.02 -0.02 0.88 3.16zm-0.9 -3.13l0.02 -0.02 0 -0 -0.02 0.02zm0.89 3.15l-0 0 -0.87 -3.18 0 -0 0.87 3.17 -0 0.01zm0 -0.01l-0 0.01 -0.03 0.03 0.03 -0.04zm0.01 -0.01l-0.01 0.01 -0.88 -3.17 0.01 -0.01 0 -0 0.87 3.17zm-0.88 -3.17l0 -0 0.07 -0.09 -0.07 0.09zm0.88 3.15l-0.01 0.01 -0.87 -3.17 0.01 -0.01 0.15 -0.15 0.72 3.32zm-0.87 -3.17l0.07 -0.09 0.08 -0.06 -0.15 0.15zm0.72 3.32l-0 0 -0.57 -3.47 0 -0 0.67 3.38 -0.1 0.09zm0.1 -0.09l-0.05 0.05 -0.05 0.04 0.1 -0.09zm0.01 -0.01l-0.01 0.01 -0.76 -3.29 0.01 -0.01 0.81 3.25 -0.04 0.05zm0.04 -0.05l-0.02 0.02 -0.02 0.03 0.04 -0.05zm0.01 -0.01l-0.01 0.01 -0.85 -3.2 0.01 -0.01 0.12 -0.12 0.72 3.32zm-0.85 -3.2l0.06 -0.07 0.06 -0.05 -0.12 0.12zm0.73 3.32l-0 0 -0.6 -3.45 0 -0 0.7 3.35 -0.1 0.1zm0.1 -0.1l-0.05 0.05 -0.05 0.04 0.1 -0.1zm0.01 -0.01l-0.01 0.01 -0.8 -3.25 0.01 -0.01 0.01 -0.01 0.79 3.26zm-0.8 -3.25l0 -0 0.01 -0.01 -0.01 0.01zm0.81 3.25l-0.01 0.01 -0.79 -3.27 0.01 -0.01 0.03 -0.03 0.76 3.3zm-0.79 -3.27l0.02 -0.02 0.01 -0.01 -0.03 0.03zm0.76 3.3l-0 0 -0.73 -3.33 0 -0 0.04 -0.04 0.69 3.37zm-0.73 -3.33l0.02 -0.02 0.02 -0.02 -0.04 0.04zm0.69 3.36l-0.01 0.01 -0.64 -3.41 0.01 -0.01 0.73 3.32 -0.09 0.09zm0.09 -0.09l-0.04 0.05 -0.04 0.04 0.09 -0.09zm0.01 -0.01l-0.01 0.01 -0.82 -3.24 0.01 -0.01 0.04 -0.05 0.77 3.28zm-0.82 -3.24l0.02 -0.03 0.02 -0.02 -0.04 0.05zm0.78 3.28l-0 0 -0.73 -3.33 0 -0 0.06 -0.06 0.66 3.39zm-0.73 -3.33l0.03 -0.03 0.03 -0.03 -0.06 0.06zm0.67 3.38l-0.01 0.01 -0.6 -3.45 0.01 -0.01 0.68 3.37 -0.08 0.07zm0.08 -0.07l-0.04 0.04 -0.04 0.03 0.08 -0.07zm0.01 -0.01l-0.01 0.01 -0.76 -3.3 0.01 -0.01 0.01 -0.01 0.74 3.32zm-0.76 -3.3l0.01 -0.01 0 -0 -0.01 0.01zm0.75 3.32l-0 0 -0.73 -3.33 0 -0 0.07 -0.06 0.66 3.39zm-0.73 -3.33l0.03 -0.03 0.03 -0.03 -0.07 0.06zm0.67 3.39l-0.01 0.01 -0.59 -3.45 0.01 -0.01 0.68 3.38 -0.08 0.08zm0.08 -0.08l-0.04 0.04 -0.04 0.03 0.08 -0.08zm0.01 -0.01l-0.01 0.01 -0.76 -3.3 0.01 -0.01 0.14 -0.12 0.62 3.42zm-0.76 -3.3l0.07 -0.07 0.07 -0.04 -0.14 0.12zm0.62 3.41l-0 0 -0.48 -3.53 0 -0 0.56 3.47 -0.08 0.06zm0.08 -0.06l-0.04 0.03 -0.04 0.02 0.08 -0.06zm0.01 -0.01l-0.01 0.01 -0.64 -3.41 0.01 -0.01 0 -0 0.64 3.42zm-0.64 -3.41l0 -0 0.04 -0.04 -0.04 0.04zm0.65 3.41l-0.01 0.01 -0.63 -3.42 0.01 -0.01 0.64 3.42 -0 0zm0 -0l-0 0 -0.04 0.04 0.04 -0.04zm0 -0l-0 0 -0.64 -3.41 0 -0 0.05 -0.04 0.59 3.45zm-0.64 -3.41l0.02 -0.02 0.02 -0.02 -0.05 0.04zm0.6 3.45l-0.01 0.01 -0.54 -3.49 0.01 -0.01 0.59 3.45 -0.05 0.04zm0.05 -0.04l-0.02 0.02 -0.03 0.02 0.05 -0.04zm0.01 -0.01l-0.01 0.01 -0.63 -3.42 0.01 -0.01 0.64 3.41 -0.01 0.01zm0.01 -0.01l-0.01 0 -0 0 0.01 -0.01zm0 -0l-0 0 -0.65 -3.41 0 -0 0.08 -0.06 0.57 3.46zm-0.65 -3.41l0.04 -0.03 0.04 -0.03 -0.08 0.06zm0.58 3.46l-0.01 0 -0.49 -3.52 0.01 -0 0.54 3.49 -0.05 0.04zm0.05 -0.04l-0.02 0.02 -0.03 0.02 0.05 -0.04zm0.01 -0.01l-0.01 0.01 -0.59 -3.45 0.01 -0.01 0.07 -0.04 0.53 3.5zm-0.59 -3.45l0.03 -0.02 0.03 -0.02 -0.07 0.04zm0.53 3.49l-0.01 0 -0.46 -3.54 0.01 -0 0.54 3.49 -0.08 0.06zm0.08 -0.06l-0.04 0.03 -0.04 0.02 0.08 -0.06zm0.01 -0.01l-0.01 0.01 -0.62 -3.43 0.01 -0.01 0.05 -0.04 0.57 3.47zm-0.62 -3.43l0.03 -0.02 0.02 -0.02 -0.05 0.04zm0.58 3.46l-0.01 0.01 -0.52 -3.5 0.01 -0.01 0.02 -0.01 0.51 3.52zm-0.52 -3.5l0.01 -0 0.01 -0.01 -0.02 0.01zm0.51 3.51l-0.01 0 -0.49 -3.53 0.01 -0 0.52 3.5 -0.03 0.02zm0.03 -0.02l-0.02 0.01 -0.01 0.01 0.03 -0.02zm0.01 -0l-0.01 0 -0.55 -3.48 0.01 -0 0.04 -0.03 0.52 3.51zm-0.55 -3.48l0.02 -0.01 0.02 -0.01 -0.04 0.03zm0.53 3.5l-0.01 0.01 -0.48 -3.53 0.01 -0.01 0.48 3.53 -0.01 0zm0.01 -0l-0.01 0 0.02 -0.01 -0.01 0.01zm0.01 -0l-0.01 0 -0.49 -3.53 0.01 -0 0.01 -0.01 0.48 3.53zm-0.49 -3.53l0 0 0.01 -0.01 -0.01 0.01zm0.48 3.53l-0.01 0 -0.46 -3.54 0.01 -0 0.02 -0.01 0.45 3.55zm-0.46 -3.54l0.02 -0.01 0 0 -0.02 0.01zm0.46 3.55l-0.01 0.01 -0.43 -3.56 0.01 -0.01 0 -0 0.42 3.57zm-0.43 -3.56l0 -0 -0.02 0.01 0.01 -0.01zm0.43 3.56l-0.01 0 -0.42 -3.57 0.01 -0 0.47 3.54 -0.05 0.03zm0.05 -0.03l-0.02 0.02 -0.02 0.01 0.05 -0.03zm0 -0l-0 0 -0.51 -3.51 0 -0 0.05 -0.03 0.46 3.54zm-0.51 -3.51l0.02 -0.02 0.03 -0.01 -0.05 0.03zm0.47 3.54l-0.01 0.01 -0.41 -3.57 0.01 -0.01 0.02 -0.01 0.39 3.58zm-0.41 -3.57l0.02 -0.01 0 0 -0.02 0.01zm0.39 3.58l-0.01 0 -0.36 -3.6 0.01 -0 0.42 3.56 -0.06 0.03zm0.06 -0.03l-0.03 0.02 -0.03 0.01 0.06 -0.03zm0 -0l-0 0 -0.48 -3.53 0 -0 0.05 -0.03 0.44 3.56zm-0.48 -3.53l0.02 -0.01 0.02 -0.01 -0.05 0.03zm0.45 3.55l-0.01 0.01 -0.39 -3.58 0.01 -0.01 0.02 -0.01 0.37 3.59zm-0.39 -3.58l0.01 -0.01 0.01 -0 -0.02 0.01zm0.38 3.59l-0.01 0 -0.36 -3.6 0.01 -0 0.02 -0.01 0.34 3.61zm-0.36 -3.6l0.01 -0 0.01 -0 -0.02 0.01zm0.34 3.61l-0.01 0 -0.32 -3.62 0.01 -0 0.36 3.59 -0.05 0.02zm0.05 -0.02l-0.02 0.01 -0.02 0.01 0.05 -0.02zm0.01 -0.01l-0.01 0.01 -0.41 -3.57 0.01 -0.01 0.07 -0.03 0.34 3.6zm-0.41 -3.57l0.04 -0.02 0.03 -0.01 -0.07 0.03zm0.34 3.6l-0.01 0 -0.26 -3.64 0.01 -0 0.29 3.63 -0.03 0.01zm0.03 -0.01l-0.01 0.01 -0.01 0 0.03 -0.01zm0.01 -0l-0.01 0 -0.32 -3.62 0.01 -0 0.33 3.61 -0.01 0zm0.01 -0l-0.01 0 0 0 0.01 -0zm0.01 -0l-0.01 0 -0.34 -3.61 0.01 -0 0.03 -0.01 0.31 3.62zm-0.34 -3.61l0.02 -0.01 0.01 -0 -0.03 0.01zm0.32 3.62l-0.01 0 -0.28 -3.63 0.01 -0 0.36 3.59 -0.08 0.04zm0.08 -0.04l-0.04 0.02 -0.04 0.01 0.08 -0.04zm0 -0l-0 0 -0.44 -3.55 0 -0 0.1 -0.04 0.35 3.6zm-0.44 -3.55l0.05 -0.03 0.05 -0.01 -0.1 0.04zm0.36 3.59l-0.01 0 -0.25 -3.64 0.01 -0 0.28 3.63 -0.03 0.01zm0.03 -0.01l-0.02 0.01 -0.01 0 0.03 -0.01zm0.01 -0l-0.01 0 -0.3 -3.62 0.01 -0 0 -0 0.3 3.62zm-0.3 -3.62l0 -0 0.02 -0.01 -0.02 0.01zm0.3 3.62l-0 0 -0.3 -3.62 0 -0 0.03 -0.01 0.26 3.64zm-0.3 -3.62l0.02 -0.01 0.02 -0.01 -0.03 0.01zm0.27 3.63l-0.01 0 -0.23 -3.65 0.01 -0 0.01 -0 0.21 3.65zm-0.23 -3.65l0 -0 0.01 -0 -0.01 0zm0.22 3.65l-0.01 0 -0.2 -3.65 0.01 -0 0.27 3.63 -0.07 0.02zm0.07 -0.02l-0.03 0.01 -0.03 0.01 0.07 -0.02zm0 -0l-0 0 -0.34 -3.61 0 -0 0.07 -0.02 0.27 3.63zm-0.34 -3.61l0.04 -0.02 0.03 -0.01 -0.07 0.02zm0.28 3.63l-0.02 0 -0.19 -3.66 0.02 -0 0.29 3.62 -0.1 0.04zm0.1 -0.04l-0.05 0.02 -0.05 0.01 0.1 -0.04zm0 -0l-0 0 -0.39 -3.58 0 -0 0.14 -0.04 0.25 3.63zm-0.39 -3.58l0.07 -0.03 0.07 -0.01 -0.14 0.04zm0.26 3.63l-0.01 0 -0.11 -3.67 0.01 -0 0.16 3.66 -0.04 0.01zm0.04 -0.01l-0.03 0.01 -0.02 0 0.04 -0.01zm0.01 -0l-0.01 0 -0.2 -3.65 0.01 -0 0.23 3.64 -0.03 0.01zm0.03 -0.01l-0.01 0 -0.02 0 0.03 -0.01zm0 -0l-0 0 -0.26 -3.64 0 -0 0.07 -0.02 0.19 3.65zm-0.26 -3.64l0.04 -0.01 0.04 -0.01 -0.07 0.02zm0.2 3.65l-0.01 0 -0.11 -3.67 0.01 -0 0.13 3.67 -0.01 0zm0.01 -0l-0.01 0 -0.01 0 0.02 -0zm0.01 -0l-0.01 0 -0.14 -3.67 0.01 -0 0.07 -0.01 0.07 3.67zm-0.14 -3.67l0.04 -0.01 0.03 0 -0.07 0.01zm0.07 3.67l-0 0 0 -3.68 0 0 0 0 0 3.68zm0 0l-0 0 0 -3.68 0 0 0.06 0 -0.06 3.68zm0 -3.68l0.03 0 0.03 0 -0.06 -0zm1.27 1.19l-1.35 2.28 0.13 0.29 -0 -0 -0 -0 -0 -0 -0 -0 -0 -0 -0 -0 -0.01 -0.01 -0.01 -0.01 0 0 -0 -0 -0.01 -0.01 -0 -0 -0.01 -0.01 -0.01 -0.01 0 0 -0.01 -0 -0.01 -0.01 0 0 -0 -0 -0 -0 -0.01 -0 -0.01 -0 0 -0 -0.01 -0 -0 -0 -0 -0 -0 -0 -0.01 -0 -0 -0 -0.01 -0 -0 -0 -0 -0 0.11 -3.67 0.04 0.01 0.04 0.01 0.04 0.01 0.04 0.01 0.04 0.01 0.04 0.01 0.03 0.01 0.03 0.02 0.03 0.02 0.04 0.02 0.03 0.02 0.03 0.02 0.03 0.02 0.04 0.03 0.04 0.03 0.03 0.02 0.03 0.03 0.04 0.04 0.03 0.03 0.03 0.03 0.03 0.04 0.03 0.03 0.03 0.04 0.04 0.05 0.03 0.04 0.03 0.04 0.03 0.04 0.03 0.05 0.03 0.05 0.03 0.05 0.03 0.05 0.03 0.05 0.13 0.29zm-0.13 -0.29l0.07 0.13 0.06 0.16 -0.13 -0.29zm1.51 9.97l-2.73 -7.41 1.35 -2.28 2.73 7.41 -0.13 2.56 -1.22 -0.28zm1.22 0.28l-0.68 1.19 -0.54 -1.47 1.22 0.28zm2.73 -4.8l-2.73 4.8 -1.09 -2.84 2.73 -4.8 1.21 0.26 -0.12 2.59zm0.12 -2.59l0.54 1.42 -0.66 1.17 0.12 -2.59zm-2.03 -5.3l2.03 5.3 -1.33 2.33 -2.03 -5.3 1.23 -2.55 0.1 0.22zm-0.1 -0.22l0.05 0.1 0.04 0.12 -0.1 -0.22z"/>
  </g>
  <path class="fil0" d="M20.33 5.15c2.38,-0.9 2.56,0.84 3.81,3.93l15.9 43.56c1.8,3.94 7.23,7.8 10.95,5.78l-20.4 -54.99c-2.48,-5.45 -9.8,-4.06 -10.26,1.71z"/>
  <g>
   <path class="fil0" d="M60.99 29.72c0.35,-2.16 -1.55,-5.74 -3.72,-6.63l-17.2 0.18c-0.01,2.82 2.36,4.85 4.73,4.85l14.45 -0.36c-0.46,0.53 0.05,1.53 -2.27,3.69l3.06 1.17 0.96 -2.9z"/>
   <path id="1" class="fil1" d="M57.29 23.91l-0.05 -1.65 0.3 0.06 0.25 0.11 0.24 0.13 0.24 0.14 0.23 0.16 0.22 0.17 0.22 0.18 0.21 0.19 0.21 0.2 0.2 0.21 0.19 0.22 0.18 0.23 0.18 0.24 0.17 0.24 0.16 0.25 0.16 0.26 0.15 0.26 0.14 0.26 0.13 0.27 0.12 0.27 0.11 0.27 0.1 0.27 0.1 0.28 0.08 0.28 0.07 0.28 0.06 0.28 0.05 0.28 0.04 0.27 0.03 0.27 0.01 0.27 -0 0.27 -0.02 0.27 -0.03 0.26 -1.55 -0.31 0.02 -0.15 0.01 -0.16 0 -0.17 -0.01 -0.18 -0.02 -0.19 -0.03 -0.2 -0.04 -0.21 -0.05 -0.21 -0.06 -0.22 -0.07 -0.22 -0.08 -0.22 -0.08 -0.22 -0.09 -0.22 -0.1 -0.22 -0.11 -0.22 -0.12 -0.22 -0.12 -0.22 -0.13 -0.21 -0.13 -0.21 -0.14 -0.2 -0.14 -0.19 -0.15 -0.19 -0.15 -0.18 -0.16 -0.17 -0.16 -0.16 -0.16 -0.15 -0.16 -0.13 -0.16 -0.12 -0.16 -0.11 -0.16 -0.1 -0.16 -0.08 -0.16 -0.07 0.3 0.06zm-0.05 -1.65l0.15 -0 0.14 0.06 -0.3 -0.06zm-17.2 0.18l17.2 -0.18 0.05 1.65 -17.2 0.18 -0.81 -0.85 0.76 -0.81zm-0.76 0.81l0 -0.8 0.76 -0.01 -0.76 0.81zm5.48 4.04l0.07 1.65 -0.02 0 -0.26 -0.01 -0.26 -0.02 -0.26 -0.03 -0.26 -0.05 -0.26 -0.06 -0.25 -0.07 -0.25 -0.08 -0.24 -0.1 -0.24 -0.11 -0.23 -0.12 -0.23 -0.13 -0.22 -0.14 -0.22 -0.15 -0.21 -0.16 -0.21 -0.17 -0.2 -0.18 -0.19 -0.19 -0.18 -0.2 -0.17 -0.21 -0.16 -0.22 -0.15 -0.23 -0.14 -0.24 -0.13 -0.25 -0.12 -0.26 -0.11 -0.27 -0.1 -0.27 -0.08 -0.28 -0.07 -0.29 -0.05 -0.29 -0.04 -0.3 -0.02 -0.3 -0.01 -0.31 1.57 0.04 0 0.22 0.02 0.21 0.03 0.21 0.04 0.2 0.05 0.2 0.06 0.19 0.07 0.19 0.07 0.18 0.08 0.18 0.09 0.17 0.1 0.17 0.11 0.16 0.12 0.16 0.12 0.15 0.13 0.14 0.14 0.14 0.14 0.13 0.15 0.12 0.15 0.12 0.16 0.11 0.16 0.1 0.17 0.09 0.17 0.09 0.17 0.08 0.18 0.07 0.18 0.06 0.18 0.05 0.18 0.04 0.18 0.03 0.18 0.02 0.18 0.01 0.18 0 -0.02 0zm0.07 1.65l-0.02 0 -0 0 0.02 -0zm14.45 -0.36l-14.45 0.36 -0.07 -1.65 14.45 -0.36 0.63 1.39 -0.55 0.26zm-0.07 -1.65l1.86 -0.05 -1.23 1.44 -0.63 -1.39zm-1.98 3.74l-0.51 1.55 -0.27 -1.4 0.2 -0.19 0.18 -0.18 0.17 -0.17 0.15 -0.16 0.14 -0.16 0.12 -0.15 0.11 -0.14 0.1 -0.14 0.09 -0.13 0.08 -0.12 0.07 -0.12 0.06 -0.11 0.05 -0.1 0.05 -0.1 0.04 -0.09 0.03 -0.09 0.03 -0.08 0.03 -0.08 0.02 -0.08 0.02 -0.08 0.02 -0.08 0.02 -0.08 0.02 -0.08 0.02 -0.09 0.02 -0.09 0.03 -0.09 0.03 -0.1 0.04 -0.1 0.05 -0.11 0.06 -0.11 0.07 -0.11 0.08 -0.11 1.18 1.13 0 -0 0 -0 -0 0.01 -0 0.01 -0.01 0.02 -0.01 0.04 -0.01 0.05 -0.02 0.06 -0.02 0.07 -0.02 0.08 -0.02 0.09 -0.03 0.1 -0.03 0.11 -0.04 0.12 -0.04 0.12 -0.05 0.13 -0.05 0.14 -0.06 0.14 -0.07 0.15 -0.08 0.15 -0.09 0.16 -0.09 0.16 -0.11 0.17 -0.12 0.17 -0.13 0.17 -0.14 0.18 -0.15 0.18 -0.16 0.19 -0.18 0.19 -0.19 0.2 -0.21 0.2 -0.22 0.21 -0.27 -1.4zm-0.51 1.55l-1.26 -0.48 0.99 -0.92 0.27 1.4zm3.06 1.17l-3.06 -1.17 0.51 -1.55 3.06 1.17 0.49 1.06 -1 0.49zm1 -0.49l-0.26 0.77 -0.74 -0.29 1 -0.49zm0.96 -2.9l-0.96 2.9 -1.49 -0.57 0.96 -2.9 1.52 0.44 -0.03 0.13zm0.03 -0.13l-0.01 0.07 -0.02 0.06 0.03 -0.13z"/>
  </g>
  <path class="fil0" d="M56.56 22.24c1.39,1.47 0.88,1.81 0.32,3.94l-9.21 27.5 -0.03 -0.09c-5.67,-15.85 -12.34,-32.54 -18.68,-50.21 -1.59,1.31 -4.03,6.26 -2.68,10.96l0.88 2.45 -0 0 14.73 39.45c0.06,0.22 0.11,0.25 0.18,0.44 2.6,6.86 9.81,6.23 11.85,-0.5l8.15 -26.84c1.6,-3.46 -2.39,-7.44 -5.52,-7.1z"/>
 </g>
</svg>
