<?xml version="1.0" encoding="UTF-8"?>
<!DOCTYPE svg PUBLIC "-//W3C//DTD SVG 1.1//EN" "http://www.w3.org/Graphics/SVG/1.1/DTD/svg11.dtd">
<!-- Creator: CorelDRAW 2018 (64-Bit Evaluation Version) -->
<svg xmlns="http://www.w3.org/2000/svg" xml:space="preserve" width="24.2638mm" height="23.9116mm" version="1.1" style="shape-rendering:geometricPrecision; text-rendering:geometricPrecision; image-rendering:optimizeQuality; fill-rule:evenodd; clip-rule:evenodd"
viewBox="0 0 237.36 233.92"
 xmlns:xlink="http://www.w3.org/1999/xlink">
 <defs>
  <style type="text/css">
   <![CDATA[
    .str0 {stroke:white;stroke-width:1.96;stroke-miterlimit:22.9256}
    .fil0 {fill:white}
    .fil1 {fill:white;fill-rule:nonzero}
   ]]>
  </style>
 </defs>
 <g id="Layer_x0020_1">
  <metadata id="CorelCorpID_0Corel-Layer"/>
  <g>
   <path class="fil0" d="M112.07 18.05c-4.62,-8.67 -16.37,-13.19 -24.91,-6.5l-0.41 0.31 -0.08 0.07 -0.15 0.12 -0.24 0.19 -0.1 0.08 -0.14 0.12 -0.23 0.2 -0.1 0.1 -0.12 0.12 -0.34 0.33 -0.11 0.1 -0.22 0.22 -0.13 0.13 -0.09 0.1 -0.35 0.38 -0.08 0.09 -0.21 0.24 -0.14 0.17 -0.07 0.08 -0.2 0.25 -0.15 0.19 -0.05 0.07 -0.2 0.26 -0.15 0.21 -0.04 0.06 -0.19 0.27 -0.16 0.23 -0.03 0.04 -0.18 0.28 -0.16 0.25 -0.02 0.03 -0.06 0.1 -0.28 0.47 -0.01 0.02 -0.17 0.3 -0.17 0.31 -75.66 205.13 1.09 0.38c18.04,6.3 23.03,-1.9 26.82,-10.88l65.65 -179.94 -4.89 -4.54 0.04 -0.06 0 0 0.03 -0.05 0.04 -0.05 0 -0 0.03 -0.05 0.04 -0.05 0 0 0.03 -0.05 0.04 -0.05 0 -0.01 0.03 -0.04 0.03 -0.05 0.01 -0 0.03 -0.04 0.04 -0.05 0.01 -0.01 0.03 -0.04 0.04 -0.05 0.01 -0.01 0.03 -0.04 0.04 -0.05 0.01 -0 0.03 -0.04 0.04 -0.04 0.01 -0.01 0.03 -0.03 0.04 -0.04 0.01 -0.01 0.03 -0.03 0.04 -0.04 0.01 -0.01 0.03 -0.02 0.04 -0.04 0.01 -0.01 0.03 -0.02 0.04 -0.04 0.02 -0.01 0.03 -0.02 0.04 -0.03 0.02 -0.01 0.03 -0.02 0.04 -0.03 0.01 -0.01 0.03 -0.02 0.04 -0.03 0.02 -0.01 0.02 -0.02 0.04 -0.03 0.02 -0.01 0.02 -0.01 0.04 -0.03 0.02 -0.01 0.02 -0.01 0.04 -0.02 0.02 -0.01 0.02 -0.01 0.04 -0.02 0.02 -0.01 0.02 -0.01 0.04 -0.02 0.02 -0.01 0.02 -0.01 0.04 -0.02 0.02 -0.01 0.02 -0.01 0.04 -0.02 0.03 -0.01 0.01 -0.01 0.04 -0.01 0.03 -0.01 0.02 -0 0.04 -0.01 0.03 -0.01 0.02 -0.01 0.07 -0.02 0.01 -0 0.04 -0.01 0.03 -0.01 0.01 -0 0.04 -0.01 0.03 -0.01 0.01 0 0.01 0c0.8,0.11 1.61,0.74 2.25,1.86l10.32 28.04 10.33 -18.16 -7.68 -20.07z"/>
   <path id="1" class="fil1" d="M88.24 18.12l-2.17 -13.13 -0.04 0.03 0.93 -0.69 0.95 -0.61 0.96 -0.53 0.97 -0.46 0.97 -0.39 0.98 -0.32 0.98 -0.25 0.99 -0.19 0.99 -0.13 0.99 -0.07 0.98 -0.01 0.98 0.05 0.97 0.1 0.97 0.15 0.96 0.21 0.95 0.26 0.94 0.31 0.92 0.36 0.91 0.4 0.89 0.45 0.88 0.5 0.86 0.54 0.84 0.59 0.82 0.64 0.79 0.68 0.77 0.73 0.75 0.78 0.72 0.83 0.69 0.88 0.66 0.93 0.64 1 0.6 1.06 -4.29 10.48 -0.31 -0.54 -0.35 -0.55 -0.4 -0.56 -0.44 -0.56 -0.48 -0.55 -0.52 -0.54 -0.56 -0.53 -0.59 -0.51 -0.62 -0.48 -0.65 -0.46 -0.68 -0.43 -0.7 -0.4 -0.72 -0.36 -0.74 -0.33 -0.76 -0.29 -0.77 -0.25 -0.78 -0.21 -0.79 -0.17 -0.8 -0.13 -0.8 -0.08 -0.81 -0.04 -0.81 0.01 -0.8 0.05 -0.8 0.1 -0.79 0.15 -0.78 0.2 -0.77 0.25 -0.76 0.3 -0.74 0.35 -0.73 0.4 -0.71 0.45 -0.69 0.5 -0.04 0.03zm0.04 -0.03l-0.03 0.02 -0.01 0.01 0.04 -0.03zm-2.61 -12.8l0.41 -0.31 2.17 13.13 -0.41 0.31 -2.2 -13.11 0.03 -0.02zm-0.03 0.02l0.01 -0.01 0.02 -0.01 -0.03 0.02zm-0.08 0.07l0.08 -0.07 2.23 13.09 -0.08 0.07 -2.27 -13.06 0.04 -0.03zm-0.04 0.03l0.03 -0.03 0.01 -0.01 -0.04 0.03zm-0.15 0.12l0.15 -0.12 2.31 13.02 -0.15 0.12 -2.32 -13.02 0.01 -0.01zm-0.01 0.01l0.01 -0.01 -0.05 0.04 0.05 -0.04zm-0.24 0.19l0.24 -0.19 2.32 13.01 -0.24 0.19 -2.36 -12.98 0.04 -0.03zm-0.04 0.03l0.02 -0.02 0.02 -0.01 -0.04 0.03zm-0.1 0.08l0.1 -0.08 2.39 12.95 -0.1 0.08 -2.42 -12.93 0.02 -0.02zm-0.02 0.02l0.02 -0.02 0.05 -0.04 -0.07 0.06zm-0.14 0.12l0.14 -0.12 2.44 12.91 -0.14 0.12 -2.45 -12.91 0.01 -0.01zm-0.01 0.01l0.01 -0.01 -0.09 0.08 0.08 -0.07zm-0.23 0.2l0.23 -0.2 2.46 12.9 -0.23 0.2 -2.53 -12.83 0.07 -0.07zm-0.07 0.07l0.04 -0.04 0.03 -0.03 -0.07 0.07zm-0.1 0.1l0.1 -0.1 2.6 12.77 -0.1 0.1 -2.61 -12.76 0 -0zm-0 0l0 -0 0.07 -0.07 -0.08 0.07zm-0.12 0.12l0.12 -0.12 2.61 12.76 -0.12 0.12 -2.64 -12.73 0.03 -0.03zm-0.03 0.03l-0.01 0.01 0.04 -0.03 -0.03 0.03zm-0.34 0.33l0.34 -0.33 2.66 12.71 -0.34 0.33 -0.01 0.01 -2.66 -12.72zm2.66 12.71l-0.01 0.01 -0.05 0.04 0.05 -0.05zm-2.76 -12.61l0.11 -0.1 2.65 12.72 -0.11 0.1 -2.72 -12.65 0.07 -0.07zm-0.07 0.07l0.05 -0.05 0.01 -0.01 -0.07 0.07zm-0.22 0.22l0.22 -0.22 2.78 12.59 -0.22 0.22 -2.82 -12.55 0.04 -0.04zm-0.04 0.04l0.04 -0.04 -0.02 0.02 -0.01 0.01zm-0.13 0.13l0.13 -0.13 2.86 12.51 -0.13 0.13 -0 0.01 -2.85 -12.52zm2.86 12.51l-0 0.01 -0.16 0.16 0.16 -0.17zm-2.95 -12.42l0.09 -0.1 2.85 12.52 -0.09 0.1 -2.92 -12.45 0.07 -0.07zm-0.07 0.07l0.05 -0.05 0.02 -0.02 -0.07 0.07zm-0.35 0.38l0.35 -0.38 2.98 12.38 -0.35 0.38 -0.02 0.02 -2.96 -12.4zm2.98 12.38l-0.02 0.02 -0.03 0.04 0.06 -0.06zm-3.04 -12.31l0.08 -0.09 2.94 12.43 -0.08 0.09 -3.04 -12.31 0.1 -0.11zm-0.1 0.11l0.05 -0.06 0.05 -0.05 -0.1 0.11zm-0.21 0.24l0.21 -0.24 3.14 12.2 -0.21 0.24 -0.01 0.01 -3.14 -12.2zm3.14 12.2l-0.01 0.01 0.04 -0.05 -0.03 0.04zm-3.28 -12.04l0.14 -0.17 3.13 12.21 -0.14 0.17 -3.21 -12.12 0.08 -0.1zm-0.08 0.1l0.03 -0.04 0.05 -0.05 -0.08 0.1zm-0.07 0.08l0.07 -0.08 3.29 12.02 -0.07 0.08 -0 0 -3.28 -12.02zm3.29 12.02l0 0 -0 0 0 -0zm-3.49 -11.77l0.2 -0.25 3.28 12.03 -0.2 0.25 -3.3 -12.01 0.02 -0.02zm-0.02 0.02l0.02 -0.02 -0.03 0.04 0.01 -0.02zm-0.15 0.19l0.15 -0.19 3.31 11.99 -0.15 0.19 -3.36 -11.93 0.05 -0.06zm-0.05 0.06l0.03 -0.04 0.02 -0.02 -0.05 0.06zm-0.05 0.07l0.05 -0.07 3.41 11.87 -0.05 0.07 -3.42 -11.85 0.02 -0.02zm-0.02 0.02l0.02 -0.02 0.02 -0.02 -0.03 0.05zm-0.2 0.26l0.2 -0.26 3.44 11.82 -0.2 0.26 -3.47 -11.78 0.03 -0.04zm-0.03 0.04l0.03 -0.04 -0.04 0.05 0.01 -0.01zm-0.15 0.21l0.15 -0.21 3.5 11.74 -0.15 0.21 -3.56 -11.66 0.06 -0.08zm-0.06 0.08l0.05 -0.07 0.01 -0.01 -0.06 0.08zm-0.04 0.06l0.04 -0.06 3.61 11.58 -0.04 0.06 0 0 -3.61 -11.58zm-0.19 0.27l0.19 -0.27 3.61 11.58 -0.19 0.27 -3.64 -11.54 0.03 -0.05zm-0.03 0.05l0.03 -0.05 -0.04 0.05 0 -0.01zm-0.16 0.23l0.16 -0.23 3.68 11.49 -0.16 0.23 -3.71 -11.45 0.03 -0.04zm-0.03 0.04l0.03 -0.04 -0.03 0.04 -0 0zm-0.03 0.04l0.03 -0.04 3.73 11.41 -0.03 0.04 -3.78 -11.34 0.04 -0.06zm-0.04 0.06l0.04 -0.06 0 -0 -0.04 0.06zm-0.18 0.28l0.18 -0.28 3.82 11.28 -0.18 0.28 -3.82 -11.27 0 -0.01zm-0 0.01l0 -0.01 0.03 -0.05 -0.04 0.06zm-0.16 0.25l0.16 -0.25 3.83 11.26 -0.16 0.25 -4.04 -10.91 0.21 -0.35zm-0.21 0.35l0.1 -0.19 0.11 -0.17 -0.21 0.35zm-0.02 0.03l0.02 -0.03 4.24 10.56 -0.02 0.03 -0.13 0.24 -4.11 -10.79zm4.24 10.56l-0.07 0.12 -0.07 0.11 0.13 -0.24zm-4.17 -10.69l0.06 -0.1 3.97 11.03 -0.06 0.1 -3.99 -11 0.02 -0.03zm-0.02 0.03l0.02 -0.03 -0.06 0.11 0.05 -0.08zm-0.28 0.47l0.28 -0.47 4.01 10.98 -0.28 0.47 -4.23 -10.58 0.22 -0.4zm-0.22 0.4l0.1 -0.21 0.11 -0.19 -0.22 0.4zm-0.01 0.02l0.01 -0.02 4.44 10.18 -0.01 0.02 -0.14 0.27 -4.3 -10.45zm4.44 10.18l-0.07 0.14 -0.07 0.13 0.14 -0.27zm-4.47 -10.15l0.17 -0.3 4.15 10.72 -0.17 0.3 -4.18 -10.67 0.03 -0.06zm-0.03 0.06l0.03 -0.06 0.01 -0.02 -0.04 0.08zm-0.17 0.31l0.17 -0.31 4.21 10.61 -0.17 0.31 -4.66 -9.62 0.45 -0.99zm-0.45 0.99l0.2 -0.54 0.24 -0.45 -0.45 0.99zm-75.66 205.13l75.66 -205.13 5.11 8.63 -75.66 205.13 -3.08 2.56 -2.03 -11.19zm2.03 11.19l-5.45 -1.9 3.42 -9.29 2.03 11.19zm1.09 0.38l-1.09 -0.38 1.05 -13.75 1.09 0.38 0 0 -1.05 13.75zm24.78 -22.04l5.13 8.57 -0.15 0.38 -0.39 0.92 -0.41 0.93 -0.43 0.93 -0.45 0.94 -0.48 0.94 -0.51 0.93 -0.54 0.91 -0.57 0.9 -0.6 0.87 -0.64 0.84 -0.67 0.8 -0.71 0.76 -0.74 0.71 -0.78 0.66 -0.81 0.61 -0.85 0.55 -0.89 0.49 -0.93 0.43 -0.97 0.37 -1.02 0.31 -1.06 0.25 -1.11 0.18 -1.16 0.11 -1.21 0.04 -1.26 -0.03 -1.32 -0.1 -1.38 -0.17 -1.44 -0.25 -1.5 -0.32 -1.57 -0.4 -1.63 -0.48 -1.71 -0.57 1.05 -13.75 1.6 0.53 1.52 0.45 1.45 0.37 1.37 0.3 1.3 0.22 1.23 0.15 1.16 0.09 1.1 0.02 1.03 -0.04 0.97 -0.09 0.91 -0.15 0.85 -0.19 0.79 -0.24 0.74 -0.28 0.69 -0.32 0.64 -0.36 0.6 -0.39 0.56 -0.41 0.52 -0.44 0.48 -0.46 0.45 -0.49 0.42 -0.51 0.4 -0.53 0.38 -0.55 0.37 -0.58 0.36 -0.61 0.34 -0.63 0.33 -0.65 0.33 -0.68 0.33 -0.71 0.32 -0.73 0.33 -0.76 -0.15 0.38zm5.13 8.57l-0.07 0.2 -0.08 0.18 0.15 -0.38zm65.65 -179.94l-65.65 179.94 -5.13 -8.57 65.65 -179.94 3.86 -2.1 1.27 10.68zm-1.27 -10.68l3.86 3.58 -2.59 7.09 -1.27 -10.68zm-4.89 -4.54l4.89 4.54 -2.59 12.78 -4.89 -4.54 -0.67 -11.94 3.26 -0.84zm-2.59 12.78l-5.11 -4.74 4.44 -7.2 0.67 11.94zm3.29 -0.9l-0.04 0.06 -3.93 -11.1 0.04 -0.06 3.95 11.07 -0.02 0.03zm0.02 -0.03l-0.02 0.03 0.04 -0.06 -0.02 0.03zm-1.98 -5.52l0 0 0 0 0 0 -1.98 -5.52 1.98 5.52zm1.98 5.52l-0.02 0.03 0.04 -0.06 -0.02 0.03zm0.03 -0.05l-0.03 0.05 -3.97 -11.04 0.03 -0.05 0.07 -0.11 3.9 11.15zm-3.97 -11.04l0.04 -0.06 0.03 -0.05 -0.07 0.11zm3.93 11.1l-0.04 0.05 -3.82 -11.27 0.04 -0.05 5.17 5.63 -1.34 5.63zm1.34 -5.63l0 3.55 -1.34 2.09 1.34 -5.63zm0 -0l0 0 -6.51 0 0 -0 1.41 -5.74 5.1 5.74zm-6.51 0l0 -3.66 1.41 -2.08 -1.41 5.74zm5.13 5.69l-0.03 0.05 -3.68 -11.48 0.03 -0.05 3.75 11.37 -0.07 0.11zm0.07 -0.11l-0.04 0.06 -0.03 0.05 0.07 -0.11zm0.04 -0.05l-0.04 0.05 -3.82 -11.27 0.04 -0.05 1.91 -1.33 1.91 12.6zm-3.82 -11.27l0.85 -1.33 1.06 0 -1.91 1.33zm1.92 12.6l-0 0 0 -13.93 0 0 1.95 12.53 -1.95 1.39zm1.95 -1.39l-0.87 1.39 -1.08 0 1.95 -1.39zm0.03 -0.05l-0.03 0.05 -3.91 -11.14 0.03 -0.05 0.14 -0.22 3.76 11.36zm-3.91 -11.14l0.07 -0.12 0.07 -0.1 -0.14 0.22zm3.8 11.31l-0.04 0.05 -3.62 -11.57 0.04 -0.05 4.59 9.42 -0.97 2.15zm0.97 -2.15l-0.37 1.3 -0.59 0.85 0.97 -2.15zm0 -0.01l-0 0.01 -5.55 -7.27 0 -0.01 1.16 -2.41 4.4 9.67zm-5.55 -7.27l0.43 -1.52 0.72 -0.89 -1.16 2.41zm4.43 9.63l-0.03 0.04 -3.24 -12.08 0.03 -0.04 3.47 11.76 -0.23 0.32zm0.23 -0.32l-0.12 0.18 -0.12 0.14 0.23 -0.32zm0.03 -0.05l-0.03 0.05 -3.71 -11.44 0.03 -0.05 0.82 -0.89 2.88 12.33zm-3.71 -11.44l0.38 -0.57 0.44 -0.31 -0.82 0.89zm2.89 12.32l-0.01 0 -2.06 -13.21 0.01 -0 2.9 12.31 -0.84 0.9zm0.84 -0.9l-0.39 0.58 -0.45 0.32 0.84 -0.9zm0.03 -0.04l-0.03 0.04 -3.73 -11.41 0.03 -0.04 0.13 -0.19 3.6 11.59zm-3.73 -11.41l0.07 -0.1 0.06 -0.08 -0.13 0.19zm3.64 11.54l-0.04 0.05 -3.47 -11.78 0.04 -0.05 0.21 -0.25 3.27 12.03zm-3.47 -11.78l0.09 -0.13 0.11 -0.13 -0.21 0.25zm3.28 12.02l-0.01 0.01 -3.06 -12.29 0.01 -0.01 0.02 -0.03 3.04 12.31zm-3.06 -12.29l0.02 -0.03 -0.01 0.01 -0.01 0.01zm3.07 12.28l-0.03 0.04 -3.02 -12.34 0.03 -0.04 3.25 12.06 -0.23 0.28zm0.23 -0.28l-0.11 0.14 -0.12 0.14 0.23 -0.28zm0.04 -0.05l-0.04 0.05 -3.47 -11.78 0.04 -0.05 0.24 -0.29 3.24 12.07zm-3.47 -11.78l0.11 -0.15 0.13 -0.14 -0.24 0.29zm3.24 12.06l-0.01 0.01 -3 -12.36 0.01 -0.01 3.16 12.17 -0.16 0.19zm0.16 -0.19l-0.07 0.09 -0.09 0.1 0.16 -0.19zm0.03 -0.04l-0.03 0.04 -3.31 -11.99 0.03 -0.04 3.38 11.91 -0.06 0.08zm0.06 -0.08l-0.04 0.06 -0.02 0.02 0.06 -0.08zm0.04 -0.05l-0.04 0.05 -3.44 -11.82 0.04 -0.05 0.9 -0.83 2.54 12.65zm-3.44 -11.82l0.42 -0.56 0.48 -0.27 -0.9 0.83zm2.55 12.65l-0.01 0 -1.64 -13.48 0.01 -0 2.33 12.91 -0.7 0.58zm0.7 -0.58l-0.33 0.37 -0.36 0.2 0.7 -0.58zm0.03 -0.04l-0.03 0.04 -3.03 -12.33 0.03 -0.04 3.06 12.3 -0.03 0.03zm0.03 -0.03l-0 0 -0.03 0.03 0.03 -0.03zm0.04 -0.04l-0.04 0.04 -3.09 -12.26 0.04 -0.04 0.4 -0.39 2.68 12.65zm-3.09 -12.26l0.2 -0.23 0.21 -0.17 -0.4 0.39zm2.69 12.65l-0.01 0.01 -2.28 -13.05 0.01 -0.01 2.66 12.68 -0.38 0.37zm0.38 -0.37l-0.19 0.21 -0.2 0.16 0.38 -0.37zm0.03 -0.03l-0.03 0.03 -3.04 -12.31 0.03 -0.03 0.06 -0.07 2.98 12.38zm-3.04 -12.31l0.04 -0.04 0.02 -0.03 -0.06 0.07zm3.02 12.34l-0.04 0.04 -2.92 -12.45 0.04 -0.04 2.96 12.4 -0.04 0.04zm0.04 -0.04l-0.04 0.04 -0.02 0.02 0.06 -0.06zm0.01 -0.01l-0.01 0.01 -3 -12.36 0.01 -0.01 0.24 -0.24 2.76 12.6zm-3 -12.36l0.12 -0.13 0.12 -0.1 -0.24 0.24zm2.79 12.57l-0.03 0.03 -2.52 -12.84 0.03 -0.03 2.78 12.58 -0.26 0.26zm0.26 -0.26l-0.13 0.14 -0.13 0.12 0.26 -0.26zm0.04 -0.04l-0.04 0.04 -3.03 -12.32 0.04 -0.04 0.02 -0.02 3.02 12.34zm-3.03 -12.32l0.02 -0.02 -0.08 0.09 0.06 -0.07zm3.02 12.33l-0.01 0.01 -3 -12.36 0.01 -0.01 0.35 -0.34 2.65 12.7zm-3 -12.36l0.18 -0.19 0.18 -0.14 -0.35 0.34zm2.68 12.67l-0.03 0.02 -2.29 -13.03 0.03 -0.02 2.58 12.77 -0.29 0.27zm0.29 -0.27l-0.14 0.15 -0.14 0.12 0.29 -0.27zm0.04 -0.04l-0.04 0.04 -2.87 -12.5 0.04 -0.04 0.06 -0.06 2.81 12.56zm-2.87 -12.5l0.04 -0.04 0.02 -0.02 -0.06 0.06zm2.82 12.55l-0.01 0.01 -2.75 -12.62 0.01 -0.01 0.21 -0.19 2.54 12.81zm-2.75 -12.62l0.1 -0.1 0.11 -0.09 -0.21 0.19zm2.57 12.79l-0.03 0.02 -2.33 -13 0.03 -0.02 2.54 12.81 -0.21 0.19zm0.21 -0.19l-0.1 0.1 -0.11 0.09 0.21 -0.19zm0.04 -0.04l-0.04 0.04 -2.75 -12.62 0.04 -0.04 0.47 -0.38 2.29 13zm-2.75 -12.62l0.23 -0.23 0.24 -0.15 -0.47 0.38zm2.3 12.99l-0.02 0.01 -1.82 -13.37 0.02 -0.01 2.16 13.12 -0.34 0.25zm0.34 -0.25l-0.16 0.14 -0.17 0.11 0.34 -0.25zm0.03 -0.02l-0.03 0.02 -2.5 -12.86 0.03 -0.02 2.51 12.85 -0.01 0.01zm0.01 -0.01l-0.01 0.01 -0.12 0.1 0.13 -0.11zm0.04 -0.03l-0.04 0.03 -2.52 -12.84 0.04 -0.03 0.26 -0.21 2.25 13.05zm-2.52 -12.84l0.13 -0.12 0.13 -0.09 -0.26 0.21zm2.27 13.04l-0.02 0.01 -1.99 -13.26 0.02 -0.01 2.07 13.2 -0.08 0.06zm0.08 -0.06l-0.03 0.02 -0.05 0.04 0.08 -0.06zm0.03 -0.02l-0.03 0.02 -2.15 -13.15 0.03 -0.02 2.3 13.02 -0.15 0.12zm0.15 -0.12l-0.08 0.07 -0.07 0.05 0.15 -0.12zm0.04 -0.03l-0.04 0.03 -2.46 -12.9 0.04 -0.03 0.01 -0.01 2.45 12.91zm-2.46 -12.9l-0.01 0.01 0.02 -0.02 -0.01 0.01zm2.46 12.89l-0.01 0.01 -2.44 -12.91 0.01 -0.01 0.28 -0.21 2.16 13.13zm-2.44 -12.91l0.14 -0.12 0.14 -0.09 -0.28 0.21zm2.18 13.11l-0.03 0.02 -1.87 -13.34 0.03 -0.02 2.07 13.2 -0.2 0.14zm0.2 -0.14l-0.09 0.08 -0.1 0.07 0.2 -0.14zm0.04 -0.03l-0.04 0.03 -2.27 -13.06 0.04 -0.03 0.28 -0.19 1.98 13.25zm-2.27 -13.06l0.14 -0.11 0.15 -0.09 -0.28 0.19zm2 13.24l-0.02 0.01 -1.7 -13.45 0.02 -0.01 1.99 13.25 -0.29 0.2zm0.29 -0.2l-0.14 0.11 -0.15 0.09 0.29 -0.2zm0.02 -0.02l-0.02 0.02 -2.28 -13.05 0.02 -0.02 0.14 -0.1 2.14 13.15zm-2.28 -13.05l0.07 -0.06 0.06 -0.04 -0.14 0.1zm2.18 13.12l-0.04 0.03 -2 -13.25 0.04 -0.03 0.07 -0.05 1.93 13.3zm-2 -13.25l0.03 -0.02 0.05 -0.03 -0.07 0.05zm1.95 13.29l-0.02 0.01 -1.85 -13.35 0.02 -0.01 1.96 13.28 -0.1 0.07zm0.1 -0.07l-0.05 0.04 -0.05 0.03 0.1 -0.07zm0.02 -0.01l-0.02 0.01 -2.06 -13.21 0.02 -0.01 0.13 -0.08 1.93 13.3zm-2.06 -13.21l0.06 -0.04 0.06 -0.04 -0.13 0.08zm1.98 13.27l-0.04 0.03 -1.81 -13.38 0.04 -0.03 1.83 13.37 -0.02 0.01zm0.02 -0.01l-0.01 0 -0.02 0.01 0.02 -0.01zm0.02 -0.01l-0.02 0.01 -1.85 -13.35 0.02 -0.01 0.02 -0.01 1.83 13.37zm-1.85 -13.35l0.01 -0 0.02 -0.01 -0.02 0.01zm1.85 13.35l-0.02 0.01 -1.81 -13.38 0.02 -0.01 0.09 -0.05 1.71 13.44zm-1.81 -13.38l0.04 -0.03 0.05 -0.03 -0.09 0.05zm1.75 13.41l-0.04 0.02 -1.62 -13.49 0.04 -0.02 0.01 -0.01 1.61 13.5zm-1.62 -13.49l0.01 -0.01 0.05 -0.03 -0.06 0.03zm1.63 13.48l-0.02 0.01 -1.6 -13.5 0.02 -0.01 1.77 13.4 -0.17 0.1zm0.17 -0.1l-0.09 0.06 -0.08 0.04 0.17 -0.1zm0.02 -0.01l-0.02 0.01 -1.93 -13.3 0.02 -0.01 0.23 -0.13 1.71 13.43zm-1.93 -13.3l0.11 -0.07 0.12 -0.06 -0.23 0.13zm1.75 13.41l-0.04 0.02 -1.48 -13.56 0.04 -0.02 1.54 13.53 -0.06 0.03zm0.06 -0.03l-0.01 0.01 -0.05 0.02 0.06 -0.03zm0.02 -0.01l-0.02 0.01 -1.6 -13.5 0.02 -0.01 1.62 13.49 -0.02 0.01zm0.02 -0.01l-0.01 0.01 -0.01 0 0.02 -0.01zm0.02 -0.01l-0.02 0.01 -1.64 -13.48 0.02 -0.01 0.08 -0.04 1.56 13.52zm-1.64 -13.48l0.03 -0.01 0.05 -0.03 -0.08 0.04zm1.6 13.5l-0.04 0.02 -1.48 -13.56 0.04 -0.02 0.06 -0.03 1.42 13.59zm-1.48 -13.56l0.02 -0.01 0.04 -0.02 -0.06 0.03zm1.44 13.58l-0.02 0.01 -1.36 -13.62 0.02 -0.01 0.13 -0.05 1.23 13.67zm-1.36 -13.62l0.07 -0.03 0.06 -0.02 -0.13 0.05zm1.25 13.67l-0.02 0.01 -1.1 -13.73 0.02 -0.01 1.33 13.63 -0.22 0.1zm0.22 -0.1l-0.11 0.06 -0.11 0.04 0.22 -0.1zm0.04 -0.02l-0.04 0.02 -1.55 -13.53 0.04 -0.02 0.21 -0.09 1.34 13.62zm-1.55 -13.53l0.1 -0.05 0.11 -0.04 -0.21 0.09zm1.36 13.62l-0.02 0.01 -1.12 -13.72 0.02 -0.01 1.19 13.69 -0.07 0.03zm0.07 -0.03l-0.03 0.01 -0.03 0.01 0.07 -0.03zm0.02 -0.01l-0.02 0.01 -1.26 -13.67 0.02 -0.01 0.04 -0.02 1.22 13.68zm-1.26 -13.67l0.04 -0.02 0 0 -0.04 0.02zm1.26 13.67l-0.04 0.02 -1.18 -13.7 0.04 -0.02 0.06 -0.02 1.13 13.72zm-1.18 -13.7l0.02 -0.01 0.04 -0.01 -0.06 0.02zm1.15 13.71l-0.03 0.01 -1.07 -13.74 0.03 -0.01 1.47 13.54 -0.4 0.2zm0.4 -0.2l-0.2 0.13 -0.2 0.07 0.4 -0.2zm0.01 -0.01l-0.01 0.01 -1.87 -13.34 0.01 -0.01 0.45 -0.22 1.43 13.55zm-1.87 -13.34l0.22 -0.14 0.23 -0.07 -0.45 0.22zm1.47 13.54l-0.04 0.01 -0.98 -13.77 0.04 -0.01 0.99 13.77 -0.01 0zm0.01 -0l-0.01 0 0 0 0.01 -0zm0.03 -0.01l-0.03 0.01 -1 -13.76 0.03 -0.01 0.03 -0.01 0.97 13.77zm-1 -13.76l0 0 0.03 -0.01 -0.03 0.01zm0.99 13.77l-0.02 0 -0.94 -13.78 0.02 -0 0 -0 0.94 13.78zm-0.94 -13.78l0 -0 0.25 -0.08 -0.25 0.08zm0.98 13.77l-0.04 0.01 -0.93 -13.79 0.04 -0.01 0.08 -0.02 0.85 13.81zm-0.93 -13.79l0.04 -0.01 0.04 -0.01 -0.08 0.02zm0.89 13.8l-0.03 0.01 -0.78 -13.83 0.03 -0.01 0.95 13.77 -0.17 0.05zm0.17 -0.05l-0.09 0.03 -0.08 0.02 0.17 -0.05zm0.02 -0.01l-0.02 0.01 -1.12 -13.72 0.02 -0.01 0.18 -0.06 0.94 13.78zm-1.12 -13.72l0.09 -0.04 0.09 -0.02 -0.18 0.06zm1.01 13.76l-0.07 0.02 -0.76 -13.83 0.07 -0.02 0.95 13.77 -0.2 0.06zm0.2 -0.06l-0.1 0.04 -0.1 0.02 0.2 -0.06zm0.01 -0l-0.01 0 -1.15 -13.71 0.01 -0 0.29 -0.08 0.86 13.79zm-1.15 -13.71l0.14 -0.06 0.15 -0.03 -0.29 0.08zm0.9 13.78l-0.04 0.01 -0.56 -13.88 0.04 -0.01 0.68 13.85 -0.12 0.03zm0.12 -0.03l-0.06 0.02 -0.06 0.01 0.12 -0.03zm0.03 -0.01l-0.03 0.01 -0.8 -13.82 0.03 -0.01 0.02 -0.01 0.78 13.83zm-0.8 -13.82l0.02 -0.01 0.02 -0 -0.04 0.01zm0.79 13.82l-0.01 0 -0.76 -13.83 0.01 -0 0.13 -0.03 0.62 13.86zm-0.76 -13.83l0.07 -0.02 0.06 -0.01 -0.13 0.03zm0.67 13.86l-0.04 0.01 -0.49 -13.89 0.04 -0.01 0.51 13.89 -0.02 0zm0.02 -0l-0.02 0 -0.02 0 0.04 -0.01zm0.03 -0.01l-0.03 0.01 -0.53 -13.88 0.03 -0.01 0.27 -0.02 0.27 13.9zm-0.53 -13.88l0.13 -0.02 0.13 0 -0.27 0.02zm0.28 13.9l-0.01 0 0 -13.93 0.01 0 0 0 0 13.93zm0.01 0l-0.01 0 0 -13.93 0.01 0 0.21 0.01 -0.21 13.91zm0 -13.93l0.1 0 0.11 0.01 -0.21 -0.01zm4.81 4.51l-5.11 8.62 0.5 1.08 -0.01 -0.02 -0 -0.01 -0 -0.01 -0.01 -0.02 0 0 -0.01 -0.02 -0.01 -0.02 -0.01 -0.01 -0.01 -0.02 -0.01 -0.02 -0 -0.01 -0.01 -0.01 -0.01 -0.01 -0.01 -0.01 -0.01 -0.01 -0.02 -0.02 -0.01 -0.01 -0.01 -0.01 -0.01 -0.01 -0.02 -0.01 -0.02 -0.01 -0.01 -0.01 -0.01 -0.01 -0 -0 -0.02 -0.01 -0.03 -0.01 -0 -0 -0.02 -0 -0.02 -0.01 -0.02 -0 -0.02 -0 -0.01 -0 0.42 -13.9 0.14 0.02 0.13 0.03 0.13 0.03 0.13 0.04 0.13 0.04 0.15 0.05 0.12 0.05 0.13 0.06 0.14 0.07 0.13 0.07 0.13 0.08 0.13 0.08 0.13 0.08 0.13 0.09 0.14 0.1 0.13 0.1 0.12 0.1 0.13 0.11 0.13 0.13 0.13 0.12 0.12 0.13 0.13 0.14 0.12 0.14 0.12 0.14 0.13 0.16 0.12 0.16 0.12 0.16 0.13 0.19 0.11 0.17 0.12 0.19 0.12 0.19 0.11 0.19 0.5 1.08zm-0.5 -1.08l0.28 0.48 0.22 0.6 -0.5 -1.08zm5.71 37.74l-10.32 -28.04 5.11 -8.62 10.32 28.04 -0.49 9.69 -4.62 -1.07zm4.62 1.07l-2.56 4.51 -2.06 -5.58 4.62 1.07zm10.33 -18.16l-10.33 18.16 -4.13 -10.76 10.33 -18.16 4.58 0.97 -0.45 9.79zm0.45 -9.79l2.06 5.38 -2.51 4.41 0.45 -9.79zm-7.68 -20.07l7.68 20.07 -5.03 8.83 -7.68 -20.07 4.66 -9.65 0.37 0.82zm-0.37 -0.82l0.2 0.38 0.17 0.45 -0.37 -0.82z"/>
  </g>
  <path class="fil0" d="M76.96 19.48c9.03,-3.42 9.69,3.19 14.44,14.9l60.18 164.9c6.82,14.92 27.38,29.54 41.45,21.9l-77.22 -208.19c-9.4,-20.64 -37.12,-15.36 -38.85,6.49z"/>
  <g>
   <path class="fil0" d="M230.89 112.51c1.31,-8.16 -5.86,-21.74 -14.09,-25.1l-65.12 0.68c-0.03,10.67 8.93,18.35 17.89,18.35l54.71 -1.37c-1.73,2.01 0.2,5.79 -8.59,13.96l11.58 4.45 3.62 -10.96z"/>
   <path id="1" class="fil1" d="M216.9 90.54l-0.2 -6.27 1.12 0.22 0.95 0.43 0.92 0.49 0.9 0.54 0.87 0.6 0.85 0.65 0.83 0.69 0.8 0.73 0.77 0.77 0.75 0.81 0.73 0.84 0.7 0.87 0.67 0.9 0.65 0.92 0.62 0.95 0.59 0.97 0.56 0.98 0.53 1 0.5 1.01 0.47 1.02 0.43 1.03 0.4 1.04 0.36 1.04 0.32 1.05 0.28 1.05 0.24 1.04 0.2 1.04 0.15 1.04 0.1 1.03 0.05 1.03 -0 1.02 -0.06 1.01 -0.13 0.99 -5.88 -1.18 0.07 -0.57 0.04 -0.61 0 -0.65 -0.04 -0.69 -0.07 -0.73 -0.11 -0.75 -0.15 -0.78 -0.18 -0.8 -0.22 -0.81 -0.25 -0.83 -0.29 -0.84 -0.32 -0.84 -0.35 -0.84 -0.38 -0.84 -0.41 -0.84 -0.44 -0.82 -0.46 -0.81 -0.49 -0.8 -0.51 -0.78 -0.53 -0.76 -0.55 -0.73 -0.56 -0.7 -0.58 -0.67 -0.59 -0.63 -0.6 -0.59 -0.6 -0.55 -0.61 -0.51 -0.61 -0.46 -0.61 -0.42 -0.6 -0.37 -0.6 -0.32 -0.59 -0.26 1.12 0.22zm-0.2 -6.27l0.58 -0.01 0.54 0.22 -1.12 -0.22zm-65.12 0.68l65.12 -0.68 0.2 6.27 -65.12 0.68 -3.08 -3.21 2.88 -3.05zm-2.88 3.05l0.01 -3.02 2.87 -0.03 -2.88 3.05zm20.73 15.3l0.28 6.26 -0.07 0 -0.99 -0.03 -0.99 -0.08 -0.98 -0.13 -0.97 -0.18 -0.96 -0.23 -0.95 -0.27 -0.94 -0.32 -0.92 -0.36 -0.91 -0.41 -0.89 -0.45 -0.87 -0.49 -0.85 -0.54 -0.83 -0.58 -0.8 -0.62 -0.78 -0.66 -0.75 -0.69 -0.72 -0.73 -0.69 -0.77 -0.65 -0.8 -0.62 -0.84 -0.58 -0.87 -0.54 -0.91 -0.5 -0.94 -0.46 -0.97 -0.41 -1 -0.36 -1.03 -0.31 -1.06 -0.26 -1.08 -0.2 -1.11 -0.15 -1.13 -0.09 -1.15 -0.03 -1.16 5.96 0.16 0.02 0.82 0.06 0.8 0.1 0.78 0.14 0.76 0.18 0.75 0.21 0.73 0.25 0.71 0.28 0.69 0.31 0.67 0.35 0.65 0.38 0.63 0.41 0.61 0.44 0.59 0.46 0.57 0.49 0.54 0.51 0.52 0.54 0.49 0.56 0.47 0.58 0.44 0.6 0.41 0.61 0.39 0.63 0.36 0.64 0.33 0.65 0.29 0.67 0.26 0.67 0.23 0.68 0.19 0.69 0.16 0.69 0.13 0.69 0.09 0.69 0.05 0.69 0.02 -0.07 0zm0.28 6.26l-0.04 0 -0.03 0 0.07 -0zm54.71 -1.37l-54.71 1.37 -0.28 -6.26 54.71 -1.37 2.37 5.26 -2.09 1zm-0.28 -6.26l7.04 -0.18 -4.68 5.44 -2.37 -5.26zm-7.49 14.15l-1.93 5.88 -1.03 -5.31 0.75 -0.71 0.69 -0.68 0.63 -0.65 0.57 -0.62 0.52 -0.6 0.47 -0.57 0.42 -0.54 0.37 -0.51 0.33 -0.49 0.29 -0.46 0.26 -0.44 0.23 -0.41 0.2 -0.39 0.18 -0.37 0.15 -0.35 0.13 -0.34 0.12 -0.32 0.1 -0.31 0.09 -0.3 0.08 -0.3 0.08 -0.3 0.08 -0.3 0.08 -0.31 0.08 -0.33 0.09 -0.33 0.1 -0.35 0.13 -0.38 0.15 -0.4 0.18 -0.4 0.23 -0.42 0.28 -0.42 0.32 -0.4 4.46 4.26 0.01 -0.02 0.01 -0.01 -0 0.01 -0.02 0.05 -0.03 0.08 -0.04 0.13 -0.05 0.18 -0.06 0.22 -0.07 0.26 -0.08 0.31 -0.09 0.35 -0.1 0.38 -0.12 0.41 -0.13 0.44 -0.15 0.46 -0.18 0.49 -0.2 0.51 -0.23 0.54 -0.26 0.55 -0.29 0.57 -0.33 0.59 -0.36 0.61 -0.4 0.63 -0.44 0.64 -0.48 0.66 -0.53 0.68 -0.57 0.69 -0.62 0.72 -0.67 0.73 -0.73 0.76 -0.78 0.77 -0.84 0.8 -1.03 -5.31zm-1.93 5.88l-4.78 -1.83 3.74 -3.48 1.03 5.31zm11.58 4.45l-11.58 -4.45 1.93 -5.88 11.58 4.45 1.85 4.03 -3.78 1.85zm3.78 -1.85l-0.97 2.93 -2.81 -1.08 3.78 -1.85zm3.62 -10.96l-3.62 10.96 -5.63 -2.17 3.62 -10.96 5.75 1.68 -0.12 0.5zm0.12 -0.5l-0.04 0.25 -0.08 0.24 0.12 -0.5z"/>
  </g>
  <path class="fil0 str0" d="M214.12 84.2c5.27,5.56 3.35,6.86 1.22,14.91l-34.85 104.1 -0.12 -0.33c-21.48,-59.99 -46.73,-123.18 -70.71,-190.1 -6.03,4.96 -15.25,23.69 -10.16,41.5l3.31 9.26 -0.01 0.01 55.75 149.35c0.24,0.83 0.43,0.96 0.69,1.67 9.83,25.96 37.13,23.58 44.88,-1.89l30.87 -101.61c6.06,-13.1 -9.05,-28.19 -20.88,-26.87z"/>
 </g>
</svg>
