<?xml version="1.0" encoding="UTF-8"?>
<!DOCTYPE svg PUBLIC "-//W3C//DTD SVG 1.1//EN" "http://www.w3.org/Graphics/SVG/1.1/DTD/svg11.dtd">
<!-- Creator: CorelDRAW 2018 (64-Bit Evaluation Version) -->
<svg xmlns="http://www.w3.org/2000/svg" xml:space="preserve" width="12.082mm" height="240px" version="1.1" style="shape-rendering:geometricPrecision; text-rendering:geometricPrecision; image-rendering:optimizeQuality; fill-rule:evenodd; clip-rule:evenodd"
viewBox="0 0 61.33 60.44"
 xmlns:xlink="http://www.w3.org/1999/xlink">
 <defs>
  <style type="text/css">
   <![CDATA[
    .fil2 {fill:#F0805F}
    .fil0 {fill:#282829}
    .fil1 {fill:#282829;fill-rule:nonzero}
   ]]>
  </style>
 </defs>
 <g id="Layer_x0020_1">
  <metadata id="CorelCorpID_0Corel-Layer"/>
  <g>
   <path class="fil0" d="M29.08 4.68c-1.2,-2.25 -4.25,-3.42 -6.46,-1.69l-0.11 0.08 -0.02 0.02 -0.04 0.03 -0.06 0.05 -0.02 0.02 -0.04 0.03 -0.06 0.05 -0.03 0.02 -0.03 0.03 -0.09 0.08 -0.03 0.03 -0.06 0.06 -0.03 0.03 -0.02 0.03 -0.09 0.1 -0.02 0.02 -0.05 0.06 -0.04 0.04 -0.02 0.02 -0.05 0.07 -0.04 0.05 -0.01 0.02 -0.05 0.07 -0.04 0.05 -0.01 0.02 -0.05 0.07 -0.04 0.06 -0.01 0.01 -0.05 0.07 -0.04 0.07 -0.01 0.01 -0.02 0.03 -0.07 0.12 -0 0 -0.04 0.08 -0.04 0.08 -19.63 53.22 0.28 0.1c4.68,1.64 5.97,-0.49 6.96,-2.82l17.03 -46.68 -1.27 -1.18 0.01 -0.02 0 0 0.01 -0.01 0.01 -0.01 0 -0 0.01 -0.01 0.01 -0.01 0 -0 0.01 -0.01 0.01 -0.01 0 -0 0.01 -0.01 0.01 -0.01 0 -0 0.01 -0.01 0.01 -0.01 0 -0 0.01 -0.01 0.01 -0.01 0 -0 0.01 -0.01 0.01 -0.01 0 -0 0.01 -0.01 0.01 -0.01 0 -0 0.01 -0.01 0.01 -0.01 0 -0 0.01 -0.01 0.01 -0.01 0 -0 0.01 -0.01 0.01 -0.01 0 -0 0.01 -0.01 0.01 -0.01 0 -0 0.01 -0.01 0.01 -0.01 0 -0 0.01 -0.01 0.01 -0.01 0 -0 0.01 -0 0.01 -0.01 0.01 -0 0.01 -0.01 0.01 -0.01 0.01 -0 0.01 -0 0.01 -0.01 0.01 -0 0.01 -0 0.01 -0.01 0.01 -0 0 -0 0.01 -0.01 0.01 -0 0 -0 0.01 -0.01 0.01 -0 0.01 -0 0.01 -0.01 0.01 -0 0.01 -0 0.01 -0 0.01 -0 0 -0 0.01 -0 0.01 -0 0 -0 0.01 -0 0.01 -0 0 -0 0.02 -0 0 -0 0.01 -0 0.01 -0 0 -0 0.01 -0 0.01 -0 0 0 0 0c0.21,0.03 0.42,0.19 0.58,0.48l2.68 7.27 2.68 -4.71 -1.99 -5.21z"/>
   <path id="1" class="fil1" d="M22.89 4.7l-0.56 -3.41 -0.01 0.01 0.24 -0.18 0.25 -0.16 0.25 -0.14 0.25 -0.12 0.25 -0.1 0.25 -0.08 0.26 -0.07 0.25 -0.05 0.26 -0.03 0.26 -0.02 0.25 -0 0.25 0.01 0.25 0.03 0.25 0.04 0.25 0.05 0.25 0.07 0.24 0.08 0.24 0.09 0.24 0.11 0.23 0.12 0.23 0.13 0.22 0.14 0.22 0.15 0.21 0.16 0.21 0.18 0.2 0.19 0.19 0.2 0.19 0.21 0.18 0.23 0.17 0.24 0.16 0.26 0.16 0.28 -1.11 2.72 -0.08 -0.14 -0.09 -0.14 -0.1 -0.15 -0.12 -0.15 -0.13 -0.14 -0.14 -0.14 -0.14 -0.14 -0.15 -0.13 -0.16 -0.13 -0.17 -0.12 -0.18 -0.11 -0.18 -0.1 -0.19 -0.09 -0.19 -0.09 -0.2 -0.08 -0.2 -0.07 -0.2 -0.05 -0.21 -0.04 -0.21 -0.03 -0.21 -0.02 -0.21 -0.01 -0.21 0 -0.21 0.01 -0.21 0.03 -0.21 0.04 -0.2 0.05 -0.2 0.06 -0.2 0.08 -0.19 0.09 -0.19 0.1 -0.18 0.12 -0.18 0.13 -0.01 0.01zm0.01 -0.01l-0 0 -0.01 0.01 0.01 -0.01zm-0.68 -3.32l0.11 -0.08 0.56 3.41 -0.11 0.08 -0.56 -3.41 0.01 -0zm-0.01 0l0.01 -0 -0.02 0.02 0.02 -0.01zm-0.02 0.02l0.02 -0.02 0.57 3.4 -0.02 0.02 -0.59 -3.39 0.02 -0.02zm-0.02 0.02l0.01 -0.01 0.01 -0.01 -0.02 0.02zm-0.04 0.03l0.04 -0.03 0.61 3.37 -0.04 0.03 -0 0 -0.61 -3.37zm0.61 3.37l-0 0 -0.01 0.01 0.01 -0.01zm-0.67 -3.32l0.06 -0.05 0.6 3.38 -0.06 0.05 -0.61 -3.37 0.01 -0.01zm-0.01 0.01l0.01 -0.01 0.02 -0.02 -0.03 0.02zm-0.02 0.02l0.02 -0.02 0.61 3.37 -0.02 0.02 -0.63 -3.36 0.01 -0.01zm-0.01 0.01l0.01 -0.01 -0.02 0.01 0.01 -0.01zm-0.04 0.03l0.04 -0.03 0.64 3.35 -0.04 0.03 -0.64 -3.35zm-0.06 0.05l0.06 -0.05 0.64 3.35 -0.06 0.05 -0.65 -3.33 0.02 -0.01zm-0.02 0.01l0.02 -0.01 -0.01 0.01 -0.01 0.01zm-0.03 0.02l0.03 -0.02 0.67 3.32 -0.03 0.02 -0.67 -3.31 0 -0zm-0 0l0 -0 -0.02 0.02 0.02 -0.02zm-0.03 0.03l0.03 -0.03 0.68 3.31 -0.03 0.03 -0.68 -3.3 0.01 -0.01zm-0.01 0.01l0.01 -0.01 0.01 -0.01 -0.02 0.02zm-0.09 0.08l0.09 -0.08 0.69 3.3 -0.09 0.08 -0 0 -0.69 -3.3zm0.69 3.3l-0 0 -0.01 0.01 0.02 -0.01zm-0.71 -3.27l0.03 -0.03 0.68 3.31 -0.03 0.03 -0.7 -3.29 0.02 -0.02zm-0.02 0.02l0.01 -0.01 0.01 -0.01 -0.02 0.02zm-0.06 0.06l0.06 -0.06 0.72 3.27 -0.06 0.06 -0.73 -3.26 0.01 -0.01zm-0.01 0.01l-0 0 0.01 -0.01 -0.01 0.01zm-0.03 0.03l0.03 -0.03 0.74 3.25 -0.03 0.03 -0.75 -3.24 0 -0.01zm-0 0.01l0 -0.01 0.01 -0.01 -0.02 0.02zm-0.02 0.03l0.02 -0.03 0.75 3.24 -0.02 0.03 -0.76 -3.22 0.01 -0.01zm-0.01 0.01l0.01 -0.01 0 -0 -0.01 0.01zm-0.09 0.1l0.09 -0.1 0.77 3.21 -0.09 0.1 -0 0 -0.77 -3.21zm0.77 3.21l-0 0 0.02 -0.03 -0.02 0.03zm-0.79 -3.19l0.02 -0.02 0.77 3.22 -0.02 0.02 -0.79 -3.19 0.02 -0.02zm-0.02 0.02l0.01 -0.01 0.01 -0.01 -0.02 0.02zm-0.05 0.06l0.05 -0.06 0.81 3.17 -0.05 0.06 -0 0 -0.81 -3.17zm0.81 3.17l0 0 -0 0 0 -0zm-0.85 -3.13l0.04 -0.04 0.81 3.17 -0.04 0.04 -0.84 -3.14 0.03 -0.03zm-0.03 0.03l0.01 -0.01 0.02 -0.02 -0.03 0.03zm-0.02 0.02l0.02 -0.02 0.86 3.11 -0.02 0.02 -0.01 0.01 -0.85 -3.12zm0.86 3.11l-0.01 0.01 0.01 -0.01 -0 0zm-0.91 -3.05l0.05 -0.07 0.85 3.13 -0.05 0.07 -0.86 -3.11 0.01 -0.01zm-0.01 0.01l0.01 -0.01 -0 0 -0.01 0.01zm-0.04 0.05l0.04 -0.05 0.87 3.1 -0.04 0.05 -0.87 -3.1 0 -0zm-0.01 0.02l0.01 -0.02 0.87 3.1 -0.01 0.02 -0.88 -3.08 0.01 -0.02zm-0.01 0.02l0.01 -0.02 -0.01 0.01 -0.01 0.01zm-0.05 0.07l0.05 -0.07 0.9 3.06 -0.05 0.07 -0.9 -3.06 0 -0.01zm-0 0.01l-0 0 0.01 -0.01 -0 0.01zm-0.04 0.05l0.04 -0.05 0.9 3.05 -0.04 0.05 -0.92 -3.03 0.02 -0.02zm-0.02 0.02l0 -0.01 0.01 -0.02 -0.02 0.02zm-0.01 0.02l0.01 -0.02 0.94 3.01 -0.01 0.02 0 0 -0.94 -3.01zm-0.05 0.07l0.05 -0.07 0.94 3.01 -0.05 0.07 -0.94 -3 0.01 -0.01zm-0.01 0.01l0.01 -0.01 -0.02 0.02 0.01 -0.02zm-0.04 0.06l0.04 -0.06 0.95 2.99 -0.04 0.06 -0.97 -2.96 0.02 -0.02zm-0.02 0.02l0.02 -0.02 0 -0 -0.02 0.02zm-0.01 0.01l0.01 -0.01 0.98 2.94 -0.01 0.01 -0.99 -2.93 0.01 -0.01zm-0.01 0.01l0 -0 0 -0 -0.01 0.01zm-0.05 0.07l0.05 -0.07 0.99 2.92 -0.05 0.07 -1 -2.92 0 -0zm-0 0l0 -0 -0.05 0.08 0.05 -0.08zm-0.04 0.07l0.04 -0.07 1 2.92 -0.04 0.07 -1.02 -2.87 0.03 -0.04zm-0.03 0.04l0.02 -0.03 0.01 -0.01 -0.03 0.04zm-0.01 0.01l0.01 -0.01 1.05 2.83 -0.01 0.01 -0.01 0.02 -1.04 -2.85zm1.05 2.83l-0.02 0.03 0 -0 0.01 -0.02zm-1.05 -2.83l0.02 -0.03 1.02 2.88 -0.02 0.03 -1.03 -2.86 0.01 -0.02zm-0.01 0.02l0.01 -0.02 0 -0.01 -0.01 0.02zm-0.07 0.12l0.07 -0.12 1.04 2.84 -0.07 0.12 -1.06 -2.8 0.02 -0.04zm-0.02 0.04l0.01 -0.02 0.01 -0.02 -0.02 0.04zm-0 0l0 -0 1.09 2.77 -0 0 -0 0 -1.08 -2.77zm1.09 2.77l-0 0 -0.03 0.06 0.03 -0.06zm-1.13 -2.69l0.04 -0.08 1.08 2.77 -0.04 0.08 -1.09 -2.76 0 -0.01zm-0 0.01l0 -0.01 -0.01 0.02 0.01 -0.01zm-0.04 0.08l0.04 -0.08 1.09 2.76 -0.04 0.08 -1.21 -2.5 0.12 -0.26zm-0.12 0.26l0.05 -0.14 0.06 -0.12 -0.12 0.26zm-19.63 53.22l19.63 -53.22 1.32 2.24 -19.63 53.22 -0.8 0.66 -0.53 -2.9zm0.53 2.9l-1.42 -0.49 0.89 -2.41 0.53 2.9zm0.28 0.1l-0.28 -0.1 0.27 -3.57 0.28 0.1 0 0 -0.27 3.57zm6.43 -5.72l1.33 2.22 -0.04 0.1 -0.1 0.24 -0.11 0.24 -0.11 0.24 -0.12 0.24 -0.12 0.24 -0.13 0.24 -0.14 0.24 -0.15 0.23 -0.16 0.23 -0.16 0.22 -0.17 0.21 -0.18 0.2 -0.19 0.19 -0.2 0.17 -0.21 0.16 -0.22 0.14 -0.23 0.13 -0.24 0.11 -0.25 0.1 -0.26 0.08 -0.28 0.06 -0.29 0.05 -0.3 0.03 -0.31 0.01 -0.33 -0.01 -0.34 -0.02 -0.36 -0.04 -0.37 -0.06 -0.39 -0.08 -0.41 -0.1 -0.42 -0.12 -0.44 -0.15 0.27 -3.57 0.42 0.14 0.4 0.12 0.38 0.1 0.36 0.08 0.34 0.06 0.32 0.04 0.3 0.02 0.28 0.01 0.27 -0.01 0.25 -0.02 0.24 -0.04 0.22 -0.05 0.21 -0.06 0.19 -0.07 0.18 -0.08 0.17 -0.09 0.15 -0.1 0.14 -0.11 0.13 -0.11 0.13 -0.12 0.12 -0.13 0.11 -0.13 0.11 -0.14 0.1 -0.14 0.09 -0.15 0.09 -0.16 0.09 -0.16 0.09 -0.17 0.09 -0.18 0.08 -0.18 0.08 -0.19 0.08 -0.2 -0.04 0.1zm1.33 2.22l-0.02 0.05 -0.02 0.05 0.04 -0.1zm17.03 -46.68l-17.03 46.68 -1.33 -2.22 17.03 -46.68 1 -0.55 0.33 2.77zm-0.33 -2.77l1 0.93 -0.67 1.84 -0.33 -2.77zm-1.27 -1.18l1.27 1.18 -0.67 3.32 -1.27 -1.18 -0.16 -3.11 0.84 -0.2zm-0.67 3.32l-1.34 -1.25 1.18 -1.86 0.16 3.11zm0.85 -0.22l-0.01 0.02 -1 -2.91 0.01 -0.02 1.04 2.85 -0.03 0.05zm0.03 -0.05l-0.01 0.02 -0.02 0.04 0.03 -0.05zm-0.53 -1.4l0 0 0 0 0 0 -0.53 -1.4 0.53 1.4zm0.53 1.4l-0.01 0.02 -0.02 0.04 0.03 -0.05zm0.01 -0.01l-0.01 0.01 -1.07 -2.8 0.01 -0.01 0.06 -0.09 1.01 2.89zm-1.07 -2.8l0.03 -0.04 0.03 -0.04 -0.06 0.09zm1.02 2.87l-0.01 0.01 -0.96 -2.98 0.01 -0.01 1.32 1.49 -0.37 1.49zm0.37 -1.49l0 0.95 -0.37 0.54 0.37 -1.49zm0 -0l0 0 -1.69 0 0 -0 0.33 -1.44 1.35 1.44zm-1.69 0l0 -0.9 0.33 -0.54 -0.33 1.44zm1.36 1.43l-0.01 0.01 -1.02 -2.88 0.01 -0.01 0.04 -0.07 0.98 2.94zm-1.02 -2.88l0.02 -0.03 0.02 -0.03 -0.04 0.07zm0.99 2.93l-0.01 0.01 -0.93 -3.01 0.01 -0.01 0.11 -0.13 0.82 3.14zm-0.93 -3.01l0.05 -0.08 0.06 -0.06 -0.11 0.13zm0.82 3.14l-0 0 -0.71 -3.27 0 -0 0.85 3.11 -0.13 0.17zm0.13 -0.17l-0.06 0.1 -0.07 0.07 0.13 -0.17zm0.01 -0.01l-0.01 0.01 -0.98 -2.94 0.01 -0.01 0.02 -0.03 0.96 2.97zm-0.98 -2.94l0.01 -0.01 0.01 -0.01 -0.02 0.03zm0.97 2.95l-0.01 0.01 -0.94 -3 0.01 -0.01 1.05 2.82 -0.1 0.18zm0.1 -0.18l-0.05 0.1 -0.05 0.08 0.1 -0.18zm0 -0l-0 0 -1.15 -2.64 0 -0 0.15 -0.24 1 2.89zm-1.15 -2.64l0.07 -0.14 0.08 -0.1 -0.15 0.24zm1.01 2.87l-0.01 0.01 -0.84 -3.13 0.01 -0.01 0.89 3.06 -0.05 0.07zm0.05 -0.07l-0.02 0.03 -0.03 0.03 0.05 -0.07zm0.01 -0.01l-0.01 0.01 -0.94 -3 0.01 -0.01 0.11 -0.14 0.83 3.13zm-0.94 -3l0.05 -0.08 0.06 -0.06 -0.11 0.14zm0.83 3.13l-0 0 -0.71 -3.27 0 -0 0.83 3.13 -0.12 0.15zm0.12 -0.15l-0.06 0.08 -0.06 0.06 0.12 -0.15zm0.01 -0.01l-0.01 0.01 -0.95 -2.98 0.01 -0.01 0.02 -0.03 0.94 3.01zm-0.95 -2.98l0.01 -0.01 0.01 -0.01 -0.02 0.03zm0.95 2.99l-0.01 0.01 -0.92 -3.03 0.01 -0.01 0.1 -0.12 0.82 3.15zm-0.92 -3.03l0.05 -0.07 0.05 -0.05 -0.1 0.12zm0.82 3.15l-0 0 -0.71 -3.27 0 -0 0.77 3.22 -0.05 0.06zm0.05 -0.06l-0.02 0.03 -0.03 0.03 0.05 -0.06zm0.01 -0.01l-0.01 0.01 -0.82 -3.16 0.01 -0.01 0.85 3.12 -0.03 0.04zm0.03 -0.04l-0.02 0.03 -0.01 0.02 0.03 -0.04zm0.01 -0.01l-0.01 0.01 -0.88 -3.08 0.01 -0.01 0.02 -0.02 0.87 3.1zm-0.88 -3.08l0.02 -0.02 0 -0 -0.02 0.02zm0.87 3.1l-0 0 -0.85 -3.12 0 -0 0.86 3.12 -0 0.01zm0 -0.01l-0 0.01 -0.03 0.03 0.03 -0.04zm0.01 -0.01l-0.01 0.01 -0.86 -3.11 0.01 -0.01 0 -0 0.86 3.11zm-0.86 -3.11l0 -0 0.07 -0.09 -0.07 0.09zm0.87 3.1l-0.01 0.01 -0.86 -3.11 0.01 -0.01 0.15 -0.15 0.71 3.26zm-0.86 -3.11l0.07 -0.09 0.08 -0.06 -0.15 0.15zm0.71 3.26l-0 0 -0.56 -3.41 0 -0 0.65 3.32 -0.1 0.09zm0.1 -0.09l-0.05 0.05 -0.05 0.04 0.1 -0.09zm0.01 -0.01l-0.01 0.01 -0.75 -3.24 0.01 -0.01 0.79 3.19 -0.04 0.05zm0.04 -0.05l-0.02 0.02 -0.02 0.02 0.04 -0.05zm0.01 -0.01l-0.01 0.01 -0.83 -3.15 0.01 -0.01 0.12 -0.12 0.71 3.26zm-0.83 -3.15l0.06 -0.07 0.06 -0.05 -0.12 0.12zm0.71 3.26l-0 0 -0.59 -3.38 0 -0 0.69 3.29 -0.1 0.1zm0.1 -0.1l-0.05 0.05 -0.05 0.04 0.1 -0.1zm0.01 -0.01l-0.01 0.01 -0.79 -3.19 0.01 -0.01 0.01 -0.01 0.78 3.2zm-0.79 -3.19l0 -0 0.01 -0.01 -0.01 0.01zm0.79 3.19l-0.01 0.01 -0.77 -3.21 0.01 -0.01 0.03 -0.03 0.74 3.24zm-0.77 -3.21l0.02 -0.02 0.01 -0.01 -0.03 0.03zm0.75 3.24l-0 0 -0.71 -3.27 0 -0 0.04 -0.04 0.67 3.31zm-0.71 -3.27l0.02 -0.02 0.02 -0.02 -0.04 0.04zm0.68 3.3l-0.01 0.01 -0.63 -3.35 0.01 -0.01 0.72 3.26 -0.08 0.09zm0.08 -0.09l-0.04 0.05 -0.04 0.04 0.08 -0.09zm0.01 -0.01l-0.01 0.01 -0.8 -3.18 0.01 -0.01 0.04 -0.05 0.76 3.23zm-0.8 -3.18l0.02 -0.03 0.02 -0.02 -0.04 0.05zm0.76 3.22l-0 0 -0.71 -3.27 0 -0 0.06 -0.06 0.65 3.33zm-0.71 -3.27l0.03 -0.03 0.03 -0.03 -0.06 0.06zm0.66 3.32l-0.01 0.01 -0.59 -3.38 0.01 -0.01 0.67 3.31 -0.08 0.07zm0.08 -0.07l-0.04 0.04 -0.04 0.03 0.08 -0.07zm0.01 -0.01l-0.01 0.01 -0.74 -3.24 0.01 -0.01 0.01 -0.01 0.73 3.26zm-0.74 -3.24l0.01 -0.01 0 -0 -0.01 0.01zm0.73 3.26l-0 0 -0.71 -3.27 0 -0 0.07 -0.06 0.65 3.33zm-0.71 -3.27l0.03 -0.03 0.03 -0.03 -0.07 0.06zm0.66 3.33l-0.01 0.01 -0.58 -3.39 0.01 -0.01 0.66 3.32 -0.08 0.08zm0.08 -0.08l-0.04 0.04 -0.04 0.03 0.08 -0.08zm0.01 -0.01l-0.01 0.01 -0.75 -3.24 0.01 -0.01 0.14 -0.11 0.61 3.36zm-0.75 -3.24l0.07 -0.07 0.07 -0.04 -0.14 0.11zm0.61 3.35l-0 0 -0.47 -3.47 0 -0 0.55 3.41 -0.08 0.06zm0.08 -0.06l-0.04 0.03 -0.04 0.02 0.08 -0.06zm0.01 -0.01l-0.01 0.01 -0.63 -3.35 0.01 -0.01 0 -0 0.63 3.36zm-0.63 -3.35l0 -0 0.04 -0.03 -0.04 0.04zm0.64 3.35l-0.01 0.01 -0.62 -3.36 0.01 -0.01 0.63 3.36 -0 0zm0 -0l-0 0 -0.04 0.03 0.04 -0.04zm0 -0l-0 0 -0.63 -3.35 0 -0 0.05 -0.04 0.58 3.39zm-0.63 -3.35l0.02 -0.02 0.02 -0.02 -0.05 0.04zm0.59 3.39l-0.01 0.01 -0.53 -3.43 0.01 -0.01 0.58 3.39 -0.04 0.03zm0.04 -0.03l-0.02 0.02 -0.03 0.02 0.04 -0.03zm0.01 -0.01l-0.01 0.01 -0.62 -3.36 0.01 -0.01 0.63 3.35 -0.01 0.01zm0.01 -0.01l-0.01 0 -0 0 0.01 -0.01zm0 -0l-0 0 -0.64 -3.35 0 -0 0.08 -0.06 0.56 3.4zm-0.64 -3.35l0.04 -0.03 0.04 -0.03 -0.08 0.06zm0.57 3.4l-0.01 0 -0.49 -3.46 0.01 -0 0.53 3.43 -0.05 0.04zm0.05 -0.04l-0.02 0.02 -0.03 0.02 0.05 -0.04zm0.01 -0.01l-0.01 0.01 -0.58 -3.39 0.01 -0.01 0.06 -0.04 0.52 3.43zm-0.58 -3.39l0.03 -0.02 0.03 -0.02 -0.06 0.04zm0.52 3.43l-0.01 0 -0.46 -3.48 0.01 -0 0.53 3.42 -0.08 0.06zm0.08 -0.06l-0.04 0.03 -0.04 0.02 0.08 -0.06zm0.01 -0.01l-0.01 0.01 -0.61 -3.37 0.01 -0.01 0.05 -0.04 0.56 3.4zm-0.61 -3.37l0.03 -0.02 0.02 -0.02 -0.05 0.04zm0.57 3.4l-0.01 0.01 -0.51 -3.44 0.01 -0.01 0.02 -0.01 0.5 3.45zm-0.51 -3.44l0.01 -0 0.01 -0.01 -0.02 0.01zm0.5 3.45l-0.01 0 -0.48 -3.46 0.01 -0 0.51 3.44 -0.03 0.02zm0.03 -0.02l-0.02 0.01 -0.01 0.01 0.03 -0.02zm0.01 -0l-0.01 0 -0.54 -3.42 0.01 -0 0.04 -0.02 0.51 3.45zm-0.54 -3.42l0.02 -0.01 0.02 -0.01 -0.04 0.02zm0.52 3.44l-0.01 0.01 -0.47 -3.47 0.01 -0.01 0.48 3.47 -0.01 0zm0.01 -0l-0.01 0 0.02 -0.01 -0.01 0.01zm0.01 -0l-0.01 0 -0.48 -3.46 0.01 -0 0.01 -0.01 0.47 3.47zm-0.48 -3.46l0 0 0.01 -0.01 -0.01 0.01zm0.47 3.47l-0.01 0 -0.46 -3.48 0.01 -0 0.02 -0.01 0.44 3.49zm-0.46 -3.48l0.02 -0.01 0 0 -0.02 0.01zm0.45 3.48l-0.01 0.01 -0.42 -3.5 0.01 -0.01 0 -0 0.42 3.5zm-0.42 -3.5l0 -0 -0.02 0.01 0.01 -0.01zm0.42 3.5l-0.01 0 -0.41 -3.5 0.01 -0 0.46 3.48 -0.05 0.03zm0.05 -0.03l-0.02 0.02 -0.02 0.01 0.05 -0.03zm0 -0l-0 0 -0.5 -3.45 0 -0 0.05 -0.03 0.45 3.48zm-0.5 -3.45l0.02 -0.02 0.03 -0.01 -0.05 0.03zm0.46 3.47l-0.01 0.01 -0.4 -3.51 0.01 -0.01 0.02 -0.01 0.38 3.52zm-0.4 -3.51l0.02 -0.01 0 0 -0.02 0.01zm0.39 3.52l-0.01 0 -0.36 -3.53 0.01 -0 0.41 3.5 -0.06 0.03zm0.06 -0.03l-0.03 0.02 -0.03 0.01 0.06 -0.03zm0 -0l-0 0 -0.47 -3.47 0 -0 0.04 -0.02 0.43 3.49zm-0.47 -3.47l0.02 -0.01 0.02 -0.01 -0.04 0.02zm0.44 3.49l-0.01 0.01 -0.38 -3.52 0.01 -0.01 0.02 -0.01 0.37 3.53zm-0.38 -3.52l0.01 -0.01 0.01 -0 -0.02 0.01zm0.37 3.52l-0.01 0 -0.35 -3.53 0.01 -0 0.02 -0.01 0.33 3.54zm-0.35 -3.53l0.01 -0 0.01 -0 -0.02 0.01zm0.34 3.54l-0.01 0 -0.31 -3.55 0.01 -0 0.36 3.53 -0.05 0.02zm0.05 -0.02l-0.02 0.01 -0.02 0.01 0.05 -0.02zm0.01 -0.01l-0.01 0.01 -0.4 -3.51 0.01 -0.01 0.07 -0.03 0.33 3.54zm-0.4 -3.51l0.04 -0.02 0.03 -0.01 -0.07 0.03zm0.34 3.54l-0.01 0 -0.26 -3.57 0.01 -0 0.28 3.56 -0.02 0.01zm0.02 -0.01l-0.01 0.01 -0.01 0 0.02 -0.01zm0.01 -0l-0.01 0 -0.31 -3.55 0.01 -0 0.32 3.55 -0.01 0zm0.01 -0l-0.01 0 0 0 0.01 -0zm0.01 -0l-0.01 0 -0.33 -3.54 0.01 -0 0.03 -0.01 0.3 3.55zm-0.33 -3.54l0.02 -0.01 0.01 -0 -0.03 0.01zm0.31 3.55l-0.01 0 -0.28 -3.56 0.01 -0 0.36 3.53 -0.08 0.04zm0.08 -0.04l-0.04 0.02 -0.04 0.01 0.08 -0.04zm0 -0l-0 0 -0.44 -3.49 0 -0 0.09 -0.04 0.34 3.53zm-0.44 -3.49l0.05 -0.03 0.05 -0.01 -0.09 0.04zm0.35 3.53l-0.01 0 -0.25 -3.57 0.01 -0 0.27 3.57 -0.02 0.01zm0.02 -0.01l-0.02 0.01 -0.01 0 0.02 -0.01zm0.01 -0l-0.01 0 -0.3 -3.56 0.01 -0 0 -0 0.29 3.56zm-0.3 -3.56l0 -0 0.02 -0.01 -0.02 0.01zm0.3 3.56l-0 0 -0.29 -3.56 0 -0 0.03 -0.01 0.26 3.57zm-0.29 -3.56l0.02 -0.01 0.02 -0.01 -0.03 0.01zm0.27 3.57l-0.01 0 -0.22 -3.58 0.01 -0 0.01 -0 0.21 3.59zm-0.22 -3.58l0 -0 0.01 -0 -0.01 0zm0.22 3.58l-0.01 0 -0.2 -3.59 0.01 -0 0.26 3.57 -0.07 0.02zm0.07 -0.02l-0.03 0.01 -0.03 0.01 0.07 -0.02zm0 -0l-0 0 -0.33 -3.54 0 -0 0.07 -0.02 0.26 3.57zm-0.33 -3.54l0.04 -0.02 0.03 -0.01 -0.07 0.02zm0.28 3.56l-0.02 0 -0.19 -3.59 0.02 -0 0.29 3.55 -0.1 0.04zm0.1 -0.04l-0.05 0.02 -0.05 0.01 0.1 -0.04zm0 -0l-0 0 -0.38 -3.52 0 -0 0.14 -0.04 0.25 3.56zm-0.38 -3.52l0.07 -0.03 0.07 -0.01 -0.14 0.04zm0.26 3.56l-0.01 0 -0.11 -3.61 0.01 -0 0.15 3.6 -0.04 0.01zm0.04 -0.01l-0.02 0.01 -0.02 0 0.04 -0.01zm0.01 -0l-0.01 0 -0.2 -3.59 0.01 -0 0.23 3.58 -0.03 0.01zm0.03 -0.01l-0.01 0 -0.02 0 0.03 -0.01zm0 -0l-0 0 -0.26 -3.57 0 -0 0.07 -0.02 0.19 3.59zm-0.26 -3.57l0.04 -0.01 0.04 -0.01 -0.07 0.02zm0.2 3.59l-0.01 0 -0.11 -3.61 0.01 -0 0.13 3.6 -0.01 0zm0.01 -0l-0.01 0 -0.01 0 0.02 -0zm0.01 -0l-0.01 0 -0.14 -3.6 0.01 -0 0.07 -0.01 0.07 3.61zm-0.14 -3.6l0.04 -0.01 0.03 0 -0.07 0.01zm0.07 3.61l-0 0 0 -3.61 0 0 0 0 0 3.61zm0 0l-0 0 0 -3.61 0 0 0.05 0 -0.05 3.61zm0 -3.61l0.03 0 0.03 0 -0.05 -0zm1.25 1.17l-1.33 2.24 0.13 0.28 -0 -0 -0 -0 -0 -0 -0 -0 -0 -0 -0 -0 -0.01 -0.01 -0.01 -0.01 0 0 -0 -0 -0.01 -0.01 -0 -0 -0.01 -0.01 -0.01 -0.01 0 0 -0.01 -0 -0.01 -0.01 0 0 -0 -0 -0 -0 -0.01 -0 -0.01 -0 0 -0 -0.01 -0 -0 -0 -0 -0 -0 -0 -0.01 -0 -0 -0 -0.01 -0 -0 -0 -0 -0 0.11 -3.61 0.04 0.01 0.03 0.01 0.03 0.01 0.03 0.01 0.03 0.01 0.04 0.01 0.03 0.01 0.03 0.02 0.03 0.02 0.04 0.02 0.03 0.02 0.03 0.02 0.03 0.02 0.04 0.03 0.04 0.03 0.03 0.02 0.03 0.03 0.04 0.04 0.03 0.03 0.03 0.03 0.03 0.04 0.03 0.03 0.03 0.04 0.04 0.04 0.03 0.04 0.03 0.04 0.03 0.04 0.03 0.05 0.03 0.05 0.03 0.05 0.03 0.05 0.03 0.05 0.13 0.28zm-0.13 -0.28l0.07 0.12 0.06 0.16 -0.13 -0.28zm1.48 9.79l-2.68 -7.27 1.33 -2.24 2.68 7.27 -0.13 2.51 -1.2 -0.28zm1.2 0.28l-0.67 1.17 -0.53 -1.45 1.2 0.28zm2.68 -4.71l-2.68 4.71 -1.07 -2.79 2.68 -4.71 1.19 0.25 -0.12 2.54zm0.12 -2.54l0.53 1.4 -0.65 1.15 0.12 -2.54zm-1.99 -5.21l1.99 5.21 -1.31 2.29 -1.99 -5.21 1.21 -2.5 0.1 0.21zm-0.1 -0.21l0.05 0.1 0.04 0.11 -0.1 -0.21z"/>
  </g>
  <path class="fil2" d="M19.97 5.05c2.34,-0.89 2.51,0.83 3.74,3.86l15.61 42.78c1.77,3.87 7.1,7.66 10.75,5.68l-20.03 -54.01c-2.44,-5.35 -9.63,-3.98 -10.08,1.68z"/>
  <g>
   <path class="fil0" d="M59.9 29.19c0.34,-2.12 -1.52,-5.64 -3.66,-6.51l-16.89 0.18c-0.01,2.77 2.32,4.76 4.64,4.76l14.19 -0.36c-0.45,0.52 0.05,1.5 -2.23,3.62l3 1.15 0.94 -2.84z"/>
   <path id="1" class="fil1" d="M56.27 23.49l-0.05 -1.63 0.29 0.06 0.25 0.11 0.24 0.13 0.23 0.14 0.23 0.16 0.22 0.17 0.21 0.18 0.21 0.19 0.2 0.2 0.19 0.21 0.19 0.22 0.18 0.23 0.17 0.23 0.17 0.24 0.16 0.25 0.15 0.25 0.15 0.26 0.14 0.26 0.13 0.26 0.12 0.27 0.11 0.27 0.1 0.27 0.09 0.27 0.08 0.27 0.07 0.27 0.06 0.27 0.05 0.27 0.04 0.27 0.03 0.27 0.01 0.27 -0 0.26 -0.02 0.26 -0.03 0.26 -1.52 -0.31 0.02 -0.15 0.01 -0.16 0 -0.17 -0.01 -0.18 -0.02 -0.19 -0.03 -0.2 -0.04 -0.2 -0.05 -0.21 -0.06 -0.21 -0.07 -0.21 -0.08 -0.22 -0.08 -0.22 -0.09 -0.22 -0.1 -0.22 -0.11 -0.22 -0.11 -0.21 -0.12 -0.21 -0.13 -0.21 -0.13 -0.2 -0.14 -0.2 -0.14 -0.19 -0.15 -0.18 -0.15 -0.17 -0.15 -0.16 -0.15 -0.15 -0.16 -0.14 -0.16 -0.13 -0.16 -0.12 -0.16 -0.11 -0.16 -0.1 -0.15 -0.08 -0.15 -0.07 0.29 0.06zm-0.05 -1.63l0.15 -0 0.14 0.06 -0.29 -0.06zm-16.89 0.18l16.89 -0.18 0.05 1.63 -16.89 0.18 -0.8 -0.83 0.75 -0.79zm-0.75 0.79l0 -0.78 0.75 -0.01 -0.75 0.79zm5.38 3.97l0.07 1.63 -0.02 0 -0.26 -0.01 -0.26 -0.02 -0.25 -0.03 -0.25 -0.05 -0.25 -0.06 -0.25 -0.07 -0.24 -0.08 -0.24 -0.09 -0.24 -0.11 -0.23 -0.12 -0.23 -0.13 -0.22 -0.14 -0.21 -0.15 -0.21 -0.16 -0.2 -0.17 -0.19 -0.18 -0.19 -0.19 -0.18 -0.2 -0.17 -0.21 -0.16 -0.22 -0.15 -0.23 -0.14 -0.23 -0.13 -0.24 -0.12 -0.25 -0.11 -0.26 -0.09 -0.27 -0.08 -0.27 -0.07 -0.28 -0.05 -0.29 -0.04 -0.29 -0.02 -0.3 -0.01 -0.3 1.55 0.04 0 0.21 0.02 0.21 0.03 0.2 0.04 0.2 0.05 0.19 0.06 0.19 0.06 0.18 0.07 0.18 0.08 0.17 0.09 0.17 0.1 0.16 0.11 0.16 0.11 0.15 0.12 0.15 0.13 0.14 0.13 0.14 0.14 0.13 0.14 0.12 0.15 0.12 0.16 0.11 0.16 0.1 0.16 0.09 0.17 0.08 0.17 0.08 0.17 0.07 0.18 0.06 0.18 0.05 0.18 0.04 0.18 0.03 0.18 0.02 0.18 0.01 0.18 0 -0.02 0zm0.07 1.63l-0.02 0 -0 0 0.02 -0zm14.19 -0.36l-14.19 0.36 -0.07 -1.63 14.19 -0.36 0.61 1.37 -0.54 0.26zm-0.07 -1.63l1.83 -0.05 -1.21 1.41 -0.61 -1.37zm-1.94 3.67l-0.5 1.53 -0.27 -1.38 0.19 -0.18 0.18 -0.18 0.16 -0.17 0.15 -0.16 0.13 -0.15 0.12 -0.15 0.11 -0.14 0.1 -0.13 0.09 -0.13 0.08 -0.12 0.07 -0.11 0.06 -0.11 0.05 -0.1 0.05 -0.1 0.04 -0.09 0.03 -0.09 0.03 -0.08 0.03 -0.08 0.02 -0.08 0.02 -0.08 0.02 -0.08 0.02 -0.08 0.02 -0.08 0.02 -0.08 0.02 -0.09 0.03 -0.09 0.03 -0.1 0.04 -0.1 0.05 -0.11 0.06 -0.11 0.07 -0.11 0.08 -0.1 1.16 1.11 0 -0 0 -0 -0 0.01 -0 0.01 -0.01 0.02 -0.01 0.03 -0.01 0.05 -0.02 0.06 -0.02 0.07 -0.02 0.08 -0.02 0.09 -0.03 0.1 -0.03 0.11 -0.03 0.11 -0.04 0.12 -0.05 0.13 -0.05 0.13 -0.06 0.14 -0.07 0.14 -0.08 0.15 -0.08 0.15 -0.09 0.16 -0.1 0.16 -0.11 0.17 -0.12 0.17 -0.14 0.18 -0.15 0.18 -0.16 0.18 -0.17 0.19 -0.19 0.2 -0.2 0.2 -0.22 0.21 -0.27 -1.38zm-0.5 1.53l-1.24 -0.48 0.97 -0.9 0.27 1.38zm3 1.15l-3 -1.15 0.5 -1.53 3 1.15 0.48 1.05 -0.98 0.48zm0.98 -0.48l-0.25 0.76 -0.73 -0.28 0.98 -0.48zm0.94 -2.84l-0.94 2.84 -1.46 -0.56 0.94 -2.84 1.49 0.44 -0.03 0.13zm0.03 -0.13l-0.01 0.07 -0.02 0.06 0.03 -0.13z"/>
  </g>
  <path class="fil2" d="M55.55 21.85c1.37,1.44 0.87,1.78 0.32,3.87l-9.04 27.01 -0.03 -0.09c-5.57,-15.56 -12.12,-31.96 -18.34,-49.32 -1.56,1.29 -3.95,6.15 -2.64,10.77l0.86 2.4 -0 0 14.46 38.75c0.06,0.22 0.11,0.25 0.18,0.43 2.55,6.74 9.63,6.12 11.64,-0.49l8.01 -26.36c1.57,-3.4 -2.35,-7.31 -5.42,-6.97z"/>
 </g>
</svg>
