<?xml version="1.0" encoding="UTF-8"?>
<!DOCTYPE svg PUBLIC "-//W3C//DTD SVG 1.1//EN" "http://www.w3.org/Graphics/SVG/1.1/DTD/svg11.dtd">
<!-- Creator: CorelDRAW 2018 (64-Bit Evaluation Version) -->
<svg xmlns="http://www.w3.org/2000/svg" xml:space="preserve" width="108.014mm" height="23.9885mm" version="1.1" style="shape-rendering:geometricPrecision; text-rendering:geometricPrecision; image-rendering:optimizeQuality; fill-rule:evenodd; clip-rule:evenodd"
viewBox="0 0 6401.65 1421.72"
 xmlns:xlink="http://www.w3.org/1999/xlink">
 <defs>
  <style type="text/css">
   <![CDATA[
    .fil0 {fill:#282829}
    .fil1 {fill:#282829;fill-rule:nonzero}
    .fil2 {fill:#282829;fill-rule:nonzero}
   ]]>
  </style>
 </defs>
 <g id="Layer_x0020_1">
  <metadata id="CorelCorpID_0Corel-Layer"/>
  <g id="_1795236661040">
   <g>
    <path class="fil0" d="M407.42 274.05l-1.18 0.69 -0.91 0.53 -0.26 0.15 -1.16 0.73 -0.28 0.17 -0.87 0.56 -1.14 0.75 -0.34 0.24 -1.92 1.36 -0.39 0.29 -0.7 0.53 -1.11 0.84 -0.44 0.36 -0.65 0.52 -1.07 0.87 -0.49 0.42 -0.58 0.5 -1.58 1.43 -0.52 0.44 -1.03 0.97 -0.58 0.57 -0.44 0.43 -1.62 1.67 -0.38 0.39 -0.97 1.07 -0.65 0.71 -0.31 0.36 -0.95 1.12 -0.69 0.81 -0.24 0.3 -0.92 1.15 -0.72 0.91 -0.19 0.26 -0.89 1.19 -0.75 1.01 -0.13 0.2 -0.86 1.23 -0.76 1.11 -0.09 0.15 -0.29 0.45 -1.32 2.05 -0.04 0.07 -0.79 1.32 -0.78 1.33 -347.32 869.98 5.11 1.67c56.48,18.38 122.16,17.91 137.84,-29.13l303.87 -764.28 -38.63 -33.97 0.17 -0.25 0 -0.01 0.15 -0.23 0.17 -0.24 0 -0.02 0.15 -0.21 0.17 -0.23 0.01 -0.01 0.16 -0.22 0.16 -0.23 0.02 -0.04 0.15 -0.18 0.16 -0.23 0.04 -0.02 0.14 -0.2 0.17 -0.21 0.03 -0.04 0.16 -0.17 0.17 -0.2 0.04 -0.05 0.14 -0.17 0.17 -0.2 0.05 -0.03 0.14 -0.16 0.17 -0.18 0.05 -0.04 0.13 -0.14 0.19 -0.18 0.04 -0.04 0.14 -0.12 0.18 -0.18 0.04 -0.04 0.15 -0.11 0.18 -0.17 0.05 -0.06 0.13 -0.09 0.18 -0.17 0.07 -0.04 0.12 -0.11 0.18 -0.15 0.07 -0.05 0.12 -0.09 0.18 -0.15 0.07 -0.06 0.14 -0.07 0.18 -0.14 0.08 -0.04 0.11 -0.08 0.18 -0.12 0.09 -0.05 0.09 -0.07 0.2 -0.11 0.09 -0.06 0.1 -0.06 0.19 -0.09 0.11 -0.06 0.08 -0.05 0.2 -0.09 0.11 -0.05 0.09 -0.04 0.19 -0.1 0.11 -0.05 0.09 -0.02 0.19 -0.1 0.12 -0.04 0.08 -0.03 0.19 -0.07 0.14 -0.04 0.07 -0.04 0.2 -0.07 0.12 -0.04 0.07 -0.02 0.2 -0.06 0.14 -0.02 0.07 -0.03 0.33 -0.07 0.06 -0.03 0.2 -0.03 0.14 -0.04 0.05 -0.01 0.2 -0.03 0.15 -0.03 0.04 0 0.03 0c102.59,13.39 48.27,-115.88 -39.26,-68.6z"/>
    <path id="1" class="fil1" d="M401.97 245.57l1.18 -0.69 8.55 58.34 -1.18 0.69 -8.58 -58.32 0.04 -0.02zm-0.04 0.02l0.04 -0.02 0.52 -0.31 -0.56 0.33zm-0.91 0.53l0.91 -0.53 8.62 58.29 -0.91 0.53 -8.64 -58.29 0.02 -0.01zm-0.02 0.01l0.02 -0.01 -1.71 1.01 1.7 -1zm-0.26 0.15l0.26 -0.15 8.65 58.28 -0.26 0.15 -8.9 -58.13 0.25 -0.15zm-0.25 0.15l0.19 -0.12 0.06 -0.04 -0.25 0.15zm-1.16 0.73l1.16 -0.73 9.15 57.97 -1.16 0.73 -0.16 0.1 -8.99 -58.08zm9.15 57.97l-0.16 0.1 -0.01 0.01 0.17 -0.11zm-9.28 -57.9l0.28 -0.17 8.83 58.18 -0.28 0.17 -9.1 -58.01 0.27 -0.17zm-0.27 0.17l0.12 -0.08 0.15 -0.09 -0.27 0.17zm-0.87 0.56l0.87 -0.56 9.36 57.84 -0.87 0.56 -9.42 -57.8 0.06 -0.04zm-0.06 0.04l0.06 -0.04 0.31 -0.2 -0.37 0.24zm-1.14 0.75l1.14 -0.75 9.48 57.76 -1.14 0.75 -9.91 -57.47 0.43 -0.29zm-0.43 0.29l0.18 -0.13 0.25 -0.16 -0.43 0.29zm-0.34 0.24l0.34 -0.24 10.34 57.18 -0.34 0.24 -0.08 0.05 -10.26 -57.23zm10.34 57.18l-0.08 0.05 0.17 -0.12 -0.09 0.07zm-12.18 -55.88l1.92 -1.36 10.18 57.29 -1.92 1.36 -10.41 -57.13 0.23 -0.16zm-0.23 0.16l0.02 -0.02 0.2 -0.14 -0.23 0.16zm-0.39 0.29l0.39 -0.29 10.63 56.97 -0.39 0.29 -10.7 -56.91 0.07 -0.06zm-0.07 0.06l0.07 -0.06 0.47 -0.36 -0.55 0.41zm-0.7 0.53l0.7 -0.53 10.77 56.85 -0.7 0.53 -10.78 -56.84 0.01 -0.01zm-1.12 0.85l1.11 -0.84 10.79 56.84 -1.11 0.84 -11.13 -56.57 0.34 -0.27zm-0.34 0.27l0.12 -0.1 0.22 -0.17 -0.34 0.27zm-0.44 0.36l0.44 -0.36 11.47 56.3 -0.44 0.36 -0.12 0.1 -11.36 -56.4zm11.47 56.3l-0.12 0.1 -0.23 0.18 0.35 -0.28zm-12.01 -55.89l0.65 -0.52 11.24 56.51 -0.65 0.52 -11.39 -56.37 0.15 -0.13zm-0.15 0.13l0.15 -0.13 0.18 -0.14 -0.33 0.27zm-1.07 0.87l1.07 -0.87 11.55 56.24 -1.07 0.87 -11.84 -56 0.3 -0.24zm-0.3 0.24l0.02 -0.02 0.28 -0.23 -0.3 0.24zm-0.49 0.42l0.49 -0.42 12.14 55.76 -0.49 0.42 -12.14 -55.75 0.01 -0.01zm-0.59 0.52l0.58 -0.5 12.15 55.73 -0.58 0.5 -12.36 -55.56 0.21 -0.18zm-0.21 0.18l0.21 -0.18 -0.27 0.23 0.06 -0.05zm-1.58 1.43l1.58 -1.43 12.56 55.38 -1.58 1.43 -0.24 0.21 -12.33 -55.59zm12.56 55.38l-0.08 0.07 -0.16 0.14 0.24 -0.21zm-12.84 -55.14l0.52 -0.44 12.09 55.79 -0.52 0.44 -12.55 -55.38 0.46 -0.41zm-0.46 0.41l0.2 -0.19 0.26 -0.23 -0.46 0.41zm-1.03 0.97l1.03 -0.97 13.02 54.96 -1.03 0.97 -13.28 -54.7 0.27 -0.26zm-0.27 0.26l0.27 -0.26 -0.07 0.07 -0.2 0.2zm-0.58 0.57l0.58 -0.57 13.55 54.44 -0.58 0.57 -0.09 0.09 -13.45 -54.54zm13.55 54.44l-0.09 0.09 -0.06 0.05 0.15 -0.15zm-13.89 -54.11l0.44 -0.43 13.36 54.63 -0.44 0.43 -13.65 -54.34 0.29 -0.29zm-0.29 0.29l0.15 -0.15 0.14 -0.14 -0.29 0.29zm-1.62 1.67l1.62 -1.67 13.94 54.05 -1.62 1.67 -0.06 0.06 -13.88 -54.11zm13.94 54.05l0.09 -0.09 -0.15 0.15 0.06 -0.06zm-14.26 -53.73l0.38 -0.39 13.82 54.17 -0.38 0.39 -14.25 -53.71 0.43 -0.46zm-0.43 0.46l0.21 -0.23 0.23 -0.23 -0.43 0.46zm-0.97 1.07l0.97 -1.07 14.69 53.26 -0.97 1.07 -0.03 0.04 -14.66 -53.29zm14.69 53.26l-0.03 0.04 -0.46 0.5 0.49 -0.53zm-15.31 -52.58l0.65 -0.71 14.63 53.33 -0.65 0.71 -15.04 -52.86 0.41 -0.47zm-0.41 0.47l0.27 -0.31 0.14 -0.15 -0.41 0.47zm-0.31 0.36l0.31 -0.36 15.44 52.39 -0.31 0.36 -15.49 -52.34 0.04 -0.05zm-0.04 0.05l0.04 -0.05 -0.2 0.23 0.15 -0.18zm-0.95 1.12l0.95 -1.12 15.53 52.3 -0.95 1.12 0 0 -15.53 -52.3zm-0.69 0.81l0.69 -0.81 15.53 52.3 -0.69 0.81 -15.71 -52.08 0.18 -0.22zm-0.18 0.22l0.06 -0.07 0.12 -0.15 -0.18 0.22zm-0.24 0.3l0.24 -0.3 15.9 51.86 -0.24 0.3 -16.01 -51.72 0.11 -0.14zm-0.11 0.14l0.2 -0.25 -0.09 0.11 -0.11 0.14zm-0.92 1.15l0.92 -1.15 16.12 51.57 -0.92 1.15 -16.22 -51.46 0.09 -0.12zm-0.09 0.12l0.09 -0.12 -0.07 0.08 -0.03 0.04zm-0.72 0.91l0.72 -0.91 16.31 51.34 -0.72 0.91 -16.8 -50.69 0.49 -0.65zm-0.49 0.65l0.22 -0.3 0.27 -0.35 -0.49 0.65zm-0.19 0.26l0.19 -0.26 17.29 50.04 -0.19 0.26 -0.22 0.3 -17.07 -50.34zm17.29 50.04l-0.22 0.3 0.1 -0.14 0.12 -0.16zm-17.97 -49.16l0.89 -1.19 16.86 50.64 -0.89 1.19 -17 -50.45 0.14 -0.19zm-0.14 0.19l0.04 -0.05 0.11 -0.14 -0.14 0.19zm-0.75 1.01l0.75 -1.01 17.14 50.26 -0.75 1.01 -17.73 -49.42 0.59 -0.84zm-0.59 0.84l0.32 -0.47 0.27 -0.37 -0.59 0.84zm-0.13 0.2l0.13 -0.2 18.31 48.58 -0.13 0.2 -0.26 0.39 -18.05 -48.96zm18.31 48.58l-0.17 0.25 -0.09 0.13 0.26 -0.39zm-18.91 -47.73l0.86 -1.23 17.79 49.35 -0.86 1.23 -17.85 -49.26 0.06 -0.09zm-0.06 0.09l0.06 -0.09 0.2 -0.28 -0.25 0.37zm-0.76 1.11l0.76 -1.11 17.91 49.17 -0.76 1.11 -18.72 -47.91 0.81 -1.26zm-0.81 1.26l0.39 -0.66 0.42 -0.6 -0.81 1.26zm-0.09 0.15l0.09 -0.15 19.53 46.64 -0.09 0.15 -0.41 0.67 -19.12 -47.31zm19.53 46.64l-0.23 0.38 -0.19 0.29 0.41 -0.67zm-19.41 -46.86l0.29 -0.45 18.7 47.98 -0.29 0.45 -18.73 -47.94 0.03 -0.04zm-0.03 0.04l0.03 -0.04 -0.62 0.97 0.59 -0.92zm-1.32 2.05l1.32 -2.05 18.76 47.9 -1.32 2.05 -19.69 -46.32 0.93 -1.58zm-0.93 1.58l0.46 -0.84 0.47 -0.73 -0.93 1.58zm-0.04 0.07l0.04 -0.07 20.62 44.75 -0.04 0.07 -0.55 0.96 -20.07 -45.71zm20.62 44.75l-0.25 0.46 -0.3 0.5 0.55 -0.96zm-20.87 -44.38l0.79 -1.32 19.52 46.67 -0.79 1.32 -19.64 -46.48 0.11 -0.18zm-0.11 0.18l0.11 -0.18 -0.23 0.37 0.11 -0.19zm-0.78 1.33l0.78 -1.33 19.75 46.3 -0.78 1.33 -21.79 -42.08 2.04 -4.22zm-2.04 4.22l0.93 -2.32 1.11 -1.9 -2.04 4.22zm-347.32 869.98l347.32 -869.98 23.84 37.86 -347.32 869.98 -14.37 11.07 -9.46 -48.92zm9.46 48.92l-25.66 -8.36 16.2 -40.57 9.46 48.92zm5.11 1.67l-5.11 -1.67 4.91 -59.99 5.11 1.67 -4.91 59.99zm128.36 -78.01l23.87 37.76 0.75 -2.06 -2.67 7.08 -3 6.34 -3.25 5.63 -3.48 5 -3.64 4.41 -3.81 3.91 -3.96 3.46 -4.1 3.05 -4.23 2.7 -4.36 2.38 -4.49 2.07 -4.61 1.8 -4.74 1.55 -4.85 1.3 -4.95 1.07 -5.06 0.85 -5.14 0.64 -5.24 0.44 -5.31 0.24 -5.38 0.06 -5.45 -0.12 -5.49 -0.3 -5.54 -0.46 -5.58 -0.62 -5.6 -0.78 -5.61 -0.94 -5.62 -1.07 -5.61 -1.21 -5.6 -1.35 -5.58 -1.48 -5.54 -1.61 -5.5 -1.72 4.91 -59.99 5.14 1.61 5.18 1.5 5.22 1.39 5.23 1.26 5.23 1.13 5.24 1 5.23 0.87 5.19 0.72 5.15 0.57 5.1 0.43 5.03 0.27 4.95 0.11 4.86 -0.05 4.75 -0.22 4.63 -0.39 4.52 -0.56 4.36 -0.73 4.2 -0.91 4.03 -1.07 3.83 -1.25 3.63 -1.42 3.4 -1.58 3.18 -1.72 2.9 -1.84 2.63 -1.96 2.34 -2.03 2.02 -2.07 1.71 -2.06 1.37 -1.97 1.08 -1.86 0.8 -1.67 0.55 -1.46 0.75 -2.06zm-0.75 2.06l0.34 -1.01 0.41 -1.04 -0.75 2.06zm328.5 -728.57l-303.87 764.28 -23.87 -37.76 303.87 -764.28 18.08 -8.93 5.79 46.69zm-5.79 -46.69l18.05 15.87 -12.26 30.82 -5.79 -46.69zm-38.63 -33.97l38.63 33.97 -12.29 55.62 -38.63 -33.97 -3.15 -51.89 15.44 -3.73zm-12.29 55.62l-23.49 -20.65 20.34 -31.23 3.15 51.89zm15.6 -3.98l-0.17 0.25 -18.59 -48.16 0.17 -0.25 24.53 24.08 -5.94 24.08zm5.94 -24.08l0 14.95 -5.94 9.13 5.94 -24.08zm0 -0.01l0 0.01 -30.48 0 0 -0.01 6.08 -24.29 24.39 24.29zm-30.48 0l0 -15.17 6.08 -9.12 -6.08 24.29zm24.55 24.06l-0.15 0.23 -18.31 -48.58 0.15 -0.23 0.14 -0.21 18.17 48.79zm-18.31 -48.58l0.14 -0.21 0 0 -0.14 0.21zm18.34 48.55l-0.17 0.24 -18.03 -49 0.17 -0.24 24.25 24.5 -6.22 24.5zm6.22 -24.5l0 15.39 -6.22 9.11 6.22 -24.5zm0 -0.02l0 0.02 -30.48 0 0 -0.02 6.55 -24.96 23.93 24.96zm-30.48 0l0 -15.9 6.55 -9.07 -6.55 24.96zm24.08 24.75l-0.15 0.21 -17.38 -49.93 0.15 -0.21 0.17 -0.24 17.21 50.16zm-17.38 -49.93l0.15 -0.21 0.02 -0.03 -0.17 0.24zm17.38 49.93l-0.17 0.23 -17.03 -50.4 0.17 -0.23 1.69 -1.97 15.34 52.37zm-17.03 -50.4l0.81 -1.08 0.88 -0.88 -1.69 1.97zm15.36 52.36l-0.01 0.01 -13.66 -54.34 0.01 -0.01 15.46 52.21 -1.8 2.12zm1.8 -2.12l-0.87 1.19 -0.94 0.94 1.8 -2.12zm0.16 -0.22l-0.16 0.22 -17.26 -50.09 0.16 -0.22 17.41 49.88 -0.15 0.21zm0.15 -0.21l-0.06 0.08 -0.09 0.13 0.15 -0.21zm0.16 -0.23l-0.16 0.23 -17.57 -49.67 0.16 -0.23 19.57 46.29 -2 3.37zm2 -3.37l-0.93 1.87 -1.07 1.51 2 -3.37zm0.02 -0.04l-0.02 0.04 -21.57 -42.92 0.02 -0.04 3.16 -4.85 18.41 47.77zm-21.57 -42.92l1.42 -2.84 1.74 -2 -3.16 4.85zm18.57 47.59l-0.15 0.18 -15.26 -52.62 0.15 -0.18 16.41 51.14 -1.16 1.48zm1.16 -1.48l-0.56 0.79 -0.59 0.69 1.16 -1.48zm0.16 -0.23l-0.16 0.23 -17.57 -49.67 0.16 -0.23 5.08 -4.65 12.49 54.31zm-17.57 -49.67l2.32 -3.27 2.76 -1.38 -5.08 4.65zm12.52 54.29l-0.04 0.02 -7.41 -58.96 0.04 -0.02 12.6 54.15 -5.19 4.81zm5.19 -4.81l-2.36 3.4 -2.83 1.41 5.19 -4.81zm0.14 -0.2l-0.14 0.2 -17.79 -49.35 0.14 -0.2 0.64 -0.87 17.15 50.22zm-17.79 -49.35l0.33 -0.46 0.31 -0.41 -0.64 0.87zm17.32 50l-0.17 0.21 -16.51 -51.09 0.17 -0.21 0.4 -0.5 16.11 51.59zm-16.51 -51.09l0.17 -0.21 0.24 -0.28 -0.4 0.5zm16.14 51.55l-0.03 0.04 -15.71 -52.08 0.03 -0.04 0.82 -0.92 14.88 53.01zm-15.71 -52.08l0.43 -0.52 0.39 -0.41 -0.82 0.92zm15.04 52.84l-0.16 0.17 -14.06 -53.93 0.16 -0.17 14.95 52.93 -0.89 1.01zm0.89 -1.01l-0.45 0.55 -0.44 0.46 0.89 -1.01zm0.17 -0.2l-0.17 0.2 -15.85 -51.92 0.17 -0.2 16.39 51.22 -0.55 0.69zm0.55 -0.69l-0.26 0.35 -0.28 0.34 0.55 -0.69zm0.04 -0.05l-0.04 0.05 -16.94 -50.53 0.04 -0.05 0.78 -0.97 16.16 51.5zm-16.94 -50.53l0.36 -0.48 0.41 -0.49 -0.78 0.97zm16.3 51.33l-0.14 0.17 -15.39 -52.46 0.14 -0.17 15.44 52.4 -0.06 0.07zm0.06 -0.07l-0.06 0.07 0.39 -0.46 -0.33 0.39zm0.17 -0.2l-0.17 0.2 -15.5 -52.33 0.17 -0.2 3.19 -2.83 12.31 55.17zm-15.5 -52.33l1.51 -1.78 1.68 -1.05 -3.19 2.83zm12.36 55.14l-0.05 0.03 -9.12 -58 0.05 -0.03 12.04 55.47 -2.93 2.53zm2.93 -2.53l-1.4 1.58 -1.52 0.95 2.93 -2.53zm0.14 -0.16l-0.14 0.16 -14.97 -52.94 0.14 -0.16 0.29 -0.32 14.68 53.26zm-14.97 -52.94l0.17 -0.2 0.12 -0.12 -0.29 0.32zm14.85 53.07l-0.17 0.18 -14.39 -53.58 0.17 -0.18 1.83 -1.66 12.56 55.24zm-14.39 -53.58l0.89 -0.96 0.94 -0.7 -1.83 1.66zm12.61 55.2l-0.05 0.04 -10.73 -56.9 0.05 -0.04 12.68 55.11 -1.95 1.78zm1.95 -1.78l-0.94 1.03 -1.01 0.75 1.95 -1.78zm0.13 -0.14l-0.13 0.14 -14.63 -53.33 0.13 -0.14 0.66 -0.68 13.97 54zm-14.63 -53.33l0.31 -0.34 0.34 -0.33 -0.66 0.68zm14.16 53.82l-0.19 0.18 -13.31 -54.68 0.19 -0.18 13.48 54.51 -0.17 0.17zm0.17 -0.17l-0.17 0.17 0 0 0.17 -0.17zm0.04 -0.04l-0.04 0.04 -13.66 -54.34 0.04 -0.04 0.74 -0.69 12.91 55.03zm-13.66 -54.34l0.38 -0.38 0.36 -0.31 -0.74 0.69zm13.05 54.91l-0.14 0.12 -12.17 -55.72 0.14 -0.12 12.91 55.03 -0.74 0.69zm0.74 -0.69l-0.38 0.38 -0.36 0.31 0.74 -0.69zm0.18 -0.18l-0.18 0.18 -13.66 -54.34 0.18 -0.18 14.52 53.4 -0.87 0.94zm0.87 -0.94l-0.43 0.5 -0.44 0.44 0.87 -0.94zm0.04 -0.04l-0.04 0.04 -15.39 -52.46 0.04 -0.04 2.52 -2.35 12.87 54.82zm-15.39 -52.46l1.21 -1.41 1.31 -0.94 -2.52 2.35zm13.02 54.71l-0.15 0.11 -10.35 -57.17 0.15 -0.11 11.82 55.93 -1.47 1.24zm1.47 -1.24l-0.73 0.71 -0.74 0.53 1.47 -1.24zm0.18 -0.17l-0.18 0.17 -13.29 -54.69 0.18 -0.17 14.06 53.9 -0.77 0.79zm0.77 -0.79l-0.34 0.38 -0.43 0.41 0.77 -0.79zm0.05 -0.06l-0.05 0.06 -14.83 -53.1 0.05 -0.06 2.48 -2.2 12.35 55.31zm-14.83 -53.1l1.19 -1.32 1.29 -0.88 -2.48 2.2zm12.48 55.22l-0.13 0.09 -9.86 -57.51 0.13 -0.09 11.57 56.1 -1.71 1.41zm1.71 -1.41l-0.85 0.82 -0.86 0.59 1.71 -1.41zm0.18 -0.17l-0.18 0.17 -13.29 -54.69 0.18 -0.17 2.36 -1.83 10.92 56.52zm-13.29 -54.69l1.16 -1.13 1.2 -0.7 -2.36 1.83zm10.99 56.48l-0.07 0.04 -8.56 -58.34 0.07 -0.04 10.29 57.09 -1.74 1.25zm1.74 -1.25l-0.87 0.74 -0.87 0.51 1.74 -1.25zm0.12 -0.11l-0.12 0.11 -12.03 -55.84 0.12 -0.11 0.3 -0.25 11.73 56.1zm-12.03 -55.84l0.22 -0.19 0.08 -0.07 -0.3 0.25zm11.91 55.95l-0.18 0.15 -11.43 -56.35 0.18 -0.15 0.88 -0.65 10.54 57zm-11.43 -56.35l0.41 -0.33 0.47 -0.31 -0.88 0.65zm10.61 56.95l-0.07 0.05 -9.66 -57.64 0.07 -0.05 9.97 57.44 -0.31 0.21zm0.31 -0.21l-0.04 0.03 -0.27 0.18 0.31 -0.21zm0.12 -0.09l-0.12 0.09 -10.28 -57.23 0.12 -0.09 11.01 56.65 -0.73 0.57zm0.73 -0.57l-0.42 0.35 -0.31 0.23 0.73 -0.57zm0.18 -0.15l-0.18 0.15 -11.75 -56.08 0.18 -0.15 0 0 11.75 56.08zm0.07 -0.06l-0.07 0.06 -11.75 -56.08 0.07 -0.06 2.02 -1.36 9.73 57.44zm-11.75 -56.08l1 -0.84 1.01 -0.53 -2.02 1.36zm9.87 57.37l-0.14 0.07 -7.72 -58.8 0.14 -0.07 9.32 57.77 -1.61 1.04zm1.61 -1.04l-0.81 0.62 -0.79 0.41 1.61 -1.04zm0.18 -0.14l-0.18 0.14 -10.93 -56.73 0.18 -0.14 1.76 -1.11 9.17 57.84zm-10.93 -56.73l0.88 -0.68 0.88 -0.44 -1.76 1.11zm9.25 57.8l-0.08 0.04 -7.41 -58.96 0.08 -0.04 8.98 57.99 -1.58 0.97zm1.58 -0.97l-0.78 0.57 -0.8 0.4 1.58 -0.97zm0.11 -0.08l-0.11 0.08 -10.56 -57.01 0.11 -0.08 0.38 -0.27 10.18 57.28zm-10.56 -57.01l0.17 -0.12 0.21 -0.15 -0.38 0.27zm10.37 57.16l-0.18 0.12 -9.8 -57.55 0.18 -0.12 0.76 -0.47 9.04 58.02zm-9.8 -57.55l0.39 -0.26 0.38 -0.21 -0.76 0.47zm9.13 57.97l-0.09 0.05 -8.27 -58.5 0.09 -0.05 9.39 57.77 -1.12 0.72zm1.12 -0.72l-0.55 0.4 -0.57 0.33 1.12 -0.72zm0.09 -0.07l-0.09 0.07 -10.51 -57.05 0.09 -0.07 1.14 -0.74 9.37 57.79zm-10.51 -57.05l0.58 -0.43 0.56 -0.31 -1.14 0.74zm9.57 57.68l-0.2 0.11 -8.23 -58.53 0.2 -0.11 8.67 58.27 -0.44 0.27zm0.44 -0.27l-0.28 0.17 -0.17 0.09 0.44 -0.27zm0.09 -0.06l-0.09 0.06 -9.12 -58 0.09 -0.06 0.25 -0.15 8.87 58.15zm-9.12 -58l0.05 -0.03 0.2 -0.12 -0.25 0.15zm8.97 58.09l-0.1 0.06 -8.62 -58.29 0.1 -0.06 0.82 -0.44 7.79 58.73zm-8.62 -58.29l0.44 -0.26 0.39 -0.18 -0.82 0.44zm7.98 58.64l-0.19 0.09 -6.97 -59.17 0.19 -0.09 7.57 58.86 -0.6 0.31zm0.6 -0.31l-0.28 0.16 -0.32 0.15 0.6 -0.31zm0.11 -0.06l-0.11 0.06 -8.18 -58.56 0.11 -0.06 8.58 58.32 -0.4 0.24zm0.4 -0.24l-0.22 0.14 -0.18 0.1 0.4 -0.24zm0.08 -0.05l-0.08 0.05 -8.98 -58.08 0.08 -0.05 1 -0.54 7.99 58.62zm-8.98 -58.08l0.49 -0.3 0.51 -0.24 -1 0.54zm8.19 58.53l-0.2 0.09 -6.99 -59.16 0.2 -0.09 0.18 -0.08 6.81 59.24zm-6.99 -59.16l0.18 -0.08 -0.13 0.06 -0.05 0.02zm6.92 59.2l-0.11 0.05 -6.63 -59.33 0.11 -0.05 6.79 59.26 -0.16 0.07zm0.16 -0.07l0 0 -0.16 0.07 0.16 -0.07zm0.09 -0.04l-0.09 0.04 -6.95 -59.18 0.09 -0.04 7.4 58.96 -0.45 0.23zm0.45 -0.23l-0.23 0.12 -0.22 0.1 0.45 -0.23zm0.19 -0.1l-0.19 0.1 -7.85 -58.73 0.19 -0.1 0.61 -0.3 7.24 59.03zm-7.85 -58.73l0.29 -0.15 0.32 -0.14 -0.61 0.3zm7.34 58.98l-0.11 0.05 -6.63 -59.33 0.11 -0.05 1.8 -0.57 4.83 59.9zm-6.63 -59.33l0.88 -0.39 0.91 -0.18 -1.8 0.57zm4.92 59.88l-0.09 0.02 -3.03 -60.48 0.09 -0.02 5.44 59.6 -2.41 0.87zm2.41 -0.87l-1.18 0.63 -1.23 0.24 2.41 -0.87zm0.19 -0.1l-0.19 0.1 -7.85 -58.73 0.19 -0.1 1.29 -0.57 6.55 59.3zm-7.85 -58.73l0.65 -0.34 0.65 -0.23 -1.29 0.57zm6.67 59.26l-0.12 0.04 -5.26 -59.87 0.12 -0.04 5.32 59.85 -0.05 0.02zm0.05 -0.02l-0.05 0.02 0.18 -0.07 -0.12 0.05zm0.08 -0.03l-0.08 0.03 -5.37 -59.84 0.08 -0.03 5.5 59.78 -0.13 0.05zm0.13 -0.05l-0.13 0.05 -0.25 0.09 0.38 -0.14zm0.19 -0.07l-0.19 0.07 -5.63 -59.73 0.19 -0.07 0.52 -0.18 5.11 59.91zm-5.63 -59.73l0.3 -0.11 0.22 -0.07 -0.52 0.18zm5.25 59.87l-0.14 0.04 -4.6 -60.08 0.14 -0.04 6.93 58.99 -2.33 1.09zm2.33 -1.09l-1.15 0.73 -1.18 0.36 2.33 -1.09zm0.07 -0.04l-0.07 0.04 -9.26 -57.9 0.07 -0.04 2.19 -1.05 7.07 58.95zm-9.26 -57.9l1.09 -0.69 1.1 -0.36 -2.19 1.05zm7.27 58.89l-0.2 0.07 -4.88 -60 0.2 -0.07 0.18 -0.05 4.71 60.06zm-4.88 -60l0 0 0.18 -0.05 -0.18 0.05zm4.82 60.02l-0.12 0.04 -4.53 -60.11 0.12 -0.04 4.78 60.03 -0.25 0.08zm0.25 -0.08l-0.07 0.02 -0.18 0.05 0.25 -0.08zm0.07 -0.02l-0.07 0.02 -5.03 -59.95 0.07 -0.02 0.23 -0.07 4.8 60.03zm-5.03 -59.95l0.23 -0.07 -0.13 0.04 -0.09 0.03zm5 59.97l-0.2 0.06 -4.58 -60.1 0.2 -0.06 1.02 -0.24 3.56 60.33zm-4.58 -60.1l0.49 -0.15 0.53 -0.09 -1.02 0.24zm3.7 60.31l-0.14 0.02 -2.54 -60.57 0.14 -0.02 4.39 60.03 -1.85 0.54zm1.85 -0.54l-0.92 0.39 -0.92 0.15 1.85 -0.54zm0.07 -0.03l-0.07 0.03 -6.23 -59.49 0.07 -0.03 1.46 -0.46 4.78 59.95zm-6.23 -59.49l0.73 -0.3 0.73 -0.16 -1.46 0.46zm5.1 59.88l-0.33 0.07 -3.32 -60.42 0.33 -0.07 5.36 59.69 -2.04 0.73zm2.04 -0.73l-1 0.5 -1.04 0.23 2.04 -0.73zm0.06 -0.03l-0.06 0.03 -7.41 -58.96 0.06 -0.03 2.58 -0.83 4.82 59.79zm-7.41 -58.96l1.27 -0.64 1.31 -0.19 -2.58 0.83zm5.03 59.76l-0.2 0.03 -2.24 -60.62 0.2 -0.03 3.02 60.46 -0.78 0.15zm0.78 -0.15l-0.39 0.09 -0.39 0.06 0.78 -0.15zm0.14 -0.04l-0.14 0.04 -3.79 -60.31 0.14 -0.04 0 0 3.79 60.31zm0.05 -0.01l-0.05 0.01 -3.79 -60.31 0.05 -0.01 0.78 -0.15 3.02 60.46zm-3.79 -60.31l0.39 -0.09 0.39 -0.06 -0.78 0.15zm3.22 60.43l-0.2 0.03 -2.24 -60.62 0.2 -0.03 2.58 60.56 -0.34 0.06zm0.34 -0.06l-0.2 0.04 -0.15 0.02 0.34 -0.06zm0.15 -0.03l-0.15 0.03 -2.93 -60.5 0.15 -0.03 1.46 -0.14 1.46 60.64zm-2.93 -60.5l0.74 -0.14 0.72 0 -1.46 0.14zm1.5 60.64l-0.04 0 0 -60.78 0.04 0 0 0 0 60.78zm0.03 0l-0.03 0 0 -60.78 0.03 0 1 0.07 -1 60.72zm0 -60.78l0.5 0 0.5 0.07 -1 -0.07zm-34.99 -9.04l-8.55 -58.34 0.29 -0.16 8.87 -4.3 8.68 -3.25 8.45 -2.25 8.19 -1.29 7.91 -0.42 7.62 0.41 7.3 1.19 6.95 1.91 6.6 2.58 6.23 3.22 5.86 3.81 5.46 4.4 5.07 4.98 4.66 5.59 4.27 6.3 3.86 7.17 3.38 8.32 2.74 9.8 1.76 11.49 0.27 12.88 -1.56 12.83 -3.15 11.21 -4.18 8.93 -4.78 6.82 -5.22 5.24 -5.67 4.05 -6.21 3.12 -6.8 2.28 -7.46 1.49 -8.18 0.72 -8.95 -0.08 -9.76 -0.9 1.99 -60.65 8.57 0.79 7.57 0.07 6.61 -0.58 5.62 -1.13 4.63 -1.54 3.6 -1.8 2.57 -1.83 1.51 -1.49 0.47 -0.65 -0.37 0.83 -0.73 2.62 -0.47 3.85 0.06 3.63 0.3 2.09 0.09 0.37 -0.44 -1.05 -1.07 -1.99 -1.74 -2.54 -2.36 -2.82 -2.93 -2.88 -3.47 -2.79 -3.97 -2.59 -4.44 -2.29 -4.87 -1.91 -5.26 -1.45 -5.62 -0.92 -5.97 -0.32 -6.29 0.33 -6.58 1.04 -6.85 1.82 -7.09 2.66 -7.33 3.54 0.29 -0.16zm-8.55 -58.34l0.07 -0.04 0.22 -0.12 -0.29 0.16z"/>
   </g>
   <path class="fil0" d="M353.23 313.03c42.28,-14.95 44.65,14.38 66.88,65.46l308.18 757.21c38.67,91.45 114.45,97.61 180.33,64.23l-369.84 -909.78c-44.98,-101.04 -170.65,-83.52 -185.55,22.88z"/>
  </g>
  <path class="fil0" d="M3410.89 709.99l-0.14 -0.43 -1.11 -3.2 -0.1 -0.34 -0.64 -1.74 -0.16 -0.45 -0.48 -1.27 -0.65 -1.75 -0.63 -1.59 -0.05 -0.14 -0.68 -1.71 -0.68 -1.66 -0.01 -0.04 -0.7 -1.68 -0.73 -1.67 -0.02 -0.07 -0.71 -1.61 -0.75 -1.64 -0.07 -0.16 -0.31 -0.68 -1.14 -2.43 -0.12 -0.23 -0.68 -1.39 -0.8 -1.59 -0.62 -1.24 -0.18 -0.37 -0.84 -1.56 -0.19 -0.37 -0.65 -1.18 -0.84 -1.54 -0.25 -0.44 -1.48 -2.57 -0.32 -0.53 -0.57 -0.94 -0.89 -1.48 -0.38 -0.6 -0.54 -0.86 -0.91 -1.42 -0.44 -0.64 -0.51 -0.76 -1.45 -2.1 -0.44 -0.68 -0.97 -1.36 -0.56 -0.77 -0.41 -0.56 -1.64 -2.12 -0.38 -0.49 -1.01 -1.27 -0.69 -0.85 -0.35 -0.39 -1.05 -1.23 -0.75 -0.88 -0.29 -0.32 -0.15 -0.36 -0.84 -0.91 -0.23 -0.24 -1.09 -1.15 -0.92 -0.94 -0.17 -0.17 -1.11 -1.08 -1 -0.95 -0.12 -0.11 -0.39 -0.35 -1.83 -1.65 -0.06 -0.05 -1.23 -0.58 -1.35 -0.82 -451.72 -168c-25.98,84.09 -18.14,138.97 52.42,170.33l410.03 147.68 -11.44 -8.5 0.24 0.21 0 0 0.21 0.2 0.21 0.21 0.02 0.01 0.19 0.19 0.21 0.21 0.01 0.02 0.2 0.18 0.21 0.23 0.02 0.01 0.18 0.21 0.2 0.19 0.02 0.06 0.17 0.17 0.21 0.22 0.04 0.04 0.15 0.2 0.19 0.22 0.05 0.05 0.15 0.18 0.18 0.22 0.03 0.05 0.15 0.17 0.18 0.24 0.04 0.07 0.14 0.18 0.19 0.24 0.05 0.04 0.11 0.18 0.18 0.24 0.04 0.05 0.12 0.18 0.17 0.24 0.05 0.08 0.11 0.17 0.17 0.23 0.04 0.09 0.12 0.18 0.14 0.24 0.07 0.09 0.1 0.16 0.14 0.24 0.07 0.1 0.08 0.17 0.14 0.24 0.07 0.12 0.09 0.15 0.12 0.25 0.07 0.14 0.08 0.12 0.12 0.27 0.07 0.13 0.08 0.13 0.1 0.26 0.08 0.14 0.05 0.11 0.12 0.28 0.08 0.15 0.04 0.11 0.13 0.27 0.05 0.15 0.05 0.12 0.12 0.25 0.05 0.17 0.05 0.11 0.11 0.27 0.07 0.18 0.04 0.09 0.11 0.28 0.05 0.17 0.03 0.1 0.09 0.27 0.07 0.2 34.3 -87.21z"/>
  <path class="fil0" d="M3365.3 642.28c20.73,45.62 8.77,37.61 -22.89,79.89l-507.76 553.22 -3.14 8.75c-0.04,-406.07 0.01,-831.14 -0.18,-1284.13 -49.38,3.03 -151.3,10.88 -151.3,128.48l0.12 1098.86c-0.34,5.49 0.52,6.72 0.59,11.54 -0.71,136.24 85.53,222.48 211.4,164.51 27.65,-17.5 54.98,-47.38 77,-66.56l440.71 -505.75c68.04,-62.51 33.31,-167.81 -44.55,-188.81z"/>
  <path class="fil2" d="M1405.02 342.94l-237.59 0 0 362.01 232.19 0c53.77,0 94.38,-16.2 121.38,-48.84 27.23,-34.98 40.85,-78.88 40.85,-132.17 0,-53.29 -13.61,-96.49 -40.85,-130.06 -25.12,-34.04 -63.86,-50.95 -115.98,-50.95zm-237.59 484.56l-1.08 280.45c-4.63,90.99 -50.56,116.64 -131,111.19l1.08 -998.75 370.7 0c95.09,0 166.46,29.58 213.88,88.74 47.42,59.16 71.37,129.36 71.84,211.06 -0.47,81.7 -20.9,150.48 -61.51,207.07 -40.61,56.34 -103.53,88.04 -188.28,95.55l259.65 368.11c-67.68,46.38 -133.65,42.93 -185.13,-34.85l-225.71 -328.57 -124.43 0z"/>
  <path class="fil2" d="M1813.53 342.94c-0.4,-78.88 32.44,-121.92 106.25,-122.55l616.36 0c-1.19,83.56 -42.44,121.44 -118.9,122.55l-176.91 0 0.63 875.38c-78.9,-0.53 -126.6,-16.92 -131,-116.26l-0.63 -759.11 -295.81 0z"/>
  <path class="fil2" d="M3592.39 1214.42l0 -994.03 573.3 0c-0.94,84.48 -20.93,122.43 -97.39,121.7l-344.91 0.85 0 309.89 270.98 0.01c83,1.62 114.57,41.46 114.98,122.54l-385.96 0 0 316.5 456.39 0c-0.6,75.77 -25.18,121.79 -119.61,122.55l-467.78 0z"/>
  <path class="fil2" d="M4980.49 1127.08l-63.77 -181.26 -411.78 0 -66.99 188.78c-27.96,82.65 -76.48,97.55 -166.37,71.99l325.91 -873.29c29.81,-87.83 81.32,-128.56 183.77,-112.9l367.42 986.2c-85.14,25.25 -141.35,5.27 -168.19,-79.51zm-269.18 -732.02l-161.05 431.03 321.16 0 -160.11 -431.03z"/>
  <path class="fil2" d="M5481.15 216.94l340.16 715.97 342.52 -712.52c71.56,-18.98 119.41,-7.39 129.66,81.6l108.16 912.43c-90.65,14.93 -129.05,-7.92 -141.55,-101.99l-76.54 -651.18 -303.32 622.37c-62.94,19.51 -116.79,5.36 -152.54,-75.51l-33.81 -68.95 -234.35 -477.9 -73.48 626.08c-5.7,103.37 -52.15,150.72 -144.62,127.08l108.49 -902.99c9.65,-74.5 53.61,-105.7 131.23,-94.49z"/>
 </g>
</svg>
