<?xml version="1.0" encoding="UTF-8"?>
<!DOCTYPE svg PUBLIC "-//W3C//DTD SVG 1.1//EN" "http://www.w3.org/Graphics/SVG/1.1/DTD/svg11.dtd">
<!-- Creator: CorelDRAW 2018 (64-Bit Evaluation Version) -->
<svg xmlns="http://www.w3.org/2000/svg" xml:space="preserve" width="108.014mm" height="23.9885mm" version="1.1" style="shape-rendering:geometricPrecision; text-rendering:geometricPrecision; image-rendering:optimizeQuality; fill-rule:evenodd; clip-rule:evenodd"
viewBox="0 0 6117.45 1358.61"
 xmlns:xlink="http://www.w3.org/1999/xlink">
 <defs>
  <style type="text/css">
   <![CDATA[
    .fil2 {fill:#F0805F}
    .fil0 {fill:#282829}
    .fil1 {fill:#282829;fill-rule:nonzero}
   ]]>
  </style>
 </defs>
 <g id="Layer_x0020_1">
  <metadata id="CorelCorpID_0Corel-Layer"/>
  <g id="_1794934992752">
   <g>
    <path class="fil0" d="M389.33 261.88l-1.13 0.66 -0.87 0.51 -0.25 0.15 -1.11 0.7 -0.27 0.16 -0.83 0.53 -1.09 0.71 -0.32 0.23 -1.83 1.3 -0.37 0.28 -0.67 0.5 -1.06 0.8 -0.42 0.34 -0.62 0.49 -1.02 0.83 -0.46 0.4 -0.56 0.48 -1.51 1.36 -0.49 0.42 -0.98 0.92 -0.56 0.55 -0.42 0.41 -1.55 1.59 -0.36 0.37 -0.93 1.02 -0.62 0.68 -0.29 0.35 -0.91 1.07 -0.66 0.78 -0.23 0.28 -0.88 1.1 -0.69 0.87 -0.18 0.25 -0.86 1.13 -0.71 0.97 -0.12 0.19 -0.82 1.18 -0.73 1.06 -0.08 0.14 -0.28 0.43 -1.26 1.96 -0.03 0.06 -0.76 1.26 -0.75 1.27 -331.9 831.36 4.89 1.59c53.97,17.57 116.74,17.12 131.72,-27.84l290.38 -730.35 -36.92 -32.46 0.16 -0.24 0 -0.01 0.15 -0.22 0.16 -0.23 0 -0.02 0.15 -0.2 0.16 -0.22 0.01 -0.01 0.15 -0.21 0.15 -0.22 0.02 -0.03 0.15 -0.17 0.15 -0.22 0.03 -0.02 0.13 -0.19 0.16 -0.2 0.03 -0.03 0.15 -0.16 0.16 -0.19 0.03 -0.05 0.14 -0.16 0.16 -0.19 0.05 -0.03 0.14 -0.15 0.16 -0.18 0.05 -0.03 0.12 -0.14 0.18 -0.18 0.04 -0.04 0.13 -0.11 0.18 -0.18 0.03 -0.04 0.14 -0.1 0.17 -0.16 0.05 -0.06 0.12 -0.08 0.17 -0.16 0.07 -0.04 0.12 -0.1 0.18 -0.14 0.07 -0.05 0.12 -0.08 0.17 -0.14 0.07 -0.06 0.13 -0.07 0.17 -0.13 0.08 -0.04 0.11 -0.08 0.18 -0.12 0.09 -0.05 0.08 -0.06 0.19 -0.11 0.09 -0.06 0.1 -0.06 0.18 -0.08 0.1 -0.06 0.07 -0.05 0.19 -0.09 0.1 -0.05 0.08 -0.04 0.18 -0.1 0.1 -0.05 0.08 -0.02 0.18 -0.1 0.11 -0.04 0.08 -0.03 0.18 -0.07 0.13 -0.04 0.06 -0.04 0.19 -0.06 0.11 -0.03 0.07 -0.02 0.19 -0.06 0.14 -0.02 0.07 -0.03 0.31 -0.07 0.06 -0.03 0.19 -0.03 0.14 -0.03 0.05 -0.01 0.19 -0.03 0.15 -0.03 0.03 0 0.03 0c98.04,12.8 46.12,-110.74 -37.52,-65.56z"/>
    <path id="1" class="fil1" d="M384.12 234.66l1.13 -0.66 8.17 55.75 -1.13 0.66 -8.2 -55.73 0.03 -0.02zm-0.03 0.02l0.03 -0.02 0.5 -0.29 -0.53 0.32zm-0.87 0.51l0.87 -0.51 8.23 55.71 -0.87 0.51 -8.25 -55.7 0.02 -0.01zm-0.02 0.01l0.02 -0.01 -1.64 0.96 1.62 -0.96zm-0.25 0.15l0.25 -0.15 8.27 55.7 -0.25 0.15 -8.51 -55.55 0.24 -0.15zm-0.24 0.15l0.18 -0.11 0.06 -0.03 -0.24 0.15zm-1.11 0.7l1.11 -0.7 8.74 55.4 -1.11 0.7 -0.15 0.1 -8.59 -55.5zm8.74 55.4l-0.15 0.1 -0.01 0.01 0.16 -0.1zm-8.86 -55.33l0.27 -0.16 8.44 55.59 -0.27 0.16 -8.69 -55.44 0.25 -0.16zm-0.25 0.16l0.11 -0.07 0.14 -0.08 -0.25 0.16zm-0.83 0.53l0.83 -0.53 8.95 55.28 -0.83 0.53 -9.01 -55.24 0.06 -0.04zm-0.06 0.04l0.06 -0.04 0.29 -0.19 -0.35 0.23zm-1.09 0.71l1.09 -0.71 9.06 55.2 -1.09 0.71 -9.47 -54.92 0.41 -0.28zm-0.41 0.28l0.17 -0.12 0.24 -0.15 -0.41 0.28zm-0.32 0.23l0.32 -0.23 9.88 54.64 -0.32 0.23 -0.07 0.05 -9.8 -54.69zm9.88 54.64l-0.07 0.05 0.16 -0.11 -0.08 0.06zm-11.64 -53.4l1.83 -1.3 9.73 54.74 -1.83 1.3 -9.95 -54.59 0.22 -0.15zm-0.22 0.15l0.02 -0.02 0.19 -0.14 -0.22 0.15zm-0.37 0.28l0.37 -0.28 10.16 54.44 -0.37 0.28 -10.23 -54.38 0.07 -0.06zm-0.07 0.06l0.07 -0.06 0.45 -0.34 -0.52 0.4zm-0.67 0.5l0.67 -0.5 10.3 54.33 -0.67 0.5 -10.3 -54.32 0.01 -0.01zm-1.07 0.81l1.06 -0.8 10.31 54.31 -1.06 0.8 -10.64 -54.06 0.33 -0.25zm-0.33 0.25l0.12 -0.1 0.21 -0.16 -0.33 0.25zm-0.42 0.34l0.42 -0.34 10.96 53.8 -0.42 0.34 -0.11 0.1 -10.85 -53.9zm10.96 53.8l-0.11 0.1 -0.22 0.18 0.33 -0.27zm-11.47 -53.41l0.62 -0.49 10.74 54 -0.62 0.49 -10.89 -53.87 0.15 -0.12zm-0.15 0.12l0.15 -0.12 0.17 -0.14 -0.32 0.26zm-1.02 0.83l1.02 -0.83 11.03 53.75 -1.02 0.83 -11.32 -53.52 0.28 -0.23zm-0.28 0.23l0.02 -0.02 0.27 -0.22 -0.28 0.23zm-0.46 0.4l0.46 -0.4 11.6 53.28 -0.46 0.4 -11.6 -53.27 0.01 -0.01zm-0.56 0.49l0.56 -0.48 11.61 53.26 -0.56 0.48 -11.81 -53.09 0.2 -0.17zm-0.2 0.17l0.2 -0.17 -0.25 0.22 0.06 -0.05zm-1.51 1.36l1.51 -1.36 12.01 52.92 -1.51 1.36 -0.23 0.2 -11.78 -53.12zm12.01 52.92l-0.07 0.07 -0.15 0.13 0.23 -0.2zm-12.27 -52.69l0.49 -0.42 11.55 53.32 -0.49 0.42 -12 -52.92 0.44 -0.4zm-0.44 0.4l0.19 -0.18 0.25 -0.22 -0.44 0.4zm-0.98 0.92l0.98 -0.92 12.44 52.52 -0.98 0.92 -12.69 -52.27 0.25 -0.25zm-0.25 0.25l0.25 -0.25 -0.06 0.06 -0.19 0.19zm-0.56 0.55l0.56 -0.55 12.95 52.03 -0.56 0.55 -0.09 0.09 -12.86 -52.12zm12.95 52.03l-0.09 0.09 -0.06 0.05 0.15 -0.14zm-13.28 -51.71l0.42 -0.41 12.77 52.21 -0.42 0.41 -13.04 -51.93 0.28 -0.28zm-0.28 0.28l0.14 -0.15 0.14 -0.13 -0.28 0.28zm-1.55 1.59l1.55 -1.59 13.32 51.65 -1.55 1.59 -0.06 0.06 -13.26 -51.71zm13.32 51.65l0.09 -0.09 -0.15 0.15 0.06 -0.06zm-13.63 -51.34l0.36 -0.37 13.21 51.77 -0.36 0.37 -13.62 -51.33 0.41 -0.44zm-0.41 0.44l0.2 -0.22 0.22 -0.22 -0.41 0.44zm-0.93 1.02l0.93 -1.02 14.03 50.89 -0.93 1.02 -0.03 0.03 -14.01 -50.93zm14.03 50.89l-0.03 0.03 -0.44 0.48 0.46 -0.51zm-14.63 -50.25l0.62 -0.68 13.98 50.96 -0.62 0.68 -14.37 -50.51 0.39 -0.45zm-0.39 0.45l0.25 -0.3 0.14 -0.15 -0.39 0.45zm-0.29 0.35l0.29 -0.35 14.76 50.07 -0.29 0.35 -14.8 -50.02 0.04 -0.05zm-0.04 0.05l0.04 -0.05 -0.19 0.22 0.15 -0.18zm-0.91 1.07l0.91 -1.07 14.84 49.98 -0.91 1.07 0 0 -14.84 -49.98zm-0.66 0.78l0.66 -0.78 14.84 49.98 -0.66 0.78 -15.01 -49.77 0.18 -0.21zm-0.18 0.21l0.06 -0.07 0.12 -0.14 -0.18 0.21zm-0.23 0.28l0.23 -0.28 15.19 49.56 -0.23 0.28 -15.3 -49.42 0.11 -0.14zm-0.11 0.14l0.19 -0.24 -0.08 0.11 -0.11 0.14zm-0.88 1.1l0.88 -1.1 15.4 49.28 -0.88 1.1 -15.5 -49.17 0.09 -0.11zm-0.09 0.11l0.09 -0.11 -0.06 0.08 -0.03 0.03zm-0.69 0.87l0.69 -0.87 15.59 49.06 -0.69 0.87 -16.06 -48.44 0.47 -0.62zm-0.47 0.62l0.21 -0.28 0.26 -0.33 -0.47 0.62zm-0.18 0.25l0.18 -0.25 16.53 47.82 -0.18 0.25 -0.21 0.28 -16.32 -48.11zm16.53 47.82l-0.21 0.28 0.1 -0.13 0.11 -0.15zm-17.17 -46.97l0.86 -1.13 16.11 48.39 -0.86 1.13 -16.24 -48.21 0.14 -0.18zm-0.14 0.18l0.03 -0.05 0.1 -0.13 -0.14 0.18zm-0.71 0.97l0.71 -0.97 16.38 48.03 -0.71 0.97 -16.94 -47.22 0.56 -0.8zm-0.56 0.8l0.31 -0.45 0.25 -0.35 -0.56 0.8zm-0.12 0.19l0.12 -0.19 17.5 46.42 -0.12 0.19 -0.25 0.37 -17.25 -46.79zm17.5 46.42l-0.16 0.24 -0.08 0.12 0.25 -0.37zm-18.07 -45.61l0.82 -1.18 17 47.15 -0.82 1.18 -17.06 -47.07 0.06 -0.08zm-0.06 0.08l0.06 -0.08 0.19 -0.27 -0.24 0.36zm-0.73 1.06l0.73 -1.06 17.12 46.99 -0.73 1.06 -17.89 -45.78 0.78 -1.21zm-0.78 1.21l0.37 -0.63 0.4 -0.58 -0.78 1.21zm-0.08 0.14l0.08 -0.14 18.67 44.57 -0.08 0.14 -0.4 0.64 -18.27 -45.21zm18.67 44.57l-0.22 0.36 -0.18 0.28 0.4 -0.64zm-18.55 -44.78l0.28 -0.43 17.87 45.85 -0.28 0.43 -17.9 -45.81 0.03 -0.04zm-0.03 0.04l0.03 -0.04 -0.59 0.92 0.57 -0.88zm-1.26 1.96l1.26 -1.96 17.93 45.77 -1.26 1.96 -18.82 -44.27 0.89 -1.51zm-0.89 1.51l0.44 -0.8 0.45 -0.7 -0.89 1.51zm-0.03 0.06l0.03 -0.06 19.71 42.76 -0.03 0.06 -0.53 0.92 -19.18 -43.68zm19.71 42.76l-0.24 0.44 -0.28 0.48 0.53 -0.92zm-19.94 -42.41l0.76 -1.26 18.66 44.59 -0.76 1.26 -18.76 -44.42 0.11 -0.18zm-0.11 0.18l0.11 -0.18 -0.22 0.36 0.11 -0.18zm-0.75 1.27l0.75 -1.27 18.87 44.24 -0.75 1.27 -20.82 -40.21 1.95 -4.03zm-1.95 4.03l0.89 -2.22 1.06 -1.81 -1.95 4.03zm-331.9 831.36l331.9 -831.36 22.78 36.18 -331.9 831.36 -13.73 10.57 -9.04 -46.75zm9.04 46.75l-24.52 -7.99 15.48 -38.77 9.04 46.75zm4.89 1.59l-4.89 -1.59 4.69 -57.33 4.89 1.59 -4.69 57.33zm122.66 -74.54l22.81 36.09 0.72 -1.97 -2.55 6.77 -2.87 6.06 -3.1 5.38 -3.33 4.78 -3.48 4.21 -3.64 3.73 -3.78 3.3 -3.91 2.92 -4.04 2.58 -4.17 2.27 -4.29 1.98 -4.4 1.72 -4.53 1.48 -4.63 1.24 -4.73 1.02 -4.84 0.81 -4.92 0.61 -5.01 0.42 -5.07 0.23 -5.14 0.06 -5.2 -0.12 -5.25 -0.28 -5.29 -0.44 -5.33 -0.59 -5.35 -0.75 -5.36 -0.89 -5.37 -1.03 -5.36 -1.16 -5.35 -1.29 -5.33 -1.42 -5.29 -1.53 -5.26 -1.64 4.69 -57.33 4.92 1.54 4.95 1.43 4.99 1.33 5 1.21 5 1.08 5.01 0.96 5 0.83 4.96 0.69 4.92 0.55 4.87 0.41 4.81 0.26 4.73 0.11 4.64 -0.05 4.54 -0.21 4.43 -0.37 4.32 -0.53 4.17 -0.7 4.02 -0.87 3.85 -1.03 3.66 -1.2 3.47 -1.35 3.25 -1.51 3.04 -1.65 2.78 -1.76 2.51 -1.87 2.23 -1.94 1.93 -1.98 1.64 -1.97 1.31 -1.88 1.03 -1.78 0.76 -1.6 0.53 -1.4 0.72 -1.97zm-0.72 1.97l0.32 -0.97 0.4 -1 -0.72 1.97zm313.92 -696.23l-290.38 730.35 -22.81 -36.09 290.38 -730.35 17.28 -8.53 5.53 44.62zm-5.53 -44.62l17.25 15.17 -11.71 29.45 -5.53 -44.62zm-36.92 -32.46l36.92 32.46 -11.75 53.15 -36.92 -32.46 -3.01 -49.58 14.75 -3.56zm-11.75 53.15l-22.44 -19.74 19.44 -29.85 3.01 49.58zm14.91 -3.81l-0.16 0.24 -17.76 -46.02 0.16 -0.24 23.44 23.01 -5.68 23.01zm5.68 -23.01l0 14.29 -5.68 8.72 5.68 -23.01zm0 -0.01l0 0.01 -29.12 0 0 -0.01 5.81 -23.21 23.31 23.21zm-29.12 0l0 -14.49 5.81 -8.72 -5.81 23.21zm23.46 22.99l-0.15 0.22 -17.5 -46.42 0.15 -0.22 0.14 -0.2 17.36 46.62zm-17.5 -46.42l0.14 -0.2 0 0 -0.14 0.2zm17.52 46.39l-0.16 0.23 -17.23 -46.83 0.16 -0.23 23.18 23.41 -5.95 23.41zm5.95 -23.41l0 14.71 -5.95 8.7 5.95 -23.41zm0 -0.02l0 0.02 -29.12 0 0 -0.02 6.26 -23.85 22.86 23.85zm-29.12 0l0 -15.19 6.26 -8.67 -6.26 23.85zm23.01 23.65l-0.15 0.2 -16.61 -47.71 0.15 -0.2 0.16 -0.23 16.44 47.94zm-16.61 -47.71l0.14 -0.2 0.02 -0.03 -0.16 0.23zm16.61 47.72l-0.16 0.22 -16.28 -48.16 0.16 -0.22 1.61 -1.88 14.66 50.04zm-16.28 -48.16l0.77 -1.04 0.84 -0.84 -1.61 1.88zm14.67 50.03l-0.01 0.01 -13.05 -51.92 0.01 -0.01 14.77 49.9 -1.72 2.03zm1.72 -2.03l-0.83 1.13 -0.89 0.89 1.72 -2.03zm0.15 -0.21l-0.15 0.21 -16.49 -47.87 0.15 -0.21 16.64 47.66 -0.15 0.2zm0.15 -0.2l-0.06 0.08 -0.09 0.12 0.15 -0.2zm0.15 -0.22l-0.15 0.22 -16.79 -47.46 0.15 -0.22 18.7 44.24 -1.91 3.22zm1.91 -3.22l-0.89 1.78 -1.03 1.44 1.91 -3.22zm0.02 -0.03l-0.02 0.03 -20.62 -41.02 0.02 -0.03 3.02 -4.63 17.6 45.65zm-20.62 -41.02l1.36 -2.72 1.66 -1.91 -3.02 4.63zm17.74 45.48l-0.15 0.17 -14.58 -50.28 0.15 -0.17 15.68 48.87 -1.1 1.41zm1.1 -1.41l-0.54 0.75 -0.57 0.66 1.1 -1.41zm0.15 -0.22l-0.15 0.22 -16.79 -47.46 0.15 -0.22 4.85 -4.44 11.93 51.9zm-16.79 -47.46l2.22 -3.12 2.63 -1.32 -4.85 4.44zm11.97 51.88l-0.03 0.02 -7.08 -56.34 0.03 -0.02 12.04 51.75 -4.96 4.59zm4.96 -4.59l-2.26 3.25 -2.7 1.35 4.96 -4.59zm0.13 -0.19l-0.13 0.19 -17 -47.15 0.13 -0.19 0.61 -0.83 16.39 47.99zm-17 -47.15l0.31 -0.44 0.3 -0.39 -0.61 0.83zm16.55 47.78l-0.16 0.2 -15.78 -48.82 0.16 -0.2 0.39 -0.48 15.39 49.3zm-15.78 -48.82l0.16 -0.2 0.23 -0.27 -0.39 0.48zm15.42 49.26l-0.03 0.03 -15.01 -49.77 0.03 -0.03 0.79 -0.88 14.22 50.66zm-15.01 -49.77l0.41 -0.49 0.37 -0.39 -0.79 0.88zm14.37 50.5l-0.15 0.16 -13.43 -51.54 0.15 -0.16 14.29 50.58 -0.86 0.96zm0.86 -0.96l-0.43 0.52 -0.42 0.44 0.86 -0.96zm0.16 -0.19l-0.16 0.19 -15.14 -49.61 0.16 -0.19 15.67 48.95 -0.52 0.66zm0.52 -0.66l-0.25 0.33 -0.27 0.33 0.52 -0.66zm0.03 -0.05l-0.03 0.05 -16.19 -48.29 0.03 -0.05 0.74 -0.92 15.44 49.21zm-16.19 -48.29l0.35 -0.46 0.4 -0.46 -0.74 0.92zm15.58 49.05l-0.14 0.16 -14.7 -50.13 0.14 -0.16 14.76 50.07 -0.06 0.06zm0.06 -0.06l-0.06 0.06 0.37 -0.44 -0.32 0.37zm0.16 -0.19l-0.16 0.19 -14.82 -50.01 0.16 -0.19 3.05 -2.71 11.76 52.72zm-14.82 -50.01l1.44 -1.7 1.61 -1.01 -3.05 2.71zm11.81 52.69l-0.05 0.03 -8.71 -55.42 0.05 -0.03 11.51 53.01 -2.8 2.42zm2.8 -2.42l-1.34 1.51 -1.46 0.91 2.8 -2.42zm0.14 -0.15l-0.14 0.15 -14.31 -50.59 0.14 -0.15 0.28 -0.31 14.03 50.89zm-14.31 -50.59l0.16 -0.19 0.11 -0.12 -0.28 0.31zm14.19 50.72l-0.16 0.18 -13.75 -51.2 0.16 -0.18 1.75 -1.59 12 52.78zm-13.75 -51.2l0.86 -0.92 0.89 -0.67 -1.75 1.59zm12.05 52.75l-0.05 0.03 -10.25 -54.37 0.05 -0.03 12.11 52.67 -1.86 1.7zm1.86 -1.7l-0.9 0.99 -0.96 0.72 1.86 -1.7zm0.12 -0.14l-0.12 0.14 -13.98 -50.96 0.12 -0.14 0.63 -0.65 13.35 51.61zm-13.98 -50.96l0.3 -0.33 0.33 -0.32 -0.63 0.65zm13.53 51.43l-0.18 0.18 -12.72 -52.25 0.18 -0.18 12.88 52.09 -0.16 0.16zm0.16 -0.16l-0.16 0.16 0 0 0.16 -0.16zm0.04 -0.04l-0.04 0.04 -13.05 -51.92 0.04 -0.04 0.71 -0.66 12.34 52.59zm-13.05 -51.92l0.36 -0.36 0.35 -0.3 -0.71 0.66zm12.47 52.47l-0.13 0.11 -11.63 -53.25 0.13 -0.11 12.34 52.59 -0.71 0.66zm0.71 -0.66l-0.36 0.36 -0.35 0.3 0.71 -0.66zm0.18 -0.18l-0.18 0.18 -13.05 -51.92 0.18 -0.18 13.88 51.03 -0.83 0.89zm0.83 -0.89l-0.41 0.48 -0.42 0.42 0.83 -0.89zm0.03 -0.04l-0.03 0.04 -14.7 -50.13 0.03 -0.04 2.41 -2.25 12.3 52.38zm-14.7 -50.13l1.16 -1.35 1.25 -0.9 -2.41 2.25zm12.44 52.28l-0.14 0.1 -9.89 -54.63 0.14 -0.1 11.29 53.45 -1.4 1.18zm1.4 -1.18l-0.7 0.67 -0.71 0.51 1.4 -1.18zm0.17 -0.16l-0.17 0.16 -12.7 -52.26 0.17 -0.16 13.43 51.5 -0.74 0.76zm0.74 -0.76l-0.33 0.36 -0.41 0.4 0.74 -0.76zm0.05 -0.06l-0.05 0.06 -14.17 -50.75 0.05 -0.06 2.37 -2.11 11.8 52.85zm-14.17 -50.75l1.14 -1.26 1.23 -0.84 -2.37 2.11zm11.92 52.77l-0.12 0.08 -9.42 -54.96 0.12 -0.08 11.06 53.61 -1.64 1.35zm1.64 -1.35l-0.82 0.79 -0.82 0.56 1.64 -1.35zm0.17 -0.16l-0.17 0.16 -12.7 -52.26 0.17 -0.16 2.26 -1.74 10.44 54.01zm-12.7 -52.26l1.11 -1.08 1.15 -0.67 -2.26 1.74zm10.51 53.97l-0.07 0.04 -8.18 -55.75 0.07 -0.04 9.84 54.56 -1.66 1.2zm1.66 -1.2l-0.83 0.71 -0.83 0.49 1.66 -1.2zm0.12 -0.1l-0.12 0.1 -11.5 -53.36 0.12 -0.1 0.29 -0.24 11.21 53.61zm-11.5 -53.36l0.21 -0.18 0.08 -0.06 -0.29 0.24zm11.38 53.46l-0.18 0.14 -10.92 -53.85 0.18 -0.14 0.84 -0.62 10.08 54.47zm-10.92 -53.85l0.39 -0.32 0.45 -0.3 -0.84 0.62zm10.14 54.42l-0.07 0.05 -9.23 -55.08 0.07 -0.05 9.53 54.89 -0.29 0.2zm0.29 -0.2l-0.04 0.03 -0.25 0.17 0.29 -0.2zm0.12 -0.08l-0.12 0.08 -9.82 -54.69 0.12 -0.08 10.52 54.14 -0.7 0.55zm0.7 -0.55l-0.4 0.33 -0.3 0.22 0.7 -0.55zm0.17 -0.14l-0.17 0.14 -11.23 -53.59 0.17 -0.14 0 0 11.23 53.59zm0.07 -0.06l-0.07 0.06 -11.23 -53.59 0.07 -0.06 1.93 -1.3 9.3 54.89zm-11.23 -53.59l0.96 -0.8 0.97 -0.5 -1.93 1.3zm9.43 54.82l-0.13 0.07 -7.37 -56.19 0.13 -0.07 8.91 55.2 -1.53 0.99zm1.53 -0.99l-0.78 0.59 -0.76 0.4 1.53 -0.99zm0.17 -0.13l-0.17 0.13 -10.44 -54.21 0.17 -0.13 1.68 -1.06 8.76 55.28zm-10.44 -54.21l0.84 -0.65 0.84 -0.42 -1.68 1.06zm8.84 55.24l-0.08 0.04 -7.08 -56.34 0.08 -0.04 8.59 55.41 -1.51 0.93zm1.51 -0.93l-0.74 0.54 -0.76 0.39 1.51 -0.93zm0.11 -0.08l-0.11 0.08 -10.09 -54.48 0.11 -0.08 0.36 -0.25 9.73 54.74zm-10.09 -54.48l0.16 -0.11 0.2 -0.14 -0.36 0.25zm9.91 54.62l-0.18 0.12 -9.37 -54.99 0.18 -0.12 0.73 -0.45 8.64 55.45zm-9.37 -54.99l0.37 -0.25 0.36 -0.2 -0.73 0.45zm8.73 55.4l-0.09 0.05 -7.91 -55.9 0.09 -0.05 8.98 55.21 -1.07 0.69zm1.07 -0.69l-0.52 0.38 -0.55 0.31 1.07 -0.69zm0.08 -0.06l-0.08 0.06 -10.05 -54.52 0.08 -0.06 1.09 -0.71 8.95 55.23zm-10.05 -54.52l0.56 -0.41 0.54 -0.3 -1.09 0.71zm9.15 55.12l-0.19 0.11 -7.86 -55.93 0.19 -0.11 8.29 55.68 -0.42 0.25zm0.42 -0.25l-0.27 0.16 -0.16 0.09 0.42 -0.25zm0.09 -0.06l-0.09 0.06 -8.71 -55.42 0.09 -0.06 0.24 -0.14 8.47 55.57zm-8.71 -55.42l0.05 -0.03 0.19 -0.11 -0.24 0.14zm8.57 55.51l-0.1 0.06 -8.23 -55.71 0.1 -0.06 0.79 -0.42 7.45 56.13zm-8.23 -55.71l0.42 -0.25 0.37 -0.17 -0.79 0.42zm7.63 56.04l-0.18 0.08 -6.66 -56.55 0.18 -0.08 7.24 56.25 -0.58 0.29zm0.58 -0.29l-0.27 0.15 -0.31 0.14 0.58 -0.29zm0.1 -0.06l-0.1 0.06 -7.82 -55.96 0.1 -0.06 8.2 55.73 -0.39 0.23zm0.39 -0.23l-0.21 0.13 -0.18 0.1 0.39 -0.23zm0.07 -0.05l-0.07 0.05 -8.59 -55.5 0.07 -0.05 0.95 -0.52 7.63 56.02zm-8.59 -55.5l0.46 -0.29 0.49 -0.23 -0.95 0.52zm7.83 55.93l-0.19 0.09 -6.68 -56.53 0.19 -0.09 0.18 -0.08 6.51 56.61zm-6.68 -56.53l0.18 -0.08 -0.12 0.06 -0.05 0.02zm6.61 56.57l-0.1 0.05 -6.33 -56.69 0.1 -0.05 6.48 56.62 -0.15 0.07zm0.15 -0.07l0 0 -0.15 0.07 0.15 -0.07zm0.08 -0.04l-0.08 0.04 -6.64 -56.56 0.08 -0.04 7.07 56.34 -0.43 0.22zm0.43 -0.22l-0.22 0.12 -0.21 0.1 0.43 -0.22zm0.18 -0.1l-0.18 0.1 -7.5 -56.13 0.18 -0.1 0.58 -0.28 6.92 56.41zm-7.5 -56.13l0.28 -0.15 0.31 -0.14 -0.58 0.28zm7.02 56.36l-0.1 0.05 -6.33 -56.69 0.1 -0.05 1.72 -0.55 4.62 57.24zm-6.33 -56.69l0.84 -0.37 0.87 -0.18 -1.72 0.55zm4.7 57.22l-0.08 0.02 -2.9 -57.79 0.08 -0.02 5.2 56.96 -2.3 0.83zm2.3 -0.83l-1.13 0.6 -1.17 0.23 2.3 -0.83zm0.18 -0.1l-0.18 0.1 -7.5 -56.13 0.18 -0.1 1.23 -0.54 6.26 56.67zm-7.5 -56.13l0.62 -0.33 0.62 -0.22 -1.23 0.54zm6.38 56.63l-0.11 0.04 -5.03 -57.21 0.11 -0.04 5.08 57.2 -0.05 0.02zm0.05 -0.02l-0.05 0.02 0.17 -0.06 -0.12 0.05zm0.08 -0.03l-0.08 0.03 -5.13 -57.18 0.08 -0.03 5.26 57.13 -0.12 0.05zm0.12 -0.05l-0.12 0.05 -0.24 0.08 0.36 -0.14zm0.18 -0.07l-0.18 0.07 -5.38 -57.08 0.18 -0.07 0.49 -0.17 4.89 57.25zm-5.38 -57.08l0.28 -0.11 0.21 -0.06 -0.49 0.17zm5.02 57.21l-0.13 0.04 -4.39 -57.42 0.13 -0.04 6.62 56.38 -2.23 1.04zm2.23 -1.04l-1.1 0.7 -1.13 0.35 2.23 -1.04zm0.06 -0.04l-0.06 0.04 -8.85 -55.33 0.06 -0.04 2.09 -1 6.76 56.34zm-8.85 -55.33l1.04 -0.66 1.05 -0.34 -2.09 1zm6.95 56.27l-0.19 0.06 -4.67 -57.34 0.19 -0.06 0.17 -0.05 4.5 57.39zm-4.67 -57.34l0 0 0.17 -0.05 -0.17 0.05zm4.61 57.36l-0.11 0.03 -4.33 -57.44 0.11 -0.03 4.56 57.37 -0.24 0.07zm0.24 -0.07l-0.07 0.02 -0.17 0.05 0.24 -0.07zm0.07 -0.02l-0.07 0.02 -4.8 -57.29 0.07 -0.02 0.22 -0.07 4.59 57.36zm-4.8 -57.29l0.22 -0.07 -0.12 0.04 -0.09 0.03zm4.77 57.3l-0.19 0.06 -4.37 -57.43 0.19 -0.06 0.97 -0.23 3.4 57.66zm-4.37 -57.43l0.47 -0.14 0.5 -0.08 -0.97 0.23zm3.53 57.63l-0.14 0.02 -2.42 -57.88 0.14 -0.02 4.19 57.37 -1.77 0.52zm1.77 -0.52l-0.88 0.37 -0.88 0.15 1.77 -0.52zm0.07 -0.03l-0.07 0.03 -5.96 -56.85 0.07 -0.03 1.39 -0.44 4.56 57.29zm-5.96 -56.85l0.7 -0.29 0.7 -0.15 -1.39 0.44zm4.88 57.22l-0.31 0.07 -3.17 -57.73 0.31 -0.07 5.13 57.04 -1.95 0.7zm1.95 -0.7l-0.96 0.48 -1 0.22 1.95 -0.7zm0.06 -0.03l-0.06 0.03 -7.08 -56.34 0.06 -0.03 2.47 -0.79 4.61 57.13zm-7.08 -56.34l1.22 -0.61 1.25 -0.18 -2.47 0.79zm4.8 57.11l-0.19 0.03 -2.14 -57.93 0.19 -0.03 2.88 57.78 -0.74 0.15zm0.74 -0.15l-0.37 0.09 -0.37 0.06 0.74 -0.15zm0.14 -0.03l-0.14 0.03 -3.62 -57.63 0.14 -0.03 0 0 3.62 57.63zm0.05 -0.01l-0.05 0.01 -3.62 -57.63 0.05 -0.01 0.74 -0.15 2.88 57.78zm-3.62 -57.63l0.37 -0.09 0.37 -0.06 -0.74 0.15zm3.08 57.75l-0.19 0.03 -2.14 -57.93 0.19 -0.03 2.47 57.87 -0.33 0.06zm0.33 -0.06l-0.19 0.03 -0.14 0.02 0.33 -0.06zm0.15 -0.03l-0.15 0.03 -2.8 -57.81 0.15 -0.03 1.4 -0.14 1.4 57.95zm-2.8 -57.81l0.71 -0.14 0.69 0 -1.4 0.14zm1.43 57.95l-0.03 0 0 -58.09 0.03 0 0 0 0 58.09zm0.03 0l-0.03 0 0 -58.09 0.03 0 0.95 0.06 -0.95 58.02zm0 -58.09l0.48 0 0.48 0.06 -0.95 -0.06zm-33.43 -8.64l-8.17 -55.75 0.28 -0.15 8.48 -4.11 8.3 -3.1 8.08 -2.15 7.83 -1.24 7.56 -0.4 7.27 0.4 6.97 1.14 6.64 1.83 6.31 2.47 5.95 3.08 5.6 3.64 5.22 4.21 4.85 4.76 4.46 5.35 4.08 6.02 3.69 6.85 3.23 7.95 2.62 9.37 1.68 10.98 0.26 12.31 -1.49 12.26 -3.01 10.72 -4 8.53 -4.56 6.51 -4.98 5.01 -5.42 3.87 -5.93 2.98 -6.5 2.17 -7.12 1.43 -7.82 0.69 -8.55 -0.07 -9.32 -0.86 1.9 -57.96 8.19 0.76 7.24 0.06 6.31 -0.56 5.37 -1.08 4.42 -1.47 3.44 -1.72 2.45 -1.74 1.44 -1.43 0.45 -0.62 -0.35 0.79 -0.7 2.5 -0.45 3.68 0.06 3.47 0.29 1.99 0.08 0.35 -0.42 -1 -1.03 -1.9 -1.66 -2.43 -2.26 -2.7 -2.8 -2.75 -3.32 -2.67 -3.79 -2.47 -4.24 -2.19 -4.66 -1.82 -5.02 -1.39 -5.37 -0.88 -5.71 -0.31 -6.01 0.31 -6.29 1 -6.55 1.74 -6.78 2.54 -7.01 3.39 0.28 -0.15zm-8.17 -55.75l0.07 -0.04 0.21 -0.11 -0.28 0.15z"/>
   </g>
   <path class="fil2" d="M337.55 299.13c40.4,-14.28 42.66,13.75 63.91,62.55l294.5 723.6c36.95,87.39 109.37,93.28 172.33,61.38l-353.42 -869.39c-42.99,-96.55 -163.07,-79.81 -177.32,21.86z"/>
  </g>
  <path class="fil0" d="M3259.46 678.47l-0.14 -0.41 -1.06 -3.06 -0.1 -0.32 -0.61 -1.67 -0.15 -0.43 -0.46 -1.22 -0.62 -1.68 -0.6 -1.52 -0.05 -0.14 -0.65 -1.64 -0.65 -1.59 -0.01 -0.04 -0.67 -1.61 -0.7 -1.6 -0.02 -0.07 -0.67 -1.54 -0.72 -1.56 -0.06 -0.15 -0.29 -0.65 -1.09 -2.32 -0.11 -0.22 -0.65 -1.33 -0.76 -1.52 -0.59 -1.18 -0.18 -0.35 -0.8 -1.49 -0.18 -0.36 -0.62 -1.13 -0.8 -1.47 -0.24 -0.42 -1.41 -2.46 -0.31 -0.51 -0.55 -0.89 -0.85 -1.41 -0.36 -0.57 -0.52 -0.82 -0.87 -1.36 -0.42 -0.61 -0.49 -0.73 -1.39 -2.01 -0.42 -0.65 -0.93 -1.3 -0.54 -0.74 -0.4 -0.53 -1.56 -2.03 -0.36 -0.46 -0.96 -1.22 -0.66 -0.81 -0.33 -0.37 -1 -1.18 -0.72 -0.84 -0.28 -0.31 -0.15 -0.34 -0.8 -0.87 -0.22 -0.23 -1.04 -1.1 -0.88 -0.9 -0.16 -0.16 -1.06 -1.03 -0.95 -0.91 -0.12 -0.11 -0.37 -0.33 -1.74 -1.57 -0.06 -0.05 -1.17 -0.56 -1.29 -0.78 -431.67 -160.54c-24.83,80.36 -17.34,132.8 50.09,162.77l391.82 141.12 -10.93 -8.13 0.23 0.2 0 0 0.2 0.19 0.2 0.2 0.02 0.01 0.18 0.18 0.2 0.2 0.01 0.02 0.19 0.18 0.2 0.22 0.02 0.01 0.17 0.2 0.19 0.18 0.02 0.06 0.16 0.16 0.2 0.21 0.03 0.03 0.15 0.19 0.18 0.21 0.05 0.05 0.14 0.17 0.18 0.21 0.03 0.05 0.15 0.16 0.18 0.23 0.03 0.07 0.13 0.18 0.18 0.23 0.05 0.03 0.11 0.18 0.18 0.23 0.03 0.05 0.11 0.18 0.16 0.23 0.05 0.07 0.11 0.16 0.16 0.22 0.04 0.09 0.11 0.17 0.13 0.23 0.06 0.09 0.1 0.15 0.14 0.23 0.06 0.1 0.08 0.16 0.14 0.23 0.06 0.11 0.08 0.14 0.12 0.24 0.07 0.14 0.08 0.12 0.12 0.25 0.06 0.12 0.08 0.12 0.1 0.25 0.07 0.13 0.05 0.11 0.12 0.27 0.08 0.15 0.03 0.1 0.12 0.26 0.05 0.14 0.05 0.11 0.12 0.24 0.05 0.16 0.05 0.11 0.1 0.26 0.06 0.17 0.04 0.08 0.1 0.27 0.05 0.16 0.03 0.1 0.09 0.25 0.06 0.19 32.78 -83.34z"/>
  <path class="fil2" d="M3215.9 613.76c19.81,43.59 8.38,35.94 -21.87,76.34l-485.22 528.66 -3 8.36c-0.03,-388.05 0.01,-794.24 -0.18,-1227.12 -47.19,2.9 -144.59,10.39 -144.59,122.78l0.11 1050.07c-0.32,5.24 0.5,6.42 0.57,11.03 -0.68,130.19 81.74,212.6 202.01,157.21 26.42,-16.72 52.54,-45.27 73.58,-63.61l421.14 -483.3c65.02,-59.74 31.83,-160.36 -42.57,-180.42z"/>
  <path class="fil1" d="M1342.65 327.71l-227.04 0 0 345.94 221.88 0c51.38,0 90.19,-15.48 115.99,-46.67 26.02,-33.43 39.03,-75.38 39.03,-126.3 0,-50.93 -13.01,-92.21 -39.03,-124.29 -24.01,-32.53 -61.03,-48.68 -110.83,-48.68zm-227.04 463.05l-1.04 268c-4.43,86.95 -48.32,111.46 -125.18,106.25l1.04 -954.41 354.24 0c90.87,0 159.07,28.27 204.39,84.8 45.31,56.53 68.2,123.61 68.65,201.69 -0.45,78.07 -19.97,143.8 -58.78,197.87 -38.81,53.84 -98.93,84.13 -179.92,91.31l248.12 351.77c-64.68,44.32 -127.72,41.03 -176.91,-33.3l-215.69 -313.98 -118.91 0z"/>
  <path class="fil1" d="M1733.02 327.71c-0.38,-75.38 31,-116.51 101.53,-117.11l589 0c-1.14,79.85 -40.56,116.05 -113.62,117.11l-169.05 0 0.61 836.52c-75.39,-0.5 -120.98,-16.17 -125.18,-111.1l-0.61 -725.41 -282.67 0z"/>
  <path class="fil1" d="M3432.91 1160.51l0 -949.9 547.85 0c-0.89,80.73 -20,116.99 -93.07,116.3l-329.6 0.81 0 296.14 258.95 0.01c79.32,1.55 109.48,39.62 109.87,117.1l-368.82 0 0 302.45 436.13 0c-0.58,72.4 -24.06,116.38 -114.3,117.11l-447.01 0z"/>
  <path class="fil1" d="M4759.38 1077.04l-60.93 -173.21 -393.5 0 -64.02 180.4c-26.72,78.98 -73.08,93.22 -158.98,68.79l311.44 -834.52c28.49,-83.93 77.71,-122.85 175.61,-107.89l351.11 942.41c-81.36,24.13 -135.08,5.03 -160.73,-75.98zm-257.23 -699.53l-153.9 411.89 306.9 0 -153 -411.89z"/>
  <path class="fil1" d="M5237.82 207.31l325.06 684.18 327.32 -680.89c68.39,-18.13 114.11,-7.06 123.9,77.98l103.36 871.92c-86.63,14.27 -123.32,-7.57 -135.27,-97.46l-73.15 -622.27 -289.86 594.74c-60.15,18.64 -111.6,5.12 -145.76,-72.16l-32.31 -65.89 -223.95 -456.69 -70.22 598.29c-5.45,98.78 -49.83,144.02 -138.2,121.44l103.67 -862.9c9.22,-71.19 51.23,-101.01 125.4,-90.29z"/>
 </g>
</svg>
