<?xml version="1.0" encoding="UTF-8"?>
<!DOCTYPE svg PUBLIC "-//W3C//DTD SVG 1.1//EN" "http://www.w3.org/Graphics/SVG/1.1/DTD/svg11.dtd">
<!-- Creator: CorelDRAW 2018 (64-Bit Evaluation Version) -->
<svg xmlns="http://www.w3.org/2000/svg" xml:space="preserve" width="53.6105mm" height="240px" version="1.1" style="shape-rendering:geometricPrecision; text-rendering:geometricPrecision; image-rendering:optimizeQuality; fill-rule:evenodd; clip-rule:evenodd"
viewBox="0 0 2285.42 507.57"
 xmlns:xlink="http://www.w3.org/1999/xlink">
 <defs>
  <style type="text/css">
   <![CDATA[
    .fil0 {fill:#282829}
    .fil1 {fill:#282829;fill-rule:nonzero}
    .fil2 {fill:#282829;fill-rule:nonzero}
   ]]>
  </style>
 </defs>
 <g id="Layer_x0020_1">
  <metadata id="CorelCorpID_0Corel-Layer"/>
  <g id="_1794951057328">
   <g>
    <path class="fil0" d="M145.45 97.84l-0.42 0.25 -0.32 0.19 -0.09 0.06 -0.41 0.26 -0.1 0.06 -0.31 0.2 -0.41 0.26 -0.12 0.09 -0.69 0.48 -0.14 0.11 -0.25 0.19 -0.4 0.3 -0.15 0.13 -0.23 0.18 -0.38 0.31 -0.17 0.15 -0.21 0.18 -0.56 0.51 -0.19 0.16 -0.36 0.34 -0.21 0.2 -0.16 0.15 -0.58 0.6 -0.14 0.14 -0.35 0.38 -0.23 0.26 -0.11 0.13 -0.34 0.4 -0.24 0.29 -0.09 0.11 -0.33 0.41 -0.26 0.32 -0.07 0.09 -0.32 0.42 -0.26 0.36 -0.05 0.07 -0.31 0.44 -0.27 0.4 -0.03 0.05 -0.1 0.16 -0.47 0.73 -0.01 0.03 -0.29 0.47 -0.28 0.47 -124 310.59 1.82 0.6c20.16,6.57 43.61,6.39 49.21,-10.4l108.49 -272.85 -13.79 -12.13 0.06 -0.09 0 -0 0.06 -0.08 0.06 -0.09 0 -0.01 0.06 -0.08 0.06 -0.08 0 -0 0.06 -0.08 0.06 -0.08 0 -0.01 0.06 -0.06 0.06 -0.08 0.01 -0.01 0.05 -0.07 0.06 -0.08 0.01 -0.01 0.06 -0.06 0.06 -0.07 0.01 -0.02 0.05 -0.06 0.06 -0.07 0.01 -0.01 0.05 -0.06 0.06 -0.06 0.02 -0.01 0.05 -0.05 0.07 -0.06 0.01 -0.02 0.05 -0.04 0.06 -0.06 0.01 -0.02 0.05 -0.04 0.06 -0.06 0.02 -0.02 0.04 -0.03 0.06 -0.06 0.03 -0.01 0.05 -0.04 0.06 -0.06 0.03 -0.01 0.05 -0.03 0.06 -0.05 0.03 -0.02 0.05 -0.03 0.06 -0.05 0.03 -0.01 0.04 -0.03 0.07 -0.05 0.03 -0.02 0.03 -0.02 0.07 -0.04 0.03 -0.02 0.03 -0.02 0.07 -0.03 0.04 -0.02 0.03 -0.02 0.07 -0.03 0.04 -0.02 0.03 -0.02 0.07 -0.03 0.03 -0.02 0.03 -0.01 0.07 -0.03 0.04 -0.01 0.03 -0.01 0.07 -0.03 0.05 -0.01 0.02 -0.02 0.07 -0.02 0.04 -0.01 0.03 -0.01 0.07 -0.02 0.05 -0.01 0.03 -0.01 0.12 -0.03 0.02 -0.01 0.08 -0.01 0.05 -0.01 0.02 -0.01 0.07 -0.01 0.06 -0.01 0.01 0 0.01 0c36.62,4.78 17.23,-41.37 -14.02,-24.5z"/>
    <path id="1" class="fil1" d="M143.49 87.67l0.42 -0.25 3.07 20.82 -0.42 0.25 -3.08 -20.81 0.01 -0.01zm-0.01 0.01l0.01 -0.01 0.15 -0.09 -0.17 0.1zm-0.32 0.19l0.32 -0.19 3.09 20.8 -0.32 0.19 -0 0 -3.09 -20.8zm-0.09 0.06l0.09 -0.06 3.09 20.8 -0.09 0.06 -3.18 -20.75 0.09 -0.06zm-0.09 0.06l0 0 0.09 -0.06 -0.09 0.06zm-0.41 0.26l0.41 -0.26 3.27 20.69 -0.41 0.26 -0.11 0.07 -3.16 -20.76zm3.27 20.69l-0.08 0.05 -0.03 0.02 0.11 -0.07zm-3.27 -20.7l0.1 -0.06 3.05 20.83 -0.1 0.06 -3.22 -20.73 0.17 -0.1zm-0.17 0.1l0.08 -0.05 0.09 -0.05 -0.17 0.1zm-0.31 0.2l0.31 -0.2 3.38 20.62 -0.31 0.2 -0.02 0.01 -3.37 -20.63zm3.38 20.62l-0.02 0.01 0.38 -0.24 -0.36 0.23zm-3.78 -20.37l0.41 -0.26 3.35 20.64 -0.41 0.26 -3.59 -20.48 0.24 -0.17zm-0.24 0.17l0.12 -0.09 0.12 -0.08 -0.24 0.17zm-0.12 0.09l0.12 -0.09 3.83 20.31 -0.12 0.09 -0.11 0.08 -3.72 -20.39zm3.83 20.31l-0.13 0.1 0.02 -0.02 0.11 -0.08zm-4.41 -19.91l0.69 -0.48 3.62 20.47 -0.69 0.48 -3.74 -20.38 0.12 -0.09zm-0.12 0.09l0.12 -0.09 0 0 -0.13 0.09zm-0.14 0.11l0.14 -0.11 3.86 20.28 -0.14 0.11 -3.87 -20.28 0 0zm-0.25 0.19l0.25 -0.19 3.87 20.28 -0.25 0.19 -0.03 0.02 -3.84 -20.3zm3.87 20.28l-0.03 0.02 0.33 -0.24 -0.29 0.22zm-4.24 -20.01l0.4 -0.3 3.8 20.33 -0.4 0.3 -4 -20.17 0.2 -0.15zm-0.2 0.15l0.09 -0.07 0.11 -0.09 -0.2 0.15zm-0.15 0.13l0.15 -0.13 4.19 20.02 -0.15 0.13 -0.11 0.09 -4.08 -20.11zm4.19 20.02l-0.11 0.09 -0.03 0.02 0.14 -0.12zm-4.32 -19.93l0.23 -0.18 3.97 20.21 -0.23 0.18 -4.05 -20.14 0.08 -0.07zm-0.08 0.07l0.08 -0.07 0.05 -0.03 -0.13 0.1zm-0.38 0.31l0.38 -0.31 4.14 20.07 -0.38 0.31 -4.26 -19.96 0.12 -0.11zm-0.12 0.11l0.12 -0.11 -0.03 0.03 -0.09 0.08zm-0.17 0.15l0.17 -0.15 4.38 19.86 -0.17 0.15 -0.04 0.04 -4.34 -19.9zm4.38 19.86l-0.04 0.04 -0.05 0.04 0.09 -0.08zm-4.55 -19.72l0.21 -0.18 4.3 19.93 -0.21 0.18 -4.39 -19.85 0.09 -0.08zm-0.09 0.08l0.01 -0.01 0.08 -0.07 -0.09 0.08zm-0.56 0.51l0.56 -0.51 4.48 19.77 -0.56 0.51 -0.08 0.07 -4.4 -19.84zm4.48 19.77l-0.08 0.07 0.01 -0.01 0.07 -0.06zm-4.59 -19.68l0.19 -0.16 4.32 19.92 -0.19 0.16 -4.48 -19.77 0.16 -0.14zm-0.16 0.14l0.11 -0.11 0.05 -0.04 -0.16 0.14zm-0.36 0.34l0.36 -0.34 4.64 19.63 -0.36 0.34 -4.71 -19.55 0.08 -0.08zm-0.08 0.08l0.08 -0.08 0.04 -0.04 -0.12 0.12zm-0.21 0.2l0.21 -0.2 4.79 19.47 -0.21 0.2 -0.01 0.01 -4.78 -19.49zm4.79 19.47l-0.05 0.05 0.04 -0.04 0.01 -0.01zm-4.94 -19.33l0.16 -0.15 4.77 19.5 -0.16 0.15 -4.89 -19.38 0.13 -0.12zm-0.13 0.12l0.13 -0.12 -0.14 0.14 0.01 -0.01zm-0.58 0.6l0.58 -0.6 5.02 19.25 -0.58 0.6 -0.07 0.07 -4.95 -19.32zm5.02 19.25l0 0 -0.07 0.07 0.07 -0.07zm-5.09 -19.19l0.14 -0.14 4.88 19.4 -0.14 0.14 -5.04 -19.23 0.16 -0.17zm-0.16 0.17l0.05 -0.06 0.11 -0.11 -0.16 0.17zm-0.35 0.38l0.35 -0.38 5.2 19.06 -0.35 0.38 -5.25 -19.01 0.05 -0.06zm-0.05 0.06l0.05 -0.06 0.13 -0.14 -0.17 0.2zm-0.23 0.26l0.23 -0.26 5.29 18.95 -0.23 0.26 -5.37 -18.87 0.08 -0.09zm-0.08 0.09l0 0 0.08 -0.09 -0.08 0.09zm-0.11 0.13l0.11 -0.13 5.45 18.78 -0.11 0.13 -5.49 -18.74 0.04 -0.04zm-0.04 0.04l0.04 -0.04 -0.12 0.13 0.08 -0.09zm-0.34 0.4l0.34 -0.4 5.52 18.7 -0.34 0.4 -5.55 -18.66 0.03 -0.04zm-0.03 0.04l0.03 -0.04 0.15 -0.18 -0.18 0.22zm-0.24 0.29l0.24 -0.29 5.58 18.62 -0.24 0.29 -0 0 -5.58 -18.63zm5.58 18.62l-0 0 0.33 -0.39 -0.32 0.39zm-5.67 -18.52l0.09 -0.11 5.58 18.63 -0.09 0.11 -5.67 -18.51 0.09 -0.12zm-0.09 0.12l0.06 -0.08 0.03 -0.04 -0.09 0.12zm-0.33 0.41l0.33 -0.41 5.76 18.4 -0.33 0.41 -5.8 -18.36 0.03 -0.04zm-0.03 0.04l0 -0.01 0.03 -0.03 -0.03 0.04zm-0.26 0.32l0.26 -0.32 5.83 18.31 -0.26 0.32 -6 -18.09 0.17 -0.23zm-0.17 0.23l0.09 -0.13 0.08 -0.1 -0.17 0.23zm-0.07 0.09l0.07 -0.09 6.17 17.86 -0.07 0.09 -0.09 0.12 -6.09 -17.98zm6.17 17.86l-0.05 0.06 -0.04 0.05 0.09 -0.12zm-6.41 -17.56l0.32 -0.42 6 18.09 -0.32 0.42 -6.08 -17.99 0.08 -0.11zm-0.08 0.11l-0.01 0.01 0.09 -0.12 -0.08 0.11zm-0.26 0.36l0.26 -0.36 6.16 17.88 -0.26 0.36 -6.41 -17.52 0.25 -0.36zm-0.25 0.36l0.13 -0.21 0.12 -0.15 -0.25 0.36zm-0.05 0.07l0.05 -0.07 6.66 17.15 -0.05 0.07 -0.16 0.24 -6.5 -17.39zm6.66 17.15l-0.12 0.17 -0.04 0.06 0.16 -0.24zm-6.81 -16.95l0.31 -0.44 6.34 17.63 -0.31 0.44 -6.37 -17.58 0.03 -0.05zm-0.03 0.05l0.03 -0.05 0.16 -0.22 -0.19 0.27zm-0.27 0.4l0.27 -0.4 6.4 17.54 -0.27 0.4 -6.47 -17.44 0.07 -0.1zm-0.07 0.1l0.07 -0.1 -0.09 0.13 0.02 -0.03zm-0.03 0.05l0.03 -0.05 6.54 17.34 -0.03 0.05 -6.65 -17.17 0.11 -0.17zm-0.11 0.17l0.1 -0.16 0.01 -0.01 -0.11 0.17zm-0.1 0.16l0.1 -0.16 6.76 16.99 -0.1 0.16 -0.04 0.06 -6.72 -17.05zm6.76 16.99l0 0 -0.04 0.06 0.04 -0.06zm-7.19 -16.32l0.47 -0.73 6.68 17.11 -0.47 0.73 -7.19 -16.22 0.51 -0.9zm-0.51 0.9l0.24 -0.48 0.27 -0.42 -0.51 0.9zm-0.01 0.03l0.01 -0.03 7.7 15.32 -0.01 0.03 -0.38 0.69 -7.32 -16.01zm7.7 15.32l-0.19 0.38 -0.19 0.31 0.38 -0.69zm-7.61 -15.53l0.29 -0.47 6.95 16.69 -0.29 0.47 -7.01 -16.59 0.06 -0.11zm-0.06 0.11l0.01 -0.02 0.05 -0.09 -0.06 0.11zm-0.28 0.47l0.28 -0.47 7.08 16.48 -0.28 0.47 -7.79 -15 0.72 -1.48zm-0.72 1.48l0.33 -0.82 0.39 -0.67 -0.72 1.48zm-124 310.59l124 -310.59 8.51 13.51 -124 310.59 -5.13 3.95 -3.38 -17.47zm3.38 17.47l-9.15 -2.99 5.78 -14.47 3.38 17.47zm1.82 0.6l-1.82 -0.6 1.76 -21.42 1.82 0.6 -1.76 21.42zm45.83 -27.85l8.53 13.48 0.27 -0.73 -0.95 2.52 -1.08 2.28 -1.16 2.01 -1.23 1.77 -1.31 1.58 -1.36 1.39 -1.41 1.23 -1.46 1.09 -1.51 0.97 -1.56 0.84 -1.59 0.74 -1.65 0.64 -1.69 0.55 -1.73 0.46 -1.77 0.38 -1.81 0.3 -1.84 0.23 -1.87 0.16 -1.9 0.09 -1.92 0.02 -1.94 -0.04 -1.96 -0.11 -1.97 -0.17 -1.99 -0.22 -2 -0.28 -2 -0.34 -2 -0.38 -2 -0.43 -2 -0.48 -1.99 -0.53 -1.98 -0.58 -1.97 -0.61 1.76 -21.42 1.84 0.58 1.85 0.53 1.86 0.49 1.86 0.45 1.88 0.4 1.87 0.36 1.87 0.31 1.85 0.26 1.84 0.2 1.82 0.15 1.8 0.1 1.76 0.04 1.74 -0.02 1.7 -0.08 1.65 -0.14 1.61 -0.2 1.56 -0.26 1.5 -0.32 1.45 -0.39 1.37 -0.44 1.29 -0.51 1.22 -0.56 1.13 -0.61 1.03 -0.66 0.94 -0.7 0.84 -0.73 0.72 -0.74 0.6 -0.73 0.5 -0.72 0.39 -0.66 0.28 -0.59 0.2 -0.53 0.27 -0.73zm-0.27 0.73l0.12 -0.36 0.15 -0.38 -0.27 0.73zm117.28 -260.1l-108.49 272.85 -8.53 -13.48 108.49 -272.85 6.46 -3.19 2.07 16.67zm-2.07 -16.67l6.44 5.67 -4.37 11 -2.07 -16.67zm-13.79 -12.13l13.79 12.13 -4.39 19.86 -13.79 -12.13 -1.17 -18.45 5.56 -1.41zm-4.39 19.86l-8.28 -7.28 7.11 -11.17 1.17 18.45zm5.62 -1.5l-0.06 0.09 -6.74 -17.04 0.06 -0.09 8.81 8.52 -2.07 8.52zm2.07 -8.52l0 5.26 -2.07 3.26 2.07 -8.52zm0 -0l0 0 -10.88 0 0 -0 2.23 -8.75 8.65 8.75zm-10.88 0l0 -5.5 2.23 -3.25 -2.23 8.75zm8.71 8.67l-0.06 0.08 -6.43 -17.5 0.06 -0.08 0.05 -0.07 6.38 17.57zm-6.43 -17.5l0.05 -0.07 -0.01 0.01 -0.04 0.06zm6.44 17.49l-0.06 0.09 -6.33 -17.64 0.06 -0.09 8.61 8.82 -2.27 8.82zm2.27 -8.82l0 5.58 -2.27 3.24 2.27 -8.82zm0 -0.01l0 0.01 -10.88 0 0 -0.01 2.34 -8.91 8.54 8.91zm-10.88 0l0 -5.68 2.34 -3.24 -2.34 8.91zm8.6 8.84l-0.06 0.08 -6.21 -17.83 0.06 -0.08 0.04 -0.06 6.16 17.88zm-6.21 -17.83l0.04 -0.06 -0.13 0.18 0.09 -0.12zm6.22 17.8l-0.06 0.08 -6.12 -17.94 0.06 -0.08 0.62 -0.73 5.5 18.67zm-6.12 -17.94l0.3 -0.4 0.32 -0.32 -0.62 0.73zm5.5 18.66l-0 0 -4.88 -19.4 0 -0 5.54 18.61 -0.67 0.78zm0.67 -0.78l-0.31 0.43 -0.35 0.35 0.67 -0.78zm0.06 -0.08l-0.06 0.08 -6.21 -17.83 0.06 -0.08 0.04 -0.06 6.16 17.88zm-6.21 -17.83l0.04 -0.06 -0.13 0.18 0.09 -0.12zm6.22 17.8l-0.06 0.08 -6.12 -17.94 0.06 -0.08 7.59 14.98 -1.47 2.96zm1.47 -2.96l-0.59 1.76 -0.88 1.2 1.47 -2.96zm0 -0.01l-0 0.01 -9.06 -12.01 0 -0.01 1.81 -3.38 7.26 15.4zm-9.06 -12.01l0.7 -2.11 1.1 -1.27 -1.81 3.38zm7.31 15.33l-0.06 0.06 -5.45 -18.78 0.06 -0.06 5.78 18.36 -0.34 0.42zm0.34 -0.42l-0.17 0.22 -0.17 0.2 0.34 -0.42zm0.06 -0.08l-0.06 0.08 -6.12 -17.94 0.06 -0.08 1.34 -1.32 4.78 19.26zm-6.12 -17.94l0.62 -0.84 0.72 -0.48 -1.34 1.32zm4.8 19.25l-0.01 0.01 -3.44 -20.58 0.01 -0.01 4.93 19.06 -1.48 1.53zm1.48 -1.53l-0.68 0.99 -0.8 0.53 1.48 -1.53zm0.05 -0.07l-0.05 0.07 -6.41 -17.53 0.05 -0.07 0.26 -0.35 6.15 17.88zm-6.41 -17.53l0.12 -0.17 0.14 -0.19 -0.26 0.35zm6.21 17.81l-0.06 0.08 -5.89 -18.24 0.06 -0.08 0.51 -0.58 5.38 18.82zm-5.89 -18.24l0.26 -0.33 0.25 -0.25 -0.51 0.58zm5.4 18.8l-0.01 0.01 -4.88 -19.4 0.01 -0.01 5.02 19.24 -0.14 0.15zm0.14 -0.15l-0.11 0.12 -0.03 0.03 0.14 -0.15zm0.06 -0.06l-0.06 0.06 -5.17 -19.09 0.06 -0.06 5.29 18.96 -0.12 0.13zm0.12 -0.13l-0.06 0.06 -0.06 0.07 0.12 -0.13zm0.06 -0.07l-0.06 0.07 -5.41 -18.83 0.06 -0.07 6.19 17.74 -0.78 1.09zm0.78 -1.09l-0.36 0.61 -0.42 0.48 0.78 -1.09zm0.01 -0.02l-0.01 0.02 -6.97 -16.65 0.01 -0.02 0.72 -1.01 6.26 17.66zm-6.97 -16.65l0.34 -0.56 0.38 -0.45 -0.72 1.01zm6.3 17.61l-0.05 0.06 -5.54 -18.67 0.05 -0.06 0.09 -0.1 5.46 18.77zm-5.54 -18.67l0.09 -0.1 -0.06 0.06 -0.03 0.03zm5.52 18.7l-0.06 0.07 -5.37 -18.87 0.06 -0.07 0.96 -0.86 4.41 19.72zm-5.37 -18.87l0.46 -0.52 0.5 -0.34 -0.96 0.86zm4.42 19.72l-0.01 0.01 -3.44 -20.58 0.01 -0.01 4.47 19.66 -1.02 0.93zm1.02 -0.93l-0.49 0.57 -0.54 0.36 1.02 -0.93zm0.05 -0.06l-0.05 0.06 -5.49 -18.73 0.05 -0.06 0.31 -0.33 5.18 19.06zm-5.49 -18.73l0.15 -0.18 0.15 -0.15 -0.31 0.33zm5.25 19l-0.06 0.06 -4.88 -19.4 0.06 -0.06 0.52 -0.46 4.35 19.85zm-4.88 -19.4l0.25 -0.25 0.27 -0.2 -0.52 0.46zm4.37 19.84l-0.02 0.01 -3.83 -20.31 0.02 -0.01 4.52 19.67 -0.69 0.64zm0.69 -0.64l-0.33 0.37 -0.36 0.27 0.69 -0.64zm0.05 -0.05l-0.05 0.05 -5.22 -19.04 0.05 -0.05 0.29 -0.3 4.92 19.34zm-5.22 -19.04l0.15 -0.16 0.14 -0.14 -0.29 0.3zm4.99 19.27l-0.07 0.06 -4.63 -19.64 0.07 -0.06 5.34 18.84 -0.71 0.8zm0.71 -0.8l-0.34 0.45 -0.37 0.35 0.71 -0.8zm0.01 -0.02l-0.01 0.02 -6.04 -18.04 0.01 -0.02 0.93 -0.99 5.12 19.03zm-6.04 -18.04l0.43 -0.58 0.49 -0.41 -0.93 0.99zm5.17 18.99l-0.05 0.04 -4.19 -20.02 0.05 -0.04 4.54 19.71 -0.34 0.31zm0.34 -0.31l-0.16 0.16 -0.18 0.15 0.34 -0.31zm0.06 -0.06l-0.06 0.06 -4.88 -19.4 0.06 -0.06 5.46 18.72 -0.58 0.68zm0.58 -0.68l-0.28 0.38 -0.3 0.3 0.58 -0.68zm0.01 -0.02l-0.01 0.02 -6.04 -18.04 0.01 -0.02 1.11 -1.13 4.94 19.18zm-6.04 -18.04l0.52 -0.69 0.59 -0.44 -1.11 1.13zm4.99 19.14l-0.05 0.04 -3.83 -20.31 0.05 -0.04 4.22 19.98 -0.39 0.33zm0.39 -0.33l-0.19 0.17 -0.2 0.15 0.39 -0.33zm0.06 -0.06l-0.06 0.06 -4.61 -19.65 0.06 -0.06 4.74 19.52 -0.13 0.13zm0.13 -0.13l-0.07 0.07 -0.06 0.06 0.13 -0.13zm0.02 -0.02l-0.02 0.02 -4.88 -19.4 0.02 -0.02 0.64 -0.54 4.24 19.93zm-4.88 -19.4l0.31 -0.31 0.33 -0.23 -0.64 0.54zm4.28 19.9l-0.04 0.03 -3.61 -20.47 0.04 -0.03 4.24 19.93 -0.64 0.54zm0.64 -0.54l-0.31 0.31 -0.33 0.23 0.64 -0.54zm0.06 -0.06l-0.06 0.06 -4.88 -19.4 0.06 -0.06 1.12 -0.83 3.76 20.22zm-4.88 -19.4l0.54 -0.54 0.58 -0.29 -1.12 0.83zm3.79 20.21l-0.03 0.01 -2.64 -21.05 0.03 -0.01 3.38 20.56 -0.74 0.49zm0.74 -0.49l-0.36 0.29 -0.38 0.19 0.74 -0.49zm0.05 -0.04l-0.05 0.04 -4.13 -20.08 0.05 -0.04 4.23 19.99 -0.1 0.09zm0.1 -0.09l-0.1 0.09 -0.02 0.01 0.12 -0.1zm0.06 -0.06l-0.06 0.06 -4.33 -19.9 0.06 -0.06 0.84 -0.58 3.49 20.48zm-4.33 -19.9l0.42 -0.36 0.43 -0.21 -0.84 0.58zm3.51 20.46l-0.03 0.01 -2.64 -21.05 0.03 -0.01 3.18 20.72 -0.54 0.33zm0.54 -0.33l-0.27 0.2 -0.27 0.14 0.54 -0.33zm0.05 -0.03l-0.05 0.03 -3.73 -20.39 0.05 -0.03 3.89 20.26 -0.16 0.12zm0.16 -0.12l-0.08 0.06 -0.08 0.06 0.16 -0.12zm0.06 -0.05l-0.06 0.05 -4.05 -20.14 0.06 -0.05 4.12 20.08 -0.07 0.06zm0.07 -0.06l-0.05 0.04 -0.02 0.02 0.07 -0.06zm0.03 -0.02l-0.03 0.02 -4.19 -20.02 0.03 -0.02 0.66 -0.46 3.53 20.48zm-4.19 -20.02l0.33 -0.28 0.33 -0.18 -0.66 0.46zm3.58 20.45l-0.05 0.03 -2.87 -20.93 0.05 -0.03 3.46 20.53 -0.59 0.4zm0.59 -0.4l-0.3 0.24 -0.29 0.16 0.59 -0.4zm0.06 -0.05l-0.06 0.05 -4.05 -20.14 0.06 -0.05 0.7 -0.46 3.35 20.59zm-4.05 -20.14l0.35 -0.28 0.35 -0.18 -0.7 0.46zm3.37 20.58l-0.03 0.01 -2.64 -21.05 0.03 -0.01 3.12 20.76 -0.48 0.29zm0.48 -0.29l-0.25 0.17 -0.23 0.12 0.48 -0.29zm0.04 -0.03l-0.04 0.03 -3.61 -20.47 0.04 -0.03 0.03 -0.02 3.58 20.49zm-3.61 -20.47l0.06 -0.05 -0.03 0.03 -0.03 0.02zm3.64 20.45l-0.07 0.05 -3.55 -20.51 0.07 -0.05 0.28 -0.17 3.27 20.69zm-3.55 -20.51l0.14 -0.1 0.14 -0.08 -0.28 0.17zm3.3 20.67l-0.03 0.02 -2.99 -20.86 0.03 -0.02 3.12 20.79 -0.13 0.08zm0.13 -0.08l-0.02 0.01 -0.11 0.06 0.13 -0.08zm0.03 -0.02l-0.03 0.02 -3.26 -20.71 0.03 -0.02 0.09 -0.05 3.17 20.76zm-3.26 -20.71l0.09 -0.05 -0.13 0.08 0.04 -0.03zm3.24 20.72l-0.07 0.04 -3.08 -20.81 0.07 -0.04 3.17 20.76 -0.09 0.05zm0.09 -0.05l-0.09 0.05 0.13 -0.08 -0.04 0.03zm0.03 -0.02l-0.03 0.02 -3.26 -20.71 0.03 -0.02 0 0 3.26 20.71zm0.03 -0.02l-0.03 0.02 -3.26 -20.71 0.03 -0.02 0.46 -0.24 2.79 20.95zm-3.26 -20.71l0.21 -0.13 0.25 -0.11 -0.46 0.24zm2.86 20.92l-0.07 0.03 -2.33 -21.2 0.07 -0.03 2.62 21.05 -0.29 0.14zm0.29 -0.14l-0.14 0.08 -0.16 0.07 0.29 -0.14zm0.04 -0.02l-0.04 0.02 -2.92 -20.91 0.04 -0.02 2.95 20.88 -0.04 0.02zm0.04 -0.02l0 0 -0.04 0.02 0.04 -0.02zm0.03 -0.02l-0.03 0.02 -2.99 -20.86 0.03 -0.02 0.17 -0.09 2.82 20.96zm-2.99 -20.86l0.09 -0.05 0.09 -0.04 -0.17 0.09zm2.89 20.92l-0.07 0.03 -2.64 -21.05 0.07 -0.03 0.14 -0.06 2.51 21.11zm-2.64 -21.05l0.06 -0.03 0.08 -0.03 -0.14 0.06zm2.55 21.1l-0.04 0.02 -2.37 -21.18 0.04 -0.02 2.68 21.02 -0.31 0.16zm0.31 -0.16l-0.15 0.09 -0.16 0.07 0.31 -0.16zm0.03 -0.02l-0.03 0.02 -2.99 -20.86 0.03 -0.02 0.25 -0.13 2.75 20.99zm-2.99 -20.86l0.12 -0.06 0.13 -0.06 -0.25 0.13zm2.82 20.96l-0.07 0.03 -2.5 -21.12 0.07 -0.03 2.57 21.08 -0.07 0.03zm0.07 -0.03l0 0 -0.07 0.03 0.07 -0.03zm0.03 -0.02l-0.03 0.02 -2.64 -21.05 0.03 -0.02 0.64 -0.24 2 21.29zm-2.64 -21.05l0.31 -0.16 0.33 -0.08 -0.64 0.24zm2.03 21.28l-0.03 0.01 -1.36 -21.53 0.03 -0.01 2 21.29 -0.64 0.24zm0.64 -0.24l-0.31 0.16 -0.33 0.08 0.64 -0.24zm0.07 -0.03l-0.07 0.03 -2.64 -21.05 0.07 -0.03 0.51 -0.2 2.13 21.26zm-2.64 -21.05l0.26 -0.13 0.26 -0.08 -0.51 0.2zm2.17 21.24l-0.04 0.01 -1.62 -21.46 0.04 -0.01 1.95 21.34 -0.33 0.12zm0.33 -0.12l-0.19 0.08 -0.14 0.04 0.33 -0.12zm0.03 -0.01l-0.03 0.01 -2.28 -21.21 0.03 -0.01 0.14 -0.06 2.15 21.27zm-2.28 -21.21l0.08 -0.03 0.06 -0.02 -0.14 0.06zm2.22 21.24l-0.07 0.03 -2.01 -21.32 0.07 -0.03 0.27 -0.09 1.74 21.41zm-2.01 -21.32l0.16 -0.06 0.11 -0.03 -0.27 0.09zm1.79 21.4l-0.05 0.01 -1.48 -21.5 0.05 -0.01 2.76 20.82 -1.29 0.68zm1.29 -0.68l-0.63 0.5 -0.66 0.18 1.29 -0.68zm0.02 -0.02l-0.02 0.02 -4.05 -20.14 0.02 -0.02 1.23 -0.67 2.82 20.8zm-4.05 -20.14l0.6 -0.48 0.64 -0.19 -1.23 0.67zm2.89 20.78l-0.07 0.02 -1.59 -21.47 0.07 -0.02 1.6 21.46 -0.02 0zm0.02 -0l-0.02 0 0.14 -0.04 -0.13 0.04zm0.04 -0.01l-0.04 0.01 -1.62 -21.46 0.04 -0.01 1.71 21.43 -0.09 0.03zm0.09 -0.03l-0.09 0.03 -0.04 0.01 0.13 -0.04zm0.03 -0.01l-0.03 0.01 -1.79 -21.4 0.03 -0.01 0.06 -0.02 1.74 21.42zm-1.79 -21.4l0.06 -0.02 -0.07 0.02 0.01 -0zm1.8 21.4l-0.07 0.02 -1.68 -21.43 0.07 -0.02 0.39 -0.09 1.29 21.53zm-1.68 -21.43l0.2 -0.06 0.19 -0.03 -0.39 0.09zm1.34 21.52l-0.05 0.01 -0.9 -21.62 0.05 -0.01 1.77 21.34 -0.87 0.29zm0.87 -0.29l-0.42 0.21 -0.45 0.07 0.87 -0.29zm0.03 -0.01l-0.03 0.01 -2.64 -21.05 0.03 -0.01 0.74 -0.26 1.9 21.32zm-2.64 -21.05l0.37 -0.18 0.37 -0.08 -0.74 0.26zm2.02 21.29l-0.12 0.03 -1.16 -21.58 0.12 -0.03 1.9 21.32 -0.74 0.26zm0.74 -0.26l-0.37 0.18 -0.37 0.08 0.74 -0.26zm0.02 -0.01l-0.02 0.01 -2.64 -21.05 0.02 -0.01 1.02 -0.31 1.62 21.36zm-2.64 -21.05l0.5 -0.25 0.52 -0.06 -1.02 0.31zm1.7 21.35l-0.08 0.01 -0.61 -21.66 0.08 -0.01 1.04 21.58 -0.43 0.08zm0.43 -0.08l-0.2 0.06 -0.23 0.03 0.43 -0.08zm0.05 -0.01l-0.05 0.01 -1.48 -21.5 0.05 -0.01 2.06 21.28 -0.58 0.23zm0.58 -0.23l-0.29 0.14 -0.29 0.08 0.58 -0.23zm0.02 -0.01l-0.02 0.01 -2.64 -21.05 0.02 -0.01 1 -0.31 1.64 21.36zm-2.64 -21.05l0.49 -0.25 0.51 -0.06 -1 0.31zm1.71 21.35l-0.07 0.01 -0.64 -21.66 0.07 -0.01 0.74 21.65 -0.1 0.01zm0.1 -0.01l-0.1 0.01 0.06 -0.01 0.03 -0zm0.06 -0.01l-0.06 0.01 -0.84 -21.64 0.06 -0.01 0.42 -0.03 0.42 21.67zm-0.84 -21.64l0.2 -0.03 0.22 0 -0.42 0.03zm0.43 21.67l-0.01 0 0 -21.7 0.01 0 0 0 0 21.7zm0.01 0l-0.01 0 0 -21.7 0.01 0 0.35 0.02 -0.35 21.68zm0 -21.7l0.19 0 0.16 0.02 -0.35 -0.02zm-12.48 -3.24l-3.07 -20.82 0.12 -0.06 3.17 -1.53 3.1 -1.16 3.02 -0.8 2.92 -0.46 2.83 -0.15 2.72 0.15 2.6 0.43 2.48 0.68 2.36 0.93 2.23 1.15 2.08 1.36 1.95 1.57 1.81 1.78 1.66 2 1.53 2.25 1.38 2.57 1.2 2.95 0.98 3.5 0.63 4.11 0.1 4.61 -0.56 4.57 -1.12 4.01 -1.5 3.18 -1.7 2.43 -1.86 1.87 -2.03 1.46 -2.21 1.11 -2.43 0.81 -2.66 0.53 -2.92 0.26 -3.2 -0.03 -3.48 -0.32 0.71 -21.66 3.06 0.29 2.7 0.02 2.36 -0.21 2.01 -0.4 1.65 -0.56 1.29 -0.64 0.91 -0.65 0.54 -0.54 0.18 -0.24 -0.14 0.3 -0.26 0.94 -0.17 1.37 0.02 1.3 0.11 0.76 0.03 0.12 -0.16 -0.39 -0.38 -0.71 -0.62 -0.9 -0.84 -1.01 -1.04 -1.03 -1.24 -1 -1.42 -0.93 -1.58 -0.82 -1.74 -0.68 -1.88 -0.52 -2.01 -0.33 -2.13 -0.12 -2.25 0.12 -2.35 0.38 -2.45 0.65 -2.53 0.95 -2.62 1.27 0.12 -0.06zm-3.07 -20.82l0.04 -0.02 0.08 -0.04 -0.12 0.06z"/>
   </g>
   <path class="fil0" d="M126.1 111.75c15.09,-5.34 15.94,5.14 23.88,23.37l110.02 270.33c13.8,32.65 40.86,34.85 64.38,22.93l-132.03 -324.8c-16.06,-36.07 -60.92,-29.82 -66.24,8.17z"/>
  </g>
  <path class="fil0" d="M1217.7 253.47l-0.05 -0.16 -0.4 -1.14 -0.04 -0.12 -0.23 -0.62 -0.06 -0.16 -0.17 -0.46 -0.23 -0.62 -0.22 -0.57 -0.02 -0.05 -0.24 -0.61 -0.24 -0.59 -0 -0.01 -0.25 -0.61 -0.26 -0.6 -0.01 -0.03 -0.25 -0.57 -0.27 -0.59 -0.03 -0.06 -0.11 -0.24 -0.41 -0.87 -0.04 -0.08 -0.24 -0.49 -0.29 -0.57 -0.22 -0.44 -0.06 -0.13 -0.3 -0.55 -0.07 -0.13 -0.23 -0.42 -0.3 -0.55 -0.09 -0.16 -0.53 -0.92 -0.11 -0.19 -0.21 -0.34 -0.32 -0.52 -0.14 -0.22 -0.19 -0.3 -0.32 -0.51 -0.16 -0.23 -0.18 -0.27 -0.52 -0.75 -0.16 -0.24 -0.35 -0.49 -0.2 -0.27 -0.14 -0.2 -0.58 -0.76 -0.14 -0.17 -0.36 -0.46 -0.24 -0.3 -0.13 -0.14 -0.37 -0.44 -0.27 -0.32 -0.11 -0.12 -0.06 -0.13 -0.3 -0.32 -0.08 -0.09 -0.39 -0.41 -0.33 -0.34 -0.06 -0.06 -0.4 -0.39 -0.36 -0.34 -0.04 -0.04 -0.14 -0.12 -0.65 -0.59 -0.02 -0.02 -0.44 -0.2 -0.48 -0.29 -161.27 -59.98c-9.28,30.02 -6.48,49.61 18.71,60.81l146.38 52.72 -4.08 -3.04 0.09 0.07 0 0 0.07 0.07 0.08 0.07 0.01 0 0.07 0.07 0.07 0.07 0 0.01 0.07 0.06 0.07 0.08 0.01 0 0.06 0.07 0.07 0.07 0 0.02 0.06 0.06 0.07 0.08 0.01 0.01 0.06 0.08 0.07 0.08 0.01 0.02 0.06 0.06 0.06 0.08 0.01 0.02 0.06 0.06 0.06 0.09 0.01 0.03 0.05 0.07 0.06 0.09 0.02 0.01 0.04 0.06 0.06 0.09 0.01 0.02 0.04 0.06 0.06 0.09 0.02 0.03 0.04 0.06 0.06 0.09 0.01 0.03 0.04 0.07 0.05 0.08 0.02 0.03 0.03 0.06 0.05 0.09 0.03 0.03 0.03 0.06 0.05 0.09 0.02 0.04 0.03 0.06 0.04 0.09 0.03 0.05 0.03 0.05 0.04 0.09 0.03 0.05 0.03 0.05 0.03 0.09 0.03 0.05 0.02 0.04 0.04 0.1 0.03 0.06 0.01 0.04 0.05 0.09 0.02 0.06 0.02 0.04 0.05 0.09 0.02 0.06 0.02 0.04 0.04 0.1 0.03 0.06 0.01 0.03 0.04 0.1 0.02 0.06 0.01 0.04 0.03 0.09 0.02 0.07 12.25 -31.13z"/>
  <path class="fil0" d="M1201.43 229.29c7.4,16.29 3.13,13.43 -8.17,28.52l-181.28 197.51 -1.12 3.12c-0.01,-144.97 0,-296.72 -0.07,-458.44 -17.63,1.08 -54.01,3.88 -54.01,45.87l0.04 392.3c-0.12,1.96 0.19,2.4 0.21,4.12 -0.25,48.64 30.54,79.43 75.47,58.73 9.87,-6.25 19.63,-16.91 27.49,-23.76l157.33 -180.56c24.29,-22.32 11.89,-59.91 -15.9,-67.41z"/>
  <path class="fil2" d="M501.6 122.43l-84.82 0 0 129.24 82.89 0c19.2,0 33.69,-5.78 43.33,-17.43 9.72,-12.49 14.58,-28.16 14.58,-47.19 0,-19.03 -4.86,-34.45 -14.58,-46.43 -8.97,-12.15 -22.8,-18.19 -41.4,-18.19zm-84.82 172.99l-0.39 100.12c-1.65,32.48 -18.05,41.65 -46.77,39.7l0.39 -356.56 132.34 0c33.95,0 59.43,10.56 76.35,31.68 16.93,21.12 25.48,46.18 25.65,75.35 -0.17,29.17 -7.46,53.73 -21.96,73.92 -14.5,20.11 -36.96,31.43 -67.21,34.11l92.69 131.42c-24.16,16.56 -47.72,15.33 -66.09,-12.44l-80.58 -117.3 -44.42 0z"/>
  <path class="fil2" d="M647.44 122.43c-0.14,-28.16 11.58,-43.53 37.93,-43.75l220.04 0c-0.43,29.83 -15.15,43.35 -42.45,43.75l-63.16 0 0.23 312.52c-28.17,-0.19 -45.2,-6.04 -46.77,-41.51l-0.23 -271.01 -105.6 0z"/>
  <path class="fil2" d="M1282.5 433.56l0 -354.87 204.67 0c-0.33,30.16 -7.47,43.71 -34.77,43.44l-123.14 0.3 0 110.64 96.74 0c29.63,0.58 40.9,14.8 41.04,43.75l-137.79 0 0 112.99 162.94 0c-0.22,27.05 -8.99,43.48 -42.7,43.75l-167 0z"/>
  <path class="fil2" d="M1778.06 402.37l-22.76 -64.71 -147.01 0 -23.92 67.39c-9.98,29.51 -27.3,34.82 -59.4,25.7l116.35 -311.77c10.64,-31.35 29.03,-45.9 65.61,-40.31l131.17 352.08c-30.4,9.02 -50.46,1.88 -60.04,-28.39zm-96.1 -261.34l-57.5 153.88 114.66 0 -57.16 -153.88z"/>
  <path class="fil2" d="M1956.8 77.45l121.44 255.61 122.28 -254.37c25.55,-6.77 42.63,-2.64 46.29,29.13l38.61 325.75c-32.36,5.33 -46.07,-2.83 -50.53,-36.41l-27.33 -232.47 -108.29 222.19c-22.47,6.97 -41.69,1.91 -54.46,-26.96l-12.07 -24.62 -83.67 -170.61 -26.23 223.52c-2.04,36.9 -18.62,53.8 -51.63,45.37l38.73 -322.37c3.44,-26.6 19.14,-37.74 46.85,-33.73z"/>
 </g>
</svg>
