<?xml version="1.0" encoding="UTF-8"?>
<!DOCTYPE svg PUBLIC "-//W3C//DTD SVG 1.1//EN" "http://www.w3.org/Graphics/SVG/1.1/DTD/svg11.dtd">
<!-- Creator: CorelDRAW 2018 (64-Bit Evaluation Version) -->
<svg xmlns="http://www.w3.org/2000/svg" xml:space="preserve" width="145.546mm" height="23.8972mm" version="1.1" style="shape-rendering:geometricPrecision; text-rendering:geometricPrecision; image-rendering:optimizeQuality; fill-rule:evenodd; clip-rule:evenodd"
viewBox="0 0 8581.15 1408.94"
 xmlns:xlink="http://www.w3.org/1999/xlink">
 <defs>
  <style type="text/css">
   <![CDATA[
    .str2 {stroke:#1D9CD3;stroke-width:4.99;stroke-miterlimit:22.9256}
    .str3 {stroke:#F56F45;stroke-width:4.99;stroke-miterlimit:22.9256}
    .str0 {stroke:#1D9CD3;stroke-width:11.79;stroke-miterlimit:22.9256}
    .str1 {stroke:#F56F45;stroke-width:11.79;stroke-miterlimit:22.9256}
    .fil2 {fill:#1D9CD3}
    .fil4 {fill:#1D9CD3}
    .fil3 {fill:#F56F45}
    .fil5 {fill:#F56F45}
    .fil0 {fill:#3F4040;fill-rule:nonzero}
    .fil1 {fill:#F56F45;fill-rule:nonzero}
   ]]>
  </style>
 </defs>
 <g id="Layer_x0020_1">
  <metadata id="CorelCorpID_0Corel-Layer"/>
  <g id="_1872430818800">
   <path class="fil0" d="M1883.93 720.87c-59.85,53.13 -89.94,125.46 -89.94,216.68 0,91.22 28.81,163.56 86.1,217.33 57.61,53.77 127.7,80.66 209.96,80.66 82.58,0 151.71,-28.16 207.08,-84.5 56.33,-56.01 84.5,-127.7 84.5,-214.44 0,-87.06 -27.85,-157.8 -83.54,-212.85 -55.37,-55.05 -123.23,-82.26 -203.24,-81.62 -80.02,0 -150.43,26.24 -210.92,78.74zm-266.62 666.37l0 -1251.93c-0.85,-99.07 66.96,-135.45 174.75,-132.67l0 622.53c61.13,-102.74 166.12,-153.95 314.94,-153.95 129.63,0 237.48,43.2 323.58,129.63 86.42,85.45 129.63,197.8 129.63,336.71 0,138.59 -44.81,251.58 -134.1,338.31 -89.62,87.06 -196.53,130.59 -321.03,130.59 -66.25,0 -128.03,-14.4 -185.64,-43.21 -57.29,-28.81 -99.86,-66.57 -127.39,-113.62 -0.18,114.17 -64.67,140.19 -174.75,137.63z"/>
   <path class="fil0" d="M2838 1387.24c-97.73,3.04 -172.36,-22.55 -174.75,-108.19l0 -788.63c115.24,-1.31 174.19,26.35 174.75,120.53l0 81.75c43.85,-147.55 126.75,-221.48 249.33,-221.48 70.74,0 122.59,11.52 155.87,34.25 -24.93,91.79 -73.85,142.56 -158.2,132.83 -0.39,-0.05 -0.8,-0.01 -1.2,-0.01 -79.05,0 -139.55,37.77 -182.12,113.31 -31.6,56.31 -58.62,127.23 -59.48,214.01l-4.22 421.64z"/>
   <path class="fil0" d="M3320.34 1387.24l0 -757.73c0.58,-102.39 66.16,-139.17 174.75,-139.09l0 777.02c-0.44,95.02 -63.04,121.83 -174.75,119.8z"/>
   <path class="fil1" d="M3321.62 240.77c-22.73,-22.09 -33.92,-48.97 -33.92,-80.66 0,-32.01 11.2,-58.58 33.92,-80.66 25.28,-21.76 53.77,-32.65 86.1,-32.65 32.33,0 60.82,10.57 85.14,31.68 24.64,21.45 36.81,48.65 36.81,81.62 0,32.96 -12.17,60.17 -36.81,81.62 -24.32,21.12 -52.81,31.68 -85.14,31.68 -32.33,0 -60.82,-10.88 -86.1,-32.65z"/>
   <path class="fil0" d="M4489.76 1387.24l0 -1260.11c-0.48,-86.65 82.54,-124.21 174.75,-124.5l0 800.17 246.48 -248.77c76.24,-80.95 171.06,-106.79 301.15,-63.62l-384.4 387.28 476.25 509.54c-116.76,19.14 -219.12,10.25 -288.82,-62.24l-350.67 -375.92 0 310.9c-3.7,80.37 -71.39,124.58 -174.75,127.27z"/>
   <path class="fil0" d="M5768.26 471.22c138.27,0 251.57,48.33 340.23,144.67 -77.91,50.82 -164.89,82.34 -291.18,30.2 -0.51,-0.21 -1.1,-0.17 -1.66,-0.25 -16.45,-2.47 -33.54,-3.71 -51.23,-3.71 -84.17,0 -155.87,27.2 -214.76,81.93 -59.21,53.77 -88.98,125.14 -88.98,214.44 0,88.98 30.09,161.31 89.94,217 60.17,56.02 131.87,83.86 215.72,83.86 39.33,0 75.47,-6.38 108.38,-19.13 1.07,-0.41 2.23,-0.67 3.21,-1.27 88.42,-54.51 163.86,-27.1 232.48,43.45 -89.3,96.02 -202.28,144.03 -338.31,144.03 -136.35,0 -251.57,-43.21 -345.67,-129.63 -93.78,-87.69 -140.51,-200.36 -140.51,-338.31 0,-137.94 46.09,-250.29 137.94,-336.71 92.18,-86.42 206.77,-129.94 344.39,-130.59z"/>
   <path class="fil0" d="M4082.25 471.22c138.27,0 251.57,48.33 340.23,144.67 -58.78,77.78 -134.21,101.03 -233.84,45.08 -1.57,-0.88 -3.4,-1.25 -5.11,-1.85 -32.19,-11.31 -67.24,-16.98 -105.12,-16.98 -84.17,0 -155.87,27.2 -214.76,81.93 -59.21,53.77 -88.98,125.14 -88.98,214.44 0,88.98 30.09,161.31 89.94,217 60.17,56.02 131.87,83.86 215.72,83.86 36.63,0 70.5,-5.53 101.57,-16.6 1.26,-0.45 2.55,-0.83 3.76,-1.37 101.03,-45.32 177.33,-22.61 238.75,41.02 -89.3,96.02 -202.28,144.03 -338.31,144.03 -136.35,0 -251.57,-43.21 -345.67,-129.63 -93.78,-87.69 -140.51,-200.36 -140.51,-338.31 0,-137.94 46.09,-250.29 137.94,-336.71 92.18,-86.42 206.76,-129.94 344.39,-130.59z"/>
   <path class="fil0" d="M7064.64 936.27c0,39.68 -0.64,62.41 -1.92,68.81l-727.82 0c8.64,72.34 40.65,132.19 95.7,179.88 53.13,43.85 112.66,65.93 178.92,65.93 72.62,0 139.51,-14.57 193.4,-51.62 0.92,-0.64 1.93,-1.16 2.74,-1.92 72.66,-67.43 148.4,-67.74 226.02,-27.45 -36.81,75.54 -92.5,133.79 -167.08,174.76 -74.25,41.28 -156.19,61.77 -245.49,61.77 -128.35,0 -237.81,-43.21 -329.02,-129.94 -86.73,-86.74 -129.94,-200.36 -129.94,-340.23 0,-140.19 43.21,-252.53 129.3,-337.35 86.42,-84.5 195.56,-127.06 328.07,-127.7 132.5,0 239.41,42.89 320.7,128.35 84.17,85.14 126.42,197.48 126.42,336.71zm-261.81 -245.17c-49.93,-42.89 -112.02,-64.34 -185.64,-64.34 -73.93,0 -137.31,21.45 -190.44,64.34 -52.49,45.77 -83.21,105.3 -91.86,177.64l555.95 0c-8.64,-72.34 -38.09,-131.87 -88.02,-177.64z"/>
   <path class="fil0" d="M7334.01 903.63l0 483.62c-128.52,0.8 -174.75,-7.69 -174.75,-137.72l0 -759.1c108.39,-1.32 172.98,11.22 174.75,93.79l0 40.96c25.61,-49.93 64.01,-88.34 115.54,-114.59 51.21,-26.24 106.26,-39.37 164.84,-39.37 112.66,0 197.48,34.57 254.77,104.02 59.85,68.17 90.25,166.11 90.9,293.5l0 406.78c-0.2,79.08 -43.78,114.21 -174.75,111.73l0 -506.98c0,-75.53 -17.92,-133.79 -53.45,-174.43 -34.57,-42.57 -85.45,-63.69 -152.99,-63.69 -68.17,0 -126.11,22.08 -173.47,66.57 -47.69,44.17 -71.37,109.46 -71.37,194.92z"/>
   <path class="fil0" d="M8392.96 304.7l0 185.72 51.52 0c96.5,-1.28 135.2,45.4 136.67,155.55l-188.2 0 0 741.27c-109.53,1.09 -169.87,-26.58 -174.75,-146.55l0 -594.72 -32.79 0c-117.3,-1.23 -126.43,-75.35 -128.52,-155.55l161.32 0 0 -328.39c109,-2.32 168.81,30.46 174.75,142.67z"/>
  </g>
  <g id="_1872430823536">
   <g>
    <path class="fil2 str0" d="M1240.04 7.49c-319.9,0 -718,234.24 -718,688.13 0,492.87 338.54,706.36 718,706.36l-540.67 -690.51 540.67 -703.98z"/>
    <path class="fil3 str1" d="M168.9 6.96c158.57,0 355.9,116.11 355.9,341.1 0,244.32 -167.81,350.14 -355.9,350.14l268 -342.28 -268 -348.96z"/>
    <path class="fil3 str1" d="M168.9 710c158.57,0 355.9,116.11 355.9,341.1 0,244.31 -167.81,350.14 -355.9,350.14l268 -342.29 -268 -348.96z"/>
   </g>
   <polygon class="fil4 str2" points="1365.79,43.53 1299.38,2.5 1406.44,2.5 1406.44,124.31 "/>
   <polygon class="fil5 str3" points="43.13,43.53 109.57,2.5 2.5,2.5 2.5,124.32 "/>
   <polygon class="fil4 str2" points="1365.8,1365.41 1299.38,1406.44 1406.45,1406.44 1406.45,1284.63 "/>
   <polygon class="fil5 str3" points="43.13,1365.42 109.57,1406.45 2.5,1406.45 2.5,1284.63 "/>
  </g>
 </g>
</svg>
