<svg xmlns="http://www.w3.org/2000/svg" xmlns:xlink="http://www.w3.org/1999/xlink" width="360" height="360"
     viewBox="0 0 1000 1000">
    <defs>
        <style>
            .cls-1 {
            clip-path: url(#clip-Green_Step_2_);
            }

            .cls-2 {
            fill: #d7edc8;
            }

            .cls-3 {
            fill: #328e34;
            }

            .cls-4 {
            fill: #bfe576;
            }

            .cls-5 {
            fill: #38a33f;
            }

            .cls-6 {
            fill: #bc2222;
            }

            .cls-7 {
            fill: #397f14;
            }

            .cls-8 {
            fill: #ce3c3c;
            }

            .cls-9 {
            fill: #543724;
            }

            .cls-10 {
            fill: #e8cd5b;
            }

            .cls-11 {
            fill: #ffe35a;
            }

            .cls-12 {
            fill: #f0a70f;
            }

            .cls-13 {
            fill: #fcc332;
            }

            .cls-14 {
            fill: #ffeb5c;
            }

            .cls-15 {
            fill: #704a1f;
            }

            .cls-16 {
            fill: #39b54a;
            }

            .cls-17 {
            fill: #f47621;
            }

            .cls-18 {
            fill: #ba5624;
            }

            .cls-19 {
            fill: #d17537;
            }

            .cls-20 {
            fill: #f9b458;
            }

            .cls-21 {
            fill: #55aa2b;
            }

            .cls-22 {
            fill: #79d647;
            }

            .cls-23 {
            fill: #5bb222;
            }

            .cls-24 {
            fill: #6cc13a;
            }

            .cls-25 {
            fill: #aee090;
            }

            .cls-26, .cls-31 {
            fill: #FFFFFF;
            }

            .cls-26 {
            stroke: #1B9BD9;
            stroke-miterlimit: 10;
            stroke-width: 1.099px;
            }

            .cls-27 {
            fill: #f6ab1b;
            }

            .cls-28 {
            fill: #f2d296;
            }

            .cls-29 {
            fill: rgba(0,0,0,0.27);
            }

            .cls-30 {
            fill: #F6AB1B;
            }

            .cls-32 {
            fill: #F6AB1B;
            }
        </style>
        <clipPath id="clip-Green_Step_2_">
            <rect width="1000" height="1000"/>
        </clipPath>
    </defs>
    <g id="Green_Step_2_" data-name="Green Step_2 " class="cls-1">
        <path id="Path_520" data-name="Path 520" class="cls-2"
              d="M711.452,789.4c0,240.212-194.731,434.943-434.943,434.943S-158.434,1029.607-158.434,789.4,36.3,354.452,276.509,354.452,711.452,549.183,711.452,789.4"
              transform="translate(223.434 -289.452)"/>
        <g id="Group_444" data-name="Group 444" transform="matrix(0.998, -0.07, 0.07, 0.998, 269.969, 168.814)">
            <g id="Group_412" data-name="Group 412" transform="translate(107.51 47.003)">
                <g id="Group_400" data-name="Group 400" transform="translate(0 0)">
                    <path id="Path_522" data-name="Path 522" class="cls-3"
                          d="M32.209,3.819,25.48,6.843A43.047,43.047,0,0,0,3.832,63.852L19.6,98.726C39.808,143.4,82.3,137.4,82.3,137.4a4.656,4.656,0,0,1,2.343,2.331l16.794,37.131a1.273,1.273,0,0,0,1.682.635l6.189-2.781a1.267,1.267,0,0,0,.636-1.677L93.2,136.022a4.637,4.637,0,0,1-.2-3.282s33.926-24.387,12.18-72.467L89.4,25.4A43.3,43.3,0,0,0,32.209,3.819Z"
                          transform="translate(0 0)"/>
                    <g id="Group_391" data-name="Group 391" transform="translate(37.055 24.015)">
                        <g id="Group_390" data-name="Group 390" transform="translate(0)">
                            <path id="Path_523" data-name="Path 523" class="cls-4"
                                  d="M.967,0,72.4,150.631l-6.457,2.9L0,.435Z" transform="translate(0)"/>
                        </g>
                    </g>
                    <g id="Group_393" data-name="Group 393" transform="translate(23.796 19.561)">
                        <g id="Group_392" data-name="Group 392" transform="translate(0)">
                            <path id="Path_524" data-name="Path 524" class="cls-4"
                                  d="M0,15.107c2.04.853,4.056,1.757,6.07,2.661s4.017,1.834,6.01,2.781,3.985,1.9,5.972,2.856,3.958,1.95,5.939,2.923l-1,.443c.61-2.248,1.247-4.488,1.869-6.732.653-2.236,1.282-4.478,1.957-6.708s1.348-4.46,2.044-6.684l1.071-3.329Q30.481,1.654,31.054,0q-.349,1.715-.728,3.422l-.774,3.41c-.534,2.268-1.078,4.534-1.645,6.793s-1.155,4.513-1.733,6.769c-.608,2.248-1.2,4.5-1.82,6.745l-.23.832-.765-.39c-1.966-1-3.941-1.983-5.9-3s-3.921-2.025-5.866-3.068C9.643,20.485,7.7,19.428,5.767,18.369S1.905,16.229,0,15.107Z"
                                  transform="translate(0)"/>
                        </g>
                    </g>
                    <g id="Group_395" data-name="Group 395" transform="translate(28.622 36.907)">
                        <g id="Group_394" data-name="Group 394">
                            <path id="Path_525" data-name="Path 525" class="cls-4"
                                  d="M0,18.878q1.909.805,3.8,1.638L7.584,22.2l3.762,1.723c1.257.57,2.5,1.167,3.748,1.751s2.5,1.167,3.737,1.771l3.725,1.8c1.244.593,2.477,1.209,3.713,1.819l3.707,1.833-1.244.553c.371-1.407.777-2.8,1.163-4.207l1.173-4.2c.815-2.794,1.6-5.6,2.445-8.382l1.259-4.181L36.065,8.3,37.4,4.144Q38.081,2.067,38.8,0q-.436,2.143-.91,4.275l-.966,4.261-1.01,4.248-1.046,4.239c-.693,2.827-1.443,5.638-2.164,8.457L31.57,29.7c-.382,1.4-.744,2.813-1.141,4.213l-.294,1.034-.95-.481L25.5,32.594c-1.229-.623-2.461-1.241-3.682-1.881l-3.67-1.9c-1.226-.63-2.439-1.285-3.658-1.929s-2.439-1.286-3.647-1.949L7.207,22.954,3.592,20.939Q1.786,19.927,0,18.878Z"/>
                        </g>
                    </g>
                    <g id="Group_397" data-name="Group 397" transform="translate(34.554 55.201)">
                        <g id="Group_396" data-name="Group 396" transform="translate(0)">
                            <path id="Path_526" data-name="Path 526" class="cls-4"
                                  d="M0,21.8q2.2.93,4.393,1.892c1.461.637,2.91,1.3,4.366,1.947L13.1,27.627c1.45.659,2.885,1.348,4.327,2.023S20.315,31,21.745,31.7l4.3,2.074c1.437.685,2.861,1.4,4.288,2.1l4.28,2.116-1.436.638c.428-1.625.9-3.238,1.343-4.858l1.355-4.855,1.4-4.842c.466-1.614.933-3.229,1.422-4.837L40.152,14.4l1.5-4.817.77-2.4.776-2.4Q43.976,2.386,44.8,0q-.5,2.475-1.05,4.938L43.2,7.4l-.561,2.459-1.166,4.906-1.208,4.895c-.4,1.633-.818,3.26-1.24,4.886l-1.26,4.88-1.307,4.867c-.441,1.621-.86,3.249-1.319,4.865L34.8,40.35,33.7,39.8l-4.259-2.157c-1.42-.719-2.842-1.433-4.251-2.172l-4.239-2.2c-1.416-.727-2.817-1.484-4.224-2.228s-2.816-1.485-4.212-2.251L8.321,26.5c-1.391-.776-2.789-1.538-4.174-2.326S1.377,22.6,0,21.8Z"
                                  transform="translate(0)"/>
                        </g>
                    </g>
                    <g id="Group_399" data-name="Group 399" transform="translate(37.872 71.26)">
                        <g id="Group_398" data-name="Group 398" transform="translate(0 0)">
                            <path id="Path_527" data-name="Path 527" class="cls-4"
                                  d="M0,26.719c1.8.753,3.6,1.533,5.384,2.319s3.567,1.592,5.351,2.386L13.4,32.641l2.66,1.222c1.778.807,3.537,1.652,5.3,2.479s3.536,1.652,5.289,2.508l5.272,2.543c.877.426,1.76.842,2.632,1.278l2.623,1.3,5.246,2.594-1.76.783c.525-1.991,1.1-3.969,1.646-5.955l1.661-5.951L45.692,29.5c.571-1.979,1.143-3.957,1.743-5.928l1.782-5.918,1.833-5.9.944-2.945c.318-.981.623-1.965.951-2.943C53.588,3.907,54.236,1.948,54.919,0c-.405,2.024-.844,4.039-1.287,6.052-.216,1.009-.455,2.011-.68,3.016l-.688,3.015L50.834,18.1l-1.481,6c-.488,2-1,4-1.519,5.989l-1.545,5.983-1.6,5.967c-.541,1.987-1.054,3.982-1.617,5.963l-.415,1.463-1.344-.681L36.09,46.135l-2.61-1.322c-.872-.436-1.734-.893-2.6-1.341l-5.2-2.7c-1.736-.89-3.452-1.819-5.177-2.73s-3.452-1.82-5.163-2.759l-2.573-1.4-2.57-1.4c-1.7-.951-3.419-1.885-5.117-2.851S1.684,27.711,0,26.719Z"
                                  transform="translate(0 0)"/>
                        </g>
                    </g>
                </g>
                <g id="Group_411" data-name="Group 411" transform="translate(78.63 15.73)">
                    <path id="Path_528" data-name="Path 528" class="cls-5"
                          d="M44.851.253,38.688.025a36.089,36.089,0,0,0-37.45,34.66L.05,66.632C-1.472,107.552,32.57,118.79,32.57,118.79a3.874,3.874,0,0,1,.884,2.614L32.19,155.416a1.062,1.062,0,0,0,1.021,1.1l5.671.209a1.062,1.062,0,0,0,1.1-1.017L41.245,121.8a3.876,3.876,0,0,1,1.068-2.534S76.8,113.571,78.435,69.53l1.187-31.947A36.067,36.067,0,0,0,44.851.253Z"
                          transform="translate(0 0)"/>
                    <g id="Group_402" data-name="Group 402" transform="translate(33.103 17.49)">
                        <g id="Group_401" data-name="Group 401" transform="translate(0)">
                            <path id="Path_529" data-name="Path 529" class="cls-4"
                                  d="M8.573.033,5.915,139.239,0,139.02,7.687,0Z" transform="translate(0)"/>
                        </g>
                    </g>
                    <g id="Group_404" data-name="Group 404" transform="translate(27.058 20.231)">
                        <g id="Group_403" data-name="Group 403" transform="translate(0)">
                            <path id="Path_530" data-name="Path 530" class="cls-4"
                                  d="M0,0C1.21,1.394,2.382,2.817,3.553,4.24S5.876,7.1,7.016,8.546s2.275,2.9,3.407,4.349,2.237,2.925,3.357,4.387l-.91-.038L16.778,12.9c1.322-1.432,2.629-2.878,3.964-4.3s2.671-2.84,4.021-4.247,2.715-2.8,4.114-4.165c-1.2,1.544-2.435,3.049-3.67,4.559s-2.5,2.995-3.763,4.476-2.547,2.951-3.819,4.426l-3.876,4.376-.479.542-.43-.579c-1.1-1.477-2.212-2.944-3.3-4.431S7.361,10.59,6.294,9.089s-2.136-3-3.192-4.51S1.009,1.545,0,0Z"
                                  transform="translate(0)"/>
                        </g>
                    </g>
                    <g id="Group_406" data-name="Group 406" transform="translate(22.802 37.824)">
                        <g id="Group_405" data-name="Group 405" transform="translate(0)">
                            <path id="Path_531" data-name="Path 531" class="cls-4"
                                  d="M0,0C1.511,1.742,2.975,3.519,4.438,5.3s2.9,3.573,4.327,5.381c.713.9,1.435,1.8,2.137,2.71l2.119,2.724c.71.905,1.4,1.822,2.1,2.737l2.092,2.744-1.137-.046c.8-.916,1.626-1.812,2.438-2.719l2.444-2.713c1.651-1.79,3.284-3.6,4.954-5.369S29.252,7.2,30.938,5.439L33.489,2.82q1.282-1.3,2.588-2.585Q34.953,1.678,33.8,3.1L31.492,5.931q-2.333,2.812-4.7,5.592c-1.572,1.859-3.182,3.686-4.772,5.53L19.6,19.788c-.809.909-1.606,1.83-2.425,2.731l-.6.666-.532-.712-2.065-2.764c-.688-.922-1.38-1.84-2.055-2.771L9.882,14.153c-.683-.925-1.347-1.865-2.019-2.8C6.515,9.49,5.194,7.606,3.875,5.719S1.26,1.93,0,0Z"
                                  transform="translate(0)"/>
                        </g>
                    </g>
                    <g id="Group_408" data-name="Group 408" transform="translate(19.337 55.903)">
                        <g id="Group_407" data-name="Group 407">
                            <path id="Path_532" data-name="Path 532" class="cls-4"
                                  d="M0,0Q1.3,1.513,2.583,3.043L5.125,6.116l2.511,3.1c.84,1.03,1.658,2.077,2.485,3.116s1.658,2.077,2.468,3.129L15.036,18.6c.82,1.045,1.621,2.1,2.427,3.16l2.415,3.168-1.313-.054c.926-1.057,1.878-2.092,2.816-3.139L24.2,18.607c1.906-2.066,3.792-4.152,5.72-6.2L32.812,9.33l2.914-3.052,2.947-3.023Q40.153,1.75,41.662.269q-1.3,1.666-2.626,3.307l-2.669,3.27-2.7,3.241L30.938,13.3c-1.816,2.147-3.674,4.257-5.511,6.385l-2.792,3.16C21.7,23.9,20.78,24.964,19.834,26l-.7.769-.614-.822-2.385-3.192c-.794-1.064-1.593-2.125-2.373-3.2L11.41,16.343c-.789-1.068-1.555-2.153-2.332-3.231S7.524,10.958,6.764,9.867L4.474,6.6,2.216,3.318Q1.093,1.67,0,0Z"/>
                        </g>
                    </g>
                    <g id="Group_410" data-name="Group 410" transform="translate(14.004 72.835)">
                        <g id="Group_409" data-name="Group 409" transform="translate(0)">
                            <path id="Path_533" data-name="Path 533" class="cls-4"
                                  d="M0,0Q1.6,1.853,3.167,3.73C4.217,4.977,5.243,6.242,6.282,7.5l3.077,3.8c1.03,1.262,2.032,2.546,3.047,3.819s2.031,2.546,3.025,3.836l3,3.855c1,1.281,1.987,2.579,2.974,3.873l2.961,3.884L22.757,30.5c1.135-1.3,2.3-2.564,3.452-3.848l3.46-3.84L33.167,19c1.165-1.27,2.331-2.539,3.514-3.792l3.539-3.77L43.791,7.7l1.8-1.855L47.4,3.992l1.822-1.839L51.068.333l-1.6,2.036-1.62,2.018L46.215,6.393l-1.638,2-3.311,3.973L37.922,16.31c-1.111,1.318-2.24,2.62-3.37,3.921l-3.385,3.906L27.745,28.01C26.6,29.3,25.472,30.6,24.313,31.875l-.856.941L22.7,31.809,19.781,27.9c-.974-1.3-1.953-2.6-2.909-3.923l-2.885-3.941c-.968-1.309-1.906-2.64-2.859-3.961s-1.906-2.641-2.837-3.977l-2.807-4C4.563,6.751,3.628,5.418,2.717,4.066S.9,1.363,0,0Z"
                                  transform="translate(0)"/>
                        </g>
                    </g>
                </g>
            </g>
            <g id="Group_415" data-name="Group 415" transform="translate(101.477 93.024)">
                <path id="Path_534" data-name="Path 534" class="cls-6"
                      d="M89.1,49.32C84.739,71.183,61.413,84.982,37,80.141S-3.656,53.652.709,31.789,28.4-3.874,52.808.968,93.467,27.457,89.1,49.32Z"
                      transform="translate(0 12.689)"/>
                <g id="Group_414" data-name="Group 414" transform="translate(17.669 0)">
                    <path id="Path_535" data-name="Path 535" class="cls-7"
                          d="M36.007,1.354C28.7-.953,12.921-.345,0,3.435,13.864,5.689,30.546,5.567,36.007,1.354Z"
                          transform="translate(0 12.109)"/>
                    <path id="Path_536" data-name="Path 536" class="cls-7"
                          d="M21.754,0C14.729.861,4.907,7.883,0,16.66,11.3,13.066,22.182,6.125,21.754,0Z"
                          transform="translate(14.436 13.697)"/>
                    <path id="Path_537" data-name="Path 537" class="cls-7"
                          d="M.372,0c-1.8,4.463,3.048,15.132,12.143,24.47C12.616,15.609,8.307,4.428.372,0Z"
                          transform="translate(35.147 13.564)"/>
                    <path id="Path_538" data-name="Path 538" class="cls-7"
                          d="M0,0C3.986,4.677,18.528,11.486,33.916,15.133,24.1,7.51,9.28,0,0,0Z"
                          transform="translate(33.789 13.313)"/>
                    <g id="Group_413" data-name="Group 413" transform="translate(34.071 0)">
                        <path id="Path_539" data-name="Path 539" class="cls-7"
                              d="M2.821,15.374,0,14.735,3.357,0,6.179.639Z"/>
                    </g>
                </g>
                <path id="Path_540" data-name="Path 540" class="cls-8"
                      d="M14.9,14.973c-3.856,4.383-11.232,3.882-13.647,1.77S.01,9.367,3.866,4.987,12.8-1.236,15.22.875,18.76,10.592,14.9,14.973Z"
                      transform="translate(8.855 22.678)"/>
            </g>
            <g id="Group_1664" data-name="Group 1664" transform="translate(316.868 195.298)">
                <path id="Path_534-2" data-name="Path 534" class="cls-6"
                      d="M89.1,49.32C84.739,71.183,61.413,84.982,37,80.141S-3.656,53.652.709,31.789,28.4-3.874,52.808.968,93.467,27.457,89.1,49.32Z"
                      transform="translate(0 12.689)"/>
                <g id="Group_414-2" data-name="Group 414" transform="translate(17.669 0)">
                    <path id="Path_535-2" data-name="Path 535" class="cls-7"
                          d="M36.007,1.354C28.7-.953,12.921-.345,0,3.435,13.864,5.689,30.546,5.567,36.007,1.354Z"
                          transform="translate(0 12.109)"/>
                    <path id="Path_536-2" data-name="Path 536" class="cls-7"
                          d="M21.754,0C14.729.861,4.907,7.883,0,16.66,11.3,13.066,22.182,6.125,21.754,0Z"
                          transform="translate(14.436 13.697)"/>
                    <path id="Path_537-2" data-name="Path 537" class="cls-7"
                          d="M.372,0c-1.8,4.463,3.048,15.132,12.143,24.47C12.616,15.609,8.307,4.428.372,0Z"
                          transform="translate(35.147 13.564)"/>
                    <path id="Path_538-2" data-name="Path 538" class="cls-7"
                          d="M0,0C3.986,4.677,18.528,11.486,33.916,15.133,24.1,7.51,9.28,0,0,0Z"
                          transform="translate(33.789 13.313)"/>
                    <g id="Group_413-2" data-name="Group 413" transform="translate(34.071 0)">
                        <path id="Path_539-2" data-name="Path 539" class="cls-7"
                              d="M2.821,15.374,0,14.735,3.357,0,6.179.639Z"/>
                    </g>
                </g>
                <path id="Path_540-2" data-name="Path 540" class="cls-8"
                      d="M14.9,14.973c-3.856,4.383-11.232,3.882-13.647,1.77S.01,9.367,3.866,4.987,12.8-1.236,15.22.875,18.76,10.592,14.9,14.973Z"
                      transform="translate(8.855 22.678)"/>
            </g>
            <g id="Group_416" data-name="Group 416" transform="translate(208.584 55.346)">
                <path id="Path_541" data-name="Path 541" class="cls-9"
                      d="M76.08,80.528l9.7-61.721,1.488.232a1.151,1.151,0,0,0,1.316-.956l1.069-6.8a1.148,1.148,0,0,0-.959-1.312L87.2,9.737l.672-4.274A1.324,1.324,0,0,0,86.767,3.95L61.567.016a1.329,1.329,0,0,0-1.518,1.1l-.671,4.274-1.313-.2a1.15,1.15,0,0,0-1.315.956l-1.069,6.8a1.148,1.148,0,0,0,.959,1.312l1.313.205-9.7,61.722a38.458,38.458,0,0,0-29.7,31.543L0,225.823l76.123,11.885L94.68,119.614A38.369,38.369,0,0,0,76.08,80.528Z"
                      transform="translate(0 0)"/>
                <rect id="Rectangle_288" data-name="Rectangle 288" class="cls-10" width="75.041" height="68.373"
                      transform="translate(9.311 196.115) rotate(-81.043)"/>
            </g>
            <g id="Group_417" data-name="Group 417" transform="translate(150.439 122.255)">
                <path id="Path_542" data-name="Path 542" class="cls-11"
                      d="M12.895,5.7c7.245,6.9,26.594,13.656,35.572,15.115,5.194.844,9.808.1,13.055.081a9.4,9.4,0,0,1,1.1-1.128,12.307,12.307,0,0,1,1.146-1.559c-3.052-.8-8.838.787-15.57-.306C39.218,16.446,19.869,9.686,12.625,2.789,8.844-.809,5.559-.592,3.052,1.552A22.642,22.642,0,0,0,.27,16.187,22.869,22.869,0,0,1,3.321,4.466C5.829,2.321,9.115,2.1,12.895,5.7Z"
                      transform="translate(103.022 161.594)"/>
                <path id="Path_543" data-name="Path 543" class="cls-12"
                      d="M16.317,114.67C-10.762,33.626,42.292,7.273,61.04.906A3.829,3.829,0,0,0,58.42.012c-2.814.259-82.9,19.6-50.871,115.466,27.829,69.412,79.125,74.693,96.808,71.163C82.135,186.8,40.424,174.8,16.317,114.67Z"
                      transform="translate(0 0.424)"/>
                <path id="Path_544" data-name="Path 544" class="cls-12"
                      d="M59.8,32.576c-2.351-2.925-5.606-6.946-11.264-8.359-9.554-2.384-26.73-5.7-39.644-3.694C.668,21.8.62,7.337,5.2,0-1.382,5.621-2.6,24.539,6.749,23.087c12.915-2.005,30.09,1.311,39.645,3.695C54.922,28.91,58,36.981,60.738,38.264A22.033,22.033,0,0,1,59.8,32.576Z"
                      transform="translate(100.879 163.146)"/>
                <path id="Path_545" data-name="Path 545" class="cls-13"
                      d="M7.549,113.764c24.107,60.128,65.818,72.13,88.039,71.971a14.994,14.994,0,0,0,5.357-1.894c5.449-2.461,7.861-10.821,7.867-11.715.043-7.2.574-17.538-16.684-26.758C79.266,138.5,30.694,109.041,42.988,47.6,51,18.569,57.753,6.413,56.274,4.59c-.99-1.22-2.36-3.372-4-4.59C33.523,6.367-19.53,32.72,7.549,113.764Z"
                      transform="translate(8.768 1.33)"/>
                <path id="Path_546" data-name="Path 546" class="cls-11"
                      d="M0,1.558A6.178,6.178,0,0,1,2.066.338,3.841,3.841,0,0,0,1.171,0,12.448,12.448,0,0,0,0,1.558Z"
                      transform="translate(165.618 179.804)"/>
                <path id="Path_547" data-name="Path 547" class="cls-13"
                      d="M6.475,19.163c12.914-2.006,30.09,1.309,39.644,3.693,5.659,1.413,8.913,5.434,11.264,8.359-.2-5.352,1.451-10.346,3.846-13.23-3.247.021-7.836.763-13.03-.081C39.221,16.446,19.872,9.686,12.627,2.79,8.847-.809,5.561-.592,3.053,1.553A22.863,22.863,0,0,0,0,13.274C.69,17.059,2.735,19.743,6.475,19.163Z"
                      transform="translate(103.29 164.508)"/>
                <path id="Path_548" data-name="Path 548" class="cls-14"
                      d="M32.376.116C26.954,7.581-5.044,33.416.684,83.387c7.424,64.773,66.422,79.885,73.091,81.685,11.421,3.084,23.879-6.1-.859-20.868-25.957-15.5-47.669-35.075-51.481-71.827C18.359,42.734,34.947,10.486,37.318,4.844,38.156,2.848,37.54-.686,32.376.116Z"
                      transform="translate(27.531 3.406)"/>
                <path id="Path_549" data-name="Path 549" class="cls-15"
                      d="M5.9,8.03C7,8.342,7.779,6.18,7.657,5.384S5.079,1.533,3.6.686,1.077-.22.234.489c-.808.677.723,3.365.948,4.1C1.785,6.546,5.1,7.8,5.9,8.03Z"
                      transform="translate(57.948 0)"/>
                <path id="Path_550" data-name="Path 550" class="cls-15"
                      d="M.97,21.268a1.569,1.569,0,0,0,.983.165c3.054-.607,7.628-16.046,6.279-20A2.494,2.494,0,0,0,7.036,0C2.156,1.592-1.935,11.859.97,21.268Z"
                      transform="translate(160.647 180.142)"/>
            </g>
            <g id="Group_1665" data-name="Group 1665" transform="translate(106.741 202.402)">
                <path id="Path_542-2" data-name="Path 542" class="cls-11"
                      d="M12.895,5.7c7.245,6.9,26.594,13.656,35.572,15.115,5.194.844,9.808.1,13.055.081a9.4,9.4,0,0,1,1.1-1.128,12.307,12.307,0,0,1,1.146-1.559c-3.052-.8-8.838.787-15.57-.306C39.218,16.446,19.869,9.686,12.625,2.789,8.844-.809,5.559-.592,3.052,1.552A22.642,22.642,0,0,0,.27,16.187,22.869,22.869,0,0,1,3.321,4.466C5.829,2.321,9.115,2.1,12.895,5.7Z"
                      transform="translate(103.022 161.594)"/>
                <path id="Path_543-2" data-name="Path 543" class="cls-12"
                      d="M16.317,114.67C-10.762,33.626,42.292,7.273,61.04.906A3.829,3.829,0,0,0,58.42.012c-2.814.259-82.9,19.6-50.871,115.466,27.829,69.412,79.125,74.693,96.808,71.163C82.135,186.8,40.424,174.8,16.317,114.67Z"
                      transform="translate(0 0.424)"/>
                <path id="Path_544-2" data-name="Path 544" class="cls-12"
                      d="M59.8,32.576c-2.351-2.925-5.606-6.946-11.264-8.359-9.554-2.384-26.73-5.7-39.644-3.694C.668,21.8.62,7.337,5.2,0-1.382,5.621-2.6,24.539,6.749,23.087c12.915-2.005,30.09,1.311,39.645,3.695C54.922,28.91,58,36.981,60.738,38.264A22.033,22.033,0,0,1,59.8,32.576Z"
                      transform="translate(100.879 163.146)"/>
                <path id="Path_545-2" data-name="Path 545" class="cls-13"
                      d="M7.549,113.764c24.107,60.128,65.818,72.13,88.039,71.971a14.994,14.994,0,0,0,5.357-1.894c5.449-2.461,7.861-10.821,7.867-11.715.043-7.2.574-17.538-16.684-26.758C79.266,138.5,30.694,109.041,42.988,47.6,51,18.569,57.753,6.413,56.274,4.59c-.99-1.22-2.36-3.372-4-4.59C33.523,6.367-19.53,32.72,7.549,113.764Z"
                      transform="translate(8.768 1.33)"/>
                <path id="Path_546-2" data-name="Path 546" class="cls-11"
                      d="M0,1.558A6.178,6.178,0,0,1,2.066.338,3.841,3.841,0,0,0,1.171,0,12.448,12.448,0,0,0,0,1.558Z"
                      transform="translate(165.618 179.804)"/>
                <path id="Path_547-2" data-name="Path 547" class="cls-13"
                      d="M6.475,19.163c12.914-2.006,30.09,1.309,39.644,3.693,5.659,1.413,8.913,5.434,11.264,8.359-.2-5.352,1.451-10.346,3.846-13.23-3.247.021-7.836.763-13.03-.081C39.221,16.446,19.872,9.686,12.627,2.79,8.847-.809,5.561-.592,3.053,1.553A22.863,22.863,0,0,0,0,13.274C.69,17.059,2.735,19.743,6.475,19.163Z"
                      transform="translate(103.29 164.508)"/>
                <path id="Path_548-2" data-name="Path 548" class="cls-14"
                      d="M32.376.116C26.954,7.581-5.044,33.416.684,83.387c7.424,64.773,66.422,79.885,73.091,81.685,11.421,3.084,23.879-6.1-.859-20.868-25.957-15.5-47.669-35.075-51.481-71.827C18.359,42.734,34.947,10.486,37.318,4.844,38.156,2.848,37.54-.686,32.376.116Z"
                      transform="translate(27.531 3.406)"/>
                <path id="Path_549-2" data-name="Path 549" class="cls-15"
                      d="M5.9,8.03C7,8.342,7.779,6.18,7.657,5.384S5.079,1.533,3.6.686,1.077-.22.234.489c-.808.677.723,3.365.948,4.1C1.785,6.546,5.1,7.8,5.9,8.03Z"
                      transform="translate(57.948 0)"/>
                <path id="Path_550-2" data-name="Path 550" class="cls-15"
                      d="M.97,21.268a1.569,1.569,0,0,0,.983.165c3.054-.607,7.628-16.046,6.279-20A2.494,2.494,0,0,0,7.036,0C2.156,1.592-1.935,11.859.97,21.268Z"
                      transform="translate(160.647 180.142)"/>
            </g>
            <g id="Group_427" data-name="Group 427" transform="translate(282.873 130.315)">
                <g id="Group_426" data-name="Group 426" transform="translate(16.652 0)">
                    <g id="Group_418" data-name="Group 418" transform="translate(9.078 3.85)">
                        <path id="Path_551" data-name="Path 551" class="cls-16"
                              d="M7.461,52.078C9.238,33.4,8.588,19.268,0,2.321L4.61,0c9.151,18.056,9.861,32.947,7.993,52.564Z"/>
                    </g>
                    <g id="Group_419" data-name="Group 419" transform="translate(0 10.969)">
                        <path id="Path_552" data-name="Path 552" class="cls-16"
                              d="M16.442,50.687C14.772,32,11.545,18.222,0,3.121L4.109,0c12.3,16.089,15.725,30.6,17.479,50.229Z"/>
                    </g>
                    <g id="Group_420" data-name="Group 420" transform="translate(17.851 0)">
                        <path id="Path_553" data-name="Path 553" class="cls-16"
                              d="M6.465,53.141l-5.048-1.1C5.431,33.71,6.486,19.6,0,1.754L4.857,0C11.768,19.02,10.68,33.889,6.465,53.141Z"/>
                    </g>
                    <g id="Group_421" data-name="Group 421" transform="translate(19.948 1.004)">
                        <path id="Path_554" data-name="Path 554" class="cls-16"
                              d="M4.8,52.711,0,50.82C6.91,33.367,10.221,19.612,6.69.955L11.766,0C15.529,19.879,12.062,34.381,4.8,52.711Z"/>
                    </g>
                    <g id="Group_422" data-name="Group 422" transform="translate(24.33 12.179)">
                        <path id="Path_555" data-name="Path 555" class="cls-16"
                              d="M4.718,43.955,0,41.858C8.051,23.86,16.01,11.24,32.884,0l2.87,4.281C19.919,14.831,12.384,26.817,4.718,43.955Z"/>
                    </g>
                    <g id="Group_423" data-name="Group 423" transform="translate(25.979 19.702)">
                        <path id="Path_556" data-name="Path 556" class="cls-16"
                              d="M4.675,43.373,0,41.181C8.415,23.35,16.632,10.9,33.731,0l2.783,4.339C20.466,14.564,12.688,26.394,4.675,43.373Z"/>
                    </g>
                    <g id="Group_424" data-name="Group 424" transform="translate(25.872 6.335)">
                        <path id="Path_557" data-name="Path 557" class="cls-16"
                              d="M5.111,49.906,0,49.159C2.87,29.661,7.115,15.367,20.313,0l3.924,3.349C11.851,17.772,7.845,31.341,5.111,49.906Z"/>
                    </g>
                    <g id="Group_425" data-name="Group 425" transform="translate(26.438 2.04)">
                        <path id="Path_558" data-name="Path 558" class="cls-16"
                              d="M.03,51.769C-.273,32.065,1.617,17.278,12.173,0l4.412,2.679C6.679,18.894,4.907,32.928,5.194,51.69Z"
                              transform="translate(0)"/>
                    </g>
                </g>
                <path id="Path_559" data-name="Path 559" class="cls-17"
                      d="M8.551,195.5C-8.88,192.338,4.626,73.3,11.479,20.611A23.713,23.713,0,0,1,39.264.388L49.221,2.2A23.652,23.652,0,0,1,68.13,30.589C56.63,82.27,28.359,199.1,8.551,195.5Z"
                      transform="translate(0 46.605)"/>
                <path id="Path_560" data-name="Path 560" class="cls-18"
                      d="M0,1.047.41.981c.266-.036.659-.1,1.156-.161S2.674.691,3.361.594,4.821.39,5.669.3,7.458.133,8.446.058C9.437.024,10.487.01,11.574,0c.545-.022,1.093.037,1.649.07S14.344.149,14.911.2s1.144.075,1.713.154L18.33.612c1.137.188,2.274.372,3.389.579,1.1.253,2.179.525,3.221.792s2.044.541,2.992.806c.94.288,1.817.605,2.629.888,1.618.581,2.954,1.1,3.882,1.485.466.185.826.351,1.073.456l.376.17-.414-.036c-.268-.029-.665-.059-1.162-.125-1-.116-2.415-.31-4.1-.587L27.51,4.566c-.963-.143-1.976-.3-3.019-.481s-2.12-.369-3.208-.585c-1.1-.147-2.2-.322-3.314-.493L16.31,2.731c-.553-.079-1.1-.133-1.65-.2-1.092-.113-2.166-.3-3.21-.388S9.4,1.964,8.433,1.874C7.466,1.822,6.551,1.761,5.7,1.7s-1.65-.12-2.345-.181c-.7-.043-1.3-.152-1.8-.217S.674,1.159.407,1.118Z"
                      transform="translate(15.83 65.69)"/>
                <path id="Path_561" data-name="Path 561" class="cls-18"
                      d="M0,.024.414.011C.683.01,1.081-.006,1.582,0S2.7.016,3.39.008,4.864-.006,5.718.015,7.514.08,8.5.134c.988.094,2.03.215,3.108.352.544.049,1.079.178,1.627.282s1.1.219,1.658.339,1.125.222,1.679.374l1.657.48c1.1.334,2.207.663,3.286,1.012,1.058.393,2.092.8,3.089,1.2s1.957.8,2.862,1.187c.9.407,1.723.835,2.491,1.22,1.529.785,2.786,1.472,3.655,1.973.438.243.774.455,1.006.591l.351.217-.407-.089c-.262-.064-.651-.145-1.137-.273-.975-.244-2.354-.62-3.987-1.112l-2.622-.82c-.938-.266-1.92-.554-2.932-.867s-2.053-.64-3.1-.993c-1.07-.288-2.145-.6-3.223-.917L15.953,3.8c-.538-.149-1.076-.274-1.609-.411-1.069-.254-2.108-.58-3.132-.8S9.2,2.148,8.254,1.934C7.3,1.758,6.4,1.579,5.569,1.405s-1.621-.332-2.3-.482C2.58.791,2,.606,1.514.477S.652.223.394.149Z"
                      transform="translate(25.348 84.541)"/>
                <path id="Path_562" data-name="Path 562" class="cls-18"
                      d="M0,2.054l.4-.1C.666,1.9,1.05,1.8,1.542,1.7s1.093-.219,1.77-.371S4.75,1.009,5.59.852,7.359.54,8.337.385C9.324.272,10.368.172,11.451.08,11.993.015,12.543.028,13.1.017S14.223,0,14.794,0s1.146-.018,1.719.015l1.722.123c1.148.1,2.3.188,3.424.3,1.118.163,2.215.348,3.275.529s2.081.373,3.048.562c.961.211,1.861.457,2.692.674,1.662.448,3.035.858,3.99,1.165.479.147.852.284,1.106.368l.39.139-.416,0c-.269-.008-.668-.006-1.169-.03-1-.035-2.431-.115-4.132-.255L27.705,3.34c-.971-.065-1.993-.141-3.048-.235s-2.142-.2-3.244-.323c-1.105-.058-2.224-.144-3.344-.224l-1.676-.142c-.557-.033-1.11-.043-1.66-.066-1.1-.025-2.184-.126-3.231-.127S9.44,2.21,8.474,2.2c-.968.026-1.887.04-2.737.044s-1.654.013-2.352.009c-.7.013-1.307-.046-1.807-.071s-.9-.068-1.164-.087Z"
                      transform="translate(9.785 106.126)"/>
                <path id="Path_563" data-name="Path 563" class="cls-18"
                      d="M0,.66.411.61C.679.585,1.074.532,1.574.495s1.11-.087,1.8-.157S4.841.191,5.693.134,7.488.037,8.477,0c.992,0,2.041.031,3.128.068.546,0,1.091.08,1.645.135s1.117.118,1.683.188,1.14.119,1.705.22l1.693.327c1.129.232,2.259.46,3.363.71,1.091.3,2.158.609,3.188.917s2.022.62,2.958.923c.929.324,1.793.675,2.592.989,1.6.643,2.909,1.214,3.821,1.634.458.2.811.383,1.054.5l.37.185-.413-.052c-.267-.04-.662-.085-1.157-.17-.993-.155-2.4-.4-4.072-.746l-2.686-.58c-.958-.18-1.964-.377-3-.6s-2.1-.451-3.183-.709c-1.091-.19-2.19-.408-3.292-.621l-1.647-.34c-.549-.1-1.1-.177-1.64-.264C13.5,2.555,12.439,2.326,11.4,2.2s-2.047-.259-3.005-.386c-.964-.09-1.877-.186-2.723-.284s-1.644-.184-2.336-.272c-.7-.069-1.291-.2-1.786-.286S.668.8.4.747Z"
                      transform="translate(14.641 130.692)"/>
                <path id="Path_564" data-name="Path 564" class="cls-18"
                      d="M0,.66.412.611C.68.585,1.074.533,1.574.495s1.11-.086,1.8-.157S4.842.191,5.694.134,7.489.036,8.479,0c.991,0,2.04.031,3.127.068.546,0,1.091.08,1.646.134s1.116.118,1.683.188,1.139.119,1.7.22l1.7.328c1.129.232,2.258.46,3.363.71,1.091.3,2.157.609,3.188.917s2.022.619,2.957.922c.929.325,1.794.675,2.592.99,1.595.643,2.909,1.214,3.822,1.634.459.2.811.384,1.054.5l.37.185-.413-.052C35,6.7,34.6,6.655,34.11,6.571c-.992-.155-2.4-.4-4.072-.746l-2.686-.58c-.958-.18-1.963-.377-3-.6s-2.1-.451-3.183-.708c-1.09-.19-2.19-.408-3.291-.622l-1.648-.341c-.548-.1-1.1-.176-1.639-.264C13.5,2.558,12.44,2.328,11.4,2.2S9.354,1.943,8.4,1.817c-.964-.09-1.877-.186-2.722-.284s-1.644-.185-2.337-.272c-.7-.07-1.291-.2-1.786-.286S.669.8.405.75Z"
                      transform="translate(5.786 156.914)"/>
            </g>
            <g id="Group_430" data-name="Group 430" transform="translate(25.548 0)">
                <path id="Path_568" data-name="Path 568" class="cls-19"
                      d="M13.983,274.517C3.81,197.145-19.1-5.17,32.15.1,51.045,2.045,76.9,26.129,77.613,69.922c9.11,15.629,13.281,30.135,11.719,48.886,7.9,19.117,12.19,34.312,9.378,56.915,10.271,21.72,8.452,35.066,5.828,50.469,7.828,20.154,8.015,40.218,4.013,55.366q.227,4.923.38,9.445C111.827,376.386,35.832,440.693,13.983,274.517Z"
                      transform="translate(0 0)"/>
                <path id="Path_569" data-name="Path 569" class="cls-20"
                      d="M0,5.216S.628,4.794,1.757,4.2c.569-.3,1.241-.656,2.06-1s1.753-.71,2.789-1.08c1.036-.338,2.171-.667,3.383-.985C11.211.864,12.507.582,13.873.4A37.549,37.549,0,0,1,18.132.03a40.888,40.888,0,0,1,4.468.1,36.321,36.321,0,0,1,4.479.7l1.093.249c.361.089.717.214,1.071.318.7.234,1.4.429,2.07.707s1.315.56,1.941.847,1.207.648,1.774.973c.28.17.56.325.825.5s.52.357.764.544c.488.374.973.7,1.4,1.072s.812.746,1.172,1.1l.52.521c.157.182.308.358.448.536.281.353.547.67.774.981l.327.439c.1.148.18.3.262.433a16.172,16.172,0,0,1,.934,1.753s-.759-.227-1.921-.681c-.145-.056-.3-.113-.456-.178l-.516-.168c-.36-.111-.729-.25-1.127-.385-.2-.067-.4-.142-.6-.219l-.657-.19c-.447-.128-.9-.28-1.372-.425s-.982-.257-1.489-.391c-.257-.062-.508-.141-.765-.214s-.535-.113-.807-.172c-.547-.105-1.083-.256-1.649-.365-.573-.094-1.148-.2-1.727-.319s-1.192-.173-1.792-.276-1.217-.177-1.841-.248c-1.232-.187-2.522-.265-3.8-.416-1.3-.071-2.581-.224-3.882-.274-1.288-.105-2.579-.147-3.834-.239s-2.488-.123-3.664-.237C9.377,6.351,8.249,6.259,7.2,6.158c-1.041-.077-2.008-.173-2.878-.282S2.669,5.692,2.03,5.589C.748,5.4,0,5.216,0,5.216Z"
                      transform="translate(31.893 59.158)"/>
                <path id="Path_570" data-name="Path 570" class="cls-20"
                      d="M0,5.216S.628,4.794,1.757,4.2c.569-.3,1.24-.656,2.059-1s1.753-.71,2.79-1.08c1.036-.338,2.17-.667,3.382-.985C11.212.864,12.507.583,13.873.4A37.419,37.419,0,0,1,18.132.03a40.9,40.9,0,0,1,4.468.1,36.333,36.333,0,0,1,4.479.7l1.093.249c.36.088.717.214,1.071.318.7.234,1.4.428,2.069.707s1.316.559,1.941.847,1.207.649,1.773.974c.281.169.56.325.826.5s.52.357.764.543c.488.374.973.7,1.4,1.072s.811.746,1.171,1.1l.521.521c.156.182.308.359.448.536.28.353.547.671.774.981l.327.44c.1.148.18.3.262.433a16.171,16.171,0,0,1,.934,1.753s-.759-.227-1.921-.681c-.145-.057-.3-.113-.455-.178l-.516-.169c-.361-.111-.729-.25-1.127-.385-.2-.067-.4-.142-.6-.219l-.658-.19c-.447-.128-.9-.279-1.371-.424s-.982-.257-1.49-.392c-.257-.062-.508-.142-.765-.214s-.536-.113-.807-.172c-.548-.106-1.083-.256-1.649-.365-.573-.094-1.149-.2-1.727-.319s-1.193-.173-1.792-.276-1.217-.178-1.841-.248c-1.232-.186-2.522-.265-3.8-.416-1.3-.072-2.581-.224-3.881-.275-1.289-.105-2.578-.147-3.834-.239s-2.488-.122-3.665-.236C9.377,6.35,8.25,6.257,7.2,6.157c-1.04-.078-2.008-.173-2.877-.282s-1.654-.184-2.293-.288C.748,5.4,0,5.216,0,5.216Z"
                      transform="translate(43.168 107.641)"/>
                <path id="Path_571" data-name="Path 571" class="cls-20"
                      d="M0,5.216S.628,4.795,1.757,4.2c.569-.3,1.24-.655,2.06-1s1.753-.71,2.789-1.08c1.036-.338,2.171-.667,3.382-.985C11.212.864,12.508.582,13.874.4A37.527,37.527,0,0,1,18.133.03a41.049,41.049,0,0,1,4.468.1,36.522,36.522,0,0,1,4.479.7l1.093.249c.361.088.716.214,1.071.318.7.234,1.4.429,2.07.707s1.315.559,1.941.847,1.207.648,1.773.974c.28.17.56.325.826.5s.519.357.764.543c.488.374.973.7,1.4,1.072s.811.746,1.171,1.1l.52.52c.157.182.308.359.448.536.281.353.547.67.774.981l.327.44c.1.148.18.3.262.433a16.1,16.1,0,0,1,.934,1.753s-.759-.227-1.921-.681c-.145-.056-.3-.112-.455-.178l-.516-.169c-.36-.112-.729-.25-1.127-.385-.2-.067-.4-.142-.6-.219l-.658-.19c-.448-.129-.9-.279-1.371-.424s-.982-.257-1.49-.392c-.257-.061-.508-.141-.765-.214s-.536-.113-.807-.172c-.548-.106-1.083-.256-1.649-.364s-1.149-.2-1.727-.319-1.192-.174-1.791-.277-1.217-.178-1.842-.248c-1.232-.186-2.522-.264-3.8-.416-1.3-.072-2.582-.224-3.882-.274-1.288-.105-2.578-.148-3.834-.239s-2.487-.123-3.664-.237C9.377,6.35,8.249,6.258,7.2,6.158c-1.041-.078-2.008-.173-2.878-.282S2.669,5.692,2.03,5.588C.749,5.4,0,5.216,0,5.216Z"
                      transform="translate(52.29 163.3)"/>
                <path id="Path_572" data-name="Path 572" class="cls-20"
                      d="M0,5.216S.629,4.794,1.757,4.2c.57-.3,1.241-.656,2.06-1s1.753-.71,2.79-1.08c1.036-.338,2.17-.666,3.382-.984C11.212.864,12.507.582,13.873.395A37.438,37.438,0,0,1,18.133.03a40.95,40.95,0,0,1,4.468.1,36.374,36.374,0,0,1,4.478.7l1.094.249c.361.088.717.214,1.071.319.705.233,1.4.428,2.071.706s1.315.56,1.941.847,1.207.649,1.773.974c.28.169.56.324.826.5s.52.357.764.543c.488.375.974.7,1.4,1.073s.812.745,1.171,1.1l.52.521c.157.182.309.359.449.536.281.353.547.671.773.981l.328.44c.1.148.18.3.262.433a16.07,16.07,0,0,1,.934,1.753s-.758-.227-1.921-.681c-.145-.057-.3-.113-.455-.179l-.516-.168c-.361-.112-.729-.251-1.127-.385-.2-.066-.4-.142-.6-.219l-.658-.19c-.447-.128-.9-.28-1.371-.424s-.982-.257-1.49-.392c-.257-.062-.508-.141-.765-.214s-.536-.113-.806-.172c-.548-.106-1.083-.256-1.649-.365-.573-.094-1.149-.2-1.727-.319s-1.192-.173-1.791-.276-1.217-.178-1.841-.248c-1.232-.187-2.522-.266-3.8-.416-1.3-.072-2.582-.224-3.882-.275-1.289-.1-2.579-.147-3.834-.239s-2.488-.123-3.665-.237c-1.178-.057-2.3-.149-3.354-.249-1.04-.077-2.008-.173-2.878-.282S2.669,5.692,2.03,5.588C.748,5.4,0,5.216,0,5.216Z"
                      transform="translate(58.479 215.763)"/>
                <path id="Path_573" data-name="Path 573" class="cls-20"
                      d="M0,5.215S.629,4.794,1.757,4.2c.569-.3,1.24-.655,2.059-1s1.753-.71,2.79-1.08c1.036-.338,2.17-.666,3.383-.984C11.212.864,12.507.582,13.873.4A37.359,37.359,0,0,1,18.133.03a40.948,40.948,0,0,1,4.468.1,36.213,36.213,0,0,1,4.479.7l1.093.248c.361.088.717.214,1.071.318.7.234,1.4.429,2.07.707s1.316.559,1.941.847,1.207.649,1.773.974c.281.169.56.325.826.5s.52.357.765.543c.488.374.973.7,1.4,1.072s.811.746,1.171,1.1l.52.521c.158.182.309.359.449.536.28.353.547.67.774.981q.171.23.327.44c.1.148.18.3.262.433A16.218,16.218,0,0,1,42.45,11.8s-.759-.227-1.921-.681c-.146-.056-.3-.112-.456-.179l-.516-.169c-.36-.111-.729-.251-1.127-.385-.2-.067-.4-.142-.6-.219l-.657-.189c-.448-.128-.9-.28-1.372-.425s-.982-.257-1.489-.391c-.257-.062-.508-.141-.765-.214s-.536-.113-.806-.172c-.548-.106-1.083-.256-1.649-.365s-1.148-.2-1.726-.319-1.192-.173-1.792-.276-1.216-.177-1.84-.248c-1.232-.187-2.522-.265-3.8-.416-1.3-.072-2.581-.224-3.881-.274-1.288-.106-2.579-.148-3.834-.24s-2.488-.123-3.664-.237C9.377,6.35,8.249,6.258,7.2,6.158c-1.04-.078-2.008-.174-2.878-.282S2.669,5.692,2.03,5.588C.749,5.4,0,5.215,0,5.215Z"
                      transform="translate(63.322 273.879)"/>
            </g>
            <g id="Group_443" data-name="Group 443" transform="translate(117.422 266.835)">
                <path id="Path_574" data-name="Path 574" class="cls-21"
                      d="M20.966,70.111C4.935,52.376,16.172,51.214,6.074,41.334c-9.24-9.041-8.99-38.234,8.131-38,12.426.172,10.452,9.462,17.562,1.8S46.684-1.532,52.986,7.56c3.448,4.973-23.7,45.054-23.7,45.054Z"
                      transform="translate(0 0.863)"/>
                <path id="Path_575" data-name="Path 575" class="cls-21"
                      d="M9.041,0c8.714.158,21.511,9.816,18,18.889,4.67,5.3,8.523,6.593,4.862,15.229,3.7,7.211,4.263,10.663-3.254,15.075S-.483,4.237.008,4.437,9.041,0,9.041,0Z"
                      transform="translate(94.914 18.331)"/>
                <path id="Path_576" data-name="Path 576" class="cls-22"
                      d="M98.522,85.515c-16.434,21.638-49.8,24.057-74.522,5.4S-7.441,39.592,8.995,17.952s49.8-24.056,74.521-5.4S114.956,63.876,98.522,85.515Z"
                      transform="translate(16.826 0.686)"/>
                <path id="Path_577" data-name="Path 577" class="cls-23"
                      d="M12.711,0c11.3,20.134,23.119,16,31.073,12.531C38.86,19.25,46.323,32.751,59.334,27.92c1.292,9.965,1.739,12.108,7.73,16.308-12.155-1.357-15.05,2.449-10.929,14.39,4.437,12.861-30.068,3.961-30.068,3.961L6.653,45.119,0,16.738Z"
                      transform="translate(46.424 9.209)"/>
                <path id="Path_578" data-name="Path 578" class="cls-24"
                      d="M43.976.213c11.731,10,10.011,13.859,4.045,21.713C60.352,27.852,69.1,39.532,55.306,52.031S26.448,88.6,13.73,79.583-9.17,38.8,13.137,15.9C24.456,3.01,39.6-1.027,43.976.213Z"
                      transform="translate(14.763 0)"/>
                <path id="Path_579" data-name="Path 579" class="cls-21"
                      d="M0,30.478C11.241,5.96,31.848-1.126,48.15,5.878,56.445-5.042,80.179-.616,79.838,18.071,91.5,17.56,92.62,17.782,97.9,21.435S79.4,60.3,44.768,55.915,0,30.478,0,30.478Z"
                      transform="translate(27.902 48.047)"/>
                <g id="Group_432" data-name="Group 432" transform="translate(61.977 69.245)">
                    <g id="Group_431" data-name="Group 431">
                        <path id="Path_580" data-name="Path 580" class="cls-25"
                              d="M0,32.678l.558-.17c.363-.106.906-.256,1.568-.476.666-.2,1.461-.5,2.372-.819l1.43-.561,1.559-.668c1.072-.5,2.224-1.036,3.4-1.68,1.192-.617,2.4-1.358,3.641-2.121,1.223-.8,2.469-1.64,3.688-2.561s2.431-1.887,3.571-2.936c1.158-1.027,2.27-2.105,3.308-3.218.531-.546,1.012-1.126,1.516-1.678.47-.577.955-1.135,1.391-1.712.9-1.136,1.692-2.293,2.414-3.412.35-.565.7-1.114,1-1.665.153-.273.314-.539.455-.808l.406-.795c.534-1.04.957-2.029,1.315-2.919.338-.894.637-1.686.826-2.354.212-.665.349-1.2.442-1.564L35.014,0s.008.2.023.58a14.415,14.415,0,0,1-.013,1.65A21,21,0,0,1,34.745,4.8a24.975,24.975,0,0,1-.8,3.271l-.3.9c-.107.3-.233.607-.352.919-.232.63-.534,1.25-.829,1.9a32.154,32.154,0,0,1-2.223,3.884,33.773,33.773,0,0,1-2.91,3.8,38.84,38.84,0,0,1-3.473,3.511,41.336,41.336,0,0,1-3.874,3.056l-1,.684c-.337.222-.683.426-1.021.637-.671.43-1.368.8-2.043,1.178A39.022,39.022,0,0,1,11.865,30.4a36.89,36.89,0,0,1-3.781,1.257c-.6.147-1.172.29-1.719.411L4.8,32.361c-.5.064-.957.131-1.386.178s-.829.066-1.183.1c-.712.069-1.267.038-1.647.049Z"/>
                    </g>
                </g>
                <g id="Group_434" data-name="Group 434" transform="translate(77.68 69.644)">
                    <g id="Group_433" data-name="Group 433">
                        <path id="Path_581" data-name="Path 581" class="cls-25"
                              d="M31.2,10.662q-1.134.585-2.279,1.148c-.377.2-.783.333-1.174.5l-1.187.486c-.4.155-.793.33-1.2.462l-1.208.42c-.806.277-1.611.563-2.428.8l-2.447.742-2.465.679c-.821.228-1.651.419-2.477.631s-1.655.4-2.491.59l-.287.065-.169-.242-2.92-4.187c-.96-1.405-1.933-2.8-2.879-4.216S3.7,5.719,2.762,4.3C1.842,2.865.9,1.449,0,0,1.062,1.334,2.077,2.7,3.117,4.05Q4.65,6.092,6.161,8.15c1.014,1.368,2,2.754,3,4.132l2.958,4.161-.455-.177c1.651-.361,3.3-.761,4.949-1.166l2.469-.617,2.457-.656c.41-.107.821-.214,1.226-.338l1.22-.356,1.223-.35c.412-.108.8-.261,1.207-.386l1.208-.389c.4-.138.814-.241,1.206-.409Q30.011,11.117,31.2,10.662Z"/>
                    </g>
                </g>
                <g id="Group_436" data-name="Group 436" transform="translate(62.534 77.921)">
                    <g id="Group_435" data-name="Group 435" transform="translate(0 0)">
                        <path id="Path_582" data-name="Path 582" class="cls-25"
                              d="M35.307,17.613l-1.142.555c-.395.153-.8.278-1.209.419s-.825.213-1.238.323-.834.18-1.254.252-.841.154-1.265.19l-1.272.137-1.275.085c-.426.033-.852.03-1.277.044s-.852.023-1.278.016l-1.277-.009c-.851-.027-1.7-.061-2.551-.116-.426-.021-.849-.061-1.273-.09s-.848-.074-1.272-.115c-.848-.089-1.689-.183-2.541-.307l-.161-.024-.109-.13c-1.282-1.539-2.539-3.1-3.806-4.648L9.221,11.858,7.344,9.513Q5.477,7.16,3.635,4.787L1.809,2.4Q.894,1.209,0,0,1.014,1.111,2,2.242L3.99,4.5Q5.962,6.765,7.905,9.056l1.935,2.3,1.927,2.3c1.275,1.544,2.559,3.081,3.818,4.637l-.269-.154c.822.126,1.663.228,2.5.321s1.674.18,2.513.249,1.679.126,2.52.171l1.261.056c.421.022.841.027,1.261.03s.842.02,1.261,0l1.262-.02,1.259-.071c.422-.016.837-.072,1.256-.111s.839-.079,1.25-.16.836-.121,1.239-.231.812-.205,1.218-.322Z"
                              transform="translate(0 0)"/>
                    </g>
                </g>
                <g id="Group_438" data-name="Group 438" transform="translate(16.613 23.347)">
                    <g id="Group_437" data-name="Group 437" transform="translate(0)">
                        <path id="Path_583" data-name="Path 583" class="cls-25"
                              d="M.29,38.708s-.027-.2-.078-.576S.075,37.209.055,36.5C.04,36.142.006,35.743,0,35.315s0-.893,0-1.393c.029-.5.06-1.026.092-1.583.052-.556.124-1.14.194-1.751a36.572,36.572,0,0,1,.779-3.9,38.732,38.732,0,0,1,1.352-4.237c.291-.714.573-1.45.917-2.167.169-.361.328-.729.506-1.089L4.4,18.118a41.214,41.214,0,0,1,2.558-4.213,38.749,38.749,0,0,1,3.062-3.873,33.881,33.881,0,0,1,3.42-3.352A32.276,32.276,0,0,1,17.031,4c.609-.373,1.19-.749,1.787-1.057.3-.157.582-.319.871-.463l.859-.407A25.2,25.2,0,0,1,23.7.865a21.1,21.1,0,0,1,2.52-.6A14.4,14.4,0,0,1,27.866.05l.58-.05-.54.222c-.352.138-.866.34-1.5.633-.642.27-1.393.665-2.241,1.11-.841.465-1.772,1.007-2.741,1.665l-.741.5c-.249.173-.494.365-.747.55-.512.364-1.014.778-1.533,1.194-1.024.853-2.077,1.78-3.1,2.813-.52.5-1.015,1.052-1.53,1.589-.486.567-1,1.116-1.481,1.709-.977,1.165-1.912,2.4-2.79,3.673-.9,1.258-1.7,2.587-2.476,3.9s-1.448,2.659-2.089,3.967c-.606,1.323-1.192,2.609-1.657,3.865-.493,1.248-.888,2.455-1.247,3.576l-.47,1.625-.381,1.485c-.206.941-.405,1.764-.519,2.448-.136.683-.217,1.238-.277,1.61S.29,38.708.29,38.708Z"
                              transform="translate(0)"/>
                    </g>
                </g>
                <g id="Group_440" data-name="Group 440" transform="translate(28.515 12.967)">
                    <g id="Group_439" data-name="Group 439">
                        <path id="Path_584" data-name="Path 584" class="cls-25"
                              d="M4.048,0l-.34,1.227-.3,1.232c-.1.409-.175.828-.264,1.24s-.165.829-.236,1.246-.161.829-.226,1.248L2.476,7.444c-.123.837-.265,1.669-.377,2.508-.232,1.675-.461,3.35-.65,5.031s-.391,3.362-.541,5.041L.7,19.609,5.283,22.45c1.519.962,3.047,1.909,4.557,2.884s3.024,1.946,4.529,2.931c1.493,1,3,1.98,4.482,3.006-1.584-.856-3.139-1.759-4.71-2.638Q11.8,27.287,9.478,25.92c-1.554-.906-3.09-1.84-4.635-2.759l-4.608-2.8L0,20.216l.026-.272c.083-.85.177-1.692.275-2.537s.2-1.687.319-2.529c.237-1.682.485-3.364.8-5.035.149-.837.315-1.671.488-2.5l.279-1.245c.089-.415.2-.827.3-1.24S2.7,4.03,2.82,3.622,3.045,2.8,3.182,2.4l.4-1.213Z"/>
                    </g>
                </g>
                <g id="Group_442" data-name="Group 442" transform="translate(19.595 26.441)">
                    <g id="Group_441" data-name="Group 441" transform="translate(0 0)">
                        <path id="Path_585" data-name="Path 585" class="cls-25"
                              d="M1.768,0c-.116.389-.222.782-.308,1.175s-.172.789-.236,1.188-.124.8-.177,1.2-.091.8-.125,1.2C.778,6.371.73,7.984.717,9.6s.039,3.227.113,4.839.184,3.227.342,4.823l-.248-.348c1.854.855,3.695,1.737,5.54,2.61l2.761,1.325,2.755,1.336q2.75,1.347,5.487,2.723l2.727,1.4q1.365.694,2.718,1.414-1.42-.58-2.825-1.188L17.272,27.32q-2.808-1.225-5.6-2.484L8.884,23.569,6.1,22.291C4.251,21.428,2.4,20.576.554,19.7l-.225-.107-.022-.24C.159,17.715.066,16.1.028,14.466s-.038-3.257.037-4.884Q.114,8.36.23,7.142c.076-.811.167-1.622.3-2.427.064-.4.137-.8.216-1.2s.165-.8.268-1.193.207-.788.331-1.176S1.614.376,1.768,0Z"
                              transform="translate(0 0)"/>
                    </g>
                </g>
            </g>
            <g id="Group_1613" data-name="Group 1613" transform="translate(178.464 224.827)">
                <path id="Path_574-2" data-name="Path 574" class="cls-21"
                      d="M20.966,70.111C4.935,52.376,16.172,51.214,6.074,41.334c-9.24-9.041-8.99-38.234,8.131-38,12.426.172,10.452,9.462,17.562,1.8S46.684-1.532,52.986,7.56c3.448,4.973-23.7,45.054-23.7,45.054Z"
                      transform="translate(0 0.863)"/>
                <path id="Path_575-2" data-name="Path 575" class="cls-21"
                      d="M9.041,0c8.714.158,21.511,9.816,18,18.889,4.67,5.3,8.523,6.593,4.862,15.229,3.7,7.211,4.263,10.663-3.254,15.075S-.483,4.237.008,4.437,9.041,0,9.041,0Z"
                      transform="translate(94.914 18.331)"/>
                <path id="Path_576-2" data-name="Path 576" class="cls-22"
                      d="M98.522,85.515c-16.434,21.638-49.8,24.057-74.522,5.4S-7.441,39.592,8.995,17.952s49.8-24.056,74.521-5.4S114.956,63.876,98.522,85.515Z"
                      transform="translate(16.826 0.686)"/>
                <path id="Path_577-2" data-name="Path 577" class="cls-23"
                      d="M12.711,0c11.3,20.134,23.119,16,31.073,12.531C38.86,19.25,46.323,32.751,59.334,27.92c1.292,9.965,1.739,12.108,7.73,16.308-12.155-1.357-15.05,2.449-10.929,14.39,4.437,12.861-30.068,3.961-30.068,3.961L6.653,45.119,0,16.738Z"
                      transform="translate(46.424 9.209)"/>
                <path id="Path_578-2" data-name="Path 578" class="cls-24"
                      d="M43.976.213c11.731,10,10.011,13.859,4.045,21.713C60.352,27.852,69.1,39.532,55.306,52.031S26.448,88.6,13.73,79.583-9.17,38.8,13.137,15.9C24.456,3.01,39.6-1.027,43.976.213Z"
                      transform="translate(14.763 0)"/>
                <path id="Path_579-2" data-name="Path 579" class="cls-21"
                      d="M0,30.478C11.241,5.96,31.848-1.126,48.15,5.878,56.445-5.042,80.179-.616,79.838,18.071,91.5,17.56,92.62,17.782,97.9,21.435S79.4,60.3,44.768,55.915,0,30.478,0,30.478Z"
                      transform="translate(27.902 48.047)"/>
                <g id="Group_432-2" data-name="Group 432" transform="translate(61.977 69.245)">
                    <g id="Group_431-2" data-name="Group 431">
                        <path id="Path_580-2" data-name="Path 580" class="cls-25"
                              d="M0,32.678l.558-.17c.363-.106.906-.256,1.568-.476.666-.2,1.461-.5,2.372-.819l1.43-.561,1.559-.668c1.072-.5,2.224-1.036,3.4-1.68,1.192-.617,2.4-1.358,3.641-2.121,1.223-.8,2.469-1.64,3.688-2.561s2.431-1.887,3.571-2.936c1.158-1.027,2.27-2.105,3.308-3.218.531-.546,1.012-1.126,1.516-1.678.47-.577.955-1.135,1.391-1.712.9-1.136,1.692-2.293,2.414-3.412.35-.565.7-1.114,1-1.665.153-.273.314-.539.455-.808l.406-.795c.534-1.04.957-2.029,1.315-2.919.338-.894.637-1.686.826-2.354.212-.665.349-1.2.442-1.564L35.014,0s.008.2.023.58a14.415,14.415,0,0,1-.013,1.65A21,21,0,0,1,34.745,4.8a24.975,24.975,0,0,1-.8,3.271l-.3.9c-.107.3-.233.607-.352.919-.232.63-.534,1.25-.829,1.9a32.154,32.154,0,0,1-2.223,3.884,33.773,33.773,0,0,1-2.91,3.8,38.84,38.84,0,0,1-3.473,3.511,41.336,41.336,0,0,1-3.874,3.056l-1,.684c-.337.222-.683.426-1.021.637-.671.43-1.368.8-2.043,1.178A39.022,39.022,0,0,1,11.865,30.4a36.89,36.89,0,0,1-3.781,1.257c-.6.147-1.172.29-1.719.411L4.8,32.361c-.5.064-.957.131-1.386.178s-.829.066-1.183.1c-.712.069-1.267.038-1.647.049Z"/>
                    </g>
                </g>
                <g id="Group_434-2" data-name="Group 434" transform="translate(77.68 69.644)">
                    <g id="Group_433-2" data-name="Group 433">
                        <path id="Path_581-2" data-name="Path 581" class="cls-25"
                              d="M31.2,10.662q-1.134.585-2.279,1.148c-.377.2-.783.333-1.174.5l-1.187.486c-.4.155-.793.33-1.2.462l-1.208.42c-.806.277-1.611.563-2.428.8l-2.447.742-2.465.679c-.821.228-1.651.419-2.477.631s-1.655.4-2.491.59l-.287.065-.169-.242-2.92-4.187c-.96-1.405-1.933-2.8-2.879-4.216S3.7,5.719,2.762,4.3C1.842,2.865.9,1.449,0,0,1.062,1.334,2.077,2.7,3.117,4.05Q4.65,6.092,6.161,8.15c1.014,1.368,2,2.754,3,4.132l2.958,4.161-.455-.177c1.651-.361,3.3-.761,4.949-1.166l2.469-.617,2.457-.656c.41-.107.821-.214,1.226-.338l1.22-.356,1.223-.35c.412-.108.8-.261,1.207-.386l1.208-.389c.4-.138.814-.241,1.206-.409Q30.011,11.117,31.2,10.662Z"/>
                    </g>
                </g>
                <g id="Group_436-2" data-name="Group 436" transform="translate(62.534 77.921)">
                    <g id="Group_435-2" data-name="Group 435" transform="translate(0 0)">
                        <path id="Path_582-2" data-name="Path 582" class="cls-25"
                              d="M35.307,17.613l-1.142.555c-.395.153-.8.278-1.209.419s-.825.213-1.238.323-.834.18-1.254.252-.841.154-1.265.19l-1.272.137-1.275.085c-.426.033-.852.03-1.277.044s-.852.023-1.278.016l-1.277-.009c-.851-.027-1.7-.061-2.551-.116-.426-.021-.849-.061-1.273-.09s-.848-.074-1.272-.115c-.848-.089-1.689-.183-2.541-.307l-.161-.024-.109-.13c-1.282-1.539-2.539-3.1-3.806-4.648L9.221,11.858,7.344,9.513Q5.477,7.16,3.635,4.787L1.809,2.4Q.894,1.209,0,0,1.014,1.111,2,2.242L3.99,4.5Q5.962,6.765,7.905,9.056l1.935,2.3,1.927,2.3c1.275,1.544,2.559,3.081,3.818,4.637l-.269-.154c.822.126,1.663.228,2.5.321s1.674.18,2.513.249,1.679.126,2.52.171l1.261.056c.421.022.841.027,1.261.03s.842.02,1.261,0l1.262-.02,1.259-.071c.422-.016.837-.072,1.256-.111s.839-.079,1.25-.16.836-.121,1.239-.231.812-.205,1.218-.322Z"
                              transform="translate(0 0)"/>
                    </g>
                </g>
                <g id="Group_438-2" data-name="Group 438" transform="translate(16.613 23.347)">
                    <g id="Group_437-2" data-name="Group 437" transform="translate(0)">
                        <path id="Path_583-2" data-name="Path 583" class="cls-25"
                              d="M.29,38.708s-.027-.2-.078-.576S.075,37.209.055,36.5C.04,36.142.006,35.743,0,35.315s0-.893,0-1.393c.029-.5.06-1.026.092-1.583.052-.556.124-1.14.194-1.751a36.572,36.572,0,0,1,.779-3.9,38.732,38.732,0,0,1,1.352-4.237c.291-.714.573-1.45.917-2.167.169-.361.328-.729.506-1.089L4.4,18.118a41.214,41.214,0,0,1,2.558-4.213,38.749,38.749,0,0,1,3.062-3.873,33.881,33.881,0,0,1,3.42-3.352A32.276,32.276,0,0,1,17.031,4c.609-.373,1.19-.749,1.787-1.057.3-.157.582-.319.871-.463l.859-.407A25.2,25.2,0,0,1,23.7.865a21.1,21.1,0,0,1,2.52-.6A14.4,14.4,0,0,1,27.866.05l.58-.05-.54.222c-.352.138-.866.34-1.5.633-.642.27-1.393.665-2.241,1.11-.841.465-1.772,1.007-2.741,1.665l-.741.5c-.249.173-.494.365-.747.55-.512.364-1.014.778-1.533,1.194-1.024.853-2.077,1.78-3.1,2.813-.52.5-1.015,1.052-1.53,1.589-.486.567-1,1.116-1.481,1.709-.977,1.165-1.912,2.4-2.79,3.673-.9,1.258-1.7,2.587-2.476,3.9s-1.448,2.659-2.089,3.967c-.606,1.323-1.192,2.609-1.657,3.865-.493,1.248-.888,2.455-1.247,3.576l-.47,1.625-.381,1.485c-.206.941-.405,1.764-.519,2.448-.136.683-.217,1.238-.277,1.61S.29,38.708.29,38.708Z"
                              transform="translate(0)"/>
                    </g>
                </g>
                <g id="Group_440-2" data-name="Group 440" transform="translate(28.515 12.967)">
                    <g id="Group_439-2" data-name="Group 439">
                        <path id="Path_584-2" data-name="Path 584" class="cls-25"
                              d="M4.048,0l-.34,1.227-.3,1.232c-.1.409-.175.828-.264,1.24s-.165.829-.236,1.246-.161.829-.226,1.248L2.476,7.444c-.123.837-.265,1.669-.377,2.508-.232,1.675-.461,3.35-.65,5.031s-.391,3.362-.541,5.041L.7,19.609,5.283,22.45c1.519.962,3.047,1.909,4.557,2.884s3.024,1.946,4.529,2.931c1.493,1,3,1.98,4.482,3.006-1.584-.856-3.139-1.759-4.71-2.638Q11.8,27.287,9.478,25.92c-1.554-.906-3.09-1.84-4.635-2.759l-4.608-2.8L0,20.216l.026-.272c.083-.85.177-1.692.275-2.537s.2-1.687.319-2.529c.237-1.682.485-3.364.8-5.035.149-.837.315-1.671.488-2.5l.279-1.245c.089-.415.2-.827.3-1.24S2.7,4.03,2.82,3.622,3.045,2.8,3.182,2.4l.4-1.213Z"/>
                    </g>
                </g>
                <g id="Group_442-2" data-name="Group 442" transform="translate(19.595 26.441)">
                    <g id="Group_441-2" data-name="Group 441" transform="translate(0 0)">
                        <path id="Path_585-2" data-name="Path 585" class="cls-25"
                              d="M1.768,0c-.116.389-.222.782-.308,1.175s-.172.789-.236,1.188-.124.8-.177,1.2-.091.8-.125,1.2C.778,6.371.73,7.984.717,9.6s.039,3.227.113,4.839.184,3.227.342,4.823l-.248-.348c1.854.855,3.695,1.737,5.54,2.61l2.761,1.325,2.755,1.336q2.75,1.347,5.487,2.723l2.727,1.4q1.365.694,2.718,1.414-1.42-.58-2.825-1.188L17.272,27.32q-2.808-1.225-5.6-2.484L8.884,23.569,6.1,22.291C4.251,21.428,2.4,20.576.554,19.7l-.225-.107-.022-.24C.159,17.715.066,16.1.028,14.466s-.038-3.257.037-4.884Q.114,8.36.23,7.142c.076-.811.167-1.622.3-2.427.064-.4.137-.8.216-1.2s.165-.8.268-1.193.207-.788.331-1.176S1.614.376,1.768,0Z"
                              transform="translate(0 0)"/>
                    </g>
                </g>
            </g>
            <path id="Path_586" data-name="Path 586" class="cls-26" d="M0,0" transform="translate(0 92.152)"/>
        </g>
        <g id="Group_1668" data-name="Group 1668">
            <path id="Wheel_2_4_" class="cls-27" d="M66.1,0A66.091,66.091,0,1,1,0,66.093,66.1,66.1,0,0,1,66.1,0Z"
                  transform="translate(311 686)"/>
            <g id="Group_622" data-name="Group 622" transform="translate(333 708)">
                <path id="Path_2827" data-name="Path 2827" class="cls-28"
                      d="M44.129,0C56.632,0,76.2,13.811,76.2,13.811S88.258,32.26,88.258,44.129A44.131,44.131,0,1,1,44.129,0Z"
                      transform="translate(0 0)"/>
                <path id="Path_817" data-name="Path 817" class="cls-27"
                      d="M256.192,389.67l-1.576,15.76s-.788,7.88,3.94,3.152c2.364-2.364.788-3.94,3.152-3.94,0,0,3.152,0,3.94,6.3,1.576,5.516-.788,7.88-.788,7.88s0,.788-.788,0-3.152.788-2.364,1.576a11.211,11.211,0,0,1,1.576,3.152l14.972,14.972a3.452,3.452,0,0,0,4.728-1.576c1.576-3.152,7.092-18.125,3.152-28.368s-12.608-20.488-24.428-24.428C254.616,382.578,256.192,389.67,256.192,389.67Z"
                      transform="translate(-208.935 -373.936)"/>
                <path id="Path_818" data-name="Path 818" class="cls-27"
                      d="M280.2,388.582l1.576,18.912s.788,2.364-.788,2.364-2.364,0-2.364-.788-.788-3.152-2.364-1.576c-.788.788-6.3,4.728-7.88,10.244,0,0,.788.788,3.152.788s3.152,2.364,1.576,3.152-15.76,7.092-15.76,7.092-6.3,3.152-7.092-1.576-1.576-20.488,5.516-29.156,15.76-13.4,20.488-14.184C279.414,383.854,279.414,386.218,280.2,388.582Z"
                      transform="translate(-241.614 -374.424)"/>
                <path id="Path_819" data-name="Path 819" class="cls-27"
                      d="M251.419,399.647l16.548-9.456s3.152-1.576,4.728-.788.788,2.364,0,3.152-3.152,3.152,0,3.152,4.728,1.576,5.516,1.576,3.94,1.576,6.3,0a4.123,4.123,0,0,0,.788-3.94s-.788-2.364.788-.788,11.82,12.608,11.82,12.608,3.152,3.94,0,6.3c-3.94,2.364-9.456,7.88-26.792,5.516-16.548-2.364-20.488-13.4-20.488-13.4S250.631,400.435,251.419,399.647Z"
                      transform="translate(-235.682 -338.209)"/>
            </g>
        </g>
        <g id="Group_1748" data-name="Group 1748" transform="translate(225.97)">
            <path id="Wheel_2_4_2" data-name="Wheel_2_4_" class="cls-27"
                  d="M66.1,0A66.091,66.091,0,1,1,0,66.093,66.1,66.1,0,0,1,66.1,0Z" transform="translate(311 686)"/>
            <g id="Group_622-2" data-name="Group 622" transform="translate(333 708)">
                <path id="Path_2827-2" data-name="Path 2827" class="cls-28"
                      d="M44.129,0C56.632,0,76.2,13.811,76.2,13.811S88.258,32.26,88.258,44.129A44.131,44.131,0,1,1,44.129,0Z"
                      transform="translate(0 0)"/>
                <path id="Path_817-2" data-name="Path 817" class="cls-27"
                      d="M256.192,389.67l-1.576,15.76s-.788,7.88,3.94,3.152c2.364-2.364.788-3.94,3.152-3.94,0,0,3.152,0,3.94,6.3,1.576,5.516-.788,7.88-.788,7.88s0,.788-.788,0-3.152.788-2.364,1.576a11.211,11.211,0,0,1,1.576,3.152l14.972,14.972a3.452,3.452,0,0,0,4.728-1.576c1.576-3.152,7.092-18.125,3.152-28.368s-12.608-20.488-24.428-24.428C254.616,382.578,256.192,389.67,256.192,389.67Z"
                      transform="translate(-208.935 -373.936)"/>
                <path id="Path_818-2" data-name="Path 818" class="cls-27"
                      d="M280.2,388.582l1.576,18.912s.788,2.364-.788,2.364-2.364,0-2.364-.788-.788-3.152-2.364-1.576c-.788.788-6.3,4.728-7.88,10.244,0,0,.788.788,3.152.788s3.152,2.364,1.576,3.152-15.76,7.092-15.76,7.092-6.3,3.152-7.092-1.576-1.576-20.488,5.516-29.156,15.76-13.4,20.488-14.184C279.414,383.854,279.414,386.218,280.2,388.582Z"
                      transform="translate(-241.614 -374.424)"/>
                <path id="Path_819-2" data-name="Path 819" class="cls-27"
                      d="M251.419,399.647l16.548-9.456s3.152-1.576,4.728-.788.788,2.364,0,3.152-3.152,3.152,0,3.152,4.728,1.576,5.516,1.576,3.94,1.576,6.3,0a4.123,4.123,0,0,0,.788-3.94s-.788-2.364.788-.788,11.82,12.608,11.82,12.608,3.152,3.94,0,6.3c-3.94,2.364-9.456,7.88-26.792,5.516-16.548-2.364-20.488-13.4-20.488-13.4S250.631,400.435,251.419,399.647Z"
                      transform="translate(-235.682 -338.209)"/>
            </g>
        </g>
        <ellipse id="Ellipse_99" data-name="Ellipse 99" class="cls-29" cx="214.906" cy="3.754" rx="214.906" ry="3.754"
                 transform="translate(300.594 826.075)"/>
        <path id="Cart_4_" class="cls-30"
              d="M421.517,110.34H336.281v-8.81C336.281,45.449,284.573,0,220.827,0S105.383,45.449,105.383,101.531v8.81H20.12C8.964,110.34,0,118.254,0,128V423.712c0,9.762,8.964,17.65,20.12,17.65h401.4c11.176,0,20.143-7.888,20.143-17.65V128C441.66,118.254,432.694,110.34,421.517,110.34Zm-130.451,0h-140.5v-8.81c0-34.156,31.425-61.791,70.258-61.791,38.815,0,70.239,27.634,70.239,61.791v8.81Z"
              transform="translate(269 295.482)"/>
        <g id="Group_1669" data-name="Group 1669" transform="translate(385.624 475.634)">
            <path id="Path_1231" data-name="Path 1231" class="cls-31"
                  d="M2.532,185.368A6.453,6.453,0,0,1,0,180.3V7.237a6.494,6.494,0,0,1,2.532-5.1A9.038,9.038,0,0,1,8.545,0H69.052a9.018,9.018,0,0,1,6.011,2.134,6.491,6.491,0,0,1,2.534,5.1V60.275L113.394,5.9c2.551-3.921,6.763-5.9,12.677-5.9h70a7.314,7.314,0,0,1,4.9,1.745A5.289,5.289,0,0,1,203.045,5.9a5,5,0,0,1-.954,2.948L145.065,89.738l62.4,88.944a4.265,4.265,0,0,1,.948,2.962,5.249,5.249,0,0,1-2.043,4.132,7.394,7.394,0,0,1-4.906,1.734H129.246c-3.61,0-6.45-.665-8.559-1.992a13.389,13.389,0,0,1-4.433-4.166L77.6,122.947V180.3a6.449,6.449,0,0,1-2.534,5.072,8.9,8.9,0,0,1-6.011,2.143H8.545A8.921,8.921,0,0,1,2.532,185.368Z"/>
        </g>
        <g id="Group_1670" data-name="Group 1670" transform="translate(393.318 491.619)">
            <path id="Path_1232" data-name="Path 1232" class="cls-32"
                  d="M140.612,7.468C140.71-6.918,0,3.908,0,3.908S140.523,21.623,140.612,7.468Z"
                  transform="translate(111.246 107.045)"/>
            <path id="Path_1233" data-name="Path 1233" class="cls-32"
                  d="M220.633,6.169C219.5-8.217,0,7.067,0,7.067S221.764,20.339,220.633,6.169Z"
                  transform="translate(0 65.237)"/>
            <path id="Path_1234" data-name="Path 1234" class="cls-32"
                  d="M140.614,7.456C140.712-6.9,0,3.891,0,3.891S140.528,21.581,140.614,7.456Z"
                  transform="translate(111.244 35.68)"/>
            <path id="Path_1235" data-name="Path 1235" class="cls-32"
                  d="M140.609,7.464C140.71-6.914,0,3.9,0,3.9S140.524,21.619,140.609,7.464Z"
                  transform="translate(111.249 142.725)"/>
            <path id="Path_1236" data-name="Path 1236" class="cls-32"
                  d="M140.614,7.456C140.712-6.9,0,3.891,0,3.891S140.528,21.581,140.614,7.456Z"
                  transform="translate(111.244 0)"/>
        </g>
    </g>
</svg>
