<?xml version="1.0" encoding="UTF-8" standalone="no"?>
<svg xmlns="http://www.w3.org/2000/svg" version="1.0" width="1000.00006" height="979.81335">
<!-- X Coordinate transform: fx(x)=(x+83.85651)*0.86131597-->
<!-- Y Coordinate transform: fy(y)=(1072.138-y)*0.86131597 -->
<g style="fill:#ffff00;stroke:#000000;stroke-width:2.5;">  <!-- 3-sided yellow blocks -->
<path d="m 502.885,492.792 37.296,-21.533 -37.296,-21.533 z" />
<path d="m 524.418,530.088 37.296,-21.533 0,43.066 z" />
<path d="m 459.819,492.792 -37.296,-21.533 37.296,-21.533 z" />
<path d="M 502.885,449.726 540.181,428.193 502.885,406.66 Z" />
<path d="m 540.181,471.259 0,-43.066 37.296,21.533 z" />
<path d="m 502.885,567.384 37.296,21.533 -37.296,21.532 z" />
<path d="m 561.714,508.555 37.296,-21.533 0,43.066 z" />
<path d="m 561.714,551.621 37.296,-21.533 0,43.065 z" />
<path d="m 438.286,530.088 -37.296,21.533 0,-43.066 z" />
<path d="m 422.523,471.259 -37.296,-21.533 37.296,-21.533 z" />
<path d="M 459.819,449.726 422.523,428.193 459.819,406.66 Z" />
<path d="m 459.819,567.384 0,43.065 -37.296,-21.532 z" />
<path d="m 540.181,588.917 37.296,21.532 -37.296,21.533 z" />
<path d="m 502.885,610.449 37.296,21.533 -37.296,21.533 z" />
<path d="m 400.99,551.621 -37.296,21.532 0,-43.065 z" />
<path d="m 400.99,508.555 -37.296,21.533 0,-43.066 z" />
<path d="m 524.418,369.364 37.296,-21.533 0,43.066 z" />
<path d="m 561.714,390.897 37.296,-21.533 0,43.066 z" />
<path d="m 459.819,610.449 0,43.066 -37.296,-21.533 z" />
<path d="m 422.523,588.917 0,43.065 -37.296,-21.533 z" />
<path d="m 642.076,487.022 37.296,21.533 -37.296,21.533 z" />
<path d="m 642.076,530.088 37.296,21.533 -37.296,21.532 z" />
<path d="M 363.694,412.43 400.99,390.897 363.694,369.364 Z" />
<path d="m 400.99,390.897 0,-43.066 37.296,21.533 z" />
<path d="m 502.885,332.068 37.296,-21.533 -37.296,-21.533 z" />
<path d="m 561.714,347.831 37.296,-21.533 0,43.066 z" />
<path d="m 642.076,412.43 37.296,-21.533 -37.296,-21.533 z" />
<path d="m 599.01,647.746 0,43.065 -37.296,-21.533 z" />
<path d="m 561.714,669.278 0,43.066 -37.296,-21.533 z" />
<path d="m 663.609,449.726 37.296,-21.533 0,43.066 z" />
<path d="m 679.372,508.555 37.296,21.533 -37.296,21.533 z" />
<path d="m 663.609,610.449 37.296,-21.532 0,43.065 z" />
<path d="m 320.628,573.153 -37.296,-21.532 37.296,-21.533 z" />
<path d="m 320.628,530.088 -37.296,-21.533 37.296,-21.533 z" />
<path d="m 320.628,412.43 -37.296,-21.533 37.296,-21.533 z" />
<path d="M 363.694,369.364 400.99,347.831 363.694,326.298 Z" />
<path d="m 459.819,332.068 -37.296,-21.533 37.296,-21.533 z" />
<path d="m 502.885,289.002 37.296,-21.533 -37.296,-21.533 z" />
<path d="m 540.181,310.535 0,-43.066 37.296,21.533 z" />
<path d="m 642.076,369.364 37.296,-21.533 -37.296,-21.533 z" />
<path d="m 679.372,390.897 0,-43.066 37.296,21.533 z" />
<path d="m 438.286,690.811 -37.296,21.533 0,-43.066 z" />
<path d="m 400.99,669.278 -37.296,21.533 0,-43.065 z" />
<path d="m 642.076,647.746 37.296,21.532 -37.296,21.533 z" />
<path d="m 599.01,690.811 0,43.066 -37.296,-21.533 z" />
<path d="m 502.885,728.107 37.296,21.533 -37.296,21.533 z" />
<path d="m 700.905,428.193 37.296,-21.533 0,43.066 z" />
<path d="m 700.905,471.259 37.296,-21.533 0,43.066 z" />
<path d="m 700.905,588.917 37.296,-21.533 0,43.065 z" />
<path d="m 700.905,631.982 37.296,-21.533 0,43.066 z" />
<path d="m 299.095,610.449 -37.296,21.533 0,-43.065 z" />
<path d="m 283.332,551.621 -37.296,-21.533 37.296,-21.533 z" />
<path d="m 299.095,449.726 -37.296,21.533 0,-43.066 z" />
<path d="m 283.332,390.897 -37.296,-21.533 37.296,-21.533 z" />
<path d="m 320.628,369.364 -37.296,-21.533 37.296,-21.533 z" />
<path d="m 422.523,310.535 -37.296,-21.533 37.296,-21.533 z" />
<path d="m 459.819,289.002 -37.296,-21.533 37.296,-21.533 z" />
<path d="m 459.819,728.107 0,43.066 -37.296,-21.533 z" />
<path d="m 400.99,712.344 -37.296,21.533 0,-43.066 z" />
<path d="m 320.628,647.746 0,43.065 -37.296,-21.533 z" />
<path d="m 679.372,669.278 37.296,21.533 -37.296,21.533 z" />
<path d="m 642.076,690.811 37.296,21.533 -37.296,21.533 z" />
<path d="m 540.181,749.64 37.296,21.533 -37.296,21.533 z" />
<path d="m 502.885,814.239 37.296,-21.533 -37.296,-21.533 z" />
<path d="m 224.503,653.515 0,-43.066 37.296,21.533 z" />
<path d="m 224.503,610.449 0,-43.065 37.296,21.533 z" />
<path d="m 224.503,492.792 0,-43.066 37.296,21.533 z" />
<path d="m 224.503,449.726 0,-43.066 37.296,21.533 z" />
<path d="m 561.714,187.107 0,43.066 -37.296,-21.533 z" />
<path d="m 599.01,208.64 0,43.066 -37.296,-21.533 z" />
<path d="m 700.905,267.469 0,43.066 -37.296,-21.533 z" />
<path d="m 738.201,289.002 0,43.066 -37.296,-21.533 z" />
<path d="m 459.819,814.239 -37.296,-21.533 37.296,-21.533 z" />
<path d="M 422.523,792.706 385.227,771.173 422.523,749.64 Z" />
<path d="m 320.628,733.877 -37.296,-21.533 37.296,-21.533 z" />
<path d="m 283.332,669.278 0,43.066 -37.296,-21.533 z" />
<path d="M 781.267,449.726 818.563,428.193 781.267,406.66 Z" />
<path d="m 781.267,492.792 37.296,-21.533 -37.296,-21.533 z" />
<path d="m 781.267,610.449 37.296,-21.532 -37.296,-21.533 z" />
<path d="m 781.267,653.515 37.296,-21.533 -37.296,-21.533 z" />
<path d="m 224.503,332.068 37.296,-21.533 -37.296,-21.533 z" />
<path d="m 261.799,310.535 0,-43.066 37.296,21.533 z" />
<path d="M 363.694,251.706 400.99,230.173 363.694,208.64 Z" />
<path d="m 400.99,230.173 0,-43.066 37.296,21.533 z" />
<path d="m 502.885,171.344 37.296,-21.533 -37.296,-21.533 z" />
<path d="m 561.714,187.107 37.296,-21.533 0,43.066 z" />
<path d="M 642.076,251.706 679.372,230.173 642.076,208.64 Z" />
<path d="m 700.905,267.469 37.296,-21.533 0,43.066 z" />
<path d="m 781.267,332.068 37.296,-21.533 -37.296,-21.533 z" />
<path d="M 738.201,771.173 700.905,749.64 738.201,728.107 Z" />
<path d="M 700.905,792.706 663.609,771.173 700.905,749.64 Z" />
<path d="M 599.01,851.535 561.714,830.002 599.01,808.469 Z" />
<path d="m 561.714,873.068 -37.296,-21.533 37.296,-21.533 z" />
<path d="m 840.096,390.897 -37.297,-21.533 37.297,-21.533 z" />
<path d="m 855.859,449.726 -37.296,21.533 0,-43.066 z" />
<path d="m 840.096,551.621 -37.297,-21.533 37.297,-21.533 z" />
<path d="m 855.859,610.449 -37.296,21.533 0,-43.065 z" />
<path d="m 840.096,712.344 -37.297,-21.533 37.297,-21.533 z" />
<path d="m 144.141,631.982 37.296,-21.533 0,43.066 z" />
<path d="m 144.141,588.917 37.296,-21.533 0,43.065 z" />
<path d="m 144.141,471.259 37.296,-21.533 0,43.066 z" />
<path d="m 144.141,428.193 37.296,-21.533 0,43.066 z" />
<path d="m 181.437,289.002 0,43.066 -37.296,-21.533 z" />
<path d="m 224.503,245.936 37.296,21.533 -37.296,21.533 z" />
<path d="m 320.628,208.64 0,43.066 -37.296,-21.533 z" />
<path d="m 363.694,165.574 37.296,21.533 -37.296,21.533 z" />
<path d="m 459.819,128.278 0,43.066 -37.296,-21.533 z" />
<path d="m 540.181,106.745 -37.296,21.533 0,-43.066 z" />
<path d="m 577.477,128.278 -37.296,21.533 0,-43.066 z" />
<path d="m 679.372,187.107 -37.296,21.533 0,-43.066 z" />
<path d="m 716.668,208.64 -37.296,21.533 0,-43.066 z" />
<path d="m 818.563,267.469 -37.296,21.533 0,-43.066 z" />
<path d="m 855.859,289.002 -37.296,21.533 0,-43.066 z" />
<path d="m 400.99,873.068 0,-43.066 37.296,21.533 z" />
<path d="m 363.694,851.535 0,-43.066 37.296,21.533 z" />
<path d="m 261.799,792.706 0,-43.066 37.296,21.533 z" />
<path d="m 224.503,771.173 0,-43.066 37.296,21.533 z" />
<path d="M 781.267,771.173 818.563,749.64 781.267,728.107 Z" />
<path d="m 738.201,814.239 -37.296,-21.533 37.296,-21.533 z" />
<path d="m 642.076,851.535 37.296,-21.533 -37.296,-21.533 z" />
<path d="M 599.01,894.601 561.714,873.068 599.01,851.535 Z" />
<path d="m 502.885,931.897 37.296,-21.533 -37.296,-21.533 z" />
<path d="m 877.392,369.364 -37.296,-21.533 37.296,-21.533 z" />
<path d="m 877.392,412.43 -37.296,-21.533 37.296,-21.533 z" />
<path d="m 877.392,530.088 -37.296,-21.533 37.296,-21.533 z" />
<path d="m 877.392,573.153 -37.296,-21.532 37.296,-21.533 z" />
<path d="m 877.392,690.811 -37.296,-21.533 37.296,-21.532 z" />
<path d="m 877.392,733.877 -37.296,-21.533 37.296,-21.533 z" />
<path d="m 122.608,669.278 37.297,21.533 -37.297,21.533 z" />
<path d="m 106.845,610.449 37.296,-21.532 0,43.065 z" />
<path d="m 122.608,508.555 37.297,21.533 -37.297,21.533 z" />
<path d="m 106.845,449.726 37.296,-21.533 0,43.066 z" />
<path d="m 122.608,347.831 37.297,21.533 -37.297,21.533 z" />
<path d="m 144.141,267.469 0,43.066 -37.296,-21.533 z" />
<path d="m 181.437,245.936 0,43.066 -37.296,-21.533 z" />
<path d="m 283.332,187.107 0,43.066 -37.296,-21.533 z" />
<path d="m 320.628,165.574 0,43.066 -37.296,-21.533 z" />
<path d="m 422.523,106.745 0,43.066 -37.296,-21.533 z" />
<path d="m 459.819,85.212 0,43.066 -37.296,-21.533 z" />
<path d="m 422.523,910.364 37.296,-21.533 0,43.066 z" />
<path d="m 363.694,894.601 0,-43.066 37.296,21.533 z" />
<path d="m 283.332,830.002 37.296,-21.533 0,43.066 z" />
<path d="m 224.503,814.239 0,-43.066 37.296,21.533 z" />
<path d="m 144.141,749.64 37.296,-21.533 0,43.066 z" />
<path d="M 818.563,792.706 855.859,771.173 818.563,749.64 Z" />
<path d="m 781.267,814.239 37.296,-21.533 -37.296,-21.533 z" />
<path d="m 679.372,873.068 37.296,-21.533 -37.296,-21.533 z" />
<path d="m 642.076,894.601 37.296,-21.533 -37.296,-21.533 z" />
<path d="m 540.181,953.43 37.296,-21.533 -37.296,-21.533 z" />
<path d="m 540.181,953.43 -37.296,21.533 0,-43.066 z" />
<path d="m 85.312,690.811 37.296,21.533 -37.296,21.533 z" />
<path d="m 85.312,647.746 37.296,21.532 -37.296,21.533 z" />
<path d="m 85.312,530.088 37.296,21.533 -37.296,21.532 z" />
<path d="m 85.312,487.022 37.296,21.533 -37.296,21.533 z" />
<path d="m 85.312,369.364 37.296,21.533 -37.296,21.533 z" />
<path d="m 85.312,326.298 37.296,21.533 -37.296,21.533 z" />
<path d="M 957.753,26.383 995.05,47.916 957.753,69.449 Z" />
<path d="m 561.714,26.383 0,43.066 -37.296,-21.533 z" />
<path d="m 599.01,47.916 0,43.066 -37.296,-21.533 z" />
<path d="m 700.905,106.745 0,43.066 -37.296,-21.533 z" />
<path d="m 738.201,128.278 0,43.066 -37.296,-21.533 z" />
<path d="m 840.096,187.107 0,43.066 -37.297,-21.533 z" />
<path d="m 877.392,208.64 0,43.066 -37.296,-21.533 z" />
<path d="m 422.523,953.43 37.296,-21.533 0,43.066 z" />
<path d="m 385.227,931.897 37.296,-21.533 0,43.066 z" />
<path d="m 283.332,873.068 37.296,-21.533 0,43.066 z" />
<path d="m 246.036,851.535 37.296,-21.533 0,43.066 z" />
<path d="m 144.141,792.706 37.296,-21.533 0,43.066 z" />
<path d="m 106.845,771.173 37.296,-21.533 0,43.066 z" />
<path d="m 957.753,26.383 -37.296,21.533 0,-43.065 z" />
<path d="m 42.247,47.916 0,43.066 L 4.951,69.449 Z" />
<path d="m 957.753,347.831 -37.296,21.533 0,-43.066 z" />
<path d="m 957.753,390.897 -37.296,21.533 0,-43.066 z" />
<path d="m 957.753,508.555 -37.296,21.533 0,-43.066 z" />
<path d="m 957.753,551.621 -37.296,21.532 0,-43.065 z" />
<path d="m 957.753,669.278 -37.296,21.533 0,-43.065 z" />
<path d="m 957.753,712.344 -37.296,21.533 0,-43.066 z" />
<path d="m 85.312,208.64 37.296,21.533 -37.296,21.533 z" />
<path d="m 122.608,187.107 37.297,21.533 -37.297,21.533 z" />
<path d="m 224.503,128.278 37.296,21.533 -37.296,21.533 z" />
<path d="m 261.799,106.745 37.296,21.533 -37.296,21.533 z" />
<path d="M 363.694,47.916 400.99,69.449 363.694,90.982 Z" />
<path d="M 400.99,26.383 438.286,47.916 400.99,69.449 Z" />
<path d="M 599.01,47.916 561.714,26.383 599.01,4.851 Z" />
<path d="m 679.372,69.449 -37.296,21.533 0,-43.066 z" />
<path d="m 738.201,85.212 0,43.066 -37.296,-21.533 z" />
<path d="m 818.563,149.811 -37.296,21.533 0,-43.066 z" />
<path d="m 877.392,165.574 0,43.066 -37.296,-21.533 z" />
<path d="m 957.753,230.173 -37.296,21.533 0,-43.066 z" />
<path d="m 957.753,69.449 -37.296,21.533 0,-43.066 z" />
<path d="m 877.392,851.535 -37.296,-21.533 37.296,-21.533 z" />
<path d="m 840.096,873.068 -37.297,-21.533 37.297,-21.533 z" />
<path d="m 738.201,931.897 -37.296,-21.533 37.296,-21.533 z" />
<path d="m 700.905,953.43 -37.296,-21.533 37.296,-21.533 z" />
<path d="M 957.753,390.897 995.05,369.364 957.753,347.831 Z" />
<path d="M 957.753,551.621 995.05,530.088 957.753,508.555 Z" />
<path d="M 957.753,712.344 995.05,690.811 957.753,669.278 Z" />
<path d="m 42.247,690.811 0,43.066 -37.296,-21.533 z" />
<path d="m 42.247,647.746 0,43.065 -37.296,-21.533 z" />
<path d="m 42.247,530.088 0,43.065 -37.296,-21.532 z" />
<path d="m 42.247,487.022 0,43.066 -37.296,-21.533 z" />
<path d="m 42.247,369.364 0,43.066 -37.296,-21.533 z" />
<path d="m 42.247,326.298 0,43.066 -37.296,-21.533 z" />
<path d="m 42.247,208.64 0,43.066 -37.296,-21.533 z" />
<path d="m 85.312,165.574 37.296,21.533 -37.296,21.533 z" />
<path d="m 181.437,128.278 0,43.066 -37.296,-21.533 z" />
<path d="m 224.503,85.212 37.296,21.533 -37.296,21.533 z" />
<path d="m 320.628,47.916 0,43.066 -37.296,-21.533 z" />
<path d="m 400.99,26.383 -37.296,21.533 0,-43.065 z" />
<path d="m 679.372,26.383 -37.296,21.533 0,-43.065 z" />
<path d="m 716.668,47.916 -37.296,21.533 0,-43.066 z" />
<path d="m 818.563,106.745 -37.296,21.533 0,-43.066 z" />
<path d="m 855.859,128.278 -37.296,21.533 0,-43.066 z" />
<path d="m 957.753,187.107 -37.296,21.533 0,-43.066 z" />
<path d="m 957.753,187.107 37.297,21.533 -37.297,21.533 z" />
<path d="m 122.608,26.383 -37.296,21.533 0,-43.065 z" />
<path d="m 261.799,953.43 0,-43.066 37.296,21.533 z" />
<path d="m 224.503,931.897 0,-43.066 37.296,21.533 z" />
<path d="m 122.608,873.068 0,-43.066 37.297,21.533 z" />
<path d="m 85.312,851.535 0,-43.066 37.296,21.533 z" />
<path d="m 920.457,851.535 37.296,-21.533 -37.296,-21.533 z" />
<path d="m 877.392,894.601 -37.296,-21.533 37.296,-21.533 z" />
<path d="m 781.267,931.897 37.296,-21.533 -37.296,-21.533 z" />
<path d="m 700.905,953.43 37.296,-21.533 0,43.066 z" />
<path d="m 42.247,165.574 0,43.066 -37.296,-21.533 z" />
<path d="m 144.141,106.745 0,43.066 -37.296,-21.533 z" />
<path d="m 181.437,85.212 0,43.066 -37.296,-21.533 z" />
<path d="m 283.332,26.383 0,43.066 -37.296,-21.533 z" />
<path d="m 283.332,26.383 37.296,-21.532 0,43.065 z" />
<path d="m 224.503,931.897 37.296,21.533 -37.296,21.533 z" />
<path d="m 144.141,910.364 37.296,-21.533 0,43.066 z" />
<path d="m 85.312,894.601 0,-43.066 37.296,21.533 z" />
<path d="M 42.247,851.535 4.951,830.002 42.247,808.469 Z" />
<path d="M 957.753,873.068 995.05,851.535 957.753,830.002 Z" />
<path d="m 920.457,894.601 37.296,-21.533 -37.296,-21.533 z" />
<path d="m 818.563,953.43 37.296,-21.533 -37.296,-21.533 z" />
<path d="m 818.563,953.43 -37.296,21.533 0,-43.066 z" />
<path d="m 840.096,26.383 0,43.066 -37.297,-21.533 z" />
<path d="m 877.392,47.916 0,43.066 -37.296,-21.533 z" />
<path d="m 144.141,953.43 37.296,-21.533 0,43.066 z" />
<path d="m 106.845,931.897 37.296,-21.533 0,43.066 z" />
<path d="M 42.247,894.601 4.951,873.068 42.247,851.535 Z" />
<path d="M 85.312,47.916 122.608,69.449 85.312,90.982 Z" />
<path d="m 122.608,26.383 37.297,21.533 -37.297,21.533 z" />
<path d="M 877.392,47.916 840.096,26.383 877.392,4.851 Z" />
</g>
<g style="fill:#808000;stroke:#000000;stroke-width:2.5;">  <!-- 3-sided golden blocks -->
<path d="m 502.885,449.726 37.296,-21.533 0,43.066 z" />
<path d="m 561.714,508.555 37.296,21.533 -37.296,21.533 z" />
<path d="m 422.523,471.259 37.296,-21.533 -37.296,-21.533 z" />
<path d="m 540.181,588.917 0,43.065 -37.296,-21.533 z" />
<path d="M 400.99,551.621 363.694,530.088 400.99,508.555 Z" />
<path d="M 561.714,390.897 599.01,369.364 561.714,347.831 Z" />
<path d="m 459.819,610.449 -37.296,21.533 0,-43.065 z" />
<path d="m 642.076,530.088 37.296,-21.533 0,43.066 z" />
<path d="M 400.99,390.897 363.694,369.364 400.99,347.831 Z" />
<path d="m 561.714,669.278 37.296,21.533 -37.296,21.533 z" />
<path d="m 320.628,530.088 -37.296,21.533 0,-43.066 z" />
<path d="m 502.885,289.002 37.296,-21.533 0,43.066 z" />
<path d="m 642.076,369.364 37.296,-21.533 0,43.066 z" />
<path d="m 400.99,669.278 0,43.066 -37.296,-21.533 z" />
<path d="m 700.905,428.193 37.296,21.533 -37.296,21.533 z" />
<path d="m 700.905,588.917 37.296,21.532 -37.296,21.533 z" />
<path d="m 283.332,390.897 37.296,-21.533 -37.296,-21.533 z" />
<path d="m 422.523,310.535 37.296,-21.533 -37.296,-21.533 z" />
<path d="m 679.372,669.278 0,43.066 -37.296,-21.533 z" />
<path d="m 540.181,749.64 0,43.066 -37.296,-21.533 z" />
<path d="m 224.503,610.449 37.296,-21.532 0,43.065 z" />
<path d="m 224.503,449.726 37.296,-21.533 0,43.066 z" />
<path d="m 561.714,187.107 37.296,21.533 -37.296,21.533 z" />
<path d="m 700.905,267.469 37.296,21.533 -37.296,21.533 z" />
<path d="m 422.523,792.706 0,-43.066 37.296,21.533 z" />
<path d="m 320.628,690.811 -37.296,21.533 0,-43.066 z" />
<path d="m 781.267,449.726 37.296,-21.533 0,43.066 z" />
<path d="m 781.267,610.449 37.296,-21.532 0,43.065 z" />
<path d="m 261.799,310.535 -37.296,-21.533 37.296,-21.533 z" />
<path d="M 400.99,230.173 363.694,208.64 400.99,187.107 Z" />
<path d="M 700.905,792.706 738.201,771.173 700.905,749.64 Z" />
<path d="M 561.714,873.068 599.01,851.535 561.714,830.002 Z" />
<path d="m 144.141,588.917 37.296,21.532 -37.296,21.533 z" />
<path d="m 144.141,428.193 37.296,21.533 -37.296,21.533 z" />
<path d="m 540.181,106.745 0,43.066 -37.296,-21.533 z" />
<path d="m 679.372,187.107 0,43.066 -37.296,-21.533 z" />
<path d="m 818.563,267.469 0,43.066 -37.296,-21.533 z" />
<path d="m 363.694,851.535 37.296,-21.533 0,43.066 z" />
<path d="m 224.503,771.173 37.296,-21.533 0,43.066 z" />
<path d="m 877.392,369.364 -37.296,21.533 0,-43.066 z" />
<path d="m 877.392,530.088 -37.296,21.533 0,-43.066 z" />
<path d="m 877.392,690.811 -37.296,21.533 0,-43.066 z" />
<path d="m 144.141,267.469 37.296,21.533 -37.296,21.533 z" />
<path d="m 283.332,187.107 37.296,21.533 -37.296,21.533 z" />
<path d="m 422.523,106.745 37.296,21.533 -37.296,21.533 z" />
<path d="M 818.563,792.706 781.267,771.173 818.563,749.64 Z" />
<path d="m 679.372,873.068 -37.296,-21.533 37.296,-21.533 z" />
<path d="m 540.181,953.43 -37.296,-21.533 37.296,-21.533 z" />
<path d="m 85.312,690.811 37.296,-21.533 0,43.066 z" />
<path d="m 85.312,530.088 37.296,-21.533 0,43.066 z" />
<path d="m 85.312,369.364 37.296,-21.533 0,43.066 z" />
<path d="m 599.01,47.916 -37.296,21.533 0,-43.066 z" />
<path d="m 738.201,128.278 -37.296,21.533 0,-43.066 z" />
<path d="m 877.392,208.64 -37.296,21.533 0,-43.066 z" />
<path d="m 422.523,953.43 0,-43.066 37.296,21.533 z" />
<path d="m 283.332,873.068 0,-43.066 37.296,21.533 z" />
<path d="m 144.141,792.706 0,-43.066 37.296,21.533 z" />
<path d="m 957.753,390.897 -37.296,-21.533 37.296,-21.533 z" />
<path d="m 957.753,551.621 -37.296,-21.533 37.296,-21.533 z" />
<path d="m 957.753,712.344 -37.296,-21.533 37.296,-21.533 z" />
<path d="m 122.608,187.107 0,43.066 -37.296,-21.533 z" />
<path d="m 261.799,106.745 0,43.066 -37.296,-21.533 z" />
<path d="m 400.99,26.383 0,43.066 -37.296,-21.533 z" />
<path d="m 957.753,26.383 0,43.066 -37.296,-21.533 z" />
<path d="m 840.096,873.068 37.296,-21.533 -37.296,-21.533 z" />
<path d="m 700.905,953.43 37.296,-21.533 -37.296,-21.533 z" />
<path d="m 679.372,26.383 0,43.066 -37.296,-21.533 z" />
<path d="m 818.563,106.745 0,43.066 -37.296,-21.533 z" />
<path d="m 957.753,187.107 0,43.066 -37.296,-21.533 z" />
<path d="m 224.503,931.897 37.296,-21.533 0,43.066 z" />
<path d="m 85.312,851.535 37.296,-21.533 0,43.066 z" />
<path d="m 122.608,26.383 0,43.066 -37.296,-21.533 z" />
<path d="m 144.141,106.745 37.296,21.533 -37.296,21.533 z" />
<path d="m 283.332,26.383 37.296,21.533 -37.296,21.533 z" />
<path d="m 957.753,873.068 -37.296,-21.533 37.296,-21.533 z" />
<path d="m 818.563,953.43 -37.296,-21.533 37.296,-21.533 z" />
<path d="m 877.392,47.916 -37.296,21.533 0,-43.066 z" />
<path d="m 144.141,953.43 0,-43.066 37.296,21.533 z" />
</g>
<g style="fill:#ff0000;stroke:#000000;stroke-width:2.5;">  <!-- 4-sided blocks -->
<path d="M 502.885,492.792 540.181,471.259 561.714,508.555 524.418,530.088 Z" />
<path d="M 502.885,492.792 459.819,492.792 459.819,449.726 502.885,449.726 Z" />
<path d="M 524.418,530.088 561.714,551.621 540.181,588.917 502.885,567.384 Z" />
<path d="M 459.819,492.792 438.286,530.088 400.99,508.555 422.523,471.259 Z" />
<path d="M 502.885,449.726 459.819,449.726 459.819,406.66 502.885,406.66 Z" />
<path d="M 540.181,471.259 577.477,449.726 599.01,487.022 561.714,508.555 Z" />
<path d="M 502.885,567.384 502.885,610.449 459.819,610.449 459.819,567.384 Z" />
<path d="M 561.714,551.621 599.01,573.153 577.477,610.449 540.181,588.917 Z" />
<path d="M 438.286,530.088 459.819,567.384 422.523,588.917 400.99,551.621 Z" />
<path d="M 422.523,471.259 400.99,508.555 363.694,487.022 385.227,449.726 Z" />
<path d="M 502.885,406.66 524.418,369.364 561.714,390.897 540.181,428.193 Z" />
<path d="M 540.181,428.193 561.714,390.897 599.01,412.43 577.477,449.726 Z" />
<path d="M 502.885,610.449 502.885,653.515 459.819,653.515 459.819,610.449 Z" />
<path d="M 599.01,487.022 642.076,487.022 642.076,530.088 599.01,530.088 Z" />
<path d="M 599.01,530.088 642.076,530.088 642.076,573.153 599.01,573.153 Z" />
<path d="M 400.99,551.621 422.523,588.917 385.227,610.449 363.694,573.153 Z" />
<path d="M 385.227,449.726 363.694,412.43 400.99,390.897 422.523,428.193 Z" />
<path d="M 422.523,428.193 400.99,390.897 438.286,369.364 459.819,406.66 Z" />
<path d="M 524.418,369.364 502.885,332.068 540.181,310.535 561.714,347.831 Z" />
<path d="M 599.01,412.43 599.01,369.364 642.076,369.364 642.076,412.43 Z" />
<path d="M 577.477,610.449 599.01,647.746 561.714,669.278 540.181,631.982 Z" />
<path d="M 540.181,631.982 561.714,669.278 524.418,690.811 502.885,653.515 Z" />
<path d="M 642.076,487.022 663.609,449.726 700.905,471.259 679.372,508.555 Z" />
<path d="M 642.076,573.153 679.372,551.621 700.905,588.917 663.609,610.449 Z" />
<path d="M 363.694,573.153 320.628,573.153 320.628,530.088 363.694,530.088 Z" />
<path d="M 363.694,530.088 320.628,530.088 320.628,487.022 363.694,487.022 Z" />
<path d="M 363.694,412.43 320.628,412.43 320.628,369.364 363.694,369.364 Z" />
<path d="M 438.286,369.364 400.99,347.831 422.523,310.535 459.819,332.068 Z" />
<path d="M 502.885,332.068 459.819,332.068 459.819,289.002 502.885,289.002 Z" />
<path d="M 561.714,347.831 540.181,310.535 577.477,289.002 599.01,326.298 Z" />
<path d="M 599.01,369.364 599.01,326.298 642.076,326.298 642.076,369.364 Z" />
<path d="M 642.076,412.43 679.372,390.897 700.905,428.193 663.609,449.726 Z" />
<path d="M 459.819,653.515 438.286,690.811 400.99,669.278 422.523,631.982 Z" />
<path d="M 422.523,631.982 400.99,669.278 363.694,647.746 385.227,610.449 Z" />
<path d="M 599.01,647.746 642.076,647.746 642.076,690.811 599.01,690.811 Z" />
<path d="M 524.418,690.811 561.714,712.344 540.181,749.64 502.885,728.107 Z" />
<path d="M 679.372,508.555 700.905,471.259 738.201,492.792 716.668,530.088 Z" />
<path d="M 679.372,551.621 716.668,530.088 738.201,567.384 700.905,588.917 Z" />
<path d="M 663.609,610.449 700.905,631.982 679.372,669.278 642.076,647.746 Z" />
<path d="M 320.628,573.153 299.095,610.449 261.799,588.917 283.332,551.621 Z" />
<path d="M 320.628,487.022 283.332,508.555 261.799,471.259 299.095,449.726 Z" />
<path d="M 320.628,412.43 299.095,449.726 261.799,428.193 283.332,390.897 Z" />
<path d="M 363.694,369.364 320.628,369.364 320.628,326.298 363.694,326.298 Z" />
<path d="M 400.99,347.831 363.694,326.298 385.227,289.002 422.523,310.535 Z" />
<path d="M 502.885,289.002 459.819,289.002 459.819,245.936 502.885,245.936 Z" />
<path d="M 679.372,390.897 716.668,369.364 738.201,406.66 700.905,428.193 Z" />
<path d="M 438.286,690.811 459.819,728.107 422.523,749.64 400.99,712.344 Z" />
<path d="M 363.694,647.746 363.694,690.811 320.628,690.811 320.628,647.746 Z" />
<path d="M 599.01,690.811 642.076,690.811 642.076,733.877 599.01,733.877 Z" />
<path d="M 561.714,712.344 599.01,733.877 577.477,771.173 540.181,749.64 Z" />
<path d="M 502.885,728.107 502.885,771.173 459.819,771.173 459.819,728.107 Z" />
<path d="M 700.905,631.982 738.201,653.515 716.668,690.811 679.372,669.278 Z" />
<path d="M 299.095,610.449 320.628,647.746 283.332,669.278 261.799,631.982 Z" />
<path d="M 224.503,567.384 246.036,530.088 283.332,551.621 261.799,588.917 Z" />
<path d="M 224.503,492.792 261.799,471.259 283.332,508.555 246.036,530.088 Z" />
<path d="M 224.503,406.66 246.036,369.364 283.332,390.897 261.799,428.193 Z" />
<path d="M 502.885,245.936 524.418,208.64 561.714,230.173 540.181,267.469 Z" />
<path d="M 540.181,267.469 561.714,230.173 599.01,251.706 577.477,289.002 Z" />
<path d="M 642.076,326.298 663.609,289.002 700.905,310.535 679.372,347.831 Z" />
<path d="M 679.372,347.831 700.905,310.535 738.201,332.068 716.668,369.364 Z" />
<path d="M 385.227,771.173 363.694,733.877 400.99,712.344 422.523,749.64 Z" />
<path d="M 320.628,733.877 320.628,690.811 363.694,690.811 363.694,733.877 Z" />
<path d="M 459.819,814.239 459.819,771.173 502.885,771.173 502.885,814.239 Z" />
<path d="M 781.267,449.726 738.201,449.726 738.201,406.66 781.267,406.66 Z" />
<path d="M 781.267,492.792 738.201,492.792 738.201,449.726 781.267,449.726 Z" />
<path d="M 781.267,610.449 738.201,610.449 738.201,567.384 781.267,567.384 Z" />
<path d="M 781.267,653.515 738.201,653.515 738.201,610.449 781.267,610.449 Z" />
<path d="M 224.503,653.515 261.799,631.982 283.332,669.278 246.036,690.811 Z" />
<path d="M 224.503,332.068 261.799,310.535 283.332,347.831 246.036,369.364 Z" />
<path d="M 261.799,310.535 299.095,289.002 320.628,326.298 283.332,347.831 Z" />
<path d="M 363.694,251.706 400.99,230.173 422.523,267.469 385.227,289.002 Z" />
<path d="M 400.99,230.173 438.286,208.64 459.819,245.936 422.523,267.469 Z" />
<path d="M 502.885,171.344 540.181,149.811 561.714,187.107 524.418,208.64 Z" />
<path d="M 599.01,208.64 642.076,208.64 642.076,251.706 599.01,251.706 Z" />
<path d="M 642.076,251.706 679.372,230.173 700.905,267.469 663.609,289.002 Z" />
<path d="M 738.201,289.002 781.267,289.002 781.267,332.068 738.201,332.068 Z" />
<path d="M 716.668,690.811 738.201,728.107 700.905,749.64 679.372,712.344 Z" />
<path d="M 679.372,712.344 700.905,749.64 663.609,771.173 642.076,733.877 Z" />
<path d="M 561.714,830.002 540.181,792.706 577.477,771.173 599.01,808.469 Z" />
<path d="M 502.885,814.239 540.181,792.706 561.714,830.002 524.418,851.535 Z" />
<path d="M 781.267,406.66 802.799,369.364 840.096,390.897 818.563,428.193 Z" />
<path d="M 781.267,492.792 818.563,471.259 840.096,508.555 802.799,530.088 Z" />
<path d="M 781.267,567.384 802.799,530.088 840.096,551.621 818.563,588.917 Z" />
<path d="M 781.267,653.515 818.563,631.982 840.096,669.278 802.799,690.811 Z" />
<path d="M 224.503,653.515 181.437,653.515 181.437,610.449 224.503,610.449 Z" />
<path d="M 224.503,610.449 181.437,610.449 181.437,567.384 224.503,567.384 Z" />
<path d="M 224.503,492.792 181.437,492.792 181.437,449.726 224.503,449.726 Z" />
<path d="M 224.503,449.726 181.437,449.726 181.437,406.66 224.503,406.66 Z" />
<path d="M 224.503,332.068 181.437,332.068 181.437,289.002 224.503,289.002 Z" />
<path d="M 299.095,289.002 261.799,267.469 283.332,230.173 320.628,251.706 Z" />
<path d="M 363.694,251.706 320.628,251.706 320.628,208.64 363.694,208.64 Z" />
<path d="M 438.286,208.64 400.99,187.107 422.523,149.811 459.819,171.344 Z" />
<path d="M 502.885,171.344 459.819,171.344 459.819,128.278 502.885,128.278 Z" />
<path d="M 561.714,187.107 540.181,149.811 577.477,128.278 599.01,165.574 Z" />
<path d="M 599.01,208.64 599.01,165.574 642.076,165.574 642.076,208.64 Z" />
<path d="M 700.905,267.469 679.372,230.173 716.668,208.64 738.201,245.936 Z" />
<path d="M 738.201,289.002 738.201,245.936 781.267,245.936 781.267,289.002 Z" />
<path d="M 781.267,332.068 818.563,310.535 840.096,347.831 802.799,369.364 Z" />
<path d="M 459.819,814.239 438.286,851.535 400.99,830.002 422.523,792.706 Z" />
<path d="M 422.523,792.706 400.99,830.002 363.694,808.469 385.227,771.173 Z" />
<path d="M 320.628,733.877 299.095,771.173 261.799,749.64 283.332,712.344 Z" />
<path d="M 224.503,728.107 246.036,690.811 283.332,712.344 261.799,749.64 Z" />
<path d="M 781.267,771.173 738.201,771.173 738.201,728.107 781.267,728.107 Z" />
<path d="M 679.372,830.002 642.076,808.469 663.609,771.173 700.905,792.706 Z" />
<path d="M 642.076,851.535 599.01,851.535 599.01,808.469 642.076,808.469 Z" />
<path d="M 540.181,910.364 502.885,888.831 524.418,851.535 561.714,873.068 Z" />
<path d="M 877.392,412.43 855.859,449.726 818.563,428.193 840.096,390.897 Z" />
<path d="M 877.392,487.022 840.096,508.555 818.563,471.259 855.859,449.726 Z" />
<path d="M 877.392,573.153 855.859,610.449 818.563,588.917 840.096,551.621 Z" />
<path d="M 877.392,647.746 840.096,669.278 818.563,631.982 855.859,610.449 Z" />
<path d="M 818.563,749.64 781.267,728.107 802.799,690.811 840.096,712.344 Z" />
<path d="M 122.608,669.278 144.141,631.982 181.437,653.515 159.905,690.811 Z" />
<path d="M 122.608,551.621 159.905,530.088 181.437,567.384 144.141,588.917 Z" />
<path d="M 122.608,508.555 144.141,471.259 181.437,492.792 159.905,530.088 Z" />
<path d="M 122.608,390.897 159.905,369.364 181.437,406.66 144.141,428.193 Z" />
<path d="M 122.608,347.831 144.141,310.535 181.437,332.068 159.905,369.364 Z" />
<path d="M 181.437,245.936 224.503,245.936 224.503,289.002 181.437,289.002 Z" />
<path d="M 246.036,208.64 283.332,230.173 261.799,267.469 224.503,245.936 Z" />
<path d="M 320.628,165.574 363.694,165.574 363.694,208.64 320.628,208.64 Z" />
<path d="M 385.227,128.278 422.523,149.811 400.99,187.107 363.694,165.574 Z" />
<path d="M 459.819,85.212 502.885,85.212 502.885,128.278 459.819,128.278 Z" />
<path d="M 877.392,326.298 840.096,347.831 818.563,310.535 855.859,289.002 Z" />
<path d="M 422.523,910.364 400.99,873.068 438.286,851.535 459.819,888.831 Z" />
<path d="M 320.628,851.535 320.628,808.469 363.694,808.469 363.694,851.535 Z" />
<path d="M 283.332,830.002 261.799,792.706 299.095,771.173 320.628,808.469 Z" />
<path d="M 181.437,771.173 181.437,728.107 224.503,728.107 224.503,771.173 Z" />
<path d="M 781.267,814.239 738.201,814.239 738.201,771.173 781.267,771.173 Z" />
<path d="M 716.668,851.535 679.372,830.002 700.905,792.706 738.201,814.239 Z" />
<path d="M 642.076,894.601 599.01,894.601 599.01,851.535 642.076,851.535 Z" />
<path d="M 577.477,931.897 540.181,910.364 561.714,873.068 599.01,894.601 Z" />
<path d="M 459.819,931.897 459.819,888.831 502.885,888.831 502.885,931.897 Z" />
<path d="M 855.859,771.173 818.563,749.64 840.096,712.344 877.392,733.877 Z" />
<path d="M 144.141,749.64 122.608,712.344 159.905,690.811 181.437,728.107 Z" />
<path d="M 85.312,647.746 106.845,610.449 144.141,631.982 122.608,669.278 Z" />
<path d="M 85.312,573.153 122.608,551.621 144.141,588.917 106.845,610.449 Z" />
<path d="M 85.312,487.022 106.845,449.726 144.141,471.259 122.608,508.555 Z" />
<path d="M 85.312,412.43 122.608,390.897 144.141,428.193 106.845,449.726 Z" />
<path d="M 85.312,326.298 106.845,289.002 144.141,310.535 122.608,347.831 Z" />
<path d="M 561.714,69.449 540.181,106.745 502.885,85.212 524.418,47.916 Z" />
<path d="M 599.01,90.982 577.477,128.278 540.181,106.745 561.714,69.449 Z" />
<path d="M 700.905,149.811 679.372,187.107 642.076,165.574 663.609,128.278 Z" />
<path d="M 738.201,171.344 716.668,208.64 679.372,187.107 700.905,149.811 Z" />
<path d="M 840.096,230.173 818.563,267.469 781.267,245.936 802.799,208.64 Z" />
<path d="M 877.392,251.706 855.859,289.002 818.563,267.469 840.096,230.173 Z" />
<path d="M 385.227,931.897 363.694,894.601 400.99,873.068 422.523,910.364 Z" />
<path d="M 320.628,894.601 320.628,851.535 363.694,851.535 363.694,894.601 Z" />
<path d="M 246.036,851.535 224.503,814.239 261.799,792.706 283.332,830.002 Z" />
<path d="M 181.437,814.239 181.437,771.173 224.503,771.173 224.503,814.239 Z" />
<path d="M 920.457,369.364 877.392,369.364 877.392,326.298 920.457,326.298 Z" />
<path d="M 920.457,412.43 877.392,412.43 877.392,369.364 920.457,369.364 Z" />
<path d="M 920.457,530.088 877.392,530.088 877.392,487.022 920.457,487.022 Z" />
<path d="M 920.457,573.153 877.392,573.153 877.392,530.088 920.457,530.088 Z" />
<path d="M 920.457,690.811 877.392,690.811 877.392,647.746 920.457,647.746 Z" />
<path d="M 920.457,733.877 877.392,733.877 877.392,690.811 920.457,690.811 Z" />
<path d="M 106.845,771.173 85.312,733.877 122.608,712.344 144.141,749.64 Z" />
<path d="M 122.608,230.173 144.141,267.469 106.845,289.002 85.312,251.706 Z" />
<path d="M 159.905,208.64 181.437,245.936 144.141,267.469 122.608,230.173 Z" />
<path d="M 261.799,149.811 283.332,187.107 246.036,208.64 224.503,171.344 Z" />
<path d="M 299.095,128.278 320.628,165.574 283.332,187.107 261.799,149.811 Z" />
<path d="M 400.99,69.449 422.523,106.745 385.227,128.278 363.694,90.982 Z" />
<path d="M 438.286,47.916 459.819,85.212 422.523,106.745 400.99,69.449 Z" />
<path d="M 642.076,47.916 642.076,90.982 599.01,90.982 599.01,47.916 Z" />
<path d="M 679.372,69.449 700.905,106.745 663.609,128.278 642.076,90.982 Z" />
<path d="M 781.267,128.278 781.267,171.344 738.201,171.344 738.201,128.278 Z" />
<path d="M 818.563,149.811 840.096,187.107 802.799,208.64 781.267,171.344 Z" />
<path d="M 920.457,208.64 920.457,251.706 877.392,251.706 877.392,208.64 Z" />
<path d="M 840.096,830.002 818.563,792.706 855.859,771.173 877.392,808.469 Z" />
<path d="M 802.799,851.535 781.267,814.239 818.563,792.706 840.096,830.002 Z" />
<path d="M 700.905,910.364 679.372,873.068 716.668,851.535 738.201,888.831 Z" />
<path d="M 663.609,931.897 642.076,894.601 679.372,873.068 700.905,910.364 Z" />
<path d="M 957.753,347.831 920.457,326.298 941.99,289.002 979.286,310.535 Z" />
<path d="M 941.99,449.726 920.457,412.43 957.753,390.897 979.286,428.193 Z" />
<path d="M 957.753,508.555 920.457,487.022 941.99,449.726 979.286,471.259 Z" />
<path d="M 941.99,610.449 920.457,573.153 957.753,551.621 979.286,588.917 Z" />
<path d="M 957.753,669.278 920.457,647.746 941.99,610.449 979.286,631.982 Z" />
<path d="M 941.99,771.173 920.457,733.877 957.753,712.344 979.286,749.64 Z" />
<path d="M 42.247,690.811 85.312,690.811 85.312,733.877 42.247,733.877 Z" />
<path d="M 42.247,647.746 85.312,647.746 85.312,690.811 42.247,690.811 Z" />
<path d="M 42.247,530.088 85.312,530.088 85.312,573.153 42.247,573.153 Z" />
<path d="M 42.247,487.022 85.312,487.022 85.312,530.088 42.247,530.088 Z" />
<path d="M 42.247,369.364 85.312,369.364 85.312,412.43 42.247,412.43 Z" />
<path d="M 42.247,326.298 85.312,326.298 85.312,369.364 42.247,369.364 Z" />
<path d="M 42.247,208.64 85.312,208.64 85.312,251.706 42.247,251.706 Z" />
<path d="M 144.141,149.811 181.437,171.344 159.905,208.64 122.608,187.107 Z" />
<path d="M 181.437,128.278 224.503,128.278 224.503,171.344 181.437,171.344 Z" />
<path d="M 283.332,69.449 320.628,90.982 299.095,128.278 261.799,106.745 Z" />
<path d="M 320.628,47.916 363.694,47.916 363.694,90.982 320.628,90.982 Z" />
<path d="M 957.753,69.449 979.286,106.745 941.99,128.278 920.457,90.982 Z" />
<path d="M 716.668,47.916 738.201,85.212 700.905,106.745 679.372,69.449 Z" />
<path d="M 781.267,85.212 781.267,128.278 738.201,128.278 738.201,85.212 Z" />
<path d="M 855.859,128.278 877.392,165.574 840.096,187.107 818.563,149.811 Z" />
<path d="M 920.457,165.574 920.457,208.64 877.392,208.64 877.392,165.574 Z" />
<path d="M 957.753,230.173 979.286,267.469 941.99,289.002 920.457,251.706 Z" />
<path d="M 261.799,910.364 283.332,873.068 320.628,894.601 299.095,931.897 Z" />
<path d="M 224.503,888.831 246.036,851.535 283.332,873.068 261.799,910.364 Z" />
<path d="M 122.608,830.002 144.141,792.706 181.437,814.239 159.905,851.535 Z" />
<path d="M 85.312,808.469 106.845,771.173 144.141,792.706 122.608,830.002 Z" />
<path d="M 920.457,851.535 877.392,851.535 877.392,808.469 920.457,808.469 Z" />
<path d="M 818.563,910.364 781.267,888.831 802.799,851.535 840.096,873.068 Z" />
<path d="M 781.267,931.897 738.201,931.897 738.201,888.831 781.267,888.831 Z" />
<path d="M 957.753,830.002 920.457,808.469 941.99,771.173 979.286,792.706 Z" />
<path d="M 42.247,165.574 85.312,165.574 85.312,208.64 42.247,208.64 Z" />
<path d="M 106.845,128.278 144.141,149.811 122.608,187.107 85.312,165.574 Z" />
<path d="M 181.437,85.212 224.503,85.212 224.503,128.278 181.437,128.278 Z" />
<path d="M 246.036,47.916 283.332,69.449 261.799,106.745 224.503,85.212 Z" />
<path d="M 181.437,931.897 181.437,888.831 224.503,888.831 224.503,931.897 Z" />
<path d="M 144.141,910.364 122.608,873.068 159.905,851.535 181.437,888.831 Z" />
<path d="M 42.247,851.535 42.247,808.469 85.312,808.469 85.312,851.535 Z" />
<path d="M 920.457,894.601 877.392,894.601 877.392,851.535 920.457,851.535 Z" />
<path d="M 855.859,931.897 818.563,910.364 840.096,873.068 877.392,894.601 Z" />
<path d="M 42.247,47.916 85.312,47.916 85.312,90.982 42.247,90.982 Z" />
<path d="M 840.096,69.449 818.563,106.745 781.267,85.212 802.799,47.916 Z" />
<path d="M 877.392,90.982 855.859,128.278 818.563,106.745 840.096,69.449 Z" />
<path d="M 941.99,128.278 979.286,149.811 957.753,187.107 920.457,165.574 Z" />
<path d="M 106.845,931.897 85.312,894.601 122.608,873.068 144.141,910.364 Z" />
<path d="M 42.247,894.601 42.247,851.535 85.312,851.535 85.312,894.601 Z" />
<path d="M 122.608,69.449 144.141,106.745 106.845,128.278 85.312,90.982 Z" />
<path d="M 159.905,47.916 181.437,85.212 144.141,106.745 122.608,69.449 Z" />
<path d="M 920.457,894.601 957.753,873.068 979.286,910.364 941.99,931.897 Z" />
<path d="M 920.457,47.916 920.457,90.982 877.392,90.982 877.392,47.916 Z" />
</g>
<g style="fill:#00ff00;stroke:#000000;stroke-width:2.5;">  <!-- 6-sided blocks -->
<path d="M 502.885,406.66 459.819,406.66 438.286,369.364 459.819,332.068 502.885,332.068 524.418,369.364 Z" />
<path d="M 577.477,449.726 599.01,412.43 642.076,412.43 663.609,449.726 642.076,487.022 599.01,487.022 Z" />
<path d="M 599.01,573.153 642.076,573.153 663.609,610.449 642.076,647.746 599.01,647.746 577.477,610.449 Z" />
<path d="M 385.227,449.726 363.694,487.022 320.628,487.022 299.095,449.726 320.628,412.43 363.694,412.43 Z" />
<path d="M 502.885,653.515 524.418,690.811 502.885,728.107 459.819,728.107 438.286,690.811 459.819,653.515 Z" />
<path d="M 363.694,573.153 385.227,610.449 363.694,647.746 320.628,647.746 299.095,610.449 320.628,573.153 Z" />
<path d="M 642.076,251.706 663.609,289.002 642.076,326.298 599.01,326.298 577.477,289.002 599.01,251.706 Z" />
<path d="M 781.267,567.384 738.201,567.384 716.668,530.088 738.201,492.792 781.267,492.792 802.799,530.088 Z" />
<path d="M 299.095,289.002 320.628,251.706 363.694,251.706 385.227,289.002 363.694,326.298 320.628,326.298 Z" />
<path d="M 438.286,208.64 459.819,171.344 502.885,171.344 524.418,208.64 502.885,245.936 459.819,245.936 Z" />
<path d="M 781.267,406.66 738.201,406.66 716.668,369.364 738.201,332.068 781.267,332.068 802.799,369.364 Z" />
<path d="M 599.01,733.877 642.076,733.877 663.609,771.173 642.076,808.469 599.01,808.469 577.477,771.173 Z" />
<path d="M 781.267,653.515 802.799,690.811 781.267,728.107 738.201,728.107 716.668,690.811 738.201,653.515 Z" />
<path d="M 224.503,567.384 181.437,567.384 159.905,530.088 181.437,492.792 224.503,492.792 246.036,530.088 Z" />
<path d="M 224.503,406.66 181.437,406.66 159.905,369.364 181.437,332.068 224.503,332.068 246.036,369.364 Z" />
<path d="M 385.227,771.173 363.694,808.469 320.628,808.469 299.095,771.173 320.628,733.877 363.694,733.877 Z" />
<path d="M 459.819,814.239 502.885,814.239 524.418,851.535 502.885,888.831 459.819,888.831 438.286,851.535 Z" />
<path d="M 224.503,653.515 246.036,690.811 224.503,728.107 181.437,728.107 159.905,690.811 181.437,653.515 Z" />
<path d="M 642.076,90.982 663.609,128.278 642.076,165.574 599.01,165.574 577.477,128.278 599.01,90.982 Z" />
<path d="M 781.267,171.344 802.799,208.64 781.267,245.936 738.201,245.936 716.668,208.64 738.201,171.344 Z" />
<path d="M 941.99,449.726 920.457,487.022 877.392,487.022 855.859,449.726 877.392,412.43 920.457,412.43 Z" />
<path d="M 941.99,610.449 920.457,647.746 877.392,647.746 855.859,610.449 877.392,573.153 920.457,573.153 Z" />
<path d="M 181.437,171.344 224.503,171.344 246.036,208.64 224.503,245.936 181.437,245.936 159.905,208.64 Z" />
<path d="M 320.628,90.982 363.694,90.982 385.227,128.278 363.694,165.574 320.628,165.574 299.095,128.278 Z" />
<path d="M 502.885,492.792 524.418,530.088 502.885,567.384 459.819,567.384 438.286,530.088 459.819,492.792 Z" />
<path d="M 941.99,289.002 920.457,326.298 877.392,326.298 855.859,289.002 877.392,251.706 920.457,251.706 Z" />
<path d="M 781.267,888.831 738.201,888.831 716.668,851.535 738.201,814.239 781.267,814.239 802.799,851.535 Z" />
<path d="M 920.457,808.469 877.392,808.469 855.859,771.173 877.392,733.877 920.457,733.877 941.99,771.173 Z" />
<path d="M 42.247,573.153 85.312,573.153 106.845,610.449 85.312,647.746 42.247,647.746 20.714,610.449 Z" />
<path d="M 42.247,412.43 85.312,412.43 106.845,449.726 85.312,487.022 42.247,487.022 20.714,449.726 Z" />
<path d="M 42.247,251.706 85.312,251.706 106.845,289.002 85.312,326.298 42.247,326.298 20.714,289.002 Z" />
<path d="M 181.437,888.831 159.905,851.535 181.437,814.239 224.503,814.239 246.036,851.535 224.503,888.831 Z" />
<path d="M 42.247,808.469 20.714,771.173 42.247,733.877 85.312,733.877 106.845,771.173 85.312,808.469 Z" />
<path d="M 920.457,90.982 941.99,128.278 920.457,165.574 877.392,165.574 855.859,128.278 877.392,90.982 Z" />
<path d="M 42.247,90.982 85.312,90.982 106.845,128.278 85.312,165.574 42.247,165.574 20.714,128.278 Z" />
</g>
</svg>
