<?xml version="1.0" encoding="UTF-8" standalone="no"?>
<svg xmlns="http://www.w3.org/2000/svg" version="1.0" width="1000.0" height="1000.0" id="C:\1-uniform_2.svg">
<!-- X Coordinate transform: fx(x)=(x+100.46832)*0.85794103-->
<!-- Y Coordinate transform: fy(y)=(1065.113-y)*0.85794103 -->
<!-- Flac geometry view -->
<g style="opacity:1.0;fill:#ff0000;fill-opacity:1;stroke:#000000;stroke-width:2.5;stroke-opacity:0.80;">  <!-- 4-sided blocks -->
<path d="M 515.166,484.834 515.166,441.937 558.063,441.937 558.063,484.834 Z" />
<path d="M 484.834,515.166 484.834,558.064 441.937,558.064 441.937,515.166 Z" />
<path d="M 588.396,515.166 631.293,515.166 631.293,558.064 588.396,558.064 Z" />
<path d="M 484.834,411.604 441.937,411.604 441.937,368.707 484.834,368.707 Z" />
<path d="M 588.396,411.604 588.396,368.707 631.293,368.707 631.293,411.604 Z" />
<path d="M 411.604,484.834 368.707,484.834 368.707,441.937 411.604,441.937 Z" />
<path d="M 515.166,588.396 558.063,588.396 558.063,631.293 515.166,631.293 Z" />
<path d="M 661.626,484.834 661.626,441.937 704.523,441.937 704.523,484.834 Z" />
<path d="M 411.604,588.396 411.604,631.293 368.707,631.293 368.707,588.396 Z" />
<path d="M 515.166,338.374 515.166,295.477 558.063,295.477 558.063,338.374 Z" />
<path d="M 661.626,588.396 704.523,588.396 704.523,631.293 661.626,631.293 Z" />
<path d="M 338.374,515.166 338.374,558.064 295.477,558.064 295.477,515.166 Z" />
<path d="M 484.834,661.626 484.834,704.523 441.937,704.523 441.937,661.626 Z" />
<path d="M 411.604,338.374 368.707,338.374 368.707,295.477 411.604,295.477 Z" />
<path d="M 661.626,338.374 661.626,295.477 704.523,295.477 704.523,338.374 Z" />
<path d="M 588.396,661.626 631.293,661.626 631.293,704.523 588.396,704.523 Z" />
<path d="M 734.856,515.166 777.753,515.166 777.753,558.064 734.856,558.064 Z" />
<path d="M 338.374,411.604 295.477,411.604 295.477,368.707 338.374,368.707 Z" />
<path d="M 484.834,265.144 441.937,265.144 441.937,222.247 484.834,222.247 Z" />
<path d="M 734.856,411.604 734.856,368.707 777.753,368.707 777.753,411.604 Z" />
<path d="M 588.396,265.144 588.396,222.247 631.293,222.247 631.293,265.144 Z" />
<path d="M 338.374,661.626 338.374,704.523 295.477,704.523 295.477,661.626 Z" />
<path d="M 265.144,484.834 222.247,484.834 222.247,441.937 265.144,441.937 Z" />
<path d="M 515.166,734.856 558.063,734.856 558.063,777.753 515.166,777.753 Z" />
<path d="M 777.753,704.523 734.856,704.523 734.856,661.626 777.753,661.626 Z" />
<path d="M 808.086,484.834 808.086,441.937 850.983,441.937 850.983,484.834 Z" />
<path d="M 222.247,631.293 222.247,588.396 265.144,588.396 265.144,631.293 Z" />
<path d="M 368.707,777.753 368.707,734.856 411.604,734.856 411.604,777.753 Z" />
<path d="M 295.477,222.247 338.374,222.247 338.374,265.144 295.477,265.144 Z" />
<path d="M 515.166,191.914 515.166,149.017 558.063,149.017 558.063,191.914 Z" />
<path d="M 777.753,222.247 777.753,265.144 734.856,265.144 734.856,222.247 Z" />
<path d="M 704.523,777.753 661.626,777.753 661.626,734.856 704.523,734.856 Z" />
<path d="M 850.983,631.293 808.086,631.293 808.086,588.396 850.983,588.396 Z" />
<path d="M 222.247,338.374 222.247,295.477 265.144,295.477 265.144,338.374 Z" />
<path d="M 149.017,515.166 191.914,515.166 191.914,558.064 149.017,558.064 Z" />
<path d="M 484.834,850.983 441.937,850.983 441.937,808.086 484.834,808.086 Z" />
<path d="M 368.707,191.914 368.707,149.017 411.604,149.017 411.604,191.914 Z" />
<path d="M 808.086,295.477 850.983,295.477 850.983,338.374 808.086,338.374 Z" />
<path d="M 704.523,191.914 661.626,191.914 661.626,149.017 704.523,149.017 Z" />
<path d="M 631.293,808.086 631.293,850.983 588.396,850.983 588.396,808.086 Z" />
<path d="M 881.316,558.064 881.316,515.166 924.213,515.166 924.213,558.064 Z" />
<path d="M 222.247,734.856 265.144,734.856 265.144,777.753 222.247,777.753 Z" />
<path d="M 191.914,411.604 149.017,411.604 149.017,368.707 191.914,368.707 Z" />
<path d="M 484.834,118.684 441.937,118.684 441.937,75.787 484.834,75.787 Z" />
<path d="M 881.316,411.604 881.316,368.707 924.213,368.707 924.213,411.604 Z" />
<path d="M 588.396,118.684 588.396,75.787 631.293,75.787 631.293,118.684 Z" />
<path d="M 808.086,734.856 850.983,734.856 850.983,777.753 808.086,777.753 Z" />
<path d="M 191.914,661.626 191.914,704.523 149.017,704.523 149.017,661.626 Z" />
<path d="M 338.374,808.086 338.374,850.983 295.477,850.983 295.477,808.086 Z" />
<path d="M 118.684,484.834 75.787,484.834 75.787,441.937 118.684,441.937 Z" />
<path d="M 515.166,881.316 558.063,881.316 558.063,924.213 515.166,924.213 Z" />
<path d="M 265.144,191.914 222.247,191.914 222.247,149.017 265.144,149.017 Z" />
<path d="M 808.086,191.914 808.086,149.017 850.983,149.017 850.983,191.914 Z" />
<path d="M 777.753,850.983 734.856,850.983 734.856,808.086 777.753,808.086 Z" />
<path d="M 924.213,704.523 881.316,704.523 881.316,661.626 924.213,661.626 Z" />
<path d="M 75.787,631.293 75.787,588.396 118.684,588.396 118.684,631.293 Z" />
<path d="M 368.707,924.213 368.707,881.316 411.604,881.316 411.604,924.213 Z" />
<path d="M 149.017,222.247 191.914,222.247 191.914,265.144 149.017,265.144 Z" />
<path d="M 295.477,75.787 338.374,75.787 338.374,118.684 295.477,118.684 Z" />
<path d="M 924.213,222.247 924.213,265.144 881.316,265.144 881.316,222.247 Z" />
<path d="M 777.753,75.787 777.753,118.684 734.856,118.684 734.856,75.787 Z" />
<path d="M 850.983,924.213 808.086,924.213 808.086,881.316 850.983,881.316 Z" />
<path d="M 704.523,924.213 661.626,924.213 661.626,881.316 704.523,881.316 Z" />
<path d="M 149.017,850.983 149.017,808.086 191.914,808.086 191.914,850.983 Z" />
<path d="M 75.787,295.477 118.684,295.477 118.684,338.374 75.787,338.374 Z" />
<path d="M 118.684,924.213 75.787,924.213 75.787,881.316 118.684,881.316 Z" />
<path d="M 924.213,850.983 881.316,850.983 881.316,808.086 924.213,808.086 Z" />
<path d="M 75.787,777.753 75.787,734.856 118.684,734.856 118.684,777.753 Z" />
<path d="M 222.247,924.213 222.247,881.316 265.144,881.316 265.144,924.213 Z" />
<path d="M 149.017,75.787 191.914,75.787 191.914,118.684 149.017,118.684 Z" />
<path d="M 881.316,75.787 924.213,75.787 924.213,118.684 881.316,118.684 Z" />
<path d="M 75.787,149.017 118.684,149.017 118.684,191.914 75.787,191.914 Z" />
</g>
<g style="opacity:1.0;fill:#ffa000;fill-opacity:1;stroke:#000000;stroke-width:2.5;stroke-opacity:0.80;">  <!-- 8-sided blocks -->
<path d="M 515.166,484.834 484.834,515.166 441.937,515.166 411.604,484.834 411.604,441.937 441.937,411.604 484.834,411.604 515.166,441.937 Z" />
<path d="M 558.063,484.834 558.063,441.937 588.396,411.604 631.293,411.604 661.626,441.937 661.626,484.834 631.293,515.166 588.396,515.166 Z" />
<path d="M 515.166,441.937 484.834,411.604 484.834,368.707 515.166,338.374 558.063,338.374 588.396,368.707 588.396,411.604 558.063,441.937 Z" />
<path d="M 441.937,515.166 441.937,558.064 411.604,588.396 368.707,588.396 338.374,558.064 338.374,515.166 368.707,484.834 411.604,484.834 Z" />
<path d="M 484.834,558.064 515.166,588.396 515.166,631.293 484.834,661.626 441.937,661.626 411.604,631.293 411.604,588.396 441.937,558.064 Z" />
<path d="M 588.396,558.064 631.293,558.064 661.626,588.396 661.626,631.293 631.293,661.626 588.396,661.626 558.063,631.293 558.063,588.396 Z" />
<path d="M 631.293,515.166 661.626,484.834 704.523,484.834 734.856,515.166 734.856,558.064 704.523,588.396 661.626,588.396 631.293,558.064 Z" />
<path d="M 484.834,368.707 441.937,368.707 411.604,338.374 411.604,295.477 441.937,265.144 484.834,265.144 515.166,295.477 515.166,338.374 Z" />
<path d="M 441.937,411.604 411.604,441.937 368.707,441.937 338.374,411.604 338.374,368.707 368.707,338.374 411.604,338.374 441.937,368.707 Z" />
<path d="M 631.293,411.604 631.293,368.707 661.626,338.374 704.523,338.374 734.856,368.707 734.856,411.604 704.523,441.937 661.626,441.937 Z" />
<path d="M 588.396,368.707 558.063,338.374 558.063,295.477 588.396,265.144 631.293,265.144 661.626,295.477 661.626,338.374 631.293,368.707 Z" />
<path d="M 368.707,484.834 338.374,515.166 295.477,515.166 265.144,484.834 265.144,441.937 295.477,411.604 338.374,411.604 368.707,441.937 Z" />
<path d="M 515.166,631.293 558.063,631.293 588.396,661.626 588.396,704.523 558.063,734.856 515.166,734.856 484.834,704.523 484.834,661.626 Z" />
<path d="M 704.523,484.834 704.523,441.937 734.856,411.604 777.753,411.604 808.086,441.937 808.086,484.834 777.753,515.166 734.856,515.166 Z" />
<path d="M 368.707,588.396 368.707,631.293 338.374,661.626 295.477,661.626 265.144,631.293 265.144,588.396 295.477,558.064 338.374,558.064 Z" />
<path d="M 411.604,631.293 441.937,661.626 441.937,704.523 411.604,734.856 368.707,734.856 338.374,704.523 338.374,661.626 368.707,631.293 Z" />
<path d="M 515.166,295.477 484.834,265.144 484.834,222.247 515.166,191.914 558.063,191.914 588.396,222.247 588.396,265.144 558.063,295.477 Z" />
<path d="M 661.626,631.293 704.523,631.293 734.856,661.626 734.856,704.523 704.523,734.856 661.626,734.856 631.293,704.523 631.293,661.626 Z" />
<path d="M 704.523,588.396 734.856,558.064 777.753,558.064 808.086,588.396 808.086,631.293 777.753,661.626 734.856,661.626 704.523,631.293 Z" />
<path d="M 191.914,558.064 191.914,515.166 222.247,484.834 265.144,484.834 295.477,515.166 295.477,558.064 265.144,588.396 222.247,588.396 Z" />
<path d="M 441.937,808.086 411.604,777.753 411.604,734.856 441.937,704.523 484.834,704.523 515.166,734.856 515.166,777.753 484.834,808.086 Z" />
<path d="M 368.707,191.914 411.604,191.914 441.937,222.247 441.937,265.144 411.604,295.477 368.707,295.477 338.374,265.144 338.374,222.247 Z" />
<path d="M 265.144,295.477 295.477,265.144 338.374,265.144 368.707,295.477 368.707,338.374 338.374,368.707 295.477,368.707 265.144,338.374 Z" />
<path d="M 808.086,295.477 808.086,338.374 777.753,368.707 734.856,368.707 704.523,338.374 704.523,295.477 734.856,265.144 777.753,265.144 Z" />
<path d="M 704.523,191.914 734.856,222.247 734.856,265.144 704.523,295.477 661.626,295.477 631.293,265.144 631.293,222.247 661.626,191.914 Z" />
<path d="M 631.293,808.086 588.396,808.086 558.063,777.753 558.063,734.856 588.396,704.523 631.293,704.523 661.626,734.856 661.626,777.753 Z" />
<path d="M 881.316,558.064 850.983,588.396 808.086,588.396 777.753,558.064 777.753,515.166 808.086,484.834 850.983,484.834 881.316,515.166 Z" />
<path d="M 191.914,411.604 191.914,368.707 222.247,338.374 265.144,338.374 295.477,368.707 295.477,411.604 265.144,441.937 222.247,441.937 Z" />
<path d="M 411.604,149.017 441.937,118.684 484.834,118.684 515.166,149.017 515.166,191.914 484.834,222.247 441.937,222.247 411.604,191.914 Z" />
<path d="M 850.983,338.374 881.316,368.707 881.316,411.604 850.983,441.937 808.086,441.937 777.753,411.604 777.753,368.707 808.086,338.374 Z" />
<path d="M 661.626,149.017 661.626,191.914 631.293,222.247 588.396,222.247 558.063,191.914 558.063,149.017 588.396,118.684 631.293,118.684 Z" />
<path d="M 222.247,734.856 191.914,704.523 191.914,661.626 222.247,631.293 265.144,631.293 295.477,661.626 295.477,704.523 265.144,734.856 Z" />
<path d="M 368.707,777.753 338.374,808.086 295.477,808.086 265.144,777.753 265.144,734.856 295.477,704.523 338.374,704.523 368.707,734.856 Z" />
<path d="M 149.017,515.166 118.684,484.834 118.684,441.937 149.017,411.604 191.914,411.604 222.247,441.937 222.247,484.834 191.914,515.166 Z" />
<path d="M 484.834,850.983 484.834,808.086 515.166,777.753 558.063,777.753 588.396,808.086 588.396,850.983 558.063,881.316 515.166,881.316 Z" />
<path d="M 777.753,704.523 808.086,734.856 808.086,777.753 777.753,808.086 734.856,808.086 704.523,777.753 704.523,734.856 734.856,704.523 Z" />
<path d="M 777.753,704.523 777.753,661.626 808.086,631.293 850.983,631.293 881.316,661.626 881.316,704.523 850.983,734.856 808.086,734.856 Z" />
<path d="M 881.316,411.604 924.213,411.604 954.545,441.937 954.545,484.834 924.213,515.166 881.316,515.166 850.983,484.834 850.983,441.937 Z" />
<path d="M 191.914,558.064 222.247,588.396 222.247,631.293 191.914,661.626 149.017,661.626 118.684,631.293 118.684,588.396 149.017,558.064 Z" />
<path d="M 441.937,808.086 441.937,850.983 411.604,881.316 368.707,881.316 338.374,850.983 338.374,808.086 368.707,777.753 411.604,777.753 Z" />
<path d="M 368.707,191.914 338.374,222.247 295.477,222.247 265.144,191.914 265.144,149.017 295.477,118.684 338.374,118.684 368.707,149.017 Z" />
<path d="M 295.477,222.247 295.477,265.144 265.144,295.477 222.247,295.477 191.914,265.144 191.914,222.247 222.247,191.914 265.144,191.914 Z" />
<path d="M 484.834,118.684 484.834,75.787 515.166,45.455 558.063,45.455 588.396,75.787 588.396,118.684 558.063,149.017 515.166,149.017 Z" />
<path d="M 777.753,222.247 808.086,191.914 850.983,191.914 881.316,222.247 881.316,265.144 850.983,295.477 808.086,295.477 777.753,265.144 Z" />
<path d="M 777.753,222.247 734.856,222.247 704.523,191.914 704.523,149.017 734.856,118.684 777.753,118.684 808.086,149.017 808.086,191.914 Z" />
<path d="M 704.523,777.753 734.856,808.086 734.856,850.983 704.523,881.316 661.626,881.316 631.293,850.983 631.293,808.086 661.626,777.753 Z" />
<path d="M 850.983,631.293 850.983,588.396 881.316,558.064 924.213,558.064 954.545,588.396 954.545,631.293 924.213,661.626 881.316,661.626 Z" />
<path d="M 222.247,338.374 191.914,368.707 149.017,368.707 118.684,338.374 118.684,295.477 149.017,265.144 191.914,265.144 222.247,295.477 Z" />
<path d="M 149.017,515.166 149.017,558.064 118.684,588.396 75.787,588.396 45.455,558.064 45.455,515.166 75.787,484.834 118.684,484.834 Z" />
<path d="M 484.834,850.983 515.166,881.316 515.166,924.213 484.834,954.546 441.937,954.546 411.604,924.213 411.604,881.316 441.937,850.983 Z" />
<path d="M 411.604,149.017 368.707,149.017 338.374,118.684 338.374,75.787 368.707,45.455 411.604,45.455 441.937,75.787 441.937,118.684 Z" />
<path d="M 850.983,338.374 850.983,295.477 881.316,265.144 924.213,265.144 954.545,295.477 954.545,338.374 924.213,368.707 881.316,368.707 Z" />
<path d="M 661.626,149.017 631.293,118.684 631.293,75.787 661.626,45.455 704.523,45.455 734.856,75.787 734.856,118.684 704.523,149.017 Z" />
<path d="M 588.396,850.983 631.293,850.983 661.626,881.316 661.626,924.213 631.293,954.546 588.396,954.546 558.063,924.213 558.063,881.316 Z" />
<path d="M 515.166,484.834 558.063,484.834 588.396,515.166 588.396,558.064 558.063,588.396 515.166,588.396 484.834,558.064 484.834,515.166 Z" />
<path d="M 222.247,734.856 222.247,777.753 191.914,808.086 149.017,808.086 118.684,777.753 118.684,734.856 149.017,704.523 191.914,704.523 Z" />
<path d="M 265.144,777.753 295.477,808.086 295.477,850.983 265.144,881.316 222.247,881.316 191.914,850.983 191.914,808.086 222.247,777.753 Z" />
<path d="M 149.017,411.604 118.684,441.937 75.787,441.937 45.455,411.604 45.455,368.707 75.787,338.374 118.684,338.374 149.017,368.707 Z" />
<path d="M 850.983,881.316 808.086,881.316 777.753,850.983 777.753,808.086 808.086,777.753 850.983,777.753 881.316,808.086 881.316,850.983 Z" />
<path d="M 924.213,808.086 881.316,808.086 850.983,777.753 850.983,734.856 881.316,704.523 924.213,704.523 954.545,734.856 954.545,777.753 Z" />
<path d="M 75.787,149.017 45.455,118.684 45.455,75.787 75.787,45.455 118.684,45.455 149.017,75.787 149.017,118.684 118.684,149.017 Z" />
<path d="M 75.787,734.856 45.455,704.523 45.455,661.626 75.787,631.293 118.684,631.293 149.017,661.626 149.017,704.523 118.684,734.856 Z" />
<path d="M 265.144,924.213 265.144,881.316 295.477,850.983 338.374,850.983 368.707,881.316 368.707,924.213 338.374,954.546 295.477,954.546 Z" />
<path d="M 191.914,75.787 222.247,45.455 265.144,45.455 295.477,75.787 295.477,118.684 265.144,149.017 222.247,149.017 191.914,118.684 Z" />
<path d="M 118.684,149.017 149.017,118.684 191.914,118.684 222.247,149.017 222.247,191.914 191.914,222.247 149.017,222.247 118.684,191.914 Z" />
<path d="M 924.213,118.684 954.545,149.017 954.545,191.914 924.213,222.247 881.316,222.247 850.983,191.914 850.983,149.017 881.316,118.684 Z" />
<path d="M 881.316,75.787 881.316,118.684 850.983,149.017 808.086,149.017 777.753,118.684 777.753,75.787 808.086,45.455 850.983,45.455 Z" />
<path d="M 850.983,924.213 850.983,881.316 881.316,850.983 924.213,850.983 954.545,881.316 954.545,924.213 924.213,954.546 881.316,954.546 Z" />
<path d="M 808.086,924.213 777.753,954.546 734.856,954.546 704.523,924.213 704.523,881.316 734.856,850.983 777.753,850.983 808.086,881.316 Z" />
<path d="M 75.787,191.914 118.684,191.914 149.017,222.247 149.017,265.144 118.684,295.477 75.787,295.477 45.455,265.144 45.455,222.247 Z" />
<path d="M 118.684,924.213 118.684,881.316 149.017,850.983 191.914,850.983 222.247,881.316 222.247,924.213 191.914,954.546 149.017,954.546 Z" />
<path d="M 75.787,881.316 45.455,850.983 45.455,808.086 75.787,777.753 118.684,777.753 149.017,808.086 149.017,850.983 118.684,881.316 Z" />
</g>
</svg>
