<?xml version="1.0" encoding="UTF-8" standalone="no"?>
<svg xmlns="http://www.w3.org/2000/svg" version="1.0" width="1000.0" height="1000.0" id="C:\1-uniform_9.svg">
<!-- X Coordinate transform: fx(x)=(x+143.62335)*0.7728302-->
<!-- Y Coordinate transform: fy(y)=(1143.6233-y)*0.7728302 -->
<!-- Flac geometry view -->
<g style="opacity:1.0;fill:#ffff00;fill-opacity:1;stroke:#000000;stroke-width:2.5;stroke-opacity:0.80;">  <!-- 3-sided blocks -->
<path d="M 497.412,497.411 516.732,463.947 536.053,497.411 Z" />
<path d="M 497.412,497.411 497.412,536.053 463.947,516.732 Z" />
<path d="M 497.412,497.411 478.091,463.947 516.732,463.947 Z" />
<path d="M 536.053,497.411 569.518,516.732 536.053,536.053 Z" />
<path d="M 536.053,497.411 569.518,478.091 569.518,516.732 Z" />
<path d="M 497.412,536.053 536.053,536.053 516.732,569.518 Z" />
<path d="M 497.412,536.053 463.947,555.374 463.947,516.732 Z" />
<path d="M 463.947,516.732 425.306,516.732 444.626,483.268 Z" />
<path d="M 478.091,463.947 444.626,444.626 478.091,425.305 Z" />
<path d="M 478.091,463.947 444.626,483.268 444.626,444.626 Z" />
<path d="M 516.732,463.947 550.197,444.626 516.732,425.305 Z" />
<path d="M 536.053,536.053 555.374,569.518 516.732,569.518 Z" />
<path d="M 569.518,478.091 588.838,444.626 608.159,478.091 Z" />
<path d="M 569.518,478.091 550.197,444.626 588.838,444.626 Z" />
<path d="M 569.518,516.732 608.159,516.732 588.838,550.197 Z" />
<path d="M 516.732,569.518 516.732,608.159 483.268,588.838 Z" />
<path d="M 463.947,555.374 444.626,588.838 425.306,555.374 Z" />
<path d="M 463.947,555.374 483.268,588.838 444.626,588.838 Z" />
<path d="M 425.306,516.732 425.306,555.374 391.841,536.053 Z" />
<path d="M 425.306,516.732 405.985,483.268 444.626,483.268 Z" />
<path d="M 478.091,425.305 497.412,391.841 516.732,425.305 Z" />
<path d="M 478.091,425.305 458.77,391.841 497.412,391.841 Z" />
<path d="M 444.626,444.626 405.985,444.626 425.306,411.162 Z" />
<path d="M 516.732,425.305 550.197,405.985 550.197,444.626 Z" />
<path d="M 555.374,569.518 588.838,588.838 555.374,608.159 Z" />
<path d="M 555.374,569.518 588.838,550.197 588.838,588.838 Z" />
<path d="M 608.159,478.091 641.624,497.411 608.159,516.732 Z" />
<path d="M 608.159,478.091 641.624,458.77 641.624,497.411 Z" />
<path d="M 588.838,444.626 622.303,425.305 588.838,405.985 Z" />
<path d="M 608.159,516.732 627.48,550.197 588.838,550.197 Z" />
<path d="M 516.732,608.159 555.374,608.159 536.053,641.624 Z" />
<path d="M 516.732,608.159 483.268,627.48 483.268,588.838 Z" />
<path d="M 425.306,555.374 391.841,574.695 391.841,536.053 Z" />
<path d="M 444.626,588.838 444.626,627.48 411.162,608.159 Z" />
<path d="M 391.841,536.053 353.199,536.053 372.52,502.589 Z" />
<path d="M 405.985,483.268 372.52,463.947 405.985,444.626 Z" />
<path d="M 405.985,483.268 372.52,502.589 372.52,463.947 Z" />
<path d="M 458.77,391.841 425.306,372.52 458.77,353.199 Z" />
<path d="M 458.77,391.841 425.306,411.162 425.306,372.52 Z" />
<path d="M 497.412,391.841 530.876,372.52 497.412,353.199 Z" />
<path d="M 405.985,444.626 386.664,411.162 425.306,411.162 Z" />
<path d="M 550.197,405.985 569.518,372.52 588.838,405.985 Z" />
<path d="M 550.197,405.985 530.876,372.52 569.518,372.52 Z" />
<path d="M 555.374,608.159 574.695,641.624 536.053,641.624 Z" />
<path d="M 588.838,588.838 627.48,588.838 608.159,622.303 Z" />
<path d="M 641.624,458.77 660.944,425.305 680.265,458.77 Z" />
<path d="M 641.624,458.77 622.303,425.305 660.944,425.305 Z" />
<path d="M 641.624,497.411 680.265,497.411 660.944,530.876 Z" />
<path d="M 588.838,405.985 622.303,386.664 622.303,425.305 Z" />
<path d="M 627.48,550.197 660.944,569.518 627.48,588.838 Z" />
<path d="M 627.48,550.197 660.944,530.876 660.944,569.518 Z" />
<path d="M 536.053,641.624 536.053,680.265 502.589,660.944 Z" />
<path d="M 483.268,627.48 463.947,660.944 444.626,627.48 Z" />
<path d="M 483.268,627.48 502.589,660.944 463.947,660.944 Z" />
<path d="M 391.841,574.695 372.52,608.159 353.199,574.695 Z" />
<path d="M 391.841,574.695 411.162,608.159 372.52,608.159 Z" />
<path d="M 444.626,627.48 411.162,646.801 411.162,608.159 Z" />
<path d="M 353.199,536.053 353.199,574.695 319.735,555.374 Z" />
<path d="M 353.199,536.053 333.879,502.589 372.52,502.589 Z" />
<path d="M 372.52,463.947 333.879,463.947 353.199,430.482 Z" />
<path d="M 458.77,353.199 478.091,319.735 497.412,353.199 Z" />
<path d="M 458.77,353.199 439.449,319.735 478.091,319.735 Z" />
<path d="M 425.306,372.52 386.664,372.52 405.985,339.056 Z" />
<path d="M 497.412,353.199 530.876,333.879 530.876,372.52 Z" />
<path d="M 386.664,411.162 353.199,391.841 386.664,372.52 Z" />
<path d="M 386.664,411.162 353.199,430.482 353.199,391.841 Z" />
<path d="M 569.518,372.52 602.982,353.199 569.518,333.879 Z" />
<path d="M 574.695,641.624 608.159,660.944 574.695,680.265 Z" />
<path d="M 574.695,641.624 608.159,622.303 608.159,660.944 Z" />
<path d="M 627.48,588.838 646.801,622.303 608.159,622.303 Z" />
<path d="M 680.265,458.77 713.73,478.091 680.265,497.411 Z" />
<path d="M 680.265,458.77 713.73,439.449 713.73,478.091 Z" />
<path d="M 660.944,425.305 694.409,405.985 660.944,386.664 Z" />
<path d="M 680.265,497.411 699.586,530.876 660.944,530.876 Z" />
<path d="M 622.303,386.664 641.624,353.199 660.944,386.664 Z" />
<path d="M 622.303,386.664 602.982,353.199 641.624,353.199 Z" />
<path d="M 660.944,569.518 699.586,569.518 680.265,602.982 Z" />
<path d="M 536.053,680.265 574.695,680.265 555.374,713.73 Z" />
<path d="M 536.053,680.265 502.589,699.586 502.589,660.944 Z" />
<path d="M 463.947,660.944 463.947,699.586 430.483,680.265 Z" />
<path d="M 353.199,574.695 319.735,594.015 319.735,555.374 Z" />
<path d="M 372.52,608.159 372.52,646.801 339.056,627.48 Z" />
<path d="M 411.162,646.801 391.841,680.265 372.52,646.801 Z" />
<path d="M 411.162,646.801 430.483,680.265 391.841,680.265 Z" />
<path d="M 319.735,555.374 281.093,555.374 300.414,521.909 Z" />
<path d="M 333.879,502.589 300.414,483.268 333.879,463.947 Z" />
<path d="M 333.879,502.589 300.414,521.909 300.414,483.268 Z" />
<path d="M 333.879,463.947 314.558,430.482 353.199,430.482 Z" />
<path d="M 439.449,319.735 405.985,300.414 439.449,281.093 Z" />
<path d="M 439.449,319.735 405.985,339.056 405.985,300.414 Z" />
<path d="M 478.091,319.735 511.555,300.414 478.091,281.093 Z" />
<path d="M 386.664,372.52 367.343,339.056 405.985,339.056 Z" />
<path d="M 530.876,333.879 550.197,300.414 569.518,333.879 Z" />
<path d="M 530.876,333.879 511.555,300.414 550.197,300.414 Z" />
<path d="M 353.199,391.841 314.558,391.841 333.879,358.376 Z" />
<path d="M 569.518,333.879 602.982,314.558 602.982,353.199 Z" />
<path d="M 574.695,680.265 594.015,713.73 555.374,713.73 Z" />
<path d="M 608.159,660.944 646.801,660.944 627.48,694.409 Z" />
<path d="M 646.801,622.303 680.265,641.624 646.801,660.944 Z" />
<path d="M 646.801,622.303 680.265,602.982 680.265,641.624 Z" />
<path d="M 713.73,439.449 733.05,405.985 752.371,439.449 Z" />
<path d="M 713.73,439.449 694.409,405.985 733.05,405.985 Z" />
<path d="M 713.73,478.091 752.371,478.091 733.05,511.555 Z" />
<path d="M 660.944,386.664 694.409,367.343 694.409,405.985 Z" />
<path d="M 699.586,530.876 733.05,550.197 699.586,569.518 Z" />
<path d="M 699.586,530.876 733.05,511.555 733.05,550.197 Z" />
<path d="M 641.624,353.199 675.088,333.879 641.624,314.558 Z" />
<path d="M 699.586,569.518 718.907,602.982 680.265,602.982 Z" />
<path d="M 555.374,713.73 555.374,752.371 521.909,733.05 Z" />
<path d="M 502.589,699.586 483.268,733.05 463.947,699.586 Z" />
<path d="M 502.589,699.586 521.909,733.05 483.268,733.05 Z" />
<path d="M 463.947,699.586 430.483,718.907 430.483,680.265 Z" />
<path d="M 319.735,594.015 300.414,627.48 281.093,594.015 Z" />
<path d="M 319.735,594.015 339.056,627.48 300.414,627.48 Z" />
<path d="M 372.52,646.801 339.056,666.121 339.056,627.48 Z" />
<path d="M 391.841,680.265 391.841,718.907 358.376,699.586 Z" />
<path d="M 281.093,555.374 281.093,594.015 247.629,574.695 Z" />
<path d="M 281.093,555.374 261.773,521.909 300.414,521.909 Z" />
<path d="M 281.093,449.803 300.414,483.268 261.773,483.268 Z" />
<path d="M 281.093,411.162 314.558,391.841 314.558,430.482 Z" />
<path d="M 281.093,411.162 314.558,430.482 281.093,449.803 Z" />
<path d="M 458.77,247.629 478.091,281.093 439.449,281.093 Z" />
<path d="M 458.77,247.629 439.449,281.093 420.129,247.629 Z" />
<path d="M 386.664,266.95 405.985,300.414 367.343,300.414 Z" />
<path d="M 511.555,261.773 511.555,300.414 478.091,281.093 Z" />
<path d="M 333.879,319.735 367.343,300.414 367.343,339.056 Z" />
<path d="M 333.879,319.735 367.343,339.056 333.879,358.376 Z" />
<path d="M 550.197,261.773 583.661,281.093 550.197,300.414 Z" />
<path d="M 295.237,358.376 333.879,358.376 314.558,391.841 Z" />
<path d="M 622.303,281.093 641.624,314.558 602.982,314.558 Z" />
<path d="M 583.661,281.093 622.303,281.093 602.982,314.558 Z" />
<path d="M 594.015,752.371 627.48,733.05 594.015,713.73 Z" />
<path d="M 627.48,733.05 594.015,713.73 627.48,694.409 Z" />
<path d="M 666.121,694.409 627.48,694.409 646.801,660.944 Z" />
<path d="M 718.907,641.624 699.586,675.088 680.265,641.624 Z" />
<path d="M 785.836,458.77 752.371,478.091 752.371,439.449 Z" />
<path d="M 785.836,420.128 785.836,458.77 752.371,439.449 Z" />
<path d="M 733.05,367.343 766.515,386.664 733.05,405.985 Z" />
<path d="M 771.692,511.555 733.05,511.555 752.371,478.091 Z" />
<path d="M 733.05,367.343 694.409,367.343 713.73,333.879 Z" />
<path d="M 713.73,333.879 694.409,367.343 675.088,333.879 Z" />
<path d="M 771.692,550.197 752.371,583.661 733.05,550.197 Z" />
<path d="M 675.088,295.237 675.088,333.879 641.624,314.558 Z" />
<path d="M 718.907,641.624 752.371,622.303 718.907,602.982 Z" />
<path d="M 752.371,583.661 752.371,622.303 718.907,602.982 Z" />
<path d="M 594.015,752.371 574.695,785.836 555.374,752.371 Z" />
<path d="M 521.909,771.692 521.909,733.05 555.374,752.371 Z" />
<path d="M 483.268,771.692 449.803,752.371 483.268,733.05 Z" />
<path d="M 411.162,752.371 391.841,718.907 430.483,718.907 Z" />
<path d="M 449.803,752.371 411.162,752.371 430.483,718.907 Z" />
<path d="M 247.629,613.336 247.629,574.695 281.093,594.015 Z" />
<path d="M 300.414,666.121 266.95,646.801 300.414,627.48 Z" />
<path d="M 300.414,666.121 339.056,666.121 319.735,699.586 Z" />
<path d="M 319.735,699.586 339.056,666.121 358.376,699.586 Z" />
<path d="M 358.376,738.227 358.376,699.586 391.841,718.907 Z" />
<path d="M 247.629,574.695 208.987,574.695 228.308,541.23 Z" />
<path d="M 261.773,521.909 228.308,502.589 261.773,483.268 Z" />
<path d="M 261.773,521.909 228.308,541.23 228.308,502.589 Z" />
<path d="M 281.093,449.803 261.773,483.268 242.452,449.803 Z" />
<path d="M 281.093,411.162 242.452,411.162 261.773,377.697 Z" />
<path d="M 420.129,247.629 386.664,228.308 420.129,208.987 Z" />
<path d="M 386.664,266.95 386.664,228.308 420.129,247.629 Z" />
<path d="M 458.77,247.629 492.235,228.308 458.77,208.987 Z" />
<path d="M 386.664,266.95 367.343,300.414 348.022,266.95 Z" />
<path d="M 550.197,261.773 511.555,261.773 530.876,228.308 Z" />
<path d="M 511.555,261.773 492.235,228.308 530.876,228.308 Z" />
<path d="M 333.879,319.735 295.237,319.735 314.558,286.27 Z" />
<path d="M 550.197,261.773 583.661,242.452 583.661,281.093 Z" />
<path d="M 295.237,358.376 261.773,339.056 295.237,319.735 Z" />
<path d="M 295.237,358.376 261.773,377.697 261.773,339.056 Z" />
<path d="M 622.303,281.093 655.767,261.773 622.303,242.452 Z" />
<path d="M 594.015,752.371 613.336,785.836 574.695,785.836 Z" />
<path d="M 627.48,733.05 666.121,733.05 646.801,766.515 Z" />
<path d="M 666.121,694.409 699.586,713.73 666.121,733.05 Z" />
<path d="M 666.121,694.409 699.586,675.088 699.586,713.73 Z" />
<path d="M 718.907,641.624 738.227,675.088 699.586,675.088 Z" />
<path d="M 785.836,420.128 805.156,386.664 824.477,420.128 Z" />
<path d="M 785.836,420.128 766.515,386.664 805.156,386.664 Z" />
<path d="M 785.836,458.77 824.477,458.77 805.156,492.235 Z" />
<path d="M 733.05,367.343 766.515,348.022 766.515,386.664 Z" />
<path d="M 771.692,511.555 805.156,530.876 771.692,550.197 Z" />
<path d="M 771.692,511.555 805.156,492.235 805.156,530.876 Z" />
<path d="M 713.73,333.879 747.194,314.558 713.73,295.237 Z" />
<path d="M 771.692,550.197 791.013,583.661 752.371,583.661 Z" />
<path d="M 675.088,295.237 694.409,261.773 713.73,295.237 Z" />
<path d="M 675.088,295.237 655.767,261.773 694.409,261.773 Z" />
<path d="M 752.371,622.303 791.013,622.303 771.692,655.767 Z" />
<path d="M 574.695,785.836 574.695,824.477 541.23,805.156 Z" />
<path d="M 521.909,771.692 502.589,805.156 483.268,771.692 Z" />
<path d="M 521.909,771.692 541.23,805.156 502.589,805.156 Z" />
<path d="M 483.268,771.692 449.803,791.013 449.803,752.371 Z" />
<path d="M 411.162,752.371 411.162,791.013 377.697,771.692 Z" />
<path d="M 247.629,613.336 228.308,646.801 208.987,613.336 Z" />
<path d="M 247.629,613.336 266.95,646.801 228.308,646.801 Z" />
<path d="M 300.414,666.121 266.95,685.442 266.95,646.801 Z" />
<path d="M 319.735,699.586 319.735,738.227 286.27,718.907 Z" />
<path d="M 358.376,738.227 339.056,771.692 319.735,738.227 Z" />
<path d="M 358.376,738.227 377.697,771.692 339.056,771.692 Z" />
<path d="M 175.523,594.015 208.987,574.695 208.987,613.336 Z" />
<path d="M 189.667,541.23 228.308,541.23 208.987,574.695 Z" />
<path d="M 208.987,469.124 228.308,502.589 189.667,502.589 Z" />
<path d="M 208.987,430.482 242.452,411.162 242.452,449.803 Z" />
<path d="M 208.987,430.482 242.452,449.803 208.987,469.124 Z" />
<path d="M 223.131,377.697 261.773,377.697 242.452,411.162 Z" />
<path d="M 439.449,175.523 458.77,208.987 420.129,208.987 Z" />
<path d="M 439.449,175.523 420.129,208.987 400.808,175.523 Z" />
<path d="M 367.343,194.844 386.664,228.308 348.022,228.308 Z" />
<path d="M 492.235,189.667 492.235,228.308 458.77,208.987 Z" />
<path d="M 314.558,247.629 348.022,228.308 348.022,266.95 Z" />
<path d="M 314.558,247.629 348.022,266.95 314.558,286.27 Z" />
<path d="M 564.341,208.987 530.876,228.308 530.876,189.667 Z" />
<path d="M 275.916,286.27 314.558,286.27 295.237,319.735 Z" />
<path d="M 602.982,208.987 622.303,242.452 583.661,242.452 Z" />
<path d="M 602.982,208.987 583.661,242.452 564.341,208.987 Z" />
<path d="M 242.452,305.591 261.773,339.056 223.131,339.056 Z" />
<path d="M 655.767,223.131 655.767,261.773 622.303,242.452 Z" />
<path d="M 646.801,805.156 613.336,824.477 613.336,785.836 Z" />
<path d="M 646.801,805.156 613.336,785.836 646.801,766.515 Z" />
<path d="M 685.442,766.515 646.801,766.515 666.121,733.05 Z" />
<path d="M 718.907,747.194 699.586,713.73 738.227,713.73 Z" />
<path d="M 771.692,694.409 738.227,713.73 738.227,675.088 Z" />
<path d="M 771.692,694.409 738.227,675.088 771.692,655.767 Z" />
<path d="M 857.942,439.449 824.477,458.77 824.477,420.128 Z" />
<path d="M 857.942,439.449 824.477,420.128 857.942,400.808 Z" />
<path d="M 838.621,367.343 805.156,386.664 805.156,348.022 Z" />
<path d="M 843.798,492.235 805.156,492.235 824.477,458.77 Z" />
<path d="M 785.836,314.558 805.156,348.022 766.515,348.022 Z" />
<path d="M 785.836,314.558 766.515,348.022 747.194,314.558 Z" />
<path d="M 824.477,564.341 805.156,530.876 843.798,530.876 Z" />
<path d="M 747.194,275.916 747.194,314.558 713.73,295.237 Z" />
<path d="M 824.477,602.982 791.013,622.303 791.013,583.661 Z" />
<path d="M 824.477,602.982 791.013,583.661 824.477,564.341 Z" />
<path d="M 727.873,242.452 694.409,261.773 694.409,223.131 Z" />
<path d="M 810.333,655.767 771.692,655.767 791.013,622.303 Z" />
<path d="M 594.015,857.942 574.695,824.477 613.336,824.477 Z" />
<path d="M 541.23,843.798 541.23,805.156 574.695,824.477 Z" />
<path d="M 469.124,824.477 502.589,805.156 502.589,843.798 Z" />
<path d="M 430.483,824.477 411.162,791.013 449.803,791.013 Z" />
<path d="M 430.483,824.477 449.803,791.013 469.124,824.477 Z" />
<path d="M 377.697,810.333 377.697,771.692 411.162,791.013 Z" />
<path d="M 175.523,632.657 175.523,594.015 208.987,613.336 Z" />
<path d="M 194.844,666.121 228.308,646.801 228.308,685.442 Z" />
<path d="M 247.629,718.907 228.308,685.442 266.95,685.442 Z" />
<path d="M 247.629,718.907 266.95,685.442 286.27,718.907 Z" />
<path d="M 286.27,757.548 286.27,718.907 319.735,738.227 Z" />
<path d="M 305.591,791.013 339.056,771.692 339.056,810.333 Z" />
<path d="M 156.202,560.551 175.523,594.015 136.881,594.015 Z" />
<path d="M 156.202,521.909 189.667,502.589 189.667,541.23 Z" />
<path d="M 156.202,521.909 189.667,541.23 156.202,560.551 Z" />
<path d="M 170.346,469.124 208.987,469.124 189.667,502.589 Z" />
<path d="M 189.667,397.018 208.987,430.482 170.346,430.482 Z" />
<path d="M 189.667,358.376 223.131,339.056 223.131,377.697 Z" />
<path d="M 189.667,358.376 223.131,377.697 189.667,397.018 Z" />
<path d="M 367.343,156.202 400.808,136.881 400.808,175.523 Z" />
<path d="M 367.343,156.202 400.808,175.523 367.343,194.844 Z" />
<path d="M 472.914,156.202 439.449,175.523 439.449,136.881 Z" />
<path d="M 328.702,194.844 367.343,194.844 348.022,228.308 Z" />
<path d="M 511.555,156.202 530.876,189.667 492.235,189.667 Z" />
<path d="M 511.555,156.202 492.235,189.667 472.914,156.202 Z" />
<path d="M 295.237,214.164 314.558,247.629 275.916,247.629 Z" />
<path d="M 564.341,170.346 564.341,208.987 530.876,189.667 Z" />
<path d="M 242.452,266.95 275.916,247.629 275.916,286.27 Z" />
<path d="M 242.452,266.95 275.916,286.27 242.452,305.591 Z" />
<path d="M 636.447,189.667 602.982,208.987 602.982,170.346 Z" />
<path d="M 203.81,305.591 242.452,305.591 223.131,339.056 Z" />
<path d="M 675.088,189.667 694.409,223.131 655.767,223.131 Z" />
<path d="M 675.088,189.667 655.767,223.131 636.447,189.667 Z" />
<path d="M 632.657,857.942 594.015,857.942 613.336,824.477 Z" />
<path d="M 666.121,838.621 646.801,805.156 685.442,805.156 Z" />
<path d="M 718.907,785.836 685.442,805.156 685.442,766.515 Z" />
<path d="M 718.907,785.836 685.442,766.515 718.907,747.194 Z" />
<path d="M 757.548,747.194 718.907,747.194 738.227,713.73 Z" />
<path d="M 791.013,727.873 771.692,694.409 810.333,694.409 Z" />
<path d="M 877.262,367.343 896.583,400.808 857.942,400.808 Z" />
<path d="M 877.262,367.343 857.942,400.808 838.621,367.343 Z" />
<path d="M 877.262,472.914 857.942,439.449 896.583,439.449 Z" />
<path d="M 838.621,328.702 838.621,367.343 805.156,348.022 Z" />
<path d="M 877.262,511.555 843.798,530.876 843.798,492.235 Z" />
<path d="M 877.262,511.555 843.798,492.235 877.262,472.914 Z" />
<path d="M 819.3,295.237 785.836,314.558 785.836,275.916 Z" />
<path d="M 863.119,564.341 824.477,564.341 843.798,530.876 Z" />
<path d="M 766.515,242.452 785.836,275.916 747.194,275.916 Z" />
<path d="M 766.515,242.452 747.194,275.916 727.873,242.452 Z" />
<path d="M 843.798,636.447 824.477,602.982 863.119,602.982 Z" />
<path d="M 727.873,203.81 727.873,242.452 694.409,223.131 Z" />
<path d="M 843.798,675.088 810.333,694.409 810.333,655.767 Z" />
<path d="M 843.798,675.088 810.333,655.767 843.798,636.447 Z" />
<path d="M 560.551,877.262 594.015,857.942 594.015,896.583 Z" />
<path d="M 521.909,877.262 502.589,843.798 541.23,843.798 Z" />
<path d="M 521.909,877.262 541.23,843.798 560.551,877.262 Z" />
<path d="M 469.124,863.119 469.124,824.477 502.589,843.798 Z" />
<path d="M 397.018,843.798 430.483,824.477 430.483,863.119 Z" />
<path d="M 358.376,843.798 339.056,810.333 377.697,810.333 Z" />
<path d="M 358.376,843.798 377.697,810.333 397.018,843.798 Z" />
<path d="M 156.202,666.121 136.881,632.657 175.523,632.657 Z" />
<path d="M 156.202,666.121 175.523,632.657 194.844,666.121 Z" />
<path d="M 194.844,704.763 194.844,666.121 228.308,685.442 Z" />
<path d="M 214.164,738.227 247.629,718.907 247.629,757.548 Z" />
<path d="M 266.95,791.013 247.629,757.548 286.27,757.548 Z" />
<path d="M 266.95,791.013 286.27,757.548 305.591,791.013 Z" />
<path d="M 305.591,829.654 305.591,791.013 339.056,810.333 Z" />
<path d="M 103.417,613.336 136.881,594.015 136.881,632.657 Z" />
<path d="M 117.561,560.551 156.202,560.551 136.881,594.015 Z" />
<path d="M 136.881,488.445 156.202,521.909 117.561,521.909 Z" />
<path d="M 136.881,449.803 170.346,430.482 170.346,469.124 Z" />
<path d="M 136.881,449.803 170.346,469.124 136.881,488.445 Z" />
<path d="M 151.025,397.018 189.667,397.018 170.346,430.482 Z" />
<path d="M 170.346,324.912 189.667,358.376 151.025,358.376 Z" />
<path d="M 420.129,103.417 439.449,136.881 400.808,136.881 Z" />
<path d="M 420.129,103.417 400.808,136.881 381.487,103.417 Z" />
<path d="M 348.022,122.738 367.343,156.202 328.702,156.202 Z" />
<path d="M 472.914,117.561 472.914,156.202 439.449,136.881 Z" />
<path d="M 295.237,175.523 328.702,156.202 328.702,194.844 Z" />
<path d="M 295.237,175.523 328.702,194.844 295.237,214.164 Z" />
<path d="M 545.02,136.881 511.555,156.202 511.555,117.561 Z" />
<path d="M 256.596,214.164 295.237,214.164 275.916,247.629 Z" />
<path d="M 583.661,136.881 602.982,170.346 564.341,170.346 Z" />
<path d="M 583.661,136.881 564.341,170.346 545.02,136.881 Z" />
<path d="M 223.131,233.485 242.452,266.95 203.81,266.95 Z" />
<path d="M 636.447,151.025 636.447,189.667 602.982,170.346 Z" />
<path d="M 170.346,286.27 203.81,266.95 203.81,305.591 Z" />
<path d="M 170.346,286.27 203.81,305.591 170.346,324.912 Z" />
<path d="M 708.553,170.346 675.088,189.667 675.088,151.025 Z" />
<path d="M 666.121,877.262 632.657,896.583 632.657,857.942 Z" />
<path d="M 666.121,877.262 632.657,857.942 666.121,838.621 Z" />
<path d="M 704.763,838.621 666.121,838.621 685.442,805.156 Z" />
<path d="M 738.227,819.3 718.907,785.836 757.548,785.836 Z" />
<path d="M 791.013,766.515 757.548,785.836 757.548,747.194 Z" />
<path d="M 791.013,766.515 757.548,747.194 791.013,727.873 Z" />
<path d="M 829.654,727.873 791.013,727.873 810.333,694.409 Z" />
<path d="M 896.583,439.449 930.048,420.128 896.583,400.808 Z" />
<path d="M 910.727,348.022 877.262,367.343 877.262,328.702 Z" />
<path d="M 915.904,472.914 877.262,472.914 896.583,439.449 Z" />
<path d="M 857.942,295.237 877.262,328.702 838.621,328.702 Z" />
<path d="M 857.942,295.237 838.621,328.702 819.3,295.237 Z" />
<path d="M 896.583,545.02 877.262,511.555 915.904,511.555 Z" />
<path d="M 819.3,256.596 819.3,295.237 785.836,275.916 Z" />
<path d="M 896.583,583.661 863.119,602.982 863.119,564.341 Z" />
<path d="M 896.583,583.661 863.119,564.341 896.583,545.02 Z" />
<path d="M 799.979,223.131 766.515,242.452 766.515,203.81 Z" />
<path d="M 882.439,636.447 843.798,636.447 863.119,602.982 Z" />
<path d="M 747.194,170.346 766.515,203.81 727.873,203.81 Z" />
<path d="M 747.194,170.346 727.873,203.81 708.553,170.346 Z" />
<path d="M 863.119,708.553 843.798,675.088 882.439,675.088 Z" />
<path d="M 632.657,896.583 613.336,930.048 594.015,896.583 Z" />
<path d="M 560.551,915.904 560.551,877.262 594.015,896.583 Z" />
<path d="M 488.445,896.583 521.909,877.262 521.909,915.904 Z" />
<path d="M 449.803,896.583 430.483,863.119 469.124,863.119 Z" />
<path d="M 449.803,896.583 469.124,863.119 488.445,896.583 Z" />
<path d="M 397.018,882.439 397.018,843.798 430.483,863.119 Z" />
<path d="M 324.912,863.119 358.376,843.798 358.376,882.439 Z" />
<path d="M 103.417,651.978 103.417,613.336 136.881,632.657 Z" />
<path d="M 122.738,685.442 156.202,666.121 156.202,704.763 Z" />
<path d="M 175.523,738.227 156.202,704.763 194.844,704.763 Z" />
<path d="M 175.523,738.227 194.844,704.763 214.164,738.227 Z" />
<path d="M 214.164,776.869 214.164,738.227 247.629,757.548 Z" />
<path d="M 233.485,810.333 266.95,791.013 266.95,829.654 Z" />
<path d="M 286.27,863.119 266.95,829.654 305.591,829.654 Z" />
<path d="M 286.27,863.119 305.591,829.654 324.912,863.119 Z" />
<path d="M 84.096,579.872 103.417,613.336 64.775,613.336 Z" />
<path d="M 84.096,541.23 117.561,521.909 117.561,560.551 Z" />
<path d="M 84.096,541.23 117.561,560.551 84.096,579.872 Z" />
<path d="M 98.24,488.445 136.881,488.445 117.561,521.909 Z" />
<path d="M 117.561,416.339 136.881,449.803 98.24,449.803 Z" />
<path d="M 117.561,377.697 151.025,358.376 151.025,397.018 Z" />
<path d="M 117.561,377.697 151.025,397.018 117.561,416.339 Z" />
<path d="M 131.704,324.912 170.346,324.912 151.025,358.376 Z" />
<path d="M 348.022,84.096 381.487,64.775 381.487,103.417 Z" />
<path d="M 348.022,84.096 381.487,103.417 348.022,122.738 Z" />
<path d="M 453.593,84.096 420.129,103.417 420.129,64.775 Z" />
<path d="M 309.381,122.738 348.022,122.738 328.702,156.202 Z" />
<path d="M 492.235,84.096 511.555,117.561 472.914,117.561 Z" />
<path d="M 492.235,84.096 472.914,117.561 453.593,84.096 Z" />
<path d="M 275.916,142.058 295.237,175.523 256.596,175.523 Z" />
<path d="M 545.02,98.24 545.02,136.881 511.555,117.561 Z" />
<path d="M 223.131,194.844 256.596,175.523 256.596,214.164 Z" />
<path d="M 223.131,194.844 256.596,214.164 223.131,233.485 Z" />
<path d="M 617.126,117.561 583.661,136.881 583.661,98.24 Z" />
<path d="M 184.49,233.485 223.131,233.485 203.81,266.95 Z" />
<path d="M 655.767,117.561 675.088,151.025 636.447,151.025 Z" />
<path d="M 655.767,117.561 636.447,151.025 617.126,117.561 Z" />
<path d="M 151.025,252.806 170.346,286.27 131.704,286.27 Z" />
<path d="M 708.553,131.704 708.553,170.346 675.088,151.025 Z" />
<path d="M 685.442,910.727 666.121,877.262 704.763,877.262 Z" />
<path d="M 738.227,857.942 704.763,877.262 704.763,838.621 Z" />
<path d="M 738.227,857.942 704.763,838.621 738.227,819.3 Z" />
<path d="M 776.869,819.3 738.227,819.3 757.548,785.836 Z" />
<path d="M 810.333,799.979 791.013,766.515 829.654,766.515 Z" />
<path d="M 863.119,747.194 829.654,766.515 829.654,727.873 Z" />
<path d="M 863.119,747.194 829.654,727.873 863.119,708.553 Z" />
<path d="M 910.727,309.381 910.727,348.022 877.262,328.702 Z" />
<path d="M 108.594,921.081 142.058,901.76 142.058,940.402 Z" />
<path d="M 915.904,511.555 949.368,492.235 915.904,472.914 Z" />
<path d="M 108.594,921.081 69.952,921.081 89.273,887.616 Z" />
<path d="M 891.406,275.916 857.942,295.237 857.942,256.596 Z" />
<path d="M 896.583,545.02 915.904,511.555 935.225,545.02 Z" />
<path d="M 838.621,223.131 857.942,256.596 819.3,256.596 Z" />
<path d="M 838.621,223.131 819.3,256.596 799.979,223.131 Z" />
<path d="M 915.904,617.126 896.583,583.661 935.225,583.661 Z" />
<path d="M 799.979,184.49 799.979,223.131 766.515,203.81 Z" />
<path d="M 915.904,655.767 882.439,675.088 882.439,636.447 Z" />
<path d="M 915.904,655.767 882.439,636.447 915.904,617.126 Z" />
<path d="M 780.659,151.025 747.194,170.346 747.194,131.704 Z" />
<path d="M 901.76,708.553 863.119,708.553 882.439,675.088 Z" />
<path d="M 521.909,915.904 560.551,915.904 541.23,949.368 Z" />
<path d="M 488.445,896.583 521.909,915.904 488.445,935.225 Z" />
<path d="M 416.339,915.904 449.803,896.583 449.803,935.225 Z" />
<path d="M 377.697,915.904 358.376,882.439 397.018,882.439 Z" />
<path d="M 377.697,915.904 397.018,882.439 416.339,915.904 Z" />
<path d="M 324.912,901.76 324.912,863.119 358.376,882.439 Z" />
<path d="M 84.096,685.442 64.775,651.978 103.417,651.978 Z" />
<path d="M 84.096,685.442 103.417,651.978 122.738,685.442 Z" />
<path d="M 122.738,724.084 122.738,685.442 156.202,704.763 Z" />
<path d="M 142.058,757.548 175.523,738.227 175.523,776.869 Z" />
<path d="M 194.844,810.333 175.523,776.869 214.164,776.869 Z" />
<path d="M 194.844,810.333 214.164,776.869 233.485,810.333 Z" />
<path d="M 233.485,848.975 233.485,810.333 266.95,829.654 Z" />
<path d="M 252.806,882.439 286.27,863.119 286.27,901.76 Z" />
<path d="M 891.406,93.063 924.871,112.384 891.406,131.704 Z" />
<path d="M 98.24,449.803 98.24,488.445 64.775,469.124 Z" />
<path d="M 78.919,416.339 117.561,416.339 98.24,449.803 Z" />
<path d="M 98.24,344.233 117.561,377.697 78.919,377.697 Z" />
<path d="M 98.24,305.591 131.704,286.27 131.704,324.912 Z" />
<path d="M 98.24,305.591 131.704,324.912 98.24,344.233 Z" />
<path d="M 309.381,84.096 328.702,50.632 348.022,84.096 Z" />
<path d="M 891.406,93.063 852.765,93.063 872.085,59.598 Z" />
<path d="M 275.916,103.417 309.381,84.096 309.381,122.738 Z" />
<path d="M 275.916,103.417 309.381,122.738 275.916,142.058 Z" />
<path d="M 868.296,910.727 848.975,944.192 829.654,910.727 Z" />
<path d="M 237.275,142.058 275.916,142.058 256.596,175.523 Z" />
<path d="M 583.661,98.24 545.02,98.24 564.341,64.775 Z" />
<path d="M 203.81,161.379 223.131,194.844 184.49,194.844 Z" />
<path d="M 617.126,78.919 617.126,117.561 583.661,98.24 Z" />
<path d="M 151.025,214.164 184.49,194.844 184.49,233.485 Z" />
<path d="M 151.025,214.164 184.49,233.485 151.025,252.806 Z" />
<path d="M 689.232,98.24 655.767,117.561 655.767,78.919 Z" />
<path d="M 112.384,252.806 151.025,252.806 131.704,286.27 Z" />
<path d="M 727.873,98.24 747.194,131.704 708.553,131.704 Z" />
<path d="M 727.873,98.24 708.553,131.704 689.232,98.24 Z" />
<path d="M 724.084,910.727 685.442,910.727 704.763,877.262 Z" />
<path d="M 901.76,891.406 868.296,910.727 868.296,872.085 Z" />
<path d="M 757.548,891.406 738.227,857.942 776.869,857.942 Z" />
<path d="M 810.333,838.621 776.869,857.942 776.869,819.3 Z" />
<path d="M 810.333,838.621 776.869,819.3 810.333,799.979 Z" />
<path d="M 848.975,799.979 810.333,799.979 829.654,766.515 Z" />
<path d="M 882.439,780.659 863.119,747.194 901.76,747.194 Z" />
<path d="M 112.384,108.594 112.384,69.952 145.848,89.273 Z" />
<path d="M 891.406,275.916 930.048,275.916 910.727,309.381 Z" />
<path d="M 891.406,237.275 891.406,275.916 857.942,256.596 Z" />
<path d="M 872.085,203.81 838.621,223.131 838.621,184.49 Z" />
<path d="M 112.384,108.594 93.063,142.058 73.742,108.594 Z" />
<path d="M 819.3,151.025 838.621,184.49 799.979,184.49 Z" />
<path d="M 819.3,151.025 799.979,184.49 780.659,151.025 Z" />
<path d="M 112.384,108.594 131.704,142.058 93.063,142.058 Z" />
<path d="M 780.659,112.384 780.659,151.025 747.194,131.704 Z" />
<path d="M 901.76,747.194 935.225,727.873 901.76,708.553 Z" />
<path d="M 93.063,142.058 93.063,180.7 59.598,161.379 Z" />
<path d="M 286.27,901.76 324.912,901.76 305.591,935.225 Z" />
<path d="M 84.096,724.084 50.632,704.763 84.096,685.442 Z" />
<path d="M 103.417,757.548 84.096,724.084 122.738,724.084 Z" />
<path d="M 103.417,757.548 122.738,724.084 142.058,757.548 Z" />
<path d="M 142.058,796.19 142.058,757.548 175.523,776.869 Z" />
<path d="M 161.379,829.654 194.844,810.333 194.844,848.975 Z" />
<path d="M 214.164,882.439 194.844,848.975 233.485,848.975 Z" />
<path d="M 214.164,882.439 233.485,848.975 252.806,882.439 Z" />
<path d="M 252.806,921.081 252.806,882.439 286.27,901.76 Z" />
<path d="M 78.919,377.697 78.919,416.339 45.455,397.018 Z" />
<path d="M 98.24,344.233 78.919,377.697 59.598,344.233 Z" />
<path d="M 78.919,272.127 98.24,305.591 59.598,305.591 Z" />
<path d="M 237.275,103.417 256.596,69.952 275.916,103.417 Z" />
<path d="M 203.81,122.738 237.275,103.417 237.275,142.058 Z" />
<path d="M 203.81,122.738 237.275,142.058 203.81,161.379 Z" />
<path d="M 165.169,161.379 203.81,161.379 184.49,194.844 Z" />
<path d="M 655.767,78.919 617.126,78.919 636.447,45.455 Z" />
<path d="M 131.704,180.7 151.025,214.164 112.384,214.164 Z" />
<path d="M 689.232,98.24 655.767,78.919 689.232,59.598 Z" />
<path d="M 78.919,233.485 112.384,214.164 112.384,252.806 Z" />
<path d="M 78.919,233.485 112.384,252.806 78.919,272.127 Z" />
<path d="M 761.338,78.919 727.873,98.24 727.873,59.598 Z" />
<path d="M 757.548,891.406 757.548,930.048 724.084,910.727 Z" />
<path d="M 796.19,891.406 757.548,891.406 776.869,857.942 Z" />
<path d="M 829.654,872.085 810.333,838.621 848.975,838.621 Z" />
<path d="M 882.439,819.3 848.975,838.621 848.975,799.979 Z" />
<path d="M 882.439,819.3 848.975,799.979 882.439,780.659 Z" />
<path d="M 921.081,780.659 882.439,780.659 901.76,747.194 Z" />
<path d="M 910.727,203.81 930.048,237.275 891.406,237.275 Z" />
<path d="M 910.727,203.81 891.406,237.275 872.085,203.81 Z" />
<path d="M 872.085,165.169 872.085,203.81 838.621,184.49 Z" />
<path d="M 852.765,131.704 819.3,151.025 819.3,112.384 Z" />
<path d="M 799.979,78.919 819.3,112.384 780.659,112.384 Z" />
<path d="M 799.979,78.919 780.659,112.384 761.338,78.919 Z" />
<path d="M 103.417,796.19 69.952,776.869 103.417,757.548 Z" />
<path d="M 122.738,829.654 103.417,796.19 142.058,796.19 Z" />
<path d="M 122.738,829.654 142.058,796.19 161.379,829.654 Z" />
<path d="M 161.379,868.296 161.379,829.654 194.844,848.975 Z" />
<path d="M 180.7,901.76 214.164,882.439 214.164,921.081 Z" />
<path d="M 214.164,921.081 252.806,921.081 233.485,954.545 Z" />
<path d="M 89.273,887.616 89.273,848.975 122.738,868.296 Z" />
<path d="M 89.273,848.975 122.738,829.654 122.738,868.296 Z" />
<path d="M 184.49,89.273 203.81,122.738 165.169,122.738 Z" />
<path d="M 131.704,142.058 165.169,122.738 165.169,161.379 Z" />
<path d="M 131.704,142.058 165.169,161.379 131.704,180.7 Z" />
<path d="M 93.063,180.7 131.704,180.7 112.384,214.164 Z" />
<path d="M 142.058,901.76 122.738,868.296 161.379,868.296 Z" />
<path d="M 829.654,910.727 796.19,930.048 796.19,891.406 Z" />
<path d="M 829.654,910.727 796.19,891.406 829.654,872.085 Z" />
<path d="M 868.296,872.085 829.654,872.085 848.975,838.621 Z" />
<path d="M 901.76,852.765 882.439,819.3 921.081,819.3 Z" />
<path d="M 921.081,819.3 954.545,799.979 921.081,780.659 Z" />
<path d="M 910.727,165.169 944.192,184.49 910.727,203.81 Z" />
<path d="M 891.406,131.704 910.727,165.169 872.085,165.169 Z" />
<path d="M 891.406,131.704 872.085,165.169 852.765,131.704 Z" />
<path d="M 852.765,93.063 852.765,131.704 819.3,112.384 Z" />
<path d="M 142.058,901.76 161.379,868.296 180.7,901.76 Z" />
<path d="M 180.7,901.76 214.164,921.081 180.7,940.402 Z" />
<path d="M 145.848,89.273 184.49,89.273 165.169,122.738 Z" />
<path d="M 901.76,891.406 868.296,872.085 901.76,852.765 Z" />
<path d="M 901.76,852.765 921.081,819.3 940.402,852.765 Z" />
</g>
<g style="opacity:1.0;fill:#ff0000;fill-opacity:1;stroke:#000000;stroke-width:2.5;stroke-opacity:0.80;">  <!-- 4-sided blocks -->
<path d="M 497.412,497.411 463.947,516.732 444.626,483.268 478.091,463.947 Z" />
<path d="M 536.053,497.411 516.732,463.947 550.197,444.626 569.518,478.091 Z" />
<path d="M 497.412,536.053 516.732,569.518 483.268,588.838 463.947,555.374 Z" />
<path d="M 463.947,516.732 463.947,555.374 425.306,555.374 425.306,516.732 Z" />
<path d="M 478.091,463.947 478.091,425.305 516.732,425.305 516.732,463.947 Z" />
<path d="M 536.053,536.053 569.518,516.732 588.838,550.197 555.374,569.518 Z" />
<path d="M 569.518,478.091 608.159,478.091 608.159,516.732 569.518,516.732 Z" />
<path d="M 516.732,569.518 555.374,569.518 555.374,608.159 516.732,608.159 Z" />
<path d="M 425.306,516.732 391.841,536.053 372.52,502.589 405.985,483.268 Z" />
<path d="M 444.626,483.268 405.985,483.268 405.985,444.626 444.626,444.626 Z" />
<path d="M 478.091,425.305 444.626,444.626 425.306,411.162 458.77,391.841 Z" />
<path d="M 516.732,425.305 497.412,391.841 530.876,372.52 550.197,405.985 Z" />
<path d="M 550.197,444.626 550.197,405.985 588.838,405.985 588.838,444.626 Z" />
<path d="M 608.159,478.091 588.838,444.626 622.303,425.305 641.624,458.77 Z" />
<path d="M 608.159,516.732 641.624,497.411 660.944,530.876 627.48,550.197 Z" />
<path d="M 588.838,550.197 627.48,550.197 627.48,588.838 588.838,588.838 Z" />
<path d="M 516.732,608.159 536.053,641.624 502.589,660.944 483.268,627.48 Z" />
<path d="M 483.268,588.838 483.268,627.48 444.626,627.48 444.626,588.838 Z" />
<path d="M 425.306,555.374 444.626,588.838 411.162,608.159 391.841,574.695 Z" />
<path d="M 391.841,536.053 391.841,574.695 353.199,574.695 353.199,536.053 Z" />
<path d="M 458.77,391.841 458.77,353.199 497.412,353.199 497.412,391.841 Z" />
<path d="M 405.985,444.626 372.52,463.947 353.199,430.482 386.664,411.162 Z" />
<path d="M 425.306,411.162 386.664,411.162 386.664,372.52 425.306,372.52 Z" />
<path d="M 555.374,608.159 588.838,588.838 608.159,622.303 574.695,641.624 Z" />
<path d="M 641.624,458.77 680.265,458.77 680.265,497.411 641.624,497.411 Z" />
<path d="M 588.838,405.985 569.518,372.52 602.982,353.199 622.303,386.664 Z" />
<path d="M 622.303,425.305 622.303,386.664 660.944,386.664 660.944,425.305 Z" />
<path d="M 536.053,641.624 574.695,641.624 574.695,680.265 536.053,680.265 Z" />
<path d="M 444.626,627.48 463.947,660.944 430.483,680.265 411.162,646.801 Z" />
<path d="M 411.162,608.159 411.162,646.801 372.52,646.801 372.52,608.159 Z" />
<path d="M 353.199,536.053 319.735,555.374 300.414,521.909 333.879,502.589 Z" />
<path d="M 372.52,502.589 333.879,502.589 333.879,463.947 372.52,463.947 Z" />
<path d="M 458.77,353.199 425.306,372.52 405.985,339.056 439.449,319.735 Z" />
<path d="M 497.412,353.199 478.091,319.735 511.555,300.414 530.876,333.879 Z" />
<path d="M 530.876,372.52 530.876,333.879 569.518,333.879 569.518,372.52 Z" />
<path d="M 627.48,588.838 660.944,569.518 680.265,602.982 646.801,622.303 Z" />
<path d="M 608.159,622.303 646.801,622.303 646.801,660.944 608.159,660.944 Z" />
<path d="M 680.265,458.77 660.944,425.305 694.409,405.985 713.73,439.449 Z" />
<path d="M 680.265,497.411 713.73,478.091 733.05,511.555 699.586,530.876 Z" />
<path d="M 660.944,530.876 699.586,530.876 699.586,569.518 660.944,569.518 Z" />
<path d="M 536.053,680.265 555.374,713.73 521.909,733.05 502.589,699.586 Z" />
<path d="M 502.589,660.944 502.589,699.586 463.947,699.586 463.947,660.944 Z" />
<path d="M 353.199,574.695 372.52,608.159 339.056,627.48 319.735,594.015 Z" />
<path d="M 319.735,555.374 319.735,594.015 281.093,594.015 281.093,555.374 Z" />
<path d="M 281.093,449.803 314.558,430.482 333.879,463.947 300.414,483.268 Z" />
<path d="M 353.199,430.482 314.558,430.482 314.558,391.841 353.199,391.841 Z" />
<path d="M 439.449,319.735 439.449,281.093 478.091,281.093 478.091,319.735 Z" />
<path d="M 386.664,372.52 353.199,391.841 333.879,358.376 367.343,339.056 Z" />
<path d="M 367.343,300.414 405.985,300.414 405.985,339.056 367.343,339.056 Z" />
<path d="M 583.661,281.093 602.982,314.558 569.518,333.879 550.197,300.414 Z" />
<path d="M 602.982,353.199 602.982,314.558 641.624,314.558 641.624,353.199 Z" />
<path d="M 574.695,680.265 608.159,660.944 627.48,694.409 594.015,713.73 Z" />
<path d="M 713.73,439.449 752.371,439.449 752.371,478.091 713.73,478.091 Z" />
<path d="M 660.944,386.664 641.624,353.199 675.088,333.879 694.409,367.343 Z" />
<path d="M 733.05,367.343 733.05,405.985 694.409,405.985 694.409,367.343 Z" />
<path d="M 752.371,583.661 718.907,602.982 699.586,569.518 733.05,550.197 Z" />
<path d="M 718.907,641.624 680.265,641.624 680.265,602.982 718.907,602.982 Z" />
<path d="M 594.015,752.371 555.374,752.371 555.374,713.73 594.015,713.73 Z" />
<path d="M 449.803,752.371 430.483,718.907 463.947,699.586 483.268,733.05 Z" />
<path d="M 430.483,680.265 430.483,718.907 391.841,718.907 391.841,680.265 Z" />
<path d="M 372.52,646.801 391.841,680.265 358.376,699.586 339.056,666.121 Z" />
<path d="M 300.414,666.121 300.414,627.48 339.056,627.48 339.056,666.121 Z" />
<path d="M 281.093,555.374 247.629,574.695 228.308,541.23 261.773,521.909 Z" />
<path d="M 300.414,521.909 261.773,521.909 261.773,483.268 300.414,483.268 Z" />
<path d="M 386.664,266.95 420.129,247.629 439.449,281.093 405.985,300.414 Z" />
<path d="M 511.555,261.773 478.091,281.093 458.77,247.629 492.235,228.308 Z" />
<path d="M 550.197,261.773 550.197,300.414 511.555,300.414 511.555,261.773 Z" />
<path d="M 295.237,358.376 314.558,391.841 281.093,411.162 261.773,377.697 Z" />
<path d="M 333.879,319.735 333.879,358.376 295.237,358.376 295.237,319.735 Z" />
<path d="M 666.121,694.409 646.801,660.944 680.265,641.624 699.586,675.088 Z" />
<path d="M 627.48,733.05 627.48,694.409 666.121,694.409 666.121,733.05 Z" />
<path d="M 785.836,420.128 752.371,439.449 733.05,405.985 766.515,386.664 Z" />
<path d="M 785.836,458.77 805.156,492.235 771.692,511.555 752.371,478.091 Z" />
<path d="M 771.692,511.555 771.692,550.197 733.05,550.197 733.05,511.555 Z" />
<path d="M 622.303,281.093 655.767,261.773 675.088,295.237 641.624,314.558 Z" />
<path d="M 713.73,333.879 675.088,333.879 675.088,295.237 713.73,295.237 Z" />
<path d="M 574.695,785.836 541.23,805.156 521.909,771.692 555.374,752.371 Z" />
<path d="M 521.909,771.692 483.268,771.692 483.268,733.05 521.909,733.05 Z" />
<path d="M 247.629,613.336 281.093,594.015 300.414,627.48 266.95,646.801 Z" />
<path d="M 411.162,752.371 377.697,771.692 358.376,738.227 391.841,718.907 Z" />
<path d="M 319.735,699.586 358.376,699.586 358.376,738.227 319.735,738.227 Z" />
<path d="M 247.629,613.336 208.987,613.336 208.987,574.695 247.629,574.695 Z" />
<path d="M 208.987,469.124 242.452,449.803 261.773,483.268 228.308,502.589 Z" />
<path d="M 281.093,411.162 281.093,449.803 242.452,449.803 242.452,411.162 Z" />
<path d="M 458.77,247.629 420.129,247.629 420.129,208.987 458.77,208.987 Z" />
<path d="M 333.879,319.735 314.558,286.27 348.022,266.95 367.343,300.414 Z" />
<path d="M 386.664,266.95 348.022,266.95 348.022,228.308 386.664,228.308 Z" />
<path d="M 550.197,261.773 530.876,228.308 564.341,208.987 583.661,242.452 Z" />
<path d="M 583.661,281.093 583.661,242.452 622.303,242.452 622.303,281.093 Z" />
<path d="M 594.015,752.371 627.48,733.05 646.801,766.515 613.336,785.836 Z" />
<path d="M 718.907,641.624 752.371,622.303 771.692,655.767 738.227,675.088 Z" />
<path d="M 699.586,675.088 738.227,675.088 738.227,713.73 699.586,713.73 Z" />
<path d="M 785.836,420.128 824.477,420.128 824.477,458.77 785.836,458.77 Z" />
<path d="M 733.05,367.343 713.73,333.879 747.194,314.558 766.515,348.022 Z" />
<path d="M 766.515,386.664 766.515,348.022 805.156,348.022 805.156,386.664 Z" />
<path d="M 771.692,550.197 805.156,530.876 824.477,564.341 791.013,583.661 Z" />
<path d="M 752.371,583.661 791.013,583.661 791.013,622.303 752.371,622.303 Z" />
<path d="M 574.695,785.836 613.336,785.836 613.336,824.477 574.695,824.477 Z" />
<path d="M 483.268,771.692 502.589,805.156 469.124,824.477 449.803,791.013 Z" />
<path d="M 449.803,752.371 449.803,791.013 411.162,791.013 411.162,752.371 Z" />
<path d="M 300.414,666.121 319.735,699.586 286.27,718.907 266.95,685.442 Z" />
<path d="M 266.95,646.801 266.95,685.442 228.308,685.442 228.308,646.801 Z" />
<path d="M 156.202,560.551 189.667,541.23 208.987,574.695 175.523,594.015 Z" />
<path d="M 189.667,502.589 228.308,502.589 228.308,541.23 189.667,541.23 Z" />
<path d="M 189.667,397.018 223.131,377.697 242.452,411.162 208.987,430.482 Z" />
<path d="M 223.131,339.056 261.773,339.056 261.773,377.697 223.131,377.697 Z" />
<path d="M 367.343,194.844 400.808,175.523 420.129,208.987 386.664,228.308 Z" />
<path d="M 472.914,156.202 492.235,189.667 458.77,208.987 439.449,175.523 Z" />
<path d="M 530.876,189.667 530.876,228.308 492.235,228.308 492.235,189.667 Z" />
<path d="M 242.452,305.591 275.916,286.27 295.237,319.735 261.773,339.056 Z" />
<path d="M 275.916,247.629 314.558,247.629 314.558,286.27 275.916,286.27 Z" />
<path d="M 636.447,189.667 655.767,223.131 622.303,242.452 602.982,208.987 Z" />
<path d="M 694.409,223.131 694.409,261.773 655.767,261.773 655.767,223.131 Z" />
<path d="M 718.907,747.194 685.442,766.515 666.121,733.05 699.586,713.73 Z" />
<path d="M 685.442,805.156 646.801,805.156 646.801,766.515 685.442,766.515 Z" />
<path d="M 838.621,367.343 857.942,400.808 824.477,420.128 805.156,386.664 Z" />
<path d="M 877.262,472.914 843.798,492.235 824.477,458.77 857.942,439.449 Z" />
<path d="M 843.798,530.876 805.156,530.876 805.156,492.235 843.798,492.235 Z" />
<path d="M 727.873,242.452 747.194,275.916 713.73,295.237 694.409,261.773 Z" />
<path d="M 785.836,275.916 785.836,314.558 747.194,314.558 747.194,275.916 Z" />
<path d="M 843.798,636.447 810.333,655.767 791.013,622.303 824.477,602.982 Z" />
<path d="M 810.333,694.409 771.692,694.409 771.692,655.767 810.333,655.767 Z" />
<path d="M 560.551,877.262 541.23,843.798 574.695,824.477 594.015,857.942 Z" />
<path d="M 502.589,843.798 502.589,805.156 541.23,805.156 541.23,843.798 Z" />
<path d="M 397.018,843.798 377.697,810.333 411.162,791.013 430.483,824.477 Z" />
<path d="M 339.056,810.333 339.056,771.692 377.697,771.692 377.697,810.333 Z" />
<path d="M 194.844,666.121 175.523,632.657 208.987,613.336 228.308,646.801 Z" />
<path d="M 305.591,791.013 286.27,757.548 319.735,738.227 339.056,771.692 Z" />
<path d="M 247.629,757.548 247.629,718.907 286.27,718.907 286.27,757.548 Z" />
<path d="M 136.881,632.657 136.881,594.015 175.523,594.015 175.523,632.657 Z" />
<path d="M 136.881,488.445 170.346,469.124 189.667,502.589 156.202,521.909 Z" />
<path d="M 170.346,430.482 208.987,430.482 208.987,469.124 170.346,469.124 Z" />
<path d="M 439.449,136.881 439.449,175.523 400.808,175.523 400.808,136.881 Z" />
<path d="M 295.237,214.164 328.702,194.844 348.022,228.308 314.558,247.629 Z" />
<path d="M 328.702,156.202 367.343,156.202 367.343,194.844 328.702,194.844 Z" />
<path d="M 545.02,136.881 564.341,170.346 530.876,189.667 511.555,156.202 Z" />
<path d="M 602.982,170.346 602.982,208.987 564.341,208.987 564.341,170.346 Z" />
<path d="M 170.346,324.912 203.81,305.591 223.131,339.056 189.667,358.376 Z" />
<path d="M 203.81,266.95 242.452,266.95 242.452,305.591 203.81,305.591 Z" />
<path d="M 666.121,838.621 632.657,857.942 613.336,824.477 646.801,805.156 Z" />
<path d="M 791.013,727.873 757.548,747.194 738.227,713.73 771.692,694.409 Z" />
<path d="M 757.548,785.836 718.907,785.836 718.907,747.194 757.548,747.194 Z" />
<path d="M 896.583,439.449 857.942,439.449 857.942,400.808 896.583,400.808 Z" />
<path d="M 819.3,295.237 838.621,328.702 805.156,348.022 785.836,314.558 Z" />
<path d="M 877.262,328.702 877.262,367.343 838.621,367.343 838.621,328.702 Z" />
<path d="M 896.583,545.02 863.119,564.341 843.798,530.876 877.262,511.555 Z" />
<path d="M 863.119,602.982 824.477,602.982 824.477,564.341 863.119,564.341 Z" />
<path d="M 708.553,170.346 727.873,203.81 694.409,223.131 675.088,189.667 Z" />
<path d="M 766.515,203.81 766.515,242.452 727.873,242.452 727.873,203.81 Z" />
<path d="M 632.657,896.583 594.015,896.583 594.015,857.942 632.657,857.942 Z" />
<path d="M 488.445,896.583 469.124,863.119 502.589,843.798 521.909,877.262 Z" />
<path d="M 430.483,863.119 430.483,824.477 469.124,824.477 469.124,863.119 Z" />
<path d="M 214.164,738.227 194.844,704.763 228.308,685.442 247.629,718.907 Z" />
<path d="M 156.202,704.763 156.202,666.121 194.844,666.121 194.844,704.763 Z" />
<path d="M 324.912,863.119 305.591,829.654 339.056,810.333 358.376,843.798 Z" />
<path d="M 266.95,829.654 266.95,791.013 305.591,791.013 305.591,829.654 Z" />
<path d="M 84.096,579.872 117.561,560.551 136.881,594.015 103.417,613.336 Z" />
<path d="M 117.561,521.909 156.202,521.909 156.202,560.551 117.561,560.551 Z" />
<path d="M 117.561,416.339 151.025,397.018 170.346,430.482 136.881,449.803 Z" />
<path d="M 151.025,358.376 189.667,358.376 189.667,397.018 151.025,397.018 Z" />
<path d="M 348.022,122.738 381.487,103.417 400.808,136.881 367.343,156.202 Z" />
<path d="M 453.593,84.096 472.914,117.561 439.449,136.881 420.129,103.417 Z" />
<path d="M 511.555,117.561 511.555,156.202 472.914,156.202 472.914,117.561 Z" />
<path d="M 223.131,233.485 256.596,214.164 275.916,247.629 242.452,266.95 Z" />
<path d="M 256.596,175.523 295.237,175.523 295.237,214.164 256.596,214.164 Z" />
<path d="M 617.126,117.561 636.447,151.025 602.982,170.346 583.661,136.881 Z" />
<path d="M 675.088,151.025 675.088,189.667 636.447,189.667 636.447,151.025 Z" />
<path d="M 738.227,819.3 704.763,838.621 685.442,805.156 718.907,785.836 Z" />
<path d="M 704.763,877.262 666.121,877.262 666.121,838.621 704.763,838.621 Z" />
<path d="M 863.119,708.553 829.654,727.873 810.333,694.409 843.798,675.088 Z" />
<path d="M 829.654,766.515 791.013,766.515 791.013,727.873 829.654,727.873 Z" />
<path d="M 910.727,348.022 930.048,381.487 896.583,400.808 877.262,367.343 Z" />
<path d="M 497.412,497.411 536.053,497.411 536.053,536.053 497.412,536.053 Z" />
<path d="M 915.904,511.555 877.262,511.555 877.262,472.914 915.904,472.914 Z" />
<path d="M 799.979,223.131 819.3,256.596 785.836,275.916 766.515,242.452 Z" />
<path d="M 857.942,256.596 857.942,295.237 819.3,295.237 819.3,256.596 Z" />
<path d="M 915.904,617.126 882.439,636.447 863.119,602.982 896.583,583.661 Z" />
<path d="M 882.439,675.088 843.798,675.088 843.798,636.447 882.439,636.447 Z" />
<path d="M 521.909,915.904 521.909,877.262 560.551,877.262 560.551,915.904 Z" />
<path d="M 416.339,915.904 397.018,882.439 430.483,863.119 449.803,896.583 Z" />
<path d="M 358.376,882.439 358.376,843.798 397.018,843.798 397.018,882.439 Z" />
<path d="M 122.738,685.442 103.417,651.978 136.881,632.657 156.202,666.121 Z" />
<path d="M 233.485,810.333 214.164,776.869 247.629,757.548 266.95,791.013 Z" />
<path d="M 175.523,776.869 175.523,738.227 214.164,738.227 214.164,776.869 Z" />
<path d="M 98.24,488.445 117.561,521.909 84.096,541.23 64.775,507.765 Z" />
<path d="M 98.24,449.803 136.881,449.803 136.881,488.445 98.24,488.445 Z" />
<path d="M 98.24,344.233 131.704,324.912 151.025,358.376 117.561,377.697 Z" />
<path d="M 131.704,286.27 170.346,286.27 170.346,324.912 131.704,324.912 Z" />
<path d="M 275.916,142.058 309.381,122.738 328.702,156.202 295.237,175.523 Z" />
<path d="M 309.381,84.096 348.022,84.096 348.022,122.738 309.381,122.738 Z" />
<path d="M 545.02,98.24 511.555,117.561 492.235,84.096 525.699,64.775 Z" />
<path d="M 583.661,98.24 583.661,136.881 545.02,136.881 545.02,98.24 Z" />
<path d="M 151.025,252.806 184.49,233.485 203.81,266.95 170.346,286.27 Z" />
<path d="M 184.49,194.844 223.131,194.844 223.131,233.485 184.49,233.485 Z" />
<path d="M 689.232,98.24 708.553,131.704 675.088,151.025 655.767,117.561 Z" />
<path d="M 747.194,131.704 747.194,170.346 708.553,170.346 708.553,131.704 Z" />
<path d="M 685.442,910.727 651.978,930.048 632.657,896.583 666.121,877.262 Z" />
<path d="M 810.333,799.979 776.869,819.3 757.548,785.836 791.013,766.515 Z" />
<path d="M 776.869,857.942 738.227,857.942 738.227,819.3 776.869,819.3 Z" />
<path d="M 891.406,275.916 910.727,309.381 877.262,328.702 857.942,295.237 Z" />
<path d="M 780.659,151.025 799.979,184.49 766.515,203.81 747.194,170.346 Z" />
<path d="M 838.621,184.49 838.621,223.131 799.979,223.131 799.979,184.49 Z" />
<path d="M 901.76,708.553 882.439,675.088 915.904,655.767 935.225,689.232 Z" />
<path d="M 901.76,747.194 863.119,747.194 863.119,708.553 901.76,708.553 Z" />
<path d="M 324.912,901.76 358.376,882.439 377.697,915.904 344.233,935.225 Z" />
<path d="M 286.27,901.76 286.27,863.119 324.912,863.119 324.912,901.76 Z" />
<path d="M 142.058,757.548 122.738,724.084 156.202,704.763 175.523,738.227 Z" />
<path d="M 84.096,724.084 84.096,685.442 122.738,685.442 122.738,724.084 Z" />
<path d="M 252.806,882.439 233.485,848.975 266.95,829.654 286.27,863.119 Z" />
<path d="M 194.844,848.975 194.844,810.333 233.485,810.333 233.485,848.975 Z" />
<path d="M 108.594,921.081 89.273,887.616 122.738,868.296 142.058,901.76 Z" />
<path d="M 78.919,377.697 117.561,377.697 117.561,416.339 78.919,416.339 Z" />
<path d="M 203.81,161.379 237.275,142.058 256.596,175.523 223.131,194.844 Z" />
<path d="M 237.275,103.417 275.916,103.417 275.916,142.058 237.275,142.058 Z" />
<path d="M 655.767,78.919 655.767,117.561 617.126,117.561 617.126,78.919 Z" />
<path d="M 78.919,272.127 112.384,252.806 131.704,286.27 98.24,305.591 Z" />
<path d="M 112.384,214.164 151.025,214.164 151.025,252.806 112.384,252.806 Z" />
<path d="M 757.548,891.406 724.084,910.727 704.763,877.262 738.227,857.942 Z" />
<path d="M 882.439,780.659 848.975,799.979 829.654,766.515 863.119,747.194 Z" />
<path d="M 848.975,838.621 810.333,838.621 810.333,799.979 848.975,799.979 Z" />
<path d="M 872.085,203.81 891.406,237.275 857.942,256.596 838.621,223.131 Z" />
<path d="M 761.338,78.919 780.659,112.384 747.194,131.704 727.873,98.24 Z" />
<path d="M 819.3,112.384 819.3,151.025 780.659,151.025 780.659,112.384 Z" />
<path d="M 161.379,829.654 142.058,796.19 175.523,776.869 194.844,810.333 Z" />
<path d="M 103.417,796.19 103.417,757.548 142.058,757.548 142.058,796.19 Z" />
<path d="M 214.164,921.081 214.164,882.439 252.806,882.439 252.806,921.081 Z" />
<path d="M 112.384,108.594 145.848,89.273 165.169,122.738 131.704,142.058 Z" />
<path d="M 131.704,180.7 165.169,161.379 184.49,194.844 151.025,214.164 Z" />
<path d="M 165.169,122.738 203.81,122.738 203.81,161.379 165.169,161.379 Z" />
<path d="M 829.654,872.085 796.19,891.406 776.869,857.942 810.333,838.621 Z" />
<path d="M 921.081,819.3 882.439,819.3 882.439,780.659 921.081,780.659 Z" />
<path d="M 852.765,131.704 872.085,165.169 838.621,184.49 819.3,151.025 Z" />
<path d="M 910.727,165.169 910.727,203.81 872.085,203.81 872.085,165.169 Z" />
<path d="M 89.273,848.975 69.952,815.51 103.417,796.19 122.738,829.654 Z" />
<path d="M 180.7,901.76 161.379,868.296 194.844,848.975 214.164,882.439 Z" />
<path d="M 122.738,868.296 122.738,829.654 161.379,829.654 161.379,868.296 Z" />
<path d="M 184.49,89.273 217.954,69.952 237.275,103.417 203.81,122.738 Z" />
<path d="M 93.063,180.7 112.384,214.164 78.919,233.485 59.598,200.021 Z" />
<path d="M 93.063,142.058 131.704,142.058 131.704,180.7 93.063,180.7 Z" />
<path d="M 901.76,852.765 868.296,872.085 848.975,838.621 882.439,819.3 Z" />
<path d="M 868.296,910.727 829.654,910.727 829.654,872.085 868.296,872.085 Z" />
<path d="M 852.765,93.063 819.3,112.384 799.979,78.919 833.444,59.598 Z" />
<path d="M 891.406,93.063 891.406,131.704 852.765,131.704 852.765,93.063 Z" />
</g>
</svg>
