<?xml version="1.0" encoding="UTF-8" standalone="no"?>
<svg xmlns="http://www.w3.org/2000/svg" version="1.0" width="999.26013" height="1000.0">
<!-- X Coordinate transform: fx(x)=(x+80.625)*0.87943685-->
<!-- Y Coordinate transform: fy(y)=(1068.5457-y)*0.87943685 -->
<g style="opacity:1.0;fill:#ffff00;stroke:#000000;stroke-width:2.4981503;">  <!-- 3-sided blocks -->
<path d="M 510.623,500 554.595,500 532.609,538.081 Z"/>
<path d="M 510.623,500 532.609,461.919 554.595,500 Z"/>
<path d="M 532.609,538.081 554.595,576.161 510.623,576.161 Z"/>
<path d="M 466.651,500 422.679,500 444.665,461.919 Z"/>
<path d="M 466.651,500 444.665,538.081 422.679,500 Z"/>
<path d="M 532.609,461.919 510.623,423.839 554.595,423.839 Z"/>
<path d="M 554.595,576.161 532.609,614.242 510.623,576.161 Z"/>
<path d="M 444.665,461.919 422.679,423.839 466.651,423.839 Z"/>
<path d="M 444.665,538.081 466.651,576.161 422.679,576.161 Z"/>
<path d="M 554.595,423.839 510.623,423.839 532.609,385.758 Z"/>
<path d="M 598.567,500 642.539,500 620.553,538.081 Z"/>
<path d="M 598.567,500 620.553,461.919 642.539,500 Z"/>
<path d="M 598.567,576.161 642.539,576.161 620.553,614.242 Z"/>
<path d="M 598.567,576.161 620.553,538.081 642.539,576.161 Z"/>
<path d="M 532.609,614.242 554.595,652.323 510.623,652.323 Z"/>
<path d="M 466.651,576.161 444.665,614.242 422.679,576.161 Z"/>
<path d="M 422.679,423.839 444.665,385.758 466.651,423.839 Z"/>
<path d="M 378.707,500 334.736,500 356.722,461.919 Z"/>
<path d="M 378.707,500 356.722,538.081 334.736,500 Z"/>
<path d="M 532.609,385.758 510.623,347.677 554.595,347.677 Z"/>
<path d="M 598.567,423.839 642.539,423.839 620.553,461.919 Z"/>
<path d="M 598.567,423.839 620.553,385.758 642.539,423.839 Z"/>
<path d="M 620.553,614.242 642.539,652.323 598.567,652.323 Z"/>
<path d="M 510.623,652.323 554.595,652.323 532.609,690.404 Z"/>
<path d="M 444.665,614.242 466.651,652.323 422.679,652.323 Z"/>
<path d="M 378.707,423.839 334.736,423.839 356.722,385.758 Z"/>
<path d="M 378.707,423.839 356.722,461.919 334.736,423.839 Z"/>
<path d="M 444.665,385.758 422.679,347.677 466.651,347.677 Z"/>
<path d="M 378.707,576.161 334.736,576.161 356.722,538.081 Z"/>
<path d="M 378.707,576.161 356.722,614.242 334.736,576.161 Z"/>
<path d="M 510.623,347.677 532.609,309.596 554.595,347.677 Z"/>
<path d="M 620.553,385.758 598.567,347.677 642.539,347.677 Z"/>
<path d="M 686.51,500 730.482,500 708.496,538.081 Z"/>
<path d="M 686.51,500 708.496,461.919 730.482,500 Z"/>
<path d="M 642.539,652.323 620.553,690.404 598.567,652.323 Z"/>
<path d="M 686.51,576.161 730.482,576.161 708.496,614.242 Z"/>
<path d="M 686.51,576.161 708.496,538.081 730.482,576.161 Z"/>
<path d="M 532.609,690.404 554.595,728.484 510.623,728.484 Z"/>
<path d="M 466.651,652.323 444.665,690.404 422.679,652.323 Z"/>
<path d="M 356.722,385.758 334.736,347.677 378.707,347.677 Z"/>
<path d="M 466.651,347.677 422.679,347.677 444.665,309.596 Z"/>
<path d="M 356.722,614.242 378.707,652.323 334.736,652.323 Z"/>
<path d="M 290.764,500 246.792,500 268.778,461.919 Z"/>
<path d="M 290.764,500 268.778,538.081 246.792,500 Z"/>
<path d="M 532.609,309.596 510.623,271.516 554.595,271.516 Z"/>
<path d="M 598.567,347.677 620.553,309.596 642.539,347.677 Z"/>
<path d="M 686.51,423.839 730.482,423.839 708.496,461.919 Z"/>
<path d="M 686.51,423.839 708.496,385.758 730.482,423.839 Z"/>
<path d="M 686.51,652.323 730.482,652.323 708.496,690.404 Z"/>
<path d="M 686.51,652.323 708.496,614.242 730.482,652.323 Z"/>
<path d="M 620.553,690.404 642.539,728.484 598.567,728.484 Z"/>
<path d="M 554.595,728.484 532.609,766.565 510.623,728.484 Z"/>
<path d="M 444.665,690.404 466.651,728.484 422.679,728.484 Z"/>
<path d="M 378.707,652.323 356.722,690.404 334.736,652.323 Z"/>
<path d="M 334.736,347.677 356.722,309.596 378.707,347.677 Z"/>
<path d="M 290.764,423.839 246.792,423.839 268.778,385.758 Z"/>
<path d="M 290.764,423.839 268.778,461.919 246.792,423.839 Z"/>
<path d="M 444.665,309.596 422.679,271.516 466.651,271.516 Z"/>
<path d="M 290.764,576.161 246.792,576.161 268.778,538.081 Z"/>
<path d="M 290.764,576.161 268.778,614.242 246.792,576.161 Z"/>
<path d="M 554.595,271.516 510.623,271.516 532.609,233.435 Z"/>
<path d="M 620.553,309.596 598.567,271.516 642.539,271.516 Z"/>
<path d="M 686.51,347.677 730.482,347.677 708.496,385.758 Z"/>
<path d="M 686.51,347.677 708.496,309.596 730.482,347.677 Z"/>
<path d="M 774.454,500 818.426,500 796.44,538.081 Z"/>
<path d="M 774.454,500 796.44,461.919 818.426,500 Z"/>
<path d="M 708.496,690.404 730.482,728.484 686.51,728.484 Z"/>
<path d="M 598.567,728.484 642.539,728.484 620.553,766.565 Z"/>
<path d="M 774.454,576.161 818.426,576.161 796.44,614.242 Z"/>
<path d="M 774.454,576.161 796.44,538.081 818.426,576.161 Z"/>
<path d="M 532.609,766.565 554.595,804.646 510.623,804.646 Z"/>
<path d="M 466.651,728.484 444.665,766.565 422.679,728.484 Z"/>
<path d="M 356.722,690.404 378.707,728.484 334.736,728.484 Z"/>
<path d="M 290.764,347.677 246.792,347.677 268.778,309.596 Z"/>
<path d="M 290.764,347.677 268.778,385.758 246.792,347.677 Z"/>
<path d="M 356.722,309.596 334.736,271.516 378.707,271.516 Z"/>
<path d="M 422.679,271.516 444.665,233.435 466.651,271.516 Z"/>
<path d="M 290.764,652.323 246.792,652.323 268.778,614.242 Z"/>
<path d="M 290.764,652.323 268.778,690.404 246.792,652.323 Z"/>
<path d="M 158.848,500 180.834,461.919 202.82,500 Z"/>
<path d="M 158.848,500 202.82,500 180.834,538.081 Z"/>
<path d="M 554.595,195.354 532.609,233.435 510.623,195.354 Z"/>
<path d="M 620.553,233.435 642.539,271.516 598.567,271.516 Z"/>
<path d="M 730.482,271.516 708.496,309.596 686.51,271.516 Z"/>
<path d="M 818.426,423.839 796.44,461.919 774.454,423.839 Z"/>
<path d="M 796.44,385.758 818.426,423.839 774.454,423.839 Z"/>
<path d="M 708.496,766.565 686.51,728.484 730.482,728.484 Z"/>
<path d="M 796.44,690.404 774.454,652.323 818.426,652.323 Z"/>
<path d="M 818.426,652.323 774.454,652.323 796.44,614.242 Z"/>
<path d="M 642.539,804.646 598.567,804.646 620.553,766.565 Z"/>
<path d="M 532.609,842.727 510.623,804.646 554.595,804.646 Z"/>
<path d="M 466.651,804.646 422.679,804.646 444.665,766.565 Z"/>
<path d="M 356.722,766.565 334.736,728.484 378.707,728.484 Z"/>
<path d="M 246.792,271.516 290.764,271.516 268.778,309.596 Z"/>
<path d="M 356.722,233.435 378.707,271.516 334.736,271.516 Z"/>
<path d="M 202.82,423.839 158.848,423.839 180.834,385.758 Z"/>
<path d="M 180.834,461.919 158.848,423.839 202.82,423.839 Z"/>
<path d="M 444.665,233.435 422.679,195.354 466.651,195.354 Z"/>
<path d="M 290.764,728.484 246.792,728.484 268.778,690.404 Z"/>
<path d="M 180.834,538.081 202.82,576.161 158.848,576.161 Z"/>
<path d="M 158.848,576.161 202.82,576.161 180.834,614.242 Z"/>
<path d="M 554.595,195.354 510.623,195.354 532.609,157.273 Z"/>
<path d="M 620.553,233.435 598.567,195.354 642.539,195.354 Z"/>
<path d="M 730.482,271.516 686.51,271.516 708.496,233.435 Z"/>
<path d="M 796.44,385.758 774.454,347.677 818.426,347.677 Z"/>
<path d="M 774.454,347.677 796.44,309.596 818.426,347.677 Z"/>
<path d="M 862.398,500 906.37,500 884.384,538.081 Z"/>
<path d="M 862.398,500 884.384,461.919 906.37,500 Z"/>
<path d="M 774.454,728.484 818.426,728.484 796.44,766.565 Z"/>
<path d="M 774.454,728.484 796.44,690.404 818.426,728.484 Z"/>
<path d="M 708.496,766.565 730.482,804.646 686.51,804.646 Z"/>
<path d="M 642.539,804.646 620.553,842.727 598.567,804.646 Z"/>
<path d="M 862.398,576.161 906.37,576.161 884.384,614.242 Z"/>
<path d="M 862.398,576.161 884.384,538.081 906.37,576.161 Z"/>
<path d="M 532.609,842.727 554.595,880.807 510.623,880.807 Z"/>
<path d="M 466.651,804.646 444.665,842.727 422.679,804.646 Z"/>
<path d="M 356.722,766.565 378.707,804.646 334.736,804.646 Z"/>
<path d="M 290.764,728.484 268.778,766.565 246.792,728.484 Z"/>
<path d="M 246.792,271.516 268.778,233.435 290.764,271.516 Z"/>
<path d="M 202.82,347.677 158.848,347.677 180.834,309.596 Z"/>
<path d="M 202.82,347.677 180.834,385.758 158.848,347.677 Z"/>
<path d="M 356.722,233.435 334.736,195.354 378.707,195.354 Z"/>
<path d="M 444.665,157.273 466.651,195.354 422.679,195.354 Z"/>
<path d="M 158.848,652.323 180.834,614.242 202.82,652.323 Z"/>
<path d="M 158.848,652.323 202.82,652.323 180.834,690.404 Z"/>
<path d="M 70.905,500 92.891,461.919 114.876,500 Z"/>
<path d="M 70.905,500 114.876,500 92.891,538.081 Z"/>
<path d="M 510.623,119.193 554.595,119.193 532.609,157.273 Z"/>
<path d="M 620.553,157.273 642.539,195.354 598.567,195.354 Z"/>
<path d="M 730.482,195.354 708.496,233.435 686.51,195.354 Z"/>
<path d="M 818.426,271.516 796.44,309.596 774.454,271.516 Z"/>
<path d="M 818.426,271.516 774.454,271.516 796.44,233.435 Z"/>
<path d="M 906.37,423.839 884.384,461.919 862.398,423.839 Z"/>
<path d="M 906.37,423.839 862.398,423.839 884.384,385.758 Z"/>
<path d="M 774.454,804.646 796.44,766.565 818.426,804.646 Z"/>
<path d="M 708.496,842.727 686.51,804.646 730.482,804.646 Z"/>
<path d="M 906.37,652.323 884.384,690.404 862.398,652.323 Z"/>
<path d="M 906.37,652.323 862.398,652.323 884.384,614.242 Z"/>
<path d="M 642.539,880.807 598.567,880.807 620.553,842.727 Z"/>
<path d="M 532.609,918.888 510.623,880.807 554.595,880.807 Z"/>
<path d="M 422.679,880.807 444.665,842.727 466.651,880.807 Z"/>
<path d="M 356.722,842.727 334.736,804.646 378.707,804.646 Z"/>
<path d="M 246.792,804.646 268.778,766.565 290.764,804.646 Z"/>
<path d="M 158.848,271.516 180.834,233.435 202.82,271.516 Z"/>
<path d="M 158.848,271.516 202.82,271.516 180.834,309.596 Z"/>
<path d="M 246.792,195.354 290.764,195.354 268.778,233.435 Z"/>
<path d="M 356.722,157.273 378.707,195.354 334.736,195.354 Z"/>
<path d="M 70.905,423.839 92.891,385.758 114.876,423.839 Z"/>
<path d="M 70.905,423.839 114.876,423.839 92.891,461.919 Z"/>
<path d="M 466.651,119.193 444.665,157.273 422.679,119.193 Z"/>
<path d="M 158.848,728.484 180.834,690.404 202.82,728.484 Z"/>
<path d="M 158.848,728.484 202.82,728.484 180.834,766.565 Z"/>
<path d="M 70.905,576.161 92.891,538.081 114.876,576.161 Z"/>
<path d="M 70.905,576.161 114.876,576.161 92.891,614.242 Z"/>
<path d="M 532.609,81.112 554.595,119.193 510.623,119.193 Z"/>
<path d="M 642.539,119.193 620.553,157.273 598.567,119.193 Z"/>
<path d="M 708.496,157.273 730.482,195.354 686.51,195.354 Z"/>
<path d="M 818.426,195.354 796.44,233.435 774.454,195.354 Z"/>
<path d="M 906.37,347.677 884.384,385.758 862.398,347.677 Z"/>
<path d="M 906.37,347.677 862.398,347.677 884.384,309.596 Z"/>
<path d="M 994.313,500 972.327,538.081 950.341,500 Z"/>
<path d="M 994.313,500 950.341,500 972.327,461.919 Z"/>
<path d="M 796.44,842.727 774.454,804.646 818.426,804.646 Z"/>
<path d="M 906.37,728.484 884.384,766.565 862.398,728.484 Z"/>
<path d="M 906.37,728.484 862.398,728.484 884.384,690.404 Z"/>
<path d="M 686.51,880.807 708.496,842.727 730.482,880.807 Z"/>
<path d="M 620.553,918.888 598.567,880.807 642.539,880.807 Z"/>
<path d="M 994.313,576.161 972.327,614.242 950.341,576.161 Z"/>
<path d="M 994.313,576.161 950.341,576.161 972.327,538.081 Z"/>
<path d="M 554.595,956.969 510.623,956.969 532.609,918.888 Z"/>
<path d="M 444.665,918.888 422.679,880.807 466.651,880.807 Z"/>
<path d="M 334.736,880.807 356.722,842.727 378.707,880.807 Z"/>
<path d="M 268.778,842.727 246.792,804.646 290.764,804.646 Z"/>
<path d="M 202.82,195.354 180.834,233.435 158.848,195.354 Z"/>
<path d="M 268.778,157.273 290.764,195.354 246.792,195.354 Z"/>
<path d="M 70.905,347.677 92.891,309.596 114.876,347.677 Z"/>
<path d="M 70.905,347.677 114.876,347.677 92.891,385.758 Z"/>
<path d="M 334.736,119.193 378.707,119.193 356.722,157.273 Z"/>
<path d="M 444.665,81.112 466.651,119.193 422.679,119.193 Z"/>
<path d="M 158.848,804.646 180.834,766.565 202.82,804.646 Z"/>
<path d="M 70.905,652.323 92.891,614.242 114.876,652.323 Z"/>
<path d="M 70.905,652.323 114.876,652.323 92.891,690.404 Z"/>
<path d="M 554.595,43.031 532.609,81.112 510.623,43.031 Z"/>
<path d="M 620.553,81.112 642.539,119.193 598.567,119.193 Z"/>
<path d="M 730.482,119.193 708.496,157.273 686.51,119.193 Z"/>
<path d="M 796.44,157.273 818.426,195.354 774.454,195.354 Z"/>
<path d="M 906.37,271.516 884.384,309.596 862.398,271.516 Z"/>
<path d="M 906.37,271.516 862.398,271.516 884.384,233.435 Z"/>
<path d="M 994.313,423.839 972.327,461.919 950.341,423.839 Z"/>
<path d="M 994.313,423.839 950.341,423.839 972.327,385.758 Z"/>
<path d="M 994.313,43.031 950.341,43.031 972.327,4.95 Z"/>
<path d="M 906.37,804.646 884.384,842.727 862.398,804.646 Z"/>
<path d="M 906.37,804.646 862.398,804.646 884.384,766.565 Z"/>
<path d="M 818.426,880.807 774.454,880.807 796.44,842.727 Z"/>
<path d="M 708.496,918.888 686.51,880.807 730.482,880.807 Z"/>
<path d="M 994.313,652.323 972.327,690.404 950.341,652.323 Z"/>
<path d="M 994.313,652.323 950.341,652.323 972.327,614.242 Z"/>
<path d="M 598.567,956.969 620.553,918.888 642.539,956.969 Z"/>
<path d="M 994.313,43.031 972.327,81.112 950.341,43.031 Z"/>
<path d="M 554.595,956.969 532.609,995.049 510.623,956.969 Z"/>
<path d="M 422.679,956.969 444.665,918.888 466.651,956.969 Z"/>
<path d="M 356.722,918.888 334.736,880.807 378.707,880.807 Z"/>
<path d="M 246.792,880.807 268.778,842.727 290.764,880.807 Z"/>
<path d="M 180.834,842.727 158.848,804.646 202.82,804.646 Z"/>
<path d="M 180.834,157.273 202.82,195.354 158.848,195.354 Z"/>
<path d="M 70.905,271.516 92.891,233.435 114.876,271.516 Z"/>
<path d="M 70.905,271.516 114.876,271.516 92.891,309.596 Z"/>
<path d="M 290.764,119.193 268.778,157.273 246.792,119.193 Z"/>
<path d="M 356.722,81.112 378.707,119.193 334.736,119.193 Z"/>
<path d="M 70.905,43.031 92.891,4.95 114.876,43.031 Z"/>
<path d="M 70.905,43.031 114.876,43.031 92.891,81.112 Z"/>
<path d="M 422.679,43.031 466.651,43.031 444.665,81.112 Z"/>
<path d="M 70.905,728.484 92.891,690.404 114.876,728.484 Z"/>
<path d="M 70.905,728.484 114.876,728.484 92.891,766.565 Z"/>
<path d="M 554.595,43.031 510.623,43.031 532.609,4.95 Z"/>
<path d="M 642.539,43.031 620.553,81.112 598.567,43.031 Z"/>
<path d="M 708.496,81.112 730.482,119.193 686.51,119.193 Z"/>
<path d="M 818.426,119.193 796.44,157.273 774.454,119.193 Z"/>
<path d="M 906.37,195.354 884.384,233.435 862.398,195.354 Z"/>
<path d="M 906.37,195.354 862.398,195.354 884.384,157.273 Z"/>
<path d="M 994.313,347.677 972.327,385.758 950.341,347.677 Z"/>
<path d="M 994.313,347.677 950.341,347.677 972.327,309.596 Z"/>
<path d="M 862.398,880.807 884.384,842.727 906.37,880.807 Z"/>
<path d="M 796.44,918.888 774.454,880.807 818.426,880.807 Z"/>
<path d="M 994.313,728.484 972.327,766.565 950.341,728.484 Z"/>
<path d="M 994.313,728.484 950.341,728.484 972.327,690.404 Z"/>
<path d="M 730.482,956.969 686.51,956.969 708.496,918.888 Z"/>
<path d="M 70.905,956.969 114.876,956.969 92.891,995.049 Z"/>
<path d="M 598.567,956.969 642.539,956.969 620.553,995.049 Z"/>
<path d="M 422.679,956.969 466.651,956.969 444.665,995.049 Z"/>
<path d="M 334.736,956.969 356.722,918.888 378.707,956.969 Z"/>
<path d="M 268.778,918.888 246.792,880.807 290.764,880.807 Z"/>
<path d="M 158.848,880.807 180.834,842.727 202.82,880.807 Z"/>
<path d="M 70.905,195.354 92.891,157.273 114.876,195.354 Z"/>
<path d="M 70.905,195.354 114.876,195.354 92.891,233.435 Z"/>
<path d="M 158.848,119.193 202.82,119.193 180.834,157.273 Z"/>
<path d="M 70.905,956.969 92.891,918.888 114.876,956.969 Z"/>
<path d="M 268.778,81.112 290.764,119.193 246.792,119.193 Z"/>
<path d="M 378.707,43.031 356.722,81.112 334.736,43.031 Z"/>
<path d="M 422.679,43.031 444.665,4.95 466.651,43.031 Z"/>
<path d="M 70.905,804.646 92.891,766.565 114.876,804.646 Z"/>
<path d="M 70.905,804.646 114.876,804.646 92.891,842.727 Z"/>
<path d="M 642.539,43.031 598.567,43.031 620.553,4.95 Z"/>
<path d="M 730.482,43.031 708.496,81.112 686.51,43.031 Z"/>
<path d="M 796.44,81.112 818.426,119.193 774.454,119.193 Z"/>
<path d="M 906.37,119.193 884.384,157.273 862.398,119.193 Z"/>
<path d="M 994.313,271.516 972.327,309.596 950.341,271.516 Z"/>
<path d="M 994.313,271.516 950.341,271.516 972.327,233.435 Z"/>
<path d="M 950.341,956.969 994.313,956.969 972.327,995.049 Z"/>
<path d="M 884.384,918.888 862.398,880.807 906.37,880.807 Z"/>
<path d="M 994.313,804.646 972.327,842.727 950.341,804.646 Z"/>
<path d="M 994.313,804.646 950.341,804.646 972.327,766.565 Z"/>
<path d="M 774.454,956.969 796.44,918.888 818.426,956.969 Z"/>
<path d="M 950.341,956.969 972.327,918.888 994.313,956.969 Z"/>
<path d="M 730.482,956.969 708.496,995.049 686.51,956.969 Z"/>
<path d="M 334.736,956.969 378.707,956.969 356.722,995.049 Z"/>
<path d="M 246.792,956.969 268.778,918.888 290.764,956.969 Z"/>
<path d="M 180.834,918.888 158.848,880.807 202.82,880.807 Z"/>
<path d="M 114.876,119.193 92.891,157.273 70.905,119.193 Z"/>
<path d="M 180.834,81.112 202.82,119.193 158.848,119.193 Z"/>
<path d="M 246.792,43.031 290.764,43.031 268.778,81.112 Z"/>
<path d="M 378.707,43.031 334.736,43.031 356.722,4.95 Z"/>
<path d="M 70.905,880.807 92.891,842.727 114.876,880.807 Z"/>
<path d="M 730.482,43.031 686.51,43.031 708.496,4.95 Z"/>
<path d="M 818.426,43.031 796.44,81.112 774.454,43.031 Z"/>
<path d="M 884.384,81.112 906.37,119.193 862.398,119.193 Z"/>
<path d="M 994.313,195.354 972.327,233.435 950.341,195.354 Z"/>
<path d="M 994.313,195.354 950.341,195.354 972.327,157.273 Z"/>
<path d="M 994.313,119.193 950.341,119.193 972.327,81.112 Z"/>
<path d="M 994.313,880.807 972.327,918.888 950.341,880.807 Z"/>
<path d="M 994.313,880.807 950.341,880.807 972.327,842.727 Z"/>
<path d="M 906.37,956.969 862.398,956.969 884.384,918.888 Z"/>
<path d="M 774.454,956.969 818.426,956.969 796.44,995.049 Z"/>
<path d="M 246.792,956.969 290.764,956.969 268.778,995.049 Z"/>
<path d="M 158.848,956.969 180.834,918.888 202.82,956.969 Z"/>
<path d="M 92.891,918.888 70.905,880.807 114.876,880.807 Z"/>
<path d="M 92.891,81.112 114.876,119.193 70.905,119.193 Z"/>
<path d="M 202.82,43.031 180.834,81.112 158.848,43.031 Z"/>
<path d="M 246.792,43.031 268.778,4.95 290.764,43.031 Z"/>
<path d="M 906.37,43.031 862.398,43.031 884.384,4.95 Z"/>
<path d="M 818.426,43.031 774.454,43.031 796.44,4.95 Z"/>
<path d="M 906.37,43.031 884.384,81.112 862.398,43.031 Z"/>
<path d="M 994.313,119.193 972.327,157.273 950.341,119.193 Z"/>
<path d="M 906.37,956.969 884.384,995.049 862.398,956.969 Z"/>
<path d="M 158.848,956.969 202.82,956.969 180.834,995.049 Z"/>
<path d="M 202.82,43.031 158.848,43.031 180.834,4.95 Z"/>
</g>
<g style="opacity:1.0;fill:#00ff00;stroke:#000000;stroke-width:2.4981503;">  <!-- 6-sided blocks -->
<path d="M 510.623,500 466.651,500 444.665,461.919 466.651,423.839 510.623,423.839 532.609,461.919 Z"/>
<path d="M 532.609,538.081 554.595,500 598.567,500 620.553,538.081 598.567,576.161 554.595,576.161 Z"/>
<path d="M 532.609,461.919 554.595,423.839 598.567,423.839 620.553,461.919 598.567,500 554.595,500 Z"/>
<path d="M 554.595,576.161 598.567,576.161 620.553,614.242 598.567,652.323 554.595,652.323 532.609,614.242 Z"/>
<path d="M 510.623,576.161 532.609,614.242 510.623,652.323 466.651,652.323 444.665,614.242 466.651,576.161 Z"/>
<path d="M 444.665,461.919 422.679,500 378.707,500 356.722,461.919 378.707,423.839 422.679,423.839 Z"/>
<path d="M 444.665,538.081 422.679,576.161 378.707,576.161 356.722,538.081 378.707,500 422.679,500 Z"/>
<path d="M 554.595,423.839 532.609,385.758 554.595,347.677 598.567,347.677 620.553,385.758 598.567,423.839 Z"/>
<path d="M 510.623,423.839 466.651,423.839 444.665,385.758 466.651,347.677 510.623,347.677 532.609,385.758 Z"/>
<path d="M 422.679,423.839 378.707,423.839 356.722,385.758 378.707,347.677 422.679,347.677 444.665,385.758 Z"/>
<path d="M 422.679,576.161 444.665,614.242 422.679,652.323 378.707,652.323 356.722,614.242 378.707,576.161 Z"/>
<path d="M 620.553,538.081 642.539,500 686.51,500 708.496,538.081 686.51,576.161 642.539,576.161 Z"/>
<path d="M 620.553,461.919 642.539,423.839 686.51,423.839 708.496,461.919 686.51,500 642.539,500 Z"/>
<path d="M 620.553,614.242 642.539,576.161 686.51,576.161 708.496,614.242 686.51,652.323 642.539,652.323 Z"/>
<path d="M 510.623,652.323 532.609,690.404 510.623,728.484 466.651,728.484 444.665,690.404 466.651,652.323 Z"/>
<path d="M 554.595,652.323 598.567,652.323 620.553,690.404 598.567,728.484 554.595,728.484 532.609,690.404 Z"/>
<path d="M 356.722,461.919 334.736,500 290.764,500 268.778,461.919 290.764,423.839 334.736,423.839 Z"/>
<path d="M 356.722,538.081 334.736,576.161 290.764,576.161 268.778,538.081 290.764,500 334.736,500 Z"/>
<path d="M 510.623,347.677 466.651,347.677 444.665,309.596 466.651,271.516 510.623,271.516 532.609,309.596 Z"/>
<path d="M 554.595,347.677 532.609,309.596 554.595,271.516 598.567,271.516 620.553,309.596 598.567,347.677 Z"/>
<path d="M 620.553,385.758 642.539,347.677 686.51,347.677 708.496,385.758 686.51,423.839 642.539,423.839 Z"/>
<path d="M 642.539,652.323 686.51,652.323 708.496,690.404 686.51,728.484 642.539,728.484 620.553,690.404 Z"/>
<path d="M 422.679,652.323 444.665,690.404 422.679,728.484 378.707,728.484 356.722,690.404 378.707,652.323 Z"/>
<path d="M 356.722,385.758 334.736,423.839 290.764,423.839 268.778,385.758 290.764,347.677 334.736,347.677 Z"/>
<path d="M 422.679,347.677 378.707,347.677 356.722,309.596 378.707,271.516 422.679,271.516 444.665,309.596 Z"/>
<path d="M 356.722,614.242 334.736,652.323 290.764,652.323 268.778,614.242 290.764,576.161 334.736,576.161 Z"/>
<path d="M 686.51,271.516 708.496,309.596 686.51,347.677 642.539,347.677 620.553,309.596 642.539,271.516 Z"/>
<path d="M 708.496,538.081 730.482,500 774.454,500 796.44,538.081 774.454,576.161 730.482,576.161 Z"/>
<path d="M 708.496,461.919 730.482,423.839 774.454,423.839 796.44,461.919 774.454,500 730.482,500 Z"/>
<path d="M 708.496,614.242 730.482,576.161 774.454,576.161 796.44,614.242 774.454,652.323 730.482,652.323 Z"/>
<path d="M 598.567,804.646 554.595,804.646 532.609,766.565 554.595,728.484 598.567,728.484 620.553,766.565 Z"/>
<path d="M 466.651,804.646 444.665,766.565 466.651,728.484 510.623,728.484 532.609,766.565 510.623,804.646 Z"/>
<path d="M 290.764,271.516 334.736,271.516 356.722,309.596 334.736,347.677 290.764,347.677 268.778,309.596 Z"/>
<path d="M 290.764,728.484 268.778,690.404 290.764,652.323 334.736,652.323 356.722,690.404 334.736,728.484 Z"/>
<path d="M 268.778,461.919 246.792,500 202.82,500 180.834,461.919 202.82,423.839 246.792,423.839 Z"/>
<path d="M 180.834,538.081 202.82,500 246.792,500 268.778,538.081 246.792,576.161 202.82,576.161 Z"/>
<path d="M 620.553,233.435 598.567,271.516 554.595,271.516 532.609,233.435 554.595,195.354 598.567,195.354 Z"/>
<path d="M 510.623,195.354 532.609,233.435 510.623,271.516 466.651,271.516 444.665,233.435 466.651,195.354 Z"/>
<path d="M 796.44,385.758 774.454,423.839 730.482,423.839 708.496,385.758 730.482,347.677 774.454,347.677 Z"/>
<path d="M 774.454,728.484 730.482,728.484 708.496,690.404 730.482,652.323 774.454,652.323 796.44,690.404 Z"/>
<path d="M 708.496,766.565 686.51,804.646 642.539,804.646 620.553,766.565 642.539,728.484 686.51,728.484 Z"/>
<path d="M 422.679,804.646 378.707,804.646 356.722,766.565 378.707,728.484 422.679,728.484 444.665,766.565 Z"/>
<path d="M 202.82,347.677 246.792,347.677 268.778,385.758 246.792,423.839 202.82,423.839 180.834,385.758 Z"/>
<path d="M 356.722,233.435 378.707,195.354 422.679,195.354 444.665,233.435 422.679,271.516 378.707,271.516 Z"/>
<path d="M 268.778,614.242 246.792,652.323 202.82,652.323 180.834,614.242 202.82,576.161 246.792,576.161 Z"/>
<path d="M 686.51,271.516 642.539,271.516 620.553,233.435 642.539,195.354 686.51,195.354 708.496,233.435 Z"/>
<path d="M 774.454,347.677 730.482,347.677 708.496,309.596 730.482,271.516 774.454,271.516 796.44,309.596 Z"/>
<path d="M 862.398,500 884.384,538.081 862.398,576.161 818.426,576.161 796.44,538.081 818.426,500 Z"/>
<path d="M 818.426,423.839 862.398,423.839 884.384,461.919 862.398,500 818.426,500 796.44,461.919 Z"/>
<path d="M 774.454,728.484 796.44,766.565 774.454,804.646 730.482,804.646 708.496,766.565 730.482,728.484 Z"/>
<path d="M 818.426,652.323 796.44,614.242 818.426,576.161 862.398,576.161 884.384,614.242 862.398,652.323 Z"/>
<path d="M 532.609,842.727 510.623,880.807 466.651,880.807 444.665,842.727 466.651,804.646 510.623,804.646 Z"/>
<path d="M 598.567,804.646 620.553,842.727 598.567,880.807 554.595,880.807 532.609,842.727 554.595,804.646 Z"/>
<path d="M 356.722,766.565 334.736,804.646 290.764,804.646 268.778,766.565 290.764,728.484 334.736,728.484 Z"/>
<path d="M 246.792,271.516 268.778,309.596 246.792,347.677 202.82,347.677 180.834,309.596 202.82,271.516 Z"/>
<path d="M 290.764,271.516 268.778,233.435 290.764,195.354 334.736,195.354 356.722,233.435 334.736,271.516 Z"/>
<path d="M 180.834,690.404 202.82,652.323 246.792,652.323 268.778,690.404 246.792,728.484 202.82,728.484 Z"/>
<path d="M 158.848,500 114.876,500 92.891,461.919 114.876,423.839 158.848,423.839 180.834,461.919 Z"/>
<path d="M 158.848,500 180.834,538.081 158.848,576.161 114.876,576.161 92.891,538.081 114.876,500 Z"/>
<path d="M 510.623,195.354 466.651,195.354 444.665,157.273 466.651,119.193 510.623,119.193 532.609,157.273 Z"/>
<path d="M 554.595,195.354 532.609,157.273 554.595,119.193 598.567,119.193 620.553,157.273 598.567,195.354 Z"/>
<path d="M 730.482,271.516 708.496,233.435 730.482,195.354 774.454,195.354 796.44,233.435 774.454,271.516 Z"/>
<path d="M 796.44,385.758 818.426,347.677 862.398,347.677 884.384,385.758 862.398,423.839 818.426,423.839 Z"/>
<path d="M 796.44,690.404 818.426,652.323 862.398,652.323 884.384,690.404 862.398,728.484 818.426,728.484 Z"/>
<path d="M 642.539,804.646 686.51,804.646 708.496,842.727 686.51,880.807 642.539,880.807 620.553,842.727 Z"/>
<path d="M 422.679,804.646 444.665,842.727 422.679,880.807 378.707,880.807 356.722,842.727 378.707,804.646 Z"/>
<path d="M 246.792,271.516 202.82,271.516 180.834,233.435 202.82,195.354 246.792,195.354 268.778,233.435 Z"/>
<path d="M 92.891,385.758 114.876,347.677 158.848,347.677 180.834,385.758 158.848,423.839 114.876,423.839 Z"/>
<path d="M 378.707,119.193 422.679,119.193 444.665,157.273 422.679,195.354 378.707,195.354 356.722,157.273 Z"/>
<path d="M 202.82,804.646 180.834,766.565 202.82,728.484 246.792,728.484 268.778,766.565 246.792,804.646 Z"/>
<path d="M 92.891,614.242 114.876,576.161 158.848,576.161 180.834,614.242 158.848,652.323 114.876,652.323 Z"/>
<path d="M 686.51,119.193 708.496,157.273 686.51,195.354 642.539,195.354 620.553,157.273 642.539,119.193 Z"/>
<path d="M 884.384,309.596 862.398,347.677 818.426,347.677 796.44,309.596 818.426,271.516 862.398,271.516 Z"/>
<path d="M 972.327,538.081 950.341,576.161 906.37,576.161 884.384,538.081 906.37,500 950.341,500 Z"/>
<path d="M 972.327,461.919 950.341,500 906.37,500 884.384,461.919 906.37,423.839 950.341,423.839 Z"/>
<path d="M 884.384,766.565 862.398,804.646 818.426,804.646 796.44,766.565 818.426,728.484 862.398,728.484 Z"/>
<path d="M 774.454,880.807 730.482,880.807 708.496,842.727 730.482,804.646 774.454,804.646 796.44,842.727 Z"/>
<path d="M 972.327,614.242 950.341,652.323 906.37,652.323 884.384,614.242 906.37,576.161 950.341,576.161 Z"/>
<path d="M 598.567,956.969 554.595,956.969 532.609,918.888 554.595,880.807 598.567,880.807 620.553,918.888 Z"/>
<path d="M 466.651,956.969 444.665,918.888 466.651,880.807 510.623,880.807 532.609,918.888 510.623,956.969 Z"/>
<path d="M 290.764,880.807 268.778,842.727 290.764,804.646 334.736,804.646 356.722,842.727 334.736,880.807 Z"/>
<path d="M 92.891,309.596 114.876,271.516 158.848,271.516 180.834,309.596 158.848,347.677 114.876,347.677 Z"/>
<path d="M 290.764,119.193 334.736,119.193 356.722,157.273 334.736,195.354 290.764,195.354 268.778,157.273 Z"/>
<path d="M 92.891,690.404 114.876,652.323 158.848,652.323 180.834,690.404 158.848,728.484 114.876,728.484 Z"/>
<path d="M 26.933,500 4.947,461.919 26.933,423.839 70.905,423.839 92.891,461.919 70.905,500 Z"/>
<path d="M 26.933,576.161 4.947,538.081 26.933,500 70.905,500 92.891,538.081 70.905,576.161 Z"/>
<path d="M 598.567,43.031 620.553,81.112 598.567,119.193 554.595,119.193 532.609,81.112 554.595,43.031 Z"/>
<path d="M 466.651,43.031 510.623,43.031 532.609,81.112 510.623,119.193 466.651,119.193 444.665,81.112 Z"/>
<path d="M 774.454,119.193 796.44,157.273 774.454,195.354 730.482,195.354 708.496,157.273 730.482,119.193 Z"/>
<path d="M 884.384,233.435 862.398,271.516 818.426,271.516 796.44,233.435 818.426,195.354 862.398,195.354 Z"/>
<path d="M 972.327,385.758 950.341,423.839 906.37,423.839 884.384,385.758 906.37,347.677 950.341,347.677 Z"/>
<path d="M 862.398,880.807 818.426,880.807 796.44,842.727 818.426,804.646 862.398,804.646 884.384,842.727 Z"/>
<path d="M 972.327,690.404 950.341,728.484 906.37,728.484 884.384,690.404 906.37,652.323 950.341,652.323 Z"/>
<path d="M 686.51,956.969 642.539,956.969 620.553,918.888 642.539,880.807 686.51,880.807 708.496,918.888 Z"/>
<path d="M 378.707,956.969 356.722,918.888 378.707,880.807 422.679,880.807 444.665,918.888 422.679,956.969 Z"/>
<path d="M 202.82,880.807 180.834,842.727 202.82,804.646 246.792,804.646 268.778,842.727 246.792,880.807 Z"/>
<path d="M 92.891,233.435 114.876,195.354 158.848,195.354 180.834,233.435 158.848,271.516 114.876,271.516 Z"/>
<path d="M 202.82,119.193 246.792,119.193 268.778,157.273 246.792,195.354 202.82,195.354 180.834,157.273 Z"/>
<path d="M 510.623,500 532.609,538.081 510.623,576.161 466.651,576.161 444.665,538.081 466.651,500 Z"/>
<path d="M 378.707,43.031 422.679,43.031 444.665,81.112 422.679,119.193 378.707,119.193 356.722,81.112 Z"/>
<path d="M 92.891,766.565 114.876,728.484 158.848,728.484 180.834,766.565 158.848,804.646 114.876,804.646 Z"/>
<path d="M 26.933,652.323 4.947,614.242 26.933,576.161 70.905,576.161 92.891,614.242 70.905,652.323 Z"/>
<path d="M 70.905,956.969 26.933,956.969 4.947,918.888 26.933,880.807 70.905,880.807 92.891,918.888 Z"/>
<path d="M 686.51,43.031 708.496,81.112 686.51,119.193 642.539,119.193 620.553,81.112 642.539,43.031 Z"/>
<path d="M 862.398,119.193 884.384,157.273 862.398,195.354 818.426,195.354 796.44,157.273 818.426,119.193 Z"/>
<path d="M 972.327,309.596 950.341,347.677 906.37,347.677 884.384,309.596 906.37,271.516 950.341,271.516 Z"/>
<path d="M 972.327,766.565 950.341,804.646 906.37,804.646 884.384,766.565 906.37,728.484 950.341,728.484 Z"/>
<path d="M 774.454,956.969 730.482,956.969 708.496,918.888 730.482,880.807 774.454,880.807 796.44,918.888 Z"/>
<path d="M 290.764,956.969 268.778,918.888 290.764,880.807 334.736,880.807 356.722,918.888 334.736,956.969 Z"/>
<path d="M 114.876,119.193 158.848,119.193 180.834,157.273 158.848,195.354 114.876,195.354 92.891,157.273 Z"/>
<path d="M 290.764,43.031 334.736,43.031 356.722,81.112 334.736,119.193 290.764,119.193 268.778,81.112 Z"/>
<path d="M 114.876,880.807 92.891,842.727 114.876,804.646 158.848,804.646 180.834,842.727 158.848,880.807 Z"/>
<path d="M 26.933,728.484 4.947,690.404 26.933,652.323 70.905,652.323 92.891,690.404 70.905,728.484 Z"/>
<path d="M 774.454,43.031 796.44,81.112 774.454,119.193 730.482,119.193 708.496,81.112 730.482,43.031 Z"/>
<path d="M 972.327,233.435 950.341,271.516 906.37,271.516 884.384,233.435 906.37,195.354 950.341,195.354 Z"/>
<path d="M 972.327,842.727 950.341,880.807 906.37,880.807 884.384,842.727 906.37,804.646 950.341,804.646 Z"/>
<path d="M 862.398,956.969 818.426,956.969 796.44,918.888 818.426,880.807 862.398,880.807 884.384,918.888 Z"/>
<path d="M 202.82,956.969 180.834,918.888 202.82,880.807 246.792,880.807 268.778,918.888 246.792,956.969 Z"/>
<path d="M 202.82,43.031 246.792,43.031 268.778,81.112 246.792,119.193 202.82,119.193 180.834,81.112 Z"/>
<path d="M 26.933,804.646 4.947,766.565 26.933,728.484 70.905,728.484 92.891,766.565 70.905,804.646 Z"/>
<path d="M 862.398,43.031 884.384,81.112 862.398,119.193 818.426,119.193 796.44,81.112 818.426,43.031 Z"/>
<path d="M 972.327,157.273 950.341,195.354 906.37,195.354 884.384,157.273 906.37,119.193 950.341,119.193 Z"/>
<path d="M 950.341,956.969 906.37,956.969 884.384,918.888 906.37,880.807 950.341,880.807 972.327,918.888 Z"/>
<path d="M 114.876,956.969 92.891,918.888 114.876,880.807 158.848,880.807 180.834,918.888 158.848,956.969 Z"/>
<path d="M 114.876,43.031 158.848,43.031 180.834,81.112 158.848,119.193 114.876,119.193 92.891,81.112 Z"/>
<path d="M 26.933,880.807 4.947,842.727 26.933,804.646 70.905,804.646 92.891,842.727 70.905,880.807 Z"/>
<path d="M 950.341,43.031 972.327,81.112 950.341,119.193 906.37,119.193 884.384,81.112 906.37,43.031 Z"/>
<path d="M 26.933,119.193 4.947,81.112 26.933,43.031 70.905,43.031 92.891,81.112 70.905,119.193 Z"/>
<path d="M 26.933,195.354 4.947,157.273 26.933,119.193 70.905,119.193 92.891,157.273 70.905,195.354 Z"/>
<path d="M 26.933,271.516 4.947,233.435 26.933,195.354 70.905,195.354 92.891,233.435 70.905,271.516 Z"/>
<path d="M 26.933,347.677 4.947,309.596 26.933,271.516 70.905,271.516 92.891,309.596 70.905,347.677 Z"/>
<path d="M 26.933,423.839 4.947,385.758 26.933,347.677 70.905,347.677 92.891,385.758 70.905,423.839 Z"/>
</g>
</svg>
