<?xml version="1.0" encoding="UTF-8" standalone="no"?>
<svg xmlns="http://www.w3.org/2000/svg" version="1.0" width="1000.0" height="978.98517" id="C:\a.svg">
<!-- X Coordinate transform: fx(x)=(x+-155.0)*1.4492754-->
<!-- Y Coordinate transform: fy(y)=(837.7499-y)*1.4492754 -->
<g style="opacity:1.0;fill:#ff0000;fill-opacity:1;stroke:#000000;stroke-width:1.0;stroke-opacity:1.00;"> <!-- group 9-405 -->
<path d="M 173.913,1179.803 137.681,1117.047 210.145,1117.047 282.609,1117.047 355.072,1117.047 318.841,1179.803 282.609,1242.558 246.377,1305.314 210.145,1242.558 Z" />
<path d="M 463.768,1054.292 536.232,1054.292 500,1117.047 463.768,1179.803 427.536,1242.558 391.304,1179.803 355.072,1117.047 318.841,1054.292 391.304,1054.292 Z" />
<path d="M 789.855,1242.558 753.623,1305.314 717.391,1242.558 681.159,1179.803 644.928,1117.047 717.391,1117.047 789.855,1117.047 862.319,1117.047 826.087,1179.803 Z" />
<path d="M -188.406,1054.292 -115.942,1054.292 -43.478,1054.292 28.986,1054.292 -7.246,1117.047 -43.478,1179.803 -79.71,1242.558 -115.942,1179.803 -152.174,1117.047 Z" />
<path d="M -333.333,928.781 -260.87,928.781 -188.406,928.781 -115.942,928.781 -152.174,991.536 -188.406,1054.292 -224.638,1117.047 -260.87,1054.292 -297.101,991.536 Z" />
<path d="M -297.101,740.514 -224.638,740.514 -152.174,740.514 -79.71,740.514 -115.942,803.27 -152.174,866.025 -188.406,928.781 -224.638,866.025 -260.87,803.27 Z" />
<path d="M -260.87,552.248 -188.406,552.248 -115.942,552.248 -43.478,552.248 -79.71,615.003 -115.942,677.759 -152.174,740.514 -188.406,677.759 -224.638,615.003 Z" />
<path d="M -7.246,363.982 -43.478,426.737 -79.71,489.493 -115.942,552.248 -152.174,489.493 -188.406,426.737 -224.638,363.982 -152.174,363.982 -79.71,363.982 Z" />
<path d="M -333.333,50.204 -260.87,50.204 -188.406,50.204 -115.942,50.204 -152.174,112.96 -188.406,175.715 -224.638,238.471 -260.87,175.715 -297.101,112.96 Z" />
<path d="M -297.101,-138.062 -224.638,-138.062 -152.174,-138.062 -79.71,-138.062 -115.942,-75.307 -152.174,-12.551 -188.406,50.204 -224.638,-12.551 -260.87,-75.307 Z" />
<path d="M 1152.174,991.536 1115.942,928.781 1079.71,866.025 1043.478,803.27 1115.942,803.27 1188.406,803.27 1260.87,803.27 1224.638,866.025 1188.406,928.781 Z" />
<path d="M 1079.71,615.003 1152.174,615.003 1224.638,615.003 1297.101,615.003 1260.87,677.759 1224.638,740.514 1188.406,803.27 1152.174,740.514 1115.942,677.759 Z" />
<path d="M 1260.87,552.248 1224.638,615.003 1188.406,552.248 1152.174,489.493 1115.942,426.737 1188.406,426.737 1260.87,426.737 1333.333,426.737 1297.101,489.493 Z" />
<path d="M 1260.87,-75.307 1224.638,-12.551 1188.406,50.204 1152.174,112.96 1115.942,50.204 1079.71,-12.551 1043.478,-75.307 1115.942,-75.307 1188.406,-75.307 Z" />
<path d="M 1297.101,-263.573 1260.87,-200.818 1224.638,-138.062 1188.406,-75.307 1152.174,-138.062 1115.942,-200.818 1079.71,-263.573 1152.174,-263.573 1224.638,-263.573 Z" />
<path d="M 934.783,1242.558 898.551,1179.803 862.319,1117.047 826.087,1054.292 898.551,1054.292 971.015,1054.292 1043.478,1054.292 1007.246,1117.047 971.015,1179.803 Z" />
<path d="M 1224.638,112.96 1188.406,175.715 1152.174,238.471 1115.942,301.226 1079.71,238.471 1043.478,175.715 1007.246,112.96 1079.71,112.96 1152.174,112.96 Z" />
<path d="M 500,-12.551 463.768,-75.307 427.536,-138.062 391.304,-200.818 463.768,-200.818 536.232,-200.818 608.696,-200.818 572.464,-138.062 536.232,-75.307 Z" />
<path d="M 789.855,-263.573 753.623,-200.818 717.391,-138.062 681.159,-75.307 644.928,-138.062 608.696,-200.818 572.464,-263.573 644.928,-263.573 717.391,-263.573 Z" />
<path d="M -115.942,-200.818 -43.478,-200.818 28.986,-200.818 101.449,-200.818 65.217,-138.062 28.986,-75.307 -7.246,-12.551 -43.478,-75.307 -79.71,-138.062 Z" />
<path d="M 65.217,-263.573 137.681,-263.573 210.145,-263.573 282.609,-263.573 246.377,-200.818 210.145,-138.062 173.913,-75.307 137.681,-138.062 101.449,-200.818 Z" />
<path d="M 1115.942,-200.818 1079.71,-138.062 1043.478,-75.307 1007.246,-12.551 971.015,-75.307 934.783,-138.062 898.551,-200.818 971.015,-200.818 1043.478,-200.818 Z" />
<path d="M 1115.942,1179.803 1079.71,1117.047 1043.478,1054.292 1007.246,991.536 1079.71,991.536 1152.174,991.536 1224.638,991.536 1188.406,1054.292 1152.174,1117.047 Z" />
<path d="M 355.072,-12.551 318.841,50.204 282.609,-12.551 246.377,-75.307 210.145,-138.062 282.609,-138.062 355.072,-138.062 427.536,-138.062 391.304,-75.307 Z" />
<path d="M 717.391,991.536 681.159,1054.292 644.928,1117.047 608.696,1179.803 572.464,1117.047 536.232,1054.292 500,991.536 572.464,991.536 644.928,991.536 Z" />
<path d="M 826.087,50.204 789.855,-12.551 753.623,-75.307 717.391,-138.062 789.855,-138.062 862.319,-138.062 934.783,-138.062 898.551,-75.307 862.319,-12.551 Z" />
<path d="M 101.449,1179.803 65.217,1117.047 28.986,1054.292 -7.246,991.536 65.217,991.536 137.681,991.536 210.145,991.536 173.913,1054.292 137.681,1117.047 Z" />
<path d="M -188.406,175.715 -115.942,175.715 -43.478,175.715 28.986,175.715 -7.246,238.471 -43.478,301.226 -79.71,363.982 -115.942,301.226 -152.174,238.471 Z" />
<path d="M 971.015,301.226 1043.478,301.226 1115.942,301.226 1188.406,301.226 1152.174,363.982 1115.942,426.737 1079.71,489.493 1043.478,426.737 1007.246,363.982 Z" />
<path d="M 318.841,928.781 391.304,928.781 355.072,991.536 318.841,1054.292 282.609,1117.047 246.377,1054.292 210.145,991.536 173.913,928.781 246.377,928.781 Z" />
<path d="M 318.841,928.781 282.609,866.025 246.377,803.27 210.145,740.514 282.609,740.514 355.072,740.514 427.536,740.514 391.304,803.27 355.072,866.025 Z" />
<path d="M 173.913,803.27 246.377,803.27 210.145,866.025 173.913,928.781 137.681,991.536 101.449,928.781 65.217,866.025 28.986,803.27 101.449,803.27 Z" />
<path d="M 463.768,552.248 427.536,615.003 391.304,677.759 355.072,740.514 318.841,677.759 282.609,615.003 246.377,552.248 318.841,552.248 391.304,552.248 Z" />
<path d="M 101.449,677.759 65.217,615.003 137.681,615.003 210.145,615.003 282.609,615.003 246.377,677.759 210.145,740.514 173.913,803.27 137.681,740.514 Z" />
<path d="M 427.536,489.493 391.304,552.248 355.072,489.493 318.841,426.737 282.609,363.982 355.072,363.982 427.536,363.982 500,363.982 463.768,426.737 Z" />
<path d="M 318.841,426.737 282.609,489.493 246.377,552.248 210.145,615.003 173.913,552.248 137.681,489.493 101.449,426.737 173.913,426.737 246.377,426.737 Z" />
<path d="M 427.536,363.982 391.304,301.226 355.072,238.471 318.841,175.715 391.304,175.715 463.768,175.715 536.232,175.715 500,238.471 463.768,301.226 Z" />
<path d="M 246.377,426.737 210.145,363.982 173.913,301.226 137.681,238.471 210.145,238.471 282.609,238.471 355.072,238.471 318.841,301.226 282.609,363.982 Z" />
<path d="M 391.304,50.204 355.072,112.96 318.841,175.715 282.609,238.471 246.377,175.715 210.145,112.96 173.913,50.204 246.377,50.204 318.841,50.204 Z" />
<path d="M 500,-12.551 572.464,-12.551 536.232,50.204 500,112.96 463.768,175.715 427.536,112.96 391.304,50.204 355.072,-12.551 427.536,-12.551 Z" />
<path d="M 681.159,928.781 753.623,928.781 826.087,928.781 898.551,928.781 862.319,991.536 826.087,1054.292 789.855,1117.047 753.623,1054.292 717.391,991.536 Z" />
<path d="M 934.783,740.514 898.551,803.27 862.319,866.025 826.087,928.781 789.855,866.025 753.623,803.27 717.391,740.514 789.855,740.514 862.319,740.514 Z" />
<path d="M 681.159,928.781 644.928,991.536 608.696,928.781 572.464,866.025 536.232,803.27 608.696,803.27 681.159,803.27 753.623,803.27 717.391,866.025 Z" />
<path d="M 572.464,615.003 644.928,615.003 717.391,615.003 789.855,615.003 753.623,677.759 717.391,740.514 681.159,803.27 644.928,740.514 608.696,677.759 Z" />
<path d="M 753.623,552.248 826.087,552.248 898.551,552.248 971.015,552.248 934.783,615.003 898.551,677.759 862.319,740.514 826.087,677.759 789.855,615.003 Z" />
<path d="M 608.696,426.737 681.159,426.737 753.623,426.737 826.087,426.737 789.855,489.493 753.623,552.248 717.391,615.003 681.159,552.248 644.928,489.493 Z" />
<path d="M 1007.246,363.982 971.015,426.737 934.783,489.493 898.551,552.248 862.319,489.493 826.087,426.737 789.855,363.982 862.319,363.982 934.783,363.982 Z" />
<path d="M 681.159,301.226 644.928,238.471 717.391,238.471 789.855,238.471 862.319,238.471 826.087,301.226 789.855,363.982 753.623,426.737 717.391,363.982 Z" />
<path d="M 971.015,301.226 934.783,363.982 898.551,301.226 862.319,238.471 826.087,175.715 898.551,175.715 971.015,175.715 1043.478,175.715 1007.246,238.471 Z" />
<path d="M 681.159,50.204 753.623,50.204 826.087,50.204 898.551,50.204 862.319,112.96 826.087,175.715 789.855,238.471 753.623,175.715 717.391,112.96 Z" />
<path d="M 898.551,50.204 862.319,-12.551 934.783,-12.551 1007.246,-12.551 1079.71,-12.551 1043.478,50.204 1007.246,112.96 971.015,175.715 934.783,112.96 Z" />
<path d="M 463.768,1054.292 427.536,991.536 391.304,928.781 355.072,866.025 427.536,866.025 500,866.025 572.464,866.025 536.232,928.781 500,991.536 Z" />
<path d="M 536.232,677.759 608.696,677.759 572.464,740.514 536.232,803.27 500,866.025 463.768,803.27 427.536,740.514 391.304,677.759 463.768,677.759 Z" />
<path d="M 572.464,489.493 644.928,489.493 608.696,552.248 572.464,615.003 536.232,677.759 500,615.003 463.768,552.248 427.536,489.493 500,489.493 Z" />
<path d="M 572.464,489.493 536.232,426.737 500,363.982 463.768,301.226 536.232,301.226 608.696,301.226 681.159,301.226 644.928,363.982 608.696,426.737 Z" />
<path d="M 608.696,301.226 572.464,238.471 536.232,175.715 500,112.96 572.464,112.96 644.928,112.96 717.391,112.96 681.159,175.715 644.928,238.471 Z" />
<path d="M 572.464,-12.551 536.232,-75.307 608.696,-75.307 681.159,-75.307 753.623,-75.307 717.391,-12.551 681.159,50.204 644.928,112.96 608.696,50.204 Z" />
<path d="M -152.174,866.025 -79.71,866.025 -7.246,866.025 65.217,866.025 28.986,928.781 -7.246,991.536 -43.478,1054.292 -79.71,991.536 -115.942,928.781 Z" />
<path d="M 862.319,866.025 934.783,866.025 1007.246,866.025 1079.71,866.025 1043.478,928.781 1007.246,991.536 971.015,1054.292 934.783,991.536 898.551,928.781 Z" />
<path d="M 934.783,740.514 898.551,677.759 971.015,677.759 1043.478,677.759 1115.942,677.759 1079.71,740.514 1043.478,803.27 1007.246,866.025 971.015,803.27 Z" />
<path d="M -152.174,-12.551 -79.71,-12.551 -7.246,-12.551 65.217,-12.551 28.986,50.204 -7.246,112.96 -43.478,175.715 -79.71,112.96 -115.942,50.204 Z" />
<path d="M -7.246,363.982 -43.478,301.226 28.986,301.226 101.449,301.226 173.913,301.226 137.681,363.982 101.449,426.737 65.217,489.493 28.986,426.737 Z" />
<path d="M 137.681,112.96 210.145,112.96 173.913,175.715 137.681,238.471 101.449,301.226 65.217,238.471 28.986,175.715 -7.246,112.96 65.217,112.96 Z" />
<path d="M 137.681,112.96 101.449,50.204 65.217,-12.551 28.986,-75.307 101.449,-75.307 173.913,-75.307 246.377,-75.307 210.145,-12.551 173.913,50.204 Z" />
<path d="M 101.449,677.759 65.217,740.514 28.986,803.27 -7.246,866.025 -43.478,803.27 -79.71,740.514 -115.942,677.759 -43.478,677.759 28.986,677.759 Z" />
<path d="M 1079.71,615.003 1043.478,677.759 1007.246,615.003 971.015,552.248 934.783,489.493 1007.246,489.493 1079.71,489.493 1152.174,489.493 1115.942,552.248 Z" />
<path d="M 65.217,489.493 137.681,489.493 101.449,552.248 65.217,615.003 28.986,677.759 -7.246,615.003 -43.478,552.248 -79.71,489.493 -7.246,489.493 Z" />
</g>
<g style="opacity:1.0;fill:#007fff;fill-opacity:1;stroke:#000000;stroke-width:1.0;stroke-opacity:1.00;"> <!-- group 3-135 -->
<path d="M 391.304,-200.818 427.536,-138.062 355.072,-138.062 Z" />
<path d="M 608.696,1179.803 644.928,1117.047 681.159,1179.803 Z" />
<path d="M 898.551,-200.818 934.783,-138.062 862.319,-138.062 Z" />
<path d="M -224.638,1117.047 -188.406,1054.292 -152.174,1117.047 Z" />
<path d="M -188.406,175.715 -152.174,238.471 -224.638,238.471 Z" />
<path d="M 101.449,1179.803 137.681,1117.047 173.913,1179.803 Z" />
<path d="M 1224.638,991.536 1152.174,991.536 1188.406,928.781 Z" />
<path d="M 1260.87,803.27 1188.406,803.27 1224.638,740.514 Z" />
<path d="M 1297.101,615.003 1224.638,615.003 1260.87,552.248 Z" />
<path d="M 1224.638,112.96 1152.174,112.96 1188.406,50.204 Z" />
<path d="M 1260.87,-75.307 1188.406,-75.307 1224.638,-138.062 Z" />
<path d="M -115.942,-200.818 -79.71,-138.062 -152.174,-138.062 Z" />
<path d="M 1188.406,301.226 1115.942,301.226 1152.174,238.471 Z" />
<path d="M 572.464,-263.573 608.696,-200.818 536.232,-200.818 Z" />
<path d="M 65.217,-263.573 101.449,-200.818 28.986,-200.818 Z" />
<path d="M 1079.71,-263.573 1115.942,-200.818 1043.478,-200.818 Z" />
<path d="M 137.681,112.96 173.913,50.204 210.145,112.96 Z" />
<path d="M 28.986,-75.307 65.217,-12.551 -7.246,-12.551 Z" />
<path d="M 572.464,489.493 608.696,426.737 644.928,489.493 Z" />
<path d="M -7.246,363.982 -79.71,363.982 -43.478,301.226 Z" />
<path d="M -7.246,866.025 28.986,803.27 65.217,866.025 Z" />
<path d="M -188.406,928.781 -152.174,866.025 -115.942,928.781 Z" />
<path d="M 65.217,489.493 101.449,426.737 137.681,489.493 Z" />
<path d="M 1079.71,489.493 1115.942,426.737 1152.174,489.493 Z" />
<path d="M 536.232,803.27 572.464,866.025 500,866.025 Z" />
<path d="M 898.551,552.248 934.783,489.493 971.015,552.248 Z" />
<path d="M 862.319,1117.047 789.855,1117.047 826.087,1054.292 Z" />
<path d="M 101.449,677.759 28.986,677.759 65.217,615.003 Z" />
<path d="M 210.145,-138.062 246.377,-75.307 173.913,-75.307 Z" />
<path d="M -115.942,552.248 -79.71,489.493 -43.478,552.248 Z" />
<path d="M 463.768,1054.292 500,991.536 536.232,1054.292 Z" />
<path d="M 1079.71,615.003 1115.942,677.759 1043.478,677.759 Z" />
<path d="M 608.696,301.226 644.928,238.471 681.159,301.226 Z" />
<path d="M 717.391,-138.062 753.623,-75.307 681.159,-75.307 Z" />
<path d="M 971.015,301.226 1007.246,363.982 934.783,363.982 Z" />
<path d="M -152.174,740.514 -115.942,677.759 -79.71,740.514 Z" />
<path d="M 681.159,50.204 717.391,112.96 644.928,112.96 Z" />
<path d="M 971.015,175.715 1007.246,112.96 1043.478,175.715 Z" />
<path d="M 282.609,1117.047 318.841,1054.292 355.072,1117.047 Z" />
<path d="M 173.913,928.781 210.145,991.536 137.681,991.536 Z" />
<path d="M 173.913,803.27 210.145,740.514 246.377,803.27 Z" />
<path d="M 282.609,615.003 210.145,615.003 246.377,552.248 Z" />
<path d="M 318.841,426.737 246.377,426.737 282.609,363.982 Z" />
<path d="M 355.072,238.471 282.609,238.471 318.841,175.715 Z" />
<path d="M 355.072,-12.551 391.304,50.204 318.841,50.204 Z" />
<path d="M 681.159,928.781 717.391,991.536 644.928,991.536 Z" />
<path d="M 717.391,740.514 753.623,803.27 681.159,803.27 Z" />
<path d="M 753.623,552.248 789.855,615.003 717.391,615.003 Z" />
<path d="M 753.623,426.737 789.855,363.982 826.087,426.737 Z" />
<path d="M 789.855,238.471 826.087,175.715 862.319,238.471 Z" />
<path d="M 898.551,50.204 826.087,50.204 862.319,-12.551 Z" />
<path d="M 318.841,928.781 355.072,866.025 391.304,928.781 Z" />
<path d="M 391.304,677.759 427.536,740.514 355.072,740.514 Z" />
<path d="M 463.768,552.248 391.304,552.248 427.536,489.493 Z" />
<path d="M 427.536,363.982 463.768,301.226 500,363.982 Z" />
<path d="M 463.768,175.715 500,112.96 536.232,175.715 Z" />
<path d="M 500,-12.551 536.232,-75.307 572.464,-12.551 Z" />
<path d="M -43.478,1054.292 -7.246,991.536 28.986,1054.292 Z" />
<path d="M 1079.71,866.025 1007.246,866.025 1043.478,803.27 Z" />
<path d="M 934.783,740.514 862.319,740.514 898.551,677.759 Z" />
<path d="M 1079.71,-12.551 1007.246,-12.551 1043.478,-75.307 Z" />
<path d="M -152.174,-12.551 -115.942,50.204 -188.406,50.204 Z" />
<path d="M -7.246,112.96 28.986,175.715 -43.478,175.715 Z" />
<path d="M 137.681,238.471 173.913,301.226 101.449,301.226 Z" />
<path d="M 572.464,615.003 608.696,677.759 536.232,677.759 Z" />
<path d="M 826.087,928.781 862.319,866.025 898.551,928.781 Z" />
<path d="M 1043.478,1054.292 971.015,1054.292 1007.246,991.536 Z" />
</g>
<g style="opacity:1.0;fill:#ffff00;fill-opacity:1;stroke:#000000;stroke-width:1.0;stroke-opacity:1.00;"> <!-- group 6-270 -->
<path d="M 282.609,1242.558 318.841,1179.803 355.072,1117.047 391.304,1179.803 427.536,1242.558 355.072,1242.558 Z" />
<path d="M 282.609,-263.573 318.841,-200.818 355.072,-138.062 282.609,-138.062 210.145,-138.062 246.377,-200.818 Z" />
<path d="M 536.232,1054.292 572.464,1117.047 608.696,1179.803 536.232,1179.803 463.768,1179.803 500,1117.047 Z" />
<path d="M 789.855,-263.573 826.087,-200.818 862.319,-138.062 789.855,-138.062 717.391,-138.062 753.623,-200.818 Z" />
<path d="M -333.333,928.781 -297.101,866.025 -260.87,803.27 -224.638,866.025 -188.406,928.781 -260.87,928.781 Z" />
<path d="M -297.101,740.514 -260.87,677.759 -224.638,615.003 -188.406,677.759 -152.174,740.514 -224.638,740.514 Z" />
<path d="M -260.87,552.248 -224.638,489.493 -188.406,426.737 -152.174,489.493 -115.942,552.248 -188.406,552.248 Z" />
<path d="M -152.174,238.471 -115.942,301.226 -79.71,363.982 -152.174,363.982 -224.638,363.982 -188.406,301.226 Z" />
<path d="M -260.87,-75.307 -224.638,-12.551 -188.406,50.204 -260.87,50.204 -333.333,50.204 -297.101,-12.551 Z" />
<path d="M -43.478,1179.803 -7.246,1117.047 28.986,1054.292 65.217,1117.047 101.449,1179.803 28.986,1179.803 Z" />
<path d="M 934.783,1242.558 862.319,1242.558 789.855,1242.558 826.087,1179.803 862.319,1117.047 898.551,1179.803 Z" />
<path d="M 1115.942,1179.803 1043.478,1179.803 971.015,1179.803 1007.246,1117.047 1043.478,1054.292 1079.71,1117.047 Z" />
<path d="M 1260.87,426.737 1188.406,426.737 1115.942,426.737 1152.174,363.982 1188.406,301.226 1224.638,363.982 Z" />
<path d="M 137.681,1117.047 173.913,1054.292 210.145,991.536 246.377,1054.292 282.609,1117.047 210.145,1117.047 Z" />
<path d="M 318.841,928.781 246.377,928.781 173.913,928.781 210.145,866.025 246.377,803.27 282.609,866.025 Z" />
<path d="M 355.072,740.514 282.609,740.514 210.145,740.514 246.377,677.759 282.609,615.003 318.841,677.759 Z" />
<path d="M 391.304,552.248 318.841,552.248 246.377,552.248 282.609,489.493 318.841,426.737 355.072,489.493 Z" />
<path d="M 427.536,363.982 355.072,363.982 282.609,363.982 318.841,301.226 355.072,238.471 391.304,301.226 Z" />
<path d="M 391.304,50.204 427.536,112.96 463.768,175.715 391.304,175.715 318.841,175.715 355.072,112.96 Z" />
<path d="M 500,-12.551 427.536,-12.551 355.072,-12.551 391.304,-75.307 427.536,-138.062 463.768,-75.307 Z" />
<path d="M 717.391,991.536 753.623,1054.292 789.855,1117.047 717.391,1117.047 644.928,1117.047 681.159,1054.292 Z" />
<path d="M 681.159,928.781 717.391,866.025 753.623,803.27 789.855,866.025 826.087,928.781 753.623,928.781 Z" />
<path d="M 789.855,615.003 826.087,677.759 862.319,740.514 789.855,740.514 717.391,740.514 753.623,677.759 Z" />
<path d="M 753.623,552.248 789.855,489.493 826.087,426.737 862.319,489.493 898.551,552.248 826.087,552.248 Z" />
<path d="M 789.855,363.982 826.087,301.226 862.319,238.471 898.551,301.226 934.783,363.982 862.319,363.982 Z" />
<path d="M 898.551,50.204 934.783,112.96 971.015,175.715 898.551,175.715 826.087,175.715 862.319,112.96 Z" />
<path d="M 934.783,-138.062 971.015,-75.307 1007.246,-12.551 934.783,-12.551 862.319,-12.551 898.551,-75.307 Z" />
<path d="M 463.768,1054.292 391.304,1054.292 318.841,1054.292 355.072,991.536 391.304,928.781 427.536,991.536 Z" />
<path d="M 427.536,740.514 463.768,803.27 500,866.025 427.536,866.025 355.072,866.025 391.304,803.27 Z" />
<path d="M 463.768,552.248 500,615.003 536.232,677.759 463.768,677.759 391.304,677.759 427.536,615.003 Z" />
<path d="M 572.464,489.493 500,489.493 427.536,489.493 463.768,426.737 500,363.982 536.232,426.737 Z" />
<path d="M 463.768,301.226 500,238.471 536.232,175.715 572.464,238.471 608.696,301.226 536.232,301.226 Z" />
<path d="M 572.464,-12.551 608.696,50.204 644.928,112.96 572.464,112.96 500,112.96 536.232,50.204 Z" />
<path d="M 608.696,-200.818 644.928,-138.062 681.159,-75.307 608.696,-75.307 536.232,-75.307 572.464,-138.062 Z" />
<path d="M -188.406,1054.292 -152.174,991.536 -115.942,928.781 -79.71,991.536 -43.478,1054.292 -115.942,1054.292 Z" />
<path d="M 1152.174,991.536 1079.71,991.536 1007.246,991.536 1043.478,928.781 1079.71,866.025 1115.942,928.781 Z" />
<path d="M 934.783,740.514 971.015,803.27 1007.246,866.025 934.783,866.025 862.319,866.025 898.551,803.27 Z" />
<path d="M 1152.174,112.96 1079.71,112.96 1007.246,112.96 1043.478,50.204 1079.71,-12.551 1115.942,50.204 Z" />
<path d="M -115.942,50.204 -79.71,112.96 -43.478,175.715 -115.942,175.715 -188.406,175.715 -152.174,112.96 Z" />
<path d="M 101.449,301.226 28.986,301.226 -43.478,301.226 -7.246,238.471 28.986,175.715 65.217,238.471 Z" />
<path d="M 246.377,426.737 173.913,426.737 101.449,426.737 137.681,363.982 173.913,301.226 210.145,363.982 Z" />
<path d="M 608.696,677.759 644.928,740.514 681.159,803.27 608.696,803.27 536.232,803.27 572.464,740.514 Z" />
<path d="M 971.015,1054.292 898.551,1054.292 826.087,1054.292 862.319,991.536 898.551,928.781 934.783,991.536 Z" />
<path d="M -79.71,-138.062 -43.478,-75.307 -7.246,-12.551 -79.71,-12.551 -152.174,-12.551 -115.942,-75.307 Z" />
<path d="M 137.681,112.96 65.217,112.96 -7.246,112.96 28.986,50.204 65.217,-12.551 101.449,50.204 Z" />
<path d="M 210.145,112.96 246.377,175.715 282.609,238.471 210.145,238.471 137.681,238.471 173.913,175.715 Z" />
<path d="M 644.928,489.493 681.159,552.248 717.391,615.003 644.928,615.003 572.464,615.003 608.696,552.248 Z" />
<path d="M -152.174,866.025 -115.942,803.27 -79.71,740.514 -43.478,803.27 -7.246,866.025 -79.71,866.025 Z" />
<path d="M 101.449,677.759 137.681,740.514 173.913,803.27 101.449,803.27 28.986,803.27 65.217,740.514 Z" />
<path d="M 1007.246,363.982 1043.478,426.737 1079.71,489.493 1007.246,489.493 934.783,489.493 971.015,426.737 Z" />
<path d="M 644.928,991.536 572.464,991.536 500,991.536 536.232,928.781 572.464,866.025 608.696,928.781 Z" />
<path d="M 65.217,615.003 101.449,552.248 137.681,489.493 173.913,552.248 210.145,615.003 137.681,615.003 Z" />
<path d="M -7.246,363.982 28.986,426.737 65.217,489.493 -7.246,489.493 -79.71,489.493 -43.478,426.737 Z" />
<path d="M 28.986,677.759 -43.478,677.759 -115.942,677.759 -79.71,615.003 -43.478,552.248 -7.246,615.003 Z" />
<path d="M -7.246,991.536 28.986,928.781 65.217,866.025 101.449,928.781 137.681,991.536 65.217,991.536 Z" />
<path d="M 318.841,50.204 246.377,50.204 173.913,50.204 210.145,-12.551 246.377,-75.307 282.609,-12.551 Z" />
<path d="M 101.449,-200.818 137.681,-138.062 173.913,-75.307 101.449,-75.307 28.986,-75.307 65.217,-138.062 Z" />
<path d="M 1188.406,803.27 1115.942,803.27 1043.478,803.27 1079.71,740.514 1115.942,677.759 1152.174,740.514 Z" />
<path d="M 1043.478,677.759 971.015,677.759 898.551,677.759 934.783,615.003 971.015,552.248 1007.246,615.003 Z" />
<path d="M 608.696,426.737 644.928,363.982 681.159,301.226 717.391,363.982 753.623,426.737 681.159,426.737 Z" />
<path d="M 644.928,238.471 681.159,175.715 717.391,112.96 753.623,175.715 789.855,238.471 717.391,238.471 Z" />
<path d="M 1079.71,615.003 1115.942,552.248 1152.174,489.493 1188.406,552.248 1224.638,615.003 1152.174,615.003 Z" />
<path d="M 681.159,50.204 717.391,-12.551 753.623,-75.307 789.855,-12.551 826.087,50.204 753.623,50.204 Z" />
<path d="M 971.015,301.226 1007.246,238.471 1043.478,175.715 1079.71,238.471 1115.942,301.226 1043.478,301.226 Z" />
<path d="M 1188.406,-75.307 1115.942,-75.307 1043.478,-75.307 1079.71,-138.062 1115.942,-200.818 1152.174,-138.062 Z" />
</g>
</svg>
