<svg xmlns="http://www.w3.org/2000/svg" xmlns:xlink="http://www.w3.org/1999/xlink" width="1821" height="714" viewBox="0 0 1821 714">
  <defs>
    <style>
      .cls-1 {
        clip-path: url(#clip-Kshop_main);
      }

      .cls-2, .cls-4 {
        fill: #fb0028;
      }

      .cls-3 {
        fill: #FFFFFF;
      }

      .cls-4 {
        fill-rule: evenodd;
      }
    </style>
    <clipPath id="clip-Kshop_main">
      <rect width="1821" height="714"/>
    </clipPath>
  </defs>
  <g id="Kshop_main" class="cls-1">
    <g id="Group_1864" data-name="Group 1864" transform="translate(-5405 -3710.742)">
      <g id="Group_1863" data-name="Group 1863" transform="translate(5427 3737.742)">
        <g id="Group_1845" data-name="Group 1845" transform="translate(75.932 468.629)">
          <path id="Wheel_2_4_" class="cls-2" d="M164.474,432.09a95.685,95.685,0,1,1-95.692,95.688A95.7,95.7,0,0,1,164.474,432.09Z" transform="translate(-68.781 -432.09)"/>
          <path id="Wheel_1_4_" class="cls-2" d="M398.648,432.09a95.777,95.777,0,1,1-95.667,95.688A95.7,95.7,0,0,1,398.648,432.09Z" transform="translate(-38.185 -432.09)"/>
        </g>
        <path id="Cart_4_" class="cls-2" d="M604.717,170.234H486.146C466.958,110.319,396.4,71.327,325.469,72.263c-67.669.893-134.148,43.844-149.735,97.971H52.863c-15.337,0-27.661,11.737-27.661,26.184V634.977c0,14.477,12.324,26.175,27.661,26.175H604.717c15.366,0,27.693-11.7,27.693-26.175V196.419C632.41,181.971,620.083,170.234,604.717,170.234Zm-138.937,0H196.368c16.18-40.519,71.745-81.376,129.1-81.875C384.562,87.845,444.743,120.369,465.78,170.234Z" transform="translate(-25.201 -72.247)"/>
        <g id="XMLID_1_" transform="translate(139.048 195.361)">
          <path id="XMLID_2_" class="cls-3" d="M280.847,413.471V361.5l69.4,94.294h137.08L451.718,398.7,345.8,385.423,433.353,369.7l-32.346-45.99-120.16-15.963,113.939-17.269c6.434-9.382,17.145-23.929,17.145-23.929l14.9-20.961L345.8,223.038l101.719-6.252L487.343,161.2H345.8l-64.953,94.081V161.2H158.453s.553,96.871,0,202.769L157.9,455.8H280.847Z" transform="translate(-157.9 -161.197)"/>
        </g>
      </g>
      <path id="shop_2x_5_" data-name="shop@2x (5)" class="cls-4" d="M254.64,356.3V503.6h47.516l.073-11.129c.04-6.121.209-42.077.375-79.9l.3-68.774,4.5-2.358a94.557,94.557,0,0,1,27.259-8.964c5.623-.962,21.811-.812,26.46.245,9.029,2.053,15.434,5.284,20.483,10.333,5.143,5.143,8.127,10.976,10.487,20.5l1.3,5.254.162,67.4.162,67.4h48.024l-.168-72.65c-.165-71.391-.186-72.764-1.235-79.194-3.944-24.172-11.97-38.1-27.95-48.5a59.065,59.065,0,0,0-15.953-7.618c-17.532-5.883-37.091-6.707-56.4-2.376a154.12,154.12,0,0,0-32.4,11.529c-2.454,1.233-4.579,2.241-4.722,2.241s-.26-22.058-.26-49.017V209H254.64V356.3m308.106-65.94c-16.23.87-32.56,4.731-44.352,10.485-10.379,5.065-21.273,13.795-27.444,21.994-10.231,13.594-16.25,30.392-19.067,53.218-1.275,10.335-1.273,35.858,0,45.766,3.719,28.834,12.948,49.458,28.821,64.4,13.883,13.068,32.16,20.5,56.285,22.9,2.751.273,9.5.5,15.005.5,15.7,0,27.415-1.7,39.591-5.753,27.392-9.114,46.25-28.679,55.656-57.743,8.319-25.707,8.656-64.243.8-91.512q-13.762-47.772-59.994-60.08c-13.021-3.459-29.766-5-45.307-4.165m219.326.2c-15.165.933-32.974,3.919-43.046,7.218-15.156,4.965-27.535,13.495-32.11,22.125a57.458,57.458,0,0,0-2.7,6.136l-1.171,3.251-.131,127.669-.132,127.669h47.03V541.615c0-27.5.175-43.015.486-43.015a19.671,19.671,0,0,1,3.272,1.232c12.81,5.665,32.38,9.295,50.082,9.289,27.422-.01,48.694-8.273,65.247-25.346,15.493-15.979,24.823-37.97,27.452-64.7,1.169-11.891.575-33.136-1.288-46.016-5-34.563-21.653-59.917-47.282-71.979-18.269-8.6-40.095-12.092-65.706-10.517m-646.223,1.987a101.822,101.822,0,0,0-30.511,9.238c-15.861,7.843-26.792,19.784-31.292,34.188-4.333,13.867-3.738,33.651,1.376,45.813,3.906,9.287,13.5,19.26,24.23,25.179,5.01,2.764,15.767,7.073,23.942,9.589,3.714,1.143,12.379,3.912,19.257,6.155,25.214,8.22,32.761,14.164,32.761,25.8,0,7.993-3.779,14.334-11.191,18.778-12.706,7.619-39.572,6.945-61.084-1.531A237.412,237.412,0,0,1,73.2,450.49l-1.626-.988v22.24c0,20.746.059,22.258.875,22.508.482.147,3.689,1.431,7.127,2.854,12.172,5.036,26.591,9.543,35.012,10.943,10.673,1.774,30.081,2.158,40.649.8,15.557-1.994,30.179-6.455,39.5-12.052,10.954-6.579,20.5-16.59,24.516-25.712,5.843-13.27,7.26-30.985,3.625-45.314-3.689-14.542-13.514-25.908-29.1-33.661-5.957-2.964-9.659-4.232-28.653-9.817-13.906-4.088-21.551-6.688-29.89-10.164-9.024-3.762-13.669-9.4-14.6-17.719-1.1-9.8,2.731-16.414,12.092-20.891,6.576-3.146,12.277-4.152,23.627-4.171,16.574-.029,23.209,1.806,44.26,12.238,7.726,3.828,14.151,6.961,14.278,6.961s.232-8.969.232-19.931V308.685l-6.958-3.311c-12.78-6.081-22.579-9.722-30.48-11.327-12.527-2.543-30.677-3.194-41.838-1.5m424.646,37.7c-18.809,3.138-29.495,11.8-36.261,29.386-6.385,16.6-7.834,46.336-3.3,67.735,2.089,9.861,6.91,20.893,11.836,27.082,8.529,10.719,23.235,16.182,41.731,15.5,13.01-.478,22.708-3.614,30.628-9.906,9.88-7.849,17.123-23.543,19.948-43.228,1.051-7.324,1.195-25.819.265-34.012-3.453-30.4-15.581-46.951-37.964-51.8-6.239-1.353-20.843-1.763-26.883-.756m222.827,1.313c-9.617.62-20.633,2.995-25.567,5.512-2.886,1.473-5.964,4.424-7.011,6.722-.864,1.9-.912,4.919-.922,58.393l-.011,56.393,5.627,2.7a82.81,82.81,0,0,0,39.639,8.17c26.381-1.125,42.411-13.32,49.53-37.677,6.132-20.981,4.189-57.041-4.017-74.56a40.57,40.57,0,0,0-8.471-12.6c-10.243-10.767-24.61-14.61-48.8-13.051" transform="translate(6013.573 3715.935)"/>
    </g>
  </g>
</svg>
