<svg width="97" height="66" viewBox="0 0 97 66" fill="none" xmlns="http://www.w3.org/2000/svg">
    <path opacity="0.1" fill-rule="evenodd" clip-rule="evenodd"
          d="M17.6364 15C17.6364 32.9242 31.4545 47.4545 48.5 47.4545C65.5455 47.4545 79.3636 32.9241 79.3636 15L97 15C97 45.2222 74.6154 66 48.5 66C21.4519 66 -2.21284e-06 45.2222 -2.22928e-06 15L17.6364 15Z"
          fill="none"/>
    <path
        d="M33.1547 17.2714L38.3779 55.6037C38.4472 56.1126 38.8907 56.4862 39.404 56.4681L76.0983 55.1734C76.7848 55.1492 77.243 54.456 76.9964 53.815L62.7466 16.7773C62.598 16.3911 62.227 16.1364 61.8133 16.1364H34.1455C33.5396 16.1364 33.0728 16.671 33.1547 17.2714Z"
        stroke="#f50a2b" stroke-width="2" stroke-linecap="round"/>
    <path
        d="M29.5 16.1364L28.0374 53.7042C28.0165 54.2409 27.5753 54.6653 27.0382 54.6653H20.1768C19.5601 54.6653 19.0904 54.1125 19.1899 53.5039L24.9096 18.5241C24.9657 18.1805 25.1966 17.8909 25.5189 17.7595L29.5 16.1364ZM29.5 16.1364H33"
        stroke="#f50a2b" stroke-width="2" stroke-linecap="round"/>
    <path d="M38.5 56.5L28 54.6653" stroke="#f50a2b" stroke-width="2" stroke-linecap="round"/>
    <path d="M33 15.6777C33.1333 10.7851 37.7933 1 46.4333 1C55.0733 1 57.6667 10.7851 59 15.6777" stroke="#f50a2b"
          stroke-width="2" stroke-linecap="round"/>
    <path d="M54 15.6777C53.8667 10.7851 49.2067 1 40.5667 1C31.9267 1 29.3333 10.7851 28 15.6777" stroke="#f50a2b"
          stroke-width="2" stroke-linecap="round"/>
    <path
        d="M58.6146 36.3182H46.7218C46.2909 36.3182 45.9084 36.0421 45.7727 35.6331L42.9362 27.0835C42.7215 26.4362 43.2034 25.7686 43.8854 25.7686H55.7782C56.2091 25.7686 56.5916 26.0447 56.7273 26.4537L59.5638 35.0033C59.7785 35.6506 59.2966 36.3182 58.6146 36.3182Z"
        fill="#f50a2b" stroke="#f50a2b" stroke-width="2" stroke-linecap="round"/>
    <path d="M52 40.905H56" stroke="#f50a2b" stroke-width="2" stroke-linecap="round"/>
</svg>
