<svg xmlns="http://www.w3.org/2000/svg" width="46" height="48" viewBox="0 0 46 48">
    <defs>
        <style>.a{fill:#fff;}</style>
    </defs>
    <g transform="translate(-0.5)">
        <path class="a" d="M19.92,14.67l-6.24,2.46L7.42,14.67V5.51h12.5Z" transform="translate(6.92 5.51)"/>
        <path class="a" d="M13.68,3.8l5.24,2V7.3H8.44V5.88l5.24-2m0-1.1L7.42,5.16V8.3H19.9V5.16L13.68,2.7Z"
              transform="translate(6.92 2.7)"/>
        <path class="a" d="M12.87,10.84h-1V3.48H8.73V0h1V2.46h3.14Z" transform="translate(8.23)"/>
        <path class="a" d="M27.06,33.53H5.16V32.51H26.32l9.66-28.9,5.68-1.08.18,1-5.08.98Z"
              transform="translate(4.66 2.53)"/>
        <path class="a" d="M9.84,28.76,4.78,24l5.06-4.76L14.88,24ZM6.28,24l3.58,3.36L13.42,24,9.86,20.64Z"
              transform="translate(4.28 19.24)"/>
        <path class="a" d="M17.36,28.76,12.32,24l5.04-4.76L22.42,24ZM13.82,24l3.56,3.36L20.96,24l-3.58-3.36Z"
              transform="translate(11.82 19.24)"/>
        <rect class="a" width="9.7" height="1.02" transform="translate(29.24 11.96)"/>
        <path class="a" d="M33,24.96,6.22,21.86.5,6H11.52V7.02H1.94l5.02,13.9,26.16,3.04Z" transform="translate(0 6)"/>
    </g>
</svg>
