<?xml version="1.0" encoding="utf-8"?>
<!-- Generator: Adobe Illustrator 24.3.0, SVG Export Plug-In . SVG Version: 6.00 Build 0)  -->
<svg version="1.1" id="Main" xmlns="http://www.w3.org/2000/svg" xmlns:xlink="http://www.w3.org/1999/xlink" x="0px"
     y="0px"
     viewBox="0 0 24 24" style="enable-background:new 0 0 24 24;" xml:space="preserve">
<style type="text/css">
	.st0{fill: #FFEFEF;}
	.st1{fill:#1B9BD9;}
</style>
    <rect y="15.1" class="st0" width="24" height="3.9"/>
    <path class="st1" d="M24,15.1H0V0h24V15.1z M0.5,14.6h23V0.5h-23V14.6z"/>
    <path class="st1" d="M14.1,17v4.2l0.3,0.1l4.7,1.8v0.4H5v-0.4l4.7-1.8l0.3-0.1V17H14.1 M14.5,16.5h-5v4.4l-5,1.9V24h15.1v-1.3
	l-5-1.9L14.5,16.5L14.5,16.5z"/>
    <polygon class="st0" points="12.9,6.6 11.2,7.2 9.6,6.6 9.6,4.2 12.9,4.2 "/>
    <path class="st1" d="M11.2,3l1.4,0.5v0.4H9.9V3.5L11.2,3 M11.2,2.7L9.6,3.3v0.8h3.3V3.3L11.2,2.7L11.2,2.7z"/>
    <polygon class="st1" points="11.4,4.1 11.1,4.1 11.1,2.2 10.3,2.2 10.3,1.3 10.5,1.3 10.5,1.9 11.4,1.9 "/>
    <polygon class="st1" points="14.1,10.7 8.4,10.7 8.4,10.4 14,10.4 16.5,2.9 18,2.6 18,2.9 16.7,3.1 "/>
    <path class="st1" d="M9.5,13.8l-1.3-1.2l1.3-1.2l1.3,1.2L9.5,13.8z M8.6,12.6l0.9,0.9l0.9-0.9l-0.9-0.9L8.6,12.6z"/>
    <path class="st1"
          d="M13.5,13.8l-1.3-1.2l1.3-1.2l1.3,1.2L13.5,13.8z M12.6,12.6l0.9,0.9l0.9-0.9l-0.9-0.9L12.6,12.6z"/>
    <rect x="13.5" y="4.4" class="st1" width="2.5" height="0.3"/>
    <polygon class="st1" points="14.5,9.4 7.5,8.6 6,4.4 8.9,4.4 8.9,4.7 6.4,4.7 7.7,8.3 14.5,9.1 "/>
</svg>
