<?xml version="1.0" encoding="UTF-8"?>
<!DOCTYPE svg PUBLIC "-//W3C//DTD SVG 1.1//EN" "http://www.w3.org/Graphics/SVG/1.1/DTD/svg11.dtd">
<!-- Creator: CorelDRAW 2018 (64-Bit Evaluation Version) -->
<svg xmlns="http://www.w3.org/2000/svg" xml:space="preserve" width="3.8073mm" height="3.81mm" version="1.1" style="shape-rendering:geometricPrecision; text-rendering:geometricPrecision; image-rendering:optimizeQuality; fill-rule:evenodd; clip-rule:evenodd"
viewBox="0 0 92.63 92.7"
 xmlns:xlink="http://www.w3.org/1999/xlink">
 <defs>
  <style type="text/css">
   <![CDATA[
    .fil0 {fill:#3D4852}
   ]]>
  </style>
 </defs>
 <g id="Layer_x0020_1">
  <metadata id="CorelCorpID_0Corel-Layer"/>
  <g id="_2685608609008">
   <path class="fil0" d="M33.71 16.37l-22.58 22.76c-3.81,3.09 -7.44,3.8 -11.13,0.4l35.72 -36.05c3.25,-3.28 10.4,-4.1 14.62,-3.04 5.83,1.47 9.62,5.97 14.31,10.7 9.17,9.26 19.22,18.76 27.98,28.29 -3.38,3.39 -7.42,2.83 -11.62,-0.95 -2.45,-2.34 -19.17,-20.07 -22.91,-23.37 -4.01,-4.04 -7.41,-7.55 -12.3,-7.55 -4.92,-0.01 -8.04,4.74 -12.09,8.82z"/>
   <path class="fil0" d="M79.81 92.7c0.02,0 0.04,-0.01 0.06,-0.02 1.89,-0.55 6.93,-2.39 10.07,-7.66 2.83,-4.77 2.17,-10 2.17,-16.12 0,-11.99 0.26,-11.27 -0.18,-23.17 -4.36,0.01 -7.33,2.86 -7.62,8.06 -0.08,3.11 0.4,12.11 0.31,16.67 0.14,6.13 0.19,9.22 -2.98,12.42 -4.47,3.57 -10.33,1.76 -14.82,-2.18 -2.93,-3.13 -14.92,-14.21 -14.91,-17.76 0,-3.12 2.2,-5.29 4.73,-7.85 2.07,-2.38 11.38,-10.56 12.85,-12.12 2.37,-2.68 1.34,-7.6 -0.79,-9.76 -5.97,5.59 -11.67,10.88 -17.46,16.73 -2.96,2.99 -5.48,6.51 -6.4,10.23 -1.23,4.98 1.05,9.59 1.2,9.84 4.99,5.66 10.08,11.03 15.41,15.68l-27.4 0 -0.02 -2.89 0.01 -0.14 -0.06 -3.35 0.03 -6.56c-0,-5.3 -0.41,-6.38 0.51,-8.48 0,-0.01 -0,0.01 0,0 0.4,-0.82 0.75,-1.64 1.36,-2.13 3.77,-3.03 6.26,-6.57 7.4,-10.96 0,-0.01 0.03,-0.15 0.03,-0.16 0.74,-2.84 0.06,-8.31 -2.23,-11.15 -2.65,-3.88 -6.27,-5.96 -10.65,-6.6l-0.04 -0.02 -7.06 0.03c-0.21,2.46 1.1,6.44 6.33,6.75 0.33,0.04 0.65,0.1 0.96,0.17 3.38,0.81 5.29,3.6 5.89,5.75 0.01,0.02 0.01,0.05 0.02,0.07 0.5,1.74 0.36,3.48 -0.28,5.22 -0,0.01 -0.01,0.02 -0.01,0.03 -1.34,3.66 -4.57,4.18 -6.39,6.43 -1.73,2.13 -2.83,4.59 -3.3,7.23l-0.05 1.1 0 2.99 -0.15 10.43 -0 0.34 0.05 5.53 -9.41 0c-0.09,0 -0.19,-0.01 -0.28,-0.01 -0.94,-0.07 -1.89,-0.28 -2.86,-0.7 -1.1,-0.4 -2.04,-1.08 -2.94,-1.83 -3.17,-3.2 -2.99,-7.09 -2.99,-12.33 -0.3,-4.58 0.09,-13.56 0.01,-16.67 -0.3,-5.2 -3.21,-8.05 -7.58,-8.06 -0.35,9.44 -0.1,19.27 -0.18,28.81 -0.03,3.59 0.45,7 2.59,10.4 3.82,5.9 9.59,7.54 10.42,7.74 0.04,0.01 0.06,0.01 0.08,0.02l8.77 -0.02c0.03,-0.01 0.07,-0.03 0.1,-0.03l11.08 0.02 0 0 1.33 0 35.59 0c0,0 0.01,0 0.02,0l9.66 0.02z"/>
  </g>
 </g>
</svg>
