<?xml version="1.0" encoding="UTF-8"?>
<!DOCTYPE svg PUBLIC "-//W3C//DTD SVG 1.1//EN" "http://www.w3.org/Graphics/SVG/1.1/DTD/svg11.dtd">
<!-- Creator: CorelDRAW 2018 (64-Bit Evaluation Version) -->
<svg xmlns="http://www.w3.org/2000/svg" xml:space="preserve" width="3.8073mm" height="3.81mm" version="1.1" style="shape-rendering:geometricPrecision; text-rendering:geometricPrecision; image-rendering:optimizeQuality; fill-rule:evenodd; clip-rule:evenodd"
viewBox="0 0 20.2 20.21"
 xmlns:xlink="http://www.w3.org/1999/xlink">
 <defs>
  <style type="text/css">
   <![CDATA[
    .fil0 {fill:#0FC6FF}
    .fil1 {fill:#96FEFD}
   ]]>
  </style>
 </defs>
 <g id="Layer_x0020_1">
  <metadata id="CorelCorpID_0Corel-Layer"/>
  <g id="_2685188679216">
   <path class="fil0" d="M7.35 3.57l-4.92 4.96c-0.83,0.67 -1.62,0.83 -2.43,0.09l7.79 -7.86c0.71,-0.71 2.27,-0.89 3.19,-0.66 1.27,0.32 2.1,1.3 3.12,2.33 2,2.02 4.19,4.09 6.1,6.17 -0.74,0.74 -1.62,0.62 -2.53,-0.21 -0.53,-0.51 -4.18,-4.38 -4.99,-5.1 -0.87,-0.88 -1.62,-1.65 -2.68,-1.65 -1.07,-0 -1.75,1.03 -2.64,1.92z"/>
   <path class="fil1" d="M17.4 20.21c0,0 0.01,-0 0.01,-0 0.41,-0.12 1.51,-0.52 2.19,-1.67 0.62,-1.04 0.47,-2.18 0.47,-3.52 0,-2.61 0.06,-2.46 -0.04,-5.05 -0.95,0 -1.6,0.62 -1.66,1.76 -0.02,0.68 0.09,2.64 0.07,3.63 0.03,1.34 0.04,2.01 -0.65,2.71 -0.97,0.78 -2.25,0.38 -3.23,-0.48 -0.64,-0.68 -3.25,-3.1 -3.25,-3.87 0,-0.68 0.48,-1.15 1.03,-1.71 0.45,-0.52 2.48,-2.3 2.8,-2.64 0.52,-0.59 0.29,-1.66 -0.17,-2.13 -1.3,1.22 -2.54,2.37 -3.81,3.65 -0.65,0.65 -1.19,1.42 -1.4,2.23 -0.27,1.09 0.23,2.09 0.26,2.14 1.09,1.23 2.2,2.41 3.36,3.42l-5.98 0 -0 -0.63 0 -0.03 -0.01 -0.73 0.01 -1.43c-0,-1.16 -0.09,-1.39 0.11,-1.85 0,-0 -0,0 0,0 0.09,-0.18 0.16,-0.36 0.3,-0.47 0.82,-0.66 1.37,-1.43 1.61,-2.39 0,-0 0.01,-0.03 0.01,-0.03 0.16,-0.62 0.01,-1.81 -0.49,-2.43 -0.58,-0.85 -1.37,-1.3 -2.32,-1.44l-0.01 -0 -1.54 0.01c-0.05,0.54 0.24,1.4 1.38,1.47 0.07,0.01 0.14,0.02 0.21,0.04 0.74,0.18 1.15,0.78 1.28,1.25 0,0 0,0.01 0,0.02 0.11,0.38 0.08,0.76 -0.06,1.14 -0,0 -0,0 -0,0.01 -0.29,0.8 -1,0.91 -1.39,1.4 -0.38,0.46 -0.62,1 -0.72,1.58l-0.01 0.24 0 0.65 -0.03 2.27 -0 0.07 0.01 1.21 -2.05 0c-0.02,0 -0.04,-0 -0.06,-0 -0.2,-0.01 -0.41,-0.06 -0.62,-0.15 -0.24,-0.09 -0.45,-0.24 -0.64,-0.4 -0.69,-0.7 -0.65,-1.55 -0.65,-2.69 -0.07,-1 0.02,-2.96 0,-3.63 -0.06,-1.13 -0.7,-1.75 -1.65,-1.76 -0.08,2.06 -0.02,4.2 -0.04,6.28 -0.01,0.78 0.1,1.53 0.56,2.27 0.83,1.29 2.09,1.64 2.27,1.69 0.01,0 0.01,0 0.02,0l1.91 -0c0.01,-0 0.01,-0.01 0.02,-0.01l2.42 0.01 0 0 0.29 0 7.76 0c0,0 0,0 0,0l2.11 0z"/>
  </g>
 </g>
</svg>
