<?xml version="1.0" encoding="UTF-8"?>
<!DOCTYPE svg PUBLIC "-//W3C//DTD SVG 1.1//EN" "http://www.w3.org/Graphics/SVG/1.1/DTD/svg11.dtd">
<!-- Creator: CorelDRAW 2018 (64-Bit Evaluation Version) -->
<svg xmlns="http://www.w3.org/2000/svg" xml:space="preserve" width="7.6147mm" height="7.6201mm" version="1.1" style="shape-rendering:geometricPrecision; text-rendering:geometricPrecision; image-rendering:optimizeQuality; fill-rule:evenodd; clip-rule:evenodd"
viewBox="0 0 108.25 108.33"
 xmlns:xlink="http://www.w3.org/1999/xlink">
 <defs>
  <style type="text/css">
   <![CDATA[
    .fil0 {fill:#0FC6FF}
    .fil1 {fill:#96FEFD}
   ]]>
  </style>
 </defs>
 <g id="Layer_x0020_1">
  <metadata id="CorelCorpID_0Corel-Layer"/>
  <g id="_2685335248752">
   <path class="fil0" d="M39.4 19.13l-26.39 26.59c-4.46,3.61 -8.7,4.44 -13.01,0.47l41.74 -42.12c3.79,-3.83 12.16,-4.8 17.09,-3.55 6.82,1.72 11.25,6.98 16.72,12.5 10.72,10.82 22.46,21.92 32.7,33.06 -3.95,3.96 -8.67,3.31 -13.58,-1.11 -2.86,-2.74 -22.4,-23.45 -26.77,-27.31 -4.69,-4.72 -8.66,-8.83 -14.38,-8.83 -5.75,-0.01 -9.4,5.54 -14.12,10.31z"/>
   <path class="fil1" d="M93.26 108.33c0.03,0 0.05,-0.01 0.08,-0.02 2.21,-0.65 8.1,-2.8 11.76,-8.95 3.31,-5.57 2.53,-11.69 2.53,-18.84 0,-14.01 0.3,-13.17 -0.21,-27.08 -5.1,0.01 -8.56,3.34 -8.91,9.42 -0.1,3.64 0.46,14.15 0.37,19.48 0.16,7.17 0.22,10.77 -3.48,14.51 -5.22,4.17 -12.07,2.06 -17.32,-2.55 -3.42,-3.66 -17.43,-16.6 -17.42,-20.75 0,-3.65 2.58,-6.18 5.53,-9.17 2.42,-2.78 13.3,-12.34 15.01,-14.16 2.77,-3.13 1.56,-8.88 -0.92,-11.4 -6.98,6.53 -13.63,12.71 -20.41,19.55 -3.46,3.49 -6.4,7.61 -7.48,11.95 -1.44,5.82 1.22,11.21 1.4,11.5 5.84,6.61 11.78,12.89 18.01,18.32l-32.03 0 -0.03 -3.38 0.01 -0.16 -0.07 -3.92 0.04 -7.67c-0.01,-6.19 -0.47,-7.46 0.59,-9.91 0.01,-0.01 -0.01,0.01 0,0 0.47,-0.95 0.87,-1.91 1.6,-2.49 4.41,-3.54 7.32,-7.68 8.65,-12.81 0,-0.01 0.03,-0.18 0.04,-0.18 0.86,-3.32 0.07,-9.71 -2.61,-13.03 -3.09,-4.54 -7.32,-6.96 -12.45,-7.72l-0.04 -0.02 -8.25 0.03c-0.24,2.88 1.28,7.53 7.4,7.89 0.39,0.05 0.76,0.11 1.12,0.2 3.95,0.95 6.18,4.2 6.88,6.72 0.01,0.03 0.02,0.06 0.02,0.08 0.58,2.04 0.42,4.07 -0.33,6.11 -0,0.01 -0.01,0.03 -0.01,0.04 -1.56,4.28 -5.34,4.88 -7.47,7.51 -2.02,2.49 -3.31,5.36 -3.86,8.45l-0.05 1.29 0 3.49 -0.17 12.19 -0.01 0.4 0.06 6.47 -10.99 0c-0.11,0 -0.22,-0.01 -0.33,-0.02 -1.1,-0.08 -2.21,-0.33 -3.35,-0.81 -1.29,-0.47 -2.39,-1.26 -3.44,-2.14 -3.7,-3.74 -3.49,-8.29 -3.49,-14.41 -0.35,-5.35 0.11,-15.84 0.02,-19.48 -0.35,-6.08 -3.76,-9.41 -8.86,-9.42 -0.41,11.04 -0.12,22.52 -0.21,33.67 -0.03,4.2 0.53,8.18 3.03,12.16 4.46,6.9 11.2,8.81 12.18,9.05 0.04,0.01 0.07,0.02 0.09,0.02l10.25 -0.02c0.04,-0.01 0.08,-0.03 0.12,-0.03l12.95 0.03 0 0 1.55 0 41.59 0c0.01,0 0.01,0 0.02,0l11.28 0.02z"/>
  </g>
 </g>
</svg>
