<?xml version="1.0" encoding="UTF-8"?>
<!DOCTYPE svg PUBLIC "-//W3C//DTD SVG 1.1//EN" "http://www.w3.org/Graphics/SVG/1.1/DTD/svg11.dtd">
<!-- Creator: CorelDRAW 2018 (64-Bit Evaluation Version) -->
<svg xmlns="http://www.w3.org/2000/svg" xml:space="preserve" width="15.9932mm" height="3.8135mm" version="1.1" style="shape-rendering:geometricPrecision; text-rendering:geometricPrecision; image-rendering:optimizeQuality; fill-rule:evenodd; clip-rule:evenodd"
viewBox="0 0 1170.14 279.01"
 xmlns:xlink="http://www.w3.org/1999/xlink">
 <defs>
  <style type="text/css">
   <![CDATA[
    .fil0 {fill:#3D4852}
    .fil2 {fill:#3D4852;fill-rule:nonzero}
    .fil1 {fill:#3D4852;fill-rule:nonzero}
   ]]>
  </style>
 </defs>
 <g id="Layer_x0020_1">
  <metadata id="CorelCorpID_0Corel-Layer"/>
  <g id="_2685691560080">
   <g>
    <path class="fil0" d="M101.38 49.22l-67.91 68.43c-11.46,9.3 -22.38,11.43 -33.47,1.21l107.42 -108.4c9.76,-9.86 31.29,-12.34 43.96,-9.14 17.54,4.43 28.95,17.95 43.04,32.16 27.58,27.84 57.79,56.42 84.14,85.08 -10.16,10.2 -22.31,8.52 -34.96,-2.86 -7.35,-7.05 -57.65,-60.35 -68.88,-70.28 -12.06,-12.15 -22.29,-22.71 -37,-22.72 -14.8,-0.01 -24.18,14.26 -36.34,26.53z"/>
    <path class="fil0" d="M239.99 278.76c0.07,0 0.12,-0.04 0.19,-0.05 5.68,-1.66 20.85,-7.21 30.27,-23.03 8.52,-14.33 6.52,-30.09 6.52,-48.49 0,-36.06 0.77,-33.9 -0.56,-69.68 -13.13,0.04 -22.03,8.6 -22.92,24.24 -0.25,9.37 1.19,36.43 0.94,50.13 0.41,18.44 0.56,27.72 -8.96,37.35 -13.43,10.73 -31.05,5.3 -44.56,-6.56 -8.8,-9.42 -44.85,-42.72 -44.84,-53.41 0.01,-9.38 6.63,-15.91 14.23,-23.6 6.23,-7.17 34.23,-31.75 38.64,-36.44 7.13,-8.07 4.02,-22.86 -2.37,-29.35 -17.95,16.81 -35.08,32.72 -52.52,50.32 -8.9,8.98 -16.47,19.58 -19.24,30.77 -3.71,14.98 3.14,28.85 3.61,29.58 15.01,17.02 30.32,33.17 46.34,47.15l-82.42 0 -0.07 -8.7 0.03 -0.42 -0.17 -10.08 0.1 -19.73c-0.01,-15.93 -1.22,-19.19 1.52,-25.5 0.01,-0.03 -0.01,0.03 0,0 1.21,-2.46 2.24,-4.92 4.1,-6.42 11.34,-9.12 18.83,-19.76 22.26,-32.96 0,-0.01 0.08,-0.45 0.09,-0.47 2.22,-8.54 0.19,-24.99 -6.72,-33.53 -7.96,-11.68 -18.84,-17.93 -32.04,-19.85l-0.11 -0.06 -21.22 0.07c-0.63,7.41 3.29,19.37 19.04,20.3 1,0.12 1.96,0.29 2.88,0.51 10.18,2.45 15.91,10.82 17.71,17.3 0.02,0.07 0.04,0.15 0.06,0.21 1.49,5.24 1.08,10.48 -0.84,15.72 -0.01,0.03 -0.02,0.07 -0.03,0.1 -4.02,11 -13.73,12.56 -19.23,19.32 -5.2,6.4 -8.51,13.78 -9.92,21.75l-0.14 3.31 0.01 8.97 -0.45 31.37 -0.01 1.03 0.16 16.64 -28.29 0.01c-0.28,0 -0.56,-0.03 -0.84,-0.05 -2.82,-0.19 -5.68,-0.83 -8.6,-2.09 -3.31,-1.22 -6.15,-3.25 -8.85,-5.49 -9.52,-9.62 -8.97,-21.33 -8.99,-37.08 -0.9,-13.77 0.29,-40.76 0.04,-50.13 -0.89,-15.64 -9.67,-24.2 -22.79,-24.24 -1.05,28.41 -0.3,57.96 -0.53,86.64 -0.08,10.8 1.37,21.05 7.8,31.28 11.48,17.75 28.82,22.67 31.34,23.28 0.11,0.03 0.19,0.05 0.24,0.06l26.37 -0.06c0.1,-0.02 0.2,-0.07 0.31,-0.07l33.33 0.07 0 0.01 3.99 0 107.02 0c0.01,0.01 0.03,0.01 0.05,0.01l29.04 0.05z"/>
   </g>
   <g>
    <path class="fil1" d="M340.41 162.05l0 49.63c-12.5,0.66 -25.83,-4.77 -26.6,-21.08l0 -115.4c17.56,0.35 26.44,3.31 26.6,19.59l0 11.19c6.67,-22.45 19.29,-33.71 37.94,-33.71 10.76,0 18.66,1.76 23.72,5.22 -3.69,9.3 -4.04,16.33 -23.79,17.32 -12.01,0.6 -21.71,8.63 -28.18,20.13 -6.49,11.54 -9.69,27.22 -9.69,47.1z"/>
    <path class="fil1" d="M539.63 143.06c0,6.04 -0.1,9.5 -0.29,10.47l-110.76 0c1.32,11.01 6.18,20.12 14.56,27.38 8.08,6.67 17.15,10.03 27.23,10.03 12.66,0 22.67,-3.19 30.66,-8.73 12.06,-8.38 18.48,-11.83 33.58,-3.59 -5.6,11.49 -14.08,20.36 -25.42,26.6 -11.3,6.28 -23.76,9.39 -37.36,9.39 -19.53,0 -36.19,-6.57 -50.07,-19.77 -13.2,-13.2 -19.78,-30.5 -19.78,-51.78 0,-21.33 6.58,-38.43 19.68,-51.33 13.15,-12.86 29.76,-19.34 49.92,-19.44 20.16,0 36.44,6.53 48.8,19.53 12.81,12.96 19.24,30.05 19.24,51.24zm-39.84 -37.31c-7.6,-6.53 -17.05,-9.79 -28.26,-9.79 -11.25,0 -20.89,3.26 -28.98,9.79 -7.98,6.97 -12.66,16.02 -13.97,27.03l84.6 0c-1.32,-11 -5.79,-20.06 -13.39,-27.03z"/>
    <path class="fil1" d="M720.94 212.41c-15.81,-0.12 -26.08,-4.4 -26.62,-20.24l0 -190.64c15.02,-0.1 26.26,4.22 26.62,18.04l0 103.83 0 22.28 0 66.73z"/>
    <g>
     <path class="fil0" d="M724.91 150.9c-3.35,-3.26 -5.03,-8.72 -5.11,-14.25l-0.01 0 0 -0.23 0 -0.04 0 -0.04 0 -0.24 0 0 0.01 -0.09 0 -0.17 0.01 -0.26 0.01 -0.12 0.01 -0.15 0.01 -0.26 0.01 -0.13 0.01 -0.14 0.02 -0.26 0.01 -0.15 0.01 -0.12 0.02 -0.26 0.02 -0.16 0.01 -0.1 0.03 -0.26 0.02 -0.18 0.01 -0.09 0.04 -0.26 0.02 -0.19 0.01 -0.07 0.07 -0.46 0.01 -0.07 0.08 -0.47 0.01 -0.05 0.05 -0.26 0.01 -0.07 0.04 -0.18 0.05 -0.26 0.05 -0.23 0 -0.02 0.06 -0.25 0.06 -0.24 0.01 -0.01 0.06 -0.26 0.07 -0.25 0 -0.01 0.07 -0.24 0.07 -0.24 0.01 -0.02 0.03 -0.1 0.12 -0.37 0.01 -0.03 0.07 -0.21 0.09 -0.23 0.06 -0.19 0.02 -0.05 0.09 -0.23 0.02 -0.06 0.07 -0.18 0.09 -0.23 0.03 -0.07 0.16 -0.4 0.04 -0.08 0.07 -0.15 0.1 -0.22 0.04 -0.1 0.07 -0.13 0.1 -0.22 0.05 -0.1 0.06 -0.12 0.18 -0.33 0.05 -0.1 0.12 -0.2 0.07 -0.12 0.05 -0.09 0.2 -0.33 0.04 -0.08 0.12 -0.2 0.09 -0.13 0.04 -0.06 0.13 -0.2 0.1 -0.14 0.04 -0.05 0.14 -0.19 0.1 -0.15 0.04 -0.04 0.14 -0.18 0.12 -0.15 0.02 -0.02 0.15 -0.18 0.13 -0.16 0.02 -0.01 0.05 -0.06 0.25 -0.27 0.01 -0.01 0.16 -0.16 0.16 -0.16 68.01 -46.12c6.26,11.08 3.5,20.04 -3.89,24.56l-56.43 38.64 -2.39 -4.67 -0.03 0.03 0 0 -0.03 0.04 -0.03 0.03 0 0 -0.03 0.03 -0.03 0.04 0 0.01 -0.02 0.03 -0.03 0.04 -0.01 0 -0.02 0.03 -0.02 0.04 -0.01 0.01 -0.02 0.02 -0.02 0.04 -0.01 0.01 -0.02 0.03 -0.02 0.04 -0.01 0.01 -0.01 0.03 -0.03 0.04 0 0.01 -0.02 0.03 -0.02 0.04 0 0.01 -0.02 0.03 -0.02 0.04 0 0.01 -0.01 0.03 -0.02 0.04 -0.01 0.01 -0.01 0.03 -0.02 0.04 -0.01 0.01 -0.01 0.02 -0.02 0.04 -0.01 0.01 -0.01 0.03 -0.02 0.04 -0.01 0.01 -0.01 0.02 -0.01 0.04 -0.01 0.01 -0.01 0.03 -0.02 0.04 0 0.01 -0.01 0.02 -0.01 0.04 -0.01 0.02 -0.01 0.02 -0.01 0.04 -0.01 0.02 0 0.02 -0.01 0.04 -0.01 0.02 -0.01 0.01 -0.01 0.04 -0.01 0.02 -0.01 0.01 -0.01 0.04 -0.01 0.03 -0.01 0.01 -0.01 0.04 -0.01 0.02 -0.01 0.02 -0.01 0.04 0 0.03 -0.01 0.01 -0.01 0.04 0 0.03 -0.01 0.01 -0.01 0.04 0 0.03 -0.01 0.01 -0.01 0.07 0 0.01 -0.01 0.04 0 0.03 -0.01 0.01 0 0.04 -0.01 0.03 0 0.01 0 0c0.06,0.77 0.4,1.54 0.97,2.15l14.7 9.86 -9.52 9.86 -10.52 -7.33z"/>
     <path id="1" class="fil2" d="M719.79 133.54l3.65 3.07 0.01 0.46 0.01 0.48 0.03 0.48 0.04 0.46 0.04 0.45 0.05 0.45 0.07 0.48 0.07 0.47 0.07 0.42 0.1 0.46 0.1 0.45 0.1 0.42 0.11 0.42 0.12 0.42 0.13 0.42 0.14 0.42 0.14 0.38 0.15 0.4 0.15 0.39 0.16 0.36 0.17 0.36 0.18 0.36 0.18 0.34 0.19 0.33 0.2 0.33 0.19 0.29 0.21 0.29 0.22 0.3 0.2 0.24 0.22 0.26 0.23 0.25 0.22 0.23 -5.49 4.1 -0.4 -0.4 -0.37 -0.4 -0.37 -0.42 -0.36 -0.45 -0.32 -0.43 -0.31 -0.44 -0.31 -0.48 -0.29 -0.46 -0.28 -0.48 -0.26 -0.48 -0.24 -0.48 -0.24 -0.5 -0.22 -0.5 -0.21 -0.5 -0.2 -0.51 -0.18 -0.53 -0.17 -0.51 -0.16 -0.52 -0.16 -0.55 -0.14 -0.54 -0.13 -0.55 -0.11 -0.54 -0.11 -0.53 -0.1 -0.58 -0.08 -0.54 -0.08 -0.55 -0.07 -0.56 -0.06 -0.57 -0.04 -0.58 -0.03 -0.55 -0.03 -0.56 -0.01 -0.58 3.65 3.07 0 -6.22zm0 0l3.61 0 0.04 3.07 -3.65 -3.07zm-0.01 6.22l-3.65 -3.11 3.65 -3.11 0.01 0 0 6.22 -0.01 0zm0 0l-3.65 0 0 -3.11 3.65 3.11zm-3.65 -3.34l7.3 0 0 0.23 -7.3 0 0 -0.23zm0 -0.04l7.3 0 0 0.04 -7.3 0 0 -0.04zm0 -0.04l7.3 0 0 0.04 -7.3 0 0 -0.04zm0 -0.24l0.01 -0.22 7.29 0.22 0 0.24 -7.3 0 0 -0.24zm0 0l0 -0.13 0.01 -0.09 -0.01 0.22zm3.65 0l0 0 0 0 0 0 -3.64 -0.22 3.64 0.22zm-3.65 0l0 -0.13 0.01 -0.09 -0.01 0.22zm0.01 -0.31l7.29 0.22 -0.01 0.22 -0.01 0.09 -7.29 -0.44 0.01 -0.09zm7.29 0.22l0 0.13 -0.01 0.09 0.01 -0.22zm-7.3 -0.17l0 -0.07 7.3 0.07 0 0.17 -7.3 0 0 -0.17zm0 0l0 -0.07 0 0 0 0.07zm0.01 -0.34l0.01 -0.1 7.29 0.24 -0.01 0.26 -7.3 -0.15 0.01 -0.26zm0 0l0.01 -0.1 -0.01 0.13 0 -0.04zm0.01 -0.21l7.29 0.29 -0.01 0.04 -0.01 0.12 -7.29 -0.34 0.01 -0.12zm7.29 0.29l-0.01 0.04 0.02 -0.35 -0.01 0.31zm-7.29 -0.4l7.3 0.2 0 0.05 -0.01 0.15 -7.3 -0.25 0.01 -0.15zm7.3 0.2l0 0.12 0 -0.07 0 -0.05zm-7.29 -0.41l0.01 -0.07 7.29 0.22 -0.01 0.26 -7.3 -0.15 0.01 -0.26zm0 0l0.01 -0.07 -0.01 0.19 0 -0.12zm0.01 -0.2l7.29 0.29 0 0.01 -0.01 0.13 -7.29 -0.29 0.01 -0.13zm7.29 0.29l0 0.01 -0.01 0.13 0.01 -0.14zm-7.28 -0.42l0 -0.08 7.29 0.36 -0.01 0.14 -7.29 -0.28 0.01 -0.14zm0 0l0 -0.08 0.01 -0.14 -0.01 0.22zm0.02 -0.34l7.29 0.35 0 0.09 -0.02 0.26 -7.29 -0.44 0.02 -0.26zm7.29 0.35l0 0.09 -0.01 0.13 0.01 -0.22zm-7.28 -0.41l0 -0.02 7.29 0.29 -0.01 0.15 -7.29 -0.26 0.01 -0.15zm0 0l0 -0.02 0.01 -0.12 -0.01 0.15zm0.01 -0.15l0 -0.07 7.29 0.37 -0.01 0.12 -7.29 -0.31 0.01 -0.12zm0 0l0 -0.07 0.01 -0.16 -0.01 0.23zm0.02 -0.33l0.01 -0.14 7.27 0.58 -0.02 0.26 -7.29 -0.44 0.02 -0.26zm0 0l0.01 -0.08 0.01 -0.06 -0.01 0.14zm0.04 -0.3l7.27 0.55 -0.01 0.17 -0.02 0.16 -7.26 -0.72 0.02 -0.16zm7.27 0.55l-0.01 0.13 -0.01 0.04 0.01 -0.17zm-7.28 -0.48l0.01 -0.1 7.28 0.48 -0.01 0.1 -7.29 -0.38 0.01 -0.1zm0 0l0.01 -0.1 0 0 -0.01 0.1zm0.04 -0.37l0.01 -0.04 7.27 0.62 -0.03 0.26 -7.27 -0.59 0.03 -0.26zm0 0l0.01 -0.04 -0.03 0.23 0.02 -0.2zm0.03 -0.21l7.27 0.55 -0.01 0.11 -0.02 0.18 -7.26 -0.66 0.02 -0.18zm7.27 0.55l-0.01 0.11 0.01 -0.13 0 0.02zm-7.28 -0.53l0.02 -0.15 7.27 0.59 -0.01 0.09 -7.29 -0.44 0.01 -0.09zm0 0l0.02 -0.15 -0.02 0.18 0 -0.03zm0.06 -0.41l7.26 0.67 -0.01 0.07 -0.04 0.26 -7.24 -0.73 0.04 -0.26zm7.26 0.67l-0.01 0.07 0.04 -0.3 -0.03 0.23zm-7.25 -0.79l7.27 0.56 0 0.04 -0.02 0.19 -7.27 -0.6 0.02 -0.19zm7.27 0.56l0 0.04 -0.03 0.24 0.03 -0.28zm-7.27 -0.6l0.02 -0.15 7.25 0.68 -0.01 0.07 -7.27 -0.53 0.01 -0.07zm0 0l0.02 -0.15 -0.01 0.11 -0.01 0.04zm0.1 -0.61l7.25 0.71 -0.02 0.12 -0.07 0.46 -7.23 -0.83 0.07 -0.46zm7.25 0.71l-0.02 0.12 0.03 -0.17 -0.01 0.04zm-7.27 -0.65l0.02 -0.15 7.25 0.74 -0.01 0.07 -7.27 -0.59 0.01 -0.07zm0 0l0.01 -0.07 0.01 -0.08 -0.02 0.15zm0.1 -0.62l7.24 0.82 -0.01 0.07 -0.08 0.47 -7.23 -0.89 0.08 -0.47zm7.24 0.82l-0.01 0.07 -0.02 0.11 0.03 -0.18zm-7.24 -0.8l0.02 -0.15 7.22 0.89 -0.01 0.05 -7.24 -0.75 0.01 -0.05zm0 0l0.02 -0.15 0 0.01 -0.02 0.13zm0.07 -0.4l0.01 -0.06 7.18 1.1 -0.05 0.26 -7.2 -1.04 0.05 -0.26zm0 0l0.01 -0.06 -0.03 0.13 0.01 -0.07zm0.03 -0.12l7.18 1.1 -0.01 0.06 -0.01 0.07 -7.17 -1.16 0.01 -0.07zm7.18 1.1l-0.01 0.06 0.03 -0.13 -0.01 0.07zm-7.16 -1.22l7.2 1.02 0 0.01 -0.04 0.18 -7.2 -1.04 0.04 -0.18zm7.2 1.02l0 0.01 -0.1 0.51 0.1 -0.53zm-7.15 -1.27l0.01 -0.07 7.18 1.08 -0.05 0.26 -7.2 -1.01 0.05 -0.26zm0 0l0.01 -0.07 -0.01 0.07 0 -0.01zm0.07 -0.3l7.24 0.57 -0.07 0.57 -0.05 0.23 -7.17 -1.14 0.05 -0.23zm7.24 0.57l0 0.27 -0.07 0.3 0.07 -0.57zm-7.3 -0.02l0.07 -0.61 7.23 0.61 0 0.02 -7.3 0 0 -0.02zm0 0l0 -0.3 0.07 -0.31 -0.07 0.61zm0.13 -0.86l0 -0.02 7.16 1.24 -0.06 0.25 -7.16 -1.21 0.06 -0.25zm0 0l0 -0.02 0.18 -0.72 -0.18 0.75zm0.06 -0.26l0.8 -1.38 6.36 2.64 -0.06 0.24 -7.16 -1.26 0.06 -0.24zm0 0l0.19 -0.78 0.61 -0.61 -0.8 1.38zm0.8 -1.39l6.37 2.6 -0.8 1.42 -0.01 0.01 -5.56 -4.02 0.01 -0.01zm6.37 2.6l-0.18 0.8 -0.62 0.62 0.8 -1.42zm-7.11 -1.44l0.02 -0.09 7.15 1.27 -0.06 0.26 -7.17 -1.19 0.06 -0.26zm0 0l0.01 -0.04 0.01 -0.05 -0.02 0.09zm0.09 -0.34l7.21 0.68 -0.09 0.68 -0.07 0.25 -7.13 -1.36 0.07 -0.25zm7.21 0.68l0 0.35 -0.09 0.33 0.09 -0.68zm-7.3 -0.01l0.1 -0.7 7.21 0.7 0 0.01 -7.3 0 0 -0.01zm0 0l0 -0.35 0.1 -0.35 -0.1 0.7zm0.16 -0.94l0.02 -0.07 7.09 1.48 -0.07 0.24 -7.11 -1.4 0.07 -0.24zm0 0l0 -0.01 0.02 -0.07 -0.02 0.07zm0.1 -0.31l0.02 -0.07 7.05 1.62 -0.07 0.24 -7.07 -1.55 0.07 -0.24zm0 0l0.02 -0.08 0 0.01 -0.02 0.07zm0.03 -0.1l7.06 1.58 -0.04 0.12 -0.01 0.02 -7.02 -1.7 0.01 -0.02zm7.06 1.58l-0.01 0.05 -0.02 0.07 0.04 -0.12zm-7.07 -1.57l0.03 -0.09 7.07 1.55 -0.03 0.1 -7.1 -1.46 0.03 -0.1zm0 0l0.03 -0.09 -0.04 0.12 0.01 -0.04zm0.15 -0.45l7.09 1.46 -0.05 0.18 -0.12 0.37 -7.04 -1.64 0.12 -0.37zm7.09 1.46l-0.01 0.07 -0.04 0.1 0.05 -0.18zm-7.13 -1.32l0.04 -0.15 7.1 1.43 -0.01 0.03 -7.14 -1.29 0.01 -0.03zm0 0l0.04 -0.15 -0.04 0.12 -0.01 0.02zm0.11 -0.36l0.05 -0.15 7 1.73 -0.07 0.21 -7.05 -1.58 0.07 -0.21zm0 0l0.03 -0.1 0.02 -0.05 -0.05 0.15zm0.14 -0.39l7.01 1.73 -0.06 0.15 -0.09 0.23 -6.95 -1.89 0.09 -0.23zm7.01 1.73l0.01 -0.01 -0.07 0.17 0.06 -0.15zm-7.01 -1.77l0.1 -0.27 6.97 1.85 -0.06 0.19 -7.07 -1.58 0.06 -0.19zm0 0l0.04 -0.11 0.07 -0.16 -0.1 0.27zm0.12 -0.32l6.91 2 -0.04 0.12 -0.02 0.05 -6.86 -2.12 0.02 -0.05zm6.91 2l-0.04 0.12 0 0 0.04 -0.12zm-6.86 -2.12l6.95 1.89 -0.09 0.23 -6.95 -1.89 0.09 -0.23zm0.02 -0.06l6.95 1.89 -0.02 0.06 -6.95 -1.89 0.02 -0.06zm0.07 -0.18l6.95 1.89 -0.07 0.18 -6.95 -1.89 0.07 -0.18zm0.09 -0.23l0.06 -0.15 6.89 2.04 -0.09 0.23 -6.95 -1.89 0.09 -0.23zm0 0l0.05 -0.14 0.01 -0.01 -0.06 0.15zm0.09 -0.22l6.86 2.11 -0.03 0.08 -0.03 0.07 -6.83 -2.19 0.03 -0.07zm6.86 2.11l-0.03 0.08 -0.04 0.1 0.07 -0.18zm-6.73 -2.43l0.04 -0.1 6.85 2.14 -0.16 0.4 -6.89 -2.03 0.16 -0.4zm0 0l0.02 -0.06 0.02 -0.04 -0.04 0.1zm0.08 -0.18l6.81 2.23 -0.01 0.01 -0.04 0.08 -6.8 -2.24 0.04 -0.08zm6.81 2.23l-0.01 0.01 0.4 -0.89 -0.4 0.88zm-6.75 -2.37l0.01 -0.04 6.8 2.26 -0.07 0.15 -6.82 -2.22 0.07 -0.15zm0 0l0.01 -0.04 0.05 -0.11 -0.07 0.15zm0.12 -0.26l6.86 2.11 -0.07 0.18 -0.1 0.22 -6.79 -2.3 0.1 -0.22zm6.86 2.11l-0.06 0.15 -0.01 0.04 0.07 -0.18zm-6.9 -2.03l0.11 -0.25 6.83 2.18 -0.04 0.1 -6.94 -1.93 0.04 -0.1zm0 0l0.05 -0.12 0.06 -0.12 -0.11 0.25zm0.18 -0.38l6.75 2.36 -0.04 0.07 -0.07 0.13 -6.72 -2.43 0.07 -0.13zm6.75 2.36l-0.04 0.07 0.09 -0.18 -0.05 0.11zm-6.69 -2.52l0.07 -0.15 6.72 2.44 -0.1 0.22 -6.79 -2.3 0.1 -0.22zm0 0l0.04 -0.08 0.04 -0.07 -0.07 0.15zm0.12 -0.24l6.68 2.51 -0.04 0.08 -0.05 0.1 -6.64 -2.59 0.05 -0.1zm6.68 2.51l-0.04 0.08 -0.05 0.1 0.09 -0.18zm-6.66 -2.55l0.04 -0.07 6.68 2.49 -0.06 0.12 -6.72 -2.43 0.06 -0.12zm0 0l0.04 -0.07 -0.06 0.11 0.02 -0.04zm0.21 -0.4l6.68 2.49 -0.04 0.07 -0.18 0.33 -6.64 -2.56 0.18 -0.33zm6.68 2.49l-0.04 0.07 0.06 -0.11 -0.02 0.04zm-6.67 -2.53l0.07 -0.15 6.64 2.58 -0.05 0.1 -6.72 -2.43 0.05 -0.1zm0 0l0.07 -0.15 0 0 -0.07 0.15zm0.19 -0.35l6.61 2.63 -0.04 0.09 -0.12 0.2 -6.57 -2.72 0.12 -0.2zm6.61 2.63l-0.04 0.09 -0.04 0.06 0.08 -0.15zm-6.59 -2.67l0.06 -0.11 6.6 2.66 -0.07 0.12 -6.66 -2.55 0.07 -0.12zm0 0l0.05 -0.1 0.01 -0.01 -0.06 0.11zm0.11 -0.2l0.04 -0.07 6.5 2.84 -0.05 0.09 -6.54 -2.77 0.05 -0.09zm0 0l0.02 -0.04 0.02 -0.03 -0.04 0.07zm0.25 -0.4l6.54 2.77 -0.09 0.15 -0.2 0.33 -6.45 -2.91 0.2 -0.33zm6.54 2.77l-0.02 0.04 -0.07 0.1 0.09 -0.15zm-6.58 -2.7l0.1 -0.16 6.53 2.78 -0.04 0.08 -6.63 -2.62 0.04 -0.08zm0 0l0.1 -0.16 -0.05 0.09 -0.04 0.07zm0.22 -0.36l0.04 -0.06 6.39 3 -0.12 0.2 -6.44 -2.94 0.12 -0.2zm0 0l0.04 -0.06 -0.12 0.19 0.08 -0.13zm0.13 -0.19l0.1 -0.14 6.26 3.2 -0.09 0.13 -6.35 -3.06 0.09 -0.13zm0 0l0.07 -0.11 0.02 -0.03 -0.1 0.14zm0.14 -0.2l6.26 3.2 -0.1 0.14 -0.04 0.06 -6.16 -3.34 0.04 -0.06zm6.26 3.2l-0.07 0.11 -0.02 0.03 0.1 -0.14zm-6.22 -3.26l0.08 -0.12 6.27 3.18 -0.13 0.2 -6.35 -3.06 0.13 -0.2zm0 0l0.08 -0.12 0.03 -0.04 -0.11 0.16zm0.18 -0.26l6.21 3.27 -0.02 0.04 -0.1 0.14 -6.19 -3.31 0.1 -0.14zm6.21 3.27l-0.02 0.04 -0.14 0.18 0.16 -0.22zm-6.2 -3.29l0.01 -0.02 6.22 3.26 -0.04 0.05 -6.23 -3.23 0.04 -0.05zm0 0l0.06 -0.09 -0.04 0.07 -0.01 0.02zm0.15 -0.21l6.24 3.23 -0.04 0.05 -0.14 0.19 -6.2 -3.28 0.14 -0.19zm6.24 3.23l-0.04 0.05 0.01 -0.02 0.02 -0.03zm-6.18 -3.32l0.36 -0.42 5.92 3.6 -0.1 0.15 -6.28 -3.18 0.1 -0.15zm0 0l0.15 -0.22 0.2 -0.2 -0.36 0.42zm0.4 -0.46l5.85 3.7 -0.29 0.32 -0.04 0.04 -5.56 -4.02 0.04 -0.04zm5.85 3.7l-0.12 0.15 -0.17 0.17 0.29 -0.32zm-5.99 -3.56l0.06 -0.07 6.07 3.45 -0.14 0.18 -6.13 -3.38 0.14 -0.18zm0 0l0.01 -0.01 0.05 -0.06 -0.06 0.07zm0.18 -0.23l0.23 -0.25 5.79 3.78 -0.12 0.15 -6.01 -3.53 0.12 -0.15zm0 0l0.1 -0.12 0.13 -0.13 -0.23 0.25zm0.25 -0.27l5.76 3.81 -0.2 0.21 -0.02 0.02 -5.56 -4.02 0.02 -0.02zm5.76 3.81l-0.07 0.09 -0.12 0.12 0.2 -0.21zm-5.81 -3.78l5.97 3.58 -0.01 0.02 -0.15 0.18 -5.96 -3.6 0.15 -0.18zm5.97 3.58l-0.01 0.02 -0.18 0.22 0.2 -0.24zm-5.85 -3.72l0.74 -0.67 5.25 4.22 -0.13 0.16 -5.98 -3.56 0.13 -0.16zm0 0l0.31 -0.38 0.42 -0.29 -0.74 0.67zm0.76 -0.68l5.18 4.3 -0.67 0.59 -0.02 0.01 -4.51 -4.89 0.02 -0.01zm5.18 4.3l-0.29 0.33 -0.39 0.26 0.67 -0.59zm-5.8 -3.78l0.05 -0.06 5.8 3.78 -0.05 0.06 -5.85 -3.72 0.05 -0.06zm0 0l0.05 -0.06 0 0 -0.05 0.06zm0.3 -0.33l0.1 -0.1 5.66 3.93 -0.25 0.27 -5.75 -3.83 0.25 -0.27zm0 0l0 0 0.1 -0.1 -0.1 0.1zm0.1 -0.1l5.56 4.02 -0.01 0.01 -5.56 -4.02 0.01 -0.01zm0.16 -0.16l5.56 4.02 -0.16 0.16 -5.56 -4.02 0.16 -0.16zm0.16 -0.16l0.5 -0.42 5.06 4.44 -0.16 0.16 -5.56 -4.02 0.16 -0.16zm0 0l0.23 -0.23 0.27 -0.18 -0.5 0.42zm68.52 -46.53l5.57 1.08 -1.02 3.78 -68.01 46.12 -4.55 -4.86 68.01 -46.12zm0 0l3.59 -2.43 1.98 3.51 -5.57 -1.08zm-3.9 24.57l0.16 -0.1 0.54 -0.34 0.51 -0.37 0.49 -0.39 0.48 -0.41 0.44 -0.42 0.42 -0.44 0.39 -0.45 0.37 -0.48 0.35 -0.5 0.31 -0.5 0.29 -0.54 0.26 -0.54 0.23 -0.58 0.21 -0.61 0.17 -0.61 0.15 -0.64 0.12 -0.66 0.08 -0.67 0.04 -0.7 0.01 -0.72 -0.02 -0.75 -0.07 -0.75 -0.1 -0.77 -0.15 -0.8 -0.19 -0.82 -0.23 -0.83 -0.27 -0.86 -0.32 -0.89 -0.36 -0.89 -0.42 -0.91 -0.46 -0.94 -0.52 -0.94 6.58 -2.69 0.61 1.12 0.55 1.11 0.5 1.1 0.45 1.1 0.4 1.08 0.34 1.06 0.29 1.07 0.23 1.05 0.19 1.02 0.15 1.03 0.08 1.02 0.04 0.99 -0.01 0.98 -0.07 0.97 -0.11 0.96 -0.16 0.94 -0.2 0.91 -0.26 0.9 -0.3 0.87 -0.34 0.86 -0.4 0.85 -0.44 0.8 -0.48 0.8 -0.53 0.76 -0.56 0.73 -0.62 0.72 -0.64 0.67 -0.69 0.65 -0.71 0.61 -0.75 0.59 -0.79 0.56 -0.82 0.53 0.16 -0.1 -4.58 -4.84zm0 0l0.05 -0.04 0.11 -0.07 -0.16 0.1zm-51.85 43.48l-5.64 -1.19 1.06 -3.66 56.43 -38.64 4.58 4.84 -56.43 38.64zm0 0l-3.73 2.55 -1.91 -3.74 5.64 1.19zm-8.03 -5.85l0.57 -3.25 6.13 0.78 2.39 4.67 -6.7 2.47 -2.39 -4.67zm0.57 -3.25l3.8 -3.8 2.33 4.57 -6.13 -0.78zm5.53 4.05l-5.79 -3.76 0.23 -0.26 0.03 -0.03 5.56 4.02 -0.03 0.03zm-5.79 -3.76l0.12 -0.15 0.12 -0.12 -0.23 0.26zm3.01 1.75l0 0 0 0 0 0 3.01 1.75 -3.01 -1.75zm-3.01 -1.75l0.12 -0.15 0.12 -0.12 -0.23 0.26zm6 3.53l-0.23 0.26 -5.79 -3.76 0.03 -0.04 6.03 3.5 -0.03 0.04zm0 0l-0.12 0.15 -0.12 0.12 0.23 -0.26zm-0.26 0.29l-5.56 -4.02 0.03 -0.03 5.56 4.02 -0.03 0.03zm-2.78 -2.01l0 0 0 0 0 0 2.78 2.01 -2.78 -2.01zm2.75 2.04l-5.79 -3.76 0.23 -0.26 0.03 -0.03 5.56 4.02 -0.03 0.03zm-5.79 -3.76l0.12 -0.15 0.12 -0.12 -0.23 0.26zm6 3.53l-6.67 -1.75 0.64 -1.75 0.03 -0.04 6.03 3.5 -0.03 0.04zm-6.67 -1.75l0 -0.95 0.64 -0.8 -0.64 1.75zm7.3 0.01l-0.57 1.67 -6.73 -1.67 0 -0.01 7.3 0 0 0.01zm0 0l0 0.91 -0.57 0.76 0.57 -1.67zm-0.59 1.7l-0.07 0.08 -6.09 -3.42 0.02 -0.03 6.16 3.34 -0.02 0.03zm0 0l-0.07 0.08 0.09 -0.11 -0.02 0.03zm-0.1 0.12l-3.01 1.36 -3.01 -4.86 0.03 -0.04 6.03 3.5 -0.03 0.04zm0 0l-1.09 1.36 -1.92 0 3.01 -1.36zm-3.02 1.36l-3.08 -4.78 3.08 -1.44 0.01 0 0 6.22 -0.01 0zm-3.08 -4.78l1.08 -1.44 2 0 -3.08 1.44zm6.14 3.37l-6.33 -3.08 0.17 -0.26 0.02 -0.03 6.16 3.34 -0.02 0.03zm-6.33 -3.08l0.1 -0.16 0.07 -0.1 -0.17 0.26zm6.48 2.86l-0.47 0.6 -6.03 -3.42 0.02 -0.04 6.5 2.82 -0.02 0.04zm0 0l-0.2 0.33 -0.27 0.27 0.47 -0.6zm-0.48 0.61l-5.56 -4.02 0.01 -0.01 5.56 4.02 -0.01 0.01zm-0.02 0.02l-6.03 -3.42 0.47 -0.6 0.02 -0.02 5.56 4.02 -0.02 0.02zm-6.03 -3.42l0.2 -0.33 0.27 -0.27 -0.47 0.6zm6.48 2.86l-0.47 0.6 -6.03 -3.42 0.02 -0.04 6.5 2.82 -0.02 0.04zm0 0l-0.2 0.33 -0.27 0.27 0.47 -0.6zm-0.48 0.61l-5.86 -3.68 0.3 -0.34 0.01 -0.01 5.56 4.02 -0.01 0.01zm-5.86 -3.68l0.13 -0.18 0.17 -0.17 -0.3 0.34zm6.14 3.37l-6.33 -3.08 0.17 -0.26 0.02 -0.03 6.16 3.34 -0.02 0.03zm-6.33 -3.08l0.1 -0.16 0.07 -0.1 -0.17 0.26zm6.48 2.86l-0.47 0.6 -6.03 -3.42 0.02 -0.04 6.5 2.82 -0.02 0.04zm0 0l-0.2 0.33 -0.27 0.27 0.47 -0.6zm-0.48 0.61l-6.14 -3.23 0.58 -0.8 0.01 -0.01 5.56 4.02 -0.01 0.01zm-6.14 -3.23l0.22 -0.44 0.36 -0.36 -0.58 0.8zm6.7 2.46l-0.34 0.53 -6.37 -2.96 0.01 -0.03 6.72 2.43 -0.01 0.03zm0 0l-0.14 0.28 -0.2 0.26 0.34 -0.53zm-0.37 0.57l-6.67 -1.75 0.64 -1.75 0.03 -0.04 6.03 3.5 -0.03 0.04zm-6.67 -1.75l0 -0.95 0.64 -0.8 -0.64 1.75zm7.3 0.01l-0.57 1.67 -6.73 -1.67 0 -0.01 7.3 0 0 0.01zm0 0l0 0.91 -0.57 0.76 0.57 -1.67zm-0.59 1.7l-6.33 -3.08 0.17 -0.26 0.02 -0.03 6.16 3.34 -0.02 0.03zm-6.33 -3.08l0.1 -0.16 0.07 -0.1 -0.17 0.26zm6.48 2.86l-6.9 -1.41 0.4 -1.41 0.02 -0.04 6.5 2.82 -0.02 0.04zm-6.9 -1.41l0 -0.74 0.4 -0.67 -0.4 1.41zm7.3 0.01l-0.57 1.67 -6.73 -1.67 0 -0.01 7.3 0 0 0.01zm0 0l0 0.91 -0.57 0.76 0.57 -1.67zm-0.59 1.7l-6.33 -3.08 0.17 -0.26 0.02 -0.03 6.16 3.34 -0.02 0.03zm-6.33 -3.08l0.1 -0.16 0.07 -0.1 -0.17 0.26zm6.48 2.86l-6.9 -1.41 0.4 -1.41 0.02 -0.04 6.5 2.82 -0.02 0.04zm-6.9 -1.41l0 -0.74 0.4 -0.67 -0.4 1.41zm7.3 0.01l-0.29 1.21 -7.01 -1.21 0 -0.01 7.3 0 0 0.01zm0 0l0 0.63 -0.29 0.59 0.29 -1.21zm-0.31 1.24l-0.11 0.2 -6.61 -2.63 0.01 -0.03 6.72 2.43 -0.01 0.03zm0 0l-0.04 0.09 -0.07 0.11 0.11 -0.2zm-0.13 0.23l-0.47 0.6 -6.03 -3.42 0.02 -0.04 6.5 2.82 -0.02 0.04zm0 0l-0.2 0.33 -0.27 0.27 0.47 -0.6zm-0.48 0.61l-6.14 -3.23 0.58 -0.8 0.01 -0.01 5.56 4.02 -0.01 0.01zm-6.14 -3.23l0.22 -0.44 0.36 -0.36 -0.58 0.8zm6.7 2.46l-0.11 0.2 -6.61 -2.63 0.01 -0.03 6.72 2.43 -0.01 0.03zm0 0l-0.04 0.09 -0.07 0.11 0.11 -0.2zm-0.13 0.23l-6.61 -2.63 0.11 -0.2 0.02 -0.04 6.5 2.82 -0.02 0.04zm-6.61 -2.63l0.04 -0.09 0.07 -0.11 -0.11 0.2zm6.71 2.44l-6.87 -2.06 0.15 -0.37 0.01 -0.01 6.72 2.43 -0.01 0.01zm-6.87 -2.06l0.06 -0.18 0.1 -0.19 -0.15 0.37zm7.02 1.72l-0.26 0.56 -6.76 -2.26 0.01 -0.02 7.02 1.7 -0.01 0.02zm0 0l-0.1 0.28 -0.17 0.29 0.26 -0.56zm-0.29 0.6l-6.61 -2.63 0.11 -0.2 0.02 -0.04 6.5 2.82 -0.02 0.04zm-6.61 -2.63l0.04 -0.09 0.07 -0.11 -0.11 0.2zm6.71 2.44l-6.93 -1.86 0.21 -0.57 0.01 -0.01 6.72 2.43 -0.01 0.01zm-6.93 -1.86l0.07 -0.29 0.14 -0.28 -0.21 0.57zm7.13 1.32l-0.32 0.77 -6.82 -2.06 0.01 -0.03 7.14 1.29 -0.01 0.03zm0 0l-0.1 0.4 -0.22 0.37 0.32 -0.77zm-0.34 0.8l-6.61 -2.63 0.11 -0.2 0.02 -0.04 6.5 2.82 -0.02 0.04zm-6.61 -2.63l0.04 -0.09 0.07 -0.11 -0.11 0.2zm6.71 2.44l-6.87 -2.06 0.15 -0.37 0.01 -0.01 6.72 2.43 -0.01 0.01zm-6.87 -2.06l0.06 -0.18 0.1 -0.19 -0.15 0.37zm7.02 1.72l-0.06 0.15 -6.97 -1.85 0.01 -0.02 7.02 1.7 -0.01 0.02zm0 0l-0.01 0.04 -0.04 0.11 0.06 -0.15zm-0.07 0.19l-0.1 0.21 -6.81 -2.22 0.01 -0.04 6.91 2 -0.01 0.04zm0 0l-0.04 0.11 -0.05 0.1 0.1 -0.21zm-0.1 0.23l-6.93 -1.86 0.21 -0.57 0.01 -0.01 6.72 2.43 -0.01 0.01zm-6.93 -1.86l0.07 -0.29 0.14 -0.28 -0.21 0.57zm7.13 1.32l-0.32 0.77 -6.82 -2.06 0.01 -0.03 7.14 1.29 -0.01 0.03zm0 0l-0.1 0.4 -0.22 0.37 0.32 -0.77zm-0.34 0.8l-6.9 -1.41 0.4 -1.41 0.02 -0.04 6.5 2.82 -0.02 0.04zm-6.9 -1.41l0 -0.74 0.4 -0.67 -0.4 1.41zm7.3 0.01l-0.48 1.53 -6.83 -1.53 0 -0.01 7.3 0 0 0.01zm0 0l0 0.82 -0.48 0.71 0.48 -1.53zm-0.49 1.55l-6.63 -2.53 0.28 -0.53 0.01 -0.02 6.35 3.06 -0.01 0.02zm-6.63 -2.53l0.11 -0.28 0.17 -0.25 -0.28 0.53zm6.89 2.04l-6.97 -1.85 0.06 -0.15 0.01 -0.04 6.91 2 -0.01 0.04zm-6.97 -1.85l0.01 -0.04 0.04 -0.11 -0.06 0.15zm7.02 1.72l-7.02 -1.7 0.01 -0.02 7.02 1.7 -0.01 0.02zm-0.01 0.02l-0.06 0.15 -6.97 -1.85 0.01 -0.02 7.02 1.7 -0.01 0.02zm0 0l-0.01 0.04 -0.04 0.11 0.06 -0.15zm-0.07 0.19l-6.97 -1.85 0.06 -0.15 0.01 -0.04 6.91 2 -0.01 0.04zm-6.97 -1.85l0.01 -0.04 0.04 -0.11 -0.06 0.15zm7.02 1.72l-7.16 -0.85 0.14 -0.85 0.01 -0.02 7.02 1.7 -0.01 0.02zm-7.16 -0.85l0 -0.43 0.14 -0.42 -0.14 0.85zm7.3 0.02l-0.2 1 -7.1 -1 0 -0.02 7.3 0 0 0.02zm0 0l0 0.51 -0.2 0.49 0.2 -1zm-0.21 1.04l-6.97 -1.85 0.06 -0.15 0.01 -0.04 6.91 2 -0.01 0.04zm-6.97 -1.85l0.01 -0.04 0.04 -0.11 -0.06 0.15zm7.02 1.72l-0.15 0.37 -6.87 -2.06 0.01 -0.02 7.02 1.7 -0.01 0.02zm0 0l-0.06 0.18 -0.1 0.19 0.15 -0.37zm-0.16 0.38l-6.97 -1.65 0.26 -0.78 0.01 -0.01 6.72 2.43 -0.01 0.01zm-6.97 -1.65l0.07 -0.4 0.19 -0.38 -0.26 0.78zm7.22 0.92l-0.1 0.41 -7.13 -1.29 0.01 -0.04 7.23 0.88 -0.01 0.04zm0 0l-0.04 0.2 -0.07 0.2 0.1 -0.41zm-0.11 0.43l-0.15 0.37 -6.87 -2.06 0.01 -0.02 7.02 1.7 -0.01 0.02zm0 0l-0.06 0.18 -0.1 0.19 0.15 -0.37zm-0.16 0.38l-6.96 -1.73 0.24 -0.7 0.01 -0.01 6.72 2.43 -0.01 0.01zm-6.96 -1.73l0.07 -0.35 0.17 -0.34 -0.24 0.7zm7.19 1.08l-0.03 0.12 -7.17 -1.16 0.01 -0.04 7.2 1.04 -0.01 0.04zm0 0l-0.01 0.04 -0.02 0.09 0.03 -0.12zm-0.04 0.15l-0.21 0.57 -6.93 -1.86 0.01 -0.03 7.14 1.29 -0.01 0.03zm0 0l-0.07 0.29 -0.14 0.28 0.21 -0.57zm-0.22 0.59l-6.96 -1.73 0.24 -0.7 0.01 -0.01 6.72 2.43 -0.01 0.01zm-6.96 -1.73l0.07 -0.35 0.17 -0.34 -0.24 0.7zm7.19 1.08l-0.09 0.33 -7.11 -1.37 0.01 -0.04 7.2 1.04 -0.01 0.04zm0 0l-0.04 0.17 -0.05 0.16 0.09 -0.33zm-0.1 0.35l-7.02 -1.7 0.01 -0.02 7.02 1.7 -0.01 0.02zm-0.01 0.02l-7.11 -1.37 0.09 -0.33 0.01 -0.02 7.02 1.7 -0.01 0.02zm-7.11 -1.37l0.04 -0.17 0.05 -0.16 -0.09 0.33zm7.19 1.08l-7.25 -0.52 0.05 -0.52 0.01 -0.04 7.2 1.04 -0.01 0.04zm-7.25 -0.52l0 -0.26 0.05 -0.26 -0.05 0.52zm7.3 0.03l-0.29 1.21 -7.01 -1.21 0 -0.03 7.3 0 0 0.03zm0 0l0 0.63 -0.29 0.59 0.29 -1.21zm-0.3 1.23l-6.96 -1.73 0.24 -0.7 0.01 -0.01 6.72 2.43 -0.01 0.01zm-6.96 -1.73l0.07 -0.35 0.17 -0.34 -0.24 0.7zm7.19 1.08l-7.25 -0.52 0.05 -0.52 0.01 -0.04 7.2 1.04 -0.01 0.04zm-7.25 -0.52l0 -0.26 0.05 -0.26 -0.05 0.52zm7.3 0.03l-0.29 1.21 -7.01 -1.21 0 -0.03 7.3 0 0 0.03zm0 0l0 0.63 -0.29 0.59 0.29 -1.21zm-0.3 1.23l-6.96 -1.73 0.24 -0.7 0.01 -0.01 6.72 2.43 -0.01 0.01zm-6.96 -1.73l0.07 -0.35 0.17 -0.34 -0.24 0.7zm7.19 1.08l-7.25 -0.52 0.05 -0.52 0.01 -0.04 7.2 1.04 -0.01 0.04zm-7.25 -0.52l0 -0.26 0.05 -0.26 -0.05 0.52zm7.3 0.03l-0.29 1.21 -7.01 -1.21 0 -0.03 7.3 0 0 0.03zm0 0l0 0.63 -0.29 0.59 0.29 -1.21zm-0.3 1.23l-6.99 -1.51 0.28 -0.92 0.01 -0.01 6.72 2.43 -0.01 0.01zm-6.99 -1.51l0.05 -0.47 0.23 -0.45 -0.28 0.92zm7.27 0.65l-7.29 -0.29 0.01 -0.29 0.01 -0.07 7.27 0.59 -0.01 0.07zm-7.29 -0.29l0 -0.16 0.01 -0.13 -0.01 0.29zm7.3 0.01l-0.05 0.52 -7.25 -0.52 0 -0.01 7.3 0 0 0.01zm0 0l0 0.26 -0.05 0.26 0.05 -0.52zm-0.06 0.56l-7.25 -0.52 0.05 -0.52 0.01 -0.04 7.2 1.04 -0.01 0.04zm-7.25 -0.52l0 -0.26 0.05 -0.26 -0.05 0.52zm7.3 0.03l-0.29 1.21 -7.01 -1.21 0 -0.03 7.3 0 0 0.03zm0 0l0 0.63 -0.29 0.59 0.29 -1.21zm-0.3 1.23l-7.01 -1.21 0.29 -1.21 0.01 -0.01 6.72 2.43 -0.01 0.01zm-7.01 -1.21l0 -0.63 0.29 -0.59 -0.29 1.21zm7.3 0.04l-0.08 0.64 -7.22 -0.64 0 -0.04 7.3 0 0 0.04zm0 0l0 0.32 -0.08 0.32 0.08 -0.64zm-0.09 0.67l-7.22 -0.64 0.08 -0.64 0.01 -0.03 7.14 1.29 -0.01 0.03zm-7.22 -0.64l0 -0.32 0.08 -0.32 -0.08 0.64zm7.3 0.01l-7.29 0.2 -0.01 -0.2 0 -0.01 7.3 0 0 0.01zm-7.29 0.2l-0.01 -0.1 0 -0.1 0.01 0.2zm3.64 -0.2l0 0 0 0 0 0 3.64 -0.2 -3.64 0.2zm-3.64 0.2l-0.01 -0.1 0 -0.1 0.01 0.2zm2.36 4.39l-0.58 -0.48 -0.14 -0.15 -0.05 -0.06 -0.05 -0.06 -0.05 -0.06 -0.18 -0.22 -0.16 -0.23 0 0.01 -0.04 -0.06 -0.15 -0.23 -0.04 -0.07 -0.04 -0.07 -0.1 -0.18 -0.1 -0.18 -0.03 -0.07 -0.07 -0.12 -0.08 -0.19 -0.03 -0.07 -0.03 -0.07 -0.07 -0.18 -0.07 -0.2 0.02 0.06 -0.08 -0.23 -0.04 -0.16 -0.02 -0.07 -0.02 -0.11 -0.05 -0.2 -0.03 -0.2 0.01 0.08 -0.04 -0.2 -0.03 -0.23 -0.01 -0.07 -0.01 -0.14 7.29 -0.4 0 0.01 0.01 0.07 -0.01 -0.08 -0.01 -0.07 0.04 0.23 -0.01 -0.05 -0.01 -0.05 0.01 0.04 0.02 0.07 -0.01 -0.01 -0.02 -0.09 0.07 0.19 -0.02 -0.05 -0.01 -0.05 0.03 0.07 0.03 0.07 -0.02 -0.04 0.01 0.01 0.03 0.07 -0.02 -0.04 -0.02 -0.04 0.04 0.07 0.04 0.07 -0.07 -0.1 0.04 0.06 0.09 0.14 -0.07 -0.1 -0.08 -0.1 0.05 0.06 0.05 0.06 0.05 0.06 -0.04 -0.04 -0.58 -0.48 -4.52 4.87zm0 0l-0.33 -0.22 -0.25 -0.26 0.58 0.48zm19.22 4.98l0.56 4.41 -5.08 0.46 -14.7 -9.86 4.52 -4.87 14.7 9.86zm0 0l2.93 1.96 -2.37 2.45 -0.56 -4.41zm-8.96 14.27l-5.13 0.42 -0.5 -4.38 9.52 -9.86 5.63 3.95 -9.52 9.86zm0 0l-2.3 2.39 -2.82 -1.97 5.13 -0.42zm-15.65 -6.91l-0.43 -0.35 5.06 -4.45 10.52 7.33 -4.62 4.8 -10.52 -7.33zm0 0l-0.25 -0.18 -0.18 -0.18 0.43 0.35z"/>
    </g>
    <path class="fil0" d="M725.68 117.66c-2.17,7.46 0.63,7.85 7.78,13.51l72.52 50.15c11.98,7.75 11.24,21.28 4.45,33.17l-88.33 -61.69c-10.48,-12.2 -6.58,-30.71 3.58,-35.14z"/>
    <path class="fil1" d="M828.02 212.29l0 -114.02c0.2,-16.57 11.39,-22.26 26.59,-22.42l0 115.94c-0.33,15.08 -9.11,20.82 -26.59,20.49z"/>
    <path class="fil1" d="M828.07 30.71c-3.46,-3.36 -5.17,-7.45 -5.17,-12.27 0,-4.87 1.7,-8.91 5.17,-12.27 3.84,-3.31 8.18,-4.97 13.1,-4.97 4.92,0 9.25,1.61 12.95,4.82 3.75,3.26 5.6,7.4 5.6,12.42 0,5.01 -1.84,9.15 -5.6,12.42 -3.7,3.21 -8.03,4.82 -12.95,4.82 -4.92,0 -9.26,-1.65 -13.1,-4.97z"/>
    <path class="fil1" d="M908.51 111.81c-8.42,8.38 -12.66,19.53 -12.66,33.5 0,13.93 4.48,24.79 13.39,32.58 8.96,7.78 19.53,11.68 31.8,11.68 12.27,0 22.74,-4.09 31.36,-12.27 8.18,-8.14 12.27,-18.85 12.27,-32.14 0,-13.29 -4.29,-24.25 -12.86,-32.77 -8.62,-8.52 -19.23,-12.86 -31.75,-12.95 -12.56,-0.1 -23.08,4.04 -31.56,12.36zm-39.54 -35.59c18.8,-0.23 26.59,5.8 26.59,21.47 4.48,-7.64 10.95,-13.54 19.53,-17.63 8.37,-4.53 17.72,-6.77 28.1,-6.77 19.04,0 35.16,6.62 48.3,19.92 13.19,13.15 19.77,30.29 19.77,51.37 0,21.09 -6.53,38.18 -19.62,51.32 -13.05,13.1 -29.21,19.67 -48.45,19.67 -10.37,0 -19.87,-2.05 -28.53,-6.14 -8.62,-4.09 -15,-9.83 -19.09,-17.14l0 86.67c-17.08,0.48 -25.83,-3.59 -26.45,-21.68l-0.14 -181.08z"/>
    <path class="fil1" d="M1130.11 177.31c8.77,-8.18 13.15,-19.18 13.15,-33.06 0,-13.88 -4.57,-24.83 -13.68,-32.82 -9.15,-7.98 -19.92,-12.03 -32.28,-12.12 -12.42,0 -22.79,4.14 -31.17,12.42 -8.37,8.18 -12.56,18.89 -12.56,32.24 0,13.29 4.29,24.25 12.86,32.77 8.57,8.57 19.14,12.86 31.7,12.86 12.56,0 23.22,-4.09 31.99,-12.27zm13.44 35.35l0 -20.93c-4.29,7.16 -10.76,12.9 -19.43,17.28 -8.67,4.38 -18.12,6.58 -28.44,6.58 -18.89,0 -35.3,-6.62 -49.18,-19.87 -13.39,-13.19 -20.11,-30.33 -20.11,-51.32 0,-21.03 6.62,-38.13 19.81,-51.23 13.25,-13.14 29.76,-19.77 49.53,-19.86 9.88,0 19.43,2.05 28.53,6.14 8.96,4.48 15.39,10.22 19.28,17.28 -0.38,-16.32 10.1,-20.13 26.59,-20.5l0 116.2c-0.2,17.08 -9.54,20.24 -26.59,20.24z"/>
    <path class="fil1" d="M583.36 138.05l0 53.48c-0.4,15.29 -12.47,19.09 -26.4,19.56l0 -114.05c0.56,-16.56 11.59,-21.03 26.4,-21.42l0 20.35c3.86,-7.54 9.67,-13.35 17.45,-17.31 7.74,-3.97 16.05,-5.95 24.9,-5.95 17.02,0 29.83,5.22 38.48,15.72 9.04,10.29 13.64,25.09 13.73,44.33l0 78.32c-15.29,1.4 -25.53,-4.39 -26.4,-19.82l0 -56.76c0,-11.41 -2.71,-20.21 -8.08,-26.35 -5.22,-6.43 -12.91,-9.62 -23.11,-9.62 -10.3,0 -19.05,3.34 -26.21,10.06 -7.2,6.67 -10.78,16.53 -10.78,29.44z"/>
   </g>
  </g>
 </g>
</svg>
