<?xml version="1.0" encoding="UTF-8"?>
<!DOCTYPE svg PUBLIC "-//W3C//DTD SVG 1.1//EN" "http://www.w3.org/Graphics/SVG/1.1/DTD/svg11.dtd">
<!-- Creator: CorelDRAW 2018 (64-Bit Evaluation Version) -->
<svg xmlns="http://www.w3.org/2000/svg" xml:space="preserve" width="31.9865mm" height="7.6201mm" version="1.1" style="shape-rendering:geometricPrecision; text-rendering:geometricPrecision; image-rendering:optimizeQuality; fill-rule:evenodd; clip-rule:evenodd"
viewBox="0 0 1327.25 316.19"
 xmlns:xlink="http://www.w3.org/1999/xlink">
 <defs>
  <style type="text/css">
   <![CDATA[
    .fil0 {fill:white}
    .fil1 {fill:white;fill-rule:nonzero}
   ]]>
  </style>
 </defs>
 <g id="Layer_x0020_1">
  <metadata id="CorelCorpID_0Corel-Layer"/>
  <g id="_2685691534224">
   <path class="fil0" d="M114.99 55.83l-77.03 77.62c-13,10.54 -25.39,12.96 -37.96,1.37l121.84 -122.96c11.07,-11.17 35.49,-14 49.87,-10.36 19.9,5.02 32.83,20.36 48.81,36.48 31.29,31.58 65.54,63.99 95.44,96.49 -11.53,11.57 -25.31,9.66 -39.65,-3.25 -8.34,-7.99 -65.39,-68.45 -78.14,-79.71 -13.68,-13.78 -25.28,-25.76 -41.96,-25.78 -16.79,-0.02 -27.43,16.17 -41.22,30.1z"/>
   <path class="fil0" d="M272.22 316.19c0.07,0 0.15,-0.04 0.22,-0.07 6.44,-1.88 23.65,-8.17 34.33,-26.12 9.66,-16.25 7.39,-34.12 7.39,-55 0,-40.9 0.88,-38.45 -0.63,-79.04 -14.89,0.04 -24.99,9.76 -26,27.49 -0.28,10.63 1.35,41.32 1.07,56.86 0.46,20.92 0.64,31.45 -10.15,42.36 -15.24,12.17 -35.22,6.02 -50.55,-7.43 -9.98,-10.69 -50.87,-48.46 -50.86,-60.58 0.01,-10.64 7.52,-18.05 16.15,-26.77 7.06,-8.13 38.82,-36.01 43.83,-41.34 8.09,-9.15 4.56,-25.93 -2.69,-33.28 -20.37,19.07 -39.79,37.11 -59.58,57.08 -10.1,10.19 -18.68,22.2 -21.83,34.89 -4.21,16.99 3.56,32.72 4.1,33.56 17.03,19.3 34.39,37.63 52.57,53.48l-93.49 0 -0.07 -9.87 0.03 -0.47 -0.19 -11.44 0.11 -22.38c-0.02,-18.07 -1.39,-21.77 1.73,-28.93 0.02,-0.03 -0.02,0.04 0,0 1.37,-2.78 2.54,-5.58 4.66,-7.28 12.87,-10.34 21.36,-22.41 25.25,-37.38 0,-0.02 0.1,-0.51 0.1,-0.53 2.51,-9.68 0.21,-28.34 -7.63,-38.03 -9.03,-13.24 -21.37,-20.33 -36.34,-22.52l-0.13 -0.06 -24.07 0.08c-0.71,8.4 3.74,21.98 21.6,23.02 1.13,0.14 2.22,0.33 3.26,0.59 11.54,2.78 18.05,12.27 20.1,19.62 0.02,0.08 0.05,0.17 0.07,0.24 1.69,5.94 1.23,11.88 -0.95,17.82 -0.01,0.03 -0.02,0.07 -0.04,0.11 -4.56,12.49 -15.58,14.25 -21.81,21.92 -5.9,7.26 -9.65,15.64 -11.25,24.68l-0.16 3.76 0.01 10.18 -0.51 35.57 -0.02 1.17 0.18 18.88 -32.08 0c-0.32,0 -0.64,-0.03 -0.95,-0.05 -3.2,-0.22 -6.45,-0.95 -9.76,-2.38 -3.75,-1.38 -6.97,-3.68 -10.04,-6.23 -10.8,-10.91 -10.18,-24.2 -10.2,-42.06 -1.02,-15.62 0.33,-46.23 0.05,-56.86 -1.01,-17.73 -10.96,-27.45 -25.85,-27.49 -1.19,32.22 -0.34,65.74 -0.61,98.27 -0.1,12.25 1.55,23.88 8.84,35.48 13.02,20.13 32.69,25.71 35.55,26.41 0.12,0.03 0.22,0.05 0.27,0.06l29.9 -0.06c0.12,-0.03 0.23,-0.09 0.35,-0.09l37.8 0.08 0 0.01 4.53 0 121.39 0c0.02,0 0.04,0 0.06,0l32.94 0.06z"/>
  </g>
  <g id="_2685691537136">
   <path class="fil1" d="M386.12 182.98l0 56.29c-14.17,0.75 -29.29,-5.41 -30.17,-23.91l0 -130.89c19.91,0.4 30,3.76 30.17,22.23l0 12.68c7.57,-25.47 21.88,-38.23 43.04,-38.23 12.21,0 21.16,1.99 26.9,5.91 -4.19,10.55 -4.58,18.53 -26.98,19.65 -13.63,0.68 -24.63,9.8 -31.96,22.84 -7.36,13.09 -11,30.88 -11,53.42z"/>
   <path class="fil1" d="M612.09 161.44c0,6.85 -0.11,10.78 -0.33,11.88l-125.63 0c1.49,12.49 7.02,22.81 16.52,31.05 9.17,7.57 19.44,11.38 30.88,11.38 14.37,0 25.72,-3.62 34.78,-9.9 13.68,-9.5 20.97,-13.42 38.09,-4.07 -6.35,13.04 -15.96,23.09 -28.84,30.16 -12.81,7.13 -26.96,10.66 -42.37,10.66 -22.15,0 -41.05,-7.46 -56.79,-22.43 -14.97,-14.97 -22.43,-34.58 -22.43,-58.73 0,-24.2 7.46,-43.59 22.32,-58.23 14.92,-14.59 33.76,-21.93 56.63,-22.04 22.87,0 41.32,7.4 55.36,22.15 14.53,14.69 21.82,34.09 21.82,58.12zm-45.19 -42.32c-8.62,-7.4 -19.34,-11.1 -32.04,-11.1 -12.76,0 -23.7,3.7 -32.87,11.1 -9.06,7.9 -14.37,18.17 -15.85,30.66l95.96 0c-1.49,-12.49 -6.57,-22.76 -15.19,-30.66z"/>
   <path class="fil1" d="M817.74 240.1c-17.93,-0.13 -29.59,-4.99 -30.19,-22.95l0 -216.24c17.04,-0.1 29.79,4.8 30.19,20.46l0 117.77 0 25.27 0 75.69z"/>
   <g>
    <path class="fil0" d="M822.24 170.33c-3.8,-3.69 -5.71,-9.9 -5.81,-16.17l-0 0 0 -0.25 0 -0.05 0 -0.05 0 -0.27 0 0 0 -0.1 0 -0.19 0.01 -0.3 0 -0.13 0.01 -0.17 0.01 -0.3 0.01 -0.15 0.01 -0.16 0.02 -0.3 0.01 -0.17 0.01 -0.14 0.02 -0.3 0.02 -0.18 0.01 -0.12 0.03 -0.3 0.02 -0.2 0.01 -0.1 0.04 -0.29 0.02 -0.21 0.01 -0.09 0.08 -0.52 0.01 -0.07 0.09 -0.53 0.01 -0.05 0.05 -0.29 0.02 -0.07 0.04 -0.22 0.06 -0.29 0.06 -0.27 0 -0.02 0.07 -0.29 0.07 -0.28 0 -0.01 0.07 -0.29 0.07 -0.28 0 -0.01 0.07 -0.27 0.08 -0.28 0.01 -0.02 0.03 -0.11 0.12 -0.41 0.01 -0.04 0.08 -0.23 0.09 -0.27 0.07 -0.21 0.02 -0.06 0.1 -0.27 0.02 -0.07 0.08 -0.2 0.1 -0.27 0.03 -0.07 0.19 -0.44 0.04 -0.09 0.07 -0.16 0.11 -0.26 0.05 -0.1 0.07 -0.15 0.12 -0.24 0.06 -0.11 0.07 -0.14 0.2 -0.37 0.06 -0.12 0.13 -0.24 0.08 -0.14 0.06 -0.1 0.23 -0.37 0.05 -0.09 0.15 -0.22 0.1 -0.15 0.05 -0.07 0.15 -0.22 0.11 -0.16 0.04 -0.06 0.16 -0.21 0.12 -0.17 0.04 -0.05 0.16 -0.21 0.14 -0.17 0.02 -0.03 0.17 -0.2 0.15 -0.18 0.02 -0.02 0.06 -0.07 0.28 -0.31 0.01 -0.01 0.18 -0.18 0.18 -0.19 77.15 -52.31c7.1,12.58 3.97,22.73 -4.41,27.86l-64.02 43.82 -2.7 -5.3 -0.03 0.04 0 0 -0.03 0.04 -0.03 0.04 0 0 -0.03 0.04 -0.03 0.04 0 0 -0.03 0.04 -0.03 0.04 -0 0 -0.02 0.03 -0.03 0.04 -0 0 -0.02 0.03 -0.03 0.04 -0 0.01 -0.02 0.03 -0.03 0.04 -0 0.01 -0.02 0.03 -0.02 0.04 -0 0.01 -0.02 0.03 -0.02 0.04 -0 0.01 -0.02 0.03 -0.02 0.04 -0.01 0.01 -0.02 0.03 -0.02 0.04 -0.01 0.01 -0.02 0.03 -0.02 0.04 -0.01 0.01 -0.01 0.03 -0.02 0.04 -0.01 0.02 -0.02 0.03 -0.02 0.04 -0.01 0.02 -0.01 0.02 -0.02 0.04 -0.01 0.02 -0.01 0.03 -0.02 0.04 -0 0.02 -0.01 0.02 -0.02 0.04 -0.01 0.02 -0.01 0.02 -0.02 0.04 -0.01 0.02 -0.01 0.02 -0.01 0.04 -0.01 0.03 -0.01 0.02 -0.01 0.05 -0 0.03 -0.01 0.02 -0.01 0.05 -0 0.02 -0 0.02 -0.01 0.04 -0.01 0.03 -0 0.02 -0.01 0.04 -0 0.03 -0.01 0.02 -0.01 0.05 -0 0.03 -0 0.02 -0 0.05 -0.01 0.03 0 0.02 -0.01 0.07 0 0.01 -0.01 0.05 -0 0.03 0 0.01 -0 0.05 -0 0.04 0 0.01 0 0.01c0.07,0.87 0.44,1.75 1.1,2.44l16.67 11.17 -10.8 11.19 -11.93 -8.32z"/>
    <path id="1" class="fil1" d="M816.44 150.64l4.14 3.48 0.01 0.54 0.02 0.52 0.03 0.53 0.04 0.53 0.05 0.53 0.06 0.52 0.07 0.52 0.07 0.51 0.1 0.51 0.1 0.51 0.11 0.49 0.12 0.48 0.13 0.49 0.14 0.49 0.14 0.46 0.15 0.45 0.17 0.46 0.17 0.44 0.17 0.43 0.19 0.42 0.2 0.41 0.2 0.39 0.21 0.39 0.22 0.38 0.22 0.35 0.23 0.34 0.23 0.33 0.24 0.32 0.24 0.29 0.26 0.29 0.25 0.28 0.25 0.25 -6.22 4.65 -0.46 -0.46 -0.42 -0.46 -0.41 -0.47 -0.39 -0.49 -0.37 -0.49 -0.36 -0.51 -0.34 -0.52 -0.33 -0.54 -0.3 -0.53 -0.29 -0.54 -0.29 -0.56 -0.26 -0.56 -0.25 -0.57 -0.24 -0.59 -0.22 -0.58 -0.21 -0.58 -0.2 -0.6 -0.18 -0.61 -0.17 -0.59 -0.16 -0.61 -0.15 -0.63 -0.13 -0.63 -0.12 -0.61 -0.11 -0.62 -0.1 -0.64 -0.08 -0.63 -0.07 -0.63 -0.06 -0.63 -0.05 -0.64 -0.04 -0.64 -0.03 -0.65 -0.01 -0.64 4.14 3.48 0 -7.05zm0 0l4.09 0 0.05 3.48 -4.14 -3.48zm-0 7.05l-4.14 -3.52 4.14 -3.52 0 0 0 7.05 -0 0zm0 0l-4.14 0 0 -3.52 4.14 3.52zm-4.14 -3.78l8.28 0 0 0.25 -8.28 0 0 -0.25zm0 -0.05l8.28 0 0 0.05 -8.28 0 0 -0.05zm0 -0.05l8.28 0 0 0.05 -8.28 0 0 -0.05zm0 -0.27l4.14 -3.52 4.14 3.52 0 0.27 -8.28 0 0 -0.27zm0 0l0 -3.52 4.14 0 -4.14 3.52zm4.15 -3.52l4.14 3.52 -4.14 3.52 -0 0 0 -7.05 0 0zm4.14 3.52l0 3.52 -4.14 0 4.14 -3.52zm-8.28 -0.1l0 -0.07 8.28 0.07 0 0.1 -8.28 0 0 -0.1zm0 0l0 -0.07 0 0 0 0.07zm0 -0.26l0 -0.06 8.28 0.19 -0 0.19 -8.28 -0.13 0 -0.19zm0 0l0 -0.06 -0 0.15 0 -0.09zm0.02 -0.36l8.28 0.12 -0 0.12 -0.01 0.3 -8.27 -0.25 0.01 -0.3zm8.28 0.12l0 0.02 -0 0.1 0 -0.12zm-8.28 -0.13l0 -0.14 8.28 0.14 0 0.13 -8.28 0 0 -0.13zm0 0l0 -0.05 0 -0.09 -0 0.14zm0.01 -0.32l8.27 0.27 0 0.02 -0.01 0.17 -8.27 -0.28 0.01 -0.17zm8.27 0.27l0 0.02 -0 0.1 0 -0.12zm-8.26 -0.55l0.01 -0.13 8.27 0.38 -0.01 0.3 -8.27 -0.25 0.01 -0.3zm0 0l0 -0.07 0 -0.06 -0.01 0.13zm0.02 -0.28l8.27 0.41 -0.01 0.1 -0.01 0.15 -8.26 -0.51 0.01 -0.15zm8.27 0.41l0 0.01 -0.01 0.09 0.01 -0.1zm-8.27 -0.47l0 -0.05 8.27 0.37 -0.01 0.16 -8.27 -0.32 0.01 -0.16zm0 0l-0 0.04 0.01 -0.09 -0 0.05zm0.02 -0.35l0 -0.02 8.27 0.43 -0.02 0.3 -8.27 -0.41 0.02 -0.3zm0 0l0 -0.02 0.02 -0.21 -0.02 0.22zm0.01 -0.18l8.27 0.41 -0 0.04 -0.01 0.17 -8.27 -0.45 0.01 -0.17zm8.27 0.41l-0 0.04 0.01 -0.11 -0 0.07zm-8.27 -0.5l0 -0.06 8.27 0.43 -0.01 0.14 -8.27 -0.37 0.01 -0.14zm0 0l0 -0.06 0 0.02 -0 0.05zm0.03 -0.37l0 -0.03 8.26 0.52 -0.02 0.3 -8.27 -0.49 0.02 -0.3zm0 0l0 -0.03 -0.01 0.13 0.01 -0.1zm0.02 -0.21l0 -0.03 8.25 0.59 -0.02 0.18 -8.26 -0.56 0.02 -0.18zm0 0l0 -0.03 -0.01 0.14 0.01 -0.11zm0.02 -0.15l0 -0.02 8.25 0.64 -0.01 0.12 -8.25 -0.61 0.01 -0.12zm0 0l0 -0.02 0.04 -0.34 -0.04 0.36zm0.03 -0.32l8.25 0.64 0 0.02 -0.03 0.3 -8.25 -0.66 0.03 -0.3zm8.25 0.64l0 0.02 -0.03 0.31 0.03 -0.33zm-8.23 -0.82l0 -0.05 8.24 0.67 -0.02 0.2 -8.25 -0.62 0.02 -0.2zm0 0l0 -0.05 0 -0.04 -0.01 0.08zm0.02 -0.15l0.01 -0.06 8.23 0.78 -0.01 0.1 -8.24 -0.71 0.01 -0.1zm0 0l0.01 -0.06 -0 0.04 -0 0.02zm0.05 -0.36l8.23 0.77 -0.01 0.07 -0.04 0.29 -8.22 -0.84 0.04 -0.29zm8.23 0.77l-0 0.05 -0 0.02 0.01 -0.07zm-8.22 -0.92l0.01 -0.07 8.23 0.78 -0.02 0.21 -8.24 -0.71 0.02 -0.21zm0 0l0.01 -0.07 0 0 -0.01 0.07zm0.02 -0.16l0 -0.02 8.22 0.87 -0.01 0.09 -8.22 -0.85 0.01 -0.09zm0 0l-0.01 0.05 0.01 -0.07 -0 0.02zm0.08 -0.55l8.23 0.78 -0.02 0.12 -0.08 0.52 -8.22 -0.9 0.08 -0.52zm8.23 0.78l-0.02 0.12 0.01 -0.09 0 -0.02zm-8.24 -0.74l0.02 -0.18 8.22 0.84 -0.01 0.07 -8.25 -0.66 0.01 -0.07zm0 0l0.01 -0.1 0.01 -0.08 -0.02 0.18zm0.12 -0.71l8.21 0.97 -0.01 0.05 -0.09 0.53 -8.2 -1.02 0.09 -0.53zm8.21 0.97l-0.01 0.05 0 0 0.01 -0.05zm-8.21 -0.97l0.02 -0.1 8.2 1.01 -0.01 0.05 -8.22 -0.91 0.01 -0.05zm0 0l0 -0.04 0.01 -0.06 -0.02 0.1zm0.07 -0.39l0.02 -0.1 8.16 1.21 -0.05 0.29 -8.18 -1.1 0.05 -0.29zm0 0l0.01 -0.06 0.01 -0.04 -0.02 0.1zm0.04 -0.18l8.16 1.22 -0.02 0.09 -0.02 0.07 -8.14 -1.31 0.02 -0.07zm8.16 1.22l-0.02 0.09 0 -0 0.02 -0.09zm-8.13 -1.35l0.01 -0.06 8.16 1.2 -0.04 0.22 -8.17 -1.14 0.04 -0.22zm0 0l0.01 -0.04 0 -0.02 -0.01 0.06zm0.07 -0.35l0 -0 8.15 1.27 -0.06 0.29 -8.15 -1.26 0.06 -0.29zm0 0l0 -0 0.17 -0.81 -0.17 0.81zm0.06 -0.27l8.16 1.22 -0.01 0.05 -0.06 0.27 -8.15 -1.27 0.06 -0.27zm8.16 1.22l-0.01 0.05 -0.01 0.05 0.02 -0.1zm-8.16 -1.2l0.02 -0.09 8.15 1.27 -0 0.02 -8.17 -1.18 0 -0.02zm0 0l0.02 -0.09 -0.02 0.08 -0 0.01zm0.09 -0.38l0 -0.02 8.12 1.38 -0.07 0.29 -8.12 -1.36 0.07 -0.29zm0 0l0 -0.02 0.02 -0.1 -0.03 0.12zm0.07 -0.3l0.25 -0.68 7.87 2.08 -0.07 0.28 -8.12 -1.4 0.07 -0.28zm0 0l0.08 -0.35 0.17 -0.33 -0.25 0.68zm0.25 -0.69l7.86 2.1 -0.24 0.66 -0 0.01 -7.62 -2.76 0 -0.01zm7.86 2.1l-0.08 0.34 -0.16 0.32 0.24 -0.66zm-8.04 -1.73l0 -0.02 8.1 1.46 -0.07 0.29 -8.11 -1.44 0.07 -0.29zm0 0l0 -0.02 0.03 -0.13 -0.04 0.15zm0.07 -0.3l0.07 -0.22 8.03 1.71 -0.07 0.28 -8.1 -1.49 0.07 -0.28zm0 0l0.02 -0.09 0.05 -0.13 -0.07 0.22zm0.07 -0.23l8.01 1.77 -0.05 0.15 -0 0.01 -7.97 -1.93 0 -0.01zm8.01 1.77l-0.03 0.1 -0.02 0.05 0.05 -0.15zm-7.98 -1.89l0.01 -0.05 8.05 1.66 -0.07 0.27 -8.06 -1.62 0.07 -0.27zm0 0l0.01 -0.05 0 -0.01 -0.02 0.06zm0.1 -0.33l0.03 -0.11 8 1.82 -0.08 0.28 -8.03 -1.71 0.08 -0.28zm0 0l0.02 -0.07 0.01 -0.04 -0.03 0.11zm0.04 -0.13l8 1.83 -0.03 0.1 -0.01 0.02 -7.97 -1.93 0.01 -0.02zm8 1.83l0 0 -0.03 0.1 0.03 -0.1zm-8 -1.84l0.01 -0.02 8.02 1.74 -0.03 0.11 -8.03 -1.73 0.03 -0.11zm0 0l0.01 -0.02 -0.15 0.5 0.15 -0.49zm0.13 -0.43l8.02 1.75 -0 0.01 -0.12 0.41 -8.02 -1.76 0.12 -0.41zm8.02 1.75l-0 0.01 0.17 -0.55 -0.16 0.54zm-8.01 -1.78l0.03 -0.11 7.99 1.85 -0.01 0.04 -8.02 -1.74 0.01 -0.04zm0 0l0.02 -0.09 0.01 -0.02 -0.03 0.11zm0.11 -0.34l7.96 1.94 -0 0.02 -0.08 0.23 -7.96 -1.96 0.08 -0.23zm7.96 1.94l-0 0.02 -0.08 0.23 0.08 -0.25zm-7.88 -2.2l7.97 1.93 -0.09 0.27 -7.97 -1.93 0.09 -0.27zm0.07 -0.21l0.02 -0.06 7.95 1.99 -0.07 0.21 -7.97 -1.93 0.07 -0.21zm0 0l0.02 -0.06 0 0 -0.02 0.06zm0.04 -0.12l0.01 -0.03 7.91 2.08 -0.02 0.06 -7.93 -2.05 0.02 -0.06zm0 0l0.01 -0.03 -0.02 0.05 0 -0.02zm0.11 -0.3l0 -0.01 7.9 2.13 -0.1 0.27 -7.9 -2.12 0.1 -0.27zm0 0l0 -0.01 0.03 -0.08 -0.03 0.09zm0.03 -0.08l0.02 -0.05 7.87 2.2 -0.02 0.07 -7.89 -2.14 0.02 -0.07zm0 0l0.02 -0.05 -0.01 0.02 -0.01 0.03zm0.1 -0.25l7.87 2.2 -0.02 0.05 -0.08 0.2 -7.85 -2.25 0.08 -0.2zm7.87 2.2l-0.02 0.05 0.01 -0.02 0.01 -0.03zm-7.79 -2.41l0.07 -0.17 7.82 2.32 -0.1 0.27 -7.89 -2.14 0.1 -0.27zm0 0l0.02 -0.04 0.06 -0.13 -0.07 0.17zm0.11 -0.25l7.77 2.43 -0.03 0.06 -0.03 0.07 -7.74 -2.49 0.03 -0.07zm7.77 2.43l-0.03 0.06 0.09 -0.2 -0.06 0.14zm-7.61 -2.82l7.81 2.34 -0.01 0.03 -0.19 0.44 -7.8 -2.37 0.19 -0.44zm7.81 2.34l-0.01 0.03 0.02 -0.05 -0.01 0.02zm-7.79 -2.41l0.06 -0.13 7.77 2.44 -0.04 0.09 -7.83 -2.32 0.04 -0.09zm0 0l0.01 -0.02 0.05 -0.1 -0.06 0.13zm0.13 -0.29l7.74 2.51 -0.03 0.06 -0.07 0.16 -7.71 -2.57 0.07 -0.16zm7.74 2.51l-0.03 0.06 0.03 -0.07 -0 0.01zm-7.66 -2.71l0.05 -0.11 7.72 2.56 -0.11 0.26 -7.77 -2.45 0.11 -0.26zm0 0l0.02 -0.05 0.03 -0.06 -0.05 0.11zm0.1 -0.21l7.68 2.65 -0.01 0.02 -0.05 0.1 -7.67 -2.66 0.05 -0.1zm7.68 2.65l0.02 -0.04 -0.03 0.06 0.01 -0.02zm-7.61 -2.78l0 -0 7.68 2.63 -0.07 0.15 -7.68 -2.63 0.07 -0.15zm0 0l0 -0 -0.44 0.93 0.44 -0.93zm0.12 -0.25l0.05 -0.1 7.63 2.74 -0.12 0.24 -7.68 -2.64 0.12 -0.24zm0 0l0.04 -0.09 0.01 -0.01 -0.05 0.1zm0.11 -0.22l7.58 2.84 -0 0.01 -0.06 0.11 -7.58 -2.85 0.06 -0.11zm7.58 2.84l-0 0.01 -0.02 0.04 0.02 -0.05zm-7.51 -2.97l0.02 -0.04 7.56 2.87 -0.07 0.14 -7.59 -2.83 0.07 -0.14zm0 0l0.04 -0.07 -0.02 0.03 -0.02 0.04zm0.22 -0.41l7.58 2.84 -0.04 0.07 -0.2 0.37 -7.54 -2.91 0.2 -0.37zm7.58 2.84l-0.04 0.07 0 0 0.04 -0.07zm-7.56 -2.88l0.06 -0.12 7.56 2.88 -0.06 0.12 -7.62 -2.76 0.06 -0.12zm0 0l0.02 -0.04 0.05 -0.08 -0.06 0.12zm0.2 -0.36l0.03 -0.05 7.46 3.05 -0.13 0.24 -7.49 -3 0.13 -0.24zm0 0l0.03 -0.05 0.02 -0.03 -0.05 0.08zm0.11 -0.19l0.01 -0.02 7.43 3.12 -0.08 0.14 -7.44 -3.1 0.08 -0.14zm0 0l0.01 -0.02 0.1 -0.17 -0.1 0.18zm0.07 -0.12l0.04 -0.06 7.38 3.2 -0.06 0.1 -7.42 -3.14 0.06 -0.1zm0 0l0.04 -0.06 -0.07 0.12 0.04 -0.07zm0.27 -0.43l7.4 3.17 -0.05 0.09 -0.23 0.37 -7.34 -3.25 0.23 -0.37zm7.4 3.17l-0.05 0.09 0.06 -0.1 -0.01 0.02zm-7.4 -3.17l0.1 -0.16 7.35 3.24 -0.05 0.09 -7.45 -3.08 0.05 -0.09zm0 0l0.04 -0.07 0.06 -0.09 -0.1 0.16zm0.24 -0.39l7.29 3.35 -0.03 0.05 -0.15 0.22 -7.25 -3.4 0.15 -0.22zm7.29 3.35l-0.03 0.05 -0.01 0.01 0.04 -0.07zm-7.22 -3.45l0.11 -0.17 7.21 3.46 -0.1 0.15 -7.32 -3.29 0.1 -0.15zm0 0l0.07 -0.11 0.04 -0.05 -0.11 0.17zm0.16 -0.24l7.11 3.61 -0.01 0.01 -0.05 0.07 -7.1 -3.63 0.05 -0.07zm7.11 3.61l-0.01 0.01 -0.04 0.05 0.05 -0.06zm-6.97 -3.82l0.02 -0.02 7.1 3.62 -0.15 0.22 -7.12 -3.6 0.15 -0.22zm0 0l0.02 -0.02 -0.12 0.17 0.1 -0.15zm0.13 -0.18l7.23 3.42 -0.15 0.22 -0.11 0.16 -7.09 -3.64 0.11 -0.16zm7.23 3.42l-0.06 0.1 -0.09 0.12 0.15 -0.22zm-7.34 -3.27l0.21 -0.31 7.17 3.51 -0.04 0.06 -7.38 -3.2 0.04 -0.06zm0 0l0.1 -0.16 0.12 -0.15 -0.21 0.31zm0.37 -0.52l6.97 3.81 -0.01 0.02 -0.16 0.21 -6.95 -3.83 0.16 -0.21zm6.97 3.81l-0.01 0.02 0 0 0.01 -0.02zm-6.85 -3.96l0.09 -0.12 6.89 3.91 -0.12 0.17 -6.98 -3.79 0.12 -0.17zm0 0l0.04 -0.05 0.05 -0.06 -0.09 0.12zm0.13 -0.16l6.88 3.93 -0.08 0.1 -0.04 0.05 -6.8 -4.02 0.04 -0.05zm6.88 3.93l-0.03 0.05 -0.05 0.05 0.08 -0.1zm-6.8 -4.03l0.1 -0.12 6.86 3.95 -0.16 0.21 -6.95 -3.83 0.16 -0.21zm0 0l0.1 -0.12 -0.05 0.06 -0.05 0.06zm0.24 -0.29l6.87 3.93 -0.11 0.14 -0.14 0.17 -6.76 -4.07 0.14 -0.17zm6.87 3.93l-0.05 0.07 -0.05 0.07 0.11 -0.14zm-6.95 -3.83l0.17 -0.2 6.81 4 -0.02 0.03 -6.98 -3.79 0.02 -0.03zm0 0l0.07 -0.09 0.1 -0.11 -0.17 0.2zm0.34 -0.4l6.7 4.15 -0.05 0.05 -0.17 0.2 -6.65 -4.2 0.17 -0.2zm6.7 4.15l-0.05 0.05 0.12 -0.13 -0.07 0.08zm-6.6 -4.27l0.22 -0.24 6.53 4.33 -0.15 0.18 -6.75 -4.09 0.15 -0.18zm0 0l0.09 -0.1 0.13 -0.13 -0.22 0.24zm0.24 -0.26l6.39 4.48 -0.08 0.08 -0.02 0.02 -6.31 -4.56 0.02 -0.02zm6.39 4.48l0 0 -0.08 0.08 0.08 -0.08zm-6.41 -4.46l6.52 4.35 -0.05 0.05 -0.06 0.07 -6.47 -4.4 0.06 -0.07zm6.52 4.35l-0.03 0.03 -0.02 0.02 0.05 -0.05zm-6.29 -4.61l0.13 -0.13 6.44 4.43 -0.28 0.31 -6.56 -4.3 0.28 -0.31zm0 0l0.04 -0.05 0.09 -0.09 -0.13 0.13zm0.14 -0.14l0.03 -0.03 6.28 4.6 -0.01 0.01 -6.31 -4.56 0.01 -0.01zm0 0l0.03 -0.03 0.18 -0.18 -0.21 0.21zm0.21 -0.21l6.34 4.54 -0.09 0.09 -0.18 0.18 -6.25 -4.63 0.18 -0.18zm6.34 4.54l-0.09 0.09 0 0 0.09 -0.09zm-6.24 -4.63l0.63 -0.53 5.79 4.98 -0.18 0.19 -6.42 -4.45 0.18 -0.19zm0 0l0.28 -0.29 0.35 -0.24 -0.63 0.53zm77.78 -52.84l6.32 1.23 -1.15 4.28 -77.15 52.31 -5.16 -5.51 77.15 -52.31zm0 0l4.07 -2.76 2.25 3.98 -6.32 -1.23zm-4.42 27.87l0.18 -0.11 0.61 -0.39 0.59 -0.42 0.56 -0.44 0.52 -0.45 0.51 -0.48 0.47 -0.5 0.45 -0.52 0.41 -0.54 0.39 -0.56 0.35 -0.58 0.32 -0.61 0.3 -0.63 0.27 -0.65 0.23 -0.68 0.2 -0.7 0.16 -0.71 0.12 -0.75 0.09 -0.76 0.05 -0.79 0.01 -0.81 -0.03 -0.84 -0.07 -0.86 -0.12 -0.88 -0.16 -0.91 -0.21 -0.92 -0.26 -0.95 -0.31 -0.97 -0.37 -1 -0.41 -1.01 -0.47 -1.04 -0.53 -1.05 -0.58 -1.07 7.47 -3.05 0.69 1.27 0.63 1.26 0.57 1.25 0.51 1.24 0.45 1.23 0.39 1.21 0.34 1.21 0.27 1.2 0.21 1.17 0.16 1.17 0.1 1.15 0.04 1.13 -0.01 1.11 -0.07 1.1 -0.12 1.08 -0.18 1.06 -0.24 1.05 -0.29 1.01 -0.34 1 -0.4 0.97 -0.44 0.94 -0.5 0.92 -0.55 0.9 -0.6 0.87 -0.64 0.83 -0.69 0.8 -0.73 0.77 -0.77 0.74 -0.81 0.71 -0.86 0.66 -0.88 0.63 -0.93 0.6 0.18 -0.11 -5.2 -5.49zm0 0l0.04 -0.02 0.14 -0.09 -0.18 0.11zm-58.82 49.32l-6.4 -1.34 1.2 -4.15 64.02 -43.82 5.2 5.49 -64.02 43.82zm0 0l-4.24 2.9 -2.16 -4.24 6.4 1.34zm-9.1 -6.64l0.5 -3.53 7.1 0.72 2.7 5.3 -7.6 2.8 -2.7 -5.3zm0.5 -3.53l4.28 -4.82 2.82 5.54 -7.1 -0.72zm6.57 4.29l-6.61 -4.25 0.03 -0.04 6.61 4.25 -0.03 0.04zm-3.3 -2.12l0 0 0 0 0 0 3.3 2.12 -3.3 -2.12zm3.27 2.16l-6.61 -4.25 0.03 -0.04 6.61 4.25 -0.03 0.04zm-0.03 0.04l-6.61 -4.25 0.03 -0.04 6.61 4.25 -0.03 0.04zm-3.3 -2.12l0 0 0 0 0 0 3.3 2.12 -3.3 -2.12zm3.27 2.16l-6.76 -4.07 0.15 -0.18 0.03 -0.04 6.61 4.25 -0.03 0.04zm-6.76 -4.07l0.07 -0.08 0.08 -0.1 -0.15 0.18zm6.88 3.93l-7.59 -1.95 0.69 -1.95 0.03 -0.04 6.9 3.89 -0.03 0.04zm-7.59 -1.95l0 -1.06 0.69 -0.88 -0.69 1.95zm8.28 0l-0.84 2.12 -7.44 -2.12 0 -0 8.28 0 0 0zm0 0l0 1.18 -0.84 0.94 0.84 -2.12zm-0.87 2.16l-6.76 -4.07 0.15 -0.18 0.03 -0.04 6.61 4.25 -0.03 0.04zm-6.76 -4.07l0.07 -0.08 0.08 -0.1 -0.15 0.18zm6.88 3.93l-0.3 0.34 -6.61 -4.23 0.03 -0.04 6.9 3.89 -0.03 0.04zm0 0l-0.13 0.17 -0.17 0.17 0.3 -0.34zm-0.3 0.34l-6.64 -4.18 0.34 -0.39 0 -0 6.31 4.56 -0 0zm-6.64 -4.18l0.15 -0.2 0.19 -0.19 -0.34 0.39zm6.95 3.83l-7.05 -3.7 0.07 -0.09 0.02 -0.03 6.98 3.79 -0.02 0.03zm-7.05 -3.7l0.03 -0.04 0.04 -0.05 -0.07 0.09zm7.08 3.65l-0.4 0.48 -6.71 -4.09 0.03 -0.04 7.11 3.61 -0.03 0.04zm0 0l-0.17 0.25 -0.23 0.23 0.4 -0.48zm-0.41 0.48l-6.64 -4.18 0.34 -0.39 0 -0 6.31 4.56 -0 0zm-6.64 -4.18l0.15 -0.2 0.19 -0.19 -0.34 0.39zm6.95 3.83l-0.19 0.23 -6.79 -4.02 0.02 -0.03 6.98 3.79 -0.02 0.03zm0 0l-0.09 0.12 -0.1 0.11 0.19 -0.23zm-0.22 0.27l-7.11 -3.51 0.51 -0.74 0.03 -0.04 6.61 4.25 -0.03 0.04zm-7.11 -3.51l0.2 -0.39 0.31 -0.35 -0.51 0.74zm7.61 2.77l-0.15 0.27 -7.46 -3.04 0 -0.01 7.62 2.76 -0 0.01zm0 0l-0.07 0.14 -0.08 0.13 0.15 -0.27zm-0.17 0.31l-0.1 0.15 -7.21 -3.46 0.02 -0.03 7.31 3.31 -0.02 0.03zm0 0l-0.04 0.07 -0.06 0.08 0.1 -0.15zm-0.13 0.19l-7.54 -2.77 0.43 -0.84 0.03 -0.04 7.11 3.61 -0.03 0.04zm-7.54 -2.77l0.15 -0.44 0.28 -0.4 -0.43 0.84zm7.96 1.94l-0.64 1.11 -7.33 -3.04 0 -0.01 7.97 1.93 -0 0.01zm0 0l-0.2 0.6 -0.44 0.51 0.64 -1.11zm-0.66 1.14l-6.95 -3.81 0.26 -0.34 0.02 -0.03 6.69 4.15 -0.02 0.03zm-6.95 -3.81l0.11 -0.16 0.15 -0.17 -0.26 0.34zm7.18 3.51l-7.59 -2.7 0.38 -0.78 0.02 -0.04 7.2 3.48 -0.02 0.04zm-7.59 -2.7l0.14 -0.41 0.24 -0.37 -0.38 0.78zm7.96 1.94l-0.33 0.69 -7.64 -2.62 0 -0.01 7.97 1.93 -0 0.01zm0 0l-0.12 0.36 -0.21 0.33 0.33 -0.69zm-0.35 0.73l-0.05 0.08 -7.26 -3.39 0.02 -0.03 7.31 3.31 -0.02 0.03zm0 0l-0.02 0.03 -0.03 0.05 0.05 -0.08zm-0.08 0.12l-7.59 -2.7 0.38 -0.78 0.02 -0.04 7.2 3.48 -0.02 0.04zm-7.59 -2.7l0.14 -0.41 0.24 -0.37 -0.38 0.78zm7.96 1.94l-0.33 0.69 -7.64 -2.62 0 -0.01 7.97 1.93 -0 0.01zm0 0l-0.12 0.36 -0.21 0.33 0.33 -0.69zm-0.35 0.73l-7.34 -3.26 0.03 -0.05 0.02 -0.03 7.31 3.31 -0.02 0.03zm-7.34 -3.26l0.01 -0.02 0.02 -0.03 -0.03 0.05zm7.35 3.24l-0.54 0.68 -6.84 -3.88 0.02 -0.04 7.38 3.2 -0.02 0.04zm0 0l-0.22 0.37 -0.32 0.32 0.54 -0.68zm-0.54 0.69l-6.96 -3.66 0.66 -0.9 0.01 -0.01 6.31 4.56 -0.01 0.01zm-6.96 -3.66l0.24 -0.49 0.41 -0.41 -0.66 0.9zm7.6 2.8l-7.62 -2.76 0.02 -0.03 7.62 2.76 -0.02 0.03zm-0.02 0.04l-0.66 0.9 -6.96 -3.66 0.02 -0.04 7.62 2.76 -0.02 0.04zm0 0l-0.24 0.49 -0.41 0.41 0.66 -0.9zm-0.66 0.91l-6.96 -3.66 0.66 -0.9 0.01 -0.01 6.31 4.56 -0.01 0.01zm-6.96 -3.66l0.24 -0.49 0.41 -0.41 -0.66 0.9zm7.6 2.8l-7.62 -2.76 0.02 -0.03 7.62 2.76 -0.02 0.03zm-0.02 0.04l-0.21 0.36 -7.41 -3.12 0.02 -0.04 7.62 2.76 -0.02 0.04zm0 0l-0.09 0.18 -0.12 0.17 0.21 -0.36zm-0.22 0.37l-7.49 -2.95 0.29 -0.53 0.01 -0.01 7.2 3.48 -0.01 0.01zm-7.49 -2.95l0.12 -0.27 0.17 -0.27 -0.29 0.53zm7.77 2.44l-0.08 0.17 -7.7 -2.59 0.01 -0.03 7.78 2.41 -0.01 0.03zm0 0l-0.02 0.06 -0.06 0.12 0.08 -0.17zm-0.1 0.22l-7.62 -2.76 0.02 -0.04 7.62 2.76 -0.02 0.04zm-0.01 0.02l-0.08 0.16 -7.54 -2.92 0.01 -0.02 7.62 2.76 -0.01 0.02zm0 0l-0.05 0.1 -0.03 0.06 0.08 -0.16zm-0.1 0.19l-7.65 -2.68 0.2 -0.4 0.02 -0.03 7.45 3.08 -0.02 0.03zm-7.65 -2.68l0.08 -0.2 0.11 -0.2 -0.2 0.4zm7.83 2.32l-7.84 -2.27 0.02 -0.04 7.84 2.27 -0.02 0.04zm-0.01 0.02l-7.9 -2.1 0.06 -0.17 0.01 -0.02 7.84 2.27 -0.01 0.02zm-7.9 -2.1l0.04 -0.11 0.02 -0.06 -0.06 0.17zm7.96 1.95l-0.29 0.64 -7.67 -2.56 0.01 -0.02 7.97 1.93 -0.01 0.02zm0 0l-0.11 0.33 -0.18 0.31 0.29 -0.64zm-0.32 0.68l-7.5 -2.98 0.12 -0.22 0.02 -0.04 7.38 3.2 -0.02 0.04zm-7.5 -2.98l0.06 -0.12 0.06 -0.1 -0.12 0.22zm7.61 2.78l-7.83 -2.22 0.22 -0.55 0.01 -0.02 7.62 2.76 -0.01 0.02zm-7.83 -2.22l0.08 -0.27 0.14 -0.28 -0.22 0.55zm8.04 1.7l-0.1 0.3 -7.95 -1.97 0.01 -0.03 8.05 1.67 -0.01 0.03zm0 0l-0.05 0.15 -0.06 0.15 0.1 -0.3zm-0.12 0.34l-8 -1.73 0.16 -0.55 0.02 -0.04 7.84 2.27 -0.02 0.04zm-8 -1.73l0.06 -0.29 0.1 -0.26 -0.16 0.55zm8.16 1.2l-0.27 0.79 -7.89 -1.97 0 -0.02 8.17 1.18 -0 0.02zm0 0l-0.08 0.41 -0.19 0.39 0.27 -0.79zm-0.29 0.82l-7.73 -2.52 0.11 -0.24 0.01 -0.02 7.62 2.76 -0.01 0.02zm-7.73 -2.52l0.04 -0.1 0.07 -0.14 -0.11 0.24zm7.83 2.32l-7.9 -2.1 0.06 -0.17 0.02 -0.04 7.84 2.27 -0.02 0.04zm-7.9 -2.1l0.04 -0.11 0.02 -0.06 -0.06 0.17zm7.96 1.95l-7.97 -1.93 0.01 -0.02 7.97 1.93 -0.01 0.02zm-0.01 0.02l-0.06 0.17 -7.9 -2.1 0.01 -0.02 7.97 1.93 -0.01 0.02zm0 0l-0.04 0.11 -0.02 0.06 0.06 -0.17zm-0.08 0.22l-7.9 -2.1 0.06 -0.17 0.02 -0.04 7.84 2.27 -0.02 0.04zm-7.9 -2.1l0.04 -0.11 0.02 -0.06 -0.06 0.17zm7.96 1.95l-0.06 0.17 -7.9 -2.1 0.01 -0.02 7.97 1.93 -0.01 0.02zm0 0l-0.04 0.11 -0.02 0.06 0.06 -0.17zm-0.07 0.2l-7.93 -2.01 0.09 -0.27 0.01 -0.02 7.84 2.27 -0.01 0.02zm-7.93 -2.01l0.05 -0.15 0.05 -0.12 -0.09 0.27zm8.01 1.78l-8.04 -1.71 0.01 -0.04 0.01 -0.04 8.02 1.74 -0.01 0.04zm-8.04 -1.71l0.01 -0.04 -0.04 0.12 0.02 -0.09zm8.04 1.7l-0.22 0.55 -7.83 -2.22 0.01 -0.03 8.05 1.67 -0.01 0.03zm0 0l-0.08 0.27 -0.14 0.28 0.22 -0.55zm-0.22 0.56l-7.84 -2.18 0.22 -0.59 0.01 -0.02 7.62 2.76 -0.01 0.02zm-7.84 -2.18l0.08 -0.3 0.14 -0.28 -0.22 0.59zm8.05 1.64l-8.15 -1.22 0.08 -0.37 0.01 -0.05 8.07 1.59 -0.01 0.05zm-8.15 -1.22l0.02 -0.18 0.05 -0.2 -0.08 0.37zm8.22 0.88l-0.3 0.96 -7.92 -1.8 0 -0.03 8.22 0.85 -0 0.03zm0 0l-0.07 0.49 -0.23 0.46 0.3 -0.96zm-0.31 0.98l-7.84 -2.18 0.22 -0.59 0.01 -0.02 7.62 2.76 -0.01 0.02zm-7.84 -2.18l0.08 -0.3 0.14 -0.28 -0.22 0.59zm8.05 1.64l-8.13 -1.29 0.07 -0.3 0.01 -0.05 8.07 1.59 -0.01 0.05zm-8.13 -1.29l0.02 -0.15 0.04 -0.15 -0.07 0.3zm8.2 1.01l-0.02 0.1 -8.18 -1.08 0 -0.02 8.2 0.99 -0 0.02zm0 0l-0.01 0.07 -0 0.02 0.02 -0.1zm-0.02 0.12l-0.07 0.28 -8.1 -1.46 0 -0.02 8.17 1.18 -0 0.02zm0 0l-0.03 0.14 -0.04 0.14 0.07 -0.28zm-0.08 0.32l-8.04 -1.71 0.01 -0.04 0.01 -0.04 8.02 1.74 -0.01 0.04zm-8.04 -1.71l0.01 -0.04 -0.04 0.12 0.02 -0.09zm8.04 1.7l-8.11 -1.42 0.06 -0.24 0.01 -0.03 8.05 1.67 -0.01 0.03zm-8.11 -1.42l0.03 -0.14 0.03 -0.11 -0.06 0.24zm8.16 1.2l-8.17 -1.18 0 -0.02 8.17 1.18 -0 0.02zm-0.01 0.04l-8.2 -1.01 0.03 -0.17 0.01 -0.04 8.17 1.18 -0.01 0.04zm-8.2 -1.01l0.01 -0.07 0.02 -0.09 -0.03 0.17zm8.22 0.88l-0.3 0.96 -7.92 -1.8 0 -0.03 8.22 0.85 -0 0.03zm0 0l-0.07 0.49 -0.23 0.46 0.3 -0.96zm-0.31 0.98l-7.9 -1.92 0.28 -0.84 0.01 -0.02 7.62 2.76 -0.01 0.02zm-7.9 -1.92l0.08 -0.44 0.2 -0.41 -0.28 0.84zm8.17 1.12l-8.2 -0.96 0.02 -0.12 0.01 -0.05 8.18 1.08 -0.01 0.05zm-8.2 -0.96l0 -0.01 0.02 -0.11 -0.02 0.12zm8.22 0.88l-0.06 0.31 -8.16 -1.16 0 -0.03 8.22 0.85 -0 0.03zm0 0l-0.02 0.15 -0.04 0.17 0.06 -0.31zm-0.07 0.33l-8.18 -1.01 0.08 -0.46 0 -0.02 8.1 1.47 -0 0.02zm-8.18 -1.01l0.02 -0.23 0.06 -0.23 -0.08 0.46zm8.25 0.59l-0.08 0.46 -8.18 -1.01 0 -0.05 8.26 0.55 -0 0.05zm0 0l-0.02 0.23 -0.06 0.23 0.08 -0.46zm-0.09 0.49l-8.19 -0.73 0.09 -0.73 0.01 -0.03 8.1 1.47 -0.01 0.03zm-8.19 -0.73l0 -0.37 0.09 -0.37 -0.09 0.73zm8.28 0.02l-0.04 0.49 -8.24 -0.49 0 -0.02 8.28 0 0 0.02zm0 0l0 0.24 -0.04 0.25 0.04 -0.49zm-0.05 0.57l-8.24 -0.49 0.04 -0.49 0.01 -0.07 8.2 0.99 -0.01 0.07zm-8.24 -0.49l0 -0.24 0.04 -0.25 -0.04 0.49zm8.28 0.01l-0.04 0.49 -8.24 -0.49 0 -0.01 8.28 0 0 0.01zm0 0l0 0.24 -0.04 0.25 0.04 -0.49zm-0.05 0.54l-8.21 -0.92 0.01 -0.07 0.01 -0.05 8.2 0.99 -0.01 0.05zm-8.21 -0.92l0.01 -0.07 -0.02 0.1 0 -0.03zm8.22 0.88l-8.25 -0.42 0.03 -0.42 0 -0.03 8.22 0.85 -0 0.03zm-8.25 -0.42l0 -0.22 0.03 -0.2 -0.03 0.42zm8.28 0.01l-0.01 0.27 -8.27 -0.27 0 -0.01 8.28 0 0 0.01zm0 0l0 0.14 -0.01 0.14 0.01 -0.27zm-0.02 0.32l-0 0.06 -8.25 -0.61 0 -0.05 8.26 0.55 -0 0.05zm0 0l-0 0.06 -0.01 0.06 0.01 -0.12zm-0.01 0.1l-8.27 -0.33 0.02 -0.33 0 -0.04 8.25 0.66 -0 0.04zm-8.27 -0.33l0 -0.18 0.02 -0.15 -0.02 0.33zm8.28 0.01l-8.28 0 0 -0.01 8.28 0 0 0.01zm0 0.01l-8.27 0.23 -0.01 -0.23 0 -0.01 8.28 0 0 0.01zm-8.27 0.23l-0.01 -0.11 0 -0.12 0.01 0.23zm2.67 4.98l-0.64 -0.53 -0.14 -0.15 -0.1 -0.12 -0.06 -0.07 -0.14 -0.16 -0.12 -0.16 -0.1 -0.12 -0.09 -0.12 -0.11 -0.16 -0.08 -0.13 -0.05 -0.07 -0.1 -0.17 -0.1 -0.17 -0.07 -0.14 -0.05 -0.1 -0.05 -0.11 -0.08 -0.17 -0.06 -0.15 -0.06 -0.15 -0.05 -0.15 -0.05 -0.15 -0.05 -0.15 -0.03 -0.1 -0.05 -0.15 -0.04 -0.15 -0.04 -0.15 -0.03 -0.15 -0.02 -0.08 -0.03 -0.15 -0.03 -0.24 -0.02 -0.15 -0.01 -0.08 -0.02 -0.16 8.27 -0.46 0 0 0.01 0.08 0 0.02 -0.01 -0.07 0 0 0.02 0.08 0 0 0 0.01 0 0.01 0 0.01 0.02 0.06 0 0.01 0 0.01 0 0.01 0.01 0.01 0 0.01 -0.01 -0.02 0.02 0.04 0.02 0.05 0.01 0.02 -0.01 -0.02 -0.01 -0.02 0.05 0.07 0.01 0.02 -0.01 -0.02 0.01 0.02 0.01 0.02 -0.02 -0.02 -0.02 -0.02 0.06 0.07 0.02 0.02 -0.01 -0.02 -0.64 -0.53 -5.13 5.54zm0 0l-0.36 -0.24 -0.28 -0.29 0.64 0.53zm21.8 5.64l0.63 5 -5.76 0.53 -16.67 -11.17 5.13 -5.54 16.67 11.17zm0 0l3.32 2.22 -2.68 2.78 -0.63 -5zm-10.17 16.19l-5.83 0.49 -0.57 -4.96 10.8 -11.19 6.4 4.47 -10.8 11.19zm0 0l-2.63 2.72 -3.2 -2.23 5.83 -0.49zm-17.76 -7.83l-0.49 -0.4 5.74 -5.05 11.93 8.32 -5.25 5.45 -11.93 -8.32zm0 0l-0.25 -0.17 -0.23 -0.23 0.49 0.4z"/>
   </g>
   <path class="fil0" d="M823.11 132.62c-2.45,8.47 0.72,8.91 8.84,15.33l82.25 56.89c13.6,8.79 12.75,24.13 5.05,37.61l-100.2 -69.98c-11.89,-13.84 -7.46,-34.82 4.05,-39.86z"/>
   <path class="fil1" d="M939.2 239.96l0 -129.32c0.22,-18.8 12.92,-25.25 30.16,-25.44l0 131.51c-0.37,17.11 -10.33,23.61 -30.16,23.24z"/>
   <path class="fil1" d="M939.25 34.01c-3.92,-3.81 -5.85,-8.45 -5.85,-13.92 0,-5.52 1.93,-10.11 5.85,-13.92 4.37,-3.76 9.28,-5.63 14.86,-5.63 5.58,0 10.49,1.82 14.69,5.47 4.26,3.7 6.35,8.39 6.35,14.08 0,5.69 -2.1,10.38 -6.35,14.08 -4.2,3.64 -9.11,5.47 -14.69,5.47 -5.58,0 -10.49,-1.88 -14.86,-5.63z"/>
   <path class="fil1" d="M1030.5 126c-9.56,9.5 -14.36,22.15 -14.36,38 0,15.79 5.08,28.11 15.19,36.95 10.16,8.84 22.15,13.26 36.07,13.26 13.92,0 25.79,-4.64 35.57,-13.92 9.28,-9.22 13.92,-21.37 13.92,-36.45 0,-15.08 -4.86,-27.51 -14.58,-37.17 -9.78,-9.66 -21.81,-14.58 -36.01,-14.69 -14.25,-0.11 -26.18,4.59 -35.79,14.03zm-44.85 -40.37c21.32,-0.27 30.16,6.58 30.16,24.36 5.08,-8.67 12.43,-15.36 22.15,-20 9.5,-5.14 20.11,-7.68 31.87,-7.68 21.59,0 39.88,7.51 54.79,22.59 14.97,14.91 22.42,34.35 22.42,58.27 0,23.91 -7.4,43.3 -22.26,58.21 -14.8,14.86 -33.14,22.32 -54.95,22.32 -11.76,0 -22.54,-2.32 -32.37,-6.96 -9.78,-4.64 -17.01,-11.16 -21.65,-19.44l0 98.31c-19.37,0.54 -29.3,-4.07 -30,-24.59l-0.16 -205.39z"/>
   <path class="fil1" d="M1281.85 200.28c9.94,-9.28 14.91,-21.76 14.91,-37.5 0,-15.74 -5.2,-28.17 -15.52,-37.23 -10.38,-9.06 -22.59,-13.64 -36.61,-13.75 -14.08,0 -25.85,4.69 -35.35,14.08 -9.5,9.28 -14.25,21.43 -14.25,36.56 0,15.08 4.86,27.5 14.58,37.17 9.72,9.72 21.71,14.58 35.95,14.58 14.25,0 26.34,-4.64 36.29,-13.92zm15.24 40.1l0 -23.75c-4.86,8.12 -12.21,14.64 -22.04,19.61 -9.83,4.97 -20.55,7.46 -32.26,7.46 -21.43,0 -40.04,-7.51 -55.78,-22.54 -15.19,-14.97 -22.81,-34.41 -22.81,-58.21 0,-23.86 7.51,-43.25 22.48,-58.1 15.02,-14.91 33.75,-22.42 56.17,-22.54 11.21,0 22.04,2.32 32.37,6.96 10.16,5.08 17.45,11.6 21.87,19.61 -0.44,-18.51 11.45,-22.84 30.15,-23.25l0 131.79c-0.22,19.37 -10.82,22.96 -30.15,22.96z"/>
   <path class="fil1" d="M661.68 155.76l0 60.67c-0.46,17.35 -14.15,21.65 -29.94,22.2l0 -129.37c0.63,-18.78 13.15,-23.85 29.94,-24.29l0 23.09c4.39,-8.56 10.97,-15.14 19.8,-19.63 8.77,-4.49 18.2,-6.74 28.24,-6.74 19.3,0 33.83,5.92 43.65,17.82 10.26,11.68 15.46,28.46 15.58,50.29l0 88.84c-17.34,1.58 -28.96,-4.98 -29.94,-22.49l0 -64.38c0,-12.94 -3.07,-22.92 -9.16,-29.89 -5.92,-7.29 -14.64,-10.91 -26.21,-10.91 -11.68,0 -21.61,3.78 -29.72,11.41 -8.17,7.57 -12.23,18.76 -12.23,33.39z"/>
  </g>
 </g>
</svg>
