<?xml version="1.0" encoding="UTF-8"?>
<!DOCTYPE svg PUBLIC "-//W3C//DTD SVG 1.1//EN" "http://www.w3.org/Graphics/SVG/1.1/DTD/svg11.dtd">
<!-- Creator: CorelDRAW 2018 (64-Bit Evaluation Version) -->
<svg xmlns="http://www.w3.org/2000/svg" xml:space="preserve" width="23.8125mm" height="23.8126mm" version="1.1" style="shape-rendering:geometricPrecision; text-rendering:geometricPrecision; image-rendering:optimizeQuality; fill-rule:evenodd; clip-rule:evenodd"
viewBox="0 0 3099.37 3099.38"
 xmlns:xlink="http://www.w3.org/1999/xlink">
 <defs>
  <style type="text/css">
   <![CDATA[
    .fil1 {fill:url(#id2)}
    .fil3 {fill:url(#id3)}
    .fil0 {fill:url(#id4)}
    .fil2 {fill:url(#id5)}
   ]]>
  </style>
    <mask id="id0">
  <linearGradient id="id1" gradientUnits="userSpaceOnUse" x1="4085.24" y1="3145.29" x2="4410.24" y2="3309.7">
   <stop offset="0" style="stop-opacity:1; stop-color:white"/>
   <stop offset="0.270588" style="stop-opacity:-127.502; stop-color:white"/>
   <stop offset="1" style="stop-opacity:0; stop-color:white"/>
  </linearGradient>
     <rect style="fill:url(#id1)" x="2258.9" y="1169.79" width="867.97" height="1921.73"/>
    </mask>
  <linearGradient id="id2" gradientUnits="userSpaceOnUse" x1="2886.7" y1="1171.93" x2="2681.92" y2="3080.75">
   <stop offset="0" style="stop-opacity:1; stop-color:#FEB735"/>
   <stop offset="1" style="stop-opacity:1; stop-color:#FB6219"/>
  </linearGradient>
  <linearGradient id="id3" gradientUnits="userSpaceOnUse" xlink:href="#id2" x1="1615.34" y1="34" x2="493.53" y2="3035.64">
  </linearGradient>
  <linearGradient id="id4" gradientUnits="userSpaceOnUse" x1="135.31" y1="1164.88" x2="328.96" y2="3104.85">
   <stop offset="0" style="stop-opacity:1; stop-color:#FB6219"/>
   <stop offset="1" style="stop-opacity:1; stop-color:#FEB735"/>
  </linearGradient>
  <linearGradient id="id5" gradientUnits="userSpaceOnUse" xlink:href="#id4" x1="2576.24" y1="10.33" x2="1473.24" y2="3074.57">
  </linearGradient>
 </defs>
 <g id="Layer_x0020_1">
  <metadata id="CorelCorpID_0Corel-Layer"/>
  <g id="_2840415817008">
   <path class="fil0" d="M264.62 2873.18l-264.62 -1675.45 103.93 32.94c184.58,58.47 359.48,195.63 398.03,445.16l201.37 1238.91 -28.45 35.92 0.26 0.68 0 0 0.22 0.62 0.31 0.66 0 0.01 0.22 0.57 0.26 0.64 0.07 0.05 0.23 0.64 0.3 0.61 0.03 0.04 0.26 0.59 0.3 0.61 0.05 0.08 0.23 0.55 0.29 0.6 0.04 0.12 0.31 0.53 0.3 0.6 0.08 0.14 0.25 0.49 0.33 0.59 0.08 0.14 0.27 0.49 0.38 0.6 0.09 0.17 0.25 0.44 0.35 0.6 0.09 0.16 0.29 0.44 0.36 0.59 0.08 0.13 0.31 0.44 0.34 0.61 0.13 0.17 0.27 0.38 0.38 0.61 0.16 0.2 0.27 0.36 0.36 0.57 0.17 0.21 0.29 0.38 0.38 0.55 0.17 0.23 0.27 0.36 0.43 0.52 0.2 0.25 0.23 0.33 0.4 0.51 0.25 0.31 0.23 0.3 0.42 0.53 0.22 0.26 0.22 0.27 0.44 0.49 0.27 0.3 0.2 0.23 0.47 0.53 0.26 0.31 0.21 0.22 0.46 0.52 0.29 0.29 0.21 0.2 0.47 0.52 0.29 0.3 0.2 0.22 0.53 0.49 0.3 0.3 0.17 0.21 0.48 0.49 0.33 0.26 0.18 0.21 0.49 0.47 0.38 0.33 0.16 0.17 0.87 0.78 0.14 0.16 0.53 0.44 0.34 0.34 0.16 0.13 0.52 0.43 0.42 0.36 0.12 0.08 0.07 0.07c10.99,7.13 23.84,11.44 36.17,11.38l47.16 -93.41 28.8 98.83c-46.23,25.67 -492.81,196.11 -544.99,-125.68z"/>
   <path class="fil1" style="mask:url(#id0)" d="M2831.39 2870.35l267.99 -1673.08 -103.93 32.93c-184.56,58.48 -359.49,195.64 -398.03,445.16l-204.74 1236.57 28.44 35.91 -0.26 0.69 0 0 -0.21 0.62 -0.3 0.65 -0.01 0.03 -0.23 0.57 -0.26 0.64 -0.05 0.05 -0.25 0.64 -0.3 0.61 -0.01 0.04 -0.26 0.57 -0.3 0.62 -0.04 0.08 -0.26 0.55 -0.29 0.6 -0.04 0.1 -0.3 0.55 -0.3 0.61 -0.09 0.13 -0.23 0.49 -0.33 0.6 -0.08 0.14 -0.29 0.48 -0.36 0.6 -0.1 0.17 -0.23 0.44 -0.36 0.59 -0.08 0.17 -0.29 0.44 -0.36 0.59 -0.08 0.13 -0.31 0.44 -0.34 0.62 -0.13 0.17 -0.27 0.36 -0.38 0.61 -0.17 0.2 -0.27 0.39 -0.36 0.55 -0.16 0.21 -0.27 0.36 -0.4 0.56 -0.16 0.23 -0.29 0.36 -0.42 0.53 -0.2 0.23 -0.23 0.33 -0.42 0.51 -0.23 0.31 -0.22 0.29 -0.43 0.55 -0.23 0.26 -0.22 0.27 -0.44 0.49 -0.27 0.3 -0.18 0.23 -0.48 0.53 -0.26 0.31 -0.2 0.22 -0.47 0.52 -0.27 0.27 -0.21 0.21 -0.47 0.52 -0.3 0.3 -0.2 0.22 -0.52 0.49 -0.3 0.31 -0.17 0.21 -0.48 0.48 -0.33 0.26 -0.18 0.2 -0.49 0.48 -0.38 0.34 -0.17 0.16 -0.86 0.78 -0.14 0.16 -0.52 0.46 -0.36 0.33 -0.14 0.13 -0.53 0.43 -0.42 0.36 -0.12 0.08 -0.05 0.07c-10.99,7.13 -23.84,11.45 -36.17,11.38l-47.17 -93.41 -28.79 98.83c46.23,25.67 492.81,196.11 544.99,-125.69z"/>
   <path class="fil2" d="M2755.17 3001.01c-97.71,-1.73 -162.61,-5.08 -227.91,-136.85l-643.68 -2667.23c-143.89,-269.93 -542.98,-217.77 -633.33,-71.91 97.71,1.72 161.51,5.14 226.81,136.9l653.26 2713.67c124.1,174.18 534.5,147.43 624.85,25.42z"/>
   <path class="fil3" d="M323.26 2996.06c97.7,-1.73 162.59,-5.08 227.89,-136.85l643.68 -2667.23c143.89,-269.93 542.98,-217.77 633.33,-71.91 -97.71,1.72 -161.51,5.14 -226.81,136.9l-653.26 2713.67c-124.1,174.16 -534.5,147.43 -624.83,25.42z"/>
  </g>
 </g>
</svg>
