<?xml version="1.0" encoding="UTF-8"?>
<!DOCTYPE svg PUBLIC "-//W3C//DTD SVG 1.1//EN" "http://www.w3.org/Graphics/SVG/1.1/DTD/svg11.dtd">
<!-- Creator: CorelDRAW 2018 (64-Bit Evaluation Version) -->
<svg xmlns="http://www.w3.org/2000/svg" xml:space="preserve" width="240px" height="240px" version="1.1" style="shape-rendering:geometricPrecision; text-rendering:geometricPrecision; image-rendering:optimizeQuality; fill-rule:evenodd; clip-rule:evenodd"
viewBox="0 0 6121.85 6121.85"
 xmlns:xlink="http://www.w3.org/1999/xlink">
 <defs>
  <style type="text/css">
   <![CDATA[
    .fil3 {fill:url(#id2)}
    .fil2 {fill:url(#id3)}
    .fil0 {fill:url(#id4)}
    .fil1 {fill:url(#id5)}
   ]]>
  </style>
    <mask id="id0">
  <linearGradient id="id1" gradientUnits="userSpaceOnUse" x1="8069.17" y1="6212.54" x2="8711.09" y2="6537.27">
   <stop offset="0" style="stop-opacity:1; stop-color:white"/>
   <stop offset="0.270588" style="stop-opacity:-127.502; stop-color:white"/>
   <stop offset="1" style="stop-opacity:0; stop-color:white"/>
  </linearGradient>
     <rect style="fill:url(#id1)" x="4407.49" y="2256.24" width="1823" height="3904.38"/>
    </mask>
  <linearGradient id="id2" gradientUnits="userSpaceOnUse" x1="3190.6" y1="67.2" x2="974.82" y2="5995.93">
   <stop offset="0" style="stop-opacity:1; stop-color:#FEB735"/>
   <stop offset="1" style="stop-opacity:1; stop-color:#FB6219"/>
  </linearGradient>
  <linearGradient id="id3" gradientUnits="userSpaceOnUse" x1="5088.62" y1="20.46" x2="2909.91" y2="6072.85">
   <stop offset="0" style="stop-opacity:1; stop-color:#FB6219"/>
   <stop offset="1" style="stop-opacity:1; stop-color:#FEB735"/>
  </linearGradient>
  <linearGradient id="id4" gradientUnits="userSpaceOnUse" xlink:href="#id3" x1="267.29" y1="2300.85" x2="649.76" y2="6132.66">
  </linearGradient>
  <linearGradient id="id5" gradientUnits="userSpaceOnUse" xlink:href="#id2" x1="5701.8" y1="2314.79" x2="5297.34" y2="6085.07">
  </linearGradient>
 </defs>
 <g id="Layer_x0020_1">
  <metadata id="CorelCorpID_0Corel-Layer"/>
  <g id="_2840530368624">
   <path class="fil0" d="M522.71 5675.04l-522.71 -3309.27 205.31 65.04c364.55,115.48 710.02,386.4 786.17,879.29l397.71 2447.05 -56.15 70.96 0.51 1.39 0 0 0.41 1.18 0.62 1.34 0 0.05 0.46 1.13 0.51 1.23 0.1 0.1 0.46 1.23 0.62 1.23 0 0.1 0.57 1.13 0.57 1.23 0.1 0.15 0.46 1.08 0.57 1.18 0.1 0.21 0.57 1.08 0.62 1.18 0.15 0.26 0.51 0.98 0.62 1.18 0.15 0.26 0.57 0.98 0.72 1.18 0.21 0.36 0.46 0.87 0.72 1.13 0.15 0.36 0.57 0.87 0.72 1.13 0.15 0.26 0.62 0.87 0.67 1.23 0.26 0.31 0.57 0.77 0.72 1.18 0.31 0.41 0.57 0.72 0.72 1.13 0.31 0.41 0.57 0.72 0.77 1.08 0.31 0.46 0.57 0.72 0.82 1.03 0.41 0.46 0.46 0.67 0.77 1.03 0.51 0.57 0.46 0.62 0.77 1.03 0.46 0.57 0.46 0.51 0.87 0.98 0.51 0.62 0.36 0.46 0.98 1.03 0.51 0.62 0.36 0.46 0.93 1.03 0.57 0.51 0.41 0.41 0.93 1.03 0.57 0.57 0.41 0.46 1.03 0.98 0.62 0.62 0.31 0.41 0.98 0.98 0.62 0.46 0.36 0.41 0.98 0.98 0.72 0.62 0.36 0.36 1.7 1.49 0.26 0.31 1.08 0.93 0.67 0.67 0.31 0.21 1.03 0.87 0.82 0.72 0.26 0.15 0.1 0.15c21.7,14.04 47.1,22.57 71.47,22.47l93.12 -184.54 56.87 195.18c-91.27,50.75 -973.38,387.38 -1076.42,-248.24z"/>
   <path class="fil1" style="mask:url(#id0)" d="M5592.56 5669.48l529.34 -3304.64 -205.31 65.04c-364.5,115.53 -710.07,386.4 -786.17,879.29l-404.4 2442.43 56.15 70.96 -0.51 1.34 0 0 -0.41 1.23 -0.57 1.29 -0.05 0.1 -0.41 1.13 -0.57 1.23 -0.1 0.1 -0.46 1.23 -0.62 1.23 0 0.1 -0.51 1.13 -0.62 1.23 -0.05 0.1 -0.51 1.13 -0.57 1.18 -0.05 0.21 -0.62 1.03 -0.62 1.23 -0.15 0.26 -0.46 0.98 -0.67 1.18 -0.15 0.26 -0.51 0.98 -0.77 1.18 -0.21 0.36 -0.46 0.87 -0.72 1.13 -0.15 0.36 -0.57 0.82 -0.72 1.18 -0.15 0.26 -0.62 0.87 -0.67 1.23 -0.21 0.31 -0.57 0.77 -0.77 1.18 -0.31 0.41 -0.57 0.72 -0.72 1.13 -0.31 0.41 -0.51 0.72 -0.82 1.08 -0.31 0.46 -0.51 0.72 -0.82 1.03 -0.41 0.46 -0.46 0.67 -0.82 1.03 -0.46 0.57 -0.46 0.57 -0.82 1.08 -0.46 0.57 -0.46 0.51 -0.82 0.98 -0.57 0.62 -0.36 0.46 -0.93 1.03 -0.51 0.62 -0.41 0.41 -0.93 1.03 -0.57 0.57 -0.41 0.41 -0.93 1.03 -0.57 0.57 -0.41 0.46 -1.03 0.98 -0.57 0.62 -0.36 0.41 -0.93 0.93 -0.67 0.51 -0.36 0.41 -0.98 0.98 -0.72 0.62 -0.31 0.36 -1.75 1.54 -0.26 0.26 -1.03 0.93 -0.72 0.62 -0.31 0.26 -1.03 0.87 -0.82 0.72 -0.21 0.15 -0.15 0.15c-21.7,14.04 -47.05,22.62 -71.42,22.47l-93.17 -184.54 -56.87 195.18c91.32,50.75 973.38,387.38 1076.47,-248.24z"/>
   <path class="fil2" d="M5442.01 5927.55c-193.02,-3.39 -321.2,-10.03 -450.16,-270.3l-1271.4 -5268.27c-284.18,-533.15 -1072.46,-430.16 -1250.98,-142.07 193.02,3.39 319.04,10.18 448.05,270.46l1290.32 5360c245.11,343.98 1055.7,291.18 1234.17,50.18z"/>
   <path class="fil3" d="M638.5 5917.78c192.97,-3.39 321.15,-10.03 450.11,-270.3l1271.4 -5268.27c284.24,-533.2 1072.51,-430.16 1250.98,-142.07 -192.97,3.39 -318.99,10.18 -448,270.4l-1290.32 5360.05c-245.16,343.98 -1055.75,291.18 -1234.17,50.18z"/>
  </g>
 </g>
</svg>
