<svg xmlns="http://www.w3.org/2000/svg" width="48" height="48" viewBox="0 0 48 48">
    <defs>
        <style>.a{fill:#fff;}</style>
    </defs>
    <g transform="translate(0 -49.05)">
        <g transform="translate(2.102 87.683)">
            <path class="a" d="M8.163,77.691H1.051V70.7l7.112-2.375Zm-6.112-1H7.163V69.715L2.051,71.423Z"
                  transform="translate(-1.051 -68.324)"/>
        </g>
        <path class="a" d="M7.164,65.607v17.2h7.115V63.229Z" transform="translate(7.164 14.241)"/>
        <g transform="translate(26.556 82.576)">
            <path class="a" d="M20.394,80.25H13.278V68.155l7.116-2.379Zm-6.116-1h5.116V67.167l-5.116,1.708Z"
                  transform="translate(-13.278 -65.776)"/>
        </g>
        <path class="a" d="M19.393,61.018v26.4h7.113V58.644Z" transform="translate(19.393 9.636)"/>
        <g transform="translate(33.014 49.05)">
            <path class="a" d="M27.386,59l-1.918-8.65-8.645,2.887-.316-.951,9.7-3.24,2.16,9.734Z"
                  transform="translate(-16.507 -49.05)"/>
        </g>
        <g transform="translate(5.305 49.443)">
            <path class="a"
                  d="M3.359,73.348l-.707-.709L15.188,60.077,27.318,69.2,39.26,49.246l.859.517L27.6,70.664,15.281,61.4Z"
                  transform="translate(-2.652 -49.246)"/>
        </g>
        <g transform="translate(0 96.048)">
            <rect class="a" width="48" height="1.002"/>
        </g>
    </g>
</svg>
