<?xml version="1.0" encoding="utf-8"?>
<!-- Generator: Adobe Illustrator 23.0.3, SVG Export Plug-In . SVG Version: 6.00 Build 0)  -->
<svg version="1.1" id="Layer_1" xmlns="http://www.w3.org/2000/svg" xmlns:xlink="http://www.w3.org/1999/xlink" x="0px"
     y="0px"
     viewBox="0 0 279.51 180" style="enable-background:new 0 0 279.51 180;" xml:space="preserve">
<style type="text/css">
	.st0{fill:#FFFFFF;}
	.st1{opacity:0.08;fill:#81B5FF;}
	.st2{opacity:0.2;fill:#A1BDE6;}
	.st3{fill:#4C4C99;}
	.st4{fill:#7C85B3;}
	.st5{fill:#C0B5D9;}
	.st6{fill:#F79C4C;}
	.st7{fill:#E6A86A;}
	.st8{fill:#8F83BE;}
	.st9{fill:#2D2662;}
	.st10{fill:#E67386;}
	.st11{fill:#F8AC98;}
	.st12{fill:#3FB0C6;}
	.st13{fill:#129FBF;}
	.st14{fill:#F492A7;}
	.st15{opacity:0.3;fill:#A1BDE6;}
	.st16{fill:#3FC6AB;}
</style>
    <g>
	<path class="st0" d="M141,179.01"/>
</g>
    <path class="st1" d="M251.19,178.39c12.3-0.08,22.88-8.74,25.36-20.78c4.77-23.26,7.12-59.59-19.94-73.17
	c-41.13-20.63-56.62-20.12-56.08-49.54c0.54-29.42-45.92-59.35-78.69-3.55S75.78,74.36,60.63,70.1C46.8,66.21-5.19,89.22,7.2,157.38
	c2.23,12.27,12.85,21.22,25.32,21.37C82.6,179.35,203.56,178.69,251.19,178.39z"/>
    <path class="st2" d="M31.31,178.18c0,0,18.49-6.4,12.15-25.03c-6.34-18.63,7.32-39.62,28.97-39.99
	c20.07-0.34,44.89,45.11,66.02,26.59s91.1-20.44,106.15,15.22c0.8,11.39,33.54,21.4,13.47,24.04
	C238,181.65,31.31,178.18,31.31,178.18z"/>
    <path class="st2" d="M96.36,119.96c0,0,11.44,9.88,14.64,11.35c3.21,1.47,5.01-8.97-4.61-15.67
	C94.02,107.92,81.93,111.11,96.36,119.96z"/>
    <g>
	<g>
		<path class="st3" d="M232.92,164.79c0,0-5.07-33.75,27.54-53.03C293.08,92.47,259.92,144.3,232.92,164.79z"/>
        <g>
			<path class="st0" d="M233.53,164.93l-1.21-0.28c0.2-0.34,19.81-34.22,31.2-47.7l1.04,0.52
				C253.27,130.83,233.73,164.59,233.53,164.93z"/>
		</g>
	</g>
        <g>
		<path class="st4" d="M231.62,163.85c0,0-19.08-23.71-3.18-49.84C244.33,87.88,242.72,138.8,231.62,163.85z"/>
            <g>
			<path class="st0" d="M232.14,163.74l-1.04,0.22c-0.01-0.33-0.51-32.88,1.99-47.11l1.02,0.02
				C231.62,130.98,232.13,163.41,232.14,163.74z"/>
		</g>
	</g>
        <g>
		<path class="st5" d="M230.04,163.5c0,0-2.5-37.78-26.76-41.05C179.02,119.16,209.19,156.06,230.04,163.5z"/>
            <g>
			<path class="st0" d="M229.67,163.96l0.73-0.92c-0.18-0.25-18.58-25.44-28.2-33.61l-0.58,1.08
				C211.16,138.61,229.49,163.7,229.67,163.96z"/>
		</g>
	</g>
        <path class="st6" d="M236.76,178.71h-12.67c-1.78,0-3.34-1.21-3.79-2.93l-4.14-16h27.44l-3,15.75
		C240.25,177.37,238.64,178.71,236.76,178.71z"/>
        <path class="st7" d="M216.16,159.77l10.06,7.99c6.26,4.98,15.57,1.52,17.07-6.34l0.31-1.65H216.16z"/>
</g>
    <g>
	<g>
		<path class="st8" d="M27.73,169.31c0,0,3.42-22.78-18.59-35.8C-12.88,120.49,9.51,155.48,27.73,169.31z"/>
        <g>
			<path class="st0"
                  d="M27.32,169.4l0.82-0.19c-0.13-0.23-13.37-23.1-21.06-32.2l-0.7,0.35C14,146.39,27.19,169.17,27.32,169.4z"/>
		</g>
	</g>
        <g>
		<path class="st4" d="M28.61,168.68c0,0,12.88-16.01,2.15-33.65C20.03,117.39,21.12,151.76,28.61,168.68z"/>
            <g>
			<path class="st0"
                  d="M28.26,168.6l0.7,0.15c0-0.22,0.35-22.2-1.34-31.8l-0.69,0.02C28.61,146.48,28.27,168.38,28.26,168.6z"/>
		</g>
	</g>
        <g>
		<path class="st5" d="M29.68,168.44c0,0,1.69-25.5,18.06-27.71C64.12,138.51,43.76,163.42,29.68,168.44z"/>
            <g>
			<path class="st0" d="M29.93,168.75l-0.49-0.62c0.12-0.17,12.54-17.17,19.04-22.69l0.39,0.73
				C42.42,151.64,30.05,168.58,29.93,168.75z"/>
		</g>
	</g>
        <path class="st6" d="M25.14,178.71h8.55c1.2,0,2.26-0.81,2.56-1.98l2.8-10.8H20.52l2.03,10.63
		C22.79,177.8,23.88,178.71,25.14,178.71z"/>
        <path class="st7" d="M39.05,165.92l-6.79,5.39c-4.23,3.36-10.51,1.03-11.52-4.28l-0.21-1.12H39.05z"/>
</g>
    <g>
	<g>

			<rect x="58.93" y="126.38" transform="matrix(0.763 -0.6464 0.6464 0.763 -67.8835 68.4832)" class="st5"
                  width="1.04" height="0.87"/>
	</g>
        <g>
		<path class="st5" d="M61.43,125.71l-0.56-0.66l1.57-1.33l0.56,0.66L61.43,125.71z M64.3,123.28l-0.56-0.66l1.57-1.33l0.56,0.66
			L64.3,123.28z M67.17,120.84l-0.56-0.66l1.57-1.33l0.56,0.66L67.17,120.84z M70.04,118.41l-0.56-0.66l1.57-1.33l0.56,0.66
			L70.04,118.41z M72.91,115.98l-0.56-0.66l1.57-1.33l0.56,0.66L72.91,115.98z M75.78,113.55l-0.56-0.66l1.57-1.33l0.56,0.66
			L75.78,113.55z M78.65,111.12l-0.56-0.66l1.57-1.33l0.56,0.66L78.65,111.12z M81.52,108.69l-0.56-0.66l1.57-1.33l0.56,0.66
			L81.52,108.69z M84.39,106.26l-0.56-0.66l1.57-1.33l0.56,0.66L84.39,106.26z M87.26,103.83l-0.56-0.66l1.57-1.33l0.56,0.66
			L87.26,103.83z M90.13,101.4l-0.56-0.66l1.57-1.33l0.56,0.66L90.13,101.4z M93,98.97l-0.56-0.66L94,96.98l0.56,0.66L93,98.97z
			 M95.87,96.54l-0.56-0.66l1.57-1.33l0.56,0.66L95.87,96.54z M98.74,94.1l-0.56-0.66l1.57-1.33l0.56,0.66L98.74,94.1z
			 M101.61,91.67l-0.56-0.66l1.57-1.33l0.56,0.66L101.61,91.67z M104.48,89.24l-0.56-0.66l1.57-1.33l0.56,0.66L104.48,89.24z
			 M107.35,86.81l-0.56-0.66l1.57-1.33l0.56,0.66L107.35,86.81z M110.22,84.38l-0.56-0.66l1.57-1.33l0.56,0.66L110.22,84.38z
			 M113.09,81.95l-0.56-0.66l1.57-1.33l0.56,0.66L113.09,81.95z M115.96,79.52l-0.56-0.66l1.57-1.33l0.56,0.66L115.96,79.52z
			 M118.83,77.09l-0.56-0.66l1.57-1.33l0.56,0.66L118.83,77.09z M121.7,74.66L121.14,74l1.57-1.33l0.56,0.66L121.7,74.66z"/>
	</g>
        <g>

			<rect x="124.16" y="71.13" transform="matrix(0.7631 -0.6463 0.6463 0.7631 -16.7101 97.5344)" class="st5"
                  width="1.04" height="0.87"/>
	</g>
</g>
    <g>
	<g>

			<rect x="54.54" y="137.85" transform="matrix(0.4401 -0.8979 0.8979 0.4401 -93.4724 126.838)" class="st5"
                  width="0.87" height="1.04"/>
	</g>
        <g>
		<path class="st5" d="M122.43,171.92l-1.83-0.9l0.38-0.78l1.83,0.9L122.43,171.92z M119.07,170.28l-1.83-0.9l0.38-0.78l1.83,0.9
			L119.07,170.28z M115.71,168.63l-1.83-0.9l0.38-0.78l1.83,0.9L115.71,168.63z M112.35,166.98l-1.83-0.9l0.38-0.78l1.83,0.9
			L112.35,166.98z M108.99,165.34l-1.83-0.9l0.38-0.78l1.83,0.9L108.99,165.34z M105.63,163.69l-1.83-0.9l0.38-0.78l1.83,0.9
			L105.63,163.69z M102.27,162.04l-1.83-0.9l0.38-0.78l1.83,0.9L102.27,162.04z M98.92,160.4l-1.83-0.9l0.38-0.78l1.83,0.9
			L98.92,160.4z M95.56,158.75l-1.83-0.9l0.38-0.78l1.83,0.9L95.56,158.75z M92.2,157.1l-1.83-0.9l0.38-0.78l1.83,0.9L92.2,157.1z
			 M88.84,155.46l-1.83-0.9l0.38-0.78l1.83,0.9L88.84,155.46z M85.48,153.81l-1.83-0.9l0.38-0.78l1.83,0.9L85.48,153.81z
			 M82.12,152.16l-1.83-0.9l0.38-0.78l1.83,0.9L82.12,152.16z M78.76,150.52l-1.83-0.9l0.38-0.78l1.83,0.9L78.76,150.52z
			 M75.4,148.87l-1.83-0.9l0.38-0.78l1.83,0.9L75.4,148.87z M72.04,147.22l-1.83-0.9l0.38-0.78l1.83,0.9L72.04,147.22z
			 M68.68,145.58l-1.83-0.9l0.38-0.78l1.83,0.9L68.68,145.58z M65.33,143.93l-1.83-0.9l0.38-0.78l1.83,0.9L65.33,143.93z
			 M61.97,142.28l-1.83-0.9l0.38-0.78l1.83,0.9L61.97,142.28z M58.61,140.64l-1.83-0.9l0.38-0.78l1.83,0.9L58.61,140.64z"/>
	</g>
        <g>

			<rect x="124.18" y="171.99" transform="matrix(0.4402 -0.8979 0.8979 0.4402 -85.1421 208.4529)" class="st5"
                  width="0.87" height="1.04"/>
	</g>
</g>
    <g>
	<path class="st0" d="M183.79,169.64c0,1.33-1.14,2.41-2.54,2.41h-54.82c-1.4,0-2.54-1.08-2.54-2.41V73.7
		c0-1.33,1.14-2.41,2.54-2.41h54.82c1.4,0,2.54,1.08,2.54,2.41V169.64z"/>
        <g>
		<g>
			<path class="st5" d="M180.76,125.54h-52.9V75.33h52.9V125.54z M128.43,125.23h51.77v-49.6h-51.77V125.23z"/>
		</g>
	</g>
        <path class="st3" d="M181.25,70.34H164.7c-0.14-0.03-0.29-0.04-0.44-0.04h-20.43c-0.15,0-0.3,0.02-0.44,0.04h-16.96
		c-1.92,0-3.49,1.51-3.49,3.36v95.94c0,1.85,1.56,3.36,3.49,3.36h54.82c1.92,0,3.49-1.51,3.49-3.36V73.7
		C184.74,71.85,183.17,70.34,181.25,70.34z M182.85,169.64c0,0.81-0.72,1.47-1.59,1.47h-54.82c-0.88,0-1.59-0.66-1.59-1.47V73.7
		c0-0.81,0.72-1.47,1.59-1.47h15.16c-0.02,0.11-0.03,0.22-0.03,0.33v0.78c0,1.25,1.02,2.27,2.27,2.27h20.43
		c1.25,0,2.27-1.02,2.27-2.27v-0.78c0-0.11-0.01-0.23-0.03-0.33h14.75c0.88,0,1.59,0.66,1.59,1.47V169.64z"/>
        <circle class="st9" cx="145.9" cy="72.86" r="1.3"/>
        <g>
		<circle class="st9" cx="159.03" cy="72.86" r="1.02"/>
            <circle class="st9" cx="161.68" cy="72.86" r="1.02"/>
	</g>
        <path class="st10" d="M178.68,133.32c0,1.25-1.02,2.27-2.27,2.27h-7.57c-1.25,0-2.27-1.02-2.27-2.27v-2.46
		c0-1.25,1.02-2.27,2.27-2.27h7.57c1.25,0,2.27,1.02,2.27,2.27V133.32z"/>
        <path class="st5" d="M176.71,138.85c0,0.22-0.42,0.41-0.95,0.41h-44.08c-0.52,0-0.95-0.18-0.95-0.41l0,0
		c0-0.22,0.42-0.41,0.95-0.41h44.08C176.29,138.45,176.71,138.63,176.71,138.85L176.71,138.85z"/>
        <g>
		<path class="st3" d="M174.02,125.54c0.01-0.26,0.02-0.52,0.02-0.78c0-10.94-8.87-19.81-19.81-19.81
			c-10.94,0-19.81,8.87-19.81,19.81c0,0.26,0.01,0.52,0.02,0.78H174.02z"/>
            <g>
			<path class="st11" d="M157.15,88.75c-12.21-0.59-10.42,7.9-9.4,10.82c0.89,0.65,1.71,1.1,2.46,1.41l0.35,5.38
				c0,0,2.76,3.54,4.48,0.01c-0.05-1.84-0.09-3.85-0.12-5.49c1.27-0.73,1.97-1.91,2.16-2.44C157.85,97.24,157.15,88.75,157.15,88.75
				z"/>
                <path class="st9" d="M158.03,87.55c0-1.71-1.39-3.1-3.1-3.1c-1.05,0-1.98,0.52-2.54,1.33c-0.23-0.34-0.62-0.57-1.07-0.57
				c-0.51,0-0.94,0.29-1.15,0.72c-3.02,0.44-5.09,2.06-5.82,5.94c-0.89,4.71,3.06,9.16,5.86,9.16c-0.92-1.25-1.25-2.93-1.01-4.21
				c-0.1,0.03-0.21,0.05-0.32,0.05c-0.63,0-1.13-0.51-1.13-1.13c0-0.63,0.51-1.13,1.13-1.13c0.37,0,0.69,0.18,0.9,0.45
				c0.74-1.62,1.84-2.79,2.05-2.83C158.43,91.94,158.03,88.52,158.03,87.55z"/>
                <path class="st0"
                      d="M154.23,100.46c0.84,0,1.52-0.68,1.52-1.52h-3.04C152.71,99.78,153.39,100.46,154.23,100.46z"/>
                <g>
				<path class="st4" d="M150.74,95.93c0,0.96-0.78,1.73-1.73,1.73c-0.96,0-1.73-0.78-1.73-1.73c0-0.96,0.77-1.73,1.73-1.73
					C149.97,94.2,150.74,94.97,150.74,95.93z"/>
                    <path class="st4" d="M153.37,99.24h-0.46c-0.06,0-0.12,0.02-0.17,0.05l-3.85-2.42c-0.06-0.04-0.16,0.02-0.23,0.12
					c-0.07,0.11-0.07,0.22-0.01,0.26l3.89,2.45c0.01,0,0.02,0,0.02,0.01c0.04,0.15,0.18,0.26,0.34,0.26h0.46
					c0.2,0,0.36-0.16,0.36-0.36C153.73,99.4,153.57,99.24,153.37,99.24z"/>
                    <path class="st5" d="M150.2,95.93c0,0.66-0.53,1.19-1.19,1.19c-0.66,0-1.19-0.53-1.19-1.19c0-0.66,0.53-1.19,1.19-1.19
					C149.67,94.74,150.2,95.27,150.2,95.93z"/>
			</g>
		</g>
            <path class="st11"
                  d="M136.06,116.86c-1.05,2.42-1.64,5.09-1.64,7.9c0,0.26,0.01,0.52,0.02,0.78h7.63v-8.67H136.06z"/>
            <path class="st11"
                  d="M172.4,116.86h-5.82v8.67h7.45c0.01-0.26,0.02-0.52,0.02-0.78C174.04,121.95,173.46,119.28,172.4,116.86z"/>
	</g>
        <path class="st12" d="M141.65,133.32c0,1.25-1.02,2.27-2.27,2.27h-7.57c-1.25,0-2.27-1.02-2.27-2.27v-2.46
		c0-1.25,1.02-2.27,2.27-2.27h7.57c1.25,0,2.27,1.02,2.27,2.27V133.32z"/>
        <path class="st5" d="M176.71,144.08c0,0.22-0.42,0.41-0.95,0.41h-44.08c-0.52,0-0.95-0.18-0.95-0.41l0,0
		c0-0.22,0.42-0.41,0.95-0.41h44.08C176.29,143.67,176.71,143.85,176.71,144.08L176.71,144.08z"/>
        <path class="st5" d="M176.71,148.99c0,0.22-0.42,0.41-0.95,0.41h-44.08c-0.52,0-0.95-0.18-0.95-0.41l0,0
		c0-0.22,0.42-0.41,0.95-0.41h44.08C176.29,148.58,176.71,148.77,176.71,148.99L176.71,148.99z"/>
        <path class="st5" d="M176.82,154.22c0,0.22-0.42,0.41-0.95,0.41H131.8c-0.52,0-0.95-0.18-0.95-0.41l0,0c0-0.22,0.42-0.41,0.95-0.41
		h44.08C176.4,153.82,176.82,154,176.82,154.22L176.82,154.22z"/>
        <path class="st5" d="M176.82,159.45c0,0.22-0.42,0.41-0.95,0.41H131.8c-0.52,0-0.95-0.18-0.95-0.41l0,0c0-0.22,0.42-0.41,0.95-0.41
		h44.08C176.4,159.04,176.82,159.22,176.82,159.45L176.82,159.45z"/>
        <path class="st4" d="M155.98,166.97c0,1.18-0.96,2.14-2.14,2.14s-2.14-0.96-2.14-2.14c0-1.18,0.96-2.14,2.14-2.14
		S155.98,165.78,155.98,166.97z"/>
        <rect x="174.45" y="165.11" class="st4" width="4.02" height="4.02"/>
        <polygon class="st4" points="128.54,166.97 132.94,164.43 132.94,169.51 	"/>
</g>
    <g>
	<path class="st11" d="M195.63,122.63c0,0-4.25-1.75-6.67-7.67c-1.56-5.78-1.56-5.78-1.56-5.78s1.29-3.02,0-1.73
		c0.13-0.85,0.23-2.94-1.82-2.94c-1.32,0.61-1.65,2.21,0,4.45c0.67,0.91,1.09,10.2,3.36,12.52c2.4,2.46,1.92,2,4.57,4
		C194.67,124.16,195.63,122.41,195.63,122.63z"/>
        <path class="st11" d="M211.45,128.43c0,0,3.42,2.98,4.02,3.88c0.65,0.96-5.87,8.19-5.87,8.19s0.52,3.38-0.92,4.3
		c-0.23,0.63-1.04,1.27-0.55-0.81c-0.12-1.84-1.13-3.4-0.46-4.27c0.67-0.87,4.09-6.35,4.09-6.35l-2.8-1.86L211.45,128.43z"/>
        <path class="st9" d="M196.1,177.33c0,0-0.08-3.02-1.04-3.02c-1.15-1.15-2.83,0.23-2.83,0.23s-0.54,0.81-1.41,1.19
		c-0.87,0.38-2.6,0.74-2.29,1.47c0.26,0.61,4.88,0.28,4.88,0.28l1.18-0.53l0.14,0.55C194.74,177.51,195.44,177.71,196.1,177.33z"/>
        <path class="st11" d="M193,171.03c0,0-0.09,4.15,1.19,4.17c1.25,0.19,1.09-3.69,1.06-4.16L193,171.03z"/>
        <path class="st13" d="M199.1,137.52l-7.85,14.89l1.6,18.43h-0.12c-0.26,0-0.48,0.21-0.48,0.48c0,0.26,0.21,0.48,0.48,0.48h0.2
		l0,0.01l0.15-0.01h2.3c0.26,0,0.48-0.21,0.48-0.48c0-0.25-0.2-0.46-0.45-0.47c0.74-2.96,3.3-14.03,1.05-16.63
		c5.83-3.56,7.24-9.24,9.17-11.15C207.06,141.66,207.36,134.39,199.1,137.52z"/>
        <path class="st9" d="M208.74,178.35c0,0-0.08-3.02-1.04-3.02c-1.15-1.15-2.83,0.23-2.83,0.23s-0.54,0.81-1.41,1.19
		c-0.87,0.38-2.6,0.74-2.29,1.47c0.26,0.61,4.88,0.28,4.88,0.28l1.18-0.53l0.14,0.55C207.38,178.53,208.08,178.73,208.74,178.35z"/>
        <path class="st11" d="M205.64,172.05c0,0-0.09,4.15,1.19,4.17c1.25,0.19,1.09-3.69,1.06-4.16L205.64,172.05z"/>
        <path class="st12" d="M207.81,154.93c1.1-4.79,3.62-11.23-0.3-16.74c-2.48,2.48-6.94,2.47-6.94,2.47l4.55,31.48
		c-0.2,0.06-0.35,0.25-0.35,0.48c0,0.28,0.21,0.5,0.48,0.5h2.65c0.26,0,0.48-0.22,0.48-0.5c0-0.19-0.1-0.35-0.24-0.43
		C208.47,169.98,210.81,157.93,207.81,154.93z"/>
        <path class="st10" d="M211.45,128.42c-5.89-5.01-10.5-3.42-11.98-3.34c-1.44-0.83-4.6-2.87-4.6-2.87l-1.72,2.92
		c0,0,1.71,2.12,4.74,4.23c0.08,4.51-0.38,8.96-0.06,10.57c5.92,4.15,10.24-1.04,10.24-1.04s-0.5-5.14-0.97-8.54l1.89,1.16
		C208.97,131.5,210.5,130.03,211.45,128.42z"/>
        <path class="st11" d="M201.35,118.19c0,0-0.62,4.07,0.29,5.25c0.16,0.13,0.34,0.23,0.53,0.31l-0.12,2.58c0,0,0.66,1.36,1.83,0
		c0.03-0.84,0.04-1.73,0.03-2.45c0.58-0.18,1.07-0.61,1.29-1.33C205.72,120.9,205.79,115.51,201.35,118.19z"/>
        <path class="st9" d="M206.84,117.44c-0.71-0.58-1.33-1.02-1.8-1.58c-0.22-1.02-1.12-1.78-2.2-1.78c-1.25,0-2.26,1.01-2.26,2.26
		c0,0.38-0.02,1.57,0.98,2.42c1.37,0.76,3.14,0.45,3.31,1.71c0.02,0.15,0.02,0.31,0.01,0.46c0.26,0.04,0.46,0.26,0.46,0.54
		c0,0.3-0.24,0.54-0.54,0.54c-0.06,0-0.12-0.01-0.17-0.03c-0.28,0.73-0.6,1.44-0.6,1.44s1.18,0.35,2.47-1.28
		C207.79,120.5,207.99,118.46,206.84,117.44z"/>
</g>
    <path class="st14" d="M56.51,178.77l-9.26-9.73v-8.11c0.4-0.16,0.68-0.56,0.68-1.02v-4.78c0-0.01,0-0.03,0-0.04h5.14
	c0.65,0,1.17-0.53,1.17-1.19c0-0.66-0.52-1.19-1.17-1.19h-2.55c0.43-0.39,0.69-0.93,0.69-1.53v-29.38c0-1.19-1.03-2.15-2.31-2.15
	h-7.68c-1.27,0-4.53-0.09-4.53,2.15l2.22,29.38c0,1.19,1.03,2.15,2.31,2.15h0.35c-0.09,0.17-0.14,0.36-0.14,0.57
	c0,0.66,0.52,1.19,1.17,1.19h3.18c0,0.01,0,0.03,0,0.04v4.78c0,0.46,0.28,0.86,0.68,1.02v8.01c-0.02,0.01-0.04,0.02-0.05,0.04
	l-9.26,9.73c-0.12,0.13-0.08,0.38,0.11,0.56c0.18,0.18,0.43,0.22,0.56,0.09l8.65-9.08v7.56c0,0.23,0.18,0.41,0.4,0.41
	c0.22,0,0.4-0.18,0.4-0.41v-7.45l8.6,9.03c0.12,0.13,0.37,0.09,0.56-0.09C56.59,179.15,56.64,178.9,56.51,178.77z"/>
    <g>
	<path class="st9" d="M58.12,178.41c0,0,0.08-3.02,1.04-3.02c1.1,0,2.83,0.23,2.83,0.23s0.54,0.81,1.41,1.19
		c0.87,0.38,2.6,0.74,2.29,1.47c-0.26,0.61-4.88,0.28-4.88,0.28l-1.18-0.53l-0.14,0.55C59.49,178.59,58.79,178.79,58.12,178.41z"/>
        <path class="st11" d="M59.25,172.67c0,0-0.05,2.22-0.02,2.75c0,0.86,1.44,2.82,1.9-0.09c0.29-2.25,0.52-2.73,0.52-2.73
		L59.25,172.67z"/>
        <path class="st9" d="M48.75,176.51c0,0,1.16-2.79,2.05-2.44c1.02,0.39,2.56,1.23,2.56,1.23s0.21,0.95,0.88,1.62
		c0.67,0.67,2.16,1.63,1.61,2.2c-0.47,0.47-4.65-1.49-4.65-1.49l-0.92-0.92l-0.32,0.46C49.96,177.17,49.23,177.1,48.75,176.51z"/>
        <path class="st11" d="M51.37,171.45c0,0-0.36,2.19-0.4,2.72c-0.12,0.85,1.03,3,1.89,0.17c0.6-2.19,0.9-2.63,0.9-2.63L51.37,171.45z
		"/>
        <path class="st6" d="M57.89,141.32l8.01,12.35l-4.27,19.05l-2.35,0.02c0,0-0.76-13.82,0.62-16.07c-1.56-2.83-9.06-13.22-9.06-13.22
		S55.23,139.53,57.89,141.32z"/>
        <path class="st7" d="M52.2,142.4l9.61,11.55L53.6,172.2l-2.25-0.63c0,0,1.21-13.86,3.06-17.2c-2.89,0.17-12.5-2.94-9.18-10.96
		C46.54,140.81,52.2,142.4,52.2,142.4z"/>
        <path class="st3" d="M61.83,134.1c0,0-1.01-13.62-8.24-14.99c-2.54-0.25-7.07-0.84-10.6,2.68c-1.98,2.21-2.48,6.15-2.2,7.5
		c2.97,0,4.16,3.07,4.16,3.07l0.35,11.04c0,0,8.4,3.86,13.29-1.04c0.23-5.37-0.25-8.21-0.25-8.21L61.83,134.1z"/>
        <path class="st11"
              d="M40.74,128.56l4.21-0.11l3.58,6.34l7.19,0.54l-1.21,2.46h-8.83C45.68,137.8,40.74,133.67,40.74,128.56z"/>
        <g>
		<path class="st11" d="M52.9,110.68c-7.01-0.34-5.98,4.53-5.39,6.21c0.51,0.37,0.98,0.63,1.41,0.81l0.2,3.09
			c0,0,1.59,2.03,2.57,0.01c-0.03-1.05-0.05-2.21-0.07-3.15c0.73-0.42,1.13-1.09,1.24-1.4C53.3,115.55,52.9,110.68,52.9,110.68z"/>
            <path class="st9" d="M53.4,109.99c0-0.98-0.8-1.78-1.78-1.78c-0.6,0-1.14,0.3-1.46,0.76c-0.13-0.2-0.36-0.33-0.61-0.33
			c-0.29,0-0.54,0.17-0.66,0.41c-1.74,0.25-2.92,1.18-3.34,3.41c-0.51,2.7,1.75,5.26,3.36,5.26c-0.53-0.72-0.72-1.68-0.58-2.41
			c-0.06,0.02-0.12,0.03-0.18,0.03c-0.36,0-0.65-0.29-0.65-0.65c0-0.36,0.29-0.65,0.65-0.65c0.21,0,0.4,0.1,0.52,0.26
			c0.42-0.93,1.06-1.6,1.17-1.62C53.63,112.5,53.4,110.54,53.4,109.99z"/>
            <path class="st0" d="M51.22,117.39c0.48,0,0.87-0.39,0.87-0.87h-1.74C50.35,117,50.74,117.39,51.22,117.39z"/>
            <g>
			<path class="st4" d="M49.22,114.79c0,0.55-0.45,0.99-0.99,0.99c-0.55,0-0.99-0.44-0.99-0.99c0-0.55,0.44-0.99,0.99-0.99
				C48.77,113.8,49.22,114.25,49.22,114.79z"/>
                <path class="st4" d="M50.72,116.69h-0.27c-0.04,0-0.07,0.01-0.1,0.03l-2.21-1.39c-0.03-0.02-0.09,0.01-0.13,0.07
				c-0.04,0.06-0.04,0.13-0.01,0.15l2.23,1.4c0,0,0.01,0,0.01,0c0.03,0.09,0.1,0.15,0.2,0.15h0.27c0.12,0,0.21-0.09,0.21-0.21
				C50.93,116.79,50.84,116.69,50.72,116.69z"/>
                <path class="st5" d="M48.91,114.79c0,0.38-0.31,0.68-0.68,0.68c-0.38,0-0.68-0.31-0.68-0.68c0-0.38,0.31-0.68,0.68-0.68
				C48.6,114.11,48.91,114.42,48.91,114.79z"/>
		</g>
	</g>
</g>
    <g>
	<path class="st5" d="M79.4,179.07c0,0.26-0.21,0.46-0.46,0.46l0,0c-0.26,0-0.46-0.21-0.46-0.46v-39.66c0-0.26,0.21-0.46,0.46-0.46
		l0,0c0.26,0,0.46,0.21,0.46,0.46V179.07z"/>
        <path class="st5" d="M43.27,179.07c0,0.26-0.21,0.46-0.46,0.46l0,0c-0.26,0-0.46-0.21-0.46-0.46v-39.66c0-0.26,0.21-0.46,0.46-0.46
		l0,0c0.26,0,0.46,0.21,0.46,0.46V179.07z"/>
        <path class="st4" d="M79.4,139.39c0,0.24-0.21,0.43-0.47,0.43H42.81c-0.26,0-0.47-0.19-0.47-0.43l0,0c0-0.24,0.21-0.43,0.47-0.43
		h36.13C79.19,138.95,79.4,139.15,79.4,139.39L79.4,139.39z"/>
</g>
    <polygon class="st7" points="78.19,138.95 75.07,138.95 73.46,131.66 79.46,131.66 "/>
    <g>
	<polygon class="st4" points="69.76,137.8 54.51,137.8 59.06,126.81 75.64,126.81 	"/>
        <rect x="54.51" y="137.8" class="st5" width="15.26" height="1.21"/>
        <circle class="st0" cx="64.61" cy="133.13" r="1.73"/>
        <rect x="45.68" y="137.8" class="st4" width="8.83" height="1.21"/>
        <rect x="46.24" y="138.09" class="st3" width="1.34" height="0.56"/>
        <circle class="st3" cx="53.76" cy="138.45" r="0.41"/>
        <rect x="47.93" y="138.09" class="st3" width="1.34" height="0.56"/>
</g>
    <path class="st4" d="M76.81,130.62c0.4,2.02-1.61-1.67,0-2.89c1.61-1.21-0.36-2.19-0.36-2.19s2.03,0.24,1.63,1.42
	C77.67,128.13,76.41,128.6,76.81,130.62z"/>
    <g>
	<g>
		<g>
			<path class="st12" d="M110.63,111.27c-5.2,0-9.43-4.23-9.43-9.43c0-5.2,4.23-9.43,9.43-9.43c5.2,0,9.43,4.23,9.43,9.43
				C120.06,107.04,115.83,111.27,110.63,111.27z M110.63,94.84c-3.86,0-7,3.14-7,7c0,3.86,3.14,7,7,7c3.86,0,7-3.14,7-7
				C117.62,97.98,114.49,94.84,110.63,94.84z"/>
		</g>
	</g>
        <path class="st10" d="M117.62,101.84c0,3.86-3.14,7-7,7v2.43c5.2,0,9.43-4.23,9.43-9.43c0-5.2-4.23-9.43-9.43-9.43v2.43
		C114.49,94.84,117.62,97.98,117.62,101.84z"/>
</g>
    <g>
	<g>
		<rect x="205.95" y="56.25" class="st15" width="32.32" height="40.98"/>
        <rect x="210.35" y="59.15" class="st0" width="23.51" height="21.22"/>
        <g>
			<path class="st16" d="M222.11,70.3c-4.31,0-7.81,3.5-7.81,7.81h15.62C229.92,73.8,226.42,70.3,222.11,70.3z"/>

            <ellipse transform="matrix(0.1602 -0.9871 0.9871 0.1602 121.9196 274.2127)" class="st16" cx="222.11"
                     cy="65.46" rx="4.05" ry="4.05"/>
		</g>
	</g>
        <path class="st16" d="M233.86,83.95c0,0.4-0.33,0.73-0.73,0.73h-22.48c-0.4,0-0.73-0.33-0.73-0.73l0,0c0-0.4,0.33-0.73,0.73-0.73
		h22.48C233.54,83.23,233.86,83.55,233.86,83.95L233.86,83.95z"/>
        <path class="st0" d="M234.08,87.6c0,0.4-0.33,0.73-0.73,0.73h-22.48c-0.4,0-0.73-0.33-0.73-0.73l0,0c0-0.4,0.33-0.73,0.73-0.73
		h22.48C233.75,86.87,234.08,87.2,234.08,87.6L234.08,87.6z"/>
        <path class="st0" d="M233.86,91.6c0,0.4-0.33,0.73-0.73,0.73h-22.48c-0.4,0-0.73-0.33-0.73-0.73l0,0c0-0.4,0.33-0.73,0.73-0.73
		h22.48C233.54,90.87,233.86,91.19,233.86,91.6L233.86,91.6z"/>
</g>
    <g>
	<rect x="155.21" y="9.87" class="st12" width="46.52" height="32.55"/>
        <g>
		<path class="st0" d="M199.06,22.69c0,0.26-0.38,0.47-0.86,0.47h-40.7c-0.47,0-0.86-0.21-0.86-0.47l0,0c0-0.26,0.38-0.47,0.86-0.47
			h40.7C198.68,22.23,199.06,22.44,199.06,22.69L199.06,22.69z"/>
            <path class="st0" d="M199.06,25.68c0,0.26-0.38,0.47-0.86,0.47h-40.7c-0.47,0-0.86-0.21-0.86-0.47l0,0c0-0.26,0.38-0.47,0.86-0.47
			h40.7C198.68,25.21,199.06,25.42,199.06,25.68L199.06,25.68z"/>
            <path class="st0" d="M199.06,28.67c0,0.26-0.38,0.47-0.86,0.47h-40.7c-0.47,0-0.86-0.21-0.86-0.47l0,0c0-0.26,0.38-0.47,0.86-0.47
			h40.7C198.68,28.2,199.06,28.41,199.06,28.67L199.06,28.67z"/>
            <path class="st0" d="M199.06,31.65c0,0.26-0.38,0.47-0.86,0.47h-40.7c-0.47,0-0.86-0.21-0.86-0.47l0,0c0-0.26,0.38-0.47,0.86-0.47
			h40.7C198.68,31.19,199.06,31.39,199.06,31.65L199.06,31.65z"/>
	</g>
        <path class="st0" d="M166.79,16.33c0,0.7-0.57,1.26-1.26,1.26h-6.35c-0.7,0-1.26-0.57-1.26-1.26v-1.68c0-0.7,0.57-1.26,1.26-1.26
		h6.35c0.7,0,1.26,0.57,1.26,1.26V16.33z"/>
        <path class="st0" d="M198.7,38.86c0,0.25-0.2,0.45-0.45,0.45h-6.75c-0.25,0-0.45-0.2-0.45-0.45l0,0c0-0.25,0.2-0.45,0.45-0.45h6.75
		C198.49,38.4,198.7,38.6,198.7,38.86L198.7,38.86z"/>
</g>
    <rect x="78.87" y="37.95" class="st15" width="38.07" height="24.2"/>
    <rect x="78.87" y="44.96" class="st5" width="38.07" height="1.04"/>
    <rect x="78.87" y="54.91" class="st5" width="38.07" height="1.04"/>
    <path class="st3" d="M116.94,43.41l-0.39-0.36l-11.06,8.63c-0.23-0.18-0.54-0.29-0.88-0.29c-0.23,0-0.45,0.05-0.64,0.14l-1.9-5.03
	c0.3-0.2,0.49-0.51,0.49-0.86c0-0.6-0.58-1.09-1.29-1.09c-0.71,0-1.29,0.49-1.29,1.09c0,0.26,0.11,0.5,0.29,0.69l-8.01,7.12
	c-0.23-0.19-0.55-0.3-0.89-0.3c-0.12,0-0.24,0.01-0.35,0.04l-1.05-3.19c0.4-0.18,0.68-0.55,0.68-0.96c0-0.6-0.58-1.09-1.29-1.09
	c-0.71,0-1.29,0.49-1.29,1.09c0,0.25,0.1,0.48,0.27,0.67l-6.81,7.02l0.45,0.31l6.81-7.02c0.17,0.07,0.37,0.11,0.57,0.11
	c0.02,0,0.04,0,0.06,0l1.09,3.31c-0.26,0.2-0.43,0.49-0.43,0.81c0,0.6,0.58,1.09,1.29,1.09c0.71,0,1.29-0.49,1.29-1.09
	c0-0.13-0.03-0.25-0.08-0.37l8.15-7.24c0.17,0.06,0.35,0.1,0.54,0.1c0.09,0,0.19-0.01,0.27-0.02l1.97,5.2
	c-0.12,0.17-0.19,0.36-0.19,0.57c0,0.6,0.58,1.09,1.29,1.09c0.71,0,1.29-0.49,1.29-1.09c0-0.14-0.03-0.27-0.09-0.39L116.94,43.41z"
    />
    <g>
	<rect x="37.24" y="178.62" class="st3" width="196.9" height="0.87"/>
</g>
    <g>
	<path class="st7" d="M64.92,26.87c-4.57,0-8.27,2.45-8.27,5.48c0,0.48,0.09,0.94,0.26,1.38l-1.51,4.36l5.27-1.01l-0.02-0.03
		c1.25,0.5,2.71,0.79,4.27,0.79c4.57,0,8.27-2.45,8.27-5.48S69.48,26.87,64.92,26.87z"/>
        <g>
		<path class="st0" d="M61.98,32.65c0,0.66-0.54,1.2-1.2,1.2c-0.66,0-1.2-0.54-1.2-1.2c0-0.66,0.54-1.2,1.2-1.2
			C61.44,31.45,61.98,31.99,61.98,32.65z"/>
            <path class="st0" d="M66.08,32.65c0,0.66-0.54,1.2-1.2,1.2c-0.66,0-1.2-0.54-1.2-1.2c0-0.66,0.54-1.2,1.2-1.2
			C65.54,31.45,66.08,31.99,66.08,32.65z"/>
            <path class="st0" d="M70.26,32.65c0,0.66-0.54,1.2-1.2,1.2c-0.66,0-1.2-0.54-1.2-1.2c0-0.66,0.54-1.2,1.2-1.2
			C69.72,31.45,70.26,31.99,70.26,32.65z"/>
	</g>
</g>
    <g>
	<path class="st7" d="M240.99,17.6c-9.26,0-16.76,4.97-16.76,11.11c0,0.96,0.18,1.9,0.53,2.79l-3.07,8.83l10.69-2.05l-0.05-0.05
		c2.53,1.01,5.49,1.59,8.65,1.59c9.26,0,16.76-4.97,16.76-11.11C257.75,22.57,250.25,17.6,240.99,17.6z"/>
        <g>
		<path class="st0" d="M235.03,29.31c0,1.35-1.09,2.44-2.44,2.44c-1.35,0-2.44-1.09-2.44-2.44c0-1.35,1.09-2.44,2.44-2.44
			C233.94,26.87,235.03,27.96,235.03,29.31z"/>
            <path class="st0" d="M243.34,29.31c0,1.35-1.09,2.44-2.44,2.44c-1.35,0-2.44-1.09-2.44-2.44c0-1.35,1.09-2.44,2.44-2.44
			C242.25,26.87,243.34,27.96,243.34,29.31z"/>
            <path class="st0" d="M251.82,29.31c0,1.35-1.09,2.44-2.44,2.44c-1.35,0-2.44-1.09-2.44-2.44c0-1.35,1.09-2.44,2.44-2.44
			C250.73,26.87,251.82,27.96,251.82,29.31z"/>
	</g>
</g>
    <g>
	<path class="st12" d="M58.17,65.01c-8.37,0-15.15,4.5-15.15,10.04c0,0.87,0.17,1.72,0.48,2.52l-2.77,7.98l9.66-1.85l-0.04-0.05
		c2.28,0.91,4.96,1.44,7.82,1.44c8.37,0,15.15-4.5,15.15-10.04C73.32,69.5,66.54,65.01,58.17,65.01z"/>
        <g>
		<path class="st0" d="M52.79,75.59c0,1.22-0.99,2.2-2.2,2.2c-1.22,0-2.2-0.99-2.2-2.2c0-1.22,0.99-2.2,2.2-2.2
			C51.8,73.39,52.79,74.37,52.79,75.59z"/>
            <path class="st0" d="M60.3,75.59c0,1.22-0.99,2.2-2.2,2.2c-1.22,0-2.2-0.99-2.2-2.2c0-1.22,0.99-2.2,2.2-2.2
			C59.32,73.39,60.3,74.37,60.3,75.59z"/>
            <path class="st0" d="M67.96,75.59c0,1.22-0.99,2.2-2.2,2.2c-1.22,0-2.2-0.99-2.2-2.2c0-1.22,0.99-2.2,2.2-2.2
			C66.98,73.39,67.96,74.37,67.96,75.59z"/>
	</g>
</g>
</svg>
