<?xml version="1.0" encoding="UTF-8"?>
<!DOCTYPE svg PUBLIC "-//W3C//DTD SVG 1.1//EN" "http://www.w3.org/Graphics/SVG/1.1/DTD/svg11.dtd">
<!-- Creator: CorelDRAW 2018 (64-Bit Evaluation Version) -->
<svg xmlns="http://www.w3.org/2000/svg" xml:space="preserve" width="85.9391mm" height="23.8125mm" version="1.1" style="shape-rendering:geometricPrecision; text-rendering:geometricPrecision; image-rendering:optimizeQuality; fill-rule:evenodd; clip-rule:evenodd"
viewBox="0 0 3269.96 906.06"
 xmlns:xlink="http://www.w3.org/1999/xlink">
 <defs>
  <style type="text/css">
   <![CDATA[
    .fil0 {fill:#00AEEF}
    .fil1 {fill:#313B4A}
    .fil3 {fill:#00AEEF;fill-rule:nonzero}
    .fil2 {fill:#313B4A;fill-rule:nonzero}
   ]]>
  </style>
 </defs>
 <g id="Layer_x0020_1">
  <metadata id="CorelCorpID_0Corel-Layer"/>
  <path class="fil0" d="M562.14 893.45c-34.24,8.22 -69.98,12.61 -106.74,12.61 -251.51,0 -455.4,-203.89 -455.4,-455.39 0,-229.2 169.33,-418.82 389.71,-450.66l-2.17 540.33c2.1,177.53 43.42,288.55 174.61,353.12z"/>
  <path class="fil1" d="M524.26 0.45c218.83,33.19 386.54,222.12 386.54,450.22 0,158.79 -81.28,298.57 -204.49,380.06 -127.58,-75.89 -189.11,-119.81 -182.04,-268.35l0 -561.94z"/>
  <path class="fil2" d="M1124.39 353.69c-27.64,27.48 -41.54,64.06 -41.54,109.9 0,45.69 14.7,81.31 43.93,106.87 29.39,25.56 64.06,38.34 104.31,38.34 40.25,0 74.6,-13.42 102.88,-40.26 26.84,-26.68 40.26,-61.82 40.26,-105.43 0,-43.61 -14.06,-79.55 -42.17,-107.51 -28.27,-27.96 -63.1,-42.17 -104.15,-42.49 -41.22,-0.32 -75.72,13.26 -103.51,40.58zm-42.49 -126.29l0 79.97c14.7,-25.08 35.95,-44.41 64.06,-57.83 27.48,-14.85 58.14,-22.2 92.17,-22.2 62.46,0 115.34,21.72 158.47,65.34 43.29,43.13 64.86,99.36 64.86,168.53 0,69.17 -21.41,125.24 -64.38,168.37 -42.81,42.97 -95.85,64.54 -158.95,64.54 -34.03,0 -65.18,-6.71 -93.61,-20.13 -28.27,-13.42 -49.2,-32.27 -62.62,-56.23l0 210.97c-1.83,54.97 -16.75,70.59 -87.22,73.38l0 -580.4c-1.63,-65.35 35.77,-93.47 87.22,-94.3z"/>
  <path class="fil2" d="M1567.91 260.08c29.87,-21.88 65.97,-32.75 108.47,-32.75 42.33,0 77.48,10.86 105.11,32.59 27.8,21.73 43.61,52.72 47.28,92.97 -55.11,18.23 -75.02,-6.34 -106.23,-34.99 -12.15,-11.15 -29.55,-12.94 -46.8,-12.94 -17.1,0 -31.63,3.67 -43.45,11.02 -12.78,5.75 -20.77,15.81 -24.28,29.87 -3.36,14.06 -2.88,25.24 1.44,33.55 7.19,14.38 24.76,25.56 52.71,33.55l65.97 16.13c77.48,19.01 116.14,62.62 116.14,130.83 0,40.42 -16.77,73.01 -50.48,98.08 -34.02,24.12 -73.8,36.1 -119.33,36.1 -45.69,0 -85.3,-13.1 -119.01,-39.46 -33.7,-26.2 -50.8,-61.02 -51.44,-104.63 29.61,-0.3 68.89,-9.83 100.73,38.23 3.84,5.8 10.83,8.94 17.32,12.89 19.69,11.97 40.58,17.73 63.26,16.45 22.68,-1.28 40.26,-7.35 52.71,-18.21 12.46,-11.02 19.49,-24.28 21.09,-39.94 1.28,-15.65 -3.52,-28.11 -14.54,-37.54 -10.86,-9.42 -25.88,-16.29 -44.89,-20.61l-61.34 -14.22c-43.29,-11.66 -75.24,-28.75 -95.69,-51.6 -19.65,-23.64 -27.8,-53.19 -24.28,-88.82 3.36,-35.62 19.97,-64.38 49.52,-86.58z"/>
  <path class="fil2" d="M1885.09 694.16l0 -626.94c0.02,-56.27 50.31,-66.53 87.22,-66.63l0 639.59c-0.34,41.44 -26.98,55.73 -87.22,53.98z"/>
  <path class="fil2" d="M2481.77 459.39c0,19.81 -0.32,31.15 -0.96,34.35l-363.26 0c4.31,36.1 20.29,65.97 47.76,89.77 26.52,21.89 56.23,32.91 89.3,32.91 46.79,0 84.44,-11.02 109.86,-36.35 23.64,-23.56 63.94,-30.83 100.85,-4.06 -18.37,37.7 -46.17,66.77 -83.39,87.22 -37.06,20.61 -77.96,30.83 -122.53,30.83 -64.06,0 -118.69,-21.57 -164.22,-64.86 -43.29,-43.29 -64.86,-100 -64.86,-169.81 0,-69.97 21.57,-126.04 64.54,-168.37 43.13,-42.17 97.61,-63.42 163.74,-63.74 66.14,0 119.49,21.41 160.07,64.06 42.01,42.49 63.1,98.56 63.1,168.05zm-130.67 -122.36c-24.92,-21.41 -55.91,-32.11 -92.65,-32.11 -36.9,0 -68.53,10.7 -95.05,32.11 -26.2,22.85 -41.53,52.56 -45.85,88.66l277.48 0c-4.31,-36.1 -19.01,-65.81 -43.93,-88.66z"/>
  <path class="fil2" d="M2780.42 227.09c69.01,0 125.56,24.12 169.81,72.21 -23.84,57.67 -70.07,42.02 -104.51,27.75 -20.51,-8.5 -42.36,-14.65 -67.21,-14.65 -42.01,0 -77.8,13.58 -107.19,40.89 -29.55,26.84 -44.41,62.46 -44.41,107.03 0,44.41 15.01,80.51 44.89,108.31 30.03,27.96 65.81,41.85 107.67,41.85 22.81,0 43.72,-3.79 61.96,-12.9 30.34,-15.16 84.99,-35.52 109.77,24.4 -44.57,47.92 -100.96,71.89 -168.85,71.89 -68.05,0 -125.56,-21.57 -172.53,-64.7 -46.8,-43.77 -70.13,-100 -70.13,-168.85 0,-68.85 23,-124.92 68.85,-168.05 46.01,-43.13 103.19,-64.86 171.89,-65.18z"/>
  <path class="fil2" d="M3171.82 56.27l0 171.21 0 81.1 0 318.42c-0.19,49.93 -21.91,70.96 -91.11,68.06l0 -386.48 0 -81.1 0 -90.25c3.34,-59.65 27.63,-83.06 91.11,-80.96z"/>
  <path class="fil3" d="M3171.83 227.49l23.91 0c56.88,1.9 74.66,21.47 74.21,81.1l-98.12 0 -91.11 0c-69.46,1.22 -80.65,-30.28 -84.11,-81.1l84.11 0 91.11 0z"/>
 </g>
</svg>
