<?xml version="1.0" encoding="UTF-8"?>
<!DOCTYPE svg PUBLIC "-//W3C//DTD SVG 1.1//EN" "http://www.w3.org/Graphics/SVG/1.1/DTD/svg11.dtd">
<!-- Creator: CorelDRAW 2018 (64-Bit Evaluation Version) -->
<svg xmlns="http://www.w3.org/2000/svg" xml:space="preserve" width="158.75mm" height="108.094mm" version="1.1" style="shape-rendering:geometricPrecision; text-rendering:geometricPrecision; image-rendering:optimizeQuality; fill-rule:evenodd; clip-rule:evenodd"
viewBox="0 0 15875.04 10809.41"
 xmlns:xlink="http://www.w3.org/1999/xlink">
 <defs>
  <style type="text/css">
   <![CDATA[
    .fil0 {fill:#FBD13E}
   ]]>
  </style>
 </defs>
 <g id="Layer_x0020_1">
  <metadata id="CorelCorpID_0Corel-Layer"/>
  <path class="fil0" d="M19.79 10298.12l60.65 159.68c64.2,-23.5 74.87,20.85 206.47,81.17l207.29 104.83c53.62,30.64 147.55,84.48 212.47,93.02l238.38 35.95c77.01,15.6 381.11,23.33 483.07,35.26 49.85,5.84 82.02,-8.98 129.67,-5.51 171.06,12.42 134.16,-11.47 253.29,2.36 57.13,6.63 78.23,-8.08 133.59,-14.86 49.45,-6.06 73.31,5.2 116.24,3.45 45.35,-1.84 90.71,-18.29 136.8,-23.26 50.9,-5.49 76.55,5.4 128.09,-0.13 47.77,-5.13 90.44,-20.99 140.4,-29.87 97.99,-17.42 150.96,-5.96 272.31,-36.63 102.52,-25.89 178.17,-21.1 271.19,-41.59 106,-23.35 176.68,-57.13 286.81,-71.21 134.6,-17.23 754.5,-194.39 864.16,-231.23 398.53,-133.91 804.81,-282.56 1194.2,-444.48l1104.99 -515.58c171.49,-101.29 355.07,-164.36 519.57,-265.48 167.49,-102.95 334.57,-178.83 497.51,-284.3 82.11,-53.15 180.03,-85.14 264.51,-135.24 92.36,-54.75 127.27,-97.34 236.01,-148.15 112.59,-52.61 145.6,-82.91 238.6,-146.95 73.01,-50.26 198.96,-82.33 240.11,-145.76 -22.51,-20.86 18.71,-6.55 -39.1,-19.2 -11.5,-2.51 -36.57,-2.38 -55.96,-6.27l-221.86 -28.78c-43.1,-2.85 -75.05,14.71 -114.94,-11.23 5.58,-26.75 -21.88,-33.22 104.4,-72.57 293.89,-91.6 842.59,-263.12 1086.59,-355.81 214.01,-81.28 393.44,-162.51 598.26,-258.11 196.99,-91.95 406.25,-162.98 597.09,-256.22 96.07,-46.93 171.89,-103.34 267,-149.52 95.21,-46.23 191.71,-84.8 287.61,-131.4 90.74,-44.08 163.38,-104.75 253.86,-150.65 92.5,-46.94 191.9,-83.45 277.58,-139.87 96.07,-63.28 152.22,-97.94 259.72,-149.66 106.26,-51.13 153.83,-100.22 242.97,-150.51 95.13,-53.69 182.17,-82.68 266.68,-146.4l1000.03 -616.95c79.31,-57.85 177.35,-83.6 255.22,-149.05 93.04,-78.23 155.16,-90.49 252.45,-150.62 128.67,-79.51 12.27,-35.08 249.21,-152.72 117.06,-58.13 167.6,-64.88 261.62,-146.67 16.88,-14.69 409.86,-267.26 471.81,-325.88 37.87,-35.83 67.25,-45.17 115.76,-75.36 54.11,-33.68 61.37,-59.01 100.66,-91.85 34.13,-28.51 77.12,-45.74 110.9,-76.8l191.7 -178.44c47.72,-53.32 156.4,-127.16 228.1,-229.79 15.7,-22.45 20.94,-23.12 46.4,-47.61 64.19,-61.74 160.83,-214.94 208.18,-297.92 32.91,-57.68 78.26,-181.49 82.54,-236.74 7.58,-97.59 -34.88,-88.26 34.33,-123.4l-101.51 -267.29c-47.6,12.44 -38.25,17.72 -75.08,-32.46 -73.06,-99.56 -205.35,-162.06 -312.23,-219.84 -62.61,-33.85 -82.18,-29.39 -141.28,-55.39l-143.32 -51.18c-126.16,-38.1 -217.39,-48.16 -300.59,-71.15 -48.56,-13.41 -108.1,-4.79 -160.86,-12.62 -35.53,-5.29 -308.29,23.63 -347.18,33.94 -132.94,35.29 -274.37,93.38 -400.87,148.32 -114.06,49.53 -201.67,128.94 -317.03,190.5l-278.93 207.14c-57.36,62.07 -70.79,55.13 -131.12,107.69 -53.63,46.72 -55.76,63.49 -121.16,112.06 -77.66,57.69 -150.76,161.24 -232.59,227.62 -58.06,47.08 -54.21,66.78 -113.08,115.62 -64.71,53.68 -44.05,64.08 -110.88,116.31l-385.64 413.65c-23.81,29.96 -33.05,28.63 -58.34,51.45 -34.74,31.34 -27.28,38.53 -51.21,65.91 -22.06,25.22 -36.49,27.56 -60.75,50.52 -35.51,33.63 -21.48,35.88 -49.75,66.06l-178.6 164.24c-64.61,48.69 -170.34,172.62 -240.73,224.41 -43.68,32.16 -100.12,93.88 -135.14,103.84l-119.04 -127.18c-40.29,-79.85 -22,-119.39 -25.41,-190.4 -3.25,-67.52 -29.95,-128.21 -32.9,-191.08l-38.47 -535.68c8.87,-70.83 -20.21,-118.87 -17.94,-184.13l-2.97 -168.04c-7.62,-67.02 12.87,-83.02 2.13,-174.83 -12.09,-103.46 15.76,-238.89 20.24,-342.81 0.4,-9.25 23.75,-132.55 30.84,-152.87 19.04,-54.68 33.41,-106.95 56.75,-150.39 10.12,-18.85 75.34,-118.63 91,-135.08 32.23,-33.93 33.79,-27.11 56.87,-62.59l166.25 -179.8c76.16,-59.61 175.09,-177.11 268.4,-231.8 60.44,-35.42 118.43,-56.43 175.5,-96.91 169.08,-119.91 381.33,-172.46 529.16,-280.64 58.28,-42.65 89.28,-65.59 158.13,-105.82 79.5,-46.43 69.06,-66.95 122.7,-110.62 105.81,-86.16 144.26,-156.78 229.78,-248.7 128.2,-137.82 299.57,-439.04 350.76,-624.97 32.56,-118.32 112.41,-287.03 -70.27,-200.55l-251.68 133.76c-395.26,211.49 -406.95,195.17 -426.54,-54.69 -6.17,-78.42 -26.42,-140.42 -49.3,-218 -32.72,-111.01 -36.94,-354.12 -112.96,-403.1 -33.41,31.49 -34.71,98.34 -47.46,145.64l-157.74 496.27c-20.67,41.62 -8.75,25.28 -22.92,68.03 -59.63,179.84 -104.44,273.31 -287.23,349.23 -257.91,107.12 -484.63,132.58 -701.7,312.42 -62.65,51.91 -77.21,37.81 -129.6,107.47 -40.3,53.59 -63.52,55.08 -98.72,112.27l-92.34 124.74c-107.25,170.66 -185.78,353.61 -205.08,553.7 -3.98,41.27 -10.79,33.93 -16.43,70.87l-5.48 241.88c8.05,77.6 -12.26,89.84 -4.36,155.32 10.64,88.02 13.02,86.66 9.84,170.02 -2.1,55.39 18.85,109.58 27.41,169.96 8.81,62.11 -1.52,107.25 11.56,170.75 11.68,56.74 33.65,118.01 40.23,174.26 21.76,185.71 22.18,168.38 70.12,354.51 32.71,126.99 30.48,218.13 74.51,356.79 21.05,66.29 40.23,125.06 61.43,192.51 15.45,49.1 49.22,128.95 35.86,176.36 -65.9,-75.46 -79.28,-24.57 -138.17,-125.43 -33.44,-57.29 -203.6,-297.77 -242.69,-330.38 -37.12,-30.94 -189.64,-231.12 -254.73,-282.24 -73.07,-57.41 -130.59,-135.71 -194.32,-198.5 -35.14,-34.65 -35.5,-13.97 -73.91,-53.44 -63.72,-65.42 -73.82,-65.06 -131.69,-120.5 -70.29,-67.34 -143.28,-106.99 -216.86,-170.88 -71.64,-62.24 -211.66,-140.98 -301.35,-199.8 -216.27,-141.83 -454.87,-241.76 -695.37,-346.32 -116.64,-50.71 -211.41,-73.67 -337.17,-120.85 -113.5,-42.61 -402.31,-109.86 -523.65,-119.4 -54.53,-4.29 -45.87,-11.6 -89.72,-18.11l-271.96 -25.98c-112.21,-24.26 -248.18,1.75 -377.22,-9.83 -75.03,-6.73 -326.61,28.77 -411.84,44.36 -67.58,12.37 -120.62,4.67 -192.89,19.69 -140.21,29.15 -296.25,83.17 -437.21,119.28 -170.88,43.78 -698.67,281.92 -828.05,382.78 -64.21,50.06 -101.91,70.68 -178.31,116.1 -71.02,42.23 -73.29,75.33 -149.02,119.2l-233.31 187.72c-91.39,95.08 -367.57,369.35 -426.37,473.48 -22.1,39.14 -34.71,37.14 -61.57,70.17l-481.33 840.32c-65.29,119.4 -112.94,281.25 -156.51,409.26l-152.75 606.2 -63.13 637.26c0,52.39 -11.99,48.15 -14.01,90.94 -1.49,31.71 8.94,64.24 6.5,101.13 -2.47,37.24 -11.77,43.85 -7.89,94.12 2.98,38.15 11.8,66.44 11.5,103.37 -0.3,38.39 -9.72,50.76 -6.56,95.01l68.39 596.87c26.84,97.4 47.32,373.93 101.7,387.23 35.57,8.72 3664.9,-1384.54 3799.08,-1435.5 358.73,-136.24 3742.38,-1443.63 3807.13,-1432.1 63.23,25.34 73.62,114.4 47.39,155.63 -31.55,49.59 -350.18,285.53 -417.01,340.69l-282.93 234.7c-83.39,50.1 -85.46,63.94 -141.94,112.92 -48.83,42.37 -106.13,58 -155.57,105.75l-302.15 226.21c-74.27,42.66 -96.65,55.14 -154.85,106.74 -53.29,47.24 -101.14,64.4 -163.24,101.9 -61.76,37.28 -92.12,77.87 -158.99,116.37 -67.88,39.1 -105.33,47.13 -167.51,99.76 -107.31,90.85 -215.3,117.44 -327.66,204.84 -112.86,87.78 -245.01,119.72 -360.13,199.62 -123.77,85.91 -224.39,129.62 -366.35,189.13 -131.19,55 -249.58,126.8 -378.52,190.32 -215.29,106.06 -620.67,261.67 -850.55,322.14 -142.39,37.46 -251.23,56.09 -399.77,101.75 -153.25,47.1 -245.21,36.26 -383.56,74.4 -100.01,27.56 -305.99,2.32 -353.52,87.21 42.72,46.33 62.73,12.68 120.58,17.05 47.36,3.58 38.64,18.21 109.83,16.97l1028.55 105.75c50.28,5.18 68.45,-2.96 114.35,7.14l344.23 39.1c51.16,3.72 60.68,-7.63 115.63,4.09l34.71 59.16c-80.8,-13.73 -221.64,50.08 -318.1,70.94 -110.61,23.93 -174.59,16.05 -297.31,48.75 -105.66,28.13 -184.18,14.2 -300.84,42.26 -81.1,19.49 -134.1,8.51 -289.24,33.77 -60.12,9.76 -91.6,-4.7 -147.79,0.38 -56.2,5.08 -89.31,22.23 -144.99,18.49 -109.99,-7.37 -314.15,17.99 -409.66,-2.3l-269.31 -11.24c-61.26,0.67 -53.76,-17.37 -130.51,-14.13l-1060.01 -100.92c-30.68,-0.9 -46.75,5.27 -79.23,2.14 -33.43,-3.2 -31.22,-8.78 -62.83,-13.04 -178.2,-24.01 -621.08,-27.87 -796.57,-55.92 -52.52,-8.41 -81.78,9.93 -137.17,0.39 -45.47,-7.82 -227.81,-14.28 -279.67,-9.53 -78.15,7.14 -75.47,-7.25 -132.76,-8.72l-279.28 12.84c-66.35,8.46 -71.78,-10.3 -134.55,-5.46 -58.59,4.53 -85.09,19.36 -142.86,11.88 -71.9,-9.28 -166.38,14.94 -289.27,13.06 -51.92,-0.79 -99.66,20.68 -150.87,28.28 -151.38,22.44 -48.81,-18.51 -292.59,42.52 -103.63,25.94 -183.81,13.46 -293.97,49.22 -446.83,145.14 -839.94,292.83 -1121.9,666.92 -100.47,133.27 -158.46,302.33 -198.74,468.26l-35.76 326.33c1.84,55.88 12.55,87.17 8.81,141.13 -7.78,112.72 40.47,187.86 41.87,297.03l-30.89 17.16z"/>
 </g>
</svg>
