<?xml version="1.0" encoding="UTF-8"?>
<!DOCTYPE svg PUBLIC "-//W3C//DTD SVG 1.1//EN" "http://www.w3.org/Graphics/SVG/1.1/DTD/svg11.dtd">
<!-- Creator: CorelDRAW 2018 (64-Bit Evaluation Version) -->
<svg xmlns="http://www.w3.org/2000/svg" xml:space="preserve" width="89.8158mm" height="159.225mm" version="1.1" style="shape-rendering:geometricPrecision; text-rendering:geometricPrecision; image-rendering:optimizeQuality; fill-rule:evenodd; clip-rule:evenodd"
viewBox="0 0 8981.76 15922.83"
 xmlns:xlink="http://www.w3.org/1999/xlink">
 <defs>
  <style type="text/css">
   <![CDATA[
    .str1 {stroke:#1B9BD9;stroke-width:20;stroke-miterlimit:22.9256}
    .str0 {stroke:#3B9CFF;stroke-width:20;stroke-miterlimit:22.9256}
    .fil2 {fill:#1B9BD9}
    .fil0 {fill:#3B9CFF}
    .fil1 {fill:#E7F2FC}
   ]]>
  </style>
 </defs>
 <g id="Layer_x0020_1">
  <metadata id="CorelCorpID_0Corel-Layer"/>
  <g id="_2128065330016">
   <g>
    <path class="fil0 str0" d="M2785.06 9630.83l3929.52 53.44c181.3,2076.19 23.64,4152.23 -721.77,6228.37l-2165.19 -53.44c-714.09,-2076.09 -1041.33,-4152.23 -1042.55,-6228.37z"/>
    <path class="fil0 str0" d="M8116.61 1379.32l-2363.88 8287.63 810.61 15.25c258.19,-236.42 455.22,-510.42 616.59,-806.44l-250.56 -366.96 248.55 -317.53 233.35 133.89c219.93,-219.17 373.09,-446.32 471.03,-679.91l-442.62 -200.34 291.11 -430.52 442.37 102.53c1043.14,-1928.84 893.75,-2748.68 508.47,-4184.59l-393.23 423.63 -202.46 -134.04 530.78 -559.93c1.02,-369.15 -70.31,-1137.33 -500.12,-1282.67z"/>
    <path class="fil1 str1" d="M8083.25 1439.48l-2330.49 8227.57 -405.32 -1.41c-907.05,-3137.49 441.07,-6177.56 2735.8,-8226.16z"/>
    <path class="fil0 str0" d="M2750.92 37.35l2269.22 9623.84 1140.79 17.07c976.92,-4402.64 -886,-8781.04 -1499.81,-8347.72l-462.52 326.54 -165.09 -138.81 145.28 -672.31c59.96,-277.54 -902.66,-626.85 -1427.87,-808.61z"/>
    <path class="fil1 str1" d="M2750.92 37.35l2298.06 9624.24 -1435.05 -19.5c-1552.15,-3461.99 -1799.58,-6655.18 -863.01,-9604.74z"/>
    <path class="fil0 str0" d="M31.75 4311.33l3930.07 5335.47 654.08 8.89c63.44,-240.35 48.29,-475.1 -13.09,-706.51l-467.77 -93.55 0 -280.72 294.05 -26.72c41.98,-214.49 20.41,-404.69 -53.49,-574.72l-521.22 80.17 -40.11 -360.84 454.44 -133.66c-363.36,-1659.08 -1285.07,-2640.25 -2646.46,-3087.52l-53.45 400.95 -267.33 13.39 80.22 -534.61c-428.13,-126.84 -877.21,-144.83 -1349.94,-40.01z"/>
    <path class="fil1 str1" d="M31.75 4311.33l3930.07 5335.47 -1176.76 -15.96c-2390.91,-1441.17 -2894.8,-3307.62 -2753.31,-5319.51z"/>
   </g>
   <polygon class="fil2" points="4679.32,5219.54 3730.38,9215.83 5251.32,9383.96 "/>
  </g>
 </g>
</svg>
