<?xml version="1.0" encoding="UTF-8"?>
<!DOCTYPE svg PUBLIC "-//W3C//DTD SVG 1.1//EN" "http://www.w3.org/Graphics/SVG/1.1/DTD/svg11.dtd">
<!-- Creator: CorelDRAW 2018 (64-Bit Evaluation Version) -->
<svg xmlns="http://www.w3.org/2000/svg" xml:space="preserve" width="125.836mm" height="158.75mm" version="1.1" style="shape-rendering:geometricPrecision; text-rendering:geometricPrecision; image-rendering:optimizeQuality; fill-rule:evenodd; clip-rule:evenodd"
viewBox="0 0 12583.6 15875.02"
 xmlns:xlink="http://www.w3.org/1999/xlink">
 <defs>
  <style type="text/css">
   <![CDATA[
    .fil1 {fill:#FBD13E}
    .fil0 {fill:#FBF0C8}
   ]]>
  </style>
 </defs>
 <g id="Layer_x0020_1">
  <metadata id="CorelCorpID_0Corel-Layer"/>
  <g id="_2091701350096">
   <path class="fil0" d="M887.12 5616.4l156.65 1029.47c0,0 190.19,1521.84 257.35,1600.17 67.16,78.32 346.92,1510.63 346.92,1510.63l123.07 1264.45 570.69 1040.68 2159.64 -55.96 3524.8 -156.69 626.65 -44.74 458.78 -2025.37 257.39 -1477.05 268.55 -1667.28 179.03 -1174.96 -1477.05 -246.18 -1790.4 0 -1063.05 514.73 -1208.5 481.16 -1353.98 -44.74 -1152.54 -447.58 -883.99 -100.74z"/>
   <path class="fil1" d="M7051.88 14887.57l944.83 -8.79 14.2 315.8 -960.1 1.83 1.07 -308.84zm-4287.3 -2.57l946.06 -5.79 8.97 311.37 -956.45 6.95 1.42 -312.53zm5554.45 -2604.74l249.81 1922.79 -6411.65 4.4c41.16,-550.74 125.77,-1315.01 218.08,-1848.26 31.62,-182.57 137.08,-123.65 348.79,-121.69l5379.58 -2.09c64.65,-0.06 163.49,-2.98 215.39,44.85zm3299.47 -3989.78c-33.14,65.5 -11.98,25.16 -40.67,73.39 -9.66,16.24 -32.04,52.89 -39.02,62.82l-100.67 109.22c-84.68,199.39 -455.97,443 -738.11,563.56 -363.16,155.2 -699.83,170.01 -1135.18,155.3l281.83 -2167.07c36.93,-159.35 201.92,-471.95 303.57,-915.59 96.23,-420.01 109.18,-706.26 109.72,-1155.94 568.23,6.22 1225.39,555.97 1474.28,1137.34 237.97,555.89 236.23,1692.26 -115.75,2136.97zm-2502.45 -730.43l-110.04 731.96c22.41,264.14 -207.67,1346.73 -272.13,1673.89 -108.02,548.16 -262.86,1087.35 -364.14,1596.72l-5967.31 3.51c-142.61,-44.56 -620.24,-2560.15 -599.33,-2747.04 -27.82,-34.56 -15.1,-7.99 -37.18,-69.37 -14.47,-40.23 -17.9,-64.86 -24.75,-104.42 -13.38,-77.09 -25.61,-162.75 -37.54,-241l-152.99 -1359.88c-38.67,-380.74 -324.51,-721.58 -361.18,-1212.52 775.7,147.96 2184.55,1379.63 4070.14,308.41 602.05,-342.03 959.95,-737.24 1973.47,-672.68 402.9,25.67 1758.41,286.19 2283.39,365.33 8.25,461.7 -307.69,818.52 -349.58,1252.25 -15.48,160.26 -27.96,331.96 -50.83,474.84zm-8103.97 -4567.88l8579.2 2.82 -6.96 2161.27c-765.3,-57.5 -1578,-321.32 -2351.38,-361.54 -2015.87,-104.87 -2311.28,1504.45 -4208.09,1017.67 -240.03,-61.6 -1714.8,-644.28 -1902.21,-756.56l-110.56 -2063.66zm-102.46 4565.56l108.43 681.43 -2.43 113.82c16.72,29.07 11.99,-21.28 34.41,81.78 10.71,49.26 5.71,45.29 10.3,91.87 8.49,86.11 14.13,125.94 27.9,215.19 81.2,526.05 178.95,1063.86 289.14,1589.06 444.18,2117.15 463.46,906.71 169.34,3305.02 -48.15,392.57 -212.09,999.73 372.18,1202.21 129.23,44.78 111.81,-4.86 168.89,96.35 2.39,897.06 300.25,935.74 1151.79,935.74 364.03,0.01 662.93,45.11 910.11,-154.56 259.4,-209.56 218.19,-415.66 242.77,-819.74l1981.14 -16.8c34.66,426.11 -17.69,602.44 242.1,832.62 234.07,207.37 555.99,158.19 906.13,158.19 1008.39,-0.01 1112.58,-73.84 1163.62,-995.86 481.57,-122.6 594.48,-427.63 522.72,-994.67 -34.44,-272.13 -265.03,-1832.32 -219.86,-2049.3l448.71 -1899.73c862.02,-53.4 1310.73,59.31 2151.19,-585.76 1177.39,-903.69 1296.55,-2840.66 430.31,-4021.74 -162.46,-221.52 -459.38,-487.61 -733.8,-650.2 -377.64,-223.75 -572.02,-235.9 -1019.75,-359.59l-1.21 -1310.76c266.92,-37.2 440.97,-55.35 451.6,-330.27 10.6,-274.06 -200.29,-353.36 -455.23,-354.1l-9628.61 0.81c-261.76,-0.63 -515.04,-21.97 -601.66,207.57 -109.03,288.89 101.34,405.13 296.49,480.86 111.44,1122.44 51.58,2641.59 337.94,3527.4 102.42,316.81 302.19,628.52 245.32,1023.17z"/>
   <path class="fil1" d="M3486.72 1329.82c160.59,-844.72 1419.95,-651.02 2038.86,-651.02 667.59,0 1845.09,-193.33 2036.16,650.88l-4075.03 0.14zm-713.12 -0.4c-713.79,2.19 -1428.22,0.99 -2142.05,0.05 -315.69,-0.42 -722.91,16.99 -612.4,435.76 81.66,309.44 535.47,236.22 870.01,236.21 920.97,-0.01 9448.56,47.12 9633.49,-30.98 293.15,-123.8 248.35,-575.48 -78.21,-632.8l-2166.7 -7.24c-443.57,-1518.16 -1573.14,-1322.03 -2752.14,-1322.03 -1163.86,0 -2318.1,-197.21 -2751.98,1321.03z"/>
   <path class="fil1" d="M2959.2 12899.91c-322.78,73.42 -368.47,447.85 -124.64,604.12 123.12,78.91 780.38,83.62 944.66,39.41 285.42,-76.81 315.25,-477.04 76.63,-610.39 -121.46,-67.87 -738.82,-69.05 -896.65,-33.14z"/>
   <path class="fil1" d="M6982.39 12898.15c-336.62,77.19 -369.28,465.23 -126.66,609.69 125.5,74.72 784.85,79.53 947.71,34.98 279.36,-76.43 291.73,-475.68 73.7,-606.41 -116.13,-69.63 -738.28,-74.14 -894.75,-38.26z"/>
   <path class="fil1" d="M5107.01 13560.04c437.11,0 882.26,80.19 916.09,-299.49 40.18,-451.17 -454.36,-369.83 -851.69,-369.75 -684.42,0.12 -607.07,669.24 -64.4,669.24z"/>
  </g>
 </g>
</svg>
