<?xml version="1.0" encoding="UTF-8"?>
<!DOCTYPE svg PUBLIC "-//W3C//DTD SVG 1.1//EN" "http://www.w3.org/Graphics/SVG/1.1/DTD/svg11.dtd">
<!-- Creator: CorelDRAW 2018 (64-Bit Evaluation Version) -->
<svg xmlns="http://www.w3.org/2000/svg" xml:space="preserve" width="127.956mm" height="158.95mm" version="1.1" style="shape-rendering:geometricPrecision; text-rendering:geometricPrecision; image-rendering:optimizeQuality; fill-rule:evenodd; clip-rule:evenodd"
viewBox="0 0 12795.64 15895.05"
 xmlns:xlink="http://www.w3.org/1999/xlink">
 <defs>
  <style type="text/css">
   <![CDATA[
    .str0 {stroke:#F50A2B;stroke-width:20;stroke-miterlimit:22.9256}
    .str1 {stroke:#FBD13E;stroke-width:20;stroke-miterlimit:22.9256}
    .str2 {stroke:#FBF0C8;stroke-width:20;stroke-miterlimit:22.9256}
    .fil1 {fill:#FBD13E}
    .fil0 {fill:#FBF0C8}
   ]]>
  </style>
 </defs>
 <g id="Layer_x0020_1">
  <metadata id="CorelCorpID_0Corel-Layer"/>
  <g id="_2128060728352">
   <path class="fil0 str0" d="M1668.04 2733.48c-4.26,111.04 248.87,940.71 304.13,1110.82 23.54,72.46 46.87,124.66 69.48,203.96l408.8 1317.61c204.99,667.44 323.32,221.58 321.56,1158.43 -1.32,700.43 41.17,1268.61 83.1,1971.23 35.47,594.22 -27.17,2436.04 -104.95,3122.14 -17.25,152.08 -1.89,311.51 -13.65,466.51 -21.4,281.79 -174.02,1597.34 -124.62,1727.85 56.94,115.64 217.32,96.88 288.17,177.28 19.96,22.64 24.43,23.87 48.28,44.32l232.52 299.88c3.32,4.88 7.34,11.11 10.63,16l320.87 464.94c180.91,198.68 309.76,324.42 542.01,464.33l656.41 253.68c251.4,77.96 1004.74,157.53 1303.22,126.09 86.18,-2579.53 60.19,-4642.6 43.19,-7087.21 -6.24,-897.29 29.42,-1823.16 21.96,-2754.67l-3.28 -2577.75c0,-362.22 126.09,-337.82 -49.41,-651.62 -79.8,-142.67 -217.54,-390.49 -268.41,-543.82l-70.42 289.47c-21.14,109.61 -37.5,178.98 -74.57,279.6 -161.06,-2.39 -82.54,-23.36 -301.81,-240.62l-722.17 -892.4c-156.1,17.68 -589.93,206.36 -739.69,275.21 -126.61,58.22 -232.49,101.79 -372.2,167.45 -107.5,50.54 -264.33,106.64 -367.11,156.24 -379.35,183.04 -1082.3,466.98 -1442.04,655.04z"/>
   <path class="fil0 str0" d="M7496.61 5437.61c0,-160.38 -1.76,-320 -0.42,-480.17 2.52,-300.28 -52.1,-365.42 57.79,-406.47 38.93,-14.53 798.63,-5.77 908.79,-5.77 1230.98,0 1143.48,-88.09 1136.29,234.61l-6.3 1564.46c-142.37,75.84 -931.56,508.24 -1054.7,503.87 -45.56,-1.62 -1021.37,-468.6 -1039.97,-512.86l-1.48 -897.67zm-171 -2834.59c-108.93,-54.17 -148.94,-165.68 -227.43,-256.23 -53.16,29.66 -21.12,-12.71 -65.62,63.44 -130.26,222.9 -155.22,741.84 -154.88,1005.61l-11.29 4978.66c-7.18,589.23 28.73,1163.77 25.25,1743.74l-22.24 2148.14c-0.08,470.74 17.62,3279.2 102.43,3494.35 134.1,26.16 241.46,-21.38 378.27,-31.4 66.37,-4.86 140.89,-1.71 203.92,-5.91l764.23 -148.09c54.13,-26.68 11.57,-22.03 18.17,-34.48 85.53,-0.33 140.38,-13.53 206.29,-35.57l235.66 -92.13c353.27,-195.29 472.97,-222.14 720.99,-590.46 253.59,-376.6 6.22,-75.34 160.85,-296.66l59.84 -117.64c2.55,-5.6 5.69,-11.99 8.19,-17.63l493.34 -582.78c-26.44,-590.36 -133.76,-1216.41 -154.6,-1820.59 -6.97,-202.04 -23.98,-737.43 -63.22,-904.7 -40.4,-172.27 2.21,-411.66 -33.05,-580.21 -23.52,-112.45 -7.65,13.37 -24.13,-90.35 -10.79,-67.87 -5.14,-171.9 -4.55,-243.25 5.32,-642.85 -9.94,-1281.95 13.73,-1920.3 27.56,-743.05 78.03,-1314.67 78.5,-2098.06 0,-199.27 236.21,-599.17 317.11,-810.9 48.57,-127.12 90.3,-280.54 136.16,-416.35 117,-346.48 659.35,-2104.96 644.48,-2209.76 -555.21,-296.07 -1554.5,-685.72 -2139.47,-960.53 -134.48,-63.17 -613.42,-280.02 -772.18,-290.78 -31.68,43.59 -61.63,96.45 -99.46,149.51 -47.28,66.31 -71.18,88.34 -110.28,143.88 -73.28,104.03 -142.62,208.99 -212.88,292.64l-225.03 280.15c-38.39,45.48 -194.23,224.64 -247.1,254.66z"/>
   <path class="fil0 str1" d="M2531.02 7236.36c-682.6,16.29 -1246.08,-142.56 -1769.99,-360.88 -127.12,-52.99 -653.08,-267.91 -654.45,-399.37 -0.35,-33.55 246.5,-686.44 280.41,-775.87 156.45,-412.68 405.98,-1173.14 518.42,-1602.45 78.91,-301.22 119.43,-569.17 214.48,-849.84 135.42,-399.84 114.12,-284.94 232.14,-529.99 38.78,-80.54 68.34,-140.64 136.13,-156.54l348.35 1164.18c123.45,429.32 378,1328.51 524.24,1718.44 122.37,326.23 141.38,277.57 260.86,503.86 95.68,181.23 65.56,941.71 23.34,1055.8 -38.48,104.01 -88.01,131.91 -113.93,232.66zm-862.98 -4502.88c359.74,-188.06 1062.69,-472 1442.04,-655.04 102.78,-49.6 259.61,-105.7 367.11,-156.24 139.71,-65.66 245.59,-109.23 372.2,-167.45 149.76,-68.85 583.59,-257.53 739.69,-275.21l722.17 892.4c219.27,217.26 140.75,238.23 301.81,240.62 37.07,-100.62 53.43,-169.99 74.57,-279.6l70.42 -289.47c50.87,153.33 188.61,401.15 268.41,543.82 175.5,313.8 49.41,289.4 49.41,651.62l3.28 2577.75c7.46,931.51 -28.2,1857.38 -21.96,2754.67 17,2444.61 42.99,4507.68 -43.19,7087.21 -298.48,31.44 -1051.82,-48.13 -1303.22,-126.09l-656.41 -253.68c-232.25,-139.91 -361.1,-265.65 -542.01,-464.33l-320.87 -464.94c-3.29,-4.89 -7.31,-11.12 -10.63,-16l-232.52 -299.88c-23.85,-20.45 -28.32,-21.68 -48.28,-44.32 -70.85,-80.4 -231.23,-61.64 -288.17,-177.28 -49.4,-130.51 103.22,-1446.06 124.62,-1727.85 11.76,-155 -3.6,-314.43 13.65,-466.51 77.78,-686.1 140.42,-2527.92 104.95,-3122.14 -41.93,-702.62 -84.42,-1270.8 -83.1,-1971.23 1.76,-936.85 -116.57,-490.99 -321.56,-1158.43l-408.8 -1317.61c-22.61,-79.3 -45.94,-131.5 -69.48,-203.96 -55.26,-170.11 -308.39,-999.78 -304.13,-1110.82zm5657.57 -130.47c52.87,-30.02 208.71,-209.18 247.1,-254.66l225.03 -280.15c70.26,-83.65 139.6,-188.61 212.88,-292.64 39.1,-55.54 63,-77.57 110.28,-143.88 37.83,-53.06 67.78,-105.92 99.46,-149.51 158.76,10.76 637.7,227.61 772.18,290.78 584.97,274.81 1584.26,664.46 2139.47,960.53 14.87,104.8 -527.48,1863.28 -644.48,2209.76 -45.86,135.81 -87.59,289.23 -136.16,416.35 -80.9,211.73 -317.11,611.63 -317.11,810.9 -0.47,783.39 -50.94,1355.01 -78.5,2098.06 -23.67,638.35 -8.41,1277.45 -13.73,1920.3 -0.59,71.35 -6.24,175.38 4.55,243.25 16.48,103.72 0.61,-22.1 24.13,90.35 35.26,168.55 -7.35,407.94 33.05,580.21 39.24,167.27 56.25,702.66 63.22,904.7 20.84,604.18 128.16,1230.23 154.6,1820.59l-493.34 582.78c-2.5,5.64 -5.64,12.03 -8.19,17.63l-59.84 117.64c-154.63,221.32 92.74,-79.94 -160.85,296.66 -248.02,368.32 -367.72,395.17 -720.99,590.46l-235.66 92.13c-65.91,22.04 -120.76,35.24 -206.29,35.57 -6.6,12.45 35.96,7.8 -18.17,34.48l-764.23 148.09c-63.03,4.2 -137.55,1.05 -203.92,5.91 -136.81,10.02 -244.17,57.56 -378.27,31.4 -84.81,-215.15 -102.51,-3023.6 -102.43,-3494.35l22.24 -2148.14c3.48,-579.97 -32.43,-1154.51 -25.25,-1743.74l11.29 -4978.66c-0.34,-263.77 24.62,-782.71 154.88,-1005.61 44.5,-76.15 12.46,-33.78 65.62,-63.44 78.49,90.55 118.5,202.06 227.43,256.23zm-1084.44 13195.09c-23.17,-1450.38 -126.94,-2960.95 -83.36,-4421.53 8.74,-292.88 -18,-598.92 17.12,-887.53 30.94,-254.11 5.78,-642.85 -5.08,-907.55 -40.06,-975.66 19.66,-1721.66 20.11,-2627.55 0.28,-591.33 -17.27,-1199.03 -23.58,-1768.04 -6.78,-610.47 20.59,-1186.58 19.59,-1770.06 -0.62,-363.9 -9.28,-499.6 123.39,-796.5 121.09,-270.94 210.75,-596.72 232.71,-644.15 125.83,-11.78 336.89,-52.68 429.59,0.47 54.25,108.86 31.53,283.3 -19.58,384.17 -48.98,96.67 -85.66,223.64 -113.35,344.9 -102.65,449.41 -96.29,2154.36 -61.08,2578.4 94.27,1135.65 -18.61,2332.42 -18.71,3490.41 -0.04,590.72 73.12,1173.2 33.62,1769.05 -71.62,1080.45 6.21,2422.34 9.09,3487.57 0.8,293.24 9.37,593.32 4.75,885.08 -2.62,164.47 27.02,266.21 28.5,428.76 1.41,153.97 2.43,289.35 -3.14,445.81l-590.59 8.3zm-388.5 -13809.02c351.89,40.82 713.04,-23.02 335.78,638.36 -57.33,-34.03 -302.49,-508.59 -335.78,-638.36zm160.83 -243.3c83.92,36.85 120.21,103.75 151.68,186.18l-165.15 -21.96 13.47 -164.22zm554.91 123.84c-1.55,-165.04 170.43,-314.18 319.61,-313.58 53.73,83.44 78.31,161.55 63.75,279.06l-383.36 34.52zm3795.44 50.18c153.26,65.32 233.31,114.49 376.63,180.13 239.8,109.81 621.96,259.81 426.22,532.52 -53.44,-39.89 -280.08,-119.27 -367.44,-161.79 -136.35,-66.35 -230.11,-118.09 -349.51,-160.79l-2132.97 -917.43 44.92 -301.23c110.55,3.59 126.43,39.08 223.5,76.01l1370.84 580.59c138.84,60.7 268.51,112.62 407.81,171.99zm-3382.33 -449.92c156.57,-116.3 270.42,-180.96 426.23,-323.04 237.22,-216.33 330.18,-474.77 410.65,-754.28 1.44,-4.98 6.31,-9.32 7.41,-19.96 1.1,-10.61 4.36,-13.57 7.99,-19.65l88.88 114.73c3.07,4.49 6.96,10.8 9.98,15.32 39.04,58.7 56.15,83.04 91.28,136.11 239.97,362.55 344.87,468.39 62.67,877.79l-759.33 977.58c-257.08,-226.31 -240.89,-568.1 -271.11,-750.83 -14.94,-90.31 -64,-181.88 -74.65,-253.77zm-1806.61 582.15c-38.55,-47.29 -5.95,-8.6 -47.05,-53.28l-310.35 -393.96c-60.78,-114.77 11.95,11.14 -64.4,-63.28 -3.2,-3.12 -8.92,-8.66 -12.1,-12.17 -169,-187.66 -286.11,-445.05 -100.08,-696.5 43.84,-59.27 43.77,-37.74 85.75,-120.58l223.53 -379.27c3.54,5.16 5.98,13.39 7.44,17.25 1.49,3.91 5.46,12.74 7.24,17.67 1.83,5.08 4.78,12.71 6.73,18.48 122.77,362.94 266.59,596.31 554.25,887.04 47.13,47.64 190.67,170.69 235.13,246.99 -102.69,159.19 -100.63,39.59 -114.29,328.1 -6.3,132.96 -6.1,227.22 -39.48,334.54 -140.56,-98.47 -177.58,23.76 -205.93,68.38 -2.41,3.81 -8.94,21.12 -10.67,17.18 -1.76,-4.02 -6.65,11.96 -10.83,17.33l-204.89 -233.92zm-85.84 -1719.4c368.55,-157.21 2289,-135.8 2623.67,25.26 4.34,121.23 -91.15,370.62 -162.26,443.34 -54.44,29.34 -1232.32,1.76 -1463.12,3.88 -892.08,8.15 -770.41,98.8 -931.05,-194.75 -64.66,-118.15 -100.95,-132.24 -67.24,-277.73zm-1412.14 966.29c41.5,58.46 -59.11,74.32 123.72,41.29l290.17 -118.96c96.85,-43 270.01,-136.13 354.11,-130.59 9.85,145.31 46.4,181.01 53.23,306.86 -490.56,111.03 -1635.1,709.77 -2172.99,929.44 -107.9,44.06 -623.52,293.44 -709,299.02l-49.26 -195.77c340.34,-325.08 856.81,-516.32 1293.24,-702.23l748.38 -375.73c-119.24,-1.45 -1352.81,562.98 -1551.39,658.81 -1156.71,558.28 -1003.02,1537.88 -1488.59,2937.88 -65.32,188.37 -563.64,1543.55 -558.56,1625.91 562.73,392.55 1669.79,782.33 2547.36,738.83 77.07,-111.92 62.84,-121.27 148.59,-167.14 80.98,1102.94 142.86,2324.65 32.04,3401.29 -56.29,546.83 -26.84,1180.59 -92.57,1691.43 -32.2,250.19 -53.39,550.84 -69.5,805.26 -17.97,283.88 -67.41,558.27 -59.25,844 185.04,106.25 280.19,95.02 426.31,278.97 323.77,407.63 505.44,807.51 944.08,1104.6 634.23,429.58 1394.9,437.17 2250.85,510.37 61.96,91.58 -15.23,67.03 101.09,102.58 913.28,-2.47 1917.71,-65.18 2618.95,-395.6 359.42,-169.36 600.74,-390.21 790.79,-728.25 97.98,-174.29 166.86,-351 254.78,-501.7 128.36,-219.98 197.79,-202.24 376.67,-355.71 42.44,-75.6 -105.05,-1418.86 -127.38,-1600.69 -32.49,-264.7 -4.78,-594.92 -28.98,-872.07 -63.52,-727.15 -124.05,-1758.96 -114.55,-2480.59 4.16,-314.92 106.06,-1475.72 62.78,-1665.95 -29.79,-119.07 -13.44,-92.99 9.36,-195.43 70.26,-12.2 79.94,19.92 113.35,59.18 -18.7,-170.75 -70.47,-156.46 -71.41,-297.56 -2.29,-343.98 -55.82,-714.11 93.21,-974.06l231.74 -427.86c72.08,-122.32 10.35,-42.75 52.97,-191.96 9.04,-31.64 33.9,-100.37 45.01,-135.02l772.04 -2560.51c173.21,57.33 381.28,739.88 428.29,911.04 46.75,170.21 87.45,382.46 132.03,545.05 46.41,169.31 99.47,348.67 142.54,511.81l249.07 760.82c82.41,245.01 421.45,1143.95 423.92,1234.33 -316.07,323.08 -2167.48,948.01 -2462.47,648.95 -39.63,31.52 -42.19,-84.88 -30.36,72.57 6.82,12.83 15.59,37.77 31.18,62.23 681.45,56.09 1442.13,-167.05 2027.53,-446.63 193.22,-92.27 363.62,-202.53 525.59,-283.21 3.27,-103.05 -651.37,-1883.79 -785.95,-2404.58 -75.73,-293.12 -134.42,-566.7 -213.72,-847.2 -159.64,-564.74 -412.62,-1005.67 -883.53,-1240.17 -482,-240.02 -979.7,-435.19 -1472.06,-652.47 -244.14,-107.73 -493.42,-222.22 -744.94,-317.52 -83.7,-31.72 -316.34,-118.48 -359.97,-169.36 -182.49,-212.85 -367.47,-755.12 -730.9,-852.38 -394.29,-105.51 -1592.84,-97.13 -2013.46,-56.26 -434.01,42.15 -533.94,-11.94 -739.62,311.82 -88.11,138.69 -325.36,591.06 -416.94,640.91l-747.62 307.92z"/>
   <path class="fil1 str1" d="M6435.52 13442.33c-59.07,-144.05 -107.06,-48.56 -80.09,-296.7 107.3,-50.73 253.72,-119.54 295.6,62.68 11.93,51.88 -4.4,115.6 -41.03,157.1 -47.71,54.05 -113.43,58.44 -115.66,59.14l-58.82 17.78zm-111.58 -2141.57c-55.3,-221.5 284.97,-309.35 312.01,-75.1 28.11,243.63 -270.84,240 -312.01,75.1zm256.56 -2260.85c165.63,228.04 12,370.05 -218.59,264.67 -66.25,-190.2 -7.68,-302.98 218.59,-264.67zm-232.11 -1839.6c-49.83,-375.4 302.6,-302.68 299.78,-94.95 -1.7,124.68 -26.25,84.08 -75.5,155.33 -153.43,23.8 -122.41,16.27 -224.28,-60.38zm-4.77 -2091.35c-1.02,-128.94 -28.75,-197.32 85.52,-248.5 120.61,-54.03 102.07,-1.37 207.75,31.82l3.21 212.94c-232.3,88.25 -49.32,97.65 -296.48,3.74zm25.47 -2249.1c95.53,-93.95 65.08,-97.44 230.58,-84.97 37.79,82.44 90.99,113.46 46.71,231.77 -34.56,92.35 -114.24,85.44 -207.68,82.45 -49.65,-71.94 -76.19,-119.12 -69.61,-229.25zm-127.92 12938.26l590.59 -8.3c5.57,-156.46 4.55,-291.84 3.14,-445.81 -1.48,-162.55 -31.12,-264.29 -28.5,-428.76 4.62,-291.76 -3.95,-591.84 -4.75,-885.08 -2.88,-1065.22 -80.71,-2407.11 -9.09,-3487.57 39.5,-595.85 -33.66,-1178.33 -33.62,-1769.05 0.1,-1157.98 112.98,-2354.75 18.71,-3490.41 -35.21,-424.04 -41.57,-2128.99 61.08,-2578.4 27.69,-121.26 64.37,-248.23 113.35,-344.9 51.11,-100.87 73.83,-275.31 19.58,-384.17 -92.7,-53.15 -303.76,-12.25 -429.59,-0.47 -21.96,47.43 -111.62,373.21 -232.71,644.15 -132.67,296.9 -124.01,432.6 -123.39,796.5 1,583.48 -26.37,1159.59 -19.59,1770.06 6.31,569.01 23.86,1176.71 23.58,1768.04 -0.45,905.89 -60.17,1651.89 -20.11,2627.55 10.86,264.7 36.02,653.44 5.08,907.55 -35.12,288.61 -8.38,594.65 -17.12,887.53 -43.58,1460.57 60.19,2971.14 83.36,4421.53z"/>
   <path class="fil1 str1" d="M10072.06 7284.48c3.28,-5.56 6.53,-13.35 8.01,-17.64 1.53,-4.43 5.73,-12.93 7.45,-18.55l11.41 -42.53c2.11,-9.32 7.73,-63.64 13.17,-78.7l89.25 118.77c-11.83,-157.45 -9.27,-41.05 30.36,-72.57 294.99,299.06 2146.4,-325.87 2462.47,-648.95 -2.47,-90.38 -341.51,-989.32 -423.92,-1234.33l-249.07 -760.82c-43.07,-163.14 -96.13,-342.5 -142.54,-511.81 -44.58,-162.59 -85.28,-374.84 -132.03,-545.05 -47.01,-171.16 -255.08,-853.71 -428.29,-911.04l-772.04 2560.51c-11.11,34.65 -35.97,103.38 -45.01,135.02 -42.62,149.21 19.11,69.64 -52.97,191.96l-231.74 427.86c-149.03,259.95 -95.5,630.08 -93.21,974.06 0.94,141.1 52.71,126.81 71.41,297.56 -33.41,-39.26 -43.09,-71.38 -113.35,-59.18 -22.8,102.44 -39.15,76.36 -9.36,195.43z"/>
   <path class="fil1 str1" d="M2531.02 7236.36c25.92,-100.75 75.45,-128.65 113.93,-232.66 42.22,-114.09 72.34,-874.57 -23.34,-1055.8 -119.48,-226.29 -138.49,-177.63 -260.86,-503.86 -146.24,-389.93 -400.79,-1289.12 -524.24,-1718.44l-348.35 -1164.18c-67.79,15.9 -97.35,76 -136.13,156.54 -118.02,245.05 -96.72,130.15 -232.14,529.99 -95.05,280.67 -135.57,548.62 -214.48,849.84 -112.44,429.31 -361.97,1189.77 -518.42,1602.45 -33.91,89.43 -280.76,742.32 -280.41,775.87 1.37,131.46 527.33,346.38 654.45,399.37 523.91,218.32 1087.39,377.17 1769.99,360.88z"/>
   <path class="fil1 str1" d="M7585.87 6164.02c9.11,119.19 -13.39,107.8 189.88,211.89 83.59,42.79 161.53,73.97 253.88,123.92 617.75,334.15 414.09,309.69 1038.36,-2.97 277.36,-138.93 420.95,-167.21 432.26,-324.9 25.74,-358.77 23.38,-1176.5 -6.52,-1533.01 -147.71,-26.26 -1801.13,-23.49 -1897.98,8.44l-9.88 1516.63z"/>
   <path class="fil1 str1" d="M5089.07 332.63c-33.71,145.49 2.58,159.58 67.24,277.73 160.64,293.55 38.97,202.9 931.05,194.75 230.8,-2.12 1408.68,25.46 1463.12,-3.88 71.11,-72.72 166.6,-322.11 162.26,-443.34 -334.67,-161.06 -2255.12,-182.47 -2623.67,-25.26z"/>
   <path class="fil1 str1" d="M7207.61 2278.58c-11.24,-99.93 157.52,-217.21 209.69,-66.66 65.73,189.71 -195.16,195.94 -209.69,66.66zm-226.09 -808.7c10.65,71.89 59.71,163.46 74.65,253.77 30.22,182.73 14.03,524.52 271.11,750.83l759.33 -977.58c282.2,-409.4 177.3,-515.24 -62.67,-877.79 -35.13,-53.07 -52.24,-77.41 -91.28,-136.11 -3.02,-4.52 -6.91,-10.83 -9.98,-15.32l-88.88 -114.73c-3.63,6.08 -6.89,9.04 -7.99,19.65 -1.1,10.64 -5.97,14.98 -7.41,19.96 -80.47,279.51 -173.43,537.95 -410.65,754.28 -155.81,142.08 -269.66,206.74 -426.23,323.04z"/>
   <path class="fil1 str1" d="M5379.8 2285.95c4.18,-5.37 9.07,-21.35 10.83,-17.33 1.73,3.94 8.26,-13.37 10.67,-17.18 28.35,-44.62 65.37,-166.85 205.93,-68.38 33.38,-107.32 33.18,-201.58 39.48,-334.54 13.66,-288.51 11.6,-168.91 114.29,-328.1 -44.46,-76.3 -188,-199.35 -235.13,-246.99 -287.66,-290.73 -431.48,-524.1 -554.25,-887.04 -1.95,-5.77 -4.9,-13.4 -6.73,-18.48 -1.78,-4.93 -5.75,-13.76 -7.24,-17.67 -1.46,-3.86 -3.9,-12.09 -7.44,-17.25l-223.53 379.27c-41.98,82.84 -41.91,61.31 -85.75,120.58 -186.03,251.45 -68.92,508.84 100.08,696.5 3.18,3.51 8.9,9.05 12.1,12.17 76.35,74.42 3.62,-51.49 64.4,63.28l310.35 393.96c41.1,44.68 8.5,5.99 47.05,53.28l204.89 233.92z"/>
   <path class="fil1 str1" d="M3676.93 1298.92c-122.96,42.85 -30.97,2.47 -68.4,53.33l-748.38 375.73c-436.43,185.91 -952.9,377.15 -1293.24,702.23l49.26 195.77c85.48,-5.58 601.1,-254.96 709,-299.02 537.89,-219.67 1682.43,-818.41 2172.99,-929.44 -6.83,-125.85 -43.38,-161.55 -53.23,-306.86 -84.1,-5.54 -257.26,87.59 -354.11,130.59l-290.17 118.96c-182.83,33.03 -82.22,17.17 -123.72,-41.29z"/>
   <path class="fil1 str1" d="M8316.77 1392.44l2132.97 917.43c119.4,42.7 213.16,94.44 349.51,160.79 87.36,42.52 314,121.9 367.44,161.79 195.74,-272.71 -186.42,-422.71 -426.22,-532.52 -143.32,-65.64 -223.37,-114.81 -376.63,-180.13 -139.3,-59.37 -268.97,-111.29 -407.81,-171.99l-1370.84 -580.59c-97.07,-36.93 -112.95,-72.42 -223.5,-76.01l-44.92 301.23z"/>
   <path class="fil1 str1" d="M7595.75 4647.39c96.85,-31.93 1750.27,-34.7 1897.98,-8.44 29.9,356.51 32.26,1174.24 6.52,1533.01 -11.31,157.69 -154.9,185.97 -432.26,324.9 -624.27,312.66 -420.61,337.12 -1038.36,2.97 -92.35,-49.95 -170.29,-81.13 -253.88,-123.92 -203.27,-104.09 -180.77,-92.7 -189.88,-211.89l9.88 -1516.63zm-99.14 790.22l1.48 897.67c18.6,44.26 994.41,511.24 1039.97,512.86 123.14,4.37 912.33,-428.03 1054.7,-503.87l6.3 -1564.46c7.19,-322.7 94.69,-234.61 -1136.29,-234.61 -110.16,0 -869.86,-8.76 -908.79,5.77 -109.89,41.05 -55.27,106.19 -57.79,406.47 -1.34,160.17 0.42,319.79 0.42,480.17z"/>
   <path class="fil1 str1" d="M6188.45 2627.44c377.26,-661.38 16.11,-597.54 -335.78,-638.36 33.29,129.77 278.45,604.33 335.78,638.36z"/>
   <path class="fil1 str1" d="M6568.41 1869.62l383.36 -34.52c14.56,-117.51 -10.02,-195.62 -63.75,-279.06 -149.18,-0.6 -321.16,148.54 -319.61,313.58z"/>
   <path class="fil1 str2" d="M6323.94 11300.76c41.17,164.9 340.12,168.53 312.01,-75.1 -27.04,-234.25 -367.31,-146.4 -312.01,75.1z"/>
   <path class="fil1 str2" d="M6494.34 13424.55c2.23,-0.7 67.95,-5.09 115.66,-59.14 36.63,-41.5 52.96,-105.22 41.03,-157.1 -41.88,-182.22 -188.3,-113.41 -295.6,-62.68 -26.97,248.14 21.02,152.65 80.09,296.7l58.82 -17.78z"/>
   <path class="fil1 str2" d="M6348.39 7200.3c101.87,76.65 70.85,84.18 224.28,60.38 49.25,-71.25 73.8,-30.65 75.5,-155.33 2.82,-207.73 -349.61,-280.45 -299.78,94.95z"/>
   <path class="fil1 str2" d="M6343.62 5108.95c247.16,93.91 64.18,84.51 296.48,-3.74l-3.21 -212.94c-105.68,-33.19 -87.14,-85.85 -207.75,-31.82 -114.27,51.18 -86.54,119.56 -85.52,248.5z"/>
   <path class="fil1 str2" d="M6580.5 9039.9c-226.27,-38.31 -284.84,74.47 -218.59,264.67 230.59,105.38 384.22,-36.63 218.59,-264.67z"/>
   <path class="fil1 str2" d="M6369.09 2859.84c-6.58,110.13 19.96,157.31 69.61,229.25 93.44,2.99 173.12,9.9 207.68,-82.45 44.28,-118.31 -8.92,-149.33 -46.71,-231.77 -165.5,-12.47 -135.05,-8.98 -230.58,84.97z"/>
   <path class="fil1 str2" d="M7207.61 2278.58c14.53,129.28 275.42,123.05 209.69,-66.66 -52.17,-150.55 -220.93,-33.27 -209.69,66.66z"/>
   <path class="fil1 str1" d="M6000.03 1910l165.15 21.96c-31.47,-82.43 -67.76,-149.33 -151.68,-186.18l-13.47 164.22z"/>
  </g>
 </g>
</svg>
