<?xml version="1.0" encoding="UTF-8"?>
<!DOCTYPE svg PUBLIC "-//W3C//DTD SVG 1.1//EN" "http://www.w3.org/Graphics/SVG/1.1/DTD/svg11.dtd">
<!-- Creator: CorelDRAW 2018 (64-Bit Evaluation Version) -->
<svg xmlns="http://www.w3.org/2000/svg" xml:space="preserve" width="124.314mm" height="159.114mm" version="1.1" style="shape-rendering:geometricPrecision; text-rendering:geometricPrecision; image-rendering:optimizeQuality; fill-rule:evenodd; clip-rule:evenodd"
viewBox="0 0 12431.48 15911.47"
 xmlns:xlink="http://www.w3.org/1999/xlink">
 <defs>
  <style type="text/css">
   <![CDATA[
    .str0 {stroke:#FBD13E;stroke-width:20;stroke-miterlimit:22.9256}
    .str1 {stroke:#FBF0C8;stroke-width:20;stroke-miterlimit:22.9256}
    .fil1 {fill:#FBD13E}
    .fil0 {fill:#FBF0C8}
   ]]>
  </style>
 </defs>
 <g id="Layer_x0020_1">
  <metadata id="CorelCorpID_0Corel-Layer"/>
  <g id="_2091706461792">
   <polygon class="fil0 str0" points="10.62,655.65 10814.41,25.71 11727.87,15113.33 987.05,15900.76 "/>
   <polygon class="fil1 str0" points="10814.41,25.71 11475.9,687.2 12420.84,15680.29 987.05,15900.76 11727.87,15113.33 "/>
   <polygon class="fil1 str0" points="1616.98,9506.66 10530.96,8845.17 10971.91,14357.37 1931.98,14955.82 "/>
   <rect class="fil0 str1" transform="matrix(5.94732 -0.244423 0.244423 5.94732 3373.1 10375.7)" width="904.89" height="66.15"/>
   <rect class="fil0 str1" transform="matrix(5.94732 -0.244423 0.244423 5.94732 3398.76 11383.5)" width="1047.76" height="68.79"/>
   <rect class="fil0 str1" transform="matrix(5.94732 -0.244423 0.244423 5.94732 3538.42 12481.1)" width="907.54" height="68.79"/>
   <rect class="fil0 str1" transform="matrix(5.94732 -0.244423 0.244423 5.94732 4556.76 13479.6)" width="605.89" height="71.44"/>
   <ellipse class="fil1 str0" cx="5727.51" cy="4939.4" rx="4472.73" ry="2693.09"/>
  </g>
 </g>
</svg>
