<?xml version="1.0" encoding="UTF-8"?>
<!DOCTYPE svg PUBLIC "-//W3C//DTD SVG 1.1//EN" "http://www.w3.org/Graphics/SVG/1.1/DTD/svg11.dtd">
<!-- Creator: CorelDRAW 2018 (64-Bit Evaluation Version) -->
<svg xmlns="http://www.w3.org/2000/svg" xml:space="preserve" width="41.8373mm" height="11.9063mm" version="1.1" style="shape-rendering:geometricPrecision; text-rendering:geometricPrecision; image-rendering:optimizeQuality; fill-rule:evenodd; clip-rule:evenodd"
viewBox="0 0 2238.6 637.07"
 xmlns:xlink="http://www.w3.org/1999/xlink">
 <defs>
  <style type="text/css">
   <![CDATA[
    .str0 {stroke:#0B85EA;stroke-width:10.7;stroke-miterlimit:22.9256}
    .fil2 {fill:#0B85EA}
    .fil1 {fill:#3D4852}
    .fil3 {fill:#5AEEBC}
    .fil0 {fill:#3D4852;fill-rule:nonzero}
   ]]>
  </style>
 </defs>
 <g id="Layer_x0020_1">
  <metadata id="CorelCorpID_0Corel-Layer"/>
  <g id="_1794951068496">
   <path class="fil0" d="M1193.59 481.04c-32.48,1.81 -58.87,-15.78 -60.54,-50.77l0 -428.92c34.77,-1.63 59.74,12.06 60.54,51.15l0 226.06 89.19 -90.02c29.09,-26.26 70.97,-27.85 100.53,-18.2l-133.17 134.16 164.99 176.53c-26.81,10.71 -63.57,9.13 -94.88,-16.01l-126.66 -135.79 0 151.8z"/>
   <path class="fil0" d="M1442.76 88.7c-7.87,-7.65 -11.75,-16.96 -11.75,-27.94 0,-11.09 3.88,-20.29 11.75,-27.94 8.76,-7.54 18.63,-11.31 29.83,-11.31 11.2,0 21.07,3.66 29.49,10.98 8.54,7.43 12.76,16.85 12.76,28.27 0,11.42 -4.22,20.85 -12.76,28.28 -8.43,7.31 -18.29,10.97 -29.49,10.97 -11.2,0 -21.07,-3.77 -29.83,-11.31zm-0.44 397.19l0 -261c0.12,-32.57 22.75,-48.83 60.54,-49.69l0 254.92c0.05,38.96 -23.38,55.38 -60.54,55.78z"/>
   <path class="fil0" d="M1636.73 256.25c-19.18,19.08 -28.83,44.46 -28.83,76.29 0,31.71 10.2,56.44 30.49,74.18 20.4,17.74 44.46,26.61 72.41,26.61 27.94,0 51.78,-9.32 71.41,-27.94 18.63,-18.52 27.94,-42.91 27.94,-73.18 0,-30.27 -9.76,-55.22 -29.27,-74.63 -19.63,-19.41 -43.8,-29.27 -72.3,-29.5 -28.61,-0.22 -52.56,9.21 -71.85,28.17zm-29.49 -81.05l0 48.89c10.2,-17.41 24.95,-30.83 44.46,-40.14 19.07,-10.31 40.36,-15.41 63.98,-15.41 43.36,0 80.06,15.08 110,45.35 30.05,29.94 45.02,68.97 45.02,116.98 0,48.01 -14.86,86.93 -44.68,116.87 -29.72,29.82 -66.53,44.8 -110.33,44.8 -23.62,0 -45.24,-4.66 -64.97,-13.97 -19.63,-9.32 -34.15,-22.4 -43.47,-39.03l0 155.47c-1.26,33.99 -29.54,43.45 -60.54,41.91l0 -407.61c0.47,-46.86 27.98,-54.19 60.54,-54.11z"/>
   <path class="fil0" d="M2147.45 405.39c19.96,-18.63 29.94,-43.69 29.94,-75.29 0,-31.6 -10.42,-56.55 -31.16,-74.74 -20.85,-18.18 -45.35,-27.39 -73.51,-27.61 -28.28,0 -51.9,9.43 -70.97,28.28 -19.08,18.63 -28.61,43.02 -28.61,73.41 0,30.27 9.76,55.22 29.27,74.62 19.51,19.51 43.58,29.27 72.19,29.27 28.61,0 52.89,-9.32 72.85,-27.94zm30.61 80.5l0 -47.68c-9.76,16.3 -24.51,29.38 -44.25,39.36 -19.74,9.98 -41.25,14.97 -64.75,14.97 -43.03,0 -80.39,-15.08 -111.99,-45.24 -30.49,-30.05 -45.8,-69.08 -45.8,-116.87 0,-47.91 15.08,-86.82 45.13,-116.65 30.16,-29.94 67.75,-45.02 112.77,-45.24 22.51,0 44.25,4.66 64.98,13.97 20.4,10.2 35.04,23.29 43.91,39.37 0.71,-41.45 27.13,-49.02 60.54,-46.68l0 258.16c-1.98,35.19 -25.58,52.68 -60.54,52.54z"/>
   <path class="fil0" d="M685.33 0l33.93 0c6,39.71 -6.4,57.75 -34.04,57.88 -38.92,0.19 -58.22,26.5 -57.77,79.61l0 31.49 141.84 0.27c-0.69,29.83 -11.5,52.82 -44.97,53.89l-96.87 -0.27 0 205.75c0.17,31.74 -25.57,52.09 -60.54,51.05l0 -256.8 -60.54 0c-1.03,-28.23 12.37,-53.35 41.37,-53.89l19.17 0 0 -31.49c0,-43.91 9.87,-77.73 29.72,-101.46 19.85,-23.84 49.45,-35.81 88.7,-36.04z"/>
   <path class="fil0" d="M875.13 312.41l0 122.67c-0.91,35.07 -28.6,43.77 -60.54,44.87l0 -261.58c1.27,-37.99 26.59,-48.23 60.54,-49.11l0 46.69c8.87,-17.3 22.18,-30.61 40.03,-39.7 17.74,-9.1 36.81,-13.64 57.1,-13.64 39.03,0 68.42,11.97 88.27,36.04 20.74,23.62 31.27,57.55 31.49,101.68l0 179.63c-35.06,3.19 -58.56,-10.08 -60.54,-45.46l0 -130.18c0,-26.17 -6.21,-46.35 -18.52,-60.43 -11.97,-14.75 -29.61,-22.07 -53,-22.07 -23.62,0 -43.68,7.65 -60.1,23.06 -16.52,15.3 -24.73,37.93 -24.73,67.53z"/>
   <path class="fil1" d="M767.25 175.82l0 248.95c-0.83,40.12 -21.23,54.12 -60.54,55.18l0 -260.4c0.59,-34.49 30.8,-42.9 60.54,-43.73z"/>
   <path class="fil2 str0" d="M1472.61 20.83c11.2,0 21.07,3.66 29.5,10.97 8.53,7.43 12.75,16.85 12.75,28.27 0,11.42 -4.22,20.85 -12.75,28.28 -8.43,7.32 -18.3,10.98 -29.5,10.98 -11.2,0 -21.07,-3.77 -29.82,-11.31 -7.88,-7.65 -11.76,-16.97 -11.76,-27.95 0,-11.09 3.88,-20.29 11.76,-27.94 8.76,-7.54 18.63,-11.31 29.82,-11.31z"/>
   <g>
    <polygon class="fil3" points="329.92,238.12 479.58,50.37 188,186.26 322.91,479.7 "/>
    <polygon class="fil2" points="147.98,147.9 479.88,0 -0,0 1.09,479.7 "/>
   </g>
  </g>
 </g>
</svg>
