<?xml version="1.0" encoding="UTF-8"?>
<!DOCTYPE svg PUBLIC "-//W3C//DTD SVG 1.1//EN" "http://www.w3.org/Graphics/SVG/1.1/DTD/svg11.dtd">
<!-- Creator: CorelDRAW 2018 (64-Bit Evaluation Version) -->
<svg xmlns="http://www.w3.org/2000/svg" xml:space="preserve" width="41.8373mm" height="11.9063mm" version="1.1" style="shape-rendering:geometricPrecision; text-rendering:geometricPrecision; image-rendering:optimizeQuality; fill-rule:evenodd; clip-rule:evenodd"
viewBox="0 0 2244.85 638.85"
 xmlns:xlink="http://www.w3.org/1999/xlink">
 <defs>
  <style type="text/css">
   <![CDATA[
    .str0 {stroke:white;stroke-width:10.73;stroke-miterlimit:22.9256}
    .fil1 {fill:white}
    .fil0 {fill:white;fill-rule:nonzero}
   ]]>
  </style>
 </defs>
 <g id="Layer_x0020_1">
  <metadata id="CorelCorpID_0Corel-Layer"/>
  <g id="_1794941398624">
   <path class="fil0" d="M1196.92 482.38c-32.57,1.82 -59.03,-15.82 -60.71,-50.91l0 -430.12c34.87,-1.64 59.9,12.09 60.71,51.29l0 226.69 89.44 -90.27c29.17,-26.33 71.16,-27.92 100.81,-18.25l-133.54 134.54 165.46 177.02c-26.88,10.74 -63.74,9.15 -95.15,-16.06l-127.02 -136.16 0 152.22z"/>
   <path class="fil0" d="M1446.79 88.95c-7.89,-7.67 -11.78,-17.01 -11.78,-28.02 0,-11.12 3.89,-20.35 11.78,-28.02 8.79,-7.56 18.68,-11.34 29.91,-11.34 11.23,0 21.12,3.67 29.58,11.01 8.56,7.45 12.79,16.9 12.79,28.35 0,11.46 -4.23,20.9 -12.79,28.36 -8.45,7.33 -18.35,11 -29.58,11 -11.23,0 -21.12,-3.78 -29.91,-11.34zm-0.45 398.3l0 -261.73c0.12,-32.66 22.81,-48.97 60.71,-49.83l0 255.63c0.05,39.07 -23.45,55.53 -60.71,55.93z"/>
   <path class="fil0" d="M1641.3 256.96c-19.24,19.13 -28.91,44.59 -28.91,76.5 0,31.8 10.23,56.6 30.58,74.38 20.46,17.79 44.59,26.69 72.61,26.69 28.02,0 51.93,-9.34 71.61,-28.02 18.68,-18.57 28.02,-43.03 28.02,-73.39 0,-30.36 -9.79,-55.37 -29.35,-74.83 -19.69,-19.46 -43.92,-29.36 -72.5,-29.58 -28.69,-0.22 -52.71,9.23 -72.06,28.24zm-29.58 -81.28l0 49.03c10.23,-17.45 25.01,-30.91 44.59,-40.25 19.12,-10.34 40.47,-15.45 64.16,-15.45 43.48,0 80.28,15.12 110.31,45.48 30.13,30.02 45.14,69.16 45.14,117.31 0,48.15 -14.9,87.18 -44.81,117.2 -29.8,29.91 -66.72,44.92 -110.64,44.92 -23.68,0 -45.37,-4.67 -65.16,-14.01 -19.69,-9.34 -34.25,-22.46 -43.59,-39.14l0 155.9c-1.27,34.09 -29.62,43.57 -60.71,42.03l0 -408.75c0.47,-46.99 28.06,-54.34 60.71,-54.26z"/>
   <path class="fil0" d="M2153.45 406.52c20.01,-18.68 30.02,-43.81 30.02,-75.5 0,-31.69 -10.45,-56.71 -31.24,-74.95 -20.9,-18.23 -45.48,-27.47 -73.72,-27.69 -28.36,0 -52.04,9.45 -71.16,28.36 -19.13,18.68 -28.69,43.14 -28.69,73.61 0,30.35 9.79,55.37 29.36,74.83 19.57,19.57 43.7,29.36 72.39,29.36 28.69,0 53.04,-9.34 73.05,-28.02zm30.69 80.73l0 -47.81c-9.79,16.34 -24.57,29.46 -44.37,39.47 -19.79,10.01 -41.36,15.01 -64.94,15.01 -43.15,0 -80.61,-15.12 -112.3,-45.37 -30.58,-30.13 -45.93,-69.27 -45.93,-117.2 0,-48.04 15.13,-87.06 45.26,-116.98 30.25,-30.02 67.94,-45.14 113.08,-45.37 22.57,0 44.37,4.67 65.16,14.01 20.46,10.23 35.14,23.35 44.04,39.48 0.71,-41.56 27.21,-49.16 60.71,-46.81l0 258.88c-1.99,35.28 -25.65,52.83 -60.71,52.69z"/>
   <path class="fil0" d="M687.25 0l34.02 0c6.02,39.82 -6.42,57.91 -34.14,58.05 -39.03,0.19 -58.38,26.58 -57.93,79.84l0 31.58 142.24 0.27c-0.69,29.91 -11.54,52.97 -45.1,54.04l-97.14 -0.27 0 206.33c0.17,31.83 -25.64,52.24 -60.71,51.19l0 -257.52 -60.71 0c-1.03,-28.3 12.41,-53.5 41.49,-54.04l19.22 0 0 -31.58c0,-44.03 9.9,-77.95 29.81,-101.74 19.9,-23.9 49.59,-35.91 88.95,-36.14z"/>
   <path class="fil0" d="M877.57 313.28l0 123.01c-0.92,35.17 -28.68,43.9 -60.71,45l0 -262.31c1.28,-38.1 26.66,-48.36 60.71,-49.25l0 46.82c8.9,-17.35 22.24,-30.69 40.14,-39.81 17.79,-9.12 36.92,-13.68 57.26,-13.68 39.14,0 68.61,12.01 88.51,36.14 20.8,23.68 31.36,57.71 31.58,101.96l0 180.13c-35.16,3.2 -58.73,-10.1 -60.71,-45.59l0 -130.54c0,-26.24 -6.23,-46.48 -18.57,-60.6 -12.01,-14.79 -29.69,-22.13 -53.15,-22.13 -23.68,0 -43.81,7.67 -60.27,23.13 -16.57,15.35 -24.79,38.03 -24.79,67.72z"/>
   <path class="fil1" d="M769.39 176.31l0 249.65c-0.83,40.23 -21.29,54.27 -60.71,55.33l0 -261.13c0.6,-34.59 30.88,-43.02 60.71,-43.85z"/>
   <path class="fil1 str0" d="M1476.72 20.89c11.23,0 21.13,3.67 29.58,11 8.56,7.45 12.79,16.9 12.79,28.35 0,11.46 -4.23,20.9 -12.79,28.36 -8.45,7.34 -18.35,11.01 -29.58,11.01 -11.23,0 -21.12,-3.78 -29.91,-11.34 -7.9,-7.67 -11.79,-17.01 -11.79,-28.02 0,-11.12 3.89,-20.35 11.79,-28.02 8.78,-7.56 18.68,-11.34 29.91,-11.34z"/>
   <g>
    <polygon class="fil1" points="330.84,238.79 480.92,50.51 188.53,186.78 323.81,481.04 "/>
    <polygon class="fil1" points="148.39,148.32 481.22,0 -0,0 1.09,481.04 "/>
   </g>
  </g>
 </g>
</svg>
