<?xml version="1.0" encoding="UTF-8"?>
<!DOCTYPE svg PUBLIC "-//W3C//DTD SVG 1.1//EN" "http://www.w3.org/Graphics/SVG/1.1/DTD/svg11.dtd">
<!-- Creator: CorelDRAW 2018 (64-Bit Evaluation Version) -->
<svg xmlns="http://www.w3.org/2000/svg" xml:space="preserve" width="83.6746mm" height="23.8125mm" version="1.1" style="shape-rendering:geometricPrecision; text-rendering:geometricPrecision; image-rendering:optimizeQuality; fill-rule:evenodd; clip-rule:evenodd"
viewBox="0 0 2639.94 751.29"
 xmlns:xlink="http://www.w3.org/1999/xlink">
 <defs>
  <style type="text/css">
   <![CDATA[
    .str0 {stroke:#5AEEBC;stroke-width:6.31;stroke-miterlimit:22.9256}
    .fil3 {fill:#0B85EA}
    .fil1 {fill:#3D4852}
    .fil2 {fill:#5AEEBC}
    .fil0 {fill:#3D4852;fill-rule:nonzero}
   ]]>
  </style>
 </defs>
 <g id="Layer_x0020_1">
  <metadata id="CorelCorpID_0Corel-Layer"/>
  <g id="_1794983330624">
   <path class="fil0" d="M1407.57 567.28c-38.31,2.14 -69.43,-18.61 -71.4,-59.87l0 -505.82c41,-1.92 70.45,14.21 71.4,60.32l0 266.59 105.18 -106.16c34.31,-30.97 83.69,-32.84 118.56,-21.46l-157.05 158.22 194.58 208.18c-31.61,12.63 -74.96,10.76 -111.9,-18.89l-149.37 -160.13 0 179.02z"/>
   <path class="fil0" d="M1701.43 104.6c-9.28,-9.02 -13.86,-20.01 -13.86,-32.95 0,-13.08 4.58,-23.93 13.86,-32.95 10.33,-8.89 21.97,-13.34 35.18,-13.34 13.21,0 24.85,4.31 34.78,12.94 10.07,8.76 15.04,19.88 15.04,33.35 0,13.47 -4.97,24.58 -15.04,33.35 -9.94,8.63 -21.57,12.94 -34.78,12.94 -13.21,0 -24.85,-4.45 -35.18,-13.34zm-0.52 468.4l0 -307.8c0.14,-38.41 26.82,-57.59 71.4,-58.6l0 300.62c0.05,45.95 -27.58,65.31 -71.4,65.78z"/>
   <path class="fil0" d="M1930.17 302.19c-22.62,22.49 -34,52.44 -34,89.96 0,37.4 12.03,66.56 35.96,87.48 24.06,20.92 52.44,31.39 85.39,31.39 32.95,0 61.07,-10.98 84.21,-32.95 21.97,-21.84 32.95,-50.6 32.95,-86.3 0,-35.7 -11.51,-65.12 -34.52,-88.01 -23.15,-22.88 -51.65,-34.52 -85.26,-34.78 -33.74,-0.26 -61.98,10.85 -84.74,33.21zm-34.78 -95.59l0 57.66c12.03,-20.53 29.42,-36.35 52.44,-47.34 22.49,-12.16 47.6,-18.17 75.45,-18.17 51.13,0 94.41,17.78 129.72,53.48 35.44,35.3 53.09,81.33 53.09,137.95 0,56.62 -17.53,102.52 -52.7,137.83 -35.05,35.18 -78.46,52.83 -130.11,52.83 -27.85,0 -53.35,-5.5 -76.63,-16.48 -23.15,-10.98 -40.27,-26.41 -51.26,-46.03l0 183.33c-1.49,40.09 -34.84,51.24 -71.39,49.43l0 -480.69c0.55,-55.26 33,-63.9 71.39,-63.81z"/>
   <path class="fil0" d="M2532.45 478.06c23.54,-21.97 35.3,-51.52 35.3,-88.79 0,-37.27 -12.29,-66.69 -36.74,-88.14 -24.58,-21.45 -53.48,-32.3 -86.7,-32.56 -33.35,0 -61.2,11.12 -83.69,33.35 -22.49,21.97 -33.74,50.74 -33.74,86.57 0,35.7 11.51,65.12 34.53,88 23.01,23.02 51.39,34.52 85.13,34.52 33.74,0 62.37,-10.98 85.91,-32.95zm36.09 94.94l0 -56.23c-11.51,19.22 -28.9,34.65 -52.17,46.42 -23.28,11.77 -48.64,17.66 -76.36,17.66 -50.74,0 -94.8,-17.78 -132.07,-53.35 -35.96,-35.44 -54.01,-81.47 -54.01,-137.83 0,-56.49 17.78,-102.39 53.22,-137.56 35.57,-35.3 79.9,-53.09 132.99,-53.35 26.54,0 52.17,5.49 76.63,16.48 24.06,12.03 41.32,27.46 51.78,46.42 0.85,-48.88 32,-57.82 71.4,-55.05l0 304.44c-2.34,41.5 -30.17,62.13 -71.4,61.96z"/>
   <path class="fil0" d="M808.2 0l40.01 0c7.07,46.82 -7.56,68.1 -40.15,68.26 -45.9,0.22 -68.65,31.25 -68.13,93.89l0 37.14 167.27 0.32c-0.81,35.18 -13.56,62.29 -53.03,63.55l-114.23 -0.31 0 242.64c0.2,37.43 -30.15,61.44 -71.4,60.21l0 -302.85 -71.39 0c-1.21,-33.29 14.59,-62.91 48.79,-63.55l22.6 0 0 -37.14c0,-51.78 11.64,-91.67 35.05,-119.65 23.41,-28.11 58.32,-42.24 104.61,-42.5z"/>
   <path class="fil0" d="M1032.02 368.41l0 144.67c-1.08,41.36 -33.72,51.62 -71.4,52.92l0 -308.48c1.5,-44.8 31.35,-56.87 71.4,-57.92l0 55.05c10.46,-20.4 26.15,-36.09 47.21,-46.81 20.92,-10.72 43.41,-16.08 67.34,-16.08 46.03,0 80.68,14.12 104.09,42.49 24.45,27.85 36.88,67.87 37.14,119.91l0 211.84c-41.35,3.77 -69.06,-11.88 -71.4,-53.61l0 -153.52c0,-30.86 -7.32,-54.66 -21.84,-71.27 -14.12,-17.39 -34.91,-26.02 -62.5,-26.02 -27.86,0 -51.52,9.03 -70.88,27.2 -19.48,18.04 -29.16,44.72 -29.16,79.63z"/>
   <path class="fil1" d="M904.8 207.34l0 293.59c-0.98,47.31 -25.03,63.82 -71.39,65.07l0 -307.09c0.7,-40.67 36.32,-50.59 71.39,-51.57z"/>
   <path class="fil2 str0" d="M1736.62 24.56c13.2,0 24.84,4.32 34.78,12.94 10.07,8.76 15.04,19.88 15.04,33.35 0,13.47 -4.97,24.58 -15.04,33.34 -9.94,8.63 -21.58,12.95 -34.78,12.95 -13.21,0 -24.85,-4.45 -35.18,-13.34 -9.29,-9.02 -13.86,-20.01 -13.86,-32.95 0,-13.08 4.58,-23.93 13.86,-32.95 10.33,-8.89 21.97,-13.34 35.18,-13.34z"/>
   <g>
    <polygon class="fil2" points="389.07,280.81 565.56,59.4 221.71,219.66 380.79,565.7 "/>
    <polygon class="fil3" points="174.51,174.42 565.91,0 -0,0 1.28,565.7 "/>
   </g>
  </g>
 </g>
</svg>
