<?xml version="1.0" encoding="UTF-8"?>
<!DOCTYPE svg PUBLIC "-//W3C//DTD SVG 1.1//EN" "http://www.w3.org/Graphics/SVG/1.1/DTD/svg11.dtd">
<!-- Creator: CorelDRAW 2018 (64-Bit Evaluation Version) -->
<svg xmlns="http://www.w3.org/2000/svg" xml:space="preserve" width="83.6746mm" height="23.8125mm" version="1.1" style="shape-rendering:geometricPrecision; text-rendering:geometricPrecision; image-rendering:optimizeQuality; fill-rule:evenodd; clip-rule:evenodd"
viewBox="0 0 2632.34 749.12"
 xmlns:xlink="http://www.w3.org/1999/xlink">
 <defs>
  <style type="text/css">
   <![CDATA[
    .str0 {stroke:#0B85EA;stroke-width:6.29;stroke-miterlimit:22.9256}
    .fil2 {fill:#0B85EA}
    .fil1 {fill:#3D4852}
    .fil3 {fill:#5AEEBC}
    .fil0 {fill:#3D4852;fill-rule:nonzero}
   ]]>
  </style>
 </defs>
 <g id="Layer_x0020_1">
  <metadata id="CorelCorpID_0Corel-Layer"/>
  <g id="_1794984942432">
   <path class="fil0" d="M1403.52 565.65c-38.2,2.14 -69.23,-18.55 -71.19,-59.7l0 -504.36c40.88,-1.92 70.25,14.17 71.19,60.14l0 265.82 104.88 -105.85c34.21,-30.88 83.45,-32.74 118.21,-21.4l-156.59 157.77 194.02 207.58c-31.52,12.6 -74.75,10.73 -111.57,-18.83l-148.94 -159.67 0 178.5z"/>
   <path class="fil0" d="M1696.53 104.3c-9.26,-9 -13.82,-19.95 -13.82,-32.86 0,-13.04 4.56,-23.86 13.82,-32.86 10.3,-8.87 21.91,-13.3 35.07,-13.3 13.17,0 24.77,4.3 34.68,12.91 10.04,8.74 15,19.82 15,33.25 0,13.43 -4.95,24.51 -15,33.25 -9.91,8.61 -21.51,12.91 -34.68,12.91 -13.17,0 -24.77,-4.43 -35.07,-13.3zm-0.52 467.05l0 -306.91c0.14,-38.3 26.75,-57.42 71.19,-58.44l0 299.76c0.05,45.81 -27.5,65.12 -71.19,65.59z"/>
   <path class="fil0" d="M1924.61 301.32c-22.56,22.43 -33.9,52.29 -33.9,89.71 0,37.29 12,66.37 35.86,87.23 23.99,20.86 52.29,31.3 85.14,31.3 32.86,0 60.89,-10.95 83.97,-32.86 21.91,-21.77 32.86,-50.46 32.86,-86.05 0,-35.6 -11.48,-64.93 -34.42,-87.75 -23.08,-22.82 -51.5,-34.42 -85.01,-34.68 -33.64,-0.26 -61.8,10.82 -84.49,33.12zm-34.68 -95.31l0 57.5c12,-20.47 29.34,-36.24 52.29,-47.2 22.43,-12.12 47.46,-18.12 75.23,-18.12 50.98,0 94.14,17.73 129.34,53.33 35.34,35.2 52.94,81.1 52.94,137.56 0,56.46 -17.48,102.23 -52.55,137.43 -34.94,35.07 -78.23,52.68 -129.74,52.68 -27.77,0 -53.2,-5.48 -76.41,-16.43 -23.08,-10.95 -40.16,-26.34 -51.11,-45.9l0 182.81c-1.48,39.98 -34.74,51.09 -71.19,49.28l0 -479.3c0.54,-55.1 32.9,-63.72 71.19,-63.63z"/>
   <path class="fil0" d="M2525.16 476.69c23.47,-21.9 35.2,-51.37 35.2,-88.53 0,-37.16 -12.25,-66.5 -36.64,-87.88 -24.51,-21.39 -53.33,-32.21 -86.45,-32.47 -33.25,0 -61.02,11.08 -83.45,33.25 -22.43,21.91 -33.64,50.59 -33.64,86.32 0,35.6 11.48,64.93 34.43,87.75 22.94,22.95 51.24,34.42 84.88,34.42 33.64,0 62.19,-10.95 85.66,-32.86zm35.99 94.66l0 -56.07c-11.47,19.16 -28.82,34.55 -52.02,46.29 -23.21,11.74 -48.5,17.6 -76.14,17.6 -50.59,0 -94.53,-17.73 -131.69,-53.2 -35.86,-35.34 -53.85,-81.23 -53.85,-137.43 0,-56.32 17.73,-102.09 53.07,-137.17 35.47,-35.2 79.67,-52.94 132.61,-53.2 26.47,0 52.02,5.47 76.41,16.43 23.99,12 41.2,27.38 51.63,46.29 0.84,-48.74 31.91,-57.65 71.19,-54.89l0 303.57c-2.33,41.38 -30.09,61.95 -71.19,61.78z"/>
   <path class="fil0" d="M805.87 0l39.9 0c7.05,46.69 -7.53,67.91 -40.03,68.06 -45.76,0.22 -68.45,31.16 -67.93,93.62l0 37.03 166.78 0.31c-0.81,35.08 -13.52,62.11 -52.88,63.37l-113.9 -0.31 0 241.94c0.2,37.32 -30.07,61.26 -71.19,60.03l0 -301.97 -71.19 0c-1.21,-33.19 14.55,-62.73 48.65,-63.37l22.54 0 0 -37.03c0,-51.63 11.61,-91.4 34.94,-119.3 23.34,-28.03 58.15,-42.11 104.31,-42.38z"/>
   <path class="fil0" d="M1029.05 367.35l0 144.25c-1.08,41.24 -33.63,51.47 -71.19,52.77l0 -307.59c1.5,-44.67 31.26,-56.71 71.19,-57.75l0 54.89c10.43,-20.34 26.08,-35.99 47.07,-46.68 20.86,-10.69 43.29,-16.03 67.15,-16.03 45.9,0 80.45,14.08 103.79,42.37 24.38,27.77 36.77,67.67 37.03,119.57l0 211.23c-41.23,3.76 -68.86,-11.85 -71.19,-53.46l0 -153.08c0,-30.77 -7.3,-54.5 -21.78,-71.06 -14.08,-17.34 -34.81,-25.95 -62.32,-25.95 -27.78,0 -51.37,9 -70.67,27.12 -19.43,17.99 -29.07,44.59 -29.07,79.4z"/>
   <path class="fil1" d="M902.19 206.74l0 292.74c-0.98,47.17 -24.96,63.64 -71.19,64.88l0 -306.21c0.7,-40.56 36.22,-50.44 71.19,-51.42z"/>
   <path class="fil2 str0" d="M1731.62 24.49c13.17,0 24.77,4.3 34.68,12.91 10.04,8.74 15,19.82 15,33.25 0,13.43 -4.95,24.51 -15,33.25 -9.91,8.61 -21.51,12.91 -34.68,12.91 -13.17,0 -24.77,-4.44 -35.07,-13.3 -9.26,-9 -13.82,-19.95 -13.82,-32.86 0,-13.04 4.56,-23.86 13.82,-32.86 10.3,-8.87 21.9,-13.3 35.07,-13.3z"/>
   <g>
    <polygon class="fil3" points="387.95,280 563.93,59.23 221.07,219.03 379.69,564.07 "/>
    <polygon class="fil2" points="174,173.92 564.28,0 -0,0 1.28,564.07 "/>
   </g>
  </g>
 </g>
</svg>
