<?xml version="1.0" encoding="UTF-8"?>
<!DOCTYPE svg PUBLIC "-//W3C//DTD SVG 1.1//EN" "http://www.w3.org/Graphics/SVG/1.1/DTD/svg11.dtd">
<!-- Creator: CorelDRAW 2018 (64-Bit Evaluation Version) -->
<svg xmlns="http://www.w3.org/2000/svg" xml:space="preserve" width="35mm" height="35mm" version="1.1" style="shape-rendering:geometricPrecision; text-rendering:geometricPrecision; image-rendering:optimizeQuality; fill-rule:evenodd; clip-rule:evenodd"
viewBox="0 0 1205.67 1205.67"
 xmlns:xlink="http://www.w3.org/1999/xlink">
 <defs>
  <style type="text/css">
   <![CDATA[
    .fil1 {fill:#00C2FF}
    .fil0 {fill:none}
   ]]>
  </style>
 </defs>
 <g id="Layer_x0020_1">
  <metadata id="CorelCorpID_0Corel-Layer"/>
  <rect class="fil0" width="1205.67" height="1205.67" rx="238.25" ry="238.25"/>
  <path class="fil1" d="M1055.42 729.94c1.5,-6.99 0.55,-12.82 -0.15,-20.28 -2.27,-24.3 -3.29,-24.42 -21.22,-31.94 -6.52,-2.74 -12.82,-5.34 -19.33,-8.02 -52.06,-21.46 -103.52,-43.13 -155.48,-64.01 -12.81,-5.15 -26.06,-10.43 -39.04,-16.05 -6.72,-2.9 -34.89,-13.31 -38.46,-16.22 0.02,-3.61 6.59,-27.43 7.17,-37.2 0.25,-4.23 0.98,-7.7 1.1,-12.02 0.39,-14.33 1.68,-39.53 -13.74,-46.33 -11.56,-5.1 -37.01,-4.75 -50.04,11.53 -3.49,4.37 -3.87,8.38 -4.92,12.58 -1.16,4.65 -1.62,7.66 -2.21,12.45 -0.5,3.99 -1.11,7.33 -1.41,12.44 -0.16,2.64 0.87,9.72 -0.51,11.72 -2.03,-0.54 -36.25,-25.39 -40.75,-28.93 -5.97,-4.7 -12.32,-5.9 -11.82,-12.69 0.87,-11.82 1.15,-35.23 1.29,-47.99l1.47 -48.77c0.3,-6.99 -0.23,-20.07 0.39,-26.39 0.38,-3.86 -0.03,-7.07 0.08,-10.8 0.64,-21.75 -1.1,-42.95 -4.05,-64.2 -3.68,-26.5 -16.31,-61.91 -27.56,-85.04 -4.82,-9.9 -17.55,-39.56 -32.75,-26.9 -19.91,16.57 -44.38,100.91 -49.97,130.19 -2.03,10.61 -3.78,21.87 -4.65,32.5 -0.17,2.06 -0.59,3.6 -0.89,5.64l-6.93 112.49c-0.18,2.66 -0.1,3.01 -0.61,5.62 -0.93,4.8 -1.28,11.33 -3.96,15.9 -1.9,0.39 -2.27,-0.55 -4.19,0.12 -0.95,0.33 -3.18,1.99 -4.23,2.62 -11.12,6.76 -53.15,35.29 -57.85,36.57 -0.89,-1.8 0.68,-9.37 0.82,-11.88 0.68,-12.01 0.99,-23.12 -2.38,-35.07 -5.36,-18.98 -30.07,-17.64 -42.47,-13.5 -8.28,2.77 -17.86,8.88 -20.82,18.26 -4.87,15.45 -5.27,32.33 -4.6,47.31 0.37,8.28 2.32,14.71 3.32,23.51 -2.79,2.58 -66.5,25.56 -75.35,28.84l-113.06 42.2c-12.57,4.83 -24.72,9.37 -37.44,14.07 -4.93,1.82 -15.19,4.54 -19.07,9.23 -6.01,7.26 -8.08,19.29 -8.89,27.45 -2.37,23.87 1.5,15.42 1.12,21.94 -0.09,1.6 -0.5,3.17 1.21,3.19 1.01,-0.03 0.29,1.08 1.36,-0.88 1.06,-1.95 0.15,-3.82 0.95,-5.89 2.81,-1.18 109.06,-18.76 110.44,-18.53 0.47,5.32 -1.94,15.55 -1.01,18.01 2.69,0.59 12.42,-1.58 15.97,-1.96 4.6,-0.5 12.32,-2.66 16.2,-2.15 0.57,2.98 -0.38,9.91 2.22,11.62 3.09,-2.33 4.58,-9.66 6.92,-13.14 10.96,-2.62 22.62,-3.3 33.63,-5.18l33.33 -4.93c1.09,2.45 -0.27,16.26 4.27,10.04 4.01,-5.5 1.43,-11.2 9.25,-12.05 3.17,-0.34 5.79,-0.92 8.89,-1.36 2.42,-0.35 6.13,-0.72 8.39,-1.6 0.92,-1.97 0.11,-1.44 1.52,-3.6 3.17,-0.87 16.76,-3.1 19.47,-2.92 0.95,2.39 0.23,4.15 0.37,6.77 0.37,7.02 -0.64,9.1 5.93,9.73 12.55,1.21 4.63,-3.71 9.22,-9.19 2.62,0.39 5.49,0.45 8.37,0.94 1.02,1.99 0.53,0.59 0.24,3.19 2.42,1.16 41.95,4.48 50.41,5.11 1.41,0.11 2.73,0.24 4.37,0.37 2.61,0.21 16.39,2.41 18.03,0.98 1.9,-1.67 2.19,-10.16 3.68,-12.56 1.52,1.99 4.34,10.67 5.92,14.08 3.36,7.23 4.45,7.21 3.8,14.29 -0.42,4.54 -0.04,9.74 -0.34,14.4l-0.87 43.17c0.27,4.84 0.09,9.34 0.32,14.38 1.64,35.33 3.94,65.18 11.56,99.52 2.02,9.1 5.35,18.79 6.87,28.21 -2.21,2.3 -120.3,60.61 -133.42,66.9 -13.51,6.48 -14.76,5.44 -15.53,15.24 -0.24,3.14 -0.5,17.86 1.61,20.93 1.48,0.88 14.45,-1.34 16.82,-1.66l49.15 -5.82c8.18,-0.96 14.2,-2.03 21.77,-2.74 7.31,-0.68 14.53,-1.9 22.16,-2.62 3.25,-0.31 7.36,-0.71 10.89,-1.3 2.08,-0.35 3.61,-0.41 5.65,-0.74l38.26 -4.55c3.72,-0.25 6.97,-1.32 10.74,-0.95 1.73,4.53 3.71,12.35 10.32,12.42 7.79,0.09 10.21,-8.45 14.62,-12.44 5.91,0.22 29.05,5.29 36.51,6.73l36.19 6.92c4.05,0.69 8.22,1.6 12.19,2.37 20.03,3.84 40.36,7.31 60.18,11.55l36.57 6.78c14.7,2.99 13.98,6.62 14.07,-22.18 0.02,-6.39 -2.02,-5.86 -7.61,-9.03 -3.79,-2.14 -7.47,-4.02 -11.11,-6.11 -17.18,-9.88 -134.52,-72.58 -134.69,-74.64 0.04,-0.16 0.14,-0.34 0.2,-0.45 19.81,-53.07 12.06,-174.74 10.07,-196.55 0.24,-2.92 -0.09,-6.05 0.21,-9.2 0.28,-2.95 -0.33,-5.74 0.71,-9.32 3.85,-1.07 12.61,-0.83 15.33,-0.81 8.26,0.08 39.77,-1.63 44.69,-0.77 2.03,-2.42 0.61,-1.44 2.07,-3.34 1.97,0.06 4.62,-0.39 6.7,-0.44 2.44,-0.06 3.99,-0.02 6.73,-0.04 1.32,3.03 -0.38,6.88 0.72,9.52 1.08,2.58 6.16,1.42 8.47,1.36 5.95,-0.13 4.88,-2.6 5.53,-6.61 0.29,-1.85 0.39,-2.96 0.6,-4.82 0.11,-1.01 0.08,-1.41 0.21,-2.4 0.27,-1.98 -0.1,-0.65 0.5,-2.01 2.49,0.1 16.58,2.66 18.54,3.74 0.59,5.45 -0.37,3.31 8.69,5.21 2.43,0.51 9.22,1.56 11.09,2.54 0.61,2.87 0.78,11 2.92,12.29 3.41,-0.62 3.46,-7.68 6.05,-10.45 2.74,-0.2 74.31,14.79 74.62,15.22 0.68,2.56 0.33,12.78 3.3,13.89 2.8,-1.13 4.48,-9.7 5.84,-12.1 6.62,-0.69 32.29,7.82 41.06,7.89 2.35,-4.4 0.03,-15.36 2.37,-18.56 2.41,0 5.81,1.14 7.89,1.54 2.6,0.49 5.11,1.15 7.84,1.74l62.37 13.99c6.78,1.4 45.43,9.38 46.41,11.06 0.27,2.05 0.26,2.5 0.23,4.57 -0.05,3.68 0.61,3.1 1.98,2.88 1.87,-0.49 0.93,-4.6 1.32,-6.91l2.6 -0.67z"/>
 </g>
</svg>
