<?xml version="1.0" encoding="UTF-8"?>
<!DOCTYPE svg PUBLIC "-//W3C//DTD SVG 1.1//EN" "http://www.w3.org/Graphics/SVG/1.1/DTD/svg11.dtd">
<!-- Creator: CorelDRAW 2018 (64-Bit Evaluation Version) -->
<svg xmlns="http://www.w3.org/2000/svg" xml:space="preserve" width="35mm" height="35mm" version="1.1" style="shape-rendering:geometricPrecision; text-rendering:geometricPrecision; image-rendering:optimizeQuality; fill-rule:evenodd; clip-rule:evenodd"
viewBox="0 0 534.36 534.36"
 xmlns:xlink="http://www.w3.org/1999/xlink">
 <defs>
  <style type="text/css">
   <![CDATA[
    .fil0 {fill:none}
    .fil1 {fill:#FBD13E;fill-rule:nonzero}
    .fil2 {fill:#00C2FF;fill-rule:nonzero}
   ]]>
  </style>
 </defs>
 <g id="Layer_x0020_1">
  <metadata id="CorelCorpID_0Corel-Layer"/>
  <rect class="fil0" width="534.36" height="534.36" rx="105.59" ry="105.59"/>
  <path class="fil1" d="M264.17 478.85c-10.22,0 -19.16,-3.72 -26.8,-11.08 -7.65,-7.35 -11.43,-17.66 -11.43,-30.93 0,-11.74 3.69,-21.58 11.08,-29.6 7.39,-8.02 16.41,-12.03 27.15,-12.03 10.57,0 19.5,4.01 26.72,12.03 7.22,8.02 10.82,17.86 10.82,29.6 0,13.08 -3.78,23.39 -11.34,30.84 -7.56,7.45 -16.24,11.17 -26.2,11.17z"/>
  <path class="fil2" d="M141.41 172.37c0,-17.66 5.16,-35.61 15.38,-53.85 10.22,-18.14 25.17,-33.23 44.76,-45.16 19.67,-11.93 42.52,-17.86 68.73,-17.86 24.31,0 45.79,4.96 64.43,14.99 18.56,9.93 32.9,23.49 43.04,40.67 10.14,17.09 15.2,35.8 15.2,55.85 0,15.85 -2.92,29.79 -8.68,41.72 -5.76,11.93 -12.63,22.24 -20.62,30.84 -7.9,8.69 -22.17,23.3 -42.78,43.82 -5.76,5.73 -10.31,10.79 -13.75,15.18 -3.44,4.39 -6.01,8.4 -7.65,12.03 -1.72,3.63 -3,7.26 -3.95,10.88 -0.86,3.63 -2.32,10.03 -4.13,19.19 -3.18,19.38 -13.14,29.03 -29.98,29.03 -8.68,0 -16.06,-3.15 -21.99,-9.45 -6.01,-6.4 -8.93,-15.75 -8.93,-28.26 0,-15.66 2.15,-29.22 6.53,-40.67 4.38,-11.46 10.14,-21.48 17.35,-30.17 7.22,-8.69 17.01,-19 29.21,-30.93 10.74,-10.41 18.56,-18.33 23.28,-23.58 4.81,-5.35 8.85,-11.27 12.11,-17.76 3.26,-6.49 4.9,-13.65 4.9,-21.29 0,-14.89 -4.98,-27.5 -14.95,-37.71 -10.05,-10.22 -22.85,-15.37 -38.66,-15.37 -18.47,0 -32.04,5.16 -40.81,15.56 -8.67,10.31 -16.06,25.59 -22.08,45.73 -5.76,21.01 -16.58,31.51 -32.47,31.51 -9.45,0 -17.35,-3.63 -23.8,-11.08 -6.44,-7.35 -9.71,-15.28 -9.71,-23.87z"/>
 </g>
</svg>
