<?xml version="1.0" encoding="UTF-8"?>
<!DOCTYPE svg PUBLIC "-//W3C//DTD SVG 1.1//EN" "http://www.w3.org/Graphics/SVG/1.1/DTD/svg11.dtd">
<!-- Creator: CorelDRAW 2018 (64-Bit Evaluation Version) -->
<svg xmlns="http://www.w3.org/2000/svg" xml:space="preserve" width="35.8775mm" height="35.6659mm" version="1.1" style="shape-rendering:geometricPrecision; text-rendering:geometricPrecision; image-rendering:optimizeQuality; fill-rule:evenodd; clip-rule:evenodd"
viewBox="0 0 759.25 754.77"
 xmlns:xlink="http://www.w3.org/1999/xlink">
 <defs>
  <style type="text/css">
   <![CDATA[
    .fil0 {fill:#FFFFFF}
    .fil1 {fill:#3B9CFF}
    .fil4 {fill:#FBD13E}
    .fil2 {fill:#FBD13E}
    .fil3 {fill:#3B9CFF}
   ]]>
  </style>
 </defs>
 <g id="Layer_x0020_1">
  <metadata id="CorelCorpID_0Corel-Layer"/>
  <path class="fil0" d="M215.01 0l329.23 0c118.25,0 215.01,96.75 215.01,215.01l0 324.75c0,118.25 -96.75,215.01 -215.01,215.01l-329.23 0c-118.25,0 -215.01,-96.75 -215.01,-215.01l0 -324.75c0,-118.25 96.75,-215.01 215.01,-215.01zm311.45 638.36l42.56 0 0 36.96 -42.56 0 -71.11 0 0 -36.96 71.11 0zm0 -42.73l42.56 0 0 36.96 -42.56 0 -71.11 0 0 -36.96 71.11 0zm0 -42.73l42.56 0 0 36.96 -42.56 0 -71.11 0 0 -20.59 -17 0 0 21.33 -42.56 0 -71.11 0 0 -21.33 -95.75 0 0 -357.23 253.08 0 0 214.14 44.44 0 42.56 0 0 36.96 -42.56 0 -44.44 0 0 5.28 44.44 0 42.56 0 0 36.96 -42.56 0 -44.44 0 0 5.28 44.44 0 42.56 0 0 36.96 -42.56 0 -44.44 0 0 5.28 44.44 0zm-130.67 85.22l42.56 0 0 36.96 -42.56 0 -71.11 0 0 -36.96 71.11 0zm0 -42.24l42.56 0 0 36.96 -42.56 0 -71.11 0 0 -36.96 71.11 0z"/>
  <g id="_2242863550816">
   <polygon class="fil1" points="324.68,511.39 438.35,511.39 438.35,548.34 324.68,548.34 "/>
   <polygon class="fil2" points="395.79,511.39 438.35,511.39 438.35,548.34 395.79,548.34 "/>
  </g>
  <g id="_2242863549984">
   <polygon class="fil1" points="455.35,426.17 569.02,426.17 569.02,463.13 455.35,463.13 "/>
   <polygon class="fil2" points="526.46,426.17 569.02,426.17 569.02,463.13 526.46,463.13 "/>
  </g>
  <g id="_2242863550912">
   <polygon class="fil1" points="324.68,553.63 438.35,553.63 438.35,590.58 324.68,590.58 "/>
   <polygon class="fil2" points="395.79,553.63 438.35,553.63 438.35,590.58 395.79,590.58 "/>
  </g>
  <g id="_2242863553856">
   <polygon class="fil1" points="455.35,468.41 569.02,468.41 569.02,505.37 455.35,505.37 "/>
   <polygon class="fil2" points="526.46,468.41 569.02,468.41 569.02,505.37 526.46,505.37 "/>
  </g>
  <g id="_2242863554592">
   <polygon class="fil1" points="324.68,595.87 438.35,595.87 438.35,632.82 324.68,632.82 "/>
   <polygon class="fil2" points="395.79,595.87 438.35,595.87 438.35,632.82 395.79,632.82 "/>
  </g>
  <g id="_2242863555488">
   <polygon class="fil1" points="455.35,510.65 569.02,510.65 569.02,547.61 455.35,547.61 "/>
   <polygon class="fil2" points="526.46,510.65 569.02,510.65 569.02,547.61 526.46,547.61 "/>
  </g>
  <g id="_2242863558976">
   <polygon class="fil1" points="324.68,638.11 438.35,638.11 438.35,675.06 324.68,675.06 "/>
   <polygon class="fil2" points="395.79,638.11 438.35,638.11 438.35,675.06 395.79,675.06 "/>
  </g>
  <g id="_2242863558208">
   <polygon class="fil1" points="455.35,552.89 569.02,552.89 569.02,589.85 455.35,589.85 "/>
   <polygon class="fil2" points="526.46,552.89 569.02,552.89 569.02,589.85 526.46,589.85 "/>
  </g>
  <g id="_2242863560256">
   <polygon class="fil1" points="455.35,595.62 569.02,595.62 569.02,632.58 455.35,632.58 "/>
   <polygon class="fil2" points="526.46,595.62 569.02,595.62 569.02,632.58 526.46,632.58 "/>
  </g>
  <g id="_2242863561760">
   <polygon class="fil1" points="455.35,638.36 569.02,638.36 569.02,675.31 455.35,675.31 "/>
   <polygon class="fil2" points="526.46,638.36 569.02,638.36 569.02,675.31 526.46,675.31 "/>
  </g>
  <path class="fil3" d="M228.93 212.03l253.08 0 0 214.14 -26.67 0 0 36.96 26.67 0 0 5.28 -26.67 0 0 36.96 26.67 0 0 5.28 -26.67 0 0 36.96 26.67 0 0 5.28 -26.67 0 0 16.37 -17 0 0 -15.63 -42.56 0 -71.11 0 0 15.63 -95.75 0 0 -357.23zm166.86 299.36l42.56 0 0 36.96 -42.56 0 -71.11 0 0 -36.96 71.11 0z"/>
  <path class="fil4" d="M267.01 150.44l176.93 0c20.94,0 38.08,17.13 38.08,38.08l0 23.52 -253.08 0 0 -23.52c0,-20.94 17.13,-38.08 38.08,-38.08zm128.78 445.43l42.56 0 0 36.96 -42.56 0 -71.11 0 0 -36.96 71.11 0zm86.23 -6.02l0 5.78 -26.67 0 0 36.96 8.69 0c-5.84,3.66 -12.73,5.78 -20.1,5.78l-5.6 0 0 -0.25 -42.56 0 -71.11 0 0 0.25 -57.67 0c-20.94,0 -38.08,-17.13 -38.08,-38.08l0 -31.02 95.75 0 0 21.33 71.11 0 42.56 0 0 -21.33 17 0 0 20.59 26.67 0z"/>
 </g>
</svg>
