<?xml version="1.0" encoding="UTF-8"?>
<!DOCTYPE svg PUBLIC "-//W3C//DTD SVG 1.1//EN" "http://www.w3.org/Graphics/SVG/1.1/DTD/svg11.dtd">
<!-- Creator: CorelDRAW 2018 (64-Bit Evaluation Version) -->
<svg xmlns="http://www.w3.org/2000/svg" xml:space="preserve" width="35mm" height="35mm" version="1.1" style="shape-rendering:geometricPrecision; text-rendering:geometricPrecision; image-rendering:optimizeQuality; fill-rule:evenodd; clip-rule:evenodd"
viewBox="0 0 2686.01 2686.01"
 xmlns:xlink="http://www.w3.org/1999/xlink">
 <defs>
  <style type="text/css">
   <![CDATA[
    .fil1 {fill:#006648}
    .fil3 {fill:#FFC83A}
    .fil0 {fill:#FFFFFF}
    .fil2 {fill:#FFC83A}
   ]]>
  </style>
 </defs>
 <g id="Layer_x0020_1">
  <metadata id="CorelCorpID_0Corel-Layer"/>
  <rect class="fil0" x="0" y="0" width="2686.01" height="2686.01" rx="530.78" ry="530.78"/>
  <path class="fil1" d="M1086.16 1965.87c38.69,0 70.05,32.27 70.05,72.08 0,39.81 -31.36,72.08 -70.05,72.08 -38.69,0 -70.05,-32.27 -70.05,-72.08 0,-39.81 31.36,-72.08 70.05,-72.08zm0 -107.62c95.88,0 173.61,80.45 173.61,179.69 0,99.24 -77.73,179.69 -173.61,179.69 -95.88,0 -173.61,-80.45 -173.61,-179.69 0,-99.24 77.73,-179.69 173.61,-179.69z"/>
  <path class="fil1" d="M1668.86 1959.82c38.69,0 70.05,32.27 70.05,72.08 0,39.81 -31.36,72.08 -70.05,72.08 -38.69,0 -70.05,-32.27 -70.05,-72.08 0,-39.81 31.36,-72.08 70.05,-72.08zm0 -107.62c95.88,0 173.61,80.45 173.61,179.69 0,99.24 -77.73,179.69 -173.61,179.69 -95.88,0 -173.61,-80.45 -173.61,-179.69 0,-99.24 77.73,-179.69 173.61,-179.69z"/>
  <ellipse class="fil1" cx="1881.09" cy="889.64" rx="320.82" ry="328.94"/>
  <polygon class="fil2" points="1857.74,749.53 1904.44,749.53 1904.44,866.29 2021.2,866.29 2021.2,912.98 1904.44,912.98 1904.44,1029.74 1857.74,1029.74 1857.74,912.98 1740.98,912.98 1740.98,866.29 1857.74,866.29 "/>
  <path class="fil3" d="M595.29 468.37c43.77,0 81.62,25.18 99.75,61.78 103.81,43.95 175.24,128.87 189.1,286.46l676.19 77.93c2.56,179.4 145.17,324.03 320.76,324.03 38.32,0 75.06,-6.89 109.13,-19.53 -4.31,102.53 -21.44,202.65 -54.27,299.82l-97.46 56.85 -958.39 -3.95 2.01 174.38 1033.54 -7.98 4.06 113.7 -1059.92 4.07c-133.48,-35.51 -182.46,-244.67 -36.55,-377.68l-56.85 -580.72c-3.75,-98.75 -38.66,-168.64 -104.75,-209.68 -18.52,13.73 -41.47,21.85 -66.33,21.85 -61.39,0 -111.17,-49.55 -111.17,-110.66 0,-61.12 49.78,-110.66 111.17,-110.66z"/>
 </g>
</svg>
