<?xml version="1.0" encoding="UTF-8"?>
<!DOCTYPE svg PUBLIC "-//W3C//DTD SVG 1.1//EN" "http://www.w3.org/Graphics/SVG/1.1/DTD/svg11.dtd">
<!-- Creator: CorelDRAW 2018 (64-Bit Evaluation Version) -->
<svg xmlns="http://www.w3.org/2000/svg" xml:space="preserve" width="35.8775mm" height="35.6659mm" version="1.1" style="shape-rendering:geometricPrecision; text-rendering:geometricPrecision; image-rendering:optimizeQuality; fill-rule:evenodd; clip-rule:evenodd"
viewBox="0 0 1633.81 1624.18"
 xmlns:xlink="http://www.w3.org/1999/xlink">
 <defs>
  <style type="text/css">
   <![CDATA[
    .fil4 {fill:none}
    .fil2 {fill:#FFFFFF}
    .fil1 {fill:#97C84B}
    .fil0 {fill:#00C2FF}
    .fil5 {fill:#00C2FF}
    .fil3 {fill:#FBD13E}
   ]]>
  </style>
 </defs>
 <g id="Layer_x0020_1">
  <metadata id="CorelCorpID_0Corel-Layer"/>
  <polygon class="fil0" points="908.37,855.51 642.67,855.51 642.67,941.89 908.37,941.89 "/>
  <polygon class="fil1" points="742.15,855.51 642.67,855.51 642.67,941.89 742.15,941.89 "/>
  <polygon class="fil0" points="602.92,656.31 337.23,656.31 337.23,742.7 602.92,742.7 "/>
  <polygon class="fil1" points="436.7,656.31 337.23,656.31 337.23,742.7 436.7,742.7 "/>
  <polygon class="fil0" points="908.37,954.25 642.67,954.25 642.67,1040.63 908.37,1040.63 "/>
  <polygon class="fil1" points="742.15,954.25 642.67,954.25 642.67,1040.63 742.15,1040.63 "/>
  <polygon class="fil0" points="602.92,755.05 337.23,755.05 337.23,841.44 602.92,841.44 "/>
  <polygon class="fil1" points="436.7,755.05 337.23,755.05 337.23,841.44 436.7,841.44 "/>
  <polygon class="fil0" points="908.37,1052.98 642.67,1052.98 642.67,1139.37 908.37,1139.37 "/>
  <polygon class="fil1" points="742.15,1052.98 642.67,1052.98 642.67,1139.37 742.15,1139.37 "/>
  <polygon class="fil0" points="602.92,853.79 337.23,853.79 337.23,940.17 602.92,940.17 "/>
  <polygon class="fil1" points="436.7,853.79 337.23,853.79 337.23,940.17 436.7,940.17 "/>
  <polygon class="fil0" points="908.37,1151.72 642.67,1151.72 642.67,1238.11 908.37,1238.11 "/>
  <polygon class="fil1" points="742.15,1151.72 642.67,1151.72 642.67,1238.11 742.15,1238.11 "/>
  <polygon class="fil0" points="602.92,952.53 337.23,952.53 337.23,1038.91 602.92,1038.91 "/>
  <polygon class="fil1" points="436.7,952.53 337.23,952.53 337.23,1038.91 436.7,1038.91 "/>
  <polygon class="fil0" points="602.92,1052.42 337.23,1052.42 337.23,1138.8 602.92,1138.8 "/>
  <polygon class="fil1" points="436.7,1052.42 337.23,1052.42 337.23,1138.8 436.7,1138.8 "/>
  <polygon class="fil0" points="602.92,1152.3 337.23,1152.3 337.23,1238.69 602.92,1238.69 "/>
  <path class="fil2" d="M462.67 0l708.47 0c254.47,0 462.67,208.2 462.67,462.67l0 698.83c0,254.47 -208.2,462.67 -462.67,462.67l-708.47 0c-254.47,0 -462.67,-208.2 -462.67,-462.67l0 -698.83c0,-254.47 208.2,-462.67 462.67,-462.67zm140.25 1152.3l-265.69 0 0 86.39 265.69 0 0 -86.39zm305.45 -0.58l-265.69 0 0 86.39 265.69 0 0 -86.39zm274.7 -415.83c23.9,0 43.26,19.37 43.26,43.26 0,23.89 -19.36,43.26 -43.26,43.26 -23.9,0 -43.26,-19.37 -43.26,-43.26 0,-23.89 19.36,-43.26 43.26,-43.26zm-679.54 -325.43l718.1 0c26.51,0 48.2,21.69 48.2,48.2l0 219.89 41.27 0 0 192.18 -41.27 0 0 228.93c0,26.51 -21.69,48.2 -48.2,48.2l-718.1 0c-10.43,0 -20.12,-3.36 -28.03,-9.05l-138.27 0 0 -86.39 118.1 0 0 -13.51 -118.1 0 0 -86.38 118.1 0 0 -12.35 -118.1 0 0 -86.39 118.1 0 0 -12.35 -118.1 0 0 -86.39 118.1 0 0 -12.35 -118.1 0 0 -86.39 118.1 0 0 -197.65c0,-26.51 21.69,-48.2 48.2,-48.2z"/>
  <polygon class="fil1" points="436.7,1152.3 337.23,1152.3 337.23,1238.69 436.7,1238.69 "/>
  <path class="fil3" d="M503.53 410.46l718.1 0c26.51,0 48.2,21.69 48.2,48.2l0 219.89 -99.11 0c-52.85,0 -96.09,43.24 -96.09,96.09l0 0c0,52.85 43.24,96.09 96.09,96.09l99.11 0 0 228.93c0,26.51 -21.69,48.2 -48.2,48.2l-718.1 0c-10.43,0 -20.12,-3.36 -28.03,-9.05l127.42 0 0 -86.39 -147.59 0 0 -13.51 147.59 0 0 -86.38 -147.59 0 0 -12.35 147.59 0 0 -86.39 -147.59 0 0 -12.35 147.59 0 0 -86.39 -147.59 0 0 -12.35 147.59 0 0 -86.39 -147.59 0 0 -197.65c0,-26.51 21.69,-48.2 48.2,-48.2zm238.62 445.04l-99.47 0 0 86.39 99.47 0 166.22 0 0 -86.39 -166.22 0zm0 98.74l-99.47 0 0 86.38 99.47 0 166.22 0 0 -86.38 -166.22 0zm0 98.74l-99.47 0 0 86.39 99.47 0 166.22 0 0 -86.39 -166.22 0z"/>
  <circle class="fil4" cx="1183.07" cy="779.16" r="43.26"/>
  <path class="fil5" d="M1170.72 678.55l140.37 0 0 192.18 -140.37 0c-52.84,0 -96.09,-43.24 -96.09,-96.09l0 0c0,-52.85 43.24,-96.09 96.09,-96.09zm12.35 57.35c23.9,0 43.26,19.37 43.26,43.26 0,23.89 -19.36,43.26 -43.26,43.26 -23.9,0 -43.26,-19.37 -43.26,-43.26 0,-23.89 19.36,-43.26 43.26,-43.26z"/>
 </g>
</svg>
