<?xml version="1.0" encoding="UTF-8"?>
<!DOCTYPE svg PUBLIC "-//W3C//DTD SVG 1.1//EN" "http://www.w3.org/Graphics/SVG/1.1/DTD/svg11.dtd">
<!-- Creator: CorelDRAW 2018 (64-Bit Evaluation Version) -->
<svg xmlns="http://www.w3.org/2000/svg" xml:space="preserve" width="17.0724mm" height="3.81mm" version="1.1" style="shape-rendering:geometricPrecision; text-rendering:geometricPrecision; image-rendering:optimizeQuality; fill-rule:evenodd; clip-rule:evenodd"
viewBox="0 0 289.6 64.63"
 xmlns:xlink="http://www.w3.org/1999/xlink">
 <defs>
  <style type="text/css">
   <![CDATA[
    .str0 {stroke:#FFC035;stroke-width:3.39;stroke-miterlimit:22.9256}
    .fil3 {fill:#0A408D}
    .fil4 {fill:#3D4852}
    .fil0 {fill:#3D4852}
    .fil2 {fill:#FFC035}
    .fil1 {fill:#3D4852;fill-rule:nonzero}
   ]]>
  </style>
 </defs>
 <g id="Layer_x0020_1">
  <metadata id="CorelCorpID_0Corel-Layer"/>
  <g id="_2685598693072">
   <g>
    <g>
     <path class="fil0" d="M172.29 60.77c-1.24,2.29 -3.34,2.28 -4.31,0.64l-0.03 -0.05 -0 -0.01 -0.01 -0.02 -0.05 -0.08 -0 -0 -0.03 -0.05 -0.03 -0.05 -13.8 -37.19c2.73,-1.43 6.62,-1.39 8.19,2.77l11.31 30.59 -1.58 0.32 0.01 0.01 0 0 0.01 0.01 0.01 0.01 0 0 0.01 0.01 0.01 0.01 0 0 0.01 0.01 0.01 0.01 0 0 0.01 0.01 0.01 0.01 0 0 0 0.01 0.01 0.01 0 0 0.01 0.01 0.01 0.01 0 0 0.01 0.01 0.01 0.01 0 0 0.01 0.01 0.01 0.01 0 0 0.01 0.01 0.01 0.01 0 0 0 0.01 0.01 0.01 0 0 0.01 0.01 0.01 0.01 0 0 0 0.01 0.01 0.01 0 0 0.01 0 0.01 0.01 0 0 0 0 0.01 0.01 0 0 0.01 0 0.01 0.01 0 0 0.01 0 0.01 0 0 0 0 0 0.01 0.01 0 0 0 0 0.01 0 0 0 0 0 0.01 0 0 0 0 0 0.01 0 0 0 0 0 0.01 0 0 0 0 0 0.01 0 0.01 0 0 0 0.01 0 0.01 0 0 0 0.01 0 0.01 0 0 0 0.01 0 0 0 0.01 0 0.01 0 0 0 0.01 0 0.01 0 0 0 0 0c0.13,-0.02 0.26,-0.13 0.36,-0.33l-0.39 3.14z"/>
     <path id="1" class="fil1" d="M168.28 60.42l0 -0 0.07 0.11 0.07 0.1 0.08 0.1 0.09 0.09 0.09 0.09 0.1 0.08 0.11 0.08 0.11 0.07 0.12 0.06 0.12 0.05 0.12 0.04 0.13 0.03 0.13 0.02 0.13 0.01 0.13 0 0.13 -0.01 0.13 -0.02 0.14 -0.03 0.13 -0.04 0.13 -0.05 0.13 -0.06 0.13 -0.07 0.13 -0.08 0.13 -0.09 0.12 -0.1 0.12 -0.11 0.12 -0.12 0.12 -0.13 0.11 -0.14 0.11 -0.15 0.1 -0.16 0.1 -0.17 0.65 1.92 -0.14 0.25 -0.14 0.23 -0.15 0.21 -0.15 0.2 -0.16 0.18 -0.16 0.16 -0.16 0.15 -0.16 0.13 -0.16 0.12 -0.17 0.1 -0.17 0.09 -0.17 0.08 -0.17 0.06 -0.17 0.05 -0.17 0.04 -0.17 0.03 -0.17 0.01 -0.16 -0 -0.16 -0.02 -0.16 -0.03 -0.16 -0.04 -0.16 -0.05 -0.16 -0.07 -0.15 -0.08 -0.15 -0.09 -0.15 -0.1 -0.14 -0.12 -0.14 -0.13 -0.13 -0.14 -0.13 -0.16 -0.13 -0.17 -0.12 -0.19 0 -0 0.61 -1.98zm-0.61 1.99l0 -0 0.37 0.63 -0.37 -0.62zm-0.03 -0.05l-0.03 -0.06 0.64 -1.92 0.03 0.05 -0.61 1.98 -0.03 -0.05zm0 0l-0.02 -0.04 -0.01 -0.02 0.03 0.06zm-0.04 -0.07l0.68 -1.86 0 0.01 -0.68 1.86 -0 -0.01zm-0.01 -0.02l0.66 -1.9 0.02 0.04 0.01 0.02 -0.68 1.86 -0.01 -0.02zm0.66 -1.9l0.02 0.04 -0.01 -0.02 -0.01 -0.02zm-0.69 1.85l0.53 -2.09 0.12 0.16 0.05 0.08 -0.64 1.93 -0.05 -0.08zm0.53 -2.09l0.06 0.06 0.05 0.1 -0.12 -0.16zm-0.41 2.25l-0.13 -0.2 0.54 -2.06 0 0 -0.41 2.25 -0 -0zm0 0l-0.07 -0.07 -0.06 -0.12 0.13 0.2zm-0.16 -0.25l0.68 -1.86 0.03 0.05 -0.68 1.86 -0.03 -0.05zm-0.03 -0.05l-0.06 -0.13 0.73 -1.73 0.03 0.05 -0.68 1.86 -0.03 -0.05zm0 0l-0.03 -0.06 -0.02 -0.07 0.06 0.13zm-13.85 -37.31l0.28 -2 0.51 0.39 13.8 37.19 -0.79 1.6 -13.8 -37.19zm0 0l-0.58 -1.55 0.86 -0.45 -0.28 2zm8.19 2.77l0 0.01 -0.13 -0.31 -0.14 -0.3 -0.15 -0.28 -0.16 -0.27 -0.18 -0.25 -0.19 -0.23 -0.2 -0.22 -0.21 -0.2 -0.22 -0.18 -0.23 -0.17 -0.24 -0.15 -0.24 -0.13 -0.25 -0.12 -0.26 -0.1 -0.26 -0.08 -0.27 -0.07 -0.27 -0.05 -0.28 -0.04 -0.27 -0.03 -0.28 -0.01 -0.28 0 -0.28 0.02 -0.28 0.03 -0.28 0.04 -0.28 0.05 -0.28 0.06 -0.27 0.08 -0.27 0.09 -0.27 0.1 -0.26 0.11 -0.26 0.12 -0.25 0.12 -0.23 -2.39 0.27 -0.13 0.27 -0.13 0.28 -0.12 0.28 -0.1 0.29 -0.09 0.29 -0.08 0.3 -0.07 0.3 -0.06 0.3 -0.04 0.3 -0.03 0.31 -0.02 0.3 -0 0.3 0.01 0.3 0.03 0.3 0.04 0.3 0.06 0.3 0.08 0.29 0.09 0.29 0.12 0.28 0.13 0.28 0.15 0.27 0.17 0.27 0.2 0.26 0.22 0.25 0.24 0.25 0.27 0.24 0.3 0.23 0.32 0.22 0.35 0.21 0.38 0.19 0.41 0.18 0.44 0 0.01 -0.79 1.6zm0.79 -1.61l0 0.01 -0.02 -0.05 0.02 0.04zm11.31 30.6l-0.35 2.02 -0.44 -0.42 -11.31 -30.59 0.79 -1.6 11.31 30.59zm0 0l0.67 1.82 -1.02 0.21 0.35 -2.02zm-1.93 2.34l-0.38 -0.29 0.3 -2.15 1.58 -0.32 0.09 2.44 -1.58 0.32zm-0.38 -0.29l-0.95 -1.9 1.25 -0.25 -0.3 2.15zm0.68 -1.85l0.18 0.93 -0.86 0.93 -0.01 -0.01 0.68 -1.86 0.01 0.01zm0 0l0.18 0.37 0 0.56 -0.18 -0.93zm0.18 0.93l-0.77 1.08 -0.28 -1.08 0 -0 1.04 0 0 0zm-0.77 1.08l-0.28 -0.35 0 -0.73 0.28 1.08zm0.5 -2.15l0.09 0.15 -0.59 2.01 -0.01 -0.01 0.49 -2.16 0.01 0.01zm0 0l0.05 0.06 0.04 0.08 -0.09 -0.15zm0.1 0.16l-0.64 1.93 -0.04 -0.07 -0.01 -0.01 0.68 -1.86 0.01 0.01zm-0.64 1.93l-0.02 -0.03 -0.02 -0.04 0.04 0.07zm0.3 -1l0 0 0 0 0 0 0.3 -1 -0.3 1zm-0.3 1l-0.02 -0.03 -0.02 -0.04 0.04 0.07zm0.61 -1.99l-0.59 2.03 -0.02 -0.03 -0.01 -0.01 0.61 -1.99 0.01 0.01zm-0.59 2.03l-0.02 -0.03 -0.01 -0.01 0.02 0.03zm0.57 -2.05l0.06 0.1 -0.62 1.96 -0.01 -0.01 0.56 -2.06 0.01 0.01zm0 0l0.03 0.05 0.03 0.05 -0.06 -0.1zm-0.28 1.03l0 0 0 0 0 0 0.34 -0.93 -0.34 0.93zm0.28 -1.03l0.03 0.05 0.03 0.05 -0.06 -0.1zm0.06 0.11l-0.64 1.93 -0.04 -0.07 -0.01 -0.01 0.68 -1.86 0.01 0.01zm-0.64 1.93l-0.02 -0.03 -0.02 -0.04 0.04 0.07zm0.61 -1.99l-0.55 2.08 -0.06 -0.08 -0.01 -0.01 0.61 -1.99 0.01 0.01zm-0.55 2.08l-0.04 -0.04 -0.02 -0.04 0.06 0.08zm0.25 -1.08l0 0 0 0 0 0 0.25 -1.08 -0.25 1.08zm-0.25 1.08l-0.04 -0.04 -0.02 -0.04 0.06 0.08zm0.5 -2.15l0.06 0.08 -0.55 2.08 -0.01 -0.01 0.49 -2.16 0.01 0.01zm0 0l0.04 0.04 0.02 0.04 -0.06 -0.08zm0.06 0.09l-0.51 2.12 -0.1 -0.13 -0.01 -0.01 0.61 -1.99 0.01 0.01zm-0.51 2.12l-0.05 -0.05 -0.05 -0.08 0.1 0.13zm0.41 -2.25l0.13 0.2 -0.54 2.06 -0 -0 0.41 -2.25 0 0zm0 0l0.07 0.07 0.06 0.12 -0.13 -0.2zm0.14 0.2l-0.59 2.01 -0.09 -0.15 -0 -0.01 0.68 -1.86 0 0.01zm-0.59 2.01l-0.05 -0.06 -0.04 -0.08 0.09 0.15zm0.5 -2.15l0.28 1.08 -0.77 1.08 -0.01 -0.01 0.49 -2.16 0.01 0.01zm0 0l0.28 0.35 0 0.73 -0.28 -1.08zm0.28 1.08l-0.73 1.13 -0.32 -1.13 0 -0 1.04 0 0 0zm-0.73 1.13l-0.32 -0.32 0 -0.81 0.32 1.13zm0.42 -2.25l0.1 0.13 -0.51 2.12 -0.01 -0.01 0.41 -2.25 0.01 0.01zm0 0l0.05 0.05 0.05 0.08 -0.1 -0.13zm0.1 0.14l-0.51 2.12 -0.1 -0.13 -0.01 -0.01 0.61 -1.99 0.01 0.01zm-0.51 2.12l-0.05 -0.05 -0.05 -0.08 0.1 0.13zm0.41 -2.25l0.05 0.06 -0.46 2.19 -0 -0 0.41 -2.25 0 0zm0 0l0.03 0.03 0.03 0.03 -0.05 -0.06zm0.06 0.07l0.04 0.07 -0.56 2.06 -0.01 -0.01 0.52 -2.13 0.01 0.01zm0 0l0.02 0.03 0.02 0.04 -0.04 -0.07zm0.05 0.07l-0.3 2.22 -0.3 -0.23 -0.01 -0.01 0.61 -1.99 0.01 0.01zm-0.3 2.22l-0.17 0 -0.14 -0.23 0.3 0.23zm0 -2.45l0.26 0.16 -0.26 2.29 -0 0 0 -2.45 0 0zm0 0l0.14 0 0.12 0.16 -0.26 -0.16zm0.26 0.17l-0.52 2.13 -0.01 -0.01 0.52 -2.13 0.01 0.01zm0.01 0.01l-0.46 2.19 -0.05 -0.06 -0.01 -0.01 0.52 -2.13 0.01 0.01zm-0.46 2.19l-0.03 -0.03 -0.03 -0.03 0.05 0.06zm0.41 -2.25l0.05 0.06 -0.46 2.19 -0 -0 0.41 -2.25 0 0zm0 0l0.03 0.03 0.03 0.03 -0.05 -0.06zm0.06 0.07l-0.46 2.19 -0.05 -0.06 -0.01 -0.01 0.52 -2.13 0.01 0.01zm-0.46 2.19l-0.03 -0.03 -0.03 -0.03 0.05 0.06zm0.42 -2.25l-0.41 2.25 -0.01 -0.01 0.41 -2.25 0.01 0.01zm0 0l0.08 0.09 -0.49 2.16 -0 -0 0.41 -2.25 0 0zm0 0l0.04 0.04 0.04 0.06 -0.08 -0.09zm0.08 0.1l-0.49 2.16 -0.08 -0.09 -0 -0.01 0.56 -2.06 0 0.01zm-0.49 2.16l-0.04 -0.04 -0.04 -0.06 0.08 0.09zm0.42 -2.25l-0.41 2.25 -0.01 -0.01 0.41 -2.25 0.01 0.01zm0 0l-0.41 2.25 -0 -0 0.41 -2.25 0 0zm0.01 0.01l0.05 0.06 -0.46 2.19 -0.01 -0.01 0.41 -2.25 0.01 0.01zm0 0l0.03 0.03 0.03 0.03 -0.05 -0.06zm0.06 0.07l-0.37 2.26 -0.15 -0.13 -0.01 -0.01 0.52 -2.13 0.01 0.01zm-0.37 2.26l-0.08 -0.04 -0.07 -0.09 0.15 0.13zm0.22 -2.39l0.17 0.17 -0.39 2.23 -0 -0 0.22 -2.4 0 0zm0 0l0.09 0.05 0.08 0.12 -0.17 -0.17zm0.18 0.17l-0.44 2.2 -0.12 -0.13 -0 -0.01 0.56 -2.06 0 0.01zm-0.44 2.2l-0.07 -0.05 -0.06 -0.08 0.12 0.13zm0.33 -2.33l0.18 0.23 -0.5 2.1 -0.01 -0.01 0.32 -2.33 0.01 0.01zm0 0l0.1 0.07 0.08 0.16 -0.18 -0.23zm0.18 0.24l-0.48 2.11 -0.2 -0.25 -0 -0 0.68 -1.86 0 0zm-0.48 2.11l-0.11 -0.07 -0.09 -0.17 0.2 0.25zm0.29 -2.35l0.12 0.11 -0.4 2.24 -0.01 -0 0.28 -2.35 0.01 0zm0 0l0.06 0.04 0.05 0.07 -0.12 -0.11zm0.12 0.12l-0.37 2.26 -0.15 -0.13 -0.01 -0.01 0.52 -2.13 0.01 0.01zm-0.37 2.26l-0.08 -0.04 -0.07 -0.09 0.15 0.13zm0.22 -2.39l0.1 0.07 -0.31 2.32 -0 -0 0.22 -2.4 0 0zm0 0l0.05 0.03 0.05 0.05 -0.1 -0.07zm0.1 0.07l-0.36 2.29 -0.05 -0.04 -0 -0 0.41 -2.25 0 0zm-0.36 2.29l-0.03 -0.02 -0.02 -0.02 0.05 0.04zm0.33 -2.33l0.18 0.23 -0.5 2.1 -0.01 -0.01 0.32 -2.33 0.01 0.01zm0 0l0.1 0.07 0.08 0.16 -0.18 -0.23zm0.18 0.24l-0.41 2.14 -0.27 -0.28 -0 -0 0.68 -1.86 0 0zm-0.41 2.14l-0.15 -0.05 -0.12 -0.23 0.27 0.28zm0.15 -2.42l0.09 0.05 -0.23 2.38 -0.01 -0 0.15 -2.42 0.01 0zm0 0l0.05 0.02 0.04 0.03 -0.09 -0.05zm0.09 0.05l0.18 0.23 -0.5 2.1 -0.01 -0.01 0.32 -2.33 0.01 0.01zm0 0l0.1 0.07 0.08 0.16 -0.18 -0.23zm0.18 0.24l-0.48 2.11 -0.2 -0.25 -0 -0 0.68 -1.86 0 0zm-0.48 2.11l-0.11 -0.07 -0.09 -0.17 0.2 0.25zm0.29 -2.35l-0.28 2.35 -0.01 -0 0.28 -2.35 0.01 0zm0.01 0l0.06 0.05 -0.35 2.3 -0.01 -0 0.28 -2.35 0.01 0zm0 0l0.04 0.02 0.03 0.03 -0.06 -0.05zm0.07 0.05l-0.31 2.32 -0.1 -0.07 -0 -0 0.41 -2.25 0 0zm-0.31 2.32l-0.05 -0.03 -0.05 -0.05 0.1 0.07zm0.22 -2.39l0.05 0.03 -0.27 2.36 -0 -0 0.22 -2.4 0 0zm0 0l0.02 0.01 0.03 0.02 -0.05 -0.03zm0.06 0.04l-0.27 2.36 -0.05 -0.03 -0.01 -0.01 0.32 -2.33 0.01 0.01zm-0.27 2.36l-0.02 -0.01 -0.03 -0.02 0.05 0.03zm0.22 -2.39l0.1 0.07 -0.31 2.32 -0 -0 0.22 -2.4 0 0zm0 0l0.05 0.03 0.05 0.05 -0.1 -0.07zm0.1 0.07l-0.31 2.32 -0.1 -0.07 -0 -0 0.41 -2.25 0 0zm-0.31 2.32l-0.05 -0.03 -0.05 -0.05 0.1 0.07zm0.22 -2.39l-0.22 2.4 -0.01 -0 0.22 -2.4 0.01 0zm0 0l0.1 0.07 -0.31 2.32 -0 -0 0.22 -2.4 0 0zm0 0l0.05 0.03 0.05 0.05 -0.1 -0.07zm0.1 0.07l-0.31 2.32 -0.1 -0.07 -0 -0 0.41 -2.25 0 0zm-0.31 2.32l-0.05 -0.03 -0.05 -0.05 0.1 0.07zm0.22 -2.39l-0.22 2.4 -0.01 -0 0.22 -2.4 0.01 0zm0 0l-0.22 2.4 -0 -0 0.22 -2.4 0 0zm0 0l-0.22 2.4 -0 -0 0.22 -2.4 0 0zm0.01 0l-0.22 2.4 -0.01 -0 0.22 -2.4 0.01 0zm0 0l-0.22 2.4 -0 -0 0.22 -2.4 0 0zm0 0l-0.22 2.4 -0 -0 0.22 -2.4 0 0zm0.01 0l-0.22 2.4 -0.01 -0 0.22 -2.4 0.01 0zm0 0l-0.22 2.4 -0 -0 0.22 -2.4 0 0zm0 0l0.03 0.02 -0.25 2.37 -0 -0 0.22 -2.4 0 0zm0 0l0.01 0.01 0.02 0.01 -0.03 -0.02zm0.04 0.02l-0.22 2.39 -0.07 -0.03 -0.01 -0 0.28 -2.35 0.01 0zm-0.22 2.39l-0.04 -0.01 -0.03 -0.02 0.07 0.03zm0.15 -2.42l0.13 0.08 -0.28 2.34 -0.01 -0 0.15 -2.42 0.01 0zm0 0l0.07 0.02 0.06 0.06 -0.13 -0.08zm0.13 0.09l-0.26 2.34 -0.15 -0.09 -0 -0 0.41 -2.25 0 0zm-0.26 2.34l-0.08 -0.02 -0.07 -0.07 0.15 0.09zm0.12 -2.43l0.02 0.01 -0.13 2.43 -0.01 -0 0.11 -2.44 0.01 0zm0 0l0.02 0.01 -0.03 -0.01 0.01 0zm0.02 0.01l-0.07 2.44 -0.07 -0.01 -0.01 -0 0.15 -2.42 0.01 0zm-0.07 2.44l-0.03 0 -0.04 -0.01 0.07 0.01zm0 -2.45l0.11 0.03 -0.11 2.42 -0 0 0 -2.45 0 0zm0 0l0.05 0 0.05 0.03 -0.11 -0.03zm0.12 0.03l-0.18 2.41 -0.04 -0.01 -0.01 -0 0.22 -2.4 0.01 0zm-0.18 2.41l-0.03 -0.01 -0.01 -0.01 0.04 0.01zm0.15 -2.42l-0.07 2.44 -0.07 -0.01 -0.01 -0 0.15 -2.42 0.01 0zm-0.07 2.44l-0.03 0 -0.04 -0.01 0.07 0.01zm0 -2.45l0.07 0.01 -0.07 2.44 -0 0 0 -2.45 0 0zm0 0l0.03 0 0.04 0.01 -0.07 -0.01zm0.08 0.02l-0.07 2.44 -0.07 -0.01 -0.01 -0 0.15 -2.42 0.01 0zm-0.07 2.44l-0.03 0 -0.04 -0.01 0.07 0.01zm0 -2.45l0.06 0.01 -0.06 2.44 -0 0 0 -2.45 0 0zm0 0l0.03 0 0.03 0.01 -0.06 -0.01zm0.06 0.01l0.02 0.01 -0.13 2.43 -0.01 -0 0.11 -2.44 0.01 0zm0 0l0.02 0.01 -0.03 -0.01 0.01 0zm0.02 0.01l-0.13 2.43 -0.02 -0.01 -0.01 -0 0.15 -2.42 0.01 0zm-0.13 2.43l-0.02 -0.01 0.03 0.01 -0.01 -0zm0.06 -1.22l0 0 0 0 0 0 0.06 -1.22 -0.06 1.22zm-0.06 1.22l-0.02 -0.01 0.03 0.01 -0.01 -0zm0.12 -2.43l-0.11 2.44 -0.01 -0 0.11 -2.44 0.01 0zm0.01 0l-0.06 2.44 -0.06 -0.01 -0.01 -0 0.11 -2.44 0.01 0zm-0.06 2.44l-0.03 0 -0.03 -0.01 0.06 0.01zm0 -1.22l0 0 0 0 0 0 0 -1.22 0 1.22zm0 1.22l-0.03 0 -0.03 -0.01 0.06 0.01zm0 -2.45l0.04 2.45 -0.04 0 -0 0 0 -2.45 0 0zm0.04 2.45l-0.02 0 -0.01 0 0.04 -0zm-0.18 -1.89l0.83 1.29 -0.01 0.02 -0.02 0.04 -0.03 0.05 -0.01 0.02 -0.02 0.03 -0.04 0.05 -0.02 0.03 0.01 -0.01 -0.03 0.04 -0.04 0.04 -0.01 0.01 -0.01 0.01 -0.02 0.03 -0.04 0.04 -0.03 0.02 0 -0 -0.01 0.01 -0.04 0.03 -0.03 0.02 -0.01 0.01 -0.03 0.02 -0.03 0.02 -0.01 0.01 -0.01 0.01 -0.03 0.02 -0.03 0.01 -0.03 0.01 -0.03 0.01 -0.01 0 -0.01 0 -0.03 0.01 -0.02 0 -0.07 -2.44 0 0 -0 0 0.02 -0.01 0.01 -0 -0.01 0 -0 0 -0 0 -0 0 0.01 -0.01 0.01 -0.01 -0 0 -0 0 0.01 -0.01 -0 0 -0.01 0.01 0.01 -0.01 0.02 -0.02 -0 0 -0.01 0.01 -0 0 0.01 -0.01 0.01 -0.01 -0.01 0.02 -0.01 0.01 0.03 -0.04 0 0 -0.02 0.02 0 0 0.01 -0.02 -0.01 0.01 -0 0 0.01 -0.01 0.83 1.29 -1 -0.69zm0.17 -0.6l1.31 -2.54 -0.48 3.82 -0.83 -1.29zm0.44 4.42l-0.18 0.62 -0.83 -1.3 0.39 -3.14 1 0.69 -0.39 3.14zm0 0l-0.05 0.37 -0.13 0.24 0.18 -0.62z"/>
    </g>
    <path class="fil0" d="M167.31 61.41c4.35,2.37 4.78,-7.41 6.28,-10.66l8.55 -23.62c1.77,-5.57 6.8,-5.81 9.92,-5.03l-14.52 39.88c-0.94,2.73 -9.53,3.66 -10.24,-0.57z"/>
   </g>
   <path class="fil1" d="M216.54 24.86c2.73,-2 6.04,-3 9.93,-3 3.88,0 7.09,0.99 9.62,2.98 2.54,1.99 3.99,4.83 4.33,8.51 -5,1.45 -6.83,-1.2 -7.62,-2.16 -0.03,-0.04 -0.07,-0.08 -0.1,-0.11 -2.54,-3.07 -7.7,-2.7 -10.27,-1.11 -1.17,0.53 -1.9,1.45 -2.22,2.74 -0.31,1.29 -0.26,2.31 0.13,3.07 0.66,1.32 2.27,2.34 4.83,3.07l6.04 1.48c7.09,1.74 10.63,5.74 10.63,11.98 0,3.7 -1.54,6.68 -4.62,8.98 -3.12,2.21 -6.76,3.31 -10.93,3.31 -4.18,0 -7.81,-1.2 -10.9,-3.61 -3.09,-2.4 -4.65,-5.59 -4.71,-9.58 4.98,-1.71 6,0.5 7.53,2.54 2.83,3.8 5.8,4.03 9.39,3.83 2.08,-0.12 3.36,-0.85 4.5,-1.85 1.14,-1.01 1.78,-2.22 1.93,-3.66 0.12,-1.43 -0.32,-2.57 -1.33,-3.44 -0.99,-0.86 -2.37,-1.49 -4.11,-1.89l-5.62 -1.3c-3.96,-1.07 -6.89,-2.63 -8.76,-4.73 -1.8,-2.16 -2.54,-4.87 -2.22,-8.13 0.31,-3.26 1.83,-5.89 4.53,-7.93z"/>
   <path class="fil1" d="M289.6 43.14c0,1.81 -0.03,2.85 -0.09,3.14l-33.26 0c0.39,3.31 1.86,6.04 4.37,8.22 2.43,2 5.15,3.01 8.18,3.01 4.14,0 7.44,-1.01 9.81,-3.11 4.44,-3.93 8.01,-1.54 9.48,-0.59 -1.68,3.45 -4.23,6.11 -7.63,7.99 -3.39,1.89 -7.14,2.82 -11.22,2.82 -5.87,0 -10.87,-1.97 -15.04,-5.94 -3.96,-3.96 -5.94,-9.16 -5.94,-15.55 0,-6.41 1.97,-11.54 5.91,-15.42 3.95,-3.86 8.94,-5.81 14.99,-5.84 6.06,0 10.94,1.96 14.66,5.86 3.85,3.89 5.78,9.03 5.78,15.39zm-11.97 -11.2c-2.28,-1.96 -5.12,-2.94 -8.48,-2.94 -3.38,0 -6.27,0.98 -8.7,2.94 -2.4,2.09 -3.8,4.81 -4.2,8.12l25.41 0c-0.4,-3.3 -1.74,-6.03 -4.02,-8.12z"/>
   <g id="_2685335699520">
    <polygon class="fil2" points="20.08,20.07 64.98,0 -0,0 0.15,64.63 "/>
    <polygon class="fil3" points="45.04,44.56 0.15,64.63 65.12,64.63 64.98,0 "/>
   </g>
   <path class="fil1" d="M93.91 0l4.57 0c0.81,5.35 -0.86,7.78 -4.59,7.8 -5.24,0.03 -7.84,3.57 -7.78,10.73l0 4.24 19.11 0.04c-0.09,4.02 -1.55,7.12 -6.06,7.26l-13.05 -0.04 0 27.72c0.02,4.28 -3.44,7.02 -8.16,6.88l0 -34.6 -8.16 0c-0.14,-3.8 1.67,-7.19 5.57,-7.26l2.58 0 0 -4.24c0,-5.91 1.33,-10.47 4,-13.67 2.68,-3.21 6.66,-4.82 11.95,-4.85z"/>
   <path class="fil1" d="M119.4 41.84l0 16.43c-0.12,4.7 -3.83,5.86 -8.11,6.01l0 -35.03c0.17,-5.09 3.56,-6.46 8.11,-6.58l0 6.25c1.19,-2.32 2.97,-4.1 5.36,-5.32 2.38,-1.22 4.93,-1.83 7.65,-1.83 5.23,0 9.16,1.6 11.82,4.82 2.78,3.16 4.19,7.71 4.22,13.62l0 24.06c-4.7,0.43 -7.84,-1.35 -8.11,-6.09l0 -17.43c0,-3.5 -0.83,-6.21 -2.48,-8.09 -1.6,-1.97 -3.96,-2.95 -7.1,-2.95 -3.16,0 -5.85,1.02 -8.05,3.09 -2.21,2.05 -3.31,5.08 -3.31,9.04z"/>
   <path class="fil4" d="M104.95 23.54l0 33.34c-0.11,5.37 -2.84,7.25 -8.11,7.39l0 -34.87c0.08,-4.62 4.12,-5.75 8.11,-5.86z"/>
   <path class="fil4" d="M203.93 22.38l0 34.75c-0.11,5.46 -2.89,7.36 -8.23,7.5l0 -35.41c0.08,-4.69 4.19,-6.73 8.23,-6.84z"/>
   <path class="fil2 str0" d="M199.88 1.8c1.5,0 2.82,0.49 3.95,1.47 1.14,0.99 1.71,2.26 1.71,3.79 0,1.53 -0.56,2.79 -1.71,3.79 -1.13,0.98 -2.45,1.47 -3.95,1.47 -1.5,0 -2.82,-0.51 -3.99,-1.51 -1.06,-1.02 -1.57,-2.27 -1.57,-3.74 0,-1.48 0.52,-2.72 1.57,-3.74 1.17,-1.01 2.49,-1.51 3.99,-1.51z"/>
  </g>
 </g>
</svg>
