<?xml version="1.0" encoding="UTF-8"?>
<!DOCTYPE svg PUBLIC "-//W3C//DTD SVG 1.1//EN" "http://www.w3.org/Graphics/SVG/1.1/DTD/svg11.dtd">
<!-- Creator: CorelDRAW 2018 (64-Bit Evaluation Version) -->
<svg xmlns="http://www.w3.org/2000/svg" xml:space="preserve" width="170.724mm" height="37.968mm" version="1.1" style="shape-rendering:geometricPrecision; text-rendering:geometricPrecision; image-rendering:optimizeQuality; fill-rule:evenodd; clip-rule:evenodd"
viewBox="0 0 281.54 62.61"
 xmlns:xlink="http://www.w3.org/1999/xlink">
 <defs>
  <style type="text/css">
   <![CDATA[
    .str0 {stroke:#0A408D;stroke-width:3.3;stroke-miterlimit:22.9256}
    .fil3 {fill:#0A408D}
    .fil4 {fill:#3D4852}
    .fil0 {fill:#3D4852}
    .fil2 {fill:#FFC035}
    .fil1 {fill:#3D4852;fill-rule:nonzero}
   ]]>
  </style>
 </defs>
 <g id="Layer_x0020_1">
  <metadata id="CorelCorpID_0Corel-Layer"/>
  <g id="_2685149263296">
   <g>
    <path class="fil0" d="M167.5 59.08c-1.2,2.22 -3.25,2.22 -4.19,0.63l-0.03 -0.04 -0 -0.01 -0.01 -0.02 -0.04 -0.08 -0 -0 -0.03 -0.05 -0.03 -0.05 -13.41 -36.15c2.65,-1.39 6.44,-1.35 7.97,2.7l10.99 29.74 -1.53 0.31 0 0.01 0 0 0.01 0.01 0 0.01 0 0 0 0.01 0.01 0.01 0 0 0 0.01 0 0.01 0 0 0.01 0.01 0 0.01 0 0 0 0.01 0.01 0.01 0 0 0.01 0.01 0 0.01 0 0 0 0.01 0 0.01 0 0 0 0.01 0 0.01 0 0 0 0.01 0.01 0.01 0 0 0 0 0.01 0.01 0 0 0 0 0 0.01 0 0 0 0 0.01 0 0 0 0 0 0 0.01 0 0 0 0 0.01 0 0 0 0 0 0.01 0 0 0 0 0 0 0 0 0 0 0 0.01 0 0 0 0 0 0.01 0 0 0 0 0 0.01 0 0 0 0 0 0.01 0 0 0 0 0 0.01 0 0 0 0 0 0 0 0 0 0 0 0.01 0 0 0 0 0 0.01 0 0 0 0 0 0.01 0 0 0 0.01 0 0 0 0 0 0.01 0 0.01 0 0 0 0 0c0.13,-0.02 0.25,-0.13 0.35,-0.32l-0.38 3.05z"/>
    <path id="1" class="fil1" d="M163.6 58.74l0 -0 0.07 0.11 0.07 0.1 0.08 0.09 0.09 0.09 0.09 0.09 0.1 0.08 0.1 0.07 0.11 0.06 0.11 0.06 0.11 0.05 0.12 0.04 0.12 0.03 0.12 0.02 0.13 0.01 0.13 0 0.13 -0.01 0.13 -0.02 0.13 -0.03 0.13 -0.04 0.13 -0.05 0.13 -0.06 0.13 -0.07 0.13 -0.08 0.12 -0.09 0.12 -0.1 0.12 -0.11 0.11 -0.12 0.11 -0.13 0.11 -0.14 0.11 -0.15 0.1 -0.16 0.09 -0.16 0.63 1.87 -0.14 0.24 -0.14 0.22 -0.14 0.2 -0.15 0.19 -0.15 0.17 -0.15 0.16 -0.16 0.14 -0.16 0.13 -0.16 0.12 -0.16 0.1 -0.16 0.09 -0.16 0.07 -0.16 0.06 -0.16 0.05 -0.16 0.03 -0.16 0.02 -0.16 0.01 -0.16 -0 -0.16 -0.01 -0.16 -0.03 -0.16 -0.04 -0.15 -0.05 -0.15 -0.06 -0.15 -0.08 -0.15 -0.09 -0.14 -0.1 -0.14 -0.11 -0.14 -0.13 -0.13 -0.14 -0.13 -0.16 -0.12 -0.17 -0.12 -0.18 0 -0 0.59 -1.93zm-0.59 1.93l0 -0 0.36 0.61 -0.36 -0.61zm-0.03 -0.05l-0.03 -0.06 0.63 -1.87 0.03 0.04 -0.59 1.93 -0.03 -0.04zm0 0l-0.02 -0.04 -0.01 -0.02 0.03 0.06zm-0.04 -0.07l0.66 -1.81 0 0.01 -0.66 1.81 -0 -0.01zm-0.01 -0.02l0.64 -1.85 0.02 0.03 0.01 0.02 -0.66 1.81 -0.01 -0.02zm0.64 -1.85l0.02 0.03 -0.01 -0.02 -0.01 -0.02zm-0.67 1.8l0.51 -2.04 0.11 0.16 0.04 0.08 -0.62 1.88 -0.04 -0.08zm0.51 -2.04l0.06 0.06 0.05 0.1 -0.11 -0.16zm-0.4 2.19l-0.13 -0.19 0.53 -2 0 0 -0.4 2.19 -0 -0zm0 0l-0.07 -0.07 -0.06 -0.12 0.13 0.19zm-0.16 -0.24l0.66 -1.81 0.03 0.05 -0.66 1.81 -0.03 -0.05zm-0.03 -0.05l-0.05 -0.13 0.71 -1.69 0.03 0.05 -0.66 1.81 -0.03 -0.05zm0 0l-0.03 -0.06 -0.02 -0.06 0.05 0.13zm-13.47 -36.28l0.27 -1.94 0.49 0.38 13.41 36.15 -0.77 1.56 -13.41 -36.15zm0 0l-0.56 -1.51 0.83 -0.44 -0.27 1.94zm7.97 2.69l0 0.01 -0.12 -0.31 -0.14 -0.29 -0.15 -0.27 -0.16 -0.26 -0.17 -0.24 -0.18 -0.23 -0.19 -0.21 -0.2 -0.2 -0.21 -0.18 -0.22 -0.16 -0.23 -0.15 -0.24 -0.13 -0.24 -0.12 -0.25 -0.1 -0.26 -0.08 -0.26 -0.07 -0.26 -0.05 -0.27 -0.04 -0.27 -0.03 -0.27 -0.01 -0.27 0 -0.27 0.01 -0.28 0.03 -0.27 0.04 -0.27 0.05 -0.27 0.06 -0.27 0.08 -0.26 0.08 -0.26 0.09 -0.25 0.11 -0.25 0.11 -0.24 0.12 -0.22 -2.32 0.26 -0.13 0.27 -0.12 0.27 -0.11 0.28 -0.1 0.28 -0.09 0.28 -0.08 0.29 -0.07 0.29 -0.06 0.29 -0.04 0.29 -0.03 0.3 -0.02 0.29 -0 0.29 0.01 0.29 0.03 0.29 0.04 0.29 0.06 0.29 0.08 0.28 0.09 0.28 0.11 0.28 0.13 0.27 0.15 0.27 0.17 0.26 0.19 0.25 0.21 0.25 0.24 0.24 0.26 0.23 0.29 0.22 0.31 0.21 0.34 0.2 0.37 0.19 0.4 0.18 0.43 0 0.01 -0.77 1.56zm0.77 -1.57l0 0.01 -0.02 -0.05 0.02 0.04zm10.99 29.75l-0.34 1.96 -0.43 -0.41 -10.99 -29.74 0.77 -1.56 10.99 29.74zm0 0l0.65 1.76 -0.99 0.2 0.34 -1.96zm-1.87 2.27l-0.37 -0.28 0.29 -2.09 1.53 -0.31 0.09 2.37 -1.53 0.31zm-0.37 -0.28l-0.92 -1.85 1.21 -0.24 -0.29 2.09zm0.66 -1.8l0.18 0.91 -0.84 0.91 -0 -0.01 0.66 -1.81 0 0.01zm0 0l0.18 0.36 0 0.55 -0.18 -0.91zm0.18 0.91l-0.75 1.05 -0.27 -1.05 0 -0 1.02 0 0 0zm-0.75 1.05l-0.27 -0.34 0 -0.71 0.27 1.05zm0.48 -2.09l0.09 0.14 -0.57 1.95 -0.01 -0.01 0.48 -2.1 0.01 0.01zm0 0l0.05 0.06 0.04 0.08 -0.09 -0.14zm0.1 0.15l-0.63 1.88 -0.03 -0.06 -0 -0.01 0.66 -1.81 0 0.01zm-0.63 1.88l-0.01 -0.02 -0.02 -0.04 0.03 0.06zm0.3 -0.97l0 0 0 0 0 0 0.3 -0.97 -0.3 0.97zm-0.3 0.97l-0.01 -0.02 -0.02 -0.04 0.03 0.06zm0.6 -1.93l-0.57 1.97 -0.02 -0.03 -0 -0.01 0.59 -1.94 0 0.01zm-0.57 1.97l-0.02 -0.02 -0 -0.01 0.02 0.03zm0.55 -2l0.06 0.1 -0.6 1.91 -0.01 -0.01 0.55 -2.01 0.01 0.01zm0 0l0.03 0.04 0.03 0.05 -0.06 -0.1zm-0.27 1l0 0 0 0 0 0 0.33 -0.91 -0.33 0.91zm0.27 -1l0.03 0.04 0.03 0.05 -0.06 -0.1zm0.06 0.11l-0.63 1.88 -0.03 -0.06 -0 -0.01 0.66 -1.81 0 0.01zm-0.63 1.88l-0.01 -0.02 -0.02 -0.04 0.03 0.06zm0.6 -1.93l-0.53 2.02 -0.06 -0.08 -0 -0.01 0.59 -1.94 0 0.01zm-0.53 2.02l-0.03 -0.04 -0.02 -0.04 0.06 0.08zm0.24 -1.05l0 0 0 0 0 0 0.24 -1.05 -0.24 1.05zm-0.24 1.05l-0.03 -0.04 -0.02 -0.04 0.06 0.08zm0.48 -2.09l0.06 0.08 -0.53 2.02 -0.01 -0.01 0.48 -2.1 0.01 0.01zm0 0l0.03 0.04 0.02 0.04 -0.06 -0.08zm0.06 0.09l-0.49 2.06 -0.1 -0.13 -0 -0.01 0.59 -1.94 0 0.01zm-0.49 2.06l-0.05 -0.05 -0.04 -0.07 0.1 0.13zm0.4 -2.19l0.13 0.19 -0.53 2 -0 -0 0.4 -2.19 0 0zm0 0l0.07 0.07 0.06 0.12 -0.13 -0.19zm0.13 0.2l-0.57 1.95 -0.09 -0.14 -0 -0.01 0.66 -1.81 0 0.01zm-0.57 1.95l-0.05 -0.06 -0.04 -0.08 0.09 0.14zm0.48 -2.09l0.27 1.05 -0.75 1.05 -0.01 -0.01 0.48 -2.1 0.01 0.01zm0 0l0.27 0.34 0 0.71 -0.27 -1.05zm0.27 1.05l-0.71 1.1 -0.31 -1.1 0 -0 1.02 0 0 0zm-0.71 1.1l-0.31 -0.31 0 -0.79 0.31 1.1zm0.41 -2.18l0.1 0.13 -0.49 2.06 -0.01 -0.01 0.4 -2.19 0.01 0.01zm0 0l0.05 0.05 0.04 0.07 -0.1 -0.13zm0.1 0.13l-0.49 2.06 -0.1 -0.13 -0 -0.01 0.59 -1.94 0 0.01zm-0.49 2.06l-0.05 -0.05 -0.04 -0.07 0.1 0.13zm0.4 -2.19l0.05 0.06 -0.45 2.13 -0 -0 0.4 -2.19 0 0zm0 0l0.03 0.03 0.02 0.03 -0.05 -0.06zm0.06 0.07l0.04 0.06 -0.55 2 -0 -0.01 0.5 -2.07 0 0.01zm0 0l0.02 0.03 0.02 0.04 -0.04 -0.06zm0.05 0.07l-0.3 2.16 -0.3 -0.22 -0 -0.01 0.59 -1.94 0 0.01zm-0.3 2.16l-0.16 0 -0.13 -0.22 0.3 0.22zm0 -2.38l0.25 0.16 -0.25 2.22 -0 0 0 -2.38 0 0zm0 0l0.14 0 0.12 0.16 -0.25 -0.16zm0.26 0.16l-0.5 2.07 -0 -0.01 0.5 -2.07 0 0.01zm0 0.01l-0.45 2.13 -0.05 -0.06 -0 -0.01 0.5 -2.07 0 0.01zm-0.45 2.13l-0.03 -0.03 -0.02 -0.03 0.05 0.06zm0.4 -2.19l0.05 0.06 -0.45 2.13 -0 -0 0.4 -2.19 0 0zm0 0l0.03 0.03 0.02 0.03 -0.05 -0.06zm0.06 0.07l-0.45 2.13 -0.05 -0.06 -0 -0.01 0.5 -2.07 0 0.01zm-0.45 2.13l-0.03 -0.03 -0.02 -0.03 0.05 0.06zm0.41 -2.18l-0.4 2.19 -0.01 -0.01 0.4 -2.19 0.01 0.01zm0 0l0.07 0.09 -0.47 2.1 -0 -0 0.4 -2.19 0 0zm0 0l0.04 0.04 0.04 0.05 -0.07 -0.09zm0.08 0.1l-0.47 2.1 -0.07 -0.09 -0 -0 0.55 -2.01 0 0zm-0.47 2.1l-0.04 -0.04 -0.04 -0.05 0.07 0.09zm0.41 -2.18l-0.4 2.19 -0.01 -0.01 0.4 -2.19 0.01 0.01zm0 0l-0.4 2.19 -0 -0 0.4 -2.19 0 0zm0 0l0.05 0.06 -0.45 2.13 -0 -0 0.4 -2.19 0 0zm0 0l0.03 0.03 0.02 0.03 -0.05 -0.06zm0.06 0.07l-0.36 2.2 -0.15 -0.13 -0 -0.01 0.5 -2.07 0 0.01zm-0.36 2.2l-0.08 -0.04 -0.07 -0.09 0.15 0.13zm0.21 -2.33l0.17 0.16 -0.38 2.17 -0 -0 0.21 -2.33 0 0zm0 0l0.09 0.05 0.08 0.12 -0.17 -0.16zm0.17 0.17l-0.43 2.14 -0.12 -0.13 -0 -0 0.55 -2.01 0 0zm-0.43 2.14l-0.06 -0.05 -0.05 -0.08 0.12 0.13zm0.32 -2.26l0.17 0.23 -0.48 2.04 -0.01 -0 0.31 -2.27 0.01 0zm0 0l0.1 0.07 0.08 0.16 -0.17 -0.23zm0.18 0.23l-0.47 2.05 -0.19 -0.24 -0 -0 0.66 -1.81 0 0zm-0.47 2.05l-0.11 -0.07 -0.08 -0.17 0.19 0.24zm0.28 -2.29l0.11 0.11 -0.39 2.18 -0 -0 0.28 -2.29 0 0zm0 0l0.06 0.04 0.05 0.07 -0.11 -0.11zm0.12 0.12l-0.36 2.2 -0.15 -0.13 -0 -0.01 0.5 -2.07 0 0.01zm-0.36 2.2l-0.08 -0.04 -0.07 -0.09 0.15 0.13zm0.21 -2.33l0.09 0.07 -0.31 2.26 -0 -0 0.21 -2.33 0 0zm0 0l0.05 0.02 0.04 0.04 -0.09 -0.07zm0.1 0.07l-0.35 2.23 -0.04 -0.04 -0 -0 0.4 -2.19 0 0zm-0.35 2.23l-0.03 -0.02 -0.02 -0.02 0.04 0.04zm0.32 -2.26l0.17 0.23 -0.48 2.04 -0.01 -0 0.31 -2.27 0.01 0zm0 0l0.1 0.07 0.08 0.16 -0.17 -0.23zm0.18 0.23l-0.4 2.08 -0.26 -0.27 -0 -0 0.66 -1.81 0 0zm-0.4 2.08l-0.15 -0.05 -0.11 -0.22 0.26 0.27zm0.15 -2.35l0.08 0.04 -0.23 2.31 -0 -0 0.14 -2.35 0 0zm0 0l0.04 0.01 0.04 0.03 -0.08 -0.04zm0.09 0.05l0.17 0.23 -0.48 2.04 -0.01 -0 0.31 -2.27 0.01 0zm0 0l0.1 0.07 0.08 0.16 -0.17 -0.23zm0.18 0.23l-0.47 2.05 -0.19 -0.24 -0 -0 0.66 -1.81 0 0zm-0.47 2.05l-0.11 -0.07 -0.08 -0.17 0.19 0.24zm0.28 -2.29l-0.28 2.29 -0 -0 0.28 -2.29 0 0zm0 0l0.06 0.05 -0.34 2.24 -0 -0 0.28 -2.29 0 0zm0 0l0.03 0.02 0.03 0.03 -0.06 -0.05zm0.06 0.05l-0.31 2.26 -0.09 -0.07 -0 -0 0.4 -2.19 0 0zm-0.31 2.26l-0.05 -0.02 -0.04 -0.04 0.09 0.07zm0.21 -2.33l0.05 0.03 -0.26 2.3 -0 -0 0.21 -2.33 0 0zm0 0l0.02 0.01 0.03 0.02 -0.05 -0.03zm0.06 0.04l-0.26 2.3 -0.05 -0.03 -0.01 -0 0.31 -2.27 0.01 0zm-0.26 2.3l-0.02 -0.01 -0.03 -0.02 0.05 0.03zm0.21 -2.33l0.09 0.07 -0.31 2.26 -0 -0 0.21 -2.33 0 0zm0 0l0.05 0.02 0.04 0.04 -0.09 -0.07zm0.1 0.07l-0.31 2.26 -0.09 -0.07 -0 -0 0.4 -2.19 0 0zm-0.31 2.26l-0.05 -0.02 -0.04 -0.04 0.09 0.07zm0.22 -2.33l-0.21 2.33 -0.01 -0 0.21 -2.33 0.01 0zm0 0l0.09 0.07 -0.31 2.26 -0 -0 0.21 -2.33 0 0zm0 0l0.05 0.02 0.04 0.04 -0.09 -0.07zm0.1 0.07l-0.31 2.26 -0.09 -0.07 -0 -0 0.4 -2.19 0 0zm-0.31 2.26l-0.05 -0.02 -0.04 -0.04 0.09 0.07zm0.22 -2.33l-0.21 2.33 -0.01 -0 0.21 -2.33 0.01 0zm0 0l-0.21 2.33 -0 -0 0.21 -2.33 0 0zm0 0l-0.21 2.33 -0 -0 0.21 -2.33 0 0zm0.01 0l-0.21 2.33 -0.01 -0 0.21 -2.33 0.01 0zm0 0l-0.21 2.33 -0 -0 0.21 -2.33 0 0zm0 0l-0.21 2.33 -0 -0 0.21 -2.33 0 0zm0.01 0l-0.21 2.33 -0.01 -0 0.21 -2.33 0.01 0zm0 0l-0.21 2.33 -0 -0 0.21 -2.33 0 0zm0 0l0.03 0.02 -0.24 2.31 -0 -0 0.21 -2.33 0 0zm0 0l0.01 0.01 0.02 0.01 -0.03 -0.02zm0.04 0.02l-0.21 2.32 -0.07 -0.03 -0 -0 0.28 -2.29 0 0zm-0.21 2.32l-0.04 -0.01 -0.03 -0.02 0.07 0.03zm0.15 -2.35l0.13 0.08 -0.27 2.27 -0 -0 0.14 -2.35 0 0zm0 0l0.07 0.02 0.06 0.06 -0.13 -0.08zm0.13 0.08l-0.25 2.28 -0.15 -0.09 -0 -0 0.4 -2.19 0 0zm-0.25 2.28l-0.07 -0.02 -0.07 -0.07 0.15 0.09zm0.12 -2.37l0.02 0.01 -0.13 2.36 -0.01 -0 0.11 -2.37 0.01 0zm0 0l0.02 0.01 -0.03 -0.01 0.01 0zm0.02 0.01l-0.07 2.37 -0.07 -0.01 -0 -0 0.14 -2.35 0 0zm-0.07 2.37l-0.03 0 -0.04 -0.01 0.07 0.01zm0 -2.38l0.11 0.03 -0.11 2.35 -0 0 0 -2.38 0 0zm0 0l0.05 0 0.05 0.03 -0.11 -0.03zm0.11 0.03l-0.18 2.34 -0.03 -0.01 -0.01 -0 0.21 -2.33 0.01 0zm-0.18 2.34l-0.02 -0.01 -0.01 -0 0.03 0.01zm0.15 -2.35l-0.07 2.37 -0.07 -0.01 -0 -0 0.14 -2.35 0 0zm-0.07 2.37l-0.03 0 -0.04 -0.01 0.07 0.01zm0 -2.38l0.07 0.01 -0.07 2.37 -0 0 0 -2.38 0 0zm0 0l0.03 0 0.04 0.01 -0.07 -0.01zm0.08 0.02l-0.07 2.37 -0.07 -0.01 -0.01 -0 0.14 -2.35 0.01 0zm-0.07 2.37l-0.03 0 -0.04 -0.01 0.07 0.01zm0 -2.38l0.05 0.01 -0.05 2.37 -0 0 0 -2.38 0 0zm0 0l0.03 0 0.03 0.01 -0.05 -0.01zm0.06 0.01l0.02 0.01 -0.13 2.36 -0.01 -0 0.11 -2.37 0.01 0zm0 0l0.02 0.01 -0.03 -0.01 0.01 0zm0.02 0.01l-0.13 2.36 -0.02 -0.01 -0 -0 0.14 -2.35 0 0zm-0.13 2.36l-0.02 -0.01 0.03 0.01 -0.01 -0zm0.05 -1.18l0 0 0 0 0 0 0.05 -1.18 -0.05 1.18zm-0.05 1.18l-0.02 -0.01 0.03 0.01 -0.01 -0zm0.12 -2.37l-0.11 2.37 -0.01 -0 0.11 -2.37 0.01 0zm0.01 0l-0.05 2.37 -0.05 -0.01 -0.01 -0 0.11 -2.37 0.01 0zm-0.05 2.37l-0.03 0 -0.03 -0.01 0.05 0.01zm0 -1.19l0 0 0 0 0 0 0 -1.19 0 1.19zm0 1.19l-0.03 0 -0.03 -0.01 0.05 0.01zm0 -2.38l0.03 2.38 -0.03 0 -0 0 0 -2.38 0 0zm0.03 2.38l-0.02 0 -0.01 0 0.03 -0zm-0.17 -1.84l0.81 1.25 -0.01 0.02 -0.02 0.03 -0.03 0.05 -0.01 0.02 -0.02 0.03 -0.04 0.05 -0.02 0.03 0.01 -0.01 -0.03 0.04 -0.03 0.04 -0.01 0.01 -0.01 0.01 -0.02 0.03 -0.04 0.04 -0.02 0.02 0 -0 -0.01 0.01 -0.04 0.03 -0.02 0.02 -0.01 0.01 -0.02 0.02 -0.03 0.01 -0.01 0.01 -0.01 0.01 -0.03 0.01 -0.02 0.01 -0.03 0.01 -0.03 0.01 -0.01 0 -0.01 0 -0.03 0.01 -0.02 0 -0.07 -2.37 0 0 -0 0 0.01 -0 0.01 -0 -0.01 0 -0 0 -0 0 -0 0 0.01 -0.01 0.01 -0.01 -0 0 -0 0 0.01 -0.01 -0 0 -0.01 0.01 0.01 -0.01 0.02 -0.02 -0 0 -0.01 0.01 -0 0 0.01 -0.01 0.01 -0.01 -0.01 0.01 -0.01 0.01 0.03 -0.03 0 0 -0.02 0.02 0 0 0.01 -0.02 -0.01 0.01 -0 0 0.01 -0.01 0.81 1.25 -0.98 -0.67zm0.16 -0.58l1.27 -2.47 -0.46 3.72 -0.81 -1.25zm0.43 4.3l-0.17 0.6 -0.8 -1.27 0.38 -3.05 0.98 0.67 -0.38 3.05zm0 0l-0.05 0.36 -0.13 0.24 0.17 -0.6z"/>
   </g>
   <path class="fil0" d="M162.66 59.7c4.23,2.31 4.64,-7.2 6.11,-10.37l8.32 -22.96c1.72,-5.41 6.61,-5.65 9.64,-4.89l-14.12 38.78c-0.91,2.66 -9.27,3.55 -9.95,-0.56z"/>
  </g>
  <path class="fil1" d="M210.63 24.15c2.65,-1.94 5.85,-2.9 9.61,-2.9 3.75,0 6.86,0.96 9.31,2.89 2.46,1.92 3.87,4.67 4.19,8.24 -4.84,1.4 -6.61,-1.16 -7.38,-2.09 -0.03,-0.04 -0.07,-0.08 -0.09,-0.11 -2.46,-2.97 -7.45,-2.61 -9.94,-1.07 -1.13,0.51 -1.84,1.4 -2.15,2.65 -0.3,1.25 -0.25,2.24 0.13,2.97 0.64,1.27 2.19,2.26 4.67,2.97l5.85 1.43c6.87,1.69 10.29,5.55 10.29,11.59 0,3.58 -1.49,6.47 -4.47,8.69 -3.01,2.14 -6.54,3.2 -10.57,3.2 -4.05,0 -7.56,-1.16 -10.55,-3.5 -2.99,-2.32 -4.5,-5.41 -4.56,-9.27 4.82,-1.66 5.81,0.48 7.29,2.45 2.74,3.67 5.62,3.9 9.09,3.71 2.01,-0.11 3.25,-0.82 4.36,-1.79 1.1,-0.98 1.73,-2.15 1.87,-3.54 0.11,-1.39 -0.31,-2.49 -1.29,-3.33 -0.96,-0.83 -2.29,-1.44 -3.98,-1.83l-5.44 -1.26c-3.84,-1.03 -6.67,-2.55 -8.48,-4.57 -1.74,-2.1 -2.46,-4.71 -2.15,-7.87 0.3,-3.16 1.77,-5.7 4.39,-7.67z"/>
  <path class="fil1" d="M281.54 41.83c0,1.75 -0.03,2.76 -0.09,3.04l-32.17 0c0.38,3.2 1.8,5.84 4.23,7.95 2.35,1.94 4.98,2.91 7.91,2.91 4.01,0 7.19,-0.98 9.49,-3.01 4.3,-3.8 7.74,-1.49 9.17,-0.57 -1.63,3.34 -4.09,5.91 -7.38,7.72 -3.28,1.83 -6.9,2.73 -10.85,2.73 -5.67,0 -10.51,-1.91 -14.54,-5.74 -3.83,-3.83 -5.74,-8.85 -5.74,-15.04 0,-6.2 1.91,-11.16 5.71,-14.91 3.82,-3.73 8.64,-5.62 14.5,-5.64 5.86,0 10.58,1.89 14.17,5.67 3.72,3.76 5.59,8.73 5.59,14.88zm-11.57 -10.84c-2.21,-1.89 -4.95,-2.84 -8.2,-2.84 -3.27,0 -6.07,0.95 -8.42,2.84 -2.32,2.02 -3.68,4.66 -4.06,7.85l24.57 0c-0.38,-3.2 -1.68,-5.83 -3.89,-7.85z"/>
  <g>
   <polygon class="fil2" points="19.43,19.42 62.87,0 -0,0 0.14,62.53 "/>
   <polygon class="fil3" points="43.58,43.11 0.14,62.53 63.01,62.53 62.87,0 "/>
  </g>
  <path class="fil1" d="M91.35 0l4.42 0c0.78,5.18 -0.83,7.53 -4.44,7.55 -5.07,0.02 -7.59,3.46 -7.53,10.38l0 4.11 18.49 0.03c-0.09,3.89 -1.5,6.89 -5.86,7.03l-12.63 -0.03 0 26.83c0.02,4.14 -3.33,6.79 -7.89,6.66l0 -33.48 -7.89 0c-0.13,-3.68 1.61,-6.95 5.39,-7.03l2.5 0 0 -4.11c0,-5.73 1.29,-10.14 3.88,-13.23 2.59,-3.11 6.45,-4.67 11.57,-4.7z"/>
  <path class="fil1" d="M116.08 40.67l0 15.97c-0.12,4.57 -3.72,5.7 -7.88,5.84l0 -34.06c0.17,-4.95 3.46,-6.28 7.88,-6.39l0 6.08c1.15,-2.25 2.89,-3.98 5.21,-5.17 2.31,-1.18 4.79,-1.77 7.43,-1.77 5.08,0 8.91,1.56 11.49,4.69 2.7,3.08 4.07,7.49 4.1,13.24l0 23.39c-4.56,0.42 -7.62,-1.31 -7.88,-5.92l0 -16.95c0,-3.41 -0.81,-6.03 -2.41,-7.87 -1.56,-1.92 -3.85,-2.87 -6.9,-2.87 -3.07,0 -5.69,1 -7.82,3 -2.15,1.99 -3.22,4.94 -3.22,8.79z"/>
  <path class="fil4" d="M102.03 22.89l0 32.41c-0.11,5.22 -2.76,7.05 -7.88,7.18l0 -33.9c0.08,-4.49 4.01,-5.59 7.88,-5.69z"/>
  <path class="fil4" d="M198.26 21.76l0 33.6c-0.11,5.28 -2.79,7.12 -7.96,7.26l0 -34.24c0.08,-4.54 4.05,-6.5 7.96,-6.61z"/>
  <path class="fil3 str0" d="M194.32 1.75c1.46,0 2.74,0.48 3.84,1.43 1.11,0.97 1.66,2.19 1.66,3.68 0,1.49 -0.55,2.71 -1.66,3.68 -1.1,0.95 -2.38,1.43 -3.84,1.43 -1.46,0 -2.74,-0.49 -3.88,-1.47 -1.03,-1 -1.53,-2.21 -1.53,-3.64 0,-1.44 0.5,-2.64 1.53,-3.64 1.14,-0.98 2.42,-1.47 3.88,-1.47z"/>
 </g>
</svg>
