<?xml version="1.0" encoding="UTF-8"?>
<!DOCTYPE svg PUBLIC "-//W3C//DTD SVG 1.1//EN" "http://www.w3.org/Graphics/SVG/1.1/DTD/svg11.dtd">
<!-- Creator: CorelDRAW 2018 (64-Bit Evaluation Version) -->
<svg xmlns="http://www.w3.org/2000/svg" xml:space="preserve" width="34.1448mm" height="7.6201mm" version="1.1" style="shape-rendering:geometricPrecision; text-rendering:geometricPrecision; image-rendering:optimizeQuality; fill-rule:evenodd; clip-rule:evenodd"
viewBox="0 0 4431.27 988.93"
 xmlns:xlink="http://www.w3.org/1999/xlink">
 <defs>
  <style type="text/css">
   <![CDATA[
    .str0 {stroke:white;stroke-width:25.96;stroke-miterlimit:22.9256}
    .fil0 {fill:white}
    .fil1 {fill:white;fill-rule:nonzero}
   ]]>
  </style>
 </defs>
 <g id="Layer_x0020_1">
  <metadata id="CorelCorpID_0Corel-Layer"/>
  <g id="_2685533518448">
   <g>
    <g>
     <path class="fil0" d="M2636.29 929.83c-18.97,35.03 -51.09,34.92 -65.99,9.84l-0.4 -0.69 -0.05 -0.09 -0.16 -0.27 -0.69 -1.27 -0.03 -0.04 -0.42 -0.82 -0.4 -0.82 -211.11 -569.02c41.76,-21.87 101.29,-21.22 125.35,42.45l173 468.01 -24.1 4.88 0.09 0.16 0 0 0.08 0.14 0.09 0.16 0 0 0.08 0.14 0.09 0.14 0.01 0.01 0.08 0.13 0.09 0.14 0 0.01 0.09 0.12 0.08 0.14 0.01 0.01 0.08 0.12 0.09 0.13 0.01 0.01 0.08 0.1 0.09 0.13 0.03 0.03 0.06 0.1 0.09 0.12 0.03 0.03 0.06 0.09 0.09 0.12 0.03 0.03 0.08 0.09 0.09 0.1 0.03 0.03 0.06 0.08 0.12 0.12 0 0.01 0.09 0.08 0.09 0.1 0.03 0.04 0.06 0.06 0.09 0.09 0.04 0.03 0.06 0.06 0.1 0.09 0.04 0.03 0.06 0.05 0.09 0.1 0.04 0.03 0.06 0.05 0.09 0.08 0.05 0.03 0.05 0.05 0.1 0.08 0.04 0.03 0.06 0.05 0.1 0.06 0.05 0.04 0.04 0.03 0.1 0.06 0.05 0.04 0.05 0.03 0.1 0.05 0.05 0.04 0.04 0.03 0.12 0.05 0.05 0.04 0.04 0.01 0.1 0.05 0.05 0.04 0.05 0.01 0.1 0.04 0.06 0.04 0.04 0.01 0.1 0.04 0.06 0.03 0.03 0.01 0.12 0.04 0.06 0.01 0.04 0.03 0.18 0.04 0.03 0.01 0.1 0.03 0.08 0.03 0.03 0 0.1 0.03 0.08 0.01 0.03 0 0.01 0c1.97,-0.31 3.97,-2 5.54,-5l-6 47.99z"/>
     <path id="1" class="fil1" d="M2575.02 924.54l-0.05 -0.08 1.04 1.65 1.14 1.56 1.26 1.53 1.36 1.45 1.44 1.35 1.54 1.25 1.62 1.14 1.69 1.03 1.74 0.88 1.84 0.75 1.87 0.62 1.92 0.48 1.95 0.32 2 0.18 2.01 0.04 2.04 -0.13 2.04 -0.27 2.05 -0.44 2.06 -0.6 2.01 -0.75 2.04 -0.93 2.02 -1.08 1.97 -1.23 1.96 -1.4 1.91 -1.54 1.86 -1.71 1.82 -1.88 1.76 -2.01 1.71 -2.19 1.64 -2.31 1.54 -2.45 1.51 -2.63 9.92 29.41 -2.13 3.72 -2.22 3.52 -2.28 3.22 -2.31 2.97 -2.39 2.74 -2.41 2.48 -2.45 2.26 -2.5 2.04 -2.5 1.79 -2.54 1.6 -2.54 1.36 -2.56 1.17 -2.58 0.96 -2.58 0.75 -2.57 0.55 -2.56 0.35 -2.56 0.16 -2.53 -0.04 -2.52 -0.23 -2.49 -0.43 -2.47 -0.61 -2.41 -0.8 -2.39 -0.99 -2.36 -1.19 -2.31 -1.39 -2.25 -1.58 -2.19 -1.79 -2.14 -2 -2.06 -2.21 -2.01 -2.41 -1.95 -2.7 -1.84 -2.92 -0.05 -0.08 9.45 -30.24zm-9.4 30.32l-0.05 -0.08 -0.36 -0.64 0.42 0.71zm-0.45 -0.77l-0.06 -0.12 9.51 -30.12 0.4 0.69 -9.45 30.24 -0.4 -0.69zm0 0l0.08 0.14 -0.14 -0.26 0.06 0.12zm-0.12 -0.21l9.58 -30 0.05 0.09 -9.58 30 -0.05 -0.09zm-0.16 -0.27l-0.17 -0.31 9.75 -29.69 0.16 0.27 -9.58 30 -0.16 -0.27zm0 0l-0.17 -0.31 0.17 0.3 0 0.01zm-0.86 -1.58l9.28 -30.46 0.64 1.08 0.69 1.27 -9.92 29.38 -0.69 -1.27zm9.28 -30.46l0.29 0.43 0.35 0.65 -0.64 -1.08zm-8.67 31.5l-0.83 -1.44 9.47 -30.1 0.03 0.04 -8.64 31.54 -0.03 -0.04zm0 0l-0.42 -0.62 -0.42 -0.82 0.83 1.44zm-1.25 -2.26l-0.09 -0.18 10.4 -28.47 0.42 0.82 -10.3 28.66 -0.42 -0.82zm0 0l-0.05 -0.09 -0.04 -0.09 0.09 0.18zm-0.49 -1l-0.8 -1.87 11.29 -26.42 0.4 0.82 -10.49 28.29 -0.4 -0.82zm0 0l-0.45 -0.92 -0.35 -0.95 0.8 1.87zm-211.92 -570.88l4.3 -30.55 7.8 6 211.11 569.02 -12.1 24.55 -211.11 -569.02zm0 0l-8.79 -23.7 13.08 -6.85 -4.3 30.55zm125.35 42.42l0.05 0.16 -1.95 -4.78 -2.14 -4.54 -2.32 -4.3 -2.52 -4.06 -2.71 -3.83 -2.87 -3.58 -3.04 -3.34 -3.21 -3.09 -3.35 -2.83 -3.49 -2.57 -3.61 -2.32 -3.74 -2.05 -3.85 -1.82 -3.93 -1.57 -4.01 -1.32 -4.1 -1.08 -4.17 -0.84 -4.2 -0.62 -4.24 -0.39 -4.3 -0.17 -4.3 0.04 -4.31 0.25 -4.31 0.44 -4.3 0.64 -4.28 0.83 -4.24 1 -4.18 1.17 -4.14 1.35 -4.09 1.48 -4 1.64 -3.91 1.78 -3.82 1.91 -3.5 -36.55 4.13 -2.06 4.19 -1.91 4.31 -1.76 4.35 -1.58 4.43 -1.43 4.49 -1.25 4.53 -1.08 4.57 -0.88 4.61 -0.69 4.62 -0.47 4.62 -0.27 4.63 -0.04 4.63 0.19 4.61 0.42 4.59 0.67 4.56 0.92 4.52 1.18 4.48 1.48 4.4 1.75 4.35 2.05 4.26 2.36 4.18 2.69 4.09 3.01 4 3.37 3.88 3.74 3.76 4.11 3.62 4.52 3.49 4.94 3.32 5.39 3.15 5.83 2.97 6.31 2.78 6.8 0.05 0.16 -12.1 24.5zm12.04 -24.66l0.05 0.16 -0.31 -0.84 0.26 0.69zm173.05 468.16l-5.36 30.91 -6.74 -6.41 -173 -468.01 12.1 -24.5 173 468.01zm0 0l10.25 27.75 -15.61 3.17 5.36 -30.91zm-29.46 35.79l-5.41 -3.56 4.04 -33.77 24.1 -4.88 1.38 37.32 -24.1 4.88zm-5.41 -3.56l-17.2 -29.47 21.23 -4.3 -4.04 33.77zm9.54 -30.06l0.21 0.36 -9.66 29.85 -0.09 -0.16 9.45 -30.21 0.09 0.16zm0 0l0.14 0.25 0.06 0.12 -0.21 -0.36zm-4.72 15.11l0 0 0 0 0 0 4.93 -14.74 -4.93 14.74zm4.72 -15.11l0.14 0.25 0.06 0.12 -0.21 -0.36zm0.29 0.51l-9.66 29.85 -0.21 -0.36 -0.08 -0.14 9.86 -29.49 0.08 0.14zm-9.66 29.85l-0.14 -0.25 -0.06 -0.12 0.21 0.36zm9.54 -30.06l0.21 0.36 -9.66 29.85 -0.09 -0.16 9.45 -30.21 0.09 0.16zm0 0l0.14 0.25 0.06 0.12 -0.21 -0.36zm-4.72 15.11l0 0 0 0 0 0 4.93 -14.74 -4.93 14.74zm4.72 -15.11l0.14 0.25 0.06 0.12 -0.21 -0.36zm0.29 0.51l-9.4 30.29 -0.47 -0.8 -0.08 -0.14 9.86 -29.49 0.08 0.14zm-9.4 30.29l-0.19 -0.31 -0.27 -0.49 0.47 0.8zm9.02 -30.95l-7.61 32.77 -1.32 -1.67 -0.09 -0.14 8.93 -31.09 0.09 0.14zm-7.61 32.77l-0.71 -0.71 -0.61 -0.96 1.32 1.67zm6.29 -34.43l1.51 1.97 -7.79 32.47 -0.01 -0.01 6.28 -34.44 0.01 0.01zm0 0l0.8 0.8 0.7 1.17 -1.51 -1.97zm1.58 2.1l-9.11 30.8 -0.18 -0.3 -0.08 -0.13 9.29 -30.5 0.08 0.13zm-9.11 30.8l-0.05 -0.08 -0.13 -0.22 0.18 0.3zm9.02 -30.95l3.54 15.55 -12.47 15.55 -0.09 -0.14 8.93 -31.09 0.09 0.14zm0 0l3.54 5.57 0 9.98 -3.54 -15.55zm3.54 15.56l-11.86 16.42 -4.15 -16.42 0 -0.01 16.01 0 0 0.01zm-11.86 16.42l-4.15 -5.33 0 -11.08 4.15 16.42zm7.8 -32.72l1.08 1.67 -8.79 31.16 -0.09 -0.12 7.71 -32.83 0.09 0.12zm0 0l0.55 0.7 0.53 0.97 -1.08 -1.67zm1.16 1.82l-8.07 31.96 -1.79 -2.48 -0.08 -0.14 9.86 -29.49 0.08 0.14zm-8.07 31.96l-0.96 -0.96 -0.83 -1.52 1.79 2.48zm6.29 -34.43l1.18 1.45 -7.46 32.99 -0.01 -0.01 6.28 -34.44 0.01 0.01zm0 0l0.64 0.64 0.55 0.82 -1.18 -1.45zm1.26 1.57l-8.49 31.76 -0.16 -0.22 -0.08 -0.12 8.64 -31.54 0.08 0.12zm-8.49 31.76l-0.16 -0.22 -0.03 -0.04 0.18 0.26zm8.42 -31.85l-7.31 33.21 -1.03 -1.23 -0.09 -0.13 8.33 -31.98 0.09 0.13zm-7.31 33.21l-0.55 -0.55 -0.48 -0.69 1.03 1.23zm6.29 -34.43l0.82 0.95 -7.1 33.5 -0.01 -0.01 6.28 -34.44 0.01 0.01zm0 0l0.43 0.43 0.39 0.52 -0.82 -0.95zm0.9 1.05l0.21 0.29 -8.12 32.26 -0.08 -0.1 7.92 -32.55 0.08 0.1zm0 0l0.12 0.16 0.09 0.13 -0.21 -0.29zm0.3 0.42l-7.31 33.21 -1.03 -1.23 -0.09 -0.13 8.33 -31.98 0.09 0.13zm-7.31 33.21l-0.55 -0.55 -0.48 -0.69 1.03 1.23zm6.31 -34.42l1.38 1.76 -7.66 32.68 -0.03 -0.03 6.28 -34.44 0.03 0.03zm0 0l0.73 0.73 0.65 1.04 -1.38 -1.76zm1.44 1.87l-8.37 31.87 -0.66 -0.96 -0.06 -0.1 9.03 -30.91 0.06 0.1zm-8.37 31.87l-0.31 -0.4 -0.35 -0.56 0.66 0.96zm7.8 -32.72l-7 33.64 -0.71 -0.8 -0.09 -0.12 7.71 -32.83 0.09 0.12zm-7 33.64l-0.4 -0.4 -0.31 -0.4 0.71 0.8zm6.31 -34.42l0.97 1.16 -7.25 33.29 -0.03 -0.03 6.28 -34.44 0.03 0.03zm0 0l0.52 0.52 0.45 0.64 -0.97 -1.16zm1.04 1.25l-7.97 32.48 -0.26 -0.35 -0.06 -0.09 8.23 -32.13 0.06 0.09zm-7.97 32.48l-0.12 -0.14 -0.14 -0.21 0.26 0.35zm7.8 -32.72l-7 33.64 -0.71 -0.8 -0.09 -0.12 7.71 -32.83 0.09 0.12zm-7 33.64l-0.4 -0.4 -0.31 -0.4 0.71 0.8zm6.31 -34.42l0.43 0.47 -6.71 33.98 -0.03 -0.03 6.28 -34.44 0.03 0.03zm0 0l0.19 0.19 0.23 0.27 -0.43 -0.47zm0.51 0.56l-7.09 33.59 -0.05 -0.08 -0.08 -0.09 7.14 -33.51 0.08 0.09zm-7.09 33.59l-0.05 -0.08 0.78 0.91 -0.73 -0.83zm7.12 -33.56l-6.66 34.05 -0.38 -0.39 -0.09 -0.1 7.03 -33.66 0.09 0.1zm-6.66 34.05l-0.29 -0.29 -0.09 -0.1 0.38 0.39zm6.31 -34.42l0.51 0.56 -6.79 33.89 -0.03 -0.03 6.28 -34.44 0.03 0.03zm0 0l0.25 0.25 0.26 0.31 -0.51 -0.56zm0.57 0.64l-6.79 33.89 -0.51 -0.56 -0.06 -0.08 7.29 -33.33 0.06 0.08zm-6.79 33.89l-0.25 -0.25 -0.26 -0.31 0.51 0.56zm6.4 -34.33l4.87 17.22 -11.15 17.22 -0.12 -0.12 6.28 -34.44 0.12 0.12zm0 0l4.87 4.87 0 12.35 -4.87 -17.22zm4.87 17.23l-10.76 17.59 -5.26 -17.59 0 -0.01 16.01 0 0 0.01zm-10.76 17.59l-5.26 -4.5 0 -13.08 5.26 17.59zm5.59 -35.09l0.77 0.75 -6.27 34.42 -0.09 -0.08 5.5 -35.17 0.09 0.08zm0 0l0.43 0.36 0.34 0.39 -0.77 -0.75zm0.86 0.86l0.8 1.06 -7.84 32.6 -0.09 -0.1 7.03 -33.66 0.09 0.1zm0 0l0.4 0.45 0.4 0.61 -0.8 -1.06zm0.83 1.1l-7.46 32.99 -1.18 -1.45 -0.03 -0.04 8.64 -31.54 0.03 0.04zm-7.46 32.99l-0.64 -0.64 -0.55 -0.82 1.18 1.45zm6.35 -34.38l-6.28 34.44 -0.06 -0.06 6.28 -34.44 0.06 0.06zm0.09 0.09l-5.33 35.23 -0.95 -0.79 -0.09 -0.09 6.28 -34.44 0.09 0.09zm-5.33 35.23l-0.47 -0.31 -0.48 -0.48 0.95 0.79zm4.43 -36l0.95 0.79 -5.33 35.23 -0.04 -0.03 4.39 -36.03 0.04 0.03zm0 0l0.47 0.31 0.48 0.48 -0.95 -0.79zm1.01 0.86l-5.94 34.77 -0.34 -0.32 -0.06 -0.06 6.28 -34.44 0.06 0.06zm-5.94 34.77l-0.1 -0.09 -0.23 -0.23 0.34 0.32zm5.71 -35l-5 35.56 -0.61 -0.47 -0.1 -0.09 5.61 -35.09 0.1 0.09zm-5 35.56l-0.32 -0.21 -0.29 -0.26 0.61 0.47zm4.43 -36l0.39 0.3 -4.78 35.73 -0.04 -0.03 4.39 -36.03 0.04 0.03zm0 0l0.1 0.06 0.29 0.23 -0.39 -0.3zm0.45 0.35l0.93 0.88 -6.1 34.55 -0.06 -0.05 5.17 -35.43 0.06 0.05zm0 0l0.55 0.43 0.39 0.45 -0.93 -0.88zm1.03 0.99l-5.71 34.85 -1.32 -1.18 -0.09 -0.1 7.03 -33.66 0.09 0.1zm-5.71 34.85l-0.7 -0.47 -0.62 -0.71 1.32 1.18zm4.43 -36l0.39 0.3 -4.78 35.73 -0.04 -0.03 4.39 -36.03 0.04 0.03zm0 0l0.1 0.06 0.29 0.23 -0.39 -0.3zm0.45 0.35l0.17 0.13 -5.33 35.3 -0.06 -0.05 5.17 -35.43 0.06 0.05zm0 0l0.17 0.13 0.09 0.08 -0.26 -0.21zm0.26 0.21l-4.43 35.9 -1.08 -0.73 -0.09 -0.08 5.5 -35.17 0.09 0.08zm-4.43 35.9l-0.55 -0.27 -0.53 -0.45 1.08 0.73zm3.4 -36.6l1.47 1.09 -4.81 35.53 -0.05 -0.03 3.35 -36.62 0.05 0.03zm0 0l0.75 0.38 0.71 0.71 -1.47 -1.09zm1.52 1.14l-5.58 35.05 -0.7 -0.61 -0.05 -0.05 6.28 -34.44 0.05 0.05zm-5.58 35.05l-0.36 -0.27 -0.34 -0.34 0.7 0.61zm4.98 -35.59l-4.63 35.84 -0.25 -0.18 -0.1 -0.08 4.88 -35.66 0.1 0.08zm-4.63 35.84l-0.04 -0.03 -0.21 -0.16 0.25 0.18zm4.43 -36l0.39 0.3 -4.78 35.73 -0.04 -0.03 4.39 -36.03 0.04 0.03zm0 0l0.1 0.06 0.29 0.23 -0.39 -0.3zm0.45 0.35l-4.65 35.81 -0.52 -0.38 -0.06 -0.05 5.17 -35.43 0.06 0.05zm-4.65 35.81l-0.22 -0.14 -0.3 -0.23 0.52 0.38zm4.23 -36.12l0.38 0.26 -4.5 35.92 -0.1 -0.06 4.13 -36.18 0.1 0.06zm0 0l0.18 0.12 0.19 0.14 -0.38 -0.26zm0.43 0.3l-4.63 35.84 -0.25 -0.18 -0.05 -0.04 4.88 -35.66 0.05 0.04zm-4.63 35.84l-0.04 -0.03 -0.21 -0.16 0.25 0.18zm4.43 -36l-4.26 36.1 -0.13 -0.08 -0.04 -0.03 4.39 -36.03 0.04 0.03zm-4.26 36.1l-0.13 -0.08 -0.08 -0.05 0.21 0.13zm4.23 -36.12l0.38 0.26 -4.5 35.92 -0.1 -0.06 4.13 -36.18 0.1 0.06zm0 0l0.18 0.12 0.19 0.14 -0.38 -0.26zm0.43 0.3l-4.11 36.14 -0.77 -0.48 -0.05 -0.04 4.88 -35.66 0.05 0.04zm-4.11 36.14l-0.38 -0.19 -0.39 -0.29 0.77 0.48zm3.4 -36.6l-3.35 36.62 -0.05 -0.03 3.35 -36.62 0.05 0.03zm0.1 0.05l0.77 0.48 -4.11 36.14 -0.1 -0.05 3.35 -36.62 0.1 0.05zm0 0l0.38 0.19 0.39 0.29 -0.77 -0.48zm0.82 0.52l-4.63 35.84 -0.25 -0.18 -0.05 -0.04 4.88 -35.66 0.05 0.04zm-4.63 35.84l-0.04 -0.03 -0.21 -0.16 0.25 0.18zm4.43 -36l-3.69 36.42 -0.7 -0.39 -0.04 -0.03 4.39 -36.03 0.04 0.03zm-3.69 36.42l-0.35 -0.16 -0.35 -0.23 0.7 0.39zm3.1 -36.75l0.95 0.57 -3.93 36.23 -0.12 -0.05 2.98 -36.81 0.12 0.05zm0 0l0.45 0.21 0.49 0.36 -0.95 -0.57zm1 0.61l-3.57 36.38 -1.31 -0.71 -0.05 -0.04 4.88 -35.66 0.05 0.04zm-3.57 36.38l-0.65 -0.22 -0.66 -0.49 1.31 0.71zm2.3 -37.08l0.55 0.23 -2.8 36.86 -0.04 -0.01 2.26 -37.09 0.04 0.01zm0 0l0.23 0.08 0.31 0.16 -0.55 -0.23zm0.65 0.29l0.77 0.48 -4.11 36.14 -0.1 -0.05 3.35 -36.62 0.1 0.05zm0 0l0.38 0.19 0.39 0.29 -0.77 -0.48zm0.82 0.52l-3.28 36.45 -1.6 -0.79 -0.05 -0.04 4.88 -35.66 0.05 0.04zm-3.28 36.45l-0.82 -0.21 -0.78 -0.58 1.6 0.79zm1.74 -37.23l0.43 0.13 -2.12 37.12 -0.05 -0.01 1.69 -37.25 0.05 0.01zm0 0l0.25 0.06 0.18 0.06 -0.43 -0.13zm0.53 0.17l0.71 0.35 -3.26 36.64 -0.1 -0.04 2.54 -36.99 0.1 0.04zm0 0l0.35 0.13 0.36 0.22 -0.71 -0.35zm0.78 0.39l-3.11 36.69 -0.86 -0.4 -0.06 -0.04 3.97 -36.29 0.06 0.04zm-3.11 36.69l-0.42 -0.14 -0.44 -0.26 0.86 0.4zm2.3 -37.08l0.14 0.05 -2.4 37.04 -0.04 -0.01 2.26 -37.09 0.04 0.01zm0 0l0.04 0.01 0.1 0.04 -0.14 -0.05zm0.25 0.09l0.08 0.04 -2.62 36.95 -0.1 -0.04 2.54 -36.99 0.1 0.04zm0 0l0.08 0.04 -0.39 -0.16 0.31 0.12zm0.14 0.06l0.32 0.14 -3.02 36.77 -0.06 -0.03 2.7 -36.91 0.06 0.03zm0 0l0.19 0.08 0.13 0.06 -0.32 -0.14zm0.35 0.16l-2.8 36.86 -0.55 -0.23 -0.03 -0.01 3.35 -36.62 0.03 0.01zm-2.8 36.86l-0.23 -0.08 -0.31 -0.16 0.55 0.23zm2.37 -37.05l-1.82 37.21 -0.44 -0.12 -0.12 -0.04 2.26 -37.09 0.12 0.04zm-1.82 37.21l-0.23 -0.05 -0.21 -0.06 0.44 0.12zm1.44 -37.31l1.51 0.65 -2.88 36.68 -0.06 -0.01 1.38 -37.32 0.06 0.01zm0 0l0.77 0.16 0.74 0.49 -1.51 -0.65zm1.54 0.67l-2.92 36.66 -1.47 -0.64 -0.04 -0.03 4.39 -36.03 0.04 0.03zm-2.92 36.66l-0.75 -0.16 -0.71 -0.48 1.47 0.64zm1.64 -37.26l0.95 0.34 -2.4 36.96 -0.18 -0.04 1.45 -37.3 0.18 0.04zm0 0l0.48 0.1 0.47 0.23 -0.95 -0.34zm0.97 0.35l-2.52 36.94 -0.83 -0.31 -0.03 -0.01 3.35 -36.62 0.03 0.01zm-2.52 36.94l-0.42 -0.1 -0.42 -0.21 0.83 0.31zm1.79 -37.22l0.29 0.08 -1.97 37.17 -0.1 -0.03 1.69 -37.25 0.1 0.03zm0 0l0.21 0.05 0.08 0.03 -0.29 -0.08zm0.36 0.1l-1.13 37.27 -1.13 -0.18 -0.08 -0.03 2.26 -37.09 0.08 0.03zm-1.13 37.27l-0.58 0 -0.55 -0.18 1.13 0.18zm0.03 -37.45l0.84 0.1 -0.84 37.35 -0.03 0 0 -37.45 0.03 0zm0 0l0.43 0 0.42 0.1 -0.84 -0.1zm0.95 0.13l-1.41 37.3 -0.27 -0.05 -0.1 -0.03 1.69 -37.25 0.1 0.03zm-1.41 37.3l-0.27 -0.05 0.08 0.01 0.19 0.04zm1.22 -37.34l-0.57 37.4 -0.57 -0.05 -0.08 -0.01 1.14 -37.35 0.08 0.01zm-0.57 37.4l-0.26 0 -0.31 -0.05 0.57 0.05zm0.03 -37.45l0 37.45 -0.03 0 0 -37.45 0.03 0zm0.01 0l0.55 37.42 -0.55 0.04 -0.01 0 0 -37.45 0.01 0zm0.55 37.42l-0.25 0.04 -0.3 0 0.55 -0.04zm-2.69 -28.94l12.74 19.77 -0.29 0.53 -0.35 0.64 -0.23 0.38 -0.23 0.39 -0.32 0.51 -0.36 0.55 -0.25 0.35 -0.25 0.35 -0.38 0.48 -0.35 0.44 -0.26 0.3 -0.27 0.31 -0.36 0.39 -0.29 0.29 -0.36 0.36 -0.38 0.32 -0.19 0.17 -0.27 0.23 -0.38 0.29 -0.39 0.29 -0.3 0.18 -0.29 0.19 -0.4 0.23 -0.3 0.14 -0.35 0.17 -0.31 0.13 -0.25 0.1 -0.42 0.16 -0.3 0.08 -0.34 0.09 -0.31 0.06 -0.34 0.08 -1.09 -37.38 0.03 0 0.08 -0.01 0.03 -0.01 0.06 -0.03 -0.05 0.03 0.12 -0.05 0.08 -0.03 0.01 -0.01 0.06 -0.04 -0.04 0.03 0.08 -0.04 0.06 -0.05 -0.03 0.03 -0.01 0 0.06 -0.05 0.17 -0.14 -0.01 0.01 -0.03 0.03 0.08 -0.08 -0.03 0.03 0.06 -0.08 0.08 -0.09 -0.01 0.03 -0.04 0.04 0.06 -0.09 0.09 -0.12 -0.05 0.08 -0.01 0.01 0.08 -0.13 0.08 -0.14 -0.04 0.09 0 -0.01 12.74 19.77 -15.37 -10.51zm2.62 -9.25l19.97 -38.14 -7.23 57.91 -12.74 -19.77zm6.75 67.76l-2.73 9.45 -12.64 -19.96 6 -47.99 15.37 10.51 -6 47.99zm0 0l-0.71 5.74 -2.01 3.71 2.73 -9.45z"/>
    </g>
    <path class="fil0" d="M2560.09 939.66c66.63,36.36 73.05,-113.32 96.18,-163.17l130.89 -361.42c27.08,-85.2 104.02,-88.9 151.72,-76.91l-222.18 610.28c-14.33,41.8 -145.85,55.92 -156.62,-8.79z"/>
   </g>
   <path class="fil1" d="M3313.41 380.39c41.85,-30.67 92.44,-45.89 151.97,-45.89 59.31,0 108.55,15.22 147.27,45.66 38.95,30.45 61.1,73.87 66.25,130.27 -76.5,22.18 -104.56,-18.35 -116.68,-33.08 -0.53,-0.62 -1.06,-1.18 -1.51,-1.73 -38.91,-46.92 -117.87,-41.3 -157.11,-16.9 -17.91,8.06 -29.1,22.15 -34.02,41.85 -4.71,19.69 -4.04,35.36 2.01,47.01 10.07,20.14 34.69,35.81 73.86,46.99l92.44 22.61c108.55,26.63 162.7,87.73 162.7,183.31 0,56.61 -23.49,102.28 -70.72,137.41 -47.68,33.81 -103.41,50.59 -167.19,50.59 -64.01,0 -119.51,-18.35 -166.74,-55.29 -47.23,-36.7 -71.17,-85.5 -72.07,-146.6 76.14,-26.22 91.9,7.58 115.2,38.8 43.39,58.1 88.85,61.7 143.77,58.62 31.77,-1.79 51.46,-13.04 68.91,-28.27 17.46,-15.44 27.31,-34.02 29.54,-55.95 1.79,-21.93 -4.92,-39.4 -20.36,-52.6 -15.22,-13.21 -36.26,-22.83 -62.89,-28.88l-85.95 -19.92c-60.65,-16.34 -105.42,-40.28 -134.06,-72.29 -27.53,-33.13 -38.95,-74.53 -34.02,-124.44 4.7,-49.91 27.97,-90.2 69.38,-121.3z"/>
   <path class="fil1" d="M4431.27 660.12c0,27.76 -0.45,43.66 -1.35,48.13l-508.95 0c6.05,50.57 28.42,92.43 66.93,125.78 37.14,30.65 78.78,46.1 125.11,46.1 63.38,0 113.79,-15.46 150.18,-47.6 68,-60.07 122.54,-23.5 145.03,-9.02 -25.74,52.82 -64.68,93.56 -116.83,122.21 -51.92,28.86 -109.22,43.19 -171.67,43.19 -89.74,0 -166.29,-30.21 -230.07,-90.87 -60.66,-60.66 -90.87,-140.11 -90.87,-237.92 0,-98.02 30.21,-176.59 90.42,-235.9 60.44,-59.09 136.75,-88.85 229.41,-89.3 92.66,0 167.41,29.99 224.27,89.76 58.87,59.53 88.41,138.1 88.41,235.44zm-183.08 -171.44c-34.92,-29.99 -78.33,-44.98 -129.82,-44.98 -51.7,0 -96.01,14.99 -133.17,44.98 -36.71,32 -58.19,73.64 -64.24,124.22l388.77 0c-6.03,-50.59 -26.63,-92.22 -61.54,-124.22z"/>
   <g id="_2685533480080">
    <polygon class="fil0" points="307.26,307.13 994.25,0.01 -0,0.01 2.26,988.93 "/>
    <polygon class="fil0" points="689.19,681.79 2.26,988.93 996.45,988.93 994.25,0.01 "/>
   </g>
   <path class="fil1" d="M1437.03 0l69.95 0c12.37,81.85 -13.21,119.05 -70.18,119.32 -80.23,0.39 -119.99,54.62 -119.09,164.12l0 64.92 292.39 0.56c-1.41,61.49 -23.71,108.88 -92.71,111.09l-199.68 -0.56 0 424.14c0.34,65.42 -52.7,107.39 -124.81,105.24l0 -529.38 -124.8 0c-2.12,-58.18 25.5,-109.96 85.29,-111.09l39.5 0 0 -64.92c0,-90.52 20.35,-160.24 61.27,-209.15 40.91,-49.15 101.94,-73.83 182.86,-74.29z"/>
   <path class="fil1" d="M1826.97 640.15l0 251.37c-1.88,71.86 -58.61,89.69 -124.07,91.95l0 -536.01c2.62,-77.84 54.49,-98.81 124.07,-100.63l0 95.65c18.17,-35.44 45.44,-62.71 82.02,-81.35 36.35,-18.62 75.44,-27.94 117.01,-27.94 79.98,0 140.2,24.54 180.86,73.84 42.49,48.39 64.08,117.92 64.54,208.36l0 368.08c-71.86,6.54 -120.01,-20.65 -124.07,-93.16l0 -266.75c0,-53.62 -12.72,-94.97 -37.93,-123.83 -24.54,-30.23 -60.67,-45.21 -108.61,-45.21 -48.39,0 -89.52,15.68 -123.15,47.27 -33.86,31.35 -50.67,77.7 -50.67,138.37z"/>
   <path class="fil0" d="M1605.91 360.27l0 510.12c-1.7,82.21 -43.5,110.9 -124.04,113.08l0 -533.6c1.21,-70.68 63.11,-87.9 124.04,-89.6z"/>
   <path class="fil0" d="M3120.51 342.43l0 531.66c-1.73,83.49 -44.18,112.61 -125.96,114.82l0 -541.84c1.23,-71.77 64.08,-102.93 125.96,-104.64z"/>
   <path class="fil0 str0" d="M3058.48 27.51c22.94,0 43.18,7.5 60.44,22.5 17.49,15.22 26.14,34.53 26.14,57.93 0,23.4 -8.64,42.71 -26.14,57.93 -17.26,15 -37.49,22.5 -60.44,22.5 -22.94,0 -43.16,-7.73 -61.11,-23.18 -16.13,-15.68 -24.09,-34.77 -24.09,-57.26 0,-22.72 7.96,-41.58 24.09,-57.26 17.95,-15.44 38.17,-23.18 61.11,-23.18z"/>
  </g>
 </g>
</svg>
