<?xml version="1.0" encoding="UTF-8"?>
<!DOCTYPE svg PUBLIC "-//W3C//DTD SVG 1.1//EN" "http://www.w3.org/Graphics/SVG/1.1/DTD/svg11.dtd">
<!-- Creator: CorelDRAW 2018 (64-Bit Evaluation Version) -->
<svg xmlns="http://www.w3.org/2000/svg" xml:space="preserve" width="34.1448mm" height="7.6201mm" version="1.1" style="shape-rendering:geometricPrecision; text-rendering:geometricPrecision; image-rendering:optimizeQuality; fill-rule:evenodd; clip-rule:evenodd"
viewBox="0 0 962.45 214.79"
 xmlns:xlink="http://www.w3.org/1999/xlink">
 <defs>
  <style type="text/css">
   <![CDATA[
    .str0 {stroke:#0A408D;stroke-width:5.64;stroke-miterlimit:22.9256}
    .fil3 {fill:#0A408D}
    .fil4 {fill:#3D4852}
    .fil0 {fill:#3D4852}
    .fil2 {fill:#FFC035}
    .fil1 {fill:#3D4852;fill-rule:nonzero}
   ]]>
  </style>
 </defs>
 <g id="Layer_x0020_1">
  <metadata id="CorelCorpID_0Corel-Layer"/>
  <g id="_2685148037312">
   <g>
    <g>
     <path class="fil0" d="M572.59 201.95c-4.12,7.61 -11.1,7.59 -14.33,2.14l-0.09 -0.15 -0.01 -0.02 -0.03 -0.06 -0.15 -0.28 -0.01 -0.01 -0.09 -0.18 -0.09 -0.18 -45.85 -123.59c9.07,-4.75 22,-4.61 27.23,9.22l37.57 101.65 -5.23 1.06 0.02 0.03 0 0 0.02 0.03 0.02 0.03 0 0 0.02 0.03 0.02 0.03 0 0 0.02 0.03 0.02 0.03 0 0 0.02 0.03 0.02 0.03 0 0 0.02 0.03 0.02 0.03 0 0 0.02 0.02 0.02 0.03 0.01 0.01 0.01 0.02 0.02 0.03 0.01 0.01 0.01 0.02 0.02 0.03 0.01 0.01 0.02 0.02 0.02 0.02 0.01 0.01 0.01 0.02 0.03 0.03 0 0 0.02 0.02 0.02 0.02 0.01 0.01 0.01 0.01 0.02 0.02 0.01 0.01 0.01 0.01 0.02 0.02 0.01 0.01 0.01 0.01 0.02 0.02 0.01 0.01 0.01 0.01 0.02 0.02 0.01 0.01 0.01 0.01 0.02 0.02 0.01 0.01 0.01 0.01 0.02 0.01 0.01 0.01 0.01 0.01 0.02 0.01 0.01 0.01 0.01 0.01 0.02 0.01 0.01 0.01 0.01 0.01 0.03 0.01 0.01 0.01 0.01 0 0.02 0.01 0.01 0.01 0.01 0 0.02 0.01 0.01 0.01 0.01 0 0.02 0.01 0.01 0.01 0.01 0 0.03 0.01 0.01 0 0.01 0.01 0.04 0.01 0.01 0 0.02 0.01 0.02 0.01 0.01 0 0.02 0.01 0.02 0 0.01 0 0 0c0.43,-0.07 0.86,-0.43 1.2,-1.09l-1.3 10.42z"/>
     <path id="1" class="fil1" d="M559.28 200.81l-0.01 -0.02 0.23 0.36 0.25 0.34 0.27 0.33 0.3 0.32 0.31 0.29 0.34 0.27 0.35 0.25 0.37 0.22 0.38 0.19 0.4 0.16 0.41 0.14 0.42 0.1 0.42 0.07 0.43 0.04 0.44 0.01 0.44 -0.03 0.44 -0.06 0.45 -0.1 0.45 -0.13 0.44 -0.16 0.44 -0.2 0.44 -0.23 0.43 -0.27 0.43 -0.3 0.41 -0.34 0.4 -0.37 0.39 -0.41 0.38 -0.44 0.37 -0.48 0.36 -0.5 0.34 -0.54 0.33 -0.57 2.15 6.39 -0.46 0.81 -0.48 0.76 -0.49 0.7 -0.5 0.65 -0.52 0.59 -0.52 0.54 -0.53 0.49 -0.54 0.44 -0.54 0.39 -0.55 0.35 -0.55 0.3 -0.56 0.25 -0.56 0.21 -0.56 0.16 -0.56 0.12 -0.56 0.08 -0.56 0.03 -0.55 -0.01 -0.55 -0.05 -0.54 -0.09 -0.54 -0.13 -0.52 -0.17 -0.52 -0.21 -0.51 -0.26 -0.5 -0.3 -0.49 -0.34 -0.48 -0.39 -0.47 -0.43 -0.45 -0.48 -0.44 -0.52 -0.42 -0.59 -0.4 -0.63 -0.01 -0.02 2.05 -6.57zm-2.04 6.58l-0.01 -0.02 -0.08 -0.14 0.09 0.16zm-0.1 -0.17l-0.01 -0.03 2.07 -6.54 0.09 0.15 -2.05 6.57 -0.09 -0.15zm0 0l0.02 0.03 -0.03 -0.06 0.01 0.03zm-0.03 -0.05l2.08 -6.52 0.01 0.02 -2.08 6.52 -0.01 -0.02zm-0.03 -0.06l-0.04 -0.07 2.12 -6.45 0.03 0.06 -2.08 6.52 -0.03 -0.06zm0 0l-0.04 -0.07 0.04 0.06 0 0zm-0.19 -0.34l2.02 -6.62 0.14 0.23 0.15 0.28 -2.15 6.38 -0.15 -0.28zm2.02 -6.62l0.06 0.09 0.08 0.14 -0.14 -0.23zm-1.88 6.84l-0.18 -0.31 2.06 -6.54 0.01 0.01 -1.88 6.85 -0.01 -0.01zm0 0l-0.09 -0.14 -0.09 -0.18 0.18 0.31zm-0.27 -0.49l-0.02 -0.04 2.26 -6.18 0.09 0.18 -2.24 6.22 -0.09 -0.18zm0 0l-0.01 -0.02 -0.01 -0.02 0.02 0.04zm-0.11 -0.22l-0.17 -0.41 2.45 -5.74 0.09 0.18 -2.28 6.14 -0.09 -0.18zm0 0l-0.1 -0.2 -0.08 -0.21 0.17 0.41zm-46.03 -123.99l0.93 -6.64 1.69 1.3 45.85 123.59 -2.63 5.33 -45.85 -123.59zm0 0l-1.91 -5.15 2.84 -1.49 -0.93 6.64zm27.23 9.21l0.01 0.03 -0.42 -1.04 -0.47 -0.99 -0.5 -0.93 -0.55 -0.88 -0.59 -0.83 -0.62 -0.78 -0.66 -0.72 -0.7 -0.67 -0.73 -0.61 -0.76 -0.56 -0.78 -0.5 -0.81 -0.45 -0.84 -0.39 -0.85 -0.34 -0.87 -0.29 -0.89 -0.23 -0.9 -0.18 -0.91 -0.14 -0.92 -0.08 -0.93 -0.04 -0.93 0.01 -0.94 0.05 -0.94 0.1 -0.93 0.14 -0.93 0.18 -0.92 0.22 -0.91 0.25 -0.9 0.29 -0.89 0.32 -0.87 0.36 -0.85 0.39 -0.83 0.41 -0.76 -7.94 0.9 -0.45 0.91 -0.41 0.94 -0.38 0.94 -0.34 0.96 -0.31 0.98 -0.27 0.98 -0.23 0.99 -0.19 1 -0.15 1 -0.1 1 -0.06 1.01 -0.01 1.01 0.04 1 0.09 1 0.15 0.99 0.2 0.98 0.26 0.97 0.32 0.96 0.38 0.94 0.45 0.92 0.51 0.91 0.58 0.89 0.65 0.87 0.73 0.84 0.81 0.82 0.89 0.79 0.98 0.76 1.07 0.72 1.17 0.68 1.27 0.65 1.37 0.6 1.48 0.01 0.03 -2.63 5.32zm2.62 -5.36l0.01 0.03 -0.07 -0.18 0.06 0.15zm37.59 101.68l-1.16 6.71 -1.46 -1.39 -37.57 -101.65 2.63 -5.32 37.57 101.65zm0 0l2.23 6.03 -3.39 0.69 1.16 -6.71zm-6.4 7.77l-1.18 -0.77 0.88 -7.33 5.23 -1.06 0.3 8.11 -5.23 1.06zm-1.18 -0.77l-3.73 -6.4 4.61 -0.93 -0.88 7.33zm2.07 -6.53l0.05 0.08 -2.1 6.48 -0.02 -0.03 2.05 -6.56 0.02 0.03zm0 0l0.03 0.05 0.01 0.03 -0.05 -0.08zm-1.03 3.28l0 0 0 0 0 0 1.07 -3.2 -1.07 3.2zm1.03 -3.28l0.03 0.05 0.01 0.03 -0.05 -0.08zm0.06 0.11l-2.1 6.48 -0.05 -0.08 -0.02 -0.03 2.14 -6.4 0.02 0.03zm-2.1 6.48l-0.03 -0.05 -0.01 -0.03 0.05 0.08zm2.07 -6.53l0.05 0.08 -2.1 6.48 -0.02 -0.03 2.05 -6.56 0.02 0.03zm0 0l0.03 0.05 0.01 0.03 -0.05 -0.08zm-1.03 3.28l0 0 0 0 0 0 1.07 -3.2 -1.07 3.2zm1.03 -3.28l0.03 0.05 0.01 0.03 -0.05 -0.08zm0.06 0.11l-2.04 6.58 -0.1 -0.17 -0.02 -0.03 2.14 -6.4 0.02 0.03zm-2.04 6.58l-0.04 -0.07 -0.06 -0.11 0.1 0.17zm1.96 -6.72l-1.65 7.12 -0.29 -0.36 -0.02 -0.03 1.94 -6.75 0.02 0.03zm-1.65 7.12l-0.16 -0.16 -0.13 -0.21 0.29 0.36zm1.37 -7.48l0.33 0.43 -1.69 7.06 -0 -0 1.36 -7.48 0 0zm0 0l0.18 0.18 0.15 0.25 -0.33 -0.43zm0.34 0.45l-1.98 6.69 -0.04 -0.06 -0.02 -0.03 2.02 -6.63 0.02 0.03zm-1.98 6.69l-0.04 -0.06 0 0 0.04 0.06zm1.96 -6.72l0.77 3.38 -2.71 3.38 -0.02 -0.03 1.94 -6.75 0.02 0.03zm0 0l0.77 1.21 0 2.17 -0.77 -3.38zm0.77 3.38l-2.58 3.57 -0.9 -3.57 0 -0 3.48 0 0 0zm-2.58 3.57l-0.9 -1.16 0 -2.41 0.9 3.57zm1.69 -7.11l0.23 0.36 -1.91 6.77 -0.02 -0.03 1.67 -7.13 0.02 0.03zm0 0l0.12 0.15 0.12 0.21 -0.23 -0.36zm0.25 0.39l-1.75 6.94 -0.39 -0.54 -0.02 -0.03 2.14 -6.4 0.02 0.03zm-1.75 6.94l-0.21 -0.21 -0.18 -0.33 0.39 0.54zm1.37 -7.48l0.26 0.32 -1.62 7.17 -0 -0 1.36 -7.48 0 0zm0 0l0.14 0.14 0.12 0.18 -0.26 -0.32zm0.27 0.34l-1.84 6.9 -0.03 -0.05 -0.02 -0.03 1.88 -6.85 0.02 0.03zm-1.84 6.9l-0.03 -0.05 -0.01 -0.01 0.04 0.06zm1.83 -6.92l-1.59 7.21 -0.22 -0.27 -0.02 -0.03 1.81 -6.95 0.02 0.03zm-1.59 7.21l-0.12 -0.12 -0.1 -0.15 0.22 0.27zm1.37 -7.48l0.18 0.21 -1.54 7.28 -0 -0 1.36 -7.48 0 0zm0 0l0.09 0.09 0.08 0.11 -0.18 -0.21zm0.19 0.23l0.05 0.06 -1.76 7.01 -0.02 -0.02 1.72 -7.07 0.02 0.02zm0 0l0.03 0.03 0.02 0.03 -0.05 -0.06zm0.06 0.09l-1.59 7.21 -0.22 -0.27 -0.02 -0.03 1.81 -6.95 0.02 0.03zm-1.59 7.21l-0.12 -0.12 -0.1 -0.15 0.22 0.27zm1.37 -7.48l0.3 0.38 -1.66 7.1 -0.01 -0.01 1.36 -7.48 0.01 0.01zm0 0l0.16 0.16 0.14 0.23 -0.3 -0.38zm0.31 0.41l-1.82 6.92 -0.14 -0.21 -0.01 -0.02 1.96 -6.71 0.01 0.02zm-1.82 6.92l-0.07 -0.09 -0.08 -0.12 0.14 0.21zm1.69 -7.11l-1.52 7.31 -0.16 -0.17 -0.02 -0.03 1.67 -7.13 0.02 0.03zm-1.52 7.31l-0.09 -0.09 -0.07 -0.09 0.16 0.17zm1.37 -7.48l0.21 0.25 -1.58 7.23 -0.01 -0.01 1.36 -7.48 0.01 0.01zm0 0l0.11 0.11 0.1 0.14 -0.21 -0.25zm0.23 0.27l-1.73 7.06 -0.06 -0.08 -0.01 -0.02 1.79 -6.98 0.01 0.02zm-1.73 7.06l-0.03 -0.03 -0.03 -0.05 0.06 0.08zm1.69 -7.11l-1.52 7.31 -0.16 -0.17 -0.02 -0.03 1.67 -7.13 0.02 0.03zm-1.52 7.31l-0.09 -0.09 -0.07 -0.09 0.16 0.17zm1.37 -7.48l0.09 0.1 -1.46 7.38 -0.01 -0.01 1.36 -7.48 0.01 0.01zm0 0l0.06 0.06 0.03 0.04 -0.09 -0.1zm0.11 0.12l-1.54 7.3 -0.01 -0.01 -0.02 -0.02 1.55 -7.28 0.02 0.02zm-1.54 7.3l-0.01 -0.01 0.05 0.06 -0.04 -0.05zm1.55 -7.29l-1.45 7.4 -0.08 -0.08 -0.02 -0.02 1.53 -7.31 0.02 0.02zm-1.45 7.4l-0.06 -0.06 -0.02 -0.02 0.08 0.08zm1.37 -7.48l0.11 0.12 -1.47 7.36 -0.01 -0.01 1.36 -7.48 0.01 0.01zm0 0l0.05 0.05 0.06 0.07 -0.11 -0.12zm0.12 0.14l-1.47 7.36 -0.11 -0.12 -0.01 -0.02 1.58 -7.24 0.01 0.02zm-1.47 7.36l-0.05 -0.05 -0.06 -0.07 0.11 0.12zm1.39 -7.46l1.06 3.74 -2.42 3.74 -0.03 -0.03 1.36 -7.48 0.03 0.03zm0 0l1.06 1.06 0 2.68 -1.06 -3.74zm1.06 3.74l-2.34 3.82 -1.14 -3.82 0 -0 3.48 0 0 0zm-2.34 3.82l-1.14 -0.98 0 -2.84 1.14 3.82zm1.21 -7.62l0.17 0.16 -1.36 7.48 -0.02 -0.02 1.2 -7.64 0.02 0.02zm0 0l0.09 0.08 0.07 0.08 -0.17 -0.16zm0.19 0.19l0.17 0.23 -1.7 7.08 -0.02 -0.02 1.53 -7.31 0.02 0.02zm0 0l0.09 0.1 0.09 0.13 -0.17 -0.23zm0.18 0.24l-1.62 7.17 -0.26 -0.32 -0.01 -0.01 1.88 -6.85 0.01 0.01zm-1.62 7.17l-0.14 -0.14 -0.12 -0.18 0.26 0.32zm1.38 -7.47l-1.36 7.48 -0.01 -0.01 1.36 -7.48 0.01 0.01zm0.02 0.02l-1.16 7.65 -0.21 -0.17 -0.02 -0.02 1.36 -7.48 0.02 0.02zm-1.16 7.65l-0.1 -0.07 -0.1 -0.1 0.21 0.17zm0.96 -7.82l0.21 0.17 -1.16 7.65 -0.01 -0.01 0.95 -7.82 0.01 0.01zm0 0l0.1 0.07 0.1 0.1 -0.21 -0.17zm0.22 0.19l-1.29 7.55 -0.07 -0.07 -0.01 -0.01 1.36 -7.48 0.01 0.01zm-1.29 7.55l-0.02 -0.02 -0.05 -0.05 0.07 0.07zm1.24 -7.6l-1.09 7.72 -0.13 -0.1 -0.02 -0.02 1.22 -7.62 0.02 0.02zm-1.09 7.72l-0.07 -0.05 -0.06 -0.06 0.13 0.1zm0.96 -7.82l0.08 0.06 -1.04 7.76 -0.01 -0.01 0.95 -7.82 0.01 0.01zm0 0l0.04 0.03 0.04 0.03 -0.08 -0.06zm0.1 0.07l0.2 0.19 -1.32 7.51 -0.01 -0.01 1.12 -7.7 0.01 0.01zm0 0l0.11 0.09 0.09 0.11 -0.2 -0.19zm0.22 0.22l-1.24 7.57 -0.29 -0.26 -0.02 -0.02 1.53 -7.31 0.02 0.02zm-1.24 7.57l-0.15 -0.1 -0.14 -0.16 0.29 0.26zm0.96 -7.82l0.08 0.06 -1.04 7.76 -0.01 -0.01 0.95 -7.82 0.01 0.01zm0 0l0.04 0.03 0.04 0.03 -0.08 -0.06zm0.1 0.07l0.04 0.03 -1.16 7.67 -0.01 -0.01 1.12 -7.7 0.01 0.01zm0 0l0.01 0.01 0.03 0.03 -0.04 -0.03zm0.06 0.05l-0.96 7.8 -0.23 -0.16 -0.02 -0.02 1.2 -7.64 0.02 0.02zm-0.96 7.8l-0.12 -0.06 -0.12 -0.1 0.23 0.16zm0.74 -7.95l0.32 0.24 -1.05 7.72 -0.01 -0.01 0.73 -7.95 0.01 0.01zm0 0l0.16 0.08 0.16 0.16 -0.32 -0.24zm0.33 0.25l-1.21 7.61 -0.15 -0.13 -0.01 -0.01 1.36 -7.48 0.01 0.01zm-1.21 7.61l-0.08 -0.06 -0.07 -0.07 0.15 0.13zm1.08 -7.73l-1.01 7.79 -0.05 -0.04 -0.02 -0.02 1.06 -7.75 0.02 0.02zm-1.01 7.79l-0.01 -0.01 -0.05 -0.03 0.05 0.04zm0.96 -7.82l0.08 0.06 -1.04 7.76 -0.01 -0.01 0.95 -7.82 0.01 0.01zm0 0l0.04 0.03 0.04 0.03 -0.08 -0.06zm0.1 0.07l-1.01 7.78 -0.11 -0.08 -0.01 -0.01 1.12 -7.7 0.01 0.01zm-1.01 7.78l-0.06 -0.04 -0.05 -0.04 0.11 0.08zm0.92 -7.84l0.08 0.06 -0.98 7.8 -0.02 -0.01 0.9 -7.86 0.02 0.01zm0 0l0.04 0.03 0.04 0.03 -0.08 -0.06zm0.09 0.06l-1.01 7.79 -0.05 -0.04 -0.01 -0.01 1.06 -7.75 0.01 0.01zm-1.01 7.79l-0.01 -0.01 -0.05 -0.03 0.05 0.04zm0.96 -7.82l-0.92 7.84 -0.03 -0.02 -0.01 -0.01 0.95 -7.82 0.01 0.01zm-0.92 7.84l-0.03 -0.02 -0.02 -0.01 0.05 0.03zm0.92 -7.84l0.08 0.06 -0.98 7.8 -0.02 -0.01 0.9 -7.86 0.02 0.01zm0 0l0.04 0.03 0.04 0.03 -0.08 -0.06zm0.09 0.06l-0.89 7.85 -0.17 -0.1 -0.01 -0.01 1.06 -7.75 0.01 0.01zm-0.89 7.85l-0.08 -0.04 -0.08 -0.06 0.17 0.1zm0.74 -7.95l-0.73 7.95 -0.01 -0.01 0.73 -7.95 0.01 0.01zm0.02 0.01l0.17 0.1 -0.89 7.85 -0.02 -0.01 0.73 -7.95 0.02 0.01zm0 0l0.08 0.04 0.08 0.06 -0.17 -0.1zm0.18 0.11l-1.01 7.79 -0.05 -0.04 -0.01 -0.01 1.06 -7.75 0.01 0.01zm-1.01 7.79l-0.01 -0.01 -0.05 -0.03 0.05 0.04zm0.96 -7.82l-0.8 7.91 -0.15 -0.08 -0.01 -0.01 0.95 -7.82 0.01 0.01zm-0.8 7.91l-0.08 -0.03 -0.08 -0.05 0.15 0.08zm0.67 -7.98l0.21 0.12 -0.85 7.87 -0.03 -0.01 0.65 -7.99 0.03 0.01zm0 0l0.1 0.05 0.11 0.08 -0.21 -0.12zm0.22 0.13l-0.78 7.9 -0.28 -0.16 -0.01 -0.01 1.06 -7.75 0.01 0.01zm-0.78 7.9l-0.14 -0.05 -0.14 -0.11 0.28 0.16zm0.5 -8.05l0.12 0.05 -0.61 8.01 -0.01 -0 0.49 -8.06 0.01 0zm0 0l0.05 0.02 0.07 0.03 -0.12 -0.05zm0.14 0.06l0.17 0.1 -0.89 7.85 -0.02 -0.01 0.73 -7.95 0.02 0.01zm0 0l0.08 0.04 0.08 0.06 -0.17 -0.1zm0.18 0.11l-0.72 7.92 -0.34 -0.17 -0.01 -0.01 1.06 -7.75 0.01 0.01zm-0.72 7.92l-0.17 -0.04 -0.17 -0.13 0.34 0.17zm0.38 -8.09l0.09 0.03 -0.46 8.06 -0.01 -0 0.37 -8.09 0.01 0zm0 0l0.05 0.01 0.05 0.02 -0.09 -0.03zm0.11 0.04l0.16 0.08 -0.71 7.96 -0.02 -0.01 0.55 -8.03 0.02 0.01zm0 0l0.08 0.03 0.08 0.05 -0.16 -0.08zm0.17 0.08l-0.68 7.97 -0.19 -0.09 -0.01 -0.01 0.86 -7.88 0.01 0.01zm-0.68 7.97l-0.09 -0.03 -0.1 -0.06 0.19 0.09zm0.5 -8.05l0.03 0.01 -0.52 8.04 -0.01 -0 0.49 -8.06 0.01 0zm0 0l0.01 0 0.02 0.01 -0.03 -0.01zm0.05 0.02l0.02 0.01 -0.57 8.03 -0.02 -0.01 0.55 -8.03 0.02 0.01zm0 0l0.02 0.01 0.03 0.01 -0.05 -0.02zm0.03 0.01l0.07 0.03 -0.66 7.99 -0.01 -0.01 0.59 -8.02 0.01 0.01zm0 0l0.01 0.01 0.06 0.03 -0.07 -0.03zm0.08 0.04l-0.61 8.01 -0.12 -0.05 -0.01 -0 0.73 -7.95 0.01 0zm-0.61 8.01l-0.05 -0.02 -0.07 -0.03 0.12 0.05zm0.52 -8.05l-0.39 8.08 -0.1 -0.03 -0.03 -0.01 0.49 -8.06 0.03 0.01zm-0.39 8.08l-0.05 -0.01 -0.05 -0.01 0.1 0.03zm0.31 -8.1l0.33 0.14 -0.63 7.97 -0.01 -0 0.3 -8.11 0.01 0zm0 0l0.17 0.03 0.16 0.11 -0.33 -0.14zm0.34 0.15l-0.63 7.96 -0.32 -0.14 -0.01 -0.01 0.95 -7.82 0.01 0.01zm-0.63 7.96l-0.16 -0.03 -0.16 -0.1 0.32 0.14zm0.36 -8.09l0.21 0.07 -0.52 8.03 -0.04 -0.01 0.32 -8.1 0.04 0.01zm0 0l0.1 0.02 0.1 0.05 -0.21 -0.07zm0.21 0.08l-0.55 8.02 -0.18 -0.07 -0.01 -0 0.73 -7.95 0.01 0zm-0.55 8.02l-0.08 -0.02 -0.09 -0.05 0.18 0.07zm0.39 -8.08l0.06 0.02 -0.43 8.07 -0.02 -0.01 0.37 -8.09 0.02 0.01zm0 0l0.03 0.01 0.03 0.01 -0.06 -0.02zm0.08 0.02l-0.25 8.1 -0.25 -0.04 -0.02 -0.01 0.49 -8.06 0.02 0.01zm-0.25 8.1l-0.13 0 -0.12 -0.04 0.25 0.04zm0.01 -8.13l0.19 0.02 -0.19 8.11 -0.01 0 0 -8.13 0.01 0zm0 0l0.1 0 0.09 0.02 -0.19 -0.02zm0.21 0.03l-0.31 8.1 -0.06 -0.01 -0.02 -0.01 0.37 -8.09 0.02 0.01zm-0.31 8.1l-0.02 -0 -0.05 -0.01 0.06 0.01zm0.26 -8.12l-0.12 8.13 -0.12 -0.01 -0.02 -0 0.25 -8.12 0.02 0zm-0.12 8.13l-0.07 0 -0.05 -0.01 0.12 0.01zm0.01 -8.13l0 8.13 -0.01 0 0 -8.13 0.01 0zm0 0l0.12 8.13 -0.12 0.01 -0 0 0 -8.13 0 0zm0.12 8.13l-0.05 0.01 -0.06 0 0.12 -0.01zm-0.58 -6.29l2.77 4.29 -0.06 0.12 -0.08 0.14 -0.05 0.08 -0.05 0.08 -0.07 0.11 -0.08 0.12 -0.05 0.08 -0.05 0.08 -0.08 0.11 -0.08 0.09 -0.06 0.06 -0.06 0.07 -0.08 0.08 -0.06 0.06 -0.08 0.08 -0.08 0.07 -0.04 0.04 -0.06 0.05 -0.08 0.06 -0.08 0.06 -0.06 0.04 -0.06 0.04 -0.09 0.05 -0.06 0.03 -0.08 0.04 -0.07 0.03 -0.05 0.02 -0.09 0.03 -0.06 0.02 -0.07 0.02 -0.07 0.01 -0.07 0.01 -0.24 -8.12 0.01 -0 0.02 -0 0.01 -0 0.01 -0 -0.01 0.01 0.03 -0.01 0.02 -0.01 0 -0 0.01 -0.01 -0.01 0.01 0.02 -0.01 0.01 -0.01 -0.01 0.01 -0 0 0.01 -0.01 0.04 -0.03 -0 0 -0.01 0.01 0.02 -0.02 -0.01 0.01 0.01 -0.02 0.02 -0.02 -0 0 -0.01 0.01 0.01 -0.02 0.02 -0.03 -0.01 0.02 -0 0 0.02 -0.03 0.02 -0.03 -0.01 0.02 0 -0 2.77 4.29 -3.34 -2.28zm0.57 -2.01l4.34 -8.28 -1.57 12.58 -2.77 -4.29zm1.47 14.72l-0.59 2.05 -2.75 -4.34 1.3 -10.42 3.34 2.28 -1.3 10.42zm0 0l-0.16 1.25 -0.44 0.81 0.59 -2.05z"/>
    </g>
    <path class="fil0" d="M556.04 204.09c14.47,7.9 15.87,-24.61 20.89,-35.44l28.43 -78.5c5.88,-18.5 22.59,-19.31 32.95,-16.7l-48.26 132.55c-3.11,9.08 -31.68,12.15 -34.02,-1.91z"/>
   </g>
   <path class="fil1" d="M719.66 82.62c9.09,-6.66 20.08,-9.97 33.01,-9.97 12.88,0 23.58,3.31 31.99,9.92 8.46,6.61 13.27,16.04 14.39,28.29 -16.62,4.82 -22.71,-3.99 -25.34,-7.18 -0.12,-0.14 -0.23,-0.26 -0.33,-0.37 -8.45,-10.19 -25.6,-8.97 -34.12,-3.67 -3.89,1.75 -6.32,4.81 -7.39,9.09 -1.02,4.28 -0.88,7.68 0.44,10.21 2.19,4.37 7.53,7.78 16.04,10.21l20.08 4.91c23.58,5.78 35.34,19.05 35.34,39.81 0,12.3 -5.1,22.21 -15.36,29.84 -10.36,7.34 -22.46,10.99 -36.31,10.99 -13.9,0 -25.96,-3.99 -36.22,-12.01 -10.26,-7.97 -15.46,-18.57 -15.65,-31.84 16.54,-5.69 19.96,1.65 25.02,8.43 9.42,12.62 19.3,13.4 31.23,12.73 6.9,-0.39 11.18,-2.83 14.97,-6.14 3.79,-3.35 5.93,-7.39 6.42,-12.15 0.39,-4.76 -1.07,-8.56 -4.42,-11.42 -3.31,-2.87 -7.88,-4.96 -13.66,-6.27l-18.67 -4.33c-13.17,-3.55 -22.9,-8.75 -29.12,-15.7 -5.98,-7.2 -8.46,-16.19 -7.39,-27.03 1.02,-10.84 6.07,-19.59 15.07,-26.35z"/>
   <path class="fil1" d="M962.45 143.37c0,6.03 -0.1,9.48 -0.29,10.45l-110.54 0c1.31,10.98 6.17,20.08 14.54,27.32 8.07,6.66 17.11,10.01 27.17,10.01 13.77,0 24.71,-3.36 32.62,-10.34 14.77,-13.05 26.61,-5.1 31.5,-1.96 -5.59,11.47 -14.05,20.32 -25.37,26.54 -11.28,6.27 -23.72,9.38 -37.29,9.38 -19.49,0 -36.12,-6.56 -49.97,-19.74 -13.17,-13.17 -19.74,-30.43 -19.74,-51.68 0,-21.29 6.56,-38.35 19.64,-51.24 13.13,-12.83 29.7,-19.3 49.83,-19.4 20.13,0 36.36,6.51 48.71,19.49 12.79,12.93 19.2,29.99 19.2,51.14zm-39.76 -37.24c-7.59,-6.51 -17.01,-9.77 -28.2,-9.77 -11.23,0 -20.85,3.26 -28.92,9.77 -7.97,6.95 -12.64,15.99 -13.95,26.98l84.44 0c-1.31,-10.99 -5.78,-20.03 -13.37,-26.98z"/>
   <g id="_2685147989216">
    <polygon class="fil2" points="66.74,66.71 215.95,0 -0,0 0.49,214.79 "/>
    <polygon class="fil3" points="149.69,148.08 0.49,214.79 216.43,214.79 215.95,0 "/>
   </g>
   <path class="fil1" d="M312.12 0l15.19 0c2.69,17.78 -2.87,25.86 -15.24,25.92 -17.43,0.08 -26.06,11.86 -25.86,35.65l0 14.1 63.51 0.12c-0.31,13.36 -5.15,23.65 -20.14,24.13l-43.37 -0.12 0 92.12c0.07,14.21 -11.45,23.33 -27.11,22.86l0 -114.98 -27.1 0c-0.46,-12.64 5.54,-23.88 18.52,-24.13l8.58 0 0 -14.1c0,-19.66 4.42,-34.8 13.31,-45.43 8.88,-10.67 22.14,-16.04 39.72,-16.13z"/>
   <path class="fil1" d="M396.81 139.04l0 54.6c-0.41,15.61 -12.73,19.48 -26.95,19.97l0 -116.42c0.57,-16.91 11.84,-21.46 26.95,-21.86l0 20.77c3.95,-7.7 9.87,-13.62 17.81,-17.67 7.9,-4.04 16.39,-6.07 25.41,-6.07 17.37,0 30.45,5.33 39.28,16.04 9.23,10.51 13.92,25.61 14.02,45.25l0 79.94c-15.61,1.42 -26.06,-4.48 -26.95,-20.23l0 -57.94c0,-11.65 -2.76,-20.63 -8.24,-26.9 -5.33,-6.56 -13.18,-9.82 -23.59,-9.82 -10.51,0 -19.44,3.41 -26.75,10.27 -7.35,6.81 -11,16.88 -11,30.05z"/>
   <path class="fil4" d="M348.8 78.25l0 110.8c-0.37,17.86 -9.45,24.09 -26.94,24.56l0 -115.9c0.26,-15.35 13.71,-19.09 26.94,-19.46z"/>
   <path class="fil4" d="M677.76 74.38l0 115.48c-0.37,18.13 -9.59,24.46 -27.36,24.94l0 -117.68c0.27,-15.59 13.92,-22.36 27.36,-22.73z"/>
   <path class="fil3 str0" d="M664.29 5.98c4.98,0 9.38,1.63 13.13,4.89 3.8,3.31 5.68,7.5 5.68,12.58 0,5.08 -1.88,9.28 -5.68,12.58 -3.75,3.26 -8.14,4.89 -13.13,4.89 -4.98,0 -9.38,-1.68 -13.27,-5.03 -3.5,-3.41 -5.23,-7.55 -5.23,-12.44 0,-4.94 1.73,-9.03 5.23,-12.44 3.9,-3.35 8.29,-5.03 13.27,-5.03z"/>
  </g>
 </g>
</svg>
