<?xml version="1.0" encoding="utf-8"?>
<!-- Generator: Adobe Illustrator 25.1.0, SVG Export Plug-In . SVG Version: 6.00 Build 0)  -->
<svg version="1.1" id="Main" xmlns="http://www.w3.org/2000/svg" xmlns:xlink="http://www.w3.org/1999/xlink" x="0px" y="0px"
	 viewBox="0 0 24 24" style="enable-background:new 0 0 24 24;" xml:space="preserve">
<style type="text/css">
	.st0{fill: #FBD13E99;}
	.st1{fill:#3B9CFF;}
	.st2{fill:#FFFFFF;}
</style>
<g>
	<rect x="10.7" y="5.5" class="st0" width="12.3" height="1.7"/>
	<path class="st1" d="M22.6,4.3v7.6H11.1V4.3H22.6 M23,3.9H10.7v8.4H23V3.9z"/>
	<rect x="12.4" y="7.9" class="st1" width="1.2" height="0.4"/>
	<rect x="14.8" y="7.9" class="st1" width="3.1" height="0.4"/>
	<rect x="12.4" y="9" class="st1" width="0.6" height="0.4"/>
	<rect x="14.2" y="9" class="st1" width="2.5" height="0.4"/>
</g>
<rect x="0.6" y="2.7" class="st2" width="11.5" height="19.5"/>
<path class="st1" d="M12.2,21V2.5h-12v20h12v-1.8h-0.5V22h-11V3h11v18H12.2z"/>
<polyline class="st0" points="10.7,19.6 1.7,19.6 1.7,6.6 10.7,6.6 10.7,11 "/>
<rect x="0.6" y="4.8" class="st1" width="11.2" height="0.5"/>
<path class="st1" d="M6.2,3.5c-0.2,0-0.3,0.1-0.3,0.3s0.1,0.3,0.3,0.3c0.2,0,0.3-0.1,0.3-0.3C6.5,3.7,6.4,3.5,6.2,3.5
	C6.3,3.5,6.2,3.5,6.2,3.5z"/>
<path class="st1" d="M7.9,21.3H4.6c-0.1,0-0.2-0.1-0.2-0.2l0,0c0-0.1,0.1-0.2,0.2-0.2h3.3c0.1,0,0.2,0.1,0.2,0.2l0,0
	C8.1,21.2,8,21.3,7.9,21.3z"/>
</svg>
