<?xml version="1.0" encoding="utf-8"?>
<!-- Generator: Adobe Illustrator 24.3.0, SVG Export Plug-In . SVG Version: 6.00 Build 0)  -->
<svg version="1.1" id="Main" xmlns="http://www.w3.org/2000/svg" xmlns:xlink="http://www.w3.org/1999/xlink" x="0px" y="0px"
	 viewBox="0 0 24 24" style="enable-background:new 0 0 24 24;" xml:space="preserve">
<style type="text/css">
	.st0{fill: #F56F4599;}
	.st1{fill:#1D9CD3;}
</style>
<path class="st0" d="M21.2,13.9c-1.3,0.6-1.9,2.1-1.3,3.3l0,0c-0.6-1.3-2.1-1.9-3.4-1.3c1.3-0.6,1.9-2.1,1.3-3.4l0,0
	C18.4,13.9,19.9,14.5,21.2,13.9L21.2,13.9z"/>
<path class="st0" d="M10.2,5.2C8.1,4.5,5.8,5.6,5,7.7c0.7-2.1-0.4-4.4-2.5-5.2c0,0,0,0-0.1,0C4.6,3.3,6.9,2.1,7.7,0
	C6.9,2.1,8,4.4,10.2,5.2L10.2,5.2z"/>
<polygon class="st1" points="6.1,18.6 5.8,18.2 8.5,16.4 9,13.6 12.3,11.3 12.3,9.4 9.8,10.2 6,11.7 2.3,15.4 0.2,16.1 0,15.6
	2.1,14.9 5.7,11.3 9.6,9.8 12.8,8.7 12.8,11.5 9.4,13.9 9,16.7 "/>
<polygon class="st1" points="0.2,24 0,23.5 2.1,22.8 5.9,21.4 11.9,21.4 11.9,21.9 6,21.9 2.3,23.3 "/>
<polygon class="st1" points="16.9,21 12.3,21 11.3,19.3 12.3,17.7 17.9,17.7 17.9,18.2 12.6,18.2 11.9,19.3 12.6,20.5 16.9,20.5 "/>
<polygon class="st1" points="16.1,23.8 12.3,23.8 11.3,22.1 12.2,20.6 12.6,20.8 11.9,22.1 12.6,23.3 15.8,23.3 18.6,15 19.1,15.2
	"/>
<rect x="6.9" y="5.8" class="st0" width="16.9" height="1.9"/>
<polygon class="st1" points="24,15.4 11.6,15.4 11.6,14.9 23.5,14.9 23.5,4.2 7.1,4.2 7.1,11.1 6.6,11.1 6.6,3.7 24,3.7 "/>
<rect x="14.1" y="11.5" class="st1" width="0.9" height="0.5"/>
<rect x="12.5" y="9.6" class="st1" width="4.4" height="0.5"/>
<polygon class="st1" points="12.7,18 12.2,16.5 12.9,15 13.4,15.2 12.8,16.5 13.2,17.8 "/>
</svg>
