<?xml version="1.0" encoding="UTF-8"?>
<!DOCTYPE svg PUBLIC "-//W3C//DTD SVG 1.1//EN" "http://www.w3.org/Graphics/SVG/1.1/DTD/svg11.dtd">
<!-- Creator: CorelDRAW 2018 (64-Bit Evaluation Version) -->
<svg xmlns="http://www.w3.org/2000/svg" xml:space="preserve" width="11.9063mm" height="11.9062mm" version="1.1" style="shape-rendering:geometricPrecision; text-rendering:geometricPrecision; image-rendering:optimizeQuality; fill-rule:evenodd; clip-rule:evenodd"
viewBox="0 0 97.38 97.37"
 xmlns:xlink="http://www.w3.org/1999/xlink">
 <defs>
  <style type="text/css">
   <![CDATA[
    .fil0 {fill:white}
   ]]>
  </style>
 </defs>
 <g id="Layer_x0020_1">
  <metadata id="CorelCorpID_0Corel-Layer"/>
  <g id="_2920088345232">
   <path class="fil0" d="M48.27 51.47c0,1.95 -0,4.75 0.41,6.56l1.47 7.05c1.12,3.18 3.08,8.74 4.75,11.3l3.25 4.15c0.49,0.63 0.61,1.12 1.2,1.67 1.48,1.39 2.82,3.22 4.58,4.31 1.04,0.65 0.84,0.73 1.58,1.26l1.6 1.26c1.24,1.01 4.3,2.49 5.76,3.11 1.48,0.62 2.64,1.37 4.11,1.85l6.77 1.91c7.61,1.66 8.5,0.66 13.63,1.47 -0.25,-1.26 -1.11,-1.46 -1.7,-2.36l-1.54 -2.05c-0.03,-0.04 -0.07,-0.1 -0.1,-0.15l-3.55 -4.56c-2.09,-3.31 -4.72,-5.75 -6.77,-9.03 -0.55,-0.88 -0.43,-0.72 -1.11,-1.52 -0.49,-0.58 -0.87,-0.97 -1.23,-1.4 -0.6,-0.72 -0.26,-0.78 -1.03,-1.6 -0.34,-0.35 -0.41,-0.33 -0.68,-0.77l-6.78 -8.93c-0.53,-1 -3.15,-3.66 -4.54,-6.01l-1.89 -2.2c-0.9,-0.84 -0.19,-0.6 -1.03,-1.58 -0.55,-0.65 -0.74,-0.62 -1.23,-1.4l-2.29 -2.96c-1.83,-2.42 -1.01,-1.88 1.32,-4.81l6.66 -9.13c0.71,-0.8 0.56,-0.89 1.07,-1.57l1.19 -1.42c1.14,-1.81 2.75,-3.38 3.9,-5.18 0.23,-0.36 0.43,-0.56 0.64,-0.81 0.83,-0.99 1.5,-2.06 2.35,-3.15 0.52,-0.67 0.58,-0.96 1.07,-1.57l2.35 -2.9c0.53,-0.88 0.91,-0.95 1.39,-1.71l3.38 -4.74c1.2,-1.94 4.5,-6.33 6.12,-8.01 0.28,-0.29 0,0.04 0.33,-0.39l1.89 -2.66c0.57,-0.81 1.61,-1.52 1.66,-2.52l-13.22 1.54c-1.7,0.45 -2.98,0.78 -4.45,1.52 -1.46,0.74 -3.08,1 -4.48,1.77 -2.01,1.11 -3.93,2.02 -5.75,3.32l-4.26 3.17c-0.57,0.54 -0.4,0.29 -0.99,0.68l-7.3 8.02c-1.55,1.83 -1.96,3.2 -2.34,3.65l-2.55 5.09c-1.75,4.08 -1.91,4.92 -2.9,9.27 -0.92,4 -0.69,8.79 -0.68,13.18z"/>
   <path class="fil0" d="M15.14 93.15l3.71 -4.88c0.42,-0.57 0.44,-0.75 0.9,-1.24l2.42 -3.07c0.23,-0.38 0.16,-0.26 0.52,-0.69l1.84 -2.46c0.5,-0.91 1.26,-1.48 1.89,-2.41 0.49,-0.71 1.36,-1.7 1.91,-2.41 0.48,-0.61 0.37,-0.7 0.86,-1.29 0.43,-0.51 0.88,-0.65 0.86,-1.56 -0.02,-0.78 -1.31,-2.16 -1.78,-2.78l-13.13 -17.46c-0.69,0.28 -1.42,1.77 -1.89,2.4l-3.81 4.8c-0.64,1.06 -1.27,1.66 -1.94,2.58l-0.84 1.33c-0.36,0.48 -0.7,0.67 -1.05,1.09 -0.68,0.85 -1.13,1.61 -1.94,2.58l-2.78 3.7c-0.43,0.54 -0.92,0.76 -0.89,1.49 0.05,1 -0.07,0.1 0.26,0.69l0.31 0.45c0.82,1.29 2.15,2.6 3.07,4.06l9.37 12.66c0.46,0.76 1.36,2.13 2.13,2.38z"/>
   <path class="fil0" d="M14.9 44.35c0.76,-0.3 1.53,-1.8 1.98,-2.39l6.38 -8.44c0.39,-0.57 0.57,-0.65 0.99,-1.14 0.39,-0.46 0.54,-0.79 0.93,-1.23 1.78,-1.95 1.88,-2.55 2.9,-3.79 3.2,-3.88 2.21,-2.74 -1.46,-8.07l-7.65 -10.03c-0.67,-0.85 -1.25,-1.69 -1.89,-2.66 -0.4,-0.61 -1.51,-2.15 -2.2,-2.4 -0.41,0.28 -0.19,0.13 -0.49,0.5l-4.18 5.64c-1.08,1.09 -2.87,4.04 -3.76,5.09l-2.84 3.62c-0.46,0.58 -0.46,0.39 -0.96,1.21 -1.68,2.77 -3.45,2.9 -2.32,4.59l1.07 1.6c0.03,0.04 0.08,0.09 0.11,0.14 2.14,2.82 5.93,7.58 7.64,10.31 0.47,0.76 0.48,0.61 0.99,1.12 0.77,0.76 0.34,0.54 0.89,1.26 0.41,0.55 0.71,0.64 1.03,1.11 0.29,0.42 0.64,0.96 0.86,1.3l1.45 1.89c0.03,0.04 0.07,0.1 0.1,0.14 0.03,0.04 0.07,0.1 0.1,0.15l0.31 0.46z"/>
   <path class="fil0" d="M22.57 49.06c-1.7,-0.03 -1.03,-0.49 -2.34,-0.41 -0.05,0.99 0.34,1.02 0.93,1.85l6.73 9.06c0.55,0.64 0.65,0.88 1.11,1.52 0.37,0.52 0.23,0.31 0.57,0.86 0.78,1.24 0.65,0.49 1.3,1.55l3.88 5.21c0.73,1.24 0.54,0.67 1.17,1.47 2.28,2.89 2.59,2.84 1.03,4.85 -0.44,0.56 -0.85,0.76 -1.25,1.35l-3.08 4.12c-0.03,0.04 -0.08,0.09 -0.11,0.13l-6.76 9.03c-0.15,0.19 -0.29,0.28 -0.55,0.65l-0.18 0.3c-0.03,0.04 -0.06,0.11 -0.09,0.15 -0.03,0.04 -0.06,0.11 -0.09,0.15 -0.03,0.04 -0.06,0.1 -0.09,0.14 -0.34,0.46 -0.72,0.7 -1.21,1.4 -0.87,1.26 -3,3.84 -3.06,4.53 3.43,0.29 6.48,-0.13 9.55,-1.16 0.06,-0.02 0.12,-0.04 0.18,-0.06l4.87 -2.58c2.24,-1.57 4.58,-3.77 6.12,-6.08 0.52,-0.78 1.77,-3.24 2,-3.96l1.55 -7.58c0.17,-2.44 -0.06,-6.16 -0.66,-8.43l-1.33 -4.69c-0.41,-1.39 -3.26,-4.52 -3.81,-5.5 -0.73,-1.29 -0.23,-0.61 -1.52,-1.38 -0.68,-0.41 -0.93,-0.94 -1.61,-1.51 -0.55,-0.46 -1.28,-0.89 -1.82,-1.27 -1.13,-0.8 -1.81,-0.81 -3.09,-1.5 -2.83,-1.51 -2.36,-1.06 -5.54,-1.88 -1.37,-0.35 -0.96,-0.33 -2.77,-0.36z"/>
   <path class="fil0" d="M20.41 48.13l4.33 0.03 6.09 -1.58c1.79,-0.54 2.54,-1.12 4.02,-2l1.8 -1.31c0.63,-0.67 0.89,-0.96 1.54,-1.57 3.09,-2.87 5.9,-7.6 6.09,-11.93 0.16,-3.63 0.44,-0.91 0.44,-5.72 -0,-1.74 -0.09,-4.07 -0.46,-5.58 -0.37,-1.49 -1.04,-3.24 -1.47,-4.49 -0.38,-1.11 -1.45,-2.68 -2.2,-3.77 -0.55,-0.81 -2.11,-2.62 -2.94,-3.27 -1.63,-1.3 -1.31,-1.31 -3.39,-2.63 -0.88,-0.56 -0.97,-0.81 -1.83,-1.26 -0.56,-0.29 -1.48,-0.77 -2.11,-1l-3.65 -1.34c-0.44,-0.13 -0.23,-0.07 -0.76,-0.16 -1.74,-0.28 -4.31,-0.17 -5.7,-0.55 0.09,1.15 1.26,1.92 2.02,2.9l1.08 1.56c0.36,0.52 0.73,1.08 1.06,1.58l4.99 6.73c0.98,1.54 1.78,2.3 2.82,3.63l5.6 7.6c0.49,1.35 -1.03,2.27 -1.66,3.03 -1.56,1.88 -1.49,2.08 -2.21,3.07l-11.88 15.62c-0.51,0.63 -1.3,1.25 -1.66,2.42z"/>
  </g>
 </g>
</svg>
