<?xml version="1.0" encoding="UTF-8"?>
<!DOCTYPE svg PUBLIC "-//W3C//DTD SVG 1.1//EN" "http://www.w3.org/Graphics/SVG/1.1/DTD/svg11.dtd">
<!-- Creator: CorelDRAW 2018 (64-Bit Evaluation Version) -->
<svg xmlns="http://www.w3.org/2000/svg" xml:space="preserve" width="23.8126mm" height="23.8125mm" version="1.1" style="shape-rendering:geometricPrecision; text-rendering:geometricPrecision; image-rendering:optimizeQuality; fill-rule:evenodd; clip-rule:evenodd"
viewBox="0 0 589.51 589.51"
 xmlns:xlink="http://www.w3.org/1999/xlink">
 <defs>
  <style type="text/css">
   <![CDATA[
    .fil0 {fill:#313B4A}
   ]]>
  </style>
 </defs>
 <g id="Layer_x0020_1">
  <metadata id="CorelCorpID_0Corel-Layer"/>
  <g id="_2920088298192">
   <path class="fil0" d="M292.21 311.6c0.02,11.83 -0.01,28.75 2.48,39.72l8.91 42.7c6.81,19.26 18.62,52.93 28.74,68.4l19.66 25.14c2.97,3.81 3.69,6.77 7.26,10.13 8.96,8.44 17.09,19.5 27.7,26.08 6.32,3.92 5.06,4.41 9.6,7.63l9.68 7.63c7.52,6.09 26.01,15.08 34.86,18.83 8.94,3.79 15.96,8.27 24.89,11.18l40.99 11.57c46.08,10.06 51.48,3.98 82.51,8.89 -1.51,-7.61 -6.71,-8.86 -10.28,-14.28l-9.32 -12.39c-0.18,-0.27 -0.4,-0.64 -0.59,-0.9l-21.51 -27.59c-12.67,-20.06 -28.55,-34.81 -40.99,-54.7 -3.33,-5.33 -2.63,-4.39 -6.73,-9.22 -3,-3.52 -5.28,-5.85 -7.46,-8.46 -3.65,-4.37 -1.57,-4.73 -6.26,-9.68 -2.03,-2.14 -2.51,-2.02 -4.15,-4.66l-41.08 -54.08c-3.21,-6.04 -19.06,-22.14 -27.47,-36.41l-11.47 -13.34c-5.46,-5.07 -1.17,-3.64 -6.21,-9.59 -3.34,-3.94 -4.49,-3.73 -7.46,-8.5l-13.85 -17.94c-11.1,-14.68 -6.09,-11.37 7.96,-29.1l40.3 -55.3c4.28,-4.84 3.4,-5.39 6.46,-9.48l7.21 -8.6c6.88,-10.94 16.65,-20.43 23.62,-31.38 1.38,-2.16 2.59,-3.37 3.87,-4.9 5.04,-6 9.05,-12.45 14.24,-19.08 3.17,-4.06 3.5,-5.82 6.46,-9.48l14.24 -17.54c3.21,-5.34 5.51,-5.78 8.41,-10.35l20.44 -28.72c7.27,-11.76 27.26,-38.33 37.07,-48.49 1.7,-1.76 0.01,0.21 1.98,-2.37l11.41 -16.08c3.44,-4.91 9.72,-9.17 10.04,-15.25l-80.01 9.29c-10.27,2.73 -18.04,4.71 -26.97,9.23 -8.83,4.47 -18.67,6.04 -27.14,10.69 -12.19,6.71 -23.78,12.22 -34.82,20.1l-25.8 19.18c-3.46,3.27 -2.41,1.77 -5.99,4.13l-44.18 48.53c-9.4,11.06 -11.88,19.35 -14.16,22.11l-15.41 30.81c-10.57,24.73 -11.54,29.79 -17.57,56.09 -5.55,24.19 -4.2,53.19 -4.15,79.77z"/>
   <path class="fil0" d="M91.67 563.96l22.44 -29.53c2.53,-3.42 2.66,-4.54 5.44,-7.49l14.65 -18.57c1.42,-2.29 0.98,-1.58 3.14,-4.17l11.14 -14.87c3.01,-5.49 7.62,-8.93 11.46,-14.57 2.95,-4.33 8.26,-10.32 11.59,-14.57 2.88,-3.68 2.26,-4.25 5.23,-7.8 2.58,-3.1 5.31,-3.93 5.19,-9.43 -0.1,-4.73 -7.95,-13.07 -10.77,-16.83l-79.49 -105.68c-4.19,1.71 -8.62,10.73 -11.42,14.55l-23.08 29.05c-3.9,6.43 -7.68,10.05 -11.77,15.61l-5.06 8.08c-2.16,2.89 -4.26,4.04 -6.34,6.63 -4.12,5.12 -6.83,9.77 -11.75,15.62l-16.84 22.39c-2.59,3.27 -5.58,4.63 -5.37,9.04 0.28,6.06 -0.42,0.62 1.58,4.17l1.88 2.73c4.94,7.83 13.04,15.75 18.57,24.61l56.73 76.63c2.78,4.6 8.24,12.92 12.88,14.42z"/>
   <path class="fil0" d="M90.22 268.52c4.57,-1.79 9.27,-10.9 12.01,-14.45l38.62 -51.08c2.36,-3.45 3.45,-3.93 6.01,-6.91 2.37,-2.76 3.25,-4.8 5.66,-7.44 10.78,-11.82 11.39,-15.43 17.57,-22.93 19.38,-23.51 13.4,-16.59 -8.83,-48.84l-46.31 -60.71c-4.03,-5.14 -7.59,-10.21 -11.45,-16.11 -2.43,-3.72 -9.15,-13.02 -13.29,-14.53 -2.5,1.67 -1.13,0.81 -2.94,3.06l-25.31 34.15c-6.55,6.61 -17.37,24.46 -22.79,30.81l-17.17 21.91c-2.78,3.5 -2.78,2.33 -5.81,7.31 -10.2,16.75 -20.9,17.55 -14.02,27.82l6.48 9.71c0.19,0.25 0.46,0.57 0.65,0.82 12.95,17.1 35.91,45.89 46.23,62.44 2.86,4.59 2.9,3.7 6,6.76 4.67,4.6 2.07,3.24 5.38,7.65 2.5,3.33 4.27,3.85 6.26,6.72 1.74,2.51 3.88,5.81 5.23,7.88l8.75 11.46c0.19,0.25 0.42,0.6 0.6,0.85 0.19,0.25 0.42,0.63 0.6,0.88l1.85 2.78z"/>
   <path class="fil0" d="M136.64 297.01c-10.28,-0.21 -6.24,-2.94 -14.16,-2.5 -0.32,6 2.07,6.15 5.61,11.19l40.75 54.85c3.34,3.9 3.93,5.33 6.7,9.23 2.25,3.16 1.38,1.85 3.48,5.21 4.71,7.52 3.93,2.95 7.85,9.39l23.48 31.57c4.39,7.53 3.24,4.05 7.07,8.91 13.78,17.51 15.65,17.2 6.22,29.37 -2.64,3.4 -5.17,4.62 -7.59,8.16l-18.67 24.97c-0.19,0.23 -0.49,0.54 -0.69,0.76l-40.9 54.67c-0.92,1.14 -1.78,1.69 -3.35,3.96l-1.1 1.83c-0.17,0.27 -0.35,0.66 -0.52,0.93 -0.17,0.26 -0.36,0.65 -0.53,0.9 -0.17,0.25 -0.39,0.62 -0.56,0.85 -2.05,2.78 -4.35,4.23 -7.31,8.47 -5.29,7.61 -18.14,23.23 -18.55,27.43 20.74,1.76 39.24,-0.76 57.81,-7.03 0.35,-0.12 0.75,-0.24 1.1,-0.36l29.45 -15.59c13.56,-9.49 27.75,-22.83 37.07,-36.82 3.16,-4.75 10.73,-19.61 12.09,-23.96l9.41 -45.88c1.01,-14.77 -0.36,-37.27 -4.02,-51.02l-8.06 -28.37c-2.48,-8.43 -19.76,-27.35 -23.1,-33.28 -4.4,-7.82 -1.39,-3.68 -9.21,-8.37 -4.09,-2.46 -5.61,-5.69 -9.73,-9.13 -3.35,-2.8 -7.77,-5.36 -11.02,-7.67 -6.84,-4.86 -10.94,-4.91 -18.71,-9.05 -17.14,-9.12 -14.29,-6.44 -33.57,-11.38 -8.32,-2.13 -5.81,-1.98 -16.76,-2.2z"/>
   <path class="fil0" d="M123.54 291.36l26.23 0.21 36.88 -9.58c10.84,-3.29 15.39,-6.77 24.34,-12.09l10.91 -7.96c3.8,-4.08 5.4,-5.83 9.33,-9.48 18.72,-17.4 35.74,-46.03 36.88,-72.21 0.95,-22 2.69,-5.49 2.68,-34.65 0,-10.53 -0.53,-24.63 -2.79,-33.77 -2.24,-9.04 -6.29,-19.59 -8.9,-27.2 -2.31,-6.74 -8.79,-16.25 -13.31,-22.82 -3.35,-4.87 -12.8,-15.84 -17.79,-19.81 -9.85,-7.84 -7.93,-7.92 -20.51,-15.91 -5.32,-3.37 -5.86,-4.89 -11.07,-7.61 -3.36,-1.76 -8.98,-4.68 -12.74,-6.07l-22.07 -8.12c-2.66,-0.79 -1.37,-0.45 -4.59,-0.97 -10.51,-1.7 -26.06,-1.01 -34.52,-3.31 0.54,6.99 7.61,11.61 12.21,17.57l6.53 9.43c2.21,3.16 4.43,6.56 6.42,9.57l30.24 40.71c5.9,9.35 10.79,13.91 17.1,21.97l33.91 46.04c2.98,8.18 -6.26,13.76 -10.05,18.32 -9.46,11.38 -9,12.61 -13.35,18.57l-71.9 94.55c-3.07,3.79 -7.9,7.56 -10.05,14.63z"/>
  </g>
 </g>
</svg>
