<?xml version="1.0" encoding="UTF-8"?>
<!DOCTYPE svg PUBLIC "-//W3C//DTD SVG 1.1//EN" "http://www.w3.org/Graphics/SVG/1.1/DTD/svg11.dtd">
<!-- Creator: CorelDRAW 2018 (64-Bit Evaluation Version) -->
<svg xmlns="http://www.w3.org/2000/svg" xml:space="preserve" width="145.179mm" height="23.8126mm" version="1.1" style="shape-rendering:geometricPrecision; text-rendering:geometricPrecision; image-rendering:optimizeQuality; fill-rule:evenodd; clip-rule:evenodd"
viewBox="0 0 8108.62 1329.99"
 xmlns:xlink="http://www.w3.org/1999/xlink">
 <defs>
  <style type="text/css">
   <![CDATA[
    .fil1 {fill:#313B4A}
    .fil0 {fill:#313B4A;fill-rule:nonzero}
   ]]>
  </style>
 </defs>
 <g id="Layer_x0020_1">
  <metadata id="CorelCorpID_0Corel-Layer"/>
  <g id="_2920439605184">
   <g>
    <path class="fil0" d="M1764.21 680.53c-56.7,50.33 -85.2,118.85 -85.2,205.26 0,86.41 27.29,154.94 81.56,205.88 54.57,50.94 120.98,76.41 198.9,76.41 78.23,0 143.71,-26.68 196.17,-80.05 53.36,-53.06 80.05,-120.98 80.05,-203.14 0,-82.47 -26.38,-149.48 -79.14,-201.63 -52.45,-52.15 -116.74,-77.93 -192.53,-77.32 -75.8,0 -142.51,24.86 -199.81,74.59zm-252.57 631.27l0 -1185.98c-0.81,-93.85 63.44,-128.31 165.55,-125.68l0 589.73c57.91,-97.33 157.36,-145.84 298.35,-145.84 122.8,0 224.97,40.93 306.54,122.8 81.87,80.95 122.8,187.38 122.8,318.97 0,131.29 -42.45,238.32 -127.04,320.49 -84.9,82.47 -186.17,123.71 -304.12,123.71 -62.76,0 -121.28,-13.64 -175.86,-40.93 -54.27,-27.29 -94.6,-63.06 -120.67,-107.64 -0.17,108.16 -61.26,132.8 -165.55,130.38z"/>
    <path class="fil0" d="M2668.02 1311.8c-92.58,2.88 -163.28,-21.36 -165.55,-102.49l0 -747.08c109.17,-1.25 165.02,24.97 165.55,114.18l0 77.45c41.54,-139.78 120.07,-209.82 236.19,-209.82 67.01,0 116.13,10.91 147.66,32.44 -23.61,86.95 -69.96,135.05 -149.86,125.83 -0.37,-0.04 -0.75,-0.01 -1.13,-0.01 -74.89,0 -132.2,35.78 -172.52,107.34 -29.93,53.34 -55.53,120.52 -56.34,202.73l-3.99 399.43z"/>
    <path class="fil0" d="M3124.94 1311.8l0 -717.81c0.55,-96.99 62.67,-131.83 165.55,-131.77l0 736.09c-0.41,90.01 -59.72,115.41 -165.55,113.49z"/>
    <path class="fil0" d="M3126.16 225.73c-21.53,-20.92 -32.14,-46.39 -32.14,-76.41 0,-30.32 10.61,-55.49 32.14,-76.41 23.95,-20.62 50.94,-30.93 81.56,-30.93 30.62,0 57.61,10.01 80.65,30.02 23.35,20.32 34.87,46.09 34.87,77.32 0,31.23 -11.53,57 -34.87,77.32 -23.04,20.01 -50.03,30.02 -80.65,30.02 -30.62,0 -57.61,-10.3 -81.56,-30.93z"/>
    <path class="fil0" d="M4232.76 1311.8l0 -1193.72c-0.46,-82.08 78.19,-117.66 165.55,-117.94l0 758.01 233.49 -235.66c72.22,-76.69 162.04,-101.16 285.29,-60.26l-364.15 366.88 451.16 482.7c-110.61,18.14 -207.58,9.71 -273.6,-58.96l-332.19 -356.12 0 294.52c-3.5,76.13 -67.63,118.02 -165.55,120.56z"/>
    <path class="fil0" d="M5443.91 444.03c130.99,0 238.32,45.78 322.3,137.05 -73.8,48.14 -156.21,78 -275.84,28.61 -0.48,-0.2 -1.04,-0.16 -1.57,-0.23 -15.58,-2.34 -31.77,-3.51 -48.53,-3.51 -79.74,0 -147.66,25.77 -203.45,77.62 -56.09,50.94 -84.29,118.55 -84.29,203.15 0,84.29 28.5,152.81 85.2,205.57 57,53.07 124.92,79.44 204.36,79.44 37.25,0 71.5,-6.04 102.67,-18.12 1.02,-0.39 2.12,-0.63 3.04,-1.2 83.76,-51.64 155.23,-25.67 220.24,41.16 -84.59,90.96 -191.62,136.44 -320.49,136.44 -129.16,0 -238.32,-40.93 -327.46,-122.8 -88.84,-83.07 -133.11,-189.8 -133.11,-320.49 0,-130.68 43.66,-237.1 130.68,-318.97 87.33,-81.87 195.87,-123.1 326.25,-123.71z"/>
    <path class="fil0" d="M3846.72 444.03c130.99,0 238.32,45.78 322.3,137.05 -55.68,73.68 -127.14,95.7 -221.52,42.7 -1.49,-0.83 -3.22,-1.18 -4.84,-1.75 -30.49,-10.72 -63.7,-16.09 -99.58,-16.09 -79.74,0 -147.66,25.77 -203.45,77.62 -56.09,50.94 -84.29,118.55 -84.29,203.15 0,84.29 28.5,152.81 85.2,205.57 57,53.07 124.92,79.44 204.36,79.44 34.7,0 66.78,-5.24 96.22,-15.73 1.19,-0.42 2.41,-0.78 3.56,-1.3 95.71,-42.93 167.99,-21.42 226.17,38.86 -84.59,90.96 -191.62,136.44 -320.49,136.44 -129.16,0 -238.32,-40.93 -327.46,-122.8 -88.84,-83.07 -133.11,-189.8 -133.11,-320.49 0,-130.68 43.66,-237.1 130.68,-318.97 87.33,-81.87 195.87,-123.1 326.25,-123.71z"/>
    <path class="fil0" d="M6672 884.59c0,37.59 -0.6,59.13 -1.82,65.19l-689.48 0c8.19,68.53 38.51,125.23 90.66,170.41 50.33,41.54 106.73,62.46 169.49,62.46 68.8,0 132.16,-13.8 183.21,-48.9 0.87,-0.6 1.83,-1.09 2.6,-1.82 68.83,-63.88 140.59,-64.17 214.12,-26 -34.87,71.56 -87.63,126.74 -158.27,165.55 -70.34,39.11 -147.96,58.52 -232.56,58.52 -121.59,0 -225.28,-40.93 -311.69,-123.1 -82.16,-82.17 -123.1,-189.8 -123.1,-322.31 0,-132.81 40.93,-239.23 122.49,-319.58 81.87,-80.05 185.26,-120.37 310.79,-120.98 125.52,0 226.79,40.63 303.81,121.59 79.74,80.65 119.76,187.07 119.76,318.97zm-248.02 -232.25c-47.3,-40.63 -106.12,-60.95 -175.86,-60.95 -70.04,0 -130.07,20.32 -180.41,60.95 -49.73,43.36 -78.83,99.75 -87.02,168.28l526.67 0c-8.19,-68.53 -36.09,-124.92 -83.38,-168.28z"/>
    <path class="fil0" d="M6927.17 853.66l0 458.14c-121.75,0.75 -165.55,-7.28 -165.55,-130.47l0 -719.11c102.68,-1.25 163.87,10.63 165.55,88.84l0 38.81c24.26,-47.3 60.64,-83.69 109.45,-108.55 48.51,-24.86 100.66,-37.29 156.15,-37.29 106.73,0 187.08,32.75 241.35,98.54 56.7,64.58 85.5,157.36 86.11,278.04l0 385.35c-0.19,74.91 -41.48,108.2 -165.55,105.84l0 -480.28c0,-71.55 -16.98,-126.74 -50.64,-165.25 -32.75,-40.33 -80.95,-60.34 -144.93,-60.34 -64.58,0 -119.46,20.92 -164.33,63.06 -45.18,41.84 -67.61,103.7 -67.61,184.65z"/>
    <path class="fil0" d="M7930.34 286.29l0 175.94 48.81 0c91.42,-1.21 128.08,43.01 129.47,147.36l-178.28 0 0 702.22c-103.76,1.03 -160.92,-25.18 -165.55,-138.83l0 -563.39 -31.07 0c-111.12,-1.17 -119.77,-71.39 -121.75,-147.36l152.82 0 0 -311.09c103.26,-2.2 159.92,28.86 165.55,135.15z"/>
   </g>
   <path class="fil1" d="M655.28 703.01c0.04,26.69 -0.03,64.87 5.57,89.62l19.98 96.34c15.26,43.44 41.76,119.42 64.46,154.31l44.09 56.72c6.67,8.6 8.28,15.27 16.28,22.85 20.09,19.05 38.31,44 62.12,58.84 14.18,8.84 11.34,9.95 21.52,17.21l21.72 17.21c16.87,13.73 58.32,34.03 78.18,42.48 20.05,8.54 35.78,18.66 55.83,25.23l91.92 26.09c103.35,22.7 115.44,8.99 185.03,20.06 -3.39,-17.16 -15.04,-19.99 -23.04,-32.21l-20.89 -27.94c-0.4,-0.61 -0.9,-1.44 -1.32,-2.03l-48.23 -62.24c-28.4,-45.27 -64.03,-78.55 -91.92,-123.4 -7.47,-12.02 -5.89,-9.9 -15.1,-20.79 -6.71,-7.93 -11.85,-13.2 -16.73,-19.08 -8.18,-9.85 -3.51,-10.67 -14.04,-21.84 -4.56,-4.84 -5.63,-4.56 -9.3,-10.52l-92.11 -122c-7.19,-13.62 -42.76,-49.94 -61.62,-82.14l-25.73 -30.1c-12.24,-11.44 -2.63,-8.22 -13.92,-21.63 -7.48,-8.89 -10.07,-8.41 -16.72,-19.18l-31.06 -40.48c-24.88,-33.11 -13.66,-25.66 17.86,-65.65l90.38 -124.76c9.59,-10.92 7.62,-12.15 14.49,-21.38l16.16 -19.4c15.43,-24.69 37.33,-46.1 52.96,-70.8 3.09,-4.88 5.81,-7.6 8.69,-11.05 11.3,-13.53 20.29,-28.08 31.93,-43.06 7.12,-9.15 7.84,-13.13 14.49,-21.4l31.94 -39.58c7.2,-12.05 12.35,-13.04 18.86,-23.35l45.83 -64.79c16.31,-26.52 61.13,-86.48 83.12,-109.4 3.8,-3.97 0.03,0.48 4.43,-5.35l25.6 -36.29c7.7,-11.07 21.8,-20.7 22.51,-34.4l-179.42 20.96c-23.04,6.15 -40.47,10.62 -60.48,20.82 -19.81,10.09 -41.87,13.62 -60.87,24.13 -27.35,15.13 -53.34,27.57 -78.08,45.35l-57.87 43.27c-7.75,7.38 -5.4,3.99 -13.42,9.32l-99.08 109.49c-21.08,24.95 -26.64,43.66 -31.75,49.89l-34.55 69.51c-23.7,55.79 -25.88,67.2 -39.42,126.55 -12.44,54.57 -9.42,120.01 -9.3,179.97z"/>
   <path class="fil1" d="M205.58 1272.35l50.31 -66.63c5.69,-7.72 5.97,-10.24 12.2,-16.9l32.86 -41.89c3.19,-5.17 2.19,-3.57 7.03,-9.41l24.97 -33.54c6.75,-12.38 17.1,-20.16 25.69,-32.86 6.61,-9.76 18.53,-23.28 25.99,-32.88 6.46,-8.3 5.07,-9.58 11.73,-17.6 5.79,-6.99 11.9,-8.87 11.63,-21.28 -0.23,-10.66 -17.83,-29.5 -24.15,-37.98l-178.27 -238.43c-9.38,3.85 -19.32,24.21 -25.6,32.83l-51.76 65.53c-8.74,14.5 -17.22,22.68 -26.39,35.21l-11.35 18.22c-4.84,6.53 -9.55,9.12 -14.23,14.96 -9.24,11.55 -15.3,22.04 -26.36,35.25l-37.77 50.51c-5.81,7.38 -12.51,10.44 -12.05,20.4 0.64,13.68 -0.94,1.4 3.55,9.4l4.22 6.17c11.08,17.66 29.23,35.53 41.65,55.52l127.22 172.89c6.23,10.38 18.48,29.14 28.88,32.52z"/>
   <path class="fil1" d="M202.32 605.8c10.25,-4.04 20.79,-24.59 26.94,-32.6l86.61 -115.24c5.29,-7.78 7.72,-8.86 13.47,-15.59 5.31,-6.22 7.29,-10.82 12.69,-16.78 24.18,-26.66 25.54,-34.81 39.4,-51.73 43.46,-53.04 30.04,-37.44 -19.79,-110.19l-103.85 -136.97c-9.03,-11.59 -17.03,-23.04 -25.67,-36.34 -5.46,-8.39 -20.52,-29.38 -29.8,-32.78 -5.61,3.78 -2.54,1.82 -6.6,6.9l-56.76 77.04c-14.68,14.92 -38.95,55.18 -51.1,69.5l-38.5 49.44c-6.24,7.9 -6.24,5.26 -13.04,16.49 -22.87,37.78 -46.87,39.6 -31.44,62.76l14.52 21.9c0.42,0.56 1.04,1.29 1.46,1.85 29.04,38.57 80.53,103.53 103.68,140.88 6.42,10.37 6.5,8.35 13.47,15.25 10.47,10.38 4.64,7.31 12.06,17.25 5.61,7.52 9.57,8.68 14.03,15.16 3.9,5.67 8.7,13.11 11.73,17.79l19.62 25.85c0.42,0.55 0.94,1.35 1.35,1.92 0.42,0.58 0.95,1.42 1.35,1.99l4.16 6.26z"/>
   <path class="fil1" d="M306.43 670.08c-23.05,-0.47 -13.99,-6.64 -31.76,-5.65 -0.72,13.54 4.65,13.87 12.58,25.25l91.37 123.74c7.5,8.79 8.81,12.03 15.04,20.82 5.05,7.13 3.1,4.17 7.81,11.75 10.56,16.97 8.82,6.65 17.61,21.17l52.64 71.22c9.85,16.99 7.27,9.13 15.86,20.11 30.9,39.5 35.11,38.8 13.95,66.25 -5.91,7.68 -11.59,10.43 -17.02,18.42l-41.87 56.33c-0.42,0.53 -1.11,1.21 -1.54,1.71l-91.73 123.33c-2.07,2.57 -3.99,3.8 -7.51,8.93l-2.46 4.13c-0.37,0.61 -0.79,1.49 -1.16,2.09 -0.37,0.59 -0.8,1.46 -1.19,2.04 -0.37,0.56 -0.87,1.39 -1.26,1.93 -4.6,6.28 -9.77,9.54 -16.38,19.1 -11.87,17.16 -40.68,52.41 -41.6,61.88 46.51,3.97 87.98,-1.71 129.64,-15.86 0.8,-0.27 1.68,-0.53 2.47,-0.82l66.06 -35.17c30.4,-21.41 62.23,-51.5 83.11,-83.08 7.09,-10.71 24.07,-44.24 27.11,-54.05l21.11 -103.52c2.26,-33.33 -0.81,-84.07 -9.01,-115.11l-18.09 -64.01c-5.56,-19.02 -44.3,-61.71 -51.79,-75.09 -9.87,-17.63 -3.13,-8.29 -20.65,-18.88 -9.17,-5.54 -12.59,-12.83 -21.82,-20.6 -7.52,-6.33 -17.42,-12.1 -24.71,-17.31 -15.34,-10.97 -24.53,-11.09 -41.96,-20.42 -38.45,-20.58 -32.05,-14.53 -75.28,-25.67 -18.64,-4.8 -13.03,-4.46 -37.58,-4.96z"/>
   <path class="fil1" d="M277.03 657.34l58.82 0.47 82.7 -21.61c24.32,-7.41 34.51,-15.26 54.6,-27.27l24.46 -17.96c8.53,-9.21 12.11,-13.15 20.92,-21.39 41.98,-39.26 80.15,-103.86 82.7,-162.9 2.14,-49.63 6.03,-12.38 6.02,-78.18 0,-23.75 -1.19,-55.58 -6.27,-76.18 -5.03,-20.4 -14.11,-44.21 -19.95,-61.38 -5.18,-15.21 -19.72,-36.66 -29.85,-51.48 -7.51,-11 -28.7,-35.73 -39.9,-44.7 -22.1,-17.69 -17.78,-17.88 -45.98,-35.9 -11.92,-7.61 -13.14,-11.04 -24.82,-17.17 -7.55,-3.97 -20.13,-10.57 -28.58,-13.7l-49.49 -18.33c-5.97,-1.79 -3.08,-1.02 -10.29,-2.2 -23.58,-3.84 -58.45,-2.28 -77.42,-7.47 1.22,15.77 17.05,26.2 27.37,39.64l14.64 21.27c4.95,7.14 9.93,14.8 14.39,21.59l67.82 91.85c13.24,21.09 24.2,31.37 38.34,49.57l76.04 103.87c6.67,18.46 -14.04,31.04 -22.54,41.33 -21.21,25.68 -20.2,28.45 -29.95,41.89l-161.23 213.31c-6.9,8.56 -17.71,17.06 -22.54,33.01z"/>
  </g>
 </g>
</svg>
