<?xml version="1.0" encoding="UTF-8"?>
<!DOCTYPE svg PUBLIC "-//W3C//DTD SVG 1.1//EN" "http://www.w3.org/Graphics/SVG/1.1/DTD/svg11.dtd">
<!-- Creator: CorelDRAW 2018 (64-Bit Evaluation Version) -->
<svg xmlns="http://www.w3.org/2000/svg" xml:space="preserve" width="72.5893mm" height="11.9062mm" version="1.1" style="shape-rendering:geometricPrecision; text-rendering:geometricPrecision; image-rendering:optimizeQuality; fill-rule:evenodd; clip-rule:evenodd"
viewBox="0 0 6220.64 1020.32"
 xmlns:xlink="http://www.w3.org/1999/xlink">
 <defs>
  <style type="text/css">
   <![CDATA[
    .fil2 {fill:#3B9CFF}
    .fil3 {fill:#EE6E44}
    .fil0 {fill:#313B4A;fill-rule:nonzero}
    .fil1 {fill:#3B9CFF;fill-rule:nonzero}
   ]]>
  </style>
 </defs>
 <g id="Layer_x0020_1">
  <metadata id="CorelCorpID_0Corel-Layer"/>
  <g id="_2920439606304">
   <g>
    <path class="fil0" d="M1353.43 522.08c-43.5,38.61 -65.36,91.18 -65.36,157.47 0,66.29 20.94,118.87 62.57,157.95 41.87,39.08 92.82,58.62 152.59,58.62 60.01,0 110.26,-20.47 150.5,-61.41 40.94,-40.71 61.41,-92.81 61.41,-155.85 0,-63.27 -20.24,-114.67 -60.72,-154.68 -40.23,-40.01 -89.55,-59.78 -147.7,-59.31 -58.15,0 -109.33,19.07 -153.29,57.22zm-193.76 484.28l0 -909.83c-0.62,-72 48.67,-98.43 127,-96.42l0 452.42c44.43,-74.67 120.72,-111.89 228.89,-111.89 94.21,0 172.59,31.4 235.16,94.21 62.81,62.1 94.21,143.75 94.21,244.7 0,100.73 -32.56,182.83 -97.45,245.87 -65.14,63.27 -142.82,94.9 -233.31,94.9 -48.15,0 -93.04,-10.46 -134.91,-31.4 -41.64,-20.94 -72.57,-48.38 -92.58,-82.58 -0.13,82.97 -47,101.88 -127,100.02z"/>
    <path class="fil0" d="M2046.81 1006.36c-71.03,2.22 -125.27,-16.39 -127,-78.63l0 -573.13c83.75,-0.96 126.59,19.14 127,87.59l0 59.41c31.86,-107.23 92.11,-160.96 181.2,-160.96 51.41,0 89.09,8.37 113.28,24.89 -18.12,66.71 -53.67,103.62 -114.97,96.54 -0.28,-0.03 -0.57,0 -0.87,0 -57.46,0 -101.42,27.45 -132.36,82.34 -22.96,40.92 -42.6,92.47 -43.23,155.54l-3.06 306.42z"/>
    <path class="fil0" d="M2397.34 1006.37l0 -550.68c0.42,-74.41 48.08,-101.14 127,-101.09l0 564.69c-0.32,69.05 -45.81,88.54 -127,87.08z"/>
    <path class="fil1" d="M2398.27 173.17c-16.52,-16.05 -24.65,-35.59 -24.65,-58.62 0,-23.26 8.13,-42.57 24.65,-58.62 18.37,-15.82 39.08,-23.72 62.57,-23.72 23.5,0 44.2,7.67 61.87,23.03 17.91,15.58 26.75,35.36 26.75,59.31 0,23.96 -8.84,43.73 -26.75,59.32 -17.67,15.35 -38.37,23.03 -61.87,23.03 -23.49,0 -44.19,-7.91 -62.57,-23.73z"/>
    <path class="fil0" d="M3247.22 1006.36l0 -915.77c-0.35,-62.97 59.98,-90.27 127,-90.48l0 581.51 179.12 -180.79c55.41,-58.83 124.32,-77.61 218.87,-46.23l-279.36 281.45 346.12 370.3c-84.86,13.92 -159.25,7.46 -209.9,-45.23l-254.84 -273.2 0 225.94c-2.69,58.41 -51.89,90.54 -127,92.49z"/>
    <path class="fil0" d="M4176.36 340.64c100.49,0 182.83,35.13 247.26,105.14 -56.62,36.94 -119.84,59.83 -211.62,21.95 -0.37,-0.15 -0.8,-0.12 -1.2,-0.18 -11.95,-1.79 -24.37,-2.69 -37.23,-2.69 -61.18,0 -113.28,19.77 -156.08,59.54 -43.04,39.08 -64.67,90.95 -64.67,155.85 0,64.67 21.86,117.23 65.36,157.71 43.73,40.71 95.83,60.94 156.77,60.94 28.58,0 54.85,-4.64 78.77,-13.9 0.77,-0.3 1.62,-0.49 2.32,-0.93 64.26,-39.61 119.09,-19.69 168.96,31.58 -64.9,69.77 -147,104.67 -245.86,104.67 -99.09,0 -182.82,-31.4 -251.22,-94.21 -68.15,-63.73 -102.11,-145.61 -102.11,-245.86 0,-100.26 33.49,-181.9 100.25,-244.7 67,-62.81 150.27,-94.45 250.28,-94.91z"/>
    <path class="fil0" d="M2951.06 340.64c100.49,0 182.83,35.13 247.26,105.14 -42.71,56.52 -97.53,73.42 -169.94,32.76 -1.14,-0.64 -2.47,-0.91 -3.7,-1.35 -23.4,-8.23 -48.87,-12.34 -76.4,-12.34 -61.18,0 -113.28,19.77 -156.08,59.54 -43.04,39.08 -64.67,90.95 -64.67,155.85 0,64.67 21.86,117.23 65.36,157.71 43.73,40.71 95.83,60.94 156.77,60.94 26.63,0 51.24,-4.02 73.82,-12.07 0.91,-0.33 1.85,-0.6 2.73,-0.99 73.42,-32.94 128.87,-16.44 173.5,29.81 -64.9,69.77 -147,104.67 -245.86,104.67 -99.09,0 -182.82,-31.4 -251.21,-94.21 -68.15,-63.73 -102.12,-145.61 -102.12,-245.86 0,-100.26 33.49,-181.9 100.25,-244.7 67,-62.81 150.27,-94.45 250.28,-94.91z"/>
    <path class="fil0" d="M5118.52 678.62c0,28.85 -0.46,45.36 -1.4,50.01l-528.94 0c6.28,52.57 29.54,96.07 69.55,130.72 38.61,31.86 81.87,47.91 130.02,47.91 52.78,0 101.4,-10.58 140.56,-37.51 0.67,-0.46 1.4,-0.84 2,-1.39 52.8,-49.01 107.85,-49.23 164.25,-19.95 -26.75,54.9 -67.22,97.23 -121.41,127.01 -53.97,30 -113.51,44.89 -178.41,44.89 -93.28,0 -172.83,-31.4 -239.12,-94.44 -63.04,-63.04 -94.44,-145.61 -94.44,-247.26 0,-101.88 31.4,-183.53 93.97,-245.17 62.81,-61.41 142.13,-92.35 238.42,-92.81 96.3,0 173.99,31.17 233.07,93.27 61.18,61.87 91.88,143.52 91.88,244.71zm-190.27 -178.18c-36.29,-31.17 -81.41,-46.75 -134.91,-46.75 -53.73,0 -99.78,15.58 -138.4,46.75 -38.15,33.27 -60.48,76.54 -66.76,129.1l404.03 0c-6.28,-52.57 -27.68,-95.83 -63.96,-129.1z"/>
    <path class="fil0" d="M5314.27 654.89l0 351.47c-93.4,0.58 -127,-5.59 -127,-100.08l0 -551.67c78.77,-0.96 125.72,8.15 127,68.15l0 29.77c18.61,-36.28 46.52,-64.2 83.97,-83.27 37.22,-19.08 77.22,-28.61 119.79,-28.61 81.87,0 143.52,25.13 185.15,75.6 43.5,49.54 65.6,120.72 66.06,213.3l0 295.63c-0.15,57.47 -31.82,83 -127,81.19l0 -368.44c0,-54.9 -13.03,-97.23 -38.85,-126.77 -25.13,-30.94 -62.1,-46.28 -111.18,-46.28 -49.55,0 -91.65,16.04 -126.08,48.38 -34.66,32.1 -51.87,79.55 -51.87,141.66z"/>
    <path class="fil0" d="M6083.87 219.63l0 134.97 37.44 0c70.13,-0.93 98.26,32.99 99.33,113.04l-136.77 0 0 538.71c-79.6,0.8 -123.45,-19.32 -127,-106.5l0 -432.21 -23.83 0c-85.24,-0.89 -91.88,-54.76 -93.41,-113.04l117.24 0 0 -238.66c79.22,-1.69 122.68,22.14 127,103.68z"/>
   </g>
   <path class="fil2" d="M502.7 539.32c0.03,20.47 -0.02,49.76 4.28,68.75l15.33 73.9c11.71,33.33 32.03,91.62 49.45,118.39l33.82 43.52c5.12,6.59 6.36,11.71 12.49,17.52 15.41,14.62 29.39,33.76 47.66,45.14 10.87,6.78 8.7,7.64 16.51,13.21l16.66 13.21c12.94,10.53 44.75,26.1 59.98,32.59 15.38,6.55 27.46,14.31 42.83,19.35l70.52 20.02c79.29,17.41 88.56,6.9 141.95,15.39 -2.6,-13.16 -11.53,-15.34 -17.68,-24.71l-16.03 -21.44c-0.31,-0.47 -0.69,-1.1 -1.02,-1.56l-37 -47.75c-21.79,-34.72 -49.13,-60.26 -70.52,-94.67 -5.73,-9.22 -4.52,-7.59 -11.59,-15.95 -5.15,-6.08 -9.09,-10.13 -12.84,-14.65 -6.27,-7.56 -2.69,-8.18 -10.76,-16.75 -3.5,-3.71 -4.32,-3.5 -7.14,-8.07l-70.67 -93.59c-5.51,-10.45 -32.8,-38.32 -47.27,-63.02l-19.74 -23.09c-9.39,-8.78 -2.02,-6.31 -10.69,-16.59 -5.73,-6.82 -7.72,-6.44 -12.82,-14.71l-23.82 -31.06c-19.09,-25.4 -10.48,-19.68 13.69,-50.36l69.34 -95.71c7.35,-8.38 5.84,-9.32 11.11,-16.4l12.4 -14.89c11.84,-18.94 28.64,-35.37 40.64,-54.31 2.37,-3.74 4.46,-5.84 6.67,-8.48 8.67,-10.38 15.56,-21.54 24.49,-33.03 5.46,-7.03 6.02,-10.08 11.12,-16.42l24.5 -30.36c5.52,-9.24 9.47,-10 14.47,-17.9l35.15 -49.71c12.51,-20.34 46.9,-66.34 63.77,-83.92 2.92,-3.04 0.03,0.37 3.4,-4.1l19.64 -27.83c5.9,-8.49 16.72,-15.88 17.27,-26.39l-137.65 16.09c-17.68,4.72 -31.05,8.14 -46.4,15.97 -15.19,7.74 -32.12,10.45 -46.7,18.51 -20.98,11.6 -40.92,21.16 -59.89,34.79l-44.39 33.2c-5.95,5.66 -4.15,3.06 -10.3,7.15l-76 84c-16.18,19.14 -20.44,33.49 -24.36,38.27l-26.51 53.32c-18.18,42.8 -19.86,51.55 -30.23,97.09 -9.55,41.86 -7.23,92.06 -7.14,138.07z"/>
   <path class="fil3" d="M157.71 976.1l38.6 -51.11c4.36,-5.92 4.58,-7.86 9.37,-12.97l25.2 -32.14c2.45,-3.97 1.68,-2.73 5.4,-7.22l19.15 -25.73c5.18,-9.5 13.12,-15.46 19.71,-25.21 5.07,-7.49 14.22,-17.86 19.94,-25.22 4.94,-6.37 3.88,-7.35 8.99,-13.51 4.45,-5.36 9.14,-6.8 8.93,-16.33 -0.18,-8.18 -13.68,-22.63 -18.53,-29.14l-136.76 -182.92c-7.2,2.96 -14.83,18.57 -19.64,25.19l-39.7 50.27c-6.71,11.12 -13.21,17.4 -20.25,27.02l-8.71 13.98c-3.72,5.01 -7.33,7 -10.92,11.47 -7.09,8.86 -11.74,16.92 -20.22,27.05l-28.97 38.74c-4.46,5.66 -9.6,8.01 -9.24,15.65 0.49,10.5 -0.72,1.07 2.72,7.22l3.24 4.73c8.5,13.55 22.43,27.26 31.96,42.59l97.59 132.64c4.78,7.96 14.17,22.36 22.15,24.95z"/>
   <path class="fil3" d="M155.2 464.75c7.88,-3.1 15.96,-18.86 20.67,-25.01l66.45 -88.4c4.06,-5.97 5.92,-6.8 10.33,-11.96 4.07,-4.77 5.6,-8.3 9.74,-12.87 18.54,-20.46 19.59,-26.7 30.23,-39.69 33.34,-40.7 23.04,-28.73 -15.19,-84.54l-79.66 -105.07c-6.92,-8.9 -13.06,-17.69 -19.69,-27.89 -4.18,-6.44 -15.74,-22.54 -22.86,-25.14 -4.3,2.9 -1.95,1.4 -5.06,5.3l-43.54 59.1c-11.26,11.45 -29.87,42.33 -39.2,53.32l-29.54 37.92c-4.78,6.06 -4.78,4.04 -10,12.66 -17.54,28.98 -35.95,30.38 -24.12,48.14l11.14 16.8c0.33,0.44 0.8,0.99 1.12,1.42 22.28,29.59 61.79,79.42 79.54,108.07 4.93,7.95 4.99,6.4 10.33,11.7 8.04,7.97 3.56,5.61 9.26,13.24 4.31,5.77 7.34,6.66 10.76,11.63 3,4.35 6.67,10.06 9.01,13.64l15.05 19.84c0.33,0.42 0.73,1.04 1.04,1.47 0.33,0.44 0.73,1.09 1.04,1.53l3.18 4.8z"/>
   <path class="fil3" d="M235.07 514.06c-17.68,-0.36 -10.72,-5.1 -24.35,-4.33 -0.56,10.39 3.56,10.64 9.65,19.37l70.1 94.93c5.75,6.74 6.75,9.22 11.53,15.97 3.87,5.47 2.37,3.21 5.99,9.01 8.09,13.02 6.76,5.11 13.51,16.25l40.39 54.63c7.55,13.03 5.57,7.01 12.17,15.43 23.7,30.3 26.93,29.76 10.7,50.83 -4.54,5.89 -8.9,8 -13.06,14.13l-32.12 43.21c-0.33,0.4 -0.85,0.93 -1.18,1.32l-70.37 94.62c-1.59,1.97 -3.06,2.91 -5.76,6.85l-1.89 3.17c-0.28,0.47 -0.6,1.15 -0.89,1.6 -0.28,0.45 -0.62,1.12 -0.91,1.56 -0.29,0.44 -0.67,1.07 -0.97,1.48 -3.52,4.82 -7.49,7.32 -12.57,14.65 -9.1,13.16 -31.2,40.21 -31.91,47.48 35.68,3.04 67.5,-1.32 99.46,-12.18 0.62,-0.21 1.29,-0.4 1.89,-0.63l50.67 -26.98c23.33,-16.42 47.74,-39.51 63.77,-63.73 5.44,-8.22 18.47,-33.94 20.8,-41.47l16.2 -79.41c1.74,-25.57 -0.63,-64.5 -6.91,-88.31l-13.87 -49.1c-4.28,-14.59 -33.99,-47.35 -39.74,-57.61 -7.57,-13.52 -2.4,-6.36 -15.84,-14.48 -7.04,-4.25 -9.67,-9.85 -16.75,-15.8 -5.77,-4.85 -13.36,-9.28 -18.96,-13.28 -11.77,-8.42 -18.83,-8.51 -32.2,-15.67 -29.5,-15.79 -24.59,-11.14 -57.75,-19.69 -14.3,-3.68 -9.99,-3.42 -28.84,-3.8z"/>
   <path class="fil3" d="M212.53 504.29l45.13 0.36 63.45 -16.57c18.65,-5.69 26.47,-11.71 41.88,-20.92l18.77 -13.78c6.54,-7.06 9.29,-10.09 16.05,-16.4 32.2,-30.12 61.49,-79.68 63.44,-124.98 1.64,-38.07 4.63,-9.5 4.62,-59.98 -0.01,-18.22 -0.92,-42.63 -4.81,-58.44 -3.86,-15.65 -10.82,-33.92 -15.31,-47.09 -3.97,-11.66 -15.13,-28.12 -22.89,-39.49 -5.77,-8.44 -22.02,-27.41 -30.62,-34.3 -16.95,-13.57 -13.63,-13.71 -35.27,-27.54 -9.14,-5.84 -10.08,-8.47 -19.04,-13.18 -5.78,-3.04 -15.44,-8.1 -21.92,-10.51l-37.96 -14.05c-4.58,-1.37 -2.37,-0.79 -7.9,-1.69 -18.09,-2.95 -44.84,-1.75 -59.4,-5.73 0.94,12.1 13.09,20.1 21,30.41l11.23 16.32c3.8,5.48 7.63,11.35 11.04,16.56l52.03 70.47c10.16,16.18 18.57,24.07 29.42,38.03l58.32 79.69c5.12,14.16 -10.76,23.81 -17.28,31.71 -16.27,19.69 -15.49,21.82 -22.98,32.14l-123.69 163.64c-5.29,6.57 -13.58,13.09 -17.29,25.33z"/>
  </g>
 </g>
</svg>
