<?xml version="1.0" encoding="UTF-8"?>
<!DOCTYPE svg PUBLIC "-//W3C//DTD SVG 1.1//EN" "http://www.w3.org/Graphics/SVG/1.1/DTD/svg11.dtd">
<!-- Creator: CorelDRAW 2018 (64-Bit Evaluation Version) -->
<svg xmlns="http://www.w3.org/2000/svg" xml:space="preserve" width="158.75mm" height="158.75mm" version="1.1" style="shape-rendering:geometricPrecision; text-rendering:geometricPrecision; image-rendering:optimizeQuality; fill-rule:evenodd; clip-rule:evenodd"
viewBox="0 0 15875 15875"
 xmlns:xlink="http://www.w3.org/1999/xlink">
 <defs>
  <style type="text/css">
   <![CDATA[
    .fil0 {fill:none}
    .fil1 {fill:url(#id0)}
   ]]>
  </style>
  <linearGradient id="id0" gradientUnits="userSpaceOnUse" x1="13952.05" y1="14174.46" x2="1117.45" y2="1880.96">
   <stop offset="0" style="stop-opacity:1; stop-color:#3B9CFF"/>
   <stop offset="1" style="stop-opacity:1; stop-color:#FBD13E"/>
  </linearGradient>
 </defs>
 <g id="Layer_x0020_1">
  <metadata id="CorelCorpID_0Corel-Layer"/>
  <rect class="fil0" x="0" y="-0" width="15875" height="15875.01"/>
  <path class="fil1" d="M11461.79 900.6c369.66,0 669.43,295.89 669.43,660.87 0,364.97 -299.77,660.86 -669.43,660.86 -369.7,0 -669.47,-295.89 -669.47,-660.86 0,-364.98 299.77,-660.87 669.47,-660.87zm-3448.5 1407.61l-5.11 647.3c-0.18,25.29 -20.95,45.96 -46.36,45.96l-829.16 0c-25.43,0 -46.05,-20.77 -46.35,-45.96l-3.36 -261.72 -16.58 -1194.01c-2.53,-268.24 106.96,-384.35 383.41,-380.13l2498.32 0.4c192.36,-647.45 796.29,-1120.05 1511.57,-1120.05 870.17,0 1575.58,699.45 1575.58,1562.21 0,862.77 -705.41,1562.21 -1575.58,1562.21 -707.62,0 -1306.13,-462.51 -1505.1,-1099.27l-1594.1 0c-277.25,4.49 -347.56,75.92 -347.18,283.06zm887.74 9586.01l-299.67 -770.45c-230.27,52.2 -470.01,79.85 -716.23,79.85 -295.17,0 -580.91,-39.8 -852.26,-114.01l-343.6 780.91c-30.64,69.66 -112.88,101.63 -182.93,71.32l-642.72 -277.97c-70.06,-30.31 -102.35,-111.8 -71.74,-181.51l348.38 -791.84c-441.23,-285.17 -807.08,-675.37 -1061.52,-1134.82l-834.4 323.14c-71.39,27.67 -152.27,-7.56 -180.13,-78.14l-255.05 -647.59c-27.83,-70.58 7.6,-150.8 79.01,-178.5l857.12 -331.96c-38.99,-197.81 -59.56,-402.12 -59.56,-611.23 0,-296.28 41.09,-583.05 117.71,-855.09l-860.93 -372.98c-70.25,-30.5 -102.43,-112.01 -71.83,-181.45l280.73 -637.09c30.59,-69.46 112.82,-101.41 183.06,-71l874.51 378.81c281.68,-425.37 663.76,-779.44 1112.79,-1029.34l-342.99 -881.82c-27.56,-70.98 8.27,-151 79.58,-178.28l654.21 -250.17c71.31,-27.26 152.09,8.19 179.68,79.12l346.85 891.71c208.65,-42.46 424.73,-64.72 646.03,-64.72 268.67,0 529.56,33.05 778.87,94.88l374.91 -852.16c30.62,-69.68 112.98,-101.56 182.94,-71.35l642.76 278c69.99,30.26 102.38,111.87 71.71,181.53l-370.38 841.88c424.86,260.61 783.54,617.06 1045.52,1038.9l841.21 -325.74c71.41,-27.68 152.3,7.65 180.13,78.1l255.13 647.65c27.78,70.51 -7.65,150.85 -79.08,178.53l-818.26 316.87c61.24,245.09 93.93,501.35 93.93,765.21 0,264.06 -32.77,520.47 -94.08,765.73l785.81 340.43c70.26,30.41 102.45,112.14 71.86,181.43l-280.75 637.16c-30.6,69.34 -112.83,101.47 -183.06,71.01l-773.01 -334.89c-273.14,439.88 -651.64,808.53 -1100.54,1071.65l303.78 780.95c27.58,70.93 -8.35,151.05 -79.58,178.28l-654.24 250.18c-71.24,27.2 -152.12,-8.18 -179.68,-79.13zm-1052.54 -6132.08c1226.03,0 2219.91,985.44 2219.91,2201.09 0,1215.56 -993.88,2201.01 -2219.91,2201.01 -1225.99,0 -2219.87,-985.45 -2219.87,-2201.01 0,-1215.65 993.88,-2201.09 2219.87,-2201.09zm5448.59 2701.76l-652.83 -5.07c-25.51,-0.17 -46.36,-20.77 -46.36,-45.96l0 -822.12c0,-25.22 20.95,-45.67 46.36,-45.96l263.96 -3.33 1204.23 -16.45c270.53,-2.51 387.64,106.06 383.38,380.16l-0.4 2924.23 1269.47 1258.72c146.86,145.61 146.76,383.51 0.03,529l-1479.39 1466.86c-146.73,145.48 -386.7,145.58 -533.58,-0.03l-1479.34 -1466.78c-146.83,-145.59 -146.75,-383.56 -0.02,-529.02l1309.98 -1298.87 0 -1981.15c-4.53,-274.89 -76.57,-344.61 -285.49,-344.23zm-7.21 3856.71l694.4 -688.52c19.1,-18.95 50.39,-18.93 69.39,-0.05l693.2 689.84c18.99,18.85 19.04,49.93 0,68.81l-694.43 688.49c-19.07,18.91 -50.37,18.98 -69.41,0.03l-693.2 -689.83c-18.99,-18.89 -19.07,-49.87 0.05,-68.77zm-10962.03 -5194.51l652.84 5.07c25.51,0.17 46.36,20.76 46.36,45.96l0 822.12c0,25.21 -20.95,45.66 -46.36,45.96l-263.96 3.33 -1204.23 16.44c-270.53,2.51 -387.64,-106.05 -383.38,-380.15l0.4 -2576.65 -697.07 0.1c-237.75,0 -432.44,-184.66 -432.44,-420.7l0 -2377.78c0,-236.01 194.61,-428.84 432.44,-428.84l2398.28 0c237.83,0 432.42,192.83 432.42,428.84l0 2377.78c0,235.94 -194.51,420.77 -432.22,420.77l-788.57 0 0 1673.52c4.54,274.89 76.57,344.6 285.49,344.23zm-1301.39 -4347.3l1211.57 0c62.54,0 113.8,50.95 113.7,112.62l-1.85 1014.08c-0.08,61.64 -51.42,112.67 -113.71,112.67l-1211.56 0c-62.34,0 -113.83,-50.78 -113.71,-112.67l1.86 -1014.08c0.12,-61.84 51.14,-112.62 113.7,-112.62zm6003.79 10592.37l0 -335.19 -0.43 -233.16c-0.03,-26.01 21.45,-47.23 47.68,-47.28l815.48 -1.46c26.23,-0.05 47.68,21.34 47.68,47.28l0 21.01 0 182.28 0 897.9c2.53,268.23 -122.4,662.52 -398.84,658.3l-2914.31 7.68 0 917.89c1.8,493.29 -318.49,450.79 -652.34,235.82l-2250.14 -1312.76c-275.97,-194.1 -285.69,-445.62 11.55,-631.52l2225.14 -1312.22c357.77,-226.49 669.82,-104.11 665.79,288.41l0 905.8 2055.56 -5.72c277.24,-4.49 347.55,-75.92 347.18,-283.06zm-4047.23 723.29l726.23 -426.91 0 853.85 -726.23 -426.94z"/>
 </g>
</svg>
