<?xml version="1.0" encoding="UTF-8"?>
<!DOCTYPE svg PUBLIC "-//W3C//DTD SVG 1.1//EN" "http://www.w3.org/Graphics/SVG/1.1/DTD/svg11.dtd">
<!-- Creator: CorelDRAW 2018 (64-Bit Evaluation Version) -->
<svg xmlns="http://www.w3.org/2000/svg" xml:space="preserve" width="158.75mm" height="158.75mm" version="1.1" style="shape-rendering:geometricPrecision; text-rendering:geometricPrecision; image-rendering:optimizeQuality; fill-rule:evenodd; clip-rule:evenodd"
viewBox="0 0 15875 15875"
 xmlns:xlink="http://www.w3.org/1999/xlink">
 <defs>
  <style type="text/css">
   <![CDATA[
    .fil0 {fill:none}
    .fil1 {fill:#F56F45}
   ]]>
  </style>
 </defs>
 <g id="Layer_x0020_1">
  <metadata id="CorelCorpID_0Corel-Layer"/>
  <rect class="fil0" x="0" y="-0" width="15875" height="15875.01"/>
  <path class="fil1" d="M7632.91 9792.84l0 -2242.26 -4956.49 0 0 2242.26 1739.85 0c178.97,0 325.39,146.42 325.39,325.4l0 3638.15c0,178.98 -146.42,325.4 -325.39,325.4l-4090.88 0c-178.97,0 -325.39,-146.42 -325.39,-325.4l0 -3638.15c0,-178.98 146.42,-325.4 325.39,-325.4l1739.87 0 0 -2359.37 0 -161.93c-0.77,-8.77 -1.18,-17.59 -1.18,-26.54l0 0c0,-168.08 137.55,-305.58 305.6,-305.58l5263.23 0 0 -857.26 -1739.86 0c-178.98,0 -325.4,-146.42 -325.4,-325.4l0 -3638.15c0,-178.97 146.42,-325.39 325.4,-325.39l4090.87 0c178.97,0 325.39,146.42 325.39,325.39l0 3638.15c0,178.98 -146.42,325.4 -325.39,325.4l-1739.85 0 0 857.26 5263.22 0c168.05,0 305.59,137.5 305.59,305.58l0 0c0,14.74 -1.06,29.22 -3.12,43.41l0 2504.43 1739.85 0c178.97,0 325.39,146.42 325.39,325.4l0 3638.15c0,178.98 -146.42,325.4 -325.39,325.4l-4090.88 0c-178.97,0 -325.39,-146.42 -325.39,-325.4l0 -3638.15c0,-178.98 146.42,-325.4 325.39,-325.4l1739.87 0 0 -2242.26 -4954.53 0 0 2242.26 1743.53 0c178.97,0 325.39,146.42 325.39,325.4l0 3638.15c0,178.98 -146.42,325.4 -325.39,325.4l-4090.88 0c-178.97,0 -325.39,-146.42 -325.39,-325.4l0 -3638.15c0,-178.98 146.42,-325.4 325.39,-325.4l1736.19 0zm4342.6 615.61l3057.32 0c127.09,0 231.01,103.94 231.01,231.01l0 2595.73c0,127.06 -103.92,231.01 -231.01,231.01l-3057.32 0c-127.07,0 -231.01,-103.95 -231.01,-231.01l0 -2595.73c0,-127.07 103.94,-231.01 231.01,-231.01zm-5562.01 0l3057.32 0c127.09,0 231.01,103.94 231.01,231.01l0 2595.73c0,127.06 -103.92,231.01 -231.01,231.01l-3057.32 0c-127.07,0 -231.01,-103.95 -231.01,-231.01l0 -2595.73c0,-127.07 103.94,-231.01 231.01,-231.01zm-5571.33 0l3057.32 0c127.09,0 231.01,103.94 231.01,231.01l0 2595.73c0,127.06 -103.92,231.01 -231.01,231.01l-3057.32 0c-127.07,0 -231.01,-103.95 -231.01,-231.01l0 -2595.73c0,-127.07 103.94,-231.01 231.01,-231.01zm5567.65 -7999.63l3057.32 0c127.09,0 231.01,103.95 231.01,231.01l0 2595.73c0,127.07 -103.92,231.01 -231.01,231.01l-3057.32 0c-127.06,0 -231.01,-103.94 -231.01,-231.01l0 -2595.73c0,-127.06 103.95,-231.01 231.01,-231.01z"/>
 </g>
</svg>
