<?xml version="1.0" encoding="UTF-8"?>
<!DOCTYPE svg PUBLIC "-//W3C//DTD SVG 1.1//EN" "http://www.w3.org/Graphics/SVG/1.1/DTD/svg11.dtd">
<!-- Creator: CorelDRAW 2018 (64-Bit Evaluation Version) -->
<svg xmlns="http://www.w3.org/2000/svg" xml:space="preserve" width="158.75mm" height="158.75mm" version="1.1" style="shape-rendering:geometricPrecision; text-rendering:geometricPrecision; image-rendering:optimizeQuality; fill-rule:evenodd; clip-rule:evenodd"
viewBox="0 0 15875 15875.01"
 xmlns:xlink="http://www.w3.org/1999/xlink">
 <defs>
  <style type="text/css">
   <![CDATA[
    .fil1 {fill:none}
    .fil0 {fill:url(#id0)}
   ]]>
  </style>
  <linearGradient id="id0" gradientUnits="userSpaceOnUse" x1="12748.26" y1="15656.94" x2="2624.97" y2="636.43">
   <stop offset="0" style="stop-opacity:1; stop-color:#FBD13E"/>
   <stop offset="1" style="stop-opacity:1; stop-color:#3B9CFF"/>
  </linearGradient>
 </defs>
 <g id="Layer_x0020_1">
  <metadata id="CorelCorpID_0Corel-Layer"/>
  <path class="fil0" d="M2758.08 2352.13l-965.8 -1.32c-534.22,-13.79 -851.6,391.67 -836.1,1072.49l-0.41 8832.01c21.73,967.79 384.35,1310 1277.95,1302.14l2220.67 1.85 0.49 1210.81c0.27,657.42 354.88,1096.43 1371.14,1104.88l8016.21 0c1345.35,4.59 1444.88,-1868.87 217.32,-1973.27l3.88 -11469.26c0.46,-1239.35 -629.87,-2419.91 -1981.96,-2426.88l-8005.4 0.59c-1078.19,-63.49 -1317.99,369.15 -1317.99,1080.09l0 1265.87zm4076.63 12046.62l7110.96 0c282.25,0 476.81,233.55 476.81,515.78l0 0.02c0,282.2 -195.26,462.71 -477.46,462.71l-7110.31 0c-282.22,0 -513.16,-183.09 -513.16,-465.34l0 -0.01c0,-282.25 230.91,-513.16 513.16,-513.16zm-4076.63 -11063.46l0 9195.86c0,723.06 -1305.09,681.17 -1304.58,34.94l7.3 -9231.21c0.49,-619.84 1297.28,-597.2 1297.28,0.41zm1697.28 -2269.87l-1.41 11496.05c-0.07,677.68 -1215.51,682.49 -1215.51,-46.47l0 -11340.27c0,-885.13 1217,-875.71 1216.92,-109.31zm1682.72 -562.11c-543.89,-22.61 -1185.36,96.68 -1200.84,621.75l-7.31 13248.87 2.43 389.5c5.15,822.22 888.8,814.6 891.95,-1.48 -2.23,-406.14 331.79,-860.23 842.9,-860.23l6120.38 0c515.38,0 773.98,-154.31 774.09,-648.97l1.36 -10772.57c-3.4,-1065.66 -434.43,-1982.8 -1539.17,-1976.87l-5885.79 0zm174.7 4902.31l5644.38 0c134.44,0 244.35,57.68 244.35,128.19l0 270.05c0,70.52 -109.91,128.19 -244.35,128.19l-5644.38 0c-134.43,0 -244.34,-57.67 -244.34,-128.19l0 -270.05c0,-70.51 109.91,-128.19 244.34,-128.19zm0 1053.23l5644.38 0c134.44,0 244.35,57.68 244.35,128.2l0 270.04c0,70.52 -109.91,128.2 -244.35,128.2l-5644.38 0c-134.43,0 -244.34,-57.68 -244.34,-128.2l0 -270.04c0,-70.52 109.91,-128.2 244.34,-128.2zm0 1050.61l5644.38 0c134.44,0 244.35,57.68 244.35,128.2l0 270.04c0,70.52 -109.91,128.2 -244.35,128.2l-5644.38 0c-134.43,0 -244.34,-57.68 -244.34,-128.2l0 -270.04c0,-70.52 109.91,-128.2 244.34,-128.2zm0 1051.93l5644.38 0c134.44,0 244.35,57.68 244.35,128.19l0 270.05c0,70.51 -109.91,128.19 -244.35,128.19l-5644.38 0c-134.43,0 -244.34,-57.68 -244.34,-128.19l0 -270.05c0,-70.51 109.91,-128.19 244.34,-128.19z"/>
  <rect class="fil1" x="0" y="-0" width="15875" height="15875.01"/>
 </g>
</svg>
