<?xml version="1.0" encoding="UTF-8"?>
<!DOCTYPE svg PUBLIC "-//W3C//DTD SVG 1.1//EN" "http://www.w3.org/Graphics/SVG/1.1/DTD/svg11.dtd">
<!-- Creator: CorelDRAW 2018 (64-Bit Evaluation Version) -->
<svg xmlns="http://www.w3.org/2000/svg" xml:space="preserve" width="158.75mm" height="158.75mm" version="1.1" style="shape-rendering:geometricPrecision; text-rendering:geometricPrecision; image-rendering:optimizeQuality; fill-rule:evenodd; clip-rule:evenodd"
viewBox="0 0 15875 15875"
 xmlns:xlink="http://www.w3.org/1999/xlink">
 <defs>
  <style type="text/css">
   <![CDATA[
    .fil0 {fill:none}
    .fil1 {fill:#FBD13E}
   ]]>
  </style>
 </defs>
 <g id="Layer_x0020_1">
  <metadata id="CorelCorpID_0Corel-Layer"/>
  <rect class="fil0" x="0" y="-0" width="15875" height="15875.01"/>
  <g>
   <path class="fil1" d="M7006.31 5868.71l3659.58 0c77.3,0 140.7,63.32 140.7,140.75l0 321.12c0,77.42 -63.4,140.75 -140.7,140.75l-3659.58 0c-77.3,0 -140.7,-63.33 -140.7,-140.75l0 -321.12c0,-77.43 63.4,-140.75 140.7,-140.75zm0 3106.55l3659.58 0c77.3,0 140.7,63.32 140.7,140.75l0 321.12c0,77.42 -63.4,140.75 -140.7,140.75l-3659.58 0c-77.3,0 -140.7,-63.33 -140.7,-140.75l0 -321.12c0,-77.43 63.4,-140.75 140.7,-140.75zm0 3106.55l3659.58 0c77.3,0 140.7,63.32 140.7,140.75l0 321.12c0,77.42 -63.4,140.75 -140.7,140.75l-3659.58 0c-77.3,0 -140.7,-63.33 -140.7,-140.75l0 -321.12c0,-77.43 63.4,-140.75 140.7,-140.75zm-3084.24 -11023.88l8032.16 0c336.27,0 610.72,274.74 610.72,610.99l0 13594.7c0,336.28 -275.1,611.38 -611.37,611.38l-8032.16 0c-336.27,0 -611.38,-275.1 -611.38,-611.38l0 -13594.7c0,-336.27 275.76,-610.99 612.03,-610.99zm520.77 608.11l1267.65 0 5722.55 0c292.63,0 532.05,239.42 532.05,532.03l0 12549.82c0,292.65 -239.42,532.06 -532.05,532.06l-6990.2 0c-292.63,0 -532.04,-239.41 -532.04,-532.06l0 -12549.82c0,-292.61 239.41,-532.03 532.04,-532.03zm2683.47 -608.11c88.82,-280.45 350.91,-482.66 660.8,-482.66 312.65,0 574.22,197.92 660.69,482.28l-1321.49 0.38zm-590.46 0c100.15,-600.57 622.25,-1057.93 1251.26,-1057.93 634.32,0 1157.35,449.55 1251.18,1057.55l-2502.44 0.38zm3628.46 609.24l-11.99 757.16c-3.9,246.56 -201.8,448.37 -448.39,448.37l-3556.88 0c-246.59,0 -452.28,-201.79 -448.38,-448.37l12 -759.77 4453.64 2.61zm-596.71 -3.09l0 2.58 -12 240.54c-9.95,199.82 -163.71,363.78 -363.78,363.78l-2530.01 0c-200.07,0 -373.77,-163.95 -363.78,-363.78l11.99 -240.12 3257.58 -3zm-3182.03 3431.01l463.79 378.39 -1425.52 1771.49 -1030.64 -975.67 425.86 -447.01 545.6 533.3 1020.91 -1260.5zm0 3106.55l463.79 378.39 -1425.52 1771.49 -1030.64 -975.67 425.86 -447.01 545.6 533.3 1020.91 -1260.5zm0 3106.55l463.79 378.39 -1425.52 1771.49 -1030.64 -975.67 425.86 -447.01 545.6 533.3 1020.91 -1260.5z"/>
  </g>
 </g>
</svg>
