<?xml version="1.0" encoding="UTF-8"?>
<!DOCTYPE svg PUBLIC "-//W3C//DTD SVG 1.1//EN" "http://www.w3.org/Graphics/SVG/1.1/DTD/svg11.dtd">
<!-- Creator: CorelDRAW 2018 (64-Bit Evaluation Version) -->
<svg xmlns="http://www.w3.org/2000/svg" xml:space="preserve" width="158.75mm" height="158.75mm" version="1.1" style="shape-rendering:geometricPrecision; text-rendering:geometricPrecision; image-rendering:optimizeQuality; fill-rule:evenodd; clip-rule:evenodd"
viewBox="0 0 15875 15875"
 xmlns:xlink="http://www.w3.org/1999/xlink">
 <defs>
  <style type="text/css">
   <![CDATA[
    .fil0 {fill:none}
    .fil1 {fill:#3B9CFF}
   ]]>
  </style>
 </defs>
 <g id="Layer_x0020_1">
  <metadata id="CorelCorpID_0Corel-Layer"/>
  <rect class="fil0" x="0" y="-0" width="15875" height="15875.01"/>
  <path class="fil1" d="M518.92 2477.54l0 -0.02c0,-142.99 116.98,-259.97 259.97,-259.97l14321.12 0c142.98,0 259.97,116.98 259.97,259.97l0 0.02c0,142.99 -116.99,259.97 -259.97,259.97l-14321.12 0c-142.99,0 -259.97,-116.98 -259.97,-259.97zm11723.68 3900.89l-34.06 40.51 -1.33 -0.96c-432.65,-313.69 -1097.37,-595.94 -1672.74,-595.94 -1464.61,0 -2651.93,1187.34 -2651.93,2651.93 0,1464.6 1187.32,2651.93 2651.93,2651.93 1464.61,0 2651.93,-1187.32 2651.93,-2651.93 0,-630.45 -220.04,-1209.48 -587.47,-1664.58l-331.21 412.01c308.29,401.67 403.88,768.03 387.5,1249.12 -40.37,1185.73 -936.08,2155.78 -2109.79,2122.87 -1173.72,-32.9 -2089.11,-1042.34 -2122,-2150.28 -32.88,-1107.94 984.91,-2150.63 2092.84,-2095.81 509.47,25.21 985.49,194.01 1373.12,466.91l-1345.11 1667.53 -834.51 -815.66 -389.45 408.79 1278.08 1220.22 2275.61 -2827.87 -424.15 -346.04 -207.25 257.27 -0.01 -0.02zm-11233.99 -4711.98l13857.78 0c554.75,0 1008.61,453.86 1008.61,1008.61l0 10524.9c0,554.75 -453.86,1008.61 -1008.61,1008.61l-13857.78 0c-554.75,0 -1008.61,-453.86 -1008.61,-1008.61l0 -10524.9c0,-554.75 453.86,-1008.61 1008.61,-1008.61zm433.69 1597.39l12989.88 0c508.73,0 924.93,416.23 924.93,924.92l0 8577.08c0,508.69 -416.24,924.93 -924.93,924.93l-12989.88 0c-508.69,0 -924.92,-416.21 -924.92,-924.93l0 -8577.08c0,-508.72 416.2,-924.92 924.92,-924.92zm2257.88 3148.16l3100.12 0c73.84,0 134.21,60.38 134.21,134.2l0 282.7c0,73.82 -60.37,134.2 -134.21,134.2l-3100.12 0c-73.84,0 -134.21,-60.38 -134.21,-134.2l0 -282.7c0,-73.82 60.37,-134.2 134.21,-134.2zm-1003.33 0l316.57 0c73.84,0 134.23,60.38 134.23,134.2l0 282.7c0,73.82 -60.39,134.2 -134.23,134.2l-316.57 0c-73.84,0 -134.22,-60.38 -134.22,-134.2l0 -282.7c0,-73.82 60.38,-134.2 134.22,-134.2zm1003.33 1102.59l3100.12 0c73.84,0 134.21,60.38 134.21,134.2l0 282.7c0,73.82 -60.37,134.2 -134.21,134.2l-3100.12 0c-73.84,0 -134.21,-60.38 -134.21,-134.2l0 -282.7c0,-73.82 60.37,-134.2 134.21,-134.2zm-1003.33 0l316.57 0c73.84,0 134.23,60.38 134.23,134.2l0 282.7c0,73.82 -60.39,134.2 -134.23,134.2l-316.57 0c-73.84,0 -134.22,-60.38 -134.22,-134.2l0 -282.7c0,-73.82 60.38,-134.2 134.22,-134.2zm1003.33 1099.83l3100.12 0c73.84,0 134.21,60.39 134.21,134.21l0 282.69c0,73.83 -60.37,134.21 -134.21,134.21l-3100.12 0c-73.84,0 -134.21,-60.38 -134.21,-134.21l0 -282.69c0,-73.82 60.37,-134.21 134.21,-134.21zm-1003.33 0l316.57 0c73.84,0 134.23,60.39 134.23,134.21l0 282.69c0,73.83 -60.39,134.21 -134.23,134.21l-316.57 0c-73.84,0 -134.22,-60.38 -134.22,-134.21l0 -282.69c0,-73.82 60.38,-134.21 134.22,-134.21zm1003.33 1101.22l3100.12 0c73.84,0 134.21,60.38 134.21,134.2l0 282.7c0,73.82 -60.37,134.2 -134.21,134.2l-3100.12 0c-73.84,0 -134.21,-60.38 -134.21,-134.2l0 -282.7c0,-73.82 60.37,-134.2 134.21,-134.2zm-1003.33 0l316.57 0c73.84,0 134.23,60.38 134.23,134.2l0 282.7c0,73.82 -60.39,134.2 -134.23,134.2l-316.57 0c-73.84,0 -134.22,-60.38 -134.22,-134.2l0 -282.7c0,-73.82 60.38,-134.2 134.22,-134.2z"/>
 </g>
</svg>
