<?xml version="1.0" encoding="UTF-8"?>
<!DOCTYPE svg PUBLIC "-//W3C//DTD SVG 1.1//EN" "http://www.w3.org/Graphics/SVG/1.1/DTD/svg11.dtd">
<!-- Creator: CorelDRAW 2018 (64-Bit Evaluation Version) -->
<svg xmlns="http://www.w3.org/2000/svg" xml:space="preserve" width="35.8775mm" height="35.6659mm" version="1.1" style="shape-rendering:geometricPrecision; text-rendering:geometricPrecision; image-rendering:optimizeQuality; fill-rule:evenodd; clip-rule:evenodd"
viewBox="0 0 1269.15 1261.66"
 xmlns:xlink="http://www.w3.org/1999/xlink">
 <defs>
  <style type="text/css">
   <![CDATA[
    .fil0 {fill:#00C2FF}
    .fil2 {fill:#3B9CFF}
    .fil1 {fill:#FFFFFF;}
   ]]>
  </style>
 </defs>
 <g id="Layer_x0020_1">
  <metadata id="CorelCorpID_0Corel-Layer"/>
  <path class="fil0" d="M359.41 0l550.34 0c197.67,0 359.41,161.73 359.41,359.41l0 542.85c0,197.67 -161.73,359.41 -359.41,359.41l-550.34 0c-197.67,0 -359.41,-161.73 -359.41,-359.41l0 -542.85c0,-197.67 161.73,-359.41 359.41,-359.41zm641.38 655.35l-44.97 0 -102.38 104.83 147.35 0c28.31,0 51.48,-23.16 51.48,-51.48l0 -1.87c0,-28.31 -23.16,-51.48 -51.48,-51.48zm-191.23 0l-378.77 0c-2.95,0 -5.84,0.25 -8.65,0.74l62.32 -62.32 -147.61 0 -109.49 110.4 229.47 234.96c19.95,20.16 52.89,20.06 72.95,-0l1.33 -1.33c20.06,-20.06 19.97,-52.79 0,-72.95l-103.72 -104.78c1.12,0.07 2.25,0.12 3.39,0.12l327.65 0c-10.98,-19.62 -8.09,-45.01 8.48,-61.75l42.64 -43.08zm-275.61 -166.42c-2.12,-3.53 -4.69,-6.86 -7.72,-9.89l-1.33 -1.33c-20.06,-20.06 -52.97,-20.15 -72.95,-0l-11.13 11.22 93.13 0z"/>
  <path class="fil1" d="M297.25 488.94l570 0c2.95,0 5.84,0.25 8.65,0.74l-104.09 -104.09c-20.06,-20.06 -20.06,-52.89 0,-72.95l1.33 -1.33c20.06,-20.06 52.97,-20.15 72.95,-0l224.58 226.45 -229.47 234.96c-19.95,20.16 -52.89,20.06 -72.95,-0l-1.33 -1.33c-20.06,-20.06 -19.97,-52.79 -0,-72.95l103.72 -104.78c-1.12,0.07 -2.25,0.12 -3.39,0.12l-570 0c-28.31,0 -51.48,-23.16 -51.48,-51.48l0 -1.87c0,-28.31 23.16,-51.48 51.48,-51.48z"/>
  <path class="fil2" d="M1000.78 655.35l-44.97 0 -102.38 104.83 147.35 0c28.31,0 51.48,-23.16 51.48,-51.48l0 -1.87c0,-28.31 -23.16,-51.48 -51.48,-51.48zm-191.23 0l-378.77 0c-2.95,0 -5.84,0.25 -8.65,0.74l62.32 -62.32 -147.61 0 -109.49 110.4 229.47 234.96c19.95,20.16 52.89,20.06 72.95,-0l1.33 -1.33c20.06,-20.06 19.97,-52.79 0,-72.95l-103.72 -104.78c1.12,0.07 2.25,0.12 3.39,0.12l327.65 0c-10.98,-19.62 -8.09,-45.01 8.48,-61.75l42.64 -43.08zm-275.61 -166.42c-2.12,-3.53 -4.69,-6.86 -7.72,-9.89l-1.33 -1.33c-20.06,-20.06 -52.97,-20.15 -72.95,-0l-11.13 11.22 93.13 0z"/>
 </g>
</svg>
