<?xml version="1.0" encoding="UTF-8"?>
<!DOCTYPE svg PUBLIC "-//W3C//DTD SVG 1.1//EN" "http://www.w3.org/Graphics/SVG/1.1/DTD/svg11.dtd">
<!-- Creator: CorelDRAW 2018 (64-Bit Evaluation Version) -->
<svg xmlns="http://www.w3.org/2000/svg" xml:space="preserve" width="440.267mm" height="321.733mm" version="1.1" style="shape-rendering:geometricPrecision; text-rendering:geometricPrecision; image-rendering:optimizeQuality; fill-rule:evenodd; clip-rule:evenodd"
viewBox="0 0 44026.66 32173.34"
 xmlns:xlink="http://www.w3.org/1999/xlink">
 <defs>
  <style type="text/css">
   <![CDATA[
    .str0 {stroke:#3B9CFF;stroke-width:84.67;stroke-miterlimit:22.9256}
    .fil6 {fill:none}
    .fil8 {fill:#070708}
    .fil7 {fill:#FBE408}
    .fil5 {fill:#3B9CFF;fill-rule:nonzero}
    .fil11 {fill:#3B9CFF;fill-opacity:0.188235}
    .fil0 {fill:#5AEEBC;fill-opacity:0.188235}
    .fil3 {fill:#5AEEBC;fill-opacity:0.231373}
    .fil2 {fill:#3B9CFF;fill-opacity:0.231373}
    .fil1 {fill:#99D2FF;fill-opacity:0.231373}
    .fil4 {fill:#E6E7E8;fill-opacity:0.231373}
    .fil10 {fill:#5AEEBC;fill-opacity:0.431373}
    .fil12 {fill:white;fill-opacity:0.529412}
    .fil9 {fill:white;fill-opacity:0.768627}
   ]]>
  </style>
 </defs>
 <g id="Layer_x0020_1">
  <metadata id="CorelCorpID_0Corel-Layer"/>
  <g id="_2102854438928">
   <polygon class="fil0" points="-0,0 44026.66,0 44026.66,32173.34 -0,32173.34 "/>
   <g>
    <path class="fil1" d="M18235.56 18310.44l17338.28 0 0 10891.99c0,683.94 -559.58,1243.52 -1243.52,1243.52l-14851.24 0c-683.94,0 -1243.52,-559.58 -1243.52,-1243.52l0 -10891.99z"/>
    <polygon class="fil2" points="26905.99,5255.2 35579.93,5255.2 35579.93,18307.98 26905.99,18307.98 "/>
    <polygon class="fil3" points="18245.28,5255.2 26919.22,5255.2 26919.22,18307.98 18245.28,18307.98 "/>
    <g>
     <path class="fil2" d="M21352.99 14130.23c755.32,-234.06 991.87,887.65 326.98,1070.44 -722.97,198.75 -1035.53,-850.87 -326.98,-1070.44zm2893.69 12.33c715.5,-247.41 988.92,843.12 363.66,1058.6 -704.58,242.82 -1112.52,-799.64 -363.66,-1058.6zm-1745.94 351.82c-892.38,0 315.43,-652.84 451.37,-716.81 177.75,72.21 292.61,168.35 451,270.2 457.57,294.21 340.31,161.59 321.82,387.32 -222.81,124.63 -934.15,59.28 -1224.19,59.29zm1396.1 -1399.47l-374.15 2.49 -577.07 387.92 -554.25 -384.6 -370.08 -6.03c290.57,272.5 590.31,352.09 696.03,556.77 -749.58,606.31 -689.08,430.45 -939.46,334.13 -1058.19,-407.09 -1410.02,1325.89 -344.61,1412.96 684.63,55.94 774.23,-557.1 854.55,-705.11l1341.38 -1.42c207.94,335 175.32,720.71 789.2,717.34 1086.22,-5.98 865.09,-1730.74 -195.62,-1443.01 -212.41,57.62 -271.64,359.82 -1002.98,-314.89 131.64,-273.96 496,-354.27 677.06,-556.55z"/>
     <path class="fil2" d="M22021.29 13094.69l370.08 6.03 1131.32 -3.32 374.15 -2.49c618.66,-129.89 805.22,-102.21 1272.68,-442.99 341.7,-249.11 553.67,-623.61 486.01,-1259.06l-2045.09 -3.19c-171.59,102.04 -62.13,-13.26 -155.74,173.37l1896.1 12.92c134.18,1248.96 -1304.31,1303.21 -2398.69,1302.61 -1097.74,-0.59 -2520.59,-55.44 -2393.97,-1290.79l2276.94 -26.21 -152.75 -172.16 -2436.79 -1.59c-134.76,1201.89 738.11,1536.66 1775.75,1706.87z"/>
     <path class="fil2" d="M23290.65 10618.3c196.11,-70.77 40.48,41.27 200.12,-155.22 54.25,-66.79 90.76,-136.07 135.95,-202.55 200.55,-294.97 783.19,-1075.44 858.41,-1315.26 -334.74,-175.11 -737.11,-376.91 -1234.33,-358.64 -31.41,314.22 -63.09,1831.02 39.85,2031.67z"/>
     <path class="fil2" d="M23515.86 10780.83c285.9,-8.74 1606.81,-626.27 1855.36,-800.24 -79.37,-317.58 -464.23,-769.68 -726.46,-867.06 -174.98,173.58 -1059.66,1431.98 -1128.9,1667.3z"/>
     <path class="fil2" d="M23675.13 11004.77l1993.24 3.91c-8.39,-349.58 -65.97,-561.41 -185.93,-846.54 -236.35,48.88 -1027.81,438.5 -1365.28,591.32 -187.09,84.73 -309.92,108.46 -442.03,251.31z"/>
     <path class="fil2" d="M21161.46 10958.77l-27 195.43 -926.05 19.13c-24.84,230.64 -30.06,99.31 37.13,214.49l2436.79 1.59c-38.48,-307.52 -181.34,-229.77 -518.96,-225.71 -239.15,2.88 -577.08,32.22 -745.69,-46.26l-82.87 -321.06c-44.64,-128.49 -11.43,-91.62 -93.73,-230.95 -102.84,-174.05 -66.48,-106.62 -207.02,-190.98 -39.87,-139.35 -219.08,-233.46 -396.78,-252.81 -64.61,-57.52 -6.57,-30.82 -108.44,-83.49 -355.24,-183.7 -383.63,-5.78 -401.08,185.27l383.18 89.3c195.06,66.26 278.38,141.78 395.63,209.27l254.89 436.78z"/>
     <path class="fil2" d="M23610.44 11389.67l2045.09 3.19c80.54,-124.75 72.96,18 39.61,-203.33 -292.98,-52.68 -1252.01,-24.26 -1674.55,-29.06 -343.28,-3.9 -360.2,-60.4 -410.15,229.2z"/>
     <path class="fil2" d="M22955.44 10882.48c-351.21,275.27 52.21,720.5 375.97,495.91 324.56,-225.15 3.09,-793.02 -375.97,-495.91z"/>
     <path class="fil2" d="M21382.32 14498.59c-160.62,254.9 -53.5,380.14 256.06,320.3 93.36,-197.9 32.02,-431.37 -256.06,-320.3z"/>
     <path class="fil2" d="M24259.92 14826.31c474.91,85.93 483.2,-405.62 -1.33,-316.8 -51.74,121.89 -50.13,194.56 1.33,316.8z"/>
    </g>
    <g>
     <path class="fil4" d="M19488.8 1727.39l14851.24 0c683.94,0 1243.52,559.58 1243.52,1243.52l0 2425.39 -17338.28 0 0 -2425.39c0,-683.94 559.58,-1243.52 1243.52,-1243.52z"/>
     <path class="fil5" d="M21093.3 3333.26l0 565.24 190.79 0c76.1,0 134.82,-26.16 176.16,-78.29 41.52,-52.13 62.19,-119.81 62.19,-203.05 0,-82.86 -20.85,-150.73 -62.74,-203.59 -40.24,-53.6 -98.78,-80.31 -175.61,-80.31l-190.79 0zm190.79 660.73l-292.86 0 0 -756.21 292.86 0c104.64,0 187.68,35.67 248.78,107.19 61.1,71.53 91.65,162.07 91.65,271.65 0,110.12 -30.37,200.48 -91.1,271.27 -60.91,70.8 -143.96,106.1 -249.33,106.1z"/>
     <path id="1" class="fil5" d="M21765.37 3338.75c-12.99,-12.62 -19.39,-27.98 -19.39,-46.09 0,-18.3 6.4,-33.48 19.39,-46.1 14.45,-12.44 30.73,-18.66 49.2,-18.66 18.48,0 34.76,6.04 48.66,18.11 14.09,12.26 21.04,27.8 21.04,46.65 0,18.84 -6.95,34.39 -21.04,46.64 -13.9,12.07 -30.18,18.11 -48.66,18.11 -18.47,0 -34.75,-6.22 -49.2,-18.66zm99.14 655.24l-99.87 0 0 -512.56 99.87 0 0 512.56z"/>
     <path id="2" class="fil5" d="M22066.1 3507.96c34.2,-25.06 75.55,-37.5 124.2,-37.5 48.48,0 88.72,12.44 120.37,37.32 31.83,24.87 49.94,60.36 54.14,106.46l-95.3 0c-2.93,-16.65 -11.71,-30 -26.34,-40.06 -16.1,-9.88 -33.84,-14.82 -53.6,-14.82 -19.57,0 -36.22,4.21 -49.75,12.62 -14.64,6.59 -23.78,18.11 -27.81,34.21 -3.84,16.1 -3.29,28.9 1.65,38.41 8.23,16.47 28.35,29.27 60.36,38.42l75.55 18.47c88.72,21.77 132.99,71.71 132.99,149.82 0,46.28 -19.21,83.6 -57.81,112.31 -38.96,27.63 -84.51,41.35 -136.64,41.35 -52.32,0 -97.68,-15 -136.28,-45.19 -38.6,-30 -58.17,-69.87 -58.9,-119.81l94.39 0c4.2,26.52 17.74,46.09 40.79,58.53 22.32,14.09 46.46,20.31 72.44,18.84 25.97,-1.46 46.09,-8.41 60.36,-20.85 14.27,-12.62 22.32,-27.8 24.15,-45.73 1.46,-17.93 -4.03,-32.2 -16.65,-42.99 -12.44,-10.79 -29.63,-18.66 -51.4,-23.59l-70.24 -16.29c-49.58,-13.35 -86.16,-32.92 -109.58,-59.08 -22.49,-27.07 -31.82,-60.91 -27.8,-101.71 3.84,-40.79 22.87,-73.72 56.71,-99.14z"/>
     <path id="3" class="fil5" d="M22753.71 3470.46c79.02,0 143.78,27.62 194.45,82.68l-76.1 63.29c-32.01,-32.19 -72.26,-48.29 -120.55,-48.29 -48.11,0 -89.08,15.55 -122.74,46.83 -33.84,30.73 -50.85,71.52 -50.85,122.56 0,50.85 17.19,92.19 51.4,124.02 34.39,32.01 75.36,47.93 123.29,47.93 48.29,0 88.17,-16.83 119.45,-50.49l77.19 63.66c-51.03,54.88 -115.6,82.32 -193.35,82.32 -77.92,0 -143.78,-24.7 -197.56,-74.09 -53.59,-50.12 -80.3,-114.51 -80.3,-193.35 0,-78.84 26.34,-143.05 78.84,-192.44 52.68,-49.39 118.17,-74.27 196.83,-74.63z"/>
     <path id="4" class="fil5" d="M23428.34 3862.1c32.01,-31.46 48.1,-72.8 48.1,-124.02 0,-51.4 -16.09,-92.38 -48.1,-123.11 -32.02,-30.91 -71.89,-46.46 -119.64,-46.83 -47.56,0 -87.62,15.37 -120,46.28 -32.74,31.1 -49.2,72.07 -49.2,123.11 0,50.85 16.09,92.19 48.11,124.02 32.01,32.01 72.07,47.93 120.18,47.93 48.29,0 88.53,-15.73 120.55,-47.38zm-120 142.87c-74.64,0 -137.93,-24.7 -190.25,-74.09 -52.31,-49.39 -78.47,-113.78 -78.47,-193.35 0,-79.57 25.79,-144.15 77.19,-193.54 51.41,-49.39 114.88,-73.9 190.61,-73.53 76.1,0 139.76,24.69 191.16,74.08 51.77,49.76 77.74,114.15 77.74,192.99 0,78.84 -25.97,143.05 -77.92,192.8 -51.96,49.76 -115.43,74.64 -190.06,74.64z"/>
     <polygon id="5" class="fil5" points="23857.66,3993.99 23644.92,3481.43 23749.92,3481.43 23905.77,3866.31 24060.71,3481.43 24167.36,3481.43 "/>
     <path id="6" class="fil5" d="M24751.99 3736.25c0,22.68 -0.37,35.67 -1.1,39.33l-415.97 0c4.94,41.34 23.23,75.55 54.69,102.8 30.37,25.06 64.39,37.68 102.26,37.68 74.08,0 125.85,-26.52 155.48,-79.57 0.73,0 1.83,0.18 3.3,0.92 1.28,0.73 3.84,2.01 7.5,3.84 4.2,1.83 9.87,4.02 17.01,6.4 7.13,2.56 12.62,4.76 16.09,6.59l41.89 15.54c-21.03,43.17 -52.86,76.47 -95.48,99.88 -42.44,23.6 -89.27,35.31 -140.31,35.31 -73.35,0 -135.91,-24.7 -188.04,-74.27 -49.58,-49.57 -74.27,-114.51 -74.27,-194.45 0,-80.12 24.69,-144.33 73.9,-192.8 49.39,-48.3 111.77,-72.63 187.5,-72.99 75.73,0 136.83,24.51 183.29,73.35 48.11,48.66 72.26,112.87 72.26,192.44zm-149.64 -140.12c-28.53,-24.51 -64.02,-36.77 -106.09,-36.77 -42.26,0 -78.48,12.26 -108.84,36.77 -30,26.16 -47.56,60.18 -52.5,101.52l317.74 0c-4.94,-41.34 -21.77,-75.36 -50.31,-101.52z"/>
     <path id="7" class="fil5" d="M24978.81 3807.59l0 186.4 -99.88 0 0 -512.56 99.88 0 0 115.61c25.06,-84.33 72.44,-126.58 142.5,-126.58 40.43,0 70.06,6.58 89.08,19.57l-15.54 93.66c-22.5,-11.89 -47.75,-17.74 -75.55,-17.74 -45.19,0 -79.76,21.58 -104.09,64.75 -24.33,43.35 -36.4,102.26 -36.4,176.89z"/>
     <ellipse class="fil6 str0" cx="19792.08" cy="3548.6" rx="295.45" ry="313.09"/>
     <path class="fil6 str0" d="M20007.13 3763.29c265.6,239.52 278.83,272.59 278.83,272.59"/>
    </g>
    <path class="fil7" d="M9307.75 2955.74c4.98,-113.84 -2.1,-187.02 33.12,-290.74 112.59,-331.55 488.19,-498.17 812.52,-335.28 67.07,33.69 140.95,91.49 177.3,138.63 139.35,180.77 140.3,259.4 146.63,487.4 63.81,4.36 96.48,-25.8 156.21,25.39 33.15,28.4 60.97,62.74 57.58,127.95 -7.67,147.66 -145.2,146.74 -196,185.82 23.68,76.65 62.09,134.4 112.5,177.61 55.63,47.68 130.94,53.43 196.48,90.65 64.73,36.77 87.73,131.09 24.55,193.3 -65.68,64.67 -180.5,66.34 -201.18,85.97 -11.84,12.31 -23.67,69.33 -40.92,91.37 -84.25,107.58 -218.37,25.02 -320.03,58.93 -55.12,18.39 -117.39,65.04 -172,92.37 -303.98,152.11 -444.05,-56.29 -580.42,-93.84 -74.65,-20.55 -165.07,13.68 -240.62,-6.63 -99.83,-26.84 -93.45,-119.98 -115.88,-142.22 -25.58,-24.24 -138.94,-17.96 -203.88,-88.98 -59.02,-64.55 -37.45,-153.58 27.26,-190.29 94.66,-53.69 239.81,-43.48 308.99,-268.26 -51.26,-39.28 -188.22,-38.1 -196.01,-185.81 -3.49,-65.92 25.92,-102.3 60.66,-130.57 60.03,-48.83 92.13,-17.21 153.14,-22.77zm-864.28 1269.17c0,125.66 25.4,182.5 92.53,268.9 74.16,95.42 185.26,137.72 313.89,137.54l1470.62 0.37c145.3,1.14 542.64,5.1 665.77,-0.91 68.22,-3.34 132.74,-33.06 188.37,-68.38l53.29 -44.93c15.62,-15.15 12.24,-7.56 25.34,-26.05 22.21,-31.35 42.14,-58.4 57.54,-97.62 10.32,-26.28 18.7,-46.71 25.03,-78.65 10.53,-53.19 6.6,-388.92 6.18,-469.41l-0.41 -1683.18c-0.69,-121.43 -24.87,-234.71 -112.04,-317.48 -10.99,-10.44 -14.99,-10.86 -28.86,-22.11 -13.91,-11.3 -12.51,-12.01 -29.18,-23.16 -27.19,-18.17 -38.44,-23.79 -66.85,-36.6 -55.99,-25.25 -103.82,-29.98 -169.51,-30l-2062.31 -0.41c-252.18,-1.47 -429.48,147.92 -429.78,406.79l0.38 2085.29z"/>
    <path class="fil8" d="M9025.55 3661.94c22.2,-27.77 81.82,-34.35 118.82,-50.58 39.77,-17.44 72.35,-37.85 100.85,-59.67 53.74,-41.14 102.39,-114.82 133.71,-193.39 53.66,-134.64 13.14,-140.17 -99.79,-182.9 -39.34,-14.88 -87.85,-26.93 -80.87,-82.06 6.97,-55.09 67.08,-36.08 108.59,-26.36 51.39,12.02 92.54,11.16 101.42,-45.57 21.21,-135.56 -24.95,-245.06 74.01,-415.85 175.7,-303.22 630.59,-324.69 824.51,7.48 47.23,80.92 60.8,154.22 64.29,261.86 1.31,40.39 -1.79,120.46 7.41,155.35 29.06,110.25 213.52,-44.74 208.66,74.35 -2.06,50.49 -53.61,59.97 -89.48,73.92 -111.22,43.26 -145.28,50.31 -89.85,183.87 52.36,126.15 120.44,201.25 236.87,250.7 35.78,15.2 93.38,21.92 114.83,48.85 -8.76,77.21 -191.31,58.19 -225.37,93.09 -26.56,27.2 -3.09,90.84 -35.06,119.89 -25.91,23.54 -101.63,7.69 -138.21,6.62 -115.57,-3.39 -165.07,23.69 -243.28,71.71 -366.91,225.27 -386.7,-83.73 -699.23,-71.53 -38.53,1.51 -112.26,15.67 -135.23,-9.7 -27.03,-29.86 -9.97,-99.8 -35.32,-119.7 -39.79,-31.22 -213.82,-15.17 -222.28,-90.38zm282.2 -706.2c-61.01,5.56 -93.11,-26.06 -153.14,22.77 -34.74,28.27 -64.15,64.65 -60.66,130.57 7.79,147.71 144.75,146.53 196.01,185.81 -69.18,224.78 -214.33,214.57 -308.99,268.26 -64.71,36.71 -86.28,125.74 -27.26,190.29 64.94,71.02 178.3,64.74 203.88,88.98 22.43,22.24 16.05,115.38 115.88,142.22 75.55,20.31 165.97,-13.92 240.62,6.63 136.37,37.55 276.44,245.95 580.42,93.84 54.61,-27.33 116.88,-73.98 172,-92.37 101.66,-33.91 235.78,48.65 320.03,-58.93 17.25,-22.04 29.08,-79.06 40.92,-91.37 20.68,-19.63 135.5,-21.3 201.18,-85.97 63.18,-62.21 40.18,-156.53 -24.55,-193.3 -65.54,-37.22 -140.85,-42.97 -196.48,-90.65 -50.41,-43.21 -88.82,-100.96 -112.5,-177.61 50.8,-39.08 188.33,-38.16 196,-185.82 3.39,-65.21 -24.43,-99.55 -57.58,-127.95 -59.73,-51.19 -92.4,-21.03 -156.21,-25.39 -6.33,-228 -7.28,-306.63 -146.63,-487.4 -36.35,-47.14 -110.23,-104.94 -177.3,-138.63 -324.33,-162.89 -699.93,3.73 -812.52,335.28 -35.22,103.72 -28.14,176.9 -33.12,290.74z"/>
    <path class="fil9" d="M9625.81 6604.79l11324.16 0c640.3,0 1164.17,523.87 1164.17,1164.17l0 16086.67c0,640.3 -523.87,1164.17 -1164.17,1164.17l-11324.16 0c-640.3,0 -1164.17,-523.87 -1164.17,-1164.17l0 -16086.67c0,-640.3 523.87,-1164.17 1164.17,-1164.17z"/>
    <g>
     <path class="fil10" d="M13490.88 11316.77c101.68,163.25 175.82,103.59 407.72,190.89 989.78,372.59 841.53,2052.51 1598.67,3288.29 370.23,60.55 755.47,31.07 1137.7,32.71 466.44,2 659.07,113.03 965.44,128.06 12.94,0.64 1176.39,-126.79 2106.73,-95.03 -156.03,545.93 -737.53,944.15 -1419.01,1014.46 -314.96,-190.62 -290.74,-349.46 -579.52,-430.64 -34.75,251.25 295.74,867.83 500.6,1702.99 261.89,1067.63 225.87,949.72 -423.17,1495.08 11,496.1 408.65,898.88 240.46,1185.22 -459.29,-2.45 -200.91,-132.73 -684.03,-1024.81 -526.28,-49.08 -1355.63,16.72 -1932.52,13.71 -604.86,-3.17 -1264.47,-138.91 -1770.45,-108.8 -116.83,258.9 -218.75,481.41 -349.01,779.13 -333.65,762.62 -761.65,510.42 -353.22,-274.35 845.59,-1624.78 -715.11,154.05 54.63,-3790.85 183.47,-940.31 821.57,-342.28 729.87,-1025.61 -348.99,30.78 -328.02,169.37 -670.97,234.37 -379.03,71.84 -545.58,-57.68 -871.45,80.27 -486.34,205.88 -795.13,558.19 -1187.95,-119.28 -718.98,-1240.01 853.08,-1632.78 1104.93,-2155.5 250.99,-102.2 574.24,-284.8 718.24,-504.74 179.62,-274.36 73.67,-695.6 86.1,-1031.21 284.55,206.06 228.49,255.73 590.21,415.64zm-1472.67 912.36c-271.52,77.94 -1686.13,970.75 -1489.56,2031.43 74.31,400.96 407.89,926.12 819.53,1015.92 628.96,137.23 707.41,-397.7 1408.82,-272.15 -75.76,772.1 -418.14,1942.73 -289.15,2742.33 87.94,545.16 479.89,645.43 334.42,1072.42 -153.56,450.75 -508.6,678.04 -409.49,1231.78l824.73 266.52 637.93 -1303.67c1175.83,92.01 2082.21,100.98 3300.37,70.71l449.09 1111.44c395.87,7.66 565.13,-67.55 844.7,-248.32 4.47,-428.05 -233.38,-709.96 -325.66,-1134.86 306.23,-366.01 604.64,-417.3 520.12,-1128.83 -56.22,-473.41 -243.86,-908.12 -295.56,-1402.8 193.63,-127.63 25.03,-33.16 254.24,-123.52 1232.87,-486.03 1693.74,-1293.96 1355.31,-1561.76 -548.7,-188.9 -1537.29,-57.33 -2134.74,8.29 -231.5,25.42 -1766.01,-73.82 -2120.71,-102.97 -645.93,-1610.02 -812.22,-3308.54 -1980.94,-3317.07 -199.81,-268.33 -878.29,-788.49 -1183.6,-835.32 11.48,2311.07 -42.62,891.48 -519.85,1880.43z"/>
     <path class="fil10" d="M11050.19 19763.96c-30.53,334.96 20.73,350.88 286.49,508.4l1515.18 665.23c2332.95,755.76 6038.02,182.02 7029.31,-1093.68l-211.06 -304.41c-352.24,63.96 -1281.68,659.48 -1886.12,865.61 -1549.87,528.55 -3220.16,550.91 -4792.22,45.16 -1080.67,-347.68 -1546.09,-881.1 -1941.58,-686.31z"/>
     <path class="fil10" d="M13723.47 12900.14c-37.16,-272.43 -125.5,-287.51 -406.57,-286.29 -187.96,298.25 -143.35,424.38 87.21,661.25 228.3,-27.17 359.4,-81.35 319.36,-374.96z"/>
    </g>
    <g>
     <path class="fil11" d="M29491.16 24563.23c336.69,-85.03 443.34,-109.94 780.55,25.5l-28.61 3139.01c-296.48,94.48 -429.34,75.96 -771.36,18.33l19.42 -3182.84zm-907.88 21.02l654.16 30.78 -17 3109.89 -661.56 4.94 24.4 -3145.61zm-1014.27 -22.23l693.57 12.84c59.87,487.84 79,2737.06 -17.79,3172.61l-695.93 -14.83 20.15 -3170.62zm-1021.2 3205.31c-91.9,-466.74 -82.91,-2715.71 -9,-3211.68 340.3,-58.99 440.66,-84.78 788,36.05l-31.22 3135.3c-301.37,111.25 -430.87,80.57 -747.78,40.33zm-979.64 -3171.59c302.34,-122.45 425.17,-114.82 757.83,-15.77l-30.99 3159.6c-300.95,91.41 -422.53,97.82 -738.62,-11.33l11.78 -3132.5zm-952.45 -30.44l713.24 18.09 -35.2 3168.25 -705.03 -10.73 26.99 -3175.61zm-1001.96 3182.82c-100.49,-405.43 -84.04,-2724.91 -11.45,-3182.81 327.72,-74.47 439.52,-101.5 761.82,33.98l-21.2 3120.66c-293.81,105.23 -423.42,83.3 -729.17,28.17zm7111.36 1073.8c98.12,-561.74 42.76,-3537.75 34.98,-4484.13 -2.84,-345.91 -44.88,-372.18 100.15,-657.69 428.37,-843.15 -446.89,-1076.58 -761.43,-679.25 -324.37,409.71 104.46,547.29 115.63,1045.29l-6564.98 -2.73c3.35,-506.3 364.57,-523.29 146.59,-971.01 -133.55,-274.28 -520.84,-330.8 -758.3,-155.34 -381.42,281.81 -130.27,570.92 -32.69,784.77 158.87,348.2 74.06,2930.98 79.18,3433.54 16.96,1664.88 -188.51,1694.56 518.69,1691.64l42.59 -554.31 6559.43 12.64 70.21 544.51 449.95 -7.93z"/>
     <path class="fil11" d="M27571.04 20369.71l2774.11 16.79c39.67,596.33 -141.63,1898.49 85.3,2332.11 216.19,-81.54 122.34,4.81 179.77,-237.21l-28.89 -2358.19 -3253.37 26.89 -47.57 727.02c-910.47,75.04 -993.91,-169.54 -1089.67,203.76 225.77,109.81 1550.76,65.94 1997.85,64.13 344.41,-1.41 332.26,66.35 480.78,-141.76 -194.67,-232.2 -782.23,-109.67 -1113.3,-140.11l14.99 -493.43z"/>
     <path class="fil11" d="M27455.58 21430.89c-628.39,229.98 -717.91,1036.42 -263.37,1493.07 466.66,468.79 1279.46,359.45 1492.96,-259.03 -975.95,93.8 -1340.38,-246.99 -1229.59,-1234.04z"/>
     <path class="fil11" d="M26482.16 21476.49c-383.93,-32.68 -648.83,79.38 -820.82,348.19 -620.62,969.94 1900.88,1118.22 820.82,-348.19z"/>
     <path class="fil11" d="M28088.8 22477.68c558.03,-148.24 255.06,-115.6 788.56,-4.65 -8.69,-569.62 -62.43,-355.08 210.74,-693.56 -369.54,-311.76 52.36,228.9 -596.36,-460.32 -316.24,256.94 18.71,212.27 -595.62,382.7 12.64,22.54 24.97,90.49 32.63,108.21 28.24,65.35 13.08,25.13 49.13,96.58 157.44,312.09 109.74,163.1 110.92,571.04z"/>
    </g>
    <path class="fil12" d="M30819.88 13981.98l801.72 5.17c26.71,165.03 20.85,83.86 -49.47,244.32l-650.16 32.31 -102.09 -281.8zm-1865.72 -4316.62c-133.88,53.87 -201.52,107.74 -326.01,248.33l-216.86 194.51c47.38,242.86 461.26,934.38 577.27,1164.78 289.8,-29.18 417.33,-224.91 651.55,-215.03l23.43 2330.78c206.51,163.94 469.58,259.41 663.72,443.03 248.39,234.93 227.37,433.74 412.4,687.08 1519,180.95 882.66,-206.19 1430.35,-699.3 174.3,-156.93 592.64,-316.41 647.67,-499.5 85.75,-285.32 -6.89,-1798.4 40.44,-2272.19l597.62 238.9c146.92,-146.95 587.87,-983.78 618.9,-1169.38 -318.27,-344.47 -1373.07,-1086.57 -2051.91,-1112.6 -174.87,139.08 -415.92,454.69 -767.89,460.75 -394.04,6.78 -592.04,-326.02 -815.86,-466.49 -557.32,83.98 -1125.31,414.79 -1484.82,666.33zm-148.98 556.42c234.48,-268.61 1112.88,-801.63 1585.81,-842.43 248.04,161.84 382.01,383.29 817.36,396.71 426,13.14 645.33,-206.43 862.37,-389.25 503.34,11.57 1363.71,566.87 1591.87,826.63l-287.2 638.72c-457.61,-73.24 -863.14,-488.84 -852.29,367.8l-38.55 2005.5c-398.9,273.31 -467.76,242.58 -688.94,594.17 -1425.23,38.8 -1015.39,-40.65 -1429.66,-362.41 -129.55,-100.63 -233.77,-141.7 -372.94,-250.31l-29.81 -2227.79c-56.55,-513.61 -548.34,-185.51 -848.89,-120.32l-309.13 -637.02z"/>
   </g>
  </g>
 </g>
</svg>
