<?xml version="1.0" encoding="UTF-8"?>
<!DOCTYPE svg PUBLIC "-//W3C//DTD SVG 1.1//EN" "http://www.w3.org/Graphics/SVG/1.1/DTD/svg11.dtd">
<!-- Creator: CorelDRAW 2018 (64-Bit Evaluation Version) -->
<svg xmlns="http://www.w3.org/2000/svg" xml:space="preserve" width="440.267mm" height="321.733mm" version="1.1" style="shape-rendering:geometricPrecision; text-rendering:geometricPrecision; image-rendering:optimizeQuality; fill-rule:evenodd; clip-rule:evenodd"
viewBox="0 0 44026.66 32173.34"
 xmlns:xlink="http://www.w3.org/1999/xlink">
 <defs>
  <style type="text/css">
   <![CDATA[
    .str1 {stroke:#3B9CFF;stroke-width:211.67;stroke-miterlimit:22.9256;stroke-opacity:0.188235}
    .str0 {stroke:#3B9CFF;stroke-width:211.67;stroke-miterlimit:22.9256;stroke-opacity:0.278431}
    .fil12 {fill:none}
    .fil3 {fill:none}
    .fil1 {fill:#3D7CCB}
    .fil4 {fill:#3B9CFF;fill-opacity:0.129412}
    .fil0 {fill:#5AEEBC;fill-opacity:0.129412}
    .fil16 {fill:#5AEEBC;fill-opacity:0.168627}
    .fil5 {fill:#3B9CFF;fill-opacity:0.200000}
    .fil7 {fill:#3B9CFF;fill-opacity:0.250980}
    .fil14 {fill:#3B9CFF;fill-opacity:0.301961}
    .fil13 {fill:#5AEEBC;fill-opacity:0.301961}
    .fil15 {fill:#3B9CFF;fill-opacity:0.341176}
    .fil8 {fill:#3B9CFF;fill-opacity:0.380392}
    .fil6 {fill:#99D2FF;fill-opacity:0.380392}
    .fil10 {fill:#3B9CFF;fill-opacity:0.450980}
    .fil9 {fill:#99D2FF;fill-opacity:0.470588}
    .fil11 {fill:white;fill-opacity:0.788235}
    .fil17 {fill:#B4DCFF}
    .fil2 {fill:url(#id0)}
   ]]>
  </style>
  <linearGradient id="id0" gradientUnits="userSpaceOnUse" x1="33427.12" y1="9947.66" x2="35179.32" y2="7198.7">
   <stop offset="0" style="stop-opacity:1; stop-color:#FEDA75"/>
   <stop offset="0.239216" style="stop-opacity:1; stop-color:#FA7E1E"/>
   <stop offset="0.490196" style="stop-opacity:1; stop-color:#D62976"/>
   <stop offset="0.760784" style="stop-opacity:1; stop-color:#962FBF"/>
   <stop offset="1" style="stop-opacity:1; stop-color:#4F5BD5"/>
  </linearGradient>
 </defs>
 <g id="Layer_x0020_1">
  <metadata id="CorelCorpID_0Corel-Layer"/>
  <polygon class="fil0" points="-0,0 44026.66,0 44026.66,32173.34 -0,32173.34 "/>
  <path class="fil1" d="M34234.22 5059.12c9.51,-40.52 -6.71,-300.24 10.09,-415.58 34.47,-236.56 191.88,-390.81 429.82,-420.07 112.11,-13.79 290.94,-3.35 402.57,10.65l-0.78 364.52c-128.87,7.78 -309.12,-28.73 -381.3,56.78 -39.12,46.34 -36.53,117.12 -36.53,185.26 0,67.34 -4.58,152.6 0.72,218.07l401.84 0.09c3.06,26.64 -18.51,170.7 -24.15,205.43 -10.51,64.69 -13.36,140.07 -26.84,203.44l-351.33 0.5 0.41 1144c87.32,-4.49 212.46,-38.88 288.25,-64.71 261.48,-89.09 462.87,-232.52 633.09,-421.28 213.03,-236.26 388.34,-621.39 361.74,-1043.11 -26.35,-417.71 -206.64,-738.75 -438.86,-966.71 -227.71,-223.53 -574.33,-407.6 -987.77,-416.01 -795.9,-16.18 -1418,579.97 -1491.5,1320.29 -66.9,673.92 335.82,1279.93 937.52,1507.77 51.1,19.35 224.75,74.64 274.58,73.03l-1.48 -1134.05 -351.37 -0.48 0.24 -407.28 351.04 -0.55z"/>
  <path class="fil2" d="M33222.89 9325.37c-7.93,-83.03 -1.95,-1109.05 -1.95,-1221.02 0,-258.95 -0.81,-430.4 184.61,-577.25l66.89 -46.31c87.29,-54.36 170.11,-65.18 283.83,-65.13 406.87,0.18 813.74,0.01 1220.6,0.01 211.58,0 376.77,-24.43 533.69,77.47 269.07,174.71 229.51,427.27 229.51,688.64l0 917.25c0,283.26 5.05,404.44 -182.6,580.76 -89.81,84.4 -225.87,108.86 -354.34,109.87 -406.32,3.2 -814.11,-0.04 -1220.6,-0.04 -232.96,0 -351.72,25.77 -535.26,-77.83 -48.93,-27.62 -83.48,-68.86 -117.8,-108.5 -17.37,-20.07 -17.51,-24.55 -31.42,-45.97 -43.97,-67.74 -66.34,-139.57 -75.16,-231.95zm-215.49 11.91c13.24,113.96 29.51,195.71 77.46,284.65 62.44,115.82 148.91,213.78 261.13,280.74 146.76,87.58 254.81,102.32 434.1,102.32 478.32,0 956.64,-0.25 1434.95,0 245.35,0.14 389.09,-74.03 523.62,-197.55 7.97,-7.32 17.3,-16.07 24.08,-23.58l61.09 -75.8c82.84,-113.49 129.16,-260.2 131.63,-406.5 5.89,-347.81 -0.02,-724.72 -0.02,-1078.09 0,-263.62 28.71,-541.72 -150.14,-751.19 -174.3,-204.13 -347.07,-273.6 -625.98,-273.59 -478.17,0 -956.85,-2.21 -1434.95,-0.06 -254.5,1.14 -432.13,95.49 -568.54,247.6 -103.11,114.97 -166.9,294.2 -170.36,455.4 -1.51,70.43 -5.89,1368.32 1.93,1435.65zm1401.43 -1293.02c323.49,-41.82 591.38,195.4 624.75,480.8 61.52,526.22 -531.26,819.18 -908.35,508.62 -372.97,-307.18 -203.88,-926.41 283.6,-989.42zm97.67 1332.15c215.15,0 420.4,-123.32 527.26,-232.44 142.47,-145.49 221.31,-316.75 221.31,-575.04 0,-168.71 -93.19,-395.74 -221.76,-515.04 -68.79,-63.84 -118.28,-102.92 -215.49,-153.73 -192.54,-100.65 -490.75,-103.99 -679.49,2.55 -103.43,58.38 -123.24,67.29 -210.34,152.98 -103.37,101.7 -222.04,295.29 -222.04,513.24 0,129.46 14.04,248 69.64,356.05 85.92,166.98 202.19,299.19 372.8,377.24 117.5,53.75 224.68,74.19 358.11,74.19zm711.75 -1575.83c12.9,66.59 66.55,109.46 151.49,95.92 140.45,-22.38 133.26,-272.87 -54.61,-246 -33.83,4.85 -56.05,20.92 -77.24,47.77 -19.01,24.08 -27.55,61.43 -19.64,102.31z"/>
  <path class="fil3 str0" d="M15657.09 25169.9l152.74 508.04 -565.84 -19.97c-72.24,27.13 -150.52,42.02 -232.32,42.02 -362.87,0 -657.04,-292.2 -657.04,-652.64 0,-360.44 294.17,-652.64 657.04,-652.64 362.87,0 657.04,292.2 657.04,652.64 0,41.9 -4.02,82.85 -11.62,122.55z"/>
  <polygon class="fil3 str0" points="30738.72,24529.27 31701.99,24532.31 31702,25559.79 31243.39,25147.48 30736.38,25565.44 "/>
  <path class="fil4" d="M22296.88 12270.46l-5979.11 3.38 8.75 1319.8 849.58 1.56c2.43,60.11 2.86,115.56 1.92,175.69 -0.11,7.29 -0.24,83.04 0.04,84.52 15.24,80.46 -25.37,31.7 36.25,63.57l-0.06 -326.86c161.77,2.88 490.65,-14.65 637.27,22.81 33.5,8.56 107.07,-22.08 278.55,-20.87 310.85,2.18 506.16,17.08 786.9,0.2 52.82,-3.18 117.48,-0.17 171.54,-0.06l3371.95 0.4c-48.29,120.36 -213.84,228.06 -297.77,328.44l32.31 0.16c38.88,-75.48 148.94,-171.95 214.74,-239.34 118.11,-120.94 170.28,-89.97 384.41,-89.64 149.08,0.23 298.17,0.02 447.25,0 174.54,-0.02 334.35,-33.94 406.79,66.61l1.52 -17.66c0.41,-1.57 1.37,-8.76 1.95,-10.7l3598.51 -38.21c-55.86,135.89 -210.96,210.68 -293.46,328.93l27.05 0.17c30.03,-67.64 133.78,-159.31 205.09,-230.9 114.34,-114.77 124.47,-100 333.15,-98.47 141.79,1.04 284.17,0.7 425.99,0.2 243.54,-0.86 225.01,-16.87 364.28,89.72 -48.9,-59.81 -26.2,-19.15 -55.32,-90.39l585.5 0.74 0.11 324.1c40,-38.54 32.37,28.04 37.7,-104.13l-0.58 -220.19 858.77 -1.38 0.41 -1320.08 -5571.13 0.59c-87.76,8.77 -177.42,9.05 -265.98,4.88 -399.81,-18.82 -1299.01,39.86 -1604.87,-7.59z"/>
  <path class="fil5" d="M22807.88 18127.39c25.33,-64.8 185.08,-213.46 241.75,-258.16 66.84,22.09 239.2,194.01 264.15,258.43l-505.9 -0.27zm117.23 -420.21l268.42 -12.06c-41.89,70.95 -54.78,56.94 -105.19,127.5 -116.05,-29.66 -73.9,-40.03 -163.23,-115.44zm0 0l110.73 130.65c-22.74,64.52 -31.64,63.04 -84.25,115.21 -157.56,156.21 -140.37,175.46 -348.12,176.13 -234.42,0.76 -469.27,-0.75 -703.76,-0.74 -468.53,0.01 -937.06,-0.2 -1405.59,-0.04 -475.63,0.16 -951.25,0.03 -1426.88,0.04 -412.96,0 -933.36,-18 -1323.84,1.2 63.07,408.71 369.28,739.68 812.28,760.32l31.33 88.22 12.69 -81.51 744.4 -0.66 161.19 151.23c21.94,-29.52 11.94,8.93 25.34,-59.07 4.74,-24.08 3.89,-66.72 5.01,-96.89l7058.33 10.03c121.44,-24.16 -1.98,42.02 153.72,6.56 76.66,-17.46 155.67,-11.94 241.91,-11.86 170.02,0.18 348.4,5.11 517.27,0.15l3.69 186.06c40.9,-34.72 30.42,-120.29 42.75,-190.61 421.44,-65.03 693.11,-348.82 760.74,-762.62l-1324.42 -0.55c-1139.68,0.05 -2387.46,16.76 -3513.99,0.38 -149.08,-2.17 -155.79,-24.3 -231.16,-102.49 -61.19,-63.49 -126.78,-105.02 -160.11,-188.49 138.74,-192.36 209.96,-143.46 519.08,-143.42 319.16,0.03 1820.47,30 1913.99,-24.5l10.83 -17.05c-101.02,36.14 -4893.45,37.46 -4999.27,0.21l10.83 18.39c158.41,85.21 2001.42,-20.89 2385.28,35.72z"/>
  <path class="fil6" d="M22296.88 12270.46c305.86,47.45 1205.06,-11.23 1604.87,7.59 88.56,4.17 178.22,3.89 265.98,-4.88l218.06 -1570.86 121.62 -14.37 -2.01 -404.63 -1249.68 4.77 -121.75 -5.64 -1175.13 0.18 -1.42 403.44 139.17 21.92c-36.72,205.92 183.64,1239.5 200.29,1562.48z"/>
  <path class="fil6" d="M22195.01 13923.2l3406.06 2.07 3.09 1276.07 302.21 -31.1 -2.16 1244.58c0,267.44 4.97,950.57 -35.65,1207.42 -7.57,47.88 -4.8,38.16 -5.39,34.75 -0.44,-2.67 -1.49,10.97 -2.27,16.6l-343.46 -3.68c-93.52,54.5 -1594.82,24.53 -1914,24.49 -309.11,-0.02 -380.33,-48.92 -519.07,143.43 33.33,83.47 98.92,125 160.11,188.48 75.37,78.2 82.08,100.33 231.15,102.5 1126.54,16.39 2374.33,-0.34 3514.01,-0.38l1324.42 0.55c410.41,0.77 355.77,-277.46 286.48,-368.2 -109.95,-143.95 -459.38,-87.48 -666.51,-87.75l6.52 -90.65 -33.19 51.05c-15.48,24.5 5.91,-0.44 -23.26,37.95 -56.52,1.53 -113.29,3.75 -169.21,-2.32 -166.72,-18.13 -106.55,8.55 -279.19,6.4 -140.61,-1.76 -113.17,-10.49 -127.4,-33.98 -57.97,40.79 -61.7,32.71 -168.7,32.81l-1237.6 -1.53 6.56 -3749.7 3799.83 -43.97c82.5,-118.24 -25.8,-150.54 30.06,-286.43l-6086.78 39.81c-0.59,1.95 -1.56,9.12 -1.97,10.7l-1.52 17.66c-72.43,-100.55 -232.23,-66.63 -406.78,-66.61 -149.08,0.03 -298.17,0.22 -447.25,0 -214.13,-0.32 -266.31,-31.3 -384.41,89.65 -65.81,67.37 -175.86,163.86 -214.73,239.33z"/>
  <path class="fil6" d="M17743.4 18129.63c390.48,-19.2 910.88,-1.2 1323.84,-1.2 475.63,-0.01 951.25,0.12 1426.88,-0.04 468.53,-0.16 937.06,0.05 1405.59,0.04 234.49,-0.01 469.34,1.5 703.76,0.74 207.75,-0.67 190.56,-19.92 348.12,-176.13 52.61,-52.17 61.51,-50.69 84.25,-115.21l-110.73 -130.65c89.33,75.41 47.18,85.78 163.23,115.44 50.41,-70.56 63.3,-56.55 105.19,-127.5l-268.42 12.06c-383.86,-56.61 -2226.87,49.49 -2385.28,-35.72l-351.44 0.18c-70.59,35.19 -71.95,26.59 -183.96,26.19 -176.5,-0.63 -1113.16,18.04 -1206.43,-13.31l-29.58 -18.6c3.34,-31.86 11.29,-24.95 -19.03,-24.95 -44.01,39.05 31.15,17.27 -86.5,33.25 -2.55,0.34 -80.97,0.44 -86.05,0.12l-139.5 -15.35c-170.83,8.48 -181.39,30.97 -314.44,-33.78l-14.02 43.91c-219.22,14.69 -552.65,-56.36 -661.79,103.88 -58.9,86.49 -51.56,198.76 22.78,278.18 72.07,76.99 146.77,75.18 273.53,78.45z"/>
  <path class="fil7" d="M18122.9 17625.21c133.05,64.75 143.61,42.26 314.44,33.78l139.5 15.35c5.08,0.32 83.5,0.22 86.05,-0.12 117.65,-15.98 42.49,5.8 86.5,-33.25 -61.78,-124.93 -103.27,-179.31 -128.39,-350.49 -39.87,-64.89 -32.38,-106.11 -32.31,-197.78 0.8,-1016.73 21.89,-2196.1 -0.79,-3171.5l-483.55 3.95c31.39,592.53 2.85,1266.68 2.85,1868.2 0,312.35 0,624.7 0,937.05 0,230.83 -23.97,700.05 15.7,894.81z"/>
  <path class="fil7" d="M27432.94 17296.69c-20.98,174.59 -61.67,208.05 -124.64,344.6 14.23,23.62 -13.21,32.4 127.4,34.16 172.64,2.17 112.47,-24.66 279.19,-6.43 55.92,6.11 112.69,3.88 169.21,2.34 29.17,-38.62 7.78,-13.53 23.26,-38.18l33.18 -51.33 11.65 -3676.79 -479.29 -2.5c-51.7,458.06 63.47,3257.26 -39.96,3394.13z"/>
  <path class="fil6" d="M17214.31 13918.98l890.04 6.17 483.55 -3.95c22.68,975.4 1.59,2154.77 0.79,3171.5 -0.07,91.67 -7.56,132.89 32.31,197.78l-6.46 -3366.85 1531.91 -3.16 27.58 -0.86 261.73 1.6 26.34 2.02 1700.59 -0.19c83.93,-100.38 249.48,-208.08 297.77,-328.44l-3371.95 -0.4c-54.06,-0.11 -118.72,-3.12 -171.54,0.06 -280.74,16.88 -476.05,1.98 -786.9,-0.2 -171.48,-1.21 -245.05,29.43 -278.55,20.87 -146.62,-37.46 -475.5,-19.93 -637.27,-22.81l0.06 326.86z"/>
  <path class="fil6" d="M22910.45 7766.38c63.02,-167.71 -19.93,-134.02 -50.17,-251.01 26.25,-39.36 24.32,-18.41 63.14,-38.85 38.79,-8.08 52.96,-3.97 91.24,-66.55 263.03,-430.02 -1061.2,-918.13 -1667.41,-348.3 8.49,7.31 10.1,11.26 37.55,25.85 321.66,170.88 325.81,439.89 578.58,677.01 315.72,296.17 890.62,211.38 947.07,1.85z"/>
  <path class="fil6" d="M22900.76 9197.79c71.16,-125.06 -14.69,-166.8 -39.92,-256.56 23.97,-35.33 26.88,-19.55 60.21,-38.95 222.42,-51.42 90.89,-314.82 -4.55,-408.11 -377.16,-368.72 -1225.3,-336.71 -1581.59,2.34 106.59,49.01 112.36,25.54 192.69,108.52 61.83,63.87 99.79,115.07 150.09,190.81 204.46,307.9 334.07,560.33 753.92,584.58 172.3,9.95 477.27,-55.22 469.15,-182.63z"/>
  <path class="fil6" d="M23482.64 9096.36c158.99,41.13 37.82,15.42 52.41,152.5l13.92 49.75c3.06,16.49 -18.52,74.13 130.66,113.82 83.81,22.3 174.06,20.67 259.43,5.63 313.58,-55.25 418.42,-252.12 537.35,-525.39 85.82,-197.19 77.63,-180.62 203.57,-287.48l37.47 -36.99c-294.57,-123.22 -552.55,-167.41 -886.83,-45.32 -197.87,72.27 -637.08,367.25 -347.98,573.48z"/>
  <path class="fil6" d="M23489.5 7659.39c113.51,47.73 7.15,-28.14 50.07,33.36l-1.18 150.89c0.82,6.39 7.8,32.77 9.52,39.65 42.78,116.36 231.66,139.75 391.94,110.78 534.24,-96.56 408.53,-543.51 729.66,-802.84 66.31,-53.55 13.23,-4.9 47.28,-47.83 -301,-114.23 -571.34,-178.39 -916.54,-34.63 -471.66,196.41 -466.85,540.28 -310.75,550.62z"/>
  <path class="fil6" d="M25604.16 15201.34c11.73,419.13 1.85,851.59 1.85,1273.5 0,212.94 0.78,426 0.1,638.92 -0.81,256.24 -54.7,345.89 -77.84,539.1l-10.83 17.05 343.46 3.68c0.78,-5.63 1.83,-19.27 2.27,-16.6 0.59,3.41 -2.18,13.13 5.39,-34.75 93.98,-594.32 28.84,-1783.22 37.81,-2452l-302.21 31.1z"/>
  <path class="fil8" d="M22910.45 7766.38c38.9,27.49 18.71,-7.37 56.22,60.11 13.52,24.33 20.74,50.73 28.68,77.44 73.11,245.9 146.42,1231.95 127.72,1429.24 -23.96,-134.46 -169.1,-307.06 -202.02,-430.89 -33.33,19.4 -36.24,3.62 -60.21,38.95 25.23,89.76 111.08,131.5 39.92,256.56 63.72,17.29 48.25,11.24 79.59,84.22 51.67,120.29 78.93,259.33 102.76,388.44 36.25,196.36 58.31,404.18 50.86,611.99l121.75 5.64c-1.96,-186.49 31.58,-384.9 80.04,-555.51 24.75,-87.11 51.26,-158.8 84.14,-235.79 31.06,-72.72 50.9,-164.44 129.07,-198.17l-13.92 -49.75c-14.59,-137.08 106.58,-111.37 -52.41,-152.5l-220.29 441.73c-6.47,-267.68 33.28,-632.64 66.25,-898.87 17.23,-139.23 36.87,-287.42 63.99,-423.2 20.48,-102.59 59.54,-325.34 155.32,-332.73 -1.72,-6.88 -8.7,-33.26 -9.52,-39.65l1.18 -150.89c-42.92,-61.5 63.44,14.37 -50.07,-33.36 -58.27,225.53 -154.64,129.21 -251.82,799.02 -2.52,17.39 -6.86,59.55 -10.46,73.48l-30.35 71.81c-22.57,-898.8 -238.16,-948.82 -273.45,-1127.18 -38.82,20.44 -36.89,-0.51 -63.14,38.85 30.24,116.99 113.19,83.3 50.17,251.01z"/>
  <path class="fil6" d="M27510.56 19082.21l-3.69 -186.06c-168.87,4.96 -347.25,0.03 -517.27,-0.15 -86.24,-0.08 -165.25,-5.6 -241.91,11.86 -155.7,35.46 -32.28,-30.72 -153.72,-6.56 -28.86,165.38 31.97,282.9 100.75,386.37l720.85 -6.01c65.21,-56.81 93.6,-93.56 94.99,-199.45zm-4702.68 -954.82l505.9 0.27c-24.95,-64.42 -197.31,-236.34 -264.15,-258.43 -56.67,44.7 -216.42,193.36 -241.75,258.16zm-4220.87 850.78c-12.05,132.9 41,227.63 97.07,309.77l728.46 -2.9c63.7,-82.28 99.68,-121.01 92.75,-237.81l-161.19 -151.23 -744.4 0.66 -12.69 81.51z"/>
  <polygon class="fil7" points="20256.47,13909.3 20547.53,13909.3 20547.53,17661.19 20256.47,17661.19 "/>
  <path class="fil9" d="M10664.52 20575.39l0 327.72 -46.7 0 46.7 -327.72zm0 0l0 -1450.58c231.73,61.81 88.24,538.78 69.56,835.29 -25.24,397.47 229.74,215.43 678.49,193.77 730.75,-35.58 2937.92,-387.54 3663.91,-547.92 460.27,-101.55 1330.94,-406.02 1671.57,-434.44 -854.76,742.88 -4255.55,1169.97 -6036.62,1169.97l-46.91 233.91zm6083.53 -1403.88l0 0zm140.31 -93.6c49.69,-49.69 177.48,74.33 52.07,24.44 -0.99,-0.39 -130.37,54.06 -52.07,-24.44zm-2573.84 -1825c49.89,-49.69 177.67,74.33 52.27,24.44 -1.19,-0.39 -130.57,54.06 -52.27,-24.44zm-327.51 -46.7c51.07,-51.08 254.38,72.14 73.13,22.45 -1.39,-0.4 -15.3,-4.37 -17.29,-4.97 -5.37,-1.59 -137.33,64 -55.84,-17.48zm-327.52 -46.91c21.26,-21.06 277.04,-94.6 155.61,26.83 -9.14,8.95 38.95,10.34 -49.09,-4.37 -9.74,-1.59 -192.58,63.79 -106.52,-22.46zm-3416.09 0c83.27,-83.07 -83.27,83.27 0,0zm327.52 -46.7l-233.91 35.18 233.91 -35.18zm-748.64 -1029.46c290.75,213.05 374.42,1438.46 374.42,2012.21l-46.9 0 50.47 -8.54 -377.99 -2003.67zm0 0l0 0zm748.64 1029.46l1964.51 -157.6c5.57,-2268.38 189.8,-1918.21 838.27,-2226.05 1.2,-0.6 280.62,250.61 112.29,107.72 -2.78,-2.39 -108.51,-110.1 -107.32,-110.7 -138.12,-287.77 -176.28,-2271.36 -236.3,-2805.37 -142.29,-1267.74 -136.93,-1463.69 -1765.38,-1302.12 -896.1,88.83 -2018.17,-5.17 -2937.92,103.94 -1024.89,121.43 -2087.53,-158 -2781.52,306.85 0.99,1.59 -47.7,138.91 -46.9,140.31 1.39,2.38 47.3,-139.32 48.89,-137.13 362.89,542.95 378.99,374.81 612.9,1066.42 139.71,412.78 290.16,885.77 419.53,1312.06 134.75,444.18 276.45,875.63 411.19,1320.01 192.78,635.16 124.21,808.06 713.27,1018.33 1526.1,544.73 1517.55,-85.46 1709.93,1705.95 101.35,943.6 62,2416.64 62,3400.98l-46.9 0c0,-1069.4 -38.75,-2263.21 -128.98,-3240.4 -174.09,-1885.81 21.47,-1222.03 -1620.7,-1795.19 -617.47,-215.43 -511.15,-373.03 -712.67,-972.02 -152.63,-452.92 -271.07,-859.14 -421.32,-1310.07 -162.17,-486.11 -676.5,-2269.97 -1047.14,-2368.94 16.89,202.91 374.02,941.41 473.19,1211.49 149.45,407.42 256.17,887.36 389.52,1341.88 254.78,868.28 609.33,1724.83 822.58,2593.51 200.72,817.8 229.93,2136.22 341.82,3074.26 92.81,778.25 333.88,492.87 187.61,1340.08 -87.44,506.78 -409.6,972.22 -436.43,1295.37 605.16,13.51 553.88,121.82 827.74,-435.83 187.21,-381.18 237.69,-566.4 342.03,-1014.95 302.28,144.88 1548.16,785.21 1773.13,818.6l-558.25 2141.19c598.59,138.32 630.79,-7.56 840.26,-577.14 154.61,-420.12 284.79,-777.25 284.79,-1353 1060.65,0 2012.6,-79.49 2908.71,-226.56 1009.78,-165.74 1639.18,-468.42 2472.68,-662.58 0,495.45 147.26,841.85 287.77,1209.51 204.7,535.2 269.89,606.74 835.29,474.98l-551.1 -1908.47c876.63,-454.71 648.28,-527.45 741.49,-1691.65 86.85,-1087.09 63.2,-917.56 -1032.64,-1172.94 0,-452.72 -47.49,-629.8 -8.94,-1037.01 156.21,-1646.14 328.51,-1364.53 -1649.51,-1609.77 -2006.25,-248.82 -2272.36,-271.07 -2272.36,1991.74l986.53 165.15 -3045.64 -24.84z"/>
  <path class="fil10" d="M10664.52 20575.39l0 327.72 -46.7 0 46.7 -327.72zm6812.02 -561.74c-82.24,168.04 -253.73,292.05 -622.91,483.93l-1.64 -5.66c366.91,-190.31 540.18,-313.75 624.55,-478.27zm-79.97 2388.24l2.11 7.32c-565.4,131.76 -630.59,60.22 -835.29,-474.98 -140.51,-367.66 -287.77,-714.06 -287.77,-1209.51 -833.5,194.16 -1462.9,496.84 -2472.68,662.58 -894.87,146.87 -1845.44,226.33 -2904.33,226.55l0.03 -8.81c1060.65,0 2012.6,-79.49 2908.71,-226.56 1009.78,-165.74 1639.18,-468.42 2472.68,-662.58 0,495.45 147.26,841.85 287.77,1209.51 203.9,533.11 269.45,606.15 828.77,476.48zm-6937.7 946.75c-121.33,247.18 -258.68,294.96 -689.69,195.36l558.25 -2141.19c-224.47,-33.32 -1465.22,-670.83 -1771.01,-817.58l2.29 -9.84c302.28,144.88 1548.16,785.21 1773.13,818.6l-558.25 2141.19c425.81,98.39 565,52.9 685.28,-186.54zm-2303.19 -1634.85c-213.24,427.22 -211.44,333.7 -771.15,321.2 26.83,-323.15 348.99,-788.59 436.43,-1295.37 146.27,-847.21 -94.8,-561.83 -187.61,-1340.08 -47.68,-399.71 -80.36,-868.48 -117.67,-1338.16l-7.46 -93.13 -22.65 -268.99c-3.37,-38.26 -6.81,-76.4 -10.32,-114.39 -43.04,-465.62 -97.6,-908.69 -183.72,-1259.59 -213.25,-868.68 -567.8,-1725.23 -822.58,-2593.51 -133.35,-454.52 -240.07,-934.46 -389.52,-1341.88 -99.17,-270.08 -456.3,-1008.58 -473.19,-1211.49 -0.8,-1.4 47.89,-138.72 46.9,-140.31l2.38 -1.54c-9.11,28.6 -45.56,131.82 -44.87,133.03 1.27,2.18 39.92,-116.58 47.61,-134.8l1.98 -1.29c362.2,541.67 378.44,374.22 612.2,1065.38 139.71,412.78 290.16,885.77 419.53,1312.06 134.75,444.18 276.45,875.63 411.19,1320.01 192.78,635.16 124.21,808.06 713.27,1018.33 1526.1,544.73 1517.55,-85.46 1709.93,1705.95 101.35,943.6 62,2416.64 62,3400.98l-46.9 0c0,-1069.4 -38.75,-2263.21 -128.98,-3240.4 -174.09,-1885.81 21.47,-1222.03 -1620.7,-1795.19 -617.47,-215.43 -511.15,-373.03 -712.67,-972.02 -152.63,-452.92 -271.07,-859.14 -421.32,-1310.07 -162.17,-486.11 -676.5,-2269.97 -1047.14,-2368.94 16.89,202.91 374.02,941.41 473.19,1211.49 149.45,407.42 256.17,887.36 389.52,1341.88 254.78,868.28 609.33,1724.83 822.58,2593.51 200.72,817.8 229.93,2136.22 341.82,3074.26 92.81,778.25 333.88,492.87 187.61,1340.08 -87.44,506.78 -409.6,972.22 -436.43,1295.37 555.82,12.41 557.91,104.72 766.74,-312.38zm5216.37 -6984.08c0.73,1.65 1.47,3.53 2.21,5.08 -0.53,0.26 19.77,21.39 42.86,45.12 34.88,31.27 79.96,72.14 103.13,94.05 -760.38,52.96 -890.22,519.03 -890.22,2098.33l986.53 165.15 -3045.64 -24.84 1964.51 -157.6c5.57,-2266.44 189.49,-1918.84 836.62,-2225.29zm-2707.53 5845.68l0 -1450.58c231.73,61.81 88.24,538.78 69.56,835.29 -25.24,397.47 229.74,215.43 678.49,193.77 730.75,-35.58 2937.92,-387.54 3663.91,-547.92 460.27,-101.55 1330.94,-406.02 1671.57,-434.44 -854.76,742.88 -4255.55,1169.97 -6036.62,1169.97l-46.91 233.91zm6083.53 -1403.88l0 0zm140.31 -93.6c49.69,-49.69 177.48,74.33 52.07,24.44 -0.99,-0.39 -130.37,54.06 -52.07,-24.44zm-2573.84 -1825c49.89,-49.69 177.67,74.33 52.27,24.44 -1.19,-0.39 -130.57,54.06 -52.27,-24.44zm-327.51 -46.7c51.07,-51.08 254.38,72.14 73.13,22.45 -1.39,-0.4 -15.3,-4.37 -17.29,-4.97 -5.37,-1.59 -137.33,64 -55.84,-17.48zm-327.52 -46.91c21.26,-21.06 277.04,-94.6 155.61,26.83 -9.14,8.95 38.95,10.34 -49.09,-4.37 -9.74,-1.59 -192.58,63.79 -106.52,-22.46zm-3416.09 0c83.27,-83.07 -83.27,83.27 0,0zm327.52 -46.7l-233.91 35.18 233.91 -35.18zm-748.64 -1029.46c290.75,213.05 374.42,1438.46 374.42,2012.21l-46.9 0 50.47 -8.54 -377.99 -2003.67zm0 0l0 0z"/>
  <path class="fil11" d="M24022.92 26248.27l3050.91 0 767.9 -670.28 831.64 670.28 7097.05 0c358.96,0 652.64,293.68 652.64,652.64l0 3227.92c0,358.96 -293.68,652.64 -652.64,652.64l-11747.5 0c-358.96,0 -652.64,-293.68 -652.64,-652.64l0 -3227.92c0,-358.96 293.68,-652.64 652.64,-652.64z"/>
  <path class="fil4" d="M24706.45 27070.11l8078.61 0c111.57,0 202.85,91.28 202.85,202.85l0 0c0,111.57 -91.28,202.85 -202.85,202.85l-8078.61 0c-111.57,0 -202.85,-91.28 -202.85,-202.85l0 0c0,-111.57 91.28,-202.85 202.85,-202.85z"/>
  <path class="fil4" d="M24715.28 27978.51l8078.61 0c111.57,0 202.85,91.28 202.85,202.85l0 0c0,111.57 -91.28,202.85 -202.85,202.85l-8078.61 0c-111.57,0 -202.85,-91.28 -202.85,-202.85l0 0c0,-111.57 91.28,-202.85 202.85,-202.85z"/>
  <path class="fil4" d="M24785.83 29583.65l2848.67 0c111.57,0 202.85,91.28 202.85,202.85l0 0c0,111.57 -91.28,202.85 -202.85,202.85l-2848.67 0c-111.57,0 -202.85,-91.28 -202.85,-202.85l0 0c0,-111.57 91.28,-202.85 202.85,-202.85z"/>
  <polyline class="fil12 str1" points="34751.74,27899.08 35289.73,28472.35 34787.02,29120.58 "/>
  <path class="fil13" d="M30152.54 21202.14l1704.37 -5.03 7.03 90.01 -1718.56 1.05c-2.15,-47.24 -6.32,-53.71 7.16,-86.03zm-5.35 -297.93l1713.96 -6.15 -0.23 89.91 -1708.12 1.87c-14.31,-38.34 -11.48,-41.88 -5.61,-85.63zm1712.73 -303.01l2.46 90.27 -1718.06 -4.72c-0.2,-25.7 -2.43,-57.69 10.42,-87.4l1705.18 1.85zm-1714.14 -300.24l1717.22 2.18 -3.53 89.92 -1713.96 -4.82 0.27 -87.28zm1128.09 1815.2c999.54,0 1690.24,-126.9 1898.67,-1158.77 37.71,-186.67 105.81,-751.77 75.64,-934.81 -549.16,-325.14 -1425.37,-575.19 -2188.82,-575.19 -511.63,0 -850.85,48.57 -1324.09,175.5 -370.46,99.37 -673.14,245.8 -978.43,399.38 -22.13,261 26.74,728.9 74.99,980.4 49.05,255.58 154.26,558.84 334.89,728.91 477.56,449.64 1451.12,384.58 2107.15,384.58z"/>
  <path class="fil13" d="M30359.09 16619c125.17,-102.13 443.75,-171.16 643.6,-172.13 192.96,-0.94 527.61,72.26 644.22,172.13 -7.44,51.83 -70.47,140.64 -96.06,186.74 -31.29,56.37 -72.77,134.94 -107.5,176.87 -60.85,-15.59 -126.63,-55.04 -198.13,-75.06 -374.64,-104.88 -589.95,58.4 -683.19,74.16 -29.42,-33.51 -196.13,-325.17 -202.94,-362.71zm-1599.33 3271.14l475.22 -214.18c593.87,-218.65 1097.75,-341.91 1767.71,-340.4 437.39,0.99 848.77,61.63 1242.49,165.1 264.26,69.46 527.56,168.49 771.29,279.84 60.16,27.49 179.05,99.53 230.52,110.38 33.83,-116.78 -37.75,-725.1 -58.13,-869.16 -72.03,-509.06 -223.24,-997.2 -440.09,-1448.42 -66.9,-139.21 -347.04,-601.33 -433.36,-671.84 -133.85,327.37 -363.72,654.5 -696.95,981.39 -6.96,19.85 166.01,671.78 -356.39,893.56 -379,160.9 -811.78,-61.45 -911.89,-464.48 -119.34,-480.5 415.95,-869.09 924.5,-723.15 62.08,17.81 41.68,3.99 126.48,-91.83 184.59,-179.55 548.42,-637.26 565.8,-911.57 -111.28,-109.96 -506.88,-311.06 -693.92,-348.32 -598.13,-119.15 -1198.15,197.05 -1543.31,623.21 -66.63,82.26 -136.5,156.55 -199.28,252.44 -394.55,602.56 -619.79,1217.1 -717.93,1947.52 -21.87,162.75 -84.71,686.74 -52.76,829.91z"/>
  <path class="fil14" d="M36408.32 22024.53c18.68,-77.05 -111.07,-273.32 -149.29,-323.46 -57.87,-75.91 -158.65,-166.95 -269.92,-204.53 -342,-115.5 -1403.9,-116.69 -1733.06,3.34 -238.92,87.12 -433.81,443.01 -411.55,527.86l2563.82 -3.21z"/>
  <path class="fil13" d="M32613.71 21990.73c77.69,15.65 305,1.36 400.19,2.04 124.48,0.89 260.72,11.7 366.85,-35.67 252.32,-112.63 262.77,-318.2 262.76,-536.05 -0.01,-267.41 -0.08,-534.82 0.01,-802.23 0.04,-147.32 0.67,-225.89 -66.71,-336.95 -39.68,-65.38 -132.65,-161.37 -223.94,-173.4 -23.96,534.05 -47.65,1174.86 -388.77,1590.16 -57.94,70.54 -88.25,99.25 -165.7,162.18 -105.34,85.59 -179.96,92.3 -184.69,129.92z"/>
  <path class="fil13" d="M28653.61 20106.98c-103.4,22.65 -178.75,104.42 -224.04,175.75 -65.56,103.25 -66.24,184.84 -67.38,324.79 -2.15,263.3 -0.21,527.56 -0.13,790.93 0.05,216.92 5.58,424.43 243.1,544.96 139.36,70.72 558,55.46 740.51,46.69l-54.38 -44.23c-124.07,-67.44 -136.56,-100.59 -220.51,-174.69 -35.7,-31.51 -41.4,-44.8 -72.24,-86.14 -91.24,-122.3 -156.74,-260.9 -209.84,-434.86 -111,-363.69 -116.02,-745.23 -135.09,-1143.2z"/>
  <path class="fil14" d="M34760.38 21335.52c59.1,14.97 658.6,13.23 738.04,2.38l-1.88 -400.46c-69.88,-12.12 -683.18,-12.9 -738.93,2.65l2.77 395.43z"/>
  <path class="fil15" d="M32614.08 21988.51c0.19,-0.9 0.41,-1.79 0.69,-2.68 -0.28,0.88 -0.5,1.77 -0.69,2.68z"/>
  <polygon class="fil15" points="31877.62,16525.83 31877.55,16526.51 31877.3,16528.63 "/>
  <path class="fil15" d="M29568.2 21968.31l-0.12 0 -237.98 9.12 -0.01 0 -38.8 -31.56c-124.07,-67.44 -136.56,-100.59 -220.51,-174.69 -35.7,-31.51 -41.4,-44.8 -72.24,-86.14 -91.24,-122.3 -156.74,-260.9 -209.84,-434.86 -110.36,-360.76 -116.22,-739.1 -134.65,-1133.87l99.27 -38.75 0.17 -3.61c-12.61,267.4 33.11,693.06 78.34,928.72 49.05,255.58 154.26,558.84 334.89,728.91 110.58,104.13 247.8,180.61 401.48,236.73z"/>
  <polygon class="fil15" points="29571.22,21969.43 29568.22,21968.36 29568.08,21968.31 29568.2,21968.31 "/>
  <path class="fil15" d="M29600.62 21979.77c-6.99,-2.39 -13.93,-4.83 -20.85,-7.29 6.92,2.47 13.86,4.9 20.85,7.29z"/>
  <path class="fil15" d="M29630.88 21989.8c-7.18,-2.3 -14.32,-4.65 -21.43,-7.04 7.11,2.39 14.26,4.74 21.43,7.04z"/>
  <path class="fil15" d="M29667.99 22001.33c-9.66,-2.88 -19.26,-5.83 -28.8,-8.85 9.54,3.02 19.15,5.97 28.8,8.85z"/>
  <path class="fil15" d="M29698.07 22010.01c-8.15,-2.28 -16.26,-4.63 -24.34,-7 8.08,2.38 16.19,4.71 24.34,7z"/>
  <path class="fil15" d="M29728.67 22018.34c-7.34,-1.93 -14.64,-3.9 -21.91,-5.91 7.28,2.01 14.58,3.98 21.91,5.91z"/>
  <path class="fil15" d="M29767.03 22028.11c-9.65,-2.36 -19.24,-4.78 -28.8,-7.26 9.55,2.48 19.15,4.91 28.8,7.26z"/>
  <path class="fil15" d="M29798.25 22035.48c-8.07,-1.85 -16.11,-3.75 -24.13,-5.68 8.02,1.93 16.06,3.83 24.13,5.68z"/>
  <path class="fil15" d="M29829.33 22042.37c-7.1,-1.53 -14.18,-3.08 -21.25,-4.67 7.07,1.59 14.15,3.14 21.25,4.67z"/>
  <path class="fil15" d="M29865.49 22049.87c-8.25,-1.64 -16.49,-3.32 -24.69,-5.05 8.2,1.73 16.44,3.41 24.69,5.05z"/>
  <path class="fil15" d="M29968.22 22068.28c-7.92,-1.27 -15.82,-2.56 -23.7,-3.89 7.88,1.33 15.79,2.62 23.7,3.89z"/>
  <path class="fil15" d="M30008.22 22074.43c-10.42,-1.53 -20.81,-3.1 -31.16,-4.73 10.35,1.63 20.74,3.2 31.16,4.73z"/>
  <path class="fil15" d="M30115.84 22088.4c-10.32,-1.17 -20.62,-2.4 -30.89,-3.67 10.28,1.27 20.57,2.49 30.89,3.67z"/>
  <path class="fil15" d="M30148.88 22092c-9.44,-0.99 -18.87,-2.02 -28.28,-3.08 9.41,1.06 18.84,2.09 28.28,3.08z"/>
  <path class="fil15" d="M30223.7 22099.14c-10.06,-0.87 -20.11,-1.77 -30.15,-2.71 10.04,0.94 20.09,1.84 30.15,2.71z"/>
  <path class="fil15" d="M31318.52 22116.07c-14.82,0.06 -29.7,0.09 -44.65,0.09 14.96,0 29.83,-0.03 44.65,-0.09z"/>
  <path class="fil15" d="M31410.74 22115.26c-29.79,0.41 -59.87,0.67 -90.24,0.8 30.38,-0.13 60.45,-0.39 90.24,-0.8z"/>
  <path class="fil15" d="M31456.68 22114.5c-13.82,0.26 -27.71,0.5 -41.67,0.7 13.96,-0.2 27.85,-0.44 41.67,-0.7z"/>
  <path class="fil15" d="M31497.83 22113.57c-12.97,0.32 -25.98,0.62 -39.05,0.88 13.08,-0.26 26.08,-0.56 39.05,-0.88z"/>
  <path class="fil15" d="M31545.7 22112.2c-12.98,0.43 -26.02,0.8 -39.12,1.15 13.1,-0.35 26.14,-0.72 39.12,-1.15z"/>
  <path class="fil15" d="M31587.26 22110.71c-13.2,0.52 -26.47,1 -39.81,1.43 13.34,-0.43 26.61,-0.91 39.81,-1.43z"/>
  <path class="fil15" d="M31630.62 22108.83c-12.53,0.59 -25.13,1.15 -37.78,1.66 12.65,-0.51 25.25,-1.07 37.78,-1.66z"/>
  <path class="fil15" d="M31674.61 22106.58c-12.81,0.71 -25.69,1.38 -38.63,2 12.94,-0.62 25.82,-1.29 38.63,-2z"/>
  <path class="fil15" d="M31717.07 22104.02c-13,0.85 -26.08,1.64 -39.22,2.38 13.15,-0.74 26.22,-1.53 39.22,-2.38z"/>
  <path class="fil15" d="M31801.09 22097.76c-13.14,1.12 -26.36,2.18 -39.64,3.17 13.29,-1 26.5,-2.05 39.64,-3.17z"/>
  <path class="fil15" d="M31842.31 22094.02c-12.77,1.23 -25.61,2.4 -38.53,3.5 12.92,-1.1 25.77,-2.27 38.53,-3.5z"/>
  <path class="fil15" d="M31882.76 22089.89c-12.47,1.35 -25.01,2.63 -37.62,3.85 12.61,-1.22 25.16,-2.5 37.62,-3.85z"/>
  <path class="fil15" d="M31922.11 22085.39c-12.23,1.47 -24.53,2.88 -36.91,4.23 12.38,-1.35 24.67,-2.76 36.91,-4.23z"/>
  <path class="fil15" d="M31960.77 22080.48c-11.73,1.57 -23.51,3.07 -35.37,4.51 11.86,-1.44 23.64,-2.94 35.37,-4.51z"/>
  <path class="fil15" d="M31999.39 22075.05c-11.32,1.67 -22.7,3.28 -34.16,4.83 11.46,-1.55 22.85,-3.16 34.16,-4.83z"/>
  <path class="fil15" d="M32037.49 22069.14c-11.03,1.79 -22.12,3.53 -33.28,5.2 11.16,-1.67 22.25,-3.41 33.28,-5.2z"/>
  <path class="fil15" d="M32075.93 22062.59c-11.11,1.99 -22.3,3.91 -33.56,5.76 11.25,-1.85 22.45,-3.77 33.56,-5.76z"/>
  <path class="fil15" d="M32112.62 22055.72c-11.06,2.16 -22.18,4.26 -33.38,6.28 11.2,-2.02 22.33,-4.12 33.38,-6.28z"/>
  <path class="fil15" d="M32150.88 22047.89c-11.35,2.43 -22.78,4.79 -34.29,7.06 11.51,-2.27 22.94,-4.63 34.29,-7.06z"/>
  <path class="fil15" d="M32187.51 22039.71c-11.61,2.71 -23.3,5.32 -35.08,7.85 11.78,-2.53 23.47,-5.14 35.08,-7.85z"/>
  <path class="fil15" d="M32223.04 22031.07c-11.3,2.87 -22.68,5.64 -34.15,8.32 11.47,-2.69 22.85,-5.46 34.15,-8.32z"/>
  <path class="fil15" d="M32258.89 22021.6c-11.42,3.15 -22.93,6.18 -34.53,9.13 11.6,-2.95 23.11,-5.99 34.53,-9.13z"/>
  <path class="fil15" d="M32292.95 22011.85c-11.23,3.34 -22.58,6.57 -33.99,9.72 11.41,-3.15 22.76,-6.38 33.99,-9.72z"/>
  <path class="fil15" d="M32326.26 22001.55c-10.54,3.38 -21.15,6.67 -31.86,9.86 10.71,-3.19 21.32,-6.48 31.86,-9.86z"/>
  <path class="fil15" d="M32359.87 21990.35c-10.14,3.5 -20.35,6.92 -30.64,10.24 10.29,-3.32 20.51,-6.74 30.64,-10.24z"/>
  <path class="fil15" d="M32391.76 21978.91c-9.71,3.61 -19.48,7.13 -29.34,10.56 9.86,-3.43 19.64,-6.95 29.34,-10.56z"/>
  <path class="fil15" d="M32424.72 21966.19c-9.47,3.79 -19.01,7.49 -28.63,11.1 9.62,-3.61 19.16,-7.32 28.63,-11.1z"/>
  <path class="fil15" d="M32456.03 21953.2c-9.45,4.05 -18.96,8.02 -28.56,11.89 9.6,-3.87 19.11,-7.83 28.56,-11.89z"/>
  <path class="fil15" d="M33253.29 20069.11l0.02 0.01 98.14 71.15c-23.6,527.51 -52.97,1151.27 -387.35,1558.36 -57.94,70.54 -88.25,99.25 -165.7,162.18 -71.62,58.19 -129.03,79.9 -159.94,99.69l-160.44 -16.95c-6.15,2.77 -12.34,5.5 -18.55,8.18 356.16,-154.2 602.5,-446.91 713.07,-994.34 34.92,-172.89 95.9,-670.34 80.75,-888.28z"/>
  <polygon class="fil15" points="33252.81,20062.3 33253.16,20066.9 33253.31,20069.12 33253.29,20069.11 "/>
  <path class="fil15" d="M33249.6 20032c0.39,2.81 0.76,5.7 1.1,8.66l-1.1 -8.66z"/>
  <path class="fil15" d="M33248.18 20022.58c0.47,2.83 0.91,5.76 1.33,8.77 -0.43,-3.02 -0.85,-5.94 -1.33,-8.77z"/>
  <path class="fil15" d="M33225.45 20009.28c7.21,4.14 14.33,8.34 21.4,12.52 -7.07,-4.17 -14.2,-8.35 -21.4,-12.52z"/>
  <path class="fil15" d="M33218.25 19881.65l0 0.01 -1.16 122.79 2.51 1.45c-550.64,-316.98 -1409.89,-558.51 -2160.24,-558.51 -511.63,0 -850.85,48.57 -1324.09,175.5 -365.06,98.09 -664.25,241.33 -965.06,392.66l-4.94 -127.89 469.71 -211.7c593.87,-218.65 1097.75,-341.91 1767.71,-340.4 437.39,0.99 848.77,61.63 1242.49,165.1 264.26,69.46 527.56,168.49 771.29,279.84 50.73,23.17 143.18,78 201.78,101.15z"/>
  <path class="fil16" d="M14766.7 2831.15l16523.23 0c601.49,0 1093.61,492.12 1093.61,1093.61l0 7523.13c-212.26,126.89 -403.1,287.54 -564.19,478.03l0 -7806.99c0,-334.67 -273.82,-608.49 -608.49,-608.49l-16474.85 0c-334.67,0 -608.49,273.82 -608.49,608.49l0 10782.57c-169.47,-15.38 -320.33,-24.31 -454.43,-24l0 -10952.74c0,-601.49 492.12,-1093.61 1093.61,-1093.61zm17616.84 9132.14l0 3955.69c-68.57,-329.53 -211.37,-655.13 -353.04,-1005.39 -78.16,-193.24 -152.63,-403.91 -211.15,-623.32l0 -1549.58c23.36,-62.32 50.41,-123.71 81.58,-183.94 110.35,-213.23 273.29,-421.21 482.61,-593.46zm0 4704.09l0 329.29 -5.73 10.51 -68.15 -104.4 1.17 -3.06c30.86,-78.82 54.84,-156.17 72.71,-232.34zm-555.2 2854l-8.99 -1.64 0 -0.03 8.99 1.67zm555.2 2460.49l0 3718.08c0,601.49 -492.12,1093.61 -1093.61,1093.61l-16523.23 0c-601.49,0 -1093.61,-492.12 -1093.61,-1093.61l0 -4291.88 2.03 -0.32 1.61 -0.24 0.43 -0.07 2.03 -0.32 2.04 -0.32 2.03 -0.32 2.04 -0.32 2.03 -0.31 2.03 -0.32 22.36 -3.53 2.03 -0.32 2.03 -0.32 2.03 -0.32 1.07 -0.17 0.96 -0.15 2.03 -0.33 2.03 -0.32 2.03 -0.32 18.26 -2.92 2.03 -0.33 2.03 -0.32 2.03 -0.33 2.02 -0.32 2.03 -0.33 2.03 -0.33 2.03 -0.32 2.02 -0.33 0.54 -0.08 1.49 -0.25 2.03 -0.32 2.02 -0.33 2.03 -0.33 2.02 -0.33 2.03 -0.33 2.02 -0.33 22.19 -3.62 0.08 -0.01 2.02 -0.33 2.03 -0.33 2.02 -0.33 0.01 0 0.67 -0.11c15.55,-2.56 31.01,-5.14 46.39,-7.76l0.18 -0.03c13.92,-2.37 27.76,-4.76 41.54,-7.19l4.79 -0.84 0.37 -0.07 1.18 -0.21c13.36,-2.35 26.66,-4.74 39.89,-7.15l4.54 -0.82 0.56 -0.11 1.85 -0.34c12.98,-2.38 25.9,-4.77 38.75,-7.19l5.05 -0.95 5.04 -0.95 35.1 -6.73 4.08 -0.79 0.91 -0.18 4.99 -0.98 29.78 -5.88 4.94 -0.98 4.94 -0.99 4.93 -1 4.92 -0.99 24.54 -5 4.89 -1 0.24 -0.05 4.64 -0.96 4.88 -1.01 0 519.08c0,334.67 273.82,608.49 608.49,608.49l2189.35 0 0.17 0.04 2.79 0.69c3.3,0.79 6.63,1.54 10,2.25l3.12 0.64c3.29,0.65 6.62,1.27 9.98,1.85l3.68 0.61c3.34,0.54 6.71,1.03 10.12,1.49l3.72 0.49c3.29,0.41 6.62,0.79 9.97,1.13l4.18 0.41c3.31,0.3 6.66,0.58 10.04,0.82l5.22 0.34c3.48,0.21 7,0.39 10.55,0.53l4.06 0.14c3.4,0.11 6.82,0.19 10.28,0.24l5.41 0.06c3.65,0.02 7.34,0.01 11.07,-0.04l4.61 -0.07c3.83,-0.07 7.71,-0.18 11.62,-0.32l4.94 -0.19c3.68,-0.16 7.41,-0.34 11.17,-0.56l6.81 -0.41c3.49,-0.22 7,-0.46 10.54,-0.74l7.38 -0.6 11.56 -1.05 4.55 -0.45 13.34 -1.43 6.35 -0.73 11.35 -1.41 7.49 -0.97 0.73 -0.1 4.65 -0.64 8.4 -1.17 5.77 -0.85 0.01 0 14039.87 0c243.88,0 455.41,-145.42 552.25,-353.82 230.72,-17.44 438.52,-52.54 620.43,-118.92zm-564.19 -694.72l0 -89.93 37.56 -0.11 7.03 90.01 -44.59 0.03zm0 -299.13l0 -89.81 41.8 -0.15 -0.23 89.91 -41.57 0.05zm0 -296.67l0 -90.19 40.57 0.04 2.46 90.27 -43.03 -0.12zm0 -298.4l0 -89.87 43.65 0.06 -3.53 89.92 -40.12 -0.11zm57.66 -3861.78c1.09,-8.95 1.69,-17.38 1.75,-25.16 -16.04,-15.85 -36.17,-31.94 -59.41,-47.99l0 -946.62c37.02,95.8 71.59,192.6 101.36,291.58 90.77,301.8 104.21,549.68 48,781.69l-91.7 -53.5zm89.27 63.36c-1.49,5.94 -3.04,11.87 -4.62,17.79 1.58,-5.92 3.13,-11.85 4.62,-17.79zm-5.33 20.42c-1.31,4.86 -2.66,9.72 -4.03,14.57 1.38,-4.85 2.72,-9.71 4.03,-14.57zm-5.19 18.64c-1.49,5.2 -3.02,10.39 -4.58,15.58 1.56,-5.19 3.09,-10.38 4.58,-15.58zm-18282.67 3473.74l0 -8.16c152.77,-22.73 304.58,-47 454.43,-72.77l0 8.06c-149.84,25.8 -301.64,50.1 -454.43,72.87zm0 -2896.34l0 -8.19c36.49,-4.75 87.88,-21.86 92.92,-21.04 27.4,4.58 41.62,7.6 48.47,9.31l-3.79 3.88c-9.14,8.94 38.94,10.34 -49.07,-4.37 -4.85,-0.8 -52.43,14.95 -88.53,20.41zm168.12 -56.39c-3.52,9.17 -11.83,20.99 -26.23,35.97 -1.24,-1.12 -1.73,-2.63 0.12,-4.44 12.49,-12.49 20.93,-22.89 26.11,-31.53zm286.31 93.37l0 -7.2 -0.25 -0.3c-9.67,1.2 -30.58,-1.79 -67.13,-11.81 -1.39,-0.4 -15.3,-4.37 -17.29,-4.97 -4.24,-1.26 -87.56,39.44 -82.06,16.32 -27.14,40.4 72.97,-8.87 77.66,-7.49 1.97,0.6 15.88,4.57 17.27,4.96 44.36,12.16 65.64,13.95 71.8,10.49z"/>
  <polygon class="fil15" points="30145.78,20300.96 31863,20303.14 31859.47,20393.06 30145.51,20388.24 "/>
  <path class="fil15" d="M31859.92 20601.2l2.46 90.27 -1718.06 -4.72c-0.2,-25.7 -2.43,-57.69 10.42,-87.4l1705.18 1.85z"/>
  <path class="fil15" d="M30147.19 20904.21l1713.96 -6.15 -0.23 89.91 -1708.12 1.87c-14.31,-38.34 -11.48,-41.88 -5.61,-85.63z"/>
  <path class="fil15" d="M30152.54 21202.14l1704.37 -5.03 7.03 90.01 -1718.56 1.05c-2.15,-47.24 -6.32,-53.71 7.16,-86.03z"/>
  <path class="fil15" d="M30359.09 16619c125.17,-102.13 443.75,-171.16 643.6,-172.13 192.96,-0.94 527.61,72.26 644.22,172.13 -7.44,51.83 -70.47,140.64 -96.06,186.74 -31.29,56.37 -72.77,134.94 -107.5,176.87 -60.85,-15.59 -126.63,-55.04 -198.13,-75.06 -374.64,-104.88 -589.95,58.4 -683.19,74.16 -29.42,-33.51 -196.13,-325.17 -202.94,-362.71z"/>
  <path class="fil17" d="M31007.77 17519.28c372.48,0 674.42,290.71 674.42,649.33 0,358.62 -301.94,649.33 -674.42,649.33 -372.48,0 -674.43,-290.71 -674.43,-649.33 0,-358.62 301.95,-649.33 674.43,-649.33z"/>
  <path class="fil17" d="M34919.05 20826.58l402.76 1.03c19.88,-71.52 6.42,-2723.95 6.87,-2875.34 3.28,-1080.03 72.79,-1547.68 291.35,-2592.03 166.71,-796.64 355.74,-1718.38 180.4,-2554.95 -167.07,-797.13 -635.08,-1320.25 -1327.94,-1554.64 -1574.93,-532.78 -3249.52,493.32 -3191.48,2306.33 13.78,430.54 114.21,830.76 239.44,1199.58 121.54,357.94 292.41,687.85 400.26,1046.42 169.22,562.62 69.79,937.85 -248.8,1372.19 -120.84,164.73 -373.09,443.62 -517.55,567.07 -62.3,53.23 -122.62,89.76 -157.65,192.77 -36.51,107.34 15.77,198.02 89.24,239.33 167.2,94.04 331.59,-102.48 453.99,-216.03 205.77,-190.92 476.63,-498.65 646.72,-799.35 469.62,-830.19 153.93,-1478.71 -156.16,-2245.37 -280.82,-694.34 -514.37,-1613.29 -129.57,-2356.84 290.75,-561.82 946.32,-1087.48 1854.48,-1017.87 893.51,68.49 1419.27,497.89 1612.92,1267.33 198.85,790.1 -12.67,1776.96 -173.55,2534.86 -214.77,1011.89 -285.39,1552.26 -285.26,2599.9 0.04,321.06 -23.79,2797.64 9.53,2885.61z"/>
 </g>
</svg>
