<?xml version="1.0" encoding="UTF-8"?>
<!DOCTYPE svg PUBLIC "-//W3C//DTD SVG 1.1//EN" "http://www.w3.org/Graphics/SVG/1.1/DTD/svg11.dtd">
<!-- Creator: CorelDRAW 2018 (64-Bit Evaluation Version) -->
<svg xmlns="http://www.w3.org/2000/svg" xml:space="preserve" width="440.267mm" height="321.733mm" version="1.1" style="shape-rendering:geometricPrecision; text-rendering:geometricPrecision; image-rendering:optimizeQuality; fill-rule:evenodd; clip-rule:evenodd"
viewBox="0 0 44026.66 32173.34"
 xmlns:xlink="http://www.w3.org/1999/xlink">
 <defs>
  <style type="text/css">
   <![CDATA[
    .str0 {stroke:#3B9CFF;stroke-width:338.67;stroke-miterlimit:22.9256;stroke-opacity:0.341176}
    .fil15 {fill:none}
    .fil0 {fill:none;fill-opacity:0.101961}
    .fil1 {fill:#99D2FF;fill-opacity:0.129412}
    .fil16 {fill:#3B9CFF;fill-opacity:0.341176}
    .fil5 {fill:#3B9CFF;fill-opacity:0.360784}
    .fil14 {fill:#5AEEBC;fill-opacity:0.400000}
    .fil11 {fill:#3B9CFF;fill-opacity:0.400000}
    .fil13 {fill:#7E818A;fill-opacity:0.400000}
    .fil12 {fill:#B2B2B2;fill-opacity:0.400000}
    .fil10 {fill:white;fill-opacity:0.400000}
    .fil3 {fill:white;fill-opacity:0.431373}
    .fil4 {fill:white;fill-opacity:0.788235}
    .fil9 {fill:#5AEEBC}
    .fil2 {fill:#3B9CFF}
    .fil8 {fill:#5AEEBC}
    .fil6 {fill:#5AEEBC;fill-rule:nonzero}
    .fil7 {fill:#3B9CFF;fill-rule:nonzero}
   ]]>
  </style>
 </defs>
 <g id="Layer_x0020_1">
  <metadata id="CorelCorpID_0Corel-Layer"/>
  <polygon class="fil0" points="-0,0 44026.66,0 44026.66,32173.34 -0,32173.34 "/>
  <path class="fil1" d="M12165.99 1767.48l28592.59 0c625.76,0 1137.74,511.98 1137.74,1137.74l0 15777.94c0,625.76 -511.98,1137.74 -1137.74,1137.74l-28592.59 0c-625.76,0 -1137.74,-511.98 -1137.74,-1137.74l0 -15777.94c0,-625.76 511.98,-1137.74 1137.74,-1137.74z"/>
  <path class="fil2" d="M13273.06 4279.46c5.55,0.57 3.23,28.53 3.23,38.26 0,24.09 1.87,118.23 -1.36,128.34 -3.68,1.2 -49.94,3.95 -54.89,-0.52 -0.33,-0.38 -0.83,-1.44 -0.93,-1.17 -1.55,4.05 -2.05,-16.83 -2.05,-17.53 0.14,-31.49 -1.88,-132.31 1.15,-148.37 5.33,-2.09 49.1,-5.27 54.85,0.99zm116.08 49.08c2.95,8.84 -0.97,108.62 -4.09,114.7 -3.59,4.36 -47.03,2.2 -52.23,1.98 -4.96,-25.88 4.33,-83.11 3.5,-112.46 -0.09,-15.3 -0.83,-40.89 3.1,-53.41l53.6 -1.29c1.79,9.2 0.97,17.42 0.44,26.6 -0.76,13.33 -0.56,18.26 -4.32,23.88zm-235.37 -48.45l7.83 164.22c-11.73,0.93 -45.2,2.37 -55.31,-1.43 -0.35,-11.74 -7.96,-158.66 -5.95,-161.79 3.26,-5.06 49.33,-2.94 53.43,-1zm457.26 163.26c-3.93,5.47 0.35,2.55 -5.56,4.2l-51.72 -0.21c-2.02,-7.86 -2.36,-12.03 3.35,-19.42 -0.37,-7.58 5.48,-34.65 6.48,-44.42 1.28,-12.6 6.08,-36.21 4.75,-46.1 2.42,-15.52 5.12,-48.74 10.05,-59.59l55.38 -0.4c0.53,7.54 1.32,12.3 -2.96,18 1.38,11.57 -8.11,57.17 -10.01,73.09 -1.48,12.37 -11.24,68.39 -9.76,74.85zm-112.3 0.95l-54.78 1.27c-1.3,-7.89 11.2,-145.58 15.33,-166.73 9.21,-0.45 18.45,-0.24 27.67,-0.26 9.1,-0.01 23.75,-2.45 26,3.86l-14.22 161.86zm-637.84 -165.54c63.86,-2.45 53.2,-1.56 56.64,19.66 1.17,7.2 2.53,11.01 3.19,21.15 1.41,21.86 18.64,115.86 17.86,125.28l-54.85 0.54c-3.76,-19.29 -24.29,-156.08 -22.84,-166.63zm884.55 38.17c0.6,8.36 -21.56,122.58 -23.98,126.08 -3.2,2.86 2.01,0.41 -3.66,1.84l-51.21 -0.06c-0.79,-10.73 15.24,-77.73 18.4,-98.86l12.57 -67.37 55.69 -0.27 -4.78 34.31c-1.37,3.57 -1.22,2.52 -3.03,4.33zm-706.04 3.96c-1.17,8.46 3.46,51.2 4.93,61.85 1.77,12.98 6.69,49.18 5.36,62.07l-53.19 0.62 -15.29 -154.37c-3.23,-4.2 -3.71,-2.06 -3.13,-10.97 6,-4.96 12.84,-2.94 25.4,-2.92 41.02,0.07 33.69,-7.57 35.92,43.72zm-298.81 -42.03l53.74 -0.27c0.06,0.22 32.04,150.99 31.75,159.73 -0.39,11.86 1.38,-7.25 -0.38,2.9 -0.07,0.38 -0.34,1.07 -0.4,1.37 -1.57,6.91 -50.69,2.75 -55.1,0.41 -1.85,-6.09 -1.42,-14.23 -2.96,-20.83 -1.52,-6.48 -3.03,-13.2 -4.27,-19.97 -4.01,-21.83 -23.29,-114.4 -22.38,-123.34zm481.1 -307l49.27 -0.33c5.47,1.78 3.33,-3.68 5.47,5.6 0.01,0.04 -0.08,8.65 -0.09,9.44 -0.27,14.86 2.23,138.74 -1.74,143.18 -7.47,5.09 -45.65,4.24 -56.22,1.11 -0.91,-3.36 -3.35,-128.95 -1.56,-150.06 0.97,-11.46 0.62,-6.61 4.87,-8.94zm-77.69 83.53l0.21 32.93c2.42,2.28 3.26,2.05 3.96,10.49l-0.32 32.16c-10.16,2.69 -47.17,2.82 -57.06,-0.24 -2.06,-9.45 -2.69,-21.21 -0.46,-30.29 -1.76,-1.26 -8.6,-117.98 -6.58,-129.21l56.27 1.44c2.52,9.27 5.52,71.68 3.98,82.72zm255.87 75.21c-11.85,0.33 -43.35,3.14 -51.59,-1.29 -0.3,-0.37 -0.6,-1.49 -0.67,-1.24 -0.07,0.25 -0.51,-0.98 -0.6,-1.3 -0.58,-2.2 -0.68,-1.22 -0.93,-4.71l3.64 -71.48c0.57,-17.24 1.92,-65.05 5.69,-78.52l52.29 -0.23c2.22,14.44 -2.58,96.11 -5.55,117.44 -1.86,13.33 1.61,28.39 -2.28,41.33zm255.11 -0.49l-54.85 0.05c1.35,-15.79 21.52,-152.25 24.02,-156.73 9.57,-4.74 39.89,-1.85 52.63,-1.49 2.02,13.96 -18.99,133.19 -21.8,158.17zm-126.69 -0.08l-53.81 0.76c-2.01,-8.89 11.3,-149.75 14.35,-158.4l53.9 -0.51 -14.44 158.15zm-645.64 -67.63c2.33,1.98 3.65,-3.08 5.45,16.29 1.1,11.79 7.52,44.2 5.88,52.3 -10.43,2.49 -30.46,1.42 -42.88,1.56 -16.67,0.2 -11.87,-1.22 -14.36,-3.58 0.36,-5.08 -3.54,-31.42 -5.04,-38.14l-15.93 -118.73c9.25,-0.55 18.54,-0.29 27.8,-0.3 5.46,0 22.46,-1.76 26,2.1 1.88,3.1 13.43,81.46 13.08,88.5zm900.02 67.74l-54.29 0.62c-2.13,-10.29 25.09,-135.62 28.87,-158.05l54.87 -0.93 -29.45 158.36zm-778.32 -155.92l14.76 155.87 -53.26 0.19c-2.95,-6.6 -11.7,-101.43 -10.64,-111.04 -6.21,-7.78 -6.78,-38.46 -6.05,-47.31l48.82 -1.71c6.18,1.44 3.34,0.38 6.37,4zm-323.73 -1.78l53.73 -0.66 30.89 158.38 -46.1 0.45c-11.39,-0.73 -8.15,3.02 -14.56,-31.3l-23.96 -126.87zm1295.97 -148.36l-1459.44 0.21c1.3,15.54 29.68,136.87 33.75,153.96 8.56,36 26.35,124.32 34.44,152.18 6.54,22.52 12.11,50.47 17.71,76.29l60.79 264.8c2.06,9.73 6.25,25.1 9.28,37.21 7.51,30.08 7.19,45.05 28.86,63.48 20.57,17.49 49.88,12.54 81.39,12.54l931.21 0c33.75,0 56.5,5.24 77.9,-14.17 23.77,-21.56 19.92,-32.54 28.42,-65.77 6.63,-25.89 10.98,-48.69 17.08,-75.33l43.66 -189.6c14.95,-55.23 29.99,-139.24 44.19,-188.38 3.6,-12.43 5.71,-25.25 8.71,-38.45 2.84,-12.48 5.4,-23.65 8.34,-36.85 2,-8.99 2.79,-9.24 4.54,-19.49 4.65,-27.29 3.7,-16.94 8.67,-36.69 4.27,-16.92 20.03,-84.57 20.5,-95.94z"/>
  <path class="fil2" d="M13576.09 3671.1c35.61,-16.96 58.47,42.29 22.51,56.59 -27.61,10.99 -51.07,-18.29 -38.56,-42.41 4.92,-9.48 6.6,-9.69 16.05,-14.18zm-678.59 0.48c8.33,-4.96 16.71,-3.79 23.99,-0.04 27.42,14.1 18.42,48.68 -0.06,56.18 -25.34,10.28 -52.27,-15.65 -38.72,-42.47 5.39,-10.67 6.33,-8.63 14.79,-13.67zm1135.63 99.23c0.96,-17.2 2.12,-104.71 -1.27,-116.65 -3.54,-12.49 -17.06,-23.93 -31.76,-26.3 -14.86,-2.4 -1298.91,-0.53 -1448.12,-0.53 -29.92,0 -78.76,-9.2 -88.17,28.49 -3.14,12.59 -1.84,97.58 -0.85,115.08l1570.17 -0.09z"/>
  <path class="fil2" d="M13468.14 3578.49l147.06 0.31c-0.79,-10.24 -168.78,-349.18 -188.52,-388.05 -7.6,-14.96 -39.52,-86.06 -50.66,-94.1 -24.3,-17.54 -43.52,-1.31 -69.23,11.53 -20.79,10.39 -48.81,15.89 -45.21,50.6 1.21,11.71 10.19,23.69 15.11,33.23 21.4,41.51 42.82,86.93 63.19,129l94.93 192.96c5.2,10.74 10.61,22.04 16.1,32.6 5.42,10.41 9.77,23.28 17.23,31.92z"/>
  <path class="fil2" d="M13010.94 3578.35c19.48,-42.76 42.08,-84.62 63.32,-128.6l94.81 -193.05c10.52,-22.16 20.42,-41.77 31.88,-63.92 13.11,-25.37 24.57,-48.85 -0.18,-69.42 -6.35,-5.28 -24.43,-13.28 -32.02,-16.72 -11.51,-5.22 -21.02,-11.22 -31.76,-15.38 -15.16,-5.89 -28.04,-0.38 -37.44,7.4 -11.61,9.59 -71.56,137.57 -81.03,158.01l-47.58 97.48c-15.53,31.89 -107.53,209.99 -108.77,224.66l148.77 -0.46z"/>
  <path class="fil3" d="M23466.68 21284.59l7991.87 0 2961.93 1342.82 18.69 7347.49c2.4,944.12 -348.77,1716.64 -775.02,1716.64l-10197.47 0c-426.27,0 -775.02,-772.49 -775.02,-1716.64l0 -6973.67c0,-944.15 348.75,-1716.64 775.02,-1716.64zm7991.87 0l2205.6 0c368.35,0 678.76,576.85 756.33,1342.82l-2961.93 -1342.82z"/>
  <path class="fil4" d="M3224.6 9114.1l11747.55 0c649.98,0 1181.78,531.8 1181.78,1181.78l0 19014.77c0,649.98 -531.8,1181.78 -1181.78,1181.78l-11747.55 0c-649.98,0 -1181.78,-531.8 -1181.78,-1181.78l0 -19014.77c0,-649.98 531.8,-1181.78 1181.78,-1181.78z"/>
  <path class="fil5" d="M6099.73 10419.36l6050.16 0c97.01,0 176.38,79.37 176.38,176.38l0 0.01c0,97.01 -79.37,176.38 -176.38,176.38l-6050.16 0c-97.01,0 -176.38,-79.37 -176.38,-176.38l0 -0.01c0,-97.01 79.37,-176.38 176.38,-176.38z"/>
  <path class="fil5" d="M3877.25 22255.08l11218.34 0c106.72,0 194.03,87.31 194.03,194.03l0 0c0,106.72 -87.31,194.03 -194.03,194.03l-11218.34 0c-106.72,0 -194.03,-87.31 -194.03,-194.03l0 0c0,-106.72 87.31,-194.03 194.03,-194.03z"/>
  <path class="fil5" d="M3841.97 23454.52l11218.34 0c106.72,0 194.03,87.31 194.03,194.03l0 0c0,106.72 -87.31,194.03 -194.03,194.03l-11218.34 0c-106.72,0 -194.03,-87.31 -194.03,-194.03l0 0c0,-106.72 87.31,-194.03 194.03,-194.03z"/>
  <path class="fil5" d="M3806.69 24653.96l4568.48 0c106.72,0 194.03,87.31 194.03,194.03l0 0c0,106.72 -87.31,194.03 -194.03,194.03l-4568.48 0c-106.72,0 -194.03,-87.31 -194.03,-194.03l0 0c0,-106.72 87.31,-194.03 194.03,-194.03z"/>
  <path class="fil5" d="M5094.33 26506.05l8890.02 0c717.9,0 1305.27,587.37 1305.27,1305.27l0 0.01c0,717.9 -587.37,1305.27 -1305.27,1305.27l-8890.02 0c-717.9,0 -1305.27,-587.37 -1305.27,-1305.27l0 -0.01c0,-717.9 587.37,-1305.27 1305.27,-1305.27zm6685.15 1111.24l-4550.82 0c-106.72,0 -194.03,87.31 -194.03,194.03l0 0c0,106.72 87.31,194.03 194.03,194.03l4550.82 0c106.72,0 194.03,-87.31 194.03,-194.03l0 0c0,-106.72 -87.31,-194.03 -194.03,-194.03z"/>
  <path class="fil6" d="M7255.21 16595.13c68.84,-64.3 103.26,-149.78 103.26,-256.82 0,-107.04 -35.56,-191.77 -106.29,-253.8 -71.11,-62.03 -154.32,-93.43 -249.63,-94.18 -95.7,0 -175.89,32.15 -240.94,96.45 -65.06,65.06 -97.59,149.03 -97.59,252.66 0,103.26 32.91,187.99 98.72,253.42 65.82,65.82 147.14,98.73 243.96,98.73 96.84,0 179.67,-32.15 248.51,-96.46zm312.04 275.74c-130.16,1.36 -205.98,-27.91 -206.51,-159.19l0 -3.45c-33.29,55.6 -83.59,100.23 -150.92,134.27 -67.32,34.04 -141.09,51.06 -221.65,51.06 -147.13,0 -274.22,-51.44 -381.26,-154.32 -102.5,-102.5 -153.95,-235.64 -153.95,-398.66 0,-163.4 51.07,-296.16 152.81,-397.91 102.13,-102.12 228.84,-153.56 380.51,-154.32 81.7,0 156.22,15.88 222.79,47.66 66.19,31.77 116.87,76.78 151.67,134.27l0 -735.67c111.66,-0.11 203.12,35.54 206.51,166.33l0 1469.93z"/>
  <path class="fil6" d="M8568.52 16595.13c68.84,-64.3 103.26,-149.78 103.26,-256.82 0,-107.04 -35.55,-191.77 -106.29,-253.8 -71.11,-62.03 -154.31,-93.43 -249.63,-94.18 -95.7,0 -175.88,32.15 -240.94,96.45 -65.05,65.06 -97.59,149.03 -97.59,252.66 0,103.26 32.91,187.99 98.72,253.42 65.82,65.82 147.14,98.73 243.97,98.73 96.83,0 179.66,-32.15 248.5,-96.46zm105.53 275.74l0 -162.64c-33.29,55.6 -83.59,100.23 -150.92,134.27 -67.32,34.04 -141.08,51.06 -221.65,51.06 -147.13,0 -274.22,-51.44 -381.26,-154.32 -102.5,-102.5 -153.94,-235.64 -153.94,-398.66 0,-163.4 51.06,-296.16 152.8,-397.91 102.13,-102.12 228.84,-153.56 380.51,-154.32 81.71,0 156.22,15.88 222.79,47.66 66.19,31.77 116.87,76.78 151.67,134.27l0 -568.91c-0.75,-133.25 79.97,-165.79 206.52,-166.76l0 1477.15c-0.41,115.69 -68.04,159.46 -206.52,159.11z"/>
  <path class="fil7" d="M9483.74 15581.31l0 229.73 222.41 0c-5.46,108.41 -37.7,177.6 -147.46,183.83l-74.95 0 0 876c-117.24,-0.28 -202.34,-42.18 -206.51,-159.13l0 -716.87 -190.64 0c-3.01,-106.27 46.16,-177.95 157.39,-183.83l33.25 0 0 -388.07c122.98,1.11 202.77,45.53 206.51,158.34z"/>
  <path class="fil7" d="M11551.49 16596.26c68.08,-63.54 102.12,-149.02 102.12,-256.82 0,-107.8 -35.55,-192.9 -106.28,-254.93 -71.11,-62.03 -154.7,-93.43 -250.77,-94.18 -96.46,0 -177.02,32.15 -242.08,96.45 -65.05,63.54 -97.58,146.76 -97.58,250.39 0,103.26 33.28,188.37 99.85,254.56 66.57,66.57 148.65,99.86 246.24,99.86 97.58,0 180.42,-31.78 248.5,-95.33zm104.39 274.61l0 -162.64c-33.28,55.6 -83.59,100.23 -150.92,134.27 -67.32,34.04 -140.7,51.06 -220.88,51.06 -146.76,0 -274.23,-51.44 -382.03,-154.32 -104.01,-102.5 -156.21,-235.64 -156.21,-398.66 0,-163.4 51.44,-296.16 153.94,-397.91 102.88,-102.12 231.11,-153.56 384.67,-154.32 76.79,0 150.92,15.88 221.65,47.66 69.6,34.79 119.53,79.43 149.78,134.27l0 -9.17c2.5,-104.32 109.04,-147.34 206.52,-150.07l0 900.69c-5.71,119.7 -87.15,160.9 -206.52,159.14z"/>
  <path class="fil7" d="M13645.01 15583.09l0 227.95 222.4 0c-1.96,100.63 -46.83,183.32 -155.7,183.83l-66.7 0 0 876c-133.04,1.11 -205.82,-54.98 -206.52,-160.57l0 -715.43 -190.64 0c0.11,-110.08 58.38,-178.37 176.8,-183.83l13.84 0 0 -388.07c110.39,0.97 204.88,53.1 206.52,160.12z"/>
  <path class="fil8" d="M9086.59 15994.87c-0.48,-117.63 52.83,-181.4 167.37,-183.83l23.27 0 206.51 0 222.41 0c-4.4,121.85 -54.55,181.75 -147.46,183.83l-74.95 0 -206.51 0 -190.64 0z"/>
  <path class="fil8" d="M13247.62 15994.7c-0.48,-117.63 52.83,-181.4 167.37,-183.83l23.27 0 206.51 0 222.41 0c-4.4,121.85 -54.55,181.75 -147.46,183.83l-74.95 0 -206.51 0 -190.64 0z"/>
  <path class="fil7" d="M10138.66 16866.34c-117.91,3.67 -207.95,-27.2 -210.83,-130.52l0 -951.41c139.03,-1.58 210.15,31.79 210.83,145.41l0 98.62c52.9,-178 152.9,-267.2 300.79,-267.2 85.33,0 147.89,13.91 188.04,41.32 -30.06,110.73 -89.09,171.99 -190.85,160.25 -0.47,-0.06 -0.95,-0.01 -1.44,-0.01 -95.37,0 -168.35,45.57 -219.7,136.69 -38.12,67.93 -70.72,153.49 -71.76,258.19l-5.08 508.66z"/>
  <path class="fil7" d="M12643.72 15786.7c163.42,0 297.34,57.13 402.13,170.99 -69.47,91.93 -158.63,119.41 -276.39,53.28 -1.85,-1.04 -4.02,-1.47 -6.03,-2.18 -38.05,-13.38 -79.48,-20.08 -124.25,-20.08 -99.49,0 -184.23,32.16 -253.84,96.85 -69.98,63.55 -105.17,147.91 -105.17,253.46 0,105.16 35.56,190.66 106.3,256.48 71.13,66.21 155.86,99.12 254.98,99.12 43.29,0 83.32,-6.54 120.04,-19.63 1.49,-0.53 3.02,-0.98 4.45,-1.62 119.41,-53.57 209.59,-26.73 282.18,48.48 -105.55,113.49 -239.08,170.24 -399.86,170.24 -161.16,0 -297.34,-51.07 -408.57,-153.21 -110.84,-103.65 -166.07,-236.81 -166.07,-399.86 0,-163.05 54.48,-295.83 163.05,-397.97 108.95,-102.14 244.38,-153.59 407.05,-154.35z"/>
  <polygon class="fil8" points="5431.86,16192.86 4779.16,16652.67 5430.97,15285.79 6090.04,16648.22 "/>
  <polygon class="fil9" points="5636.89,16334.74 4846.95,16891.24 5635.82,15236.93 6433.47,16885.86 "/>
  <path class="fil5" d="M23956.34 14926.18l15373.49 0c106.72,0 194.03,87.31 194.03,194.03l0 0c0,106.72 -87.31,194.03 -194.03,194.03l-15373.49 0c-106.72,0 -194.03,-87.31 -194.03,-194.03l0 0c0,-106.72 87.31,-194.03 194.03,-194.03z"/>
  <path class="fil5" d="M23908.43 16125.62l15373.49 0c106.72,0 194.03,87.31 194.03,194.03l0 0c0,106.72 -87.31,194.03 -194.03,194.03l-15373.49 0c-106.72,0 -194.03,-87.31 -194.03,-194.03l0 0c0,-106.72 87.31,-194.03 194.03,-194.03z"/>
  <path class="fil5" d="M23860.52 17325.06l6342.95 0c106.72,0 194.03,87.31 194.03,194.03l0 0c0,106.72 -87.31,194.03 -194.03,194.03l-6342.95 0c-106.72,0 -194.03,-87.31 -194.03,-194.03l0 0c0,-106.72 87.31,-194.03 194.03,-194.03z"/>
  <path class="fil10" d="M16518.63 5278.07c-28.93,431.39 140.41,1434.83 209.99,1903.55 164.6,1108.86 419.75,2382.93 770.91,3446.67 239.1,724.25 378.8,916.8 602.13,1486.67 69.63,43.53 40.27,-7.86 53.94,77.18 31.01,-45.46 16.44,-29.29 40.05,-76.33 54.97,-109.53 14.52,-48.34 69.23,-75.81 467.53,-1148.78 761.03,-1903.24 1029.85,-3141.87 161.13,-742.4 580.76,-2965.3 522.68,-3628.02l-13.41 -82.76c-2.37,100.57 -274.29,519.62 -394.77,588.52l-131.84 315.32 -29.28 47.22 -119.08 -27.76 -187.13 143.72 -400.76 -391 -189.6 -99.84c-47.27,34.88 -79.02,20.24 -155.18,22.62l2.13 1273.21c-0.02,68.24 -1.52,136.21 -1.96,204.13 -0.53,81.82 4.09,122.89 51.23,181.69 22.32,103.7 102.36,102.58 -22.55,224.96 -55.88,137.9 -26.91,644.32 -21.98,821.34 130.01,64.02 101.44,157.27 17.7,235.73 -39.86,129.72 -33.61,673.23 -12.4,820.84 139.93,85.91 84.25,248.28 -49.57,242.3 -126.53,-5.65 -170.69,-169.4 -29.19,-241.53 15.3,-165.87 30.89,-681.42 -17.09,-820.26 -95.8,-80.7 -104.22,-175.98 22.43,-236.69 2.18,-209.29 46.86,-681.71 -27.89,-826.83 -114.41,-108.64 -55.93,-129.05 -17.09,-222.6 4.39,-5.84 9.72,-12.89 12.54,-18.02l27.91 -55.79c2.13,-7 3.18,-12.14 4.68,-19.43l3.06 -1559.84 -140.87 -18.56c-2.28,-5.66 -9.64,-3.32 -13.78,-6.18l-222.69 113.9c-31.37,61.03 -307.65,327.39 -370.05,369.26 -71.82,-29.02 -126.01,-81.27 -181.91,-144.05l-123.91 37.2 -26.8 -46.18 -124.25 -254.48 -232.23 -326.65c-55.89,-83.8 -170.12,-233.6 -164.76,-321.47l-18.44 85.92z"/>
  <path class="fil11" d="M18094.18 12134.24l7.48 -19.28c-223.33,-569.87 -363.03,-762.42 -602.13,-1486.67 -351.16,-1063.74 -606.31,-2337.81 -770.91,-3446.67 -69.58,-468.72 -238.92,-1472.16 -209.99,-1903.55 -53.64,-91.54 -45.68,-347.41 -52.92,-472.75 -6.68,-81.45 -17.38,-98.81 5.53,-173.21 -47.06,-95.02 -33.34,-234.09 -41.7,-345.88 -53.63,20.78 -690.16,872.67 -722.9,967.24 74.43,137.73 276.91,376.56 311.2,500.8 -123.41,78.3 -231.09,171.39 -344.73,263.02 -327.14,263.78 -404.21,157.66 -61.62,1309.53 391.4,1315.95 1270.13,2904.98 2011.09,4082.71 139.56,221.84 356.19,506.88 471.6,724.71z"/>
  <path class="fil11" d="M19859.94 4741.05l8.02 61.06c-5.5,113.14 -0.92,390.89 -50.55,468 58.08,662.72 -361.55,2885.62 -522.68,3628.02 -268.82,1238.63 -562.32,1993.09 -1029.85,3141.87l42.32 14.34c112.83,-277.41 610.88,-973.77 799.58,-1291.57 688.59,-1159.65 1785.99,-3241.75 1836.43,-4516.06l-621.47 -496.17 310.04 -494.49 -727.83 -974.58 -44.01 459.58z"/>
  <path class="fil11" d="M16920.39 5546.39l13.67 293.88 124.25 254.48 232.81 -31.36c56.52,-25.56 131.78,-52.69 200.1,-52.93 51.95,-62.32 185.42,-103.64 269.76,-131.94l222.69 -113.9 367.87 -1.09 189.6 99.84c81.12,26.46 190.62,67.14 241.91,123.74l259.32 78.3 235.02 25.78 131.84 -315.32 7.16 -142.92 -100.29 -638.36 -35.06 -10.84 -443.4 35.58c-77.72,71.83 -217.37,121.91 -312.29,196.28 -141.29,110.7 -167.62,58.54 -367.81,58.71 -214.5,0.18 -206.78,55.42 -359.59,-67.1 -92.82,-74.42 -231.16,-117.09 -299.73,-187.26l-444.45 -38.58 -29.91 9.42 -103.47 555.59z"/>
  <path class="fil10" d="M18837.64 5019.33l443.4 -35.58 35.06 10.84 100.29 638.36c62.9,-17.09 39.75,0.24 89.51,-68.19 353.87,-486.59 288.5,-659.77 362.06,-762.65l-8.02 -61.06 4.13 -356.07c-183.33,65.43 -647.74,356.75 -849.94,484.58 -213.34,134.88 -260.32,143.61 -176.49,149.77z"/>
  <path class="fil10" d="M16471.24 4632.11c-22.91,74.4 -12.21,91.76 -5.53,173.21 54.85,79.63 36.43,129.34 78.22,237.28 95.37,246.35 182.39,370.91 337.98,585.39l38.48 -81.6 103.47 -555.59 29.91 -9.42 444.45 38.58c54.23,-26.36 -2.65,-29.12 -68.49,-72.76 -221.8,-147.04 -776.82,-497.76 -967.67,-562.22l9.18 247.13z"/>
  <path class="fil11" d="M16471.24 4632.11l-9.18 -247.13c190.85,64.46 745.87,415.18 967.67,562.22 65.84,43.64 122.72,46.4 68.49,72.76 68.57,70.17 206.91,112.84 299.73,187.26 152.81,122.52 145.09,67.28 359.59,67.1 200.19,-0.17 226.52,51.99 367.81,-58.71 94.92,-74.37 234.57,-124.45 312.29,-196.28 -83.83,-6.16 -36.85,-14.89 176.49,-149.77 202.2,-127.83 666.61,-419.15 849.94,-484.58l-4.13 356.07 44.01 -459.58c-258.51,80.67 -1006,562.13 -1265.9,752.69 -211.49,155.08 -174.66,209.88 -457.32,209.86 -309.77,-0.01 -238.69,-16.63 -474.49,-193.61 -130.29,-97.79 -267.56,-185.11 -402.62,-273.93 -148.97,-97.99 -731.35,-457.21 -874.08,-490.25 8.36,111.79 -5.36,250.86 41.7,345.88z"/>
  <path class="fil11" d="M18090.13 7442.44l157.63 2.74c-47.14,-58.8 -51.76,-99.87 -51.23,-181.69 0.44,-67.92 1.94,-135.89 1.96,-204.13l-2.13 -1273.21c76.16,-2.38 107.91,12.26 155.18,-22.62l-367.87 1.09c4.14,2.86 11.5,0.52 13.78,6.18l140.87 18.56 -3.06 1559.84c-1.5,7.29 -2.55,12.43 -4.68,19.43l-27.91 55.79c-2.82,5.13 -8.15,12.18 -12.54,18.02z"/>
  <path class="fil11" d="M16518.63 5278.07l18.44 -85.92c-5.36,87.87 108.87,237.67 164.76,321.47l232.23 326.65 -13.67 -293.88 -38.48 81.6c-155.59,-214.48 -242.61,-339.04 -337.98,-585.39 -41.79,-107.94 -23.37,-157.65 -78.22,-237.28 7.24,125.34 -0.72,381.21 52.92,472.75z"/>
  <path class="fil11" d="M19416.39 5632.95l-7.16 142.92c120.48,-68.9 392.4,-487.95 394.77,-588.52l13.41 82.76c49.63,-77.11 45.05,-354.86 50.55,-468 -73.56,102.88 -8.19,276.06 -362.06,762.65 -49.76,68.43 -26.61,51.1 -89.51,68.19z"/>
  <path class="fil11" d="M17491.22 6010.46l34.98 12.8 -160.73 131.7 -74.35 -91.57 -232.81 31.36 26.8 46.18 123.91 -37.2c55.9,62.78 110.09,115.03 181.91,144.05 62.4,-41.87 338.68,-308.23 370.05,-369.26 -84.34,28.3 -217.81,69.62 -269.76,131.94z"/>
  <path class="fil11" d="M19277.39 6091.19l-235.02 -25.78 -74.86 86.35c-43.39,-18 -179.61,-157.17 -184.46,-164.65 -51.29,-56.6 -160.79,-97.28 -241.91,-123.74l400.76 391 187.13 -143.72 119.08 27.76 29.28 -47.22z"/>
  <path class="fil11" d="M18129.77 9548.82l78.76 -0.77c-21.21,-147.61 -27.46,-691.12 12.4,-820.84l-108.25 1.35c47.98,138.84 32.39,654.39 17.09,820.26z"/>
  <path class="fil11" d="M18208.53 9548.05l-78.76 0.77c-141.5,72.13 -97.34,235.88 29.19,241.53 133.82,5.98 189.5,-156.39 49.57,-242.3z"/>
  <path class="fil11" d="M18112.68 8728.56l108.25 -1.35c83.74,-78.46 112.31,-171.71 -17.7,-235.73l-68.12 0.39c-126.65,60.71 -118.23,155.99 -22.43,236.69z"/>
  <path class="fil11" d="M18107.22 7665.04l117.99 5.1c124.91,-122.38 44.87,-121.26 22.55,-224.96l-157.63 -2.74c-38.84,93.55 -97.32,113.96 17.09,222.6z"/>
  <path class="fil11" d="M18135.11 8491.87l68.12 -0.39c-4.93,-177.02 -33.9,-683.44 21.98,-821.34l-117.99 -5.1c74.75,145.12 30.07,617.54 27.89,826.83z"/>
  <path class="fil12" d="M18101.66 12114.96l-7.48 19.28c35.6,90.34 -13.63,26.73 54.72,82.14 83.09,-1.98 134.13,-101.56 158.3,-162.04l-42.32 -14.34c-54.71,27.47 -14.26,-33.72 -69.23,75.81 -23.61,47.04 -9.04,30.87 -40.05,76.33 -13.67,-85.04 15.69,-33.65 -53.94,-77.18z"/>
  <path class="fil10" d="M17291.12 6063.39l74.35 91.57 160.73 -131.7 -34.98 -12.8c-68.32,0.24 -143.58,27.37 -200.1,52.93z"/>
  <path class="fil10" d="M19042.37 6065.41l-259.32 -78.3c4.85,7.48 141.07,146.65 184.46,164.65l74.86 -86.35z"/>
  <path class="fil11" d="M36458.8 4622.79c20.42,107.95 -1.41,195.26 -7.43,305.57 -3.82,89.31 1.91,217.23 -36.9,284.67 75.16,743.1 -741.37,5202.61 -1058.19,5564.89 -34.22,-1400.53 -112.87,-2362.94 -270.26,-3726.43 -24.07,-208.47 -84.89,-368.48 1.58,-557.24 63.49,-138.6 125.95,-342.45 197.06,-466.66l26.62 -100.64 -494.99 -365.45c-73.93,-49.26 -18.8,-42.3 -115,-8.08l-488.27 350.56 25.51 136.25c63.36,107.46 138.54,318.25 191.75,441.96 67.68,157.36 8.34,407.83 -14.7,580.25 -51.87,388.17 -91.83,788.38 -129.13,1178.67 -38.69,404.9 -74.57,808.53 -98.76,1214.65l-47.81 1276.08c-11.23,5.18 -336.94,-1104.2 -370.95,-1239.76 -190.66,-759.84 -706.47,-3510.75 -654.16,-4170.46 -55.67,-87.84 -49.31,-377.28 -56.55,-502.39l9.94 -101.51c-30.06,-57.68 -30.76,-131.98 -32.79,-205.02 -0.22,-7.73 -0.26,-99.75 -0.41,-100.69 -24.8,-159.92 5.62,-68.41 -63.45,-108.89 -29.38,144.65 -586.37,747.39 -672.03,954.1l310.71 472.5c-67.68,113.38 -490.13,407.78 -624.28,505.49 -38.4,345.91 294.34,1355.8 432.05,1719.3 191.74,506.07 425.81,1012.79 672.56,1494.33 452.36,882.77 1032.75,1906.68 1617.26,2705.06l104.42 11.27c264.13,-434.83 563.66,-857.92 830.16,-1300.37 273.05,-453.31 532.41,-920.79 775.27,-1391.02 432.03,-836.51 1080.98,-2295.94 1118.46,-3223.32l-354.04 -285.71c-88.44,-66.73 -172.69,-150.84 -271.69,-202.35 37.63,-138.44 230.81,-363.53 311.04,-505.18 -40.27,-93.68 -662.57,-935.05 -723.85,-971.78 -7.4,102.97 5.91,256.74 -38.75,337.35z"/>
  <path class="fil10" d="M35284.66 6027.59c-71.11,124.21 -133.57,328.06 -197.06,466.66 -86.47,188.76 -25.65,348.77 -1.58,557.24 157.39,1363.49 236.04,2325.9 270.26,3726.43 316.82,-362.28 1133.35,-4821.79 1058.19,-5564.89l-1.28 -36.01c-109.39,296.76 -635.15,965.61 -880.6,1085.6l-247.93 -235.03z"/>
  <path class="fil10" d="M33114.77 5321.62c-52.31,659.71 463.5,3410.62 654.16,4170.46 34.01,135.56 359.72,1244.94 370.95,1239.76l47.81 -1276.08c24.19,-406.12 60.07,-809.75 98.76,-1214.65 37.3,-390.29 77.26,-790.5 129.13,-1178.67 23.04,-172.42 82.38,-422.89 14.7,-580.25 -53.21,-123.71 -128.39,-334.5 -191.75,-441.96 -110.37,24.85 -162.67,145.73 -252.34,209.43 -208.24,-68.68 -795.84,-813.98 -862.62,-1054.83l-8.8 126.79z"/>
  <path class="fil10" d="M34816.29 5561.5l494.99 365.45 230.75 230.73c105.71,-44.62 435.21,-428.95 518.28,-539.84 65.81,-87.84 154.76,-218.24 206.61,-312.41 59.14,-107.4 109.85,-300.13 184.45,-377.07 6.02,-110.31 27.85,-197.62 7.43,-305.57l-6.41 -239.52c-330.75,186 -1566.98,846.61 -1636.1,1178.23z"/>
  <path class="fil10" d="M33068.16 4717.72l-9.94 101.51c50.83,65.59 96.15,302.2 159.37,418.42 150.27,276.19 549.17,813.59 775.02,922.52l208 -240.34c1.99,-9.45 7.52,-11.26 12.41,-15.85l488.27 -350.56c-37.67,-275.23 -1339.07,-1023.78 -1644.95,-1166.79l11.82 331.09z"/>
  <path class="fil11" d="M33068.16 4717.72l-11.82 -331.09c305.88,143.01 1607.28,891.56 1644.95,1166.79 96.2,-34.22 41.07,-41.18 115,8.08 69.12,-331.62 1305.35,-992.23 1636.1,-1178.23l6.41 239.52c44.66,-80.61 31.35,-234.38 38.75,-337.35 -188.68,55.36 -739.83,401.02 -928.57,524.24 -143.94,93.96 -294.56,186.65 -428.16,293.76 -128.5,103 -280.47,274.26 -392.16,352.67 -445.8,-492.21 -1069.08,-795.8 -1619.04,-1126.69 -101.41,-61.02 -76.06,-84.1 -158.11,-26.3 69.07,40.48 38.65,-51.03 63.45,108.89 0.15,0.94 0.19,92.96 0.41,100.69 2.03,73.04 2.73,147.34 32.79,205.02z"/>
  <path class="fil11" d="M33114.77 5321.62l8.8 -126.79c66.78,240.85 654.38,986.15 862.62,1054.83 89.67,-63.7 141.97,-184.58 252.34,-209.43l-25.51 -136.25c-4.89,4.59 -10.42,6.4 -12.41,15.85l-208 240.34c-225.85,-108.93 -624.75,-646.33 -775.02,-922.52 -63.22,-116.22 -108.54,-352.83 -159.37,-418.42 7.24,125.11 0.88,414.55 56.55,502.39z"/>
  <path class="fil11" d="M35311.28 5926.95l-26.62 100.64 247.93 235.03c245.45,-119.99 771.21,-788.84 880.6,-1085.6l1.28 36.01c38.81,-67.44 33.08,-195.36 36.9,-284.67 -74.6,76.94 -125.31,269.67 -184.45,377.07 -51.85,94.17 -140.8,224.57 -206.61,312.41 -83.07,110.89 -412.57,495.22 -518.28,539.84l-230.75 -230.73z"/>
  <polygon class="fil13" points="34812.2,12165.17 34707.78,12153.9 34751.52,12228.03 "/>
  <path class="fil11" d="M28502.82 12201.49l-7.82 7.82 7.82 -7.82zm0 0l4.3 -16.81 -4.3 16.81zm15.64 -39.1l2.33 2.33c-0.15,-0.15 -3.11,-1.55 -2.33,-2.33zm-985.25 -93.83l2.33 2.33c-0.15,-0.16 -3.11,-1.55 -2.33,-2.33zm961.79 140.75c-2.91,35.01 -68.84,118.56 -92.49,149.91l-120.51 129.72c-77.01,77.54 -219.65,148.95 -332.47,168.07 -15.33,2.6 -46.5,6.25 -68.86,10.43l-155.52 -8.99c-77.34,-14.36 -172.16,-50.51 -237.32,-90.99l-163.69 -125.63c-14.39,-12.92 -15.48,-10.17 -26.98,-19.94l-39.76 -46.25c-88.78,-99.73 -185.33,-226.87 -236.32,-350.14l-5.96 -17.5c-13.17,-33.05 -13.64,-11.32 -13.64,-48.91l7.82 0c0,40.93 46.71,91.78 66.25,129.23 3.66,7.01 9.77,16.26 15.01,24.09l55.36 77.57c1.04,1.24 2.65,2.89 3.67,4.15l44.22 57.43c16.19,21.56 17.77,23.49 36.39,41.81l40.97 45.04c0,0.01 7.98,7.65 7.99,7.65 1.11,1.17 2.72,2.83 3.81,4.01 97.07,105.23 231.82,203.64 372.38,245.35 251.38,74.61 421.78,7.28 608.22,-132.73 34.82,-26.15 54.79,-49.43 84.8,-79.41l56.38 -60.92c32.96,-39.07 69.83,-99.38 90.25,-113.05zm-1509.16 -281.5l7.82 0 0 23.45 -7.82 0 0 -23.45zm-15.64 -31.28l2.33 2.33c-0.15,-0.15 -3.11,-1.55 -2.33,-2.33zm2001.79 -938.34l2.33 2.33c-0.15,-0.15 -3.11,-1.55 -2.33,-2.33zm15.64 -46.92l2.33 2.34c-0.16,-0.16 -3.11,-1.56 -2.33,-2.34zm15.64 -46.91c0,-19.43 12.5,-2 4.85,0 -0.1,0.02 -4.85,22.18 -4.85,0zm15.64 -46.92c0,-19.43 12.5,-2 4.85,0 -0.1,0.03 -4.85,22.18 -4.85,0zm15.63 -62.56l7.83 0 0 23.47 -7.83 0 0 -23.47zm15.65 -54.73l7.81 0 0 31.28 -7.81 0 0 -31.28zm15.63 -54.74l7.82 0 0 31.28 -7.82 0 0 -31.28zm15.64 -54.74l7.82 0 0 31.28 -7.82 0 0 -31.28zm15.64 -70.37l7.82 0 0 46.92 -7.82 0 0 -46.92zm15.64 -15.64l0 7.82 -9.13 -6.51 9.13 -1.31zm7.82 -46.91c0,3.53 0.63,21.58 0.32,23.78l-8.14 23.13 2.26 -36.84c0.45,-1.58 2.11,-4.03 2.56,-5.26 0.43,-1.19 1.98,-3.22 3,-4.81zm0 0c1.54,-18.54 3.57,-21.22 5.66,-33.44 0.95,-5.57 2.03,-16.75 2.98,-20.48 3.78,-14.88 1.84,-8.33 7,-16.46 0,10.08 1.14,30.08 -0.06,39.04 -2.22,16.56 1.03,5.83 -4.96,18.5 -4.99,10.58 -5.71,7.19 -10.62,12.84zm-2017.43 281.5l0 218.94c0,37.87 11.34,41.49 15.4,78.44 7.32,66.7 32.44,132.47 46.54,188.04 17.85,70.32 105.88,300.28 142.71,381.19l169.34 354.57c16.75,33.55 45.32,64.92 48.27,100.31 -37.98,-25.43 -90.36,-99.92 -123.74,-142.13l-218.87 -320.67c-6.76,-11.24 -12.67,-24.68 -18.43,-36.31l-54.56 -101.83c-5.35,-12.32 -8.99,-24.04 -15.76,-38.98l-57.17 -130.49c-4.11,-10.17 -4.07,-12.92 -8.21,-23.07l-27.17 -74.48c-5.92,-19.17 -10.07,-25.88 -13.88,-40.87l-20.7 -88.77c-8.61,-30.54 -8.98,-5.54 -12.27,-42.46 -6.38,-71.58 -15.71,-52.38 -15.71,-93.77l0 -179.84c0,-45.97 31.01,-195.98 31.35,-203.25 2.65,-57.12 7.24,-32.84 16.26,-101.03l195.91 -859.72c7.28,-23.24 5.24,-16.17 6.7,-48.03 1.69,-36.98 2.29,-21.12 11,-51.55 17.43,-60.82 20.28,-268.34 20.28,-339.42l7.82 0c0,50.55 10.52,36.85 15.89,85.77 4.37,39.79 15.42,40.05 15.67,85.98 0.78,137.78 34.05,211.13 2.85,386.57 -10.13,56.98 7.31,39.99 -15.94,156.08 -5.66,28.29 0.66,53.45 -5.67,80.35 -9.1,38.75 -10.99,21.97 -12.67,73.34l-78.14 430.12c-5.7,69.08 -9.57,42.93 -14.4,71.62 -6.36,37.69 1.21,38.85 -10.35,75.66l-22.35 149.69zm54.74 -2330.21c0,-19.43 12.5,-2 4.85,0 -0.1,0.03 -4.85,22.18 -4.85,0zm1047.81 -101.65l2.33 2.33c-0.15,-0.16 -3.11,-1.56 -2.33,-2.33zm828.86 -156.39c1.02,1.59 2.75,2.01 3.01,4.81 0.26,2.89 2.25,3.9 2.56,5.27l-5.57 -10.08zm-844.5 39.09l2.33 2.34c-0.15,-0.16 -3.11,-1.56 -2.33,-2.34zm844.5 -39.09l-7.82 0 6.52 -9.13 1.3 9.13zm-15.63 -101.66l7.81 0 0 70.38 -7.81 0 0 -70.38zm-15.64 -93.83l7.82 0 0 62.55 -7.82 0 0 -62.55zm-844.51 0l2.34 2.33c-0.16,-0.15 -3.12,-1.55 -2.34,-2.33zm828.87 -86.01l7.82 0 0 46.92 -7.82 0 0 -46.92zm-15.64 -86.02l7.82 0 0 31.28 -7.82 0 0 -31.28zm-844.51 -62.55l2.34 2.33c-0.16,-0.15 -3.11,-1.55 -2.34,-2.33zm828.87 -31.28l7.82 0 0 31.28 -7.82 0 0 -31.28zm-15.64 -70.38c0,-19.42 12.5,-2 4.85,0 -0.09,0.03 -4.85,22.19 -4.85,0zm-828.86 -23.45l2.33 2.33c-0.15,-0.16 -3.11,-1.56 -2.33,-2.33zm-328.42 0c0,-19.43 12.5,-2 4.85,0 -0.1,0.02 -4.85,22.18 -4.85,0zm15.63 -62.56l2.34 2.33c-0.16,-0.15 -3.11,-1.55 -2.34,-2.33zm531.73 -31.28c8.03,-8.03 28.29,11.25 9.07,4.22 -0.19,-0.07 -22.19,8.91 -9.07,-4.22zm-234.58 -78.19l2.33 2.33c-0.15,-0.15 -3.11,-1.56 -2.33,-2.33zm1172.92 -117.29l7.82 0 0 86.01 -7.82 0 0 -86.01zm-1423.15 -7.82l2.34 2.33c-0.16,-0.16 -3.11,-1.56 -2.34,-2.33zm15.64 -62.56l2.33 2.33c-0.15,-0.15 -3.1,-1.55 -2.33,-2.33zm234.59 -46.92l2.33 2.33c-0.15,-0.15 -3.11,-1.55 -2.33,-2.33zm453.53 -594.28l-15.25 8.99 15.25 -8.99zm7.82 -7.82l-7.82 7.82 7.82 -7.82zm0 0l15.24 -8.99 -15.24 8.99zm-1040 -15.64c48.91,32.75 92.89,93.95 140.14,133.55 1.24,1.04 2.95,2.59 4.19,3.63l80.85 67.72c21.56,14.2 46.22,28.49 65.59,43.88 94,74.7 88.13,69.8 147.13,181.29l93.83 0c88.75,-132.54 56.76,-137.48 198.61,-231.46l170.36 -103.32c16.06,-9.56 20.13,-8.98 36.19,-18.55 25.13,-14.97 38.83,-34.89 71.83,-37.64l-78.2 54.74c-28.1,18.73 -55.3,38.96 -86.01,54.73 -30.71,15.78 -57.91,36 -86.01,54.74 -31.71,21.14 -50.7,33.55 -81.17,59.59 -1.23,1.05 -3.12,2.41 -4.35,3.46l-12.38 11.08c-23.76,22.5 -108.49,121.98 -84.05,146.42 13.16,13.16 108.71,6.34 135.13,6.12 44.22,-0.38 78.37,16.45 82.55,19.09 15.42,9.74 10.38,7.23 19,20.1 -47.83,-11.14 -66.66,-23.1 -119.02,-9.55 -47.38,12.26 -74.47,9.55 -131.2,9.55 -33.74,50.39 -16.94,24.41 -24.04,93.26 -3.67,35.74 -15.23,54.95 -15.26,102.03 -0.06,93.2 -1.72,151.59 15.84,226.97 51.23,11.93 116.94,7.81 179.85,7.81 -12.07,45.2 -63.17,17.52 -115.65,25.11 -108.14,15.65 -58.27,47.02 -49.1,131.83 2.42,22.46 -1.53,45.63 2.03,68.34 2.14,13.75 11.89,40.05 13.63,56.74 12.44,119.78 -9.91,57.57 189.06,84.62 65.71,8.94 119.67,8.7 194.61,8.7l0 7.82c-47.91,0 -83.86,12.63 -125.07,15.68l-201.23 3.63c-62.02,-4.22 -46.46,22.5 -30.22,79.16 8.28,28.89 1.22,43.97 6.04,72.16 3.27,19.15 12.55,28.84 14.29,56.09 2.28,35.86 -2.42,34.55 6.66,63.71 29.58,95.04 -37.7,73.42 189.08,76.78 46.75,0.69 86.02,15.94 132.63,15.94l0 7.82c-127.65,0 -188.98,15.64 -297.14,15.64 0,67.16 13.74,118.36 28.41,182.72l18.21 114.72c2.68,46.1 2.43,34.4 45.09,40.92l166.43 5.61c38.47,-0.18 54.63,7.91 78.1,7.91l0 7.82c-56.01,0 -86.38,0.24 -132.93,7.81 -93.59,15.25 -157.98,-19.28 -131.92,61.35 8.98,27.79 2.45,33.28 8.29,62.29 13.25,65.86 45.92,220.4 125.24,235.08 27.42,5.08 36.56,-3.73 58,-9.78l53.87 -16.51c23.51,-8.32 28.99,-6.17 54.05,-16.32 22.65,-9.18 30.15,-11.72 51.4,-18.97l256.67 -103.04c46.59,-20.59 165.68,-63.63 198.75,-90.57 38.94,-31.74 42.28,-210.14 34.39,-249.27l-33.73 -217.68c-0.31,-2.58 -7.46,-7.45 5.29,-27.55 6.84,29.41 6.33,25.23 7.63,62.74 1.45,41.51 9.11,29.91 14.42,55.96 6.41,31.45 0.43,62.66 15.54,93.93 9.26,19.19 1.3,10.36 17.14,21.95l40.62 -256.52c2.08,-13.84 11.76,-39.87 13.54,-56.83 3.81,-36.09 0.1,-38.44 8.4,-69.8l93.83 -656.83c0,147.61 -3.22,79.85 -15.1,188.2l-15.91 187.4c-0.3,42.06 -11.92,54.52 -15.42,86.23l-46.88 367.55c-4.98,47.38 -1.6,46.62 -11.77,89.89 -8.24,35.09 -1.22,59.21 -11.1,90.55 -11.09,35.2 -4.29,55.32 -13.58,88.08 -5.21,18.37 -8.52,18.59 -10.53,36.38 -9.09,80.59 -4.24,155.94 10.8,230.69l19.73 191.39c1.09,32.48 12.37,58.87 15.39,86.27 3.89,35.27 -2.36,60.64 4.92,96.72l35.32 426.03c11.46,103.53 16.71,243 1.17,346.44 -14.93,99.35 -19.76,268.92 -47.58,359.04 -8.33,26.97 -5.42,13.26 -8.92,45.81l-15.65 39.09c0.58,-26.22 9.82,-71.25 15.65,-93.83 15.95,-61.76 21.38,-129.88 30.39,-196.37 14.56,-107.44 16.51,-218.96 16.51,-327.54 0,-84.14 -7.92,-138.9 -7.82,-218.94l-24.33 -311.91c-13.25,-97.49 -16.02,-212.82 -33.73,-310.32 -12.58,-69.22 -12.96,-134.48 -27.95,-198.82l-362.09 177.45c-14.18,5.05 -25.72,11.03 -37.98,16.76l-164.13 62.63c-22.16,9.09 5.77,0.32 -16.43,7.03 -109.04,32.99 -217.58,70.65 -269.94,-62.32l-15.54 -39.19c-2.64,-7.18 -2.52,-9.72 -5.43,-18.03 -17.68,-50.55 -20.08,-102.99 -32.38,-147.48 -6.46,-23.39 -7.4,-14.85 -10.25,-36.66 -10.74,-82.33 -16.04,-54.03 -274.39,-54.03 -39.09,0 -103.07,3.73 -139.1,-1.64 -44.89,-6.71 -67.03,-13.99 -126.76,-13.99l-78.18 258.06c-9.79,28.39 -25.01,59.01 -31.3,85.99 -70.91,5.9 -124.53,-3.21 -191.7,-27.24 -12.42,-4.45 -8.05,-1.91 -18.8,-4.65l-144.83 -42.84c-10.54,-3.56 -13.82,-3.37 -24.39,-6.89 -14.15,-4.73 -17.06,-6.98 -28.52,-10.58l-174.39 -60.19c-9.51,-3.77 -8.48,-2.64 -17.76,-5.7 -101.52,-33.52 -80.25,-82.5 -79.81,-178.23 0.38,-81.95 -16.06,-156.9 -15.74,-242.31l7.83 -633.38c0,152.77 15.79,268.17 15.64,430.06l23.46 422.26c7.9,48.51 7.81,82.69 7.81,140.75 30.65,20.52 61.92,26.92 99.78,40.97 21.76,8.08 -1.25,0.58 16.09,7.37 86.34,33.78 186.07,61.9 281.16,86.36l77.46 24.19c21.05,6.83 25.81,2.88 46.12,8.62l89.31 12.34c11.03,-22.97 15.27,-41.26 25.34,-68.5 7.85,-21.2 6.35,-7.67 13.25,-33.67 2.14,-8.08 0.74,-8.52 3.98,-19.48 18.08,-60.98 43.45,-115.26 43.45,-183.31l-101.75 -15.54c-40.01,-2.54 -55.17,-15.74 -109.38,-15.74l226.77 -7.82 78.19 -312.78c-52.13,-27.58 -116.96,-23.46 -195.48,-23.46l0 -15.64c41.82,0 43.15,-6.73 77.9,-8.11 147.31,-5.84 116.51,51.27 161.45,-143.51l39.4 -188.08c-0.02,-14.92 -1.21,-19.53 -20.61,-20.61 -15.63,-0.87 -18.19,4.21 -27.75,11.87 -0.94,0.75 -2.33,3.01 -3.63,4.39 -6.17,-23.12 0.24,-17.12 -23.18,-23.74 -1.69,-0.48 -38.47,-6.85 -39.91,-7 -28.44,-3.03 -71.17,-0.54 -101.12,-0.54l144.5 -19.71c45.19,-8.29 25.93,3.94 35.35,-19.39 14.22,14.99 25.56,15.64 46.92,15.64 22.42,-42.38 6.88,-31.52 18.82,-75.02l20.28 -81.37c9.05,-25.44 8.15,-48.89 16.71,-77.11 5.14,-16.95 14.05,-64.08 14.56,-87.1 -38.46,-18.46 -48.54,-13.67 -101.94,-15.35 -44.94,-1.41 -54.81,-15.93 -109.18,-15.93l0 -7.82c61.05,0 193.3,-1.61 234.58,-23.46 0,-80.51 43.72,-206.27 47.02,-257.94 9.96,-155.77 38.96,-164.31 -133.03,-164.31l31.28 -23.46c47.69,-14.49 119.09,33.97 77.11,-53.58 -0.79,-1.65 -1.86,-3.58 -2.66,-5.21 -18.1,-36.57 -49.31,-66.91 -82.17,-89.88 -0.07,-0.05 -10.68,-6.71 -14.2,-9.25l-21.31 -17.79c-1.24,-1.04 -2.89,-2.65 -4.15,-3.67l-27.68 -19.25c-32.57,-21.31 -33.63,-24.87 -59.65,-49.81l-62.72 -54.57c-19.58,-19.69 -41.04,-37.65 -57.49,-59.81 -18.64,-25.13 -41.88,-36.67 -50.05,-67.25zm1063.45 -7.82l2.34 2.34c-0.16,-0.16 -3.11,-1.56 -2.34,-2.34zm-1079.08 -7.82l15.63 15.64 -15.63 0 0 -15.64zm1102.54 -7.82l2.34 2.33c-0.16,-0.15 -3.12,-1.55 -2.34,-2.33zm23.46 -15.63l2.34 2.33c-0.16,-0.15 -3.11,-1.56 -2.34,-2.33zm-1126 23.45c-25.58,-9.26 -5.68,10.15 -23.46,-23.45 25.58,9.25 5.68,-10.15 23.46,23.45zm-23.46 -23.45l-15.64 -15.64 15.64 0 0 15.64zm-15.64 -15.64l-8.99 -15.25 8.99 15.25zm-23.46 -31.28l2.34 2.33c-0.16,-0.15 -3.11,-1.55 -2.34,-2.33zm-15.64 -15.64l2.33 2.33c-0.15,-0.15 -3.11,-1.55 -2.33,-2.33zm-344.05 -7.82l97.51 105.79c73.39,82.81 187.48,181.67 245.09,255.35 23.33,29.84 85.92,79.56 122.17,135.88 11.84,18.4 6.55,10.91 16.27,30.65 39.53,80.31 -7.92,185.45 -19.04,247.11l-26.59 106.34c-6.97,21.22 -2.56,19.38 -7.07,39.85 -2.86,12.96 -5.92,13.32 -10.49,28.61 -5.04,16.84 -3.25,21.13 -8.86,38.06 -8.64,26.03 -2.98,0.7 -9.69,29.41l-250.72 773.62c-9.22,27 -46.93,111.41 -46.93,132.92l265.8 -1071.32c6.03,-17.37 3.06,-8.02 8.4,-30.71l44.92 -166.2c20.27,-100.09 -11.66,-131.17 -80.96,-213.23l-239.61 -284.29 -100.2 -157.84zm-15.65 -23.46l2.34 2.33c-0.16,-0.15 -3.11,-1.55 -2.34,-2.33zm1329.32 -62.56l2.33 2.34c-0.15,-0.16 -3.11,-1.56 -2.33,-2.34zm-62.56 0l2.34 2.34c-0.16,-0.16 -3.12,-1.56 -2.34,-2.34zm-54.73 -7.81c0,-19.43 12.5,-2 4.85,0 -0.1,0.02 -4.85,22.18 -4.85,0zm-54.74 -7.82l2.33 2.33c-0.15,-0.15 -3.11,-1.56 -2.33,-2.33zm-62.56 0l2.34 2.33c-0.16,-0.15 -3.12,-1.56 -2.34,-2.33zm-62.55 0c0,-19.43 12.5,-2 4.85,0 -0.1,0.02 -4.85,22.18 -4.85,0zm-62.56 7.82l0 -23.46c34.41,24.85 4.26,13.22 0,23.46zm-54.73 -15.64c0,-19.43 12.5,-2 4.85,0 -0.1,0.02 -4.85,22.18 -4.85,0zm-54.74 -7.82l2.33 2.33c-0.15,-0.16 -3.11,-1.56 -2.33,-2.33zm-62.56 0l2.33 2.33c-0.15,-0.16 -3.1,-1.56 -2.33,-2.33zm-62.56 0l2.34 2.33c-0.16,-0.16 -3.11,-1.56 -2.34,-2.33zm-62.55 0l2.33 2.33c-0.15,-0.16 -3.11,-1.56 -2.33,-2.33zm-62.56 0c8.04,-8.03 28.29,11.25 9.07,4.22 -0.18,-0.07 -22.19,8.9 -9.07,-4.22zm-437.89 -359.7c0,-89.35 11.55,-125.27 15.34,-234.88 0.98,-28.28 8.06,-39.85 13.12,-65.08 5.05,-25.22 0.48,-43.26 3.2,-67.17l62.26 -320.9c4.14,-35.73 11.32,-26.92 15.08,-55.3l141.23 -609.44c5.35,-32.39 8.44,-29.22 16.15,-62.04l60.03 -205.83c39.45,-128.91 14.38,-147.58 181.58,-162.46 45.51,-4.05 84.12,-15.38 141.03,-15.38 117.01,0 235.62,-3.44 349.02,18.5l101.54 23.57c21.75,6.07 31.48,5.92 50,12.55l93.72 31.4c0,40.13 2.98,31.83 17.28,76.56l135.82 466.27c4.11,14.9 1.58,14.19 3.94,27.34l56.44 201.6c5.75,17.13 2.92,15.08 7.24,31.86 4.96,19.28 7.9,20.55 14.38,48.17l27.34 97.77c3.83,12.78 2.16,14.38 5.2,26.09l19.2 74.62c9.08,27.66 3.63,0.5 8.57,22.71l45.47 181.3c6.38,23.4 0.4,29.83 8.47,54.08 17.11,51.4 28.01,147.8 32.7,162.8 28.54,91.47 24.57,286.36 24.57,382.04 0,39.3 -32.98,129.95 -48.83,170.13 -7.52,19.09 -15.31,29.85 -21.55,56.64 -28.24,-0.63 -147.63,-50.05 -190.54,-59.69 -19.85,-4.46 -31.3,-1.12 -50.39,-4.34 -10.42,-1.76 -31.71,-11.02 -41.97,-12.77 -17.8,-3.05 -35.06,-0.06 -52.82,-1.92 -31.52,-3.29 -44.16,-15.04 -86.24,-15.41l-289.77 -23.01c-108.04,-8.26 -564.1,-17.17 -695.85,-8.05 -45.65,3.16 -32.88,15.72 -125.04,15.72 -1.9,-22.81 -0.82,-10.77 -6.38,-24.9l-24.98 -92.32c-2.75,-54.89 -15.56,-82 -15.56,-140.83zm86.02 -1767.2c-3.13,37.65 -66.48,109.36 -87.46,147.12l-133.47 280.97c-0.7,1.78 -1.46,3.87 -2.18,5.64 -0.55,1.33 -7.32,15.33 -7.53,15.92 -4.94,14.13 -3.13,17.16 -7.39,31.71l-20.14 58.06c-6.24,17.68 -3.03,8.73 -8.21,30.88 -7.02,29.99 -1.13,2.44 -9.86,29.24 -7.04,21.62 -2.76,11.04 -5.4,33.7l-21.6 103.51c-8.53,33.88 -8.04,28.21 -9.42,68.78 -2.08,61.09 -15.76,3.36 -15.76,148.45l-7.9 -234.67c1.89,-27.25 12.67,-46.91 15.14,-70.87 5.76,-55.79 -9.24,-7.27 10.92,-67.27 7.22,-21.5 7.15,-52.26 32.51,-123.88l97.9 -222.71c47.4,-73.13 51.07,-92.61 118.69,-170.63l61.16 -63.95zm0 0l14.07 -17.21c-3.82,21.89 4.47,10.29 -14.07,17.21zm-46.92 2040.88c-56.97,0 -73.72,-32.37 -90.21,-73.99l-26.82 -137.39c-1.19,-35.33 -8.08,-54.31 -8.08,-101.4 0,-71.59 8.21,-112.53 7.74,-179.93l90.74 -527c4.99,-18.18 1.25,-24.95 4.78,-42.13 2.94,-14.35 9.48,-20.14 12.43,-34.49 3.52,-17.18 -0.21,-23.95 4.78,-42.13 6.23,-22.71 8.15,-10.07 11.85,-35.07 3.46,-23.35 -1.9,-17.35 5.89,-41.02 35.29,-107.18 58.6,-242.06 91.98,-353.74l188.06 -546.96 54.99 -93.59c5.29,-9.19 2.74,-6.44 8.45,-15.01 0.92,-1.38 2.27,-3.24 3.24,-4.58l26.37 -36.18c72.2,-107.52 214.03,-229.8 348.84,-229.8l115.86 17.07c66.4,20.04 128.41,74.94 175.35,121.8 105.46,105.3 177.61,208.7 243.27,343.18l32.63 76.85c47.53,118.34 87.55,242.44 119.23,365.57l19.19 74.65c3.73,14.5 8.36,20.32 12.09,34.82 2.21,8.59 1.34,11.33 3.55,19.91l73.13 247.47c4.75,17.19 1.83,23.16 6.58,40.34l95.84 396.79c9.62,28.83 5.65,-3.1 10.26,36.65 6.33,54.59 28.17,113.15 31.41,164.09l14.21 87.44c5.4,30.67 -0.11,61.43 6.07,95.58 10.64,58.9 8.07,147.08 -7.86,204.82l-29.88 110.87c-5.26,20.42 -0.03,-2.46 -8.43,22.85 -6.22,18.77 -7.22,32.52 -13.11,49.45l-39.25 78.05 -46.91 0 42.39 -59.27c81.32,-141.08 94.18,-363.47 63.65,-515.94 -12.24,-61.1 -9.74,-114.89 -22.9,-172.59 -2.4,-10.54 -10.03,-28.14 -11.29,-35.62 -3.23,-19.12 0.15,-30.55 -4.35,-50.4 -3.05,-13.47 -9.21,-26.14 -11.07,-35.84l-158.08 -592.58c-5.45,-17.51 -7.69,-19.05 -12.25,-34.67l-218.48 -618.21c-39.55,-78.44 -79.39,-150.84 -134.63,-217.25l-68.37 -80.2c-231.21,-231.23 -493.25,-112.98 -643.91,138.55 -50.52,84.35 -91.65,179.91 -126.67,272.13l-81.9 238.69c-4.86,13.75 -2.38,12.28 -5.9,25.39l-27.35 89.93c-2.74,10.09 -0.94,12.21 -2.81,20.65l-124.26 470.02c-3.72,32.15 -0.85,19.03 -9,45.74l-69.58 423.05c-1.3,95.62 -10.56,187.75 -7.52,281.8 1.25,38.65 7.89,45.31 7.81,86.03 -0.09,51.77 19.73,119.16 38.94,164.37l39.27 62.38zm-500.45 -422.25c0,123.79 -12.01,526.66 10.95,653.7 19.08,105.54 -11.17,223.95 -10.95,331.56 0.08,35.86 2.61,82.79 0.05,117.33 -2.2,29.65 -13.53,71.92 -15.73,101.57 -2.84,38.29 4.06,77.77 -1.61,115.68 -4.73,31.68 -14.16,61.61 -14.19,103.11 -0.02,48.33 1.26,71.39 -6.99,110.29 -8.85,41.67 -8.25,58.78 -8.24,109.05 0.01,46.94 -11.32,66.06 -15.3,101.99 -4.31,38.93 4.1,74.17 -4.94,112.36 -11.04,46.71 -11.12,49.86 -11.04,106.25 0.07,46.88 -11.33,66.09 -15.3,101.99 -5.2,47.02 1.53,73.7 -7.74,117.38 -9.11,42.92 -7.53,58.23 -8.13,109.15 -0.55,46.86 -14.75,58.43 -16.25,101.05l-15.04 219.54c-1.4,38.47 -14.8,62.56 -16.23,101.07 -1.83,49.47 3.68,67.6 -7.53,109.76 -11.2,42.17 -5.69,60.29 -7.52,109.77 -1.54,41.57 -15.65,63.89 -16.24,108.88 -0.65,50.51 -0.66,67.72 -7.51,109.77l-23.16 328.72c-0.55,38.23 -11.79,70.06 -15.38,101.91 -3.54,31.48 -0.7,83.3 -0.52,116.77 0.42,80.19 -15.68,140.14 -15.68,226.73 0,204.55 -15.05,513.74 13.97,705.43 7.12,47.1 -3.82,97.71 4.6,143.96 15.67,86.02 7.02,115.54 23.95,187.18 7.16,30.27 2.27,43.38 4.28,73.92 1.76,26.95 11.12,37.03 14.37,56 3.97,23.25 -1.33,42.31 4.23,66.15l25.56 123c6.06,26.71 -0.66,36.1 8.15,62.24l211.82 757.79c26.4,71.72 51.37,140.68 89.3,207.84l163.28 243.33c1.01,1.26 2.59,2.95 3.62,4.2l170.79 181.09c1.74,1.47 6.76,5.66 8.51,7.13 1.3,1.09 7.18,6.06 8.48,7.15 266.35,224.71 620.69,392.5 947.62,142.87 33.19,-25.33 50.24,-43.66 79.83,-68.74l133.41 -155.9c19.45,-29.34 40.11,-57.19 59.48,-89.09 10.76,-17.71 14.14,-28.76 24.84,-45.53l53.31 -87.45c5.45,-8.1 11.23,-16.72 15.07,-24.03 7.35,-13.99 5.42,-12.48 13.1,-26 9.43,-16.61 14.96,-27.62 25.11,-45.26 10.33,-17.97 14.47,-27.61 24.8,-45.58 20.1,-34.95 33.75,-61.56 51.45,-97.11 14.85,-29.83 30.63,-61.12 46.92,-93.84l127.16 -271.63c4.97,-11.87 7.55,-19.53 11.21,-27.89 7.97,-18.23 5.46,-10.05 10.29,-20.98l69.01 -165.58c0.7,-1.84 1.24,-4.04 1.94,-5.88 55.63,-144.1 117.69,-288.05 166.69,-435.41l177.03 -542.36c31.43,-99.4 68.27,-206.85 91.7,-307.1l187.39 -719.67c36.07,-283.63 16.09,-220.44 16.43,-484.02 0.1,-82.09 -32.65,-410.7 -51.31,-503.88l-122.3 -769.12c-0.95,-6.36 -9.04,-32.37 -11.22,-43.51 -4.3,-21.92 -1.15,-36.86 -4.36,-58.2l-109.93 -664.19c-3.85,-18.72 -12.16,-81.62 -13.67,-103.62 -1.26,-18.25 1.43,-34.47 -1.48,-53.26 -0.95,-6.14 -9.11,-32.4 -11.32,-43.42 -10.19,-50.56 -33.12,-439.42 -46.63,-516.37 -4.88,-27.85 -3.79,-123.24 -17.07,-209.69 -5.22,-33.95 -1.64,-113.12 -15.64,-203.31 -5.46,-35.15 1.88,-71.79 -2.26,-107.21 -14.76,-126.23 -35.18,-406.73 -56.14,-506.87 -13.07,-62.42 -10.38,-134.09 -24.33,-194.61 -17.27,-74.93 -26.4,-156.41 -51.88,-229.62l-98.42 -237.82c-9.71,-16.75 -12.87,-23.54 -21.5,-41.06 -14.78,-30.01 -23.28,-41.7 -41.18,-68.29 -17.7,-26.31 -24.51,-43.8 -40.52,-68.95 -42.43,-66.63 -174.42,-260.83 -234.26,-320.92l-218.9 -226.82c-95.41,-86.11 -241.26,-193.42 -385.22,-193.42 -130.47,0 -238.14,60.26 -320.85,109.22 -47.67,28.24 -86.12,54.62 -130.54,88.41 -83.34,63.4 -160.83,129.15 -234.78,203.1l-187.48 195.67c-4.62,5.19 -8.06,9.91 -10.57,12.9l-66.07 82.5c-1.46,1.75 -5.91,6.52 -7.37,8.27 -49.51,58.98 -95.1,123.1 -126.04,194.55l-22.31 63.71c-6.82,23.07 -6.12,14.08 -12.69,42.05 -5.21,22.16 -10.32,25.4 -13.52,41.21l-27.62 136.59c-8.2,23.82 -4.32,22.79 -5.15,49.59 -1.74,56.11 -30.04,131.46 -31.71,187.24 -1.63,54.79 0.16,51.68 -10.92,98.54 -8.51,35.98 -0.56,67.26 -5.99,103.48 -4.34,28.87 -14.23,56.07 -14.25,95.23 -0.02,38.6 2.23,69.44 -4.28,105.19 -14.29,78.42 -4.96,126.12 -11.11,207.84 -2.33,30.98 -5.74,15.98 -7.88,46.86l-7.81 156.4z"/>
  <path class="fil11" d="M24467.97 12224.95l-7.82 -7.82 7.82 7.82zm-7.82 -7.82l-8.99 -15.25 8.99 15.25zm-23.46 -39.1l2.33 2.33c-0.15,-0.15 -3.11,-1.55 -2.33,-2.33zm31.28 46.92l67.11 89.28c24.01,32.54 43.87,57.02 71.7,84.69 113.1,112.46 221.1,210.75 395.93,245.26 270.23,53.35 506.2,-80.05 683.16,-256.96l49.47 -52.18c80.52,-96.04 88.47,-104.01 162.04,-213.3l28.71 -49.49c12.49,-23.69 27.58,-30.05 27.58,-58.43l7.82 0c0,25.83 1.45,15.38 -5.99,33.11l-150.86 255.75 -148.62 164.17c-175,149.35 -243.7,188.83 -464.22,232.04 -2.54,0.49 -4.3,1.12 -6.87,1.55 -2.52,0.42 -4.23,0.96 -6.8,1.28l-61.48 0.74c-3.1,-0.03 -12,0.24 -14.83,0.01l-12.75 -2.11c-132.1,-24.05 -194.48,-32.07 -317.73,-114.12 -87.35,-58.16 -183.83,-159.17 -240.96,-251.67 -17.21,-27.88 -59.63,-76.15 -62.41,-109.62zm1501.34 -242.41l7.82 0 0 23.46 -7.82 0 0 -23.46zm15.64 -23.45c0,-19.43 12.5,-2.01 4.85,0 -0.1,0.02 -4.85,22.18 -4.85,0zm-1986.15 -993.08c0.78,-0.78 2.33,1.23 2.33,2.34l-2.33 -2.34zm-15.64 -39.1c0,-19.42 12.5,-2 4.85,0 -0.09,0.03 -4.85,22.19 -4.85,0zm-15.64 -54.73c0,-19.43 12.51,-2 4.85,0 -0.09,0.02 -4.85,22.18 -4.85,0zm-15.64 -62.56l7.82 0 0 23.46 -7.82 0 0 -23.46zm-15.64 -46.92l7.82 0 0 23.46 -7.82 0 0 -23.46zm-15.64 -62.55l7.82 0 0 31.28 -7.82 0 0 -31.28zm-15.64 -62.56l7.82 0 0 39.1 -7.82 0 0 -39.1zm-15.63 -62.55l7.82 0 0 46.91 -7.82 0 0 -46.91zm-15.64 -62.56l7.82 0c0,49.05 19.27,37.94 -7.82,46.92l0 -46.92zm1845.39 -922.7c0,-70.32 15.73,-120.56 15.45,-195.67 -0.18,-48.48 10.54,-58.21 15.01,-94.47 5.25,-42.61 16.46,-47.97 16.46,-93.01l7.82 0c0,151.39 12.94,137.89 15.93,218.65l12.5 104.8c4.78,20.75 1.1,31.57 3.31,51.42 2.1,18.78 11.29,34.14 13.79,48.77 3.1,18.19 -0.51,35.96 1.69,53.04 3.29,25.58 11.37,21.34 14.86,47.7l16.72 100.57c3.52,23.75 9.64,23.02 13.44,41.3 5.29,25.45 1.29,31.03 8.3,54.25 7.46,24.68 4.51,17.29 9.53,45.21 4.84,26.9 10.59,22.09 14.43,48.12l94.26 429.66c3.96,36.36 2.56,20.81 11.18,51.37l20.75 151.28c2.09,18.77 11.2,34.05 13.79,48.76 9.72,55.12 1.87,169.14 1.08,225.08 -0.97,69.24 4.42,45 -12.22,105.08 -5.58,20.15 -0.8,30.84 -4.6,50.13l-216.1 526.75 -91 143.58c-48.7,58.93 -85.74,126.65 -134.99,185.61 -11.33,13.56 -15.39,23.28 -26.06,36.5 -1.01,1.26 -2.63,2.91 -3.66,4.15l-93.61 109.71c-9.13,7.26 -11.18,7.28 -19.56,11.72 8.49,-31.8 35.41,-66.79 50.77,-97.8l70.52 -132.8c8.69,-17.42 11.76,-23.7 18.17,-36.56l33.68 -67.97c4.56,-10.55 8.86,-22.95 13.42,-33.5l167.64 -403.18c10.44,-29.91 16.19,-53.01 26.7,-82.77l30.45 -118.13c35.65,-130.74 36.05,-267.62 26.68,-403.66l-30.02 -157.64c-9.14,-53.39 -7.2,-106.56 -21.69,-158.17l-23.77 -116.97c-4.41,-19.13 -1.64,-25.44 -2.92,-44 -2.29,-33.42 -13.2,-37.09 -15.5,-70.52l-22.42 -165.25c-12.72,-40.26 -5.9,-39.22 -8.86,-84.97 -1.75,-27.08 -12.55,-46.87 -15.22,-70.79 -3.16,-28.31 0.96,-64.47 -0.19,-93.64 -2.18,-54.79 -15.94,-109.49 -15.94,-171.74zm-953.97 -1079.09l2.33 2.33c-0.15,-0.15 -3.11,-1.55 -2.33,-2.33zm1079.09 -54.73c0,-19.43 12.5,-2 4.85,0 -0.1,0.02 -4.85,22.18 -4.85,0zm-1047.81 -125.11l2.33 2.33c-0.15,-0.15 -3.11,-1.56 -2.33,-2.33zm15.63 -109.48l2.34 2.33c-0.16,-0.15 -3.11,-1.55 -2.34,-2.33zm-836.68 31.28l-7.82 0 0 -78.19c25.67,8.51 11.29,-9.83 9.27,23.13 -1.18,19.3 -1.45,35.66 -1.45,55.06zm7.82 -172.03l7.82 0 0 70.38 -7.82 0 0 -70.38zm15.64 -86.01l7.82 0 0 54.73 -7.82 0 0 -54.73zm844.5 39.1l2.34 2.33c-0.16,-0.15 -3.12,-1.56 -2.34,-2.33zm453.53 -62.56l2.34 2.33c-0.16,-0.15 -3.12,-1.55 -2.34,-2.33zm-1282.39 -62.56l7.82 0 0 46.92 -7.82 0 0 -46.92zm844.5 15.64l2.34 2.33c-0.16,-0.15 -3.11,-1.55 -2.34,-2.33zm-828.86 -93.83l7.81 0 0 31.28 -7.81 0 0 -31.28zm844.5 -23.46c0,-19.43 12.51,-2 4.85,0 -0.09,0.02 -4.85,22.18 -4.85,0zm-828.86 -62.55l7.82 0 0 23.45 -7.82 0 0 -23.45zm1204.2 -7.83l2.33 2.33c-0.15,-0.15 -3.11,-1.55 -2.33,-2.33zm-359.7 -46.91l2.33 2.33c-0.15,-0.15 -3.11,-1.55 -2.33,-2.33zm344.06 -7.82c0,-19.43 12.5,-2 4.85,0 -0.1,0.02 -4.85,22.18 -4.85,0zm-1172.92 -7.82c0,-19.43 12.5,-2 4.85,0 -0.1,0.02 -4.85,22.18 -4.85,0zm844.5 -109.47l2.33 2.33c-0.15,-0.16 -3.11,-1.56 -2.33,-2.33zm281.5 -117.3l2.34 2.33c-0.16,-0.15 -3.12,-1.55 -2.34,-2.33zm-265.86 -54.73l2.33 2.33c-0.15,-0.15 -3.11,-1.55 -2.33,-2.33zm0 -62.56l2.33 2.33c-0.15,-0.15 -3.11,-1.55 -2.33,-2.33zm0 -62.55l2.33 2.33c-0.15,-0.15 -3.11,-1.56 -2.33,-2.33zm-1188.56 -46.92l7.82 0 0 31.28 -7.82 0 0 -31.28zm1407.5 -7.82l2.34 2.33c-0.16,-0.15 -3.11,-1.55 -2.34,-2.33zm0 -54.74l2.34 2.33c-0.16,-0.15 -3.11,-1.55 -2.34,-2.33zm15.64 -62.55l2.34 2.33c-0.16,-0.15 -3.11,-1.56 -2.34,-2.33zm-469.17 -31.28l2.34 2.33c-0.16,-0.15 -3.12,-1.55 -2.34,-2.33zm-172.02 -422.25c-22.32,-5.34 -11.77,1.19 -23.47,-15.64 22.32,5.34 11.77,-1.19 23.47,15.64zm0 0c16.29,1.78 6.3,-1.07 18.74,4.71l115.41 72.26c17.4,8.74 15.25,6.88 30.19,16.73 11.4,7.51 19.69,14.45 32.6,22.13 16.05,9.56 20.13,9 36.19,18.56 12.87,7.66 21.48,14.49 32.73,22 10.48,7 15.63,10.1 28.27,18.64l70.51 62.43c1.04,1.24 2.46,3.07 3.5,4.31 1.04,1.24 2.59,2.95 3.64,4.18 50.03,59.07 52.77,90.07 89.56,145.02l93.84 0c17.98,-37.46 25.4,-65.11 55.07,-101.31 45.14,-55.1 148.39,-112.16 194.7,-149.36l188.12 -171.58c-10.25,38.37 -61.73,77.25 -89.89,105.6 -9.09,9.16 -4.42,5.15 -15.53,15.74l-187.16 149.08c-41.17,27.56 -94.43,73.61 -102.72,125.43 -8.57,53.66 58.26,4.64 105.52,42.5 1.07,0.86 3.28,2.96 4.15,3.67 0.86,0.72 2.73,2.48 4.13,3.69 -78.26,0 -83.03,-9.96 -132.93,23.46 0,35.05 -2.88,72.9 3.13,106.34 4.16,23.2 3.65,24.25 4.56,50.17 1.28,36.63 2.76,21.5 11.09,51.47 6.25,22.49 2.42,26.51 6.26,48.48 2.7,15.45 11.25,29.76 13.47,49.08 2.99,25.94 -2.67,23.86 5.86,48.88 9.6,28.2 10.36,10 10.36,52.19 72.79,16.96 144.83,15.64 234.59,15.64l0 7.82c-59.08,0 -56.51,15.57 -109.17,15.94 -46.59,0.33 -78.67,0.41 -109.78,15.34l62.56 320.6 107.47 9.82c40.3,6.93 83.54,5.82 134.93,5.82l0 7.82c-70.26,0 -137.93,-2.03 -187.66,31.28 -9.07,-22.46 5.21,-15.65 -39.1,-15.65 0,38.93 -2.84,41.11 7.81,70.39l57.68 270.73c11.01,19.4 47.37,8.32 74.67,11.34 48.4,5.36 100.84,15.06 156.98,15.06l0 7.82c-281.5,0 -213.18,27.31 -203.31,86.01 11.35,67.53 36.24,131.2 46.15,196.26 6.01,39.47 11.28,57.63 48.83,55.79l217.8 6c-57.97,0 -55.66,9.56 -148.64,15.57 -17.28,1.11 -56.21,10.5 -71.45,15.17 -34.73,10.62 -11.62,48.16 -2.15,82.02 4.82,17.25 1.77,23.07 6.59,40.33 4.05,14.51 7.72,15.45 10.61,28.49l17.37 68.64c5.64,18.19 6.51,17.3 12.2,34.72 13.21,40.46 6.4,28.5 26.9,59.11 84.31,-7.01 180.38,-33.63 260.42,-60.17l255.67 -80.58c119.28,-42.97 88.04,-30.04 93.54,-172.32 1.59,-41.16 15.59,-72.71 16.23,-116.69l30.98 -625.87c-0.02,-133.53 15.63,-235.42 15.63,-383.15l7.83 0c0,112.05 -0.56,224.24 0.03,336.27l-15.88 234.35c-0.13,137.2 1.6,285.21 -7.58,414.67l-7.82 156.39c0.34,63.86 -15.67,101.76 -15.67,156.35 -44.08,3.67 -4.5,-1.32 -35.47,11.46l-64.06 21.94c-1.94,0.61 -4,1.28 -5.88,1.94l-492.27 141.11c-21.14,4.68 -25.76,7.08 -43.52,11.22 -9.54,-6.39 -28.85,-16.79 -35.62,-26.93 -16.71,-25.02 -25.81,-68.81 -33.13,-91.99 -6.81,-21.58 -11.8,-32.51 -15.5,-47.05 -14.92,-58.65 -31.67,-141.96 -56.5,-193.72 -40.76,0 -80.45,12.95 -117.25,15.68 -81.79,6.07 -351.29,-14.7 -398.1,0.69 -25.54,8.41 -12.55,12.3 -19.66,42.9l-53.55 212.31c-19.07,47.02 -41.11,99.87 -92.42,118.73 -85.61,31.45 -218.89,-33.16 -300.17,-66l-93.36 -39.58c-19.78,-7.82 -29.74,-11.17 -44.77,-17.79l-140.99 -62.31c-39.92,-20.22 -130.48,-49.97 -158.89,-75.7 -17.17,-15.54 -8.38,4.03 -11.81,-27.28l-23.45 0c-8.37,35.89 -14.89,57.17 -15.54,101.76l-29.78 204.79c-6.02,40.18 -3.13,77.06 -9.42,115.7 -14.38,88.23 -47.42,465.52 -47.01,555.09l7.86 359.84 70.43 414.38c-31.1,-22.78 -8.2,-22.6 -26.01,-75.64 -8.68,-25.84 -2.36,-23.38 -5.75,-48.99 -3.07,-23.19 -10.07,-23.22 -13.68,-41.06 -3.49,-17.24 -0.59,-30.94 -4.34,-50.39l-25.59 -138.62c-6.77,-33.6 0.26,-68.39 -5.87,-103.61 -17.9,-102.73 -12.38,-210.72 -12.6,-315.82l103.39 -975.7c14.42,-55.82 3.72,-146.81 -6.72,-200.06l-15.63 -93.83c-8.05,-34.26 -1.03,-62.59 -10.66,-98.81l-48.89 -389c-7.55,-35.94 -1.87,-62.17 -6.39,-103.09 -3.48,-31.58 -14.99,-54.49 -15.39,-94.09 -0.76,-76.29 -11.75,-119.13 -15.06,-203.88 -1.06,-27.45 -10.78,-72.32 -14.25,-95.22 -4.44,-29.33 -1.68,-76.44 -1.68,-107.8l63.18 492.01c6.96,32.82 4.67,39.56 7.15,78.86 1.53,24.11 11.43,45.91 14.19,64l87.51 483.32c0.8,-35.65 2.74,-22.41 11,-51.57 7.74,-27.36 1.03,-39.32 6.07,-64.3 5.26,-26.08 13.31,-14.67 14.35,-56.03 1.04,-41.64 -9.68,-36.42 15.5,-54.87 -2.59,31.14 -9.71,85.52 -17.37,115.57l-20.04 120.7c-20.11,139.5 13.95,147.84 13.95,240.72 11.24,7.52 19.88,14.3 32.73,22.01l315.16 138.37c3.98,1.65 11.8,5.99 15.66,7.79l162.21 64.56c92.59,34.1 201.03,81.32 244.89,-48.54l49.82 -176.96c10.09,-87.06 40.44,-64.9 -49.74,-82.03 -72.58,-13.78 -112.7,-4.35 -159.43,-12.6 -47.7,-8.41 -46.44,-14.26 -103.03,-14.26l328.42 -7.82c22.76,-43.01 8.64,-25.99 17.11,-76.72 1.25,-7.46 8.9,-25.1 11.29,-35.62l34.15 -223.89c-52.06,0 -81.53,-16.01 -140.66,-15.73 -101.69,0.48 -128.95,-15.55 -148.66,-15.55l0 -7.82c85.38,0 176.76,5.02 260.99,-3.72 30.3,-3.14 37.21,8.87 44.42,-34.9 5.27,-31.91 13.22,-42.54 15.11,-70.93 4.73,-70.74 31.36,-136.83 31.36,-242.33 -55.86,0 -118.52,7.01 -176.75,-3.09 -66.61,-11.56 -106.55,-12.54 -182.95,-12.54l0 -7.82c66.55,0 111.29,-15.05 171.73,-15.95 26.53,-0.39 174.84,3.6 187.26,-0.4 27.34,-8.83 28.95,-125.28 32.37,-155.3 3.65,-32.09 15.28,-32.64 15.54,-78.3 0.24,-43.8 4.83,-53.78 7.54,-86.29 -40.53,-21.45 -43.33,-15.63 -101.86,-15.44 -56.56,0.19 -56.95,-15.84 -101.45,-15.84l0 -7.82c82.04,0 144.81,-0.19 211.12,-15.64 0,-79.79 7.54,-130.27 7.91,-211.21 0.22,-47.64 -8.22,-56.94 -8.02,-101.45 0.28,-61.03 -11.93,-58.59 -15.52,-101.77 -97.24,0 -132.46,-15.64 -250.23,-15.64 60.51,-52.6 112.17,-4.58 226.77,-31.28 -0.85,-37.89 -8.18,-47.88 -23.31,-70.52 -44.43,-66.46 -87.95,-108.03 -153.41,-151.55 -21.47,-14.27 -35.67,-23.71 -56.3,-37.53 -59.95,-40.18 -128.75,-73.59 -181.41,-123.55zm-23.47 -15.64l-7.81 -7.82 7.81 7.82zm-7.81 -7.82l-16.82 -4.3 16.82 4.3zm1032.17 -15.64l-7.82 7.82 7.82 -7.82zm7.82 -7.82l-7.82 7.82 7.82 -7.82zm-1079.09 0c8.03,-8.03 28.28,11.25 9.07,4.22 -0.19,-0.07 -22.2,8.91 -9.07,-4.22zm1086.91 -7.82l-7.82 7.82 7.82 -7.82zm0 0l0 -7.82 9.12 6.52 -9.12 1.3zm-1110.37 -7.82c8.03,-8.03 28.29,11.26 9.07,4.22 -0.19,-0.07 -22.2,8.91 -9.07,-4.22zm1126 -15.64l2.34 2.34c-0.16,-0.16 -3.11,-1.56 -2.34,-2.34zm-1141.64 0l2.34 2.34c-0.16,-0.16 -3.12,-1.56 -2.34,-2.34zm1157.29 -15.64c0,-19.42 12.5,-1.99 4.85,0 -0.1,0.03 -4.85,22.19 -4.85,0zm15.63 -15.63c0,-19.43 12.51,-2 4.86,0 -0.1,0.02 -4.86,22.18 -4.86,0zm258.05 1900.13l-7.82 0c0,-27 0.71,-15.54 -6.17,-32.92 -6.76,-17.05 0.85,6.34 -7.58,-15.88l-217.37 -658.42c-3.22,-10.85 -1.87,-11.61 -3.99,-19.46 -7.44,-27.49 -7.73,-13.44 -13.15,-33.78 -4.82,-18.09 -0.77,-19.35 -7.29,-39.62l-20.63 -65.39c-6.57,-20.44 -2.08,-14.77 -5.99,-33.11l-56.54 -209.32c-17.21,-51.86 -51.29,-218.11 -40.29,-264.1l15.24 -39.57c17.12,-34.86 47.54,-70.48 62.54,-86.03l15.77 -15.51c1.14,-1.13 2.81,-2.74 3.94,-3.87l19.7 -19.41c1.11,-1.16 2.69,-2.85 3.77,-4.04l7.31 -8.33c86.79,-101.7 189.87,-191.49 284.08,-286.74l80.36 -91.67c0.73,-0.86 2.36,-2.84 3.58,-4.24 -3.4,40.86 -37.42,72.58 -59.29,104.91 -14.71,21.74 -21.47,24.76 -34.65,43.56l-228.78 271.65c-18.18,20.39 -22.31,22.15 -40.13,45.89 -111.05,147.86 -59.84,124.29 -28.13,315.93l175.33 700.46c6.2,22.23 7.24,10.52 11.69,35.23l57.87 231.45c6.97,21.23 2.54,19.45 7.07,39.85 11.4,51.27 29.55,84.9 29.55,142.48zm-242.41 -1923.59l2.34 2.33c-0.16,-0.16 -3.11,-1.56 -2.34,-2.33zm359.7 -23.46l2.33 2.33c-0.15,-0.15 -3.11,-1.55 -2.33,-2.33zm-344.06 0l2.33 2.33c-0.15,-0.15 -3.11,-1.55 -2.33,-2.33zm15.64 -15.64l2.33 2.33c-0.15,-0.15 -3.11,-1.55 -2.33,-2.33zm-1055.63 -62.56l2.34 2.33c-0.16,-0.15 -3.12,-1.55 -2.34,-2.33zm289.32 -15.64c0.32,-2.58 8.63,-1.75 9.32,-1.49 1.95,0.73 13.58,-18.09 3.4,2.1 -0.23,0.45 -14.59,14.47 -12.72,-0.61zm-54.73 0c8.03,-8.03 28.28,11.25 9.06,4.22 -0.19,-0.07 -22.19,8.91 -9.06,-4.22zm-54.74 0l2.33 2.34c-0.15,-0.16 -3.11,-1.56 -2.33,-2.34zm234.58 -7.82c0,-19.42 12.51,-1.99 4.85,0 -0.09,0.03 -4.85,22.19 -4.85,0zm-54.73 15.65c-11.2,1.38 -14.4,-14.88 -0.61,-12.72 17.79,2.79 4.7,12.21 0.61,12.72zm414.43 -23.47l2.33 2.34c-0.15,-0.16 -3.11,-1.56 -2.33,-2.34zm-62.55 0l2.33 2.34c-0.16,-0.16 -3.11,-1.56 -2.33,-2.34zm-62.56 0l2.33 2.34c-0.15,-0.16 -3.11,-1.56 -2.33,-2.34zm-54.74 0l2.33 2.34c-0.15,-0.16 -3.11,-1.56 -2.33,-2.34zm-62.56 0c8.04,-8.03 28.29,11.26 9.08,4.22 -0.19,-0.06 -22.2,8.91 -9.08,-4.22zm-54.73 0l2.33 2.34c-0.15,-0.16 -3.11,-1.56 -2.33,-2.34zm-907.06 -281.5c0,-150.77 11.78,-100.77 15.32,-219.26 1.06,-35.28 10.51,-40.1 14.49,-63.71 5.96,-35.3 0.09,-34.35 10.39,-67.8l272.06 -1025.97c5.26,-22.5 2.43,-13.56 8.33,-30.77 5.59,-16.29 3.2,-11.54 8.35,-30.75l84.16 -275.53c42,-109.6 -0.73,-81.7 120.14,-114.45 100.06,-27.12 105.22,-25 201.79,-40.61 108.95,-17.61 505.89,-13.15 572.27,45.47l42.08 114.31c4.11,14.07 2.65,18.25 6.8,32.29 4.39,14.85 7.15,15.8 10.46,28.65l203.59 867.67c2.7,13.39 0.55,23.8 2.07,37.03 2.94,25.59 11.44,31.93 14.86,63.33 3.95,36.21 10.43,40.52 14.36,63.84l17.52 138.87c2.82,25.3 13.35,33.04 15.36,62.83 1.81,26.77 -2.76,48.41 2.7,75.5 24.14,119.83 12.81,254.78 12.81,378.16 0,30.94 -44.75,147.07 -46.92,156.39 -24.92,-5.8 -24.03,-12.33 -47.27,-15.28 -206.17,-26.22 -657.87,-23.77 -852.54,-0.93 -33.24,3.9 -75.04,-1.95 -108.95,0.53 -32.5,2.36 -66.64,14.71 -101.32,15.97 -96.5,3.51 -241.22,20.64 -332.81,58.16l-17.39 6.06c-50.92,19.86 24.89,13.69 -64.51,13.69l-78.2 -273.69zm1579.53 -1853.21c49.28,33 80.99,92.49 108.03,126.56 15.75,19.84 21.54,24.71 37.44,48.57l59.43 104.78c12.52,21.79 14.15,28.36 25.62,52.57l82.3 238.31c15.31,43.08 23.42,173.78 23.42,226.79 0,54.74 0,109.48 0,164.21l-7.82 0c0,-24.19 1.7,-54.9 0.08,-78.27 -1.67,-24.2 -11.41,-45.81 -14.23,-63.96 -3.97,-25.65 1.58,-48.68 -4.33,-73.87l-38.58 -164.73c-5.32,-15.83 -3.14,-17.34 -7.5,-31.59l-29.26 -88.03c-5.64,-18.45 -4.94,-16.05 -12.35,-34.57 -9.64,-24.09 -12.62,-31.86 -22.17,-56.02l-24.05 -54.15c-47.91,-117.18 -119.06,-208.19 -176.03,-316.6zm-1626.45 1751.56c0,112.86 19.87,255.19 89.09,348.8 15.98,21.61 15.32,17.82 28.2,42.17 -76.75,-17.88 -78.96,-55.34 -98.24,-120.7l-42.51 -176.43c-17.88,-69.01 -10.33,-162.38 3.44,-231.16 6.18,-30.86 1.06,-56.88 9.03,-84.8 14.73,-51.58 15.7,-114.64 29.8,-165.68l62.68 -265.74c7.61,-27.27 6.66,-8.02 12.35,-42.39 10.6,-64.12 32.58,-123.34 48.69,-185.9 3.73,-14.51 8.45,-20.36 12.15,-34.77 8.42,-32.87 10.72,-49.67 19.06,-82.58 4.15,-16.38 17.09,-48.19 24.19,-69.65l21.53 -80.12c4.83,-20.85 15.74,-50.04 23.07,-70.77 30.9,-87.49 52.43,-190.83 84.02,-275.68l58.88 -160.06c43.59,-105.73 104.84,-218.86 179.47,-305.33 18.32,-21.23 21.87,-29.83 43.06,-50.78l101.47 -94.01c118.83,-89.89 248.78,-131.89 390.17,-49.65 31.33,18.23 78.56,52.79 102.73,77.13l85.86 93.98c58.76,75.7 107.88,159.88 140.98,249.99 5.4,14.7 7.05,20.99 11.94,34.99l191.56 652.94c3.51,17.16 -0.17,23.95 4.78,42.13l52.67 221.02c13.93,45.56 12.85,100.49 27.64,144.38l26.56 153.29c3.49,29.71 13.88,32.32 15.19,70.82 1.64,48.18 4.79,41.85 12.69,81.15 5.69,28.31 -0.04,53.92 4.31,81.7 3.97,25.39 14.15,44.22 14.15,79.68l0 250.23c0,33.26 -25.27,130.85 -40.22,163.08 -16.49,35.55 -26.93,55.86 -77.07,55.86l19.52 -35.22c1.74,-3.49 6.5,-12.18 8.04,-15.41l31.83 -93.28c29.5,-108.74 18.81,-280.94 18.81,-395.63l-47.38 -374.87c-7,-63.53 -36.48,-147.6 -46.57,-211.48 -4.8,-30.43 -10.55,-37.31 -14.77,-63.42 -3.41,-21.02 0.58,-12.8 -6.1,-33.01l-105.86 -410.22c-3.08,-14.01 -8.08,-20.2 -12.02,-34.9l-48.79 -154.51c-5.27,-15.14 -6.78,-19.18 -12.11,-34.81 -0.82,-2.39 -2.73,-9.7 -3.55,-12.08 -0.67,-1.91 -1.17,-4.09 -1.87,-5.96l-11.66 -27.44c-20.85,-67.48 -52.68,-134.67 -84.13,-197.37l-61.85 -110.18c-53.86,-80.71 -130.5,-170.97 -224.56,-205.51 -217.87,-79.97 -336.02,16.8 -462.59,168.95 -10.58,12.73 -11.82,11.75 -21.45,25.46 -54.13,76.96 -100.59,159.03 -139.3,243.85l-28.83 65.01c-11.49,23.97 -20.67,47.35 -29.58,72.07l-299.3 951.83c-4.59,16.3 -2.45,23.61 -6.33,40.58 -3.17,13.85 -8.72,26.32 -10.88,36.03l-62.78 328.2c-4.7,29.84 1.04,57.87 -4.62,89.22 -6.12,33.92 -4.69,59.93 -4.69,96.96zm-711.57 3112.16c0,390.81 24.68,341.63 79.89,631.68l37.4 142.45c32.61,93.09 45.07,198.98 75.82,291.69 46.7,140.83 75.83,284.15 123.12,424.24l133.87 421.32c8.46,25.46 10.05,32.77 17.95,52.42l210.96 555.35 362.43 740.12c47.41,85.11 97.23,171.94 160.81,245.8 6.5,7.56 7.35,8.02 14.68,16.6 1.48,1.73 5.68,6.75 7.15,8.49 1.04,1.24 2.53,3 3.58,4.24 1.04,1.24 2.53,3 3.58,4.25 1.04,1.23 2.58,2.95 3.62,4.19l75.68 72.89c17.28,12.89 20.28,19.83 37.52,32.85 59.77,45.15 121.36,79.8 193.35,103.79 48,16 64.2,19.99 123.98,24.59 25.01,1.93 32.69,10.37 61.84,7.39 21.36,-2.18 31.33,-5.38 63.29,-7.69 164.85,-11.89 371.59,-128.63 494.84,-240.19l216.93 -220.96c1.04,-1.24 2.61,-2.94 3.63,-4.18 1.03,-1.25 2.61,-2.94 3.63,-4.2l9.96 -13.49c37.48,-49.11 78.93,-94.13 109.28,-148.77l39.01 -70.46c5.36,-10.81 7.6,-15.28 12.99,-26.11l61.89 -141.41c0.71,-1.83 1.25,-4.04 1.96,-5.87l137.34 -410.02c4.17,-14.09 2.65,-18.18 6.82,-32.28l17.69 -60.5c9.05,-26.99 3.75,-1.51 8.45,-22.83l48.53 -217.33c5.43,-34.36 11.72,-28.54 15.28,-55.1l42.75 -246.57c8.47,-29.58 1.66,-43.63 5.02,-73.17 2.48,-21.83 12.35,-33.62 14.88,-55.49 3.02,-26.05 -1.74,-47.11 3.31,-74.89l12.41 -128.34c1.8,-47.61 16.29,-75.7 16.02,-132.55 -0.51,-109.44 15.56,-178.36 15.56,-281.59 0,-125.83 9.28,-462.46 -9.51,-584.77 -2.93,-19.06 -6.3,-24.31 -6.34,-56.23 -0.08,-78.96 -2.39,-161.34 -13.76,-236.46 -5.26,-34.77 -0.82,-86.78 -1.37,-123.74 -0.55,-37.35 -11.67,-77.49 -15.37,-109.74 -4.35,-37.97 2.3,-85.82 -0.52,-124.58 -2.65,-36.29 -15.41,-67.95 -15.99,-109.13 -1.26,-88.32 -15.16,-139.46 -15.14,-227.27 0.01,-49.38 -13.07,-69.35 -15.9,-109.21 -3.02,-42.61 4.07,-79.18 -4.32,-120.79 -13.2,-65.45 -11.7,-134.37 -25.3,-224.92 -6.01,-39.99 2.81,-81.93 -3.19,-121.92 -6.08,-40.47 -14.49,-54.63 -14.08,-111.04 0.38,-51.22 -0.75,-64.56 -9.76,-107.52 -8.55,-40.73 -2.34,-71.81 -5.8,-119.32 -2.64,-36.28 -15.4,-67.95 -15.99,-109.12 -0.74,-52.25 -2.07,-74.99 -7.27,-117.84 -9.03,-74.44 -5.8,-157.36 -19.21,-231.01 -12.78,-70.11 -2.77,-152.09 -17.01,-233.22 -13.26,-75.57 2.85,-168.49 -3.08,-247.15 -2.23,-29.73 -6.8,-20.39 -8.15,-54.4l8.68 -429.79c25.61,-218.29 -0.77,-469.43 -0.57,-688.68l-20.02 -316.22c-9.01,-44.66 -11.64,-53.31 -11.18,-106.12l-36 -300.23c-6.25,-21.81 -9.52,-19.39 -11.04,-43.7l-25.94 -146.09c-8.12,-24.25 -2.2,-24.38 -6.89,-47.85l-15.67 -46.88c-22.72,-71.8 -57.87,-147.41 -104.83,-207.95l-37.34 -48.68c-11.88,-16.1 -17.28,-18.45 -28.34,-34.21l-23.29 -31.45c-101,-119.03 -216.3,-255.37 -337.74,-350.37l-93.78 -78.25c-189.57,-150.74 -405.21,-294.62 -652.81,-170.78 -29.84,14.93 -43.02,23.15 -70.46,39.02 -29.36,16.97 -40.91,27.65 -65,44.46l-61.23 48.25c-57.47,45.39 -157.38,140.19 -198.37,192.61l-85.18 102.48c-1.05,1.22 -2.6,2.94 -3.65,4.17 -88.82,104.05 -193.43,261.3 -261.48,379.71l-92.05 181.64c-42.24,108.09 -88.19,286.39 -95.88,396.75 -4.15,59.55 -28.97,133.59 -31.23,195.53 -1.55,42.16 -5.75,58.14 -12.5,96.98 -12.77,73.45 -13.57,135.52 -18.65,208.11 -1.83,26.21 -12.25,69.52 -15.1,94.38 -4.25,37.08 1.46,65.73 -5.23,104.24 -11.58,66.79 -10.98,141.27 -19.04,207.72 -7.71,63.49 -7.36,135.76 -18.62,200.33 -6.71,38.48 -0.92,67.25 -5.17,104.3 -2.86,25.01 -13.16,67.93 -15.11,94.36l-15.34 203.61c-1.04,31.49 -12.3,66.6 -15.33,94.14l-11.81 105.49c-16.45,69.98 -23.96,207.3 -40.06,288.35l-15.9 101.39c-7.87,28.07 -8.21,13.09 -10.81,43.92l-156.35 891.48c-4.51,41.01 -12.88,53.31 -15.86,93.61 -3.15,42.71 -11.86,54.4 -15.89,101.4 -2.92,34.2 -12.46,56.45 -15.39,94.08l-78.24 641.15c-1.38,18.37 0.05,43.49 0.05,62.61z"/>
  <path class="fil14" d="M24937.13 5171.78c-61.53,0 -71.41,-72.9 11.11,-73.61 33.99,-0.29 34.67,18.03 67.09,26.69 23.03,-63.63 90.54,-17.92 117.29,0 41.71,-62.28 77.15,-23.75 78.2,23.46 -33.47,12.11 9.55,-1.92 -15.53,8.84 -19.62,8.42 -44.13,23.49 -54.85,-16.66 -58.99,15.75 19.94,23.46 -101.65,23.46 -18.8,0 -22.99,-12.68 -39.1,-23.46 -7.24,13.69 -3.64,31.28 -62.56,31.28zm-265.85 -93.84l2.33 2.33c-0.15,-0.15 -3.11,-1.55 -2.33,-2.33zm719.39 -15.64l2.33 2.33c-0.16,-0.15 -3.11,-1.55 -2.33,-2.33zm-688.12 0l0 0zm609.92 -15.64l39.1 0 0 7.83 -39.1 0 0 -7.83zm-563 15.64c19.87,-27.12 3.69,-9.95 44.28,-18.27 162.14,-33.24 314.24,-44.02 478.87,-12.25 22.77,4.39 16.92,1.75 32.03,14.88 -197.35,-16.42 -355.05,-30.98 -555.18,15.64zm-234.58 86.02c0,65.74 127.37,111.46 172.79,124.35 128.65,36.52 247.99,39.86 382.39,39.86 70.78,0 160.86,-20.56 220.21,-30.01 41.46,-6.6 37.46,-7.39 69.95,-16.07 219.45,-58.66 303.16,-197.4 -15.3,-283.52 -67.26,-18.2 -262.08,-35.61 -320.63,-28.96 -43.7,4.96 -117.27,5.13 -158.29,13.75 -83.56,17.54 -351.12,51.77 -351.12,180.6z"/>
  <path class="fil14" d="M27845.98 5132.68c-4.37,-18.29 -15.94,-70.38 15.64,-70.38 39.14,0 32.91,15.29 54.74,31.28 42.31,-36.78 96.14,-49.94 109.47,0 60.52,-5.03 0.67,-23.46 78.2,-23.46 46.13,0 46.91,16.51 46.91,62.56 -57.27,13.34 -82,17.56 -109.47,-23.46 -8.73,6.4 -48.45,66.63 -125.11,0 -28.98,10.49 -3,23.46 -70.38,23.46zm547.37 -70.38l2.33 2.33c-0.15,-0.15 -3.11,-1.55 -2.33,-2.33zm-46.92 -15.64c9.06,-9.06 44.57,13.23 9.76,3.19 -0.93,-0.27 -23.33,10.39 -9.76,-3.19zm-54.74 -15.64l0 0zm-649.01 0l2.33 2.33c-0.15,-0.15 -3.11,-1.55 -2.33,-2.33zm39.09 -15.63l39.1 0 0 7.82 -39.1 0 0 -7.82zm46.92 -7.82c102.12,-23.8 198.41,-23.46 304.96,-23.46 67.58,0 130.65,15.18 191.36,27.59 42.14,8.6 38.8,-8.06 58.86,19.32 -48.41,-4.02 -102.3,-21.49 -148.58,-23.44 -228.96,-9.62 -180.23,-6.62 -378.97,4.75l-27.63 -4.76zm-234.58 62.55c0,53.09 -5.21,64.47 77.96,117.53 77.25,49.29 301.45,93.6 383.39,93.6l187.67 0c57.63,0 129.89,-16.04 182.38,-28.74 32.89,-7.96 37.63,-8.03 62.1,-16.09 220.78,-72.72 163,-198.33 -41.13,-260.18 -197.1,-59.71 -295.09,-46.87 -500.5,-46.87 -45.19,0 -66.58,9.36 -102.97,14.32 -36.97,5.03 -69.95,12.02 -102.55,22.56 -23.96,7.76 -67.65,25.33 -87.28,37.84 -17.95,11.45 -59.07,43.82 -59.07,66.03z"/>
  <path class="fil11" d="M24835.49 8596.71c0,20.44 -0.62,31.27 23.45,31.27 77.92,0 289.1,3.21 354.02,-5.68 26.37,-3.61 50.05,-1.78 76.71,-1.48 88.86,1.01 48.6,-29.6 21.48,-179.18l-27.56 -113.19c-6.6,-23.35 -0.22,-15.88 -10.22,-36.7l-383.15 0 -39.6 226.26c-4.17,37.14 -15.13,41.44 -15.13,78.7z"/>
  <path class="fil11" d="M27666.14 8541.97l0 39.1 139.6 8.96c89.8,10.02 247.5,6.68 345.2,6.68 46.7,0 7.36,-68.91 -6.6,-181.06l-14.62 -87.04c-13,-95.13 26.58,-68.14 -377.57,-68.14 -25.07,0 -14.16,-8.15 -31.53,54.49 -4.38,15.8 -4.03,16.53 -8.76,38.15l-35.95 151.72c-8,28.24 -9.77,-1.21 -9.77,37.14z"/>
  <path class="fil11" d="M24898.04 8229.19c0,41.36 274.44,23.46 344.06,23.46 45.59,0 13.57,-52.63 13.56,-52.66 -5.78,-20.73 -3.93,-24.23 -8.03,-46.7l-38.74 -180.21c-23.62,-86.5 42.94,-72.31 -232.66,-72.31 -36.72,0 -28.74,33.31 -33.51,68.14l-28.82 174.49c-4.6,62.34 -15.86,57.33 -15.86,85.79z"/>
  <path class="fil11" d="M27744.33 8197.92c0,38.32 88.81,23.45 164.21,23.45 65.16,0 130.32,0 195.49,0 12.23,-52.51 5.07,-29.46 -4.67,-81.24 -18.86,-100.17 -10.73,-135.32 -42.25,-270.63l-234.58 0 -78.2 328.42z"/>
  <path class="fil11" d="M24960.6 7838.22c0,41.31 88.54,23.46 203.3,23.46 31.69,0 20.32,-33.53 2.71,-104.36l-41.8 -216.24c-154.43,0 -132.43,-11.19 -133.12,62.38 -0.3,32.92 -5.49,44.55 -11.18,74.82l-19.91 159.94z"/>
  <path class="fil11" d="M27853.8 7830.4l195.49 0c0,-134.86 -29.86,-256.75 -31.28,-320.6 -157.9,0 -121.12,-8.89 -135.43,67.88 -3.66,19.65 -7.44,18.08 -11.89,42.84l-28.72 135.62c-10.55,40.81 -17.16,74.26 11.83,74.26z"/>
  <path class="fil11" d="M27963.27 7087.55c0,92.38 -47.21,277.15 -54.73,367.51 156.79,36.53 97.4,-39.3 103.75,-115.11l5.87 -174.07c3.91,-46.5 15.49,-22.07 15.49,-101.79 0,-33.89 -35.55,-23.46 -70.38,-23.46 -10.92,46.91 0,16.3 0,46.92z"/>
  <path class="fil11" d="M25007.51 7228.3l0 258.04 101.65 0c0,-56.19 -46.91,-266.09 -46.91,-304.96l0 -109.47c-93.39,0 -76.32,-7 -70.43,70.14 3.36,43.9 15.69,46.7 15.69,86.25z"/>
  <path class="fil14" d="M24999.69 4835.54c-37.58,-25.17 -93.65,-20.33 -113.55,-4.08 -36.23,29.58 -19.09,90.09 58.82,90.09 33.67,0 34.37,-15.01 50.21,-18.4 28.67,-6.14 1.83,10.58 74.9,10.58 33.06,0 16.73,-7.61 42.77,-11.99 31.16,-5.25 45.25,30.15 85.75,-0.23 44.82,-33.63 4.47,-89.43 -26.87,-89.43 -34.39,0 -24.83,13.74 -53.73,12.88 -48.71,-1.45 -46.54,-37.48 -118.3,10.58z"/>
  <path class="fil14" d="M27830.34 4819.9c0,78.05 58.6,67.93 101.66,39.1 6.82,18.84 17.46,24.87 58.77,27.27 28.07,1.63 34.55,-6.77 58.52,-19.46 34.28,22.96 7.29,23.47 70.37,23.47 63.96,0 96.52,-101.66 -23.45,-101.66 -35.99,0 -22.6,14.84 -51.23,10.37 -23.02,-3.6 -51.94,-21.04 -85.61,-12.75 -32.21,7.93 -19.03,18.25 -46.24,6.41 -0.02,-0.01 -26.57,-29.23 -64.2,-1.08 -7.23,5.4 -18.59,22.84 -18.59,28.33z"/>
  <path class="fil14" d="M25445.4 5515.83l54.74 0c0,-149.87 16.55,-187.67 -54.74,-187.67 -43.14,0 -24.55,51.16 -23.32,85.66 1.4,39.67 -14.33,102.01 23.32,102.01z"/>
  <path class="fil14" d="M24796.39 5367.26c0,189.79 -19.94,164.21 78.19,164.21 0,-164.55 16.32,-187.66 -54.74,-187.66 -18.01,0 -23.45,5.44 -23.45,23.45z"/>
  <path class="fil14" d="M28401.17 5515.83c68.54,0 54.73,-30.46 54.73,-164.21 0,-32.52 -28.97,-31.28 -46.91,-31.28 -29.97,0 -29.96,54.07 -31.41,101.64 -1.28,41.85 -17.42,93.85 23.59,93.85z"/>
  <path class="fil14" d="M27548.84 5296.89l-7.82 164.21c0,33.88 35.56,23.45 70.38,23.45 4.78,-57.48 19.47,-137.64 7.82,-187.66 -20.82,-4.99 -30.82,-15.36 -70.38,0z"/>
  <path class="fil14" d="M28166.58 5375.08c0,144.74 -11.44,132.93 46.92,132.93 46.1,0 32.25,-183.05 31.28,-187.67 -56.92,0 -78.2,-21.96 -78.2,54.74z"/>
  <path class="fil14" d="M24585.26 5375.08c0,70.19 -5.88,105.39 7.82,164.21 106.69,24.86 62.55,-53.81 62.55,-187.67 -50.31,0 -70.37,-6.94 -70.37,23.46z"/>
  <path class="fil14" d="M25210.82 5359.44c0,70.19 -5.89,105.4 7.82,164.21 93.06,22.28 70.67,-10.35 60.85,-187.55 -48.92,-0.12 -68.67,-6.94 -68.67,23.34z"/>
  <path class="fil14" d="M27752.15 5468.92c0,38.96 78.19,30.71 78.19,-7.82 0,-179.11 17.65,-156.39 -70.37,-156.39 0,64.71 -7.82,98 -7.82,164.21z"/>
  <path class="fil14" d="M27963.27 5312.53l0 187.67c88.96,0 70.38,24.85 70.38,-172.04 0,-37.27 -53.14,-22.32 -70.38,-15.63z"/>
  <path class="fil14" d="M25007.51 5359.44c0,196.89 -18.58,172.03 70.38,172.03l0 -187.66c-22.82,-5.32 -70.38,-22.88 -70.38,15.63z"/>
  <path class="fil14" d="M25163.9 5531.47c15.87,-28.24 7.82,-126.79 7.82,-164.21 0,-20.91 -11.28,-23.13 -23.46,-31.27 -52.27,13.95 -24.79,41.67 -23.26,93.57 1.74,58.47 -17.74,97.2 38.9,101.91z"/>
  <path class="fil14" d="M27869.44 5335.99l0 140.74c0,29.9 -2.4,2.85 7.82,23.47 50.86,-4.24 37.74,-41.59 38.97,-93.99 1.23,-52.37 30.36,-87.17 -23.33,-101.5 -12.17,8.15 -23.46,10.36 -23.46,31.28z"/>
  <path class="fil14" d="M28096.21 5500.2c45.78,0 31.27,-19.16 31.27,-164.21 0,-26.01 -14.03,-22.91 -39.09,-23.46 0,43.28 -6.89,54.97 -7.81,101.72 -0.81,41.53 -23.03,85.95 15.63,85.95z"/>
  <path class="fil14" d="M24913.68 5367.26c0,178.59 -13.24,164.21 46.92,164.21 0,-50.91 3.64,-155.3 -15.64,-195.48 -17.25,9.12 -31.28,6.82 -31.28,31.27z"/>
  <path class="fil14" d="M24710.37 5367.26c0,154.93 -14.45,172.03 31.28,172.03 9.86,-20.54 10.62,-147.82 8.42,-164.81 -3.79,-29.2 1.88,-22.81 -31.88,-30.67 -5.36,9.53 -7.82,8.36 -7.82,23.45z"/>
  <path class="fil14" d="M25335.93 5351.62c0,154.93 -14.46,172.03 31.28,172.03 9.85,-20.54 10.62,-147.82 8.41,-164.81 -3.78,-29.2 1.89,-22.81 -31.87,-30.68 -5.36,9.55 -7.82,8.37 -7.82,23.46z"/>
  <path class="fil14" d="M28291.69 5343.81l0 148.56c0,29.9 -2.4,2.85 7.82,23.46 46.7,-5.1 31.28,-46.84 31.28,-172.02 0,-27.28 -15.62,-23.47 -31.28,-23.47 -5.35,9.55 -7.82,8.37 -7.82,23.47z"/>
  <path class="fil14" d="M27666.14 5320.34l0 164.21 39.09 0 0 -117.29c0,-23.58 5.9,-32.9 5.59,-40.83 -1.42,-37.44 -44.68,-41.37 -44.68,-6.09z"/>
  <g id="_2102908158384">
   <path class="fil15 str0" d="M29974.73 22687.94c-2103.43,-583.9 -3574.56,349.05 -4610.53,1897.58l3587.61 1956.88 -1956.88 3469.02c2700.23,1299.68 5489.27,-368.19 5915.12,-2876.02 180.45,-2272.65 -756.13,-3694.4 -2935.32,-4447.46z"/>
   <path class="fil15 str0" d="M26179.55 30196.72l1786.41 -3216.98 -3313.36 -1793.82c-1018.05,2168.45 -242.3,3751.68 1526.95,5010.8z"/>
   <path class="fil15 str0" d="M25075.1 25638.07c-672.71,1890.41 -73.75,3085.97 1171.16,3928.6"/>
   <path class="fil16" d="M27367.31 23973.93c361.28,0 654.15,268.81 654.15,600.41 0,331.59 -292.87,600.41 -654.15,600.41 -361.27,0 -654.15,-268.82 -654.15,-600.41 0,-331.6 292.88,-600.41 654.15,-600.41z"/>
   <path class="fil16" d="M26150.17 26217.33c338.56,0 613.03,251.91 613.03,562.66 0,310.75 -274.47,562.66 -613.03,562.66 -338.56,0 -613.02,-251.91 -613.02,-562.66 0,-310.75 274.46,-562.66 613.02,-562.66z"/>
   <path class="fil16" d="M29051.22 23626.68c290.97,0 526.86,216.51 526.86,483.58 0,267.07 -235.89,483.57 -526.86,483.57 -290.97,0 -526.86,-216.5 -526.86,-483.57 0,-267.07 235.89,-483.58 526.86,-483.58z"/>
   <path class="fil16" d="M30410.26 27738.02c290.98,0 526.86,216.5 526.86,483.57 0,267.07 -235.88,483.57 -526.86,483.57 -290.97,0 -526.85,-216.5 -526.85,-483.57 0,-267.07 235.88,-483.57 526.85,-483.57z"/>
   <path class="fil16" d="M30699.21 24062.94c244.6,0 442.89,182 442.89,406.51 0,224.51 -198.29,406.51 -442.89,406.51 -244.6,0 -442.9,-182 -442.9,-406.51 0,-224.51 198.3,-406.51 442.9,-406.51z"/>
   <path class="fil16" d="M28890.57 28287.23c244.6,0 442.9,182 442.9,406.51 0,224.51 -198.3,406.51 -442.9,406.51 -244.6,0 -442.89,-182 -442.89,-406.51 0,-224.51 198.29,-406.51 442.89,-406.51z"/>
   <path class="fil16" d="M29554.35 25277.81c238.26,0 431.41,177.28 431.41,395.97 0,218.68 -193.15,395.97 -431.41,395.97 -238.26,0 -431.41,-177.29 -431.41,-395.97 0,-218.69 193.15,-395.97 431.41,-395.97z"/>
   <path class="fil16" d="M26243.56 27736.17c238.26,0 431.41,177.28 431.41,395.97 0,218.68 -193.15,395.97 -431.41,395.97 -238.26,0 -431.41,-177.29 -431.41,-395.97 0,-218.69 193.15,-395.97 431.41,-395.97z"/>
   <path class="fil16" d="M31132.61 25982.69c384.69,0 696.54,286.24 696.54,639.32 0,353.09 -311.85,639.32 -696.54,639.32 -384.69,0 -696.55,-286.23 -696.55,-639.32 0,-353.08 311.86,-639.32 696.55,-639.32z"/>
  </g>
 </g>
</svg>
