<?xml version="1.0" encoding="UTF-8"?>
<!DOCTYPE svg PUBLIC "-//W3C//DTD SVG 1.1//EN" "http://www.w3.org/Graphics/SVG/1.1/DTD/svg11.dtd">
<!-- Creator: CorelDRAW 2018 (64-Bit Evaluation Version) -->
<svg xmlns="http://www.w3.org/2000/svg" xml:space="preserve" width="440.267mm" height="321.733mm" version="1.1" style="shape-rendering:geometricPrecision; text-rendering:geometricPrecision; image-rendering:optimizeQuality; fill-rule:evenodd; clip-rule:evenodd"
viewBox="0 0 44026.66 32173.34"
 xmlns:xlink="http://www.w3.org/1999/xlink">
 <defs>
  <style type="text/css">
   <![CDATA[
    .str2 {stroke:white;stroke-width:169.33;stroke-miterlimit:22.9256;stroke-opacity:0.149020}
    .str3 {stroke:#3B9CFF;stroke-width:83.14;stroke-miterlimit:22.9256;stroke-opacity:0.380392}
    .str1 {stroke:#3B9CFF;stroke-width:155.96;stroke-miterlimit:22.9256;stroke-opacity:0.529412}
    .str0 {stroke:#3B9CFF;stroke-width:155.96;stroke-miterlimit:22.9256;stroke-opacity:0.529412}
    .fil19 {fill:none}
    .fil8 {fill:none}
    .fil4 {fill:#3D7CCB}
    .fil6 {fill:#BCEBFF}
    .fil5 {fill:white}
    .fil21 {fill:#3B9CFF;fill-opacity:0.129412}
    .fil12 {fill:#5AEEBC;fill-opacity:0.149020}
    .fil11 {fill:#3B9CFF;fill-opacity:0.149020}
    .fil14 {fill:#3B9CFF;fill-opacity:0.258824}
    .fil15 {fill:#99D2FF;fill-opacity:0.258824}
    .fil17 {fill:#5AEEBC;fill-opacity:0.258824}
    .fil18 {fill:#F4F4F4;fill-opacity:0.258824}
    .fil16 {fill:#F8E5C8;fill-opacity:0.258824}
    .fil13 {fill:white;fill-opacity:0.258824}
    .fil7 {fill:#3B9CFF;fill-opacity:0.341176}
    .fil10 {fill:#99D2FF;fill-opacity:0.380392}
    .fil0 {fill:#D8F6FF;fill-opacity:0.380392}
    .fil20 {fill:#3B9CFF;fill-opacity:0.619608}
    .fil3 {fill:#D8F6FF;fill-opacity:0.701961}
    .fil1 {fill:white;fill-opacity:0.701961}
    .fil9 {fill:white;fill-opacity:0.811765}
    .fil2 {fill:url(#id0)}
   ]]>
  </style>
  <linearGradient id="id0" gradientUnits="userSpaceOnUse" x1="24290.24" y1="6211.36" x2="25898.37" y2="3688.42">
   <stop offset="0" style="stop-opacity:1; stop-color:#FEDA75"/>
   <stop offset="0.239216" style="stop-opacity:1; stop-color:#FA7E1E"/>
   <stop offset="0.490196" style="stop-opacity:1; stop-color:#D62976"/>
   <stop offset="0.760784" style="stop-opacity:1; stop-color:#962FBF"/>
   <stop offset="1" style="stop-opacity:1; stop-color:#4F5BD5"/>
  </linearGradient>
 </defs>
 <g id="Layer_x0020_1">
  <metadata id="CorelCorpID_0Corel-Layer"/>
  <g id="_2102908163152">
   <polygon class="fil0" points="-0,0 44026.66,0 44026.66,32173.34 -0,32173.34 "/>
   <path class="fil1" d="M24507.37 2828.16l14675.56 0c737.31,0 1340.56,603.25 1340.56,1340.56l0 18203.34c0,737.31 -603.25,1340.56 -1340.56,1340.56l-14675.56 0c-737.31,0 -1340.56,-603.25 -1340.56,-1340.56l0 -18203.34c0,-737.31 603.25,-1340.56 1340.56,-1340.56z"/>
   <path class="fil1" d="M24155.99 24968.9l15063.64 0c649.99,0 1181.8,531.81 1181.8,1181.8l0 3439.59c0,649.99 -531.81,1181.8 -1181.8,1181.8l-15063.64 0c-649.99,0 -1181.8,-531.81 -1181.8,-1181.8l0 -3439.59c0,-649.99 531.81,-1181.8 1181.8,-1181.8z"/>
   <path class="fil2" d="M24102.8 5640.24c-7.28,-76.2 -1.79,-1017.87 -1.79,-1120.63 0,-237.65 -0.74,-395.01 169.43,-529.78l61.39 -42.51c80.12,-49.89 156.12,-59.82 260.5,-59.77 373.41,0.16 746.83,0 1120.24,0 194.18,0 345.79,-22.42 489.8,71.1 246.95,160.36 210.64,392.14 210.64,632.03l0 841.83c0,259.97 4.64,371.18 -167.58,533.01 -82.43,77.46 -207.3,99.91 -325.2,100.84 -372.92,2.94 -747.18,-0.04 -1120.25,-0.04 -213.8,0 -322.8,23.65 -491.25,-71.44 -44.91,-25.34 -76.62,-63.19 -108.11,-99.57 -15.95,-18.42 -16.07,-22.53 -28.84,-42.19 -40.36,-62.17 -60.88,-128.09 -68.98,-212.88zm-197.77 10.93c12.15,104.59 27.08,179.62 71.09,261.25 57.31,106.29 136.66,196.2 239.66,257.65 134.69,80.38 233.86,93.91 398.41,93.91 438.99,0 877.98,-0.23 1316.96,0 225.18,0.13 357.1,-67.94 480.57,-181.31 7.31,-6.71 15.87,-14.74 22.1,-21.64l56.06 -69.57c76.03,-104.15 118.54,-238.8 120.82,-373.07 5.4,-319.21 -0.02,-665.14 -0.02,-989.45 0,-241.94 26.35,-497.18 -137.8,-689.43 -159.97,-187.34 -318.53,-251.1 -574.51,-251.1 -438.86,0.01 -878.18,-2.02 -1316.97,-0.05 -233.57,1.04 -396.6,87.64 -521.79,227.25 -94.64,105.51 -153.18,270 -156.35,417.95 -1.39,64.64 -5.41,1255.82 1.77,1317.61zm1286.2 -1186.71c296.9,-38.38 542.76,179.34 573.38,441.28 56.47,482.95 -487.58,751.82 -833.66,466.8 -342.31,-281.93 -187.12,-850.25 260.28,-908.08zm89.64 1222.62c197.46,0 385.83,-113.18 483.91,-213.33 130.75,-133.53 203.11,-290.7 203.11,-527.75 0,-154.85 -85.52,-363.21 -203.52,-472.7 -63.14,-58.58 -108.56,-94.46 -197.77,-141.09 -176.72,-92.37 -450.4,-95.44 -623.63,2.34 -94.92,53.58 -113.11,61.76 -193.05,140.41 -94.86,93.33 -203.78,271 -203.78,471.04 0,118.81 12.89,227.61 63.91,326.77 78.87,153.25 185.57,274.59 342.16,346.22 107.83,49.34 206.2,68.09 328.66,68.09zm653.23 -1446.26c11.84,61.11 61.08,100.46 139.03,88.03 128.91,-20.53 122.31,-250.44 -50.12,-225.77 -31.04,4.45 -51.44,19.19 -70.89,43.84 -17.44,22.1 -25.28,56.38 -18.02,93.9z"/>
   <path class="fil3" d="M4746.46 1633.78l15666.55 0c488.22,0 887.67,399.44 887.67,887.66l0 3606.02c0,488.22 -399.45,887.66 -887.67,887.66l-15666.55 0c-488.21,0 -887.65,-399.44 -887.65,-887.66l0 -3606.02c0,-488.22 399.44,-887.66 887.65,-887.66z"/>
   <path class="fil4" d="M26181.81 27557.47c-11.44,22.29 -560.69,590.63 -568.64,594.33 -44.18,-27.38 -260.8,-282.08 -299.77,-301.2 -58.22,28.66 -502.32,274.74 -525.48,276.37 -5.57,6.44 -2.28,4.21 -9.92,10.26 -1.29,1.02 -10.03,6.16 -10.68,6.51 -10.93,5.75 -7.84,4.19 -18.55,6.91 6.88,-12.04 22.47,-31.24 40.04,-39.67 8.84,-18.65 258.46,-269.81 293.9,-307.16 32.2,-33.95 277.41,-295.51 297.31,-300.1 52.59,48.83 263.09,279.08 294.97,302.83l495.56 -267.13c14.58,-14.16 44.12,-26.39 62.68,-35.26 -6.03,17 -36.42,44.68 -51.42,53.31zm-1427.75 1487.26c24.62,-2.44 161.27,-85.38 191.14,-101.3 62.35,-33.21 124.8,-67.54 188.87,-105.5 42.48,-25.18 74.79,-2.39 124.26,6.5 143,25.69 255.11,28.67 401.84,9.54 457.36,-59.65 834.26,-384.25 949.11,-811.87 40.47,-150.67 47.22,-368.83 0.36,-521.68 -86.14,-280.98 -249.89,-515.25 -510.93,-659.25 -309.22,-170.56 -611.52,-210.24 -961.35,-112.39 -302.14,84.51 -524.87,291.57 -659.07,511.93 -247.46,406.32 -157.14,956.23 192.24,1283.53 7.58,7.1 77.29,67.2 79.08,70.81 9.01,18.19 3.04,387.59 4.45,429.68z"/>
   <path class="fil5" d="M24788.81 28110.98c4.37,22.62 -9.84,4.88 -0.89,15.99 23.16,-1.63 467.26,-247.71 525.48,-276.37 38.97,19.12 255.59,273.82 299.77,301.2 7.95,-3.7 557.2,-572.04 568.64,-594.33l6.28 -19.04 -17.54 0.99 -495.56 267.13c-31.88,-23.75 -242.38,-254 -294.97,-302.83 -19.9,4.59 -265.11,266.15 -297.31,300.1 -35.44,37.35 -285.06,288.51 -293.9,307.16z"/>
   <path class="fil6" d="M26170.55 27539.42l17.54 -0.99 -6.28 19.04c15,-8.63 45.39,-36.31 51.42,-53.31 -18.56,8.87 -48.1,21.1 -62.68,35.26z"/>
   <path class="fil6" d="M24787.92 28126.97c-8.95,-11.11 5.26,6.63 0.89,-15.99 -17.57,8.43 -33.16,27.63 -40.04,39.67 10.71,-2.72 7.62,-1.16 18.55,-6.91 0.65,-0.35 9.39,-5.49 10.68,-6.51 7.64,-6.05 4.35,-3.82 9.92,-10.26z"/>
   <path class="fil7" d="M28146.97 26916.18l10792.45 0c53.93,0 98.03,44.1 98.03,98.02l0 0.02c0,53.92 -44.1,98.02 -98.03,98.02l-10792.45 0c-53.91,0 -98.01,-44.1 -98.01,-98.02l0 -0.02c0,-53.92 44.1,-98.02 98.01,-98.02z"/>
   <path class="fil7" d="M28146.97 27770.65l10792.45 0c53.93,0 98.03,44.1 98.03,98.02l0 0.02c0,53.92 -44.1,98.02 -98.03,98.02l-10792.45 0c-53.91,0 -98.01,-44.1 -98.01,-98.02l0 -0.02c0,-53.92 44.1,-98.02 98.01,-98.02z"/>
   <path class="fil7" d="M28146.97 28625.12l10792.45 0c53.93,0 98.03,44.1 98.03,98.02l0 0.02c0,53.92 -44.1,98.02 -98.03,98.02l-10792.45 0c-53.91,0 -98.01,-44.1 -98.01,-98.02l0 -0.02c0,-53.92 44.1,-98.02 98.01,-98.02z"/>
   <path class="fil8 str0" d="M24914.81 22113.72l112.55 374.34 -416.93 -14.72c-53.23,19.99 -110.9,30.96 -171.18,30.96 -267.37,0 -484.12,-215.3 -484.12,-480.88 0,-265.58 216.75,-480.88 484.12,-480.88 267.38,0 484.13,215.3 484.13,480.88 0,30.87 -2.97,61.05 -8.57,90.3z"/>
   <polygon class="fil8 str1" points="38441.01,21641.68 39150.77,21643.92 39150.78,22400.99 38812.86,22097.19 38439.28,22405.15 "/>
   <path class="fil9" d="M5057.14 8970.42l15344.99 0c562.92,0 1023.48,460.56 1023.48,1023.48l0 16368.05c0,562.92 -460.56,1023.48 -1023.48,1023.48l-15344.99 0c-562.92,0 -1023.48,-460.56 -1023.48,-1023.48l0 -16368.05c0,-562.92 460.56,-1023.48 1023.48,-1023.48z"/>
   <path class="fil10" d="M5245.96 24477.64l14937.65 0c106.73,0 194.04,87.31 194.04,194.03l0 0c0,106.72 -87.31,194.03 -194.04,194.03l-14937.65 0c-106.72,0 -194.02,-87.31 -194.02,-194.03l0 0c0,-106.72 87.3,-194.03 194.02,-194.03z"/>
   <path class="fil10" d="M5199.38 25677.08l6156.82 0c106.72,0 194.03,87.31 194.03,194.03l0 0c0,106.72 -87.31,194.03 -194.03,194.03l-6156.82 0c-106.72,0 -194.03,-87.31 -194.03,-194.03l0 0c0,-106.72 87.31,-194.03 194.03,-194.03z"/>
   <path class="fil4" d="M3479.87 14876.76c14.82,-63.11 -10.45,-467.55 15.72,-647.15 53.67,-368.38 298.8,-608.58 669.32,-654.16 174.59,-21.47 453.06,-5.21 626.89,16.6l-1.21 567.64c-200.68,12.11 -481.36,-44.74 -593.78,88.42 -60.91,72.16 -56.87,182.38 -56.87,288.48 0,104.87 -7.14,237.64 1.11,339.59l625.76 0.14c4.77,41.49 -28.82,265.83 -37.6,319.9 -16.37,100.74 -20.81,218.13 -41.8,316.81l-547.1 0.78 0.64 1781.46c135.97,-6.99 330.85,-60.55 448.87,-100.76 407.19,-138.73 720.8,-362.08 985.86,-656.03 331.75,-367.91 604.75,-967.65 563.32,-1624.37 -41.03,-650.46 -321.78,-1150.39 -683.41,-1505.39 -354.59,-348.08 -894.37,-634.72 -1538.18,-647.81 -1239.4,-25.2 -2208.16,903.14 -2322.6,2055.99 -104.18,1049.45 522.94,1993.14 1459.93,2347.94 79.56,30.13 349.98,116.23 427.57,113.73l-2.3 -1765.98 -547.16 -0.75 0.37 -634.23 546.65 -0.85z"/>
   <path class="fil11 str2" d="M34504.49 4435.52c-112.41,179.7 -269.07,342.24 -370.62,593.47 -220.16,264.93 -403.27,795.91 -636.81,1114.89 -227.26,310.4 -554.27,611.17 -1132.96,649.39 -1200.01,79.25 -1364.96,-1010.34 -1771.24,-1785.01 -97.07,-244.66 -291.64,-385.49 -383.64,-566.66 -400.9,-146.28 -629.57,-265.51 -1163.96,-208.52 -227.68,24.28 -589.94,126.29 -784.21,250.82 -154.51,99.03 -116.84,38.45 -171.19,205.54 345.8,182.69 216.29,1104.03 376.7,1621.15 461.71,1488.41 -141.14,1310.69 631.86,3254.03 239.38,601.79 563.58,1303.59 570.73,2028.26 6.79,689.2 -419.52,1135.59 -804.13,1790.19 -587.3,999.58 -1234.18,2473.84 -1604.08,3578.67 -283.74,847.5 -988.65,3352.8 -925.72,4276.75 1390.34,-285.95 2740.08,246.75 3972.03,765.91 232.7,98.06 192.89,26.7 149.68,91.23 141.31,114.84 824.93,214.87 1044.74,242.43 475.98,59.69 824.35,-43.7 1252.71,-5.98 -76.15,-157.71 -57.71,-71.18 129.6,-157.7 102.8,-47.48 202.46,-74.63 300.25,-119.24 1206.63,-550.41 1569.24,-1645.38 3888.96,-553.12 185.4,87.3 173.38,42.4 211.03,201.03 50.92,-57.62 73.59,-51.91 74.83,-258.08l-95.7 -924.19c-247.71,-2308.45 -878.42,-5539.99 -2005.16,-7418.1 -321.17,-535.34 -898.13,-958.2 -724.43,-1836.18 199.32,-1007.44 859.28,-1761.47 1007.45,-3023.62 63.26,-538.82 -63.21,-710.8 181.13,-1170.46 186.63,-418.08 673.49,-2074.73 1046.42,-2169.57 -426.24,-895.46 -1358.46,-833.04 -2264.27,-467.33z"/>
   <path class="fil12" d="M31955.09 5630.43l584.76 -5.88 -5.8 442.25 -585.43 -19.49 6.47 -416.88zm1976.12 -585.7c-108.62,124.14 -212.26,155.25 -377.69,225.73 -135.97,57.93 -225.27,91.34 -376.96,140.92 -249.62,81.57 -558.63,157.8 -866.22,161.5 -447.69,5.38 -1166.14,-183.27 -1509.91,-466.82l3130.78 -61.33zm202.66 -15.74c-942.07,-94.01 -2589.01,-102.43 -3541.01,-20.73 406.28,774.67 571.23,1864.26 1771.24,1785.01 578.69,-38.22 905.7,-338.99 1132.96,-649.39 233.54,-318.98 416.65,-849.96 636.81,-1114.89z"/>
   <path class="fil12" d="M32754.38 22332.08c984.28,78.19 1469.73,318.29 2298.98,-168.46 278.93,-163.73 613.21,-295.53 984.61,-360.91 319.52,-56.25 1042.42,-17.52 1246.25,-99.66 -37.65,-158.63 -25.63,-113.73 -211.03,-201.03 -2319.72,-1092.26 -2682.33,2.71 -3888.96,553.12 -97.79,44.61 -197.45,71.76 -300.25,119.24 -187.31,86.52 -205.75,-0.01 -129.6,157.7z"/>
   <path class="fil12" d="M26335.22 21238.49c51.24,385.22 398.96,408.43 791.65,439.16 403.42,31.58 789.15,50.56 1189.99,91.17 543.86,55.11 1747.53,353.92 2140.07,326.81 43.21,-64.53 83.02,6.83 -149.68,-91.23 -1231.95,-519.16 -2581.69,-1051.86 -3972.03,-765.91z"/>
   <path class="fil12" d="M33931.21 5044.73l-3130.78 61.33c343.77,283.55 1062.22,472.2 1509.91,466.82 307.59,-3.7 616.6,-79.93 866.22,-161.5 151.69,-49.58 240.99,-82.99 376.96,-140.92 165.43,-70.48 269.07,-101.59 377.69,-225.73z"/>
   <polygon class="fil12" points="31948.62,6047.31 32534.05,6066.8 32539.85,5624.55 31955.09,5630.43 "/>
   <path class="fil13" d="M7295.77 16915.15c342.44,580.41 385,510.05 356.72,1187.89l-72.65 54.77 37.63 1194.9c9.06,84.74 56.77,311.87 -35.39,297.57 -72.63,67.19 -93.39,84.7 -201.21,47.89l-361.37 -2582.85c-36.38,-259.47 -165,-663.85 -170.95,-836.4l447.22 636.23zm10638.55 2085.66c-31.15,-375.77 27.57,-1042.24 69.95,-1426.1 34.15,-309.3 97.55,-719.89 6.85,-1004.52 -43.79,-137.4 -89.99,-155.24 -146.56,-242.45l-150.64 -4.88c56.03,-82.68 1096.29,-902.94 1189.62,-945.19 -37.36,245.66 -178.56,599.63 -245.96,876.72 -197.56,812.15 -271.95,1823.52 -329.02,2669.7 -25.43,376.9 12.07,307.63 -177.66,296 -103.4,-6.34 -110.05,8.81 -205.49,-24.75l-11.09 -194.53zm-9900.17 -2869.48l369.66 1722.88c140.61,409.65 139.19,527.47 385.27,844.82 144.06,185.78 442.84,454.85 653.27,578.67 339.13,199.54 491.1,269.04 993.13,204.46 334.31,-43 734.21,-136.47 1032.63,-226.62 429.17,-129.66 738.89,-280.26 980.74,-80.77 502.48,414.46 866.88,607.76 1255.5,907.54 93.84,72.38 81.42,105.22 170.94,157.46 208.78,121.82 524.68,388.25 553.94,711.48 -64.77,74.09 -101.59,117.57 -206.01,168.23 -270.04,196.28 -938.51,169.76 -1318.79,159.08 -122.26,38.07 -2327.05,176.24 -2533.31,161.7 -435.39,-30.69 -775.42,-42.12 -1067.29,-270.85 -208.29,-163.23 -444.69,-539.61 -473.84,-909.93 -119.18,-729.82 -689.81,-1794.7 -990.7,-2555.1 -253.67,-641.08 -298.25,-622.59 -655.47,-1124.35 -100.97,-141.83 -633.67,-979.51 -666.91,-1137.14 -235.65,-356.27 -25.77,-1072.31 -19.67,-1231.78 7.48,-194.99 6.9,-209.23 75.61,-372.19 105.35,-249.83 433.25,-1089.91 594.03,-1207.08 213.55,284.61 801.72,2960.28 867.27,3499.49zm10934.57 -1031.14c-181.99,254.46 -116.52,145.34 -419.57,417.25l-492.82 384.93c-93.05,70.62 -161.48,116.62 -249.81,187.85 -258.12,208.11 -455.83,355.94 -662.94,641.97 -72.77,136.63 -199.76,341.52 -290.9,458.09 -119.52,152.83 -91.17,212.21 -265.32,501.4 -195.82,325.16 -365.96,630.84 -553.5,980.08 -431.28,803.12 -584.9,1245.85 -1694.6,1344.56 -25.49,2.35 -88.49,12.56 -108.32,12.62 -1.67,0.01 -43.06,0.49 -52.5,-1.19 -67.92,-12.08 -24.31,1.25 -63.57,-30.45 -42.1,71.22 -157.82,84.85 -238.26,100.5l-623.31 -440.72c-229.99,-155.77 -435.31,-289.45 -646.91,-448.47 -104.34,-78.4 -173.6,-155.12 -297.36,-222.74l-788.3 -581.29c-82.07,-74.9 -94.47,-69.53 -106.2,-164.61l1366.62 -306.27c63.24,21.61 74.84,184.5 422.46,348.47 567.91,267.87 1034.56,222.8 1556.28,-61.34 91.37,-49.77 162.5,-110.62 257.61,-145.81l337.09 -274.53c84.73,-67.11 214.15,-246.52 316.17,-276.35 47.2,-127.35 214.34,-205.03 419.15,-549.41 679.75,-1142.96 343.33,-1695.84 1469.81,-3240.46 273.13,-374.51 478.7,-730.86 726.14,-1127.88 287.34,104.44 485.14,916.24 556.33,1136.59 144.63,447.57 363.38,864.13 126.53,1357.21zm-1412.24 -1537.44c-70.65,130.87 -206.89,292.15 -303.76,412.34 -126.07,156.42 -168.63,262.02 -270.64,424.2l-268.25 627.03c-153.72,424.62 -378.92,1262.22 -559.26,1630.5 -51.07,104.29 -134.04,185.31 -159.1,270.56 -27.1,98.31 -135.52,248.17 -227.95,318.66 -72.97,71.65 -131.67,144.28 -204.31,215.71l-454.01 422.73c-289.57,230 -536.48,349.58 -922.03,446.6 -285.43,71.83 -491.32,8.3 -750.02,-58.15 -260.7,-84.42 -422.85,-190.52 -535.45,-355.86l645.18 -119.03c499.56,-163.4 914.06,-358.92 1242.54,-726.48 56.11,-62.79 114.02,-90.01 168.53,-159.79 45.33,-58.03 94.3,-151.25 147.4,-186.65l1560.09 -2570.44c334.52,-541.11 325.09,-447.71 707.59,-935.89 117.66,-150.18 205.28,-324.24 332.53,-461.62 49.96,-95.2 145.89,-156.89 227.14,-211.13 134.15,-89.55 156.11,-95.01 295.73,-30.25 -53.46,215.86 -355.88,606.37 -504.56,808.43 -55.63,75.59 -113.45,180.65 -167.39,238.53zm-5643.97 5220.5c80.2,48.71 189.19,125.04 256.07,188.54l-141.12 12.19 -550.97 135.32c-429.67,172.34 -1380.26,400.56 -1868.03,130.12 -538.68,-298.67 -870.45,-661.4 -1022.36,-1277 -68.03,-275.7 -295.66,-1019.26 -285.59,-1245.4 -67.29,-78.69 -78.06,-249.49 -106.52,-366 -33.14,-135.71 -69.05,-250.33 -91.63,-394 -88,-280.36 -139.89,-724.54 -204.77,-1029.15 -51.13,-240 -231,-883.77 -224.72,-1066.83 -74.49,-76.4 -179.79,-540.01 -224.17,-679.83 -170.48,-537.01 -319.67,-635.91 -101.58,-742.16 493.54,-240.44 946.87,957.96 1157.15,1358.55l1038.29 1755.91c200.1,304.75 383.78,481.41 575.49,821.61 91.62,162.58 155.71,315.77 252.07,458.5 97.2,143.99 174.79,254.21 264.51,420.96 166.39,309.25 340.44,596.69 516.47,879.84 158.77,255.39 522.25,571.62 761.41,638.83zm-4675.95 759.42c50.49,23.29 48.02,233.17 74,301.8l27.99 24.27c235.51,16.29 309.73,14.46 510.83,-66.58 76.71,-509.36 -148.92,-1446.15 -120.67,-2045.73 84.54,178.03 166.41,347.39 248.57,549.66 222.1,546.83 553.44,1120.39 680.96,1700.88 70.94,322.87 60.01,812.69 448.28,1168.52 802.91,735.82 3160.08,470.57 4167.53,404.73 247.37,-16.17 505.24,-27.42 719.72,-100.09 448.16,-151.84 573.12,-283.49 513.67,-638.01 -48.14,-287.08 -408.67,-486.86 -514.29,-650.75 183.52,-54.39 311.28,-47.96 502.88,-74.22 156.63,-21.47 300.25,-81.45 444.56,-93.9l302.35 -140.24 -1.94 -1.95 93.31 -54.21 31.14 -8.65c49.12,-99.53 103.87,-142.43 190.54,-181.54 21.63,-65.22 -40.36,-33.17 49.67,-54.88l76.23 -113.45c57.79,-119.51 173.84,-265.44 252.96,-402.7 374.64,-649.99 1032.32,-2004.24 1461.61,-2426.87 112.78,-111.03 156.63,-233.46 430.87,-207.18 201.81,317.83 81.3,895.4 33.38,1296.12 -52.21,436.45 -38.87,1007.94 -39.72,1455.09 -351.68,228.97 406.01,374.04 522.86,205.12 90.8,-131.25 319.97,-2549.53 368.94,-2906.92 17.07,-98.15 0.25,-90.25 48.44,-154 -8.15,-113.07 215.81,-979.02 281.29,-1166.09 40.92,-116.9 98.47,-180.99 126.2,-336.23 72.78,-407.46 -231.4,-1129.38 -343.04,-1505.89 -98.3,-331.55 -158.19,-414.63 -323.53,-635.4 -609.05,-813.19 -935.44,306.54 -1668.71,1064.15l-557.39 866.87c-119.51,198.25 -239.23,395.79 -364.28,594.31 -366.38,581.61 -644.28,1252.66 -1100.92,1719.81 -227.22,232.46 -868.89,708.09 -1158.62,724.61 -58.56,61.77 -61.08,49.47 -158.74,74 -133.87,40.85 -429.67,92.3 -576.11,96.97 -303.93,9.71 -44.86,9.77 -244.79,37.45 -98.58,13.64 -187.06,10.87 -294.92,33.42 -158.5,33.15 -352.64,88.75 -521.47,131.76 -170.03,43.33 -370.58,83.83 -526.55,132.33l-1380.99 -2234.95c-88.73,-108.62 -183.91,-209.39 -265.71,-337.02 -389.28,-607.36 -760.1,-1212.26 -1111.48,-1846.32 -197.19,-355.81 -200.99,-476.66 -274.93,-628.97 -124.04,-255.5 -409.47,-703.67 -687.13,-791.88 -657.7,-208.95 -867.85,1088.3 -1042.51,1296.5 -58.37,69.59 -17.69,-23.52 -73.78,86.24 -118.59,232.09 -156.9,596.75 -194.05,847.67 -52.15,352.26 2.22,740.35 132.44,1028.96 68.08,150.87 155.6,251.67 223.24,379.11 166.19,313.11 394.33,2099.25 451.35,2533.36 34.08,259.51 147.11,832.04 130.46,1050.91z"/>
   <path class="fil14" d="M14223.22 21119.48c104.42,-50.66 141.24,-94.14 206.01,-168.23 -29.26,-323.23 -345.16,-589.66 -553.94,-711.48 -89.52,-52.24 -77.1,-85.08 -170.94,-157.46 -388.62,-299.78 -753.02,-493.08 -1255.5,-907.54 -241.85,-199.49 -551.57,-48.89 -980.74,80.77 -298.42,90.15 -698.32,183.62 -1032.63,226.62 -502.03,64.58 -654,-4.92 -993.13,-204.46 -210.43,-123.82 -509.21,-392.89 -653.27,-578.67 -246.08,-317.35 -244.66,-435.17 -385.27,-844.82l-119.93 22.96c-70.46,286.71 324.61,822.27 452.03,1012.04 232.34,346.04 371.46,525.92 761.71,716.35l-100.98 70.47c-282.08,166.78 118.95,510.48 192.79,605.12 469.55,601.8 183.56,469.21 1083.16,514.7 235.2,11.9 523.58,8.1 752.11,31.03 528.3,52.99 990.72,227.48 1340.71,279.56 462.85,68.86 1003.69,83.93 1457.81,13.04z"/>
   <path class="fil14" d="M15670.76 17524.14c202.88,3.91 321.78,-193.21 415.24,-306.65 103.26,-125.36 233.85,-254.33 341.28,-370.65 1192.97,-1291.66 1945.42,-1314.21 2541.44,-1746.65 236.85,-493.08 18.1,-909.64 -126.53,-1357.21 -71.19,-220.35 -268.99,-1032.15 -556.33,-1136.59 -247.44,397.02 -453.01,753.37 -726.14,1127.88 -1126.48,1544.62 -790.06,2097.5 -1469.81,3240.46 -204.81,344.38 -371.95,422.06 -419.15,549.41z"/>
   <path class="fil15" d="M7672.87 13871.04l332.17 518.11c115.82,188.47 227.56,413.41 409.76,495.84 201.86,91.33 498.78,511.17 638.47,701.94l372.13 531.74c241.68,334.42 404.23,641.01 602.17,984.11 117.26,203.24 412.98,787.75 481.25,1000.25 32.51,101.18 26.67,34.7 -5.62,62.1 41.08,120.59 140.74,328.73 238.94,394.9l470.73 481.1c72.18,48.8 197.47,39.27 263.62,78.17l550.97 -135.32c-94.41,-55.72 -23.66,17.2 -73.03,-81.34 -19.98,-39.89 -29.83,-70.39 -41.92,-119.39 -239.16,-67.21 -602.64,-383.44 -761.41,-638.83 -176.03,-283.15 -350.08,-570.59 -516.47,-879.84 -89.72,-166.75 -167.31,-276.97 -264.51,-420.96 -96.36,-142.73 -160.45,-295.92 -252.07,-458.5 -191.71,-340.2 -375.39,-516.86 -575.49,-821.61l-1038.29 -1755.91c-210.28,-400.59 -663.61,-1598.99 -1157.15,-1358.55 -218.09,106.25 -68.9,205.15 101.58,742.16 44.38,139.82 149.68,603.43 224.17,679.83z"/>
   <path class="fil14" d="M6516.91 15442.89c120.12,223.61 333.39,269.92 518.04,519.15 186.04,251.09 582.52,1025.41 744.29,1337.12 60.18,115.96 128.27,243.61 195.13,325.08 53.15,64.76 151.67,172.34 237.54,176.29 260.28,11.96 29.06,-360.45 -13.05,-481.75 -106.67,-307.27 -335.88,-1207.01 -390.51,-1525.6 -123.31,-719.08 -425.55,-1355.65 -382.95,-2145.04 31.26,186.3 102.6,394.23 140.12,607.14 114.11,647.49 223.17,1034.5 340.02,1603.5 29.24,142.41 2.04,238.59 128.61,272.55 -65.55,-539.21 -653.72,-3214.88 -867.27,-3499.49 -160.78,117.17 -488.68,957.25 -594.03,1207.08 -68.71,162.96 -68.13,177.2 -75.61,372.19 -6.1,159.47 -215.98,875.51 19.67,1231.78z"/>
   <path class="fil14" d="M14114.87 19997.3c115.56,-107.02 212.54,-332.03 321.14,-458.74 89.01,-103.87 339.48,-247.89 385.01,-381.77 44.5,-130.86 -4.05,-172.15 74.46,-308.25 224.84,-389.81 484.16,-362.13 362.42,-729.89l-240.4 -43.63c-95.11,35.19 -166.24,96.04 -257.61,145.81 -521.72,284.14 -988.37,329.21 -1556.28,61.34 -347.62,-163.97 -359.22,-326.86 -422.46,-348.47l-1366.62 306.27c11.73,95.08 24.13,89.71 106.2,164.61l788.3 581.29c123.76,67.62 193.02,144.34 297.36,222.74 211.6,159.02 416.92,292.7 646.91,448.47l623.31 440.72c80.44,-15.65 196.16,-29.28 238.26,-100.5z"/>
   <path class="fil14" d="M6516.91 15442.89c33.24,157.63 565.94,995.31 666.91,1137.14 357.22,501.76 401.8,483.27 655.47,1124.35 300.89,760.4 871.52,1825.28 990.7,2555.1 167.41,68.09 110.56,210.93 240.27,404.52 49.77,74.29 241.99,226.5 343.16,313.5 535.22,460.28 1651.48,266.64 2244.69,253.97 218.43,-4.66 439.11,-7.49 657.54,-4.69 225.19,2.89 403.32,50.66 588.78,51.78 380.28,10.68 1048.75,37.2 1318.79,-159.08 -454.12,70.89 -994.96,55.82 -1457.81,-13.04 -349.99,-52.08 -812.41,-226.57 -1340.71,-279.56 -228.53,-22.93 -516.91,-19.13 -752.11,-31.03 -899.6,-45.49 -613.61,87.1 -1083.16,-514.7 -73.84,-94.64 -474.87,-438.34 -192.79,-605.12l100.98 -70.47c-390.25,-190.43 -529.37,-370.31 -761.71,-716.35 -127.42,-189.77 -522.49,-725.33 -452.03,-1012.04l119.93 -22.96 -369.66 -1722.88c-126.57,-33.96 -99.37,-130.14 -128.61,-272.55 -116.85,-569 -225.91,-956.01 -340.02,-1603.5 -37.52,-212.91 -108.86,-420.84 -140.12,-607.14 -42.6,789.39 259.64,1425.96 382.95,2145.04 54.63,318.59 283.84,1218.33 390.51,1525.6 42.11,121.3 273.33,493.71 13.05,481.75 -85.87,-3.95 -184.39,-111.53 -237.54,-176.29 -66.86,-81.47 -134.95,-209.12 -195.13,-325.08 -161.77,-311.71 -558.25,-1086.03 -744.29,-1337.12 -184.65,-249.23 -397.92,-295.54 -518.04,-519.15z"/>
   <path class="fil14" d="M15670.76 17524.14c-102.02,29.83 -231.44,209.24 -316.17,276.35l-337.09 274.53 240.4 43.63c121.74,367.76 -137.58,340.08 -362.42,729.89 -78.51,136.1 -29.96,177.39 -74.46,308.25 -45.53,133.88 -296,277.9 -385.01,381.77 -108.6,126.71 -205.58,351.72 -321.14,458.74 39.26,31.7 -4.35,18.37 63.57,30.45 9.44,1.68 50.83,1.2 52.5,1.19 19.83,-0.06 82.83,-10.27 108.32,-12.62 66.98,-53.69 412.11,-140.7 542.49,-196.05 693.62,-294.45 700.56,-626.86 1035.97,-1264.77 223.69,-425.42 800.54,-1554.4 1225.86,-1823.31 207.11,-286.03 404.82,-433.86 662.94,-641.97 88.33,-71.23 156.76,-117.23 249.81,-187.85l492.82 -384.93c303.05,-271.91 237.58,-162.79 419.57,-417.25 -596.02,432.44 -1348.47,454.99 -2541.44,1746.65 -107.43,116.32 -238.02,245.29 -341.28,370.65 -93.46,113.44 -212.36,310.56 -415.24,306.65z"/>
   <path class="fil14" d="M8646.11 17768.44c160.97,167.02 311.94,575.67 351.6,859.49 -107.63,-131.71 -318.07,-638.67 -351.6,-859.49zm-973.24 -3897.4c-6.28,183.06 173.59,826.83 224.72,1066.83 64.88,304.61 116.77,748.79 204.77,1029.15 104.09,18.62 69.49,-78.6 191.44,48.38 72.15,75.12 110.92,105.62 183.07,175.1 743.17,715.62 653.25,346.74 1339.27,1453.71 94.09,151.81 192.86,274.76 271.1,442.12 95.89,205.11 350.84,908.34 201.72,1165.71 -198.5,91.09 -734.39,-130.3 -874.16,-219.89 -311.23,-199.5 -282.31,-364.46 -431,-718.12 -276.12,-656.76 -479.18,-853.65 -676.53,-1631.92l-6.76 44.91c-10.07,226.14 217.56,969.7 285.59,1245.4 151.91,615.6 483.68,978.33 1022.36,1277 487.77,270.44 1438.36,42.22 1868.03,-130.12 -66.15,-38.9 -191.44,-29.37 -263.62,-78.17l-470.73 -481.1c17.61,116.18 96.09,175.35 157.28,278.45 -199.84,-78.62 -565.95,-581.24 -710.29,-800.08 -201.71,-305.81 -351.39,-601.52 -527.25,-951.74 -155.17,-309.03 -349.4,-704.71 -526.63,-979.48 -261.26,-405.03 -455.71,-604.45 -618.43,-847.24 -80.15,-44.35 -161.56,-120.09 -206.84,-204.79l173.28 115.89c38.55,36.7 10.68,8.28 38.77,54.87 442.33,354.66 791.39,883.13 1080.39,1400.28l900.78 1538.94c32.29,-27.4 38.13,39.08 5.62,-62.1 -68.27,-212.5 -363.99,-797.01 -481.25,-1000.25 -197.94,-343.1 -360.49,-649.69 -602.17,-984.11l-372.13 -531.74c-139.69,-190.77 -436.61,-610.61 -638.47,-701.94 -182.2,-82.43 -293.94,-307.37 -409.76,-495.84l-332.17 -518.11z"/>
   <path class="fil15" d="M8102.36 15967.02c22.58,143.67 58.49,258.29 91.63,394 28.46,116.51 39.23,287.31 106.52,366l6.76 -44.91c197.35,778.27 400.41,975.16 676.53,1631.92 148.69,353.66 119.77,518.62 431,718.12 139.77,89.59 675.66,310.98 874.16,219.89 149.12,-257.37 -105.83,-960.6 -201.72,-1165.71 -78.24,-167.36 -177.01,-290.31 -271.1,-442.12 -686.02,-1106.97 -596.1,-738.09 -1339.27,-1453.71 -72.15,-69.48 -110.92,-99.98 -183.07,-175.1 -121.95,-126.98 -87.35,-29.76 -191.44,-48.38z"/>
   <path class="fil14" d="M17705.56 12757.17c-127.25,137.38 -214.87,311.44 -332.53,461.62 -382.5,488.18 -373.07,394.78 -707.59,935.89l-1560.09 2570.44c114.6,27.7 -218.43,242.07 -70.71,548.59 223.6,52.15 284.33,-282.32 555.74,-633.53 352.56,-456.23 761.06,-859.34 965.35,-1442.35 51.49,-146.97 102.79,-295.1 174.95,-433.03l114.39 -204.26c0.96,-1.42 61.5,-214.77 78.95,-168.29l58.06 7.04c102.01,-162.18 144.57,-267.78 270.64,-424.2 96.87,-120.19 233.11,-281.47 303.76,-412.34l-91.3 8.08c87.08,-228.47 551.5,-586.52 428.75,-853.15 -111.51,-9.56 -86.14,12.74 -188.37,39.49z"/>
   <path class="fil15" d="M14896.6 17902.8c142.99,-277.19 936.01,-1437.91 1084.67,-1601.9 -75.14,139.3 -170.78,254.74 -246.84,400.84 -204.78,393.34 -371.58,902.11 -837.83,1201.06zm208.75 -1177.68c-53.1,35.4 -102.07,128.62 -147.4,186.65 -54.51,69.78 -112.42,97 -168.53,159.79 -328.48,367.56 -742.98,563.08 -1242.54,726.48l-30.96 156.73c194.68,-68.49 1249.12,-712.67 1264.16,-179.77 11.9,421.22 -723.65,534.02 -1142.52,486.09 -24.21,-2.77 -73.16,-10.49 -93.67,-10.39 -58.58,0.3 11.44,-5.54 -45.2,2.8 -66.52,9.78 -22.72,-4.61 -61.54,19.43 258.7,66.45 464.59,129.98 750.02,58.15 385.55,-97.02 632.46,-216.6 922.03,-446.6l454.01 -422.73c72.64,-71.43 131.34,-144.06 204.31,-215.71 32.05,-82.48 46.16,-102.36 93.98,-170.35 20.98,-29.82 42.5,-61.75 57.2,-79.09 39.06,-46.08 45,-45.11 76.77,-69.22 25.06,-85.25 108.03,-166.27 159.1,-270.56 180.34,-368.28 405.54,-1205.88 559.26,-1630.5l268.25 -627.03 -58.06 -7.04c-17.45,-46.48 -77.99,166.87 -78.95,168.29l-114.39 204.26c-72.16,137.93 -123.46,286.06 -174.95,433.03 -204.29,583.01 -612.79,986.12 -965.35,1442.35 -271.41,351.21 -332.14,685.68 -555.74,633.53 -147.72,-306.52 185.31,-520.89 70.71,-548.59z"/>
   <path class="fil14" d="M17864.56 16327.74c136.57,-37.23 270.28,-68.78 318.82,67.91 37.58,105.83 27.63,281.64 19.28,393.85 -39.73,533.5 -78.55,1886.09 -268.34,2211.31l11.09 194.53c95.44,33.56 102.09,18.41 205.49,24.75 189.73,11.63 152.23,80.9 177.66,-296 57.07,-846.18 131.46,-1857.55 329.02,-2669.7 67.4,-277.09 208.6,-631.06 245.96,-876.72 -93.33,42.25 -1133.59,862.51 -1189.62,945.19l150.64 4.88z"/>
   <path class="fil14" d="M7582.08 19650.28c76.06,-410.9 -330.4,-2600.88 -286.31,-2735.13l-447.22 -636.23c5.95,172.55 134.57,576.93 170.95,836.4l361.37 2582.85c107.82,36.81 128.58,19.3 201.21,-47.89z"/>
   <path class="fil15" d="M13546.88 17798.04l-645.18 119.03c112.6,165.34 274.75,271.44 535.45,355.86 38.82,-24.04 -4.98,-9.65 61.54,-19.43 56.64,-8.34 -13.38,-2.5 45.2,-2.8 20.51,-0.1 69.46,7.62 93.67,10.39 418.87,47.93 1154.42,-64.87 1142.52,-486.09 -15.04,-532.9 -1069.48,111.28 -1264.16,179.77l30.96 -156.73z"/>
   <path class="fil14" d="M12904.43 21278.56c-185.46,-1.12 -363.59,-48.89 -588.78,-51.78 -218.43,-2.8 -439.11,0.03 -657.54,4.69 -593.21,12.67 -1709.47,206.31 -2244.69,-253.97 -101.17,-87 -293.39,-239.21 -343.16,-313.5 -129.71,-193.59 -72.86,-336.43 -240.27,-404.52 29.15,370.32 265.55,746.7 473.84,909.93 291.87,228.73 631.9,240.16 1067.29,270.85 206.26,14.54 2411.05,-123.63 2533.31,-161.7z"/>
   <path class="fil14" d="M10742.14 18560.03c-98.2,-66.17 -197.86,-274.31 -238.94,-394.9l-900.78 -1538.94c-289,-517.15 -638.06,-1045.62 -1080.39,-1400.28l-5.21 34.03c162.72,242.79 357.17,442.21 618.43,847.24 177.23,274.77 371.46,670.45 526.63,979.48 175.86,350.22 325.54,645.93 527.25,951.74 144.34,218.84 510.45,721.46 710.29,800.08 -61.19,-103.1 -139.67,-162.27 -157.28,-278.45z"/>
   <path class="fil14" d="M14339.26 20016.32c1109.7,-98.71 1263.32,-541.44 1694.6,-1344.56 187.54,-349.24 357.68,-654.92 553.5,-980.08 174.15,-289.19 145.8,-348.57 265.32,-501.4 91.14,-116.57 218.13,-321.46 290.9,-458.09 -425.32,268.91 -1002.17,1397.89 -1225.86,1823.31 -335.41,637.91 -342.35,970.32 -1035.97,1264.77 -130.38,55.35 -475.51,142.36 -542.49,196.05z"/>
   <path class="fil15" d="M17864.56 16327.74c56.57,87.21 102.77,105.05 146.56,242.45 90.7,284.63 27.3,695.22 -6.85,1004.52 -42.38,383.86 -101.1,1050.33 -69.95,1426.1 189.79,-325.22 228.61,-1677.81 268.34,-2211.31 8.35,-112.21 18.3,-288.02 -19.28,-393.85 -48.54,-136.69 -182.25,-105.14 -318.82,-67.91z"/>
   <path class="fil14" d="M7582.08 19650.28c92.16,14.3 44.45,-212.83 35.39,-297.57l-37.63 -1194.9 72.65 -54.77c28.28,-677.84 -14.28,-607.48 -356.72,-1187.89 -44.09,134.25 362.37,2324.23 286.31,2735.13z"/>
   <path class="fil15" d="M17705.56 12757.17c102.23,-26.75 76.86,-49.05 188.37,-39.49 122.75,266.63 -341.67,624.68 -428.75,853.15l91.3 -8.08c53.94,-57.88 111.76,-162.94 167.39,-238.53 148.68,-202.06 451.1,-592.57 504.56,-808.43 -139.62,-64.76 -161.58,-59.3 -295.73,30.25 -81.25,54.24 -177.18,115.93 -227.14,211.13z"/>
   <path class="fil14" d="M14896.6 17902.8c466.25,-298.95 633.05,-807.72 837.83,-1201.06 76.06,-146.1 171.7,-261.54 246.84,-400.84 -148.66,163.99 -941.68,1324.71 -1084.67,1601.9z"/>
   <path class="fil14" d="M8997.71 18627.93c-39.66,-283.82 -190.63,-692.47 -351.6,-859.49 33.53,220.82 243.97,727.78 351.6,859.49z"/>
   <path class="fil16" d="M13513.3 17644.06c-50.26,-127.47 17.52,-150.46 157.01,-150.13 -24.19,69.54 -73.31,169.62 -157.01,150.13zm-19.81 83.07c97.66,-24.53 100.18,-12.23 158.74,-74 -77.99,-11.71 -13.41,15.16 -54.26,-20.99l126.16 -122.26c-185.68,-149.79 -271.45,29.29 -230.64,217.25z"/>
   <path class="fil17" d="M12027.46 18983.98l141.12 -12.19c-66.88,-63.5 -175.87,-139.83 -256.07,-188.54 12.09,49 21.94,79.5 41.92,119.39 49.37,98.54 -21.38,25.62 73.03,81.34z"/>
   <path class="fil18" d="M13513.3 17644.06c83.7,19.49 132.82,-80.59 157.01,-150.13 -139.49,-0.33 -207.27,22.66 -157.01,150.13z"/>
   <path class="fil14" d="M15767.52 17246.04c92.43,-70.49 200.85,-220.35 227.95,-318.66 -31.77,24.11 -37.71,23.14 -76.77,69.22 -14.7,17.34 -36.22,49.27 -57.2,79.09 -47.82,67.99 -61.93,87.87 -93.98,170.35z"/>
   <path class="fil14" d="M8516.82 15259.94l5.21 -34.03c-28.09,-46.59 -0.22,-18.17 -38.77,-54.87l-173.28 -115.89c45.28,84.7 126.69,160.44 206.84,204.79z"/>
   <line class="fil19 str3" x1="5828.23" y1="6792.61" x2="9694.15" y2= "3584.86" />
   <line class="fil19 str3" x1="10151.41" y1="3515.59" x2="13504.65" y2= "5351.55" />
   <line class="fil19 str3" x1="13944.59" y1="5334.23" x2="14512.7" y2= "4603.3" />
   <line class="fil19 str3" x1="14862.58" y1="4329.64" x2="19913.22" y2= "1856.28" />
   <line class="fil19 str3" x1="5246.26" y1="6754.5" x2="19850.85" y2= "6671.36" />
   <path class="fil20" d="M9912.39 3228.05c107.14,0 193.99,86.47 193.99,193.12 0,106.66 -86.85,193.13 -193.99,193.13 -107.14,0 -193.99,-86.47 -193.99,-193.13 0,-106.65 86.85,-193.12 193.99,-193.12z"/>
   <path class="fil20" d="M13743.67 5305.65c107.14,0 193.99,86.46 193.99,193.12 0,106.66 -86.85,193.12 -193.99,193.12 -107.13,0 -193.98,-86.46 -193.98,-193.12 0,-106.66 86.85,-193.12 193.98,-193.12z"/>
   <path class="fil20" d="M14607.08 4159.9c107.14,0 193.99,86.46 193.99,193.12 0,106.66 -86.85,193.12 -193.99,193.12 -107.13,0 -193.99,-86.46 -193.99,-193.12 0,-106.66 86.86,-193.12 193.99,-193.12z"/>
   <polygon class="fil21" points="7153.2,6158.67 6553.89,6158.67 6553.89,6747.06 7153.2,6747.06 "/>
   <polygon class="fil21" points="8081.57,5365.39 7496.09,5365.39 7496.09,6741.69 8081.57,6741.69 "/>
   <polygon class="fil21" points="9034.19,4585.97 8448.8,4585.97 8448.8,6736.27 9034.19,6736.27 "/>
   <polygon class="fil21" points="9997.2,3827.34 9411.79,3827.34 9411.79,6730.79 9997.2,6730.79 "/>
   <polygon class="fil21" points="10340.14,4028.26 10963.67,4028.26 10963.67,6721.95 10340.14,6721.95 "/>
   <polygon class="fil21" points="11289.3,4554.8 11905.95,4554.8 11905.95,6716.59 11289.3,6716.59 "/>
   <polygon class="fil21" points="12217.68,5025.92 12834.37,5025.92 12834.37,6711.3 12217.68,6711.3 "/>
   <polygon class="fil21" points="13198.02,5486.65 13804.21,5486.65 13804.21,6705.78 13198.02,6705.78 "/>
   <polygon class="fil21" points="14767.25,5053.63 14171.33,5053.63 14171.33,6703.69 14767.25,6703.69 "/>
   <polygon class="fil21" points="15667.91,4218.79 15082.55,4218.79 15082.55,6698.5 15667.91,6698.5 "/>
   <polygon class="fil21" points="16637.85,3695.72 16021.27,3695.72 16021.27,6693.16 16637.85,6693.16 "/>
   <polygon class="fil21" points="17566.22,3280.02 16963.43,3280.02 16963.43,6687.8 17566.22,6687.8 "/>
   <polygon class="fil21" points="18515.38,2781.19 17885.04,2781.19 17885.04,6682.55 18515.38,6682.55 "/>
   <polygon class="fil21" points="19471.47,2310.08 18847.99,2310.08 18847.99,6677.07 19471.47,6677.07 "/>
  </g>
 </g>
</svg>
