<svg xmlns="http://www.w3.org/2000/svg" xmlns:xlink="http://www.w3.org/1999/xlink" width="360" height="360" viewBox="0 0 1000 1000">
  <defs>
    <style>
      .cls-1 {
        clip-path: url(#clip-Orange_Step_3.3);
      }

      .cls-2 {
        fill: #f0dfbf;
      }

      .cls-3 {
        fill: #f8c499;
      }

      .cls-4, .cls-43 {
        fill: #FFFFFF;
      }

      .cls-5 {
        fill: #f2f2f2;
      }

      .cls-6 {
        fill: #f39a66;
      }

      .cls-7 {
        fill: #b58428;
      }

      .cls-11, .cls-45, .cls-8 {
        fill: none;
      }

      .cls-11, .cls-8 {
        stroke: #694020;
      }

      .cls-45, .cls-8 {
        stroke-linecap: round;
      }

      .cls-8 {
        stroke-width: 2px;
      }

      .cls-9 {
        fill: #cc2740;
      }

      .cls-10 {
        fill: #c49b4c;
      }

      .cls-12 {
        fill: #694020;
      }

      .cls-13 {
        fill: #f8f8f8;
      }

      .cls-14 {
        fill: #F6AB1B;
      }

      .cls-15 {
        fill: #328e34;
      }

      .cls-16 {
        fill: #bfe576;
      }

      .cls-17 {
        fill: #38a33f;
      }

      .cls-18 {
        fill: #bc2222;
      }

      .cls-19 {
        fill: #397f14;
      }

      .cls-20 {
        fill: #ce3c3c;
      }

      .cls-21 {
        fill: #543724;
      }

      .cls-22 {
        fill: #e8cd5b;
      }

      .cls-23 {
        fill: #ffe35a;
      }

      .cls-24 {
        fill: #f0a70f;
      }

      .cls-25 {
        fill: #fcc332;
      }

      .cls-26 {
        fill: #ffeb5c;
      }

      .cls-27 {
        fill: #704a1f;
      }

      .cls-28 {
        fill: #39b54a;
      }

      .cls-29 {
        fill: #f47621;
      }

      .cls-30 {
        fill: #ba5624;
      }

      .cls-31 {
        fill: #1c75bc;
      }

      .cls-32 {
        fill: #bcbec0;
        stroke: #a7a9ac;
        stroke-width: 5.838px;
      }

      .cls-32, .cls-33, .cls-43 {
        stroke-miterlimit: 10;
      }

      .cls-33 {
        fill: #a7a9ac;
        stroke: #bcbec0;
        stroke-width: 1.758px;
      }

      .cls-34 {
        fill: #d17537;
      }

      .cls-35 {
        fill: #f9b458;
      }

      .cls-36 {
        fill: #55aa2b;
      }

      .cls-37 {
        fill: #79d647;
      }

      .cls-38 {
        fill: #5bb222;
      }

      .cls-39 {
        fill: #6cc13a;
      }

      .cls-40 {
        fill: #aee090;
      }

      .cls-41 {
        fill: #f2d296;
      }

      .cls-42 {
        fill: #fb0028;
      }

      .cls-43 {
        stroke: #231f20;
        stroke-width: 1.099px;
      }

      .cls-44 {
        fill: #f39a65;
      }

      .cls-45 {
        stroke: #d17537;
        opacity: 0.996;
      }

      .cls-46 {
        fill: #f5b28a;
      }
    </style>
    <clipPath id="clip-Orange_Step_3.3">
      <rect width="1000" height="1000"/>
    </clipPath>
  </defs>
  <g id="Orange_Step_3.3" data-name="Orange Step_3.3" class="cls-1">
    <g id="Group_1751" data-name="Group 1751">
      <g id="Group_1749" data-name="Group 1749" transform="translate(-32 -30.655)">
        <ellipse id="Ellipse_73" data-name="Ellipse 73" class="cls-2" cx="436.546" cy="436.546" rx="436.546" ry="436.546" transform="translate(95.75 94.372)"/>
      </g>
      <g id="Group_1736" data-name="Group 1736" transform="translate(-6902 -2189.473)">
        <g id="Group_1714" data-name="Group 1714" transform="translate(7171.558 2318.795)">
          <path id="Path_2871" data-name="Path 2871" class="cls-3" d="M8476.755,4500.94l-8.738,59.279s13.016,5.483,26.549,12.462,51.51,21.084,51.51,21.084l-8.934-89.48a110.226,110.226,0,0,1-28.07,3.181C8494.44,4507.045,8476.755,4500.94,8476.755,4500.94Z" transform="translate(-8309.367 -4218.188)"/>
          <path id="Path_2870" data-name="Path 2870" class="cls-4" d="M124.008,2.4,65.231,32.456,4.623,61.652,2.58,95.572,0,159.641l67.34-2.352,6.435-23.376.528,15.121,30.351,255.351,221.059-5.426-55.705-292.6L281.284,123l44.664-.038L289.431,33.233,192.705,0s.126,2.91.676,7.28c.809,6.388,1.3,16.665-6.517,22.915-12.332,9.859-19.8,14.11-39.257,5.5S124.008,2.4,124.008,2.4Z" transform="matrix(0.999, 0.035, -0.035, 0.999, 38.274, 312.64)"/>
          <g id="Group_1684" data-name="Group 1684" transform="matrix(0.999, 0.035, -0.035, 0.999, 234.341, 334.03)">
            <path id="Path_347" data-name="Path 347" class="cls-5" d="M3.862,155.6c11.456,10.142,26.731,1.147,44.552,3.26,10.173-26.642.064-42.286,8.133-145.687C52.808,9.049,56.881,2.651,50.322,0,50.322,0-16.5,136.16,3.862,155.6ZM28.683,73.527c1.909,8.029,14.4,51.561,22.675,56.632,9.547,5.916,7.875-33.814,11.057-41.842,3.182-9.3,7.637-62.54-11.456-65.075C70.052,25.777,65.6,78.6,62.415,88.317c-3.182,8.029-6.3,9.968-15.847,4.052C37.657,87.3,30.592,81.555,28.683,73.527c-3.182-14.79,2.7-11.024,26.885-16.94C31.383,62.5,24.864,59.159,28.683,73.527Z" transform="translate(0 57.315) rotate(-39)"/>
            <path id="Path_348" data-name="Path 348" class="cls-4" d="M31.09,139.329c13.68-18.26,10.363-50.721,7.047-73.039A205.164,205.164,0,0,0,23.628,15.163C21.556,9.888,18.239,4.207,12.851,2.178A12.326,12.326,0,0,0,9.12,1.367c4.145-2.435,30.261-5.681,46.842,30.027,0,0,25.7,53.562,17.41,131.875,0,0-52.231,12.579-71.3-1.217,0,0-.829-2.84-2.073-7.71C12.436,152.719,24.043,149.473,31.09,139.329Z" transform="translate(50.468 16.876) rotate(-13)"/>
          </g>
          <g id="Group_1694" data-name="Group 1694" transform="translate(45.125 0)">
            <path id="Path_2872" data-name="Path 2872" class="cls-6" d="M8473.933,4482.858v27.761s14.252,7.372,28.9,8.015a179.071,179.071,0,0,0,26.131-1.18,12.824,12.824,0,0,0,5.659-2.52l1.007-17.743a225.319,225.319,0,0,1-31.587-5.9C8489.395,4487.2,8473.933,4482.858,8473.933,4482.858Z" transform="translate(-8351.756 -4226.555)"/>
            <path id="Path_2873" data-name="Path 2873" class="cls-3" d="M8521.773,4350.537s-19.426,32.194-34.128,50.858-31.435,23.1-31.435,23.1l-36.682,10.291,36.682,64.1,26.219,33.66s13.477,14,27.763,21.647,36.93,12.9,61.062,7.07,50.479-28.521,57.861-58.519,7.61-35.682,8.116-62.769c.267-14.274,1.407-35.927,0-53.814-1.2-15.317-4.957-25.215-4.957-25.215s-21.874,14.5-39.7,17.591c-.3.053-34.227,2.744-44.26-4.655C8538.11,4366.361,8521.773,4350.537,8521.773,4350.537Z" transform="translate(-8376.931 -4287.789)"/>
            <path id="Path_2874" data-name="Path 2874" class="cls-7" d="M8412.214,4387.023s-16.606,13.9-20.206,43.674,0,82.164,0,82.164l4.163,88.857,22.3-104.968s3.45-30.205,1.493-48.879-2.96-27.755-2.96-27.755Z" transform="translate(-8390.408 -4270.904)"/>
            <path id="Path_2881" data-name="Path 2881" class="cls-8" d="M8480.05,4397.9s11.307-8.93,20.533-9.986,18.571,5,18.571,5" transform="translate(-8348.926 -4270.548)"/>
            <path id="Path_2882" data-name="Path 2882" class="cls-8" d="M8481.5,4396.608s4.112-4.034,13.339-5.09,15.813,11.982,15.813,11.982" transform="translate(-8263.414 -4273.241)"/>
            <path id="Path_2875" data-name="Path 2875" class="cls-9" d="M8502,4468.569s13.255,13.661,23.881,13.661,18.625-13.661,18.625-13.661Z" transform="translate(-8337.304 -4237.557)"/>
            <path id="Path_2876" data-name="Path 2876" class="cls-4" d="M21.109,2.371c10.16,0,21.312,6.077,21.312,6.077H0S10.5,2.371,21.109,2.371Z" transform="translate(164.697 221.732)"/>
            <path id="Path_2877" data-name="Path 2877" class="cls-7" d="M8529.568,4372.857s-2.619,14.311-18.979,34.415-45.7,49.553-45.7,49.553-13-5.249-18.1,0c-2.09,2.147-4.934,10.767-1.83,18.974,4.119,10.906,5.223,11.323,11.619,17.971a33.188,33.188,0,0,0,13.969,8.622l15.646,42.864s-6.287-2.84-17.877-12.38c-3.936-3.237-8.826-9.079-13.953-15.651-18.717-23.983-44-63.016-46.125-72.681s-7.482-25.974,0-54.312,19.832-50.227,29.926-59.041,16.912-8.707,45.645-14.93,49.779,20.487,49.779,20.487,59.283-9.106,82.1,11.019,27.559,30.449,27.559,46.693c0,0-42.742,18.861-70.822,12.812S8529.568,4372.857,8529.568,4372.857Z" transform="translate(-8383.94 -4304.086)"/>
            <path id="Path_2879" data-name="Path 2879" class="cls-10" d="M0,13.016S17.346,0,40.537,0,92.765,13.016,92.765,13.016s-32.2-3.463-55.394-3.463S0,13.016,0,13.016Z" transform="matrix(-0.616, 0.788, -0.788, -0.616, 141.89, 75.858)"/>
            <path id="Path_2929" data-name="Path 2929" class="cls-10" d="M0,2.56A298.024,298.024,0,0,1,40.152,0C63.344,0,143.778,10.709,143.778,10.709S60.563,6.023,37.371,6.023,0,2.56,0,2.56Z" transform="translate(24.465 152.874) rotate(91)"/>
            <path id="Path_2930" data-name="Path 2930" class="cls-10" d="M0,0S36.433,8.585,59.624,8.585,176.867,5.621,176.867,5.621,80.035,9.956,56.844,9.956,0,0,0,0Z" transform="translate(16.342 131.948) rotate(91)"/>
            <path id="Path_2883" data-name="Path 2883" class="cls-10" d="M0,13.016S17.346,0,40.537,0,92.765,13.016,92.765,13.016s-32.2-3.463-55.394-3.463S0,13.016,0,13.016Z" transform="matrix(-0.946, -0.326, 0.326, -0.946, 231.856, 110.639)"/>
            <path id="Path_2886" data-name="Path 2886" class="cls-10" d="M0,5A179.615,179.615,0,0,1,41.845,0c23.191,0,50.92,5,50.92,5s-32.2-3.463-55.394-3.463S0,5,0,5Z" transform="matrix(-0.946, -0.326, 0.326, -0.946, 234.465, 66.494)"/>
            <path id="Path_2884" data-name="Path 2884" class="cls-10" d="M0,5A179.615,179.615,0,0,1,41.845,0c23.191,0,50.92,5,50.92,5s-32.2-3.463-55.394-3.463S0,5,0,5Z" transform="matrix(-0.731, 0.682, -0.682, -0.731, 115.881, 55.793)"/>
            <path id="Path_2885" data-name="Path 2885" class="cls-10" d="M0,11.812s25.615,9.757,48.806,9.757S104.908,0,104.908,0,71.936,17.938,48.744,17.938,0,11.812,0,11.812Z" transform="matrix(-0.719, 0.695, -0.695, -0.719, 104.505, 15.515)"/>
            <path id="Path_2880" data-name="Path 2880" class="cls-10" d="M0,13.093S11.116,4.974,15.492,4.974,29.46,0,29.46,0,19.444,2.8,15.069,2.8,0,13.093,0,13.093Z" transform="translate(15.356 144.872) rotate(-79)"/>
            <g id="Group_1716" data-name="Group 1716" transform="translate(135.029 126.784)">
              <path id="Path_2933" data-name="Path 2933" class="cls-11" d="M0,18.679S7.081,9.358,14.08,4.688A27.73,27.73,0,0,1,27.993,0" transform="matrix(0.985, 0.174, -0.174, 0.985, 3.244, 4.827)"/>
              <path id="Path_2935" data-name="Path 2935" class="cls-11" d="M0,18.679S7.081,9.358,14.08,4.688A27.73,27.73,0,0,1,27.993,0" transform="translate(91.378 0) rotate(53)"/>
              <path id="Path_2934" data-name="Path 2934" class="cls-11" d="M9516.792,6040.992s-2.34,15.536,3.359,28.616,19.441,23.7,19.441,23.7a31.773,31.773,0,0,1-8.974,8.757c-5.7,3.594-13.827,5.618-13.827,5.618" transform="translate(-9461.32 -6031.225)"/>
              <circle id="Ellipse_206" data-name="Ellipse 206" class="cls-12" cx="5.851" cy="5.851" r="5.851" transform="matrix(0.985, 0.174, -0.174, 0.985, 12.264, 11.237)"/>
              <circle id="Ellipse_207" data-name="Ellipse 207" class="cls-12" cx="5.851" cy="5.851" r="5.851" transform="translate(93.216 11.263) rotate(53)"/>
            </g>
          </g>
          <path id="Path_2895" data-name="Path 2895" class="cls-4" d="M.473,192.293s-3.224,49.2,7.159,127.752-6.757,92.9-6.757,92.9-7.485,23.511,109.8,23.737c.516,0,1.876-.154,3.936-.137,8.485.069,29.865.048,35.726-.667,2.871-.35,50.624-6.358,63.891-9.876a229.838,229.838,0,0,0,38.151-11.262L160.841,99.921s27.6-44.155-55.987-63.81L13.262,0" transform="matrix(0.999, 0.035, -0.035, 0.999, 130.252, 366.929)"/>
          <path id="Path_2896" data-name="Path 2896" class="cls-13" d="M133.273,320.241s4.212-65.555-4.462-65.491c-4.3,0-9.314-.578-11.8-6.941-1.138-2.956-1.635-6.812-3.235-9-2.844-3.791-7.288.45-10.309-2.892-3.413-3.792-2.169-13.238-.391-19.729,14.291-51.668,11.66-60.665,5.439-49.483-2.631,4.755-6.257,9.961-9.7,7.39-.355-40.936,18.237-75.7,19.517-116.574-3.306-3.856-7,3.6-9.029,9.7a162.526,162.526,0,0,1-9.385,22.621c-1.493,2.892-3.2,5.848-5.368,6.491-5.368,1.607-8.39-10.6-9.492-20.243-2.808-24.356,15.226-48.65,12.418-73.005C96.756-3.141,78.1.673,78.707,8.963c.727,10.007,9.794,23.551,7.237,34.311-4.976,20.955-18.68,45.858-24.239,67.013C41.129,188.6-2.947,256.917-2.947,256.917a427.77,427.77,0,0,0,35.9,25.291C51.8,293.911,54.869,294.015,78.34,302.3c1.552.5,16.2,6.554,22,8.5C117.558,316.56,133.273,320.241,133.273,320.241Z" transform="translate(37.526 536.595) rotate(-16)"/>
          <path id="Path_2897" data-name="Path 2897" class="cls-13" d="M18.076,70c5.641-2.708,2.851-8.522,4.913-12.942,2.548-.4,4.792,1.075,6.733,2.23s5.156,2.071,6.915.836a2.591,2.591,0,0,0,.91-2.668c-.91-10.115-8.068-20.189-4.792-30.1,5.52.279,6.672,5.217,10.191,8.044a4.216,4.216,0,0,0,3.458,1c.243-.08,10.911-22.125,11.093-22.245,2.313,3.938,12.3-19.215,13.245-13.11,1.953,12.563,10.069,46.219,9.943,46.851-.425,2.031,8.718,69.708,8.718,69.708-5.707-.64,4.76,30.179,11.732,57.849,2.622,10.407,23.189,43.437,23.189,43.437a76.51,76.51,0,0,1-17.62,6.767c-8.643,1.99-18.173,4.982-19.667,4.162C64.813,217.589,6.339,73.7,0,71.15,5.459,70.274,13.163,72.345,18.076,70Z" transform="matrix(0.999, 0.035, -0.035, 0.999, 250.738, 567.001)"/>
          <g id="Group_1693" data-name="Group 1693" transform="matrix(0.999, 0.035, -0.035, 0.999, 132.788, 416.026)">
            <ellipse id="Ellipse_202" data-name="Ellipse 202" class="cls-14" cx="17.047" cy="17.047" rx="17.047" ry="17.047" transform="translate(0 0)"/>
            <g id="Group_1692" data-name="Group 1692" transform="translate(9.762 8.443)">
              <g id="Group_738" data-name="Group 738" transform="translate(0 0)">
                <g id="Group_736" data-name="Group 736">
                  <g id="Group_735" data-name="Group 735">
                    <g id="Group_733" data-name="Group 733" transform="translate(1.373 12.824)">
                      <path id="Wheel_2_9_" class="cls-4" d="M2.185,0A2.172,2.172,0,1,1,0,2.16,2.172,2.172,0,0,1,2.185,0Z" transform="translate(0 0)"/>
                      <path id="Wheel_1_9_" class="cls-4" d="M2.184,0A2.175,2.175,0,1,1,0,2.16,2.173,2.173,0,0,1,2.184,0Z" transform="translate(7.413 0.041)"/>
                    </g>
                    <path id="Cart_9_" class="cls-4" d="M13.911,3.664l-2.8-.016,0-.29A3.588,3.588,0,0,0,7.336,0,3.588,3.588,0,0,0,3.523,3.316l0,.29L.719,3.59a.624.624,0,0,0-.664.577L0,13.885a.623.623,0,0,0,.658.584l13.192.074a.624.624,0,0,0,.665-.576l.055-9.719A.625.625,0,0,0,13.911,3.664ZM9.624,3.64,5.006,3.614l0-.29a2.182,2.182,0,0,1,2.32-2.018,2.182,2.182,0,0,1,2.3,2.044Z"/>
                    <g id="Group_734" data-name="Group 734" transform="translate(3.845 5.904)">
                      <path id="Path_1134" data-name="Path 1134" class="cls-14" d="M.082,6.091A.211.211,0,0,1,0,5.924L.024,1.682l0-.466L.032.237A.213.213,0,0,1,.116.069.3.3,0,0,1,.314,0L2.3.011a.3.3,0,0,1,.2.071.214.214,0,0,1,.083.168l-.01,1.743L3.759.213A.46.46,0,0,1,4.177.021l2.3.013a.24.24,0,0,1,.161.058.175.175,0,0,1,.068.137.162.162,0,0,1-.032.1L4.785,2.974,6.819,5.908a.141.141,0,0,1,.031.1.173.173,0,0,1-.068.136A.243.243,0,0,1,6.62,6.2L4.247,6.184a.525.525,0,0,1-.281-.067.441.441,0,0,1-.145-.138L2.561,4.052,2.55,5.937a.213.213,0,0,1-.084.166.293.293,0,0,1-.2.069L.279,6.162A.286.286,0,0,1,.082,6.091Z" transform="translate(0 0)"/>
                    </g>
                  </g>
                </g>
                <g id="Group_737" data-name="Group 737" transform="translate(4.114 6.466)">
                  <path id="Path_1135" data-name="Path 1135" class="cls-4" d="M4.621.255C4.627-.218,0,.112,0,.112S4.615.72,4.621.255Z" transform="translate(3.649 3.519)"/>
                  <path id="Path_1136" data-name="Path 1136" class="cls-4" d="M7.252.213C7.217-.26,0,.2,0,.2S7.286.679,7.252.213Z" transform="translate(0 2.138)"/>
                  <path id="Path_1137" data-name="Path 1137" class="cls-4" d="M4.621.255C4.627-.217,0,.111,0,.111S4.616.719,4.621.255Z" transform="translate(3.662 1.172)"/>
                  <path id="Path_1138" data-name="Path 1138" class="cls-4" d="M4.62.255C4.626-.218,0,.112,0,.112S4.615.72,4.62.255Z" transform="translate(3.643 4.691)"/>
                  <path id="Path_1139" data-name="Path 1139" class="cls-4" d="M4.621.254C4.627-.217,0,.111,0,.111S4.615.719,4.621.254Z" transform="translate(3.669 0)"/>
                </g>
              </g>
            </g>
          </g>
          <g id="Group_1702" data-name="Group 1702" transform="matrix(1, -0.017, 0.017, 1, 166.778, 253.812)">
            <g id="Group_1305" data-name="Group 1305" transform="translate(137.603 60.854)">
              <g id="Group_1293" data-name="Group 1293" transform="translate(0 0)">
                <path id="Path_2384" data-name="Path 2384" class="cls-15" d="M37.687.947,31.08,2.411A39.647,39.647,0,0,0,.947,49.7L8.56,84.051C18.309,128.059,57.573,130.6,57.573,130.6a4.274,4.274,0,0,1,1.665,2.538l8.105,36.577a1.165,1.165,0,0,0,1.39.886l6.077-1.346a1.166,1.166,0,0,0,.885-1.391L67.617,131.4a4.275,4.275,0,0,1,.432-2.994s35.03-15.613,24.534-62.975L84.974,31.081A39.65,39.65,0,0,0,37.687.947Z"/>
                <g id="Group_1284" data-name="Group 1284" transform="translate(38.165 20.221)">
                  <g id="Group_1283" data-name="Group 1283" transform="translate(0 0)">
                    <path id="Path_2385" data-name="Path 2385" class="cls-16" d="M.949,0,36.792,149l-6.341,1.4L0,.211Z"/>
                  </g>
                </g>
                <g id="Group_1286" data-name="Group 1286" transform="translate(24.345 19.358)">
                  <g id="Group_1285" data-name="Group 1285" transform="translate(0 0)">
                    <path id="Path_2386" data-name="Path 2386" class="cls-16" d="M0,7.794c1.671,1.15,3.31,2.34,4.95,3.532s3.261,2.4,4.873,3.629,3.221,2.455,4.824,3.689,3.187,2.5,4.782,3.743l-.976.212c.969-1.91,1.962-3.808,2.942-5.713,1.005-1.892,1.991-3.793,3.015-5.674S26.458,7.447,27.5,5.575l1.586-2.8q.8-1.4,1.625-2.777-.636,1.48-1.3,2.945L28.08,5.871q-1.358,2.913-2.752,5.809c-.923,1.934-1.884,3.848-2.826,5.772-.967,1.911-1.922,3.828-2.9,5.734l-.362.706-.614-.495c-1.576-1.27-3.166-2.523-4.732-3.806s-3.139-2.557-4.689-3.86S6.1,13.126,4.564,11.81,1.5,9.16,0,7.794Z"/>
                  </g>
                </g>
                <g id="Group_1288" data-name="Group 1288" transform="translate(24.714 37.331)">
                  <g id="Group_1287" data-name="Group 1287">
                    <path id="Path_2387" data-name="Path 2387" class="cls-16" d="M0,9.739q1.563,1.082,3.107,2.187l3.077,2.225,3.053,2.255c1.021.748,2.024,1.518,3.036,2.278S14.3,20.2,15.294,20.978L18.3,23.293c1.005.767,2,1.552,2.991,2.333l2.983,2.344-1.22.265c.6-1.2,1.223-2.379,1.834-3.571L26.729,21.1c1.256-2.363,2.488-4.738,3.768-7.09l1.914-3.529,1.945-3.514L36.339,3.47q1-1.744,2.03-3.47-.794,1.848-1.619,3.68L35.083,7.336l-1.7,3.636-1.735,3.621c-1.153,2.416-2.354,4.807-3.53,7.211l-1.807,3.585c-.606,1.192-1.2,2.394-1.816,3.58l-.458.876-.762-.611-2.96-2.372c-.986-.791-1.976-1.578-2.952-2.383l-2.937-2.4c-.983-.8-1.948-1.613-2.921-2.421S9.554,18.043,8.593,17.22L5.7,14.759l-2.866-2.49Q1.407,11.016,0,9.739Z"/>
                  </g>
                </g>
                <g id="Group_1290" data-name="Group 1290" transform="translate(26.056 56.036)">
                  <g id="Group_1289" data-name="Group 1289">
                    <path id="Path_2388" data-name="Path 2388" class="cls-16" d="M0,11.248q1.8,1.25,3.588,2.525c1.192.847,2.368,1.714,3.553,2.57l3.526,2.6c1.178.864,2.336,1.753,3.5,2.631s2.336,1.753,3.49,2.649L21.131,26.9c1.161.886,2.306,1.792,3.454,2.694L28.03,32.3l-1.409.306c.689-1.383,1.413-2.748,2.117-4.124l2.127-4.118,2.166-4.1c.721-1.367,1.443-2.733,2.185-4.089L37.428,12.1l2.247-4.057,1.142-2.019,1.147-2.017Q43.116,1.994,44.307,0q-.917,2.135-1.87,4.25l-.959,2.112-.965,2.109-1.968,4.2-2,4.182c-.664,1.4-1.347,2.782-2.03,4.168L32.465,25.18l-2.087,4.139c-.7,1.378-1.381,2.764-2.1,4.134l-.529,1.012-.881-.706-3.418-2.739c-1.139-.913-2.282-1.822-3.409-2.751l-3.392-2.773c-1.135-.92-2.25-1.864-3.373-2.8s-2.25-1.864-3.358-2.815L6.585,17.042c-1.1-.959-2.215-1.907-3.31-2.875S1.085,12.23,0,11.248Z"/>
                  </g>
                </g>
                <g id="Group_1292" data-name="Group 1292" transform="translate(25.097 73.008)">
                  <g id="Group_1291" data-name="Group 1291" transform="translate(0 0)">
                    <path id="Path_2389" data-name="Path 2389" class="cls-16" d="M0,13.788c1.479,1.016,2.94,2.053,4.4,3.1s2.9,2.1,4.355,3.15l2.163,1.594,2.158,1.6c1.445,1.059,2.865,2.149,4.3,3.224S20.234,28.6,21.647,29.7L25.9,32.972c.707.548,1.422,1.088,2.123,1.644l2.111,1.658,4.222,3.317-1.727.375c.845-1.7,1.731-3.369,2.6-5.054l2.608-5.048,2.656-5.023c.884-1.675,1.769-3.349,2.677-5.013l2.709-5L48.63,9.859l1.4-2.475c.469-.823.928-1.653,1.406-2.472.946-1.644,1.9-3.285,2.874-4.912-.743,1.747-1.516,3.479-2.292,5.209-.383.868-.785,1.725-1.177,2.589l-1.183,2.586-2.412,5.148L44.79,20.658c-.814,1.711-1.65,3.41-2.488,5.109l-2.509,5.1-2.558,5.073c-.858,1.688-1.694,3.388-2.57,5.067l-.647,1.24-1.079-.865-4.19-3.358-2.095-1.679c-.7-.556-1.389-1.129-2.083-1.693l-4.157-3.4c-1.391-1.126-2.757-2.284-4.135-3.427s-2.756-2.284-4.117-3.451l-2.047-1.739L8.072,20.89c-1.351-1.176-2.715-2.338-4.057-3.525S1.325,15,0,13.788Z"/>
                  </g>
                </g>
              </g>
              <g id="Group_1304" data-name="Group 1304" transform="translate(62.88 26.642)">
                <path id="Path_2390" data-name="Path 2390" class="cls-17" d="M54.448,2.336,48.959.978a33.132,33.132,0,0,0-40.12,24.2L1.776,53.726c-9.046,36.563,19.4,53.052,19.4,53.052a3.57,3.57,0,0,1,.3,2.519l-7.519,30.391a.975.975,0,0,0,.711,1.18l5.051,1.249a.975.975,0,0,0,1.18-.71l7.5-30.3a3.576,3.576,0,0,1,1.435-2.082S61.855,110.352,71.592,71l7.062-28.546A33.131,33.131,0,0,0,54.448,2.336Z" transform="translate(0 0)"/>
                <g id="Group_1295" data-name="Group 1295" transform="translate(14.575 17.098)">
                  <g id="Group_1294" data-name="Group 1294" transform="translate(0 0)">
                    <path id="Path_2391" data-name="Path 2391" class="cls-16" d="M33.783.2,5.268,125.05,0,123.746,32.994,0Z"/>
                  </g>
                </g>
                <g id="Group_1297" data-name="Group 1297" transform="translate(34.728 16.996)">
                  <g id="Group_1296" data-name="Group 1296">
                    <path id="Path_2392" data-name="Path 2392" class="cls-16" d="M0,0C.824,1.481,1.609,2.982,2.393,4.482s1.548,3.01,2.3,4.526,1.5,3.034,2.242,4.553,1.459,3.052,2.19,4.578l-.81-.2,4.323-3.183c1.455-1.043,2.9-2.1,4.365-3.128s2.931-2.057,4.407-3.072,2.962-2.014,4.474-2.981c-1.363,1.166-2.758,2.29-4.15,3.418s-2.8,2.23-4.217,3.326-2.84,2.18-4.259,3.271L8.958,18.8l-.531.4-.278-.6c-.709-1.536-1.433-3.065-2.129-4.607s-1.4-3.08-2.077-4.631S2.589,6.259,1.925,4.7.615,1.58,0,0Z"/>
                  </g>
                </g>
                <g id="Group_1299" data-name="Group 1299" transform="translate(27.606 32.042)">
                  <g id="Group_1298" data-name="Group 1298">
                    <path id="Path_2393" data-name="Path 2393" class="cls-16" d="M0,0C1.03,1.851,2.01,3.725,2.99,5.6s1.935,3.761,2.874,5.655c.471.946.951,1.889,1.41,2.84l1.391,2.849c.468.948.918,1.9,1.373,2.858L11.4,22.664l-1.012-.255c.892-.674,1.8-1.327,2.7-1.992l2.7-1.986c1.818-1.3,3.623-2.623,5.454-3.908s3.662-2.571,5.5-3.838l2.782-1.88q1.395-.934,2.808-1.844-1.281,1.089-2.578,2.153l-2.606,2.117q-2.623,2.095-5.269,4.156c-1.76,1.38-3.547,2.724-5.321,4.086L13.88,21.486c-.9.667-1.785,1.348-2.689,2.005l-.668.486-.344-.74L8.843,20.361c-.445-.959-.893-1.915-1.325-2.88L6.212,14.592c-.44-.961-.859-1.931-1.287-2.9C4.066,9.764,3.234,7.82,2.4,5.874S.769,1.974,0,0Z"/>
                  </g>
                </g>
                <g id="Group_1301" data-name="Group 1301" transform="translate(21.103 47.673)">
                  <g id="Group_1300" data-name="Group 1300" transform="translate(0 0)">
                    <path id="Path_2394" data-name="Path 2394" class="cls-16" d="M0,0Q.886,1.606,1.748,3.223L3.453,6.466,5.125,9.725c.561,1.085,1.1,2.18,1.646,3.271s1.1,2.181,1.628,3.28L10,19.566c.539,1.095,1.06,2.2,1.585,3.3l1.573,3.305L12,25.878c1.03-.779,2.078-1.533,3.117-2.3l3.122-2.293c2.1-1.5,4.183-3.029,6.3-4.513L27.7,14.542l3.189-2.2L34.1,10.168q1.612-1.079,3.243-2.13Q35.868,9.3,34.368,10.525L31.359,12.97l-3.033,2.413-3.053,2.386c-2.033,1.594-4.1,3.146-6.145,4.719l-3.1,2.323c-1.036.771-2.061,1.556-3.105,2.316l-.772.561-.4-.855-1.542-3.321C9.7,22.407,9.183,21.3,8.684,20.188L7.175,16.853c-.508-1.109-.992-2.23-1.487-3.346S4.7,11.276,4.221,10.152L2.778,6.786,1.368,3.4Q.666,1.707,0,0Z"/>
                  </g>
                </g>
                <g id="Group_1303" data-name="Group 1303" transform="translate(13.138 61.923)">
                  <g id="Group_1302" data-name="Group 1302">
                    <path id="Path_2395" data-name="Path 2395" class="cls-16" d="M0,0C.724,1.312,1.441,2.628,2.142,3.951S3.535,6.6,4.232,7.927l2.049,3.994c.688,1.33,1.346,2.672,2.018,4.01s1.346,2.673,2,4.02l1.968,4.033c.662,1.341,1.3,2.694,1.943,4.045l1.928,4.051L14.7,31.72c1.262-.955,2.547-1.879,3.82-2.819L22.35,26.09,26.2,23.316c1.284-.926,2.568-1.851,3.866-2.757l3.885-2.733,3.908-2.7,1.968-1.333,1.97-1.328,1.98-1.315,1.995-1.3-1.818,1.534L42.124,12.9l-1.842,1.5-1.845,1.5-3.718,2.958-3.741,2.925c-1.245.979-2.5,1.94-3.76,2.9l-3.772,2.884-3.8,2.848c-1.27.945-2.526,1.908-3.806,2.838l-.946.688-.487-1.048-1.889-4.07c-.63-1.356-1.264-2.711-1.875-4.077l-1.85-4.088c-.623-1.36-1.216-2.734-1.822-4.1s-1.215-2.734-1.8-4.112L3.4,8.316C2.828,6.933,2.24,5.558,1.676,4.17S.548,1.395,0,0Z"/>
                  </g>
                </g>
              </g>
            </g>
            <g id="Group_1308" data-name="Group 1308" transform="translate(122.64 102.919)">
              <path id="Path_2396" data-name="Path 2396" class="cls-18" d="M78.743,53.969C70.722,72.84,47.194,80.9,26.193,71.976s-31.524-31.46-23.5-50.33S34.237-5.288,55.239,3.638,86.763,35.1,78.743,53.969Z" transform="translate(0 8.269)"/>
              <g id="Group_1307" data-name="Group 1307" transform="translate(23.346 0)">
                <path id="Path_2397" data-name="Path 2397" class="cls-19" d="M32.71,5.085C26.586,1.641,12.307-.763,0,.223,12.021,4.846,27.017,7.858,32.71,5.085Z" transform="translate(0 6.809)"/>
                <path id="Path_2398" data-name="Path 2398" class="cls-19" d="M22.653.044C16.186-.5,6.052,3.99,0,10.976,10.816,9.853,21.887,5.639,22.653.044Z" transform="translate(10.177 12.096)"/>
                <path id="Path_2399" data-name="Path 2399" class="cls-19" d="M.953,0C-1.5,3.682.848,14.2,7.26,24.306,9.014,16.347,7.244,5.472.953,0Z" transform="translate(31.299 11.895)"/>
                <path id="Path_2400" data-name="Path 2400" class="cls-19" d="M0,0C2.7,4.957,14.474,13.81,27.6,19.972,20.222,11.271,8.329,1.739,0,0Z" transform="translate(30.747 11.345)"/>
                <g id="Group_1306" data-name="Group 1306" transform="translate(30.865 0)">
                  <rect id="Rectangle_326" data-name="Rectangle 326" class="cls-19" width="13.899" height="2.653" transform="translate(0 12.641) rotate(-65.431)"/>
                </g>
              </g>
              <path id="Path_2401" data-name="Path 2401" class="cls-20" d="M13.221,14.026C8.938,17.251,2.411,15.421.639,13.067S.9,6.192,5.187,2.968,14.378-.963,16.151,1.389,17.5,10.8,13.221,14.026Z" transform="translate(11.441 14.052)"/>
            </g>
            <g id="Group_1309" data-name="Group 1309" transform="translate(199.339 44.615)">
              <path id="Path_2402" data-name="Path 2402" class="cls-21" d="M95.559,75.294,115.848,21.53l1.292.487A1.056,1.056,0,0,0,118.5,21.4l2.237-5.926a1.055,1.055,0,0,0-.615-1.36l-1.292-.487,1.4-3.723a1.218,1.218,0,0,0-.709-1.57L97.645.079a1.219,1.219,0,0,0-1.57.709l-1.4,3.723-1.14-.43a1.055,1.055,0,0,0-1.36.615l-2.237,5.926a1.056,1.056,0,0,0,.615,1.36l1.14.43L71.4,66.176A35.327,35.327,0,0,0,38.821,89.024L0,191.893l66.1,24.944,38.822-102.869A35.328,35.328,0,0,0,95.559,75.294Z" transform="translate(0 0)"/>
              <rect id="Rectangle_327" data-name="Rectangle 327" class="cls-22" width="69.02" height="62.695" transform="matrix(0.354, -0.935, 0.935, 0.354, 14.011, 166.966)"/>
            </g>
            <g id="Group_1310" data-name="Group 1310" transform="translate(174.686 102.542)">
              <path id="Path_2403" data-name="Path 2403" class="cls-23" d="M13.3,6.354c5.208,7.565,21.308,17.273,29.092,20.266,4.5,1.731,8.785,1.926,11.7,2.515a8.561,8.561,0,0,1,1.2-.811,11.339,11.339,0,0,1,1.321-1.191c-2.589-1.289-8.081-.944-13.918-3.189-7.786-2.993-23.885-12.7-29.092-20.266C10.886-.268,7.9-.688,5.244.773A20.884,20.884,0,0,0,0,13.431,21.088,21.088,0,0,1,4.939,3.448C7.592,1.987,10.582,2.406,13.3,6.354Z" transform="translate(75.372 154.89)"/>
              <path id="Path_2404" data-name="Path 2404" class="cls-24" d="M9.07,95.387C-.024,17.341,52.542,3.538,70.566,1.313a3.5,3.5,0,0,0-2.185-1.3C65.808-.277-9.709,2.161,1.048,94.474c11.951,67.711,57,82.063,73.537,82.193C54.61,172.653,19.423,154.041,9.07,95.387Z" transform="translate(0 0.215)"/>
              <path id="Path_2405" data-name="Path 2405" class="cls-24" d="M50.549,39.55c-1.562-3.074-3.728-7.3-8.542-9.635C33.878,25.981,19.084,19.783,7.116,19.172-.5,18.783,2.171,5.751,7.654,0,.7,3.831-3.946,20.639,4.717,21.081c11.969.611,26.763,6.81,34.891,10.744,7.255,3.511,8.5,11.355,10.72,13.023A20.33,20.33,0,0,1,50.549,39.55Z" transform="translate(72.961 155.665)"/>
              <path id="Path_2406" data-name="Path 2406" class="cls-25" d="M1.048,94.075c10.352,58.654,45.539,77.265,65.515,81.28a13.728,13.728,0,0,0,5.164-.7c5.352-1.2,9.086-8.274,9.26-9.078,1.39-6.476,3.807-15.686-9.953-27.217C60.779,129.763,22.71,94.152,45.277,41.126,57.915,16.482,66.26,6.8,65.275,4.882A23.067,23.067,0,0,0,62.544,0C44.521,2.225-8.046,16.029,1.048,94.075Z" transform="translate(8.022 1.528)"/>
              <path id="Path_2407" data-name="Path 2407" class="cls-23" d="M0,1.184A5.66,5.66,0,0,1,2.083.471,3.508,3.508,0,0,0,1.343,0,11.469,11.469,0,0,0,0,1.184Z" transform="translate(130.644 182.025)"/>
              <path id="Path_2408" data-name="Path 2408" class="cls-25" d="M4.71,17.272c11.968.61,26.763,6.809,34.891,10.743,4.814,2.33,6.981,6.56,8.542,9.635.827-4.856,3.244-9.045,5.935-11.194-2.918-.588-7.177-.779-11.681-2.51C34.612,20.953,18.513,11.245,13.3,3.68,10.587-.269,7.6-.688,4.943.774A21.078,21.078,0,0,0,0,10.757C-.088,14.295,1.244,17.094,4.71,17.272Z" transform="translate(75.368 157.566)"/>
              <path id="Path_2409" data-name="Path 2409" class="cls-26" d="M44.5,0C38.229,5.707,4.658,22.984.42,69.054c-5.494,59.716,44.626,84.361,50.274,87.231,9.673,4.913,22.577-1.022,3.146-18.952-20.39-18.814-36.2-40.5-32.727-74.311,2.8-27.268,23.745-53.2,26.933-57.84C49.172,3.542,49.283.244,44.5,0Z" transform="translate(24.641 3.29)"/>
              <path id="Path_2410" data-name="Path 2410" class="cls-27" d="M4.041,8.086c.931.487,2.035-1.315,2.075-2.054s-1.592-3.95-2.76-4.989S1.262-.245.372.235C-.48.693.39,3.4.454,4.1.627,5.98,3.368,7.734,4.041,8.086Z" transform="translate(67.787 0)"/>
              <path id="Path_2411" data-name="Path 2411" class="cls-27" d="M.085,18.017a1.433,1.433,0,0,0,.851.332c2.856.024,9.859-13.022,9.391-16.838A2.294,2.294,0,0,0,9.522,0C4.843.521-.756,9,.085,18.017Z" transform="translate(123.204 182.496)"/>
            </g>
            <g id="Group_1320" data-name="Group 1320" transform="translate(261.411 107.422)">
              <g id="Group_1319" data-name="Group 1319" transform="translate(53.787 0)">
                <g id="Group_1311" data-name="Group 1311" transform="translate(6.992 1.78)">
                  <path id="Path_2412" data-name="Path 2412" class="cls-28" d="M0,47.428C5.1,30.94,7.17,18.095,2.642,1.228L7.216,0C12.04,17.971,9.883,31.513,4.525,48.828Z"/>
                </g>
                <g id="Group_1312" data-name="Group 1312" transform="translate(0 6.398)">
                  <path id="Path_2413" data-name="Path 2413" class="cls-28" d="M5.83,47.95C7.839,30.808,7.528,17.8,0,2.042L4.274,0c8.022,16.79,8.371,30.5,6.261,48.5Z" transform="translate(0 0)"/>
                </g>
                <g id="Group_1313" data-name="Group 1313" transform="translate(10.171 0)">
                  <path id="Path_2414" data-name="Path 2414" class="cls-28" d="M4.325,48.153,0,46.22C7.044,30.463,10.638,17.958,8.167.67L12.857,0C15.489,18.421,11.722,31.605,4.325,48.153Z"/>
                </g>
                <g id="Group_1314" data-name="Group 1314" transform="translate(10.823 2.5)">
                  <path id="Path_2415" data-name="Path 2415" class="cls-28" d="M3.958,46.252,0,43.651C9.478,29.226,15.032,17.46,15.364,0L20.1.09C19.746,18.694,13.912,31.1,3.958,46.252Z" transform="translate(0 0)"/>
                </g>
                <g id="Group_1315" data-name="Group 1315" transform="translate(14.341 17.422)">
                  <path id="Path_2416" data-name="Path 2416" class="cls-28" d="M3.841,34.311,0,31.54C10.6,16.839,20.117,6.964,37.373,0l1.773,4.392C22.951,10.929,13.938,20.313,3.841,34.311Z"/>
                </g>
                <g id="Group_1316" data-name="Group 1316" transform="translate(14.536 24.664)">
                  <path id="Path_2417" data-name="Path 2417" class="cls-28" d="M3.785,33.621,0,30.772C10.9,16.29,20.613,6.612,38.007,0l1.684,4.428C23.366,10.633,14.163,19.831,3.785,33.621Z"/>
                </g>
                <g id="Group_1317" data-name="Group 1317" transform="translate(15.451 10.097)">
                  <path id="Path_2418" data-name="Path 2418" class="cls-28" d="M4.448,42.095,0,40.466C6.236,23.446,12.729,11.369,27.46,0l2.894,3.75C16.529,14.419,10.386,25.888,4.448,42.095Z"/>
                </g>
                <g id="Group_1318" data-name="Group 1318" transform="translate(16.302 4.813)">
                  <path id="Path_2419" data-name="Path 2419" class="cls-28" d="M0,44.345C3.426,26.546,7.9,13.582,20.617,0l3.458,3.238c-11.936,12.748-16.161,25.054-19.424,42Z" transform="translate(0 0)"/>
                </g>
              </g>
              <path id="Path_2420" data-name="Path 2420" class="cls-29" d="M3.718,171.559c-15.052-6.112,19.414-110.78,35.455-156.941A21.752,21.752,0,0,1,67.907,1.607l8.6,3.492A21.754,21.754,0,0,1,88.149,34.2C68.126,78.59,20.821,178.506,3.718,171.559Z" transform="translate(0 40.691)"/>
              <path id="Path_2421" data-name="Path 2421" class="cls-30" d="M0,0,.38.017c.245.018.611.03,1.068.071S2.466.179,3.1.22,4.449.31,5.228.388s1.637.184,2.538.3c.9.155,1.842.339,2.817.537.493.082.974.238,1.467.372s.992.277,1.492.426,1.013.281,1.509.459l1.482.555c.986.382,1.971.761,2.934,1.155.941.434,1.858.881,2.742,1.316s1.733.869,2.534,1.286c.79.435,1.517.885,2.192,1.291,1.343.826,2.445,1.543,3.205,2.063.384.253.675.47.878.611l.306.223-.365-.11c-.235-.077-.586-.178-1.019-.33-.875-.291-2.109-.732-3.569-1.3l-2.341-.934c-.837-.309-1.717-.641-2.619-1s-1.834-.729-2.77-1.126c-.957-.338-1.918-.7-2.882-1.063l-1.437-.56c-.482-.174-.964-.326-1.443-.49-.96-.306-1.887-.677-2.808-.949s-1.811-.545-2.657-.806C6.557,2.1,5.747,1.87,5,1.653s-1.458-.417-2.071-.6S1.789.672,1.355.52.585.228.354.142Z" transform="translate(43.168 55.693)"/>
              <path id="Path_2422" data-name="Path 2422" class="cls-30" d="M0,0,.375.066c.241.049.6.109,1.05.21S2.422.5,3.046.62s1.325.263,2.088.442,1.6.395,2.477.627c.869.269,1.782.573,2.723.9.479.146.936.362,1.407.558s.947.4,1.424.616.967.41,1.437.651l1.4.741c.927.507,1.857,1.01,2.759,1.526.876.552,1.727,1.114,2.547,1.659s1.606,1.087,2.347,1.6c.727.535,1.39,1.075,2.007,1.565,1.226.993,2.224,1.847,2.91,2.461.347.3.609.555.792.72l.275.261-.349-.156c-.223-.106-.557-.252-.968-.459-.829-.4-2-1-3.37-1.746l-2.2-1.229c-.792-.415-1.62-.859-2.469-1.329s-1.722-.96-2.6-1.475c-.906-.459-1.812-.946-2.72-1.429l-1.352-.74c-.455-.235-.914-.448-1.367-.672-.912-.429-1.783-.916-2.661-1.305S7.857,3.633,7.051,3.265c-.821-.337-1.6-.666-2.31-.979s-1.393-.6-1.977-.865C2.172,1.173,1.686.9,1.275.691S.549.3.331.186Z" transform="translate(48.364 73.528)"/>
              <path id="Path_2423" data-name="Path 2423" class="cls-30" d="M0,.043.38.03C.627.027.99.01,1.451.014s1.023.008,1.658,0,1.351-.02,2.134,0S6.889.058,7.8.1C8.7.184,9.659.29,10.649.409c.5.043.989.158,1.493.252s1.009.2,1.522.3,1.032.2,1.54.336l1.522.433c1.012.3,2.027.6,3.016.913.973.356,1.923.727,2.84,1.09s1.8.725,2.63,1.076c.823.369,1.584.759,2.289,1.11,1.407.714,2.563,1.341,3.363,1.8.4.222.711.414.924.538l.324.2-.373-.08c-.24-.058-.6-.13-1.044-.246-.894-.22-2.161-.558-3.661-1l-2.409-.741c-.859-.24-1.762-.5-2.692-.782s-1.886-.578-2.851-.9c-.981-.259-1.969-.545-2.959-.827l-1.478-.442c-.494-.134-.988-.246-1.477-.37-.982-.228-1.937-.522-2.876-.719s-1.848-.4-2.714-.589c-.874-.157-1.7-.317-2.465-.472S3.626.988,3,.853C2.37.735,1.837.567,1.392.451S.6.223.364.155Z" transform="translate(29.963 91.837)"/>
              <path id="Path_2424" data-name="Path 2424" class="cls-30" d="M0,0,.378.032c.246.028.61.054,1.066.113S2.457.275,3.09.34s1.344.142,2.119.25,1.63.249,2.525.4c.889.19,1.827.41,2.795.647.49.1.964.275,1.451.429s.981.315,1.475.484,1,.32,1.49.517.971.408,1.459.612c.97.421,1.941.837,2.886,1.268.923.47,1.823.952,2.689,1.422s1.7.936,2.482,1.384c.773.466,1.482.944,2.141,1.376,1.311.878,2.383,1.638,3.123,2.187.373.268.656.5.853.644l.3.236-.361-.123c-.232-.086-.579-.2-1.007-.369-.862-.326-2.079-.813-3.514-1.434l-2.3-1.024c-.826-.342-1.691-.707-2.579-1.1s-1.8-.8-2.724-1.233c-.944-.375-1.889-.777-2.839-1.176l-1.414-.615c-.474-.193-.95-.364-1.422-.544-.947-.344-1.859-.75-2.769-1.058s-1.788-.616-2.625-.91c-.849-.261-1.65-.518-2.391-.765s-1.441-.474-2.046-.683C2.271.973,1.762.743,1.333.574S.575.252.347.156Z" transform="translate(29.973 113.655)"/>
              <path id="Path_2425" data-name="Path 2425" class="cls-30" d="M0,0,.379.032C.625.06.988.087,1.444.146s1.013.131,1.646.2S4.435.484,5.21.592s1.63.248,2.525.4c.889.189,1.826.409,2.794.646.49.1.964.276,1.452.429s.98.315,1.475.485,1,.32,1.488.516l1.46.613c.97.42,1.941.837,2.886,1.268.923.47,1.822.952,2.689,1.422s1.7.936,2.482,1.384c.773.466,1.483.944,2.14,1.376,1.311.878,2.383,1.638,3.124,2.187.373.268.656.5.853.644l.3.235-.361-.123c-.232-.086-.578-.2-1.007-.369-.861-.325-2.078-.813-3.514-1.434l-2.3-1.025c-.826-.342-1.691-.707-2.579-1.1s-1.8-.8-2.724-1.233c-.942-.376-1.889-.778-2.838-1.176l-1.415-.615c-.474-.192-.951-.363-1.422-.544-.947-.344-1.86-.75-2.769-1.059S8.156,2.9,7.319,2.611c-.848-.261-1.65-.518-2.39-.765s-1.441-.474-2.047-.682S1.761.741,1.333.573.576.251.348.157Z" transform="translate(17.103 135.611)"/>
            </g>
            <g id="Group_1321" data-name="Group 1321" transform="translate(127.597 143.979)">
              <path id="Path_2426" data-name="Path 2426" class="cls-31" d="M0,0,.78,90.817,74.4,84.645,77.324,3.932Z" transform="translate(0.35 8.839)"/>
              <path id="Path_2427" data-name="Path 2427" class="cls-32" d="M77.674,12.771c-.375,5.344-18.065,8.457-39.512,6.956S-.369,12.677.006,7.334,18.07-1.124,39.517.378,78.048,7.427,77.674,12.771Z" transform="translate(0 0)"/>
              <path id="Path_2428" data-name="Path 2428" class="cls-33" d="M23.389,3.846c-.112,1.609-5.439,2.548-11.9,2.1S-.111,3.817,0,2.209,5.441-.338,11.9.114,23.5,2.237,23.389,3.846Z" transform="translate(27.144 7.025)"/>
            </g>
            <g id="Group_1324" data-name="Group 1324" transform="translate(42.237 0)">
              <path id="Path_2432" data-name="Path 2432" class="cls-34" d="M1.138,244.489C6.53,172.914,23.941-13.552,68.951.782c16.6,5.286,35.281,31.811,27.7,71.379,5.243,15.777,6.265,29.621,1.344,46.213,3.5,18.692,4.5,33.178-2.265,53.006,5.142,21.48,1,33.157-4.241,46.537,3.243,19.613-.355,37.715-6.79,50.607Q83.981,273,83.27,277.1C69.841,354.526-10.44,398.215,1.138,244.489Z" transform="translate(0)"/>
              <path id="Path_2433" data-name="Path 2433" class="cls-35" d="M0,1.815s.644-.262,1.768-.586C2.334,1.069,3,.871,3.8.716S5.511.4,6.511.265C7.5.155,8.584.072,9.731.012c1.149-.017,2.365-.028,3.626.06A34.331,34.331,0,0,1,17.249.54a37.391,37.391,0,0,1,3.992.923,33.268,33.268,0,0,1,3.888,1.471l.934.429c.307.147.6.326.9.487.589.342,1.179.648,1.725,1.024s1.076.75,1.583,1.126.962.81,1.409,1.208c.22.205.442.4.647.6s.4.419.584.633c.368.428.743.812,1.051,1.226s.589.824.845,1.212l.369.566c.106.194.21.381.3.566.186.37.365.707.511,1.028l.211.457c.059.152.106.3.154.439a14.835,14.835,0,0,1,.509,1.753s-.638-.347-1.6-.973c-.12-.078-.249-.158-.376-.246l-.431-.248c-.3-.168-.607-.362-.939-.558-.166-.1-.33-.2-.5-.309l-.555-.294c-.377-.2-.755-.42-1.152-.639s-.833-.415-1.263-.631c-.219-.1-.43-.223-.647-.336s-.459-.2-.692-.305c-.471-.2-.923-.433-1.411-.636s-.993-.4-1.49-.61-1.038-.379-1.556-.584-1.059-.387-1.606-.568c-1.071-.4-2.214-.71-3.328-1.085-1.15-.306-2.275-.684-3.433-.972-1.137-.335-2.287-.615-3.4-.933s-2.21-.576-3.245-.9C8.2,4.593,7.207,4.3,6.285,4.012c-.92-.265-1.77-.531-2.53-.792s-1.451-.475-2-.689C.636,2.124,0,1.815,0,1.815Z" transform="translate(56.657 56.796)"/>
              <path id="Path_2434" data-name="Path 2434" class="cls-35" d="M0,1.816s.644-.262,1.768-.586C2.334,1.07,3,.871,3.8.716S5.511.4,6.51.266C7.5.155,8.583.071,9.73.011c1.15-.017,2.365-.028,3.627.06a34.088,34.088,0,0,1,3.891.468,37.414,37.414,0,0,1,3.992.923,33.226,33.226,0,0,1,3.889,1.471l.934.428c.307.147.6.326.9.487.589.342,1.179.648,1.725,1.024s1.076.75,1.584,1.126.962.81,1.409,1.209c.22.206.442.4.648.6s.4.419.584.632c.367.428.742.812,1.051,1.226s.588.824.845,1.212c.126.194.25.383.37.566s.209.381.3.566c.185.37.364.706.51,1.028q.11.239.211.457c.058.151.106.3.153.439a14.829,14.829,0,0,1,.509,1.753s-.639-.347-1.6-.973c-.12-.078-.249-.157-.375-.246l-.431-.248c-.3-.168-.607-.362-.94-.558-.166-.1-.33-.2-.5-.309l-.555-.293c-.377-.2-.754-.42-1.151-.639s-.833-.416-1.264-.631c-.219-.1-.43-.223-.647-.336s-.46-.2-.692-.305c-.472-.2-.924-.433-1.411-.637s-.993-.4-1.49-.61-1.038-.379-1.557-.584-1.059-.387-1.606-.568c-1.071-.4-2.214-.711-3.329-1.085-1.15-.307-2.275-.684-3.432-.973-1.137-.335-2.286-.615-3.4-.933s-2.211-.576-3.245-.9C8.2,4.592,7.206,4.3,6.283,4.011c-.919-.265-1.77-.531-2.529-.793s-1.451-.475-2-.688C.637,2.124,0,1.816,0,1.816Z" transform="translate(57.677 102.562)"/>
              <path id="Path_2435" data-name="Path 2435" class="cls-35" d="M0,1.816s.644-.262,1.768-.586C2.334,1.07,3,.871,3.8.716S5.511.4,6.51.266C7.5.155,8.583.071,9.731.011c1.15-.017,2.365-.028,3.626.06a34.171,34.171,0,0,1,3.892.468,37.407,37.407,0,0,1,3.992.923,33.41,33.41,0,0,1,3.888,1.471l.934.429c.307.147.6.326.9.487.588.342,1.179.649,1.725,1.024s1.076.75,1.584,1.126.962.81,1.409,1.208c.22.205.442.4.648.6s.4.418.584.632c.367.428.742.811,1.051,1.226s.588.824.845,1.212l.37.566c.106.194.21.38.3.567.186.37.365.706.51,1.028l.211.457c.059.152.106.3.154.438a14.7,14.7,0,0,1,.509,1.754s-.639-.347-1.6-.973c-.12-.078-.249-.158-.375-.246l-.432-.248c-.3-.168-.607-.361-.939-.557-.166-.1-.33-.2-.5-.31l-.555-.293c-.377-.2-.755-.42-1.151-.639s-.833-.416-1.264-.632c-.219-.1-.43-.222-.646-.336s-.46-.2-.692-.306c-.472-.2-.923-.432-1.411-.636s-.993-.4-1.49-.61-1.038-.38-1.556-.584-1.059-.387-1.607-.568c-1.071-.4-2.214-.71-3.328-1.085-1.151-.307-2.276-.684-3.433-.973-1.137-.335-2.286-.616-3.4-.933s-2.21-.576-3.245-.9C8.2,4.593,7.207,4.3,6.285,4.012c-.919-.265-1.77-.531-2.53-.792s-1.45-.475-2-.689C.637,2.125,0,1.816,0,1.816Z" transform="translate(55.418 154.389)"/>
              <path id="Path_2436" data-name="Path 2436" class="cls-35" d="M0,1.815s.643-.262,1.768-.586C2.335,1.069,3,.871,3.8.716S5.511.4,6.511.265C7.5.155,8.583.071,9.731.011c1.15-.017,2.365-.028,3.627.059a34.336,34.336,0,0,1,3.891.468,37.321,37.321,0,0,1,3.992.923,33.307,33.307,0,0,1,3.888,1.471l.935.429c.307.147.6.327.9.487.589.342,1.18.649,1.726,1.024s1.075.75,1.583,1.126.962.81,1.409,1.208c.22.2.442.4.647.6s.4.419.584.632c.367.428.743.812,1.051,1.227s.589.823.845,1.211l.369.567c.107.193.21.38.3.566.186.371.365.706.51,1.028l.212.458c.059.151.106.3.153.439a14.85,14.85,0,0,1,.509,1.753s-.638-.346-1.6-.972c-.119-.079-.248-.158-.375-.247l-.431-.248c-.3-.168-.607-.361-.939-.557-.166-.1-.331-.2-.5-.309l-.555-.294c-.377-.2-.755-.42-1.151-.638s-.833-.416-1.264-.632c-.219-.1-.43-.222-.646-.335s-.46-.2-.692-.305c-.472-.2-.924-.433-1.412-.636s-.993-.4-1.49-.611-1.038-.379-1.556-.583S23.2,8.934,22.65,8.754c-1.071-.4-2.214-.711-3.328-1.085-1.151-.307-2.276-.684-3.433-.973-1.137-.336-2.288-.615-3.4-.933s-2.21-.576-3.245-.9C8.2,4.593,7.206,4.3,6.284,4.012c-.919-.264-1.77-.531-2.53-.792s-1.451-.475-2-.689C.636,2.124,0,1.815,0,1.815Z" transform="translate(51.127 202.788)"/>
              <path id="Path_2437" data-name="Path 2437" class="cls-35" d="M0,1.816s.644-.262,1.768-.586C2.334,1.07,3,.872,3.8.717S5.511.405,6.511.265C7.5.155,8.583.071,9.731.012,10.88,0,12.1-.017,13.358.071a34.014,34.014,0,0,1,3.892.467,37.364,37.364,0,0,1,3.992.923A33.124,33.124,0,0,1,25.13,2.933l.934.428c.307.147.6.326.9.486.588.343,1.179.649,1.725,1.024s1.076.75,1.584,1.126.962.81,1.409,1.208c.22.2.442.4.647.6s.4.419.584.632c.367.428.742.811,1.051,1.226s.589.823.845,1.212c.126.195.249.383.369.567s.21.38.3.566c.185.37.366.706.511,1.029.073.159.144.311.211.457s.106.3.154.439a14.825,14.825,0,0,1,.509,1.753s-.639-.347-1.6-.973c-.121-.078-.249-.158-.376-.246l-.431-.248c-.3-.168-.607-.362-.939-.558-.166-.1-.33-.2-.5-.31l-.555-.294c-.377-.2-.754-.419-1.152-.639s-.833-.416-1.264-.632c-.219-.1-.429-.222-.646-.336s-.46-.2-.692-.305c-.472-.2-.924-.433-1.412-.636s-.993-.4-1.49-.61-1.038-.379-1.557-.584-1.059-.387-1.605-.568c-1.071-.4-2.214-.71-3.329-1.084-1.15-.308-2.275-.684-3.432-.973-1.137-.335-2.287-.616-3.4-.933s-2.21-.577-3.245-.9C8.2,4.591,7.207,4.3,6.285,4.01c-.919-.264-1.769-.531-2.53-.792s-1.451-.475-2-.687C.637,2.125,0,1.816,0,1.816Z" transform="translate(44.566 256.025)"/>
            </g>
            <g id="Group_1337" data-name="Group 1337" transform="translate(153.61 167.3)">
              <path id="Path_2438" data-name="Path 2438" class="cls-36" d="M10.674,61.7C-.386,42.727,9.918,43.784,2.708,33-3.889,23.128,1.814-3.113,17.138.3c11.121,2.48,7.606,10.476,15.426,4.906S47.205,2,51.156,11.362C53.317,16.485,21.43,47.5,21.43,47.5Z" transform="translate(0 0)"/>
              <path id="Path_2439" data-name="Path 2439" class="cls-36" d="M8.951,0c7.791,1.772,17.466,12.863,12.615,20.378,3.2,5.648,6.412,7.531,1.505,14.623,1.972,7.186,1.825,10.4-5.751,12.966S-.392,2.033.012,2.306,8.951,0,8.951,0Z" transform="translate(86.093 29.82)"/>
              <path id="Path_2440" data-name="Path 2440" class="cls-37" d="M81.854,87.663c-18.813,16.41-49.214,12.345-67.9-9.08s-18.587-52.1.226-68.508,49.214-12.345,67.9,9.081S100.667,71.251,81.854,87.663Z" transform="translate(10.678 5.405)"/>
              <path id="Path_2441" data-name="Path 2441" class="cls-38" d="M14.552,0C20.917,20.245,32.3,18.735,40.09,17.1c-5.681,5.129-1.516,18.682,11.068,16.766C50.448,43.08,50.447,45.093,55.036,50c-10.656-3.5-13.969-.61-12.51,10.913,1.569,12.412-27.732-2.059-27.732-2.059L.644,39.5,0,12.694Z" transform="translate(41.976 13.221)"/>
              <path id="Path_2442" data-name="Path 2442" class="cls-39" d="M49.3.851c8.653,11.2,6.384,14.353-.444,20.308,9.956,7.643,15.614,19.8.888,28.472S16.974,77.16,7.249,66.664s-12.9-41,11.421-57.455C31.25-.282,45.6-1.083,49.3.851Z" transform="translate(8.564 4.194)"/>
              <path id="Path_2443" data-name="Path 2443" class="cls-36" d="M0,18.37C14.692-1.605,34.519-4.13,47.837,5.226c9.5-8.281,29.968.145,26.154,16.908,10.564,1.722,11.528,2.132,15.581,6.41s-23.9,31.539-54.163,21.107S0,18.37,0,18.37Z" transform="translate(15.482 51.425)"/>
              <g id="Group_1326" data-name="Group 1326" transform="translate(41.676 74.365)">
                <g id="Group_1325" data-name="Group 1325">
                  <path id="Path_2444" data-name="Path 2444" class="cls-40" d="M0,22.875l.532-.049c.346-.027.861-.06,1.5-.134.636-.054,1.406-.176,2.283-.294L5.7,22.16l1.525-.309c1.055-.245,2.191-.517,3.371-.876,1.186-.333,2.409-.774,3.666-1.229,1.247-.489,2.524-1.015,3.79-1.616s2.537-1.244,3.757-1.976c1.232-.708,2.433-1.471,3.573-2.278.579-.394,1.12-.825,1.675-1.227.53-.432,1.069-.843,1.57-1.281,1.022-.855,1.949-1.749,2.807-2.621.42-.444.836-.873,1.208-1.313.189-.218.382-.426.56-.642l.513-.64c.675-.837,1.24-1.648,1.728-2.382.471-.742.888-1.4,1.183-1.966.315-.559.539-1.014.691-1.326L37.559,0s-.03.183-.088.527a13.364,13.364,0,0,1-.321,1.484,19.409,19.409,0,0,1-.733,2.259,23.146,23.146,0,0,1-1.336,2.795l-.437.755c-.153.254-.322.5-.489.762-.326.523-.714,1.026-1.1,1.555a29.607,29.607,0,0,1-2.725,3.082A31.08,31.08,0,0,1,27.006,16.1a35.682,35.682,0,0,1-3.777,2.512,37.9,37.9,0,0,1-4.051,2.027l-1.03.428c-.344.136-.693.256-1.036.382-.683.261-1.378.465-2.055.679a35.546,35.546,0,0,1-3.984.923,33.749,33.749,0,0,1-3.629.424c-.566.02-1.106.042-1.62.048l-1.458-.032c-.458-.035-.884-.061-1.277-.1s-.756-.1-1.08-.135c-.652-.072-1.144-.2-1.487-.265S0,22.875,0,22.875Z"/>
                </g>
              </g>
              <g id="Group_1328" data-name="Group 1328" transform="translate(61.83 71.113)">
                <g id="Group_1327" data-name="Group 1327">
                  <path id="Path_2445" data-name="Path 2445" class="cls-40" d="M26.006,15.437q-1.128.315-2.26.607c-.375.107-.766.153-1.148.233l-1.156.216c-.387.065-.774.149-1.161.192l-1.163.152c-.775.1-1.552.206-2.331.269l-2.336.211-2.34.151c-.78.051-1.561.069-2.341.1s-1.561.051-2.346.065l-.27.005-.106-.25L5.212,13.077C4.615,11.632,4,10.193,3.419,8.742s-1.172-2.9-1.746-4.355C1.116,2.924.534,1.472,0,0,.7,1.4,1.358,2.82,2.038,4.23Q3.031,6.355,4,8.491c.653,1.422,1.278,2.855,1.917,4.282l1.874,4.3-.375-.245c1.55-.016,3.108-.067,4.661-.123l2.331-.094,2.329-.131c.388-.02.777-.038,1.163-.075l1.162-.092,1.163-.087c.39-.02.769-.085,1.156-.122l1.158-.124c.385-.049.777-.065,1.159-.143C24.466,15.694,25.235,15.563,26.006,15.437Z"/>
                </g>
              </g>
              <g id="Group_1330" data-name="Group 1330" transform="translate(46.682 75.731)">
                <g id="Group_1329" data-name="Group 1329" transform="translate(0 0)">
                  <path id="Path_2446" data-name="Path 2446" class="cls-40" d="M28.384,22.466l-1.129.287c-.383.064-.774.1-1.163.15s-.78.037-1.171.059-.782.006-1.173-.008-.784-.018-1.171-.066l-1.168-.114-1.161-.162c-.388-.05-.77-.132-1.155-.2s-.769-.139-1.15-.224L16.8,21.942c-.758-.184-1.516-.373-2.268-.581-.378-.1-.751-.214-1.126-.32s-.747-.225-1.12-.341c-.745-.238-1.482-.481-2.223-.752l-.14-.051-.073-.137c-.861-1.626-1.7-3.263-2.544-4.9L6.051,12.4,4.806,9.941Q3.573,7.472,2.364,4.991L1.174,2.5Q.576,1.256,0,0,.7,1.19,1.378,2.393l1.36,2.4Q4.083,7.206,5.4,9.634L6.7,12.064,8,14.5c.855,1.629,1.718,3.253,2.557,4.89l-.213-.189c.714.268,1.45.517,2.182.757s1.469.475,2.209.7,1.484.427,2.23.625l1.121.287c.373.1.75.181,1.127.263s.752.175,1.132.238l1.137.218,1.143.172c.381.064.764.092,1.148.135s.767.086,1.153.09.773.047,1.156.025.767-.032,1.154-.062Z"/>
                </g>
              </g>
              <g id="Group_1332" data-name="Group 1332" transform="translate(8.701 23.132)">
                <g id="Group_1331" data-name="Group 1331" transform="translate(0 0)">
                  <path id="Path_2447" data-name="Path 2447" class="cls-40" d="M0,29.774s.014-.185.038-.533.05-.856.166-1.5c.053-.322.1-.689.175-1.075s.169-.8.265-1.253L1.023,24c.151-.491.325-1,.5-1.541A33.8,33.8,0,0,1,2.957,19.1a35.718,35.718,0,0,1,2.009-3.562c.4-.589.787-1.2,1.23-1.78.219-.293.431-.594.659-.886l.7-.868a38.092,38.092,0,0,1,3.087-3.315,35.563,35.563,0,0,1,3.475-2.915,31.068,31.068,0,0,1,3.7-2.378A29.655,29.655,0,0,1,21.54,1.651c.617-.221,1.208-.452,1.8-.617.3-.086.582-.178.869-.254L25.06.573A23.1,23.1,0,0,1,28.119.079,19.08,19.08,0,0,1,30.492.013a13.222,13.222,0,0,1,1.514.11l.53.064-.526.1c-.342.058-.841.144-1.466.288-.627.124-1.375.338-2.22.581-.842.262-1.78.575-2.773.986l-.759.313c-.256.109-.512.237-.774.356-.527.232-1.056.51-1.6.788-1.08.576-2.2,1.215-3.306,1.954C18.55,5.91,18,6.311,17.44,6.7c-.542.42-1.109.817-1.649,1.262-1.1.866-2.167,1.8-3.194,2.785-1.045.965-2.011,2.011-2.955,3.047s-1.8,2.123-2.62,3.182C6.23,18.051,5.463,19.1,4.809,20.145c-.677,1.031-1.258,2.044-1.79,2.987l-.727,1.375-.62,1.265c-.361.808-.695,1.513-.926,2.107C.5,28.469.32,28.954.2,29.277S0,29.774,0,29.774Z"/>
                </g>
              </g>
              <g id="Group_1334" data-name="Group 1334" transform="translate(24.545 11.634)">
                <g id="Group_1333" data-name="Group 1333">
                  <path id="Path_2448" data-name="Path 2448" class="cls-40" d="M7.426,0,6.89,1.041l-.5,1.053c-.169.349-.312.712-.469,1.068s-.3.716-.445,1.077-.3.716-.437,1.081l-.42,1.087c-.268.731-.552,1.453-.809,2.188-.523,1.464-1.042,2.93-1.527,4.409S1.3,15.959.85,17.442L.741,17.03l3.582,3.416C5.506,21.6,6.7,22.735,7.872,23.9s2.349,2.318,3.515,3.486,2.324,2.345,3.459,3.545c-1.262-1.067-2.487-2.171-3.733-3.256s-2.459-2.2-3.677-3.315S5.009,22.12,3.795,21L.184,17.618,0,17.446l.074-.24c.234-.75.477-1.491.723-2.233s.5-1.482.761-2.217c.529-1.471,1.067-2.939,1.662-4.385.291-.725.6-1.445.908-2.163l.484-1.069c.158-.357.333-.708.5-1.061s.345-.7.531-1.047S6,2.336,6.2,2L6.785.979Z"/>
                </g>
              </g>
              <g id="Group_1336" data-name="Group 1336" transform="translate(14.42 21.671)">
                <g id="Group_1335" data-name="Group 1335" transform="translate(0 0)">
                  <path id="Path_2449" data-name="Path 2449" class="cls-40" d="M4.969,0c-.176.329-.346.663-.5,1s-.3.678-.435,1.026-.261.7-.383,1.045-.232.7-.338,1.06C2.884,5.551,2.538,7,2.224,8.445s-.571,2.913-.807,4.379-.44,2.94-.6,4.407l-.157-.36c1.5,1.117,2.99,2.256,4.483,3.387l2.229,1.71L9.6,23.687q2.215,1.728,4.414,3.478L16.2,28.932q1.1.881,2.174,1.782-1.166-.787-2.313-1.6l-2.3-1.614Q11.466,25.874,9.2,24.217L6.932,22.555,4.673,20.884c-1.5-1.123-3-2.237-4.491-3.375L0,17.37l.025-.22c.173-1.5.393-2.974.665-4.448s.578-2.939.95-4.392c.182-.727.385-1.448.605-2.165s.454-1.43.724-2.129q.2-.526.419-1.044c.15-.343.3-.688.464-1.024s.334-.67.518-1S4.76.31,4.969,0Z"/>
                </g>
              </g>
            </g>
            <g id="Group_1612" data-name="Group 1612" transform="translate(219.884 156.966)">
              <path id="Path_2438-2" data-name="Path 2438" class="cls-36" d="M10.674,61.7C-.386,42.727,9.918,43.784,2.708,33-3.889,23.128,1.814-3.113,17.138.3c11.121,2.48,7.606,10.476,15.426,4.906S47.205,2,51.156,11.362C53.317,16.485,21.43,47.5,21.43,47.5Z" transform="translate(0 0)"/>
              <path id="Path_2439-2" data-name="Path 2439" class="cls-36" d="M8.951,0c7.791,1.772,17.466,12.863,12.615,20.378,3.2,5.648,6.412,7.531,1.505,14.623,1.972,7.186,1.825,10.4-5.751,12.966S-.392,2.033.012,2.306,8.951,0,8.951,0Z" transform="translate(86.093 29.82)"/>
              <path id="Path_2440-2" data-name="Path 2440" class="cls-37" d="M81.854,87.663c-18.813,16.41-49.214,12.345-67.9-9.08s-18.587-52.1.226-68.508,49.214-12.345,67.9,9.081S100.667,71.251,81.854,87.663Z" transform="translate(10.678 5.405)"/>
              <path id="Path_2441-2" data-name="Path 2441" class="cls-38" d="M14.552,0C20.917,20.245,32.3,18.735,40.09,17.1c-5.681,5.129-1.516,18.682,11.068,16.766C50.448,43.08,50.447,45.093,55.036,50c-10.656-3.5-13.969-.61-12.51,10.913,1.569,12.412-27.732-2.059-27.732-2.059L.644,39.5,0,12.694Z" transform="translate(41.976 13.221)"/>
              <path id="Path_2442-2" data-name="Path 2442" class="cls-39" d="M49.3.851c8.653,11.2,6.384,14.353-.444,20.308,9.956,7.643,15.614,19.8.888,28.472S16.974,77.16,7.249,66.664s-12.9-41,11.421-57.455C31.25-.282,45.6-1.083,49.3.851Z" transform="translate(8.564 4.194)"/>
              <path id="Path_2443-2" data-name="Path 2443" class="cls-36" d="M0,18.37C14.692-1.605,34.519-4.13,47.837,5.226c9.5-8.281,29.968.145,26.154,16.908,10.564,1.722,11.528,2.132,15.581,6.41s-23.9,31.539-54.163,21.107S0,18.37,0,18.37Z" transform="translate(15.482 51.425)"/>
              <g id="Group_1326-2" data-name="Group 1326" transform="translate(41.676 74.365)">
                <g id="Group_1325-2" data-name="Group 1325">
                  <path id="Path_2444-2" data-name="Path 2444" class="cls-40" d="M0,22.875l.532-.049c.346-.027.861-.06,1.5-.134.636-.054,1.406-.176,2.283-.294L5.7,22.16l1.525-.309c1.055-.245,2.191-.517,3.371-.876,1.186-.333,2.409-.774,3.666-1.229,1.247-.489,2.524-1.015,3.79-1.616s2.537-1.244,3.757-1.976c1.232-.708,2.433-1.471,3.573-2.278.579-.394,1.12-.825,1.675-1.227.53-.432,1.069-.843,1.57-1.281,1.022-.855,1.949-1.749,2.807-2.621.42-.444.836-.873,1.208-1.313.189-.218.382-.426.56-.642l.513-.64c.675-.837,1.24-1.648,1.728-2.382.471-.742.888-1.4,1.183-1.966.315-.559.539-1.014.691-1.326L37.559,0s-.03.183-.088.527a13.364,13.364,0,0,1-.321,1.484,19.409,19.409,0,0,1-.733,2.259,23.146,23.146,0,0,1-1.336,2.795l-.437.755c-.153.254-.322.5-.489.762-.326.523-.714,1.026-1.1,1.555a29.607,29.607,0,0,1-2.725,3.082A31.08,31.08,0,0,1,27.006,16.1a35.682,35.682,0,0,1-3.777,2.512,37.9,37.9,0,0,1-4.051,2.027l-1.03.428c-.344.136-.693.256-1.036.382-.683.261-1.378.465-2.055.679a35.546,35.546,0,0,1-3.984.923,33.749,33.749,0,0,1-3.629.424c-.566.02-1.106.042-1.62.048l-1.458-.032c-.458-.035-.884-.061-1.277-.1s-.756-.1-1.08-.135c-.652-.072-1.144-.2-1.487-.265S0,22.875,0,22.875Z"/>
                </g>
              </g>
              <g id="Group_1328-2" data-name="Group 1328" transform="translate(61.83 71.113)">
                <g id="Group_1327-2" data-name="Group 1327">
                  <path id="Path_2445-2" data-name="Path 2445" class="cls-40" d="M26.006,15.437q-1.128.315-2.26.607c-.375.107-.766.153-1.148.233l-1.156.216c-.387.065-.774.149-1.161.192l-1.163.152c-.775.1-1.552.206-2.331.269l-2.336.211-2.34.151c-.78.051-1.561.069-2.341.1s-1.561.051-2.346.065l-.27.005-.106-.25L5.212,13.077C4.615,11.632,4,10.193,3.419,8.742s-1.172-2.9-1.746-4.355C1.116,2.924.534,1.472,0,0,.7,1.4,1.358,2.82,2.038,4.23Q3.031,6.355,4,8.491c.653,1.422,1.278,2.855,1.917,4.282l1.874,4.3-.375-.245c1.55-.016,3.108-.067,4.661-.123l2.331-.094,2.329-.131c.388-.02.777-.038,1.163-.075l1.162-.092,1.163-.087c.39-.02.769-.085,1.156-.122l1.158-.124c.385-.049.777-.065,1.159-.143C24.466,15.694,25.235,15.563,26.006,15.437Z"/>
                </g>
              </g>
              <g id="Group_1330-2" data-name="Group 1330" transform="translate(46.682 75.731)">
                <g id="Group_1329-2" data-name="Group 1329" transform="translate(0 0)">
                  <path id="Path_2446-2" data-name="Path 2446" class="cls-40" d="M28.384,22.466l-1.129.287c-.383.064-.774.1-1.163.15s-.78.037-1.171.059-.782.006-1.173-.008-.784-.018-1.171-.066l-1.168-.114-1.161-.162c-.388-.05-.77-.132-1.155-.2s-.769-.139-1.15-.224L16.8,21.942c-.758-.184-1.516-.373-2.268-.581-.378-.1-.751-.214-1.126-.32s-.747-.225-1.12-.341c-.745-.238-1.482-.481-2.223-.752l-.14-.051-.073-.137c-.861-1.626-1.7-3.263-2.544-4.9L6.051,12.4,4.806,9.941Q3.573,7.472,2.364,4.991L1.174,2.5Q.576,1.256,0,0,.7,1.19,1.378,2.393l1.36,2.4Q4.083,7.206,5.4,9.634L6.7,12.064,8,14.5c.855,1.629,1.718,3.253,2.557,4.89l-.213-.189c.714.268,1.45.517,2.182.757s1.469.475,2.209.7,1.484.427,2.23.625l1.121.287c.373.1.75.181,1.127.263s.752.175,1.132.238l1.137.218,1.143.172c.381.064.764.092,1.148.135s.767.086,1.153.09.773.047,1.156.025.767-.032,1.154-.062Z"/>
                </g>
              </g>
              <g id="Group_1332-2" data-name="Group 1332" transform="translate(8.701 23.132)">
                <g id="Group_1331-2" data-name="Group 1331" transform="translate(0 0)">
                  <path id="Path_2447-2" data-name="Path 2447" class="cls-40" d="M0,29.774s.014-.185.038-.533.05-.856.166-1.5c.053-.322.1-.689.175-1.075s.169-.8.265-1.253L1.023,24c.151-.491.325-1,.5-1.541A33.8,33.8,0,0,1,2.957,19.1a35.718,35.718,0,0,1,2.009-3.562c.4-.589.787-1.2,1.23-1.78.219-.293.431-.594.659-.886l.7-.868a38.092,38.092,0,0,1,3.087-3.315,35.563,35.563,0,0,1,3.475-2.915,31.068,31.068,0,0,1,3.7-2.378A29.655,29.655,0,0,1,21.54,1.651c.617-.221,1.208-.452,1.8-.617.3-.086.582-.178.869-.254L25.06.573A23.1,23.1,0,0,1,28.119.079,19.08,19.08,0,0,1,30.492.013a13.222,13.222,0,0,1,1.514.11l.53.064-.526.1c-.342.058-.841.144-1.466.288-.627.124-1.375.338-2.22.581-.842.262-1.78.575-2.773.986l-.759.313c-.256.109-.512.237-.774.356-.527.232-1.056.51-1.6.788-1.08.576-2.2,1.215-3.306,1.954C18.55,5.91,18,6.311,17.44,6.7c-.542.42-1.109.817-1.649,1.262-1.1.866-2.167,1.8-3.194,2.785-1.045.965-2.011,2.011-2.955,3.047s-1.8,2.123-2.62,3.182C6.23,18.051,5.463,19.1,4.809,20.145c-.677,1.031-1.258,2.044-1.79,2.987l-.727,1.375-.62,1.265c-.361.808-.695,1.513-.926,2.107C.5,28.469.32,28.954.2,29.277S0,29.774,0,29.774Z"/>
                </g>
              </g>
              <g id="Group_1334-2" data-name="Group 1334" transform="translate(24.545 11.634)">
                <g id="Group_1333-2" data-name="Group 1333">
                  <path id="Path_2448-2" data-name="Path 2448" class="cls-40" d="M7.426,0,6.89,1.041l-.5,1.053c-.169.349-.312.712-.469,1.068s-.3.716-.445,1.077-.3.716-.437,1.081l-.42,1.087c-.268.731-.552,1.453-.809,2.188-.523,1.464-1.042,2.93-1.527,4.409S1.3,15.959.85,17.442L.741,17.03l3.582,3.416C5.506,21.6,6.7,22.735,7.872,23.9s2.349,2.318,3.515,3.486,2.324,2.345,3.459,3.545c-1.262-1.067-2.487-2.171-3.733-3.256s-2.459-2.2-3.677-3.315S5.009,22.12,3.795,21L.184,17.618,0,17.446l.074-.24c.234-.75.477-1.491.723-2.233s.5-1.482.761-2.217c.529-1.471,1.067-2.939,1.662-4.385.291-.725.6-1.445.908-2.163l.484-1.069c.158-.357.333-.708.5-1.061s.345-.7.531-1.047S6,2.336,6.2,2L6.785.979Z"/>
                </g>
              </g>
              <g id="Group_1336-2" data-name="Group 1336" transform="translate(14.42 21.671)">
                <g id="Group_1335-2" data-name="Group 1335" transform="translate(0 0)">
                  <path id="Path_2449-2" data-name="Path 2449" class="cls-40" d="M4.969,0c-.176.329-.346.663-.5,1s-.3.678-.435,1.026-.261.7-.383,1.045-.232.7-.338,1.06C2.884,5.551,2.538,7,2.224,8.445s-.571,2.913-.807,4.379-.44,2.94-.6,4.407l-.157-.36c1.5,1.117,2.99,2.256,4.483,3.387l2.229,1.71L9.6,23.687q2.215,1.728,4.414,3.478L16.2,28.932q1.1.881,2.174,1.782-1.166-.787-2.313-1.6l-2.3-1.614Q11.466,25.874,9.2,24.217L6.932,22.555,4.673,20.884c-1.5-1.123-3-2.237-4.491-3.375L0,17.37l.025-.22c.173-1.5.393-2.974.665-4.448s.578-2.939.95-4.392c.182-.727.385-1.448.605-2.165s.454-1.43.724-2.129q.2-.526.419-1.044c.15-.343.3-.688.464-1.024s.334-.67.518-1S4.76.31,4.969,0Z"/>
                </g>
              </g>
            </g>
            <g id="Group_1338" data-name="Group 1338" transform="translate(181.229 201.616)">
              <path id="Path_2450" data-name="Path 2450" class="cls-14" d="M74.15,96.35,89.63,7.937,53.575,0,0,280.126l19.281-1.981A955.057,955.057,0,0,0,56.455,170.74C63.763,144.7,69.554,119.808,74.15,96.35Z" transform="translate(61.727 14.2)"/>
              <path id="Path_2451" data-name="Path 2451" class="cls-41" d="M84.2.67,62.959,38.929,21.028,181.471Q10.514,238.878,0,296.286l6.4.025s29.174-1.135,55.324-1.984L115.3,14.2C113.758,11.884,107.182,2.585,95.288.438A28.433,28.433,0,0,0,84.2.67Z" transform="translate(0 0)"/>
            </g>
            <g id="Group_1339" data-name="Group 1339" transform="translate(0 165.359)">
              <path id="Path_2452" data-name="Path 2452" class="cls-14" d="M0,265.044q8.5-40.015,16.789-80.6,6.741-33,13.207-65.7S33.059,100.365,46.7,0C62.233,2.832,73.886,7.182,97.193,13.246c17.621,4.584,31.381,7.7,49.131,11.1C196.8,34.019,259.5,36.7,268.041,37.038a1401.579,1401.579,0,0,0-68.266,219.113q-8.773,39.26-14.848,76.416c-52.129-.095-121.153-10.4-174.653-57.764Q4.894,270.041,0,265.044Z"/>
              <path id="Path_2453" data-name="Path 2453" class="cls-42" d="M0,0" transform="translate(580.896 50.052)"/>
            </g>
            <path id="Path_2454" data-name="Path 2454" class="cls-14" d="M0,38.755,62.357,0,74.605,34.791a111.549,111.549,0,0,1-20.139,3.738C41.619,39.692,34.848,38,17.205,38.106,9.778,38.15,3.756,38.492,0,38.755Z" transform="translate(187.633 459.171)"/>
            <path id="Path_2455" data-name="Path 2455" class="cls-43" d="M0,0" transform="translate(42.121 72.877)"/>
            <g id="Group_1346" data-name="Group 1346" transform="translate(82.733 295.381)">
              <g id="Group_1345" data-name="Group 1345" transform="translate(0 0)">
                <g id="Group_1343" data-name="Group 1343">
                  <g id="Group_1342" data-name="Group 1342">
                    <g id="Group_1340" data-name="Group 1340" transform="translate(4.158 47.625)">
                      <path id="Wheel_2_7_" class="cls-4" d="M11.163.284A8.932,8.932,0,1,1,.284,6.707,8.932,8.932,0,0,1,11.163.284Z" transform="translate(0 0)"/>
                      <path id="Wheel_1_7_" class="cls-4" d="M11.159.284A8.942,8.942,0,1,1,.285,6.707,8.934,8.934,0,0,1,11.159.284Z" transform="translate(29.52 7.601)"/>
                    </g>
                    <path id="Cart_7_" class="cls-4" d="M65.8,21.767,54.641,18.894l.3-1.154C56.829,10.4,51.593,2.711,43.25.561s-16.641,2.057-18.531,9.4l-.3,1.153L13.263,8.238a2.566,2.566,0,0,0-3.229,1.633L.067,48.574a2.563,2.563,0,0,0,2.038,2.988L54.64,65.089a2.564,2.564,0,0,0,3.231-1.63l9.967-38.7A2.565,2.565,0,0,0,65.8,21.767Zm-17.073-4.4L30.336,12.636l.3-1.154c1.151-4.47,6.2-7.028,11.277-5.719s8.261,5.984,7.11,10.454Z"/>
                    <g id="Group_1341" data-name="Group 1341" transform="translate(17.437 20.872)">
                      <path id="Path_2456" data-name="Path 2456" class="cls-14" d="M.188,24.1a.872.872,0,0,1-.161-.748L4.377,6.461l.477-1.854L5.86.7a.878.878,0,0,1,.5-.583A1.22,1.22,0,0,1,7.222.044l7.919,2.039a1.214,1.214,0,0,1,.714.482.878.878,0,0,1,.16.753l-1.788,6.942,6.518-5.91A1.886,1.886,0,0,1,22.6,4.006l9.162,2.359a.989.989,0,0,1,.583.394.715.715,0,0,1,.132.612.684.684,0,0,1-.224.354l-10.19,8.666,5.169,13.743a.583.583,0,0,1,.025.421.712.712,0,0,1-.407.471,1,1,0,0,1-.7.061L16.7,28.653a2.15,2.15,0,0,1-1.053-.549,1.8,1.8,0,0,1-.44-.695l-3.091-8.946-1.933,7.506a.872.872,0,0,1-.5.579,1.2,1.2,0,0,1-.859.077L.9,24.586A1.208,1.208,0,0,1,.188,24.1Z" transform="translate(0 0)"/>
                    </g>
                  </g>
                </g>
                <g id="Group_1344" data-name="Group 1344" transform="translate(21.572 27.238)">
                  <path id="Path_2457" data-name="Path 2457" class="cls-4" d="M18.284,5.2C18.781,3.326,0,0,0,0S17.795,7.055,18.284,5.2Z" transform="translate(13.257 14.012)"/>
                  <path id="Path_2458" data-name="Path 2458" class="cls-4" d="M28.906,7.318C29.243,5.4,0,0,0,0S28.577,9.212,28.906,7.318Z" transform="translate(0 5.204)"/>
                  <path id="Path_2459" data-name="Path 2459" class="cls-4" d="M18.283,5.205C18.78,3.33,0,0,0,0S17.8,7.051,18.283,5.205Z" transform="translate(15.663 4.67)"/>
                  <path id="Path_2460" data-name="Path 2460" class="cls-4" d="M18.283,5.2C18.78,3.326,0,0,0,0S17.795,7.054,18.283,5.2Z" transform="translate(12.055 18.681)"/>
                  <path id="Path_2461" data-name="Path 2461" class="cls-4" d="M18.283,5.206C18.78,3.33,0,0,0,0S17.8,7.051,18.283,5.206Z" transform="translate(16.866 0)"/>
                </g>
              </g>
            </g>
          </g>
          <g id="Group_1707" data-name="Group 1707" transform="translate(0 457.701)">
            <g id="Group_1703" data-name="Group 1703" transform="translate(37.397 0) rotate(11)">
              <path id="Path_2905" data-name="Path 2905" class="cls-44" d="M0,35.806,60.391,159.938l7.068-.189,24.168-22.3-2.756-8.036L45.058,0Z" transform="translate(15.551 8.737)"/>
              <path id="Path_2914" data-name="Path 2914" class="cls-3" d="M10.235,8.974,0,13.8,70.955,170.829l6.988-1.678,28.318-22.75L56.4,0Z" transform="translate(0 0)"/>
              <path id="Path_2906" data-name="Path 2906" class="cls-3" d="M0,9.027a72.8,72.8,0,0,0,3.808,12.8c2.491,5.866,8.584,11.1,8.584,11.1A112.925,112.925,0,0,0,58.553,43.076c26.046,0,74.484,1.3,74.484,1.3s8.605-16.13,0-22.294L42.614,0Z" transform="translate(65.062 152.166) rotate(-9)"/>
            </g>
            <path id="Path_2917" data-name="Path 2917" class="cls-3" d="M29.809,18.655c4.338,3.24,11.2-3.6,17.35-4.794S77.109.9,77.109.9s5.755-2.031,7.672,0S68.689,13.694,63.324,18.655s.024,14.821,5.389,18.165,16.068,5.423,16.068,5.423l22.745,4.273S109.9,47.9,109.9,49.563s-2.369,3.609-2.369,3.609L68.713,52.2l38.813,8.871s2.231,1.787,1.684,3.2-3.873,2.447-3.873,2.447-19.262-.623-28.228-1.328-13.785-4.318-13.785-4.318a60.146,60.146,0,0,0,13.044,5.187c5.877,1.446,12.194.961,12.838,2.361,1.347,2.93-7.965,5.048-19.742,3.161S43.5,60.666,43.5,60.666l-19.3-15.2L13.844,33.741,0,18.655,16.51,5.084S25.471,15.416,29.809,18.655Z" transform="matrix(0.809, -0.588, 0.588, 0.809, 164.38, 190.434)"/>
            <path id="Path_2922" data-name="Path 2922" class="cls-45" d="M0,0,14.712,4.588l21.6,6.177" transform="translate(250.738 192.02) rotate(-51)"/>
            <path id="Path_2923" data-name="Path 2923" class="cls-45" d="M0,0S1.014,1.849,4.7,3.61A72.781,72.781,0,0,0,14.746,7.045l13.716,4.172,6.294,1.466" transform="translate(257.189 201.053) rotate(-51)"/>
          </g>
          <path id="Path_2927" data-name="Path 2927" class="cls-46" d="M8772.692,4408.937a8.565,8.565,0,0,0-4.8,3.2c-2.111,2.964-2.822,8.646-2.5,13.551.465,7.171,7.307,16.407,7.307,16.407a53.348,53.348,0,0,0,8.862,8.738,45.61,45.61,0,0,0,5.905,3.855,41.017,41.017,0,0,0,5.841,2.581l-5.706-45.816a18.941,18.941,0,0,0-2.682-1C8782.038,4409.566,8775.875,4408.063,8772.692,4408.937Z" transform="translate(-8661.518 -4258.739)"/>
          <path id="Path_2928" data-name="Path 2928" class="cls-3" d="M8768.606,4408.792a3.813,3.813,0,0,0-2.143,1.428c-.942,1.323-1.261,3.86-1.118,6.05.207,3.2,3.261,7.326,3.261,7.326a23.821,23.821,0,0,0,3.959,3.9,20.246,20.246,0,0,0,2.635,1.722,18.378,18.378,0,0,0,2.609,1.152l-2.549-20.457a8.435,8.435,0,0,0-1.2-.445C8772.78,4409.071,8770.029,4408.4,8768.606,4408.792Z" transform="translate(-8652.74 -4247.037)"/>
          <g id="Group_1718" data-name="Group 1718" transform="matrix(0.999, -0.035, 0.035, 0.999, 9.398, 359.791)">
            <path id="Path_347-2" data-name="Path 347" class="cls-5" d="M26.834,13.069A162.868,162.868,0,0,0,8.48,62.969C4.285,84.75-8.3,128.4,8.48,146.618c9.439,9.5,52.518-10.31,67.2-8.33a170.6,170.6,0,0,0,7.3-36.467C86.417,65.258,81.157,16.6,46.76.792A6.828,6.828,0,0,0,45.187,0a9.915,9.915,0,0,0-4.719.792C33.65,2.376,29.455,7.921,26.834,13.069Zm2.1,56.632C30.5,77.226,32.6,87.127,39.419,91.879c7.866,5.544,14.683-.792,17.3-8.317,2.622-8.713,6.292-58.612-9.439-60.989,15.731,2.376,12.061,51.88,9.439,60.989-2.622,7.525-9.439,13.861-17.3,8.317C32.077,87.127,30.5,77.226,28.931,69.7c-2.622-13.861,0-40.791,19.926-46.335C28.931,28.91,25.785,56.236,28.931,69.7Z" transform="translate(22.697 3.024)"/>
            <path id="Path_348-2" data-name="Path 348" class="cls-4" d="M59.807,127.716c-18.448-16.608-13.976-46.135-9.5-66.434a143.523,143.523,0,0,1,19.566-46.5c2.8-4.8,7.267-9.965,14.535-11.81a23.671,23.671,0,0,1,5.031-.738C83.845.015,40.059-7.129,17.7,25.349c0,0-26.093,52.91-14.912,124.142,0,0,66.182,15.555,91.9,3.006,0,0,7.011-18.473,8.688-22.9C86.6,128.12,69.31,136.943,59.807,127.716Z" transform="translate(0 0)"/>
          </g>
        </g>
      </g>
    </g>
    <g id="Group_1687" data-name="Group 1687" transform="translate(-6412.554 -2866.666) rotate(13)">
      <path id="Path_2891" data-name="Path 2891" class="cls-41" d="M65.771,460.784c7.141-13.832,18.831-34.484,44.558-53.757a167.946,167.946,0,0,1,43.451-23.15c35.442-12.735,67.547-11.01,86.9-8.166a152.922,152.922,0,0,0-85.634,54.448A146.245,146.245,0,0,1,110.927,454.8C91.63,461.53,77.107,460.745,65.771,460.784Z" transform="translate(7259.02 1017.294)"/>
      <path id="Path_2892" data-name="Path 2892" class="cls-14" d="M195.03,409.514a44.157,44.157,0,0,0-10.818-22.5c-2.244-2.466-10.509-10.979-22.358-13.063-12.329-2.168-23.387,5.458-45.437,20.32-13.82,9.314-21.565,16.873-25.063,20.457a143.5,143.5,0,0,0-13.883,16.554,170,170,0,0,1,72.844-23.948A166.594,166.594,0,0,1,195.03,409.514Z" transform="translate(7336.192 1016.785)"/>
      <path id="Path_2893" data-name="Path 2893" class="cls-14" d="M130.885,501.506c-5.529,6.306-9.225,10.165-14.754,16.472l-15.867,18.1c-.163.185-16.183,16.139-16.343,16.322-6.344-4-14.808-13.929-23.146-29.121-10.942-19.935-9.388-38.932-8.548-47.725A95.891,95.891,0,0,1,71.46,427.116c15.483-20.719,34.413-29.079,66.957-43.451,19.785-8.738,33.117-14.488,52.711-16.383,16.288-1.576,35.226-3.47,53.423,7.835,19.477,12.1,26.459,32.055,28.632,39.421a192.565,192.565,0,0,0-61.4,8.3c-11.208,3.446-24.373,7.644-39.177,17.808-9.313,6.393-26,18.169-34.9,39.889C134.655,487.98,131.511,497.021,130.885,501.506Z" transform="translate(7197.314 976.45)"/>
      <path id="Path_2894" data-name="Path 2894" class="cls-4" d="M227.338,409.205c-5.825-11.121-19.375-32.37-43.789-39.783-19.291-5.857-36.129.058-69.807,11.887-28.312,9.945-42.46,14.936-49.15,25.872-12.962,21.192-1.385,56.356,25.189,88.726,1.388-2.809,3.452-6.565,6.153-11.109,5.394-9.074,16.812-28.335,38.447-44.557,23.678-17.754,46.774-23.482,59.058-26.4A177.158,177.158,0,0,1,227.338,409.205Z" transform="translate(7238.373 982.101)"/>
      <g id="Group_1686" data-name="Group 1686" transform="matrix(0.998, -0.07, 0.07, 0.998, 7368.785, 1372.712)">
        <g id="Group_745" data-name="Group 745" transform="translate(0 0)">
          <g id="Group_743" data-name="Group 743">
            <g id="Group_742" data-name="Group 742">
              <g id="Group_740" data-name="Group 740" transform="translate(9.333 20.441)">
                <path id="Wheel_2_8_" class="cls-14" d="M2.659.258a4.084,4.084,0,1,1-2.4,5.253A4.083,4.083,0,0,1,2.659.258Z" transform="translate(0 4.869)"/>
                <path id="Wheel_1_8_" class="cls-14" d="M2.657.259a4.088,4.088,0,1,1-2.4,5.252A4.084,4.084,0,0,1,2.657.259Z" transform="translate(13.058 0)"/>
              </g>
              <path id="Cart_8_" class="cls-14" d="M24.083,2.564,19.149,4.4l-.19-.51C17.748.647,13.773-.868,10.083.508s-5.7,5.124-4.492,8.37l.19.51L.845,11.229a1.173,1.173,0,0,0-.784,1.457l6.384,17.12a1.172,1.172,0,0,0,1.546.587L31.23,21.727a1.173,1.173,0,0,0,.785-1.457L25.631,3.151A1.175,1.175,0,0,0,24.083,2.564ZM16.531,5.38,8.4,8.413l-.19-.51A4.1,4.1,0,0,1,10.941,2.81a4.1,4.1,0,0,1,5.4,2.061Z"/>
              <g id="Group_741" data-name="Group 741" transform="translate(8.07 8.924)">
                <path id="Path_1140" data-name="Path 1140" class="cls-4" d="M4.018,14.941a.4.4,0,0,1-.256-.239L.975,7.23.669,6.41.025,4.683a.4.4,0,0,1,.036-.35.554.554,0,0,1,.3-.253l3.5-1.306a.556.556,0,0,1,.394-.006.4.4,0,0,1,.257.241L5.662,6.079l.9-3.921a.863.863,0,0,1,.607-.615L11.221.032a.45.45,0,0,1,.321,0,.325.325,0,0,1,.21.2.306.306,0,0,1,.008.191L10.205,6.329l5.533,3.8a.266.266,0,0,1,.119.151.322.322,0,0,1-.029.283.455.455,0,0,1-.247.206L11.4,12.331a.984.984,0,0,1-.538.07.829.829,0,0,1-.347-.146l-3.5-2.547,1.238,3.32a.4.4,0,0,1-.037.348.549.549,0,0,1-.3.254l-3.5,1.306A.556.556,0,0,1,4.018,14.941Z" transform="translate(0 0)"/>
              </g>
            </g>
          </g>
          <g id="Group_744" data-name="Group 744" transform="translate(10.291 8.818)">
            <path id="Path_1141" data-name="Path 1141" class="cls-14" d="M8.217.124C7.913-.711,0,2.954,0,2.954S8.518.945,8.217.124Z" transform="translate(7.274 6.198)"/>
            <path id="Path_1142" data-name="Path 1142" class="cls-14" d="M12.754.079C12.378-.729,0,4.895,0,4.895S13.125.875,12.754.079Z" transform="translate(0 4.421)"/>
            <path id="Path_1143" data-name="Path 1143" class="cls-14" d="M8.218.123C7.914-.71,0,2.953,0,2.953S8.518.943,8.218.123Z" transform="translate(5.733 2.066)"/>
            <path id="Path_1144" data-name="Path 1144" class="cls-14" d="M8.217.124C7.913-.711,0,2.953,0,2.953S8.518.945,8.217.124Z" transform="translate(8.045 8.263)"/>
            <path id="Path_1145" data-name="Path 1145" class="cls-14" d="M8.218.123C7.914-.71,0,2.952,0,2.952S8.518.943,8.218.123Z" transform="translate(4.963 0)"/>
          </g>
        </g>
      </g>
    </g>
  </g>
</svg>
