<svg xmlns="http://www.w3.org/2000/svg" xmlns:xlink="http://www.w3.org/1999/xlink"  width="360" height="360" viewBox="0 0 1000 1000">
  <defs>
    <style>
      .cls-1 {
        clip-path: url(#clip-Step_1);
      }

      .cls-2 {
        fill: #89c769;
      }

      .cls-3, .cls-8 {
        fill: #F6AB1B;
      }

      .cls-4 {
        fill: #FB0028;
      }

      .cls-10, .cls-22, .cls-5 {
        fill: #FFFFFF;
      }

      .cls-6 {
        fill: #d7edc8;
      }

      .cls-7 {
        fill: #b58052;
        stroke: #684526;
        stroke-width: 0.4px;
      }

      .cls-10, .cls-7, .cls-9 {
        stroke-miterlimit: 10;
      }

      .cls-8 {
        fill-rule: evenodd;
      }

      .cls-9 {
        fill: none;
        stroke: #3C3C3C;
        stroke-width: 0.893px;
      }

      .cls-10 {
        stroke: #89c769;
        stroke-width: 0.25px;
      }

      .cls-11 {
        fill: #98c673;
      }

      .cls-12 {
        fill: #db575d;
      }

      .cls-13 {
        fill: #543724;
      }

      .cls-14 {
        fill: #e8cd5b;
      }

      .cls-15 {
        fill: #55aa2b;
      }

      .cls-16 {
        fill: #79d647;
      }

      .cls-17 {
        fill: #5bb222;
      }

      .cls-18 {
        fill: #6cc13a;
      }

      .cls-19 {
        fill: #aee090;
      }

      .cls-20 {
        fill: #d17537;
      }

      .cls-21 {
        fill: #f9b458;
      }

      .cls-22 {
        font-size: 12px;
        font-family: Rubik-Regular, Rubik;
      }
    </style>
    <clipPath id="clip-Step_1">
      <rect width="1000" height="1000"/>
    </clipPath>
  </defs>
  <g id="Step_1" class="cls-1">
    <g id="Group_1611" data-name="Group 1611" transform="translate(0 -0.286)">
      <g id="Group_662" data-name="Group 662" transform="translate(622.395 186.373)">
        <path id="Path_998" data-name="Path 998" class="cls-2" d="M-246.25,391.558a.856.856,0,0,1-.251-.637V365.308a.846.846,0,0,1,.251-.656.9.9,0,0,1,.636-.231h1.658a.864.864,0,0,1,.636.251.861.861,0,0,1,.251.636V378.77l7.715-6.365a7.041,7.041,0,0,1,.81-.54,1.735,1.735,0,0,1,.734-.115h1.929a.757.757,0,0,1,.559.212.812.812,0,0,1,.212.6,1.052,1.052,0,0,1-.425.733l-9.027,7.407,9.992,9.566a1.164,1.164,0,0,1,.425.734.828.828,0,0,1-.212.579.725.725,0,0,1-.559.23h-1.89a2.148,2.148,0,0,1-.829-.115,3.187,3.187,0,0,1-.714-.54l-8.718-8.255v8.023a.86.86,0,0,1-.251.637.861.861,0,0,1-.636.251h-1.658A.86.86,0,0,1-246.25,391.558Z" transform="translate(246.502 -364.421)"/>
        <path id="Path_999" data-name="Path 999" class="cls-2" d="M-240.29,385.533a6.506,6.506,0,0,1-2.546-2.1,4.982,4.982,0,0,1-.946-2.952,5.05,5.05,0,0,1,2.084-4.166,12.025,12.025,0,0,1,5.67-2.159l5.787-.811v-1.119q0-3.972-4.591-3.973a5.1,5.1,0,0,0-2.854.714,4.562,4.562,0,0,0-1.582,1.678,1.243,1.243,0,0,1-.328.521.766.766,0,0,1-.483.135h-1.505a.814.814,0,0,1-.6-.251.81.81,0,0,1-.251-.6,3.761,3.761,0,0,1,.83-2.065,6.717,6.717,0,0,1,2.565-2.044,9.419,9.419,0,0,1,4.244-.868q4.319,0,6.192,2.006a7.072,7.072,0,0,1,1.871,5.015v12.537a.86.86,0,0,1-.251.637.857.857,0,0,1-.636.251h-1.7a.8.8,0,0,1-.617-.251.9.9,0,0,1-.232-.637v-1.7a6.51,6.51,0,0,1-2.47,2.122,8.971,8.971,0,0,1-4.165.848A7.938,7.938,0,0,1-240.29,385.533Zm8.429-3.7a6.619,6.619,0,0,0,1.621-4.822v-1.081l-4.514.656a10.53,10.53,0,0,0-4.2,1.312,2.708,2.708,0,0,0-1.427,2.315,2.735,2.735,0,0,0,1.293,2.431,5.456,5.456,0,0,0,3.066.849A5.563,5.563,0,0,0-231.862,381.829Z" transform="translate(261.72 -358.529)"/>
        <path id="Path_1000" data-name="Path 1000" class="cls-2" d="M-240.1,385.341a.855.855,0,0,1-.252-.637V366.458a.926.926,0,0,1,.252-.656.831.831,0,0,1,.636-.27h1.619a.916.916,0,0,1,.676.25.913.913,0,0,1,.25.675v1.7q1.582-2.623,5.364-2.623h1.5a.887.887,0,0,1,.656.231.887.887,0,0,1,.232.656v1.427a.9.9,0,0,1-.232.637.849.849,0,0,1-.656.25h-2.2a4.468,4.468,0,0,0-3.336,1.234,4.578,4.578,0,0,0-1.216,3.356V384.7a.828.828,0,0,1-.269.637.926.926,0,0,1-.656.251h-1.736A.855.855,0,0,1-240.1,385.341Z" transform="translate(280.931 -358.203)"/>
        <path id="Path_1001" data-name="Path 1001" class="cls-2" d="M-234.582,385.058V374.72h-3.047a.833.833,0,0,1-.617-.232.834.834,0,0,1-.232-.617v-1.234a.9.9,0,0,1,.232-.637.8.8,0,0,1,.617-.25h3.047v-6.443a.9.9,0,0,1,.232-.636.8.8,0,0,1,.616-.251h1.7a.861.861,0,0,1,.636.251.867.867,0,0,1,.251.636v6.443h4.784a.864.864,0,0,1,.636.25.862.862,0,0,1,.251.637v1.234a.8.8,0,0,1-.251.617.9.9,0,0,1-.636.232h-4.784v10.068a5.6,5.6,0,0,0,.636,2.97,2.379,2.379,0,0,0,2.179,1h2.352a.8.8,0,0,1,.617.251.9.9,0,0,1,.231.637v1.272a.9.9,0,0,1-.231.637.8.8,0,0,1-.617.251H-228.6Q-234.582,391.81-234.582,385.058Z" transform="translate(291.404 -364.421)"/>
      </g>
      <g id="Group_668" data-name="Group 668" transform="translate(565.103 165.722)">
        <g id="Group_666" data-name="Group 666" transform="translate(0 0)">
          <g id="Group_665" data-name="Group 665">
            <g id="Group_663" data-name="Group 663" transform="translate(5.187 48.298)">
              <path id="Wheel_2_5_" class="cls-3" d="M-246.232,368.612a8.169,8.169,0,0,1,8.167,8.168,8.168,8.168,0,0,1-8.167,8.168,8.169,8.169,0,0,1-8.169-8.168A8.169,8.169,0,0,1-246.232,368.612Z" transform="translate(254.401 -368.612)"/>
              <path id="Wheel_1_5_" class="cls-3" d="M-242.009,368.612a8.169,8.169,0,0,1,8.169,8.168,8.169,8.169,0,0,1-8.169,8.168,8.144,8.144,0,0,1-6.128-2.77,8.153,8.153,0,0,1-1.658-2.927,8.18,8.18,0,0,1-.38-2.471A8.169,8.169,0,0,1-242.009,368.612Z" transform="translate(278.049 -368.612)"/>
            </g>
            <path id="Cart_5_" class="cls-4" d="M-203.094,374.927h-10.534v-1.089c0-6.93-6.39-12.548-14.269-12.548s-14.267,5.617-14.267,12.548v1.089H-252.7a2.347,2.347,0,0,0-2.487,2.182v36.546a2.344,2.344,0,0,0,2.487,2.181h49.606a2.345,2.345,0,0,0,2.489-2.181V377.109A2.347,2.347,0,0,0-203.094,374.927Zm-16.122,0h-17.363v-1.089c0-4.221,3.884-7.636,8.683-7.636s8.68,3.415,8.68,7.636Z" transform="translate(255.187 -361.29)"/>
            <g id="Group_664" data-name="Group 664" transform="translate(14.414 22.264)">
              <path id="Path_1002" data-name="Path 1002" class="cls-5" d="M-252.69,387.574a.8.8,0,0,1-.313-.627V365.56a.8.8,0,0,1,.313-.631,1.115,1.115,0,0,1,.743-.264h7.478a1.112,1.112,0,0,1,.743.264.8.8,0,0,1,.313.631v6.555l4.424-6.721a1.726,1.726,0,0,1,1.567-.729h8.651a.9.9,0,0,1,.605.216.653.653,0,0,1,.256.513.618.618,0,0,1-.118.365l-7.047,10,7.712,10.992a.531.531,0,0,1,.117.367.65.65,0,0,1-.253.511.914.914,0,0,1-.606.214h-8.925a1.964,1.964,0,0,1-1.057-.246,1.656,1.656,0,0,1-.548-.515l-4.778-7.218v7.087a.8.8,0,0,1-.313.627,1.1,1.1,0,0,1-.743.265h-7.478A1.1,1.1,0,0,1-252.69,387.574Z" transform="translate(253.002 -364.665)"/>
            </g>
          </g>
        </g>
        <g id="Group_667" data-name="Group 667" transform="translate(15.364 24.24)">
          <path id="Path_1003" data-name="Path 1003" class="cls-4" d="M-233.4,367.893c.012-1.778-17.378-.439-17.378-.439S-233.407,369.643-233.4,367.893Z" transform="translate(264.522 -353.741)"/>
          <path id="Path_1004" data-name="Path 1004" class="cls-4" d="M-225.591,366.949c-.14-1.778-27.267.111-27.267.111S-225.451,368.7-225.591,366.949Z" transform="translate(252.858 -358.125)"/>
          <path id="Path_1005" data-name="Path 1005" class="cls-4" d="M-233.4,366.555c.012-1.774-17.378-.441-17.378-.441S-233.407,368.3-233.4,366.555Z" transform="translate(264.522 -361.224)"/>
          <path id="Path_1006" data-name="Path 1006" class="cls-4" d="M-233.4,368.561c.013-1.777-17.377-.44-17.377-.44S-233.407,370.31-233.4,368.561Z" transform="translate(264.523 -350)"/>
          <path id="Path_1007" data-name="Path 1007" class="cls-4" d="M-233.4,365.886c.012-1.774-17.378-.441-17.378-.441S-233.407,367.632-233.4,365.886Z" transform="translate(264.522 -364.965)"/>
        </g>
      </g>
      <path id="Path_1008" data-name="Path 1008" class="cls-6" d="M515.185,774.342c0,233.149-189,422.153-422.153,422.153s-422.153-189-422.153-422.153,189-422.153,422.153-422.153,422.153,189,422.153,422.153" transform="translate(406.548 -246.496)"/>
      <path id="Path_1009" data-name="Path 1009" class="cls-7" d="M-313.361,867.92S-223.74,802.882-209.8,706.31c14.605-96.572,4.647-148.471,4.647-148.471s-4.647-41.388,29.874-63.067c35.185-21.68,82.982-68.98,90.285-80.8s31.2-49.928,74.352-13.139,55.1,41.388,63.731,45.329c8.63,3.285,41.159,38.1,0,47.3s-62.4,2.628-84.31-11.825-19.252,10.511-19.252,10.511,3.319,30.876,0,35.475-1.991,216.136-1.991,216.136L169.93,747.7s-50.453,90-105.554,98.542-47.8-4.6-56.428,17.738-37.84,116.937-58.42,144.529c0,0-49.126-9.2-84.31-21.023-23.9-7.884-57.756-24.965-84.974-40.731-47.8-27.592-92.94-78.177-92.94-78.177C-313.361,867.92-312.7,869.891-313.361,867.92Z" transform="translate(494.743 -61.806)"/>
      <path id="Path_1010" data-name="Path 1010" class="cls-8" d="M67.138,955.252A36.878,36.878,0,0,1,30.2,992.19H-239.583a36.878,36.878,0,0,1-36.938-36.939V380.728a36.878,36.878,0,0,1,36.938-36.938H30.2a36.878,36.878,0,0,1,36.938,36.938Z" transform="translate(700.905 -293.503)"/>
      <path id="Path_1011" data-name="Path 1011" class="cls-5" d="M-12.633,891.174H-241.519c-17.15,0-31-16.49-31-36.938V366.78c0-20.448,13.852-14.512,31-14.512H-13.292c17.15,0,31-5.937,31,14.512V854.235C18.369,874.684,4.517,891.174-12.633,891.174Z" transform="translate(723.29 -250.533)"/>
      <path id="Path_1012" data-name="Path 1012" class="cls-2" d="M-52.787,456.768H-254.629a13.231,13.231,0,0,1-13.192-13.192v-9.894a13.231,13.231,0,0,1,13.192-13.192H-52.787a13.231,13.231,0,0,1,13.192,13.192v9.894A13.231,13.231,0,0,1-52.787,456.768Z" transform="translate(749.592 135.721)"/>
      <path id="Path_1013" data-name="Path 1013" class="cls-7" d="M-212.9,455.957c2.638-1.319,60.025-32.321,60.025-32.321s27.7-7.915,38.917,9.235c11.213,16.49,3.958,39.577-17.15,49.471-21.767,9.894-66.621,29.023-66.621,29.023s-29.023,10.554-37.6-11.873C-245.218,475.086-212.9,455.957-212.9,455.957Z" transform="translate(920.915 143.128)"/>
      <line id="Line_9" data-name="Line 9" class="cls-9" x2="228.227" transform="translate(481.771 515.973)"/>
      <line id="Line_10" data-name="Line 10" class="cls-9" x2="228.227" transform="translate(481.771 529.166)"/>
      <path id="Path_1014" data-name="Path 1014" class="cls-7" d="M-219.7,463.067c2.638-1.319,91.027-50.131,91.027-50.131s27.7-7.916,38.917,9.235c11.213,16.49,3.958,39.577-17.15,49.471s-97.623,46.833-97.623,46.833-29.023,10.554-37.6-11.873C-252.018,482.2-219.7,463.067-219.7,463.067Z" transform="translate(882.861 83.249)"/>
      <g id="Group_670" data-name="Group 670" transform="translate(496.945 127.884)">
        <path id="Path_1015" data-name="Path 1015" class="cls-2" d="M-265.39,369.592a.441.441,0,0,1-.13-.329V356.012a.436.436,0,0,1,.13-.339.467.467,0,0,1,.329-.12h.858a.445.445,0,0,1,.329.13.447.447,0,0,1,.13.329v6.964l3.991-3.292a3.627,3.627,0,0,1,.419-.279.887.887,0,0,1,.379-.06h1a.4.4,0,0,1,.29.109.417.417,0,0,1,.109.309.543.543,0,0,1-.22.379l-4.669,3.832,5.169,4.949a.6.6,0,0,1,.22.38.432.432,0,0,1-.109.3.375.375,0,0,1-.29.119h-.978a1.11,1.11,0,0,1-.429-.06,1.65,1.65,0,0,1-.369-.279l-4.51-4.27v4.15a.443.443,0,0,1-.13.329.443.443,0,0,1-.329.13h-.858A.44.44,0,0,1-265.39,369.592Z" transform="translate(265.52 -355.553)"/>
        <path id="Path_1016" data-name="Path 1016" class="cls-2" d="M-262.307,366.475a3.374,3.374,0,0,1-1.317-1.088,2.579,2.579,0,0,1-.489-1.527,2.613,2.613,0,0,1,1.079-2.156,6.218,6.218,0,0,1,2.933-1.117l2.994-.42v-.579q0-2.055-2.374-2.055a2.637,2.637,0,0,0-1.476.369,2.362,2.362,0,0,0-.819.868.653.653,0,0,1-.17.27.4.4,0,0,1-.249.07h-.778a.42.42,0,0,1-.309-.13.419.419,0,0,1-.13-.309,1.946,1.946,0,0,1,.429-1.068,3.483,3.483,0,0,1,1.326-1.057,4.882,4.882,0,0,1,2.2-.449,4.226,4.226,0,0,1,3.2,1.037,3.661,3.661,0,0,1,.967,2.594v6.485a.443.443,0,0,1-.13.329.443.443,0,0,1-.33.13h-.878a.411.411,0,0,1-.319-.13.464.464,0,0,1-.12-.329v-.878a3.367,3.367,0,0,1-1.278,1.1,4.633,4.633,0,0,1-2.155.439A4.109,4.109,0,0,1-262.307,366.475Zm4.36-1.916a3.423,3.423,0,0,0,.838-2.494v-.559l-2.335.34a5.439,5.439,0,0,0-2.175.679,1.4,1.4,0,0,0-.739,1.2,1.415,1.415,0,0,0,.669,1.257,2.822,2.822,0,0,0,1.586.439A2.881,2.881,0,0,0-257.947,364.559Z" transform="translate(273.393 -352.505)"/>
        <path id="Path_1017" data-name="Path 1017" class="cls-2" d="M-262.208,366.375a.441.441,0,0,1-.13-.329v-9.439a.483.483,0,0,1,.13-.34.429.429,0,0,1,.329-.139h.838a.472.472,0,0,1,.35.13.473.473,0,0,1,.129.349v.878a2.978,2.978,0,0,1,2.775-1.357h.778a.458.458,0,0,1,.339.119.46.46,0,0,1,.12.339v.738a.469.469,0,0,1-.12.33.438.438,0,0,1-.339.13h-1.138a2.311,2.311,0,0,0-1.726.639,2.37,2.37,0,0,0-.629,1.736v5.887a.427.427,0,0,1-.139.329.478.478,0,0,1-.339.13h-.9A.445.445,0,0,1-262.208,366.375Z" transform="translate(283.331 -352.336)"/>
        <path id="Path_1018" data-name="Path 1018" class="cls-2" d="M-259.354,366.23v-5.347h-1.576a.432.432,0,0,1-.32-.12.43.43,0,0,1-.119-.319V359.8a.466.466,0,0,1,.119-.329.415.415,0,0,1,.32-.13h1.576v-3.333a.465.465,0,0,1,.12-.329.413.413,0,0,1,.319-.13h.879a.445.445,0,0,1,.329.13.447.447,0,0,1,.13.329v3.333h2.475a.447.447,0,0,1,.329.13.449.449,0,0,1,.13.329v.639a.412.412,0,0,1-.13.319.467.467,0,0,1-.329.12h-2.475v5.208a2.9,2.9,0,0,0,.329,1.537,1.229,1.229,0,0,0,1.128.519h1.216a.413.413,0,0,1,.32.13.467.467,0,0,1,.119.329v.658a.464.464,0,0,1-.119.329.412.412,0,0,1-.32.13h-1.356Q-259.355,369.722-259.354,366.23Z" transform="translate(288.749 -355.553)"/>
      </g>
      <g id="Group_676" data-name="Group 676" transform="translate(467.308 117.202)">
        <g id="Group_674" data-name="Group 674" transform="translate(0 0)">
          <g id="Group_673" data-name="Group 673">
            <g id="Group_671" data-name="Group 671" transform="translate(2.683 24.985)">
              <path id="Wheel_2_3_" class="cls-3" d="M-265.381,357.722a4.226,4.226,0,0,1,4.225,4.226,4.226,4.226,0,0,1-4.225,4.225,4.225,4.225,0,0,1-4.225-4.225A4.225,4.225,0,0,1-265.381,357.722Z" transform="translate(269.607 -357.722)"/>
              <path id="Wheel_1_3_" class="cls-3" d="M-263.2,357.722a4.226,4.226,0,0,1,4.226,4.226,4.226,4.226,0,0,1-4.226,4.225,4.212,4.212,0,0,1-3.17-1.433,4.214,4.214,0,0,1-.858-1.515,4.249,4.249,0,0,1-.2-1.278A4.225,4.225,0,0,1-263.2,357.722Z" transform="translate(281.84 -357.722)"/>
            </g>
            <path id="Cart_3_" class="cls-4" d="M-243.066,360.988h-5.449v-.563c0-3.585-3.306-6.491-7.381-6.491s-7.38,2.906-7.38,6.491v.563h-5.451a1.214,1.214,0,0,0-1.286,1.129v18.906a1.213,1.213,0,0,0,1.286,1.128h25.662a1.214,1.214,0,0,0,1.288-1.128V362.117A1.216,1.216,0,0,0-243.066,360.988Zm-8.34,0h-8.982v-.563a4.245,4.245,0,0,1,4.491-3.951,4.244,4.244,0,0,1,4.49,3.951v.563Z" transform="translate(270.014 -353.934)"/>
            <g id="Group_672" data-name="Group 672" transform="translate(7.455 11.517)">
              <path id="Path_1019" data-name="Path 1019" class="cls-5" d="M-268.722,367.531a.412.412,0,0,1-.162-.324V356.143a.415.415,0,0,1,.162-.327.578.578,0,0,1,.385-.136h3.869a.578.578,0,0,1,.384.136.416.416,0,0,1,.162.327v3.391l2.289-3.477a.894.894,0,0,1,.811-.377h4.476a.466.466,0,0,1,.313.112.337.337,0,0,1,.133.265.324.324,0,0,1-.06.189l-3.646,5.172,3.989,5.686a.274.274,0,0,1,.061.19.338.338,0,0,1-.131.264.474.474,0,0,1-.313.111h-4.617a1.014,1.014,0,0,1-.547-.127.86.86,0,0,1-.284-.266l-2.471-3.734v3.667a.41.41,0,0,1-.162.324.566.566,0,0,1-.384.136h-3.869A.566.566,0,0,1-268.722,367.531Z" transform="translate(268.883 -355.68)"/>
            </g>
          </g>
        </g>
        <g id="Group_675" data-name="Group 675" transform="translate(7.947 12.54)">
          <path id="Path_1020" data-name="Path 1020" class="cls-4" d="M-258.741,357.35c.006-.92-8.99-.227-8.99-.227S-258.746,358.255-258.741,357.35Z" transform="translate(274.843 -350.029)"/>
          <path id="Path_1021" data-name="Path 1021" class="cls-4" d="M-254.7,356.862c-.072-.92-14.106.057-14.106.057S-254.63,357.767-254.7,356.862Z" transform="translate(268.809 -352.297)"/>
          <path id="Path_1022" data-name="Path 1022" class="cls-4" d="M-258.741,356.657c.006-.918-8.99-.228-8.99-.228S-258.746,357.56-258.741,356.657Z" transform="translate(274.843 -353.9)"/>
          <path id="Path_1023" data-name="Path 1023" class="cls-4" d="M-258.741,357.7c.007-.919-8.989-.227-8.989-.227S-258.747,358.6-258.741,357.7Z" transform="translate(274.843 -348.094)"/>
          <path id="Path_1024" data-name="Path 1024" class="cls-4" d="M-258.741,356.311c.006-.917-8.99-.227-8.99-.227S-258.746,357.214-258.741,356.311Z" transform="translate(274.843 -355.835)"/>
        </g>
      </g>
      <path id="Path_1025" data-name="Path 1025" class="cls-10" d="M-153.66,470.827h-77.865a16.4,16.4,0,0,1-16.4-16.4V389.068a16.4,16.4,0,0,1,16.4-16.4h77.865a16.4,16.4,0,0,1,16.4,16.4v65.359A16.4,16.4,0,0,1-153.66,470.827Z" transform="translate(860.928 -131.893)"/>
      <path id="Path_1026" data-name="Path 1026" class="cls-10" d="M-153.575,490.139H-231.44a16.4,16.4,0,0,1-16.4-16.4V408.38a16.4,16.4,0,0,1,16.4-16.4h77.866a16.4,16.4,0,0,1,16.4,16.4v65.359A16.4,16.4,0,0,1-153.575,490.139Z" transform="translate(861.408 -23.818)"/>
      <path id="Path_1027" data-name="Path 1027" class="cls-10" d="M-175.65,470.827h-77.865a16.4,16.4,0,0,1-16.4-16.4V389.068a16.4,16.4,0,0,1,16.4-16.4h77.866a16.4,16.4,0,0,1,16.4,16.4v65.359A16.4,16.4,0,0,1-175.65,470.827Z" transform="translate(737.869 -131.893)"/>
      <g id="Group_678" data-name="Group 678" transform="translate(496.571 257.282)">
        <path id="Path_1028" data-name="Path 1028" class="cls-11" d="M-257.863,385.788s-1.206-5.688,2.758-8.1c0,0-.172-3.791-2.93-2.068,0,0-5,7.066-3.447,10Z" transform="translate(286.819 -375.171)"/>
        <path id="Path_1029" data-name="Path 1029" class="cls-12" d="M-265.577,401.68a26.217,26.217,0,0,1,19.3-25.164c2.413-.689,4.826,1.206,7.411,1.206s5-1.9,7.411-1.206a26.217,26.217,0,0,1,19.3,25.164,26.411,26.411,0,0,1-26.714,26.2C-253.683,427.878-265.577,415.986-265.577,401.68Z" transform="translate(265.577 -368.484)"/>
        <path id="Path_1030" data-name="Path 1030" class="cls-11" d="M-264.4,382.29s6.205-2.758,9.652-2.758a9.452,9.452,0,0,1,8.618,3.1s11.375-4.826,17.063-2.241c0,0-4.481-4.137-8.79-4.137-2.93,0-4.826,1.206-8.273,1.551C-249.579,378.326-253.888,372.983-264.4,382.29Z" transform="translate(272.157 -369.087)"/>
      </g>
      <path id="Path_1031" data-name="Path 1031" class="cls-13" d="M-226.177,397.288l-.094-17.993.433,0a.331.331,0,0,0,.329-.333l-.011-1.983a.331.331,0,0,0-.332-.329l-.433,0-.007-1.246a.381.381,0,0,0-.383-.379l-7.323.038a.382.382,0,0,0-.379.383l.007,1.246-.382,0a.331.331,0,0,0-.329.333l.011,1.984a.331.331,0,0,0,.332.329l.382,0,.093,17.993a11.061,11.061,0,0,0-6.964,10.331l.179,34.427,22.12-.115-.178-34.427A11.064,11.064,0,0,0-226.177,397.288Z" transform="translate(898.413 -118.702)"/>
      <rect id="Rectangle_297" data-name="Rectangle 297" class="cls-14" width="19.631" height="21.611" transform="translate(658.546 292.94) rotate(-0.212)"/>
      <path id="Path_1032" data-name="Path 1032" class="cls-15" d="M-234.252,428.575c-7.474-8.3-2.235-8.838-6.943-13.459-4.308-4.229-4.192-17.883,3.791-17.771,5.793.081,4.873,4.425,8.188.842s6.955-3.119,9.893,1.133c1.607,2.326-11.048,21.072-11.048,21.072Z" transform="translate(882.749 -2.538)"/>
      <path id="Path_1033" data-name="Path 1033" class="cls-15" d="M-233.1,397.022c4.063.074,10.029,4.591,8.394,8.835,2.177,2.48,3.973,3.084,2.266,7.123,1.727,3.373,1.987,4.987-1.517,7.051S-237.543,399-237.314,399.1A39.515,39.515,0,0,0-233.1,397.022Z" transform="translate(920.29 4.393)"/>
      <path id="Path_1034" data-name="Path 1034" class="cls-16" d="M-196.9,435.767c-7.662,10.12-23.217,11.252-34.744,2.526s-14.658-24-7-34.126,23.217-11.251,34.743-2.525S-189.242,425.646-196.9,435.767Z" transform="translate(889.403 -2.608)"/>
      <path id="Path_1035" data-name="Path 1035" class="cls-17" d="M-234.819,396.375c5.269,9.417,10.779,7.485,14.486,5.862-2.3,3.142,1.183,9.457,7.249,7.2.6,4.661.811,5.664,3.6,7.628-5.667-.635-7.017,1.146-5.095,6.731,2.068,6.016-14.019,1.852-14.019,1.852l-9.051-8.166-3.1-13.275Z" transform="translate(901.11 0.773)"/>
      <path id="Path_1036" data-name="Path 1036" class="cls-18" d="M-222.481,395.821c5.469,4.679,4.667,6.482,1.886,10.155,5.749,2.772,9.826,8.235,3.4,14.081s-13.454,17.1-19.383,12.887-10.676-19.073-.276-29.785C-231.581,397.129-224.52,395.241-222.481,395.821Z" transform="translate(888.588 -2.881)"/>
      <path id="Path_1037" data-name="Path 1037" class="cls-15" d="M-242.054,413.384c5.241-11.468,14.848-14.782,22.449-11.506,3.867-5.107,14.933-3.038,14.773,5.7,5.437-.239,5.96-.134,8.421,1.574s-8.625,18.18-24.771,16.127S-242.054,413.384-242.054,413.384Z" transform="translate(893.785 16.184)"/>
      <g id="Group_682" data-name="Group 682" transform="translate(667.617 425.226)">
        <g id="Group_681" data-name="Group 681" transform="translate(0 0)">
          <path id="Path_1038" data-name="Path 1038" class="cls-19" d="M-239.646,415.918l.26-.08c.169-.049.422-.119.731-.222s.681-.233,1.106-.383l.666-.263.727-.312c.5-.232,1.037-.485,1.587-.786s1.119-.635,1.7-.992c.57-.373,1.151-.767,1.719-1.2s1.133-.883,1.665-1.373,1.058-.985,1.542-1.5c.247-.256.472-.527.706-.785.219-.27.445-.531.648-.8.42-.532.789-1.073,1.125-1.6.163-.264.326-.521.465-.779.071-.128.147-.252.212-.378l.189-.372c.249-.487.446-.949.613-1.365s.3-.789.385-1.1.163-.56.206-.731l.072-.262s0,.094.011.271a6.809,6.809,0,0,1-.006.772,9.838,9.838,0,0,1-.13,1.2,11.724,11.724,0,0,1-.375,1.53l-.139.421c-.05.143-.108.284-.164.43-.108.294-.249.585-.387.888a15.074,15.074,0,0,1-1.036,1.817,15.779,15.779,0,0,1-1.357,1.778,18.166,18.166,0,0,1-1.619,1.642,19.208,19.208,0,0,1-1.806,1.429l-.468.32c-.157.1-.319.2-.476.3-.313.2-.638.375-.953.551a18.1,18.1,0,0,1-1.887.873,17.162,17.162,0,0,1-1.763.588c-.28.069-.547.136-.8.192l-.729.135c-.232.03-.447.061-.646.083s-.387.031-.551.045c-.332.032-.59.018-.768.023Z" transform="translate(239.646 -400.631)"/>
        </g>
      </g>
      <g id="Group_684" data-name="Group 684" transform="translate(674.938 425.413)">
        <g id="Group_683" data-name="Group 683" transform="translate(0 0)">
          <path id="Path_1039" data-name="Path 1039" class="cls-19" d="M-223.988,405.648q-.528.274-1.062.537c-.176.091-.366.156-.547.235l-.553.228c-.185.072-.37.154-.558.216l-.563.2c-.376.129-.751.263-1.132.376l-1.141.347-1.149.318c-.383.106-.77.2-1.155.295s-.772.187-1.162.276l-.134.03-.079-.114-1.362-1.958c-.447-.658-.9-1.31-1.342-1.972s-.884-1.322-1.321-1.987-.869-1.333-1.288-2.01c.5.624.968,1.263,1.453,1.894s.951,1.275,1.419,1.918.933,1.288,1.4,1.933l1.379,1.946-.212-.083c.77-.169,1.54-.356,2.307-.546l1.151-.288,1.146-.307c.191-.05.383-.1.571-.158l.569-.166.571-.164c.192-.051.374-.122.563-.181l.563-.182c.187-.064.38-.113.562-.191Q-224.545,405.862-223.988,405.648Z" transform="translate(238.536 -400.66)"/>
        </g>
      </g>
      <g id="Group_686" data-name="Group 686" transform="translate(667.876 429.286)">
        <g id="Group_685" data-name="Group 685" transform="translate(0 0)">
          <path id="Path_1040" data-name="Path 1040" class="cls-19" d="M-223.146,409.485l-.532.26c-.184.072-.375.13-.563.2s-.385.1-.577.151-.389.084-.584.118-.392.073-.59.089l-.593.064-.594.04c-.2.015-.4.014-.6.021s-.4.01-.6.008l-.6,0c-.4-.012-.794-.028-1.189-.054-.2-.01-.4-.028-.594-.042s-.4-.034-.593-.053c-.4-.042-.788-.086-1.185-.144l-.075-.011-.051-.061c-.6-.72-1.184-1.449-1.774-2.174l-.879-1.094-.875-1.1q-.871-1.1-1.73-2.21l-.851-1.117q-.426-.557-.844-1.123.473.52.934,1.049l.926,1.055q.92,1.061,1.825,2.132l.9,1.075.9,1.078c.594.722,1.193,1.441,1.78,2.169l-.125-.072c.383.059.775.106,1.165.15s.78.084,1.172.117.783.059,1.175.08l.588.026c.2.011.392.013.588.015s.392.009.588,0l.588-.009.587-.033c.2-.007.39-.034.585-.052s.391-.037.583-.075.39-.057.578-.107.379-.1.568-.151Z" transform="translate(239.607 -401.247)"/>
        </g>
      </g>
      <g id="Group_688" data-name="Group 688" transform="translate(646.467 403.76)">
        <g id="Group_687" data-name="Group 687" transform="translate(0 0)">
          <path id="Path_1041" data-name="Path 1041" class="cls-19" d="M-242.717,415.483l-.036-.27c-.017-.176-.064-.432-.073-.765-.007-.165-.023-.352-.024-.553s0-.418,0-.651.028-.48.043-.741.057-.533.091-.819a17.2,17.2,0,0,1,.363-1.823,18.026,18.026,0,0,1,.631-1.981c.136-.334.267-.678.427-1.014.078-.168.153-.34.236-.509l.259-.5a19.391,19.391,0,0,1,1.193-1.97,18.135,18.135,0,0,1,1.427-1.812,15.846,15.846,0,0,1,1.594-1.568,15.035,15.035,0,0,1,1.673-1.255c.284-.174.555-.35.833-.495.138-.073.271-.149.406-.216l.4-.191a11.821,11.821,0,0,1,1.471-.563,9.754,9.754,0,0,1,1.175-.279,6.67,6.67,0,0,1,.765-.1l.27-.023-.251.1c-.164.065-.4.159-.7.3s-.649.31-1.045.519-.826.471-1.278.779l-.346.234c-.116.081-.23.171-.348.258-.239.17-.473.364-.715.558-.478.4-.968.832-1.443,1.316-.243.235-.473.492-.714.743s-.468.522-.69.8c-.456.545-.892,1.122-1.3,1.718s-.792,1.21-1.154,1.823-.675,1.243-.974,1.856c-.282.619-.555,1.22-.772,1.808s-.414,1.148-.581,1.673q-.115.4-.219.76t-.177.695c-.1.44-.189.825-.242,1.145s-.1.579-.129.753S-242.717,415.483-242.717,415.483Z" transform="translate(242.852 -397.377)"/>
        </g>
      </g>
      <g id="Group_690" data-name="Group 690" transform="translate(652.017 398.905)">
        <g id="Group_689" data-name="Group 689" transform="translate(0 0)">
          <path id="Path_1042" data-name="Path 1042" class="cls-19" d="M-240.124,396.641l-.159.574-.14.577c-.048.191-.082.387-.123.58s-.076.388-.11.582-.075.388-.106.584l-.1.585c-.057.392-.124.781-.175,1.173-.108.783-.215,1.567-.3,2.354s-.182,1.573-.252,2.357l-.1-.194,2.137,1.328c.709.45,1.421.892,2.125,1.349s1.41.91,2.111,1.371,1.4.926,2.09,1.406c-.739-.4-1.464-.823-2.2-1.234s-1.452-.841-2.174-1.269-1.441-.86-2.161-1.29l-2.148-1.311-.109-.067.013-.127c.039-.4.082-.792.128-1.187s.093-.789.148-1.183c.111-.787.226-1.574.373-2.355.069-.391.147-.782.228-1.171l.13-.582c.042-.194.092-.387.14-.58s.1-.385.156-.576.1-.383.169-.572l.186-.567Z" transform="translate(242.011 -396.641)"/>
        </g>
      </g>
      <g id="Group_692" data-name="Group 692" transform="translate(647.857 405.207)">
        <g id="Group_691" data-name="Group 691">
          <path id="Path_1043" data-name="Path 1043" class="cls-19" d="M-241.817,397.6c-.053.182-.1.365-.144.55s-.081.369-.11.555-.058.373-.082.56-.042.375-.058.563c-.068.751-.09,1.506-.1,2.26s.018,1.509.053,2.263.086,1.509.16,2.255l-.115-.163c.864.4,1.722.813,2.583,1.221l1.287.62,1.285.625q1.282.63,2.558,1.274l1.271.653q.636.325,1.267.662-.662-.271-1.317-.556l-1.313-.565q-1.309-.573-2.611-1.162l-1.3-.593-1.3-.6c-.863-.4-1.728-.8-2.586-1.215l-.1-.05-.011-.113c-.069-.763-.113-1.521-.13-2.283s-.018-1.523.017-2.284c.015-.381.042-.761.076-1.141s.078-.758.139-1.135q.045-.282.1-.563c.039-.187.077-.373.125-.558s.1-.369.154-.55S-241.888,397.773-241.817,397.6Z" transform="translate(242.642 -397.596)"/>
        </g>
      </g>
      <path id="Path_1044" data-name="Path 1044" class="cls-10" d="M-175.748,490.037h-77.865a16.4,16.4,0,0,1-16.4-16.4V408.278a16.4,16.4,0,0,1,16.4-16.4h77.866a16.4,16.4,0,0,1,16.4,16.4v65.359A16.4,16.4,0,0,1-175.748,490.037Z" transform="translate(737.321 -24.39)"/>
      <g id="Group_694" data-name="Group 694" transform="translate(511.774 379.495)">
        <path id="Path_1045" data-name="Path 1045" class="cls-20" d="M-260.538,447.557c-1.989-15.18-6.469-54.872,3.553-53.838,3.7.381,8.751,5.107,8.891,13.7a15.322,15.322,0,0,1,2.292,9.591c1.545,3.751,2.384,6.732,1.834,11.167a14.281,14.281,0,0,1,1.14,9.9,17.991,17.991,0,0,1,.785,10.863c.03.644.054,1.263.075,1.853C-241.4,467.542-256.264,480.159-260.538,447.557Z" transform="translate(263.272 -393.698)"/>
        <path id="Path_1046" data-name="Path 1046" class="cls-21" d="M-262.327,396.481s.122-.083.344-.2c.112-.058.243-.129.4-.2s.343-.139.545-.212.425-.131.661-.193.493-.109.76-.146a7.518,7.518,0,0,1,.833-.072,8.136,8.136,0,0,1,.873.019,7.074,7.074,0,0,1,.876.138l.214.049c.071.018.14.041.21.062.138.046.274.084.4.138s.257.11.38.166.236.127.347.191c.055.033.11.063.162.1s.1.07.149.107c.1.073.191.137.273.21s.158.146.229.216l.1.1.088.1c.055.069.107.132.151.193l.064.086c.019.029.035.058.052.085a3.178,3.178,0,0,1,.183.344s-.148-.045-.376-.134l-.089-.035-.1-.033c-.071-.022-.143-.049-.22-.075l-.118-.043-.129-.037c-.088-.025-.176-.055-.268-.083s-.192-.051-.292-.077c-.051-.012-.1-.028-.15-.042s-.1-.022-.158-.034c-.107-.021-.212-.05-.323-.071s-.225-.04-.338-.063-.233-.034-.35-.054-.238-.035-.36-.049c-.241-.037-.493-.052-.742-.082-.254-.014-.5-.044-.759-.053s-.5-.029-.75-.047-.487-.025-.716-.046-.451-.029-.656-.049-.392-.034-.563-.055-.323-.036-.449-.057C-262.18,396.518-262.327,396.481-262.327,396.481Z" transform="translate(268.564 -383.852)"/>
        <path id="Path_1047" data-name="Path 1047" class="cls-21" d="M-261.992,397.923s.123-.083.344-.2c.111-.058.242-.129.4-.2s.343-.139.546-.212.424-.131.662-.193.493-.109.76-.145a7.332,7.332,0,0,1,.833-.072,8.156,8.156,0,0,1,.874.019,7.108,7.108,0,0,1,.876.138l.214.049c.071.018.14.041.21.063.138.046.274.084.4.139s.257.109.38.166.236.127.347.191c.055.033.109.063.162.1s.1.07.149.106c.1.073.19.137.273.21s.158.146.229.216l.1.1.088.1c.055.069.107.132.151.193l.064.086c.018.029.035.058.052.084a3.175,3.175,0,0,1,.183.344s-.148-.044-.376-.134l-.089-.035-.1-.033c-.071-.022-.143-.049-.22-.075l-.117-.043-.129-.037c-.087-.025-.175-.055-.268-.083s-.192-.051-.291-.077c-.05-.012-.1-.028-.15-.041s-.1-.022-.158-.034c-.107-.02-.212-.05-.322-.071s-.225-.04-.338-.063-.233-.034-.35-.054-.238-.035-.36-.049c-.241-.037-.493-.052-.742-.082-.253-.014-.5-.044-.759-.054s-.5-.029-.75-.047-.487-.025-.717-.046-.451-.029-.656-.049-.393-.034-.563-.055-.324-.036-.448-.057C-261.846,397.96-261.992,397.923-261.992,397.923Z" transform="translate(270.435 -375.781)"/>
        <path id="Path_1048" data-name="Path 1048" class="cls-21" d="M-261.722,399.578s.122-.083.344-.2c.112-.058.242-.129.4-.2s.343-.139.546-.212.425-.131.662-.193.493-.109.76-.145a7.431,7.431,0,0,1,.833-.072,8.046,8.046,0,0,1,.874.019,7.045,7.045,0,0,1,.876.138l.214.049c.071.017.14.042.21.063.138.046.274.084.4.138s.257.109.38.166.236.127.347.191c.055.033.11.064.162.1s.1.07.149.107c.1.073.191.137.273.21s.159.146.229.217l.1.1c.03.036.06.071.088.1.055.069.107.131.151.193l.064.086c.019.029.035.058.052.085a3.219,3.219,0,0,1,.183.344s-.148-.044-.375-.134c-.028-.011-.059-.022-.089-.035l-.1-.033c-.071-.022-.143-.049-.22-.075l-.118-.043-.129-.037c-.088-.025-.176-.055-.268-.083s-.192-.051-.292-.077c-.05-.013-.1-.028-.149-.042s-.1-.023-.158-.034c-.107-.021-.212-.05-.323-.071s-.225-.04-.338-.062-.234-.034-.35-.054-.238-.035-.36-.049c-.241-.037-.493-.052-.742-.082-.254-.014-.5-.044-.759-.053s-.5-.029-.75-.047-.486-.024-.716-.046-.451-.029-.656-.049-.392-.034-.563-.055-.323-.036-.449-.056C-261.576,399.615-261.722,399.578-261.722,399.578Z" transform="translate(271.949 -366.517)"/>
        <path id="Path_1049" data-name="Path 1049" class="cls-21" d="M-261.538,401.139s.122-.083.344-.2c.112-.058.243-.129.4-.2s.343-.139.546-.212.424-.131.662-.193.493-.109.76-.146a7.536,7.536,0,0,1,.833-.072,8.142,8.142,0,0,1,.874.019,7.078,7.078,0,0,1,.876.138l.214.049c.071.017.14.042.209.063.138.046.274.084.405.138s.257.11.379.166.236.127.347.191c.055.033.11.063.162.1s.1.07.149.107c.095.073.191.137.273.21s.159.146.229.216l.1.1c.031.036.06.071.088.1.055.069.107.132.151.193.022.03.044.059.064.086s.035.058.052.085a3.219,3.219,0,0,1,.183.344s-.148-.044-.375-.133l-.089-.035-.1-.033c-.071-.022-.143-.049-.22-.076l-.118-.043-.129-.037c-.088-.025-.176-.055-.268-.083s-.192-.051-.291-.077c-.05-.012-.1-.028-.15-.042s-.105-.022-.158-.034c-.107-.021-.212-.05-.322-.071s-.225-.04-.338-.063-.233-.034-.35-.054-.238-.035-.36-.049c-.241-.036-.493-.052-.742-.082-.254-.014-.5-.044-.759-.054s-.5-.029-.75-.047-.487-.025-.717-.046-.45-.029-.656-.049-.393-.034-.563-.055-.323-.036-.449-.057C-261.392,401.176-261.538,401.139-261.538,401.139Z" transform="translate(272.975 -357.785)"/>
        <path id="Path_1050" data-name="Path 1050" class="cls-21" d="M-261.395,402.868s.123-.083.344-.2c.112-.058.243-.129.4-.2s.343-.139.545-.212.424-.131.662-.193.493-.109.76-.145a7.276,7.276,0,0,1,.833-.072,8.108,8.108,0,0,1,.874.019,7.086,7.086,0,0,1,.876.138l.214.049c.071.017.14.042.209.063.138.046.274.084.4.138s.257.109.38.166.236.127.347.191c.055.033.109.064.162.1s.1.07.15.106c.1.073.19.137.273.21s.158.146.229.216l.1.1c.031.036.061.071.088.1.055.069.107.132.151.193l.064.086c.018.029.035.058.052.085a3.222,3.222,0,0,1,.183.344s-.148-.044-.375-.134c-.028-.01-.059-.022-.089-.035l-.1-.033c-.071-.022-.143-.049-.22-.075-.039-.013-.078-.028-.117-.043l-.129-.037c-.088-.025-.176-.055-.268-.083s-.192-.051-.292-.076c-.05-.012-.1-.028-.15-.042s-.1-.022-.158-.034c-.107-.021-.212-.05-.323-.071s-.224-.04-.338-.063-.234-.034-.35-.054-.238-.035-.36-.049c-.241-.036-.493-.052-.742-.082-.254-.014-.5-.044-.759-.053s-.5-.029-.75-.047-.487-.024-.716-.046-.451-.029-.656-.049-.392-.034-.563-.055-.323-.036-.449-.056C-261.248,402.9-261.395,402.868-261.395,402.868Z" transform="translate(273.779 -348.111)"/>
      </g>
      <path id="Path_1051" data-name="Path 1051" class="cls-7" d="M-294.324,585.62s-13.852-69.919,21.108-91.686,82.452-69.26,89.708-81.133,31-50.131,73.877-13.192,54.748,41.556,63.323,45.513c8.575,3.3,40.9,38.258,0,47.492s-63.323,3.958-83.771-11.873c-9.235-7.256-19.129,10.554-19.129,10.554s-52.109,88.388-56.067,93.665" transform="translate(586.126 -68.987)"/>
      <path id="Path_1052" data-name="Path 1052" class="cls-7" d="M-218.227,451.867c2.638-1.319,91.027-50.131,91.027-50.131s27.7-7.916,38.917,9.234c11.213,16.49,3.958,39.577-17.15,49.471-21.767,9.894-97.623,46.833-97.623,46.833s-27.044,14.512-37.6-11.873C-251.207,471-218.227,451.867-218.227,451.867Z" transform="translate(889.966 20.572)"/>
      <path id="Path_1053" data-name="Path 1053" class="cls-7" d="M-186.069,402.482s40.9-40.9,63.323-1.319-79.813,88.388-79.813,88.388S-221.029,500.765-232.9,479C-248.073,453.273-186.069,402.482-186.069,402.482Z" transform="translate(931.626 -68.987)"/>
      <rect id="Rectangle_298" data-name="Rectangle 298" class="cls-3" width="260.277" height="27.39" transform="translate(463.39 170.634)"/>
      <text id="Shopping_List" data-name="Shopping List" class="cls-22" transform="translate(473.846 188.792)"><tspan x="0" y="0">Shopping List</tspan></text>
    </g>
  </g>
</svg>
