<svg xmlns="http://www.w3.org/2000/svg" xmlns:xlink="http://www.w3.org/1999/xlink" width="2813" height="1442" viewBox="0 0 2813 1442">
  <defs>
    <style>
      .cls-1, .cls-3, .cls-5 {
        fill: #fff;
      }

      .cls-1 {
        stroke: #707070;
      }

      .cls-2 {
        clip-path: url(#clip-Step3);
      }

      .cls-13, .cls-4 {
        fill: #FB0028;
      }

      .cls-4 {
        opacity: 0.9;
      }

      .cls-5 {
        font-size: 121px;
        font-family: Maven Pro;
        font-weight: 700;
      }

      .cls-6 {
        fill: #2c2c2c;
        font-size: 83px;
        font-family: MavenPro-Regular, Maven Pro;
      }

      .cls-7 {
        font-size: 53px;
      }

      .cls-8 {
        fill: rgba(255,202,8,0);
      }

      .cls-9 {
        fill: url(#linear-gradient);
      }

      .cls-10 {
        fill: #f6d0af;
      }

      .cls-11 {
        fill: #ead7b5;
      }

      .cls-12, .cls-22 {
        fill: #1199F8;
      }

      .cls-12, .cls-15 {
        fill-rule: evenodd;
      }

      .cls-14, .cls-15 {
        fill: #1199f8;
      }

      .cls-16 {
        fill: rgba(255,255,255,0.25);
      }

      .cls-17 {
        fill: #ba8454;
      }

      .cls-18 {
        fill: #d6a173;
      }

      .cls-19 {
        clip-path: url(#clip-path);
      }

      .cls-20 {
        fill: #b58052;
      }

      .cls-21 {
        fill: #575b62;
      }

      .cls-23 {
        fill: #231f20;
      }

      .cls-24 {
        fill: #666;
      }

      .cls-25 {
        fill: #F8DBC1;
      }

      .cls-26 {
        fill: none;
        stroke: #FFFFFF;
        stroke-width: 1.5px;
        opacity: 0.98;
      }

      .cls-27, .cls-28 {
        stroke: none;
      }

      .cls-28 {
        fill: rgba(255,202,8,0.1);
      }

      .cls-29 {
        filter: url(#Rectangle_472);
      }
      .cls-00{
      fill: #EBF6FE;
      }
    </style>
    <filter id="Rectangle_472" x="-30" y="-27" width="2873" height="1502" filterUnits="userSpaceOnUse">
      <feOffset dy="3" input="SourceAlpha"/>
      <feGaussianBlur stdDeviation="10" result="blur"/>
      <feFlood flood-opacity="0.161"/>
      <feComposite operator="in" in2="blur"/>
      <feComposite in="SourceGraphic"/>
    </filter>
    <linearGradient id="linear-gradient" x1="3.487" y1="1.332" x2="-0.315" y2="0.425" gradientUnits="objectBoundingBox">
      <stop offset="0" stop-color="#cf9174"/>
      <stop offset="1" stop-color="#91624c"/>
    </linearGradient>
    <clipPath id="clip-path">
      <rect id="Rectangle_504" data-name="Rectangle 504" class="cls-1" width="157.788" height="144.878" transform="translate(0 0)"/>
    </clipPath>
    <clipPath id="clip-Step3">
      <rect width="2813" height="1442"/>
    </clipPath>
  </defs>
  <g id="Step3" class="cls-2">
    <rect class="cls-00" width="2813" height="1442"/>
    <g class="cls-29" transform="matrix(1, 0, 0, 1, 0, 0)">
      <rect id="Rectangle_472-2" data-name="Rectangle 472" class="cls-00" width="2813" height="1442" transform="translate(0)"/>
    </g>
    <g id="Group_2402" data-name="Group 2402" transform="translate(-1)">
      <g id="Group_2063" data-name="Group 2063" transform="translate(1594.745 390)">
        <g id="Group_1984" data-name="Group 1984" transform="translate(0 0)">
          <rect id="Rectangle_372" data-name="Rectangle 372" class="cls-00" width="1008.407" height="199.386" transform="translate(0.255)"/>
          <text id="We_deliver" data-name="We deliver" class="cls-5" transform="translate(138.255 145.689)"><tspan x="0" y="0">WE DELIVER</tspan></text>
        </g>
        <text id="FOR_Delivery:_Sit_back_and_wait_for_your_delivery_" data-name="FOR Delivery:
Sit back and wait for your delivery!" class="cls-6" transform="translate(0 356.846)"><tspan x="0" y="0">FOR DELIVERY:</tspan><tspan class="cls-7"><tspan x="0" y="83">Sit back and wait for your delivery!</tspan></tspan></text>
        <text id="For_Takeaway:_Collect_from_the_store_at_selected_time" data-name="For Takeaway:
Collect from the store at selected time" class="cls-6" transform="translate(0 567.708)"><tspan x="0" y="0">FOR TAKEAWAY:</tspan><tspan class="cls-7"><tspan x="0" y="83">Collect from the store at selected time</tspan></tspan></text>
      </g>
      <g id="Group_2401" data-name="Group 2401">
        <g id="Group_2320" data-name="Group 2320" transform="translate(459.77 260.832)">
          <g id="Path_4327" data-name="Path 4327" class="cls-8" transform="translate(58.146 510.177)">
            <path class="cls-27" d="M9.431,0H245.21a9.431,9.431,0,0,1,9.431,9.431v96.2a9.431,9.431,0,0,1-9.431,9.431H9.431A9.431,9.431,0,0,1,0,105.629V9.431A9.431,9.431,0,0,1,9.431,0Z"/>
            <path class="cls-28" d="M 9.431167602539062 0.9999923706054688 C 4.782211303710938 0.9999923706054688 1 4.782188415527344 1 9.431159973144531 L 1 105.6290588378906 C 1 110.2780227661133 4.782211303710938 114.0602569580078 9.431167602539062 114.0602569580078 L 245.2103424072266 114.0602569580078 C 249.8592681884766 114.0602569580078 253.6414794921875 110.2780227661133 253.6414794921875 105.6290588378906 L 253.6414794921875 9.431159973144531 C 253.6414794921875 4.782188415527344 249.8592681884766 0.9999923706054688 245.2103424072266 0.9999923706054688 L 9.431167602539062 0.9999923706054688 M 9.431167602539062 -7.62939453125e-06 L 245.2103424072266 -7.62939453125e-06 C 250.4189758300781 -7.62939453125e-06 254.6414794921875 4.222488403320312 254.6414794921875 9.431159973144531 L 254.6414794921875 105.6290588378906 C 254.6414794921875 110.837760925293 250.4189758300781 115.0602569580078 245.2103424072266 115.0602569580078 L 9.431167602539062 115.0602569580078 C 4.22247314453125 115.0602569580078 0 110.837760925293 0 105.6290588378906 L 0 9.431159973144531 C 0 4.222488403320312 4.22247314453125 -7.62939453125e-06 9.431167602539062 -7.62939453125e-06 Z"/>
          </g>
          <path id="Path_4328" data-name="Path 4328" class="cls-9" d="M955.739,760.706s19.06,72.95,12.049,97.487-12.049,61.34-12.049,61.34S956.122,791.157,955.739,760.706Z" transform="translate(-613.805 -355.101)"/>
          <g id="Group_2317" data-name="Group 2317" transform="translate(117.318 268.622)">
            <path id="Path_4072" data-name="Path 4072" class="cls-10" d="M-5487.53,2197.271s-28.195-59.612-39.544-3.972,18.093,143.825,18.093,143.825l-18.093,87.442s-38.025,60.893-69.83,118.369-26.8,98.672-26.8,98.672l-225.887-22.126s33.745,68.786,72.514,100.85,35.585,19.658,75.353,50.052,60.834,157.987,60.834,157.987,48.188,11.914,96.688,0c20.5-5.035,37.166-30.377,56.67-36.757,65.231-21.337,110.495-53.368,110.495-53.368s-66.442-98.586-75.675-150.988,29.217-76.673,29.217-76.673,48.014-70.911,32.105-137.4c-16.422-107.321-50.275-225.283-50.275-225.283Z" transform="translate(5849.589 -2145.695)"/>
            <path id="Path_4077" data-name="Path 4077" class="cls-11" d="M-5719.263,2150.417l-30.715,21.371s11.676,51.317,22.748,68.422,21.54,0,21.54,0Z" transform="translate(6116.077 -2150.417)"/>
          </g>
          <g id="Group_2318" data-name="Group 2318" transform="translate(94.471)">
            <path id="Path_1010" data-name="Path 1010" class="cls-12" d="M-276.521,1065.166a43.507,43.507,0,0,0,43.578,43.578H85.335a43.507,43.507,0,0,0,43.578-43.578v-677.8a43.507,43.507,0,0,0-43.578-43.578H-232.943a43.507,43.507,0,0,0-43.578,43.578Z" transform="translate(276.521 -343.789)"/>
            <path id="Path_1011" data-name="Path 1011" class="cls-3" d="M-236.7,988.189H33.332c20.233,0,36.575-19.454,36.575-43.578V369.533c0-24.124-16.342-17.12-36.575-17.12H-235.92c-20.233,0-36.574-7-36.574,17.12V944.611C-273.272,968.735-256.931,988.189-236.7,988.189Z" transform="translate(304.223 -291.712)"/>
            <g id="Group_2261" data-name="Group 2261" transform="translate(51.162 81.969)">
              <g id="Group_1952" data-name="Group 1952" transform="translate(0 0)">
                <g id="Group_1924" data-name="Group 1924">
                  <g id="Group_1892" data-name="Group 1892">
                    <path id="Subtraction_1" data-name="Subtraction 1" class="cls-13" d="M8.979,8.089a9.876,9.876,0,0,1-3.436-.61A9.071,9.071,0,0,1,2.63,5.741a7.978,7.978,0,0,1-1.948-2.6A7.235,7.235,0,0,1,0,.065C0,.047,0,.03,0,.012H17.981V0c0,.018,0,.037,0,.055v.01a7.238,7.238,0,0,1-.707,3.123,8.015,8.015,0,0,1-1.927,2.551,9.092,9.092,0,0,1-2.858,1.72,9.875,9.875,0,0,1-3.5.631Z" transform="translate(2.696 48.033)"/>
                    <path id="Subtraction_2" data-name="Subtraction 2" class="cls-13" d="M8.979,12.7a9.876,9.876,0,0,1-3.436-.61,9.073,9.073,0,0,1-2.913-1.738A7.981,7.981,0,0,1,.681,7.75,7.236,7.236,0,0,1,0,4.678c0-.018,0-.036,0-.053H16.3V0a7.4,7.4,0,0,1,1.685,4.678A7.238,7.238,0,0,1,17.275,7.8a8.015,8.015,0,0,1-1.927,2.551,9.092,9.092,0,0,1-2.858,1.72,9.874,9.874,0,0,1-3.5.631Z" transform="translate(35.163 43.42)"/>
                    <path id="Cart_4_" class="cls-13" d="M81.851,83.11c-2.037-.072-7.7-.123-7.7-.123-1.8-5.236-8.559-7.611-15.2-7.529-6.333.078-12.394,2.8-13.853,7.529H38.091a8.662,8.662,0,0,0-4.642,2.081,5.846,5.846,0,0,0-1.71,3.443l.007,31.6a4.427,4.427,0,0,0,1.831,3.526,9.261,9.261,0,0,0,4.585,1.872l43.541.058a6.634,6.634,0,0,0,4.272-1.861,6.15,6.15,0,0,0,1.855-3.954l.032-30.939a5.349,5.349,0,0,0-1.353-3.336A6.2,6.2,0,0,0,81.851,83.11Zm-8.992-.123H46.489c1.514-3.541,6.113-6.5,12.9-6.511,5.839.053,11.5,2.154,13.467,6.511Z" transform="translate(-31.739 -75.457)"/>
                  </g>
                </g>
                <g id="XMLID_1_" transform="translate(12.783 15.539)">
                  <path id="XMLID_2_" class="cls-14" d="M169.327,184.145v-4.727l6.45,8.578h12.74l-3.289-5.093-10.987-1.529,9.248-1.281-3-4.177-11.27-1.463,10.687-1.4c.6-.853,1.608-2.267,1.608-2.267l1.472-2-8.464-1.13,10.3-1.4,3.7-5.056H175.364l-6.037,8.558V161.2H157.951s.052,8.812,0,18.445L157.9,188h11.427Z" transform="translate(-157.9 -161.197)"/>
                </g>
              </g>
            </g>
          </g>
          <g id="Group_2319" data-name="Group 2319" transform="translate(127.064 258.073)">
            <path id="Path_4072-2" data-name="Path 4072" class="cls-10" d="M-5535.464,2154.589s-41.215,11.606-52.818,68.94-9.083,77.134-9.383,129.08,14.36,33.069,0,89.591-22.812,36.574-50.712,95.865-52.151,141.538-52.151,141.538v34.463s4.9,14.767,37.26,46.465c12.846,12.584,15.813,36.953,34.409,173.929,0,0-5.792,10.591,60.914-11.4,15.543-5.123,39.486-.913,54.266-5.458,47.241-14.532,72.9-41.246,72.9-41.246l-27.4-47.817s-37.051-87.346-30.38-142.1c11.307-92.812,30.38-90.836,30.38-165.32s-26.249-116.169-30.38-138.882c-13.588-74.689-20.883-121.839-20.883-121.839Z" transform="translate(5930.769 -2154.589)"/>
            <path id="Path_4077-2" data-name="Path 4077" class="cls-16" d="M-5718.928,2150.741l-27.22,20.453s5.772,52.807,17.009,70.167,24,0,24,0Z" transform="translate(6116.583 -2139.223)"/>
            <path id="Path_4080" data-name="Path 4080" class="cls-17" d="M-5843.118,2276.469h226.751v2.517h-204.2Z" transform="translate(5843.118 -1770.181)"/>
          </g>
          <path id="Path_4329" data-name="Path 4329" class="cls-18" d="M-5784.277,2257.918l17.846-39.756v6.184s-.733,9.693-9.051,19.466S-5784.277,2257.918-5784.277,2257.918Z" transform="translate(5860.904 -1599.306)"/>
          <g id="Group_2323" data-name="Group 2323" transform="translate(205.068 192.018)">
            <g id="Group_1952-2" data-name="Group 1952" transform="translate(0 0)">
              <g id="Group_1924-2" data-name="Group 1924">
                <g id="Group_1892-2" data-name="Group 1892">
                  <path id="Subtraction_1-2" data-name="Subtraction 1" class="cls-13" d="M29.67,26.728a32.633,32.633,0,0,1-11.355-2.016,29.974,29.974,0,0,1-9.626-5.742,26.36,26.36,0,0,1-6.438-8.605A23.907,23.907,0,0,1,0,.215C0,.156,0,.1,0,.039H59.415V0c0,.06,0,.121,0,.181V.215a23.915,23.915,0,0,1-2.335,10.319,26.483,26.483,0,0,1-6.368,8.428,30.044,30.044,0,0,1-9.445,5.683A32.628,32.628,0,0,1,29.7,26.728Z" transform="translate(8.909 158.712)"/>
                  <path id="Subtraction_2-2" data-name="Subtraction 2" class="cls-13" d="M29.669,41.969a32.632,32.632,0,0,1-11.354-2.016,29.981,29.981,0,0,1-9.626-5.741,26.37,26.37,0,0,1-6.437-8.606A23.908,23.908,0,0,1,0,15.456c0-.058,0-.117,0-.175H53.846V0a24.457,24.457,0,0,1,5.569,15.456A23.917,23.917,0,0,1,57.08,25.775,26.482,26.482,0,0,1,50.713,34.2a30.041,30.041,0,0,1-9.444,5.683A32.627,32.627,0,0,1,29.7,41.969Z" transform="translate(116.187 143.471)"/>
                  <path id="Cart_4_2" data-name="Cart_4_" class="cls-13" d="M197.321,100.746c-6.731-.239-25.452-.4-25.452-.4-5.934-17.3-28.281-25.149-50.216-24.878-20.926.258-40.952,9.25-45.773,24.878H52.726c-2.906.081-10.268,2.244-15.337,6.878-3.946,3.607-5.65,9.516-5.65,11.377l.023,104.418c-.006,2.819.75,7.192,6.05,11.651a30.6,30.6,0,0,0,15.151,6.186l143.869.191c3.241,0,8.88-1.35,14.114-6.149a20.322,20.322,0,0,0,6.129-13.065l.105-102.231a17.675,17.675,0,0,0-4.471-11.023C207.958,103.633,204.052,100.986,197.321,100.746Zm-29.711-.4H80.476c5-11.7,20.2-21.467,42.637-21.515,19.295.174,37.993,7.117,44.5,21.515Z" transform="translate(-31.739 -75.457)"/>
                </g>
              </g>
              <g id="XMLID_1_2" data-name="XMLID_1_" transform="translate(42.239 51.345)">
                <path id="XMLID_2_2" data-name="XMLID_2_" class="cls-3" d="M195.656,237.022V221.4l21.313,28.342h42.1L248.2,232.917l-36.3-5.052,30.557-4.234-9.928-13.8-37.237-4.835,35.313-4.639c1.976-2.819,5.314-7.49,5.314-7.49l4.863-6.61-27.965-3.734,34.03-4.615L259.07,161.2H215.6l-19.947,28.277V161.2H158.07s.17,29.117,0,60.945l-.17,27.6h37.756Z" transform="translate(-157.9 -161.197)"/>
              </g>
            </g>
          </g>
          <g id="Mask_Group_21" data-name="Mask Group 21" class="cls-19" transform="translate(219.412 439.34)">
            <g id="delivery" transform="translate(2.868 0.62)">
              <path id="Path_4331" data-name="Path 4331" class="cls-13" d="M138.982,174.1l2.544-10.175h7.631l7.631,5.087V174.1Z" transform="translate(-47.087 -59.634)"/>
              <path id="Path_4332" data-name="Path 4332" class="cls-20" d="M114.036,35.636v20.35h12.719V50.408a5.39,5.39,0,0,0,2.235.491h0a5.4,5.4,0,0,0,5.4-5.4V35.636Z" transform="translate(-39.948 -22.918)"/>
              <path id="Path_4333" data-name="Path 4333" class="cls-14" d="M121.919,17.818h0a11.447,11.447,0,0,1,11.447,11.447v1.272H120.648v2.544a5.088,5.088,0,1,1-10.175,0V29.265a11.447,11.447,0,0,1,11.447-11.447Z" transform="translate(-38.928 -17.818)"/>
              <path id="Path_4334" data-name="Path 4334" class="cls-13" d="M143.529,104.147a8.98,8.98,0,0,1-.315,2.362L135.9,133.33h-7.631V105.349H102.83A10.172,10.172,0,0,1,92.655,95.174,38.305,38.305,0,0,1,95.589,80.5l7.043-16.906A10.684,10.684,0,0,1,123.179,67.7V82.455l7.631.954V95.174h3.746a8.967,8.967,0,0,1,8.973,8.973Z" transform="translate(-33.829 -29.037)"/>
              <path id="Path_4335" data-name="Path 4335" class="cls-13" d="M166.732,94.83l-8.749-13.124H156.8V76.618h2.544a2.544,2.544,0,0,1,2.117,1.133l9.5,14.257Z" transform="translate(-52.187 -34.647)"/>
              <path id="Path_4336" data-name="Path 4336" class="cls-13" d="M61.074,74.32V71.777a7.631,7.631,0,0,0-7.631-7.631H35.636V74.32Z" transform="translate(-17.51 -31.077)"/>
              <path id="Path_4337" data-name="Path 4337" class="cls-14" d="M34.6,74.32V69.233a5.087,5.087,0,0,0-5.087-5.087H21.886a7.631,7.631,0,0,0-7.631,7.631V74.32Z" transform="translate(-11.391 -31.077)"/>
              <path id="Path_4338" data-name="Path 4338" class="cls-13" d="M10.691,78.4v35.612H11.9V78.4Z" transform="translate(36.753 -35.157)"/>
              <path id="Path_4339" data-name="Path 4339" class="cls-13" d="M37.16,149.157l-5.087-5.088v-5.087H42.248Z" transform="translate(-16.49 -52.495)"/>
              <ellipse id="Ellipse_267" data-name="Ellipse 267" class="cls-21" cx="15.262" cy="15.262" rx="15.262" ry="15.262" transform="translate(117.332 106.837)"/>
              <path id="Path_4340" data-name="Path 4340" class="cls-22" d="M188.861,199.539a17.806,17.806,0,1,1,17.806-17.806A17.806,17.806,0,0,1,188.861,199.539Zm0-30.525a12.719,12.719,0,1,0,12.719,12.719A12.719,12.719,0,0,0,188.861,169.015Z" transform="translate(-56.267 -59.634)"/>
              <path id="Path_4341" data-name="Path 4341" class="cls-23" d="M171.055,171.558l13.682,13.682a5.4,5.4,0,1,0,7.631-7.631l-13.682-13.682Z" transform="translate(-56.267 -59.634)"/>
              <path id="Path_4342" data-name="Path 4342" class="cls-13" d="M178.182,149.673h15.262a12.719,12.719,0,0,1,12.718,12.719H178.182Z" transform="translate(-58.306 -55.555)"/>
              <path id="Path_4343" data-name="Path 4343" class="cls-13" d="M92.655,175.086h40a20.35,20.35,0,0,0,18.7-12.334l9.977-23.279H171.51v-7.631a27.128,27.128,0,0,1-15.993-11.27l-4.357-6.536h-7.631l5.087,25.437-7.631,20.35H92.655Z" transform="translate(-33.829 -45.356)"/>
              <ellipse id="Ellipse_268" data-name="Ellipse 268" class="cls-21" cx="15.262" cy="15.262" rx="15.262" ry="15.262" transform="translate(7.951 106.837)"/>
              <path id="Path_4344" data-name="Path 4344" class="cls-22" d="M35.624,199.539A17.806,17.806,0,1,1,53.43,181.733,17.806,17.806,0,0,1,35.624,199.539Zm0-30.525a12.719,12.719,0,1,0,12.719,12.719A12.719,12.719,0,0,0,35.624,169.015Z" transform="translate(-12.411 -59.634)"/>
              <path id="Path_4345" data-name="Path 4345" class="cls-13" d="M44.287,138.982h58.506v7.631A22.894,22.894,0,0,1,79.9,169.507H62.094L39.2,149.157Z" transform="translate(-18.53 -52.495)"/>
              <path id="Path_4346" data-name="Path 4346" class="cls-21" d="M115.284,134.9v-2.544a7.771,7.771,0,0,0-7.9-7.631H78.4V134.9Z" transform="translate(-31.021 -48.415)"/>
              <path id="Path_4347" data-name="Path 4347" class="cls-13" d="M83.475,194.464H63.126a2.544,2.544,0,0,1-2.544-2.544V181.745H83.475Z" transform="translate(-24.649 -64.734)"/>
              <path id="Path_4348" data-name="Path 4348" class="cls-24" d="M53.442,191.92H40.724a5.087,5.087,0,0,1,0-10.175H53.442Z" transform="translate(-17.51 -64.734)"/>
              <path id="Path_4349" data-name="Path 4349" class="cls-14" d="M163.927,108.937V96.218h22.894l-5.087,12.719Z" transform="translate(-54.227 -40.256)"/>
              <rect id="Rectangle_501" data-name="Rectangle 501" class="cls-13" width="5.085" height="17.056" rx="2.543" transform="translate(79.395 39.291) rotate(-26.565)"/>
              <path id="Path_4350" data-name="Path 4350" class="cls-20" d="M146.109,105.756h7.315a5.4,5.4,0,0,0,.67-10.767l-7.985-1Z" transform="translate(-49.127 -39.619)"/>
              <path id="Path_4351" data-name="Path 4351" class="cls-14" d="M143.529,117.4a8.98,8.98,0,0,1-.315,2.362l-7.316,26.82h-7.631V118.6H102.83A10.172,10.172,0,0,1,92.655,108.43a37.767,37.767,0,0,1,.345-5.1l18.479.008,1.014,1.269a10.177,10.177,0,0,0,7.946,3.819h14.118a8.967,8.967,0,0,1,8.973,8.973Z" transform="translate(-33.829 -42.293)"/>
              <path id="Path_4352" data-name="Path 4352" class="cls-13" d="M149.673,74.836h5.087a5.088,5.088,0,0,1,5.088,5.087v2.544H154.76a5.087,5.087,0,0,1-5.087-5.087Z" transform="translate(-50.147 -34.137)"/>
              <path id="Path_4353" data-name="Path 4353" class="cls-13" d="M10.691,128.291H59.022v10.175H10.691Z" transform="translate(-10.371 -51.979)"/>
              <path id="Path_4354" data-name="Path 4354" class="cls-13" d="M174.618,108.937l5.087-12.719h10.175l-5.087,12.719Z" transform="translate(-57.286 -40.256)"/>
              <path id="Path_4355" data-name="Path 4355" class="cls-13" d="M135.527,105.15a2.544,2.544,0,0,1-2.544,2.544h-7.828a12.657,12.657,0,0,1-9.932-4.773l-5.531-6.914a2.544,2.544,0,0,1,.4-3.575h0a2.544,2.544,0,0,1,3.575.4l5.531,6.914a7.631,7.631,0,0,0,5.959,2.864h7.828A2.544,2.544,0,0,1,135.527,105.15Z" transform="translate(-38.545 -39.013)"/>
              <path id="Path_4356" data-name="Path 4356" class="cls-13" d="M59.022,78.4v35.612H10.691V78.4Z" transform="translate(-10.691 -35.156)"/>
              <g id="Group_2327" data-name="Group 2327" transform="translate(11.476 51.199)">
                <g id="Group_2326" data-name="Group 2326" transform="translate(0 0)">
                  <g id="Group_2325" data-name="Group 2325">
                    <g id="Group_2324" data-name="Group 2324">
                      <path id="Subtraction_15" data-name="Subtraction 15" class="cls-14" d="M4.018,3.62A4.419,4.419,0,0,1,2.48,3.347a4.059,4.059,0,0,1-1.3-.778A3.57,3.57,0,0,1,.3,1.4,3.237,3.237,0,0,1,0,.029C0,.021,0,.013,0,.005H8.046V0c0,.008,0,.016,0,.025v0a3.239,3.239,0,0,1-.316,1.4,3.586,3.586,0,0,1-.862,1.141,4.068,4.068,0,0,1-1.279.77,4.419,4.419,0,0,1-1.566.282Z" transform="translate(1.207 21.493)"/>
                      <path id="Subtraction_16" data-name="Subtraction 16" class="cls-14" d="M4.018,5.683A4.419,4.419,0,0,1,2.48,5.411a4.06,4.06,0,0,1-1.3-.777A3.571,3.571,0,0,1,.3,3.468,3.238,3.238,0,0,1,0,2.093c0-.008,0-.016,0-.024H7.292V0a3.312,3.312,0,0,1,.754,2.093,3.239,3.239,0,0,1-.316,1.4,3.586,3.586,0,0,1-.862,1.141,4.068,4.068,0,0,1-1.279.77,4.418,4.418,0,0,1-1.566.282Z" transform="translate(15.734 19.429)"/>
                      <path id="Cart_4_3" data-name="Cart_4_" class="cls-14" d="M54.162,78.881c-.912-.032-3.447-.055-3.447-.055-.8-2.343-3.83-3.406-6.8-3.369-2.834.035-5.546,1.253-6.2,3.369H34.581a3.876,3.876,0,0,0-2.077.931,2.615,2.615,0,0,0-.765,1.541l0,14.14a1.981,1.981,0,0,0,.819,1.578,4.144,4.144,0,0,0,2.052.838L54.1,97.88a2.968,2.968,0,0,0,1.911-.833,2.751,2.751,0,0,0,.83-1.769l.014-13.844a2.394,2.394,0,0,0-.605-1.493A2.773,2.773,0,0,0,54.162,78.881Zm-4.023-.055h-11.8c.678-1.584,2.735-2.907,5.774-2.914C46.726,75.937,49.258,76.877,50.139,78.826Z" transform="translate(-31.739 -75.457)"/>
                    </g>
                  </g>
                  <g id="XMLID_1_3" data-name="XMLID_1_" transform="translate(5.72 6.953)">
                    <path id="XMLID_2_3" data-name="XMLID_2_" class="cls-3" d="M163.013,171.465V169.35l2.886,3.838h5.7l-1.472-2.279-4.917-.684,4.138-.573-1.345-1.869-5.042-.655,4.782-.628c.268-.382.72-1.015.72-1.015l.659-.895-3.787-.506,4.609-.625L171.6,161.2h-5.886l-2.7,3.829V161.2h-5.09s.023,3.943,0,8.253l-.023,3.738h5.113Z" transform="translate(-157.9 -161.197)"/>
                  </g>
                </g>
              </g>
            </g>
          </g>
          <g id="Finger2" transform="translate(6.922 155.114)">
            <path id="Path_4366" data-name="Path 4366" class="cls-10" d="M-12317.662-484.75l-39.412-11.889s-25.666,2.081-31.654,11.889,2.586,33.922,2.586,33.922l68.48,78.265Z" transform="translate(12404.978 500.227)"/>
            <path id="Path_4372" data-name="Path 4372" class="cls-25" d="M-12114.273-620.865s-14.793-27.038-7.164-39.15,38.777-10.24,38.777-10.24l-6.516-1.854-19.416-3.732s-20.33-1.446-26.781,7.126,1.563,21.919,1.563,21.919l13.984,19.356Z" transform="translate(12137.884 675.934)"/>
          </g>
          <g id="Finger3" transform="translate(-4.355 282.632)">
            <path id="Path_4363" data-name="Path 4363" class="cls-10" d="M-12307.509-405.672l-52.932,29.049s-29.664,18.459-39.549,39.4-7.51,25.389,1.047,43.808c4.334,9.32,23,25.614,39.457,40.514,15.521,14.059,28.74,27.621,28.74,27.621s24.549,17.409,39.287,3.206,25.154-31.607,19.121-46.821-44.277-68.975-48.145-79.053,12.973-19.072,12.973-19.072Z" transform="translate(12406.441 405.672)"/>
            <path id="Path_4370" data-name="Path 4370" class="cls-18" d="M-12345.143-293.089l.789,44.4s-16.859-21.029-15.912-30.235C-12358.822-285.054-12345.143-293.089-12345.143-293.089Z" transform="translate(12444.03 329.385)"/>
            <path id="Path_4373" data-name="Path 4373" class="cls-25" d="M-12063.938-443.7c-7.75-5.2-41.891-41.666-45.967-49.043s-6.705-20.4,3.309-28.221,14.385-7.089,29.742,3.935,33.512,27.862,41.225,35.584,15.492,22.96,5.678,36.568S-12056.188-438.505-12063.938-443.7Z" transform="translate(12158.037 622.239)"/>
            <path id="Path_4377" data-name="Path 4377" class="cls-18" d="M-12123.445-393.627l8.436,9.242s11.963,12.5,15.861,14.884-.777-1.3-14.756-15.658l-7.271-6.772Z" transform="translate(12176.609 551.636)"/>
          </g>
          <g id="Finger5" transform="translate(6.526 575.03)">
            <path id="Path_4365" data-name="Path 4365" class="cls-10" d="M-12380.08-213.93s-14.473,22.8-15.7,39.515-.937,20.9,9.176,35.707,81.779,50.378,81.779,50.378,24.008,7.149,32.879-6.046,11.064-29.089,0-36.826-50.846-28.585-69.7-43.213S-12380.08-213.93-12380.08-213.93Z" transform="translate(12396.284 213.93)"/>
            <path id="Path_4379" data-name="Path 4379" class="cls-25" d="M52.244,72.6c-7.635-4.69-43.622-34.64-47.638-41.3s-8.535-20.2,1.33-27.26S22.04-.569,37.171,9.381,69.426,35.033,77.026,42s6.891,17.325-.511,26.461S59.88,77.289,52.244,72.6Z" transform="translate(49.127 62.216) rotate(-9)"/>
          </g>
          <g id="Finger4" transform="translate(-0.275 440.611)">
            <path id="Path_4364" data-name="Path 4364" class="cls-10" d="M-12354.773-304.646s-32.5,31.7-38.941,49.738-14.9,28.854-6.779,56.246,70.752,85.271,70.752,85.271,28.588,14.129,47.057,3.919,23.236-28.047,18.535-41a126.863,126.863,0,0,0-12.873-24.848s-46.6-73.6-48.225-79.584-7.84-28.308-7.84-28.308Z" transform="translate(12403.832 304.646)"/>
            <path id="Path_4369" data-name="Path 4369" class="cls-18" d="M-12361.633-291.167s6.053,3.966,10.547,6.382,13.707,3.67,13.707,3.67l.02,14.667v32.286s-13.449-16.706-17.9-27.805S-12361.633-291.167-12361.633-291.167Z" transform="translate(12432.313 312.246)"/>
            <path id="Path_4378" data-name="Path 4378" class="cls-25" d="M57.877,86.251C49.417,80.679,9.552,45.1,5.1,37.185s-9.454-24,1.474-32.386,17.839-5.475,34.6,6.346S76.909,41.621,85.329,49.9s7.632,20.583-.564,31.437S66.335,91.823,57.877,86.251Z" transform="matrix(0.995, 0.105, -0.105, 0.995, 58.296, 107.412)"/>
            <path id="Path_4376" data-name="Path 4376" class="cls-18" d="M-12124.318-394.141s18.994,26.8,23,30.281,22.85,15.353,30.523,19.766a36.42,36.42,0,0,0,13.783,4.9s-24.012-13.436-40.018-27.1A227.108,227.108,0,0,1-12124.318-394.141Z" transform="translate(12151.707 537.233)"/>
          </g>
        </g>
        <path id="Path_4426" data-name="Path 4426" class="cls-26" d="M865.176,949.338c0,329.8-267.353,597.148-597.148,597.148s-597.148-267.353-597.148-597.148S-61.768,352.189,268.027,352.189,865.176,619.541,865.176,949.338" transform="translate(541.121 -228.189)"/>
      </g>
    </g>
  </g>
</svg>
