<?xml version="1.0" encoding="UTF-8"?>
<!DOCTYPE svg PUBLIC "-//W3C//DTD SVG 1.1//EN" "http://www.w3.org/Graphics/SVG/1.1/DTD/svg11.dtd">
<!-- Creator: CorelDRAW X6 -->
<svg xmlns="http://www.w3.org/2000/svg" xml:space="preserve" width="19.042mm" height="19.0685mm" version="1.1" style="shape-rendering:geometricPrecision; text-rendering:geometricPrecision; image-rendering:optimizeQuality; fill-rule:evenodd; clip-rule:evenodd"
viewBox="0 0 111 112"
 xmlns:xlink="http://www.w3.org/1999/xlink">
 <defs>
  <style type="text/css">
   <![CDATA[
    .fil2 {fill:none}
    .fil0 {fill:#EE1C25}
    .fil1 {fill:#FBD13E}
   ]]>
  </style>
 </defs>
 <g id="Layer_x0020_1">
  <metadata id="CorelCorpID_0Corel-Layer"/>
  <g id="_608541848">
   <path class="fil0" d="M65 99c0,0 -1,0 -1,0l0 1c0,0 0,0 0,0l0 1c0,0 0,0 0,0 0,0 0,0 0,0 0,0 0,0 0,0 0,0 1,1 1,1 0,0 0,0 0,0 0,0 0,0 0,0l0 0c0,0 0,0 0,0l0 0c0,0 0,1 1,1l2 3c0,0 1,1 1,1l0 1c1,0 1,0 1,0l1 1c0,0 0,0 0,0 0,0 1,0 1,1 0,0 0,0 0,0 0,0 1,0 1,0 0,0 0,0 0,0 0,0 0,0 0,0l0 0c0,0 0,0 1,1 0,0 0,0 0,0 0,0 0,0 0,0l1 0c0,0 0,0 0,0 0,0 0,0 0,0 0,0 0,0 0,0 0,0 0,0 0,0 1,0 0,0 1,0 0,0 0,0 0,0 0,0 0,0 0,0 0,0 0,0 0,0 0,0 1,0 1,0l0 0c0,0 0,0 0,0 0,0 0,0 0,0 0,0 0,0 0,1 1,-1 1,-1 1,0 0,-1 0,0 0,0 1,0 1,0 1,0 0,0 0,0 0,0 0,-1 1,-1 1,-1 0,0 0,0 0,0 0,0 0,0 0,0 0,0 0,0 0,0l1 0c0,0 1,0 1,0 0,0 1,0 1,0 0,0 0,-1 1,-1l2 -1c0,0 0,0 0,0 0,0 0,0 1,-1 0,0 0,0 1,0 0,-1 1,-1 1,-2 0,0 0,0 0,0 0,0 0,0 1,-1 0,0 0,0 0,0 0,0 0,0 0,0 0,-1 0,-1 0,-1l1 0c0,0 0,0 0,0 0,-1 0,-1 0,-1l0 0c0,0 0,0 0,0 0,-1 0,-1 0,-1 0,0 0,0 0,0l0 0c0,0 0,0 0,0 0,0 0,0 0,0 0,-1 1,-1 1,-1l0 0c0,0 0,0 0,-1 0,0 0,0 0,0 0,0 0,0 0,0 0,0 0,0 0,0 0,0 0,-1 0,-1 0,0 0,0 0,0 0,0 0,-1 0,-1l0 0c0,0 0,0 0,0 0,0 0,-1 0,-1 0,0 0,0 0,0 0,0 0,0 0,0 0,0 0,-1 0,-1 0,0 0,0 0,0l-1 -1c0,0 0,0 0,0l0 0c0,0 0,0 0,-1 0,0 0,0 0,0 0,0 0,-1 0,-1l-1 -1c0,0 0,0 0,-1 -1,0 -2,-2 -3,-3 0,-1 0,-1 -1,-1 0,0 0,-1 0,-1l0 0c0,0 -1,0 -1,0 0,0 0,-1 0,-1 0,0 0,0 0,0 0,0 0,0 0,0 0,0 0,0 0,0 0,0 -1,0 -1,0 0,0 0,0 0,0 0,0 0,0 0,0 0,0 0,0 0,0 0,0 0,0 0,0 -1,0 -1,0 -1,0 0,0 0,0 0,0l0 0c0,0 0,0 -1,0 0,0 -1,1 -1,2 -1,0 -1,0 -1,0l0 0 -1 1 0 0c0,0 0,0 0,0 0,0 0,0 0,0 0,0 0,0 0,0 0,0 0,0 0,0 0,0 0,0 -1,1 0,0 0,0 0,0 -1,0 -1,1 -1,1 0,0 -1,1 -1,1l0 0c0,0 0,0 -1,0 0,0 0,1 0,1 0,0 0,0 0,0 0,0 0,0 0,0 0,1 1,1 1,2 0,0 0,0 1,1l1 1c0,1 0,1 0,1l1 2c1,0 1,0 1,1 0,0 0,0 1,0 0,1 0,1 0,1 0,0 0,1 1,1 0,0 0,1 0,1 0,0 0,0 0,0 1,0 0,0 1,1 0,0 0,0 0,0 0,0 -1,-1 -1,-1 0,-1 -1,-1 -1,-2 -1,0 -1,0 -1,0 0,-1 0,-1 -1,-1 0,0 0,0 0,-1 0,0 -1,0 -1,0 0,-1 0,-1 0,-1 0,0 -1,0 -1,-1 0,0 0,0 -1,-1 0,0 0,0 0,0 0,-1 0,0 0,-1 -1,0 -1,0 -1,-1 -1,0 -1,0 -1,-1 0,0 0,0 0,0 0,0 -1,0 -1,0 0,0 0,0 0,0 0,0 0,0 0,0 0,0 0,0 0,0 0,0 0,0 -1,0 0,0 0,0 0,0 0,1 -1,1 -1,1 0,0 -1,1 -1,1 0,0 -1,1 -1,1 0,0 0,0 -1,0l0 0c0,1 0,1 0,1l-1 0c0,0 0,0 0,0 0,0 0,0 0,0 0,0 0,0 0,0l-1 0c0,1 0,1 0,1 -1,0 -1,1 -1,1l0 0z"/>
   <path class="fil0" d="M40 35c0,0 1,0 1,0 1,1 1,1 1,1l3 2c0,0 0,0 0,1l15 11c0,0 1,1 1,1l22 17c-3,2 -6,4 -8,6l-4 3c0,0 0,0 0,0l-6 4c-4,3 -7,6 -11,9l-2 1c0,0 0,1 -1,1l-6 5c-2,1 -4,3 -5,4 -1,0 -1,0 -1,1 1,0 1,0 2,0 0,0 0,0 0,0l2 0c0,0 0,0 0,0l4 1c2,1 3,1 5,1l6 0 0 0c1,0 4,-1 5,-1l2 -1c0,0 0,0 1,0 0,0 0,0 0,0l3 -1c0,0 0,0 0,0 1,0 1,0 1,-1 1,0 1,0 1,0 1,-1 2,-1 3,-2 1,-1 3,-2 4,-3 1,-1 2,-2 3,-2 1,-2 2,-3 3,-5 2,-2 3,-4 4,-6l1 -2c0,-2 1,-5 1,-7 1,-6 0,-12 -1,-17l-2 -4c0,0 0,0 0,0 -1,-3 -3,-6 -5,-8l-5 -5c-4,-2 -7,-4 -11,-5l-3 -1c0,0 0,0 -1,0 0,-1 0,-1 0,-1 -1,0 -1,0 -1,0l-3 0c-2,0 -4,0 -6,0 -2,0 -5,0 -7,1l-4 1c-1,0 -1,0 -1,1l0 0z"/>
   <path class="fil0" d="M20 35c0,4 0,9 2,13l1 3c1,2 2,4 3,6l1 1c0,0 0,1 1,1l4 5c0,0 0,0 0,0 1,0 1,0 1,0l4 3 10 4c0,0 0,0 1,0 0,0 0,0 0,1 4,0 9,1 12,0 0,0 1,0 2,0 1,0 2,-1 4,-1 1,0 3,-1 5,-1 0,-1 -1,-1 -1,-1 -1,-1 -1,-1 -2,-2l-17 -13c0,0 0,0 0,0 0,0 0,0 0,0l-4 -3c-1,-1 -1,-1 -2,-1l-1 -1c-1,-1 -1,-1 -1,-1 -1,-1 -1,-1 -2,-1 -1,-1 -2,-2 -3,-2 0,-1 0,-1 0,-1 0,0 0,0 0,0l-2 -2c-1,0 -1,0 -2,-1l-7 -5c1,-1 8,-5 8,-6l1 -1c1,0 0,0 1,0l19 -15c1,-1 1,-1 1,-1l13 -10c1,0 0,0 0,-1 -1,0 -3,-1 -5,-1 -3,-1 -5,-1 -7,-1l-5 0 0 0c-2,0 -5,1 -7,1l-1 1c0,0 0,0 0,0l-2 0c0,0 0,0 0,0l-2 1c-2,1 -4,3 -7,4l-1 1c-2,2 -4,3 -5,5 0,0 0,0 0,0l-1 1c0,0 0,0 0,0 0,0 0,0 0,0l-3 4c0,0 0,1 0,1l-2 3c-1,4 -2,8 -2,13l0 0z"/>
   <path class="fil1" d="M73 93c0,0 0,0 0,0 0,0 0,0 0,0 0,0 1,0 1,0 0,0 0,0 0,0 0,1 0,1 1,1 0,1 0,1 1,1 0,1 0,0 0,1 0,0 0,0 0,0 1,1 1,1 1,1 0,1 1,1 1,1 0,0 0,0 0,0 0,1 1,1 1,1 0,0 0,1 0,1 1,0 1,0 1,1 0,0 1,0 1,0 0,0 1,1 1,2 0,0 1,1 1,1 0,0 0,0 0,-1 -1,0 0,0 -1,0 0,0 0,0 0,0 0,-1 0,-1 0,-1 -1,0 -1,-1 -1,-1 0,0 0,0 0,-1 -1,0 -1,0 -1,0 0,-1 0,-1 -1,-1l-1 -2c0,0 0,0 0,-1l-1 -2c-1,0 -1,0 -1,0 0,-1 -1,-1 -1,-2 0,0 0,0 0,0 0,0 0,0 0,0 0,-1 0,-1 0,-1 1,0 1,0 1,0l-2 1c-1,0 -1,1 -1,1l0 0z"/>
  </g>
  <rect class="fil2" width="111" height="111"/>
 </g>
</svg>
