<?xml version="1.0" encoding="UTF-8"?>
<!DOCTYPE svg PUBLIC "-//W3C//DTD SVG 1.1//EN" "http://www.w3.org/Graphics/SVG/1.1/DTD/svg11.dtd">
<!-- Creator: CorelDRAW 2018 (64-Bit Evaluation Version) -->
<svg xmlns="http://www.w3.org/2000/svg" xml:space="preserve" width="11.9062mm" height="12.1059mm" version="1.1" style="shape-rendering:geometricPrecision; text-rendering:geometricPrecision; image-rendering:optimizeQuality; fill-rule:evenodd; clip-rule:evenodd"
viewBox="0 0 99.94 101.61"
 xmlns:xlink="http://www.w3.org/1999/xlink">
 <defs>
  <style type="text/css">
   <![CDATA[
    .str0 {stroke:#3D4852;stroke-width:1.68;stroke-miterlimit:22.9256}
    .fil0 {fill:none}
    .fil1 {fill:#3D4852}
   ]]>
  </style>
 </defs>
 <g id="Layer_x0020_1">
  <metadata id="CorelCorpID_0Corel-Layer"/>
  <g id="_2685598692688">
   <rect class="fil0" x="-0" y="0.84" width="99.94" height="99.94"/>
   <g>
    <path class="fil1 str0" d="M21.96 35.44l42.5 32.35 -4.56 1.13c-12.26,3.04 -25.03,-0.25 -33.94,-9.29 -6.38,-6.47 -9.91,-15.08 -9.95,-24.17 -0.09,-22.73 21.61,-38.95 43.47,-33.59l4.54 1.12 -42.06 32.45z"/>
    <path class="fil1 str0" d="M77.98 66.19l-42.06 -32.45 4.54 -1.11c21.86,-5.37 43.56,10.85 43.47,33.59 -0.04,9.09 -3.57,17.7 -9.95,24.17 -8.91,9.04 -21.68,12.33 -33.94,9.29l-4.56 -1.13 42.5 -32.35z"/>
   </g>
  </g>
 </g>
</svg>
