<?xml version="1.0" encoding="UTF-8"?>
<!DOCTYPE svg PUBLIC "-//W3C//DTD SVG 1.1//EN" "http://www.w3.org/Graphics/SVG/1.1/DTD/svg11.dtd">
<!-- Creator: CorelDRAW 2018 (64-Bit Evaluation Version) -->
<svg xmlns="http://www.w3.org/2000/svg" xml:space="preserve" width="61.1512mm" height="12.0896mm" version="1.1" style="shape-rendering:geometricPrecision; text-rendering:geometricPrecision; image-rendering:optimizeQuality; fill-rule:evenodd; clip-rule:evenodd"
viewBox="0 0 1930.69 381.7"
 xmlns:xlink="http://www.w3.org/1999/xlink">
 <defs>
  <style type="text/css">
   <![CDATA[
    .str0 {stroke:#3D4852;stroke-width:6.31;stroke-miterlimit:22.9256}
    .fil1 {fill:#3D4852}
    .fil0 {fill:#3D4852;fill-rule:nonzero}
   ]]>
  </style>
 </defs>
 <g id="Layer_x0020_1">
  <metadata id="CorelCorpID_0Corel-Layer"/>
  <g id="_2685608668672">
   <path class="fil0" d="M351.32 151.87c-11.45,11.39 -17.21,26.54 -17.21,45.53 0,18.93 6.09,33.68 18.2,44.27 12.18,10.59 26.54,15.88 43.22,15.88 16.68,0 30.9,-5.56 42.62,-16.68 11.12,-11.05 16.68,-25.61 16.68,-43.67 0,-18.07 -5.83,-32.96 -17.47,-44.54 -11.71,-11.58 -26.14,-17.47 -43.15,-17.6 -17.07,-0.13 -31.37,5.49 -42.88,16.81zm-17.6 -48.38l0 29.19c6.09,-10.39 14.89,-18.4 26.54,-23.96 11.39,-6.15 24.09,-9.2 38.19,-9.2 25.87,0 47.78,9 65.65,27.07 17.93,17.87 26.87,41.16 26.87,69.82 0,28.66 -8.87,51.88 -26.67,69.75 -17.73,17.8 -39.71,26.74 -65.85,26.74 -14.1,0 -27,-2.78 -38.78,-8.34 -11.71,-5.56 -20.38,-13.37 -25.94,-23.29l0 86.64c0.4,22.7 -14.24,31.07 -36.13,31.16l0 -245.9c-0.24,-24 15.62,-30.23 36.13,-29.67z"/>
   <path class="fil0" d="M665.47 240.88c11.91,-11.12 17.87,-26.07 17.87,-44.93 0,-18.86 -6.22,-33.75 -18.6,-44.61 -12.44,-10.85 -27.07,-16.35 -43.88,-16.48 -16.88,0 -30.97,5.63 -42.35,16.88 -11.38,11.12 -17.07,25.67 -17.07,43.81 0,18.07 5.82,32.96 17.47,44.54 11.65,11.65 26.01,17.47 43.08,17.47 17.07,0 31.57,-5.56 43.48,-16.68zm18.26 48.05l0 -28.46c-5.82,9.73 -14.62,17.54 -26.4,23.49 -11.78,5.95 -24.62,8.93 -38.65,8.93 -25.68,0 -47.98,-9 -66.84,-27 -18.2,-17.94 -27.33,-41.23 -27.33,-69.75 0,-28.59 9,-51.82 26.93,-69.62 18,-17.87 40.44,-26.87 67.31,-27 13.43,0 26.4,2.78 38.78,8.34 12.18,6.09 20.91,13.9 26.21,23.49 0.44,-20.15 14.73,-27.34 36.13,-27.86l0 155.93c-0.98,23.46 -14.3,31.72 -36.13,29.5z"/>
   <path class="fil0" d="M795.38 103.49l126.38 0 0 30.44 -115.17 124.12 78.63 0c22.19,0.38 36.07,10.25 36.54,35.39l-167.24 0 0 -30.64 113 -123.92 -106.43 0c0.22,-22.66 12.22,-33.9 34.28,-35.39z"/>
   <path class="fil0" d="M1096.22 240.88c11.91,-11.12 17.87,-26.07 17.87,-44.93 0,-18.86 -6.22,-33.75 -18.6,-44.61 -12.44,-10.85 -27.07,-16.35 -43.88,-16.48 -16.88,0 -30.97,5.63 -42.35,16.88 -11.38,11.12 -17.07,25.67 -17.07,43.81 0,18.07 5.82,32.96 17.47,44.54 11.65,11.65 26.01,17.47 43.08,17.47 17.07,0 31.57,-5.56 43.48,-16.68zm18.26 48.05l0 -28.46c-5.82,9.73 -14.62,17.54 -26.4,23.49 -11.78,5.95 -24.62,8.93 -38.65,8.93 -25.68,0 -47.98,-9 -66.84,-27 -18.2,-17.94 -27.33,-41.23 -27.33,-69.75 0,-28.59 9,-51.82 26.93,-69.62 18,-17.87 40.44,-26.87 67.31,-27 13.43,0 26.4,2.78 38.78,8.34 12.18,6.09 20.91,13.9 26.21,23.49 2.62,-22.66 16,-30.06 36.13,-27.86l0 156.85c-0.39,20.28 -12.47,29.79 -36.13,28.59z"/>
   <path class="fil0" d="M1211.76 113.09c12.37,-9.07 27.33,-13.57 44.93,-13.57 17.54,0 32.1,4.5 43.54,13.5 11.51,9 18.07,21.84 19.59,38.52l-34.48 0c-1.06,-6.02 -4.24,-10.85 -9.53,-14.49 -5.83,-3.57 -12.24,-5.36 -19.39,-5.36 -7.08,0 -13.1,1.52 -18,4.57 -5.29,2.38 -8.6,6.55 -10.06,12.37 -1.39,5.83 -1.19,10.46 0.59,13.9 2.98,5.95 10.26,10.59 21.84,13.9l27.33 6.68c32.1,7.87 48.11,25.94 48.11,54.2 0,16.74 -6.95,30.24 -20.91,40.63 -14.1,9.99 -30.57,14.96 -49.44,14.96 -18.93,0 -35.34,-5.43 -49.3,-16.35 -13.96,-10.85 -21.04,-25.28 -21.31,-43.35l34.15 0c1.52,9.59 6.42,16.68 14.76,21.18 8.07,5.09 16.81,7.34 26.21,6.82 9.4,-0.53 16.68,-3.05 21.84,-7.55 5.16,-4.57 8.07,-10.06 8.74,-16.54 0.53,-6.49 -1.46,-11.65 -6.02,-15.55 -4.5,-3.91 -10.72,-6.75 -18.6,-8.54l-25.41 -5.89c-17.93,-4.83 -31.17,-11.91 -39.64,-21.37 -8.14,-9.79 -11.51,-22.04 -10.06,-36.79 1.39,-14.76 8.27,-26.67 20.52,-35.87z"/>
   <path class="fil0" d="M1647.93 241.21c11.58,-11.38 17.41,-26.34 17.41,-44.87 0,-18.6 -5.83,-33.42 -17.41,-44.54 -11.58,-11.18 -26.01,-16.81 -43.28,-16.94 -17.2,0 -31.7,5.56 -43.41,16.75 -11.85,11.25 -17.8,26.07 -17.8,44.54 0,18.4 5.83,33.35 17.41,44.87 11.58,11.58 26.07,17.34 43.48,17.34 17.47,0 32.03,-5.69 43.61,-17.14zm-43.41 51.69c-27,0 -49.9,-8.93 -68.83,-26.8 -18.92,-17.87 -28.39,-41.16 -28.39,-69.95 0,-28.79 9.33,-52.15 27.93,-70.01 18.6,-17.87 41.56,-26.74 68.96,-26.61 27.53,0 50.56,8.93 69.16,26.8 18.73,18 28.12,41.29 28.12,69.82 0,28.52 -9.4,51.75 -28.19,69.75 -18.8,18 -41.76,27 -68.76,27z"/>
   <path class="fil0" d="M1791.05 151.87c-11.45,11.39 -17.2,26.54 -17.2,45.53 0,18.93 6.09,33.68 18.2,44.27 12.18,10.59 26.54,15.88 43.21,15.88 16.68,0 30.91,-5.56 42.62,-16.68 11.12,-11.05 16.68,-25.61 16.68,-43.67 0,-18.07 -5.82,-32.96 -17.47,-44.54 -11.71,-11.58 -26.14,-17.47 -43.15,-17.6 -17.07,-0.13 -31.37,5.49 -42.88,16.81zm-17.6 -48.38l0 29.19c6.09,-10.39 14.89,-18.4 26.54,-23.96 11.39,-6.15 24.09,-9.2 38.19,-9.2 25.87,0 47.78,9 65.65,27.07 17.93,17.87 26.87,41.16 26.87,69.82 0,28.66 -8.87,51.88 -26.67,69.75 -17.74,17.8 -39.71,26.74 -65.85,26.74 -14.1,0 -27,-2.78 -38.78,-8.34 -11.71,-5.56 -20.38,-13.37 -25.94,-23.29l0 86.65c-0.58,20.6 -11.04,31.05 -36.13,31.15l0 -244.84c0,-22.92 16.63,-30.88 36.13,-30.73z"/>
   <path class="fil0" d="M1434.55 30.33l0 69.9 0 33.11 0 126.47c-0.44,18.77 -10.89,31.32 -37.2,31.32l0 -157.79 0 -33.11 0 -41.18c-0.09,-22.68 15.58,-28.82 37.2,-28.72z"/>
   <path class="fil1 str0" d="M25.53 133.11l159.63 121.5 -17.13 4.25c-46.05,11.43 -94.03,-0.93 -127.5,-34.89 -23.96,-24.31 -37.23,-56.66 -37.37,-90.79 -0.34,-85.39 81.19,-146.32 163.3,-126.16l17.06 4.19 -157.98 121.89z"/>
   <path class="fil1 str0" d="M235.98 248.64l-157.98 -121.89 17.06 -4.19c82.11,-20.17 163.64,40.76 163.3,126.16 -0.14,34.13 -13.41,66.48 -37.37,90.79 -33.48,33.96 -81.44,46.32 -127.5,34.89l-17.14 -4.25 159.63 -121.5z"/>
   <path class="fil0" d="M1434.25 101.3l9.92 0c23.6,0.79 30.98,8.91 30.79,33.65l-40.71 0 -37.8 0c-28.82,0.51 -33.46,-12.56 -34.89,-33.65l34.89 0 37.8 0z"/>
  </g>
 </g>
</svg>
