<?xml version="1.0" encoding="UTF-8"?>
<!DOCTYPE svg PUBLIC "-//W3C//DTD SVG 1.1//EN" "http://www.w3.org/Graphics/SVG/1.1/DTD/svg11.dtd">
<!-- Creator: CorelDRAW 2018 (64-Bit Evaluation Version) -->
<svg xmlns="http://www.w3.org/2000/svg" xml:space="preserve" width="122.203mm" height="23.9794mm" version="1.1" style="shape-rendering:geometricPrecision; text-rendering:geometricPrecision; image-rendering:optimizeQuality; fill-rule:evenodd; clip-rule:evenodd"
viewBox="0 0 5748.11 1127.93"
 xmlns:xlink="http://www.w3.org/1999/xlink">
 <defs>
  <style type="text/css">
   <![CDATA[
    .str0 {stroke:#3D4852;stroke-width:9.41;stroke-miterlimit:22.9256}
    .fil1 {fill:#3D4852}
    .fil0 {fill:#3D4852;fill-rule:nonzero}
   ]]>
  </style>
 </defs>
 <g id="Layer_x0020_1">
  <metadata id="CorelCorpID_0Corel-Layer"/>
  <g id="_2685149270432">
   <path class="fil0" d="M1042.11 447.81c-34.11,33.92 -51.27,79.07 -51.27,135.67 0,56.4 18.14,100.37 54.22,131.92 36.28,31.55 79.07,47.32 128.77,47.32 49.69,0 92.09,-16.56 126.99,-49.69 33.12,-32.93 49.69,-76.31 49.69,-130.14 0,-53.83 -17.35,-98.2 -52.06,-132.71 -34.9,-34.51 -77.89,-52.06 -128.56,-52.45 -50.88,-0.4 -93.47,16.36 -127.78,50.08zm-52.45 -144.14l0 86.96c18.14,-30.96 44.37,-54.82 79.07,-71.38 33.92,-18.34 71.78,-27.41 113.78,-27.41 77.1,0 142.37,26.82 195.62,80.66 53.43,53.24 80.06,122.65 80.06,208.03 0,85.38 -26.43,154.59 -79.47,207.84 -52.84,53.04 -118.31,79.66 -196.2,79.66 -42,0 -80.45,-8.28 -115.55,-24.85 -34.9,-16.56 -60.73,-39.83 -77.3,-69.41l0 258.16c1.19,67.64 -42.43,92.57 -107.67,92.84l0 -732.7c-0.71,-71.52 46.54,-90.08 107.67,-88.4z"/>
   <path class="fil0" d="M1978.18 713.03c35.49,-33.13 53.24,-77.69 53.24,-133.89 0,-56.2 -18.54,-100.57 -55.41,-132.9 -37.07,-32.33 -80.65,-48.7 -130.74,-49.1 -50.28,0 -92.28,16.76 -126.2,50.28 -33.92,33.13 -50.88,76.51 -50.88,130.54 0,53.83 17.35,98.2 52.06,132.71 34.7,34.7 77.49,52.06 128.37,52.06 50.88,0 94.06,-16.56 129.56,-49.69zm54.42 143.16l0 -84.79c-17.35,28.98 -43.58,52.25 -78.67,70 -35.1,17.75 -73.36,26.62 -115.16,26.62 -76.51,0 -142.96,-26.82 -199.16,-80.45 -54.23,-53.43 -81.45,-122.85 -81.45,-207.84 0,-85.18 26.82,-154.4 80.26,-207.44 53.64,-53.24 120.49,-80.06 200.54,-80.46 40.03,0 78.68,8.29 115.55,24.85 36.28,18.15 62.32,41.41 78.09,70.01 1.31,-60.06 43.9,-81.46 107.67,-83.02l0 464.61c-2.91,69.9 -42.61,94.52 -107.67,87.91z"/>
   <path class="fil0" d="M2365.28 303.67l376.56 0 0 90.69 -343.18 369.84 234.29 0c66.11,1.13 107.46,30.53 108.88,105.43l-498.3 0 0 -91.3 336.71 -369.23 -317.12 0c0.66,-67.53 36.42,-101.02 102.15,-105.44z"/>
   <path class="fil0" d="M3261.67 713.03c35.49,-33.13 53.24,-77.69 53.24,-133.89 0,-56.2 -18.54,-100.57 -55.41,-132.9 -37.07,-32.33 -80.65,-48.7 -130.74,-49.1 -50.28,0 -92.28,16.76 -126.2,50.28 -33.92,33.13 -50.88,76.51 -50.88,130.54 0,53.83 17.35,98.2 52.06,132.71 34.7,34.7 77.5,52.06 128.37,52.06 50.88,0 94.06,-16.56 129.56,-49.69zm54.42 143.16l0 -84.79c-17.35,28.98 -43.58,52.25 -78.67,70 -35.1,17.75 -73.36,26.62 -115.16,26.62 -76.51,0 -142.96,-26.82 -199.16,-80.45 -54.23,-53.43 -81.45,-122.85 -81.45,-207.84 0,-85.18 26.82,-154.4 80.26,-207.44 53.64,-53.24 120.49,-80.06 200.54,-80.46 40.03,0 78.68,8.29 115.55,24.85 36.28,18.15 62.32,41.41 78.09,70.01 7.82,-67.54 47.68,-89.58 107.67,-83.02l0 467.34c-1.18,60.44 -37.15,88.76 -107.67,85.18z"/>
   <path class="fil0" d="M3605.92 332.26c36.87,-27.02 81.44,-40.43 133.89,-40.43 52.25,0 95.64,13.41 129.75,40.23 34.3,26.82 53.83,65.07 58.36,114.76l-102.73 0c-3.16,-17.94 -12.62,-32.34 -28.39,-43.18 -17.36,-10.65 -36.48,-15.97 -57.78,-15.97 -21.1,0 -39.04,4.53 -53.64,13.6 -15.77,7.1 -25.63,19.52 -29.97,36.88 -4.14,17.35 -3.55,31.15 1.77,41.4 8.87,17.75 30.56,31.56 65.07,41.41l81.44 19.92c95.63,23.47 143.36,77.3 143.36,161.5 0,49.88 -20.71,90.11 -62.32,121.07 -42,29.77 -91.1,44.56 -147.3,44.56 -56.39,0 -105.29,-16.17 -146.9,-48.71 -41.6,-32.33 -62.71,-75.32 -63.5,-129.16l101.75 0c4.53,28.59 19.13,49.7 43.98,63.1 24.06,15.18 50.09,21.89 78.08,20.31 28,-1.58 49.7,-9.07 65.08,-22.48 15.38,-13.61 24.06,-29.97 26.03,-49.3 1.58,-19.33 -4.34,-34.7 -17.95,-46.34 -13.41,-11.63 -31.94,-20.11 -55.41,-25.44l-75.72 -17.55c-53.43,-14.39 -92.87,-35.49 -118.12,-63.69 -24.25,-29.18 -34.31,-65.66 -29.97,-109.64 4.14,-43.98 24.65,-79.47 61.13,-106.87z"/>
   <path class="fil0" d="M4905.57 714.02c34.51,-33.92 51.86,-78.49 51.86,-133.7 0,-55.41 -17.35,-99.57 -51.86,-132.71 -34.51,-33.32 -77.5,-50.08 -128.97,-50.48 -51.27,0 -94.45,16.56 -129.35,49.89 -35.3,33.52 -53.04,77.69 -53.04,132.71 0,54.82 17.35,99.39 51.86,133.69 34.51,34.51 77.69,51.67 129.55,51.67 52.06,0 95.44,-16.96 129.95,-51.07zm-129.36 154c-80.45,0 -148.68,-26.62 -205.08,-79.86 -56.39,-53.24 -84.6,-122.65 -84.6,-208.43 0,-85.77 27.8,-155.38 83.21,-208.63 55.41,-53.24 123.84,-79.66 205.47,-79.27 82.03,0 150.66,26.62 206.07,79.87 55.81,53.64 83.8,123.05 83.8,208.03 0,84.99 -28,154.2 -84,207.84 -56,53.64 -124.43,80.45 -204.88,80.45z"/>
   <path class="fil0" d="M5332.03 447.81c-34.11,33.92 -51.27,79.07 -51.27,135.67 0,56.4 18.14,100.37 54.22,131.92 36.28,31.55 79.07,47.32 128.77,47.32 49.7,0 92.09,-16.56 126.99,-49.69 33.13,-32.93 49.69,-76.31 49.69,-130.14 0,-53.83 -17.35,-98.2 -52.06,-132.71 -34.9,-34.51 -77.88,-52.06 -128.56,-52.45 -50.88,-0.4 -93.47,16.36 -127.78,50.08zm-52.45 -144.14l0 86.96c18.14,-30.96 44.37,-54.82 79.07,-71.38 33.92,-18.34 71.78,-27.41 113.78,-27.41 77.1,0 142.37,26.82 195.61,80.66 53.44,53.24 80.06,122.65 80.06,208.03 0,85.38 -26.43,154.59 -79.47,207.84 -52.85,53.04 -118.31,79.66 -196.2,79.66 -42,0 -80.45,-8.28 -115.56,-24.85 -34.9,-16.56 -60.73,-39.83 -77.3,-69.41l0 258.2c-1.74,61.37 -32.89,92.53 -107.66,92.8l0 -729.55c0,-68.31 49.54,-92 107.66,-91.55z"/>
   <path class="fil0" d="M4269.78 85.68l0 208.28 0 98.66 0 376.84c-1.3,55.93 -32.45,93.32 -110.84,93.32l0 -470.16 0 -98.66 0 -122.7c-0.28,-67.58 46.43,-85.88 110.84,-85.58z"/>
   <g>
    <path class="fil1 str0" d="M71.37 391.91l475.64 362.04 -51.05 12.67c-137.23,34.06 -280.17,-2.77 -379.91,-103.96 -71.4,-72.44 -110.94,-168.82 -111.34,-270.51 -1.02,-254.45 241.91,-436 486.57,-375.91l50.82 12.48 -470.73 363.19z"/>
    <path class="fil1 str0" d="M698.43 736.16l-470.73 -363.19 50.82 -12.48c244.66,-60.09 487.59,121.46 486.57,375.91 -0.4,101.7 -39.95,198.09 -111.36,270.52 -99.74,101.19 -242.68,138.01 -379.9,103.95l-51.05 -12.67 475.64 -362.04z"/>
   </g>
   <path class="fil0" d="M4268.88 297.15l29.56 0c70.31,2.35 92.3,26.54 91.74,100.26l-121.3 0 -112.64 0c-85.87,1.51 -99.7,-37.44 -103.97,-100.26l103.97 0 112.64 0z"/>
  </g>
 </g>
</svg>
