<svg xmlns="http://www.w3.org/2000/svg" xmlns:xlink="http://www.w3.org/1999/xlink" width="219" height="100" viewBox="0 0 219 100">
  <defs>
    <style>
      .cls-1 {
        clip-path: url(#clip-Kshopit_90px_2);
      }

      .cls-2 {
        fill: #F6AB1B;
      }

      .cls-3 {
        fill: #FB0028;
      }

      .cls-4 {
        fill: #FFFFFF;
      }
    </style>
    <clipPath id="clip-Kshopit_90px_2">
      <rect width="219" height="100"/>
    </clipPath>
  </defs>
  <g id="Kshopit_90px_2" data-name="Kshopit – 90px – 2" class="cls-1">
    <g id="Group_1860" data-name="Group 1860" transform="translate(-9054.654 -175)">
      <g id="Group_1852" data-name="Group 1852" transform="translate(9074 179.742)">
        <g id="Group_1840" data-name="Group 1840" transform="translate(10.384 64.087)">
          <path id="Wheel_2_4_" class="cls-2" d="M81.868,432.09a13.085,13.085,0,1,1-13.086,13.086A13.087,13.087,0,0,1,81.868,432.09Z" transform="translate(-68.781 -432.09)"/>
          <path id="Wheel_1_4_" class="cls-2" d="M316.064,432.09a13.1,13.1,0,1,1-13.083,13.086A13.088,13.088,0,0,1,316.064,432.09Z" transform="translate(-266.769 -432.09)"/>
        </g>
        <path id="Cart_4_" class="cls-3" d="M104.453,85.647H88.238c-2.624-8.194-12.273-13.526-21.973-13.4-9.254.122-18.345,6-20.477,13.4h-16.8A3.682,3.682,0,0,0,25.2,89.228V149.2a3.678,3.678,0,0,0,3.783,3.58h75.469a3.68,3.68,0,0,0,3.787-3.58V89.228A3.683,3.683,0,0,0,104.453,85.647Zm-19,0H48.609c2.213-5.541,9.812-11.129,17.655-11.2C74.346,74.38,82.576,78.828,85.453,85.647Z" transform="translate(-25.201 -72.247)"/>
        <g id="XMLID_1_" transform="translate(19.289 26.648)">
          <path id="XMLID_2_" class="cls-4" d="M174.714,195.7V188.59l9.491,12.9h18.746l-2.533-4.54-16-2.316,13.934-.872-2.676-3.935-14.485-1.913,12.382-1.2-2.6-3.744-16.888-1.448,15.555-1.621c.88-1.283,3-4.293,3-4.293l-11.449-2.866s13.124.508,13.487,0c1.591-2.229,2.829-3.94,2.829-3.94l-13.089-2.214,16-.772,2.535-4.616H183.6l-8.883,12.866V161.2H157.976s.076,13.248,0,27.73l-.076,12.559h16.814Z" transform="translate(-157.9 -161.197)"/>
        </g>
      </g>
      <g id="Group_1853" data-name="Group 1853" transform="translate(9163.879 206.983)">
        <path id="Path_3096" data-name="Path 3096" class="cls-3" d="M60,228v39.741h6.635l.068-12.517c.728.761,1.381,1.6,2.071,2.394,1.873,2.157,3.723,4.335,5.59,6.5l2.12,2.462c.3.343.615.884,1.026,1.092a1.881,1.881,0,0,0,.821.07h7.8a11.532,11.532,0,0,0-1.066-1.3q-1.026-1.2-2.07-2.394c-1.91-2.17-3.79-4.37-5.669-6.566-1.135-1.326-2.284-2.642-3.42-3.967a11.974,11.974,0,0,0-1.865-2.052c1.345-1.345,2.743-2.64,4.1-3.968,1.533-1.5,3.016-3.048,4.583-4.507.883-.822,1.7-1.716,2.6-2.525a5.891,5.891,0,0,0,1.5-1.585H77.511a2.3,2.3,0,0,0-.809.041c-.423.173-.84.782-1.135,1.122-.631.727-1.32,1.406-1.966,2.12-1.09,1.2-2.227,2.368-3.334,3.557-1.187,1.274-2.332,2.6-3.563,3.831V228H60m81.192,2.736v27.771a11.287,11.287,0,0,0,.51,4.446,8.066,8.066,0,0,0,5.647,4.742,14.053,14.053,0,0,0,4.036.057,11.633,11.633,0,0,0,2.668-.422c.248-.083.726-.158.887-.38a.888.888,0,0,0,.07-.509v-5.267c-.473.135-.9.4-1.368.545a8.084,8.084,0,0,1-2.531.344,2.759,2.759,0,0,1-1.71-.385c-1.513-1.051-1.163-3.22-1.163-4.814V244.074h6.772v-5.335h-6.772v-8Z" transform="translate(-60 -228)"/>
        <path id="Path_3098" data-name="Path 3098" class="cls-3" d="M918.936,406.321h6.7V384.706c0-.357-.161-1.255.109-1.523.163-.161.5-.158.711-.193.637-.1,1.276-.144,1.915-.219a30.367,30.367,0,0,1,4.925-.12,23.547,23.547,0,0,1,3.283.276v-3.9c0-.341.144-1.109-.109-1.37a2.2,2.2,0,0,0-.848-.408,11.655,11.655,0,0,0-2.462-.43,16.428,16.428,0,0,0-3.489.076,30.836,30.836,0,0,0-6.977,1.585,21.964,21.964,0,0,0-2.736,1.146c-.294.147-.778.293-.956.587a1.165,1.165,0,0,0-.07.593v25.514Z" transform="translate(-859.906 -366.58)"/>
        <path id="Path_3111" data-name="Path 3111" class="cls-3" d="M498.463-600.62a24.475,24.475,0,0,0-8.694,2.073l-.4.226-.021,3.051c-.007,1.683,0,3.057.027,3.057s.335-.2.7-.438a14.356,14.356,0,0,1,4.761-1.949,14.152,14.152,0,0,1,6.238-.212,6.047,6.047,0,0,1,2.941,1.464,4.963,4.963,0,0,1,1.156,2.23,24.321,24.321,0,0,1,.13,3.953c-.034-.014-.424-.205-.876-.424a16.341,16.341,0,0,0-5.034-1.423,26.571,26.571,0,0,0-4.788.034c-4.323.67-6.895,2.866-7.654,6.532a13.766,13.766,0,0,0-.007,4.993,6.849,6.849,0,0,0,2.244,3.981,10.6,10.6,0,0,0,5.623,2.531,21.433,21.433,0,0,0,4.754.315c5.6-.13,9-1.047,10.855-2.921a5.3,5.3,0,0,0,1.416-3.092c.1-.739.1-14.864,0-15.766a8.185,8.185,0,0,0-2.305-5.123,7.836,7.836,0,0,0-2.373-1.689C504.735-600.415,502.156-600.832,498.463-600.62Zm2.12,16.368a15.5,15.5,0,0,1,4.125.8l.629.212v2.688c0,1.689-.027,2.825-.075,3.044-.267,1.252-1.621,1.737-5.089,1.82a10.847,10.847,0,0,1-2.237-.068,7.913,7.913,0,0,1-2.456-.807,3.537,3.537,0,0,1-1.943-2,5.3,5.3,0,0,1-.144-2.592c.451-1.9,2.182-2.948,5.171-3.112.472-.027.93-.041,1.026-.034S500.132-584.272,500.583-584.252Z" transform="translate(-458.551 610.381)"/>
      </g>
    </g>
  </g>
</svg>
