<?xml version="1.0" encoding="UTF-8"?>
<!DOCTYPE svg PUBLIC "-//W3C//DTD SVG 1.1//EN" "http://www.w3.org/Graphics/SVG/1.1/DTD/svg11.dtd">
<!-- Creator: CorelDRAW 2018 (64-Bit Evaluation Version) -->
<svg xmlns="http://www.w3.org/2000/svg" xml:space="preserve" width="440.267mm" height="321.733mm" version="1.1" style="shape-rendering:geometricPrecision; text-rendering:geometricPrecision; image-rendering:optimizeQuality; fill-rule:evenodd; clip-rule:evenodd"
viewBox="0 0 45335.53 33129.82"
 xmlns:xlink="http://www.w3.org/1999/xlink">
 <defs>
  <style type="text/css">
   <![CDATA[
    .str2 {stroke:white;stroke-width:174.36;stroke-miterlimit:22.9256;stroke-opacity:0.15}
    .str3 {stroke:#006648;stroke-width:85.61;stroke-miterlimit:22.9256;stroke-opacity:0.36}
    .str1 {stroke:#006648;stroke-width:160.6;stroke-miterlimit:22.9256;stroke-opacity:0.529412}
    .str0 {stroke:#006648;stroke-width:160.6;stroke-miterlimit:22.9256;stroke-opacity:0.529412}
    .fil16 {fill:none}
    .fil5 {fill:none}
    .fil3 {fill:#BCEBFF}
    .fil19 {fill:#DEEEFF}
    .fil18 {fill:#006648;fill-opacity:0.129412}
    .fil9 {fill:#FFC83A;fill-opacity:0.15}
    .fil8 {fill:#006648;fill-opacity:0.15}
    .fil11 {fill:#006648;fill-opacity:0.258824}
    .fil12 {fill:#99D2FF;fill-opacity:0.258824}
    .fil14 {fill:#99E7FF;fill-opacity:0.258824}
    .fil15 {fill:#F4F4F4;fill-opacity:0.258824}
    .fil13 {fill:#F8E5C8;fill-opacity:0.258824}
    .fil10 {fill:white;fill-opacity:0.258824}
    .fil4 {fill:#006648;fill-opacity:0.33}
    .fil7 {fill:#99D2FF;fill-opacity:0.36}
    .fil0 {fill:#D8F6FF;fill-opacity:0.36}
    .fil6 {fill:white;fill-opacity:0.431373}
    .fil17 {fill:#006648;fill-opacity:0.619608}
    .fil2 {fill:#D8F6FF;fill-opacity:0.701961}
    .fil1 {fill:white;fill-opacity:0.701961}
   ]]>
  </style>
 </defs>
 <g id="Layer_x0020_1">
  <metadata id="CorelCorpID_0Corel-Layer"/>
  <g id="_2574303435552">
   <polygon class="fil0" points="-0,0 45335.53,0 45335.53,33129.82 -0,33129.82 "/>
   <path class="fil1" d="M25235.95 2912.24l15111.85 0c759.23,0 1380.41,621.18 1380.41,1380.41l0 18744.51c0,759.23 -621.18,1380.41 -1380.41,1380.41l-15111.85 0c-759.23,0 -1380.41,-621.18 -1380.41,-1380.41l0 -18744.51c0,-759.23 621.18,-1380.41 1380.41,-1380.41z"/>
   <path class="fil1" d="M24874.12 25711.2l15511.47 0c669.31,0 1216.93,547.62 1216.93,1216.93l0 3541.85c0,669.31 -547.62,1216.93 -1216.93,1216.93l-15511.47 0c-669.31,0 -1216.93,-547.62 -1216.93,-1216.93l0 -3541.85c0,-669.31 547.62,-1216.93 1216.93,-1216.93z"/>
   <path class="fil2" d="M4887.57 1682.35l16132.3 0c502.73,0 914.06,411.31 914.06,914.05l0 3713.22c0,502.73 -411.33,914.05 -914.06,914.05l-16132.3 0c-502.72,0 -914.04,-411.31 -914.04,-914.05l0 -3713.22c0,-502.73 411.31,-914.05 914.04,-914.05z"/>
   <path class="fil3" d="M26948.57 28358.14l18.06 -1.02 -6.47 19.61c15.45,-8.89 46.74,-37.39 52.95,-54.89 -19.11,9.13 -49.53,21.73 -64.54,36.31z"/>
   <path class="fil3" d="M25524.84 28963.16c-9.22,-11.44 5.42,6.83 0.92,-16.47 -18.09,8.68 -34.15,28.45 -41.23,40.85 11.03,-2.8 7.85,-1.19 19.1,-7.12 0.67,-0.36 9.67,-5.65 11,-6.7 7.87,-6.23 4.48,-3.93 10.21,-10.57z"/>
   <g>
    <path class="fil4" d="M28983.75 27718.23l11113.3 0c55.53,0 100.94,45.41 100.94,100.93l0 0.02c0,55.52 -45.41,100.93 -100.94,100.93l-11113.3 0c-55.51,0 -100.92,-45.41 -100.92,-100.93l0 -0.02c0,-55.52 45.41,-100.93 100.92,-100.93z"/>
    <path class="fil4" d="M28983.75 28598.11l11113.3 0c55.53,0 100.94,45.41 100.94,100.93l0 0.02c0,55.52 -45.41,100.93 -100.94,100.93l-11113.3 0c-55.51,0 -100.92,-45.41 -100.92,-100.93l0 -0.02c0,-55.52 45.41,-100.93 100.92,-100.93z"/>
    <path class="fil4" d="M28983.75 29477.98l11113.3 0c55.53,0 100.94,45.41 100.94,100.93l0 0.02c0,55.52 -45.41,100.93 -100.94,100.93l-11113.3 0c-55.51,0 -100.92,-45.41 -100.92,-100.93l0 -0.02c0,-55.52 45.41,-100.93 100.92,-100.93z"/>
   </g>
   <path class="fil5 str0" d="M25655.5 22771.14l115.9 385.47 -429.32 -15.16c-54.81,20.58 -114.2,31.88 -176.27,31.88 -275.32,0 -498.51,-221.7 -498.51,-495.18 0,-273.48 223.19,-495.18 498.51,-495.18 275.33,0 498.52,221.7 498.52,495.18 0,31.79 -3.06,62.86 -8.82,92.98z"/>
   <polygon class="fil5 str1" points="39583.82,22285.07 40314.68,22287.37 40314.69,23066.95 39966.73,22754.12 39582.04,23071.23 "/>
   <path class="fil6" d="M5207.48 9237.1l15801.18 0c579.66,0 1053.91,474.25 1053.91,1053.91l0 16854.66c0,579.66 -474.25,1053.91 -1053.91,1053.91l-15801.18 0c-579.66,0 -1053.91,-474.25 -1053.91,-1053.91l0 -16854.66c0,-579.66 474.25,-1053.91 1053.91,-1053.91z"/>
   <path class="fil7" d="M5401.92 25205.34l15381.73 0c109.9,0 199.81,89.91 199.81,199.8l0 0c0,109.89 -89.91,199.8 -199.81,199.8l-15381.73 0c-109.89,0 -199.79,-89.91 -199.79,-199.8l0 0c0,-109.89 89.9,-199.8 199.79,-199.8z"/>
   <path class="fil7" d="M5353.95 26440.43l6339.86 0c109.89,0 199.8,89.91 199.8,199.8l0 0c0,109.89 -89.91,199.8 -199.8,199.8l-6339.86 0c-109.89,0 -199.8,-89.91 -199.8,-199.8l0 0c0,-109.89 89.91,-199.8 199.8,-199.8z"/>
   <path class="fil8 str2" d="M35530.27 4567.38c-115.75,185.04 -277.07,352.41 -381.64,611.11 -226.71,272.81 -415.26,819.57 -655.74,1148.03 -234.02,319.63 -570.75,629.34 -1166.64,668.7 -1235.69,81.61 -1405.54,-1040.38 -1823.9,-1838.08 -99.96,-251.93 -300.31,-396.95 -395.05,-583.51 -412.82,-150.63 -648.29,-273.4 -1198.56,-214.72 -234.45,25 -607.48,130.04 -807.52,258.28 -159.1,101.97 -120.31,39.59 -176.28,211.65 356.08,188.12 222.72,1136.85 387.9,1669.35 475.44,1532.66 -145.34,1349.66 650.64,3350.77 246.5,619.68 580.33,1342.34 587.7,2088.56 6.99,709.69 -431.99,1169.35 -828.04,1843.41 -604.76,1029.3 -1270.87,2547.38 -1651.77,3685.06 -292.18,872.7 -1018.04,3452.48 -953.24,4403.89 1431.67,-294.45 2821.54,254.09 4090.11,788.68 239.62,100.98 198.62,27.49 154.13,93.94 145.51,118.25 849.45,221.26 1075.8,249.64 490.13,61.46 848.86,-45 1289.95,-6.16 -78.41,-162.4 -59.43,-73.3 133.45,-162.39 105.86,-48.89 208.48,-76.85 309.18,-122.78 1242.5,-566.77 1615.89,-1694.3 4004.57,-569.56 190.91,89.9 178.53,43.66 217.3,207.01 52.43,-59.33 75.78,-53.45 77.05,-265.75l-98.55 -951.67c-255.07,-2377.08 -904.53,-5704.69 -2064.77,-7638.63 -330.72,-551.26 -924.83,-986.69 -745.97,-1890.77 205.25,-1037.39 884.83,-1813.84 1037.4,-3113.51 65.14,-554.84 -65.09,-731.93 186.51,-1205.26 192.18,-430.51 693.51,-2136.41 1077.53,-2234.07 -438.91,-922.08 -1398.85,-857.81 -2331.58,-481.22z"/>
   <path class="fil9" d="M32905.08 5797.82l602.14 -6.05 -5.97 455.4 -602.83 -20.07 6.66 -429.27zm2034.87 -603.11c-111.85,127.83 -218.57,159.87 -388.92,232.44 -140.01,59.65 -231.97,94.06 -388.17,145.11 -257.04,83.99 -575.24,162.49 -891.97,166.3 -461,5.54 -1200.81,-188.72 -1554.8,-480.7l3223.85 -63.15zm208.68 -16.21c-970.08,-96.8 -2665.98,-105.48 -3646.28,-21.35 418.36,797.7 588.21,1919.68 1823.9,1838.08 595.89,-39.36 932.63,-349.07 1166.64,-668.7 240.48,-328.46 429.04,-875.23 655.74,-1148.03z"/>
   <path class="fil9" d="M33728.13 22995.99c1013.54,80.51 1513.42,327.75 2367.33,-173.47 287.22,-168.6 631.44,-304.32 1013.88,-371.64 329.02,-57.92 1073.41,-18.04 1283.3,-102.62 -38.77,-163.35 -26.39,-117.11 -217.3,-207.01 -2388.68,-1124.73 -2762.07,2.79 -4004.57,569.56 -100.7,45.94 -203.32,73.89 -309.18,122.78 -192.88,89.09 -211.87,-0.01 -133.45,162.39z"/>
   <path class="fil9" d="M27118.14 21869.89c52.76,396.67 410.82,420.57 815.18,452.22 415.41,32.52 812.61,52.06 1225.37,93.88 560.03,56.75 1799.48,364.44 2203.69,336.53 44.49,-66.45 85.49,7.03 -154.13,-93.94 -1268.57,-534.59 -2658.44,-1083.13 -4090.11,-788.68z"/>
   <path class="fil9" d="M34939.95 5194.7l-3223.85 63.15c353.99,291.98 1093.8,486.24 1554.8,480.7 316.73,-3.81 634.93,-82.31 891.97,-166.3 156.2,-51.05 248.15,-85.46 388.17,-145.11 170.35,-72.58 277.07,-104.61 388.92,-232.44z"/>
   <polygon class="fil9" points="32898.42,6227.09 33501.25,6247.16 33507.23,5791.76 32905.08,5797.82 "/>
   <path class="fil10" d="M7512.67 17418.02c352.62,597.67 396.45,525.21 367.32,1223.2l-74.81 56.4 38.75 1230.42c9.33,87.26 58.46,321.14 -36.44,306.42 -74.79,69.19 -96.17,87.22 -207.19,49.31l-372.11 -2659.64c-37.46,-267.18 -169.91,-683.59 -176.03,-861.27l460.52 655.14zm10954.82 2147.66c-32.08,-386.94 28.39,-1073.22 72.03,-1468.5 35.17,-318.5 100.45,-741.29 7.05,-1034.38 -45.09,-141.48 -92.67,-159.86 -150.92,-249.66l-155.12 -5.03c57.7,-85.14 1128.88,-929.78 1224.99,-973.29 -38.47,252.96 -183.87,617.46 -253.27,902.78 -203.43,836.29 -280.03,1877.73 -338.8,2749.07 -26.19,388.1 12.43,316.78 -182.94,304.8 -106.47,-6.53 -113.32,9.07 -211.6,-25.49l-11.42 -200.31zm-10194.49 -2954.79l380.65 1774.1c144.79,421.83 143.33,543.15 396.72,869.94 148.34,191.3 456.01,468.37 672.69,595.87 349.21,205.47 505.7,277.04 1022.65,210.54 344.25,-44.28 756.04,-140.53 1063.33,-233.36 441.93,-133.51 760.86,-288.59 1009.9,-83.17 517.42,426.78 892.65,625.83 1292.82,934.52 96.63,74.53 83.84,108.35 176.02,162.14 214.99,125.44 540.28,399.79 570.41,732.63 -66.7,76.29 -104.61,121.07 -212.13,173.23 -278.07,202.12 -966.41,174.81 -1358,163.81 -125.89,39.2 -2396.23,181.48 -2608.62,166.51 -448.33,-31.6 -798.47,-43.37 -1099.02,-278.9 -214.48,-168.08 -457.91,-555.65 -487.93,-936.98 -122.72,-751.52 -710.32,-1848.05 -1020.15,-2631.06 -261.21,-660.14 -307.12,-641.1 -674.96,-1157.78 -103.97,-146.05 -652.51,-1008.63 -686.74,-1170.95 -242.66,-366.86 -26.54,-1104.19 -20.25,-1268.4 7.7,-200.79 7.11,-215.45 77.86,-383.25 108.48,-257.26 446.13,-1122.31 611.69,-1242.97 219.9,293.07 825.55,3048.29 893.05,3603.53zm11259.64 -1061.79c-187.4,262.02 -119.98,149.66 -432.04,429.65l-507.47 396.37c-95.82,72.72 -166.28,120.09 -257.24,193.43 -265.79,214.3 -469.38,366.52 -682.65,661.06 -74.93,140.69 -205.7,351.67 -299.55,471.71 -123.07,157.37 -93.88,218.52 -273.21,516.31 -201.64,334.83 -376.84,649.59 -569.95,1009.22 -444.1,827 -602.29,1282.89 -1744.98,1384.53 -26.25,2.42 -91.12,12.93 -111.54,13 -1.72,0.01 -44.34,0.5 -54.06,-1.23 -69.94,-12.44 -25.03,1.29 -65.46,-31.36 -43.35,73.34 -162.51,87.37 -245.34,103.49l-641.84 -453.82c-236.83,-160.4 -448.25,-298.06 -666.14,-461.8 -107.44,-80.73 -178.76,-159.73 -306.2,-229.36l-811.74 -598.57c-84.51,-77.13 -97.28,-71.6 -109.36,-169.5l1407.25 -315.38c65.12,22.25 77.06,189.98 435.02,358.83 584.79,275.83 1065.32,229.42 1602.55,-63.16 94.09,-51.25 167.33,-113.91 265.27,-150.14l347.11 -282.69c87.25,-69.11 220.52,-253.85 325.57,-284.57 48.6,-131.14 220.71,-211.13 431.61,-565.74 699.96,-1176.94 353.54,-1746.26 1513.51,-3336.8 281.25,-385.64 492.93,-752.59 747.73,-1161.41 295.88,107.54 499.56,943.48 572.87,1170.38 148.93,460.88 374.18,889.82 130.29,1397.56zm-1454.22 -1583.15c-72.75,134.76 -213.04,300.84 -312.79,424.6 -129.82,161.07 -173.64,269.81 -278.69,436.81l-276.22 645.67c-158.29,437.24 -390.18,1299.74 -575.89,1678.97 -52.59,107.39 -138.02,190.82 -163.83,278.6 -27.91,101.23 -139.55,255.55 -234.73,328.13 -75.14,73.78 -135.58,148.57 -210.38,222.12l-467.51 435.3c-298.18,236.84 -552.43,359.97 -949.44,459.88 -293.92,73.97 -505.93,8.55 -772.32,-59.88 -268.45,-86.93 -435.42,-196.18 -551.37,-366.44l664.36 -122.57c514.41,-168.26 941.23,-369.59 1279.48,-748.08 57.78,-64.66 117.41,-92.69 173.54,-164.54 46.68,-59.76 97.1,-155.75 151.78,-192.2l1606.47 -2646.86c344.46,-557.2 334.75,-461.02 728.63,-963.71 121.16,-154.64 211.38,-333.88 342.42,-475.34 51.45,-98.03 150.23,-161.55 233.89,-217.41 138.14,-92.21 160.75,-97.83 304.52,-31.15 -55.05,222.28 -366.46,624.4 -519.56,832.46 -57.28,77.84 -116.82,186.02 -172.37,245.62zm-5811.76 5375.7c82.58,50.16 194.81,128.76 263.68,194.15l-145.32 12.55 -567.35 139.34c-442.44,177.46 -1421.29,412.47 -1923.56,133.99 -554.69,-307.55 -896.33,-681.06 -1052.75,-1314.96 -70.05,-283.9 -304.45,-1049.56 -294.08,-1282.42 -69.29,-81.03 -80.38,-256.91 -109.69,-376.88 -34.13,-139.74 -71.1,-257.77 -94.35,-405.71 -90.62,-288.69 -144.05,-746.08 -210.86,-1059.75 -52.65,-247.13 -237.87,-910.04 -231.4,-1098.55 -76.7,-78.67 -185.13,-556.06 -230.83,-700.04 -175.55,-552.97 -329.17,-654.81 -104.6,-764.22 508.21,-247.59 975.02,986.44 1191.55,1398.94l1069.16 1808.11c206.05,313.81 395.19,495.72 592.6,846.04 94.34,167.41 160.34,325.16 259.56,472.13 100.09,148.27 179.99,261.77 272.37,433.47 171.34,318.44 350.56,614.43 531.82,906 163.49,262.98 537.78,588.61 784.05,657.82zm-4814.96 782c51.99,23.98 49.45,240.1 76.2,310.77l28.82 24.99c242.51,16.77 318.94,14.89 526.02,-68.56 78.99,-524.5 -153.35,-1489.14 -124.26,-2106.55 87.05,183.32 171.36,357.72 255.96,566 228.7,563.09 569.89,1153.7 701.2,1751.45 73.05,332.47 61.79,836.85 461.61,1203.26 826.78,757.7 3254.03,484.56 4291.43,416.76 254.72,-16.65 520.26,-28.24 741.12,-103.07 461.48,-156.35 590.16,-291.92 528.94,-656.98 -49.57,-295.61 -420.82,-501.33 -529.58,-670.1 188.98,-56.01 320.53,-49.39 517.83,-76.43 161.29,-22.11 309.18,-83.87 457.78,-96.69l311.34 -144.41 -2 -2.01 96.08 -55.82 32.07 -8.91c50.58,-102.49 106.96,-146.66 196.2,-186.94 22.27,-67.16 -41.56,-34.16 51.15,-56.51l78.5 -116.82c59.51,-123.06 179.01,-273.33 260.48,-414.67 385.78,-669.31 1063.01,-2063.82 1505.06,-2499.02 116.13,-114.33 161.29,-240.4 443.68,-213.34 207.81,327.28 83.72,922.02 34.37,1334.65 -53.76,449.43 -40.03,1037.91 -40.9,1498.35 -362.14,235.78 418.08,385.16 538.4,211.22 93.5,-135.15 329.48,-2625.32 379.91,-2993.34 17.58,-101.07 0.26,-92.93 49.88,-158.58 -8.39,-116.43 222.23,-1008.13 289.65,-1200.76 42.14,-120.38 101.4,-186.37 129.95,-346.23 74.94,-419.57 -238.28,-1162.96 -353.24,-1550.66 -101.22,-341.41 -162.89,-426.96 -333.15,-654.29 -627.16,-837.37 -963.25,315.65 -1718.32,1095.79l-573.96 892.64c-123.06,204.14 -246.34,407.56 -375.11,611.98 -377.27,598.9 -663.43,1289.9 -1133.65,1770.94 -233.98,239.37 -894.72,729.14 -1193.06,746.15 -60.3,63.61 -62.9,50.94 -163.46,76.2 -137.85,42.06 -442.44,95.04 -593.24,99.85 -312.97,10 -46.19,10.06 -252.07,38.56 -101.51,14.05 -192.62,11.19 -303.69,34.41 -163.21,34.14 -363.12,91.39 -536.97,135.68 -175.08,44.62 -381.6,86.32 -542.2,136.26l-1422.05 -2301.39c-91.37,-111.85 -189.38,-215.61 -273.61,-347.04 -400.85,-625.42 -782.7,-1248.3 -1144.52,-1901.21 -203.05,-366.39 -206.97,-490.83 -283.1,-647.67 -127.73,-263.1 -421.64,-724.59 -707.56,-815.42 -677.25,-215.16 -893.65,1120.65 -1073.5,1335.04 -60.11,71.66 -18.22,-24.22 -75.97,88.8 -122.12,238.99 -161.56,614.49 -199.82,872.87 -53.7,362.73 2.29,762.36 136.38,1059.55 70.1,155.36 160.23,259.15 229.88,390.38 171.13,322.42 406.05,2161.66 464.77,2608.67 35.09,267.22 151.48,856.78 134.34,1082.15z"/>
   <path class="fil11" d="M14646.06 21747.34c107.52,-52.17 145.44,-96.94 212.13,-173.23 -30.13,-332.84 -355.42,-607.19 -570.41,-732.63 -92.18,-53.79 -79.39,-87.61 -176.02,-162.14 -400.17,-308.69 -775.41,-507.74 -1292.82,-934.52 -249.04,-205.42 -567.97,-50.34 -1009.9,83.17 -307.29,92.83 -719.08,189.08 -1063.33,233.36 -516.95,66.5 -673.44,-5.07 -1022.65,-210.54 -216.69,-127.5 -524.35,-404.57 -672.69,-595.87 -253.4,-326.78 -251.93,-448.11 -396.72,-869.94l-123.5 23.64c-72.55,295.23 334.26,846.72 465.47,1042.13 239.25,356.33 382.5,541.56 784.35,737.65l-103.98 72.57c-290.47,171.74 122.49,525.66 198.52,623.11 483.51,619.69 189.02,483.16 1115.36,530 242.19,12.25 539.15,8.34 774.47,31.95 544.01,54.57 1020.17,234.24 1380.57,287.87 476.61,70.91 1033.53,86.43 1501.15,13.43z"/>
   <path class="fil11" d="M16136.64 18045.11c208.91,4.03 331.35,-198.95 427.58,-315.77 106.33,-129.09 240.8,-261.89 351.43,-381.67 1228.44,-1330.06 2003.26,-1353.28 2616.99,-1798.58 243.89,-507.74 18.64,-936.68 -130.29,-1397.56 -73.31,-226.9 -276.99,-1062.83 -572.87,-1170.38 -254.8,408.82 -466.48,775.77 -747.73,1161.41 -1159.97,1590.54 -813.55,2159.86 -1513.51,3336.8 -210.9,354.62 -383.01,434.61 -431.61,565.74z"/>
   <path class="fil12" d="M7900.98 14283.41l342.05 533.51c119.26,194.07 234.33,425.7 421.94,510.58 207.86,94.05 513.61,526.37 657.45,722.81l383.19 547.55c248.86,344.36 416.25,660.07 620.07,1013.37 120.75,209.28 425.26,811.17 495.56,1029.99 33.48,104.19 27.46,35.73 -5.79,63.95 42.3,124.18 144.92,338.5 246.04,406.64l484.72 495.4c74.33,50.25 203.34,40.44 271.46,80.49l567.35 -139.34c-97.22,-57.38 -24.36,17.71 -75.2,-83.76 -20.57,-41.08 -30.72,-72.48 -43.17,-122.94 -246.27,-69.21 -620.56,-394.84 -784.05,-657.82 -181.26,-291.57 -360.49,-587.55 -531.82,-906 -92.39,-171.71 -172.28,-285.2 -272.37,-433.47 -99.22,-146.97 -165.22,-304.72 -259.56,-472.13 -197.41,-350.31 -386.55,-532.23 -592.6,-846.04l-1069.16 -1808.11c-216.53,-412.5 -683.34,-1646.53 -1191.55,-1398.94 -224.57,109.41 -70.95,211.25 104.6,764.22 45.7,143.98 154.13,621.37 230.83,700.04z"/>
   <path class="fil11" d="M6710.65 15901.99c123.69,230.26 343.3,277.94 533.44,534.58 191.57,258.55 599.84,1055.89 766.42,1376.87 61.97,119.41 132.08,250.85 200.93,334.74 54.73,66.69 156.18,177.46 244.6,181.53 268.02,12.32 29.92,-371.17 -13.44,-496.07 -109.84,-316.4 -345.87,-1242.89 -402.12,-1570.95 -126.98,-740.46 -438.2,-1395.95 -394.33,-2208.81 32.19,191.84 105.65,405.95 144.29,625.19 117.5,666.74 229.8,1065.25 350.13,1651.17 30.11,146.64 2.1,245.68 132.43,280.65 -67.5,-555.24 -673.15,-3310.46 -893.05,-3603.53 -165.56,120.65 -503.21,985.71 -611.69,1242.97 -70.75,167.8 -70.16,182.47 -77.86,383.25 -6.28,164.21 -222.4,901.54 20.25,1268.4z"/>
   <path class="fil11" d="M14534.49 20591.8c119,-110.2 218.86,-341.9 330.69,-472.38 91.66,-106.96 349.57,-255.26 396.46,-393.12 45.82,-134.75 -4.17,-177.27 76.67,-317.41 231.52,-401.4 498.55,-372.9 373.19,-751.59l-247.55 -44.93c-97.94,36.24 -171.18,98.9 -265.27,150.14 -537.23,292.59 -1017.75,339 -1602.55,63.16 -357.95,-168.84 -369.9,-336.58 -435.02,-358.83l-1407.25 315.38c12.08,97.91 24.85,92.38 109.36,169.5l811.74 598.57c127.44,69.63 198.76,148.63 306.2,229.36 217.89,163.75 429.31,301.4 666.14,461.8l641.84 453.82c82.83,-16.12 201.99,-30.15 245.34,-103.49z"/>
   <path class="fil11" d="M6710.65 15901.99c34.23,162.32 582.76,1024.9 686.74,1170.95 367.84,516.68 413.75,497.64 674.96,1157.78 309.84,783.01 897.43,1879.54 1020.15,2631.06 172.39,70.11 113.85,217.2 247.41,416.55 51.25,76.5 249.18,233.23 353.36,322.82 551.13,473.96 1700.58,274.57 2311.42,261.52 224.92,-4.8 452.16,-7.71 677.09,-4.83 231.88,2.98 415.31,52.17 606.28,53.32 391.59,11 1079.93,38.31 1358,-163.81 -467.62,73 -1024.54,57.48 -1501.15,-13.43 -360.39,-53.63 -836.56,-233.31 -1380.57,-287.87 -235.32,-23.61 -532.28,-19.7 -774.47,-31.95 -926.34,-46.84 -631.85,89.69 -1115.36,-530 -76.04,-97.45 -488.99,-451.37 -198.52,-623.11l103.98 -72.57c-401.85,-196.09 -545.11,-381.32 -784.35,-737.65 -131.21,-195.41 -538.02,-746.89 -465.47,-1042.13l123.5 -23.64 -380.65 -1774.1c-130.33,-34.97 -102.32,-134.01 -132.43,-280.65 -120.32,-585.92 -232.63,-984.43 -350.13,-1651.17 -38.64,-219.24 -112.1,-433.35 -144.29,-625.19 -43.87,812.86 267.36,1468.35 394.33,2208.81 56.25,328.06 292.28,1254.55 402.12,1570.95 43.36,124.91 281.46,508.39 13.44,496.07 -88.42,-4.07 -189.87,-114.85 -244.6,-181.53 -68.85,-83.89 -138.96,-215.34 -200.93,-334.74 -166.58,-320.98 -574.85,-1118.32 -766.42,-1376.87 -190.14,-256.64 -409.75,-304.33 -533.44,-534.58z"/>
   <path class="fil11" d="M16136.64 18045.11c-105.05,30.72 -238.32,215.46 -325.57,284.57l-347.11 282.69 247.55 44.93c125.36,378.69 -141.67,350.19 -373.19,751.59 -80.84,140.15 -30.85,182.66 -76.67,317.41 -46.88,137.86 -304.8,286.16 -396.46,393.12 -111.83,130.48 -211.69,362.18 -330.69,472.38 40.43,32.64 -4.48,18.92 65.46,31.36 9.72,1.73 52.34,1.24 54.06,1.23 20.42,-0.06 85.29,-10.58 111.54,-13 68.97,-55.29 424.36,-144.88 558.62,-201.88 714.24,-303.2 721.39,-645.5 1066.77,-1302.37 230.34,-438.07 824.34,-1600.61 1262.3,-1877.52 213.27,-294.53 416.85,-446.76 682.65,-661.06 90.96,-73.35 161.42,-120.72 257.24,-193.43l507.47 -396.37c312.06,-279.99 244.64,-167.63 432.04,-429.65 -613.74,445.3 -1388.56,468.52 -2616.99,1798.58 -110.62,119.78 -245.1,252.58 -351.43,381.67 -96.24,116.81 -218.67,319.79 -427.58,315.77z"/>
   <path class="fil11" d="M8903.15 18296.68c165.76,171.99 321.21,592.78 362.05,885.04 -110.83,-135.63 -327.53,-657.66 -362.05,-885.04zm-1002.17 -4013.27c-6.47,188.5 178.75,851.41 231.4,1098.55 66.81,313.67 120.24,771.05 210.86,1059.75 107.18,19.17 71.56,-80.94 197.13,49.82 74.29,77.35 114.22,108.76 188.51,180.31 765.26,736.89 672.67,357.05 1379.09,1496.93 96.89,156.32 198.59,282.93 279.16,455.26 98.74,211.21 361.27,935.34 207.72,1200.37 -204.4,93.8 -756.22,-134.17 -900.15,-226.43 -320.48,-205.43 -290.7,-375.3 -443.81,-739.47 -284.33,-676.28 -493.43,-879.03 -696.64,-1680.44l-6.96 46.25c-10.37,232.86 224.03,998.53 294.08,1282.42 156.43,633.9 498.06,1007.41 1052.75,1314.96 502.27,278.48 1481.12,43.48 1923.56,-133.99 -68.12,-40.06 -197.13,-30.24 -271.46,-80.49l-484.72 -495.4c18.13,119.63 98.95,180.56 161.96,286.73 -205.78,-80.96 -582.78,-598.52 -731.41,-823.87 -207.71,-314.9 -361.84,-619.4 -542.92,-980.03 -159.78,-318.22 -359.79,-725.66 -542.29,-1008.6 -269.03,-417.07 -469.26,-622.42 -636.82,-872.43 -82.53,-45.67 -166.36,-123.66 -212.99,-210.88l178.43 119.34c39.7,37.79 11,8.53 39.92,56.5 455.48,365.2 814.92,909.38 1112.51,1441.91l927.56 1584.69c33.25,-28.21 39.26,40.24 5.79,-63.95 -70.3,-218.82 -374.81,-820.7 -495.56,-1029.99 -203.82,-353.3 -371.21,-669 -620.07,-1013.37l-383.19 -547.55c-143.84,-196.44 -449.59,-628.76 -657.45,-722.81 -187.62,-84.88 -302.68,-316.51 -421.94,-510.58l-342.05 -533.51z"/>
   <path class="fil12" d="M8343.23 16441.7c23.25,147.94 60.23,265.97 94.35,405.71 29.31,119.97 40.4,295.85 109.69,376.88l6.96 -46.25c203.22,801.41 412.31,1004.15 696.64,1680.44 153.11,364.17 123.33,534.04 443.81,739.47 143.93,92.25 695.75,320.23 900.15,226.43 153.55,-265.02 -108.98,-989.16 -207.72,-1200.37 -80.57,-172.34 -182.27,-298.94 -279.16,-455.26 -706.41,-1139.88 -613.82,-760.03 -1379.09,-1496.93 -74.29,-71.55 -114.22,-102.95 -188.51,-180.31 -125.58,-130.75 -89.95,-30.64 -197.13,-49.82z"/>
   <path class="fil11" d="M18231.93 13136.43c-131.03,141.46 -221.26,320.7 -342.42,475.34 -393.87,502.69 -384.16,406.52 -728.63,963.71l-1606.47 2646.86c118.01,28.52 -224.92,249.27 -72.81,564.9 230.25,53.7 292.78,-290.71 572.26,-652.36 363.04,-469.79 783.69,-884.89 994.05,-1485.23 53.02,-151.34 105.85,-303.87 180.15,-445.9l117.79 -210.33c0.99,-1.46 63.33,-221.15 81.3,-173.29l59.79 7.25c105.04,-167 148.87,-275.74 278.69,-436.81 99.75,-123.76 240.04,-289.84 312.79,-424.6l-94.01 8.32c89.67,-235.26 567.9,-603.96 441.5,-878.51 -114.83,-9.84 -88.7,13.12 -193.97,40.66z"/>
   <path class="fil12" d="M15339.46 18435.03c147.24,-285.43 963.84,-1480.66 1116.92,-1649.52 -77.37,143.44 -175.86,262.31 -254.18,412.76 -210.87,405.03 -382.63,928.93 -862.74,1236.77zm214.96 -1212.69c-54.68,36.45 -105.1,132.44 -151.78,192.2 -56.13,71.85 -115.76,99.88 -173.54,164.54 -338.25,378.49 -765.07,579.82 -1279.48,748.08l-31.88 161.39c200.47,-70.53 1286.26,-733.86 1301.74,-185.11 12.25,433.74 -745.16,549.9 -1176.49,500.54 -24.93,-2.85 -75.33,-10.8 -96.45,-10.7 -60.32,0.31 11.78,-5.7 -46.54,2.88 -68.5,10.07 -23.4,-4.75 -63.37,20.01 266.39,68.43 478.4,133.84 772.32,59.88 397.01,-99.9 651.26,-223.04 949.44,-459.88l467.51 -435.3c74.8,-73.55 135.24,-148.34 210.38,-222.12 33,-84.93 47.53,-105.4 96.77,-175.41 21.6,-30.71 43.76,-63.59 58.9,-81.44 40.22,-47.45 46.34,-46.45 79.05,-71.28 25.81,-87.78 111.24,-171.21 163.83,-278.6 185.7,-379.23 417.6,-1241.73 575.89,-1678.97l276.22 -645.67 -59.79 -7.25c-17.97,-47.86 -80.31,171.83 -81.3,173.29l-117.79 210.33c-74.31,142.03 -127.13,294.56 -180.15,445.9 -210.36,600.34 -631.01,1015.44 -994.05,1485.23 -279.48,361.65 -342.01,706.06 -572.26,652.36 -152.11,-315.63 190.82,-536.38 72.81,-564.9z"/>
   <path class="fil11" d="M18395.66 16813.15c140.63,-38.34 278.32,-70.82 328.3,69.93 38.7,108.98 28.45,290.01 19.85,405.56 -40.91,549.36 -80.89,1942.16 -276.32,2277.05l11.42 200.31c98.28,34.56 105.13,18.96 211.6,25.49 195.37,11.98 156.76,83.31 182.94,-304.8 58.77,-871.34 135.37,-1912.77 338.8,-2749.07 69.4,-285.33 214.8,-649.82 253.27,-902.78 -96.1,43.51 -1167.29,888.15 -1224.99,973.29l155.12 5.03z"/>
   <path class="fil11" d="M7807.49 20234.46c78.32,-423.12 -340.22,-2678.2 -294.82,-2816.44l-460.52 -655.14c6.13,177.68 138.57,594.08 176.03,861.27l372.11 2659.64c111.03,37.9 132.4,19.87 207.19,-49.31z"/>
   <path class="fil12" d="M13949.61 18327.16l-664.36 122.57c115.95,170.26 282.92,279.51 551.37,366.44 39.97,-24.75 -5.13,-9.94 63.37,-20.01 58.32,-8.59 -13.78,-2.57 46.54,-2.88 21.12,-0.1 71.52,7.85 96.45,10.7 431.32,49.35 1188.74,-66.8 1176.49,-500.54 -15.49,-548.74 -1101.27,114.59 -1301.74,185.11l31.88 -161.39z"/>
   <path class="fil11" d="M13288.07 21911.15c-190.97,-1.15 -374.4,-50.34 -606.28,-53.32 -224.92,-2.88 -452.16,0.03 -677.09,4.83 -610.85,13.05 -1760.29,212.44 -2311.42,-261.52 -104.18,-89.59 -302.11,-246.32 -353.36,-322.82 -133.57,-199.35 -75.03,-346.43 -247.41,-416.55 30.02,381.33 273.44,768.9 487.93,936.98 300.55,235.53 650.69,247.3 1099.02,278.9 212.39,14.97 2482.73,-127.31 2608.62,-166.51z"/>
   <path class="fil11" d="M11061.49 19111.8c-101.12,-68.14 -203.74,-282.46 -246.04,-406.64l-927.56 -1584.69c-297.59,-532.52 -657.03,-1076.71 -1112.51,-1441.91l-5.36 35.04c167.56,250.01 367.79,455.36 636.82,872.43 182.5,282.94 382.5,690.38 542.29,1008.6 181.09,360.63 335.22,665.13 542.92,980.03 148.63,225.35 525.63,742.91 731.41,823.87 -63.01,-106.17 -143.82,-167.09 -161.96,-286.73z"/>
   <path class="fil11" d="M14765.55 20611.38c1142.69,-101.64 1300.88,-557.54 1744.98,-1384.53 193.12,-359.62 368.31,-674.39 569.95,-1009.22 179.33,-297.79 150.13,-358.93 273.21,-516.31 93.85,-120.04 224.61,-331.02 299.55,-471.71 -437.96,276.9 -1031.96,1439.45 -1262.3,1877.52 -345.38,656.87 -352.53,999.17 -1066.77,1302.37 -134.26,57 -489.65,146.59 -558.62,201.88z"/>
   <path class="fil12" d="M18395.66 16813.15c58.25,89.8 105.83,108.17 150.92,249.66 93.4,293.09 28.11,715.89 -7.05,1034.38 -43.64,395.27 -104.11,1081.56 -72.03,1468.5 195.43,-334.89 235.41,-1727.69 276.32,-2277.05 8.6,-115.55 18.84,-296.58 -19.85,-405.56 -49.98,-140.75 -187.67,-108.27 -328.3,-69.93z"/>
   <path class="fil11" d="M7807.49 20234.46c94.9,14.73 45.77,-219.16 36.44,-306.42l-38.75 -1230.42 74.81 -56.4c29.12,-697.99 -14.7,-625.54 -367.32,-1223.2 -45.4,138.24 373.14,2393.33 294.82,2816.44z"/>
   <path class="fil12" d="M18231.93 13136.43c105.27,-27.55 79.14,-50.51 193.97,-40.66 126.4,274.56 -351.83,643.25 -441.5,878.51l94.01 -8.32c55.54,-59.6 115.08,-167.78 172.37,-245.62 153.1,-208.07 464.51,-610.19 519.56,-832.46 -143.77,-66.69 -166.38,-61.06 -304.52,31.15 -83.67,55.85 -182.45,119.38 -233.89,217.41z"/>
   <path class="fil11" d="M15339.46 18435.03c480.11,-307.84 651.87,-831.73 862.74,-1236.77 78.32,-150.44 176.8,-269.32 254.18,-412.76 -153.08,168.87 -969.68,1364.09 -1116.92,1649.52z"/>
   <path class="fil11" d="M9265.2 19181.72c-40.84,-292.26 -196.3,-713.06 -362.05,-885.04 34.53,227.38 251.22,749.42 362.05,885.04z"/>
   <path class="fil13" d="M13915.04 18168.6c-51.75,-131.26 18.04,-154.93 161.68,-154.59 -24.91,71.61 -75.49,174.66 -161.68,154.59zm-20.4 85.54c100.56,-25.26 103.16,-12.59 163.46,-76.2 -80.31,-12.06 -13.81,15.61 -55.87,-21.61l129.91 -125.89c-191.2,-154.24 -279.52,30.16 -237.5,223.71z"/>
   <path class="fil14" d="M12385.02 19548.35l145.32 -12.55c-68.87,-65.39 -181.1,-143.99 -263.68,-194.15 12.45,50.46 22.59,81.86 43.17,122.94 50.84,101.47 -22.02,26.38 75.2,83.76z"/>
   <path class="fil15" d="M13915.04 18168.6c86.19,20.07 136.77,-82.99 161.68,-154.59 -143.64,-0.34 -213.43,23.33 -161.68,154.59z"/>
   <path class="fil11" d="M16236.27 17758.75c95.18,-72.59 206.82,-226.9 234.73,-328.13 -32.71,24.83 -38.83,23.83 -79.05,71.28 -15.14,17.86 -37.3,50.73 -58.9,81.44 -49.24,70.01 -63.77,90.48 -96.77,175.41z"/>
   <path class="fil11" d="M8770.02 15713.6l5.36 -35.04c-28.93,-47.98 -0.23,-18.71 -39.92,-56.5l-178.43 -119.34c46.63,87.22 130.46,165.21 212.99,210.88z"/>
   <line class="fil16 str3" x1="6001.5" y1="6994.55" x2="9982.35" y2= "3691.43" />
   <line class="fil16 str3" x1="10453.2" y1="3620.1" x2="13906.13" y2= "5510.65" />
   <line class="fil16 str3" x1="14359.15" y1="5492.81" x2="14944.15" y2= "4740.15" />
   <line class="fil16 str3" x1="15304.43" y1="4458.36" x2="20505.22" y2= "1911.47" />
   <line class="fil16 str3" x1="5402.23" y1="6955.3" x2="20441" y2= "6869.69" />
   <path class="fil17" d="M10207.08 3324.02c110.33,0 199.76,89.04 199.76,198.86 0,109.83 -89.43,198.87 -199.76,198.87 -110.33,0 -199.76,-89.04 -199.76,-198.87 0,-109.82 89.43,-198.86 199.76,-198.86z"/>
   <path class="fil17" d="M14152.26 5463.38c110.33,0 199.76,89.03 199.76,198.86 0,109.83 -89.43,198.86 -199.76,198.86 -110.31,0 -199.75,-89.03 -199.75,-198.86 0,-109.83 89.43,-198.86 199.75,-198.86z"/>
   <path class="fil17" d="M15041.33 4283.57c110.33,0 199.76,89.03 199.76,198.86 0,109.83 -89.43,198.86 -199.76,198.86 -110.31,0 -199.76,-89.03 -199.76,-198.86 0,-109.83 89.44,-198.86 199.76,-198.86z"/>
   <polygon class="fil18" points="7365.86,6341.76 6748.73,6341.76 6748.73,6947.64 7365.86,6947.64 "/>
   <polygon class="fil18" points="8321.83,5524.9 7718.94,5524.9 7718.94,6942.11 8321.83,6942.11 "/>
   <polygon class="fil18" points="9302.77,4722.31 8699.97,4722.31 8699.97,6936.53 9302.77,6936.53 "/>
   <polygon class="fil18" points="10294.41,3941.12 9691.59,3941.12 9691.59,6930.89 10294.41,6930.89 "/>
   <polygon class="fil18" points="10647.54,4148.02 11289.61,4148.02 11289.61,6921.79 10647.54,6921.79 "/>
   <polygon class="fil18" points="11624.92,4690.21 12259.9,4690.21 12259.9,6916.27 11624.92,6916.27 "/>
   <polygon class="fil18" points="12580.9,5175.34 13215.92,5175.34 13215.92,6910.82 12580.9,6910.82 "/>
   <polygon class="fil18" points="13590.38,5649.76 14214.6,5649.76 14214.6,6905.14 13590.38,6905.14 "/>
   <polygon class="fil18" points="15206.27,5203.87 14592.63,5203.87 14592.63,6902.98 15206.27,6902.98 "/>
   <polygon class="fil18" points="16133.7,4344.21 15530.94,4344.21 15530.94,6897.64 16133.7,6897.64 "/>
   <polygon class="fil18" points="17132.48,3805.59 16497.57,3805.59 16497.57,6892.14 17132.48,6892.14 "/>
   <polygon class="fil18" points="18088.45,3377.53 17467.74,3377.53 17467.74,6886.62 18088.45,6886.62 "/>
   <polygon class="fil18" points="19065.82,2863.87 18416.74,2863.87 18416.74,6881.22 19065.82,6881.22 "/>
   <polygon class="fil18" points="20050.34,2378.76 19408.32,2378.76 19408.32,6875.57 20050.34,6875.57 "/>
   <rect class="fil19" x="1012.5" y="17504.75" width="4659.07" height="4659.07" rx="455.82" ry="413.96"/>
   <rect class="fil19" x="24449.41" y="3603.56" width="4121.4" height="4121.4" rx="403.22" ry="366.19"/>
   <rect class="fil19" x="25022.88" y="27006.38" width="3385.35" height="3385.35" rx="331.21" ry="300.79"/>
  </g>
 </g>
</svg>
