<?xml version="1.0" encoding="UTF-8"?>
<!DOCTYPE svg PUBLIC "-//W3C//DTD SVG 1.1//EN" "http://www.w3.org/Graphics/SVG/1.1/DTD/svg11.dtd">
<!-- Creator: CorelDRAW 2018 (64-Bit Evaluation Version) -->
<svg xmlns="http://www.w3.org/2000/svg" xml:space="preserve" width="440.267mm" height="321.733mm" version="1.1" style="shape-rendering:geometricPrecision; text-rendering:geometricPrecision; image-rendering:optimizeQuality; fill-rule:evenodd; clip-rule:evenodd"
viewBox="0 0 44698.79 32664.51"
 xmlns:xlink="http://www.w3.org/1999/xlink">
 <defs>
  <style type="text/css">
   <![CDATA[
    .str1 {stroke:#3B9CFF;stroke-width:214.9;stroke-miterlimit:22.9256;stroke-opacity:0.188235}
    .str0 {stroke:#3B9CFF;stroke-width:214.9;stroke-miterlimit:22.9256;stroke-opacity:0.278431}
    .fil10 {fill:none}
    .fil1 {fill:none}
    .fil16 {fill:#FEFEFE}
    .fil2 {fill:#3B9CFF;fill-opacity:0.129412}
    .fil0 {fill:#99E7FF;fill-opacity:0.129412}
    .fil14 {fill:#00C2FF;fill-opacity:0.168627}
    .fil3 {fill:#3B9CFF;fill-opacity:0.200000}
    .fil5 {fill:#3B9CFF;fill-opacity:0.250980}
    .fil12 {fill:#3B9CFF;fill-opacity:0.301961}
    .fil11 {fill:#99E7FF;fill-opacity:0.301961}
    .fil13 {fill:#3B9CFF;fill-opacity:0.341176}
    .fil6 {fill:#3B9CFF;fill-opacity:0.380392}
    .fil4 {fill:#99D2FF;fill-opacity:0.380392}
    .fil8 {fill:#3B9CFF;fill-opacity:0.450980}
    .fil7 {fill:#99D2FF;fill-opacity:0.470588}
    .fil9 {fill:white;fill-opacity:0.788235}
    .fil15 {fill:#B4DCFF}
   ]]>
  </style>
 </defs>
 <g id="Layer_x0020_1">
  <metadata id="CorelCorpID_0Corel-Layer"/>
  <g id="_2574143458416">
   <polygon class="fil0" points="-0,0 44698.79,0 44698.79,32664.51 -0,32664.51 "/>
   <path class="fil1 str0" d="M15896.12 25554.15l155.07 515.8 -574.48 -20.27c-73.34,27.54 -152.82,42.66 -235.87,42.66 -368.41,0 -667.07,-296.66 -667.07,-662.6 0,-365.94 298.66,-662.6 667.07,-662.6 368.41,0 667.07,296.66 667.07,662.6 0,42.54 -4.08,84.11 -11.8,124.42z"/>
   <polygon class="fil1 str0" points="31207.99,24903.74 32185.96,24906.83 32185.97,25949.99 31720.36,25531.39 31205.61,25955.73 "/>
   <path class="fil2" d="M22637.27 12457.79l-6070.39 3.43 8.88 1339.95 862.55 1.58c2.47,61.03 2.9,117.32 1.95,178.37 -0.11,7.4 -0.24,84.31 0.04,85.81 15.47,81.69 -25.76,32.18 36.8,64.54l-0.06 -331.85c164.24,2.92 498.14,-14.87 647,23.16 34.01,8.69 108.7,-22.42 282.8,-21.19 315.6,2.21 513.89,17.34 798.91,0.2 53.63,-3.23 119.27,-0.17 174.16,-0.06l3423.43 0.41c-49.03,122.2 -217.1,231.54 -302.32,333.45l32.8 0.16c39.47,-76.63 151.21,-174.58 218.02,-242.99 119.91,-122.79 172.88,-91.34 390.28,-91.01 151.36,0.23 302.72,0.02 454.08,0 177.2,-0.02 339.45,-34.46 413,67.63l1.54 -17.93c0.42,-1.59 1.39,-8.89 1.98,-10.86l3653.45 -38.79c-56.71,137.96 -214.18,213.9 -297.94,333.95l27.46 0.17c30.49,-68.67 135.82,-161.74 208.22,-234.43 116.09,-116.52 126.37,-101.53 338.24,-99.97 143.95,1.06 288.51,0.71 432.49,0.2 247.26,-0.87 228.45,-17.13 369.84,91.09 -49.65,-60.72 -26.6,-19.44 -56.16,-91.77l594.44 0.75 0.11 329.05c40.61,-39.13 32.86,28.47 38.28,-105.72l-0.59 -223.55 871.88 -1.4 0.42 -1340.23 -5656.18 0.6c-89.1,8.9 -180.13,9.19 -270.04,4.95 -405.91,-19.11 -1318.84,40.47 -1629.37,-7.71z"/>
   <path class="fil3" d="M23156.07 18404.13c25.72,-65.79 187.91,-216.72 245.44,-262.1 67.86,22.43 242.85,196.97 268.18,262.38l-513.62 -0.27zm119.02 -426.63l272.52 -12.24c-42.53,72.03 -55.62,57.81 -106.8,129.45 -117.82,-30.11 -75.03,-40.64 -165.72,-117.2zm0 0l112.42 132.64c-23.09,65.5 -32.12,64 -85.54,116.97 -159.97,158.59 -142.51,178.14 -353.43,178.82 -238,0.77 -476.43,-0.76 -714.5,-0.75 -475.68,0.01 -951.37,-0.2 -1427.05,-0.04 -482.89,0.16 -965.77,0.03 -1448.66,0.04 -419.26,0 -947.61,-18.27 -1344.05,1.22 64.03,414.95 374.92,750.97 824.68,771.93l31.81 89.57 12.88 -82.75 755.76 -0.67 163.65 153.54c22.27,-29.97 12.12,9.07 25.73,-59.97 4.81,-24.45 3.95,-67.74 5.09,-98.37l7166.08 10.18c123.29,-24.53 -2.01,42.66 156.07,6.66 77.83,-17.73 158.05,-12.12 245.6,-12.04 172.62,0.18 353.72,5.19 525.17,0.15l3.75 188.9c41.52,-35.25 30.88,-122.13 43.4,-193.52 427.87,-66.02 703.69,-354.15 772.35,-774.26l-1344.64 -0.56c-1157.08,0.05 -2423.91,17.02 -3567.64,0.39 -151.36,-2.2 -158.17,-24.67 -234.69,-104.05 -62.12,-64.46 -128.72,-106.62 -162.55,-191.37 140.86,-195.3 213.17,-145.65 527,-145.61 324.03,0.03 1848.26,30.46 1943.21,-24.87l11 -17.31c-102.56,36.69 -4968.16,38.03 -5075.59,0.21l11 18.67c160.83,86.51 2031.97,-21.21 2421.69,36.27z"/>
   <path class="fil4" d="M22637.27 12457.79c310.53,48.17 1223.46,-11.4 1629.37,7.71 89.91,4.23 180.94,3.95 270.04,-4.95l221.39 -1594.84 123.48 -14.59 -2.04 -410.81 -1268.76 4.84 -123.61 -5.73 -1193.07 0.18 -1.44 409.6 141.29 22.25c-37.28,209.06 186.44,1258.42 203.35,1586.33z"/>
   <path class="fil4" d="M22533.85 14135.76l3458.06 2.1 3.14 1295.55 306.82 -31.57 -2.19 1263.58c0,271.52 5.05,965.08 -36.19,1225.85 -7.69,48.61 -4.87,38.74 -5.47,35.28 -0.45,-2.71 -1.51,11.14 -2.3,16.85l-348.7 -3.74c-94.95,55.33 -1619.17,24.9 -1943.22,24.86 -313.83,-0.02 -386.14,-49.67 -526.99,145.62 33.84,84.74 100.43,126.91 162.55,191.36 76.52,79.39 83.33,101.86 234.68,104.06 1143.74,16.64 2410.58,-0.35 3567.66,-0.39l1344.64 0.56c416.68,0.78 361.2,-281.7 290.85,-373.82 -111.63,-146.15 -466.39,-88.82 -676.69,-89.09l6.62 -92.03 -33.7 51.83c-15.72,24.87 6,-0.45 -23.62,38.53 -57.38,1.55 -115.02,3.81 -171.79,-2.36 -169.27,-18.41 -108.18,8.68 -283.45,6.5 -142.76,-1.79 -114.9,-10.65 -129.34,-34.5 -58.85,41.41 -62.64,33.21 -171.28,33.31l-1256.49 -1.55 6.66 -3806.94 3857.84 -44.64c83.76,-120.05 -26.19,-152.84 30.52,-290.8l-6179.7 40.42c-0.6,1.98 -1.58,9.26 -2,10.86l-1.54 17.93c-73.54,-102.09 -235.78,-67.65 -412.99,-67.63 -151.36,0.03 -302.72,0.22 -454.08,0 -217.4,-0.32 -270.38,-31.78 -390.28,91.02 -66.81,68.4 -178.54,166.36 -218.01,242.98z"/>
   <path class="fil4" d="M18014.28 18406.4c396.44,-19.49 924.79,-1.22 1344.05,-1.22 482.89,-0.01 965.77,0.12 1448.66,-0.04 475.68,-0.16 951.37,0.05 1427.05,0.04 238.07,-0.01 476.51,1.52 714.5,0.75 210.92,-0.68 193.47,-20.22 353.43,-178.82 53.41,-52.97 62.45,-51.46 85.54,-116.97l-112.42 -132.64c90.69,76.56 47.9,87.09 165.72,117.2 51.18,-71.64 64.27,-57.41 106.8,-129.45l-272.52 12.24c-389.72,-57.47 -2260.87,50.25 -2421.69,-36.27l-356.81 0.18c-71.67,35.73 -73.05,27 -186.77,26.59 -179.19,-0.64 -1130.15,18.32 -1224.85,-13.51l-30.03 -18.88c3.39,-32.35 11.46,-25.33 -19.32,-25.33 -44.68,39.65 31.63,17.53 -87.82,33.76 -2.59,0.35 -82.21,0.45 -87.36,0.12l-141.63 -15.58c-173.44,8.61 -184.16,31.44 -319.24,-34.3l-14.23 44.58c-222.57,14.91 -561.09,-57.22 -671.89,105.47 -59.8,87.81 -52.35,201.79 23.13,282.43 73.17,78.17 149.01,76.33 277.71,79.65z"/>
   <path class="fil5" d="M18399.57 17894.28c135.08,65.74 145.8,42.91 319.24,34.3l141.63 15.58c5.16,0.32 84.77,0.22 87.36,-0.12 119.45,-16.22 43.14,5.89 87.82,-33.76 -62.72,-126.84 -104.85,-182.05 -130.35,-355.84 -40.48,-65.88 -32.87,-107.73 -32.8,-200.8 0.81,-1032.25 22.22,-2229.63 -0.8,-3219.92l-490.93 4.01c31.87,601.58 2.89,1286.02 2.89,1896.72 0,317.12 0,634.24 0,951.36 0,234.35 -24.34,710.74 15.94,908.47z"/>
   <path class="fil5" d="M27851.74 17560.75c-21.3,177.26 -62.61,211.23 -126.54,349.86 14.45,23.98 -13.41,32.89 129.34,34.68 175.28,2.2 114.19,-25.04 283.45,-6.53 56.77,6.2 114.41,3.94 171.79,2.38 29.62,-39.21 7.9,-13.74 23.62,-38.76l33.69 -52.11 11.83 -3732.92 -486.61 -2.54c-52.49,465.05 64.44,3306.99 -40.57,3445.95z"/>
   <path class="fil4" d="M17477.11 14131.47l903.63 6.26 490.93 -4.01c23.03,990.29 1.61,2187.67 0.8,3219.92 -0.07,93.07 -7.68,134.92 32.8,200.8l-6.56 -3418.25 1555.3 -3.21 28 -0.87 265.73 1.62 26.74 2.05 1726.55 -0.19c85.21,-101.91 253.29,-211.26 302.32,-333.45l-3423.43 -0.41c-54.89,-0.11 -120.53,-3.17 -174.16,0.06 -285.03,17.14 -483.32,2.01 -798.91,-0.2 -174.1,-1.23 -248.79,29.88 -282.8,21.19 -148.86,-38.03 -482.76,-20.23 -647,-23.16l0.06 331.85z"/>
   <path class="fil4" d="M23260.21 7884.94c63.98,-170.27 -20.23,-136.07 -50.94,-254.84 26.65,-39.96 24.69,-18.69 64.1,-39.44 39.38,-8.2 53.77,-4.03 92.63,-67.57 267.05,-436.58 -1077.4,-932.15 -1692.87,-353.62 8.62,7.42 10.25,11.43 38.12,26.24 326.57,173.49 330.78,446.61 587.41,687.35 320.54,300.69 904.22,214.61 961.53,1.88z"/>
   <path class="fil4" d="M23250.37 9338.21c72.25,-126.97 -14.91,-169.35 -40.53,-260.48 24.34,-35.87 27.29,-19.85 61.13,-39.54 225.82,-52.2 92.28,-319.63 -4.62,-414.34 -382.92,-374.35 -1244.01,-341.85 -1605.74,2.38 108.22,49.76 114.08,25.93 195.63,110.18 62.77,64.85 101.31,116.83 152.38,193.72 207.58,312.6 339.17,568.88 765.43,593.5 174.93,10.1 484.56,-56.06 476.31,-185.42z"/>
   <path class="fil4" d="M23841.13 9235.23c161.42,41.76 38.4,15.66 53.21,154.83l14.13 50.51c3.11,16.74 -18.8,75.26 132.65,115.56 85.09,22.64 176.72,20.99 263.39,5.72 318.37,-56.09 424.81,-255.97 545.55,-533.41 87.13,-200.2 78.82,-183.38 206.68,-291.87l38.04 -37.55c-299.07,-125.1 -560.99,-169.97 -900.37,-46.01 -200.89,73.37 -646.81,372.86 -353.29,582.23z"/>
   <path class="fil4" d="M23848.1 7776.32c115.24,48.46 7.26,-28.57 50.83,33.87l-1.2 153.19c0.83,6.49 7.92,33.27 9.67,40.26 43.43,118.14 235.2,141.88 397.92,112.47 542.4,-98.03 414.77,-551.81 740.8,-815.1 67.32,-54.37 13.43,-4.97 48,-48.56 -305.6,-115.97 -580.06,-181.11 -930.53,-35.16 -478.86,199.41 -473.98,548.53 -315.49,559.03z"/>
   <path class="fil4" d="M25995.04 15433.41c11.91,425.53 1.88,864.59 1.88,1292.94 0,216.19 0.79,432.5 0.1,648.67 -0.82,260.15 -55.54,351.17 -79.03,547.33l-11 17.31 348.7 3.74c0.79,-5.72 1.86,-19.56 2.3,-16.85 0.6,3.46 -2.21,13.33 5.47,-35.28 95.41,-603.39 29.28,-1810.44 38.39,-2489.43l-306.82 31.57z"/>
   <path class="fil6" d="M23260.21 7884.94c39.49,27.91 19,-7.48 57.08,61.03 13.73,24.7 21.06,51.5 29.12,78.62 74.23,249.65 148.66,1250.76 129.67,1451.06 -24.33,-136.51 -171.68,-311.75 -205.1,-437.47 -33.84,19.7 -36.79,3.68 -61.13,39.54 25.62,91.13 112.78,133.51 40.53,260.48 64.69,17.55 48.99,11.41 80.81,85.51 52.46,122.13 80.13,263.29 104.33,394.37 36.8,199.36 59.2,410.35 51.64,621.33l123.61 5.73c-1.99,-189.34 32.06,-390.78 81.26,-563.99 25.13,-88.44 52.04,-161.22 85.42,-239.39 31.53,-73.83 51.68,-166.95 131.04,-201.2l-14.13 -50.51c-14.81,-139.17 108.21,-113.07 -53.21,-154.83l-223.65 448.47c-6.57,-271.77 33.79,-642.3 67.26,-912.59 17.49,-141.36 37.43,-291.81 64.97,-429.66 20.79,-104.16 60.45,-330.31 157.69,-337.81 -1.75,-6.99 -8.83,-33.77 -9.67,-40.26l1.2 -153.19c-43.58,-62.44 64.41,14.59 -50.83,-33.87 -59.16,228.97 -157,131.18 -255.66,811.22 -2.56,17.66 -6.96,60.46 -10.62,74.6l-30.81 72.91c-22.91,-912.52 -241.8,-963.31 -277.62,-1144.39 -39.41,20.75 -37.45,-0.52 -64.1,39.44 30.7,118.78 114.92,84.57 50.94,254.84z"/>
   <path class="fil4" d="M27930.55 19373.53l-3.75 -188.9c-171.45,5.04 -352.55,0.03 -525.17,-0.15 -87.56,-0.08 -167.77,-5.69 -245.6,12.04 -158.08,36 -32.77,-31.19 -156.07,-6.66 -29.3,167.9 32.46,287.22 102.29,392.27l731.85 -6.1c66.21,-57.68 95.03,-94.99 96.44,-202.49zm-4774.47 -969.4l513.62 0.27c-25.33,-65.4 -200.32,-239.95 -268.18,-262.38 -57.54,45.38 -219.72,196.31 -245.44,262.1zm-4285.31 863.77c-12.23,134.93 41.63,231.11 98.55,314.5l739.58 -2.94c64.67,-83.54 101.2,-122.86 94.17,-241.44l-163.65 -153.54 -755.76 0.67 -12.88 82.75z"/>
   <polygon class="fil5" points="20565.71,14121.64 20861.22,14121.64 20861.22,17930.81 20565.71,17930.81 "/>
   <path class="fil7" d="M10827.33 20889.5l0 332.72 -47.41 0 47.41 -332.72zm0 0l0 -1472.73c235.27,62.75 89.59,547.01 70.62,848.04 -25.63,403.54 233.25,218.72 688.85,196.73 741.91,-36.12 2982.77,-393.46 3719.84,-556.28 467.3,-103.1 1351.26,-412.22 1697.09,-441.07 -867.81,754.22 -4320.52,1187.83 -6128.78,1187.83l-47.63 237.48zm6176.4 -1425.31l0 0zm142.45 -95.03c50.45,-50.45 180.19,75.46 52.86,24.81 -1.01,-0.4 -132.36,54.89 -52.86,-24.81zm-2613.13 -1852.86c50.65,-50.45 180.38,75.46 53.07,24.81 -1.21,-0.4 -132.56,54.89 -53.07,-24.81zm-332.51 -47.41c51.85,-51.86 258.26,73.24 74.25,22.79 -1.41,-0.41 -15.53,-4.44 -17.55,-5.05 -5.45,-1.61 -139.43,64.98 -56.69,-17.75zm-332.52 -47.63c21.58,-21.38 281.27,-96.04 157.99,27.24 -9.28,9.09 39.54,10.5 -49.84,-4.44 -9.89,-1.61 -195.52,64.76 -108.15,-22.8zm-3468.24 0c84.54,-84.34 -84.54,84.54 0,0zm332.52 -47.41l-237.48 35.72 237.48 -35.72zm-760.07 -1045.18c295.19,216.3 380.14,1460.42 380.14,2042.93l-47.62 0 51.24 -8.67 -383.76 -2034.26zm0 0l0 0zm760.07 1045.18l1994.5 -160.01c5.66,-2303.01 192.7,-1947.49 851.07,-2260.03 1.22,-0.61 284.9,254.44 114,109.36 -2.82,-2.43 -110.17,-111.78 -108.96,-112.39 -140.23,-292.16 -178.97,-2306.04 -239.91,-2848.2 -144.46,-1287.09 -139.02,-1486.04 -1792.33,-1322 -909.78,90.19 -2048.98,-5.25 -2982.77,105.53 -1040.54,123.28 -2119.4,-160.41 -2823.98,311.53 1.01,1.61 -48.43,141.03 -47.62,142.45 1.41,2.42 48.02,-141.45 49.64,-139.22 368.43,551.24 384.78,380.53 622.26,1082.7 141.84,419.08 294.59,899.29 425.93,1332.09 136.81,450.96 280.67,889 417.47,1340.16 195.72,644.86 126.11,820.4 724.16,1033.88 1549.4,553.05 1540.72,-86.76 1736.03,1731.99 102.9,958.01 62.95,2453.53 62.95,3452.9l-47.62 0c0,-1085.73 -39.34,-2297.76 -130.95,-3289.87 -176.75,-1914.6 21.8,-1240.69 -1645.44,-1822.6 -626.9,-218.72 -518.95,-378.72 -723.55,-986.86 -154.96,-459.83 -275.21,-872.26 -427.75,-1330.07 -164.65,-493.53 -686.83,-2304.62 -1063.13,-2405.11 17.15,206.01 379.73,955.78 480.41,1229.99 151.73,413.64 260.08,900.91 395.47,1362.37 258.67,881.54 618.63,1751.16 835.14,2633.1 203.78,830.28 233.44,2168.83 347.04,3121.19 94.23,790.13 338.98,500.39 190.47,1360.54 -88.77,514.52 -415.85,987.06 -443.09,1315.15 614.4,13.72 562.34,123.68 840.38,-442.48 190.07,-387 241.32,-575.05 347.25,-1030.44 306.89,147.09 1571.79,797.2 1800.2,831.1l-566.77 2173.88c607.73,140.43 640.42,-7.68 853.09,-585.95 156.97,-426.53 289.14,-789.12 289.14,-1373.66 1076.84,0 2043.33,-80.7 2953.12,-230.02 1025.2,-168.27 1664.2,-475.57 2510.43,-672.7 0,503.01 149.51,854.7 292.16,1227.97 207.83,543.37 274.01,616 848.04,482.23l-559.51 -1937.61c890.01,-461.65 658.18,-535.5 752.81,-1717.48 88.18,-1103.69 64.16,-931.57 -1048.4,-1190.85 0,-459.63 -48.21,-639.41 -9.08,-1052.84 158.59,-1671.27 333.53,-1385.36 -1674.69,-1634.35 -2036.88,-252.62 -2307.05,-275.21 -2307.05,2022.15l1001.59 167.67 -3092.14 -25.22z"/>
   <path class="fil8" d="M10827.33 20889.5l0 332.72 -47.41 0 47.41 -332.72zm6916.01 -570.32c-83.5,170.61 -257.6,296.51 -632.42,491.32l-1.67 -5.75c372.51,-193.22 548.43,-318.54 634.08,-485.57zm-81.19 2424.7l2.14 7.43c-574.03,133.77 -640.22,61.14 -848.04,-482.23 -142.66,-373.27 -292.16,-724.96 -292.16,-1227.97 -846.22,197.12 -1485.23,504.42 -2510.43,672.7 -908.53,149.11 -1873.61,229.79 -2948.67,230.01l0.03 -8.94c1076.84,0 2043.33,-80.7 2953.12,-230.02 1025.2,-168.27 1664.2,-475.57 2510.43,-672.7 0,503.01 149.51,854.7 292.16,1227.97 207.01,541.25 273.56,615.4 841.42,483.75zm-7043.61 961.2c-123.18,250.95 -262.63,299.46 -700.22,198.34l566.77 -2173.88c-227.9,-33.83 -1487.59,-681.07 -1798.05,-830.06l2.32 -9.99c306.89,147.09 1571.79,797.2 1800.2,831.1l-566.77 2173.88c432.31,99.89 573.63,53.71 695.74,-189.39zm-2338.35 -1659.81c-216.5,433.74 -214.67,338.79 -782.92,326.1 27.24,-328.08 354.32,-800.63 443.09,-1315.15 148.5,-860.14 -96.25,-570.41 -190.47,-1360.54 -48.41,-405.81 -81.59,-881.74 -119.47,-1358.59l-7.57 -94.55 -23 -273.1c-3.42,-38.84 -6.91,-77.57 -10.48,-116.14 -43.7,-472.73 -99.09,-922.56 -186.52,-1278.82 -216.51,-881.94 -576.47,-1751.57 -835.14,-2633.1 -135.39,-461.46 -243.73,-948.73 -395.47,-1362.37 -100.68,-274.2 -463.27,-1023.98 -480.41,-1229.99 -0.81,-1.42 48.62,-140.84 47.62,-142.45l2.42 -1.56c-9.25,29.04 -46.26,133.83 -45.56,135.06 1.29,2.21 40.53,-118.36 48.34,-136.86l2.01 -1.31c367.73,549.94 384.22,379.93 621.55,1081.64 141.84,419.08 294.59,899.29 425.93,1332.09 136.81,450.96 280.67,889 417.47,1340.16 195.72,644.86 126.11,820.4 724.16,1033.88 1549.4,553.05 1540.72,-86.76 1736.03,1731.99 102.9,958.01 62.95,2453.53 62.95,3452.9l-47.62 0c0,-1085.73 -39.34,-2297.76 -130.95,-3289.87 -176.75,-1914.6 21.8,-1240.69 -1645.44,-1822.6 -626.9,-218.72 -518.95,-378.72 -723.55,-986.86 -154.96,-459.83 -275.21,-872.26 -427.75,-1330.07 -164.65,-493.53 -686.83,-2304.62 -1063.13,-2405.11 17.15,206.01 379.73,955.78 480.41,1229.99 151.73,413.64 260.08,900.91 395.47,1362.37 258.67,881.54 618.63,1751.16 835.14,2633.1 203.78,830.28 233.44,2168.83 347.04,3121.19 94.23,790.13 338.98,500.39 190.47,1360.54 -88.77,514.52 -415.85,987.06 -443.09,1315.15 564.31,12.6 566.43,106.32 778.45,-317.15zm5296 -7090.7c0.74,1.68 1.49,3.58 2.24,5.16 -0.54,0.26 20.07,21.72 43.51,45.81 35.41,31.75 81.18,73.24 104.7,95.49 -771.99,53.77 -903.81,526.95 -903.81,2130.36l1001.59 167.67 -3092.14 -25.22 1994.5 -160.01c5.66,-2301.04 192.38,-1948.13 849.39,-2259.26zm-2748.86 5934.92l0 -1472.73c235.27,62.75 89.59,547.01 70.62,848.04 -25.63,403.54 233.25,218.72 688.85,196.73 741.91,-36.12 2982.77,-393.46 3719.84,-556.28 467.3,-103.1 1351.26,-412.22 1697.09,-441.07 -867.81,754.22 -4320.52,1187.83 -6128.78,1187.83l-47.63 237.48zm6176.4 -1425.31l0 0zm142.45 -95.03c50.45,-50.45 180.19,75.46 52.86,24.81 -1.01,-0.4 -132.36,54.89 -52.86,-24.81zm-2613.13 -1852.86c50.65,-50.45 180.38,75.46 53.07,24.81 -1.21,-0.4 -132.56,54.89 -53.07,-24.81zm-332.51 -47.41c51.85,-51.86 258.26,73.24 74.25,22.79 -1.41,-0.41 -15.53,-4.44 -17.55,-5.05 -5.45,-1.61 -139.43,64.98 -56.69,-17.75zm-332.52 -47.63c21.58,-21.38 281.27,-96.04 157.99,27.24 -9.28,9.09 39.54,10.5 -49.84,-4.44 -9.89,-1.61 -195.52,64.76 -108.15,-22.8zm-3468.24 0c84.54,-84.34 -84.54,84.54 0,0zm332.52 -47.41l-237.48 35.72 237.48 -35.72zm-760.07 -1045.18c295.19,216.3 380.14,1460.42 380.14,2042.93l-47.62 0 51.24 -8.67 -383.76 -2034.26zm0 0l0 0z"/>
   <path class="fil9" d="M24389.66 26648.99l3097.49 0 779.62 -680.51 844.34 680.51 7205.4 0c364.44,0 662.6,298.16 662.6,662.6l0 3277.2c0,364.44 -298.16,662.6 -662.6,662.6l-11926.84 0c-364.44,0 -662.6,-298.16 -662.6,-662.6l0 -3277.2c0,-364.44 298.16,-662.6 662.6,-662.6z"/>
   <path class="fil2" d="M25083.63 27483.37l8201.94 0c113.27,0 205.95,92.67 205.95,205.95l0 0c0,113.27 -92.67,205.95 -205.95,205.95l-8201.94 0c-113.27,0 -205.95,-92.67 -205.95,-205.95l0 0c0,-113.27 92.67,-205.95 205.95,-205.95z"/>
   <path class="fil2" d="M25092.59 28405.64l8201.94 0c113.27,0 205.95,92.67 205.95,205.95l0 0c0,113.27 -92.67,205.95 -205.95,205.95l-8201.94 0c-113.27,0 -205.95,-92.67 -205.95,-205.95l0 0c0,-113.27 92.67,-205.95 205.95,-205.95z"/>
   <path class="fil2" d="M25164.22 30035.28l2892.16 0c113.27,0 205.95,92.67 205.95,205.95l0 0c0,113.27 -92.67,205.95 -205.95,205.95l-2892.16 0c-113.27,0 -205.95,-92.67 -205.95,-205.95l0 0c0,-113.27 92.67,-205.95 205.95,-205.95z"/>
   <polyline class="fil10 str1" points="35282.27,28325 35828.48,28907.02 35318.09,29565.15 "/>
   <path class="fil11" d="M30612.86 21525.82l1730.39 -5.11 7.14 91.38 -1744.8 1.07c-2.18,-47.96 -6.42,-54.53 7.27,-87.34zm-5.43 -302.48l1740.13 -6.24 -0.23 91.28 -1734.2 1.9c-14.53,-38.93 -11.66,-42.52 -5.7,-86.94zm1738.88 -307.64l2.5 91.65 -1744.29 -4.79c-0.2,-26.09 -2.47,-58.57 10.58,-88.73l1731.21 1.88zm-1740.31 -304.82l1743.44 2.21 -3.58 91.29 -1740.13 -4.89 0.27 -88.61zm1145.31 1842.91c1014.8,0 1716.04,-128.84 1927.66,-1176.46 38.29,-189.52 107.43,-763.25 76.79,-949.08 -557.54,-330.1 -1447.13,-583.97 -2222.24,-583.97 -519.44,0 -863.84,49.31 -1344.3,178.18 -376.12,100.89 -683.42,249.55 -993.37,405.48 -22.47,264.98 27.15,740.03 76.13,995.37 49.8,259.48 156.61,567.37 340,740.04 484.85,456.5 1473.27,390.45 2139.32,390.45z"/>
   <path class="fil11" d="M30822.56 16872.71c127.08,-103.69 450.52,-173.77 653.43,-174.76 195.91,-0.95 535.66,73.36 654.05,174.76 -7.55,52.62 -71.55,142.79 -97.53,189.59 -31.77,57.23 -73.88,137 -109.14,179.57 -61.78,-15.83 -128.56,-55.88 -201.15,-76.21 -380.36,-106.48 -598.96,59.29 -693.62,75.29 -29.87,-34.02 -199.12,-330.13 -206.04,-368.25zm-1623.75 3321.08l482.47 -217.45c602.94,-221.99 1114.51,-347.13 1794.7,-345.6 444.07,1.01 861.73,62.57 1261.46,167.62 268.29,70.52 535.61,171.06 783.06,284.11 61.08,27.91 181.78,101.05 234.04,112.07 34.35,-118.56 -38.33,-736.17 -59.02,-882.43 -73.13,-516.83 -226.65,-1012.42 -446.81,-1470.53 -67.92,-141.34 -352.34,-610.51 -439.98,-682.1 -135.89,332.37 -369.27,664.49 -707.59,996.37 -7.07,20.15 168.54,682.04 -361.83,907.2 -384.79,163.36 -824.17,-62.39 -925.81,-471.57 -121.16,-487.84 422.3,-882.36 938.61,-734.19 63.03,18.08 42.32,4.05 128.41,-93.23 187.41,-182.29 556.79,-646.99 574.44,-925.49 -112.98,-111.64 -514.62,-315.81 -704.51,-353.64 -607.26,-120.97 -1216.44,200.06 -1566.87,632.72 -67.65,83.52 -138.58,158.94 -202.32,256.29 -400.57,611.76 -629.25,1235.68 -728.89,1977.25 -22.2,165.23 -86,697.22 -53.57,842.58z"/>
   <path class="fil12" d="M36964.14 22360.76c18.97,-78.23 -112.77,-277.49 -151.57,-328.4 -58.75,-77.07 -161.07,-169.5 -274.04,-207.65 -347.22,-117.26 -1425.33,-118.47 -1759.52,3.39 -242.57,88.45 -440.43,449.77 -417.83,535.92l2602.96 -3.26z"/>
   <path class="fil11" d="M33111.6 22326.45c78.88,15.89 309.66,1.38 406.3,2.07 126.38,0.9 264.7,11.88 372.45,-36.21 256.17,-114.35 266.78,-323.06 266.77,-544.23 -0.01,-271.49 -0.08,-542.98 0.01,-814.48 0.04,-149.57 0.68,-229.34 -67.73,-342.09 -40.29,-66.38 -134.68,-163.83 -227.36,-176.05 -24.33,542.2 -48.38,1192.8 -394.71,1614.44 -58.82,71.62 -89.6,100.77 -168.23,164.66 -106.95,86.9 -182.71,93.71 -187.51,131.9z"/>
   <path class="fil11" d="M29091.05 20413.94c-104.98,23 -181.48,106.01 -227.46,178.43 -66.56,104.83 -67.25,187.66 -68.41,329.75 -2.18,267.32 -0.21,535.61 -0.13,803 0.05,220.23 5.67,430.91 246.81,553.28 141.49,71.8 566.52,56.31 751.81,47.4l-55.21 -44.91c-125.96,-68.47 -138.64,-102.13 -223.88,-177.36 -36.25,-31.99 -42.03,-45.48 -73.34,-87.46 -92.63,-124.17 -159.13,-264.88 -213.04,-441.5 -112.69,-369.24 -117.79,-756.61 -137.15,-1160.65z"/>
   <path class="fil12" d="M35291.04 21661.24c60,15.2 668.65,13.43 749.31,2.42l-1.91 -406.57c-70.95,-12.31 -693.61,-13.1 -750.21,2.69l2.81 401.47z"/>
   <path class="fil13" d="M33111.98 22324.19c0.19,-0.91 0.42,-1.82 0.7,-2.72 -0.28,0.89 -0.51,1.8 -0.7,2.72z"/>
   <polygon class="fil13" points="32364.28,16778.12 32364.2,16778.81 32363.95,16780.96 "/>
   <path class="fil13" d="M30019.6 22303.69l-0.12 0 -241.61 9.26 -0.01 0 -39.39 -32.04c-125.96,-68.47 -138.64,-102.13 -223.88,-177.36 -36.25,-31.99 -42.03,-45.48 -73.34,-87.46 -92.63,-124.17 -159.13,-264.88 -213.04,-441.5 -112.04,-366.27 -117.99,-750.38 -136.71,-1151.18l100.79 -39.34 0.17 -3.67c-12.8,271.48 33.62,703.64 79.54,942.9 49.8,259.48 156.61,567.37 340,740.04 112.27,105.72 251.58,183.37 407.61,240.34z"/>
   <polygon class="fil13" points="30022.66,22304.82 30019.62,22303.74 30019.48,22303.69 30019.6,22303.69 "/>
   <path class="fil13" d="M30052.51 22315.32c-7.1,-2.43 -14.14,-4.9 -21.17,-7.4 7.03,2.51 14.07,4.97 21.17,7.4z"/>
   <path class="fil13" d="M30083.24 22325.5c-7.29,-2.34 -14.54,-4.72 -21.76,-7.15 7.22,2.43 14.48,4.81 21.76,7.15z"/>
   <path class="fil13" d="M30120.91 22337.21c-9.81,-2.92 -19.55,-5.92 -29.24,-8.99 9.69,3.07 19.44,6.06 29.24,8.99z"/>
   <path class="fil13" d="M30151.45 22346.02c-8.27,-2.31 -16.51,-4.7 -24.71,-7.11 8.2,2.42 16.44,4.78 24.71,7.11z"/>
   <path class="fil13" d="M30182.52 22354.48c-7.45,-1.96 -14.86,-3.96 -22.24,-6 7.39,2.04 14.8,4.04 22.24,6z"/>
   <path class="fil13" d="M30221.46 22364.4c-9.8,-2.4 -19.53,-4.85 -29.24,-7.37 9.7,2.52 19.44,4.98 29.24,7.37z"/>
   <path class="fil13" d="M30253.16 22371.88c-8.19,-1.88 -16.36,-3.81 -24.5,-5.77 8.14,1.96 16.31,3.89 24.5,5.77z"/>
   <path class="fil13" d="M30284.72 22378.88c-7.21,-1.55 -14.4,-3.13 -21.57,-4.74 7.18,1.61 14.37,3.19 21.57,4.74z"/>
   <path class="fil13" d="M30321.43 22386.49c-8.38,-1.67 -16.74,-3.37 -25.07,-5.13 8.33,1.76 16.69,3.46 25.07,5.13z"/>
   <path class="fil13" d="M30425.73 22405.18c-8.04,-1.29 -16.06,-2.6 -24.06,-3.95 8,1.35 16.03,2.66 24.06,3.95z"/>
   <path class="fil13" d="M30466.34 22411.43c-10.58,-1.55 -21.13,-3.15 -31.64,-4.8 10.51,1.65 21.06,3.25 31.64,4.8z"/>
   <path class="fil13" d="M30575.6 22425.61c-10.48,-1.19 -20.93,-2.44 -31.36,-3.73 10.44,1.29 20.88,2.53 31.36,3.73z"/>
   <path class="fil13" d="M30609.14 22429.26c-9.58,-1.01 -19.16,-2.05 -28.71,-3.13 9.55,1.08 19.13,2.12 28.71,3.13z"/>
   <path class="fil13" d="M30685.11 22436.51c-10.21,-0.88 -20.42,-1.8 -30.61,-2.75 10.19,0.95 20.4,1.87 30.61,2.75z"/>
   <path class="fil13" d="M31796.64 22453.7c-15.05,0.06 -30.15,0.09 -45.33,0.09 15.19,0 30.29,-0.03 45.33,-0.09z"/>
   <path class="fil13" d="M31890.27 22452.88c-30.24,0.42 -60.78,0.68 -91.62,0.81 30.84,-0.13 61.37,-0.4 91.62,-0.81z"/>
   <path class="fil13" d="M31936.91 22452.11c-14.03,0.26 -28.13,0.51 -42.31,0.71 14.17,-0.2 28.28,-0.45 42.31,-0.71z"/>
   <path class="fil13" d="M31978.69 22451.16c-13.17,0.32 -26.38,0.63 -39.65,0.89 13.28,-0.26 26.48,-0.57 39.65,-0.89z"/>
   <path class="fil13" d="M32027.29 22449.77c-13.18,0.44 -26.42,0.81 -39.72,1.17 13.3,-0.36 26.54,-0.73 39.72,-1.17z"/>
   <path class="fil13" d="M32069.48 22448.26c-13.4,0.53 -26.87,1.02 -40.42,1.45 13.54,-0.44 27.02,-0.92 40.42,-1.45z"/>
   <path class="fil13" d="M32113.5 22446.35c-12.72,0.6 -25.51,1.17 -38.36,1.69 12.84,-0.52 25.64,-1.09 38.36,-1.69z"/>
   <path class="fil13" d="M32158.17 22444.07c-13.01,0.72 -26.08,1.4 -39.22,2.03 13.14,-0.63 26.21,-1.31 39.22,-2.03z"/>
   <path class="fil13" d="M32201.27 22441.47c-13.2,0.86 -26.48,1.67 -39.82,2.42 13.35,-0.75 26.62,-1.55 39.82,-2.42z"/>
   <path class="fil13" d="M32286.58 22435.11c-13.34,1.14 -26.76,2.21 -40.25,3.22 13.49,-1.02 26.9,-2.08 40.25,-3.22z"/>
   <path class="fil13" d="M32328.43 22431.32c-12.96,1.25 -26,2.44 -39.12,3.55 13.12,-1.12 26.16,-2.3 39.12,-3.55z"/>
   <path class="fil13" d="M32369.49 22427.12c-12.66,1.37 -25.39,2.67 -38.19,3.91 12.8,-1.24 25.54,-2.54 38.19,-3.91z"/>
   <path class="fil13" d="M32409.44 22422.55c-12.42,1.49 -24.9,2.92 -37.47,4.29 12.57,-1.37 25.05,-2.8 37.47,-4.29z"/>
   <path class="fil13" d="M32448.69 22417.57c-11.91,1.59 -23.87,3.12 -35.91,4.58 12.04,-1.46 24,-2.98 35.91,-4.58z"/>
   <path class="fil13" d="M32487.9 22412.06c-11.49,1.7 -23.05,3.33 -34.68,4.9 11.63,-1.57 23.2,-3.21 34.68,-4.9z"/>
   <path class="fil13" d="M32526.59 22406.06c-11.2,1.82 -22.46,3.58 -33.79,5.28 11.33,-1.7 22.59,-3.46 33.79,-5.28z"/>
   <path class="fil13" d="M32565.61 22399.41c-11.28,2.02 -22.64,3.97 -34.07,5.85 11.42,-1.88 22.79,-3.83 34.07,-5.85z"/>
   <path class="fil13" d="M32602.86 22392.43c-11.23,2.19 -22.52,4.33 -33.89,6.38 11.37,-2.05 22.67,-4.18 33.89,-6.38z"/>
   <path class="fil13" d="M32641.71 22384.48c-11.52,2.47 -23.13,4.86 -34.81,7.17 11.69,-2.3 23.29,-4.7 34.81,-7.17z"/>
   <path class="fil13" d="M32678.9 22376.18c-11.79,2.75 -23.66,5.4 -35.62,7.97 11.96,-2.57 23.83,-5.22 35.62,-7.97z"/>
   <path class="fil13" d="M32714.97 22367.4c-11.47,2.91 -23.03,5.73 -34.67,8.45 11.65,-2.73 23.2,-5.54 34.67,-8.45z"/>
   <path class="fil13" d="M32751.37 22357.79c-11.59,3.2 -23.28,6.27 -35.06,9.27 11.78,-3 23.46,-6.08 35.06,-9.27z"/>
   <path class="fil13" d="M32785.95 22347.89c-11.4,3.39 -22.92,6.67 -34.51,9.87 11.58,-3.2 23.11,-6.48 34.51,-9.87z"/>
   <path class="fil13" d="M32819.76 22337.43c-10.7,3.43 -21.47,6.77 -32.35,10.01 10.87,-3.24 21.65,-6.58 32.35,-10.01z"/>
   <path class="fil13" d="M32853.89 22326.06c-10.29,3.55 -20.66,7.03 -31.11,10.4 10.45,-3.37 20.82,-6.84 31.11,-10.4z"/>
   <path class="fil13" d="M32886.26 22314.45c-9.86,3.67 -19.78,7.24 -29.79,10.72 10.01,-3.48 19.94,-7.06 29.79,-10.72z"/>
   <path class="fil13" d="M32919.73 22301.53c-9.61,3.85 -19.3,7.6 -29.07,11.27 9.77,-3.67 19.45,-7.43 29.07,-11.27z"/>
   <path class="fil13" d="M32951.52 22288.35c-9.59,4.11 -19.25,8.14 -29,12.07 9.75,-3.93 19.4,-7.95 29,-12.07z"/>
   <path class="fil13" d="M33760.95 20375.49l0.02 0.01 99.64 72.24c-23.96,535.56 -53.78,1168.85 -393.26,1582.15 -58.82,71.62 -89.6,100.77 -168.23,164.66 -72.71,59.08 -131,81.12 -162.38,101.21l-162.89 -17.21c-6.24,2.81 -12.53,5.58 -18.83,8.3 361.6,-156.55 611.7,-453.73 723.96,-1009.52 35.45,-175.53 97.36,-680.57 81.98,-901.84z"/>
   <polygon class="fil13" points="33760.46,20368.58 33760.81,20373.25 33760.97,20375.5 33760.95,20375.49 "/>
   <path class="fil13" d="M33757.2 20337.82c0.4,2.85 0.77,5.79 1.12,8.79l-1.12 -8.79z"/>
   <path class="fil13" d="M33755.76 20328.25c0.48,2.87 0.92,5.85 1.35,8.9 -0.44,-3.07 -0.86,-6.03 -1.35,-8.9z"/>
   <path class="fil13" d="M33732.68 20314.75c7.32,4.2 14.55,8.47 21.73,12.71 -7.18,-4.23 -14.42,-8.48 -21.73,-12.71z"/>
   <path class="fil13" d="M33725.37 20185.17l0 0.01 -1.18 124.66 2.55 1.47c-559.05,-321.82 -1431.41,-567.04 -2193.22,-567.04 -519.44,0 -863.84,49.31 -1344.3,178.18 -370.63,99.59 -674.39,245.01 -979.79,398.65l-5.02 -129.84 476.88 -214.93c602.94,-221.99 1114.51,-347.13 1794.7,-345.6 444.07,1.01 861.73,62.57 1261.46,167.62 268.29,70.52 535.61,171.06 783.06,284.11 51.5,23.52 145.37,79.19 204.86,102.69z"/>
   <path class="fil14" d="M14992.13 2874.37l16775.48 0c610.67,0 1110.31,499.63 1110.31,1110.31l0 7637.98c-215.5,128.83 -409.25,291.93 -572.8,485.33l0 -7926.17c0,-339.78 -278,-617.78 -617.78,-617.78l-16726.36 0c-339.78,0 -617.78,278 -617.78,617.78l0 10947.18c-172.06,-15.61 -325.22,-24.68 -461.37,-24.37l0 -11119.95c0,-610.67 499.63,-1110.31 1110.31,-1110.31zm17885.78 9271.55l0 4016.08c-69.62,-334.56 -214.6,-665.13 -358.43,-1020.74 -79.35,-196.19 -154.96,-410.08 -214.37,-632.84l0 -1573.24c23.72,-63.27 51.18,-125.6 82.83,-186.75 112.03,-216.49 277.46,-427.64 489.98,-602.52zm0 4775.9l0 334.32 -5.82 10.67 -69.19 -105.99 1.19 -3.11c31.33,-80.02 55.68,-158.55 73.82,-235.89zm-563.68 2897.57l-9.13 -1.67 0 -0.03 9.13 1.7zm563.68 2498.05l0 3774.84c0,610.67 -499.63,1110.31 -1110.31,1110.31l-16775.48 0c-610.67,0 -1110.31,-499.63 -1110.31,-1110.31l0 -4357.4 2.06 -0.32 1.63 -0.24 0.44 -0.07 2.06 -0.32 2.07 -0.32 2.06 -0.32 2.07 -0.32 2.06 -0.31 2.06 -0.32 22.7 -3.58 2.06 -0.32 2.06 -0.32 2.06 -0.32 1.09 -0.17 0.97 -0.15 2.06 -0.34 2.06 -0.32 2.06 -0.32 18.54 -2.96 2.06 -0.34 2.06 -0.32 2.06 -0.34 2.05 -0.32 2.06 -0.34 2.06 -0.34 2.06 -0.32 2.05 -0.34 0.55 -0.08 1.51 -0.25 2.06 -0.32 2.05 -0.34 2.06 -0.34 2.05 -0.34 2.06 -0.34 2.05 -0.34 22.53 -3.68 0.08 -0.01 2.05 -0.34 2.06 -0.34 2.05 -0.34 0.01 0 0.68 -0.11c15.79,-2.6 31.48,-5.22 47.1,-7.88l0.18 -0.03c14.13,-2.41 28.18,-4.83 42.17,-7.3l4.86 -0.85 0.38 -0.07 1.2 -0.21c13.56,-2.39 27.07,-4.81 40.5,-7.26l4.61 -0.83 0.57 -0.11 1.88 -0.35c13.18,-2.42 26.3,-4.84 39.34,-7.3l5.13 -0.96 5.12 -0.96 35.64 -6.83 4.14 -0.8 0.92 -0.18 5.07 -0.99 30.23 -5.97 5.02 -0.99 5.02 -1.01 5.01 -1.02 5 -1.01 24.91 -5.08 4.96 -1.02 0.24 -0.05 4.71 -0.97 4.95 -1.03 0 527c0,339.78 278,617.78 617.78,617.78l2222.77 0 0.17 0.04 2.83 0.7c3.35,0.8 6.73,1.56 10.15,2.28l3.17 0.65c3.34,0.66 6.72,1.29 10.13,1.88l3.74 0.62c3.39,0.55 6.81,1.05 10.27,1.51l3.78 0.5c3.34,0.42 6.72,0.8 10.12,1.15l4.24 0.42c3.36,0.3 6.76,0.59 10.19,0.83l5.3 0.35c3.53,0.21 7.11,0.4 10.71,0.54l4.12 0.14c3.45,0.11 6.92,0.19 10.44,0.24l5.49 0.06c3.71,0.02 7.45,0.01 11.24,-0.04l4.68 -0.07c3.89,-0.07 7.83,-0.18 11.8,-0.32l5.02 -0.19c3.74,-0.16 7.52,-0.35 11.34,-0.57l6.91 -0.42c3.54,-0.22 7.11,-0.47 10.7,-0.75l7.49 -0.61 11.74 -1.07 4.62 -0.46 13.54 -1.45 6.45 -0.74 11.52 -1.43 7.6 -0.98 0.74 -0.1 4.72 -0.65 8.53 -1.19 5.86 -0.86 0.01 0 14254.21 0c247.6,0 462.36,-147.64 560.68,-359.22 234.24,-17.71 445.21,-53.34 629.9,-120.74zm-572.8 -705.33l0 -91.3 38.13 -0.11 7.14 91.38 -45.27 0.03zm0 -303.7l0 -91.18 42.44 -0.15 -0.23 91.28 -42.2 0.05zm0 -301.2l0 -91.57 41.19 0.04 2.5 91.65 -43.69 -0.12zm0 -302.96l0 -91.24 44.32 0.06 -3.58 91.29 -40.73 -0.11zm58.54 -3920.74c1.11,-9.09 1.72,-17.65 1.78,-25.54 -16.28,-16.09 -36.72,-32.43 -60.32,-48.72l0 -961.07c37.59,97.26 72.68,195.54 102.91,296.03 92.16,306.41 105.8,558.07 48.73,793.62l-93.1 -54.32zm90.63 64.33c-1.51,6.03 -3.09,12.05 -4.69,18.06 1.6,-6.01 3.18,-12.03 4.69,-18.06zm-5.41 20.73c-1.33,4.93 -2.7,9.87 -4.09,14.79 1.4,-4.92 2.76,-9.86 4.09,-14.79zm-5.27 18.92c-1.51,5.28 -3.07,10.55 -4.65,15.82 1.58,-5.27 3.14,-10.54 4.65,-15.82zm-18561.78 3526.77l0 -8.28c155.1,-23.08 309.23,-47.72 461.37,-73.88l0 8.18c-152.13,26.19 -306.24,50.86 -461.37,73.98zm0 -2940.56l0 -8.32c37.05,-4.82 89.22,-22.19 94.34,-21.36 27.82,4.65 42.26,7.72 49.21,9.45l-3.85 3.94c-9.28,9.08 39.53,10.5 -49.82,-4.44 -4.92,-0.81 -53.23,15.18 -89.88,20.72zm170.69 -57.25c-3.57,9.31 -12.01,21.31 -26.63,36.52 -1.26,-1.14 -1.76,-2.67 0.12,-4.51 12.68,-12.68 21.25,-23.24 26.51,-32.01zm290.68 94.8l0 -7.31 -0.25 -0.3c-9.82,1.22 -31.05,-1.82 -68.15,-11.99 -1.41,-0.41 -15.53,-4.44 -17.55,-5.05 -4.3,-1.28 -88.9,40.04 -83.31,16.57 -27.55,41.02 74.08,-9.01 78.85,-7.6 2,0.61 16.12,4.64 17.53,5.04 45.04,12.35 66.64,14.16 72.9,10.65z"/>
   <polygon class="fil13" points="30606,20610.88 32349.43,20613.09 32345.85,20704.39 30605.72,20699.49 "/>
   <path class="fil13" d="M32346.3 20915.71l2.5 91.65 -1744.29 -4.79c-0.2,-26.09 -2.47,-58.57 10.58,-88.73l1731.21 1.88z"/>
   <path class="fil13" d="M30607.43 21223.34l1740.13 -6.24 -0.23 91.28 -1734.2 1.9c-14.53,-38.93 -11.66,-42.52 -5.7,-86.94z"/>
   <path class="fil13" d="M30612.86 21525.82l1730.39 -5.11 7.14 91.38 -1744.8 1.07c-2.18,-47.96 -6.42,-54.53 7.27,-87.34z"/>
   <path class="fil13" d="M30822.56 16872.71c127.08,-103.69 450.52,-173.77 653.43,-174.76 195.91,-0.95 535.66,73.36 654.05,174.76 -7.55,52.62 -71.55,142.79 -97.53,189.59 -31.77,57.23 -73.88,137 -109.14,179.57 -61.78,-15.83 -128.56,-55.88 -201.15,-76.21 -380.36,-106.48 -598.96,59.29 -693.62,75.29 -29.87,-34.02 -199.12,-330.13 -206.04,-368.25z"/>
   <path class="fil15" d="M31481.15 17786.74c378.17,0 684.72,295.15 684.72,659.24 0,364.09 -306.55,659.24 -684.72,659.24 -378.17,0 -684.73,-295.15 -684.73,-659.24 0,-364.09 306.56,-659.24 684.73,-659.24z"/>
   <path class="fil15" d="M35452.14 21144.53l408.91 1.05c20.18,-72.61 6.52,-2765.53 6.97,-2919.24 3.33,-1096.52 73.9,-1571.31 295.8,-2631.6 169.26,-808.8 361.17,-1744.61 183.15,-2593.95 -169.62,-809.3 -644.78,-1340.41 -1348.21,-1578.37 -1598.97,-540.91 -3299.13,500.85 -3240.2,2341.54 13.99,437.11 115.95,843.44 243.1,1217.89 123.4,363.4 296.87,698.35 406.37,1062.4 171.8,571.21 70.86,952.17 -252.6,1393.14 -122.68,167.24 -378.79,450.39 -525.45,575.73 -63.25,54.04 -124.49,91.13 -160.06,195.71 -37.07,108.98 16.01,201.04 90.6,242.98 169.75,95.48 336.65,-104.04 460.92,-219.33 208.91,-193.83 483.91,-506.26 656.59,-811.55 476.79,-842.86 156.28,-1501.28 -158.54,-2279.65 -285.11,-704.94 -522.22,-1637.92 -131.55,-2392.82 295.19,-570.4 960.77,-1104.08 1882.79,-1033.41 907.15,69.54 1440.94,505.49 1637.54,1286.68 201.89,802.16 -12.86,1804.09 -176.2,2573.56 -218.05,1027.34 -289.75,1575.96 -289.61,2639.59 0.04,325.96 -24.15,2840.35 9.68,2929.66z"/>
   <rect class="fil16" x="33336.3" y="2929.34" width="3337.8" height="3337.8" rx="326.55" ry="296.56"/>
   <rect class="fil16" x="33336.3" y="6806.49" width="3337.8" height="3337.8" rx="326.55" ry="296.56"/>
  </g>
 </g>
</svg>
