<?xml version="1.0" encoding="UTF-8"?>
<!DOCTYPE svg PUBLIC "-//W3C//DTD SVG 1.1//EN" "http://www.w3.org/Graphics/SVG/1.1/DTD/svg11.dtd">
<!-- Creator: CorelDRAW 2018 (64-Bit Evaluation Version) -->
<svg xmlns="http://www.w3.org/2000/svg" xml:space="preserve" width="440.267mm" height="321.733mm" version="1.1" style="shape-rendering:geometricPrecision; text-rendering:geometricPrecision; image-rendering:optimizeQuality; fill-rule:evenodd; clip-rule:evenodd"
viewBox="0 0 44026.66 32173.34"
 xmlns:xlink="http://www.w3.org/1999/xlink">
 <defs>
  <style type="text/css">
   <![CDATA[
    .str0 {stroke:#00C2FF;stroke-width:42.33;stroke-miterlimit:22.9256;stroke-opacity:0.258824}
    .fil15 {fill:#00335A}
    .fil21 {fill:#01AAE1}
    .fil14 {fill:#1546A3}
    .fil22 {fill:#1A1F95}
    .fil10 {fill:#99D2FF}
    .fil11 {fill:#99E7FF}
    .fil17 {fill:#ACD263}
    .fil16 {fill:#C4003E}
    .fil7 {fill:#E6E7E8}
    .fil20 {fill:#FFD600}
    .fil1 {fill:white}
    .fil3 {fill:white}
    .fil18 {fill:white}
    .fil19 {fill:black}
    .fil9 {fill:#3B9CFF;fill-rule:nonzero}
    .fil2 {fill:#00C2FF;fill-opacity:0.101961}
    .fil0 {fill:#3B9CFF;fill-opacity:0.129412}
    .fil4 {fill:#3B9CFF;fill-opacity:0.12}
    .fil6 {fill:#5AEEBC;fill-opacity:0.211765}
    .fil8 {fill:#00C2FF;fill-opacity:0.258824}
    .fil5 {fill:#3B9CFF;fill-opacity:0.400000}
    .fil12 {fill:#3B9CFF;fill-opacity:0.450980}
    .fil13 {fill:#B4DCFF;fill-opacity:0.450980}
   ]]>
  </style>
 </defs>
 <g id="Layer_x0020_1">
  <metadata id="CorelCorpID_0Corel-Layer"/>
  <g id="_2574317357168">
   <polygon class="fil0" points="-0,0 44026.66,0 44026.66,32173.34 -0,32173.34 "/>
   <path class="fil1" d="M21398.2 25944.47l18433.88 0c993.67,0 1806.67,813 1806.67,1806.67l0 818.69c0,993.67 -813,1806.67 -1806.67,1806.67l-18433.88 0c-993.67,0 -1806.67,-813 -1806.67,-1806.67l0 -818.69c0,-993.67 813,-1806.67 1806.67,-1806.67z"/>
   <path class="fil2" d="M16073.19 3197.89l23371.43 0c760.52,0 1382.76,622.24 1382.76,1382.76l0 6325.71 -4629.81 5.27c-923.91,29.87 -1457.55,494.32 -1586.12,1409.87l-6.78 1694.57 -79.65 11.86 -2.56 646.48 83.03 54.23 1.67 637.15 -57.62 54.22 10.17 1420.05 40.67 30.5 10.17 318.58 -54.23 64.39 6.78 1372.6 37.28 61.01 9.67 3516.99 -18536.86 0c-760.52,0 -1382.76,-622.24 -1382.76,-1382.76l0 -16240.72c0,-760.52 622.24,-1382.76 1382.76,-1382.76z"/>
   <path class="fil3" d="M16073.18 3197.89l23371.44 0c760.51,0 1382.76,622.24 1382.76,1382.75l0 6325.72 -4.78 9314.47c13.1,1169.49 -460.54,1958.7 -1952.93,1952.06l-4259.63 31.25 -18536.86 0c-760.5,0 -1382.75,-622.25 -1382.75,-1382.77l0 -16240.73c0,-760.51 622.24,-1382.75 1382.75,-1382.75z"/>
   <path class="fil4" d="M16073.19 3197.89l6669.81 0 0 19006.24 -6669.81 0c-760.52,0 -1382.76,-622.24 -1382.76,-1382.76l0 -16240.72c0,-760.52 622.24,-1382.76 1382.76,-1382.76z"/>
   <path class="fil5" d="M16198.58 4232.63c106.11,0 192.14,86.03 192.14,192.14 0,106.12 -86.03,192.14 -192.14,192.14 -106.12,0 -192.14,-86.02 -192.14,-192.14 0,-106.11 86.02,-192.14 192.14,-192.14z"/>
   <path class="fil5" d="M16889.96 4232.63c106.12,0 192.14,86.03 192.14,192.14 0,106.12 -86.02,192.14 -192.14,192.14 -106.11,0 -192.13,-86.02 -192.13,-192.14 0,-106.11 86.02,-192.14 192.13,-192.14z"/>
   <path class="fil5" d="M17581.35 4232.63c106.12,0 192.14,86.03 192.14,192.14 0,106.12 -86.02,192.14 -192.14,192.14 -106.11,0 -192.14,-86.02 -192.14,-192.14 0,-106.11 86.03,-192.14 192.14,-192.14z"/>
   <path class="fil5" d="M16197.72 7099.64l5319.26 0c60.58,0 110.15,49.56 110.15,110.15l0 0c0,60.58 -49.57,110.15 -110.15,110.15l-5319.26 0c-60.58,0 -110.14,-49.57 -110.14,-110.15l0 0c0,-60.59 49.56,-110.15 110.14,-110.15z"/>
   <path class="fil5" d="M16197.72 8556.12l5319.26 0c60.58,0 110.15,49.56 110.15,110.15l0 0c0,60.58 -49.57,110.15 -110.15,110.15l-5319.26 0c-60.58,0 -110.14,-49.57 -110.14,-110.15l0 0c0,-60.59 49.56,-110.15 110.14,-110.15z"/>
   <path class="fil5" d="M16197.72 9902.45l5319.26 0c60.58,0 110.15,49.56 110.15,110.14l0 0.01c0,60.58 -49.57,110.14 -110.15,110.14l-5319.26 0c-60.58,0 -110.14,-49.56 -110.14,-110.14l0 -0.01c0,-60.58 49.56,-110.14 110.14,-110.14z"/>
   <path class="fil5" d="M16197.72 11138.64l5319.26 0c60.58,0 110.15,49.56 110.15,110.14l0 0.01c0,60.58 -49.57,110.14 -110.15,110.14l-5319.26 0c-60.58,0 -110.14,-49.56 -110.14,-110.14l0 -0.01c0,-60.58 49.56,-110.14 110.14,-110.14z"/>
   <path class="fil5" d="M16197.72 12555.3l5319.26 0c60.58,0 110.15,49.56 110.15,110.14l0 0.01c0,60.58 -49.57,110.14 -110.15,110.14l-5319.26 0c-60.58,0 -110.14,-49.56 -110.14,-110.14l0 -0.01c0,-60.58 49.56,-110.14 110.14,-110.14z"/>
   <path class="fil5" d="M16161.75 13919.81l2273.68 0c60.58,0 110.14,49.55 110.14,110.14l0 0c0,60.58 -49.56,110.15 -110.14,110.15l-2273.68 0c-60.58,0 -110.14,-49.57 -110.14,-110.15l0 0c0,-60.59 49.56,-110.14 110.14,-110.14z"/>
   <path class="fil6" d="M24754.47 6727.83l14491.91 0c298.25,0 542.26,244.01 542.26,542.27l0 108.44c0,298.25 -244.01,542.26 -542.26,542.26l-14491.91 0c-298.25,0 -542.26,-244.01 -542.26,-542.26l0 -108.44c0,-298.26 244.01,-542.27 542.26,-542.27z"/>
   <ellipse class="fil7" cx="36948.53" cy="4855.33" rx="650.71" ry="625.29"/>
   <path class="fil7" d="M38212.66 4728.23l1409.88 0c76.44,0 138.95,62.52 138.95,138.95l0 0.01c0,76.43 -62.51,138.95 -138.95,138.95l-1409.88 0c-76.42,0 -138.95,-62.52 -138.95,-138.95l0 -0.01c0,-76.43 62.53,-138.95 138.95,-138.95z"/>
   <g>
    <path class="fil8 str0" d="M27279.32 9845.81l6052.99 0c61.52,0 111.84,50.32 111.84,111.84l0 0c0,61.52 -50.32,111.84 -111.84,111.84l-6052.99 0c-61.52,0 -111.84,-50.32 -111.84,-111.84l0 0c0,-61.52 50.32,-111.84 111.84,-111.84z"/>
    <g>
     <path class="fil8 str0" d="M27262.39 10493.13l1952.12 0c61.52,0 111.84,50.32 111.84,111.84l0 0c0,61.52 -50.32,111.84 -111.84,111.84l-1952.12 0c-61.52,0 -111.84,-50.32 -111.84,-111.84l0 0c0,-61.52 50.32,-111.84 111.84,-111.84z"/>
     <path class="fil8 str0" d="M30099.08 10493.13l3250.16 0c61.52,0 111.84,50.32 111.84,111.84l0 0c0,61.52 -50.32,111.84 -111.84,111.84l-3250.16 0c-61.52,0 -111.84,-50.32 -111.84,-111.84l0 0c0,-61.52 50.32,-111.84 111.84,-111.84z"/>
    </g>
   </g>
   <g>
    <path class="fil8 str0" d="M27279.32 12674.43l6052.99 0c61.52,0 111.84,50.31 111.84,111.84l0 0c0,61.52 -50.32,111.84 -111.84,111.84l-6052.99 0c-61.52,0 -111.84,-50.32 -111.84,-111.84l0 0c0,-61.53 50.32,-111.84 111.84,-111.84z"/>
    <g>
     <path class="fil8 str0" d="M27262.39 13321.74l1952.12 0c61.52,0 111.84,50.32 111.84,111.84l0 0c0,61.53 -50.32,111.85 -111.84,111.85l-1952.12 0c-61.52,0 -111.84,-50.32 -111.84,-111.85l0 0c0,-61.52 50.32,-111.84 111.84,-111.84z"/>
     <path class="fil8 str0" d="M30099.08 13321.74l3250.16 0c61.52,0 111.84,50.32 111.84,111.84l0 0c0,61.53 -50.32,111.85 -111.84,111.85l-3250.16 0c-61.52,0 -111.84,-50.32 -111.84,-111.85l0 0c0,-61.52 50.32,-111.84 111.84,-111.84z"/>
    </g>
   </g>
   <g>
    <path class="fil8 str0" d="M27279.32 15340.37l6052.99 0c61.52,0 111.84,50.32 111.84,111.84l0 0c0,61.52 -50.32,111.84 -111.84,111.84l-6052.99 0c-61.52,0 -111.84,-50.32 -111.84,-111.84l0 0c0,-61.52 50.32,-111.84 111.84,-111.84z"/>
    <g>
     <path class="fil8 str0" d="M27262.39 15987.69l1952.12 0c61.52,0 111.84,50.31 111.84,111.84l0 0c0,61.52 -50.32,111.84 -111.84,111.84l-1952.12 0c-61.52,0 -111.84,-50.32 -111.84,-111.84l0 0c0,-61.53 50.32,-111.84 111.84,-111.84z"/>
     <path class="fil8 str0" d="M30099.08 15987.69l3250.16 0c61.52,0 111.84,50.31 111.84,111.84l0 0c0,61.52 -50.32,111.84 -111.84,111.84l-3250.16 0c-61.52,0 -111.84,-50.32 -111.84,-111.84l0 0c0,-61.53 50.32,-111.84 111.84,-111.84z"/>
    </g>
   </g>
   <polygon class="fil9" points="24704.03,5261.37 24620.03,5261.37 24620.03,4975.19 24384.14,4639.04 24484.7,4639.04 24662.03,4890.89 24841.63,4639.04 24942.64,4639.04 24704.03,4975.19 "/>
   <path id="1" class="fil9" d="M25307.54 5152.83c26.35,-25.89 39.6,-59.91 39.6,-102.07 0,-42.3 -13.25,-76.02 -39.6,-101.31 -26.34,-25.44 -59.16,-38.24 -98.45,-38.54 -39.14,0 -72.11,12.65 -98.75,38.09 -26.95,25.59 -40.5,59.31 -40.5,101.31 0,41.85 13.25,75.88 39.59,102.07 26.35,26.34 59.32,39.44 98.91,39.44 39.74,0 72.86,-12.95 99.2,-38.99zm-98.75 117.57c-61.42,0 -113.51,-20.32 -156.56,-60.97 -43.06,-40.64 -64.58,-93.63 -64.58,-159.12 0,-65.48 21.22,-118.62 63.52,-159.27 42.31,-40.64 94.54,-60.82 156.87,-60.52 62.62,0 115.01,20.33 157.31,60.97 42.6,40.95 63.98,93.94 63.98,158.82 0,64.89 -21.38,117.73 -64.13,158.67 -42.75,40.95 -94.99,61.42 -156.41,61.42z"/>
   <path id="2" class="fil9" d="M25827.96 5067.32l0 -227.76 82.2 0 0 421.81 -82.2 0 0 -62.93c-12.04,23.19 -30.1,41.1 -54.34,53.45 -24.09,12.34 -49.68,18.51 -76.78,18.51 -52.23,0 -92.43,-16.41 -120.58,-49.37 -28.15,-32.97 -42.15,-78.74 -41.85,-137.3l0 -244.17 82.19 0 0 238.3c0,35.08 8.13,62.63 24.24,82.65 16.26,19.72 40.65,29.5 73.31,29.5 32.67,0 59.77,-10.23 81.6,-30.86 21.83,-20.62 32.51,-51.18 32.21,-91.83z"/>
   <path id="3" class="fil9" d="M26128.14 5107.97l0 153.4 -82.19 0 0 -421.81 82.19 0 0 95.14c20.63,-69.4 59.61,-104.18 117.27,-104.18 33.27,0 57.66,5.42 73.31,16.11l-12.79 77.08c-18.52,-9.79 -39.29,-14.6 -62.17,-14.6 -37.19,0 -65.64,17.76 -85.66,53.29 -20.02,35.68 -29.96,84.15 -29.96,145.57z"/>
   <path id="4" class="fil9" d="M26614.99 5082.53l84.45 0c0.6,28 13.25,53.29 37.94,76.02 24.68,22.73 55.85,33.87 93.78,33.27 37.94,0 67.6,-8.43 89.12,-25.14 21.38,-16.71 34.18,-38.84 38.24,-66.09 4.67,-56.75 -30.56,-93.63 -105.83,-110.64l-80.24 -20.63c-101.16,-25.74 -151.74,-79.93 -151.74,-162.28 0,-51.03 19.87,-92.88 59.61,-125.4 38.24,-33.27 85.66,-49.83 141.96,-49.83 56.45,0 103.87,16.71 142.56,50.28 38.54,33.42 57.81,77.53 57.81,132.18l-84 0c0,-30.71 -10.84,-55.4 -32.67,-74.22 -22.28,-18.52 -49.53,-27.85 -81.89,-27.85 -32.22,0 -60.67,8.43 -85.06,25.29 -22.88,16.86 -34.32,38.84 -34.32,65.94 0,42 29.96,70 89.72,84l81.14 19.87c59.47,15.81 103.27,40.5 131.42,74.22 28.31,33.72 39.6,74.81 34.03,123.14 -5.57,48.47 -27.1,88.06 -64.44,119.23 -37.33,31.01 -85.8,46.51 -145.42,46.51 -59.61,0 -110.79,-18.36 -153.55,-55.25 -41.7,-38.08 -62.62,-82.34 -62.62,-132.62z"/>
   <polygon id="5" class="fil9" points="27268.18,4685.1 27268.18,4839.56 27356.7,4839.56 27356.7,4912.72 27268.18,4912.72 27268.18,5261.37 27185.99,5261.37 27185.99,4912.72 27110.12,4912.72 27110.12,4839.56 27185.99,4839.56 27185.99,4685.1 "/>
   <path id="6" class="fil9" d="M27741.93 5152.83c26.35,-25.89 39.6,-59.91 39.6,-102.07 0,-42.3 -13.25,-76.02 -39.6,-101.31 -26.34,-25.44 -59.16,-38.24 -98.45,-38.54 -39.14,0 -72.11,12.65 -98.75,38.09 -26.95,25.59 -40.5,59.31 -40.5,101.31 0,41.85 13.25,75.88 39.59,102.07 26.35,26.34 59.32,39.44 98.91,39.44 39.74,0 72.86,-12.95 99.2,-38.99zm-98.75 117.57c-61.42,0 -113.51,-20.32 -156.56,-60.97 -43.06,-40.64 -64.58,-93.63 -64.58,-159.12 0,-65.48 21.22,-118.62 63.52,-159.27 42.31,-40.64 94.54,-60.82 156.87,-60.52 62.62,0 115.01,20.33 157.31,60.97 42.6,40.95 63.98,93.94 63.98,158.82 0,64.89 -21.38,117.73 -64.13,158.67 -42.75,40.95 -94.99,61.42 -156.41,61.42z"/>
   <path id="7" class="fil9" d="M28055.51 5107.97l0 153.4 -82.19 0 0 -421.81 82.19 0 0 95.14c20.63,-69.4 59.61,-104.18 117.27,-104.18 33.27,0 57.66,5.42 73.31,16.11l-12.79 77.08c-18.52,-9.79 -39.29,-14.6 -62.17,-14.6 -37.19,0 -65.64,17.76 -85.66,53.29 -20.02,35.68 -29.96,84.15 -29.96,145.57z"/>
   <path id="8" class="fil9" d="M28727.07 5049.26c0,18.67 -0.3,29.35 -0.9,32.37l-342.33 0c4.07,34.02 19.12,62.17 45.01,84.6 24.99,20.62 52.99,31.01 84.15,31.01 60.97,0 103.58,-21.83 127.96,-65.48 0.61,0 1.51,0.15 2.71,0.75 1.06,0.6 3.16,1.65 6.17,3.16 3.47,1.5 8.13,3.31 14.01,5.27 5.87,2.11 10.38,3.91 13.24,5.42l34.48 12.79c-17.32,35.53 -43.51,62.93 -78.59,82.2 -34.92,19.42 -73.46,29.05 -115.46,29.05 -60.37,0 -111.85,-20.32 -154.75,-61.12 -40.8,-40.79 -61.12,-94.23 -61.12,-160.02 0,-65.94 20.32,-118.78 60.81,-158.67 40.65,-39.74 91.98,-59.76 154.31,-60.07 62.32,0 112.6,20.18 150.84,60.37 39.59,40.04 59.46,92.88 59.46,158.37zm-123.14 -115.31c-23.48,-20.18 -52.69,-30.26 -87.31,-30.26 -34.78,0 -64.58,10.08 -89.57,30.26 -24.69,21.52 -39.14,49.52 -43.21,83.55l261.49 0c-4.07,-34.03 -17.92,-62.03 -41.4,-83.55z"/>
   <path class="fil8" d="M35317.73 20502.42l1759 0c65.24,0 118.61,53.37 118.61,118.61l0 0.02c0,65.24 -53.37,118.61 -118.61,118.61l-1759 0c-65.24,0 -118.61,-53.37 -118.61,-118.61l0 -0.02c0,-65.24 53.37,-118.61 118.61,-118.61z"/>
   <path class="fil8" d="M37864.65 20522.75l1759 0c65.24,0 118.61,53.37 118.61,118.61l0 0.02c0,65.24 -53.37,118.61 -118.61,118.61l-1759 0c-65.24,0 -118.61,-53.37 -118.61,-118.61l0 -0.02c0,-65.24 53.37,-118.61 118.61,-118.61z"/>
   <rect class="fil1" x="3487.89" y="11231.26" width="14605" height="19155.85" rx="811.39" ry="811.39"/>
   <polygon class="fil9" points="9258.48,13447.55 9174.48,13447.55 9174.48,13161.37 8938.59,12825.22 9039.15,12825.22 9216.48,13077.07 9396.08,12825.22 9497.09,12825.22 9258.48,13161.37 "/>
   <path id="1" class="fil9" d="M9861.99 13339.01c26.35,-25.89 39.6,-59.91 39.6,-102.07 0,-42.3 -13.25,-76.02 -39.6,-101.31 -26.34,-25.44 -59.16,-38.24 -98.45,-38.54 -39.14,0 -72.11,12.65 -98.75,38.09 -26.95,25.59 -40.5,59.31 -40.5,101.31 0,41.85 13.25,75.88 39.59,102.07 26.35,26.34 59.32,39.44 98.91,39.44 39.74,0 72.86,-12.95 99.2,-38.99zm-98.75 117.57c-61.42,0 -113.51,-20.32 -156.56,-60.97 -43.06,-40.64 -64.58,-93.63 -64.58,-159.12 0,-65.48 21.22,-118.62 63.52,-159.27 42.31,-40.64 94.54,-60.82 156.87,-60.52 62.62,0 115.01,20.33 157.31,60.97 42.6,40.95 63.98,93.94 63.98,158.82 0,64.89 -21.38,117.73 -64.13,158.67 -42.75,40.95 -94.99,61.42 -156.41,61.42z"/>
   <path id="2" class="fil9" d="M10382.41 13253.5l0 -227.76 82.2 0 0 421.81 -82.2 0 0 -62.93c-12.04,23.19 -30.1,41.1 -54.34,53.45 -24.09,12.34 -49.68,18.51 -76.78,18.51 -52.23,0 -92.43,-16.41 -120.58,-49.37 -28.15,-32.97 -42.15,-78.74 -41.85,-137.3l0 -244.17 82.19 0 0 238.3c0,35.08 8.13,62.63 24.24,82.65 16.26,19.72 40.65,29.5 73.31,29.5 32.67,0 59.77,-10.23 81.6,-30.86 21.83,-20.62 32.51,-51.18 32.21,-91.83z"/>
   <path id="3" class="fil9" d="M10682.59 13294.15l0 153.4 -82.19 0 0 -421.81 82.19 0 0 95.14c20.63,-69.4 59.61,-104.18 117.27,-104.18 33.27,0 57.66,5.42 73.31,16.11l-12.79 77.08c-18.52,-9.79 -39.29,-14.6 -62.17,-14.6 -37.19,0 -65.64,17.76 -85.66,53.29 -20.02,35.68 -29.96,84.15 -29.96,145.57z"/>
   <path id="4" class="fil9" d="M11169.44 13268.71l84.45 0c0.6,28 13.25,53.29 37.94,76.02 24.68,22.73 55.85,33.87 93.78,33.27 37.94,0 67.6,-8.43 89.12,-25.14 21.38,-16.71 34.18,-38.84 38.24,-66.09 4.67,-56.75 -30.56,-93.63 -105.83,-110.64l-80.24 -20.63c-101.16,-25.74 -151.74,-79.93 -151.74,-162.28 0,-51.03 19.87,-92.88 59.61,-125.4 38.24,-33.27 85.66,-49.83 141.96,-49.83 56.45,0 103.87,16.71 142.56,50.28 38.54,33.42 57.81,77.53 57.81,132.18l-84 0c0,-30.71 -10.84,-55.4 -32.67,-74.22 -22.28,-18.52 -49.53,-27.85 -81.89,-27.85 -32.22,0 -60.67,8.43 -85.06,25.29 -22.88,16.86 -34.32,38.84 -34.32,65.94 0,42 29.96,70 89.72,84l81.14 19.87c59.47,15.81 103.27,40.5 131.42,74.22 28.31,33.72 39.6,74.81 34.03,123.14 -5.57,48.47 -27.1,88.06 -64.44,119.23 -37.33,31.01 -85.8,46.51 -145.42,46.51 -59.61,0 -110.79,-18.36 -153.55,-55.25 -41.7,-38.08 -62.62,-82.34 -62.62,-132.62z"/>
   <polygon id="5" class="fil9" points="11822.63,12871.28 11822.63,13025.74 11911.15,13025.74 11911.15,13098.9 11822.63,13098.9 11822.63,13447.55 11740.44,13447.55 11740.44,13098.9 11664.57,13098.9 11664.57,13025.74 11740.44,13025.74 11740.44,12871.28 "/>
   <path id="6" class="fil9" d="M12296.38 13339.01c26.35,-25.89 39.6,-59.91 39.6,-102.07 0,-42.3 -13.25,-76.02 -39.6,-101.31 -26.34,-25.44 -59.16,-38.24 -98.45,-38.54 -39.14,0 -72.11,12.65 -98.75,38.09 -26.95,25.59 -40.5,59.31 -40.5,101.31 0,41.85 13.25,75.88 39.59,102.07 26.35,26.34 59.32,39.44 98.91,39.44 39.74,0 72.86,-12.95 99.2,-38.99zm-98.75 117.57c-61.42,0 -113.51,-20.32 -156.56,-60.97 -43.06,-40.64 -64.58,-93.63 -64.58,-159.12 0,-65.48 21.22,-118.62 63.52,-159.27 42.31,-40.64 94.54,-60.82 156.87,-60.52 62.62,0 115.01,20.33 157.31,60.97 42.6,40.95 63.98,93.94 63.98,158.82 0,64.89 -21.38,117.73 -64.13,158.67 -42.75,40.95 -94.99,61.42 -156.41,61.42z"/>
   <path id="7" class="fil9" d="M12609.96 13294.15l0 153.4 -82.19 0 0 -421.81 82.19 0 0 95.14c20.63,-69.4 59.61,-104.18 117.27,-104.18 33.27,0 57.66,5.42 73.31,16.11l-12.79 77.08c-18.52,-9.79 -39.29,-14.6 -62.17,-14.6 -37.19,0 -65.64,17.76 -85.66,53.29 -20.02,35.68 -29.96,84.15 -29.96,145.57z"/>
   <path id="8" class="fil9" d="M13281.52 13235.44c0,18.67 -0.3,29.35 -0.9,32.37l-342.33 0c4.07,34.02 19.12,62.17 45.01,84.6 24.99,20.62 52.99,31.01 84.15,31.01 60.97,0 103.58,-21.83 127.96,-65.48 0.61,0 1.51,0.15 2.71,0.75 1.06,0.6 3.16,1.65 6.17,3.16 3.47,1.5 8.13,3.31 14.01,5.27 5.87,2.11 10.38,3.91 13.24,5.42l34.48 12.79c-17.32,35.53 -43.51,62.93 -78.59,82.2 -34.92,19.42 -73.46,29.05 -115.46,29.05 -60.37,0 -111.85,-20.32 -154.75,-61.12 -40.8,-40.79 -61.12,-94.23 -61.12,-160.02 0,-65.94 20.32,-118.78 60.81,-158.67 40.65,-39.74 91.98,-59.76 154.31,-60.07 62.32,0 112.6,20.18 150.84,60.37 39.59,40.04 59.46,92.88 59.46,158.37zm-123.14 -115.31c-23.48,-20.18 -52.69,-30.26 -87.31,-30.26 -34.78,0 -64.58,10.08 -89.57,30.26 -24.69,21.52 -39.14,49.52 -43.21,83.55l261.49 0c-4.07,-34.03 -17.92,-62.03 -41.4,-83.55z"/>
   <rect class="fil10" x="5108.57" y="24136.7" width="3086.81" height="335.14" rx="167.57" ry="167.57"/>
   <rect class="fil10" x="9077.32" y="24154.34" width="2540" height="317.5" rx="158.75" ry="158.75"/>
   <rect class="fil10" x="5090.92" y="24965.73" width="11641.67" height="317.5" rx="158.75" ry="158.75"/>
   <rect class="fil10" x="5126.21" y="25777.12" width="11606.39" height="299.86" rx="149.93" ry="149.93"/>
   <path class="fil10" d="M5950.81 26846.48l9886.63 0c589.36,0 1071.55,482.19 1071.55,1071.55l0 50.73c0,589.36 -482.19,1071.55 -1071.55,1071.55l-9886.63 0c-589.36,0 -1071.55,-482.19 -1071.55,-1071.55l0 -50.73c0,-589.36 482.19,-1071.55 1071.55,-1071.55zm-57.31 274.52l10036.56 0c400.18,0 727.59,327.41 727.59,727.59l0 135.61c0,400.18 -327.41,727.59 -727.59,727.59l-10036.56 0c-400.18,0 -727.59,-327.41 -727.59,-727.59l0 -135.61c0,-400.18 327.41,-727.59 727.59,-727.59z"/>
   <rect class="fil1" x="3274.19" y="3086.82" width="10089.45" height="5238.75" rx="829.03" ry="829.03"/>
   <rect class="fil11" x="4037.08" y="5931.09" width="930.45" height="1080.38"/>
   <rect class="fil11" x="5342.35" y="6645.46" width="917.22" height="370.42"/>
   <rect class="fil11" x="6647.63" y="5653.27" width="921.64" height="1362.61"/>
   <rect class="fil11" x="7924.26" y="6003.85" width="926.05" height="1020.85"/>
   <rect class="fil11" x="9236.17" y="5869.33" width="919.43" height="1153.15"/>
   <rect class="fil11" x="10528.2" y="5503.31" width="926.04" height="1521.36"/>
   <rect class="fil11" x="11807.02" y="5939.88" width="961.33" height="1098.02"/>
   <g>
    <path class="fil12" d="M9701.9 16641.7l-41.46 181.98 -3596.94 821.42c-103.76,35.96 -159.35,125.76 -163.16,273.41l30.84 3865.14c-17.47,112.83 24.82,138.54 110.25,101.42l3633.76 -1389.87 429.87 106.27 -3973.26 1512.87c-96.97,55.28 -505.72,-61.16 -533.58,-198.44l-44.11 -4052.55c-7.08,-194.57 90.85,-309.61 277.81,-357.19l3869.98 -864.46z"/>
    <polygon class="fil12" points="14784.33,19320.61 15504.53,19472.72 15506.35,19649.21 14771.91,19460.1 "/>
    <path class="fil12" d="M15248.72 17373.8l-3993.01 1148.74c-317.43,65.54 -454.28,231.39 -401.29,502.71l-66.15 4246.56c9.62,243.92 473.95,361.7 621.77,277.82l4211.29 -2019.64c166.18,-44.72 232.2,-181.6 251.36,-361.6l-24.28 -3589.55c-27.33,-181.52 -213.7,-258.71 -599.69,-205.04zm235.88 158.74l-3984.21 1150.96c-170.75,71.66 -253.35,192.9 -235.92,370.41l-90.4 4262.01 4225.58 -1997.61c88,-32.81 115.64,-130.3 121.27,-251.36l-36.32 -3534.41z"/>
    <path class="fil13" d="M14619.24 19958.53l-524.66 65.07c134.45,-271.15 160.07,-569.79 114.67,-886.33 63.33,-0.85 98.23,-48.07 105.71,-140.06l179.25 -1178.57 581.6 -168.01c-116.18,778.98 -238.3,1508.97 -371.71,2145.85l-30.87 116.86 -53.99 45.19zm-88.8 -2378.09l344.55 -2265.37 65.05 -267.89 48.51 -66.15 58.43 -47.4 80.47 -11.02 103.63 1.1 114.66 8.82 70.55 0 28.67 18.74 -1.11 97.01 -33.07 170.88c-98.23,746.06 -196.95,1488.05 -300,2194.32l-580.34 166.96z"/>
    <path class="fil12" d="M15444.96 14951.27l-62.93 -79.36 -171.98 -83.78 -211.67 -52.92 -269 -57.33c-1418.45,-254.73 -2836.94,-415.52 -4255.39,-458.61l-176.39 39.69 -180.8 114.65 -79.38 207.26 -101.42 348.37c-57.23,657.38 -129.3,1297.83 -269.01,1860.92l-244.5 1251.29c887.84,105.14 1683.06,214.6 2359.8,329.6l2754.81 -792.53 385.81 -2460.83c24.72,-114.41 83.41,-170.89 164.3,-189.57l357.75 23.15zm-3170.22 3508.53c1073.16,205.81 1764.54,429.45 1934.51,677.47 72.86,-4.29 113.3,-66.85 114.75,-199.51l175.7 -1120.7 -2224.96 642.74z"/>
    <path class="fil13" d="M5916.79 18515.54l94.77 -70.6 308.68 -114.65 542.39 -101.43 736.43 -110.24 714.38 -44.1 546.81 -30.87 511.53 8.82 101.42 -22.04c834.97,109.45 1624.22,221.63 2311.34,339.97l-528.83 152.14c-317.43,65.54 -454.28,231.39 -401.29,502.71l-8.36 536.79 -5.82 0.78 -4923.45 -1047.28zm6358.75 -55.97c1049.44,201.57 1779.87,422.31 1933.71,677.7 53.01,319.77 8.72,613.6 -114.67,886.33l-2835.46 493.89 -26.05 16.68 31.4 -1480.26c-17.43,-177.51 65.17,-298.75 235.92,-370.41l775.15 -223.93z"/>
    <polygon class="fil12" points="5912.4,19565.07 5905.23,18530.9 5965.3,18515.54 6831.81,18711.76 10840.24,19562.82 10838.48,20048.26 10827.09,20779.95 "/>
   </g>
   <g>
    <path class="fil14" d="M22453.6 29332.15c-36.26,-37.95 -11.64,-125.33 30.56,-106.3 33.74,15.22 17.71,99.24 -30.56,106.3zm-194.16 -76.76c-30.44,-21.4 -29.04,-255.43 27.82,-232.7 37.32,14.91 12.15,145.91 -1.37,188.61 -5.17,16.32 -11.65,39.98 -26.45,44.09zm215.06 104.45c7.73,-9.39 28.87,-19.38 50.65,-41.36 79.4,-80.15 5.15,-165.39 -36.52,-158.57 -42.5,6.96 -73.79,50.33 -88.98,89.19 -25.28,64.65 -10.37,107.28 -12.28,116.34 -1.45,6.8 0.46,3.72 -5.17,8.05 -2.75,2.12 -3.39,1.96 -7.05,3.24 -33.28,11.6 -61.3,-11.75 -78.49,-29.05 -44.16,-44.45 23.05,-54.42 45.5,-186.27 9.86,-57.9 24.06,-185.07 -40.19,-215.21 -88.92,-41.71 -145.29,159.28 -114.7,306.03 10.55,50.62 31.72,67.64 -6.91,97.93 -52.53,41.18 -128.45,9.93 -124.56,-56.37 1.56,-26.51 14.84,-42.59 8.52,-79.67 -3.7,-21.65 -16.76,-54.63 -46.11,-36.22 -39.85,24.99 -25.35,90.95 -46.57,131.94 -8.85,17.08 -26.83,43.66 -53.58,30.27 -26.24,-13.13 -45.52,-92.24 -55.54,-122.93 -15.32,-46.94 -29.59,-80.94 -71.61,-35.2 -34.96,38.05 -38.34,50.35 -65.69,82.94 -6.53,7.78 -7.16,9.74 -17.97,10.66 -22.31,-20.83 -17.44,-69.7 -33.02,-84.95 -40.3,2.16 -44.64,68.96 -54.78,107.2 -5.56,20.96 -12.15,42.01 -18.44,63.8 -28.35,98.2 23.06,63.58 63.35,30.57 9.64,-7.9 14.95,-16.42 24.97,-24.48 26.84,-21.57 40.54,-39.21 77.46,-67.95 84.21,-65.56 75.06,88.83 134.76,122.99 44.14,25.27 66.66,-67.24 99.62,-78.79 25.8,10.6 29.32,62.06 73.97,79.93 40.64,16.26 92.73,-11.6 117.17,-28.82 57.44,-40.49 38.47,-2.78 92.46,23.94 47.75,23.63 87.35,-10.18 119.29,-21.06 20.94,10.86 24.22,30.95 72.6,29.33 118.84,-3.98 149.7,-109.59 184.99,-116.02 29.91,27.42 25.56,154.48 122.98,104.94 78.18,-39.76 124.74,-201.41 109.19,-253.04 -5.34,-17.72 -20.59,-24.64 -40.35,-15.11 -13.24,6.39 -20.76,16.41 -27.23,32.24 -19.66,48.15 2.02,69.39 1.89,109.54 -0.08,22.39 -15.61,84.04 -44.29,80.22 -55.51,-21.56 -51.46,-167.73 -89.16,-205.51 -32.41,-15.48 -50.91,82.51 -84.3,140.07 -7.91,13.63 -15.23,21.61 -23.5,32.64 -22.4,29.91 -81.68,54.01 -112.38,22.58z"/>
    <path class="fil14" d="M21415.61 26905.48c6.67,15.73 30.06,17.71 45.87,21.47 18.03,4.29 37.75,7.38 46.98,18.12 -11.4,35.78 -92.41,42.15 -95.37,86.08 37.19,11.22 114.13,0.92 134.39,16.84 -4.38,40.42 -128.12,126.36 -116.23,169.82 29.15,11.28 69.34,-18.14 90.54,-28.77 12.46,-6.25 24.63,-13.93 38.35,-21.06 7.35,-3.82 13.7,-7.12 20.15,-9.82 63.3,-26.56 -0.32,87.39 32.31,106.39 13.63,7.95 32.54,-5.9 40.34,-13.84 13.95,-14.21 17.67,-26.33 41.33,-24.44 8.84,28.37 11.5,108.61 28.09,123.19 26.27,9.29 33.62,-35.98 39.84,-58.82 6.38,-23.39 11.28,-62.32 25.74,-76.49 29.17,0.12 23.72,38.8 57.99,37.65 4.03,-9.83 7.4,-21.74 10.13,-35.3 3.67,-18.24 3.48,-22.2 12.77,-33.07 40.4,1.6 105.72,100.17 138.41,78.32 24.89,-34.23 -53.65,-124.16 -44.83,-167.08 50.79,-7.61 122.93,51.9 170.97,29.16 9.49,-39.2 -57.85,-87.84 -91.87,-126.63 -38,-43.33 -21.84,-46.59 52.3,-75 16.81,-6.44 29.12,-7.41 29.51,-26.87 -49.32,-11.62 -159.88,9.23 -182.58,39.87 -0.39,37.37 90.77,80.95 80.99,122.71 -36.12,9.04 -85.55,-34.36 -116.91,-24.6 -29.95,26.88 31.82,99.59 29.91,135.92 -25.63,-2.51 -74,-75.33 -98.49,-65.6 -10.03,20.82 2.51,51.95 -9.78,71.88 -31.16,-3.62 -20.12,-46.07 -49.86,-48 -11.19,10.34 -13.91,28.46 -17.5,44.84 -3.68,16.77 -6.84,37.52 -18.83,42.61 -22.38,-15.7 -2.51,-67.29 -19.84,-97.52 -37.14,4.8 -37.84,63.8 -67.72,63.63 -11.7,-18.12 11.86,-67.2 5.76,-94.31 -42.83,-3.49 -79.69,41.34 -101.58,28.89 11.82,-35.09 74.4,-61.25 73.76,-98.22 -22.9,-18.69 -80.15,-2.41 -101.66,-26.09 0.53,-35.33 63.4,-38.87 73.38,-72.65 -16.66,-22.83 -57,-23.68 -89.65,-27.25 -27.58,-3.01 -84.34,-9.83 -97.11,14.04z"/>
    <path class="fil14" d="M22439.94 28562.1c32.26,-9.29 46.91,45.87 12.39,52.9 -36.78,7.49 -51.36,-41.68 -12.39,-52.9zm-284.33 27.22c-17.19,74.25 -99.7,46.95 -107.69,36.22 -0.08,-0.11 -27.72,-93.16 -75.54,-97.64 -8.96,96.9 -35.12,93.07 -126.62,97.98 3.67,11.03 -0.98,2.59 8.05,12.2 2.16,2.29 8.21,7.98 11.93,11.08 6.9,5.77 16.45,12.13 25.58,17.41 59.47,34.37 70.1,-2.6 134.79,40.18 17.1,11.31 33.14,24.49 53.83,35.37 58.71,30.85 156.19,42.46 223.86,18.1 27.93,-10.06 52.75,-24.66 59.46,-27.01 16.15,15.84 18.71,40.71 83.5,37.35 15.17,-0.78 72.48,-9.61 76.1,-29.62 6.41,-35.4 -54.69,7.49 -123.9,-30.51 -17.42,-9.57 -28.73,-20.78 -39.19,-33.59 -21.31,-26.09 -24.99,-61.7 -58.44,-28 -21.76,21.92 -51.49,37.85 -82.13,46.59 -23.99,6.84 -49.06,8.69 -76.07,7.71 -22.46,-0.82 -58.05,-3.44 -63.61,-24.87 218.71,18.1 226.4,-128.6 272.59,-82.84 10.85,10.75 30.4,81.46 95.47,92.92 61.65,10.86 68.73,-59.21 84.02,-102.42 8.73,-1.39 19.97,-2.86 26.98,-6.4 7,-27.38 -2.96,-22.31 -14.04,-34.59 -9.13,-10.12 -6.96,-23.03 -15.82,-36.84 -24.41,-5.09 -20.24,0.53 -28.89,15.13 -19.53,-1.5 -35.25,-8.92 -55.98,-10.04 -23.93,-1.29 -41.39,0.87 -63.82,3.89 -8.87,-13.76 -42.69,-43.64 -68.43,-47.09 -13.45,17 -13.68,50.66 -55.52,80.75 -37.02,26.62 -53,25.69 -100.47,38.58z"/>
    <path class="fil14" d="M22878.83 27485.06c26.05,4.23 24.25,24.37 43.65,38.36 30.21,21.79 19.58,-21.54 23.88,-39.45 27.1,1.36 19.49,60.4 62.76,59.43 4.4,-13.18 3.77,-28.05 12.5,-36.44 15.89,7.38 7.52,27.18 21.71,43.89 10.14,11.93 29.33,19.36 25.9,33.07 -19.11,5.69 -28.78,-9.71 -51.57,4.49 -16.45,10.24 -17.51,23.54 -39.95,24.78 1.28,-31.26 23.37,-25.33 19.58,-49.29 -42.79,-10.74 -63.62,35.34 -93.26,27.34 -0.21,-26.83 30.56,-19.75 18.77,-41.78 -21.75,-13.45 -55.08,13.14 -76.02,-3.31 2.75,-11.46 -4.66,-2.81 6.54,-9.7 7.38,-4.54 19.6,-0.84 36.23,-10.16 0.09,-23.19 -10.94,-13.33 -10.72,-41.23zm253.13 175.13c-23.99,-5.94 -75.4,42.12 -76.93,81.03 -1.89,47.89 66.26,66.52 80.77,82.34l-41.53 84.48c-7.35,-6.29 -45.35,-117.35 -54.33,-139.06 -21.49,-51.92 -43.86,-80.39 -110.47,-84.5 1.97,17.85 29.36,46.02 40.37,58.72 46.76,53.92 102.98,111.97 105.79,194.04 -6.86,-3.01 -6.31,-1.26 -13.54,-18.83 -3.17,-7.69 -6.04,-13.35 -9.58,-20.07 -8.38,-15.89 -14.55,-26.13 -23.86,-38.89 -50.86,-69.71 -93.47,-63.79 -118.01,-133.12 -5.53,-15.63 -10.24,-31.5 -19.04,-43.5 -6.19,-8.43 -22.72,-23.89 -37.53,-23.85 4.1,41.65 -21.43,91.34 -0.69,121.49 29.77,43.28 112.99,4.48 177.93,119.19 19.27,34.05 30.53,69.15 43.38,108.25 18.98,-15.22 21.87,-48.49 47.62,-60.66 44.67,-21.09 43.49,25.67 51.22,47.88 32.17,-12.45 67.54,-112.51 36.33,-131.25 -26.02,-6.6 -39.15,6.88 -51.47,20.41 -12.7,13.94 -19.41,30.43 -41.96,35.01 1.69,-49.11 74.94,-113.77 92.89,-162.5 30.62,-83.21 -27.55,-140.5 -75.16,-167.95 -20.83,-12.01 -20.2,-9.91 -34.22,-28.57 -23.72,-31.56 -51.85,-79.52 -93.88,-100.97 -65.45,-33.39 -124.01,-4.02 -168.33,-10.49 -16.48,-2.41 -38.32,-14.74 -49.08,-13.44 -3.34,73.86 38.4,150.31 75.95,178.67 56.28,42.51 134.27,45.47 207.91,16.05 102.88,-41.11 153.89,84.63 90.22,156.25 -14.41,16.22 -28.94,12.11 -36.02,-8.31 -12.63,-36.46 19.31,-87.52 5.25,-117.85z"/>
    <path class="fil14" d="M22583.27 27014.17c1.94,-4.79 3.2,-10.63 5.14,-16.69 0.21,-0.66 3.4,-9.48 3.53,-9.79 2.77,-6.46 1.28,-3.56 3.66,-7.05 12.86,9.05 9.11,21.8 21.13,33.68l35.31 -7.92c-5.29,13.31 -11.45,16.02 -15.69,30.11 10.56,5.68 27.56,9.87 35.35,17.58 -13.39,10.39 -25.41,4.99 -35.6,13.21 3.88,12.25 10.87,18.1 11.18,31.81 -10.7,-0.9 -25.6,-10.96 -36.22,-6.19 -6.38,2.87 -14.21,17.76 -22.06,23.85l-4.84 -16.83c-4.46,-34.35 -13.78,-13.82 -37.38,-22.8 2.33,-11.45 3.29,-8.21 12.74,-16.3 6.73,-5.77 6.22,-5.11 12.02,-13.35 -7.97,-21.77 -17.13,-11.15 -25.56,-33.49l37.29 0.17zm127.97 -55.75c-14.2,-1.03 -83.99,27.79 -73.69,-4.24 6.17,-19.17 42.98,-28.35 70.38,-28.16 128.54,0.89 140.12,183.31 55.94,236.94 -43.23,27.55 -139.56,16.2 -134.52,-29.06 36.32,-5.78 73.36,45.19 71.4,7.03 -0.59,-11.31 -12.64,-18.55 -7.42,-38.65 27.71,-4.14 42.59,9.92 69.91,3.74 -1.67,-28.81 -38.2,-35.57 -41.51,-58.53 15.9,-17.57 44.27,-13.29 51.65,-33.03 -13.91,-18.03 -43.22,-0.75 -74.49,-16.59 2.43,-19.42 12.15,-16.98 12.35,-39.45zm-151.55 -20.48c-32.93,0.72 -55.47,-33.52 -85.09,-31.26 -1.67,28.06 40.8,54.28 40.82,84.55 -5.51,4.34 -9.82,7.82 -19.28,12.91 -11.06,5.96 -15.05,5.78 -20.34,16.93 13.16,24.79 78.11,21.99 20.53,62.49 -13.95,9.81 -22.35,10.07 -22.9,27.63 17.94,4.9 30.21,0.09 44,11.87 4.75,19.82 -30.25,53.88 -31.94,83.48 34.71,-7.74 41.93,-42.91 71.35,-43.1 9.8,18.4 6.66,29.66 11.29,49.24 23.66,-2.35 20.68,-28.8 37.38,-30.12 12.01,2.78 25.23,13.73 40.01,19.89 14.12,5.88 29.6,11.87 47.83,14.8 90.81,14.58 198.94,-60.51 182.19,-185.42 -16.47,-122.79 -131.58,-157.67 -221.25,-130.19 -12.97,3.98 -34.07,15.14 -48.08,12.6 -15.33,-2.78 -15.24,-18.13 -37.75,-24.83l-8.77 48.53z"/>
    <path class="fil14" d="M21538.83 27847.61c-13.55,-17.48 -2.17,-49.36 1.6,-68.51 2.4,-12.21 5.52,-24.4 6.75,-35.83 1.11,-10.28 3.26,-29.19 -5.58,-35.79 -29.15,-21.77 -41.95,84.42 -45.31,102.63 -2.97,16.06 -5.68,30.24 -16.91,38.41 -16.86,-6.27 -13.61,-16.75 -13.61,-48.08 0,-18.9 2.92,-36.23 0.06,-45.53 -2.44,-7.95 0.44,-2.36 -3.91,-7.14 -40.85,-19.35 -62.85,241.92 -12.26,290.7 28.38,4.79 55.06,-33.23 59.9,-60.06 4.99,-27.66 -39.58,-63.82 -0.46,-88.9 15,-4.75 44.48,30.12 51.84,40.78 29.53,42.82 -55.66,98.57 -86.99,191.59 -16.88,50.14 -13.02,116.08 8.37,157.76 19.06,37.15 68.15,79.15 99.44,92.51 13.42,-17.69 19.76,-48.22 9.65,-72.72 -16.08,-38.98 -73.46,-65.09 -87.48,-107.54 -8.34,-25.24 -2.92,-60.45 11.78,-76.79 9.82,5.02 20.85,39.82 75.41,34.86 -6.11,-13.24 -19.95,-21.92 -24.26,-43.5 -9.1,-45.68 34.12,-120.03 54.24,-157.73 114.71,-214.93 58.19,-255.26 35.4,-192.38 -12.32,33.98 -17.19,50.38 -35.6,83.16 -7.02,12.5 -14.49,31.2 -31.6,29.28 -5.99,-43.48 55.64,-139.26 35.61,-177.41 -16.7,-5.38 -22.74,6.39 -30.33,22.74 -14.99,32.29 -26.64,82.81 -39.86,115.41 -5.06,12.46 -6.5,15.2 -15.89,18.08z"/>
    <path class="fil14" d="M22697.07 28300.15c-13.12,2.41 -35.43,14.83 -58.94,18.54 -47.53,7.49 -100.82,6.89 -143.33,-14.47 -10.48,-5.27 -16.4,-8.77 -24.53,-15.15 -9.07,-7.11 -14.12,-13.97 -30.38,-13.09 -6.79,13.45 -4.93,16.83 -7.1,35.34 -0.96,0.2 -44.83,-4.58 -17.57,32.66 41.5,56.69 141.08,6.5 155.1,9.99 7.06,14.23 0.07,16.67 -3.03,31l22.51 8.66c-1.98,41.96 -77.45,41.05 -116.45,30.75 -109.02,-28.78 -129.19,-142.61 -62.43,-181.13 20.62,-11.89 117.16,-24.57 55.68,-61.66 7.02,-11.6 14.68,-16.37 33.15,-17.4 14.95,-0.84 36.38,2.78 49.75,0.19 14.54,-2.82 22.08,-17.36 12.92,-29.91 -9.09,-12.46 -21.4,-6.35 -32.48,-17 12.04,-17.52 57.28,-9.54 42.9,-32.86 -18.86,-30.61 -198.3,-32.53 -251.77,128.16 -15.11,45.42 -10.3,101.08 7.27,142.29 57.56,134.99 231.71,156.95 320.41,63.19 18.09,-19.12 58.25,-76.99 48.32,-118.1z"/>
    <path class="fil14" d="M21517.34 28987.41c-41.87,13.77 -42.16,69.31 -28.1,110.9 17.97,53.16 22.95,72.46 14.95,134.4 -6,46.56 -14.45,87 -38.42,119.42 -45.93,62.14 -206.38,92.1 -173.88,-213.9 2.76,-25.94 23.97,-117.67 16.45,-136.61 -7.97,-20.1 -44.64,-4.98 -56.8,4.25 -34.77,26.4 -112.33,336.01 45.47,410.17 38.29,18 91.58,22.24 135.93,8.98 129.1,-38.59 145.85,-216.28 138.74,-336.69 -2.27,-38.25 -7.51,-116.34 -54.34,-100.92z"/>
    <path class="fil14" d="M22980.12 29318.13c-7.84,-23.63 -6.68,-51.44 2.55,-73.85 8.31,-20.17 35.78,-35.32 55.06,-16.79 35.73,34.34 -19.58,95.47 -57.61,90.64zm205.51 -13.87c17.55,30.19 13.58,83.32 35.83,112.75 56.72,75.02 91.84,-226.82 194.54,-220.24 11.66,17.68 12.88,32.87 45.06,33.7 72.08,1.87 45.93,-123.14 -62.21,-88.54 -100.02,32 -114.08,174.9 -136.16,179.25 -26.74,5.27 -29.07,-105.58 -34.85,-128.75 -1.58,-6.3 -1.34,-5.01 -3.8,-9.34 -2.71,-4.76 -2.01,-3.23 -4.79,-6.2 -32.66,-9.59 -38.22,36.24 -46.48,62.72 -50.86,162.99 -173.32,157.21 -177.52,112.03 10.39,-9.44 41.98,-17.54 56.84,-24.69 128,-61.54 16.1,-233.46 -90.05,-126.44 -60.37,60.86 -76.2,226.87 56.27,226.87 117.56,0 151.39,-117.48 167.32,-123.12z"/>
    <path class="fil14" d="M23032.39 27141.02c11.14,-10.76 25.39,-11.41 40.53,-19.18 71.35,-36.64 55.37,-81.6 70.89,-101.12 40.87,20.41 24.81,70.35 -3.27,92.87 -25.97,20.83 -85.78,33.1 -108.15,27.43zm132.08 -192.22c-62.28,9.35 -8.35,-67.45 6.13,-13.43l-6.13 13.43zm-286.83 -32.57c10.74,14.18 48.38,17.47 67.11,26.54 18.01,8.72 46.32,30.8 52.63,44.22 -24.43,11.61 -71.67,5.43 -93.71,27.22 13.74,18.82 109.34,22.89 116.83,70.75 4.94,31.53 -25.6,44.63 -52.55,36.07 -30.93,-9.82 -36.27,-35.55 -57.62,-36.35 -3.45,26.56 11.51,43.41 -3.3,69.54 -5.01,8.85 -12.25,13.94 -20.82,18.85 -13.21,7.56 -17.88,5.53 -20.39,20.72 132.57,17 351.71,23.76 344.42,-153.04 -1.08,-26.18 -8.18,-48.37 -14.71,-71.36 -13.3,-46.82 10.63,-54.53 17.31,-67.04 -19.57,-4.6 -53.65,-12.98 -72.19,-9.82 -22.73,3.88 -36.74,22.2 -36.92,49.15 -0.17,23.79 7.98,50.87 -1.07,74.45 -8.95,23.31 -45.65,22.98 -48.98,-8.15 -4.16,-38.92 48.41,-96.29 -32.4,-108.21 -38.02,-5.61 -118.81,-3.49 -143.64,16.46z"/>
    <path class="fil14" d="M21908.7 27608.55c-10.02,-7.96 -29.78,-59.22 -67.84,-80.39 -15.83,-8.81 -43.2,-13.69 -58.96,0.13 -10.7,9.4 -24.94,60.05 -6.4,58.17 5.96,-0.6 4.38,-1.1 6.37,-1.68 20.69,-6.04 34.4,-5.56 55.28,6.45 18.49,10.64 39.66,25.13 46.53,41.38 -38.94,-2.8 -87.11,-17.66 -118.08,4.88 -22.52,16.39 -43.95,52.72 -36.34,94.71 7.73,0.19 0.06,2.96 6.26,-2.88l16.45 -22.86c6.92,-7.81 20.04,-17.83 31.74,-24.34 23.85,-13.29 57.81,-25.2 91.85,-21.21 -2.89,15.64 -11.85,15.93 -22.28,73.9 -3.92,21.81 -10.65,8.81 -12.46,22.7 2.96,19.55 18.22,51.73 17.61,65.94 -0.68,16.01 -9.07,12 -4.05,31.09 5.38,20.46 25.91,37.36 27.35,55.39 2.25,28.11 -16.59,1.39 30.43,48.84 11.42,11.53 13.48,21.17 19.65,23.13 18.04,-0.61 29.63,-10.22 33.69,-26.25 -6.74,-14.87 -11.91,-14.77 -19.48,-27.4 -14.91,-24.91 2.54,-10.86 -18.4,-31.11 -12.52,-12.11 -10.08,-17.62 -11.86,-37.24 -4.45,-49.14 -25.38,-12.68 -16.42,-78.85 8.26,-61.01 -23.38,-25.24 5.23,-73.9 7.26,-12.35 10.5,-20.7 16.12,-33.05 19.2,3.86 34.82,27.38 42.63,45.4 15.13,34.92 2.08,44.68 5.34,73.61 52.11,-11.29 106.84,-86.66 42.91,-125.22 -16.38,-9.89 -40.11,-11.46 -55.17,-20.15 24.29,-11.73 93.98,-18.39 125.87,-1.02 16.66,9.07 13.8,14.78 24.58,29.35 2.7,-2.5 2.29,-1.55 5.19,-5.59 11.44,-15.92 13.51,-39.42 6.05,-56.23 -8.32,-18.73 -25.77,-31.04 -50.67,-33.26 -58.17,-5.2 -87.03,24.31 -126.16,42.66 2.83,-14.86 9.95,-25.22 18.84,-35.97 13.56,-16.38 11.35,-15.7 37.64,-18.44 -2.54,-22.5 -34.41,-64.14 -61.55,-58.49 -32.03,6.68 -19.23,70.66 -27.49,97.8z"/>
    <path class="fil14" d="M21795.32 28358.54c-2.13,3.09 -23.91,19.57 0.17,40.54 14.14,12.31 34.57,14.79 56.42,12.77 6.52,46.47 -59.81,31.91 -78.33,19.1 -25.16,-17.41 -43.32,-61.91 -11.95,-87.39 38.67,-31.41 134.46,1.39 135.36,97.53 1.11,119.68 -173.32,98.92 -216.83,-5.89 -18.69,-45.02 -14.33,-67.12 -8.51,-114.65 -18.49,2.62 -23.68,9.86 -33.53,21.64 -64.96,77.71 -1.41,197.84 99.18,237.34 65.3,25.66 136.54,11.98 171.5,-29.39 35.84,-42.4 29.27,-122.19 4.01,-172.54 -73.98,-147.44 -273.54,-79.42 -203.36,51.36 35.9,66.89 114.03,77.51 147.37,49.47 46.44,-39.06 8.42,-127.55 -61.5,-119.89z"/>
    <path class="fil14" d="M22962.39 28240.29c51.23,-4.5 93.44,51.27 56.4,65.84 -22.38,8.79 -45.09,-0.78 -56.78,-13.43 -17.09,-18.48 -11.83,-35.34 0.38,-52.41zm-59.97 43.12c25.48,42.22 -76.4,87.75 -100.67,119.61 -24.04,31.58 44.44,72.15 79.64,65.93 59.08,-10.42 92.44,-112.96 113.86,-112.3 27.25,0.85 2.36,73.25 -71.28,118.92 -22.44,13.91 -57.59,15.76 -29.41,52.98 30.59,40.39 95.28,-41.27 114.3,-63.89 153.41,-182.43 -21.37,-300.91 -119.65,-238.49 -37.79,24 -37.44,65.85 -111.22,93.61 -27.12,10.2 -60.29,5.39 -51.67,43.14 17.79,77.94 113.66,-31.42 143.75,-60.12 8.42,-8.02 16.13,-19.13 32.35,-19.39z"/>
    <path class="fil14" d="M21997.86 27450.21c-18.83,-19.07 -3.62,-59.14 18.81,-58.43 6.32,13.61 3.84,20.26 0.02,34.59 -3.74,14.08 -4.32,22.79 -18.83,23.84zm36.83 42.74c-10.66,-20.74 -0.5,-52.28 5.62,-72.73 5.58,-18.62 13.69,-46.28 30.31,-51.91 9.52,20.15 2.01,53.5 -3.89,75.26 -3.1,11.42 -6.71,22.36 -11.06,31.62 -5.91,12.59 -6.9,17.92 -20.98,17.76zm-115.3 -63.23c-5.15,-14.91 -3.52,-77.63 33.44,-82.67 21.84,51.44 -6.77,87.35 -33.44,82.67zm-56.98 23.97c-10.38,-23.56 15.55,-98.52 25.93,-126.08 8.99,-23.87 10.77,-27.14 23.66,-30.55 5.26,8.39 4.98,14.75 3.57,27.87 -2.14,19.81 -26.61,137.84 -53.16,128.76zm-61.89 -119.42c14.8,-4.54 19.32,-9.42 38.63,-5.77 13.15,27.29 6.64,68.77 -12.96,88.99 -12.78,13.2 -30.15,12.37 -38.43,-1.28 -6.51,-10.72 -7.67,-34.4 -12.94,-45.24 -42.18,2.52 -31.33,112.69 44.68,123.43 85.95,12.16 136.47,-59.53 144.81,-61.21 0.6,0.62 1.42,0.79 1.63,2.01l5 9.15c11.49,30.29 12.84,62.11 52.34,86.42 42,25.86 93.35,-1.73 93.56,-44.54l-22.84 1.06c-10.19,-22.68 -13.7,-83.46 15.76,-85.36 10.57,11.66 5.73,33.55 12.97,52.04 32.44,-8.08 23.84,-106.63 -21.27,-126.97 -62.43,-28.15 -106.76,49.08 -116.81,53.8 -5.85,-185.88 -177.45,-113.09 -184.13,-46.53z"/>
    <path class="fil14" d="M22017.68 27964.65c-34.42,18.87 -81.92,131.64 42.17,196.58 20.92,10.95 65.42,21.87 88.51,11.4 -10.87,-9.88 -32.58,-13.15 -46.29,-40.37 -12.5,-24.81 -5.05,-53.33 5.15,-73.91 20.59,-41.53 65.14,-75.33 18.07,-121.13 -12.55,-12.21 -42.35,-24.06 -30.09,-55.61 10.91,-28.08 73.25,-64.69 35.62,-125.06 -7.97,-12.78 -33.89,-38.68 -49.79,-41.32 5.93,20.95 11.3,35.97 -0.13,56.09 -6.3,11.08 -27.65,28.58 -37.24,35.34 -73.15,51.54 -100.59,75.25 18.68,147.22 46.27,27.92 10.12,52.57 -32.51,19.37 -7.53,-5.87 -3.45,-4.18 -12.15,-8.6z"/>
    <path class="fil14" d="M22465.29 28038.88c90.55,-3.78 91.75,-84.47 128.82,-71.82 5.32,22.02 -17.76,32.09 -16.83,58.01 1.71,47.95 95.31,52.07 74.41,3.47 -7.77,-18.07 -29.18,-27.94 -26.32,-53.17 15.03,-9.55 44,-6.5 58.56,0.81 1.03,18.71 -6.85,17.35 -7.71,26.78 -1.41,15.39 -1.63,3.63 2.32,9.51 22.16,8.59 93.25,-12.71 105.56,-27.09 6.18,-18.56 -70.58,-75.3 -91.27,-77.68l-3.67 35.64c-43.32,17.9 -80.53,-21.67 -47.41,-50.51 23.57,-20.53 78.25,-19.88 87.19,-52.76l-50.21 -20.39c-80.02,-39.62 -59.82,38.75 -60.01,50.27 -0.41,26.31 -26.96,35.54 -26.96,-10.07 0,-43.66 10.49,-63.89 -23.56,-84.89 -12.02,-7.41 -26.56,-10.98 -36.12,-16.8 -13.3,-8.08 -15.9,-17.07 -25.64,-29.2 -17.46,13.21 -39.54,79.77 -12.58,113.73 23.42,29.51 80.75,39.85 87.95,71.16 6.39,27.78 -17.22,37.93 -35.96,18.89 -8.89,-9.03 -25.98,-35.28 -48.65,-22.86 -19.9,10.91 -9.78,45.59 -9.14,68.96 1.01,36.69 -15.42,39.05 -22.77,60.01z"/>
    <path class="fil14" d="M22173 28295.8c-6.32,-12.47 -2.75,-22.02 -1.22,-36.69 3.86,-36.91 15.26,-18.81 45.32,-41.35 11.08,-8.3 9.27,-12.32 25.26,-8.3 13.1,36.38 -41.29,102.49 -69.36,86.34zm29.32 -114.74c-27.37,25.03 -39.99,31.11 -85.57,31.11 -98.74,0 -113.44,-64.77 -135.4,-55.13 -22.8,10.02 -16.48,110.36 55.31,159.37 124.72,85.15 286.52,-27.75 240.24,-154.29 -18.88,-51.61 -77.74,-47.86 -100.04,-78.37 -8.43,-11.54 -11.53,-30.08 -20.36,-37.78 -13.82,18.07 -28.48,53.41 -9.77,77.88 15.37,20.1 53.33,22.15 55.59,57.21z"/>
    <path class="fil14" d="M22777.29 27876.09c-18.25,9.52 -25.84,2.24 -41.11,9.27 -2.01,11.85 9.19,14.54 20.85,21.16 121.98,69.23 56.19,129.29 -13.43,144.03 -13.19,2.79 -28.45,3.61 -38.51,10.78 6.98,16.34 19.83,6.35 40.59,18.89 4.15,19.3 -17.92,28.77 -15.45,44.01 8.05,3.22 13.58,-1.59 21.04,-6.29 8.16,-5.15 12.33,-8.29 22.67,-8.85 16.24,16.38 4.34,26.73 19.81,37.6 14.84,-16.37 5.78,-53.62 14.19,-77.79 7.64,-21.98 22.66,-46.67 45.25,-47.89 19.17,11.4 23.48,44.47 17.55,71.31 -5.16,23.36 -23.55,50.48 -22.99,70.25 28.03,2.34 24.2,-41.23 56.78,-0.66 9.09,11.32 4.92,15.06 21.51,17.74 6.78,-19.22 -9.85,-38.43 0.77,-51.64 11.59,-13.39 22.08,-2.49 37.98,-10.54 -5.64,-16.39 -32.77,-16.06 -56.04,-42.29 -9.31,-10.5 -23.84,-31.45 -25.43,-47.9 -3.19,-33.1 38.05,-38.22 81,31.92 7.97,13.01 8.4,20.69 20.78,24.98l5.42 -39.51c18.42,-11.88 32.26,1.93 46.57,-3.84 -2.05,-18.67 -13.32,-4.94 -38.07,-32.34 2.81,-20.83 22.24,-29.51 20.59,-44.22 -17.05,-1.09 -101.51,46.75 -122.56,13.46 -18.46,-29.2 43.7,-43.87 62.68,-47.76 17.05,-3.51 22.58,-0.44 27.66,-13.33 -10.79,-6.33 -24.56,-3.9 -37.55,-13.82 0.96,-15.69 17.28,-34.34 11.63,-42.3 -11.85,-7.82 -19.72,18.7 -38.56,17.21 -16.9,-1.34 -16.74,-28.27 -33.7,-25.74 -0.45,0.86 -0.9,1.24 -1.01,2.72 -0.11,1.48 -0.76,2.04 -0.88,2.76 -0.77,4.52 -1.06,2.71 -1.02,8.77 0.2,27.01 17.46,52.64 -12.42,96.39l-22.27 0.44c-25,-42.49 1.73,-74.08 2.47,-124.28 -30.34,3.44 -17.25,22.66 -43.82,24.75 -14.82,-9.62 -12.54,-28.08 -32.48,-29.84l-0.49 42.39z"/>
    <path class="fil14" d="M21623.71 28000.78c-25.56,55.71 87.18,97.07 87.18,-28.61 0,-23.67 -0.97,-49.27 0.17,-72.75 0.8,-16.4 3.94,-44.41 16.61,-56.32 2.8,18.27 2.04,35.77 6.2,56.46 8.79,43.65 46.13,113.47 19.83,151.39 -28.48,5.08 -17.77,-3.7 -37.39,-7.87 -6.9,65.73 47.45,56.2 61.82,46.08 75.73,-53.32 -73.64,-218.62 -14.24,-295.74 8.14,33.72 8.09,55.82 21.41,90.93 9.59,25.25 24.31,56.05 38,77.51 16.87,26.43 28.99,46.39 43.3,72.28 12.78,23.15 33.18,74.94 -14.04,70.55 -12.86,-6.94 -15.48,-11.78 -18.3,-27.54 -8.46,3.5 -7.4,0.37 -13.89,11.6 -3.8,6.58 -4.98,13.47 -4.66,22.01 0.55,14.74 7.78,28.64 15.17,34.98 17.46,15 52.8,19.18 75.5,2.45 94.06,-69.37 -100.53,-195.96 -118.07,-343.39 -4.15,-34.9 5.34,-58.22 14.25,-84.61 -35.61,4.67 -92.57,82.79 -108.24,133.4 -11.63,37.52 -7.98,71.64 -10.56,112.06 -4.96,77.76 -52.02,33.93 -60.05,35.13z"/>
    <path class="fil14" d="M22677.82 28663.67l-0.88 -4.63c-0.05,-9.56 -0.92,1.38 0.41,-7.51 9.32,-62.54 -1.14,-49.92 40.93,-54.69 41.6,-4.72 78.85,-41.83 59.91,13.23 -8.99,26.16 -61.39,61.43 -100.37,53.6zm134.65 -144.7c-12.77,5.93 -22.87,15.09 -37.68,22.11 -15.95,7.58 -28.74,12.72 -47.01,15.86 -73.21,12.58 -92.2,-10.62 -110.37,-5.02 -29.26,9.02 -94.4,136.32 -16.64,161.14 96.87,30.91 292.45,-76.78 248.91,-172.84 -5.55,-12.24 -21.89,-28.38 -37.21,-21.25z"/>
    <path class="fil14" d="M21648.7 26905.48c8.23,10.44 3.8,3.4 28.53,16.26l1 21.33c-9.83,4.74 -19.93,11.83 -34.66,17.54 -13.18,5.1 -29.15,7.26 -34.22,20.26 19.7,16.75 106.19,-22.77 84.28,22.92 -10.1,21.05 -31.69,28.71 -33.08,53.96 30.44,1.89 40.02,-36.37 69.22,-32.49 31.42,4.19 11.36,60.13 28.09,76.78 23.98,-3.13 10.7,-38.55 34.61,-74.77 17.95,-2.09 21.68,-3.48 39.29,21.21 9.3,13.04 15.95,27.47 34.55,29.19 8.56,-28.49 -20.59,-42.03 -16.71,-80.26 9.85,-7.42 14.92,-11.28 33.43,-6.78l29.1 7.11c34.62,-1.34 -5.11,-25.17 -17.08,-32.33 -66.31,-39.66 -3.62,-46.29 2.61,-62.52 -15.94,-8.33 -51.57,-12.1 -71.14,-3.54 -21.57,9.43 -24.06,33.65 -53.28,33.33 -27.64,-0.3 -28.07,-25.12 -51.8,-34.88 -12.56,-5.17 -27.2,-4.36 -40.76,-3.26 -10.86,0.87 -25.39,2.19 -31.98,10.94z"/>
    <path class="fil14" d="M22852.93 27321.72c13.18,2.22 62.16,5.06 68.86,9.77 -4.29,27.29 -76.31,32.44 -114.02,5.88 -10.87,-7.66 -19.8,-13.13 -21.75,-30.44 23.08,0.74 42.08,10.62 66.91,14.79zm-28.22 -79.43c-99.58,39.2 -120.92,1.15 -107.77,54.04 2.93,11.83 11.55,30.93 16.87,39.01 62.2,94.33 187.95,82.38 232.08,42.87 38.31,-34.29 -15.21,-112.94 -23.67,-119.32 -14.1,-10.63 -31.69,-0.97 -45.53,3.84 -54.87,19.09 -29.52,-37.15 -71.98,-20.44z"/>
    <path class="fil14" d="M22229.78 28406.14c-24.75,-6.94 -31.36,-26.19 -64.32,-12.16 -42.25,17.97 -32.43,77.33 -76.27,95.6 -31.12,12.96 -55.66,-4.01 -76.79,2.39 -13.97,81.22 188.36,96.28 232.61,-5.08 9.51,-21.79 -1.91,-44.71 3.84,-58.7 22.58,-7.6 22.32,5.75 37.54,8.28 34.27,5.71 13.15,-35.06 14.27,-43.06 1.38,-9.89 16.75,-39.97 -32,-35.18 -7.6,-9.29 -27.12,-33.45 -38.81,-11.61 -10.38,19.41 10.6,29.64 -0.07,59.52z"/>
    <path class="fil14" d="M23081.16 28098.48c-28.15,-6.03 -55.55,-13.2 -74.32,7.52 -18.43,20.35 -13.16,56.55 5.27,70.52 50.29,38.14 74.54,10.5 99.02,85.57l2.96 7.2c35.18,-18.93 71.72,-101.04 71.72,-155.12 0,-95.91 -74.69,-125.61 -103.14,-77.55 -13.12,22.16 -5.89,38.35 -1.51,61.86z"/>
    <path class="fil14" d="M21670.53 28169.17c34,-13.25 48.21,34.96 20.36,47.74 -31.72,14.57 -54.7,-34.37 -20.36,-47.74zm-50.69 -6.89c-22.72,13.85 -49.92,16.02 -42.92,59.52 2.18,13.59 10.47,24.51 22.33,29.98 18.08,8.34 30.43,2.73 48.56,1.07 3.88,4.15 20.02,44.01 63.32,27.04 29.67,-11.63 28.07,-31.64 26.15,-63.33 74.46,-12.1 46.71,-115.31 -25.41,-84.15 -13.74,-12.87 -24.2,-41.74 -62.48,-29.93 -34.94,10.78 -30.47,42.12 -29.55,59.8z"/>
    <path class="fil14" d="M21551.34 27516.43c-45.32,40.9 -102.36,-60.09 -52.14,-74.6 7.88,11.83 6.09,29.78 19.71,45.03 8.66,9.69 28.53,19.55 32.43,29.57zm25.24 -105.74c18.9,28.75 2.57,15.93 25.28,39.51 13.74,14.27 5.05,38.75 -17.41,30.6 -20.15,-7.31 -63.72,-76.74 -7.87,-70.11zm64.45 26.48c-8.28,-9.34 -15.29,-10.74 -21.45,-24.9 -8.14,-18.73 0.68,-22.77 -24.32,-24.98 -53.51,-4.71 -108.46,5.69 -139.43,52.77 -18.05,27.43 -15.68,40.5 -24.63,74.48 -12.03,45.66 7.42,26.26 47.86,38.4 90.78,27.25 167.73,-62.86 161.97,-115.77z"/>
    <path class="fil14" d="M23193.34 27562.48c25.94,-25.39 34.85,-186.76 11.32,-228.31 -15.69,6.7 -21.35,23.63 -31.65,33.12 -21.07,19.42 -58.23,36.8 -88.75,39.92 -30.15,3.09 -35.51,-2.93 -22.1,28.93 18.98,45.09 52.96,76.92 86.58,105.02 9.58,8 27.78,20.97 44.6,21.32z"/>
    <path class="fil14" d="M22058.69 28409.64c-13.58,12.26 -25.06,6.61 -40.51,-1.91 -9.4,-5.19 -30.39,-17.6 -21.79,-33.67 11.98,-22.39 63.96,6.14 62.3,35.58zm-228.4 -209.98c-15.34,5.24 -36.27,13.37 -29.22,34.96 10.05,30.75 93.51,15.57 129.33,79.14 16.46,29.23 11.25,73.99 34.16,101.17 20.98,24.88 61.25,43.85 102.58,36.42 46.56,-8.36 20.23,-62.51 0.16,-82.96 -52.25,-53.24 -82.79,-11.77 -100.56,-38.23 -14.81,-22.04 -14.43,-67.11 -37.83,-97.53 -18.05,-23.47 -53.67,-48.31 -98.62,-32.97z"/>
    <path class="fil14" d="M22574.49 27408.53c-2.4,-13.76 6.63,-9.36 7.29,-24.36l-1.24 -7.96c-13.61,-5.74 -29.24,1.77 -48.21,-4.61 -17.09,-5.75 -22.58,-16.07 -36.35,-19.63 -23.18,29.08 -24.09,126.49 13.76,136.6 10.3,-6.73 10.03,-14.08 17.56,-23.59 17.9,-0.95 38.06,11.92 68.5,9.83 105.22,-7.23 111.35,-120.69 85.67,-143.3 -12.34,33.58 -3.69,38.89 -30.48,61.96 -15.28,13.16 -52.22,26.98 -76.5,15.06z"/>
    <path class="fil14" d="M22648.44 28139.97c13.86,2.5 18.47,8.33 22.9,20.82 13.44,37.9 -39.88,54.43 -28.73,-6.2l5.83 -14.62zm-41.94 -54.53c25.98,67.83 -14.4,70.93 -13.05,127.45 1.12,46.64 50.45,78.08 93.29,51.93 64.4,-39.32 19.96,-167.3 -80.24,-179.38z"/>
    <path class="fil14" d="M21659.95 27500.49c-19.07,18.49 -36.21,59.79 -30.37,93.69 5.74,33.31 32.59,64 72.58,52.82 31.33,-8.76 44.63,-52.04 29.38,-88.79 -9.78,-23.57 -43.48,-54.17 -71.59,-57.72z"/>
    <path class="fil14" d="M22509.91 27317.5c11.64,-4.93 36.6,-56.99 90.86,-20.89 -23.38,34.1 -8.65,28.91 11.09,45.02 13.73,11.2 6.49,12.74 20.07,21.11l10.05 -8.04c11.89,-11.17 16.03,-17.97 22.16,-33.97 8.33,-21.72 9.94,-44.53 8.17,-69.54 -19.27,-0.26 -14.23,6.98 -29.29,3.41 -1.51,-0.36 -75.79,-53.56 -124.44,6.41 -10.82,13.33 -17.5,39.41 -8.67,56.49z"/>
    <path class="fil14" d="M22635.9 28510.77c39.15,30 112.98,24.02 141.75,-0.01 22.92,-19.16 16.71,-88.93 -89.21,-69.3 -59.47,11.03 -55.61,30.5 -52.54,69.31z"/>
    <path class="fil14" d="M23163.44 27226.15c15.68,103.66 -127.92,95 -142.12,108.41 -8.01,7.56 -18.96,38.46 28.76,44.3 68.81,8.42 146.38,-50.99 148.99,-103.65 1.36,-27.32 -9.9,-49.4 -35.63,-49.06z"/>
    <path class="fil14" d="M21588.93 27348.54c6.31,-33.07 5.73,-74.06 -10.97,-99.2 -16.7,-25.12 -57.32,-35.76 -80.97,-12.53 -34.23,33.61 -3.79,117.69 91.94,111.73z"/>
    <path class="fil14" d="M22746.16 28159.07c-1.73,14.53 3.95,25.75 -2.24,44 -29.12,85.81 39.82,83.95 62.42,68.99 55.17,-36.52 -0.19,-118.69 -60.18,-112.99z"/>
    <path class="fil14" d="M22124.32 27288.43c34.06,-45.17 8.29,-67.66 -22.46,-90.69 -18.53,-13.88 -62.33,-54.45 -90.26,-54.1 0.14,25.81 52.25,97.26 72.4,118.2 18.53,19.25 18.47,27.6 40.32,26.59z"/>
    <path class="fil14" d="M22677.29 27699.81c-61.11,23.96 -24.34,111.69 33.57,90.45 61.51,-22.56 24.34,-113.16 -33.57,-90.45z"/>
    <path class="fil14" d="M22040.25 28961.8c-57.24,17.76 -43.05,111.33 15.14,94.94 49.27,-13.87 48.92,-114.82 -15.14,-94.94z"/>
    <path class="fil14" d="M23002.77 27246.56c5.05,30.9 10.35,57.67 47.91,54.12 91.25,-8.64 118.59,-97.04 41.11,-70.76 -12.34,4.18 -26.07,11.13 -39,13.69 -17.39,3.43 -33.56,-0.01 -50.02,2.95z"/>
    <path class="fil14" d="M22684.35 27494.99c-49.38,12.58 -37.14,102.28 25.84,86.58 54.78,-13.66 32.89,-101.54 -25.84,-86.58z"/>
    <path class="fil14" d="M22600.22 27572.78c-54.23,25.36 -15.06,98.26 35.76,76.42 18.06,-7.76 30.27,-35.6 19.88,-57.61 -8.56,-18.14 -32.3,-29.73 -55.64,-18.81z"/>
    <path class="fil14" d="M22513.88 27618.29c-51.9,17.25 -23.36,92.22 26.45,74.15 46.2,-16.77 25.22,-91.32 -26.45,-74.15z"/>
    <path class="fil14" d="M21507.1 27369.12c-5.65,-8.51 0.59,-2.78 -9.8,-9.35 -28.39,-17.94 -48.63,-24.01 -49.92,-85.91 -32.03,7.46 -47.21,50.78 -28.37,81.67 22.59,37.05 56.83,21.71 88.09,13.59z"/>
    <path class="fil14" d="M22514.35 28204.59c5.5,24.33 -3.51,54.87 3.98,69.36 9.06,17.55 36.76,19.42 50.73,5.31 31.48,-31.79 -19.22,-82.05 -54.71,-74.67z"/>
    <path class="fil14" d="M21620.98 27651.74c-4.31,-17.56 -35.28,-33.91 -19.83,-92.11 -25.04,3.56 -51.74,30.91 -48.47,61.91 3.53,33.34 40.69,43.25 68.3,30.2z"/>
    <path class="fil14" d="M21532.11 27664.74c-22.93,-1.8 -48.85,11.06 -77.1,4.45 -28.84,-6.76 -36.05,-30.63 -49.62,-32.32 9.06,34.22 3.89,71.49 47.47,70.84 27.87,-0.42 67.46,-27.77 79.25,-42.97z"/>
    <path class="fil14" d="M21418.04 27131.94c21.44,3.76 35.59,-10.36 46.45,-20.1 11.89,-10.66 30.09,-22.53 31.26,-41.38 -43.99,-14.4 -93.97,8.29 -77.71,61.48z"/>
    <path class="fil14" d="M22771.24 27654.68c-47.25,18.47 -20.03,72.71 17.85,62.27 40.39,-11.13 21.67,-77.72 -17.85,-62.27z"/>
    <path class="fil14" d="M22064.67 26971.83c0.39,17.87 11.88,21.97 25.27,29.86 28.72,16.94 52.85,23.42 52.26,-16.96 -0.19,-13.32 -0.55,-19.25 -12.74,-22.44 -21.97,-5.73 -50.9,1.92 -64.79,9.54z"/>
    <path class="fil14" d="M22760.39 27571.68c-32.39,16.66 -8.45,69.75 27.75,51.61 32.84,-16.46 7.01,-69.48 -27.75,-51.61z"/>
    <path class="fil14" d="M21521.8 27596.37c-19.24,-0.93 -32.4,2.13 -52.83,-3.72 -22.55,-6.45 -21.12,-15.71 -39.2,-21.21 -1.07,87.44 86.85,55.15 92.03,24.93z"/>
    <path class="fil14" d="M22687.84 27621.03c-31.63,14.63 -13.45,63.37 23.06,50.52 34.24,-12.06 12.09,-66.79 -23.06,-50.52z"/>
    <path class="fil14" d="M21680.73 27403.36c-35.12,16.68 -9.35,66.27 23.32,50.65 30.73,-14.7 11.12,-67 -23.32,-50.65z"/>
    <path class="fil14" d="M22595.94 27677.59c-32.95,17.1 -10.62,62.35 23.07,50.49 33.47,-11.77 12.28,-68.83 -23.07,-50.49z"/>
    <path class="fil14" d="M22526.21 27531.85c-33.13,16.91 -10.94,64.19 25.04,49.51 30.66,-12.5 9.66,-67.22 -25.04,-49.51z"/>
    <path class="fil14" d="M21642.46 27342.34c-5.91,3.86 -10.03,3.68 -13.31,13.69 -8.56,26.09 18.29,46.99 40.42,33.63 29.05,-17.55 5.44,-68.53 -27.11,-47.32z"/>
    <path class="fil14" d="M22718.71 27430.68c-2.38,1.37 -22.01,6.92 -11.48,33.38 5.12,12.88 21.45,19.74 38.09,10.77 26.32,-14.18 8.83,-64.5 -26.61,-44.15z"/>
    <path class="fil14" d="M22770.84 27750.14c-32.28,16.96 -7.67,59.2 22.43,46.79 33.7,-13.89 10.76,-64.22 -22.43,-46.79z"/>
    <path class="fil14" d="M22593.26 27496.58c-31.72,15.9 -10.94,59.85 22.77,46.97 28.99,-11.07 11.7,-64.26 -22.77,-46.97z"/>
   </g>
   <g>
    <path class="fil15" d="M37822.01 27861.49c8.75,-3.97 117.93,-1.86 137.21,-1.88 51.65,-0.06 81.56,-2.76 102.34,35.3 16.28,29.81 17.71,80.66 6.91,116.72 -11.77,39.27 -36.83,52.33 -84.58,52.61 -121.21,0.72 -100.24,-10.31 -100.46,37.43 -0.12,27.89 7.43,46.56 -22.86,46.3 -25.76,-0.23 -47.51,7.68 -48.06,-21.52l-0.07 -205.16c-0.01,-25.7 -3.96,-53.67 9.57,-59.8zm-90.07 -19.96l0 324.7c0,27.92 13.89,41.54 41.28,41.54l318.85 0c45.41,0 47.91,-18.46 47.91,-60.52l0 -296.22c0,-57.19 -25.78,-50.91 -74.48,-50.91l-250.53 0c-43.57,0 -83.03,-7.86 -83.03,41.41z"/>
    <path class="fil16" d="M39190.82 27883.31c0,-21.41 4.83,-24.89 26.73,-24.89l129.06 0c30.19,0 64.47,-0.69 80.8,18.1 6.89,7.93 15.6,18.58 18.88,30.31 13.28,47.44 13.28,112.53 -24.55,144.71 -23.4,19.91 -103.02,12.92 -143.51,13.12l-12.56 1.59c-4.05,-6.4 -3.37,48.56 -3.37,50.62 0.03,18.54 3.35,30.27 -16.63,31.32 -62.98,3.33 -54.85,-1.59 -54.85,-44.62l0 -220.26zm-56.11 -80c-29.96,10.43 -24.3,43.35 -24.39,78.1 -0.13,51.53 -3.11,284.23 3.44,303.2 9.94,28.78 44.08,21.97 77.22,22.37 43.63,0.53 293.56,1.6 302.52,-1.84 0.21,-0.08 6.76,-3.25 7.82,-3.81 8.24,-4.38 2.84,0.2 7.12,-6.09 2.77,-4.07 7.35,-11.7 8.47,-16.23 2.7,-10.87 1.06,-136.12 1.06,-153.29 0,-26.98 2.7,-190.15 -1.5,-202.34 -10.25,-29.8 -53.99,-22.46 -78.76,-22.46 -48.74,0 -288.59,-2.62 -303,2.39z"/>
    <path class="fil16" d="M39811.42 27925.08c0,50.74 -2.88,126.46 4.43,170.84 1.77,10.71 5.82,16.45 11.13,24.59 27.72,42.46 123.18,20.7 129.51,28.01 4.06,11.17 -1.19,22.05 -8.39,28.98 -12.78,12.3 -65.32,7.04 -81.42,5.5 -10.75,-1.02 -24.24,-5.34 -31.85,-3.14 -13.44,3.89 -6.98,32.34 -6.05,43.82 24.27,16.12 66.28,16.22 98.6,16.22 34.09,0 58.3,-10.45 75.89,-28.11 18.75,-18.82 25.44,-51.71 25.44,-79.73l0 -206.98c0,-26.57 -18.37,-21.46 -50.08,-21.46 -16.25,0 -20.5,5.45 -20.5,21.46 0,5.36 1.39,159.5 -0.95,162.87 -4.12,5.91 -69.07,18.53 -74.4,-17.24 -2.01,-13.47 -0.79,-103.53 -0.78,-124.74 0,-47.39 3.91,-42.35 -47.62,-42.35 -16.82,0 -22.96,3.68 -22.96,21.46z"/>
    <path class="fil15" d="M38502.42 27845.33l0 284.83c0,17.53 8.71,18.22 24.19,18.18 9.65,-0.03 34.42,1.37 40.54,-2.39 14.94,-9.2 2.69,-61.72 7.91,-81.55 9.07,-0.08 35.13,40.94 40.04,47.58 6.49,8.79 12.01,16.38 18.65,24.99 9.2,11.95 6.76,11.32 33.4,11.32 12.47,0 39.59,1.67 48.75,-3.39 0.59,-15.52 -31.24,-50.06 -40.06,-61.4l-33.48 -44.37c-16.73,-21.26 -16.1,-15.49 7.85,-45.59l46.67 -53.93c32.34,-37.71 17.43,-36.38 -16.44,-36.38 -37.59,0 -31.99,-4.4 -64.4,37.14l-28.53 36.11c-3.95,5.76 -5.04,9 -12.65,8.8 -1.84,-47.24 -0.72,-94.57 -0.66,-141.85 0,-25.45 -13.72,-21.62 -36.11,-21.5 -24.84,0.14 -35.67,-3.47 -35.67,23.4z"/>
    <path class="fil16" d="M39695.72 28040.56c1.78,9.66 1.51,21.77 1.33,32.65 -0.37,22.82 6.84,27.72 -40.93,25.84 -46.15,-1.83 -32.23,-47.04 -17.05,-55.99 9.48,-5.59 46.68,-6.52 56.65,-2.5zm-115.24 -122.98c-2.73,56.74 7.09,41.36 55.18,38.76 10.49,-0.57 37.82,-1.64 46.38,1.31 16.98,5.87 17.64,23.66 12.61,32.93 -29.53,7.93 -149.02,-19.97 -134.75,101.2 3.87,32.88 29.94,52.03 63.33,56.2 36.32,4.55 75.08,3.97 112.14,-1.17 37.35,-5.18 29.25,-14.8 29.25,-88.81 0,-26.5 2.64,-94.83 -5.23,-114.91 -5.78,-14.76 -14.83,-24.02 -27.89,-30.9 -12.56,-6.62 -33.13,-10.84 -48.95,-11.33 -35.17,-1.09 -49.59,0.58 -82.32,6.39 -11.91,2.12 -12.94,4.85 -19.75,10.33z"/>
    <path class="fil16" d="M38867.31 27965.77c8.97,-8.41 60.69,-7.46 70.63,1.69 10.44,9.61 7.04,56.63 7.02,75.35 -0.02,27.19 -0.32,54.64 -0.05,81.76 0.15,14.11 0.45,22.54 16.27,23.35 56.39,2.89 52.96,-1.16 52.86,-29.14 -0.05,-13.89 -0.07,-27.86 -0.07,-41.79 0,-97.94 14.63,-156.54 -71.53,-172.79 -34.58,-6.52 -125.58,-0.53 -143.19,12.54 -8.99,6.67 -4.97,62.79 -4.97,76.7l0.21 121.53c-0.56,36.26 -0.21,33.62 49.24,32.99 18.84,-0.25 20.61,-2.97 20.79,-21.51l-0.05 -121.62c0,-6.97 -0.03,-13.94 -0.03,-20.91 0,-10.79 -1.08,-14 2.87,-18.15z"/>
    <path class="fil15" d="M38464.08 27961.2c2.92,-20.27 6.7,-46.84 -8.74,-53.91 -13.53,-6.19 -43.31,-7.51 -59.64,-6.92 -45.29,1.66 -71.55,19.18 -87.34,47.39 -15.29,27.31 -20.86,81.57 -13.28,117.87 8.68,41.6 23.95,62.63 56.34,78.47 19.93,9.75 101.59,12.41 111.64,-3.55 4.51,-7.15 3.02,-20.25 3.05,-29.46 0.04,-12.82 -0.45,-19.73 -13.4,-20.56 -19.42,-1.25 -44.95,6.44 -65.87,1.06 -35.5,-9.14 -28.23,-81.28 -23.14,-103.62 10.97,-48.21 62.41,-19.97 100.38,-26.77z"/>
    <path class="fil15" d="M38186.11 28145.96c10.34,2.47 22.7,2.28 35.03,2.33 12.7,0.06 26.6,2.51 30.7,-8.38 2.53,-6.75 1.16,-139.24 1.16,-157.86 0,-89.28 5.79,-77.85 -39.46,-78.62 -13.37,-0.23 -25.2,-3.12 -30.03,10.54 -3.39,9.6 -1.5,62.9 -1.5,77.57 0,36.81 -4.38,126.79 4.1,154.42z"/>
    <path class="fil15" d="M37884.46 27918.65c-3.07,13.07 -1.23,37.66 -1.21,52 0.05,41.42 -3.3,34.82 17.08,34.77 18.69,-0.04 84.44,5.25 95.04,-8.08 8.73,-10.98 9.05,-28.95 8.05,-45.76 -1,-16.65 -5.5,-27.66 -19.18,-32.44 -9.83,-3.43 -91.08,-4.54 -99.78,-0.49z"/>
    <path class="fil16" d="M39262.6 27930.78l0.61 73.14c21.99,2.46 38.25,0.76 60.62,1.67 22.57,0.94 46.51,1.62 53.62,-15.45 6.45,-15.46 6.45,-43.85 -1.02,-58.82 -8.58,-17.18 -36.24,-13.82 -56.39,-13.82 -51.77,0 -57.44,-6.43 -57.44,13.28z"/>
    <path class="fil15" d="M38067.2 28403.92c8.17,12.34 13.86,59.02 -19.88,49.93 -10.5,-2.83 -19.17,-54.72 19.88,-49.93zm-25.6 78.37c18.29,-6.95 63.17,11.26 61.91,-59.79 -1.19,-67.37 -52.38,-38.24 -68.88,-41.22 -36.68,-6.63 -24.2,17 -26.08,90.67 -0.67,26.29 -3.8,45.48 12.12,48.62 29.01,5.73 14.79,-24.42 20.93,-38.28z"/>
    <path class="fil15" d="M38574.8 28404.28c16.62,-3.11 24.52,-4.9 26.45,12.49 1.29,11.68 1.37,31.11 -6.78,35.63 -31.16,17.31 -25.75,-38 -19.67,-48.12zm-34.31 -53.86c0,24.41 -3.02,107.26 3.29,125.48 12.53,4.18 28.85,4.69 43.66,4.69 31.92,0 45.01,-17.3 45.69,-48.44 1.25,-57.17 -19.77,-55.57 -59.28,-54.65 -5.48,-15.09 0.57,-18.51 -5.05,-37.28 -10.95,-4.37 -28.31,-7.26 -28.31,10.2z"/>
    <path class="fil15" d="M38435.16 28447.35c-10.19,9.2 -27.46,11.63 -29.76,-7.76 -0.98,-8.26 -0.73,-17.62 0.96,-25.17 2.27,-10.18 5.07,-11.54 15.96,-11.54 14.65,0 14.53,1.13 14.13,15.8 -0.27,9.54 0.15,19.37 -1.29,28.67zm-61.46 -9.58c6.85,62.91 56,36.6 72.02,39.22 24.62,4.03 21.76,-4.79 21.52,-37.32 -0.14,-19.62 -0.11,-39.24 -0.11,-58.87 0,-20.6 6.81,-44.23 -16.32,-43.59 -20.21,0.56 -13.42,14.66 -14.4,30.55 -1.51,24.6 -25.78,-3.71 -52,22.6 -10.49,10.53 -12.53,30.68 -10.71,47.41z"/>
    <path class="fil15" d="M38950.05 28402.88c16.21,-2.91 21.34,4.47 21.96,19.97 0.57,14.15 1.69,28.76 -11.32,31.29 -4.88,0.95 -14.74,0.03 -18.61,-2.72 -4.72,-3.35 -5.32,-10.12 -5.7,-17.38 -0.78,-15.08 -0.67,-28.59 13.67,-31.16zm-43.44 44.38c8.88,47.36 111.08,55 95.54,-35.32 -5.71,-33.13 -35.26,-38.46 -63.79,-33.22 -32.56,6 -37.14,39.78 -31.75,68.54z"/>
    <path class="fil15" d="M38306.54 28417.54c-19.22,0 -12.76,-18.06 5.79,-16.78 7.23,0.5 12.68,3.66 10.41,11.49 -2.1,7.25 -7.73,5.29 -16.2,5.29zm26.57 21.02c12.29,0 17.91,1.29 19.83,-9.06 10.64,-57.26 -48.94,-60 -72.49,-46.34 -22.71,13.18 -23.32,80.86 3.47,92.49 13.74,5.96 34.91,6.26 50.86,3.54 9.63,-1.65 17.16,-3.13 17.69,-12.97 1.72,-32.35 -58.35,11.23 -57.63,-24.65 9.26,-5.59 24.49,-3.01 38.27,-3.01z"/>
    <path class="fil15" d="M39054.06 28451.53c-4.78,-14.67 2.52,-49.02 -2.29,-64.4 -2.7,-8.62 -16.24,-9.86 -23.86,-6.15 -8.65,4.2 -6.95,15.14 -6.83,26.38 0.21,19.01 -4.56,48.5 5.76,61.74 16.27,20.88 36.45,7.14 53.97,6.91 32.57,-0.42 32.09,8.12 31.36,-30.64 -0.29,-15.26 4.21,-55.67 -4.55,-62.78 -6.04,-4.91 -21.15,-4.62 -25.02,1.79 -3.84,6.36 -2.01,24.44 -2.02,32.5 -0.01,9.14 2.28,24.33 -3.43,30.43 -5.96,6.38 -16.42,7.84 -23.09,4.22z"/>
    <path class="fil15" d="M37793.75 28380.91c-8.55,12.59 -4.65,52.46 -4.74,72.11 -0.07,14.72 -1.81,23.54 12.72,24.78 16.42,1.4 18.57,-4.13 18.8,-19.03 0.23,-15.22 -7.51,-64.68 22.69,-55.35 7.78,2.4 5.34,17.33 5.33,32.45 0,12.37 -1.86,25.22 1.42,37.17 7.18,5.01 13.74,5.8 24.85,3.71 7.6,-10.36 7.55,-76.04 0.17,-87.58 -13.4,-20.93 -46.81,-7.66 -58.04,-8.24 -10.17,-0.52 -12.44,-1.87 -23.2,-0.02z"/>
    <path class="fil15" d="M38695.03 28516.91c7.9,-5.78 13.9,-32.87 18.7,-43.97 6.85,-15.83 32.24,-77.52 29.88,-91.17 -45.22,-12.26 -29.41,33.58 -44.2,46.27 -7.55,-1.76 -5.31,-0.83 -7.47,-9.42 -1.96,-7.79 -8.17,-29.53 -11.76,-33.8 -6.18,-7.34 -39.68,-13.79 -26.04,16.54 6.3,14.02 13.38,30.5 18.66,44.07 8.11,20.91 13.43,24.21 2.64,46.21 -3.11,6.34 -10.45,17.7 -5.61,24.71 4.12,5.96 20.19,4.21 25.2,0.56z"/>
    <path class="fil15" d="M38817.41 28517.24c30.31,12.94 33,-14.41 40.85,-34.52l32.42 -87.36c4.82,-14.08 -3.11,-18.11 -17.81,-15.54 -12.52,2.2 -12.16,11.9 -16.04,23.73 -3.68,11.23 -2.72,22.57 -14.05,25.11 -5.02,-17.35 -9.09,-32.07 -15.74,-47.86 -11.57,-1.89 -17.36,-2.4 -27.3,1.32 -3.88,14.13 4.86,22.55 9.44,35.09 4.21,11.54 8.34,21.5 12.82,32.73 5.59,14.02 12.45,18.23 4.23,34.89 -4.42,8.94 -12.37,22.56 -8.82,32.41z"/>
    <path class="fil15" d="M37934.24 28404.84c12.73,-4.72 33.6,1.13 40.62,-2.71 7.81,-4.28 11.36,-24.63 -11.85,-24.63 -24.9,0 -70.57,-4.52 -57.81,42.11 6.46,23.64 40.56,13.82 47.95,29.94 -10.47,12.31 -28.67,0.18 -45.07,5.34 -2.48,7.23 -2.58,15.21 -0.23,23.11 10.95,3.34 36.53,3.47 49.52,1.93 16.12,-1.91 24.15,-8.08 26.34,-23.33 7,-48.84 -40.18,-30.24 -49.47,-51.76z"/>
    <path class="fil15" d="M37730.35 28347.23c-2.53,24.85 -1.53,57.56 -0.89,82.94 0.7,28 -6.89,60.4 30.93,44.19 3.09,-11.08 3.94,-116.04 1,-129.16 -13.1,-5.94 -22,-5.22 -31.04,2.03z"/>
    <path class="fil15" d="M38187.27 28383.1c-5.55,6.27 -5.07,69.95 -3.71,82.97 1.51,14.49 21.86,15.39 28.35,8.04 15.38,-17.43 -12.17,-61.28 16.96,-68.39 10.98,-2.67 26.68,-1.35 21.79,-20.28 -3.56,-13.83 -21.11,-6.1 -30.67,-3.56 -12.53,3.32 -21.5,-9.08 -32.72,1.22z"/>
    <path class="fil15" d="M38127.71 28474.65c32.08,13.17 29.81,-5.4 30.38,-29.28 0.27,-11.27 1.65,-55.63 -2.79,-61.38 -4.81,-6.24 -20.73,-6.15 -25.5,-1.54 -6.73,6.5 -3.64,84.63 -2.09,92.2z"/>
    <path class="fil15" d="M38128.08 28364.25c21.75,8.3 39.73,-5.94 27.48,-22.22 -4.1,-5.45 -16.67,-6.93 -23.74,-3.08 -7.76,4.24 -6.1,16.65 -3.74,25.3z"/>
   </g>
   <g>
    <rect class="fil17" x="29704.2" y="27010.48" width="2300" height="2300"/>
    <g>
     <path class="fil18" d="M30774.4 28680.01c-675.5,-102.78 -593.6,-990.41 -6.16,-1043.22 -410.07,183.04 -414.55,855.68 6.16,1043.22z"/>
     <path class="fil18" d="M30940.49 28680.01c675.5,-102.78 593.6,-990.41 6.16,-1043.22 410.07,183.04 414.55,855.68 -6.16,1043.22z"/>
     <path class="fil1" d="M30911.99 28757.9c22.59,-52.2 -36.97,-105.42 -55.45,-158.13 -19.17,53.4 -88.13,87.79 -57.5,160.18 18.25,27.85 80.67,33.59 112.95,-2.05z"/>
    </g>
    <g>
     <path class="fil19" d="M30662.36 28070.31c4.13,-0.86 12.42,1.84 16.32,4.23 18.62,11.45 24.6,104.61 -11.58,109.15 -38.88,4.89 -43.6,-105.26 -4.74,-113.38zm-356.61 -104.88c23.47,-0.64 25.83,-0.54 43.11,12.51 7.12,5.38 2.17,0.61 7.49,6.99l7.01 7.48c6.57,6.64 6.46,8.4 10.82,18.16 16.3,36.48 17.41,56.08 17.48,100.19 0.05,35.11 -0.44,74.81 -15.27,102.36 -45.73,84.92 -114.39,47.88 -134.77,2.45 -3.19,-7.11 -6.72,-13.98 -10.17,-20.8 -3.43,-6.78 -9.81,-67.63 -10.06,-77.8 -0.72,-28.76 5.64,-79.52 17.08,-101.72 12.95,-25.12 6.43,-14.54 24.91,-33.12 11.42,-11.47 22.27,-16.15 42.37,-16.7zm432.79 123.29c12.4,-3.32 23.76,1.96 28.89,-10.33 5.06,-12.09 0.56,-23.59 -11.37,-25.02 -42.81,-5.11 -5.49,10.14 -66.32,-12.6 -29.58,-11.06 -65.8,-2.73 -83.95,25.04l-14.72 24.56c-4.03,-26.89 3.93,-40.66 -25.01,-46.39 -27.56,-5.45 -30.57,18.6 -45.71,19.75l-2.68 -6.91c-0.45,-1.75 -0.93,-11.57 -6.55,-13.35 -11.75,-3.73 -45.64,24.86 -61.76,26.16 -9.47,-17.48 -11.77,-38.44 -22.62,-57.78 -8.53,-15.2 2.28,-2.51 -16.27,-25.12 -8.94,-10.89 -7.94,-11.15 -19.19,-20.16 -16.8,-13.44 -27.4,-21.54 -52.67,-28.04 -38.81,-9.99 -30.27,-7.9 -67.98,-0.96 -34.22,6.29 -72.97,41.95 -87.76,73.78 -31.68,68.19 -32,164.26 12.58,223.5 22.88,30.4 22.19,22.5 29.51,30.52 5.76,6.31 1.49,3.79 11.41,9.32 32.33,18.01 53.77,22.64 93.18,15.83 22.97,-3.97 40.62,-13.68 55.75,-24.98l16.31 -14.74c6.75,-7.19 16.35,-16.62 21.72,-28 5,-10.57 9.63,-17.53 13.99,-27.41 13.29,-30.17 10.21,-91.04 13.5,-105.03l12.07 -0.27c11.07,21.83 7.04,52.07 7.65,80.71 0.33,15.64 2.68,78.06 -1.2,87.46 -8.83,12.84 -17.89,2.87 -26.71,16.04 2.9,13.48 11.17,10.08 23.89,10.53 21.97,0.76 72.05,6.52 87.61,-3.65 3.79,-23.38 -24.55,-8.38 -32.35,-26.78 -4.94,-11.63 -14.05,-151.93 12.98,-161.71 17.06,0.44 14.75,8.33 24.55,12.22 13.94,5.53 19.21,-4.1 27.11,-6.12 4.06,12.26 -4,37.41 5.15,60.8 13.2,33.78 23.42,29.65 27.89,40.11 -8.75,5.39 -12.91,6.44 -21.63,13.39 -22.75,18.15 -35.6,51.12 -7.56,65.76 32.86,17.16 104.09,-3.96 126.37,14.03 10.8,49.52 -19.98,61.01 -58.54,69.4 -57.93,12.6 -73.21,-46.35 -85.68,-34 -3.19,3.14 -2.37,9.5 -0.62,14.59 2.06,5.99 2.92,6.04 6.5,10.1 26.9,30.48 28.88,29.78 65.54,34.26 25.64,3.13 55.18,-6.37 76.15,-20.88l17.89 -15.29c22.9,-22.29 21.62,-80.53 1.18,-100.86 -26.29,-26.16 -97.19,0.37 -117.27,-11.09 -8.21,-9.23 6.42,-14.19 12.02,-21.07 6.76,-8.3 10.61,-10.42 24.96,-9.63 25.93,1.43 33.69,-2.28 52.69,-14.17 10.35,-6.48 22.72,-28.5 26.39,-44.09 11.15,-47.34 -4.96,-39.51 0.69,-61.43z"/>
     <g>
      <path class="fil19" d="M30812.21 28214.27c0,-26.51 32.24,-50.58 51.81,-57.61 4.74,8.88 4.35,65.39 -0.55,73.66 -14.72,24.88 -51.26,24.05 -51.26,-16.05zm387.71 41.36c-4.99,-49.06 -1.48,-112.97 -1.32,-163.52 0.23,-70.87 5.05,-51.6 -51.43,-31.43 -10.11,3.6 -19.29,7.86 -26.82,12.98l2.59 14.17c11.07,4.2 13.23,-2.99 23.22,1.47 10.64,8.81 6.68,51.48 6.68,67 0,15.34 2.57,93.16 -5.93,102.83 -5.48,6.22 -18.47,10.38 -28.87,5.47 -9.42,-4.46 -9.51,-13.91 -9.84,-27.53 -1.73,-69.75 14.99,-159.79 -31.62,-187.74 -21.62,-12.97 -48.94,-3.79 -68.2,13.42l-2.17 2.02c-0.43,0.37 -1.65,1.48 -2.05,1.76 -2.81,1.96 -0.92,1.87 -4.16,1.61l-2.06 -9.23c-0.43,-4 0.66,-4.98 -1.01,-8.96 -4.86,-11.6 -26.08,-0.94 -40.26,4.4 -8.11,3.06 -5.71,4.06 -12.32,6.58 -6.69,2.56 -30.12,3.11 -16.91,27.14 24.91,3.01 21.18,-5.61 21.96,24.75 0.73,28.8 2.36,109.86 -2.38,129.4 -7.59,-2.19 -4.25,-2.18 -11.01,-4.91 -4.14,4.19 -8.75,10.23 -17.43,9.44 -7.31,-17.29 -2.86,-60.74 -2.87,-82.16 0,-47.33 2.97,-87.61 -30.82,-114.11 -6.72,-5.27 -5.58,-4.02 -14.61,-5.79 -26.05,-5.1 -44.66,-5.04 -67.25,7.16 -15.88,8.58 -32.17,27.02 -31.28,50.3 0.5,12.97 3.1,23.33 13.62,27.14 12.75,4.61 24.27,0.44 30.11,-6.98 11.23,-14.29 -10.89,-57.37 27.74,-55.36 31.96,1.66 22.52,60.22 22.5,60.26 -7.92,12.68 -97.63,25.08 -102.19,97.74 -3.7,58.88 40.99,78.31 76.93,59.01 17.01,-9.14 19.43,-17.43 29.75,-20.17 15.86,23.47 7.9,27.71 48.64,22.04l73.5 0.51c20.43,0.02 35.22,6.23 33.17,-16.35 -16.27,-7.28 -3.47,2.67 -24.68,-11.88 -1.48,-36.78 -0.79,-77.15 -0.8,-114.23 0,-21.79 -2.29,-33.39 9.92,-46.55 11.5,-12.39 32.44,-14.25 40.33,-7.22 13.58,12.11 9.99,80.43 9.99,103.46 0,18.8 0.05,35.5 -1.58,53.95 -2.11,23.85 -17.6,13.57 -28.19,26.78 2.38,8.3 5.97,11.53 15.67,12.49l142.84 -0.34c20.01,-0.62 40.09,7.91 39.12,-16.26 -7.52,-4.66 -8.13,-2.44 -16.47,-6.19 -3.45,-1.55 -9.31,-6.5 -11.75,-8.37z"/>
      <path class="fil19" d="M31414.55 28196.38c-13.71,5.36 -12.36,15.82 -12.36,32.38 0,82.63 -4.33,55.09 26.9,56.09 10.51,0.34 22.15,6.42 36.04,7.43 14.38,1.04 24.41,-3.18 35.43,-8.74 28.44,-14.35 30.8,-32.53 35.73,-55.2 5.13,-23.6 -7.16,-46.12 -21.51,-62.42 -20.39,-23.18 -66.69,-36.67 -72.9,-61.73 -4.48,-18.09 0.42,-27.7 11.15,-33.78 13.33,-7.56 25.12,-0.92 32.81,6.45 23.77,22.81 1.91,56.81 35.39,50.93 3.25,-8.2 2.86,-61.16 1.15,-73.73 -16.88,-12.34 -9.05,-2.61 -28.17,-6.25 -12.46,-2.37 -17.52,-5.49 -31.95,-5.33 -58.34,0.63 -74.29,70.74 -45.83,112.05 2.56,3.71 4.49,8.56 6.89,11.76 5.37,7.13 43.21,32.73 54.17,41.07 30.2,22.98 17.22,70.5 -20.79,58.24 -32.79,-10.57 -29.07,-60.87 -42.15,-69.22z"/>
      <path class="fil19" d="M31312.25 28068.11c2.5,-0.3 11.1,2.84 14.15,4.56 13.11,7.4 4.25,16.59 17.9,42.21 9.4,17.64 40.02,18.49 41.19,-14.53 0.47,-13.22 -4.93,-22.18 -9.86,-31.32 -3.13,-5.78 -16.12,-12.06 -23.45,-15.86 -21.83,-11.33 -44.96,-9.53 -68.41,-0.9 -8,2.95 -6.32,4.32 -12.36,8.41 -30.29,20.49 -46.31,49.74 -51.84,89.2 -3.48,24.8 -0.3,48.63 5.35,72.1 4.05,16.8 6.22,16.23 14.34,26.95 24.91,32.89 48.92,48.54 95.8,34.75 8.43,-2.49 26.37,-21.41 31.67,-28.35 5.63,-7.4 28.87,-44.53 22.69,-53.16 -15.34,-21.41 -20.2,46.29 -72.09,41.47 -14.25,-1.33 -32.92,-16.97 -36.9,-23.49 -1.85,-3.03 -4.93,-10.43 -6.79,-13.93 -20.71,-39 -17.66,-131.42 38.61,-138.11z"/>
      <path class="fil19" d="M31160.4 27932.33c-30.79,17.54 -14.16,75.54 23.09,59.08 34.92,-15.43 9.08,-77.42 -23.09,-59.08z"/>
      <path class="fil19" d="M31608.53 28010.63c-1.75,25.07 -2.93,26.69 0.15,50.26 9.52,-3.69 7.86,-8.79 8.53,-19.37 16.6,11.92 9.98,12.02 16.71,21.28 13.02,-4.82 9.96,-17.65 16.76,-24.9 1.36,1.49 1.39,0.76 2.73,3.81 4.44,10.22 -0.52,11.33 5.55,19.83 14.54,-6.72 7.82,-42.89 2.34,-52.29 -15.46,5.03 -7.05,25.64 -27.87,31.09 -6.21,-9.89 -8.92,-35.62 -24.9,-29.71z"/>
      <path class="fil19" d="M31559.71 28008.77c0.18,8.6 -1.59,6.21 3.05,9.61l8.92 3.04c2.55,14.46 -1.37,31.31 4.86,41.09 11.35,-5.38 7.42,-21.24 7.27,-34.56 5.84,-13.85 9.17,-1.59 10.95,-16.56l-9.53 -3.45c-16.65,-2.74 -2,3.42 -25.52,0.83z"/>
     </g>
    </g>
   </g>
   <g>
    <rect class="fil20" x="25166.24" y="27504.62" width="2300" height="1311.71"/>
    <path class="fil19" d="M25610.3 28328.78c0,-20.54 -2.2,-32.79 13.81,-32.8 15.47,-0.01 14.24,17.73 14.33,31.27l-0.19 180.82c0,12.2 1.83,32.79 -7.79,37.08 -17.37,7.77 -19.76,-8.73 -19.76,-21.76l-0.4 -194.61zm-77.65 -173.91c0.3,-8.56 3.98,-7.1 10.87,-12.39 4.06,-3.12 9.57,-5.97 15.06,-9.49 27.47,-17.59 81.22,-56.87 104.58,-70.12l119.32 -79.88c25.42,-18.92 80.69,-51.06 104.95,-69.73l59.65 -39.95c20.4,-13.74 40.22,-26.53 60.48,-40.63l29.14 -19.88c5.86,-3.99 8.69,-5.15 14.95,-9.56l30.35 -20.25c31.38,-18.62 74.32,-51.25 104.75,-69.9l29.24 -19.79c18.71,-12.24 17.69,-10.17 33.77,0.59 5.74,3.85 9.18,6.26 14.95,9.62l52.12 35.17c3.71,3.22 1.83,2.81 8.13,4.16 7.69,1.65 16.02,0.87 23.92,1.01l200.73 0.11c13.92,-0.02 36.17,-3.67 46.36,3.66 2.67,37.93 0.61,82.76 0.61,121.45 0,71.44 -9.78,47.77 50.65,89.34l101.15 67.41c12.29,7.69 24.9,16.61 37.52,25.26l110.05 73.87c11.23,7.42 41.85,4.76 58.19,4.75 23.97,-0.01 246.43,-3.98 247.38,1.95 0.79,5.02 2.83,-3.87 2.81,27.04 -0.07,77.01 2.03,476.24 -1.67,481.18 -3.88,5.17 -43.96,2.94 -52.38,2.93l-165.49 0.37c-73.29,1.54 -148.73,0.03 -222.18,0.03l-887.21 0c-73.87,0.27 -148.54,-1.48 -222.19,-0.39 -31.91,0.48 -202.76,2.62 -220.98,-1.26 -3.85,-13.75 -1.61,-261.54 -1.61,-282.12 0,-18.74 -1.92,-133.44 1.88,-141.08 2.68,-5.41 15.22,-10.49 20.64,-14.57l52.34 -36.58c11.7,-7.85 12.51,-1.37 12.51,-1.37 4.64,5.24 0.26,362.55 0.79,424.08 0.14,16.44 19.9,10.87 53.29,11 18.72,0.07 12.88,-3.51 24.45,-8.55 17.8,9.17 40.13,17.48 64.47,12.32 31.06,-6.58 34.76,-6.79 54.24,-25.4 15.96,-15.26 14.61,-39.68 14.47,-65.08 -0.23,-41.93 2.74,-223.35 -2.83,-239.1 -11.81,-33.39 -51.35,-42.5 -80.53,-37.28 -5.58,0.99 -11.07,1.62 -17.13,2.58 -7.47,1.17 -10.58,3.82 -17.3,4.31 -5.34,-23.73 2.83,-67.24 -3.27,-87.81 -8.57,-3.99 -59.7,-0.37 -75.99,-2.03zm1694.44 -45.22c-8.04,-6.22 -63.96,-2.72 -78.34,-2.72l-159.36 0c-101.37,0.01 -64.21,5.28 -126.46,-33.23 -28.16,-17.41 -54.07,-37.88 -83.46,-56.02l-132.34 -88.27c-31.69,-22.63 -27.38,-12.83 -27.38,-52.68l0.01 -119.52c0.81,-46.05 2.99,-37.2 -42.56,-37.2 -26.56,0 -53.12,0 -79.68,0 -32.68,0 -135.1,1.69 -159.09,-0.07 -11.23,-0.82 -20.13,-9.59 -26.82,-14.33l-72.1 -47.51c-4.55,-2.22 -10.29,-1.61 -14.79,0.94 -5.07,2.86 -2.28,2.34 -5.94,4.84 -2.17,1.49 -3.61,1.66 -6.16,3.02l-59.67 39.92c-4.41,2.94 -6.66,4.53 -12.1,7.82 -15.79,9.58 -57.56,40.25 -71.45,48l-131.47 87.76c-12.34,9.35 -11.52,7.36 -24.37,15.48 -4.16,2.64 -6.64,5 -11.83,8.09 -9.17,5.45 -14.72,10.44 -23.77,16.08 -8.78,5.46 -14.7,11.22 -23.79,16l-107.83 71.51c-8.16,4.88 -23.48,17.27 -35.6,24.15 -4.73,2.68 -6.56,4.83 -11.57,8.28l-282.03 188.41c-6.46,4.64 -10.56,3.41 -10.55,18.44l0.06 358.65c0,26.02 -1.36,55.82 -0.04,81.36 0.69,13.16 5.99,9.75 29.01,10.03 13.22,0.16 26.57,0.29 39.84,0.28l1734.61 -0.38c5.37,0.04 10.18,0.82 14.01,-1.01 4.05,-1.92 0.09,0.61 2.43,-2.2 4.9,-6.4 1.77,-246.7 1.77,-276.56 0,-31.14 2.29,-269.03 -1.19,-277.36z"/>
    <path class="fil19" d="M26325.09 28298.45c3.86,-2.98 9.8,-2.98 15.09,-0.76 9.57,4 6.84,30.43 6.84,44.88l0 139.45c0,15.09 3.98,56.32 -6.45,62.25 -9.81,5.57 -19.86,-0.58 -21.39,-9.92 -0.87,-5.26 -2.33,-224.87 1.67,-232.04 1.76,-3.17 3.21,-3.06 4.24,-3.86zm21.93 -112.18c0,20.52 0.76,39.38 -1.11,59.45 -8.3,0.19 -5.95,-0.19 -11.01,-2.55 -5.56,-2.59 -6.16,-1.85 -12.24,-2.7 -22.21,-3.1 -48.8,-10.41 -76.28,10.3 -4.21,3.17 -11.52,12 -13.89,16.77 -3.97,7.99 -4.87,17.57 -4.87,27.53l0 242.11c0,65.34 68.59,76.42 112.37,64.65 10.4,-2.8 14,-7.98 22.6,-10.65l5.29 8.28 59.15 1.42c11.52,0 11.03,-5.61 11.03,-16.19l0 -399.95c0,-36.8 10.66,-29.04 -60.06,-29.09 -36.21,0 -30.98,-7.3 -30.98,30.62z"/>
    <path class="fil19" d="M25755.76 28242.7c-2.72,20.2 -0.4,263.52 -0.47,291.42 -0.07,25.2 -0.13,43.07 16.93,55.65 17.82,13.14 35.75,17.21 58.8,15.46 10.27,-0.79 21.74,-3.08 30.4,-7 16.12,-7.3 11.7,3.11 27.67,2.85 12.53,-0.2 64.8,1.26 71.85,-0.71 2.97,-2.13 3.54,-1.35 4.66,-6.75 0.57,-2.77 0.25,-7.36 0.15,-10.42 -1.74,-52.46 1.94,-329.27 -1.63,-341.64 -9.92,-3.1 -80.94,-3.93 -88.68,1.41 -2.8,3.38 -1.36,236.01 -1.19,277.36 0.06,13.43 0.98,26.62 -14.07,25.96 -19.49,-0.84 -13.89,-39.18 -13.89,-65.8 0,-41.02 2.5,-224.83 -1.56,-239.04 -10.15,-3.32 -80.72,-2.95 -88.97,1.25z"/>
    <path class="fil19" d="M26559.73 28297.99c27.22,-6.63 23.57,11.35 23.55,33.86 -0.05,56.56 9.3,63.63 -24.03,59.29 -5.62,-10.08 -3.56,-80.6 0.48,-93.15zm26.01 160.76c-8.38,17.16 12.54,108.01 -26.06,85.04 -5.97,-12.46 -2.7,-31.3 -3.09,-46.45 -0.35,-13.9 -2.75,-37.96 3.13,-48.12 35.78,-3.32 74.14,0.07 109.98,-0.61 3.52,-5.35 5.45,-4.04 5.61,-12.44l-1.13 -135.32c-1.31,-21.87 -12.48,-37.47 -30.05,-48.19 -32.22,-19.65 -92.97,-20.74 -130.79,-7.64 -18.95,6.57 -34.28,16.95 -42.51,35.64 -9.69,22.03 -5.6,182.16 -5.62,227.41 -0.01,23.97 -0.64,49.53 12.52,65.77 4.53,5.59 13.8,13.11 21.01,17.3 27.68,16.08 68.62,15.67 100.04,12.6 17.7,-1.73 36.68,-7.71 50.74,-17.2 7.16,-4.83 17.89,-17.65 21.04,-27.95 6.22,-20.29 3.97,-50.56 4.43,-73.5 0.3,-15.32 3.91,-27.96 -11.85,-28.18 -15.84,-0.21 -66.27,-1.4 -77.4,1.84z"/>
    <path class="fil19" d="M27005.44 28453.65c7.48,-1.43 14.25,5.39 18.57,10.6 3.93,4.72 6.88,14.92 7.81,22.58 1.56,12.82 3.99,45.03 -2.31,55.2 -4.74,7.64 -16.52,5.43 -20.1,-1.8 -5.56,-11.23 0.89,-63.53 -3.97,-86.58zm27.1 -74.01c-11.44,-1.23 -22.88,-18.18 -24.33,-28.11 -1.54,-10.61 -1.96,-44.96 3.59,-50.87 5.69,-6.03 15.69,-4.8 20.22,0.87 4.36,5.46 3.46,16.25 3.3,24.18 -0.25,12.62 1.55,44.1 -0.93,53.75l-1.85 0.18zm-33.79 72.15c-18.03,4.73 -69.07,-3.59 -81.23,4.01 -2.93,8.66 -2.28,66.76 -1.78,79.92 0.53,13.68 7.12,36.01 17.37,43.96 3.98,3.08 7.7,7.44 11.68,9.78 36.84,21.76 157.77,32.52 177.85,-36.99 5.65,-19.56 3.76,-57.03 3.43,-79.66 -0.4,-26.81 -8.46,-40.84 -26.98,-54.54 -5.39,-4 -49.01,-26.99 -51.06,-31.26 6.83,-6.26 29.81,-3.78 40.96,-3.63 7.71,0.11 15.44,0.31 23.12,0.43 8.04,0.13 12.14,-2.64 12.68,-10.48 1.33,-19.41 0.52,-71.78 -4.14,-88.57 -6.67,-24.08 -26.34,-35.05 -47.89,-42.42 -27.17,-9.27 -92.39,-6.76 -118.35,7 -7.52,3.99 -20.84,15.02 -24.93,21.06 -13.88,20.49 -12.25,51.49 -12.42,79.84 -0.34,58.6 27.37,69.23 76.17,94.22 6.97,3.57 4.99,0.62 5.52,7.33z"/>
    <path class="fil19" d="M26794.79 28246.5c-5.85,-4.31 -0.42,-6.76 -18.35,-6.64l-68.76 0.37c-4.24,1.03 -2.95,0.84 -4.98,2.85 -2.89,3.74 -2.59,350.61 -0.39,353.99 1.67,1.78 0.11,0.83 2.83,2.16 6.34,3.09 82.04,2.52 84.53,0.27 6.09,-5.49 2.56,-222.17 2.57,-263.06 0,-15.18 -3.96,-39.16 13.23,-39.47 19.47,-0.35 14.42,20.79 14.98,37.94 2.09,63.45 -12.98,55.94 44.82,55.94 12.66,0 35,2.15 44.51,-1.92 3.62,-15.16 1.84,-49.74 1.86,-67.81 0.02,-43.48 3.32,-73.07 -55.87,-83.98 -13.41,-2.47 -21.03,-0.08 -32.41,2.07 -17.5,3.31 -21.46,6.24 -28.57,7.29z"/>
    <path class="fil19" d="M26110.23 28175.54l-0.4 387.7c-0.01,46.13 -11.77,37.64 73.56,37.64 20.04,0 18.28,-3.15 18.28,-22.32l0 -387.69c0,-40.48 12.18,-35.62 -59.6,-35.62 -35.39,0 -31.65,-3.02 -31.84,20.29z"/>
    <path class="fil19" d="M26004.11 28600.88c94.61,0 79.76,5.59 79.77,-36.11 0.01,-101.69 -1.11,-208.42 0.06,-309.6 0.15,-12.81 -0.33,-15.67 -13.94,-15.67 -91.28,0 -77.17,-5.45 -77.17,29.52 0.01,103.6 -1.56,216.55 -0.06,318.83 0.17,12.14 1.01,13.03 11.34,13.03z"/>
    <path class="fil19" d="M26010.24 28222.73l58.23 0.4c12.72,0 15.16,-2.51 15.46,-15.31 1.45,-63.39 2.81,-52.41 -39.98,-52.5 -62.7,-0.12 -51.05,-9.97 -51.35,52.46 -0.08,19.16 3.96,14.29 17.64,14.95z"/>
    <path class="fil19" d="M27109.08 28028.22c1.9,6.5 6,6.55 12.13,10.64 1.68,19.64 -5.32,34.1 8.91,33.9 2.86,-31.46 -3.63,-36.18 18.45,-42.86 2.18,13.03 3.06,12.74 2.65,24.59 0,7.89 -1.93,10.59 2.13,17.33 13.69,0.02 3.78,-6.04 9.23,-21.87 8.46,0.35 4.22,3.72 13.75,5.75 4.88,-3.88 2.65,-5.23 9.19,-6.04 7.39,10.37 -4.11,19.24 9.2,22.72 5.01,-5.45 4.35,-38.39 0,-43.79 -9.07,-1.19 -13.4,6.8 -16.16,13.87 -18.24,-3.31 -2.18,-12.34 -29.64,-14.2 -7.87,-0.54 -33.91,-4.5 -39.84,-0.04z"/>
    <polygon class="fil3" points="26233.6,27793.83 25655.61,28179.23 25813.96,28181.1 26232.1,27916.62 26651.37,28181.66 26813.09,28180.16 26503.88,27975.77 26503.88,27832.77 26393.07,27833.51 26393.82,27903.14 "/>
   </g>
   <g>
    <path class="fil21" d="M34576.73 27799.32l17.43 11.19c29.48,15.55 18.77,20.48 70.48,17 18.94,-1.28 77.62,-19.81 101.9,-19.03l1.67 1.43c19.05,-18.36 110.3,-17.88 146.62,-15.94 42.76,2.29 100.35,10.73 120.61,40.06 26.17,37.9 49.64,54.01 19.01,109.89 -18.1,33.03 -71.26,114.93 -97.73,141 -7.3,7.19 -12.19,14.52 -18.13,21.9 -9.86,12.24 -12.66,9.89 -21.02,18.83 -29.13,31.14 -47.74,49.23 -86.33,72.39 -14.48,8.68 -5.41,8 -23.18,16.32l-69.42 50.59c-30.75,24.76 -49.43,80.6 -30.87,117.34 7.12,14.11 11.76,13.79 15.52,23.97 9.95,26.95 55.81,35.96 85.41,35.55 23.63,-0.32 41.88,-12.57 55.39,-24.83 21.97,-19.95 43.31,-79.54 49.96,-110.26 4.29,-19.8 5.98,-49.5 13.44,-66.14l55.38 -103.1c20.43,-28.89 41.73,-68.17 64.08,-95.01 6.58,-7.9 9.87,-15.15 15.67,-24.46 4.57,-7.35 11.84,-13.6 17.34,-22.51 12.77,-20.67 22.37,-22.6 41.98,-37.23 39.19,-29.27 73.01,-29.33 125.37,-14.07 20.88,6.08 36.21,19.28 47.45,32.97 0.55,0.67 37.26,25.93 35.8,45.87 7.64,-1.61 7.86,3.86 11.35,11.27 4.62,9.84 6.28,6.49 10.52,13.41l15.83 30.5c15.33,30.41 8.21,18.54 20.14,51.44 6.76,18.63 6.74,3.09 13.94,32l35.39 108.28c5.16,10.76 5.03,8.62 4.23,22.62l18.21 60.36c26.59,13.81 10.02,75.9 67.88,122.66 28.04,22.65 65.54,33.6 102.87,9.39 59.39,-38.5 75.02,-93.67 24.95,-150.46 -12.88,-14.6 -36.77,-34.56 -46.12,-49.2l-134.92 -147.86c-15.79,-16.59 -29.03,-30.45 -39.52,-52.79l-35.18 -60.56c-13.65,-18.46 -20.21,-39.3 -33.12,-59.71 -23.9,-37.82 -27.04,-118.33 -14.91,-162.69 3.86,-14.12 12.45,-37.44 20.03,-50.7 9.84,-17.23 3.06,-10.52 11.42,-15.86l-0.75 0.33 31 -44.88c4.32,-4.17 3.7,-5.86 7.51,-9.96 4.9,-5.29 9.62,-4.29 22.15,-15.76 7.1,-6.5 3.76,-7.15 12.95,-6.76 3.27,-9.88 30.91,-20.62 39.26,-27.23l64.05 -35.21c20.07,-7.15 23.12,-12.67 47.23,-19.31 16.94,-4.67 9.85,-7.02 21.13,-11.81 14.62,-6.2 36.61,-8.46 52.14,-14.51 44.54,-17.34 30.19,-7.79 51.65,-14.62 18.93,-6.02 90.29,-30.08 105.04,-30.47l3.13 -0.38c5.79,-5.82 8.09,-5.25 16.76,-7.11 10.85,-2.33 5.45,-2.11 12.08,-6.51 37.53,-24.88 36.93,-20.27 61.72,-63.8 12.27,-21.54 12.08,-43.09 6.97,-71.62l-13.33 -28.23c-8.95,-19.96 -38.44,-37.98 -41.02,-40.49 -10.97,-10.74 -61.44,-11.54 -74.12,-8.23 -5.69,1.49 -26.57,8.39 -31.64,10.71 -3.91,1.78 -20.64,14.46 -24.14,17.75l-21.11 20.91c-12.32,11.39 -3.61,10.3 -28.24,33.75 -6.84,6.51 -5.59,8.07 -12.79,9.25 1.01,13.18 -17.62,23.47 -29.63,36.54 -5.89,6.42 -4.68,7.92 -9.1,13.12 -4.67,5.47 -6.69,3.84 -12.07,10.07 -16.46,19.08 -34.01,41.43 -54.54,56.22 -7.71,5.55 -2.14,4.83 -22.15,21.94 -18.66,15.95 -34.87,40.81 -50.16,40.54 -2.65,15.73 -95.18,70.29 -115.03,86.14 -27.22,21.72 -116.98,49.29 -159.37,25.82 -16.19,-8.96 -18.83,-2.22 -31.94,-17.1 -7.41,-8.4 -6.83,-4.32 -13.7,-10.44 -8.35,-7.43 -37.19,-57.96 -45.37,-83.09l-22.96 -76.6c-6.02,-17.2 -15.41,-71.23 -20.57,-80.6 -20.53,-37.34 -16.02,-125.26 -21.32,-179.41 -1.34,-13.69 -0.99,-30.86 -1.31,-46.95 -0.41,-20.56 -5.37,-27.64 -8.49,-42.64 -8.13,-39.08 -9.73,-43.2 -30.32,-72.15 -21.6,-30.35 -23.22,-26.98 -62.07,-38.5 -30.44,-9.02 -64.02,1.7 -85,12.81 -20.2,10.69 -15.64,2.19 -28.08,23.48 -15.71,26.91 -44.14,26.36 -26.99,116.94 4.99,26.34 1.71,15.51 14.77,34.6 18.4,26.91 20.23,34.14 40.44,61.26 14.44,19.39 51.42,70.17 61.58,89.41 8.17,15.48 29.69,43.74 40.56,60.84 5.15,8.09 6.37,6.76 11.01,13.25 4.49,6.3 3.7,9.43 8,16.56 2.41,4 7.68,9.18 10.67,13.46l42.68 85.68c4.86,12.22 17.26,25.28 18.71,31.04 13.3,52.7 29.56,72.69 5.72,119.88 -16.37,32.42 -17.54,31.39 -52.65,46.44 -24.03,10.3 -57.31,14.43 -89.45,10.77 -22.37,-2.55 -71.23,-2.62 -91.58,-8.45 -25.78,-7.39 -54.05,-14.78 -78.81,-23.01 -24.12,-8.03 -45.17,-22.55 -69.31,-30.25 -38.7,-12.35 -28.58,-18.67 -86.23,-15.81 -31.04,1.54 -50.04,19.98 -57.28,45.17 -15.42,53.69 8.3,63.49 6.89,81.39z"/>
    <path class="fil22" d="M35109.84 29299.14c4.03,-70.16 0.15,-188.01 0.53,-267.58 0.12,-24.87 -5.59,-63.12 4.02,-81.26l12.06 -0.1c5.25,12.19 4.67,27.92 9.62,41.4 6.25,17.01 23.62,95.92 29.54,119.13l25.41 100.05c1.1,9.78 -0.34,12.39 3.37,21.15 6.25,14.74 7.74,23.98 7.82,42.9 7.05,7.1 4.99,-1.95 7.26,12.61 1.11,7.11 -0.03,9.34 3.56,15.89 12.63,-22.56 9.21,-54.12 21.25,-62.43 -1.11,-8.16 22.29,-99.67 23.75,-102.26 1.31,-11.06 3.83,-12.83 4.72,-23.04 0.65,-7.47 0.39,-13.85 2.06,-19.83 3.96,-14.2 5.05,5.44 9.34,-37.74l2.51 -12.18c8.59,-15.96 3.06,-4.67 7.66,-23.35 1.68,-6.83 3.77,-10.72 5.37,-16.4 1.14,-4.06 1,-5.81 1.86,-9.95 0.6,-2.94 0.5,-2.48 1.36,-4.98l1.38 -2.13 13.47 -42.09c25.18,9.9 -1.5,299.88 10.27,352.28 18.98,-0.04 133.14,2.68 141.65,-2.05l-0.07 -684.45c-13.58,-6.33 -159.4,-5.58 -166.16,1.26l-68.37 307.11c-20.44,-4.36 -19.75,-22.32 -20.49,-46.54 -7.47,-18.41 -6.78,-44.84 -13.74,-59.28 -4.46,-9.25 -3.48,-20.47 -5.25,-31.93 -2.36,-15.37 -6.53,-15.53 -8.5,-28.98 -4.16,-28.4 -7.02,-38 -12.34,-62.97 -22.32,-104.7 19.88,-85.06 -139.46,-85.84 -12.6,-0.06 -25.2,-0.14 -37.8,-0.16 -30.09,-0.06 -21.47,3.93 -21.46,92.23 0.01,66.23 -4.17,585.88 1.99,601.38l141.81 0.13z"/>
    <path class="fil22" d="M35777.43 29137.71c-6.51,19.5 -11.44,34.06 -29.54,40.72 -18.33,6.74 -27.65,11.15 -56.98,-1.27 -12.65,-5.36 -29.16,-25.52 -30.12,-41.52 -1.43,-24.06 -0.77,-48.93 -0.78,-73.12 -0.03,-47.61 -2.6,-259.33 1.35,-288.04 4.48,-32.56 18.48,-35.53 29.5,-41.71 31.68,-17.76 86.48,-1.92 88.15,44.34 2.02,55.9 2.6,348.07 -1.58,360.6zm-238.65 -459.45c0.92,9.09 1.27,3.38 -3.32,11.35 -7.45,12.94 -6.68,14.88 -11.24,28.45 -2.57,7.64 -3.15,15.29 -6.19,22.94 -8.7,21.86 -5.38,319.41 -5.38,352.48 -0.01,41.49 3.67,60.75 12.7,97.79 7.76,31.84 26.67,44.22 31.19,51.78 3.38,5.63 5.79,12.21 11.34,15.95 8.83,5.96 8,1.53 16.14,12 6.68,8.6 7.92,6.27 15.8,11.04 11.93,7.22 46.35,20.76 60.46,23.9 40.86,9.09 100.53,3.23 139.16,-6.3 10.44,-2.58 1.03,-0.46 8.77,-4.37 12.44,-6.29 5.88,1.65 29.35,-12.76 31.1,-19.09 10.75,-4.28 39.69,-29.23 7.39,-6.37 4.92,-6.88 12.01,-14.49 7.25,-7.77 14.5,-25.14 20.08,-35.35l11.62 -43.67c5.9,-28.35 2.81,-288.61 2.81,-329.46 -0.01,-32.71 3.14,-74.33 -7.92,-103.03 -8.77,-22.77 6.29,0.87 -15.63,-39.95 -15.23,-28.35 -11.29,-17.6 -17.53,-28.28l-2.73 -4.83c-11.26,-5.62 -8.86,-4.52 -16.45,-14 -5.18,-6.47 -9.75,-7.08 -16.87,-12.15 -19.96,-14.19 -68.1,-29.25 -89.22,-30.65 -24.97,-1.66 -61.11,-4.8 -85.45,1.35l-57.97 17.12c-11.03,4.15 -16.05,14.48 -26.09,17.59 -16.66,5.15 -23.45,18.71 -33.18,27.58 -3.2,2.91 -5.61,3.75 -8.05,6.99 -6.56,8.7 0.63,14 -7.9,10.21z"/>
    <path class="fil22" d="M34772.36 29115.6c0,35.12 -17.52,61.96 -52.17,64.57 -40.74,3.06 -62.94,-12.48 -67.68,-49.97 -2.82,-22.4 -1.18,-196.51 -1.05,-233.54 0.17,-48.45 -9.49,-133.89 17.94,-159.09 14.56,-13.39 20.46,-10.42 46.29,-10.6 24.23,-0.18 32.45,1.98 41.58,17.3 14.35,24.08 14.18,2.73 15.4,41.81 1.2,38.08 -0.34,78.8 -0.34,117.21l0.03 212.31zm-229.64 126.57c6.6,6.16 10.07,13.12 19.68,20.16 15.98,11.73 0.26,10.7 22.82,17.25 14.66,0.88 8.9,3.8 18.1,8.54 6.42,3.31 13.36,4 19.54,6.99 42.66,20.6 100.03,13.68 145.9,11.69 18.75,-1.94 32.29,-9.7 47.45,-14.29l9.45 -7.37c12.83,-11.61 3.34,2.38 20.04,-13.01l13.35 -11.13c12.63,-13.6 5.11,-4.5 13.17,-10.74 8.05,-6.23 3.04,-12.72 14.51,-16.56 0.11,-6.19 -0.55,-6.07 3.34,-12.21 0.38,-0.58 3.54,-4.64 3.97,-5.06 4.04,-3.93 -0.86,0.09 5.19,-3.66 0.81,-4.53 3.64,-6.33 5.8,-11.32 1.76,-4.09 3.11,-11.46 4.2,-15.69 2.56,-9.99 6.06,-20.65 5.51,-32.58l-0.28 -413.53 -0.85 -7.96c-9.92,-8.61 -18.52,-40.12 -26.25,-53.08 -13.85,-23.21 -18.44,-24.87 -36.01,-41.4 -19.93,-18.77 -77,-39.95 -111.34,-41.21 -67.64,-2.49 -78.54,0.91 -132.38,19.44 -13.55,4.67 -35.79,21.57 -46.6,31.31 -18.67,16.82 -20.73,24.13 -31.59,44.14 -23.63,43.53 -23.48,67.63 -24.35,128.37 -0.72,50.57 -0.47,101.98 -0.13,152.59 0.49,73.4 -7.13,152.76 11.46,219.45 5.31,19.07 22.21,36.56 26.3,50.87z"/>
   </g>
  </g>
 </g>
</svg>
