<?xml version="1.0" encoding="UTF-8"?>
<!DOCTYPE svg PUBLIC "-//W3C//DTD SVG 1.1//EN" "http://www.w3.org/Graphics/SVG/1.1/DTD/svg11.dtd">
<!-- Creator: CorelDRAW 2018 (64-Bit Evaluation Version) -->
<svg xmlns="http://www.w3.org/2000/svg" xml:space="preserve" width="440.267mm" height="321.733mm" version="1.1" style="shape-rendering:geometricPrecision; text-rendering:geometricPrecision; image-rendering:optimizeQuality; fill-rule:evenodd; clip-rule:evenodd"
viewBox="0 0 44374.67 32427.65"
 xmlns:xlink="http://www.w3.org/1999/xlink">
 <defs>
  <style type="text/css">
   <![CDATA[
    .fil2 {fill:none}
    .fil8 {fill:#00C2FF}
    .fil3 {fill:#3B9CFF}
    .fil9 {fill:#99D2FF}
    .fil12 {fill:#DEEEFF}
    .fil4 {fill:#FBD13E}
    .fil6 {fill:#00C2FF;fill-rule:nonzero}
    .fil7 {fill:#3B9CFF;fill-rule:nonzero}
    .fil0 {fill:#3B9CFF;fill-opacity:0.168627}
    .fil10 {fill:#3B9CFF;fill-opacity:0.450980}
    .fil11 {fill:#B4DCFF;fill-opacity:0.450980}
    .fil1 {fill:white;fill-opacity:0.721569}
    .fil5 {fill:white;fill-opacity:0.831373}
   ]]>
  </style>
 </defs>
 <g id="Layer_x0020_1">
  <metadata id="CorelCorpID_0Corel-Layer"/>
  <g id="_2574279239488">
   <polygon class="fil0" points="-0,0 44374.67,0 44374.67,32427.65 -0,32427.65 "/>
   <path class="fil1" d="M26632.75 4483.24l10850.42 0c491.97,0 894.47,402.51 894.47,894.47l0 9964.33c0,491.97 -402.51,894.47 -894.47,894.47l-7398.39 0c70.9,-499.3 140.86,-1006.29 210.24,-1518.13l7101.58 0 35.55 -7260.43 -10702.56 0 -35.55 3730.39c-318.59,-43.58 -637.19,-84.54 -955.78,-122.78l0 -5687.85c0,-491.97 402.51,-894.47 894.47,-894.47z"/>
   <rect class="fil2" x="26694.05" y="8382.43" width="10702.56" height="6335.96"/>
   <path class="fil3" d="M31351.96 10060.48c44.45,1688.95 35.56,1653.39 35.56,1653.39l1520.05 -702.25 -1555.61 -951.14z"/>
   <polygon class="fil4" points="12096.19,11827.29 11949.52,12133.96 11647.29,12151.74 11860.63,12347.3 11825.07,12698.43 12073.97,12525.09 12362.87,12685.09 12336.2,12356.19 12558.43,12147.3 12251.75,12120.63 "/>
   <polygon class="fil4" points="13969.58,11827.29 13822.91,12133.96 13520.68,12151.74 13734.01,12347.3 13698.45,12698.43 13947.35,12525.09 14236.25,12685.09 14209.58,12356.19 14431.81,12147.3 14125.14,12120.63 "/>
   <polygon class="fil4" points="15799.2,11827.29 15652.53,12133.96 15350.3,12151.74 15563.63,12347.3 15528.07,12698.43 15776.97,12525.09 16065.87,12685.09 16039.2,12356.19 16261.43,12147.3 15954.76,12120.63 "/>
   <polygon class="fil4" points="17654.11,11827.29 17507.44,12133.96 17205.21,12151.74 17418.55,12347.3 17382.99,12698.43 17631.89,12525.09 17920.78,12685.09 17894.11,12356.19 18116.35,12147.3 17809.67,12120.63 "/>
   <polygon class="fil4" points="19431.97,11827.29 19285.3,12133.96 18983.07,12151.74 19196.4,12347.3 19160.84,12698.43 19409.74,12525.09 19698.64,12685.09 19671.97,12356.19 19894.2,12147.3 19587.53,12120.63 "/>
   <path class="fil5" d="M11078.68 1644.87l11538.08 0c523.15,0 951.17,428.02 951.17,951.17l0 8251.79c-851.34,-68.29 -1702.67,-116.08 -2554,-141.94l-341.49 76.84 -350.04 221.96 -153.68 401.26 -196.35 674.44c-61.31,704.19 -131.43,1398.33 -227.64,2062.64l-8666.06 0c-523.15,0 -951.17,-428.02 -951.17,-951.17l0 -10595.82c0,-523.15 428.02,-951.17 951.17,-951.17z"/>
   <g>
    <path class="fil6" d="M15496.83 8240.84c44.97,-42 67.45,-97.84 67.45,-167.76 0,-69.92 -23.22,-125.26 -69.42,-165.78 -46.44,-40.53 -100.8,-61.03 -163.06,-61.52 -62.51,0 -114.89,20.99 -157.39,63 -42.48,42.49 -63.74,97.34 -63.74,165.03 0,67.45 21.5,122.79 64.49,165.54 43,42.99 96.11,64.49 159.36,64.49 63.26,0 117.36,-20.99 162.32,-63zm203.83 180.11c-85.02,0.89 -134.55,-18.22 -134.9,-103.98l0 -2.26c-21.74,36.31 -54.6,65.47 -98.58,87.71 -43.97,22.23 -92.15,33.35 -144.78,33.35 -96.1,0 -179.12,-33.6 -249.04,-100.8 -66.96,-66.96 -100.56,-153.93 -100.56,-260.41 0,-106.74 33.35,-193.46 99.81,-259.92 66.71,-66.7 149.48,-100.31 248.55,-100.8 53.37,0 102.04,10.37 145.53,31.12 43.24,20.76 76.34,50.16 99.07,87.71l0 -480.55c72.94,-0.06 132.68,23.22 134.9,108.65l0 960.17z"/>
    <path class="fil6" d="M16354.7 8240.84c44.97,-42 67.45,-97.84 67.45,-167.76 0,-69.92 -23.22,-125.26 -69.42,-165.78 -46.45,-40.53 -100.8,-61.03 -163.06,-61.52 -62.51,0 -114.89,20.99 -157.39,63 -42.48,42.49 -63.74,97.34 -63.74,165.03 0,67.45 21.5,122.79 64.49,165.54 43,42.99 96.11,64.49 159.36,64.49 63.26,0 117.36,-20.99 162.32,-63zm68.93 180.11l0 -106.23c-21.74,36.31 -54.6,65.47 -98.58,87.71 -43.97,22.23 -92.15,33.35 -144.78,33.35 -96.1,0 -179.12,-33.6 -249.04,-100.8 -66.96,-66.96 -100.56,-153.93 -100.56,-260.41 0,-106.74 33.35,-193.46 99.81,-259.92 66.71,-66.7 149.48,-100.31 248.55,-100.8 53.37,0 102.04,10.37 145.53,31.12 43.24,20.76 76.34,50.16 99.07,87.71l0 -371.61c-0.48,-87.04 52.24,-108.29 134.9,-108.93l0 964.9c-0.26,75.57 -44.44,104.16 -134.9,103.93z"/>
    <path class="fil7" d="M16952.53 7578.61l0 150.06 145.28 0c-3.56,70.82 -24.62,116.01 -96.32,120.08l-48.96 0 0 572.21c-76.58,-0.17 -132.17,-27.55 -134.9,-103.95l0 -468.26 -124.52 0c-1.98,-69.41 30.15,-116.24 102.8,-120.08l21.72 0 0 -253.49c80.34,0.73 132.46,29.74 134.9,103.43z"/>
    <path class="fil7" d="M18303.2 8241.58c44.47,-41.51 66.71,-97.35 66.71,-167.77 0,-70.41 -23.23,-126 -69.43,-166.52 -46.44,-40.53 -101.05,-61.03 -163.79,-61.52 -63.01,0 -115.64,20.99 -158.13,63 -42.49,41.51 -63.75,95.86 -63.75,163.55 0,67.45 21.75,123.04 65.23,166.27 43.48,43.49 97.1,65.23 160.84,65.23 63.74,0 117.85,-20.75 162.32,-62.26zm68.19 179.37l0 -106.23c-21.74,36.31 -54.61,65.47 -98.58,87.71 -43.97,22.23 -91.91,33.35 -144.28,33.35 -95.87,0 -179.13,-33.6 -249.55,-100.8 -67.94,-66.96 -102.04,-153.93 -102.04,-260.41 0,-106.74 33.6,-193.46 100.56,-259.92 67.21,-66.7 150.96,-100.31 251.27,-100.8 50.15,0 98.58,10.37 144.78,31.12 45.47,22.73 78.08,51.89 97.85,87.71l0 -5.99c1.63,-68.14 71.22,-96.24 134.9,-98.03l0 588.33c-3.73,78.19 -56.93,105.11 -134.9,103.96z"/>
    <path class="fil7" d="M19670.71 7579.76l0 148.9 145.28 0c-1.28,65.74 -30.6,119.75 -101.71,120.08l-43.57 0 0 572.21c-86.9,0.73 -134.43,-35.91 -134.9,-104.88l0 -467.33 -124.53 0c0.07,-71.9 38.14,-116.51 115.49,-120.08l9.04 0 0 -253.49c72.12,0.63 133.83,34.68 134.9,104.59z"/>
    <path class="fil4" d="M16693.12 7848.74c-0.31,-76.83 34.5,-118.49 109.33,-120.08l15.19 0 134.9 0 145.28 0c-2.87,79.6 -35.63,118.72 -96.32,120.08l-48.96 0 -134.9 0 -124.52 0z"/>
    <path class="fil4" d="M19411.13 7848.63c-0.31,-76.83 34.51,-118.49 109.33,-120.08l15.2 0 134.9 0 145.28 0c-2.87,79.59 -35.63,118.72 -96.33,120.08l-48.95 0 -134.9 0 -124.53 0z"/>
    <path class="fil7" d="M17380.33 8418c-77.01,2.4 -135.83,-17.77 -137.71,-85.26l0 -621.47c90.81,-1.03 137.28,20.77 137.71,94.98l0 64.43c34.56,-116.27 99.88,-174.54 196.48,-174.54 55.75,0 96.61,9.08 122.83,26.99 -19.63,72.33 -58.19,112.34 -124.66,104.67 -0.31,-0.04 -0.62,0 -0.95,0 -62.3,0 -109.96,29.76 -143.52,89.28 -24.9,44.38 -46.18,100.27 -46.87,168.65l-3.33 332.27z"/>
    <path class="fil7" d="M19016.66 7712.77c106.75,0 194.22,37.31 262.67,111.7 -45.38,60.04 -103.61,77.99 -180.54,34.8 -1.21,-0.69 -2.62,-0.97 -3.94,-1.43 -24.85,-8.74 -51.92,-13.11 -81.16,-13.11 -64.99,0 -120.34,21 -165.81,63.26 -45.72,41.52 -68.7,96.62 -68.7,165.57 0,68.69 23.23,124.54 69.43,167.53 46.46,43.25 101.81,64.75 166.56,64.75 28.28,0 54.43,-4.27 78.41,-12.82 0.97,-0.35 1.97,-0.65 2.9,-1.06 78,-34.99 136.9,-17.47 184.33,31.67 -68.95,74.13 -156.17,111.2 -261.2,111.2 -105.27,0 -194.22,-33.36 -266.87,-100.08 -72.41,-67.7 -108.48,-154.68 -108.48,-261.19 0,-106.51 35.58,-193.25 106.51,-259.96 71.17,-66.72 159.63,-100.33 265.89,-100.82z"/>
    <polygon class="fil4" points="14305.8,7978.07 13879.46,8278.42 14305.23,7385.56 14735.74,8275.52 "/>
    <polygon class="fil8" points="14439.73,8070.74 13923.74,8434.27 14439.04,7353.65 14960.07,8430.75 "/>
   </g>
   <path class="fil2" d="M3993.5 18389.67l7502.38 0 67.35 6186.86 -7569.73 0 0 -6186.86zm8170 0l2385.2 0 -526.37 78.8 -1050.07 196.36 -597.61 221.97 -183.48 136.68 -21.4 153.56 -6.28 -787.38zm1576.15 963.19l3623.14 770.68 0 1.72 -3400.14 -721.91 -223.01 -50.5zm3623.14 2982.99l0 1325.24 -2393.35 915.43 -2756.59 0 -28.09 -3520.65 5178.03 1279.98zm0 1844.24l0 396.43 -1041.16 0 1041.16 -396.43z"/>
   <path class="fil5" d="M3755.95 14995.69l13589.05 0c406.2,0 742.43,314.53 777.35,712.04l-6095.47 1361.58c-361.95,92.11 -551.55,314.83 -537.84,691.52l6.84 628.83 -7502.38 0 0 6186.86 7569.73 0 7.33 673.55 -7814.61 0c-429.22,0 -780.39,-351.17 -780.39,-780.4l0 -8693.59c0,-429.23 351.17,-780.4 780.39,-780.4zm14369.45 1052.3l0 2065.96 -235.67 -4.06 -1058.63 59.77 -1383.04 85.37 -899.36 134.64 -2385.2 0 -4.16 -522.04c7.37,-285.85 114.99,-459.71 315.88,-529.32l5650.18 -1290.31zm0 4237.76l0 1.42 -762.6 -161.91 0 -1.72 762.6 162.21zm0 2238.61l0 845.05 -762.6 291.69 0 -1325.24 762.6 188.51zm0 1365.36l0 579.96c0,429.23 -351.17,780.4 -780.4,780.4l-2792.31 0 1768.95 -673.55 1041.16 0 0 -396.43 762.6 -290.38zm-4916.92 1360.36l-990.25 0 -5.37 -673.55 2756.59 0 -1760.97 673.55z"/>
   <g>
    <path class="fil9" d="M6678.01 16096.28l7164.68 0c107.56,0 195.55,87.99 195.55,195.55l0 0.01c0,107.56 -87.99,195.55 -195.55,195.55l-7164.68 0c-107.56,0 -195.55,-87.99 -195.55,-195.55l0 -0.01c0,-107.56 87.99,-195.55 195.55,-195.55z"/>
    <path class="fil9" d="M6686.9 17091.85l4169.04 0c107.56,0 195.55,87.99 195.55,195.55l0 0.01c0,107.56 -87.99,195.55 -195.55,195.55l-4169.04 0c-107.56,0 -195.55,-87.99 -195.55,-195.55l0 -0.01c0,-107.56 87.99,-195.55 195.55,-195.55z"/>
   </g>
   <g>
    <path class="fil10" d="M19478 15362.57l-79.88 350.58 -6929.4 1582.45c-199.9,69.27 -306.99,242.27 -314.33,526.71l59.42 7446.1c-33.66,217.36 47.81,266.89 212.39,195.38l7000.35 -2677.55 828.12 204.73 -7654.38 2914.51c-186.81,106.5 -974.25,-117.82 -1027.92,-382.29l-84.98 -7807.14c-13.64,-374.83 175.02,-596.45 535.19,-688.12l7455.42 -1665.36z"/>
    <polygon class="fil10" points="29269.16,20523.43 30656.61,20816.46 30660.11,21156.46 29245.24,20792.15 "/>
    <path class="fil10" d="M30163.8 16772.94l-7692.43 2213.03c-611.53,126.26 -875.16,445.77 -773.07,968.46l-127.44 8180.88c18.54,469.91 913.05,696.81 1197.82,535.22l8112.94 -3890.78c320.14,-86.16 447.33,-349.84 484.24,-696.61l-46.78 -6915.17c-52.64,-349.69 -411.69,-498.4 -1155.28,-395.01zm454.41 305.81l-7675.48 2217.3c-328.95,138.05 -488.07,371.61 -454.49,713.59l-174.16 8210.64 8140.47 -3848.34c169.53,-63.21 222.78,-251.02 233.62,-484.24l-69.97 -6808.95z"/>
    <path class="fil11" d="M28951.12 21752.36l-1010.75 125.35c259.02,-522.37 308.38,-1097.69 220.91,-1707.49 122.01,-1.64 189.23,-92.61 203.65,-269.83l345.32 -2270.48 1120.44 -323.67c-223.82,1500.68 -459.08,2906.99 -716.09,4133.92l-59.47 225.13 -104.02 87.06zm-171.07 -4581.33l663.77 -4364.18 125.32 -516.09 93.45 -127.43 112.56 -91.32 155.03 -21.23 199.64 2.12 220.89 16.99 135.91 0 55.23 36.09 -2.14 186.9 -63.71 329.19c-189.23,1437.26 -379.42,2866.69 -577.94,4227.3l-1118.01 321.64z"/>
    <path class="fil10" d="M30541.85 12106l-121.23 -152.88 -331.32 -161.41 -407.77 -101.94 -518.22 -110.45c-2732.61,-490.74 -5465.29,-800.49 -8197.9,-883.5l-339.8 76.46 -348.31 220.87 -152.92 399.28 -195.38 671.12c-110.25,1266.42 -249.09,2500.23 -518.24,3585.02l-471.02 2410.57c1710.4,202.55 3242.38,413.42 4546.09,634.96l5307.07 -1526.78 743.25 -4740.73c47.62,-220.4 160.69,-329.21 316.52,-365.19l689.2 44.59zm-6107.34 6759.1c2067.41,396.48 3399.34,827.32 3726.78,1305.13 140.36,-8.26 218.27,-128.79 221.06,-384.35l338.48 -2158.99 -4286.33 1238.22z"/>
    <path class="fil11" d="M12186.08 18972.48l182.57 -136.02 594.66 -220.86 1044.9 -195.4 1418.71 -212.38 1376.23 -84.96 1053.42 -59.48 985.45 16.99 195.38 -42.46c1608.55,210.85 3129.02,426.97 4452.73,654.95l-1018.77 293.1c-611.53,126.26 -875.16,445.77 -773.07,968.46l-16.11 1034.11 -11.22 1.5 -9484.9 -2017.55zm12249.96 -107.83c2021.73,388.32 3428.88,813.57 3725.25,1305.57 102.12,616.03 16.8,1182.08 -220.91,1707.49l-5462.44 951.46 -50.18 32.13 60.49 -2851.67c-33.57,-341.97 125.54,-575.53 454.49,-713.59l1493.3 -431.39z"/>
    <polygon class="fil10" points="12177.62,20994.37 12163.81,19002.06 12279.53,18972.48 13948.84,19350.49 21670.98,20990.03 21667.59,21925.22 21645.65,23334.8 "/>
   </g>
   <path class="fil1" d="M26481.74 18283.14l13327.75 0c402.93,0 732.59,329.66 732.59,732.59l0 8160.85c0,402.93 -329.66,732.59 -732.59,732.59l-13327.75 0c-402.93,0 -732.59,-329.66 -732.59,-732.59l0 -8160.85c0,-402.93 329.66,-732.59 732.59,-732.59z"/>
   <rect class="fil9" x="26915.5" y="19750.86" width="7555.79" height="391.12" rx="195.56" ry="195.56"/>
   <path class="fil9" d="M27208.87 22524.28l11798.15 0c107.55,0 195.55,87.99 195.55,195.55l0 0.01c0,107.56 -88,195.55 -195.55,195.55l-11798.15 0c-107.57,0 -195.55,-87.99 -195.55,-195.55l0 -0.01c0,-107.56 87.98,-195.55 195.55,-195.55z"/>
   <path class="fil9" d="M27366.65 25297.69l11798.15 0c107.55,0 195.55,87.99 195.55,195.55l0 0.01c0,107.56 -88,195.55 -195.55,195.55l-11798.15 0c-107.57,0 -195.55,-87.99 -195.55,-195.55l0 -0.01c0,-107.56 87.98,-195.55 195.55,-195.55z"/>
   <path class="fil9" d="M27119.95 20746.44l4169.04 0c107.56,0 195.55,87.99 195.55,195.55l0 0.01c0,107.56 -87.99,195.55 -195.55,195.55l-4169.04 0c-107.56,0 -195.55,-87.99 -195.55,-195.55l0 -0.01c0,-107.56 87.99,-195.55 195.55,-195.55z"/>
   <path class="fil9" d="M27223.21 23519.85l6965.48 0c107.56,0 195.54,87.99 195.54,195.55l0 0.01c0,107.56 -87.98,195.55 -195.54,195.55l-6965.48 0c-107.57,0 -195.55,-87.99 -195.55,-195.55l0 -0.01c0,-107.56 87.98,-195.55 195.55,-195.55z"/>
   <path class="fil9" d="M27380.99 26293.27l6965.49 0c107.56,0 195.54,87.99 195.54,195.55l0 0.01c0,107.56 -87.98,195.55 -195.54,195.55l-6965.49 0c-107.56,0 -195.54,-87.99 -195.54,-195.55l0 -0.01c0,-107.56 87.98,-195.55 195.54,-195.55z"/>
   <rect class="fil12" x="3946.77" y="15639.59" width="2300.04" height="2300.04" rx="225.02" ry="204.36"/>
   <rect class="fil12" x="10885.81" y="2307.71" width="2300.04" height="2300.04" rx="225.02" ry="204.36"/>
   <rect class="fil12" x="26681.84" y="4864.47" width="2300.04" height="2300.04" rx="225.02" ry="204.36"/>
   <rect class="fil12" x="37624.36" y="18903.75" width="2300.04" height="2300.04" rx="225.02" ry="204.36"/>
  </g>
 </g>
</svg>
