<svg id="Artwork_-_Primary" data-name="Artwork - Primary" xmlns="http://www.w3.org/2000/svg" viewBox="0 0 250 250"><defs><style>.cls-1{fill:none}.cls-2{fill:#FCE38B}.cls-3{fill:#9e1c4c}.cls-4{fill:#EE1C25}.cls-5{clip-path:url(#clip-path)}.cls-6{fill:#c41c40}.cls-7{fill:#f90}.cls-8{fill:#6b3d3b}.cls-9{fill:#037c3c}.cls-10{fill:#fff5ca}.cls-11{fill:#ea5757}.cls-12{fill:#ffc513}.cls-13{fill:#e8b113}.cls-14{fill:#935650}.cls-15{fill:#519600}.cls-16{clip-path:url(#clip-path-2)}.cls-17{fill:#360}.cls-18{fill:#72c900}</style><clipPath id="clip-path"><path class="cls-1" d="M77.62 133.63c3.7-2.49 7.47-5 11.62-6.16 5.47-1.55 11.16-.68 16.69.2 34.37 5.48 65 10.48 103.2 19.66a4.44 4.44 0 0 1 2.79 1.66c1.17 1.8-.85 5.76-1.95 7.71l-14.87 26.4c-1.74 3.09-3.29 7.89-5.83 9.49s-11.47 1.71-17.1.74l-20.61-3.53q-34.71-5.94-69.41-12c-11.7-2-23.4-4.06-35.1-6.16-3.37-.61-10.32-1.6-9.95-4.61s7.58-8.47 10-10.42c10.75-8.75 19.99-15.89 30.52-22.98z"/></clipPath><clipPath id="clip-path-2"><path class="cls-1" d="M177.84 80a13.1 13.1 0 0 0-2.18 3.21 9.71 9.71 0 0 0-.49 4.42A22.2 22.2 0 0 0 176.6 94a2.72 2.72 0 0 0 .76 1.23 2.64 2.64 0 0 0 1.51.43c3.67.26 7.32-.54 10.91-1.33a22.3 22.3 0 0 0 6-1.92 14.08 14.08 0 0 0 6.52-9.13 27.62 27.62 0 0 0-.06-11.45c-.54-3-3.27-12-6-15.44a67.62 67.62 0 0 0-5.88 6.29c-1.87 2.84-3.77 5.66-5.74 8.43-2.16 3.07-4.41 6.04-6.78 8.89z"/></clipPath></defs><path class="cls-2" d="M49.42 129.72a9.56 9.56 0 0 1-1.93-1.43c-2-1.83-5.46-1.73-7.7-.07-2.5 1.86-3.65 5.05-4 8.14A22.5 22.5 0 0 0 45.17 157a8.93 8.93 0 0 0 5.23 1.89c3-.11 5.32-2.51 7.31-4.75a23.28 23.28 0 0 0 4.75-6.85 11.62 11.62 0 0 0-8.68-15.58 7.71 7.71 0 0 1-2.17-.82zm118.44-60.44a4.59 4.59 0 0 0 .33 2.15 5.15 5.15 0 0 0 2 1.92 10.61 10.61 0 0 0 2.94 1.5c3 .84 6.35-1 7.91-3.75 2.21-3.88 2.23-14.16-3.87-14.9-5.67-.69-9.17 8.8-9.31 13.08z"/><path class="cls-2" d="M161.13 178.87A106.47 106.47 0 0 0 203 155.52c5.38-4.88 10.31-10.39 13.57-16.89s4.72-14.06 3-21.12-6.52-13.3-12.13-18.1A58 58 0 0 0 190.4 89.3c-17.8-6.71-37.55-4.28-56.5-5.91-7.3-.62-15.28-2.28-19.71-8.12-3.92-5.16-4-12.23-6.72-18.11-4-8.61-13.51-13.79-23-14.35s-18.77 2.9-26.87 7.84C43.53 59.22 32 73.26 30 89.61c-.87 7 .14 14.5 4.24 20.25 5.93 8.29 16.7 11.19 26.52 14s20.53 6.74 25 15.89c2 4 2.48 8.6 3.77 12.9a36.72 36.72 0 0 0 21.2 23.08c10.28 4.12 22 3.34 32.56 0s20.24-8.91 29.8-14.49"/><path class="cls-2" d="M61.48 204.16c-1.73 2-.73 5.77 1.64 6h.05q34.42 3.73 68.9 6c19.11 1.25 38.3 2.16 57.33.13 2.08-.22 4.26-.53 5.94-2.07 2.22-2 3-5.7 3.65-9.08l4.14-21.72a46.59 46.59 0 0 0 1.17-10.2c-.12-3.45-1.08-7-3.17-9.29-3-3.27-7.44-3-11.39-2.73a212.06 212.06 0 0 1-21.69.59c-12.71-.3-25.43-1.74-38.13-1.13s-25.55 3.38-36.66 10.95a116.2 116.2 0 0 0-12.36 10.3c-5.5 5.01-19.42 22.25-19.42 22.25z"/><path class="cls-3" d="M212.23 149.85s0 .3-1.11-.48l-27.24 26a21.28 21.28 0 0 0-4.23 9.64l-1.15-.44c-11.91-4.36-24.46-6.65-36.93-8.92-8.91-1.63-17.82-3.25-26.76-4.67-19-3-38.11-5.16-57.22-7.3a58.21 58.21 0 0 0-12.86.3c-3.19.52-6.19.89-7.54 3.87l1.56 5a6.07 6.07 0 0 0 4.44 4.15c17.27 4 94.6 18.15 135.83 25.46 3.2.57 6.86 1 9.46-.84l.34-.26a4.85 4.85 0 0 0 .55-.56c8.09-7.51 10.7-18 16-27.84 3.49-6.33 7.21-15.96 6.86-23.11z"/><path class="cls-4" d="M77.62 133.63c3.7-2.49 7.47-5 11.62-6.16 5.47-1.55 11.16-.68 16.69.2 34.37 5.48 65 10.48 103.2 19.66a4.44 4.44 0 0 1 2.79 1.66c1.17 1.8-.85 5.76-1.95 7.71l-14.87 26.4c-1.74 3.09-3.29 7.89-5.83 9.49s-11.47 1.71-17.1.74l-20.61-3.53q-34.71-5.94-69.41-12c-11.7-2-23.4-4.06-35.1-6.16-3.37-.61-10.32-1.6-9.95-4.61s7.58-8.47 10-10.42c10.75-8.75 19.99-15.89 30.52-22.98z"/><g class="cls-5"><path class="cls-6" d="M61.33 153.36a9.56 9.56 0 0 0-3.46 2.27 3.46 3.46 0 0 0-.59 3.86A5 5 0 0 0 59 161a49.65 49.65 0 0 0 22.29 7.67c4.78.36 9.61-.13 14.39.35 12.93 1.32 25.24 9.65 38 7.12 3.27-.64 6.35-2 9.58-2.79 15.36-3.82 32.11 4.79 47.11-.25 1.86-.63 3.87-1.72 4.26-3.64s-1.25-3.92-3-5.09-3.75-2.17-4.71-4c-1.39-2.71.19-6.16 2.65-7.95s5.57-2.38 8.52-3.12 6-1.81 7.93-4.19a4.25 4.25 0 0 0 1.07-2.83c-.17-2.66-3.52-3.67-6.17-3.91a129.61 129.61 0 0 0-49.4 5.13c-4.76 1.45-10 3.14-14.52 1-2.49-1.22-4.3-3.46-6.42-5.26-8.36-7.08-21.22-6.45-31-1.41-3.38 1.77-6.64 4.07-10.38 5.17-3.13.91-6.46.94-9.64 1.67a14.05 14.05 0 0 0-5 2.11c-1.06.76-2 1.75-3.09 2.42-3.08 1.8-6.89 2.67-10.14 4.16z"/></g><path class="cls-1" d="M219.15 164.21h.11"/><path class="cls-7" d="M63 111.16a67.76 67.76 0 0 1 16.33-21.08 47.87 47.87 0 0 1 24-11.08 55.66 55.66 0 0 1 17.74.73c9.93 1.83 19.73 5.58 27.22 12.35s12.41 16.85 11.34 26.92a53.76 53.76 0 0 1-1.89 8.57 8.64 8.64 0 0 1-1.57 3.5c-1.34 1.51-3.52 1.88-5.52 2.11a233.13 233.13 0 0 1-26.7 1h-39a49 49 0 0 0-10.76.78c-2.13.47-5.52 1.32-5.52 1.32a23.33 23.33 0 0 1-5.69-2.06 29.69 29.69 0 0 1-6.18-4.55c-1.49-1.49-1-2.39-.09-4.05 2.43-4.62 3.93-9.8 6.29-14.46z"/><path class="cls-8" d="M117.15 103.59a62.81 62.81 0 0 0-10.15-2.31c-4.66-.8-9.66-1.55-14 .39-2 .9-3.74 2.34-5.86 2.85a29.76 29.76 0 0 1-5.35.25 14.27 14.27 0 0 0-10.62 5.72 5.29 5.29 0 0 1-1.65 1.74 6.76 6.76 0 0 1-1.9.45 6.14 6.14 0 0 0-4.52 4 3.32 3.32 0 0 1-.68 1.47 4 4 0 0 1-1.2.63c-2.42 1.11-2.89 4.27-3 6.93a4.59 4.59 0 0 0 .32 2.47 2.7 2.7 0 0 0 2.62 1.29 3.57 3.57 0 0 1 1.3 0c.56.16.89.71 1.25 1.16a6 6 0 0 0 4.74 2.25 8.13 8.13 0 0 1 2.7.06 14.37 14.37 0 0 1 2.27 1.5c2 1.12 4.44.08 6.68-.41 4.29-1 8.82.28 13.13-.6 3.19-.65 6-2.4 8.84-4a5.43 5.43 0 0 1 3.18-1c.74.09 1.41.47 2.14.62a7.08 7.08 0 0 0 3.91-.71c3.46-1.35 7-2.75 9.76-5.24s4.63-6.32 3.73-9.93c-.64-2.6-2.56-4.66-4.42-6.6m4.83-40.35a9 9 0 0 1-2.85-.39 4.78 4.78 0 0 0-2.85 0 2 2 0 0 0-1.24 2.3 1 1 0 0 1 .13.51c0 .27-.35.4-.61.49a5.28 5.28 0 0 0-2.65 2.14 2.06 2.06 0 0 0-.34.81 1.75 1.75 0 0 0 .28 1.11c.75 1.23 2.31 1.65 3.72 2l3.42.74a3.39 3.39 0 0 0 2.9-.24c.9-.75 1-2.43 2.21-2.61.72-.11 1.35.48 2.06.6 1.23.2 2.92-1.09 3.49-2.11s.15-2-.63-2.84a11.84 11.84 0 0 0-3.14-2.59c-1.38-.72-2.5-.07-3.9.08zm22.29-7.84c-.3-1-1.4-1.38-2.16-2-1-.92-1.5-2.44-2.71-3.12a1.5 1.5 0 0 0-1.46-.09 1.46 1.46 0 0 0-.5 1.68 6.15 6.15 0 0 0 1 1.62 2.81 2.81 0 0 1 .65 1.73c0 .31-.13.6-.13.91a2.26 2.26 0 0 0 1.07 1.71 6.17 6.17 0 0 0 2.53 1.1.48.48 0 0 0 .29 0 .48.48 0 0 0 .19-.21c.49-.93 1.74-2.22 1.23-3.33zm.21 33.74c-.3.24-.53.57-.86.79a3.3 3.3 0 0 1-2.64.14 14.17 14.17 0 0 0-5-.55 4.62 4.62 0 0 0-3.9 2.85c-.15.46-.22 1-.61 1.29a1.86 1.86 0 0 1-1 .29 7.54 7.54 0 0 0-3.84 1.18 3.22 3.22 0 0 0-1.29 3.56c.54 1.41 2.19 2 3.45 2.82 2.19 1.46 3.56 4.12 6 5 1.44.5 3 .3 4.52.47 2.26.27 4.34 1.37 6.58 1.77s5-.2 5.9-2.28c1.7.79 3.81-.49 4.47-2.24 1.3-3.43-1.32-7.56-3-10.42-1.43-2.37-5.75-7.11-8.78-4.67z"/><path class="cls-9" d="M133.78 85.53a1.42 1.42 0 0 0 .31-.29 39.71 39.71 0 0 1 13.32-11 1 1 0 0 1 1.31 1.54c-.5.71-1 1.41-1.55 2.1a46.23 46.23 0 0 1 15.52-8.48c.62-.19 1.57-.14 1.59.5a1.09 1.09 0 0 1-.42.75 48.75 48.75 0 0 1-7.71 6.17c2.18-.8 4.51-1.6 6.78-1.1.41.09.91.37.83.79a.78.78 0 0 1-.29.41 37.17 37.17 0 0 1-4.45 2.92 15.3 15.3 0 0 1 2.52 1.47 1.13 1.13 0 0 1-.08 1.38 3 3 0 0 1-1.24.82 27.36 27.36 0 0 1-11.44 1.93c-.9 2.89-3.84 4.8-6.84 5.16a15.37 15.37 0 0 1-8.7-2 1.5 1.5 0 0 1-.18-2.55zm-12.29.82c-1.06-.24-2.36-.25-3 .61a3.36 3.36 0 0 0-.13 2.9c-3.85-.94-7.85-1.88-11.74-1.14-.81.15-1.74.5-1.95 1.3a1.75 1.75 0 0 0 .18 1.18 4.35 4.35 0 0 0 2.53 2.11 12.86 12.86 0 0 0 3.32.59l5.89.51a1.23 1.23 0 0 1 .88.33c.22.28.16.68.2 1A2.15 2.15 0 0 0 119 97.4a5 5 0 0 0 2.14.33 17 17 0 0 0 6.49-1.38 1.19 1.19 0 0 0 1 1 3.36 3.36 0 0 0 1.51-.1c2.41-.52 5.14-1.3 6.14-3.54.74.28 1.52-.6 1.4-1.38-.49-3.25-5.75-2.26-7.9-2.24-3.12.04-5.28-3.09-8.29-3.74z"/><path class="cls-9" d="M109.85 88.36a43.07 43.07 0 0 0-15-7.41c-3-.8-6.18-1.27-9.09-.28-.69.23-1.44.64-1.59 1.36-.29 1.35 1.71 2.18 1.85 3.55-7.48-.77-15.37-1.16-22.21 2-.64.29-1.38.87-1.16 1.53a1.37 1.37 0 0 0 .66.66c3.1 1.78 7.09.4 10.52 1.38-4.93.75-10.26 1.7-13.62 5.38.28.49 1 .47 1.53.38l8.31-1.32a24 24 0 0 0-7.75 5.22c-.69.7-1.38 1.65-1 2.57a1.88 1.88 0 0 0 1.7 1.06 5.46 5.46 0 0 0 2.12-.55l3.88-1.58a28.08 28.08 0 0 1-1.34 2.69 2.84 2.84 0 0 0 0 2.86 2.39 2.39 0 0 0 2.17.78 6.71 6.71 0 0 0 2.26-.83q2.25-1.17 4.43-2.5c.39 1.29-.73 2.68-.35 4a2.48 2.48 0 0 0 2.63 1.53 7.28 7.28 0 0 0 3-1.23l8.79-5.24a2 2 0 0 0 1.79 2.1 5.72 5.72 0 0 0 3-.65l5.47-2.3a2.65 2.65 0 0 1 2.42-.16 8.27 8.27 0 0 1 .82.85c.93.83 2.38.52 3.57.15a27.88 27.88 0 0 0 5.49-2.13 9.19 9.19 0 0 0 4-4.15 11.7 11.7 0 0 0 .79-4.36"/><path class="cls-10" d="M124.18 74.06c-2.77-.49-5.64-.37-8.39-1-3-.67-5.73-2.18-8.6-3.29s-6.09-1.82-9-.8c-3.08 1.07-5.3 3.89-8.38 4.93-.95.32-2 .46-2.89.85a3.22 3.22 0 0 0-2 2.06c-.52 2.16 2.21 3.69 2.83 5.83.49 1.68-.41 3.59.27 5.2s2.43 2.17 4.07 2.29 3.31-.13 4.89.28a2.63 2.63 0 0 1 1.12.52 7.05 7.05 0 0 1 1.12 2c.82 1.38 2.53 2 4.12 2.2a44.49 44.49 0 0 0 9.72 0 122.7 122.7 0 0 1 24.75 1 10.68 10.68 0 0 0 4.25 0 3.43 3.43 0 0 0 2.7-2.93 4.31 4.31 0 0 0-.34-1.62 16.86 16.86 0 0 0-6-7.89c-1.37-1-2.21-2.66-3.4-3.89a20.22 20.22 0 0 0-4.63-3.55 19.27 19.27 0 0 0-6.21-2.19z"/><path class="cls-11" d="M106.71 82c-.67 1.22-1.28 2.47-1.84 3.74a1.87 1.87 0 0 0-.24 1.1c.09.55.62.92 1.11 1.19a8.12 8.12 0 0 0 2.38 1 3.66 3.66 0 0 0 2.52-.33c2-1.13 3.7-5 2.53-7.15-1.37-2.55-5.27-1.77-6.46.45zm24.07-1c1.16 1.3 3.12 1.4 4.85 1.4a2.76 2.76 0 0 0 1.37-.22 2.44 2.44 0 0 0 .87-.93 12.38 12.38 0 0 0 1.47-3.25 1.76 1.76 0 0 0 .09-.85c-.13-.53-.69-.82-1.2-1a20 20 0 0 0-6.61-1.38 3.54 3.54 0 0 0-2.36.52 2.6 2.6 0 0 0-.83 2.19 7.5 7.5 0 0 0 .65 2.34"/><path class="cls-12" d="M95.1 102.81a54.82 54.82 0 0 1 32.24-12.13c11.68-.31 23.56 3.82 32 11.85a26.84 26.84 0 0 1 4.4 5.23c2.42 3.9 3.41 8.51 4 13.07a90.26 90.26 0 0 1 .66 16c-31.15 2.19-62.43.06-93.66-.21-2.28 0-6.16-.45-6.16-.45.1-2 4.79-8 6.08-9.9a142 142 0 0 1 12.13-15.71 73.1 73.1 0 0 1 8.31-7.75z"/><path class="cls-11" d="M115.1 56.06a3 3 0 0 0-2 .75 3.64 3.64 0 0 0-.71 1.33 17.73 17.73 0 0 0-.76 3.28 1.33 1.33 0 0 0 0 .74 1.34 1.34 0 0 0 .78.61 9.22 9.22 0 0 0 2 .53 1.6 1.6 0 0 0 .87-.06 1.76 1.76 0 0 0 .63-.64c.57-.84 1.12-1.69 1.65-2.56a4.4 4.4 0 0 0 1-2.23c-.02-1.67-2.22-1.81-3.46-1.75z"/><path class="cls-13" d="M92.32 114.89a1.48 1.48 0 0 0 1.51.81c1.54-.12 3.46-2.6 2-3.89s-4.06 1.65-3.51 3.08zm-8.6 6.75a3.38 3.38 0 0 0-.17 2.58.53.53 0 0 0 .28.29.57.57 0 0 0 .45-.09 5.39 5.39 0 0 0 2.42-2.61c.38-.88.7-3.33-.78-3.5-1.3-.15-1.92 2.44-2.2 3.33zm10.68-.29c.16-.17 0-.47-.22-.53a.79.79 0 0 0-.65.19 2 2 0 0 0-.82 1.74 1.77 1.77 0 0 0 1.12 1.53 1 1 0 0 0 .57 0c.45-.12.65-.63.71-1.08a3.33 3.33 0 0 0-.49-2.13m45.98-20.92c-.37.55.14 1.28.68 1.67 1.1.78 6.17 2 5.46-.67-.58-2.21-4.91-2.89-6.14-1zm-14.98-2.92a.79.79 0 0 0-.91-.14 1.73 1.73 0 0 0-.7.67 4.51 4.51 0 0 0-.6 1.41 1.24 1.24 0 0 0 0 .74.91.91 0 0 0 .34.41 1.8 1.8 0 0 0 2.48-.52 2.09 2.09 0 0 0-.42-2.58"/><path class="cls-11" d="M84.51 67.48c-.06.66 0 1.32 0 2a3.37 3.37 0 0 0 .19 1.64 2.89 2.89 0 0 0 2 1.14 1.1 1.1 0 0 0 .54 0c.34-.11.49-.5.59-.84.45-1.55 2-4.52.81-6.06-1.44-1.96-3.98.38-4.13 2.12zM76.56 86a11.13 11.13 0 0 0 .45 2.7 1.93 1.93 0 0 0 .61 1.06 1.57 1.57 0 0 0 1 .27 3 3 0 0 0 2.82-2.25 5.55 5.55 0 0 0 .1-1.41A23.11 23.11 0 0 0 81.3 84c-.19-1.32-1.14-3-2.71-2.26s-2.08 2.74-2.03 4.26z"/><path class="cls-7" d="M108.91 158c-.67-2.93 5.43-17 11.24-25.48a77.94 77.94 0 0 1 9.62-12c9.63-9.39 23.11-14.16 36.52-15.07a19.32 19.32 0 0 1 6.17.33 19.65 19.65 0 0 1 6.69 3.66 92 92 0 0 1 19 19.24c.31 2.95.12 6.39-2 8.45a10 10 0 0 1-3.2 1.81Q163.47 151 133.6 162.06c-3.29 1.22-.6 5.73-4.08 6.22s-13.18-3.1-16.27-4.77a9.38 9.38 0 0 1-4.34-5.51z"/><path class="cls-8" d="M182 126c-2.83-3.29-7.33-4.59-11.63-5.17-6.32-.84-13.5-.14-17.8 4.57-1.78 2-3 4.52-5.24 5.91-2.9 1.79-6.63 1.11-10 1.67a13.4 13.4 0 0 0-6.59 3.14 17.57 17.57 0 0 1-3.67 3 22.32 22.32 0 0 1-2.91.91c-5.49 1.8-8 7.94-9.93 13.4-.77 2.22-3 3.85-1.88 6.11s5.84 3.29 8.38 3.48c2.28.18 5.2 2.7 7.45 2.28 2-.37 3.22-3.54 5.19-4 2.22-.46 4.55-.4 6.72-1.08 5.52-1.74 8.74-7.8 14.16-9.83 1.52-.57 3.13-.79 4.69-1.23 4.16-1.16 7.74-3.81 11.77-5.36 2.58-1 5.32-1.53 7.88-2.57C184.87 138.72 182 126 182 126z"/><path class="cls-14" d="M153.61 128.55c-.82-.83-2.18-.93-3-1.78a6.58 6.58 0 0 1-.95-1.75 5.93 5.93 0 0 0-10.11-.91c-.58.8-1 1.73-1.56 2.51-1.21 1.6-3.17 2.41-4.89 3.46s-3.4 2.67-3.36 4.68 1.73 3.51 3.42 4.54c5.14 3.1 9.39 1.32 14.45-.84 2.76-1.16 9.18-6.71 6-9.91z"/><path class="cls-8" d="M150.73 84.75a1.64 1.64 0 0 0 1.13 1.81c1.9.79 4.36.11 5.91 1.46.45.39.77.92 1.22 1.31a3.69 3.69 0 0 0 3.44.5 10.92 10.92 0 0 0 3.13-1.83l5.44-4a5 5 0 0 0 1-.89c3.53-4.67-6.91-6.89-9.8-6.21-3.79.88-11.27 3.1-11.47 7.85z"/><path class="cls-14" d="M177.75 136.22a4.34 4.34 0 0 1 3.42.3 10.1 10.1 0 0 0 11.58-1.77 5.46 5.46 0 0 0 1.9-4.52 4.54 4.54 0 0 1-.21-1.85 3.35 3.35 0 0 1 .93-1.32 7 7 0 0 0 1.54-7 5.74 5.74 0 0 0-5.91-3.72c-1.4.19-2.66 1-4.06 1.16-1.9.28-3.84-.5-5.75-.25a6.44 6.44 0 0 0-4.49 3.1 10 10 0 0 0-1.31 5.41 3.24 3.24 0 0 1-.21 1.58c-.46.87-1.64 1-2.46 1.57-1.44 1-1.61 3.13-.79 4.65a6.21 6.21 0 0 0 1.81 2 4.45 4.45 0 0 0 4 .65z"/><path class="cls-9" d="M159.36 107.44a27.67 27.67 0 0 0-14.26 4c-2.12 1.37-4 3.14-6.21 4.35-4.66 2.54-10.61 2.51-14.68 5.93a6.27 6.27 0 0 0-2.5 4.44 3.52 3.52 0 0 0 3 3.68 61.46 61.46 0 0 0-10.38 9.88c-.75.91-1.49 2.19-.83 3.16s2.23.72 3.25.09 2-1.55 3.2-1.53a24.52 24.52 0 0 0 .25 4.84 2.39 2.39 0 0 0 .68 1.56 2 2 0 0 0 1.84.2c2.52-.69 4.18-3 6.22-4.64a1.09 1.09 0 0 1 .8-.32c.43.07.6.6.88.94.91 1.13 2.72.19 3.76-.82a58.07 58.07 0 0 0 6.17-6.94c.75-1 2.11-2.12 3-1.3a4.35 4.35 0 0 1 .72 1.26 3.39 3.39 0 0 0 3.89 1.29 11 11 0 0 0 3.74-2.32 61.93 61.93 0 0 1 8.7-5.82 7 7 0 0 1 3.79-1.19 17.23 17.23 0 0 1 2.41.58 10.09 10.09 0 0 0 4.2-.08c3.43-.68 6.62-2.23 10-3.21 4.46-1.32 9.7-1.93 12.38-5.73a2 2 0 0 0 .44-1 2.29 2.29 0 0 0-.78-1.58c-6.22-6.83-15.28-8-24-9.08a61.18 61.18 0 0 0-9.68-.64z"/><path class="cls-9" d="M179.19 103.8a26.67 26.67 0 0 1 7.11-1.34 2.43 2.43 0 0 1 2.22.82c.16.27.22.59.39.84.49.75 1.6.63 2.47.45 4-.85 8.22-1.36 12.23-.44 1.57.36 3.38 1.31 3.39 2.93s-1.72 2.55-3.19 3.16c.43 1 1.93 1 2.52 1.83a1.8 1.8 0 0 1-.49 2.26 5 5 0 0 1-2.32.93A85.6 85.6 0 0 1 183.9 117a10.1 10.1 0 0 0-4.58.56c-.52.25-1 .6-1.52.85-3.76 1.86-8.45-1.22-12.38.24-1.37.51-2.54 1.55-4 1.81-1.61.29-5.67-.62-6.22-2.48-.48-1.64 1.88-3.12 3-3.88a73.58 73.58 0 0 1 13.08-7.4 71.58 71.58 0 0 1 7.91-2.9z"/><path class="cls-10" d="M170.7 101.64a6 6 0 0 1-3.91 0 20.81 20.81 0 0 0-24.32 8.27 2.63 2.63 0 0 1-.85 1 2.82 2.82 0 0 1-.81.25c-3 .67-5.39 2.72-7.66 4.74-1.29 1.15-2.62 2.39-2.9 4.19a2.88 2.88 0 0 0 .68 2.41c1.12 1.2 2.76.82 4.15.36 7.55-2.54 14.59-7 22.52-7.8 2.6-.27 5.28-.16 7.75-1 1.92-.67 3.61-1.89 5.53-2.59 4.14-1.49 9.1-.41 12.78-2.83a2.94 2.94 0 0 0 1.56-2.38c-.07-1.27-1.4-2.05-2.58-2.52a34.37 34.37 0 0 0-9.58-2.29 5.93 5.93 0 0 0-2.36.3zm-24.63 25.25a3.46 3.46 0 0 0-1.27 1.49 1.35 1.35 0 0 0 .59 1.7 2 2 0 0 0 1.07 0l6.28-1a5.33 5.33 0 0 1 2.48 0 15.22 15.22 0 0 1 2.37 1.5 4.08 4.08 0 0 0 4.46-.43c1-.88 1.59-2.25 2.62-3.16 1.8-1.58 4.65-1.38 6.52-2.87a1.66 1.66 0 0 0 .76-1.35c-.06-.68-.78-1.1-1.44-1.26-2.32-.56-4.55.67-6.68 1.4-1.12.38-2 .83-2.42-.48-.18-.6.24-1.34-.27-1.9-1.51-1.66-6.52 1.88-8 2.51a29.67 29.67 0 0 0-7.07 3.85z"/><path class="cls-10" d="M165.51 121.64a1.14 1.14 0 0 0 .35 1.1 1.47 1.47 0 0 0 .64.21c2.16.29 4.53-.72 6.45.3 1.26.67 2.12 2.13 3.53 2.32 4.76.63 4.48-6.19.47-7-2.59-.57-10.88-.22-11.44 3.07z"/><path class="cls-11" d="M144.59 117.59a11.1 11.1 0 0 0-2.92-.34 3.85 3.85 0 0 0-2.65 1.11 4.42 4.42 0 0 0-1 2.06 9.84 9.84 0 0 0-.25 2.23A2.4 2.4 0 0 0 139 125a5.94 5.94 0 0 0 2.54 1.13 3.53 3.53 0 0 0 2.66-.61 5.28 5.28 0 0 0 1.26-1.62 7.09 7.09 0 0 0 .86-2.05 8.86 8.86 0 0 0-.25-3.54m34.38-53.65a6.21 6.21 0 0 1 1.75.67 14.7 14.7 0 0 1 3.09 1.89 5 5 0 0 1 1.79 3.07 2.07 2.07 0 0 1-2.21 2.46 6.86 6.86 0 0 1-2.13-.44c-2-.65-3.62-1.39-4.41-3.53-.62-1.69-.22-4.48 2.12-4.12zM168 97a5 5 0 0 0-2.17.28 7.09 7.09 0 0 0-1.67 1.2 26.54 26.54 0 0 0-2.55 2.17 7.24 7.24 0 0 0-1.91 4.7 1 1 0 0 0 .17.67.83.83 0 0 0 .5.25 5.51 5.51 0 0 0 2.06-.11c1.67-.33 3.33-.74 5-1.16a2.55 2.55 0 0 0 1.06-.44 2.45 2.45 0 0 0 .6-.82c.92-1.72 2.26-4.36 2.26-5.38S168.85 97 168 97z"/><path class="cls-12" d="M167.78 112c6.35-1.8 13.59.2 20.14 1s16.31 10.42 20.46 15.59c1 1.2 2 2.62 1.75 4.15-.25 2.05-2.39 3.23-4.27 4.08l-26.59 12c-11.42 5.15-22.86 10.31-34.68 14.48-2.67.94-5.37 1.83-8.11 2.57-2.56.68-5.43 3.55-9.18 2.37-.67-.21 5.86-24.35 9.56-31.4S154 115.85 167.78 112z"/><path class="cls-11" d="M119.25 120.36a3.43 3.43 0 0 0-3 1.44c-.94 1.37-.76 3.19-.5 4.83a2.44 2.44 0 0 0 .31 1 1.68 1.68 0 0 0 1 .64 2.53 2.53 0 0 0 2.79-1.2 4.14 4.14 0 0 0 .41-1.46 15.79 15.79 0 0 0-.09-4.9M133.26 101a3.3 3.3 0 0 0-1.92 1.28 3.71 3.71 0 0 0-.42 1.57 18.54 18.54 0 0 0 0 3.65 1.5 1.5 0 0 0 .22.77 1.47 1.47 0 0 0 1 .45 9.32 9.32 0 0 0 2.24.07 1.56 1.56 0 0 0 .9-.27 1.79 1.79 0 0 0 .51-.82c.41-1 .79-2.05 1.14-3.1a4.83 4.83 0 0 0 .49-2.58c-.51-1.77-2.87-1.42-4.16-1.02z"/><path class="cls-13" d="M187 132.38c-.1.45-.12 1 .26 1.26a1 1 0 0 0 .82 0c1.28-.39 4.12-3.11 2.46-4.37-1.9-1.42-3.26 1.73-3.54 3.11zm-10.14 5.5a1.1 1.1 0 0 0 .45 1.05.9.9 0 0 0 .58.07 2.05 2.05 0 0 0 1.53-1.63c.14-.64.05-2.64-.92-2.57s-1.61 2.36-1.64 3.08zm6.84-9.82c-.19-.25-.59-.07-.79.16a2.84 2.84 0 0 0-.71 1.55 1.2 1.2 0 0 0 0 .5.86.86 0 0 0 1.24.3 1.56 1.56 0 0 0 .6-1.27 2.75 2.75 0 0 0-.43-1.53m-40.7 28.59a2 2 0 0 0 .54.32c1.87.7 3.76-1.56 2-2.92s-4.11 1.14-2.54 2.6zm-5.07-2.79c1.24-.38 1.73-3.15-.05-3s-1.28 3.43.05 3zm.73 5.29a2.21 2.21 0 0 1 .73 1.41 2.11 2.11 0 0 1-1.09 1.82c-1.22.74-4.68 1.44-4-1 .46-1.69 2.79-3.75 4.36-2.23zm67.6-28.29a2.4 2.4 0 0 0-2.15 1.72 1.1 1.1 0 0 0 .26 1.17.91.91 0 0 0 1.11-.12 2.07 2.07 0 0 0 .56-1.05 6.43 6.43 0 0 1 .33-1.16"/><path class="cls-15" d="M177.84 80a13.1 13.1 0 0 0-2.18 3.21 9.71 9.71 0 0 0-.49 4.42A22.2 22.2 0 0 0 176.6 94a2.72 2.72 0 0 0 .76 1.23 2.64 2.64 0 0 0 1.51.43c3.67.26 7.32-.54 10.91-1.33a22.3 22.3 0 0 0 6-1.92 14.08 14.08 0 0 0 6.52-9.13 27.62 27.62 0 0 0-.06-11.45c-.54-3-3.27-12-6-15.44a67.62 67.62 0 0 0-5.88 6.29c-1.87 2.84-3.77 5.66-5.74 8.43-2.16 3.07-4.41 6.04-6.78 8.89z"/><g class="cls-16"><path class="cls-17" d="M195.8 55.26a118 118 0 0 1 4.7 22.3 22.16 22.16 0 0 1 .16 4.53 13.35 13.35 0 0 1-2.48 6.4A8.22 8.22 0 0 1 196 90.7c-2.31 1.5-5.44 1.15-7.87-.16a23.12 23.12 0 0 1-6.13-5.49l-6.45-7.36c-.23-.26-.51-.54-.85-.51a1.05 1.05 0 0 0-.47.21 18.9 18.9 0 0 0-4.86 4.61l2.74 36 25.3-19.66 10.87-17L200 49.45"/></g><path class="cls-18" d="M196.64 78.05a6.84 6.84 0 0 1 1.63 2 5.05 5.05 0 0 1 .4 2.11 8.9 8.9 0 0 1-2.28 6 1.41 1.41 0 0 1-1.25.61 1.48 1.48 0 0 1-.69-.55 23.15 23.15 0 0 1-2.87-5.38l-2.07-4.9a23.83 23.83 0 0 1-1.63-4.73c-.2-1-.67-3.24 1-2.35 1.31.72 2.46 2.22 3.53 3.23zM191 87.92c.14.38.21.92-.16 1.08a.76.76 0 0 1-.55 0 15 15 0 0 1-4.6-3.09 7.27 7.27 0 0 1-2.42-3 6.38 6.38 0 0 1 .11-3.41c.27-1.13.62-2.25 1-3.36a2.15 2.15 0 0 1 .84-1.33c1.47-.79 2.72 4.61 3.05 5.52q1.38 3.75 2.73 7.59zm.09-20.03a4.15 4.15 0 0 0-2.35.23 5.6 5.6 0 0 0 2.26 2.23c2 1.48 3.58 3.54 5.78 4.72a1.43 1.43 0 0 0 .84.23 1 1 0 0 0 .8-.73 2.68 2.68 0 0 0 .06-1.13c-.13-1.22-.65-4.68-2-5.19a11.89 11.89 0 0 0-2.4-.07zm5.91-3.1a1.41 1.41 0 0 1-.59 1.19 2 2 0 0 1-.88.23 15.54 15.54 0 0 1-3.05 0 1.15 1.15 0 0 1-.7-.25c-.3-.31-.17-.82 0-1.23a6.27 6.27 0 0 1 .92-1.78c.6-.71 2-2 3-1.47.83.42 1.4 2.46 1.3 3.31z"/><path class="cls-2" d="M124.11 54.93a15.69 15.69 0 0 0 7.57 9.53 24.37 24.37 0 0 0 12 2.92c3.08 0 6.56-.64 8.24-3.22a8.47 8.47 0 0 0 1-5.39c-.42-4.93-2.67-9.5-4.89-13.93-3.1-6.18-9.55-15.59-17.87-11.28-6.01 3.11-7.44 15.78-6.05 21.37z"/></svg>
