<?xml version="1.0" encoding="UTF-8"?>
<!DOCTYPE svg PUBLIC "-//W3C//DTD SVG 1.1//EN" "http://www.w3.org/Graphics/SVG/1.1/DTD/svg11.dtd">
<!-- Creator: CorelDRAW 2018 (64-Bit Evaluation Version) -->
<svg xmlns="http://www.w3.org/2000/svg" xml:space="preserve" width="440.267mm" height="321.733mm" version="1.1" style="shape-rendering:geometricPrecision; text-rendering:geometricPrecision; image-rendering:optimizeQuality; fill-rule:evenodd; clip-rule:evenodd"
viewBox="0 0 44343.5 32404.88"
 xmlns:xlink="http://www.w3.org/1999/xlink">
 <defs>
  <style type="text/css">
   <![CDATA[
    .str0 {stroke:#006648;stroke-width:85.28;stroke-miterlimit:22.9256}
    .fil6 {fill:none}
    .fil11 {fill:#FEFEFE}
    .fil5 {fill:#006648;fill-rule:nonzero}
    .fil9 {fill:#006648;fill-opacity:0.15}
    .fil0 {fill:#99E7FF;fill-opacity:0.15}
    .fil3 {fill:#FFC83A;fill-opacity:0.231373}
    .fil2 {fill:#006648;fill-opacity:0.231373}
    .fil1 {fill:#99D2FF;fill-opacity:0.231373}
    .fil4 {fill:#E6E7E8;fill-opacity:0.231373}
    .fil8 {fill:#99E7FF;fill-opacity:0.431373}
    .fil10 {fill:white;fill-opacity:0.529412}
    .fil7 {fill:white;fill-opacity:0.768627}
   ]]>
  </style>
 </defs>
 <g id="Layer_x0020_1">
  <metadata id="CorelCorpID_0Corel-Layer"/>
  <g id="_2574303452736">
   <polygon class="fil0" points="-0,0 44343.5,0 44343.5,32404.88 -0,32404.88 "/>
   <path class="fil1" d="M18366.79 18442.21l17463.06 0 0 10970.38c0,688.86 -563.61,1252.47 -1252.47,1252.47l-14958.12 0c-688.86,0 -1252.47,-563.61 -1252.47,-1252.47l0 -10970.38z"/>
   <polygon class="fil2" points="27099.62,5293.02 35835.99,5293.02 35835.99,18439.74 27099.62,18439.74 "/>
   <polygon class="fil3" points="18376.58,5293.02 27112.95,5293.02 27112.95,18439.74 18376.58,18439.74 "/>
   <g>
    <path class="fil2" d="M21506.66 14231.92c760.76,-235.74 999.01,894.04 329.33,1078.14 -728.17,200.18 -1042.98,-856.99 -329.33,-1078.14zm2914.51 12.42c720.65,-249.19 996.04,849.19 366.28,1066.22 -709.65,244.57 -1120.53,-805.39 -366.28,-1066.22zm-1758.5 354.35c-898.8,0 317.7,-657.54 454.62,-721.97 179.03,72.73 294.72,169.56 454.25,272.14 460.86,296.33 342.76,162.75 324.14,390.11 -224.41,125.53 -940.87,59.71 -1233,59.72zm1406.15 -1409.54l-376.84 2.51 -581.22 390.71 -558.24 -387.37 -372.74 -6.07c292.66,274.46 594.56,354.62 701.04,560.78 -754.97,610.67 -694.04,433.55 -946.22,336.53 -1065.81,-410.02 -1420.17,1335.43 -347.09,1423.13 689.56,56.34 779.8,-561.11 860.7,-710.18l1351.03 -1.43c209.44,337.41 176.58,725.9 794.88,722.5 1094.04,-6.02 871.32,-1743.2 -197.03,-1453.39 -213.94,58.03 -273.59,362.41 -1010.2,-317.16 132.59,-275.93 499.57,-356.82 681.93,-560.56z"/>
    <path class="fil2" d="M22179.77 13188.93l372.74 6.07 1139.46 -3.34 376.84 -2.51c623.11,-130.82 811.01,-102.95 1281.84,-446.18 344.16,-250.9 557.65,-628.1 489.51,-1268.12l-2059.81 -3.21c-172.82,102.77 -62.58,-13.36 -156.86,174.62l1909.75 13.01c135.15,1257.95 -1313.7,1312.59 -2415.95,1311.98 -1105.64,-0.59 -2538.73,-55.84 -2411.2,-1300.08l2293.33 -26.4 -153.85 -173.4 -2454.33 -1.6c-135.73,1210.54 743.42,1547.72 1788.53,1719.15z"/>
    <path class="fil2" d="M23458.26 10694.72c197.52,-71.28 40.77,41.57 201.56,-156.34 54.64,-67.27 91.41,-137.05 136.93,-204.01 201.99,-297.09 788.83,-1083.18 864.59,-1324.73 -337.15,-176.37 -742.41,-379.62 -1243.21,-361.22 -31.64,316.48 -63.54,1844.2 40.14,2046.29z"/>
    <path class="fil2" d="M23685.1 10858.42c287.96,-8.8 1618.37,-630.78 1868.71,-806 -79.94,-319.87 -467.57,-775.22 -731.69,-873.3 -176.24,174.83 -1067.29,1442.29 -1137.02,1679.3z"/>
    <path class="fil2" d="M23845.51 11083.97l2007.58 3.94c-8.45,-352.1 -66.44,-565.45 -187.27,-852.63 -238.05,49.23 -1035.21,441.66 -1375.11,595.58 -188.44,85.34 -312.15,109.24 -445.21,253.12z"/>
    <path class="fil2" d="M21313.75 11037.64l-27.19 196.84 -932.71 19.27c-25.02,232.3 -30.28,100.02 37.4,216.03l2454.33 1.6c-38.76,-309.73 -182.65,-231.42 -522.69,-227.33 -240.87,2.9 -581.23,32.45 -751.06,-46.59l-83.47 -323.37c-44.96,-129.41 -11.51,-92.28 -94.4,-232.61 -103.58,-175.3 -66.96,-107.39 -208.51,-192.35 -40.16,-140.35 -220.66,-235.14 -399.64,-254.63 -65.07,-57.93 -6.62,-31.04 -109.22,-84.09 -357.8,-185.02 -386.39,-5.82 -403.97,186.6l385.94 89.94c196.46,66.74 280.38,142.8 398.48,210.78l256.72 439.92z"/>
    <path class="fil2" d="M23780.36 11471.64l2059.81 3.21c81.12,-125.65 73.49,18.13 39.9,-204.79 -295.09,-53.06 -1261.02,-24.43 -1686.6,-29.27 -345.75,-3.93 -362.79,-60.83 -413.1,230.85z"/>
    <path class="fil2" d="M23120.64 10960.8c-353.74,277.25 52.59,725.69 378.68,499.48 326.9,-226.77 3.11,-798.73 -378.68,-499.48z"/>
    <path class="fil2" d="M21536.2 14602.93c-161.78,256.73 -53.89,382.88 257.9,322.61 94.03,-199.32 32.25,-434.47 -257.9,-322.61z"/>
    <path class="fil2" d="M24434.51 14933.01c478.33,86.55 486.68,-408.54 -1.34,-319.08 -52.11,122.77 -50.49,195.96 1.34,319.08z"/>
   </g>
   <g>
    <path class="fil4" d="M19629.05 1739.82l14958.12 0c688.86,0 1252.47,563.61 1252.47,1252.47l0 2442.84 -17463.06 0 0 -2442.84c0,-688.86 563.61,-1252.47 1252.47,-1252.47z"/>
    <path class="fil5" d="M21245.1 3357.25l0 569.31 192.16 0c76.65,0 135.79,-26.35 177.43,-78.85 41.82,-52.51 62.64,-120.67 62.64,-204.51 0,-83.46 -21,-151.81 -63.19,-205.06 -40.53,-53.99 -99.49,-80.89 -176.87,-80.89l-192.16 0zm192.16 665.49l-294.97 0 0 -761.65 294.97 0c105.39,0 189.03,35.93 250.57,107.96 61.54,72.04 92.31,163.24 92.31,273.6 0,110.91 -30.59,201.92 -91.76,273.22 -61.35,71.31 -145,106.86 -251.12,106.86z"/>
    <path id="1" class="fil5" d="M21922.01 3362.78c-13.08,-12.71 -19.53,-28.18 -19.53,-46.42 0,-18.43 6.45,-33.72 19.53,-46.43 14.55,-12.53 30.95,-18.79 49.55,-18.79 18.61,0 35.01,6.08 49.01,18.24 14.19,12.35 21.19,28 21.19,46.99 0,18.98 -7,34.64 -21.19,46.98 -14,12.16 -30.4,18.24 -49.01,18.24 -18.6,0 -35,-6.26 -49.55,-18.79zm99.85 659.96l-100.59 0 0 -516.25 100.59 0 0 516.25z"/>
    <path id="2" class="fil5" d="M22224.9 3533.21c34.45,-25.24 76.09,-37.77 125.09,-37.77 48.83,0 89.36,12.53 121.24,37.59 32.06,25.05 50.3,60.79 54.53,107.23l-95.99 0c-2.95,-16.77 -11.79,-30.22 -26.53,-40.35 -16.22,-9.95 -34.08,-14.93 -53.99,-14.93 -19.71,0 -36.48,4.24 -50.11,12.71 -14.75,6.64 -23.95,18.24 -28.01,34.46 -3.87,16.22 -3.31,29.11 1.66,38.69 8.29,16.59 28.55,29.48 60.79,38.7l76.09 18.6c89.36,21.93 133.95,72.23 133.95,150.9 0,46.61 -19.35,84.2 -58.23,113.12 -39.24,27.83 -85.12,41.65 -137.62,41.65 -52.7,0 -98.38,-15.11 -137.26,-45.52 -38.88,-30.22 -58.59,-70.37 -59.32,-120.67l95.07 0c4.23,26.71 17.87,46.42 41.08,58.95 22.48,14.19 46.79,20.46 72.96,18.98 26.16,-1.47 46.42,-8.47 60.79,-21 14.37,-12.71 22.48,-28 24.32,-46.06 1.47,-18.06 -4.06,-32.43 -16.77,-43.3 -12.53,-10.87 -29.84,-18.79 -51.77,-23.76l-70.75 -16.41c-49.94,-13.45 -86.78,-33.16 -110.37,-59.51 -22.65,-27.26 -32.05,-61.35 -28,-102.44 3.87,-41.08 23.03,-74.25 57.12,-99.85z"/>
    <path id="3" class="fil5" d="M22917.46 3495.44c79.59,0 144.81,27.82 195.85,83.28l-76.65 63.75c-32.24,-32.42 -72.78,-48.64 -121.42,-48.64 -48.46,0 -89.72,15.66 -123.62,47.17 -34.08,30.95 -51.22,72.03 -51.22,123.44 0,51.22 17.31,92.85 51.77,124.91 34.64,32.24 75.9,48.27 124.18,48.27 48.64,0 88.8,-16.95 120.31,-50.85l77.75 64.12c-51.4,55.27 -116.43,82.91 -194.74,82.91 -78.48,0 -144.81,-24.88 -198.98,-74.62 -53.98,-50.48 -80.88,-115.33 -80.88,-194.74 0,-79.41 26.53,-144.08 79.41,-193.82 53.06,-49.75 119.02,-74.8 198.25,-75.17z"/>
    <path id="4" class="fil5" d="M23596.95 3889.89c32.24,-31.69 48.45,-73.32 48.45,-124.91 0,-51.77 -16.21,-93.04 -48.45,-124 -32.25,-31.13 -72.41,-46.79 -120.5,-47.17 -47.9,0 -88.25,15.48 -120.86,46.61 -32.98,31.32 -49.55,72.59 -49.55,124 0,51.22 16.21,92.85 48.46,124.91 32.24,32.24 72.59,48.27 121.04,48.27 48.64,0 89.17,-15.84 121.42,-47.72zm-120.86 143.9c-75.18,0 -138.92,-24.88 -191.62,-74.62 -52.69,-49.75 -79.03,-114.6 -79.03,-194.74 0,-80.14 25.98,-145.19 77.75,-194.93 51.78,-49.75 115.71,-74.43 191.98,-74.06 76.65,0 140.77,24.87 192.54,74.61 52.14,50.12 78.3,114.97 78.3,194.38 0,79.41 -26.16,144.08 -78.48,194.19 -52.33,50.12 -116.26,75.18 -191.43,75.18z"/>
    <polygon id="5" class="fil5" points="24029.35,4022.73 23815.08,3506.48 23920.84,3506.48 24077.81,3894.13 24233.87,3506.48 24341.28,3506.48 "/>
    <path id="6" class="fil5" d="M24930.12 3763.14c0,22.84 -0.37,35.93 -1.11,39.61l-418.96 0c4.98,41.64 23.4,76.09 55.08,103.54 30.59,25.24 64.85,37.95 103,37.95 74.61,0 126.76,-26.71 156.6,-80.14 0.74,0 1.84,0.18 3.32,0.93 1.29,0.74 3.87,2.02 7.55,3.87 4.23,1.84 9.94,4.05 17.13,6.45 7.18,2.58 12.71,4.79 16.21,6.64l42.19 15.65c-21.18,43.48 -53.24,77.02 -96.17,100.6 -42.75,23.77 -89.91,35.56 -141.32,35.56 -73.88,0 -136.89,-24.88 -189.39,-74.8 -49.94,-49.93 -74.8,-115.33 -74.8,-195.85 0,-80.7 24.87,-145.37 74.43,-194.19 49.75,-48.65 112.57,-73.15 188.85,-73.52 76.28,0 137.81,24.69 184.61,73.88 48.46,49.01 72.78,113.68 72.78,193.82zm-150.72 -141.13c-28.74,-24.69 -64.48,-37.03 -106.85,-37.03 -42.56,0 -79.04,12.35 -109.62,37.03 -30.22,26.35 -47.9,60.61 -52.88,102.25l320.03 0c-4.98,-41.64 -21.93,-75.9 -50.67,-102.25z"/>
    <path id="7" class="fil5" d="M25158.57 3834.99l0 187.74 -100.6 0 0 -516.25 100.6 0 0 116.44c25.24,-84.94 72.96,-127.49 143.53,-127.49 40.72,0 70.56,6.63 89.72,19.71l-15.65 94.33c-22.66,-11.98 -48.09,-17.87 -76.09,-17.87 -45.52,0 -80.33,21.74 -104.84,65.22 -24.51,43.66 -36.66,103 -36.66,178.16z"/>
    <ellipse class="fil6 str0" cx="19934.52" cy="3574.14" rx="297.58" ry="315.34"/>
    <path class="fil6 str0" d="M20151.11 3790.37c267.51,241.24 280.84,274.55 280.84,274.55"/>
   </g>
   <path class="fil7" d="M9695.08 6652.32l11405.66 0c644.91,0 1172.55,527.64 1172.55,1172.55l0 16202.44c0,644.91 -527.64,1172.55 -1172.55,1172.55l-11405.66 0c-644.91,0 -1172.55,-527.64 -1172.55,-1172.55l0 -16202.44c0,-644.91 527.64,-1172.55 1172.55,-1172.55z"/>
   <g>
    <path class="fil8" d="M13587.97 11398.21c102.41,164.42 177.09,104.34 410.65,192.26 996.9,375.27 847.59,2067.28 1610.18,3311.95 372.89,60.99 760.91,31.29 1145.89,32.95 469.8,2.01 663.81,113.84 972.39,128.98 13.03,0.64 1184.86,-127.7 2121.89,-95.71 -157.15,549.86 -742.84,950.94 -1429.22,1021.76 -317.23,-191.99 -292.83,-351.97 -583.69,-433.74 -35,253.06 297.87,874.08 504.2,1715.25 263.77,1075.31 227.5,956.55 -426.22,1505.84 11.08,499.67 411.59,905.35 242.19,1193.75 -462.6,-2.47 -202.36,-133.69 -688.95,-1032.19 -530.07,-49.43 -1365.39,16.84 -1946.43,13.81 -609.21,-3.19 -1273.57,-139.91 -1783.19,-109.58 -117.67,260.76 -220.32,484.87 -351.52,784.74 -336.05,768.11 -767.13,514.09 -355.76,-276.32 851.68,-1636.47 -720.26,155.16 55.02,-3818.13 184.79,-947.08 827.48,-344.74 735.12,-1032.99 -351.5,31 -330.38,170.59 -675.8,236.06 -381.76,72.36 -549.51,-58.1 -877.72,80.85 -489.84,207.36 -800.85,562.21 -1196.5,-120.14 -724.15,-1248.93 859.22,-1644.53 1112.88,-2171.01 252.8,-102.94 578.37,-286.85 723.41,-508.37 180.91,-276.33 74.2,-700.61 86.72,-1038.63 286.6,207.54 230.13,257.57 594.46,418.63zm-1483.27 918.93c-273.47,78.5 -1698.26,977.74 -1500.28,2046.05 74.84,403.85 410.83,932.78 825.43,1023.23 633.49,138.22 712.5,-400.56 1418.96,-274.11 -76.31,777.66 -421.15,1956.71 -291.23,2762.07 88.57,549.08 483.34,650.07 336.83,1080.14 -154.67,453.99 -512.26,682.92 -412.44,1240.64l830.67 268.44 642.52 -1313.05c1184.29,92.67 2097.19,101.71 3324.12,71.22l452.32 1119.44c398.72,7.72 569.2,-68.04 850.78,-250.11 4.5,-431.13 -235.06,-715.07 -328,-1143.03 308.43,-368.64 608.99,-420.3 523.86,-1136.95 -56.62,-476.82 -245.61,-914.66 -297.69,-1412.9 195.02,-128.55 25.21,-33.4 256.07,-124.41 1241.74,-489.53 1705.93,-1303.27 1365.06,-1573 -552.65,-190.26 -1548.35,-57.74 -2150.1,8.35 -233.17,25.6 -1778.72,-74.35 -2135.97,-103.71 -650.58,-1621.61 -818.07,-3332.35 -1995.2,-3340.94 -201.25,-270.26 -884.61,-794.16 -1192.12,-841.33 11.56,2327.7 -42.93,897.9 -523.59,1893.96z"/>
    <path class="fil8" d="M11129.71 19906.19c-30.75,337.37 20.88,353.41 288.55,512.06l1526.08 670.02c2349.74,761.2 6081.47,183.33 7079.9,-1101.55l-212.58 -306.6c-354.77,64.42 -1290.9,664.23 -1899.69,871.84 -1561.02,532.35 -3243.33,554.87 -4826.71,45.49 -1088.45,-350.18 -1557.22,-887.44 -1955.55,-691.25z"/>
    <path class="fil8" d="M13822.23 12992.98c-37.43,-274.39 -126.4,-289.58 -409.5,-288.35 -189.31,300.4 -144.38,427.43 87.84,666.01 229.94,-27.37 361.99,-81.94 321.66,-377.66z"/>
   </g>
   <g>
    <path class="fil9" d="M29703.4 24740c339.11,-85.64 446.53,-110.73 786.17,25.68l-28.82 3161.6c-298.61,95.16 -432.43,76.51 -776.91,18.46l19.56 -3205.75zm-914.41 21.17l658.87 31 -17.12 3132.27 -666.32 4.98 24.58 -3168.25zm-1021.57 -22.39l698.56 12.93c60.3,491.35 79.57,2756.76 -17.92,3195.44l-700.94 -14.94 20.3 -3193.44zm-1028.55 3228.38c-92.56,-470.1 -83.51,-2735.25 -9.06,-3234.79 342.75,-59.41 443.83,-85.39 793.67,36.31l-31.44 3157.86c-303.54,112.05 -433.97,81.15 -753.16,40.62zm-986.69 -3194.41c304.52,-123.33 428.23,-115.65 763.28,-15.88l-31.21 3182.34c-303.12,92.07 -425.57,98.52 -743.94,-11.41l11.86 -3155.04zm-959.3 -30.66l718.37 18.22 -35.45 3191.05 -710.1 -10.81 27.18 -3198.46zm-1009.17 3205.73c-101.21,-408.35 -84.64,-2744.52 -11.53,-3205.72 330.08,-75.01 442.68,-102.23 767.3,34.22l-21.35 3143.12c-295.92,105.99 -426.47,83.9 -734.42,28.37zm7162.54 1081.53c98.83,-565.78 43.07,-3563.21 35.23,-4516.4 -2.86,-348.4 -45.2,-374.86 100.87,-662.42 431.45,-849.22 -450.11,-1084.33 -766.91,-684.14 -326.7,412.66 105.21,551.23 116.46,1052.81l-6612.23 -2.75c3.37,-509.94 367.19,-527.06 147.64,-978 -134.51,-276.25 -524.59,-333.18 -763.76,-156.46 -384.16,283.84 -131.21,575.03 -32.93,790.42 160.01,350.71 74.59,2952.07 79.75,3458.25 17.08,1676.86 -189.87,1706.76 522.42,1703.81l42.9 -558.3 6606.64 12.73 70.72 548.43 453.19 -7.99z"/>
    <path class="fil9" d="M27769.46 20516.3l2794.07 16.91c39.96,600.62 -142.65,1912.15 85.91,2348.89 217.75,-82.13 123.22,4.84 181.06,-238.92l-29.1 -2375.16 -3276.78 27.08 -47.91 732.25c-917.02,75.58 -1001.06,-170.76 -1097.51,205.23 227.39,110.6 1561.92,66.41 2012.23,64.59 346.89,-1.42 334.65,66.83 484.24,-142.78 -196.07,-233.87 -787.86,-110.46 -1121.31,-141.12l15.1 -496.98z"/>
    <path class="fil9" d="M27653.17 21585.12c-632.91,231.64 -723.08,1043.88 -265.27,1503.82 470.02,472.16 1288.67,362.04 1503.7,-260.89 -982.97,94.48 -1350.03,-248.77 -1238.44,-1242.92z"/>
    <path class="fil9" d="M26672.74 21631.05c-386.69,-32.92 -653.5,79.95 -826.73,350.7 -625.09,976.92 1914.56,1126.27 826.73,-350.7z"/>
    <path class="fil9" d="M28290.94 22639.44c562.05,-149.31 256.9,-116.43 794.23,-4.68 -8.75,-573.72 -62.88,-357.64 212.26,-698.55 -372.2,-314 52.74,230.55 -600.65,-463.63 -318.52,258.79 18.84,213.8 -599.91,385.45 12.73,22.7 25.15,91.14 32.86,108.99 28.44,65.82 13.17,25.31 49.48,97.28 158.57,314.34 110.53,164.27 111.72,575.15z"/>
   </g>
   <path class="fil10" d="M31041.68 14082.6l807.49 5.21c26.9,166.22 21,84.46 -49.83,246.08l-654.84 32.54 -102.82 -283.83zm-1879.15 -4347.69c-134.84,54.26 -202.97,108.52 -328.36,250.12l-218.42 195.91c47.72,244.61 464.58,941.1 581.42,1173.16 291.89,-29.39 420.33,-226.53 656.24,-216.58l23.6 2347.55c208,165.12 472.96,261.28 668.5,446.22 250.18,236.62 229.01,436.86 415.37,692.02 1529.93,182.25 889.01,-207.67 1440.64,-704.33 175.55,-158.06 596.91,-318.69 652.33,-503.09 86.37,-287.37 -6.94,-1811.34 40.73,-2288.54l601.92 240.62c147.98,-148.01 592.1,-990.86 623.35,-1177.8 -320.56,-346.95 -1382.95,-1094.39 -2066.68,-1120.61 -176.13,140.08 -418.91,457.96 -773.42,464.07 -396.88,6.83 -596.3,-328.37 -821.73,-469.85 -561.33,84.58 -1133.41,417.78 -1495.51,671.13zm-150.05 560.42c236.17,-270.54 1120.89,-807.4 1597.22,-848.49 249.83,163 384.76,386.05 823.24,399.56 429.07,13.23 649.97,-207.92 868.58,-392.05 506.96,11.65 1373.52,570.95 1603.33,832.58l-289.27 643.32c-460.9,-73.77 -869.35,-492.36 -858.42,370.45l-38.83 2019.93c-401.77,275.28 -471.13,244.33 -693.9,598.45 -1435.49,39.08 -1022.7,-40.94 -1439.95,-365.02 -130.48,-101.35 -235.45,-142.72 -375.62,-252.11l-30.02 -2243.82c-56.96,-517.31 -552.29,-186.85 -855,-121.19l-311.35 -641.6z"/>
   <rect class="fil11" x="8644.87" y="1405.8" width="4557.12" height="4557.12" rx="445.85" ry="404.9"/>
  </g>
 </g>
</svg>
