<svg viewBox="0 0 250 250" xmlns="http://www.w3.org/2000/svg" xmlns:xlink="http://www.w3.org/1999/xlink"><clipPath id="a"><path d="m119.79 70.32a87.94 87.94 0 0 1 -11.64-14.38 3.48 3.48 0 0 1 -.72-1.76 3.56 3.56 0 0 1 .29-1.28l3-8.12a8.9 8.9 0 0 1 1.67-3.18c1.38-1.49 3.54-1.87 5.55-2.18a1.31 1.31 0 0 1 .94.09 1.34 1.34 0 0 1 .45.7l3.91 10.54a11.56 11.56 0 0 0 1.45 3c1.61 2.14 4.56 3 6 5.25-.13.13.05 0 .2.11q5.2 4.22 10.71 8.06c1.16.82 1.42 2.59 2.19 3.79a.88.88 0 0 1 .18.45c0 .3-.32.49-.58.63-4.47 2.37-7 7.46-11.38 9.93a1.53 1.53 0 0 1 -.85.27 1.59 1.59 0 0 1 -.8-.35 46.59 46.59 0 0 1 -9.62-8.65"/></clipPath><clipPath id="b"><path d="m99.67 48.41c.25-2.11 1-4.47 2.6-5.69a1.1 1.1 0 0 1 1.65.42c7.69 16.21 23.94 26.77 34.23 41.54.44.64-.16 2.09-.16 2.09l-4.68 1.64a44.2 44.2 0 0 1 -6.09-2.11l-14-7.08c-5.89-3-9.5-5.73-11.28-12.12-1.66-6.1-3.02-12.35-2.27-18.69z"/></clipPath><clipPath id="c"><path d="m101.82 62.52c-1.76.27-2.47 2.46-3.95 3.46-.43.29-.93.48-1.38.74-2.65 1.54-9.7 10-11 12.23a46.64 46.64 0 0 1 -5 5.07c-.69.58-2.54 3.47-3.13 4.06-1.8 1.79-2 5.19-4.06 6.69-3.68 2.68-4.68 4-7.14 7.82-1.34 2.09-4.4 4.57-5.19 6.91-.52 1.56-2.52 3-2 4.56s-3.36 2.19-.92 7.27c.71 1.49 2.72 2.12 3 3.73a6 6 0 0 0 3.17 3.75c1.47.84 3.1 1.38 4.5 2.33 1.24.84 2.26 2 3.51 2.79a7.38 7.38 0 0 0 6 1c4-1.17 7.18-5.39 9.87-8.54s4.68-3.68 7.4-6.87c.79-.93 5.27-6.18 6-7.15.45-.6.89-1.22 1.37-1.79a32.14 32.14 0 0 1 2.59-2.63 17.1 17.1 0 0 0 4.27-5.39 25.15 25.15 0 0 1 2.73-3.88 14.46 14.46 0 0 1 3.64-3.19c2.62-1.81 3.23-4.51 5.21-7 2.21-2.8 4.93-5.87 4-9.3a10.26 10.26 0 0 0 -2.07-3.55 41.91 41.91 0 0 0 -7.58-7.24c-.89-.66-2.06-.87-2.57-1.85-.43-.83-.56-1.84-1.24-2.48s-2-.71-3-1.11-2-1.46-3.19-1.7-2.66 1.08-3.84 1.26z"/></clipPath><clipPath id="d"><path d="m185.75 75q2.42-1.8 4.94-3.45a.76.76 0 0 1 .57-.17.72.72 0 0 1 .37.34c3.37 5.07 6.37 10.49 10.37 15.15 1.17 1.37 2.44 2.67 3.47 4.15.88 1.25 1.58 2.6 2.36 3.9a44.9 44.9 0 0 0 3.64 5.13 5.8 5.8 0 0 1 -1.63 8.61l-7.87 4.6a2.45 2.45 0 0 1 -.9.37 2.07 2.07 0 0 1 -1.06-.2 7.75 7.75 0 0 1 -3.49-2.81c-6.19-8.85-10.91-18.62-15.09-28.62a3.91 3.91 0 0 1 -.39-1.41c0-1.56 1.66-2.51 2.49-3.83z"/></clipPath><clipPath id="e"><path d="m174 93.6a47.66 47.66 0 0 1 .13-6.21c.26-4.07.53-8.19 1.86-12a17.65 17.65 0 0 1 4.01-6.72 2.56 2.56 0 0 1 4.31 1.69c.23 3.52-.37 7.17-.14 10.72.31 4.85 2.19 9.45 4 14a29.1 29.1 0 0 0 2.71 5.48 29.35 29.35 0 0 0 3.48 4l5.25 5.36a4.07 4.07 0 0 1 1.17 1.69 3.44 3.44 0 0 1 0 1.24 12.58 12.58 0 0 1 -5.67 9.15 2.87 2.87 0 0 1 -1.07.48 2.94 2.94 0 0 1 -1.59-.3 11.79 11.79 0 0 1 -4.87-3.8 100.22 100.22 0 0 1 -12-20.73"/></clipPath><clipPath id="f"><path d="m169.62 88.84c-1.75-.4-3.21 1.37-5 1.75-.51.11-1 .09-1.56.17-3 .45-12.7 5.66-14.8 7.25a45.32 45.32 0 0 1 -6.5 2.87c-.86.28-3.65 2.28-4.41 2.6-2.34 1-3.79 4.08-6.25 4.71-4.41 1.13-5.83 2-9.53 4.61-2 1.45-5.79 2.61-7.39 4.5-1.06 1.25-3.45 1.84-3.56 3.48s-3.93.79-3.55 6.42c.11 1.64 1.74 3 1.43 4.59a6 6 0 0 0 1.55 4.66c1.06 1.32 2.37 2.43 3.32 3.83.84 1.23 1.37 2.66 2.22 3.89a7.44 7.44 0 0 0 5.23 3.15c4.12.39 8.66-2.35 12.33-4.27s5.71-1.69 9.43-3.64c1.07-.56 7.18-3.78 8.22-4.41.64-.39 1.27-.8 1.93-1.16a31.89 31.89 0 0 1 3.39-1.48 17 17 0 0 0 6-3.42 26 26 0 0 1 4-2.59 14.26 14.26 0 0 1 4.56-1.61c3.11-.71 4.67-3 7.44-4.58 3.09-1.77 6.76-3.62 7.13-7.17a10.48 10.48 0 0 0 -.61-4.06 41.77 41.77 0 0 0 -4.36-9.54c-.58-.94-1.58-1.57-1.69-2.67a8.73 8.73 0 0 0 -.24-2.76c-.45-1-1.58-1.4-2.35-2.14s-1.32-2.09-2.34-2.76-2.93.03-4.04-.22z"/></clipPath><path d="m219.83 85.65a2.82 2.82 0 0 1 .51-1.51 2 2 0 0 1 2.59 0 5.48 5.48 0 0 1 1.46 2.43c1.12 3 6.73 15.23-.15 15-5.67-.21-4.85-12.21-4.41-15.92z" fill="#FCE38B"/><path d="m122.7 40.64c-.42 2-1.88 3.67-3.28 5.21-2.46 2.69-5.18 5.55-8.77 6.21-2.23.41-4.63-.06-6.72.83a34.55 34.55 0 0 0 -3.24 2 10.08 10.08 0 0 1 -8.87.2c-5.62-2.36-11.82-9.09-7.2-14.86a34.47 34.47 0 0 1 12.14-9.23c7.85-3.3 28.69-3.81 25.94 9.64z" fill="#FCE38B"/><path d="m167.42 160.72c-24.27 9.54-51.43 8.53-77.13 4.11a137.62 137.62 0 0 1 -24.06-6c-20.34-7.41-39.38-10.7-49.49-29.83a37.11 37.11 0 0 1 -4.24-11.53 41.38 41.38 0 0 1 .41-12.36c1.18-8.11 4.57-28.11 6.88-35.97 2.68-9.14 6.29-18.43 13.06-25.14s17.38-10.44 26.15-6.72c11.57 4.88 15.86 19.82 26.91 25.72 9.71 5.17 21.72 1.88 31.65-2.86 11.53-5.51 22.12-12.82 33.61-18.4s24.39-9.44 37-7.35 24.62 11.37 26.75 24c1.53 9.08-2.08 18.27-1.82 27.48.25 8.55 3.77 16.6 6.15 24.81s3.51 17.5-.72 24.94c-2.47 4.34-6.51 7.55-10.65 10.33-8.38 5.64-17.75 10-27.72 11.67" fill="#FCE38B"/><path d="m15.75 173.33a363.71 363.71 0 0 0 34 50.89c1.5 1.88 3.11 3.81 5.35 4.77 3 1.29 6.56.51 9.79-.29l41.52-10.31c17.26-4.29 34.54-8.58 51.4-14.19 14.87-4.95 29.4-10.91 44.54-15 4.87-1.32 9.91-2.48 14.53-4.4a6.08 6.08 0 0 0 2.47-9.5 298.23 298.23 0 0 0 -46.14-44.81 14.65 14.65 0 0 0 -15.31-5.29l-41.71 10.53c-32.71 8.27-65.55 16.56-96.82 29.06-2 .82-4.33 1.93-4.82 4-.36 1.58.45 3.14 1.2 4.54z" fill="#FCE38B"/><path d="m19.35 154.47-6.65 3.65.86 5.47 1.65 1.71" fill="#9e1c4c"/><path d="m216.53 160.66 4.22-2.32-.91-6.02-10.64-.68" fill="#9e1c4c"/><path d="m15.05 166.76a377.63 377.63 0 0 0 38 50c1.64 1.83 3.4 3.71 5.72 4.54 3.15 1.12 6.61.06 9.78-1l40.79-13.52c16.95-5.62 33.93-11.24 50.38-18.2 14.51-6.13 28.6-13.3 43.45-18.56 4.78-1.7 9.73-3.25 14.21-5.55a6.34 6.34 0 0 0 1.74-10 305.56 305.56 0 0 0 -49.63-42.89 14.56 14.56 0 0 0 -15.75-4.38l-41 13.76c-32.12 10.8-64.36 21.64-94.72 36.7-2 1-4.18 2.29-4.51 4.48-.26 1.67.65 3.23 1.54 4.62zm16-.81c1.17-3.46 6.81-2 9.41-1.08a19.18 19.18 0 0 1 5.54 3.42c7.77 6.41 13.55 14.9 18.31 23.77 1.21 2.26 2.4 4.68 2.29 7.24s-2 5.22-4.54 5.3-4.29-2-5.79-3.93l-18.71-23.91c-1.81-2.32-7.64-7.41-6.49-10.76z" fill="#003d32"/><path d="m14.23 161.51a378.8 378.8 0 0 0 38 50c1.65 1.83 3.4 3.71 5.72 4.53 3.15 1.12 6.62.07 9.79-1l40.78-13.52c17-5.62 33.93-11.25 50.39-18.2 14.51-6.14 28.6-13.3 43.45-18.57 4.78-1.69 9.72-3.24 14.21-5.54a6.35 6.35 0 0 0 1.74-10 306.6 306.6 0 0 0 -49.64-42.9 14.56 14.56 0 0 0 -15.79-4.31l-41 13.76c-32.12 10.79-64.36 21.64-94.72 36.7-2 1-4.19 2.29-4.52 4.47-.2 1.64.71 3.2 1.59 4.58zm16-.81c1.17-3.45 6.8-2 9.41-1.07a19.32 19.32 0 0 1 5.48 3.42c7.76 6.41 13.55 14.9 18.31 23.77 1.21 2.26 2.39 4.68 2.28 7.23s-2 5.23-4.53 5.31-4.3-2-5.79-3.94q-9.35-11.94-18.67-23.9c-1.78-2.32-7.62-7.42-6.46-10.82z" fill="#ffc466"/><path d="m14.23 161.51a378.8 378.8 0 0 0 38 50c1.65 1.83 3.4 3.71 5.72 4.53 3.15 1.12 6.62.07 9.79-1l40.78-13.52c17-5.62 33.93-11.25 50.39-18.2 14.51-6.14 28.6-13.3 43.45-18.57 4.78-1.69 9.72-3.24 14.21-5.54a6.35 6.35 0 0 0 1.74-10 306.6 306.6 0 0 0 -49.64-42.9 14.56 14.56 0 0 0 -15.79-4.31l-41 13.76c-32.12 10.79-64.36 21.64-94.72 36.7-2 1-4.19 2.29-4.52 4.47-.2 1.64.71 3.2 1.59 4.58zm16-.81c1.17-3.45 6.8-2 9.41-1.07a19.32 19.32 0 0 1 5.48 3.42c7.76 6.41 13.55 14.9 18.31 23.77 1.21 2.26 2.39 4.68 2.28 7.23s-2 5.23-4.53 5.31-4.3-2-5.79-3.94q-9.35-11.94-18.67-23.9c-1.78-2.32-7.62-7.42-6.46-10.82z" fill="#89cfbb"/><path d="m145 111.69c-17.14 1.61-31.7 13-48.14 18.1a103.18 103.18 0 0 1 -20.35 3.81c-3.84.4-7.76.71-11.34 2.15s-6.86 4.25-7.78 8a5.72 5.72 0 0 0 .95 5.17 7.52 7.52 0 0 0 2.49 1.65 40.65 40.65 0 0 0 8 2.77c3.36.78 6.88 1.15 9.92 2.78 5.3 2.85 8 8.8 11.18 13.89a7.73 7.73 0 0 0 2.19 2.49 8.07 8.07 0 0 0 3.43.95 144.82 144.82 0 0 0 20.82.88 31.35 31.35 0 0 0 8.63-1.13c5.59-1.75 9.93-6.1 13.86-10.45a27.51 27.51 0 0 1 6.09-5.57 26.2 26.2 0 0 1 5.16-2.13c6.4-2.14 13-4.46 18-8.91s8.38-11.58 6.44-18c-1.5-5-5.87-8.74-10.68-10.77s-10.09-2.59-15.29-3.12" fill="#639384"/><path d="m128.1 30.09c.77-5.31 5.66-9.9 11-9.76 3.83.09 7.25 2.32 10.26 4.69 2.16 1.7 4.23 3.52 6.27 5.35a12.19 12.19 0 0 1 2.88 3.33 7.81 7.81 0 0 1 .72 4.29c-.55 6-6.08 10.35-11.79 12.15a7.86 7.86 0 0 1 -3.86.45 9.19 9.19 0 0 1 -3.45-1.82l-3.71-2.7c-.83-.6-1.76-1.61-1.25-2.49.63-1.07.78-2.66 1.83-2 2.1 1.28 4.9 5.08 7.31 5.53 1.06.2 3.3-.6 4.34-.92a5.91 5.91 0 0 0 2.37-1.63 24.64 24.64 0 0 0 4.63-6.46 4.09 4.09 0 0 0 .55-1.91c0-1.21-1-2.15-2-2.92a103.38 103.38 0 0 0 -8.84-6.63 13.59 13.59 0 0 0 -4.36-2.22 8.09 8.09 0 0 0 -9 5.35 9.75 9.75 0 0 0 3.22 10.31 16.34 16.34 0 0 1 2.15 1.81 2.75 2.75 0 0 1 .72 2.59 1.55 1.55 0 0 1 -2.24.88c-3.46-5.12-8.8-8.02-7.75-15.27z" fill="#0c4f60"/><path d="m136 42.09a4.42 4.42 0 0 0 -2.13 1.63c-4.61 5.28-45.87 53.44-50.08 59.05-.14.19-.29.39-.46.59l2.43 1.78c8-9.31 41.47-48.51 44-51.69 1.52-1.88 8.13-7.83 8.17-10.1.07-.91-1.07-1.48-1.93-1.26z" fill="#0c4f60"/><path d="m119.79 70.32a87.94 87.94 0 0 1 -11.64-14.38 3.48 3.48 0 0 1 -.72-1.76 3.56 3.56 0 0 1 .29-1.28l3-8.12a8.9 8.9 0 0 1 1.67-3.18c1.38-1.49 3.54-1.87 5.55-2.18a1.31 1.31 0 0 1 .94.09 1.34 1.34 0 0 1 .45.7l3.91 10.54a11.56 11.56 0 0 0 1.45 3c1.61 2.14 4.56 3 6 5.25-.13.13.05 0 .2.11q5.2 4.22 10.71 8.06c1.16.82 1.42 2.59 2.19 3.79a.88.88 0 0 1 .18.45c0 .3-.32.49-.58.63-4.47 2.37-7 7.46-11.38 9.93a1.53 1.53 0 0 1 -.85.27 1.59 1.59 0 0 1 -.8-.35 46.59 46.59 0 0 1 -9.62-8.65" fill="#037c3c"/><g clip-path="url(#a)"><path d="m119 38.35a26.9 26.9 0 0 0 -1.7 5.33 7.59 7.59 0 0 0 -.16 3.07 8.89 8.89 0 0 0 .86 2.13l3.37 6.62a13.31 13.31 0 0 0 3.26 4.64c1.43 1.13 3.32 1.69 4.43 3.13.36.46.62 1 1 1.43a7 7 0 0 0 2 1.36 38.27 38.27 0 0 1 11.39 9.28 37 37 0 0 1 6-5.51c-2.18-3.57-5.45-6.32-8.3-9.39a121.19 121.19 0 0 1 -9.28-12.1q-5.7-8-11.93-15.47" fill="#67ad39"/><path d="m133.36 73.34c2.75 1.9 5.56 3.72 8.37 5.53l-4.82 3a4.19 4.19 0 0 1 -1.86.78 4 4 0 0 1 -2.75-1.37c-1.57-1.43-3-3-4.51-4.51-5.87-6.14-12.34-12.19-17.48-19-.68-.89-1.35-2-.17-3s2 .42 2.9 1.31q4.42 4.53 9.25 8.64 5.33 4.61 11.07 8.62z" fill="#036d33"/></g><path d="m99.7 48.45c.25-2.11 1-4.46 2.6-5.68a1.1 1.1 0 0 1 1.65.42c7.69 16.21 23.94 26.81 34.23 41.53a1.66 1.66 0 0 1 -.16 2.09c-1.15 1.19-4.68 1.65-4.68 1.65a45.18 45.18 0 0 1 -6.09-2.11l-14-7.09c-5.88-3-9.49-5.73-11.27-12.12-1.67-6.05-2.98-12.35-2.28-18.69z" fill="#a02b71"/><g clip-path="url(#b)"><path d="m105.63 50.21c.73.92 1.55 1.78 2.21 2.75 1 1.49 1.62 3.2 2.55 4.74a26.43 26.43 0 0 0 4.44 5.16c3.44 3.36 6.93 6.76 10.83 9.15a.83.83 0 0 0 .61.18c.35-.12.21-.73 0-1.17a39 39 0 0 0 -4-6.37q-6-8.3-12.13-16.57c-1.32-1.79-4.26-6.88-6.3-5.3s.22 5.47 1.79 7.43z" fill="#cc3a98"/><path d="m97.69 55.48a31.61 31.61 0 0 1 1.4-9.27c1 2.48 2.18 4.94 3.37 7.36.11.22.25.46.49.5a1 1 0 0 0 .58-.19c1-.49 2.16.2 3 .88 6.94 5.4 12.2 12.61 17.37 19.72a26 26 0 0 1 2.54 4 15.25 15.25 0 0 0 1.31 2.52c.58.78 1.37 1.38 2 2.12a25.74 25.74 0 0 1 2 3.21 12.41 12.41 0 0 0 4.09 4 4.25 4.25 0 0 1 1.31 1 1.21 1.21 0 0 1 0 1.52 1.53 1.53 0 0 1 -.67.34c-2.83.82-5.8-.44-8.47-1.7-9.4-4.49-19.01-9.71-24.83-18.41-3.93-5.92-5.72-13-6.87-20" fill="#842562"/></g><path d="m101.82 62.52c-1.76.27-2.47 2.46-3.95 3.46-.43.29-.93.48-1.38.74-2.65 1.54-9.7 10-11 12.23a46.64 46.64 0 0 1 -5 5.07c-.69.58-2.54 3.47-3.13 4.06-1.8 1.79-2 5.19-4.06 6.69-3.68 2.68-4.68 4-7.14 7.82-1.34 2.09-4.4 4.57-5.19 6.91-.52 1.56-2.52 3-2 4.56s-3.36 2.19-.92 7.27c.71 1.49 2.72 2.12 3 3.73a6 6 0 0 0 3.17 3.75c1.47.84 3.1 1.38 4.5 2.33 1.24.84 2.26 2 3.51 2.79a7.38 7.38 0 0 0 6 1c4-1.17 7.18-5.39 9.87-8.54s4.68-3.68 7.4-6.87c.79-.93 5.27-6.18 6-7.15.45-.6.89-1.22 1.37-1.79a32.14 32.14 0 0 1 2.59-2.63 17.1 17.1 0 0 0 4.27-5.39 25.15 25.15 0 0 1 2.73-3.88 14.46 14.46 0 0 1 3.64-3.19c2.62-1.81 3.23-4.51 5.21-7 2.21-2.8 4.93-5.87 4-9.3a10.26 10.26 0 0 0 -2.07-3.55 41.91 41.91 0 0 0 -7.58-7.24c-.89-.66-2.06-.87-2.57-1.85-.43-.83-.56-1.84-1.24-2.48s-2-.71-3-1.11-2-1.46-3.19-1.7-2.66 1.08-3.84 1.26z" fill="#824646"/><path d="m65.61 121.71c.9.73 1.67 1.61 2.62 2.28a20.43 20.43 0 0 0 2.24 1.26 24.37 24.37 0 0 1 4.46 3.1 7.91 7.91 0 0 1 1.93 2.27 3.44 3.44 0 0 1 .2 2.9 19.62 19.62 0 0 1 -6.74-3.93 10 10 0 0 0 -3.56-2.52c-.77-.22-1.58-.21-2.35-.43a2 2 0 0 1 -1.59-1.59c.9 0 1.81.08 2.71.18-.26-.9-1.33-1.21-2.22-1.52-1.09-.38-5.72-2.63-3.86-4.11 1.48-1.18 5.04 1.19 6.16 2.11z" fill="#5e3434"/><g clip-path="url(#c)"><path d="m112 91.12a2.44 2.44 0 0 1 .12 1c-.17.77-1.15.94-1.87 1.26-1.67.75-2.26 2.86-2.15 4.68a23.88 23.88 0 0 1 -.35 4.29c-.1 1.11-1 2.43-2 2a2.11 2.11 0 0 1 -.8-.87c-.7-1.16-.23-1.63-1.24-2.28s-.84.86-.8 1.45.3 1.17.36 1.76c.15 1.51-.91 2.83-1.91 4a1.46 1.46 0 0 1 -1 .65 3 3 0 0 1 -.9-.31 1.89 1.89 0 0 0 -1.91.63 6.46 6.46 0 0 0 -1 1.84 26 26 0 0 1 -5 7.34l-1.26-2.74c-.78 1-.62 2.39-.54 3.64s0 2.74-1.1 3.41a6.38 6.38 0 0 1 -1.28.49 10.47 10.47 0 0 0 -3.6 2.61c-1.9 1.84-1.64 5.74-2.91 6.85s-2 2.6-1.81 2.79c.44.56 2.7-1.88 3.36-2.15a66.43 66.43 0 0 0 30.29-24.86c1.89-2.86 3.55-5.87 5.43-8.75a73.3 73.3 0 0 0 4.31-6.88c.88-1.75 1.66-3.75 3.39-4.69.58-.32 1.33-.57 1.53-1.21a2.09 2.09 0 0 0 -.06-1c-1-4.32-2.21-8.87-5.32-12-.48-.48-1.41-.86-1.7-.25a1 1 0 0 0 .09.85c.63 1.49 1.68 2.84 2 4.44s-.66 3.61-2.28 3.61a5.87 5.87 0 0 0 -1.18 0c-1.89.41-.76 3.76-2.58 4.19-.66-1.11-1-2.3-2.3-2.77-.46-.17-1.93-.51-2.18.18s1.24 2 1 3.1c-.43 1.19-1.21 2.12-.85 3.7z" fill="#5e3434"/></g><path d="m58.92 139.14c3.89-1.28 7.56-7.54 10-10.62l.92-1.08-2.43-1.78c-2.69 3.44-8.5 9.47-8.49 13.48z" fill="#0c4f60"/><g fill="#5e3434"><path d="m113.13 82.2c.24.19.62.36.82.14s.07-.48-.06-.69a7.57 7.57 0 0 0 -1.22-1.49 67.11 67.11 0 0 0 -5.48-5.32c-.86-.71-2.6-2.44-2.37-.33a4.6 4.6 0 0 0 2.57 3.49 12.12 12.12 0 0 1 3.18 1.73c.89.78 1.64 1.72 2.56 2.47z"/><path d="m81.22 116a16.28 16.28 0 0 0 1.37 1.71 8.38 8.38 0 0 0 2.51 1.53 1.46 1.46 0 0 0 -.39-1.3 44.11 44.11 0 0 0 -3.6-4.14c-.51-.54-3.25-3.48-3.55-2.11s3.02 3.47 3.66 4.31z"/><path d="m81.83 124c.18.33.48.7.84.6s.4-.54.28-.85a7.64 7.64 0 0 0 -.53-.86c-.32-.64-.16-1.42-.39-2.1-.29-.89-1.63-1.8-1.84-.41-.14.9 1.21 2.79 1.64 3.62z"/><path d="m90.39 96a1 1 0 0 1 .33.4 2.12 2.12 0 0 1 0 .62 2 2 0 0 0 .7 1.19 13 13 0 0 0 2.32 2.07c.68.44 1.44.74 2.08 1.24a6.48 6.48 0 0 1 1.59 2 3.24 3.24 0 0 0 .72 1 1 1 0 0 0 1.16.13c-.84-2.74-3.14-4.72-4.91-7a21.92 21.92 0 0 0 -1.83-2.25c-1.26-1.23-2.92-2-4.29-3.06-1.19-1-2.17-2.15-3.4-3a.76.76 0 0 0 -.69-.2c-1.2.47 1.69 3.12 2 3.45 1.4 1.2 2.83 2.23 4.22 3.41z"/><path d="m98.92 72.77a.37.37 0 0 0 .17-.24.51.51 0 0 0 -.2-.36 7.11 7.11 0 0 1 -1-1.27 2.55 2.55 0 0 0 -.71-.91c-1-.68-2.22.27-1.06 1.09a7.52 7.52 0 0 1 1.35 1.11c.35.37.9.94 1.45.58z"/></g><path d="m68.75 121.48c.63-.45-2.62-3.89-4.32-5.61a1 1 0 0 1 -.37-.69 1.37 1.37 0 0 1 .24-.57c.54-1 .28-2.14.2-3.23a1.3 1.3 0 0 1 .08-.68c.27-.52 1-.45 1.59-.24s1.19.5 1.68.18a1.3 1.3 0 0 0 .34-1.53 13 13 0 0 1 -.63-1.56c-.22-1 .24-2.37-.62-3s-5.91 8.56-6.28 9.77c-.55 1.75.6 2.1 2 2.75 2.21 1.11 5.46 4.87 6.09 4.41z" fill="#ceaa94"/><path d="m85.55 85.46a5.23 5.23 0 0 0 1.38 1.59c1.1 1 2.32 2 3.79 2l-1.94-3.45c-.34-.62-.68-1.42-.27-2 .23-.32.63-.47.91-.74.9-.88.21-2.49.76-3.63.46-1 1.66-1.3 2.29-2.15s.77-2 1.69-2.17 1.92.91 2.81.53a5.6 5.6 0 0 0 -1.22-2 2.37 2.37 0 0 0 -2.17-.69 3.3 3.3 0 0 0 -1.76 1.56c-1.13 1.74-2 3.81-3.88 4.77a6 6 0 0 0 -1.27.7c-.53.48-.74 2.08-1 2.8a3.82 3.82 0 0 0 -.12 2.88z" fill="#ceaa94"/><path d="m102.83 68.81c.43.65.88 1.39 1.63 1.61a.41.41 0 0 0 .27 0c.16-.07.2-.29.2-.47a19 19 0 0 0 -.51-3c-.11-.7.2-2.08-.35-2.54-1.11-.93-3.13 1-3.89 1.66-.37.34-1.77 1.45-1.16 1.92.39.3 1.66-.57 2.17-.51a2.59 2.59 0 0 1 1.64 1.33z" fill="#ceaa94"/><path d="m72.77 98.15a.37.37 0 0 0 0 .39c.07.1.22.1.34.08.91-.12 1.74-.77 2.66-.66a4.61 4.61 0 0 1 1.65.77 1.86 1.86 0 0 0 1.75.25 1.47 1.47 0 0 0 .57-1.68 3.89 3.89 0 0 0 -1.08-1.56 2.63 2.63 0 0 1 -.66-.74c-.39-.84.15-1.91-.31-2.71a.25.25 0 0 0 -.16-.16.31.31 0 0 0 -.21 0 1.55 1.55 0 0 0 -.7 1.31 2.47 2.47 0 0 1 -.46 1.47c-.51.54-1.37.72-2 1.21a5.85 5.85 0 0 0 -1.39 2.03z" fill="#ceaa94"/><path d="m213.71 80.8a4.42 4.42 0 0 0 -2.58.72c-6.23 3.24-62.39 32.62-68.39 36.27l-.64.37 1.59 2.55c10.87-5.68 56.5-29.65 60.08-31.66 2.1-1.18 10.45-4.25 11.33-6.34.35-.84-.49-1.79-1.39-1.91z" fill="#0c4f60"/><path d="m185.75 75q2.42-1.8 4.94-3.45a.76.76 0 0 1 .57-.17.72.72 0 0 1 .37.34c3.37 5.07 6.37 10.49 10.37 15.15 1.17 1.37 2.44 2.67 3.47 4.15.88 1.25 1.58 2.6 2.36 3.9a44.9 44.9 0 0 0 3.64 5.13 5.8 5.8 0 0 1 -1.63 8.61l-7.87 4.6a2.45 2.45 0 0 1 -.9.37 2.07 2.07 0 0 1 -1.06-.2 7.75 7.75 0 0 1 -3.49-2.81c-6.19-8.85-10.91-18.62-15.09-28.62a3.91 3.91 0 0 1 -.39-1.41c0-1.56 1.66-2.51 2.49-3.83z" fill="#ffce06"/><path d="m198.73 96.28c.43.9.86 1.8 1.33 2.68.38 0 .37-.59.25-.95l-2.77-8 6.15 11.31c.18.34.57.73.88.5q-4.5-10.29-9.32-20.44c-.82 1.32.85 3 .49 4.5l-3.37-6.23a7.48 7.48 0 0 0 -1.28-1.87c-.57 3 1.81 6.34 3 8.89z" fill="#fee578"/><g clip-path="url(#d)"><path d="m178.13 92.79a21.7 21.7 0 0 1 .51-13.63 8.74 8.74 0 0 1 1.36-2.59 4.07 4.07 0 0 1 2.48-1.5c1.73-.26 2.7.92 3.27 2.36.7 1.77 1.26 3.58 1.81 5.4 1.08 3.61 2.14 7.29 4.15 10.51l-3.06-11.63a2.79 2.79 0 0 1 0-2.2 93 93 0 0 0 5 14.62c-.58-2.83-3.17-8.47-2.28-8.36s4.23 10.08 6.35 15.12a13.46 13.46 0 0 1 1.08 3.38c.11.86.06 1.74.22 2.59.47 2.64 2.77 4.58 3.64 7.11a1.05 1.05 0 0 1 .08.52 1 1 0 0 1 -.32.49 22 22 0 0 1 -2.53 1.51 17.53 17.53 0 0 0 -1.75 1.7 3.05 3.05 0 0 1 -2.16 1 3.4 3.4 0 0 1 -2.2-1.33c-2.75-3-4.06-7.11-5.13-11.08a47.47 47.47 0 0 1 -2-13.57" fill="#edc107"/></g><path d="m196.5 99.63c.55 1.5 1.12 3 1.71 4.48 0 .09.08.18.17.19s.18-.12.21-.22a4.55 4.55 0 0 0 -.24-2.33c-.34-1.18-.68-2.35-1-3.53l-.54-1.76c-.12-.41-.23-1.38-.55-1.68-.9-.84-.65 1.44-.59 1.86a17.06 17.06 0 0 0 .83 2.99z" fill="#fee578"/><path d="m203.28 93.46a47.86 47.86 0 0 0 4.22 7.48c.26-.32.05-.78-.12-1.15s-.24-.93.14-1.1a52 52 0 0 0 -4.33-7.84c-.26-.39-.58-.82-1.05-.88a5 5 0 0 0 .58 2.56" fill="#fee578"/><path d="m174 93.6a47.66 47.66 0 0 1 .13-6.21c.26-4.07.53-8.19 1.86-12a17.76 17.76 0 0 1 3.94-6.57 2.57 2.57 0 0 1 4.42 1.58c.23 3.51-.37 7.16-.14 10.71.31 4.85 2.19 9.45 4 14a29.1 29.1 0 0 0 2.71 5.48 29.35 29.35 0 0 0 3.48 4l5.25 5.36a4.07 4.07 0 0 1 1.17 1.69 3.44 3.44 0 0 1 0 1.24 12.58 12.58 0 0 1 -5.67 9.15 2.87 2.87 0 0 1 -1.07.48 2.94 2.94 0 0 1 -1.59-.3 11.79 11.79 0 0 1 -4.87-3.8 100.22 100.22 0 0 1 -12-20.73" fill="#EE1C25"/><g clip-path="url(#e)"><path d="m173.65 76.58 2.1 12a2.39 2.39 0 0 0 .68 1.57 3.37 3.37 0 0 0 1 .46c1.93.7 3.1 2.62 4.06 4.44 4 7.46 7 15.49 12.33 22.08 2.12 2.64 4.69 5.25 5.1 8.62a7.59 7.59 0 0 1 -2.65 6.61 5.86 5.86 0 0 1 -4.18 1.42c-2.54-.24-4.42-2.41-5.93-4.47a104.74 104.74 0 0 1 -16.89-35.53c-1.53-5.89-2.5-12.34 0-17.9" fill="#ce1d43"/></g><path d="m210.85 66.73c2.69-4.65 8.93-7.09 13.87-5 3.52 1.51 5.87 4.84 7.79 8.16 1.37 2.38 2.61 4.83 3.83 7.3a12.05 12.05 0 0 1 1.44 4.16 7.81 7.81 0 0 1 -.92 4.25c-2.72 5.4-9.49 7.4-15.46 6.94a7.94 7.94 0 0 1 -3.75-1 9.1 9.1 0 0 1 -2.53-3l-2.45-3.88c-.54-.87-1-2.15-.22-2.78 1-.76 1.7-2.18 2.44-1.2 1.48 2 2.67 6.53 4.74 7.84.91.58 3.29.67 4.37.76a5.89 5.89 0 0 0 2.8-.64 24.43 24.43 0 0 0 6.7-4.28 4.18 4.18 0 0 0 1.22-1.56c.41-1.15-.16-2.38-.74-3.45a103.43 103.43 0 0 0 -5.76-9.44 13.32 13.32 0 0 0 -3.3-3.67 8.08 8.08 0 0 0 -10.35 1.63 9.75 9.75 0 0 0 -.83 10.77 17.32 17.32 0 0 1 1.33 2.47 2.78 2.78 0 0 1 -.3 2.67 1.54 1.54 0 0 1 -2.4 0c-1.3-6.03-5.18-10.71-1.52-17.05z" fill="#0c4f60"/><path d="m169.62 88.84c-1.75-.4-3.21 1.37-5 1.75-.51.11-1 .09-1.56.17-3 .45-12.7 5.66-14.8 7.25a45.32 45.32 0 0 1 -6.5 2.87c-.86.28-3.65 2.28-4.41 2.6-2.34 1-3.79 4.08-6.25 4.71-4.41 1.13-5.83 2-9.53 4.61-2 1.45-5.79 2.61-7.39 4.5-1.06 1.25-3.45 1.84-3.56 3.48s-3.93.79-3.55 6.42c.11 1.64 1.74 3 1.43 4.59a6 6 0 0 0 1.55 4.66c1.06 1.32 2.37 2.43 3.32 3.83.84 1.23 1.37 2.66 2.22 3.89a7.44 7.44 0 0 0 5.23 3.15c4.12.39 8.66-2.35 12.33-4.27s5.71-1.69 9.43-3.64c1.07-.56 7.18-3.78 8.22-4.41.64-.39 1.27-.8 1.93-1.16a31.89 31.89 0 0 1 3.39-1.48 17 17 0 0 0 6-3.42 26 26 0 0 1 4-2.59 14.26 14.26 0 0 1 4.56-1.61c3.11-.71 4.67-3 7.44-4.58 3.09-1.77 6.76-3.62 7.13-7.17a10.48 10.48 0 0 0 -.61-4.06 41.77 41.77 0 0 0 -4.36-9.54c-.58-.94-1.58-1.57-1.69-2.67a8.73 8.73 0 0 0 -.24-2.76c-.45-1-1.58-1.4-2.35-2.14s-1.32-2.09-2.34-2.76-2.93.03-4.04-.22z" fill="#935650"/><path d="m114 130.37c.56 1 1 2.11 1.59 3.09a23.35 23.35 0 0 0 1.6 2 24.05 24.05 0 0 1 3 4.53 8 8 0 0 1 1 2.83 3.41 3.41 0 0 1 -.9 2.76 19.85 19.85 0 0 1 -4.8-6.15 10 10 0 0 0 -2.36-3.66c-.63-.49-1.4-.78-2-1.27a2 2 0 0 1 -.89-2.06q1.26.52 2.46 1.17c.09-.93-.79-1.62-1.5-2.24-.87-.76-4.34-4.56-2.06-5.24 1.76-.55 4.19 2.97 4.86 4.24z" fill="#683c3a"/><g clip-path="url(#f)"><path d="m168.47 119.18a2.29 2.29 0 0 1 -.24.94c-.44.65-1.42.44-2.21.47-1.82.07-3.15 1.82-3.73 3.55a23.38 23.38 0 0 1 -1.91 3.85c-.51 1-1.83 1.9-2.6 1.09a2 2 0 0 1 -.42-1.11c-.22-1.33.39-1.59-.31-2.57s-1.09.48-1.28 1-.15 1.19-.32 1.77c-.42 1.45-1.9 2.28-3.24 3a1.5 1.5 0 0 1 -1.2.22c-.29-.12-.47-.42-.72-.63a1.91 1.91 0 0 0 -2-.12 6.57 6.57 0 0 0 -1.66 1.32 25.51 25.51 0 0 1 -7.36 5l-.16-3c-1.08.63-1.46 2-1.84 3.18s-1.06 2.52-2.3 2.75a5.63 5.63 0 0 1 -1.36 0 10.52 10.52 0 0 0 -4.32 1.08c-2.45 1-3.64 4.73-5.24 5.28s-2.78 1.69-2.71 1.92c.2.69 3.21-.74 3.92-.75a66.43 66.43 0 0 0 37.35-11.84c2.81-2 5.47-4.14 8.28-6.11a72 72 0 0 0 6.56-4.79c1.47-1.3 2.93-2.87 4.88-3.1.67-.08 1.45 0 1.87-.56a1.9 1.9 0 0 0 .34-1c.64-4.39 1.24-9-.48-13.15-.26-.62-1-1.32-1.48-.86a1 1 0 0 0 -.23.82c0 1.62.51 3.26.18 4.85s-2 3.12-3.46 2.51a4.91 4.91 0 0 0 -1.08-.47c-1.9-.32-2.1 3.2-3.95 2.93-.19-1.28-.08-2.5-1.1-3.42-.37-.33-1.61-1.2-2.09-.64s.41 2.29-.23 3.24c-.84 1.17-1.92 1.74-2.15 3.35z" fill="#683c3a"/></g><path d="m100.69 144.2c4.09.25 9.82-4.2 13.27-6.13.2-.12.64-.35 1.25-.67l-1.59-2.55c-3.82 2.15-11.46 5.62-12.93 9.35z" fill="#0c4f60"/><path d="m172.82 111.31c.15.27.43.57.71.43s.24-.42.2-.66a8.55 8.55 0 0 0 -.58-1.84 67.94 67.94 0 0 0 -3.12-7c-.54-1-1.51-3.23-2.09-1.18a4.62 4.62 0 0 0 1.11 4.18 12 12 0 0 1 2.3 2.78c.54 1.1.89 2.25 1.47 3.29z" fill="#683c3a"/><path d="m130.65 130.84a14.86 14.86 0 0 0 .64 2.09 8.14 8.14 0 0 0 1.76 2.36 1.45 1.45 0 0 0 .12-1.35 44.31 44.31 0 0 0 -1.81-5.19c-.27-.68-1.72-4.43-2.52-3.27s1.52 4.36 1.81 5.36z" fill="#683c3a"/><path d="m128.25 138.49c.05.37.18.83.55.86s.58-.35.59-.68-.15-.66-.18-1c-.06-.71.38-1.37.42-2.09.05-.93-.85-2.28-1.56-1.07-.47.81.08 3.07.18 3.98z" fill="#683c3a"/><path d="m146.58 115.69a1.12 1.12 0 0 1 .15.5 2.34 2.34 0 0 1 -.2.58 2 2 0 0 0 .21 1.37 12.94 12.94 0 0 0 1.38 2.79 22.69 22.69 0 0 1 1.47 1.92 6.39 6.39 0 0 1 .75 2.42 3.17 3.17 0 0 0 .29 1.22 1 1 0 0 0 1 .55c.23-2.86-1.17-5.55-2-8.3a22.24 22.24 0 0 0 -.87-2.77c-.71-1.61-2-2.91-2.85-4.44-.75-1.32-1.21-2.8-2-4.08-.13-.21-.31-.43-.56-.43-1.29 0 .41 3.51.62 4 .81 1.57 1.79 3.08 2.61 4.67z" fill="#683c3a"/><path d="m163.12 97.28a.32.32 0 0 0 .24-.16.46.46 0 0 0 -.05-.41 7 7 0 0 1 -.45-1.55 2.56 2.56 0 0 0 -.32-1.1c-.71-1-2.16-.58-1.39.61a7.41 7.41 0 0 1 .84 1.54c.18.47.48 1.2 1.13 1.07z" fill="#683c3a"/><path d="m117 131.32c.75-.19-1-4.58-1.93-6.81a1 1 0 0 1 -.09-.78 1.42 1.42 0 0 1 .44-.44c.85-.69 1-1.88 1.38-2.93a1.23 1.23 0 0 1 .33-.6c.44-.38 1.13 0 1.56.37s.92.9 1.5.79a1.31 1.31 0 0 0 .88-1.29 13.64 13.64 0 0 1 0-1.69c.17-1 1.11-2.1.52-3s-8.66 5.76-9.46 6.75c-1.16 1.42-.22 2.16.82 3.28 1.69 1.85 3.32 6.55 4.05 6.35z" fill="#ceaa94"/><path d="m146 104.11a5.13 5.13 0 0 0 .68 2c.66 1.3 1.43 2.71 2.77 3.29l-.51-3.94c-.09-.71-.11-1.58.49-2a8.13 8.13 0 0 1 1.12-.36c1.17-.48 1.12-2.23 2-3.08s2-.6 2.93-1.15 1.44-1.54 2.38-1.39 1.43 1.56 2.41 1.53a5.77 5.77 0 0 0 -.38-2.33 2.39 2.39 0 0 0 -1.76-1.45 3.29 3.29 0 0 0 -2.22.8c-1.69 1.2-3.3 2.78-5.37 3a6.31 6.31 0 0 0 -1.44.18c-.67.24-1.45 1.65-2 2.23a3.71 3.71 0 0 0 -1.1 2.67z" fill="#ceaa94"/><path d="m168.21 95.06a3.46 3.46 0 0 0 .92 2.1.44.44 0 0 0 .24.11c.19 0 .3-.19.37-.36a20 20 0 0 0 .64-3c.15-.68 1-1.85.62-2.49-.69-1.26-3.27-.26-4.23.1-.48.18-2.19.7-1.8 1.36.25.42 1.76.09 2.21.33a2.58 2.58 0 0 1 1.03 1.85z" fill="#ceaa94"/><path d="m129.41 111.14c-.1.1-.2.23-.16.36a.38.38 0 0 0 .29.21c.89.22 1.9-.08 2.71.36a4.46 4.46 0 0 1 1.25 1.34 1.85 1.85 0 0 0 1.53.87 1.44 1.44 0 0 0 1.15-1.34 3.77 3.77 0 0 0 -.42-1.85 2.82 2.82 0 0 1 -.27-.94c-.05-.92.85-1.72.72-2.64a.31.31 0 0 0 -.09-.2.28.28 0 0 0 -.2 0c-.52 0-.9.5-1.15 1a2.48 2.48 0 0 1 -1 1.19 22.83 22.83 0 0 1 -2.27.4 6.07 6.07 0 0 0 -2.09 1.24z" fill="#ceaa94"/><path d="m102.46 143.76a11.92 11.92 0 0 1 6.6.42c1 .54-1.77 1.78-2.72 2.61a79.64 79.64 0 0 1 12.4-1.48c1.11-.05 3 .17 2.93 1.1s-3.8 1.37-5.69 2.06a6.89 6.89 0 0 1 5.26 3 1.37 1.37 0 0 1 .32 1c-.16.67-1 .79-1.73.77q-7.15-.24-14.27-1.05c1 .85 2.7 2.28 2.6 3.07s-3.49 0-5.18-.42c-3.06-.76-5.28-1.52-8.46-1.13-1.75.21-3.53-.33-3.47-2.51.12-3.78 8.47-6.62 11.41-7.44z" fill="#67ad39"/><path d="m85.85 141.63c-.4-.39-1.09-.77-1.46-.35s.15 1.33-.29 1.77a40.33 40.33 0 0 0 -9-6 2.48 2.48 0 0 0 -1.29-.35.88.88 0 0 0 -.86.85 1.29 1.29 0 0 0 .46.77l3.6 3.63a4.31 4.31 0 0 0 -3.42 1.93 1.31 1.31 0 0 0 -.25.8 1.5 1.5 0 0 0 .73 1 31.48 31.48 0 0 0 9.29 4.59c.76.23 1.64.54 1.88 1.3a3.61 3.61 0 0 0 .2.8 1.5 1.5 0 0 0 1.06.56 7.54 7.54 0 0 0 3.56.12c3.18-.92 1.51-3.39.46-5.25a28.24 28.24 0 0 0 -4.67-6.17z" fill="#67ad39"/><path d="m74.28 35.41a18.55 18.55 0 0 1 -2.28-.76 7.46 7.46 0 0 1 -3.26-2.3c-3.19-4.06 1.41-7.68 4.87-6.67 2.62.76 4.33 3.46 4.66 6.17a3.2 3.2 0 0 1 -3.99 3.56z" fill="#FCE38B"/></svg>
