<?xml version="1.0" encoding="UTF-8"?>
<!DOCTYPE svg PUBLIC "-//W3C//DTD SVG 1.1//EN" "http://www.w3.org/Graphics/SVG/1.1/DTD/svg11.dtd">
<!-- Creator: CorelDRAW 2018 (64-Bit Evaluation Version) -->
<svg xmlns="http://www.w3.org/2000/svg" xml:space="preserve" width="440.267mm" height="321.733mm" version="1.1" style="shape-rendering:geometricPrecision; text-rendering:geometricPrecision; image-rendering:optimizeQuality; fill-rule:evenodd; clip-rule:evenodd"
viewBox="0 0 44026.66 32173.34"
 xmlns:xlink="http://www.w3.org/1999/xlink">
 <defs>
  <style type="text/css">
   <![CDATA[
    .str0 {stroke:#3B9CFF;stroke-width:84.67;stroke-miterlimit:22.9256}
    .fil6 {fill:none}
    .fil11 {fill:#1546A3}
    .fil5 {fill:#3B9CFF;fill-rule:nonzero}
    .fil9 {fill:#3B9CFF;fill-opacity:0.188235}
    .fil0 {fill:#99E7FF;fill-opacity:0.188235}
    .fil3 {fill:#00C2FF;fill-opacity:0.231373}
    .fil2 {fill:#3B9CFF;fill-opacity:0.231373}
    .fil1 {fill:#99D2FF;fill-opacity:0.231373}
    .fil4 {fill:#E6E7E8;fill-opacity:0.231373}
    .fil8 {fill:#99E7FF;fill-opacity:0.431373}
    .fil10 {fill:white;fill-opacity:0.529412}
    .fil7 {fill:white;fill-opacity:0.768627}
   ]]>
  </style>
 </defs>
 <g id="Layer_x0020_1">
  <metadata id="CorelCorpID_0Corel-Layer"/>
  <g id="_2573979201264">
   <polygon class="fil0" points="-0,0 44026.66,0 44026.66,32173.34 -0,32173.34 "/>
   <path class="fil1" d="M18235.56 18310.44l17338.28 0 0 10891.99c0,683.94 -559.58,1243.52 -1243.52,1243.52l-14851.24 0c-683.94,0 -1243.52,-559.58 -1243.52,-1243.52l0 -10891.99z"/>
   <polygon class="fil2" points="26905.99,5255.2 35579.93,5255.2 35579.93,18307.98 26905.99,18307.98 "/>
   <polygon class="fil3" points="18245.28,5255.2 26919.22,5255.2 26919.22,18307.98 18245.28,18307.98 "/>
   <g>
    <path class="fil2" d="M21352.99 14130.23c755.32,-234.06 991.87,887.65 326.98,1070.44 -722.97,198.75 -1035.53,-850.87 -326.98,-1070.44zm2893.69 12.33c715.5,-247.41 988.92,843.12 363.66,1058.6 -704.58,242.82 -1112.52,-799.64 -363.66,-1058.6zm-1745.94 351.82c-892.38,0 315.43,-652.84 451.37,-716.81 177.75,72.21 292.61,168.35 451,270.2 457.57,294.21 340.31,161.59 321.82,387.32 -222.81,124.63 -934.15,59.28 -1224.19,59.29zm1396.1 -1399.47l-374.15 2.49 -577.07 387.92 -554.25 -384.6 -370.08 -6.03c290.57,272.5 590.31,352.09 696.03,556.77 -749.58,606.31 -689.08,430.45 -939.46,334.13 -1058.19,-407.09 -1410.02,1325.89 -344.61,1412.96 684.63,55.94 774.23,-557.1 854.55,-705.11l1341.38 -1.42c207.94,335 175.32,720.71 789.2,717.34 1086.22,-5.98 865.09,-1730.74 -195.62,-1443.01 -212.41,57.62 -271.64,359.82 -1002.98,-314.89 131.64,-273.96 496,-354.27 677.06,-556.55z"/>
    <path class="fil2" d="M22021.29 13094.69l370.08 6.03 1131.32 -3.32 374.15 -2.49c618.66,-129.89 805.22,-102.21 1272.68,-442.99 341.7,-249.11 553.67,-623.61 486.01,-1259.06l-2045.09 -3.19c-171.59,102.04 -62.13,-13.26 -155.74,173.37l1896.1 12.92c134.18,1248.96 -1304.31,1303.21 -2398.69,1302.61 -1097.74,-0.59 -2520.59,-55.44 -2393.97,-1290.79l2276.94 -26.21 -152.75 -172.16 -2436.79 -1.59c-134.76,1201.89 738.11,1536.66 1775.75,1706.87z"/>
    <path class="fil2" d="M23290.65 10618.3c196.11,-70.77 40.48,41.27 200.12,-155.22 54.25,-66.79 90.76,-136.07 135.95,-202.55 200.55,-294.97 783.19,-1075.44 858.41,-1315.26 -334.74,-175.11 -737.11,-376.91 -1234.33,-358.64 -31.41,314.22 -63.09,1831.02 39.85,2031.67z"/>
    <path class="fil2" d="M23515.86 10780.83c285.9,-8.74 1606.81,-626.27 1855.36,-800.24 -79.37,-317.58 -464.23,-769.68 -726.46,-867.06 -174.98,173.58 -1059.66,1431.98 -1128.9,1667.3z"/>
    <path class="fil2" d="M23675.13 11004.77l1993.24 3.91c-8.39,-349.58 -65.97,-561.41 -185.93,-846.54 -236.35,48.88 -1027.81,438.5 -1365.28,591.32 -187.09,84.73 -309.92,108.46 -442.03,251.31z"/>
    <path class="fil2" d="M21161.46 10958.77l-27 195.43 -926.05 19.13c-24.84,230.64 -30.06,99.31 37.13,214.49l2436.79 1.59c-38.48,-307.52 -181.34,-229.77 -518.96,-225.71 -239.15,2.88 -577.08,32.22 -745.69,-46.26l-82.87 -321.06c-44.64,-128.49 -11.43,-91.62 -93.73,-230.95 -102.84,-174.05 -66.48,-106.62 -207.02,-190.98 -39.87,-139.35 -219.08,-233.46 -396.78,-252.81 -64.61,-57.52 -6.57,-30.82 -108.44,-83.49 -355.24,-183.7 -383.63,-5.78 -401.08,185.27l383.18 89.3c195.06,66.26 278.38,141.78 395.63,209.27l254.89 436.78z"/>
    <path class="fil2" d="M23610.44 11389.67l2045.09 3.19c80.54,-124.75 72.96,18 39.61,-203.33 -292.98,-52.68 -1252.01,-24.26 -1674.55,-29.06 -343.28,-3.9 -360.2,-60.4 -410.15,229.2z"/>
    <path class="fil2" d="M22955.44 10882.48c-351.21,275.27 52.21,720.5 375.97,495.91 324.56,-225.15 3.09,-793.02 -375.97,-495.91z"/>
    <path class="fil2" d="M21382.32 14498.59c-160.62,254.9 -53.5,380.14 256.06,320.3 93.36,-197.9 32.02,-431.37 -256.06,-320.3z"/>
    <path class="fil2" d="M24259.92 14826.31c474.91,85.93 483.2,-405.62 -1.33,-316.8 -51.74,121.89 -50.13,194.56 1.33,316.8z"/>
   </g>
   <g>
    <path class="fil4" d="M19488.8 1727.39l14851.24 0c683.94,0 1243.52,559.58 1243.52,1243.52l0 2425.39 -17338.28 0 0 -2425.39c0,-683.94 559.58,-1243.52 1243.52,-1243.52z"/>
    <path class="fil5" d="M21093.3 3333.26l0 565.24 190.79 0c76.1,0 134.82,-26.16 176.16,-78.29 41.52,-52.13 62.19,-119.81 62.19,-203.05 0,-82.86 -20.85,-150.73 -62.74,-203.59 -40.24,-53.6 -98.78,-80.31 -175.61,-80.31l-190.79 0zm190.79 660.73l-292.86 0 0 -756.21 292.86 0c104.64,0 187.68,35.67 248.78,107.19 61.1,71.53 91.65,162.07 91.65,271.65 0,110.12 -30.37,200.48 -91.1,271.27 -60.91,70.8 -143.96,106.1 -249.33,106.1z"/>
    <path id="1" class="fil5" d="M21765.37 3338.75c-12.99,-12.62 -19.39,-27.98 -19.39,-46.09 0,-18.3 6.4,-33.48 19.39,-46.1 14.45,-12.44 30.73,-18.66 49.2,-18.66 18.48,0 34.76,6.04 48.66,18.11 14.09,12.26 21.04,27.8 21.04,46.65 0,18.84 -6.95,34.39 -21.04,46.64 -13.9,12.07 -30.18,18.11 -48.66,18.11 -18.47,0 -34.75,-6.22 -49.2,-18.66zm99.14 655.24l-99.87 0 0 -512.56 99.87 0 0 512.56z"/>
    <path id="2" class="fil5" d="M22066.1 3507.96c34.2,-25.06 75.55,-37.5 124.2,-37.5 48.48,0 88.72,12.44 120.37,37.32 31.83,24.87 49.94,60.36 54.14,106.46l-95.3 0c-2.93,-16.65 -11.71,-30 -26.34,-40.06 -16.1,-9.88 -33.84,-14.82 -53.6,-14.82 -19.57,0 -36.22,4.21 -49.75,12.62 -14.64,6.59 -23.78,18.11 -27.81,34.21 -3.84,16.1 -3.29,28.9 1.65,38.41 8.23,16.47 28.35,29.27 60.36,38.42l75.55 18.47c88.72,21.77 132.99,71.71 132.99,149.82 0,46.28 -19.21,83.6 -57.81,112.31 -38.96,27.63 -84.51,41.35 -136.64,41.35 -52.32,0 -97.68,-15 -136.28,-45.19 -38.6,-30 -58.17,-69.87 -58.9,-119.81l94.39 0c4.2,26.52 17.74,46.09 40.79,58.53 22.32,14.09 46.46,20.31 72.44,18.84 25.97,-1.46 46.09,-8.41 60.36,-20.85 14.27,-12.62 22.32,-27.8 24.15,-45.73 1.46,-17.93 -4.03,-32.2 -16.65,-42.99 -12.44,-10.79 -29.63,-18.66 -51.4,-23.59l-70.24 -16.29c-49.58,-13.35 -86.16,-32.92 -109.58,-59.08 -22.49,-27.07 -31.82,-60.91 -27.8,-101.71 3.84,-40.79 22.87,-73.72 56.71,-99.14z"/>
    <path id="3" class="fil5" d="M22753.71 3470.46c79.02,0 143.78,27.62 194.45,82.68l-76.1 63.29c-32.01,-32.19 -72.26,-48.29 -120.55,-48.29 -48.11,0 -89.08,15.55 -122.74,46.83 -33.84,30.73 -50.85,71.52 -50.85,122.56 0,50.85 17.19,92.19 51.4,124.02 34.39,32.01 75.36,47.93 123.29,47.93 48.29,0 88.17,-16.83 119.45,-50.49l77.19 63.66c-51.03,54.88 -115.6,82.32 -193.35,82.32 -77.92,0 -143.78,-24.7 -197.56,-74.09 -53.59,-50.12 -80.3,-114.51 -80.3,-193.35 0,-78.84 26.34,-143.05 78.84,-192.44 52.68,-49.39 118.17,-74.27 196.83,-74.63z"/>
    <path id="4" class="fil5" d="M23428.34 3862.1c32.01,-31.46 48.1,-72.8 48.1,-124.02 0,-51.4 -16.09,-92.38 -48.1,-123.11 -32.02,-30.91 -71.89,-46.46 -119.64,-46.83 -47.56,0 -87.62,15.37 -120,46.28 -32.74,31.1 -49.2,72.07 -49.2,123.11 0,50.85 16.09,92.19 48.11,124.02 32.01,32.01 72.07,47.93 120.18,47.93 48.29,0 88.53,-15.73 120.55,-47.38zm-120 142.87c-74.64,0 -137.93,-24.7 -190.25,-74.09 -52.31,-49.39 -78.47,-113.78 -78.47,-193.35 0,-79.57 25.79,-144.15 77.19,-193.54 51.41,-49.39 114.88,-73.9 190.61,-73.53 76.1,0 139.76,24.69 191.16,74.08 51.77,49.76 77.74,114.15 77.74,192.99 0,78.84 -25.97,143.05 -77.92,192.8 -51.96,49.76 -115.43,74.64 -190.06,74.64z"/>
    <polygon id="5" class="fil5" points="23857.66,3993.99 23644.92,3481.43 23749.92,3481.43 23905.77,3866.31 24060.71,3481.43 24167.36,3481.43 "/>
    <path id="6" class="fil5" d="M24751.99 3736.25c0,22.68 -0.37,35.67 -1.1,39.33l-415.97 0c4.94,41.34 23.23,75.55 54.69,102.8 30.37,25.06 64.39,37.68 102.26,37.68 74.08,0 125.85,-26.52 155.48,-79.57 0.73,0 1.83,0.18 3.3,0.92 1.28,0.73 3.84,2.01 7.5,3.84 4.2,1.83 9.87,4.02 17.01,6.4 7.13,2.56 12.62,4.76 16.09,6.59l41.89 15.54c-21.03,43.17 -52.86,76.47 -95.48,99.88 -42.44,23.6 -89.27,35.31 -140.31,35.31 -73.35,0 -135.91,-24.7 -188.04,-74.27 -49.58,-49.57 -74.27,-114.51 -74.27,-194.45 0,-80.12 24.69,-144.33 73.9,-192.8 49.39,-48.3 111.77,-72.63 187.5,-72.99 75.73,0 136.83,24.51 183.29,73.35 48.11,48.66 72.26,112.87 72.26,192.44zm-149.64 -140.12c-28.53,-24.51 -64.02,-36.77 -106.09,-36.77 -42.26,0 -78.48,12.26 -108.84,36.77 -30,26.16 -47.56,60.18 -52.5,101.52l317.74 0c-4.94,-41.34 -21.77,-75.36 -50.31,-101.52z"/>
    <path id="7" class="fil5" d="M24978.81 3807.59l0 186.4 -99.88 0 0 -512.56 99.88 0 0 115.61c25.06,-84.33 72.44,-126.58 142.5,-126.58 40.43,0 70.06,6.58 89.08,19.57l-15.54 93.66c-22.5,-11.89 -47.75,-17.74 -75.55,-17.74 -45.19,0 -79.76,21.58 -104.09,64.75 -24.33,43.35 -36.4,102.26 -36.4,176.89z"/>
    <ellipse class="fil6 str0" cx="19792.08" cy="3548.6" rx="295.45" ry="313.09"/>
    <path class="fil6 str0" d="M20007.13 3763.29c265.6,239.52 278.83,272.59 278.83,272.59"/>
   </g>
   <path class="fil7" d="M9625.81 6604.79l11324.16 0c640.3,0 1164.17,523.87 1164.17,1164.17l0 16086.67c0,640.3 -523.87,1164.17 -1164.17,1164.17l-11324.16 0c-640.3,0 -1164.17,-523.87 -1164.17,-1164.17l0 -16086.67c0,-640.3 523.87,-1164.17 1164.17,-1164.17z"/>
   <g>
    <path class="fil8" d="M13490.88 11316.77c101.68,163.25 175.82,103.59 407.72,190.89 989.78,372.59 841.53,2052.51 1598.67,3288.29 370.23,60.55 755.47,31.07 1137.7,32.71 466.44,2 659.07,113.03 965.44,128.06 12.94,0.64 1176.39,-126.79 2106.73,-95.03 -156.03,545.93 -737.53,944.15 -1419.01,1014.46 -314.96,-190.62 -290.74,-349.46 -579.52,-430.64 -34.75,251.25 295.74,867.83 500.6,1702.99 261.89,1067.63 225.87,949.72 -423.17,1495.08 11,496.1 408.65,898.88 240.46,1185.22 -459.29,-2.45 -200.91,-132.73 -684.03,-1024.81 -526.28,-49.08 -1355.63,16.72 -1932.52,13.71 -604.86,-3.17 -1264.47,-138.91 -1770.45,-108.8 -116.83,258.9 -218.75,481.41 -349.01,779.13 -333.65,762.62 -761.65,510.42 -353.22,-274.35 845.59,-1624.78 -715.11,154.05 54.63,-3790.85 183.47,-940.31 821.57,-342.28 729.87,-1025.61 -348.99,30.78 -328.02,169.37 -670.97,234.37 -379.03,71.84 -545.58,-57.68 -871.45,80.27 -486.34,205.88 -795.13,558.19 -1187.95,-119.28 -718.98,-1240.01 853.08,-1632.78 1104.93,-2155.5 250.99,-102.2 574.24,-284.8 718.24,-504.74 179.62,-274.36 73.67,-695.6 86.1,-1031.21 284.55,206.06 228.49,255.73 590.21,415.64zm-1472.67 912.36c-271.52,77.94 -1686.13,970.75 -1489.56,2031.43 74.31,400.96 407.89,926.12 819.53,1015.92 628.96,137.23 707.41,-397.7 1408.82,-272.15 -75.76,772.1 -418.14,1942.73 -289.15,2742.33 87.94,545.16 479.89,645.43 334.42,1072.42 -153.56,450.75 -508.6,678.04 -409.49,1231.78l824.73 266.52 637.93 -1303.67c1175.83,92.01 2082.21,100.98 3300.37,70.71l449.09 1111.44c395.87,7.66 565.13,-67.55 844.7,-248.32 4.47,-428.05 -233.38,-709.96 -325.66,-1134.86 306.23,-366.01 604.64,-417.3 520.12,-1128.83 -56.22,-473.41 -243.86,-908.12 -295.56,-1402.8 193.63,-127.63 25.03,-33.16 254.24,-123.52 1232.87,-486.03 1693.74,-1293.96 1355.31,-1561.76 -548.7,-188.9 -1537.29,-57.33 -2134.74,8.29 -231.5,25.42 -1766.01,-73.82 -2120.71,-102.97 -645.93,-1610.02 -812.22,-3308.54 -1980.94,-3317.07 -199.81,-268.33 -878.29,-788.49 -1183.6,-835.32 11.48,2311.07 -42.62,891.48 -519.85,1880.43z"/>
    <path class="fil8" d="M11050.19 19763.96c-30.53,334.96 20.73,350.88 286.49,508.4l1515.18 665.23c2332.95,755.76 6038.02,182.02 7029.31,-1093.68l-211.06 -304.41c-352.24,63.96 -1281.68,659.48 -1886.12,865.61 -1549.87,528.55 -3220.16,550.91 -4792.22,45.16 -1080.67,-347.68 -1546.09,-881.1 -1941.58,-686.31z"/>
    <path class="fil8" d="M13723.47 12900.14c-37.16,-272.43 -125.5,-287.51 -406.57,-286.29 -187.96,298.25 -143.35,424.38 87.21,661.25 228.3,-27.17 359.4,-81.35 319.36,-374.96z"/>
   </g>
   <g>
    <path class="fil9" d="M29491.16 24563.23c336.69,-85.03 443.34,-109.94 780.55,25.5l-28.61 3139.01c-296.48,94.48 -429.34,75.96 -771.36,18.33l19.42 -3182.84zm-907.88 21.02l654.16 30.78 -17 3109.89 -661.56 4.94 24.4 -3145.61zm-1014.27 -22.23l693.57 12.84c59.87,487.84 79,2737.06 -17.79,3172.61l-695.93 -14.83 20.15 -3170.62zm-1021.2 3205.31c-91.9,-466.74 -82.91,-2715.71 -9,-3211.68 340.3,-58.99 440.66,-84.78 788,36.05l-31.22 3135.3c-301.37,111.25 -430.87,80.57 -747.78,40.33zm-979.64 -3171.59c302.34,-122.45 425.17,-114.82 757.83,-15.77l-30.99 3159.6c-300.95,91.41 -422.53,97.82 -738.62,-11.33l11.78 -3132.5zm-952.45 -30.44l713.24 18.09 -35.2 3168.25 -705.03 -10.73 26.99 -3175.61zm-1001.96 3182.82c-100.49,-405.43 -84.04,-2724.91 -11.45,-3182.81 327.72,-74.47 439.52,-101.5 761.82,33.98l-21.2 3120.66c-293.81,105.23 -423.42,83.3 -729.17,28.17zm7111.36 1073.8c98.12,-561.74 42.76,-3537.75 34.98,-4484.13 -2.84,-345.91 -44.88,-372.18 100.15,-657.69 428.37,-843.15 -446.89,-1076.58 -761.43,-679.25 -324.37,409.71 104.46,547.29 115.63,1045.29l-6564.98 -2.73c3.35,-506.3 364.57,-523.29 146.59,-971.01 -133.55,-274.28 -520.84,-330.8 -758.3,-155.34 -381.42,281.81 -130.27,570.92 -32.69,784.77 158.87,348.2 74.06,2930.98 79.18,3433.54 16.96,1664.88 -188.51,1694.56 518.69,1691.64l42.59 -554.31 6559.43 12.64 70.21 544.51 449.95 -7.93z"/>
    <path class="fil9" d="M27571.04 20369.71l2774.11 16.79c39.67,596.33 -141.63,1898.49 85.3,2332.11 216.19,-81.54 122.34,4.81 179.77,-237.21l-28.89 -2358.19 -3253.37 26.89 -47.57 727.02c-910.47,75.04 -993.91,-169.54 -1089.67,203.76 225.77,109.81 1550.76,65.94 1997.85,64.13 344.41,-1.41 332.26,66.35 480.78,-141.76 -194.67,-232.2 -782.23,-109.67 -1113.3,-140.11l14.99 -493.43z"/>
    <path class="fil9" d="M27455.58 21430.89c-628.39,229.98 -717.91,1036.42 -263.37,1493.07 466.66,468.79 1279.46,359.45 1492.96,-259.03 -975.95,93.8 -1340.38,-246.99 -1229.59,-1234.04z"/>
    <path class="fil9" d="M26482.16 21476.49c-383.93,-32.68 -648.83,79.38 -820.82,348.19 -620.62,969.94 1900.88,1118.22 820.82,-348.19z"/>
    <path class="fil9" d="M28088.8 22477.68c558.03,-148.24 255.06,-115.6 788.56,-4.65 -8.69,-569.62 -62.43,-355.08 210.74,-693.56 -369.54,-311.76 52.36,228.9 -596.36,-460.32 -316.24,256.94 18.71,212.27 -595.62,382.7 12.64,22.54 24.97,90.49 32.63,108.21 28.24,65.35 13.08,25.13 49.13,96.58 157.44,312.09 109.74,163.1 110.92,571.04z"/>
   </g>
   <path class="fil10" d="M30819.88 13981.98l801.72 5.17c26.71,165.03 20.85,83.86 -49.47,244.32l-650.16 32.31 -102.09 -281.8zm-1865.72 -4316.62c-133.88,53.87 -201.52,107.74 -326.01,248.33l-216.86 194.51c47.38,242.86 461.26,934.38 577.27,1164.78 289.8,-29.18 417.33,-224.91 651.55,-215.03l23.43 2330.78c206.51,163.94 469.58,259.41 663.72,443.03 248.39,234.93 227.37,433.74 412.4,687.08 1519,180.95 882.66,-206.19 1430.35,-699.3 174.3,-156.93 592.64,-316.41 647.67,-499.5 85.75,-285.32 -6.89,-1798.4 40.44,-2272.19l597.62 238.9c146.92,-146.95 587.87,-983.78 618.9,-1169.38 -318.27,-344.47 -1373.07,-1086.57 -2051.91,-1112.6 -174.87,139.08 -415.92,454.69 -767.89,460.75 -394.04,6.78 -592.04,-326.02 -815.86,-466.49 -557.32,83.98 -1125.31,414.79 -1484.82,666.33zm-148.98 556.42c234.48,-268.61 1112.88,-801.63 1585.81,-842.43 248.04,161.84 382.01,383.29 817.36,396.71 426,13.14 645.33,-206.43 862.37,-389.25 503.34,11.57 1363.71,566.87 1591.87,826.63l-287.2 638.72c-457.61,-73.24 -863.14,-488.84 -852.29,367.8l-38.55 2005.5c-398.9,273.31 -467.76,242.58 -688.94,594.17 -1425.23,38.8 -1015.39,-40.65 -1429.66,-362.41 -129.55,-100.63 -233.77,-141.7 -372.94,-250.31l-29.81 -2227.79c-56.55,-513.61 -548.34,-185.51 -848.89,-120.32l-309.13 -637.02z"/>
   <g>
    <path class="fil11" d="M11038.58 5638.27c-63.06,-66.01 -20.24,-217.98 53.14,-184.88 58.7,26.48 30.82,172.6 -53.14,184.88zm-337.67 -133.5c-52.94,-37.22 -50.51,-444.23 48.39,-404.7 64.89,25.94 21.12,253.77 -2.39,328.03 -8.98,28.37 -20.26,69.52 -46,76.67zm374.02 181.66c13.44,-16.34 50.2,-33.71 88.08,-71.95 138.1,-139.39 8.97,-287.63 -63.5,-275.76 -73.91,12.11 -128.34,87.52 -154.76,155.1 -43.96,112.44 -18.02,186.59 -21.36,202.33 -2.51,11.84 0.8,6.48 -8.97,14 -4.8,3.69 -5.9,3.42 -12.27,5.64 -57.88,20.18 -106.61,-20.43 -136.5,-50.52 -76.8,-77.31 40.08,-94.65 79.13,-323.95 17.14,-100.68 41.83,-321.86 -69.9,-374.27 -154.65,-72.54 -252.68,277 -199.48,532.22 18.34,88.03 55.16,117.64 -12.01,170.31 -91.36,71.63 -223.41,17.28 -216.63,-98.02 2.71,-46.12 25.81,-74.09 14.81,-138.56 -6.43,-37.66 -29.14,-95.01 -80.18,-63 -69.31,43.46 -44.1,158.17 -81,229.46 -15.38,29.72 -46.67,75.93 -93.18,52.65 -45.64,-22.84 -79.17,-160.42 -96.59,-213.79 -26.64,-81.64 -51.46,-140.77 -124.55,-61.22 -60.78,66.17 -66.68,87.56 -114.24,144.25 -11.36,13.53 -12.45,16.93 -31.25,18.52 -38.79,-36.21 -30.32,-121.2 -57.43,-147.72 -70.09,3.75 -77.64,119.92 -95.27,186.42 -9.66,36.46 -21.13,73.06 -32.07,110.96 -49.3,170.79 40.1,110.58 110.18,53.17 16.77,-13.74 26,-28.56 43.43,-42.57 46.68,-37.52 70.5,-68.19 134.7,-118.17 146.47,-114.03 130.54,154.48 234.37,213.89 76.78,43.94 115.94,-116.95 173.25,-137.03 44.88,18.43 50.99,107.93 128.65,139.01 70.69,28.29 161.28,-20.17 203.78,-50.13 99.88,-70.41 66.9,-4.82 160.8,41.65 83.04,41.09 151.92,-17.71 207.46,-36.64 36.42,18.9 42.11,53.83 126.26,51.02 206.68,-6.92 260.35,-190.59 321.73,-201.79 52.01,47.69 44.45,268.67 213.87,182.51 135.96,-69.15 216.93,-350.27 189.89,-440.06 -9.28,-30.81 -35.8,-42.86 -70.18,-26.28 -23.01,11.1 -36.09,28.53 -47.34,56.07 -34.19,83.73 3.51,120.68 3.28,190.5 -0.13,38.95 -27.14,146.16 -77.02,139.51 -96.55,-37.49 -89.5,-291.7 -155.07,-357.41 -56.35,-26.92 -88.54,143.5 -146.61,243.61 -13.75,23.69 -26.48,37.58 -40.86,56.77 -38.96,52 -142.05,93.92 -195.45,39.27z"/>
    <path class="fil11" d="M9233.38 1417.96c11.6,27.35 52.28,30.79 79.78,37.33 31.36,7.46 65.64,12.83 81.7,31.52 -19.83,62.21 -160.71,73.3 -165.86,149.71 64.67,19.51 198.49,1.58 233.73,29.28 -7.63,70.29 -222.83,219.75 -202.15,295.34 50.69,19.61 120.6,-31.55 157.46,-50.04 21.67,-10.86 42.84,-24.23 66.7,-36.63 12.78,-6.64 23.82,-12.37 35.04,-17.08 110.08,-46.18 -0.55,151.99 56.19,185.04 23.71,13.82 56.59,-10.26 70.16,-24.08 24.27,-24.7 30.73,-45.79 71.88,-42.5 15.37,49.34 19.99,188.88 48.85,214.25 45.68,16.15 58.47,-62.59 69.29,-102.29 11.08,-40.69 19.61,-108.39 44.76,-133.03 50.73,0.2 41.26,67.48 100.85,65.47 7.01,-17.1 12.88,-37.8 17.63,-61.39 6.38,-31.73 6.05,-38.61 22.19,-57.52 70.27,2.79 183.87,174.22 240.73,136.21 43.27,-59.52 -93.31,-215.92 -77.96,-290.56 88.32,-13.25 213.77,90.26 297.33,50.7 16.51,-68.16 -100.61,-152.77 -159.77,-220.23 -66.09,-75.35 -37.99,-81.02 90.95,-130.42 29.24,-11.2 50.65,-12.9 51.32,-46.74 -85.77,-20.2 -278.05,16.05 -317.52,69.35 -0.68,64.98 157.86,140.77 140.84,213.4 -62.81,15.72 -148.78,-59.76 -203.32,-42.78 -52.09,46.75 55.35,173.2 52.02,236.37 -44.57,-4.35 -128.7,-131.01 -171.28,-114.08 -17.45,36.2 4.36,90.35 -17.02,125.01 -54.18,-6.3 -34.98,-80.12 -86.71,-83.47 -19.47,17.98 -24.2,49.49 -30.44,77.98 -6.39,29.17 -11.89,65.25 -32.73,74.1 -38.94,-27.31 -4.38,-117.03 -34.51,-169.59 -64.61,8.34 -65.82,110.95 -117.79,110.65 -20.34,-31.51 20.63,-116.87 10.03,-164.02 -74.49,-6.07 -138.6,71.9 -176.67,50.25 20.57,-61.04 129.4,-106.53 128.28,-170.82 -39.83,-32.51 -139.39,-4.19 -176.8,-45.37 0.93,-61.45 110.26,-67.6 127.61,-126.35 -28.96,-39.71 -99.11,-41.18 -155.9,-47.39 -47.96,-5.24 -146.69,-17.1 -168.89,24.42z"/>
    <path class="fil11" d="M11014.83 4299.05c56.11,-16.16 81.59,79.76 21.55,91.99 -63.96,13.02 -89.32,-72.48 -21.55,-91.99zm-494.49 47.33c-29.89,129.13 -173.4,81.65 -187.29,62.99 -0.14,-0.19 -48.21,-162.01 -131.36,-169.8 -15.6,168.51 -61.09,161.85 -220.22,170.39 6.38,19.19 -1.71,4.51 14,21.22 3.75,3.98 14.28,13.89 20.74,19.28 12.01,10.03 28.61,21.09 44.49,30.27 103.43,59.77 121.91,-4.53 234.42,69.88 29.73,19.67 57.63,42.6 93.62,61.51 102.1,53.65 271.63,73.84 389.32,31.47 48.58,-17.48 91.74,-42.88 103.41,-46.97 28.09,27.56 32.53,70.81 145.21,64.97 26.38,-1.37 126.06,-16.72 132.36,-51.52 11.15,-61.56 -95.13,13.03 -215.48,-53.07 -30.3,-16.64 -49.96,-36.13 -68.16,-58.41 -37.05,-45.37 -43.46,-107.31 -101.64,-48.7 -37.83,38.12 -89.54,65.84 -142.83,81.03 -41.72,11.89 -85.32,15.12 -132.3,13.41 -39.06,-1.43 -100.95,-5.98 -110.62,-43.26 380.37,31.48 393.74,-223.64 474.07,-144.06 18.86,18.69 52.87,141.66 166.03,161.59 107.22,18.89 119.54,-102.96 146.12,-178.12 15.19,-2.41 34.74,-4.97 46.93,-11.13 12.16,-47.61 -5.16,-38.79 -24.42,-60.14 -15.88,-17.61 -12.1,-40.06 -27.52,-64.08 -42.44,-8.86 -35.2,0.93 -50.23,26.31 -33.97,-2.61 -61.31,-15.51 -97.37,-17.46 -41.61,-2.24 -71.98,1.51 -110.98,6.77 -15.43,-23.93 -74.25,-75.9 -119.02,-81.9 -23.38,29.56 -23.79,88.11 -96.55,140.43 -64.39,46.3 -92.18,44.68 -174.73,67.1z"/>
    <path class="fil11" d="M11778.11 2425.92c45.31,7.36 42.18,42.39 75.92,66.71 52.54,37.9 34.05,-37.45 41.53,-68.6 47.13,2.35 33.9,105.04 109.14,103.36 7.66,-22.92 6.57,-48.79 21.74,-63.39 27.64,12.84 13.09,47.28 37.77,76.34 17.63,20.74 51,33.67 45.04,57.52 -33.23,9.89 -50.05,-16.89 -89.7,7.8 -28.59,17.82 -30.44,40.94 -69.48,43.1 2.24,-54.38 40.66,-44.05 34.06,-85.72 -74.41,-18.68 -110.64,61.46 -162.19,47.54 -0.37,-46.66 53.14,-34.35 32.64,-72.66 -37.83,-23.39 -95.78,22.85 -132.2,-5.75 4.78,-19.94 -8.1,-4.9 11.37,-16.87 12.84,-7.9 34.09,-1.46 63,-17.68 0.17,-40.33 -19.01,-23.17 -18.64,-71.7zm440.24 304.58c-41.74,-10.33 -131.13,73.26 -133.8,140.92 -3.29,83.28 115.24,115.69 140.47,143.2l-72.22 146.92c-12.79,-10.93 -78.88,-204.08 -94.5,-241.83 -37.37,-90.31 -76.26,-139.82 -192.11,-146.97 3.42,31.04 51.06,80.03 70.21,102.12 81.31,93.77 179.1,194.74 183.98,337.47 -11.93,-5.24 -10.98,-2.2 -23.55,-32.76 -5.51,-13.37 -10.51,-23.2 -16.67,-34.89 -14.56,-27.64 -25.29,-45.46 -41.48,-67.64 -88.46,-121.24 -162.56,-110.94 -205.24,-231.51 -9.62,-27.18 -17.81,-54.79 -33.12,-75.66 -10.76,-14.65 -39.51,-41.55 -65.26,-41.48 7.13,72.45 -37.27,158.86 -1.2,211.3 51.76,75.25 196.49,7.78 309.43,207.28 33.52,59.22 53.11,120.26 75.45,188.27 33.02,-26.48 38.04,-84.34 82.82,-105.5 77.69,-36.69 75.63,44.63 89.08,83.27 55.95,-21.67 117.45,-195.67 63.18,-228.27 -45.26,-11.47 -68.08,11.97 -89.51,35.5 -22.08,24.24 -33.76,52.92 -72.97,60.89 2.93,-85.41 130.33,-197.86 161.54,-282.62 53.26,-144.71 -47.91,-244.34 -130.71,-292.09 -36.22,-20.89 -35.13,-17.23 -59.52,-49.67 -41.25,-54.9 -90.17,-138.31 -163.26,-175.6 -113.84,-58.09 -215.67,-7 -292.76,-18.26 -28.66,-4.19 -66.63,-25.62 -85.34,-23.37 -5.81,128.46 66.78,261.4 132.09,310.74 97.86,73.93 233.5,79.08 361.57,27.91 178.93,-71.49 267.64,147.18 156.92,271.74 -25.08,28.2 -50.35,21.06 -62.65,-14.46 -21.97,-63.4 33.58,-152.2 9.13,-204.95z"/>
    <path class="fil11" d="M11264.1 1606.97c3.37,-8.31 5.56,-18.48 8.94,-29.02 0.37,-1.14 5.9,-16.49 6.13,-17.03 4.82,-11.22 2.23,-6.19 6.38,-12.26 22.35,15.74 15.83,37.93 36.74,58.58l61.41 -13.77c-9.2,23.15 -19.92,27.86 -27.28,52.36 18.36,9.89 47.91,17.17 61.47,30.58 -23.29,18.06 -44.19,8.68 -61.91,22.97 6.74,21.31 18.9,31.48 19.44,55.33 -18.62,-1.58 -44.52,-19.07 -62.99,-10.77 -11.1,4.99 -24.72,30.89 -38.37,41.48l-8.42 -29.27c-7.75,-59.74 -23.96,-24.04 -65.01,-39.65 4.07,-19.92 5.74,-14.29 22.16,-28.36 11.7,-10.02 10.82,-8.89 20.91,-23.22 -13.87,-37.86 -29.79,-19.39 -44.45,-58.24l64.85 0.29zm222.55 -96.94c-24.7,-1.8 -146.07,48.33 -128.15,-7.38 10.72,-33.34 74.74,-49.3 122.39,-48.97 223.55,1.54 243.7,318.79 97.29,412.07 -75.18,47.9 -242.71,28.18 -233.94,-50.54 63.17,-10.06 127.59,78.58 124.17,12.22 -1.02,-19.66 -21.98,-32.26 -12.9,-67.21 48.18,-7.2 74.06,17.25 121.58,6.49 -2.91,-50.1 -66.43,-61.85 -72.19,-101.79 27.65,-30.54 76.99,-23.1 89.83,-57.43 -24.19,-31.37 -75.17,-1.31 -129.55,-28.85 4.23,-33.78 21.13,-29.53 21.47,-68.61zm-263.55 -35.63c-57.28,1.25 -96.48,-58.29 -148,-54.36 -2.9,48.8 70.97,94.41 70.99,147.04 -9.58,7.54 -17.06,13.6 -33.51,22.46 -19.24,10.36 -26.18,10.05 -35.39,29.43 22.88,43.13 135.85,38.26 35.71,108.69 -24.26,17.06 -38.87,17.51 -39.83,48.05 31.2,8.53 52.54,0.16 76.52,20.64 8.26,34.47 -52.6,93.71 -55.54,145.2 60.36,-13.47 72.91,-74.64 124.08,-74.96 17.05,31.99 11.59,51.57 19.63,85.63 41.16,-4.08 35.98,-50.09 65.02,-52.38 20.88,4.83 43.87,23.88 69.59,34.59 24.55,10.23 51.47,20.64 83.17,25.73 157.93,25.36 345.99,-105.24 316.85,-322.47 -28.64,-213.55 -228.83,-274.21 -384.77,-226.41 -22.57,6.92 -59.26,26.33 -83.63,21.91 -26.67,-4.84 -26.5,-31.52 -65.64,-43.19l-15.25 84.4z"/>
    <path class="fil11" d="M9447.67 3056.44c-23.56,-30.39 -3.76,-85.83 2.78,-119.15 4.17,-21.23 9.6,-42.43 11.75,-62.3 1.92,-17.88 5.66,-50.76 -9.71,-62.24 -50.7,-37.87 -72.96,146.81 -78.81,178.48 -5.15,27.93 -9.86,52.59 -29.39,66.81 -29.33,-10.91 -23.67,-29.15 -23.67,-83.63 0,-32.87 5.08,-63 0.1,-79.19 -4.25,-13.82 0.76,-4.09 -6.81,-12.41 -71.03,-33.66 -109.29,420.73 -21.31,505.57 49.35,8.33 95.76,-57.79 104.17,-104.45 8.68,-48.12 -68.84,-111 -0.79,-154.62 26.08,-8.25 77.35,52.38 90.14,70.93 51.37,74.47 -96.8,171.43 -151.28,333.21 -29.36,87.18 -22.64,201.87 14.56,274.36 33.15,64.61 118.52,137.64 172.93,160.88 23.34,-30.77 34.37,-83.85 16.8,-126.46 -27.97,-67.8 -127.77,-113.2 -152.16,-187.04 -14.5,-43.88 -5.07,-105.12 20.49,-133.53 17.09,8.72 36.27,69.25 131.16,60.61 -10.64,-23.03 -34.7,-38.12 -42.19,-75.65 -15.84,-79.43 59.34,-208.75 94.33,-274.31 199.5,-373.8 101.2,-443.94 61.56,-334.58 -21.42,59.1 -29.89,87.62 -61.91,144.63 -12.21,21.75 -25.2,54.27 -54.95,50.91 -10.43,-75.61 96.75,-242.18 61.92,-308.53 -29.04,-9.36 -39.54,11.11 -52.75,39.56 -26.06,56.14 -46.33,144.01 -69.32,200.7 -8.79,21.67 -11.31,26.44 -27.64,31.44z"/>
    <path class="fil11" d="M11462 3843.47c-22.81,4.19 -61.6,25.79 -102.49,32.24 -82.66,13.03 -175.34,12 -249.27,-25.16 -18.23,-9.16 -28.53,-15.25 -42.67,-26.34 -15.76,-12.37 -24.55,-24.31 -52.83,-22.77 -11.81,23.4 -8.57,29.27 -12.34,61.47 -1.68,0.33 -77.97,-7.97 -30.56,56.79 72.17,98.59 245.35,11.3 269.73,17.38 12.28,24.74 0.13,28.98 -5.26,53.91l39.14 15.07c-3.43,72.96 -134.69,71.38 -202.52,53.47 -189.61,-50.05 -224.67,-248.02 -108.57,-315.01 35.85,-20.69 203.75,-42.73 96.84,-107.24 12.2,-20.18 25.52,-28.46 57.65,-30.26 26,-1.46 63.26,4.84 86.51,0.33 25.29,-4.9 38.4,-30.19 22.48,-52.01 -15.81,-21.68 -37.22,-11.06 -56.49,-29.57 20.94,-30.46 99.61,-16.59 74.62,-57.15 -32.81,-53.23 -344.88,-56.57 -437.87,222.9 -26.29,78.98 -17.91,175.79 12.65,247.46 100.09,234.76 402.96,272.95 557.22,109.89 31.46,-33.26 101.3,-133.91 84.03,-205.4z"/>
    <path class="fil11" d="M9410.29 5038.71c-72.81,23.96 -73.31,120.54 -48.85,192.88 31.25,92.44 39.9,126.01 26,233.73 -10.45,80.98 -25.14,151.31 -66.82,207.7 -79.89,108.07 -358.93,160.16 -302.4,-372.01 4.8,-45.11 41.67,-204.64 28.61,-237.57 -13.87,-34.96 -77.65,-8.67 -98.78,7.37 -60.48,45.92 -195.37,584.38 79.07,713.35 66.59,31.3 159.27,38.68 236.4,15.62 224.52,-67.12 253.65,-376.14 241.28,-585.54 -3.94,-66.53 -13.06,-202.33 -94.51,-175.53z"/>
    <path class="fil11" d="M11954.27 5613.87c-13.63,-41.08 -11.62,-89.45 4.44,-128.41 14.46,-35.09 62.22,-61.43 95.75,-29.21 62.14,59.71 -34.05,166.04 -100.19,157.62zm357.41 -24.12c30.52,52.52 23.63,144.92 62.32,196.11 98.63,130.46 159.71,-394.48 338.32,-383.03 20.29,30.75 22.4,57.15 78.37,58.6 125.36,3.26 79.89,-214.16 -108.2,-153.99 -173.93,55.65 -198.39,304.19 -236.78,311.75 -46.51,9.17 -50.57,-183.62 -60.63,-223.92 -2.73,-10.96 -2.31,-8.71 -6.6,-16.25 -4.7,-8.28 -3.49,-5.61 -8.33,-10.77 -56.8,-16.69 -66.46,63.02 -80.83,109.08 -88.46,283.45 -301.43,273.4 -308.73,194.83 18.07,-16.42 73,-30.5 98.85,-42.93 222.61,-107.04 27.99,-406.03 -156.61,-219.91 -104.99,105.85 -132.52,394.56 97.87,394.56 204.45,0 263.28,-204.3 290.98,-214.13z"/>
    <path class="fil11" d="M12045.18 1827.6c19.37,-18.72 44.15,-19.85 70.48,-33.37 124.09,-63.72 96.3,-141.91 123.29,-175.86 71.09,35.5 43.16,122.35 -5.68,161.52 -45.16,36.22 -149.18,57.56 -188.09,47.71zm229.71 -334.31c-108.32,16.26 -14.53,-117.31 10.65,-23.36l-10.65 23.36zm-498.85 -56.65c18.68,24.67 84.14,30.4 116.71,46.17 31.33,15.16 80.56,53.55 91.54,76.89 -42.49,20.21 -124.65,9.45 -162.97,47.34 23.89,32.75 190.15,39.82 203.18,123.05 8.58,54.84 -44.53,77.63 -91.4,62.74 -53.78,-17.09 -63.06,-61.84 -100.21,-63.23 -5.99,46.2 20.03,75.51 -5.72,120.94 -8.73,15.39 -21.32,24.25 -36.22,32.78 -22.97,13.16 -31.09,9.63 -35.45,36.04 230.55,29.58 611.66,41.32 598.98,-266.15 -1.88,-45.54 -14.22,-84.12 -25.58,-124.11 -23.13,-81.42 18.49,-94.83 30.1,-116.6 -34.04,-7.99 -93.3,-22.56 -125.54,-17.06 -39.53,6.74 -63.9,38.6 -64.22,85.47 -0.28,41.37 13.89,88.46 -1.86,129.48 -15.56,40.55 -79.39,39.97 -85.17,-14.18 -7.24,-67.68 84.19,-167.45 -56.36,-188.19 -66.11,-9.76 -206.62,-6.06 -249.81,28.62z"/>
    <path class="fil11" d="M10090.93 2640.69c-17.43,-13.85 -51.8,-102.99 -117.98,-139.81 -27.54,-15.32 -75.14,-23.82 -102.54,0.23 -18.61,16.34 -43.37,104.42 -11.13,101.16 10.36,-1.04 7.62,-1.9 11.07,-2.91 35.99,-10.52 59.83,-9.69 96.15,11.21 32.14,18.5 68.97,43.71 80.92,71.96 -67.73,-4.86 -151.51,-30.71 -205.36,8.49 -39.16,28.5 -76.44,91.68 -63.21,164.71 13.46,0.34 0.12,5.15 10.9,-5l28.6 -39.77c12.04,-13.58 34.86,-31 55.2,-42.33 41.48,-23.1 100.54,-43.82 159.74,-36.87 -5.02,27.2 -20.61,27.7 -38.74,128.5 -6.83,37.95 -18.52,15.34 -21.67,39.49 5.15,34.01 31.68,89.97 30.63,114.69 -1.19,27.84 -15.79,20.86 -7.05,54.06 9.36,35.59 45.06,64.97 47.57,96.32 3.92,48.89 -28.86,2.43 52.91,84.95 19.88,20.06 23.45,36.81 34.19,40.22 31.36,-1.06 51.53,-17.77 58.59,-45.64 -11.72,-25.87 -20.73,-25.69 -33.89,-47.67 -25.92,-43.32 4.42,-18.88 -31.99,-54.09 -21.79,-21.06 -17.54,-30.65 -20.63,-64.76 -7.74,-85.48 -44.15,-22.07 -28.57,-137.13 14.37,-106.11 -40.65,-43.9 9.11,-128.53 12.63,-21.48 18.27,-36.01 28.02,-57.48 33.4,6.71 60.57,47.62 74.15,78.96 26.32,60.72 3.62,77.69 9.28,128.02 90.63,-19.64 185.81,-150.73 74.63,-217.79 -28.49,-17.19 -69.76,-19.92 -95.94,-35.03 42.25,-20.4 163.43,-31.99 218.9,-1.79 28.97,15.78 24,25.71 42.74,51.05 4.7,-4.34 3.98,-2.7 9.03,-9.72 19.89,-27.69 23.51,-68.55 10.52,-97.79 -14.46,-32.57 -44.81,-53.98 -88.11,-57.85 -101.17,-9.03 -151.36,42.29 -219.42,74.21 4.93,-25.86 17.31,-43.87 32.78,-62.57 23.57,-28.49 19.73,-27.31 65.44,-32.06 -4.4,-39.14 -59.82,-111.56 -107.03,-101.72 -55.7,11.6 -33.44,122.88 -47.81,170.08z"/>
    <path class="fil11" d="M9893.75 3945.02c-3.72,5.38 -41.58,34.04 0.29,70.51 24.59,21.41 60.13,25.73 98.13,22.21 11.34,80.81 -104.02,55.5 -136.22,33.22 -43.77,-30.28 -75.35,-107.68 -20.79,-151.99 67.24,-54.62 233.84,2.42 235.4,169.63 1.93,208.14 -301.43,172.03 -377.09,-10.25 -32.51,-78.3 -24.93,-116.73 -14.81,-199.4 -32.14,4.56 -41.17,17.14 -58.3,37.64 -112.97,135.15 -2.45,344.06 172.47,412.77 113.58,44.62 237.48,20.82 298.28,-51.11 62.32,-73.74 50.9,-212.52 6.97,-300.08 -128.67,-256.42 -475.72,-138.11 -353.67,89.32 62.43,116.34 198.31,134.8 256.3,86.03 80.76,-67.92 14.64,-221.82 -106.96,-208.5z"/>
    <path class="fil11" d="M11923.44 3739.38c89.1,-7.83 162.5,89.16 98.09,114.49 -38.92,15.3 -78.42,-1.36 -98.75,-23.35 -29.73,-32.14 -20.57,-61.47 0.66,-91.14zm-104.3 74.98c44.31,73.43 -132.87,152.61 -175.07,208.02 -41.82,54.92 77.29,125.47 138.51,114.66 102.73,-18.13 160.76,-196.46 198,-195.3 47.4,1.47 4.11,127.38 -123.96,206.81 -39.02,24.2 -100.16,27.42 -51.15,92.14 53.2,70.24 165.71,-71.78 198.79,-111.11 266.79,-317.28 -37.17,-523.33 -208.1,-414.76 -65.71,41.73 -65.1,114.52 -193.43,162.79 -47.15,17.74 -104.83,9.38 -89.85,75.03 30.93,135.54 197.67,-54.64 250.01,-104.56 14.63,-13.95 28.05,-33.27 56.25,-33.72z"/>
    <path class="fil11" d="M10246 2365.31c-32.75,-33.16 -6.3,-102.84 32.71,-101.62 10.99,23.67 6.67,35.24 0.03,60.16 -6.51,24.48 -7.51,39.64 -32.74,41.46zm64.05 74.34c-18.54,-36.08 -0.88,-90.94 9.77,-126.49 9.7,-32.38 23.8,-80.49 52.71,-90.28 16.56,35.04 3.49,93.04 -6.76,130.88 -5.39,19.87 -11.68,38.9 -19.24,55 -10.28,21.89 -12.01,31.16 -36.48,30.89zm-200.52 -109.98c-8.96,-25.93 -6.13,-135 58.14,-143.76 37.99,89.46 -11.76,151.9 -58.14,143.76zm-99.1 41.69c-18.06,-40.97 27.03,-171.33 45.09,-219.27 15.64,-41.51 18.73,-47.19 41.15,-53.13 9.15,14.6 8.65,25.66 6.2,48.47 -3.71,34.46 -46.27,239.73 -92.44,223.93zm-107.65 -207.68c25.75,-7.89 33.6,-16.38 67.2,-10.03 22.86,47.45 11.55,119.59 -22.54,154.76 -22.24,22.95 -52.43,21.52 -66.84,-2.23 -11.32,-18.64 -13.33,-59.82 -22.51,-78.68 -73.35,4.38 -54.49,195.98 77.71,214.67 149.48,21.14 237.34,-103.53 251.84,-106.46 1.05,1.08 2.47,1.37 2.84,3.49l8.69 15.92c19.99,52.68 22.34,108.01 91.03,150.3 73.04,44.97 162.34,-3.01 162.72,-77.46l-39.73 1.85c-17.73,-39.45 -23.83,-145.15 27.41,-148.46 18.39,20.27 9.97,58.34 22.55,90.5 56.42,-14.06 41.47,-185.44 -36.98,-220.81 -108.58,-48.96 -185.67,85.35 -203.15,93.56 -10.17,-323.27 -308.6,-196.68 -320.24,-80.92z"/>
    <path class="fil11" d="M10280.46 3259.99c-59.86,32.83 -142.46,228.94 73.34,341.88 36.38,19.04 113.77,38.04 153.93,19.84 -18.9,-17.2 -56.66,-22.88 -80.51,-70.23 -21.73,-43.14 -8.78,-92.74 8.96,-128.53 35.81,-72.22 113.28,-131.01 31.43,-210.66 -21.83,-21.24 -73.66,-41.84 -52.34,-96.71 18.98,-48.84 127.4,-112.5 61.95,-217.5 -13.85,-22.22 -58.94,-67.26 -86.59,-71.85 10.31,36.42 19.66,62.54 -0.22,97.54 -10.95,19.26 -48.09,49.71 -64.76,61.45 -127.22,89.64 -174.95,130.88 32.48,256.04 80.46,48.56 17.6,91.43 -56.53,33.69 -13.11,-10.2 -6.01,-7.27 -21.14,-14.96z"/>
    <path class="fil11" d="M11058.91 3389.1c157.48,-6.58 159.57,-146.92 224.04,-124.92 9.25,38.3 -30.89,55.81 -29.28,100.89 2.98,83.39 165.76,90.55 129.42,6.03 -13.51,-31.42 -50.74,-48.58 -45.78,-92.47 26.14,-16.61 76.53,-11.29 101.85,1.41 1.8,32.55 -11.91,30.18 -13.41,46.59 -2.45,26.76 -2.84,6.31 4.03,16.52 38.54,14.96 162.18,-22.1 183.59,-47.11 10.75,-32.27 -122.74,-130.96 -158.73,-135.09l-6.38 61.98c-75.34,31.14 -140.06,-37.68 -82.46,-87.85 40.99,-35.69 136.09,-34.56 151.64,-91.75l-87.32 -35.45c-139.16,-68.91 -104.05,67.39 -104.36,87.41 -0.73,45.76 -46.9,61.82 -46.9,-17.5 0,-75.94 18.25,-111.11 -40.98,-147.64 -20.9,-12.89 -46.17,-19.1 -62.82,-29.22 -23.12,-14.06 -27.63,-29.68 -44.58,-50.79 -30.37,22.99 -68.77,138.74 -21.88,197.81 40.74,51.31 140.43,69.3 152.96,123.76 11.12,48.3 -29.95,65.95 -62.54,32.84 -15.46,-15.7 -45.19,-61.35 -84.61,-39.75 -34.6,18.96 -17.01,79.29 -15.9,119.92 1.76,63.81 -26.81,67.92 -39.6,104.38z"/>
    <path class="fil11" d="M10550.59 3835.92c-10.99,-21.7 -4.78,-38.31 -2.12,-63.82 6.7,-64.18 26.52,-32.71 78.82,-71.91 19.26,-14.44 16.1,-21.42 43.92,-14.43 22.78,63.26 -71.82,178.23 -120.62,150.16zm50.98 -199.56c-47.59,43.52 -69.54,54.11 -148.81,54.11 -171.73,0 -197.29,-112.65 -235.48,-95.87 -39.66,17.42 -28.66,191.91 96.19,277.15 216.91,148.1 498.3,-48.26 417.81,-268.32 -32.83,-89.76 -135.2,-83.25 -173.98,-136.3 -14.67,-20.07 -20.06,-52.32 -35.42,-65.71 -24.02,31.42 -49.52,92.89 -16.99,135.44 26.73,34.96 92.76,38.52 96.68,99.5z"/>
    <path class="fil11" d="M11601.52 3105.97c-31.74,16.56 -44.94,3.91 -71.49,16.13 -3.5,20.61 15.99,25.28 36.27,36.8 212.13,120.4 97.71,224.85 -23.37,250.49 -22.93,4.86 -49.47,6.27 -66.98,18.75 12.15,28.41 34.5,11.04 70.6,32.85 7.22,33.56 -31.17,50.03 -26.87,76.54 14,5.6 23.63,-2.77 36.59,-10.95 14.19,-8.95 21.45,-14.42 39.42,-15.38 28.25,28.48 7.55,46.48 34.46,65.39 25.8,-28.48 10.06,-93.26 24.67,-135.28 13.3,-38.24 39.41,-81.17 78.71,-83.29 33.33,19.82 40.83,77.33 30.52,124.01 -8.97,40.63 -40.97,87.79 -39.99,122.18 48.75,4.06 42.09,-71.72 98.75,-1.16 15.81,19.69 8.56,26.19 37.41,30.86 11.8,-33.42 -17.12,-66.84 1.35,-89.81 20.14,-23.29 38.39,-4.33 66.04,-18.33 -9.81,-28.5 -57,-27.93 -97.46,-73.56 -16.18,-18.25 -41.46,-54.68 -44.22,-83.29 -5.55,-57.56 66.18,-66.48 140.87,55.51 13.85,22.62 14.6,35.98 36.13,43.44l9.43 -68.71c32.03,-20.66 56.1,3.35 80.98,-6.67 -3.55,-32.48 -23.16,-8.6 -66.21,-56.25 4.9,-36.23 38.69,-51.33 35.82,-76.91 -29.66,-1.89 -176.53,81.31 -213.14,23.41 -32.11,-50.78 76,-76.29 109,-83.07 29.65,-6.08 39.27,-0.76 48.11,-23.17 -18.77,-11.01 -42.71,-6.79 -65.31,-24.04 1.68,-27.28 30.05,-59.72 20.22,-73.57 -20.6,-13.59 -34.29,32.53 -67.06,29.94 -29.39,-2.33 -29.1,-49.17 -58.6,-44.76 -0.78,1.49 -1.56,2.15 -1.75,4.73 -0.19,2.57 -1.32,3.55 -1.54,4.8 -1.35,7.85 -1.85,4.7 -1.77,15.25 0.35,46.97 30.36,91.54 -21.6,167.64l-38.74 0.76c-43.47,-73.9 3.02,-128.84 4.31,-216.14 -52.78,5.97 -30.01,39.4 -76.21,43.04 -25.78,-16.72 -21.82,-48.84 -56.5,-51.9l-0.85 73.72z"/>
    <path class="fil11" d="M9595.29 3322.83c-44.45,96.89 151.62,168.82 151.62,-49.76 0,-41.16 -1.68,-85.68 0.3,-126.53 1.38,-28.51 6.85,-77.22 28.88,-97.93 4.88,31.77 3.55,62.2 10.79,98.18 15.28,75.92 80.22,197.34 34.49,263.29 -49.53,8.83 -30.9,-6.43 -65.04,-13.68 -12,114.32 82.54,97.73 107.52,80.14 131.7,-92.73 -128.07,-380.22 -24.76,-514.33 14.16,58.64 14.07,97.07 37.24,158.12 16.66,43.92 42.26,97.48 66.08,134.81 29.33,45.97 50.42,80.68 75.29,125.71 22.24,40.26 57.71,130.33 -24.41,122.69 -22.36,-12.06 -26.92,-20.49 -31.82,-47.89 -14.72,6.09 -12.87,0.64 -24.16,20.17 -6.6,11.44 -8.66,23.42 -8.1,38.28 0.96,25.63 13.54,49.81 26.37,60.84 30.38,26.09 91.84,33.36 131.31,4.25 163.59,-120.63 -174.83,-340.79 -205.34,-597.2 -7.22,-60.69 9.29,-101.25 24.78,-147.15 -61.92,8.13 -160.98,143.99 -188.24,232.01 -20.22,65.26 -13.87,124.58 -18.35,194.88 -8.63,135.24 -90.48,59.01 -104.45,61.1z"/>
    <path class="fil11" d="M11428.53 4475.69l-1.53 -8.05c-0.08,-16.63 -1.59,2.4 0.71,-13.07 16.21,-108.77 -1.98,-86.82 71.19,-95.12 72.34,-8.2 137.12,-72.74 104.19,23.02 -15.64,45.49 -106.77,106.84 -174.56,93.22zm234.17 -251.66c-22.2,10.32 -39.77,26.24 -65.51,38.46 -27.75,13.17 -50,22.12 -81.77,27.58 -127.32,21.88 -160.35,-18.47 -191.95,-8.73 -50.89,15.69 -164.16,237.08 -28.94,280.24 168.48,53.76 508.6,-133.53 432.89,-300.59 -9.65,-21.28 -38.07,-49.35 -64.72,-36.96z"/>
    <path class="fil11" d="M9638.76 1417.96c14.31,18.15 6.6,5.91 49.62,28.27l1.72 37.11c-17.09,8.23 -34.65,20.57 -60.27,30.48 -22.91,8.88 -50.7,12.64 -59.51,35.25 34.26,29.12 184.69,-39.6 146.58,39.85 -17.57,36.62 -55.12,49.93 -57.53,93.86 52.93,3.27 69.59,-63.26 120.37,-56.51 54.64,7.28 19.77,104.56 48.85,133.53 41.72,-5.44 18.62,-67.04 60.2,-130.03 31.22,-3.64 37.7,-6.05 68.33,36.88 16.17,22.68 27.73,47.77 60.08,50.77 14.89,-49.56 -35.8,-73.1 -29.05,-139.59 17.13,-12.9 25.94,-19.62 58.13,-11.79l50.62 12.37c60.2,-2.33 -8.89,-43.78 -29.72,-56.24 -115.32,-68.96 -6.29,-80.49 4.55,-108.72 -27.72,-14.49 -89.69,-21.04 -123.72,-6.16 -37.52,16.4 -41.85,58.53 -92.67,57.97 -48.06,-0.53 -48.81,-43.69 -90.08,-60.67 -21.84,-8.98 -47.31,-7.57 -70.89,-5.67 -18.89,1.52 -44.16,3.82 -55.61,19.04z"/>
    <path class="fil11" d="M11733.08 2141.86c22.91,3.85 108.1,8.79 119.75,16.99 -7.46,47.46 -132.72,56.4 -198.29,10.22 -18.91,-13.32 -34.45,-22.84 -37.83,-52.93 40.14,1.28 73.18,18.46 116.37,25.72zm-49.09 -138.15c-173.18,68.17 -210.29,2 -187.43,93.99 5.11,20.57 20.09,53.78 29.35,67.84 108.16,164.06 326.86,143.27 403.62,74.56 66.62,-59.64 -26.46,-196.42 -41.17,-207.51 -24.52,-18.5 -55.12,-1.69 -79.17,6.68 -95.44,33.18 -51.36,-64.62 -125.2,-35.56z"/>
    <path class="fil11" d="M10649.33 4027.8c-43.04,-12.06 -54.53,-45.54 -111.86,-21.15 -73.48,31.27 -56.39,134.5 -132.65,166.27 -54.11,22.54 -96.8,-6.97 -133.54,4.16 -24.31,141.26 327.58,167.44 404.53,-8.85 16.54,-37.88 -3.32,-77.74 6.69,-102.07 39.27,-13.22 38.81,9.99 65.29,14.4 59.6,9.92 22.86,-60.97 24.81,-74.9 2.4,-17.2 29.14,-69.5 -55.65,-61.18 -13.22,-16.16 -47.16,-58.17 -67.49,-20.19 -18.06,33.76 18.43,51.55 -0.13,103.51z"/>
    <path class="fil11" d="M12130 3492.75c-48.96,-10.5 -96.61,-22.96 -129.25,13.07 -32.05,35.4 -22.89,98.34 9.16,122.65 87.46,66.32 129.64,18.25 172.2,148.81l5.15 12.53c61.19,-32.93 124.74,-175.73 124.74,-269.78 0,-166.79 -129.9,-218.45 -179.38,-134.87 -22.82,38.53 -10.24,66.69 -2.62,107.59z"/>
    <path class="fil11" d="M9676.71 3615.68c59.15,-23.05 83.85,60.8 35.42,83.03 -55.16,25.33 -95.12,-59.78 -35.42,-83.03zm-88.15 -11.98c-39.51,24.09 -86.81,27.85 -74.65,103.52 3.8,23.62 18.23,42.62 38.85,52.14 31.43,14.5 52.91,4.75 84.44,1.85 6.76,7.22 34.83,76.54 110.13,47.03 51.6,-20.22 48.82,-55.02 45.48,-110.14 129.5,-21.04 81.23,-200.54 -44.2,-146.34 -23.89,-22.39 -42.07,-72.59 -108.66,-52.05 -60.77,18.75 -52.99,73.24 -51.39,103.99z"/>
    <path class="fil11" d="M9469.43 2480.48c-78.82,71.13 -178.01,-104.51 -90.68,-129.73 13.71,20.57 10.59,51.79 34.28,78.3 15.07,16.86 49.62,34.01 56.4,51.43zm43.9 -183.9c32.87,50 4.47,27.71 43.96,68.71 23.91,24.82 8.78,67.4 -30.28,53.22 -35.04,-12.71 -110.81,-133.47 -13.68,-121.93zm112.09 46.06c-14.41,-16.24 -26.6,-18.68 -37.3,-43.31 -14.17,-32.57 1.18,-39.6 -42.31,-43.44 -93.05,-8.2 -188.62,9.9 -242.49,91.76 -31.39,47.71 -27.27,70.44 -42.83,129.54 -20.92,79.42 12.91,45.67 83.24,66.78 157.88,47.39 291.71,-109.32 281.69,-201.33z"/>
    <path class="fil11" d="M12325.1 2560.57c45.1,-44.17 60.6,-324.81 19.67,-397.07 -27.28,11.66 -37.13,41.1 -55.04,57.61 -36.64,33.77 -101.26,63.99 -154.35,69.43 -52.43,5.36 -61.74,-5.1 -38.42,50.31 33,78.4 92.09,133.76 150.56,182.63 16.66,13.93 48.31,36.48 77.58,37.09z"/>
    <path class="fil11" d="M10351.78 4033.89c-23.61,21.32 -43.59,11.5 -70.45,-3.33 -16.36,-9.02 -52.85,-30.59 -37.89,-58.55 20.84,-38.94 111.22,10.68 108.34,61.88zm-397.22 -365.18c-26.68,9.11 -63.08,23.25 -50.81,60.8 17.47,53.48 162.63,27.08 224.91,137.64 28.64,50.83 19.57,128.67 59.43,175.94 36.48,43.28 106.51,76.26 178.39,63.34 80.97,-14.54 35.18,-108.7 0.28,-144.27 -90.88,-92.61 -143.98,-20.48 -174.89,-66.49 -25.76,-38.34 -25.1,-116.72 -65.79,-169.62 -31.4,-40.83 -93.35,-84.03 -171.52,-57.34z"/>
    <path class="fil11" d="M11248.82 2292.83c-4.17,-23.94 11.55,-16.29 12.68,-42.37l-2.16 -13.84c-23.66,-9.99 -50.83,3.07 -83.84,-8.03 -29.72,-9.99 -39.27,-27.94 -63.22,-34.13 -40.3,50.57 -41.89,219.98 23.94,237.57 17.92,-11.72 17.45,-24.5 30.53,-41.02 31.14,-1.66 66.2,20.72 119.13,17.09 183.01,-12.58 193.66,-209.9 148.99,-249.21 -21.46,58.38 -6.41,67.63 -52.99,107.75 -26.58,22.89 -90.83,46.92 -133.06,26.19z"/>
    <path class="fil11" d="M11377.44 3564.9c24.1,4.34 32.11,14.49 39.82,36.21 23.37,65.92 -69.35,94.66 -49.96,-10.78l10.14 -25.43zm-72.94 -94.83c45.18,117.95 -25.04,123.35 -22.69,221.65 1.93,81.11 87.73,135.79 162.23,90.31 112,-68.38 34.71,-290.95 -139.54,-311.96z"/>
    <path class="fil11" d="M9658.31 2452.75c-33.15,32.16 -62.97,103.99 -52.81,162.94 9.98,57.94 56.69,111.32 126.23,91.86 54.48,-15.23 77.62,-90.5 51.09,-154.41 -17.01,-40.99 -75.61,-94.21 -124.51,-100.39z"/>
    <path class="fil11" d="M11136.51 2134.51c20.25,-8.58 63.66,-99.11 158.02,-36.33 -40.65,59.31 -15.05,50.29 19.28,78.3 23.88,19.48 11.29,22.16 34.92,36.71l17.48 -13.99c20.66,-19.41 27.87,-31.24 38.54,-59.07 14.48,-37.77 17.27,-77.44 14.2,-120.93 -33.51,-0.46 -24.74,12.13 -50.94,5.91 -2.62,-0.62 -131.81,-93.14 -216.42,11.16 -18.81,23.18 -30.44,68.54 -15.08,98.24z"/>
    <path class="fil11" d="M11355.63 4209.77c68.09,52.18 196.49,41.78 246.52,-0.02 39.86,-33.31 29.06,-154.66 -155.14,-120.51 -103.44,19.17 -96.71,53.03 -91.38,120.53z"/>
    <path class="fil11" d="M12273.1 1975.65c27.26,180.27 -222.48,165.22 -247.18,188.53 -13.93,13.14 -32.97,66.89 50.02,77.05 119.68,14.64 254.58,-88.68 259.12,-180.27 2.36,-47.5 -17.22,-85.9 -61.96,-85.31z"/>
    <path class="fil11" d="M9534.81 2188.49c10.97,-57.51 9.96,-128.8 -19.08,-172.51 -29.04,-43.69 -99.69,-62.19 -140.82,-21.8 -59.54,58.45 -6.58,204.69 159.9,194.31z"/>
    <path class="fil11" d="M11547.38 3598.13c-3,25.26 6.88,44.77 -3.89,76.52 -50.65,149.22 69.25,146 108.56,119.97 95.94,-63.52 -0.33,-206.41 -104.67,-196.49z"/>
    <path class="fil11" d="M10465.93 2083.96c59.22,-78.57 14.41,-117.68 -39.06,-157.72 -32.23,-24.14 -108.41,-94.7 -156.98,-94.09 0.24,44.88 90.87,169.14 125.92,205.56 32.21,33.48 32.12,47.99 70.12,46.25z"/>
    <path class="fil11" d="M11427.61 2799.4c-106.27,41.67 -42.33,194.24 58.39,157.3 106.96,-39.23 42.32,-196.79 -58.39,-157.3z"/>
    <path class="fil11" d="M10319.72 4994.17c-99.56,30.9 -74.88,193.63 26.33,165.13 85.68,-24.14 85.07,-199.69 -26.33,-165.13z"/>
    <path class="fil11" d="M11993.66 2011.14c8.79,53.74 18.01,100.3 83.32,94.12 158.71,-15.02 206.26,-168.76 71.49,-123.06 -21.45,7.27 -45.33,19.36 -67.81,23.8 -30.24,5.97 -58.37,0 -87,5.14z"/>
    <path class="fil11" d="M11439.88 2443.2c-85.87,21.87 -64.59,177.87 44.95,150.56 95.28,-23.75 57.2,-176.58 -44.95,-150.56z"/>
    <path class="fil11" d="M11293.58 2578.48c-94.32,44.1 -26.19,170.89 62.18,132.91 31.41,-13.5 52.64,-61.91 34.58,-100.2 -14.88,-31.55 -56.17,-51.7 -96.76,-32.71z"/>
    <path class="fil11" d="M11143.42 2657.63c-90.26,30 -40.62,160.38 46,128.95 80.35,-29.15 43.86,-158.82 -46,-128.95z"/>
    <path class="fil11" d="M9392.5 2224.29c-9.84,-14.8 1.02,-4.84 -17.05,-16.26 -49.37,-31.2 -84.58,-41.76 -86.82,-149.42 -55.7,12.98 -82.1,88.32 -49.34,142.05 39.29,64.42 98.83,37.75 153.21,23.63z"/>
    <path class="fil11" d="M11144.23 3677.28c9.57,42.32 -6.09,95.43 6.93,120.64 15.76,30.5 63.92,33.77 88.23,9.22 54.74,-55.27 -33.42,-142.69 -95.16,-129.86z"/>
    <path class="fil11" d="M9590.54 2715.8c-7.48,-30.53 -61.35,-58.97 -34.49,-160.18 -43.53,6.18 -89.97,53.74 -84.28,107.65 6.13,58 70.76,75.23 118.77,52.53z"/>
    <path class="fil11" d="M9435.98 2738.42c-39.87,-3.14 -84.95,19.23 -134.08,7.73 -50.16,-11.75 -62.69,-53.26 -86.3,-56.22 15.76,59.52 6.77,124.34 82.56,123.21 48.48,-0.72 117.32,-48.3 137.82,-74.72z"/>
    <path class="fil11" d="M9237.61 1811.81c37.28,6.53 61.9,-18.03 80.78,-34.98 20.67,-18.54 52.33,-39.17 54.37,-71.95 -76.52,-25.05 -163.44,14.41 -135.15,106.93z"/>
    <path class="fil11" d="M11591 2720.92c-82.17,32.12 -34.83,126.45 31.04,108.29 70.25,-19.36 37.7,-135.16 -31.04,-108.29z"/>
    <path class="fil11" d="M10362.19 1533.34c0.67,31.08 20.65,38.21 43.93,51.94 49.95,29.46 91.92,40.73 90.9,-29.5 -0.33,-23.17 -0.96,-33.49 -22.16,-39.02 -38.2,-9.97 -88.51,3.33 -112.67,16.58z"/>
    <path class="fil11" d="M11572.14 2576.57c-56.34,28.96 -14.7,121.31 48.25,89.76 57.11,-28.63 12.19,-120.84 -48.25,-89.76z"/>
    <path class="fil11" d="M9418.06 2619.51c-33.47,-1.62 -56.36,3.7 -91.88,-6.47 -39.22,-11.23 -36.74,-27.33 -68.18,-36.89 -1.86,152.06 151.04,95.9 160.06,43.36z"/>
    <path class="fil11" d="M11445.96 2662.39c-55.01,25.45 -23.39,110.21 40.1,87.86 59.56,-20.96 21.03,-116.15 -40.1,-87.86z"/>
    <path class="fil11" d="M9694.46 2283.84c-61.07,29 -16.27,115.26 40.56,88.08 53.45,-25.57 19.34,-116.53 -40.56,-88.08z"/>
    <path class="fil11" d="M11286.13 2760.76c-57.31,29.74 -18.46,108.43 40.13,87.81 58.2,-20.48 21.35,-119.71 -40.13,-87.81z"/>
    <path class="fil11" d="M11164.87 2507.29c-57.62,29.41 -19.03,111.63 43.55,86.12 53.32,-21.74 16.8,-116.92 -43.55,-86.12z"/>
    <path class="fil11" d="M9627.91 2177.72c-10.28,6.7 -17.44,6.39 -23.15,23.8 -14.89,45.37 31.8,81.73 70.29,58.48 50.53,-30.52 9.45,-119.17 -47.14,-82.28z"/>
    <path class="fil11" d="M11499.65 2331.36c-4.15,2.37 -38.28,12.02 -19.97,58.04 8.91,22.4 37.31,34.32 66.25,18.73 45.77,-24.67 15.35,-112.18 -46.28,-76.77z"/>
    <path class="fil11" d="M11590.3 2886.94c-56.14,29.49 -13.33,102.95 39.01,81.37 58.61,-24.16 18.72,-111.69 -39.01,-81.37z"/>
    <path class="fil11" d="M11281.46 2445.95c-55.15,27.66 -19.01,104.1 39.61,81.7 50.42,-19.27 20.36,-111.76 -39.61,-81.7z"/>
   </g>
  </g>
 </g>
</svg>
