<svg id="Artwork_-_Primary" data-name="Artwork - Primary" xmlns="http://www.w3.org/2000/svg" viewBox="0 0 250 250"><defs><style>.cls-1{fill:none}.cls-2{fill:#FCE38B}.cls-3{fill:#c41c40}.cls-4{fill:#b21b43}.cls-5{fill:#EE1C25}.cls-6{fill:#f2dcb1}.cls-7{fill:#824646}.cls-8{fill:#5e3434}.cls-9{fill:#fff5ca}.cls-10{fill:#935650}.cls-11{fill:#aa615e}.cls-12{fill:#ffc513}.cls-13{fill:#ffd95f}.cls-14{fill:#f2b814}.cls-15{fill:#e29000}.cls-16{clip-path:url(#clip-path)}.cls-17{fill:#ce8400}.cls-18{fill:#037c3c}.cls-19{fill:#67ad39}.cls-20{fill:#9e1c4c}</style><clipPath id="clip-path"><path class="cls-1" d="M132.05 123.13a24.1 24.1 0 0 1 2.31 6 39.84 39.84 0 0 1 1.31 5.46c.24 1.67.31 3.48 1.26 4.75a3.31 3.31 0 0 1 .56.82c.37 1-.53 2.2-.6 3.34s.65 2 .51 3.12a8.31 8.31 0 0 1-.79 2 4.69 4.69 0 0 0-.14 3.39c.26.72.72 1.33 1 2.05a9.36 9.36 0 0 1 .34 3.57l-.15 4.57a13.06 13.06 0 0 0 .09 2.66 5.13 5.13 0 0 0 3.41 4c.76.23 1.58.29 2.32.56 2 .74 3.08 2.93 5 3.7s4.79-.11 6.72 1a3.52 3.52 0 0 0 1.59.74 4.14 4.14 0 0 0 1.16-.3 15.35 15.35 0 0 1 3.24-.21c2.8-.22 5.39-2.17 7.78-4a2.27 2.27 0 0 0 1.16-2.65 11.49 11.49 0 0 1 1.5-6.85c.69-1.21 1.58-2.31 2.18-3.56 1.09-2.33 1-4.9.91-7.34-.07-1.71-.18-3.53-1.15-4.78-1.46-1.88-4.33-1.84-6.15-3.33-1.52-1.25-2.13-3.44-3.59-4.78a20.35 20.35 0 0 0-3.1-1.92c-4-2.49-5.78-7.71-9.68-10.38a9.89 9.89 0 0 1-2.3-1.76c-1.1-1.36-1.09-3.42-1.33-5.28a16.38 16.38 0 0 0-1.55-5.12c-.69-1.37-1.78-2.72-3.32-2.66a7.08 7.08 0 0 1-2 .16c-1.08-.27-1.53-1.78-2.66-1.89-.86-.08-1.67.69-2.31 1.41-1.1 1.25-2 2.6-3.08 3.9a27 27 0 0 0-2.23 2.44c-1.67 2.74.59 5.22 1.78 7.17z"/></clipPath></defs><path class="cls-2" d="M212.1 90a4.44 4.44 0 0 0 3.29-3.54 12.65 12.65 0 0 0-.23-5.08 48.4 48.4 0 0 0-3.41-12.23c-1.81-3.84-4.74-7.31-8.66-8.95-4.3-1.79-9.18-1.18-13.78-1.89a24.12 24.12 0 0 1-11.12-4.77c-2.44-1.89-4.5-4.24-6.91-6.18s-5.33-3.49-8.41-3.38-6.24 2.37-6.51 5.44a9.77 9.77 0 0 0 .68 3.84A93.66 93.66 0 0 0 176 86.14c3.86 4.35 8.32 8.46 13.85 10.28 4.55 1.5 10 1.08 13.78-1.63A47.45 47.45 0 0 1 212 90z"/><path class="cls-2" d="M121.57 195c-20.82-.18-42.41-2.88-60.08-13.89S31.11 149 35.29 128.62c2.18-10.65 8.57-20 15.91-28 4.27-4.66 8.94-9 12.26-14.43s5.15-12.11 3.11-18.09c-1.6-4.7-5.5-9-4.58-13.9a12.36 12.36 0 0 1 3.18-5.67c5.43-6.15 12.89-10.15 20.55-13.1A101.51 101.51 0 0 1 114 29c6.75-.54 13.68-.39 20.1 1.77s12.32 6.52 15.18 12.67c5.93 12.77-2.59 28.29 1.63 41.73 1.72 5.49 5.48 10.16 9.91 13.83 9 7.44 20.47 11 31.09 15.8s21.27 11.93 25.16 22.93c3.74 10.57.27 22.54-5.9 31.9-12.78 19.39-37.5 30.11-60.39 26.2"/><path class="cls-2" d="M78.42 178.56q-15.51 20-29.87 42c-1.06 1.63-2.19 4-1.4 6.36a3.93 3.93 0 0 0 3.85 2.65c37.69 3 74.25-7.38 111.78-6.89 9.71.13 19.6 1 28.76-2.61s12.61-12.15 15.58-26.31c.61-2.88 5-15.27 2-21s-15.54-5.82-23.14-6.86-15 .19-22.46 1.41z"/><path class="cls-3" d="M223.8 161.77v-.18c-.24-4-3.66-6.44-6.69-7.65-7.06-2.84-14.49-4-21.89-4.95-21.31-2.74-42.76-4-64.19-5.18l-45.64-2.6c-7-.4-11.57-.85-18.12 2.91a194.79 194.79 0 0 0-18.83 12.32 212.77 212.77 0 0 0-20.16 17 5.66 5.66 0 0 0-2.09 3.5 3.42 3.42 0 0 0 .09 1.07 5.42 5.42 0 0 0 2.39 3.09c4.07 2.77 8.69 4 13.26 4.91 10.61 2.19 21.36 3.28 32.1 4.35 34.83 3.48 69.68 6.86 104.63 8.66 4.63.24 9.35.43 13.84-1.32 5.25-2 9.75-6.59 14-11.25q7.34-8.08 14.12-17a14.33 14.33 0 0 0 3.12-6.12 7.74 7.74 0 0 0 .1-1.08c-.02-.2-.03-.34-.04-.48z"/><path class="cls-4" d="M152.88 165.7c-26.5-1-52.67-10.6-79-7.27-5.12.65-10.84 2.27-13.15 6.89a5.73 5.73 0 0 0-.67 2.8c.17 2.78 3 4.58 5.62 5.54 10.58 3.85 22.55 1.67 33.31 5 8.76 2.71 16.13 8.89 24.89 11.62s18.38 1.78 27.48.11 18.17-4 27.42-4c4.83 0 9.68.71 14.46 0a25 25 0 0 0 12.59-5.79c1.28-1.1 2.52-2.51 2.57-4.19.06-1.9-1.4-3.48-2.85-4.7a33.61 33.61 0 0 0-17.2-7.54c-10.11-1.31-20.66 2-30.45-.85"/><path class="cls-5" d="M223.72 163.27a7.74 7.74 0 0 0 .1-1.08v-.6c-.24-4-3.66-6.44-6.69-7.65-7.06-2.84-14.49-4-21.89-4.95-21.31-2.74-42.76-4-64.19-5.18l-45.64-2.6c-7-.4-11.57-.85-18.12 2.91a194.79 194.79 0 0 0-18.83 12.32 212.77 212.77 0 0 0-20.16 17 5.66 5.66 0 0 0-2.09 3.5 3.42 3.42 0 0 0 .09 1.07 5.42 5.42 0 0 0 2.39 3.09 26.64 26.64 0 0 0 6.49 3.15 277.25 277.25 0 0 1 30.4-26c3.47-2.55 7-5 10.89-6.1a31.34 31.34 0 0 1 8.78-.77A796.17 796.17 0 0 1 208.5 162c3.09.51 6.52 1.3 8.29 4.59a13.27 13.27 0 0 1 1.21 6.11 222.6 222.6 0 0 0 2.57-3.31 14.33 14.33 0 0 0 3.15-6.12z"/><path class="cls-6" d="M143.48 91.46c1.06-1.8 2.12-3.61 3.24-5.36a12.8 12.8 0 0 1 3.66-4.17 1.79 1.79 0 0 1 .83-.33 1.93 1.93 0 0 1 1 .3 14.25 14.25 0 0 1 1.86 1.23 3.29 3.29 0 0 1 1.38 1.87 4.71 4.71 0 0 1-.88 3.13L151 94.42a8.41 8.41 0 0 1-1.41 2 4.1 4.1 0 0 1-4.6.49 3.57 3.57 0 0 1-1.69-1.55 2.58 2.58 0 0 1 0-2.43m-7.61-16.41a3.41 3.41 0 0 1 1.21-1 3 3 0 0 1 2.52.51 26.22 26.22 0 0 1 2.66 1.78 3.5 3.5 0 0 1 1.46 1.87 4.42 4.42 0 0 1-.77 3 42.2 42.2 0 0 1-4.67 6.85 3.78 3.78 0 0 1-1.22 1.08c-1.11.51-2.27-.27-3.21-1-1.48-1.18-3.11-3-2.41-5.29a23.42 23.42 0 0 1 4.43-7.8zm-11.27-8.76a3.49 3.49 0 0 0-1.3 1.24q-3.24 4.35-6.11 9a1.2 1.2 0 0 0-.19.45 1 1 0 0 0 .26.66 13.93 13.93 0 0 0 3.8 3.59c1 .62 2.24 1.1 3.27.46a4.43 4.43 0 0 0 1.16-1.27 42.66 42.66 0 0 0 3.91-7.68c.66-1.63 1.14-4-.16-5.31-.93-.9-3.46-1.64-4.64-1.14zm-13.33-6.46a2.19 2.19 0 0 1 .93-.95 1.61 1.61 0 0 1 1.12.1 14.41 14.41 0 0 1 4.24 2.36 3.56 3.56 0 0 1 1.49 2.27 4.72 4.72 0 0 1-1.2 3.06l-3.23 4.54a6.39 6.39 0 0 1-2 2c-1.2.65-2.57.27-3.82-.12-5.26-1.63.59-10.32 2.47-13.26z"/><path class="cls-7" d="M100.92 67.92c1.31-2.47 4.11-3.35 6.16-1.88a6.46 6.46 0 0 1 1.13 1 18.78 18.78 0 0 0 2.21 2.62c1.58 1.24 3.74 1 5.61 1.56 2.78.91 4.7 3.75 7.37 5 2 .91 4.3.87 6.24 1.91 2.16 1.16 3.62 3.53 5.72 4.81 2.72 1.64 6.25 1.29 8.73 3.33 1.42 1.16 2.33 3 3.74 4.14a9.18 9.18 0 0 0 4.24 1.81c2.2.44 3.57 2.87 3 5.39l-.49 2.26a5.08 5.08 0 0 1-.61 1.57c-4.66 7.56-14.82 17.63-21 23.12C122.5 134 110.66 142.6 98.3 148a11.61 11.61 0 0 1-12.16-1.73c-2.1-1.77-3.81-4.37-6.39-5-1.94-.48-4.09.27-6-.46-2.75-1.08-3.89-4.91-6.45-6.43-1.6-.94-3.55-.88-5.21-1.67-3.85-1.85-6.36-9.08-10.5-7.78a8.16 8.16 0 0 1-7.08-1.08c-2.75-1.92-4.59-5.6-7.79-6.34-.77-.17-1.57-.16-2.34-.3-2.25-.42-4-2-5.55-4s-.5-6.78 1.28-8.53c1.6-1.58 2.81-.73 5-1.27 3.53-.89 7.15-.56 10.72-.48 14.19.33 29-3.49 40.81-13.18a20.16 20.16 0 0 0 3.57-3.58c1.18-1.63 2-3.56 3.11-5.25 1.24-1.88 2.83-3.43 4-5.37a14.64 14.64 0 0 0 1.52-3.48 5.45 5.45 0 0 1 .46-1.18z"/><path class="cls-8" d="M77.07 125.79a11.23 11.23 0 0 1-3.18-1.39L50.4 111.19a35.61 35.61 0 0 0-5-2.44 23.8 23.8 0 0 1-3.84-1.48c-.9-.52-1.7-1.23-2.56-1.83a11.58 11.58 0 0 0-4.48-1.89c-1.8.29-2.94-.27-4.4 1.16-1.78 1.75-2.78 6.64-1.28 8.53s3.3 3.57 5.55 4c.77.14 1.57.13 2.34.3 3.2.74 5 4.42 7.79 6.34a8.16 8.16 0 0 0 7.12 1.12c4.14-1.3 6.65 5.93 10.5 7.78 1.66.79 3.61.73 5.21 1.67 2.56 1.52 3.7 5.35 6.45 6.43 1.86.73 4 0 6 .46 2.58.63 4.29 3.23 6.39 5A11.61 11.61 0 0 0 98.3 148c.7-.3 1.39-.62 2.08-1-.22-.53-.6-.95-.87-1.46-4.75-8.9-12.76-17.68-22.44-19.75z"/><path class="cls-9" d="M28.68 117.2a5.6 5.6 0 0 0 2.83 1.51c1.86.37 3.79-.26 5.64-.87 2.14-.72.66-.28 2.8-1a5.72 5.72 0 0 0 2.06-1 2.6 2.6 0 0 0 .94-2.19 3.13 3.13 0 0 0-1.63-2l-2.59-1.71a7.55 7.55 0 0 0-2.46-1.22 7.56 7.56 0 0 0-2.72.09c-1.87.3-5.62-.28-6.95.82s.87 6.37 2.08 7.57zm21.46 11.37a6.39 6.39 0 0 1-3.41-.52 8.47 8.47 0 0 1-2.13-1.85 3.32 3.32 0 0 1-1.18-2.64c.18-1.06 1.16-1.66 2-2.11 4.17-2.17 8.76-5.25 12.59-.67 4.9 5.85-4.96 7.62-7.87 7.79zm18.36 10.15a6.87 6.87 0 0 1-4 .33 7.45 7.45 0 0 1-2.94-2.15c-.83-.84-1.72-1.91-1.45-3.05a3.37 3.37 0 0 1 1.7-1.87 43.81 43.81 0 0 1 5.19-3.11c2.92-1.45 8.8-1.45 8.89 3.71s-3.64 5.01-7.39 6.14zm22.5 6.03c-2.25 1.74-2.94 2.69-6 3.84a8.36 8.36 0 0 1-2 .57 9.55 9.55 0 0 1-4.5-1 8.35 8.35 0 0 1-2.82-1.55 2.42 2.42 0 0 1-.78-2.71 3.1 3.1 0 0 1 1.41-1.15l4.17-2.23a17.81 17.81 0 0 1 4.49-1.89 7.29 7.29 0 0 1 5 .59A4.43 4.43 0 0 1 92.3 142a2.41 2.41 0 0 1-1.3 2.75"/><path class="cls-8" d="M80.79 106.24c10.41-4.43 19-13.23 27.34-21.83a40.41 40.41 0 0 0 6.63-8.16 165.94 165.94 0 0 1-21.55 19.14c-8.36 6.2-17.42 11.56-27.11 13.39-2.69.51-5.93.5-8.41 2 2.81.78 6.88-.47 9.77-.92a56.49 56.49 0 0 0 13.33-3.62zm15.72 5.33c2.57-1.61 5.07-3.39 7.51-5.26a154.73 154.73 0 0 0 19.47-17.73 12.73 12.73 0 0 0 3.07-4.53 152.08 152.08 0 0 1-50.1 34.41c-1.1.46-2.65.76-3.49 1.69 2.64 1.32 8-1.31 10.6-2.26a69.1 69.1 0 0 0 12.94-6.32zM139 94.61c.5-.6 1-1.49.63-2.14.7 1.17-16.91 16.06-18.62 17.42a150.27 150.27 0 0 1-21 14c-3.42 1.89-7.44 3.16-10.67 5.4 2.19.05 4.8-1.16 6.88-2a95.84 95.84 0 0 0 11.36-5.72 114.49 114.49 0 0 0 21.07-15.82A120.4 120.4 0 0 0 139 94.61z"/><path class="cls-10" d="M109.07 86.26c-.72.7-1.44 1.39-2.22 2-1 .78-2.06 1.42-3 2.28-1.3 1.21-2.28 2.81-3.48 4.14-1.71 1.89-3.9 3.27-5.18 5.56.42.45 1.13.17 1.67-.15a21.93 21.93 0 0 0 5-4.18c.8-.91 1.53-1.89 2.37-2.74 2.75-2.81 6.39-4.16 9.26-6.81 1.76-1.64 3.2-3.75 5.15-5.07a1.55 1.55 0 0 0 .67-.67 1.16 1.16 0 0 0-.64-1.31c-1.75-1-2.77.36-4 1.6zm14.87 5.54c-.4.54-.71 1.16-1.13 1.67a7.34 7.34 0 0 1-1.33 1.17l-5.33 4a5.79 5.79 0 0 0-2.28 2.61.62.62 0 0 0 0 .55.46.46 0 0 0 .21.13 3.08 3.08 0 0 0 2.3-.48 26.47 26.47 0 0 0 4.15-2.65c1.72-1.34 3.43-3 5.46-3.28 1-.15 2 0 3 0a3.29 3.29 0 0 0 2.68-1.38.8.8 0 0 0 .16-.46c0-.26-.23-.42-.41-.58a2.71 2.71 0 0 1-.39-3.18c.22-.4.57-.83.44-1.27a1 1 0 0 0-.24-.35 3 3 0 0 0-3.88 0c-.45.38-.82.9-1.24 1.31a18.21 18.21 0 0 0-2.17 2.19zm23.86 8.58c-.37.78-3.18 1.53-3.75 3.86a10.59 10.59 0 0 1-.39 1.57 4.46 4.46 0 0 1-.88 1.23c-1.82 2-3.73 3.83-5.67 5.63s-4.13 3.75-6 5.82a48.62 48.62 0 0 1-4.54 4.74c-1.35 1.11-3 2.13-3.45 3.93a.39.39 0 0 0 0 .26.31.31 0 0 0 .23.2 2.21 2.21 0 0 0 1.85-.57c5.32-3.7 10.06-8.47 14.8-13.07 2.93-2.84 5.83-5.73 8.59-8.78a10.38 10.38 0 0 0 2.17-3.27 4.29 4.29 0 0 0 .23-2.59 1.21 1.21 0 0 1-.06-.91c.08-.12.2-.2.24-.34.08-.29-.25-.47-.51-.49a2.2 2.2 0 0 0-.44 0c-.78.1-1.46 1.35-1.59 1.73s-.46.28-.83 1.05zm-40.73-30.57c-.62-.3-1.23-1.57-1.94-2.24a.41.41 0 0 0-.24-.13.42.42 0 0 0-.26.18 27.94 27.94 0 0 0-1.91 2.27 14.82 14.82 0 0 0-3 6.11 2.35 2.35 0 0 1-.25.83 1.85 1.85 0 0 1-.41.47 19 19 0 0 0-3 3.61 2.86 2.86 0 0 0-.51 1.25c0 .46.19 1 .58 1a1 1 0 0 0 .69-.24c.7-.5 1.25-1.24 1.91-1.81 1.28-1.08 3-1.53 3.91-3a10.64 10.64 0 0 0 .78-2c.56-1.57 1.55-3.11 3-3.6a6.36 6.36 0 0 0 1-.32 1.17 1.17 0 0 0 .67-.81 1.43 1.43 0 0 0 .07-.91c-.16-.39-.47-.36-1.09-.66z"/><path class="cls-11" d="M104.3 127.45c-.62.49-1.21 1-1.86 1.46a8.45 8.45 0 0 1-3.35 1.2 8.89 8.89 0 0 0-1.89.42 2.54 2.54 0 0 0-1.45 1.41 1.06 1.06 0 0 0 0 .82 1 1 0 0 0 .64.46c1.79.59 3.79.44 5.46 1.36.84.47 1.62 1.21 2.58 1.15a3.06 3.06 0 0 0 2-1.3c.54-.67 1-1.45 1.56-2.07 1.18-1.27 2.84-1.83 3.93-3.19s1.38-3.09 2.39-4.4 3.26-1.82 1.66-3.58c-2-2.18-4.25 1.56-5.93 2.79s-3.94 2.02-5.74 3.47zm-51.06-22.93c-1.85-.14-3.79-.6-5.54.24a1 1 0 0 0-.64.78.82.82 0 0 0 .44.65c1.19.76 2.71.28 4.11.35s2.63.65 4 .63a9 9 0 0 0 2.49-.5l3.69-1.09c.58-.17 2-.81 1.42-1.75-.38-.62-1.8-.18-2.33-.09a29.82 29.82 0 0 1-7.64.78zm21.95 6.09c-1.67.34-3.4.26-5 .93a6.75 6.75 0 0 1-2.15.76c-.64 0-1.26-.28-1.91-.25a2.26 2.26 0 0 0-1.9 1.46 2.23 2.23 0 0 0 .51 2.41 3.65 3.65 0 0 0 2.47.42 6.8 6.8 0 0 1 3 .68 4.26 4.26 0 0 0 1.18.46 2 2 0 0 0 1.86-1 2.85 2.85 0 0 0 .3-2.31 1.5 1.5 0 0 1-.13-.83 1 1 0 0 1 .46-.54 10.32 10.32 0 0 1 3.29-.86c.77-.18 4.62-1.19 3.48-2.63-.81-.94-4.35 1.08-5.46 1.3zm14.81 7.9c-1 .42-2.06.59-3.08.95a4.81 4.81 0 0 0-2.63 2 1.2 1.2 0 0 0-.2.71c.07.49.62.64 1.06.62 1.8-.11 3.44-1.31 5.15-2.06 1.29-.57 2.65-.88 4-1.42 1.14-.47 5.43-3.5 2.33-4.42-1.93-.56-4.82 2.86-6.63 3.62z"/><path class="cls-12" d="M158.57 94.07c0 2.86 3.08 4.29 5 6.31s2.55 4.72 4.6 6.45c.89.76 2 1.28 2.86 2.06 1.72 1.55 2.34 2.5 4.17 3.94.94.74 4 1.74 5 2.42 2.47 1.68 3.61 4.84 6.41 6a25.36 25.36 0 0 0 3.08.85c1.85.51 1.64 2.4 3.46 3a7.38 7.38 0 0 0 5.82-.28c3.35-1.87 4.63-4.83 7.63-7.22a69.31 69.31 0 0 0 6.07-6.41c1.73-2 4.52-5.69 5.19-8.08.74-2.62 1.66-2.11 1.64-4.73 0-1.07-1.37-1-1.78-2.7-.25-1-9.39-8.83-12.78-12.26a54 54 0 0 0-7.08-6.33c-1.72-1.21-3.6-2.23-5.18-3.59-1.16-1-2.15-2.15-3.4-3a10.29 10.29 0 0 0-5.38-1.83 8.84 8.84 0 0 0-5.78 1.73c-.79.69-1.42 1.53-2.18 2.25-2 1.88-4.76 2.86-6.55 4.89-1.35 1.53-2 3.52-3.57 4.86-.86.75-1.94 1.23-2.79 2a10.19 10.19 0 0 0-2.16 3.06c-1.12 1.95-2.26 4.54-2.3 6.61z"/><path class="cls-13" d="M210.61 101.3c-.79.8-1.18 1.9-2.06 2.6-.39.3-.84.51-1.23.81-1.12.85-1.51 2.28-2.43 3.33-.64.73-1.52 1.25-2.18 2-1.16 1.26-1.56 3-2.91 4.14-.91.73-2.22 1.15-2.64 2.18a7.8 7.8 0 0 0-.24 1 6.87 6.87 0 0 1-1.76 2.42c-.58.64-1.14 2.77.05 3.18s6-4.53 7.25-5.38a34.76 34.76 0 0 0 6.33-6.38l3.44-4.13a8 8 0 0 0 1.26-1.84c.45-1 .38-2.19.91-3.21s2.72-3.39.82-4c-.88-.25-1.44.64-2 1.18-.78.85-1.83 1.32-2.61 2.1z"/><path class="cls-14" d="M182 68.68a8.9 8.9 0 0 0-2.26 1.85c-.54.55-1.13 1.25-.95 1.91a1.67 1.67 0 0 0 .41.64l.89 1a1.19 1.19 0 0 0 .84.51 1.57 1.57 0 0 0 .75-.28 23.91 23.91 0 0 0 2-1.3 5.11 5.11 0 0 0 1.92-2.06c.88-2.21-1.86-3.17-3.6-2.27zm-2.41 10.22a11.53 11.53 0 0 0-1.44 1.76 1.63 1.63 0 0 0-.29.61 1.32 1.32 0 0 0 .48 1.11 2.75 2.75 0 0 0 2.5 1 3.74 3.74 0 0 0 1.11-.52c1.5-1 4.32-3.27 2.77-4.89-1.38-1.41-3.72-.45-5.13.93zm-14.21-16.34a2.91 2.91 0 0 0-.68 1.1 11.82 11.82 0 0 0-.79 3 1 1 0 0 0 0 .56.83.83 0 0 0 .43.33 4.71 4.71 0 0 0 1.31.44 1.9 1.9 0 0 0 1.39-.33 3.53 3.53 0 0 0 1-1.68c.38-1.05 1.16-3.1.15-3.84-.57-.52-2.19-.14-2.81.42zM173.07 93c-.37.44-.75 1-.6 1.49a1.34 1.34 0 0 0 .4.54 5.89 5.89 0 0 0 .84.65 2 2 0 0 0 1.15.41c1.89-.08 4.14-3.38 3.61-5-.93-2.74-4.33.63-5.4 1.91zm-7.85-12.56c-.08.67.5 1.16 1 1.54a1.77 1.77 0 0 0 .82.38 2 2 0 0 0 1.36-.58 17 17 0 0 0 3-3.27c1.21-1.62-.64-3.2-2.35-2.37-1.24.59-3.69 3.1-3.83 4.3zm2.46 26.83a2.07 2.07 0 0 0 .6 1.36 1.39 1.39 0 0 0 .53.46 1.26 1.26 0 0 0 .67.07c1.37-.14 2.49-1.27 3.42-2.33.79-.9 1.73-2.13 1.17-3.22a2.08 2.08 0 0 0-2.23-1c-1.53.39-4.1 3.29-4.16 4.66zm-17.46-24.85a2.54 2.54 0 0 0-.31 1.49 1.84 1.84 0 0 0 .36.71 2.51 2.51 0 0 0 .89.79 1.54 1.54 0 0 0 1.26 0 2.57 2.57 0 0 0 .77-.66c1.07-1.21 3.66-4.12 1.62-5.2s-3.87 1.26-4.59 2.87zm36.97 6.67a1.78 1.78 0 0 0-.36.6c-.18.58.24 1.08.64 1.48a2.13 2.13 0 0 0 1.72.83 2.85 2.85 0 0 0 1.31-.77c1.29-1.17 3.57-3.49 1.76-4.86s-3.99 1.33-5.07 2.72zm5.17-10.79a2.2 2.2 0 0 0 .49.83 2.82 2.82 0 0 0 2 1.24 3 3 0 0 0 1.73-.58 8.32 8.32 0 0 0 1.37-1.28c.92-1 .94-1.73.1-2.58a3.21 3.21 0 0 0-2.2-1.14c-1.55.03-3.85 2-3.49 3.51zm-8.8 24.81a2.91 2.91 0 0 0-.84 1.66 1.89 1.89 0 0 0 1.05 1.59 2 2 0 0 0 1.54.3 3.06 3.06 0 0 0 1.25-.9 28.63 28.63 0 0 0 2-2.32 2.6 2.6 0 0 0 .67-1.52 1.62 1.62 0 0 0-.23-.68c-1.44-2.42-4.16.38-5.44 1.87zm7.37-9.11a6 6 0 0 0-.74.94 1 1 0 0 0-.19.53 1.16 1.16 0 0 0 .14.48 1.69 1.69 0 0 0 2.71.92 5.27 5.27 0 0 0 1.15-1.04 8.33 8.33 0 0 0 1.83-3.42 1.39 1.39 0 0 0 0-.73 1 1 0 0 0-.4-.45c-1.7-1.02-3.43 1.71-4.5 2.77zm18.32-16a1.09 1.09 0 0 0 .13.53 3.88 3.88 0 0 0 .76 1.16 1.37 1.37 0 0 0 .8.47 2 2 0 0 0 1.18-.4c1.37-.81 5.68-3.17 2.8-4.49a3.13 3.13 0 0 0-2.66.18c-.83.37-2.96 1.55-3.01 2.55zm-4.44 20.44a4.36 4.36 0 0 0-1.93 2.59A1.85 1.85 0 0 0 204 103a1.31 1.31 0 0 0 .74.09 1.79 1.79 0 0 0 .6-.27 18.56 18.56 0 0 0 2.63-2.13 3.89 3.89 0 0 0 1.14-1.43 1.71 1.71 0 0 0-.16-1.47c-1.07-1.74-2.75-.38-4.14.65zm-10.56 7.73a2 2 0 0 0-.62 1.13 1.08 1.08 0 0 0 .19.58 1.73 1.73 0 0 0 1.69.71 4.56 4.56 0 0 0 2.38-1.47 6.21 6.21 0 0 0 1.68-2.23c.42-1.17-.77-2.13-2-1.78s-2.57 2.15-3.32 3.06zm-15.96 21a2.74 2.74 0 0 0-.8 2.21 2.06 2.06 0 0 0 1 1 2.1 2.1 0 0 0 1.42.42c1.86-.28 3.94-3.43 3.26-5-1-2.23-3.82-.03-4.88 1.37z"/><path class="cls-15" d="M132.05 123.13a24.1 24.1 0 0 1 2.31 6 39.84 39.84 0 0 1 1.31 5.46c.24 1.67.31 3.48 1.26 4.75a3.31 3.31 0 0 1 .56.82c.37 1-.53 2.2-.6 3.34s.65 2 .51 3.12a8.31 8.31 0 0 1-.79 2 4.69 4.69 0 0 0-.14 3.39c.26.72.72 1.33 1 2.05a9.36 9.36 0 0 1 .34 3.57l-.15 4.57a13.06 13.06 0 0 0 .09 2.66 5.13 5.13 0 0 0 3.41 4c.76.23 1.58.29 2.32.56 2 .74 3.08 2.93 5 3.7s4.79-.11 6.72 1a3.52 3.52 0 0 0 1.59.74 4.14 4.14 0 0 0 1.16-.3 15.35 15.35 0 0 1 3.24-.21c2.8-.22 5.39-2.17 7.78-4a2.27 2.27 0 0 0 1.16-2.65 11.49 11.49 0 0 1 1.5-6.85c.69-1.21 1.58-2.31 2.18-3.56 1.09-2.33 1-4.9.91-7.34-.07-1.71-.18-3.53-1.15-4.78-1.46-1.88-4.33-1.84-6.15-3.33-1.52-1.25-2.13-3.44-3.59-4.78a20.35 20.35 0 0 0-3.1-1.92c-4-2.49-5.78-7.71-9.68-10.38a9.89 9.89 0 0 1-2.3-1.76c-1.1-1.36-1.09-3.42-1.33-5.28a16.38 16.38 0 0 0-1.55-5.12c-.69-1.37-1.78-2.72-3.32-2.66a7.08 7.08 0 0 1-2 .16c-1.08-.27-1.53-1.78-2.66-1.89-.86-.08-1.67.69-2.31 1.41-1.1 1.25-2 2.6-3.08 3.9a27 27 0 0 0-2.23 2.44c-1.67 2.74.59 5.22 1.78 7.17z"/><g class="cls-16"><path class="cls-17" d="M125.34 119.07a13.29 13.29 0 0 1 3-3.37c1.23-.85 2.87-1.16 3.92-.36s1.31 2.58 2.42 3.38a14.14 14.14 0 0 0 1.52.73c2.56 1.37 2.27 5.37 3.51 8.12.62 1.4 1.69 2.53 2.08 4.05.49 1.95-.25 4.16-1.06 6.18a7.29 7.29 0 0 0-.66 2.41 5.69 5.69 0 0 0 .35 1.79l2.14 6.9c.43 1.38 1 1.33 2 2.23.72.63 1.55 2.45 2.33 3 2.39 1.65 3.08 5.07 5.08 7.2 3.06 3.25 8.26 2.84 12.72 3.59a4.92 4.92 0 0 1 1.74.55 5.36 5.36 0 0 1 1.45 1.51c.46.63.31 1.79.77 2.43.86 1.15 2.33 1.78 3.18 2.93a3.52 3.52 0 0 1 .77 1.53 4.66 4.66 0 0 1-.6 2.36l-2.47 5.39a6.91 6.91 0 0 1-1 1.73c-1.11 1.25-2.83 1.42-4.33 1.39a29.67 29.67 0 0 1-11.51-2.53c-4.16-1.85-8.1-4.75-12.85-4.39-2.16.16-4.52 1-6.32 0a6.07 6.07 0 0 1-2.38-3.3 29.47 29.47 0 0 1-2-11.13c.06-4.75 1.19-9.62.87-14.3-.17-2.41-.83-4.91-2.66-6.15-1.65-1.12-4-1.06-5.36-2.58-1-1.11-1.11-2.78-1.17-4.36a82.09 82.09 0 0 1 .65-14.06m26.85 10.29a2.83 2.83 0 0 0-.36 3.57 8.84 8.84 0 0 0 2.76 3.06.7.7 0 0 0 .74.13.85.85 0 0 0 .3-.76 8.72 8.72 0 0 1-.23-2 10.38 10.38 0 0 1 .89-1.8 4.09 4.09 0 0 0-.66-3.45 1.8 1.8 0 0 0-.73-.83c-.71-.33-2.24 1.5-2.71 2.08z"/></g><path class="cls-17" d="M155 154a7 7 0 0 1 .58 2.74 3.19 3.19 0 0 0 1.22 2.45 1.22 1.22 0 0 0 .67.2c.67 0 1-.84 1.08-1.49a5.33 5.33 0 0 0-.28-2.28 5.3 5.3 0 0 1-.67-2.62c.24-1.34.91-4.22-1.7-3.5-2.43.69-1.74 3.15-.9 4.5zm13.39 4.11a15 15 0 0 0-.59 2.7 7.39 7.39 0 0 0 .89 4.25 2.58 2.58 0 0 0 .85-2 19.78 19.78 0 0 1 0-2.18c.23-2 2.05-3.69 2.12-5.66a16.35 16.35 0 0 1-.07-2.32c.12-.67.52-1.29.7-2s0-1.5-.66-1.55c-1.29-.11-1.42 2.34-1.65 3.16q-.82 2.82-1.59 5.6z"/><path class="cls-18" d="M120.41 162.61a7.66 7.66 0 0 1 1.47-2.54c4.53-5.83 9.81-11 16.06-14.25 4.53-2.33 9.45-3.56 14.33-4.78a23.4 23.4 0 0 1-1.63 3.05l-4.64 7.82a13.51 13.51 0 0 1-2.63 3.48 16.41 16.41 0 0 1-4.24 2.14c-3.16 1.36-6 3.54-9 5.28s-6.36 3.07-9.78 2.54"/><path class="cls-19" d="M70.24 74.79a64.1 64.1 0 0 0 16.44 14.62A33.51 33.51 0 0 0 97.77 94c1.39.26 3.84 1.14 4.15-1.05.23-1.68-1.67-3.71-2.52-4.84A34.52 34.52 0 0 0 82 75.82a28.43 28.43 0 0 0-11.76-1.03z"/><path class="cls-20" d="M206.48 186.41c-4.23 4.66-8.73 9.2-14 11.25-4.49 1.75-9.21 1.56-13.84 1.32-34.95-1.8-69.8-5.18-104.63-8.66-10.74-1.07-21.49-2.16-32.1-4.35-4.57-.95-9.19-2.14-13.26-4.91a5.42 5.42 0 0 1-2.37-3.06v.15c1.47 6.91 3.48 13 7.07 15.56 4.69 3.36 14.67 4 20 4.95 41.35 7.53 84.32 11 126.13 14.06 3.91.29 7.93.55 11.69-1.09a28.3 28.3 0 0 0 7.7-5.66 121.93 121.93 0 0 0 13.67-14.51c5.61-7.09 10.34-15.79 11.14-28.16a14.33 14.33 0 0 1-3.12 6.12q-6.72 8.88-14.08 16.99z"/><path class="cls-2" d="M39.48 64.7a31.1 31.1 0 0 0 .78 7.44 7.1 7.1 0 0 0 1 2.68c1.36 2 4.37 2.1 6.41.88 6-3.57 9.21-17.24 5.55-23.3-1.92-3.19-5.2-3-7.92-.77-3.74 3.01-5.65 8.45-5.82 13.07zm121.6-39.09A16.58 16.58 0 0 0 163.3 33a3.37 3.37 0 0 0 1.13 1.21 3.26 3.26 0 0 0 1.93.26c6.12-.67 10.59-8.44 6.6-13.69-4.33-5.67-12.45-1.96-11.88 4.83z"/></svg>
