<svg viewBox="0 0 250 250" xmlns="http://www.w3.org/2000/svg" xmlns:xlink="http://www.w3.org/1999/xlink"><clipPath id="a"><path d="m124.26 114.94c-7.1-2.74-14.18-5.64-20.64-9.67-4.78-3-9.21-6.59-14.34-8.91-6.46-2.91-14-3.84-19.26-8.64-.82-.75-6.8 0-7.88 2.11a229.76 229.76 0 0 0 -11.3 25.67 8.5 8.5 0 0 0 -.75 3.69c.25 2.61 2.71 4.37 5 5.7 8.13 4.82 16.72 8.81 25.29 12.8l24 11.17a185.52 185.52 0 0 0 19.5 8.17c4.21 1.39 8.52 2.48 12.83 3.52q13.1 3.16 26.3 5.81c2.8.56 5.9 1.06 8.35-.41 2.66-1.6 3.6-4.94 4.16-8a180.5 180.5 0 0 0 2.23-22.87c.08-1.43-3.23-3.51-4.41-3.52-2.09 0-4.67-1.34-6.66-1.95q-7.23-2.2-14.39-4.59-14.14-4.7-28.03-10.08z"/></clipPath><clipPath id="b"><path d="m149.65 87.69q7.38.57 14.68 1.77a12.56 12.56 0 0 0 3.76.26 11.32 11.32 0 0 0 4-1.59 82.49 82.49 0 0 0 15.61-11.47 26.38 26.38 0 0 0 5.89-7.26c1.86-3.74 2.15-8 2.3-12.22.1-2.71.12-5.54-1.11-8a31.66 31.66 0 0 0 -6.72-1 2.77 2.77 0 0 0 -1.34.19 2.89 2.89 0 0 0 -1.15 1.63l-6.39 15.19c-1.53 3.65-3.1 7.36-5.57 10.47s-6 5.58-10 5.89c-2.58.2-5.13-.52-7.68-.95a35 35 0 0 0 -12.49.15c-4.71.91-9.69 2.77-14.11.9a4.49 4.49 0 0 0 -1.69-.52 1.16 1.16 0 0 0 -1.08 1.72c.38.65 1.61.65 2.24.89a52.69 52.69 0 0 0 6.64 2.32c4.69 1.08 9.48 1.26 14.21 1.63z"/></clipPath><path d="m86.62 48.3a29.61 29.61 0 0 0 -2.89 4.76 14.93 14.93 0 0 0 .79 13.44 1.39 1.39 0 0 0 2.35.58c4.72-3.07 7.15-8.22 10-12.83 2.08-3.31 8-7.72 7.58-11.72-.27-3-4.48-6.41-7.47-6.15-4.54.4-7.98 8.54-10.36 11.92z" fill="#4C57FF"/><path d="m135.09 179-23.44-3.39c-5.9-.85-11.87-1.72-17.4-4s-10.51-5.84-15.62-9c-7.32-4.58-15.13-8.42-22-13.7-14.15-10.91-23.52-28.61-22.48-46.48a32 32 0 0 1 3.78-14.08 24.28 24.28 0 0 1 24.48-11.54c4.89.83 9.5 3.19 14.46 3.37 6.35.24 12.33-3.17 17-7.51s8.29-9.62 12.57-14.31a69.81 69.81 0 0 1 23.35-16.78c3.41-1.5 7.07-2.75 10.78-2.43 5.91.5 10.76 4.82 14.61 9.33s7.32 9.57 12.46 12.52c7.69 4.45 17.36 3.29 25.83 6a29.1 29.1 0 0 1 17.08 40.9c-3.19 6.28-8.77 11.74-9.26 18.77-.44 6.42 3.54 12.25 5 18.52 3 13.23-6.11 26.84-18 33.37s-25.93 7.56-39.48 8.25" fill="#4C57FF"/><path d="m149.64 142.35c-16-2.56-32.33-3.36-48.32-1s-31.6 7.86-44.5 17.13c-10 7.21-18.85 18.24-17 30.11 1.4 9.21 8.92 16.57 17.13 21.65 14.62 9.05 32.31 12.9 49.72 13s34.64-3.43 51.31-8.18c7.27-2.07 14.53-4.41 21-8.21s18-13.36 20.71-20.1c4.36-10.84-5.16-23.51-14.24-31.73-8.67-7.84-24.7-10.88-35.81-12.67z" fill="#4C57FF"/><g fill="none" stroke="#003d32" stroke-miterlimit="10" stroke-width="3"><path d="m158.27 102.26c-17.94-4.74-36.56-7.51-55.1-6.67s-37 5.39-52.8 14.51c-12.29 7.1-23.62 18.71-22.9 32.47.55 10.7 8.31 20 17.12 26.7 15.67 12 35.45 18.41 55.34 20.49s40 0 59.57-3.52c8.54-1.54 17.11-3.39 24.91-7s22.09-13.23 26-20.63c6.22-11.89-3.23-27.45-12.67-37.88-9-9.87-26.97-15.17-39.47-18.47z"/><path d="m205 130.07a236.64 236.64 0 0 0 -24.6-5c-47.86-6.75-96.45-5.09-144.75-3.42"/><path d="m181.15 110.26c-36.91-3.06-87.42-5.49-124.41-3.52"/><path d="m210.93 143.72c-60.32-6.37-123.72-4.48-184.34-2.55"/><path d="m208.85 161.69c-59.37-1.9-115.36-2.77-174.77-2.71"/><path d="m188 177.43c-49.72-2-89.41-.34-139-4.21"/><path d="m96.54 95.94a586.33 586.33 0 0 0 -40.54 80.77"/><path d="m126.59 95.87c-1 3.85-2.33 7.63-3.53 11.44-8.36 26.6-12.21 54.38-16 82"/><path d="m59.56 105.06a288.82 288.82 0 0 0 -26.27 52.84"/><path d="m155 101.42a669.23 669.23 0 0 1 -2.51 86"/><path d="m181.92 109.53a515.57 515.57 0 0 1 7.82 66.47"/></g><path d="m124.26 114.94c-7.1-2.74-14.18-5.64-20.64-9.67-4.78-3-9.21-6.59-14.34-8.91-6.46-2.91-14-3.84-19.26-8.64-.82-.75-6.8 0-7.88 2.11a229.76 229.76 0 0 0 -11.3 25.67 8.5 8.5 0 0 0 -.75 3.69c.25 2.61 2.71 4.37 5 5.7 8.13 4.82 16.72 8.81 25.29 12.8l24 11.17a185.52 185.52 0 0 0 19.5 8.17c4.21 1.39 8.52 2.48 12.83 3.52q13.1 3.16 26.3 5.81c2.8.56 5.9 1.06 8.35-.41 2.66-1.6 3.6-4.94 4.16-8a180.5 180.5 0 0 0 2.23-22.87c.08-1.43-3.23-3.51-4.41-3.52-2.09 0-4.67-1.34-6.66-1.95q-7.23-2.2-14.39-4.59-14.14-4.7-28.03-10.08z" fill="#935650"/><g clip-path="url(#a)"><path d="m119.67 145.86-15.43-5.23c-5.64-1.91-11.29-3.83-16.71-6.28-10.34-4.68-19.71-11.26-28.61-18.35l-8.26 3.5c-1 .43-2.17 1.08-2.2 2.17a2.88 2.88 0 0 0 1.34 2.08c10.9 9 23.82 15.21 36.61 21.26 7.13 3.38 14.27 6.75 21.58 9.71 12.57 5.09 25.58 9 38.57 12.83 3.94 1.17 32.13 10.22 28.76-.73-1.24-4-6.83-6.85-10.46-8-6.88-2.1-14.14-3.19-21.07-5.23-8.11-2.3-16.12-5.01-24.12-7.73z" fill="#663f38"/><g fill="#ceaa94"><path d="m59.2 95.08c1.76-1.88 4.7-2.24 7.21-1.6a26.36 26.36 0 0 1 6.9 3.44c10 6.1 21.22 10.11 31.39 16 6.14 3.55 11.9 7.78 18.33 10.76 12.93 6 27.81 6.6 40.8 12.45 3.7 1.67 7.26 3.76 11.2 4.74s8.5.65 11.5-2.09c4-3.7 3.68-10.51.64-15.07s-8-7.37-12.88-9.88c-15.92-8.21-32.5-15-49.06-21.87-15.64-6.44-31.31-12.89-47.45-18-5.31-1.68-11-3.22-16.36-1.72s-9.92 7.23-8.12 12.5"/><path d="m166 138.74a61.64 61.64 0 0 1 -19.66-5.27 11 11 0 0 0 -4.3-1.19 1.24 1.24 0 0 0 -.59 2.33 21.07 21.07 0 0 0 2.16 1c8.66 3.49 17.4 4 26.69 4.84 3.28.3 7.05 2.17 10.17 3.21 1.51.5 6.06 2.32 6.85-.36.52-1.79-2.12-2.12-3.39-2.47-5.93-1.63-11.93-1.51-17.93-2.09z"/><path d="m180.53 153.28a21.27 21.27 0 0 0 -8.91-3.43 30.29 30.29 0 0 1 -4.56-.73c-2-.62-4-2-6.11-1.56-1.87.39-3.46 2.22-5.32 1.8a7.6 7.6 0 0 0 -1.45-.39c-.5 0-1.07.42-.92.9s.52.5.88.58a11.58 11.58 0 0 0 6.54-.47 5.09 5.09 0 0 1 1.68-.47 4.38 4.38 0 0 1 1.75.49 24.3 24.3 0 0 0 6.15 1.69 6.93 6.93 0 0 1 2.08.48 2 2 0 0 1 1.24 1.62c-3.52 0-6.79-2.39-10.3-2-.34 0-.77.2-.75.54a.64.64 0 0 0 .2.38c1 1.12 2.67 1.41 4.17 1.7a49.18 49.18 0 0 1 10.27 3.22 5 5 0 0 0 3.19.66c1.08-.27 1.83-1.77 1-2.52"/></g></g><path d="m63 98.51c.25-.7.68-1.53 1.42-1.51-.25 0-3.46 14.54-4.63 15.8-2.19-1.7 2.34-11.96 3.21-14.29z" fill="#663f38"/><path d="m68.56 96.37a2.86 2.86 0 0 0 -1.48-.55 1 1 0 0 0 -1 1 1.49 1.49 0 0 0 .75 1 137.29 137.29 0 0 0 17.71 10.9 6 6 0 0 0 3.91 1c.25-.06.54-.2.55-.46a.65.65 0 0 0 -.21-.43c-2.33-2.58-6.72-3.4-9.66-5.22-3.66-2.34-6.96-5.03-10.57-7.24z" fill="#ceaa94"/><path d="m126.74 133.06c-.78-.38-1.7-1.19-1.25-1.93.33-.54 1.12-.49 1.73-.31 2.42.74 6.85 2.75 7.21 2s-5.18-3.43-8.16-4.25a4 4 0 0 0 -2-.15 1.53 1.53 0 0 0 -1.2 1.49c.07.65.65 1.09 1 1.62s.44 1.47-.18 1.65a1.25 1.25 0 0 1 -.76-.1c-6.22-2.16-12.48-4.33-18.27-7.46-2.11-1.15-4.22-2.43-6.59-2.82-1.47-.24-3-.13-4.46-.27-3.17-.3-6.09-1.76-8.94-3.2a38 38 0 0 1 -5.79-3.39c-3-2.29-5.74-5.65-9.53-5.8a.88.88 0 0 0 -.6.13c-.45.35 0 1 .43 1.41a80.76 80.76 0 0 0 24.16 13.32c8.39 3.07 4 5 4.47 5.73s1.48.36 2.09 0c.92-.57.84-2 .24-2.9s-3-2-2.21-2.38 29.52 10.31 43.66 17c2.62 1.23 5.23 2.52 8 3.5.5.18 1.2.29 1.45-.18s-.11-.9-.45-1.21c-3-2.77-7.78-4-11.48-5.61q-6.31-2.88-12.57-5.89z" fill="#ceaa94"/><path d="m101.89 118.11a5.43 5.43 0 0 0 -2.81-.83.48.48 0 0 0 -.35.14c-.15.22.13.48.37.6a34.55 34.55 0 0 1 5.17 2.66c.83.6 3.17 1.4 1.67-.16-.94-1.03-2.81-1.75-4.05-2.41z" fill="#ceaa94"/><path d="m118.28 137.18a44.17 44.17 0 0 1 -7.25-2.62 10.42 10.42 0 0 0 -2.5-.91.77.77 0 0 0 -.56.06c-.42.31.1.94.57 1.17a62.93 62.93 0 0 0 10.09 4 34.83 34.83 0 0 1 5.31 2c1 .46 2.25 1.53 2.12.06-.23-2.72-5.98-3.31-7.78-3.76z" fill="#ceaa94"/><path d="m95.15 105.35a24.67 24.67 0 0 0 -5.15-1.42c-1.16-.15-2.29-.1-3.43-.16-4.89-.24-9.92-2.26-14.71-4.22-.56-.24-1.26-.63-1.17-1a49.68 49.68 0 0 0 15.59 3.72 20.56 20.56 0 0 1 3.29.36 9.55 9.55 0 0 1 2.63 1.06" fill="#ceaa94"/><path d="m79.21 123.67c-.45-.16-1.11-.23-1.28.22a.75.75 0 0 0 .15.68c.53.73 1.52.89 2.37 1.2s5.28 3.86 5.44 1.25c.11-1.63-5.38-2.9-6.68-3.35z" fill="#ceaa94"/><path d="m71.59 54.09c.6.61.36 1.61-.14 2.42s-1.24 1.55-1.67 2.39a.85.85 0 0 0 -.13.48c.08.55 1 .46 1.73.26 8.33-2.45 16.69-5.17 25.16-6.31 1.36-.19 2.62.2 4 0 .47-.07 1.16-.74 1.75 0 .92 1.23-2.05 5-3.87 5.74-6.16 2.61-12.42 5.22-18.88 6.38a1.48 1.48 0 0 0 .74 1.21c.25.08.62-.18.58-.4.81.14 1 1 1 1.66a22 22 0 0 1 -.1 3.71 3.68 3.68 0 0 1 -.43 1.59 5.48 5.48 0 0 1 -1.6 1.58c-3.52 2.55-7.78 4.17-12 5.67q-3.45 1.25-6.92 2.44a18.53 18.53 0 0 1 -4 1.08 15.54 15.54 0 0 1 -5.48-.63 33.28 33.28 0 0 1 -4.49-1.36c-.92-.36-4.28-3.42-4.53-4.25s.17-1.05.64-1.87c4-6.88 5-14.79 12.67-19.32 2.83-1.67 6.16-3 9.29-2.74" fill="#e0b87c"/><path d="m64.73 60.33c-1.29.42-3.07.75-3.16 0s1.29-1.33 2.43-1.76l6.75-2.71a4.19 4.19 0 0 0 1.19-.62 1.22 1.22 0 0 0 .46-1c0-1.7-1.2-3-2.58-4.1a4.82 4.82 0 0 0 -2.26-1.14c-2-.38-4.9.52-7.46 1.4a42.57 42.57 0 0 0 -8.78 3.74 25.2 25.2 0 0 0 -6.94 6.92 28.18 28.18 0 0 0 -3.87 6.19 10.58 10.58 0 0 0 .38 7.75c1 2.66 2.63 5.33 6.78 6 3 .47 6.75-.18 10.4-1 4.73-1 9.49-2.27 14.21-3.75a19.39 19.39 0 0 0 5.53-2.43 8.51 8.51 0 0 0 2.19-2.4 7.56 7.56 0 0 0 1.38-5.55 1.64 1.64 0 0 0 -.82-1.25c-.92-.48-2.61-.25-4.15.08a55.75 55.75 0 0 0 -7.6 2.16c-.76.27-1.69.57-2.12.32s-.07-.77.47-1.14a8 8 0 0 1 1.91-.82q14.69-4.76 29.45-9a7.64 7.64 0 0 0 3.5-1.68c.84-1 0-1.74-1-2.21-1.43-.73-3.58-2-5.85-2s-6.17 1.86-8.7 2.67q-10.84 3.76-21.74 7.33z" fill="#ffcf8f"/><path d="m62.39 55a9.09 9.09 0 0 0 -3.86 1.53 7 7 0 0 0 -1.78 2.47c-.55 1.09-1.06 2.28-.69 3.28a2.07 2.07 0 0 0 3.94-1.28 7 7 0 0 1 -.15-2 3.05 3.05 0 0 1 1.43-2 10.9 10.9 0 0 1 2.94-1c.7-.18 2.47-.75 1.74-1.53-.44-.47-2.88.34-3.57.53z" fill="#cea972"/><path d="m70.71 68.4a13.52 13.52 0 0 1 -3.69.85 3.73 3.73 0 0 1 -3.1-1c-.46-.58-.64-1.44-1.49-1.62a2.07 2.07 0 0 0 -2.15 1.35 2.52 2.52 0 0 0 .52 2.14 3.63 3.63 0 0 0 3.41 1.8 14.46 14.46 0 0 0 3.28-1.3c1.78-.7 5.81-.25 7.14-1.5 2.46-2.36-2.83-1.12-3.92-.72z" fill="#cea972"/><path d="m50.4 57.29c-.64.56-1.33 1.33-1 1.94 1.27-.23 2.26-1.19 3.34-1.89s5.42-2.19 3.72-3.08-4.99 2.1-6.06 3.03z" fill="#ffe1c0"/><path d="m43 66.67a4 4 0 0 0 -.19 1.47v6.24a1.24 1.24 0 0 0 .24.91c.5.51 1.73.08 2.17-.59a2.77 2.77 0 0 0 .24-2.1l-.46-2.7a3.67 3.67 0 0 1 .15-2.33 9.59 9.59 0 0 1 1.18-1.5c.62-.74 3.25-5.45 1.16-4.35-.74.39-1.61 1.87-2.27 2.46a7.48 7.48 0 0 0 -2.22 2.49z" fill="#ffe1c0"/><path d="m149.65 87.69q7.38.57 14.68 1.77a12.56 12.56 0 0 0 3.76.26 11.32 11.32 0 0 0 4-1.59 82.49 82.49 0 0 0 15.61-11.47 26.38 26.38 0 0 0 5.89-7.26c1.86-3.74 2.15-8 2.3-12.22.1-2.71.12-5.54-1.11-8a31.66 31.66 0 0 0 -6.72-1 2.77 2.77 0 0 0 -1.34.19 2.89 2.89 0 0 0 -1.15 1.63l-6.39 15.19c-1.53 3.65-3.1 7.36-5.57 10.47s-6 5.58-10 5.89c-2.58.2-5.13-.52-7.68-.95a35 35 0 0 0 -12.49.15c-4.71.91-9.69 2.77-14.11.9a4.49 4.49 0 0 0 -1.69-.52 1.16 1.16 0 0 0 -1.08 1.72c.38.65 1.61.65 2.24.89a52.69 52.69 0 0 0 6.64 2.32c4.69 1.08 9.48 1.26 14.21 1.63z" fill="#C834F7"/><g clip-path="url(#b)"><path d="m172.22 75.24 3.91 4.9a2.49 2.49 0 0 0 .8.75.85.85 0 0 0 1-.14c.37-.43 0-1.08-.34-1.53l-3.42-4.37a2.08 2.08 0 0 1 -.47-.86.7.7 0 0 1 .4-.81c.33-.12.67.13.93.37 1.45 1.41 2.54 3.47 4.52 3.88.41-.86-.32-1.81-1-2.51a29.1 29.1 0 0 1 -3.75-5.08 7 7 0 0 1 4.82 3c.37.55.85 1.26 1.51 1.12-.49-2.23-3-3.69-3.21-6a6.32 6.32 0 0 1 .25-2.2l.59-2.6 3.45 3.5c.31.31.74.65 1.14.47a.75.75 0 0 0 .29-1 2.18 2.18 0 0 0 -.72-.82c-.88-.71-1.42-2.24-2.12-3.13a2.21 2.21 0 0 1 -.56-1.08.77.77 0 0 1 .67-.87c.95 0 2 .08 3 .05.23 0 .53-.08.54-.3a.44.44 0 0 0 -.09-.27c-1.36-2.18-4.41-2.83-6.85-2a11.69 11.69 0 0 0 -5.71 4.95c-1.41 2.15-2.46 4.51-3.89 6.64a9.25 9.25 0 0 1 -2.74 2.86 16 16 0 0 1 -3.91 1.36 23.17 23.17 0 0 0 -6.81 3.23 1.27 1.27 0 0 0 -.5.53 1.35 1.35 0 0 0 0 .53l.26 3.7a2.21 2.21 0 0 0 .35 1.27.77.77 0 0 0 1.16.11 2.16 2.16 0 0 0 .21-.62c.28-.87 1.35-1.15 2.26-1.29.58 0 1 .63 1.11 1.2a8.83 8.83 0 0 0 .38 1.71c.25.52.92.93 1.42.63s.58-1.18 1.16-1.29 1.32.5 1.54 0a8 8 0 0 1 0-4c.08-.33.23-.71.56-.81a.92.92 0 0 1 .64.12 4 4 0 0 1 1.81 2.61 20 20 0 0 0 .91 3.15.82.82 0 0 0 .29.37c.31.19.74-.11.83-.47a1.9 1.9 0 0 0 -.18-1.07 16 16 0 0 1 -.77-3.25c0-.22 0-.49.16-.59a.52.52 0 0 1 .42 0c1.43.71 1.73 2.71 2.91 3.71a.73.73 0 0 0 .47.23c.49 0 .56-.71.44-1.19a12.48 12.48 0 0 0 -1.29-3.38 10 10 0 0 1 -1-1.66 2 2 0 0 1 .14-1.85 1.57 1.57 0 0 1 2.08.09z" fill="#d81e46"/><path d="m185.65 47.27a23.26 23.26 0 0 0 5.78 10.56c.58.61 1.19 1.18 1.74 1.81a4.16 4.16 0 0 1 .54.71 6.1 6.1 0 0 1 .37.92l1.82 5.56a13.82 13.82 0 0 0 1.81-6.66 37.72 37.72 0 0 0 -.6-7 16.89 16.89 0 0 0 -1.05-4.17 27.76 27.76 0 0 0 -1.69-3 8 8 0 0 0 -2.18-2.77 3.47 3.47 0 0 0 -2.53-.5 4.51 4.51 0 0 0 -2.45 1.5 12.83 12.83 0 0 0 -1.63 2.42" fill="#ce1d43"/></g><path d="m182.67 47c-2.21 1.26-4.53 2.8-5.29 5.23l7.13-2.6c.45-.16 1.05-.28 1.32.11a1.13 1.13 0 0 1 .15.48l.5 3.45a20.71 20.71 0 0 1 3.66-3.21q1.2 2.75 2.13 5.6a29.83 29.83 0 0 0 2.5-4.91 36.73 36.73 0 0 0 4.06 3.42c.23.17.53.34.77.19a.63.63 0 0 0 .26-.49c.35-2-1.05-3.88-2.49-5.34a16.13 16.13 0 0 0 -7-4.6c-2.88-.81-5.3 1.25-7.7 2.67z" fill="#89cfbb"/><path d="m188 39.39a.44.44 0 0 1 0-.37.31.31 0 0 1 .18-.11 1.86 1.86 0 0 1 1.49-.12 2 2 0 0 1 .83 1.33c.29 1 2.47 6.79.48 6.35-1.58-.35-2.41-5.69-2.98-7.08z" fill="#89cfbb"/><path d="m212.59 131.16a20 20 0 0 0 1.73 3.83 8.47 8.47 0 0 0 .8 1.09 5.56 5.56 0 0 0 4.88 2.12c13-2.05-16.13-30.68-7.41-7.04z" fill="#4C57FF"/><path d="m121.49 28.67a6 6 0 0 1 2.14 4.33 6.38 6.38 0 0 1 -1 3.63c-1.65 2.6-4.38 4-7.07 5.19-.87.39-1.94.76-2.73.23a2.83 2.83 0 0 1 -.91-1.3 21.15 21.15 0 0 1 -2.05-6.3 7.09 7.09 0 0 1 2-6.06 7.61 7.61 0 0 1 9.62.28z" fill="#4C57FF"/></svg>
