<?xml version="1.0" encoding="UTF-8"?>
<!DOCTYPE svg PUBLIC "-//W3C//DTD SVG 1.1//EN" "http://www.w3.org/Graphics/SVG/1.1/DTD/svg11.dtd">
<!-- Creator: CorelDRAW 2018 (64-Bit Evaluation Version) -->
<svg xmlns="http://www.w3.org/2000/svg" xml:space="preserve" width="428.007mm" height="321.733mm" version="1.1" style="shape-rendering:geometricPrecision; text-rendering:geometricPrecision; image-rendering:optimizeQuality; fill-rule:evenodd; clip-rule:evenodd"
viewBox="0 0 42800.76 32173.35"
 xmlns:xlink="http://www.w3.org/1999/xlink">
 <defs>
  <style type="text/css">
   <![CDATA[
    .str0 {stroke:#3B9CFF;stroke-width:84.67;stroke-miterlimit:22.9256;stroke-opacity:0.30}
    .str3 {stroke:#3B9CFF;stroke-width:42.33;stroke-miterlimit:22.9256;stroke-opacity:0.36}
    .str2 {stroke:#3B9CFF;stroke-width:42.33;stroke-miterlimit:22.9256;stroke-opacity:0.45}
    .str1 {stroke:#3B9CFF;stroke-width:20;stroke-miterlimit:22.9256;stroke-opacity:0.45}
    .fil6 {fill:none}
    .fil28 {fill:none}
    .fil16 {fill:none}
    .fil20 {fill:#00C2FF}
    .fil19 {fill:#FBD13E}
    .fil1 {fill:white}
    .fil17 {fill:#00C2FF;fill-rule:nonzero}
    .fil18 {fill:#3B9CFF;fill-rule:nonzero}
    .fil7 {fill:#3B9CFF;fill-opacity:0.15}
    .fil22 {fill:#3B9CFF;fill-opacity:0.15}
    .fil0 {fill: none;
    fill-opacity: 0.109804;}
    .fil8 {fill:#3B9CFF;fill-opacity:0.30}
    .fil12 {fill:#00C2FF;fill-opacity:0.30}
    .fil21 {fill:#99D2FF;fill-opacity:0.33}
    .fil4 {fill:#3B9CFF;fill-rule:nonzero;fill-opacity:0.33}
    .fil24 {fill:#00C2FF;fill-opacity:0.36}
    .fil27 {fill:#00C2FF;fill-opacity:0.36}
    .fil23 {fill:#3B9CFF;fill-opacity:0.36}
    .fil26 {fill:#CDF4FF;fill-opacity:0.36}
    .fil25 {fill:white;fill-opacity:0.36}
    .fil15 {fill:#3B9CFF;fill-opacity:0.45}
    .fil5 {fill:#99E7FF;fill-opacity:0.45}
    .fil3 {fill:#3B9CFF;fill-rule:nonzero;fill-opacity:0.45}
    .fil11 {fill:#3B9CFF;fill-opacity:0.45}
    .fil10 {fill:#99D2FF;fill-opacity:0.45}
    .fil9 {fill:#99E7FF;fill-opacity:0.15}
    .fil14 {fill:#ADECFF;fill-opacity:0.45}
    .fil13 {fill:white;fill-opacity:0.45}
    .fil2 {fill:white}
   ]]>
  </style>
 </defs>
 <g id="Layer_x0020_1">
  <metadata id="CorelCorpID_0Corel-Layer"/>
  <path class="fil0" d="M-0 0l42800.76 0 0 32173.35 -42800.76 0 0 -32173.35zm18539.54 25119.32c34.88,-375.44 4.23,-799.25 -31.2,-1180.39l-33.9 -253.51c-72.87,-428.21 -189.7,-792.1 -331.83,-1196.65 -38.48,-109.51 -70.52,-176.44 -109.2,-267.83l-259.03 -509.63c-34.14,-60.47 -37.61,-75.27 -66.49,-125.01l-382.94 -572.82c-91.4,-123.63 -196.12,-263.4 -306.96,-364.01l-131.23 -153.27c-115.95,-124.39 -306.06,-266.83 -389.62,-375.52 -47.92,-62.33 -49.78,-35.34 -107.03,-83.77 -90.31,-76.38 -114.88,-116.05 -206.89,-175.52 -58.53,-37.83 -66,-35.4 -111.66,-78.49 -399.54,-377.08 -1394.23,-813.07 -1912.85,-957.2 -1271.55,-353.36 -2713.62,-300.59 -3924.09,172.9 -368.17,144.02 -675.52,298.75 -1021.49,506.7 -192.01,115.41 -331.86,240.59 -449.13,317.3 -103.3,67.58 -131,93.41 -212.54,168.58 -59.85,55.18 -45.56,37.65 -110,81.99l-661.66 675.75c-29.19,34.02 -50.78,69.39 -81.29,107.77 -34.04,42.81 -62.6,69.22 -91.17,103.05 -110.18,130.45 -218.54,304.51 -314.56,448.23 -117.15,175.35 -237.76,411.23 -340.95,616.36l-180.27 393.7c-71.97,203.57 -134.03,351.77 -197.41,565.83 -353.09,1192.55 -324.05,2791.75 176.61,3925.06 77.33,175.05 135.18,348.94 227.28,533.98l280.61 486.42c240.14,433.5 672.6,933.14 1035.05,1257.03 294.64,263.29 551.92,441.96 866.1,661.85 139.45,97.6 342.07,217.02 483.5,284.65 851.82,407.34 1456.85,570.63 2392.3,663.45 437.25,43.39 1009.99,16.6 1423.76,-74.01 38.88,-8.52 105.88,-16 156.18,-23.26 365.64,-52.76 708.88,-189.6 1039.05,-301.04l136.13 -56.2c46.07,-21.37 82.39,-37.12 133.96,-58.61 237.47,-98.98 428.85,-221.52 652.3,-337.81 4.09,-2.13 9.03,-4.75 13.08,-7.01 333.42,-185.34 687.2,-451.38 956.94,-707 70.9,-67.19 146.44,-139.85 195.05,-186.73l776.6 -944.68c27.1,-42.26 48.12,-65.11 79.23,-112.08l180.6 -297.64c8.72,-14.44 11.55,-18.12 21.09,-38.6l75.51 -149.21c168.4,-281.6 377.21,-822.34 445.5,-1124.43l9.78 -43.5c105.78,-397.98 169.88,-792.33 209.18,-1215.17z"/>
  <rect class="fil1" x="7112.37" y="2928.92" width="32949.47" height="20778.62" rx="1128.89" ry="1128.89"/>
  <path class="fil2" d="M11238.23 6408.73c1519.71,-61.78 2292.87,651.31 2185.6,2278.29l25.96 17960.66c-76.26,1088.62 -567.33,1704.54 -1529.15,1784l-7815.63 -7.71c-1014.96,-115.81 -1451.26,-792.91 -1436.47,-1907.57l-30.87 -11240.74 -42.47 -69.51 -7.73 -1563.9 61.79 -73.37 -11.59 -362.98 -46.34 -34.76 -11.58 -1617.95 65.64 -61.79 -1.9 -725.95 -94.6 -61.79 2.92 -736.57 90.75 -13.53 7.73 -1930.72c146.48,-1043.17 754.5,-1572.34 1807.18,-1606.39l6780.76 -7.72z"/>
  <path class="fil3" d="M4135.38 9066.95l-77.36 0 0 -263.55 -217.25 -309.59 92.61 0 163.32 231.95 165.4 -231.95 93.02 0 -219.74 309.59 0 263.55zm555.81 -99.96c24.26,-23.85 36.47,-55.18 36.47,-94 0,-38.96 -12.21,-70.01 -36.47,-93.3 -24.26,-23.43 -54.48,-35.22 -90.67,-35.49 -36.04,0 -66.41,11.64 -90.95,35.07 -24.81,23.57 -37.29,54.63 -37.29,93.31 0,38.54 12.2,69.87 36.46,93.99 24.26,24.27 54.63,36.33 91.09,36.33 36.6,0 67.1,-11.92 91.36,-35.91zm-90.95 108.28c-56.56,0 -104.53,-18.72 -144.18,-56.15 -39.65,-37.43 -59.48,-86.23 -59.48,-146.54 0,-60.31 19.55,-109.25 58.51,-146.68 38.96,-37.44 87.06,-56.01 144.46,-55.74 57.68,0 105.92,18.72 144.88,56.15 39.24,37.71 58.92,86.51 58.92,146.27 0,59.75 -19.68,108.41 -59.06,146.12 -39.37,37.71 -87.48,56.57 -144.05,56.57zm570.23 -187.03l0 -209.76 75.7 0 0 388.47 -75.7 0 0 -57.95c-11.09,21.35 -27.73,37.85 -50.05,49.22 -22.18,11.36 -45.75,17.05 -70.71,17.05 -48.1,0 -85.12,-15.11 -111.05,-45.48 -25.92,-30.36 -38.82,-72.5 -38.54,-126.44l0 -224.87 75.7 0 0 219.47c0,32.3 7.48,57.67 22.32,76.11 14.97,18.16 37.43,27.17 67.52,27.17 30.08,0 55.04,-9.42 75.14,-28.42 20.1,-18.99 29.95,-47.13 29.67,-84.57zm276.45 37.44l0 141.27 -75.7 0 0 -388.47 75.7 0 0 87.62c18.99,-63.91 54.9,-95.94 108,-95.94 30.64,0 53.1,4.99 67.52,14.84l-11.79 70.98c-17.05,-9.01 -36.18,-13.45 -57.26,-13.45 -34.24,0 -60.44,16.36 -78.88,49.08 -18.44,32.86 -27.59,77.5 -27.59,134.07zm448.36 -23.43l77.78 0c0.55,25.78 12.2,49.07 34.93,70.01 22.74,20.93 51.44,31.19 86.38,30.64 34.93,0 62.24,-7.77 82.07,-23.15 19.69,-15.39 31.47,-35.77 35.21,-60.87 4.3,-52.26 -28.14,-86.23 -97.46,-101.9l-73.89 -18.99c-93.17,-23.71 -139.75,-73.62 -139.75,-149.46 0,-46.99 18.3,-85.54 54.9,-115.48 35.21,-30.64 78.88,-45.89 130.74,-45.89 51.99,0 95.66,15.39 131.29,46.3 35.49,30.78 53.24,71.4 53.24,121.73l-77.37 0c0,-28.28 -9.98,-51.02 -30.08,-68.35 -20.52,-17.05 -45.61,-25.65 -75.42,-25.65 -29.67,0 -55.87,7.77 -78.33,23.29 -21.08,15.53 -31.61,35.77 -31.61,60.73 0,38.68 27.59,64.46 82.63,77.36l74.72 18.3c54.77,14.56 95.11,37.29 121.04,68.35 26.06,31.05 36.46,68.9 31.33,113.41 -5.13,44.64 -24.96,81.1 -59.34,109.8 -34.38,28.56 -79.02,42.84 -133.92,42.84 -54.91,0 -102.04,-16.92 -141.42,-50.88 -38.4,-35.08 -57.67,-75.84 -57.67,-122.14zm601.56 -366.01l0 142.24 81.52 0 0 67.38 -81.52 0 0 321.09 -75.7 0 0 -321.09 -69.87 0 0 -67.38 69.87 0 0 -142.24 75.7 0zm436.3 430.75c24.26,-23.85 36.47,-55.18 36.47,-94 0,-38.96 -12.21,-70.01 -36.47,-93.3 -24.26,-23.43 -54.48,-35.22 -90.67,-35.49 -36.04,0 -66.41,11.64 -90.95,35.07 -24.81,23.57 -37.29,54.63 -37.29,93.31 0,38.54 12.2,69.87 36.46,93.99 24.26,24.27 54.63,36.33 91.09,36.33 36.6,0 67.1,-11.92 91.36,-35.91zm-90.95 108.28c-56.56,0 -104.53,-18.72 -144.18,-56.15 -39.65,-37.43 -59.48,-86.23 -59.48,-146.54 0,-60.31 19.55,-109.25 58.51,-146.68 38.96,-37.44 87.06,-56.01 144.46,-55.74 57.68,0 105.92,18.72 144.88,56.15 39.24,37.71 58.92,86.51 58.92,146.27 0,59.75 -19.68,108.41 -59.06,146.12 -39.37,37.71 -87.48,56.57 -144.05,56.57zm379.74 -149.59l0 141.27 -75.7 0 0 -388.47 75.7 0 0 87.62c18.99,-63.91 54.9,-95.94 108,-95.94 30.64,0 53.1,4.99 67.52,14.84l-11.79 70.98c-17.05,-9.01 -36.18,-13.45 -57.26,-13.45 -34.24,0 -60.44,16.36 -78.88,49.08 -18.44,32.86 -27.59,77.5 -27.59,134.07zm618.47 -54.07c0,17.19 -0.28,27.03 -0.83,29.8l-315.27 0c3.74,31.34 17.61,57.26 41.45,77.92 23.02,18.99 48.8,28.56 77.5,28.56 56.15,0 95.39,-20.1 117.85,-60.31 0.55,0 1.38,0.14 2.49,0.69 0.97,0.56 2.91,1.53 5.69,2.92 3.19,1.38 7.48,3.05 12.89,4.85 5.41,1.94 9.57,3.6 12.2,4.99l31.75 11.78c-15.94,32.72 -40.07,57.95 -72.37,75.7 -32.17,17.89 -67.66,26.76 -106.34,26.76 -55.59,0 -103.01,-18.72 -142.52,-56.29 -37.57,-37.57 -56.29,-86.79 -56.29,-147.37 0,-60.73 18.72,-109.39 56.01,-146.13 37.44,-36.6 84.71,-55.04 142.11,-55.32 57.4,0 103.7,18.58 138.92,55.6 36.46,36.88 54.76,85.54 54.76,145.85zm-113.41 -106.2c-21.63,-18.58 -48.52,-27.87 -80.41,-27.87 -32.03,0 -59.48,9.29 -82.49,27.87 -22.74,19.82 -36.05,45.61 -39.79,76.94l240.82 0c-3.75,-31.33 -16.5,-57.12 -38.13,-76.94z"/>
  <path class="fil4" d="M14957.31 4854.87l-102.07 0 0 -347.74 -286.65 -408.47 122.2 0 215.48 306.03 218.23 -306.03 122.75 0 -289.94 408.47 0 347.74zm733.35 -131.89c32.01,-31.46 48.1,-72.8 48.1,-124.02 0,-51.4 -16.09,-92.38 -48.1,-123.11 -32.02,-30.91 -71.89,-46.46 -119.64,-46.83 -47.56,0 -87.62,15.37 -120,46.28 -32.74,31.1 -49.2,72.07 -49.2,123.11 0,50.85 16.09,92.19 48.11,124.02 32.01,32.01 72.07,47.93 120.18,47.93 48.29,0 88.53,-15.73 120.55,-47.38zm-120 142.87c-74.64,0 -137.93,-24.7 -190.25,-74.09 -52.31,-49.39 -78.47,-113.78 -78.47,-193.35 0,-79.57 25.79,-144.15 77.19,-193.54 51.41,-49.39 114.88,-73.9 190.61,-73.53 76.1,0 139.76,24.69 191.16,74.08 51.77,49.76 77.74,114.15 77.74,192.99 0,78.84 -25.97,143.05 -77.92,192.8 -51.96,49.76 -115.43,74.64 -190.06,74.64zm752.37 -246.77l0 -276.77 99.88 0 0 512.56 -99.88 0 0 -76.46c-14.63,28.17 -36.59,49.94 -66.04,64.94 -29.26,15 -60.36,22.5 -93.29,22.5 -63.47,0 -112.31,-19.94 -146.52,-60 -34.21,-40.06 -51.22,-95.67 -50.85,-166.83l0 -296.71 99.87 0 0 289.57c0,42.63 9.88,76.1 29.45,100.43 19.76,23.96 49.39,35.85 89.09,35.85 39.69,0 72.62,-12.44 99.14,-37.5 26.53,-25.06 39.52,-62.19 39.15,-111.58zm364.75 49.39l0 186.4 -99.88 0 0 -512.56 99.88 0 0 115.61c25.06,-84.33 72.44,-126.58 142.5,-126.58 40.43,0 70.06,6.58 89.08,19.57l-15.54 93.66c-22.5,-11.89 -47.75,-17.74 -75.55,-17.74 -45.19,0 -79.76,21.58 -104.09,64.75 -24.33,43.35 -36.4,102.26 -36.4,176.89zm591.58 -30.91l102.62 0c0.73,34.02 16.1,64.75 46.09,92.37 30,27.62 67.87,41.16 113.97,40.43 46.09,0 82.13,-10.25 108.29,-30.55 25.97,-20.3 41.52,-47.19 46.46,-80.3 5.67,-68.97 -37.13,-113.78 -128.59,-134.45l-97.5 -25.06c-122.93,-31.28 -184.39,-97.14 -184.39,-197.2 0,-62.01 24.14,-112.86 72.44,-152.37 46.46,-40.43 104.08,-60.55 172.49,-60.55 68.6,0 126.22,20.3 173.23,61.09 46.83,40.61 70.25,94.21 70.25,160.61l-102.07 0c0,-37.31 -13.18,-67.31 -39.7,-90.18 -27.07,-22.5 -60.18,-33.84 -99.51,-33.84 -39.15,0 -73.72,10.24 -103.35,30.73 -27.81,20.49 -41.71,47.2 -41.71,80.12 0,51.04 36.4,85.06 109.02,102.07l98.6 24.15c72.26,19.21 125.49,49.21 159.69,90.18 34.39,40.98 48.11,90.92 41.34,149.64 -6.76,58.9 -32.92,107.01 -78.29,144.87 -45.36,37.68 -104.26,56.53 -176.7,56.53 -72.44,0 -134.64,-22.32 -186.59,-67.14 -50.67,-46.28 -76.09,-100.06 -76.09,-161.15zm793.71 -482.93l0 187.68 107.56 0 0 88.91 -107.56 0 0 423.65 -99.88 0 0 -423.65 -92.2 0 0 -88.91 92.2 0 0 -187.68 99.88 0zm575.66 568.35c32.01,-31.46 48.1,-72.8 48.1,-124.02 0,-51.4 -16.09,-92.38 -48.1,-123.11 -32.02,-30.91 -71.89,-46.46 -119.64,-46.83 -47.56,0 -87.62,15.37 -120,46.28 -32.74,31.1 -49.2,72.07 -49.2,123.11 0,50.85 16.09,92.19 48.11,124.02 32.01,32.01 72.07,47.93 120.18,47.93 48.29,0 88.53,-15.73 120.55,-47.38zm-120 142.87c-74.64,0 -137.93,-24.7 -190.25,-74.09 -52.31,-49.39 -78.47,-113.78 -78.47,-193.35 0,-79.57 25.79,-144.15 77.19,-193.54 51.41,-49.39 114.88,-73.9 190.61,-73.53 76.1,0 139.76,24.69 191.16,74.08 51.77,49.76 77.74,114.15 77.74,192.99 0,78.84 -25.97,143.05 -77.92,192.8 -51.96,49.76 -115.43,74.64 -190.06,74.64zm501.03 -197.38l0 186.4 -99.88 0 0 -512.56 99.88 0 0 115.61c25.06,-84.33 72.44,-126.58 142.5,-126.58 40.43,0 70.06,6.58 89.08,19.57l-15.54 93.66c-22.5,-11.89 -47.75,-17.74 -75.55,-17.74 -45.19,0 -79.76,21.58 -104.09,64.75 -24.33,43.35 -36.4,102.26 -36.4,176.89zm816.03 -71.34c0,22.68 -0.37,35.67 -1.1,39.33l-415.97 0c4.94,41.34 23.23,75.55 54.69,102.8 30.37,25.06 64.39,37.68 102.26,37.68 74.08,0 125.85,-26.52 155.48,-79.57 0.73,0 1.83,0.18 3.3,0.92 1.28,0.73 3.84,2.01 7.5,3.84 4.2,1.83 9.87,4.02 17.01,6.4 7.13,2.56 12.62,4.76 16.09,6.59l41.89 15.54c-21.03,43.17 -52.86,76.47 -95.48,99.88 -42.44,23.6 -89.27,35.31 -140.31,35.31 -73.35,0 -135.91,-24.7 -188.04,-74.27 -49.58,-49.57 -74.27,-114.51 -74.27,-194.45 0,-80.12 24.69,-144.33 73.9,-192.8 49.39,-48.3 111.77,-72.63 187.5,-72.99 75.73,0 136.83,24.51 183.29,73.35 48.11,48.66 72.26,112.87 72.26,192.44zm-149.64 -140.12c-28.53,-24.51 -64.02,-36.77 -106.09,-36.77 -42.26,0 -78.48,12.26 -108.84,36.77 -30,26.16 -47.56,60.18 -52.5,101.52l317.74 0c-4.94,-41.34 -21.77,-75.36 -50.31,-101.52z"/>
  <path class="fil5" d="M11397.93 8268.85c231.97,0 420.02,189.04 420.02,422.24 0,233.19 -188.05,422.23 -420.02,422.23 -231.97,0 -420.02,-189.04 -420.02,-422.23 0,-233.2 188.05,-422.24 420.02,-422.24z"/>
  <path class="fil6 str0" d="M4429.47 10200.31l6685.14 0c344.4,0 626.18,281.78 626.18,626.18l0 0.01c0,344.4 -281.78,626.18 -626.18,626.18l-6685.14 0c-344.4,0 -626.18,-281.78 -626.18,-626.18l0 -0.01c0,-344.4 281.78,-626.18 626.18,-626.18z"/>
  <path class="fil7" d="M3741.57 12678.6l1966.74 0c72.76,0 132.29,59.53 132.29,132.29l0 0c0,72.76 -59.53,132.29 -132.29,132.29l-1966.74 0c-72.76,0 -132.29,-59.53 -132.29,-132.29l0 0c0,-72.76 59.53,-132.29 132.29,-132.29z"/>
  <path class="fil7" d="M8019.01 14248.49l3955.51 0c72.76,0 132.3,59.53 132.3,132.29l0 0c0,72.76 -59.54,132.29 -132.3,132.29l-3955.51 0c-72.76,0 -132.3,-59.53 -132.3,-132.29l0 0c0,-72.76 59.54,-132.29 132.3,-132.29z"/>
  <path class="fil7" d="M5827.37 14248.49l1490.49 0c72.76,0 132.29,59.53 132.29,132.29l0 0c0,72.76 -59.53,132.29 -132.29,132.29l-1490.49 0c-72.76,0 -132.29,-59.53 -132.29,-132.29l0 0c0,-72.76 59.53,-132.29 132.29,-132.29z"/>
  <path class="fil7" d="M5836.2 13728.14l3876.14 0c72.77,0 132.3,59.53 132.3,132.29l0 0c0,72.76 -59.53,132.29 -132.3,132.29l-3876.14 0c-72.77,0 -132.3,-59.53 -132.3,-132.29l0 0c0,-72.76 59.53,-132.29 132.3,-132.29z"/>
  <path class="fil7" d="M5815.84 15829.88l1490.49 0c72.76,0 132.29,59.53 132.29,132.29l0 0c0,72.76 -59.53,132.29 -132.29,132.29l-1490.49 0c-72.76,0 -132.29,-59.53 -132.29,-132.29l0 0c0,-72.76 59.53,-132.29 132.29,-132.29z"/>
  <path class="fil7" d="M5824.67 15309.53l3876.14 0c72.77,0 132.3,59.53 132.3,132.29l0 0c0,72.76 -59.53,132.29 -132.3,132.29l-3876.14 0c-72.77,0 -132.3,-59.53 -132.3,-132.29l0 0c0,-72.76 59.53,-132.29 132.3,-132.29z"/>
  <path class="fil7" d="M5804.31 17411.27l1490.49 0c72.76,0 132.29,59.53 132.29,132.29l0 0c0,72.76 -59.53,132.29 -132.29,132.29l-1490.49 0c-72.76,0 -132.29,-59.53 -132.29,-132.29l0 0c0,-72.76 59.53,-132.29 132.29,-132.29z"/>
  <path class="fil7" d="M5813.14 16890.92l3876.14 0c72.77,0 132.3,59.53 132.3,132.29l0 0c0,72.76 -59.53,132.29 -132.3,132.29l-3876.14 0c-72.77,0 -132.3,-59.53 -132.3,-132.29l0 0c0,-72.76 59.53,-132.29 132.3,-132.29z"/>
  <path class="fil8" d="M4347.93 13710.5c227.71,0 412.31,183.61 412.31,410.11 0,226.5 -184.6,410.11 -412.31,410.11 -227.72,0 -412.32,-183.61 -412.32,-410.11 0,-226.5 184.6,-410.11 412.32,-410.11z"/>
  <path class="fil8" d="M4335.82 15291.89c227.71,0 412.31,183.61 412.31,410.11 0,226.5 -184.6,410.11 -412.31,410.11 -227.72,0 -412.32,-183.61 -412.32,-410.11 0,-226.5 184.6,-410.11 412.32,-410.11z"/>
  <polyline class="fil6 str0" points="4123.05,15726.26 4253.14,15840.91 4548.59,15604.99 "/>
  <path class="fil8" d="M4323.71 16873.27c227.71,0 412.31,183.61 412.31,410.11 0,226.5 -184.6,410.11 -412.31,410.11 -227.72,0 -412.32,-183.61 -412.32,-410.11 0,-226.5 184.6,-410.11 412.32,-410.11z"/>
  <polyline class="fil6 str0" points="4110.94,17307.64 4241.03,17422.29 4536.48,17186.37 "/>
  <path class="fil9" d="M16149.62 24940.5c94.25,24.26 46.92,-2.74 71.48,44.97l2.46 1167.7c0.33,133.17 -14.9,110.32 -40.35,129.07l-33.75 22.62 -4.36 982.67c85.58,88.72 -0.55,339.84 -55.94,413.63 -102.37,136.36 -160.33,128.22 -345.73,156.17 -66.84,117.01 -71.15,155.19 -195.82,204.55 -84.87,33.6 -283.2,49.75 -352.47,6.19 -1753.54,32.04 -3670.22,1.1 -5454.41,1.1 -1049.74,0 -1072.45,106.38 -1072.46,-731.74 -0.03,-1204.39 -0.13,-2409.54 -0.01,-3613.99 0.03,-314.62 -53.52,-603.54 176.69,-742.86 173.46,-104.98 602.41,-61.08 838.43,-61.06 577.67,0.05 1224.69,27.29 1793.78,-2.64l539.68 -530.78c180.31,-179.63 346.16,-345.8 525.89,-525.65 489.84,-490.18 697.23,-871.14 1081.16,-491.43 52.98,52.4 92.27,71.74 114.32,148.17 62.47,3.1 153.42,124.94 198.48,170 62.76,62.76 132.26,113.73 176.15,187.69 78.69,40.7 448.44,432.43 543.06,527.01 101.76,101.72 440.41,465.98 530.3,516.84l425.96 1.81c62.24,-36.59 189.15,-19.82 265.46,-3.47 83.39,17.87 135.34,56.35 187.09,102.42 151.18,134.56 129.24,412.85 87.78,469.7l-2.87 1451.31zm2389.92 178.82c34.88,-375.44 4.23,-799.25 -31.2,-1180.39l-33.9 -253.51c-72.87,-428.21 -189.7,-792.1 -331.83,-1196.65 -38.48,-109.51 -70.52,-176.44 -109.2,-267.83l-259.03 -509.63c-34.14,-60.47 -37.61,-75.27 -66.49,-125.01l-382.94 -572.82c-91.4,-123.63 -196.12,-263.4 -306.96,-364.01l-131.23 -153.27c-115.95,-124.39 -306.06,-266.83 -389.62,-375.52 -47.92,-62.33 -49.78,-35.34 -107.03,-83.77 -90.31,-76.38 -114.88,-116.05 -206.89,-175.52 -58.53,-37.83 -66,-35.4 -111.66,-78.49 -399.54,-377.08 -1394.23,-813.07 -1912.85,-957.2 -1271.55,-353.36 -2713.62,-300.59 -3924.09,172.9 -368.17,144.02 -675.52,298.75 -1021.49,506.7 -192.01,115.41 -331.86,240.59 -449.13,317.3 -103.3,67.58 -131,93.41 -212.54,168.58 -59.85,55.18 -45.56,37.65 -110,81.99l-661.66 675.75c-29.19,34.02 -50.78,69.39 -81.29,107.77 -34.04,42.81 -62.6,69.22 -91.17,103.05 -110.18,130.45 -218.54,304.51 -314.56,448.23 -117.15,175.35 -237.76,411.23 -340.95,616.36l-180.27 393.7c-71.97,203.57 -134.03,351.77 -197.41,565.83 -353.09,1192.55 -324.05,2791.75 176.61,3925.06 77.33,175.05 135.18,348.94 227.28,533.98l280.61 486.42c240.14,433.5 672.6,933.14 1035.05,1257.03 294.64,263.29 551.92,441.96 866.1,661.85 139.45,97.6 342.07,217.02 483.5,284.65 851.82,407.34 1456.85,570.63 2392.3,663.45 437.25,43.39 1009.99,16.6 1423.76,-74.01 38.88,-8.52 105.88,-16 156.18,-23.26 365.64,-52.76 708.88,-189.6 1039.05,-301.04l136.13 -56.2c46.07,-21.37 82.39,-37.12 133.96,-58.61 237.47,-98.98 428.85,-221.52 652.3,-337.81 4.09,-2.13 9.03,-4.75 13.08,-7.01 333.42,-185.34 687.2,-451.38 956.94,-707 70.9,-67.19 146.44,-139.85 195.05,-186.73l776.6 -944.68c27.1,-42.26 48.12,-65.11 79.23,-112.08l180.6 -297.64c8.72,-14.44 11.55,-18.12 21.09,-38.6l75.51 -149.21c168.4,-281.6 377.21,-822.34 445.5,-1124.43l9.78 -43.5c105.78,-397.98 169.88,-792.33 209.18,-1215.17z"/>
  <path class="fil10" d="M14459.57 27776.08l234.06 0.05c55.33,14.88 22.49,-3.8 47.44,39.34 -32.27,43.58 46.45,35.59 -164.59,35.26 -96.85,-0.15 -116.83,21.29 -116.91,-74.65zm-560.33 39.39c22.99,-41.07 -16.03,-40 142.85,-39.89 188.82,0.13 114.02,-10.16 139.19,39.89 -22.53,36.95 27.14,34.95 -139.2,34.98 -219.14,0.03 -105.52,-9.15 -142.84,-34.98zm-1680.05 -19.12c45.16,-25.72 167.57,-27.14 218.18,-21.38 100.1,11.38 34.86,4.28 66.12,21.38 -19.91,82.31 -35.77,54.47 -143.91,54.18 -95.46,-0.25 -121.52,26.08 -140.39,-54.18zm-555.99 19.12c18.08,-33.98 -15.74,-41.81 122.44,-40.05 52.82,0.68 105.19,0.83 158.03,0.73 -6.72,99.64 -0.38,75.11 -118.49,74.56 -250.02,-1.18 -122.57,-7.23 -161.98,-35.24zm-556.72 19.12l-3.14 -51.72c73.05,-10.09 229.14,-20.29 281.22,13.48 -17.39,74.88 -18.05,54.52 -113.53,54.39 -56.82,-0.07 -121.06,7.77 -164.55,-16.15zm-1123.11 -19.12c22.03,-38.95 -32.32,-39.58 139.56,-39.95 192.44,-0.42 114.63,-9.27 145.73,39.95 -36.1,45.78 17.57,20.23 -49.86,34.54l-173.54 1.32c-109.05,-14.36 -26.34,-12.09 -61.89,-35.86zm-1017.08 19.12l-3.95 -50.59c57.02,-9.28 91.53,-7.85 147.7,-8.24 93.66,-0.66 88.98,-8.45 134.68,20.59 -15.22,75.71 -16.26,54.81 -114.88,54.36 -56.55,-0.25 -120.76,7.98 -163.55,-16.12zm4377.63 0l-2.75 -50.3c72.67,-12.81 227.92,-21.66 282.35,12.06 -14.69,75.61 -4.82,55.39 -115.91,54.27 -56.77,-0.56 -118.11,8.31 -163.69,-16.03zm-557.76 0l-1.71 -38.22c59.62,-40.52 198.89,-20.92 282.33,-18.66 -8.88,93.07 -3.32,73.53 -113.4,73.02 -60.24,-0.29 -121.52,7.78 -167.22,-16.14zm-2051.35 15.23l-188.8 -7.85 0.32 -45.62c51.8,-35.23 233.22,-32.7 282.09,0 -14.93,71.29 0.14,53.47 -93.61,53.47zm-1310.07 -64.85c79.32,-16.3 223.67,-22.72 282.68,11.38 -18.71,83.48 -53.38,54.83 -158.5,54.28 -107.61,-0.57 -113.72,22.54 -124.18,-65.66zm5592.49 11.38c3.9,-2.67 9.61,-11.69 11.88,-7.72l155.88 -34.3c98.87,-33.39 81.07,-57.06 119.05,27.21 -49.81,26.06 -84.14,40.54 -153.68,54.62 -99.78,20.19 -117.71,39.69 -133.13,-39.81zm401.21 -556.71c79.45,18.98 50.65,57.16 50.5,155.7 -0.13,88.14 20.58,128.24 -50.5,123.52 -31.29,-50.54 -30.2,-177.08 -23.9,-220.6 15.54,-107.19 -4.95,-17.67 23.9,-58.62zm-22.64 -552.08l71.3 -10.69c23.43,82.3 25.42,206.35 -2,286.8 -87.44,13.51 -47.38,-1.25 -67.27,-12.88l-2.03 -263.23zm22.64 -403.33c54.62,11.83 41.83,-14.55 52.92,41.92 14.49,73.78 -13.55,63.67 -33.8,76.69 -52.88,-23.07 -29.09,27.01 -43.49,-41.87 -15.61,-74.64 22.43,-74.06 24.37,-76.74zm-1526.18 -572.14c-29.4,-225.22 144.28,-420.83 341.24,-438.45 232.63,-20.81 413.53,148.21 430.03,344.45 43.56,518.2 -708.14,577.55 -771.27,94zm1518.66 -1268.75l52.23 -0.72c37.72,290.5 3.09,275.52 -68.01,280.94 0.13,-89.78 -15.59,-199.31 15.78,-280.22zm2.06 -565.82c41.88,24.66 25.1,-9.88 46.82,53.26 3.7,10.76 54.67,214.86 -41.36,235.59 -42.16,-60.94 -18.78,-51.9 -23.49,-156.6 -4.25,-94.62 -39.37,-78.96 18.03,-132.25zm-500.97 -202.68c56.65,-14.35 255.92,-46.67 279.38,48.6 -49.8,35.64 -4.32,20.7 -136.09,14.4 -54.59,-2.61 -85.2,2.21 -140.5,-7.8l-2.79 -55.2zm-556.93 -1.77l222.98 -9.66c99.52,13.43 17.81,-4.52 55.71,21.78l-1.2 38.27c-63.26,29.46 -194.92,19.14 -273.42,7.91l-4.07 -58.3zm-2238.47 -2.66l224.73 -6.95c97.82,13.31 17.98,-4.36 54.81,21.73l-1.34 38.28c-65.39,30.77 -194.08,17.32 -274.09,9.64l-4.11 -62.7zm-558.06 33.91c13.27,-34.78 -28.62,-42.06 112.13,-41.31 57.95,0.31 110.07,-0.13 167.6,6.42l-0.56 54.02c-44.97,22.45 -89.59,13.89 -147.31,14.26 -201.48,1.28 -101.45,-8.74 -131.86,-33.39zm-1678.51 19.12l-2.09 -55.32 226.79 -4.65c77.55,10.4 34.44,6.81 56.75,21.72 -13.44,75.42 -12.17,53.63 -114.03,52.82 -60.31,-0.48 -122.61,7.67 -167.42,-14.57zm-556.3 0l-2.24 -38.22c26.95,-18.8 -46.02,-22.91 132.22,-21.78 55.38,0.35 91.97,-0.7 147.06,7.69l-0.05 52.32c-59.97,29.11 -222.27,26.2 -276.99,-0.01zm4680.05 13.74c-247,0.14 -197.73,16.75 -209.31,-51.99 57.19,-40.46 203.21,-21.45 282.83,-18.58 -4.94,78.2 3.57,65.62 -73.52,70.57zm-573.5 0c-228.88,0.18 -179.48,16.87 -192.05,-51.99 38.93,-25.71 6.78,-22.5 134.57,-21.82 60.41,0.32 84.98,-3.54 143.23,11.72 -0.31,76.64 -6.5,62.05 -85.75,62.09zm-756.75 -65.05c65.45,-11.86 225.76,-22.15 284.31,13.06 -18.42,82.06 -55.03,53.1 -159.09,52.77 -107.95,-0.36 -113.65,22.54 -125.22,-65.83zm-1479.93 65.09c-224.23,0.09 -165.9,12.87 -194.93,-32.9 18.29,-38.08 -54.7,-50.56 214.05,-40.35l69.64 5.31c-5.74,77.11 -9.52,67.91 -88.76,67.94zm-753.96 -61.19l219.49 -12.71c76.96,10.11 36.22,7.27 59.47,21.87 -16.83,82.14 -53.31,52.94 -156.45,52.72 -110.95,-0.24 -115.01,23.92 -122.51,-61.88zm-1393.21 -28.55l76.82 6.07c6.75,29.26 11.94,-8.42 6.02,33.53 -8.24,58.37 -4.75,24.89 -13.5,43.37 -108.23,-9.51 -220.05,-30.22 -266.35,-102.63 57.97,-76.79 69.07,-2.11 197.01,19.66zm6148.7 4420.59l20.98 -51.44c162.9,-14.79 287.6,14.55 390.15,-89.65 125.13,-127.12 66.71,-228.55 108.33,-386.03 4.58,-2.21 10.98,-12.26 13.32,-7.4l48.38 -2.38c-49.92,-110.17 -20.66,-1042.25 -17.88,-1250.86l250.06 -0.18 1.89 1172.9c-2.7,163.44 -40.98,191.53 -113.91,301.13 79.97,-28.45 145.71,-91.63 176.55,-181.61 17.09,-49.86 19.2,-87.51 21.24,-140.89 3.24,-84.58 -20.33,-123.43 50.85,-144.13l4.36 -982.67 33.75 -22.62c44.94,-121.3 26.49,-1053.37 15.5,-1239.41l-2093.58 -7.83c-173.4,10.39 -344.45,129.32 -401.38,290.02 -25.2,-167.8 128.12,-295.92 258.2,-342.23 206.9,-73.66 1573.05,-49.15 1796.01,-32.48 -1,-169.41 -27.27,-773.39 15.75,-891.7l-71.22 -3.12c-14.51,-150.76 58.43,-446.69 -288.81,-499.21 -48.12,-7.27 -88.02,-0.18 -130.78,-3.55 -92.98,-7.32 -65.63,-5.54 -79.99,-65.94l-60.9 7.81c-70.49,11.86 -301.78,27.42 -361.24,-20.59 -44.76,42.91 -41.31,29.53 -125.5,30.77 -49.97,0.74 -103.77,-1.41 -154.43,-1.45 -86.84,-0.08 -222.21,13.87 -284.2,-9.45l-379.98 3 -662.34 -2.09 -282.41 -1.66 -390.8 3.56 -741.47 -1.45c-53.37,38.66 -1850.51,7.1 -2171.85,7.1 -193.69,0 -561.86,44.66 -679.87,-73.97 -155.23,-156.05 -42.52,-391.88 200.93,-400.85l2244.99 5.5c58.69,-22.12 94.08,-68.17 123.32,-116.14 -569.09,29.93 -1216.11,2.69 -1793.78,2.64 -236.02,-0.02 -664.97,-43.92 -838.43,61.06 -230.21,139.32 -176.66,428.24 -176.69,742.86 -0.12,1204.45 -0.02,2409.6 0.01,3613.99 0.01,838.12 22.72,731.74 1072.46,731.74 1784.19,0 3700.87,30.94 5454.41,-1.1z"/>
  <path class="fil11" d="M12501.11 23496.69l390.8 -3.56 1111.33 -1123.83 142.86 126.13c-93.3,138.4 -902.77,863.65 -971.78,999.36l662.34 2.09c42.53,-112.42 168.49,-180.69 326.49,-180.65 5.51,-631.71 915.08,-346.75 617.62,157.78 59.46,48.01 290.75,32.45 361.24,20.59 92.7,-168.5 224.65,-153.33 122.86,-472.96l-78.67 -102.91c-89.89,-50.86 -428.54,-415.12 -530.3,-516.84 -94.62,-94.58 -464.37,-486.31 -543.06,-527.01l-1611.73 1621.81z"/>
  <path class="fil11" d="M11477.16 22916.88c-29.24,47.97 -64.63,94.02 -123.32,116.14 -32.81,63.99 -168.33,185.45 -215.91,233.03l-219.04 230.7 840.75 -1.51 1978.57 -1978.05c-22.05,-76.43 -61.34,-95.77 -114.32,-148.17 -383.93,-379.71 -591.32,1.25 -1081.16,491.43 -179.73,179.85 -345.58,346.02 -525.89,525.65l-539.68 530.78z"/>
  <path class="fil9" d="M11759.64 23495.24l741.47 1.45 1611.73 -1621.81c-43.89,-73.96 -113.39,-124.93 -176.15,-187.69 -45.06,-45.06 -136.01,-166.9 -198.48,-170l-1978.57 1978.05z"/>
  <path class="fil12" d="M11759.64 23495.24l-840.75 1.51 219.04 -230.7c47.58,-47.58 183.1,-169.04 215.91,-233.03l-2244.99 -5.5c-243.45,8.97 -356.16,244.8 -200.93,400.85 118.01,118.63 486.18,73.97 679.87,73.97 321.34,0 2118.48,31.56 2171.85,-7.1z"/>
  <path class="fil12" d="M15142.01 23494.6l60.9 -7.81c186.92,-18.12 350,1.85 456.09,110.73 157.23,161.36 82.76,227.73 114.71,461.09 -43.02,118.31 -16.75,722.29 -15.75,891.7l250.5 -0.67c2.5,-440.43 -0.18,-881.32 0.29,-1321.82 0.27,-245.28 27.82,-391.75 -143.67,-523.25 -169.61,-130.04 -375.82,-52.4 -600.21,-82.93 101.79,319.63 -30.16,304.46 -122.86,472.96z"/>
  <path class="fil13" d="M13892.26 25712.09c63.13,483.55 814.83,424.2 771.27,-94 -16.5,-196.24 -197.4,-365.26 -430.03,-344.45 -196.96,17.62 -370.64,213.23 -341.24,438.45z"/>
  <path class="fil12" d="M15776.3 27531.17l-6.97 242.61 127.13 -19.62c72.93,-109.6 111.21,-137.69 113.91,-301.13l-1.89 -1172.9 -250.06 0.18c-2.78,208.61 -32.04,1140.69 17.88,1250.86z"/>
  <path class="fil10" d="M15264.87 23021.64c224.39,30.53 430.6,-47.11 600.21,82.93 171.49,131.5 143.94,277.97 143.67,523.25 -0.47,440.5 2.21,881.39 -0.29,1321.82l141.16 -9.14 2.87 -1451.31c-63.85,-30.92 -44.96,6.49 -54.16,-88.92 -22.39,-232.25 67.13,-395.33 -471.26,-426.7l-14.91 -53.03 -425.96 -1.81 78.67 102.91z"/>
  <path class="fil9" d="M14163.15 23316.23l53.49 177.65c61.99,23.32 197.36,9.37 284.2,9.45 50.66,0.04 104.46,2.19 154.43,1.45 84.19,-1.24 80.74,12.14 125.5,-30.77 297.46,-504.53 -612.11,-789.49 -617.62,-157.78z"/>
  <path class="fil9" d="M12891.91 23493.13l282.41 1.66c69.01,-135.71 878.48,-860.96 971.78,-999.36l-142.86 -126.13 -1111.33 1123.83z"/>
  <path class="fil14" d="M16183.21 26282.24c25.45,-18.75 40.68,4.1 40.35,-129.07l-2.46 -1167.7c-24.56,-47.71 22.77,-20.71 -71.48,-44.97l-141.16 9.14 -250.5 0.67c-222.96,-16.67 -1589.11,-41.18 -1796.01,32.48 -130.08,46.31 -283.4,174.43 -258.2,342.23 56.93,-160.7 227.98,-279.63 401.38,-290.02l2093.58 7.83c10.99,186.04 29.44,1118.11 -15.5,1239.41z"/>
  <path class="fil11" d="M15896.46 27754.16l-127.13 19.62 6.97 -242.61 -48.38 2.38c-2.34,-4.86 -8.74,5.19 -13.32,7.4 -41.62,157.48 16.8,258.91 -108.33,386.03 -102.55,104.2 -227.25,74.86 -390.15,89.65l-20.98 51.44c69.27,43.56 267.6,27.41 352.47,-6.19 124.67,-49.36 128.98,-87.54 195.82,-204.55 185.4,-27.95 243.36,-19.81 345.73,-156.17 55.39,-73.79 141.52,-324.91 55.94,-413.63 -71.18,20.7 -47.61,59.55 -50.85,144.13 -2.04,53.38 -4.15,91.03 -21.24,140.89 -30.84,89.98 -96.58,153.16 -176.55,181.61z"/>
  <path class="fil11" d="M16152.49 23489.19c41.46,-56.85 63.4,-335.14 -87.78,-469.7 -51.75,-46.07 -103.7,-84.55 -187.09,-102.42 -76.31,-16.35 -203.22,-33.12 -265.46,3.47l14.91 53.03c538.39,31.37 448.87,194.45 471.26,426.7 9.2,95.41 -9.69,58 54.16,88.92z"/>
  <path class="fil11" d="M15773.71 24058.61c-31.95,-233.36 42.52,-299.73 -114.71,-461.09 -106.09,-108.88 -269.17,-128.85 -456.09,-110.73 14.36,60.4 -12.99,58.62 79.99,65.94 42.76,3.37 82.66,-3.72 130.78,3.55 347.24,52.52 274.3,348.45 288.81,499.21l71.22 3.12z"/>
  <path class="fil10" d="M13836.66 23496.88l379.98 -3 -53.49 -177.65c-158,-0.04 -283.96,68.23 -326.49,180.65z"/>
  <path class="fil13" d="M15410.92 24443.34c-31.37,80.91 -15.65,190.44 -15.78,280.22 71.1,-5.42 105.73,9.56 68.01,-280.94l-52.23 0.72z"/>
  <path class="fil13" d="M12786.16 27834.59c45.7,23.92 106.98,15.85 167.22,16.14 110.08,0.51 104.52,20.05 113.4,-73.02 -83.44,-2.26 -222.71,-21.86 -282.33,18.66l1.71 38.22z"/>
  <path class="fil13" d="M9453.72 23663.44c-178.24,-1.13 -105.27,2.98 -132.22,21.78l2.24 38.22c54.72,26.21 217.02,29.12 276.99,0.01l0.05 -52.32c-55.09,-8.39 -91.68,-7.34 -147.06,-7.69z"/>
  <path class="fil13" d="M11193.61 23737.22c79.24,-0.03 83.02,9.17 88.76,-67.94l-69.64 -5.31c-268.75,-10.21 -195.76,2.27 -214.05,40.35 29.03,45.77 -29.3,32.99 194.93,32.9z"/>
  <path class="fil13" d="M14003.79 23737.18c77.09,-4.95 68.58,7.63 73.52,-70.57 -79.62,-2.87 -225.64,-21.88 -282.83,18.58 11.58,68.74 -37.69,52.13 209.31,51.99z"/>
  <path class="fil13" d="M9707.42 27796.35c-59.01,-34.1 -203.36,-27.68 -282.68,-11.38 10.46,88.2 16.57,65.09 124.18,65.66 105.12,0.55 139.79,29.2 158.5,-54.28z"/>
  <path class="fil13" d="M15418.44 24166.37c96.03,-20.73 45.06,-224.83 41.36,-235.59 -21.72,-63.14 -4.94,-28.6 -46.82,-53.26 -57.4,53.29 -22.28,37.63 -18.03,132.25 4.71,104.7 -18.67,95.66 23.49,156.6z"/>
  <path class="fil13" d="M11785.64 27775.42c-138.18,-1.76 -104.36,6.07 -122.44,40.05 39.41,28.01 -88.04,34.06 161.98,35.24 118.11,0.55 111.77,25.08 118.49,-74.56 -52.84,0.1 -105.21,-0.05 -158.03,-0.73z"/>
  <path class="fil13" d="M12437.37 27774.97c-50.61,-5.76 -173.02,-4.34 -218.18,21.38 18.87,80.26 44.93,53.93 140.39,54.18 108.14,0.29 124,28.13 143.91,-54.18 -31.26,-17.1 33.98,-10 -66.12,-21.38z"/>
  <path class="fil13" d="M14741.07 27815.47c-24.95,-43.14 7.89,-24.46 -47.44,-39.34l-234.06 -0.05c0.08,95.94 20.06,74.5 116.91,74.65 211.04,0.33 132.32,8.32 164.59,-35.26z"/>
  <path class="fil13" d="M13343.92 27834.59c45.58,24.34 106.92,15.47 163.69,16.03 111.09,1.12 101.22,21.34 115.91,-54.27 -54.43,-33.72 -209.68,-24.87 -282.35,-12.06l2.75 50.3z"/>
  <path class="fil13" d="M10122.93 27775.52c-171.88,0.37 -117.53,1 -139.56,39.95 35.55,23.77 -47.16,21.5 61.89,35.86l173.54 -1.32c67.43,-14.31 13.76,11.24 49.86,-34.54 -31.1,-49.22 46.71,-40.37 -145.73,-39.95z"/>
  <path class="fil13" d="M12957.85 23685.19c-58.55,-35.21 -218.86,-24.92 -284.31,-13.06 11.57,88.37 17.27,65.47 125.22,65.83 104.06,0.33 140.67,29.29 159.09,-52.77z"/>
  <path class="fil13" d="M11670.68 23663.01c-140.75,-0.75 -98.86,6.53 -112.13,41.31 30.41,24.65 -69.62,34.67 131.86,33.39 57.72,-0.37 102.34,8.19 147.31,-14.26l0.56 -54.02c-57.53,-6.55 -109.65,-6.11 -167.6,-6.42z"/>
  <path class="fil13" d="M14042.09 27775.58c-158.88,-0.11 -119.86,-1.18 -142.85,39.89 37.32,25.83 -76.3,35.01 142.84,34.98 166.34,-0.03 116.67,1.97 139.2,-34.98 -25.17,-50.05 49.63,-39.76 -139.19,-39.89z"/>
  <path class="fil13" d="M9110.04 27775.76c-56.17,0.39 -90.68,-1.04 -147.7,8.24l3.95 50.59c42.79,24.1 107,15.87 163.55,16.12 98.62,0.45 99.66,21.35 114.88,-54.36 -45.7,-29.04 -41.02,-21.25 -134.68,-20.59z"/>
  <path class="fil13" d="M10104.74 23663.47l-226.79 4.65 2.09 55.32c44.81,22.24 107.11,14.09 167.42,14.57 101.86,0.81 100.59,22.6 114.03,-52.82 -22.31,-14.91 20.8,-11.32 -56.75,-21.72z"/>
  <path class="fil13" d="M11384.56 27796.35c-52.08,-33.77 -208.17,-23.57 -281.22,-13.48l3.14 51.72c43.49,23.92 107.73,16.08 164.55,16.15 95.48,0.13 96.14,20.49 113.53,-54.39z"/>
  <path class="fil13" d="M15418.44 27239.64c-28.85,40.95 -8.36,-48.57 -23.9,58.62 -6.3,43.52 -7.39,170.06 23.9,220.6 71.08,4.72 50.37,-35.38 50.5,-123.52 0.15,-98.54 28.95,-136.72 -50.5,-155.7z"/>
  <path class="fil13" d="M13430.29 23737.18c79.25,-0.04 85.44,14.55 85.75,-62.09 -58.25,-15.26 -82.82,-11.4 -143.23,-11.72 -127.79,-0.68 -95.64,-3.89 -134.57,21.82 12.57,68.86 -36.83,52.17 192.05,51.99z"/>
  <path class="fil13" d="M12396.15 23685.19c-36.83,-26.09 43.01,-8.42 -54.81,-21.73l-224.73 6.95 4.11 62.7c80.01,7.68 208.7,21.13 274.09,-9.64l1.34 -38.28z"/>
  <path class="fil13" d="M15017.23 27796.35c15.42,79.5 33.35,60 133.13,39.81 69.54,-14.08 103.87,-28.56 153.68,-54.62 -37.98,-84.27 -20.18,-60.6 -119.05,-27.21l-155.88 34.3c-2.27,-3.97 -7.98,5.05 -11.88,7.72z"/>
  <path class="fil13" d="M15191.39 23723.44c-23.46,-95.27 -222.73,-62.95 -279.38,-48.6l2.79 55.2c55.3,10.01 85.91,5.19 140.5,7.8 131.77,6.3 86.29,21.24 136.09,-14.4z"/>
  <path class="fil13" d="M10734.81 27849.82c93.75,0 78.68,17.82 93.61,-53.47 -48.87,-32.7 -230.29,-35.23 -282.09,0l-0.32 45.62 188.8 7.85z"/>
  <path class="fil13" d="M14633.77 23685.19c-37.9,-26.3 43.81,-8.35 -55.71,-21.78l-222.98 9.66 4.07 58.3c78.5,11.23 210.16,21.55 273.42,-7.91l1.2 -38.27z"/>
  <path class="fil13" d="M9115.78 23730.45l1.61 -63.07c-24.99,-0.36 -26.12,1.79 -42.58,-4.4l-28.37 -15.5c-127.94,-21.77 -139.04,-96.45 -197.01,-19.66 46.3,72.41 158.12,93.12 266.35,102.63z"/>
  <path class="fil13" d="M10659.14 23663.32l-219.49 12.71c7.5,85.8 11.56,61.64 122.51,61.88 103.14,0.22 139.62,29.42 156.45,-52.72 -23.25,-14.6 17.49,-11.76 -59.47,-21.87z"/>
  <polygon class="fil13" points="15397.83,26950.79 15463.1,26953.44 15460.34,26689.64 15395.8,26687.56 "/>
  <path class="fil13" d="M15437.56 26402.84c20.25,-13.02 48.29,-2.91 33.8,-76.69 -11.09,-56.47 1.7,-30.09 -52.92,-41.92 -1.94,2.68 -39.98,2.1 -24.37,76.74 14.4,68.88 -9.39,18.8 43.49,41.87z"/>
  <path class="fil13" d="M15397.83 26950.79c19.89,11.63 -20.17,26.39 67.27,12.88 27.42,-80.45 25.43,-204.5 2,-286.8l-71.3 10.69 64.54 2.08 2.76 263.8 -65.27 -2.65z"/>
  <path class="fil13" d="M9115.78 23730.45c8.75,-18.48 5.26,15 13.5,-43.37 5.92,-41.95 0.73,-4.27 -6.02,-33.53l-76.82 -6.07 28.37 15.5c16.46,6.19 17.59,4.04 42.58,4.4l-1.61 63.07z"/>
  <path class="fil8" d="M13410.6 8706.85l14.4 9962.55c-168.13,-25.43 -337.8,-44.23 -508.17,-56.39l-2.73 -10480.64c-53.44,-876.59 -559.57,-1261.37 -1447.09,-1231.81l-6997 0c-1004.79,-11.6 -1397.06,552.19 -1382.41,1498.26l-1.96 17975.07c-44.07,1025.07 354.79,1573.16 1247.76,1589.1l2945.56 2.31c89.86,156.73 203.54,321.1 328.92,481.98l-3516.09 -3.47c-1014.97,-115.81 -1451.26,-792.91 -1436.47,-1907.57l-30.88 -11240.74 -42.48 -69.51 -7.72 -1563.9 61.79 -73.37 -11.59 -362.98 -46.34 -34.75 -11.58 -1617.96 65.65 -61.79 -1.91 -725.95 -94.6 -61.79 2.91 -736.58 90.75 -13.51 7.73 -1930.74c146.49,-1043.15 754.51,-1572.34 1807.18,-1606.37l6780.77 -7.72c1519.72,-61.79 2292.87,651.31 2185.6,2278.27zm18.07 12526.47c-35.32,-13.06 -69.6,-19.01 -103.39,-18.56 33.79,-0.46 68.08,5.5 103.39,18.56zm-103.44 -18.56c-10.36,0.13 -20.68,0.87 -30.96,2.19 10.28,-1.32 20.6,-2.05 30.96,-2.19zm-31.15 2.21c-58.99,7.6 -116.96,34.18 -176.87,75.6 59.9,-41.44 117.88,-67.99 176.87,-75.6zm-179.48 77.42c-4.29,3 -8.59,6.07 -12.91,9.21 4.32,-3.15 8.62,-6.21 12.91,-9.21zm-15.72 11.27c-4.16,3.06 -8.33,6.2 -12.51,9.39 4.18,-3.2 8.35,-6.33 12.51,-9.39zm-15.82 11.93c-4.29,3.32 -8.61,6.71 -12.93,10.16 4.32,-3.46 8.63,-6.84 12.93,-10.16zm-15.56 12.27c-4.07,3.28 -8.17,6.62 -12.26,10.02 4.1,-3.4 8.19,-6.74 12.26,-10.02zm-16.51 13.56c-3.58,2.99 -7.17,6.03 -10.76,9.12 3.59,-3.08 7.18,-6.13 10.76,-9.12zm-4300.28 6623.04c12.15,15.17 26.09,28.25 42.08,39.52 -15.99,-11.27 -29.93,-24.35 -42.08,-39.52zm42.45 39.78c38.91,27.31 89.93,43.95 156.81,53.84 -66.88,-9.9 -117.9,-26.54 -156.81,-53.84zm157.82 53.99c102.8,15.07 242.95,14.32 434.04,11.96 -191.08,2.37 -331.23,3.12 -434.04,-11.96zm526.04 10.8c36.87,-0.45 75.47,-0.89 115.77,-1.22 -40.31,0.33 -78.88,0.77 -115.77,1.22zm2773.76 -220.36c1.52,0.64 3.1,1.17 4.75,1.63 -1.64,-0.46 -3.23,-0.99 -4.75,-1.63zm667.39 -4109.61l0.13 -0.03 -0.13 0.03zm256.15 -246.28c1.07,-2.09 2.31,-4.33 3.72,-6.7 -1.4,2.36 -2.65,4.61 -3.72,6.7zm3.89 -6.98c1.37,-2.29 2.9,-4.71 4.58,-7.25 -1.68,2.54 -3.21,4.96 -4.58,7.25zm4.76 -7.52c1.71,-2.57 3.57,-5.24 5.57,-8.04 -2,2.79 -3.88,5.48 -5.57,8.04zm6.01 -8.65c1.92,-2.66 3.95,-5.42 6.13,-8.29 -2.18,2.87 -4.21,5.63 -6.13,8.29zm7.32 -9.84c2.1,-2.72 4.26,-5.54 6.58,-8.45 -2.3,2.9 -4.49,5.72 -6.58,8.45zm7.14 -9.15c2.53,-3.18 5.19,-6.45 7.98,-9.84 -2.78,3.37 -5.45,6.67 -7.98,9.84zm8.73 -10.74c2.77,-3.35 5.66,-6.79 8.66,-10.32 -3,3.52 -5.89,6.99 -8.66,10.32zm10.4 -12.36c2.75,-3.21 5.56,-6.49 8.49,-9.84l-8.49 9.84zm208.62 -481.77l0 0.01 -513.08 518.85 513.08 -518.86z"/>
  <path class="fil3" d="M4172.12 7888.28l-40.78 0 0 -259.64c-9.8,9.43 -22.7,18.77 -38.61,28.11 -15.91,9.35 -30.27,16.38 -42.94,21.01l0 -39.39c22.78,-10.65 42.71,-23.63 59.78,-38.92 17.06,-15.21 29.19,-29.96 36.29,-44.33l26.26 0 0 333.16zm223.34 0l-40.78 0 0 -259.64c-9.8,9.43 -22.7,18.77 -38.61,28.11 -15.91,9.35 -30.27,16.38 -42.94,21.01l0 -39.39c22.78,-10.65 42.71,-23.63 59.78,-38.92 17.06,-15.21 29.19,-29.96 36.29,-44.33l26.26 0 0 333.16zm127.04 -194.15l0 -46.33 46.34 0 0 46.33 -46.34 0zm0 194.15l0 -46.34 46.34 0 0 46.34 -46.34 0zm106.5 -88.04l40.78 -5.56c4.71,23.17 12.58,39.85 23.78,50.04 11.2,10.2 24.95,15.3 41.24,15.3 19.31,0 35.6,-6.65 48.73,-19.93 13.13,-13.28 19.69,-29.73 19.69,-49.35 0,-18.69 -6.1,-34.13 -18.38,-46.33 -12.2,-12.13 -27.72,-18.23 -46.64,-18.23 -7.72,0 -17.3,1.55 -28.81,4.56l4.56 -35.68c2.7,0.31 4.94,0.46 6.56,0.46 17.46,0 33.06,-4.55 47.04,-13.59 13.9,-9.04 20.85,-22.94 20.85,-41.7 0,-14.91 -5.1,-27.26 -15.22,-37.07 -10.11,-9.81 -23.16,-14.67 -39.15,-14.67 -15.91,0 -29.12,5.02 -39.7,15.06 -10.58,10.03 -17.37,25.09 -20.38,45.17l-40.78 -7.41c5.02,-27.34 16.3,-48.58 33.98,-63.64 17.61,-15.05 39.62,-22.55 65.88,-22.55 18.07,0 34.75,3.87 49.96,11.67 15.29,7.72 26.95,18.3 34.98,31.66 8.11,13.44 12.13,27.65 12.13,42.7 0,14.29 -3.86,27.27 -11.51,39 -7.72,11.74 -19.15,21.09 -34.21,28.04 19.62,4.48 34.83,13.9 45.72,28.19 10.81,14.2 16.22,32.12 16.22,53.51 0,28.96 -10.58,53.6 -31.67,73.75 -21.16,20.16 -47.88,30.2 -80.16,30.2 -29.11,0 -53.28,-8.73 -72.51,-26.1 -19.31,-17.38 -30.28,-39.85 -32.98,-67.5zm257.71 0.93l42.63 -3.25c3.17,20.78 10.5,36.38 21.93,46.88 11.43,10.43 25.41,15.68 41.86,15.68 19.85,0 36.45,-7.42 49.97,-22.17 13.43,-14.82 20.15,-34.44 20.15,-58.84 0,-23.25 -6.41,-41.55 -19.31,-54.99 -12.89,-13.44 -29.96,-20.15 -51.2,-20.15 -13.2,0 -25.02,3.01 -35.52,9.03 -10.43,6.03 -18.61,13.83 -24.64,23.4l-38.46 -5.56 31.98 -170.52 164.49 0 0 38.93 -131.98 0 -17.69 89.5c19.85,-13.98 40.7,-20.93 62.48,-20.93 28.88,0 53.29,10.04 73.13,30.12 19.85,20.08 29.81,45.88 29.81,77.38 0,30.04 -8.72,55.99 -26.18,77.85 -21.23,26.87 -50.27,40.31 -87.03,40.31 -30.12,0 -54.68,-8.49 -73.75,-25.41 -19.08,-16.91 -29.97,-39.31 -32.67,-67.26z"/>
  <polygon class="fil15" points="9759.47,7698.32 9836.7,7698.32 9836.7,7823.82 9759.47,7823.82 "/>
  <polygon class="fil15" points="9913.94,7638.47 9991.17,7638.47 9991.17,7824.79 9913.94,7824.79 "/>
  <polygon class="fil15" points="10080.44,7544.83 10157.68,7544.83 10157.68,7823.82 10080.44,7823.82 "/>
  <polygon class="fil15" points="10236.87,7483.79 10314.1,7483.79 10314.1,7824.75 10236.87,7824.75 "/>
  <polygon class="fil15 str1" points="10819.38,7722.18 10751.81,7815.82 10690.02,7723.14 "/>
  <path class="fil16 str2" d="M10600.72 7688.38c105.31,-101.27 207.8,-95.02 307.95,1.94"/>
  <path class="fil16 str2" d="M10506.11 7598.61c163.28,-150.64 328.75,-166 497.17,0"/>
  <path class="fil15" d="M11281.76 7512.5l585.02 0 0 213.35 -585.02 0 0 -213.35zm-21.25 -90.75l600.49 0c37.7,0 68.53,30.83 68.53,68.53l0 83.52 91.71 0 0 95.57 -91.71 0 0 83.52c0,37.69 -30.83,68.53 -68.53,68.53l-600.49 0c-37.7,0 -68.53,-30.84 -68.53,-68.53l0 -262.61c0,-37.7 30.83,-68.53 68.53,-68.53z"/>
  <path class="fil7" d="M17715.49 19738.82l4577.3 0c82.47,0 149.93,67.46 149.93,149.93l0 0c0,82.47 -67.46,149.93 -149.93,149.93l-4577.3 0c-82.47,0 -149.93,-67.46 -149.93,-149.93l0 0c0,-82.47 67.46,-149.93 149.93,-149.93z"/>
  <path class="fil7" d="M23683.56 19738.82l1784.23 0c82.47,0 149.93,67.46 149.93,149.93l0 0c0,82.47 -67.46,149.93 -149.93,149.93l-1784.23 0c-82.47,0 -149.93,-67.46 -149.93,-149.93l0 0c0,-82.47 67.46,-149.93 149.93,-149.93z"/>
  <path class="fil7" d="M28022.72 19738.82l4577.3 0c82.47,0 149.93,67.46 149.93,149.93l0 0c0,82.47 -67.46,149.93 -149.93,149.93l-4577.3 0c-82.47,0 -149.93,-67.46 -149.93,-149.93l0 0c0,-82.47 67.46,-149.93 149.93,-149.93z"/>
  <path class="fil7" d="M33990.78 19738.82l1784.23 0c82.47,0 149.93,67.46 149.93,149.93l0 0c0,82.47 -67.46,149.93 -149.93,149.93l-1784.23 0c-82.47,0 -149.93,-67.46 -149.93,-149.93l0 0c0,-82.47 67.46,-149.93 149.93,-149.93z"/>
  <path class="fil7" d="M17708.87 20947.09l7765.54 0c82.47,0 149.92,67.46 149.92,149.93l0 0c0,82.47 -67.45,149.93 -149.92,149.93l-7765.54 0c-82.48,0 -149.93,-67.46 -149.93,-149.93l0 0c0,-82.47 67.45,-149.93 149.93,-149.93z"/>
  <path class="fil7" d="M28016.1 20947.09l7765.54 0c82.47,0 149.92,67.46 149.92,149.93l0 0c0,82.47 -67.45,149.93 -149.92,149.93l-7765.54 0c-82.48,0 -149.93,-67.46 -149.93,-149.93l0 0c0,-82.47 67.45,-149.93 149.93,-149.93z"/>
  <path class="fil17" d="M34665.23 4798.54c41.57,-38.83 62.36,-90.44 62.36,-155.08 0,-64.64 -21.47,-115.8 -64.19,-153.26 -42.94,-37.45 -93.18,-56.41 -150.74,-56.87 -57.78,0 -106.21,19.42 -145.49,58.24 -39.28,39.29 -58.93,89.99 -58.93,152.57 0,62.36 19.87,113.52 59.61,153.03 39.75,39.75 88.85,59.62 147.32,59.62 58.48,0 108.49,-19.42 150.06,-58.25zm188.43 166.51c-78.6,0.82 -124.38,-16.85 -124.7,-96.13l0 -2.09c-20.1,33.58 -50.48,60.53 -91.14,81.09 -40.65,20.55 -85.19,30.83 -133.84,30.83 -88.84,0 -165.59,-31.06 -230.23,-93.19 -61.89,-61.89 -92.96,-142.29 -92.96,-240.73 0,-98.67 30.84,-178.84 92.28,-240.28 61.67,-61.67 138.18,-92.73 229.77,-93.18 49.34,0 94.33,9.59 134.53,28.77 39.97,19.19 70.57,46.37 91.59,81.08l0 -444.24c67.42,-0.06 122.65,21.47 124.7,100.45l0 887.62z"/>
  <path class="fil17" d="M35458.28 4798.54c41.57,-38.83 62.36,-90.44 62.36,-155.08 0,-64.64 -21.47,-115.8 -64.19,-153.26 -42.94,-37.45 -93.18,-56.41 -150.74,-56.87 -57.78,0 -106.21,19.42 -145.49,58.24 -39.28,39.29 -58.93,89.99 -58.93,152.57 0,62.36 19.87,113.52 59.61,153.03 39.75,39.75 88.85,59.62 147.32,59.62 58.48,0 108.49,-19.42 150.06,-58.25zm63.73 166.51l0 -98.22c-20.1,33.58 -50.48,60.53 -91.14,81.09 -40.65,20.55 -85.19,30.83 -133.84,30.83 -88.84,0 -165.59,-31.06 -230.23,-93.19 -61.89,-61.89 -92.96,-142.29 -92.96,-240.73 0,-98.67 30.84,-178.84 92.28,-240.28 61.67,-61.67 138.18,-92.73 229.77,-93.18 49.34,0 94.33,9.59 134.53,28.77 39.97,19.19 70.57,46.37 91.59,81.08l0 -343.53c-0.45,-80.47 48.29,-100.12 124.7,-100.71l0 891.99c-0.25,69.86 -41.08,96.29 -124.7,96.08z"/>
  <path class="fil18" d="M36010.94 4186.34l0 138.73 134.3 0c-3.29,65.46 -22.76,107.24 -89.04,111l-45.26 0 0 528.98c-70.8,-0.17 -122.18,-25.47 -124.7,-96.09l0 -432.89 -115.12 0c-1.82,-64.17 27.87,-107.45 95.04,-111l20.08 0 0 -234.34c74.26,0.67 122.45,27.49 124.7,95.61z"/>
  <path class="fil18" d="M37259.56 4799.23c41.11,-38.37 61.67,-89.99 61.67,-155.09 0,-65.09 -21.47,-116.48 -64.18,-153.94 -42.94,-37.45 -93.42,-56.41 -151.43,-56.87 -58.25,0 -106.89,19.42 -146.18,58.24 -39.28,38.37 -58.93,88.62 -58.93,151.2 0,62.36 20.1,113.75 60.3,153.72 40.2,40.2 89.76,60.3 148.69,60.3 58.93,0 108.95,-19.19 150.06,-57.56zm63.04 165.82l0 -98.22c-20.1,33.58 -50.48,60.53 -91.13,81.09 -40.66,20.55 -84.97,30.83 -133.39,30.83 -88.62,0 -165.59,-31.06 -230.68,-93.19 -62.81,-61.89 -94.33,-142.29 -94.33,-240.73 0,-98.67 31.06,-178.84 92.95,-240.28 62.13,-61.67 139.56,-92.73 232.29,-93.18 46.37,0 91.13,9.59 133.84,28.77 42.03,21.01 72.18,47.97 90.45,81.08l0 -5.53c1.51,-63 65.84,-88.98 124.71,-90.62l0 543.88c-3.45,72.28 -52.63,97.16 -124.71,96.1z"/>
  <path class="fil18" d="M38523.74 4187.42l0 137.65 134.3 0c-1.18,60.76 -28.28,110.7 -94.02,111l-40.28 0 0 528.98c-80.33,0.67 -124.28,-33.2 -124.71,-96.96l0 -432.02 -115.11 0c0.06,-66.47 35.25,-107.71 106.76,-111l8.35 0 0 -234.34c66.67,0.58 123.72,32.06 124.71,96.69z"/>
  <path class="fil19" d="M35771.12 4436.07c-0.29,-71.03 31.9,-109.54 101.07,-111l14.05 0 124.7 0 134.3 0c-2.65,73.58 -32.93,109.75 -89.04,111l-45.26 0 -124.7 0 -115.12 0z"/>
  <path class="fil19" d="M38283.78 4435.97c-0.29,-71.03 31.9,-109.54 101.07,-111.01l14.04 0 124.71 0 134.3 0c-2.65,73.59 -32.94,109.75 -89.04,111.01l-45.26 0 -124.71 0 -115.11 0z"/>
  <path class="fil18" d="M36406.42 4962.31c-71.2,2.22 -125.57,-16.42 -127.31,-78.81l0 -574.51c83.95,-0.96 126.9,19.19 127.31,87.8l0 59.56c31.94,-107.49 92.33,-161.35 181.63,-161.35 51.53,0 89.31,8.39 113.55,24.95 -18.15,66.86 -53.79,103.85 -115.24,96.76 -0.29,-0.03 -0.58,0 -0.87,0 -57.59,0 -101.66,27.51 -132.67,82.54 -23.02,41.02 -42.7,92.68 -43.33,155.9l-3.07 307.16z"/>
  <path class="fil18" d="M37919.11 4310.37c98.68,0 179.55,34.49 242.83,103.25 -41.95,55.51 -95.79,72.11 -166.9,32.18 -1.12,-0.63 -2.43,-0.9 -3.64,-1.32 -22.98,-8.08 -48,-12.12 -75.03,-12.12 -60.08,0 -111.25,19.41 -153.28,58.48 -42.27,38.37 -63.51,89.31 -63.51,153.05 0,63.5 21.47,115.13 64.19,154.88 42.95,39.98 94.12,59.85 153.97,59.85 26.14,0 50.31,-3.95 72.49,-11.85 0.9,-0.32 1.82,-0.59 2.68,-0.98 72.11,-32.35 126.56,-16.14 170.4,29.27 -63.74,68.54 -144.37,102.8 -241.46,102.8 -97.32,0 -179.55,-30.84 -246.71,-92.52 -66.93,-62.59 -100.29,-143 -100.29,-241.45 0,-98.46 32.9,-178.64 98.46,-240.32 65.79,-61.68 147.57,-92.74 245.8,-93.2z"/>
  <polygon class="fil19" points="33564.19,4555.63 33170.06,4833.29 33563.66,4007.89 33961.64,4830.6 "/>
  <polygon class="fil20" points="33688.01,4641.3 33210.99,4977.35 33687.36,3978.39 34169.02,4974.1 "/>
  <polyline class="fil6 str0" points="4135.16,14144.87 4265.25,14259.52 4560.7,14023.6 "/>
  <path class="fil21" d="M27714.01 6455.53l10804.14 0c225.35,0 409.72,184.38 409.72,409.74l0 4285.1c0,225.37 -184.37,409.73 -409.72,409.73l-10804.14 0c-225.36,0 -409.73,-184.36 -409.73,-409.73l0 -4285.1c0,-225.36 184.37,-409.74 409.73,-409.74z"/>
  <path class="fil22" d="M33507.82 7629.02l4510.66 0c99.75,0 181.36,81.62 181.36,181.37l0 0c0,99.76 -81.61,181.38 -181.36,181.38l-4510.66 0c-99.75,0 -181.37,-81.62 -181.37,-181.38l0 0c0,-99.75 81.62,-181.37 181.37,-181.37z"/>
  <path class="fil22" d="M33531.82 8259.89l2854.66 0c112.77,0 205.02,92.25 205.02,205.02l0 0.02c0,112.77 -92.25,205.02 -205.02,205.02l-2854.66 0c-112.76,0 -205.02,-92.25 -205.02,-205.02l0 -0.02c0,-112.77 92.26,-205.02 205.02,-205.02z"/>
  <path class="fil22" d="M34644.69 9773.95l2255.32 0c91.1,0 165.62,74.52 165.62,165.6l0 0c0,91.09 -74.52,165.61 -165.62,165.61l-2255.32 0c-91.07,0 -165.59,-74.52 -165.59,-165.61l0 0c0,-91.08 74.52,-165.6 165.59,-165.6z"/>
  <circle class="fil1" cx="33768.81" cy="9939.55" r="447.07"/>
  <circle class="fil1" cx="37757.48" cy="9939.55" r="447.07"/>
  <path class="fil1" d="M28279.95 7391.25l4163.66 0c138.79,0 252.34,113.55 252.34,252.34l0 2728.46c0,138.79 -113.55,252.34 -252.34,252.34l-4163.66 0c-138.79,0 -252.34,-113.55 -252.34,-252.34l0 -2728.46c0,-138.79 113.55,-252.34 252.34,-252.34z"/>
  <path class="fil21" d="M14888.31 6453.73l10803.55 0c225.54,0 410.03,184.51 410.03,410.03l0 4288.12c0,225.51 -184.49,410.02 -410.03,410.02l-10803.55 0c-225.52,0 -410.01,-184.51 -410.01,-410.02l0 -4288.12c0,-225.52 184.49,-410.03 410.01,-410.03z"/>
  <path class="fil22" d="M20636.68 7629.02l4510.66 0c99.75,0 181.37,81.62 181.37,181.37l0 0c0,99.76 -81.62,181.38 -181.37,181.38l-4510.66 0c-99.75,0 -181.37,-81.62 -181.37,-181.38l0 0c0,-99.75 81.62,-181.37 181.37,-181.37z"/>
  <path class="fil22" d="M20660.68 8259.89l2854.66 0c112.77,0 205.03,92.25 205.03,205.02l0 0.02c0,112.77 -92.26,205.02 -205.03,205.02l-2854.66 0c-112.76,0 -205.02,-92.25 -205.02,-205.02l0 -0.02c0,-112.77 92.26,-205.02 205.02,-205.02z"/>
  <path class="fil22" d="M21773.57 9773.95l2255.32 0c91.09,0 165.61,74.52 165.61,165.6l0 0c0,91.09 -74.52,165.61 -165.61,165.61l-2255.32 0c-91.08,0 -165.6,-74.52 -165.6,-165.61l0 0c0,-91.08 74.52,-165.6 165.6,-165.6z"/>
  <circle class="fil1" cx="20897.68" cy="9939.55" r="447.07"/>
  <circle class="fil1" cx="24886.35" cy="9939.55" r="447.07"/>
  <path class="fil1" d="M15499.13 7391.25l4163.66 0c138.79,0 252.35,113.55 252.35,252.34l0 2728.46c0,138.78 -113.56,252.34 -252.35,252.34l-4163.66 0c-138.79,0 -252.34,-113.56 -252.34,-252.34l0 -2728.46c0,-138.79 113.55,-252.34 252.34,-252.34z"/>
  <path class="fil21" d="M27720.12 12745.54l10804.14 0c225.35,0 409.72,184.38 409.72,409.74l0 4285.1c0,225.37 -184.37,409.73 -409.72,409.73l-10804.14 0c-225.36,0 -409.73,-184.36 -409.73,-409.73l0 -4285.1c0,-225.36 184.37,-409.74 409.73,-409.74z"/>
  <path class="fil22" d="M33513.93 13919.03l4510.66 0c99.75,0 181.36,81.62 181.36,181.37l0 0c0,99.76 -81.61,181.38 -181.36,181.38l-4510.66 0c-99.75,0 -181.37,-81.62 -181.37,-181.38l0 0c0,-99.75 81.62,-181.37 181.37,-181.37z"/>
  <path class="fil22" d="M33537.93 14549.9l2854.66 0c112.77,0 205.02,92.25 205.02,205.02l0 0.02c0,112.77 -92.25,205.02 -205.02,205.02l-2854.66 0c-112.76,0 -205.02,-92.25 -205.02,-205.02l0 -0.02c0,-112.77 92.26,-205.02 205.02,-205.02z"/>
  <path class="fil22" d="M34650.8 16063.96l2255.32 0c91.1,0 165.62,74.52 165.62,165.6l0 0c0,91.09 -74.52,165.61 -165.62,165.61l-2255.32 0c-91.07,0 -165.59,-74.52 -165.59,-165.61l0 0c0,-91.08 74.52,-165.6 165.59,-165.6z"/>
  <circle class="fil1" cx="33774.92" cy="16229.56" r="447.07"/>
  <circle class="fil1" cx="37763.59" cy="16229.56" r="447.07"/>
  <path class="fil1" d="M28286.06 13681.26l4163.66 0c138.79,0 252.34,113.55 252.34,252.34l0 2728.46c0,138.79 -113.55,252.34 -252.34,252.34l-4163.66 0c-138.79,0 -252.34,-113.55 -252.34,-252.34l0 -2728.46c0,-138.79 113.55,-252.34 252.34,-252.34z"/>
  <path class="fil21" d="M14894.42 12743.74l10803.55 0c225.54,0 410.03,184.51 410.03,410.03l0 4288.12c0,225.51 -184.49,410.02 -410.03,410.02l-10803.55 0c-225.52,0 -410.01,-184.51 -410.01,-410.02l0 -4288.12c0,-225.52 184.49,-410.03 410.01,-410.03z"/>
  <path class="fil22" d="M20642.79 13919.03l4510.66 0c99.75,0 181.37,81.62 181.37,181.37l0 0c0,99.76 -81.62,181.38 -181.37,181.38l-4510.66 0c-99.75,0 -181.37,-81.62 -181.37,-181.38l0 0c0,-99.75 81.62,-181.37 181.37,-181.37z"/>
  <path class="fil22" d="M20666.79 14549.9l2854.66 0c112.77,0 205.03,92.25 205.03,205.02l0 0.02c0,112.77 -92.26,205.02 -205.03,205.02l-2854.66 0c-112.76,0 -205.02,-92.25 -205.02,-205.02l0 -0.02c0,-112.77 92.26,-205.02 205.02,-205.02z"/>
  <path class="fil22" d="M21779.68 16063.96l2255.32 0c91.09,0 165.61,74.52 165.61,165.6l0 0c0,91.09 -74.52,165.61 -165.61,165.61l-2255.32 0c-91.08,0 -165.6,-74.52 -165.6,-165.61l0 0c0,-91.08 74.52,-165.6 165.6,-165.6z"/>
  <circle class="fil1" cx="20903.79" cy="16229.56" r="447.07"/>
  <circle class="fil1" cx="24892.46" cy="16229.56" r="447.07"/>
  <path class="fil1" d="M15505.24 13681.26l4163.66 0c138.79,0 252.35,113.55 252.35,252.34l0 2728.46c0,138.78 -113.56,252.34 -252.35,252.34l-4163.66 0c-138.79,0 -252.34,-113.56 -252.34,-252.34l0 -2728.46c0,-138.79 113.55,-252.34 252.34,-252.34z"/>
  <path class="fil23" d="M29860.68 9849.79c153.92,7.87 308.26,20.28 460.82,29.42l168.96 -425.86c-33.04,-8.33 -280.84,-19.71 -337.07,-23.33 -111.14,-7.15 -224.68,-13.06 -337.46,-21.04 -273.8,-19.38 -192.69,-41.61 -311.09,90.26 -39.49,43.98 -108.09,94.8 -121.64,158.25 -8.15,38.16 14.21,124.73 17.53,161.38l459.95 30.92z"/>
  <path class="fil23" d="M31293.92 7863.79l-368.15 -225.49c-34.08,-0.59 -127.81,-32.18 -181.14,65.04 -34.79,63.42 -71.39,157.37 -102.51,225.98 -38.13,84.06 -73.83,144.55 -42.3,211.18 41.43,87.55 118.95,84.02 193.88,126.69 80.16,45.65 96.99,114.76 196.44,113.39 69.65,-0.96 113.48,-56.71 170.26,-127.57 84.08,-104.95 194.93,-202.29 180.45,-299.35 -5.66,-37.93 -27.24,-53.06 -46.93,-89.87z"/>
  <path class="fil23" d="M30594.95 9198.69c20.69,-36.84 136.54,-317.91 137.85,-348.24l-255.04 -17.6c-42.77,-2 -357.11,-32.65 -380.05,-16.01l-289.04 334.94 786.28 46.91z"/>
  <path class="fil23" d="M29492.09 10370.83l19.39 11.88c141.06,-30.87 400.86,-123.26 540.86,-171.84 30.6,-10.63 58.2,-18.08 89.11,-29.28 37.85,-13.71 53.1,-14.3 84.57,-62.62l-784.67 -47.19c-4.72,49.1 38.18,247.21 50.74,299.05z"/>
  <path class="fil23" d="M30309.09 8573.5c59.64,10.8 501.6,35.17 526.4,32.06 17.67,-38.18 31.61,-75.89 47.33,-113.38 21.74,-51.85 19.02,-57.27 -20.64,-99.83 -47.73,-51.22 -146.73,-111.74 -215.45,-130.38 -76.26,-20.68 -69.75,1.72 -175.28,123.77 -54.62,63.17 -111.18,123.18 -162.36,187.76z"/>
  <path class="fil23" d="M30535.6 9345.7c14.21,-26.37 34.21,-65.61 34.53,-91.5l-679.43 -43.72c-139.15,-11.04 -116.06,-30.26 -205.85,83.7l850.75 51.52z"/>
  <path class="fil23" d="M30250.72 10066.35l28.94 -82.7c-43.16,-9.62 -849.66,-56.57 -861.85,-53.2 4.43,31.29 3.12,59.63 17.4,85.87l815.51 50.03z"/>
  <path class="fil23" d="M30149.16 8757.37l608.72 40.67c11.62,-24.46 32.46,-62.09 31.13,-85.42l-492.03 -31.8c-24.86,-1.3 -64.66,-11.56 -83.11,1.73 -11.57,8.33 -52.91,60.35 -64.71,74.82z"/>
  <path class="fil24" d="M18667.38 16529.9c177.21,-60.22 152.88,-218.43 152.91,-428.29l-0.6 -873.9c0.56,-106.14 -9.36,-164.62 -67.85,-220.78 -62.41,-59.93 -116.8,-62.81 -226.73,-62.74l-576.65 -0.43c-105.99,-0.56 -167.05,8.41 -223.93,66 -59.23,59.97 -65.41,116.87 -65.17,223.9 0.4,181.74 -13.22,1073.14 10.48,1152.68 18.2,61.07 77.34,129.33 142.25,143.27 -29.89,92.33 109.52,107.91 104.97,11.52l637.78 -0.11c7.85,10.85 0.43,-2.22 5.53,13.51 1.48,4.55 1.96,8.72 3.6,14.22 16.59,55.41 123.24,57.66 103.41,-38.85z"/>
  <path class="fil24" d="M17871.11 14401.38c0,125.4 -4.66,412.65 1.2,521.78l45.75 1.34 1.1 -487.45c0.07,-115.69 -13.45,-210.45 47.73,-284.82 71.11,-86.42 141.08,-55.76 171.49,-55.42l172.72 0.24c57.31,-0.03 126.14,-33.41 201.14,55.8 57.81,68.76 45.77,138.71 45.81,248.53l0 475.59c0.15,52.87 -10.24,50.92 48.73,45.98 7.9,-132.13 0.62,-467.84 0.99,-628.58 0.04,-145.86 -75.78,-214.98 -186.4,-252.8 -29.18,-24.98 19.12,-57 -110.27,-56.29l-178.35 -0.47c-32.4,0 -47.16,5.22 -59.66,24.14 -24.12,36.52 7.66,22.69 -41.68,41.26 -46.95,17.66 -74.04,40.16 -101.7,71.16 -68.25,76.52 -58.6,155.13 -58.6,280.01z"/>
  <path class="fil24" d="M17941.97 14919.37l591.87 -3.06c-41.51,-48.56 -248.41,-67.85 -300.07,-67.86 -70.57,-0.01 -160.97,14.74 -227.2,39.43 -29.52,11 -47.8,14.71 -64.6,31.49z"/>
  <path class="fil23" d="M16998.42 15281.1c0.03,-36.85 3.39,-45.63 41.93,-47.67 25.96,-1.37 56.91,0.47 83.52,0.5 408.96,0.47 392.28,-38.05 382.95,118.7l-507.77 -0.29 -0.63 -71.24zm-64.05 71.45c-114.95,0.8 -230.58,0.52 -345.55,-0.14 -121.31,-0.7 -184.58,29.59 -219.39,119.4 -25.02,64.54 -13.04,560.4 -12.2,671.29 1.64,215.18 -58.03,468.62 213.64,467.63l1367.63 0.1c86.76,0.7 139.66,-25.96 171.52,-69.73l-192.96 0.03c4.55,96.39 -134.86,80.81 -104.97,-11.52 -64.9,-13.94 -124.05,-82.2 -142.25,-143.27 -20.27,-68.04 -13.24,-730.15 -11.03,-1033.92 -28.47,0.04 -56.94,0.21 -85.39,0.66 -2.9,-217.98 -23,-182.31 -318.77,-183.32 -303.02,-1.03 -315.97,-29.6 -320.28,182.79z"/>
  <path class="fil24" d="M18017.65 9301.25c305.68,2.06 293.11,-6.09 580.08,-48.48 15.98,36.04 12.45,268.79 11.54,325.48 -0.88,54.46 5.1,110.25 5.05,165.49 -0.03,32.21 -12.26,123.19 -24.14,149.04 -85.96,17.36 -460.05,-9.22 -548.81,-30.32 -13.9,-3.3 -12.78,-2.86 -16.03,-19 -5.53,-27.55 -13.54,-225.65 -13.66,-249.81 -0.5,-99.15 3.63,-194.15 5.97,-292.4zm134.95 622.72c-17.61,54.43 -83.19,45.84 -149.2,48.3 -142.84,5.32 -254.43,-2.15 -389.59,-2.75 -66.18,-0.3 -134.5,2.09 -200.25,0.55 -82.66,-1.93 -278.22,-7.4 -343.94,-51.55 -22.89,-15.38 -56.8,-92.38 -59.55,-136.33 -3.96,-63.07 -5.17,-129.12 -7.11,-192.3 -2.04,-66.57 19.78,-310.47 51.02,-344.51 27.89,-30.37 112.73,-40.08 155.94,-41.47 107.51,-3.46 284.97,-13 384.65,-11.17 105.19,1.93 416.6,-11.64 484.74,8.56l49.99 23.17c10.12,8.24 8.24,7.37 11.06,15.17 -62.39,18.58 -207.56,-18.59 -223.76,60.93 -15.97,78.42 9.13,314.39 9.94,416.21 0.36,45.3 -1.19,94.23 8.33,136.38 11.03,48.79 34,56.55 86.82,55.09 38.66,-1.08 90.11,11.78 130.91,15.72zm697.95 -736.23c58.86,-9.91 142.91,-61.59 167.52,-71.38 15.12,65.64 12.66,155.09 11.78,227.17 -0.91,74.63 8.08,152.65 12.45,226.9 8.32,141.44 9.39,128.16 -88.1,201.57 -9.59,7.22 -22.66,16.9 -36.65,24.87 -21.5,12.25 -56.75,33.49 -78.59,41.22 -3.65,-36.72 19.18,-98.84 19.96,-148.16 0.91,-57.19 10.4,-108.65 11.9,-165.43l-8.32 -256.36c-2.71,-27.21 -9.2,-52.02 -11.95,-80.4zm-678.51 26.77l232.61 0.45c-24.4,0.58 -76.49,14.56 -103.05,19.84 -36.99,7.35 -79.15,6.34 -118.03,7.45l-11.53 -27.74zm469.37 -63.37c27.52,-11.99 98.3,-28.11 130.06,-22.17 60.91,11.41 58.32,364.09 56.04,414.65 -4.19,92.8 -21,189.89 -32.17,281.12 -6.91,56.45 -8.63,80.31 -53.68,100.21 -46.62,20.59 -67.89,27.51 -126.75,29.12 30.7,-34.85 76.34,-67.05 82.76,-148.88 7.55,-96.39 -7.54,-352.11 -15.27,-457.77 -3.17,-43.47 3.42,-144.21 -27.97,-178.69 -2.29,-2.52 -4.68,-4.66 -7.25,-8.1 -8.1,-10.84 -2.28,-1.93 -5.77,-9.49zm-593.03 -7.4c1.09,-0.4 2.04,-0.73 3.18,-1.09 10.38,-3.25 49.2,-7.87 85.15,-18.7 92.29,-27.8 350.66,-131.05 415.23,-177.53 49.92,-35.93 72.85,-95.02 109.67,-128.07 1.08,53.94 5.87,222.77 1.68,267.37 -24.3,12.76 -51.86,16.03 -79,31.55 -39.5,22.59 -12.91,28.33 -73.87,33.46 -133.85,11.25 -108.39,0.16 -211.69,0.36 -90.38,0.18 -169.55,1.36 -259.75,-2.91l9.4 -4.44zm-695.11 -3.15c127.27,-36.43 216.03,-69.6 341.67,-119.96 80.87,-32.42 222.63,-73.04 306.31,-18.36 13.19,8.61 43.11,51.54 49.13,75.76 -0.9,0.58 -2.13,1.23 -2.81,1.57 -0.67,0.34 -1.97,1.11 -2.81,1.51 -1.01,0.47 -4.58,2.13 -5.77,2.6 -2.37,0.94 -6.44,2.16 -8.96,2.91l-59.26 13.76c-27.01,6.61 -52.4,13.21 -79.55,20.09l-175.87 20.77c-121.79,4.61 -268.34,16.37 -387.89,10.7l25.81 -11.35zm1648.12 -90c49.32,-18.29 125.32,-121.47 149.66,10.03 31.49,170.2 14.87,302.07 14.96,467.61 0.04,38.27 -5.69,94.42 -12.04,131.35 -4.32,25.15 -10.53,34.06 -23.38,46.38 -8.12,7.8 -30.33,29.98 -37.24,32.44 3.38,-63.92 12.56,-161.59 9.16,-221.71l0.02 -26.94c-0.14,-86.84 -3.06,-174.7 -8.06,-261.72 -2.27,-39.46 -2.93,-81.95 -15.97,-117.79 -13.21,-36.33 -34.43,-45.37 -61.62,-53.3l-15.49 -6.35zm-297.06 31.85c2.86,-82.7 7.21,-155.57 4.29,-239.45 12.68,5.76 25,17.3 38.18,25.58 37,23.27 59.07,46.21 99.27,73.82 16.08,11.04 76.67,75.49 79,94.11l-7.87 36.89c-7.5,24.29 -88.85,40.33 -103.9,28.95 -46.43,-35.09 -28.75,-21.4 -108.97,-19.9zm-2500.6 -76.69c5.15,-18.65 34.58,-64.84 45.55,-68.8l7.36 87.39 -52.91 -18.59zm2966.13 -27.39c18.72,-33.73 35.66,-64.48 54.5,-103.48 5.44,75.02 -3.33,204.26 -13.62,277.73 -11.25,-23.38 -9.34,-65.72 -14.64,-94.9 -6.84,-37.69 -10.14,-51.37 -26.24,-79.35zm-2857.98 8.7c22.64,30 94.43,80.3 122.24,89.23 -29.07,-1.12 -104.98,-31.96 -139.57,-40.95 -3.81,-27.52 -13.32,-65.52 -11.65,-91.93 10.06,11.77 18.9,30.29 28.98,43.65zm313.91 90.97c10.11,-41.56 94.36,-94.05 142.25,-114.62 157.75,-67.76 479.05,-119.27 649.53,-124.77 81.56,-2.63 162.88,-11.04 242.94,-0.19 129.93,17.62 313.11,35.38 431.69,84.42 37.65,15.57 150.57,61.37 175.38,82.05l-4.11 3.39c-0.79,0.54 -3.62,2.4 -4.62,2.95 -1.57,0.86 -8.63,3.7 -10.77,4.52l-66.86 21.7c-32.73,9.02 -59.09,21.1 -90.28,30.07l-5.88 -10.49c-10.83,-23.61 -17.9,-43.2 -37.04,-66.96 -9.83,-12.2 -49.39,-44.84 -62.81,-52.58 -97.6,-56.33 -285.9,6.69 -383.26,43.99 -29.05,11.14 -50.34,23.14 -81.92,33.63 -28.63,9.51 -55.21,20.97 -83.07,32.25 -182.22,73.76 -182,78.78 -392.64,77.59 -29.13,-0.16 -308.64,-14.96 -330.44,-20.6 -25.1,-6.5 -65.82,-15.51 -88.09,-26.35zm-685.78 -197.42c23.76,57.06 130.34,128.56 186.45,157.3 48.39,24.78 336.77,111.65 393.57,121.93 77.1,13.96 227.23,35.76 304.68,41.97 55.14,4.42 115.16,-3.02 168.36,3.58 -47.19,76.08 -63.11,191.33 -62.24,280.51 1.01,104.32 -3.23,232.65 21.64,327.85 -187.09,-5.64 -336.19,-46.06 -512.86,-92.34 -33.83,-8.87 -66.31,-14.31 -100.73,-22.72 -67.11,-16.41 -122.49,-41.57 -173.38,-72.79 -57.2,-35.09 -88.85,-53.38 -136.94,-105.48 -53.85,-58.32 -73.63,-72.67 -77.97,-169.15 -3.53,-78.55 -2.01,-159.6 -3.52,-238.63l-7.06 -232.03zm638.72 182.28c-48.58,-14.3 -148.71,-65.54 -170.8,-94.93 -40.59,-54.02 -86.87,-76.26 -79.94,-182.51 6.64,-101.9 90.13,-152.22 174.61,-218.37 128.72,-100.79 302.79,-145.03 476.09,-177.76 76.87,-14.52 146.35,-30.2 227.72,-33.24 88.47,-3.31 173.15,-1.59 261.18,-2.61 171.86,-1.99 319.88,6.46 481.99,42.73 67.91,15.2 152.77,26.62 213.41,48.05 63.69,22.5 129.63,43.85 193.38,68.23 40.16,15.36 223.81,107.8 247.42,145.13 14.26,22.56 20.14,85.61 10.22,112.41 -7.4,20 -59.6,76.84 -74.63,90.7 -6.69,6.16 -10.17,7.19 -17.46,13.45 -14.87,12.77 -20.2,21.33 -33.74,31.66 -34.37,26.21 -142.48,79.2 -178.86,84.12 -24.65,-29.08 -130.68,-77.78 -178.53,-98 -64.62,-27.31 -143.13,-46.03 -215.98,-60.8 -81.97,-16.62 -159.85,-24.3 -243.49,-34.11 -87.91,-10.31 -172.83,-5.28 -261.62,-1.9 -215.77,8.19 -584.15,69.15 -768.73,195.08 -13.9,9.48 -25.1,20.7 -35.08,34.11 -6.76,9.09 -19.53,30.51 -27.16,38.56zm-423.27 -79.95c-51.27,-18.14 -120.95,-76.68 -151.92,-110.82 -45.07,-49.69 -51.47,-142.94 -41.27,-210.85 7.48,-49.81 34.07,-83.68 57.99,-110.99 23.58,-26.93 59.26,-58.8 89.54,-83.51 81.48,-66.5 230.02,-152.93 321.31,-194.3 40.71,-18.45 87.91,-26.68 130.88,-42.3 63.59,-23.13 202.02,-70.51 265.8,-80.53 47.38,-7.44 92.74,-19.75 139.43,-29.52 145.57,-30.45 478.77,-58.43 626.07,-48.98 53.12,3.41 106.6,10.14 158.95,12.96 175.06,9.44 144.87,5.15 316.77,31.08 51.04,7.7 96.87,10.36 146.68,22.62 46.32,11.4 93.45,21.58 140.1,32.96l373.51 138.21c39.63,19.59 79.28,37.08 117.98,55.13 24.21,11.3 33.7,22.69 52.89,35.56 37.13,24.91 51.16,27.57 106.17,67 54.48,39.07 53.45,43.75 94.81,74.53 39.18,29.17 81.8,131.72 86.58,171.33 8.63,71.52 -0.19,90.88 -20.84,148.48 -7.8,21.75 -19.26,42.44 -28.41,60.37 -23.24,45.55 -23.81,-24.08 -158.12,68.72l-12.1 7.35c-43.1,-53.72 -65.41,-78.42 -126.64,-119.89l-104.42 -80.32c-12.56,-10.42 -23.41,-16.42 -34.1,-27.03 -4.87,-33.52 2.25,-77.44 -13.48,-106.12 -6.78,-12.37 -19.2,-21.39 -27.39,-30.42 -30.93,-34.09 -13.08,-34.72 -90.53,-82.5 -82.19,-50.7 -144.26,-77.45 -239.14,-111.07 -60.58,-21.46 -115.79,-33.9 -178.71,-52.14 -126.47,-36.67 -248.91,-61.51 -386.99,-78.81 -221.1,-27.71 -228.87,-14.11 -441.64,-11.66 -225.78,2.61 -568.08,67.92 -766.21,160.64 -128.06,59.93 -176.97,96.97 -255.36,210.12 -18.43,26.6 -24.27,46.34 -32.77,82.74 -8.83,37.84 -18.39,46.38 -21.33,93.64 -1.99,32.06 -0.58,22.73 -45.78,70.03 -19.2,20.08 -30.03,44.18 -42.63,61.51 -3.07,4.22 -3.24,4.23 -5.68,6.78zm2832.48 819.67c37.09,17.94 66.4,7.99 102.83,-9.53 126.01,-60.58 108.43,-152.26 118.9,-272.56 5.88,-67.52 25.96,-125.34 32.99,-230.79 2.61,-39.11 1.6,-86.94 6.43,-123.63 11.38,-86.32 19.78,-292.14 16.68,-372.78 -3.56,-92.35 -16.04,-139.6 -56.02,-206.9 -40.39,-67.99 -138.66,-144.33 -202.39,-190.08 -26.92,-19.33 -59.29,-32.05 -81.82,-49.06 -76.45,-57.74 -264.67,-147.62 -351.44,-175.69 -377.03,-121.99 -482.87,-134.78 -879.7,-169.44 -78.37,-6.85 -175.18,-6.51 -254.15,-3.72 -178.57,6.31 -304.65,5.14 -484.04,45.12 -75.92,16.92 -137.26,26.77 -210.02,51.42 -66.83,22.64 -132.29,39.62 -197.7,63.96 -68.61,25.54 -117.88,51.88 -182.38,79.25 -80.75,34.26 -144.74,73.32 -211.74,119.23l-111.55 84.68c-39.67,30.12 -96.36,96.16 -117.57,144.1 -9.99,22.59 -20.85,78.04 -25.49,104.95 -9.54,55.44 -0.66,332.83 3.73,388.12 6.63,83.61 12.77,165.3 12.07,248.88 -0.92,110.14 10.98,135.37 61.94,201.02 68.71,88.51 228.69,162.54 330.6,196.56l207.16 54.73c216.74,33.73 190.67,53.42 451.5,72.12 11.8,25.63 17.79,42.49 35.08,60.6 14.88,15.57 24.89,32.95 45.78,46.63 89.14,58.38 385.86,54.04 500.77,54.42 113.15,0.37 445.55,12.68 543.96,-3.38 62.89,-10.25 83.66,-29.09 100.78,-82.93 118.37,3.4 233.49,11.14 352.94,10.95 13.62,56.16 56.4,59.74 118.11,57.08 46.27,-2 104.86,-12.82 131,-40.5 20.07,-21.26 19.6,-29.84 31.44,-57.05 7.07,-16.24 5.66,-10.51 25.17,-17.14 32.6,-11.07 113.35,-60.55 136.15,-78.64z"/>
  <path class="fil23" d="M18183.44 8688.41c27.93,-12.96 61.48,-1.27 71.35,17.98 17.11,33.38 4.62,53.69 -19.04,66.3 -56.54,30.13 -110.87,-57.1 -52.31,-84.28zm-300.22 -81.26c31.56,-9.73 57.04,3.68 67.89,25.85 17.52,35.84 -3.13,50.36 -28.79,61.09 -71.35,29.84 -97.3,-68.99 -39.1,-86.94zm-352.98 -45.04c56.85,-27.14 117.51,56.88 54.94,87.24 -50.83,24.66 -83.73,-26.06 -77.81,-58.78 3.06,-16.92 11.42,-22.99 22.87,-28.46zm-300.07 3.7c65.09,-30.95 110.43,57.2 50.94,79.58 -31.22,11.74 -54.1,1.92 -65.62,-19.49 -14.42,-26.79 -11.86,-47.48 14.68,-60.09zm-651.44 497.08c7.63,-8.05 20.4,-29.47 27.16,-38.56 9.98,-13.41 21.18,-24.63 35.08,-34.11 184.58,-125.93 552.96,-186.89 768.73,-195.08 88.79,-3.38 173.71,-8.41 261.62,1.9 83.64,9.81 161.52,17.49 243.49,34.11 72.85,14.77 151.36,33.49 215.98,60.8 47.85,20.22 153.88,68.92 178.53,98 36.38,-4.92 144.49,-57.91 178.86,-84.12 13.54,-10.33 18.87,-18.89 33.74,-31.66 7.29,-6.26 10.77,-7.29 17.46,-13.45 15.03,-13.86 67.23,-70.7 74.63,-90.7 9.92,-26.8 4.04,-89.85 -10.22,-112.41 -23.61,-37.33 -207.26,-129.77 -247.42,-145.13 -63.75,-24.38 -129.69,-45.73 -193.38,-68.23 -60.64,-21.43 -145.5,-32.85 -213.41,-48.05 -162.11,-36.27 -310.13,-44.72 -481.99,-42.73 -88.03,1.02 -172.71,-0.7 -261.18,2.61 -81.37,3.04 -150.85,18.72 -227.72,33.24 -173.3,32.73 -347.37,76.97 -476.09,177.76 -84.48,66.15 -167.97,116.47 -174.61,218.37 -6.93,106.25 39.35,128.49 79.94,182.51 22.09,29.39 122.22,80.63 170.8,94.93z"/>
  <path class="fil23" d="M16155.46 8982.94c2.44,-2.55 2.61,-2.56 5.68,-6.78 12.6,-17.33 23.43,-41.43 42.63,-61.51 45.2,-47.3 43.79,-37.97 45.78,-70.03 2.94,-47.26 12.5,-55.8 21.33,-93.64 8.5,-36.4 14.34,-56.14 32.77,-82.74 78.39,-113.15 127.3,-150.19 255.36,-210.12 198.13,-92.72 540.43,-158.03 766.21,-160.64 212.77,-2.45 220.54,-16.05 441.64,11.66 138.08,17.3 260.52,42.14 386.99,78.81 62.92,18.24 118.13,30.68 178.71,52.14 94.88,33.62 156.95,60.37 239.14,111.07 77.45,47.78 59.6,48.41 90.53,82.5 8.19,9.03 20.61,18.05 27.39,30.42 15.73,28.68 8.61,72.6 13.48,106.12 10.69,10.61 21.54,16.61 34.1,27.03l104.42 80.32c61.23,41.47 83.54,66.17 126.64,119.89l12.1 -7.35c134.31,-92.8 134.88,-23.17 158.12,-68.72 9.15,-17.93 20.61,-38.62 28.41,-60.37 20.65,-57.6 29.47,-76.96 20.84,-148.48 -4.78,-39.61 -47.4,-142.16 -86.58,-171.33 -41.36,-30.78 -40.33,-35.46 -94.81,-74.53 -55.01,-39.43 -69.04,-42.09 -106.17,-67 -19.19,-12.87 -28.68,-24.26 -52.89,-35.56 -38.7,-18.05 -78.35,-35.54 -117.98,-55.13l-373.51 -138.21c-46.65,-11.38 -93.78,-21.56 -140.1,-32.96 -49.81,-12.26 -95.64,-14.92 -146.68,-22.62 -171.9,-25.93 -141.71,-21.64 -316.77,-31.08 -52.35,-2.82 -105.83,-9.55 -158.95,-12.96 -147.3,-9.45 -480.5,18.53 -626.07,48.98 -46.69,9.77 -92.05,22.08 -139.43,29.52 -63.78,10.02 -202.21,57.4 -265.8,80.53 -42.97,15.62 -90.17,23.85 -130.88,42.3 -91.29,41.37 -239.83,127.8 -321.31,194.3 -30.28,24.71 -65.96,56.58 -89.54,83.51 -23.92,27.31 -50.51,61.18 -57.99,110.99 -10.2,67.91 -3.8,161.16 41.27,210.85 30.97,34.14 100.65,92.68 151.92,110.82z"/>
  <path class="fil23" d="M16126.46 9037.91c-56.11,-28.74 -162.69,-100.24 -186.45,-157.3l7.06 232.03c1.51,79.03 -0.01,160.08 3.52,238.63 4.34,96.48 24.12,110.83 77.97,169.15 48.09,52.1 79.74,70.39 136.94,105.48 50.89,31.22 106.27,56.38 173.38,72.79 34.42,8.41 66.9,13.85 100.73,22.72 176.67,46.28 325.77,86.7 512.86,92.34 -24.87,-95.2 -20.63,-223.53 -21.64,-327.85 -0.87,-89.18 15.05,-204.43 62.24,-280.51 -53.2,-6.6 -113.22,0.84 -168.36,-3.58 -77.45,-6.21 -227.58,-28.01 -304.68,-41.97 -56.8,-10.28 -345.18,-97.15 -393.57,-121.93z"/>
  <path class="fil23" d="M18372.37 9461.49c78.1,-14.15 151.12,11.91 171.42,91.06 10.84,42.3 15.18,75.29 -7.4,109.42 -18.92,28.59 -34.66,45.21 -73.44,57.56 -106.49,33.91 -214.47,-35.13 -166.56,-201.2 9.06,-31.38 41.22,-50.55 75.98,-56.84zm-354.72 -160.24c-2.34,98.25 -6.47,193.25 -5.97,292.4 0.12,24.16 8.13,222.26 13.66,249.81 3.25,16.14 2.13,15.7 16.03,19 88.76,21.1 462.85,47.68 548.81,30.32 11.88,-25.85 24.11,-116.83 24.14,-149.04 0.05,-55.24 -5.93,-111.03 -5.05,-165.49 0.91,-56.69 4.44,-289.44 -11.54,-325.48 -286.97,42.39 -274.4,50.54 -580.08,48.48z"/>
  <path class="fil25" d="M17070.3 9500.87c0.63,-92.78 -16.68,-145.57 41.48,-186.08 12.6,-8.78 35.26,-14.91 55.2,-18.39 34.91,-6.08 233.72,-9.85 285.22,-11.41 89.06,-2.71 202.69,-2.89 288.86,8.46 45.31,5.96 82.11,15.05 95,54.95 13.42,41.56 19.43,75.65 23.49,122.11 19.34,11.21 34.24,10.32 43.87,29.93 11.73,23.86 5.44,98.1 -3.97,124.83 -7.48,21.25 -16.43,21.01 -39.06,30.09 -5.56,48.46 -15.35,90.56 -20.67,137.22 -5.49,48.21 -25.5,76.13 -68.06,85.95 -73.89,17.05 -212.97,0.72 -292.53,-1.7 -111.85,-3.4 -344.9,18.87 -382.13,-78.09 -15.73,-40.98 -11.3,-91.94 -18.61,-135.83 -36.07,-21.03 -54.55,-19.99 -52.32,-76.69 1.9,-48.32 5.36,-67.8 44.23,-85.35zm1082.3 423.1c-40.8,-3.94 -92.25,-16.8 -130.91,-15.72 -52.82,1.46 -75.79,-6.3 -86.82,-55.09 -9.52,-42.15 -7.97,-91.08 -8.33,-136.38 -0.81,-101.82 -25.91,-337.79 -9.94,-416.21 16.2,-79.52 161.37,-42.35 223.76,-60.93 -2.82,-7.8 -0.94,-6.93 -11.06,-15.17l-49.99 -23.17c-68.14,-20.2 -379.55,-6.63 -484.74,-8.56 -99.68,-1.83 -277.14,7.71 -384.65,11.17 -43.21,1.39 -128.05,11.1 -155.94,41.47 -31.24,34.04 -53.06,277.94 -51.02,344.51 1.94,63.18 3.15,129.23 7.11,192.3 2.75,43.95 36.66,120.95 59.55,136.33 65.72,44.15 261.28,49.62 343.94,51.55 65.75,1.54 134.07,-0.85 200.25,-0.55 135.16,0.6 246.75,8.07 389.59,2.75 66.01,-2.46 131.59,6.13 149.2,-48.3z"/>
  <path class="fil24" d="M17656.94 9823l112.47 -27.27c-7.78,27.12 -13.63,29.62 -43.93,29.69 -22.3,0.06 -46.41,-0.29 -68.54,-2.42zm-533.45 -153.96c198.72,13.21 394.78,3.35 594.21,-3.58 75.83,-2.63 70.06,-0.73 68.46,31.99 -2,41.16 1.76,56.62 -33.85,69.37 -78.69,28.2 -452.24,63.22 -553.38,33.83 -66.43,-19.3 -69.88,-58.75 -75.44,-131.61zm-44.2 -121.24c28.66,-21.07 147.94,-2.19 192.21,-4.5 65.94,-3.44 132.22,-3.89 197.82,-9.93 65.32,-6.02 130.88,-3.5 197.31,-9.63 44.11,-4.07 158.4,-14.76 195.61,-1.53 1.41,15.36 1.24,43.11 0.03,58.6 -1.91,24.58 -4.71,30.24 -26.27,35.32 -29.45,6.94 -319.43,12.62 -361.56,13.74 -82.19,2.19 -159.77,6.16 -241.65,4.2 -24.92,-0.6 -151.54,-3.41 -160.83,-29.84 -5.71,-16.26 -0.97,-46.17 7.33,-56.43zm37.01 -63.69c0.26,-31.81 3.95,-82.39 10.98,-111.29 6.12,-25.16 7.31,-22.92 32.54,-29.12 18.64,-4.59 33.45,-5.51 53.66,-6.34 78.06,-3.18 156.66,-7.49 234.87,-9.76 80.38,-2.34 152.96,-1.21 230.37,12.47 39.96,7.05 69.93,5.44 86.76,32.6 12.67,20.45 31.02,66.91 22.82,95.36l-339.95 -3.49c-107.75,-1.43 -225.54,7.19 -332.05,19.57zm-46 16.76c-38.87,17.55 -42.33,37.03 -44.23,85.35 -2.23,56.7 16.25,55.66 52.32,76.69 7.31,43.89 2.88,94.85 18.61,135.83 37.23,96.96 270.28,74.69 382.13,78.09 79.56,2.42 218.64,18.75 292.53,1.7 42.56,-9.82 62.57,-37.74 68.06,-85.95 5.32,-46.66 15.11,-88.76 20.67,-137.22 22.63,-9.08 31.58,-8.84 39.06,-30.09 9.41,-26.73 15.7,-100.97 3.97,-124.83 -9.63,-19.61 -24.53,-18.72 -43.87,-29.93 -4.06,-46.46 -10.07,-80.55 -23.49,-122.11 -12.89,-39.9 -49.69,-48.99 -95,-54.95 -86.17,-11.35 -199.8,-11.17 -288.86,-8.46 -51.5,1.56 -250.31,5.33 -285.22,11.41 -19.94,3.48 -42.6,9.61 -55.2,18.39 -58.16,40.51 -40.85,93.3 -41.48,186.08z"/>
  <path class="fil23" d="M18850.55 9187.74c2.75,28.38 9.24,53.19 11.95,80.4l8.32 256.36c-1.5,56.78 -10.99,108.24 -11.9,165.43 -0.78,49.32 -23.61,111.44 -19.96,148.16 21.84,-7.73 57.09,-28.97 78.59,-41.22 13.99,-7.97 27.06,-17.65 36.65,-24.87 97.49,-73.41 96.42,-60.13 88.1,-201.57 -4.37,-74.25 -13.36,-152.27 -12.45,-226.9 0.88,-72.08 3.34,-161.53 -11.78,-227.17 -24.61,9.79 -108.66,61.47 -167.52,71.38z"/>
  <path class="fil23" d="M18641.41 9151.14c3.49,7.56 -2.33,-1.35 5.77,9.49 2.57,3.44 4.96,5.58 7.25,8.1 31.39,34.48 24.8,135.22 27.97,178.69 7.73,105.66 22.82,361.38 15.27,457.77 -6.42,81.83 -52.06,114.03 -82.76,148.88 58.86,-1.61 80.13,-8.53 126.75,-29.12 45.05,-19.9 46.77,-43.76 53.68,-100.21 11.17,-91.23 27.98,-188.32 32.17,-281.12 2.28,-50.56 4.87,-403.24 -56.04,-414.65 -31.76,-5.94 -102.54,10.18 -130.06,22.17z"/>
  <path class="fil23" d="M17116.3 9484.11c106.51,-12.38 224.3,-21 332.05,-19.57l339.95 3.49c8.2,-28.45 -10.15,-74.91 -22.82,-95.36 -16.83,-27.16 -46.8,-25.55 -86.76,-32.6 -77.41,-13.68 -149.99,-14.81 -230.37,-12.47 -78.21,2.27 -156.81,6.58 -234.87,9.76 -20.21,0.83 -35.02,1.75 -53.66,6.34 -25.23,6.2 -26.42,3.96 -32.54,29.12 -7.03,28.9 -10.72,79.48 -10.98,111.29z"/>
  <path class="fil23" d="M17123.49 9669.04c5.56,72.86 9.01,112.31 75.44,131.61 101.14,29.39 474.69,-5.63 553.38,-33.83 35.61,-12.75 31.85,-28.21 33.85,-69.37 1.6,-32.72 7.37,-34.62 -68.46,-31.99 -199.43,6.93 -395.49,16.79 -594.21,3.58z"/>
  <path class="fil25" d="M17079.29 9547.8c-8.3,10.26 -13.04,40.17 -7.33,56.43 9.29,26.43 135.91,29.24 160.83,29.84 81.88,1.96 159.46,-2.01 241.65,-4.2 42.13,-1.12 332.11,-6.8 361.56,-13.74 21.56,-5.08 24.36,-10.74 26.27,-35.32 1.21,-15.49 1.38,-43.24 -0.03,-58.6 -37.21,-13.23 -151.5,-2.54 -195.61,1.53 -66.43,6.13 -131.99,3.61 -197.31,9.63 -65.6,6.04 -131.88,6.49 -197.82,9.93 -44.27,2.31 -163.55,-16.57 -192.21,4.5z"/>
  <path class="fil23" d="M18038.98 9148.18c90.2,4.27 169.37,3.09 259.75,2.91 103.3,-0.2 77.84,10.89 211.69,-0.36 60.96,-5.13 34.37,-10.87 73.87,-33.46 27.14,-15.52 54.7,-18.79 79,-31.55 4.19,-44.6 -0.6,-213.43 -1.68,-267.37 -36.82,33.05 -59.75,92.14 -109.67,128.07 -64.57,46.48 -322.94,149.73 -415.23,177.53 -35.95,10.83 -74.77,15.45 -85.15,18.7 -1.14,0.36 -2.09,0.69 -3.18,1.09l-9.4 4.44z"/>
  <path class="fil23" d="M17327.46 9151.94c119.55,5.67 266.1,-6.09 387.89,-10.7l175.87 -20.77c27.15,-6.88 52.54,-13.48 79.55,-20.09l59.26 -13.76c2.52,-0.75 6.59,-1.97 8.96,-2.91 1.19,-0.47 4.76,-2.13 5.77,-2.6 0.84,-0.4 2.14,-1.17 2.81,-1.51 0.68,-0.34 1.91,-0.99 2.81,-1.57 -6.02,-24.22 -35.94,-67.15 -49.13,-75.76 -83.68,-54.68 -225.44,-14.06 -306.31,18.36 -125.64,50.36 -214.4,83.53 -341.67,119.96l-25.81 11.35z"/>
  <path class="fil23" d="M19016.88 9056.94c27.19,7.93 48.41,16.97 61.62,53.3 13.04,35.84 13.7,78.33 15.97,117.79 5,87.02 7.92,174.88 8.06,261.72l-0.02 26.94c3.4,60.12 -5.78,157.79 -9.16,221.71 6.91,-2.46 29.12,-24.64 37.24,-32.44 12.85,-12.32 19.06,-21.23 23.38,-46.38 6.35,-36.93 12.08,-93.08 12.04,-131.35 -0.09,-165.54 16.53,-297.41 -14.96,-467.61 -24.34,-131.5 -100.34,-28.32 -149.66,-10.03l15.49 6.35z"/>
  <path class="fil24" d="M18403.94 9519.43c29.57,-2.08 47.5,-4.54 66.16,14.43 12.48,12.7 27.06,28.99 36.05,48.68 36.98,81 -157.58,153.12 -171.95,41.48 -8.86,-68.8 3.56,-99.94 69.74,-104.59zm-31.57 -57.94c-34.76,6.29 -66.92,25.46 -75.98,56.84 -47.91,166.07 60.07,235.11 166.56,201.2 38.78,-12.35 54.52,-28.97 73.44,-57.56 22.58,-34.13 18.24,-67.12 7.4,-109.42 -20.3,-79.15 -93.32,-105.21 -171.42,-91.06z"/>
  <path class="fil25" d="M18403.94 9519.43c-66.18,4.65 -78.6,35.79 -69.74,104.59 14.37,111.64 208.93,39.52 171.95,-41.48 -8.99,-19.69 -23.57,-35.98 -36.05,-48.68 -18.66,-18.97 -36.59,-16.51 -66.16,-14.43z"/>
  <path class="fil23" d="M19169.86 8978.36c16.1,27.98 19.4,41.66 26.24,79.35 5.3,29.18 3.39,71.52 14.64,94.9 10.29,-73.47 19.06,-202.71 13.62,-277.73 -18.84,39 -35.78,69.75 -54.5,103.48z"/>
  <path class="fil24" d="M17577.81 8603.85c-6.67,5 -17.13,13 -29.6,12.25 -11.02,-0.67 -17.84,-9.14 -15.13,-22.6 2.2,-10.94 16.41,-13.81 30.33,-11.42 15.16,2.59 13.58,6.1 14.4,21.77zm-47.57 -41.74c-11.45,5.47 -19.81,11.54 -22.87,28.46 -5.92,32.72 26.98,83.44 77.81,58.78 62.57,-30.36 1.91,-114.38 -54.94,-87.24z"/>
  <path class="fil24" d="M17931.82 8649.84c-20.29,17.21 -69.26,14.55 -50.74,-15.7 8.02,-13.1 47.62,-19.79 50.74,15.7zm-48.6 -42.69c-58.2,17.95 -32.25,116.78 39.1,86.94 25.66,-10.73 46.31,-25.25 28.79,-61.09 -10.85,-22.17 -36.33,-35.58 -67.89,-25.85z"/>
  <path class="fil24" d="M18184.16 8712.53c22.18,-20.83 61.6,-21.44 46.19,23.34 -26.81,6.64 -49.84,12.84 -46.19,-23.34zm-0.72 -24.12c-58.56,27.18 -4.23,114.41 52.31,84.28 23.66,-12.61 36.15,-32.92 19.04,-66.3 -9.87,-19.25 -43.42,-30.94 -71.35,-17.98z"/>
  <path class="fil24" d="M17230.56 8593.2c27.53,-46.44 80.87,17.93 17.23,18.83 -16.74,0.24 -15.27,-2.62 -17.23,-18.83zm-0.39 -27.39c-26.54,12.61 -29.1,33.3 -14.68,60.09 11.52,21.41 34.4,31.23 65.62,19.49 59.49,-22.38 14.15,-110.53 -50.94,-79.58z"/>
  <path class="fil23" d="M16294.55 9035.34c34.59,8.99 110.5,39.83 139.57,40.95 -27.81,-8.93 -99.6,-59.23 -122.24,-89.23 -10.08,-13.36 -18.92,-31.88 -28.98,-43.65 -1.67,26.41 7.84,64.41 11.65,91.93z"/>
  <path class="fil26" d="M18183.57 9242.25c38.88,-1.11 81.04,-0.1 118.03,-7.45 26.56,-5.28 78.65,-19.26 103.05,-19.84l-232.61 -0.45 11.53 27.74z"/>
  <path class="fil25" d="M16203.73 9005.75l52.91 18.59 -7.36 -87.39c-10.97,3.96 -40.4,50.15 -45.55,68.8z"/>
  <path class="fil25" d="M18184.16 8712.53c-3.65,36.18 19.38,29.98 46.19,23.34 15.41,-44.78 -24.01,-44.17 -46.19,-23.34z"/>
  <path class="fil25" d="M17931.82 8649.84c-3.12,-35.49 -42.72,-28.8 -50.74,-15.7 -18.52,30.25 30.45,32.91 50.74,15.7z"/>
  <path class="fil25" d="M17656.94 9823c22.13,2.13 46.24,2.48 68.54,2.42 30.3,-0.07 36.15,-2.57 43.93,-29.69l-112.47 27.27z"/>
  <path class="fil25" d="M17230.56 8593.2c1.96,16.21 0.49,19.07 17.23,18.83 63.64,-0.9 10.3,-65.27 -17.23,-18.83z"/>
  <path class="fil25" d="M17577.81 8603.85c-0.82,-15.67 0.76,-19.18 -14.4,-21.77 -13.92,-2.39 -28.13,0.48 -30.33,11.42 -2.71,13.46 4.11,21.93 15.13,22.6 12.47,0.75 22.93,-7.25 29.6,-12.25z"/>
  <path class="fil23" d="M29897.62 15657.12l-32.11 -3.59c-7.71,6.31 -58.04,91.88 -68.35,108.23l-274.03 441.09c-67.91,106.57 -96.21,132.25 -13.9,240.63 53.22,70.09 134.35,119.62 226.02,134.41 199.39,32.16 385.3,-425.38 480.74,-579.12 11.25,-18.53 23.49,-36.39 34.44,-55 10.07,-17.11 27.8,-41.07 33.98,-57.61 -8.58,-4.37 -46.57,-10.76 -60.3,-14.47 -59,-15.97 -138.08,-49.8 -184.04,-83.66 -8.22,-6.06 -15.04,-10.05 -23.43,-16.35 -42.34,-31.75 -86.91,-71.83 -119.02,-114.56z"/>
  <path class="fil23" d="M30340.54 15298.49c9.35,26.79 27.45,61.16 39.69,87.53l111.15 240.84c3.81,8.34 5.86,16.03 12.18,22.92 -4.24,-33.05 -100.48,-297 -99.51,-317.59l204.79 -13.31 -217.69 -25.04c-2.9,-4.12 -1.01,-2.34 -3.01,-5.24l-5.35 -6.96 -42.25 16.85z"/>
  <path class="fil27" d="M30615.59 15448.81c-4.52,12.41 -1.25,10.57 9.96,16.16 35.91,17.92 43.05,36.72 55.06,21.86 -0.55,-0.59 -1.47,-2.2 -1.78,-1.64l-13.27 -10.03c-9.97,-7.19 -39.49,-27.8 -49.97,-26.35z"/>
  <path class="fil27" d="M30363.21 15588.36c-13.41,0.35 -9.75,-2.13 -10.85,32.51 -0.24,7.51 -0.62,14.94 -0.92,22.44 -0.99,24.22 0.99,16.07 3.41,18.87l5.59 -0.39c4.61,-9.59 5.25,-61.24 2.77,-73.43z"/>
  <path class="fil27" d="M30046.23 15468.78c8.25,8.99 3.36,5.41 34.16,-10.5 9.27,-4.79 29.14,-10.77 33.58,-22.09 -8.59,-9.19 -5.66,-5.26 -34.45,10.18 -15.87,8.51 -32.34,12.97 -33.29,22.41z"/>
  <path class="fil27" d="M30057.02 15109.76c6.25,6.88 21.87,15.21 31.02,20.93l24.28 15.27c12.55,5.52 4.72,1.5 7.58,-0.54 7.98,-7.84 -9.01,-13.91 -23.62,-23 -12.26,-7.64 -22.33,-16.21 -35.49,-20.8l-3.77 8.14z"/>
  <path class="fil27" d="M30078.25 15288.55c-4.06,-9.33 -2.5,-5.89 -34.07,-6.69 -13.03,-0.33 -27.12,-2.2 -39.76,-0.02 -0.38,8.14 -0.22,9.41 6.92,10.53l58.66 1.81c13.67,-1.85 4.43,2.61 8.25,-5.63z"/>
  <path class="fil27" d="M30232.38 15041.12c1.16,-2.67 8.31,4.56 -4.05,-17.17l-19.38 -36.38c-5.88,-11.45 -3.72,-12.88 -14.72,-9.99 -0.97,9.51 10.49,26.4 14.84,34.95 9.23,18.13 13.48,32.06 23.31,28.59z"/>
  <path class="fil27" d="M30622.77 15157.3c5.4,15.7 20.61,-1.66 51.08,-16.35 8.05,-3.88 11.47,-4.43 17.24,-11.57 -4.55,-11.7 -9.28,-5.16 -32.94,7 -8.6,4.43 -29.5,14.29 -35.38,20.92z"/>
  <path class="fil27" d="M30519.13 15048.57l6.03 4.79c7.6,-6.07 16.39,-23.24 21.32,-31.32l15.25 -24.17c5.9,-14.59 2.79,-1.84 -2.67,-10.86 -8.68,2.84 -7.08,4.42 -12.38,12.97 -6.03,9.72 -27.98,42.63 -27.55,48.59z"/>
  <path class="fil27" d="M30658.26 15308.1c6.02,8.99 8.36,4.89 37.53,6.22 6.49,0.29 13.25,0.62 19.72,0.84 19.18,0.64 15.33,-2.25 17.18,-7.06 -6.34,-7.81 -39.45,-5.13 -56.59,-5.78 -20.71,-0.78 -13.59,1 -17.84,5.78z"/>
  <path class="fil27" d="M30377.2 15008.04c10.3,-4.64 6.1,-0.8 7.15,-35.04 0.23,-7.55 0.66,-15 0.99,-22.52 0.81,-18.59 -1.05,-14.74 -5.34,-16.76 -9.31,4.19 -5.65,1.94 -6.71,33.69 -0.22,6.54 -0.46,13.04 -0.75,19.57 -0.73,16.8 -0.52,15.06 4.66,21.06z"/>
  <path class="fil27" d="M30214.55 15543.57c-9.27,1.19 -1.74,-3 -8.02,4.41l-16.28 25.72c-4.04,6.69 -6.13,10.36 -10.73,17.26 -11.97,17.95 -4.04,28.67 10.47,4.81 3.63,-5.97 6.54,-10.14 10.86,-17.07 4.04,-6.48 6.22,-10.71 10.64,-17.28 11.59,-17.23 5.62,-14.74 3.06,-17.85z"/>
  <path class="fil27" d="M30504.11 15554.6c-0.39,1.73 -2.84,-1.67 0.01,8.87l32.38 56.07 7.2 -2.49c-4.74,-11.88 -9.48,-21.83 -16.5,-34.41 -15.18,-27.19 -10.29,-30.87 -23.09,-28.04z"/>
  <path class="fil23" d="M31272.51 14235.98c-3.81,-10.16 -20.84,-46.11 -28.85,-54.22 -2.88,-4.86 -4.7,-8.23 -8.56,-10.24 -3.03,-6.5 -3.15,-7.44 -6.97,-12.61l-8.72 -9.16c-0.4,-0.37 -1.14,-1.08 -1.74,-1.58 -13.9,-26.87 -70.15,-70.61 -106.88,-89.76 -45.24,-23.58 -98.29,-39.38 -157.78,-42.04 -73.98,-3.3 -90.72,30.34 -119.76,77.46l-345.76 556.49c-9.73,15.53 -31.71,47.27 -37.34,62.97 13.37,5.52 73.49,14.27 128.1,36.32 78.54,31.7 142.43,74.49 201.26,128.57 19.68,18.08 61.03,64.96 76.22,88.49 10.96,-12.44 94.67,-150.38 106.39,-168.83l264.27 -425.61c12.79,-20.5 47.02,-66.17 46.49,-93.09 5.43,-6.44 5.26,-27.94 1.08,-35.05l-1.45 -8.11z"/>
  <path class="fil23" d="M30612.61 14917.62l8.59 3.72c6.04,9.53 16.24,13.4 24.23,17.94l2.16 3.16c2.24,2.28 1.25,2.09 4.88,4.4 5.15,3.29 0.66,0.44 6.98,3.54 3.65,7.23 40.46,38.72 50.21,50.6 51.66,62.98 86.86,127.47 103.15,215.01 65.84,353.81 -299.67,664.75 -664.22,476.97 -88.26,-45.47 -160.58,-131.92 -198.23,-223.51 -47.3,-115.05 -44.52,-237.31 2.83,-350.4 40.51,-96.77 117.22,-174.4 202.16,-219.82 78.13,-41.77 171.13,-60.74 263.13,-50.46 31.65,3.53 61.87,14.33 87.86,17.25 6.86,6.65 21.74,8.9 31.83,12.12l12.12 4.88 24.85 13.42 37.47 21.18zm-760.35 725.73c5.26,-6.04 10.16,-13.4 14.02,-20.66l5.47 -8.72c1.45,-1.73 1.91,-2.57 3.83,-5.65 1.47,-2.33 1.94,-3.34 3.17,-5.33 3.47,-5.58 4.66,-6.77 8.49,-12.31l31.23 37.02c4.42,7.99 8.75,14.78 17.17,20.86 3.47,12.33 55.04,62.03 70.76,74.78 97.71,79.17 179.08,113.85 314.88,131.39 -5.61,18.44 -50.37,77.92 -57.67,97.48 14.1,8.91 27.36,17 40.93,24.82 13.86,-6.15 123.58,-108.14 146.35,-123.4 25.9,-17.35 126.39,-2.82 293.59,-142.25l77.35 -87.47c84.68,-119.58 124.9,-265.7 95.52,-428.45 -7.56,-41.83 -18.13,-44.58 -7.35,-86.7 7.57,-29.6 14.51,-57.13 22.1,-86.74 5.94,-23.17 20.61,-70.45 21.72,-91.41 -16.44,-6.06 -26.4,-17.91 -44.36,-23.72 -3.19,10.7 -55.97,96.61 -62.76,101.28 -52.58,-73.55 -89.61,-125.3 -171.37,-176.68 -69.95,-43.95 -158.3,-83.89 -259.75,-89.79 6.86,-22.16 50.16,-77.75 61.66,-103.81 -4.62,-5.6 -32.99,-23.06 -41.35,-26.3l-118.79 100.29c-10.8,9.46 -17.39,15.34 -28.23,24.84 -18.23,15.99 -72.29,21.13 -123.82,40.91 -248.21,95.23 -390.94,353.6 -346.77,616.87 4.91,29.27 20.24,60.04 12.66,87.83 -7.33,26.91 -42.11,157.12 -43.47,175.15 14.46,6.1 28.26,19.38 41.86,23.84l22.93 -37.97z"/>
  <line class="fil28 str3" x1="20722.68" y1="9941.43" x2="21072.68" y2= "9937.67" />
  <g id="_2102924918800">
   <line class="fil28 str3" x1="24886.35" y1="9769.55" x2="24886.35" y2= "10109.55" />
   <line class="fil28 str3" x1="24715.5" y1="9939.83" x2="25057.2" y2= "9939.26" />
  </g>
  <line class="fil28 str3" x1="20733.79" y1="16231.38" x2="21073.79" y2= "16227.73" />
  <g id="_2102924919472">
   <line class="fil28 str3" x1="24892.46" y1="16059.55" x2="24892.46" y2= "16399.55" />
   <line class="fil28 str3" x1="24721.61" y1="16229.83" x2="25063.31" y2= "16229.26" />
  </g>
  <line class="fil28 str3" x1="33598.81" y1="9941.37" x2="33938.81" y2= "9937.72" />
  <g id="_2102924922128">
   <line class="fil28 str3" x1="37752.57" y1="9772.67" x2="37752.57" y2= "10112.67" />
   <line class="fil28 str3" x1="37581.72" y1="9942.95" x2="37923.42" y2= "9942.38" />
  </g>
  <line class="fil28 str3" x1="33604.92" y1="16231.38" x2="33944.92" y2= "16227.73" />
  <g id="_2102924923312">
   <line class="fil28 str3" x1="37748.94" y1="16065.63" x2="37748.94" y2= "16405.63" />
   <line class="fil28 str3" x1="37578.09" y1="16235.91" x2="37919.79" y2= "16235.34" />
  </g>
 </g>
</svg>
