<?xml version="1.0" encoding="UTF-8"?>
<!DOCTYPE svg PUBLIC "-//W3C//DTD SVG 1.1//EN" "http://www.w3.org/Graphics/SVG/1.1/DTD/svg11.dtd">
<!-- Creator: CorelDRAW 2018 (64-Bit Evaluation Version) -->
<svg xmlns="http://www.w3.org/2000/svg" xml:space="preserve" width="440.267mm" height="321.733mm" version="1.1" style="shape-rendering:geometricPrecision; text-rendering:geometricPrecision; image-rendering:optimizeQuality; fill-rule:evenodd; clip-rule:evenodd"
viewBox="0 0 47042.18 34376.99"
 xmlns:xlink="http://www.w3.org/1999/xlink">
 <defs>
  <style type="text/css">
   <![CDATA[
    .str0 {stroke:#FFC83A;stroke-width:45.23;stroke-miterlimit:22.9256;stroke-opacity:0.258824}
    .fil10 {fill:#99D2FF}
    .fil11 {fill:#99E7FF}
    .fil6 {fill: #FFC83A;opacity: 0.15;}
    .fil9 {fill: #FFC83A;fill-opacity: 0.045;}
    .fil2 {fill:white}
    .fil14 {fill:#006648;fill-opacity:0.12}
    .fil8 {fill:#006648;fill-rule:nonzero}
    .fil1 {fill:#FFC83A;fill-opacity:0.101961}
    .fil0 {fill:none}
    .fil3 {fill:#006648;fill-opacity:0.12}
    .fil5 { fill: #FFC83A;fill-opacity: 0.12;}
    .fil7 {fill:#FFC83A;fill-opacity:0.258824}
    .fil4 {fill:#006648;fill-opacity:0.400000}
    .fil12 {fill:#006648;fill-opacity:0.45}
    .fil13 {fill:#B4DCFF;fill-opacity:0.45}
   ]]>
  </style>
 </defs>
 <g id="Layer_x0020_1">
  <metadata id="CorelCorpID_0Corel-Layer"/>
  <g id="_2574163607504">
   <polygon class="fil0" points="-0,0 47042.18,0 47042.18,34376.99 -0,34376.99 "/>
   <path class="fil1" d="M17174.09 3416.92l24972.21 0c812.61,0 1477.47,664.86 1477.47,1477.47l0 6758.98 -4946.92 5.63c-987.19,31.92 -1557.38,528.18 -1694.76,1506.44l-7.24 1810.64 -85.11 12.67 -2.74 690.76 88.72 57.94 1.78 680.79 -61.57 57.93 10.87 1517.31 43.46 32.59 10.87 340.4 -57.94 68.8 7.24 1466.61 39.83 65.19 10.33 3757.88 -19806.51 0c-812.61,0 -1477.47,-664.86 -1477.47,-1477.47l0 -17353.1c0,-812.61 664.86,-1477.47 1477.47,-1477.47z"/>
   <path class="fil2" d="M17174.08 3416.92l24972.22 0c812.6,0 1477.47,664.86 1477.47,1477.46l0 6758.99 -5.11 9952.45c14,1249.59 -492.08,2092.86 -2086.69,2085.76l-4551.39 33.39 -19806.51 0c-812.59,0 -1477.46,-664.87 -1477.46,-1477.48l0 -17353.11c0,-812.6 664.86,-1477.46 1477.46,-1477.46z"/>
   <path class="fil3" d="M17174.09 3416.92l7126.65 0 0 20308.04 -7126.65 0c-812.61,0 -1477.47,-664.86 -1477.47,-1477.47l0 -17353.1c0,-812.61 664.86,-1477.47 1477.47,-1477.47z"/>
   <path class="fil4" d="M17308.07 4522.54c113.38,0 205.3,91.92 205.3,205.3 0,113.39 -91.92,205.3 -205.3,205.3 -113.39,0 -205.3,-91.91 -205.3,-205.3 0,-113.38 91.91,-205.3 205.3,-205.3z"/>
   <path class="fil4" d="M18046.81 4522.54c113.39,0 205.3,91.92 205.3,205.3 0,113.39 -91.91,205.3 -205.3,205.3 -113.38,0 -205.29,-91.91 -205.29,-205.3 0,-113.38 91.91,-205.3 205.29,-205.3z"/>
   <path class="fil4" d="M18785.55 4522.54c113.39,0 205.3,91.92 205.3,205.3 0,113.39 -91.91,205.3 -205.3,205.3 -113.38,0 -205.3,-91.91 -205.3,-205.3 0,-113.38 91.92,-205.3 205.3,-205.3z"/>
   <path class="fil4" d="M17307.15 7585.92l5683.59 0c64.73,0 117.69,52.95 117.69,117.69l0 0c0,64.73 -52.97,117.69 -117.69,117.69l-5683.59 0c-64.73,0 -117.68,-52.97 -117.68,-117.69l0 0c0,-64.74 52.95,-117.69 117.68,-117.69z"/>
   <path class="fil4" d="M17307.15 9142.16l5683.59 0c64.73,0 117.69,52.95 117.69,117.69l0 0c0,64.73 -52.97,117.69 -117.69,117.69l-5683.59 0c-64.73,0 -117.68,-52.97 -117.68,-117.69l0 0c0,-64.74 52.95,-117.69 117.68,-117.69z"/>
   <path class="fil4" d="M17307.15 10580.7l5683.59 0c64.73,0 117.69,52.95 117.69,117.68l0 0.01c0,64.73 -52.97,117.68 -117.69,117.68l-5683.59 0c-64.73,0 -117.68,-52.95 -117.68,-117.68l0 -0.01c0,-64.73 52.95,-117.68 117.68,-117.68z"/>
   <path class="fil4" d="M17307.15 11901.56l5683.59 0c64.73,0 117.69,52.95 117.69,117.68l0 0.01c0,64.73 -52.97,117.68 -117.69,117.68l-5683.59 0c-64.73,0 -117.68,-52.95 -117.68,-117.68l0 -0.01c0,-64.73 52.95,-117.68 117.68,-117.68z"/>
   <path class="fil4" d="M17307.15 13415.25l5683.59 0c64.73,0 117.69,52.95 117.69,117.68l0 0.01c0,64.73 -52.97,117.68 -117.69,117.68l-5683.59 0c-64.73,0 -117.68,-52.95 -117.68,-117.68l0 -0.01c0,-64.73 52.95,-117.68 117.68,-117.68z"/>
   <path class="fil4" d="M17268.72 14873.22l2429.41 0c64.73,0 117.68,52.94 117.68,117.68l0 0c0,64.73 -52.95,117.69 -117.68,117.69l-2429.41 0c-64.73,0 -117.68,-52.97 -117.68,-117.69l0 0c0,-64.74 52.95,-117.68 117.68,-117.68z"/>
   <path class="fil5" d="M26449.98 7188.64l15484.51 0c318.68,0 579.4,260.72 579.4,579.41l0 115.87c0,318.68 -260.72,579.4 -579.4,579.4l-15484.51 0c-318.68,0 -579.4,-260.72 -579.4,-579.4l0 -115.87c0,-318.69 260.72,-579.41 579.4,-579.41z"/>
   <ellipse class="fil6" cx="39479.25" cy="5187.89" rx="695.28" ry="668.12"/>
   <path class="fil6" d="M40829.96 5052.08l1506.45 0c81.68,0 148.47,66.8 148.47,148.47l0 0.01c0,81.66 -66.79,148.47 -148.47,148.47l-1506.45 0c-81.65,0 -148.47,-66.8 -148.47,-148.47l0 -0.01c0,-81.66 66.81,-148.47 148.47,-148.47z"/>
   <g>
    <path class="fil7 str0" d="M29147.77 10520.18l6467.58 0c65.73,0 119.5,53.77 119.5,119.5l0 0c0,65.73 -53.77,119.5 -119.5,119.5l-6467.58 0c-65.73,0 -119.5,-53.77 -119.5,-119.5l0 0c0,-65.73 53.77,-119.5 119.5,-119.5z"/>
    <g>
     <path class="fil7 str0" d="M29129.68 11211.84l2085.83 0c65.73,0 119.5,53.77 119.5,119.5l0 0c0,65.73 -53.77,119.5 -119.5,119.5l-2085.83 0c-65.73,0 -119.5,-53.77 -119.5,-119.5l0 0c0,-65.73 53.77,-119.5 119.5,-119.5z"/>
     <path class="fil7 str0" d="M32160.66 11211.84l3472.77 0c65.73,0 119.5,53.77 119.5,119.5l0 0c0,65.73 -53.77,119.5 -119.5,119.5l-3472.77 0c-65.73,0 -119.5,-53.77 -119.5,-119.5l0 0c0,-65.73 53.77,-119.5 119.5,-119.5z"/>
    </g>
   </g>
   <g>
    <path class="fil7 str0" d="M29147.77 13542.54l6467.58 0c65.73,0 119.5,53.76 119.5,119.5l0 0c0,65.73 -53.77,119.5 -119.5,119.5l-6467.58 0c-65.73,0 -119.5,-53.77 -119.5,-119.5l0 0c0,-65.74 53.77,-119.5 119.5,-119.5z"/>
    <g>
     <path class="fil7 str0" d="M29129.68 14234.19l2085.83 0c65.73,0 119.5,53.77 119.5,119.5l0 0c0,65.74 -53.77,119.51 -119.5,119.51l-2085.83 0c-65.73,0 -119.5,-53.77 -119.5,-119.51l0 0c0,-65.73 53.77,-119.5 119.5,-119.5z"/>
     <path class="fil7 str0" d="M32160.66 14234.19l3472.77 0c65.73,0 119.5,53.77 119.5,119.5l0 0c0,65.74 -53.77,119.51 -119.5,119.51l-3472.77 0c-65.73,0 -119.5,-53.77 -119.5,-119.51l0 0c0,-65.73 53.77,-119.5 119.5,-119.5z"/>
    </g>
   </g>
   <g>
    <path class="fil7 str0" d="M29147.77 16391.08l6467.58 0c65.73,0 119.5,53.77 119.5,119.5l0 0c0,65.73 -53.77,119.5 -119.5,119.5l-6467.58 0c-65.73,0 -119.5,-53.77 -119.5,-119.5l0 0c0,-65.73 53.77,-119.5 119.5,-119.5z"/>
    <g>
     <path class="fil7 str0" d="M29129.68 17082.74l2085.83 0c65.73,0 119.5,53.76 119.5,119.5l0 0c0,65.73 -53.77,119.5 -119.5,119.5l-2085.83 0c-65.73,0 -119.5,-53.77 -119.5,-119.5l0 0c0,-65.74 53.77,-119.5 119.5,-119.5z"/>
     <path class="fil7 str0" d="M32160.66 17082.74l3472.77 0c65.73,0 119.5,53.76 119.5,119.5l0 0c0,65.73 -53.77,119.5 -119.5,119.5l-3472.77 0c-65.73,0 -119.5,-53.77 -119.5,-119.5l0 0c0,-65.74 53.77,-119.5 119.5,-119.5z"/>
    </g>
   </g>
   <polygon class="fil8" points="26396.09,5621.74 26306.33,5621.74 26306.33,5315.96 26054.29,4956.78 26161.73,4956.78 26351.21,5225.88 26543.11,4956.78 26651.04,4956.78 26396.09,5315.96 "/>
   <path id="1" class="fil8" d="M27040.93 5505.76c28.15,-27.66 42.31,-64.01 42.31,-109.06 0,-45.2 -14.16,-81.23 -42.31,-108.25 -28.14,-27.18 -63.21,-40.86 -105.19,-41.18 -41.82,0 -77.05,13.52 -105.51,40.7 -28.8,27.34 -43.27,63.37 -43.27,108.25 0,44.72 14.16,81.08 42.3,109.06 28.15,28.14 63.38,42.14 105.68,42.14 42.46,0 77.85,-13.84 105.99,-41.66zm-105.51 125.62c-65.63,0 -121.28,-21.71 -167.28,-65.15 -46.01,-43.42 -69,-100.04 -69,-170.02 0,-69.96 22.67,-126.74 67.87,-170.18 45.21,-43.42 101.02,-64.99 167.61,-64.67 66.91,0 122.89,21.72 168.08,65.15 45.52,43.75 68.36,100.37 68.36,169.7 0,69.33 -22.84,125.79 -68.52,169.54 -45.68,43.75 -101.5,65.63 -167.12,65.63z"/>
   <path id="2" class="fil8" d="M27597 5414.4l0 -243.36 87.83 0 0 450.7 -87.83 0 0 -67.24c-12.86,24.78 -32.16,43.92 -58.06,57.11 -25.74,13.19 -53.08,19.78 -82.04,19.78 -55.81,0 -98.76,-17.53 -128.84,-52.75 -30.08,-35.23 -45.04,-84.13 -44.72,-146.7l0 -260.89 87.82 0 0 254.62c0,37.48 8.69,66.92 25.9,88.31 17.37,21.07 43.43,31.52 78.33,31.52 34.91,0 63.86,-10.93 87.19,-32.97 23.33,-22.03 34.74,-54.69 34.42,-98.12z"/>
   <path id="3" class="fil8" d="M27917.74 5457.83l0 163.91 -87.82 0 0 -450.7 87.82 0 0 101.66c22.04,-74.15 63.69,-111.32 125.3,-111.32 35.55,0 61.61,5.79 78.33,17.21l-13.67 82.36c-19.79,-10.46 -41.98,-15.6 -66.43,-15.6 -39.74,0 -70.14,18.98 -91.53,56.94 -21.39,38.12 -32.01,89.91 -32.01,155.54z"/>
   <path id="4" class="fil8" d="M28437.93 5430.65l90.23 0c0.64,29.92 14.16,56.94 40.54,81.23 26.37,24.29 59.68,36.19 100.2,35.55 40.54,0 72.23,-9.01 95.22,-26.86 22.84,-17.85 36.52,-41.5 40.86,-70.62 4.99,-60.64 -32.65,-100.04 -113.08,-118.22l-85.74 -22.04c-108.09,-27.5 -162.13,-85.4 -162.13,-173.4 0,-54.53 21.23,-99.24 63.69,-133.99 40.86,-35.55 91.53,-53.24 151.68,-53.24 60.32,0 110.98,17.85 152.32,53.72 41.18,35.71 61.77,82.84 61.77,141.23l-89.75 0c0,-32.81 -11.58,-59.19 -34.91,-79.3 -23.81,-19.79 -52.92,-29.76 -87.5,-29.76 -34.43,0 -64.83,9.01 -90.89,27.02 -24.45,18.01 -36.67,41.5 -36.67,70.46 0,44.88 32.01,74.79 95.87,89.75l86.7 21.23c63.54,16.89 110.34,43.27 140.42,79.3 30.25,36.03 42.31,79.93 36.36,131.57 -5.95,51.79 -28.96,94.09 -68.85,127.4 -39.89,33.13 -91.68,49.7 -155.38,49.7 -63.69,0 -118.38,-19.62 -164.07,-59.03 -44.56,-40.69 -66.91,-87.98 -66.91,-141.7z"/>
   <polygon id="5" class="fil8" points="29135.86,5006 29135.86,5171.04 29230.45,5171.04 29230.45,5249.21 29135.86,5249.21 29135.86,5621.74 29048.04,5621.74 29048.04,5249.21 28966.98,5249.21 28966.98,5171.04 29048.04,5171.04 29048.04,5006 "/>
   <path id="6" class="fil8" d="M29642.06 5505.76c28.15,-27.66 42.31,-64.01 42.31,-109.06 0,-45.2 -14.16,-81.23 -42.31,-108.25 -28.14,-27.18 -63.21,-40.86 -105.19,-41.18 -41.82,0 -77.05,13.52 -105.51,40.7 -28.8,27.34 -43.27,63.37 -43.27,108.25 0,44.72 14.16,81.08 42.3,109.06 28.15,28.14 63.38,42.14 105.68,42.14 42.46,0 77.85,-13.84 105.99,-41.66zm-105.51 125.62c-65.63,0 -121.28,-21.71 -167.28,-65.15 -46.01,-43.42 -69,-100.04 -69,-170.02 0,-69.96 22.67,-126.74 67.87,-170.18 45.21,-43.42 101.02,-64.99 167.61,-64.67 66.91,0 122.89,21.72 168.08,65.15 45.52,43.75 68.36,100.37 68.36,169.7 0,69.33 -22.84,125.79 -68.52,169.54 -45.68,43.75 -101.5,65.63 -167.12,65.63z"/>
   <path id="7" class="fil8" d="M29977.12 5457.83l0 163.91 -87.82 0 0 -450.7 87.82 0 0 101.66c22.04,-74.15 63.69,-111.32 125.3,-111.32 35.55,0 61.61,5.79 78.33,17.21l-13.67 82.36c-19.79,-10.46 -41.98,-15.6 -66.43,-15.6 -39.74,0 -70.14,18.98 -91.53,56.94 -21.39,38.12 -32.01,89.91 -32.01,155.54z"/>
   <path id="8" class="fil8" d="M30694.68 5395.1c0,19.95 -0.32,31.36 -0.96,34.59l-365.78 0c4.35,36.35 20.43,66.43 48.09,90.39 26.7,22.03 56.62,33.13 89.91,33.13 65.15,0 110.67,-23.33 136.72,-69.96 0.65,0 1.61,0.16 2.9,0.8 1.13,0.64 3.38,1.76 6.59,3.38 3.71,1.6 8.69,3.54 14.97,5.63 6.27,2.25 11.09,4.18 14.15,5.79l36.84 13.67c-18.51,37.96 -46.49,67.24 -83.97,87.83 -37.31,20.75 -78.49,31.04 -123.37,31.04 -64.5,0 -119.51,-21.71 -165.35,-65.31 -43.59,-43.58 -65.31,-100.68 -65.31,-170.98 0,-70.46 21.71,-126.92 64.98,-169.54 43.43,-42.46 98.28,-63.85 164.88,-64.18 66.59,0 120.31,21.56 161.17,64.5 42.3,42.78 63.53,99.24 63.53,169.22zm-131.57 -123.21c-25.09,-21.56 -56.3,-32.33 -93.29,-32.33 -37.16,0 -69,10.77 -95.7,32.33 -26.38,22.99 -41.82,52.91 -46.17,89.27l279.4 0c-4.35,-36.36 -19.15,-66.28 -44.24,-89.27z"/>
   <path class="fil7" d="M37736.75 21906.69l1879.48 0c69.71,0 126.73,57.03 126.73,126.73l0 0.02c0,69.71 -57.03,126.73 -126.73,126.73l-1879.48 0c-69.71,0 -126.73,-57.03 -126.73,-126.73l0 -0.02c0,-69.71 57.03,-126.73 126.73,-126.73z"/>
   <path class="fil7" d="M40458.12 21928.42l1879.48 0c69.71,0 126.73,57.03 126.73,126.73l0 0.02c0,69.71 -57.03,126.73 -126.73,126.73l-1879.48 0c-69.71,0 -126.73,-57.03 -126.73,-126.73l0 -0.02c0,-69.71 57.03,-126.73 126.73,-126.73z"/>
   <rect class="fil9" x="3726.79" y="12000.53" width="15605.34" height="20467.89" rx="866.96" ry="866.96"/>
   <polygon class="fil8" points="9892.62,14368.61 9802.87,14368.61 9802.87,14062.83 9550.82,13703.66 9658.27,13703.66 9847.75,13972.76 10039.65,13703.66 10147.58,13703.66 9892.62,14062.83 "/>
   <path id="1" class="fil8" d="M10537.47 14252.64c28.15,-27.66 42.31,-64.01 42.31,-109.06 0,-45.2 -14.16,-81.23 -42.31,-108.25 -28.14,-27.18 -63.21,-40.86 -105.19,-41.18 -41.82,0 -77.05,13.52 -105.51,40.7 -28.8,27.34 -43.27,63.37 -43.27,108.25 0,44.72 14.16,81.08 42.3,109.06 28.15,28.14 63.38,42.14 105.68,42.14 42.46,0 77.85,-13.84 105.99,-41.66zm-105.51 125.62c-65.63,0 -121.28,-21.71 -167.28,-65.15 -46.01,-43.42 -69,-100.04 -69,-170.02 0,-69.96 22.67,-126.74 67.87,-170.18 45.21,-43.42 101.02,-64.99 167.61,-64.67 66.91,0 122.89,21.72 168.08,65.15 45.52,43.75 68.36,100.37 68.36,169.7 0,69.33 -22.84,125.79 -68.52,169.54 -45.68,43.75 -101.5,65.63 -167.12,65.63z"/>
   <path id="2" class="fil8" d="M11093.53 14161.27l0 -243.36 87.83 0 0 450.7 -87.83 0 0 -67.24c-12.86,24.78 -32.16,43.92 -58.06,57.11 -25.74,13.19 -53.08,19.78 -82.04,19.78 -55.81,0 -98.76,-17.53 -128.84,-52.75 -30.08,-35.23 -45.04,-84.13 -44.72,-146.7l0 -260.89 87.82 0 0 254.62c0,37.48 8.69,66.92 25.9,88.31 17.37,21.07 43.43,31.52 78.33,31.52 34.91,0 63.86,-10.93 87.19,-32.97 23.33,-22.03 34.74,-54.69 34.42,-98.12z"/>
   <path id="3" class="fil8" d="M11414.27 14204.71l0 163.91 -87.82 0 0 -450.7 87.82 0 0 101.66c22.04,-74.15 63.69,-111.32 125.3,-111.32 35.55,0 61.61,5.79 78.33,17.21l-13.67 82.36c-19.79,-10.46 -41.98,-15.6 -66.43,-15.6 -39.74,0 -70.14,18.98 -91.53,56.94 -21.39,38.12 -32.01,89.91 -32.01,155.54z"/>
   <path id="4" class="fil8" d="M11934.47 14177.53l90.23 0c0.64,29.92 14.16,56.94 40.54,81.23 26.37,24.29 59.68,36.19 100.2,35.55 40.54,0 72.23,-9.01 95.22,-26.86 22.84,-17.85 36.52,-41.5 40.86,-70.62 4.99,-60.64 -32.65,-100.04 -113.08,-118.22l-85.74 -22.04c-108.09,-27.5 -162.13,-85.4 -162.13,-173.4 0,-54.53 21.23,-99.24 63.69,-133.99 40.86,-35.55 91.53,-53.24 151.68,-53.24 60.32,0 110.98,17.85 152.32,53.72 41.18,35.71 61.77,82.84 61.77,141.23l-89.75 0c0,-32.81 -11.58,-59.19 -34.91,-79.3 -23.81,-19.79 -52.92,-29.76 -87.5,-29.76 -34.43,0 -64.83,9.01 -90.89,27.02 -24.45,18.01 -36.67,41.5 -36.67,70.46 0,44.88 32.01,74.79 95.87,89.75l86.7 21.23c63.54,16.89 110.34,43.27 140.42,79.3 30.25,36.03 42.31,79.93 36.36,131.57 -5.95,51.79 -28.96,94.09 -68.85,127.4 -39.89,33.13 -91.68,49.7 -155.38,49.7 -63.69,0 -118.38,-19.62 -164.07,-59.03 -44.56,-40.69 -66.91,-87.98 -66.91,-141.7z"/>
   <polygon id="5" class="fil8" points="12632.4,13752.87 12632.4,13917.91 12726.98,13917.91 12726.98,13996.08 12632.4,13996.08 12632.4,14368.61 12544.58,14368.61 12544.58,13996.08 12463.51,13996.08 12463.51,13917.91 12544.58,13917.91 12544.58,13752.87 "/>
   <path id="6" class="fil8" d="M13138.6 14252.64c28.15,-27.66 42.31,-64.01 42.31,-109.06 0,-45.2 -14.16,-81.23 -42.31,-108.25 -28.14,-27.18 -63.21,-40.86 -105.19,-41.18 -41.82,0 -77.05,13.52 -105.51,40.7 -28.8,27.34 -43.27,63.37 -43.27,108.25 0,44.72 14.16,81.08 42.3,109.06 28.15,28.14 63.38,42.14 105.68,42.14 42.46,0 77.85,-13.84 105.99,-41.66zm-105.51 125.62c-65.63,0 -121.28,-21.71 -167.28,-65.15 -46.01,-43.42 -69,-100.04 -69,-170.02 0,-69.96 22.67,-126.74 67.87,-170.18 45.21,-43.42 101.02,-64.99 167.61,-64.67 66.91,0 122.89,21.72 168.08,65.15 45.52,43.75 68.36,100.37 68.36,169.7 0,69.33 -22.84,125.79 -68.52,169.54 -45.68,43.75 -101.5,65.63 -167.12,65.63z"/>
   <path id="7" class="fil8" d="M13473.66 14204.71l0 163.91 -87.82 0 0 -450.7 87.82 0 0 101.66c22.04,-74.15 63.69,-111.32 125.3,-111.32 35.55,0 61.61,5.79 78.33,17.21l-13.67 82.36c-19.79,-10.46 -41.98,-15.6 -66.43,-15.6 -39.74,0 -70.14,18.98 -91.53,56.94 -21.39,38.12 -32.01,89.91 -32.01,155.54z"/>
   <path id="8" class="fil8" d="M14191.21 14141.98c0,19.95 -0.32,31.36 -0.96,34.59l-365.78 0c4.35,36.35 20.43,66.43 48.09,90.39 26.7,22.03 56.62,33.13 89.91,33.13 65.15,0 110.67,-23.33 136.72,-69.96 0.65,0 1.61,0.16 2.9,0.8 1.13,0.64 3.38,1.76 6.59,3.38 3.71,1.6 8.69,3.54 14.97,5.63 6.27,2.25 11.09,4.18 14.15,5.79l36.84 13.67c-18.51,37.96 -46.49,67.24 -83.97,87.83 -37.31,20.75 -78.49,31.04 -123.37,31.04 -64.5,0 -119.51,-21.71 -165.35,-65.31 -43.59,-43.58 -65.31,-100.68 -65.31,-170.98 0,-70.46 21.71,-126.92 64.98,-169.54 43.43,-42.46 98.28,-63.85 164.88,-64.18 66.59,0 120.31,21.56 161.17,64.5 42.3,42.78 63.53,99.24 63.53,169.22zm-131.57 -123.21c-25.09,-21.56 -56.3,-32.33 -93.29,-32.33 -37.16,0 -69,10.77 -95.7,32.33 -26.38,22.99 -41.82,52.91 -46.17,89.27l279.4 0c-4.35,-36.36 -19.15,-66.28 -44.24,-89.27z"/>
   <rect class="fil10" x="5458.47" y="25789.9" width="3298.24" height="358.09" rx="179.05" ry="179.05"/>
   <rect class="fil10" x="9699.05" y="25808.75" width="2713.97" height="339.25" rx="169.62" ry="169.62"/>
   <rect class="fil10" x="5439.62" y="26675.71" width="12439.04" height="339.25" rx="169.62" ry="169.62"/>
   <rect class="fil10" x="5477.31" y="27542.67" width="12401.35" height="320.4" rx="160.2" ry="160.2"/>
   <path class="fil10" d="M6358.4 28685.28l10563.8 0c629.73,0 1144.94,515.22 1144.94,1144.94l0 54.2c0,629.73 -515.22,1144.94 -1144.94,1144.94l-10563.8 0c-629.73,0 -1144.94,-515.22 -1144.94,-1144.94l0 -54.2c0,-629.73 515.22,-1144.94 1144.94,-1144.94zm-61.24 293.32l10724 0c427.59,0 777.42,349.84 777.42,777.42l0 144.9c0,427.59 -349.84,777.42 -777.42,777.42l-10724 0c-427.59,0 -777.42,-349.84 -777.42,-777.42l0 -144.9c0,-427.59 349.84,-777.42 777.42,-777.42z"/>
   <rect class="fil9" x="3498.45" y="3298.24" width="10780.51" height="5597.57" rx="885.81" ry="885.81"/>
   <rect class="fil11" x="4313.59" y="6337.33" width="994.18" height="1154.38"/>
   <rect class="fil11" x="5708.26" y="7100.63" width="980.04" height="395.79"/>
   <rect class="fil11" x="7102.95" y="6040.49" width="984.77" height="1455.94"/>
   <rect class="fil11" x="8467.02" y="6415.08" width="989.48" height="1090.77"/>
   <rect class="fil11" x="9868.78" y="6271.34" width="982.4" height="1232.13"/>
   <rect class="fil11" x="11249.31" y="5880.25" width="989.47" height="1625.56"/>
   <rect class="fil11" x="12615.72" y="6346.72" width="1027.17" height="1173.23"/>
   <g>
    <path class="fil12" d="M10366.41 17781.54l-44.3 194.44 -3843.31 877.68c-110.87,38.42 -170.26,134.37 -174.34,292.14l32.95 4129.88c-18.67,120.56 26.52,148.03 117.8,108.37l3882.65 -1485.07 459.31 113.55 -4245.4 1616.49c-103.61,59.07 -540.36,-65.35 -570.13,-212.03l-47.13 -4330.12c-7.56,-207.9 97.07,-330.82 296.84,-381.66l4135.05 -923.67z"/>
    <polygon class="fil12" points="15796.95,20643.94 16566.48,20806.47 16568.43,20995.05 15783.68,20792.98 "/>
    <path class="fil12" d="M16293.15 18563.79l-4266.5 1227.42c-339.17,70.03 -485.4,247.24 -428.78,537.14l-70.68 4537.42c10.28,260.63 506.41,386.47 664.36,296.85l4499.73 -2157.97c177.56,-47.78 248.1,-194.04 268.58,-386.37l-25.94 -3835.41c-29.2,-193.95 -228.34,-276.43 -640.76,-219.08zm252.04 169.61l-4257.1 1229.79c-182.45,76.57 -270.7,206.11 -252.08,395.78l-96.59 4553.93 4515 -2134.43c94.03,-35.06 123.56,-139.22 129.58,-268.58l-38.81 -3776.49z"/>
    <path class="fil13" d="M15620.56 21325.55l-560.6 69.53c143.66,-289.72 171.03,-608.82 122.52,-947.04 67.67,-0.91 104.96,-51.36 112.95,-149.65l191.53 -1259.29 621.44 -179.52c-124.14,832.33 -254.62,1612.32 -397.17,2292.83l-32.98 124.86 -57.69 48.29zm-94.88 -2540.97l368.15 -2420.53 69.51 -286.24 51.83 -70.68 62.43 -50.65 85.98 -11.77 110.73 1.18 122.51 9.42 75.38 0 30.63 20.02 -1.19 103.65 -35.34 182.58c-104.96,797.16 -210.44,1589.97 -320.55,2344.62l-620.09 178.4z"/>
    <path class="fil12" d="M16502.83 15975.33l-67.24 -84.8 -183.76 -89.52 -226.17 -56.54 -287.42 -61.26c-1515.6,-272.18 -3031.25,-443.98 -4546.85,-490.02l-188.47 42.41 -193.18 122.5 -84.82 221.46 -108.37 372.23c-61.15,702.41 -138.16,1386.72 -287.44,1988.38l-261.25 1336.99c948.65,112.34 1798.34,229.3 2521.43,352.18l2943.5 -846.81 412.24 -2629.38c26.41,-122.25 89.12,-182.59 175.55,-202.55l382.25 24.74zm-3387.36 3748.84c1146.66,219.91 1885.4,458.86 2067.01,723.87 77.85,-4.58 121.06,-71.43 122.61,-213.18l187.73 -1197.46 -2377.35 686.76z"/>
    <path class="fil13" d="M6322.05 19783.73l101.26 -75.44 329.82 -122.5 579.54 -108.38 786.87 -117.79 763.31 -47.12 584.26 -32.98 546.57 9.42 108.37 -23.55c892.16,116.95 1735.47,236.81 2469.65,363.26l-565.05 162.56c-339.17,70.03 -485.4,247.24 -428.78,537.14l-8.93 573.56 -6.22 0.83 -5260.67 -1119.01zm6794.28 -59.8c1121.32,215.38 1901.78,451.24 2066.16,724.12 56.64,341.67 9.32,655.63 -122.52,947.04l-3029.67 527.72 -27.83 17.82 33.55 -1581.65c-18.62,-189.67 69.63,-319.21 252.08,-395.78l828.24 -239.27z"/>
    <polygon class="fil12" points="6317.36,20905.14 6309.7,19800.14 6373.88,19783.73 7299.74,19993.39 11582.72,20902.74 11580.84,21421.43 11568.67,22203.23 "/>
   </g>
   <rect class="fil14" x="23561.94" y="29213.11" width="3205.48" height="3205.48" rx="313.61" ry="284.81"/>
   <rect class="fil14" x="27798.17" y="29213.11" width="3205.48" height="3205.48" rx="313.61" ry="284.81"/>
   <rect class="fil14" x="32037.9" y="29213.11" width="3205.48" height="3205.48" rx="313.61" ry="284.81"/>
   <rect class="fil14" x="36245.78" y="29213.11" width="3205.48" height="3205.48" rx="313.61" ry="284.81"/>
   <rect class="fil14" x="40355.6" y="29213.11" width="3205.48" height="3205.48" rx="313.61" ry="284.81"/>
  </g>
 </g>
</svg>
