<svg width="1100" height="1100" viewBox="0 0 1100 1100" fill="none" xmlns="http://www.w3.org/2000/svg">
<g clip-path="url(#clip0)">
<path d="M852.63 671.46C812.66 708.89 756.52 744.21 688.49 783.67C605.1 832.05 518.58 870.91 449.75 892.65C346.69 925.2 262.4 906.21 211.55 867.93C199.24 858.67 188.8 847.13 180.41 833.23C180.4 833.23 180.39 833.21 180.38 833.2C150.15 783.12 170.54 712.97 218.04 656.25C222.1 651.4 226.23 646.73 230.43 642.23C279.56 589.54 338.26 559.14 406.45 522.77C408.33 521.76 410.21 520.76 412.1 519.75C412.14 519.73 412.18 519.7 412.22 519.68C413.13 519.19 414.05 518.7 414.97 518.21C419.37 515.85 423.82 513.46 428.3 511.04C617.74 408.6 770.66 360.79 850.16 376.82C857.43 378.28 864.26 380.6 870.62 383.56C887.26 391.3 900.8 403.4 911.18 416.09C914.74 420.43 917.93 424.84 920.74 429.17C923.14 432.86 925.27 436.68 927.12 440.63C927.13 440.63 927.13 440.63 927.13 440.64C951.79 493.06 941.37 588.36 852.63 671.46Z" fill="#EE1C25"/>
<path d="M397.04 941.84C370.2 980.91 436.57 1004.83 633.32 999.52C830.08 994.2 1045.39 851.18 1040.08 757.87C1034.76 664.56 847.91 713.53 712.73 795.39C577.55 877.25 397.04 941.84 397.04 941.84Z" fill="#FCE38B"/>
<path d="M193.71 364.18C193.71 364.18 181.09 351.82 157.78 360.34C157.78 360.34 167.97 378.13 187.97 373.4C207.98 368.67 193.71 364.18 193.71 364.18Z" fill="#FFDA71" stroke="#65A43A" stroke-width="3" stroke-miterlimit="10" stroke-linecap="round" stroke-linejoin="round"/>
<path d="M403.71 304.18C399.72 315.01 390.45 322.72 351.9 343.27H351.89C341.99 348.56 330.15 354.68 315.98 361.92L315.97 361.93C315.63 362.1 315.28 362.28 314.94 362.45C244.68 398.32 196.01 411.08 182.77 407.28C169.51 403.48 160.23 374.52 187.38 366.23C214.53 357.95 341.94 309.01 381.35 277.05C382.75 275.92 384.17 275.11 385.57 274.61C388.53 273.53 391.45 273.78 394.08 274.98C402.46 278.81 408.06 292.37 403.71 304.18Z" fill="#65A43A"/>
<path d="M292.24 338.9C285.79 343.09 277.33 349.61 276.95 355.12C276.95 355.12 297.19 359.61 308.51 350.81C313.32 347.07 312.42 343.57 309.79 340.79C305.24 335.98 297.79 335.29 292.24 338.9Z" fill="#FFDA71" stroke="#65A43A" stroke-width="3" stroke-miterlimit="10" stroke-linecap="round" stroke-linejoin="round"/>
<path d="M250.38 342.76C250.38 342.76 221.77 350.78 219.12 360.07C219.12 360.07 239.93 365.99 253.15 355.13C266.38 344.26 250.38 342.76 250.38 342.76Z" fill="#FFDA71" stroke="#65A43A" stroke-width="3" stroke-miterlimit="10" stroke-linecap="round" stroke-linejoin="round"/>
<path d="M256.13 376.16C256.13 376.16 233.92 385.22 228.99 399.24C228.99 399.24 250.68 401.18 262.1 386.94C273.52 372.71 256.13 376.16 256.13 376.16Z" fill="#FFDA71" stroke="#65A43A" stroke-width="3" stroke-miterlimit="10" stroke-linecap="round" stroke-linejoin="round"/>
<path d="M180.04 372.82C180.04 372.82 169.25 358.48 133.97 375.26C133.97 375.26 143.03 389.09 165.12 384.46C187.22 379.83 180.04 372.82 180.04 372.82Z" fill="#FFDA71" stroke="#65A43A" stroke-width="3" stroke-miterlimit="10" stroke-linecap="round" stroke-linejoin="round"/>
<path d="M170.54 392.42C170.54 392.42 137.24 407.9 129.58 424.03C129.58 424.03 150.02 427.23 174.32 410.93C198.62 394.63 170.54 392.42 170.54 392.42Z" fill="#FFDA71" stroke="#65A43A" stroke-width="3" stroke-miterlimit="10" stroke-linecap="round" stroke-linejoin="round"/>
<path d="M169.52 381.52C169.52 381.52 145.08 379.46 122.93 401.04C122.93 401.04 145.51 415.67 170.54 392.42C195.57 369.17 169.52 381.52 169.52 381.52Z" fill="#FFDA71" stroke="#65A43A" stroke-width="3" stroke-miterlimit="10" stroke-linecap="round" stroke-linejoin="round"/>
<path d="M202.96 391.3C202.96 391.3 170.01 402.52 156.66 386.95C156.66 386.95 169.19 373.6 192.29 369.59C215.38 365.58 212.8 387.14 202.96 391.3Z" fill="#FFDA71" stroke="#65A43A" stroke-width="3" stroke-miterlimit="10" stroke-linecap="round" stroke-linejoin="round"/>
<path d="M199.57 403.47C199.57 403.47 185.42 416.94 185.2 430.57C185.2 430.57 215.03 424.96 218.94 402.31C222.85 379.67 199.57 403.47 199.57 403.47Z" fill="#FFDA71" stroke="#65A43A" stroke-width="3" stroke-miterlimit="10" stroke-linecap="round" stroke-linejoin="round"/>
<path d="M180.24 400.88C180.24 400.88 159.89 410.15 154.76 432.3C154.76 432.3 186.09 432.78 204 402.94C204 402.94 210.66 385.7 180.24 400.88Z" fill="#FFDA71" stroke="#65A43A" stroke-width="3" stroke-miterlimit="10" stroke-linecap="round" stroke-linejoin="round"/>
<path d="M99.04 648.82C99.04 648.82 82.8 658 68.4 650.72C68.4 650.72 82.43 631.1 100.56 638.26C118.69 645.42 99.04 648.82 99.04 648.82Z" fill="#FFDA71" stroke="#65A43A" stroke-width="3" stroke-miterlimit="10" stroke-linecap="round" stroke-linejoin="round"/>
<path d="M117.71 623.93C117.71 623.93 92.2 619.99 77.27 633.25C77.27 633.25 93.41 651.3 114.47 636.58C135.52 621.87 117.71 623.93 117.71 623.93Z" fill="#FFDA71" stroke="#65A43A" stroke-width="3" stroke-miterlimit="10" stroke-linecap="round" stroke-linejoin="round"/>
<path d="M91.65 664.93C91.65 664.93 80.79 678.59 61.02 666.63C61.02 666.63 76.31 646.7 94.97 650.61C113.63 654.51 91.65 664.93 91.65 664.93Z" fill="#FFDA71" stroke="#65A43A" stroke-width="3" stroke-miterlimit="10" stroke-linecap="round" stroke-linejoin="round"/>
<path d="M119.72 661.04C119.72 661.04 108.04 684.65 71.96 687.88C71.96 687.88 89.87 645.49 108.17 649.14C126.47 652.79 119.72 661.04 119.72 661.04Z" fill="#FFDA71" stroke="#65A43A" stroke-width="3" stroke-miterlimit="10" stroke-linecap="round" stroke-linejoin="round"/>
<path d="M132.08 656.32C132.08 656.32 118.46 686.65 97.73 690.35C97.73 690.35 98.17 665.97 119.29 651.67C140.41 637.37 132.08 656.32 132.08 656.32Z" fill="#FFDA71" stroke="#65A43A" stroke-width="3" stroke-miterlimit="10" stroke-linecap="round" stroke-linejoin="round"/>
<path d="M374.21 416.28C371.2 425.03 330.41 466.75 294.61 508.57C290.52 513.35 286.49 518.13 282.59 522.87C265.83 543.22 247.95 562.13 230.45 578.99C193.58 614.52 158.38 640.96 138.8 652.6C129.63 658.06 118.52 659.53 108.37 656.2C96.99 652.48 89.77 643.29 122.2 620.7C138.43 609.39 162.71 586.75 189.22 560.06C205.13 544.04 221.84 526.55 238.09 509.18C286.55 457.4 330.94 406.63 337.87 398.55C339.31 396.87 340.87 395.59 342.52 394.65V394.64C343.87 393.87 345.28 393.33 346.71 393C359.38 389.98 376.9 408.48 374.21 416.28Z" fill="#65A43A"/>
<path d="M122.9 654.24C122.9 654.24 102.77 670.71 82.52 658.4C82.52 658.4 97.75 636.61 111 634.83C124.25 633.05 137.64 639.73 122.9 654.24Z" fill="#FFDA71" stroke="#65A43A" stroke-width="3" stroke-miterlimit="10" stroke-linecap="round" stroke-linejoin="round"/>
<path d="M152.98 615.73C152.98 615.73 133.77 622.79 124.11 614.97C124.11 614.97 136.5 599.68 151.88 600.52C167.26 601.36 161.9 610.38 152.98 615.73Z" fill="#FFDA71" stroke="#65A43A" stroke-width="3" stroke-miterlimit="10" stroke-linecap="round" stroke-linejoin="round"/>
<path d="M183.12 602.53C183.12 602.53 160.66 615.15 159.06 636.16C159.06 636.16 189.86 626.6 191.56 610.02C193.26 593.44 183.12 602.53 183.12 602.53Z" fill="#FFDA71" stroke="#65A43A" stroke-width="3" stroke-miterlimit="10" stroke-linecap="round" stroke-linejoin="round"/>
<path d="M205.01 566.49C198.55 570.7 187.05 579.91 184.29 593.44C184.29 593.44 208.18 595.21 217.52 580.32C222.19 572.87 220.17 568.76 216.99 566.51C213.45 564 208.66 564.11 205.01 566.49Z" fill="#FFDA71" stroke="#65A43A" stroke-width="3" stroke-miterlimit="10" stroke-linecap="round" stroke-linejoin="round"/>
<path d="M398.63 845.56C384.04 870.16 401.75 904.76 428.69 914.37C455.63 923.98 486.34 913.55 508.63 895.63C530.93 877.71 546.74 853.21 563.33 829.91C579.92 806.61 598.42 783.42 623.74 770.12C651.57 755.5 685.84 753.82 710.5 734.32C729.45 719.33 739.9 695.88 757.78 679.63C778.01 661.25 805.69 653.82 832.48 648.44C859.27 643.06 887.02 638.88 910.69 625.24C934.36 611.6 953.38 585.59 949.55 558.53C945.89 532.65 919.37 512.27 893.42 515.39C867.47 518.51 846.54 544.6 849.12 570.61C850.57 585.19 854.59 606.07 840.28 609.27C831.43 611.25 823.59 602.53 821.04 593.83C818.49 585.12 818.89 575.58 815.08 567.35C805.54 546.75 777.2 545.53 754.57 547.41C716.1 550.62 677.63 553.83 639.16 557.04C577.52 562.19 509.43 570.43 468.58 616.88C415.32 677.45 432.93 774.7 390.27 843.15L398.63 845.56Z" fill="#891946"/>
<path d="M885.39 621.02C880.29 642.77 888.67 658.42 867.23 664.71C860.64 666.65 859.69 688.64 852.97 690.6C837.88 695.01 826.81 710.59 816.19 721.82C805.25 733.4 779.03 732.92 766.8 743.14C756.47 751.76 722.68 737.65 709.41 739.83C692.35 742.62 666.18 728 642.21 726.77C621.19 725.7 602.41 738.55 585.51 733.61C557.13 725.31 560.6 710.25 543.2 699.7C541.44 698.63 539.48 697.61 537.24 696.65C520.82 689.59 503.53 692.73 486.92 690.88C478.87 689.98 470.97 687.92 463.41 682.94C451.53 675.12 439.05 664.06 439.71 649.86C440.49 633.09 458.85 622.78 464.92 607.13C469.04 596.51 467.14 584.34 467.62 572.92C467.88 566.6 468.89 560.51 472.05 555.04C480.01 541.28 497.79 537.75 512.18 530.97C530.32 522.45 541.47 487.7 557.69 475.92C581.09 458.92 613.11 478.33 640.23 468.27C663.48 459.67 673.71 429.08 696.98 437.64C716.8 444.92 744.48 472.57 765.55 471.08C773.33 470.54 783.77 470.73 791.24 472.96C798.36 475.08 803.1 481.94 805.53 488.95C807.98 495.97 808.68 503.47 810.96 510.54C818.08 532.58 838.78 546.73 856.36 561.8C873.95 576.87 890.67 598.47 885.39 621.02Z" fill="#FFDC8D"/>
<path d="M419.98 550.44C415.15 561.06 405.93 568.95 396.78 576.18C361.62 603.98 279.04 628.01 230.43 642.23C279.56 589.54 338.26 559.14 406.45 522.77C408.39 521.81 410.28 520.81 412.1 519.75C412.14 519.73 412.18 519.7 412.22 519.68C413.11 519.17 413.98 518.64 414.84 518.1C414.89 518.13 414.93 518.16 414.97 518.21C414.99 518.22 415.02 518.24 415.04 518.26C423.98 525.75 424.81 539.83 419.98 550.44Z" fill="#891946"/>
<path d="M544.55 700.35C544.15 699.95 543.7 699.75 543.2 699.7C541.44 698.63 539.48 697.61 537.24 696.65C520.82 689.59 503.53 692.73 486.92 690.88C477.5 647.46 469.34 572.69 469.34 572.69C469.34 572.69 503.32 586.01 512.31 618.11C521.3 650.21 531.53 662.29 545.47 683.72C549.36 689.7 548.3 695.39 544.55 700.35Z" fill="#F2CA84"/>
<path d="M721.78 718.12C723.03 726.84 716.94 734.02 707.86 739.38C706.28 739.63 704.69 739.85 703.12 740.06C691.6 741.61 676.18 735.17 660.03 730.2C676.16 707.05 712.85 671.33 712.85 671.33C732.19 684.77 718.26 693.49 721.78 718.12Z" fill="#F2CA84"/>
<path d="M867.23 630.16C867.23 630.16 866.48 639.27 863.53 651.28C848.84 664.26 829.63 676.47 819.93 686.16C814.82 691.26 800.69 698.18 785.59 705.14C782.2 700.87 799.92 691.87 797.05 673.69C792.79 646.66 767.64 644.01 781.04 618.11C794.45 592.21 788.9 587.3 804.94 579.09L867.23 630.16Z" fill="#F2CA84"/>
<path d="M776.7 473.09C776.47 473.28 776.21 473.48 775.92 473.68C758.52 485.88 773.84 520.84 740.6 535.01C707.37 549.17 696.75 527.93 698.44 484.38L716.72 464.12C716.72 464.12 727.28 463.75 739.66 463.92C748.2 469.27 756.97 473.46 766.94 473.04C769.91 472.91 773.27 472.91 776.7 473.09Z" fill="#F2CA84"/>
<path d="M903.82 637.56C902.54 647.2 898.86 666.81 886.42 675.35C879.8 679.91 870.7 681.32 858.15 676.41C857.64 676.22 857.14 676.01 856.63 675.8C837.17 667.57 822.43 663.74 811.91 659.81L811.89 659.8C806.11 657.65 801.61 655.48 798.31 652.53C796.28 650.73 794.7 648.63 793.55 646.08C793.43 645.79 793.3 645.51 793.18 645.21C787.13 630.04 802.1 628.29 798.61 613.07C795.3 598.6 796.95 577.31 814.48 574.89C815.38 574.76 816.33 574.69 817.33 574.67C834.94 574.31 841.95 592.11 876.01 594.77C910.07 597.41 905.82 622.59 903.82 637.56Z" fill="#FFA300"/>
<path d="M857.62 639.66C863.13 638.9 868.79 639.43 874.07 641.19C876.65 642.05 878.99 643.35 881.47 644.44C883.79 645.46 886.24 646.13 888.73 645.34C889.95 644.95 889.43 643.02 888.2 643.41C885.43 644.29 882.74 642.88 880.3 641.67C877.92 640.49 875.48 639.46 872.92 638.74C867.77 637.3 862.39 637 857.1 637.73C855.82 637.9 856.36 639.83 857.62 639.66Z" fill="#FFCF8E"/>
<path d="M811.08 597.35C813.32 594.79 816.82 594.24 820.05 594.77C823.85 595.39 827.13 597.51 830.39 599.44C833.66 601.38 836.98 603 840.72 603.81C844.28 604.58 847.92 604.82 851.53 605.25C855.7 605.75 859.87 606.59 863.45 608.91C864.53 609.61 865.54 607.88 864.46 607.18C857.78 602.83 849.57 603.49 842.04 602.03C837.79 601.21 834.18 599.35 830.49 597.15C827.19 595.18 823.81 593.24 819.94 592.73C816.23 592.23 812.24 593 809.68 595.92C808.82 596.9 810.23 598.32 811.08 597.35Z" fill="#BA7700"/>
<path d="M820.63 609.07C824.52 605.75 830.11 608.89 834.35 609.6C838.52 610.3 844.44 609.24 847.36 613.09C848.13 614.1 849.87 613.11 849.09 612.08C845.52 607.37 839.55 608.57 834.44 607.59C829.4 606.63 823.78 603.76 819.22 607.65C818.24 608.5 819.66 609.91 820.63 609.07Z" fill="#FFCF8E"/>
<path d="M860.36 617.3C864.78 615.68 869.94 616.39 873.66 619.33C874.09 619.67 874.66 619.74 875.07 619.33C875.42 618.99 875.49 618.25 875.07 617.92C870.81 614.55 864.96 613.49 859.83 615.38C858.63 615.81 859.15 617.75 860.36 617.3Z" fill="#BA7700"/>
<path d="M876.74 613.37C881.9 613.58 886.86 615.43 890.95 618.58C891.38 618.91 892.07 618.64 892.32 618.22C892.63 617.71 892.39 617.18 891.96 616.85C887.6 613.5 882.24 611.6 876.74 611.37C875.45 611.31 875.45 613.31 876.74 613.37Z" fill="#FFCF8E"/>
<path d="M829.07 626.1C833.57 624.63 838.34 623.05 843.15 623.6C845.74 623.9 848.08 625 850.4 626.1C852.39 627.05 854.42 627.92 856.5 628.64C860.85 630.15 865.41 631.09 870 631.45C872.27 631.63 874.54 631.62 876.82 631.55C879.01 631.48 882.16 631.49 883.04 634C883.46 635.21 885.39 634.69 884.97 633.47C883.73 629.88 879.88 629.44 876.59 629.56C872.52 629.71 868.46 629.48 864.45 628.71C860.47 627.95 856.56 626.74 852.87 625.06C849.25 623.42 845.86 621.65 841.8 621.51C837.25 621.36 832.81 622.78 828.54 624.17C827.32 624.57 827.84 626.5 829.07 626.1Z" fill="#BA7700"/>
<path d="M783.1 727.29C758.84 730.11 746.71 719.33 742.44 714.27C741.18 712.77 740.6 711.77 740.6 711.77C742.08 687.5 749.94 659.65 762.47 664.66C774.23 669.36 791.55 657.78 796.28 670.79C796.6 671.65 796.85 672.61 797.05 673.69C800.24 691.19 814.54 723.64 783.1 727.29Z" fill="#BA7700"/>
<path d="M783.1 727.29C758.84 730.11 746.71 719.33 742.44 714.27C744.01 690.17 751.84 662.91 764.25 667.87C774.83 672.1 789.93 663.14 796.28 670.79C796.6 671.65 796.85 672.61 797.05 673.69C800.24 691.19 814.54 723.64 783.1 727.29Z" fill="#FFA300"/>
<path d="M773.44 718C775.9 717.08 776.19 714.06 775.01 712.01C774.35 710.87 773.37 709.98 772.48 709.03C771.57 708.06 770.75 706.93 770.93 705.54C771 705 770.42 704.54 769.93 704.54C769.33 704.54 769 705 768.93 705.54C768.59 708.17 770.75 710.03 772.34 711.78C772.96 712.46 773.62 713.27 773.7 714.23C773.76 714.87 773.6 715.82 772.91 716.08C772.4 716.27 772.06 716.76 772.21 717.31C772.34 717.79 772.93 718.19 773.44 718Z" fill="#BA7700"/>
<path d="M782.15 680.3C780.33 681.84 779.82 684.26 780.14 686.54C780.54 689.35 782.26 691.64 783.72 693.99C787.16 699.55 786.74 705.91 786.16 712.16C786.04 713.44 788.04 713.43 788.16 712.16C788.67 706.64 789.13 700.8 786.85 695.59C785.73 693.04 783.85 690.92 782.74 688.37C781.79 686.2 781.61 683.36 783.57 681.71C784.55 680.89 783.13 679.48 782.15 680.3Z" fill="#FFCF8E"/>
<path d="M773.21 690.09C771.79 692.7 773.19 695.38 774.7 697.58C776.34 699.97 777.33 702.45 777.22 705.4C777.17 706.69 779.17 706.68 779.22 705.4C779.32 702.77 778.66 700.13 777.29 697.88C776.15 696.01 773.65 693.47 774.94 691.1C775.56 689.97 773.83 688.96 773.21 690.09Z" fill="#BA7700"/>
<path d="M766.56 675.92C765.49 679.36 765.41 683 765.22 686.57C765.03 689.99 764.79 693.41 766.16 696.64C766.66 697.82 768.38 696.8 767.89 695.63C766.64 692.68 767.07 689.29 767.24 686.18C767.42 682.91 767.5 679.6 768.49 676.45C768.88 675.22 766.95 674.7 766.56 675.92Z" fill="#FFCF8E"/>
<path d="M725.181 639.008C731.092 633.386 734.368 627.235 732.5 625.271C730.631 623.306 724.324 626.27 718.413 631.892C712.503 637.514 709.226 643.665 711.095 645.629C712.964 647.594 719.27 644.63 725.181 639.008Z" fill="#EABD75"/>
<path d="M548.871 752.633C554.782 747.011 558.058 740.86 556.19 738.895C554.321 736.93 548.014 739.895 542.103 745.517C536.193 751.139 532.916 757.289 534.785 759.254C536.654 761.219 542.96 758.255 548.871 752.633Z" fill="#EABD75"/>
<path d="M754.204 612.605C756.474 612.326 757.477 605.296 756.445 596.904C755.414 588.512 752.738 581.935 750.469 582.214C748.199 582.493 747.196 589.522 748.227 597.915C749.259 606.307 751.935 612.884 754.204 612.605Z" fill="#EABD75"/>
<path d="M688.095 322.48C690.364 322.201 691.368 315.172 690.336 306.78C689.305 298.388 686.629 291.811 684.359 292.09C682.09 292.369 681.087 299.398 682.118 307.79C683.15 316.182 685.826 322.759 688.095 322.48Z" fill="#EABD75"/>
<path d="M577.916 547.412C586.417 546.367 593.071 543.578 592.776 541.182C592.482 538.787 585.351 537.692 576.849 538.737C568.348 539.782 561.694 542.571 561.989 544.967C562.283 547.362 569.414 548.457 577.916 547.412Z" fill="#EABD75"/>
<path d="M609.172 602.846C611.441 602.567 612.555 596.435 611.659 589.15C610.764 581.865 608.198 576.186 605.929 576.465C603.66 576.744 602.546 582.876 603.441 590.16C604.337 597.445 606.902 603.125 609.172 602.846Z" fill="#EABD75"/>
<path d="M602.145 802.85C604.414 802.571 605.528 796.439 604.632 789.154C603.737 781.87 601.171 776.19 598.902 776.469C596.633 776.748 595.519 782.88 596.414 790.165C597.31 797.449 599.875 803.129 602.145 802.85Z" fill="#EABD75"/>
<path d="M615.041 649.993C616.801 648.176 613.715 642.333 608.148 636.943C602.582 631.553 596.643 628.657 594.883 630.474C593.124 632.292 596.21 638.134 601.776 643.524C607.343 648.914 613.282 651.81 615.041 649.993Z" fill="#EABD75"/>
<path d="M454.124 447.447C455.493 445.32 451.321 440.196 444.806 436.002C438.291 431.808 431.9 430.132 430.531 432.258C429.162 434.385 433.333 439.509 439.848 443.704C446.363 447.898 452.754 449.574 454.124 447.447Z" fill="#EABD75"/>
<path d="M660.252 608.041C667.766 604.104 672.991 599.259 671.922 597.219C670.853 595.179 663.895 596.716 656.381 600.653C648.867 604.59 643.642 609.436 644.71 611.476C645.779 613.516 652.737 611.978 660.252 608.041Z" fill="#EABD75"/>
<path d="M680.878 517.021C685.043 510.292 686.844 503.861 684.9 502.658C682.956 501.454 678.003 505.934 673.838 512.664C669.672 519.393 667.872 525.824 669.816 527.027C671.76 528.231 676.713 523.751 680.878 517.021Z" fill="#EABD75"/>
<path d="M837.283 440.161C841.448 433.432 843.248 427.001 841.304 425.797C839.36 424.594 834.407 429.074 830.242 435.803C826.077 442.533 824.276 448.964 826.22 450.167C828.165 451.37 833.117 446.89 837.283 440.161Z" fill="#EABD75"/>
<path d="M740.448 254.552C744.613 247.823 746.414 241.392 744.47 240.189C742.526 238.985 737.573 243.465 733.408 250.195C729.242 256.924 727.442 263.355 729.386 264.558C731.33 265.762 736.283 261.282 740.448 254.552Z" fill="#EABD75"/>
<path d="M726.976 526.274C728.581 524.219 725.139 518.85 719.289 514.281C713.439 509.713 707.397 507.675 705.792 509.729C704.188 511.783 707.629 517.152 713.479 521.721C719.329 526.29 725.372 528.328 726.976 526.274Z" fill="#EABD75"/>
<path d="M787.644 556.112C795.12 555.193 800.964 552.675 800.695 550.488C800.426 548.301 794.147 547.273 786.67 548.192C779.194 549.111 773.35 551.629 773.619 553.816C773.888 556.003 780.167 557.031 787.644 556.112Z" fill="#EABD75"/>
<path d="M826.904 531.336C830.656 524.094 831.818 517.248 829.498 516.046C827.179 514.845 822.257 519.742 818.504 526.985C814.752 534.228 813.591 541.073 815.91 542.275C818.229 543.477 823.152 538.579 826.904 531.336Z" fill="#EABD75"/>
<path d="M717.759 470.168C720.675 469.809 722.136 462.169 721.021 453.103C719.907 444.036 716.639 436.977 713.723 437.336C710.807 437.694 709.347 445.334 710.461 454.401C711.576 463.467 714.843 470.526 717.759 470.168Z" fill="#EABD75"/>
<path d="M616.938 487.929C619.552 486.425 617.497 477.957 612.349 469.017C607.201 460.076 600.909 454.049 598.296 455.553C595.683 457.058 597.737 465.526 602.886 474.466C608.034 483.406 614.325 489.434 616.938 487.929Z" fill="#EABD75"/>
<path d="M601.596 166.987C604.21 165.482 602.155 157.014 597.007 148.074C591.859 139.134 585.567 133.106 582.954 134.61C580.341 136.115 582.395 144.583 587.543 153.523C592.691 162.463 598.983 168.491 601.596 166.987Z" fill="#EABD75"/>
<path d="M512.106 535.756C513.478 526.396 512.367 518.482 509.623 518.08C506.88 517.678 503.545 524.94 502.173 534.3C500.801 543.661 501.913 551.575 504.656 551.977C507.399 552.379 510.735 545.117 512.106 535.756Z" fill="#EABD75"/>
<path d="M848.44 490.1C847.85 472.13 869.12 449.18 889.27 457.8C909.42 466.42 907.48 485.06 924.58 497.13C941.68 509.2 956.08 521.75 953.62 536.48C951.16 551.21 961.08 573.27 925.5 558.64C889.92 544.01 880.9 532.08 877.99 518.61C875.07 505.15 849.03 508.07 848.44 490.1Z" fill="#BC7742"/>
<path d="M867.32 483.56C871.89 485.38 875.97 488.3 879.23 491.97C880.09 492.93 881.5 491.52 880.64 490.56C877.14 486.61 872.74 483.58 867.85 481.63C867.35 481.43 866.75 481.85 866.62 482.33C866.46 482.9 866.81 483.36 867.32 483.56Z" fill="#FFCF8F"/>
<path d="M875.44 474.51C878.8 471.6 883.57 473.09 886.96 475.09C890.56 477.21 894.18 479.73 897.28 482.54C898.87 483.98 900.31 485.58 901.45 487.41C902.62 489.28 903.53 491.31 904.83 493.11C906.9 496 909.78 498.13 912.97 499.65C916.78 501.46 920.9 502.5 924.99 503.46C926.24 503.75 926.78 501.82 925.52 501.53C921.66 500.63 917.75 499.69 914.14 498C910.35 496.23 907.35 493.7 905.25 490.05C904.15 488.14 903.17 486.2 901.81 484.46C900.49 482.76 898.93 481.27 897.27 479.9C895.58 478.52 893.8 477.25 892 476.01C890.13 474.73 888.27 473.4 886.22 472.42C882.3 470.54 877.51 470.07 874.02 473.09C873.06 473.94 874.48 475.35 875.44 474.51Z" fill="#A3653B"/>
<path d="M884.92 484.56C888.63 484.95 890.52 489.13 892.31 491.87C894.35 495.01 897.35 498.13 901.41 497.55C901.95 497.47 902.23 496.79 902.11 496.32C901.96 495.74 901.41 495.55 900.88 495.62C897.07 496.16 894.59 491.74 892.92 489.05C891.05 486.04 888.7 482.96 884.92 482.56C883.64 482.42 883.65 484.42 884.92 484.56Z" fill="#A3653B"/>
<path d="M906.64 504.12C917.72 507.5 928.15 512.7 937.55 519.48C938.6 520.23 939.6 518.5 938.56 517.75C929.03 510.88 918.41 505.63 907.17 502.19C905.94 501.82 905.41 503.75 906.64 504.12Z" fill="#FFCF8F"/>
<path d="M883.4 500.71C889.29 505.3 895.88 508.89 902.97 511.25C906.56 512.44 910.56 512.86 913.65 515.18C916.45 517.29 919.25 519.99 923.06 519.02C924.31 518.71 923.78 516.78 922.53 517.09C918.88 518.01 916.17 514.23 913.38 512.57C910.42 510.81 906.75 510.39 903.51 509.31C896.77 507.07 890.42 503.65 884.82 499.28C883.81 498.52 882.38 499.92 883.4 500.71Z" fill="#A3653B"/>
<path d="M294.61 508.57C290.52 513.35 286.49 518.13 282.59 522.87C265.83 543.22 254.12 556.11 236.62 572.97C228.56 566.25 213.39 563.14 190.89 558.37C206.8 542.35 221.84 526.55 238.09 509.18C249.16 510.28 269.52 511.38 294.61 508.57Z" fill="#336600"/>
<path d="M911.18 416.09C905.26 421.52 897.02 425.56 885.52 426.41C843.89 429.48 823.9 413.18 828.8 387.57L870.62 383.56C887.26 391.3 900.8 403.4 911.18 416.09Z" fill="#891946"/>
<path d="M420.4 547.97C384.89 563.41 230.49 572.8 165.71 542.02C100.93 511.24 145.77 498.35 156.17 500.87C166.57 503.39 255.74 525.25 314.35 519.31C372.96 513.37 402.6 510.81 408.83 509.9C423.2 507.83 439.53 539.65 420.4 547.97Z" fill="#65A43A"/>
<path d="M134.14 500.01C134.14 500.01 116.85 487.6 97.06 496.38C97.06 496.38 111.21 512.32 126.18 514.55C141.15 516.78 143.35 504.5 134.14 500.01Z" fill="#FFDA71" stroke="#65A43A" stroke-width="3" stroke-miterlimit="10" stroke-linecap="round" stroke-linejoin="round"/>
<path d="M165.64 503.13C165.64 503.13 154.69 486.22 138.01 486.7C121.33 487.18 119.54 488.04 119.54 488.04C119.54 488.04 136.14 510.7 156.94 511.41C177.74 512.12 165.64 503.13 165.64 503.13Z" fill="#FFDA71" stroke="#65A43A" stroke-width="3" stroke-miterlimit="10" stroke-linecap="round" stroke-linejoin="round"/>
<path d="M141.14 516.1C136.23 513.88 125.39 507.34 104.56 514.7C104.56 514.7 119.21 534.99 137.71 531.46C154.06 528.33 153.54 521.72 141.14 516.1Z" fill="#FFDA71" stroke="#65A43A" stroke-width="3" stroke-miterlimit="10" stroke-linecap="round" stroke-linejoin="round"/>
<path d="M176.88 522.58C176.88 522.58 164.46 501.76 135.32 509.92C135.32 509.92 143.13 523.32 163.32 528.42C183.51 533.52 176.88 522.58 176.88 522.58Z" fill="#FFDA71" stroke="#65A43A" stroke-width="3" stroke-miterlimit="10" stroke-linecap="round" stroke-linejoin="round"/>
<path d="M148.7 530.28C143.1 530.55 131.59 531.36 120.74 539.05C120.74 539.05 141.44 552.85 158.64 546.67C174.77 540.86 168.83 529.29 148.7 530.28Z" fill="#FFDA71" stroke="#65A43A" stroke-width="3" stroke-miterlimit="10" stroke-linecap="round" stroke-linejoin="round"/>
<path d="M220.72 512.8C215.2 510.09 202.99 504.71 194.75 505.73C194.75 505.73 198.45 518.18 215.75 524.38C215.75 524.38 227.14 526.4 225.65 518.98C225.09 516.27 223.2 514.02 220.72 512.8Z" fill="#FFDA71" stroke="#65A43A" stroke-width="3" stroke-miterlimit="10" stroke-linecap="round" stroke-linejoin="round"/>
<path d="M287.49 524.2C287.49 524.2 275.91 522.47 264.08 534.02C264.08 534.02 273.81 543.87 292.86 539.63C292.86 539.64 305.02 528.85 287.49 524.2Z" fill="#FFDA71" stroke="#65A43A" stroke-width="3" stroke-miterlimit="10" stroke-linecap="round" stroke-linejoin="round"/>
<path d="M245.1 538.88C245.1 538.88 232.04 531.85 216.52 545.97C216.52 545.97 231.35 557.93 248.8 553.58C266.25 549.23 245.1 538.88 245.1 538.88Z" fill="#FFDA71" stroke="#65A43A" stroke-width="3" stroke-miterlimit="10" stroke-linecap="round" stroke-linejoin="round"/>
<path d="M685.07 721.28C664.92 738.38 646.11 748.36 625.78 740.3C625.78 740.3 622.77 739.17 618.42 735.98C614.58 733.17 609.69 728.76 604.89 722.09C594.66 707.87 618.5 691.22 638.87 678.06C644.24 674.59 661.62 673.75 675.78 668.96C686.15 665.46 688.45 655.71 693.06 655.22C696.24 654.89 698.83 655.32 700.98 656.27C707.33 659.04 709.92 666.24 712.85 671.33C720.07 683.87 705.21 704.18 685.07 721.28Z" fill="#A3653B"/>
<path d="M681.24 718.75C661.09 735.85 642.28 745.83 621.95 737.77C621.95 737.77 620.61 737.27 618.42 735.98C614.58 733.17 609.69 728.76 604.89 722.09C594.66 707.87 618.5 691.22 638.87 678.06C644.24 674.59 661.62 673.75 675.78 668.96C686.15 665.46 688.45 655.71 693.06 655.22C696.24 654.89 698.83 655.32 700.98 656.27C704.71 659.7 706.76 664.88 709.02 668.8C716.24 681.34 701.38 701.65 681.24 718.75Z" fill="#BC7742"/>
<path d="M655.24 722.69C660.94 720.2 666.77 717.6 671.35 713.27C675.05 709.77 677.61 703.43 683.07 702.43C684.33 702.2 683.8 700.27 682.54 700.5C676.95 701.53 674.38 707.26 670.8 711C666.28 715.72 660.12 718.4 654.23 720.97C653.06 721.47 654.07 723.2 655.24 722.69Z" fill="#FFCF8F"/>
<path d="M616.91 711.93C620.52 711.88 623.99 710.41 626.58 707.89C627.84 706.66 628.86 705.2 629.56 703.58C630.24 702.01 630.53 699.88 631.88 698.7C633.39 697.37 636.05 698.2 637.9 697.9C639.63 697.62 641.26 696.86 642.69 695.85C645.83 693.64 647.98 690.5 650.34 687.54C652.96 684.25 656.31 680.66 660.84 680.66C662.13 680.66 662.13 678.66 660.84 678.66C652.7 678.66 648.97 687.1 644.01 692.1C642.69 693.44 641.18 694.68 639.42 695.4C637.47 696.2 635.61 695.85 633.58 696.01C629.29 696.36 629.02 700.41 627.4 703.5C625.38 707.35 621.26 709.86 616.92 709.92C615.62 709.95 615.62 711.95 616.91 711.93Z" fill="#FFCF8F"/>
<path d="M632.12 710.01C635.1 711.12 638.67 710.31 640.87 708C642.07 706.75 642.68 705.15 643.19 703.53C643.68 701.94 644.05 700.13 645.26 698.9C646.63 697.5 648.74 697.29 650.55 696.88C652.38 696.47 654.16 695.83 655.83 694.97C659.07 693.31 661.81 690.85 663.9 687.88C664.64 686.83 662.91 685.83 662.17 686.87C660.13 689.77 657.35 692.08 654.13 693.58C652.56 694.31 650.92 694.76 649.23 695.12C647.61 695.47 645.95 695.84 644.59 696.84C641.98 698.76 641.84 702.05 640.62 704.78C639.25 707.84 635.76 709.24 632.64 708.08C631.44 707.63 630.92 709.56 632.12 710.01Z" fill="#A3653B"/>
<path d="M652.89 714.65C656.28 711.97 659.68 709.28 663.07 706.6C666.21 704.12 669.58 701.77 672.48 699C675.17 696.44 676.65 693.14 678.52 690C680.22 687.16 682.7 684.15 686.25 683.91C687.53 683.82 687.54 681.82 686.25 681.91C678.11 682.46 676.55 691.67 671.97 696.66C669.15 699.73 665.5 702.14 662.24 704.72C658.65 707.56 655.06 710.4 651.47 713.23C650.46 714.04 651.89 715.44 652.89 714.65Z" fill="#A3653B"/>
<path d="M632.86 722.14C634.68 721.22 635.88 719.54 636.89 717.82C637.95 716.02 638.91 714.1 640.83 713.08C642.66 712.1 644.8 711.86 646.55 710.71C648.17 709.65 649.56 707.92 649.33 705.87C649.19 704.61 647.19 704.59 647.33 705.87C647.54 707.7 645.9 708.96 644.37 709.6C642.55 710.37 640.56 710.73 638.93 711.91C637.4 713.03 636.41 714.65 635.48 716.27C634.55 717.88 633.58 719.55 631.85 720.41C630.7 720.99 631.71 722.72 632.86 722.14Z" fill="#FFCF8F"/>
<path d="M792.75 438.84C790.1 449.9 775.44 454.4 764.76 466.14C752.65 479.45 751.35 493.02 733.98 498.56C717.97 503.66 706.51 502.8 697.85 498.75C696.68 498.21 695.57 497.6 694.5 496.95C687.29 492.55 682.18 485.84 677.88 478.89C668.2 463.24 676.19 458.09 698.81 432.22C710.63 418.7 731.95 399.54 751.58 396.35C755.2 395.76 759.08 396.03 762.96 397.02C765.88 397.76 768.8 398.91 771.62 400.39C785.35 407.61 796.56 422.88 792.75 438.84Z" fill="#A3653B"/>
<path d="M786.44 436.62C783.79 447.68 769.13 452.18 758.45 463.92C746.34 477.23 745.04 490.8 727.67 496.34C715.27 500.29 705.6 500.67 697.85 498.75C696.68 498.21 695.57 497.6 694.5 496.95C687.29 492.55 682.18 485.84 677.88 478.89C668.2 463.24 676.19 458.09 698.81 432.22C710.63 418.7 731.95 399.54 751.58 396.35C755.2 395.76 759.08 396.03 762.96 397.02C763.75 397.38 764.53 397.76 765.31 398.17C779.04 405.39 790.25 420.66 786.44 436.62Z" fill="#BC7742"/>
<path d="M714.85 472.13C713.57 467.35 718.1 463.83 721.76 461.83C725.66 459.71 729.93 457.94 732.42 454.05C733.12 452.96 731.39 451.96 730.69 453.04C728 457.24 722.83 458.67 718.83 461.23C715.03 463.66 711.63 467.87 712.92 472.66C713.25 473.9 715.18 473.38 714.85 472.13Z" fill="#FFCF8F"/>
<path d="M685.94 468.33C684.58 464.15 689.78 461.8 692.7 460.38C695.95 458.81 699.6 456.25 699.42 452.18C699.36 450.9 697.36 450.89 697.42 452.18C697.62 456.49 692.45 458.17 689.39 459.77C686.15 461.46 682.7 464.82 684.01 468.85C684.41 470.08 686.35 469.56 685.94 468.33Z" fill="#A3653B"/>
<path d="M709.73 440.36C713.46 435.09 718.8 431.35 723.87 427.5C726.36 425.61 728.83 423.68 731.08 421.51C733.23 419.44 736.21 415.46 739.69 416.93C740.86 417.43 741.88 415.7 740.7 415.2C737.27 413.75 734.13 415.65 731.71 418.04C729.09 420.62 726.43 423.04 723.5 425.28C717.94 429.53 712.11 433.55 708.01 439.34C707.26 440.41 708.99 441.41 709.73 440.36Z" fill="#A3653B"/>
<path d="M704.28 457.67C705.87 452.96 709.61 449.48 713.19 446.22C717.48 442.3 721.77 438.39 726.06 434.48C727.01 433.61 725.6 432.2 724.65 433.07C720.17 437.16 715.67 441.23 711.21 445.33C707.55 448.69 703.98 452.33 702.36 457.14C701.94 458.36 703.87 458.88 704.28 457.67Z" fill="#FFCF8F"/>
<path d="M689.99 478.24C697.41 478.08 699.94 470.21 704.5 465.84C707.15 463.29 710.82 462.56 713.99 460.89C716.75 459.44 719.24 457.44 721.28 455.09C723.6 452.42 725.33 449.31 726.4 445.94C726.79 444.71 724.86 444.18 724.47 445.41C723.31 449.04 721.3 452.34 718.59 455.03C715.62 457.99 712.16 459.56 708.35 461.16C706.47 461.95 704.72 462.89 703.23 464.29C701.79 465.64 700.63 467.26 699.49 468.87C697.2 472.12 694.4 476.16 689.99 476.25C688.71 476.27 688.7 478.27 689.99 478.24Z" fill="#A3653B"/>
<path d="M738.17 437.69C736.86 434.5 740.99 432.88 743.24 432.03C745.61 431.13 747.74 429.91 749.51 428.06C752.94 424.48 754.58 419.51 753.91 414.6C753.74 413.33 751.81 413.87 751.98 415.13C752.67 420.16 750.23 425.52 746.07 428.4C743.76 430 740.87 430.4 738.59 432.02C736.68 433.38 735.3 435.9 736.25 438.22C736.72 439.39 738.66 438.88 738.17 437.69Z" fill="#FFCF8F"/>
<path d="M897.48 410.04C894.8 412.24 891.44 413.53 887.56 413.87C887.31 413.89 887.06 413.91 886.8 413.92C885.31 414 883.75 413.95 882.12 413.76C880.1 413.53 877.98 413.07 875.77 412.4C857.9 406.97 838.12 398.79 814 385.34C810.96 383.64 807.86 381.87 804.68 380C776.26 363.31 799.82 353.8 791.88 321.2C787.9 304.87 793.55 296.82 802.44 293.82C811.31 290.81 823.41 292.82 832.44 296.64C850.52 304.28 868.88 303.6 882.47 329.76C888.47 341.33 896.93 353.75 902.98 380.09C906.33 394.66 903.81 404.87 897.48 410.04Z" fill="#BA7700"/>
<path d="M897.48 410.04C896.14 410.46 894.72 410.74 893.21 410.87C892.96 410.89 892.71 410.9 892.45 410.92C890.96 411 889.4 410.95 887.77 410.75C885.75 410.53 883.62 410.07 881.42 409.4C863.55 403.97 843.77 395.79 819.65 382.34C816.61 380.64 813.51 378.87 810.33 377C781.91 360.31 805.47 350.8 797.53 318.2C794.49 305.71 797.07 298.06 802.44 293.82C811.31 290.81 823.41 292.82 832.44 296.64C850.52 304.28 868.88 303.6 882.47 329.76C888.47 341.33 896.93 353.75 902.98 380.09C906.33 394.66 903.81 404.87 897.48 410.04Z" fill="#FFA300"/>
<path d="M815.48 331.51C818.87 335.77 824.85 335.8 829.69 337.09C832.28 337.78 834.71 338.91 836.09 341.33C837.55 343.9 838.21 346.99 841.15 348.33C842.91 349.13 844.84 349.08 846.7 349.47C848.29 349.8 850.35 350.75 850.27 352.65C850.22 353.94 852.22 353.93 852.27 352.65C852.41 349.38 849.03 347.78 846.27 347.39C844.56 347.14 842.52 347.12 841.1 345.99C839.83 344.98 839.24 343.31 838.59 341.88C837.39 339.23 835.67 337.28 832.98 336.11C830.42 334.99 827.65 334.6 824.94 334.03C821.95 333.4 818.88 332.58 816.89 330.09C816.1 329.09 814.69 330.51 815.48 331.51Z" fill="#FFCF8E"/>
<path d="M807.24 308.84C809.68 307.51 812.43 308.72 814.56 310.08C816.77 311.49 818.8 313.04 821.27 313.99C826.18 315.87 831.62 315.7 836.79 315.52C838.07 315.47 838.08 313.47 836.79 313.52C831.23 313.72 825.19 313.97 820.11 311.29C815.84 309.04 811.42 304.29 806.23 307.11C805.1 307.73 806.1 309.46 807.24 308.84Z" fill="#FFCF8E"/>
<path d="M852.71 319.67C858.67 320.83 863.79 324.87 868.5 328.5C873.31 332.2 876.99 336.93 878.96 342.7C879.37 343.91 881.31 343.39 880.89 342.17C878.82 336.1 875.04 331.06 869.99 327.14C865.02 323.27 859.57 318.97 853.24 317.74C851.98 317.49 851.44 319.42 852.71 319.67Z" fill="#BA7700"/>
<path d="M835.9 324.29C843.85 325.88 851.55 328.56 858.72 332.35C862.01 334.09 865.54 335.96 867.91 338.9C869.09 340.36 869.84 342.12 870.98 343.61C871.99 344.92 873.29 345.91 874.71 346.73C877.67 348.43 883.47 350.41 882.84 354.82C882.66 356.08 884.59 356.62 884.77 355.35C885.29 351.7 882.71 348.85 879.73 347.13C878.08 346.18 876.31 345.45 874.72 344.39C872.94 343.2 871.94 341.53 870.86 339.73C868.79 336.29 865.72 334.01 862.28 332.03C858.56 329.89 854.67 328.06 850.67 326.5C846.05 324.7 841.28 323.33 836.42 322.36C835.17 322.11 834.63 324.04 835.9 324.29Z" fill="#FFCF8E"/>
<path d="M817.66 323.34C821.52 326.42 826.7 325.46 830.92 327.67C835.4 330.01 839.09 334.27 844.62 333.41C845.89 333.21 845.35 331.28 844.09 331.48C839.1 332.26 835.32 327.46 831.17 325.57C827.37 323.84 822.42 324.6 819.07 321.93C818.08 321.13 816.66 322.53 817.66 323.34Z" fill="#BA7700"/>
<path d="M849.97 339.33C853.25 339.81 856.24 341.38 858.46 343.84C859.33 344.8 860.74 343.38 859.87 342.43C857.44 339.75 854.07 337.93 850.49 337.41C849.96 337.33 849.42 337.54 849.26 338.11C849.14 338.57 849.43 339.25 849.97 339.33Z" fill="#BA7700"/>
<path d="M874.25 357.13C877.24 357.59 878.84 360.53 879.94 363.05C881.18 365.89 882.33 368.86 885.01 370.66C886.08 371.38 887.08 369.65 886.02 368.93C883.41 367.17 882.55 363.83 881.26 361.14C879.98 358.47 877.91 355.68 874.78 355.2C874.24 355.12 873.71 355.34 873.55 355.9C873.42 356.37 873.72 357.04 874.25 357.13Z" fill="#BA7700"/>
<path d="M349.45 852.82C349.45 852.82 427.6 868.79 484.15 806.54C503.65 785.08 508.19 764.46 510.49 744.05C512.54 725.85 513.59 707.58 509.49 692.57C504.85 675.59 498.56 661.36 495.74 651.48C487.62 623.08 496.75 582.88 461.12 570.26C434.99 561.01 349.45 852.82 349.45 852.82Z" fill="#336600"/>
<path d="M301.13 818.61C312.21 841.25 345.01 867.35 400.94 845.38C422.86 836.77 438.13 820.14 452.3 802.21C472.05 777.21 485.9 746.84 479.31 706.86C475.52 683.88 470.61 663.21 470.21 641.51C469.94 626.86 472.33 609.86 473.49 594.5C476.21 558.52 425.97 555.81 401.53 590.74C354.67 657.7 342.15 649.34 308.71 701.61C283.53 740.97 280.58 776.61 301.13 818.61Z" fill="#72C900"/>
<path d="M385.33 838.03C366.35 843.45 352.11 836.96 338.14 830.37C327.79 825.49 316.66 823.04 311.91 813.34C293.55 775.82 291.77 745.44 314.97 709.17C330.61 684.73 344.11 669.32 356.56 657.2C370.22 643.91 386.81 632.69 411.35 597.61C417.38 588.99 425.38 580.82 434.86 578.11C443.82 575.55 461.11 570.25 462.48 595.02C464.67 634.68 461.02 669.72 467.47 708.8C472.31 738.14 467.59 765.47 453.83 787.82C441.15 808.41 421.35 824.45 396.55 834.19C392.76 835.7 388.99 836.99 385.33 838.03C385.33 838.03 385.34 838.03 385.33 838.03Z" fill="#FFDA71"/>
<path d="M415.13 768.39C404.06 796.36 374.83 811.03 349.84 801.14C349.83 801.13 349.82 801.14 349.82 801.14C335.33 795.4 325.46 782.67 321.88 767.53C321.88 767.52 321.88 767.52 321.87 767.51C319.28 756.54 326.75 736.78 331.41 725.03C338.02 708.33 344.33 703.91 359.1 699.09C369.1 695.83 379.87 695.82 389.96 699.81C414.94 709.7 426.21 740.41 415.13 768.39Z" fill="#FFA307"/>
<path d="M415.13 768.39C404.06 796.36 374.83 811.03 349.84 801.14C349.83 801.13 349.82 801.14 349.82 801.14C345.17 799.3 341 796.74 337.36 793.61C329.64 786.99 324.3 777.81 321.87 767.52C323.79 772.53 334.72 794.36 362.26 779.46C373.56 773.34 383.42 756.93 385.28 746.07C387.14 735.21 377.93 726.33 376.24 718.79C372.12 700.44 370.26 697.83 359.1 699.07C366.3 696.72 373.9 696.06 381.36 697.37L381.37 697.38C384.27 697.87 387.14 698.67 389.95 699.79C414.94 709.7 426.21 740.41 415.13 768.39Z" fill="#CF7F01"/>
<path d="M415.13 768.39C404.06 796.36 374.83 811.03 349.84 801.14C349.83 801.13 349.82 801.14 349.82 801.14C345.17 799.3 341 796.74 337.36 793.61C337.36 793.61 351.48 803 380.67 788.21C393.36 781.78 397.26 769.06 400.48 759.7C404.67 747.52 409.22 734.36 405.21 723.36C398.11 703.9 394.23 702.63 381.36 697.39C384.26 697.88 387.13 698.68 389.94 699.8C414.94 709.7 426.21 740.41 415.13 768.39Z" fill="#814A46"/>
<path d="M927.57 441.31C942.38 475.45 962.34 514.25 953.41 597.98C949.94 630.52 925.47 684.29 882.83 740.14C814.94 829.08 686.26 919.45 515.6 948.99C348.64 977.89 266.47 922.82 211.55 867.93C257.08 902.2 333.83 917.14 422.19 894.08C498.44 874.18 581.89 822.99 678.35 767.03C753.9 723.2 815.5 688.85 856.66 647.7C934.84 569.56 950.55 490.44 927.12 440.64C927.31 440.83 927.46 441.06 927.57 441.31Z" fill="#9E1C4C"/>
<path d="M428.92 206.12C422.71 210.29 416.61 212.44 410.92 213.28C397.44 215.28 386.22 209.99 381.08 206.96C379.15 205.81 378.07 204.98 378.07 204.98C362.38 225.77 350.81 244.91 338.31 248.11C338.3 248.11 338.3 248.11 338.3 248.11C334.48 249.09 330.58 248.58 326.44 246.18C310.15 236.74 290.83 224.55 300.1 215.99L335.02 179.48C313.31 164.22 303.49 135.97 317.57 119.99C326.21 110.18 338.85 100.97 357.36 100.05H357.41C369.06 99.4799 383.03 102.17 399.8 110.06C443.27 130.5 455.35 188.38 428.92 206.12Z" fill="#935650"/>
<path d="M428.92 206.12C422.71 210.29 416.61 212.44 410.92 213.28C394.77 213.73 382.9 204.54 382.9 204.54C382.29 205.35 381.69 206.15 381.08 206.95C364.35 229.42 352.27 249.28 338.31 248.1C338.3 248.1 338.3 248.1 338.3 248.1C336.01 247.9 333.68 247.14 331.26 245.75C314.97 236.3 295.65 224.12 304.92 215.56L339.84 179.04C318.12 163.78 308.31 135.53 322.39 119.55C330.26 110.62 341.45 102.19 357.36 100.05H357.41C369.06 99.4799 394.34 103.91 411.1 111.8C432.45 121.84 437.17 137.84 439.76 156.33C442.44 175.48 442.37 197.1 428.92 206.12Z" fill="#C98263"/>
<path d="M339.02 173.8C339.02 173.8 319.84 160.1 329 142.88C338.15 125.66 349.92 126.77 361.04 129.95C372.16 133.13 374.41 136.18 371.08 140.06C367.75 143.94 363.14 135.53 351.87 136C340.59 136.46 335.79 141.1 333.79 146.15C331.23 152.6 332.45 157.42 335.72 162.12C340.62 169.16 346.96 177.49 339.02 173.8Z" fill="#935650"/>
<path d="M382.51 199.67C391.3 203.77 409.36 209.65 420.6 199.15C434.63 186.05 420.85 172.07 416.63 166.75C412.41 161.43 410.54 157.68 405.67 161.95C403.6 163.76 404.16 165.84 409.48 171.33C416.38 178.45 426.49 186.68 414.51 196.27C407.48 201.9 393.86 198.46 386.91 196.31C379.97 194.16 382.51 199.67 382.51 199.67Z" fill="#935650"/>
<path d="M591.74 221.11C596.29 225.26 599.61 230.33 601.26 236.19C603.51 244.12 603.67 251.26 602.61 257.51C600.09 272.33 590.7 282.29 585.76 286.62C583.89 288.25 582.66 289.1 582.66 289.1C599.08 312.67 615.19 331.35 614.26 345.55C614.26 345.56 614.26 345.56 614.26 345.56C613.99 349.9 612.12 353.81 608.18 357.34C592.7 371.19 573.31 387.27 567.51 374.61L541.18 325.5C517.75 343.03 484.76 343.66 472.83 323.42C465.5 311 460.18 294.61 465.56 274.88L465.57 274.82C465.68 274.4 465.81 273.97 465.95 273.53C468.03 266.42 471.51 258.89 476.78 250.97C480.47 245.44 485.02 239.71 490.58 233.8C507.94 215.36 531.81 207.37 553.04 207.75C554.6 208.11 556.17 208.51 557.75 208.96C568.36 211.94 581.84 215.45 591.74 221.11Z" fill="#935650"/>
<path d="M591.74 221.11C598.16 224.77 603.07 229.35 604.75 235.27C607 243.2 603.67 251.26 602.61 257.51C597.55 274.6 583.86 283.9 583.86 283.9C584.5 284.82 585.13 285.72 585.76 286.62C603.6 311.85 620.28 331.33 614.26 345.55C614.26 345.56 614.26 345.56 614.26 345.56C613.27 347.89 611.68 350.08 609.39 352.13C593.89 365.97 574.52 382.06 568.71 369.41L542.37 320.29C518.94 337.83 485.95 338.45 474.02 318.21C467.35 306.9 462.34 292.29 465.55 274.87L465.56 274.81C465.67 274.39 465.8 273.96 465.94 273.52C467.8 267.52 471.72 259.39 476.77 250.96C482.39 241.59 489.4 231.87 496.53 224.3C515.2 204.47 533.18 203 553.03 207.74C554.59 208.1 556.16 208.5 557.74 208.95C568.36 211.94 581.84 215.45 591.74 221.11Z" fill="#C98263"/>
<path d="M536.6 319.38C536.6 319.38 515.66 334.8 500.75 319.3C485.84 303.8 491.03 291.85 498.16 281.28C505.29 270.71 509.27 269.4 512.2 274.21C515.13 279.03 504.74 280.98 501.36 292.96C497.98 304.94 501.2 311.57 505.8 315.4C511.68 320.29 517.16 320.67 523.2 318.85C532.27 316.11 543.18 312.32 536.6 319.38Z" fill="#935650"/>
<path d="M578.61 282.63C585.91 274.82 598.27 257.89 591.11 242.52C582.18 223.33 562.8 232.98 555.78 235.59C548.76 238.2 544.19 238.87 546.99 245.44C548.18 248.22 550.55 248.36 558.13 244.66C567.96 239.86 580.05 232.08 586.01 247.93C589.51 257.23 581.24 270.34 576.6 276.88C571.97 283.41 578.61 282.63 578.61 282.63Z" fill="#935650"/>
<path d="M728.605 638.191C734.353 632.402 737.452 626.16 735.528 624.249C733.603 622.338 727.384 625.483 721.636 631.272C715.888 637.061 712.789 643.303 714.714 645.214C716.638 647.124 722.858 643.98 728.605 638.191Z" fill="#EABD75"/>
<path d="M756.831 610.941C759.091 610.597 759.893 603.542 758.621 595.183C757.35 586.823 754.486 580.326 752.226 580.67C749.965 581.014 749.164 588.069 750.436 596.428C751.707 604.787 754.571 611.285 756.831 610.941Z" fill="#EABD75"/>
<path d="M578.741 550.835C587.21 549.547 593.78 546.568 593.417 544.182C593.054 541.796 585.895 540.906 577.427 542.195C568.959 543.483 562.388 546.462 562.751 548.848C563.114 551.233 570.273 552.123 578.741 550.835Z" fill="#EABD75"/>
<path d="M611.58 605.343C613.841 604.999 614.778 598.838 613.674 591.581C612.571 584.325 609.843 578.722 607.583 579.066C605.322 579.409 604.385 585.571 605.489 592.827C606.593 600.083 609.32 605.686 611.58 605.343Z" fill="#EABD75"/>
<path d="M618.798 652.266C620.505 650.399 617.252 644.647 611.533 639.42C605.814 634.192 599.794 631.467 598.087 633.334C596.381 635.201 599.633 640.953 605.353 646.181C611.072 651.408 617.092 654.133 618.798 652.266Z" fill="#EABD75"/>
<path d="M662.756 609.05C670.154 604.899 675.238 599.906 674.111 597.897C672.984 595.889 666.073 597.625 658.675 601.776C651.277 605.927 646.193 610.92 647.32 612.929C648.447 614.937 655.358 613.2 662.756 609.05Z" fill="#EABD75"/>
<path d="M680.755 517.527C684.725 510.682 686.341 504.202 684.363 503.055C682.385 501.908 677.563 506.528 673.592 513.373C669.622 520.219 668.006 526.699 669.984 527.846C671.962 528.993 676.784 524.373 680.755 517.527Z" fill="#EABD75"/>
<path d="M727.144 525.463C728.689 523.363 725.095 518.095 719.117 513.696C713.139 509.296 707.04 507.432 705.495 509.531C703.95 511.631 707.544 516.899 713.522 521.299C719.5 525.698 725.599 527.562 727.144 525.463Z" fill="#EABD75"/>
<path d="M788.638 553.511C796.085 552.378 801.854 549.693 801.522 547.515C801.191 545.336 794.885 544.489 787.438 545.622C779.991 546.755 774.222 549.439 774.553 551.618C774.885 553.796 781.191 554.644 788.638 553.511Z" fill="#EABD75"/>
<path d="M827.174 527.66C830.718 520.312 831.683 513.436 829.33 512.301C826.977 511.167 822.197 516.203 818.653 523.55C815.11 530.897 814.145 537.773 816.498 538.908C818.851 540.043 823.631 535.007 827.174 527.66Z" fill="#EABD75"/>
<path d="M723.238 468.559C726.143 468.117 727.384 460.438 726.01 451.408C724.636 442.377 721.168 435.415 718.263 435.856C715.358 436.298 714.117 443.977 715.491 453.008C716.865 462.039 720.334 469.001 723.238 468.559Z" fill="#EABD75"/>
<path d="M616.007 490.264C618.576 488.685 616.279 480.28 610.878 471.491C605.476 462.703 599.014 456.858 596.445 458.437C593.877 460.016 596.173 468.42 601.575 477.209C606.977 485.998 613.438 491.843 616.007 490.264Z" fill="#EABD75"/>
<path d="M512.648 541.05C513.751 531.653 512.413 523.774 509.66 523.451C506.906 523.127 503.779 530.483 502.676 539.879C501.573 549.275 502.911 557.155 505.665 557.478C508.418 557.801 511.545 550.446 512.648 541.05Z" fill="#EABD75"/>
</g>
<defs>
<clipPath id="clip0">
<rect width="981.18" height="899.95" fill="white" transform="translate(59 100)"/>
</clipPath>
</defs>
</svg>
