<?xml version="1.0" encoding="UTF-8"?>
<!DOCTYPE svg PUBLIC "-//W3C//DTD SVG 1.1//EN" "http://www.w3.org/Graphics/SVG/1.1/DTD/svg11.dtd">
<!-- Creator: CorelDRAW 2018 (64-Bit Evaluation Version) -->
<svg xmlns="http://www.w3.org/2000/svg" xml:space="preserve" width="440.267mm" height="407.811mm" version="1.1" style="shape-rendering:geometricPrecision; text-rendering:geometricPrecision; image-rendering:optimizeQuality; fill-rule:evenodd; clip-rule:evenodd"
viewBox="0 0 46319.47 42904.85"
 xmlns:xlink="http://www.w3.org/1999/xlink">
 <defs>
  <style type="text/css">
   <![CDATA[
    .str2 {stroke:#3B9CFF;stroke-width:222.69;stroke-miterlimit:22.9256;stroke-opacity:0.360784}
    .str1 {stroke:#3B9CFF;stroke-width:178.15;stroke-miterlimit:22.9256;stroke-opacity:0.470588}
    .str0 {stroke:#3B9CFF;stroke-width:21.04;stroke-miterlimit:22.9256;stroke-opacity:0.470588}
    .str4 {stroke:#3B9CFF;stroke-width:222.69;stroke-miterlimit:22.9256;stroke-opacity:0.549020}
    .str3 {stroke:#5AEEBC;stroke-width:21.04;stroke-miterlimit:22.9256}
    .fil12 {fill:none}
    .fil9 {fill:none}
    .fil5 {fill:none}
    .fil14 {fill:none}
    .fil11 {fill:#3B9CFF;fill-rule:nonzero}
    .fil3 {fill:#3B9CFF;fill-opacity:0.090196}
    .fil1 {fill: #FFFFFF;
    fill-opacity: 1;}
    .fil0 {
    fill: none;
    fill-opacity: 0.109804;
}
    .fil16 {fill:#00C2FF;fill-opacity:0.301961}
    .fil15 {fill:#3B9CFF;fill-opacity:0.301961}
    .fil17 {fill:#CDF4FF;fill-opacity:0.301961}
    .fil10 {fill:white;fill-opacity:0.341176}
    .fil7 {fill:#3B9CFF;fill-opacity:0.360784}
    .fil2 {    fill: #FFF;
    fill-opacity: 0.3;}
    .fil6 {fill:#3B9CFF;fill-rule:nonzero;fill-opacity:0.431373}
    .fil4 {fill:#3B9CFF;fill-opacity:0.470588}
    .fil13 {fill:white;fill-opacity:0.549020}
    .fil8 {fill:white;fill-opacity:0.600000}
   ]]>
  </style>
 </defs>
 <g id="Layer_x0020_1">
  <metadata id="CorelCorpID_0Corel-Layer"/>
  <polygon class="fil0" points="-0,0 46319.47,0 46319.47,42904.85 -0,42904.85 "/>
  <path class="fil1" d="M18928.49 2226.66l19077.09 0c1061.5,0 1929.98,868.47 1929.98,1929.97l0 34368.46c0,1061.48 -868.48,1929.98 -1929.98,1929.98l-19077.09 0c-1061.48,0 -1929.98,-868.5 -1929.98,-1929.98l0 -34368.46c0,-1061.5 868.5,-1929.97 1929.98,-1929.97z"/>
  <path class="fil2" d="M20115.85 36779.43c0,898.18 -734.87,1633.05 -1633.05,1633.05l-13027.39 0c-898.18,0 -1633.05,-734.87 -1633.05,-1633.05l0 -12347.57 0 -16769.21c0,-898.18 734.87,-1633.05 1633.05,-1633.05l13027.39 0c898.18,0 1633.05,734.87 1633.05,1633.05l0 16769.21 0 12347.57z"/>
  <path class="fil3" d="M3822.37 21563.52l16293.48 0 0 2868.34 0 12347.57c0,898.18 -734.87,1633.05 -1633.05,1633.05l-13027.39 0c-898.18,0 -1633.05,-734.87 -1633.05,-1633.05l0 -12347.57 0 -2868.34z"/>
  <path class="fil4 str0" d="M17411.85 7202.99l1104.16 0c71.46,0 129.91,58.45 129.91,129.91l0 927.87c0,71.46 -58.45,129.91 -129.91,129.91l-1104.16 0c-71.46,0 -129.91,-58.45 -129.91,-129.91l0 -927.87c0,-71.46 58.45,-129.91 129.91,-129.91zm74.21 111.35l965.01 0c43.38,0 78.86,35.49 78.86,78.86l0 797.98c0,43.38 -35.49,78.86 -78.86,78.86l-965.01 0c-43.38,0 -78.86,-35.49 -78.86,-78.86l0 -797.98c0,-43.38 35.49,-78.86 78.86,-78.86z"/>
  <path class="fil5 str1" d="M17678.6 7511.51c-41.33,-343.62 10.32,-590.53 278.37,-612.39 230.8,9.01 339.08,185.85 285.32,584.57"/>
  <path class="fil6" d="M6352.78 17314.27l-187.94 0 0 -640.26 -527.77 -752.09 224.99 0 396.76 563.47 401.81 -563.47 226 0 -533.83 752.09 0 640.26zm1350.25 -242.84c58.94,-57.93 88.57,-134.05 88.57,-228.35 0,-94.63 -29.64,-170.08 -88.57,-226.67 -58.94,-56.92 -132.36,-85.54 -220.27,-86.22 -87.56,0 -161.33,28.29 -220.95,85.21 -60.28,57.26 -90.59,132.71 -90.59,226.67 0,93.63 29.64,169.75 88.57,228.35 58.95,58.95 132.71,88.25 221.28,88.25 88.92,0 163.02,-28.96 221.96,-87.24zm-220.95 263.05c-137.41,0 -253.95,-45.47 -350.28,-136.41 -96.32,-90.93 -144.48,-209.49 -144.48,-356 0,-146.5 47.48,-265.4 142.13,-356.34 94.64,-90.93 211.52,-136.07 350.95,-135.39 140.12,0 257.32,45.47 351.96,136.4 95.32,91.61 143.15,210.17 143.15,355.33 0,145.17 -47.83,263.39 -143.48,354.99 -95.65,91.61 -212.52,137.42 -349.94,137.42zm1385.28 -454.35l0 -509.58 183.89 0 0 943.72 -183.89 0 0 -140.79c-26.94,51.87 -67.36,91.95 -121.59,119.57 -53.89,27.62 -111.15,41.43 -171.77,41.43 -116.88,0 -206.8,-36.72 -269.78,-110.48 -62.98,-73.75 -94.3,-176.15 -93.62,-307.16l0 -546.29 183.89 0 0 533.16c0,78.47 18.19,140.11 54.22,184.9 36.38,44.12 90.94,66.02 164.03,66.02 73.08,0 133.71,-22.9 182.55,-69.05 48.84,-46.14 72.75,-114.52 72.08,-205.45zm671.58 90.93l0 343.21 -183.89 0 0 -943.72 183.89 0 0 212.86c46.14,-155.27 133.38,-233.07 262.38,-233.07 74.43,0 129,12.12 164.02,36.03l-28.63 172.45c-41.43,-21.89 -87.9,-32.67 -139.1,-32.67 -83.2,0 -146.85,39.74 -191.65,119.23 -44.8,79.82 -67.03,188.27 -67.03,325.68zm1089.24 -56.92l188.95 0c1.35,62.65 29.64,119.23 84.87,170.09 55.23,50.86 124.96,75.78 209.83,74.43 84.88,0 151.23,-18.86 199.39,-56.24 47.83,-37.39 76.45,-86.9 85.55,-147.86 10.44,-126.98 -68.37,-209.5 -236.78,-247.55l-179.52 -46.14c-226.33,-57.59 -339.49,-178.84 -339.49,-363.07 0,-114.18 44.45,-207.81 133.37,-280.56 85.54,-74.43 191.65,-111.49 317.6,-111.49 126.3,0 232.4,37.39 318.96,112.5 86.23,74.77 129.33,173.46 129.33,295.71l-187.93 0c0,-68.7 -24.25,-123.95 -73.09,-166.04 -49.85,-41.43 -110.8,-62.31 -183.22,-62.31 -72.08,0 -135.74,18.86 -190.3,56.59 -51.19,37.72 -76.79,86.89 -76.79,147.51 0,93.97 67.03,156.62 200.74,187.94l181.54 44.46c133.04,35.36 231.05,90.59 294.03,166.04 63.31,75.44 88.57,167.4 76.12,275.51 -12.47,108.45 -60.63,197.03 -144.16,266.75 -83.52,69.37 -191.97,104.07 -325.35,104.07 -133.37,0 -247.89,-41.09 -343.53,-123.61 -93.3,-85.21 -140.12,-184.23 -140.12,-296.73zm1461.4 -889.16l0 345.57 198.04 0 0 163.68 -198.04 0 0 780.04 -183.89 0 0 -780.04 -169.75 0 0 -163.68 169.75 0 0 -345.57 183.89 0zm1059.93 1046.45c58.94,-57.93 88.57,-134.05 88.57,-228.35 0,-94.63 -29.64,-170.08 -88.57,-226.67 -58.94,-56.92 -132.36,-85.54 -220.27,-86.22 -87.56,0 -161.33,28.29 -220.95,85.21 -60.28,57.26 -90.59,132.71 -90.59,226.67 0,93.63 29.64,169.75 88.57,228.35 58.95,58.95 132.71,88.25 221.28,88.25 88.92,0 163.02,-28.96 221.96,-87.24zm-220.95 263.05c-137.41,0 -253.95,-45.47 -350.28,-136.41 -96.32,-90.93 -144.48,-209.49 -144.48,-356 0,-146.5 47.48,-265.4 142.13,-356.34 94.64,-90.93 211.52,-136.07 350.95,-135.39 140.12,0 257.32,45.47 351.96,136.4 95.32,91.61 143.15,210.17 143.15,355.33 0,145.17 -47.83,263.39 -143.48,354.99 -95.65,91.61 -212.52,137.42 -349.94,137.42zm922.5 -363.42l0 343.21 -183.89 0 0 -943.72 183.89 0 0 212.86c46.14,-155.27 133.38,-233.07 262.38,-233.07 74.43,0 129,12.12 164.02,36.03l-28.63 172.45c-41.43,-21.89 -87.9,-32.67 -139.1,-32.67 -83.2,0 -146.85,39.74 -191.65,119.23 -44.8,79.82 -67.03,188.27 -67.03,325.68zm1502.49 -131.35c0,41.77 -0.67,65.68 -2.02,72.41l-765.89 0c9.09,76.12 42.78,139.11 100.7,189.29 55.91,46.13 118.56,69.37 188.27,69.37 136.41,0 231.72,-48.84 286.29,-146.5 1.35,0 3.37,0.34 6.06,1.68 2.36,1.35 7.07,3.7 13.8,7.07 7.75,3.37 18.19,7.41 31.33,11.78 13.13,4.72 23.24,8.76 29.64,12.13l77.13 28.63c-38.74,79.48 -97.34,140.79 -175.81,183.89 -78.14,43.45 -164.37,65.01 -258.33,65.01 -135.07,0 -250.25,-45.47 -346.24,-136.75 -91.28,-91.27 -136.74,-210.84 -136.74,-358.02 0,-147.52 45.46,-265.73 136.07,-354.99 90.94,-88.91 205.79,-133.71 345.23,-134.38 139.43,0 251.93,45.13 337.47,135.06 88.58,89.59 133.04,207.81 133.04,354.32zm-275.51 -257.99c-52.54,-45.13 -117.87,-67.7 -195.34,-67.7 -77.8,0 -144.49,22.57 -200.4,67.7 -55.23,48.16 -87.57,110.8 -96.66,186.92l585.03 0c-9.09,-76.12 -40.08,-138.76 -92.62,-186.92z"/>
  <g id="_2102902136752">
   <path class="fil7" d="M13165.12 32455.54l4509.48 0c132.69,0 241.24,108.55 241.24,241.24l0 0.01c0,132.69 -108.55,241.24 -241.24,241.24l-4509.48 0c-132.69,0 -241.24,-108.55 -241.24,-241.24l0 -0.01c0,-132.69 108.55,-241.24 241.24,-241.24z"/>
   <path class="fil7" d="M14246.09 33309.19l2347.53 0c132.69,0 241.24,108.55 241.24,241.24l0 0.01c0,132.69 -108.55,241.24 -241.24,241.24l-2347.53 0c-132.69,0 -241.24,-108.55 -241.24,-241.24l0 -0.01c0,-132.69 108.55,-241.24 241.24,-241.24z"/>
  </g>
  <g id="_2102902135536">
   <path class="fil7" d="M6019.31 32455.54l4509.48 0c132.69,0 241.24,108.55 241.24,241.24l0 0.01c0,132.69 -108.55,241.24 -241.24,241.24l-4509.48 0c-132.69,0 -241.24,-108.55 -241.24,-241.24l0 -0.01c0,-132.69 108.55,-241.24 241.24,-241.24z"/>
   <path class="fil7" d="M7100.28 33309.19l2347.53 0c132.69,0 241.24,108.55 241.24,241.24l0 0.01c0,132.69 -108.55,241.24 -241.24,241.24l-2347.53 0c-132.69,0 -241.24,-108.55 -241.24,-241.24l0 -0.01c0,-132.69 108.55,-241.24 241.24,-241.24z"/>
  </g>
  <path class="fil8" d="M8680.25 2823.37l3630.12 0c770.5,0 1400.9,630.4 1400.9,1400.9l0 3613.92c0,770.5 -630.4,1400.9 -1400.9,1400.9l-3630.12 0c-770.5,0 -1400.9,-630.4 -1400.9,-1400.9l0 -3613.92c0,-770.5 630.4,-1400.9 1400.9,-1400.9z"/>
  <line class="fil9 str2" x1="9117.42" y1="6035.87" x2="11873.21" y2= "6026.6" />
  <line class="fil9 str2" x1="10495.32" y1="4667.26" x2="10495.32" y2= "7395.21" />
  <path class="fil10" d="M25334.83 30768.63l15748.09 0c986.92,0 1794.4,807.48 1794.4,1794.4l0 5578.59c0,986.92 -807.48,1794.4 -1794.4,1794.4l-15748.09 0c-986.92,0 -1794.4,-807.48 -1794.4,-1794.4l0 -5578.59c0,-986.92 807.48,-1794.4 1794.4,-1794.4z"/>
  <path class="fil11" d="M25572.67 32379.74l-146.37 0 0 223.02 143.04 0c33.12,0 58.14,-9.98 74.77,-30.08 16.78,-21.56 25.17,-48.61 25.17,-81.43 0,-32.84 -8.39,-59.44 -25.17,-80.13 -15.48,-20.98 -39.34,-31.38 -71.45,-31.38zm-146.37 298.52l0 223.89 -80.72 0 0 -597.91 228.39 0c58.57,0 102.54,18.22 131.75,54.67 29.22,36.44 43.98,79.69 44.26,130.03 -0.28,50.33 -12.87,92.71 -37.9,127.56 -25.02,34.71 -63.78,54.23 -115.99,58.86l159.96 226.79 -97.77 0 -155.33 -223.89 -76.65 0z"/>
  <path id="1" class="fil11" d="M26247.96 32698.36c0,17.94 -0.29,28.21 -0.87,31.1l-328.89 0c3.9,32.69 18.37,59.73 43.24,81.28 24.01,19.81 50.91,29.79 80.85,29.79 58.58,0 99.51,-20.98 122.94,-62.91 0.58,0 1.45,0.14 2.61,0.72 1.01,0.58 3.03,1.6 5.92,3.04 3.34,1.44 7.82,3.18 13.46,5.06 5.64,2.03 9.97,3.77 12.73,5.21l33.12 12.3c-16.63,34.13 -41.8,60.45 -75.5,78.97 -33.56,18.65 -70.58,27.91 -110.94,27.91 -57.99,0 -107.46,-19.53 -148.68,-58.73 -39.19,-39.19 -58.72,-90.53 -58.72,-153.74 0,-63.35 19.53,-114.12 58.43,-152.45 39.04,-38.18 88.36,-57.41 148.25,-57.71 59.87,0 108.19,19.38 144.92,58 38.03,38.47 57.13,89.24 57.13,152.15zm-118.32 -110.78c-22.56,-19.39 -50.62,-29.08 -83.88,-29.08 -33.41,0 -62.05,9.69 -86.06,29.08 -23.71,20.67 -37.6,47.57 -41.5,80.26l251.23 0c-3.9,-32.69 -17.21,-59.59 -39.78,-80.26z"/>
  <polygon id="2" class="fil11" points="26465.49,32902.15 26297.28,32496.89 26380.3,32496.89 26503.53,32801.19 26626.03,32496.89 26710.35,32496.89 "/>
  <path id="3" class="fil11" d="M27172.6 32698.36c0,17.94 -0.29,28.21 -0.87,31.1l-328.89 0c3.9,32.69 18.37,59.73 43.24,81.28 24.01,19.81 50.91,29.79 80.85,29.79 58.58,0 99.51,-20.98 122.94,-62.91 0.58,0 1.45,0.14 2.61,0.72 1.01,0.58 3.03,1.6 5.92,3.04 3.34,1.44 7.82,3.18 13.46,5.06 5.64,2.03 9.97,3.77 12.73,5.21l33.12 12.3c-16.63,34.13 -41.8,60.45 -75.5,78.97 -33.56,18.65 -70.58,27.91 -110.94,27.91 -57.99,0 -107.46,-19.53 -148.68,-58.73 -39.19,-39.19 -58.72,-90.53 -58.72,-153.74 0,-63.35 19.53,-114.12 58.43,-152.45 39.04,-38.18 88.36,-57.41 148.25,-57.71 59.87,0 108.19,19.38 144.92,58 38.03,38.47 57.13,89.24 57.13,152.15zm-118.32 -110.78c-22.56,-19.39 -50.62,-29.08 -83.88,-29.08 -33.41,0 -62.05,9.69 -86.06,29.08 -23.71,20.67 -37.6,47.57 -41.5,80.26l251.23 0c-3.9,-32.69 -17.21,-59.59 -39.78,-80.26z"/>
  <path id="4" class="fil11" d="M27351.94 32683.61l0 218.54 -78.97 0 0 -405.26 78.97 0 0 60.89c11.57,-22.57 28.92,-39.93 52.21,-51.78 23.14,-11.86 48.02,-17.79 74.48,-17.79 50.92,0 89.25,15.62 115.13,47.01 27.05,30.8 40.79,75.07 41.08,132.62l0 234.31 -78.97 0 0 -229.1c0,-34.13 -8.1,-60.45 -24.16,-78.82 -15.62,-19.23 -38.62,-28.78 -69.13,-28.78 -30.82,0 -56.99,9.98 -78.4,30.09 -21.55,19.96 -32.25,49.46 -32.25,88.08z"/>
  <path id="5" class="fil11" d="M28039.24 32715.72l0 -218.83 78.97 0 0 405.26 -78.97 0 0 -60.45c-11.57,22.27 -28.93,39.48 -52.21,51.34 -23.15,11.86 -47.73,17.79 -73.76,17.79 -50.19,0 -88.81,-15.77 -115.85,-47.44 -27.05,-31.68 -40.49,-75.64 -40.21,-131.91l0 -234.59 78.97 0 0 228.95c0,33.7 7.82,60.17 23.29,79.4 15.61,18.95 39.05,28.35 70.44,28.35 31.38,0 57.41,-9.84 78.39,-29.65 20.97,-19.82 31.24,-49.18 30.95,-88.23z"/>
  <path id="6" class="fil11" d="M28630.49 32698.36c0,17.94 -0.29,28.21 -0.87,31.1l-328.89 0c3.9,32.69 18.37,59.73 43.24,81.28 24.01,19.81 50.91,29.79 80.85,29.79 58.58,0 99.51,-20.98 122.94,-62.91 0.58,0 1.45,0.14 2.61,0.72 1.01,0.58 3.03,1.6 5.92,3.04 3.34,1.44 7.82,3.18 13.46,5.06 5.64,2.03 9.97,3.77 12.73,5.21l33.12 12.3c-16.63,34.13 -41.8,60.45 -75.5,78.97 -33.56,18.65 -70.58,27.91 -110.94,27.91 -57.99,0 -107.46,-19.53 -148.68,-58.73 -39.19,-39.19 -58.72,-90.53 -58.72,-153.74 0,-63.35 19.53,-114.12 58.43,-152.45 39.04,-38.18 88.36,-57.41 148.25,-57.71 59.87,0 108.19,19.38 144.92,58 38.03,38.47 57.13,89.24 57.13,152.15zm-118.32 -110.78c-22.56,-19.39 -50.62,-29.08 -83.88,-29.08 -33.41,0 -62.05,9.69 -86.06,29.08 -23.71,20.67 -37.6,47.57 -41.5,80.26l251.23 0c-3.9,-32.69 -17.21,-59.59 -39.78,-80.26z"/>
  <line class="fil12 str3" x1="25289.39" y1="33482.62" x2="41490.08" y2= "33491.9" />
  <line class="fil12 str3" x1="25252.28" y1="35421.89" x2="41619.99" y2= "35431.16" />
  <line class="fil12 str3" x1="25164.15" y1="37509.61" x2="41555.06" y2= "37500.32" />
  <g id="_2102902141200">
   <path class="fil13" d="M2713.7 34274.79l3630.12 0c770.5,0 1400.9,630.4 1400.9,1400.9l0 3613.92c0,770.5 -630.4,1400.9 -1400.9,1400.9l-3630.12 0c-770.5,0 -1400.9,-630.4 -1400.9,-1400.9l0 -3613.92c0,-770.5 630.4,-1400.9 1400.9,-1400.9z"/>
   <line class="fil14 str4" x1="3150.87" y1="37487.3" x2="5906.66" y2= "37478.02" />
   <line class="fil14 str4" x1="4528.76" y1="36118.69" x2="4528.76" y2= "38846.64" />
  </g>
  <path class="fil15" d="M22033.51 8189.13l325.54 -2.64c-18.67,980.8 -105.26,2338.33 373.68,3192.96 47.71,85.12 95.51,138.41 131.02,225.2 -267.28,-40.87 -350.55,-176.99 -487.75,-482.99 -102.36,-228.3 -167.06,-468.83 -218.35,-731.73 -110.44,-566.18 -125.81,-1201.67 -125.63,-1797.62l1.49 -403.18zm212.84 -3140.4c77.6,-34.01 106.92,196.58 123.81,260.56l166.85 636.13c26.85,100.59 91.05,243.81 32.59,309.15 -76.51,-8.89 -60.7,-14.03 -85.6,-106.3l-206.81 -788.51c-14.4,-52.07 -32.98,-111.64 -47.16,-168 -16.23,-64.56 -45.85,-115.78 16.32,-143.03zm608.56 853.87c29.61,110.6 98,228.1 -1.65,271.91 -75.73,-58.84 -347.72,-1135.53 -317.39,-1200.45 93.01,-5.79 80.24,8.78 105.3,106.75l213.74 821.79zm217.23 -427.89c34,127.6 175.31,527.43 124.38,618.34 -106.39,-10.79 -66.24,5.88 -137.66,-266.68 -27.68,-105.61 -54.31,-209.4 -83.1,-318 -33.66,-126.96 -180.31,-534.21 -122.49,-622.26 86.09,9.4 71.89,13.09 97.03,118.07l121.85 470.53zm183.75 -564.28c51.31,208.31 287.82,1008.17 254.55,1097.39 -86.68,-4.4 -79.21,-4.33 -104.38,-106.18 -12.35,-49.96 -23.2,-102.35 -36.6,-152.24 -49.2,-183.12 -249.32,-851.38 -224.35,-945.3 99.74,0.54 83.99,-2.4 110.77,106.32zm2750.12 -823.08c233.26,55.34 338.05,361.96 307.55,666.14 -58.53,583.85 -488.46,1734.39 -687.35,2271.59l-127.2 -22.75 507 -2914.99zm-298.96 2952.18c-38.31,-59.46 182.13,-569.07 221.46,-683.15 160.55,-465.5 319.86,-963.73 412.12,-1451.8 69.21,-366.13 14.98,-501.17 -131.12,-763.82 213.27,77.69 414.46,353.35 380.29,678.8 -54.36,517.87 -671.66,1984.3 -882.76,2219.97zm-259.96 -47.06c-116.5,-13.48 -128.31,7.5 -135.39,-112.17 -21.32,-360.03 0.23,-1251.97 24.31,-1579.76 37.82,-514.72 90.98,-1214.4 609.64,-1233.08l-498.56 2925.01zm-1395.91 -2899.6c-22.01,-79.24 31.1,-313.38 304.39,-131.3 47.42,-39.4 121.56,-101.33 220.23,-56.65 59.56,26.96 104.64,107.91 78.82,197.18 -22,76.05 -233.74,244.2 -299.05,283.73 -69.15,-35.26 -115.94,-81.95 -168.97,-131.96 -44.4,-41.9 -116.92,-94.39 -135.41,-161zm1193.09 2864.82c-91.98,-138.9 -289.3,-2091.64 -40.27,-2552.85 77.73,-143.96 304.76,-367.72 557.45,-349.91 -151.45,31.92 -321.64,303.15 -373.73,490.91 -58,209.08 -85,533.6 -101.71,766.75 -35.18,490.57 -38.76,971.13 -24.19,1460.34 1.53,51.43 10.72,144.79 -17.55,184.76zm-1025.98 1012.19c-121.62,33.08 -423.07,14.37 -563.96,12.06 -89.18,-576.56 -297.9,-673.49 -17.86,-1018.78 283.65,-349.76 241.05,-556.1 144.65,-1057 -67.09,-348.6 -169.35,-731.44 -291.84,-1039.81 -173.73,-437.37 -202.21,-393.86 -876.98,-219.17 -645.39,167.08 -684.4,159.52 -598.84,681.2 58.98,359.63 158.31,726.47 272.95,1058.48 380.89,1103.02 751.68,513.76 932.36,1056.8 52.16,156.8 124.45,378.06 151.47,539.43l-500.95 -0.24c-36.3,-77.46 -99.74,-148.05 -154.17,-225.53 -335.83,-477.95 -629.25,-972.41 -945.84,-1466.64 -46.02,-71.84 -112.86,-206.84 -187.04,-211.61 -300.69,-19.4 257.6,918.33 328.74,1043.53 125.27,220.47 194.38,383.21 375.72,428.05 189.4,46.82 270.5,270.6 366.21,420.72l-984.59 12.28c-9.77,132.78 70.95,137.37 150.1,178.51l9.06 569.37c-91.87,8.13 -678.31,-144.42 -815.54,-54.59 -62.05,40.61 -90.95,152.81 -49.94,239.4 57.37,121.16 297.82,92.15 466.14,149.08 159.61,53.97 305.58,141.35 407.72,216.63 46.91,761.74 90.11,1496.42 441.56,2086.83 218.16,366.5 333.63,365.43 850.9,416.78 612.45,60.8 2428.15,90.13 2982.46,-83.26 130.92,-40.96 245.94,-215.07 313.85,-321.22 256.62,-401.21 359.86,-1003.2 407.75,-1496.87 18.05,-186.2 16.89,-416.04 44.08,-593.66 85.66,-90.62 252.79,-173.47 389.84,-220.94 290.26,-100.55 415.55,-14.39 479.8,-156.02 202.02,-445.35 -704.06,-185.6 -864.81,-178.6 -0.42,-149.79 -7.12,-313.4 -2.47,-461.17 7.32,-232.93 175.48,-74.5 161.76,-290.98 -161.9,0.04 -599.8,20.42 -728.52,-12.23l303.72 -948.52c52.95,-110.66 140.34,-111.85 245.1,-177.86 128.48,-80.96 320.32,-856.19 391.69,-1090.46 17.77,-58.34 44.82,-120.58 20.18,-172.15l-276.91 741.79c-28.74,79.96 -46.52,207.23 -122.31,229.28 -49.31,-61.79 71.89,-362.94 112.13,-493.04 46.72,-151.03 126.01,-369.5 146.32,-519.44 -72.92,79.61 -291.04,720.2 -338.33,855.95 -32.32,92.81 -11.66,91.59 -89.41,98.37 -35.91,-74.56 93.44,-390.21 122.85,-487.37 48.87,-161.44 125.46,-369.56 151.57,-531.43l-36.7 52.94c-13.69,25.4 -16.3,35.96 -25.71,59.57l-280.93 755.69c-26.91,77.7 -17.12,87.19 -79.2,101.39 -48.05,-63.21 71.7,-356.08 113.15,-490.71 45.5,-147.82 128.97,-373.28 145.06,-518.39 -62.47,70.72 -93.57,199.75 -131.64,299.07 -74.88,195.38 -343.36,821.31 -293.77,948.9 116.54,299.84 145.47,118.01 -44.28,659.75 -70.04,199.94 -180.34,449.67 -230.31,637.66l-542.52 1.55 101.86 -763.71c236.14,-29.08 52.53,-95.95 129.76,-246.33 16.53,-32.19 38.1,-62.87 55.31,-93.8 69.18,-124.27 131.71,-250.39 192.25,-378.66 189.29,-401.09 578.83,-1298.24 592.87,-1738.3 23.2,-727.19 -914.64,-985.24 -1361.34,-554.43 -408.97,394.42 -222.74,1955.36 -136.62,2538.39 33.9,229.49 35.46,155.45 -2.44,224.1 -44.02,79.74 -78.06,75.48 48.51,173.24 2.68,2.07 9.02,5.72 12.56,9.63l-170.76 828.64 -544.28 -0.63c0.04,-485.67 0.04,-963.68 0.04,-1441.68 0,-334.52 -60.41,-1117.01 65.84,-1365.73 167.26,-329.53 417.89,-538.64 421.7,-1025.41 8.73,-1114.57 -1241.89,-1126.73 -1247.29,-21.28 -2.5,511.97 247.67,693.66 418.13,1032.33 125.02,248.4 70.36,1018.55 70.36,1358.94 0,483.79 0,967.59 0,1451.37z"/>
  <path class="fil16" d="M37180.25 5892.16c175.5,-58.53 235.09,-45.42 418.74,-127.91 -48.23,86.47 -73.76,125.83 -168.32,156.89 -269.31,88.44 -248.65,-27.42 -250.42,-28.97zm1676.46 -1323.42c59.38,-58.96 88.66,-58.03 186.31,-83.14 192.68,-49.53 170.24,-15.04 196.7,-3.24 -84.97,120.02 -199.8,103.7 -383.01,86.38zm-590.94 3952.38c-75.29,54.83 -83.31,91.17 -173.4,172.93 -70.88,64.31 -92.65,97.18 -174.97,176.78 -339.3,328.08 -977.79,617.15 -1430.88,780.64 -1952.38,704.53 -4294.85,591.37 -6223.62,-172.89 -290.93,-115.28 -779.04,-385.62 -867.46,-614.64 492.01,342.94 595.41,461.98 1234.13,696.26 1499.26,549.96 3545.78,588.3 5073.56,235.96 950.14,-219.13 2133.18,-708.85 2497.43,-1347.37 286.33,-501.95 -6.33,-1108.44 -294.98,-1358.34 -309.62,-268.06 -796.02,-466.21 -1263.1,-641.36 308.86,17.41 431.19,120.08 666.67,212.54 199.69,-213.78 24.29,-445.4 1091.67,-1183.37 240.83,-166.5 448.88,-326.64 656.49,-497.99 183.81,-151.7 468.69,-476.93 381.84,-733.95 -669.37,-190.98 -1972.22,1137.99 -2218.26,1397.31 -225.94,238.15 -569.77,770.35 -1132.45,635.57 -1585.25,-379.74 -3351.47,-335.38 -4893.89,67.13 -976.43,254.8 -1868.78,676.14 -2114.83,1568.84 -250.66,909.34 662.55,1815.4 1361.43,2218.1 2016.94,1162.15 5306.01,1037.3 7102.95,-481.74 227.88,-192.64 626.45,-704.21 721.67,-1130.42z"/>
  <g id="_2102902144784">
   <path class="fil15" d="M10898.59 24206.97c1570.68,-209.54 2832.82,973.96 3007.86,2322.55 208.35,1605.39 -960.87,2847.25 -2322.51,3034.52 -1607.89,221.14 -2854.45,-966.36 -3037.01,-2327.47 -131.2,-978.23 321.99,-1926.8 943.93,-2423.72 423.7,-338.54 834.07,-529.34 1407.73,-605.87zm-3408.72 3059.85c170.46,1920.99 1930.3,3564.25 4087.63,3359.46 1959.8,-186.04 3581.41,-1905.84 3386.68,-4096.32 -173.39,-1950.59 -1922.32,-3589.6 -4109.35,-3379.58 -1959.04,188.12 -3560.11,1916.99 -3364.95,4116.43z"/>
   <path class="fil15" d="M10906.81 24303.99c-1326.83,180.52 -2444.97,1343.52 -2266.25,2884.93 155.92,1344.81 1377.99,2470.88 2926.52,2278.21 1299.07,-161.63 2441.22,-1378.88 2244.03,-2893.09 -191.31,-1469.01 -1518.78,-2458.58 -2904.3,-2270.06z"/>
   <path class="fil15" d="M17074.05 26415.99c226.12,-189.2 680.34,-90.54 547.66,-1163.95 -170.13,-1376.39 -1185.1,-1350.4 -1333.47,29.86 -110.82,1030.99 283.07,925.15 550.47,1134.09 24.08,629.82 -30.76,1486.55 -104.51,2104.17 -42.95,359.6 -287.28,1779.81 234.77,1758.66 489.9,-19.85 254.62,-1412.69 208.04,-1782.66 -74.73,-593.55 -125.59,-1472.87 -102.96,-2080.17z"/>
   <path class="fil15" d="M6398.83 29526.84c0.45,915.98 444.98,973.02 566.02,392.35 96.3,-461.95 -20.85,-1068.36 -71.26,-1535.47 -54.98,-509.69 -73.39,-1049.78 -83.26,-1568.91 -9.37,-492.86 -20.25,-320.59 150.33,-677.71 129.17,-270.42 145.9,-432.46 145.9,-758.07 0,-265.12 -30.87,-1081.27 -159.82,-1245.3 -34.92,346.7 -28.17,306.32 -20.02,660.37 1.18,51.13 4.89,110.67 3.32,160.84l-56.94 125.52c-59.12,-206.69 22,-797.9 -86.2,-934.28 -95.81,185.47 26.15,795.38 -79.76,977.55 -143.42,-130.14 15.83,-794.37 -100.33,-986.89 -75.65,232.64 -3.78,840.55 -91.28,991.38 -65.53,-77.03 -41.45,-134.15 -41.65,-307.55l-1.6 -686.92c-117.04,96.37 -309.01,1397.75 -52.7,1957.74 133.09,290.79 185.7,200.11 174.34,590.3 -14.19,486.98 -24.02,962.36 -61.37,1443.63 -36.01,463.95 -133.96,937.51 -133.74,1401.42z"/>
   <path class="fil15" d="M15507.13 23907.18c-221.53,42.3 -264.12,375.92 -295.42,621.24 -35.79,280.47 -45.45,564.9 -45.51,850.59 -0.35,1710.37 179.38,1185.06 226.09,1573.74 133,1106.8 -448.52,2843.62 -59.54,3253.64 235.01,247.72 428.03,-65.58 475.19,-298.63 53.56,-264.7 8.42,-575.61 -33.15,-836.25 -228.28,-1431.59 -135.02,-2908.52 -155.56,-4357.19 -3.25,-229.12 60.09,-689.21 -112.1,-807.14z"/>
  </g>
  <path class="fil15" d="M30918.87 15056.26c271.67,-66.66 1785.1,-14.92 2193.77,-14.92 2701.74,0 2507.25,-243.55 2507.25,813.16 0,710.11 29.18,2160.94 0.58,2788.76 -8.4,184.15 -51.88,276.37 -227.52,313.29 -152.82,32.12 -2927.24,9.56 -3336.29,9.56 -1485.43,0 -1382.76,158.05 -1382.76,-823.45l0 -2229.5c0,-501.09 -86.05,-775.68 244.97,-856.91zm5639.24 154.41c29.86,656.15 56.76,3125.72 -6.55,3583.56 -327.97,94.87 -260.79,-190.47 -260.79,-446.22 0,-462.92 -40.81,-2856.16 39.22,-3155.19l228.12 17.85zm-6557.95 -1185.96c-215.52,105.48 -155.84,418.27 -155.82,685.71l0 4194.96c0,1108.17 -106.47,1099.71 569.66,1100.6l6687.94 2.65c180.47,-18.12 112.84,-289.78 112.82,-692.55 -0.04,-1632.15 -23.66,-3406.39 0.47,-5016.76 2.84,-189.47 55.23,-282.99 -109.21,-301.96 -98.53,-11.36 -331.08,2.37 -444.12,2.61 -699,1.47 -6523.61,-42.86 -6661.74,24.73z"/>
  <path class="fil17" d="M30918.87 15056.26c-331.02,81.23 -244.97,355.81 -244.97,856.91l0 2229.5c0,981.5 -102.67,823.45 1382.76,823.45 409.05,0 3183.46,22.56 3336.29,-9.56 175.64,-36.92 219.13,-129.14 227.52,-313.29 28.61,-627.83 -0.58,-2078.65 -0.58,-2788.76 0,-1056.71 194.49,-813.16 -2507.25,-813.16 -408.67,0 -1922.1,-51.74 -2193.77,14.92z"/>
  <path class="fil15" d="M37721.03 17819.97c-8.47,-274.41 222.09,-506.11 495.03,-512.24 307.83,-6.9 530.03,215.21 528.65,512 -3.04,651.43 -1003.18,665.37 -1023.68,0.23zm10.36 -1554.78c-52.93,-282.09 175.44,-540.89 424.98,-569.66 323.48,-37.28 567.97,175.21 586.41,453.68 42.96,648.76 -887.02,778.86 -1011.38,115.98zm-377.75 -616.04c0,378.86 -43.02,3314.04 26.67,3476.5 141.71,43.85 1388.48,17.91 1539.29,17.85 310.14,0 270.4,43.85 270.4,-267.45l0 -3754.94c0,-295.09 25.51,-257.15 -269.49,-257.15l-1411.16 -6.21c-237.65,5.67 -155.72,129.42 -155.72,791.39z"/>
  <path class="fil15" d="M37364.98 19991.6c199.69,46.66 984.83,14.16 1262.25,14.54 216.03,0.31 423.53,21.32 514.7,-116.55 83.25,-125.9 69.73,-454.69 27.46,-586.79 -127.07,-40.74 -1626.2,-45.27 -1789.42,-1.98 -48.22,143.04 -36.49,531.9 -14.99,690.77z"/>
  <path class="fil15" d="M39176.62 14705.27c115.69,-798.6 -190.54,-703.86 -549.42,-705.06 -268.68,-0.89 -1039.24,-32.37 -1251.36,16.7 -32.48,106.92 -45.88,523.62 -15.77,635.11 28.81,106.6 73.9,76.43 208.8,72.65 107.53,-3.01 217.23,-0.96 325.01,-0.96 285.21,-0.02 1055.18,34.87 1282.75,-18.43z"/>
  <path class="fil16" d="M36329.99 15192.82c-80.03,299.03 -39.22,2692.27 -39.22,3155.19 0,255.75 -67.19,541.08 260.79,446.22 63.31,-457.83 36.41,-2927.41 6.55,-3583.56l-228.12 -17.85z"/>
  <path class="fil16" d="M37721.03 17819.97c20.5,665.13 1020.64,651.19 1023.68,-0.23 1.38,-296.79 -220.82,-518.91 -528.65,-512 -272.94,6.12 -503.5,237.82 -495.03,512.24z"/>
  <path class="fil16" d="M37731.4 16265.19c124.37,662.88 1054.34,532.78 1011.38,-115.98 -18.43,-278.46 -262.92,-490.95 -586.41,-453.68 -249.53,28.76 -477.91,287.56 -424.98,569.66z"/>
  <g id="_2102902172208">
   <path class="fil16" d="M21224.79 19501.1l4183.29 9.74c-118.63,-506.34 566.55,-494.08 445.91,-0.13l385.21 -1.96c-143.9,-494.81 596.42,-468.49 445.95,-6.18l525.88 9.03c0,-1040.74 134.81,-1891.46 -467.48,-2533.78 -196.48,-209.53 -583.92,-443.4 -1007.19,-489.84 -436.03,-47.85 -1066.68,-11.84 -1523.11,-11.84 -1046.28,0 -1889.34,-139.3 -2508.83,498.09 -629.47,647.67 -479.64,1468.74 -479.64,2526.86z"/>
   <path class="fil16" d="M22719.77 15825.19l0 312.36 334.35 10.5c0.67,-177.34 37.63,-436.63 -24.39,-584.72 -72.79,-129.61 -405.02,-49.11 -284.31,-366.44 63.86,-167.9 262.16,-203.16 460.45,-251.12 410.98,-99.43 852.46,-149.4 1292.02,-118.13 303.27,21.57 1366.92,115.92 1201.28,551.72 -75.96,199.84 -444.17,-108.37 -309.36,767.34l315.53 0 12.24 -321.49c60.5,-136.5 338.68,-144.23 328.97,-533.48 -6.95,-278.4 -174.96,-460.97 -346.2,-547.47 -669.59,-338.25 -2351.17,-334.66 -2972.34,2.47 -402.55,218.47 -445.57,776.11 -134.66,970.93 74.67,46.79 90.08,28.91 126.41,107.52z"/>
   <path class="fil16" d="M27377.27 18279.24l326.84 21.23 4.18 311.23 -324.35 15.47 -9.63 332.3c670.97,0.06 713.17,152.87 669.76,-797.77 -11.8,-258.45 -250.54,-224.51 -676.07,-197.59l9.26 315.14z"/>
  </g>
  <g id="_2102902105136">
   <polygon class="fil15" points="22412.61,30541.47 26964.23,30544.86 27073.1,30524.45 27073.11,30084.73 26967.48,30073.75 22542.76,30073.7 22412.65,30074.23 "/>
   <g>
    <path class="fil15" d="M24601.68 25770.25c317.67,-92.24 575.69,98.02 663.01,318.67 75.32,190.29 47.36,1747.44 43.46,2062.47 -9.32,753.69 -881.71,780.07 -1086.45,274.39 -74.51,-184.04 -46.02,-1741.71 -42.8,-2051.97 3.53,-341.7 146.09,-523.23 422.78,-603.57zm3323.65 1144.82c-58.31,521.16 -534.66,1162.16 -799.02,1312.84 -30.01,-401.84 -31.93,-787.45 -74.81,-1189.08 -40.68,-381.07 -117.52,-727.53 -173.06,-1086.59 667.6,-231.65 1122.08,290.74 1046.89,962.83zm-1362.07 -2038.52l-4470.91 -0.06c40.56,222.76 282.89,758.07 377.96,999.79 115.4,293.43 107.08,214.88 51.74,537.75 -193.09,1126.34 -167.73,2022.47 -98.64,3160.8l4638.05 -1.34c11.56,-146.03 18.66,-302.34 32.32,-444.69 18.39,-191.51 -2.09,-104.48 211.57,-276.21 514,-413.13 1007.21,-951.08 1165.09,-1661.28 134.22,-603.77 -17.1,-1096.68 -322.46,-1458.91 -323.17,-383.36 -773.8,-479.87 -1415.99,-357.56l-168.73 -498.28z"/>
    <path class="fil15" d="M24405.28 23698.44c-167.07,100.83 -357.9,70.41 -774.72,366.45 -158.58,112.61 -505.61,428.52 -563.97,583.35l3348.87 0.93c-42.84,-201.76 -592.42,-637.63 -908.13,-788.28 -107.93,-51.51 -364.79,-119.65 -426.98,-162.44 212.13,-731.76 -878.78,-747.14 -675.08,0z"/>
    <path class="fil15" d="M24389.64 26594.19c35.92,131.55 108.46,84.48 498.94,84.48 183.36,0 183.8,39.51 208.29,-101.49 -99.62,-46.82 -641.13,-78.98 -707.23,17.01z"/>
    <path class="fil15" d="M24389.87 27059.23c111.36,102.56 553.82,40.28 708.55,34.58 -23.7,-114.96 0.99,-107.91 -116.79,-118.24 -127.68,-11.22 -578.61,-34.88 -591.76,83.66z"/>
    <path class="fil15" d="M24400.35 26168.88c-13.7,126.64 334.02,81.66 548.37,81.66 132.36,0 119.17,13.5 143.45,-85.78 -76.22,-60.23 -486.27,-67.87 -595.49,-42.84 -107.47,24.64 -39.03,-1.13 -96.34,46.95z"/>
    <path class="fil15" d="M24389.64 28308.83c32.59,117.79 79.8,84.45 348.55,84.18 382.51,-0.38 334.38,37.45 358.1,-100.96 -151.09,-33.08 -648.9,-67.2 -706.65,16.78z"/>
    <path class="fil15" d="M24400.35 27883.4c-11.61,117.21 185.95,80.62 307.71,80.12 343.1,-1.44 351.83,42.23 384.06,-84.33 -91.76,-71.04 -593.65,-77.37 -691.77,4.22z"/>
    <path class="fil15" d="M24392.01 27458.1c59.47,126.88 219.86,76.74 376.36,77.14 173.34,0.44 306.51,51.15 322.4,-101.7 -101.33,-40.28 -218.94,-26 -352.56,-26.12 -58.98,-0.06 -124.84,-3.4 -182.39,-2.17 -185.41,3.99 -95.2,18.75 -163.81,52.86z"/>
   </g>
  </g>
  <g id="_2102902111984">
   <path class="fil16" d="M36296.4 29101.51c1.33,-20.5 35.83,-83.75 46.98,-107.62 53.4,-114.41 87.48,-210.19 127.08,-332.17 25.93,-79.86 44.69,-160.27 62.15,-245.36 8.54,-41.63 16.21,-85.88 23.32,-127.65 7.7,-45.22 9.5,-95.01 18.65,-138.07 60.15,-10.53 190.78,-1.1 246.25,19.05 228.67,83.09 284.97,327.43 186.68,552.47 -13.89,31.81 -29.27,63.58 -46.19,88.32 -57.1,83.51 -116.95,148.93 -212.39,203.44 -123.26,70.38 -283.56,114.63 -452.53,87.59zm127.07 -1410.23c-90.97,0.08 -181.96,0 -272.94,0 -543.45,0 -1096.74,4.91 -1637.64,0.22 -362.75,-3.15 -727.8,1.61 -1091.76,-0.04l-1360.37 -0.18c-62.27,0 -215.3,-10.08 -259.77,13.81 -71.46,38.39 -65.24,109.97 -63.52,207.83 1.49,85.31 3.55,173.41 14.22,256.62 35.82,278.94 111.6,604.13 239.35,848.61 74.84,143.23 105.31,209.58 199.2,346.58 113.34,165.36 133.88,176.23 243.1,302.74 144.37,167.22 380.73,342.91 569.86,452.78 39.56,22.97 33.81,15.74 34.12,27.7l-1295.95 1.75c-21.12,61.86 37.19,196.2 94.77,253.66 44.8,44.69 33.87,42.72 98.32,79.25 98.63,55.9 191.98,46.28 303.93,46.28l3855.82 0c169.78,0 265.55,7.51 396.15,-127.23 52.74,-54.41 110.09,-181.04 92.92,-253.63l-1295.75 -2.14c-1.82,-10.26 12.04,-13.71 25.31,-20.66 94.73,-49.58 291.75,-189.3 369.17,-259.01l51.1 -44.17c29.71,-23.44 118.1,-112.28 146.76,-143.6l70.79 -76.38c8.44,-10.5 11.37,-14.23 21.66,-26.03 55.88,-63.99 79.16,-103.25 124.79,-159.6 16.33,0.03 143.18,31.47 202.1,36.29 261.53,21.34 539.53,-52.9 735.17,-214.1l94.95 -86.93c87.63,-87.88 155.87,-183.7 208.93,-319.53 106.2,-271.81 71.87,-548.69 -51.83,-781.55 -37.64,-70.87 -98.01,-153.2 -154.15,-205.34 -21.08,-19.58 -41.23,-30.73 -77.39,-39.58 -41.74,-10.22 -387.83,-1.01 -468.3,-4.18 -15.42,-97.35 -83.55,-110.31 -163.15,-110.24z"/>
   <path class="fil16" d="M35052.6 24667.24c-1.99,35.48 25.39,150.35 32.92,194.71 57.7,340.02 -65.92,616.4 -213.96,905.51 -89.84,175.43 -155.35,279.75 -245.78,438.78 -28.45,50.04 -55.6,91.86 -82.15,147.3 -112.71,235.33 -56.18,510.59 68.72,723.44 42.56,72.5 149.24,215.49 213.7,246.24 55.58,26.51 -17.21,-87.11 -37.06,-128.32 -160,-332.15 -113.73,-582.46 83.22,-872.2l91.98 -137.67c97.25,-141.19 196.02,-249.74 261.25,-423.2 93.65,-249.05 53.87,-531.67 -24.08,-781.5 -30.05,-96.3 -53.87,-158.77 -96.55,-245.72 -7.27,-14.79 -11.87,-23.11 -20.29,-35.99 -17.93,-27.41 -15.9,-27.1 -31.92,-31.36z"/>
   <path class="fil16" d="M33967.48 27324.73c7.74,-19.45 -50.18,-114.38 -67.05,-151 -23.42,-50.85 -44.92,-106.44 -60.04,-165.43 -71.16,-277.58 13.99,-474.51 159.86,-695.53 203.73,-308.68 444.2,-538.45 398.58,-958.8 -22.2,-204.63 -86.75,-477.33 -192.54,-656.78 -18.62,-31.59 -17.34,-27.6 -32.9,-29.33 2.84,79.65 56.43,204.82 46.99,411.23 -15.98,348.95 -230.06,702.8 -391.11,989.14 -121.38,215.79 -259.77,360.61 -213.42,692.4 23.09,165.33 120,342.4 225.06,463.86 14.58,16.86 96.79,110.32 126.58,100.24z"/>
  </g>
 </g>
</svg>
