<?xml version="1.0" encoding="UTF-8"?>
<!DOCTYPE svg PUBLIC "-//W3C//DTD SVG 1.1//EN" "http://www.w3.org/Graphics/SVG/1.1/DTD/svg11.dtd">
<!-- Creator: CorelDRAW 2018 (64-Bit Evaluation Version) -->
<svg xmlns="http://www.w3.org/2000/svg" xml:space="preserve" width="440.267mm" height="321.733mm" version="1.1" style="shape-rendering:geometricPrecision; text-rendering:geometricPrecision; image-rendering:optimizeQuality; fill-rule:evenodd; clip-rule:evenodd"
viewBox="0 0 44026.66 32173.34"
 xmlns:xlink="http://www.w3.org/1999/xlink">
 <defs>
  <style type="text/css">
   <![CDATA[
    .str2 {stroke:white;stroke-width:169.33;stroke-miterlimit:22.9256;stroke-opacity:0.15}
    .str3 {stroke:#3B9CFF;stroke-width:83.14;stroke-miterlimit:22.9256;stroke-opacity:0.36}
    .str1 {stroke:#3B9CFF;stroke-width:155.96;stroke-miterlimit:22.9256;stroke-opacity:0.529412}
    .str0 {stroke:#3B9CFF;stroke-width:155.96;stroke-miterlimit:22.9256;stroke-opacity:0.529412}
    .fil16 {fill:none}
    .fil5 {fill:none}
    .fil24 {fill:#00335A}
    .fil19 {fill:#1546A3}
    .fil20 {fill:#ACD263}
    .fil3 {fill:#BCEBFF}
    .fil25 {fill:#C4003E}
    .fil22 {fill:white}
    .fil21 {fill:white}
    .fil23 {fill:black}
    .fil18 {fill:#3B9CFF;fill-opacity:0.129412}
    .fil9 {fill:#00C2FF;fill-opacity:0.15}
    .fil8 {fill:#3B9CFF;fill-opacity:0.15}
    .fil11 {fill:#3B9CFF;fill-opacity:0.258824}
    .fil12 {fill:#99D2FF;fill-opacity:0.258824}
    .fil14 {fill:#99E7FF;fill-opacity:0.258824}
    .fil15 {fill:#F4F4F4;fill-opacity:0.258824}
    .fil13 {fill:#F8E5C8;fill-opacity:0.258824}
    .fil10 {fill:white;fill-opacity:0.258824}
    .fil4 {fill:#3B9CFF;fill-opacity:0.33}
    .fil7 {fill:#99D2FF;fill-opacity:0.36}
    .fil0 {fill:#D8F6FF;fill-opacity:0.36}
    .fil17 {fill:#3B9CFF;fill-opacity:0.619608}
    .fil2 {fill:#D8F6FF;fill-opacity:0.701961}
    .fil1 {fill:white;fill-opacity:0.701961}
    .fil6 {fill:white;fill-opacity:0.811765}
   ]]>
  </style>
 </defs>
 <g id="Layer_x0020_1">
  <metadata id="CorelCorpID_0Corel-Layer"/>
  <g id="_2574163628816">
   <polygon class="fil0" points="-0,0 44026.66,0 44026.66,32173.34 -0,32173.34 "/>
   <path class="fil1" d="M24507.37 2828.16l14675.56 0c737.31,0 1340.56,603.25 1340.56,1340.56l0 18203.34c0,737.31 -603.25,1340.56 -1340.56,1340.56l-14675.56 0c-737.31,0 -1340.56,-603.25 -1340.56,-1340.56l0 -18203.34c0,-737.31 603.25,-1340.56 1340.56,-1340.56z"/>
   <path class="fil1" d="M24155.99 24968.9l15063.64 0c649.99,0 1181.8,531.81 1181.8,1181.8l0 3439.59c0,649.99 -531.81,1181.8 -1181.8,1181.8l-15063.64 0c-649.99,0 -1181.8,-531.81 -1181.8,-1181.8l0 -3439.59c0,-649.99 531.81,-1181.8 1181.8,-1181.8z"/>
   <path class="fil2" d="M4746.46 1633.78l15666.55 0c488.22,0 887.67,399.44 887.67,887.66l0 3606.02c0,488.22 -399.45,887.66 -887.67,887.66l-15666.55 0c-488.21,0 -887.65,-399.44 -887.65,-887.66l0 -3606.02c0,-488.22 399.44,-887.66 887.65,-887.66z"/>
   <path class="fil3" d="M26170.55 27539.42l17.54 -0.99 -6.28 19.04c15,-8.63 45.39,-36.31 51.42,-53.31 -18.56,8.87 -48.1,21.1 -62.68,35.26z"/>
   <path class="fil3" d="M24787.92 28126.97c-8.95,-11.11 5.26,6.63 0.89,-15.99 -17.57,8.43 -33.16,27.63 -40.04,39.67 10.71,-2.72 7.62,-1.16 18.55,-6.91 0.65,-0.35 9.39,-5.49 10.68,-6.51 7.64,-6.05 4.35,-3.82 9.92,-10.26z"/>
   <path class="fil4" d="M28146.97 26916.18l10792.45 0c53.93,0 98.03,44.1 98.03,98.02l0 0.02c0,53.92 -44.1,98.02 -98.03,98.02l-10792.45 0c-53.91,0 -98.01,-44.1 -98.01,-98.02l0 -0.02c0,-53.92 44.1,-98.02 98.01,-98.02z"/>
   <path class="fil4" d="M28146.97 27770.65l10792.45 0c53.93,0 98.03,44.1 98.03,98.02l0 0.02c0,53.92 -44.1,98.02 -98.03,98.02l-10792.45 0c-53.91,0 -98.01,-44.1 -98.01,-98.02l0 -0.02c0,-53.92 44.1,-98.02 98.01,-98.02z"/>
   <path class="fil4" d="M28146.97 28625.12l10792.45 0c53.93,0 98.03,44.1 98.03,98.02l0 0.02c0,53.92 -44.1,98.02 -98.03,98.02l-10792.45 0c-53.91,0 -98.01,-44.1 -98.01,-98.02l0 -0.02c0,-53.92 44.1,-98.02 98.01,-98.02z"/>
   <path class="fil5 str0" d="M24914.81 22113.72l112.55 374.34 -416.93 -14.72c-53.23,19.99 -110.9,30.96 -171.18,30.96 -267.37,0 -484.12,-215.3 -484.12,-480.88 0,-265.58 216.75,-480.88 484.12,-480.88 267.38,0 484.13,215.3 484.13,480.88 0,30.87 -2.97,61.05 -8.57,90.3z"/>
   <polygon class="fil5 str1" points="38441.01,21641.68 39150.77,21643.92 39150.78,22400.99 38812.86,22097.19 38439.28,22405.15 "/>
   <path class="fil6" d="M5057.14 8970.42l15344.99 0c562.92,0 1023.48,460.56 1023.48,1023.48l0 16368.05c0,562.92 -460.56,1023.48 -1023.48,1023.48l-15344.99 0c-562.92,0 -1023.48,-460.56 -1023.48,-1023.48l0 -16368.05c0,-562.92 460.56,-1023.48 1023.48,-1023.48z"/>
   <path class="fil7" d="M5245.96 24477.64l14937.65 0c106.73,0 194.04,87.31 194.04,194.03l0 0c0,106.72 -87.31,194.03 -194.04,194.03l-14937.65 0c-106.72,0 -194.02,-87.31 -194.02,-194.03l0 0c0,-106.72 87.3,-194.03 194.02,-194.03z"/>
   <path class="fil7" d="M5199.38 25677.08l6156.82 0c106.72,0 194.03,87.31 194.03,194.03l0 0c0,106.72 -87.31,194.03 -194.03,194.03l-6156.82 0c-106.72,0 -194.03,-87.31 -194.03,-194.03l0 0c0,-106.72 87.31,-194.03 194.03,-194.03z"/>
   <path class="fil8 str2" d="M34504.49 4435.52c-112.41,179.7 -269.07,342.24 -370.62,593.47 -220.16,264.93 -403.27,795.91 -636.81,1114.89 -227.26,310.4 -554.27,611.17 -1132.96,649.39 -1200.01,79.25 -1364.96,-1010.34 -1771.24,-1785.01 -97.07,-244.66 -291.64,-385.49 -383.64,-566.66 -400.9,-146.28 -629.57,-265.51 -1163.96,-208.52 -227.68,24.28 -589.94,126.29 -784.21,250.82 -154.51,99.03 -116.84,38.45 -171.19,205.54 345.8,182.69 216.29,1104.03 376.7,1621.15 461.71,1488.41 -141.14,1310.69 631.86,3254.03 239.38,601.79 563.58,1303.59 570.73,2028.26 6.79,689.2 -419.52,1135.59 -804.13,1790.19 -587.3,999.58 -1234.18,2473.84 -1604.08,3578.67 -283.74,847.5 -988.65,3352.8 -925.72,4276.75 1390.34,-285.95 2740.08,246.75 3972.03,765.91 232.7,98.06 192.89,26.7 149.68,91.23 141.31,114.84 824.93,214.87 1044.74,242.43 475.98,59.69 824.35,-43.7 1252.71,-5.98 -76.15,-157.71 -57.71,-71.18 129.6,-157.7 102.8,-47.48 202.46,-74.63 300.25,-119.24 1206.63,-550.41 1569.24,-1645.38 3888.96,-553.12 185.4,87.3 173.38,42.4 211.03,201.03 50.92,-57.62 73.59,-51.91 74.83,-258.08l-95.7 -924.19c-247.71,-2308.45 -878.42,-5539.99 -2005.16,-7418.1 -321.17,-535.34 -898.13,-958.2 -724.43,-1836.18 199.32,-1007.44 859.28,-1761.47 1007.45,-3023.62 63.26,-538.82 -63.21,-710.8 181.13,-1170.46 186.63,-418.08 673.49,-2074.73 1046.42,-2169.57 -426.24,-895.46 -1358.46,-833.04 -2264.27,-467.33z"/>
   <path class="fil9" d="M31955.09 5630.43l584.76 -5.88 -5.8 442.25 -585.43 -19.49 6.47 -416.88zm1976.12 -585.7c-108.62,124.14 -212.26,155.25 -377.69,225.73 -135.97,57.93 -225.27,91.34 -376.96,140.92 -249.62,81.57 -558.63,157.8 -866.22,161.5 -447.69,5.38 -1166.14,-183.27 -1509.91,-466.82l3130.78 -61.33zm202.66 -15.74c-942.07,-94.01 -2589.01,-102.43 -3541.01,-20.73 406.28,774.67 571.23,1864.26 1771.24,1785.01 578.69,-38.22 905.7,-338.99 1132.96,-649.39 233.54,-318.98 416.65,-849.96 636.81,-1114.89z"/>
   <path class="fil9" d="M32754.38 22332.08c984.28,78.19 1469.73,318.29 2298.98,-168.46 278.93,-163.73 613.21,-295.53 984.61,-360.91 319.52,-56.25 1042.42,-17.52 1246.25,-99.66 -37.65,-158.63 -25.63,-113.73 -211.03,-201.03 -2319.72,-1092.26 -2682.33,2.71 -3888.96,553.12 -97.79,44.61 -197.45,71.76 -300.25,119.24 -187.31,86.52 -205.75,-0.01 -129.6,157.7z"/>
   <path class="fil9" d="M26335.22 21238.49c51.24,385.22 398.96,408.43 791.65,439.16 403.42,31.58 789.15,50.56 1189.99,91.17 543.86,55.11 1747.53,353.92 2140.07,326.81 43.21,-64.53 83.02,6.83 -149.68,-91.23 -1231.95,-519.16 -2581.69,-1051.86 -3972.03,-765.91z"/>
   <path class="fil9" d="M33931.21 5044.73l-3130.78 61.33c343.77,283.55 1062.22,472.2 1509.91,466.82 307.59,-3.7 616.6,-79.93 866.22,-161.5 151.69,-49.58 240.99,-82.99 376.96,-140.92 165.43,-70.48 269.07,-101.59 377.69,-225.73z"/>
   <polygon class="fil9" points="31948.62,6047.31 32534.05,6066.8 32539.85,5624.55 31955.09,5630.43 "/>
   <path class="fil10" d="M7295.77 16915.15c342.44,580.41 385,510.05 356.72,1187.89l-72.65 54.77 37.63 1194.9c9.06,84.74 56.77,311.87 -35.39,297.57 -72.63,67.19 -93.39,84.7 -201.21,47.89l-361.37 -2582.85c-36.38,-259.47 -165,-663.85 -170.95,-836.4l447.22 636.23zm10638.55 2085.66c-31.15,-375.77 27.57,-1042.24 69.95,-1426.1 34.15,-309.3 97.55,-719.89 6.85,-1004.52 -43.79,-137.4 -89.99,-155.24 -146.56,-242.45l-150.64 -4.88c56.03,-82.68 1096.29,-902.94 1189.62,-945.19 -37.36,245.66 -178.56,599.63 -245.96,876.72 -197.56,812.15 -271.95,1823.52 -329.02,2669.7 -25.43,376.9 12.07,307.63 -177.66,296 -103.4,-6.34 -110.05,8.81 -205.49,-24.75l-11.09 -194.53zm-9900.17 -2869.48l369.66 1722.88c140.61,409.65 139.19,527.47 385.27,844.82 144.06,185.78 442.84,454.85 653.27,578.67 339.13,199.54 491.1,269.04 993.13,204.46 334.31,-43 734.21,-136.47 1032.63,-226.62 429.17,-129.66 738.89,-280.26 980.74,-80.77 502.48,414.46 866.88,607.76 1255.5,907.54 93.84,72.38 81.42,105.22 170.94,157.46 208.78,121.82 524.68,388.25 553.94,711.48 -64.77,74.09 -101.59,117.57 -206.01,168.23 -270.04,196.28 -938.51,169.76 -1318.79,159.08 -122.26,38.07 -2327.05,176.24 -2533.31,161.7 -435.39,-30.69 -775.42,-42.12 -1067.29,-270.85 -208.29,-163.23 -444.69,-539.61 -473.84,-909.93 -119.18,-729.82 -689.81,-1794.7 -990.7,-2555.1 -253.67,-641.08 -298.25,-622.59 -655.47,-1124.35 -100.97,-141.83 -633.67,-979.51 -666.91,-1137.14 -235.65,-356.27 -25.77,-1072.31 -19.67,-1231.78 7.48,-194.99 6.9,-209.23 75.61,-372.19 105.35,-249.83 433.25,-1089.91 594.03,-1207.08 213.55,284.61 801.72,2960.28 867.27,3499.49zm10934.57 -1031.14c-181.99,254.46 -116.52,145.34 -419.57,417.25l-492.82 384.93c-93.05,70.62 -161.48,116.62 -249.81,187.85 -258.12,208.11 -455.83,355.94 -662.94,641.97 -72.77,136.63 -199.76,341.52 -290.9,458.09 -119.52,152.83 -91.17,212.21 -265.32,501.4 -195.82,325.16 -365.96,630.84 -553.5,980.08 -431.28,803.12 -584.9,1245.85 -1694.6,1344.56 -25.49,2.35 -88.49,12.56 -108.32,12.62 -1.67,0.01 -43.06,0.49 -52.5,-1.19 -67.92,-12.08 -24.31,1.25 -63.57,-30.45 -42.1,71.22 -157.82,84.85 -238.26,100.5l-623.31 -440.72c-229.99,-155.77 -435.31,-289.45 -646.91,-448.47 -104.34,-78.4 -173.6,-155.12 -297.36,-222.74l-788.3 -581.29c-82.07,-74.9 -94.47,-69.53 -106.2,-164.61l1366.62 -306.27c63.24,21.61 74.84,184.5 422.46,348.47 567.91,267.87 1034.56,222.8 1556.28,-61.34 91.37,-49.77 162.5,-110.62 257.61,-145.81l337.09 -274.53c84.73,-67.11 214.15,-246.52 316.17,-276.35 47.2,-127.35 214.34,-205.03 419.15,-549.41 679.75,-1142.96 343.33,-1695.84 1469.81,-3240.46 273.13,-374.51 478.7,-730.86 726.14,-1127.88 287.34,104.44 485.14,916.24 556.33,1136.59 144.63,447.57 363.38,864.13 126.53,1357.21zm-1412.24 -1537.44c-70.65,130.87 -206.89,292.15 -303.76,412.34 -126.07,156.42 -168.63,262.02 -270.64,424.2l-268.25 627.03c-153.72,424.62 -378.92,1262.22 -559.26,1630.5 -51.07,104.29 -134.04,185.31 -159.1,270.56 -27.1,98.31 -135.52,248.17 -227.95,318.66 -72.97,71.65 -131.67,144.28 -204.31,215.71l-454.01 422.73c-289.57,230 -536.48,349.58 -922.03,446.6 -285.43,71.83 -491.32,8.3 -750.02,-58.15 -260.7,-84.42 -422.85,-190.52 -535.45,-355.86l645.18 -119.03c499.56,-163.4 914.06,-358.92 1242.54,-726.48 56.11,-62.79 114.02,-90.01 168.53,-159.79 45.33,-58.03 94.3,-151.25 147.4,-186.65l1560.09 -2570.44c334.52,-541.11 325.09,-447.71 707.59,-935.89 117.66,-150.18 205.28,-324.24 332.53,-461.62 49.96,-95.2 145.89,-156.89 227.14,-211.13 134.15,-89.55 156.11,-95.01 295.73,-30.25 -53.46,215.86 -355.88,606.37 -504.56,808.43 -55.63,75.59 -113.45,180.65 -167.39,238.53zm-5643.97 5220.5c80.2,48.71 189.19,125.04 256.07,188.54l-141.12 12.19 -550.97 135.32c-429.67,172.34 -1380.26,400.56 -1868.03,130.12 -538.68,-298.67 -870.45,-661.4 -1022.36,-1277 -68.03,-275.7 -295.66,-1019.26 -285.59,-1245.4 -67.29,-78.69 -78.06,-249.49 -106.52,-366 -33.14,-135.71 -69.05,-250.33 -91.63,-394 -88,-280.36 -139.89,-724.54 -204.77,-1029.15 -51.13,-240 -231,-883.77 -224.72,-1066.83 -74.49,-76.4 -179.79,-540.01 -224.17,-679.83 -170.48,-537.01 -319.67,-635.91 -101.58,-742.16 493.54,-240.44 946.87,957.96 1157.15,1358.55l1038.29 1755.91c200.1,304.75 383.78,481.41 575.49,821.61 91.62,162.58 155.71,315.77 252.07,458.5 97.2,143.99 174.79,254.21 264.51,420.96 166.39,309.25 340.44,596.69 516.47,879.84 158.77,255.39 522.25,571.62 761.41,638.83zm-4675.95 759.42c50.49,23.29 48.02,233.17 74,301.8l27.99 24.27c235.51,16.29 309.73,14.46 510.83,-66.58 76.71,-509.36 -148.92,-1446.15 -120.67,-2045.73 84.54,178.03 166.41,347.39 248.57,549.66 222.1,546.83 553.44,1120.39 680.96,1700.88 70.94,322.87 60.01,812.69 448.28,1168.52 802.91,735.82 3160.08,470.57 4167.53,404.73 247.37,-16.17 505.24,-27.42 719.72,-100.09 448.16,-151.84 573.12,-283.49 513.67,-638.01 -48.14,-287.08 -408.67,-486.86 -514.29,-650.75 183.52,-54.39 311.28,-47.96 502.88,-74.22 156.63,-21.47 300.25,-81.45 444.56,-93.9l302.35 -140.24 -1.94 -1.95 93.31 -54.21 31.14 -8.65c49.12,-99.53 103.87,-142.43 190.54,-181.54 21.63,-65.22 -40.36,-33.17 49.67,-54.88l76.23 -113.45c57.79,-119.51 173.84,-265.44 252.96,-402.7 374.64,-649.99 1032.32,-2004.24 1461.61,-2426.87 112.78,-111.03 156.63,-233.46 430.87,-207.18 201.81,317.83 81.3,895.4 33.38,1296.12 -52.21,436.45 -38.87,1007.94 -39.72,1455.09 -351.68,228.97 406.01,374.04 522.86,205.12 90.8,-131.25 319.97,-2549.53 368.94,-2906.92 17.07,-98.15 0.25,-90.25 48.44,-154 -8.15,-113.07 215.81,-979.02 281.29,-1166.09 40.92,-116.9 98.47,-180.99 126.2,-336.23 72.78,-407.46 -231.4,-1129.38 -343.04,-1505.89 -98.3,-331.55 -158.19,-414.63 -323.53,-635.4 -609.05,-813.19 -935.44,306.54 -1668.71,1064.15l-557.39 866.87c-119.51,198.25 -239.23,395.79 -364.28,594.31 -366.38,581.61 -644.28,1252.66 -1100.92,1719.81 -227.22,232.46 -868.89,708.09 -1158.62,724.61 -58.56,61.77 -61.08,49.47 -158.74,74 -133.87,40.85 -429.67,92.3 -576.11,96.97 -303.93,9.71 -44.86,9.77 -244.79,37.45 -98.58,13.64 -187.06,10.87 -294.92,33.42 -158.5,33.15 -352.64,88.75 -521.47,131.76 -170.03,43.33 -370.58,83.83 -526.55,132.33l-1380.99 -2234.95c-88.73,-108.62 -183.91,-209.39 -265.71,-337.02 -389.28,-607.36 -760.1,-1212.26 -1111.48,-1846.32 -197.19,-355.81 -200.99,-476.66 -274.93,-628.97 -124.04,-255.5 -409.47,-703.67 -687.13,-791.88 -657.7,-208.95 -867.85,1088.3 -1042.51,1296.5 -58.37,69.59 -17.69,-23.52 -73.78,86.24 -118.59,232.09 -156.9,596.75 -194.05,847.67 -52.15,352.26 2.22,740.35 132.44,1028.96 68.08,150.87 155.6,251.67 223.24,379.11 166.19,313.11 394.33,2099.25 451.35,2533.36 34.08,259.51 147.11,832.04 130.46,1050.91z"/>
   <path class="fil11" d="M14223.22 21119.48c104.42,-50.66 141.24,-94.14 206.01,-168.23 -29.26,-323.23 -345.16,-589.66 -553.94,-711.48 -89.52,-52.24 -77.1,-85.08 -170.94,-157.46 -388.62,-299.78 -753.02,-493.08 -1255.5,-907.54 -241.85,-199.49 -551.57,-48.89 -980.74,80.77 -298.42,90.15 -698.32,183.62 -1032.63,226.62 -502.03,64.58 -654,-4.92 -993.13,-204.46 -210.43,-123.82 -509.21,-392.89 -653.27,-578.67 -246.08,-317.35 -244.66,-435.17 -385.27,-844.82l-119.93 22.96c-70.46,286.71 324.61,822.27 452.03,1012.04 232.34,346.04 371.46,525.92 761.71,716.35l-100.98 70.47c-282.08,166.78 118.95,510.48 192.79,605.12 469.55,601.8 183.56,469.21 1083.16,514.7 235.2,11.9 523.58,8.1 752.11,31.03 528.3,52.99 990.72,227.48 1340.71,279.56 462.85,68.86 1003.69,83.93 1457.81,13.04z"/>
   <path class="fil11" d="M15670.76 17524.14c202.88,3.91 321.78,-193.21 415.24,-306.65 103.26,-125.36 233.85,-254.33 341.28,-370.65 1192.97,-1291.66 1945.42,-1314.21 2541.44,-1746.65 236.85,-493.08 18.1,-909.64 -126.53,-1357.21 -71.19,-220.35 -268.99,-1032.15 -556.33,-1136.59 -247.44,397.02 -453.01,753.37 -726.14,1127.88 -1126.48,1544.62 -790.06,2097.5 -1469.81,3240.46 -204.81,344.38 -371.95,422.06 -419.15,549.41z"/>
   <path class="fil12" d="M7672.87 13871.04l332.17 518.11c115.82,188.47 227.56,413.41 409.76,495.84 201.86,91.33 498.78,511.17 638.47,701.94l372.13 531.74c241.68,334.42 404.23,641.01 602.17,984.11 117.26,203.24 412.98,787.75 481.25,1000.25 32.51,101.18 26.67,34.7 -5.62,62.1 41.08,120.59 140.74,328.73 238.94,394.9l470.73 481.1c72.18,48.8 197.47,39.27 263.62,78.17l550.97 -135.32c-94.41,-55.72 -23.66,17.2 -73.03,-81.34 -19.98,-39.89 -29.83,-70.39 -41.92,-119.39 -239.16,-67.21 -602.64,-383.44 -761.41,-638.83 -176.03,-283.15 -350.08,-570.59 -516.47,-879.84 -89.72,-166.75 -167.31,-276.97 -264.51,-420.96 -96.36,-142.73 -160.45,-295.92 -252.07,-458.5 -191.71,-340.2 -375.39,-516.86 -575.49,-821.61l-1038.29 -1755.91c-210.28,-400.59 -663.61,-1598.99 -1157.15,-1358.55 -218.09,106.25 -68.9,205.15 101.58,742.16 44.38,139.82 149.68,603.43 224.17,679.83z"/>
   <path class="fil11" d="M6516.91 15442.89c120.12,223.61 333.39,269.92 518.04,519.15 186.04,251.09 582.52,1025.41 744.29,1337.12 60.18,115.96 128.27,243.61 195.13,325.08 53.15,64.76 151.67,172.34 237.54,176.29 260.28,11.96 29.06,-360.45 -13.05,-481.75 -106.67,-307.27 -335.88,-1207.01 -390.51,-1525.6 -123.31,-719.08 -425.55,-1355.65 -382.95,-2145.04 31.26,186.3 102.6,394.23 140.12,607.14 114.11,647.49 223.17,1034.5 340.02,1603.5 29.24,142.41 2.04,238.59 128.61,272.55 -65.55,-539.21 -653.72,-3214.88 -867.27,-3499.49 -160.78,117.17 -488.68,957.25 -594.03,1207.08 -68.71,162.96 -68.13,177.2 -75.61,372.19 -6.1,159.47 -215.98,875.51 19.67,1231.78z"/>
   <path class="fil11" d="M14114.87 19997.3c115.56,-107.02 212.54,-332.03 321.14,-458.74 89.01,-103.87 339.48,-247.89 385.01,-381.77 44.5,-130.86 -4.05,-172.15 74.46,-308.25 224.84,-389.81 484.16,-362.13 362.42,-729.89l-240.4 -43.63c-95.11,35.19 -166.24,96.04 -257.61,145.81 -521.72,284.14 -988.37,329.21 -1556.28,61.34 -347.62,-163.97 -359.22,-326.86 -422.46,-348.47l-1366.62 306.27c11.73,95.08 24.13,89.71 106.2,164.61l788.3 581.29c123.76,67.62 193.02,144.34 297.36,222.74 211.6,159.02 416.92,292.7 646.91,448.47l623.31 440.72c80.44,-15.65 196.16,-29.28 238.26,-100.5z"/>
   <path class="fil11" d="M6516.91 15442.89c33.24,157.63 565.94,995.31 666.91,1137.14 357.22,501.76 401.8,483.27 655.47,1124.35 300.89,760.4 871.52,1825.28 990.7,2555.1 167.41,68.09 110.56,210.93 240.27,404.52 49.77,74.29 241.99,226.5 343.16,313.5 535.22,460.28 1651.48,266.64 2244.69,253.97 218.43,-4.66 439.11,-7.49 657.54,-4.69 225.19,2.89 403.32,50.66 588.78,51.78 380.28,10.68 1048.75,37.2 1318.79,-159.08 -454.12,70.89 -994.96,55.82 -1457.81,-13.04 -349.99,-52.08 -812.41,-226.57 -1340.71,-279.56 -228.53,-22.93 -516.91,-19.13 -752.11,-31.03 -899.6,-45.49 -613.61,87.1 -1083.16,-514.7 -73.84,-94.64 -474.87,-438.34 -192.79,-605.12l100.98 -70.47c-390.25,-190.43 -529.37,-370.31 -761.71,-716.35 -127.42,-189.77 -522.49,-725.33 -452.03,-1012.04l119.93 -22.96 -369.66 -1722.88c-126.57,-33.96 -99.37,-130.14 -128.61,-272.55 -116.85,-569 -225.91,-956.01 -340.02,-1603.5 -37.52,-212.91 -108.86,-420.84 -140.12,-607.14 -42.6,789.39 259.64,1425.96 382.95,2145.04 54.63,318.59 283.84,1218.33 390.51,1525.6 42.11,121.3 273.33,493.71 13.05,481.75 -85.87,-3.95 -184.39,-111.53 -237.54,-176.29 -66.86,-81.47 -134.95,-209.12 -195.13,-325.08 -161.77,-311.71 -558.25,-1086.03 -744.29,-1337.12 -184.65,-249.23 -397.92,-295.54 -518.04,-519.15z"/>
   <path class="fil11" d="M15670.76 17524.14c-102.02,29.83 -231.44,209.24 -316.17,276.35l-337.09 274.53 240.4 43.63c121.74,367.76 -137.58,340.08 -362.42,729.89 -78.51,136.1 -29.96,177.39 -74.46,308.25 -45.53,133.88 -296,277.9 -385.01,381.77 -108.6,126.71 -205.58,351.72 -321.14,458.74 39.26,31.7 -4.35,18.37 63.57,30.45 9.44,1.68 50.83,1.2 52.5,1.19 19.83,-0.06 82.83,-10.27 108.32,-12.62 66.98,-53.69 412.11,-140.7 542.49,-196.05 693.62,-294.45 700.56,-626.86 1035.97,-1264.77 223.69,-425.42 800.54,-1554.4 1225.86,-1823.31 207.11,-286.03 404.82,-433.86 662.94,-641.97 88.33,-71.23 156.76,-117.23 249.81,-187.85l492.82 -384.93c303.05,-271.91 237.58,-162.79 419.57,-417.25 -596.02,432.44 -1348.47,454.99 -2541.44,1746.65 -107.43,116.32 -238.02,245.29 -341.28,370.65 -93.46,113.44 -212.36,310.56 -415.24,306.65z"/>
   <path class="fil11" d="M8646.11 17768.44c160.97,167.02 311.94,575.67 351.6,859.49 -107.63,-131.71 -318.07,-638.67 -351.6,-859.49zm-973.24 -3897.4c-6.28,183.06 173.59,826.83 224.72,1066.83 64.88,304.61 116.77,748.79 204.77,1029.15 104.09,18.62 69.49,-78.6 191.44,48.38 72.15,75.12 110.92,105.62 183.07,175.1 743.17,715.62 653.25,346.74 1339.27,1453.71 94.09,151.81 192.86,274.76 271.1,442.12 95.89,205.11 350.84,908.34 201.72,1165.71 -198.5,91.09 -734.39,-130.3 -874.16,-219.89 -311.23,-199.5 -282.31,-364.46 -431,-718.12 -276.12,-656.76 -479.18,-853.65 -676.53,-1631.92l-6.76 44.91c-10.07,226.14 217.56,969.7 285.59,1245.4 151.91,615.6 483.68,978.33 1022.36,1277 487.77,270.44 1438.36,42.22 1868.03,-130.12 -66.15,-38.9 -191.44,-29.37 -263.62,-78.17l-470.73 -481.1c17.61,116.18 96.09,175.35 157.28,278.45 -199.84,-78.62 -565.95,-581.24 -710.29,-800.08 -201.71,-305.81 -351.39,-601.52 -527.25,-951.74 -155.17,-309.03 -349.4,-704.71 -526.63,-979.48 -261.26,-405.03 -455.71,-604.45 -618.43,-847.24 -80.15,-44.35 -161.56,-120.09 -206.84,-204.79l173.28 115.89c38.55,36.7 10.68,8.28 38.77,54.87 442.33,354.66 791.39,883.13 1080.39,1400.28l900.78 1538.94c32.29,-27.4 38.13,39.08 5.62,-62.1 -68.27,-212.5 -363.99,-797.01 -481.25,-1000.25 -197.94,-343.1 -360.49,-649.69 -602.17,-984.11l-372.13 -531.74c-139.69,-190.77 -436.61,-610.61 -638.47,-701.94 -182.2,-82.43 -293.94,-307.37 -409.76,-495.84l-332.17 -518.11z"/>
   <path class="fil12" d="M8102.36 15967.02c22.58,143.67 58.49,258.29 91.63,394 28.46,116.51 39.23,287.31 106.52,366l6.76 -44.91c197.35,778.27 400.41,975.16 676.53,1631.92 148.69,353.66 119.77,518.62 431,718.12 139.77,89.59 675.66,310.98 874.16,219.89 149.12,-257.37 -105.83,-960.6 -201.72,-1165.71 -78.24,-167.36 -177.01,-290.31 -271.1,-442.12 -686.02,-1106.97 -596.1,-738.09 -1339.27,-1453.71 -72.15,-69.48 -110.92,-99.98 -183.07,-175.1 -121.95,-126.98 -87.35,-29.76 -191.44,-48.38z"/>
   <path class="fil11" d="M17705.56 12757.17c-127.25,137.38 -214.87,311.44 -332.53,461.62 -382.5,488.18 -373.07,394.78 -707.59,935.89l-1560.09 2570.44c114.6,27.7 -218.43,242.07 -70.71,548.59 223.6,52.15 284.33,-282.32 555.74,-633.53 352.56,-456.23 761.06,-859.34 965.35,-1442.35 51.49,-146.97 102.79,-295.1 174.95,-433.03l114.39 -204.26c0.96,-1.42 61.5,-214.77 78.95,-168.29l58.06 7.04c102.01,-162.18 144.57,-267.78 270.64,-424.2 96.87,-120.19 233.11,-281.47 303.76,-412.34l-91.3 8.08c87.08,-228.47 551.5,-586.52 428.75,-853.15 -111.51,-9.56 -86.14,12.74 -188.37,39.49z"/>
   <path class="fil12" d="M14896.6 17902.8c142.99,-277.19 936.01,-1437.91 1084.67,-1601.9 -75.14,139.3 -170.78,254.74 -246.84,400.84 -204.78,393.34 -371.58,902.11 -837.83,1201.06zm208.75 -1177.68c-53.1,35.4 -102.07,128.62 -147.4,186.65 -54.51,69.78 -112.42,97 -168.53,159.79 -328.48,367.56 -742.98,563.08 -1242.54,726.48l-30.96 156.73c194.68,-68.49 1249.12,-712.67 1264.16,-179.77 11.9,421.22 -723.65,534.02 -1142.52,486.09 -24.21,-2.77 -73.16,-10.49 -93.67,-10.39 -58.58,0.3 11.44,-5.54 -45.2,2.8 -66.52,9.78 -22.72,-4.61 -61.54,19.43 258.7,66.45 464.59,129.98 750.02,58.15 385.55,-97.02 632.46,-216.6 922.03,-446.6l454.01 -422.73c72.64,-71.43 131.34,-144.06 204.31,-215.71 32.05,-82.48 46.16,-102.36 93.98,-170.35 20.98,-29.82 42.5,-61.75 57.2,-79.09 39.06,-46.08 45,-45.11 76.77,-69.22 25.06,-85.25 108.03,-166.27 159.1,-270.56 180.34,-368.28 405.54,-1205.88 559.26,-1630.5l268.25 -627.03 -58.06 -7.04c-17.45,-46.48 -77.99,166.87 -78.95,168.29l-114.39 204.26c-72.16,137.93 -123.46,286.06 -174.95,433.03 -204.29,583.01 -612.79,986.12 -965.35,1442.35 -271.41,351.21 -332.14,685.68 -555.74,633.53 -147.72,-306.52 185.31,-520.89 70.71,-548.59z"/>
   <path class="fil11" d="M17864.56 16327.74c136.57,-37.23 270.28,-68.78 318.82,67.91 37.58,105.83 27.63,281.64 19.28,393.85 -39.73,533.5 -78.55,1886.09 -268.34,2211.31l11.09 194.53c95.44,33.56 102.09,18.41 205.49,24.75 189.73,11.63 152.23,80.9 177.66,-296 57.07,-846.18 131.46,-1857.55 329.02,-2669.7 67.4,-277.09 208.6,-631.06 245.96,-876.72 -93.33,42.25 -1133.59,862.51 -1189.62,945.19l150.64 4.88z"/>
   <path class="fil11" d="M7582.08 19650.28c76.06,-410.9 -330.4,-2600.88 -286.31,-2735.13l-447.22 -636.23c5.95,172.55 134.57,576.93 170.95,836.4l361.37 2582.85c107.82,36.81 128.58,19.3 201.21,-47.89z"/>
   <path class="fil12" d="M13546.88 17798.04l-645.18 119.03c112.6,165.34 274.75,271.44 535.45,355.86 38.82,-24.04 -4.98,-9.65 61.54,-19.43 56.64,-8.34 -13.38,-2.5 45.2,-2.8 20.51,-0.1 69.46,7.62 93.67,10.39 418.87,47.93 1154.42,-64.87 1142.52,-486.09 -15.04,-532.9 -1069.48,111.28 -1264.16,179.77l30.96 -156.73z"/>
   <path class="fil11" d="M12904.43 21278.56c-185.46,-1.12 -363.59,-48.89 -588.78,-51.78 -218.43,-2.8 -439.11,0.03 -657.54,4.69 -593.21,12.67 -1709.47,206.31 -2244.69,-253.97 -101.17,-87 -293.39,-239.21 -343.16,-313.5 -129.71,-193.59 -72.86,-336.43 -240.27,-404.52 29.15,370.32 265.55,746.7 473.84,909.93 291.87,228.73 631.9,240.16 1067.29,270.85 206.26,14.54 2411.05,-123.63 2533.31,-161.7z"/>
   <path class="fil11" d="M10742.14 18560.03c-98.2,-66.17 -197.86,-274.31 -238.94,-394.9l-900.78 -1538.94c-289,-517.15 -638.06,-1045.62 -1080.39,-1400.28l-5.21 34.03c162.72,242.79 357.17,442.21 618.43,847.24 177.23,274.77 371.46,670.45 526.63,979.48 175.86,350.22 325.54,645.93 527.25,951.74 144.34,218.84 510.45,721.46 710.29,800.08 -61.19,-103.1 -139.67,-162.27 -157.28,-278.45z"/>
   <path class="fil11" d="M14339.26 20016.32c1109.7,-98.71 1263.32,-541.44 1694.6,-1344.56 187.54,-349.24 357.68,-654.92 553.5,-980.08 174.15,-289.19 145.8,-348.57 265.32,-501.4 91.14,-116.57 218.13,-321.46 290.9,-458.09 -425.32,268.91 -1002.17,1397.89 -1225.86,1823.31 -335.41,637.91 -342.35,970.32 -1035.97,1264.77 -130.38,55.35 -475.51,142.36 -542.49,196.05z"/>
   <path class="fil12" d="M17864.56 16327.74c56.57,87.21 102.77,105.05 146.56,242.45 90.7,284.63 27.3,695.22 -6.85,1004.52 -42.38,383.86 -101.1,1050.33 -69.95,1426.1 189.79,-325.22 228.61,-1677.81 268.34,-2211.31 8.35,-112.21 18.3,-288.02 -19.28,-393.85 -48.54,-136.69 -182.25,-105.14 -318.82,-67.91z"/>
   <path class="fil11" d="M7582.08 19650.28c92.16,14.3 44.45,-212.83 35.39,-297.57l-37.63 -1194.9 72.65 -54.77c28.28,-677.84 -14.28,-607.48 -356.72,-1187.89 -44.09,134.25 362.37,2324.23 286.31,2735.13z"/>
   <path class="fil12" d="M17705.56 12757.17c102.23,-26.75 76.86,-49.05 188.37,-39.49 122.75,266.63 -341.67,624.68 -428.75,853.15l91.3 -8.08c53.94,-57.88 111.76,-162.94 167.39,-238.53 148.68,-202.06 451.1,-592.57 504.56,-808.43 -139.62,-64.76 -161.58,-59.3 -295.73,30.25 -81.25,54.24 -177.18,115.93 -227.14,211.13z"/>
   <path class="fil11" d="M14896.6 17902.8c466.25,-298.95 633.05,-807.72 837.83,-1201.06 76.06,-146.1 171.7,-261.54 246.84,-400.84 -148.66,163.99 -941.68,1324.71 -1084.67,1601.9z"/>
   <path class="fil11" d="M8997.71 18627.93c-39.66,-283.82 -190.63,-692.47 -351.6,-859.49 33.53,220.82 243.97,727.78 351.6,859.49z"/>
   <path class="fil13" d="M13513.3 17644.06c-50.26,-127.47 17.52,-150.46 157.01,-150.13 -24.19,69.54 -73.31,169.62 -157.01,150.13zm-19.81 83.07c97.66,-24.53 100.18,-12.23 158.74,-74 -77.99,-11.71 -13.41,15.16 -54.26,-20.99l126.16 -122.26c-185.68,-149.79 -271.45,29.29 -230.64,217.25z"/>
   <path class="fil14" d="M12027.46 18983.98l141.12 -12.19c-66.88,-63.5 -175.87,-139.83 -256.07,-188.54 12.09,49 21.94,79.5 41.92,119.39 49.37,98.54 -21.38,25.62 73.03,81.34z"/>
   <path class="fil15" d="M13513.3 17644.06c83.7,19.49 132.82,-80.59 157.01,-150.13 -139.49,-0.33 -207.27,22.66 -157.01,150.13z"/>
   <path class="fil11" d="M15767.52 17246.04c92.43,-70.49 200.85,-220.35 227.95,-318.66 -31.77,24.11 -37.71,23.14 -76.77,69.22 -14.7,17.34 -36.22,49.27 -57.2,79.09 -47.82,67.99 -61.93,87.87 -93.98,170.35z"/>
   <path class="fil11" d="M8516.82 15259.94l5.21 -34.03c-28.09,-46.59 -0.22,-18.17 -38.77,-54.87l-173.28 -115.89c45.28,84.7 126.69,160.44 206.84,204.79z"/>
   <line class="fil16 str3" x1="5828.23" y1="6792.61" x2="9694.15" y2= "3584.86" />
   <line class="fil16 str3" x1="10151.41" y1="3515.59" x2="13504.65" y2= "5351.55" />
   <line class="fil16 str3" x1="13944.59" y1="5334.23" x2="14512.7" y2= "4603.3" />
   <line class="fil16 str3" x1="14862.58" y1="4329.64" x2="19913.22" y2= "1856.28" />
   <line class="fil16 str3" x1="5246.26" y1="6754.5" x2="19850.85" y2= "6671.36" />
   <path class="fil17" d="M9912.39 3228.05c107.14,0 193.99,86.47 193.99,193.12 0,106.66 -86.85,193.13 -193.99,193.13 -107.14,0 -193.99,-86.47 -193.99,-193.13 0,-106.65 86.85,-193.12 193.99,-193.12z"/>
   <path class="fil17" d="M13743.67 5305.65c107.14,0 193.99,86.46 193.99,193.12 0,106.66 -86.85,193.12 -193.99,193.12 -107.13,0 -193.98,-86.46 -193.98,-193.12 0,-106.66 86.85,-193.12 193.98,-193.12z"/>
   <path class="fil17" d="M14607.08 4159.9c107.14,0 193.99,86.46 193.99,193.12 0,106.66 -86.85,193.12 -193.99,193.12 -107.13,0 -193.99,-86.46 -193.99,-193.12 0,-106.66 86.86,-193.12 193.99,-193.12z"/>
   <polygon class="fil18" points="7153.2,6158.67 6553.89,6158.67 6553.89,6747.06 7153.2,6747.06 "/>
   <polygon class="fil18" points="8081.57,5365.39 7496.09,5365.39 7496.09,6741.69 8081.57,6741.69 "/>
   <polygon class="fil18" points="9034.19,4585.97 8448.8,4585.97 8448.8,6736.27 9034.19,6736.27 "/>
   <polygon class="fil18" points="9997.2,3827.34 9411.79,3827.34 9411.79,6730.79 9997.2,6730.79 "/>
   <polygon class="fil18" points="10340.14,4028.26 10963.67,4028.26 10963.67,6721.95 10340.14,6721.95 "/>
   <polygon class="fil18" points="11289.3,4554.8 11905.95,4554.8 11905.95,6716.59 11289.3,6716.59 "/>
   <polygon class="fil18" points="12217.68,5025.92 12834.37,5025.92 12834.37,6711.3 12217.68,6711.3 "/>
   <polygon class="fil18" points="13198.02,5486.65 13804.21,5486.65 13804.21,6705.78 13198.02,6705.78 "/>
   <polygon class="fil18" points="14767.25,5053.63 14171.33,5053.63 14171.33,6703.69 14767.25,6703.69 "/>
   <polygon class="fil18" points="15667.91,4218.79 15082.55,4218.79 15082.55,6698.5 15667.91,6698.5 "/>
   <polygon class="fil18" points="16637.85,3695.72 16021.27,3695.72 16021.27,6693.16 16637.85,6693.16 "/>
   <polygon class="fil18" points="17566.22,3280.02 16963.43,3280.02 16963.43,6687.8 17566.22,6687.8 "/>
   <polygon class="fil18" points="18515.38,2781.19 17885.04,2781.19 17885.04,6682.55 18515.38,6682.55 "/>
   <polygon class="fil18" points="19471.47,2310.08 18847.99,2310.08 18847.99,6677.07 19471.47,6677.07 "/>
   <g>
    <path class="fil19" d="M4687.14 21228.31c-63.06,-66.01 -20.24,-217.98 53.14,-184.88 58.7,26.48 30.82,172.6 -53.14,184.88zm-337.67 -133.5c-52.94,-37.22 -50.51,-444.23 48.39,-404.7 64.89,25.94 21.12,253.77 -2.39,328.03 -8.98,28.37 -20.26,69.52 -46,76.67zm374.02 181.66c13.44,-16.34 50.2,-33.71 88.08,-71.95 138.1,-139.39 8.97,-287.63 -63.5,-275.76 -73.91,12.11 -128.34,87.52 -154.76,155.1 -43.96,112.44 -18.02,186.59 -21.36,202.33 -2.51,11.84 0.8,6.48 -8.97,14 -4.8,3.69 -5.9,3.42 -12.27,5.64 -57.88,20.18 -106.61,-20.43 -136.5,-50.52 -76.8,-77.31 40.08,-94.65 79.13,-323.95 17.14,-100.68 41.83,-321.86 -69.9,-374.27 -154.65,-72.54 -252.68,277 -199.48,532.22 18.34,88.03 55.16,117.64 -12.01,170.31 -91.36,71.63 -223.41,17.28 -216.63,-98.02 2.71,-46.12 25.81,-74.09 14.81,-138.56 -6.43,-37.66 -29.14,-95.01 -80.18,-63 -69.31,43.46 -44.1,158.17 -81,229.46 -15.38,29.72 -46.67,75.93 -93.18,52.65 -45.64,-22.84 -79.17,-160.42 -96.59,-213.79 -26.64,-81.64 -51.46,-140.77 -124.55,-61.22 -60.78,66.17 -66.68,87.56 -114.24,144.25 -11.36,13.53 -12.45,16.93 -31.25,18.52 -38.79,-36.21 -30.32,-121.2 -57.43,-147.72 -70.09,3.75 -77.64,119.92 -95.27,186.42 -9.66,36.46 -21.13,73.06 -32.07,110.96 -49.3,170.79 40.1,110.58 110.18,53.17 16.77,-13.74 26,-28.56 43.43,-42.57 46.68,-37.52 70.5,-68.19 134.7,-118.17 146.47,-114.03 130.54,154.48 234.37,213.89 76.78,43.94 115.94,-116.95 173.25,-137.03 44.88,18.43 50.99,107.93 128.65,139.01 70.69,28.29 161.28,-20.17 203.78,-50.13 99.88,-70.41 66.9,-4.82 160.8,41.65 83.04,41.09 151.92,-17.71 207.46,-36.64 36.42,18.9 42.11,53.83 126.26,51.02 206.68,-6.92 260.35,-190.59 321.73,-201.79 52.01,47.69 44.45,268.67 213.87,182.51 135.96,-69.15 216.93,-350.27 189.89,-440.06 -9.28,-30.81 -35.8,-42.86 -70.18,-26.28 -23.01,11.1 -36.09,28.53 -47.34,56.07 -34.19,83.73 3.51,120.68 3.28,190.5 -0.13,38.95 -27.14,146.16 -77.02,139.51 -96.55,-37.49 -89.5,-291.7 -155.07,-357.41 -56.35,-26.92 -88.54,143.5 -146.61,243.61 -13.75,23.69 -26.48,37.58 -40.86,56.77 -38.96,52 -142.05,93.92 -195.45,39.27z"/>
    <path class="fil19" d="M2881.94 17008c11.6,27.35 52.28,30.79 79.78,37.33 31.36,7.46 65.64,12.83 81.7,31.52 -19.83,62.21 -160.71,73.3 -165.86,149.71 64.67,19.51 198.49,1.58 233.73,29.28 -7.63,70.29 -222.83,219.75 -202.15,295.34 50.69,19.61 120.6,-31.55 157.46,-50.04 21.67,-10.86 42.84,-24.23 66.7,-36.63 12.78,-6.64 23.82,-12.37 35.04,-17.08 110.08,-46.18 -0.55,151.99 56.19,185.04 23.71,13.82 56.59,-10.26 70.16,-24.08 24.27,-24.7 30.73,-45.79 71.88,-42.5 15.37,49.34 19.99,188.88 48.85,214.25 45.68,16.15 58.47,-62.59 69.29,-102.29 11.08,-40.69 19.61,-108.39 44.76,-133.03 50.73,0.2 41.26,67.48 100.85,65.47 7.01,-17.1 12.88,-37.8 17.63,-61.39 6.38,-31.73 6.05,-38.61 22.19,-57.52 70.27,2.79 183.87,174.22 240.73,136.21 43.27,-59.52 -93.31,-215.92 -77.96,-290.56 88.32,-13.25 213.77,90.26 297.33,50.7 16.51,-68.16 -100.61,-152.77 -159.77,-220.23 -66.09,-75.35 -37.99,-81.02 90.95,-130.42 29.24,-11.2 50.65,-12.9 51.32,-46.74 -85.77,-20.2 -278.05,16.05 -317.52,69.35 -0.68,64.98 157.86,140.77 140.84,213.4 -62.81,15.72 -148.78,-59.76 -203.32,-42.78 -52.09,46.75 55.35,173.2 52.02,236.37 -44.57,-4.35 -128.7,-131.01 -171.28,-114.08 -17.45,36.2 4.36,90.35 -17.02,125.01 -54.18,-6.3 -34.98,-80.12 -86.71,-83.47 -19.47,17.98 -24.2,49.49 -30.44,77.98 -6.39,29.17 -11.89,65.25 -32.73,74.1 -38.94,-27.31 -4.38,-117.03 -34.51,-169.59 -64.61,8.34 -65.82,110.95 -117.79,110.65 -20.34,-31.51 20.63,-116.87 10.03,-164.02 -74.49,-6.07 -138.6,71.9 -176.67,50.25 20.57,-61.04 129.4,-106.53 128.28,-170.82 -39.83,-32.51 -139.39,-4.19 -176.8,-45.37 0.93,-61.45 110.26,-67.6 127.61,-126.35 -28.96,-39.71 -99.11,-41.18 -155.9,-47.39 -47.96,-5.24 -146.69,-17.1 -168.89,24.42z"/>
    <path class="fil19" d="M4663.39 19889.09c56.11,-16.16 81.59,79.76 21.55,91.99 -63.96,13.02 -89.32,-72.48 -21.55,-91.99zm-494.49 47.33c-29.89,129.13 -173.4,81.65 -187.29,62.99 -0.14,-0.19 -48.21,-162.01 -131.36,-169.8 -15.6,168.51 -61.09,161.85 -220.22,170.39 6.38,19.19 -1.71,4.51 14,21.22 3.75,3.98 14.28,13.89 20.74,19.28 12.01,10.03 28.61,21.09 44.49,30.27 103.43,59.77 121.91,-4.53 234.42,69.88 29.73,19.67 57.63,42.6 93.62,61.51 102.1,53.65 271.63,73.84 389.32,31.47 48.58,-17.48 91.74,-42.88 103.41,-46.97 28.09,27.56 32.53,70.81 145.21,64.97 26.38,-1.37 126.06,-16.72 132.36,-51.52 11.15,-61.56 -95.13,13.03 -215.48,-53.07 -30.3,-16.64 -49.96,-36.13 -68.16,-58.41 -37.05,-45.37 -43.46,-107.31 -101.64,-48.7 -37.83,38.12 -89.54,65.84 -142.83,81.03 -41.72,11.89 -85.32,15.12 -132.3,13.41 -39.06,-1.43 -100.95,-5.98 -110.62,-43.26 380.37,31.48 393.74,-223.64 474.07,-144.06 18.86,18.69 52.87,141.66 166.03,161.59 107.22,18.89 119.54,-102.96 146.12,-178.12 15.19,-2.41 34.74,-4.97 46.93,-11.13 12.16,-47.61 -5.16,-38.79 -24.42,-60.14 -15.88,-17.61 -12.1,-40.06 -27.52,-64.08 -42.44,-8.86 -35.2,0.93 -50.23,26.31 -33.97,-2.61 -61.31,-15.51 -97.37,-17.46 -41.61,-2.24 -71.98,1.51 -110.98,6.77 -15.43,-23.93 -74.25,-75.9 -119.02,-81.9 -23.38,29.56 -23.79,88.11 -96.55,140.43 -64.39,46.3 -92.18,44.68 -174.73,67.1z"/>
    <path class="fil19" d="M5426.67 18015.96c45.31,7.36 42.18,42.39 75.92,66.71 52.54,37.9 34.05,-37.45 41.53,-68.6 47.13,2.35 33.9,105.04 109.14,103.36 7.66,-22.92 6.57,-48.79 21.74,-63.39 27.64,12.84 13.09,47.28 37.77,76.34 17.63,20.74 51,33.67 45.04,57.52 -33.23,9.89 -50.05,-16.89 -89.7,7.8 -28.59,17.82 -30.44,40.94 -69.48,43.1 2.24,-54.38 40.66,-44.05 34.06,-85.72 -74.41,-18.68 -110.64,61.46 -162.19,47.54 -0.37,-46.66 53.14,-34.35 32.64,-72.66 -37.83,-23.39 -95.78,22.85 -132.2,-5.75 4.78,-19.94 -8.1,-4.9 11.37,-16.87 12.84,-7.9 34.09,-1.46 63,-17.68 0.17,-40.33 -19.01,-23.17 -18.64,-71.7zm440.24 304.58c-41.74,-10.33 -131.13,73.26 -133.8,140.92 -3.29,83.28 115.24,115.69 140.47,143.2l-72.22 146.92c-12.79,-10.93 -78.88,-204.08 -94.5,-241.83 -37.37,-90.31 -76.26,-139.82 -192.11,-146.97 3.42,31.04 51.06,80.03 70.21,102.12 81.31,93.77 179.1,194.74 183.98,337.47 -11.93,-5.24 -10.98,-2.2 -23.55,-32.76 -5.51,-13.37 -10.51,-23.2 -16.67,-34.89 -14.56,-27.64 -25.29,-45.46 -41.48,-67.64 -88.46,-121.24 -162.56,-110.94 -205.24,-231.51 -9.62,-27.18 -17.81,-54.79 -33.12,-75.66 -10.76,-14.65 -39.51,-41.55 -65.26,-41.48 7.13,72.45 -37.27,158.86 -1.2,211.3 51.76,75.25 196.49,7.78 309.43,207.28 33.52,59.22 53.11,120.26 75.45,188.27 33.02,-26.48 38.04,-84.34 82.82,-105.5 77.69,-36.69 75.63,44.63 89.08,83.27 55.95,-21.67 117.45,-195.67 63.18,-228.27 -45.26,-11.47 -68.08,11.97 -89.51,35.5 -22.08,24.24 -33.76,52.92 -72.97,60.89 2.93,-85.41 130.33,-197.86 161.54,-282.62 53.26,-144.71 -47.91,-244.34 -130.71,-292.09 -36.22,-20.89 -35.13,-17.23 -59.52,-49.67 -41.25,-54.9 -90.17,-138.31 -163.26,-175.6 -113.84,-58.09 -215.67,-7 -292.76,-18.26 -28.66,-4.19 -66.63,-25.62 -85.34,-23.37 -5.81,128.46 66.78,261.4 132.09,310.74 97.86,73.93 233.5,79.08 361.57,27.91 178.93,-71.49 267.64,147.18 156.92,271.74 -25.08,28.2 -50.35,21.06 -62.65,-14.46 -21.97,-63.4 33.58,-152.2 9.13,-204.95z"/>
    <path class="fil19" d="M4912.66 17197.01c3.37,-8.31 5.56,-18.48 8.94,-29.02 0.37,-1.14 5.9,-16.49 6.13,-17.03 4.82,-11.22 2.23,-6.19 6.38,-12.26 22.35,15.74 15.83,37.93 36.74,58.58l61.41 -13.77c-9.2,23.15 -19.92,27.86 -27.28,52.36 18.36,9.89 47.91,17.17 61.47,30.58 -23.29,18.06 -44.19,8.68 -61.91,22.97 6.74,21.31 18.9,31.48 19.44,55.33 -18.62,-1.58 -44.52,-19.07 -62.99,-10.77 -11.1,4.99 -24.72,30.89 -38.37,41.48l-8.42 -29.27c-7.75,-59.74 -23.96,-24.04 -65.01,-39.65 4.07,-19.92 5.74,-14.29 22.16,-28.36 11.7,-10.02 10.82,-8.89 20.91,-23.22 -13.87,-37.86 -29.79,-19.39 -44.45,-58.24l64.85 0.29zm222.55 -96.94c-24.7,-1.8 -146.07,48.33 -128.15,-7.38 10.72,-33.34 74.74,-49.3 122.39,-48.97 223.55,1.54 243.7,318.79 97.29,412.07 -75.18,47.9 -242.71,28.18 -233.94,-50.54 63.17,-10.06 127.59,78.58 124.17,12.22 -1.02,-19.66 -21.98,-32.26 -12.9,-67.21 48.18,-7.2 74.06,17.25 121.58,6.49 -2.91,-50.1 -66.43,-61.85 -72.19,-101.79 27.65,-30.54 76.99,-23.1 89.83,-57.43 -24.19,-31.37 -75.17,-1.31 -129.55,-28.85 4.23,-33.78 21.13,-29.53 21.47,-68.61zm-263.55 -35.63c-57.28,1.25 -96.48,-58.29 -148,-54.36 -2.9,48.8 70.97,94.41 70.99,147.04 -9.58,7.54 -17.06,13.6 -33.51,22.46 -19.24,10.36 -26.18,10.05 -35.39,29.43 22.88,43.13 135.85,38.26 35.71,108.69 -24.26,17.06 -38.87,17.51 -39.83,48.05 31.2,8.53 52.54,0.16 76.52,20.64 8.26,34.47 -52.6,93.71 -55.54,145.2 60.36,-13.47 72.91,-74.64 124.08,-74.96 17.05,31.99 11.59,51.57 19.63,85.63 41.16,-4.08 35.98,-50.09 65.02,-52.38 20.88,4.83 43.87,23.88 69.59,34.59 24.55,10.23 51.47,20.64 83.17,25.73 157.93,25.36 345.99,-105.24 316.85,-322.47 -28.64,-213.55 -228.83,-274.21 -384.77,-226.41 -22.57,6.92 -59.26,26.33 -83.63,21.91 -26.67,-4.84 -26.5,-31.52 -65.64,-43.19l-15.25 84.4z"/>
    <path class="fil19" d="M3096.23 18646.48c-23.56,-30.39 -3.76,-85.83 2.78,-119.15 4.17,-21.23 9.6,-42.43 11.75,-62.3 1.92,-17.88 5.66,-50.76 -9.71,-62.24 -50.7,-37.87 -72.96,146.81 -78.81,178.48 -5.15,27.93 -9.86,52.59 -29.39,66.81 -29.33,-10.91 -23.67,-29.15 -23.67,-83.63 0,-32.87 5.08,-63 0.1,-79.19 -4.25,-13.82 0.76,-4.09 -6.81,-12.41 -71.03,-33.66 -109.29,420.73 -21.31,505.57 49.35,8.33 95.76,-57.79 104.17,-104.45 8.68,-48.12 -68.84,-111 -0.79,-154.62 26.08,-8.25 77.35,52.38 90.14,70.93 51.37,74.47 -96.8,171.43 -151.28,333.21 -29.36,87.18 -22.64,201.87 14.56,274.36 33.15,64.61 118.52,137.64 172.93,160.88 23.34,-30.77 34.37,-83.85 16.8,-126.46 -27.97,-67.8 -127.77,-113.2 -152.16,-187.04 -14.5,-43.88 -5.07,-105.12 20.49,-133.53 17.09,8.72 36.27,69.25 131.16,60.61 -10.64,-23.03 -34.7,-38.12 -42.19,-75.65 -15.84,-79.43 59.34,-208.75 94.33,-274.31 199.5,-373.8 101.2,-443.94 61.56,-334.58 -21.42,59.1 -29.89,87.62 -61.91,144.63 -12.21,21.75 -25.2,54.27 -54.95,50.91 -10.43,-75.61 96.75,-242.18 61.92,-308.53 -29.04,-9.36 -39.54,11.11 -52.75,39.56 -26.06,56.14 -46.33,144.01 -69.32,200.7 -8.79,21.67 -11.31,26.44 -27.64,31.44z"/>
    <path class="fil19" d="M5110.56 19433.51c-22.81,4.19 -61.6,25.79 -102.49,32.24 -82.66,13.03 -175.34,12 -249.27,-25.16 -18.23,-9.16 -28.53,-15.25 -42.67,-26.34 -15.76,-12.37 -24.55,-24.31 -52.83,-22.77 -11.81,23.4 -8.57,29.27 -12.34,61.47 -1.68,0.33 -77.97,-7.97 -30.56,56.79 72.17,98.59 245.35,11.3 269.73,17.38 12.28,24.74 0.13,28.98 -5.26,53.91l39.14 15.07c-3.43,72.96 -134.69,71.38 -202.52,53.47 -189.61,-50.05 -224.67,-248.02 -108.57,-315.01 35.85,-20.69 203.75,-42.73 96.84,-107.24 12.2,-20.18 25.52,-28.46 57.65,-30.26 26,-1.46 63.26,4.84 86.51,0.33 25.29,-4.9 38.4,-30.19 22.48,-52.01 -15.81,-21.68 -37.22,-11.06 -56.49,-29.57 20.94,-30.46 99.61,-16.59 74.62,-57.15 -32.81,-53.23 -344.88,-56.57 -437.87,222.9 -26.29,78.98 -17.91,175.79 12.65,247.46 100.09,234.76 402.96,272.95 557.22,109.89 31.46,-33.26 101.3,-133.91 84.03,-205.4z"/>
    <path class="fil19" d="M3058.85 20628.75c-72.81,23.96 -73.31,120.54 -48.85,192.88 31.25,92.44 39.9,126.01 26,233.73 -10.45,80.98 -25.14,151.31 -66.82,207.7 -79.89,108.07 -358.93,160.16 -302.4,-372.01 4.8,-45.11 41.67,-204.64 28.61,-237.57 -13.87,-34.96 -77.65,-8.67 -98.78,7.37 -60.48,45.92 -195.37,584.38 79.07,713.35 66.59,31.3 159.27,38.68 236.4,15.62 224.52,-67.12 253.65,-376.14 241.28,-585.54 -3.94,-66.53 -13.06,-202.33 -94.51,-175.53z"/>
    <path class="fil19" d="M5602.83 21203.91c-13.63,-41.08 -11.62,-89.45 4.44,-128.41 14.46,-35.09 62.22,-61.43 95.75,-29.21 62.14,59.71 -34.05,166.04 -100.19,157.62zm357.41 -24.12c30.52,52.52 23.63,144.92 62.32,196.11 98.63,130.46 159.71,-394.48 338.32,-383.03 20.29,30.75 22.4,57.15 78.37,58.6 125.36,3.26 79.89,-214.16 -108.2,-153.99 -173.93,55.65 -198.39,304.19 -236.78,311.75 -46.51,9.17 -50.57,-183.62 -60.63,-223.92 -2.73,-10.96 -2.31,-8.71 -6.6,-16.25 -4.7,-8.28 -3.49,-5.61 -8.33,-10.77 -56.8,-16.69 -66.46,63.02 -80.83,109.08 -88.46,283.45 -301.43,273.4 -308.73,194.83 18.07,-16.42 73,-30.5 98.85,-42.93 222.61,-107.04 27.99,-406.03 -156.61,-219.91 -104.99,105.85 -132.52,394.56 97.87,394.56 204.45,0 263.28,-204.3 290.98,-214.13z"/>
    <path class="fil19" d="M5693.74 17417.64c19.37,-18.72 44.15,-19.85 70.48,-33.37 124.09,-63.72 96.3,-141.91 123.29,-175.86 71.09,35.5 43.16,122.35 -5.68,161.52 -45.16,36.22 -149.18,57.56 -188.09,47.71zm229.71 -334.31c-108.32,16.26 -14.53,-117.31 10.65,-23.36l-10.65 23.36zm-498.85 -56.65c18.68,24.67 84.14,30.4 116.71,46.17 31.33,15.16 80.56,53.55 91.54,76.89 -42.49,20.21 -124.65,9.45 -162.97,47.34 23.89,32.75 190.15,39.82 203.18,123.05 8.58,54.84 -44.53,77.63 -91.4,62.74 -53.78,-17.09 -63.06,-61.84 -100.21,-63.23 -5.99,46.2 20.03,75.51 -5.72,120.94 -8.73,15.39 -21.32,24.25 -36.22,32.78 -22.97,13.16 -31.09,9.63 -35.45,36.04 230.55,29.58 611.66,41.32 598.98,-266.15 -1.88,-45.54 -14.22,-84.12 -25.58,-124.11 -23.13,-81.42 18.49,-94.83 30.1,-116.6 -34.04,-7.99 -93.3,-22.56 -125.54,-17.06 -39.53,6.74 -63.9,38.6 -64.22,85.47 -0.28,41.37 13.89,88.46 -1.86,129.48 -15.56,40.55 -79.39,39.97 -85.17,-14.18 -7.24,-67.68 84.19,-167.45 -56.36,-188.19 -66.11,-9.76 -206.62,-6.06 -249.81,28.62z"/>
    <path class="fil19" d="M3739.49 18230.73c-17.43,-13.85 -51.8,-102.99 -117.98,-139.81 -27.54,-15.32 -75.14,-23.82 -102.54,0.23 -18.61,16.34 -43.37,104.42 -11.13,101.16 10.36,-1.04 7.62,-1.9 11.07,-2.91 35.99,-10.52 59.83,-9.69 96.15,11.21 32.14,18.5 68.97,43.71 80.92,71.96 -67.73,-4.86 -151.51,-30.71 -205.36,8.49 -39.16,28.5 -76.44,91.68 -63.21,164.71 13.46,0.34 0.12,5.15 10.9,-5l28.6 -39.77c12.04,-13.58 34.86,-31 55.2,-42.33 41.48,-23.1 100.54,-43.82 159.74,-36.87 -5.02,27.2 -20.61,27.7 -38.74,128.5 -6.83,37.95 -18.52,15.34 -21.67,39.49 5.15,34.01 31.68,89.97 30.63,114.69 -1.19,27.84 -15.79,20.86 -7.05,54.06 9.36,35.59 45.06,64.97 47.57,96.32 3.92,48.89 -28.86,2.43 52.91,84.95 19.88,20.06 23.45,36.81 34.19,40.22 31.36,-1.06 51.53,-17.77 58.59,-45.64 -11.72,-25.87 -20.73,-25.69 -33.89,-47.67 -25.92,-43.32 4.42,-18.88 -31.99,-54.09 -21.79,-21.06 -17.54,-30.65 -20.63,-64.76 -7.74,-85.48 -44.15,-22.07 -28.57,-137.13 14.37,-106.11 -40.65,-43.9 9.11,-128.53 12.63,-21.48 18.27,-36.01 28.02,-57.48 33.4,6.71 60.57,47.62 74.15,78.96 26.32,60.72 3.62,77.69 9.28,128.02 90.63,-19.64 185.81,-150.73 74.63,-217.79 -28.49,-17.19 -69.76,-19.92 -95.94,-35.03 42.25,-20.4 163.43,-31.99 218.9,-1.79 28.97,15.78 24,25.71 42.74,51.05 4.7,-4.34 3.98,-2.7 9.03,-9.72 19.89,-27.69 23.51,-68.55 10.52,-97.79 -14.46,-32.57 -44.81,-53.98 -88.11,-57.85 -101.17,-9.03 -151.36,42.29 -219.42,74.21 4.93,-25.86 17.31,-43.87 32.78,-62.57 23.57,-28.49 19.73,-27.31 65.44,-32.06 -4.4,-39.14 -59.82,-111.56 -107.03,-101.72 -55.7,11.6 -33.44,122.88 -47.81,170.08z"/>
    <path class="fil19" d="M3542.31 19535.06c-3.72,5.38 -41.58,34.04 0.29,70.51 24.59,21.41 60.13,25.73 98.13,22.21 11.34,80.81 -104.02,55.5 -136.22,33.22 -43.77,-30.28 -75.35,-107.68 -20.79,-151.99 67.24,-54.62 233.84,2.42 235.4,169.63 1.93,208.14 -301.43,172.03 -377.09,-10.25 -32.51,-78.3 -24.93,-116.73 -14.81,-199.4 -32.14,4.56 -41.17,17.14 -58.3,37.64 -112.97,135.15 -2.45,344.06 172.47,412.77 113.58,44.62 237.48,20.82 298.28,-51.11 62.32,-73.74 50.9,-212.52 6.97,-300.08 -128.67,-256.42 -475.72,-138.11 -353.67,89.32 62.43,116.34 198.31,134.8 256.3,86.03 80.76,-67.92 14.64,-221.82 -106.96,-208.5z"/>
    <path class="fil19" d="M5572 19329.42c89.1,-7.83 162.5,89.16 98.09,114.49 -38.92,15.3 -78.42,-1.36 -98.75,-23.35 -29.73,-32.14 -20.57,-61.47 0.66,-91.14zm-104.3 74.98c44.31,73.43 -132.87,152.61 -175.07,208.02 -41.82,54.92 77.29,125.47 138.51,114.66 102.73,-18.13 160.76,-196.46 198,-195.3 47.4,1.47 4.11,127.38 -123.96,206.81 -39.02,24.2 -100.16,27.42 -51.15,92.14 53.2,70.24 165.71,-71.78 198.79,-111.11 266.79,-317.28 -37.17,-523.33 -208.1,-414.76 -65.71,41.73 -65.1,114.52 -193.43,162.79 -47.15,17.74 -104.83,9.38 -89.85,75.03 30.93,135.54 197.67,-54.64 250.01,-104.56 14.63,-13.95 28.05,-33.27 56.25,-33.72z"/>
    <path class="fil19" d="M3894.56 17955.35c-32.75,-33.16 -6.3,-102.84 32.71,-101.62 10.99,23.67 6.67,35.24 0.03,60.16 -6.51,24.48 -7.51,39.64 -32.74,41.46zm64.05 74.34c-18.54,-36.08 -0.88,-90.94 9.77,-126.49 9.7,-32.38 23.8,-80.49 52.71,-90.28 16.56,35.04 3.49,93.04 -6.76,130.88 -5.39,19.87 -11.68,38.9 -19.24,55 -10.28,21.89 -12.01,31.16 -36.48,30.89zm-200.52 -109.98c-8.96,-25.93 -6.13,-135 58.14,-143.76 37.99,89.46 -11.76,151.9 -58.14,143.76zm-99.1 41.69c-18.06,-40.97 27.03,-171.33 45.09,-219.27 15.64,-41.51 18.73,-47.19 41.15,-53.13 9.15,14.6 8.65,25.66 6.2,48.47 -3.71,34.46 -46.27,239.73 -92.44,223.93zm-107.65 -207.68c25.75,-7.89 33.6,-16.38 67.2,-10.03 22.86,47.45 11.55,119.59 -22.54,154.76 -22.24,22.95 -52.43,21.52 -66.84,-2.23 -11.32,-18.64 -13.33,-59.82 -22.51,-78.68 -73.35,4.38 -54.49,195.98 77.71,214.67 149.48,21.14 237.34,-103.53 251.84,-106.46 1.05,1.08 2.47,1.37 2.84,3.49l8.69 15.92c19.99,52.68 22.34,108.01 91.03,150.3 73.04,44.97 162.34,-3.01 162.72,-77.46l-39.73 1.85c-17.73,-39.45 -23.83,-145.15 27.41,-148.46 18.39,20.27 9.97,58.34 22.55,90.5 56.42,-14.06 41.47,-185.44 -36.98,-220.81 -108.58,-48.96 -185.67,85.35 -203.15,93.56 -10.17,-323.27 -308.6,-196.68 -320.24,-80.92z"/>
    <path class="fil19" d="M3929.02 18850.03c-59.86,32.83 -142.46,228.94 73.34,341.88 36.38,19.04 113.77,38.04 153.93,19.84 -18.9,-17.2 -56.66,-22.88 -80.51,-70.23 -21.73,-43.14 -8.78,-92.74 8.96,-128.53 35.81,-72.22 113.28,-131.01 31.43,-210.66 -21.83,-21.24 -73.66,-41.84 -52.34,-96.71 18.98,-48.84 127.4,-112.5 61.95,-217.5 -13.85,-22.22 -58.94,-67.26 -86.59,-71.85 10.31,36.42 19.66,62.54 -0.22,97.54 -10.95,19.26 -48.09,49.71 -64.76,61.45 -127.22,89.64 -174.95,130.88 32.48,256.04 80.46,48.56 17.6,91.43 -56.53,33.69 -13.11,-10.2 -6.01,-7.27 -21.14,-14.96z"/>
    <path class="fil19" d="M4707.47 18979.14c157.48,-6.58 159.57,-146.92 224.04,-124.92 9.25,38.3 -30.89,55.81 -29.28,100.89 2.98,83.39 165.76,90.55 129.42,6.03 -13.51,-31.42 -50.74,-48.58 -45.78,-92.47 26.14,-16.61 76.53,-11.29 101.85,1.41 1.8,32.55 -11.91,30.18 -13.41,46.59 -2.45,26.76 -2.84,6.31 4.03,16.52 38.54,14.96 162.18,-22.1 183.59,-47.11 10.75,-32.27 -122.74,-130.96 -158.73,-135.09l-6.38 61.98c-75.34,31.14 -140.06,-37.68 -82.46,-87.85 40.99,-35.69 136.09,-34.56 151.64,-91.75l-87.32 -35.45c-139.16,-68.91 -104.05,67.39 -104.36,87.41 -0.73,45.76 -46.9,61.82 -46.9,-17.5 0,-75.94 18.25,-111.11 -40.98,-147.64 -20.9,-12.89 -46.17,-19.1 -62.82,-29.22 -23.12,-14.06 -27.63,-29.68 -44.58,-50.79 -30.37,22.99 -68.77,138.74 -21.88,197.81 40.74,51.31 140.43,69.3 152.96,123.76 11.12,48.3 -29.95,65.95 -62.54,32.84 -15.46,-15.7 -45.19,-61.35 -84.61,-39.75 -34.6,18.96 -17.01,79.29 -15.9,119.92 1.76,63.81 -26.81,67.92 -39.6,104.38z"/>
    <path class="fil19" d="M4199.15 19425.96c-10.99,-21.7 -4.78,-38.31 -2.12,-63.82 6.7,-64.18 26.52,-32.71 78.82,-71.91 19.26,-14.44 16.1,-21.42 43.92,-14.43 22.78,63.26 -71.82,178.23 -120.62,150.16zm50.98 -199.56c-47.59,43.52 -69.54,54.11 -148.81,54.11 -171.73,0 -197.29,-112.65 -235.48,-95.87 -39.66,17.42 -28.66,191.91 96.19,277.15 216.91,148.1 498.3,-48.26 417.81,-268.32 -32.83,-89.76 -135.2,-83.25 -173.98,-136.3 -14.67,-20.07 -20.06,-52.32 -35.42,-65.71 -24.02,31.42 -49.52,92.89 -16.99,135.44 26.73,34.96 92.76,38.52 96.68,99.5z"/>
    <path class="fil19" d="M5250.08 18696.01c-31.74,16.56 -44.94,3.91 -71.49,16.13 -3.5,20.61 15.99,25.28 36.27,36.8 212.13,120.4 97.71,224.85 -23.37,250.49 -22.93,4.86 -49.47,6.27 -66.98,18.75 12.15,28.41 34.5,11.04 70.6,32.85 7.22,33.56 -31.17,50.03 -26.87,76.54 14,5.6 23.63,-2.77 36.59,-10.95 14.19,-8.95 21.45,-14.42 39.42,-15.38 28.25,28.48 7.55,46.48 34.46,65.39 25.8,-28.48 10.06,-93.26 24.67,-135.28 13.3,-38.24 39.41,-81.17 78.71,-83.29 33.33,19.82 40.83,77.33 30.52,124.01 -8.97,40.63 -40.97,87.79 -39.99,122.18 48.75,4.06 42.09,-71.72 98.75,-1.16 15.81,19.69 8.56,26.19 37.41,30.86 11.8,-33.42 -17.12,-66.84 1.35,-89.81 20.14,-23.29 38.39,-4.33 66.04,-18.33 -9.81,-28.5 -57,-27.93 -97.46,-73.56 -16.18,-18.25 -41.46,-54.68 -44.22,-83.29 -5.55,-57.56 66.18,-66.48 140.87,55.51 13.85,22.62 14.6,35.98 36.13,43.44l9.43 -68.71c32.03,-20.66 56.1,3.35 80.98,-6.67 -3.55,-32.48 -23.16,-8.6 -66.21,-56.25 4.9,-36.23 38.69,-51.33 35.82,-76.91 -29.66,-1.89 -176.53,81.31 -213.14,23.41 -32.11,-50.78 76,-76.29 109,-83.07 29.65,-6.08 39.27,-0.76 48.11,-23.17 -18.77,-11.01 -42.71,-6.79 -65.31,-24.04 1.68,-27.28 30.05,-59.72 20.22,-73.57 -20.6,-13.59 -34.29,32.53 -67.06,29.94 -29.39,-2.33 -29.1,-49.17 -58.6,-44.76 -0.78,1.49 -1.56,2.15 -1.75,4.73 -0.19,2.57 -1.32,3.55 -1.54,4.8 -1.35,7.85 -1.85,4.7 -1.77,15.25 0.35,46.97 30.36,91.54 -21.6,167.64l-38.74 0.76c-43.47,-73.9 3.02,-128.84 4.31,-216.14 -52.78,5.97 -30.01,39.4 -76.21,43.04 -25.78,-16.72 -21.82,-48.84 -56.5,-51.9l-0.85 73.72z"/>
    <path class="fil19" d="M3243.85 18912.87c-44.45,96.89 151.62,168.82 151.62,-49.76 0,-41.16 -1.68,-85.68 0.3,-126.53 1.38,-28.51 6.85,-77.22 28.88,-97.93 4.88,31.77 3.55,62.2 10.79,98.18 15.28,75.92 80.22,197.34 34.49,263.29 -49.53,8.83 -30.9,-6.43 -65.04,-13.68 -12,114.32 82.54,97.73 107.52,80.14 131.7,-92.73 -128.07,-380.22 -24.76,-514.33 14.16,58.64 14.07,97.07 37.24,158.12 16.66,43.92 42.26,97.48 66.08,134.81 29.33,45.97 50.42,80.68 75.29,125.71 22.24,40.26 57.71,130.33 -24.41,122.69 -22.36,-12.06 -26.92,-20.49 -31.82,-47.89 -14.72,6.09 -12.87,0.64 -24.16,20.17 -6.6,11.44 -8.66,23.42 -8.1,38.28 0.96,25.63 13.54,49.81 26.37,60.84 30.38,26.09 91.84,33.36 131.31,4.25 163.59,-120.63 -174.83,-340.79 -205.34,-597.2 -7.22,-60.69 9.29,-101.25 24.78,-147.15 -61.92,8.13 -160.98,143.99 -188.24,232.01 -20.22,65.26 -13.87,124.58 -18.35,194.88 -8.63,135.24 -90.48,59.01 -104.45,61.1z"/>
    <path class="fil19" d="M5077.09 20065.73l-1.53 -8.05c-0.08,-16.63 -1.59,2.4 0.71,-13.07 16.21,-108.77 -1.98,-86.82 71.19,-95.12 72.34,-8.2 137.12,-72.74 104.19,23.02 -15.64,45.49 -106.77,106.84 -174.56,93.22zm234.17 -251.66c-22.2,10.32 -39.77,26.24 -65.51,38.46 -27.75,13.17 -50,22.12 -81.77,27.58 -127.32,21.88 -160.35,-18.47 -191.95,-8.73 -50.89,15.69 -164.16,237.08 -28.94,280.24 168.48,53.76 508.6,-133.53 432.89,-300.59 -9.65,-21.28 -38.07,-49.35 -64.72,-36.96z"/>
    <path class="fil19" d="M3287.32 17008c14.31,18.15 6.6,5.91 49.62,28.27l1.72 37.11c-17.09,8.23 -34.65,20.57 -60.27,30.48 -22.91,8.88 -50.7,12.64 -59.51,35.25 34.26,29.12 184.69,-39.6 146.58,39.85 -17.57,36.62 -55.12,49.93 -57.53,93.86 52.93,3.27 69.59,-63.26 120.37,-56.51 54.64,7.28 19.77,104.56 48.85,133.53 41.72,-5.44 18.62,-67.04 60.2,-130.03 31.22,-3.64 37.7,-6.05 68.33,36.88 16.17,22.68 27.73,47.77 60.08,50.77 14.89,-49.56 -35.8,-73.1 -29.05,-139.59 17.13,-12.9 25.94,-19.62 58.13,-11.79l50.62 12.37c60.2,-2.33 -8.89,-43.78 -29.72,-56.24 -115.32,-68.96 -6.29,-80.49 4.55,-108.72 -27.72,-14.49 -89.69,-21.04 -123.72,-6.16 -37.52,16.4 -41.85,58.53 -92.67,57.97 -48.06,-0.53 -48.81,-43.69 -90.08,-60.67 -21.84,-8.98 -47.31,-7.57 -70.89,-5.67 -18.89,1.52 -44.16,3.82 -55.61,19.04z"/>
    <path class="fil19" d="M5381.64 17731.9c22.91,3.85 108.1,8.79 119.75,16.99 -7.46,47.46 -132.72,56.4 -198.29,10.22 -18.91,-13.32 -34.45,-22.84 -37.83,-52.93 40.14,1.28 73.18,18.46 116.37,25.72zm-49.09 -138.15c-173.18,68.17 -210.29,2 -187.43,93.99 5.11,20.57 20.09,53.78 29.35,67.84 108.16,164.06 326.86,143.27 403.62,74.56 66.62,-59.64 -26.46,-196.42 -41.17,-207.51 -24.52,-18.5 -55.12,-1.69 -79.17,6.68 -95.44,33.18 -51.36,-64.62 -125.2,-35.56z"/>
    <path class="fil19" d="M4297.89 19617.84c-43.04,-12.06 -54.53,-45.54 -111.86,-21.15 -73.48,31.27 -56.39,134.5 -132.65,166.27 -54.11,22.54 -96.8,-6.97 -133.54,4.16 -24.31,141.26 327.58,167.44 404.53,-8.85 16.54,-37.88 -3.32,-77.74 6.69,-102.07 39.27,-13.22 38.81,9.99 65.29,14.4 59.6,9.92 22.86,-60.97 24.81,-74.9 2.4,-17.2 29.14,-69.5 -55.65,-61.18 -13.22,-16.16 -47.16,-58.17 -67.49,-20.19 -18.06,33.76 18.43,51.55 -0.13,103.51z"/>
    <path class="fil19" d="M5778.56 19082.79c-48.96,-10.5 -96.61,-22.96 -129.25,13.07 -32.05,35.4 -22.89,98.34 9.16,122.65 87.46,66.32 129.64,18.25 172.2,148.81l5.15 12.53c61.19,-32.93 124.74,-175.73 124.74,-269.78 0,-166.79 -129.9,-218.45 -179.38,-134.87 -22.82,38.53 -10.24,66.69 -2.62,107.59z"/>
    <path class="fil19" d="M3325.27 19205.72c59.15,-23.05 83.85,60.8 35.42,83.03 -55.16,25.33 -95.12,-59.78 -35.42,-83.03zm-88.15 -11.98c-39.51,24.09 -86.81,27.85 -74.65,103.52 3.8,23.62 18.23,42.62 38.85,52.14 31.43,14.5 52.91,4.75 84.44,1.85 6.76,7.22 34.83,76.54 110.13,47.03 51.6,-20.22 48.82,-55.02 45.48,-110.14 129.5,-21.04 81.23,-200.54 -44.2,-146.34 -23.89,-22.39 -42.07,-72.59 -108.66,-52.05 -60.77,18.75 -52.99,73.24 -51.39,103.99z"/>
    <path class="fil19" d="M3117.99 18070.52c-78.82,71.13 -178.01,-104.51 -90.68,-129.73 13.71,20.57 10.59,51.79 34.28,78.3 15.07,16.86 49.62,34.01 56.4,51.43zm43.9 -183.9c32.87,50 4.47,27.71 43.96,68.71 23.91,24.82 8.78,67.4 -30.28,53.22 -35.04,-12.71 -110.81,-133.47 -13.68,-121.93zm112.09 46.06c-14.41,-16.24 -26.6,-18.68 -37.3,-43.31 -14.17,-32.57 1.18,-39.6 -42.31,-43.44 -93.05,-8.2 -188.62,9.9 -242.49,91.76 -31.39,47.71 -27.27,70.44 -42.83,129.54 -20.92,79.42 12.91,45.67 83.24,66.78 157.88,47.39 291.71,-109.32 281.69,-201.33z"/>
    <path class="fil19" d="M5973.66 18150.61c45.1,-44.17 60.6,-324.81 19.67,-397.07 -27.28,11.66 -37.13,41.1 -55.04,57.61 -36.64,33.77 -101.26,63.99 -154.35,69.43 -52.43,5.36 -61.74,-5.1 -38.42,50.31 33,78.4 92.09,133.76 150.56,182.63 16.66,13.93 48.31,36.48 77.58,37.09z"/>
    <path class="fil19" d="M4000.34 19623.93c-23.61,21.32 -43.59,11.5 -70.45,-3.33 -16.36,-9.02 -52.85,-30.59 -37.89,-58.55 20.84,-38.94 111.22,10.68 108.34,61.88zm-397.22 -365.18c-26.68,9.11 -63.08,23.25 -50.81,60.8 17.47,53.48 162.63,27.08 224.91,137.64 28.64,50.83 19.57,128.67 59.43,175.94 36.48,43.28 106.51,76.26 178.39,63.34 80.97,-14.54 35.18,-108.7 0.28,-144.27 -90.88,-92.61 -143.98,-20.48 -174.89,-66.49 -25.76,-38.34 -25.1,-116.72 -65.79,-169.62 -31.4,-40.83 -93.35,-84.03 -171.52,-57.34z"/>
    <path class="fil19" d="M4897.38 17882.87c-4.17,-23.94 11.55,-16.29 12.68,-42.37l-2.16 -13.84c-23.66,-9.99 -50.83,3.07 -83.84,-8.03 -29.72,-9.99 -39.27,-27.94 -63.22,-34.13 -40.3,50.57 -41.89,219.98 23.94,237.57 17.92,-11.72 17.45,-24.5 30.53,-41.02 31.14,-1.66 66.2,20.72 119.13,17.09 183.01,-12.58 193.66,-209.9 148.99,-249.21 -21.46,58.38 -6.41,67.63 -52.99,107.75 -26.58,22.89 -90.83,46.92 -133.06,26.19z"/>
    <path class="fil19" d="M5026 19154.94c24.1,4.34 32.11,14.49 39.82,36.21 23.37,65.92 -69.35,94.66 -49.96,-10.78l10.14 -25.43zm-72.94 -94.83c45.18,117.95 -25.04,123.35 -22.69,221.65 1.93,81.11 87.73,135.79 162.23,90.31 112,-68.38 34.71,-290.95 -139.54,-311.96z"/>
    <path class="fil19" d="M3306.87 18042.79c-33.15,32.16 -62.97,103.99 -52.81,162.94 9.98,57.94 56.69,111.32 126.23,91.86 54.48,-15.23 77.62,-90.5 51.09,-154.41 -17.01,-40.99 -75.61,-94.21 -124.51,-100.39z"/>
    <path class="fil19" d="M4785.07 17724.55c20.25,-8.58 63.66,-99.11 158.02,-36.33 -40.65,59.31 -15.05,50.29 19.28,78.3 23.88,19.48 11.29,22.16 34.92,36.71l17.48 -13.99c20.66,-19.41 27.87,-31.24 38.54,-59.07 14.48,-37.77 17.27,-77.44 14.2,-120.93 -33.51,-0.46 -24.74,12.13 -50.94,5.91 -2.62,-0.62 -131.81,-93.14 -216.42,11.16 -18.81,23.18 -30.44,68.54 -15.08,98.24z"/>
    <path class="fil19" d="M5004.19 19799.81c68.09,52.18 196.49,41.78 246.52,-0.02 39.86,-33.31 29.06,-154.66 -155.14,-120.51 -103.44,19.17 -96.71,53.03 -91.38,120.53z"/>
    <path class="fil19" d="M5921.66 17565.69c27.26,180.27 -222.48,165.22 -247.18,188.53 -13.93,13.14 -32.97,66.89 50.02,77.05 119.68,14.64 254.58,-88.68 259.12,-180.27 2.36,-47.5 -17.22,-85.9 -61.96,-85.31z"/>
    <path class="fil19" d="M3183.37 17778.53c10.97,-57.51 9.96,-128.8 -19.08,-172.51 -29.04,-43.69 -99.69,-62.19 -140.82,-21.8 -59.54,58.45 -6.58,204.69 159.9,194.31z"/>
    <path class="fil19" d="M5195.94 19188.17c-3,25.26 6.88,44.77 -3.89,76.52 -50.65,149.22 69.25,146 108.56,119.97 95.94,-63.52 -0.33,-206.41 -104.67,-196.49z"/>
    <path class="fil19" d="M4114.49 17674c59.22,-78.57 14.41,-117.68 -39.06,-157.72 -32.23,-24.14 -108.41,-94.7 -156.98,-94.09 0.24,44.88 90.87,169.14 125.92,205.56 32.21,33.48 32.12,47.99 70.12,46.25z"/>
    <path class="fil19" d="M5076.17 18389.44c-106.27,41.67 -42.33,194.24 58.39,157.3 106.96,-39.23 42.32,-196.79 -58.39,-157.3z"/>
    <path class="fil19" d="M3968.28 20584.21c-99.56,30.9 -74.88,193.63 26.33,165.13 85.68,-24.14 85.07,-199.69 -26.33,-165.13z"/>
    <path class="fil19" d="M5642.22 17601.18c8.79,53.74 18.01,100.3 83.32,94.12 158.71,-15.02 206.26,-168.76 71.49,-123.06 -21.45,7.27 -45.33,19.36 -67.81,23.8 -30.24,5.97 -58.37,0 -87,5.14z"/>
    <path class="fil19" d="M5088.44 18033.24c-85.87,21.87 -64.59,177.87 44.95,150.56 95.28,-23.75 57.2,-176.58 -44.95,-150.56z"/>
    <path class="fil19" d="M4942.14 18168.52c-94.32,44.1 -26.19,170.89 62.18,132.91 31.41,-13.5 52.64,-61.91 34.58,-100.2 -14.88,-31.55 -56.17,-51.7 -96.76,-32.71z"/>
    <path class="fil19" d="M4791.98 18247.67c-90.26,30 -40.62,160.38 46,128.95 80.35,-29.15 43.86,-158.82 -46,-128.95z"/>
    <path class="fil19" d="M3041.06 17814.33c-9.84,-14.8 1.02,-4.84 -17.05,-16.26 -49.37,-31.2 -84.58,-41.76 -86.82,-149.42 -55.7,12.98 -82.1,88.32 -49.34,142.05 39.29,64.42 98.83,37.75 153.21,23.63z"/>
    <path class="fil19" d="M4792.79 19267.32c9.57,42.32 -6.09,95.43 6.93,120.64 15.76,30.5 63.92,33.77 88.23,9.22 54.74,-55.27 -33.42,-142.69 -95.16,-129.86z"/>
    <path class="fil19" d="M3239.1 18305.84c-7.48,-30.53 -61.35,-58.97 -34.49,-160.18 -43.53,6.18 -89.97,53.74 -84.28,107.65 6.13,58 70.76,75.23 118.77,52.53z"/>
    <path class="fil19" d="M3084.54 18328.46c-39.87,-3.14 -84.95,19.23 -134.08,7.73 -50.16,-11.75 -62.69,-53.26 -86.3,-56.22 15.76,59.52 6.77,124.34 82.56,123.21 48.48,-0.72 117.32,-48.3 137.82,-74.72z"/>
    <path class="fil19" d="M2886.17 17401.85c37.28,6.53 61.9,-18.03 80.78,-34.98 20.67,-18.54 52.33,-39.17 54.37,-71.95 -76.52,-25.05 -163.44,14.41 -135.15,106.93z"/>
    <path class="fil19" d="M5239.56 18310.96c-82.17,32.12 -34.83,126.45 31.04,108.29 70.25,-19.36 37.7,-135.16 -31.04,-108.29z"/>
    <path class="fil19" d="M4010.75 17123.38c0.67,31.08 20.65,38.21 43.93,51.94 49.95,29.46 91.92,40.73 90.9,-29.5 -0.33,-23.17 -0.96,-33.49 -22.16,-39.02 -38.2,-9.97 -88.51,3.33 -112.67,16.58z"/>
    <path class="fil19" d="M5220.7 18166.61c-56.34,28.96 -14.7,121.31 48.25,89.76 57.11,-28.63 12.19,-120.84 -48.25,-89.76z"/>
    <path class="fil19" d="M3066.62 18209.55c-33.47,-1.62 -56.36,3.7 -91.88,-6.47 -39.22,-11.23 -36.74,-27.33 -68.18,-36.89 -1.86,152.06 151.04,95.9 160.06,43.36z"/>
    <path class="fil19" d="M5094.52 18252.43c-55.01,25.45 -23.39,110.21 40.1,87.86 59.56,-20.96 21.03,-116.15 -40.1,-87.86z"/>
    <path class="fil19" d="M3343.02 17873.88c-61.07,29 -16.27,115.26 40.56,88.08 53.45,-25.57 19.34,-116.53 -40.56,-88.08z"/>
    <path class="fil19" d="M4934.69 18350.8c-57.31,29.74 -18.46,108.43 40.13,87.81 58.2,-20.48 21.35,-119.71 -40.13,-87.81z"/>
    <path class="fil19" d="M4813.43 18097.33c-57.62,29.41 -19.03,111.63 43.55,86.12 53.32,-21.74 16.8,-116.92 -43.55,-86.12z"/>
    <path class="fil19" d="M3276.47 17767.76c-10.28,6.7 -17.44,6.39 -23.15,23.8 -14.89,45.37 31.8,81.73 70.29,58.48 50.53,-30.52 9.45,-119.17 -47.14,-82.28z"/>
    <path class="fil19" d="M5148.21 17921.4c-4.15,2.37 -38.28,12.02 -19.97,58.04 8.91,22.4 37.31,34.32 66.25,18.73 45.77,-24.67 15.35,-112.18 -46.28,-76.77z"/>
    <path class="fil19" d="M5238.86 18476.98c-56.14,29.49 -13.33,102.95 39.01,81.37 58.61,-24.16 18.72,-111.69 -39.01,-81.37z"/>
    <path class="fil19" d="M4930.02 18035.99c-55.15,27.66 -19.01,104.1 39.61,81.7 50.42,-19.27 20.36,-111.76 -39.61,-81.7z"/>
   </g>
   <g>
    <rect class="fil20" x="24339.25" y="26370.49" width="3000" height="3000"/>
    <g>
     <path class="fil21" d="M25735.17 28548.13c-881.1,-134.05 -774.26,-1291.83 -8.04,-1360.71 -534.88,238.74 -540.72,1116.11 8.04,1360.71z"/>
     <path class="fil21" d="M25951.8 28548.13c881.09,-134.05 774.26,-1291.83 8.03,-1360.71 534.89,238.74 540.73,1116.11 -8.03,1360.71z"/>
     <path class="fil22" d="M25914.63 28649.73c29.46,-68.08 -48.22,-137.5 -72.32,-206.25 -25.01,69.65 -114.96,114.51 -75.01,208.93 23.81,36.32 105.22,43.82 147.33,-2.68z"/>
    </g>
    <g>
     <path class="fil23" d="M25589.02 27752.88c5.4,-1.13 16.21,2.39 21.29,5.52 24.29,14.94 32.09,136.44 -15.1,142.37 -50.71,6.37 -56.87,-137.3 -6.19,-147.89zm-465.13 -136.8c30.61,-0.83 33.68,-0.71 56.22,16.32 9.28,7.01 2.83,0.79 9.77,9.11l9.14 9.76c8.58,8.66 8.43,10.96 14.12,23.68 21.25,47.58 22.7,73.16 22.79,130.69 0.07,45.8 -0.56,97.58 -19.91,133.51 -59.65,110.77 -149.21,62.46 -175.78,3.2 -4.17,-9.28 -8.77,-18.23 -13.27,-27.14 -4.47,-8.84 -12.8,-88.2 -13.13,-101.47 -0.94,-37.51 7.36,-103.73 22.29,-132.68 16.89,-32.76 8.38,-18.96 32.49,-43.2 14.89,-14.97 29.05,-21.07 55.27,-21.78zm564.5 160.81c16.17,-4.33 30.99,2.56 37.69,-13.47 6.59,-15.77 0.72,-30.78 -14.83,-32.63 -55.85,-6.68 -7.17,13.21 -86.52,-16.45 -38.57,-14.41 -85.82,-3.55 -109.49,32.67l-19.2 32.04c-5.26,-35.08 5.12,-53.05 -32.62,-60.51 -35.95,-7.12 -39.88,24.26 -59.63,25.75l-3.49 -9.01c-0.59,-2.29 -1.22,-15.09 -8.55,-17.41 -15.32,-4.87 -59.53,32.42 -80.55,34.12 -12.36,-22.81 -15.35,-50.14 -29.5,-75.37 -11.13,-19.83 2.97,-3.27 -21.23,-32.76 -11.65,-14.21 -10.35,-14.54 -25.03,-26.29 -21.91,-17.54 -35.74,-28.1 -68.7,-36.58 -50.62,-13.04 -39.49,-10.3 -88.67,-1.26 -44.63,8.21 -95.18,54.73 -114.46,96.24 -41.33,88.95 -41.75,214.25 16.41,291.53 29.83,39.65 28.93,29.34 38.48,39.8 7.51,8.24 1.95,4.95 14.88,12.15 42.18,23.51 70.15,29.53 121.54,20.65 29.96,-5.18 52.99,-17.84 72.72,-32.57l21.28 -19.23c8.8,-9.38 21.32,-21.68 28.33,-36.53 6.51,-13.79 12.56,-22.85 18.24,-35.74 17.34,-39.35 13.32,-118.75 17.61,-137l15.74 -0.36c14.45,28.48 9.19,67.92 9.98,105.27 0.44,20.41 3.5,101.82 -1.56,114.09 -11.52,16.74 -23.33,3.74 -34.84,20.93 3.79,17.57 14.56,13.14 31.16,13.72 28.66,1 93.98,8.51 114.28,-4.75 4.94,-30.49 -32.03,-10.93 -42.2,-34.94 -6.44,-15.17 -18.32,-198.16 16.92,-210.92 22.26,0.57 19.25,10.87 32.03,15.94 18.18,7.21 25.06,-5.35 35.37,-7.99 5.28,15.99 -5.22,48.8 6.7,79.31 17.23,44.06 30.55,38.67 36.39,52.31 -11.41,7.03 -16.84,8.4 -28.22,17.48 -29.67,23.67 -46.44,66.67 -9.85,85.77 42.86,22.38 135.76,-5.17 164.83,18.3 14.08,64.58 -26.07,79.58 -76.36,90.51 -75.56,16.44 -95.49,-60.44 -111.76,-44.35 -4.15,4.11 -3.09,12.4 -0.81,19.04 2.69,7.81 3.81,7.88 8.48,13.18 35.09,39.75 37.67,38.83 85.49,44.68 33.45,4.09 71.97,-8.31 99.33,-27.24l23.33 -19.94c29.87,-29.07 28.2,-105.03 1.54,-131.55 -34.3,-34.12 -126.77,0.47 -152.96,-14.47 -10.72,-12.03 8.37,-18.5 15.67,-27.48 8.82,-10.83 13.84,-13.59 32.57,-12.56 33.81,1.86 43.94,-2.98 68.72,-18.49 13.5,-8.45 29.63,-37.17 34.42,-57.5 14.54,-61.75 -6.47,-51.54 0.9,-80.13z"/>
     <g>
      <path class="fil23" d="M25784.48 27940.65c0,-34.58 42.06,-65.97 67.58,-75.14 6.18,11.58 5.67,85.29 -0.71,96.08 -19.2,32.45 -66.87,31.37 -66.87,-20.94zm505.71 53.95c-6.5,-63.99 -1.93,-147.36 -1.72,-213.29 0.3,-92.44 6.58,-67.3 -67.09,-41 -13.18,4.7 -25.16,10.26 -34.97,16.94l3.37 18.48c14.43,5.48 17.26,-3.91 30.29,1.91 13.87,11.5 8.71,67.16 8.71,87.4 0,20.01 3.35,121.52 -7.74,134.12 -7.14,8.12 -24.09,13.54 -37.64,7.13 -12.3,-5.81 -12.41,-18.14 -12.85,-35.91 -2.26,-90.97 19.56,-208.41 -41.24,-244.87 -28.19,-16.91 -63.84,-4.94 -88.96,17.51l-2.82 2.63c-0.57,0.48 -2.15,1.93 -2.68,2.3 -3.66,2.56 -1.19,2.44 -5.43,2.1l-2.69 -12.04c-0.55,-5.22 0.87,-6.5 -1.31,-11.69 -6.35,-15.13 -34.02,-1.22 -52.51,5.74 -10.58,3.99 -7.45,5.3 -16.07,8.59 -8.73,3.33 -39.29,4.05 -22.06,35.39 32.49,3.93 27.63,-7.31 28.64,32.29 0.96,37.56 3.08,143.29 -3.1,168.78 -9.9,-2.86 -5.55,-2.85 -14.37,-6.41 -5.4,5.46 -11.4,13.34 -22.72,12.32 -9.54,-22.56 -3.74,-79.23 -3.75,-107.18 0,-61.72 3.87,-114.26 -40.2,-148.83 -8.76,-6.87 -7.28,-5.24 -19.06,-7.55 -33.98,-6.65 -58.25,-6.57 -87.72,9.34 -20.71,11.18 -41.96,35.24 -40.79,65.6 0.64,16.92 4.04,30.44 17.76,35.4 16.63,6.02 31.66,0.58 39.27,-9.09 14.66,-18.65 -14.2,-74.84 36.19,-72.22 41.69,2.17 29.37,78.55 29.34,78.6 -10.32,16.54 -127.34,32.72 -133.29,127.49 -4.82,76.8 53.47,102.15 100.34,76.97 22.2,-11.92 25.36,-22.73 38.81,-26.3 20.69,30.61 10.31,36.14 63.44,28.73l95.88 0.67c26.65,0.03 45.94,8.13 43.26,-21.32 -21.22,-9.5 -4.52,3.48 -32.19,-15.49 -1.93,-47.98 -1.03,-100.64 -1.04,-149 0,-28.42 -2.99,-43.56 12.94,-60.72 15,-16.15 42.31,-18.59 52.6,-9.41 17.72,15.79 13.03,104.9 13.03,134.94 0,24.53 0.07,46.31 -2.06,70.36 -2.75,31.11 -22.96,17.7 -36.77,34.95 3.1,10.82 7.78,15.02 20.44,16.28l186.32 -0.44c26.09,-0.81 52.28,10.32 51.02,-21.21 -9.8,-6.08 -10.61,-3.19 -21.48,-8.07 -4.51,-2.02 -12.14,-8.49 -15.33,-10.92z"/>
      <path class="fil23" d="M26570.14 27917.32c-17.89,6.99 -16.12,20.63 -16.12,42.22 0,107.79 -5.64,71.87 35.09,73.18 13.7,0.44 28.88,8.36 47,9.68 18.76,1.36 31.84,-4.14 46.22,-11.4 37.1,-18.72 40.18,-42.42 46.6,-72 6.69,-30.77 -9.34,-60.16 -28.05,-81.42 -26.6,-30.23 -86.99,-47.83 -95.09,-80.51 -5.85,-23.6 0.55,-36.13 14.54,-44.06 17.39,-9.86 32.77,-1.2 42.79,8.41 31.01,29.75 2.49,74.09 46.17,66.43 4.24,-10.69 3.73,-79.78 1.5,-96.17 -22.02,-16.1 -11.81,-3.41 -36.75,-8.16 -16.24,-3.09 -22.84,-7.15 -41.67,-6.94 -76.1,0.82 -96.9,92.27 -59.77,146.15 3.34,4.84 5.85,11.16 8.98,15.33 7,9.31 56.36,42.7 70.66,53.58 39.39,29.97 22.45,91.96 -27.13,75.97 -42.76,-13.8 -37.91,-79.41 -54.97,-90.29z"/>
      <path class="fil23" d="M26436.71 27750.01c3.25,-0.39 14.48,3.7 18.45,5.94 17.1,9.66 5.55,21.65 23.36,55.06 12.26,23.01 52.18,24.11 53.72,-18.95 0.61,-17.24 -6.43,-28.93 -12.87,-40.85 -4.07,-7.54 -21.03,-15.74 -30.58,-20.69 -28.48,-14.78 -58.65,-12.43 -89.22,-1.17 -10.45,3.84 -8.26,5.63 -16.13,10.96 -39.51,26.74 -60.4,64.89 -67.62,116.36 -4.54,32.34 -0.39,63.42 6.98,94.03 5.28,21.93 8.11,21.18 18.7,35.15 32.5,42.9 63.81,63.32 124.95,45.33 11.01,-3.24 34.41,-27.92 41.32,-36.98 7.35,-9.64 37.65,-58.08 29.59,-69.33 -20,-27.92 -26.35,60.38 -94.02,54.08 -18.59,-1.73 -42.94,-22.13 -48.13,-30.63 -2.42,-3.96 -6.44,-13.6 -8.86,-18.17 -27.01,-50.87 -23.04,-171.41 50.36,-180.14z"/>
      <path class="fil23" d="M26238.65 27572.9c-40.17,22.89 -18.47,98.53 30.11,77.06 45.54,-20.13 11.85,-100.98 -30.11,-77.06z"/>
      <path class="fil23" d="M26823.15 27675.03c-2.28,32.71 -3.82,34.81 0.21,65.56 12.41,-4.81 10.25,-11.46 11.12,-25.26 21.65,15.54 13.02,15.68 21.8,27.75 16.98,-6.28 12.98,-23.02 21.86,-32.48 1.77,1.94 1.81,0.99 3.55,4.98 5.8,13.32 -0.67,14.77 7.25,25.86 18.96,-8.77 10.19,-55.94 3.05,-68.21 -20.16,6.57 -9.2,33.45 -36.35,40.55 -8.11,-12.89 -11.64,-46.45 -32.49,-38.75z"/>
      <path class="fil23" d="M26759.48 27672.61c0.24,11.22 -2.08,8.09 3.97,12.54l11.64 3.96c3.33,18.85 -1.78,40.83 6.34,53.59 14.8,-7.01 9.68,-27.7 9.49,-45.07 7.62,-18.07 11.96,-2.08 14.28,-21.61l-12.43 -4.49c-21.72,-3.58 -2.61,4.45 -33.29,1.08z"/>
     </g>
    </g>
   </g>
   <g>
    <path class="fil24" d="M24169.5 3701.26c15.21,-6.89 205.09,-3.23 238.62,-3.27 89.84,-0.1 141.85,-4.8 177.99,61.4 28.3,51.84 30.79,140.28 12.01,202.98 -20.46,68.3 -64.06,91.02 -147.09,91.51 -210.81,1.24 -174.34,-17.93 -174.71,65.1 -0.22,48.5 12.91,80.96 -39.75,80.51 -44.82,-0.39 -82.64,13.35 -83.6,-37.41l-0.12 -356.82c-0.02,-44.7 -6.88,-93.34 16.65,-104zm-156.65 -34.7l0 564.7c0,48.54 24.16,72.24 71.79,72.24l554.53 0c78.96,0 83.32,-32.12 83.32,-105.26l0 -515.17c0,-99.46 -44.83,-88.53 -129.53,-88.53l-435.7 0c-75.79,0 -144.41,-13.67 -144.41,72.02z"/>
    <path class="fil25" d="M26550.05 3739.21c0,-37.23 8.39,-43.29 46.48,-43.29l224.46 0c52.49,0 112.12,-1.2 140.51,31.49 11.98,13.79 27.13,32.31 32.84,52.7 23.1,82.51 23.09,195.72 -42.7,251.68 -40.7,34.62 -179.16,22.47 -249.59,22.81l-21.83 2.78c-7.05,-11.14 -5.86,84.44 -5.86,88.03 0.04,32.24 5.83,52.63 -28.93,54.47 -109.53,5.78 -95.38,-2.76 -95.38,-77.6l0 -383.07zm-97.59 -139.12c-52.11,18.13 -42.27,75.39 -42.42,135.82 -0.22,89.63 -5.41,494.32 5.98,527.3 17.29,50.05 76.66,38.21 134.3,38.91 75.88,0.93 510.54,2.78 526.12,-3.19 0.37,-0.14 11.76,-5.66 13.61,-6.64 14.33,-7.61 4.94,0.34 12.37,-10.6 4.81,-7.07 12.78,-20.34 14.74,-28.21 4.68,-18.91 1.83,-236.73 1.83,-266.6 0,-46.92 4.7,-330.7 -2.59,-351.89 -17.84,-51.83 -93.9,-39.05 -136.98,-39.05 -84.77,0 -501.89,-4.58 -526.96,4.15z"/>
    <path class="fil25" d="M27629.34 3811.86c0,88.25 -5.01,219.93 7.72,297.11 3.07,18.63 10.11,28.61 19.35,42.77 48.2,73.84 214.23,35.99 225.24,48.7 7.06,19.44 -2.07,38.36 -14.59,50.4 -22.23,21.4 -113.6,12.25 -141.62,9.58 -18.68,-1.78 -42.14,-9.3 -55.38,-5.47 -23.37,6.77 -12.14,56.25 -10.52,76.22 42.21,28.02 115.26,28.2 171.48,28.2 59.29,0 101.39,-18.17 131.98,-48.88 32.61,-32.74 44.25,-89.94 44.25,-138.67l0 -359.96c0,-46.22 -31.96,-37.31 -87.11,-37.31 -28.26,0 -35.64,9.47 -35.64,37.31 0,9.33 2.42,277.4 -1.66,283.24 -7.16,10.28 -120.11,32.23 -129.39,-29.97 -3.49,-23.44 -1.37,-180.06 -1.36,-216.94 0.01,-82.43 6.8,-73.64 -82.81,-73.64 -29.25,0 -39.94,6.38 -39.94,37.31z"/>
    <path class="fil24" d="M25352.82 3673.17l0 495.34c0,30.5 15.14,31.69 42.07,31.62 16.79,-0.04 59.87,2.39 70.5,-4.15 25.98,-16 4.68,-107.34 13.76,-141.82 15.78,-0.14 61.11,71.2 69.63,82.74 11.3,15.28 20.9,28.49 32.44,43.47 16.01,20.78 11.76,19.68 58.09,19.68 21.69,0 68.86,2.91 84.79,-5.89 1.02,-26.99 -54.33,-87.08 -69.68,-106.79l-58.22 -77.16c-29.1,-36.98 -28.01,-26.95 13.64,-79.29l81.18 -93.8c56.24,-65.57 30.31,-63.26 -28.61,-63.26 -65.37,0 -55.63,-7.66 -112,64.59l-49.61 62.8c-6.87,10.01 -8.77,15.65 -21.99,15.31 -3.21,-82.17 -1.26,-164.48 -1.16,-246.7 0,-44.25 -23.85,-37.61 -62.8,-37.39 -43.19,0.24 -62.03,-6.04 -62.03,40.7z"/>
    <path class="fil25" d="M27428.14 4012.7c3.08,16.79 2.62,37.85 2.31,56.78 -0.64,39.69 11.89,48.21 -71.18,44.93 -80.26,-3.18 -56.06,-81.8 -29.66,-97.37 16.49,-9.72 81.17,-11.34 98.53,-4.34zm-200.43 -213.89c-4.74,98.68 12.33,71.94 95.97,67.41 18.24,-0.99 65.77,-2.86 80.66,2.29 29.53,10.2 30.67,41.14 21.94,57.27 -51.38,13.78 -259.18,-34.75 -234.36,176 6.73,57.17 52.08,90.48 110.14,97.74 63.16,7.9 130.58,6.9 195.02,-2.04 64.96,-9.01 50.87,-25.74 50.87,-154.46 0,-46.08 4.6,-164.92 -9.09,-199.84 -10.05,-25.67 -25.8,-41.77 -48.51,-53.74 -21.84,-11.52 -57.6,-18.84 -85.12,-19.7 -61.18,-1.9 -86.25,1 -143.17,11.12 -20.71,3.68 -22.51,8.42 -34.35,17.95z"/>
    <path class="fil25" d="M25987.41 3882.62c15.6,-14.62 105.55,-12.97 122.84,2.94 18.16,16.71 12.24,98.49 12.21,131.05 -0.04,47.29 -0.56,95.01 -0.08,142.19 0.25,24.54 0.77,39.2 28.29,40.61 98.06,5.01 92.09,-2.02 91.92,-50.68 -0.08,-24.16 -0.12,-48.45 -0.12,-72.68 0,-170.33 25.45,-272.25 -124.39,-300.51 -60.15,-11.34 -218.4,-0.91 -249.03,21.82 -15.63,11.6 -8.64,109.2 -8.64,133.39l0.36 211.35c-0.97,63.07 -0.37,58.47 85.64,57.37 32.75,-0.42 35.84,-5.16 36.14,-37.41l-0.08 -211.5c0,-12.13 -0.05,-24.25 -0.05,-36.38 0.01,-18.75 -1.87,-24.34 4.99,-31.56z"/>
    <path class="fil24" d="M25286.14 3874.67c5.08,-35.25 11.66,-81.46 -15.19,-93.75 -23.53,-10.77 -75.33,-13.07 -103.73,-12.03 -78.76,2.88 -124.44,33.35 -151.89,82.41 -26.59,47.5 -36.28,141.87 -23.1,205 15.1,72.34 41.64,108.91 97.98,136.46 34.67,16.96 176.67,21.58 194.17,-6.17 7.84,-12.44 5.24,-35.22 5.29,-51.24 0.06,-22.28 -0.78,-34.31 -23.31,-35.75 -33.77,-2.17 -78.17,11.2 -114.54,1.84 -61.75,-15.89 -49.11,-141.35 -40.26,-180.21 19.09,-83.84 108.55,-34.73 174.58,-46.56z"/>
    <path class="fil24" d="M24802.72 4195.99c17.97,4.3 39.47,3.97 60.92,4.06 22.09,0.1 46.26,4.37 53.39,-14.58 4.4,-11.73 2.01,-242.15 2.01,-274.54 0,-155.26 10.08,-135.39 -68.62,-136.72 -23.26,-0.4 -43.83,-5.43 -52.22,18.33 -5.9,16.69 -2.61,109.38 -2.61,134.9 0,64.01 -7.63,220.5 7.13,268.55z"/>
    <path class="fil24" d="M24278.11 3800.68c-5.34,22.73 -2.15,65.48 -2.11,90.44 0.09,72.03 -5.74,60.54 29.7,60.46 32.5,-0.07 146.85,9.12 165.29,-14.06 15.19,-19.08 15.74,-50.33 13.99,-79.57 -1.72,-28.97 -9.55,-48.11 -33.34,-56.42 -17.09,-5.96 -158.4,-7.89 -173.53,-0.85z"/>
    <path class="fil25" d="M26674.88 3821.77l1.06 127.2c38.23,4.27 66.52,1.32 105.43,2.9 39.25,1.64 80.88,2.83 93.25,-26.86 11.22,-26.9 11.22,-76.26 -1.78,-102.29 -14.92,-29.89 -63.03,-24.04 -98.06,-24.04 -90.05,0 -99.9,-11.19 -99.9,23.09z"/>
    <path class="fil24" d="M24595.91 4644.63c14.22,21.46 24.11,102.64 -34.56,86.83 -18.28,-4.92 -33.35,-95.17 34.56,-86.83zm-44.52 136.28c31.82,-12.08 109.86,19.59 107.68,-103.97 -2.07,-117.17 -91.11,-66.5 -119.79,-71.69 -63.8,-11.54 -42.09,29.56 -45.37,157.68 -1.17,45.73 -6.61,79.1 21.09,84.57 50.45,9.96 25.71,-42.47 36.39,-66.59z"/>
    <path class="fil24" d="M25478.69 4645.25c28.91,-5.41 42.66,-8.52 46.01,21.72 2.25,20.32 2.38,54.1 -11.79,61.97 -54.18,30.1 -44.78,-66.09 -34.22,-83.69zm-59.66 -93.67c0,42.45 -5.25,186.53 5.73,218.23 21.79,7.27 50.17,8.15 75.92,8.15 55.51,0 78.27,-30.09 79.46,-84.24 2.18,-99.43 -34.39,-96.65 -103.09,-95.04 -9.53,-26.25 0.99,-32.2 -8.78,-64.83 -19.06,-7.6 -49.24,-12.64 -49.24,17.73z"/>
    <path class="fil24" d="M25235.85 4720.16c-17.73,15.99 -47.77,20.21 -51.76,-13.51 -1.71,-14.36 -1.26,-30.63 1.67,-43.77 3.95,-17.7 8.81,-20.07 27.75,-20.07 25.48,0 25.28,1.97 24.57,27.48 -0.46,16.6 0.27,33.69 -2.23,49.87zm-106.89 -16.67c11.92,109.4 97.39,63.65 125.26,68.21 42.8,7 37.83,-8.32 37.42,-64.91 -0.25,-34.12 -0.19,-68.24 -0.19,-102.37 0,-35.82 11.84,-76.92 -28.38,-75.81 -35.15,0.97 -23.35,25.5 -25.05,53.12 -2.63,42.78 -44.84,-6.45 -90.43,39.32 -18.24,18.31 -21.8,53.35 -18.63,82.44z"/>
    <path class="fil24" d="M26131.3 4642.81c28.21,-5.06 37.12,7.78 38.21,34.73 0.98,24.61 2.92,50.02 -19.69,54.42 -8.49,1.65 -25.65,0.06 -32.38,-4.72 -8.2,-5.83 -9.25,-17.61 -9.9,-30.23 -1.36,-26.22 -1.17,-49.72 23.76,-54.2zm-75.53 77.19c15.44,82.37 193.18,95.65 166.14,-61.43 -9.91,-57.62 -61.32,-66.89 -110.92,-57.76 -56.64,10.42 -64.61,69.16 -55.22,119.19z"/>
    <path class="fil24" d="M25012.16 4668.31c-33.43,0 -22.2,-31.41 10.07,-29.18 12.58,0.86 22.05,6.36 18.1,19.98 -3.65,12.6 -13.44,9.2 -28.17,9.2zm46.21 36.56c21.37,0 31.14,2.25 34.49,-15.76 18.5,-99.58 -85.12,-104.35 -126.07,-80.59 -39.5,22.92 -40.56,140.63 6.03,160.85 23.89,10.37 60.71,10.89 88.44,6.15 16.76,-2.85 29.86,-5.44 30.77,-22.55 3,-56.25 -101.47,19.54 -100.21,-42.87 16.09,-9.71 42.59,-5.23 66.55,-5.23z"/>
    <path class="fil24" d="M26312.19 4727.42c-8.3,-25.51 4.39,-85.26 -3.98,-112 -4.68,-14.98 -28.24,-17.14 -41.49,-10.7 -15.04,7.32 -12.09,26.33 -11.87,45.89 0.35,33.06 -7.95,84.34 10.01,107.37 28.29,36.31 63.38,12.42 93.87,12.03 56.64,-0.74 55.8,14.11 54.52,-53.31 -0.5,-26.53 7.33,-96.81 -7.91,-109.18 -10.51,-8.53 -36.78,-8.03 -43.51,3.12 -6.68,11.06 -3.49,42.51 -3.51,56.53 -0.02,15.9 3.96,42.31 -5.96,52.92 -10.37,11.09 -28.56,13.63 -40.17,7.33z"/>
    <path class="fil24" d="M24120.35 4604.6c-14.87,21.9 -8.09,91.24 -8.25,125.41 -0.12,25.6 -3.14,40.94 22.13,43.1 28.55,2.44 32.29,-7.18 32.69,-33.09 0.41,-26.48 -13.06,-112.48 39.47,-96.27 13.53,4.18 9.28,30.14 9.27,56.44 -0.01,21.51 -3.24,43.86 2.47,64.64 12.47,8.72 23.89,10.08 43.21,6.45 13.22,-18.01 13.13,-132.23 0.29,-152.3 -23.3,-36.41 -81.41,-13.33 -100.93,-14.33 -17.69,-0.91 -21.65,-3.27 -40.35,-0.05z"/>
    <path class="fil24" d="M25687.79 4841.12c13.74,-10.04 24.19,-57.15 32.53,-76.46 11.9,-27.53 56.07,-134.81 51.96,-158.56 -78.64,-21.32 -51.15,58.41 -76.86,80.47 -13.13,-3.05 -9.24,-1.45 -13,-16.38 -3.41,-13.54 -14.2,-51.35 -20.45,-58.78 -10.74,-12.77 -69.01,-23.99 -45.29,28.76 10.96,24.38 23.28,53.04 32.45,76.65 14.12,36.35 23.36,42.1 4.6,80.35 -5.41,11.04 -18.17,30.79 -9.75,42.98 7.15,10.36 35.1,7.33 43.81,0.97z"/>
    <path class="fil24" d="M25900.64 4841.7c52.71,22.5 57.38,-25.05 71.03,-60.03l56.39 -151.93c8.37,-24.49 -5.42,-31.5 -30.97,-27.02 -21.78,3.81 -21.15,20.7 -27.9,41.25 -6.41,19.54 -4.74,39.27 -24.43,43.68 -8.73,-30.17 -15.81,-55.78 -27.38,-83.24 -20.12,-3.28 -30.2,-4.16 -47.48,2.31 -6.75,24.57 8.45,39.21 16.41,61.01 7.33,20.08 14.51,37.4 22.31,56.92 9.72,24.38 21.65,31.72 7.34,60.69 -7.67,15.55 -21.51,39.23 -15.32,56.36z"/>
    <path class="fil24" d="M24364.68 4646.23c22.15,-8.22 58.43,1.96 70.64,-4.72 13.58,-7.44 19.77,-42.84 -20.6,-42.84 -43.31,0 -122.74,-7.86 -100.55,73.23 11.25,41.12 70.55,24.05 83.39,52.08 -18.2,21.41 -49.85,0.31 -78.37,9.28 -4.32,12.57 -4.49,26.46 -0.41,40.2 19.05,5.81 63.54,6.04 86.12,3.36 28.04,-3.33 42.01,-14.06 45.81,-40.58 12.18,-84.94 -69.88,-52.6 -86.03,-90.01z"/>
    <path class="fil24" d="M24010.09 4546.02c-4.4,43.23 -2.66,100.11 -1.55,144.26 1.22,48.69 -11.98,105.04 53.79,76.85 5.37,-19.27 6.86,-201.82 1.73,-224.63 -22.77,-10.33 -38.25,-9.07 -53.97,3.52z"/>
    <path class="fil24" d="M24804.73 4608.41c-9.65,10.91 -8.82,121.66 -6.45,144.31 2.63,25.2 38.02,26.76 49.31,13.97 26.74,-30.32 -21.17,-106.56 29.49,-118.93 19.1,-4.66 46.39,-2.36 37.9,-35.28 -6.2,-24.04 -36.72,-10.6 -53.35,-6.19 -21.79,5.77 -37.39,-15.78 -56.9,2.12z"/>
    <path class="fil24" d="M24701.14 4767.63c55.8,22.9 51.85,-9.39 52.85,-50.93 0.47,-19.58 2.86,-96.74 -4.85,-106.73 -8.38,-10.86 -36.06,-10.7 -44.35,-2.69 -11.71,11.31 -6.34,147.19 -3.65,160.35z"/>
    <path class="fil24" d="M24701.8 4575.64c37.82,14.42 69.08,-10.33 47.78,-38.65 -7.12,-9.47 -28.99,-12.05 -41.27,-5.35 -13.51,7.36 -10.61,28.94 -6.51,44z"/>
   </g>
  </g>
 </g>
</svg>
