<?xml version="1.0" encoding="UTF-8"?>
<!DOCTYPE svg PUBLIC "-//W3C//DTD SVG 1.1//EN" "http://www.w3.org/Graphics/SVG/1.1/DTD/svg11.dtd">
<!-- Creator: CorelDRAW 2018 (64-Bit Evaluation Version) -->
<svg xmlns="http://www.w3.org/2000/svg" xml:space="preserve" width="440.267mm" height="440.267mm" version="1.1" style="shape-rendering:geometricPrecision; text-rendering:geometricPrecision; image-rendering:optimizeQuality; fill-rule:evenodd; clip-rule:evenodd"
viewBox="0 0 65244.65 65244.65"
 xmlns:xlink="http://www.w3.org/1999/xlink">
 <defs>
  <style type="text/css">
   <![CDATA[
    .str1 {stroke:#00C2FF;stroke-width:180.59;stroke-miterlimit:22.9256;stroke-opacity:0.450980}
    .str2 {stroke:#3B9CFF;stroke-width:180.59;stroke-miterlimit:22.9256;stroke-opacity:0.450980}
    .str3 {stroke:#00C2FF;stroke-width:180.59;stroke-miterlimit:22.9256;stroke-dasharray:180.588604 180.588604;stroke-opacity:0.450980}
    .str0 {stroke:#99D2FF;stroke-width:125.48;stroke-miterlimit:22.9256}
    .str4 {stroke:#99E7FF;stroke-width:180.59;stroke-miterlimit:22.9256}
    .fil4 {fill:none}
    .fil17 {fill:none}
    .fil18 {fill:#FEFEFE}
    .fil13 {fill:#B9DFFF}
    .fil12 {fill:#D7EEFF}
    .fil16 {fill:#ECFBFF}
    .fil10 {fill:white}
    .fil11 {fill:#99D2FF;fill-rule:nonzero}
    .fil14 {fill:#B9DFFF;fill-rule:nonzero}
    .fil3 {fill:#00C2FF;fill-opacity:0.019608}
    .fil1 {fill:#3B9CFF;fill-opacity:0.090196}
    .fil9 {fill:#3B9CFF;fill-opacity:0.188235}
    .fil6 {fill:#99D2FF;fill-opacity:0.341176}
    .fil8 {fill:#3B9CFF;fill-rule:nonzero;fill-opacity:0.341176}
    .fil7 {fill:#99D2FF;fill-rule:nonzero;fill-opacity:0.341176}
    .fil0 {fill:#D8F6FF;fill-opacity:0.490196}
    .fil2 {fill:white;fill-opacity:0.701961}
    .fil5 {fill:white;fill-opacity:0.721569}
    .fil15 {fill:#B9DFFF}
   ]]>
  </style>
 </defs>
 <g id="Layer_x0020_1">
  <metadata id="CorelCorpID_0Corel-Layer"/>
  <g id="_2574144196528">
   <polygon class="fil0" points="-0,0 65244.65,0 65244.65,65244.65 -0,65244.65 "/>
   <path class="fil1" d="M10862.09 3924.98l32988.33 0c1509.56,0 2744.65,1235.09 2744.65,2744.65l0 54213.76c0,1509.56 -1235.09,2744.65 -2744.65,2744.65l-32988.33 0c-1509.56,0 -2744.65,-1235.09 -2744.65,-2744.65l0 -54213.76c0,-1509.56 1235.09,-2744.65 2744.65,-2744.65z"/>
   <path class="fil2" d="M34599.75 31623.22l24832.36 0c1557,0 2830.88,1273.89 2830.88,2830.9l0 11500.01c0,1557.02 -1273.89,2830.9 -2830.88,2830.9l-24832.36 0c-1557,0 -2830.88,-1273.87 -2830.88,-2830.9l0 -11500.01c0,-1557.01 1273.89,-2830.9 2830.88,-2830.9z"/>
   <g>
    <path class="fil3" d="M34341.38 33073.5c728.15,0 1318.45,592.95 1318.45,1324.39 0,731.42 -590.3,1324.38 -1318.45,1324.38 -728.16,0 -1318.45,-592.95 -1318.45,-1324.38 0,-731.44 590.28,-1324.39 1318.45,-1324.39z"/>
    <polyline class="fil4 str0" points="33792,34341.43 34314.61,33869.28 34863.97,34335.49 "/>
    <line class="fil4 str0" x1="34314.61" y1="33869.28" x2="34314.61" y2= "35113.5" />
   </g>
   <path class="fil5" d="M8731.93 15241.52c-2620.97,-155.77 -3045.42,650.95 -3138.83,2641.89l20.1 37438.91c-30.25,2589.01 632.34,3771.18 2523.62,3911.6l16647.39 40.52c2702.38,197.17 3643.63,-1325.35 3578.19,-3830.56l0 -37291.84c-34.48,-2351.76 -878.39,-3035.43 -3070.3,-3019.78l-1908.27 1876.47 -12644.26 51.51 -2007.64 -1818.7z"/>
   <path class="fil5" d="M25758.61 60030l-16927.25 85.95c-3619.7,90.19 -4094.6,-1681.97 -4005.11,-4982.7l16.82 -38163.3c187.04,-1372.48 849.65,-2213.6 2050.48,-2453.2l2084.36 -0.93c607.18,240.03 852.44,1788.89 2532.21,1784.41l11117.64 2.03c1658.82,-333.08 1499.26,-1675.8 2630.85,-1805.2l1845.76 51.05c1254.24,179.18 1912.72,1418.45 1929.36,2842.4l23.58 39126.86c1.27,2116.99 -918.44,3500.54 -3298.7,3512.62zm-18994.97 -47388.76c-2275.11,359.62 -3601.1,1826.84 -3550.57,4899.71l-112.75 39688.32c-70.14,3140.32 1751.71,4529.1 4901.99,4688l18418.23 -15.47c2464.77,52.15 3984.98,-1106.5 4332.78,-3767.69l107 -40744.94c-56.12,-2720.2 -2269.45,-4756.37 -4878.41,-4740.9l-19218.27 -7.02z"/>
   <path class="fil6" d="M7005.45 24944.63l19947.79 0c416.39,0 757.05,340.68 757.05,757.08l0 7917.61c0,416.39 -340.65,757.08 -757.05,757.08l-19947.79 0c-416.39,0 -757.05,-340.68 -757.05,-757.08l0 -7917.61c0,-416.39 340.65,-757.08 757.05,-757.08z"/>
   <path class="fil6" d="M7004.91 35926.15l19948.85 0c416.1,0 756.51,340.43 756.51,756.54l0 7912.02c0,416.11 -340.42,756.54 -756.51,756.54l-19948.85 0c-416.1,0 -756.51,-340.43 -756.51,-756.54l0 -7912.02c0,-416.11 340.42,-756.54 756.51,-756.54z"/>
   <path class="fil6" d="M7004.93 46912.46l19948.83 0c416.11,0 756.53,340.44 756.53,756.54l0 7912.02c0,416.11 -340.42,756.54 -756.53,756.54l-19948.83 0c-416.1,0 -756.53,-340.43 -756.53,-756.54l0 -7912.02c0,-416.1 340.43,-756.54 756.53,-756.54z"/>
   <path class="fil7" d="M7038.15 19465.28l593.83 1236.97 594.64 -1236.97 207.86 0 205.01 1684.89 -224.16 0 -154.48 -1266.71 -526.58 1080.45 -200.52 0 -529.84 -1080.45 -154.46 1266.71 -224.17 0 205.01 -1684.89 207.86 0zm2938.96 542.88l-709.17 1697.11 -232.72 0 239.66 -590.15 -457.3 -1106.96 237.61 0 341.54 826.55 342.77 -826.55 237.6 0zm802.51 657.82l228.65 0c1.63,75.82 35.86,144.28 102.7,205.83 66.85,61.54 151.2,91.7 253.91,90.07 102.71,0 183,-22.82 241.27,-68.07 57.88,-45.24 92.52,-105.16 103.53,-178.91 12.64,-153.66 -82.74,-253.51 -286.52,-299.57l-217.24 -55.84c-273.88,-69.68 -410.82,-216.41 -410.82,-439.35 0,-138.16 53.79,-251.47 161.4,-339.5 103.51,-90.09 231.91,-134.92 384.33,-134.92 152.85,0 281.23,45.24 385.97,136.13 104.34,90.49 156.51,209.9 156.51,357.84l-227.42 0c0,-83.14 -29.34,-149.99 -88.44,-200.94 -60.33,-50.12 -134.1,-75.4 -221.73,-75.4 -87.21,0 -164.24,22.84 -230.26,68.48 -61.96,45.64 -92.93,105.14 -92.93,178.51 0,113.71 81.11,189.51 242.92,227.42l219.67 53.81c161,42.78 279.6,109.63 355.81,200.92 76.62,91.3 107.19,202.57 92.1,333.39 -15.07,131.24 -73.36,238.43 -174.44,322.8 -101.07,83.95 -232.31,125.93 -393.71,125.93 -161.4,0 -299.97,-49.72 -415.71,-149.57 -112.89,-103.11 -169.55,-222.94 -169.55,-359.07zm1768.44 -1075.97l0 418.16 239.64 0 0 198.09 -239.64 0 0 943.92 -222.53 0 0 -943.92 -205.43 0 0 -198.09 205.43 0 0 -418.16 222.53 0zm1282.61 1266.31c71.33,-70.11 107.19,-162.21 107.19,-276.34 0,-114.52 -35.86,-205.81 -107.19,-274.29 -71.33,-68.88 -160.17,-103.51 -266.54,-104.33 -105.97,0 -195.23,34.23 -267.37,103.11 -72.96,69.28 -109.63,160.58 -109.63,274.29 0,113.29 35.86,205.41 107.19,276.32 71.33,71.33 160.58,106.79 267.77,106.79 107.6,0 197.26,-35.05 268.59,-105.56zm-267.36 318.3c-166.29,0 -307.31,-55.02 -423.88,-165.06 -116.57,-110.05 -174.84,-253.51 -174.84,-430.8 0,-177.3 57.45,-321.16 171.99,-431.21 114.52,-110.03 255.95,-164.66 424.68,-163.84 169.55,0 311.38,55.02 425.91,165.07 115.34,110.85 173.21,254.31 173.21,429.98 0,175.65 -57.87,318.72 -173.62,429.57 -115.74,110.86 -257.16,166.29 -423.45,166.29zm1116.31 -439.76l0 415.31 -222.53 0 0 -1142.01 222.53 0 0 257.59c55.84,-187.89 161.4,-282.04 317.5,-282.04 90.07,0 156.09,14.67 198.48,43.61l-34.63 208.67c-50.13,-26.48 -106.39,-39.52 -168.33,-39.52 -100.67,0 -177.7,48.09 -231.91,144.27 -54.21,96.59 -81.11,227.83 -81.11,394.12zm1818.16 -158.95c0,50.55 -0.82,79.48 -2.45,87.63l-926.8 0c11,92.12 51.76,168.33 121.86,229.06 67.65,55.82 143.47,83.95 227.83,83.95 165.06,0 280.41,-59.1 346.43,-177.3 1.63,0 4.08,0.41 7.34,2.05 2.85,1.63 8.55,4.49 16.72,8.57 9.37,4.08 22.01,8.97 37.89,14.26 15.9,5.71 28.13,10.6 35.86,14.67l93.33 34.65c-46.86,96.18 -117.78,170.36 -212.75,222.53 -94.55,52.58 -198.89,78.66 -312.6,78.66 -163.43,0 -302.82,-55.02 -418.97,-165.47 -110.46,-110.45 -165.47,-255.13 -165.47,-433.24 0,-178.51 55.01,-321.57 164.66,-429.57 110.03,-107.6 249.01,-161.81 417.74,-162.63 168.73,0 304.86,54.62 408.39,163.44 107.19,108.4 160.98,251.47 160.98,428.75zm-333.39 -312.2c-63.58,-54.61 -142.65,-81.92 -236.38,-81.92 -94.15,0 -174.85,27.31 -242.5,81.92 -66.84,58.28 -105.97,134.1 -116.97,226.2l707.94 0c-11,-92.1 -48.49,-167.92 -112.08,-226.2z"/>
   <path class="fil8" d="M57784.28 35610.1l94.83 0c0.67,31.43 14.86,59.83 42.59,85.34 27.71,25.53 62.7,38.04 105.29,37.36 42.59,0 75.89,-9.47 100.06,-28.23 23.99,-18.76 38.35,-43.6 42.92,-74.19 5.25,-63.72 -34.31,-105.13 -118.81,-124.23l-90.09 -23.15c-113.58,-28.91 -170.36,-89.75 -170.36,-182.2 0,-57.29 22.3,-104.28 66.92,-140.78 42.93,-37.34 96.18,-55.94 159.38,-55.94 63.38,0 116.61,18.76 160.05,56.45 43.27,37.52 64.91,87.05 64.91,148.4l-94.31 0c0,-34.48 -12.17,-62.2 -36.68,-83.33 -25.02,-20.79 -55.6,-31.27 -91.94,-31.27 -36.17,0 -68.11,9.47 -95.5,28.39 -25.68,18.94 -38.53,43.61 -38.53,74.02 0,47.16 33.63,78.6 100.73,94.31l91.09 22.32c66.76,17.74 115.95,45.47 147.56,83.31 31.77,37.86 44.44,84.01 38.19,138.26 -6.25,54.42 -30.42,98.86 -72.33,133.85 -41.91,34.83 -96.34,52.22 -163.26,52.22 -66.92,0 -124.39,-20.61 -172.39,-62.02 -46.81,-42.77 -70.32,-92.46 -70.32,-148.9zm934.14 78.08c30.41,-28.39 45.63,-66.58 45.63,-114.76 0,-48.16 -15.89,-86.19 -47.5,-113.92 -31.77,-27.71 -69.12,-41.75 -112.05,-42.07 -43.09,0 -79.11,14.36 -108.17,43.09 -29.08,28.39 -43.61,65.58 -43.61,111.89 0,46.13 14.88,84.16 44.62,113.74 29.74,29.74 66.42,44.62 110.03,44.62 43.6,0 80.62,-14.2 111.04,-42.59zm138.92 122.7l-92.28 0 0 -72.67c-14.86,24.84 -37.34,44.78 -67.43,60 -30.08,15.2 -62.88,22.81 -98.71,22.81 -65.58,0 -122.53,-22.98 -170.69,-68.95 -46.49,-45.81 -69.81,-105.29 -69.81,-178.14 0,-73 22.98,-132.34 68.79,-177.79 45.97,-45.64 103.26,-68.63 171.89,-68.97 34.31,0 67.43,7.1 99.04,21.3 31.11,15.56 53.41,35.49 66.92,60l0 -71.15 92.28 0 0 473.57zm152.8 0l0 -731.14 92.28 0 0 731.14 -92.28 0zm692.26 -238.13c0,20.95 -0.33,32.96 -1.01,36.34l-384.34 0c4.56,38.19 21.47,69.8 50.53,94.98 28.07,23.16 59.5,34.83 94.49,34.83 68.45,0 116.27,-24.51 143.66,-73.53 0.67,0 1.69,0.18 3.04,0.84 1.19,0.68 3.56,1.87 6.94,3.56 3.88,1.69 9.13,3.72 15.71,5.91 6.59,2.37 11.66,4.4 14.88,6.09l38.71 14.36c-19.44,39.89 -48.84,70.64 -88.23,92.28 -39.21,21.8 -82.47,32.62 -129.62,32.62 -67.78,0 -125.58,-22.81 -173.74,-68.61 -45.81,-45.81 -68.63,-105.8 -68.63,-179.65 0,-74.04 22.82,-133.36 68.29,-178.14 45.63,-44.62 103.26,-67.1 173.24,-67.44 69.96,0 126.42,22.66 169.34,67.78 44.46,44.95 66.76,104.27 66.76,177.8zm-138.25 -129.48c-26.36,-22.64 -59.14,-33.97 -98.03,-33.97 -39.03,0 -72.5,11.32 -100.55,33.97 -27.73,24.17 -43.95,55.62 -48.52,93.81l293.59 0c-4.56,-38.19 -20.12,-69.64 -46.49,-93.81zm288.68 -81.46c31.61,-23.15 69.8,-34.65 114.76,-34.65 44.78,0 81.97,11.5 111.2,34.48 29.42,22.98 46.15,55.78 50.03,98.37l-88.06 0c-2.7,-15.38 -10.82,-27.73 -24.33,-37.02 -14.88,-9.13 -31.27,-13.69 -49.53,-13.69 -18.08,0 -33.46,3.88 -45.97,11.66 -13.52,6.09 -21.98,16.73 -25.68,31.61 -3.56,14.86 -3.05,26.7 1.51,35.49 7.6,15.2 26.2,27.05 55.78,35.49l69.8 17.07c81.97,20.11 122.87,66.24 122.87,138.41 0,42.77 -17.74,77.24 -53.41,103.78 -36,25.52 -78.08,38.19 -126.25,38.19 -48.34,0 -90.25,-13.86 -125.92,-41.75 -35.66,-27.71 -53.73,-64.55 -54.42,-110.7l87.21 0c3.88,24.51 16.39,42.59 37.69,54.09 20.63,13.01 42.93,18.76 66.94,17.4 23.99,-1.35 42.59,-7.77 55.77,-19.27 13.19,-11.66 20.61,-25.68 22.32,-42.25 1.35,-16.57 -3.72,-29.74 -15.38,-39.72 -11.5,-9.97 -27.39,-17.23 -47.5,-21.8l-64.91 -15.04c-45.79,-12.34 -79.59,-30.42 -101.23,-54.59 -20.79,-25.02 -29.4,-56.28 -25.7,-93.97 3.56,-37.7 21.13,-68.11 52.4,-91.61z"/>
   <path class="fil8" d="M57701.76 38225.2l0 -698.7 406.64 0 0 88.23 -312.33 0 0 223.09 247.44 0 0 88.22 -247.44 0 0 299.16 -94.31 0zm842.7 -121.86c29.56,-29.08 44.44,-67.27 44.44,-114.58 0,-47.5 -14.88,-85.36 -44.44,-113.75 -29.58,-28.56 -66.44,-42.93 -110.54,-43.26 -43.94,0 -80.96,14.2 -110.88,42.75 -30.25,28.73 -45.47,66.58 -45.47,113.74 0,46.99 14.88,85.18 44.46,114.6 29.58,29.58 66.58,44.28 111.04,44.28 44.62,0 81.8,-14.54 111.38,-43.78zm-110.88 132c-68.95,0 -127.43,-22.81 -175.77,-68.45 -48.34,-45.63 -72.51,-105.11 -72.51,-178.65 0,-73.52 23.83,-133.18 71.33,-178.81 47.5,-45.63 106.14,-68.27 176.11,-67.95 70.3,0 129.12,22.82 176.62,68.45 47.84,45.97 71.83,105.47 71.83,178.31 0,72.85 -23.99,132.17 -71.99,178.14 -48,45.97 -106.65,68.95 -175.61,68.95zm462.93 -182.37l0 172.23 -92.28 0 0 -473.57 92.28 0 0 106.82c23.15,-77.92 66.92,-116.97 131.66,-116.97 37.34,0 64.73,6.09 82.31,18.09l-14.36 86.53c-20.79,-10.98 -44.12,-16.39 -69.8,-16.39 -41.75,0 -73.7,19.93 -96.18,59.83 -22.48,40.06 -33.63,94.47 -33.63,163.43zm753.95 -65.9c0,20.95 -0.33,32.96 -1.01,36.34l-384.34 0c4.56,38.19 21.47,69.8 50.53,94.98 28.07,23.16 59.5,34.83 94.49,34.83 68.45,0 116.27,-24.51 143.66,-73.53 0.67,0 1.69,0.18 3.04,0.84 1.19,0.68 3.56,1.87 6.94,3.56 3.88,1.69 9.13,3.72 15.71,5.91 6.59,2.37 11.66,4.4 14.88,6.09l38.71 14.36c-19.44,39.89 -48.84,70.64 -88.23,92.28 -39.21,21.8 -82.47,32.62 -129.62,32.62 -67.78,0 -125.58,-22.81 -173.74,-68.61 -45.81,-45.81 -68.63,-105.8 -68.63,-179.65 0,-74.04 22.82,-133.36 68.29,-178.14 45.63,-44.62 103.26,-67.1 173.24,-67.44 69.96,0 126.42,22.66 169.34,67.78 44.46,44.95 66.76,104.27 66.76,177.8zm-138.25 -129.48c-26.36,-22.64 -59.14,-33.97 -98.03,-33.97 -39.03,0 -72.5,11.32 -100.55,33.97 -27.73,24.17 -43.95,55.62 -48.52,93.81l293.59 0c-4.56,-38.19 -20.12,-69.64 -46.49,-93.81zm478.81 -116.11c73.01,0 132.86,25.52 179.67,76.39l-70.32 58.48c-29.58,-29.74 -66.76,-44.61 -111.37,-44.61 -44.46,0 -82.32,14.36 -113.41,43.26 -31.27,28.39 -46.99,66.08 -46.99,113.23 0,46.99 15.89,85.18 47.5,114.6 31.77,29.58 69.64,44.28 113.92,44.28 44.62,0 81.46,-15.55 110.36,-46.65l71.33 58.82c-47.16,50.71 -106.82,76.05 -178.65,76.05 -71.99,0 -132.84,-22.81 -182.53,-68.45 -49.53,-46.31 -74.2,-105.8 -74.2,-178.65 0,-72.84 24.35,-132.16 72.85,-177.79 48.67,-45.64 109.17,-68.63 181.85,-68.97zm624.18 361.01c30.41,-28.39 45.63,-66.58 45.63,-114.76 0,-48.16 -15.89,-86.19 -47.5,-113.92 -31.77,-27.71 -69.12,-41.75 -112.05,-42.07 -43.09,0 -79.11,14.36 -108.17,43.09 -29.08,28.39 -43.61,65.58 -43.61,111.89 0,46.13 14.88,84.16 44.62,113.74 29.74,29.74 66.42,44.62 110.03,44.62 43.6,0 80.62,-14.2 111.04,-42.59zm138.92 122.7l-92.28 0 0 -72.67c-14.86,24.84 -37.34,44.78 -67.43,60 -30.08,15.2 -62.88,22.81 -98.71,22.81 -65.58,0 -122.53,-22.98 -170.69,-68.95 -46.49,-45.81 -69.81,-105.29 -69.81,-178.14 0,-73 22.98,-132.34 68.79,-177.79 45.97,-45.64 103.26,-68.63 171.89,-68.97 34.31,0 67.43,7.1 99.04,21.3 31.11,15.56 53.41,35.49 66.92,60l0 -71.15 92.28 0 0 473.57zm185.92 -449.07c31.61,-23.15 69.8,-34.65 114.76,-34.65 44.78,0 81.97,11.5 111.2,34.48 29.42,22.98 46.15,55.78 50.03,98.37l-88.06 0c-2.7,-15.38 -10.82,-27.73 -24.33,-37.02 -14.88,-9.13 -31.27,-13.69 -49.53,-13.69 -18.08,0 -33.46,3.88 -45.97,11.66 -13.52,6.09 -21.98,16.73 -25.68,31.61 -3.56,14.86 -3.05,26.7 1.51,35.49 7.6,15.2 26.2,27.05 55.78,35.49l69.8 17.07c81.97,20.11 122.87,66.24 122.87,138.41 0,42.77 -17.74,77.24 -53.41,103.78 -36,25.52 -78.08,38.19 -126.25,38.19 -48.34,0 -90.25,-13.86 -125.92,-41.75 -35.66,-27.71 -53.73,-64.55 -54.42,-110.7l87.21 0c3.88,24.51 16.39,42.59 37.69,54.09 20.63,13.01 42.93,18.76 66.94,17.4 23.99,-1.35 42.59,-7.77 55.77,-19.27 13.19,-11.66 20.61,-25.68 22.32,-42.25 1.35,-16.57 -3.72,-29.74 -15.38,-39.72 -11.5,-9.97 -27.39,-17.23 -47.5,-21.8l-64.91 -15.04c-45.79,-12.34 -79.59,-30.42 -101.23,-54.59 -20.79,-25.02 -29.4,-56.28 -25.7,-93.97 3.56,-37.7 21.13,-68.11 52.4,-91.61zm539.82 -197.91l0 173.42 99.38 0 0 82.13 -99.38 0 0 391.44 -92.28 0 0 -391.44 -85.18 0 0 -82.13 85.18 0 0 -173.42 92.28 0z"/>
   <path class="fil8" d="M44445.71 46487.95l0 724.8 244.65 0c97.57,0 172.87,-33.55 225.88,-100.4 53.25,-66.85 79.76,-153.63 79.76,-260.36 0,-106.25 -26.75,-193.27 -80.45,-261.06 -51.62,-68.73 -126.68,-102.98 -225.18,-102.98l-244.65 0zm244.65 847.24l-375.54 0 0 -969.67 375.54 0c134.16,0 240.65,45.75 319,137.45 78.34,91.72 117.52,207.83 117.52,348.33 0,141.2 -38.95,257.07 -116.82,347.85 -78.11,90.77 -184.59,136.04 -319.7,136.04zm1067.94 -302.34l0 -354.89 128.07 0 0 657.24 -128.07 0 0 -98.04c-18.76,36.11 -46.9,64.03 -84.68,83.27 -37.52,19.24 -77.4,28.85 -119.62,28.85 -81.39,0 -144.01,-25.58 -187.88,-76.94 -43.87,-51.36 -65.68,-122.67 -65.21,-213.92l0 -380.46 128.07 0 0 371.31c0,54.65 12.67,97.57 37.76,128.77 25.34,30.74 63.34,45.98 114.23,45.98 50.9,0 93.12,-15.96 127.14,-48.09 34.01,-32.14 50.67,-79.76 50.19,-143.08zm467.73 63.32l0 239.02 -128.07 0 0 -657.24 128.07 0 0 148.24c32.13,-108.12 92.89,-162.32 182.72,-162.32 51.84,0 89.83,8.45 114.23,25.1l-19.93 120.1c-28.85,-15.25 -61.23,-22.76 -96.87,-22.76 -57.94,0 -102.27,27.68 -133.48,83.05 -31.19,55.59 -46.67,131.11 -46.67,226.81zm883.11 68.73c42.22,-39.4 63.34,-92.41 63.34,-159.26 0,-66.85 -22.05,-119.64 -65.92,-158.09 -44.1,-38.47 -95.94,-57.94 -155.51,-58.42 -59.81,0 -109.77,19.95 -150.12,59.83 -40.34,39.4 -60.51,91.01 -60.51,155.28 0,64.03 20.63,116.81 61.92,157.86 41.29,41.29 92.19,61.93 152.7,61.93 60.52,0 111.89,-19.71 154.11,-59.11zm192.81 170.29l-128.07 0 0 -100.86c-20.64,34.48 -51.84,62.15 -93.6,83.27 -41.75,21.1 -87.26,31.67 -136.98,31.67 -91.01,0 -170.05,-31.91 -236.9,-95.7 -64.51,-63.58 -96.87,-146.13 -96.87,-247.23 0,-101.33 31.89,-183.66 95.47,-246.76 63.8,-63.32 143.3,-95.23 238.55,-95.7 47.61,0 93.58,9.85 137.45,29.56 43.15,21.58 74.11,49.24 92.89,83.27l0 -98.76 128.07 0 0 657.24zm389.38 -897.9l0 240.67 137.91 0 0 113.99 -137.91 0 0 543.25 -128.08 0 0 -543.25 -118.21 0 0 -113.99 118.21 0 0 -240.67 128.08 0zm282.87 57.71c-16.66,-16.18 -24.87,-35.89 -24.87,-59.11 0,-23.44 8.21,-42.92 24.87,-59.1 18.52,-15.96 39.4,-23.93 63.1,-23.93 23.68,0 44.56,7.75 62.39,23.22 18.06,15.72 26.97,35.66 26.97,59.81 0,24.17 -8.91,44.1 -26.97,59.83 -17.83,15.47 -38.71,23.22 -62.39,23.22 -23.7,0 -44.58,-7.99 -63.1,-23.93zm127.14 840.2l-128.07 0 0 -657.24 128.07 0 0 657.24zm667.32 -169.12c41.05,-40.34 61.69,-93.36 61.69,-159.03 0,-65.92 -20.64,-118.47 -61.69,-157.87 -41.05,-39.64 -92.18,-59.57 -153.4,-60.05 -61,0 -112.36,19.71 -153.88,59.35 -41.98,39.88 -63.09,92.41 -63.09,157.86 0,65.21 20.64,118.21 61.68,159.04 41.05,41.03 92.43,61.44 154.11,61.44 61.93,0 113.53,-20.17 154.58,-60.74zm-153.87 183.2c-95.7,0 -176.85,-31.67 -243.94,-95.01 -67.09,-63.32 -100.62,-145.9 -100.62,-247.93 0,-102.03 33.06,-184.83 98.98,-248.16 65.92,-63.32 147.3,-94.75 244.42,-94.3 97.57,0 179.2,31.67 245.11,95.01 66.38,63.8 99.69,146.36 99.69,247.45 0,101.1 -33.31,183.43 -99.93,247.23 -66.61,63.8 -148,95.7 -243.7,95.7zm642.46 -368.5l0 354.42 -128.07 0 0 -657.24 128.07 0 0 98.76c18.76,-36.6 46.9,-64.75 84.68,-83.98 37.52,-19.24 77.86,-28.85 120.79,-28.85 82.56,0 144.73,25.34 186.71,76.23 43.87,49.97 66.15,121.74 66.61,215.1l0 379.98 -128.07 0 0 -371.55c0,-55.35 -13.13,-98.04 -39.17,-127.83 -25.34,-31.19 -62.63,-46.68 -112.12,-46.68 -49.96,0 -92.41,16.2 -127.14,48.8 -34.94,32.37 -52.3,80.22 -52.3,142.84z"/>
   <g>
    <path class="fil9" d="M17619.27 27114.7l8328.52 0c184.17,0 334.87,150.7 334.87,334.87l0 0c0,184.2 -150.7,334.9 -334.87,334.9l-8328.52 0c-184.17,0 -334.87,-150.7 -334.87,-334.9l0 0c0,-184.17 150.7,-334.87 334.87,-334.87z"/>
    <g>
     <path class="fil9" d="M17663.6 28279.53l5270.86 0c208.21,0 378.56,170.33 378.56,378.56l0 0.03c0,208.21 -170.35,378.56 -378.56,378.56l-5270.86 0c-208.21,0 -378.56,-170.35 -378.56,-378.56l0 -0.03c0,-208.23 170.35,-378.56 378.56,-378.56z"/>
     <g>
      <g>
       <path class="fil9" d="M19718.42 31075.11l4164.24 0c168.18,0 305.78,137.58 305.78,305.75l0 0c0,168.2 -137.6,305.78 -305.78,305.78l-4164.24 0c-168.17,0 -305.75,-137.58 -305.75,-305.78l0 0c0,-168.17 137.58,-305.75 305.75,-305.75z"/>
       <g>
        <circle class="fil10" cx="18101.18" cy="31380.86" r="825.46"/>
        <polygon class="fil11" points="17720.96,31503.88 17720.96,31257.86 18481.36,31257.86 18481.36,31503.88 "/>
       </g>
      </g>
      <g>
       <circle class="fil10" cx="25465.88" cy="31380.86" r="825.46"/>
       <polygon class="fil11" points="25358.98,31990.01 25358.98,31485.19 24856.73,31485.19 24856.73,31274 25358.98,31274 25358.98,30771.76 25572.75,30771.76 25572.75,31274 26074.99,31274 26074.99,31485.19 25572.75,31485.19 25572.75,31990.01 "/>
      </g>
     </g>
    </g>
   </g>
   <path class="fil10" d="M8133.27 26675.66l7687.82 0c256.26,0 465.92,209.68 465.92,465.94l0 5037.84c0,256.26 -209.66,465.94 -465.92,465.94l-7687.82 0c-256.26,0 -465.94,-209.68 -465.94,-465.94l0 -5037.84c0,-256.26 209.68,-465.94 465.94,-465.94z"/>
   <g>
    <path class="fil12" d="M11203.65 31662.55l0 -1827.09c0,-149.82 47.75,-229.54 194.55,-230.83 165.41,-1.45 200.97,85.92 200.98,249.93l-0.12 1808.7c-0.79,163.24 -23.44,251.17 -200.94,250.62 -169.34,-0.52 -194.47,-94.37 -194.47,-251.34zm-150.16 -2716.21c29.62,134.1 129.57,38.74 203.71,125.89 53.56,62.92 46.1,229.21 7.16,294.42 -91.32,134.32 -233.79,-22.38 -234.21,271.12l0.82 1533.62c0,280.81 -59.81,729.87 102.51,912.58 200.18,225.31 492.88,161.62 854.05,161.62 356.2,0 656.99,61.12 845.15,-170.75 145.11,-178.81 93.6,-665.24 93.6,-923.08l0.93 -1533.64c-2.52,-250.74 -148.37,-127.4 -234.31,-253.14 -17.07,-25.92 -102.13,-277.11 84.31,-331.24 173.34,-50.33 150.4,-73.46 149.29,-278.53 -1.47,-265.64 16.78,-588.67 -2.99,-845.18 -243.16,-61 -1001.18,-0.58 -1315.69,-13.07l6.11 0.62c-111.19,332.95 157.83,935.19 -216.24,926.55 -213.16,-4.92 -194.46,-172.47 -194.04,-363.9 0.4,-184.56 -1.99,-369.79 1.62,-555.49l-161.69 -2.99 9.94 1044.6z"/>
    <path class="fil13" d="M11203.65 31662.55c0,156.97 25.13,250.82 194.47,251.34 177.49,0.55 200.15,-87.39 200.94,-250.62l0.12 -1808.7c-0.01,-164.01 -35.57,-251.38 -200.98,-249.93 -146.8,1.29 -194.55,81 -194.55,230.83l0 1827.09z"/>
    <path class="fil13" d="M11028.04 27899.52l168.78 -7.68 417.09 5.74 -6.11 -0.61c314.51,12.48 1072.54,-47.94 1315.71,13.06 9.99,-228.2 -31.94,-386.74 -217,-443.8 -108.42,-33.43 -523.57,-30.88 -624.25,-5.45 -13.13,-422.77 84.68,-162.05 36.65,-368.84 -59.66,-25.87 -226.19,-37.83 -285.02,-4.16 -83.26,77.49 -24.64,76.69 2.49,145.47 24.11,61.07 15.53,148.88 5.41,217.21 -543.46,0.06 -801.45,-94.98 -813.75,449.07z"/>
    <path class="fil13" d="M11053.49 28946.34l-9.94 -1044.6 161.69 2.99c-3.6,185.7 -1.22,370.93 -1.62,555.49 -0.41,191.44 -19.12,358.98 194.04,363.9 374.07,8.64 105.05,-593.6 216.24,-926.55l-417.11 -5.74 -168.76 7.68c-16.7,158.4 -4.61,376.07 -4.61,541.05 0,91.67 0.37,183.42 -0.12,275.09 -0.44,84.74 -16.66,181.46 30.17,230.68z"/>
   </g>
   <g>
    <g>
     <path class="fil9" d="M17702.65 38092.89l8328.52 0c184.17,0 334.87,150.7 334.87,334.87l0 0c0,184.2 -150.7,334.9 -334.87,334.9l-8328.52 0c-184.17,0 -334.87,-150.7 -334.87,-334.9l0 0c0,-184.17 150.7,-334.87 334.87,-334.87z"/>
     <g>
      <path class="fil9" d="M17746.97 39257.72l5270.86 0c208.21,0 378.56,170.33 378.56,378.56l0 0.03c0,208.21 -170.35,378.56 -378.56,378.56l-5270.86 0c-208.21,0 -378.56,-170.35 -378.56,-378.56l0 -0.03c0,-208.23 170.35,-378.56 378.56,-378.56z"/>
      <g>
       <g>
        <path class="fil9" d="M19801.79 42053.3l4164.24 0c168.18,0 305.78,137.58 305.78,305.75l0 0c0,168.2 -137.6,305.78 -305.78,305.78l-4164.24 0c-168.17,0 -305.75,-137.58 -305.75,-305.78l0 0c0,-168.17 137.58,-305.75 305.75,-305.75z"/>
        <g>
         <circle class="fil10" cx="18184.55" cy="42359.05" r="825.46"/>
         <polygon class="fil11" points="17804.34,42482.07 17804.34,42236.05 18564.73,42236.05 18564.73,42482.07 "/>
        </g>
       </g>
       <g>
        <circle class="fil10" cx="25549.25" cy="42359.05" r="825.46"/>
        <polygon class="fil11" points="25442.35,42968.2 25442.35,42463.38 24940.11,42463.38 24940.11,42252.19 25442.35,42252.19 25442.35,41749.95 25656.12,41749.95 25656.12,42252.19 26158.36,42252.19 26158.36,42463.38 25656.12,42463.38 25656.12,42968.2 "/>
       </g>
      </g>
     </g>
    </g>
    <g>
     <path class="fil10" d="M8049.87 37653.87l7687.82 0c256.26,0 465.92,209.66 465.92,465.92l0 5037.84c0,256.27 -209.66,465.94 -465.92,465.94l-7687.82 0c-256.26,0 -465.92,-209.66 -465.92,-465.94l0 -5037.84c0,-256.26 209.66,-465.92 465.92,-465.92z"/>
     <g>
      <path class="fil13" d="M12611.24 40366.74l-155.51 672.64c-45.73,121.27 -172.04,90.98 -306.95,90.52 -264.24,-0.93 -2005.5,14.33 -2049.15,-6.62 -112.6,-89.49 -65.92,-311.4 -65.92,-453.29 0,-159.96 -16.21,-338.86 18.2,-488.46 44.77,-19.09 77.15,-34.59 148.27,-31.92 29.98,-56.24 83.92,-39.2 175.61,-38.17 552.18,6.24 3340.71,-25.77 3393.9,22.11 67.86,61.12 18.36,203.69 7.94,214.04 -101.57,46.12 -970.12,8.42 -1166.39,19.18zm1249.85 945.87c204.71,56.31 397.75,60.71 626.09,39.67l-85.09 -138.23c22.33,-53.57 38.78,-63.41 63.72,-120.91 -86.13,-147.62 -78.78,-74.27 1.24,-221.65 -22.05,-56.14 -37.86,-62 -67.84,-123.27l65.49 -98.4c-15.09,-52.91 -36.63,-75.47 -65.43,-122.27l66.48 -119.53c-70.02,-144.53 -95.6,-68.05 3.62,-223.88l-72.19 -122.57 86.16 -136.66c-216.3,-23.18 -424.81,-12.43 -621.17,41.91 -208.52,57.69 -1693.61,27.85 -1975.26,27.85 -298.17,0 -1745.59,32.1 -1972.74,-31.7 -209.37,-58.79 -380.32,-51.51 -613.77,-41.11l85.17 143.6c-50.13,105.91 -84.46,56.95 -29.79,174.63 40.77,87.73 18.72,78.23 -36.57,169.47l67.84 120.75 -63.86 99.36c19.72,68.01 34.63,62.58 66.11,123.3l-67.4 118.53c77.74,133.6 82.62,86.6 0.96,221.65 23.92,64.4 38.07,67.21 66.11,123.33l-83.71 140.8c250.31,13.06 411.7,12.45 640.91,-49.76 175.33,-47.6 437.69,-23.98 631.79,-23.98 436.82,0 3050.07,-35.02 3283.12,29.09z"/>
      <path class="fil10" d="M10200.17 40149.59c-71.12,-2.67 -103.5,12.83 -148.27,31.92 -34.41,149.6 -18.2,328.5 -18.2,488.46 0,141.9 -46.68,363.8 65.92,453.29 43.64,20.95 1784.9,5.69 2049.15,6.62 134.92,0.46 261.22,30.75 306.95,-90.52l155.51 -672.64 -2411.06 -217.15z"/>
      <path class="fil10" d="M10200.17 40149.59c-17.8,80.72 -20.07,119.84 4.34,186.12 22.17,9.91 -20.58,7.41 51.1,13.34 4.64,0.39 30.79,-7.99 37.12,-10.2 171.25,-12.43 264.36,-6.89 398.14,28.35l253.07 -9.56c68.97,-32.68 126.6,-38.22 189.5,7.32l233.88 -9.74c106.42,-49.32 313.93,-13.96 412.42,11.44l831.5 0.07c89.61,-290.7 -173.53,-219.65 -402.12,-219.7 -221.52,-0.04 -443.02,-0.01 -664.54,-0.01 -438.34,0 -910.72,-16.52 -1344.4,2.56z"/>
      <path class="fil12" d="M10200.17 40149.59c433.67,-19.09 906.06,-2.56 1344.4,-2.56 221.52,0 443.02,-0.03 664.54,0.01 228.59,0.04 491.74,-71 402.12,219.7 196.27,-10.76 1064.81,26.94 1166.39,-19.18 10.42,-10.34 59.91,-152.92 -7.94,-214.04 -53.19,-47.88 -2841.71,-15.87 -3393.9,-22.11 -91.69,-1.02 -145.63,-18.06 -175.61,38.17z"/>
      <path class="fil10" d="M10426.24 40730.42c22.93,46.65 -43.95,48.56 70.66,52.49 73.18,2.5 65.23,-21.27 82.13,-52.49 -14.75,-29.18 10.31,-42.5 -62.11,-53.41 -115.32,-17.37 -77.74,26.35 -90.68,53.41z"/>
      <polygon class="fil10" points="11529.77,40466.77 11526.56,40580.42 11660.74,40569.96 11665.75,40487.87 "/>
      <path class="fil10" d="M10428.42 40488.61c16.63,79.62 -26.9,46.58 48.73,63.83 38.55,8.79 62.48,-9.07 82.71,-16.95 -9.48,-61.75 20.78,-58.67 -43.41,-77.86 -80.53,-24.05 -85.74,29.19 -88.03,30.99z"/>
      <path class="fil10" d="M11051.99 40556.28c-30.26,26.05 -32.48,8.37 -49.97,57.83 -9.47,26.75 -4.22,49.64 -4.65,76.08l63.9 1.19c0.43,-0.93 42.56,-2.3 -9.28,-135.09z"/>
      <path class="fil14" d="M10400.86 40571.08l0 -326.78 123.19 0c16.43,0 31.12,3.08 44.15,9.17 12.94,6.09 23.34,14.3 31.12,24.59 7.85,10.27 13.74,21.65 17.66,34.14 4,12.49 5.96,25.7 5.96,39.36 0,14 -1.96,27.19 -5.96,39.76 -3.99,12.58 -9.88,23.87 -17.66,34 -7.85,10.2 -18.26,18.26 -31.28,24.27 -13.01,6.08 -27.7,9.08 -44.21,9.08l-59.26 0 0 112.4 -63.71 0zm63.71 -173.58l56.58 0c11.71,0 20.94,-4.76 27.85,-14.15 6.83,-9.41 10.25,-20.01 10.25,-31.79 0,-11.38 -3.28,-21.96 -9.75,-31.61 -6.48,-9.65 -15.41,-14.46 -26.69,-14.46l-58.24 0 0 92.01z"/>
      <path id="1" class="fil14" d="M10668.69 40571.08l0 -326.78 122.02 0c16.21,0 30.82,3.08 43.78,9.17 12.94,6.09 23.41,14.3 31.27,24.51 7.93,10.27 13.89,21.65 18.04,34.22 4.08,12.49 6.11,25.61 6.11,39.36 0,24.82 -6.24,46.96 -18.76,66.33 -12.49,19.37 -30.69,31.85 -54.61,37.39l72.94 115.8 -75.05 0 -67.49 -112.8 -14.54 0 0 112.8 -63.71 0zm63.71 -173.67l54.39 0c11.72,0 20.94,-4.74 27.86,-14.15 6.83,-9.4 10.25,-19.99 10.25,-31.7 0,-11.46 -3.28,-21.96 -9.75,-31.61 -6.48,-9.65 -15.34,-14.46 -26.69,-14.46l-56.06 0 0 91.92z"/>
      <path id="2" class="fil14" d="M10929.02 40408.41c0,-30.6 6.77,-58.74 20.23,-84.43 13.52,-25.7 31.92,-46 55.26,-61.03 23.34,-14.94 48.95,-22.45 76.79,-22.45 27.99,0 53.66,7.51 77.09,22.45 23.4,15.03 41.88,35.33 55.41,61.03 13.46,25.68 20.21,53.82 20.21,84.43 0,30.28 -6.76,58.25 -20.21,83.94 -13.53,25.7 -32.01,46.01 -55.41,60.95 -23.43,15.01 -49.1,22.53 -77.09,22.53 -20.87,0 -40.72,-4.43 -59.48,-13.35 -18.84,-8.86 -35.06,-20.79 -48.58,-35.82 -13.59,-15.01 -24.36,-32.8 -32.29,-53.42 -7.91,-20.64 -11.93,-42.29 -11.93,-64.82zm63.71 0c0,28.22 8.58,52.33 25.74,72.17 17.16,19.83 38.1,29.79 62.83,29.79 24.87,0 45.88,-9.96 63.12,-29.79 17.25,-19.84 25.89,-43.95 25.89,-72.17 0,-28.23 -8.64,-52.42 -25.96,-72.41 -17.29,-20.01 -38.32,-30.04 -63.04,-30.04 -24.73,0 -45.67,9.96 -62.83,29.95 -17.16,19.93 -25.74,44.12 -25.74,72.5z"/>
      <polygon id="3" class="fil14" points="11264.91,40306.91 11264.91,40244.3 11490.49,40244.3 11490.49,40306.91 11410.2,40306.91 11410.2,40571.08 11345.21,40571.08 11345.21,40306.91 "/>
      <polygon id="4" class="fil14" points="11538.35,40571.08 11538.35,40244.3 11728.58,40244.3 11728.58,40305.49 11602.05,40305.49 11602.05,40379.94 11712.44,40379.94 11712.44,40440.18 11602.05,40440.18 11602.05,40509.89 11732.08,40509.89 11732.08,40571.08 "/>
      <polygon id="5" class="fil14" points="11789.53,40571.08 11789.53,40244.3 11853.24,40244.3 11853.24,40571.08 "/>
      <polygon id="6" class="fil14" points="11923.78,40571.08 11923.78,40244.3 11982.19,40244.3 12085.22,40439.78 12085.22,40244.3 12148.92,40244.3 12148.92,40571.08 12091.98,40571.08 11987.49,40373.3 11987.49,40571.08 "/>
      <path id="7" class="fil14" d="M10888.89 41076.02l0 -326.78 119.12 0c26.84,0 48.28,8.22 64.21,24.66 15.92,16.45 23.92,38.74 23.92,66.81 0,12.24 -3.11,24.02 -9.44,35.4 -6.33,11.31 -16.3,20.01 -29.89,25.86 17.74,5.05 31.33,14.85 40.8,29.48 9.53,14.63 14.24,29.49 14.24,44.5 0,27.9 -8.64,51.62 -26.02,70.98 -17.38,19.37 -40.44,29.09 -69.1,29.09l-127.83 0zm63.71 -61.19l61.89 0c10.18,0 18.09,-4.03 23.77,-12.17 5.75,-8.06 8.6,-17.47 8.6,-28.14 0,-10.2 -2.99,-19.21 -8.88,-27.1 -5.96,-7.82 -14.18,-11.78 -24.73,-11.78l-60.64 0 0 79.19zm0 -135.64l50.33 0c8.21,0 15.04,-3.23 20.27,-9.63 5.32,-6.4 7.94,-14.55 7.94,-24.44 0,-10.58 -2.49,-19.04 -7.42,-25.28 -4.88,-6.25 -12,-9.41 -21.24,-9.41l-49.88 0 0 68.76z"/>
      <path id="8" class="fil14" d="M11128.8 41076.02l111.62 -326.78 69.46 0 111.19 326.78 -67.27 0 -26.48 -77.31 -103.91 0 -26.69 77.31 -67.92 0zm115.49 -137.54l62.37 0 -31.7 -113.75 -30.68 113.75z"/>
      <path id="9" class="fil14" d="M11454.07 41076.02l0 -326.78 122.04 0c16.2,0 30.82,3.08 43.78,9.17 12.94,6.09 23.4,14.3 31.25,24.51 7.93,10.27 13.9,21.65 18.04,34.22 4.08,12.49 6.11,25.61 6.11,39.36 0,24.82 -6.24,46.96 -18.76,66.33 -12.49,19.37 -30.68,31.85 -54.61,37.39l72.94 115.8 -75.05 0 -67.47 -112.8 -14.55 0 0 112.8 -63.71 0zm63.71 -173.67l54.4 0c11.71,0 20.94,-4.74 27.85,-14.15 6.83,-9.4 10.25,-19.99 10.25,-31.7 0,-11.46 -3.28,-21.96 -9.75,-31.61 -6.48,-9.65 -15.34,-14.46 -26.69,-14.46l-56.06 0 0 91.92z"/>
     </g>
    </g>
   </g>
   <g>
    <g>
     <path class="fil9" d="M17702.65 49079.2l8328.52 0c184.17,0 334.87,150.7 334.87,334.87l0 0c0,184.2 -150.7,334.9 -334.87,334.9l-8328.52 0c-184.17,0 -334.87,-150.7 -334.87,-334.9l0 0c0,-184.17 150.7,-334.87 334.87,-334.87z"/>
     <g>
      <path class="fil9" d="M17746.97 50244.03l5270.86 0c208.21,0 378.56,170.33 378.56,378.56l0 0.03c0,208.21 -170.35,378.56 -378.56,378.56l-5270.86 0c-208.21,0 -378.56,-170.35 -378.56,-378.56l0 -0.03c0,-208.23 170.35,-378.56 378.56,-378.56z"/>
      <g>
       <g>
        <path class="fil9" d="M19801.79 53039.61l4164.24 0c168.18,0 305.78,137.58 305.78,305.75l0 0c0,168.2 -137.6,305.78 -305.78,305.78l-4164.24 0c-168.17,0 -305.75,-137.58 -305.75,-305.78l0 0c0,-168.17 137.58,-305.75 305.75,-305.75z"/>
        <g>
         <circle class="fil10" cx="18184.55" cy="53345.36" r="825.46"/>
         <polygon class="fil11" points="17804.34,53468.38 17804.34,53222.36 18564.73,53222.36 18564.73,53468.38 "/>
        </g>
       </g>
       <g>
        <circle class="fil10" cx="25549.25" cy="53345.36" r="825.46"/>
        <polygon class="fil11" points="25442.35,53954.51 25442.35,53449.69 24940.11,53449.69 24940.11,53238.5 25442.35,53238.5 25442.35,52736.26 25656.12,52736.26 25656.12,53238.5 26158.36,53238.5 26158.36,53449.69 25656.12,53449.69 25656.12,53954.51 "/>
       </g>
      </g>
     </g>
    </g>
    <g>
     <path class="fil10" d="M8049.89 48640.18l7687.82 0c256.26,0 465.92,209.66 465.92,465.92l0 5037.85c0,256.26 -209.66,465.92 -465.92,465.92l-7687.82 0c-256.26,0 -465.92,-209.66 -465.92,-465.92l0 -5037.85c0,-256.26 209.66,-465.92 465.92,-465.92z"/>
     <g>
      <path class="fil15" d="M10508.67 49977.9c-42.99,-103.96 -33.57,-368.48 -11.11,-483.51 142.5,-15.22 562.6,-30.34 682.77,11.91 22.42,115.84 40.83,377.21 -17.61,454.01 -83.36,54.98 -521.02,32.4 -654.05,17.59zm-190.71 947.46l235.55 -0.96c37.42,-254.06 11.9,-361.73 316.66,-363.61 275.76,-1.7 305.34,103.75 314.29,363.12l2275.44 -4c1.82,-131.11 4.77,-269.48 1.93,-400.15 -3.97,-181.61 -31.85,-168.04 -113.72,-208.94l-75.9 -40.78c-2.92,-290.4 17.15,-152.65 143.42,-226.25 94.95,-55.34 51.26,-561.74 16.36,-599.95 -58.12,-63.62 -2438.27,-39.58 -2915.71,-36.72 -247.41,1.48 -194.79,41.01 -198.88,436.68 -2.58,249.25 26.36,192.93 122.44,224.2l68.39 25.99 -0.53 176.04c-92.4,69.71 -178.53,29.48 -189.42,224.38 -7.51,134.32 0.46,293.51 -0.31,430.95z"/>
      <path class="fil13" d="M11347.35 52026.2c28.62,-109.81 185.85,-279.36 255.93,-370.42 78.07,-101.44 150.18,-262.24 283.94,-333.97l-137.36 603.92 221.71 9.84c-71.98,158.06 -404.48,545.65 -540.48,738.79 -6.25,-174.79 117.03,-457.78 134.72,-640.46l-218.47 -7.69zm-154.3 824.79l9.43 0.55c258.54,-7.35 1711.35,30.78 1816.82,-8.45 134.63,-50.1 98.68,-238.87 98.68,-359.89l-0.01 -905.4c0.34,-183.26 36.75,-328.77 -83.45,-413.61 -96.37,-55.23 -1642.09,-40.66 -1857.84,-14.85l16.38 1701.65z"/>
      <path class="fil13" d="M13459.59 53224.5l-2270.9 -4.86 2.39 -0.27c-36.69,265.3 -25.62,365.05 -320.57,363.77 -309.47,-1.32 -279.74,-111.59 -318.63,-363.93l-232.38 0.59c-14.36,763.03 137.61,618.71 1557.41,618.71 1422.42,0 1602.31,145.67 1582.69,-614.01z"/>
      <path class="fil16" d="M11173.7 51135.47l2.99 13.87c215.74,-25.82 1761.46,-40.38 1857.83,14.85 120.2,84.83 83.79,230.35 83.45,413.61l0.03 905.4c-0.01,121.01 35.95,309.78 -98.7,359.89l-1826.25 7.9 -643.34 0.43 -229.66 4.73 -0.58 363.65 232.37 -0.58 637.13 0.21 -0.3 0.21 2270.89 4.86 0.33 -2304.57 -2275.45 3.99 -630.93 0.47 -235.54 0.98 -2.68 195.78 236.49 16.66 621.92 -2.33zm28.78 1716.07l-11.56 366.42z"/>
      <polygon class="fil12" points="10549.7,52851.42 11193.06,52850.99 11176.68,51149.34 11173.7,51135.47 10551.78,51137.8 10315.28,51121.13 10314.59,51159.14 10561.81,51155.57 "/>
      <polygon class="fil13" points="10320.05,52856.15 10549.7,52851.42 10561.81,51155.57 10314.59,51159.14 "/>
      <path class="fil12" d="M10508.67 49977.9c133.03,14.8 570.69,37.39 654.05,-17.59 58.43,-76.79 40.03,-338.16 17.61,-454.01 -120.17,-42.25 -540.27,-27.13 -682.77,-11.91 -22.45,115.03 -31.88,379.55 11.11,483.51z"/>
      <path class="fil10" d="M11347.35 52026.2l218.47 7.69c-17.69,182.68 -140.98,465.67 -134.72,640.46 136,-193.14 468.5,-580.73 540.48,-738.79l-221.71 -9.84 137.36 -603.92c-133.76,71.73 -205.87,232.53 -283.94,333.97 -70.08,91.06 -227.31,260.61 -255.93,370.42z"/>
      <path class="fil12" d="M11191.07 53219.37l-639.2 -0.16c38.89,252.34 9.16,362.61 318.63,363.93 294.95,1.27 283.88,-98.47 320.57,-363.77z"/>
      <path class="fil12" d="M10553.51 50924.4l630.95 -0.49c-8.95,-259.37 -38.53,-364.82 -314.29,-363.12 -304.76,1.88 -279.24,109.54 -316.66,363.61z"/>
     </g>
    </g>
   </g>
   <polyline class="fil17 str1" points="44843.35,42873.85 40920.18,44287.55 36581.03,40855.17 33402.39,42030.42 36667.27,41408.51 40964.92,43223.6 44945.83,39503.88 "/>
   <polyline class="fil17 str2" points="44907.17,41348.55 41205.97,40198.98 36739.56,42206.74 33043.08,42358.52 36701.96,43157.65 41358.33,41240.21 44905.79,39382.38 57537.17,35552.21 "/>
   <line class="fil17 str3" x1="57437.08" y1="38094.27" x2="45215.54" y2= "39465.62" />
   <line class="fil4 str4" x1="32410.13" y1="45601.71" x2="57939.48" y2= "45452.77" />
   <line class="fil4 str4" x1="32412.14" y1="45347.66" x2="32407.83" y2= "45841.66" />
   <line class="fil4 str4" x1="36680.65" y1="45335.91" x2="36687.76" y2= "45813.21" />
   <line class="fil4 str4" x1="40807.96" y1="45322.23" x2="40828.96" y2= "45787.48" />
   <line class="fil4 str4" x1="44862.68" y1="45324.11" x2="44871.16" y2= "45751.99" />
   <line class="fil4 str4" x1="48826.99" y1="45273.69" x2="48841.07" y2= "45746.15" />
   <line class="fil4 str4" x1="52789.28" y1="45239.77" x2="52801.18" y2= "45721.68" />
   <line class="fil4 str4" x1="56725.78" y1="45211.05" x2="56739.68" y2= "45674.11" />
   <line class="fil4 str4" x1="57926.03" y1="45368.34" x2="57936.03" y2= "45516.32" />
   <g>
    <rect class="fil18" x="34327.09" y="7963.28" width="4445.81" height="4445.81" rx="434.96" ry="395.01"/>
    <rect class="fil18" x="40202.47" y="7963.28" width="4445.81" height="4445.81" rx="434.96" ry="395.01"/>
    <rect class="fil18" x="46082.73" y="7963.28" width="4445.81" height="4445.81" rx="434.96" ry="395.01"/>
    <rect class="fil18" x="51918.8" y="7963.28" width="4445.81" height="4445.81" rx="434.96" ry="395.01"/>
    <rect class="fil18" x="57618.87" y="7963.28" width="4445.81" height="4445.81" rx="434.96" ry="395.01"/>
   </g>
  </g>
 </g>
</svg>
