<?xml version="1.0" encoding="UTF-8"?>
<!DOCTYPE svg PUBLIC "-//W3C//DTD SVG 1.1//EN" "http://www.w3.org/Graphics/SVG/1.1/DTD/svg11.dtd">
<!-- Creator: CorelDRAW 2018 (64-Bit Evaluation Version) -->
<svg xmlns="http://www.w3.org/2000/svg" xml:space="preserve" width="126.574mm" height="25.5916mm" version="1.1" style="shape-rendering:geometricPrecision; text-rendering:geometricPrecision; image-rendering:optimizeQuality; fill-rule:evenodd; clip-rule:evenodd"
viewBox="0 0 5919.27 1196.8"
 xmlns:xlink="http://www.w3.org/1999/xlink">
 <defs>
  <style type="text/css">
   <![CDATA[
    .fil0 {fill:#3B9CFF}
    .fil2 {fill:#FBD13E}
    .fil1 {fill:#3B9CFF;fill-rule:nonzero}
    .fil3 {fill:#FBD13E;fill-rule:nonzero}
   ]]>
  </style>
 </defs>
 <g id="Layer_x0020_1">
  <metadata id="CorelCorpID_0Corel-Layer"/>
  <g id="_2350982533776">
   <g>
    <path class="fil0" d="M82.14 418.08l498.49 379.43 -53.51 13.28c-143.82,35.69 -293.62,-2.9 -398.16,-108.96 -74.82,-75.91 -116.26,-176.93 -116.68,-283.51 -1.07,-266.67 253.52,-456.93 509.93,-393.96l53.27 13.08 -493.34 380.63z"/>
    <path id="1" class="fil1" d="M573.19 807.28l-498.49 -379.43 14.88 -19.55 498.49 379.43 -4.48 21.69 -10.4 -2.15zm14.88 -19.55l20.39 15.52 -24.87 6.17 4.48 -21.69zm-63.91 11.13l53.51 -13.28 5.92 23.84 -53.51 13.28 0 0 -5.92 -23.84zm-403.94 -88.42l17.49 -17.24 0 0 9.64 9.46 9.88 9.07 10.12 8.68 10.35 8.3 10.56 7.9 10.79 7.52 10.98 7.12 11.18 6.73 11.36 6.34 11.53 5.94 11.71 5.55 11.86 5.16 12.01 4.75 12.14 4.36 12.28 3.96 12.4 3.55 12.51 3.15 12.62 2.75 12.71 2.35 12.79 1.94 12.88 1.53 12.94 1.12 13.01 0.72 13.05 0.3 13.09 -0.11 13.13 -0.53 13.15 -0.94 13.16 -1.37 13.17 -1.78 13.16 -2.2 13.15 -2.62 13.13 -3.04 5.92 23.84 -13.88 3.21 -13.9 2.77 -13.92 2.33 -13.93 1.88 -13.93 1.44 -13.92 1 -13.89 0.56 -13.88 0.12 -13.83 -0.32 -13.78 -0.75 -13.72 -1.19 -13.66 -1.62 -13.58 -2.05 -13.49 -2.49 -13.39 -2.92 -13.29 -3.35 -13.17 -3.78 -13.04 -4.2 -12.9 -4.63 -12.76 -5.05 -12.6 -5.48 -12.43 -5.9 -12.26 -6.32 -12.07 -6.73 -11.88 -7.15 -11.67 -7.57 -11.45 -7.98 -11.23 -8.4 -10.99 -8.81 -10.75 -9.22 -10.49 -9.62 -10.22 -10.04 0 0zm-120.22 -292.07l24.56 -0.1 0 0 0.15 9.68 0.39 9.64 0.61 9.61 0.85 9.56 1.07 9.52 1.3 9.46 1.52 9.41 1.75 9.36 1.97 9.3 2.19 9.23 2.41 9.16 2.63 9.09 2.85 9.03 3.06 8.95 3.27 8.86 3.49 8.78 3.7 8.7 3.91 8.6 4.12 8.51 4.33 8.41 4.53 8.31 4.73 8.21 4.93 8.1 5.14 7.99 5.34 7.87 5.54 7.76 5.74 7.64 5.93 7.5 6.13 7.38 6.33 7.25 6.52 7.12 6.71 6.97 -17.49 17.24 -7.13 -7.4 -6.92 -7.56 -6.71 -7.69 -6.51 -7.84 -6.31 -7.98 -6.09 -8.11 -5.89 -8.24 -5.68 -8.37 -5.46 -8.48 -5.25 -8.61 -5.03 -8.72 -4.81 -8.83 -4.6 -8.94 -4.38 -9.04 -4.15 -9.14 -3.93 -9.24 -3.7 -9.33 -3.48 -9.42 -3.25 -9.51 -3.03 -9.59 -2.79 -9.66 -2.57 -9.74 -2.32 -9.81 -2.09 -9.88 -1.86 -9.94 -1.62 -9.99 -1.38 -10.05 -1.14 -10.11 -0.9 -10.15 -0.66 -10.19 -0.41 -10.24 -0.16 -10.27 0 0zm525.14 -405.93l-5.86 23.85 0 0 -23.33 -5.02 -23.27 -3.61 -23.15 -2.23 -23.01 -0.88 -22.82 0.43 -22.58 1.71 -22.3 2.97 -21.98 4.18 -21.6 5.37 -21.19 6.53 -20.73 7.66 -20.23 8.75 -19.68 9.81 -19.08 10.85 -18.43 11.85 -17.75 12.81 -17.01 13.75 -16.24 14.65 -15.41 15.52 -14.54 16.37 -13.62 17.17 -12.66 17.95 -11.66 18.69 -10.61 19.4 -9.52 20.08 -8.38 20.74 -7.21 21.36 -5.98 21.94 -4.7 22.51 -3.39 23.06 -2.03 23.55 -0.62 24.04 -24.56 0.1 0.66 -25.51 2.16 -25.03 3.61 -24.51 5.01 -23.95 6.36 -23.36 7.66 -22.74 8.92 -22.07 10.13 -21.37 11.29 -20.65 12.4 -19.88 13.47 -19.08 14.47 -18.24 15.45 -17.39 16.36 -16.48 17.23 -15.55 18.05 -14.6 18.83 -13.59 19.56 -12.57 20.24 -11.5 20.87 -10.41 21.45 -9.29 21.99 -8.12 22.48 -6.93 22.93 -5.7 23.32 -4.44 23.68 -3.15 23.96 -1.81 24.22 -0.46 24.42 0.94 24.58 2.36 24.67 3.83 24.72 5.32 0 0zm47.41 36.93l-53.27 -13.08 5.86 -23.85 53.27 13.08 4.57 21.65 -10.43 2.2zm5.86 -23.85l24.75 6.08 -20.18 15.57 -4.57 -21.65zm-503.77 382.83l493.34 -380.63 15 19.45 -493.34 380.63 -14.94 0.05 -0.06 -19.5zm0.06 19.5l-12.75 -9.7 12.69 -9.79 0.06 19.5z"/>
   </g>
   <g>
    <path class="fil2" d="M739.32 778.86l-493.33 -380.63 53.26 -13.08c256.41,-62.97 511,127.29 509.94,393.96 -0.43,106.58 -41.87,207.61 -116.7,283.52 -104.54,106.05 -254.33,144.64 -398.15,108.94l-53.51 -13.28 498.49 -379.43z"/>
    <path id="1" class="fil3" d="M253.49 388.51l493.33 380.63 -15 19.45 -493.33 -380.63 4.57 -21.65 10.43 2.2zm-15 19.45l-20.18 -15.57 24.75 -6.08 -4.57 21.65zm63.69 -10.88l-53.26 13.08 -5.86 -23.85 53.26 -13.08 5.86 23.85zm519.29 382.08l-24.56 -0.09 0 0 -0.62 -24.04 -2.03 -23.55 -3.39 -23.06 -4.7 -22.51 -5.98 -21.94 -7.21 -21.36 -8.39 -20.74 -9.52 -20.08 -10.61 -19.41 -11.66 -18.69 -12.66 -17.94 -13.63 -17.17 -14.54 -16.37 -15.41 -15.52 -16.24 -14.65 -17.01 -13.75 -17.75 -12.81 -18.43 -11.85 -19.08 -10.85 -19.68 -9.81 -20.23 -8.75 -20.73 -7.66 -21.19 -6.53 -21.6 -5.37 -21.98 -4.18 -22.3 -2.97 -22.58 -1.71 -22.82 -0.43 -23.01 0.88 -23.15 2.23 -23.27 3.61 -23.33 5.02 -5.86 -23.85 24.72 -5.32 24.67 -3.83 24.58 -2.36 24.42 -0.94 24.22 0.46 23.96 1.81 23.68 3.15 23.32 4.44 22.93 5.7 22.48 6.93 21.99 8.12 21.45 9.29 20.87 10.41 20.24 11.5 19.56 12.57 18.83 13.59 18.05 14.6 17.23 15.55 16.36 16.48 15.45 17.39 14.48 18.24 13.47 19.08 12.4 19.88 11.29 20.64 10.13 21.37 8.93 22.07 7.66 22.74 6.36 23.36 5.01 23.95 3.61 24.51 2.16 25.03 0.66 25.5 0 0zm-120.24 292.1l-17.49 -17.25 0 0 6.71 -6.97 6.52 -7.12 6.33 -7.25 6.13 -7.37 5.93 -7.51 5.74 -7.64 5.54 -7.75 5.34 -7.87 5.14 -7.99 4.93 -8.1 4.74 -8.21 4.53 -8.31 4.33 -8.41 4.12 -8.51 3.91 -8.6 3.7 -8.7 3.49 -8.77 3.27 -8.87 3.06 -8.94 2.85 -9.03 2.63 -9.1 2.41 -9.16 2.19 -9.24 1.97 -9.29 1.74 -9.36 1.52 -9.41 1.3 -9.47 1.08 -9.51 0.85 -9.56 0.62 -9.61 0.39 -9.64 0.15 -9.68 24.56 0.09 -0.16 10.27 -0.41 10.24 -0.66 10.19 -0.89 10.15 -1.14 10.1 -1.38 10.05 -1.62 9.99 -1.86 9.94 -2.1 9.88 -2.32 9.81 -2.57 9.74 -2.79 9.67 -3.03 9.59 -3.25 9.5 -3.48 9.42 -3.7 9.33 -3.93 9.24 -4.15 9.14 -4.38 9.04 -4.6 8.94 -4.82 8.83 -5.03 8.72 -5.25 8.6 -5.46 8.49 -5.68 8.37 -5.89 8.24 -6.1 8.1 -6.3 7.98 -6.51 7.84 -6.72 7.7 -6.92 7.55 -7.13 7.41 0 0zm-409.85 112.24l5.92 -23.84 0 0 13.12 3.04 13.15 2.62 13.16 2.2 13.17 1.78 13.16 1.37 13.15 0.94 13.13 0.53 13.09 0.11 13.05 -0.3 13 -0.72 12.94 -1.12 12.88 -1.53 12.8 -1.94 12.71 -2.34 12.62 -2.75 12.51 -3.15 12.4 -3.55 12.28 -3.96 12.14 -4.36 12.01 -4.76 11.86 -5.15 11.7 -5.55 11.53 -5.94 11.36 -6.34 11.18 -6.73 10.98 -7.12 10.79 -7.52 10.56 -7.9 10.35 -8.3 10.12 -8.67 9.88 -9.07 9.64 -9.46 17.49 17.25 -10.22 10.03 -10.49 9.62 -10.75 9.22 -10.99 8.81 -11.23 8.4 -11.45 7.98 -11.67 7.57 -11.88 7.15 -12.07 6.73 -12.26 6.32 -12.43 5.9 -12.6 5.48 -12.76 5.05 -12.9 4.63 -13.04 4.2 -13.16 3.78 -13.29 3.35 -13.39 2.92 -13.49 2.48 -13.58 2.05 -13.66 1.62 -13.72 1.19 -13.78 0.75 -13.83 0.32 -13.88 -0.12 -13.89 -0.56 -13.92 -1 -13.93 -1.44 -13.93 -1.88 -13.92 -2.33 -13.9 -2.77 -13.87 -3.21 0 0zm-47.59 -37.12l53.51 13.28 -5.92 23.84 -53.51 -13.28 -4.48 -21.69 10.4 -2.15zm-5.92 23.84l-24.87 -6.17 20.39 -15.52 4.48 21.69zm508.89 -381.57l-498.49 379.43 -14.88 -19.55 498.49 -379.43 14.94 0.05 -0.06 19.5zm0.06 -19.5l12.69 9.79 -12.75 9.7 0.06 -19.5z"/>
   </g>
  </g>
  <path class="fil1" d="M1197.39 478.6c-35.66,35.44 -53.59,82.64 -53.59,141.79 0,58.95 18.96,104.91 56.68,137.89 37.92,32.97 82.64,49.46 134.58,49.46 51.94,0 96.25,-17.31 132.73,-51.94 34.63,-34.41 51.93,-79.76 51.93,-136.02 0,-56.27 -18.13,-102.64 -54.41,-138.71 -36.48,-36.07 -81.41,-54.41 -134.38,-54.82 -53.17,-0.41 -97.69,17.11 -133.55,52.35zm-54.82 -150.66l0 90.89c18.96,-32.36 46.37,-57.3 82.64,-74.61 35.44,-19.17 75.02,-28.65 118.92,-28.65 80.58,0 148.8,28.03 204.44,84.29 55.85,55.65 83.68,128.2 83.68,217.43 0,89.25 -27.62,161.58 -83.06,217.23 -55.23,55.44 -123.66,83.26 -205.06,83.26 -43.9,0 -84.09,-8.66 -120.78,-25.97 -36.48,-17.31 -63.47,-41.63 -80.79,-72.55l0 261.19c1.87,67 -41.04,104.57 -112.54,105.67l0 -770.36c0.85,-75.2 50.65,-90.47 112.54,-87.83z"/>
  <path class="fil1" d="M2189.21 769.33c37.1,-34.63 55.65,-81.2 55.65,-139.94 0,-58.74 -19.38,-105.11 -57.91,-138.91 -38.75,-33.8 -84.29,-50.9 -136.65,-51.32 -52.55,0 -96.45,17.52 -131.9,52.56 -35.45,34.62 -53.18,79.96 -53.18,136.43 0,56.27 18.14,102.64 54.41,138.71 36.28,36.28 81,54.41 134.17,54.41 53.17,0 98.31,-17.32 135.4,-51.94zm56.88 149.63l0 -88.62c-18.13,30.3 -45.54,54.62 -82.23,73.16 -36.69,18.55 -76.67,27.83 -120.36,27.83 -79.96,0 -149.42,-28.03 -208.16,-84.09 -56.68,-55.85 -85.12,-128.39 -85.12,-217.22 0,-89.03 28.03,-161.37 83.89,-216.81 56.05,-55.65 125.92,-83.67 209.6,-84.09 41.83,0 82.23,8.66 120.77,25.97 37.92,18.96 65.13,43.28 81.61,73.16 1.98,-68.18 44.06,-88.13 112.54,-86.76l0 479.44c-1.31,67.3 -42.86,95.67 -112.54,98.04z"/>
  <path class="fil1" d="M3543.47 769.33c37.1,-34.63 55.65,-81.2 55.65,-139.94 0,-58.74 -19.37,-105.11 -57.91,-138.91 -38.75,-33.8 -84.29,-50.9 -136.64,-51.32 -52.55,0 -96.45,17.52 -131.9,52.56 -35.45,34.62 -53.17,79.96 -53.17,136.43 0,56.27 18.14,102.64 54.41,138.71 36.28,36.28 81,54.41 134.17,54.41 53.17,0 98.31,-17.32 135.4,-51.94zm56.89 149.63l0 -88.62c-18.14,30.3 -45.54,54.62 -82.23,73.16 -36.69,18.55 -76.67,27.83 -120.36,27.83 -79.96,0 -149.42,-28.03 -208.16,-84.09 -56.68,-55.85 -85.12,-128.39 -85.12,-217.22 0,-89.03 28.03,-161.37 83.88,-216.81 56.06,-55.65 125.93,-83.67 209.6,-84.09 41.84,0 82.24,8.66 120.77,25.97 37.92,18.96 65.13,43.28 81.61,73.16 1.97,-68.18 44.06,-88.13 112.53,-86.76l0 479.44c-1.3,67.3 -42.86,95.67 -112.53,98.04z"/>
  <path class="fil1" d="M5293.5 769.33c37.1,-34.63 55.65,-81.2 55.65,-139.94 0,-58.74 -19.38,-105.11 -57.91,-138.91 -38.75,-33.8 -84.29,-50.9 -136.64,-51.32 -52.55,0 -96.46,17.52 -131.9,52.56 -35.45,34.62 -53.17,79.96 -53.17,136.43 0,56.27 18.13,102.64 54.41,138.71 36.28,36.28 81,54.41 134.17,54.41 53.18,0 98.31,-17.32 135.4,-51.94zm56.89 149.63l0 -88.62c-18.14,30.3 -45.55,54.62 -82.23,73.16 -36.69,18.55 -76.67,27.83 -120.36,27.83 -79.96,0 -149.42,-28.03 -208.15,-84.09 -56.68,-55.85 -85.12,-128.39 -85.12,-217.22 0,-89.03 28.03,-161.37 83.88,-216.81 56.05,-55.65 125.92,-83.67 209.6,-84.09 41.84,0 82.23,8.66 120.77,25.97 37.92,18.96 65.13,43.28 81.61,73.16 1.97,-68.18 44.05,-88.13 112.53,-86.76l0 479.44c-1.31,67.3 -42.86,95.67 -112.53,98.04z"/>
  <path class="fil1" d="M2597.62 341.48l387.83 0 0 92.53 -350.16 377.36 350.16 0c-0.88,60.71 -31.19,105.54 -102.41,107.58l-406.03 0 0 -93.16 343.57 -376.74 -323.57 0c-1.88,-63.06 14.12,-105.93 100.62,-107.58z"/>
  <path class="fil1" d="M4339.57 614.38l0 310.59c-68.59,2.96 -110.85,-12.79 -112.53,-95.19l0 -231.68c0,-47.81 -11.54,-84.71 -34.42,-110.88 -22.05,-27.21 -54.41,-40.81 -96.66,-40.81 -41.84,0 -78.11,14.22 -108.62,42.66 -30.7,28.44 -45.96,70.28 -45.96,125.31l0 215.99c-0.8,70.61 -45.6,92.5 -112.53,94.61l0 -477.12c0.51,-69.3 45.32,-98.75 112.53,-100.36l0 87.8c13.39,-27.61 35.24,-50.29 65.95,-67.8 32.15,-17.52 61.42,-27 87.6,-28.65 111.09,-6.8 184.66,32.15 220.52,116.65 40.19,-80.17 106.55,-120.36 199.5,-120.36 72.35,0 127.37,22.26 164.88,66.98 38.54,43.9 57.91,106.97 57.91,188.99l0 333.88c-66.79,-0.66 -111.64,-24.3 -112.53,-93.42l0 -232.21c0,-46.99 -11.75,-84.29 -35.04,-112.12 -25.14,-27.21 -59.14,-41.02 -101.81,-41.43 -42.46,-0.41 -77.91,14.84 -105.94,45.76 -28.23,30.92 -42.45,71.72 -42.87,122.83z"/>
  <path class="fil1" d="M5581.25 919.89l0 -810.21c0.37,-57.92 48.79,-95.64 111.94,-99.02l0 796.97c0.11,64.76 -44.36,113.03 -111.94,112.26z"/>
  <path class="fil1" d="M5807.33 919.89l0 -810.21c0.37,-57.92 48.79,-95.64 111.94,-99.02l0 796.97c0.11,64.76 -44.36,113.03 -111.94,112.26z"/>
 </g>
</svg>
