<?xml version="1.0" encoding="UTF-8"?>
<!DOCTYPE svg PUBLIC "-//W3C//DTD SVG 1.1//EN" "http://www.w3.org/Graphics/SVG/1.1/DTD/svg11.dtd">
<!-- Creator: CorelDRAW 2018 (64-Bit Evaluation Version) -->
<svg xmlns="http://www.w3.org/2000/svg" xml:space="preserve" width="55.1334mm" height="12.0735mm" version="1.1" style="shape-rendering:geometricPrecision; text-rendering:geometricPrecision; image-rendering:optimizeQuality; fill-rule:evenodd; clip-rule:evenodd"
viewBox="0 0 1841.72 403.31"
 xmlns:xlink="http://www.w3.org/1999/xlink">
 <defs>
  <style type="text/css">
   <![CDATA[
    .str0 {stroke:#484848;stroke-width:6.68;stroke-miterlimit:22.9256}
    .fil0 {fill:#484848}
    .fil1 {fill:#484848;fill-rule:nonzero}
   ]]>
  </style>
 </defs>
 <g id="Layer_x0020_1">
  <metadata id="CorelCorpID_0Corel-Layer"/>
  <g id="_2124394805184">
   <path class="fil0 str0" d="M26.98 140.65l168.67 128.38 -18.11 4.49c-48.66,12.08 -99.35,-0.98 -134.72,-36.87 -25.32,-25.69 -39.34,-59.86 -39.48,-95.93 -0.36,-90.23 85.78,-154.6 172.54,-133.3l18.02 4.43 -166.92 128.79z"/>
   <path class="fil0 str0" d="M249.34 262.72l-166.92 -128.79 18.02 -4.43c86.76,-21.31 172.9,43.07 172.54,133.3 -0.14,36.06 -14.17,70.24 -39.49,95.93 -35.37,35.88 -86.05,48.94 -134.71,36.86l-18.11 -4.49 168.66 -128.38z"/>
  </g>
  <g id="_2124394803968">
   <path class="fil1" d="M384.3 161.12c-12.07,11.99 -18.13,27.96 -18.13,47.98 0,19.94 6.41,35.49 19.18,46.65 12.83,11.16 27.96,16.74 45.53,16.74 17.57,0 32.57,-5.86 44.91,-17.57 11.72,-11.64 17.57,-26.99 17.57,-46.03 0,-19.04 -6.14,-34.72 -18.41,-46.93 -12.34,-12.2 -27.55,-18.41 -45.47,-18.55 -17.99,-0.14 -33.05,5.79 -45.19,17.71zm-18.55 -50.98l0 30.75c6.41,-10.95 15.69,-19.39 27.96,-25.24 11.99,-6.49 25.38,-9.69 40.24,-9.69 27.27,0 50.35,9.48 69.17,28.52 18.9,18.83 28.31,43.38 28.31,73.57 0,30.19 -9.35,54.67 -28.1,73.5 -18.69,18.76 -41.84,28.17 -69.39,28.17 -14.86,0 -28.45,-2.93 -40.86,-8.79 -12.34,-5.86 -21.48,-14.09 -27.34,-24.55l0 88.37c0.63,22.67 -13.88,35.38 -38.07,35.75l0 -260.65c0.28,-25.44 17.13,-30.61 38.07,-29.72z"/>
   <path class="fil1" d="M699.85 259.49c12.55,-11.72 18.83,-27.48 18.83,-47.35 0,-19.87 -6.56,-35.56 -19.6,-47 -13.11,-11.44 -28.52,-17.22 -46.24,-17.36 -17.78,0 -32.64,5.93 -44.63,17.78 -12,11.72 -17.99,27.06 -17.99,46.16 0,19.04 6.14,34.73 18.41,46.93 12.27,12.27 27.41,18.41 45.4,18.41 17.99,0 33.26,-5.86 45.81,-17.57zm19.24 50.63l0 -29.99c-6.13,10.25 -15.41,18.48 -27.82,24.76 -12.42,6.28 -25.94,9.41 -40.73,9.41 -27.06,0 -50.56,-9.48 -70.43,-28.45 -19.18,-18.9 -28.8,-43.44 -28.8,-73.5 0,-30.13 9.49,-54.6 28.38,-73.36 18.97,-18.83 42.61,-28.31 70.92,-28.45 14.16,0 27.83,2.93 40.86,8.79 12.83,6.41 22.04,14.64 27.61,24.75 0.67,-23.07 14.91,-29.82 38.08,-29.36l0 162.22c-0.44,22.77 -14.5,32.37 -38.08,33.17z"/>
   <path class="fil1" d="M1118 259.49c12.55,-11.72 18.83,-27.48 18.83,-47.35 0,-19.87 -6.56,-35.56 -19.6,-47 -13.11,-11.44 -28.52,-17.22 -46.23,-17.36 -17.78,0 -32.64,5.93 -44.63,17.78 -11.99,11.72 -17.99,27.06 -17.99,46.16 0,19.04 6.13,34.73 18.41,46.93 12.28,12.27 27.41,18.41 45.4,18.41 17.99,0 33.26,-5.86 45.81,-17.57zm19.25 50.63l0 -29.99c-6.14,10.25 -15.41,18.48 -27.82,24.76 -12.41,6.28 -25.94,9.41 -40.72,9.41 -27.06,0 -50.56,-9.48 -70.43,-28.45 -19.18,-18.9 -28.8,-43.44 -28.8,-73.5 0,-30.13 9.48,-54.6 28.38,-73.36 18.97,-18.83 42.61,-28.31 70.92,-28.45 14.15,0 27.82,2.93 40.86,8.79 12.83,6.41 22.04,14.64 27.62,24.75 0.67,-23.07 14.91,-29.82 38.07,-29.36l0 162.22c-0.44,22.77 -14.5,32.37 -38.07,33.17z"/>
   <path class="fil1" d="M1670.06 259.49c12.55,-11.72 18.83,-27.48 18.83,-47.35 0,-19.87 -6.55,-35.56 -19.6,-47 -13.11,-11.44 -28.52,-17.22 -46.23,-17.36 -17.78,0 -32.64,5.93 -44.63,17.78 -12,11.72 -17.99,27.06 -17.99,46.16 0,19.04 6.14,34.73 18.41,46.93 12.27,12.27 27.41,18.41 45.4,18.41 17.99,0 33.26,-5.86 45.81,-17.57zm19.24 50.63l0 -29.99c-6.14,10.25 -15.41,18.48 -27.82,24.76 -12.41,6.28 -25.94,9.41 -40.72,9.41 -27.06,0 -50.56,-9.48 -70.43,-28.45 -19.18,-18.9 -28.8,-43.44 -28.8,-73.5 0,-30.13 9.48,-54.6 28.38,-73.36 18.96,-18.83 42.6,-28.31 70.92,-28.45 14.15,0 27.82,2.93 40.86,8.79 12.83,6.41 22.04,14.64 27.61,24.75 0.67,-23.07 14.91,-29.82 38.08,-29.36l0 162.22c-0.44,22.77 -14.5,32.37 -38.08,33.17z"/>
   <path class="fil1" d="M818 114.73l131.22 0 0 31.31 -118.48 127.68 118.48 0c-0.3,20.54 -10.55,35.71 -34.65,36.4l-137.38 0 0 -31.52 116.25 -127.47 -109.48 0c-0.64,-21.34 4.78,-35.84 34.05,-36.4z"/>
   <path class="fil1" d="M1367.32 207.07l0 105.09c-23.21,1 -37.51,-4.33 -38.07,-32.21l0 -78.39c0,-16.18 -3.91,-28.66 -11.65,-37.52 -7.46,-9.21 -18.41,-13.81 -32.7,-13.81 -14.16,0 -26.43,4.81 -36.75,14.44 -10.39,9.62 -15.55,23.78 -15.55,42.4l0 73.08c-0.27,23.89 -15.43,31.3 -38.07,32.01l0 -161.44c0.17,-23.45 15.33,-33.41 38.07,-33.96l0 29.71c4.53,-9.34 11.93,-17.01 22.31,-22.94 10.88,-5.93 20.78,-9.14 29.64,-9.69 37.59,-2.3 62.48,10.88 74.62,39.47 13.6,-27.13 36.05,-40.72 67.5,-40.72 24.48,0 43.1,7.53 55.79,22.66 13.04,14.86 19.6,36.19 19.6,63.95l0 112.97c-22.6,-0.22 -37.77,-8.22 -38.07,-31.61l0 -78.57c0,-15.9 -3.98,-28.52 -11.86,-37.93 -8.51,-9.21 -20.01,-13.88 -34.45,-14.02 -14.37,-0.14 -26.36,5.02 -35.84,15.48 -9.55,10.46 -14.36,24.27 -14.51,41.56z"/>
   <path class="fil1" d="M1747.39 310.43l0 -274.14c0.13,-19.6 16.51,-32.36 37.88,-33.51l0 269.66c0.03,21.91 -15.01,38.25 -37.88,37.98z"/>
   <path class="fil1" d="M1803.85 310.43l0 -274.14c0.12,-19.6 16.51,-32.36 37.87,-33.51l0 269.66c0.04,21.91 -15.01,38.25 -37.87,37.98z"/>
  </g>
 </g>
</svg>
