<?xml version="1.0" encoding="UTF-8"?>
<!DOCTYPE svg PUBLIC "-//W3C//DTD SVG 1.1//EN" "http://www.w3.org/Graphics/SVG/1.1/DTD/svg11.dtd">
<!-- Creator: CorelDRAW 2018 (64-Bit Evaluation Version) -->
<svg xmlns="http://www.w3.org/2000/svg" xml:space="preserve" width="59.9559mm" height="12.1223mm" version="1.1" style="shape-rendering:geometricPrecision; text-rendering:geometricPrecision; image-rendering:optimizeQuality; fill-rule:evenodd; clip-rule:evenodd"
viewBox="0 0 1716.31 347.01"
 xmlns:xlink="http://www.w3.org/1999/xlink">
 <defs>
  <style type="text/css">
   <![CDATA[
    .fil0 {fill:#3B9CFF}
    .fil2 {fill:#FBD13E}
    .fil1 {fill:#3B9CFF;fill-rule:nonzero}
    .fil3 {fill:#FBD13E;fill-rule:nonzero}
   ]]>
  </style>
 </defs>
 <g id="Layer_x0020_1">
  <metadata id="CorelCorpID_0Corel-Layer"/>
  <g id="_2350982559568">
   <g>
    <path class="fil0" d="M23.82 121.22l144.54 110.02 -15.52 3.85c-41.7,10.35 -85.14,-0.84 -115.45,-31.59 -21.7,-22.01 -33.71,-51.3 -33.84,-82.2 -0.31,-77.32 73.51,-132.49 147.86,-114.23l15.45 3.79 -143.04 110.37z"/>
    <path id="1" class="fil1" d="M166.2 234.07l-144.54 -110.02 4.31 -5.67 144.54 110.02 -1.3 6.29 -3.01 -0.62zm4.31 -5.67l5.91 4.5 -7.21 1.79 1.3 -6.29zm-18.53 3.23l15.52 -3.85 1.72 6.91 -15.52 3.85 0 0 -1.72 -6.91zm-117.12 -25.64l5.07 -5 0 0 2.79 2.74 2.87 2.63 2.93 2.52 3 2.4 3.06 2.3 3.13 2.18 3.18 2.06 3.24 1.95 3.29 1.84 3.35 1.72 3.39 1.61 3.44 1.49 3.48 1.38 3.52 1.26 3.56 1.15 3.6 1.03 3.63 0.91 3.66 0.8 3.69 0.68 3.71 0.56 3.73 0.45 3.76 0.32 3.77 0.21 3.79 0.09 3.8 -0.03 3.8 -0.15 3.81 -0.27 3.82 -0.4 3.82 -0.52 3.82 -0.64 3.81 -0.76 3.8 -0.88 1.72 6.91 -4.02 0.93 -4.03 0.8 -4.04 0.67 -4.04 0.54 -4.04 0.42 -4.04 0.29 -4.03 0.16 -4.02 0.03 -4.01 -0.09 -4 -0.22 -3.98 -0.35 -3.96 -0.47 -3.93 -0.6 -3.91 -0.72 -3.88 -0.85 -3.85 -0.97 -3.82 -1.09 -3.78 -1.22 -3.74 -1.34 -3.7 -1.47 -3.66 -1.59 -3.6 -1.71 -3.55 -1.83 -3.5 -1.95 -3.44 -2.07 -3.38 -2.2 -3.32 -2.32 -3.26 -2.43 -3.19 -2.56 -3.11 -2.67 -3.04 -2.79 -2.97 -2.91 0 0zm-34.86 -84.69l7.12 -0.03 0 0 0.04 2.81 0.11 2.8 0.18 2.79 0.25 2.77 0.31 2.76 0.38 2.75 0.44 2.73 0.51 2.71 0.57 2.69 0.64 2.68 0.7 2.66 0.76 2.64 0.83 2.62 0.89 2.59 0.95 2.57 1.01 2.55 1.07 2.52 1.13 2.5 1.19 2.46 1.25 2.44 1.31 2.41 1.37 2.38 1.43 2.35 1.49 2.32 1.55 2.28 1.61 2.25 1.66 2.21 1.72 2.18 1.78 2.14 1.83 2.1 1.89 2.06 1.95 2.02 -5.07 5 -2.07 -2.15 -2 -2.19 -1.95 -2.23 -1.89 -2.27 -1.83 -2.31 -1.77 -2.35 -1.71 -2.39 -1.65 -2.43 -1.58 -2.46 -1.52 -2.5 -1.46 -2.53 -1.39 -2.56 -1.33 -2.59 -1.27 -2.63 -1.21 -2.65 -1.14 -2.68 -1.07 -2.71 -1.01 -2.73 -0.94 -2.75 -0.88 -2.78 -0.81 -2.8 -0.74 -2.82 -0.68 -2.84 -0.61 -2.87 -0.54 -2.88 -0.47 -2.9 -0.4 -2.92 -0.33 -2.93 -0.26 -2.95 -0.19 -2.95 -0.12 -2.97 -0.05 -2.98 0 0zm152.27 -117.7l-1.7 6.92 0 0 -6.76 -1.45 -6.75 -1.05 -6.71 -0.64 -6.67 -0.25 -6.62 0.13 -6.55 0.5 -6.47 0.86 -6.37 1.21 -6.27 1.56 -6.14 1.9 -6.01 2.22 -5.86 2.54 -5.71 2.85 -5.53 3.14 -5.35 3.44 -5.15 3.71 -4.93 3.99 -4.71 4.25 -4.47 4.5 -4.21 4.74 -3.95 4.98 -3.68 5.2 -3.38 5.42 -3.08 5.63 -2.76 5.83 -2.43 6.01 -2.09 6.19 -1.73 6.37 -1.37 6.53 -0.98 6.68 -0.59 6.83 -0.18 6.97 -7.12 0.03 0.19 -7.39 0.62 -7.26 1.04 -7.11 1.45 -6.94 1.85 -6.77 2.22 -6.59 2.59 -6.4 2.94 -6.2 3.27 -5.99 3.6 -5.76 3.9 -5.53 4.2 -5.29 4.48 -5.04 4.74 -4.78 5 -4.51 5.24 -4.23 5.46 -3.94 5.67 -3.64 5.87 -3.34 6.05 -3.02 6.22 -2.69 6.38 -2.35 6.52 -2.01 6.64 -1.65 6.76 -1.29 6.86 -0.91 6.95 -0.53 7.02 -0.13 7.08 0.27 7.13 0.68 7.15 1.11 7.17 1.54 0 0zm13.75 10.71l-15.45 -3.79 1.7 -6.92 15.45 3.79 1.33 6.28 -3.03 0.64zm1.7 -6.92l7.18 1.76 -5.85 4.51 -1.33 -6.28zm-146.07 111l143.04 -110.37 4.35 5.64 -143.04 110.37 -4.33 0.01 -0.02 -5.65zm0.02 5.65l-3.7 -2.81 3.68 -2.84 0.02 5.65z"/>
   </g>
   <g>
    <path class="fil2" d="M214.37 225.83l-143.04 -110.37 15.44 -3.79c74.34,-18.26 148.17,36.91 147.86,114.23 -0.12,30.9 -12.14,60.2 -33.84,82.21 -30.31,30.75 -73.74,41.94 -115.44,31.59l-15.52 -3.85 144.54 -110.02z"/>
    <path id="1" class="fil3" d="M73.5 112.65l143.04 110.37 -4.35 5.64 -143.04 -110.37 1.33 -6.28 3.02 0.64zm-4.35 5.64l-5.85 -4.51 7.18 -1.76 -1.33 6.28zm18.47 -3.15l-15.44 3.79 -1.69 -6.92 15.44 -3.79 1.7 6.92 -0 0zm150.57 110.78l-7.12 -0.03 0 0 -0.18 -6.97 -0.59 -6.83 -0.98 -6.68 -1.37 -6.53 -1.73 -6.37 -2.09 -6.19 -2.43 -6.01 -2.76 -5.83 -3.08 -5.63 -3.38 -5.42 -3.67 -5.2 -3.95 -4.98 -4.22 -4.74 -4.47 -4.5 -4.71 -4.25 -4.93 -3.99 -5.15 -3.72 -5.34 -3.44 -5.53 -3.14 -5.71 -2.85 -5.87 -2.54 -6.01 -2.22 -6.14 -1.9 -6.27 -1.56 -6.37 -1.21 -6.47 -0.86 -6.55 -0.5 -6.62 -0.13 -6.67 0.25 -6.72 0.65 -6.75 1.05 -6.76 1.45 -1.7 -6.92 7.17 -1.54 7.15 -1.11 7.12 -0.69 7.08 -0.27 7.02 0.13 6.95 0.53 6.86 0.91 6.76 1.29 6.65 1.65 6.52 2.01 6.38 2.35 6.22 2.69 6.05 3.02 5.87 3.34 5.67 3.64 5.46 3.94 5.24 4.23 5 4.51 4.74 4.78 4.48 5.04 4.2 5.29 3.9 5.53 3.6 5.76 3.27 5.99 2.94 6.2 2.59 6.4 2.22 6.59 1.85 6.77 1.45 6.94 1.04 7.11 0.62 7.26 0.19 7.39 0 0zm-34.86 84.69l-5.07 -5 0 0 1.95 -2.02 1.89 -2.06 1.83 -2.1 1.78 -2.14 1.72 -2.18 1.67 -2.22 1.61 -2.25 1.55 -2.28 1.49 -2.32 1.43 -2.35 1.37 -2.38 1.31 -2.41 1.25 -2.44 1.19 -2.47 1.13 -2.5 1.08 -2.52 1.01 -2.55 0.95 -2.57 0.89 -2.59 0.82 -2.62 0.76 -2.64 0.7 -2.66 0.64 -2.68 0.57 -2.69 0.51 -2.71 0.44 -2.73 0.38 -2.74 0.31 -2.76 0.25 -2.77 0.18 -2.79 0.11 -2.8 0.04 -2.81 7.12 0.03 -0.05 2.98 -0.12 2.97 -0.19 2.95 -0.26 2.95 -0.33 2.93 -0.4 2.91 -0.47 2.9 -0.54 2.88 -0.61 2.87 -0.68 2.85 -0.74 2.82 -0.81 2.8 -0.88 2.78 -0.94 2.76 -1.01 2.73 -1.08 2.71 -1.14 2.68 -1.21 2.65 -1.27 2.62 -1.33 2.59 -1.39 2.56 -1.46 2.53 -1.52 2.49 -1.58 2.46 -1.65 2.42 -1.71 2.39 -1.77 2.35 -1.83 2.31 -1.89 2.27 -1.95 2.23 -2 2.19 -2.07 2.15 0 0zm-118.84 32.54l1.72 -6.91 0 0 3.8 0.88 3.81 0.76 3.82 0.64 3.82 0.52 3.81 0.39 3.82 0.27 3.8 0.15 3.8 0.03 3.79 -0.09 3.77 -0.21 3.75 -0.32 3.73 -0.45 3.71 -0.56 3.69 -0.68 3.66 -0.8 3.63 -0.91 3.6 -1.03 3.56 -1.15 3.52 -1.27 3.48 -1.38 3.44 -1.49 3.39 -1.61 3.35 -1.72 3.29 -1.84 3.24 -1.95 3.18 -2.06 3.13 -2.18 3.06 -2.3 3 -2.4 2.93 -2.51 2.87 -2.63 2.79 -2.74 5.07 5 -2.97 2.91 -3.04 2.79 -3.11 2.67 -3.19 2.55 -3.26 2.43 -3.32 2.32 -3.38 2.2 -3.44 2.07 -3.5 1.95 -3.55 1.83 -3.6 1.71 -3.66 1.59 -3.7 1.46 -3.74 1.34 -3.78 1.22 -3.82 1.09 -3.85 0.97 -3.88 0.84 -3.91 0.72 -3.94 0.6 -3.96 0.47 -3.98 0.35 -4 0.22 -4.01 0.09 -4.02 -0.03 -4.03 -0.16 -4.03 -0.29 -4.04 -0.42 -4.04 -0.55 -4.03 -0.67 -4.03 -0.8 -4.02 -0.93 0 0zm-13.8 -10.76l15.52 3.85 -1.72 6.91 -15.52 -3.85 -1.3 -6.29 3.01 -0.62zm-1.72 6.91l-7.21 -1.79 5.91 -4.5 1.3 6.29zm147.55 -110.64l-144.54 110.02 -4.31 -5.67 144.54 -110.02 4.33 0.01 -0.02 5.65zm0.02 -5.65l3.68 2.84 -3.7 2.81 0.02 -5.65z"/>
   </g>
   <path class="fil1" d="M347.19 138.77c-10.34,10.28 -15.54,23.97 -15.54,41.11 0,17.09 5.5,30.42 16.43,39.98 11,9.56 23.96,14.34 39.02,14.34 15.06,0 27.91,-5.02 38.48,-15.06 10.04,-9.98 15.06,-23.13 15.06,-39.44 0,-16.31 -5.26,-29.76 -15.78,-40.22 -10.58,-10.46 -23.61,-15.78 -38.96,-15.9 -15.42,-0.12 -28.33,4.96 -38.72,15.18zm-15.9 -43.68l0 26.35c5.5,-9.38 13.45,-16.61 23.96,-21.63 10.28,-5.56 21.75,-8.31 34.48,-8.31 23.36,0 43.15,8.13 59.28,24.44 16.19,16.14 24.26,37.17 24.26,63.04 0,25.88 -8.01,46.85 -24.08,62.99 -16.02,16.08 -35.85,24.14 -59.46,24.14 -12.73,0 -24.38,-2.51 -35.02,-7.53 -10.58,-5.02 -18.41,-12.07 -23.42,-21.03l0 75.73c0.54,19.43 -11.9,30.32 -32.63,30.64l0 -223.37c0.25,-21.8 14.69,-26.23 32.63,-25.47z"/>
   <path class="fil1" d="M634.77 223.07c10.75,-10.04 16.13,-23.54 16.13,-40.57 0,-17.03 -5.62,-30.48 -16.79,-40.28 -11.24,-9.8 -24.44,-14.76 -39.62,-14.88 -15.24,0 -27.97,5.08 -38.24,15.24 -10.28,10.04 -15.42,23.19 -15.42,39.56 0,16.32 5.26,29.76 15.77,40.22 10.52,10.52 23.49,15.78 38.91,15.78 15.42,0 28.5,-5.02 39.26,-15.06zm16.49 43.39l0 -25.7c-5.26,8.79 -13.21,15.84 -23.84,21.21 -10.64,5.38 -22.23,8.07 -34.9,8.07 -23.19,0 -43.33,-8.13 -60.36,-24.38 -16.43,-16.19 -24.68,-37.23 -24.68,-62.99 0,-25.82 8.13,-46.79 24.32,-62.87 16.25,-16.13 36.51,-24.26 60.78,-24.38 12.13,0 23.84,2.51 35.02,7.53 11,5.5 18.88,12.55 23.66,21.21 0.57,-19.77 12.78,-25.55 32.63,-25.16l0 139.01c-0.38,19.51 -12.43,27.74 -32.63,28.43z"/>
   <path class="fil1" d="M1027.44 223.07c10.75,-10.04 16.13,-23.54 16.13,-40.57 0,-17.03 -5.62,-30.48 -16.79,-40.28 -11.24,-9.8 -24.44,-14.76 -39.62,-14.88 -15.24,0 -27.97,5.08 -38.24,15.24 -10.28,10.04 -15.42,23.19 -15.42,39.56 0,16.32 5.26,29.76 15.78,40.22 10.52,10.52 23.48,15.78 38.9,15.78 15.42,0 28.5,-5.02 39.26,-15.06zm16.49 43.39l0 -25.7c-5.26,8.79 -13.21,15.84 -23.84,21.21 -10.64,5.38 -22.23,8.07 -34.9,8.07 -23.19,0 -43.33,-8.13 -60.36,-24.38 -16.43,-16.19 -24.68,-37.23 -24.68,-62.99 0,-25.82 8.13,-46.79 24.32,-62.87 16.25,-16.13 36.52,-24.26 60.78,-24.38 12.13,0 23.84,2.51 35.02,7.53 11,5.5 18.88,12.55 23.66,21.21 0.57,-19.77 12.78,-25.55 32.63,-25.16l0 139.01c-0.38,19.51 -12.43,27.74 -32.63,28.43z"/>
   <path class="fil1" d="M1534.86 223.07c10.76,-10.04 16.14,-23.54 16.14,-40.57 0,-17.03 -5.62,-30.48 -16.79,-40.28 -11.24,-9.8 -24.44,-14.76 -39.62,-14.88 -15.24,0 -27.96,5.08 -38.24,15.24 -10.28,10.04 -15.42,23.19 -15.42,39.56 0,16.32 5.26,29.76 15.78,40.22 10.52,10.52 23.49,15.78 38.91,15.78 15.42,0 28.5,-5.02 39.26,-15.06zm16.49 43.39l0 -25.7c-5.26,8.79 -13.21,15.84 -23.84,21.21 -10.64,5.38 -22.23,8.07 -34.9,8.07 -23.19,0 -43.33,-8.13 -60.36,-24.38 -16.43,-16.19 -24.68,-37.23 -24.68,-62.99 0,-25.82 8.13,-46.79 24.32,-62.87 16.25,-16.13 36.51,-24.26 60.78,-24.38 12.13,0 23.84,2.51 35.02,7.53 11,5.5 18.88,12.55 23.67,21.21 0.57,-19.77 12.77,-25.55 32.63,-25.16l0 139.01c-0.38,19.51 -12.43,27.74 -32.63,28.43z"/>
   <path class="fil1" d="M753.18 99.01l112.45 0 0 26.83 -101.53 109.41 101.53 0c-0.25,17.6 -9.04,30.6 -29.69,31.2l-117.73 0 0 -27.01 99.62 -109.24 -93.82 0c-0.54,-18.28 4.1,-30.72 29.18,-31.19z"/>
   <path class="fil1" d="M1258.26 178.14l0 90.05c-19.89,0.86 -32.14,-3.71 -32.63,-27.6l0 -67.17c0,-13.86 -3.35,-24.56 -9.98,-32.15 -6.4,-7.89 -15.78,-11.83 -28.02,-11.83 -12.13,0 -22.65,4.13 -31.49,12.37 -8.9,8.25 -13.33,20.38 -13.33,36.34l0 62.63c-0.23,20.47 -13.22,26.82 -32.63,27.43l0 -138.34c0.15,-20.09 13.14,-28.63 32.63,-29.1l0 25.46c3.88,-8.01 10.22,-14.58 19.12,-19.66 9.32,-5.08 17.81,-7.83 25.4,-8.31 32.21,-1.97 53.55,9.32 63.94,33.82 11.65,-23.25 30.9,-34.9 57.84,-34.9 20.98,0 36.93,6.46 47.81,19.42 11.18,12.73 16.79,31.01 16.79,54.8l0 96.81c-19.37,-0.19 -32.37,-7.05 -32.63,-27.09l0 -67.33c0,-13.63 -3.41,-24.44 -10.16,-32.51 -7.29,-7.89 -17.15,-11.89 -29.52,-12.01 -12.31,-0.12 -22.59,4.31 -30.72,13.27 -8.19,8.96 -12.31,20.8 -12.43,35.62z"/>
   <path class="fil1" d="M1618.3 266.72l0 -234.92c0.11,-16.79 14.14,-27.73 32.46,-28.71l0 231.08c0.03,18.78 -12.86,32.78 -32.46,32.55z"/>
   <path class="fil1" d="M1683.85 266.72l0 -234.92c0.11,-16.79 14.14,-27.73 32.46,-28.71l0 231.08c0.03,18.78 -12.86,32.78 -32.46,32.55z"/>
  </g>
 </g>
</svg>
