<?xml version="1.0" encoding="UTF-8"?>
<!DOCTYPE svg PUBLIC "-//W3C//DTD SVG 1.1//EN" "http://www.w3.org/Graphics/SVG/1.1/DTD/svg11.dtd">
<!-- Creator: CorelDRAW 2018 (64-Bit Evaluation Version) -->
<svg xmlns="http://www.w3.org/2000/svg" xml:space="preserve" width="59.9559mm" height="12.1223mm" version="1.1" style="shape-rendering:geometricPrecision; text-rendering:geometricPrecision; image-rendering:optimizeQuality; fill-rule:evenodd; clip-rule:evenodd"
viewBox="0 0 1743.78 352.57"
 xmlns:xlink="http://www.w3.org/1999/xlink">
 <defs>
  <style type="text/css">
   <![CDATA[
    .fil0 {fill:#3B9CFF}
    .fil2 {fill:#3B9CFF;fill-rule:nonzero}
    .fil1 {fill:#3B9CFF;fill-rule:nonzero}
   ]]>
  </style>
 </defs>
 <g id="Layer_x0020_1">
  <metadata id="CorelCorpID_0Corel-Layer"/>
  <g>
   <path class="fil0" d="M24.2 123.16l146.85 111.78 -15.76 3.91c-42.37,10.51 -86.5,-0.85 -117.29,-32.1 -22.04,-22.36 -34.25,-52.12 -34.38,-83.52 -0.31,-78.56 74.69,-134.61 150.22,-116.06l15.69 3.85 -145.33 112.13z"/>
   <path id="1" class="fil1" d="M168.86 237.82l-146.85 -111.78 4.38 -5.76 146.85 111.78 -1.32 6.39 -3.06 -0.63zm4.38 -5.76l6.01 4.57 -7.32 1.82 1.32 -6.39zm-18.83 3.28l15.76 -3.91 1.75 7.02 -15.76 3.91 0 0 -1.75 -7.02zm-119 -26.05l5.15 -5.08 0 0 2.84 2.79 2.91 2.67 2.98 2.56 3.05 2.44 3.11 2.33 3.18 2.21 3.23 2.1 3.3 1.98 3.34 1.87 3.4 1.75 3.45 1.63 3.49 1.52 3.54 1.4 3.58 1.28 3.62 1.17 3.65 1.05 3.68 0.93 3.72 0.81 3.75 0.69 3.77 0.57 3.79 0.45 3.82 0.33 3.83 0.21 3.85 0.09 3.86 -0.03 3.87 -0.15 3.87 -0.28 3.88 -0.4 3.88 -0.52 3.88 -0.65 3.87 -0.77 3.87 -0.9 1.75 7.02 -4.09 0.95 -4.1 0.82 -4.1 0.68 -4.1 0.55 -4.1 0.42 -4.1 0.3 -4.1 0.17 -4.08 0.03 -4.07 -0.09 -4.06 -0.22 -4.04 -0.35 -4.03 -0.48 -4 -0.6 -3.97 -0.73 -3.95 -0.86 -3.91 -0.99 -3.88 -1.11 -3.84 -1.24 -3.8 -1.36 -3.76 -1.49 -3.71 -1.61 -3.66 -1.74 -3.61 -1.86 -3.55 -1.98 -3.5 -2.11 -3.44 -2.23 -3.37 -2.35 -3.31 -2.47 -3.24 -2.6 -3.16 -2.72 -3.09 -2.84 -3.01 -2.95 0 0zm-35.42 -86.04l7.24 -0.03 0 0 0.04 2.85 0.12 2.84 0.18 2.83 0.25 2.81 0.32 2.8 0.38 2.79 0.45 2.77 0.51 2.76 0.58 2.74 0.65 2.72 0.71 2.7 0.77 2.68 0.84 2.66 0.9 2.64 0.97 2.61 1.03 2.59 1.09 2.56 1.15 2.54 1.21 2.5 1.27 2.48 1.33 2.45 1.4 2.41 1.45 2.38 1.52 2.35 1.57 2.32 1.63 2.29 1.69 2.25 1.75 2.21 1.81 2.18 1.86 2.13 1.92 2.1 1.98 2.05 -5.15 5.08 -2.1 -2.18 -2.04 -2.22 -1.98 -2.27 -1.92 -2.31 -1.86 -2.35 -1.79 -2.39 -1.74 -2.43 -1.67 -2.47 -1.61 -2.5 -1.55 -2.54 -1.48 -2.57 -1.42 -2.6 -1.36 -2.63 -1.29 -2.67 -1.23 -2.69 -1.16 -2.72 -1.09 -2.75 -1.02 -2.77 -0.96 -2.8 -0.89 -2.83 -0.82 -2.85 -0.76 -2.87 -0.69 -2.89 -0.62 -2.91 -0.54 -2.93 -0.48 -2.95 -0.4 -2.96 -0.34 -2.97 -0.26 -2.99 -0.19 -3 -0.12 -3.02 -0.05 -3.02 0 0zm154.71 -119.59l-1.73 7.03 0 0 -6.87 -1.48 -6.86 -1.06 -6.82 -0.65 -6.78 -0.26 -6.72 0.13 -6.65 0.5 -6.57 0.87 -6.47 1.23 -6.37 1.58 -6.24 1.93 -6.11 2.26 -5.96 2.58 -5.8 2.89 -5.62 3.19 -5.43 3.49 -5.23 3.78 -5.01 4.05 -4.78 4.32 -4.54 4.57 -4.28 4.82 -4.01 5.06 -3.73 5.28 -3.43 5.51 -3.13 5.72 -2.8 5.92 -2.47 6.11 -2.12 6.29 -1.76 6.47 -1.39 6.63 -1 6.79 -0.6 6.94 -0.18 7.08 -7.24 0.03 0.19 -7.51 0.63 -7.37 1.06 -7.22 1.47 -7.06 1.88 -6.88 2.26 -6.7 2.63 -6.5 2.98 -6.3 3.33 -6.08 3.65 -5.85 3.97 -5.62 4.26 -5.37 4.55 -5.12 4.82 -4.85 5.08 -4.58 5.32 -4.3 5.55 -4.01 5.76 -3.7 5.96 -3.39 6.15 -3.07 6.32 -2.73 6.48 -2.39 6.63 -2.04 6.75 -1.68 6.87 -1.31 6.97 -0.92 7.06 -0.54 7.13 -0.13 7.19 0.28 7.24 0.7 7.27 1.13 7.28 1.56 0 0zm13.97 10.88l-15.69 -3.85 1.73 -7.03 15.69 3.85 1.35 6.38 -3.07 0.65zm1.73 -7.03l7.29 1.79 -5.94 4.59 -1.35 -6.38zm-148.41 112.78l145.33 -112.13 4.42 5.73 -145.33 112.13 -4.4 0.01 -0.02 -5.74zm0.02 5.74l-3.76 -2.86 3.74 -2.89 0.02 5.74z"/>
  </g>
  <g>
   <path class="fil0" d="M217.8 229.45l-145.33 -112.13 15.69 -3.85c75.54,-18.55 150.54,37.5 150.22,116.06 -0.13,31.4 -12.33,61.16 -34.38,83.52 -30.79,31.24 -74.92,42.61 -117.29,32.09l-15.76 -3.91 146.85 -111.78z"/>
   <path id="1" class="fil1" d="M74.68 114.45l145.33 112.13 -4.42 5.73 -145.33 -112.13 1.35 -6.38 3.07 0.65zm-4.42 5.73l-5.94 -4.59 7.29 -1.79 -1.35 6.38zm18.76 -3.2l-15.69 3.85 -1.72 -7.03 15.69 -3.85 1.72 7.03 -0 0zm152.98 112.56l-7.24 -0.03 0 0 -0.18 -7.08 -0.6 -6.94 -1 -6.79 -1.39 -6.63 -1.76 -6.47 -2.12 -6.29 -2.47 -6.11 -2.81 -5.92 -3.13 -5.72 -3.43 -5.51 -3.73 -5.29 -4.01 -5.06 -4.28 -4.82 -4.54 -4.57 -4.78 -4.32 -5.01 -4.05 -5.23 -3.78 -5.43 -3.49 -5.62 -3.19 -5.8 -2.89 -5.96 -2.58 -6.1 -2.26 -6.24 -1.93 -6.37 -1.58 -6.47 -1.23 -6.57 -0.88 -6.65 -0.5 -6.72 -0.13 -6.78 0.26 -6.82 0.66 -6.86 1.06 -6.87 1.48 -1.73 -7.03 7.28 -1.56 7.27 -1.13 7.24 -0.7 7.2 -0.28 7.13 0.13 7.06 0.54 6.97 0.93 6.87 1.31 6.76 1.68 6.63 2.04 6.48 2.39 6.32 2.74 6.15 3.07 5.96 3.39 5.76 3.7 5.54 4.01 5.32 4.3 5.08 4.58 4.82 4.85 4.55 5.12 4.26 5.38 3.96 5.62 3.66 5.85 3.32 6.08 2.99 6.3 2.63 6.5 2.26 6.7 1.88 6.88 1.47 7.06 1.06 7.22 0.63 7.37 0.19 7.51 0 0zm-35.42 86.05l-5.15 -5.08 0 0 1.98 -2.05 1.92 -2.1 1.86 -2.13 1.81 -2.18 1.75 -2.21 1.69 -2.25 1.63 -2.28 1.57 -2.32 1.52 -2.35 1.45 -2.39 1.4 -2.42 1.33 -2.45 1.27 -2.48 1.21 -2.51 1.15 -2.54 1.09 -2.56 1.02 -2.59 0.97 -2.61 0.9 -2.63 0.84 -2.66 0.78 -2.68 0.71 -2.7 0.65 -2.72 0.58 -2.74 0.51 -2.76 0.45 -2.77 0.38 -2.79 0.32 -2.81 0.25 -2.81 0.18 -2.83 0.12 -2.84 0.04 -2.85 7.24 0.03 -0.05 3.02 -0.12 3.02 -0.19 3 -0.26 2.99 -0.34 2.98 -0.4 2.96 -0.48 2.95 -0.54 2.93 -0.62 2.91 -0.69 2.89 -0.76 2.87 -0.82 2.85 -0.89 2.82 -0.96 2.8 -1.02 2.77 -1.09 2.75 -1.16 2.72 -1.22 2.69 -1.29 2.66 -1.36 2.64 -1.42 2.6 -1.48 2.57 -1.55 2.53 -1.61 2.5 -1.67 2.46 -1.74 2.43 -1.8 2.39 -1.86 2.35 -1.92 2.31 -1.98 2.27 -2.04 2.22 -2.1 2.18 0 0zm-120.74 33.06l1.75 -7.02 0 0 3.87 0.9 3.87 0.77 3.88 0.65 3.88 0.53 3.87 0.4 3.88 0.28 3.87 0.15 3.86 0.03 3.85 -0.09 3.83 -0.21 3.81 -0.33 3.79 -0.45 3.77 -0.57 3.75 -0.69 3.72 -0.81 3.68 -0.93 3.65 -1.05 3.62 -1.17 3.58 -1.29 3.54 -1.4 3.49 -1.52 3.45 -1.63 3.4 -1.75 3.34 -1.87 3.3 -1.98 3.23 -2.1 3.18 -2.21 3.11 -2.33 3.05 -2.44 2.98 -2.55 2.91 -2.67 2.84 -2.79 5.15 5.08 -3.01 2.95 -3.09 2.84 -3.16 2.72 -3.24 2.59 -3.31 2.47 -3.37 2.35 -3.44 2.23 -3.5 2.11 -3.55 1.98 -3.61 1.86 -3.66 1.74 -3.71 1.61 -3.76 1.49 -3.8 1.36 -3.84 1.24 -3.88 1.11 -3.91 0.99 -3.94 0.86 -3.97 0.74 -4 0.6 -4.03 0.48 -4.04 0.35 -4.06 0.22 -4.07 0.09 -4.08 -0.03 -4.1 -0.17 -4.1 -0.3 -4.1 -0.42 -4.11 -0.56 -4.1 -0.68 -4.1 -0.82 -4.09 -0.95 0 0zm-14.02 -10.93l15.76 3.91 -1.75 7.02 -15.76 -3.91 -1.32 -6.39 3.06 -0.63zm-1.75 7.02l-7.32 -1.82 6.01 -4.57 1.32 6.39zm149.91 -112.41l-146.85 111.78 -4.38 -5.76 146.85 -111.78 4.4 0.01 -0.02 5.74zm0.02 -5.74l3.74 2.89 -3.76 2.86 0.02 -5.74z"/>
  </g>
  <path class="fil2" d="M352.74 140.99c-10.51,10.44 -15.79,24.35 -15.79,41.77 0,17.37 5.58,30.91 16.7,40.62 11.17,9.71 24.35,14.57 39.65,14.57 15.3,0 28.35,-5.1 39.1,-15.3 10.2,-10.14 15.3,-23.5 15.3,-40.07 0,-16.58 -5.34,-30.24 -16.03,-40.86 -10.75,-10.62 -23.98,-16.03 -39.59,-16.15 -15.66,-0.12 -28.78,5.04 -39.34,15.42zm-16.15 -44.38l0 26.78c5.58,-9.53 13.66,-16.88 24.35,-21.98 10.44,-5.65 22.1,-8.44 35.03,-8.44 23.74,0 43.84,8.26 60.23,24.83 16.45,16.39 24.65,37.77 24.65,64.05 0,26.29 -8.14,47.6 -24.47,63.99 -16.27,16.33 -36.43,24.53 -60.41,24.53 -12.93,0 -24.77,-2.55 -35.58,-7.65 -10.75,-5.1 -18.7,-12.26 -23.8,-21.37l0 76.94c0.55,19.74 -12.09,30.81 -33.15,31.13l0 -226.94c0.25,-22.15 14.92,-26.65 33.15,-25.88z"/>
  <path class="fil2" d="M644.93 226.64c10.93,-10.2 16.39,-23.92 16.39,-41.22 0,-17.31 -5.71,-30.97 -17.06,-40.92 -11.42,-9.96 -24.83,-15 -40.25,-15.12 -15.48,0 -28.42,5.16 -38.86,15.48 -10.44,10.2 -15.66,23.56 -15.66,40.19 0,16.58 5.34,30.24 16.03,40.86 10.69,10.69 23.86,16.03 39.53,16.03 15.66,0 28.96,-5.1 39.89,-15.3zm16.76 44.08l0 -26.11c-5.34,8.93 -13.42,16.09 -24.22,21.55 -10.81,5.46 -22.59,8.2 -35.46,8.2 -23.56,0 -44.02,-8.26 -61.32,-24.77 -16.7,-16.45 -25.08,-37.83 -25.08,-63.99 0,-26.23 8.26,-47.54 24.71,-63.87 16.51,-16.39 37.1,-24.65 61.75,-24.77 12.32,0 24.22,2.55 35.58,7.65 11.17,5.59 19.19,12.75 24.04,21.55 0.58,-20.09 12.98,-25.96 33.15,-25.56l0 141.24c-0.39,19.83 -12.63,28.19 -33.15,28.88z"/>
  <path class="fil2" d="M1043.89 226.64c10.93,-10.2 16.39,-23.92 16.39,-41.22 0,-17.31 -5.71,-30.97 -17.06,-40.92 -11.42,-9.96 -24.83,-15 -40.25,-15.12 -15.48,0 -28.42,5.16 -38.86,15.48 -10.44,10.2 -15.66,23.56 -15.66,40.19 0,16.58 5.34,30.24 16.03,40.86 10.69,10.69 23.86,16.03 39.53,16.03 15.66,0 28.96,-5.1 39.89,-15.3zm16.76 44.08l0 -26.11c-5.34,8.93 -13.42,16.09 -24.22,21.55 -10.81,5.46 -22.59,8.2 -35.46,8.2 -23.56,0 -44.02,-8.26 -61.32,-24.77 -16.7,-16.45 -25.08,-37.83 -25.08,-63.99 0,-26.23 8.26,-47.54 24.71,-63.87 16.51,-16.39 37.1,-24.65 61.75,-24.77 12.32,0 24.22,2.55 35.58,7.65 11.17,5.59 19.19,12.75 24.04,21.55 0.58,-20.09 12.98,-25.96 33.15,-25.56l0 141.24c-0.39,19.83 -12.63,28.19 -33.15,28.88z"/>
  <path class="fil2" d="M1559.43 226.64c10.93,-10.2 16.39,-23.92 16.39,-41.22 0,-17.31 -5.71,-30.97 -17.06,-40.92 -11.42,-9.96 -24.83,-15 -40.26,-15.12 -15.48,0 -28.41,5.16 -38.86,15.48 -10.44,10.2 -15.66,23.56 -15.66,40.19 0,16.58 5.34,30.24 16.03,40.86 10.69,10.69 23.86,16.03 39.53,16.03 15.66,0 28.96,-5.1 39.89,-15.3zm16.76 44.08l0 -26.11c-5.34,8.93 -13.42,16.09 -24.22,21.55 -10.81,5.46 -22.59,8.2 -35.46,8.2 -23.56,0 -44.02,-8.26 -61.32,-24.77 -16.7,-16.45 -25.08,-37.83 -25.08,-63.99 0,-26.23 8.26,-47.54 24.71,-63.87 16.51,-16.39 37.1,-24.65 61.75,-24.77 12.32,0 24.22,2.55 35.58,7.65 11.17,5.59 19.19,12.75 24.04,21.55 0.58,-20.09 12.98,-25.96 33.15,-25.56l0 141.24c-0.38,19.83 -12.63,28.19 -33.15,28.88z"/>
  <path class="fil2" d="M765.24 100.6l114.25 0 0 27.26 -103.15 111.17 103.15 0c-0.26,17.88 -9.19,31.09 -30.17,31.7l-119.62 0 0 -27.44 101.21 -110.99 -95.32 0c-0.55,-18.58 4.16,-31.21 29.64,-31.69z"/>
  <path class="fil2" d="M1278.41 181l0 91.5c-20.2,0.87 -32.66,-3.77 -33.15,-28.04l0 -68.25c0,-14.09 -3.4,-24.95 -10.14,-32.66 -6.5,-8.02 -16.03,-12.02 -28.47,-12.02 -12.33,0 -23.01,4.19 -32,12.57 -9.05,8.38 -13.54,20.71 -13.54,36.92l0 63.63c-0.23,20.8 -13.43,27.25 -33.15,27.87l0 -140.56c0.15,-20.41 13.35,-29.09 33.15,-29.57l0 25.86c3.95,-8.13 10.38,-14.82 19.43,-19.98 9.47,-5.16 18.09,-7.95 25.8,-8.44 32.73,-2 54.4,9.47 64.97,34.37 11.84,-23.62 31.39,-35.46 58.77,-35.46 21.31,0 37.52,6.56 48.57,19.73 11.35,12.93 17.06,31.51 17.06,55.68l0 98.36c-19.68,-0.19 -32.89,-7.16 -33.15,-27.52l0 -68.41c0,-13.84 -3.46,-24.83 -10.32,-33.03 -7.41,-8.02 -17.42,-12.08 -29.99,-12.21 -12.51,-0.12 -22.95,4.37 -31.21,13.48 -8.32,9.11 -12.51,21.13 -12.63,36.19z"/>
  <path class="fil2" d="M1644.2 270.99l0 -238.68c0.11,-17.06 14.37,-28.17 32.98,-29.17l0 234.78c0.03,19.08 -13.07,33.3 -32.98,33.07z"/>
  <path class="fil2" d="M1710.81 270.99l0 -238.68c0.11,-17.06 14.37,-28.17 32.98,-29.17l0 234.78c0.03,19.08 -13.07,33.3 -32.98,33.07z"/>
 </g>
</svg>
