<?xml version="1.0" encoding="UTF-8"?>
<!DOCTYPE svg PUBLIC "-//W3C//DTD SVG 1.1//EN" "http://www.w3.org/Graphics/SVG/1.1/DTD/svg11.dtd">
<!-- Creator: CorelDRAW 2018 (64-Bit Evaluation Version) -->
<svg xmlns="http://www.w3.org/2000/svg" xml:space="preserve" width="96.1098mm" height="23.8166mm" version="1.1" style="shape-rendering:geometricPrecision; text-rendering:geometricPrecision; image-rendering:optimizeQuality; fill-rule:evenodd; clip-rule:evenodd"
viewBox="0 0 4246.69 1052.36"
 xmlns:xlink="http://www.w3.org/1999/xlink">
 <defs>
  <style type="text/css">
   <![CDATA[
    .fil0 {fill:none}
    .fil2 {fill:#3B9CFF}
    .fil1 {fill:#313B4A;fill-rule:nonzero}
   ]]>
  </style>
 </defs>
 <g id="Layer_x0020_1">
  <metadata id="CorelCorpID_0Corel-Layer"/>
  <rect class="fil0" x="-0" y="1.46" width="818.36" height="818.36"/>
  <path class="fil1" d="M1235.91 261.78c65.31,0 114.67,18.44 148.09,55.32 33.42,36.88 50.13,91.05 50.13,162.5l0 227.24c-4.43,77.45 -40.55,100.1 -100.26,100.05l0 -283.5c0,-59.92 -10.56,-104.1 -31.69,-132.53 -21.13,-28.42 -55.13,-42.64 -101.99,-42.64 -48.41,0 -85.47,15.94 -111.21,47.83 -25.74,31.89 -38.61,75.1 -38.61,129.65l0 181.38c-2.48,66.45 -45.74,99.87 -100.27,99.81l0 -706.23c2.77,-66.64 39.69,-96.35 100.27,-100.47l0 373.39c14.59,-34.57 37.84,-61.85 69.72,-81.82 31.88,-19.98 70.49,-29.97 115.82,-29.97z"/>
  <path class="fil1" d="M1822.48 820.71c-56.09,0 -105.07,-12.29 -146.94,-36.88 -41.87,-24.58 -73.95,-58.2 -96.23,-100.84 -22.28,-42.64 -33.42,-89.7 -33.42,-141.17 0,-52.24 11.14,-99.69 33.42,-142.32 22.28,-42.64 54.36,-76.25 96.23,-100.84 41.87,-24.58 90.85,-36.88 146.94,-36.88 56.09,0 105.07,12.29 146.94,36.88 41.87,24.59 73.95,58.2 96.23,100.84 22.28,42.63 33.42,90.08 33.42,142.32 0,51.47 -11.33,98.53 -33.99,141.17 -22.67,42.64 -54.74,76.26 -96.23,100.84 -41.49,24.58 -90.27,36.88 -146.36,36.88zm0 -89.89c54.55,0 97.58,-17.86 129.07,-53.59 31.5,-35.72 47.25,-80.86 47.25,-135.41 0,-55.32 -15.75,-100.84 -47.25,-136.57 -31.5,-35.72 -74.52,-53.58 -129.07,-53.58 -54.55,0 -97.77,17.86 -129.65,53.58 -31.88,35.73 -47.83,81.25 -47.83,136.57 0,54.55 15.95,99.69 47.83,135.41 31.88,35.72 75.1,53.59 129.65,53.59z"/>
  <path class="fil1" d="M2497.04 261.78c49.94,0 94.5,11.72 133.68,35.15 39.18,23.43 69.53,56.47 91.04,99.11 21.51,42.64 32.26,91.23 32.26,145.78 0,53.78 -11.14,101.8 -33.42,144.05 -22.28,42.25 -53.4,75.29 -93.35,99.11 -39.94,23.82 -85.27,35.72 -135.99,35.72 -40.72,0 -78.36,-9.6 -112.93,-28.81 -34.58,-19.21 -60.31,-45.33 -77.21,-78.36l0 239.21c-0.71,70.15 -40.6,99.37 -99.11,99.6l0 -684.7c0.18,-70.98 38.93,-91.8 99.11,-92.04l0 94.5c16.9,-33.04 43.02,-59.35 78.36,-78.94 35.34,-19.59 74.53,-29.39 117.55,-29.39zm-19.59 469.04c51.48,0 93.73,-17.67 126.77,-53.01 33.03,-35.34 49.55,-80.67 49.55,-135.99 0,-36.11 -7.49,-68.76 -22.48,-97.96 -14.98,-29.2 -35.91,-51.86 -62.81,-67.99 -26.89,-16.14 -57.24,-24.2 -91.04,-24.2 -53.01,0 -96.42,17.67 -130.22,53.01 -33.81,35.34 -50.71,81.05 -50.71,137.14 0,55.32 16.9,100.65 50.71,135.99 33.8,35.34 77.21,53.01 130.22,53.01z"/>
  <path class="fil1" d="M3157.86 261.78c49.94,0 94.5,11.72 133.68,35.15 39.18,23.43 69.53,56.47 91.04,99.11 21.51,42.64 32.26,91.23 32.26,145.78 0,53.78 -11.14,101.8 -33.42,144.05 -22.28,42.25 -53.4,75.29 -93.35,99.11 -39.94,23.82 -85.27,35.72 -135.99,35.72 -40.72,0 -78.36,-9.6 -112.93,-28.81 -34.58,-19.21 -60.31,-45.33 -77.21,-78.36l0 238.93c-1.37,70.44 -42.37,99.98 -99.11,99.88l0 -684.99c1.91,-67.02 45.81,-91.77 99.11,-91.75l0 94.5c16.9,-33.04 43.02,-59.35 78.37,-78.94 35.34,-19.59 74.52,-29.39 117.55,-29.39zm-19.59 469.04c51.48,0 93.73,-17.67 126.77,-53.01 33.03,-35.34 49.55,-80.67 49.55,-135.99 0,-36.11 -7.49,-68.76 -22.47,-97.96 -14.98,-29.2 -35.92,-51.86 -62.81,-67.99 -26.89,-16.14 -57.24,-24.2 -91.04,-24.2 -53.01,0 -96.42,17.67 -130.22,53.01 -33.8,35.34 -50.71,81.05 -50.71,137.14 0,55.32 16.91,100.65 50.71,135.99 33.8,35.34 77.21,53.01 130.22,53.01z"/>
  <path class="fil1" d="M3523.65 0.18c60.37,0.11 99.28,24.23 100.26,100.63l0 706.07c-56.43,0.06 -99.1,-30.63 -100.26,-99.93l0 -706.78z"/>
  <path class="fil1" d="M4246.69 511.86c0,23.05 -0.77,42.64 -2.31,58.77l-411.42 0c0.77,50.71 16.14,90.47 46.1,119.28 29.96,28.81 70.3,43.21 121.01,43.21 35.34,0 64.92,-6.72 88.73,-20.17 23.82,-13.45 41.1,-32.84 51.86,-58.2l100.26 0c-7.33,39.08 -25.82,72.33 -55.46,99.76 -0.07,0.06 -0.13,0.12 -0.19,0.18 -7.6,7.02 -15.95,13.66 -25.02,19.91 -44.56,30.73 -97.96,46.09 -160.19,46.09 -81.44,0 -146.17,-25.16 -194.19,-75.48 -48.02,-50.32 -72.03,-118.51 -72.03,-204.55 0,-55.32 10.76,-104.11 32.26,-146.36 21.52,-42.26 52.06,-74.91 91.62,-97.96 39.57,-23.05 85.48,-34.58 137.72,-34.58 49.17,0 92.77,10.56 130.8,31.69 38.03,21.13 67.61,50.71 88.74,88.74 21.13,38.03 31.69,81.24 31.69,129.65zm-97.96 -18.44c0,-46.86 -13.64,-83.74 -40.92,-110.63 -27.27,-26.89 -65.11,-40.34 -113.51,-40.34 -47.64,0 -85.86,13.83 -114.67,41.49 -28.81,27.66 -44.37,64.15 -46.67,109.48l315.77 0z"/>
  <g id="_1780595109088">
   <polygon class="fil2" points="818.35,0 264.13,0 264.06,593.97 435.77,186.38 "/>
   <polygon class="fil2" points="-0,821.28 554.21,821.28 554.29,227.31 382.57,634.89 "/>
  </g>
 </g>
</svg>
