<?xml version="1.0" encoding="UTF-8"?>
<!DOCTYPE svg PUBLIC "-//W3C//DTD SVG 1.1//EN" "http://www.w3.org/Graphics/SVG/1.1/DTD/svg11.dtd">
<!-- Creator: CorelDRAW 2018 (64-Bit Evaluation Version) -->
<svg xmlns="http://www.w3.org/2000/svg" xml:space="preserve" width="11.9062mm" height="12.0241mm" version="1.1" style="shape-rendering:geometricPrecision; text-rendering:geometricPrecision; image-rendering:optimizeQuality; fill-rule:evenodd; clip-rule:evenodd"
viewBox="0 0 59.35 59.93"
 xmlns:xlink="http://www.w3.org/1999/xlink">
 <defs>
  <style type="text/css">
   <![CDATA[
    .str1 {stroke:#3D4852;stroke-width:0.42;stroke-miterlimit:22.9256}
    .str0 {stroke:#3D4852;stroke-width:1;stroke-miterlimit:22.9256}
    .fil0 {fill:none}
    .fil1 {fill:#3D4852}
   ]]>
  </style>
 </defs>
 <g id="Layer_x0020_1">
  <metadata id="CorelCorpID_0Corel-Layer"/>
  <g id="_2685471960240">
   <rect class="fil0" x="-0" y="0.31" width="59.35" height="59.35"/>
   <g>
    <path class="fil1 str0" d="M16.22 0.5c6.75,0 15.15,4.91 15.15,14.42 0,10.33 -7.14,14.8 -15.15,14.8l11.41 -14.47 -11.41 -14.75z"/>
    <path class="fil1 str0" d="M16.22 30.22c6.75,0 15.15,4.91 15.15,14.42 0,10.33 -7.14,14.8 -15.15,14.8l11.41 -14.47 -11.41 -14.75z"/>
    <polygon class="fil1 str1" points="10.87,2.04 13.7,0.31 9.14,0.31 9.14,5.46 "/>
    <polygon class="fil1 str1" points="10.87,57.92 13.7,59.66 9.14,59.66 9.14,54.51 "/>
   </g>
   <polygon class="fil1" points="42.48,30.36 50.21,7.56 27.24,30.33 50.13,53.35 "/>
  </g>
 </g>
</svg>
