<?xml version="1.0" encoding="UTF-8"?>
<!DOCTYPE svg PUBLIC "-//W3C//DTD SVG 1.1//EN" "http://www.w3.org/Graphics/SVG/1.1/DTD/svg11.dtd">
<!-- Creator: CorelDRAW 2018 (64-Bit Evaluation Version) -->
<svg xmlns="http://www.w3.org/2000/svg" xml:space="preserve" width="23.8126mm" height="23.8972mm" version="1.1" style="shape-rendering:geometricPrecision; text-rendering:geometricPrecision; image-rendering:optimizeQuality; fill-rule:evenodd; clip-rule:evenodd"
viewBox="0 0 231.69 232.51"
 xmlns:xlink="http://www.w3.org/1999/xlink">
 <defs>
  <style type="text/css">
   <![CDATA[
    .str1 {stroke:#61C4B1;stroke-width:0.82;stroke-miterlimit:22.9256}
    .str0 {stroke:#61C4B1;stroke-width:1.95;stroke-miterlimit:22.9256}
    .fil0 {fill:none}
    .fil1 {fill:#61C4B1}
    .fil2 {fill:#506BB1}
   ]]>
  </style>
 </defs>
 <g id="Layer_x0020_1">
  <metadata id="CorelCorpID_0Corel-Layer"/>
  <g id="_2685342093360">
   <rect class="fil0" x="0" y="0.41" width="231.69" height="231.69"/>
   <g>
    <g>
     <path class="fil1 str0" d="M63.32 1.15c26.35,0 59.13,19.16 59.13,56.29 0,40.32 -27.88,57.78 -59.13,57.78l44.53 -56.48 -44.53 -57.59z"/>
     <path class="fil1 str0" d="M63.32 117.17c26.35,0 59.13,19.16 59.13,56.29 0,40.32 -27.88,57.78 -59.13,57.78l44.53 -56.49 -44.53 -57.59z"/>
     <polygon class="fil1 str1" points="42.43,7.18 53.46,0.41 35.68,0.41 35.68,20.52 "/>
     <polygon class="fil1 str1" points="42.43,225.33 53.46,232.1 35.68,232.1 35.68,212 "/>
    </g>
    <polygon class="fil2" points="165.85,117.71 196.01,28.7 106.34,117.59 195.72,207.47 "/>
   </g>
  </g>
 </g>
</svg>
