<?xml version="1.0" encoding="UTF-8"?>
<!DOCTYPE svg PUBLIC "-//W3C//DTD SVG 1.1//EN" "http://www.w3.org/Graphics/SVG/1.1/DTD/svg11.dtd">
<!-- Creator: CorelDRAW 2018 (64-Bit Evaluation Version) -->
<svg xmlns="http://www.w3.org/2000/svg" xml:space="preserve" width="48.3285mm" height="240px" version="1.1" style="shape-rendering:geometricPrecision; text-rendering:geometricPrecision; image-rendering:optimizeQuality; fill-rule:evenodd; clip-rule:evenodd"
viewBox="0 0 1932.77 476.16"
 xmlns:xlink="http://www.w3.org/1999/xlink">
 <defs>
  <style type="text/css">
   <![CDATA[
    .str1 {stroke:#61C4B1;stroke-width:3.39;stroke-miterlimit:22.9256}
    .str0 {stroke:#61C4B1;stroke-width:8;stroke-miterlimit:22.9256}
    .fil3 {fill:#61C4B1}
    .fil4 {fill:#506BB1}
    .fil1 {fill:#3D4852}
    .fil2 {fill:#61C4B1;fill-rule:nonzero}
    .fil0 {fill:#3D4852;fill-rule:nonzero}
   ]]>
  </style>
 </defs>
 <g id="Layer_x0020_1">
  <metadata id="CorelCorpID_0Corel-Layer"/>
  <g id="_2685605853248">
   <g>
    <path class="fil0" d="M1163.23 367.27c-27.1,-0.2 -44.7,-7.54 -45.62,-34.69l-1.07 -332.02c25.75,-0.15 45.02,7.25 45.62,30.91l0 177.97 0 38.18 1.07 119.64z"/>
    <g>
     <path class="fil1" d="M1168.96 256.58c-5.74,-5.58 -8.62,-14.95 -8.77,-24.43l-0.01 0 0 -0.38 0 -0.07 0 -0.07 0 -0.41 0 0 0 -0.16 0 -0.28 0.02 -0.46 0 -0.2 0.01 -0.26 0.02 -0.46 0.01 -0.22 0.02 -0.24 0.03 -0.45 0.02 -0.25 0.02 -0.21 0.04 -0.45 0.03 -0.27 0.02 -0.18 0.05 -0.46 0.03 -0.3 0.02 -0.16 0.06 -0.45 0.04 -0.32 0.02 -0.13 0.12 -0.79 0.01 -0.11 0.14 -0.8 0.01 -0.09 0.08 -0.44 0.02 -0.11 0.06 -0.32 0.09 -0.44 0.09 -0.4 0.01 -0.04 0.1 -0.43 0.1 -0.42 0 -0.01 0.11 -0.43 0.11 -0.42 0 -0.02 0.11 -0.41 0.12 -0.42 0.01 -0.04 0.05 -0.17 0.19 -0.62 0.02 -0.06 0.12 -0.36 0.14 -0.41 0.1 -0.32 0.03 -0.09 0.15 -0.4 0.04 -0.1 0.12 -0.3 0.15 -0.4 0.05 -0.12 0.28 -0.67 0.06 -0.14 0.11 -0.25 0.17 -0.38 0.07 -0.16 0.11 -0.23 0.18 -0.37 0.08 -0.17 0.1 -0.2 0.3 -0.55 0.09 -0.18 0.2 -0.36 0.12 -0.21 0.09 -0.15 0.34 -0.56 0.08 -0.14 0.22 -0.34 0.15 -0.23 0.08 -0.1 0.23 -0.34 0.17 -0.24 0.06 -0.09 0.24 -0.32 0.18 -0.25 0.06 -0.07 0.24 -0.31 0.21 -0.26 0.04 -0.05 0.26 -0.3 0.23 -0.27 0.03 -0.03 0.09 -0.1 0.42 -0.46 0.01 -0.02 0.27 -0.27 0.28 -0.28 116.59 -79.04c10.73,19 6,34.35 -6.66,42.1l-96.73 66.22 -4.08 -8.01 -0.06 0.06 0 0 -0.04 0.06 -0.05 0.06 -0 0 -0.04 0.06 -0.05 0.06 0 0 -0.05 0.05 -0.05 0.06 -0 0 -0.04 0.05 -0.04 0.06 -0 0.01 -0.04 0.05 -0.04 0.06 -0.01 0.01 -0.03 0.05 -0.04 0.06 -0.01 0.02 -0.04 0.05 -0.04 0.06 -0.01 0.02 -0.03 0.05 -0.04 0.06 -0.01 0.02 -0.03 0.05 -0.04 0.06 -0.01 0.01 -0.02 0.05 -0.04 0.06 -0.01 0.02 -0.02 0.05 -0.04 0.06 -0.01 0.02 -0.02 0.04 -0.03 0.06 -0.01 0.03 -0.02 0.04 -0.03 0.06 -0.01 0.02 -0.02 0.04 -0.03 0.06 -0.01 0.02 -0.02 0.05 -0.02 0.06 -0.01 0.03 -0.02 0.04 -0.03 0.06 -0.01 0.04 -0.02 0.03 -0.02 0.07 -0.01 0.03 -0.01 0.04 -0.02 0.06 -0.01 0.04 -0.01 0.03 -0.02 0.07 -0.01 0.04 -0.01 0.02 -0.02 0.07 -0.01 0.04 -0 0.03 -0.02 0.07 -0.01 0.04 -0.01 0.03 -0.02 0.07 -0.01 0.05 -0.01 0.02 -0.01 0.06 -0.01 0.04 -0 0.03 -0.01 0.07 -0.01 0.05 -0 0.02 -0.02 0.12 -0 0.02 -0.01 0.07 -0 0.05 -0 0.02 -0.01 0.07 -0 0.06 0 0.02 0 0.01c0.1,1.32 0.67,2.64 1.67,3.68l25.19 16.89 -16.32 16.9 -18.03 -12.57z"/>
     <path id="1" class="fil0" d="M1160.2 226.82l6.25 5.25 0.02 0.8 0.04 0.8 0.05 0.8 0.06 0.8 0.08 0.8 0.1 0.79 0.1 0.79 0.12 0.78 0.14 0.77 0.15 0.75 0.16 0.76 0.18 0.75 0.19 0.73 0.2 0.72 0.22 0.72 0.23 0.7 0.24 0.67 0.26 0.67 0.27 0.66 0.28 0.62 0.3 0.62 0.31 0.61 0.31 0.58 0.33 0.57 0.33 0.54 0.35 0.52 0.35 0.51 0.36 0.47 0.38 0.46 0.37 0.44 0.37 0.4 0.39 0.4 -9.41 7.01 -0.67 -0.68 -0.65 -0.7 -0.62 -0.72 -0.58 -0.73 -0.57 -0.76 -0.54 -0.76 -0.52 -0.78 -0.5 -0.81 -0.46 -0.81 -0.45 -0.82 -0.42 -0.83 -0.4 -0.84 -0.39 -0.87 -0.36 -0.87 -0.34 -0.87 -0.32 -0.9 -0.3 -0.9 -0.28 -0.91 -0.26 -0.91 -0.24 -0.93 -0.22 -0.93 -0.2 -0.93 -0.19 -0.95 -0.16 -0.95 -0.15 -0.95 -0.13 -0.96 -0.11 -0.96 -0.09 -0.96 -0.08 -0.97 -0.06 -0.96 -0.04 -0.97 -0.02 -0.97 6.25 5.25 0 -10.65zm0 0l6.17 0 0.08 5.25 -6.25 -5.25zm-0.01 10.65l-6.25 -5.32 6.25 -5.32 0.01 0 0 10.65 -0.01 0zm0 0l-6.25 0 0 -5.32 6.25 5.32zm-6.25 -5.71l12.51 0 0 0.38 -12.51 0 0 -0.38zm0 -0.07l12.51 0 0 0.07 -12.51 0 0 -0.07zm0 -0.07l12.51 0 0 0.07 -12.51 0 0 -0.07zm0 -0.41l6.25 -5.32 6.25 5.32 0 0.41 -12.51 0 0 -0.41zm0 0l0 -5.32 6.25 0 -6.25 5.32zm6.26 -5.32l6.25 5.44 -6.25 5.21 -0 0 0 -10.65 0 0zm6.25 5.44l-0.13 5.21 -6.12 0 6.25 -5.21zm-12.51 -0.39l12.51 0.18 0 0.05 -0 0.16 -12.51 -0.23 0 -0.16zm12.51 0.18l0 0.12 0 -0.06 0 -0.05zm-12.51 -0.41l0 -0.1 12.51 0.22 -0 0.28 -12.51 -0.13 0 -0.28zm0 0l0 -0.1 0 -0.06 -0 0.16zm0.02 -0.55l12.51 0.25 0 0.07 -0.02 0.46 -12.51 -0.32 0.02 -0.46zm12.51 0.25l0 0.07 -0 0.09 0 -0.16zm-12.51 -0.38l0 -0.11 12.51 0.3 -0 0.2 -12.51 -0.18 0 -0.2zm0 0l0 -0.04 0 -0.07 -0 0.11zm0.02 -0.38l12.5 0.4 0 0 -0.01 0.26 -12.5 -0.41 0.01 -0.26zm12.5 0.4l0 0 -0 0.11 0 -0.12zm-12.48 -0.86l0 -0.05 12.5 0.45 -0.02 0.46 -12.5 -0.4 0.02 -0.46zm0 0l0 -0.05 0.01 -0.2 -0.01 0.24zm0.01 -0.27l0 -0.06 12.5 0.56 -0.01 0.22 -12.5 -0.5 0.01 -0.22zm0 0l0 -0 0 -0.06 -0 0.06zm0.02 -0.3l12.49 0.59 0 0.03 -0.02 0.24 -12.49 -0.62 0.02 -0.24zm12.49 0.59l0 0.03 -0.02 0.3 0.02 -0.32zm-12.47 -1.01l0 -0.08 12.49 0.64 -0.03 0.45 -12.49 -0.56 0.03 -0.45zm0 0l0 -0.08 0 -0.06 -0.01 0.14zm0.02 -0.33l12.49 0.7 0 0.02 -0.02 0.25 -12.49 -0.72 0.02 -0.25zm12.49 0.7l0 0.02 -0.03 0.39 0.03 -0.41zm-12.47 -0.89l0 -0.02 12.49 0.7 -0.02 0.21 -12.49 -0.68 0.02 -0.21zm0 0l0 -0.02 0.03 -0.36 -0.03 0.38zm0.04 -0.47l0.01 -0.1 12.47 0.82 -0.04 0.45 -12.49 -0.72 0.04 -0.45zm0 0l0.01 -0.1 -0.02 0.16 0 -0.06zm0.04 -0.38l12.47 0.86 -0.01 0.06 -0.03 0.27 -12.46 -0.93 0.03 -0.27zm12.47 0.86l-0.01 0.06 0.02 -0.16 -0.01 0.1zm-12.46 -0.98l0.01 -0.12 12.47 0.92 -0.02 0.18 -12.48 -0.8 0.02 -0.18zm0 0l0 -0.05 0.01 -0.07 -0.01 0.12zm0.06 -0.57l12.46 1 -0 0.03 -0.05 0.46 -12.45 -1.03 0.05 -0.46zm12.46 1l-0 0.03 0.02 -0.16 -0.02 0.14zm-12.43 -1.27l0.01 -0.09 12.45 1.06 -0.03 0.3 -12.46 -0.98 0.03 -0.3zm0 0l0.01 -0.09 -0.02 0.12 0 -0.04zm0.03 -0.24l12.44 1.14 -0 0.01 -0.02 0.16 -12.44 -1.15 0.02 -0.16zm12.44 1.14l-0 0.01 0.1 -0.78 -0.1 0.77zm-12.39 -1.58l12.45 1.13 -0.06 0.45 -12.45 -1.13 0.06 -0.45zm0.04 -0.32l0.02 -0.12 12.43 1.24 -0.04 0.32 -12.45 -1.13 0.04 -0.32zm0 0l0.01 -0.06 0.01 -0.06 -0.02 0.12zm0.04 -0.25l12.41 1.36 -0.02 0.13 -12.41 -1.36 0.02 -0.13zm0.12 -0.79l12.44 1.18 -0.02 0.18 -0.12 0.79 -12.41 -1.36 0.12 -0.79zm12.44 1.18l-0.01 0.08 -0.02 0.1 0.02 -0.18zm-12.45 -1.11l0.04 -0.28 12.42 1.28 -0.01 0.11 -12.46 -1 0.01 -0.11zm0 0l0.01 -0.09 0.04 -0.2 -0.04 0.28zm0.18 -1.08l12.4 1.4 -0.03 0.17 -0.14 0.8 -12.37 -1.57 0.14 -0.8zm12.4 1.4l-0.01 0.06 -0.02 0.12 0.03 -0.17zm-12.42 -1.31l0.04 -0.24 12.39 1.46 -0.01 0.09 -12.43 -1.22 0.01 -0.09zm0 0l0.02 -0.11 0.02 -0.13 -0.04 0.24zm0.12 -0.68l0.02 -0.1 12.33 1.81 -0.08 0.44 -12.35 -1.7 0.08 -0.44zm0 0l0.02 -0.1 0 0.01 -0.02 0.1zm0.04 -0.22l12.33 1.84 -0.02 0.07 -0.02 0.11 -12.31 -1.91 0.02 -0.11zm12.33 1.84l0.01 -0.04 -0.02 0.11 0.02 -0.07zm-12.28 -2.09l0 -0.01 12.34 1.78 -0.06 0.32 -12.34 -1.77 0.06 -0.32zm0 0l0 -0.01 -0.2 0.98 0.19 -0.97zm0.09 -0.45l0.02 -0.08 12.32 1.86 -0.09 0.44 -12.33 -1.78 0.09 -0.44zm0 0l0.02 -0.08 0 0 -0.02 0.08zm0.1 -0.48l0 -0.02 12.3 1.96 -0.09 0.4 -12.3 -1.94 0.09 -0.4zm0 0l0 -0.02 -0.03 0.12 0.02 -0.1zm0.01 -0.05l0.01 -0.04 12.29 2.02 -0.01 0.04 -12.29 -1.98 0.01 -0.04zm0 0l0.01 -0.04 0.02 -0.1 -0.03 0.14zm0.11 -0.47l0.01 -0.03 12.27 2.08 -0.1 0.43 -12.28 -2.06 0.1 -0.43zm0 0l0.01 -0.03 -0.06 0.23 0.05 -0.2zm0.11 -0.45l0.11 -0.4 12.15 2.51 -0.1 0.42 -12.26 -2.11 0.1 -0.42zm0 0l0.05 -0.21 0.06 -0.18 -0.11 0.4zm0.12 -0.41l12.14 2.56 -0.1 0.34 -0 0.01 -12.04 -2.9 0 -0.01zm12.14 2.56l-0.04 0.18 -0.06 0.17 0.1 -0.34zm-12.13 -2.65l0.02 -0.06 12.22 2.28 -0.11 0.43 -12.24 -2.22 0.11 -0.43zm0 0l-0 0.01 0.02 -0.07 -0.02 0.06zm0.13 -0.48l12.22 2.28 -0.02 0.06 -0.11 0.42 -12.21 -2.34 0.11 -0.42zm12.22 2.28l0 -0.01 -0.02 0.07 0.02 -0.06zm-12.23 -2.23l0.03 -0.1 12.21 2.32 -0 0.02 -12.24 -2.22 0 -0.02zm0 0l0 -0.02 0.02 -0.08 -0.03 0.1zm0.14 -0.51l0.02 -0.08 12.16 2.5 -0.11 0.41 -12.18 -2.42 0.11 -0.41zm0 0l0.02 -0.08 0.02 -0.05 -0.04 0.12zm0.14 -0.5l0.05 -0.16 12.09 2.74 -0.12 0.42 -12.14 -2.58 0.12 -0.42zm0 0l0.02 -0.06 0.03 -0.1 -0.05 0.16zm0.06 -0.2l12.11 2.68 -0.07 0.22 -0.01 0.04 -12.04 -2.9 0.01 -0.04zm12.11 2.68l-0.03 0.1 -0.04 0.12 0.07 -0.22zm-12.13 -2.64l0.04 -0.12 12.14 2.58 -0.05 0.17 -12.17 -2.46 0.05 -0.17zm0 0l-0 0.01 0.04 -0.13 -0.04 0.12zm0.23 -0.74l0.06 -0.2 12.04 2.9 -0.19 0.62 -12.1 -2.7 0.19 -0.62zm0 0l0.05 -0.15 0.02 -0.05 -0.06 0.2zm0.08 -0.26l12.02 2.97 -0.04 0.12 -0.02 0.06 -11.97 -3.1 0.02 -0.06zm12.02 2.97l-0.04 0.12 0.04 -0.12 0 -0.01zm-11.95 -3.2l0.03 -0.1 12.03 2.94 -0.12 0.36 -12.06 -2.85 0.12 -0.36zm0 0l0.02 -0.06 0.01 -0.03 -0.03 0.1zm0.18 -0.51l12.03 2.94 -0.03 0.1 -0.14 0.41 -12 -3.04 0.14 -0.41zm12.03 2.94l-0.03 0.1 -0.01 0.02 0.04 -0.12zm-11.96 -3.16l0.03 -0.09 12.03 2.93 -0.1 0.32 -12.06 -2.84 0.1 -0.32zm0 0l0 0 0.03 -0.09 -0.03 0.09zm0.06 -0.18l0.04 -0.13 11.95 3.15 -0.03 0.09 -12 -3.02 0.03 -0.09zm0 0l0.04 -0.13 0.01 -0.02 -0.05 0.14zm0.2 -0.53l11.96 3.14 -0.05 0.14 -0.15 0.4 -11.91 -3.28 0.15 -0.4zm11.96 3.14l-0.04 0.11 -0.01 0.03 0.05 -0.14zm-11.97 -3.11l0.06 -0.16 11.95 3.17 -0.04 0.1 -12.01 -3.01 0.04 -0.1zm0 0l0.02 -0.05 0.04 -0.11 -0.06 0.16zm0.18 -0.46l11.9 3.3 -0.01 0.02 -0.12 0.3 -11.89 -3.33 0.12 -0.3zm11.9 3.3l-0.01 0.02 0.17 -0.43 -0.16 0.41zm-11.76 -3.68l0.11 -0.26 11.8 3.54 -0.15 0.4 -11.91 -3.28 0.15 -0.4zm0 0l0.04 -0.1 0.07 -0.16 -0.11 0.26zm0.16 -0.37l11.75 3.65 -0.06 0.14 -0.05 0.12 -11.69 -3.79 0.05 -0.12zm11.75 3.65l-0.06 0.14 0.03 -0.07 0.03 -0.07zm-11.54 -4.18l0.05 -0.12 11.77 3.63 -0.28 0.67 -11.81 -3.51 0.28 -0.67zm0 0l0.05 -0.12 -0 0.01 -0.04 0.1zm0.11 -0.25l0.02 -0.04 11.7 3.78 -0.06 0.14 -11.72 -3.74 0.06 -0.14zm0 0l0.02 -0.04 -0.1 0.22 0.08 -0.18zm0.13 -0.29l11.69 3.81 -0.01 0.02 -0.11 0.25 -11.68 -3.82 0.11 -0.25zm11.69 3.81l-0.01 0.02 0.1 -0.22 -0.09 0.21zm-11.52 -4.18l0.02 -0.05 11.67 3.84 -0.17 0.38 -11.69 -3.79 0.17 -0.38zm0 0l0 0 0.02 -0.05 -0.02 0.05zm0.1 -0.21l0.02 -0.04 11.63 3.94 -0.07 0.16 -11.65 -3.9 0.07 -0.16zm0 0l0.02 -0.04 0.01 -0.02 -0.03 0.07zm0.13 -0.27l0.02 -0.04 11.59 4.02 -0.11 0.23 -11.61 -3.98 0.11 -0.23zm0 0l0.02 -0.04 0.05 -0.1 -0.07 0.14zm0.2 -0.41l0.01 -0.02 11.57 4.07 -0.18 0.37 -11.57 -4.06 0.18 -0.37zm0 0l-0.02 0.04 0.03 -0.06 -0.01 0.02zm0.09 -0.19l0.04 -0.08 11.52 4.16 -0.08 0.17 -11.56 -4.09 0.08 -0.17zm0 0l0.04 -0.08 -0.07 0.14 0.03 -0.06zm0.14 -0.28l0.05 -0.09 11.43 4.33 -0.1 0.2 -11.48 -4.24 0.1 -0.2zm0 0l0.02 -0.05 0.02 -0.04 -0.05 0.09zm0.34 -0.64l11.41 4.38 -0.02 0.05 -0.3 0.55 -11.38 -4.42 0.3 -0.55zm11.41 4.38l-0.02 0.05 -0.04 0.08 0.07 -0.13zm-11.34 -4.5l0.04 -0.08 11.39 4.4 -0.09 0.18 -11.43 -4.33 0.09 -0.18zm0 0l0.04 -0.08 0.09 -0.17 -0.13 0.25zm0.23 -0.44l0.06 -0.11 11.29 4.59 -0.2 0.36 -11.36 -4.48 0.2 -0.36zm0 0l0.06 -0.11 -0.09 0.16 0.03 -0.05zm0.18 -0.32l0 -0 11.23 4.7 -0.12 0.21 -11.23 -4.7 0.12 -0.21zm0 0l0 -0 -0.48 0.84 0.48 -0.83zm0.09 -0.16l0.06 -0.1 11.17 4.8 -0.09 0.15 -11.22 -4.7 0.09 -0.15zm0 0l0.06 -0.1 0.04 -0.06 -0.09 0.16zm0.4 -0.66l11.21 4.74 -0.1 0.16 -0.34 0.56 -11.11 -4.9 0.34 -0.56zm11.21 4.74l-0.04 0.08 -0.05 0.08 0.1 -0.16zm-11.23 -4.71l0.18 -0.3 11.12 4.88 -0.08 0.14 -11.3 -4.58 0.08 -0.14zm0 0l0.09 -0.16 0.1 -0.15 -0.18 0.3zm0.4 -0.64l10.97 5.13 -0.03 0.05 -0.22 0.34 -10.93 -5.18 0.22 -0.34zm10.97 5.13l-0.03 0.05 -0.04 0.07 0.08 -0.12zm-10.85 -5.31l0.18 -0.27 10.81 5.35 -0.15 0.23 -11 -5.08 0.15 -0.23zm0 0l0.1 -0.16 0.08 -0.11 -0.18 0.27zm0.26 -0.38l10.73 5.47 -0.1 0.15 -0.08 0.1 -10.63 -5.62 0.08 -0.1zm10.73 5.47l-0.06 0.08 -0.05 0.07 0.1 -0.15zm-10.61 -5.66l0.07 -0.1 10.77 5.42 -0.23 0.34 -10.84 -5.33 0.23 -0.34zm0 0l0.01 -0.01 0.06 -0.08 -0.07 0.1zm0.24 -0.33l10.82 5.34 -0.12 0.18 -0.17 0.24 -10.7 -5.52 0.17 -0.24zm10.82 5.34l-0.06 0.09 -0.06 0.09 0.12 -0.18zm-10.88 -5.26l0.2 -0.28 10.75 5.45 -0.06 0.09 -10.94 -5.17 0.06 -0.09zm0 0l0.09 -0.14 0.1 -0.14 -0.2 0.28zm0.44 -0.6l10.57 5.71 -0.02 0.02 -0.24 0.32 -10.55 -5.73 0.24 -0.32zm10.57 5.71l-0.02 0.02 0.11 -0.14 -0.09 0.12zm-10.4 -5.93l0.17 -0.21 10.41 5.9 -0.18 0.25 -10.58 -5.69 0.18 -0.25zm0 0l0.06 -0.08 0.11 -0.13 -0.17 0.21zm0.22 -0.28l10.36 5.97 -0.11 0.14 -0.06 0.07 -10.25 -6.11 0.06 -0.07zm10.36 5.97l-0.05 0.06 -0.06 0.08 0.11 -0.14zm-10.23 -6.14l0.1 -0.12 10.37 5.95 -0.24 0.31 -10.47 -5.83 0.24 -0.31zm0 0l0.03 -0.04 0.06 -0.08 -0.1 0.12zm0.31 -0.38l10.41 5.9 -0.14 0.17 -0.21 0.26 -10.28 -6.07 0.21 -0.26zm10.41 5.9l-0.05 0.06 -0.09 0.11 0.14 -0.17zm-10.51 -5.77l0.24 -0.29 10.31 6.02 -0.04 0.05 -10.55 -5.73 0.04 -0.05zm0 0l0.11 -0.14 0.13 -0.15 -0.24 0.29zm0.49 -0.59l10.11 6.28 -0.03 0.03 -0.26 0.3 -10.08 -6.31 0.26 -0.3zm10.11 6.28l-0.03 0.03 0.05 -0.06 -0.02 0.02zm-9.91 -6.51l0.3 -0.33 9.83 6.57 -0.23 0.27 -10.13 -6.25 0.23 -0.27zm0 0l0.14 -0.16 0.17 -0.17 -0.3 0.33zm0.34 -0.36l9.69 6.73 -0.16 0.17 -0.03 0.03 -9.53 -6.9 0.03 -0.03zm9.69 6.73l-0.05 0.05 -0.12 0.12 0.16 -0.17zm-9.76 -6.67l0 -0 9.85 6.57 -0.09 0.1 -9.85 -6.57 0.09 -0.1zm0.43 -0.46l10.2 6.15 -0.35 0.42 -0.42 0.46 -9.85 -6.57 0.42 -0.46zm10.2 6.15l-0.17 0.23 -0.18 0.2 0.35 -0.42zm-10.54 -5.74l0.51 -0.59 10.04 6.31 -0.01 0.02 -10.55 -5.73 0.01 -0.02zm0 0l0.23 -0.3 0.28 -0.28 -0.51 0.59zm0.78 -0.86l9.56 6.87 -0.03 0.03 -0.27 0.27 -9.53 -6.9 0.27 -0.27zm9.56 6.87l-0.03 0.03 0.31 -0.31 -0.28 0.28zm-9.31 -7.13l0.9 -0.74 8.69 7.59 -0.28 0.28 -9.59 -6.85 0.28 -0.28zm0 0l0.39 -0.4 0.5 -0.34 -0.9 0.74zm117.48 -79.78l9.54 1.86 -1.74 6.47 -116.59 79.04 -7.8 -8.33 116.59 -79.04zm0 0l6.14 -4.16 3.4 6.02 -9.54 -1.86zm-6.69 42.12l0.27 -0.18 0.93 -0.6 0.88 -0.62 0.84 -0.66 0.8 -0.69 0.76 -0.72 0.72 -0.75 0.68 -0.79 0.63 -0.82 0.59 -0.86 0.54 -0.87 0.49 -0.92 0.45 -0.96 0.4 -0.98 0.36 -1.02 0.3 -1.04 0.24 -1.09 0.19 -1.12 0.14 -1.16 0.08 -1.19 0.02 -1.23 -0.05 -1.27 -0.11 -1.3 -0.18 -1.32 -0.25 -1.37 -0.32 -1.4 -0.4 -1.43 -0.47 -1.48 -0.55 -1.5 -0.62 -1.53 -0.71 -1.56 -0.79 -1.6 -0.88 -1.62 11.28 -4.61 1.04 1.92 0.95 1.9 0.86 1.89 0.77 1.88 0.68 1.85 0.59 1.84 0.5 1.82 0.41 1.8 0.32 1.77 0.24 1.76 0.14 1.74 0.06 1.7 -0.02 1.68 -0.11 1.67 -0.19 1.64 -0.27 1.6 -0.36 1.57 -0.44 1.55 -0.52 1.5 -0.6 1.47 -0.68 1.43 -0.75 1.39 -0.83 1.36 -0.9 1.3 -0.97 1.26 -1.04 1.21 -1.1 1.17 -1.17 1.12 -1.23 1.07 -1.3 1.01 -1.35 0.96 -1.4 0.9 0.27 -0.18 -7.85 -8.29zm0 0l0.16 -0.11 0.1 -0.06 -0.27 0.18zm-88.89 74.52l-9.66 -2.03 1.82 -6.27 96.73 -66.22 7.85 8.29 -96.73 66.22zm0 0l-6.4 4.38 -3.26 -6.41 9.66 2.03zm-13.74 -10.03l0.98 -5.57 10.5 1.33 4.08 8.01 -11.48 4.24 -4.08 -8.01zm0.98 -5.57l6.51 -6.51 4 7.84 -10.5 -1.33zm9.47 6.96l-9.97 -6.41 0.44 -0.49 0.06 -0.06 9.53 6.9 -0.06 0.06zm-9.97 -6.41l0.19 -0.24 0.25 -0.25 -0.44 0.49zm5.2 2.96l0 0 0 0 0 0 5.2 2.96 -5.2 -2.96zm-5.2 -2.96l0.19 -0.24 0.25 -0.25 -0.44 0.49zm10.36 5.97l-0.3 0.34 -10.11 -6.26 0.04 -0.06 10.41 5.92 -0.04 0.06zm0 0l-0.11 0.14 -0.19 0.2 0.3 -0.34zm-0.35 0.4l-4.91 2.02 -4.91 -8.62 0.05 -0.06 9.81 6.6 -0.05 0.06zm0 0l-1.88 2.02 -3.03 0 4.91 -2.02zm-4.91 2.02l-5.2 -8.28 5.2 -2.36 0 0 0 10.65 -0 0zm-5.2 -8.28l1.86 -2.36 3.35 0 -5.2 2.36zm10.36 5.97l-0.03 0.04 -10.37 -5.95 0.04 -0.06 10.41 5.92 -0.04 0.06zm0 0l-0.03 0.04 0.21 -0.26 -0.18 0.22zm-0.08 0.1l-11.43 -3 1.08 -3 0.05 -0.06 10.34 5.99 -0.05 0.06zm-11.43 -3l0 -1.64 1.08 -1.36 -1.08 3zm12.51 0l-1.34 3.29 -11.17 -3.29 0 -0 12.51 0 0 0zm0 0l0 1.84 -1.34 1.45 1.34 -3.29zm-1.38 3.34l-10.09 -6.28 0.25 -0.29 0.05 -0.05 9.84 6.57 -0.05 0.05zm-10.09 -6.28l0.12 -0.14 0.14 -0.15 -0.25 0.29zm10.29 6.05l-0.41 0.46 -9.93 -6.45 0.05 -0.06 10.34 5.99 -0.05 0.06zm0 0l-0.19 0.24 -0.22 0.22 0.41 -0.46zm-0.41 0.46l-10 -6.37 0.47 -0.54 0 -0 9.53 6.9 -0 0zm-10 -6.37l0.21 -0.28 0.26 -0.26 -0.47 0.54zm10.43 5.88l-10.54 -5.73 0.07 -0.1 0.04 -0.05 10.47 5.83 -0.04 0.05zm-10.54 -5.73l0.04 -0.05 0.04 -0.04 -0.07 0.1zm10.57 5.7l-11.33 -4.27 0.71 -1.37 0.04 -0.06 10.61 5.64 -0.04 0.06zm-11.33 -4.27l0.24 -0.73 0.47 -0.64 -0.71 1.37zm12.03 2.92l-0.92 1.63 -11.12 -4.53 0 -0.01 12.04 2.9 -0 0.01zm0 0l-0.29 0.88 -0.62 0.75 0.92 -1.63zm-0.96 1.68l-10.31 -6.04 0.1 -0.12 0.04 -0.05 10.21 6.16 -0.04 0.05zm-10.31 -6.04l0 0 0.1 -0.12 -0.1 0.12zm10.36 5.97l-10.65 -5.59 0.24 -0.33 0.04 -0.06 10.41 5.92 -0.04 0.06zm-10.65 -5.59l0.12 -0.18 0.12 -0.16 -0.24 0.33zm10.88 5.27l-10.99 -5.1 0.1 -0.16 0.01 -0.01 10.89 5.25 -0.01 0.01zm-10.99 -5.1l0.05 -0.08 0.05 -0.08 -0.1 0.16zm11.05 5l-0.24 0.35 -10.85 -5.29 0.03 -0.05 11.09 4.94 -0.03 0.05zm0 0l-0.1 0.16 -0.14 0.18 0.24 -0.35zm-0.28 0.41l-11.07 -4.9 0.45 -0.74 0.04 -0.06 10.61 5.64 -0.04 0.06zm-11.07 -4.9l0.19 -0.38 0.26 -0.36 -0.45 0.74zm11.51 4.18l-0.48 0.78 -11.03 -4.95 0.01 -0.02 11.52 4.17 -0.01 0.02zm0 0l-0.2 0.4 -0.28 0.38 0.48 -0.78zm-0.52 0.83l-10.62 -5.63 0.07 -0.1 0.04 -0.05 10.55 5.73 -0.04 0.05zm-10.62 -5.63l0.06 -0.08 0.01 -0.02 -0.07 0.1zm10.65 5.58l-11.11 -4.85 0.41 -0.68 0.04 -0.06 10.69 5.53 -0.04 0.06zm-11.11 -4.85l0.17 -0.34 0.24 -0.34 -0.41 0.68zm11.51 4.18l-0.16 0.28 -11.36 -4.45 0.01 -0.02 11.52 4.17 -0.01 0.02zm0 0l-0.06 0.12 -0.1 0.17 0.16 -0.28zm-0.18 0.33l-0.08 0.13 -11.13 -4.87 0.03 -0.05 11.21 4.74 -0.03 0.05zm0 0l-0.04 0.06 -0.04 0.07 0.08 -0.13zm-0.12 0.2l-11.45 -4.22 0.4 -0.78 0.04 -0.06 11.05 5 -0.04 0.06zm-11.45 -4.22l0.16 -0.4 0.24 -0.38 -0.4 0.78zm11.84 3.45l-0.32 0.65 -11.53 -4.08 0.01 -0.02 11.85 3.43 -0.01 0.02zm0 0l-0.13 0.33 -0.19 0.32 0.32 -0.65zm-0.35 0.7l-0.08 0.13 -11.13 -4.87 0.03 -0.05 11.21 4.74 -0.03 0.05zm0 0l-0.04 0.06 -0.04 0.07 0.08 -0.13zm-0.12 0.2l-0.08 0.13 -10.97 -5.13 0.04 -0.06 11.05 5 -0.04 0.06zm0 0l-0.08 0.13 0 0 0.08 -0.13zm-0.09 0.14l-11.2 -4.71 0.32 -0.54 0.01 -0.01 10.89 5.25 -0.01 0.01zm-11.2 -4.71l0.14 -0.28 0.18 -0.26 -0.32 0.54zm11.49 4.22l-0.19 0.34 -11.33 -4.5 0.02 -0.05 11.52 4.17 -0.02 0.05zm0 0l-0.07 0.14 -0.12 0.2 0.19 -0.34zm-0.22 0.4l-0.3 0.44 -10.85 -5.28 0.04 -0.06 11.14 4.84 -0.04 0.06zm0 0l-0.15 0.25 -0.15 0.2 0.3 -0.44zm-0.31 0.46l-11.17 -4.64 0.62 -1.08 0.01 -0.02 10.55 5.73 -0.01 0.02zm-11.17 -4.64l0.24 -0.57 0.39 -0.52 -0.62 1.08zm11.78 3.61l-0.26 0.52 -11.54 -4.08 0.02 -0.05 11.8 3.56 -0.02 0.05zm0 0l-0.1 0.25 -0.15 0.27 0.26 -0.52zm-0.29 0.58l-0.07 0.12 -11.21 -4.72 0.04 -0.06 11.29 4.6 -0.04 0.06zm0 0l0 0 -0.07 0.12 0.07 -0.12zm-0.08 0.14l-11.41 -4.34 0.26 -0.5 0.01 -0.02 11.14 4.84 -0.01 0.02zm-11.41 -4.34l0.11 -0.25 0.15 -0.25 -0.26 0.5zm11.65 3.88l-0.14 0.28 -11.53 -4.12 0.02 -0.04 11.67 3.84 -0.02 0.04zm0 0l-0.08 0.17 -0.06 0.11 0.14 -0.28zm-0.17 0.34l-11.58 -4.02 0.18 -0.38 0.03 -0.06 11.4 4.4 -0.03 0.06zm-11.58 -4.02l0.08 -0.2 0.1 -0.18 -0.18 0.38zm11.75 3.68l-0.04 0.1 -11.71 -3.74 0.01 -0.03 11.76 3.65 -0.01 0.03zm0 0l0.01 -0.02 -0.05 0.11 0.04 -0.1zm-0.06 0.14l-0.08 0.16 -11.59 -4 0.02 -0.04 11.67 3.84 -0.02 0.04zm0 0l-0.06 0.13 -0.02 0.03 0.08 -0.16zm-0.11 0.23l-11.78 -3.54 0.26 -0.63 0.03 -0.06 11.52 4.17 -0.03 0.06zm-11.78 -3.54l0.11 -0.34 0.15 -0.3 -0.26 0.63zm12.03 2.93l-0.04 0.12 -12 -3.03 0.01 -0.02 12.04 2.9 -0.01 0.02zm0 0l-0.04 0.12 -0.02 0.04 0.06 -0.17zm-0.06 0.17l-0.22 0.51 -11.74 -3.66 0.02 -0.04 11.96 3.15 -0.02 0.04zm0 0l-0.09 0.25 -0.13 0.26 0.22 -0.51zm-0.25 0.57l-0.19 0.34 -11.33 -4.5 0.03 -0.06 11.52 4.17 -0.03 0.06zm0 0l-0.07 0.14 -0.12 0.2 0.19 -0.34zm-0.2 0.36l-11.59 -3.87 0.45 -0.97 0.01 -0.02 11.14 4.84 -0.01 0.02zm-11.59 -3.87l0.17 -0.5 0.28 -0.47 -0.45 0.97zm12.02 2.95l-0.06 0.17 -11.98 -3.07 0.02 -0.05 12.04 2.9 -0.02 0.05zm0 0l-0.02 0.07 -0.04 0.1 0.06 -0.17zm-0.08 0.23l-11.92 -3.24 0.02 -0.06 11.92 3.24 -0.02 0.06zm-0.01 0.03l-0.11 0.26 -11.81 -3.5 0.01 -0.03 11.92 3.24 -0.01 0.03zm0 0l-0.05 0.14 -0.06 0.13 0.11 -0.26zm-0.12 0.3l-11.71 -3.74 0.01 -0.03 0.02 -0.04 11.7 3.77 -0.02 0.04zm-11.71 -3.74l0.01 -0.03 0.02 -0.04 -0.03 0.06zm11.7 3.78l-12.01 -2.84 0.28 -0.87 0.03 -0.06 11.73 3.71 -0.03 0.06zm-12.01 -2.84l0.1 -0.44 0.18 -0.42 -0.28 0.87zm12.29 2.01l-0.39 1.1 -11.91 -3.07 0.01 -0.04 12.29 1.98 -0.01 0.04zm0 0l-0.13 0.58 -0.26 0.52 0.39 -1.1zm-0.4 1.13l-11.75 -3.62 0.23 -0.55 0.02 -0.03 11.52 4.17 -0.02 0.03zm-11.75 -3.62l0.1 -0.3 0.13 -0.25 -0.23 0.55zm11.96 3.13l-0.03 0.09 -11.95 -3.15 0.02 -0.07 11.98 3.06 -0.02 0.07zm0 0l-0.02 0.04 -0.02 0.04 0.03 -0.09zm-0.04 0.12l-12.11 -2.61 0.19 -0.63 0.01 -0.03 11.92 3.24 -0.01 0.03zm-12.11 -2.61l0.07 -0.32 0.12 -0.31 -0.19 0.63zm12.29 2.01l-0.1 0.38 -12.19 -2.36 0.01 -0.04 12.29 1.98 -0.01 0.04zm0 0l-0.05 0.21 -0.05 0.17 0.1 -0.38zm-0.12 0.44l-12.11 -2.68 0.02 -0.05 0.02 -0.06 12.09 2.74 -0.02 0.06zm-12.11 -2.68l0.02 -0.05 -0.01 0.03 -0.01 0.02zm12.11 2.67l-0.18 0.51 -11.94 -3.14 0.01 -0.04 12.13 2.63 -0.01 0.04zm0 0l-0.08 0.26 -0.1 0.24 0.18 -0.51zm-0.2 0.54l-11.95 -3.12 0.19 -0.53 0.01 -0.03 11.76 3.65 -0.01 0.03zm-11.95 -3.12l0.08 -0.27 0.11 -0.26 -0.19 0.53zm12.12 2.65l-12.25 -2.11 0.11 -0.48 0.02 -0.07 12.14 2.58 -0.02 0.07zm-12.25 -2.11l0.04 -0.25 0.07 -0.23 -0.11 0.48zm12.36 1.68l-0.42 1.27 -11.94 -2.9 0.01 -0.04 12.37 1.63 -0.01 0.04zm0 0l-0.12 0.66 -0.3 0.61 0.42 -1.27zm-0.44 1.29l-11.89 -3.13 0.38 -1.04 0.01 -0.02 11.52 4.17 -0.01 0.02zm-11.89 -3.13l0.13 -0.54 0.25 -0.5 -0.38 1.04zm12.25 2.16l-0.07 0.27 -12.2 -2.36 0.02 -0.07 12.27 2.09 -0.02 0.07zm0 0l-0.04 0.15 -0.04 0.12 0.07 -0.27zm-0.08 0.31l-12.27 -1.96 0.15 -0.67 0.01 -0.04 12.13 2.63 -0.01 0.04zm-12.27 -1.96l0.05 -0.34 0.1 -0.33 -0.15 0.67zm12.42 1.32l-0.14 0.65 -12.28 -1.94 0 -0.03 12.42 1.29 -0 0.03zm0 0l-0.05 0.34 -0.09 0.31 0.14 -0.65zm-0.16 0.72l-12.24 -2.18 0.1 -0.4 0.02 -0.07 12.14 2.58 -0.02 0.07zm-12.24 -2.18l0.05 -0.23 0.05 -0.17 -0.1 0.4zm12.33 1.82l-0.09 0.37 -12.25 -2.15 0.01 -0.04 12.33 1.78 -0.01 0.04zm0 0l-0.04 0.2 -0.05 0.17 0.09 -0.37zm-0.1 0.4l-12.21 -2.3 0.06 -0.22 0.01 -0.03 12.16 2.52 -0.01 0.03zm-12.21 -2.3l0.03 -0.11 0.03 -0.1 -0.06 0.22zm12.25 2.16l-12.33 -1.79 0.06 -0.3 0.02 -0.07 12.27 2.09 -0.02 0.07zm-12.33 -1.79l0.02 -0.14 0.04 -0.16 -0.06 0.3zm12.38 1.54l-0.18 0.7 -12.21 -2.2 0.01 -0.05 12.39 1.5 -0.01 0.05zm0 0l-0.06 0.35 -0.12 0.35 0.18 -0.7zm-0.18 0.73l-12.2 -2.29 0.16 -0.61 0.01 -0.02 12.04 2.9 -0.01 0.02zm-12.2 -2.29l0.06 -0.3 0.1 -0.31 -0.16 0.61zm12.35 1.74l-12.36 -1.66 0 -0.02 0.01 -0.06 12.36 1.68 -0.01 0.06zm-12.36 -1.66l0 -0.02 0.01 -0.06 -0.02 0.09zm12.36 1.68l-12.39 -1.46 0.03 -0.17 0.01 -0.04 12.37 1.63 -0.01 0.04zm-12.39 -1.46l0.01 -0.08 0.02 -0.09 -0.03 0.17zm12.42 1.32l-0.02 0.15 -12.4 -1.44 0 -0.03 12.42 1.29 -0 0.03zm0 0l-0.01 0.06 -0.02 0.08 0.02 -0.15zm-0.04 0.22l-12.38 -1.54 0.01 -0.04 0.01 -0.07 12.37 1.58 -0.01 0.07zm-12.38 -1.54l0.01 -0.04 -0.01 0.07 0 -0.02zm12.38 1.54l-12.39 -1.5 0.01 -0.05 12.39 1.5 -0.01 0.05zm-0 0.02l-12.41 -1.37 0.02 -0.13 0 -0.02 12.39 1.5 -0 0.02zm-12.41 -1.37l0.02 -0.13 -0.01 0.08 -0.01 0.05zm12.41 1.36l-0.05 0.27 -12.38 -1.51 0.02 -0.12 12.43 1.24 -0.02 0.12zm0 0l-0.02 0.1 -0.03 0.17 0.05 -0.27zm-0.05 0.29l-12.4 -1.39 0.06 -0.39 0 -0.02 12.33 1.78 -0 0.02zm-12.4 -1.39l0.02 -0.16 0.04 -0.23 -0.06 0.39zm12.45 1.07l-12.47 -0.88 0.01 -0.12 0.01 -0.07 12.46 1 -0.01 0.07zm-12.47 -0.88l0 -0.06 0.01 -0.06 -0.01 0.12zm12.48 0.8l-0.12 0.73 -12.36 -1.48 0 -0.05 12.49 0.75 -0 0.05zm0 0l-0.03 0.36 -0.1 0.38 0.12 -0.73zm-0.13 0.75l-12.35 -1.64 0.11 -0.58 0 -0.02 12.24 2.22 -0 0.02zm-12.35 -1.64l0.03 -0.27 0.08 -0.3 -0.11 0.58zm12.45 1.13l-12.47 -0.86 0.02 -0.21 0.01 -0.07 12.45 1.06 -0.01 0.07zm-12.47 -0.86l0.01 -0.1 0.01 -0.11 -0.02 0.21zm12.49 0.7l-12.5 -0.32 0.01 -0.32 0 -0.06 12.49 0.65 -0 0.06zm-12.5 -0.32l0 -0.21 0.01 -0.11 -0.01 0.32zm12.51 0.02l-12.51 0 0 -0.02 12.51 0 0 0.02zm0 0.01l-12.5 0.34 -0.01 -0.34 0 -0.01 12.51 0 0 0.01zm-12.5 0.34l-0.01 -0.16 0 -0.19 0.01 0.34zm4.04 7.52l-0.97 -0.81 -0.18 -0.19 -0.17 -0.19 -0.16 -0.19 -0.16 -0.19 -0.16 -0.2 -0.15 -0.19 -0.14 -0.2 -0.14 -0.2 -0.16 -0.26 -0.1 -0.17 -0.1 -0.17 -0.1 -0.17 -0.15 -0.26 -0.13 -0.27 -0.07 -0.14 -0.08 -0.18 -0.11 -0.24 -0.11 -0.28 -0.07 -0.18 -0.07 -0.19 -0.06 -0.19 -0.08 -0.26 -0.08 -0.28 -0.03 -0.12 -0.05 -0.19 -0.06 -0.28 -0.05 -0.26 -0.03 -0.18 -0.03 -0.19 -0.04 -0.28 -0.02 -0.2 -0.02 -0.22 12.49 -0.69 0 0.03 0 0.05 -0 -0.03 0.01 0.05 0.01 0.06 -0 -0.02 -0.01 -0.03 0.02 0.05 0.03 0.12 -0.01 -0.04 -0 -0.02 0.02 0.05 0.02 0.05 0.02 0.06 -0.01 -0.04 -0 -0.01 0.03 0.06 0.04 0.09 -0.02 -0.04 -0.02 -0.04 0.03 0.05 0.04 0.06 0.03 0.06 -0.02 -0.03 0.01 0.02 0.01 0.02 0.01 0.02 0 0 0.02 0.02 0.01 0.01 0.01 0.01 0.01 0.01 -0.97 -0.81 -7.74 8.37zm0 0l-0.54 -0.36 -0.43 -0.45 0.97 0.81zm32.93 8.52l0.96 7.56 -8.71 0.8 -25.19 -16.89 7.74 -8.37 25.19 16.89zm0 0l5.02 3.36 -4.06 4.2 -0.96 -7.56zm-15.35 24.46l-8.8 0.74 -0.87 -7.5 16.32 -16.9 9.67 6.76 -16.32 16.9zm0 0l-3.97 4.11 -4.83 -3.37 8.8 -0.74zm-26.83 -11.83l-0.74 -0.61 8.67 -7.63 18.03 12.57 -7.93 8.24 -18.03 -12.57zm0 0l-0.4 -0.28 -0.34 -0.33 0.74 0.61z"/>
    </g>
    <path class="fil1" d="M1170.28 199.59c-3.71,12.8 1.08,13.47 13.35,23.16l124.24 90.39c20.54,13.29 19.26,36.47 7.63,56.85l-151.35 -110.17c-17.98,-20.91 -11.27,-52.62 6.13,-60.23z"/>
    <path class="fil0" d="M755.55 304.12c14.67,-14.41 22.04,-33.35 22.04,-56.81 0,-23.54 -7.37,-42.32 -22.04,-56.39 -14.66,-14.16 -32.93,-21.28 -54.8,-21.45 -21.79,0 -40.14,7.04 -54.97,21.2 -15,14.25 -22.54,33.01 -22.54,56.39 0,23.29 7.37,42.23 22.04,56.81 14.66,14.66 33.01,21.95 55.05,21.95 22.12,0 40.56,-7.21 55.22,-21.7zm-54.97 65.44c-34.19,0 -63.18,-11.31 -87.14,-33.94 -23.96,-22.62 -35.95,-52.12 -35.95,-88.56 0,-36.45 11.81,-66.03 35.36,-88.65 23.54,-22.62 52.62,-33.85 87.31,-33.68 34.86,0 64.02,11.31 87.56,33.93 23.71,22.79 35.61,52.29 35.61,88.4 0,36.11 -11.9,65.52 -35.69,88.31 -23.8,22.79 -52.87,34.19 -87.06,34.19z"/>
    <path class="fil0" d="M1025.4 303.99c14.63,-14.38 21.99,-33.27 21.99,-56.68 0,-23.5 -7.35,-42.22 -21.99,-56.27 -14.63,-14.13 -32.86,-21.24 -54.68,-21.4 -21.74,0 -40.04,7.03 -54.84,21.15 -14.97,14.21 -22.49,32.94 -22.49,56.27 0,23.24 7.36,42.14 21.99,56.69 14.63,14.63 32.94,21.9 54.93,21.9 22.07,0 40.47,-7.19 55.1,-21.66zm-54.85 65.3c-34.11,0 -63.04,-11.29 -86.95,-33.86 -23.91,-22.57 -35.87,-52 -35.87,-88.37 0,-36.37 11.79,-65.88 35.28,-88.45 23.49,-22.58 52.5,-33.78 87.12,-33.61 34.78,0 63.88,11.29 87.37,33.86 23.66,22.74 35.53,52.17 35.53,88.21 0,36.03 -11.87,65.38 -35.61,88.12 -23.75,22.74 -52.76,34.11 -86.87,34.11z"/>
    <path class="fil0" d="M1345.42 367.27l0.66 -206.29c0.34,-28.4 19.53,-38.16 45.58,-38.44l-0.66 209.6c-0.56,25.85 -15.61,35.67 -45.58,35.13z"/>
    <path class="fil2" d="M1345.78 50.58c-5.93,-5.76 -8.85,-12.77 -8.85,-21.03 0,-8.35 2.92,-15.27 8.85,-21.03 6.59,-5.67 14.02,-8.51 22.45,-8.51 8.43,0 15.86,2.76 22.2,8.26 6.43,5.59 9.6,12.69 9.6,21.28 0,8.59 -3.17,15.69 -9.6,21.28 -6.34,5.51 -13.77,8.26 -22.2,8.26 -8.43,0 -15.86,-2.84 -22.45,-8.51z"/>
    <path class="fil0" d="M1483.66 189.58c-14.44,14.35 -21.7,33.47 -21.7,57.42 0,23.87 7.68,42.48 22.95,55.83 15.36,13.35 33.47,20.03 54.5,20.03 21.03,0 38.98,-7.01 53.75,-21.04 14.02,-13.94 21.03,-32.3 21.03,-55.08 0,-22.78 -7.35,-41.56 -22.04,-56.17 -14.77,-14.61 -32.96,-22.03 -54.41,-22.2 -21.53,-0.17 -39.56,6.93 -54.08,21.2zm-67.54 -67.04c32.22,-0.41 45.34,15.97 45.34,42.83 7.68,-13.1 18.78,-23.2 33.47,-30.21 14.36,-7.76 30.38,-11.6 48.16,-11.6 32.63,0 60.26,11.35 82.79,34.14 22.62,22.54 33.89,51.91 33.89,88.05 0,36.14 -11.19,65.43 -33.64,87.96 -22.36,22.45 -50.07,33.72 -83.04,33.72 -17.78,0 -34.05,-3.51 -48.91,-10.52 -14.77,-7.01 -25.7,-16.86 -32.71,-29.38l0 148.56c-29.27,0.82 -44.28,-6.16 -45.33,-37.16l-0.01 -316.39z"/>
    <path class="fil0" d="M1863.48 301.83c15.03,-14.02 22.54,-32.88 22.54,-56.67 0,-23.79 -7.85,-42.57 -23.45,-56.25 -15.69,-13.69 -34.13,-20.62 -55.33,-20.78 -21.28,0 -39.06,7.09 -53.41,21.28 -14.35,14.02 -21.53,32.38 -21.53,55.25 0,22.79 7.34,41.56 22.03,56.17 14.69,14.69 32.8,22.04 54.33,22.04 21.53,0 39.81,-7.01 54.83,-21.04zm23.06 65.44l-0.02 -40.73c-7.35,12.27 -18.45,22.12 -33.3,29.63 -14.86,7.51 -31.05,11.27 -48.74,11.27 -32.38,0 -60.51,-11.35 -84.29,-34.05 -22.96,-22.62 -34.47,-51.99 -34.47,-87.97 0,-36.05 11.35,-65.35 33.97,-87.8 22.7,-22.53 51,-33.89 84.88,-34.05 16.94,0 33.3,3.51 48.91,10.52 15.36,7.68 26.37,17.53 33.05,29.63 -0.66,-27.97 17.99,-40.54 46.25,-41.16l-0.66 210.03c-0.34,29.27 -16.36,34.7 -45.57,34.7z"/>
    <path class="fil0" d="M376.1 188.92c-15.6,13.85 -23.44,32.7 -23.44,56.47 0,23.77 7.5,42.62 22.44,56.63 15.01,14.01 33.28,21.02 54.72,21.02 21.52,0 39.54,-7.34 53.97,-22.02 14.68,-14.6 22.02,-33.28 22.02,-55.89 0,-22.69 -7.25,-41.12 -21.77,-55.47 -14.43,-14.35 -32.11,-21.44 -52.97,-21.27 -20.85,0 -39.2,6.84 -54.97,20.52zm-69.41 178.35l-0.07 -330.96c-0.22,-25.82 17.45,-35.3 45.54,-34.57l0 162.23c15.93,-26.77 43.29,-40.12 82.08,-40.12 33.78,0 61.89,11.26 84.33,33.78 22.52,22.27 33.78,51.55 33.78,87.75 0,36.11 -11.68,65.56 -34.95,88.16 -23.36,22.69 -51.22,34.03 -83.66,34.03 -17.26,0 -33.37,-3.76 -48.38,-11.26 -14.93,-7.51 -26.02,-17.35 -33.2,-29.61 -0.04,29.75 -16.79,41.23 -45.48,40.56z"/>
   </g>
   <g id="_2685605853440">
    <path class="fil3 str0" d="M44.63 5.14c40.91,0 91.82,29.75 91.82,87.41 0,62.61 -43.29,89.73 -91.82,89.73l69.14 -87.71 -69.14 -89.42z"/>
    <path class="fil3 str0" d="M44.63 185.29c40.91,0 91.82,29.75 91.82,87.41 0,62.6 -43.29,89.72 -91.82,89.72l69.14 -87.71 -69.14 -89.42z"/>
    <polygon class="fil3 str1" points="12.18,14.51 29.32,4 1.7,4 1.7,35.21 "/>
    <polygon class="fil3 str1" points="12.18,353.24 29.32,363.76 1.7,363.76 1.7,332.54 "/>
   </g>
   <polygon class="fil4" points="203.83,186.14 250.67,47.92 111.43,185.95 250.22,325.52 "/>
  </g>
 </g>
</svg>
