<?xml version="1.0" encoding="UTF-8"?>
<!DOCTYPE svg PUBLIC "-//W3C//DTD SVG 1.1//EN" "http://www.w3.org/Graphics/SVG/1.1/DTD/svg11.dtd">
<!-- Creator: CorelDRAW 2018 (64-Bit Evaluation Version) -->
<svg xmlns="http://www.w3.org/2000/svg" xml:space="preserve" width="96.6147mm" height="23.8125mm" version="1.1" style="shape-rendering:geometricPrecision; text-rendering:geometricPrecision; image-rendering:optimizeQuality; fill-rule:evenodd; clip-rule:evenodd"
viewBox="0 0 5421.9 1336.33"
 xmlns:xlink="http://www.w3.org/1999/xlink">
 <defs>
  <style type="text/css">
   <![CDATA[
    .str1 {stroke:#61C4B1;stroke-width:4.75;stroke-miterlimit:22.9256}
    .str0 {stroke:#61C4B1;stroke-width:11.22;stroke-miterlimit:22.9256}
    .fil3 {fill:#61C4B1}
    .fil4 {fill:#506BB1}
    .fil1 {fill:#3D4852}
    .fil2 {fill:#61C4B1;fill-rule:nonzero}
    .fil0 {fill:#3D4852;fill-rule:nonzero}
   ]]>
  </style>
 </defs>
 <g id="Layer_x0020_1">
  <metadata id="CorelCorpID_0Corel-Layer"/>
  <g id="_2685599097216">
   <g>
    <path class="fil0" d="M3262.21 1030.74c-76.05,-0.58 -125.47,-21.16 -128.04,-97.34l-2.99 -931.82c72.26,-0.43 126.33,20.33 128.03,86.76l0 499.46 0 107.16 3 335.79z"/>
    <g>
     <path class="fil1" d="M3278.29 720.08c-16.12,-15.66 -24.2,-41.97 -24.6,-68.57l-0.02 0 0 -1.07 0 -0.21 0 -0.19 0 -1.16 0.01 0 0.01 -0.43 0.01 -0.8 0.04 -1.27 0.02 -0.57 0.03 -0.73 0.05 -1.28 0.04 -0.63 0.04 -0.66 0.08 -1.27 0.06 -0.71 0.04 -0.58 0.11 -1.27 0.08 -0.77 0.04 -0.51 0.14 -1.27 0.1 -0.84 0.05 -0.44 0.16 -1.26 0.11 -0.89 0.06 -0.36 0.33 -2.22 0.04 -0.31 0.39 -2.25 0.03 -0.24 0.23 -1.23 0.07 -0.31 0.18 -0.91 0.25 -1.24 0.25 -1.13 0.02 -0.1 0.27 -1.22 0.29 -1.17 0.01 -0.04 0.3 -1.21 0.31 -1.2 0.01 -0.04 0.31 -1.15 0.35 -1.18 0.03 -0.11 0.14 -0.48 0.54 -1.75 0.06 -0.16 0.32 -0.99 0.4 -1.16 0.29 -0.89 0.1 -0.26 0.42 -1.13 0.1 -0.29 0.33 -0.85 0.43 -1.12 0.14 -0.32 0.78 -1.89 0.17 -0.39 0.31 -0.69 0.49 -1.09 0.2 -0.43 0.29 -0.64 0.51 -1.04 0.24 -0.48 0.29 -0.57 0.82 -1.55 0.26 -0.5 0.56 -1.01 0.33 -0.57 0.25 -0.43 0.97 -1.59 0.21 -0.38 0.62 -0.94 0.4 -0.65 0.21 -0.3 0.64 -0.93 0.47 -0.67 0.17 -0.25 0.67 -0.89 0.52 -0.7 0.16 -0.19 0.68 -0.88 0.59 -0.72 0.1 -0.13 0.72 -0.83 0.64 -0.76 0.09 -0.08 0.26 -0.28 1.19 -1.3 0.03 -0.04 0.77 -0.76 0.77 -0.79 327.2 -221.83c30.11,53.32 16.84,96.4 -18.69,118.16l-271.49 185.85 -11.45 -22.48 -0.15 0.16 0 0 -0.13 0.16 -0.15 0.16 -0.01 0 -0.13 0.15 -0.14 0.16 0 0.02 -0.13 0.15 -0.13 0.17 -0.02 0.01 -0.11 0.15 -0.12 0.17 -0.02 0.03 -0.11 0.13 -0.13 0.17 -0.02 0.03 -0.09 0.15 -0.12 0.17 -0.03 0.04 -0.1 0.13 -0.11 0.17 -0.02 0.04 -0.08 0.14 -0.11 0.17 -0.02 0.05 -0.08 0.13 -0.11 0.18 -0.03 0.03 -0.07 0.14 -0.1 0.17 -0.03 0.04 -0.06 0.14 -0.1 0.17 -0.04 0.06 -0.05 0.12 -0.1 0.17 -0.03 0.08 -0.06 0.12 -0.08 0.17 -0.03 0.08 -0.04 0.12 -0.09 0.17 -0.03 0.07 -0.04 0.13 -0.07 0.17 -0.03 0.09 -0.05 0.11 -0.07 0.17 -0.03 0.11 -0.04 0.09 -0.07 0.19 -0.03 0.1 -0.03 0.1 -0.06 0.18 -0.03 0.11 -0.03 0.08 -0.05 0.2 -0.03 0.11 -0.03 0.07 -0.05 0.19 -0.03 0.11 -0.02 0.08 -0.05 0.19 -0.03 0.12 -0.02 0.08 -0.04 0.19 -0.02 0.13 -0.02 0.07 -0.03 0.19 -0.02 0.12 -0.02 0.07 -0.03 0.19 -0.02 0.14 -0.01 0.07 -0.04 0.33 -0.01 0.05 -0.02 0.2 -0.02 0.13 -0.01 0.05 -0.02 0.19 -0.01 0.16 0 0.04 0 0.02c0.28,3.69 1.87,7.42 4.68,10.34l70.69 47.4 -45.8 47.43 -50.61 -35.28z"/>
     <path id="1" class="fil0" d="M3253.69 636.57l17.56 14.75 0.06 2.25 0.1 2.28 0.13 2.25 0.17 2.23 0.22 2.23 0.26 2.22 0.3 2.2 0.34 2.17 0.39 2.17 0.42 2.14 0.46 2.12 0.49 2.09 0.53 2.05 0.57 2.02 0.62 1.99 0.65 1.96 0.68 1.92 0.72 1.88 0.75 1.81 0.8 1.79 0.82 1.75 0.85 1.68 0.88 1.63 0.91 1.58 0.94 1.53 0.97 1.46 0.98 1.4 1.02 1.35 1.04 1.29 1.04 1.21 1.07 1.16 1.09 1.09 -26.42 19.69 -1.89 -1.9 -1.82 -1.96 -1.74 -2.02 -1.66 -2.07 -1.59 -2.1 -1.52 -2.16 -1.45 -2.21 -1.38 -2.24 -1.31 -2.27 -1.25 -2.32 -1.19 -2.36 -1.12 -2.37 -1.07 -2.41 -1.02 -2.47 -0.94 -2.46 -0.9 -2.5 -0.83 -2.51 -0.79 -2.55 -0.73 -2.58 -0.68 -2.6 -0.62 -2.6 -0.57 -2.63 -0.52 -2.64 -0.47 -2.66 -0.42 -2.68 -0.36 -2.68 -0.31 -2.69 -0.26 -2.7 -0.22 -2.72 -0.16 -2.71 -0.12 -2.7 -0.07 -2.73 17.56 14.75 0 -29.89zm0 0l17.34 0 0.22 14.75 -17.56 -14.75zm-0.02 29.89l-17.56 -14.94 17.56 -14.94 0.02 0 0 29.89 -0.02 0zm0 0l-17.56 0 0 -14.94 17.56 14.94zm-17.56 -16.02l35.12 0 0 1.07 -35.12 0 0 -1.07zm0 -0.21l35.12 0 0 0.21 -35.12 0 0 -0.21zm0 -0.19l35.12 0 0 0.19 -35.12 0 0 -0.19zm0 -1.16l17.56 -14.94 17.56 14.94 0 1.16 -35.12 0 0 -1.16zm0 0l0 -14.94 17.56 0 -17.56 14.94zm17.57 -14.94l17.55 15.28 -17.55 14.61 -0.01 0 0 -29.89 0.01 0zm17.55 15.28l-0.38 14.61 -17.17 0 17.55 -14.61zm-35.1 -1.09l35.11 0.51 -0.01 0.15 -0.01 0.43 -35.11 -0.66 0.01 -0.43zm35.11 0.51l-0.01 0.15 0.01 -0.29 0 0.14zm-35.11 -1.16l0.01 -0.27 35.11 0.63 -0.01 0.8 -35.12 -0.36 0.01 -0.8zm0 0l0 -0.19 0.01 -0.08 -0.01 0.27zm0.05 -1.54l35.11 0.82 0 0.07 -0.04 1.27 -35.11 -0.9 0.04 -1.27zm35.11 0.82l0 0.07 -0.01 0.39 0.01 -0.47zm-35.09 -1.32l0.01 -0.21 35.1 0.96 -0.02 0.57 -35.11 -0.75 0.02 -0.57zm0 0l0.01 -0.24 0 0.03 -0.01 0.21zm0.04 -0.94l35.1 1.08 0 0.08 -0.03 0.73 -35.1 -1.17 0.03 -0.73zm35.1 1.08l0 0.08 -0.02 0.5 0.02 -0.58zm-35.05 -2.28l0.01 -0.29 35.09 1.29 -0.05 1.28 -35.1 -1 0.05 -1.28zm0 0l0.01 -0.3 0 0.01 -0.01 0.29zm0.05 -0.92l0.01 -0.08 35.07 1.66 -0.04 0.63 -35.07 -1.58 0.04 -0.63zm0 0l0.01 -0.08 -0.01 0.12 0 -0.04zm0.05 -0.74l35.07 1.66 -0.01 0.08 -0.04 0.66 -35.06 -1.74 0.04 -0.66zm35.07 1.66l0 0.02 -0.01 0.06 0.01 -0.08zm-35 -2.85l0.02 -0.22 35.06 1.79 -0.08 1.27 -35.07 -1.57 0.08 -1.27zm0 0l0 -0.03 0.02 -0.19 -0.02 0.22zm0.07 -0.93l35.05 1.86 -0.01 0.15 -0.06 0.71 -35.04 -2.01 0.06 -0.71zm35.05 1.86l-0.01 0.15 0.01 -0.08 0.01 -0.07zm-35.02 -2.29l0.02 -0.21 35.05 1.91 -0.04 0.58 -35.06 -1.71 0.04 -0.58zm0 0l0 -0.03 0.02 -0.17 -0.02 0.21zm0.12 -1.48l0.02 -0.24 35.01 2.36 -0.11 1.27 -35.03 -2.12 0.11 -1.27zm0 0l0.01 -0.09 0.02 -0.15 -0.02 0.24zm0.1 -1l35 2.42 -0.02 0.17 -0.08 0.77 -34.98 -2.59 0.08 -0.77zm35 2.42l0 0.03 -0.02 0.14 0.02 -0.17zm-34.97 -2.76l0.03 -0.27 34.99 2.53 -0.04 0.51 -35.02 -2.26 0.04 -0.51zm0 0l0.03 -0.27 -0.02 0.17 -0.01 0.11zm0.17 -1.54l0.01 -0.04 34.96 2.85 -0.14 1.27 -34.96 -2.81 0.14 -1.27zm0 0l0.01 -0.04 -0.04 0.36 0.03 -0.33zm0.1 -0.88l34.95 2.88 0 0 -0.1 0.84 -34.95 -2.88 0.1 -0.84zm0.05 -0.44l0.02 -0.2 34.93 3.08 -0.05 0.44 -34.95 -2.88 0.05 -0.44zm0 0l0.02 -0.2 0 0.01 -0.02 0.19zm0.19 -1.45l34.91 3.23 -0.01 0.05 -0.16 1.26 -34.91 -3.28 0.16 -1.26zm34.91 3.23l-0.01 0.05 -0.03 0.2 0.03 -0.25zm-34.8 -4.07l0.05 -0.35 34.87 3.53 -0.11 0.89 -34.92 -3.18 0.11 -0.89zm0 0l0.02 -0.14 0.03 -0.21 -0.05 0.35zm0.11 -0.72l34.83 3.82 -0.01 0.06 -0.06 0.36 -34.82 -3.88 0.06 -0.36zm34.83 3.82l-0.01 0.06 0.06 -0.42 -0.05 0.35zm-34.51 -5.98l34.88 3.49 -0.04 0.27 -0.33 2.22 -34.84 -3.76 0.33 -2.22zm34.88 3.49l-0.01 0.04 -0.03 0.23 0.04 -0.27zm-34.88 -3.53l0.09 -0.58 34.83 3.8 -0.04 0.31 -34.92 -3.22 0.04 -0.31zm0 0l0.03 -0.26 0.06 -0.33 -0.09 0.58zm0.48 -2.83l34.8 3.96 -0.07 0.43 -0.39 2.25 -34.74 -4.39 0.39 -2.25zm34.8 3.96l-0.03 0.23 -0.03 0.2 0.07 -0.43zm-34.84 -3.77l0.1 -0.58 34.78 4.1 -0.03 0.24 -34.87 -3.52 0.03 -0.24zm0 0l0.04 -0.26 0.06 -0.31 -0.1 0.58zm0.33 -1.81l0.08 -0.39 34.6 5.07 -0.23 1.23 -34.68 -4.68 0.23 -1.23zm0 0l0.03 -0.19 0.04 -0.2 -0.08 0.39zm0.15 -0.7l34.58 5.2 -0.06 0.25 -0.07 0.31 -34.52 -5.45 0.07 -0.31zm34.58 5.2l0.01 -0.05 -0.07 0.3 0.06 -0.25zm-34.46 -5.86l0.02 -0.08 34.62 5.03 -0.18 0.91 -34.64 -4.95 0.18 -0.91zm0 0l0.02 -0.08 -0.04 0.22 0.03 -0.14zm0.27 -1.32l0.03 -0.17 34.57 5.28 -0.25 1.24 -34.6 -5.11 0.25 -1.24zm0 0l0.03 -0.17 0.01 -0.04 -0.04 0.21zm0.28 -1.3l0.02 -0.06 34.52 5.5 -0.25 1.13 -34.54 -5.44 0.25 -1.13zm0 0l0.02 -0.06 -0.24 1.05 0.22 -0.99zm0.04 -0.16l0.01 -0.04 34.5 5.6 -0.02 0.1 -34.5 -5.56 0.02 -0.1zm0 0l0.01 -0.04 0.2 -0.87 -0.2 0.91zm0.28 -1.26l0.06 -0.24 34.43 5.87 -0.27 1.22 -34.49 -5.63 0.27 -1.22zm0 0l0.02 -0.08 0.04 -0.15 -0.06 0.24zm0.34 -1.4l0.13 -0.48 34.25 6.58 -0.29 1.17 -34.38 -6.11 0.29 -1.17zm0 0l0.04 -0.18 0.08 -0.3 -0.13 0.48zm0.14 -0.52l34.24 6.6 -0.12 0.46 -0.01 0.04 -34.12 -7.06 0.01 -0.04zm34.24 6.6l-0.05 0.2 -0.07 0.26 0.12 -0.46zm-34.07 -7.35l0.05 -0.19 34.32 6.33 -0.3 1.21 -34.37 -6.14 0.3 -1.21zm0 0l0.05 -0.19 -0.06 0.21 0.01 -0.02zm0.36 -1.39l34.31 6.37 -0.04 0.15 -0.31 1.2 -34.27 -6.52 0.31 -1.2zm34.31 6.37l-0.01 0.04 -0.03 0.11 0.04 -0.15zm-34.33 -6.26l0.07 -0.27 34.28 6.49 -0.01 0.04 -34.34 -6.22 0.01 -0.04zm0 0l0.07 -0.27 0.02 -0.06 -0.08 0.34zm0.38 -1.43l0.08 -0.3 34.13 7.07 -0.31 1.15 -34.21 -6.77 0.31 -1.15zm0 0l0.05 -0.18 0.03 -0.12 -0.08 0.3zm0.44 -1.48l34.15 6.95 -0.11 0.42 -0.35 1.18 -34.04 -7.36 0.35 -1.18zm34.15 6.95l-0.11 0.42 0.02 -0.08 0.09 -0.33zm-34.24 -6.64l0.1 -0.36 34.17 6.89 -0.03 0.11 -34.27 -6.53 0.03 -0.11zm0 0l0.04 -0.15 0.06 -0.21 -0.1 0.36zm0.24 -0.84l0.04 -0.16 34.02 7.41 -0.14 0.48 -34.06 -7.25 0.14 -0.48zm0 0l0.04 -0.16 0.03 -0.1 -0.07 0.25zm0.58 -1.91l0.14 -0.43 33.83 7.99 -0.54 1.75 -33.97 -7.56 0.54 -1.75zm0 0l0.06 -0.19 0.08 -0.24 -0.14 0.43zm0.2 -0.59l33.78 8.16 -0.09 0.26 -0.06 0.16 -33.69 -8.42 0.06 -0.16zm33.78 8.16l-0.09 0.26 0.1 -0.29 -0.01 0.03zm-33.55 -8.89l0.11 -0.31 33.77 8.21 -0.32 0.99 -33.87 -7.9 0.32 -0.99zm0 0l0.11 -0.31 -0.09 0.26 -0.02 0.04zm0.51 -1.46l33.74 8.27 -0.08 0.25 -0.4 1.16 -33.66 -8.52 0.4 -1.16zm33.74 8.27l-0.08 0.25 0.02 -0.07 0.06 -0.18zm-33.54 -8.91l0.16 -0.48 33.67 8.49 -0.29 0.89 -33.83 -8.01 0.29 -0.89zm0 0l0.11 -0.32 0.06 -0.16 -0.16 0.48zm0.26 -0.74l0.01 -0.02 33.5 8.98 -0.1 0.26 -33.5 -8.97 0.1 -0.26zm0 0l0.01 -0.02 0.13 -0.35 -0.13 0.37zm0.43 -1.15l33.56 8.8 -0.07 0.2 -0.42 1.13 -33.49 -9 0.42 -1.13zm33.56 8.8l-0.04 0.11 -0.03 0.09 0.07 -0.2zm-33.54 -8.88l0.13 -0.34 33.51 8.94 -0.1 0.29 -33.64 -8.6 0.1 -0.29zm0 0l0.03 -0.08 0.1 -0.26 -0.13 0.34zm0.45 -1.19l0.01 -0.03 33.37 9.32 -0.33 0.85 -33.38 -9.28 0.33 -0.85zm0 0l0.01 -0.03 0.24 -0.61 -0.25 0.64zm0.44 -1.15l0.23 -0.55 33.13 9.9 -0.43 1.12 -33.36 -9.35 0.43 -1.12zm0 0l0.08 -0.21 0.15 -0.34 -0.23 0.55zm0.37 -0.87l33.01 10.19 -0.11 0.26 -0.14 0.32 -32.9 -10.45 0.14 -0.32zm33.01 10.19l-0.06 0.14 -0.06 0.12 0.11 -0.26zm-32.34 -11.81l0.09 -0.22 33.03 10.15 -0.78 1.89 -33.12 -9.92 0.78 -1.89zm0 0l0.09 -0.22 0.06 -0.15 -0.15 0.37zm0.26 -0.61l0.06 -0.13 32.88 10.5 -0.17 0.39 -32.94 -10.37 0.17 -0.39zm0 0l0.06 -0.13 -0.2 0.45 0.14 -0.33zm0.37 -0.82l0.01 -0.01 32.81 10.64 -0.31 0.69 -32.82 -10.63 0.31 -0.69zm0 0l0.01 -0.01 -0.2 0.45 0.2 -0.44zm0.49 -1.1l0.09 -0.2 32.72 10.85 -0.49 1.09 -32.81 -10.65 0.49 -1.09zm0 0l0.09 -0.2 -0.04 0.09 -0.05 0.11zm0.29 -0.63l32.68 10.93 -0.06 0.12 -0.2 0.43 -32.63 -11.04 0.2 -0.43zm32.68 10.93l-0.06 0.12 0.1 -0.21 -0.04 0.09zm-32.45 -11.45l0.16 -0.34 32.58 11.15 -0.29 0.64 -32.74 -10.81 0.29 -0.64zm0 0l0.11 -0.23 0.05 -0.11 -0.16 0.34zm0.67 -1.38l0.08 -0.17 32.34 11.65 -0.51 1.04 -32.43 -11.48 0.51 -1.04zm0 0l0.03 -0.06 0.06 -0.11 -0.08 0.17zm0.33 -0.65l0.02 -0.04 32.23 11.86 -0.24 0.48 -32.26 -11.82 0.24 -0.48zm0 0l0.02 -0.04 -0.34 0.66 0.31 -0.62zm0.31 -0.61l0.1 -0.2 32.11 12.1 -0.29 0.57 -32.21 -11.9 0.29 -0.57zm0 0l0.1 -0.2 0.05 -0.1 -0.15 0.3zm0.93 -1.76l32.08 12.17 -0.07 0.13 -0.82 1.55 -32.01 -12.3 0.82 -1.55zm32.08 12.17l-0.07 0.13 -0.09 0.16 0.16 -0.3zm-31.89 -12.53l0.17 -0.32 31.98 12.35 -0.26 0.5 -32.14 -12.03 0.26 -0.5zm0 0l0.12 -0.23 0.05 -0.09 -0.17 0.32zm0.72 -1.33l0.15 -0.26 31.66 12.94 -0.56 1.01 -31.81 -12.67 0.56 -1.01zm0 0l0.02 -0.04 0.13 -0.22 -0.15 0.26zm0.48 -0.84l0 -0.01 31.51 13.2 -0.33 0.57 -31.51 -13.2 0.33 -0.57zm0.25 -0.43l0.15 -0.24 31.36 13.45 -0.25 0.43 -31.51 -13.21 0.25 -0.43zm0 0l0.01 -0.01 0.14 -0.23 -0.15 0.24zm1.11 -1.84l31.42 13.34 -0.21 0.35 -0.97 1.59 -31.21 -13.69 0.97 -1.59zm31.42 13.34l-0.1 0.17 -0.11 0.19 0.21 -0.35zm-31.42 -13.36l0.51 -0.83 31.12 13.82 -0.21 0.38 -31.63 -12.99 0.21 -0.38zm0 0l0.23 -0.41 0.28 -0.42 -0.51 0.83zm1.13 -1.77l30.8 14.35 -0.19 0.3 -0.62 0.94 -30.61 -14.65 0.62 -0.94zm30.8 14.35l-0.1 0.16 -0.09 0.13 0.19 -0.3zm-30.58 -14.7l0.43 -0.65 30.56 14.7 -0.4 0.65 -30.99 -14.05 0.4 -0.65zm0 0l0.21 -0.34 0.22 -0.31 -0.43 0.65zm0.65 -0.95l30.22 15.21 -0.1 0.14 -0.21 0.3 -30.12 -15.35 0.21 -0.3zm30.22 15.21l-0.1 0.14 -0.04 0.06 0.13 -0.2zm-29.68 -16.01l0.07 -0.11 30.24 15.19 -0.64 0.93 -30.32 -15.07 0.64 -0.93zm0 0l0.07 -0.11 0.22 -0.31 -0.29 0.42zm0.54 -0.79l30.23 15.21 -0.06 0.09 -0.47 0.67 -30.17 -15.3 0.47 -0.67zm30.23 15.21l-0.07 0.1 0.01 -0.01 0.06 -0.09zm-30.12 -15.37l0.34 -0.47 29.96 15.58 -0.17 0.25 -30.29 -15.12 0.17 -0.25zm0 0l0.14 -0.2 0.2 -0.26 -0.34 0.47zm1 -1.36l29.69 15.95 -0.07 0.1 -0.67 0.89 -29.62 -16.05 0.67 -0.89zm29.69 15.95l-0.07 0.1 0.16 -0.22 -0.09 0.12zm-29.25 -16.56l0.51 -0.65 29.26 16.5 -0.52 0.7 -29.77 -15.86 0.52 -0.7zm0 0l0.22 -0.3 0.28 -0.34 -0.51 0.65zm0.66 -0.84l29.06 16.77 -0.3 0.38 -0.16 0.19 -28.76 -17.15 0.16 -0.19zm29.06 16.77l-0.16 0.21 -0.14 0.17 0.3 -0.38zm-28.68 -17.27l0.29 -0.37 29.07 16.76 -0.68 0.88 -29.36 -16.39 0.68 -0.88zm0 0l0.19 -0.25 0.1 -0.12 -0.29 0.37zm0.89 -1.09l29.19 16.6 -0.42 0.53 -0.59 0.72 -28.78 -17.13 0.59 -0.72zm29.19 16.6l-0.19 0.25 -0.22 0.27 0.42 -0.53zm-29.51 -16.21l0.66 -0.82 28.95 16.89 -0.1 0.13 -29.61 -16.07 0.1 -0.13zm0 0l0.3 -0.4 0.36 -0.42 -0.66 0.82zm1.38 -1.65l28.4 17.58 -0.12 0.13 -0.72 0.83 -28.28 -17.71 0.72 -0.83zm28.4 17.58l-0.12 0.13 0.17 -0.2 -0.06 0.07zm-27.88 -18.2l1.26 -1.32 27.26 18.77 -0.64 0.76 -28.52 -17.44 0.64 -0.76zm0 0l0.59 -0.7 0.67 -0.62 -1.26 1.32zm1.35 -1.41l26.83 19.25 -0.82 0.84 -0.09 0.08 -26.01 -20.09 0.09 -0.08zm26.83 19.25l-0.42 0.45 -0.4 0.38 0.82 -0.84zm-27.4 -18.7l27.67 18.41 -0.01 0.01 -0.26 0.28 -27.66 -18.42 0.26 -0.28zm27.67 18.41l-0.01 0.01 0.38 -0.41 -0.36 0.4zm-26.49 -19.69l29.34 16.21 -1.67 2.18 -1.19 1.3 -27.68 -18.4 1.19 -1.3zm29.34 16.21l-0.72 1.15 -0.95 1.03 1.67 -2.18zm-30.98 -14.07l2.22 -2.75 28.79 16.78 -0.03 0.04 -31.01 -14.03 0.03 -0.04zm0 0l0.92 -1.47 1.3 -1.28 -2.22 2.75zm2.99 -3.51l26.78 19.33 -0.2 0.2 -0.77 0.76 -26.58 -19.53 0.77 -0.76zm26.78 19.33l-0.08 0.08 -0.12 0.12 0.2 -0.2zm-26.21 -19.91l2.55 -2.12 24.43 21.25 -0.77 0.79 -26.98 -19.13 0.77 -0.79zm0 0l1.14 -1.17 1.4 -0.95 -2.55 2.12zm329.75 -223.95l26.77 5.21 -4.88 18.15 -327.2 221.83 -21.89 -23.37 327.2 -221.83zm0 0l17.23 -11.68 9.54 16.89 -26.77 -5.21zm-18.75 118.2l0.75 -0.48 2.6 -1.67 2.48 -1.76 2.36 -1.85 2.25 -1.94 2.13 -2.03 2 -2.12 1.89 -2.21 1.76 -2.3 1.64 -2.4 1.52 -2.47 1.39 -2.58 1.26 -2.67 1.12 -2.76 0.98 -2.86 0.84 -2.95 0.69 -3.06 0.54 -3.15 0.38 -3.24 0.22 -3.35 0.04 -3.45 -0.13 -3.55 -0.31 -3.64 -0.51 -3.74 -0.7 -3.85 -0.9 -3.93 -1.11 -4.02 -1.32 -4.12 -1.53 -4.21 -1.77 -4.3 -1.99 -4.39 -2.23 -4.47 -2.46 -4.55 31.65 -12.94 2.92 5.39 2.67 5.35 2.41 5.3 2.15 5.25 1.9 5.21 1.64 5.15 1.41 5.11 1.14 5.05 0.91 4.98 0.66 4.94 0.42 4.87 0.18 4.8 -0.06 4.74 -0.3 4.66 -0.53 4.58 -0.77 4.5 -0.99 4.41 -1.23 4.33 -1.45 4.23 -1.67 4.14 -1.9 4.01 -2.1 3.91 -2.32 3.79 -2.52 3.66 -2.73 3.54 -2.91 3.41 -3.1 3.27 -3.28 3.14 -3.45 2.99 -3.63 2.84 -3.78 2.68 -3.93 2.54 0.75 -0.48 -22.01 -23.29zm0 0l0.35 -0.24 0.39 -0.24 -0.75 0.48zm-249.48 209.14l-27.12 -5.7 5.11 -17.59 271.49 -185.85 22.01 23.29 -271.49 185.85zm0 0l-17.95 12.29 -9.17 -17.99 27.12 5.7zm-38.57 -28.18l2.15 -15.01 30.07 3.12 11.45 22.48 -32.22 11.89 -11.45 -22.48zm2.15 -15.01l18.16 -20.26 11.91 23.38 -30.07 -3.12zm27.78 18.29l-28.36 -17.62 0.43 -0.51 0.15 -0.16 27.92 18.13 -0.15 0.16zm-28.36 -17.62l0.22 -0.27 0.21 -0.23 -0.43 0.51zm14.39 8.56l0 0 0 0 0 0 14.39 8.56 -14.39 -8.56zm-14.39 -8.56l0.22 -0.27 0.21 -0.23 -0.43 0.51zm28.66 17.27l-0.43 0.51 -28.36 -17.62 0.13 -0.16 28.79 17.12 -0.13 0.16zm0 0l-0.22 0.27 -0.21 0.23 0.43 -0.51zm-0.58 0.67l-13.96 5.88 -13.96 -24.01 0.15 -0.16 27.92 18.13 -0.15 0.16zm0 0l-5.28 5.88 -8.69 0 13.96 -5.88zm-13.97 5.88l-14.21 -23.72 14.21 -6.17 0.01 0 0 29.89 -0.01 0zm-14.21 -23.72l5.26 -6.17 8.96 0 -14.21 6.17zm28.3 17.69l-0.06 0.07 -28.37 -17.61 0.13 -0.15 28.43 17.54 -0.13 0.15zm0 0l-0.06 0.07 -0.11 0.12 0.16 -0.19zm-0.2 0.23l-31.72 -8.84 3.4 -8.84 0.14 -0.16 28.32 17.68 -0.14 0.16zm-31.72 -8.84l0 -4.89 3.4 -3.95 -3.4 8.84zm35.12 0.02l-3.53 8.98 -31.59 -8.98 0 -0.02 35.12 0 0 0.02zm0 0l0 4.99 -3.53 3.99 3.53 -8.98zm-3.66 9.13l-28.74 -17.15 0.68 -0.82 0.13 -0.15 28.06 17.97 -0.13 0.15zm-28.74 -17.15l0.3 -0.39 0.38 -0.43 -0.68 0.82zm29.29 16.5l-3.88 3.6 -25.54 -19.93 0.13 -0.17 29.42 16.33 -0.13 0.17zm0 0l-1.59 2.07 -2.29 1.53 3.88 -3.6zm-3.89 3.61l-25.74 -19.65 4.08 -3.87 0.02 -0.01 21.66 23.52 -0.02 0.01zm-25.74 -19.65l1.64 -2.24 2.44 -1.63 -4.08 3.87zm29.71 15.93l-0.02 0.02 -29.8 -15.8 0.11 -0.15 29.82 15.78 -0.11 0.15zm0 0l-0.02 0.02 0.12 -0.17 -0.11 0.15zm-0.14 0.19l-30.53 -14.71 0.75 -1.12 0.12 -0.17 29.79 15.83 -0.12 0.17zm-30.53 -14.71l0.33 -0.54 0.42 -0.57 -0.75 1.12zm31.26 13.62l-1.08 1.55 -30.2 -15.15 0.02 -0.03 31.28 13.59 -0.02 0.03zm0 0l-0.48 0.8 -0.6 0.76 1.08 -1.55zm-1.18 1.69l-29.27 -16.52 0.15 -0.19 0.11 -0.13 29.13 16.7 -0.11 0.13zm-29.27 -16.52l0.15 -0.19 -0.12 0.16 -0.02 0.03zm29.29 16.5l-0.2 0.24 -29.22 -16.57 0.13 -0.17 29.42 16.33 -0.13 0.17zm0 0l-0.2 0.24 0.27 -0.34 -0.08 0.1zm-0.22 0.27l-30.07 -15.34 1.04 -1.48 0.02 -0.03 29.02 16.81 -0.02 0.03zm-30.07 -15.34l0.45 -0.74 0.59 -0.74 -1.04 1.48zm31.02 14.01l-0.47 0.72 -30.64 -14.58 0.09 -0.15 31.11 13.86 -0.09 0.15zm0 0l-0.23 0.37 -0.24 0.35 0.47 -0.72zm-0.59 0.89l-30.59 -14.66 0.42 -0.63 0.12 -0.17 30.17 15.3 -0.12 0.17zm-30.59 -14.66l0.19 -0.31 0.23 -0.33 -0.42 0.63zm30.98 14.07l-0.64 0.94 -30.37 -14.97 0.03 -0.04 31.01 14.03 -0.03 0.04zm0 0l-0.31 0.5 -0.33 0.44 0.64 -0.94zm-0.74 1.07l-30.14 -15.33 0.4 -0.58 0.1 -0.13 29.73 15.92 -0.1 0.13zm-30.14 -15.33l0.25 -0.38 0.15 -0.21 -0.4 0.58zm30.43 14.92l-31.06 -13.91 0.52 -0.84 0.11 -0.17 30.54 14.75 -0.11 0.17zm-31.06 -13.91l0.24 -0.42 0.29 -0.43 -0.52 0.84zm31.56 13.1l-0.15 0.26 -31.43 -13.33 0.02 -0.04 31.58 13.06 -0.02 0.04zm0 0l-0.13 0.24 -0.02 0.03 0.15 -0.26zm-0.24 0.4l-0.25 0.39 -31.03 -13.98 0.08 -0.14 31.28 13.59 -0.08 0.14zm0 0l-0.08 0.15 -0.16 0.25 0.25 -0.39zm-0.36 0.57l-32.29 -11.27 1.5 -3.11 0.11 -0.17 30.79 14.38 -0.11 0.17zm-32.29 -11.27l0.54 -1.63 0.95 -1.48 -1.5 3.11zm33.77 8.21l-1.39 2.94 -32.4 -11.09 0.02 -0.05 33.78 8.16 -0.02 0.05zm0 0l-0.51 1.54 -0.88 1.4 1.39 -2.94zm-1.47 3.07l-31.18 -13.75 0.17 -0.27 0.08 -0.13 31.01 14.03 -0.08 0.13zm-31.18 -13.75l0.07 -0.11 0.1 -0.16 -0.17 0.27zm31.24 13.66l-1.35 1.9 -30 -15.38 0.11 -0.18 31.35 13.48 -0.11 0.18zm0 0l-0.58 0.97 -0.77 0.93 1.35 -1.9zm-1.38 1.94l-30.58 -14.29 1.94 -2.99 0.03 -0.03 28.64 17.28 -0.03 0.03zm-30.58 -14.29l0.76 -1.58 1.18 -1.41 -1.94 2.99zm32.45 11.44l-0.52 0.97 -32 -12.27 0.07 -0.14 32.52 11.3 -0.07 0.14zm0 0l-0.21 0.44 -0.3 0.53 0.52 -0.97zm-0.62 1.14l-0.74 1.14 -30.75 -14.38 0.1 -0.17 31.48 13.23 -0.1 0.17zm0 0l-0.36 0.62 -0.38 0.53 0.74 -1.14zm-0.76 1.18l-31.45 -13 1.44 -2.52 0.03 -0.04 30.01 15.52 -0.03 0.04zm-31.45 -13l0.58 -1.32 0.85 -1.2 -1.44 2.52zm32.82 10.62l-0.53 1.08 -32.35 -11.56 0.06 -0.14 32.89 10.48 -0.06 0.14zm0 0l-0.24 0.53 -0.3 0.54 0.53 -1.08zm-0.63 1.25l-0.82 1.33 -30.99 -13.97 0.1 -0.17 31.82 12.64 -0.1 0.17zm0 0l-0.38 0.7 -0.44 0.63 0.82 -1.33zm-0.86 1.39l-31.67 -12.56 1.5 -2.74 0.04 -0.06 30.17 15.3 -0.04 0.06zm-31.67 -12.56l0.59 -1.44 0.91 -1.3 -1.5 2.74zm33.12 9.94l-0.77 1.58 -32.4 -11.4 0.05 -0.12 33.17 9.82 -0.05 0.12zm0 0l-0.33 0.79 -0.44 0.79 0.77 -1.58zm-0.86 1.75l-32.62 -10.83 0.99 -2.14 0.1 -0.17 31.63 12.97 -0.1 0.17zm-32.62 -10.83l0.39 -1.08 0.6 -1.06 -0.99 2.14zm33.58 8.77l-0.65 1.5 -32.96 -10.19 0.03 -0.08 33.6 8.69 -0.03 0.08zm0 0l-0.27 0.75 -0.38 0.76 0.65 -1.5zm-0.71 1.63l-32.39 -11.54 0.08 -0.16 0.06 -0.12 32.31 11.7 -0.06 0.12zm-32.39 -11.54l0 0 0.08 -0.16 -0.08 0.16zm32.39 11.55l-33.04 -10.03 0.57 -1.35 0.08 -0.17 32.47 11.38 -0.08 0.17zm-33.04 -10.03l0.24 -0.67 0.33 -0.68 -0.57 1.35zm33.58 8.77l-0.1 0.26 -33.5 -8.95 0.03 -0.08 33.6 8.69 -0.03 0.08zm0 0l-0.1 0.26 0.11 -0.29 -0.01 0.02zm-0.15 0.38l-0.62 1.4 -32.78 -10.62 0.04 -0.12 33.4 9.21 -0.04 0.12zm0 0l-0.29 0.75 -0.34 0.66 0.62 -1.4zm-0.71 1.58l-32.23 -11.86 0.08 -0.16 0.09 -0.17 32.16 12.02 -0.09 0.17zm-32.23 -11.86l0.08 -0.16 0.09 -0.17 -0.17 0.34zm32.28 11.76l-33.15 -9.6 0.84 -2.1 0.03 -0.07 32.31 11.7 -0.03 0.07zm-33.15 -9.6l0.33 -1.06 0.52 -1.04 -0.84 2.1zm33.96 7.63l-0.46 1.27 -33.54 -8.77 0.04 -0.13 34 7.5 -0.04 0.13zm0 0l-0.2 0.65 -0.26 0.63 0.46 -1.27zm-0.53 1.45l-33.51 -8.86 0.43 -1.18 0.07 -0.17 33.08 10.05 -0.07 0.17zm-33.51 -8.86l0.19 -0.6 0.24 -0.58 -0.43 1.18zm33.91 7.77l-0.68 1.75 -33.26 -9.42 0.03 -0.09 33.94 7.68 -0.03 0.09zm0 0l-0.27 0.88 -0.41 0.86 0.68 -1.75zm-0.74 1.85l-32.82 -10.61 0.25 -0.56 0.05 -0.11 32.57 11.17 -0.05 0.11zm-32.82 -10.61l0.1 -0.25 0.15 -0.31 -0.25 0.56zm33 10.22l-33.67 -8.29 0.59 -1.76 0.07 -0.17 33.08 10.05 -0.07 0.17zm-33.67 -8.29l0.24 -0.91 0.35 -0.85 -0.59 1.76zm34.24 6.64l-0.68 1.95 -33.59 -8.48 0.03 -0.11 34.27 6.53 -0.03 0.11zm0 0l-0.26 0.99 -0.42 0.95 0.68 -1.95zm-0.72 2.04l-33.27 -9.51 0.36 -0.91 0.04 -0.09 32.91 10.43 -0.04 0.09zm-33.27 -9.51l0.15 -0.42 0.22 -0.49 -0.36 0.91zm33.57 8.79l-33.64 -8.6 0.07 -0.19 33.64 8.6 -0.07 0.19zm-0.03 0.1l-33.85 -7.92 0.21 -0.67 0.03 -0.1 33.64 8.6 -0.03 0.1zm-33.85 -7.92l0.12 -0.42 0.09 -0.26 -0.21 0.67zm34.04 7.35l-0.06 0.21 -34 -7.46 0.03 -0.1 34.06 7.25 -0.03 0.1zm0 0l-0.06 0.21 -0.02 0.06 0.08 -0.27zm-0.12 0.39l-33.99 -7.54 0.04 -0.14 0.06 -0.18 33.94 7.68 -0.06 0.18zm-33.99 -7.54l-0.03 0.08 0.07 -0.22 -0.04 0.14zm34 7.51l-0.52 1.42 -33.51 -8.82 0.03 -0.11 34.03 7.4 -0.03 0.11zm0 0l-0.21 0.72 -0.3 0.7 0.52 -1.42zm-0.55 1.5l-33.65 -8.31 0.66 -1.92 0.03 -0.08 33 10.24 -0.03 0.08zm-33.65 -8.31l0.25 -0.98 0.4 -0.94 -0.66 1.92zm34.26 6.58l-34.33 -6.3 0.02 -0.08 0.05 -0.2 34.31 6.39 -0.05 0.2zm-34.33 -6.3l0.02 -0.08 0.15 -0.59 -0.17 0.67zm34.32 6.33l-0.48 1.54 -33.86 -7.76 0.03 -0.11 34.34 6.22 -0.03 0.11zm0 0l-0.2 0.81 -0.28 0.73 0.48 -1.54zm-0.51 1.61l-33.82 -7.93 0.44 -1.36 0.03 -0.07 33.38 9.29 -0.03 0.07zm-33.82 -7.93l0.19 -0.72 0.25 -0.64 -0.44 1.36zm34.2 6.76l-34.3 -6.39 0.04 -0.17 0.05 -0.19 34.25 6.57 -0.05 0.19zm-34.3 -6.39l0.04 -0.17 -0.02 0.1 -0.02 0.08zm34.32 6.33l-34.45 -5.79 0.1 -0.43 0.03 -0.11 34.34 6.22 -0.03 0.11zm-34.45 -5.79l0.03 -0.16 0.07 -0.27 -0.1 0.43zm34.53 5.44l-0.17 0.7 -34.38 -6.06 0.02 -0.08 34.55 5.36 -0.02 0.08zm0 0l-0.08 0.36 -0.09 0.33 0.17 -0.7zm-0.22 0.88l-34.32 -6.35 0.11 -0.41 0.05 -0.19 34.21 6.76 -0.05 0.19zm-34.32 -6.35l0.03 -0.15 0.07 -0.26 -0.11 0.41zm34.4 6.06l-0.09 0.34 -34.33 -6.27 0.03 -0.12 34.42 5.94 -0.03 0.12zm0 0l0 0 -0.09 0.34 0.09 -0.34zm-0.11 0.42l-34.4 -5.96 0.16 -0.65 0.02 -0.08 34.24 6.61 -0.02 0.08zm-34.4 -5.96l0.06 -0.3 0.1 -0.35 -0.16 0.65zm34.52 5.49l-34.65 -4.84 0.09 -0.47 0.04 -0.19 34.56 5.31 -0.04 0.19zm-34.65 -4.84l0.04 -0.24 0.05 -0.23 -0.09 0.47zm34.72 4.51l-0.38 1.59 -34.36 -5.97 0.02 -0.13 34.74 4.38 -0.02 0.13zm0 0l-0.14 0.81 -0.24 0.78 0.38 -1.59zm-0.4 1.67l-34.34 -6.07 0.36 -1.5 0.02 -0.07 33.97 7.56 -0.02 0.07zm-34.34 -6.07l0.14 -0.76 0.22 -0.74 -0.36 1.5zm34.67 4.75l-34.7 -4.57 0.03 -0.19 34.7 4.57 -0.03 0.19zm-0.02 0.12l-0.18 0.82 -34.52 -5.39 0.02 -0.12 34.7 4.57 -0.02 0.12zm0 0l-0.07 0.39 -0.11 0.43 0.18 -0.82zm-0.2 0.89l-34.6 -4.97 0.25 -1.25 0.02 -0.07 34.34 6.22 -0.02 0.07zm-34.6 -4.97l0.08 -0.58 0.17 -0.67 -0.25 1.25zm34.82 3.91l-0.03 0.16 -34.82 -3.87 0.03 -0.19 34.85 3.72 -0.03 0.19zm0 0l-0.03 0.16 0.06 -0.38 -0.03 0.22zm-0.05 0.3l-34.8 -3.96 0.01 -0.07 0.02 -0.14 34.79 4.03 -0.02 0.14zm-34.8 -3.96l0.01 -0.07 0 0 -0.01 0.07zm34.8 3.96l-34.85 -3.68 0.03 -0.2 0.01 -0.07 34.82 3.88 -0.01 0.07zm-34.85 -3.68l0.03 -0.2 -0.06 0.36 0.02 -0.16zm34.84 3.8l-0.19 1.04 -34.69 -4.52 0.04 -0.33 34.88 3.48 -0.04 0.33zm0 0l-0.07 0.47 -0.12 0.57 0.19 -1.04zm-0.2 1.09l-34.73 -4.23 0.22 -1.33 0.01 -0.05 34.5 5.56 -0.01 0.05zm-34.73 -4.23l0.07 -0.66 0.15 -0.67 -0.22 1.33zm34.93 3.09l-0.02 0.13 -34.93 -3.03 0.02 -0.2 34.95 2.9 -0.02 0.2zm0 0l0 0 -0.02 0.13 0.02 -0.13zm-0.03 0.27l-0.21 1.2 -34.71 -4.36 0.02 -0.13 34.92 3.17 -0.02 0.13zm0 0l-0.07 0.59 -0.13 0.6 0.21 -1.2zm-0.22 1.25l-34.76 -3.93 0.26 -1.63 0.01 -0.05 34.5 5.56 -0.01 0.05zm-34.76 -3.93l0.07 -0.79 0.19 -0.84 -0.26 1.63zm35 2.49l-35.04 -2.03 0.02 -0.27 0.02 -0.19 35.02 2.3 -0.02 0.19zm-35.04 -2.03l0.01 -0.12 0.02 -0.16 -0.02 0.27zm35.05 1.91l-35.09 -0.88 0.03 -0.88 0.01 -0.16 35.06 1.75 -0.01 0.16zm-35.09 -0.88l0 -0.47 0.03 -0.4 -0.03 0.88zm35.12 0.04l-35.12 0 0 -0.04 35.12 0 0 0.04zm0 0.02l-35.08 0.97 -0.04 -0.97 0 -0.02 35.12 0 0 0.02zm-35.08 0.97l-0.04 -0.52 0 -0.45 0.04 0.97zm11.33 21.11l-2.71 -2.26 -0.51 -0.54 -0.47 -0.52 -0.41 -0.47 -0.51 -0.6 -0.48 -0.62 -0.39 -0.51 -0.39 -0.55 -0.39 -0.56 -0.4 -0.62 -0.33 -0.52 -0.34 -0.57 -0.34 -0.61 -0.34 -0.62 -0.31 -0.62 -0.24 -0.5 -0.25 -0.54 -0.27 -0.64 -0.26 -0.64 -0.25 -0.65 -0.22 -0.62 -0.18 -0.56 -0.18 -0.56 -0.18 -0.63 -0.17 -0.63 -0.16 -0.64 -0.12 -0.56 -0.13 -0.65 -0.11 -0.64 -0.09 -0.57 -0.08 -0.63 -0.07 -0.65 -0.05 -0.62 35.04 -1.93 0.01 0.08 0.01 0.03 0.01 0.06 0.02 0.13 0.01 0.04 0.01 0.05 0.03 0.12 0.01 0.04 0.01 0.06 0.02 0.06 0.03 0.12 0.04 0.12 0.02 0.06 0.01 0.03 0.01 0.02 0.02 0.02 0.05 0.11 0.07 0.15 0.01 0.03 0.01 0.02 0.02 0.03 0.04 0.06 0.06 0.1 0 0 0.04 0.06 0.03 0.04 0.06 0.08 -0.02 -0.02 -0.02 -0.03 0.08 0.1 0.04 0.04 0.01 0.01 -2.71 -2.26 -21.74 23.47zm0 0l-1.5 -1 -1.21 -1.26 2.71 2.26zm92.43 23.93l2.7 21.22 -24.44 2.25 -70.69 -47.4 21.74 -23.47 70.69 47.4zm0 0l14.07 9.44 -11.38 11.78 -2.7 -21.22zm-43.1 68.65l-24.7 2.08 -2.44 -21.04 45.8 -47.43 27.14 18.97 -45.8 47.43zm0 0l-11.13 11.53 -13.56 -9.46 24.7 -2.08zm-75.31 -33.2l-2.08 -1.72 24.34 -21.4 50.61 35.28 -22.26 23.12 -50.61 -35.28zm0 0l-1.11 -0.77 -0.97 -0.94 2.08 1.72z"/>
    </g>
    <path class="fil1" d="M3281.98 560.14c-10.4,35.92 3.04,37.79 37.47,65l348.69 253.69c57.66,37.28 54.06,102.35 21.42,159.52l-424.78 -309.18c-50.44,-58.69 -31.62,-147.68 17.2,-169.04z"/>
    <path class="fil0" d="M2118.05 853.5c41.15,-40.44 61.84,-93.59 61.84,-159.43 0,-66.08 -20.69,-118.76 -61.84,-158.27 -41.15,-39.74 -92.42,-59.73 -153.8,-60.2 -61.14,0 -112.64,19.75 -154.26,59.49 -42.09,39.98 -63.26,92.66 -63.26,158.27 0,65.37 20.69,118.52 61.84,159.44 41.15,41.15 92.65,61.61 154.5,61.61 62.08,0 113.82,-20.23 154.97,-60.91zm-154.26 183.67c-95.95,0 -177.31,-31.75 -244.57,-95.24 -67.26,-63.49 -100.88,-146.27 -100.88,-248.56 0,-102.29 33.16,-185.3 99.24,-248.8 66.07,-63.49 147.68,-95 245.03,-94.54 97.83,0 179.66,31.75 245.74,95.24 66.56,63.96 99.94,146.74 99.94,248.1 0,101.35 -33.39,183.9 -100.18,247.85 -66.78,63.96 -148.38,95.95 -244.32,95.95z"/>
    <path class="fil0" d="M2875.38 853.16c41.06,-40.36 61.71,-93.39 61.71,-159.09 0,-65.93 -20.65,-118.49 -61.71,-157.91 -41.06,-39.65 -92.21,-59.6 -153.46,-60.07 -61.01,0 -112.39,19.71 -153.92,59.36 -42,39.89 -63.12,92.45 -63.12,157.92 0,65.23 20.65,118.25 61.71,159.09 41.06,41.06 92.45,61.48 154.16,61.48 61.94,0 113.56,-20.18 154.62,-60.78zm-153.92 183.26c-95.73,0 -176.92,-31.68 -244.02,-95.04 -67.11,-63.35 -100.67,-145.94 -100.67,-248.01 0,-102.07 33.09,-184.89 99.02,-248.25 65.93,-63.35 147.35,-94.79 244.49,-94.32 97.61,0 179.26,31.67 245.19,95.03 66.41,63.82 99.72,146.41 99.72,247.55 0,101.13 -33.32,183.49 -99.96,247.3 -66.64,63.82 -148.06,95.74 -243.79,95.74z"/>
    <path class="fil0" d="M3773.51 1030.74l1.84 -578.96c0.95,-79.72 54.81,-107.09 127.9,-107.87l-1.84 588.24c-1.57,72.55 -43.81,100.13 -127.9,98.59z"/>
    <path class="fil2" d="M3774.52 141.95c-16.63,-16.17 -24.83,-35.84 -24.83,-59.03 0,-23.42 8.2,-42.86 24.83,-59.03 18.51,-15.93 39.36,-23.89 63.02,-23.89 23.65,0 44.5,7.73 62.3,23.19 18.04,15.7 26.94,35.6 26.94,59.73 0,24.13 -8.9,44.04 -26.94,59.73 -17.8,15.46 -38.64,23.19 -62.3,23.19 -23.66,0 -44.5,-7.96 -63.02,-23.89z"/>
    <path class="fil0" d="M4161.47 532.04c-40.52,40.29 -60.9,93.92 -60.9,161.16 0,66.98 21.55,119.22 64.41,156.69 43.1,37.48 93.93,56.22 152.95,56.22 59.02,0 109.39,-19.68 150.84,-59.03 39.35,-39.11 59.03,-90.65 59.03,-154.58 0,-63.95 -20.62,-116.65 -61.84,-157.64 -41.45,-40.99 -92.52,-61.83 -152.71,-62.3 -60.43,-0.47 -111.03,19.44 -151.78,59.49zm-189.55 -188.13c90.42,-1.15 127.25,44.82 127.24,120.21 21.54,-36.77 52.7,-65.11 93.93,-84.8 40.29,-21.79 85.26,-32.55 135.15,-32.55 91.59,0 169.11,31.85 232.36,95.79 63.48,63.25 95.1,145.7 95.1,247.12 0,101.41 -31.39,183.62 -94.4,246.87 -62.77,63 -140.54,94.63 -233.06,94.63 -49.88,0 -95.56,-9.84 -137.26,-29.52 -41.45,-19.68 -72.15,-47.31 -91.82,-82.45l0 416.93c-82.15,2.29 -124.26,-17.28 -127.22,-104.3l-0.02 -887.94z"/>
    <path class="fil0" d="M5227.44 847.08c42.16,-39.35 63.25,-92.29 63.25,-159.03 0,-66.76 -22.02,-119.46 -65.82,-157.88 -44.04,-38.41 -95.79,-57.85 -155.29,-58.32 -59.73,0 -109.62,19.91 -149.9,59.73 -40.29,39.35 -60.43,90.88 -60.43,155.06 0,63.94 20.61,116.64 61.83,157.63 41.23,41.22 92.05,61.84 152.49,61.84 60.43,0 111.73,-19.68 153.88,-59.03zm64.72 183.65l-0.06 -114.33c-20.61,34.44 -51.77,62.07 -93.46,83.15 -41.69,21.08 -87.14,31.63 -136.79,31.63 -90.88,0 -169.82,-31.86 -236.57,-95.57 -64.42,-63.48 -96.74,-145.93 -96.74,-246.87 0,-101.19 31.85,-183.41 95.33,-246.42 63.71,-63.23 143.11,-95.09 238.21,-95.56 47.55,0 93.46,9.84 137.26,29.51 43.1,21.55 74.02,49.19 92.76,83.15 -1.85,-78.51 50.49,-113.76 129.8,-115.53l-1.85 589.45c-0.94,82.15 -45.91,97.38 -127.89,97.38z"/>
    <path class="fil0" d="M1053.14 530.18c-43.78,38.86 -65.78,91.77 -65.78,158.48 0,66.71 21.07,119.62 62.97,158.95 42.13,39.32 93.4,58.99 153.56,58.99 60.39,0 110.96,-20.6 151.46,-61.8 41.2,-40.97 61.8,-93.4 61.8,-156.84 0,-63.68 -20.37,-115.41 -61.1,-155.67 -40.5,-40.27 -90.13,-60.16 -148.65,-59.69 -58.52,0 -110.03,19.2 -154.26,57.59zm-194.82 500.56l-0.19 -928.82c-0.62,-72.47 48.98,-99.07 127.82,-97.03l0 455.3c44.72,-75.14 121.49,-112.6 230.34,-112.6 94.81,0 173.7,31.61 236.67,94.81 63.21,62.5 94.81,144.67 94.81,246.27 0,101.36 -32.77,184 -98.08,247.43 -65.55,63.68 -143.74,95.51 -234.8,95.51 -48.45,0 -93.64,-10.54 -135.77,-31.6 -41.9,-21.08 -73.03,-48.69 -93.17,-83.11 -0.13,83.51 -47.12,115.71 -127.63,113.84z"/>
   </g>
   <g id="_2685599099808">
    <path class="fil3 str0" d="M122.86 14.42c114.81,0 257.69,83.5 257.69,245.31 0,175.7 -121.5,251.8 -257.69,251.8l194.05 -246.16 -194.05 -250.96z"/>
    <path class="fil3 str0" d="M122.86 520.02c114.81,0 257.69,83.5 257.69,245.31 0,175.7 -121.5,251.81 -257.69,251.81l194.05 -246.16 -194.05 -250.96z"/>
    <polygon class="fil3 str1" points="31.8,40.72 79.9,11.22 2.38,11.22 2.38,98.83 "/>
    <polygon class="fil3 str1" points="31.8,991.38 79.9,1020.88 2.38,1020.88 2.38,933.27 "/>
   </g>
   <polygon class="fil4" points="569.66,522.4 701.11,134.49 310.34,521.87 699.84,913.56 "/>
  </g>
 </g>
</svg>
