<?xml version="1.0" encoding="UTF-8"?>
<!DOCTYPE svg PUBLIC "-//W3C//DTD SVG 1.1//EN" "http://www.w3.org/Graphics/SVG/1.1/DTD/svg11.dtd">
<!-- Creator: CorelDRAW 2018 (64-Bit Evaluation Version) -->
<svg xmlns="http://www.w3.org/2000/svg" xml:space="preserve" width="96.6147mm" height="23.8125mm" version="1.1" style="shape-rendering:geometricPrecision; text-rendering:geometricPrecision; image-rendering:optimizeQuality; fill-rule:evenodd; clip-rule:evenodd"
viewBox="0 0 5499.63 1355.49"
 xmlns:xlink="http://www.w3.org/1999/xlink">
 <defs>
  <style type="text/css">
   <![CDATA[
    .str1 {stroke:white;stroke-width:4.82;stroke-miterlimit:22.9256}
    .str0 {stroke:white;stroke-width:11.38;stroke-miterlimit:22.9256}
    .fil1 {fill:white}
    .fil0 {fill:white;fill-rule:nonzero}
   ]]>
  </style>
 </defs>
 <g id="Layer_x0020_1">
  <metadata id="CorelCorpID_0Corel-Layer"/>
  <g id="_2685471968432">
   <g>
    <path class="fil0" d="M3308.98 1045.52c-77.14,-0.59 -127.27,-21.47 -129.88,-98.74l-3.03 -945.18c73.29,-0.44 128.14,20.62 129.86,88l0 506.62 0 108.7 3.04 340.61z"/>
    <g>
     <path class="fil1" d="M3325.29 730.41c-16.35,-15.88 -24.55,-42.57 -24.96,-69.55l-0.02 0 0 -1.09 0 -0.22 0 -0.19 0 -1.17 0.01 0 0.01 -0.44 0.01 -0.81 0.05 -1.29 0.02 -0.57 0.03 -0.74 0.05 -1.3 0.04 -0.64 0.05 -0.67 0.08 -1.29 0.06 -0.72 0.04 -0.59 0.11 -1.29 0.08 -0.78 0.05 -0.51 0.14 -1.29 0.1 -0.85 0.05 -0.45 0.17 -1.28 0.11 -0.91 0.06 -0.37 0.34 -2.25 0.04 -0.31 0.4 -2.28 0.03 -0.24 0.23 -1.25 0.07 -0.31 0.18 -0.92 0.26 -1.26 0.25 -1.15 0.02 -0.1 0.28 -1.24 0.29 -1.18 0.01 -0.04 0.3 -1.22 0.32 -1.21 0.01 -0.05 0.32 -1.17 0.36 -1.2 0.03 -0.11 0.14 -0.48 0.55 -1.78 0.06 -0.17 0.32 -1.01 0.41 -1.17 0.3 -0.91 0.1 -0.26 0.43 -1.15 0.1 -0.29 0.33 -0.86 0.44 -1.13 0.14 -0.32 0.79 -1.91 0.17 -0.39 0.31 -0.7 0.5 -1.1 0.2 -0.44 0.3 -0.65 0.52 -1.06 0.24 -0.48 0.3 -0.58 0.84 -1.58 0.26 -0.51 0.56 -1.02 0.34 -0.58 0.25 -0.43 0.98 -1.62 0.22 -0.38 0.63 -0.96 0.41 -0.65 0.22 -0.31 0.65 -0.94 0.48 -0.68 0.18 -0.26 0.68 -0.91 0.52 -0.71 0.16 -0.19 0.69 -0.89 0.6 -0.73 0.1 -0.14 0.73 -0.84 0.65 -0.77 0.09 -0.09 0.26 -0.28 1.21 -1.31 0.03 -0.05 0.78 -0.77 0.78 -0.8 331.89 -225.01c30.54,54.09 17.08,97.78 -18.96,119.85l-275.38 188.51 -11.62 -22.8 -0.15 0.17 0 0 -0.13 0.16 -0.15 0.17 -0.01 0 -0.13 0.15 -0.14 0.17 0 0.02 -0.13 0.15 -0.13 0.17 -0.02 0.01 -0.11 0.15 -0.13 0.17 -0.02 0.03 -0.11 0.14 -0.13 0.17 -0.02 0.03 -0.09 0.15 -0.12 0.17 -0.03 0.05 -0.1 0.13 -0.11 0.17 -0.02 0.04 -0.09 0.14 -0.11 0.18 -0.02 0.05 -0.09 0.14 -0.11 0.18 -0.03 0.03 -0.07 0.14 -0.1 0.18 -0.03 0.04 -0.06 0.14 -0.1 0.18 -0.04 0.06 -0.05 0.13 -0.1 0.17 -0.03 0.08 -0.06 0.13 -0.09 0.18 -0.03 0.08 -0.05 0.12 -0.09 0.18 -0.03 0.07 -0.04 0.13 -0.07 0.18 -0.03 0.09 -0.05 0.11 -0.07 0.18 -0.03 0.11 -0.04 0.09 -0.07 0.19 -0.03 0.1 -0.03 0.1 -0.06 0.18 -0.03 0.11 -0.03 0.08 -0.05 0.2 -0.03 0.11 -0.03 0.07 -0.05 0.19 -0.03 0.11 -0.02 0.08 -0.05 0.19 -0.03 0.12 -0.02 0.09 -0.04 0.19 -0.02 0.13 -0.02 0.07 -0.03 0.19 -0.02 0.13 -0.02 0.07 -0.03 0.19 -0.02 0.14 -0.01 0.07 -0.05 0.33 -0.01 0.05 -0.02 0.2 -0.02 0.14 -0.01 0.05 -0.02 0.19 -0.01 0.17 0 0.05 0 0.02c0.28,3.75 1.9,7.53 4.75,10.49l71.7 48.08 -46.46 48.11 -51.33 -35.78z"/>
     <path id="1" class="fil0" d="M3300.33 645.7l17.81 14.97 0.06 2.28 0.1 2.31 0.14 2.28 0.18 2.26 0.22 2.27 0.26 2.25 0.3 2.23 0.34 2.2 0.39 2.2 0.42 2.17 0.47 2.15 0.5 2.12 0.54 2.08 0.58 2.05 0.63 2.02 0.66 1.99 0.69 1.95 0.73 1.91 0.76 1.83 0.81 1.82 0.83 1.77 0.87 1.71 0.89 1.66 0.92 1.6 0.96 1.55 0.98 1.49 1 1.42 1.03 1.37 1.05 1.31 1.06 1.23 1.08 1.17 1.1 1.11 -26.8 19.97 -1.91 -1.93 -1.84 -1.99 -1.76 -2.05 -1.68 -2.09 -1.61 -2.13 -1.54 -2.19 -1.47 -2.24 -1.4 -2.27 -1.33 -2.31 -1.27 -2.35 -1.21 -2.39 -1.14 -2.41 -1.08 -2.44 -1.03 -2.5 -0.96 -2.5 -0.91 -2.53 -0.84 -2.55 -0.8 -2.58 -0.74 -2.62 -0.69 -2.64 -0.63 -2.64 -0.58 -2.66 -0.52 -2.68 -0.47 -2.7 -0.42 -2.72 -0.37 -2.72 -0.32 -2.73 -0.27 -2.74 -0.22 -2.76 -0.16 -2.75 -0.12 -2.74 -0.07 -2.77 17.81 14.97 0 -30.32zm0 0l17.58 0 0.23 14.97 -17.81 -14.97zm-0.02 30.32l-17.81 -15.16 17.81 -15.16 0.02 0 0 30.32 -0.02 0zm0 0l-17.81 0 0 -15.16 17.81 15.16zm-17.81 -16.25l35.62 0 0 1.09 -35.62 0 0 -1.09zm0 -0.22l35.62 0 0 0.22 -35.62 0 0 -0.22zm0 -0.19l35.62 0 0 0.19 -35.62 0 0 -0.19zm0 -1.17l17.81 -15.16 17.81 15.16 0 1.17 -35.62 0 0 -1.17zm0 0l0 -15.16 17.81 0 -17.81 15.16zm17.82 -15.16l17.81 15.49 -17.81 14.82 -0.01 0 0 -30.32 0.01 0zm17.81 15.49l-0.39 14.82 -17.42 0 17.81 -14.82zm-35.6 -1.11l35.62 0.52 -0.01 0.15 -0.01 0.44 -35.61 -0.67 0.01 -0.44zm35.62 0.52l-0.01 0.15 0.01 -0.3 0 0.14zm-35.61 -1.18l0.01 -0.27 35.62 0.64 -0.01 0.81 -35.62 -0.36 0.01 -0.81zm0 0l0 -0.19 0.01 -0.09 -0.01 0.27zm0.05 -1.57l35.61 0.84 0 0.07 -0.05 1.29 -35.61 -0.91 0.05 -1.29zm35.61 0.84l0 0.07 -0.01 0.4 0.01 -0.47zm-35.59 -1.34l0.01 -0.21 35.61 0.97 -0.02 0.57 -35.61 -0.76 0.02 -0.57zm0 0l0.01 -0.24 0 0.03 -0.01 0.21zm0.04 -0.95l35.6 1.1 0 0.09 -0.03 0.74 -35.6 -1.18 0.03 -0.74zm35.6 1.1l0 0.09 -0.02 0.51 0.02 -0.59zm-35.55 -2.31l0.01 -0.3 35.59 1.31 -0.05 1.3 -35.6 -1.01 0.05 -1.3zm0 0l0.01 -0.31 0 0.01 -0.01 0.3zm0.05 -0.93l0.01 -0.08 35.57 1.68 -0.04 0.64 -35.58 -1.61 0.04 -0.64zm0 0l0.01 -0.08 -0.01 0.12 0 -0.04zm0.05 -0.75l35.57 1.68 -0.01 0.09 -0.05 0.67 -35.57 -1.76 0.05 -0.67zm35.57 1.68l0 0.02 -0.01 0.06 0.01 -0.09zm-35.5 -2.89l0.02 -0.22 35.56 1.82 -0.08 1.29 -35.58 -1.59 0.08 -1.29zm0 0l0 -0.03 0.02 -0.19 -0.02 0.22zm0.07 -0.94l35.55 1.88 -0.01 0.15 -0.06 0.72 -35.54 -2.04 0.06 -0.72zm35.55 1.88l-0.01 0.15 0.01 -0.09 0.01 -0.07zm-35.53 -2.32l0.02 -0.21 35.55 1.94 -0.04 0.59 -35.57 -1.73 0.04 -0.59zm0 0l0 -0.03 0.02 -0.18 -0.02 0.21zm0.13 -1.5l0.02 -0.24 35.51 2.39 -0.11 1.29 -35.53 -2.15 0.11 -1.29zm0 0l0.01 -0.09 0.02 -0.15 -0.02 0.24zm0.1 -1.02l35.5 2.46 -0.02 0.17 -0.08 0.78 -35.49 -2.63 0.08 -0.78zm35.5 2.46l0 0.03 -0.02 0.14 0.02 -0.17zm-35.47 -2.8l0.03 -0.28 35.49 2.57 -0.05 0.51 -35.52 -2.29 0.05 -0.51zm0 0l0.03 -0.28 -0.02 0.17 -0.01 0.11zm0.17 -1.57l0.01 -0.04 35.46 2.89 -0.14 1.29 -35.46 -2.85 0.14 -1.29zm0 0l0.01 -0.04 -0.04 0.37 0.03 -0.33zm0.1 -0.89l35.45 2.93 0 0 -0.1 0.85 -35.45 -2.93 0.1 -0.85zm0.05 -0.45l0.02 -0.2 35.43 3.13 -0.05 0.45 -35.45 -2.93 0.05 -0.45zm0 0l0.02 -0.2 0 0.01 -0.02 0.19zm0.19 -1.47l35.41 3.27 -0.01 0.05 -0.17 1.28 -35.41 -3.32 0.17 -1.28zm35.41 3.27l-0.01 0.05 -0.03 0.2 0.03 -0.26zm-35.3 -4.13l0.05 -0.36 35.37 3.58 -0.11 0.91 -35.42 -3.22 0.11 -0.91zm0 0l0.02 -0.14 0.03 -0.22 -0.05 0.36zm0.11 -0.73l35.33 3.88 -0.01 0.06 -0.06 0.37 -35.32 -3.94 0.06 -0.37zm35.33 3.88l-0.01 0.06 0.06 -0.42 -0.05 0.36zm-35 -6.07l35.38 3.54 -0.04 0.27 -0.34 2.25 -35.34 -3.81 0.34 -2.25zm35.38 3.54l-0.01 0.04 -0.03 0.23 0.04 -0.27zm-35.38 -3.58l0.09 -0.59 35.33 3.86 -0.04 0.31 -35.42 -3.27 0.04 -0.31zm0 0l0.03 -0.26 0.06 -0.33 -0.09 0.59zm0.49 -2.87l35.3 4.01 -0.07 0.44 -0.4 2.28 -35.24 -4.45 0.4 -2.28zm35.3 4.01l-0.03 0.23 -0.03 0.2 0.07 -0.44zm-35.34 -3.82l0.1 -0.59 35.28 4.16 -0.03 0.24 -35.37 -3.57 0.03 -0.24zm0 0l0.04 -0.27 0.06 -0.32 -0.1 0.59zm0.33 -1.84l0.08 -0.39 35.1 5.14 -0.23 1.25 -35.18 -4.75 0.23 -1.25zm0 0l0.03 -0.19 0.05 -0.2 -0.08 0.39zm0.15 -0.71l35.08 5.28 -0.06 0.26 -0.07 0.31 -35.02 -5.53 0.07 -0.31zm35.08 5.28l0.01 -0.05 -0.07 0.31 0.06 -0.26zm-34.95 -5.94l0.02 -0.08 35.12 5.1 -0.18 0.92 -35.13 -5.02 0.18 -0.92zm0 0l0.02 -0.08 -0.05 0.22 0.03 -0.14zm0.27 -1.34l0.03 -0.17 35.06 5.35 -0.26 1.26 -35.1 -5.18 0.26 -1.26zm0 0l0.03 -0.17 0.01 -0.05 -0.05 0.22zm0.28 -1.32l0.02 -0.06 35.01 5.58 -0.25 1.15 -35.03 -5.52 0.25 -1.15zm0 0l0.02 -0.06 -0.24 1.06 0.22 -1.01zm0.04 -0.16l0.01 -0.04 34.99 5.68 -0.02 0.1 -35 -5.64 0.02 -0.1zm0 0l0.01 -0.04 0.2 -0.88 -0.2 0.92zm0.28 -1.28l0.06 -0.24 34.93 5.95 -0.28 1.24 -34.99 -5.72 0.28 -1.24zm0 0l0.02 -0.09 0.04 -0.15 -0.06 0.24zm0.35 -1.42l0.13 -0.48 34.74 6.68 -0.29 1.18 -34.87 -6.19 0.29 -1.18zm0 0l0.05 -0.18 0.09 -0.3 -0.13 0.48zm0.14 -0.52l34.73 6.69 -0.13 0.47 -0.01 0.04 -34.61 -7.16 0.01 -0.04zm34.73 6.69l-0.05 0.2 -0.07 0.26 0.13 -0.47zm-34.56 -7.45l0.05 -0.19 34.81 6.42 -0.3 1.22 -34.86 -6.23 0.3 -1.22zm0 0l0.05 -0.19 -0.06 0.22 0.01 -0.02zm0.37 -1.41l34.8 6.46 -0.04 0.15 -0.32 1.21 -34.76 -6.61 0.32 -1.21zm34.8 6.46l-0.01 0.05 -0.03 0.11 0.04 -0.15zm-34.83 -6.35l0.07 -0.28 34.77 6.59 -0.01 0.05 -34.84 -6.31 0.01 -0.05zm0 0l0.07 -0.28 0.02 -0.06 -0.09 0.34zm0.39 -1.45l0.09 -0.3 34.62 7.17 -0.32 1.17 -34.7 -6.86 0.32 -1.17zm0 0l0.05 -0.18 0.03 -0.12 -0.09 0.3zm0.44 -1.5l34.64 7.05 -0.11 0.42 -0.36 1.2 -34.53 -7.47 0.36 -1.2zm34.64 7.05l-0.11 0.42 0.02 -0.09 0.09 -0.34zm-34.73 -6.73l0.1 -0.36 34.65 6.99 -0.03 0.11 -34.76 -6.63 0.03 -0.11zm0 0l0.04 -0.15 0.06 -0.21 -0.1 0.36zm0.24 -0.85l0.05 -0.16 34.51 7.51 -0.14 0.48 -34.55 -7.35 0.14 -0.48zm0 0l0.05 -0.16 0.03 -0.1 -0.07 0.26zm0.59 -1.94l0.14 -0.43 34.32 8.11 -0.55 1.78 -34.46 -7.67 0.55 -1.78zm0 0l0.06 -0.19 0.09 -0.24 -0.14 0.43zm0.2 -0.6l34.27 8.28 -0.09 0.26 -0.06 0.17 -34.18 -8.54 0.06 -0.17zm34.27 8.28l-0.09 0.26 0.1 -0.3 -0.01 0.03zm-34.03 -9.02l0.11 -0.31 34.25 8.33 -0.32 1.01 -34.36 -8.01 0.32 -1.01zm0 0l0.11 -0.31 -0.09 0.27 -0.02 0.05zm0.52 -1.49l34.23 8.38 -0.09 0.26 -0.41 1.17 -34.14 -8.64 0.41 -1.17zm34.23 8.38l-0.09 0.26 0.02 -0.07 0.06 -0.18zm-34.02 -9.03l0.17 -0.48 34.15 8.61 -0.3 0.91 -34.31 -8.13 0.3 -0.91zm0 0l0.11 -0.32 0.06 -0.16 -0.17 0.48zm0.26 -0.75l0.01 -0.02 33.98 9.11 -0.1 0.26 -33.98 -9.1 0.1 -0.26zm0 0l0.01 -0.02 0.13 -0.36 -0.14 0.38zm0.43 -1.17l34.05 8.93 -0.07 0.2 -0.43 1.15 -33.97 -9.13 0.43 -1.15zm34.05 8.93l-0.04 0.11 -0.03 0.09 0.07 -0.2zm-34.02 -9.01l0.13 -0.35 33.99 9.07 -0.1 0.29 -34.12 -8.72 0.1 -0.29zm0 0l0.03 -0.08 0.1 -0.27 -0.13 0.35zm0.46 -1.21l0.01 -0.03 33.85 9.45 -0.33 0.86 -33.86 -9.42 0.33 -0.86zm0 0l0.01 -0.03 0.24 -0.61 -0.25 0.65zm0.45 -1.17l0.23 -0.56 33.6 10.04 -0.44 1.13 -33.84 -9.48 0.44 -1.13zm0 0l0.09 -0.22 0.15 -0.34 -0.23 0.56zm0.38 -0.88l33.48 10.33 -0.11 0.27 -0.14 0.32 -33.37 -10.6 0.14 -0.32zm33.48 10.33l-0.06 0.14 -0.06 0.13 0.11 -0.27zm-32.8 -11.98l0.09 -0.23 33.51 10.29 -0.79 1.91 -33.6 -10.06 0.79 -1.91zm0 0l0.09 -0.23 0.06 -0.15 -0.15 0.38zm0.26 -0.62l0.06 -0.13 33.35 10.65 -0.17 0.39 -33.41 -10.52 0.17 -0.39zm0 0l0.06 -0.13 -0.2 0.46 0.14 -0.33zm0.38 -0.83l0.01 -0.01 33.28 10.79 -0.31 0.7 -33.29 -10.78 0.31 -0.7zm0 0l0.01 -0.01 -0.2 0.46 0.2 -0.45zm0.5 -1.12l0.09 -0.2 33.19 11 -0.5 1.1 -33.28 -10.8 0.5 -1.1zm0 0l0.09 -0.2 -0.04 0.09 -0.05 0.11zm0.3 -0.64l33.15 11.08 -0.06 0.12 -0.2 0.44 -33.1 -11.2 0.2 -0.44zm33.15 11.08l-0.06 0.12 0.1 -0.21 -0.04 0.09zm-32.91 -11.61l0.16 -0.34 33.05 11.3 -0.3 0.65 -33.21 -10.96 0.3 -0.65zm0 0l0.11 -0.23 0.05 -0.11 -0.16 0.34zm0.68 -1.4l0.09 -0.17 32.8 11.82 -0.52 1.06 -32.89 -11.65 0.52 -1.06zm0 0l0.03 -0.06 0.06 -0.11 -0.09 0.17zm0.33 -0.65l0.02 -0.04 32.7 12.03 -0.24 0.48 -32.72 -11.99 0.24 -0.48zm0 0l0.02 -0.04 -0.34 0.67 0.32 -0.63zm0.32 -0.62l0.1 -0.2 32.57 12.27 -0.3 0.58 -32.67 -12.07 0.3 -0.58zm0 0l0.1 -0.2 0.05 -0.1 -0.15 0.3zm0.94 -1.78l32.54 12.34 -0.07 0.14 -0.84 1.58 -32.47 -12.48 0.84 -1.58zm32.54 12.34l-0.07 0.14 -0.09 0.17 0.16 -0.3zm-32.34 -12.71l0.17 -0.32 32.43 12.53 -0.26 0.51 -32.61 -12.2 0.26 -0.51zm0 0l0.12 -0.23 0.05 -0.09 -0.17 0.32zm0.73 -1.35l0.15 -0.27 32.11 13.12 -0.56 1.02 -32.26 -12.85 0.56 -1.02zm0 0l0.02 -0.04 0.13 -0.23 -0.15 0.27zm0.49 -0.85l0 -0.01 31.96 13.39 -0.34 0.58 -31.96 -13.39 0.34 -0.58zm0.25 -0.44l0.15 -0.24 31.81 13.64 -0.25 0.43 -31.96 -13.4 0.25 -0.43zm0 0l0.01 -0.01 0.14 -0.23 -0.15 0.24zm1.13 -1.86l31.87 13.53 -0.21 0.36 -0.98 1.62 -31.66 -13.89 0.98 -1.62zm31.87 13.53l-0.1 0.17 -0.11 0.19 0.21 -0.36zm-31.87 -13.55l0.52 -0.84 31.56 14.01 -0.22 0.38 -32.08 -13.17 0.22 -0.38zm0 0l0.23 -0.42 0.28 -0.43 -0.52 0.84zm1.15 -1.8l31.24 14.56 -0.19 0.3 -0.63 0.96 -31.05 -14.86 0.63 -0.96zm31.24 14.56l-0.1 0.17 -0.09 0.14 0.19 -0.3zm-31.02 -14.91l0.44 -0.66 30.99 14.91 -0.41 0.65 -31.43 -14.25 0.41 -0.65zm0 0l0.21 -0.34 0.23 -0.32 -0.44 0.66zm0.65 -0.97l30.65 15.43 -0.1 0.14 -0.22 0.31 -30.56 -15.57 0.22 -0.31zm30.65 15.43l-0.1 0.14 -0.04 0.06 0.14 -0.2zm-30.1 -16.23l0.07 -0.11 30.68 15.4 -0.65 0.94 -30.75 -15.29 0.65 -0.94zm0 0l0.07 -0.11 0.22 -0.31 -0.3 0.43zm0.55 -0.8l30.66 15.43 -0.06 0.09 -0.48 0.68 -30.6 -15.52 0.48 -0.68zm30.66 15.43l-0.07 0.1 0.01 -0.01 0.06 -0.09zm-30.55 -15.59l0.34 -0.47 30.39 15.81 -0.18 0.26 -30.73 -15.34 0.18 -0.26zm0 0l0.14 -0.2 0.2 -0.27 -0.34 0.47zm1.02 -1.38l30.12 16.18 -0.07 0.1 -0.68 0.91 -30.04 -16.28 0.68 -0.91zm30.12 16.18l-0.07 0.1 0.17 -0.22 -0.09 0.13zm-29.67 -16.8l0.51 -0.65 29.68 16.74 -0.52 0.71 -30.19 -16.09 0.52 -0.71zm0 0l0.23 -0.31 0.28 -0.35 -0.51 0.65zm0.67 -0.85l29.47 17.01 -0.31 0.39 -0.16 0.19 -29.17 -17.4 0.16 -0.19zm29.47 17.01l-0.17 0.22 -0.14 0.17 0.31 -0.39zm-29.09 -17.52l0.3 -0.38 29.49 17 -0.69 0.89 -29.78 -16.62 0.69 -0.89zm0 0l0.19 -0.25 0.1 -0.13 -0.3 0.38zm0.9 -1.11l29.61 16.84 -0.42 0.54 -0.6 0.73 -29.19 -17.37 0.6 -0.73zm29.61 16.84l-0.19 0.26 -0.23 0.28 0.42 -0.54zm-29.93 -16.44l0.67 -0.83 29.36 17.13 -0.1 0.14 -30.03 -16.3 0.1 -0.14zm0 0l0.31 -0.41 0.36 -0.42 -0.67 0.83zm1.4 -1.67l28.81 17.83 -0.12 0.14 -0.73 0.84 -28.69 -17.97 0.73 -0.84zm28.81 17.83l-0.12 0.14 0.18 -0.2 -0.06 0.07zm-28.28 -18.46l1.28 -1.34 27.65 19.04 -0.65 0.77 -28.93 -17.69 0.65 -0.77zm0 0l0.6 -0.71 0.68 -0.63 -1.28 1.34zm1.37 -1.43l27.22 19.53 -0.84 0.85 -0.09 0.09 -26.38 -20.38 0.09 -0.09zm27.22 19.53l-0.43 0.46 -0.41 0.39 0.84 -0.85zm-27.79 -18.97l28.06 18.67 -0.01 0.01 -0.26 0.28 -28.05 -18.68 0.26 -0.28zm28.06 18.67l-0.01 0.01 0.38 -0.42 -0.37 0.4zm-26.87 -19.97l29.77 16.45 -1.69 2.21 -1.21 1.31 -28.07 -18.66 1.21 -1.31zm29.77 16.45l-0.73 1.17 -0.96 1.05 1.69 -2.21zm-31.43 -14.28l2.25 -2.79 29.21 17.02 -0.03 0.05 -31.46 -14.23 0.03 -0.05zm0 0l0.93 -1.49 1.31 -1.3 -2.25 2.79zm3.03 -3.56l27.16 19.6 -0.2 0.2 -0.78 0.77 -26.96 -19.81 0.78 -0.77zm27.16 19.6l-0.08 0.09 -0.13 0.12 0.2 -0.2zm-26.59 -20.2l2.58 -2.15 24.78 21.55 -0.78 0.8 -27.37 -19.4 0.78 -0.8zm0 0l1.16 -1.19 1.42 -0.96 -2.58 2.15zm334.48 -227.16l27.15 5.29 -4.95 18.41 -331.89 225.01 -22.2 -23.7 331.89 -225.01zm0 0l17.48 -11.85 9.68 17.13 -27.15 -5.29zm-19.02 119.89l0.76 -0.49 2.64 -1.7 2.52 -1.79 2.39 -1.88 2.28 -1.97 2.16 -2.05 2.03 -2.15 1.92 -2.24 1.79 -2.33 1.67 -2.43 1.54 -2.5 1.41 -2.61 1.28 -2.7 1.14 -2.79 1 -2.9 0.85 -2.99 0.7 -3.1 0.55 -3.2 0.38 -3.28 0.22 -3.4 0.04 -3.5 -0.14 -3.6 -0.31 -3.69 -0.51 -3.79 -0.71 -3.9 -0.91 -3.98 -1.12 -4.08 -1.34 -4.18 -1.55 -4.27 -1.79 -4.36 -2.02 -4.45 -2.26 -4.54 -2.5 -4.61 32.1 -13.13 2.97 5.46 2.7 5.42 2.44 5.37 2.18 5.33 1.93 5.28 1.67 5.22 1.43 5.19 1.16 5.12 0.92 5.05 0.67 5.01 0.43 4.94 0.18 4.87 -0.06 4.8 -0.3 4.73 -0.54 4.65 -0.79 4.57 -1.01 4.47 -1.25 4.39 -1.47 4.29 -1.7 4.2 -1.92 4.07 -2.13 3.97 -2.36 3.85 -2.56 3.72 -2.77 3.59 -2.95 3.46 -3.15 3.32 -3.33 3.18 -3.5 3.03 -3.68 2.88 -3.84 2.72 -3.99 2.57 0.76 -0.49 -22.33 -23.62zm0 0l0.36 -0.24 0.4 -0.24 -0.76 0.49zm-253.05 212.14l-27.51 -5.78 5.18 -17.84 275.38 -188.51 22.33 23.62 -275.38 188.51zm0 0l-18.2 12.47 -9.3 -18.25 27.51 5.78zm-39.12 -28.58l2.18 -15.22 30.51 3.16 11.62 22.8 -32.69 12.06 -11.62 -22.8zm2.18 -15.22l18.42 -20.55 12.08 23.71 -30.51 -3.16zm28.18 18.55l-28.76 -17.87 0.44 -0.51 0.15 -0.17 28.33 18.39 -0.15 0.17zm-28.76 -17.87l0.23 -0.28 0.21 -0.23 -0.44 0.51zm14.6 8.68l0 0 0 0 0 0 14.6 8.68 -14.6 -8.68zm-14.6 -8.68l0.23 -0.28 0.21 -0.23 -0.44 0.51zm29.07 17.52l-0.44 0.51 -28.76 -17.87 0.13 -0.16 29.2 17.36 -0.13 0.16zm0 0l-0.23 0.28 -0.21 0.23 0.44 -0.51zm-0.59 0.68l-14.16 5.97 -14.16 -24.35 0.15 -0.17 28.33 18.39 -0.15 0.17zm0 0l-5.35 5.97 -8.81 0 14.16 -5.97zm-14.17 5.97l-14.42 -24.06 14.42 -6.26 0.01 0 0 30.32 -0.01 0zm-14.42 -24.06l5.33 -6.26 9.08 0 -14.42 6.26zm28.71 17.95l-0.06 0.07 -28.78 -17.86 0.13 -0.15 28.84 17.79 -0.13 0.15zm0 0l-0.06 0.07 -0.11 0.13 0.17 -0.19zm-0.2 0.23l-32.17 -8.97 3.45 -8.97 0.14 -0.17 28.72 17.93 -0.14 0.17zm-32.17 -8.97l0 -4.96 3.45 -4 -3.45 8.97zm35.62 0.02l-3.58 9.11 -32.04 -9.11 0 -0.02 35.62 0 0 0.02zm0 0l0 5.07 -3.58 4.05 3.58 -9.11zm-3.71 9.26l-29.15 -17.4 0.69 -0.83 0.13 -0.15 28.46 18.23 -0.13 0.15zm-29.15 -17.4l0.3 -0.39 0.39 -0.44 -0.69 0.83zm29.71 16.74l-3.93 3.65 -25.91 -20.21 0.13 -0.17 29.84 16.56 -0.13 0.17zm0 0l-1.61 2.1 -2.32 1.55 3.93 -3.65zm-3.95 3.66l-26.11 -19.93 4.14 -3.93 0.02 -0.01 21.97 23.86 -0.02 0.01zm-26.11 -19.93l1.67 -2.28 2.47 -1.65 -4.14 3.93zm30.14 16.15l-0.02 0.02 -30.23 -16.03 0.11 -0.15 30.25 16.01 -0.11 0.15zm0 0l-0.02 0.02 0.13 -0.17 -0.11 0.15zm-0.14 0.19l-30.97 -14.92 0.76 -1.13 0.13 -0.17 30.21 16.05 -0.13 0.17zm-30.97 -14.92l0.33 -0.55 0.43 -0.58 -0.76 1.13zm31.71 13.82l-1.09 1.58 -30.64 -15.36 0.02 -0.03 31.73 13.79 -0.02 0.03zm0 0l-0.48 0.81 -0.61 0.77 1.09 -1.58zm-1.2 1.71l-29.69 -16.75 0.15 -0.19 0.11 -0.14 29.54 16.94 -0.11 0.14zm-29.69 -16.75l0.15 -0.19 -0.13 0.16 -0.02 0.03zm29.71 16.74l-0.2 0.24 -29.64 -16.81 0.13 -0.17 29.84 16.56 -0.13 0.17zm0 0l-0.2 0.24 0.28 -0.35 -0.08 0.1zm-0.22 0.27l-30.5 -15.56 1.06 -1.5 0.02 -0.03 29.44 17.05 -0.02 0.03zm-30.5 -15.56l0.46 -0.75 0.6 -0.75 -1.06 1.5zm31.47 14.21l-0.48 0.73 -31.08 -14.79 0.09 -0.15 31.56 14.06 -0.09 0.15zm0 0l-0.23 0.38 -0.24 0.35 0.48 -0.73zm-0.6 0.9l-31.03 -14.87 0.43 -0.64 0.12 -0.17 30.6 15.52 -0.12 0.17zm-31.03 -14.87l0.19 -0.31 0.23 -0.33 -0.43 0.64zm31.43 14.28l-0.65 0.96 -30.81 -15.19 0.03 -0.05 31.46 14.23 -0.03 0.05zm0 0l-0.32 0.51 -0.33 0.45 0.65 -0.96zm-0.75 1.09l-30.57 -15.55 0.41 -0.59 0.1 -0.13 30.16 16.14 -0.1 0.13zm-30.57 -15.55l0.26 -0.38 0.15 -0.21 -0.41 0.59zm30.86 15.13l-31.51 -14.11 0.53 -0.85 0.11 -0.17 30.98 14.96 -0.11 0.17zm-31.51 -14.11l0.24 -0.42 0.29 -0.43 -0.53 0.85zm32.01 13.29l-0.15 0.27 -31.88 -13.52 0.02 -0.04 32.04 13.25 -0.02 0.04zm0 0l-0.14 0.24 -0.02 0.03 0.15 -0.27zm-0.24 0.41l-0.25 0.4 -31.48 -14.19 0.09 -0.14 31.73 13.79 -0.09 0.14zm0 0l-0.09 0.15 -0.17 0.25 0.25 -0.4zm-0.36 0.57l-32.75 -11.43 1.52 -3.15 0.11 -0.18 31.23 14.58 -0.11 0.18zm-32.75 -11.43l0.55 -1.65 0.97 -1.5 -1.52 3.15zm34.25 8.33l-1.41 2.98 -32.86 -11.25 0.02 -0.05 34.27 8.28 -0.02 0.05zm0 0l-0.52 1.56 -0.89 1.42 1.41 -2.98zm-1.49 3.11l-31.63 -13.95 0.17 -0.28 0.09 -0.14 31.46 14.23 -0.09 0.14zm-31.63 -13.95l0.07 -0.11 0.1 -0.17 -0.17 0.28zm31.69 13.86l-1.37 1.93 -30.43 -15.6 0.11 -0.18 31.8 13.67 -0.11 0.18zm0 0l-0.59 0.98 -0.79 0.94 1.37 -1.93zm-1.4 1.96l-31.02 -14.5 1.96 -3.03 0.03 -0.03 29.05 17.53 -0.03 0.03zm-31.02 -14.5l0.77 -1.6 1.2 -1.43 -1.96 3.03zm32.91 11.61l-0.52 0.98 -32.46 -12.44 0.07 -0.14 32.98 11.46 -0.07 0.14zm0 0l-0.22 0.44 -0.31 0.54 0.52 -0.98zm-0.63 1.16l-0.75 1.16 -31.19 -14.58 0.1 -0.18 31.93 13.42 -0.1 0.18zm0 0l-0.36 0.63 -0.38 0.54 0.75 -1.16zm-0.77 1.2l-31.9 -13.19 1.46 -2.56 0.03 -0.04 30.44 15.74 -0.03 0.04zm-31.9 -13.19l0.59 -1.34 0.87 -1.21 -1.46 2.56zm33.29 10.78l-0.54 1.09 -32.82 -11.73 0.06 -0.14 33.36 10.63 -0.06 0.14zm0 0l-0.24 0.54 -0.3 0.55 0.54 -1.09zm-0.64 1.27l-0.84 1.35 -31.44 -14.17 0.1 -0.18 32.28 12.82 -0.1 0.18zm0 0l-0.39 0.71 -0.45 0.64 0.84 -1.35zm-0.88 1.41l-32.12 -12.74 1.52 -2.78 0.04 -0.06 30.6 15.52 -0.04 0.06zm-32.12 -12.74l0.6 -1.46 0.92 -1.32 -1.52 2.78zm33.59 10.09l-0.78 1.6 -32.86 -11.56 0.05 -0.13 33.64 9.96 -0.05 0.13zm0 0l-0.33 0.8 -0.45 0.8 0.78 -1.6zm-0.88 1.77l-33.08 -10.99 1 -2.17 0.1 -0.17 32.08 13.16 -0.1 0.17zm-33.08 -10.99l0.39 -1.1 0.61 -1.08 -1 2.17zm34.06 8.89l-0.65 1.53 -33.43 -10.34 0.03 -0.08 34.09 8.81 -0.03 0.08zm0 0l-0.27 0.76 -0.38 0.77 0.65 -1.53zm-0.72 1.65l-32.86 -11.7 0.08 -0.16 0.06 -0.13 32.78 11.86 -0.06 0.13zm-32.86 -11.7l0 0 0.08 -0.16 -0.08 0.16zm32.85 11.72l-33.51 -10.18 0.57 -1.37 0.09 -0.18 32.94 11.54 -0.09 0.18zm-33.51 -10.18l0.24 -0.68 0.33 -0.69 -0.57 1.37zm34.06 8.89l-0.1 0.27 -33.98 -9.08 0.03 -0.08 34.09 8.81 -0.03 0.08zm0 0l-0.1 0.27 0.11 -0.29 -0.01 0.02zm-0.15 0.39l-0.63 1.42 -33.25 -10.77 0.05 -0.12 33.88 9.35 -0.05 0.12zm0 0l-0.29 0.76 -0.34 0.67 0.63 -1.42zm-0.72 1.6l-32.7 -12.03 0.08 -0.17 0.09 -0.18 32.62 12.19 -0.09 0.18zm-32.7 -12.03l0.08 -0.17 0.09 -0.18 -0.17 0.34zm32.74 11.93l-33.63 -9.73 0.85 -2.13 0.03 -0.07 32.78 11.86 -0.03 0.07zm-33.63 -9.73l0.33 -1.08 0.52 -1.05 -0.85 2.13zm34.44 7.74l-0.47 1.29 -34.02 -8.9 0.04 -0.13 34.48 7.6 -0.04 0.13zm0 0l-0.2 0.65 -0.27 0.64 0.47 -1.29zm-0.54 1.47l-33.99 -8.99 0.44 -1.2 0.07 -0.18 33.55 10.19 -0.07 0.18zm-33.99 -8.99l0.19 -0.61 0.24 -0.59 -0.44 1.2zm34.4 7.88l-0.69 1.77 -33.73 -9.56 0.03 -0.09 34.43 7.79 -0.03 0.09zm0 0l-0.28 0.89 -0.42 0.88 0.69 -1.77zm-0.75 1.88l-33.29 -10.76 0.26 -0.57 0.05 -0.11 33.04 11.33 -0.05 0.11zm-33.29 -10.76l0.1 -0.25 0.15 -0.32 -0.26 0.57zm33.48 10.37l-34.15 -8.41 0.6 -1.78 0.07 -0.18 33.55 10.19 -0.07 0.18zm-34.15 -8.41l0.24 -0.92 0.36 -0.86 -0.6 1.78zm34.73 6.73l-0.69 1.98 -34.07 -8.6 0.03 -0.11 34.76 6.63 -0.03 0.11zm0 0l-0.27 1.01 -0.42 0.97 0.69 -1.98zm-0.73 2.07l-33.75 -9.65 0.37 -0.93 0.04 -0.09 33.38 10.58 -0.04 0.09zm-33.75 -9.65l0.15 -0.43 0.22 -0.5 -0.37 0.93zm34.05 8.91l-34.12 -8.72 0.07 -0.19 34.12 8.72 -0.07 0.19zm-0.03 0.1l-34.34 -8.04 0.22 -0.68 0.03 -0.1 34.12 8.72 -0.03 0.1zm-34.34 -8.04l0.13 -0.42 0.09 -0.26 -0.22 0.68zm34.52 7.45l-0.06 0.22 -34.49 -7.57 0.03 -0.1 34.55 7.35 -0.03 0.1zm0 0l-0.06 0.22 -0.02 0.06 0.08 -0.27zm-0.12 0.4l-34.47 -7.64 0.05 -0.14 0.06 -0.18 34.43 7.79 -0.06 0.18zm-34.47 -7.64l-0.03 0.09 0.07 -0.23 -0.05 0.14zm34.48 7.62l-0.52 1.44 -33.99 -8.94 0.03 -0.11 34.52 7.5 -0.03 0.11zm0 0l-0.22 0.73 -0.31 0.71 0.52 -1.44zm-0.56 1.52l-34.14 -8.43 0.67 -1.95 0.03 -0.08 33.47 10.38 -0.03 0.08zm-34.14 -8.43l0.26 -1 0.41 -0.96 -0.67 1.95zm34.75 6.68l-34.82 -6.39 0.02 -0.09 0.05 -0.2 34.8 6.48 -0.05 0.2zm-34.82 -6.39l0.02 -0.09 0.15 -0.6 -0.17 0.68zm34.81 6.42l-0.49 1.56 -34.35 -7.87 0.03 -0.11 34.84 6.31 -0.03 0.11zm0 0l-0.2 0.82 -0.28 0.74 0.49 -1.56zm-0.52 1.63l-34.3 -8.04 0.44 -1.38 0.03 -0.07 33.86 9.43 -0.03 0.07zm-34.3 -8.04l0.19 -0.73 0.25 -0.65 -0.44 1.38zm34.69 6.85l-34.79 -6.48 0.05 -0.18 0.05 -0.19 34.75 6.66 -0.05 0.19zm-34.79 -6.48l0.05 -0.18 -0.02 0.1 -0.02 0.08zm34.81 6.42l-34.94 -5.87 0.1 -0.43 0.03 -0.11 34.84 6.31 -0.03 0.11zm-34.94 -5.87l0.03 -0.16 0.07 -0.27 -0.1 0.43zm35.02 5.52l-0.17 0.71 -34.87 -6.15 0.02 -0.08 35.04 5.44 -0.02 0.08zm0 0l-0.08 0.37 -0.09 0.34 0.17 -0.71zm-0.22 0.89l-34.81 -6.44 0.11 -0.42 0.05 -0.19 34.7 6.85 -0.05 0.19zm-34.81 -6.44l0.03 -0.15 0.07 -0.27 -0.11 0.42zm34.89 6.14l-0.09 0.34 -34.83 -6.36 0.03 -0.12 34.92 6.02 -0.03 0.12zm0 0l0 0 -0.09 0.34 0.09 -0.34zm-0.11 0.43l-34.89 -6.05 0.16 -0.66 0.02 -0.09 34.73 6.71 -0.02 0.09zm-34.89 -6.05l0.06 -0.31 0.1 -0.35 -0.16 0.66zm35.01 5.57l-35.14 -4.91 0.09 -0.47 0.04 -0.19 35.05 5.38 -0.04 0.19zm-35.14 -4.91l0.04 -0.24 0.05 -0.23 -0.09 0.47zm35.21 4.57l-0.39 1.62 -34.85 -6.06 0.02 -0.13 35.24 4.44 -0.02 0.13zm0 0l-0.14 0.83 -0.24 0.79 0.39 -1.62zm-0.41 1.69l-34.83 -6.15 0.37 -1.52 0.02 -0.07 34.46 7.67 -0.02 0.07zm-34.83 -6.15l0.14 -0.77 0.23 -0.75 -0.37 1.52zm35.17 4.82l-35.2 -4.63 0.03 -0.19 35.2 4.63 -0.03 0.19zm-0.02 0.13l-0.18 0.84 -35.02 -5.47 0.02 -0.13 35.2 4.63 -0.02 0.13zm0 0l-0.07 0.4 -0.11 0.44 0.18 -0.84zm-0.2 0.91l-35.09 -5.04 0.26 -1.27 0.02 -0.07 34.84 6.31 -0.02 0.07zm-35.09 -5.04l0.09 -0.59 0.17 -0.68 -0.26 1.27zm35.32 3.96l-0.03 0.16 -35.32 -3.93 0.03 -0.19 35.35 3.77 -0.03 0.19zm0 0l-0.03 0.16 0.06 -0.39 -0.03 0.23zm-0.05 0.3l-35.3 -4.01 0.01 -0.07 0.02 -0.14 35.29 4.09 -0.02 0.14zm-35.3 -4.01l0.01 -0.07 0 0 -0.01 0.07zm35.3 4.01l-35.35 -3.73 0.03 -0.2 0.01 -0.07 35.32 3.94 -0.01 0.07zm-35.35 -3.73l0.03 -0.2 -0.06 0.37 0.02 -0.17zm35.34 3.86l-0.19 1.05 -35.19 -4.58 0.05 -0.33 35.38 3.53 -0.05 0.33zm0 0l-0.07 0.48 -0.13 0.57 0.19 -1.05zm-0.2 1.1l-35.22 -4.29 0.23 -1.35 0.01 -0.05 35 5.64 -0.01 0.05zm-35.22 -4.29l0.07 -0.67 0.15 -0.68 -0.23 1.35zm35.43 3.14l-0.02 0.14 -35.43 -3.07 0.02 -0.2 35.45 2.94 -0.02 0.2zm0 0l0 0 -0.02 0.14 0.02 -0.14zm-0.03 0.27l-0.21 1.21 -35.21 -4.42 0.02 -0.14 35.42 3.21 -0.02 0.14zm0 0l-0.07 0.6 -0.14 0.61 0.21 -1.21zm-0.22 1.26l-35.26 -3.98 0.26 -1.65 0.01 -0.05 35 5.64 -0.01 0.05zm-35.26 -3.98l0.07 -0.8 0.19 -0.85 -0.26 1.65zm35.5 2.52l-35.54 -2.05 0.02 -0.28 0.02 -0.19 35.52 2.33 -0.02 0.19zm-35.54 -2.05l0.01 -0.12 0.02 -0.16 -0.02 0.28zm35.55 1.94l-35.59 -0.89 0.03 -0.89 0.01 -0.17 35.57 1.78 -0.01 0.17zm-35.59 -0.89l0 -0.48 0.03 -0.41 -0.03 0.89zm35.62 0.05l-35.62 0 0 -0.05 35.62 0 0 0.05zm0 0.02l-35.58 0.98 -0.04 -0.98 0 -0.02 35.62 0 0 0.02zm-35.58 0.98l-0.04 -0.52 0 -0.46 0.04 0.98zm11.49 21.41l-2.75 -2.29 -0.52 -0.55 -0.47 -0.53 -0.42 -0.48 -0.51 -0.61 -0.48 -0.63 -0.39 -0.52 -0.4 -0.56 -0.39 -0.57 -0.41 -0.63 -0.33 -0.52 -0.35 -0.58 -0.35 -0.62 -0.34 -0.63 -0.32 -0.63 -0.24 -0.51 -0.26 -0.55 -0.28 -0.65 -0.27 -0.65 -0.25 -0.65 -0.22 -0.63 -0.18 -0.56 -0.18 -0.57 -0.18 -0.64 -0.17 -0.64 -0.16 -0.65 -0.12 -0.57 -0.14 -0.65 -0.11 -0.65 -0.09 -0.57 -0.09 -0.64 -0.07 -0.66 -0.05 -0.63 35.54 -1.96 0.01 0.08 0.01 0.03 0.01 0.06 0.02 0.13 0.01 0.05 0.01 0.05 0.03 0.13 0.01 0.05 0.01 0.06 0.02 0.06 0.03 0.13 0.05 0.12 0.02 0.06 0.01 0.03 0.01 0.02 0.02 0.02 0.05 0.11 0.07 0.15 0.01 0.03 0.01 0.02 0.02 0.03 0.04 0.06 0.06 0.1 0 0 0.04 0.06 0.03 0.05 0.06 0.09 -0.02 -0.02 -0.02 -0.03 0.09 0.1 0.04 0.04 0.01 0.01 -2.75 -2.29 -22.05 23.81zm0 0l-1.53 -1.02 -1.22 -1.28 2.75 2.29zm93.75 24.27l2.74 21.52 -24.79 2.28 -71.7 -48.08 22.05 -23.81 71.7 48.08zm0 0l14.28 9.57 -11.54 11.95 -2.74 -21.52zm-43.72 69.63l-25.05 2.11 -2.48 -21.35 46.46 -48.11 27.53 19.24 -46.46 48.11zm0 0l-11.29 11.7 -13.76 -9.59 25.05 -2.11zm-76.39 -33.68l-2.11 -1.74 24.69 -21.71 51.33 35.78 -22.58 23.45 -51.33 -35.78zm0 0l-1.13 -0.79 -0.98 -0.96 2.11 1.74z"/>
    </g>
    <path class="fil1" d="M3329.04 568.17c-10.55,36.44 3.09,38.33 38.01,65.93l353.69 257.33c58.48,37.81 54.84,103.82 21.73,161.81l-430.87 -313.61c-51.16,-59.54 -32.08,-149.8 17.45,-171.46z"/>
    <path class="fil0" d="M2148.42 865.74c41.74,-41.02 62.73,-94.93 62.73,-161.72 0,-67.03 -20.99,-120.46 -62.73,-160.54 -41.74,-40.31 -93.75,-60.58 -156,-61.06 -62.02,0 -114.26,20.04 -156.47,60.34 -42.7,40.56 -64.16,93.99 -64.16,160.54 0,66.31 20.99,120.22 62.73,161.72 41.74,41.74 93.98,62.5 156.72,62.5 62.97,0 115.45,-20.52 157.19,-61.78zm-156.48 186.3c-97.32,0 -179.85,-32.21 -248.07,-96.61 -68.22,-64.4 -102.33,-148.36 -102.33,-252.12 0,-103.76 33.64,-187.96 100.66,-252.36 67.02,-64.4 149.79,-96.37 248.54,-95.89 99.23,0 182.23,32.2 249.26,96.6 67.51,64.88 101.37,148.84 101.37,251.65 0,102.8 -33.86,186.53 -101.61,251.41 -67.74,64.88 -150.51,97.33 -247.83,97.33z"/>
    <path class="fil0" d="M2916.6 865.39c41.65,-40.94 62.59,-94.73 62.59,-161.37 0,-66.88 -20.94,-120.19 -62.59,-160.18 -41.65,-40.22 -93.54,-60.45 -155.66,-60.93 -61.88,0 -114,20 -156.12,60.21 -42.6,40.47 -64.03,93.78 -64.03,160.18 0,66.16 20.94,119.95 62.59,161.37 41.65,41.65 93.78,62.36 156.37,62.36 62.83,0 115.19,-20.47 156.84,-61.65zm-156.13 185.88c-97.11,0 -179.46,-32.13 -247.52,-96.4 -68.07,-64.26 -102.11,-148.03 -102.11,-251.56 0,-103.54 33.56,-187.55 100.44,-251.81 66.87,-64.26 149.46,-96.15 248,-95.68 99.01,0 181.83,32.13 248.71,96.39 67.36,64.73 101.15,148.51 101.15,251.09 0,102.58 -33.8,186.12 -101.39,250.85 -67.59,64.74 -150.18,97.11 -247.28,97.11z"/>
    <path class="fil0" d="M3827.61 1045.52l1.87 -587.26c0.96,-80.86 55.6,-108.62 129.73,-109.41l-1.87 596.67c-1.59,73.59 -44.43,101.56 -129.73,100z"/>
    <path class="fil0" d="M3828.64 143.98c-16.87,-16.4 -25.18,-36.36 -25.18,-59.88 0,-23.75 8.32,-43.47 25.18,-59.87 18.78,-16.15 39.92,-24.23 63.92,-24.23 23.99,0 45.14,7.84 63.19,23.52 18.3,15.92 27.32,36.11 27.32,60.58 0,24.47 -9.03,44.67 -27.32,60.59 -18.05,15.68 -39.2,23.52 -63.19,23.52 -24,0 -45.14,-8.08 -63.92,-24.23z"/>
    <path class="fil0" d="M4221.14 539.67c-41.1,40.87 -61.77,95.27 -61.77,163.47 0,67.94 21.86,120.93 65.34,158.94 43.72,38.01 95.27,57.03 155.14,57.03 59.87,0 110.95,-19.96 153,-59.88 39.91,-39.68 59.88,-91.95 59.88,-156.8 0,-64.86 -20.91,-118.33 -62.73,-159.9 -42.05,-41.58 -93.84,-62.72 -154.9,-63.2 -61.3,-0.47 -112.62,19.72 -153.96,60.34zm-192.26 -190.83c91.72,-1.17 129.07,45.46 129.07,121.94 21.85,-37.3 53.46,-66.05 95.27,-86.01 40.87,-22.1 86.48,-33.02 137.08,-33.02 92.9,0 171.54,32.31 235.69,97.17 64.39,64.15 96.46,147.78 96.46,250.67 0,102.87 -31.84,186.25 -95.75,250.41 -63.67,63.91 -142.55,95.99 -236.4,95.99 -50.6,0 -96.93,-9.98 -139.22,-29.94 -42.05,-19.96 -73.18,-47.99 -93.13,-83.63l0 422.91c-83.32,2.32 -126.05,-17.53 -129.05,-105.79l-0.02 -900.67z"/>
    <path class="fil0" d="M5302.39 859.23c42.77,-39.91 64.15,-93.61 64.15,-161.31 0,-67.72 -22.34,-121.17 -66.77,-160.14 -44.67,-38.96 -97.17,-58.68 -157.52,-59.15 -60.58,0 -111.19,20.19 -152.05,60.58 -40.87,39.91 -61.3,92.18 -61.3,157.28 0,64.86 20.9,118.32 62.72,159.89 41.82,41.82 93.37,62.73 154.67,62.73 61.3,0 113.33,-19.96 156.09,-59.88zm65.64 186.29l-0.06 -115.96c-20.91,34.93 -52.51,62.96 -94.8,84.34 -42.29,21.39 -88.38,32.08 -138.75,32.08 -92.19,0 -172.25,-32.32 -239.96,-96.94 -65.34,-64.39 -98.12,-148.02 -98.12,-250.41 0,-102.64 32.31,-186.04 96.7,-249.95 64.63,-64.14 145.17,-96.45 241.62,-96.93 48.23,0 94.8,9.98 139.22,29.94 43.72,21.86 75.08,49.89 94.09,84.34 -1.88,-79.64 51.21,-115.39 131.66,-117.18l-1.87 597.9c-0.96,83.32 -46.56,98.78 -129.72,98.77z"/>
    <path class="fil0" d="M1068.23 537.78c-44.41,39.41 -66.72,93.08 -66.72,160.75 0,67.67 21.37,121.33 63.87,161.23 42.74,39.89 94.74,59.83 155.76,59.83 61.26,0 112.55,-20.89 153.63,-62.68 41.79,-41.55 62.68,-94.74 62.68,-159.09 0,-64.59 -20.66,-117.06 -61.97,-157.91 -41.08,-40.84 -91.42,-61.02 -150.78,-60.55 -59.36,0 -111.6,19.47 -156.48,58.41zm-197.61 507.73l-0.19 -942.14c-0.63,-73.51 49.68,-100.49 129.65,-98.43l0 461.83c45.36,-76.22 123.23,-114.21 233.65,-114.21 96.17,0 176.19,32.06 240.06,96.17 64.11,63.4 96.17,146.74 96.17,249.8 0,102.81 -33.24,186.63 -99.49,250.98 -66.49,64.59 -145.8,96.88 -238.16,96.88 -49.15,0 -94.98,-10.69 -137.72,-32.05 -42.5,-21.38 -74.08,-49.39 -94.5,-84.3 -0.13,84.71 -47.79,117.37 -129.46,115.47z"/>
   </g>
   <g id="_2685471967088">
    <path class="fil1 str0" d="M124.62 14.63c116.46,0 261.39,84.7 261.39,248.83 0,178.22 -123.24,255.41 -261.39,255.41l196.83 -249.69 -196.83 -254.56z"/>
    <path class="fil1 str0" d="M124.62 527.48c116.46,0 261.39,84.7 261.39,248.82 0,178.22 -123.24,255.42 -261.39,255.42l196.83 -249.69 -196.83 -254.56z"/>
    <polygon class="fil1 str1" points="32.25,41.3 81.05,11.38 2.41,11.38 2.41,100.24 "/>
    <polygon class="fil1 str1" points="32.25,1005.59 81.05,1035.51 2.41,1035.51 2.41,946.65 "/>
   </g>
   <polygon class="fil1" points="577.83,529.89 711.17,136.42 314.79,529.35 709.87,926.66 "/>
  </g>
 </g>
</svg>
