<?xml version="1.0" encoding="UTF-8"?>
<!DOCTYPE svg PUBLIC "-//W3C//DTD SVG 1.1//EN" "http://www.w3.org/Graphics/SVG/1.1/DTD/svg11.dtd">
<!-- Creator: CorelDRAW 2018 (64-Bit Evaluation Version) -->
<svg xmlns="http://www.w3.org/2000/svg" xml:space="preserve" width="200.342mm" height="137.993mm" version="1.1" style="shape-rendering:geometricPrecision; text-rendering:geometricPrecision; image-rendering:optimizeQuality; fill-rule:evenodd; clip-rule:evenodd"
viewBox="0 0 11699.34 8058.36"
 xmlns:xlink="http://www.w3.org/1999/xlink">
 <defs>
  <style type="text/css">
   <![CDATA[
    .str0 {stroke:#5AEEBC;stroke-width:11.68;stroke-miterlimit:22.9256}
    .fil8 {fill:#3B9CFF}
    .fil5 {fill:#3B9CFF}
    .fil3 {fill:#e1f8ff}
    .fil12 {fill:#E7F2FC}
    .fil14 {fill:none}
    .fil2 {fill:#F3F6F9}
    .fil10 {fill:#5AEEBC}
    .fil6 {fill:#5AEEBC}
    .fil9 {fill:#3B9CFF;fill-rule:nonzero}
    .fil4 {fill:#3B9CFF;fill-rule:nonzero}
    .fil11 {fill:#5AEEBC;fill-rule:nonzero}
    .fil7 {fill:#5AEEBC;fill-rule:nonzero}
    .fil13 {fill:#3B9CFF;fill-opacity:0.600000}
    .fil1 {fill:#F3F6F9;fill-opacity:0.960784}
    .fil0 {fill:#FBF0C8}
   ]]>
  </style>
 </defs>
 <g id="Layer_x0020_1">
  <metadata id="CorelCorpID_0Corel-Layer"/>
  <path class="fil0" d="M9214.11 2816.23c-294.36,-17.5 -342.02,73.11 -352.52,296.71l2.25 4204.75c-3.39,290.77 71.02,423.54 283.43,439.31l1869.66 4.55c303.51,22.14 409.22,-148.85 401.86,-430.21l0 -4188.23c-3.87,-264.12 -98.65,-340.91 -344.82,-339.15l-214.32 210.75 -1420.07 5.79 -225.48 -204.26z"/>
  <path class="fil1" d="M11126.37 7846.4l-1901.1 9.65c-406.52,10.13 -459.86,-188.9 -449.81,-559.61l1.89 -4286.1c21.01,-154.14 95.43,-248.61 230.29,-275.52l234.1 -0.11c68.19,26.96 95.74,200.91 284.39,200.41l1248.62 0.23c186.3,-37.41 168.38,-188.21 295.47,-202.74l207.3 5.73c140.86,20.12 214.81,159.31 216.68,319.23l2.65 4394.32c0.14,237.76 -103.15,393.14 -370.48,394.5zm-2133.32 -5322.21c-255.52,40.39 -404.44,205.17 -398.76,550.28l-12.66 4457.38c-7.88,352.69 196.73,508.67 550.54,526.51l2068.54 -1.74c276.82,5.86 447.55,-124.27 486.61,-423.15l12.02 -4576.05c-6.31,-305.5 -254.88,-534.18 -547.9,-532.45l-2158.39 -0.79z"/>
  <path class="fil2" d="M8623.38 6669.75l-8129.85 0c-267.53,0 -486.37,-113.3 -486.37,-251.81l0 -47.46 -7.17 0 0 -355 8627.1 0 -1.28 225.52 -2.44 428.76z"/>
  <path class="fil2" d="M8627.1 6015.48l-7102.82 0c-60.92,-5.71 -122.79,-70.54 -122.79,-131.74l0 -5093.24c0,-370.86 5.87,-375.53 600.38,-375.53l7480.25 0c611.99,0 590.07,-1.59 590.08,372.74l0.06 1736.89 423.45 -0.86 6.42 -2077.76c0.75,-245.29 -193.8,-445.96 -430.69,-445.96l-8658.88 0c-236.89,0 -430.69,200.67 -430.69,445.96l0 5569.52 7645.24 0z"/>
  <path class="fil0" d="M1848.24 557.35l7777.22 -0.27c311.96,-0.01 306.27,2.7 306.6,312.83l1.75 1654.64 -852.26 -0.32c-225.2,-8.19 -469.61,104.36 -487.24,482.81l-7.98 2868.29 -6738.09 0c-297.98,0 -306.6,2.56 -306.6,-312.83l0 -4692.32c0,-315.38 5.13,-312.81 306.6,-312.83z"/>
  <path class="fil3" d="M2030.88 2592.36l2683.76 0c70.88,0 128.88,58 128.88,128.88l0 360.94c0,70.88 -57.99,128.88 -128.88,128.88l-2683.76 0c-70.88,0 -128.88,-58 -128.88,-128.88l0 -360.94c0,-70.88 58,-128.88 128.88,-128.88z"/>
  <path class="fil4" d="M2158.11 2942.49c-17.8,-18.24 -26.72,-40.26 -26.72,-66.06 0,-25.75 8.92,-47.77 26.72,-66.01 17.93,-18.24 40.31,-27.38 67.07,-27.38 26.81,0 49.01,10.2 66.72,30.59l-18.55 15.38c-13.76,-14.98 -30.24,-22.5 -49.44,-22.5 -19.25,0 -35.38,6.81 -48.43,20.44 -13.05,13.62 -19.56,30.1 -19.56,49.49 0,19.43 6.51,35.86 19.56,49.4 12.88,13.45 29.18,20.18 48.96,20.18 19.73,0 36.22,-7.78 49.44,-23.29l18.5 15.64c-17.67,20.74 -39.99,31.12 -66.93,31.12 -26.94,0 -49.4,-9.01 -67.33,-26.99zm245.85 -7.56c7.91,-7.38 11.87,-17.31 11.87,-29.84 0,-12.53 -4.13,-22.41 -12.35,-29.62 -8.26,-7.21 -17.98,-10.85 -29.14,-10.94 -11.21,0 -20.57,3.74 -28.13,11.21 -7.56,7.38 -11.33,17.05 -11.33,29.09 0,11.99 3.87,21.89 11.6,29.58 7.74,7.73 17.27,11.6 28.61,11.6 11.34,0 20.96,-3.7 28.87,-11.08zm36.13 31.91l-24 0 0 -18.9c-3.87,6.46 -9.72,11.64 -17.54,15.6 -7.83,3.95 -16.35,5.93 -25.67,5.93 -17.06,0 -31.87,-5.98 -44.39,-17.93 -12.08,-11.91 -18.15,-27.38 -18.15,-46.32 0,-18.99 5.98,-34.41 17.89,-46.24 11.95,-11.87 26.85,-17.84 44.7,-17.93 8.92,0 17.54,1.85 25.75,5.54 8.09,4.04 13.89,9.23 17.41,15.6l0 -18.51 24 0 0 123.15zm73 -168.24l0 45.09 25.84 0 0 21.36 -25.84 0 0 101.79 -24 0 0 -101.79 -22.15 0 0 -21.36 22.15 0 0 -45.09 24 0zm138.61 136.33c7.91,-7.38 11.87,-17.31 11.87,-29.84 0,-12.53 -4.13,-22.41 -12.35,-29.62 -8.26,-7.21 -17.98,-10.85 -29.14,-10.94 -11.21,0 -20.57,3.74 -28.13,11.21 -7.56,7.38 -11.33,17.05 -11.33,29.09 0,11.99 3.87,21.89 11.6,29.58 7.74,7.73 17.27,11.6 28.61,11.6 11.34,0 20.96,-3.7 28.87,-11.08zm36.13 31.91l-24 0 0 -18.9c-3.87,6.46 -9.72,11.64 -17.54,15.6 -7.83,3.95 -16.35,5.93 -25.67,5.93 -17.06,0 -31.87,-5.98 -44.39,-17.93 -12.08,-11.91 -18.15,-27.38 -18.15,-46.32 0,-18.99 5.98,-34.41 17.89,-46.24 11.95,-11.87 26.85,-17.84 44.7,-17.93 8.92,0 17.54,1.85 25.75,5.54 8.09,4.04 13.89,9.23 17.41,15.6l0 -18.51 24 0 0 123.15zm39.77 0l0 -190.12 24 0 0 190.12 -24 0zm149.21 -31.69c7.69,-7.56 11.56,-17.5 11.56,-29.8 0,-12.35 -3.87,-22.2 -11.56,-29.58 -7.69,-7.43 -17.27,-11.16 -28.74,-11.25 -11.43,0 -21.05,3.7 -28.83,11.12 -7.87,7.47 -11.83,17.31 -11.83,29.58 0,12.22 3.87,22.15 11.56,29.79 7.69,7.69 17.31,11.52 28.87,11.52 11.6,0 21.27,-3.78 28.96,-11.38zm-28.83 34.33c-17.93,0 -33.14,-5.93 -45.71,-17.8 -12.57,-11.87 -18.86,-27.34 -18.86,-46.45 0,-19.12 6.2,-34.64 18.55,-46.5 12.35,-11.87 27.6,-17.75 45.79,-17.67 18.28,0 33.58,5.93 45.93,17.8 12.44,11.95 18.68,27.42 18.68,46.37 0,18.94 -6.24,34.37 -18.72,46.32 -12.48,11.95 -27.73,17.93 -45.66,17.93zm123.89 -34.55c7.56,7.38 16.96,11.08 28.26,11.08 11.25,0 20.96,-3.7 29.14,-11.08 8.13,-7.38 12.22,-17.31 12.22,-29.84 0,-12.53 -3.95,-22.46 -11.87,-29.75 -7.91,-7.21 -17.53,-10.82 -28.87,-10.82 -11.34,0 -20.88,3.87 -28.61,11.6 -7.73,7.78 -11.6,17.71 -11.6,29.71 0,12.04 3.78,21.71 11.33,29.09zm26.33 70.41c29.19,0 43.82,-18.55 43.82,-55.6 0,-0.35 -0.09,-0.79 -0.26,-1.27l0 -1.67c-3.52,7.03 -9.32,12.57 -17.41,16.61 -8.09,4.04 -16.65,6.07 -25.79,6.07 -17.67,0 -32.53,-5.89 -44.52,-17.62 -12,-11.78 -18.02,-27.25 -18.02,-46.37 0,-19.17 6.16,-34.68 18.41,-46.5 12.26,-11.87 27.03,-17.84 44.17,-17.93 9.36,0 17.97,2.02 25.75,6.06 7.74,3.52 13.54,8.79 17.41,15.87l0 -19.29 24 0 0 104.47c0,53.49 -22.51,80.21 -67.55,80.12 -11.78,0.09 -22.55,-2.81 -32.35,-8.65 -9.76,-5.89 -17.54,-14.16 -23.29,-24.74 0.84,-0.18 4.35,-2.03 10.55,-5.5l9.49 -4.97c3.34,6.29 8.35,11.34 14.94,15.17 6.64,3.82 13.5,5.76 20.65,5.76z"/>
  <path class="fil5" d="M1992.3 1023.84l7542.7 0c49.76,0 90.46,40.7 90.46,90.46l0 1083.02c0,49.76 -40.7,90.46 -90.46,90.46l-7542.7 0c-49.76,0 -90.46,-40.7 -90.46,-90.46l0 -1083.02c0,-49.76 40.7,-90.46 90.46,-90.46z"/>
  <g id="_2097189059872">
   <path class="fil6 str0" d="M8939.71 1559.98l264.93 201.65 -28.43 7.06c-76.44,18.97 -156.05,-1.54 -211.61,-57.91 -39.76,-40.35 -61.79,-94.04 -62.01,-150.68 -0.57,-141.72 134.74,-242.84 271.01,-209.38l28.3 6.96 -262.19 202.29z"/>
   <path class="fil6 str0" d="M9288.98 1751.72l-262.19 -202.29 28.3 -6.95c136.27,-33.47 271.58,67.65 271.01,209.38 -0.23,56.64 -22.26,110.33 -62.02,150.68 -55.56,56.36 -135.17,76.87 -211.6,57.9l-28.43 -7.06 264.93 -201.65z"/>
  </g>
  <path class="fil7" d="M2317.88 1672.77l32.36 0c0.23,10.73 5.07,20.42 14.53,29.13 9.46,8.71 21.4,12.98 35.94,12.75 14.53,0 25.9,-3.23 34.14,-9.63 8.19,-6.41 13.1,-14.89 14.65,-25.33 1.79,-21.74 -11.71,-35.88 -40.55,-42.4l-30.75 -7.9c-38.76,-9.86 -58.15,-30.63 -58.15,-62.18 0,-19.56 7.61,-35.59 22.84,-48.05 14.65,-12.75 32.82,-19.09 54.4,-19.09 21.63,0 39.8,6.4 54.62,19.27 14.77,12.81 22.15,29.71 22.15,50.65l-32.19 0c0,-11.77 -4.15,-21.23 -12.51,-28.44 -8.54,-7.1 -18.98,-10.67 -31.38,-10.67 -12.34,0 -23.24,3.23 -32.59,9.69 -8.77,6.46 -13.15,14.89 -13.15,25.27 0,16.09 11.48,26.82 34.38,32.18l31.09 7.61c22.78,6.06 39.57,15.52 50.36,28.44 10.84,12.92 15.17,28.67 13.03,47.18 -2.13,18.58 -10.38,33.75 -24.68,45.68 -14.31,11.88 -32.88,17.83 -55.72,17.83 -22.84,0 -42.45,-7.04 -58.84,-21.17 -15.98,-14.6 -24,-31.56 -24,-50.82zm238.18 -18.63l0 87.16 -31.5 0 0 -249.54 31.5 0 0 112.2c4.38,-9 11.88,-15.92 22.49,-20.65 10.56,-4.73 20.82,-7.1 30.75,-7.1 20.42,0 36.51,6.34 48.22,19.09 11.71,12.75 17.48,30.23 17.24,52.55l0 93.45 -31.49 0 0 -91.37c0,-13.44 -3.58,-23.77 -10.67,-31.1 -6.86,-7.9 -16.38,-11.83 -28.55,-11.83 -12.17,0 -23.19,3.87 -33.11,11.66 -9.92,7.78 -14.88,19.61 -14.88,35.48zm280.97 45.57c10.1,-9.92 15.17,-22.96 15.17,-39.11 0,-16.21 -5.07,-29.13 -15.17,-38.82 -10.09,-9.75 -22.67,-14.65 -37.72,-14.77 -15,0 -27.63,4.85 -37.84,14.59 -10.32,9.81 -15.52,22.73 -15.52,38.82 0,16.04 5.08,29.08 15.17,39.11 10.1,10.1 22.73,15.11 37.9,15.11 15.23,0 27.92,-4.96 38.01,-14.94zm-37.84 45.05c-23.54,0 -43.49,-7.79 -59.99,-23.36 -16.5,-15.57 -24.75,-35.88 -24.75,-60.97 0,-25.09 8.13,-45.45 24.34,-61.02 16.21,-15.57 36.23,-23.31 60.11,-23.19 24,0 44.07,7.78 60.28,23.36 16.33,15.69 24.52,36 24.52,60.86 0,24.87 -8.19,45.11 -24.57,60.8 -16.39,15.69 -36.4,23.53 -59.93,23.53zm173.11 -122.93c-9.98,9.92 -15,23.13 -15,39.69 0,16.5 5.31,29.36 15.86,38.59 10.62,9.23 23.13,13.85 37.67,13.85 14.54,0 26.94,-4.85 37.15,-14.53 9.69,-9.64 14.53,-22.33 14.53,-38.07 0,-15.74 -5.07,-28.73 -15.23,-38.82 -10.21,-10.1 -22.78,-15.23 -37.61,-15.35 -14.89,-0.12 -27.34,4.79 -37.38,14.65zm-46.84 -42.17l31.5 0 0 25.44c5.3,-9.05 12.98,-16.04 23.13,-20.88 9.92,-5.37 20.99,-8.02 33.28,-8.02 22.55,0 41.65,7.84 57.22,23.59 15.63,15.57 23.42,35.88 23.42,60.86 0,24.98 -7.73,45.22 -23.24,60.8 -15.46,15.52 -34.61,23.31 -57.4,23.31 -12.29,0 -23.53,-2.42 -33.8,-7.27 -10.21,-4.85 -17.77,-11.65 -22.61,-20.3l0 102.68 -31.5 0 0 -240.2zm306.88 161.63l0 -238.46 140.86 0 0 30.11 -108.68 0 0 76.14 94.83 0 0 30.11 -94.83 0 0 71.99 112.13 0 0 30.11 -144.32 0zm236.04 0l-67.09 -161.63 33.11 0 49.15 121.37 48.86 -121.37 33.63 0 -97.66 161.63zm282.02 -81.28c0,7.15 -0.12,11.25 -0.34,12.4l-131.18 0c1.56,13.03 7.33,23.82 17.25,32.42 9.58,7.9 20.3,11.88 32.24,11.88 23.36,0 39.69,-8.36 49.04,-25.09 0.23,0 0.57,0.06 1.03,0.29 0.41,0.23 1.21,0.63 2.37,1.21 1.33,0.58 3.12,1.27 5.37,2.02 2.25,0.81 3.98,1.5 5.07,2.07l13.21 4.91c-6.63,13.61 -16.67,24.11 -30.11,31.49 -13.38,7.44 -28.15,11.14 -44.24,11.14 -23.13,0 -42.86,-7.79 -59.3,-23.42 -15.63,-15.63 -23.42,-36.11 -23.42,-61.32 0,-25.26 7.79,-45.51 23.31,-60.8 15.57,-15.23 35.24,-22.9 59.12,-23.01 23.88,0 43.15,7.73 57.8,23.13 15.17,15.34 22.79,35.59 22.79,60.68zm-47.18 -44.18c-9,-7.73 -20.19,-11.6 -33.46,-11.6 -13.33,0 -24.75,3.87 -34.33,11.6 -9.46,8.25 -15,18.98 -16.56,32.01l100.2 0c-1.56,-13.03 -6.86,-23.77 -15.86,-32.01zm118.71 66.68l0 58.78 -31.5 0 0 -161.63 31.5 0 0 36.46c7.9,-26.59 22.84,-39.91 44.93,-39.91 12.75,0 22.1,2.07 28.09,6.17l-4.91 29.53c-7.1,-3.75 -15.05,-5.59 -23.82,-5.59 -14.25,0 -25.15,6.8 -32.82,20.42 -7.67,13.67 -11.47,32.24 -11.47,55.77zm249.07 -102.85l-100.37 240.2 -32.94 0 33.92 -83.52 -64.72 -156.67 33.63 0 48.34 116.99 48.51 -116.99 33.63 0zm271.92 0l-59.82 161.63 -26.02 0 -43.96 -118.71 -42.57 118.71 -25.67 0 -61.55 -161.63 33.63 0 40.38 113.12 40.61 -113.12 30.4 0 40.55 113.12 40.38 -113.12 33.62 0zm64.9 74.47l0 87.16 -31.5 0 0 -249.54 31.5 0 0 112.2c4.38,-9 11.88,-15.92 22.49,-20.65 10.56,-4.73 20.82,-7.1 30.75,-7.1 20.42,0 36.51,6.34 48.22,19.09 11.71,12.75 17.48,30.23 17.24,52.55l0 93.45 -31.49 0 0 -91.37c0,-13.44 -3.58,-23.77 -10.67,-31.1 -6.86,-7.9 -16.38,-11.83 -28.55,-11.83 -12.17,0 -23.19,3.87 -33.11,11.66 -9.92,7.78 -14.88,19.61 -14.88,35.48zm321.41 5.88c0,7.15 -0.12,11.25 -0.34,12.4l-131.18 0c1.56,13.03 7.33,23.82 17.25,32.42 9.58,7.9 20.3,11.88 32.24,11.88 23.36,0 39.69,-8.36 49.04,-25.09 0.23,0 0.57,0.06 1.03,0.29 0.41,0.23 1.21,0.63 2.37,1.21 1.33,0.58 3.12,1.27 5.37,2.02 2.25,0.81 3.98,1.5 5.07,2.07l13.21 4.91c-6.63,13.61 -16.67,24.11 -30.11,31.49 -13.38,7.44 -28.15,11.14 -44.24,11.14 -23.13,0 -42.86,-7.79 -59.3,-23.42 -15.63,-15.63 -23.42,-36.11 -23.42,-61.32 0,-25.26 7.79,-45.51 23.31,-60.8 15.57,-15.23 35.24,-22.9 59.12,-23.01 23.88,0 43.15,7.73 57.8,23.13 15.17,15.34 22.79,35.59 22.79,60.68zm-47.18 -44.18c-9,-7.73 -20.19,-11.6 -33.46,-11.6 -13.33,0 -24.75,3.87 -34.33,11.6 -9.46,8.25 -15,18.98 -16.56,32.01l100.2 0c-1.56,-13.03 -6.86,-23.77 -15.86,-32.01zm118.71 66.68l0 58.78 -31.5 0 0 -161.63 31.5 0 0 36.46c7.9,-26.59 22.84,-39.91 44.93,-39.91 12.75,0 22.1,2.07 28.09,6.17l-4.91 29.53c-7.1,-3.75 -15.05,-5.59 -23.82,-5.59 -14.25,0 -25.15,6.8 -32.82,20.42 -7.67,13.67 -11.47,32.24 -11.47,55.77zm257.33 -22.49c0,7.15 -0.12,11.25 -0.34,12.4l-131.18 0c1.56,13.03 7.33,23.82 17.25,32.42 9.58,7.9 20.3,11.88 32.24,11.88 23.36,0 39.69,-8.36 49.04,-25.09 0.23,0 0.57,0.06 1.03,0.29 0.41,0.23 1.21,0.63 2.37,1.21 1.33,0.58 3.12,1.27 5.37,2.02 2.25,0.81 3.98,1.5 5.07,2.07l13.21 4.91c-6.63,13.61 -16.67,24.11 -30.11,31.49 -13.38,7.44 -28.15,11.14 -44.24,11.14 -23.13,0 -42.86,-7.79 -59.3,-23.42 -15.63,-15.63 -23.42,-36.11 -23.42,-61.32 0,-25.26 7.79,-45.51 23.31,-60.8 15.57,-15.23 35.24,-22.9 59.12,-23.01 23.88,0 43.15,7.73 57.8,23.13 15.17,15.34 22.79,35.59 22.79,60.68zm-47.18 -44.18c-9,-7.73 -20.19,-11.6 -33.46,-11.6 -13.33,0 -24.75,3.87 -34.33,11.6 -9.46,8.25 -15,18.98 -16.56,32.01l100.2 0c-1.56,-13.03 -6.86,-23.77 -15.86,-32.01z"/>
  <path class="fil3" d="M9094.78 4569.43l2091.2 0c29.78,0 54.15,24.36 54.15,54.15l0 721.99c0,29.78 -24.36,54.15 -54.15,54.15l-2091.2 0c-29.78,0 -54.15,-24.36 -54.15,-54.15l0 -721.99c0,-29.78 24.36,-54.15 54.15,-54.15z"/>
  <g id="_2097189061344">
   <g>
    <g>
     <path class="fil8" d="M9074.25 3713.13l200.79 152.84 -21.55 5.35c-57.93,14.38 -118.27,-1.17 -160.38,-43.89 -30.14,-30.58 -46.83,-71.27 -47,-114.19 -0.43,-107.41 102.12,-184.05 205.4,-158.68l21.45 5.27 -198.72 153.32z"/>
     <path id="1" class="fil9" d="M9272.05 3869.9l-200.79 -152.84 5.99 -7.87 200.79 152.84 -1.8 8.74 -4.19 -0.86zm5.99 -7.87l8.21 6.25 -10.02 2.49 1.8 -8.74zm-25.74 4.48l21.55 -5.35 2.38 9.6 -21.55 5.35 -2.38 -9.6zm-162.71 -35.62l7.04 -6.95 0 0 3.88 3.81 3.99 3.66 4.07 3.5 4.17 3.33 4.26 3.19 4.34 3.02 4.42 2.87 4.5 2.71 4.58 2.56 4.64 2.39 4.71 2.24 4.78 2.07 4.84 1.92 4.89 1.75 4.95 1.6 4.99 1.43 5.04 1.27 5.09 1.11 5.13 0.95 5.15 0.78 5.18 0.61 5.22 0.45 5.24 0.29 5.26 0.12 5.28 -0.05 5.28 -0.21 5.29 -0.38 5.31 -0.55 5.3 -0.72 5.3 -0.88 5.3 -1.06 5.29 -1.23 2.38 9.6 -5.58 1.3 -5.6 1.12 -5.61 0.94 -5.61 0.75 -5.61 0.58 -5.61 0.4 -5.6 0.22 -5.58 0.05 -5.57 -0.13 -5.55 -0.3 -5.52 -0.47 -5.51 -0.66 -5.47 -0.83 -5.43 -1 -5.39 -1.17 -5.35 -1.35 -5.31 -1.52 -5.25 -1.69 -5.2 -1.86 -5.14 -2.04 -5.07 -2.2 -5.02 -2.38 -4.93 -2.55 -4.86 -2.71 -4.78 -2.88 -4.7 -3.05 -4.61 -3.21 -4.53 -3.39 -4.43 -3.54 -4.33 -3.72 -4.22 -3.88 -4.12 -4.04 0 0zm-48.43 -117.65l9.89 -0.04 0 0 0.06 3.9 0.16 3.88 0.25 3.88 0.34 3.85 0.43 3.83 0.53 3.81 0.61 3.78 0.71 3.77 0.79 3.75 0.88 3.72 0.97 3.69 1.06 3.66 1.15 3.64 1.23 3.6 1.32 3.57 1.4 3.53 1.49 3.5 1.58 3.47 1.65 3.43 1.75 3.38 1.82 3.35 1.9 3.3 2 3.26 2.07 3.22 2.15 3.17 2.23 3.12 2.31 3.08 2.39 3.02 2.47 2.98 2.54 2.91 2.63 2.87 2.7 2.81 -7.04 6.95 -2.87 -2.98 -2.79 -3.04 -2.7 -3.1 -2.62 -3.15 -2.55 -3.22 -2.45 -3.26 -2.37 -3.32 -2.29 -3.37 -2.2 -3.42 -2.11 -3.46 -2.03 -3.52 -1.94 -3.55 -1.85 -3.6 -1.76 -3.65 -1.67 -3.67 -1.59 -3.72 -1.49 -3.77 -1.4 -3.8 -1.31 -3.83 -1.22 -3.86 -1.13 -3.9 -1.03 -3.92 -0.94 -3.94 -0.84 -3.98 -0.75 -4 -0.65 -4.03 -0.56 -4.05 -0.46 -4.08 -0.36 -4.09 -0.26 -4.1 -0.17 -4.12 -0.06 -4.14 0 0zm211.53 -163.51l-2.36 9.61 0 0 -9.4 -2.02 -9.37 -1.46 -9.33 -0.89 -9.27 -0.36 -9.19 0.18 -9.1 0.69 -8.98 1.19 -8.85 1.69 -8.71 2.17 -8.54 2.63 -8.34 3.08 -8.15 3.53 -7.92 3.96 -7.69 4.36 -7.42 4.77 -7.15 5.16 -6.85 5.54 -6.53 5.9 -6.21 6.25 -5.85 6.59 -5.49 6.92 -5.1 7.22 -4.7 7.53 -4.27 7.82 -3.84 8.09 -3.38 8.35 -2.9 8.61 -2.41 8.84 -1.9 9.07 -1.37 9.29 -0.82 9.48 -0.25 9.69 -9.89 0.04 0.26 -10.27 0.88 -10.08 1.45 -9.87 2.01 -9.65 2.57 -9.41 3.08 -9.16 3.59 -8.89 4.08 -8.61 4.55 -8.31 4.99 -8.02 5.43 -7.68 5.83 -7.35 6.23 -7 6.59 -6.64 6.94 -6.26 7.27 -5.88 7.59 -5.48 7.88 -5.06 8.15 -4.63 8.4 -4.19 8.64 -3.74 8.86 -3.27 9.06 -2.79 9.23 -2.29 9.4 -1.79 9.53 -1.27 9.66 -0.72 9.75 -0.19 9.84 0.38 9.9 0.95 9.93 1.54 9.96 2.14 0 0zm19.1 14.88l-21.45 -5.27 2.36 -9.61 21.45 5.27 1.84 8.72 -4.2 0.89zm2.36 -9.61l9.97 2.45 -8.13 6.28 -1.84 -8.72zm-202.92 154.2l198.72 -153.32 6.04 7.84 -198.72 153.32 -6.01 0.02 -0.02 -7.85zm0.02 7.85l-5.14 -3.91 5.12 -3.95 0.02 7.85z"/>
    </g>
    <g>
     <path class="fil10" d="M9338.97 3858.45l-198.71 -153.32 21.45 -5.27c103.28,-25.37 205.83,51.27 205.4,158.69 -0.17,42.93 -16.87,83.62 -47.01,114.2 -42.1,42.71 -102.44,58.26 -160.37,43.88l-21.55 -5.35 200.79 -152.83z"/>
     <path id="1" class="fil11" d="M9143.27 3701.21l198.71 153.32 -6.04 7.84 -198.71 -153.32 1.84 -8.72 4.2 0.89zm-6.04 7.84l-8.13 -6.28 9.97 -2.45 -1.84 8.72zm25.65 -4.38l-21.45 5.27 -2.36 -9.61 21.45 -5.27 2.36 9.61zm209.17 153.9l-9.89 -0.04 0 0 -0.25 -9.69 -0.82 -9.48 -1.37 -9.29 -1.9 -9.07 -2.4 -8.84 -2.9 -8.6 -3.38 -8.36 -3.84 -8.09 -4.27 -7.81 -4.7 -7.53 -5.1 -7.23 -5.5 -6.92 -5.86 -6.59 -6.2 -6.25 -6.53 -5.9 -6.86 -5.54 -7.15 -5.16 -7.43 -4.77 -7.68 -4.36 -7.93 -3.96 -8.15 -3.53 -8.35 -3.08 -8.54 -2.63 -8.71 -2.17 -8.85 -1.69 -8.98 -1.19 -9.1 -0.69 -9.19 -0.18 -9.27 0.36 -9.33 0.89 -9.37 1.46 -9.4 2.02 -2.36 -9.61 9.96 -2.14 9.93 -1.54 9.9 -0.95 9.84 -0.38 9.75 0.19 9.66 0.72 9.53 1.27 9.4 1.79 9.23 2.29 9.05 2.79 8.86 3.27 8.64 3.74 8.41 4.19 8.15 4.63 7.88 5.06 7.58 5.48 7.28 5.88 6.94 6.26 6.59 6.64 6.22 7 5.83 7.35 5.43 7.69 4.99 8.01 4.55 8.32 4.08 8.61 3.59 8.89 3.09 9.15 2.56 9.41 2.01 9.65 1.45 9.87 0.88 10.08 0.26 10.27 0 0zm-48.43 117.66l-7.04 -6.95 0 0 2.7 -2.81 2.63 -2.87 2.55 -2.91 2.47 -2.97 2.39 -3.02 2.31 -3.08 2.23 -3.12 2.15 -3.17 2.07 -3.22 2 -3.26 1.9 -3.3 1.82 -3.35 1.75 -3.38 1.66 -3.43 1.58 -3.46 1.49 -3.5 1.4 -3.54 1.32 -3.57 1.23 -3.6 1.14 -3.64 1.06 -3.67 0.97 -3.69 0.88 -3.71 0.79 -3.74 0.71 -3.77 0.61 -3.78 0.52 -3.81 0.43 -3.84 0.34 -3.85 0.25 -3.87 0.15 -3.88 0.06 -3.9 9.89 0.04 -0.06 4.13 -0.16 4.12 -0.26 4.11 -0.37 4.09 -0.46 4.07 -0.55 4.05 -0.66 4.03 -0.74 3.99 -0.84 3.99 -0.94 3.95 -1.04 3.92 -1.12 3.89 -1.21 3.86 -1.31 3.83 -1.4 3.8 -1.49 3.76 -1.58 3.72 -1.67 3.68 -1.76 3.64 -1.85 3.6 -1.94 3.55 -2.03 3.52 -2.11 3.46 -2.2 3.42 -2.29 3.37 -2.37 3.32 -2.45 3.26 -2.54 3.21 -2.62 3.16 -2.71 3.1 -2.79 3.04 -2.87 2.98 0 0zm-165.08 45.2l2.38 -9.6 0 0 5.29 1.23 5.3 1.06 5.3 0.88 5.3 0.72 5.31 0.55 5.29 0.38 5.28 0.21 5.28 0.05 5.26 -0.12 5.24 -0.29 5.22 -0.45 5.17 -0.61 5.16 -0.78 5.12 -0.94 5.08 -1.12 5.04 -1.27 4.99 -1.43 4.95 -1.59 4.89 -1.76 4.84 -1.91 4.78 -2.08 4.71 -2.23 4.64 -2.39 4.58 -2.56 4.5 -2.71 4.42 -2.87 4.34 -3.02 4.26 -3.18 4.17 -3.34 4.08 -3.5 3.98 -3.65 3.88 -3.81 7.04 6.95 -4.12 4.04 -4.23 3.88 -4.32 3.71 -4.43 3.55 -4.53 3.38 -4.61 3.21 -4.7 3.05 -4.78 2.88 -4.86 2.71 -4.93 2.55 -5.01 2.37 -5.07 2.21 -5.14 2.04 -5.2 1.86 -5.25 1.69 -5.31 1.52 -5.34 1.35 -5.4 1.17 -5.44 1 -5.47 0.83 -5.5 0.66 -5.52 0.47 -5.55 0.3 -5.57 0.13 -5.58 -0.05 -5.6 -0.22 -5.61 -0.4 -5.61 -0.58 -5.61 -0.75 -5.61 -0.94 -5.6 -1.12 -5.58 -1.3 0 0zm-19.17 -14.95l21.55 5.35 -2.38 9.6 -21.55 -5.35 -1.8 -8.74 4.19 -0.86zm-2.38 9.6l-10.02 -2.49 8.21 -6.25 1.8 8.74zm204.98 -153.69l-200.79 152.83 -5.99 -7.87 200.79 -152.83 6.01 0.02 -0.02 7.85zm0.02 -7.85l5.12 3.95 -5.14 3.91 0.02 -7.85z"/>
    </g>
   </g>
   <g>
    <path class="fil9" d="M9499.63 3737.5c-14.37,14.28 -21.59,33.29 -21.59,57.12 0,23.74 7.64,42.26 22.83,55.54 15.27,13.29 33.29,19.92 54.21,19.92 20.92,0 38.76,-6.97 53.46,-20.92 13.95,-13.86 20.92,-32.12 20.92,-54.79 0,-22.66 -7.31,-41.34 -21.92,-55.87 -14.69,-14.53 -32.79,-21.92 -54.13,-22.09 -21.41,-0.16 -39.35,6.9 -53.79,21.09zm-22.09 -60.68l0 36.61c7.64,-13.03 18.68,-23.08 33.29,-30.05 14.28,-7.73 30.21,-11.55 47.9,-11.55 32.46,0 59.94,11.29 82.35,33.96 22.5,22.41 33.71,51.63 33.71,87.58 0,35.95 -11.12,65.09 -33.46,87.5 -22.25,22.33 -49.81,33.54 -82.6,33.54 -17.68,0 -33.87,-3.49 -48.64,-10.46 -14.69,-6.97 -25.57,-16.77 -32.54,-29.22l0 105.21c0.75,26.99 -16.53,42.12 -45.33,42.56l0 -310.3c0.34,-30.29 20.4,-36.44 45.33,-35.38z"/>
    <path class="fil9" d="M9875.28 3854.61c14.94,-13.95 22.42,-32.71 22.42,-56.36 0,-23.66 -7.81,-42.34 -23.33,-55.96 -15.61,-13.61 -33.95,-20.5 -55.04,-20.67 -21.17,0 -38.85,7.06 -53.13,21.17 -14.28,13.95 -21.42,32.21 -21.42,54.95 0,22.67 7.31,41.34 21.92,55.87 14.61,14.61 32.63,21.92 54.05,21.92 21.42,0 39.6,-6.98 54.54,-20.92zm22.91 60.27l0 -35.7c-7.31,12.2 -18.35,22 -33.12,29.47 -14.77,7.47 -30.88,11.21 -48.48,11.21 -32.21,0 -60.18,-11.29 -83.85,-33.87 -22.83,-22.5 -34.28,-51.72 -34.28,-87.5 0,-35.86 11.29,-65 33.79,-87.33 22.58,-22.42 50.72,-33.71 84.42,-33.88 16.85,0 33.12,3.49 48.65,10.46 15.27,7.63 26.23,17.43 32.87,29.47 0.79,-27.46 17.75,-35.5 45.33,-34.95l0 193.12c-0.53,27.11 -17.26,38.54 -45.33,39.49z"/>
    <path class="fil9" d="M10373.07 3854.61c14.94,-13.95 22.41,-32.71 22.41,-56.36 0,-23.66 -7.8,-42.34 -23.32,-55.96 -15.61,-13.61 -33.96,-20.5 -55.04,-20.67 -21.17,0 -38.85,7.06 -53.13,21.17 -14.28,13.95 -21.41,32.21 -21.41,54.95 0,22.67 7.3,41.34 21.91,55.87 14.62,14.61 32.63,21.92 54.05,21.92 21.42,0 39.6,-6.98 54.54,-20.92zm22.91 60.27l0 -35.7c-7.3,12.2 -18.34,22 -33.12,29.47 -14.77,7.47 -30.88,11.21 -48.48,11.21 -32.21,0 -60.18,-11.29 -83.85,-33.87 -22.83,-22.5 -34.28,-51.72 -34.28,-87.5 0,-35.86 11.29,-65 33.79,-87.33 22.58,-22.42 50.72,-33.71 84.43,-33.88 16.85,0 33.12,3.49 48.64,10.46 15.28,7.63 26.23,17.43 32.87,29.47 0.8,-27.46 17.75,-35.5 45.33,-34.95l0 193.12c-0.53,27.11 -17.26,38.54 -45.33,39.49z"/>
    <path class="fil9" d="M11030.28 3854.61c14.94,-13.95 22.42,-32.71 22.42,-56.36 0,-23.66 -7.81,-42.34 -23.33,-55.96 -15.61,-13.61 -33.95,-20.5 -55.04,-20.67 -21.17,0 -38.85,7.06 -53.13,21.17 -14.28,13.95 -21.42,32.21 -21.42,54.95 0,22.67 7.31,41.34 21.92,55.87 14.61,14.61 32.63,21.92 54.05,21.92 21.41,0 39.6,-6.98 54.54,-20.92zm22.91 60.27l0 -35.7c-7.31,12.2 -18.35,22 -33.12,29.47 -14.78,7.47 -30.88,11.21 -48.48,11.21 -32.21,0 -60.19,-11.29 -83.85,-33.87 -22.83,-22.5 -34.28,-51.72 -34.28,-87.5 0,-35.86 11.29,-65 33.79,-87.33 22.58,-22.42 50.72,-33.71 84.42,-33.88 16.85,0 33.12,3.49 48.64,10.46 15.28,7.63 26.24,17.43 32.88,29.47 0.79,-27.46 17.75,-35.5 45.33,-34.95l0 193.12c-0.53,27.11 -17.26,38.54 -45.33,39.49z"/>
    <path class="fil9" d="M10015.93 3682.27l156.22 0 0 37.27 -141.04 152 141.04 0c-0.36,24.45 -12.56,42.51 -41.25,43.34l-163.55 0 0 -37.53 138.39 -151.75 -130.34 0c-0.75,-25.4 5.69,-42.67 40.53,-43.34z"/>
    <path class="fil9" d="M10669.89 3792.2l0 125.1c-27.63,1.19 -44.65,-5.15 -45.33,-38.34l0 -93.32c0,-19.26 -4.65,-34.12 -13.86,-44.66 -8.88,-10.96 -21.92,-16.44 -38.93,-16.44 -16.85,0 -31.46,5.73 -43.75,17.19 -12.37,11.45 -18.51,28.3 -18.51,50.47l0 87c-0.32,28.43 -18.37,37.26 -45.33,38.1l0 -192.18c0.2,-27.91 18.25,-39.78 45.33,-40.43l0 35.37c5.4,-11.12 14.2,-20.25 26.56,-27.31 12.95,-7.05 24.74,-10.87 35.28,-11.54 44.74,-2.74 74.38,12.95 88.83,46.99 16.19,-32.29 42.92,-48.48 80.36,-48.48 29.14,0 51.3,8.97 66.41,26.98 15.53,17.69 23.33,43.09 23.33,76.13l0 134.49c-26.9,-0.27 -44.97,-9.79 -45.33,-37.63l0 -93.53c0,-18.93 -4.73,-33.95 -14.11,-45.16 -10.13,-10.96 -23.82,-16.53 -41.01,-16.69 -17.1,-0.16 -31.38,5.98 -42.67,18.43 -11.37,12.46 -17.1,28.89 -17.27,49.48z"/>
    <path class="fil9" d="M11122.33 3915.26l0 -326.35c0.15,-23.33 19.65,-38.52 45.09,-39.89l0 321.02c0.05,26.09 -17.86,45.53 -45.09,45.22z"/>
    <path class="fil9" d="M11189.55 3915.26l0 -326.35c0.15,-23.33 19.65,-38.52 45.09,-39.89l0 321.02c0.05,26.09 -17.87,45.53 -45.09,45.22z"/>
   </g>
  </g>
  <path class="fil6" d="M9191.88 4997.28l1896.99 0c34.8,0 63.27,28.47 63.27,63.27l0 197.39c0,34.8 -28.47,63.27 -63.27,63.27l-1896.99 0c-34.8,0 -63.27,-28.47 -63.27,-63.27l0 -197.39c0,-34.8 28.47,-63.27 63.27,-63.27z"/>
  <path class="fil4" d="M9323.41 5132.2c-6.67,-6.12 -14.87,-9.18 -24.58,-9.18 -9.71,0 -18.13,3.7 -25.23,11.14 -7.1,7.43 -10.64,16.4 -10.64,26.92 0,10.52 3.54,19.46 10.64,26.83 7.1,7.34 15.42,11 24.94,11 9.54,0 17.29,-2.39 23.27,-7.15 5.73,-4.76 8.87,-11.26 9.37,-19.54l-28.15 0 0 -11.62 43.35 0c0,16.46 -4.06,29.13 -12.19,38.05 -8.34,8.68 -19.73,13.03 -34.1,13.03 -14.39,0 -26.4,-4.95 -36.04,-14.85 -9.64,-9.9 -14.44,-21.83 -14.44,-35.8 0,-14.06 4.81,-26.04 14.44,-35.94 9.64,-9.9 21.23,-14.85 34.77,-14.85 13.53,0 24.94,4.35 34.19,13.06l-9.61 8.89zm51.58 53.68l0 24.36 -13.06 0 0 -67 13.06 0 0 15.11c3.28,-11.03 9.47,-16.55 18.63,-16.55 5.28,0 9.16,0.86 11.64,2.56l-2.03 12.25c-2.94,-1.55 -6.24,-2.32 -9.87,-2.32 -5.91,0 -10.43,2.83 -13.61,8.47 -3.18,5.66 -4.76,13.37 -4.76,23.13zm106.67 -9.33c0,2.96 -0.05,4.66 -0.14,5.14l-54.38 0c0.65,5.4 3.04,9.87 7.15,13.44 3.97,3.28 8.41,4.93 13.36,4.93 9.69,0 16.46,-3.47 20.33,-10.41 0.09,0 0.24,0.03 0.43,0.12 0.16,0.09 0.5,0.26 0.98,0.5 0.55,0.24 1.29,0.53 2.22,0.84 0.93,0.34 1.65,0.62 2.11,0.86l5.47 2.03c-2.75,5.64 -6.91,9.99 -12.48,13.05 -5.55,3.09 -11.67,4.62 -18.34,4.62 -9.59,0 -17.76,-3.23 -24.58,-9.71 -6.48,-6.48 -9.71,-14.97 -9.71,-25.41 0,-10.48 3.22,-18.87 9.66,-25.2 6.45,-6.31 14.61,-9.5 24.51,-9.54 9.9,0 17.89,3.21 23.96,9.59 6.29,6.36 9.44,14.75 9.44,25.16zm-19.56 -18.32c-3.73,-3.21 -8.37,-4.81 -13.87,-4.81 -5.52,0 -10.26,1.6 -14.23,4.81 -3.92,3.42 -6.21,7.87 -6.86,13.27l41.54 0c-0.65,-5.41 -2.85,-9.85 -6.58,-13.27zm99.28 18.32c0,2.96 -0.05,4.66 -0.14,5.14l-54.38 0c0.65,5.4 3.04,9.87 7.15,13.44 3.97,3.28 8.41,4.93 13.36,4.93 9.69,0 16.46,-3.47 20.33,-10.41 0.09,0 0.24,0.03 0.43,0.12 0.16,0.09 0.5,0.26 0.98,0.5 0.55,0.24 1.29,0.53 2.22,0.84 0.93,0.34 1.65,0.62 2.11,0.86l5.47 2.03c-2.75,5.64 -6.91,9.99 -12.48,13.05 -5.55,3.09 -11.67,4.62 -18.34,4.62 -9.59,0 -17.76,-3.23 -24.58,-9.71 -6.48,-6.48 -9.71,-14.97 -9.71,-25.41 0,-10.48 3.22,-18.87 9.66,-25.2 6.45,-6.31 14.61,-9.5 24.51,-9.54 9.9,0 17.89,3.21 23.96,9.59 6.29,6.36 9.44,14.75 9.44,25.16zm-19.56 -18.32c-3.73,-3.21 -8.37,-4.81 -13.87,-4.81 -5.52,0 -10.26,1.6 -14.23,4.81 -3.92,3.42 -6.21,7.87 -6.86,13.27l41.54 0c-0.65,-5.41 -2.85,-9.85 -6.58,-13.27zm49.21 15.88l0 36.13 -13.06 0 0 -67 13.06 0 0 10.07c1.91,-3.73 4.78,-6.6 8.63,-8.56 3.82,-1.96 7.94,-2.94 12.32,-2.94 8.41,0 14.75,2.58 19.03,7.77 4.47,5.09 6.74,12.41 6.79,21.93l0 38.73 -13.06 0 0 -37.88c0,-5.64 -1.34,-10 -3.99,-13.03 -2.59,-3.18 -6.39,-4.75 -11.43,-4.75 -5.09,0 -9.42,1.65 -12.96,4.97 -3.56,3.3 -5.33,8.18 -5.33,14.56zm72.41 -27.41c4.47,-3.27 9.87,-4.9 16.23,-4.9 6.34,0 11.6,1.63 15.73,4.88 4.16,3.25 6.53,7.9 7.08,13.92l-12.46 0c-0.39,-2.17 -1.53,-3.92 -3.45,-5.23 -2.1,-1.29 -4.42,-1.94 -7,-1.94 -2.56,0 -4.74,0.55 -6.51,1.65 -1.92,0.86 -3.11,2.37 -3.64,4.47 -0.5,2.11 -0.43,3.78 0.22,5.02 1.08,2.15 3.71,3.82 7.9,5.02l9.87 2.42c11.6,2.84 17.38,9.37 17.38,19.58 0,6.05 -2.51,10.93 -7.55,14.68 -5.1,3.61 -11.05,5.41 -17.86,5.41 -6.84,0 -12.77,-1.96 -17.82,-5.91 -5.05,-3.92 -7.6,-9.13 -7.7,-15.66l12.34 0c0.55,3.47 2.32,6.03 5.33,7.66 2.91,1.84 6.07,2.65 9.47,2.46 3.4,-0.19 6.03,-1.1 7.9,-2.72 1.86,-1.65 2.91,-3.64 3.15,-5.98 0.19,-2.34 -0.53,-4.21 -2.18,-5.62 -1.62,-1.41 -3.87,-2.44 -6.72,-3.09l-9.19 -2.13c-6.48,-1.75 -11.26,-4.3 -14.32,-7.73 -2.94,-3.54 -4.16,-7.96 -3.64,-13.29 0.5,-5.33 2.99,-9.64 7.42,-12.96zm76.37 -28l0 24.53 14.06 0 0 11.62 -14.06 0 0 55.38 -13.06 0 0 -55.38 -12.05 0 0 -11.62 12.05 0 0 -24.53 13.06 0zm75.3 74.29c4.18,-4.12 6.29,-9.52 6.29,-16.21 0,-6.72 -2.11,-12.08 -6.29,-16.09 -4.19,-4.04 -9.4,-6.07 -15.64,-6.12 -6.22,0 -11.46,2.01 -15.69,6.05 -4.28,4.06 -6.44,9.42 -6.44,16.09 0,6.65 2.11,12.05 6.29,16.21 4.19,4.19 9.42,6.27 15.71,6.27 6.31,0 11.57,-2.06 15.76,-6.19zm-15.69 18.68c-9.76,0 -18.03,-3.23 -24.87,-9.69 -6.84,-6.45 -10.25,-14.87 -10.25,-25.27 0,-10.4 3.37,-18.84 10.09,-25.3 6.72,-6.45 15.01,-9.66 24.91,-9.61 9.95,0 18.27,3.23 24.99,9.68 6.77,6.51 10.16,14.92 10.16,25.23 0,10.31 -3.39,18.7 -10.18,25.2 -6.79,6.51 -15.09,9.76 -24.84,9.76zm65.4 -37.57l0 36.13 -13.06 0 0 -67 13.06 0 0 10.07c1.91,-3.73 4.78,-6.6 8.63,-8.56 3.82,-1.96 7.94,-2.94 12.32,-2.94 8.41,0 14.75,2.58 19.03,7.77 4.47,5.09 6.74,12.41 6.79,21.93l0 38.73 -13.06 0 0 -37.88c0,-5.64 -1.34,-10 -3.99,-13.03 -2.59,-3.18 -6.39,-4.75 -11.43,-4.75 -5.09,0 -9.42,1.65 -12.96,4.97 -3.56,3.3 -5.33,8.18 -5.33,14.56zm130.84 2.44c0,2.96 -0.05,4.66 -0.14,5.14l-54.38 0c0.65,5.4 3.04,9.87 7.15,13.44 3.97,3.28 8.41,4.93 13.36,4.93 9.69,0 16.46,-3.47 20.33,-10.41 0.09,0 0.24,0.03 0.43,0.12 0.16,0.09 0.5,0.26 0.98,0.5 0.55,0.24 1.29,0.53 2.22,0.84 0.93,0.34 1.65,0.62 2.11,0.86l5.47 2.03c-2.75,5.64 -6.91,9.99 -12.48,13.05 -5.55,3.09 -11.67,4.62 -18.34,4.62 -9.59,0 -17.76,-3.23 -24.58,-9.71 -6.48,-6.48 -9.71,-14.97 -9.71,-25.41 0,-10.48 3.22,-18.87 9.66,-25.2 6.45,-6.31 14.61,-9.5 24.51,-9.54 9.9,0 17.89,3.21 23.96,9.59 6.29,6.36 9.44,14.75 9.44,25.16zm-19.56 -18.32c-3.73,-3.21 -8.37,-4.81 -13.87,-4.81 -5.52,0 -10.26,1.6 -14.23,4.81 -3.92,3.42 -6.21,7.87 -6.86,13.27l41.54 0c-0.65,-5.41 -2.85,-9.85 -6.58,-13.27zm94.67 -46.84l34.84 72.57 34.89 -72.57 12.2 0 12.02 98.85 -13.15 0 -9.06 -74.32 -30.89 63.39 -11.77 0 -31.08 -63.39 -9.06 74.32 -13.15 0 12.03 -98.85 12.19 0zm159.2 81.49c4.3,-4.02 6.46,-9.42 6.46,-16.23 0,-6.81 -2.25,-12.19 -6.72,-16.12 -4.5,-3.92 -9.78,-5.9 -15.85,-5.95 -6.1,0 -11.19,2.03 -15.3,6.1 -4.11,4.02 -6.17,9.27 -6.17,15.83 0,6.53 2.11,11.91 6.31,16.09 4.21,4.21 9.4,6.31 15.57,6.31 6.17,0 11.4,-2.01 15.71,-6.03zm19.66 17.36l-13.06 0 0 -10.28c-2.1,3.52 -5.28,6.34 -9.54,8.49 -4.26,2.15 -8.9,3.23 -13.97,3.23 -9.27,0 -17.33,-3.25 -24.15,-9.76 -6.58,-6.48 -9.87,-14.9 -9.87,-25.2 0,-10.33 3.25,-18.72 9.73,-25.15 6.51,-6.46 14.61,-9.71 24.32,-9.76 4.86,0 9.54,1 14.02,3.01 4.4,2.2 7.56,5.02 9.47,8.49l0 -10.07 13.06 0 0 67zm21.64 0l0 -103.44 13.06 0 0 103.44 -13.06 0zm34.82 0l0 -103.44 13.06 0 0 103.44 -13.06 0z"/>
  <path class="fil4" d="M9176.62 4842.39l0 -141.73 82.49 0 0 17.9 -63.35 0 0 45.25 50.19 0 0 17.9 -50.19 0 0 60.68 -19.13 0zm104.39 -122.8c-2.43,-2.37 -3.63,-5.25 -3.63,-8.64 0,-3.43 1.2,-6.27 3.63,-8.64 2.71,-2.33 5.76,-3.5 9.23,-3.5 3.46,0 6.51,1.13 9.12,3.39 2.64,2.3 3.94,5.21 3.94,8.74 0,3.53 -1.3,6.45 -3.94,8.74 -2.6,2.27 -5.65,3.39 -9.12,3.39 -3.46,0 -6.52,-1.16 -9.23,-3.49zm18.58 122.8l-18.72 0 0 -96.06 18.72 0 0 96.06zm49.92 -51.8l0 51.8 -18.72 0 0 -96.06 18.72 0 0 14.44c2.74,-5.35 6.86,-9.47 12.37,-12.28 5.48,-2.81 11.38,-4.22 17.65,-4.22 12.07,0 21.16,3.7 27.29,11.14 6.41,7.3 9.66,17.79 9.73,31.44l0 55.54 -18.72 0 0 -54.3c0,-8.09 -1.92,-14.33 -5.72,-18.69 -3.7,-4.56 -9.15,-6.82 -16.39,-6.82 -7.31,0 -13.51,2.37 -18.58,7.13 -5.11,4.73 -7.64,11.73 -7.64,20.88zm163.43 26.81c6.24,-5.83 9.36,-13.58 9.36,-23.28 0,-9.71 -3.22,-17.38 -9.64,-23 -6.45,-5.62 -13.99,-8.47 -22.63,-8.54 -8.67,0 -15.94,2.91 -21.83,8.74 -5.9,5.9 -8.85,13.51 -8.85,22.9 0,9.36 2.98,17.04 8.95,22.97 5.97,5.96 13.34,8.95 22.11,8.95 8.78,0 16.29,-2.91 22.52,-8.74zm28.29 24.99l-18.72 0 0 -14.74c-3.02,5.04 -7.57,9.08 -13.68,12.17 -6.1,3.08 -12.79,4.63 -20.09,4.63 -13.33,0 -24.85,-4.66 -34.55,-13.99 -9.29,-9.29 -13.96,-21.36 -13.96,-36.14 0,-14.81 4.63,-26.85 13.85,-36.07 9.26,-9.26 20.74,-13.92 34.49,-13.99 7.4,0 14.16,1.44 20.19,4.32 6,2.88 10.59,6.96 13.75,12.18l0 -66.68 18.72 0 0 148.31zm142.9 0l-19.13 0 0 -65.17 -53.73 -76.56 22.9 0 40.39 57.36 40.9 -57.36 23 0 -54.34 76.56 0 65.17zm137.44 -24.72c6,-5.9 9.02,-13.64 9.02,-23.24 0,-9.64 -3.02,-17.31 -9.02,-23.07 -6,-5.8 -13.48,-8.71 -22.42,-8.78 -8.91,0 -16.42,2.88 -22.49,8.67 -6.14,5.83 -9.22,13.51 -9.22,23.07 0,9.53 3.01,17.28 9.02,23.25 6,6 13.51,8.98 22.52,8.98 9.05,0 16.59,-2.95 22.59,-8.88zm-22.49 26.77c-13.99,0 -25.85,-4.63 -35.65,-13.88 -9.8,-9.26 -14.71,-21.33 -14.71,-36.24 0,-14.91 4.84,-27.01 14.47,-36.27 9.63,-9.26 21.53,-13.85 35.72,-13.78 14.26,0 26.19,4.63 35.83,13.88 9.7,9.33 14.57,21.4 14.57,36.17 0,14.77 -4.87,26.81 -14.61,36.14 -9.73,9.33 -21.63,13.99 -35.62,13.99zm140.88 -46.25l0 -51.87 18.72 0 0 96.06 -18.72 0 0 -14.33c-2.74,5.28 -6.86,9.36 -12.37,12.17 -5.49,2.81 -11.32,4.22 -17.48,4.22 -11.9,0 -21.05,-3.74 -27.46,-11.24 -6.41,-7.51 -9.6,-17.93 -9.53,-31.27l0 -55.61 18.72 0 0 54.27c0,7.99 1.85,14.27 5.52,18.83 3.7,4.49 9.26,6.72 16.7,6.72 7.44,0 13.61,-2.33 18.58,-7.03 4.97,-4.7 7.4,-11.66 7.33,-20.92zm68.4 9.26l0 34.93 -18.72 0 0 -96.06 18.72 0 0 21.67c4.7,-15.8 13.57,-23.72 26.7,-23.72 7.57,0 13.13,1.23 16.7,3.67l-2.91 17.55c-4.22,-2.23 -8.95,-3.33 -14.16,-3.33 -8.47,0 -14.94,4.05 -19.5,12.14 -4.56,8.12 -6.82,19.16 -6.82,33.15zm110.87 -5.8l19.23 0c0.14,6.38 3.02,12.14 8.64,17.31 5.62,5.18 12.72,7.71 21.36,7.58 8.64,0 15.39,-1.92 20.3,-5.73 4.87,-3.8 7.78,-8.84 8.71,-15.05 1.06,-12.92 -6.96,-21.33 -24.1,-25.2l-18.27 -4.7c-23.04,-5.86 -34.56,-18.21 -34.56,-36.96 0,-11.62 4.53,-21.15 13.58,-28.56 8.71,-7.57 19.5,-11.35 32.33,-11.35 12.86,0 23.66,3.81 32.47,11.45 8.78,7.61 13.16,17.66 13.16,30.1l-19.13 0c0,-7 -2.46,-12.62 -7.44,-16.91 -5.07,-4.22 -11.28,-6.34 -18.65,-6.34 -7.34,0 -13.82,1.92 -19.37,5.76 -5.21,3.84 -7.82,8.85 -7.82,15.02 0,9.57 6.82,15.94 20.43,19.13l18.48 4.53c13.54,3.6 23.52,9.22 29.93,16.9 6.44,7.68 9.02,17.04 7.74,28.04 -1.27,11.04 -6.17,20.06 -14.67,27.15 -8.5,7.07 -19.55,10.59 -33.12,10.59 -13.57,0 -25.23,-4.18 -34.97,-12.58 -9.5,-8.68 -14.26,-18.76 -14.26,-30.21zm148.75 -90.51l0 35.18 20.16 0 0 16.66 -20.16 0 0 79.4 -18.72 0 0 -79.4 -17.28 0 0 -16.66 17.28 0 0 -35.18 18.72 0zm107.96 106.52c6,-5.9 9.02,-13.64 9.02,-23.24 0,-9.64 -3.02,-17.31 -9.02,-23.07 -6,-5.8 -13.48,-8.71 -22.42,-8.78 -8.91,0 -16.42,2.88 -22.49,8.67 -6.14,5.83 -9.22,13.51 -9.22,23.07 0,9.53 3.01,17.28 9.02,23.25 6,6 13.51,8.98 22.52,8.98 9.05,0 16.59,-2.95 22.59,-8.88zm-22.49 26.77c-13.99,0 -25.85,-4.63 -35.65,-13.88 -9.8,-9.26 -14.71,-21.33 -14.71,-36.24 0,-14.91 4.84,-27.01 14.47,-36.27 9.63,-9.26 21.53,-13.85 35.72,-13.78 14.26,0 26.19,4.63 35.83,13.88 9.7,9.33 14.57,21.4 14.57,36.17 0,14.77 -4.87,26.81 -14.61,36.14 -9.73,9.33 -21.63,13.99 -35.62,13.99zm93.77 -36.99l0 34.93 -18.72 0 0 -96.06 18.72 0 0 21.67c4.7,-15.8 13.57,-23.72 26.7,-23.72 7.57,0 13.13,1.23 16.7,3.67l-2.91 17.55c-4.22,-2.23 -8.95,-3.33 -14.16,-3.33 -8.47,0 -14.94,4.05 -19.5,12.14 -4.56,8.12 -6.82,19.16 -6.82,33.15zm152.94 -13.37c0,4.25 -0.07,6.69 -0.2,7.37l-77.96 0c0.92,7.75 4.35,14.16 10.25,19.27 5.69,4.7 12.07,7.06 19.17,7.06 13.88,0 23.59,-4.97 29.14,-14.91 0.13,0 0.34,0.04 0.62,0.18 0.24,0.13 0.72,0.37 1.4,0.72 0.79,0.34 1.85,0.75 3.19,1.2 1.34,0.48 2.37,0.89 3.02,1.24l7.85 2.91c-3.94,8.09 -9.9,14.33 -17.89,18.72 -7.95,4.43 -16.73,6.62 -26.3,6.62 -13.75,0 -25.47,-4.63 -35.24,-13.92 -9.29,-9.29 -13.92,-21.46 -13.92,-36.45 0,-15.01 4.63,-27.05 13.85,-36.14 9.26,-9.05 20.95,-13.61 35.14,-13.68 14.19,0 25.64,4.59 34.35,13.75 9.02,9.12 13.54,21.15 13.54,36.07zm-28.04 -26.26c-5.35,-4.6 -12,-6.89 -19.88,-6.89 -7.92,0 -14.71,2.29 -20.4,6.89 -5.62,4.9 -8.92,11.28 -9.84,19.03l59.55 0c-0.92,-7.75 -4.08,-14.13 -9.43,-19.03z"/>
  <path class="fil3" d="M9094.78 5755.63l2091.2 0c29.78,0 54.15,24.36 54.15,54.14l0 721.99c0,29.78 -24.36,54.15 -54.15,54.15l-2091.2 0c-29.78,0 -54.15,-24.37 -54.15,-54.15l0 -721.99c0,-29.78 24.36,-54.14 54.15,-54.14z"/>
  <path class="fil4" d="M9217.34 5883.47l-36.96 0 0 52.52 35.87 0c7.8,-0.06 13.76,-2.48 17.92,-7.29 4.12,-4.8 6.24,-11 6.31,-18.67 0,-7.66 -1.98,-14.07 -5.9,-19.18 -4.09,-4.93 -9.84,-7.39 -17.23,-7.39zm-55.97 123.04l0 -140.82 56.17 0c13.93,0 24.32,4.29 31.27,12.88 7.12,8.34 10.66,18.73 10.66,31.27 0,12.57 -3.54,23.03 -10.59,31.38 -7.08,8.38 -17.54,12.57 -31.41,12.57l-37.09 0 0 52.73 -19.01 0zm186.22 -24.56c5.96,-5.86 8.96,-13.55 8.96,-23.1 0,-9.57 -3,-17.2 -8.96,-22.92 -5.96,-5.76 -13.38,-8.65 -22.27,-8.72 -8.86,0 -16.32,2.86 -22.35,8.62 -6.1,5.79 -9.16,13.42 -9.16,22.93 0,9.47 3,17.17 8.96,23.1 5.96,5.96 13.42,8.92 22.38,8.92 8.99,0 16.49,-2.93 22.45,-8.82zm-22.34 26.61c-13.9,0 -25.68,-4.6 -35.43,-13.79 -9.74,-9.2 -14.61,-21.19 -14.61,-36.01 0,-14.82 4.8,-26.85 14.38,-36.04 9.57,-9.2 21.39,-13.76 35.49,-13.69 14.17,0 26.02,4.6 35.59,13.8 9.64,9.27 14.48,21.26 14.48,35.94 0,14.68 -4.84,26.63 -14.51,35.9 -9.68,9.27 -21.5,13.9 -35.39,13.9zm102.22 -72.59c-5.89,5.86 -8.85,13.66 -8.85,23.43 0,9.74 3.13,17.34 9.37,22.79 6.27,5.45 13.66,8.18 22.24,8.18 8.58,0 15.91,-2.86 21.94,-8.58 5.72,-5.69 8.58,-13.18 8.58,-22.48 0,-9.3 -3,-16.96 -8.99,-22.92 -6.03,-5.96 -13.46,-8.99 -22.21,-9.06 -8.79,-0.07 -16.15,2.83 -22.07,8.65zm-27.66 -24.91l18.6 0 0 15.03c3.13,-5.35 7.66,-9.47 13.66,-12.33 5.86,-3.17 12.4,-4.74 19.66,-4.74 13.31,0 24.59,4.64 33.79,13.93 9.23,9.2 13.83,21.19 13.83,35.94 0,14.75 -4.56,26.7 -13.72,35.9 -9.13,9.17 -20.44,13.76 -33.89,13.76 -7.26,0 -13.9,-1.43 -19.97,-4.29 -6.03,-2.86 -10.49,-6.88 -13.35,-11.99l0 60.63 -18.6 0 0 -141.85zm189.84 51.54l0 -51.54 18.6 0 0 95.45 -18.6 0 0 -14.24c-2.73,5.24 -6.81,9.3 -12.3,12.09 -5.45,2.79 -11.24,4.19 -17.37,4.19 -11.82,0 -20.92,-3.71 -27.28,-11.17 -6.37,-7.46 -9.54,-17.82 -9.47,-31.07l0 -55.26 18.6 0 0 53.92c0,7.94 1.84,14.17 5.48,18.7 3.68,4.46 9.2,6.67 16.59,6.67 7.39,0 13.52,-2.32 18.46,-6.98 4.94,-4.67 7.36,-11.58 7.29,-20.78zm49.36 43.91l0 -147.36 18.6 0 0 147.36 -18.6 0zm115.82 -24.73c6.13,-5.72 9.2,-13.42 9.2,-23.13 0,-9.71 -3.21,-17.37 -9.58,-22.96 -6.4,-5.59 -13.93,-8.41 -22.58,-8.49 -8.68,0 -15.94,2.9 -21.8,8.69 -5.86,5.72 -8.79,13.22 -8.79,22.55 0,9.3 3,16.96 8.99,22.93 5.99,6 13.38,8.99 22.17,8.99 8.79,0 16.25,-2.86 22.38,-8.58zm28 24.73l-18.59 0 0 -14.65c-3,5 -7.53,9.03 -13.59,12.09 -6.06,3.06 -12.67,4.6 -19.89,4.6 -13.22,0 -24.7,-4.63 -34.41,-13.9 -9.37,-9.23 -14.07,-21.22 -14.07,-35.9 0,-14.72 4.63,-26.67 13.86,-35.84 9.27,-9.2 20.81,-13.83 34.64,-13.9 6.92,0 13.59,1.43 19.97,4.29 6.27,3.14 10.76,7.15 13.49,12.09l0 -14.34 18.59 0 0 95.45zm49.43 -34.71l0 34.71 -18.6 0 0 -95.45 18.6 0 0 21.53c4.67,-15.7 13.49,-23.57 26.54,-23.57 7.53,0 13.05,1.23 16.59,3.65l-2.9 17.44c-4.19,-2.21 -8.89,-3.31 -14.07,-3.31 -8.41,0 -14.86,4.02 -19.38,12.06 -4.53,8.08 -6.78,19.04 -6.78,32.94zm110.16 -5.76l19.11 0c0.13,6.34 3,12.06 8.58,17.2 5.58,5.14 12.64,7.66 21.22,7.53 8.58,0 15.29,-1.91 20.16,-5.69 4.84,-3.78 7.73,-8.79 8.65,-14.96 1.05,-12.84 -6.92,-21.19 -23.95,-25.03l-18.16 -4.67c-22.89,-5.83 -34.34,-18.09 -34.34,-36.72 0,-11.55 4.5,-21.02 13.49,-28.38 8.65,-7.53 19.38,-11.27 32.12,-11.27 12.77,0 23.5,3.78 32.26,11.38 8.72,7.56 13.08,17.54 13.08,29.91l-19 0c0,-6.94 -2.45,-12.53 -7.39,-16.79 -5.05,-4.19 -11.21,-6.3 -18.53,-6.3 -7.29,0 -13.73,1.9 -19.25,5.72 -5.18,3.81 -7.77,8.79 -7.77,14.92 0,9.5 6.78,15.84 20.3,19l18.36 4.5c13.46,3.58 23.37,9.17 29.74,16.79 6.4,7.63 8.96,16.93 7.7,27.87 -1.26,10.97 -6.13,19.92 -14.58,26.98 -8.45,7.01 -19.42,10.52 -32.91,10.52 -13.49,0 -25.08,-4.16 -34.75,-12.5 -9.44,-8.62 -14.17,-18.63 -14.17,-30.01zm147.81 -89.93l0 34.94 20.03 0 0 16.56 -20.03 0 0 78.89 -18.6 0 0 -78.89 -17.17 0 0 -16.56 17.17 0 0 -34.94 18.6 0zm107.26 105.83c5.96,-5.86 8.96,-13.55 8.96,-23.1 0,-9.57 -3,-17.2 -8.96,-22.92 -5.96,-5.76 -13.38,-8.65 -22.27,-8.72 -8.86,0 -16.32,2.86 -22.35,8.62 -6.1,5.79 -9.16,13.42 -9.16,22.93 0,9.47 3,17.17 8.96,23.1 5.96,5.96 13.42,8.92 22.38,8.92 8.99,0 16.49,-2.93 22.45,-8.82zm-22.34 26.61c-13.9,0 -25.68,-4.6 -35.43,-13.79 -9.74,-9.2 -14.61,-21.19 -14.61,-36.01 0,-14.82 4.8,-26.85 14.38,-36.04 9.57,-9.2 21.39,-13.76 35.49,-13.69 14.17,0 26.02,4.6 35.59,13.8 9.64,9.27 14.48,21.26 14.48,35.94 0,14.68 -4.84,26.63 -14.51,35.9 -9.68,9.27 -21.5,13.9 -35.39,13.9zm93.17 -36.75l0 34.71 -18.6 0 0 -95.45 18.6 0 0 21.53c4.67,-15.7 13.49,-23.57 26.54,-23.57 7.53,0 13.05,1.23 16.59,3.65l-2.9 17.44c-4.19,-2.21 -8.89,-3.31 -14.07,-3.31 -8.41,0 -14.86,4.02 -19.38,12.06 -4.53,8.08 -6.78,19.04 -6.78,32.94zm151.95 -13.29c0,4.22 -0.06,6.65 -0.2,7.32l-77.46 0c0.92,7.7 4.33,14.07 10.18,19.14 5.65,4.67 11.99,7.02 19.04,7.02 13.79,0 23.43,-4.94 28.95,-14.82 0.13,0 0.34,0.03 0.61,0.17 0.24,0.13 0.71,0.37 1.4,0.71 0.78,0.34 1.84,0.75 3.17,1.19 1.33,0.48 2.35,0.89 3,1.23l7.8 2.9c-3.92,8.04 -9.85,14.24 -17.78,18.6 -7.91,4.4 -16.63,6.58 -26.13,6.58 -13.66,0 -25.31,-4.6 -35.02,-13.83 -9.23,-9.23 -13.83,-21.33 -13.83,-36.21 0,-14.92 4.6,-26.87 13.76,-35.9 9.2,-8.99 20.81,-13.52 34.92,-13.59 14.1,0 25.48,4.57 34.13,13.66 8.96,9.06 13.45,21.02 13.45,35.83zm-27.86 -26.09c-5.31,-4.57 -11.92,-6.85 -19.76,-6.85 -7.87,0 -14.62,2.28 -20.27,6.85 -5.59,4.87 -8.86,11.21 -9.78,18.9l59.17 0c-0.92,-7.7 -4.05,-14.03 -9.37,-18.9zm58.18 -16.42c6.37,-4.67 14.07,-6.98 23.13,-6.98 9.03,0 16.52,2.32 22.41,6.95 5.93,4.64 9.3,11.24 10.09,19.83l-17.75 0c-0.55,-3.1 -2.18,-5.58 -4.91,-7.46 -3,-1.84 -6.3,-2.76 -9.98,-2.76 -3.65,0 -6.74,0.79 -9.27,2.35 -2.73,1.23 -4.43,3.37 -5.18,6.37 -0.71,3 -0.61,5.38 0.31,7.15 1.53,3.07 5.28,5.45 11.24,7.15l14.07 3.44c16.52,4.05 24.77,13.35 24.77,27.9 0,8.62 -3.58,15.57 -10.77,20.92 -7.25,5.14 -15.74,7.7 -25.44,7.7 -9.74,0 -18.19,-2.79 -25.38,-8.41 -7.19,-5.58 -10.83,-13.01 -10.97,-22.31l17.58 0c0.78,4.94 3.31,8.58 7.6,10.9 4.15,2.62 8.65,3.78 13.49,3.51 4.84,-0.27 8.58,-1.57 11.24,-3.88 2.66,-2.35 4.15,-5.18 4.5,-8.51 0.27,-3.34 -0.75,-6 -3.1,-8.01 -2.32,-2.01 -5.52,-3.47 -9.57,-4.4l-13.08 -3.03c-9.23,-2.49 -16.05,-6.13 -20.4,-11 -4.19,-5.04 -5.93,-11.34 -5.18,-18.94 0.71,-7.6 4.26,-13.73 10.56,-18.47z"/>
  <g>
   <path class="fil6" d="M9446.49 6102.41c109.76,0 198.75,88.99 198.75,198.75 0,109.77 -88.99,198.75 -198.75,198.75 -109.77,0 -198.75,-88.99 -198.75,-198.75 0,-109.77 88.99,-198.75 198.75,-198.75z"/>
   <path class="fil6" d="M9933.97 6102.41c109.77,0 198.75,88.99 198.75,198.75 0,109.77 -88.99,198.75 -198.75,198.75 -109.76,0 -198.75,-88.99 -198.75,-198.75 0,-109.77 88.99,-198.75 198.75,-198.75z"/>
   <path class="fil6" d="M10421.46 6102.41c109.77,0 198.75,88.99 198.75,198.75 0,109.77 -88.99,198.75 -198.75,198.75 -109.77,0 -198.75,-88.99 -198.75,-198.75 0,-109.77 88.99,-198.75 198.75,-198.75z"/>
   <path class="fil6" d="M10908.94 6102.41c109.77,0 198.75,88.99 198.75,198.75 0,109.77 -88.99,198.75 -198.75,198.75 -109.77,0 -198.75,-88.99 -198.75,-198.75 0,-109.77 88.99,-198.75 198.75,-198.75z"/>
  </g>
  <path class="fil12" d="M6244.34 3540.19l0 902.17c0,40.01 -32.73,72.74 -72.74,72.74l-1954.89 0c-40.01,0 -72.74,-32.73 -72.74,-72.74l0 -902.17c0,-40.01 32.73,-72.74 72.74,-72.74l1954.89 0c40.01,0 72.74,32.74 72.74,72.74z"/>
  <path class="fil12" d="M6244.34 4712.21l0 902.17c0,40.01 -32.73,72.75 -72.74,72.75l-1954.89 0c-40.01,0 -72.75,-32.74 -72.75,-72.75l0 -902.17c0,-40.01 32.74,-72.75 72.75,-72.75l1954.89 0c40.01,0 72.74,32.74 72.74,72.75z"/>
  <path class="fil12" d="M4040.94 3540.19l0 902.17c0,40.01 -32.73,72.74 -72.74,72.74l-1954.89 0c-40.01,0 -72.75,-32.73 -72.75,-72.74l0 -902.17c0,-40.01 32.74,-72.74 72.75,-72.74l1954.89 0c40.01,0 72.74,32.74 72.74,72.74z"/>
  <g>
   <g>
    <path class="fil13" d="M2749.46 3858.96l1120.92 0c17.06,0 31,13.95 31,31l0 0.01c0,17.05 -13.94,31 -31,31l-1120.92 0c-17.06,0 -31,-13.95 -31,-31l0 -0.01c0,-17.05 13.94,-31 31,-31z"/>
    <path class="fil13" d="M2748.13 4057.81l1123.58 0c18.1,0 32.9,14.8 32.9,32.89l0 0.01c0,18.1 -14.8,32.89 -32.9,32.89l-1123.58 0c-18.1,0 -32.89,-14.79 -32.89,-32.89l0 -0.01c0,-18.1 14.79,-32.89 32.89,-32.89z"/>
   </g>
   <path class="fil6" d="M2575.43 4377.83l-425.16 0c-40.36,0 -73.38,-33.02 -73.38,-73.38l0 -626.34c0,-40.36 33.02,-73.38 73.38,-73.38l425.16 0c40.37,0 73.39,33.02 73.39,73.38l0 626.34c0,40.36 -33.02,73.38 -73.39,73.38z"/>
  </g>
  <g>
   <g>
    <path class="fil13" d="M4952.86 3858.96l1120.92 0c17.06,0 31,13.95 31,31l0 0.01c0,17.05 -13.94,31 -31,31l-1120.92 0c-17.06,0 -31,-13.95 -31,-31l0 -0.01c0,-17.05 13.94,-31 31,-31z"/>
    <path class="fil13" d="M4951.53 4057.81l1123.58 0c18.1,0 32.9,14.8 32.9,32.89l0 0.01c0,18.1 -14.8,32.89 -32.9,32.89l-1123.58 0c-18.1,0 -32.89,-14.79 -32.89,-32.89l0 -0.01c0,-18.1 14.79,-32.89 32.89,-32.89z"/>
   </g>
   <path class="fil6" d="M4778.83 4377.83l-425.16 0c-40.36,0 -73.38,-33.02 -73.38,-73.38l0 -626.34c0,-40.36 33.02,-73.38 73.38,-73.38l425.16 0c40.37,0 73.39,33.02 73.39,73.38l0 626.34c0,40.36 -33.02,73.38 -73.39,73.38z"/>
  </g>
  <path class="fil12" d="M4040.94 4712.21l0 902.17c0,40.01 -32.73,72.75 -72.74,72.75l-1954.89 0c-40.01,0 -72.74,-32.74 -72.74,-72.75l0 -902.17c0,-40.01 32.74,-72.74 72.74,-72.74l1954.89 0c40.01,0 72.74,32.73 72.74,72.74z"/>
  <path class="fil14" d="M6421.55 3468.18l1954.89 0c40.01,0 72.74,32.73 72.74,72.74l0 902.17c0,40.01 -32.73,72.74 -72.74,72.74l-1954.89 0c-40.02,0 -72.74,-32.73 -72.74,-72.74l0 -902.17c0,-40.01 32.73,-72.74 72.74,-72.74z"/>
  <path class="fil12" d="M8452.22 3539.47l0 902.17c0,40.01 -32.73,72.74 -72.74,72.74l-1954.89 0c-40.01,0 -72.74,-32.73 -72.74,-72.74l0 -902.17c0,-40.01 32.73,-72.75 72.74,-72.75l1954.89 0c40.01,0 72.74,32.74 72.74,72.75z"/>
  <path class="fil14" d="M6421.55 4640.19l1954.89 0c40.01,0 72.74,32.73 72.74,72.74l0 902.17c0,40.01 -32.73,72.74 -72.74,72.74l-1954.89 0c-40.02,0 -72.74,-32.73 -72.74,-72.74l0 -902.17c0,-40.01 32.73,-72.74 72.74,-72.74z"/>
  <path class="fil12" d="M8452.22 4711.48l0 902.17c0,40.01 -32.73,72.75 -72.74,72.75l-1954.89 0c-40.01,0 -72.74,-32.74 -72.74,-72.75l0 -902.17c0,-40.01 32.73,-72.75 72.74,-72.75l1954.89 0c40.01,0 72.74,32.74 72.74,72.75z"/>
  <g>
   <g>
    <path class="fil13" d="M7160.75 3858.23l1120.92 0c17.06,0 31,13.95 31,31l0 0.01c0,17.05 -13.94,31 -31,31l-1120.92 0c-17.06,0 -31,-13.95 -31,-31l0 -0.01c0,-17.05 13.94,-31 31,-31z"/>
    <path class="fil13" d="M7159.42 4057.08l1123.58 0c18.1,0 32.9,14.8 32.9,32.89l0 0.01c0,18.1 -14.8,32.89 -32.9,32.89l-1123.58 0c-18.1,0 -32.89,-14.79 -32.89,-32.89l0 -0.01c0,-18.1 14.79,-32.89 32.89,-32.89z"/>
   </g>
   <path class="fil6" d="M6986.71 4377.1l-425.16 0c-40.36,0 -73.38,-33.02 -73.38,-73.38l0 -626.34c0,-40.36 33.02,-73.38 73.38,-73.38l425.16 0c40.37,0 73.39,33.02 73.39,73.38l0 626.34c0,40.36 -33.02,73.38 -73.39,73.38z"/>
  </g>
  <g>
   <g>
    <path class="fil13" d="M2749.46 5030.97l1120.92 0c17.06,0 31,13.95 31,31l0 0.01c0,17.05 -13.94,31 -31,31l-1120.92 0c-17.06,0 -31,-13.95 -31,-31l0 -0.01c0,-17.05 13.94,-31 31,-31z"/>
    <path class="fil13" d="M2748.13 5229.82l1123.58 0c18.1,0 32.9,14.8 32.9,32.89l0 0.01c0,18.1 -14.8,32.89 -32.9,32.89l-1123.58 0c-18.1,0 -32.89,-14.79 -32.89,-32.89l0 -0.01c0,-18.1 14.79,-32.89 32.89,-32.89z"/>
   </g>
   <path class="fil6" d="M2575.43 5549.84l-425.16 0c-40.36,0 -73.38,-33.02 -73.38,-73.38l0 -626.34c0,-40.36 33.02,-73.38 73.38,-73.38l425.16 0c40.37,0 73.39,33.02 73.39,73.38l0 626.34c0,40.36 -33.02,73.38 -73.39,73.38z"/>
  </g>
  <g>
   <g>
    <path class="fil13" d="M4952.86 5030.97l1120.92 0c17.06,0 31,13.95 31,31l0 0.01c0,17.05 -13.94,31 -31,31l-1120.92 0c-17.06,0 -31,-13.95 -31,-31l0 -0.01c0,-17.05 13.94,-31 31,-31z"/>
    <path class="fil13" d="M4951.53 5229.82l1123.58 0c18.1,0 32.9,14.8 32.9,32.89l0 0.01c0,18.1 -14.8,32.89 -32.9,32.89l-1123.58 0c-18.1,0 -32.89,-14.79 -32.89,-32.89l0 -0.01c0,-18.1 14.79,-32.89 32.89,-32.89z"/>
   </g>
   <path class="fil6" d="M4778.83 5549.84l-425.16 0c-40.36,0 -73.38,-33.02 -73.38,-73.38l0 -626.34c0,-40.36 33.02,-73.38 73.38,-73.38l425.16 0c40.37,0 73.39,33.02 73.39,73.38l0 626.34c0,40.36 -33.02,73.38 -73.39,73.38z"/>
  </g>
  <g>
   <g>
    <path class="fil13" d="M7160.75 5030.24l1120.92 0c17.06,0 31,13.95 31,31l0 0.01c0,17.05 -13.94,31 -31,31l-1120.92 0c-17.06,0 -31,-13.95 -31,-31l0 -0.01c0,-17.05 13.94,-31 31,-31z"/>
    <path class="fil13" d="M7159.42 5229.09l1123.58 0c18.1,0 32.9,14.8 32.9,32.89l0 0.01c0,18.1 -14.8,32.89 -32.9,32.89l-1123.58 0c-18.1,0 -32.89,-14.79 -32.89,-32.89l0 -0.01c0,-18.1 14.79,-32.89 32.89,-32.89z"/>
   </g>
   <path class="fil6" d="M6986.71 5549.11l-425.16 0c-40.36,0 -73.38,-33.02 -73.38,-73.38l0 -626.34c0,-40.36 33.02,-73.38 73.38,-73.38l425.16 0c40.37,0 73.39,33.02 73.39,73.38l0 626.34c0,40.36 -33.02,73.38 -73.39,73.38z"/>
  </g>
 </g>
</svg>
