<?xml version="1.0" encoding="UTF-8"?>
<!DOCTYPE svg PUBLIC "-//W3C//DTD SVG 1.1//EN" "http://www.w3.org/Graphics/SVG/1.1/DTD/svg11.dtd">
<!-- Creator: CorelDRAW 2018 (64-Bit Evaluation Version) -->
<svg xmlns="http://www.w3.org/2000/svg" xml:space="preserve" width="316.442mm" height="152.047mm" version="1.1" style="shape-rendering:geometricPrecision; text-rendering:geometricPrecision; image-rendering:optimizeQuality; fill-rule:evenodd; clip-rule:evenodd"
viewBox="0 0 32421.96 15578.45"
 xmlns:xlink="http://www.w3.org/1999/xlink">
 <defs>
  <style type="text/css">
   <![CDATA[
    .fil4 {fill:#5AEEBC}
    .fil7 {fill:#3B9CFF}
    .fil6 {fill:#313B4A}
    .fil9 {fill:#494A9C}
    .fil20 {fill:#4A4A95}
    .fil15 {fill:#4C4B9C}
    .fil19 {fill:#545390}
    .fil13 {fill:#8F8FB4}
    .fil11 {fill:#9293CE}
    .fil8 {fill:#ddedff}
    .fil3 {fill:#dcfbf0}
    .fil21 {fill:#A69FAC}
    .fil10 {fill:#C7C6EA}
    .fil12 {fill:#D4E8D6}
    .fil17 {fill:#D6D6EA}
    .fil18 {fill:#E3E2F6}
    .fil16 {fill:#E7E4E9}
    .fil5 {fill:#5AEEBC}
    .fil14 {fill:#FCF8E9}
    .fil1 {fill:#5AEEBC;fill-opacity:0.149020}
    .fil0 {fill:#5AEEBC;fill-opacity:0.258824}
    .fil2 {fill:#5AEEBC;fill-opacity:0.450980}
   ]]>
  </style>
 </defs>
 <g id="Layer_x0020_1">
  <metadata id="CorelCorpID_0Corel-Layer"/>
  <g id="_2807525849120">
   <polygon class="fil0" points="11866.93,9532.83 8337.9,12018.97 11862.15,4628.45 15425.6,11994.92 "/>
   <polygon class="fil1" points="10950.94,8899 8035.05,10953.19 10947,4846.71 13891.32,10933.31 "/>
   <polygon class="fil0" points="20301.76,6572.42 18427.52,7892.79 20299.23,3967.76 22191.74,7880 "/>
   <polygon class="fil1" points="19815.29,6235.8 18266.69,7326.76 19813.2,4083.67 21376.89,7316.19 "/>
   <polygon class="fil0" points="29272.71,3454.75 27440.72,4745.35 29270.24,908.79 31120.09,4732.86 "/>
   <polygon class="fil0" points="4885.33,4435.42 2317.17,6244.65 4881.87,866.37 7475.07,6227.14 "/>
   <path class="fil1" d="M32421.96 15578.45l-32421.96 0 0 -15578.45 32421.96 0 0 15578.45zm-27536.61 -11143.02l-2568.18 1809.22 2564.69 -5378.26 2593.2 5360.77 -2589.71 -1791.73zm6981.57 5097.4l-3529.02 2486.16 3524.26 -7390.53 3563.44 7366.47 -3558.67 -2462.11zm8434.84 -2960.41l-1874.23 1320.38 1871.7 -3925.03 1892.5 3912.25 -1889.97 -1307.6zm8970.96 -3117.66l-1832 1290.6 1829.51 -3836.56 1849.85 3824.08 -1847.36 -1278.12zm-6979.31 9467.86l-2077.27 1463.38 2074.46 -4350.19 2097.5 4336.04 -2094.68 -1449.23z"/>
   <polygon class="fil1" points="28797.2,3125.71 27283.51,4192.08 28795.16,1022.09 30323.61,4181.76 "/>
   <polygon class="fil1" points="4218.75,3974.16 2096.78,5469.05 4215.88,1025.21 6358.54,5454.57 "/>
   <polygon class="fil0" points="22293.4,12922.6 20216.15,14385.99 22290.59,10035.79 24388.1,14371.83 "/>
   <polygon class="fil1" points="21754.23,12549.51 20037.89,13758.65 21751.92,10164.27 23484.99,13746.95 "/>
  </g>
  <path class="fil2" d="M12458.81 14579.19l21.78 44.4 56.01 9.15c80.6,7.97 128.68,-7.46 157.59,39.08 248.84,-13.47 588.14,169.83 759.26,341.36 424.54,425.53 -841.14,281.17 -1148.38,281.17 -219.59,0 -1041.72,45.7 -1163.14,-38.27 -217.63,-217.79 434.26,-555.69 676.98,-562.45 33.68,-23.64 -6.41,-7.23 63.74,-29.98 6.77,-2.2 40.51,-10.86 49.79,-12.86 48.68,-10.46 65.81,-7.81 117.36,-14.1l51.5 -12.22 27.2 -19.5 3.07 -91.21 2.7 -119.44 1 -1300.03c-177.19,3.97 -934.19,43.83 -1037.05,-21.4l-65.66 87.03c-23.95,37.16 -23.53,46.54 -55.46,88.49l-169.11 282.06 17.35 142.67 -160.59 77.11c36.84,64.27 16.22,77.87 136.66,76.63 213.86,-4.06 463.88,80.42 506.06,244.4 42.64,165.79 -93.9,417.59 -154.75,568.95 -108.26,269.29 -271.11,931.97 -618.01,796.92 -32.27,-139.52 36.77,-330.23 44.03,-493.37 8.37,-188.64 -13.66,-351.33 -33.02,-532.8 -23.91,-50.7 -38.55,-122.14 -55.4,-175.96 -27.65,-88.31 -34.32,-117.89 -80.56,-168.24 -83.19,81.89 -61.19,89.75 -199.4,83.3 -74.91,108.03 -127.46,274.48 -115.99,423.08 88.3,132.66 167.45,388.4 3.79,488.88 -106.63,65.47 -429.94,40.69 -571.17,40.29 -301.34,-0.84 -981.12,94.49 -945.92,-283.49 102.96,-54.95 185.19,-69.68 298.99,-64.78 65.84,-58.89 91.22,-45.83 187.94,-67.06l147.02 -55.16c35.27,-35.27 108.85,-59 164.53,-91.94 61.75,-36.54 119.12,-69.45 163.8,-101.87 233.53,-118.63 211.45,-210.89 354.1,-416.87l166 -565.25c11.79,-122.08 -52.46,-254.76 -104.66,-360.21l-4796.59 -8.82 -1545.02 12.63c-495.43,-25.61 -704.89,-78.48 -774.65,146.39l-277.65 1055.84c-60.55,231.27 -341.36,1060.34 -244.5,1211.35 68.58,66.67 69.71,53.1 202.73,54.37l7315.7 -3.21c822.82,-2.43 7324.18,46.38 7543.48,-24.18 73.22,-182.76 -33.93,-454.63 -89.11,-651.56 -107.91,-385.17 -383.86,-1632.39 -512.84,-1791.83l-1983.83 1.09 -17.48 466.29c-306.69,47.83 -254.55,-16.01 -262.63,-293.94 -3.8,-130.69 -5.4,-413.83 -27.11,-523.14l10.95 349.59 -2042.47 -1.16c-15.88,296.8 -36.95,1253.38 1.03,1483.8z"/>
  <path class="fil3" d="M4862.85 13522.56l294.22 1.09 186.99 -4294.19 5909.6 -2.13 0.84 -500.15 -6518.28 10.51c-132.63,0.02 -828.36,61.2 -864.35,-35.67 -59.61,78.23 -23.21,205.78 9.73,290.03 176.46,451.28 713.61,119.35 846.17,262.74l135.08 4267.76z"/>
  <path class="fil4" d="M9958.79 13095.68c52.2,105.45 116.45,238.13 104.66,360.21 77.09,57.76 64.59,98.96 119.42,234.82 86.13,213.38 7.45,133.46 190.54,201.57 54.86,-84.49 -8.95,-10.69 51.54,-58 22.65,-17.71 46.29,-30.19 78.46,-42.59 48.39,-18.64 107.59,-31.46 161.35,-41.44l160.59 -77.11 -17.35 -142.67c-56.42,-141.05 -85.2,-368.06 -134.1,-548.39 -52.94,-195.28 -221.43,-794.92 -192.87,-907.6 -52.17,-41.05 -23.52,0.25 -48.71,-74.67l-56.47 -346.73c-67.1,-86.69 -65.27,-290.65 -80.59,-425.23 -51.23,-449.75 -46.31,-752.66 318.59,-1095.72 493.4,-463.86 1104.94,-232.27 1606.9,-310.04l54.18 -13.52c-426.36,-6.32 -510.35,-25.09 -734.62,-249.74l-246.03 4.96c-7.35,-116.27 -36.72,-205.66 18.36,-299.66l-59 -36.79 0.82 339.06c-471.1,17.97 -915.53,55.36 -1261.75,256.42 -279.12,162.1 -590.53,443.92 -631.99,868.71 -56.89,582.9 441.89,1854.6 598.06,2404.16z"/>
  <path class="fil3" d="M13983.82 9243.32l315.41 -15.65 190.06 3519.3c21.71,109.31 23.31,392.45 27.11,523.14 8.08,277.93 -44.06,341.77 262.63,293.94l17.48 -466.29 102.77 -3868.43c276.07,-9.62 563.42,10.29 837.62,-0.78 296.53,-11.96 359.24,-228.23 372.99,-502.4l-900.24 9.82 -112.56 0.72 -1039.44 24.45 -73.83 482.19z"/>
  <path class="fil3" d="M6647.72 7563.33l-1.94 -1391.37 429.75 -3.27 963.79 3.31c24.64,-2.21 70.22,-8.5 93.42,-1.73 89.02,25.95 2.17,-34.66 52.16,35.88 195.98,-42.32 494.52,-13.45 721.2,-24.55l-6.79 -607.57c-131.91,-14.51 -101.74,13.52 -170,-92.04 -13.01,-21.35 -14,4.93 -29.5,-68.5 -18.38,-87.05 10.8,-156.47 20.09,-254.16 8.99,-94.53 8.78,-192.18 18.47,-274.94l104.05 -14.25 55.37 -18.82 -6.55 -110.36 2184.34 6.19c-90.76,-81.81 -1653.6,-28.88 -1803.73,-34.02 -595.41,-20.34 -1239.73,4.39 -1842.6,3.85 -976.24,-0.86 -801.62,-167.11 -814.2,1010.54l-3.89 1730.58c13.38,116.6 -12.83,47.02 36.56,105.21z"/>
  <path class="fil3" d="M10634.13 7215.76c114.41,102.92 119.36,278.59 126.6,427.79l-950.26 -0.37 -26.07 -102.99c11.73,-160.71 23.16,-224.68 107.8,-317.54 -38.79,-413.53 -116,-986.27 364.79,-977.5 241.31,4.41 369.96,68.96 401.18,306.86 26.75,203.84 -12.08,460.77 -24.05,663.74zm-1739.34 -323.58l24.67 800.22 636.01 7.42 1528.03 -11.2 117.14 -723.86 -1.45 -787.57 -372.35 -5.64 -1044.61 -0.9 -745.91 7.51c90.41,98.12 94.82,150.36 92.2,342.97 -2.3,167.51 9.85,224.93 -43.89,351.12l-189.82 19.93z"/>
  <path class="fil3" d="M4537.78 2671.22c81.31,42.32 76.37,119.33 0,163.08 -42.71,-68.95 -48.05,-88.85 0,-163.08zm-521.74 -114.32c-6.81,-167.51 457.24,-260.78 484.14,-656.28 4.48,-65.77 -2.03,-137.27 0.49,-202.42 4.86,-125.1 -18.01,-125.36 65.44,-162.85 68,85.42 29.25,212 28.47,338.04 -1.54,249.43 103.46,128.53 49.38,332.49 -265.93,141.71 25.34,-103.69 -469.58,296.63 -66.51,53.8 -84.99,87.05 -158.36,54.39zm1316.79 -485.8c-17.17,126.96 -127.58,104.77 -165.47,13.9l165.47 -13.9zm-1558.46 55.47c27.8,-19.52 -48.61,-30.01 83.02,-32.66 112.44,-2.26 69.32,24.81 80.29,32.66 -15,10.65 33.74,29.71 -80.42,33.37 -130.2,4.17 -64.09,-19.44 -82.89,-33.37zm791.74 -804.04c70.56,149.19 6.63,145.56 0,159.37 -27.09,-17.71 -61.15,29.3 -51.18,-90.06 9.59,-114.75 12.08,-42.19 51.18,-69.31zm-171.46 -57.4c-1146.65,213.91 -796.75,1934.41 331.05,1699.87 418.21,-86.98 772,-503.15 671.86,-1020.42 -81.06,-418.79 -499.24,-773.41 -1002.91,-679.45z"/>
  <path class="fil4" d="M8897.8 4854.36c112.08,-1.83 672.65,-22.37 705.08,33.72 75.04,18.18 71.08,-30.4 101.11,104.19l-25.98 548.84c-125.12,42.11 -252.06,15.97 -367.41,65.13l55.28 176.84c-224.13,-85.81 -124.54,-201.14 -466.55,-207.65l6.79 606.18 130.2 -3.44 745.91 -7.5 -1.47 -34.76c-1.47,-171.33 40.18,-296 168.78,-339.8 39.71,-40.22 -21.94,-8.8 75.99,-52.29 39.61,-17.59 35.59,-10.17 78.06,-18.26l44.05 7.21c106.49,-152.26 6.34,-112.4 -80.35,-263.67 -64.86,-113.16 -171.37,-177.84 -60.43,-264.02 -9.97,-259.64 -4.48,-412.92 279.7,-405.11 307.24,8.43 324.15,74.2 322.55,377.14 84.43,160.33 22.23,131.67 -51.8,273.8 -113.68,218.25 -165.35,81.41 -118.98,263.56l72.28 11.11c59.41,11.39 47.27,3.99 99.27,27.53 47.09,21.33 25.4,12.92 53.84,40.14 83.57,14.27 -1.84,-57.66 87.27,42.45 7.45,8.37 42.25,77.78 48.65,94.54 29.09,76.2 32.14,109.58 29.45,194.55l-2.25 46.79 372.35 5.62 -11.8 -1343.5c-39.69,-119.35 -34.49,-113.07 -111.77,-121.86l-2184.34 -6.18 6.53 148.71z"/>
  <path class="fil4" d="M7839.37 7161.93c132.82,82.05 210.16,279.54 172.14,483.26l-207.31 -18.65 -758.92 16.33c-18.07,-94.32 -24.65,-109.97 17.82,-179.58 8.34,-164.95 63.12,-238.25 167.83,-308.08 -79.43,-153.48 -153.88,-391.68 -89.71,-609.7 49.46,-168.05 183.97,-308.64 393.49,-301.34 583.12,20.34 394.91,574.57 304.67,917.75zm-1232.63 401.4c26.86,181.31 309.16,127.8 510.69,127.61 198.43,-0.17 396.87,0.3 595.3,-0.01 401.45,-0.6 805.53,-3.14 1206.74,1.45l-24.67 -800.22c-232.59,0.8 -229.9,115.75 -417.8,209.75 29.04,-101.81 57.9,-110.21 36.17,-190.96 -146.11,-50.21 -217.51,36.49 -346.95,-77.61 -72.19,-143.8 -55.71,-518.68 18.7,-627.2 -49.99,-70.54 36.85,-9.93 -52.16,-35.88 -23.2,-6.77 -68.78,-0.48 -93.42,1.73l-963.79 -3.31 -470.73 3.27 1.94 1391.37z"/>
  <path class="fil5" d="M4566.37 6150.63c-83.73,-19.73 -4.98,45.59 -93.32,-44.04 -69.27,-70.28 -31.78,-35 -62.58,-112.18l155.9 156.22zm-604.06 -493.18c121.38,38.38 394.38,223.74 448.88,341.88l-383.06 -269.71c-63.11,-51.35 -29.2,-23.64 -65.82,-72.17zm295.65 1343.83l805.91 4.8c-44.6,-145.63 -138.5,-339.59 -215.87,-455.57 -44.26,-66.35 -93.43,-142.98 -139.65,-199.78 -58.18,-71.51 -100.35,-116.5 -141.99,-200.09 115.61,33.52 -39.84,-90.95 171.75,170.49 132.75,164.04 321.03,471.75 370.16,691.04l37.37 -2.12c64.07,-129.67 192.57,-248.14 158.64,-468.2l-137.57 -38.73c-41.61,-50.46 -27.37,67.17 -30.97,-91.68 -0.03,-1.62 12.93,-70.02 13.16,-71.15 13.79,-69.84 24.25,-111.19 33.65,-180.47 -66.97,-79.98 -14.65,-166.69 -166.67,-193.71 -138.76,-24.67 -143.33,64.17 -251.42,16.62l-52.86 -292.87c-23.63,-136.55 -40.85,-263.26 -201.93,-259.29 -145.52,3.58 -140.1,86.44 -188.79,164.77 -29.28,47.1 1.91,14.32 -38.22,44.9 -256.77,-125.32 -262.34,-502.71 -665.82,-377.94 -194.34,448.06 312.82,490.62 444.33,663.72 -173.36,73.81 -310.14,-20.05 -240.06,295.76 93.32,38.07 327.88,57.16 401.33,140.8l-230.58 63.61c-22.38,331.61 262.49,212.05 470.34,322.11 -6.24,4.39 -15.35,8.8 -19.96,11.22l-135.52 70.04c-67.02,57.09 -55.05,78.61 -48.75,171.73z"/>
  <path class="fil5" d="M5638.26 8085.41c-3.26,29.26 -3.94,71.59 -25.29,133.31 -24.45,70.69 -17.1,42.26 -54.82,92.41l-138.32 0.24 -438.12 -2.19 -355.05 -3.15c-132.37,-98.41 -63.04,-243.69 -140.83,-392.86 -94.31,64.96 -230.47,279.01 -318.66,392.58 -97.52,125.57 -222.28,265.96 -295.31,396.3 35.98,96.86 731.71,35.69 864.35,35.67l6518.28 -10.51c5.58,-116.97 7.11,-22.77 -26.64,-59.08 -397.92,93.54 -1097.09,-28.41 -1526.41,27.55 -172.41,-13.81 -634.1,43.78 -733.37,-47.98l-151.2 -5.79 -117.15 10 -95.53 -6.98c-356.84,-5.73 -2208.95,40.28 -2370.33,-20.97 -23.83,-107.04 206.18,-550.64 277.38,-628.07l-71.93 -148.5 -751.84 -3.53 -25.62 110.99 -4.44 54.29 -19.16 76.29z"/>
  <path class="fil4" d="M4390.88 7298.55l342.05 -3.07c37.67,169.23 45.37,379.81 66.38,558.18 32.88,279.03 -16.09,291.97 182.42,455.51l438.12 2.19 138.32 -0.24c37.71,-50.14 30.37,-21.72 54.82,-92.41 21.34,-61.72 22.03,-104.05 25.29,-133.31l19.16 -76.29 1.91 -23.28zm0.11 -1.42l2.42 -29.59 25.62 -110.99 751.84 3.53 -3.27 -9.96 -744.5 4.35 80.88 -484.76c55.62,-118.79 -0.51,-21.51 94.07,-69.92 71.1,-36.37 161.24,-102.47 63.65,-226.72 -58.32,-74.26 -194.69,-49.23 -292.63,-69.64l-491.87 19.3 -37.37 2.13 -44.41 -6.09 -805.91 -4.8c-37.56,85.16 -79.53,143.74 -39.15,267.74l172.07 29.53z"/>
  <path class="fil6" d="M11037.21 7892.79c-5.1,7.93 -46.96,112.56 -76.1,145.49 -94.61,106.96 -78.96,20.95 -171.89,77.49l83.98 6.67c-148.99,90.77 -251.82,93.22 -444.86,121.99 -169.09,25.17 -310.62,49.74 -470.31,73.64l-289.16 -4.77c26.23,17.32 27.83,22.85 82.42,42.41 1.65,0.59 57.33,4 63.46,4.12 -69.6,-1.69 -105.54,15.77 -156.69,44.17 59.97,69.19 27.97,-0.88 39.11,127.66 3.94,45.69 1.22,112.33 4.28,164.01 429.3,-55.95 1128.48,65.99 1526.4,-27.55 33.75,36.32 32.21,-57.9 26.64,59.08l-0.83 500.15 0.81 339.05 285.85 -7.55c-192.09,-392.95 -114.03,-499.33 -48.95,-961.77 43.33,-307.91 79.39,-667.14 139.46,-969.94 47.06,-461.56 168.43,-732.59 617.69,-794.9l1482.54 8.39c-110.03,-401.6 -378.22,-472.37 -825.81,-541.95 -50.64,83.07 -201.52,37.75 -294.73,35.12l-446.53 -50.72c-126.23,68.56 -288.33,96.64 -423.32,154.35 -161.88,69.23 -236.65,165.31 -360.94,223.77 -14.35,34.16 -150.63,277.55 -179.09,303.57l-117.13 723.83 -1528.03 11.21 109.9 71.57c233.04,-102.3 372.14,-57.04 655.35,-60.03 251.42,-2.66 502.48,2.4 753.14,-2.31l-36.65 183.75z"/>
  <path class="fil4" d="M13222.12 2657.52c35.41,-149.31 185.1,-229.6 280.52,-353.46 70.23,-91.19 234.56,-304.29 332.88,-317.51 -17.24,92.58 -201.33,285.21 -282.58,367.28 -81.15,81.99 -102.15,99.48 -164.32,176.49 -73.06,90.5 -56.29,125.85 -166.49,127.19zm1508.06 273.43c-42.92,-69.89 -34.51,-94.92 -83.13,-166.55l-369.41 -427.61c-76.9,-83.06 -472.13,-486.02 -470.26,-579.45 -145.41,80.71 -517.35,566.18 -652.58,709.01 -108.27,114.35 -228.74,287.17 -68.09,438.11 119.31,112.11 416.15,59.61 607.42,69.52 72.59,133.77 42.21,268.74 255.68,270.17 207.77,1.39 187.05,-137.06 254.57,-273.67 95.05,-0.79 189.27,-0.75 284.38,0.22 200.52,2.03 191.87,9.53 241.42,-39.75z"/>
  <path class="fil4" d="M10601.89 11496.46c73.15,105.58 261.71,1338.78 306.08,1549.26 22.66,107.49 19.55,140.53 69.15,202.69 31.93,-41.96 31.51,-51.33 55.46,-88.49l65.66 -87.03c5.73,-88.19 248.43,-709.43 299.68,-910.31 41.22,-161.56 71.89,-325.7 104.58,-489.72 41.25,-206.98 94.79,-279.23 166.88,-446.15 -340.97,-33.96 -677.44,43.51 -982.82,-63.74l-84.67 333.49z"/>
  <path class="fil4" d="M10375.87 11653.08c32.5,-207.48 127.88,-425.3 256.82,-532.25 -88.04,-237.04 -115.84,-407.89 48,-638.53 303.04,-426.58 803.93,-321.41 1369.39,-319.03 318.69,1.34 479.73,-40.45 494.15,-354.4l-269.29 -0.3 -54.18 13.52c-501.96,77.77 -1113.5,-153.82 -1606.9,310.04 -364.9,343.06 -369.82,645.97 -318.59,1095.72 15.33,134.58 13.49,338.54 80.59,425.23z"/>
  <path class="fil6" d="M10545.73 14410.98c19.36,181.47 41.39,344.17 33.02,532.8 -7.25,163.13 -76.3,353.85 -44.03,493.37 346.89,135.05 509.75,-527.63 618.01,-796.92 60.85,-151.36 197.4,-403.16 154.75,-568.95 -42.18,-163.98 -292.2,-248.46 -506.06,-244.4 36.15,120.41 92.09,261.97 28.67,406.45 -67.94,154.77 -149.98,136.26 -284.36,177.65z"/>
  <path class="fil7" d="M9892.2 7222.65c18.4,138.45 17.95,244.1 120.91,300.41 145.72,45.06 38.78,16.79 81.25,-9.2l0.72 -105.13c-75.6,-186.87 -29.09,-308.29 -33.65,-517.4 -46.28,-182.52 -46.09,-295.56 65.21,-429.87l327.59 13.76c79.66,91.74 91.72,142.86 79.05,310.12 -0.5,57.46 -21.86,410.14 -57.17,427.45l-40.03 346.16c196.55,-57.79 156.5,-133.22 198.05,-343.19 11.97,-202.97 50.8,-459.9 24.05,-663.74 -31.23,-237.9 -159.88,-302.46 -401.18,-306.86 -480.79,-8.77 -403.58,563.97 -364.79,977.5z"/>
  <path class="fil8" d="M12163.98 6283.08l446.51 50.71c93.21,2.62 244.1,47.95 294.74,-35.12 -11.04,-130.09 -47.34,-277.69 -2.75,-377.5 -111.47,-34.56 -313.71,31.95 -471.94,-6.85 -145.16,-35.59 -246.36,-125.44 -320.66,-184.72 16.36,-150.97 141.34,-158.07 2.62,-367.43l-56.97 3.81 -84.43 70.49c-62.44,-53.29 0.16,7.97 -43.74,-50.36 -4.32,-5.75 -20.35,-22.7 -22.83,-35.77 -1.82,-9.63 -6.26,-12.51 -10.4,-18.09 -15.44,141.37 17.43,461.34 84.02,579.56 121.59,215.86 347.68,167.7 185.82,371.28z"/>
  <path class="fil4" d="M10492.52 12029.22l-11.48 45.26c-28.57,112.68 139.93,712.32 192.87,907.6 48.89,180.33 77.67,407.33 134.1,548.39l169.11 -282.06c-49.6,-62.16 -46.49,-95.2 -69.15,-202.69 -44.37,-210.48 -232.93,-1443.67 -306.08,-1549.26l-109.36 532.76z"/>
  <path class="fil7" d="M7230.92 7155.22l181.14 9.37 50.46 -158.04c-179.76,-184.67 -198.77,-312.92 -67.83,-542.68l331.88 3.09c151.17,214.8 19.22,430.86 -105.85,536.5l38.2 165.66 180.45 -7.2c90.24,-343.17 278.45,-897.41 -304.67,-917.75 -209.52,-7.31 -344.03,133.29 -393.49,301.34 -64.17,218.02 10.29,456.21 89.71,609.7z"/>
  <path class="fil7" d="M13867.76 1672.76l-60.39 84.59c-1.86,93.43 393.36,496.39 470.26,579.45l369.41 427.61c48.63,71.63 40.21,96.66 83.13,166.55 139.86,-29.22 210.2,-193.23 101.91,-354.18l-804.54 -904.02c-6.53,-7.02 -14.93,-15.88 -19.55,-21.07l-46.99 -54.33c-2.1,-8.81 -7.93,-9.98 -11.76,-15.06l-81.5 90.46z"/>
  <path class="fil8" d="M10006.86 5202.85c-110.94,86.38 -4.43,151.2 60.43,264.62 86.69,151.62 186.84,111.66 80.35,264.27 139.76,55.48 170.36,103.04 290.68,-18.34 -46.36,-182.56 5.31,-45.42 118.98,-264.16 74.04,-142.46 136.23,-113.73 51.8,-274.43 -72.17,-66.21 -65.32,-122.26 -105.56,-222.63l-392.69 9.89 -103.99 240.79z"/>
  <path class="fil7" d="M4485.84 7913.16c77.79,149.18 8.46,294.45 140.83,392.86l355.05 3.15c-198.49,-163.53 -149.54,-176.47 -182.42,-455.5 -21.01,-178.38 -28.71,-388.95 -66.38,-558.19l-342.05 3.07 94.97 614.6z"/>
  <path class="fil9" d="M9455.21 4999.92c65.27,17.44 63.52,30.61 82.2,47.12 -160.92,73.71 -67.21,-19.99 -111.1,106.73 -16.9,48.78 -15.77,87.34 -26.01,137.67l138.98 67.5c-46.98,50.78 5.74,29.7 -95.58,55.68 -1.22,0.31 -106.54,3.48 -114.5,3.39 -76.46,-0.95 -150.72,-2.82 -227.62,-1.9 -275.21,3.29 -209.48,-19.75 -380.8,-114.95l8.52 180.84c68.26,105.56 38.08,77.53 170,92.04 342.01,6.54 242.43,122.13 466.55,208.12l-55.28 -177.24c115.36,-49.27 242.29,-23.07 367.41,-65.29l25.98 -550.08c-30.03,-134.9 -26.07,-86.22 -101.11,-104.44l-201.36 -5.97 53.69 120.77z"/>
  <path class="fil8" d="M7412.05 7164.6c43.31,208.71 191.5,244.65 246.86,4.54l-38.2 -165.66c125.07,-105.64 257.02,-321.7 105.85,-536.5l-331.88 -3.09c-130.94,229.76 -111.94,358.01 67.83,542.68l-50.46 158.04z"/>
  <path class="fil8" d="M8921.94 8384.97l-76.96 71.09c-50.77,102.18 -20.12,53.28 -90.17,79.75 -14.31,42.8 24.93,15.54 -38.83,54.17l-16.25 61.91 117.15 -10c126.44,-83.83 277.46,-135.33 417.34,-42.59 -100.85,17.16 -194.21,-25.68 -266.14,48.38 99.28,91.77 560.97,34.17 733.37,47.97 -3.05,-51.68 -0.32,-118.32 -4.27,-164 -11.15,-128.53 20.86,-58.48 -39.11,-127.66l-256.99 -67.8c-180.12,-22.19 -332.62,30.96 -479.14,48.79z"/>
  <path class="fil8" d="M9543.34 14438.02c35.54,133.04 87.85,238.86 220.44,268.86 176.83,40.02 252.5,-76.51 330.59,-133.72 -11.47,-148.59 41.09,-315.05 115.99,-423.08l-312.92 -128.93c-142.65,205.98 -120.57,298.24 -354.1,416.87z"/>
  <path class="fil8" d="M10061.43 6891.32c45.55,37.74 75.38,68.38 127.14,112.15l-30.35 129.72c119.03,49.65 125.54,68.28 223.72,-16.06l-32.24 -111.9c107.02,-105.86 112.78,-115.02 183.58,-219.91 12.67,-167.26 0.61,-218.38 -79.05,-310.12l-327.59 -13.76c-111.3,134.31 -111.49,247.35 -65.21,429.87z"/>
  <path class="fil7" d="M13867.76 1672.76l81.5 -90.46c3.83,5.08 9.66,6.25 11.76,15.06l46.99 54.33c4.62,5.18 13.02,14.05 19.55,21.07l-4.21 -1672.76 -147.7 0 -7.88 1672.76z"/>
  <path class="fil7" d="M9949.54 5795.22c61.05,57.62 72.15,259.91 43.51,339.38l-212.29 1.2 1.47 34.85 1044.61 0.9 2.25 -46.91 -214.86 4.45c-28.13,-110.35 -34.82,-270.15 49.5,-336.74 -28.44,-27.28 -6.75,-18.85 -53.84,-40.22 -52,-23.61 -39.87,-16.18 -99.27,-27.6 -66.65,192.36 -348.14,188.06 -407.01,-0.01 -42.47,8.09 -38.45,0.67 -78.06,18.3 -97.93,43.59 -36.28,12.09 -75.99,52.41z"/>
  <path class="fil8" d="M10373.42 13892.28l36.35 174.5c46.24,50.35 52.91,79.93 80.56,168.24 16.84,53.82 31.49,125.27 55.4,175.96 134.38,-41.39 216.42,-22.88 284.36,-177.65 63.42,-144.48 7.48,-286.04 -28.67,-406.45 -120.44,1.24 -99.81,-12.36 -136.66,-76.63 -53.76,9.98 -112.96,22.81 -161.35,41.44 -32.17,12.4 -55.81,24.88 -78.46,42.59 -60.49,47.32 3.32,-26.49 -51.54,58z"/>
  <path class="fil4" d="M9897.45 14021.15l312.92 128.93c138.22,6.45 116.22,-1.4 199.4,-83.3l-36.35 -174.5c-183.09,-68.1 -104.41,11.81 -190.54,-201.57 -54.84,-135.86 -42.34,-177.07 -119.42,-234.82l-166 565.25z"/>
  <path class="fil7" d="M14657.03 5444.06c183.43,162.89 425.5,311.86 300.18,697 -68.5,210.53 -306.47,612.63 -14.79,783.9 -187.78,-379.2 103.73,-498.35 182.27,-845.23 82.69,-365.24 -179.55,-576.14 -467.66,-635.67z"/>
  <path class="fil8" d="M9869.61 8250.12l-13.26 74.28 101.68 -6.35c159.69,-23.87 301.23,-48.45 470.31,-73.64 193.04,-28.76 295.86,-31.21 444.85,-121.97l-83.97 -6.69c-223.73,-42.51 -248.71,-93.9 -526.23,-65.77 -201.8,20.45 -258.83,135.64 -393.38,200.13z"/>
  <path class="fil7" d="M4016.04 2556.9c73.37,32.65 91.85,-0.59 158.36,-54.39 494.91,-400.31 203.65,-154.92 469.58,-296.63 54.08,-203.95 -50.92,-83.05 -49.38,-332.49 0.78,-126.04 39.53,-252.62 -28.47,-338.04 -83.45,37.49 -60.58,37.75 -65.44,162.85 -2.52,65.14 3.99,136.65 -0.49,202.42 -26.91,395.51 -490.96,488.78 -484.14,656.28z"/>
  <path class="fil10" d="M9356.9 5066.64c25.6,32.22 59.9,-58.67 40.8,94.03 -13.08,104.59 -35.94,54.12 -69.15,75.83 -16.68,-30.95 -50.82,47.25 -34.12,-102.68 11.53,-103.44 -23.15,-22.89 62.47,-67.17zm-242.49 53.26c57.83,-48.37 -12.78,-20.02 70.21,-38.92l-70.21 38.92zm-100.52 -47.63c94.38,3.27 25.27,4.05 74.29,47.85l-138.32 -1.17c40.36,-46.31 -64.81,-51.14 64.03,-46.68zm-177.4 164.8c4.35,8.38 17.02,6.15 22,17.87 4.84,11.39 15.83,12.98 22.73,15.54 93.64,34.91 95.12,14.94 220.22,20.82 115.07,5.4 189.97,1.4 298.86,0.14 10.25,-50.34 9.12,-88.89 26.01,-137.67 43.88,-126.72 -49.83,-33.02 111.1,-106.73 -18.68,-16.51 -16.94,-29.68 -82.2,-47.12l-95.89 8.71 -65.75 1.55c-14.03,-1.94 -397.36,-4.06 -418.84,-2.3 -1.91,5.55 -3.34,14.1 -3.65,17.24l-29.25 151.78c98.64,9.09 61.41,-10.41 98.65,48.28l-103.98 11.89z"/>
  <path class="fil7" d="M12435.01 11217.79c98.49,7.68 1100.08,43.39 1204.67,-27.95 340.94,-8.03 251.81,-555.6 254.39,-897.28 2.79,-369.81 7.98,-699.9 89.74,-1049.25l73.83 -482.19 1039.44 -24.46c-56.57,-96.79 -45.52,-85.93 -13.79,-191.73 132.02,51.26 83.04,53.32 180.71,103.07 -26.41,67.35 31.74,16.27 -54.35,87.95l900.24 -9.82 -274.93 -674.74c-34.62,-84.22 -1.25,-31.98 -59.07,-49.83l-40.74 89.4c-50.5,-56.06 -30.4,1.23 -28.48,-96.44l-173.91 102.81 0.25 92.49 15.81 68.63 32.92 80.28 -74.04 -15.9 -13.83 6.31c69.48,88.34 -23.64,-145.67 42.71,91.89 -107.74,-26.01 -39.06,23.5 -118.34,-43.55 55.28,137.13 44.55,47.99 -13.2,135.92 -93,141.62 -121.79,86.92 -123.73,87.22 -6.76,1.11 -22.49,5.47 -27.59,-3.43 -9.75,-17.01 -36.8,22.4 -59.84,-65.13 -35.05,-133.2 105.96,-96.53 118.37,-132.48 2.4,-6.93 11.32,-3.72 16.38,-6.76 -69.77,-47.98 -125.07,-35.08 -216.73,-33.22 -181.07,3.69 -160.1,21.29 -234.03,-30.24 -147.11,-18.44 -119.21,-67.37 -118.05,-222.24 -90.45,-82.35 -136.83,-128.96 -211.18,-201.01 -112.8,-109.3 -173.05,-49.08 -358.38,-70.55l7.68 -63.58c45.51,-556.63 11.7,-758.58 -466.9,-931.37l-1482.54 -8.41c-449.27,62.33 -570.64,333.35 -617.7,794.91 -60.06,302.79 -96.12,662.02 -139.46,969.94 -65.07,462.45 -143.13,568.84 48.95,961.77 224.26,224.63 308.27,243.41 734.62,249.73l269.29 0.3c-14.43,313.95 -175.48,355.74 -494.15,354.4 -565.47,-2.38 -1066.35,-107.56 -1369.39,319.03 -163.84,230.64 -136.04,401.49 -48,638.54 41.96,14.93 12.43,-32.08 53.87,42.13 305.38,107.25 641.85,29.77 982.82,63.74l455.3 7.15 10.37 444.73 0.24 1415.7 -1 1300.04 -2.7 119.42 -3.07 91.21 -27.2 19.5 -51.5 12.22c-51.55,6.29 -68.68,3.63 -117.36,14.1 -9.28,2 -43.03,10.66 -49.79,12.85 -70.15,22.77 -30.06,6.36 -63.75,29.99 -242.71,6.76 -894.61,344.66 -676.97,562.46 121.42,83.95 943.56,38.26 1163.14,38.26 307.24,0 1572.92,144.36 1148.38,-281.17 -171.13,-171.52 -510.43,-354.83 -759.26,-341.36 -28.91,-46.54 -76.99,-31.11 -157.59,-39.08l-56.01 -9.15 -21.78 -44.41c-14.87,-550.92 -1.3,-1120.88 -0.75,-1678.05 0.39,-402.72 47.95,-1343.49 -23.04,-1683.34z"/>
  <polygon class="fil5" points="14197.95,7772 14197.84,7836.4 14057.66,8761.14 16109.88,8726.15 15800.21,7940.46 14190.28,7835.56 "/>
  <path class="fil7" d="M14877.87 8329.38l616 -0.23 13.83 -6.31 41.12 -64.37 -15.8 -68.63 -0.26 -92.48c-340.91,158.57 -441.21,113.73 -772.93,9.77 -1.16,154.88 -29.06,203.8 118.04,222.24z"/>
  <path class="fil11" d="M8729.32 5482l-8.52 -180.84c171.32,95.19 105.58,118.24 380.8,114.95 76.9,-0.92 151.16,0.94 227.62,1.9 7.96,0.09 113.28,-3.08 114.5,-3.39 101.32,-25.97 48.61,-4.9 95.58,-55.68l-138.98 -67.5c-108.89,1.26 -183.79,5.26 -298.86,-0.14 -125.1,-5.88 -126.59,14.09 -220.22,-20.82 -6.9,-2.56 -17.89,-4.15 -22.73,-15.54 -4.98,-11.72 -17.64,-9.49 -22,-17.87 -95.96,-126.31 -76.54,-238.5 5.93,-366.91l-104.05 14.25c-9.69,82.76 -9.49,180.41 -18.47,274.94 -9.29,97.68 -38.47,167.11 -20.09,254.16 15.5,73.43 16.49,47.15 29.5,68.5z"/>
  <path class="fil6" d="M10006.86 5202.85l103.99 -240.79 392.69 -9.89c40.25,100.37 33.39,156.42 105.56,222.63 1.6,-303.62 -15.31,-369.55 -322.55,-378 -284.18,-7.83 -289.67,145.81 -279.7,406.04z"/>
  <path class="fil7" d="M15277.17 6113.07c169.98,423.06 -440,636.71 42.7,872.58 -345.06,-187.71 454.76,-724.74 -42.7,-872.58z"/>
  <path class="fil12" d="M5470.31 5321.27l-58.47 117.31 -54.53 169.9c-16.93,65.62 4.76,21.38 -20.48,69.02 -41.29,77.92 -9.67,18.72 -39.99,53.66l-114.3 428.66c-9.4,69.28 -19.86,110.63 -33.65,180.47 -0.23,1.13 -13.19,69.53 -13.16,71.15 3.61,158.85 -10.64,41.22 30.97,91.68 33.98,-319.54 161.61,-729.7 276.81,-999.63l66.88 -114.25 14.68 -53.33c26.15,-82.12 57.54,-136.63 83.59,-186.47l5.47 -18.45 66 -85.36 96.88 -213.09c-102.31,42.87 -232.9,375.22 -306.72,488.74z"/>
  <path class="fil13" d="M8874.73 5007.88c21.48,-1.76 404.81,0.36 418.84,2.3 -45.35,-56.64 -50.63,-75.48 -131.43,-118.85 133.55,-16.74 170.26,-2.2 197.18,117.3l95.89 -8.71 -53.69 -120.77 201.36 5.97c-32.44,-56.22 -593.01,-35.63 -705.08,-33.79l-55.37 18.82 151.6 14.83 -119.29 122.9z"/>
  <path class="fil4" d="M14572.89 7180.38c-3.89,5.11 -9.23,12.24 -10.8,15.99 -78.02,186.98 -19.41,711.4 346.97,837.51 185.44,63.83 100.2,2.82 116.73,-9.65 -185.2,-108.53 -267.48,-113.02 -362.38,-288.7 -88.47,-163.77 -11.23,-429.31 -90.52,-555.16z"/>
  <path class="fil6" d="M10829.09 6124.64c2.69,-85.15 -0.36,-118.62 -29.45,-194.99 -6.39,-16.8 -41.2,-86.36 -48.65,-94.75 -89.12,-100.35 -3.7,-28.24 -87.27,-42.55 -84.31,66.59 -77.63,226.39 -49.5,336.74l214.86 -4.45z"/>
  <path class="fil14" d="M13222.12 2657.52c110.2,-1.34 93.43,-36.69 166.49,-127.19 62.17,-77.02 83.18,-94.51 164.32,-176.49 81.25,-82.07 265.34,-274.7 282.58,-367.28 -98.32,13.22 -262.64,226.32 -332.88,317.51 -95.42,123.86 -245.11,204.15 -280.52,353.46z"/>
  <path class="fil6" d="M9780.76 6135.8l212.29 -1.2c28.64,-79.48 17.54,-281.76 -43.51,-339.38 -128.59,43.9 -170.24,168.86 -168.78,340.58z"/>
  <path class="fil4" d="M7891.78 8421.18c80.35,62.64 701.12,60.56 777.26,0 -78.31,-66 -699.01,-66.06 -777.26,0z"/>
  <path class="fil7" d="M4394.66 1265.13c503.67,-93.96 921.84,260.66 1002.91,679.45 100.14,517.27 -253.64,933.44 -671.86,1020.42 -1127.81,234.54 -1477.7,-1485.96 -331.05,-1699.87zm947.12 0.26c-842.32,-764.06 -2194.58,-15.26 -1919.88,1129.47 292.92,1220.59 2166.19,1153.65 2284.04,-200.68 15.55,-305.01 -136.29,-722.07 -364.17,-928.78z"/>
  <path class="fil12" d="M5063.87 7006.07l44.41 6.09c-49.13,-219.29 -237.41,-527 -370.16,-691.04 -211.59,-261.44 -56.14,-136.97 -171.75,-170.49 41.64,83.59 83.81,128.58 141.99,200.09 46.22,56.8 95.39,133.43 139.65,199.78 77.37,115.98 171.27,309.94 215.87,455.57z"/>
  <path class="fil4" d="M8714.24 7873.66c134.36,22.34 293.42,51.5 384.16,-19.56 -26.73,-98.69 -8.6,-75.64 -251.76,-75.91 -92.5,-0.15 -130.99,3.63 -132.4,95.47z"/>
  <path class="fil6" d="M10013.11 7523.06c-102.95,-56.31 -102.51,-161.97 -120.92,-300.42 -84.63,92.88 -96.05,156.84 -107.8,317.55l26.08 103 950.26 0.36c-7.23,-149.2 -12.18,-324.87 -126.6,-427.8 -41.54,209.99 -1.5,285.42 -198.05,343.2l40.03 -346.16 -3.38 -88.36 -90.79 -7.26c-98.16,84.31 -104.69,65.69 -223.73,16.02 -85.12,21.37 -27.54,-24.03 -76.99,40.45l13.83 235.09 -0.7 105.14c-42.48,25.97 64.47,54.25 -81.25,9.19z"/>
  <path class="fil15" d="M8836.5 5237.07l103.98 -11.89c-37.23,-58.69 -0.01,-39.19 -98.65,-48.28l29.25 -151.78c0.31,-3.15 1.74,-11.69 3.65,-17.24l119.29 -122.9 -151.6 -14.83c-82.47,128.41 -101.89,240.6 -5.93,366.91z"/>
  <path class="fil4" d="M10381.94 7117.14l90.79 7.28 3.38 88.36c35.31,-17.32 56.67,-370 57.17,-427.45 -70.81,104.89 -76.57,114.05 -183.58,219.91l32.24 111.9z"/>
  <path class="fil16" d="M8309.23 6351.33c21.86,16.43 -4.68,18.23 56.65,29.87 17.79,3.37 62.25,4.24 81.87,4.65 64.1,1.34 135.05,-2.1 200.46,-1.82 135.57,0.58 267.59,21.23 336.51,-32.69 -91.09,-34.55 -585.7,-33.74 -675.5,0z"/>
  <path class="fil4" d="M7248.01 8406.76l-12.69 38.36 -272.5 0.79c0,88.48 30.47,36.66 95.53,46.47 12.95,1.96 129.15,-0.7 153.57,0.05l190.55 -150.44c19.39,-51.11 17.75,-4.1 -5.24,-39.16l-291.62 6.96c43.47,66.77 -63.52,25.65 93.59,55.64 13,2.48 138.97,-1.1 159.62,-1.1 -67.13,64.7 5.85,25.08 -110.82,42.42z"/>
  <path class="fil17" d="M8304.93 6691.58c79.61,40.46 529.54,36.14 624.79,22.64 107.51,-15.24 8.34,4.45 59.31,-22.64l-340.83 -28.57c-104.01,-0.18 -254.16,-25.11 -343.28,28.57z"/>
  <path class="fil6" d="M10510.61 5724.52l-72.28 -11.13c-120.33,121.38 -150.92,73.82 -290.68,18.34l-44.05 -7.22c58.87,188.07 340.37,192.38 407.01,0.01z"/>
  <path class="fil4" d="M10095.08 7408.72l-13.85 -235.09c49.45,-64.48 -8.15,-19.08 77,-40.44l30.35 -129.72c-51.76,-43.77 -81.59,-74.42 -127.14,-112.15 4.56,209.12 -41.96,330.53 33.65,517.4z"/>
  <path class="fil17" d="M8441.85 6578.17c93.38,53.43 519.49,35.1 529.57,11.18 3.32,-7.9 11.66,-7.41 17.45,-11.18 -101.53,-51.97 -441.99,-46.15 -547.02,0z"/>
  <path class="fil7" d="M7891.79 8421.18c78.24,-66.06 698.94,-66 777.25,0 -76.14,60.56 -696.91,62.64 -777.25,0zm712.4 223.73l95.53 6.98 16.25 -61.91c63.76,-38.63 24.52,-11.37 38.83,-54.17 70.05,-26.48 39.41,22.43 90.17,-79.75l-105.29 -6.12 22.84 -54.18 159.4 -10.78c146.51,-17.84 299.01,-71 479.14,-48.8l256.99 67.8c51.15,-28.39 87.09,-45.86 156.68,-44.17 -6.13,-0.11 -61.79,-3.52 -63.45,-4.11 -54.6,-19.57 -56.2,-25.1 -82.43,-42.41l28.08 -61.02 172.66 -2.15c134.55,-64.49 191.58,-179.68 393.38,-200.13 277.53,-28.13 302.51,23.26 526.23,65.77 92.93,-56.53 77.27,29.48 171.89,-77.48 29.13,-32.93 70.98,-137.56 76.1,-145.49l46.29 -204.18 -1528.03 11.2 -636.01 -7.41c-401.2,-4.59 -805.29,-2.07 -1206.74,-1.47 -198.44,0.31 -396.87,-0.16 -595.3,0.02 -201.53,0.17 -442.84,53.69 -469.71,-127.62 -49.38,-58.2 -23.18,11.38 -36.55,-105.21l3.88 -1730.58c12.58,-1177.65 -162.04,-1011.4 814.2,-1010.53 602.87,0.53 1247.19,-24.2 1842.6,-3.85 150.13,5.12 1712.97,-47.82 1803.73,34.01 77.28,8.82 72.09,-36.18 111.8,83.44l11.79 1346.57 1.45 787.57c28.45,-26 164.73,-269.39 179.08,-303.56 34.88,-378.16 5.61,-906.66 5.57,-1302.25 -0.08,-836.92 91.56,-851.09 -440.84,-849.01 -869.09,3.38 -1738.91,0.22 -2608.07,0.12 -2204.15,-0.25 -1900.56,-155.32 -1900.62,707.11 -0.05,872.71 -5.99,1747.74 0.28,2620.24l3.27 9.96 71.93 148.5c-71.21,77.43 -301.22,521.03 -277.38,628.07 161.38,61.25 2013.49,15.25 2370.33,20.97zm308 -350.35c-120.49,30.49 -167.32,28.1 -290.86,7.05 12.84,-54.23 -14.62,-18.29 26.88,-55.56l234.4 -2.15 29.57 50.67zm488.89 15.49c-65.19,11.86 -122.99,23.15 -189.3,13.25 -166.4,-24.83 -77.9,8.14 -109.15,-59.87l290.98 -10.47 7.47 57.09zm-199.87 -202.8l63.6 -4.06c115.51,13.54 54.56,-21.14 84.32,62.99 -84.69,39.23 -204.2,52.92 -304.07,-0.19 43.72,-82.7 38.93,-60.24 156.16,-58.74zm-1776.61 313.93c69.48,-53.53 199.34,-73.33 280.81,0 -53.16,41.61 -106.2,56.38 -218.08,32.89 -55.25,-11.6 -34.69,-13.21 -62.72,-32.89zm-921.44 0c56.18,-51.22 59.27,-45.81 161.41,-43.01 110.38,3.02 76.11,-8.63 134.88,43.01 -70.4,54.83 -226.77,56.49 -296.29,0zm1875.59 -141.77c-70.35,70.19 -209.28,74.85 -274.67,0 36.74,-25.6 65.72,-45.93 147.38,-42.82l105.07 28.4c4.87,-7.14 14.84,9.59 22.22,14.42zm-981.51 23.42c22.98,35.06 24.62,-11.95 5.24,39.16l-190.56 150.44c-24.42,-0.75 -140.62,1.9 -153.56,-0.05 -65.06,-9.83 -95.53,42.01 -95.53,-46.47l12.87 -55.46c109.85,-12.73 170.76,-21.75 272.31,16.3 116.67,-17.33 43.69,22.31 110.83,-42.41 -20.66,0 -146.62,3.58 -159.62,1.1 -157.11,-30 -50.11,11.12 -93.59,-55.64l40.24 -65.28 232.78 7.88 18.6 50.44zm197.99 -23.42c61.33,-42.18 39.93,-41.51 145.77,-41.92 3.6,-0.01 79.6,7.13 83.78,8.07 53.04,11.94 33.95,12.88 64.21,33.84 -56.49,63.23 -34.03,48.31 -147.67,48.99 -170.96,1 -132.79,-33.91 -146.08,-48.99zm-817.44 -42.45c99.94,0.24 108.41,15.26 145.56,42.45 -23.35,25.72 29.84,49.84 -145.97,49.54 -118.6,-0.19 -92.57,14.09 -157.07,-49.54l157.48 -42.45zm3063.45 -70.97c-77.19,41.45 -200.91,45.6 -282.96,0 27.58,-18.1 -51.55,-53.19 138.58,-54.45 130.97,-0.87 103.78,-14.6 144.37,54.45zm-1619.13 31.37c-130.06,-7.14 -81.85,-2.25 -110.09,-59.72 83.75,-43.4 180.19,-38.46 258.04,0 -35.45,64.33 -16.25,66.97 -147.95,59.72zm-936.16 -1.27c-127.79,-7.67 -79.77,0.91 -110.21,-58.45 58.05,-29.96 93.25,-34.67 170.27,-29.29 125.45,8.75 78.35,-0.91 106.37,57.64 -55.34,29.56 -93.76,34.47 -166.43,30.1zm1418.01 -0.31c-146.63,-4.24 -97.09,11.5 -134.31,-61.93 58.1,-42.12 238.36,-27.15 300.63,-4.43 -34.36,77.83 -11.87,70.8 -166.32,66.35zm-935.62 -0.2c-135.7,-3 -92.49,11.12 -132.75,-57.3 29.38,-27.88 74.56,-27.5 133.84,-27.45 166.65,0.17 121.08,-14.54 163.1,55.3 -57.99,28.24 -73.96,31.46 -164.19,29.46zm-935.46 -0.14c-128.36,-5.07 -85.65,13.43 -130.17,-54.5 49.2,-50.84 223.63,-41.12 296.29,-3.3 -36.75,74.33 -52.45,62.29 -166.12,57.8zm2265.52 -341.34c-90.74,71.05 -249.79,41.9 -384.16,19.56 1.4,-91.84 39.9,-95.62 132.4,-95.47 243.16,0.27 225.03,-22.78 251.76,75.91z"/>
  <path class="fil4" d="M9264.8 8103.19l-63.59 4.05c-117.23,-1.49 -112.45,-23.95 -156.17,58.76 99.88,53.1 219.38,39.42 304.08,0.18 -29.77,-84.13 31.18,-49.46 -84.33,-62.99z"/>
  <path class="fil4" d="M8569.64 8133.87c37.22,73.41 -12.32,57.67 134.31,61.91 154.45,4.47 131.96,11.49 166.32,-66.34 -62.27,-22.73 -242.53,-37.69 -300.63,4.44z"/>
  <path class="fil7" d="M5296.84 5731.15c30.32,-34.94 -1.3,24.26 39.99,-53.66 25.25,-47.63 3.57,-3.38 20.48,-69.01l54.53 -169.92 58.47 -117.3c73.82,-113.52 204.41,-445.87 306.72,-488.74l-96.88 213.09 -65.99 85.36 -5.48 18.45c-26.04,49.86 -57.44,104.35 -83.59,186.48l-14.68 53.32 -66.88 114.24c-115.2,269.95 -242.84,680.11 -276.81,999.63l137.58 38.74c33.92,220.06 -94.58,338.53 -158.65,468.19l491.87 -19.3c129.33,-43.54 325.78,-67.22 379.09,-209.9 70.71,-189.2 -129.62,-203.75 -209.77,-316.08 59.51,-254.91 537.95,-236.58 409.25,-658.96 -176.14,-58.38 -223.88,43.18 -331.52,-33.55 25.03,-168.36 331.21,-172.45 374.55,-366.35 71.42,-319.55 -287.59,-230.56 -383.98,-288.02l-3.5 -84.72 27.2 -32.9 55.66 -78.24c99.58,-78.32 226.84,-267.36 240.68,-442.23 15.37,-194.14 -97.73,-376.24 -291.59,-360.58 -404.33,32.64 -281.36,591.96 -515.37,808.55 -151.22,-7.5 -127.85,-129.46 -313.5,-135.78 -130.6,-4.45 -222.69,72.71 -236.51,197.3 -32.61,293.82 200.78,417.74 105.61,664.41l-232.21 36.18 52.86 292.87c108.09,47.55 112.66,-41.29 251.42,-16.62 152.02,27.02 99.7,113.73 166.67,193.71l114.3 -428.66z"/>
  <path class="fil4" d="M6702.71 8140.94c44.52,67.93 1.81,49.43 130.18,54.51 113.65,4.49 129.36,16.53 166.1,-57.81 -72.65,-37.83 -247.09,-47.54 -296.29,3.3z"/>
  <path class="fil4" d="M7595.22 8279.41c13.31,15.07 -24.87,49.99 146.09,48.99 113.65,-0.67 91.19,14.24 147.67,-48.99 -30.26,-20.96 -11.17,-21.92 -64.21,-33.84 -4.18,-0.94 -80.18,-8.08 -83.78,-8.07 -105.84,0.41 -84.44,-0.27 -145.78,41.92z"/>
  <path class="fil4" d="M7635.59 8138.28c40.27,68.42 -2.94,54.3 132.75,57.3 90.22,2 106.2,-1.22 164.19,-29.46 -42.02,-69.84 3.55,-55.12 -163.1,-55.3 -59.28,-0.05 -104.46,-0.43 -133.84,27.45z"/>
  <path class="fil12" d="M3962.31 5657.45c36.62,48.53 2.7,20.82 65.82,72.17l383.06 269.71c-54.5,-118.14 -327.5,-303.5 -448.88,-341.88z"/>
  <path class="fil4" d="M6620.31 8279.41c64.5,63.63 38.47,49.34 157.07,49.54 175.81,0.3 122.62,-23.83 145.97,-49.54 -37.16,-27.19 -45.62,-42.21 -145.55,-42.45l-157.49 42.45z"/>
  <path class="fil4" d="M7175.74 8137.64c30.44,59.36 -17.57,50.78 110.21,58.45 72.67,4.36 111.1,-0.54 166.43,-30.09 -28.02,-58.55 19.08,-48.9 -106.37,-57.65 -77.04,-5.38 -112.22,-0.67 -170.27,29.29z"/>
  <path class="fil18" d="M8558.06 6464.75c72.02,46.36 350.65,54.41 428.16,0 -95.45,-40.31 -330.37,-35.96 -428.16,0z"/>
  <path class="fil4" d="M9558.28 8166c82.06,45.59 205.77,41.44 282.96,0 -40.59,-69.06 -13.4,-55.33 -144.37,-54.46 -190.13,1.26 -111.01,36.34 -138.58,54.46z"/>
  <path class="fil4" d="M6503.16 8421.18c69.52,56.49 225.89,54.83 296.29,0 -58.77,-51.64 -24.5,-39.99 -134.89,-43.01 -102.13,-2.8 -105.22,-8.21 -161.4,43.01z"/>
  <path class="fil7" d="M8816.88 8641.89l151.2 5.79c71.94,-74.06 165.3,-31.22 266.14,-48.38 -139.89,-92.73 -290.9,-41.24 -417.34,42.59z"/>
  <path class="fil4" d="M8112.02 8137.64c28.24,57.47 -19.97,52.58 110.09,59.72 131.7,7.24 112.5,4.61 147.95,-59.72 -77.85,-38.46 -174.29,-43.4 -258.04,0z"/>
  <path class="fil4" d="M8104.08 8279.41c65.39,74.85 204.32,70.19 274.67,0 -7.39,-4.83 -17.37,-21.56 -22.22,-14.41l-105.07 -28.41c-81.66,-3.11 -110.63,17.21 -147.38,42.82z"/>
  <path class="fil4" d="M7424.6 8421.18c28.03,19.68 7.48,21.29 62.72,32.89 111.88,23.49 164.93,8.72 218.08,-32.89 -81.46,-73.34 -211.33,-53.53 -280.81,0z"/>
  <path class="fil4" d="M9401.08 8310.05l-7.47 -57.09 -290.99 10.47c31.26,68 -57.24,35.04 109.16,59.88 66.31,9.89 124.11,-1.39 189.3,-13.26z"/>
  <path class="fil6" d="M12055.55 5365.97l56.96 -3.81c138.72,209.36 13.74,216.46 -2.62,367.43 74.29,59.28 175.51,149.12 320.66,184.72 158.24,38.8 360.47,-27.7 471.94,6.85 192.49,-177.67 328.71,-384.57 342.55,-731.91 13.9,-349.17 -138.4,-563.4 -405.64,-653.66l22.06 -91.29 43.16 -47.6c-171.14,-25.09 -17.54,-13.01 -85.6,29.31 -346.15,18.79 -567.16,-66.2 -770.59,166.16 -152.58,174.28 -188.02,474.47 -288.68,693.48l134.39 46.59c4.15,5.58 8.58,8.45 10.41,18.09 2.49,13.06 18.5,30.02 22.83,35.77 43.89,58.33 -18.7,-2.92 43.73,50.36l84.45 -70.49z"/>
  <path class="fil4" d="M8621.33 8301.6c123.52,21.06 170.37,23.44 290.87,-7.05l-29.58 -50.67 -234.4 2.14c-41.51,37.28 -14.05,1.34 -26.88,55.57z"/>
  <path class="fil4" d="M6962.82 8445.91l272.5 -0.79 12.69 -38.36c-101.57,-38.06 -162.48,-29.04 -272.32,-16.31l-12.87 55.46z"/>
  <path class="fil19" d="M9328.55 5236.49c33.21,-21.71 56.06,28.76 69.15,-75.83 19.1,-152.69 -15.19,-61.8 -40.8,-94.03 -85.61,44.28 -50.94,-36.27 -62.47,67.17 -16.7,149.94 17.44,71.73 34.12,102.68z"/>
  <polygon class="fil4" points="7105.62,8309.79 7397.24,8302.83 7378.64,8252.39 7145.86,8244.52 "/>
  <path class="fil6" d="M7063.09 7463.3c-42.47,69.61 -35.88,85.27 -17.82,179.58l758.91 -16.32 207.33 18.64c38.02,-203.73 -39.33,-401.2 -172.15,-483.26l-180.46 7.2c-55.34,240.11 -203.54,204.17 -246.84,-4.53l-181.17 -9.39c-104.68,69.84 -159.47,143.13 -167.81,308.08z"/>
  <path class="fil20" d="M9293.57 5010.17l65.75 -1.55c-26.92,-119.51 -63.63,-134.05 -197.18,-117.3 80.8,43.37 86.09,62.21 131.43,118.85z"/>
  <polygon class="fil4" points="9668.88,8313.3 9958.03,8318.05 9856.35,8324.4 9869.61,8250.12 9696.95,8252.27 "/>
  <path class="fil7" d="M4566.12 1481.9c6.63,-13.81 70.56,-10.18 0,-159.37 -39.1,27.12 -41.59,-45.44 -51.18,69.31 -9.97,119.36 24.09,72.35 51.18,90.06z"/>
  <path class="fil7" d="M4537.78 2671.22c-48.05,74.23 -42.71,94.13 0,163.08 76.37,-43.75 81.31,-120.77 0,-163.08z"/>
  <path class="fil7" d="M5167.36 2085c37.89,90.87 148.3,113.05 165.47,-13.9l-165.47 13.9z"/>
  <path class="fil7" d="M3774.38 2126.57c18.8,13.93 -47.32,37.54 82.89,33.37 114.16,-3.66 65.42,-22.73 80.42,-33.37 -10.96,-7.86 32.15,-34.93 -80.29,-32.66 -131.63,2.65 -55.22,13.15 -83.02,32.66z"/>
  <polygon class="fil4" points="8739.69,8449.94 8844.98,8456.06 8921.94,8384.97 8762.53,8395.76 "/>
  <path class="fil6" d="M9068 14686.98c-96.73,21.23 -122.1,8.19 -187.94,67.07 -113.81,-4.91 -196.03,9.85 -298.99,64.77 -35.19,378 644.58,282.65 945.92,283.5 141.24,0.39 464.54,25.17 571.17,-40.29 163.66,-100.48 84.51,-356.21 -3.79,-488.89 -78.08,57.22 -153.75,173.74 -330.6,133.73 -132.59,-30 -184.88,-135.82 -220.42,-268.86 -44.69,32.42 -102.06,65.33 -163.81,101.86 -55.69,32.95 -129.26,56.69 -164.53,91.96l-147.02 55.14z"/>
  <path class="fil12" d="M4566.37 6150.63l-155.9 -156.22c30.8,77.18 -6.69,41.91 62.58,112.18 88.34,89.63 9.59,24.3 93.32,44.04z"/>
  <path class="fil20" d="M8949.87 5118.94l138.32 1.17c-49.03,-43.8 20.09,-44.58 -74.29,-47.85 -128.84,-4.46 -23.67,0.37 -64.03,46.68z"/>
  <path class="fil21" d="M10481.05 12074.48l11.48 -45.26c-38.4,-17.99 -29.83,-4.9 -60.18,-29.42 25.18,74.92 -3.46,33.62 48.71,74.67z"/>
  <path class="fil20" d="M9114.41 5119.9l70.21 -38.92c-82.99,18.9 -12.39,-9.45 -70.21,38.92z"/>
  <path class="fil5" d="M8869.43 4829.34l695.3 0c87.23,0 158.58,71.35 158.58,158.57l0 451.34c0,87.23 -71.35,158.58 -158.58,158.58l-222.92 0c-4.95,1.43 -9.97,3.02 -15.09,4.77 -21.72,80.74 7.14,89.14 36.18,190.95 -148.95,-74.51 -178.16,-162.17 -299.71,-195.73l-193.76 0c-35.65,0 -68.64,-11.92 -95.19,-31.96l-18.96 -2c-4.1,-9.63 -7.82,-18.86 -11.19,-27.77 -20.81,-26.83 -33.24,-60.47 -33.24,-96.86l0 -451.34c0,-87.22 71.35,-158.57 158.58,-158.57z"/>
  <path class="fil5" d="M8970.46 6137.69l-695.31 0c-87.22,0 -158.58,71.35 -158.58,158.58l0 451.34c0,87.22 71.36,158.58 158.58,158.58l222.93 0c4.95,1.42 9.97,3.01 15.08,4.76 21.72,80.75 -7.13,89.15 -36.17,190.96 148.95,-74.52 178.16,-162.18 299.71,-195.73l193.76 0c35.65,0 68.64,-11.93 95.18,-31.97l18.98 -1.99c4.1,-9.64 7.82,-18.86 11.18,-27.77 20.82,-26.84 33.25,-60.47 33.25,-96.86l0 -451.34c0,-87.23 -71.35,-158.58 -158.58,-158.58z"/>
  <polygon class="fil7" points="7282.01,5997.54 7456.36,5997.5 7456.9,5156.51 7287,5155.59 "/>
  <path class="fil5" d="M8348.42 5115.55l61.29 63.92c-15.68,32.29 -224.29,239.6 -252.03,256.13 -59.08,-43.71 -212.13,-224.09 -255.89,-241.52l-263 262.66c10.64,25.74 29.53,44.29 54.5,57.53l207.78 -201.32c52.57,29.75 186.34,194.93 256.61,242.08 60.17,-40.18 272.85,-287.81 323.98,-305.69 19.62,23.81 35.14,44.01 70.07,59.74l69.21 -268.09c-44.99,2 -245.42,55.74 -272.53,74.56z"/>
  <path class="fil7" d="M6769.48 5646.29c33.78,-28.32 93.73,-63.13 140.59,-76.27 7.61,109.31 -0.93,116.17 -95.26,147.01 -8.51,-24.47 -5.09,-15.14 -19.94,-34.23l-25.4 -36.51zm-24.18 -225.9c49.85,-26.76 107.72,-65.02 166.13,-84.96l-5.11 105.36c-59.15,19.03 -103.63,70.2 -161.35,74.89l0.15 374.97c44.69,-25.51 112.72,-70.41 166.72,-87.43 0.26,85.37 18.28,91.62 -51.4,128.94 -37.98,20.35 -71.65,46.37 -114.47,51.52 18.08,15.22 -5.93,2.66 20.6,10.29 21.37,6.14 -7.73,0.12 16.59,3.18l132.74 -2.58 -2.04 -681.03 -168.94 0.86 0.38 106z"/>
  <path class="fil4" d="M7631.66 5992.51c72.4,9.72 878.95,7.08 989.84,1.87l1.37 -55.33c-63.85,-1.78 -931.42,-7.9 -992.18,4.19l0.97 49.26z"/>
  <path class="fil4" d="M8622.35 5734.21l-0.53 -50.03c-50.09,-14.89 -479.39,-8.95 -591.74,-5.33l-376.83 2.53c-2.28,0.87 -46.95,10.71 -14.75,44.23 22.2,23.11 406.97,11.25 443.01,10.81 175.91,-2.15 367.64,7.81 540.84,-2.21z"/>
  <path class="fil4" d="M7631.7 5807.15l-0.35 58.7 990.99 -0.39 -0.34 -57.26c-123.11,-5.57 -541.4,4.96 -594.28,-4.82 -58.86,-10.87 12.46,-4.52 -18.85,-4.05 -0.02,0 -36.69,6.17 -49.02,6.74l-328.16 1.08z"/>
  <path class="fil5" d="M7185.92 5903.98c-47.78,11.44 -110.87,56.89 -159.53,79.65 -8.49,-80.03 -14.21,-94.29 45.56,-124.22 38.43,-19.24 78.18,-46.53 112.72,-56.84l-0.25 -132.06 -160.5 81.34 -0.03 -99.75 162.3 -82.81 -8.48 -31.48 -163.05 1.93 0.37 455.65 169.85 0.76 1.02 -92.17z"/>
  <path class="fil4" d="M6745.11 5890.65l0.85 93.03c42.82,-5.14 76.48,-31.17 114.47,-51.52 69.68,-37.33 51.66,-43.58 51.4,-128.94 -54,17.02 -122.03,61.92 -166.72,87.43z"/>
  <path class="fil4" d="M6745.3 5420.39l-0.34 95.29c57.72,-4.68 102.2,-55.86 161.35,-74.89l5.11 -105.36c-58.4,19.94 -116.28,58.2 -166.13,84.96z"/>
  <polygon class="fil4" points="7184.43,5670.5 7186.21,5569.29 7023.9,5652.09 7023.93,5751.85 "/>
  <path class="fil4" d="M7185.92 5903.98l-1.24 -101.41c-34.55,10.32 -74.29,37.6 -112.72,56.84 -59.77,29.93 -54.06,44.19 -45.56,124.22 48.66,-22.76 111.75,-68.21 159.53,-79.65z"/>
  <path class="fil4" d="M6769.48 5646.29l25.4 36.51c14.85,19.09 11.42,9.76 19.94,34.23 94.32,-30.84 102.87,-37.69 95.26,-147.01 -46.86,13.14 -106.81,47.95 -140.59,76.27z"/>
  <path class="fil7" d="M15879.65 7685.07l46.03 -222.36 133.37 11.56c43.84,180.49 21.62,220.62 -179.4,210.81zm-1306.76 -504.7c79.29,125.85 2.05,391.39 90.52,555.16 94.91,175.67 177.18,180.16 362.38,288.7 -16.53,12.47 68.71,73.48 -116.73,9.65 -366.38,-126.12 -425,-650.54 -346.97,-837.51 1.57,-3.75 6.91,-10.88 10.8,-15.99zm-374.93 591.63l-7.68 63.56c185.33,21.48 245.58,-38.75 358.38,70.55 211.38,350.76 916.56,490.02 1237.49,-56.58 112.91,-3.28 216.23,9.12 303.24,-38.09 140,-75.95 305.68,-409.02 -168.4,-510.68l-1.85 -244.59 -1544.29 3.66c0.24,361.82 -24.08,468.6 100.4,768.37 -37.29,5.36 -125.27,18.11 -160.37,14.36 -121.52,-13 -126.15,36.49 -116.91,-70.57z"/>
 </g>
</svg>
