<?xml version="1.0" encoding="UTF-8"?>
<!DOCTYPE svg PUBLIC "-//W3C//DTD SVG 1.1//EN" "http://www.w3.org/Graphics/SVG/1.1/DTD/svg11.dtd">
<!-- Creator: CorelDRAW 2018 (64-Bit Evaluation Version) -->
<svg xmlns="http://www.w3.org/2000/svg" xml:space="preserve" width="316.442mm" height="152.047mm" version="1.1" style="shape-rendering:geometricPrecision; text-rendering:geometricPrecision; image-rendering:optimizeQuality; fill-rule:evenodd; clip-rule:evenodd"
viewBox="0 0 31664.65 15214.57"
 xmlns:xlink="http://www.w3.org/1999/xlink">
 <defs>
  <style type="text/css">
   <![CDATA[
    .str0 {stroke:#3B9CFF;stroke-width:169.44;stroke-miterlimit:22.9256}
    .str1 {stroke:#ddedff;stroke-width:211.81;stroke-miterlimit:22.9256}
    .str3 {stroke:#3B9CFF;stroke-width:135.56;stroke-miterlimit:22.9256}
    .str2 {stroke:#3B9CFF;stroke-width:7.62;stroke-miterlimit:22.9256}
    .fil1 {fill:none}
    .fil10 {fill:#5AEEBC}
    .fil11 {fill:#5AEEBC}
    .fil8 {fill:#010103}
    .fil9 {fill:#3B9CFF}
    .fil3 {fill:#3B9CFF; opacity: 0.45}
    .fil14 {fill:#74C5F0}
    .fil7 {fill:#ddedff}
    .fil12 {fill:#dcfbf0}
    .fil4 {fill:#dcfbf0}
    .fil5 {fill:#5AEEBC;}
    .fil13 {fill:#5AEEBC;}
    .fil15 {fill:white}
    .fil0 {fill:#FFFFFF;fill-opacity:0.149020}
    .fil2 {fill:#5AEEBC;fill-opacity:0.12}
    .fil6 {fill:#ddedff;fill-opacity:0.639216}
   ]]>
  </style>
 </defs>
 <g id="Layer_x0020_1">
  <metadata id="CorelCorpID_0Corel-Layer"/>
  <path class="fil0" d="M31664.65 15214.57l-31664.65 0 0 -15214.57 31664.65 0 0 15214.57zm-26893.42 -10882.74l-2508.19 1766.96 2504.78 -5252.64 2532.63 5235.56 -2529.22 -1749.88zm6818.49 4978.33l-3446.59 2428.09 3441.94 -7217.9 3480.2 7194.41 -3475.55 -2404.6zm8237.82 -2891.26l-1830.45 1289.53 1827.98 -3833.35 1848.3 3820.87 -1845.82 -1277.06zm8761.42 -3044.84l-1789.21 1260.46 1786.78 -3746.95 1806.64 3734.76 -1804.21 -1248.27zm-6816.29 9246.71l-2028.75 1429.19 2026 -4248.58 2048.51 4234.76 -2045.75 -1415.38z"/>
  <polyline class="fil1 str0" points="30501.95,11264.35 28184.93,11255.8 28247.55,13998.1 30423.68,14194.59 "/>
  <polygon class="fil2" points="11589.74,9310.17 8143.14,11738.24 11585.08,4520.34 15065.29,11714.74 "/>
  <polygon class="fil0" points="10695.15,8691.13 7847.37,10697.34 10691.3,4733.5 13566.85,10677.93 "/>
  <polygon class="fil2" points="19827.55,6418.9 17997.1,7708.43 19825.08,3875.08 21673.39,7695.94 "/>
  <polygon class="fil0" points="19352.44,6090.14 17840.02,7155.62 19350.4,3988.28 20877.57,7145.3 "/>
  <polygon class="fil2" points="28588.96,3374.05 26799.76,4634.51 28586.55,887.56 30393.19,4622.31 "/>
  <polygon class="fil2" points="4771.22,4331.81 2263.04,6098.79 4767.84,846.14 7300.46,6081.69 "/>
  <polyline class="fil1 str1" points="5937.86,11943.95 8636.62,9631.94 8645.45,11582.31 7229.74,12599.78 "/>
  <polygon class="fil0" points="28124.56,3052.7 26646.23,4094.16 28122.57,998.22 29615.32,4084.08 "/>
  <polygon class="fil0" points="4120.21,3881.33 2047.81,5341.31 4117.4,1001.27 6210.02,5327.17 "/>
  <polygon class="fil2" points="21772.67,12620.76 19743.95,14049.96 21769.93,9801.37 23818.45,14036.13 "/>
  <polygon class="fil0" points="21246.1,12256.38 19569.85,13437.28 21243.84,9926.85 22936.43,13425.85 "/>
  <path class="fil3" d="M27603.77 11747.1c23.89,196.23 131.48,400.97 248.5,453.04l-2.09 80.1 -780.3 0.08c-46.67,389.55 -187.87,889.61 -93.43,1216.66 39.4,136.46 76.14,255.79 123.11,383.77 56.98,155.25 134.22,224.58 -6.71,335.42 -21.47,-8.13 -144.92,75.9 -218.88,94.48 31.34,79.66 76.85,35.2 11.99,113.05 -1.05,-2.36 0.88,-9.67 0.88,-7.72l0.37 -21.37c-10.17,-27.66 30.36,5.25 -18.61,-14 -31.22,-12.29 -60.13,43.77 -3.61,-40.24 -23.08,2.08 -45.2,12.34 -52.57,11.62 -56.87,-5.52 21.51,19.26 -8.75,-7.82 -0.38,-0.34 -1.94,-3.73 -2.38,-4.09l-123.58 -59.75c24.94,-73.25 -33.55,-149.23 -70.07,-223.28 -51.72,63.3 -83.92,209.52 -119.27,300.29l-117.62 20.4c-59,-25.19 -106.75,-24.85 -172.63,-50.08 -67.25,-25.78 -104.44,-55.63 -156.72,-78.3 -50.64,-116.62 112.01,-588.79 170.61,-776.01 43.95,-140.43 50.81,-120.95 -10.32,-249.89 -412.93,-870.97 -774.54,-1468.98 223.93,-1666.31 409.61,-80.95 831.38,-81.69 1227.86,-153.17 -24.48,142.63 -54.11,166.53 -49.72,343.12z"/>
  <path class="fil4" d="M26642.45 10340.18c-122.77,19.98 -1394.96,20.18 -1476.77,-4.99 -62.67,-46.27 -175.13,-426.84 -209.78,-526 -47.83,-136.92 -165.81,-405.85 -182.18,-531.49l1483.42 2.3c42.39,68.33 364.89,952.88 385.3,1060.19z"/>
  <path class="fil4" d="M28456.3 10028.27c-38.81,56.01 -50.46,46.04 -103.04,86.38 -45.88,35.19 -57.97,55.4 -100.03,99.66 -37.45,-10.87 -288.88,176.56 -318.16,198.01 -199.76,146.31 -242.9,484.58 -669.33,353.2 -183.47,-56.53 -271.63,-74.94 -485.12,-60.56l5.51 30.9c3.74,34.52 6.75,-2.79 3.66,41.51 -1.85,26.56 -7.54,28.35 -21.34,67.7 -70.75,-31.62 -199.16,-20.09 -253.49,-46.5 -67.04,-32.59 -19.15,-35.08 -68.63,-88.01 -30.23,-32.34 -45.26,-21.55 -87.71,-66.71 -3.84,-45.55 -6.15,-132.28 7.88,-175.48 16.35,-50.38 -5.61,-20.15 35.97,-51.38 19.91,-14.95 32.91,-12.32 35.26,-12.5l204.73 -64.3c-169.48,-0.31 -1429.32,28.45 -1476.77,-4.99 81.8,25.18 1354,24.98 1476.77,4.99l448.68 21.79c30.49,-0.81 41.43,0.97 70.96,-6.16 45.88,-11.09 9.66,3.77 37.86,-19.23 73.21,51.37 241.63,27.52 244.88,25.91l605.96 -933.74c75.62,-118.37 117.35,-224.29 252.55,-277.52 408.61,108.37 279.5,573.65 152.95,877.05z"/>
  <path class="fil3" d="M28905.83 8701.11c-113.85,63.72 -334.71,68.63 -403.76,-26.09 -114.13,-156.56 117.81,-205.02 3.71,-437.39 -220.93,-38.67 -185.22,79.38 -240.08,223.07 -196.95,-61.14 -96.61,-341.43 -389.11,-439.35 -110.16,-122.52 -240.37,-441.98 127.21,-466.18 210.57,-13.87 937.93,-336.39 1073.61,488.74 34.08,207.3 -34.11,584.3 -171.59,657.21z"/>
  <path class="fil3" d="M27199.95 10336.58c-28.21,23 8.02,8.15 -37.86,19.23 -29.53,7.13 -40.47,5.35 -70.96,6.16 -21.2,-96.62 -394.31,-1126.25 -432.24,-1177.07l-2036.88 -6.67c43.06,204.65 182.43,536.36 258.93,741.15 89.14,238.6 172.78,486.46 260.32,716.22l686.98 4.77c58.75,58.91 20.24,12.91 71.78,17.48 58.86,5.22 -17.76,-1.02 64.46,26.14 73.26,-61.95 78.61,-43.52 174.28,-37.92 69.39,4.05 144.83,-1.74 219.84,-2.22 42.45,45.16 57.48,34.37 87.71,66.71 49.48,52.92 1.59,55.42 68.63,88.01 54.34,26.41 182.75,14.88 253.49,46.5 112.94,17.65 215.27,29.03 334.63,49.25 -78.97,18.36 -145.75,10.75 -217.11,8.58 -78.86,-2.41 -132.26,14.09 -227.07,6.2 -371.47,-30.9 -965.04,26.33 -1344.9,-9.22 -9.42,-127.8 -1.15,-130.53 -78.94,-182.3 -60.28,-40.12 -132.93,-68.09 -221.72,-53.31l-434.69 -1175.67c-195.67,-546 -300.22,-439.45 997.42,-439.45 378.69,0 757.78,-1.34 1135.38,4.67 78.68,101.2 201.98,486.17 254.51,631.22 74.71,206.23 177.1,447.18 234,651.54z"/>
  <path class="fil5" d="M28999.2 8980.41c264.94,90.08 531.75,340.83 499.95,708.82l17.04 326.86 -796.87 1.1c-93.94,-0.74 -184.86,17.56 -263.03,11.08 126.55,-303.4 255.67,-768.68 -152.95,-877.05l89.38 -81.03c184.6,-105.91 364.46,-156.61 606.47,-89.78z"/>
  <path class="fil5" d="M26527.29 9719.3l259.06 1.39 -35.36 -108.82 -269.03 -2.38 45.34 109.81zm-66.67 -162.64l263.56 -1.33 -41.11 -109.07 -268.15 0.33 45.7 110.07zm158.62 -275.05l-270.81 3.15 48.45 105.89 104.83 1.37 69.89 0.66 85.39 -6.17 -37.74 -104.9zm471.9 1080.36l-448.68 -21.79c-20.41,-107.31 -342.91,-991.85 -385.3,-1060.19l-1483.42 -2.3c16.37,125.64 134.35,394.58 182.18,531.49 34.64,99.16 147.11,479.73 209.78,526 47.45,33.44 834.7,14.88 1004.18,15.19l479.76 -9.85 -172.38 60.21 -414.12 38.87 -192.24 47.86c-66.86,21.79 -134.5,-0.05 -124.03,50.78 60.79,23.61 133.35,-1.4 202.72,6.25 -36.1,23.56 -72.23,64.83 -121.33,95.87l-686.98 -4.77c-87.54,-229.76 -171.18,-477.62 -260.32,-716.22 -76.5,-204.79 -215.87,-536.5 -258.93,-741.15l2036.88 6.67c37.93,50.82 411.04,1080.45 432.24,1177.07z"/>
  <path class="fil3 str2" d="M25313.99 10899.88c379.86,35.54 973.43,-21.68 1344.9,9.22 94.81,7.89 148.21,-8.62 227.07,-6.2 71.36,2.17 138.14,9.79 217.11,-8.58 128.4,20.09 248.45,39.18 374.99,59.32 166.73,26.55 188.78,20.01 309.53,-55.51l168.06 4.93c-24.69,55.95 -55.12,128.55 -101.58,172.88l-2548.9 5.22 -123.4 3.09 -2191 -2.4 -132.55 1.18 -362.54 -1.17 1.11 -181.93 2313.51 -0.36c46.4,1.95 92.53,4.68 138.14,5.13 22.59,0.23 47.16,1.61 69.83,-1.38 68.32,-9.01 38.09,17.95 52.05,-21.05 32.14,41.25 8.74,7.55 38.93,22.17l64.59 34.98c4.25,-4.77 12.8,7.15 17.89,12.29 -64.44,19.85 -121.65,39.3 -157.1,-21.34 -3.56,28.58 7.94,29.84 28.3,40.56 119.93,63.07 66.17,-47.69 251.06,-71.06z"/>
  <path class="fil6" d="M28905.83 8701.11l4.78 124.73c-230.86,-43.48 -315.5,20.96 -473.55,79.63 -14.87,-87.35 -9.01,-30.52 -31.64,-58.87 -554.37,19.59 -484.04,-354.41 -528.83,-825.25 292.5,97.92 192.16,378.21 389.11,439.35 54.86,-143.69 19.14,-261.74 240.08,-223.07 114.09,232.37 -117.85,280.83 -3.71,437.39 69.05,94.72 289.91,89.81 403.76,26.09z"/>
  <path class="fil4" d="M28162.85 10408.14c-40.8,62.53 -72.04,96.04 -117.43,167.54 -39.8,62.67 -83.98,103.36 -122.73,169.74l-135.1 152.72c-120.75,75.52 -142.8,82.05 -309.53,55.51 -126.54,-20.14 -246.59,-39.23 -374.99,-59.32 -119.36,-20.22 -221.68,-31.6 -334.63,-49.25 13.8,-39.36 19.49,-41.15 21.34,-67.7 3.09,-44.3 0.08,-6.98 -3.66,-41.51l-5.51 -30.9c213.5,-14.38 301.66,4.03 485.12,60.56 426.44,131.39 469.57,-206.88 669.33,-353.2 29.28,-21.44 280.7,-208.88 318.16,-198.01 -28.77,58.73 -51.72,145.96 -90.38,193.83z"/>
  <path class="fil5" d="M27984.57 11501.26c-62.7,27.42 -98.4,89.58 -168.02,136.53 -87.66,59.11 -103.12,68.46 -212.79,109.31 -4.38,-176.59 25.25,-200.49 49.72,-343.12 48.11,-67.5 191.21,-272.68 200.59,-328.03 46.46,-44.33 76.89,-116.94 101.58,-172.88l49.15 -157.03 -82.11 -0.62c38.75,-66.38 82.93,-107.07 122.73,-169.74 45.39,-71.5 76.63,-105.01 117.43,-167.54 10.73,24.5 8.62,9.62 7.2,47.91 -0.23,6.14 -9.61,60.11 -11.78,71.59l-173.7 973.63z"/>
  <path class="fil7" d="M26358.61 10643.85c-75.01,0.48 -150.45,6.27 -219.84,2.22 -95.67,-5.59 -101.03,-24.03 -174.28,37.92 -82.22,-27.16 -5.6,-20.91 -64.46,-26.14 -51.53,-4.57 -13.03,41.43 -71.78,-17.48 49.1,-31.04 85.23,-72.32 121.33,-95.87 -69.37,-7.65 -141.93,17.35 -202.72,-6.25 -10.47,-50.83 57.17,-28.99 124.03,-50.78 -162.58,-20.48 -37.15,15.35 -147.7,-27.01 3.52,-3.39 8.95,-6.68 12.13,-8.26 3.18,-1.57 8.55,-5.77 12.63,-7.48 56.44,-23.61 123.87,-12.83 184.75,-12.39l130.43 7.27c-155.09,-26.51 -285.73,24.47 -367.34,-36.24 49.29,-34.13 611.88,-22.21 741.93,1.12 -2.35,0.18 -15.35,-2.45 -35.26,12.5 -41.59,31.23 -19.62,1 -35.97,51.38 -14.03,43.21 -11.72,129.93 -7.88,175.48z"/>
  <path class="fil5" d="M27852.27 12200.15c-117.03,-52.07 -224.62,-256.82 -248.5,-453.04 109.67,-40.85 125.13,-50.2 212.79,-109.31 31.3,-21.1 54.11,-151.13 136.13,-166.48 100.44,-18.79 262.14,78.13 296.65,63.04l-397.07 665.79z"/>
  <path class="fil5" d="M26370.75 14377.75c-76.14,71.56 -314.97,228.95 -476.28,199.4 -128.09,-154.68 60.42,-245.25 146.93,-327.78 52.28,22.67 89.47,52.52 156.72,78.3 65.88,25.24 113.63,24.9 172.63,50.08z"/>
  <path class="fil5" d="M26677.7 14280.33l123.58 59.75c0.44,0.36 2,3.75 2.38,4.09 30.26,27.08 -48.12,2.29 8.75,7.82 7.37,0.72 29.49,-9.54 52.57,-11.62 -56.52,84 -27.61,27.95 3.61,40.24 48.97,19.25 8.45,-13.66 18.61,14l-0.37 21.37c0,-1.94 -1.93,5.36 -0.88,7.72 64.86,-77.85 19.35,-33.39 -11.99,-113.05 73.96,-18.58 197.41,-102.61 218.88,-94.48 -27.67,102.44 -278.2,316.54 -365.24,366.29 -89.95,51.39 -204.57,26.05 -187,-100.14 6.18,-44.36 110.49,-178.97 137.09,-201.98z"/>
  <path class="fil4" d="M28999.2 8980.41c-242.02,-66.83 -421.87,-16.13 -606.47,89.78 6.62,-73.04 26.56,-114.93 44.34,-164.72 158.04,-58.67 242.69,-123.11 473.55,-79.63 48.39,43.41 71.46,65.17 88.59,154.57z"/>
  <path class="fil3" d="M25313.99 10899.88c-184.89,23.37 -131.13,134.13 -251.06,71.06 -20.36,-10.72 -31.86,-11.98 -28.3,-40.56 35.45,60.64 92.66,41.2 157.1,21.34 -5.09,-5.13 -13.64,-17.06 -17.89,-12.29l-64.59 -34.98c-30.19,-14.62 -6.78,19.07 -38.93,-22.17l-57 -218.01c88.8,-14.78 161.44,13.2 221.72,53.31 77.79,51.76 69.52,54.5 78.94,182.3z"/>
  <polygon class="fil4" points="26414.92,9446.59 26683.07,9446.26 26724.18,9555.33 26460.62,9556.67 "/>
  <polygon class="fil4" points="26481.95,9609.49 26750.98,9611.87 26786.35,9720.69 26527.29,9719.3 "/>
  <polygon class="fil4" points="26656.98,9386.51 26571.6,9392.69 26501.71,9392.03 26396.88,9390.66 26348.43,9284.77 26619.24,9281.62 "/>
  <polygon class="fil8" points="27955.65,10903.07 27787.59,10898.13 27922.69,10745.41 28004.8,10746.03 "/>
  <path class="fil5" d="M1003.14 8671.17l7.2 -295.9c68.78,-14.24 108.78,32.38 170.75,70.42 176.79,108.5 1051.02,673.29 1081.47,715.04l191.92 19.56c15.48,-292.19 164.5,-548.72 329.48,-754.32 178.29,-222.16 149.66,-160.39 164.77,-133.74 12.62,-11.92 27.09,19 29.56,-40.9l-1.92 -25.92c-280.37,-188.38 -232.04,-685.91 11.92,-878.97 195.08,-154.37 319.03,-0.12 536.75,-30.5 237.45,-33.14 300.43,-211 369.95,-265.2l20.93 130.17c0.49,-2.31 2.01,8.83 4.2,12.71 28.96,-31.34 61.97,-84.78 112.22,-112.88l-34.68 187.47c97.41,-16.17 113.8,-66.61 188.95,-91.29 0.37,219.34 -36.19,360.75 -201,422.54 -11.83,44.11 36,132.67 72.77,159.24l68.17 -33.06 1242.04 970.65c68.08,53.65 142.47,90.7 169.44,148.65 -63.66,60.51 -577.76,373.5 -652.15,386.57 -67.01,-70.88 -136.84,-124.82 -215.32,-185.2l-633.81 -519.19c-57.68,7.1 -21.3,22.31 -99.82,25.2 -76.36,2.81 -236.03,-53.71 -345.55,-66.46 45.39,121.99 60.93,33.42 94.11,139.67 37.69,-22.24 48.07,-13.81 104.1,16.04 35.55,18.93 69.56,42.43 99.36,67.58 64.98,54.85 96.2,105.34 96.57,214.34 297.76,93.21 492.26,341.65 541.54,713.14l-39.1 36.61 39.43 65.72c217.76,29.82 520.64,-232.43 532.92,-277.8 40.98,-151.25 -2.76,-221.44 123.56,-304.48 97.22,-63.89 466.85,-127.67 385.18,111.26 72.47,11.81 125.47,73.82 148.84,145.56 -48.14,48.4 -322.73,257.55 -387.5,279.73l-58.95 -37.26c-12.26,62.93 14.19,12.94 -36.72,66.26 -21.87,22.9 -47.54,39.75 -69.77,57.64 -50.81,40.92 -81.98,70.73 -129.36,108.53 -158.92,126.79 -459.4,355.97 -674.42,237.68 -73.44,-40.41 -173.4,-173.09 -187.58,-289.67l-145.44 65.43c-58.9,-40.99 -168.26,-206.68 -226.91,-264.37 -31.54,-31.03 8.62,-2.3 -37.26,-29.75 6.5,223.41 -2.42,257.38 -65.62,447.76 35.5,68.87 1372.35,912.73 1545.26,1022.25 149.8,94.88 378.83,264.29 526.97,331.1 170.82,-101.88 432.23,-354.67 607.35,-489.37 59.1,-45.46 170.49,-120.07 208.57,-189.96l-53 -383.75c124.19,38.53 214.58,137.37 319.43,186.44 127.15,-110.49 273.13,-216.54 403.99,-329.38 82.28,-70.96 347.91,-266.29 397.6,-336.8 -156.1,-58.4 -412.07,-112.42 -340.1,-319.75 53.16,-153.16 274.47,-268.09 320.18,-389.55 -78.93,-76.02 -308.67,-97.15 -254.88,-279.46 41.19,-139.58 201.5,-200.91 300.31,-289.06 -94.72,-18.33 -164.67,-93.96 -244.14,-142.73l-452.78 -301.92c-50.7,-17.01 -432.73,-261.54 -482.47,-307.42l-23.92 -17.77 -1.36 311.71 -1017.77 -527.46c-30.47,41.54 -18.65,127.03 -13.64,178.5 65.49,44.49 131.93,72.42 194.73,112.62 69.33,44.38 108.89,70.34 174.4,119.51 60.23,45.21 102.96,93.35 153.07,141.31 223.98,214.32 21.17,398.65 -640.46,16.97 -134.22,-77.43 -506.14,-316.97 -446.92,-492.81 110.62,-86.01 218.97,8.68 330.32,1.53l2.55 -190.34c-50.82,-85.2 -630.92,-318.14 -754.08,-424.2l35.95 -534.09 -443.66 -275.58c-108.37,51.93 -1379.04,935.78 -1535.17,1038.59l-1533.39 1036.73c9.29,57.57 3.28,107.08 -0.66,165.19l0.84 127.22c10.63,41.3 3.16,22.46 21.65,47.37z"/>
  <path class="fil9" d="M7680.04 8588.24c-98.81,88.15 -259.13,149.48 -300.31,289.06 -53.78,182.31 175.95,203.44 254.88,279.46 -45.71,121.46 -267.01,236.39 -320.18,389.55 -71.97,207.32 184,261.35 340.1,319.75l367.88 74.72 95.29 19.53c61.45,1.28 113.79,7.99 170.77,14.55 99.79,11.5 87.11,1.21 142.47,62.59 -11.35,-83.9 -7.69,-17.73 17.49,-42.93l311.91 18.86 10.17 178.65c39.5,-48.19 22.99,-36.21 20.25,-134.41l12.02 -589.06c-77.67,-77.99 -259.71,-163.66 -368.26,-224.58 -118.58,-66.56 -255.73,-159.45 -363,-209 198.27,32.97 567.71,242.48 738.61,252.04l18.02 -605.59 -484.15 -260.51 488.52 135.09 4.57 -408.04c-45.07,-33.96 -313.41,-201.71 -340.95,-213.73l353.24 95.57 22.84 -295.41 17.84 298.01 340.7 -95.78c-78.63,45.12 -263.29,154.34 -331.88,211.53l24.73 410.11 477.07 -131.23c-133.73,82.76 -372.65,185.49 -470.22,253.12l44.73 638.62 382.2 -130.58c-3.39,4.17 -8.18,9.14 -11,11.84 -66.69,63.79 -288.42,179.72 -368.47,215.82l38.98 593.91c284.12,-26.73 561.81,-142.55 770.44,-321.18 228.94,-196.01 172.48,-342.06 -90.56,-441.43 -89.46,-33.79 -138.68,-21.83 -163.01,-112.54 91.22,-94.51 459.76,-128.41 231.22,-707.56 -94.44,-239.32 -192.94,-233.73 -189.57,-331.65 4.28,-124.73 153.13,-190.19 56.31,-415.02 -86.46,-200.75 -870.06,-957.05 -1130.4,-999.14 -45.81,205.23 -47.7,184.53 -32.66,402.38 26.7,386.92 21.48,557.74 -240.66,715.35 -80.68,48.5 -301.87,110.96 -343.53,147.24 60.26,102.35 434.27,190.36 232.54,365.17 -87.29,75.63 -321.01,212.24 -436.96,276.85z"/>
  <path class="fil10" d="M1868.14 9272.03c-161.7,63.34 -418.54,364.28 -474.46,602 -68.54,111.73 -93.88,503.47 -108.53,668.13l10.49 228.71 313.16 218.15c97.05,37.56 1112.79,682.48 1149.67,731.2 88.5,34.1 160.12,97.97 236.87,144.95 240.97,97.61 87.79,143 418.12,70.35 84.1,-18.5 398.21,-78.53 431.44,-115.46 73.95,-11.99 108.32,-26.52 173.42,-51.3 16.76,-6.38 56.17,-20.39 65.89,-24.89 57.63,-26.65 34.75,-8.38 67.46,-48.63 0.16,0.04 1.91,-0.18 2.23,-0.26l47.49 -5.53c86.67,-67.43 155.36,-117.44 213.3,-219.63 21.15,-37.32 53.69,-113.44 62.27,-160.51 17.53,-96.15 -15.42,-97.79 -91.92,-109.21 -56.5,-45.05 -259.49,-17.19 -324.46,33.54 -88.43,-8.84 -257.24,54.02 -356.22,75.25 -171.66,36.79 -246.33,19.17 -387.94,-26.39l3.49 -191.09c-0.99,-490.27 5.65,-815.97 -174.94,-1231.88 -81.35,-187.36 -141.2,-285.29 -275.64,-424.28 -135.98,-140.58 -191.95,-171.25 -414.86,-254.94l-191.92 -19.56c-161.97,-0.85 -290.29,41.51 -394.43,111.3z"/>
  <path class="fil9" d="M2454.49 9180.29c222.9,83.69 278.88,114.36 414.86,254.94 134.44,138.99 194.29,236.92 275.64,424.28 180.6,415.91 173.95,741.61 174.94,1231.88l13.2 -399.05c186.71,25.63 281.22,74.37 504.51,46.62 179.43,-22.29 300.92,-93.34 435.58,-117.66 -112.02,-70.55 -194.09,-200.8 -492.87,-336.64 -63.9,-29.06 -151.65,-46.25 -205.43,-82.46 78.86,-67.21 60.04,-75.1 123.45,-146.69 63.2,-190.38 72.13,-224.35 65.62,-447.76 45.88,27.45 5.72,-1.28 37.26,29.75 58.65,57.69 168.01,223.38 226.91,264.37l145.44 -65.43 314.37 -163.19 39.1 -36.61c-49.28,-371.49 -243.78,-619.93 -541.54,-713.14 -203.08,-23.55 -289.87,-1.59 -451.78,68.59 -118.46,51.34 -274.51,105.31 -417.8,49.91 -255.3,-98.69 -249.42,-471.84 -167.21,-749.78 -15.11,-26.66 13.52,-88.43 -164.77,133.74 -164.99,205.6 -314,462.13 -329.48,754.32z"/>
  <path class="fil11" d="M6978.54 11432.52c38.32,40.73 66.63,61.79 135.24,87.56 3.77,1.42 63.36,11.18 86.21,21.79 60.11,27.96 38.87,-2.59 33.21,66.37l21.26 -47.89 59.08 12.35c-20.22,123.44 -148.16,278.14 -59.88,444.71 215.24,-24.78 415.2,32.32 680.61,-238.47 229.83,-234.47 259.11,-421.71 361.46,-567.6l30.15 -89.33 316 66.25c290.75,52.12 972.09,22.41 966.62,-197.37 -35.68,-137.82 -186.31,-111.09 -167.56,-157.55l-375.17 -51.59 5.34 277.49 -314.55 -0.79 3.73 -273.92c-30.21,3.91 -60.66,10.47 -91.13,8.02 -46.22,-3.73 -28.32,1.05 -56.61,-17.45 -17.9,42.51 -1.35,20.26 -48.67,39.49 -8.09,3.28 -55.6,12.98 -72.95,17.36 -47.99,12.11 -85.43,27.28 -142.87,39.09 -99.7,99.06 -106,47.67 -83.78,219.14 -124.53,-1.91 -267.65,70.15 -361.68,98 100.08,-222.73 202.06,-533.12 190.49,-832.74 -86.5,42.8 -164.96,96.8 -239.81,150.32 -66.44,47.51 -177.84,145.41 -227.8,169.22l-48.22 50.51c-78.69,74.83 -208.34,209.27 -240.21,309.61 -62.25,-46.46 -91.87,-118.4 -137.32,-171.05 -46.91,-54.37 -91,-90.69 -126.09,-147.94 -47.89,-22.48 -196.47,-152.79 -220.7,-183.87 -104.85,-49.07 -195.24,-147.91 -319.43,-186.44l53 383.75 87.7 320.28c42.84,57.55 81.4,154.37 125.35,214.36 48.87,66.7 115.72,135.98 178.97,168.34z"/>
  <path class="fil5" d="M8295.73 11211.34c62.62,176.11 113.9,484.66 163.31,689.03l137.56 592.35c8.19,28.85 2.46,16.33 14.39,41.19 63.05,131.26 505.49,78.38 644.11,64.17 102.29,-16.18 89.39,-32.11 112.83,-140.93 52.56,-244.09 351.44,-1426.31 342.51,-1466.25 -52.26,-90.91 -142.33,-147.19 -269.49,-157.55 -18.75,46.46 131.88,19.73 167.56,157.55 5.47,219.78 -675.87,249.49 -966.62,197.37l-316 -66.25 -30.15 89.33z"/>
  <path class="fil12" d="M2976.38 8225.42l1.92 25.92c46.38,195.96 69.25,429.92 193.2,533.1 72.73,60.55 197.64,62.35 294.67,13.23 96.92,-49.07 159.54,-109.77 219.33,-172.12 -33.18,-106.25 -48.72,-17.68 -94.11,-139.67 109.52,12.75 167.93,55.68 244.29,52.86 16.37,31.35 117.04,-161.09 165.53,-285.91 6.06,-35.28 9.41,-162.3 -48.69,-319.08 -28.52,-76.96 28.95,-283.76 17.62,-369.19 -36.76,-26.58 3.66,79.02 15.49,34.91 -119.91,28.15 -286.75,-13.4 -441.55,26.64 -137.92,35.67 -177.56,106.26 -215.19,243.92 -75.95,-36.18 -166.4,-71.9 -172.44,59.54 -4.57,99.4 58.24,139.33 90.22,207.75 -75.68,29.46 -166.4,72.48 -270.28,88.1z"/>
  <path class="fil13" d="M3319.93 11091.4l-3.49 191.09c141.61,45.56 216.28,63.18 387.94,26.39 98.98,-21.22 267.79,-84.08 356.22,-75.25 64.97,-50.73 267.96,-78.59 324.46,-33.54 76.5,11.42 109.45,13.06 91.92,109.21 -8.58,47.07 -41.12,123.19 -62.27,160.51 -57.94,102.2 -126.63,152.2 -213.3,219.63l-90.09 800.93c86.81,7.82 163.31,-13.25 240.02,9.46 46.71,-107.63 107.99,-564.8 132.21,-720.55 25.42,-163.46 79.27,-599.93 125.21,-720.04 63.33,-289.83 -88.57,-379.82 -335.54,-437.93 -134.66,24.32 -256.16,95.36 -435.58,117.66 -223.28,27.75 -317.8,-20.99 -504.51,-46.62l-13.2 399.05z"/>
  <path class="fil9" d="M3967.46 7603.17c11.33,85.43 -57.02,280.66 -28.5,357.62 58.1,156.78 61.38,363.23 -50.59,497.79l-52.69 80.15 834.9 507.59c78.48,60.38 148.31,114.32 215.32,185.2 74.39,-13.07 588.49,-326.06 652.15,-386.57 -26.97,-57.95 -101.36,-94.99 -169.44,-148.65l-1242.04 -970.65 -159.1 -122.49z"/>
  <path class="fil7" d="M4273.22 10621.31c246.97,58.12 398.87,148.11 335.54,437.93 111.4,46.97 278.86,176.09 386.98,247.75 105.06,69.64 294.66,208.26 393.03,250.59l4.45 72.09 22.14 -49.73c102.19,88.68 201.59,107.02 248.48,192.71 100.64,-1.76 32.2,52.97 134.47,20.17 27.86,-8.94 82.89,-66.58 113.34,-92.23 64.68,-54.5 148.75,-119.33 203.49,-169.84l-41.17 -134.79 165.67 38.31c28.1,-49.57 158.96,-140.37 210.74,-185.29 65.79,-57.08 187.92,-148.25 223.83,-199.18l-87.7 -320.28c-38.08,69.9 -149.48,144.5 -208.57,189.96 -175.12,134.7 -436.53,387.49 -607.35,489.37 -148.15,-66.81 -377.17,-236.22 -526.97,-331.1 -172.91,-109.52 -1509.76,-953.38 -1545.26,-1022.25 -63.41,71.6 -44.59,79.48 -123.45,146.69 53.78,36.21 141.53,53.4 205.43,82.46 298.78,135.84 380.85,266.09 492.87,336.64z"/>
  <path class="fil9" d="M4690.86 5910.85c117.37,16.3 1543.41,507.84 1653.62,568.07 34.07,142.64 -4.25,1238.23 -16.19,1457.16 -85.05,-1.9 -1066.51,-545.53 -1285.61,-655.2 -139.7,-69.93 -278.05,-154.08 -432.09,-219.61l80.27 -1150.41zm-197.33 620.8l-35.95 534.09c123.16,106.07 703.26,339.01 754.08,424.2l220.89 100.25c3.41,1.61 9.8,4.89 12.56,6.21 2.75,1.32 8.65,3.63 12.5,6.24l1017.77 527.46c10.19,-192.96 -20.73,-943.61 34.68,-1045.6 -41.49,-168.89 8.69,-484.91 -4.46,-678.97l-1954.3 -684.06 -57.76 810.16z"/>
  <path class="fil10" d="M2016.32 12010.4l-22.89 111.14c135.75,-142.59 234.82,-17.42 300.2,54.75 44.37,9.34 383.36,225.8 427.86,262.05 -136.21,81.91 -286.62,170.62 -422.04,253.17 -115.06,70.15 -305.74,206.13 -421.68,250.43 -23.94,129.24 -145.83,236.73 18.33,368.05 -13.6,-120.17 12.6,-194.24 85.99,-240.49 52.2,-32.9 73.25,-28.22 162.42,-24.78l90.69 22.41 -36 -77.91c13.64,-15.28 22.83,-25.46 55.68,-47.5l527.71 -312.02 5.94 580.48c-96.6,68.76 -122.84,68.96 -117.42,216.43l-3.4 23.99c26.07,-28.98 35.12,-150.05 205.04,-154.43 168.46,-4.33 179.69,89.49 211.34,149.71 2.38,4.54 5.43,11.49 9.45,16.33l-6.15 -142.91c-47.92,-69.79 -35.86,-51.01 -106.46,-109.1l-4.88 -618.49c153.71,66.11 320.87,195.91 476.14,278.54l6.55 74.08 49.52 -55.57c100.99,-62.48 193.67,8.66 236.3,36.19 -13.85,-151.21 -78.37,-146.84 -293.89,-275.01 -114.38,-68.02 -251.23,-144.8 -347.82,-218.76l258.8 -157.78c35.2,-59.16 61.27,-97.42 152.38,-93.9 81.71,3.15 97.24,45.71 133.73,89.63 0.35,-77.2 -7.45,-137.06 -72.34,-166.14 -77.88,-34.91 -56.05,7.7 -142.42,-40.42 -33.35,-18.58 -2.19,-16.16 -46.77,-27.66 -115.43,65.8 -270.14,180.95 -395.66,228.88 23.26,91.84 -36.86,138.57 -137.11,133.6 -121.85,-6.05 -114.24,-76.79 -83.59,-177.63 -139.63,-34.51 -430.73,-263.2 -594.17,-337.9 -85.37,81.88 -11.43,50.81 -159.35,128.54z"/>
  <path class="fil10" d="M5611.84 7096.77c84.25,32.54 76.78,23.08 70.1,119.1 -93.86,-21.1 -200.74,-67.31 -290.47,-101.95 -43.53,-16.8 -88.76,-33.35 -134.34,-49.58 -79.41,-28.28 -75.66,-23.63 -72.45,-115.38 79.57,7.42 219.58,69.95 292.94,98.7 47.52,18.62 78.92,27.76 134.22,49.11zm-410.06 -292.96c104.12,18.31 904.06,321.33 985.87,372.07l-2.61 81.64 -913.44 -334.48c-81.74,-31.03 -77.22,-24.29 -69.82,-119.24zm798.32 143.51c222.45,80.97 193.59,49.89 191.15,158.18 -95.11,-12.89 -615.69,-222.94 -781.46,-283.55 -233.59,-85.42 -201.07,-51.44 -191.73,-164.34 143.88,28.05 588.36,219.21 782.04,289.71zm-253.28 -261.24c365.98,134.53 453.42,112.66 445.22,278.68l-968.84 -362.68 7.9 -94.87c64.05,-0.79 423.25,144.88 515.72,178.88zm-664.71 572.64c185.44,80.62 1078.77,586.47 1179.09,593.5l12.62 -1049.39c-288.45,-76.69 -903.77,-360.45 -1112.05,-399.64l-79.66 855.52z"/>
  <path class="fil5" d="M8770.52 10192.03l-10.23 592.5 -3.73 273.92 314.55 0.79 -5.34 -277.49 -48.88 -771.98 -38.98 -593.91c80.05,-36.1 301.78,-152.03 368.47,-215.82 2.82,-2.7 7.6,-7.66 11,-11.84l-382.2 130.58 -44.73 -638.62c97.57,-67.63 336.5,-170.36 470.22,-253.12l-477.07 131.23 -24.73 -410.11c68.59,-57.19 253.25,-166.41 331.88,-211.53l-340.7 95.78 -17.84 -298.01 -22.84 295.41 -353.24 -95.57c27.54,12.02 295.88,179.77 340.95,213.73l-4.57 408.04 -488.52 -135.09 484.15 260.51 -18.02 605.59c-170.9,-9.57 -540.34,-219.07 -738.61,-252.04 107.28,49.54 244.43,142.43 363,209 108.55,60.92 290.59,146.58 368.26,224.58l-12.02 589.06c2.74,98.19 19.24,86.22 -20.25,134.41z"/>
  <path class="fil5" d="M7229.74 12599.78l18.46 326.23c-97.18,10.3 -94.41,-6.46 -97.3,-98.84 -2.33,-74.4 -1.51,-150.63 -3.42,-225.54 -874.77,141.5 -597.64,797.47 145.63,767.57 781.62,-31.43 786.71,-766.3 -63.37,-769.42z"/>
  <path class="fil9" d="M2976.38 8225.42c103.89,-15.62 194.61,-58.64 270.28,-88.1 -31.98,-68.42 -94.79,-108.35 -90.22,-207.75 6.04,-131.44 96.49,-95.72 172.44,-59.54 37.62,-137.66 77.27,-208.24 215.19,-243.92 154.8,-40.04 321.64,1.51 441.55,-26.64 164.81,-61.79 201.37,-203.2 201,-422.54 -75.15,24.68 -91.54,75.12 -188.95,91.29l34.68 -187.47c-50.25,28.1 -83.26,81.54 -112.22,112.88 -2.19,-3.88 -3.71,-15.02 -4.2,-12.71l-20.93 -130.17c-69.51,54.21 -132.5,232.06 -369.95,265.2 -217.72,30.38 -341.67,-123.87 -536.75,30.5 -243.96,193.05 -292.29,690.59 -11.92,878.97z"/>
  <path class="fil5" d="M5161.77 6403.2c208.27,39.19 823.6,322.95 1112.05,399.64l-12.62 1049.39c-100.32,-7.03 -993.65,-512.88 -1179.09,-593.5l79.66 -855.52zm-422.91 -162.06l309.71 104.23c-40.28,30.28 30.2,32.46 -74.34,16.96 -10.14,-1.5 -111.17,-54.24 -195.79,-70.2l-10.11 182.93 272.73 100.58c8.4,-47.95 5.65,-70.59 9.05,-115.28 7,-92.39 4.48,-70.07 23.52,-96.26 37.3,43.75 14.64,-10.64 26.57,60.46l-14.43 157.31c-13.42,112.76 -23.31,570.02 -93.38,631.71 -79.38,-51.48 -217.64,-128.63 -308.87,-162.35l55.35 -810.08zm18.21 -254.28l1526.07 528.32 -5.5 178.32c-182.83,-31.69 -571.05,-194.63 -769.18,-263.27 -140.19,-48.57 -691.92,-218.93 -767.32,-281.83l15.93 -161.53zm-146.48 1074.41c154.04,65.53 292.39,149.69 432.09,219.61 219.1,109.67 1200.57,653.3 1285.61,655.2 11.94,-218.93 50.26,-1314.52 16.19,-1457.16 -110.21,-60.23 -1536.25,-551.77 -1653.62,-568.07l-80.27 1150.41z"/>
  <path class="fil11" d="M6115.15 11530.76c55.97,99.64 91.33,202.87 148.61,305.92 62.9,113.16 123.59,194.74 198.03,278.77 156.19,176.29 355.7,265.53 691.12,250.28l16.26 -253.64c-15.99,-18.91 -4.55,-1.52 -24.64,-35.29 -10.79,-18.15 -9.7,-17.59 -19.38,-37.82 -187.48,-391.59 -629.53,-478.48 -885.49,-604.68l-165.67 -38.31 41.17 134.79z"/>
  <path class="fil5" d="M7333.91 13924.02c90.66,-21.61 218.5,-63.88 284.51,-113.04 71.57,-53.29 77.56,-179.09 135.18,-252.38l123.67 -322.96c-26.06,-19.99 -25.27,15.51 -109.3,65.38 -292.71,173.72 -767.6,179.37 -1057.21,-3.59 -35.51,-22.42 -88.22,-75.6 -105.65,-74.56 15.23,88.15 155.84,400.51 205.04,507.99 73.61,160.77 295.55,215.7 523.76,193.17z"/>
  <path class="fil12" d="M4487.97 9673.26l-314.37 163.19c14.18,116.58 114.14,249.26 187.58,289.67 215.02,118.29 515.49,-110.89 674.42,-237.68 47.38,-37.8 78.55,-67.61 129.36,-108.53 22.22,-17.89 47.89,-34.73 69.77,-57.64 50.91,-53.32 24.47,-3.33 36.72,-66.26 -35.55,-87.31 -103.87,-242.16 -33.06,-334.28 85.92,-111.78 229.61,-8.93 330.67,-53.75 81.67,-238.93 -287.96,-175.15 -385.18,-111.26 -126.32,83.03 -82.58,153.23 -123.56,304.48 -12.29,45.37 -315.16,307.62 -532.92,277.8l-39.43 -65.72z"/>
  <path class="fil9" d="M5457.6 7602.65c-3.85,-2.61 -9.75,-4.92 -12.5,-6.24 -2.76,-1.32 -9.15,-4.6 -12.56,-6.21l-220.89 -100.25 -2.55 190.34c-111.35,7.14 -219.7,-87.54 -330.32,-1.53 -59.22,175.84 312.7,415.38 446.92,492.81 661.64,381.68 864.45,197.35 640.46,-16.97 -50.11,-47.96 -92.84,-96.1 -153.07,-141.31 -65.51,-49.17 -105.07,-75.13 -174.4,-119.51 -62.8,-40.21 -129.23,-68.13 -194.73,-112.62 -5.01,-51.46 -16.83,-136.96 13.64,-178.5z"/>
  <path class="fil7" d="M1003.14 8671.17l151.07 96.6 -3.6 101.31 28.17 -83.53c65.76,36.79 311.68,191.63 334.46,241.81 41.28,7.95 327.7,163.27 354.91,244.68 104.14,-69.8 232.45,-112.15 394.43,-111.3 -30.45,-41.76 -904.68,-606.54 -1081.47,-715.04 -61.97,-38.03 -101.97,-84.65 -170.75,-70.42l-7.2 295.9z"/>
  <path class="fil7" d="M6852.95 10532.24c24.24,31.08 172.81,161.38 220.7,183.87 114.37,-68.64 206.55,-186.43 327.26,-257.01 20.11,-47.68 236.42,-207.64 294.54,-257.88 66.61,-57.6 263.81,-240.04 326.96,-260.45l-367.88 -74.72c-49.69,70.51 -315.31,265.84 -397.6,336.8 -130.86,112.84 -276.84,218.89 -403.99,329.38z"/>
  <path class="fil3" d="M2948.74 8292.24c-82.21,277.94 -88.09,651.08 167.21,749.78 143.29,55.4 299.34,1.43 417.8,-49.91 161.91,-70.19 248.7,-92.14 451.78,-68.59 -0.37,-109 -31.59,-159.49 -96.57,-214.34 -29.81,-25.16 -63.81,-48.65 -99.36,-67.58 -56.03,-29.85 -66.4,-38.28 -104.1,-16.04 -59.79,62.35 -122.41,123.05 -219.33,172.12 -97.03,49.12 -221.94,47.32 -294.67,-13.23 -123.94,-103.18 -146.82,-337.14 -193.2,-533.1 -2.47,59.9 -16.94,28.98 -29.56,40.9z"/>
  <path class="fil14" d="M4741.14 6148.39c75.4,62.9 627.13,233.26 767.32,281.83 198.13,68.64 586.35,231.58 769.18,263.27l5.5 -178.32 -1526.07 -528.32 -15.93 161.53z"/>
  <path class="fil14" d="M7229.74 12599.78c850.08,3.12 844.99,737.99 63.37,769.42 -743.27,29.9 -1020.4,-626.07 -145.63,-767.57l-0.62 -58.78c-207.38,21.31 -395.76,83.35 -513.93,190.95 -128.65,117.13 -180.66,353.4 -27.82,489.06 17.43,-1.04 70.14,52.13 105.65,74.56 289.62,182.96 764.5,177.31 1057.21,3.59 84.03,-49.87 83.24,-85.38 109.3,-65.38 60.51,-75.1 107.15,-206.49 94.41,-299.09 -36.43,-264.88 -441.35,-396.49 -725.32,-394.42 -29.57,-87.28 -7.47,-152.25 -9.99,-243.46l-6.63 301.11z"/>
  <path class="fil14" d="M4683.51 7051.22c91.23,33.71 229.49,110.86 308.87,162.35 70.08,-61.69 79.96,-518.95 93.38,-631.71l14.43 -157.31c-11.93,-71.1 10.74,-16.71 -26.57,-60.46 -19.03,26.2 -16.51,3.87 -23.52,96.26 -3.39,44.7 -0.65,67.33 -9.05,115.28l-272.73 -100.58 10.11 -182.93c84.61,15.96 185.65,68.69 195.79,70.2 104.54,15.5 34.06,13.32 74.34,-16.96l-309.71 -104.23 -55.35 810.08z"/>
  <path class="fil5" d="M4178.91 12733.65l-143.44 4.09 -73.9 275.2 963.38 12.72c-22.5,-111.61 -153.13,-194.31 -267.33,-243.22 -177.34,-75.94 -285.09,-49.74 -478.71,-48.79z"/>
  <path class="fil9" d="M2667.7 13450.61c-39.57,168.98 61.65,311.29 222.16,306.27 133.97,-4.2 264.19,-152.61 203.66,-294.66 -4.01,-4.84 -7.06,-11.79 -9.45,-16.33 -31.65,-60.22 -42.88,-154.04 -211.34,-149.71 -169.92,4.38 -178.98,125.45 -205.04,154.43z"/>
  <path class="fil9" d="M1896.1 13309.99c33.5,93.44 106.78,172.06 222.48,167.35 125.52,-5.12 163.48,-71.49 205.13,-157.19 1.12,-195.54 -20.45,-141.7 -88.53,-253l-90.69 -22.41c-89.17,-3.44 -110.21,-8.13 -162.42,24.78 -73.39,46.25 -99.58,120.32 -85.99,240.49z"/>
  <path class="fil9" d="M5271.45 9656l58.95 37.26c64.77,-22.18 339.36,-231.33 387.5,-279.73 -23.37,-71.75 -76.37,-133.76 -148.84,-145.56 -101.07,44.83 -244.76,-58.03 -330.67,53.75 -70.81,92.12 -2.49,246.97 33.06,334.28z"/>
  <path class="fil10" d="M2769.85 12219.76c-30.65,100.85 -38.25,171.58 83.59,177.63 100.24,4.97 160.36,-41.76 137.11,-133.6l4.79 -398.62c-76.75,-46.98 -148.38,-110.85 -236.87,-144.95l11.38 499.53z"/>
  <path class="fil9" d="M1993.43 12121.55c-112.03,50.45 -71.67,194.32 -17.14,274.88 195.55,112.47 350.46,14.75 317.35,-220.13 -65.38,-72.17 -164.46,-197.34 -300.2,-54.75z"/>
  <path class="fil12" d="M5223.2 6602.08l968.84 362.68c8.21,-166.02 -79.24,-144.15 -445.22,-278.68 -92.47,-33.99 -451.67,-179.67 -515.72,-178.88l-7.9 94.87z"/>
  <path class="fil9" d="M3458.72 12944.33c-81.97,153.69 -12.2,169.3 52.18,274.72l59.44 4.37c216.28,6.12 220.09,-135.91 174.2,-298.46 -42.64,-27.54 -135.32,-98.67 -236.3,-36.19l-49.52 55.57z"/>
  <path class="fil12" d="M6191.26 7105.51c2.43,-108.29 31.3,-77.21 -191.15,-158.18 -193.68,-70.5 -638.15,-261.66 -782.04,-289.71 -9.34,112.89 -41.86,78.92 191.73,164.34 165.77,60.61 686.34,270.67 781.46,283.55z"/>
  <path class="fil12" d="M6187.65 7175.88c-81.81,-50.74 -881.75,-353.76 -985.87,-372.07 -7.4,94.95 -11.93,88.21 69.82,119.24l913.44 334.48 2.61 -81.64z"/>
  <path class="fil5" d="M7233.19 11608.24l-64.03 503.85 -16.26 253.64 -6.04 177.12 0.62 58.78c1.91,74.91 1.09,151.14 3.42,225.54 2.89,92.38 0.12,109.14 97.3,98.84l-18.46 -326.23 6.63 -301.11 17.28 -281.26c-88.28,-166.57 39.66,-321.27 59.88,-444.71l-59.08 -12.35 -21.26 47.89z"/>
  <path class="fil9" d="M3361.64 12273.4c-56.45,301.97 354.95,292.24 286.11,-4.27 -36.48,-43.92 -52.01,-86.48 -133.73,-89.63 -91.11,-3.52 -117.18,34.74 -152.38,93.9z"/>
  <path class="fil12" d="M4035.47 12737.74l143.44 -4.09c72.03,-40.68 134.32,-36.89 218.22,-36.92 -7.27,-63.61 -7.58,-148.06 -45.8,-196.9 -76.71,-22.7 -153.21,-1.64 -240.02,-9.46l-75.85 247.37z"/>
  <path class="fil12" d="M5681.94 7215.87c6.68,-96.01 14.16,-86.56 -70.1,-119.1 -55.3,-21.35 -86.7,-30.49 -134.22,-49.11 -73.36,-28.76 -213.37,-91.28 -292.94,-98.7 -3.21,91.76 -6.96,87.11 72.45,115.38 45.58,16.23 90.81,32.78 134.34,49.58 89.73,34.63 196.61,80.84 290.47,101.95z"/>
  <path class="fil3" d="M20715.6 3156.57c-77.53,56.8 -156.07,158.35 -232.89,226.94 -92.3,82.41 -181.26,100.3 -252.12,212.85 -44.65,70.92 -166.54,162.34 -229.29,235.27 -77.02,89.51 -585.64,1092.35 -627.78,1231.48 -26.99,89.14 -123.32,246.63 -134.52,323.61 14.99,14.75 31.6,26.25 43.18,45.49 69.35,29.56 94.26,42.58 180.39,61.23l46.37 3.12c174.08,-210 630.77,-821.71 742.34,-1091.93 39.73,58.28 35.41,158.35 62.11,230.06 14.24,38.24 11.05,15.35 24.47,51.38 30.34,81.48 115.66,576.21 157.2,639.02 105.99,6.1 111.8,-4.9 191.39,-33.71 34.57,-58.15 67.63,-491.57 68.07,-583.3 0.54,-109.18 -4.44,-215.29 -9.73,-324.15 -4.82,-99.27 14.06,-206.19 24.28,-304.51l130.45 0.76 79.91 1524.58c5.03,93.67 -9.04,193.83 39.02,188.32 34.53,-17.23 16.88,27.08 23.77,-46.43l-3.1 -163.92c-5.13,-459.67 -27.09,-1080.51 -16.11,-1502.58l507.02 0.2 -1.47 227.89c31.73,-48.95 22.31,-197.12 9.69,-239.28l-515.42 -6.18c7.28,-61.63 53.37,-35.94 211.74,-36.74 82.93,-0.41 165.54,-1.98 248.52,-1.51 165.66,0.93 343.23,4.79 507.8,-0.75l6.81 57.57 4.35 -68c-63.74,-16.42 -558.96,-12.38 -647.62,-5.34l-487.24 17.57c-25.46,0.02 -50.77,1.18 -75.79,1.43 -64.04,0.65 -62.04,-3.55 -84.17,-21.24 -1.74,-47.07 -5.74,-73.43 136.76,-101.24 150.19,-29.31 321.19,-45.55 467.01,-54.61 68.24,-4.24 43.3,-24.09 87.35,-30.41 12.11,-1.74 48.56,-0.14 63.13,-0.24 14.87,-3.34 5.57,-25.5 75.18,-35.42 74.47,-10.62 72.16,-19.45 118.26,-83.14l70.69 -96.72c-73.52,-67.04 -89.72,-52.93 -131.72,-174.02 -15.59,-44.95 -65.22,-196.55 -64.25,-230.42l-28.36 -34.51c-25.02,-35.28 6.42,-0.08 -8.32,-16.45l22.07 88.86c-78.35,-27.94 -92.26,-77.97 -154.2,-89.62 -44.53,-8.37 -596.82,-10.53 -645.23,8.77z"/>
  <path class="fil11" d="M19193.45 2926.89l5.53 25.29c362.5,-6.39 725.81,-0.68 1084.72,-0.78 97.13,-0.03 1050.43,13.85 1064.65,-13.03 -48.42,-83.13 -274.76,-48.25 -383.93,-48.3 -139.35,-0.08 -283.71,5.47 -422.05,1.06l-65.11 -0.92c19.87,-63 -63.27,-326.18 -85.15,-408.68 -36.53,-137.8 -71.1,-284.69 -106.53,-416.16 -178.03,6.91 -1192.15,-22.48 -1259.5,13 -20.03,51.43 68.63,330.82 87.86,406.02 22.43,87.78 68.72,347.18 111.19,397.48 -29.96,33.92 -17.05,1.8 -31.69,45.03z"/>
  <path class="fil3 str2" d="M17664.51 3134.53l1255.03 7.17c286.94,12.93 607.92,0.7 899.54,0.68l873.14 2.61c30.49,8.4 5.31,-4.45 23.38,11.58 48.41,-19.29 600.7,-17.13 645.23,-8.77 61.94,11.65 75.85,61.68 154.2,89.62l-22.07 -88.86c14.74,16.37 -16.7,-18.83 8.32,16.45l28.36 34.51 -11.29 -54.65c218.1,-1.66 130.64,-9.6 178.03,124.95 22.85,64.9 34.65,56.92 56.84,65.95 32.89,-61.19 -40.38,-50.58 -40.26,-192.77l97.89 0.39c16.53,81.07 6.01,151.95 3.75,228.26 42.9,-54.17 18.12,-164.1 19.35,-226.39l79.54 -2.66 13.61 113.06 -1.44 -112.82 1283.8 -6.15c103.24,-21.72 96.61,-169.59 -18.6,-182.39 -85.85,-9.55 -232.39,-0.62 -324.72,-0.62 -215.33,0.01 -440.4,6.23 -654.48,-1.2l-374.62 -4.79c-170.44,7.28 -322.47,-1.47 -488.67,-9.33 -14.22,26.88 -967.52,13 -1064.65,13.03 -358.91,0.1 -722.22,-5.61 -1084.72,0.78l-5.53 -25.29c-29.99,37.88 1.01,15.93 -33.47,28.36l-1361.44 -0.14c-71.79,-0.05 -159.44,-10.8 -191.98,37.44 -43.55,64.57 -4.64,135.01 57.96,141.97z"/>
  <path class="fil13" d="M20987.21 1623.35c-84.02,158.42 -98.49,131.22 -79.39,405.5 4.74,68.23 17.75,146.88 23.9,216.72 7.88,89.54 -18.97,117.34 -35.51,193.33 -25.7,84.11 -53.89,128.14 -44.01,225.18l6.62 96.22c9.95,34.51 79.11,24.89 109.59,30.28 166.84,29.56 48.57,49.66 374.57,27.6 209.06,-14.15 296.23,-53.9 457.23,-116.64l-12.85 -110.3c-34.33,-184.81 -144.59,-587.81 -98.19,-747.19 13.25,-45.51 31.79,-70.27 58.74,-90.66 58.68,-44.44 64.1,-17.35 84.3,-76.42 -88.88,-2.28 -230.26,-93.8 -326.6,-109.81 -68.43,2.03 -110.55,22.62 -184.84,23.01 -95.5,0.5 -88.62,-20.66 -146.93,-40.63l-186.63 73.81z"/>
  <path class="fil11" d="M21814.59 3371.66c11.44,72.21 -17.8,160.34 -31.75,233.94l-57.25 -1.63 -70.69 96.72c-46.1,63.69 -43.79,72.53 -118.26,83.14 -69.61,9.93 -60.31,32.08 -75.18,35.42 -14.57,0.1 -51.02,-1.5 -63.13,0.24 -44.05,6.32 -19.1,26.17 -87.35,30.41 -145.82,9.06 -316.83,25.3 -467.01,54.61 -142.5,27.81 -138.5,54.17 -136.76,101.24 22.13,17.69 20.13,21.89 84.17,21.24 25.02,-0.25 50.33,-1.41 75.79,-1.43l487.24 -17.57c88.66,-7.03 583.88,-11.08 647.62,5.34 73.35,-3.66 56.24,-73.11 64.88,-149.39 24.47,-215.85 69.15,-561.07 88.64,-722.2 -107.52,0.52 -214.22,-0.07 -321.62,3.52 -1.23,62.29 23.55,172.22 -19.35,226.39z"/>
  <path class="fil7" d="M20635.16 2525.89c4.94,61.25 -88.25,147.96 -154.66,166.11 14.13,29.75 18.74,70.49 27.43,105.56 4.62,18.69 7.23,36.78 11.55,53.05 12.99,48.94 -16.38,13.16 22.9,40.52 138.34,4.41 282.7,-1.14 422.05,-1.06 109.17,0.05 335.51,-34.83 383.93,48.3 166.2,7.86 318.23,16.61 488.67,9.33 105.86,-4.18 240.88,-27.82 277.93,-104.27 29.91,-61.69 19.29,-281.33 24.63,-361.13l-14.44 13.38c-77.87,63.62 -243.56,98.76 -337.78,95.56l12.85 110.3c-160.99,62.73 -248.17,102.49 -457.23,116.64 -326,22.06 -207.73,1.96 -374.57,-27.6 -30.48,-5.39 -99.64,4.23 -109.59,-30.28 -31.97,19.62 -42.39,17.48 -92.64,16.1 15.22,-36.75 18.41,-32.08 40.39,-62.92 4.34,-6.1 14.64,-22.58 17.23,-25.63 26.17,-30.82 2.44,-6.3 28.4,-23.78 -9.89,-97.03 18.31,-141.06 44.01,-225.18 -104.23,-7.31 -149.97,-41.1 -229.14,-63.91 -3.19,26.49 -6.41,52.66 -10.12,79.09l-21.79 71.82z"/>
  <path class="fil3" d="M21787.36 2591.24c94.22,3.2 259.91,-31.94 337.78,-95.56l14.44 -13.38 54.5 -23.44c-7.64,-71.94 -160.32,-509.31 -163.51,-534.84 -4.36,-35.07 -7.34,-16.86 7.62,-35.13l-17.95 -18.35c-30.63,-39.2 -60.49,-190.2 -188.03,-193.58 -20.2,59.07 -25.63,31.98 -84.3,76.42 -26.95,20.39 -45.49,45.15 -58.74,90.66 -46.4,159.38 63.86,562.38 98.19,747.19z"/>
  <path class="fil7" d="M21528.55 4308.25c1.47,82.59 -27.17,1411.91 -11.11,1467.42l8.85 17.98c53.02,-7.06 39.77,-15.42 41.78,-79.92l84.51 -1625.82c46.44,-18.48 174.4,-15.82 224.48,-2.31l14.58 302.12 -0.01 0 0.09 1.79 29.85 618.63c0.7,-0.93 1.37,-2.02 2.06,-3.17l40.54 781.76 53.13 4.75 -24.71 -1305.6c5.17,-53.03 7.3,-99.38 4.64,-166.76 -2.36,-59.57 -10.79,-188.42 0.45,-237.76l-6.81 -57.57c-164.57,5.54 -342.14,1.68 -507.8,0.75 -82.98,-0.47 -165.59,1.1 -248.52,1.51 -158.36,0.8 -204.45,-24.89 -211.74,36.74l515.42 6.18c12.63,42.17 22.04,190.33 -9.69,239.28z"/>
  <path class="fil7" d="M21492.46 1049.28l-9.31 16.9c-7.13,43.86 -7.7,42.36 -38.93,57.64 2.67,-93.21 14.23,-33.78 -25.93,-51.07 -3.3,56.36 -55.52,100.86 -128.86,81.89 -72.51,-18.75 -53.11,-79.57 -87.3,-114.54 -55.05,38.35 -20.56,152.97 -194.57,77.11 0.44,80.38 15.02,136.77 48.5,203.27 41.31,82.04 68.04,76.78 125.48,124.48l-7.71 104.59c58.31,19.96 51.42,41.13 146.93,40.63 74.29,-0.39 116.41,-20.98 184.84,-23.01 -37.5,-44.58 -37.55,-239.28 2.53,-292.48l43.09 -75.63c15.05,-41.13 31.99,-76.49 40.68,-114.75 -36.9,-41.82 -10.47,-74.05 -90.73,-73.86l-8.72 38.85z"/>
  <path class="fil11" d="M22139.58 2482.3c-5.33,79.8 5.28,299.44 -24.63,361.13 -37.05,76.45 -172.07,100.08 -277.93,104.27l374.62 4.79c83.58,-381.7 279.72,-937.55 -173.45,-1063.6 -14.97,18.27 -11.99,0.06 -7.62,35.13 3.18,25.53 155.86,462.9 163.51,534.84l-54.5 23.44z"/>
  <path class="fil3" d="M20635.16 2525.89l21.79 -71.82c3.7,-26.43 6.92,-52.6 10.12,-79.09 79.17,22.81 124.91,56.6 229.14,63.91 16.54,-75.99 43.39,-103.79 35.51,-193.33 -6.14,-69.85 -19.15,-148.49 -23.9,-216.72 -19.1,-274.28 -4.63,-247.08 79.39,-405.5 -264.64,102.91 -240.46,218.9 -289.84,363.51 -27.77,81.29 -38.97,175.3 -63.27,264.49 -25.42,93.23 1.33,55.11 12.75,115.41 9.27,49 -13.16,109.33 -11.7,159.13z"/>
  <path class="fil3" d="M21017.38 951.73l32.38 -10.37 -9.36 -14.28c-3.51,-13.58 -17.51,7.17 6.14,-45.62 12.4,-27.66 22.72,-40.5 32.79,-68.14 51.71,-0.55 103.61,6.1 155.77,4.6 75.15,-2.17 76.47,-20.06 129.1,-33.85 26.65,55.69 12.91,54.27 64.76,89.13l21.69 173.89 41.79 2.19 8.72 -38.85c80.26,-0.19 53.82,32.04 90.73,73.86 15.1,-103.78 58.74,-245.54 -17.35,-325.16 -88.59,-92.72 -105.34,-5.4 -188.51,-103.29 -108.58,-127.77 -335.13,-81.01 -358.57,-23.2 -26.96,66.46 18.83,106.63 17.32,151.43 -1.14,33.93 -26.04,92.86 -27.41,167.65z"/>
  <path class="fil13" d="M21529.62 3199.53c-0.97,33.87 48.66,185.47 64.25,230.42 42,121.09 58.2,106.98 131.72,174.02l57.25 1.63c13.95,-73.6 43.19,-161.73 31.75,-233.94 2.26,-76.31 12.78,-147.19 -3.75,-228.26l-97.89 -0.39c-0.12,142.19 73.15,131.59 40.26,192.77 -22.18,-9.04 -33.98,-1.05 -56.84,-65.95 -47.38,-134.55 40.08,-126.61 -178.03,-124.95l11.29 54.65z"/>
  <path class="fil13" d="M20493.12 5367.36l-19.27 53.86c2.01,2.06 4.98,4.49 6.45,5.75l19.32 16.3c24.05,20.4 27.86,19.21 38.43,48.74 -45.21,-15.38 -18.54,-44.04 -91.42,-46.57 4.23,22.14 6.5,13.16 23.46,37.37 13.4,19.11 10.64,9.16 19.77,36.79 -46.39,-29.16 -7.7,-35.47 -82.47,-48.09 29.19,53.39 38.98,27.69 48.5,77.85 -38.34,-28.66 -19.27,-48.74 -87.59,-53.29 24.25,37.21 31.84,16.21 48.35,69.25l-13.71 -12.02c-37.14,-32.23 -32.34,-32.14 -74.84,-31.89 11.44,47.09 30.19,17.03 38.06,67.61 -25.51,-31.37 -33.08,-57.69 -97.38,-33.92 -31.42,11.62 -67.68,31.39 -83.58,60.59 77.92,172.22 511.68,-68.08 599.17,-109.06l-70.38 -145.81c-26.79,9.83 -57.33,34.95 -90.57,43.4 -60.36,15.34 -63.27,-14.31 -91.33,-41.23l-38.99 4.35z"/>
  <path class="fil13" d="M19008.41 5625.61l-27.05 22.51c4.33,51.48 0.64,74.38 27.63,111.12 191.87,2.83 334.74,-15.51 496.7,-78.7l-41.93 -158.08c-75.83,27.2 -136.57,68.16 -169.05,-31.1l-52.33 2.9 -26.76 55.08c28.71,20.1 46.67,31.89 50.29,73.32 -39.91,-42.62 -7.36,-55.73 -86.94,-62.09 16.58,42.93 25.1,23.89 37.07,78.67 -1.97,-1.97 -4.06,-5.14 -5.14,-6.61 -41.65,-56.45 -25.45,-43.43 -67.44,-54.03l35.8 80.92c-42.06,-25.75 -13.09,-49.57 -77.91,-65.54 17.18,38.81 25.57,27.75 35.35,76.22 -46.17,-30.22 -12.69,-52.58 -87.67,-56.68 17.57,30.47 24.54,25.72 35.17,68.53 -34.72,-32.91 -15.34,-45.44 -75.81,-56.44z"/>
  <path class="fil7" d="M21049.76 941.36c107.75,-37.35 120.28,76.36 152.38,78.08 48.48,-11.72 30.74,-75.01 128.02,-67.99 112.54,8.13 52.93,83.83 120.51,95.64l-21.69 -173.89c-51.85,-34.86 -38.11,-33.44 -64.76,-89.13 -52.63,13.79 -53.95,31.68 -129.1,33.85 -52.16,1.5 -104.06,-5.15 -155.77,-4.6 -10.07,27.65 -20.39,40.49 -32.79,68.14 -23.66,52.79 -9.66,32.04 -6.14,45.62l9.36 14.28z"/>
  <path class="fil3" d="M20542.37 2891.13c-39.29,-27.36 -9.92,8.43 -22.9,-40.52 -4.31,-16.27 -6.92,-34.36 -11.55,-53.05 -8.69,-35.07 -13.3,-75.81 -27.43,-105.56 -22.48,-125.55 -88.53,-348.41 -123.38,-489.15 -6.69,-27.03 -11.54,-51.16 -17.94,-77.69 -12.19,-50.55 -4.47,-50.46 -53.58,-59.8 35.43,131.47 70,278.36 106.53,416.16 21.87,82.5 105.02,345.68 85.15,408.68l65.11 0.92z"/>
  <path class="fil11" d="M21237.88 1077.58c-21.9,-123.26 149.75,-139.41 167.6,-40.83 21.56,119.08 -150.38,137.79 -167.6,40.83zm-117.67 42.52c-180.34,20.07 -143.67,-146.73 -62.75,-166.3 42.32,-10.23 180.12,43.98 62.75,166.3zm-102.83 -168.37c-52.14,51.99 -57.1,99.85 -9.81,165.48 174,75.86 139.52,-38.76 194.57,-77.11 34.18,34.97 14.79,95.79 87.3,114.54 73.35,18.96 125.56,-25.54 128.86,-81.89 4.09,-1.06 7.78,-3.63 31.11,-5.6 1.5,-0.13 28.02,-0.64 33.74,-0.96l9.31 -16.9 -41.79 -2.19c-67.57,-11.81 -7.97,-87.52 -120.51,-95.64 -97.28,-7.01 -79.54,56.28 -128.02,67.99 -32.1,-1.72 -44.63,-115.43 -152.38,-78.08l-32.38 10.37z"/>
  <path class="fil7" d="M21104.9 1084.62c-35.14,-18.27 -22.1,-30.41 3.11,-45.53l-3.11 45.53zm15.31 35.47c117.37,-122.32 -20.43,-176.52 -62.75,-166.3 -80.92,19.56 -117.59,186.37 62.75,166.3z"/>
  <path class="fil7" d="M21299.38 1047.16c31.04,18.94 24.71,25.6 0,43.08 -8.94,-22.48 -16.03,-11.41 0,-43.08zm-61.51 30.42c17.22,96.96 189.16,78.25 167.6,-40.83 -17.85,-98.58 -189.5,-82.43 -167.6,40.83z"/>
  <path class="fil7" d="M20495.05 5325.1l-1.93 42.27 38.99 -4.35c28.06,26.92 30.97,56.57 91.33,41.23 33.24,-8.45 63.78,-33.57 90.57,-43.4l-27.56 -69.45c-79.59,28.81 -85.41,39.82 -191.39,33.71z"/>
  <path class="fil7" d="M19242.38 5494.27l52.33 -2.9c32.48,99.26 93.22,58.3 169.05,31.1l-1.2 -29.03c-86.13,-18.65 -111.03,-31.67 -180.39,-61.23 -6.78,32.51 -18.01,40.76 -39.8,62.06z"/>
  <path class="fil7" d="M20543.04 5793.38c56.5,-7.7 21.74,13.28 39.41,-22.79l11.84 -135.07 -57.87 25.33c-2.56,58.89 -15.59,98.15 6.62,132.54z"/>
  <path class="fil15" d="M20858.82 2760.3l-6.62 -96.22c-25.96,17.47 -2.23,-7.04 -28.4,23.78 -2.59,3.04 -12.89,19.52 -17.23,25.63 -21.97,30.84 -25.17,26.17 -40.39,62.92 50.25,1.38 60.67,3.52 92.64,-16.1z"/>
  <path class="fil3" d="M21483.15 1066.18c-5.72,0.32 -32.24,0.83 -33.74,0.96 -23.34,1.97 -27.02,4.54 -31.11,5.6 40.16,17.29 28.6,-42.14 25.93,51.07 31.22,-15.28 31.79,-13.78 38.93,-57.64z"/>
  <path class="fil3" d="M21299.38 1090.24c24.71,-17.48 31.04,-24.14 0,-43.08 -16.03,31.67 -8.94,20.59 0,43.08z"/>
  <path class="fil3" d="M21104.9 1084.62l3.11 -45.53c-25.22,15.12 -38.25,27.26 -3.11,45.53z"/>
  <polyline class="fil1 str0" points="25126.42,11301.89 22514.18,11293.35 22584.78,14035.64 25038.17,14232.13 "/>
  <polyline class="fil1 str3" points="19059.08,3262.52 17664.7,3258.11 17686.75,5543.84 19045.82,5305.55 "/>
  <polyline class="fil1 str3" points="23211.39,3283.56 21828.03,3279.14 21849.9,5564.87 23198.22,5326.59 "/>
  <polygon class="fil3 str2" points="29642.63,10900.99 29611.98,11083.5 30536.41,11077.73 30543.58,10900.04 "/>
  <path class="fil11" d="M28632.37 12252.5c61.05,4.21 681.82,23.77 746.64,-15.31 211.31,-4.4 156.07,-304.3 157.66,-491.44 1.73,-202.54 4.95,-383.33 55.63,-574.67l45.76 -264.09 82.2 -506.92 4.75 -34.82c28.21,-304.88 7.25,-415.48 -289.38,-510.12l-918.85 -4.6c-278.45,34.14 -862.48,199.77 -891.64,452.57 -37.22,165.84 -59.58,362.59 -86.44,531.23 -40.33,253.27 -88.71,311.55 30.34,526.76 139,123.03 191.06,133.32 455.31,136.78l166.9 0.16c-8.95,171.95 -108.76,194.84 -306.27,194.1 -350.47,-1.29 -835.81,-29.22 -1023.63,204.43 -101.55,126.31 -84.32,219.88 -29.75,349.72 26.01,8.18 7.7,-17.57 33.38,23.07 189.27,58.75 397.82,16.3 609.14,34.91l965.89 -42.96 6.43 243.57 0.14 775.38 -0.62 712.02 -1.67 65.42 -1.91 49.94 -16.86 10.69 -31.91 6.69c-31.95,3.45 -42.57,1.98 -72.74,7.71 -5.75,1.1 -26.67,5.85 -30.86,7.04 -43.48,12.47 -18.63,3.48 -39.52,16.42 -150.43,3.71 -554.46,188.77 -419.57,308.06 75.26,45.99 584.8,20.95 720.9,20.95 190.42,0 974.88,79.07 711.75,-153.99 -106.06,-93.94 -316.35,-194.35 -470.58,-186.96 -17.91,-25.49 -47.71,-17.04 -97.67,-21.39l-34.71 -5.02 -13.5 -24.32c-9.22,-301.74 -0.81,-613.91 -0.47,-919.06 0.25,-220.56 29.72,-735.84 -14.28,-921.97z"/>
  <polygon class="fil7" points="21528.49,4338.05 21530.02,4080.36 21023.01,4080.16 21040.85,5790.37 20984.55,5795.29 20899.53,4080.19 20769.07,4079.43 20752.67,4026.33 20851.04,4025.72 20983.57,4021.37 21230.56,4012.47 21486.43,4003.51 21688.34,4001.87 21769.92,4002.31 21769.27,4074.79 21652.58,4087.91 21639.82,4333.47 "/>
 </g>
</svg>
