<?xml version="1.0" encoding="UTF-8"?>
<!DOCTYPE svg PUBLIC "-//W3C//DTD SVG 1.1//EN" "http://www.w3.org/Graphics/SVG/1.1/DTD/svg11.dtd">
<!-- Creator: CorelDRAW 2018 (64-Bit Evaluation Version) -->
<svg xmlns="http://www.w3.org/2000/svg" xml:space="preserve" width="200.2mm" height="200.2mm" version="1.1" style="shape-rendering:geometricPrecision; text-rendering:geometricPrecision; image-rendering:optimizeQuality; fill-rule:evenodd; clip-rule:evenodd"
viewBox="0 0 10078.96 10078.96"
 xmlns:xlink="http://www.w3.org/1999/xlink">
 <defs>
  <style type="text/css">
   <![CDATA[
    .str2 {stroke:#3B9CFF;stroke-width:34.1;stroke-miterlimit:22.9256}
    .str0 {stroke:black;stroke-width:10.07;stroke-miterlimit:22.9256}
    .str1 {stroke:#3B9CFF;stroke-width:10.07;stroke-miterlimit:22.9256}
    .fil1 {fill:none}
    .fil4 {fill:#5AEEBC}
    .fil9 {fill:#06AAEA}
    .fil2 {fill:#3B9CFF}
    .fil0 {fill:#313B4A}
    .fil5 {fill:#5AEEBC}
    .fil7 {fill:#ddedff}
    .fil3 {fill:#dcfbf0}
    .fil6 {fill:#ebfdf7}
    .fil8 {fill:#06AAEA;fill-rule:nonzero}
   ]]>
  </style>
 </defs>
 <g id="Layer_x0020_1">
  <metadata id="CorelCorpID_0Corel-Layer"/>
  <rect class="fil0 str0" x="5.03" y="5.03" width="10068.89" height="10068.89"/>
  <polygon class="fil1 str1" points="3644.88,313.07 2030.9,1150.02 1062.95,2348.86 623.38,3121.44 554.55,4437.93 472.41,5774.41 949.71,6888.88 1213.9,7417.25 1595.75,7874.58 1977.6,8251.98 2588.11,8795.89 5030.16,9461.91 7840.75,8600.53 9217.18,6953.26 9736.68,4928.56 9430.3,3068.14 8604.43,1722.79 7760.81,981.29 6448.76,324.16 4692.69,99.93 "/>
  <polyline class="fil1 str1" points="2588.11,8795.89 3924.59,6351.61 4936.93,9122.23 5040.1,9458.86 4928.05,6191.78 4949.67,6821.94 7840.75,8600.53 6905.66,6457.35 6495.42,5756.63 "/>
  <line class="fil1 str1" x1="3325.18" y1="7834.59" x2="4635.01" y2= "9095.58" />
  <polyline class="fil1 str1" points="2600.62,8773.01 2779.05,7190.78 2015.35,8220.88 "/>
  <polyline class="fil1 str1" points="1631.28,7457.18 2779.05,7190.79 949.71,6888.88 "/>
  <line class="fil1 str1" x1="2732.44" y1="7148.59" x2="559" y2= "5845.42" />
  <line class="fil1 str1" x1="1489.21" y1="5172.75" x2="2772.4" y2= "7121.96" />
  <line class="fil1 str1" x1="1311.6" y1="5239.35" x2="1543.85" y2= "6435.92" />
  <line class="fil1 str1" x1="987.48" y1="5148.33" x2="543.47" y2= "5692.24" />
  <line class="fil1 str1" x1="3003.27" y1="5083.94" x2="2772.4" y2= "7121.96" />
  <line class="fil1 str1" x1="2821.24" y1="7154.13" x2="3833.58" y2= "6366.01" />
  <line class="fil1 str1" x1="1735.63" y1="4885.23" x2="3132.05" y2= "5151.64" />
  <line class="fil1 str1" x1="2656.95" y1="4683.21" x2="3080.98" y2= "5184.94" />
  <line class="fil1 str1" x1="3176.46" y1="4225.86" x2="2683.61" y2= "4614.37" />
  <line class="fil1 str1" x1="1731.2" y1="4760.9" x2="2599.24" y2= "4660.99" />
  <line class="fil1 str1" x1="1564.7" y1="4081.57" x2="2581.48" y2= "4636.59" />
  <line class="fil1 str1" x1="1839.99" y1="3135.84" x2="2599.25" y2= "4587.76" />
  <line class="fil1 str1" x1="1786.71" y1="3184.69" x2="1391.55" y2= "4401.28" />
  <line class="fil1 str1" x1="854.29" y1="3424.45" x2="1475.91" y2= "4023.86" />
  <line class="fil1 str1" x1="758.83" y1="3508.81" x2="1096.28" y2= "4374.63" />
  <line class="fil1 str1" x1="598.98" y1="4456.78" x2="840.97" y2= "4581.1" />
  <line class="fil1 str1" x1="958.63" y1="3171.37" x2="1766.73" y2= "3111.43" />
  <line class="fil1 str1" x1="1140.67" y1="2509.8" x2="1751.19" y2= "3040.39" />
  <line class="fil1 str1" x1="2585.93" y1="2352.18" x2="1835.55" y2= "3089.24" />
  <polyline class="fil1 str1" points="2286.23,1610.67 2601.47,2332.2 1231.7,2374.37 "/>
  <polyline class="fil1 str1" points="2663.63,2321.09 4211.01,2265.59 2488.25,1328.73 "/>
  <line class="fil1 str1" x1="2663.63" y1="2365.49" x2="3822.5" y2= "3204.67" />
  <line class="fil1 str1" x1="2648.09" y1="2394.35" x2="3418.45" y2= "3735.26" />
  <line class="fil1 str1" x1="1893.28" y1="3129.18" x2="3369.62" y2= "3828.5" />
  <line class="fil1 str1" x1="3713.73" y1="418.51" x2="4202.14" y2= "2203.44" />
  <line class="fil1 str1" x1="6215.26" y1="6567.18" x2="6892.81" y2= "6457.06" />
  <line class="fil1 str1" x1="6939.44" y1="6457.06" x2="9183.91" y2= "6936.59" />
  <line class="fil1 str1" x1="8979.67" y1="6368.26" x2="9228.43" y2= "6909.42" />
  <line class="fil1 str1" x1="6944.97" y1="6430.42" x2="8219.28" y2= "6064.11" />
  <line class="fil1 str1" x1="7866.29" y1="5222.72" x2="6920.54" y2= "6417.11" />
  <line class="fil1 str1" x1="7133.66" y1="5198.29" x2="7874.05" y2= "5203.85" />
  <line class="fil1 str1" x1="7171.39" y1="5015.14" x2="7864.06" y2= "5184.97" />
  <polyline class="fil1 str1" points="7365.64,3311.26 7889.59,5183.87 7190.27,4702.11 "/>
  <line class="fil1 str1" x1="9350.37" y1="3200.26" x2="7920.66" y2= "5220.51" />
  <line class="fil1 str1" x1="7299.04" y1="3253.54" x2="9314.85" y2= "3115.9" />
  <line class="fil1 str1" x1="7321.24" y1="3320.14" x2="6961.59" y2= "3972.84" />
  <line class="fil1 str1" x1="6344.42" y1="3195.82" x2="7299.04" y2= "3253.54" />
  <line class="fil1 str1" x1="6666.78" y1="2770.46" x2="6284.92" y2= "3156.75" />
  <line class="fil1 str1" x1="9714.46" y1="4954.1" x2="9112.83" y2= "5564.62" />
  <polyline class="fil1 str1" points="9696.71,4925.24 7920.66,5220.51 8322.49,5551.3 "/>
  <line class="fil1 str1" x1="8537.79" y1="1779.42" x2="7414.81" y2= "3245.64" />
  <line class="fil1 str1" x1="7796.3" y1="2187.91" x2="7365.64" y2= "3311.26" />
  <line class="fil1 str1" x1="6908.27" y1="2996.01" x2="7276.81" y2= "3230.23" />
  <line class="fil1 str1" x1="7156.92" y1="2919.42" x2="7320.1" y2= "3216.91" />
  <line class="fil1 str1" x1="7751.89" y1="2170.15" x2="7303.44" y2= "2432.11" />
  <line class="fil1 str1" x1="8540.01" y1="1748.34" x2="7858.45" y2= "2114.64" />
  <line class="fil1 str1" x1="6203.39" y1="2344.42" x2="6612.27" y2= "2841.76" />
  <line class="fil1 str1" x1="6216.71" y1="2302.24" x2="6629.64" y2= "2502.05" />
  <line class="fil1 str1" x1="6230.02" y1="2277.82" x2="7768.52" y2= "2153.5" />
  <line class="fil1 str1" x1="6147.88" y1="2304.46" x2="5819.31" y2= "2861.69" />
  <line class="fil1 str1" x1="5575.11" y1="2308.9" x2="5714.97" y2= "2888.34" />
  <line class="fil1 str1" x1="5512.94" y1="2306.68" x2="5226.56" y2= "2750.69" />
  <polyline class="fil1 str1" points="4245.29,2233.42 5546.24,2246.74 5603.96,2264.5 "/>
  <line class="fil1 str1" x1="5627.26" y1="2252.29" x2="6127.89" y2= "2288.92" />
  <line class="fil1 str1" x1="5615.06" y1="2215.66" x2="6720.65" y2= "1653.99" />
  <line class="fil1 str1" x1="6214.47" y1="2253.4" x2="6776.15" y2= "1658.43" />
  <line class="fil1 str1" x1="7559.81" y1="1136.71" x2="7018.12" y2= "1476.38" />
  <line class="fil1 str1" x1="6045.72" y1="1407.56" x2="6676.22" y2= "1525.23" />
  <line class="fil1 str1" x1="6448.76" y1="324.16" x2="6836.06" y2= "1460.84" />
  <line class="fil1 str1" x1="6405.37" y1="341.94" x2="5908.08" y2= "950.24" />
  <line class="fil1 str1" x1="4713.69" y1="151.01" x2="5313.11" y2= "967.99" />
  <polyline class="fil1 str1" points="4202.14,2203.44 4460.6,719.34 5166.58,1087.87 "/>
  <line class="fil1 str1" x1="3736.87" y1="324.17" x2="4460.6" y2= "719.34" />
  <line class="fil1 str1" x1="4678.16" y1="146.56" x2="4467.26" y2= "643.86" />
  <line class="fil1 str1" x1="4245.29" y1="2233.42" x2="5224.3" y2= "1571.83" />
  <line class="fil1 str1" x1="7821.73" y1="1318.75" x2="7810.64" y2= "2100.21" />
  <line class="fil1 str1" x1="7042.5" y1="1671.74" x2="7735.15" y2= "2113.53" />
  <line class="fil1 str1" x1="4191.93" y1="2277.81" x2="3998.78" y2= "3112.55" />
  <line class="fil1 str1" x1="4211.01" y1="2265.59" x2="4542.7" y2= "2914.97" />
  <ellipse class="fil2" cx="5006.68" cy="9506.15" rx="557.23" ry="555.18"/>
  <ellipse class="fil2" cx="2116.68" cy="1147.59" rx="557.23" ry="555.18"/>
  <ellipse class="fil2" cx="6651.71" cy="7870.1" rx="557.23" ry="555.18"/>
  <ellipse class="fil3" cx="8698.58" cy="5927.56" rx="557.23" ry="555.18"/>
  <ellipse class="fil2" cx="1259.18" cy="4818.64" rx="557.23" ry="555.18"/>
  <ellipse class="fil4" cx="5592.03" cy="1329.3" rx="525.72" ry="523.77"/>
  <ellipse class="fil2" cx="1245.82" cy="7585.96" rx="494.2" ry="492.37"/>
  <ellipse class="fil5" cx="3193.57" cy="7690.97" rx="233.44" ry="232.58"/>
  <ellipse class="fil5" cx="6865.87" cy="1587.37" rx="233.44" ry="232.58"/>
  <ellipse class="fil2" cx="8603.9" cy="1725.53" rx="97.95" ry="97.59"/>
  <ellipse class="fil2" cx="6179.86" cy="2293.37" rx="97.95" ry="97.59"/>
  <ellipse class="fil3" cx="5546.24" cy="2246.74" rx="97.95" ry="97.59"/>
  <ellipse class="fil5" cx="4208.44" cy="2246.76" rx="97.95" ry="97.59"/>
  <ellipse class="fil5" cx="2626.37" cy="2348.31" rx="97.95" ry="97.59"/>
  <ellipse class="fil5" cx="2626.07" cy="4664.11" rx="97.95" ry="97.59"/>
  <ellipse class="fil5" cx="554.55" cy="4437.93" rx="97.95" ry="97.59"/>
  <ellipse class="fil3" cx="2785.36" cy="7181.1" rx="97.95" ry="97.59"/>
  <ellipse class="fil2" cx="1543.85" cy="6435.92" rx="97.95" ry="97.59"/>
  <ellipse class="fil5" cx="949.71" cy="6888.88" rx="134.55" ry="134.05"/>
  <ellipse class="fil2" cx="2005.02" cy="8255.61" rx="97.95" ry="97.59"/>
  <ellipse class="fil2" cx="2596.99" cy="8793.67" rx="97.95" ry="97.59"/>
  <ellipse class="fil2" cx="4693.29" cy="115.23" rx="97.95" ry="97.59"/>
  <ellipse class="fil2" cx="6448.76" cy="324.16" rx="97.95" ry="97.59"/>
  <ellipse class="fil2" cx="3673.16" cy="322.8" rx="152" ry="151.44"/>
  <ellipse class="fil5" cx="4438.53" cy="683.28" rx="97.95" ry="97.59"/>
  <ellipse class="fil5" cx="9760.09" cy="4938.82" rx="97.95" ry="97.59"/>
  <ellipse class="fil4" cx="7911.03" cy="5218.37" rx="97.95" ry="97.59"/>
  <ellipse class="fil3" cx="7350.76" cy="3273.22" rx="97.95" ry="97.59"/>
  <ellipse class="fil4" cx="7802.29" cy="2153.46" rx="97.95" ry="97.59"/>
  <ellipse class="fil2" cx="7841.46" cy="8604.97" rx="138.99" ry="138.48"/>
  <ellipse class="fil4" cx="9235.49" cy="6967.13" rx="138.99" ry="138.48"/>
  <ellipse class="fil2" cx="1809.54" cy="3118.16" rx="128.36" ry="127.89"/>
  <ellipse class="fil4" cx="1505.02" cy="4051.94" rx="128.36" ry="127.89"/>
  <ellipse class="fil2" cx="7803.85" cy="974.64" rx="378.8" ry="377.4"/>
  <ellipse class="fil2" cx="647.49" cy="3216.89" rx="378.8" ry="377.4"/>
  <ellipse class="fil5" cx="6964.71" cy="2627.76" rx="411.5" ry="409.98"/>
  <ellipse class="fil2" cx="9430.3" cy="3068.14" rx="233.44" ry="232.58"/>
  <ellipse class="fil3" cx="454.35" cy="5807.7" rx="233.44" ry="232.58"/>
  <ellipse class="fil3" cx="1055.98" cy="2387.69" rx="233.44" ry="232.58"/>
  <ellipse class="fil6" cx="5119.51" cy="4816.2" rx="2113.49" ry="2122.37"/>
  <g id="_2807515316528">
   <path class="fil5" d="M4909.56 9164.26c-154.92,8.08 -229.7,97.76 -230.89,235.33l444.02 0c-1.03,-138.24 -77.22,-228.44 -213.13,-235.33z"/>
   <rect class="fil4" x="4678.67" y="9399.59" width="444.02" height="448.45"/>
   <ellipse class="fil3" cx="5133.22" cy="9635.47" rx="201.47" ry="194.81"/>
   <line class="fil1 str2" x1="5232.57" y1="9528.35" x2="5044.98" y2= "9758.13" />
  </g>
  <g id="_2807515318736">
   <path class="fil5" d="M2019.56 805.7c-154.92,8.08 -229.7,97.76 -230.89,235.33l444.02 0c-1.03,-138.24 -77.22,-228.44 -213.13,-235.33z"/>
   <rect class="fil4" x="1788.67" y="1041.02" width="444.02" height="448.45"/>
   <ellipse class="fil3" cx="2243.22" cy="1276.91" rx="201.47" ry="194.81"/>
   <line class="fil1" x1="2342.57" y1="1169.79" x2="2154.98" y2= "1399.57" />
  </g>
  <line class="fil1 str1" x1="6901.67" y1="6492.74" x2="6741.83" y2= "7438.48" />
  <polygon class="fil2" points="6966.56,2578.52 6697.93,2856.01 7235.19,2860.47 "/>
  <polygon class="fil4" points="6949.91,2861.58 6681.29,2584.08 7218.54,2579.63 "/>
  <ellipse class="fil3" cx="6959.35" cy="2477.5" rx="119.33" ry="117.66"/>
  <rect class="fil2" x="8472.84" y="5813.14" width="467.32" height="81.03"/>
  <rect class="fil5" x="8472.84" y="5894.17" width="469.54" height="67.71"/>
  <rect class="fil3" x="6328.25" y="7781.21" width="535.03" height="377.41"/>
  <rect class="fil2" x="8479.5" y="5961.88" width="444.01" height="331.89"/>
  <ellipse class="fil5" cx="8699.28" cy="5696.57" rx="126.54" ry="116.56"/>
  <rect class="fil5" x="6328.25" y="7797.85" width="406.27" height="360.76"/>
  <rect class="fil4" x="6734.51" y="7927.73" width="248.65" height="233.11"/>
  <polygon class="fil7" points="6537.47,7590.83 6328.25,7781.21 6863.28,7781.21 6654.59,7591.95 "/>
  <rect class="fil4" x="1021.7" y="7224.5" width="415.15" height="743.72"/>
  <path class="fil5" d="M1297.54 7889.97l-217.57 -0.55 -1.67 -218.12c144.05,9.25 218.76,80.67 219.23,218.68z"/>
  <path class="fil5" d="M1485.4 7711.24l-217.57 -0.55 -1.67 -218.12c144.05,9.25 218.76,80.67 219.23,218.68z"/>
  <rect class="fil5" x="1049.44" y="4841.26" width="414.04" height="351.88"/>
  <ellipse class="fil5" cx="1260.06" cy="4817.96" rx="117.38" ry="115.44"/>
  <polygon class="fil3" points="1463.49,4841.26 1049.44,4841.26 1258.13,5041.63 "/>
  <path class="fil3" d="M1243.69 4455.54c-91.38,8.79 -145.43,66.33 -164.28,169.83l355.21 -1.66c-7.52,-115.66 -80.9,-163.51 -190.93,-168.17z"/>
  <ellipse class="fil7" cx="657.6" cy="3072.19" rx="110.45" ry="109.62"/>
  <rect class="fil7" x="641.91" y="3180.71" width="17.35" height="204.79"/>
  <path class="fil5" d="M472.78 3281.15l0 200.92 372.97 0 -1.11 -206.47 -77.7 0c-28.23,156.74 -210.48,147.1 -235.33,5.55l-58.83 0z"/>
  <rect class="fil2" x="5291.4" y="1019.48" width="609.41" height="102.12"/>
  <rect class="fil2" x="5298.04" y="1232.61" width="590.54" height="406.27"/>
  <ellipse class="fil5" cx="5602.75" cy="1278.12" rx="160.4" ry="117.67"/>
  <g id="_2807515300688">
   <path class="fil8" d="M4350.26 4587.02c56.61,0 99.4,15.98 128.36,47.95 28.97,31.96 43.46,78.92 43.46,140.85l0 196.98c-3.84,67.13 -35.16,86.77 -86.91,86.72l0 -245.74c0,-51.95 -9.16,-90.24 -27.47,-114.88 -18.32,-24.64 -47.79,-36.96 -88.41,-36.96 -41.96,0 -74.09,13.82 -96.4,41.46 -22.31,27.64 -33.46,65.1 -33.46,112.38l0 157.23c-2.15,57.6 -39.65,86.57 -86.91,86.52l0 -612.18c2.4,-57.76 34.4,-83.51 86.91,-87.09l0 323.66c12.65,-29.97 32.79,-53.61 60.43,-70.92 27.64,-17.32 61.1,-25.97 100.4,-25.97z"/>
   <path class="fil8" d="M4858.71 5071.51c-48.62,0 -91.07,-10.66 -127.37,-31.97 -36.29,-21.31 -64.1,-50.45 -83.41,-87.41 -19.32,-36.96 -28.97,-77.75 -28.97,-122.37 0,-45.28 9.66,-86.42 28.97,-123.37 19.31,-36.96 47.12,-66.1 83.41,-87.41 36.29,-21.31 78.75,-31.96 127.37,-31.96 48.62,0 91.08,10.65 127.37,31.96 36.29,21.31 64.1,50.45 83.41,87.41 19.31,36.96 28.97,78.09 28.97,123.37 0,44.62 -9.82,85.41 -29.47,122.37 -19.64,36.96 -47.45,66.1 -83.42,87.41 -35.96,21.31 -78.25,31.97 -126.87,31.97zm0 -77.92c47.29,0 84.58,-15.48 111.89,-46.45 27.31,-30.97 40.96,-70.09 40.96,-117.37 0,-47.95 -13.65,-87.41 -40.96,-118.38 -27.3,-30.97 -64.6,-46.45 -111.89,-46.45 -47.28,0 -84.74,15.48 -112.38,46.45 -27.63,30.97 -41.46,70.43 -41.46,118.38 0,47.28 13.82,86.41 41.46,117.37 27.64,30.97 65.1,46.45 112.38,46.45z"/>
   <path class="fil8" d="M5443.43 4587.02c43.29,0 81.92,10.15 115.88,30.47 33.96,20.31 60.27,48.94 78.91,85.91 18.65,36.96 27.97,79.08 27.97,126.37 0,46.61 -9.66,88.24 -28.97,124.86 -19.32,36.63 -46.29,65.27 -80.92,85.91 -34.63,20.65 -73.92,30.97 -117.88,30.97 -35.29,0 -67.92,-8.33 -97.89,-24.97 -29.97,-16.65 -52.28,-39.3 -66.93,-67.93l0 207.35c-0.61,60.81 -35.19,86.14 -85.91,86.34l0 -593.51c0.16,-61.53 33.75,-79.57 85.91,-79.79l0 81.92c14.66,-28.64 37.3,-51.45 67.93,-68.43 30.63,-16.98 64.6,-25.47 101.89,-25.47zm-16.98 406.57c44.63,0 81.25,-15.32 109.89,-45.95 28.64,-30.63 42.95,-69.92 42.95,-117.87 0,-31.3 -6.49,-59.61 -19.48,-84.91 -12.98,-25.31 -31.13,-44.96 -54.44,-58.94 -23.31,-13.99 -49.61,-20.98 -78.92,-20.98 -45.95,0 -83.58,15.31 -112.88,45.95 -29.31,30.63 -43.96,70.26 -43.96,118.88 0,47.95 14.65,87.24 43.96,117.87 29.3,30.63 66.93,45.95 112.88,45.95z"/>
   <path class="fil8" d="M6016.25 4587.02c43.29,0 81.92,10.15 115.88,30.47 33.96,20.31 60.27,48.94 78.92,85.91 18.65,36.96 27.97,79.08 27.97,126.37 0,46.61 -9.66,88.24 -28.97,124.86 -19.31,36.63 -46.29,65.27 -80.92,85.91 -34.63,20.65 -73.92,30.97 -117.87,30.97 -35.3,0 -67.93,-8.33 -97.9,-24.97 -29.97,-16.65 -52.28,-39.3 -66.93,-67.93l0 207.11c-1.19,61.06 -36.73,86.67 -85.91,86.58l0 -593.76c1.66,-58.09 39.71,-79.55 85.91,-79.53l0 81.92c14.65,-28.64 37.3,-51.45 67.93,-68.43 30.63,-16.98 64.6,-25.47 101.89,-25.47zm-16.98 406.57c44.62,0 81.25,-15.32 109.89,-45.95 28.63,-30.63 42.95,-69.92 42.95,-117.87 0,-31.3 -6.49,-59.61 -19.48,-84.91 -12.98,-25.31 -31.13,-44.96 -54.44,-58.94 -23.31,-13.99 -49.61,-20.98 -78.91,-20.98 -45.95,0 -83.58,15.31 -112.88,45.95 -29.3,30.63 -43.96,70.26 -43.96,118.88 0,47.95 14.66,87.24 43.96,117.87 29.3,30.63 66.93,45.95 112.88,45.95z"/>
   <path class="fil8" d="M6333.32 4360.25c52.32,0.1 86.06,21 86.9,87.23l0 612.04c-48.91,0.05 -85.9,-26.55 -86.9,-86.62l0 -612.65z"/>
   <path class="fil8" d="M6960.07 4803.79c0,19.98 -0.67,36.96 -2,50.94l-356.63 0c0.67,43.96 13.99,78.42 39.96,103.39 25.97,24.98 60.93,37.46 104.89,37.46 30.63,0 56.28,-5.83 76.92,-17.48 20.64,-11.66 35.63,-28.47 44.95,-50.45l86.91 0c-6.35,33.87 -22.38,62.69 -48.07,86.47 -0.06,0.05 -0.11,0.11 -0.17,0.16 -6.59,6.08 -13.82,11.84 -21.69,17.26 -38.62,26.64 -84.91,39.96 -138.85,39.96 -70.59,0 -126.7,-21.81 -168.32,-65.43 -41.63,-43.62 -62.44,-102.72 -62.44,-177.31 0,-47.95 9.33,-90.24 27.97,-126.87 18.65,-36.63 45.12,-64.93 79.42,-84.91 34.29,-19.98 74.09,-29.97 119.38,-29.97 42.62,0 80.42,9.15 113.38,27.47 32.97,18.32 58.61,43.96 76.92,76.92 18.32,32.97 27.47,70.43 27.47,112.38zm-84.91 -15.98c0,-40.62 -11.82,-72.59 -35.46,-95.9 -23.65,-23.31 -56.44,-34.96 -98.4,-34.96 -41.29,0 -74.42,11.99 -99.4,35.96 -24.98,23.98 -38.46,55.61 -40.46,94.9l273.72 0z"/>
   <g>
    <polygon class="fil9" points="3988.31,4360.1 3507.9,4360.1 3507.84,4874.96 3656.69,4521.66 "/>
    <polygon class="fil5" points="3278.95,5072 3759.36,5072 3759.42,4557.13 3610.57,4910.44 "/>
   </g>
  </g>
  <ellipse class="fil5" cx="6905.66" cy="6457.35" rx="97.95" ry="97.59"/>
 </g>
</svg>
