<?xml version="1.0" encoding="UTF-8"?>
<!DOCTYPE svg PUBLIC "-//W3C//DTD SVG 1.1//EN" "http://www.w3.org/Graphics/SVG/1.1/DTD/svg11.dtd">
<!-- Creator: CorelDRAW 2018 (64-Bit Evaluation Version) -->
<svg xmlns="http://www.w3.org/2000/svg" xml:space="preserve" width="35.8775mm" height="35.6659mm" version="1.1" style="shape-rendering:geometricPrecision; text-rendering:geometricPrecision; image-rendering:optimizeQuality; fill-rule:evenodd; clip-rule:evenodd"
viewBox="0 0 1607.47 1597.99"
 xmlns:xlink="http://www.w3.org/1999/xlink">
 <defs>
  <style type="text/css">
   <![CDATA[
    .fil3 {fill:#00C2FF}
    .fil2 {fill:#FFFFFF}
    .fil0 {fill:#FBD13E}
    .fil1 {fill:#FFFFFF;}
   ]]>
  </style>
 </defs>
 <g id="Layer_x0020_1">
  <metadata id="CorelCorpID_0Corel-Layer"/>
  <path class="fil0" d="M333.83 661.48l976.81 0c19.56,0 35.57,16 35.57,35.57l0 64.01c0,19.56 -16,35.57 -35.57,35.57l-976.81 0c-19.56,0 -35.57,-16 -35.57,-35.57l0 -64.01c0,-19.56 16,-35.57 35.57,-35.57z"/>
  <path class="fil1" d="M369.39 822.7c19.02,154.9 56.06,309.8 116.17,464.69l637.77 11.86c66.35,-150.35 118.19,-317.9 143.44,-477.73l-897.39 1.18z"/>
  <path class="fil2" d="M1113.86 324.81l-360.38 355.64c-35.93,44.02 21.7,116.17 82.98,68.76l343.78 -341.42c31.01,-34.72 -14.8,-108.31 -66.38,-82.98z"/>
  <path class="fil3" d="M455.21 0l697.05 0c250.37,0 455.21,204.85 455.21,455.21l0 687.57c0,250.37 -204.85,455.21 -455.21,455.21l-697.05 0c-250.37,0 -455.21,-204.85 -455.21,-455.21l0 -687.57c0,-250.37 204.85,-455.21 455.21,-455.21zm-121.38 661.48l438.87 0 341.16 -336.67c51.58,-25.33 97.4,48.26 66.38,82.98l-255.44 253.69 385.84 0c19.56,0 35.57,16 35.57,35.57l0 64.01c0,19.56 -16,35.57 -35.57,35.57l-976.81 0c-19.56,0 -35.57,-16 -35.57,-35.57l0 -64.01c0,-19.56 16,-35.57 35.57,-35.57zm35.56 161.22c19.02,154.9 56.06,309.8 116.17,464.69l637.77 11.86c66.35,-150.35 118.19,-317.9 143.44,-477.73l-897.39 1.18z"/>
 </g>
</svg>
