<?xml version="1.0" encoding="UTF-8"?>
<!DOCTYPE svg PUBLIC "-//W3C//DTD SVG 1.1//EN" "http://www.w3.org/Graphics/SVG/1.1/DTD/svg11.dtd">
<!-- Creator: CorelDRAW 2018 (64-Bit Evaluation Version) -->
<svg xmlns="http://www.w3.org/2000/svg" xml:space="preserve" width="34.1448mm" height="7.6201mm" version="1.1" style="shape-rendering:geometricPrecision; text-rendering:geometricPrecision; image-rendering:optimizeQuality; fill-rule:evenodd; clip-rule:evenodd"
viewBox="0 0 10041.4 2240.94"
 xmlns:xlink="http://www.w3.org/1999/xlink">
 <defs>
  <style type="text/css">
   <![CDATA[
    .str0 {stroke:#313B4A;stroke-width:58.82;stroke-miterlimit:22.9256}
    .fil0 {fill:#313B4A}
    .fil1 {fill:#313B4A;fill-rule:nonzero}
    .fil2 {fill:#313B4A;fill-rule:nonzero}
   ]]>
  </style>
 </defs>
 <g id="Layer_x0020_1">
  <metadata id="CorelCorpID_0Corel-Layer"/>
  <g id="_2684444995728">
   <g>
    <g>
     <path class="fil0" d="M5973.91 2107.02c-42.99,79.37 -115.78,79.14 -149.54,22.29l-0.91 -1.56 -0.12 -0.21 -0.35 -0.62 -1.56 -2.88 -0.06 -0.09 -0.94 -1.85 -0.91 -1.85 -478.38 -1289.41c94.64,-49.55 229.53,-48.08 284.05,96.19l392.01 1060.52 -54.61 11.06 0.21 0.35 0 0 0.18 0.32 0.21 0.35 0 0 0.18 0.32 0.21 0.32 0.03 0.03 0.18 0.29 0.21 0.32 0 0.03 0.21 0.26 0.18 0.32 0.03 0.03 0.18 0.26 0.21 0.29 0.03 0.03 0.18 0.24 0.21 0.29 0.06 0.06 0.15 0.24 0.21 0.26 0.06 0.06 0.15 0.21 0.21 0.26 0.06 0.06 0.18 0.21 0.21 0.24 0.06 0.06 0.15 0.18 0.26 0.26 0 0.03 0.21 0.18 0.21 0.24 0.06 0.09 0.15 0.15 0.21 0.21 0.09 0.06 0.15 0.15 0.24 0.21 0.09 0.06 0.15 0.12 0.21 0.24 0.09 0.06 0.15 0.12 0.21 0.18 0.12 0.06 0.12 0.12 0.24 0.18 0.09 0.06 0.15 0.12 0.24 0.15 0.12 0.09 0.09 0.06 0.24 0.15 0.12 0.09 0.12 0.06 0.24 0.12 0.12 0.09 0.09 0.06 0.26 0.12 0.12 0.09 0.09 0.03 0.24 0.12 0.12 0.09 0.12 0.03 0.24 0.09 0.15 0.09 0.09 0.03 0.24 0.09 0.15 0.06 0.06 0.03 0.26 0.09 0.15 0.03 0.09 0.06 0.41 0.09 0.06 0.03 0.24 0.06 0.18 0.06 0.06 0 0.24 0.06 0.18 0.03 0.06 0 0.03 0c4.47,-0.71 9,-4.53 12.56,-11.32l-13.59 108.75z"/>
     <path id="1" class="fil1" d="M5835.08 2095.05l-0.12 -0.18 2.35 3.73 2.59 3.53 2.85 3.47 3.09 3.29 3.26 3.06 3.5 2.82 3.68 2.59 3.82 2.32 3.94 2 4.18 1.71 4.23 1.41 4.35 1.09 4.41 0.74 4.53 0.41 4.56 0.09 4.62 -0.29 4.62 -0.62 4.65 -1 4.68 -1.35 4.56 -1.71 4.62 -2.12 4.59 -2.44 4.47 -2.79 4.44 -3.18 4.32 -3.5 4.21 -3.88 4.12 -4.26 4 -4.56 3.85 -4.97 3.73 -5.23 3.5 -5.59 3.41 -5.94 22.47 66.64 -4.82 8.47 -5.03 7.94 -5.15 7.29 -5.26 6.73 -5.41 6.21 -5.47 5.62 -5.56 5.12 -5.68 4.62 -5.68 4.06 -5.76 3.62 -5.76 3.09 -5.79 2.65 -5.85 2.18 -5.85 1.71 -5.82 1.24 -5.79 0.79 -5.79 0.35 -5.73 -0.09 -5.71 -0.53 -5.65 -0.97 -5.59 -1.38 -5.47 -1.82 -5.41 -2.24 -5.35 -2.71 -5.23 -3.15 -5.09 -3.59 -4.97 -4.06 -4.85 -4.53 -4.68 -5 -4.56 -5.47 -4.41 -6.12 -4.18 -6.62 -0.12 -0.18 21.41 -68.52zm-21.29 68.7l-0.12 -0.18 -0.82 -1.44 0.94 1.62zm-1.03 -1.74l-0.15 -0.26 21.56 -68.26 0.91 1.56 -21.41 68.52 -0.91 -1.56zm0 0l0.18 0.32 -0.32 -0.59 0.15 0.26zm-0.26 -0.47l21.7 -67.99 0.12 0.21 -21.7 67.99 -0.12 -0.21zm-0.35 -0.62l-0.38 -0.71 22.09 -67.29 0.35 0.62 -21.7 67.99 -0.35 -0.62zm0 0l-0.38 -0.71 0.38 0.68 0 0.03zm-1.94 -3.59l21.03 -69.02 1.44 2.44 1.56 2.88 -22.47 66.58 -1.56 -2.88zm21.03 -69.02l0.65 0.97 0.79 1.47 -1.44 -2.44zm-19.64 71.37l-1.88 -3.26 21.47 -68.2 0.06 0.09 -19.59 71.46 -0.06 -0.09zm0 0l-0.94 -1.41 -0.94 -1.85 1.88 3.26zm-2.82 -5.12l-0.21 -0.41 23.56 -64.52 0.94 1.85 -23.35 64.93 -0.94 -1.85zm0 0l-0.12 -0.21 -0.09 -0.21 0.21 0.41zm-1.12 -2.26l-1.82 -4.23 25.59 -59.88 0.91 1.85 -23.76 64.11 -0.91 -1.85zm0 0l-1.03 -2.09 -0.79 -2.15 1.82 4.23zm-480.21 -1293.64l9.73 -69.23 17.67 13.59 478.38 1289.41 -27.41 55.64 -478.38 -1289.41zm0 0l-19.91 -53.7 29.64 -15.53 -9.73 69.23zm284.05 96.14l0.12 0.35 -4.41 -10.82 -4.85 -10.29 -5.26 -9.73 -5.71 -9.2 -6.15 -8.68 -6.5 -8.12 -6.88 -7.56 -7.26 -7 -7.59 -6.41 -7.91 -5.82 -8.18 -5.26 -8.47 -4.65 -8.73 -4.12 -8.91 -3.56 -9.09 -3 -9.29 -2.44 -9.44 -1.91 -9.53 -1.41 -9.62 -0.85 -9.73 -0.41 -9.73 0.09 -9.76 0.56 -9.76 1 -9.73 1.44 -9.7 1.88 -9.62 2.29 -9.47 2.62 -9.38 3.06 -9.26 3.35 -9.06 3.71 -8.85 4.03 -8.65 4.32 -7.94 -82.81 9.35 -4.68 9.5 -4.32 9.76 -4 9.85 -3.59 10.03 -3.23 10.18 -2.85 10.26 -2.41 10.35 -2 10.44 -1.56 10.47 -1.06 10.47 -0.62 10.5 -0.09 10.5 0.41 10.44 0.97 10.41 1.53 10.32 2.09 10.23 2.68 10.15 3.35 9.97 3.97 9.85 4.65 9.65 5.35 9.47 6.09 9.26 6.82 9.06 7.65 8.79 8.47 8.53 9.32 8.2 10.23 7.91 11.2 7.53 12.2 7.15 13.2 6.73 14.29 6.29 15.41 0.12 0.35 -27.41 55.52zm27.29 -55.88l0.12 0.35 -0.71 -1.91 0.59 1.56zm392.13 1060.87l-12.15 70.05 -15.26 -14.53 -392.01 -1060.52 27.41 -55.52 392.01 1060.52zm0 0l23.23 62.87 -35.38 7.18 12.15 -70.05zm-66.76 81.11l-12.26 -8.06 9.15 -76.52 54.61 -11.06 3.12 84.58 -54.61 11.06zm-12.26 -8.06l-38.97 -66.79 48.11 -9.73 -9.15 76.52zm21.62 -68.11l0.47 0.82 -21.88 67.64 -0.21 -0.35 21.41 -68.46 0.21 0.35zm0 0l0.32 0.56 0.15 0.26 -0.47 -0.82zm-10.7 34.23l0 0 0 0 0 0 11.18 -33.41 -11.18 33.41zm10.7 -34.23l0.32 0.56 0.15 0.26 -0.47 -0.82zm0.65 1.15l-21.88 67.64 -0.47 -0.82 -0.18 -0.32 22.35 -66.82 0.18 0.32zm-21.88 67.64l-0.32 -0.56 -0.15 -0.26 0.47 0.82zm21.62 -68.11l0.47 0.82 -21.88 67.64 -0.21 -0.35 21.41 -68.46 0.21 0.35zm0 0l0.32 0.56 0.15 0.26 -0.47 -0.82zm-10.7 34.23l0 0 0 0 0 0 11.18 -33.41 -11.18 33.41zm10.7 -34.23l0.32 0.56 0.15 0.26 -0.47 -0.82zm0.65 1.15l-21.29 68.64 -1.06 -1.82 -0.18 -0.32 22.35 -66.82 0.18 0.32zm-21.29 68.64l-0.44 -0.71 -0.62 -1.12 1.06 1.82zm20.44 -70.14l-17.23 74.26 -3 -3.79 -0.21 -0.32 20.23 -70.46 0.21 0.32zm-17.23 74.26l-1.62 -1.62 -1.38 -2.18 3 3.79zm14.26 -78.02l3.41 4.44 -17.64 73.61 -0.03 -0.03 14.23 -78.05 0.03 0.03zm0 0l1.88 1.88 1.53 2.56 -3.41 -4.44zm3.59 4.73l-20.64 69.82 -0.41 -0.65 -0.18 -0.29 21.06 -69.17 0.18 0.29zm-20.64 69.82l-0.41 -0.65 0 0 0.41 0.65zm20.44 -70.14l8.03 35.23 -28.26 35.23 -0.21 -0.32 20.23 -70.46 0.21 0.32zm0 0l8.03 12.62 0 22.61 -8.03 -35.23zm8.03 35.26l-26.88 37.2 -9.41 -37.2 0 -0.03 36.29 0 0 0.03zm-26.88 37.2l-9.41 -12.09 0 -25.11 9.41 37.2zm17.67 -74.14l2.44 3.79 -19.91 70.61 -0.21 -0.26 17.47 -74.4 0.21 0.26zm0 0l1.24 1.59 1.21 2.21 -2.44 -3.79zm2.62 4.12l-18.29 72.43 -4.06 -5.62 -0.18 -0.32 22.35 -66.82 0.18 0.32zm-18.29 72.43l-2.18 -2.18 -1.88 -3.44 4.06 5.62zm14.26 -78.02l2.68 3.29 -16.91 74.76 -0.03 -0.03 14.23 -78.05 0.03 0.03zm0 0l1.44 1.44 1.24 1.85 -2.68 -3.29zm2.85 3.56l-19.23 71.96 -0.35 -0.5 -0.18 -0.26 19.59 -71.46 0.18 0.26zm-19.23 71.96l-0.35 -0.5 -0.06 -0.09 0.41 0.59zm19.09 -72.17l-16.56 75.26 -2.32 -2.79 -0.21 -0.29 18.88 -72.46 0.21 0.29zm-16.56 75.26l-1.24 -1.24 -1.09 -1.56 2.32 2.79zm14.26 -78.02l1.85 2.15 -16.09 75.9 -0.03 -0.03 14.23 -78.05 0.03 0.03zm0 0l0.97 0.97 0.88 1.18 -1.85 -2.15zm2.03 2.38l0.47 0.65 -18.41 73.11 -0.18 -0.24 17.94 -73.76 0.18 0.24zm0 0l0.26 0.35 0.21 0.29 -0.47 -0.65zm0.68 0.94l-16.56 75.26 -2.32 -2.79 -0.21 -0.29 18.88 -72.46 0.21 0.29zm-16.56 75.26l-1.24 -1.24 -1.09 -1.56 2.32 2.79zm14.29 -77.99l3.12 4 -17.35 74.05 -0.06 -0.06 14.23 -78.05 0.06 0.06zm0 0l1.65 1.65 1.47 2.35 -3.12 -4zm3.26 4.23l-18.97 72.23 -1.5 -2.18 -0.15 -0.24 20.47 -70.05 0.15 0.24zm-18.97 72.23l-0.71 -0.91 -0.79 -1.26 1.5 2.18zm17.67 -74.14l-15.85 76.23 -1.62 -1.82 -0.21 -0.26 17.47 -74.4 0.21 0.26zm-15.85 76.23l-0.91 -0.91 -0.71 -0.91 1.62 1.82zm14.29 -77.99l2.21 2.62 -16.44 75.43 -0.06 -0.06 14.23 -78.05 0.06 0.06zm0 0l1.18 1.18 1.03 1.44 -2.21 -2.62zm2.35 2.82l-18.06 73.61 -0.59 -0.79 -0.15 -0.21 18.64 -72.81 0.15 0.21zm-18.06 73.61l-0.26 -0.32 -0.32 -0.47 0.59 0.79zm17.67 -74.14l-15.85 76.23 -1.62 -1.82 -0.21 -0.26 17.47 -74.4 0.21 0.26zm-15.85 76.23l-0.91 -0.91 -0.71 -0.91 1.62 1.82zm14.29 -77.99l0.97 1.03 -15.2 77.02 -0.06 -0.06 14.23 -78.05 0.06 0.06zm0 0l0.62 0.62 0.35 0.41 -0.97 -1.03zm1.15 1.24l-16.06 76.14 -0.12 -0.15 -0.18 -0.21 16.17 -75.99 0.18 0.21zm-16.06 76.14l-0.12 -0.15 0.53 0.62 -0.41 -0.47zm16.15 -76.05l-15.09 77.17 -0.85 -0.88 -0.21 -0.24 15.94 -76.29 0.21 0.24zm-15.09 77.17l-0.65 -0.65 -0.21 -0.24 0.85 0.88zm14.29 -77.99l1.15 1.26 -15.38 76.79 -0.06 -0.06 14.23 -78.05 0.06 0.06zm0 0l0.56 0.56 0.59 0.71 -1.15 -1.26zm1.29 1.44l-15.38 76.79 -1.15 -1.26 -0.15 -0.18 16.53 -75.52 0.15 0.18zm-15.38 76.79l-0.56 -0.56 -0.59 -0.71 1.15 1.26zm14.5 -77.78l11.03 39.02 -25.26 39.02 -0.26 -0.26 14.23 -78.05 0.26 0.26zm0 0l11.03 11.03 0 28 -11.03 -39.02zm11.03 39.05l-24.38 39.85 -11.91 -39.85 0 -0.03 36.29 0 0 0.03zm-24.38 39.85l-11.91 -10.2 0 -29.64 11.91 39.85zm12.67 -79.52l1.74 1.71 -14.2 77.99 -0.21 -0.18 12.47 -79.7 0.21 0.18zm0 0l0.97 0.82 0.76 0.88 -1.74 -1.71zm1.94 1.94l1.82 2.41 -17.76 73.87 -0.21 -0.24 15.94 -76.29 0.21 0.24zm0 0l0.91 1.03 0.91 1.38 -1.82 -2.41zm1.88 2.5l-16.91 74.76 -2.68 -3.29 -0.06 -0.09 19.59 -71.46 0.06 0.09zm-16.91 74.76l-1.44 -1.44 -1.24 -1.85 2.68 3.29zm14.38 -77.9l-14.23 78.05 -0.15 -0.15 14.23 -78.05 0.15 0.15zm0.21 0.21l-12.09 79.84 -2.15 -1.79 -0.21 -0.21 14.23 -78.05 0.21 0.21zm-12.09 79.84l-1.06 -0.71 -1.09 -1.09 2.15 1.79zm10.03 -81.58l2.15 1.79 -12.09 79.84 -0.09 -0.06 9.94 -81.64 0.09 0.06zm0 0l1.06 0.71 1.09 1.09 -2.15 -1.79zm2.29 1.94l-13.47 78.78 -0.76 -0.74 -0.15 -0.15 14.23 -78.05 0.15 0.15zm-13.47 78.78l-0.24 -0.21 -0.53 -0.53 0.76 0.74zm12.94 -79.31l-11.32 80.58 -1.38 -1.06 -0.24 -0.21 12.7 -79.52 0.24 0.21zm-11.32 80.58l-0.74 -0.47 -0.65 -0.59 1.38 1.06zm10.03 -81.58l0.88 0.65 -10.82 80.99 -0.09 -0.06 9.94 -81.64 0.09 0.06zm0 0l0.44 0.29 0.44 0.35 -0.88 -0.65zm1.03 0.76l2.12 2.03 -13.82 78.31 -0.15 -0.12 11.7 -80.34 0.15 0.12zm0 0l1.15 0.91 0.97 1.12 -2.12 -2.03zm2.32 2.26l-12.94 78.96 -3 -2.68 -0.21 -0.24 15.94 -76.29 0.21 0.24zm-12.94 78.96l-1.59 -1.06 -1.41 -1.62 3 2.68zm10.03 -81.58l0.88 0.65 -10.82 80.99 -0.09 -0.06 9.94 -81.64 0.09 0.06zm0 0l0.44 0.29 0.44 0.35 -0.88 -0.65zm1.03 0.76l0.38 0.32 -12.09 80.02 -0.15 -0.12 11.7 -80.34 0.15 0.12zm0 0l0.09 0.06 0.29 0.26 -0.38 -0.32zm0.59 0.5l-10.03 81.34 -2.44 -1.65 -0.21 -0.18 12.47 -79.7 0.21 0.18zm-10.03 81.34l-1.24 -0.62 -1.21 -1.03 2.44 1.65zm7.7 -82.93l3.32 2.47 -10.91 80.52 -0.12 -0.06 7.59 -82.99 0.12 0.06zm0 0l1.71 0.85 1.62 1.62 -3.32 -2.47zm3.44 2.59l-12.65 79.43 -1.59 -1.38 -0.12 -0.12 14.23 -78.05 0.12 0.12zm-12.65 79.43l-0.82 -0.62 -0.76 -0.76 1.59 1.38zm11.29 -80.64l-10.5 81.23 -0.56 -0.41 -0.24 -0.18 11.06 -80.81 0.24 0.18zm-10.5 81.23l-0.09 -0.06 -0.47 -0.35 0.56 0.41zm10.03 -81.58l0.88 0.65 -10.82 80.99 -0.09 -0.06 9.94 -81.64 0.09 0.06zm0 0l0.44 0.29 0.44 0.35 -0.88 -0.65zm1.03 0.76l-10.53 81.17 -1.18 -0.82 -0.15 -0.12 11.7 -80.34 0.15 0.12zm-10.53 81.17l-0.68 -0.41 -0.5 -0.41 1.18 0.82zm9.59 -81.84l0.85 0.59 -10.2 81.4 -0.24 -0.15 9.35 -81.99 0.24 0.15zm0 0l0.41 0.26 0.44 0.32 -0.85 -0.59zm0.97 0.68l-10.5 81.23 -0.56 -0.41 -0.12 -0.09 11.06 -80.81 0.12 0.09zm-10.5 81.23l-0.09 -0.06 -0.47 -0.35 0.56 0.41zm10.03 -81.58l-9.65 81.81 -0.29 -0.18 -0.09 -0.06 9.94 -81.64 0.09 0.06zm-9.65 81.81l-0.29 -0.18 -0.18 -0.12 0.47 0.29zm9.59 -81.84l0.85 0.59 -10.2 81.4 -0.24 -0.15 9.35 -81.99 0.24 0.15zm0 0l0.41 0.26 0.44 0.32 -0.85 -0.59zm0.97 0.68l-9.32 81.9 -1.74 -1.09 -0.12 -0.09 11.06 -80.81 0.12 0.09zm-9.32 81.9l-0.85 -0.44 -0.88 -0.65 1.74 1.09zm7.7 -82.93l-7.59 82.99 -0.12 -0.06 7.59 -82.99 0.12 0.06zm0.24 0.12l1.74 1.09 -9.32 81.9 -0.24 -0.12 7.59 -82.99 0.24 0.12zm0 0l0.85 0.44 0.88 0.65 -1.74 -1.09zm1.85 1.18l-10.5 81.23 -0.56 -0.41 -0.12 -0.09 11.06 -80.81 0.12 0.09zm-10.5 81.23l-0.09 -0.06 -0.47 -0.35 0.56 0.41zm10.03 -81.58l-8.35 82.52 -1.59 -0.88 -0.09 -0.06 9.94 -81.64 0.09 0.06zm-8.35 82.52l-0.79 -0.35 -0.79 -0.53 1.59 0.88zm7.03 -83.28l2.15 1.29 -8.91 82.11 -0.26 -0.12 6.76 -83.4 0.26 0.12zm0 0l1.03 0.47 1.12 0.82 -2.15 -1.29zm2.26 1.38l-8.09 82.43 -2.97 -1.62 -0.12 -0.09 11.06 -80.81 0.12 0.09zm-8.09 82.43l-1.47 -0.5 -1.5 -1.12 2.97 1.62zm5.21 -84.02l1.24 0.53 -6.35 83.52 -0.09 -0.03 5.12 -84.05 0.09 0.03zm0 0l0.53 0.18 0.71 0.35 -1.24 -0.53zm1.47 0.65l1.74 1.09 -9.32 81.9 -0.24 -0.12 7.59 -82.99 0.24 0.12zm0 0l0.85 0.44 0.88 0.65 -1.74 -1.09zm1.85 1.18l-7.47 82.61 -3.59 -1.79 -0.12 -0.09 11.06 -80.81 0.12 0.09zm-7.47 82.61l-1.79 -0.44 -1.79 -1.35 3.59 1.79zm4 -84.37l0.94 0.29 -4.82 84.11 -0.12 -0.03 3.88 -84.4 0.12 0.03zm0 0l0.47 0.12 0.47 0.18 -0.94 -0.29zm1.18 0.38l1.62 0.79 -7.38 83.02 -0.24 -0.09 5.76 -83.81 0.24 0.09zm0 0l0.79 0.29 0.82 0.5 -1.62 -0.79zm1.76 0.88l-7.06 83.14 -1.94 -0.91 -0.15 -0.09 9 -82.23 0.15 0.09zm-7.06 83.14l-0.94 -0.32 -1 -0.59 1.94 0.91zm5.21 -84.02l0.32 0.12 -5.44 83.93 -0.09 -0.03 5.12 -84.05 0.09 0.03zm0 0l0.09 0.03 0.24 0.09 -0.32 -0.12zm0.56 0.21l0.18 0.06 -5.94 83.75 -0.24 -0.09 5.76 -83.81 0.24 0.09zm0 0l0.18 0.06 0.29 0.12 -0.47 -0.18zm0.32 0.12l0.74 0.35 -6.85 83.34 -0.15 -0.06 6.12 -83.7 0.15 0.06zm0 0l0.15 0.06 0.59 0.29 -0.74 -0.35zm0.79 0.38l-6.35 83.52 -1.24 -0.53 -0.06 -0.03 7.59 -82.99 0.06 0.03zm-6.35 83.52l-0.53 -0.18 -0.71 -0.35 1.24 0.53zm5.38 -83.96l-4.12 84.31 -1 -0.26 -0.26 -0.09 5.12 -84.05 0.26 0.09zm-4.12 84.31l-0.53 -0.12 -0.47 -0.15 1 0.26zm3.26 -84.55l3.41 1.47 -6.53 83.11 -0.15 -0.03 3.12 -84.58 0.15 0.03zm0 0l1.74 0.35 1.68 1.12 -3.41 -1.47zm3.5 1.53l-6.62 83.08 -3.32 -1.44 -0.09 -0.06 9.94 -81.64 0.09 0.06zm-6.62 83.08l-1.71 -0.35 -1.62 -1.09 3.32 1.44zm3.71 -84.43l2.15 0.76 -5.44 83.75 -0.41 -0.09 3.29 -84.52 0.41 0.09zm0 0l1.09 0.24 1.06 0.53 -2.15 -0.76zm2.21 0.79l-5.73 83.7 -1.85 -0.71 -0.06 -0.03 7.59 -82.99 0.06 0.03zm-5.73 83.7l-0.88 -0.24 -0.97 -0.47 1.85 0.71zm4.12 -84.34l0.62 0.18 -4.5 84.23 -0.24 -0.06 3.88 -84.4 0.24 0.06zm0 0l0.35 0.09 0.26 0.09 -0.62 -0.18zm0.79 0.24l-2.56 84.46 -2.56 -0.41 -0.18 -0.06 5.12 -84.05 0.18 0.06zm-2.56 84.46l-1.32 0 -1.24 -0.41 2.56 0.41zm0.06 -84.87l1.94 0.24 -1.94 84.64 -0.06 0 0 -84.87 0.06 0zm0 0l1 0 0.94 0.24 -1.94 -0.24zm2.18 0.29l-3.23 84.55 -0.65 -0.15 -0.24 -0.06 3.88 -84.4 0.24 0.06zm-3.23 84.55l-0.18 -0.03 -0.47 -0.12 0.65 0.15zm2.76 -84.67l-1.29 84.78 -1.29 -0.09 -0.18 -0.03 2.59 -84.7 0.18 0.03zm-1.29 84.78l-0.76 0 -0.53 -0.09 1.29 0.09zm0.06 -84.87l0 84.87 -0.06 0 0 -84.87 0.06 0zm0.03 0l1.24 84.78 -1.24 0.09 -0.03 0 0 -84.87 0.03 0zm1.24 84.78l-0.56 0.09 -0.68 0 1.24 -0.09zm-6.09 -65.58l28.88 44.79 -0.65 1.21 -0.79 1.44 -0.53 0.88 -0.53 0.85 -0.74 1.15 -0.82 1.24 -0.56 0.79 -0.56 0.79 -0.85 1.12 -0.79 0.97 -0.59 0.68 -0.62 0.71 -0.82 0.88 -0.65 0.65 -0.82 0.82 -0.85 0.74 -0.44 0.38 -0.62 0.53 -0.85 0.65 -0.88 0.65 -0.68 0.44 -0.65 0.41 -0.91 0.53 -0.68 0.32 -0.79 0.38 -0.71 0.29 -0.56 0.24 -0.94 0.35 -0.68 0.21 -0.76 0.21 -0.71 0.15 -0.76 0.15 -2.47 -84.7 0.06 -0.03 0.18 -0.03 0.06 -0.03 0.15 -0.03 -0.12 0.06 0.26 -0.12 0.18 -0.06 0.03 -0.03 0.15 -0.09 -0.09 0.06 0.18 -0.12 0.15 -0.09 -0.06 0.06 -0.03 0 0.15 -0.12 0.38 -0.32 -0.03 0.03 -0.06 0.06 0.18 -0.18 -0.06 0.06 0.15 -0.18 0.18 -0.21 -0.03 0.03 -0.09 0.12 0.15 -0.21 0.21 -0.26 -0.12 0.18 -0.03 0.03 0.18 -0.32 0.18 -0.29 -0.09 0.21 0 -0.03 28.88 44.79 -34.82 -23.82zm5.94 -20.97l45.26 -86.43 -16.38 131.22 -28.88 -44.79zm15.29 153.54l-6.18 21.41 -28.64 -45.23 13.59 -108.75 34.82 23.82 -13.59 108.75zm0 0l-1.62 13 -4.56 8.41 6.18 -21.41z"/>
    </g>
    <path class="fil0" d="M5801.26 2129.31c150.98,82.4 165.54,-256.79 217.94,-369.75l296.61 -818.99c61.38,-193.07 235.71,-201.45 343.81,-174.27l-503.47 1382.93c-32.47,94.72 -330.49,126.72 -354.9,-19.91z"/>
   </g>
   <path class="fil2" d="M7508.29 861.99c94.84,-69.49 209.48,-103.99 344.37,-103.99 134.4,0 245.97,34.5 333.73,103.46 88.25,68.99 138.45,167.39 150.13,295.2 -173.36,50.26 -236.94,-41.58 -264.41,-74.96 -1.21,-1.41 -2.41,-2.68 -3.41,-3.91 -88.17,-106.31 -267.09,-93.58 -356.02,-38.29 -40.58,18.26 -65.93,50.2 -77.08,94.84 -10.68,44.61 -9.15,80.14 4.56,106.52 22.82,45.64 78.61,81.14 167.36,106.49l209.48 51.23c245.97,60.35 368.69,198.8 368.69,415.39 0,128.28 -53.23,231.77 -160.25,311.38 -108.05,76.61 -234.33,114.63 -378.87,114.63 -145.04,0 -270.82,-41.58 -377.84,-125.28 -107.02,-83.17 -161.28,-193.74 -163.3,-332.2 172.54,-59.4 208.24,17.17 261.06,87.93 98.31,131.66 201.33,139.81 325.79,132.84 71.99,-4.06 116.6,-29.56 156.16,-64.05 39.55,-35 61.88,-77.08 66.93,-126.78 4.06,-49.7 -11.15,-89.28 -46.14,-119.19 -34.5,-29.94 -82.17,-51.73 -142.51,-65.43l-194.77 -45.14c-137.42,-37.03 -238.88,-91.28 -303.79,-163.8 -62.38,-75.08 -88.25,-168.89 -77.08,-282 10.65,-113.1 63.37,-204.39 157.22,-274.88z"/>
   <path class="fil2" d="M10041.4 1495.85c0,62.9 -1.03,98.93 -3.06,109.08l-1153.31 0c13.7,114.6 64.4,209.45 151.66,285.03 84.17,69.46 178.51,104.46 283.5,104.46 143.63,0 257.85,-35.03 340.31,-107.87 154.1,-136.13 277.67,-53.26 328.64,-20.44 -58.32,119.69 -146.57,212 -264.73,276.94 -117.66,65.4 -247.5,97.87 -389.01,97.87 -203.36,0 -376.81,-68.46 -521.35,-205.92 -137.45,-137.45 -205.92,-317.49 -205.92,-539.14 0,-222.12 68.46,-400.16 204.89,-534.55 136.95,-133.9 309.88,-201.33 519.85,-202.36 209.98,0 379.37,67.96 508.2,203.39 133.4,134.9 200.33,312.93 200.33,533.53zm-414.86 -388.48c-79.14,-67.96 -177.51,-101.93 -294.17,-101.93 -117.16,0 -217.56,33.97 -301.76,101.93 -83.2,72.52 -131.87,166.86 -145.57,281.5l880.96 0c-13.67,-114.63 -60.35,-208.98 -139.45,-281.5z"/>
   <g id="_2685599075968">
    <polygon class="fil0" points="696.27,695.98 2253,0.03 -0,0.03 5.12,2240.94 "/>
    <polygon class="fil0" points="1561.73,1544.97 5.12,2240.94 2258,2240.94 2253,0.03 "/>
   </g>
   <path class="fil2" d="M3256.35 0l158.51 0c28.03,185.48 -29.94,269.76 -159.04,270.38 -181.8,0.88 -271.91,123.78 -269.85,371.9l0 147.1 662.57 1.26c-3.21,139.34 -53.73,246.74 -210.09,251.74l-452.48 -1.26 0 961.12c0.76,148.25 -119.43,243.35 -282.82,238.47l0 -1199.59 -282.79 0c-4.79,-131.84 57.79,-249.18 193.27,-251.74l89.52 0 0 -147.1c0,-205.12 46.11,-363.1 138.84,-473.94 92.69,-111.37 231,-167.3 414.36,-168.33z"/>
   <path class="fil2" d="M4139.98 1450.59l0 569.61c-4.26,162.83 -132.81,203.24 -281.14,208.36l0 -1214.62c5.94,-176.39 123.49,-223.91 281.14,-228.03l0 216.74c41.17,-80.31 102.96,-142.1 185.86,-184.33 82.37,-42.2 170.95,-63.32 265.15,-63.32 181.24,0 317.7,55.61 409.83,167.33 96.28,109.66 145.22,267.2 146.25,472.15l0 834.08c-162.83,14.82 -271.94,-46.79 -281.14,-211.09l0 -604.46c0,-121.52 -28.82,-215.21 -85.96,-280.61 -55.61,-68.49 -137.48,-102.46 -246.12,-102.46 -109.66,0 -202.86,35.53 -279.06,107.11 -76.73,71.05 -114.81,176.07 -114.81,313.55z"/>
   <path class="fil0" d="M3639.04 816.37l0 1155.95c-3.85,186.3 -98.58,251.29 -281.08,256.23l0 -1209.15c2.73,-160.16 143.01,-199.18 281.08,-203.03z"/>
   <path class="fil0" d="M7071.17 775.97l0 1204.77c-3.91,189.18 -100.11,255.18 -285.44,260.18l0 -1227.83c2.79,-162.63 145.22,-233.24 285.44,-237.12z"/>
   <path class="fil0 str0" d="M6930.62 62.35c51.99,0 97.84,17 136.95,50.99 39.64,34.5 59.23,78.26 59.23,131.28 0,53.02 -19.59,96.78 -59.23,131.28 -39.11,34 -84.96,50.99 -136.95,50.99 -51.99,0 -97.81,-17.53 -138.48,-52.52 -36.55,-35.53 -54.58,-78.78 -54.58,-129.75 0,-51.49 18.03,-94.22 54.58,-129.75 40.67,-35 86.49,-52.52 138.48,-52.52z"/>
  </g>
 </g>
</svg>
