<?xml version="1.0" encoding="UTF-8"?>
<!DOCTYPE svg PUBLIC "-//W3C//DTD SVG 1.1//EN" "http://www.w3.org/Graphics/SVG/1.1/DTD/svg11.dtd">
<!-- Creator: CorelDRAW 2018 (64-Bit Evaluation Version) -->
<svg xmlns="http://www.w3.org/2000/svg" xml:space="preserve" width="34.1448mm" height="7.6201mm" version="1.1" style="shape-rendering:geometricPrecision; text-rendering:geometricPrecision; image-rendering:optimizeQuality; fill-rule:evenodd; clip-rule:evenodd"
viewBox="0 0 985.88 220.02"
 xmlns:xlink="http://www.w3.org/1999/xlink">
 <defs>
  <style type="text/css">
   <![CDATA[
    .str0 {stroke:#FFC035;stroke-width:5.77;stroke-miterlimit:22.9256}
    .fil3 {fill:#0A408D}
    .fil4 {fill:#313B4A}
    .fil0 {fill:#313B4A}
    .fil2 {fill:#FFC035}
    .fil1 {fill:#313B4A;fill-rule:nonzero}
   ]]>
  </style>
 </defs>
 <g id="Layer_x0020_1">
  <metadata id="CorelCorpID_0Corel-Layer"/>
  <g id="_2685149277056">
   <g>
    <g>
     <path class="fil0" d="M586.53 206.87c-4.22,7.79 -11.37,7.77 -14.68,2.19l-0.09 -0.15 -0.01 -0.02 -0.03 -0.06 -0.15 -0.28 -0.01 -0.01 -0.09 -0.18 -0.09 -0.18 -46.97 -126.6c9.29,-4.87 22.54,-4.72 27.89,9.44l38.49 104.12 -5.36 1.09 0.02 0.03 0 0 0.02 0.03 0.02 0.03 0 0 0.02 0.03 0.02 0.03 0 0 0.02 0.03 0.02 0.03 0 0 0.02 0.03 0.02 0.03 0 0 0.02 0.03 0.02 0.03 0 0 0.02 0.02 0.02 0.03 0.01 0.01 0.01 0.02 0.02 0.03 0.01 0.01 0.01 0.02 0.02 0.03 0.01 0.01 0.02 0.02 0.02 0.02 0.01 0.01 0.01 0.02 0.03 0.03 0 0 0.02 0.02 0.02 0.02 0.01 0.01 0.01 0.01 0.02 0.02 0.01 0.01 0.01 0.01 0.02 0.02 0.01 0.01 0.01 0.01 0.02 0.02 0.01 0.01 0.01 0.01 0.02 0.02 0.01 0.01 0.01 0.01 0.02 0.02 0.01 0.01 0.01 0.01 0.02 0.01 0.01 0.01 0.01 0.01 0.02 0.01 0.01 0.01 0.01 0.01 0.02 0.01 0.01 0.01 0.01 0.01 0.03 0.01 0.01 0.01 0.01 0 0.02 0.01 0.01 0.01 0.01 0 0.02 0.01 0.01 0.01 0.01 0 0.02 0.01 0.01 0.01 0.01 0 0.03 0.01 0.01 0 0.01 0.01 0.04 0.01 0.01 0 0.02 0.01 0.02 0.01 0.01 0 0.02 0.01 0.02 0 0.01 0 0 0c0.44,-0.07 0.88,-0.44 1.23,-1.11l-1.33 10.68z"/>
     <path id="1" class="fil1" d="M572.9 205.69l-0.01 -0.02 0.23 0.37 0.25 0.35 0.28 0.34 0.3 0.32 0.32 0.3 0.34 0.28 0.36 0.25 0.38 0.23 0.39 0.2 0.41 0.17 0.42 0.14 0.43 0.11 0.43 0.07 0.44 0.04 0.45 0.01 0.45 -0.03 0.45 -0.06 0.46 -0.1 0.46 -0.13 0.45 -0.17 0.45 -0.21 0.45 -0.24 0.44 -0.27 0.44 -0.31 0.42 -0.34 0.41 -0.38 0.4 -0.42 0.39 -0.45 0.38 -0.49 0.37 -0.51 0.34 -0.55 0.33 -0.58 2.21 6.54 -0.47 0.83 -0.49 0.78 -0.51 0.72 -0.52 0.66 -0.53 0.61 -0.54 0.55 -0.55 0.5 -0.56 0.45 -0.56 0.4 -0.57 0.36 -0.57 0.3 -0.57 0.26 -0.57 0.21 -0.57 0.17 -0.57 0.12 -0.57 0.08 -0.57 0.03 -0.56 -0.01 -0.56 -0.05 -0.55 -0.1 -0.55 -0.14 -0.54 -0.18 -0.53 -0.22 -0.53 -0.27 -0.51 -0.31 -0.5 -0.35 -0.49 -0.4 -0.48 -0.44 -0.46 -0.49 -0.45 -0.54 -0.43 -0.6 -0.41 -0.65 -0.01 -0.02 2.1 -6.73zm-2.09 6.74l-0.01 -0.02 -0.08 -0.14 0.09 0.16zm-0.1 -0.17l-0.01 -0.03 2.12 -6.7 0.09 0.15 -2.1 6.73 -0.09 -0.15zm0 0l0.02 0.03 -0.03 -0.06 0.01 0.03zm-0.03 -0.05l2.13 -6.68 0.01 0.02 -2.13 6.68 -0.01 -0.02zm-0.03 -0.06l-0.04 -0.07 2.17 -6.61 0.03 0.06 -2.13 6.68 -0.03 -0.06zm0 0l-0.04 -0.07 0.04 0.07 0 0zm-0.19 -0.35l2.06 -6.78 0.14 0.24 0.15 0.28 -2.21 6.54 -0.15 -0.28zm2.06 -6.78l0.06 0.1 0.08 0.14 -0.14 -0.24zm-1.93 7.01l-0.18 -0.32 2.11 -6.7 0.01 0.01 -1.92 7.02 -0.01 -0.01zm0 0l-0.09 -0.14 -0.09 -0.18 0.18 0.32zm-0.28 -0.5l-0.02 -0.04 2.31 -6.33 0.09 0.18 -2.29 6.38 -0.09 -0.18zm0 0l-0.01 -0.02 -0.01 -0.02 0.02 0.04zm-0.11 -0.22l-0.18 -0.42 2.51 -5.88 0.09 0.18 -2.33 6.29 -0.09 -0.18zm0 0l-0.1 -0.21 -0.08 -0.21 0.18 0.42zm-47.15 -127.01l0.96 -6.8 1.74 1.33 46.97 126.6 -2.69 5.46 -46.97 -126.6zm0 0l-1.95 -5.27 2.91 -1.52 -0.96 6.8zm27.89 9.44l0.01 0.03 -0.43 -1.06 -0.48 -1.01 -0.52 -0.96 -0.56 -0.9 -0.6 -0.85 -0.64 -0.8 -0.68 -0.74 -0.71 -0.69 -0.74 -0.63 -0.78 -0.57 -0.8 -0.52 -0.83 -0.46 -0.86 -0.4 -0.87 -0.35 -0.89 -0.29 -0.91 -0.24 -0.93 -0.19 -0.94 -0.14 -0.94 -0.08 -0.96 -0.04 -0.96 0.01 -0.96 0.05 -0.96 0.1 -0.96 0.14 -0.95 0.18 -0.94 0.23 -0.93 0.26 -0.92 0.3 -0.91 0.33 -0.89 0.36 -0.87 0.4 -0.85 0.42 -0.78 -8.13 0.92 -0.46 0.93 -0.42 0.96 -0.39 0.97 -0.35 0.98 -0.32 1 -0.28 1.01 -0.24 1.02 -0.2 1.03 -0.15 1.03 -0.1 1.03 -0.06 1.03 -0.01 1.03 0.04 1.03 0.1 1.02 0.15 1.01 0.21 1 0.26 1 0.33 0.98 0.39 0.97 0.46 0.95 0.53 0.93 0.6 0.91 0.67 0.89 0.75 0.86 0.83 0.84 0.92 0.81 1 0.78 1.1 0.74 1.2 0.7 1.3 0.66 1.4 0.62 1.51 0.01 0.03 -2.69 5.45zm2.68 -5.49l0.01 0.03 -0.07 -0.19 0.06 0.15zm38.5 104.16l-1.19 6.88 -1.5 -1.43 -38.49 -104.12 2.69 -5.45 38.49 104.12zm0 0l2.28 6.17 -3.47 0.7 1.19 -6.88zm-6.55 7.96l-1.2 -0.79 0.9 -7.51 5.36 -1.09 0.31 8.3 -5.36 1.09zm-1.2 -0.79l-3.83 -6.56 4.72 -0.96 -0.9 7.51zm2.12 -6.69l0.05 0.08 -2.15 6.64 -0.02 -0.03 2.1 -6.72 0.02 0.03zm0 0l0.03 0.05 0.01 0.03 -0.05 -0.08zm-1.05 3.36l0 0 0 0 0 0 1.1 -3.28 -1.1 3.28zm1.05 -3.36l0.03 0.05 0.01 0.03 -0.05 -0.08zm0.06 0.11l-2.15 6.64 -0.05 -0.08 -0.02 -0.03 2.19 -6.56 0.02 0.03zm-2.15 6.64l-0.03 -0.05 -0.01 -0.03 0.05 0.08zm2.12 -6.69l0.05 0.08 -2.15 6.64 -0.02 -0.03 2.1 -6.72 0.02 0.03zm0 0l0.03 0.05 0.01 0.03 -0.05 -0.08zm-1.05 3.36l0 0 0 0 0 0 1.1 -3.28 -1.1 3.28zm1.05 -3.36l0.03 0.05 0.01 0.03 -0.05 -0.08zm0.06 0.11l-2.09 6.74 -0.1 -0.18 -0.02 -0.03 2.19 -6.56 0.02 0.03zm-2.09 6.74l-0.04 -0.07 -0.06 -0.11 0.1 0.18zm2.01 -6.89l-1.69 7.29 -0.29 -0.37 -0.02 -0.03 1.99 -6.92 0.02 0.03zm-1.69 7.29l-0.16 -0.16 -0.14 -0.21 0.29 0.37zm1.4 -7.66l0.33 0.44 -1.73 7.23 -0 -0 1.4 -7.66 0 0zm0 0l0.18 0.18 0.15 0.25 -0.33 -0.44zm0.35 0.46l-2.03 6.85 -0.04 -0.06 -0.02 -0.03 2.07 -6.79 0.02 0.03zm-2.03 6.85l-0.04 -0.06 0 0 0.04 0.06zm2.01 -6.89l0.79 3.46 -2.77 3.46 -0.02 -0.03 1.99 -6.92 0.02 0.03zm0 0l0.79 1.24 0 2.22 -0.79 -3.46zm0.79 3.46l-2.64 3.65 -0.92 -3.65 0 -0 3.56 0 0 0zm-2.64 3.65l-0.92 -1.19 0 -2.47 0.92 3.65zm1.74 -7.28l0.24 0.37 -1.95 6.93 -0.02 -0.03 1.72 -7.3 0.02 0.03zm0 0l0.12 0.16 0.12 0.22 -0.24 -0.37zm0.26 0.4l-1.8 7.11 -0.4 -0.55 -0.02 -0.03 2.19 -6.56 0.02 0.03zm-1.8 7.11l-0.21 -0.21 -0.18 -0.34 0.4 0.55zm1.4 -7.66l0.26 0.32 -1.66 7.34 -0 -0 1.4 -7.66 0 0zm0 0l0.14 0.14 0.12 0.18 -0.26 -0.32zm0.28 0.35l-1.89 7.07 -0.03 -0.05 -0.02 -0.03 1.92 -7.02 0.02 0.03zm-1.89 7.07l-0.03 -0.05 -0.01 -0.01 0.04 0.06zm1.87 -7.09l-1.63 7.39 -0.23 -0.27 -0.02 -0.03 1.85 -7.11 0.02 0.03zm-1.63 7.39l-0.12 -0.12 -0.11 -0.15 0.23 0.27zm1.4 -7.66l0.18 0.21 -1.58 7.45 -0 -0 1.4 -7.66 0 0zm0 0l0.1 0.1 0.09 0.12 -0.18 -0.21zm0.2 0.23l0.05 0.06 -1.81 7.18 -0.02 -0.02 1.76 -7.24 0.02 0.02zm0 0l0.03 0.03 0.02 0.03 -0.05 -0.06zm0.07 0.09l-1.63 7.39 -0.23 -0.27 -0.02 -0.03 1.85 -7.11 0.02 0.03zm-1.63 7.39l-0.12 -0.12 -0.11 -0.15 0.23 0.27zm1.4 -7.66l0.31 0.39 -1.7 7.27 -0.01 -0.01 1.4 -7.66 0.01 0.01zm0 0l0.16 0.16 0.14 0.23 -0.31 -0.39zm0.32 0.42l-1.86 7.09 -0.15 -0.21 -0.01 -0.02 2.01 -6.88 0.01 0.02zm-1.86 7.09l-0.07 -0.09 -0.08 -0.12 0.15 0.21zm1.74 -7.28l-1.56 7.48 -0.16 -0.18 -0.02 -0.03 1.72 -7.3 0.02 0.03zm-1.56 7.48l-0.09 -0.09 -0.07 -0.09 0.16 0.18zm1.4 -7.66l0.22 0.26 -1.61 7.41 -0.01 -0.01 1.4 -7.66 0.01 0.01zm0 0l0.12 0.12 0.1 0.14 -0.22 -0.26zm0.23 0.28l-1.77 7.23 -0.06 -0.08 -0.01 -0.02 1.83 -7.15 0.01 0.02zm-1.77 7.23l-0.03 -0.03 -0.03 -0.05 0.06 0.08zm1.74 -7.28l-1.56 7.48 -0.16 -0.18 -0.02 -0.03 1.72 -7.3 0.02 0.03zm-1.56 7.48l-0.09 -0.09 -0.07 -0.09 0.16 0.18zm1.4 -7.66l0.1 0.1 -1.49 7.56 -0.01 -0.01 1.4 -7.66 0.01 0.01zm0 0l0.06 0.06 0.03 0.04 -0.1 -0.1zm0.11 0.12l-1.58 7.48 -0.01 -0.01 -0.02 -0.02 1.59 -7.46 0.02 0.02zm-1.58 7.48l-0.01 -0.01 0.05 0.06 -0.04 -0.05zm1.59 -7.47l-1.48 7.58 -0.08 -0.09 -0.02 -0.02 1.56 -7.49 0.02 0.02zm-1.48 7.58l-0.06 -0.06 -0.02 -0.02 0.08 0.09zm1.4 -7.66l0.11 0.12 -1.51 7.54 -0.01 -0.01 1.4 -7.66 0.01 0.01zm0 0l0.05 0.05 0.06 0.07 -0.11 -0.12zm0.13 0.14l-1.51 7.54 -0.11 -0.12 -0.01 -0.02 1.62 -7.41 0.01 0.02zm-1.51 7.54l-0.05 -0.05 -0.06 -0.07 0.11 0.12zm1.42 -7.64l1.08 3.83 -2.48 3.83 -0.03 -0.03 1.4 -7.66 0.03 0.03zm0 0l1.08 1.08 0 2.75 -1.08 -3.83zm1.08 3.83l-2.39 3.91 -1.17 -3.91 0 -0 3.56 0 0 0zm-2.39 3.91l-1.17 -1 0 -2.91 1.17 3.91zm1.24 -7.81l0.17 0.17 -1.39 7.66 -0.02 -0.02 1.22 -7.82 0.02 0.02zm0 0l0.1 0.08 0.08 0.09 -0.17 -0.17zm0.19 0.19l0.18 0.24 -1.74 7.25 -0.02 -0.02 1.56 -7.49 0.02 0.02zm0 0l0.09 0.1 0.09 0.14 -0.18 -0.24zm0.18 0.25l-1.66 7.34 -0.26 -0.32 -0.01 -0.01 1.92 -7.02 0.01 0.01zm-1.66 7.34l-0.14 -0.14 -0.12 -0.18 0.26 0.32zm1.41 -7.65l-1.4 7.66 -0.01 -0.01 1.4 -7.66 0.01 0.01zm0.02 0.02l-1.19 7.84 -0.21 -0.18 -0.02 -0.02 1.4 -7.66 0.02 0.02zm-1.19 7.84l-0.1 -0.07 -0.11 -0.11 0.21 0.18zm0.98 -8.01l0.21 0.18 -1.19 7.84 -0.01 -0.01 0.98 -8.02 0.01 0.01zm0 0l0.1 0.07 0.11 0.11 -0.21 -0.18zm0.23 0.19l-1.32 7.74 -0.08 -0.07 -0.01 -0.01 1.4 -7.66 0.01 0.01zm-1.32 7.74l-0.02 -0.02 -0.05 -0.05 0.08 0.07zm1.27 -7.79l-1.11 7.91 -0.14 -0.1 -0.02 -0.02 1.25 -7.81 0.02 0.02zm-1.11 7.91l-0.07 -0.05 -0.06 -0.06 0.14 0.1zm0.98 -8.01l0.09 0.06 -1.06 7.95 -0.01 -0.01 0.98 -8.02 0.01 0.01zm0 0l0.04 0.03 0.04 0.03 -0.09 -0.06zm0.1 0.08l0.21 0.2 -1.36 7.69 -0.01 -0.01 1.15 -7.89 0.01 0.01zm0 0l0.11 0.09 0.1 0.11 -0.21 -0.2zm0.23 0.22l-1.27 7.75 -0.29 -0.26 -0.02 -0.02 1.56 -7.49 0.02 0.02zm-1.27 7.75l-0.16 -0.1 -0.14 -0.16 0.29 0.26zm0.98 -8.01l0.09 0.06 -1.06 7.95 -0.01 -0.01 0.98 -8.02 0.01 0.01zm0 0l0.04 0.03 0.04 0.03 -0.09 -0.06zm0.1 0.08l0.04 0.03 -1.19 7.86 -0.01 -0.01 1.15 -7.89 0.01 0.01zm0 0l0.01 0.01 0.03 0.03 -0.04 -0.03zm0.06 0.05l-0.98 7.99 -0.24 -0.16 -0.02 -0.02 1.22 -7.82 0.02 0.02zm-0.98 7.99l-0.12 -0.06 -0.12 -0.1 0.24 0.16zm0.76 -8.14l0.33 0.24 -1.07 7.91 -0.01 -0.01 0.74 -8.15 0.01 0.01zm0 0l0.17 0.08 0.16 0.16 -0.33 -0.24zm0.34 0.25l-1.24 7.8 -0.16 -0.14 -0.01 -0.01 1.4 -7.66 0.01 0.01zm-1.24 7.8l-0.08 -0.06 -0.08 -0.08 0.16 0.14zm1.11 -7.92l-1.03 7.97 -0.05 -0.04 -0.02 -0.02 1.09 -7.93 0.02 0.02zm-1.03 7.97l-0.01 -0.01 -0.05 -0.03 0.05 0.04zm0.98 -8.01l0.09 0.06 -1.06 7.95 -0.01 -0.01 0.98 -8.02 0.01 0.01zm0 0l0.04 0.03 0.04 0.03 -0.09 -0.06zm0.1 0.08l-1.03 7.97 -0.12 -0.08 -0.01 -0.01 1.15 -7.89 0.01 0.01zm-1.03 7.97l-0.07 -0.04 -0.05 -0.04 0.12 0.08zm0.94 -8.04l0.08 0.06 -1 7.99 -0.02 -0.01 0.92 -8.05 0.02 0.01zm0 0l0.04 0.03 0.04 0.03 -0.08 -0.06zm0.1 0.07l-1.03 7.97 -0.05 -0.04 -0.01 -0.01 1.09 -7.93 0.01 0.01zm-1.03 7.97l-0.01 -0.01 -0.05 -0.03 0.05 0.04zm0.98 -8.01l-0.95 8.03 -0.03 -0.02 -0.01 -0.01 0.98 -8.02 0.01 0.01zm-0.95 8.03l-0.03 -0.02 -0.02 -0.01 0.05 0.03zm0.94 -8.04l0.08 0.06 -1 7.99 -0.02 -0.01 0.92 -8.05 0.02 0.01zm0 0l0.04 0.03 0.04 0.03 -0.08 -0.06zm0.1 0.07l-0.92 8.04 -0.17 -0.11 -0.01 -0.01 1.09 -7.93 0.01 0.01zm-0.92 8.04l-0.08 -0.04 -0.09 -0.06 0.17 0.11zm0.76 -8.14l-0.74 8.15 -0.01 -0.01 0.74 -8.15 0.01 0.01zm0.02 0.01l0.17 0.11 -0.92 8.04 -0.02 -0.01 0.74 -8.15 0.02 0.01zm0 0l0.08 0.04 0.09 0.06 -0.17 -0.11zm0.18 0.12l-1.03 7.97 -0.05 -0.04 -0.01 -0.01 1.09 -7.93 0.01 0.01zm-1.03 7.97l-0.01 -0.01 -0.05 -0.03 0.05 0.04zm0.98 -8.01l-0.82 8.1 -0.16 -0.09 -0.01 -0.01 0.98 -8.02 0.01 0.01zm-0.82 8.1l-0.08 -0.03 -0.08 -0.05 0.16 0.09zm0.69 -8.18l0.21 0.13 -0.87 8.06 -0.03 -0.01 0.66 -8.19 0.03 0.01zm0 0l0.1 0.05 0.11 0.08 -0.21 -0.13zm0.22 0.14l-0.79 8.09 -0.29 -0.16 -0.01 -0.01 1.09 -7.93 0.01 0.01zm-0.79 8.09l-0.14 -0.05 -0.15 -0.11 0.29 0.16zm0.51 -8.25l0.12 0.05 -0.62 8.2 -0.01 -0 0.5 -8.25 0.01 0zm0 0l0.05 0.02 0.07 0.03 -0.12 -0.05zm0.14 0.06l0.17 0.11 -0.92 8.04 -0.02 -0.01 0.74 -8.15 0.02 0.01zm0 0l0.08 0.04 0.09 0.06 -0.17 -0.11zm0.18 0.12l-0.73 8.11 -0.35 -0.18 -0.01 -0.01 1.09 -7.93 0.01 0.01zm-0.73 8.11l-0.18 -0.04 -0.18 -0.13 0.35 0.18zm0.39 -8.28l0.09 0.03 -0.47 8.26 -0.01 -0 0.38 -8.29 0.01 0zm0 0l0.05 0.01 0.05 0.02 -0.09 -0.03zm0.12 0.04l0.16 0.08 -0.72 8.15 -0.02 -0.01 0.57 -8.23 0.02 0.01zm0 0l0.08 0.03 0.08 0.05 -0.16 -0.08zm0.17 0.09l-0.69 8.16 -0.19 -0.09 -0.01 -0.01 0.88 -8.07 0.01 0.01zm-0.69 8.16l-0.09 -0.03 -0.1 -0.06 0.19 0.09zm0.51 -8.25l0.03 0.01 -0.53 8.24 -0.01 -0 0.5 -8.25 0.01 0zm0 0l0.01 0 0.02 0.01 -0.03 -0.01zm0.05 0.02l0.02 0.01 -0.58 8.22 -0.02 -0.01 0.57 -8.23 0.02 0.01zm0 0l0.02 0.01 0.03 0.01 -0.05 -0.02zm0.03 0.01l0.07 0.03 -0.67 8.18 -0.01 -0.01 0.6 -8.22 0.01 0.01zm0 0l0.01 0.01 0.06 0.03 -0.07 -0.03zm0.08 0.04l-0.62 8.2 -0.12 -0.05 -0.01 -0 0.74 -8.15 0.01 0zm-0.62 8.2l-0.05 -0.02 -0.07 -0.03 0.12 0.05zm0.53 -8.24l-0.4 8.28 -0.1 -0.03 -0.03 -0.01 0.5 -8.25 0.03 0.01zm-0.4 8.28l-0.05 -0.01 -0.05 -0.01 0.1 0.03zm0.32 -8.3l0.33 0.14 -0.64 8.16 -0.01 -0 0.31 -8.3 0.01 0zm0 0l0.17 0.03 0.16 0.11 -0.33 -0.14zm0.34 0.15l-0.65 8.16 -0.33 -0.14 -0.01 -0.01 0.98 -8.02 0.01 0.01zm-0.65 8.16l-0.17 -0.03 -0.16 -0.11 0.33 0.14zm0.36 -8.29l0.21 0.08 -0.53 8.22 -0.04 -0.01 0.32 -8.3 0.04 0.01zm0 0l0.11 0.02 0.1 0.05 -0.21 -0.08zm0.22 0.08l-0.56 8.22 -0.18 -0.07 -0.01 -0 0.74 -8.15 0.01 0zm-0.56 8.22l-0.09 -0.02 -0.1 -0.05 0.18 0.07zm0.4 -8.28l0.06 0.02 -0.44 8.27 -0.02 -0.01 0.38 -8.29 0.02 0.01zm0 0l0.03 0.01 0.03 0.01 -0.06 -0.02zm0.08 0.02l-0.25 8.29 -0.25 -0.04 -0.02 -0.01 0.5 -8.25 0.02 0.01zm-0.25 8.29l-0.13 0 -0.12 -0.04 0.25 0.04zm0.01 -8.33l0.19 0.02 -0.19 8.31 -0.01 0 0 -8.33 0.01 0zm0 0l0.1 0 0.09 0.02 -0.19 -0.02zm0.21 0.03l-0.32 8.3 -0.06 -0.01 -0.02 -0.01 0.38 -8.29 0.02 0.01zm-0.32 8.3l-0.02 -0 -0.05 -0.01 0.06 0.01zm0.27 -8.31l-0.13 8.32 -0.13 -0.01 -0.02 -0 0.25 -8.32 0.02 0zm-0.13 8.32l-0.08 0 -0.05 -0.01 0.13 0.01zm0.01 -8.33l0 8.33 -0.01 0 0 -8.33 0.01 0zm0 0l0.12 8.32 -0.12 0.01 -0 0 0 -8.33 0 0zm0.12 8.32l-0.05 0.01 -0.07 0 0.12 -0.01zm-0.6 -6.44l2.84 4.4 -0.06 0.12 -0.08 0.14 -0.05 0.09 -0.05 0.08 -0.07 0.11 -0.08 0.12 -0.05 0.08 -0.05 0.08 -0.08 0.11 -0.08 0.1 -0.06 0.07 -0.06 0.07 -0.08 0.09 -0.06 0.06 -0.08 0.08 -0.08 0.07 -0.04 0.04 -0.06 0.05 -0.08 0.06 -0.09 0.06 -0.07 0.04 -0.06 0.04 -0.09 0.05 -0.07 0.03 -0.08 0.04 -0.07 0.03 -0.05 0.02 -0.09 0.03 -0.07 0.02 -0.08 0.02 -0.07 0.01 -0.08 0.01 -0.24 -8.32 0.01 -0 0.02 -0 0.01 -0 0.01 -0 -0.01 0.01 0.03 -0.01 0.02 -0.01 0 -0 0.01 -0.01 -0.01 0.01 0.02 -0.01 0.01 -0.01 -0.01 0.01 -0 0 0.01 -0.01 0.04 -0.03 -0 0 -0.01 0.01 0.02 -0.02 -0.01 0.01 0.01 -0.02 0.02 -0.02 -0 0 -0.01 0.01 0.01 -0.02 0.02 -0.03 -0.01 0.02 -0 0 0.02 -0.03 0.02 -0.03 -0.01 0.02 0 -0 2.84 4.4 -3.42 -2.34zm0.58 -2.06l4.44 -8.49 -1.61 12.88 -2.84 -4.4zm1.5 15.07l-0.61 2.1 -2.81 -4.44 1.33 -10.68 3.42 2.34 -1.33 10.68zm0 0l-0.16 1.28 -0.45 0.83 0.61 -2.1z"/>
    </g>
    <path class="fil0" d="M569.58 209.06c14.82,8.09 16.25,-25.21 21.4,-36.3l29.12 -80.41c6.03,-18.96 23.14,-19.78 33.76,-17.11l-49.43 135.78c-3.19,9.3 -32.45,12.44 -34.84,-1.95z"/>
   </g>
   <path class="fil1" d="M737.17 84.63c9.31,-6.82 20.57,-10.21 33.81,-10.21 13.2,0 24.15,3.39 32.77,10.16 8.66,6.77 13.59,16.43 14.74,28.98 -17.02,4.93 -23.26,-4.08 -25.96,-7.36 -0.12,-0.14 -0.24,-0.26 -0.33,-0.38 -8.66,-10.44 -26.22,-9.19 -34.95,-3.76 -3.98,1.79 -6.47,4.93 -7.57,9.31 -1.05,4.38 -0.9,7.87 0.45,10.46 2.24,4.48 7.72,7.97 16.43,10.46l20.57 5.03c24.15,5.92 36.2,19.52 36.2,40.78 0,12.59 -5.23,22.76 -15.73,30.57 -10.61,7.52 -23.01,11.25 -37.2,11.25 -14.24,0 -26.59,-4.08 -37.1,-12.3 -10.51,-8.17 -15.83,-19.02 -16.03,-32.62 16.94,-5.83 20.45,1.69 25.63,8.63 9.65,12.93 19.77,13.73 31.99,13.04 7.07,-0.4 11.45,-2.9 15.33,-6.29 3.88,-3.44 6.07,-7.57 6.57,-12.45 0.4,-4.88 -1.09,-8.77 -4.53,-11.7 -3.39,-2.94 -8.07,-5.08 -13.99,-6.42l-19.12 -4.43c-13.49,-3.64 -23.45,-8.96 -29.83,-16.08 -6.12,-7.37 -8.66,-16.58 -7.57,-27.69 1.05,-11.1 6.22,-20.07 15.44,-26.99z"/>
   <path class="fil1" d="M985.88 146.86c0,6.18 -0.1,9.71 -0.3,10.71l-113.23 0c1.35,11.25 6.32,20.56 14.89,27.98 8.26,6.82 17.53,10.26 27.83,10.26 14.1,0 25.32,-3.44 33.41,-10.59 15.13,-13.37 27.26,-5.23 32.27,-2.01 -5.73,11.75 -14.39,20.81 -25.99,27.19 -11.55,6.42 -24.3,9.61 -38.19,9.61 -19.97,0 -37,-6.72 -51.19,-20.22 -13.5,-13.5 -20.22,-31.17 -20.22,-52.93 0,-21.81 6.72,-39.29 20.12,-52.48 13.45,-13.15 30.42,-19.77 51.04,-19.87 20.62,0 37.25,6.67 49.9,19.97 13.1,13.24 19.67,30.72 19.67,52.38zm-40.73 -38.14c-7.77,-6.67 -17.43,-10.01 -28.88,-10.01 -11.5,0 -21.36,3.33 -29.63,10.01 -8.17,7.12 -12.95,16.38 -14.29,27.64l86.49 0c-1.34,-11.25 -5.92,-20.52 -13.69,-27.64z"/>
   <g id="_2685149304608">
    <polygon class="fil2" points="68.36,68.33 221.2,0 -0,0 0.5,220.02 "/>
    <polygon class="fil3" points="153.33,151.69 0.5,220.02 221.69,220.02 221.2,0 "/>
   </g>
   <path class="fil1" d="M319.71 0l15.56 0c2.75,18.21 -2.94,26.49 -15.61,26.55 -17.85,0.09 -26.7,12.15 -26.49,36.51l0 14.44 65.05 0.12c-0.31,13.68 -5.28,24.22 -20.63,24.72l-44.42 -0.12 0 94.36c0.08,14.56 -11.73,23.89 -27.77,23.41l0 -117.78 -27.76 0c-0.47,-12.94 5.67,-24.46 18.98,-24.72l8.79 0 0 -14.44c0,-20.14 4.53,-35.65 13.63,-46.53 9.1,-10.93 22.68,-16.43 40.68,-16.53z"/>
   <path class="fil1" d="M406.47 142.42l0 55.93c-0.42,15.99 -13.04,19.95 -27.6,20.46l0 -119.25c0.58,-17.32 12.12,-21.98 27.6,-22.39l0 21.28c4.04,-7.89 10.11,-13.95 18.25,-18.1 8.09,-4.14 16.78,-6.22 26.03,-6.22 17.79,0 31.19,5.46 40.24,16.43 9.45,10.77 14.26,26.23 14.36,46.36l0 81.89c-15.99,1.46 -26.7,-4.59 -27.6,-20.73l0 -59.35c0,-11.93 -2.83,-21.13 -8.44,-27.55 -5.46,-6.72 -13.5,-10.06 -24.16,-10.06 -10.77,0 -19.92,3.49 -27.4,10.52 -7.53,6.98 -11.27,17.29 -11.27,30.78z"/>
   <path class="fil4" d="M357.29 80.15l0 113.49c-0.38,18.29 -9.68,24.67 -27.6,25.16l0 -118.72c0.27,-15.72 14.04,-19.56 27.6,-19.93z"/>
   <path class="fil4" d="M694.26 76.19l0 118.29c-0.38,18.57 -9.83,25.05 -28.02,25.54l0 -120.55c0.27,-15.97 14.26,-22.9 28.02,-23.28z"/>
   <path class="fil2 str0" d="M680.46 6.12c5.1,0 9.61,1.67 13.45,5.01 3.89,3.39 5.82,7.68 5.82,12.89 0,5.21 -1.92,9.5 -5.82,12.89 -3.84,3.34 -8.34,5.01 -13.45,5.01 -5.1,0 -9.6,-1.72 -13.6,-5.16 -3.59,-3.49 -5.36,-7.74 -5.36,-12.74 0,-5.06 1.77,-9.25 5.36,-12.74 3.99,-3.44 8.49,-5.16 13.6,-5.16z"/>
  </g>
 </g>
</svg>
