<?xml version="1.0" encoding="UTF-8"?>
<!DOCTYPE svg PUBLIC "-//W3C//DTD SVG 1.1//EN" "http://www.w3.org/Graphics/SVG/1.1/DTD/svg11.dtd">
<!-- Creator: CorelDRAW 2018 (64-Bit Evaluation Version) -->
<svg xmlns="http://www.w3.org/2000/svg" xml:space="preserve" width="86.5014mm" height="23.8126mm" version="1.1" style="shape-rendering:geometricPrecision; text-rendering:geometricPrecision; image-rendering:optimizeQuality; fill-rule:evenodd; clip-rule:evenodd"
viewBox="0 0 5508.34 1516.37"
 xmlns:xlink="http://www.w3.org/1999/xlink">
 <defs>
  <style type="text/css">
   <![CDATA[
    .str0 {stroke:white;stroke-width:12.74;stroke-miterlimit:22.9256}
    .fil1 {fill:white}
    .fil0 {fill:white;fill-rule:nonzero}
   ]]>
  </style>
 </defs>
 <g id="Layer_x0020_1">
  <metadata id="CorelCorpID_0Corel-Layer"/>
  <path class="fil0" d="M1664.34 0.31l81.54 0c14.42,95.42 -15.4,138.79 -81.81,139.1 -93.53,0.45 -139.9,63.69 -138.83,191.32l0 75.68 172.67 0c-1.65,71.69 -27.64,126.94 -108.08,129.5l-64.6 0 0 494.45c0.39,76.27 -61.44,125.19 -145.49,122.69l0 -617.14 -145.49 0c-2.46,-67.83 29.73,-128.19 99.43,-129.5l46.06 0 0 -75.68c0,-105.52 23.71,-186.79 71.42,-243.81 47.7,-57.29 118.84,-86.07 213.17,-86.6z"/>
  <path class="fil0" d="M2238.86 750.42l0 294.8c-2.2,84.29 -68.72,105.19 -145.49,107.84l0 -628.62c3.06,-91.29 63.9,-115.89 145.49,-118.02l0 112.18c21.31,-41.58 53.29,-73.54 96.19,-95.4 42.63,-21.85 88.47,-32.78 137.23,-32.78 93.8,0 164.41,28.78 212.11,86.6 49.84,56.76 75.15,138.3 75.68,244.36l0 431.68c-84.26,7.67 -140.73,-24.22 -145.49,-109.25l0 -312.84c0,-62.88 -14.93,-111.38 -44.5,-145.22 -28.78,-35.44 -71.15,-53.03 -127.38,-53.03 -56.76,0 -104.98,18.39 -144.42,55.43 -39.7,36.77 -59.42,91.12 -59.42,162.27z"/>
  <path class="fil0" d="M2997.04 1153.06c-78.06,4.36 -141.48,-37.92 -145.49,-122l0 -1030.74c83.56,-3.92 143.56,28.96 145.49,122.91l0 543.25 214.34 -216.33c69.92,-63.11 170.55,-66.91 241.59,-43.73l-320.03 322.42 396.5 424.22c-64.42,25.75 -152.76,21.94 -228.02,-38.49l-304.38 -326.31 0 364.8z"/>
  <path class="fil0" d="M3595.85 198.56c-18.91,-18.39 -28.24,-40.77 -28.24,-67.15 0,-26.65 9.33,-48.76 28.24,-67.15 21.05,-18.12 44.77,-27.18 71.68,-27.18 26.91,0 50.62,8.79 70.87,26.38 20.52,17.86 30.65,40.51 30.65,67.95 0,27.45 -10.12,50.1 -30.65,67.95 -20.25,17.59 -43.96,26.38 -70.87,26.38 -26.91,0 -50.63,-9.06 -71.68,-27.18zm-1.06 954.49l0 -627.22c0.27,-78.27 54.66,-117.34 145.49,-119.42l0 612.61c0.11,93.63 -56.2,133.09 -145.49,134.04z"/>
  <path class="fil0" d="M4061.98 601.2c-46.1,45.83 -69.28,106.85 -69.28,183.33 0,76.21 24.52,135.64 73.28,178.27 49.03,42.63 106.85,63.95 174,63.95 67.15,0 124.44,-22.38 171.61,-67.15 44.76,-44.5 67.15,-103.12 67.15,-175.87 0,-72.75 -23.45,-132.7 -70.35,-179.33 -47.17,-46.63 -105.26,-70.35 -173.74,-70.88 -68.75,-0.53 -126.31,22.12 -172.67,67.68zm-70.88 -194.79l0 117.51c24.52,-41.83 59.95,-74.07 106.85,-96.46 45.84,-24.78 97,-37.04 153.75,-37.04 104.19,0 192.39,36.24 264.34,108.99 72.21,71.94 108.18,165.74 108.18,281.12 0,115.39 -35.71,208.92 -107.38,280.86 -71.42,71.68 -159.89,107.66 -265.14,107.66 -56.76,0 -108.72,-11.19 -156.15,-33.58 -47.17,-22.38 -82.07,-53.82 -104.46,-93.8l0 373.6c-3.04,81.69 -71,104.41 -145.49,100.71l0 -979.53c1.12,-112.6 67.24,-130.22 145.49,-130.04z"/>
  <path class="fil0" d="M5289.31 959.6c47.96,-44.77 71.94,-104.99 71.94,-180.93 0,-75.94 -25.05,-135.9 -74.88,-179.6 -50.1,-43.7 -108.98,-65.82 -176.67,-66.35 -67.95,0 -124.71,22.65 -170.54,67.95 -45.83,44.77 -68.75,103.39 -68.75,176.4 0,72.75 23.45,132.7 70.35,179.33 46.89,46.9 104.73,70.35 173.47,70.35 68.75,0 127.1,-22.38 175.07,-67.15zm73.54 193.46l0 -114.58c-23.45,39.18 -58.89,70.61 -106.33,94.6 -47.43,23.99 -99.12,35.98 -155.61,35.98 -103.39,0 -193.19,-36.24 -269.13,-108.73 -73.28,-72.21 -110.06,-166.01 -110.06,-280.86 0,-115.11 36.24,-208.64 108.45,-280.32 72.48,-71.94 162.81,-108.18 270.99,-108.72 54.1,0 106.33,11.19 156.15,33.58 49.03,24.51 84.2,55.95 105.52,94.6 1.72,-99.6 65.21,-117.81 145.49,-112.18l0 620.39c-4.76,84.56 -61.49,126.59 -145.49,126.26z"/>
  <path class="fil1 str0" d="M1979.61 406.41l0 614.04c-2,96.41 -51.02,130.06 -145.49,132.61l0 -625.79c1.43,-82.88 74.01,-118.86 145.49,-120.85z"/>
  <path class="fil1 str0" d="M1906.87 37.09c26.91,0 50.63,8.8 70.88,26.38 20.52,17.86 30.64,40.51 30.64,67.95 0,27.45 -10.12,50.1 -30.64,67.95 -20.25,17.59 -43.97,26.38 -70.88,26.38 -26.92,0 -50.63,-9.06 -71.68,-27.18 -18.92,-18.39 -28.25,-40.77 -28.25,-67.16 0,-26.64 9.33,-48.76 28.25,-67.14 21.05,-18.12 44.76,-27.18 71.68,-27.18z"/>
  <path class="fil1 str0" d="M3667.58 35.46c26.91,0 50.62,8.79 70.88,26.38 20.52,17.86 30.64,40.51 30.64,67.95 0,27.45 -10.12,50.1 -30.64,67.95 -20.26,17.59 -43.97,26.38 -70.88,26.38 -26.92,0 -50.63,-9.06 -71.68,-27.18 -18.92,-18.39 -28.24,-40.77 -28.24,-67.16 0,-26.64 9.32,-48.76 28.24,-67.14 21.05,-18.12 44.77,-27.18 71.68,-27.18z"/>
  <g id="_1836827279280">
   <polygon class="fil1" points="792.84,572.57 1152.48,121.39 451.79,447.95 775.97,1153.11 "/>
   <polygon class="fil1" points="355.6,355.78 1153.2,0.34 -0,0.34 2.61,1153.12 "/>
  </g>
 </g>
</svg>
