<?xml version="1.0" encoding="UTF-8"?>
<!DOCTYPE svg PUBLIC "-//W3C//DTD SVG 1.1//EN" "http://www.w3.org/Graphics/SVG/1.1/DTD/svg11.dtd">
<!-- Creator: CorelDRAW 2018 (64-Bit Evaluation Version) -->
<svg xmlns="http://www.w3.org/2000/svg" xml:space="preserve" width="43.2504mm" height="11.9062mm" version="1.1" style="shape-rendering:geometricPrecision; text-rendering:geometricPrecision; image-rendering:optimizeQuality; fill-rule:evenodd; clip-rule:evenodd"
viewBox="0 0 2042.78 562.35"
 xmlns:xlink="http://www.w3.org/1999/xlink">
 <defs>
  <style type="text/css">
   <![CDATA[
    .str0 {stroke:#3F4040;stroke-width:9.45;stroke-miterlimit:22.9256}
    .str1 {stroke:#0B85EA;stroke-width:9.45;stroke-miterlimit:22.9256}
    .str2 {stroke:#5AEEBC;stroke-width:9.45;stroke-miterlimit:22.9256}
    .fil1 {fill:#3F4040}
    .fil2 {fill:#0B85EA}
    .fil4 {fill:#0B85EA}
    .fil3 {fill:#5AEEBC}
    .fil0 {fill:#3F4040;fill-rule:nonzero}
   ]]>
  </style>
 </defs>
 <g id="Layer_x0020_1">
  <metadata id="CorelCorpID_0Corel-Layer"/>
  <path class="fil0" d="M617.23 0.12l30.24 0c5.35,35.38 -5.71,51.47 -30.34,51.58 -34.68,0.17 -51.88,23.62 -51.48,70.96l0 28.06 64.04 0c-0.61,26.58 -10.25,47.08 -40.08,48.02l-23.96 0 0 183.37c0.15,28.29 -22.79,46.43 -53.96,45.5l0 -228.87 -53.95 0c-0.92,-25.16 11.02,-47.54 36.87,-48.02l17.08 0 0 -28.06c0,-39.14 8.79,-69.27 26.48,-90.42 17.69,-21.25 44.08,-31.92 79.06,-32.12z"/>
  <path class="fil0" d="M830.29 278.3l0 109.33c-0.82,31.26 -25.49,39.01 -53.96,39.99l0 -233.12c1.14,-33.86 23.7,-42.98 53.96,-43.77l0 41.6c7.91,-15.42 19.76,-27.27 35.67,-35.38 15.81,-8.1 32.81,-12.16 50.89,-12.16 34.79,0 60.98,10.67 78.66,32.12 18.48,21.05 27.87,51.29 28.06,90.62l0 160.09c-31.25,2.84 -52.19,-8.98 -53.96,-40.52l0 -116.02c0,-23.32 -5.54,-41.3 -16.5,-53.86 -10.67,-13.14 -26.38,-19.66 -47.24,-19.66 -21.05,0 -38.93,6.82 -53.56,20.56 -14.73,13.64 -22.04,33.79 -22.04,60.18z"/>
  <path class="fil0" d="M1111.46 427.61c-28.95,1.62 -52.46,-14.07 -53.96,-45.25l0 -382.25c30.99,-1.45 53.24,10.74 53.96,45.58l0 201.47 79.49 -80.23c25.93,-23.41 63.25,-24.82 89.6,-16.22l-118.69 119.57 147.05 157.32c-23.89,9.55 -56.65,8.13 -84.56,-14.27l-112.88 -121.02 0 135.29z"/>
  <path class="fil0" d="M1333.53 73.64c-7.01,-6.82 -10.47,-15.12 -10.47,-24.91 0,-9.88 3.46,-18.08 10.47,-24.9 7.81,-6.72 16.6,-10.08 26.59,-10.08 9.98,0 18.77,3.26 26.28,9.78 7.61,6.62 11.36,15.02 11.36,25.2 0,10.18 -3.75,18.58 -11.36,25.2 -7.51,6.52 -16.3,9.78 -26.28,9.78 -9.98,0 -18.78,-3.36 -26.59,-10.08zm-0.39 353.98l0 -232.61c0.1,-29.02 20.27,-43.51 53.96,-44.28l0 227.18c0.04,34.72 -20.84,49.36 -53.96,49.71z"/>
  <path class="fil0" d="M1506.39 222.96c-17.1,17 -25.69,39.63 -25.69,67.99 0,28.26 9.09,50.3 27.18,66.11 18.18,15.81 39.63,23.71 64.53,23.71 24.91,0 46.15,-8.3 63.64,-24.9 16.6,-16.5 24.9,-38.24 24.9,-65.22 0,-26.98 -8.7,-49.21 -26.09,-66.51 -17.49,-17.29 -39.04,-26.09 -64.43,-26.28 -25.5,-0.2 -46.84,8.2 -64.04,25.1zm-26.28 -72.24l0 43.58c9.09,-15.52 22.23,-27.47 39.63,-35.77 16.99,-9.19 35.97,-13.73 57.02,-13.73 38.64,0 71.35,13.44 98.03,40.42 26.78,26.68 40.12,61.46 40.12,104.25 0,42.79 -13.24,77.47 -39.83,104.15 -26.48,26.58 -59.29,39.92 -98.33,39.92 -21.05,0 -40.32,-4.15 -57.91,-12.45 -17.49,-8.3 -30.44,-19.96 -38.74,-34.79l0 138.55c-1.13,30.29 -26.33,38.72 -53.96,37.35l0 -363.26c0.41,-41.76 24.93,-48.29 53.96,-48.22z"/>
  <path class="fil0" d="M1961.55 355.87c17.79,-16.6 26.68,-38.94 26.68,-67.1 0,-28.16 -9.29,-50.4 -27.77,-66.61 -18.58,-16.21 -40.42,-24.41 -65.51,-24.61 -25.2,0 -46.25,8.4 -63.25,25.2 -16.99,16.6 -25.5,38.34 -25.5,65.42 0,26.98 8.7,49.21 26.09,66.51 17.39,17.39 38.83,26.09 64.33,26.09 25.5,0 47.14,-8.3 64.93,-24.9zm27.27 71.74l0 -42.49c-8.7,14.53 -21.84,26.19 -39.43,35.08 -17.59,8.9 -36.76,13.34 -57.71,13.34 -38.34,0 -71.65,-13.44 -99.8,-40.32 -27.18,-26.78 -40.82,-61.56 -40.82,-104.15 0,-42.69 13.44,-77.37 40.22,-103.96 26.88,-26.68 60.38,-40.12 100.5,-40.32 20.06,0 39.43,4.15 57.91,12.45 18.18,9.09 31.22,20.75 39.13,35.08 0.64,-36.94 24.18,-43.69 53.96,-41.6l0 230.07c-1.77,31.36 -22.8,46.95 -53.96,46.83z"/>
  <path class="fil1 str0" d="M734.14 150.72l0 227.72c-0.74,35.75 -18.92,48.23 -53.95,49.17l0 -232.07c0.53,-30.74 27.45,-44.08 53.95,-44.82z"/>
  <path class="fil2 str1" d="M707.17 13.75c9.98,0 18.77,3.26 26.28,9.79 7.61,6.62 11.36,15.02 11.36,25.2 0,10.18 -3.75,18.58 -11.36,25.2 -7.51,6.52 -16.3,9.78 -26.28,9.78 -9.98,0 -18.78,-3.36 -26.58,-10.08 -7.02,-6.82 -10.48,-15.12 -10.48,-24.9 0,-9.88 3.46,-18.08 10.48,-24.91 7.8,-6.72 16.6,-10.08 26.58,-10.08z"/>
  <path class="fil3 str2" d="M1360.13 13.15c9.98,0 18.77,3.26 26.28,9.79 7.61,6.62 11.37,15.02 11.37,25.2 0,10.18 -3.76,18.58 -11.37,25.2 -7.51,6.52 -16.3,9.78 -26.28,9.78 -9.98,0 -18.77,-3.36 -26.58,-10.08 -7.02,-6.82 -10.48,-15.12 -10.48,-24.9 0,-9.89 3.46,-18.08 10.48,-24.91 7.81,-6.72 16.6,-10.08 26.58,-10.08z"/>
  <g id="_1872246977712">
   <polygon class="fil3" points="294.02,212.34 427.4,45.02 167.54,166.12 287.77,427.63 "/>
   <polygon class="fil4" points="131.87,131.94 427.67,0.12 -0,0.12 0.97,427.63 "/>
  </g>
 </g>
</svg>
