<?xml version="1.0" encoding="UTF-8"?>
<!DOCTYPE svg PUBLIC "-//W3C//DTD SVG 1.1//EN" "http://www.w3.org/Graphics/SVG/1.1/DTD/svg11.dtd">
<!-- Creator: CorelDRAW 2018 (64-Bit Evaluation Version) -->
<svg xmlns="http://www.w3.org/2000/svg" xml:space="preserve" width="43.2504mm" height="11.9062mm" version="1.1" style="shape-rendering:geometricPrecision; text-rendering:geometricPrecision; image-rendering:optimizeQuality; fill-rule:evenodd; clip-rule:evenodd"
viewBox="0 0 1907.98 525.24"
 xmlns:xlink="http://www.w3.org/1999/xlink">
 <defs>
  <style type="text/css">
   <![CDATA[
    .str0 {stroke:white;stroke-width:8.82;stroke-miterlimit:22.9256}
    .fil1 {fill:white}
    .fil0 {fill:white;fill-rule:nonzero}
   ]]>
  </style>
 </defs>
 <g id="Layer_x0020_1">
  <metadata id="CorelCorpID_0Corel-Layer"/>
  <path class="fil0" d="M576.5 0.11l28.24 0c4.99,33.05 -5.33,48.07 -28.34,48.18 -32.39,0.16 -48.46,22.06 -48.09,66.27l0 26.21 59.81 0c-0.57,24.83 -9.57,43.97 -37.44,44.86l-22.38 0 0 171.27c0.14,26.42 -21.29,43.36 -50.4,42.5l0 -213.77 -50.39 0c-0.86,-23.5 10.3,-44.4 34.44,-44.86l15.96 0 0 -26.21c0,-36.55 8.21,-64.7 24.74,-84.45 16.52,-19.85 41.17,-29.82 73.84,-30z"/>
  <path class="fil0" d="M775.5 259.93l0 102.11c-0.76,29.2 -23.8,36.43 -50.4,37.35l0 -217.74c1.06,-31.62 22.13,-40.14 50.4,-40.88l0 38.86c7.38,-14.4 18.46,-25.47 33.32,-33.04 14.77,-7.57 30.65,-11.36 47.53,-11.36 32.49,0 56.95,9.97 73.47,30 17.26,19.66 26.03,47.9 26.21,84.64l0 149.53c-29.19,2.66 -48.75,-8.39 -50.4,-37.84l0 -108.36c0,-21.78 -5.17,-38.58 -15.41,-50.3 -9.97,-12.27 -24.64,-18.36 -44.12,-18.36 -19.66,0 -36.36,6.37 -50.03,19.2 -13.75,12.74 -20.58,31.56 -20.58,56.21z"/>
  <path class="fil0" d="M1038.12 399.4c-27.04,1.51 -49,-13.14 -50.4,-42.26l0 -357.03c28.94,-1.36 49.73,10.03 50.4,42.57l0 188.18 74.24 -74.93c24.22,-21.86 59.07,-23.18 83.69,-15.15l-110.86 111.68 137.34 146.94c-22.31,8.92 -52.91,7.6 -78.98,-13.33l-105.43 -113.03 0 126.36z"/>
  <path class="fil0" d="M1245.53 68.78c-6.55,-6.37 -9.78,-14.12 -9.78,-23.26 0,-9.23 3.23,-16.89 9.78,-23.26 7.29,-6.28 15.51,-9.41 24.83,-9.41 9.32,0 17.54,3.04 24.55,9.14 7.11,6.18 10.61,14.03 10.61,23.54 0,9.51 -3.51,17.35 -10.61,23.54 -7.01,6.09 -15.23,9.14 -24.55,9.14 -9.33,0 -17.54,-3.14 -24.83,-9.41zm-0.37 330.62l0 -217.26c0.09,-27.11 18.93,-40.64 50.4,-41.36l0 212.19c0.04,32.43 -19.47,46.1 -50.4,46.43z"/>
  <path class="fil0" d="M1406.99 208.24c-15.97,15.88 -24,37.01 -24,63.5 0,26.4 8.49,46.98 25.38,61.75 16.98,14.77 37.01,22.15 60.27,22.15 23.26,0 43.1,-7.75 59.44,-23.26 15.5,-15.41 23.26,-35.72 23.26,-60.92 0,-25.2 -8.12,-45.96 -24.36,-62.12 -16.34,-16.15 -36.46,-24.36 -60.18,-24.55 -23.81,-0.19 -43.75,7.66 -59.81,23.44zm-24.55 -67.47l0 40.7c8.49,-14.49 20.76,-25.66 37.01,-33.41 15.87,-8.58 33.59,-12.83 53.26,-12.83 36.09,0 66.64,12.56 91.56,37.75 25.01,24.92 37.48,57.41 37.48,97.37 0,39.96 -12.37,72.36 -37.2,97.28 -24.74,24.83 -55.38,37.29 -91.84,37.29 -19.66,0 -37.66,-3.88 -54.08,-11.63 -16.34,-7.76 -28.43,-18.64 -36.18,-32.49l0 129.41c-1.05,28.3 -24.59,36.17 -50.4,34.89l0 -339.29c0.38,-39 23.29,-45.1 50.4,-45.04z"/>
  <path class="fil0" d="M1832.12 332.39c16.61,-15.51 24.92,-36.37 24.92,-62.67 0,-26.31 -8.67,-47.07 -25.94,-62.21 -17.35,-15.14 -37.75,-22.8 -61.19,-22.98 -23.54,0 -43.2,7.84 -59.07,23.54 -15.87,15.51 -23.81,35.81 -23.81,61.1 0,25.2 8.12,45.96 24.37,62.12 16.24,16.24 36.27,24.36 60.08,24.36 23.81,0 44.03,-7.75 60.64,-23.26zm25.47 67.01l0 -39.69c-8.12,13.57 -20.4,24.46 -36.83,32.76 -16.43,8.31 -34.33,12.46 -53.9,12.46 -35.81,0 -66.92,-12.55 -93.22,-37.66 -25.38,-25.01 -38.12,-57.5 -38.12,-97.28 0,-39.88 12.56,-72.27 37.57,-97.1 25.11,-24.92 56.4,-37.47 93.87,-37.66 18.74,0 36.83,3.88 54.09,11.63 16.98,8.49 29.16,19.38 36.55,32.76 0.6,-34.5 22.59,-40.81 50.4,-38.86l0 214.89c-1.65,29.29 -21.3,43.85 -50.4,43.74z"/>
  <path class="fil1 str0" d="M685.7 140.77l0 212.69c-0.69,33.39 -17.67,45.05 -50.39,45.93l0 -216.76c0.49,-28.71 25.64,-41.17 50.39,-41.86z"/>
  <path class="fil1 str0" d="M660.5 12.85c9.32,0 17.54,3.05 24.55,9.14 7.11,6.18 10.61,14.03 10.61,23.54 0,9.51 -3.51,17.35 -10.61,23.54 -7.01,6.09 -15.23,9.14 -24.55,9.14 -9.33,0 -17.54,-3.14 -24.83,-9.41 -6.56,-6.37 -9.78,-14.12 -9.78,-23.26 0,-9.23 3.23,-16.89 9.78,-23.26 7.29,-6.27 15.5,-9.41 24.83,-9.41z"/>
  <path class="fil1 str0" d="M1270.38 12.28c9.32,0 17.54,3.05 24.55,9.14 7.11,6.18 10.62,14.03 10.62,23.54 0,9.51 -3.51,17.35 -10.62,23.54 -7.01,6.09 -15.23,9.14 -24.55,9.14 -9.32,0 -17.54,-3.14 -24.83,-9.41 -6.56,-6.37 -9.78,-14.12 -9.78,-23.26 0,-9.23 3.23,-16.89 9.78,-23.26 7.29,-6.27 15.51,-9.41 24.83,-9.41z"/>
  <g id="_1872430851120">
   <polygon class="fil1" points="274.62,198.33 399.19,42.05 156.49,155.16 268.78,399.42 "/>
   <polygon class="fil1" points="123.17,123.23 399.45,0.11 -0,0.11 0.9,399.42 "/>
  </g>
 </g>
</svg>
