<?xml version="1.0" encoding="UTF-8"?>
<!DOCTYPE svg PUBLIC "-//W3C//DTD SVG 1.1//EN" "http://www.w3.org/Graphics/SVG/1.1/DTD/svg11.dtd">
<!-- Creator: CorelDRAW 2018 (64-Bit Evaluation Version) -->
<svg xmlns="http://www.w3.org/2000/svg" xml:space="preserve" width="86.5014mm" height="23.8126mm" version="1.1" style="shape-rendering:geometricPrecision; text-rendering:geometricPrecision; image-rendering:optimizeQuality; fill-rule:evenodd; clip-rule:evenodd"
viewBox="0 0 5257.93 1447.43"
 xmlns:xlink="http://www.w3.org/1999/xlink">
 <defs>
  <style type="text/css">
   <![CDATA[
    .str0 {stroke:#3F4040;stroke-width:12.16;stroke-miterlimit:22.9256}
    .str1 {stroke:#0B85EA;stroke-width:12.16;stroke-miterlimit:22.9256}
    .str2 {stroke:#5AEEBC;stroke-width:12.16;stroke-miterlimit:22.9256}
    .fil1 {fill:#3F4040}
    .fil2 {fill:#0B85EA}
    .fil4 {fill:#0B85EA}
    .fil3 {fill:#5AEEBC}
    .fil0 {fill:#3F4040;fill-rule:nonzero}
   ]]>
  </style>
 </defs>
 <g id="Layer_x0020_1">
  <metadata id="CorelCorpID_0Corel-Layer"/>
  <path class="fil0" d="M1588.68 0.3l77.83 0c13.76,91.08 -14.7,132.48 -78.09,132.78 -89.28,0.43 -133.54,60.79 -132.52,182.62l0 72.24 164.82 0c-1.57,68.43 -26.38,121.17 -103.16,123.62l-61.66 0 0 471.97c0.38,72.8 -58.65,119.5 -138.88,117.11l0 -589.08 -138.87 0c-2.35,-64.75 28.38,-122.36 94.91,-123.62l43.97 0 0 -72.24c0,-100.72 22.64,-178.3 68.17,-232.73 45.53,-54.69 113.44,-82.16 203.48,-82.67z"/>
  <path class="fil0" d="M2137.08 716.31l0 281.39c-2.1,80.46 -65.6,100.41 -138.88,102.94l0 -600.04c2.92,-87.14 60.99,-110.62 138.88,-112.66l0 107.08c20.34,-39.69 50.86,-70.2 91.82,-91.06 40.7,-20.86 84.45,-31.29 130.99,-31.29 89.54,0 156.94,27.47 202.47,82.66 47.57,54.18 71.73,132.01 72.24,233.25l0 412.06c-80.43,7.32 -134.33,-23.12 -138.88,-104.28l0 -298.62c0,-60.02 -14.25,-106.32 -42.48,-138.62 -27.47,-33.83 -67.91,-50.62 -121.59,-50.62 -54.18,0 -100.21,17.55 -137.86,52.91 -37.9,35.1 -56.72,86.98 -56.72,154.9z"/>
  <path class="fil0" d="M2860.79 1100.64c-74.52,4.16 -135.04,-36.2 -138.88,-116.46l0 -983.88c79.76,-3.74 137.03,27.64 138.88,117.33l0 518.56 204.59 -206.5c66.74,-60.24 162.79,-63.87 230.61,-41.75l-305.48 307.76 378.48 404.94c-61.49,24.58 -145.82,20.94 -217.66,-36.74l-290.54 -311.48 0 348.21z"/>
  <path class="fil0" d="M3432.38 189.54c-18.05,-17.55 -26.96,-38.91 -26.96,-64.1 0,-25.44 8.9,-46.54 26.96,-64.1 20.1,-17.29 42.74,-25.94 68.42,-25.94 25.69,0 48.32,8.39 67.65,25.18 19.59,17.04 29.26,38.66 29.26,64.86 0,26.2 -9.66,47.82 -29.26,64.86 -19.33,16.79 -41.97,25.18 -67.65,25.18 -25.69,0 -48.33,-8.65 -68.42,-25.95zm-1.02 911.1l0 -598.71c0.26,-74.72 52.18,-112.01 138.88,-113.99l0 584.76c0.1,89.38 -53.65,127.04 -138.88,127.94z"/>
  <path class="fil0" d="M3877.32 573.87c-44,43.75 -66.13,102 -66.13,174.99 0,72.75 23.4,129.47 69.95,170.17 46.8,40.7 102,61.05 166.09,61.05 64.1,0 118.78,-21.37 163.81,-64.1 42.73,-42.48 64.1,-98.43 64.1,-167.87 0,-69.44 -22.39,-126.67 -67.15,-171.18 -45.03,-44.51 -100.47,-67.15 -165.84,-67.66 -65.62,-0.51 -120.57,21.11 -164.82,64.61zm-67.66 -185.93l0 112.17c23.4,-39.93 57.23,-70.7 102,-92.08 43.75,-23.66 92.59,-35.35 146.76,-35.35 99.46,0 183.65,34.59 252.32,104.03 68.93,68.67 103.27,158.21 103.27,268.34 0,110.14 -34.09,199.42 -102.5,268.09 -68.18,68.42 -152.62,102.77 -253.09,102.77 -54.18,0 -103.78,-10.69 -149.05,-32.05 -45.02,-21.37 -78.34,-51.37 -99.71,-89.54l0 356.62c-2.9,77.98 -67.77,99.66 -138.88,96.14l0 -935c1.07,-107.48 64.18,-124.3 138.88,-124.13z"/>
  <path class="fil0" d="M5048.85 915.98c45.78,-42.73 68.67,-100.22 68.67,-172.71 0,-72.49 -23.91,-129.72 -71.48,-171.44 -47.82,-41.72 -104.03,-62.83 -168.63,-63.34 -64.86,0 -119.04,21.62 -162.79,64.86 -43.75,42.73 -65.63,98.69 -65.63,168.38 0,69.44 22.39,126.67 67.15,171.18 44.76,44.77 99.97,67.15 165.59,67.15 65.62,0 121.33,-21.37 167.11,-64.1zm70.2 184.66l0 -109.38c-22.38,37.39 -56.21,67.4 -101.49,90.3 -45.27,22.9 -94.62,34.34 -148.54,34.34 -98.69,0 -184.41,-34.59 -256.89,-103.78 -69.95,-68.93 -105.05,-158.46 -105.05,-268.09 0,-109.88 34.59,-199.16 103.52,-267.58 69.18,-68.67 155.41,-103.27 258.67,-103.78 51.64,0 101.49,10.68 149.06,32.05 46.8,23.4 80.38,53.41 100.73,90.3 1.64,-95.07 62.24,-112.46 138.88,-107.08l0 592.18c-4.55,80.72 -58.69,120.84 -138.88,120.52z"/>
  <path class="fil1 str0" d="M1889.62 387.94l0 586.12c-1.91,92.03 -48.7,124.15 -138.87,126.58l0 -597.35c1.37,-79.12 70.65,-113.46 138.87,-115.36z"/>
  <path class="fil2 str1" d="M1820.19 35.4c25.69,0 48.33,8.4 67.66,25.18 19.58,17.04 29.25,38.66 29.25,64.86 0,26.2 -9.66,47.82 -29.25,64.86 -19.33,16.79 -41.97,25.18 -67.66,25.18 -25.69,0 -48.33,-8.65 -68.42,-25.94 -18.06,-17.55 -26.96,-38.92 -26.96,-64.1 0,-25.43 8.9,-46.54 26.96,-64.09 20.09,-17.3 42.73,-25.95 68.42,-25.95z"/>
  <path class="fil3 str2" d="M3500.85 33.84c25.69,0 48.32,8.39 67.66,25.18 19.58,17.04 29.25,38.66 29.25,64.86 0,26.2 -9.66,47.82 -29.25,64.86 -19.34,16.79 -41.97,25.18 -67.66,25.18 -25.69,0 -48.33,-8.65 -68.42,-25.94 -18.06,-17.55 -26.96,-38.92 -26.96,-64.1 0,-25.43 8.9,-46.54 26.96,-64.09 20.1,-17.3 42.73,-25.95 68.42,-25.95z"/>
  <g id="_1836827260272">
   <polygon class="fil3" points="756.79,546.54 1100.09,115.87 431.25,427.59 740.69,1100.69 "/>
   <polygon class="fil4" points="339.44,339.6 1100.78,0.32 -0,0.32 2.49,1100.69 "/>
  </g>
 </g>
</svg>
