<svg xmlns="http://www.w3.org/2000/svg" xmlns:xlink="http://www.w3.org/1999/xlink" width="118" height="57" viewBox="0 0 118 57">
  <defs>
    <style>
      .cls-1 {
        clip-path: url(#clip-Kpay-45px_1);
      }

      .cls-2 {
        fill: #2c2c2c;
      }

      .cls-3 {
        fill: #FFFFFF;
      }
    </style>
    <clipPath id="clip-Kpay-45px_1">
      <rect width="118" height="57"/>
    </clipPath>
  </defs>
  <g id="Kpay-45px_1" class="cls-1">
    <g id="Group_1877" data-name="Group 1877" transform="translate(-5418 -1988.742)">
      <g id="Group_1861" data-name="Group 1861" transform="translate(5426 1994.742)">
        <g id="Group_1850" data-name="Group 1850" transform="translate(0 0)">
          <g id="Group_1844" data-name="Group 1844" transform="translate(5.177 31.952)">
            <path id="Wheel_2_4_" class="cls-2" d="M75.306,432.09a6.524,6.524,0,1,1-6.524,6.524A6.525,6.525,0,0,1,75.306,432.09Z" transform="translate(-68.781 -432.09)"/>
            <path id="Wheel_1_4_" class="cls-2" d="M309.5,432.09a6.53,6.53,0,1,1-6.523,6.524A6.525,6.525,0,0,1,309.5,432.09Z" transform="translate(-284.927 -432.09)"/>
          </g>
          <path id="Cart_4_" class="cls-2" d="M64.714,78.928H56.629c-1.308-4.085-6.119-6.744-10.955-6.68-4.614.061-9.146,2.989-10.209,6.68H27.087A1.836,1.836,0,0,0,25.2,80.713v29.9a1.834,1.834,0,0,0,1.886,1.785H64.714a1.835,1.835,0,0,0,1.888-1.785v-29.9A1.836,1.836,0,0,0,64.714,78.928Zm-9.473,0H36.872c1.1-2.763,4.892-5.548,8.8-5.582C49.7,73.31,53.806,75.528,55.241,78.928Z" transform="translate(-25.201 -72.247)"/>
          <g id="XMLID_1_" transform="translate(9.481 13.32)">
            <path id="XMLID_2_" class="cls-3" d="M166.283,178.4v-3.543l4.732,6.429h9.346l-2.428-3.893-7.222-.906,5.969-1.072-2.205-3.136-8.193-1.088,7.769-1.177c.439-.64,1.169-1.632,1.169-1.632l1.016-1.429-5.525-1.538,6.935-.426,2.715-3.79h-9.651l-4.429,6.415V161.2h-8.345s.038,6.6,0,13.825l-.038,6.261h8.383Z" transform="translate(-157.9 -161.197)"/>
          </g>
        </g>
        <g id="pay_2x_1_" data-name="pay@2x (1)" transform="translate(44.811 18.527)">
          <path id="Path_3084" data-name="Path 3084" class="cls-2" d="M64.508-601.582a10.1,10.1,0,0,0-3.816.822,2.732,2.732,0,0,0-1.582,1.616l-.092.273-.01,8.706-.007,8.7,1.627-.007,1.63-.01v-5.876l.119.051a10.4,10.4,0,0,0,1.429.454,7.855,7.855,0,0,0,5.017-.378,6.026,6.026,0,0,0,3.032-3.608,9.454,9.454,0,0,0,.437-3.427,10.958,10.958,0,0,0-.314-2.65,5.957,5.957,0,0,0-2.626-3.734A8.7,8.7,0,0,0,64.508-601.582Zm1.4,2.848a2.871,2.871,0,0,1,1.9.842,4.889,4.889,0,0,1,1.112,3.359c.147,3.114-.866,4.8-3.079,5.129a7.119,7.119,0,0,1-.737.031,5.367,5.367,0,0,1-2.507-.566l-.321-.157v-1.9c0-4.682,0-5.842.031-5.917.16-.423,1.037-.764,2.162-.839A6.775,6.775,0,0,1,65.906-598.735Z" transform="translate(-59 601.603)"/>
          <path id="Path_3085" data-name="Path 3085" class="cls-2" d="M492.571-600.647a12.2,12.2,0,0,0-4.334,1.033l-.2.113-.01,1.521c0,.839,0,1.524.014,1.524s.167-.1.348-.218a7.159,7.159,0,0,1,2.374-.972,7.057,7.057,0,0,1,3.11-.106,3.013,3.013,0,0,1,1.466.73,2.473,2.473,0,0,1,.576,1.112,12.126,12.126,0,0,1,.065,1.971c-.017-.007-.211-.1-.437-.211a8.147,8.147,0,0,0-2.51-.709,13.243,13.243,0,0,0-2.387.017c-2.155.334-3.438,1.429-3.816,3.257a6.864,6.864,0,0,0,0,2.489,3.415,3.415,0,0,0,1.119,1.985,5.286,5.286,0,0,0,2.8,1.262,10.684,10.684,0,0,0,2.37.157c2.79-.065,4.488-.522,5.412-1.456a2.641,2.641,0,0,0,.706-1.542c.051-.368.051-7.41,0-7.861a4.079,4.079,0,0,0-1.149-2.554,3.908,3.908,0,0,0-1.183-.842A8.156,8.156,0,0,0,492.571-600.647Zm1.057,8.161a7.735,7.735,0,0,1,2.056.4l.314.106v1.34c0,.842-.014,1.409-.038,1.518-.133.624-.808.866-2.537.907a5.418,5.418,0,0,1-1.115-.034,3.948,3.948,0,0,1-1.224-.4,1.763,1.763,0,0,1-.969-1,2.643,2.643,0,0,1-.072-1.292c.225-.948,1.088-1.47,2.578-1.552.235-.014.464-.021.512-.017S493.4-592.5,493.628-592.486Z" transform="translate(-472.126 600.705)"/>
          <path id="Path_3086" data-name="Path 3086" class="cls-2" d="M877.29-590.959c.078.191,4.177,10.231,4.87,11.936l.887,2.172-.136.413a4.108,4.108,0,0,1-.924,1.64,2.022,2.022,0,0,1-1.6.61,5.469,5.469,0,0,1-.624-.031,7.651,7.651,0,0,1-.825-.228c-.044-.02-.051.147-.044,1.388l.01,1.412.382.126a4.653,4.653,0,0,0,1.46.256,2.78,2.78,0,0,0,.853-.058,4.771,4.771,0,0,0,2.906-1.927,11.392,11.392,0,0,0,1.453-2.728c.532-1.347,5.821-14.988,5.821-15.005s-.781-.017-1.736-.017H888.3l-.068.194c-.2.593-3.523,10.016-3.53,10.023s-.829-2.288-1.831-5.095l-1.825-5.105-1.889-.01A10.718,10.718,0,0,0,877.29-590.959Z" transform="translate(-849.384 591.362)"/>
        </g>
      </g>
    </g>
  </g>
</svg>
