<svg xmlns="http://www.w3.org/2000/svg" xmlns:xlink="http://www.w3.org/1999/xlink" width="1821" height="690" viewBox="0 0 1821 690">
  <defs>
    <style>
      .cls-1 {
        clip-path: url(#clip-kpay_Main);
      }

      .cls-2 {
        fill: #2c2c2c;
      }

      .cls-3 {
        fill: #FFFFFF;
      }
    </style>
    <clipPath id="clip-kpay_Main">
      <rect width="1821" height="690"/>
    </clipPath>
  </defs>
  <g id="kpay_Main" class="cls-1">
    <g id="Group_1874" data-name="Group 1874" transform="translate(-5365 -1979.742)">
      <g id="Group_1861" data-name="Group 1861" transform="translate(5426 1994.742)">
        <g id="Group_1850" data-name="Group 1850" transform="translate(0 0)">
          <g id="Group_1844" data-name="Group 1844" transform="translate(75.932 468.629)">
            <path id="Wheel_2_4_" class="cls-2" d="M164.474,432.09a95.685,95.685,0,1,1-95.692,95.688A95.7,95.7,0,0,1,164.474,432.09Z" transform="translate(-68.781 -432.09)"/>
            <path id="Wheel_1_4_" class="cls-2" d="M398.648,432.09a95.777,95.777,0,1,1-95.666,95.688A95.7,95.7,0,0,1,398.648,432.09Z" transform="translate(-38.185 -432.09)"/>
          </g>
          <path id="Cart_4_" class="cls-2" d="M604.717,170.234H486.146C466.958,110.319,396.4,71.327,325.469,72.263c-67.669.893-134.148,43.844-149.735,97.971H52.863c-15.337,0-27.661,11.737-27.661,26.184V634.977c0,14.477,12.324,26.175,27.661,26.175H604.717c15.366,0,27.693-11.7,27.693-26.175V196.419C632.41,181.971,620.083,170.234,604.717,170.234Zm-138.937,0H196.368c16.18-40.519,71.745-81.376,129.1-81.875C384.562,87.845,444.743,120.369,465.78,170.234Z" transform="translate(-25.201 -72.247)"/>
          <g id="XMLID_1_" transform="translate(139.048 195.361)">
            <path id="XMLID_2_" class="cls-3" d="M280.848,413.471V361.5l69.4,94.294h137.08L451.718,398.7,345.8,385.423,433.353,369.7l-32.346-45.99-120.16-15.963,113.939-17.269c6.434-9.381,17.145-23.929,17.145-23.929l14.9-20.961L345.8,223.038l101.719-6.252L487.343,161.2H345.8l-64.953,94.081V161.2H158.453s.553,96.871,0,202.769L157.9,455.8H280.848Z" transform="translate(-157.9 -161.197)"/>
          </g>
        </g>
        <g id="pay_2x_1_" data-name="pay@2x (1)" transform="translate(657.227 271.723)">
          <path id="Path_3084" data-name="Path 3084" class="cls-2" d="M139.778-601.3c-23.558,1.3-42.665,5.452-55.969,12.054-13,6.5-19.657,13.255-23.208,23.708l-1.35,4L59.1-433.844,59-306.2l23.858-.1,23.908-.15v-86.18l1.751.75a152.64,152.64,0,0,0,20.957,6.652c29.16,5.852,53.318,4.051,73.575-5.552,20.357-9.653,36.363-28.71,44.465-52.918,5.052-15.105,6.852-29.36,6.4-50.267-.4-16.756-1.551-26.659-4.6-38.863-6.052-24.058-20.007-43.865-38.513-54.769C192.946-598.1,168.088-602.9,139.778-601.3Zm20.507,41.764c13,1.6,20.357,4.9,27.86,12.354,9.953,9.9,15.255,25.859,16.306,49.267,2.151,45.666-12.7,70.374-45.166,75.226a104.652,104.652,0,0,1-10.8.45,78.695,78.695,0,0,1-36.763-8.3l-4.7-2.3v-27.81c-.05-68.674.05-85.68.45-86.78,2.351-6.2,15.205-11.2,31.711-12.3C148.831-560.387,153.883-560.337,160.285-559.537Z" transform="translate(-59 601.603)"/>
          <path id="Path_3085" data-name="Path 3085" class="cls-2" d="M572.636-600.286c-22.608,1.3-50.517,7.953-63.572,15.155l-2.951,1.651-.15,22.308c-.05,12.3,0,22.358.2,22.358.15,0,2.451-1.451,5.1-3.2,9.453-6.3,20.307-10.754,34.812-14.255,16.156-3.951,31.311-4.451,45.616-1.551,8.5,1.751,16.306,5.652,21.507,10.7,3.651,3.651,7.152,10.354,8.453,16.306.9,4.2,1.751,29.31.95,28.91-.25-.1-3.1-1.5-6.4-3.1-10.354-5.052-23.408-8.753-36.813-10.4-7.953-1-27.86-.85-35.012.25-31.611,4.9-50.417,20.957-55.969,47.767a100.664,100.664,0,0,0-.05,36.513c2.451,12.154,7.2,20.557,16.406,29.11,10.1,9.4,22.108,14.805,41.114,18.506,10.053,1.951,20.557,2.651,34.762,2.3,40.914-.95,65.823-7.653,79.377-21.357,5.552-5.6,9.153-13.4,10.354-22.608.75-5.4.75-108.688,0-115.29-1.7-15.605-7.1-27.56-16.856-37.463-5.352-5.452-9.8-8.6-17.356-12.354C618.5-598.786,599.645-601.837,572.636-600.286ZM588.141-480.6a113.4,113.4,0,0,1,30.16,5.852l4.6,1.551v19.657c0,12.354-.2,20.657-.55,22.258-1.951,9.153-11.854,12.7-37.213,13.3-9.2.25-12.454.15-16.356-.5a57.892,57.892,0,0,1-17.956-5.9c-7.853-4.1-11.454-7.8-14.2-14.655-1.851-4.552-2.3-13.5-1.05-18.957,3.3-13.9,15.956-21.557,37.813-22.758,3.451-.2,6.8-.3,7.5-.25C581.589-480.9,584.84-480.745,588.141-480.6Z" transform="translate(-272.783 601.138)"/>
          <path id="Path_3086" data-name="Path 3086" class="cls-2" d="M877.295-590.4c1.15,2.8,61.271,150.052,71.425,175.06l13,31.861-2,6.052c-3.551,10.654-7.953,18.406-13.555,24.058-6.352,6.4-13.155,9-23.508,8.953a80.372,80.372,0,0,1-9.153-.45,112.261,112.261,0,0,1-12.1-3.351c-.65-.3-.75,2.151-.65,20.357l.15,20.707,5.6,1.851a68.224,68.224,0,0,0,21.407,3.751c6.052.25,7.753.1,12.5-.85,16.756-3.4,28.71-11.354,42.615-28.26,6.6-8.1,14.855-23.558,21.307-40.014,7.8-19.757,85.379-219.826,85.379-220.076,0-.15-11.454-.25-25.459-.25H1038.8l-1,2.851c-3,8.7-51.668,146.9-51.768,147-.05.1-12.154-33.562-26.859-74.726L932.414-590.75l-27.71-.15C882.647-591,877.095-590.9,877.295-590.4Z" transform="translate(-468.004 596.303)"/>
        </g>
      </g>
    </g>
  </g>
</svg>
