<?xml version="1.0" encoding="UTF-8"?>
<!DOCTYPE svg PUBLIC "-//W3C//DTD SVG 1.1//EN" "http://www.w3.org/Graphics/SVG/1.1/DTD/svg11.dtd">
<!-- Creator: CorelDRAW 2018 (64-Bit Evaluation Version) -->
<svg xmlns="http://www.w3.org/2000/svg" xml:space="preserve" width="7.6147mm" height="7.6201mm" version="1.1" style="shape-rendering:geometricPrecision; text-rendering:geometricPrecision; image-rendering:optimizeQuality; fill-rule:evenodd; clip-rule:evenodd"
viewBox="0 0 119.51 119.59"
 xmlns:xlink="http://www.w3.org/1999/xlink">
 <defs>
  <style type="text/css">
   <![CDATA[
    .fil0 {fill:white}
   ]]>
  </style>
 </defs>
 <g id="Layer_x0020_1">
  <metadata id="CorelCorpID_0Corel-Layer"/>
  <g id="_2685608614448">
   <path class="fil0" d="M43.49 21.12l-29.13 29.36c-4.92,3.99 -9.6,4.9 -14.36,0.52l46.08 -46.5c4.19,-4.23 13.42,-5.29 18.86,-3.92 7.53,1.9 12.42,7.7 18.46,13.8 11.83,11.94 24.79,24.2 36.1,36.5 -4.36,4.38 -9.57,3.65 -15,-1.23 -3.16,-3.02 -24.73,-25.89 -29.55,-30.15 -5.17,-5.21 -9.56,-9.74 -15.87,-9.75 -6.35,-0.01 -10.37,6.12 -15.59,11.38z"/>
   <path class="fil0" d="M102.96 119.59c0.03,0 0.05,-0.02 0.08,-0.03 2.44,-0.71 8.95,-3.09 12.98,-9.88 3.66,-6.15 2.8,-12.91 2.8,-20.8 0,-15.47 0.33,-14.54 -0.24,-29.89 -5.63,0.02 -9.45,3.69 -9.83,10.4 -0.11,4.02 0.51,15.63 0.4,21.51 0.18,7.91 0.24,11.89 -3.84,16.02 -5.77,4.6 -13.32,2.28 -19.12,-2.81 -3.77,-4.04 -19.24,-18.33 -19.24,-22.91 0,-4.03 2.84,-6.83 6.11,-10.13 2.67,-3.07 14.68,-13.62 16.58,-15.63 3.06,-3.46 1.72,-9.81 -1.02,-12.59 -7.7,7.21 -15.05,14.04 -22.53,21.59 -3.82,3.85 -7.07,8.4 -8.26,13.2 -1.59,6.43 1.35,12.38 1.55,12.69 6.44,7.3 13.01,14.23 19.88,20.23l-35.36 0 -0.03 -3.73 0.01 -0.18 -0.07 -4.33 0.04 -8.46c-0.01,-6.83 -0.52,-8.23 0.65,-10.94 0.01,-0.01 -0.01,0.01 0,0 0.52,-1.05 0.96,-2.11 1.76,-2.75 4.87,-3.91 8.08,-8.48 9.55,-14.14 0,-0.01 0.04,-0.19 0.04,-0.2 0.95,-3.66 0.08,-10.72 -2.88,-14.39 -3.42,-5.01 -8.08,-7.69 -13.74,-8.52l-0.05 -0.02 -9.1 0.03c-0.27,3.18 1.41,8.31 8.17,8.71 0.43,0.05 0.84,0.13 1.23,0.22 4.37,1.05 6.83,4.64 7.6,7.42 0.01,0.03 0.02,0.06 0.03,0.09 0.64,2.25 0.46,4.49 -0.36,6.74 -0,0.01 -0.01,0.03 -0.01,0.04 -1.72,4.72 -5.89,5.39 -8.25,8.29 -2.23,2.75 -3.65,5.92 -4.26,9.33l-0.06 1.42 0 3.85 -0.19 13.45 -0.01 0.44 0.07 7.14 -12.13 0c-0.12,0 -0.24,-0.01 -0.36,-0.02 -1.21,-0.08 -2.44,-0.36 -3.69,-0.9 -1.42,-0.52 -2.64,-1.39 -3.8,-2.36 -4.08,-4.13 -3.85,-9.15 -3.86,-15.91 -0.39,-5.91 0.12,-17.49 0.02,-21.51 -0.38,-6.71 -4.15,-10.38 -9.78,-10.4 -0.45,12.19 -0.13,24.87 -0.23,37.17 -0.04,4.63 0.59,9.03 3.34,13.42 4.93,7.61 12.37,9.72 13.45,9.99 0.05,0.01 0.08,0.02 0.1,0.02l11.31 -0.02c0.04,-0.01 0.09,-0.03 0.13,-0.03l14.3 0.03 0 0 1.71 0 45.91 0c0.01,0 0.01,0 0.02,0l12.46 0.02z"/>
  </g>
 </g>
</svg>
