<?xml version="1.0" encoding="UTF-8"?>
<!DOCTYPE svg PUBLIC "-//W3C//DTD SVG 1.1//EN" "http://www.w3.org/Graphics/SVG/1.1/DTD/svg11.dtd">
<!-- Creator: CorelDRAW 2018 (64-Bit Evaluation Version) -->
<svg xmlns="http://www.w3.org/2000/svg" xml:space="preserve" width="7.6147mm" height="7.6201mm" version="1.1" style="shape-rendering:geometricPrecision; text-rendering:geometricPrecision; image-rendering:optimizeQuality; fill-rule:evenodd; clip-rule:evenodd"
viewBox="0 0 171.27 171.39"
 xmlns:xlink="http://www.w3.org/1999/xlink">
 <defs>
  <style type="text/css">
   <![CDATA[
    .fil0 {fill:#3D4852}
   ]]>
  </style>
 </defs>
 <g id="Layer_x0020_1">
  <metadata id="CorelCorpID_0Corel-Layer"/>
  <g id="_2685691342608">
   <path class="fil0" d="M62.33 30.26l-41.75 42.07c-7.05,5.71 -13.76,7.02 -20.58,0.74l66.04 -66.65c6,-6.06 19.23,-7.59 27.03,-5.62 10.79,2.72 17.8,11.04 26.46,19.77 16.96,17.12 35.53,34.68 51.73,52.3 -6.25,6.27 -13.72,5.24 -21.49,-1.76 -4.52,-4.33 -35.45,-37.1 -42.35,-43.21 -7.41,-7.47 -13.7,-13.96 -22.75,-13.97 -9.1,-0.01 -14.87,8.77 -22.35,16.31z"/>
   <path class="fil0" d="M147.55 171.39c0.04,0 0.08,-0.02 0.12,-0.04 3.49,-1.02 12.82,-4.43 18.61,-14.16 5.24,-8.81 4.01,-18.49 4.01,-29.81 0,-22.17 0.47,-20.84 -0.34,-42.84 -8.07,0.02 -13.55,5.29 -14.09,14.9 -0.15,5.76 0.73,22.39 0.58,30.82 0.25,11.34 0.35,17.05 -5.5,22.96 -8.26,6.6 -19.09,3.26 -27.4,-4.03 -5.41,-5.79 -27.57,-26.27 -27.57,-32.84 0.01,-5.77 4.08,-9.78 8.75,-14.51 3.83,-4.41 21.04,-19.52 23.76,-22.41 4.38,-4.96 2.47,-14.05 -1.46,-18.04 -11.04,10.34 -21.57,20.12 -32.29,30.94 -5.47,5.52 -10.13,12.03 -11.83,18.91 -2.28,9.21 1.93,17.74 2.22,18.19 9.23,10.46 18.64,20.4 28.49,28.99l-50.67 0 -0.04 -5.35 0.02 -0.26 -0.1 -6.2 0.06 -12.13c-0.01,-9.8 -0.75,-11.8 0.94,-15.68 0.01,-0.02 -0.01,0.02 0,0 0.74,-1.51 1.38,-3.03 2.52,-3.94 6.97,-5.6 11.58,-12.15 13.69,-20.26 0,-0.01 0.05,-0.28 0.06,-0.29 1.36,-5.25 0.11,-15.36 -4.13,-20.62 -4.9,-7.18 -11.59,-11.02 -19.7,-12.21l-0.07 -0.03 -13.05 0.04c-0.39,4.55 2.03,11.91 11.71,12.48 0.61,0.07 1.2,0.18 1.77,0.32 6.26,1.5 9.78,6.65 10.89,10.64 0.01,0.04 0.02,0.09 0.04,0.13 0.92,3.22 0.67,6.44 -0.52,9.66 -0.01,0.02 -0.01,0.04 -0.02,0.06 -2.47,6.77 -8.44,7.72 -11.82,11.88 -3.2,3.94 -5.23,8.48 -6.1,13.38l-0.09 2.04 0 5.52 -0.28 19.28 -0.01 0.63 0.1 10.23 -17.39 0c-0.17,0 -0.35,-0.02 -0.52,-0.03 -1.74,-0.12 -3.5,-0.52 -5.29,-1.29 -2.03,-0.75 -3.78,-1.99 -5.44,-3.38 -5.85,-5.92 -5.52,-13.12 -5.53,-22.8 -0.56,-8.47 0.18,-25.06 0.03,-30.82 -0.55,-9.61 -5.94,-14.88 -14.01,-14.9 -0.65,17.46 -0.19,35.64 -0.33,53.27 -0.05,6.64 0.84,12.95 4.79,19.23 7.06,10.91 17.72,13.94 19.27,14.32 0.07,0.02 0.12,0.03 0.15,0.03l16.21 -0.03c0.06,-0.02 0.12,-0.05 0.19,-0.05l20.49 0.04 0 0 2.46 0 65.8 0c0.01,0 0.02,0 0.03,0l17.85 0.03z"/>
  </g>
 </g>
</svg>
