<?xml version="1.0" encoding="UTF-8"?>
<!DOCTYPE svg PUBLIC "-//W3C//DTD SVG 1.1//EN" "http://www.w3.org/Graphics/SVG/1.1/DTD/svg11.dtd">
<!-- Creator: CorelDRAW X6 -->
<svg xmlns="http://www.w3.org/2000/svg" xml:space="preserve" width="119.276mm" height="23.8125mm" version="1.1" style="shape-rendering:geometricPrecision; text-rendering:geometricPrecision; image-rendering:optimizeQuality; fill-rule:evenodd; clip-rule:evenodd"
viewBox="0 0 5517 1101"
 xmlns:xlink="http://www.w3.org/1999/xlink">
 <defs>
  <style type="text/css">
   <![CDATA[
    .fil1 {fill:#0D73C8}
    .fil0 {fill:#DFBC3C}
    .fil2 {fill:#3D4852;fill-rule:nonzero}
   ]]>
  </style>
 </defs>
 <g id="Layer_x0020_1">
  <metadata id="CorelCorpID_0Corel-Layer"/>
  <g id="_464960368">
   <polygon class="fil0" points="558,564 0,850 557,0 1120,847 "/>
   <polygon class="fil1" points="558,815 0,1101 557,251 1120,1099 "/>
  </g>
  <path class="fil2" d="M1741 902c46,-43 68,-99 68,-170 0,-71 -24,-127 -70,-168 -47,-41 -102,-62 -165,-62 -63,0 -116,21 -159,64 -43,43 -65,99 -65,167 0,68 22,124 65,168 44,44 97,65 161,65 64,0 119,-21 164,-64l0 0zm206 182c-86,1 -136,-18 -137,-105l0 -2c-22,37 -55,66 -100,89 -44,23 -93,34 -147,34 -97,0 -181,-34 -252,-102 -68,-68 -102,-156 -102,-264 0,-108 34,-196 101,-263 68,-68 151,-102 252,-102 54,0 103,11 147,32 44,21 77,51 100,89l0 -486c74,0 134,23 137,110l0 972 0 0z"/>
  <path class="fil2" d="M2626 902c46,-43 68,-99 68,-170 0,-71 -24,-127 -70,-168 -47,-41 -102,-62 -165,-62 -63,0 -116,21 -159,64 -43,43 -65,99 -65,167 0,68 22,124 65,168 44,44 97,65 161,65 64,0 119,-21 164,-64l0 0zm70 182l0 -108c-22,37 -55,66 -100,89 -45,23 -93,34 -147,34 -97,0 -181,-34 -252,-102 -68,-68 -102,-156 -102,-264 0,-108 34,-196 101,-263 68,-68 151,-102 252,-102 54,0 103,11 147,32 44,21 77,51 100,89l0 -376c0,-88 53,-110 137,-110l0 977c0,76 -45,105 -137,105l0 0z"/>
  <path class="fil2" d="M3076 420c47,-34 103,-51 170,-51 66,0 121,17 165,51 44,34 68,83 74,146 -86,29 -117,-10 -166,-55 -19,-17 -46,-20 -73,-20 -27,0 -50,6 -68,17 -20,9 -33,25 -38,47 -5,22 -5,40 2,53 11,23 39,40 82,53l103 25c121,30 182,98 182,205 0,63 -26,114 -79,154 -53,38 -116,57 -187,57 -72,0 -134,-21 -186,-62 -53,-41 -80,-96 -81,-164 46,0 108,-15 158,60 6,9 17,14 27,20 31,19 64,28 99,26 36,-2 63,-12 83,-28 20,-17 31,-38 33,-63 2,-24 -6,-44 -23,-59 -17,-15 -41,-25 -70,-32l-96 -22c-68,-18 -118,-45 -150,-81 -31,-37 -44,-83 -38,-139 5,-56 31,-101 78,-136l0 0z"/>
  <path class="fil2" d="M5034 708l0 377c-83,4 -134,-16 -136,-115l0 -281c0,-58 -14,-103 -42,-134 -27,-33 -66,-50 -117,-50 -51,0 -95,17 -132,52 -37,34 -56,85 -56,152l0 262c-1,86 -55,112 -136,115l0 -579c1,-84 56,-135 137,-137l-1 122c16,-33 43,-61 80,-82 39,-21 74,-33 106,-35 135,-8 224,39 267,141 49,-97 129,-146 242,-146 88,0 154,27 200,81 47,53 70,130 70,229l0 405c-81,-1 -135,-29 -136,-113l0 -282c0,-57 -14,-102 -42,-136 -30,-33 -72,-50 -123,-50 -51,0 -94,18 -128,55 -34,37 -51,87 -52,149z"/>
  <path class="fil2" d="M4135 766l0 -381c78,-3 128,30 135,120l0 591c-92,7 -129,-45 -135,-115 -20,39 -49,68 -89,89 -40,20 -82,30 -127,30 -87,0 -153,-27 -197,-80 -46,-53 -70,-128 -70,-227l0 -290c5,-82 51,-120 135,-119l0 399c0,58 14,103 41,135 27,33 66,49 118,49 53,0 97,-17 134,-51 37,-34 55,-85 55,-151l0 0z"/>
 </g>
</svg>
