<?xml version="1.0" encoding="UTF-8"?>
<!DOCTYPE svg PUBLIC "-//W3C//DTD SVG 1.1//EN" "http://www.w3.org/Graphics/SVG/1.1/DTD/svg11.dtd">
<!-- Creator: CorelDRAW X6 -->
<svg xmlns="http://www.w3.org/2000/svg" xml:space="preserve" width="59.638mm" height="11.9062mm" version="1.1" style="shape-rendering:geometricPrecision; text-rendering:geometricPrecision; image-rendering:optimizeQuality; fill-rule:evenodd; clip-rule:evenodd"
viewBox="0 0 4617 922"
 xmlns:xlink="http://www.w3.org/1999/xlink">
 <defs>
  <style type="text/css">
   <![CDATA[
    .fil1 {fill:#0D73C8}
    .fil0 {fill:#DFBC3C}
    .fil2 {fill:#0D73C8;fill-rule:nonzero}
    .fil3 {fill:#DFBC3C;fill-rule:nonzero}
   ]]>
  </style>
 </defs>
 <g id="Layer_x0020_1">
  <metadata id="CorelCorpID_0Corel-Layer"/>
  <g id="_468088072">
   <polygon class="fil0" points="467,472 0,711 466,0 937,709 "/>
   <polygon class="fil1" points="467,682 0,922 466,210 937,919 "/>
  </g>
  <path class="fil2" d="M1457 755c38,-36 57,-83 57,-142 0,-59 -20,-106 -59,-140 -39,-34 -85,-52 -138,-52 -53,0 -97,18 -133,53 -36,36 -54,82 -54,140 0,57 18,104 55,140 36,36 81,55 135,55 54,0 99,-18 138,-53l0 0zm173 153c-72,1 -114,-15 -114,-88l0 -2c-18,31 -46,55 -84,74 -37,19 -78,28 -123,28 -81,0 -152,-28 -211,-85 -57,-57 -85,-130 -85,-221 0,-90 28,-164 85,-220 57,-57 127,-85 211,-85 45,0 86,9 123,26 37,18 65,42 84,74l0 -407c62,0 112,20 114,92l0 814 0 0z"/>
  <path class="fil2" d="M2198 755c38,-36 57,-83 57,-142 0,-59 -20,-106 -59,-140 -39,-34 -85,-52 -138,-52 -53,0 -97,18 -133,53 -36,36 -54,82 -54,140 0,57 18,104 55,140 36,36 81,55 135,55 54,0 99,-18 138,-53l0 0zm58 153l0 -90c-18,31 -46,55 -84,74 -37,19 -78,28 -123,28 -81,0 -152,-28 -211,-85 -57,-57 -85,-130 -85,-221 0,-90 28,-164 85,-220 57,-57 127,-85 211,-85 45,0 86,9 123,26 37,18 65,42 84,74l0 -315c0,-74 44,-92 114,-92l0 818c0,64 -38,88 -114,88l0 0z"/>
  <path class="fil3" d="M2575 352c39,-29 86,-43 142,-43 55,0 102,14 138,43 36,28 57,69 62,122 -72,24 -98,-8 -139,-46 -16,-15 -39,-17 -61,-17 -22,0 -41,5 -57,14 -17,8 -27,21 -32,39 -4,18 -4,33 2,44 9,19 32,33 69,44l86 21c102,25 152,82 152,171 0,53 -22,96 -66,128 -45,32 -97,47 -156,47 -60,0 -112,-17 -156,-52 -44,-34 -67,-80 -67,-137 39,0 90,-13 132,50 5,8 14,12 23,17 26,16 53,23 83,22 30,-2 53,-10 69,-24 16,-14 26,-32 28,-52 2,-21 -5,-37 -19,-49 -14,-12 -34,-21 -59,-27l-80 -19c-57,-15 -99,-38 -125,-68 -26,-31 -36,-70 -32,-116 4,-47 26,-84 65,-113l0 0z"/>
  <path class="fil3" d="M4213 592l0 315c-70,3 -113,-13 -114,-97l0 -235c0,-49 -12,-86 -35,-113 -22,-28 -55,-41 -98,-41 -42,0 -79,14 -110,43 -31,29 -47,71 -47,127l0 219c-1,72 -46,94 -114,96l0 -484c1,-70 47,-113 115,-114l-1 102c14,-28 36,-51 67,-69 33,-18 62,-27 89,-29 113,-7 187,33 224,118 41,-81 108,-122 203,-122 73,0 129,23 167,68 39,45 59,109 59,192l0 339c-68,-1 -113,-25 -114,-95l0 -236c0,-48 -12,-86 -36,-114 -26,-28 -60,-42 -103,-42 -43,0 -79,15 -108,46 -29,31 -43,73 -44,125z"/>
  <path class="fil3" d="M3461 641l0 -319c66,-3 107,25 113,100l0 495c-77,6 -108,-38 -113,-96 -17,32 -41,57 -75,74 -33,17 -69,25 -107,25 -73,0 -128,-22 -165,-67 -39,-44 -58,-107 -59,-190l0 -242c4,-69 43,-100 113,-99l0 334c0,49 12,87 35,113 22,28 55,41 99,41 44,0 82,-14 112,-43 31,-29 46,-71 46,-126l0 0z"/>
 </g>
</svg>
