<?xml version="1.0" encoding="UTF-8"?>
<!DOCTYPE svg PUBLIC "-//W3C//DTD SVG 1.1//EN" "http://www.w3.org/Graphics/SVG/1.1/DTD/svg11.dtd">
<!-- Creator: CorelDRAW X6 -->
<svg xmlns="http://www.w3.org/2000/svg" xml:space="preserve" width="59.638mm" height="11.9062mm" version="1.1" style="shape-rendering:geometricPrecision; text-rendering:geometricPrecision; image-rendering:optimizeQuality; fill-rule:evenodd; clip-rule:evenodd"
viewBox="0 0 3304 660"
 xmlns:xlink="http://www.w3.org/1999/xlink">
 <defs>
  <style type="text/css">
   <![CDATA[
    .fil1 {fill:#0D73C8}
    .fil0 {fill:#DFBC3C}
    .fil2 {fill:white;fill-rule:nonzero}
   ]]>
  </style>
 </defs>
 <g id="Layer_x0020_1">
  <metadata id="CorelCorpID_0Corel-Layer"/>
  <g id="_468088096">
   <polygon class="fil0" points="334,338 0,509 334,0 671,507 "/>
   <polygon class="fil1" points="334,488 0,660 334,151 671,658 "/>
  </g>
  <path class="fil2" d="M1043 540c27,-25 41,-59 41,-102 0,-42 -14,-76 -42,-100 -28,-25 -61,-37 -99,-37 -38,0 -70,13 -95,38 -26,26 -39,59 -39,100 0,41 13,74 39,100 26,26 58,39 97,39 38,0 71,-13 98,-38l0 0zm124 109c-52,1 -82,-11 -82,-63l0 -1c-13,22 -33,40 -60,53 -27,13 -56,20 -88,20 -58,0 -109,-20 -151,-61 -41,-41 -61,-93 -61,-158 0,-65 20,-117 60,-158 40,-40 91,-61 151,-61 32,0 62,6 88,19 26,13 46,30 60,53l0 -291c44,0 80,14 82,66l0 582 0 0z"/>
  <path class="fil2" d="M1573 540c27,-25 41,-59 41,-102 0,-42 -14,-76 -42,-100 -28,-25 -61,-37 -99,-37 -38,0 -70,13 -95,38 -26,26 -39,59 -39,100 0,41 13,74 39,100 26,26 58,39 97,39 38,0 71,-13 98,-38l0 0zm42 109l0 -64c-13,22 -33,40 -60,53 -27,13 -56,20 -88,20 -58,0 -109,-20 -151,-61 -41,-41 -61,-93 -61,-158 0,-65 20,-117 61,-158 40,-40 91,-61 151,-61 32,0 62,6 88,19 26,13 46,30 60,53l0 -225c0,-53 32,-66 82,-66l0 585c0,46 -27,63 -82,63l0 0z"/>
  <path class="fil2" d="M1842 252c28,-21 62,-31 102,-31 40,0 73,10 99,31 26,20 41,49 44,87 -52,17 -70,-6 -100,-33 -11,-10 -28,-12 -44,-12 -16,0 -30,3 -41,10 -12,5 -19,15 -23,28 -3,13 -3,24 1,31 7,13 23,24 49,31l62 15c73,18 109,59 109,123 0,38 -16,68 -47,92 -32,23 -69,34 -112,34 -43,0 -80,-12 -112,-37 -32,-25 -48,-57 -48,-98 28,0 65,-9 94,36 4,5 10,8 16,12 18,11 38,17 59,15 21,-1 38,-7 49,-17 12,-10 18,-23 20,-37 1,-15 -3,-26 -14,-35 -10,-9 -24,-15 -42,-19l-57 -13c-41,-11 -71,-27 -90,-48 -18,-22 -26,-50 -23,-83 3,-33 19,-60 46,-81l0 0z"/>
  <path class="fil2" d="M3015 424l0 226c-50,2 -81,-9 -82,-69l0 -168c0,-35 -8,-62 -25,-81 -16,-20 -40,-30 -70,-30 -30,0 -57,10 -79,31 -22,21 -33,51 -33,91l0 157c-1,51 -33,67 -82,69l0 -347c0,-50 33,-81 82,-82l-1 73c10,-20 26,-37 48,-49 23,-13 45,-20 64,-21 81,-5 134,23 160,85 29,-58 77,-87 145,-87 53,0 92,16 120,49 28,32 42,78 42,137l0 242c-49,0 -81,-18 -82,-68l0 -169c0,-34 -9,-61 -25,-81 -18,-20 -43,-30 -74,-30 -31,0 -57,11 -77,33 -20,22 -31,52 -31,89z"/>
  <path class="fil2" d="M2477 459l0 -228c47,-2 77,18 81,72l0 354c-55,4 -77,-27 -81,-69 -12,23 -30,41 -53,53 -24,12 -49,18 -76,18 -52,0 -91,-16 -118,-48 -28,-32 -42,-77 -42,-136l0 -173c3,-49 31,-72 81,-71l0 239c0,35 8,62 25,81 16,20 40,29 71,29 32,0 58,-10 80,-31 22,-20 33,-51 33,-90l0 0z"/>
 </g>
</svg>
