<?xml version="1.0" encoding="UTF-8"?>
<!DOCTYPE svg PUBLIC "-//W3C//DTD SVG 1.1//EN" "http://www.w3.org/Graphics/SVG/1.1/DTD/svg11.dtd">
<!-- Creator: CorelDRAW X6 -->
<svg xmlns="http://www.w3.org/2000/svg" xml:space="preserve" width="119.276mm" height="23.8125mm" version="1.1" style="shape-rendering:geometricPrecision; text-rendering:geometricPrecision; image-rendering:optimizeQuality; fill-rule:evenodd; clip-rule:evenodd"
viewBox="0 0 6280 1254"
 xmlns:xlink="http://www.w3.org/1999/xlink">
 <defs>
  <style type="text/css">
   <![CDATA[
    .fil1 {fill:#0D73C8}
    .fil0 {fill:#DFBC3C}
    .fil2 {fill:white;fill-rule:nonzero}
   ]]>
  </style>
 </defs>
 <g id="Layer_x0020_1">
  <metadata id="CorelCorpID_0Corel-Layer"/>
  <g id="_467253320">
   <polygon class="fil0" points="635,642 0,968 634,0 1275,964 "/>
   <polygon class="fil1" points="635,928 0,1254 634,286 1275,1251 "/>
  </g>
  <path class="fil2" d="M1982 1027c52,-48 78,-113 78,-193 0,-81 -27,-144 -80,-191 -54,-47 -116,-70 -188,-71 -72,0 -132,24 -181,73 -49,49 -73,112 -73,190 0,78 25,142 74,191 50,50 111,74 184,74 73,0 135,-24 187,-73l0 0zm235 208c-98,1 -155,-21 -155,-120l0 -3c-25,42 -63,75 -114,101 -51,26 -106,38 -167,38 -111,0 -206,-39 -287,-116 -77,-77 -116,-177 -116,-300 0,-123 38,-223 115,-300 77,-77 172,-116 286,-116 62,0 118,12 168,36 50,24 88,58 114,101l0 -554c84,0 153,27 155,125l0 1106 0 0z"/>
  <path class="fil2" d="M2990 1027c52,-48 78,-113 78,-193 0,-81 -27,-144 -80,-191 -54,-47 -116,-70 -188,-71 -72,0 -132,24 -181,73 -49,49 -73,112 -73,190 0,78 25,142 74,191 50,50 111,74 184,74 73,0 135,-24 187,-73l0 0zm79 208l0 -122c-25,42 -63,75 -114,101 -51,26 -106,38 -167,38 -111,0 -206,-39 -287,-116 -77,-77 -116,-177 -116,-300 0,-123 38,-223 115,-300 77,-77 172,-116 286,-116 62,0 118,12 168,36 50,24 88,58 114,101l0 -428c-1,-100 60,-125 155,-126l0 1112c0,87 -51,120 -155,120l0 0z"/>
  <path class="fil2" d="M3502 479c53,-39 118,-58 193,-58 75,0 138,19 187,58 50,39 78,94 84,166 -98,32 -134,-11 -189,-62 -22,-20 -53,-23 -83,-23 -30,0 -56,7 -77,20 -23,10 -37,28 -43,53 -6,25 -5,45 3,60 13,26 44,46 94,60l118 29c138,34 207,112 207,233 0,72 -30,130 -90,175 -61,43 -132,64 -213,64 -81,0 -152,-23 -212,-70 -60,-47 -91,-109 -92,-186 53,-1 123,-18 179,68 7,10 19,16 31,23 35,21 72,32 113,29 40,-2 72,-13 94,-32 22,-20 35,-43 38,-71 2,-28 -6,-50 -26,-67 -19,-17 -46,-29 -80,-37l-109 -25c-77,-21 -134,-51 -171,-92 -35,-42 -50,-95 -43,-158 6,-63 36,-115 88,-154l0 0z"/>
  <path class="fil2" d="M5731 806l0 429c-95,4 -153,-18 -155,-131l0 -320c0,-66 -16,-117 -48,-153 -30,-38 -75,-56 -133,-56 -58,0 -108,20 -150,59 -42,39 -63,97 -63,173l0 298c-1,97 -63,128 -155,131l0 -659c1,-96 64,-153 156,-156l-1 138c18,-38 49,-69 91,-94 44,-24 85,-37 121,-40 153,-9 255,44 304,161 55,-111 147,-166 275,-166 100,0 176,31 228,92 53,61 80,148 80,261l0 461c-92,-1 -154,-34 -155,-129l0 -321c0,-65 -16,-116 -48,-155 -35,-38 -82,-57 -141,-57 -59,-1 -108,20 -146,63 -39,43 -59,99 -59,170z"/>
  <path class="fil2" d="M4708 872l0 -434c89,-4 146,35 154,136l0 673c-105,9 -147,-52 -154,-131 -23,44 -56,78 -102,101 -45,23 -93,35 -145,35 -99,0 -174,-30 -224,-92 -53,-60 -79,-146 -80,-258l0 -330c5,-93 59,-137 154,-135l0 455c0,66 16,118 47,153 30,37 75,56 135,56 60,0 111,-19 153,-59 42,-39 63,-96 63,-171l0 0z"/>
 </g>
</svg>
