<?xml version="1.0" encoding="UTF-8"?>
<!DOCTYPE svg PUBLIC "-//W3C//DTD SVG 1.1//EN" "http://www.w3.org/Graphics/SVG/1.1/DTD/svg11.dtd">
<!-- Creator: CorelDRAW X6 -->
<svg xmlns="http://www.w3.org/2000/svg" xml:space="preserve" width="121.428mm" height="23.8124mm" version="1.1" style="shape-rendering:geometricPrecision; text-rendering:geometricPrecision; image-rendering:optimizeQuality; fill-rule:evenodd; clip-rule:evenodd"
viewBox="0 0 5824 1142"
 xmlns:xlink="http://www.w3.org/1999/xlink">
 <defs>
  <style type="text/css">
   <![CDATA[
    .fil1 {fill:none}
    .fil5 {fill:#00C2FF}
    .fil4 {fill:#3B9CFF}
    .fil2 {fill:#13ECAB}
    .fil3 {fill:#FEB434}
    .fil0 {fill:#3D4852;fill-rule:nonzero}
   ]]>
  </style>
 </defs>
 <g id="Layer_x0020_1">
  <metadata id="CorelCorpID_0Corel-Layer"/>
  <g id="_531685256">
   <path class="fil0" d="M1903 303l-318 762c-21,57 -53,83 -146,76l118 -291 -226 -547c74,-29 120,2 146,70l140 338 138 -333c34,-81 77,-102 148,-75l0 0z"/>
   <path class="fil0" d="M2386 722c35,-35 53,-80 53,-136 0,-56 -18,-102 -53,-136 -35,-34 -79,-51 -131,-51 -52,0 -96,17 -132,51 -36,34 -54,79 -54,136 0,56 18,102 53,136 35,35 79,53 132,53 53,0 98,-17 133,-52l0 0zm-132 157c-82,0 -152,-27 -209,-81 -57,-54 -86,-125 -86,-213 0,-88 28,-159 85,-213 56,-54 126,-81 210,-81 84,0 154,27 210,81 57,55 85,126 85,212 0,87 -28,157 -86,212 -57,55 -127,82 -209,82l0 0z"/>
   <path class="fil0" d="M3067 608l0 -304c76,1 107,21 110,83l0 493c-70,-1 -109,-21 -110,-96 -16,31 -40,55 -73,71 -32,17 -66,25 -103,25 -70,0 -123,-22 -161,-66 -37,-44 -56,-105 -56,-183l0 -238c0,-61 40,-93 110,-88l0 318c0,47 11,84 33,111 22,26 54,39 98,39 44,0 80,-14 109,-41 29,-28 43,-68 43,-123l0 0z"/>
   <g>
    <circle class="fil1" cx="556" cy="585" r="556"/>
    <path class="fil2" d="M494 1142c-260,-29 -466,-235 -494,-494l494 0 0 494z"/>
    <path class="fil3" d="M1113 648c-29,260 -235,466 -494,494l0 -494 494 0z"/>
    <path class="fil4" d="M494 523l-494 0c14,-130 73,-247 161,-334l333 333 0 0 0 0z"/>
    <path class="fil5" d="M953 190c87,88 145,204 160,333l-493 0 333 -333z"/>
   </g>
   <path class="fil0" d="M5238 296c75,-5 116,24 110,98 18,-31 45,-56 80,-73 35,-19 73,-28 116,-28 78,0 145,27 199,82 54,54 81,125 81,212 0,87 -27,157 -81,211 -54,54 -120,81 -200,81 -43,0 -82,-8 -118,-25 -35,-17 -62,-41 -79,-71l0 357c-76,4 -111,-18 -110,-81l0 -765zm163 157c-35,35 -52,80 -52,138 0,57 18,102 55,134 37,32 80,48 131,48 51,0 94,-17 129,-51 34,-33 51,-78 51,-132 0,-55 -18,-100 -53,-135 -36,-35 -79,-53 -131,-53 -52,0 -95,17 -130,51z"/>
   <path class="fil0" d="M5099 585c0,25 0,39 -1,43l-456 0c5,45 25,83 60,113 33,27 71,41 112,41 57,0 102,-14 134,-42 41,-36 65,-50 130,-8 -23,47 -58,84 -105,110 -47,26 -98,39 -154,39 -80,0 -149,-27 -206,-81 -54,-54 -81,-126 -81,-213 0,-88 27,-158 81,-211 54,-53 123,-80 206,-80 83,0 150,27 201,80 53,53 79,124 79,211zm-164 -154c-31,-27 -70,-40 -116,-40 -46,0 -86,13 -119,40 -33,29 -52,66 -58,111l348 0c-5,-45 -24,-83 -55,-111z"/>
   <path class="fil0" d="M4393 585c0,25 0,39 -1,43l-456 0c5,45 25,83 60,113 33,27 71,41 112,41 57,0 100,-18 135,-43 39,-28 68,-53 129,-8 -23,47 -58,84 -105,110 -47,26 -98,39 -154,39 -80,0 -149,-27 -206,-81 -54,-54 -81,-126 -81,-213 0,-88 27,-158 81,-211 54,-53 123,-80 206,-80 83,0 150,27 201,80 53,53 79,124 79,211zm-164 -154c-31,-27 -70,-40 -116,-40 -46,0 -86,13 -119,40 -33,29 -52,66 -58,111l348 0c-5,-45 -24,-83 -55,-111z"/>
   <path class="fil0" d="M3425 879c-71,0 -108,-25 -110,-89l0 -790c74,2 110,28 110,100l0 402 154 -155c55,-50 118,-61 189,-40l-241 243 309 331c-68,2 -136,12 -203,-62l-209 -224 0 286z"/>
  </g>
 </g>
</svg>
