<?xml version="1.0" encoding="UTF-8"?>
<!DOCTYPE svg PUBLIC "-//W3C//DTD SVG 1.1//EN" "http://www.w3.org/Graphics/SVG/1.1/DTD/svg11.dtd">
<!-- Creator: CorelDRAW X6 -->
<svg xmlns="http://www.w3.org/2000/svg" xml:space="preserve" width="60.7144mm" height="11.9062mm" version="1.1" style="shape-rendering:geometricPrecision; text-rendering:geometricPrecision; image-rendering:optimizeQuality; fill-rule:evenodd; clip-rule:evenodd"
viewBox="0 0 1937 380"
 xmlns:xlink="http://www.w3.org/1999/xlink">
 <defs>
  <style type="text/css">
   <![CDATA[
    .fil1 {fill:none}
    .fil5 {fill:#00C2FF}
    .fil4 {fill:#3B9CFF}
    .fil2 {fill:#FBD13E}
    .fil3 {fill:#FEB434}
    .fil0 {fill:#3D4852;fill-rule:nonzero}
   ]]>
  </style>
 </defs>
 <g id="Layer_x0020_1">
  <metadata id="CorelCorpID_0Corel-Layer"/>
  <g id="_530585760">
   <path class="fil0" d="M633 101l-106 253c-7,19 -18,27 -49,25l39 -97 -75 -182c24,-10 40,1 49,23l46 112 46 -111c11,-27 26,-34 49,-25l0 0z"/>
   <path class="fil0" d="M793 240c12,-12 18,-27 18,-45 0,-19 -6,-34 -18,-45 -12,-11 -26,-17 -44,-17 -17,0 -32,6 -44,17 -12,11 -18,26 -18,45 0,19 6,34 18,45 12,12 26,18 44,18 18,0 32,-6 44,-17l0 0zm-44 52c-27,0 -50,-9 -70,-27 -19,-18 -29,-42 -29,-71 0,-29 9,-53 28,-71 19,-18 42,-27 70,-27 28,0 51,9 70,27 19,18 28,42 28,71 0,29 -9,52 -29,70 -19,18 -42,27 -70,27l0 0z"/>
   <path class="fil0" d="M1020 202l0 -101c25,0 36,7 36,27l0 164c-23,0 -36,-7 -36,-32 -5,10 -13,18 -24,24 -11,6 -22,8 -34,8 -23,0 -41,-7 -54,-22 -12,-15 -19,-35 -19,-61l0 -79c0,-20 13,-31 36,-29l0 106c0,16 4,28 11,37 7,9 18,13 33,13 15,0 27,-5 36,-14 10,-9 14,-23 14,-41l0 0z"/>
   <g>
    <circle class="fil1" cx="185" cy="194" r="185"/>
    <path class="fil2" d="M164 380c-86,-10 -155,-78 -164,-164l164 0 0 164z"/>
    <path class="fil3" d="M370 215c-10,86 -78,155 -164,164l0 -164 164 0z"/>
    <path class="fil4" d="M164 174l-164 0c5,-43 24,-82 53,-111l111 111 0 0 0 0z"/>
    <path class="fil5" d="M317 63c29,29 48,68 53,111l-164 0 111 -111z"/>
   </g>
   <path class="fil0" d="M1742 98c25,-2 38,8 36,33 6,-10 15,-19 27,-24 11,-6 24,-9 38,-9 26,0 48,9 66,27 18,18 27,41 27,70 0,29 -9,52 -27,70 -18,18 -40,27 -66,27 -14,0 -27,-3 -39,-8 -12,-6 -21,-13 -26,-23l0 119c-25,1 -37,-6 -36,-27l0 -254zm54 52c-12,11 -17,27 -17,46 0,19 6,34 18,45 12,11 27,16 44,16 17,0 31,-6 43,-17 11,-11 17,-26 17,-44 0,-18 -6,-33 -18,-45 -12,-12 -26,-18 -43,-18 -17,0 -32,6 -43,17z"/>
   <path class="fil0" d="M1695 195c0,8 0,13 0,14l-152 0c2,15 8,28 20,37 11,9 23,14 37,14 19,0 34,-5 45,-14 14,-12 22,-17 43,-3 -8,16 -19,28 -35,36 -15,9 -33,13 -51,13 -27,0 -50,-9 -69,-27 -18,-18 -27,-42 -27,-71 0,-29 9,-53 27,-70 18,-18 41,-26 68,-27 28,0 50,9 67,27 18,18 26,41 26,70zm-55 -51c-10,-9 -23,-13 -39,-13 -15,0 -29,4 -40,13 -11,10 -17,22 -19,37l116 0c-2,-15 -8,-27 -18,-37z"/>
   <path class="fil0" d="M1461 195c0,8 0,13 0,14l-152 0c2,15 8,28 20,37 11,9 23,14 37,14 19,0 33,-6 45,-14 13,-9 23,-17 43,-3 -8,16 -19,28 -35,36 -15,9 -33,13 -51,13 -27,0 -50,-9 -69,-27 -18,-18 -27,-42 -27,-71 0,-29 9,-53 27,-70 18,-18 41,-26 68,-27 28,0 50,9 67,27 18,18 26,41 26,70zm-55 -51c-10,-9 -23,-13 -39,-13 -15,0 -29,4 -40,13 -11,10 -17,22 -19,37l116 0c-2,-15 -8,-27 -18,-37z"/>
   <path class="fil0" d="M1139 292c-24,0 -36,-8 -36,-30l0 -263c25,1 37,9 36,33l0 134 51 -52c18,-17 39,-20 63,-13l-80 81 103 110c-23,1 -45,4 -67,-21l-69 -74 0 95z"/>
  </g>
 </g>
</svg>
