<?xml version="1.0" encoding="UTF-8"?>
<!DOCTYPE svg PUBLIC "-//W3C//DTD SVG 1.1//EN" "http://www.w3.org/Graphics/SVG/1.1/DTD/svg11.dtd">
<!-- Creator: CorelDRAW X6 -->
<svg xmlns="http://www.w3.org/2000/svg" xml:space="preserve" width="60.7144mm" height="11.9062mm" version="1.1" style="shape-rendering:geometricPrecision; text-rendering:geometricPrecision; image-rendering:optimizeQuality; fill-rule:evenodd; clip-rule:evenodd"
viewBox="0 0 1914 375"
 xmlns:xlink="http://www.w3.org/1999/xlink">
 <defs>
  <style type="text/css">
   <![CDATA[
    .fil1 {fill:none}
    .fil2 {fill:#3D4852}
    .fil0 {fill:#3D4852;fill-rule:nonzero}
   ]]>
  </style>
 </defs>
 <g id="Layer_x0020_1">
  <metadata id="CorelCorpID_0Corel-Layer"/>
  <g id="_525566544">
   <path class="fil0" d="M625 100l-105 250c-7,19 -17,27 -48,25l39 -96 -74 -180c24,-9 39,1 48,23l46 111 45 -110c11,-27 25,-34 49,-24l0 0z"/>
   <path class="fil0" d="M784 237c12,-11 17,-26 17,-45 0,-19 -6,-33 -17,-45 -12,-11 -26,-17 -43,-17 -17,0 -32,5 -43,17 -12,11 -18,26 -18,45 0,18 6,33 17,45 12,12 26,17 43,17 18,0 32,-6 44,-17l0 0zm-43 52c-27,0 -50,-9 -69,-27 -19,-18 -28,-41 -28,-70 0,-29 9,-52 28,-70 19,-18 42,-27 69,-27 27,0 50,9 69,27 19,18 28,41 28,70 0,28 -9,52 -28,70 -19,18 -42,27 -69,27l0 0z"/>
   <path class="fil0" d="M1008 200l0 -100c25,0 35,7 36,27l0 162c-23,0 -36,-7 -36,-32 -5,10 -13,18 -24,23 -11,5 -22,8 -34,8 -23,0 -41,-7 -53,-22 -12,-15 -19,-35 -18,-60l0 -78c0,-20 13,-30 36,-29l0 105c0,15 4,27 11,36 7,9 18,13 32,13 14,0 26,-4 36,-14 10,-9 14,-22 14,-40l0 0z"/>
   <circle class="fil1" cx="183" cy="192" r="183"/>
   <path class="fil2" d="M162 375c-85,-9 -153,-77 -162,-162l162 0 0 162z"/>
   <path class="fil2" d="M366 213c-9,85 -77,153 -162,162l0 -162 162 0z"/>
   <path class="fil2" d="M162 172l-162 0c5,-43 24,-81 53,-110l110 110 0 0 0 0z"/>
   <path class="fil2" d="M313 62c29,29 48,67 53,109l-162 0 109 -109z"/>
   <path class="fil0" d="M1721 97c25,-2 38,8 36,32 6,-10 15,-18 26,-24 11,-6 24,-9 38,-9 26,0 48,9 65,27 18,18 27,41 27,70 0,29 -9,52 -27,69 -18,18 -40,27 -66,27 -14,0 -27,-3 -39,-8 -12,-6 -20,-13 -26,-23l0 117c-25,1 -36,-6 -36,-26l0 -251zm54 51c-11,11 -17,26 -17,45 0,19 6,34 18,44 12,11 26,16 43,16 17,0 31,-6 42,-17 11,-11 17,-26 17,-44 0,-18 -6,-33 -17,-44 -12,-12 -26,-17 -43,-18 -17,0 -31,5 -43,17z"/>
   <path class="fil0" d="M1675 192c0,8 0,13 0,14l-150 0c2,15 8,27 20,37 11,9 23,14 37,14 19,0 33,-5 44,-14 14,-12 21,-16 43,-3 -8,16 -19,28 -34,36 -15,9 -32,13 -51,13 -26,0 -49,-9 -68,-27 -18,-18 -27,-41 -27,-70 0,-29 9,-52 27,-69 18,-17 40,-26 68,-26 27,0 49,9 66,26 17,18 26,41 26,69zm-54 -50c-10,-9 -23,-13 -38,-13 -15,0 -28,4 -39,13 -11,9 -17,22 -19,37l114 0c-2,-15 -8,-27 -18,-37z"/>
   <path class="fil0" d="M1443 192c0,8 0,13 0,14l-150 0c2,15 8,27 20,37 11,9 23,14 37,14 19,0 33,-6 44,-14 13,-9 23,-17 43,-3 -8,16 -19,28 -34,36 -15,9 -32,13 -51,13 -26,0 -49,-9 -68,-27 -18,-18 -27,-41 -27,-70 0,-29 9,-52 27,-69 18,-17 40,-26 68,-26 27,0 49,9 66,26 17,18 26,41 26,69zm-54 -50c-10,-9 -23,-13 -38,-13 -15,0 -28,4 -39,13 -11,9 -17,22 -19,37l114 0c-2,-15 -8,-27 -18,-37z"/>
   <path class="fil0" d="M1125 289c-23,0 -35,-8 -36,-29l0 -260c24,1 36,9 36,33l0 132 51 -51c18,-17 39,-20 62,-13l-79 80 102 109c-22,1 -45,4 -67,-20l-69 -74 0 94z"/>
  </g>
 </g>
</svg>
