<?xml version="1.0" encoding="UTF-8"?>
<!DOCTYPE svg PUBLIC "-//W3C//DTD SVG 1.1//EN" "http://www.w3.org/Graphics/SVG/1.1/DTD/svg11.dtd">
<!-- Creator: CorelDRAW 2018 (64-Bit Evaluation Version) -->
<svg xmlns="http://www.w3.org/2000/svg" xml:space="preserve" width="23.8124mm" height="23.8126mm" version="1.1" style="shape-rendering:geometricPrecision; text-rendering:geometricPrecision; image-rendering:optimizeQuality; fill-rule:evenodd; clip-rule:evenodd"
viewBox="0 0 184.76 184.77"
 xmlns:xlink="http://www.w3.org/1999/xlink">
 <defs>
  <style type="text/css">
   <![CDATA[
    .fil3 {fill:#00C2FF}
    .fil1 {fill:#3A9CFF}
    .fil0 {fill:#EE1C25}
    .fil5 {fill:#F6858A}
    .fil4 {fill:#F78D92}
    .fil6 {fill:#F89DA1}
    .fil2 {fill:#FBD13D}
    .fil7 {fill:#FEE9A3}
   ]]>
  </style>
 </defs>
 <g id="Layer_x0020_1">
  <metadata id="CorelCorpID_0Corel-Layer"/>
  <g id="_2131366268080">
   <path class="fil0" d="M84.39 7.32c-0.26,0.59 -3.06,2.85 -3.7,3.42 -0.53,0.47 -1.21,1.06 -1.85,1.66 -0.45,0.42 -1.35,1.37 -2,1.62 -2.56,2.2 -4.99,4.41 -7.39,6.54 -4.36,3.89 -9.75,8.46 -13.88,12.29 -0.35,0.32 -0.57,0.52 -0.93,0.83l-7.31 6.46c-0.25,0.53 -0.47,0.65 -0.96,1.06 -0.38,0.32 -0.58,0.49 -0.93,0.82 -0.57,0.53 -1.34,1.43 -2.14,1.67 -0.25,0.43 -7.87,7.04 -8.95,8.01 -0.88,0.8 -2.08,1.87 -3.02,2.68l-6.05 5.35c-1.89,1.73 -4,3.54 -5.89,5.23 -0.14,0.54 -0.34,0.47 -1.13,1.19 -0.43,0.39 -0.78,0.68 -1.16,1.02 -0.56,0.51 -1.57,1.62 -2.48,2.08 -1.37,1.05 -2.66,2.51 -4,3.46 -0.21,0.49 -0.21,0.42 -0.65,0.78 -0.42,0.35 -0.26,0.38 -0.89,0.58 -0.84,0.93 -2.5,2.28 -3.69,3.33 -2.82,2.49 -6.6,4.72 -5.03,8.59 0.86,2.12 2.99,1.71 5.71,1.71l83.81 0c2.69,0 5.32,0.37 6.53,-0.81 1.45,-1.41 1.43,-3.27 1.43,-5.46l0 -73.56c0,-1.61 0.26,-5.18 -0.29,-6.46 -0.68,-1.58 -3.52,-1.68 -5.57,-0.61 -0.72,0.37 -6.76,5.54 -7.59,6.52z"/>
   <path class="fil1" d="M7.57 111.28c0.2,0.45 2.32,2.15 2.7,2.49l5.63 4.9c3.56,3.1 7.67,6.86 11.17,9.75 2.63,2.17 5.72,5.18 8.35,7.29 1.05,0.83 1.83,1.7 2.8,2.47 2.32,1.83 6.16,5.35 8.26,7.23l4.19 3.69c2.24,1.73 4.73,4.15 6.99,6.05 1.82,1.52 3.8,3.36 5.54,4.84 2.26,1.92 7.87,7.04 9.82,8.48l6.94 6.07c2.67,2.24 9.2,8.23 11.11,9.65 1.3,0.97 3.09,0.5 4.3,-0.14 0.87,-0.45 2.43,-1.66 2.26,-2.72 0.61,-0.71 0.47,-1.3 0.47,-2.24l0 -73.97c0,-1.01 -0.02,-1.49 -0.2,-2.41 -0.16,-0.83 -0.59,-1.41 -0.63,-1.84 -0.33,-0.21 -0.16,-0.1 -0.43,-0.37 -1.4,-1.36 -1.45,-1.03 -4.63,-1.03l-88.48 -0c-2.23,0.01 -3.34,0.68 -3.39,2.91 -0.05,2.36 0.24,1.74 0.43,2.81 0.31,0.17 0.38,0.45 0.69,0.81 0.74,0.85 4.05,3.45 5.11,4.55 0.26,0.27 0.09,0.21 0.41,0.45 0.35,0.26 -0.11,0.09 0.57,0.25z"/>
   <path class="fil2" d="M121.71 3.22c-0.51,-0.14 -0.74,-0.21 -1.09,-0.66 -2.16,-1.32 -4.64,-3.61 -7.26,-2.01 -1.41,0.86 -1.31,1.73 -1.31,3.63l-0 79.99c-0,1.87 0.24,2.52 1.8,3.2 2.16,0.96 3.63,-0.28 5.5,-1.45 0.52,-0.32 0.97,-0.66 1.53,-0.98l6.81 -4.16c1.89,-1.32 2.61,-1.59 3.46,-2.16 0.17,-0.12 0.05,-0.03 0.26,-0.18l8.1 -5.18c0.48,-0.24 1.12,-0.68 1.54,-0.98l7.71 -4.85c2.88,-1.98 7.79,-4.76 10.98,-6.91l7.81 -4.9c1.9,-1.21 9.45,-5.82 10.95,-6.94 1.95,-1.45 7.51,-3.16 5.34,-6.21 -0.48,-0.68 -5.58,-3.7 -6.95,-4.57l-4.06 -2.45c-0.02,-0.02 -0.06,-0.04 -0.08,-0.06 -4.35,-3.03 -9.14,-5.79 -13.72,-8.73 -2.07,-1.33 -4.02,-2.44 -6.29,-3.92 -1.88,-1.22 -4.12,-2.67 -6.14,-3.89l-5.15 -3.28c-0.1,-0.07 -0.33,-0.24 -0.33,-0.25l-5.55 -3.35c-3.25,-2.35 -9.99,-6.22 -13.86,-8.76z"/>
   <path class="fil3" d="M112.01 101.37c0.24,1.02 0.04,76.43 0.05,80.24 0,1.25 0.23,1.85 1.1,2.45 2.72,1.9 5.43,-0.55 7.64,-1.89 5.63,-3.39 12.58,-7.43 17.94,-10.92 1.14,-0.74 3.12,-1.69 4,-2.36l18.54 -11.34c1.55,-0.9 2.87,-1.63 4.44,-2.68 1.78,-1.19 5.76,-3.33 7.4,-4.44 2.26,-1.54 6.34,-3.68 8.41,-5.2 0.82,-0.6 3.86,-1.56 3.12,-3.71 -0.3,-0.87 -1,-1.28 -1.72,-1.75l-11.23 -6.82c-0.31,-0.18 -1.92,-1.07 -2.08,-1.37l-42.63 -25.83c-2.43,-1.4 -4.73,-2.88 -7.14,-4.28 -1.06,-0.61 -2.51,-1.83 -3.88,-1.92 -2.36,-0.16 -2.86,0.41 -3.79,1.63l-0.16 0.18z"/>
   <path class="fil4" d="M76.84 14.02c0.65,-0.25 1.55,-1.2 2,-1.62 0.63,-0.6 1.32,-1.19 1.85,-1.66 0.63,-0.57 3.43,-2.83 3.7,-3.42 -0.41,0.16 -0.26,0.07 -0.66,0.36 -0.27,0.19 -0.24,0.16 -0.46,0.39 -1.01,1.08 -6.19,5.33 -6.42,5.95z"/>
   <path class="fil5" d="M14.62 69.26c0.91,-0.46 1.92,-1.57 2.48,-2.08 0.38,-0.34 0.73,-0.63 1.16,-1.02 0.79,-0.72 0.98,-0.65 1.13,-1.19 -0.71,0.33 -1.93,1.5 -2.48,2.04 -0.66,0.65 -1.98,1.44 -2.29,2.25z"/>
   <path class="fil6" d="M43.31 43.69c0.8,-0.24 1.56,-1.14 2.14,-1.67 0.36,-0.33 0.55,-0.5 0.93,-0.82 0.48,-0.41 0.7,-0.53 0.96,-1.06 -0.77,0.25 -0.42,0.22 -1.15,0.89 -0.35,0.31 -0.61,0.51 -0.96,0.81 -0.4,0.34 -0.7,0.67 -0.98,0.91 -0.54,0.47 -0.65,0.42 -0.94,0.94z"/>
   <path class="fil5" d="M9.09 74.08c0.63,-0.2 0.47,-0.23 0.89,-0.58 0.43,-0.36 0.44,-0.29 0.65,-0.78 -0.43,0.2 -0.09,0 -0.38,0.19l-1.16 1.17z"/>
   <path class="fil7" d="M121.71 3.22c-0.33,-0.45 -0.58,-0.52 -1.09,-0.66 0.34,0.45 0.58,0.52 1.09,0.66z"/>
  </g>
 </g>
</svg>
