<?xml version="1.0" encoding="UTF-8"?>
<!DOCTYPE svg PUBLIC "-//W3C//DTD SVG 1.1//EN" "http://www.w3.org/Graphics/SVG/1.1/DTD/svg11.dtd">
<!-- Creator: CorelDRAW 2018 (64-Bit Evaluation Version) -->
<svg xmlns="http://www.w3.org/2000/svg" xml:space="preserve" width="23.8125mm" height="23.8126mm" version="1.1" style="shape-rendering:geometricPrecision; text-rendering:geometricPrecision; image-rendering:optimizeQuality; fill-rule:evenodd; clip-rule:evenodd"
viewBox="0 0 230 230"
 xmlns:xlink="http://www.w3.org/1999/xlink">
 <defs>
  <style type="text/css">
   <![CDATA[
    .fil0 {fill:none}
    .fil1 {fill:#3D4852}
   ]]>
  </style>
 </defs>
 <g id="Layer_x0020_1">
  <metadata id="CorelCorpID_0Corel-Layer"/>
  <g id="_2286920434560">
   <rect class="fil0" x="-0" y="0" width="230" height="230"/>
   <g>
    <path class="fil1" d="M134.04 2.48c-55.88,-11.84 -104.56,19.57 -110.76,74.41 52.02,8.55 99.69,-22.69 110.76,-74.41z"/>
    <path class="fil1" d="M112.24 145.33c-8.05,-46.56 -50.34,-66.91 -89.35,-59.84 10.57,42.01 45.96,67.53 89.35,59.84z"/>
    <path class="fil1" d="M96.35 227.52c55.88,11.84 104.56,-19.57 110.76,-74.41 -52.02,-8.55 -99.69,22.69 -110.76,74.41z"/>
    <path class="fil1" d="M117.75 85c8.05,46.56 50.34,66.91 89.35,59.84 -10.57,-42.01 -45.96,-67.53 -89.35,-59.84z"/>
   </g>
  </g>
 </g>
</svg>
