<?xml version="1.0" encoding="UTF-8"?>
<!DOCTYPE svg PUBLIC "-//W3C//DTD SVG 1.1//EN" "http://www.w3.org/Graphics/SVG/1.1/DTD/svg11.dtd">
<!-- Creator: CorelDRAW 2018 (64-Bit Evaluation Version) -->
<svg xmlns="http://www.w3.org/2000/svg" xml:space="preserve" width="11.9063mm" height="11.9062mm" version="1.1" style="shape-rendering:geometricPrecision; text-rendering:geometricPrecision; image-rendering:optimizeQuality; fill-rule:evenodd; clip-rule:evenodd"
viewBox="0 0 131.52 131.52"
 xmlns:xlink="http://www.w3.org/1999/xlink">
 <defs>
  <style type="text/css">
   <![CDATA[
    .fil0 {fill:none}
    .fil1 {fill:white}
   ]]>
  </style>
 </defs>
 <g id="Layer_x0020_1">
  <metadata id="CorelCorpID_0Corel-Layer"/>
  <g id="_2286926839136">
   <rect class="fil0" x="0" y="-0" width="131.52" height="131.52"/>
   <g>
    <path class="fil1" d="M76.65 1.42c-31.95,-6.77 -59.79,11.19 -63.34,42.55 29.74,4.89 57,-12.97 63.34,-42.55z"/>
    <path class="fil1" d="M64.18 83.1c-4.6,-26.62 -28.79,-38.26 -51.09,-34.22 6.04,24.02 26.28,38.62 51.09,34.22z"/>
    <path class="fil1" d="M55.1 130.1c31.95,6.77 59.79,-11.19 63.33,-42.55 -29.74,-4.89 -57,12.97 -63.33,42.55z"/>
    <path class="fil1" d="M67.33 48.6c4.6,26.62 28.79,38.26 51.09,34.22 -6.04,-24.02 -26.28,-38.62 -51.09,-34.22z"/>
   </g>
  </g>
 </g>
</svg>
