<?xml version="1.0" encoding="UTF-8"?>
<!DOCTYPE svg PUBLIC "-//W3C//DTD SVG 1.1//EN" "http://www.w3.org/Graphics/SVG/1.1/DTD/svg11.dtd">
<!-- Creator: CorelDRAW 2018 (64-Bit Evaluation Version) -->
<svg xmlns="http://www.w3.org/2000/svg" xml:space="preserve" width="11.9063mm" height="11.9062mm" version="1.1" style="shape-rendering:geometricPrecision; text-rendering:geometricPrecision; image-rendering:optimizeQuality; fill-rule:evenodd; clip-rule:evenodd"
viewBox="0 0 88.48 88.48"
 xmlns:xlink="http://www.w3.org/1999/xlink">
 <defs>
  <style type="text/css">
   <![CDATA[
    .fil0 {fill:none}
    .fil1 {fill:#3D4852}
   ]]>
  </style>
 </defs>
 <g id="Layer_x0020_1">
  <metadata id="CorelCorpID_0Corel-Layer"/>
  <g id="_2286779513200">
   <rect class="fil0" x="0" y="-0" width="88.48" height="88.48"/>
   <g>
    <path class="fil1" d="M51.57 0.96c-21.5,-4.55 -40.22,7.53 -42.61,28.62 20.01,3.29 38.35,-8.73 42.61,-28.62z"/>
    <path class="fil1" d="M43.18 55.91c-3.1,-17.91 -19.37,-25.74 -34.37,-23.02 4.06,16.16 17.68,25.98 34.37,23.02z"/>
    <path class="fil1" d="M37.07 87.52c21.5,4.55 40.22,-7.53 42.61,-28.62 -20.01,-3.29 -38.35,8.73 -42.61,28.62z"/>
    <path class="fil1" d="M45.3 32.7c3.1,17.91 19.37,25.74 34.37,23.02 -4.06,-16.16 -17.68,-25.98 -34.37,-23.02z"/>
   </g>
  </g>
 </g>
</svg>
