<?xml version="1.0" encoding="UTF-8"?>
<!DOCTYPE svg PUBLIC "-//W3C//DTD SVG 1.1//EN" "http://www.w3.org/Graphics/SVG/1.1/DTD/svg11.dtd">
<!-- Creator: CorelDRAW 2018 (64-Bit Evaluation Version) -->
<svg xmlns="http://www.w3.org/2000/svg" xml:space="preserve" width="144.763mm" height="23.8126mm" version="1.1" style="shape-rendering:geometricPrecision; text-rendering:geometricPrecision; image-rendering:optimizeQuality; fill-rule:evenodd; clip-rule:evenodd"
viewBox="0 0 8280.39 1362.07"
 xmlns:xlink="http://www.w3.org/1999/xlink">
 <defs>
  <style type="text/css">
   <![CDATA[
    .fil1 {fill:#3D4852}
    .fil0 {fill:#3D4852;fill-rule:nonzero}
   ]]>
  </style>
 </defs>
 <g id="Layer_x0020_1">
  <metadata id="CorelCorpID_0Corel-Layer"/>
  <g id="_2128276113776">
   <g>
    <path class="fil0" d="M1782.94 696.95c-58.07,51.54 -87.26,121.72 -87.26,210.21 0,88.5 27.95,158.68 83.53,210.84 55.89,52.17 123.89,78.25 203.7,78.25 80.11,0 147.18,-27.32 200.9,-81.98 54.65,-54.34 81.98,-123.89 81.98,-208.04 0,-84.46 -27.02,-153.09 -81.05,-206.5 -53.72,-53.41 -119.55,-79.8 -197.18,-79.18 -77.63,0 -145.94,25.46 -204.63,76.39zm-258.66 646.49l0 -1214.58c-0.83,-96.12 64.97,-131.4 169.54,-128.72l0 603.96c59.31,-99.68 161.16,-149.36 305.55,-149.36 125.76,0 230.4,41.92 313.93,125.76 83.84,82.91 125.76,191.9 125.76,326.66 0,134.46 -43.47,244.07 -130.1,328.22 -86.95,84.46 -190.66,126.69 -311.45,126.69 -64.28,0 -124.21,-13.97 -180.1,-41.92 -55.58,-27.95 -96.88,-64.58 -123.59,-110.24 -0.17,110.77 -62.74,136 -169.54,133.53z"/>
    <path class="fil0" d="M2708.55 1343.44c-94.81,2.95 -167.22,-21.88 -169.54,-104.97l0 -765.1c111.8,-1.28 169,25.57 169.54,116.93l0 79.31c42.55,-143.15 122.97,-214.88 241.89,-214.88 68.63,0 118.93,11.18 151.22,33.23 -24.18,89.05 -71.65,138.31 -153.48,128.87 -0.38,-0.05 -0.77,-0.01 -1.16,-0.01 -76.69,0 -135.39,36.64 -176.68,109.93 -30.65,54.63 -56.87,123.43 -57.7,207.62l-4.09 409.06z"/>
    <path class="fil0" d="M3176.5 1343.44l0 -735.12c0.56,-99.33 64.18,-135.01 169.54,-134.95l0 753.84c-0.42,92.18 -61.16,118.19 -169.54,116.23z"/>
    <path class="fil0" d="M3177.75 231.17c-22.05,-21.43 -32.91,-47.51 -32.91,-78.25 0,-31.05 10.86,-56.83 32.91,-78.25 24.53,-21.11 52.17,-31.67 83.53,-31.67 31.36,0 59,10.25 82.6,30.74 23.91,20.81 35.72,47.2 35.72,79.19 0,31.98 -11.81,58.37 -35.72,79.18 -23.59,20.49 -51.23,30.74 -82.6,30.74 -31.36,0 -59,-10.55 -83.53,-31.67z"/>
    <path class="fil0" d="M4311.04 1343.44l0 -1222.52c-0.47,-84.06 80.07,-120.5 169.54,-120.78l0 776.3 239.12 -241.35c73.96,-78.54 165.95,-103.6 292.17,-61.72l-372.93 375.73 462.05 494.34c-113.28,18.57 -212.58,9.94 -280.2,-60.39l-340.21 -364.71 0 301.63c-3.59,77.97 -69.26,120.86 -169.54,123.47z"/>
    <path class="fil0" d="M5551.4 454.74c134.14,0 244.07,46.89 330.08,140.35 -75.58,49.31 -159.98,79.88 -282.5,29.3 -0.49,-0.2 -1.07,-0.17 -1.61,-0.24 -15.96,-2.4 -32.54,-3.6 -49.7,-3.6 -81.66,0 -151.22,26.39 -208.36,79.49 -57.45,52.17 -86.33,121.41 -86.33,208.05 0,86.33 29.19,156.5 87.26,210.53 58.38,54.35 127.93,81.36 209.29,81.36 38.15,0 73.22,-6.19 105.14,-18.56 1.04,-0.4 2.17,-0.65 3.11,-1.23 85.78,-52.88 158.98,-26.29 225.55,42.15 -86.63,93.16 -196.25,139.73 -328.22,139.73 -132.28,0 -244.07,-41.92 -335.36,-125.76 -90.98,-85.08 -136.32,-194.38 -136.32,-328.22 0,-133.83 44.71,-242.82 133.83,-326.66 89.43,-83.84 200.6,-126.07 334.12,-126.69z"/>
    <path class="fil0" d="M3915.69 454.74c134.14,0 244.07,46.89 330.08,140.35 -57.02,75.46 -130.21,98.01 -226.87,43.73 -1.52,-0.85 -3.3,-1.21 -4.95,-1.8 -31.23,-10.98 -65.24,-16.47 -101.99,-16.47 -81.66,0 -151.22,26.39 -208.36,79.49 -57.45,52.17 -86.33,121.41 -86.33,208.05 0,86.33 29.19,156.5 87.26,210.53 58.38,54.35 127.93,81.36 209.29,81.36 35.54,0 68.39,-5.37 98.54,-16.11 1.22,-0.43 2.47,-0.8 3.64,-1.33 98.02,-43.97 172.04,-21.94 231.62,39.8 -86.63,93.16 -196.25,139.73 -328.22,139.73 -132.28,0 -244.07,-41.92 -335.36,-125.76 -90.98,-85.08 -136.32,-194.38 -136.32,-328.22 0,-133.83 44.71,-242.82 133.83,-326.66 89.43,-83.84 200.59,-126.07 334.12,-126.69z"/>
    <path class="fil0" d="M6809.12 905.92c0,38.5 -0.62,60.55 -1.86,66.76l-706.11 0c8.39,70.18 39.44,128.25 92.85,174.52 51.54,42.54 109.3,63.97 173.58,63.97 70.46,0 135.35,-14.13 187.63,-50.08 0.89,-0.62 1.87,-1.12 2.66,-1.86 70.49,-65.42 143.98,-65.72 219.28,-26.63 -35.71,73.28 -89.74,129.8 -162.09,169.55 -72.04,40.05 -151.53,59.93 -238.17,59.93 -124.52,0 -230.71,-41.92 -319.21,-126.07 -84.15,-84.15 -126.07,-194.38 -126.07,-330.08 0,-136.01 41.92,-245 125.44,-327.29 83.84,-81.98 189.73,-123.27 318.28,-123.89 128.55,0 232.27,41.61 311.14,124.52 81.66,82.6 122.65,191.58 122.65,326.66zm-254 -237.85c-48.44,-41.61 -108.68,-62.42 -180.1,-62.42 -71.73,0 -133.21,20.81 -184.76,62.42 -50.92,44.4 -80.73,102.16 -89.12,172.34l539.37 0c-8.39,-70.18 -36.96,-127.93 -85.39,-172.34z"/>
    <path class="fil0" d="M7070.45 874.25l0 469.19c-124.68,0.77 -169.54,-7.46 -169.54,-133.61l0 -736.46c105.16,-1.28 167.82,10.89 169.54,90.99l0 39.74c24.84,-48.44 62.1,-85.71 112.09,-111.17 49.68,-25.46 103.09,-38.19 159.92,-38.19 109.3,0 191.59,33.54 247.17,100.92 58.06,66.14 87.56,161.15 88.18,284.75l0 394.64c-0.19,76.72 -42.48,110.81 -169.54,108.39l0 -491.86c0,-73.28 -17.39,-129.8 -51.86,-169.23 -33.54,-41.3 -82.91,-61.79 -148.43,-61.79 -66.14,0 -122.34,21.42 -168.3,64.58 -46.27,42.85 -69.25,106.2 -69.25,189.11z"/>
    <path class="fil0" d="M8097.81 293.19l0 180.18 49.99 0c93.62,-1.24 131.16,44.05 132.59,150.91l-182.58 0 0 719.16c-106.27,1.06 -164.8,-25.79 -169.54,-142.18l0 -576.98 -31.81 0c-113.8,-1.2 -122.66,-73.11 -124.69,-150.91l156.5 0 0 -318.59c105.75,-2.25 163.77,29.56 169.54,138.41z"/>
   </g>
   <g>
    <polygon class="fil1" points="745.55,367.17 508.95,659.52 254.88,379.33 499.35,81.03 "/>
    <polygon class="fil1" points="291.38,1020.25 796.55,417.78 1015.2,680.55 937.71,774.31 499.98,1281.04 "/>
    <polygon class="fil1" points="204.85,429.35 458.11,710.94 242.49,971.55 -0,680.09 "/>
   </g>
   <path class="fil1" d="M599.74 0c339.65,0 762.33,228.79 762.33,672.13 0,481.41 -359.44,689.94 -762.33,689.94l574.05 -674.46 -574.05 -687.61z"/>
  </g>
 </g>
</svg>
