<?xml version="1.0" encoding="UTF-8"?>
<!DOCTYPE svg PUBLIC "-//W3C//DTD SVG 1.1//EN" "http://www.w3.org/Graphics/SVG/1.1/DTD/svg11.dtd">
<!-- Creator: CorelDRAW 2018 (64-Bit Evaluation Version) -->
<svg xmlns="http://www.w3.org/2000/svg" xml:space="preserve" width="70.048mm" height="240px" version="1.1" style="shape-rendering:geometricPrecision; text-rendering:geometricPrecision; image-rendering:optimizeQuality; fill-rule:evenodd; clip-rule:evenodd"
viewBox="0 0 729.12 123.93"
 xmlns:xlink="http://www.w3.org/1999/xlink">
 <defs>
  <style type="text/css">
   <![CDATA[
    .fil0 {fill:#3D4852}
    .fil1 {fill:white}
    .fil2 {fill:white;fill-rule:nonzero}
   ]]>
  </style>
 </defs>
 <g id="Layer_x0020_1">
  <metadata id="CorelCorpID_0Corel-Layer"/>
  <g id="_2131923125184">
   <rect class="fil0" x="-0" y="-0" width="729.12" height="123.93"/>
   <g>
    <path class="fil1" d="M56.72 4.91c-0.18,0.4 -2.05,1.91 -2.48,2.3 -0.35,0.32 -0.81,0.71 -1.24,1.11 -0.3,0.28 -0.91,0.92 -1.34,1.09 -1.72,1.48 -3.35,2.96 -4.96,4.39 -2.93,2.61 -6.54,5.68 -9.31,8.24 -0.23,0.22 -0.39,0.35 -0.62,0.55l-4.9 4.33c-0.17,0.36 -0.32,0.43 -0.64,0.71 -0.26,0.22 -0.39,0.33 -0.63,0.55 -0.39,0.36 -0.9,0.96 -1.43,1.12 -0.17,0.29 -5.28,4.72 -6,5.38 -0.59,0.54 -1.39,1.25 -2.03,1.8l-4.06 3.59c-1.27,1.16 -2.68,2.37 -3.95,3.51 -0.1,0.36 -0.23,0.31 -0.75,0.8 -0.29,0.26 -0.52,0.46 -0.78,0.69 -0.38,0.34 -1.05,1.09 -1.67,1.4 -0.92,0.7 -1.79,1.68 -2.68,2.32 -0.14,0.33 -0.14,0.28 -0.44,0.53 -0.28,0.24 -0.17,0.25 -0.6,0.39 -0.56,0.62 -1.68,1.53 -2.48,2.23 -1.89,1.67 -4.42,3.17 -3.37,5.76 0.58,1.42 2,1.14 3.83,1.14l56.22 0c1.8,0 3.57,0.25 4.38,-0.55 0.97,-0.95 0.96,-2.19 0.96,-3.66l0 -49.34c0,-1.08 0.17,-3.48 -0.2,-4.33 -0.46,-1.06 -2.36,-1.12 -3.74,-0.41 -0.48,0.25 -4.53,3.72 -5.09,4.37z"/>
    <path class="fil1" d="M5.2 74.64c0.14,0.3 1.55,1.44 1.81,1.67l3.78 3.29c2.39,2.08 5.15,4.6 7.49,6.54 1.77,1.46 3.83,3.48 5.6,4.89 0.7,0.56 1.23,1.14 1.88,1.66 1.55,1.23 4.13,3.59 5.54,4.85l2.81 2.48c1.5,1.16 3.17,2.79 4.69,4.06 1.22,1.02 2.55,2.26 3.72,3.25 1.52,1.29 5.28,4.72 6.59,5.69l4.65 4.07c1.79,1.5 6.17,5.52 7.45,6.48 0.87,0.65 2.07,0.34 2.89,-0.09 0.58,-0.3 1.63,-1.11 1.51,-1.82 0.41,-0.48 0.32,-0.87 0.31,-1.51l0 -49.61c0,-0.68 -0.01,-1 -0.14,-1.62 -0.11,-0.56 -0.4,-0.95 -0.42,-1.23 -0.22,-0.14 -0.1,-0.07 -0.29,-0.25 -0.94,-0.91 -0.97,-0.69 -3.11,-0.69l-59.35 -0c-1.5,0 -2.24,0.45 -2.27,1.95 -0.03,1.58 0.16,1.16 0.29,1.89 0.21,0.12 0.26,0.3 0.46,0.55 0.5,0.57 2.72,2.32 3.43,3.05 0.18,0.18 0.06,0.14 0.28,0.3 0.24,0.17 -0.07,0.06 0.38,0.17z"/>
    <path class="fil1" d="M81.76 2.16c-0.34,-0.09 -0.5,-0.14 -0.73,-0.44 -1.45,-0.89 -3.11,-2.42 -4.87,-1.35 -0.95,0.58 -0.88,1.16 -0.88,2.44l-0 53.65c-0,1.26 0.16,1.69 1.21,2.15 1.45,0.64 2.43,-0.19 3.69,-0.97 0.35,-0.22 0.65,-0.44 1.02,-0.65l4.57 -2.79c1.27,-0.89 1.75,-1.07 2.32,-1.45 0.12,-0.08 0.03,-0.02 0.18,-0.12l5.43 -3.47c0.32,-0.16 0.75,-0.46 1.03,-0.66l5.18 -3.25c1.93,-1.33 5.23,-3.2 7.36,-4.63l5.24 -3.29c1.28,-0.81 6.33,-3.9 7.34,-4.65 1.31,-0.98 5.04,-2.12 3.58,-4.16 -0.32,-0.46 -3.74,-2.48 -4.66,-3.07l-2.73 -1.65c-0.02,-0.01 -0.04,-0.03 -0.06,-0.04 -2.92,-2.03 -6.13,-3.88 -9.2,-5.86 -1.39,-0.89 -2.69,-1.64 -4.22,-2.63 -1.26,-0.82 -2.76,-1.79 -4.12,-2.61l-3.45 -2.2c-0.06,-0.05 -0.22,-0.16 -0.22,-0.17l-3.72 -2.25c-2.18,-1.58 -6.7,-4.17 -9.29,-5.88z"/>
    <path class="fil1" d="M75.25 68c0.16,0.69 0.03,51.27 0.03,53.82 0,0.84 0.15,1.24 0.74,1.65 1.82,1.27 3.64,-0.37 5.13,-1.26 3.78,-2.28 8.44,-4.98 12.03,-7.33 0.77,-0.5 2.09,-1.13 2.68,-1.58l12.44 -7.61c1.04,-0.61 1.93,-1.09 2.98,-1.8 1.19,-0.8 3.86,-2.23 4.96,-2.98 1.51,-1.03 4.25,-2.47 5.64,-3.49 0.55,-0.4 2.59,-1.05 2.1,-2.49 -0.2,-0.58 -0.67,-0.86 -1.16,-1.17l-7.53 -4.58c-0.21,-0.12 -1.29,-0.72 -1.4,-0.92l-28.59 -17.32c-1.63,-0.94 -3.17,-1.93 -4.79,-2.87 -0.71,-0.41 -1.69,-1.23 -2.6,-1.29 -1.58,-0.1 -1.92,0.28 -2.54,1.1l-0.11 0.12z"/>
    <path class="fil1" d="M51.66 9.41c0.44,-0.17 1.04,-0.8 1.34,-1.09 0.42,-0.4 0.89,-0.8 1.24,-1.11 0.42,-0.38 2.3,-1.9 2.48,-2.3 -0.28,0.11 -0.17,0.05 -0.44,0.24 -0.18,0.13 -0.16,0.11 -0.31,0.26 -0.68,0.72 -4.16,3.57 -4.31,3.99z"/>
    <path class="fil1" d="M9.93 46.46c0.61,-0.31 1.29,-1.05 1.67,-1.4 0.25,-0.23 0.49,-0.42 0.78,-0.69 0.53,-0.48 0.66,-0.44 0.75,-0.8 -0.48,0.22 -1.3,1.01 -1.66,1.37 -0.44,0.44 -1.33,0.97 -1.54,1.51z"/>
    <path class="fil1" d="M29.17 29.3c0.53,-0.16 1.05,-0.77 1.43,-1.12 0.24,-0.22 0.37,-0.33 0.63,-0.55 0.32,-0.27 0.47,-0.35 0.64,-0.71 -0.52,0.17 -0.28,0.15 -0.77,0.59 -0.23,0.21 -0.41,0.34 -0.64,0.54 -0.27,0.23 -0.47,0.45 -0.66,0.61 -0.36,0.31 -0.43,0.28 -0.63,0.63z"/>
    <path class="fil1" d="M6.22 49.69c0.42,-0.14 0.31,-0.15 0.6,-0.39 0.29,-0.24 0.3,-0.2 0.44,-0.53 -0.29,0.13 -0.06,0 -0.25,0.13l-0.78 0.78z"/>
    <path class="fil1" d="M81.76 2.16c-0.22,-0.3 -0.39,-0.35 -0.73,-0.44 0.23,0.3 0.39,0.35 0.73,0.44z"/>
   </g>
   <g>
    <path class="fil1" d="M474.96 1.71c-0.03,0.06 -0.32,0.3 -0.39,0.36 -0.05,0.05 -0.13,0.11 -0.19,0.17 -0.05,0.04 -0.14,0.14 -0.21,0.17 -0.27,0.23 -0.52,0.46 -0.77,0.68 -0.45,0.41 -1.02,0.88 -1.45,1.28 -0.04,0.03 -0.06,0.05 -0.1,0.09l-0.76 0.67c-0.03,0.06 -0.05,0.07 -0.1,0.11 -0.04,0.03 -0.06,0.05 -0.1,0.09 -0.06,0.06 -0.14,0.15 -0.22,0.17 -0.03,0.04 -0.82,0.73 -0.93,0.84 -0.09,0.08 -0.22,0.19 -0.32,0.28l-0.63 0.56c-0.2,0.18 -0.42,0.37 -0.62,0.55 -0.01,0.06 -0.04,0.05 -0.12,0.12 -0.05,0.04 -0.08,0.07 -0.12,0.11 -0.06,0.05 -0.16,0.17 -0.26,0.22 -0.14,0.11 -0.28,0.26 -0.42,0.36 -0.02,0.05 -0.02,0.04 -0.07,0.08 -0.04,0.04 -0.03,0.04 -0.09,0.06 -0.09,0.1 -0.26,0.24 -0.39,0.35 -0.29,0.26 -0.69,0.49 -0.52,0.9 0.09,0.22 0.31,0.18 0.6,0.18l8.74 0c0.28,0 0.55,0.04 0.68,-0.09 0.15,-0.15 0.15,-0.34 0.15,-0.57l0 -7.68c0,-0.17 0.03,-0.54 -0.03,-0.67 -0.07,-0.16 -0.37,-0.17 -0.58,-0.06 -0.07,0.04 -0.71,0.58 -0.79,0.68z"/>
    <path class="fil1" d="M466.94 12.55c0.02,0.05 0.24,0.22 0.28,0.26l0.59 0.51c0.37,0.32 0.8,0.72 1.17,1.02 0.27,0.23 0.6,0.54 0.87,0.76 0.11,0.09 0.19,0.18 0.29,0.26 0.24,0.19 0.64,0.56 0.86,0.75l0.44 0.39c0.23,0.18 0.49,0.43 0.73,0.63 0.19,0.16 0.4,0.35 0.58,0.5 0.24,0.2 0.82,0.73 1.03,0.89l0.72 0.63c0.28,0.23 0.96,0.86 1.16,1.01 0.14,0.1 0.32,0.05 0.45,-0.01 0.09,-0.05 0.25,-0.17 0.24,-0.28 0.06,-0.07 0.05,-0.14 0.05,-0.23l0 -7.72c0,-0.11 -0,-0.16 -0.02,-0.25 -0.02,-0.09 -0.06,-0.15 -0.07,-0.19 -0.03,-0.02 -0.02,-0.01 -0.04,-0.04 -0.15,-0.14 -0.15,-0.11 -0.48,-0.11l-9.23 -0c-0.23,0 -0.35,0.07 -0.35,0.3 -0.01,0.25 0.02,0.18 0.04,0.29 0.03,0.02 0.04,0.05 0.07,0.09 0.08,0.09 0.42,0.36 0.53,0.47 0.03,0.03 0.01,0.02 0.04,0.05 0.04,0.03 -0.01,0.01 0.06,0.02z"/>
    <path class="fil1" d="M478.85 1.28c-0.05,-0.01 -0.08,-0.02 -0.11,-0.07 -0.23,-0.14 -0.48,-0.38 -0.76,-0.21 -0.15,0.09 -0.14,0.18 -0.14,0.38l0 8.35c-0,0.2 0.02,0.26 0.19,0.33 0.22,0.1 0.38,-0.03 0.57,-0.15 0.05,-0.03 0.1,-0.07 0.16,-0.1l0.71 -0.43c0.2,-0.14 0.27,-0.17 0.36,-0.23 0.02,-0.01 0.01,-0 0.03,-0.02l0.84 -0.54c0.05,-0.02 0.12,-0.07 0.16,-0.1l0.8 -0.51c0.3,-0.21 0.81,-0.5 1.14,-0.72l0.82 -0.51c0.2,-0.13 0.98,-0.61 1.14,-0.72 0.2,-0.15 0.78,-0.33 0.56,-0.65 -0.05,-0.07 -0.58,-0.39 -0.73,-0.48l-0.42 -0.26c-0,-0 -0.01,-0 -0.01,-0.01 -0.45,-0.32 -0.95,-0.6 -1.43,-0.91 -0.22,-0.14 -0.42,-0.26 -0.66,-0.41 -0.2,-0.13 -0.43,-0.28 -0.64,-0.41l-0.54 -0.34c-0.01,-0.01 -0.03,-0.02 -0.03,-0.02l-0.58 -0.35c-0.34,-0.25 -1.04,-0.65 -1.45,-0.91z"/>
    <path class="fil1" d="M477.84 11.52c0.02,0.11 0,7.97 0,8.37 0,0.13 0.02,0.19 0.11,0.26 0.28,0.2 0.57,-0.06 0.8,-0.2 0.59,-0.35 1.31,-0.78 1.87,-1.14 0.12,-0.08 0.33,-0.18 0.42,-0.25l1.94 -1.18c0.16,-0.09 0.3,-0.17 0.46,-0.28 0.19,-0.12 0.6,-0.35 0.77,-0.46 0.24,-0.16 0.66,-0.38 0.88,-0.54 0.09,-0.06 0.4,-0.16 0.33,-0.39 -0.03,-0.09 -0.11,-0.13 -0.18,-0.18l-1.17 -0.71c-0.03,-0.02 -0.2,-0.11 -0.22,-0.14l-4.45 -2.69c-0.25,-0.15 -0.49,-0.3 -0.74,-0.45 -0.11,-0.06 -0.26,-0.19 -0.41,-0.2 -0.25,-0.02 -0.3,0.04 -0.4,0.17l-0.02 0.02z"/>
    <path class="fil1" d="M474.17 2.41c0.07,-0.03 0.16,-0.12 0.21,-0.17 0.07,-0.06 0.14,-0.12 0.19,-0.17 0.07,-0.06 0.36,-0.3 0.39,-0.36 -0.04,0.02 -0.03,0.01 -0.07,0.04 -0.03,0.02 -0.03,0.02 -0.05,0.04 -0.11,0.11 -0.65,0.56 -0.67,0.62z"/>
    <path class="fil1" d="M467.68 8.17c0.09,-0.05 0.2,-0.16 0.26,-0.22 0.04,-0.04 0.08,-0.07 0.12,-0.11 0.08,-0.07 0.1,-0.07 0.12,-0.12 -0.07,0.03 -0.2,0.16 -0.26,0.21 -0.07,0.07 -0.21,0.15 -0.24,0.24z"/>
    <path class="fil1" d="M470.67 5.5c0.08,-0.02 0.16,-0.12 0.22,-0.17 0.04,-0.03 0.06,-0.05 0.1,-0.09 0.05,-0.04 0.07,-0.05 0.1,-0.11 -0.08,0.03 -0.04,0.02 -0.12,0.09 -0.04,0.03 -0.06,0.05 -0.1,0.08 -0.04,0.04 -0.07,0.07 -0.1,0.1 -0.06,0.05 -0.07,0.04 -0.1,0.1z"/>
    <path class="fil1" d="M467.1 8.67c0.07,-0.02 0.05,-0.02 0.09,-0.06 0.05,-0.04 0.05,-0.03 0.07,-0.08 -0.04,0.02 -0.01,0 -0.04,0.02l-0.12 0.12z"/>
    <path class="fil1" d="M478.85 1.28c-0.03,-0.05 -0.06,-0.05 -0.11,-0.07 0.04,0.05 0.06,0.06 0.11,0.07z"/>
   </g>
   <path class="fil2" d="M157.82 77.94c3.72,3.64 8.36,5.45 13.92,5.45 5.54,0 10.32,-1.82 14.35,-5.45 4,-3.64 6.02,-8.53 6.02,-14.7 0,-6.17 -1.95,-11.06 -5.84,-14.65 -3.9,-3.55 -8.64,-5.33 -14.22,-5.33 -5.58,0 -10.28,1.9 -14.09,5.71 -3.81,3.83 -5.71,8.72 -5.71,14.63 0,5.93 1.86,10.69 5.58,14.33zm12.97 34.67c14.37,0 21.58,-9.13 21.58,-27.38 0,-0.17 -0.04,-0.39 -0.13,-0.63l0 -0.82c-1.73,3.46 -4.59,6.19 -8.57,8.18 -3.98,1.99 -8.2,2.99 -12.71,2.99 -8.7,0 -16.02,-2.9 -21.93,-8.68 -5.91,-5.8 -8.87,-13.42 -8.87,-22.83 0,-9.44 3.03,-17.08 9.07,-22.9 6.04,-5.84 13.31,-8.79 21.75,-8.83 4.61,0 8.85,1 12.68,2.99 3.81,1.73 6.67,4.33 8.57,7.81 -0.26,-7.83 4.78,-9.38 11.82,-9.5l0 51.45c0,26.34 -11.08,39.5 -33.27,39.45 -5.8,0.04 -11.1,-1.38 -15.93,-4.26 -4.8,-2.9 -8.64,-6.97 -11.47,-12.19 5.91,-2.55 10.73,-2.55 14.15,0.16 0.1,0.07 0.19,0.16 0.28,0.23 0.86,0.7 1.79,1.35 2.79,1.93 3.27,1.89 6.64,2.84 10.17,2.84z"/>
   <path class="fil2" d="M508.75 77.94c3.72,3.64 8.35,5.45 13.92,5.45 5.54,0 10.32,-1.82 14.35,-5.45 4,-3.64 6.02,-8.53 6.02,-14.7 0,-6.17 -1.95,-11.06 -5.84,-14.65 -3.9,-3.55 -8.64,-5.33 -14.22,-5.33 -5.58,0 -10.28,1.9 -14.09,5.71 -3.81,3.83 -5.71,8.72 -5.71,14.63 0,5.93 1.86,10.69 5.58,14.33zm12.96 34.67c14.37,0 21.58,-9.13 21.58,-27.38 0,-0.17 -0.04,-0.39 -0.13,-0.63l0 -0.82c-1.73,3.46 -4.59,6.19 -8.57,8.18 -3.98,1.99 -8.2,2.99 -12.71,2.99 -8.7,0 -16.02,-2.9 -21.92,-8.68 -5.91,-5.8 -8.87,-13.42 -8.87,-22.83 0,-9.44 3.03,-17.08 9.07,-22.9 6.04,-5.84 13.31,-8.79 21.75,-8.83 4.61,0 8.85,1 12.68,2.99 3.81,1.73 6.67,4.33 8.57,7.81 -0.25,-7.83 4.78,-9.38 11.82,-9.5l0 51.45c0,26.34 -11.08,39.5 -33.27,39.45 -5.8,0.04 -11.1,-1.38 -15.93,-4.26 -4.8,-2.9 -8.64,-6.97 -11.47,-12.19 5.91,-2.55 10.73,-2.55 14.15,0.16 0.09,0.07 0.19,0.16 0.28,0.23 0.86,0.7 1.79,1.35 2.79,1.93 3.27,1.89 6.65,2.84 10.17,2.84z"/>
   <path class="fil2" d="M225.13 71.6l0 22.06c-6.31,0.24 -11.82,-0.45 -11.82,-9.3l0 -51.34c7.09,-0.13 11.7,1.67 11.82,8.61l0 5.07c2.97,-9.98 8.57,-14.98 16.86,-14.98 4.78,0 8.29,0.78 10.54,2.32 -0.72,5.42 -3.65,8.86 -10.41,8.89 -0.11,0 -0.23,0 -0.35,0.01 -4.93,0.16 -9.49,2.7 -12.33,7.75 -2.88,5.13 -4.31,12.1 -4.31,20.93z"/>
   <path class="fil2" d="M302.11 77.94c3.9,-3.64 5.84,-8.53 5.84,-14.7 0,-6.17 -2.03,-11.04 -6.08,-14.59 -4.07,-3.55 -8.85,-5.35 -14.35,-5.39 -5.52,0 -10.13,1.84 -13.85,5.52 -3.72,3.64 -5.58,8.4 -5.58,14.33 0,5.91 1.9,10.78 5.71,14.57 3.81,3.81 8.51,5.71 14.09,5.71 5.58,0 10.32,-1.82 14.22,-5.45zm5.97 15.71l0 -9.31c-1.9,3.18 -4.78,5.74 -8.64,7.68 -3.85,1.95 -8.05,2.92 -12.64,2.92 -8.4,0 -15.69,-2.94 -21.86,-8.83 -5.95,-5.87 -8.94,-13.48 -8.94,-22.81 0,-9.35 2.94,-16.95 8.81,-22.77 5.89,-5.84 13.22,-8.79 22.01,-8.83 4.39,0 8.64,0.91 12.68,2.73 3.98,1.99 6.84,4.54 8.57,7.68 -0.44,-7.44 3.69,-8.82 11.82,-9.11l0 51.3c0.14,6.83 -5.37,9.59 -11.82,9.35z"/>
   <path class="fil2" d="M347.55 48.83c-3.74,3.72 -5.63,8.68 -5.63,14.89 0,6.19 1.99,11.02 5.95,14.48 3.98,3.46 8.68,5.2 14.13,5.2 5.45,0 10.11,-1.82 13.94,-5.45 3.64,-3.61 5.45,-8.38 5.45,-14.29 0,-5.91 -1.9,-10.78 -5.71,-14.57 -3.83,-3.79 -8.55,-5.71 -14.11,-5.76 -5.58,-0.04 -10.26,1.8 -14.02,5.5zm-5.76 -15.82l0 9.54c1.99,-3.4 4.87,-6.02 8.68,-7.83 3.72,-2.01 7.88,-3.01 12.49,-3.01 8.46,0 15.63,2.94 21.47,8.85 5.87,5.84 8.79,13.46 8.79,22.83 0,9.37 -2.9,16.97 -8.72,22.81 -5.8,5.82 -12.99,8.74 -21.53,8.74 -4.61,0 -8.83,-0.91 -12.68,-2.73 -3.83,-1.82 -6.67,-4.37 -8.48,-7.62l0 30.89c0.27,5.93 -4.94,7.65 -11.82,7.63l0 -80.57c0.39,-7.88 5.21,-9.95 11.82,-9.55z"/>
   <path class="fil2" d="M414.77 60.95l0 32.7c-7.3,0.24 -12.12,-2.51 -11.82,-10.74l0 -82.89c7.27,0.23 12.09,2.3 11.82,9.96l0 32.14c1.64,-3.38 4.46,-5.97 8.44,-7.75 3.96,-1.77 7.81,-2.66 11.54,-2.66 7.66,0 13.7,2.38 18.09,7.16 4.39,4.78 6.56,11.34 6.47,19.72l0 25.57c-0.21,5.6 -4.34,9.73 -11.82,9.49l0 -34.28c0,-5.04 -1.34,-8.92 -4,-11.67 -2.58,-2.97 -6.15,-4.44 -10.71,-4.44 -4.57,0 -8.7,1.45 -12.42,4.37 -3.72,2.92 -5.58,7.36 -5.58,13.31z"/>
   <path class="fil2" d="M469.88 93.65l0 -50.71c0.24,-7.57 5.75,-10.33 11.82,-9.94l0 50.94c0.13,6.5 -4,9.94 -11.82,9.7z"/>
   <path class="fil2" d="M625.23 63.15c0,2.68 -0.04,4.22 -0.13,4.65l-49.22 0c0.58,4.89 2.75,8.94 6.47,12.16 3.59,2.97 7.62,4.46 12.1,4.46 5.54,0 10.02,-1.25 13.45,-3.76 0.12,-0.09 0.24,-0.17 0.35,-0.27 5.03,-3.99 9.92,-3.65 14.74,-1.45 -2.49,5.11 -6.26,9.05 -11.3,11.82 -5.02,2.79 -10.56,4.18 -16.6,4.18 -8.68,0 -16.08,-2.92 -22.25,-8.79 -5.87,-5.87 -8.79,-13.55 -8.79,-23.01 0,-9.48 2.92,-17.08 8.74,-22.81 5.84,-5.71 13.22,-8.59 22.19,-8.64 8.96,0 16.19,2.9 21.69,8.68 5.69,5.76 8.55,13.35 8.55,22.77zm-17.7 -16.58c-3.38,-2.9 -7.57,-4.35 -12.55,-4.35 -5,0 -9.29,1.45 -12.88,4.35 -3.55,3.09 -5.63,7.12 -6.21,12.01l37.59 0c-0.58,-4.89 -2.58,-8.92 -5.95,-12.01z"/>
   <path class="fil2" d="M687.85 61.05l0 32.19c-7.11,0.31 -11.49,-1.33 -11.66,-9.87l0 -24.01c0,-4.96 -1.2,-8.78 -3.57,-11.49 -2.29,-2.82 -5.64,-4.23 -10.02,-4.23 -4.34,0 -8.1,1.47 -11.26,4.42 -3.18,2.95 -4.76,7.28 -4.76,12.99l0 22.39c-0.08,7.32 -4.73,9.59 -11.66,9.81l0 -49.45c0.05,-7.18 4.7,-10.24 11.66,-10.4l0 9.1c1.39,-2.86 3.65,-5.21 6.84,-7.03 3.33,-1.82 6.37,-2.8 9.08,-2.97 11.51,-0.7 19.14,3.33 22.86,12.09 4.17,-8.31 11.04,-12.48 20.68,-12.48 7.5,0 13.2,2.31 17.09,6.94 3.99,4.55 6,11.09 6,19.59l0 34.61c-6.92,-0.07 -11.57,-2.52 -11.66,-9.68l0 -24.07c0,-4.87 -1.22,-8.74 -3.63,-11.62 -2.61,-2.82 -6.13,-4.25 -10.55,-4.29 -4.4,-0.04 -8.07,1.54 -10.98,4.74 -2.93,3.2 -4.4,7.43 -4.44,12.73z"/>
  </g>
 </g>
</svg>
