<?xml version="1.0" encoding="UTF-8"?>
<!DOCTYPE svg PUBLIC "-//W3C//DTD SVG 1.1//EN" "http://www.w3.org/Graphics/SVG/1.1/DTD/svg11.dtd">
<!-- Creator: CorelDRAW 2018 (64-Bit Evaluation Version) -->
<svg xmlns="http://www.w3.org/2000/svg" xml:space="preserve" width="121.241mm" height="23.8124mm" version="1.1" style="shape-rendering:geometricPrecision; text-rendering:geometricPrecision; image-rendering:optimizeQuality; fill-rule:evenodd; clip-rule:evenodd"
viewBox="0 0 5591.37 1098.18"
 xmlns:xlink="http://www.w3.org/1999/xlink">
 <defs>
  <style type="text/css">
   <![CDATA[
    .fil1 {fill:#3D4852}
    .fil0 {fill:#3D4852;fill-rule:nonzero}
   ]]>
  </style>
 </defs>
 <g id="Layer_x0020_1">
  <metadata id="CorelCorpID_0Corel-Layer"/>
  <path class="fil0" d="M1141 442.2c-33.06,32.86 -49.69,76.62 -49.69,131.46 0,54.65 17.58,97.26 52.55,127.84 35.16,30.57 76.62,45.86 124.77,45.86 48.15,0 89.23,-16.06 123.06,-48.16 32.1,-31.91 48.15,-73.95 48.15,-126.11 0,-52.17 -16.81,-95.16 -50.44,-128.6 -33.82,-33.44 -75.48,-50.45 -124.58,-50.83 -49.3,-0.38 -90.58,15.86 -123.82,48.54zm-50.83 -139.68l0 84.27c17.58,-30 43,-53.12 76.62,-69.17 32.86,-17.77 69.55,-26.56 110.25,-26.56 74.71,0 137.96,25.99 189.55,78.15 51.78,51.59 77.58,118.86 77.58,201.59 0,82.74 -25.6,149.8 -77.01,201.4 -51.21,51.39 -114.65,77.2 -190.12,77.2 -40.7,0 -77.96,-8.03 -111.98,-24.08 -33.81,-16.05 -58.85,-38.6 -74.9,-67.26l0 242.16c1.74,62.12 -38.04,96.95 -104.33,97.96l0 -714.22c0.78,-69.72 46.95,-83.88 104.33,-81.44z"/>
  <path class="fil0" d="M5436.21 702.43c33.06,-32.86 49.69,-76.62 49.69,-131.46 0,-54.65 -17.58,-97.26 -52.55,-127.84 -35.16,-30.57 -76.62,-45.86 -124.77,-45.86 -48.15,0 -89.23,16.06 -123.06,48.16 -32.1,31.91 -48.15,73.95 -48.15,126.11 0,52.17 16.81,95.16 50.44,128.6 33.82,33.44 75.48,50.45 124.58,50.83 49.3,0.38 90.58,-15.86 123.82,-48.54zm50.83 139.68l0 -84.27c-17.58,30 -43,53.12 -76.62,69.17 -32.86,17.77 -69.55,26.56 -110.25,26.56 -74.71,0 -137.96,-25.99 -189.55,-78.15 -51.78,-51.59 -77.58,-118.86 -77.58,-201.59 0,-82.74 25.6,-149.8 77.01,-201.4 51.21,-51.39 114.65,-77.2 190.12,-77.2 40.7,0 77.96,8.03 111.98,24.08 33.81,16.05 58.85,38.6 74.9,67.26l0 -242.16c-1.74,-62.12 38.04,-96.95 104.33,-97.96l0 714.22c-0.78,69.72 -46.95,83.88 -104.33,81.44z"/>
  <path class="fil0" d="M2060.56 703.39c34.39,-32.1 51.58,-75.29 51.58,-129.74 0,-54.47 -17.95,-97.46 -53.7,-128.78 -35.93,-31.35 -78.15,-47.2 -126.68,-47.59 -48.73,0 -89.43,16.25 -122.29,48.74 -32.87,32.1 -49.3,74.14 -49.3,126.49 0,52.18 16.8,95.16 50.43,128.6 33.64,33.63 75.1,50.44 124.4,50.44 49.3,0 91.14,-16.05 125.54,-48.16zm52.87 146.8l-0.14 -90.24c-16.81,28.09 -42.23,50.64 -76.24,67.83 -34.01,17.2 -71.09,25.79 -111.59,25.79 -74.14,0 -138.53,-25.98 -192.99,-77.96 -52.55,-51.78 -78.92,-119.05 -78.92,-201.4 0,-82.54 25.99,-149.61 77.77,-201.02 51.97,-51.58 116.75,-77.57 194.34,-77.96 38.79,0 76.24,8.03 111.97,24.07 35.16,17.58 60.38,40.13 75.66,67.84 1.83,-63.22 41.28,-96.23 104.77,-94.95l-0.43 459.02c-1.22,62.39 -39.6,96.78 -104.19,98.97z"/>
  <path class="fil0" d="M3316.15 703.39c34.39,-32.1 51.59,-75.29 51.59,-129.74 0,-54.47 -17.96,-97.46 -53.7,-128.78 -35.93,-31.35 -78.15,-47.2 -126.68,-47.59 -48.72,0 -89.43,16.25 -122.29,48.74 -32.87,32.1 -49.3,74.14 -49.3,126.49 0,52.18 16.81,95.16 50.45,128.6 33.63,33.63 75.09,50.44 124.39,50.44 49.3,0 91.14,-16.05 125.54,-48.16zm52.77 146.8l-0.04 -90.24c-16.8,28.09 -42.22,50.64 -76.23,67.83 -34.01,17.2 -71.09,25.79 -111.59,25.79 -74.14,0 -138.53,-25.98 -192.99,-77.96 -52.55,-51.78 -78.92,-119.05 -78.92,-201.4 0,-82.54 25.99,-149.61 77.76,-201.02 51.97,-51.58 116.76,-77.57 194.34,-77.96 38.78,0 76.24,8.03 111.97,24.07 35.16,17.58 60.39,40.13 75.66,67.84 1.84,-63.22 41.17,-92.35 104.66,-91.08l-0.32 455.14c-1.22,62.39 -39.71,96.78 -104.3,98.97z"/>
  <path class="fil0" d="M4188.23 703.39c34.4,-32.1 51.6,-75.29 51.6,-129.74 0,-54.47 -17.97,-97.46 -53.7,-128.78 -35.93,-31.35 -78.15,-47.2 -126.7,-47.59 -48.72,0 -89.41,16.25 -122.29,48.74 -32.86,32.1 -49.3,74.14 -49.3,126.49 0,52.18 16.82,95.16 50.45,128.6 33.63,33.63 75.1,50.44 124.4,50.44 49.3,0 91.14,-16.05 125.52,-48.16zm53.85 146.8l-1.11 -90.24c-16.82,28.09 -42.23,50.64 -76.24,67.83 -34.02,17.2 -71.09,25.79 -111.59,25.79 -74.14,0 -138.53,-25.98 -192.99,-77.96 -52.55,-51.78 -78.92,-119.05 -78.92,-201.4 0,-82.54 25.98,-149.61 77.77,-201.02 51.97,-51.58 116.75,-77.57 194.33,-77.96 38.79,0 76.24,8.03 111.96,24.07 35.16,17.58 60.39,40.13 75.67,67.84 1.83,-63.22 42.24,-92.35 105.73,-91.08l-1.4 455.14c-1.21,62.39 -38.63,96.78 -103.22,98.97z"/>
  <path class="fil0" d="M2438.51 292.9l372.42 0 0 88.86 -336.24 362.37 336.24 0c-0.85,58.29 -29.95,101.35 -98.34,103.31l-389.89 0 0 -89.45 329.91 -361.77 -310.72 0c-1.8,-60.55 13.56,-101.72 96.63,-103.31z"/>
  <path class="fil0" d="M3575.59 853.56l0 -758.92c0.18,-63.09 45.23,-88.67 103.78,-91.8l-2.07 769.5c-0.79,53.57 -39.06,81.94 -101.71,81.22z"/>
  <path class="fil0" d="M4548.96 551.35l0 302.03c-62.09,2.76 -101.46,-24.01 -106.93,-94.85l0 -468.38c73.09,-5.93 102.06,35.88 106.93,90.82 15.67,-30.55 39.17,-54.05 70.7,-70.11 31.33,-16.06 65.02,-24.09 100.86,-24.09 68.94,0 120.84,21.15 155.89,63.65 36.63,41.71 55.23,101.65 55.62,179.59l0 229.25c-3.72,65.03 -40.72,94.98 -106.93,94.13l0 -316.32c0,-46.22 -10.97,-81.86 -32.71,-106.74 -21.15,-26.05 -52.29,-38.97 -93.62,-38.97 -41.71,0 -77.16,13.52 -106.15,40.74 -29.18,27.03 -43.68,66.99 -43.68,119.27z"/>
  <g id="_2286919301648">
   <path class="fil1" d="M530.75 11.86c-266.8,-56.51 -499.24,93.42 -528.86,355.28 248.37,40.81 475.98,-108.32 528.86,-355.28z"/>
   <path class="fil1" d="M426.64 693.9c-38.44,-222.32 -240.38,-319.45 -426.64,-285.72 50.46,200.59 219.43,322.45 426.64,285.72z"/>
   <path class="fil1" d="M350.8 1086.32c266.8,56.51 499.24,-93.42 528.86,-355.28 -248.37,-40.81 -475.98,108.32 -528.86,355.28z"/>
   <path class="fil1" d="M452.95 405.82c38.43,222.32 240.38,319.45 426.64,285.72 -50.45,-200.59 -219.43,-322.45 -426.64,-285.72z"/>
  </g>
 </g>
</svg>
