<?xml version="1.0" encoding="UTF-8"?>
<!DOCTYPE svg PUBLIC "-//W3C//DTD SVG 1.1//EN" "http://www.w3.org/Graphics/SVG/1.1/DTD/svg11.dtd">
<!-- Creator: CorelDRAW 2018 (64-Bit Evaluation Version) -->
<svg xmlns="http://www.w3.org/2000/svg" xml:space="preserve" width="121.241mm" height="23.8124mm" version="1.1" style="shape-rendering:geometricPrecision; text-rendering:geometricPrecision; image-rendering:optimizeQuality; fill-rule:evenodd; clip-rule:evenodd"
viewBox="0 0 287388.2 56444.72"
 xmlns:xlink="http://www.w3.org/1999/xlink">
 <defs>
  <style type="text/css">
   <![CDATA[
    .fil1 {fill:white}
    .fil0 {fill:white;fill-rule:nonzero}
   ]]>
  </style>
 </defs>
 <g id="Layer_x0020_1">
  <metadata id="CorelCorpID_0Corel-Layer"/>
  <path class="fil0" d="M58645.86 22728.5c-1699.33,1689.14 -2553.86,3938.17 -2553.86,6756.8 0,2808.91 903.59,4999.16 2701.06,6570.73 1807.19,1571.33 3938.41,2357.12 6413.1,2357.12 2474.93,0 4586.47,-825.37 6324.92,-2475.16 1650.03,-1640.07 2474.93,-3800.69 2474.93,-6481.84 0,-2681.62 -864.01,-4891.07 -2592.73,-6609.84 -1738.21,-1718.77 -3879.38,-2592.97 -6403.38,-2612.65 -2533.95,-19.44 -4655.45,815.41 -6364.03,2494.84zm-2612.65 -7179.44l0 4331.18c903.59,-1541.94 2209.92,-2730.45 3938.41,-3555.35 1689.14,-913.31 3574.79,-1365.11 5666.9,-1365.11 3840.03,0 7090.79,1335.72 9742.55,4016.87 2661.48,2651.76 3987.47,6108.97 3987.47,10361.46 0,4252.72 -1316.04,7699.74 -3958.08,10351.74 -2632.08,2641.56 -5892.79,3967.8 -9771.94,3967.8 -2092.11,0 -4007.15,-412.69 -5755.55,-1237.58 -1737.97,-824.9 -3024.62,-1984.02 -3849.75,-3456.98l0 12446.45c89.36,3192.68 -1955.34,4983.04 -5362.54,5035.19l0 -36710.02c40.3,-3583.56 2413.3,-4311.27 5362.54,-4185.64z"/>
  <path class="fil0" d="M279413.02 36103.67c1699.33,-1689.14 2553.86,-3938.17 2553.86,-6756.8 0,-2808.91 -903.59,-4999.16 -2701.06,-6570.73 -1807.19,-1571.33 -3938.41,-2357.12 -6413.1,-2357.12 -2474.93,0 -4586.47,825.37 -6324.92,2475.16 -1650.03,1640.07 -2474.93,3800.69 -2474.93,6481.84 0,2681.62 864.01,4891.07 2592.73,6609.84 1738.21,1718.77 3879.38,2592.97 6403.38,2612.65 2533.95,19.44 4655.45,-815.41 6364.03,-2494.84zm2612.65 7179.44l0 -4331.18c-903.59,1541.94 -2209.92,2730.45 -3938.41,3555.35 -1689.14,913.31 -3574.79,1365.11 -5666.9,1365.11 -3840.03,0 -7090.79,-1335.72 -9742.55,-4016.87 -2661.48,-2651.76 -3987.47,-6108.97 -3987.47,-10361.46 0,-4252.72 1316.04,-7699.74 3958.08,-10351.74 2632.08,-2641.56 5892.79,-3967.8 9771.94,-3967.8 2092.11,0 4007.15,412.69 5755.55,1237.58 1737.97,824.9 3024.62,1984.02 3849.75,3456.98l0 -12446.45c-89.36,-3192.68 1955.34,-4983.04 5362.54,-5035.19l0 36710.02c-40.3,3583.56 -2413.3,4311.27 -5362.54,4185.64z"/>
  <path class="fil0" d="M105909.82 36152.98c1767.36,-1649.79 2651.28,-3869.66 2651.28,-6668.39 0,-2799.43 -922.79,-5009.11 -2759.85,-6619.32 -1846.54,-1611.16 -4016.63,-2425.86 -6510.99,-2446.24 -2504.79,0 -4596.66,835.09 -6285.57,2505.03 -1689.62,1649.79 -2533.71,3810.88 -2533.71,6501.27 0,2681.86 863.53,4891.07 2592.02,6610.07 1728.96,1728.49 3860.18,2592.73 6394.13,2592.73 2534.19,0 4684.37,-825.13 6452.68,-2475.16zm2717.65 7545.43l-7.35 -4638.38c-864.24,1443.81 -2170.33,2602.69 -3918.73,3486.61 -1748.16,884.16 -3653.72,1325.76 -5735.4,1325.76 -3810.64,0 -7120.42,-1335.48 -9919.38,-4006.91 -2701.06,-2661.48 -4056.45,-6118.93 -4056.45,-10351.74 0,-4242.53 1335.72,-7689.79 3997.19,-10332.06 2671.43,-2651.28 6000.88,-3987 9988.59,-4006.91 1993.5,0 3918.73,412.69 5755.31,1237.34 1806.95,903.83 3103.55,2062.48 3888.86,3486.85 93.87,-3249.33 2121.74,-4945.82 5385.06,-4880.4l-22.28 23592.75c-62.58,3206.9 -2035.22,4974.27 -5355.43,5087.1z"/>
  <path class="fil0" d="M170444.92 36152.98c1767.36,-1649.79 2651.52,-3869.66 2651.52,-6668.39 0,-2799.43 -923.03,-5009.11 -2759.85,-6619.32 -1846.54,-1611.16 -4016.87,-2425.86 -6511.23,-2446.24 -2504.32,0 -4596.66,835.09 -6285.33,2505.03 -1689.62,1649.79 -2534.19,3810.88 -2534.19,6501.27 0,2681.86 863.77,4891.07 2592.97,6610.07 1728.49,1728.49 3859.71,2592.73 6393.42,2592.73 2533.95,0 4684.61,-825.13 6452.68,-2475.16zm2712.2 7545.43l-2.13 -4638.38c-863.53,1443.81 -2170.09,2602.69 -3918.26,3486.61 -1748.16,884.16 -3653.72,1325.76 -5735.64,1325.76 -3810.64,0 -7120.42,-1335.48 -9919.38,-4006.91 -2701.06,-2661.48 -4056.21,-6118.93 -4056.21,-10351.74 0,-4242.53 1335.72,-7689.79 3996.95,-10332.06 2671.19,-2651.28 6001.36,-3987 9988.59,-4006.91 1993.26,0 3918.49,412.69 5755.31,1237.34 1807.19,903.83 3103.79,2062.48 3888.63,3486.85 94.34,-3249.33 2116.29,-4746.71 5379.6,-4681.29l-16.36 23393.63c-62.58,3206.9 -2040.91,4974.27 -5361.12,5087.1z"/>
  <path class="fil0" d="M215268.55 36152.98c1768.31,-1649.79 2652.23,-3869.66 2652.23,-6668.39 0,-2799.43 -923.74,-5009.11 -2759.85,-6619.32 -1846.54,-1611.16 -4016.87,-2425.86 -6511.94,-2446.24 -2504.08,0 -4595.72,835.09 -6285.33,2505.03 -1688.9,1649.79 -2533.95,3810.88 -2533.95,6501.27 0,2681.86 864.48,4891.07 2592.97,6610.07 1728.73,1728.49 3859.95,2592.73 6394.13,2592.73 2533.71,0 4684.37,-825.13 6451.73,-2475.16zm2767.91 7545.43l-56.89 -4638.38c-864.48,1443.81 -2170.33,2602.69 -3918.49,3486.61 -1748.4,884.16 -3653.72,1325.76 -5735.64,1325.76 -3810.88,0 -7120.42,-1335.48 -9919.14,-4006.91 -2701.06,-2661.48 -4056.45,-6118.93 -4056.45,-10351.74 0,-4242.53 1335.48,-7689.79 3997.19,-10332.06 2671.19,-2651.28 6000.65,-3987 9988.36,-4006.91 1993.5,0 3918.49,412.69 5754.6,1237.34 1807.19,903.83 3103.79,2062.48 3889.58,3486.85 94.1,-3249.33 2171.04,-4746.71 5434.36,-4681.29l-72.06 23393.63c-62.1,3206.9 -1985.44,4974.27 -5305.41,5087.1z"/>
  <path class="fil0" d="M125335.65 15054.6l19141.62 0 0 4567.27 -17282.29 18625.12 17282.29 0c-43.62,2996.18 -1539.33,5209.17 -5054.62,5309.91l-20040 0 0 -4597.85 16957.07 -18594.54 -15970.51 0c-92.68,-3112.32 697.13,-5228.14 4966.44,-5309.91z"/>
  <path class="fil0" d="M183779.8 43871.69l0 -39007.4c9.48,-3242.93 2324.64,-4557.55 5334.09,-4718.26l-106.19 39551.17c-40.53,2753.21 -2007.72,4211.71 -5227.9,4174.5z"/>
  <path class="fil0" d="M233809.52 28338.75l0 15523.7c-3191.5,141.75 -5215.1,-1234.26 -5496.23,-4875.18l0 -24074.17c3756.6,-304.6 5245.68,1844.4 5496.23,4668.01 805.22,-1570.38 2013.41,-2778.34 3634.05,-3603.71 1610.44,-825.61 3342.02,-1238.06 5184.28,-1238.06 3543.26,0 6210.9,1087.06 8012.64,3271.38 1882.57,2144.02 2838.78,5224.58 2858.93,9230.78l0 11782.98c-191.29,3342.49 -2092.82,4882.06 -5496.23,4837.97l0 -16258.52c0,-2375.61 -563.68,-4207.68 -1681.08,-5486.27 -1087.06,-1338.8 -2687.55,-2003.22 -4811.9,-2003.22 -2144.02,0 -3965.9,694.76 -5455.69,2094 -1499.98,1389.05 -2245,3443.23 -2245,6130.31z"/>
  <g id="_2286920467104">
   <path class="fil1" d="M27279.65 609.43c-13713.19,-2904.68 -25659.97,4801.7 -27182.47,18260.79 12765.98,2097.8 24464.81,-5567.58 27182.47,-18260.79z"/>
   <path class="fil1" d="M21928.73 35665.39c-1975.72,-11426.95 -12354.96,-16419.47 -21928.73,-14685.53 2593.45,10310.26 11278.56,16573.54 21928.73,14685.53z"/>
   <path class="fil1" d="M18030.39 55835.29c13713.19,2904.68 25659.97,-4801.7 27182.47,-18260.79 -12765.98,-2097.8 -24464.81,5567.34 -27182.47,18260.79z"/>
   <path class="fil1" d="M23280.8 20858.74c1975.48,11426.95 12354.96,16419.47 21928.49,14685.53 -2593.21,-10310.26 -11278.56,-16573.54 -21928.49,-14685.53z"/>
  </g>
 </g>
</svg>
