<?xml version="1.0" encoding="UTF-8"?>
<!DOCTYPE svg PUBLIC "-//W3C//DTD SVG 1.1//EN" "http://www.w3.org/Graphics/SVG/1.1/DTD/svg11.dtd">
<!-- Creator: CorelDRAW 2018 (64-Bit Evaluation Version) -->
<svg xmlns="http://www.w3.org/2000/svg" xml:space="preserve" width="144.763mm" height="23.8126mm" version="1.1" style="shape-rendering:geometricPrecision; text-rendering:geometricPrecision; image-rendering:optimizeQuality; fill-rule:evenodd; clip-rule:evenodd"
viewBox="0 0 8258.11 1358.41"
 xmlns:xlink="http://www.w3.org/1999/xlink">
 <defs>
  <style type="text/css">
   <![CDATA[
    .fil1 {fill:white}
    .fil0 {fill:white;fill-rule:nonzero}
   ]]>
  </style>
 </defs>
 <g id="Layer_x0020_1">
  <metadata id="CorelCorpID_0Corel-Layer"/>
  <g id="_2128276089744">
   <g>
    <path class="fil0" d="M1778.14 695.07c-57.91,51.4 -87.02,121.39 -87.02,209.65 0,88.26 27.87,158.25 83.3,210.28 55.74,52.03 123.56,78.04 203.15,78.04 79.9,0 146.78,-27.25 200.36,-81.76 54.5,-54.19 81.76,-123.56 81.76,-207.48 0,-84.23 -26.94,-152.68 -80.83,-205.94 -53.57,-53.26 -119.23,-79.59 -196.65,-78.97 -77.42,0 -145.55,25.39 -204.08,76.18zm-257.97 644.75l0 -1211.31c-0.83,-95.86 64.79,-131.05 169.08,-128.37l0 602.33c59.15,-99.41 160.73,-148.96 304.73,-148.96 125.42,0 229.78,41.8 313.08,125.42 83.62,82.68 125.42,191.38 125.42,325.78 0,134.1 -43.35,243.41 -129.75,327.33 -86.72,84.23 -190.15,126.35 -310.61,126.35 -64.1,0 -123.87,-13.94 -179.61,-41.81 -55.43,-27.87 -96.62,-64.41 -123.25,-109.94 -0.17,110.47 -62.57,135.64 -169.08,133.17z"/>
    <path class="fil0" d="M2701.26 1339.83c-94.56,2.94 -166.77,-21.82 -169.08,-104.68l0 -763.04c111.5,-1.27 168.54,25.5 169.08,116.62l0 79.1c42.43,-142.76 122.64,-214.3 241.24,-214.3 68.44,0 118.61,11.15 150.82,33.14 -24.12,88.81 -71.46,137.94 -153.07,128.52 -0.38,-0.05 -0.77,-0.01 -1.16,-0.01 -76.49,0 -135.02,36.54 -176.21,109.63 -30.57,54.48 -56.71,123.1 -57.55,207.06l-4.08 407.96z"/>
    <path class="fil0" d="M3167.95 1339.83l0 -733.15c0.56,-99.07 64.01,-134.65 169.08,-134.58l0 751.81c-0.42,91.93 -60.99,117.87 -169.08,115.92z"/>
    <path class="fil0" d="M3169.19 230.55c-21.99,-21.37 -32.82,-47.38 -32.82,-78.04 0,-30.97 10.83,-56.67 32.82,-78.04 24.46,-21.06 52.03,-31.59 83.3,-31.59 31.28,0 58.84,10.22 82.37,30.66 23.85,20.75 35.62,47.07 35.62,78.97 0,31.89 -11.77,58.22 -35.62,78.97 -23.53,20.44 -51.1,30.66 -82.37,30.66 -31.28,0 -58.84,-10.52 -83.3,-31.59z"/>
    <path class="fil0" d="M4299.43 1339.83l0 -1219.23c-0.47,-83.83 79.86,-120.18 169.08,-120.46l0 774.21 238.48 -240.7c73.77,-78.32 165.51,-103.32 291.38,-61.55l-371.93 374.72 460.8 493.01c-112.97,18.52 -212.01,9.91 -279.45,-60.22l-339.29 -363.73 0 300.81c-3.58,77.76 -69.08,120.54 -169.08,123.14z"/>
    <path class="fil0" d="M5536.46 453.52c133.78,0 243.41,46.76 329.19,139.97 -75.38,49.17 -159.55,79.66 -281.74,29.22 -0.49,-0.2 -1.07,-0.17 -1.6,-0.24 -15.92,-2.39 -32.45,-3.59 -49.57,-3.59 -81.44,0 -150.81,26.32 -207.79,79.28 -57.29,52.03 -86.09,121.09 -86.09,207.49 0,86.09 29.11,156.08 87.02,209.96 58.22,54.2 127.59,81.14 208.72,81.14 38.05,0 73.02,-6.17 104.86,-18.51 1.04,-0.4 2.16,-0.64 3.1,-1.23 85.55,-52.74 158.55,-26.22 224.94,42.04 -86.4,92.9 -195.72,139.36 -327.33,139.36 -131.92,0 -243.41,-41.81 -334.45,-125.42 -90.74,-84.85 -135.95,-193.86 -135.95,-327.33 0,-133.47 44.59,-242.17 133.47,-325.78 89.19,-83.62 200.06,-125.73 333.22,-126.35z"/>
    <path class="fil0" d="M3905.15 453.52c133.78,0 243.41,46.76 329.19,139.97 -56.87,75.25 -129.86,97.75 -226.25,43.62 -1.52,-0.85 -3.29,-1.21 -4.94,-1.79 -31.14,-10.95 -65.06,-16.43 -101.71,-16.43 -81.44,0 -150.82,26.32 -207.79,79.28 -57.29,52.03 -86.09,121.09 -86.09,207.49 0,86.09 29.11,156.08 87.02,209.96 58.22,54.2 127.59,81.14 208.72,81.14 35.44,0 68.21,-5.35 98.27,-16.06 1.22,-0.43 2.46,-0.8 3.63,-1.33 97.75,-43.85 171.58,-21.88 231,39.69 -86.4,92.9 -195.72,139.36 -327.33,139.36 -131.92,0 -243.41,-41.81 -334.45,-125.42 -90.74,-84.85 -135.95,-193.86 -135.95,-327.33 0,-133.47 44.59,-242.17 133.47,-325.78 89.19,-83.62 200.05,-125.73 333.22,-126.35z"/>
    <path class="fil0" d="M6790.79 903.48c0,38.4 -0.62,60.39 -1.86,66.58l-704.21 0c8.36,69.99 39.33,127.9 92.6,174.05 51.4,42.42 109.01,63.79 173.11,63.79 70.27,0 134.99,-14.1 187.13,-49.94 0.89,-0.62 1.87,-1.12 2.65,-1.85 70.3,-65.24 143.59,-65.54 218.69,-26.55 -35.61,73.09 -89.5,129.45 -161.66,169.09 -71.84,39.94 -151.12,59.77 -237.53,59.77 -124.18,0 -230.09,-41.81 -318.35,-125.73 -83.92,-83.93 -125.73,-193.86 -125.73,-329.19 0,-135.64 41.81,-244.34 125.11,-326.4 83.62,-81.76 189.22,-122.94 317.43,-123.56 128.2,0 231.64,41.5 310.3,124.18 81.44,82.37 122.32,191.07 122.32,325.78zm-253.32 -237.21c-48.31,-41.5 -108.39,-62.25 -179.61,-62.25 -71.54,0 -132.85,20.75 -184.26,62.25 -50.79,44.28 -80.51,101.88 -88.88,171.87l537.92 0c-8.36,-69.99 -36.86,-127.59 -85.16,-171.87z"/>
    <path class="fil0" d="M7051.42 871.9l0 467.93c-124.35,0.77 -169.08,-7.44 -169.08,-133.25l0 -734.48c104.87,-1.28 167.37,10.86 169.08,90.74l0 39.64c24.77,-48.31 61.93,-85.48 111.79,-110.87 49.55,-25.39 102.81,-38.09 159.49,-38.09 109.01,0 191.07,33.45 246.51,100.65 57.91,65.96 87.33,160.72 87.95,283.98l0 393.58c-0.19,76.52 -42.36,110.51 -169.08,108.1l0 -490.54c0,-73.08 -17.34,-129.45 -51.72,-168.78 -33.45,-41.19 -82.68,-61.63 -148.03,-61.63 -65.96,0 -122.02,21.36 -167.85,64.41 -46.14,42.74 -69.06,105.91 -69.06,188.6z"/>
    <path class="fil0" d="M8076.02 292.41l0 179.69 49.85 0c93.37,-1.24 130.81,43.93 132.24,150.5l-182.09 0 0 717.22c-105.98,1.06 -164.36,-25.72 -169.08,-141.8l0 -575.43 -31.73 0c-113.49,-1.19 -122.33,-72.91 -124.35,-150.5l156.08 0 0 -317.73c105.47,-2.25 163.33,29.48 169.08,138.04z"/>
   </g>
   <g>
    <polygon class="fil1" points="743.55,366.18 507.58,657.74 254.2,378.31 498,80.82 "/>
    <polygon class="fil1" points="290.6,1017.5 794.4,416.65 1012.46,678.72 935.19,772.22 498.63,1277.6 "/>
    <polygon class="fil1" points="204.3,428.2 456.87,709.03 241.83,968.93 -0,678.26 "/>
   </g>
   <path class="fil1" d="M598.12 0c338.73,0 760.28,228.17 760.28,670.32 0,480.11 -358.47,688.08 -760.28,688.08l572.51 -672.64 -572.51 -685.76z"/>
  </g>
 </g>
</svg>
