<?xml version="1.0" encoding="UTF-8"?>
<!DOCTYPE svg PUBLIC "-//W3C//DTD SVG 1.1//EN" "http://www.w3.org/Graphics/SVG/1.1/DTD/svg11.dtd">
<!-- Creator: CorelDRAW 2018 (64-Bit Evaluation Version) -->
<svg xmlns="http://www.w3.org/2000/svg" xml:space="preserve" width="60.6206mm" height="11.9062mm" version="1.1" style="shape-rendering:geometricPrecision; text-rendering:geometricPrecision; image-rendering:optimizeQuality; fill-rule:evenodd; clip-rule:evenodd"
viewBox="0 0 1795.98 352.74"
 xmlns:xlink="http://www.w3.org/1999/xlink">
 <defs>
  <style type="text/css">
   <![CDATA[
    .fil1 {fill:#3D4852}
    .fil0 {fill:#3D4852;fill-rule:nonzero}
   ]]>
  </style>
 </defs>
 <g id="Layer_x0020_1">
  <metadata id="CorelCorpID_0Corel-Layer"/>
  <g id="_2286731165680">
   <path class="fil0" d="M366.5 142.04c-10.62,10.56 -15.96,24.61 -15.96,42.23 0,17.55 5.65,31.24 16.88,41.06 11.29,9.82 24.61,14.73 40.08,14.73 15.47,0 28.66,-5.16 39.52,-15.47 10.31,-10.25 15.47,-23.75 15.47,-40.51 0,-16.76 -5.4,-30.56 -16.2,-41.31 -10.86,-10.74 -24.25,-16.2 -40.02,-16.33 -15.84,-0.12 -29.09,5.1 -39.77,15.59zm-16.32 -44.86l0 27.06c5.64,-9.63 13.81,-17.06 24.61,-22.22 10.56,-5.71 22.34,-8.53 35.41,-8.53 24,0 44.31,8.35 60.89,25.1 16.63,16.57 24.92,38.18 24.92,64.75 0,26.58 -8.22,48.12 -24.74,64.69 -16.45,16.51 -36.83,24.79 -61.07,24.79 -13.07,0 -25.04,-2.58 -35.97,-7.73 -10.86,-5.16 -18.9,-12.4 -24.06,-21.6l0 77.78c0.56,19.95 -12.22,31.14 -33.51,31.47l0 -229.41c0.25,-22.39 15.08,-26.94 33.51,-26.15z"/>
   <path class="fil0" d="M1746.15 225.62c10.62,-10.56 15.96,-24.61 15.96,-42.23 0,-17.55 -5.65,-31.24 -16.88,-41.06 -11.29,-9.82 -24.61,-14.73 -40.08,-14.73 -15.47,0 -28.66,5.16 -39.52,15.47 -10.31,10.25 -15.47,23.75 -15.47,40.51 0,16.76 5.4,30.56 16.2,41.31 10.86,10.74 24.25,16.2 40.02,16.33 15.84,0.12 29.09,-5.1 39.77,-15.59zm16.32 44.86l0 -27.06c-5.65,9.63 -13.81,17.06 -24.61,22.22 -10.56,5.71 -22.34,8.53 -35.41,8.53 -24,0 -44.32,-8.35 -60.89,-25.1 -16.63,-16.57 -24.92,-38.18 -24.92,-64.75 0,-26.58 8.22,-48.12 24.74,-64.69 16.45,-16.51 36.83,-24.79 61.07,-24.79 13.07,0 25.04,2.58 35.97,7.73 10.86,5.16 18.9,12.4 24.06,21.6l0 -77.78c-0.56,-19.95 12.22,-31.14 33.51,-31.47l0 229.41c-0.25,22.39 -15.08,26.94 -33.51,26.15z"/>
   <path class="fil0" d="M661.86 225.93c11.04,-10.31 16.57,-24.18 16.57,-41.67 0,-17.49 -5.77,-31.31 -17.25,-41.37 -11.54,-10.07 -25.1,-15.16 -40.69,-15.29 -15.65,0 -28.73,5.22 -39.28,15.65 -10.56,10.31 -15.84,23.81 -15.84,40.63 0,16.76 5.4,30.56 16.2,41.31 10.8,10.8 24.12,16.2 39.96,16.2 15.84,0 29.27,-5.16 40.32,-15.47zm16.98 47.15l-0.05 -28.99c-5.4,9.02 -13.56,16.26 -24.49,21.79 -10.92,5.53 -22.83,8.29 -35.84,8.29 -23.81,0 -44.5,-8.35 -61.99,-25.04 -16.88,-16.63 -25.35,-38.24 -25.35,-64.69 0,-26.51 8.35,-48.05 24.98,-64.57 16.69,-16.57 37.5,-24.92 62.42,-25.04 12.46,0 24.49,2.58 35.97,7.73 11.29,5.65 19.4,12.89 24.3,21.79 0.59,-20.31 13.26,-30.91 33.65,-30.5l-0.14 147.44c-0.39,20.04 -12.72,31.08 -33.47,31.79z"/>
   <path class="fil0" d="M1065.17 225.93c11.04,-10.31 16.57,-24.18 16.57,-41.67 0,-17.49 -5.77,-31.31 -17.25,-41.37 -11.54,-10.07 -25.11,-15.16 -40.69,-15.29 -15.65,0 -28.73,5.22 -39.28,15.65 -10.56,10.31 -15.84,23.81 -15.84,40.63 0,16.76 5.4,30.56 16.21,41.31 10.8,10.8 24.12,16.2 39.95,16.2 15.84,0 29.27,-5.16 40.32,-15.47zm16.95 47.15l-0.01 -28.99c-5.4,9.02 -13.56,16.26 -24.49,21.79 -10.92,5.53 -22.83,8.29 -35.84,8.29 -23.81,0 -44.5,-8.35 -61.99,-25.04 -16.88,-16.63 -25.35,-38.24 -25.35,-64.69 0,-26.51 8.35,-48.05 24.98,-64.57 16.69,-16.57 37.5,-24.92 62.42,-25.04 12.46,0 24.49,2.58 35.97,7.73 11.29,5.65 19.4,12.89 24.3,21.79 0.59,-20.31 13.23,-29.67 33.62,-29.25l-0.1 146.19c-0.39,20.04 -12.75,31.08 -33.5,31.79z"/>
   <path class="fil0" d="M1345.29 225.93c11.05,-10.31 16.57,-24.18 16.57,-41.67 0,-17.49 -5.77,-31.31 -17.25,-41.37 -11.54,-10.07 -25.11,-15.16 -40.7,-15.29 -15.65,0 -28.72,5.22 -39.28,15.65 -10.55,10.31 -15.84,23.81 -15.84,40.63 0,16.76 5.4,30.56 16.21,41.31 10.8,10.8 24.12,16.2 39.96,16.2 15.84,0 29.27,-5.16 40.32,-15.47zm17.3 47.15l-0.36 -28.99c-5.4,9.02 -13.56,16.26 -24.49,21.79 -10.92,5.53 -22.83,8.29 -35.84,8.29 -23.81,0 -44.5,-8.35 -61.99,-25.04 -16.88,-16.63 -25.35,-38.24 -25.35,-64.69 0,-26.51 8.35,-48.05 24.98,-64.57 16.69,-16.57 37.5,-24.92 62.42,-25.04 12.46,0 24.49,2.58 35.96,7.73 11.29,5.65 19.39,12.89 24.31,21.79 0.59,-20.31 13.57,-29.67 33.96,-29.25l-0.45 146.19c-0.39,20.04 -12.41,31.08 -33.16,31.79z"/>
   <path class="fil0" d="M783.26 94.08l119.62 0 0 28.54 -108 116.39 108 0c-0.27,18.72 -9.62,32.56 -31.59,33.18l-125.24 0 0 -28.73 105.97 -116.2 -99.81 0c-0.58,-19.45 4.36,-32.67 31.04,-33.18z"/>
   <path class="fil0" d="M1148.5 274.17l0 -243.77c0.06,-20.26 14.53,-28.48 33.34,-29.48l-0.66 247.17c-0.25,17.2 -12.55,26.32 -32.67,26.09z"/>
   <path class="fil0" d="M1461.15 177.1l0 97.02c-19.94,0.88 -32.59,-7.71 -34.35,-30.47l0 -150.45c23.48,-1.9 32.78,11.53 34.35,29.17 5.03,-9.81 12.58,-17.36 22.71,-22.52 10.07,-5.16 20.89,-7.74 32.4,-7.74 22.14,0 38.81,6.79 50.07,20.45 11.76,13.4 17.74,32.65 17.86,57.69l0 73.64c-1.19,20.89 -13.08,30.51 -34.35,30.23l0 -101.6c0,-14.85 -3.52,-26.3 -10.51,-34.29 -6.79,-8.37 -16.8,-12.52 -30.07,-12.52 -13.4,0 -24.79,4.34 -34.1,13.08 -9.37,8.68 -14.03,21.52 -14.03,38.31z"/>
   <g>
    <path class="fil1" d="M170.48 3.81c-85.7,-18.15 -160.36,30.01 -169.87,114.12 79.78,13.11 152.89,-34.79 169.87,-114.12z"/>
    <path class="fil1" d="M137.04 222.88c-12.35,-71.41 -77.21,-102.61 -137.04,-91.77 16.21,64.43 70.48,103.57 137.04,91.77z"/>
    <path class="fil1" d="M112.68 348.93c85.7,18.15 160.36,-30.01 169.87,-114.12 -79.78,-13.11 -152.89,34.79 -169.87,114.12z"/>
    <path class="fil1" d="M145.49 130.35c12.35,71.41 77.21,102.61 137.04,91.77 -16.21,-64.43 -70.48,-103.57 -137.04,-91.77z"/>
   </g>
  </g>
 </g>
</svg>
