<?xml version="1.0" encoding="UTF-8"?>
<!DOCTYPE svg PUBLIC "-//W3C//DTD SVG 1.1//EN" "http://www.w3.org/Graphics/SVG/1.1/DTD/svg11.dtd">
<!-- Creator: CorelDRAW 2018 (64-Bit Evaluation Version) -->
<svg xmlns="http://www.w3.org/2000/svg" xml:space="preserve" width="61.1512mm" height="12.0896mm" version="1.1" style="shape-rendering:geometricPrecision; text-rendering:geometricPrecision; image-rendering:optimizeQuality; fill-rule:evenodd; clip-rule:evenodd"
viewBox="0 0 3818.57 754.93"
 xmlns:xlink="http://www.w3.org/1999/xlink">
 <defs>
  <style type="text/css">
   <![CDATA[
    .str0 {stroke:white;stroke-width:12.49;stroke-miterlimit:22.9256}
    .fil1 {fill:white}
    .fil0 {fill:white;fill-rule:nonzero}
   ]]>
  </style>
 </defs>
 <g id="Layer_x0020_1">
  <metadata id="CorelCorpID_0Corel-Layer"/>
  <g id="_2685605883808">
   <path class="fil0" d="M694.85 300.37c-22.64,22.52 -34.03,52.49 -34.03,90.05 0,37.44 12.04,66.62 35.99,87.57 24.08,20.94 52.48,31.41 85.47,31.41 32.98,0 61.12,-10.99 84.29,-32.98 21.99,-21.86 32.99,-50.65 32.99,-86.38 0,-35.74 -11.52,-65.19 -34.56,-88.09 -23.17,-22.9 -51.7,-34.56 -85.34,-34.82 -33.77,-0.26 -62.05,10.87 -84.82,33.25zm-34.82 -95.68l0 57.72c12.05,-20.55 29.45,-36.39 52.48,-47.38 22.52,-12.17 47.65,-18.2 75.53,-18.2 51.17,0 94.5,17.8 129.84,53.53 35.47,35.34 53.14,81.42 53.14,138.09 0,56.67 -17.54,102.62 -52.75,137.96 -35.08,35.21 -78.53,52.88 -130.23,52.88 -27.88,0 -53.4,-5.5 -76.7,-16.49 -23.17,-11 -40.31,-26.45 -51.31,-46.07l0 171.35c0.79,44.9 -28.16,61.45 -71.47,61.63l0 -486.34c-0.47,-47.48 30.9,-59.8 71.47,-58.68z"/>
   <path class="fil0" d="M1316.18 476.41c23.56,-21.99 35.34,-51.57 35.34,-88.87 0,-37.3 -12.31,-66.75 -36.78,-88.22 -24.61,-21.46 -53.54,-32.33 -86.79,-32.59 -33.38,0 -61.25,11.13 -83.77,33.38 -22.51,21.99 -33.76,50.78 -33.76,86.64 0,35.74 11.51,65.19 34.55,88.09 23.04,23.04 51.44,34.55 85.21,34.55 33.77,0 62.43,-10.99 85.99,-32.98zm36.12 95.03l0 -56.28c-11.51,19.24 -28.92,34.68 -52.22,46.47 -23.3,11.78 -48.69,17.67 -76.44,17.67 -50.79,0 -94.9,-17.8 -132.2,-53.4 -35.99,-35.47 -54.06,-81.55 -54.06,-137.96 0,-56.54 17.8,-102.48 53.27,-137.7 35.61,-35.34 79.98,-53.14 133.12,-53.4 26.57,0 52.22,5.5 76.69,16.49 24.09,12.05 41.36,27.49 51.84,46.47 0.87,-39.86 29.14,-54.07 71.47,-55.1l0 308.4c-1.94,46.4 -28.28,62.74 -71.47,58.35z"/>
   <path class="fil0" d="M1573.13 204.69l249.95 0 0 60.2 -227.79 245.49 155.52 0c43.88,0.75 71.33,20.26 72.27,69.99l-330.76 0 0 -60.6 223.5 -245.08 -210.49 0c0.44,-44.82 24.17,-67.05 67.8,-69.99z"/>
   <path class="fil0" d="M2168.14 476.41c23.56,-21.99 35.34,-51.57 35.34,-88.87 0,-37.3 -12.31,-66.75 -36.78,-88.22 -24.61,-21.46 -53.54,-32.33 -86.79,-32.59 -33.38,0 -61.25,11.13 -83.77,33.38 -22.51,21.99 -33.76,50.78 -33.76,86.64 0,35.74 11.51,65.19 34.55,88.09 23.04,23.04 51.44,34.55 85.21,34.55 33.76,0 62.43,-10.99 85.99,-32.98zm36.12 95.03l0 -56.28c-11.51,19.24 -28.92,34.68 -52.22,46.47 -23.3,11.78 -48.69,17.67 -76.44,17.67 -50.79,0 -94.9,-17.8 -132.2,-53.4 -35.99,-35.47 -54.06,-81.55 -54.06,-137.96 0,-56.54 17.8,-102.48 53.27,-137.7 35.61,-35.34 79.98,-53.14 133.12,-53.4 26.56,0 52.22,5.5 76.69,16.49 24.09,12.05 41.36,27.49 51.84,46.47 5.19,-44.82 31.65,-59.45 71.47,-55.1l0 310.21c-0.78,40.11 -24.66,58.92 -71.47,56.54z"/>
   <path class="fil0" d="M2396.64 223.67c24.47,-17.93 54.05,-26.84 88.87,-26.84 34.68,0 63.48,8.9 86.12,26.71 22.77,17.8 35.73,43.19 38.75,76.18l-68.2 0c-2.1,-11.91 -8.38,-21.47 -18.85,-28.67 -11.52,-7.07 -24.22,-10.6 -38.35,-10.6 -14.01,0 -25.91,3 -35.6,9.03 -10.47,4.71 -17.02,12.96 -19.89,24.47 -2.75,11.52 -2.36,20.68 1.17,27.49 5.89,11.78 20.29,20.94 43.19,27.49l54.06 13.22c63.48,15.57 95.16,51.3 95.16,107.2 0,33.11 -13.74,59.82 -41.36,80.36 -27.88,19.76 -60.47,29.59 -97.78,29.59 -37.44,0 -69.89,-10.73 -97.51,-32.33 -27.61,-21.46 -41.62,-50 -42.14,-85.73l67.54 0c3.01,18.98 12.7,32.98 29.19,41.89 15.97,10.07 33.25,14.52 51.84,13.48 18.58,-1.05 32.98,-6.03 43.19,-14.92 10.21,-9.04 15.97,-19.89 17.28,-32.72 1.04,-12.83 -2.88,-23.04 -11.91,-30.76 -8.9,-7.72 -21.21,-13.35 -36.78,-16.89l-50.26 -11.65c-35.47,-9.55 -61.65,-23.55 -78.4,-42.28 -16.1,-19.37 -22.77,-43.59 -19.89,-72.77 2.75,-29.19 16.36,-52.75 40.58,-70.94z"/>
   <path class="fil0" d="M3259.31 477.06c22.9,-22.51 34.43,-52.09 34.43,-88.74 0,-36.78 -11.52,-66.1 -34.43,-88.09 -22.9,-22.12 -51.44,-33.25 -85.61,-33.51 -34.03,0 -62.69,11 -85.86,33.12 -23.43,22.25 -35.21,51.57 -35.21,88.08 0,36.39 11.52,65.97 34.43,88.74 22.9,22.9 51.57,34.29 85.99,34.29 34.55,0 63.35,-11.26 86.25,-33.9zm-85.86 102.23c-53.4,0 -98.69,-17.67 -136.13,-53.01 -37.43,-35.34 -56.15,-81.42 -56.15,-138.35 0,-56.94 18.46,-103.14 55.24,-138.48 36.78,-35.34 82.2,-52.88 136.39,-52.62 54.45,0 100,17.67 136.78,53.02 37.04,35.6 55.63,81.67 55.63,138.08 0,56.41 -18.58,102.35 -55.76,137.96 -37.17,35.6 -82.59,53.4 -135.99,53.4z"/>
   <path class="fil0" d="M3542.39 300.37c-22.64,22.52 -34.03,52.49 -34.03,90.05 0,37.44 12.04,66.62 35.99,87.57 24.08,20.94 52.48,31.41 85.47,31.41 32.99,0 61.13,-10.99 84.29,-32.98 21.99,-21.86 32.98,-50.65 32.98,-86.38 0,-35.74 -11.51,-65.19 -34.56,-88.09 -23.17,-22.9 -51.7,-34.56 -85.34,-34.82 -33.77,-0.26 -62.04,10.87 -84.82,33.25zm-34.81 -95.68l0 57.72c12.04,-20.55 29.45,-36.39 52.48,-47.38 22.52,-12.17 47.65,-18.2 75.53,-18.2 51.17,0 94.5,17.8 129.84,53.53 35.47,35.34 53.14,81.42 53.14,138.09 0,56.67 -17.54,102.62 -52.75,137.96 -35.08,35.21 -78.54,52.88 -130.23,52.88 -27.88,0 -53.4,-5.5 -76.71,-16.49 -23.17,-11 -40.31,-26.45 -51.3,-46.07l0 171.38c-1.16,40.74 -21.83,61.42 -71.47,61.6l0 -484.25c0,-45.34 32.88,-61.07 71.47,-60.77z"/>
   <path class="fil0" d="M2837.29 60l0 138.25 0 65.49 0 250.13c-0.86,37.13 -21.54,61.95 -73.58,61.95l0 -312.08 0 -65.49 0 -81.45c-0.18,-44.85 30.82,-57 73.58,-56.8z"/>
   <path class="fil1 str0" d="M50.49 263.26l315.72 240.31 -33.89 8.41c-91.09,22.6 -185.97,-1.84 -252.18,-69.01 -47.39,-48.08 -73.63,-112.06 -73.9,-179.56 -0.67,-168.89 160.57,-289.4 322.97,-249.52l33.74 8.29 -312.46 241.07z"/>
   <path class="fil1 str0" d="M466.72 491.76l-312.46 -241.07 33.74 -8.29c162.4,-39.88 323.64,80.62 322.97,249.52 -0.27,67.5 -26.52,131.48 -73.92,179.57 -66.21,67.17 -161.08,91.61 -252.16,69l-33.89 -8.41 315.73 -240.31z"/>
   <path class="fil0" d="M2836.69 200.36l19.62 0c46.67,1.56 61.26,17.62 60.9,66.55l-80.52 0 -74.77 0c-57,1 -66.18,-24.85 -69.01,-66.55l69.01 0 74.77 0z"/>
  </g>
 </g>
</svg>
