<?xml version="1.0" encoding="UTF-8"?>
<!DOCTYPE svg PUBLIC "-//W3C//DTD SVG 1.1//EN" "http://www.w3.org/Graphics/SVG/1.1/DTD/svg11.dtd">
<!-- Creator: CorelDRAW 2018 (64-Bit Evaluation Version) -->
<svg xmlns="http://www.w3.org/2000/svg" xml:space="preserve" width="126.574mm" height="25.5916mm" version="1.1" style="shape-rendering:geometricPrecision; text-rendering:geometricPrecision; image-rendering:optimizeQuality; fill-rule:evenodd; clip-rule:evenodd"
viewBox="0 0 6156.78 1244.82"
 xmlns:xlink="http://www.w3.org/1999/xlink">
 <defs>
  <style type="text/css">
   <![CDATA[
    .fil0 {fill:#00C2FF}
    .fil1 {fill:#00C2FF;fill-rule:nonzero}
   ]]>
  </style>
 </defs>
 <g id="Layer_x0020_1">
  <metadata id="CorelCorpID_0Corel-Layer"/>
  <g id="_2350975349456">
   <g>
    <path class="fil0" d="M85.44 434.86l518.49 394.65 -55.66 13.81c-149.59,37.12 -305.4,-3.02 -414.14,-113.33 -77.83,-78.96 -120.93,-184.03 -121.37,-294.88 -1.11,-277.36 263.7,-475.26 530.39,-409.76l55.4 13.61 -513.13 395.9z"/>
    <path id="1" class="fil1" d="M596.19 839.67l-518.49 -394.65 15.48 -20.33 518.49 394.65 -4.66 22.56 -10.82 -2.23zm15.48 -20.33l21.21 16.14 -25.87 6.42 4.66 -22.56zm-66.47 11.58l55.66 -13.81 6.16 24.8 -55.66 13.81 0 0 -6.16 -24.8zm-420.15 -91.97l18.19 -17.93 0 0 10.03 9.84 10.28 9.44 10.53 9.03 10.77 8.63 10.99 8.22 11.22 7.82 11.42 7.41 11.63 7 11.82 6.6 12 6.18 12.18 5.77 12.33 5.37 12.49 4.94 12.63 4.53 12.77 4.12 12.9 3.7 13.01 3.28 13.13 2.86 13.22 2.44 13.31 2.02 13.4 1.59 13.46 1.16 13.53 0.74 13.58 0.31 13.61 -0.12 13.65 -0.55 13.68 -0.98 13.69 -1.42 13.7 -1.85 13.69 -2.29 13.68 -2.72 13.65 -3.17 6.16 24.8 -14.43 3.34 -14.46 2.88 -14.48 2.42 -14.49 1.96 -14.49 1.5 -14.48 1.04 -14.45 0.58 -14.43 0.13 -14.38 -0.33 -14.33 -0.78 -14.27 -1.24 -14.2 -1.69 -14.13 -2.14 -14.03 -2.59 -13.93 -3.04 -13.82 -3.48 -13.7 -3.93 -13.56 -4.37 -13.42 -4.82 -13.27 -5.25 -13.11 -5.7 -12.92 -6.13 -12.75 -6.57 -12.55 -7 -12.35 -7.44 -12.14 -7.88 -11.91 -8.3 -11.68 -8.74 -11.43 -9.16 -11.18 -9.59 -10.91 -10.01 -10.63 -10.44 0 0zm-125.04 -303.79l25.55 -0.11 0 0 0.16 10.07 0.4 10.03 0.64 9.99 0.89 9.94 1.11 9.9 1.35 9.84 1.59 9.79 1.82 9.73 2.05 9.67 2.28 9.6 2.51 9.53 2.73 9.46 2.96 9.39 3.18 9.31 3.4 9.22 3.63 9.13 3.85 9.05 4.07 8.95 4.28 8.85 4.5 8.75 4.71 8.64 4.92 8.54 5.13 8.42 5.35 8.31 5.55 8.19 5.76 8.07 5.97 7.94 6.17 7.8 6.38 7.68 6.58 7.54 6.78 7.4 6.98 7.25 -18.19 17.93 -7.41 -7.7 -7.2 -7.86 -6.98 -8 -6.78 -8.15 -6.56 -8.3 -6.34 -8.44 -6.12 -8.57 -5.91 -8.7 -5.68 -8.82 -5.46 -8.95 -5.23 -9.07 -5.01 -9.19 -4.78 -9.3 -4.55 -9.41 -4.32 -9.51 -4.09 -9.61 -3.85 -9.7 -3.62 -9.8 -3.39 -9.89 -3.15 -9.97 -2.9 -10.05 -2.67 -10.13 -2.42 -10.21 -2.17 -10.27 -1.94 -10.34 -1.68 -10.39 -1.44 -10.45 -1.18 -10.51 -0.93 -10.56 -0.69 -10.6 -0.42 -10.65 -0.17 -10.68 0 0zm546.21 -422.22l-6.09 24.81 0 0 -24.27 -5.22 -24.2 -3.75 -24.08 -2.32 -23.94 -0.91 -23.73 0.45 -23.48 1.78 -23.2 3.09 -22.86 4.35 -22.47 5.59 -22.04 6.8 -21.56 7.96 -21.04 9.11 -20.47 10.21 -19.84 11.28 -19.17 12.32 -18.46 13.33 -17.7 14.3 -16.89 15.24 -16.03 16.14 -15.12 17.02 -14.17 17.86 -13.17 18.67 -12.13 19.44 -11.04 20.18 -9.9 20.89 -8.72 21.57 -7.5 22.22 -6.22 22.82 -4.89 23.42 -3.53 23.98 -2.12 24.5 -0.65 25 -25.55 0.11 0.69 -26.53 2.24 -26.03 3.75 -25.49 5.21 -24.91 6.62 -24.3 7.97 -23.65 9.28 -22.96 10.54 -22.23 11.75 -21.48 12.9 -20.68 14.01 -19.85 15.05 -18.98 16.07 -18.08 17.02 -17.15 17.92 -16.17 18.78 -15.18 19.59 -14.14 20.34 -13.07 21.05 -11.97 21.7 -10.83 22.31 -9.66 22.88 -8.45 23.39 -7.2 23.85 -5.93 24.25 -4.62 24.63 -3.27 24.92 -1.89 25.19 -0.48 25.4 0.97 25.56 2.46 25.66 3.98 25.71 5.53 0 0zm49.31 38.41l-55.4 -13.61 6.09 -24.81 55.4 13.61 4.76 22.52 -10.85 2.29zm6.09 -24.81l25.75 6.32 -20.99 16.19 -4.76 -22.52zm-523.98 398.2l513.13 -395.9 15.6 20.23 -513.13 395.9 -15.54 0.05 -0.06 -20.28zm0.06 20.28l-13.26 -10.09 13.2 -10.19 0.06 20.28z"/>
   </g>
   <g>
    <path class="fil0" d="M768.99 810.11l-513.13 -395.9 55.4 -13.61c266.7,-65.5 531.5,132.4 530.4,409.76 -0.44,110.86 -43.55,215.94 -121.39,294.9 -108.73,110.3 -264.54,150.44 -414.12,113.32l-55.66 -13.81 518.49 -394.65z"/>
    <path id="1" class="fil1" d="M263.66 404.1l513.13 395.9 -15.6 20.23 -513.13 -395.9 4.76 -22.52 10.85 2.29zm-15.6 20.23l-20.99 -16.19 25.75 -6.32 -4.76 22.52zm66.25 -11.31l-55.4 13.61 -6.09 -24.81 55.4 -13.61 6.09 24.81zm540.13 397.41l-25.55 -0.1 0 0 -0.65 -25.01 -2.12 -24.5 -3.53 -23.98 -4.89 -23.42 -6.22 -22.82 -7.5 -22.22 -8.72 -21.57 -9.9 -20.89 -11.04 -20.19 -12.13 -19.44 -13.17 -18.66 -14.17 -17.86 -15.12 -17.02 -16.03 -16.14 -16.89 -15.24 -17.7 -14.3 -18.46 -13.33 -19.17 -12.32 -19.84 -11.28 -20.47 -10.21 -21.04 -9.11 -21.56 -7.96 -22.04 -6.8 -22.47 -5.59 -22.86 -4.35 -23.2 -3.09 -23.48 -1.78 -23.73 -0.45 -23.94 0.91 -24.08 2.32 -24.2 3.75 -24.27 5.22 -6.09 -24.81 25.71 -5.53 25.66 -3.98 25.56 -2.46 25.4 -0.97 25.19 0.48 24.92 1.89 24.63 3.27 24.25 4.62 23.85 5.93 23.39 7.2 22.88 8.45 22.31 9.66 21.7 10.83 21.05 11.97 20.34 13.07 19.59 14.14 18.78 15.18 17.92 16.17 17.02 17.15 16.07 18.08 15.06 18.98 14.01 19.85 12.89 20.68 11.75 21.47 10.54 22.23 9.29 22.96 7.97 23.65 6.62 24.3 5.21 24.91 3.75 25.49 2.24 26.03 0.69 26.52 0 0zm-125.06 303.82l-18.19 -17.94 0 0 6.98 -7.25 6.78 -7.41 6.59 -7.54 6.38 -7.67 6.17 -7.81 5.97 -7.94 5.76 -8.06 5.55 -8.19 5.35 -8.31 5.13 -8.42 4.93 -8.54 4.71 -8.64 4.5 -8.75 4.28 -8.85 4.07 -8.95 3.85 -9.05 3.63 -9.13 3.4 -9.23 3.18 -9.3 2.96 -9.39 2.74 -9.46 2.51 -9.53 2.28 -9.61 2.05 -9.67 1.81 -9.73 1.59 -9.79 1.35 -9.85 1.12 -9.89 0.88 -9.95 0.64 -9.99 0.4 -10.03 0.16 -10.07 25.55 0.1 -0.17 10.68 -0.42 10.65 -0.69 10.6 -0.93 10.56 -1.19 10.51 -1.44 10.46 -1.68 10.39 -1.93 10.34 -2.18 10.28 -2.42 10.2 -2.67 10.13 -2.9 10.05 -3.15 9.97 -3.39 9.88 -3.62 9.8 -3.85 9.71 -4.09 9.61 -4.32 9.51 -4.55 9.41 -4.78 9.3 -5.01 9.19 -5.23 9.07 -5.46 8.95 -5.68 8.83 -5.91 8.7 -6.12 8.57 -6.34 8.43 -6.56 8.3 -6.78 8.16 -6.98 8.01 -7.2 7.86 -7.41 7.7 0 0zm-426.3 116.74l6.16 -24.8 0 0 13.65 3.17 13.68 2.72 13.69 2.29 13.7 1.85 13.69 1.42 13.68 0.98 13.65 0.55 13.61 0.12 13.58 -0.31 13.52 -0.74 13.46 -1.16 13.4 -1.59 13.31 -2.02 13.22 -2.44 13.13 -2.86 13.01 -3.28 12.89 -3.7 12.77 -4.12 12.63 -4.53 12.49 -4.95 12.34 -5.36 12.17 -5.77 12 -6.18 11.82 -6.6 11.63 -7 11.42 -7.41 11.22 -7.82 10.99 -8.22 10.77 -8.63 10.53 -9.02 10.28 -9.44 10.03 -9.84 18.19 17.94 -10.63 10.43 -10.91 10.01 -11.18 9.59 -11.43 9.16 -11.68 8.74 -11.91 8.3 -12.14 7.88 -12.35 7.44 -12.55 7 -12.75 6.57 -12.93 6.13 -13.1 5.7 -13.27 5.25 -13.42 4.82 -13.56 4.37 -13.69 3.93 -13.82 3.48 -13.93 3.04 -14.03 2.58 -14.12 2.14 -14.2 1.69 -14.27 1.24 -14.33 0.78 -14.38 0.33 -14.43 -0.13 -14.45 -0.58 -14.48 -1.04 -14.49 -1.5 -14.49 -1.96 -14.48 -2.42 -14.46 -2.88 -14.43 -3.34 0 0zm-49.5 -38.61l55.66 13.81 -6.16 24.8 -55.66 -13.81 -4.66 -22.56 10.82 -2.23zm-6.16 24.8l-25.87 -6.42 21.21 -16.14 4.66 22.56zm529.31 -396.88l-518.49 394.65 -15.48 -20.33 518.49 -394.65 15.54 0.05 -0.06 20.28zm0.06 -20.28l13.2 10.19 -13.26 10.09 0.06 -20.28z"/>
   </g>
  </g>
  <path class="fil1" d="M1245.44 497.8c-37.09,36.87 -55.74,85.96 -55.74,147.48 0,61.31 19.72,109.12 58.96,143.42 39.44,34.29 85.96,51.44 139.98,51.44 54.02,0 100.11,-18.01 138.05,-54.02 36.01,-35.8 54.02,-82.96 54.02,-141.48 0,-58.53 -18.86,-106.75 -56.59,-144.27 -37.94,-37.51 -84.68,-56.59 -139.77,-57.02 -55.31,-0.43 -101.61,17.8 -138.91,54.45zm-57.02 -156.7l0 94.54c19.72,-33.66 48.23,-59.6 85.96,-77.6 36.87,-19.94 78.03,-29.8 123.69,-29.8 83.81,0 154.77,29.16 212.65,87.68 58.09,57.88 87.04,133.34 87.04,226.15 0,92.83 -28.73,168.07 -86.4,225.95 -57.45,57.66 -128.62,86.6 -213.29,86.6 -45.66,0 -87.46,-9 -125.62,-27.01 -37.94,-18.01 -66.02,-43.3 -84.03,-75.46l0 271.67c1.95,69.69 -42.68,108.77 -117.05,109.91l0 -801.27c0.88,-78.22 52.68,-94.1 117.05,-91.36z"/>
  <path class="fil1" d="M2277.05 800.2c38.59,-36.01 57.88,-84.46 57.88,-145.56 0,-61.09 -20.16,-109.33 -60.24,-144.48 -40.3,-35.16 -87.68,-52.95 -142.13,-53.38 -54.66,0 -100.32,18.22 -137.19,54.67 -36.88,36.01 -55.31,83.17 -55.31,141.9 0,58.53 18.86,106.75 56.59,144.27 37.74,37.73 84.25,56.59 139.56,56.59 55.31,0 102.25,-18.01 140.84,-54.02zm59.16 155.63l0 -92.18c-18.86,31.51 -47.37,56.81 -85.53,76.1 -38.16,19.3 -79.75,28.95 -125.19,28.95 -83.17,0 -155.42,-29.16 -216.51,-87.47 -58.95,-58.09 -88.54,-133.55 -88.54,-225.94 0,-92.6 29.16,-167.85 87.25,-225.51 58.3,-57.88 130.98,-87.03 218.01,-87.46 43.51,0 85.53,9 125.61,27.01 39.44,19.72 67.74,45.02 84.89,76.1 2.06,-70.92 45.83,-91.67 117.05,-90.24l0 498.68c-1.36,70.01 -44.58,99.51 -117.05,101.97z"/>
  <path class="fil1" d="M3685.65 800.2c38.59,-36.01 57.88,-84.46 57.88,-145.56 0,-61.09 -20.15,-109.33 -60.24,-144.48 -40.3,-35.16 -87.68,-52.95 -142.13,-53.38 -54.66,0 -100.32,18.22 -137.19,54.67 -36.87,36.01 -55.31,83.17 -55.31,141.9 0,58.53 18.86,106.75 56.59,144.27 37.73,37.73 84.25,56.59 139.56,56.59 55.31,0 102.25,-18.01 140.83,-54.02zm59.17 155.63l0 -92.18c-18.86,31.51 -47.37,56.81 -85.53,76.1 -38.16,19.3 -79.75,28.95 -125.19,28.95 -83.17,0 -155.42,-29.16 -216.51,-87.47 -58.95,-58.09 -88.54,-133.55 -88.54,-225.94 0,-92.6 29.16,-167.85 87.25,-225.51 58.31,-57.88 130.98,-87.03 218.01,-87.46 43.51,0 85.54,9 125.62,27.01 39.44,19.72 67.74,45.02 84.89,76.1 2.05,-70.92 45.83,-91.67 117.05,-90.24l0 498.68c-1.36,70.01 -44.58,99.51 -117.05,101.97z"/>
  <path class="fil1" d="M5505.9 800.2c38.59,-36.01 57.88,-84.46 57.88,-145.56 0,-61.09 -20.16,-109.33 -60.24,-144.48 -40.3,-35.16 -87.68,-52.95 -142.13,-53.38 -54.66,0 -100.33,18.22 -137.19,54.67 -36.88,36.01 -55.31,83.17 -55.31,141.9 0,58.53 18.86,106.75 56.59,144.27 37.73,37.73 84.25,56.59 139.55,56.59 55.31,0 102.25,-18.01 140.84,-54.02zm59.17 155.63l0 -92.18c-18.86,31.51 -47.38,56.81 -85.53,76.1 -38.16,19.3 -79.75,28.95 -125.19,28.95 -83.17,0 -155.42,-29.16 -216.5,-87.47 -58.96,-58.09 -88.54,-133.55 -88.54,-225.94 0,-92.6 29.16,-167.85 87.25,-225.51 58.3,-57.88 130.98,-87.03 218.01,-87.46 43.51,0 85.53,9 125.62,27.01 39.44,19.72 67.74,45.02 84.89,76.1 2.05,-70.92 45.82,-91.67 117.05,-90.24l0 498.68c-1.36,70.01 -44.58,99.51 -117.05,101.97z"/>
  <path class="fil1" d="M2701.84 355.18l403.39 0 0 96.25 -364.21 392.5 364.21 0c-0.92,63.14 -32.44,109.78 -106.52,111.9l-422.33 0 0 -96.89 357.35 -391.86 -336.56 0c-1.96,-65.59 14.69,-110.18 104.66,-111.9z"/>
  <path class="fil1" d="M4513.69 639.04l0 323.05c-71.34,3.07 -115.3,-13.3 -117.04,-99.01l0 -240.98c0,-49.73 -12,-88.1 -35.8,-115.33 -22.94,-28.3 -56.59,-42.44 -100.54,-42.44 -43.51,0 -81.25,14.79 -112.98,44.37 -31.93,29.58 -47.8,73.1 -47.8,130.34l0 224.65c-0.83,73.44 -47.43,96.21 -117.05,98.4l0 -496.27c0.54,-72.08 47.13,-102.72 117.05,-104.39l0 91.32c13.93,-28.72 36.66,-52.3 68.59,-70.53 33.44,-18.22 63.89,-28.09 91.11,-29.8 115.54,-7.08 192.07,33.44 229.37,121.33 41.8,-83.39 110.83,-125.19 207.51,-125.19 75.25,0 132.48,23.15 171.5,69.67 40.09,45.66 60.24,111.26 60.24,196.58l0 347.28c-69.47,-0.69 -116.12,-25.28 -117.04,-97.17l0 -241.53c0,-48.88 -12.22,-87.68 -36.45,-116.62 -26.15,-28.3 -61.52,-42.66 -105.89,-43.09 -44.16,-0.42 -81.03,15.44 -110.19,47.59 -29.37,32.16 -44.16,74.6 -44.59,127.76z"/>
  <path class="fil1" d="M5805.19 956.8l0 -842.72c0.38,-60.24 50.74,-99.48 116.43,-102.99l0 828.95c0.11,67.36 -46.14,117.57 -116.43,116.76z"/>
  <path class="fil1" d="M6040.34 956.8l0 -842.72c0.38,-60.24 50.74,-99.48 116.43,-102.99l0 828.95c0.11,67.36 -46.14,117.57 -116.43,116.76z"/>
 </g>
</svg>
