<?xml version="1.0" encoding="UTF-8"?>
<!DOCTYPE svg PUBLIC "-//W3C//DTD SVG 1.1//EN" "http://www.w3.org/Graphics/SVG/1.1/DTD/svg11.dtd">
<!-- Creator: CorelDRAW 2018 (64-Bit Evaluation Version) -->
<svg xmlns="http://www.w3.org/2000/svg" xml:space="preserve" width="144.763mm" height="23.8126mm" version="1.1" style="shape-rendering:geometricPrecision; text-rendering:geometricPrecision; image-rendering:optimizeQuality; fill-rule:evenodd; clip-rule:evenodd"
viewBox="0 0 8262.34 1359.1"
 xmlns:xlink="http://www.w3.org/1999/xlink">
 <defs>
  <style type="text/css">
   <![CDATA[
    .fil3 {fill:#1D9CD3}
    .fil2 {fill:#F56F45}
    .fil0 {fill:#3D4852;fill-rule:nonzero}
    .fil1 {fill:#F56F45;fill-rule:nonzero}
   ]]>
  </style>
 </defs>
 <g id="Layer_x0020_1">
  <metadata id="CorelCorpID_0Corel-Layer"/>
  <g id="_2128284273456">
   <g>
    <path class="fil0" d="M1779.06 695.43c-57.94,51.43 -87.07,121.46 -87.07,209.76 0,88.31 27.89,158.33 83.35,210.38 55.77,52.05 123.62,78.08 203.26,78.08 79.94,0 146.86,-27.26 200.46,-81.8 54.53,-54.22 81.8,-123.62 81.8,-207.59 0,-84.28 -26.96,-152.76 -80.87,-206.05 -53.6,-53.29 -119.29,-79.63 -196.75,-79.01 -77.46,0 -145.63,25.4 -204.18,76.22zm-258.1 645.08l0 -1211.94c-0.83,-95.91 64.83,-131.12 169.17,-128.44l0 602.64c59.18,-99.46 160.81,-149.03 304.88,-149.03 125.49,0 229.9,41.82 313.24,125.49 83.66,82.72 125.49,191.48 125.49,325.95 0,134.17 -43.38,243.54 -129.82,327.5 -86.76,84.28 -190.25,126.42 -310.77,126.42 -64.14,0 -123.94,-13.94 -179.71,-41.83 -55.46,-27.89 -96.67,-64.44 -123.32,-109.99 -0.17,110.53 -62.61,135.71 -169.17,133.24z"/>
    <path class="fil0" d="M2702.65 1340.51c-94.61,2.95 -166.86,-21.83 -169.17,-104.74l0 -763.43c111.56,-1.27 168.63,25.51 169.17,116.68l0 79.14c42.45,-142.84 122.7,-214.41 241.36,-214.41 68.48,0 118.67,11.15 150.89,33.15 -24.13,88.85 -71.49,138.01 -153.14,128.58 -0.38,-0.05 -0.77,-0.01 -1.16,-0.01 -76.53,0 -135.09,36.56 -176.3,109.69 -30.59,54.51 -56.74,123.16 -57.58,207.17l-4.08 408.17z"/>
    <path class="fil0" d="M3169.58 1340.51l0 -733.52c0.56,-99.12 64.04,-134.72 169.17,-134.65l0 752.2c-0.42,91.98 -61.02,117.93 -169.17,115.98z"/>
    <path class="fil1" d="M3170.82 230.67c-22,-21.38 -32.84,-47.41 -32.84,-78.08 0,-30.99 10.84,-56.7 32.84,-78.08 24.47,-21.07 52.05,-31.6 83.35,-31.6 31.29,0 58.87,10.23 82.42,30.67 23.86,20.76 35.64,47.1 35.64,79.01 0,31.91 -11.78,58.25 -35.64,79.01 -23.54,20.45 -51.12,30.67 -82.42,30.67 -31.29,0 -58.87,-10.53 -83.35,-31.6z"/>
    <path class="fil0" d="M4301.64 1340.51l0 -1219.85c-0.47,-83.88 79.9,-120.24 169.17,-120.52l0 774.6 238.6 -240.82c73.8,-78.36 165.59,-103.37 291.53,-61.58l-372.12 374.91 461.04 493.26c-113.03,18.53 -212.12,9.92 -279.59,-60.25l-339.46 -363.92 0 300.97c-3.58,77.8 -69.11,120.6 -169.17,123.2z"/>
    <path class="fil0" d="M5539.3 453.75c133.85,0 243.53,46.78 329.36,140.04 -75.42,49.2 -159.63,79.71 -281.88,29.24 -0.49,-0.2 -1.07,-0.17 -1.6,-0.24 -15.92,-2.39 -32.46,-3.59 -49.59,-3.59 -81.49,0 -150.89,26.33 -207.9,79.32 -57.32,52.05 -86.14,121.15 -86.14,207.59 0,86.14 29.13,156.16 87.07,210.07 58.25,54.23 127.65,81.18 208.83,81.18 38.07,0 73.06,-6.18 104.92,-18.52 1.04,-0.4 2.16,-0.64 3.1,-1.23 85.6,-52.77 158.63,-26.23 225.06,42.06 -86.45,92.95 -195.82,139.43 -327.5,139.43 -131.99,0 -243.53,-41.83 -334.62,-125.49 -90.78,-84.89 -136.02,-193.96 -136.02,-327.5 0,-133.54 44.62,-242.29 133.54,-325.95 89.24,-83.66 200.16,-125.79 333.39,-126.42z"/>
    <path class="fil0" d="M3907.15 453.75c133.85,0 243.53,46.78 329.36,140.04 -56.9,75.29 -129.93,97.8 -226.37,43.64 -1.52,-0.85 -3.29,-1.21 -4.94,-1.79 -31.16,-10.95 -65.09,-16.44 -101.76,-16.44 -81.49,0 -150.89,26.33 -207.9,79.32 -57.32,52.05 -86.14,121.15 -86.14,207.59 0,86.14 29.13,156.16 87.07,210.07 58.25,54.23 127.65,81.18 208.83,81.18 35.46,0 68.24,-5.35 98.32,-16.07 1.22,-0.43 2.47,-0.8 3.64,-1.33 97.8,-43.87 171.66,-21.89 231.12,39.71 -86.45,92.95 -195.82,139.43 -327.5,139.43 -131.99,0 -243.53,-41.83 -334.62,-125.49 -90.78,-84.89 -136.02,-193.96 -136.02,-327.5 0,-133.54 44.62,-242.29 133.54,-325.95 89.24,-83.66 200.16,-125.79 333.39,-126.42z"/>
    <path class="fil0" d="M6794.27 903.95c0,38.42 -0.62,60.42 -1.86,66.61l-704.57 0c8.37,70.03 39.35,127.97 92.64,174.14 51.43,42.45 109.06,63.83 173.2,63.83 70.3,0 135.06,-14.1 187.22,-49.97 0.89,-0.62 1.87,-1.12 2.65,-1.85 70.34,-65.28 143.66,-65.57 218.8,-26.57 -35.63,73.12 -89.54,129.51 -161.74,169.18 -71.88,39.96 -151.2,59.8 -237.65,59.8 -124.25,0 -230.21,-41.83 -318.51,-125.79 -83.96,-83.97 -125.79,-193.96 -125.79,-329.36 0,-135.71 41.83,-244.46 125.17,-326.57 83.66,-81.8 189.32,-123 317.59,-123.62 128.27,0 231.76,41.52 310.46,124.25 81.49,82.42 122.39,191.17 122.39,325.95zm-253.45 -237.33c-48.34,-41.52 -108.44,-62.28 -179.71,-62.28 -71.57,0 -132.92,20.76 -184.36,62.28 -50.81,44.31 -80.56,101.94 -88.92,171.96l538.19 0c-8.37,-70.03 -36.88,-127.65 -85.21,-171.96z"/>
    <path class="fil0" d="M7055.03 872.35l0 468.17c-124.41,0.77 -169.17,-7.44 -169.17,-133.32l0 -734.85c104.93,-1.28 167.46,10.86 169.17,90.79l0 39.66c24.79,-48.34 61.97,-85.52 111.85,-110.93 49.58,-25.4 102.87,-38.11 159.57,-38.11 109.06,0 191.17,33.46 246.63,100.7 57.94,66 87.37,160.8 87.99,284.12l0 393.78c-0.19,76.55 -42.38,110.57 -169.17,108.16l0 -490.79c0,-73.12 -17.35,-129.51 -51.74,-168.86 -33.46,-41.21 -82.72,-61.66 -148.1,-61.66 -66,0 -122.08,21.37 -167.93,64.44 -46.17,42.76 -69.09,105.97 -69.09,188.7z"/>
    <path class="fil0" d="M8080.15 292.55l0 179.79 49.88 0c93.42,-1.24 130.88,43.95 132.31,150.58l-182.18 0 0 717.59c-106.03,1.06 -164.44,-25.74 -169.17,-141.87l0 -575.72 -31.75 0c-113.55,-1.19 -122.39,-72.95 -124.42,-150.58l156.16 0 0 -317.9c105.52,-2.25 163.42,29.49 169.17,138.11z"/>
   </g>
   <g>
    <g>
     <polygon class="fil2" points="743.93,366.37 507.84,658.08 254.33,378.5 498.26,80.86 "/>
     <polygon class="fil2" points="290.75,1018.02 794.81,416.86 1012.98,679.07 935.67,772.62 498.89,1278.25 "/>
     <polygon class="fil2" points="204.41,428.42 457.11,709.39 241.96,969.43 -0,678.61 "/>
    </g>
    <path class="fil3" d="M598.43 0c338.91,0 760.67,228.29 760.67,670.67 0,480.36 -358.65,688.43 -760.67,688.43l572.8 -672.99 -572.8 -686.11z"/>
   </g>
  </g>
 </g>
</svg>
