<?xml version="1.0" encoding="UTF-8"?>
<!DOCTYPE svg PUBLIC "-//W3C//DTD SVG 1.1//EN" "http://www.w3.org/Graphics/SVG/1.1/DTD/svg11.dtd">
<!-- Creator: CorelDRAW 2018 (64-Bit Evaluation Version) -->
<svg xmlns="http://www.w3.org/2000/svg" xml:space="preserve" width="140.073mm" height="23.8126mm" version="1.1" style="shape-rendering:geometricPrecision; text-rendering:geometricPrecision; image-rendering:optimizeQuality; fill-rule:evenodd; clip-rule:evenodd"
     viewBox="0 0 5161.42 877.45"
     xmlns:xlink="http://www.w3.org/1999/xlink">
 <defs>
  <style type="text/css">
   <![CDATA[
    .fil3 {fill:#1D9CD3}
    .fil1 {fill:#006648}
    .fil0 {fill:#5AEEBC}
    .fil8 {fill:#e2f0cd}
    .fil5 {fill:#F6858A}
    .fil4 {fill:#F78D92}
    .fil6 {fill:#F89DA1}
    .fil2 {fill:#FBD13D}
    .fil7 {fill:#FEE9A3}
    .fil9 {fill:#3D4852;fill-rule:nonzero}
   ]]>
  </style>
 </defs>
    <g id="Layer_x0020_1">
  <metadata id="CorelCorpID_0Corel-Layer"/>
        <g id="_2131495954352">
   <g>
    <path class="fil0" d="M400.76 34.77c-1.26,2.82 -14.55,13.54 -17.55,16.25 -2.49,2.25 -5.76,5.03 -8.77,7.89 -2.12,2 -6.42,6.49 -9.5,7.69 -12.17,10.45 -23.69,20.93 -35.09,31.08 -20.72,18.46 -46.33,40.19 -65.94,58.35 -1.65,1.53 -2.73,2.49 -4.41,3.93l-34.7 30.66c-1.2,2.52 -2.24,3.07 -4.54,5.02 -1.82,1.54 -2.74,2.32 -4.44,3.89 -2.73,2.53 -6.37,6.79 -10.16,7.95 -1.18,2.02 -37.4,33.41 -42.49,38.05 -4.16,3.79 -9.88,8.88 -14.36,12.71l-28.73 25.43c-8.98,8.19 -18.98,16.81 -27.99,24.85 -0.68,2.55 -1.61,2.23 -5.34,5.64 -2.04,1.86 -3.71,3.23 -5.51,4.86 -2.68,2.43 -7.44,7.7 -11.78,9.9 -6.52,4.98 -12.65,11.9 -18.98,16.42 -0.98,2.34 -1.01,2 -3.07,3.73 -2.02,1.68 -1.24,1.79 -4.23,2.76 -3.97,4.41 -11.88,10.83 -17.53,15.82 -13.4,11.82 -31.32,22.43 -23.88,40.78 4.08,10.05 14.18,8.1 27.1,8.1l398.01 0c12.78,0 25.25,1.77 31.03,-3.86 6.88,-6.71 6.78,-15.54 6.78,-25.94l0 -349.33c0,-7.67 1.24,-24.61 -1.38,-30.68 -3.23,-7.48 -16.73,-7.96 -26.47,-2.9 -3.4,1.77 -32.1,26.32 -36.05,30.97z"/>
       <path class="fil1" d="M35.93 528.46c0.97,2.14 11,10.19 12.84,11.82l26.74 23.27c16.91,14.71 36.44,32.56 53.06,46.3 12.5,10.32 27.14,24.61 39.66,34.63 4.96,3.96 8.7,8.1 13.31,11.74 11,8.7 29.26,25.39 39.25,34.36l19.91 17.54c10.64,8.24 22.45,19.72 33.19,28.72 8.64,7.23 18.03,15.97 26.31,23 10.74,9.11 37.4,33.42 46.64,40.28l32.93 28.85c12.68,10.63 43.7,39.09 52.77,45.85 6.18,4.6 14.65,2.38 20.44,-0.64 4.12,-2.15 11.53,-7.87 10.72,-12.9 2.88,-3.39 2.24,-6.16 2.22,-10.66l0 -351.29c0.01,-4.81 -0.11,-7.08 -0.97,-11.46 -0.78,-3.94 -2.82,-6.71 -2.98,-8.72 -1.55,-0.99 -0.74,-0.49 -2.02,-1.74 -6.67,-6.46 -6.86,-4.89 -21.99,-4.89l-420.21 -0.01c-10.6,0.03 -15.87,3.22 -16.08,13.83 -0.22,11.19 1.12,8.25 2.05,13.36 1.48,0.82 1.81,2.16 3.29,3.87 3.52,4.05 19.23,16.4 24.26,21.6 1.25,1.29 0.44,1.01 1.96,2.12 1.68,1.24 -0.53,0.44 2.7,1.18z"/>
       <path class="fil2" d="M578.01 15.27c-2.44,-0.64 -3.53,-0.99 -5.17,-3.12 -10.28,-6.28 -22.05,-17.15 -34.46,-9.55 -6.7,4.1 -6.2,8.2 -6.2,17.26l-0.01 379.85c-0.02,8.9 1.16,11.95 8.54,15.22 10.26,4.54 17.22,-1.33 26.1,-6.86 2.45,-1.53 4.59,-3.12 7.25,-4.64l32.35 -19.74c8.97,-6.29 12.39,-7.55 16.44,-10.27 0.83,-0.55 0.24,-0.15 1.25,-0.87l38.45 -24.59c2.26,-1.15 5.31,-3.23 7.3,-4.66l36.64 -23.04c13.66,-9.39 37,-22.63 52.14,-32.8l37.11 -23.26c9.05,-5.74 44.86,-27.64 51.99,-32.95 9.27,-6.91 35.65,-15 25.38,-29.49 -2.28,-3.23 -26.48,-17.58 -33.01,-21.72l-19.3 -11.66c-0.11,-0.07 -0.29,-0.19 -0.4,-0.27 -20.68,-14.41 -43.4,-27.5 -65.17,-41.47 -9.82,-6.3 -19.07,-11.6 -29.87,-18.64 -8.91,-5.8 -19.57,-12.66 -29.17,-18.47l-24.46 -15.56c-0.46,-0.34 -1.55,-1.16 -1.58,-1.17l-26.34 -15.92c-15.45,-11.18 -47.43,-29.52 -65.8,-41.61z"/>
       <path class="fil3" d="M531.93 481.42c1.15,4.86 0.21,362.98 0.22,381.07 0,5.94 1.07,8.76 5.21,11.66 12.9,9.02 25.8,-2.63 36.3,-8.96 26.75,-16.12 59.72,-35.28 85.18,-51.86 5.42,-3.53 14.81,-8.04 19.01,-11.22l88.06 -53.86c7.37,-4.29 13.65,-7.74 21.08,-12.71 8.45,-5.65 27.36,-15.79 35.14,-21.1 10.71,-7.3 30.09,-17.47 39.92,-24.7 3.9,-2.87 18.35,-7.4 14.84,-17.61 -1.42,-4.12 -4.75,-6.07 -8.19,-8.29l-53.33 -32.41c-1.47,-0.85 -9.11,-5.07 -9.89,-6.52l-202.44 -122.64c-11.56,-6.63 -22.46,-13.67 -33.91,-20.31 -5.02,-2.91 -11.94,-8.71 -18.44,-9.13 -11.21,-0.74 -13.6,1.95 -18.01,7.76l-0.74 0.85z"/>
       <path class="fil4" d="M364.93 66.6c3.08,-1.21 7.38,-5.69 9.5,-7.69 3.01,-2.86 6.28,-5.64 8.77,-7.89 3,-2.71 16.3,-13.43 17.55,-16.25 -1.95,0.77 -1.23,0.34 -3.14,1.69 -1.29,0.92 -1.15,0.74 -2.2,1.87 -4.79,5.11 -29.42,25.31 -30.48,28.27z"/>
       <path class="fil5" d="M69.44 328.92c4.34,-2.2 9.1,-7.47 11.78,-9.9 1.8,-1.63 3.47,-3 5.51,-4.86 3.73,-3.41 4.66,-3.09 5.34,-5.64 -3.38,1.55 -9.19,7.13 -11.76,9.69 -3.12,3.1 -9.41,6.84 -10.88,10.71z"/>
       <path class="fil6" d="M205.66 207.48c3.78,-1.15 7.43,-5.42 10.16,-7.95 1.7,-1.57 2.61,-2.35 4.44,-3.89 2.3,-1.95 3.35,-2.49 4.54,-5.02 -3.66,1.18 -1.98,1.04 -5.46,4.2 -1.64,1.49 -2.89,2.44 -4.54,3.84 -1.89,1.6 -3.32,3.18 -4.66,4.33 -2.57,2.21 -3.07,1.98 -4.48,4.47z"/>
       <path class="fil5" d="M43.16 351.82c2.98,-0.97 2.21,-1.07 4.23,-2.76 2.06,-1.73 2.09,-1.39 3.07,-3.73 -2.05,0.94 -0.43,0.01 -1.79,0.92l-5.51 5.56z"/>
       <path class="fil7" d="M578.01 15.27c-1.56,-2.14 -2.77,-2.49 -5.17,-3.12 1.64,2.13 2.73,2.48 5.17,3.12z"/>
   </g>
            <g>
    <path class="fil0" d="M3361.93 12.09c-0.2,0.44 -2.26,2.11 -2.73,2.53 -0.39,0.35 -0.9,0.78 -1.36,1.23 -0.33,0.31 -1,1.01 -1.48,1.2 -1.89,1.62 -3.68,3.25 -5.46,4.83 -3.22,2.87 -7.21,6.25 -10.26,9.08 -0.25,0.24 -0.42,0.39 -0.69,0.61l-5.4 4.77c-0.18,0.39 -0.35,0.48 -0.71,0.78 -0.28,0.24 -0.42,0.36 -0.69,0.6 -0.42,0.39 -0.99,1.06 -1.58,1.24 -0.18,0.31 -5.81,5.2 -6.61,5.92 -0.65,0.59 -1.54,1.38 -2.24,1.98l-4.47 3.95c-1.4,1.27 -2.95,2.62 -4.35,3.87 -0.11,0.39 -0.25,0.35 -0.83,0.88 -0.32,0.29 -0.58,0.5 -0.85,0.76 -0.42,0.38 -1.16,1.2 -1.84,1.54 -1.01,0.77 -1.97,1.85 -2.95,2.55 -0.15,0.36 -0.16,0.31 -0.48,0.58 -0.31,0.26 -0.2,0.28 -0.66,0.43 -0.62,0.69 -1.85,1.69 -2.73,2.46 -2.08,1.84 -4.87,3.49 -3.71,6.35 0.63,1.56 2.21,1.26 4.22,1.26l61.91 0c1.99,0 3.93,0.27 4.83,-0.6 1.07,-1.05 1.05,-2.42 1.05,-4.03l0 -54.34c0,-1.19 0.19,-3.83 -0.21,-4.77 -0.5,-1.16 -2.61,-1.24 -4.12,-0.45 -0.53,0.27 -4.99,4.09 -5.61,4.82z"/>
                <path class="fil1" d="M3305.18 88.88c0.15,0.33 1.71,1.58 2,1.84l4.16 3.62c2.63,2.28 5.67,5.06 8.25,7.2 1.95,1.61 4.22,3.83 6.17,5.39 0.77,0.62 1.35,1.26 2.07,1.83 1.71,1.35 4.55,3.95 6.1,5.34l3.1 2.73c1.65,1.28 3.49,3.07 5.16,4.47 1.34,1.12 2.8,2.48 4.09,3.58 1.67,1.42 5.82,5.2 7.26,6.26l5.13 4.49c1.97,1.65 6.79,6.08 8.21,7.13 0.96,0.71 2.28,0.37 3.18,-0.1 0.64,-0.33 1.79,-1.22 1.67,-2 0.45,-0.53 0.35,-0.96 0.35,-1.66l0 -54.65c0,-0.75 -0.02,-1.1 -0.15,-1.78 -0.12,-0.62 -0.44,-1.05 -0.46,-1.36 -0.24,-0.15 -0.11,-0.07 -0.31,-0.27 -1.04,-1.01 -1.07,-0.76 -3.42,-0.76l-65.36 0c-1.65,0 -2.47,0.5 -2.5,2.15 -0.03,1.74 0.17,1.28 0.32,2.08 0.23,0.13 0.28,0.34 0.51,0.6 0.55,0.63 2.99,2.55 3.77,3.36 0.2,0.2 0.07,0.15 0.31,0.33 0.26,0.19 -0.08,0.07 0.42,0.18z"/>
                <path class="fil2" d="M3389.51 9.05c-0.38,-0.1 -0.55,-0.15 -0.8,-0.49 -1.6,-0.98 -3.43,-2.67 -5.36,-1.49 -1.04,0.64 -0.97,1.28 -0.97,2.69l0 59.09c-0,1.39 0.18,1.86 1.33,2.37 1.6,0.71 2.68,-0.21 4.06,-1.07 0.38,-0.24 0.71,-0.48 1.13,-0.72l5.03 -3.07c1.4,-0.98 1.93,-1.18 2.56,-1.6 0.13,-0.09 0.04,-0.03 0.2,-0.14l5.98 -3.82c0.35,-0.18 0.83,-0.5 1.13,-0.73l5.7 -3.58c2.12,-1.46 5.75,-3.52 8.11,-5.1l5.77 -3.62c1.41,-0.89 6.98,-4.3 8.09,-5.13 1.44,-1.08 5.55,-2.33 3.95,-4.59 -0.35,-0.5 -4.12,-2.73 -5.13,-3.38l-3 -1.81c-0.02,-0.01 -0.04,-0.03 -0.06,-0.04 -3.21,-2.24 -6.75,-4.28 -10.14,-6.45 -1.53,-0.98 -2.97,-1.81 -4.65,-2.9 -1.39,-0.9 -3.04,-1.97 -4.54,-2.87l-3.81 -2.42c-0.07,-0.06 -0.24,-0.18 -0.24,-0.18l-4.1 -2.48c-2.4,-1.74 -7.38,-4.59 -10.24,-6.47z"/>
                <path class="fil3" d="M3382.34 81.57c0.18,0.76 0.03,56.46 0.03,59.28 0,0.92 0.17,1.36 0.81,1.81 2.01,1.4 4.01,-0.41 5.65,-1.4 4.16,-2.51 9.29,-5.49 13.25,-8.07 0.84,-0.55 2.3,-1.25 2.96,-1.75l13.7 -8.38c1.15,-0.67 2.13,-1.2 3.28,-1.98 1.32,-0.88 4.26,-2.45 5.47,-3.28 1.67,-1.13 4.68,-2.72 6.21,-3.84 0.61,-0.45 2.86,-1.15 2.31,-2.74 -0.22,-0.64 -0.74,-0.94 -1.27,-1.29l-8.3 -5.04c-0.23,-0.13 -1.41,-0.79 -1.54,-1.01l-31.49 -19.08c-1.8,-1.03 -3.49,-2.13 -5.28,-3.16 -0.78,-0.45 -1.86,-1.36 -2.87,-1.42 -1.74,-0.11 -2.12,0.31 -2.8,1.21l-0.11 0.13z"/>
                <path class="fil8" d="M3356.36 17.04c0.48,-0.19 1.15,-0.89 1.48,-1.2 0.47,-0.45 0.98,-0.88 1.36,-1.23 0.47,-0.42 2.54,-2.09 2.73,-2.53 -0.3,0.12 -0.19,0.05 -0.49,0.26 -0.2,0.14 -0.18,0.12 -0.34,0.29 -0.74,0.8 -4.58,3.94 -4.74,4.4z"/>
                <path class="fil8" d="M3310.4 57.84c0.67,-0.34 1.41,-1.16 1.84,-1.54 0.28,-0.25 0.54,-0.47 0.85,-0.76 0.58,-0.53 0.73,-0.48 0.83,-0.88 -0.53,0.24 -1.43,1.11 -1.83,1.51 -0.49,0.48 -1.46,1.06 -1.69,1.67z"/>
                <path class="fil8" d="M3331.59 38.95c0.59,-0.18 1.16,-0.84 1.58,-1.24 0.27,-0.24 0.41,-0.36 0.69,-0.6 0.36,-0.3 0.52,-0.39 0.71,-0.78 -0.57,0.18 -0.31,0.16 -0.85,0.66 -0.26,0.23 -0.45,0.38 -0.71,0.6 -0.29,0.25 -0.52,0.49 -0.73,0.67 -0.4,0.35 -0.48,0.31 -0.7,0.7z"/>
                <path class="fil8" d="M3306.31 61.4c0.46,-0.15 0.34,-0.17 0.66,-0.43 0.32,-0.27 0.32,-0.22 0.48,-0.58 -0.32,0.14 -0.07,0 -0.28,0.14l-0.85 0.86z"/>
                <path class="fil8" d="M3389.51 9.05c-0.24,-0.34 -0.43,-0.39 -0.8,-0.49 0.25,0.33 0.42,0.39 0.8,0.49z"/>
   </g>
            <path class="fil9" d="M1116.5 551.81c26.36,25.75 59.15,38.62 98.53,38.62 39.23,0 73.1,-12.87 101.6,-38.62 28.35,-25.74 42.6,-60.38 42.6,-104.05 0,-43.67 -13.79,-78.31 -41.37,-103.74 -27.58,-25.13 -61.14,-37.7 -100.68,-37.7 -39.54,0 -72.79,13.49 -99.76,40.46 -26.97,27.12 -40.46,61.76 -40.46,103.59 0,41.98 13.18,75.7 39.53,101.44zm91.79 245.49c101.75,0 152.78,-64.67 152.78,-193.85 0,-1.23 -0.31,-2.76 -0.92,-4.44l0 -5.83c-12.26,24.52 -32.49,43.83 -60.68,57.93 -28.2,14.1 -58.08,21.15 -89.95,21.15 -61.6,0 -113.4,-20.53 -155.23,-61.45 -41.83,-41.07 -62.83,-95.01 -62.83,-161.67 0,-66.81 21.46,-120.91 64.21,-162.13 42.75,-41.37 94.24,-62.21 154.01,-62.52 32.64,0 62.67,7.05 89.8,21.15 26.97,12.26 47.19,30.65 60.68,55.32 -1.8,-55.42 33.84,-66.38 83.67,-67.27l0 364.25c0,186.49 -78.46,279.66 -235.53,279.35 -41.07,0.31 -78.61,-9.81 -112.78,-30.19 -34.02,-20.54 -61.14,-49.34 -81.22,-86.28 41.83,-18.07 75.95,-18.07 100.21,1.1 0.67,0.53 1.32,1.11 1.98,1.65 6.06,4.96 12.65,9.53 19.79,13.64 23.12,13.35 47.04,20.07 72.02,20.07z"/>
            <path class="fil9" d="M3601.15 551.81c26.36,25.75 59.15,38.62 98.53,38.62 39.23,0 73.1,-12.87 101.6,-38.62 28.35,-25.74 42.6,-60.38 42.6,-104.05 0,-43.67 -13.79,-78.31 -41.37,-103.74 -27.58,-25.13 -61.14,-37.7 -100.68,-37.7 -39.54,0 -72.79,13.49 -99.76,40.46 -26.97,27.12 -40.46,61.76 -40.46,103.59 0,41.98 13.18,75.7 39.53,101.44zm91.79 245.49c101.75,0 152.78,-64.67 152.78,-193.85 0,-1.23 -0.31,-2.76 -0.92,-4.44l0 -5.83c-12.26,24.52 -32.49,43.83 -60.68,57.93 -28.2,14.1 -58.08,21.15 -89.95,21.15 -61.6,0 -113.4,-20.53 -155.23,-61.45 -41.83,-41.07 -62.83,-95.01 -62.83,-161.67 0,-66.81 21.46,-120.91 64.21,-162.13 42.75,-41.37 94.24,-62.21 154.01,-62.52 32.64,0 62.67,7.05 89.8,21.15 26.97,12.26 47.19,30.65 60.68,55.32 -1.8,-55.42 33.84,-66.38 83.67,-67.27l0 364.25c0,186.49 -78.46,279.66 -235.53,279.35 -41.07,0.31 -78.61,-9.81 -112.78,-30.19 -34.02,-20.54 -61.14,-49.34 -81.22,-86.28 41.83,-18.07 75.95,-18.07 100.21,1.1 0.67,0.53 1.32,1.11 1.98,1.65 6.06,4.96 12.65,9.53 19.79,13.64 23.12,13.35 47.04,20.07 72.02,20.07z"/>
            <path class="fil9" d="M1593.13 506.91l0 156.15c-44.67,1.7 -83.67,-3.18 -83.67,-65.86l0 -363.51c50.22,-0.91 82.87,11.85 83.67,60.98l0 35.87c20.99,-70.64 60.68,-106.04 119.37,-106.04 33.87,0 58.69,5.52 74.63,16.4 -5.1,38.36 -25.87,62.74 -73.74,62.92 -0.81,0 -1.63,0.03 -2.45,0.06 -34.94,1.16 -67.21,19.09 -87.32,54.86 -20.41,36.3 -30.5,85.66 -30.5,148.18z"/>
            <path class="fil9" d="M2138.09 551.81c27.58,-25.74 41.37,-60.38 41.37,-104.05 0,-43.67 -14.4,-78.15 -43.06,-103.28 -28.81,-25.13 -62.67,-37.85 -101.6,-38.16 -39.08,0 -71.72,13.03 -98.07,39.08 -26.36,25.74 -39.53,59.45 -39.53,101.44 0,41.83 13.48,76.31 40.46,103.13 26.97,26.97 60.22,40.46 99.76,40.46 39.53,0 73.09,-12.87 100.68,-38.62zm42.29 111.25l0 -65.89c-13.49,22.53 -33.87,40.61 -61.14,54.4 -27.28,13.79 -57,20.69 -89.49,20.69 -59.45,0 -111.1,-20.84 -154.77,-62.52 -42.14,-41.53 -63.29,-95.47 -63.29,-161.52 0,-66.2 20.84,-119.98 62.37,-161.21 41.68,-41.37 93.63,-62.21 155.84,-62.52 31.11,0 61.14,6.44 89.8,19.31 28.2,14.1 48.42,32.18 60.68,54.4 -3.09,-52.66 26.15,-62.41 83.67,-64.51l0 363.18c0.98,48.39 -38.01,67.89 -83.67,66.19z"/>
            <path class="fil9" d="M2459.86 345.7c-26.51,26.36 -39.84,61.45 -39.84,105.43 0,43.82 14.1,78 42.14,102.51 28.2,24.52 61.45,36.78 100.06,36.78 38.62,0 71.56,-12.87 98.69,-38.62 25.74,-25.59 38.61,-59.3 38.61,-101.14 0,-41.83 -13.48,-76.31 -40.45,-103.13 -27.12,-26.82 -60.53,-40.46 -99.91,-40.76 -39.53,-0.31 -72.63,12.72 -99.3,38.92zm-40.76 -112.02l0 67.58c14.1,-24.06 34.48,-42.6 61.45,-55.47 26.36,-14.25 55.78,-21.3 88.42,-21.3 59.91,0 110.64,20.84 152.01,62.67 41.53,41.37 62.21,95.31 62.21,161.67 0,66.35 -20.54,120.14 -61.76,161.51 -41.07,41.22 -91.94,61.91 -152.47,61.91 -32.64,0 -62.52,-6.43 -89.8,-19.31 -27.12,-12.87 -47.2,-30.95 -60.07,-53.94l0 218.73c1.93,42.01 -34.96,54.13 -83.67,54.03l0 -570.44c2.73,-55.8 36.86,-70.42 83.67,-67.65z"/>
            <path class="fil9" d="M2935.81 431.52l0 231.54c-51.69,1.7 -85.81,-17.8 -83.67,-76.01l0 -586.9c51.48,1.65 85.6,16.28 83.67,70.52l0 227.53c11.64,-23.9 31.57,-42.29 59.76,-54.86 28.04,-12.57 55.32,-18.85 81.67,-18.85 54.25,0 97,16.85 128.11,50.72 31.11,33.87 46.43,80.3 45.82,139.6l0 181.07c-1.45,39.62 -30.7,68.87 -83.67,67.17l0 -242.73c0,-35.71 -9.5,-63.14 -28.35,-82.59 -18.23,-21 -43.52,-31.42 -75.85,-31.42 -32.33,0 -61.6,10.27 -87.96,30.96 -26.36,20.69 -39.53,52.1 -39.53,94.24z"/>
            <path class="fil9" d="M3326 663.06l0 -359.03c1.72,-53.62 40.72,-73.12 83.67,-70.34l0 360.69c0.93,46.01 -28.32,70.38 -83.67,68.68z"/>
            <path class="fil9" d="M4425.87 447.15c0,19 -0.31,29.88 -0.92,32.95l-348.46 0c4.14,34.63 19.46,63.29 45.82,86.12 25.44,21 53.94,31.57 85.66,31.57 39.2,0 70.95,-8.87 95.26,-26.59 0.84,-0.61 1.69,-1.23 2.51,-1.88 35.63,-28.28 70.21,-25.84 104.35,-10.3 -17.62,36.16 -44.29,64.05 -79.99,83.67 -35.55,19.77 -74.78,29.57 -117.53,29.57 -61.45,0 -113.86,-20.69 -157.53,-62.21 -41.53,-41.53 -62.22,-95.93 -62.22,-162.89 0,-67.12 20.69,-120.9 61.91,-161.51 41.38,-40.46 93.63,-60.84 157.07,-61.14 63.44,0 114.62,20.54 153.55,61.45 40.3,40.76 60.53,94.55 60.53,161.21zm-125.35 -117.38c-23.9,-20.54 -53.63,-30.8 -88.88,-30.8 -35.4,0 -65.74,10.27 -91.18,30.8 -25.13,21.91 -39.84,50.42 -43.98,85.05l266.18 0c-4.14,-34.63 -18.24,-63.14 -42.14,-85.05z"/>
            <path class="fil9" d="M4869.22 432.23l0 227.92c-50.33,2.17 -81.35,-9.39 -82.58,-69.85l0 -170.02c0,-35.09 -8.47,-62.16 -25.26,-81.37 -16.18,-19.97 -39.93,-29.95 -70.93,-29.95 -30.7,0 -57.32,10.44 -79.71,31.31 -22.53,20.87 -33.73,51.58 -33.73,91.95l0 158.5c-0.58,51.81 -33.46,67.88 -82.58,69.42l0 -350.13c0.38,-50.85 33.25,-72.47 82.58,-73.65l0 64.43c9.83,-20.27 25.86,-36.9 48.4,-49.76 23.59,-12.86 45.07,-19.81 64.28,-21.03 81.52,-4.99 135.51,23.59 161.83,85.61 29.49,-58.84 78.2,-88.33 146.4,-88.33 53.09,0 93.47,16.33 121,49.16 28.28,32.22 42.5,78.5 42.5,138.69l0 245.01c-49.01,-0.48 -81.92,-17.83 -82.58,-68.55l0 -170.41c0,-34.48 -8.62,-61.86 -25.72,-82.27 -18.45,-19.97 -43.4,-30.1 -74.71,-30.4 -31.16,-0.3 -57.17,10.89 -77.74,33.58 -20.72,22.69 -31.15,52.63 -31.46,90.14z"/>
  </g>
 </g>
</svg>
