<?xml version="1.0" encoding="UTF-8"?>
<!DOCTYPE svg PUBLIC "-//W3C//DTD SVG 1.1//EN" "http://www.w3.org/Graphics/SVG/1.1/DTD/svg11.dtd">
<!-- Creator: CorelDRAW X6 -->
<svg xmlns="http://www.w3.org/2000/svg" xml:space="preserve" width="60.7144mm" height="11.9062mm" version="1.1" style="shape-rendering:geometricPrecision; text-rendering:geometricPrecision; image-rendering:optimizeQuality; fill-rule:evenodd; clip-rule:evenodd"
     viewBox="0 0 1892 371"
     xmlns:xlink="http://www.w3.org/1999/xlink">
 <defs>
  <style type="text/css">
   <![CDATA[
    .fil1 {fill:none}
    .fil2 {fill:white}
    .fil0 {fill:white;fill-rule:nonzero}
   ]]>
  </style>
 </defs>
    <g id="Layer_x0020_1">
  <metadata id="CorelCorpID_0Corel-Layer"/>
        <g id="_531686672">
   <path class="fil0" d="M618 99l-103 247c-7,19 -17,27 -48,25l38 -95 -73 -177c24,-9 39,1 48,23l45 110 45 -108c11,-26 25,-33 48,-24l0 0z"/>
            <path class="fil0" d="M775 235c11,-11 17,-26 17,-44 0,-18 -6,-33 -17,-44 -11,-11 -26,-17 -43,-17 -17,0 -31,5 -43,17 -12,11 -18,26 -18,44 0,18 6,33 17,44 11,11 26,17 43,17 17,0 32,-6 43,-17l0 0zm-43 51c-27,0 -49,-9 -68,-26 -19,-18 -28,-41 -28,-69 0,-28 9,-51 28,-69 18,-18 41,-26 68,-26 27,0 50,9 68,26 18,18 28,41 28,69 0,28 -9,51 -28,69 -19,18 -41,27 -68,27l0 0z"/>
            <path class="fil0" d="M996 197l0 -99c25,0 35,7 36,27l0 160c-23,0 -36,-7 -36,-31 -5,10 -13,18 -24,23 -10,5 -22,8 -33,8 -23,0 -40,-7 -52,-21 -12,-14 -18,-34 -18,-60l0 -77c0,-20 13,-30 36,-29l0 103c0,15 4,27 11,36 7,9 18,13 32,13 14,0 26,-4 35,-13 10,-9 14,-22 14,-40l0 0z"/>
            <circle class="fil1" cx="181" cy="190" r="181"/>
            <path class="fil2" d="M160 371c-84,-9 -151,-76 -160,-160l160 0 0 160z"/>
            <path class="fil2" d="M361 210c-9,84 -76,151 -160,160l0 -160 160 0z"/>
            <path class="fil2" d="M160 170l-160 0c5,-42 24,-80 52,-108l108 108 0 0 0 0z"/>
            <path class="fil2" d="M310 62c28,28 47,66 52,108l-160 0 108 -108z"/>
            <path class="fil0" d="M1701 96c24,-2 38,8 36,32 6,-10 15,-18 26,-24 11,-6 24,-9 38,-9 25,0 47,9 65,27 18,18 26,41 26,69 0,28 -9,51 -26,69 -17,18 -39,26 -65,26 -14,0 -27,-3 -38,-8 -12,-5 -20,-13 -26,-23l0 116c-25,1 -36,-6 -36,-26l0 -248zm53 51c-11,11 -17,26 -17,45 0,19 6,33 18,44 12,10 26,16 43,16 16,0 30,-5 42,-16 11,-11 16,-25 16,-43 0,-18 -6,-32 -17,-44 -12,-11 -26,-17 -42,-17 -17,0 -31,5 -42,17z"/>
            <path class="fil0" d="M1656 190c0,8 0,13 0,14l-148 0c2,15 8,27 19,37 11,9 23,13 36,13 18,0 33,-4 44,-14 13,-12 21,-16 42,-3 -7,15 -19,27 -34,36 -15,8 -32,13 -50,13 -26,0 -48,-9 -67,-26 -18,-18 -26,-41 -26,-69 0,-29 9,-51 26,-69 18,-17 40,-26 67,-26 27,0 49,9 65,26 17,17 26,40 26,69zm-53 -50c-10,-9 -23,-13 -38,-13 -15,0 -28,4 -39,13 -11,9 -17,21 -19,36l113 0c-2,-15 -8,-27 -18,-36z"/>
            <path class="fil0" d="M1427 190c0,8 0,13 0,14l-148 0c2,15 8,27 19,37 11,9 23,13 36,13 19,0 32,-6 44,-14 13,-9 22,-17 42,-2 -7,15 -19,27 -34,36 -15,8 -32,13 -50,13 -26,0 -48,-9 -67,-26 -18,-18 -26,-41 -26,-69 0,-29 9,-51 26,-69 18,-17 40,-26 67,-26 27,0 49,9 65,26 17,17 26,40 26,69zm-53 -50c-10,-9 -23,-13 -38,-13 -15,0 -28,4 -39,13 -11,9 -17,21 -19,36l113 0c-2,-15 -8,-27 -18,-36z"/>
            <path class="fil0" d="M1112 286c-23,0 -35,-8 -36,-29l0 -257c24,1 36,9 36,32l0 130 50 -50c18,-16 38,-20 61,-13l-78 79 100 107c-22,1 -44,4 -66,-20l-68 -73 0 93z"/>
  </g>
 </g>
</svg>
