<?xml version="1.0" encoding="UTF-8"?>
<!DOCTYPE svg PUBLIC "-//W3C//DTD SVG 1.1//EN" "http://www.w3.org/Graphics/SVG/1.1/DTD/svg11.dtd">
<!-- Creator: CorelDRAW X6 -->
<svg xmlns="http://www.w3.org/2000/svg" xml:space="preserve" width="55.1096mm" height="11.9062mm" version="1.1" style="shape-rendering:geometricPrecision; text-rendering:geometricPrecision; image-rendering:optimizeQuality; fill-rule:evenodd; clip-rule:evenodd"
     viewBox="0 0 4039 873"
     xmlns:xlink="http://www.w3.org/1999/xlink">
 <defs>
  <style type="text/css">
   <![CDATA[
    .fil0 {fill:none;fill-rule:nonzero}
    .fil1 {fill:#13ECAB}
    .fil3 {fill:#4C57FF}
    .fil2 {fill:#C834F7}
    .fil4 {fill:#4C57FF;fill-rule:nonzero}
   ]]>
  </style>
 </defs>
    <g id="Layer_x0020_1">
  <metadata id="CorelCorpID_0Corel-Layer"/>
        <g id="_2093610432">
   <circle class="fil0" cx="404" cy="436" r="404"/>
            <path class="fil1" d="M253 814c-112,-41 -199,-133 -234,-246 -22,-72 25,-87 55,-86l285 0 0 258c4,78 -64,90 -106,74z"/>
            <path class="fil2" d="M557 813c111,-41 198,-133 234,-246 22,-72 -26,-87 -56,-86l-284 0 0 258c-4,78 64,90 106,74z"/>
            <path class="fil3" d="M359 391l-295 0c-38,-2 -57,-32 -53,-59 6,-47 31,-87 57,-125 17,-25 54,-49 95,-12l196 195 0 0 0 0 0 1z"/>
            <path class="fil3" d="M451 390l294 0c38,-2 57,-32 54,-59 -6,-47 -31,-88 -57,-125 -17,-25 -55,-49 -96,-12l-195 195 0 0 0 0 0 1z"/>
  </g>
        <path class="fil4" d="M1285 232l-243 582c-16,43 -40,63 -111,58l90 -222 -173 -418c57,-23 92,1 112,53l107 258 105 -254c26,-62 59,-78 113,-57l0 0 0 0z"/>
        <path class="fil4" d="M1607 552c26,-27 40,-61 40,-104 0,-43 -14,-78 -40,-104 -27,-26 -61,-39 -100,-39 -40,0 -74,13 -101,39 -28,26 -42,60 -42,104 0,43 14,78 41,104 27,26 60,40 101,40 40,0 75,-13 101,-40l0 0 0 0zm-101 120c-63,0 -116,-21 -160,-62 -43,-41 -66,-96 -66,-163 0,-67 22,-121 65,-163 43,-41 97,-62 161,-62 64,0 117,21 160,62 44,42 65,97 65,162 0,67 -21,120 -65,162 -44,42 -98,63 -160,63l0 0 0 1z"/>
        <path class="fil4" d="M2096 465l0 -233c58,1 82,16 84,64l0 376c-53,0 -83,-16 -84,-73 -12,24 -30,42 -56,54 -24,13 -50,19 -78,19 -54,0 -94,-16 -123,-50 -29,-34 -43,-80 -43,-140l0 -182c0,-46 30,-71 84,-67l0 243c0,36 8,64 25,85 17,20 41,30 75,30 34,0 61,-11 83,-32 22,-21 33,-52 33,-94l0 0 0 0z"/>
        <path class="fil4" d="M3592 226c57,-4 88,19 84,75 14,-24 34,-43 61,-56 27,-14 56,-21 89,-21 59,0 110,21 152,63 41,41 61,95 61,162 0,66 -20,120 -61,161 -42,41 -92,62 -153,62 -33,0 -63,-6 -90,-19 -27,-13 -48,-32 -61,-55l0 273c-58,3 -85,-14 -84,-62l0 -584 2 1zm124 120c-26,27 -39,61 -39,106 0,43 13,78 42,102 28,24 61,37 100,37 39,0 71,-13 98,-39 26,-26 39,-60 39,-101 0,-42 -14,-77 -40,-103 -28,-27 -61,-41 -100,-41 -40,0 -73,13 -100,39z"/>
        <path class="fil4" d="M3531 447c0,19 0,30 -1,33l-349 0c4,34 19,63 46,86 25,21 54,32 86,32 43,0 78,-11 102,-33 31,-27 50,-38 99,-6 -17,36 -44,65 -80,84 -36,20 -75,30 -117,30 -62,0 -114,-20 -158,-62 -41,-41 -62,-96 -62,-162 0,-68 21,-121 62,-162 41,-40 94,-61 158,-61 63,0 114,21 153,61 41,41 61,95 61,162l0 -2zm-126 -118c-23,-20 -53,-30 -88,-30 -36,0 -66,10 -91,30 -26,22 -40,51 -45,85l266 0c-4,-34 -18,-63 -42,-85z"/>
        <path class="fil4" d="M3028 447c0,19 0,30 -1,33l-349 0c4,34 20,63 46,86 26,21 55,32 86,32 43,0 76,-14 103,-33 30,-22 52,-41 99,-6 -18,35 -45,64 -81,84 -36,19 -75,29 -117,29 -61,0 -114,-20 -158,-61 -41,-42 -62,-97 -62,-163 0,-67 21,-121 62,-161 42,-41 94,-62 158,-62 63,0 114,21 153,62 41,40 61,94 61,161l0 -1zm-126 -118c-23,-20 -53,-30 -88,-30 -35,0 -66,10 -91,30 -25,22 -40,51 -45,85l266 0c-3,-34 -18,-63 -42,-85z"/>
        <path class="fil4" d="M2325 672c-55,0 -83,-19 -84,-68l0 -604c56,2 84,21 84,76l0 308 117 -119c42,-38 90,-46 145,-30l-184 185 236 253c-52,2 -104,9 -155,-47l-160 -171 0 218 1 -1z"/>
 </g>
</svg>
