<?xml version="1.0" encoding="UTF-8"?>
<!DOCTYPE svg PUBLIC "-//W3C//DTD SVG 1.1//EN" "http://www.w3.org/Graphics/SVG/1.1/DTD/svg11.dtd">
<!-- Creator: CorelDRAW 2018 (64-Bit Evaluation Version) -->
<svg xmlns="http://www.w3.org/2000/svg" xml:space="preserve" width="12.1062mm" height="12.1062mm" version="1.1" style="shape-rendering:geometricPrecision; text-rendering:geometricPrecision; image-rendering:optimizeQuality; fill-rule:evenodd; clip-rule:evenodd"
viewBox="0 0 98.63 98.63"
 xmlns:xlink="http://www.w3.org/1999/xlink">
 <defs>
  <style type="text/css">
   <![CDATA[
    .str0 {stroke:#484848;stroke-width:1.63;stroke-miterlimit:22.9256}
    .fil0 {fill:none}
    .fil1 {fill:#484848}
   ]]>
  </style>
 </defs>
 <g id="Layer_x0020_1">
  <metadata id="CorelCorpID_0Corel-Layer"/>
  <circle class="fil0 str0" cx="49.32" cy="49.32" r="48.5"/>
  <path class="fil1 str0" d="M22.13 34.4l41.25 31.4 -4.43 1.1c-11.9,2.95 -24.3,-0.24 -32.95,-9.02 -6.19,-6.28 -9.62,-14.64 -9.66,-23.46 -0.09,-22.07 20.98,-37.81 42.2,-32.6l4.41 1.08 -40.82 31.5z"/>
  <path class="fil1 str0" d="M76.51 64.25l-40.82 -31.5 4.41 -1.08c21.22,-5.21 42.28,10.53 42.2,32.6 -0.04,8.82 -3.47,17.18 -9.66,23.46 -8.65,8.77 -21.05,11.97 -32.94,9.01l-4.43 -1.1 41.25 -31.4z"/>
 </g>
</svg>
