<svg xmlns="http://www.w3.org/2000/svg" xmlns:xlink="http://www.w3.org/1999/xlink" width="360" height="360"
     viewBox="0 0 1000 1000">
    <defs>
        <style>
            .cls-1 {
            clip-path: url(#clip-Orange_Step_4);
            }

            .cls-2 {
            fill: #f0dfbf;
            }

            .cls-3 {
            fill: #FFFFFF;
            }

            .cls-10, .cls-11, .cls-12, .cls-4, .cls-6 {
            fill: none;
            }

            .cls-5 {
            fill: #d3c19c;
            }

            .cls-6 {
            stroke: #db575d;
            stroke-miterlimit: 10;
            stroke-width: 0.083px;
            }

            .cls-7 {
            fill: #f2d296;
            }

            .cls-8 {
            fill: #F6AB1B;
            }

            .cls-9 {
            fill: #f9c7a5;
            }

            .cls-10, .cls-11, .cls-12, .cls-13, .cls-9 {
            fill-rule: evenodd;
            }

            .cls-10 {
            stroke: #081922;
            }

            .cls-10, .cls-11, .cls-12 {
            stroke-linecap: round;
            stroke-linejoin: round;
            }

            .cls-10, .cls-12 {
            stroke-width: 2px;
            }

            .cls-11, .cls-12 {
            stroke: #0a1922;
            }

            .cls-11 {
            stroke-width: 3px;
            }

            .cls-13 {
            fill: #b58052;
            }
        </style>
        <clipPath id="clip-Orange_Step_4">
            <rect width="1000" height="1000"/>
        </clipPath>
    </defs>
    <g id="Orange_Step_4" data-name="Orange Step_4" class="cls-1">
        <g id="Group_1747" data-name="Group 1747" transform="translate(-2281 -1553.337)">
            <g id="Group_1739" data-name="Group 1739" transform="translate(2357.543 1636.909)">
                <ellipse id="Ellipse_33" data-name="Ellipse 33" class="cls-2" cx="416.612" cy="416.612" rx="416.612"
                         ry="416.612" transform="translate(0 0)"/>
                <ellipse id="Ellipse_34" data-name="Ellipse 34" class="cls-3" cx="359.878" cy="359.877" rx="359.878"
                         ry="359.877" transform="translate(62.855 55.311)"/>
                <path id="Path_806" data-name="Path 806" class="cls-4"
                      d="M234.818,441.141l3.289,5.921V419.43c-1.316,7.237-3.289,14.474-5.263,22.369A2.417,2.417,0,0,1,234.818,441.141Z"
                      transform="translate(91.198 31.281)"/>
                <path id="Path_807" data-name="Path 807" class="cls-4"
                      d="M236.893,417.237V396.185l-3.947,3.948C233.6,406.053,235.577,411.974,236.893,417.237Z"
                      transform="translate(91.755 -96.792)"/>
                <path id="Path_808" data-name="Path 808" class="cls-5"
                      d="M253.159,588.823,417.635,379.61s48.027,32.237,69.738,76.316,32.9,100,32.9,100Z"
                      transform="translate(203.122 -188.113)"/>
                <path id="Path_809" data-name="Path 809" class="cls-5"
                      d="M244.366,370.449,276.6,635.585,442.4,426.371S375.289,354,244.366,370.449Z"
                      transform="translate(154.677 -251.98)"/>
                <path id="Path_810" data-name="Path 810" class="cls-5"
                      d="M212.125,471.53,425.286,635.348,392.391,368.9C391.733,368.9,286.468,372.186,212.125,471.53Z"
                      transform="translate(-22.954 -247.138)"/>
                <path id="Path_811" data-name="Path 811" class="cls-5"
                      d="M465.232,417l-163.16,212.5S204.7,549.243,201.412,451.215Z"
                      transform="translate(-81.979 17.916)"/>
                <path id="Path_812" data-name="Path 812" class="cls-5"
                      d="M250.632,416.6l32.237,261.846s111.186-9.21,178.293-101.318Z"
                      transform="translate(189.201 15.69)"/>
                <path id="Path_815" data-name="Path 815" class="cls-5"
                      d="M221.221,629.4l27.632-35.527,137.5-175.661,27.632,216.451,6.579,50C419.908,684.669,287.67,701.117,221.221,629.4Z"
                      transform="translate(27.162 24.598)"/>
                <path id="Path_816" data-name="Path 816" class="cls-6"
                      d="M261.76,403.086s-15.79-10.527-4.605-15.132a37.523,37.523,0,0,1,20.395-2.632s9.21,1.315,2.632,7.895-5.921,9.21-5.921,9.21,7.237,5.263,9.21,3.289"
                      transform="translate(203.073 -158.957)"/>
                <g id="Group_622" data-name="Group 622" transform="translate(427.353 211.256)">
                    <ellipse id="Ellipse_35" data-name="Ellipse 35" class="cls-7" cx="36.844" cy="36.843" rx="36.844"
                             ry="36.843" transform="translate(0 0)"/>
                    <path id="Path_817" data-name="Path 817" class="cls-8"
                          d="M255.924,388.722l-1.316,13.158s-.658,6.579,3.289,2.632c1.974-1.974.658-3.29,2.632-3.29,0,0,2.632,0,3.289,5.263,1.315,4.606-.658,6.579-.658,6.579s0,.658-.658,0-2.632.658-1.974,1.315a9.36,9.36,0,0,1,1.316,2.632l12.5,12.5a2.882,2.882,0,0,0,3.948-1.315c1.315-2.632,5.921-15.132,2.632-23.684s-10.527-17.105-20.4-20.395C254.608,382.8,255.924,388.722,255.924,388.722Z"
                          transform="translate(-216.469 -375.586)"/>
                    <path id="Path_818" data-name="Path 818" class="cls-8"
                          d="M275.176,387.8l1.316,15.79s.658,1.973-.658,1.973-1.974,0-1.974-.658-.658-2.632-1.974-1.315c-.658.658-5.263,3.948-6.579,8.553a3.845,3.845,0,0,0,2.632.658c1.974,0,2.632,1.974,1.316,2.632s-13.158,5.921-13.158,5.921-5.263,2.632-5.921-1.315-1.316-17.105,4.606-24.342,13.158-11.184,17.105-11.842C274.518,383.854,274.518,385.828,275.176,387.8Z"
                          transform="translate(-242.959 -375.981)"/>
                    <path id="Path_819" data-name="Path 819" class="cls-8"
                          d="M251.289,397.92l13.816-7.895s2.632-1.315,3.947-.658.658,1.974,0,2.632-2.632,2.632,0,2.632,3.947,1.315,4.606,1.315,3.289,1.315,5.263,0a3.442,3.442,0,0,0,.658-3.289s-.658-1.974.658-.658,9.868,10.527,9.868,10.527,2.632,3.289,0,5.263c-3.289,1.974-7.895,6.579-22.369,4.606-13.816-1.974-17.105-11.184-17.105-11.184S250.631,398.577,251.289,397.92Z"
                          transform="translate(-238.15 -346.625)"/>
                </g>
                <g id="Group_623" data-name="Group 623" transform="translate(225.783 481.686)">
                    <ellipse id="Ellipse_36" data-name="Ellipse 36" class="cls-7" cx="37.5" cy="37.5" rx="37.5"
                             ry="37.5" transform="translate(0)"/>
                    <path id="Path_820" data-name="Path 820" class="cls-8"
                          d="M232.45,429.063l-7.237,11.842s-3.289,5.921,1.974,3.948c2.632-.657,1.974-2.632,3.289-1.974,0,0,1.974,1.315.658,5.921s-3.289,5.263-3.289,5.263h-.658s-2.632,0-2.632,1.315v3.289l6.579,16.448a3.222,3.222,0,0,0,4.606.658c2.632-1.974,11.842-11.184,13.158-20.395a33.989,33.989,0,0,0-9.21-27.632C234.424,423.8,232.45,429.063,232.45,429.063Z"
                          transform="translate(-182.218 -412.67)"/>
                    <path id="Path_821" data-name="Path 821" class="cls-8"
                          d="M256.9,431.076l-5.921,15.132A1.351,1.351,0,0,1,249,447.524a8.137,8.137,0,0,1-1.974-1.315c0-.658,0-2.632-.658-1.974s-6.579,1.315-9.868,4.605c0,0,0,.658,1.974,1.974,1.974.658,1.974,3.289,0,2.632s-14.474,0-14.474,0-6.579,0-5.263-3.948,6.579-16.448,15.132-20.395,17.105-4.606,21.053-3.29S258.216,429.1,256.9,431.076Z"
                          transform="translate(-213.247 -418.63)"/>
                    <path id="Path_822" data-name="Path 822" class="cls-8"
                          d="M222.021,431.459l16.448-1.315s3.289,0,3.947.658,0,1.973-1.316,1.973-3.947.658-1.316,1.974a6.44,6.44,0,0,1,3.289,3.289c0,.658,2.632,2.632,4.606,2.632a2.877,2.877,0,0,0,1.974-2.632s.658-1.973.658,0c.658,1.315,3.947,14.474,3.947,14.474s1.316,4.605-2.632,4.605c-3.947.658-10.527,1.974-22.369-5.921s-10.527-17.763-10.527-17.763S220.7,431.459,222.021,431.459Z"
                          transform="translate(-212.579 -391.381)"/>
                </g>
                <g id="Group_624" data-name="Group 624" transform="translate(468.019 518.182)">
                    <ellipse id="Ellipse_37" data-name="Ellipse 37" class="cls-7" cx="37.5" cy="37.5" rx="37.5"
                             ry="37.5" transform="translate(0 0)"/>
                    <path id="Path_823" data-name="Path 823" class="cls-8"
                          d="M269.644,434.965l-7.237,11.842s-3.289,5.921,1.974,3.948c2.632-.658,1.974-2.632,3.289-1.974,0,0,1.974,1.315.658,5.921s-3.289,5.264-3.289,5.264h-.658c-.658-.658-2.632-.658-2.632.658v3.289l5.921,17.105a3.222,3.222,0,0,0,4.605.658c2.632-1.974,11.842-11.184,13.158-20.395.658-9.21-1.974-20.4-9.21-27.632C271.617,429.044,269.644,434.965,269.644,434.965Z"
                          transform="translate(-219.539 -418.224)"/>
                    <path id="Path_824" data-name="Path 824" class="cls-8"
                          d="M294.193,436.635l-5.921,15.132a1.351,1.351,0,0,1-1.974,1.315,8.16,8.16,0,0,1-1.974-1.315s0-2.632-.658-1.974c-1.315.658-6.579,1.316-9.868,4.606,0,0,0,.658,1.974,1.974s1.974,3.289,0,2.632-14.474,0-14.474,0-6.579,0-5.263-3.947,6.579-16.448,15.132-20.4,17.105-4.605,21.053-3.289C295.509,432.688,294.852,434.661,294.193,436.635Z"
                          transform="translate(-250.01 -424.499)"/>
                    <path id="Path_825" data-name="Path 825" class="cls-8"
                          d="M259.214,437.018l16.448-1.315s3.289,0,3.948.657,0,1.974-1.315,1.974-3.948.658-1.315,1.973a6.441,6.441,0,0,1,3.289,3.29c0,.658,2.632,2.632,4.605,2.632a2.877,2.877,0,0,0,1.974-2.632s.657-1.974.657,0c.658,1.315,3.948,14.474,3.948,14.474s1.315,4.605-2.632,4.605-10.527,1.974-22.369-5.921-10.527-17.763-10.527-17.763S257.9,437.018,259.214,437.018Z"
                          transform="translate(-249.899 -397.25)"/>
                </g>
                <g id="Group_626" data-name="Group 626" transform="translate(562.209 301.414)">
                    <ellipse id="Ellipse_39" data-name="Ellipse 39" class="cls-7" cx="36.183" cy="36.183" rx="36.183"
                             ry="36.183" transform="translate(0)"/>
                    <path id="Path_829" data-name="Path 829" class="cls-8"
                          d="M274.419,404.226l3.947,12.5s1.974,5.921,3.948,1.315c.658-1.974-.658-3.289,1.315-3.948,0,0,1.974-.658,4.605,3.29s1.974,5.921,1.974,5.921,0,.657-.658,0-1.974,1.315-1.315,1.974l1.974,1.973,16.448,6.579a3.471,3.471,0,0,0,3.289-2.632c.658-2.632,0-15.79-5.921-22.369s-15.79-11.842-25.658-11.184C271.787,399.621,274.419,404.226,274.419,404.226Z"
                          transform="translate(-244.818 -390.458)"/>
                    <path id="Path_830" data-name="Path 830" class="cls-8"
                          d="M286.284,401.276l6.579,13.816a1.823,1.823,0,0,1,0,2.632q-1.973.987-1.974,0c0-.658-1.974-1.974-1.974-.658-.658,1.315-3.289,5.921-2.632,9.868,0,0,.658.658,2.632,0s3.289.658,1.974,1.974-9.21,10.526-9.21,10.526-3.947,4.606-5.921.658c-1.974-3.29-7.237-15.132-4.606-23.685s7.895-15.131,11.184-17.105C284.311,397.328,285.626,399.3,286.284,401.276Z"
                          transform="translate(-263.921 -385.534)"/>
                    <path id="Path_831" data-name="Path 831" class="cls-8"
                          d="M272.71,418.345l9.868-12.5s1.974-1.974,3.289-1.974c.658,0,1.316,1.315.658,2.632-.658.658-1.974,3.29.658,1.974s4.605-.658,4.605,0c.658,0,3.948,0,4.605-1.974s-.657-2.632-.657-2.632-1.316-1.315.657-.658c1.315.658,12.5,5.921,12.5,5.921s3.948,1.974,1.974,5.264-5.264,8.553-18.421,11.842-19.737-3.948-19.737-3.948S272.052,419.66,272.71,418.345Z"
                          transform="translate(-252.978 -360.497)"/>
                </g>
                <g id="Group_628" data-name="Group 628" transform="translate(341.603 525.537)">
                    <path id="Path_1230" data-name="Path 1230" class="cls-7"
                          d="M37.5,0A37.5,37.5,0,1,1,0,37.5,37.5,37.5,0,0,1,37.5,0Z" transform="translate(0)"/>
                    <path id="Path_835" data-name="Path 835" class="cls-8"
                          d="M250.238,435.835,243,447.677s-3.289,5.921,1.974,3.948c2.632-.658,1.974-2.632,3.289-1.973,0,0,1.974,1.315.658,5.921s-3.289,5.263-3.289,5.263h-.658c-.658-.658-2.632-.658-2.632.658v3.289l5.921,17.1a3.222,3.222,0,0,0,4.606.658c2.632-1.974,11.842-11.184,13.158-20.4.658-9.21-1.974-20.395-9.21-27.632C251.554,430.572,250.238,435.835,250.238,435.835Z"
                          transform="translate(-200.035 -419.212)"/>
                    <path id="Path_836" data-name="Path 836" class="cls-8"
                          d="M274.687,437.847l-5.921,15.132a1.351,1.351,0,0,1-1.974,1.315,8.136,8.136,0,0,1-1.974-1.315c0-.658,0-2.632-.658-1.974-1.316.658-6.579,1.315-9.869,4.606,0,0,0,.657,1.974,1.973,1.974.658,1.974,3.29,0,2.632s-14.474,0-14.474,0-6.579,0-5.263-3.947,6.579-16.448,15.132-20.4,17.105-4.605,21.053-3.289C276,433.9,275.346,435.874,274.687,437.847Z"
                          transform="translate(-231.063 -425.172)"/>
                    <path id="Path_837" data-name="Path 837" class="cls-8"
                          d="M239.809,438.23l16.448-1.315s3.289,0,3.947.658,0,1.974-1.316,1.974-3.947.658-1.315,1.974a6.44,6.44,0,0,1,3.289,3.29c0,.657,2.632,2.632,4.605,2.632a2.878,2.878,0,0,0,1.974-2.632s.658-1.974.658,0c.658,1.315,3.947,14.474,3.947,14.474s1.316,4.606-2.632,4.606c-3.947.658-10.527,1.974-22.369-5.921S236.519,440.2,236.519,440.2A4.536,4.536,0,0,1,239.809,438.23Z"
                          transform="translate(-230.396 -397.923)"/>
                </g>
                <path id="Path_838" data-name="Path 838" class="cls-8"
                      d="M220.967,421.249s9.869,94.08,83.554,144.739l-11.185,14.474s-88.817-75-86.843-157.9Z"
                      transform="translate(-54.164 41.304)"/>
                <path id="Path_839" data-name="Path 839" class="cls-8"
                      d="M215.865,460.539s70.4-84.212,159.871-86.185l1.974,15.132s-86.185,3.947-147.371,81.58Z"
                      transform="translate(-2.351 -217.069)"/>
                <path id="Path_841" data-name="Path 841" class="cls-8"
                      d="M244.972,374.629s97.37-13.816,172.371,49.342l-10.527,13.816s-56.58-58.553-159.213-46.711Z"
                      transform="translate(158.018 -222.606)"/>
                <path id="Path_842" data-name="Path 842" class="cls-8"
                      d="M282.886,383.854s80.923,57.237,88.159,153.292h0l-15.79,1.974s-13.816-90.133-81.58-144.081Z"
                      transform="translate(316.161 -164.726)"/>
                <path id="Path_844" data-name="Path 844" class="cls-8"
                      d="M254.675,520.621S341.518,514.7,397.44,436.41l11.842,9.21s-55.922,79.607-152.634,90.133Z"
                      transform="translate(211.475 124.829)"/>
                <path id="Path_845" data-name="Path 845" class="cls-8"
                      d="M232.705,445.2s60.527,50.659,165.134,40.79l1.974,17.106S298.5,512.967,224.152,455.729Z"
                      transform="translate(43.31 173.274)"/>
                <g id="Group_629" data-name="Group 629" transform="translate(285.713 198.433)">
                    <ellipse id="Ellipse_42" data-name="Ellipse 42" class="cls-7" cx="37.5" cy="37.5" rx="37.5"
                             ry="37.5" transform="translate(0 0)"/>
                    <path id="Path_846" data-name="Path 846" class="cls-8"
                          d="M241.647,385.846l-7.237,11.842s-3.289,5.921,1.974,3.948c2.632-.658,1.974-2.632,3.289-1.974,0,0,1.974,1.316.658,5.921s-3.289,5.263-3.289,5.263h-.658c-.658-.658-2.632-.658-2.632.658v3.289l5.921,17.106a3.221,3.221,0,0,0,4.606.657c2.632-1.315,11.842-11.184,13.158-20.395.658-9.21-1.974-20.395-9.21-27.632C243.621,379.925,241.647,385.846,241.647,385.846Z"
                          transform="translate(-191.476 -369.098)"/>
                    <path id="Path_847" data-name="Path 847" class="cls-8"
                          d="M266.2,387.516l-5.921,15.132a1.351,1.351,0,0,1-1.974,1.315,8.139,8.139,0,0,1-1.974-1.315c0-.658,0-2.632-.658-1.973s-6.579,1.315-9.868,4.605c0,0,0,.658,1.974,1.974,1.974.658,1.974,3.289,0,2.632s-14.474,0-14.474,0-6.579,0-5.263-3.948,6.579-16.448,15.131-20.395,17.105-4.606,21.053-3.29C267.514,383.568,266.856,385.542,266.2,387.516Z"
                          transform="translate(-221.948 -375.373)"/>
                    <path id="Path_848" data-name="Path 848" class="cls-8"
                          d="M231.218,387.9l16.448-1.315s3.289,0,3.947.658,0,1.973-1.316,1.973-3.947.658-1.316,1.974a6.44,6.44,0,0,1,3.289,3.289s2.632,2.632,4.606,2.632a2.877,2.877,0,0,0,1.974-2.632s.658-1.974.658,0c.658,1.316,3.947,14.474,3.947,14.474s1.315,4.605-2.632,4.605-10.527,1.974-22.369-5.921-10.527-17.763-10.527-17.763S229.9,388.557,231.218,387.9Z"
                          transform="translate(-221.836 -348.124)"/>
                </g>
            </g>
            <g id="Group_1744" data-name="Group 1744" transform="translate(2827.882 2028.48)">
                <g id="Hand_links" transform="translate(244.882 308.663) rotate(-99)">
                    <g id="Group" transform="translate(0 0)">
                        <path id="Path" class="cls-9"
                              d="M282.492,67.064c2.875-7.721-64.693-8.175-54.63-12.262-.719,0-2.156-.454-2.875-.454L187.609,36.636,191.2,27.1s43.847.454,51.754-9.083c1.929-2.327,5.895-5.289,7.366-7.762,4.288-7.2,1.941-12.819-15.992-9.042-23.721,5-71.162,9.991-81.944,6.812C141.606,5.3,124.354,34.819,90.57,35.273c-15.1.454-35.222-.908-52.473-1.817C18.689,32.094.719,41.177,0,53.439c0,11.808,15.814,21.8,35.222,22.253l39.537,15.2,40.264,11.076c23.393,8.929,51.916,13.165,79.3,14.547,12.9.651,22.618-.5,35.9-.84l7.509-1.3C276.9,105.394,278.179,77.509,282.492,67.064Z"
                              transform="translate(0 1.125)"/>
                        <path id="Path-2" data-name="Path" class="cls-10"
                              d="M0,95.689C11.719,98.9,33.764,107.762,57.985,112.4c11.008,2.109,24.062,2.991,34.343,4.239,10.325,1.253,20.017.332,29.675.841,12.579.663,38.15-3.38,53.909-17.857,8.667-7.962,13.359-28.614,13.359-30.864,0-9.194-21.455-7.232-41.428-9.564-13.726-1.6-28.175-8.727-28.175-8.727-15.814-6.427-24.437-14.884-24.437-14.884s4.438-3.077,3.719-8.127c28.752-.918,54.435,3.127,60.9-20.287,0-1.543-.221-7.318-6.429-7.17-8.292.2-22.9,3.676-25.686,4.063-15.5,2.15-32.588,4.663-55.835,5.37C63.279,9.9,53.95,8.871,48.2,12.543c-5.887,3.939-9.86,12.329-18.23,14.819C25.8,28.6,19.331,31.774,15.145,33.6,10.788,35.5,7.6,34.9,2,35.3"
                              transform="translate(91.969 0)"/>
                    </g>
                    <path id="Path-3" data-name="Path" class="cls-11" d="M0,0" transform="translate(154.049 82.542)"/>
                    <path id="Path-4" data-name="Path" class="cls-12"
                          d="M0,0C5.386,2.558,28.639,11.655,52.384,14.277,76.158,16.9,100,9.023,106.086,10.014"
                          transform="translate(168.048 62.269)"/>
                    <path id="Path-5" data-name="Path" class="cls-12"
                          d="M0,0C5.386,2.558,28.639,11.655,52.384,14.277c23.774,2.625,49.4-12.3,55.492-11.312"
                          transform="translate(165.698 83.321)"/>
                </g>
                <path id="Path_2949" data-name="Path 2949" class="cls-8"
                      d="M1.316,30.264,76.975,163.819,192.766,95.4,119.739,0,0,7.237Z"
                      transform="matrix(-0.899, -0.438, 0.438, -0.899, 357.314, 369.032)"/>
                <path id="Path_2952" data-name="Path 2952" class="cls-7"
                      d="M0,78.864l16.008,28.688,131.259-78.58L124.906,0Z"
                      transform="matrix(-0.899, -0.438, 0.438, -0.899, 337.219, 287.852)"/>
                <path id="Path_2950" data-name="Path 2950" class="cls-5"
                      d="M466.269,385.169l-270.4,30.263L414.952,587.8S476.8,527.276,466.269,385.169Z"
                      transform="translate(-195.87 -385.169)"/>
                <g id="Group_1742" data-name="Group 1742" transform="translate(95.6 26.006)">
                    <ellipse id="Ellipse_40" data-name="Ellipse 40" class="cls-7" cx="36.183" cy="36.183" rx="36.183"
                             ry="36.183" transform="translate(0 0)"/>
                    <path id="Path_832" data-name="Path 832" class="cls-8"
                          d="M251.82,430.734l-3.947-12.5s-1.974-5.921-3.947-1.315c-.658,1.974.658,3.289-1.316,3.948,0,0-1.974.658-4.606-3.29s-1.974-5.921-1.974-5.921,0-.657.658,0c.658,0,1.974-1.316,1.316-1.973l-1.974-1.974-16.448-6.579a3.471,3.471,0,0,0-3.289,2.632c-.658,2.632,0,15.79,5.921,22.369s15.79,11.842,25.658,11.184C254.452,436,251.82,430.734,251.82,430.734Z"
                          transform="translate(-208.371 -372.314)"/>
                    <path id="Path_833" data-name="Path 833" class="cls-8"
                          d="M219.886,442.437l-6.579-13.816a1.823,1.823,0,0,1,0-2.632c1.316-1.316,1.974-.658,1.974,0s1.974,1.973,1.974.658c.658-1.315,3.289-5.921,2.632-9.868,0,0-.658-.658-2.632,0s-3.289-.658-1.974-1.974,9.21-10.527,9.21-10.527,3.947-4.605,5.921-.657c1.974,3.289,7.237,15.131,4.606,23.684s-7.895,15.132-11.185,17.106S221.2,444.411,219.886,442.437Z"
                          transform="translate(-169.857 -385.991)"/>
                    <path id="Path_834" data-name="Path 834" class="cls-8"
                          d="M253.42,415.319l-9.869,12.5s-1.974,1.974-3.289,1.974-1.316-1.316-.658-2.632c.658-.658,1.974-3.289-.658-1.974s-4.605.658-4.605,0c-.658,0-3.947,0-4.606,1.974s.658,2.632.658,2.632,1.316,1.315-.658.658c-1.316-.658-12.5-5.921-12.5-5.921s-3.947-1.974-1.974-5.264,5.263-8.553,18.421-11.842,19.737,3.948,19.737,3.948S254.078,414.66,253.42,415.319Z"
                          transform="translate(-200.76 -400.979)"/>
                </g>
                <path id="Path_2951" data-name="Path 2951" class="cls-8"
                      d="M249.086,388.1S270.138,496,214.875,566.392L201.717,558.5s51.974-71.711,29.606-168.424Z"
                      transform="translate(-19.904 -384.543)"/>
                <g id="Hand_links-2" data-name="Hand_links" transform="translate(228.718 208.483) rotate(-103)">
                    <g id="Group-2" data-name="Group" transform="translate(0 0)">
                        <path id="Path-6" data-name="Path" class="cls-9"
                              d="M85.493,33.316a178.551,178.551,0,0,0,28.617-2.854c8.341-1.667,15.793-4.822,20.261-8.129a9.613,9.613,0,0,0,1.863-1.678,95.382,95.382,0,0,0,6.755-9.2c4.288-7.2.731-14.174-17.2-10.4-23.721,5-70.448,10.046-80.619,8.848a7.661,7.661,0,0,0-2.722-.031,21.924,21.924,0,0,0-11.039,3.848,50.475,50.475,0,0,0-8.1,7.88c-.461.524-1.913.035-2.309.78-1.879,3.533-8.824,4.1-11.809,7.284-.641.684-3.4,1.245-3.794,1.954-.678,1.21-2.243.388-3.917,1.191-.456.223,1,1.858-.433,1.877L0,39.226l47.664,1.306Z"
                              transform="translate(4.445 0)"/>
                        <path id="Path-7" data-name="Path" class="cls-10"
                              d="M84.048,33.628c28.752-.918,58.416-3.041,64.885-26.455,0-1.543-.221-7.318-6.429-7.17-8.292.2-22.9,3.676-25.686,4.063-15.5,2.15-32.588,4.663-55.835,5.37-8.626.459-17.955-.566-23.705,3.107-5.887,3.939-11.662,12.388-20.032,14.879-1.383.411-3.948,2.3-5.862,3.266a11.063,11.063,0,0,1-6.082,1.4S3.4,43.242,2.946,48.852C2.11,59.069,0,70.39,0,70.39"
                              transform="translate(0 0.079)"/>
                    </g>
                    <path id="Path-8" data-name="Path" class="cls-11" d="M0,0" transform="translate(51.16 82.621)"/>
                    <path id="Path-9" data-name="Path" class="cls-12" d="M0,0" transform="translate(65.158 62.349)"/>
                </g>
                <path id="Path_2953" data-name="Path 2953" class="cls-7"
                      d="M0,78.864l16.008,28.688,131.259-78.58L124.906,0Z"
                      transform="matrix(-0.899, -0.438, 0.438, -0.899, 337.219, 287.852)"/>
            </g>
            <g id="Group_1745" data-name="Group 1745" transform="translate(2304.715 1708.435)">
                <g id="Hand_links-3" data-name="Hand_links" transform="translate(184.245 60.369) rotate(81)">
                    <g id="Group-3" data-name="Group" transform="translate(0 0)">
                        <path id="Path-10" data-name="Path" class="cls-13"
                              d="M282.492,67.064c2.875-7.721-64.693-8.175-54.63-12.262-.719,0-2.156-.454-2.875-.454L187.609,36.636,191.2,27.1s43.847.454,51.754-9.083c1.929-2.327,5.895-5.289,7.366-7.762,4.288-7.2,1.941-12.819-15.992-9.042-23.721,5-71.162,9.991-81.944,6.812C141.606,5.3,124.354,34.819,90.57,35.273c-15.1.454-35.222-.908-52.473-1.817C18.689,32.094.719,41.177,0,53.439c0,11.808,15.814,21.8,35.222,22.253l39.537,15.2,40.264,11.076c23.393,8.929,51.916,13.165,79.3,14.547,12.9.651,22.618-.5,35.9-.84l7.509-1.3C276.9,105.394,278.179,77.509,282.492,67.064Z"
                              transform="translate(0 1.125)"/>
                        <path id="Path-11" data-name="Path" class="cls-10"
                              d="M0,95.689C11.719,98.9,33.764,107.762,57.985,112.4c11.008,2.109,24.062,2.991,34.343,4.239,10.325,1.253,20.017.332,29.675.841,12.579.663,38.15-3.38,53.909-17.857,8.667-7.962,13.359-28.614,13.359-30.864,0-9.194-21.455-7.232-41.428-9.564-13.726-1.6-28.175-8.727-28.175-8.727-15.814-6.427-24.437-14.884-24.437-14.884s4.438-3.077,3.719-8.127c28.752-.918,54.435,3.127,60.9-20.287,0-1.543-.221-7.318-6.429-7.17-8.292.2-22.9,3.676-25.686,4.063-15.5,2.15-32.588,4.663-55.835,5.37C63.279,9.9,53.95,8.871,48.2,12.543c-5.887,3.939-9.86,12.329-18.23,14.819C25.8,28.6,19.331,31.774,15.145,33.6,10.788,35.5,7.605,34.9,2,35.3"
                              transform="translate(91.969 0)"/>
                    </g>
                    <path id="Path-12" data-name="Path" class="cls-11" d="M0,0" transform="translate(154.049 82.542)"/>
                    <path id="Path-13" data-name="Path" class="cls-12"
                          d="M0,0C5.386,2.558,28.639,11.655,52.384,14.277,76.158,16.9,100,9.023,106.086,10.014"
                          transform="translate(168.047 62.269)"/>
                    <path id="Path-14" data-name="Path" class="cls-12"
                          d="M0,0C5.386,2.558,28.639,11.655,52.384,14.277c23.774,2.625,49.4-12.3,55.492-11.312"
                          transform="translate(165.698 83.321)"/>
                </g>
                <path id="Path_2949-2" data-name="Path 2949" class="cls-8"
                      d="M1.316,30.264,76.975,163.819,192.766,95.4,119.739,0,0,7.237Z"
                      transform="matrix(0.899, 0.438, -0.438, 0.899, 71.813, 0)"/>
                <path id="Path_2952-2" data-name="Path 2952" class="cls-7"
                      d="M0,78.864l16.008,28.688,131.259-78.58L124.906,0Z"
                      transform="matrix(0.899, 0.438, -0.438, 0.899, 91.909, 81.179)"/>
                <path id="Path_2950-2" data-name="Path 2950" class="cls-5"
                      d="M197.076,587.8l270.4-30.263L248.393,385.169S186.55,445.7,197.076,587.8Z"
                      transform="translate(-38.347 -218.771)"/>
                <g id="Group_1742-2" data-name="Group 1742" transform="translate(261.161 270.659)">
                    <ellipse id="Ellipse_40-2" data-name="Ellipse 40" class="cls-7" cx="36.183" cy="36.183" rx="36.183"
                             ry="36.183" transform="translate(0)"/>
                    <path id="Path_832-2" data-name="Path 832" class="cls-8"
                          d="M216.608,407.763l3.947,12.5s1.974,5.921,3.947,1.315c.658-1.974-.658-3.289,1.316-3.948,0,0,1.974-.658,4.606,3.29s1.974,5.921,1.974,5.921,0,.657-.658,0c-.658,0-1.974,1.316-1.316,1.973l1.974,1.974,16.448,6.579a3.471,3.471,0,0,0,3.289-2.632c.658-2.632,0-15.79-5.921-22.369s-15.79-11.842-25.658-11.184C213.976,402.5,216.608,407.763,216.608,407.763Z"
                          transform="translate(-187.69 -393.816)"/>
                    <path id="Path_833-2" data-name="Path 833" class="cls-8"
                          d="M228.575,404.814l6.579,13.816a1.823,1.823,0,0,1,0,2.632c-1.316,1.316-1.974.658-1.974,0s-1.974-1.973-1.974-.658c-.658,1.315-3.289,5.921-2.632,9.868,0,0,.658.658,2.632,0s3.289.658,1.974,1.974-9.21,10.527-9.21,10.527-3.947,4.605-5.921.657c-1.974-3.289-7.237-15.131-4.606-23.684s7.895-15.132,11.185-17.106S227.26,402.84,228.575,404.814Z"
                          transform="translate(-206.237 -388.892)"/>
                    <path id="Path_834-2" data-name="Path 834" class="cls-8"
                          d="M215,421.882l9.869-12.5s1.974-1.974,3.289-1.974,1.316,1.316.658,2.632c-.658.658-1.974,3.289.658,1.974s4.605-.658,4.605,0c.658,0,3.947,0,4.606-1.974s-.658-2.632-.658-2.632-1.316-1.315.658-.658c1.316.658,12.5,5.921,12.5,5.921s3.947,1.974,1.974,5.264-5.263,8.553-18.421,11.842S215,425.83,215,425.83,214.342,422.54,215,421.882Z"
                          transform="translate(-195.293 -363.855)"/>
                </g>
                <path id="Path_2951-2" data-name="Path 2951" class="cls-8"
                      d="M205.654,566.392S184.6,458.5,239.865,388.1l13.158,7.895s-51.974,71.711-29.606,168.424Z"
                      transform="translate(-5.708 -200.917)"/>
                <g id="Hand_links-4" data-name="Hand_links" transform="translate(200.41 160.548) rotate(77)">
                    <g id="Group-4" data-name="Group" transform="translate(0 0)">
                        <path id="Path-15" data-name="Path" class="cls-13"
                              d="M85.493,33.316a178.551,178.551,0,0,0,28.617-2.854c8.341-1.667,15.793-4.822,20.261-8.129a9.613,9.613,0,0,0,1.863-1.678,95.38,95.38,0,0,0,6.755-9.2c4.288-7.2.731-14.174-17.2-10.4-23.721,5-70.448,10.046-80.619,8.848a7.661,7.661,0,0,0-2.722-.031,21.924,21.924,0,0,0-11.039,3.848,50.475,50.475,0,0,0-8.1,7.88c-.461.524-1.913.035-2.309.78-1.879,3.533-8.824,4.1-11.809,7.284-.641.684-3.4,1.245-3.794,1.954-.678,1.21-2.243.388-3.917,1.191-.456.223,1,1.858-.433,1.877L0,39.226l47.664,1.306Z"
                              transform="translate(4.445 0)"/>
                        <path id="Path-16" data-name="Path" class="cls-10"
                              d="M84.048,33.628c28.752-.918,58.416-3.041,64.885-26.455,0-1.543-.221-7.318-6.429-7.17-8.292.2-22.9,3.676-25.686,4.063-15.5,2.15-32.588,4.663-55.835,5.37-8.626.459-17.955-.566-23.705,3.107-5.887,3.939-11.662,12.388-20.032,14.879-1.383.411-3.948,2.3-5.862,3.266a11.063,11.063,0,0,1-6.082,1.4S3.4,43.242,2.946,48.852C2.11,59.069,0,70.39,0,70.39"
                              transform="translate(0 0.079)"/>
                    </g>
                    <path id="Path-17" data-name="Path" class="cls-11" d="M0,0" transform="translate(51.16 82.621)"/>
                    <path id="Path-18" data-name="Path" class="cls-12" d="M0,0" transform="translate(65.158 62.349)"/>
                </g>
                <path id="Path_2953-2" data-name="Path 2953" class="cls-7"
                      d="M0,78.864l16.008,28.688,131.259-78.58L124.906,0Z"
                      transform="matrix(0.899, 0.438, -0.438, 0.899, 91.909, 81.179)"/>
            </g>
        </g>
    </g>
</svg>
