<svg xmlns="http://www.w3.org/2000/svg" width="98.5" height="45" viewBox="0 0 98.5 45">
  <defs>
    <style>
      .cls-1 {
      fill: #f5aa1b;
      }

      .cls-2 {
      fill: #87c669;
      }

      .cls-3 {
      fill: #fff;
      }
    </style>
  </defs>
  <g id="Group_1933" data-name="Group 1933" transform="translate(-2 -0.21)">
    <g id="Group_1924" data-name="Group 1924" transform="translate(2 0.21)">
      <g id="Group_1892" data-name="Group 1892">
        <path id="Subtraction_1" data-name="Subtraction 1" class="cls-1" d="M7.508,6.764a8.258,8.258,0,0,1-2.873-.51A7.585,7.585,0,0,1,2.2,4.8,6.67,6.67,0,0,1,.57,2.623,6.05,6.05,0,0,1,0,.054C0,.04,0,.025,0,.01H15.035V0c0,.015,0,.031,0,.046V.054a6.052,6.052,0,0,1-.591,2.611A6.7,6.7,0,0,1,12.833,4.8a7.6,7.6,0,0,1-2.39,1.438,8.257,8.257,0,0,1-2.927.527Z" transform="translate(2.255 38.236)"/>
        <path id="Subtraction_2" data-name="Subtraction 2" class="cls-1" d="M7.508,10.62a8.257,8.257,0,0,1-2.873-.51A7.587,7.587,0,0,1,2.2,8.658,6.673,6.673,0,0,1,.57,6.48,6.05,6.05,0,0,1,0,3.911c0-.015,0-.03,0-.044H13.626V0a6.189,6.189,0,0,1,1.409,3.911,6.052,6.052,0,0,1-.591,2.611,6.7,6.7,0,0,1-1.611,2.133,7.6,7.6,0,0,1-2.39,1.438,8.256,8.256,0,0,1-2.927.527Z" transform="translate(23.211 34.38)"/>
        <path id="Cart_4_" class="cls-2" d="M68.112,81.562c-1.479-.058-5.591-.1-5.591-.1-1.3-4.176-6.212-6.071-11.031-6.006-4.6.062-9,2.233-10.055,6.006H36.349a6.016,6.016,0,0,0-3.369,1.66,4.87,4.87,0,0,0-1.241,2.747l0,25.209a3.671,3.671,0,0,0,1.329,2.813,6.381,6.381,0,0,0,3.328,1.493l31.6.046a4.6,4.6,0,0,0,3.1-1.485,5.153,5.153,0,0,0,1.346-3.154l.023-24.681a4.52,4.52,0,0,0-.982-2.661A4.378,4.378,0,0,0,68.112,81.562Zm-6.526-.1H42.445c1.1-2.824,4.437-5.183,9.366-5.194,4.238.042,8.346,1.718,9.775,5.194Z" transform="translate(-31.739 -75.457)"/>
      </g>
    </g>
    <g id="XMLID_1_" transform="translate(9.677 12.36)">
      <path id="XMLID_2_" class="cls-3" d="M167.454,180.385v-3.953l5.393,7.172H183.5l-2.75-4.258-9.187-1.278L179.3,177l-2.512-3.493-9.423-1.224,8.936-1.174c.5-.714,1.345-1.9,1.345-1.9l1.231-1.673-7.077-.945,8.612-1.168L183.5,161.2h-11l-5.048,7.156V161.2h-9.511s.043,7.368,0,15.422L157.9,183.6h9.554Z" transform="translate(-157.9 -161.197)"/>
    </g>
    <g id="Group_1859" data-name="Group 1859" transform="translate(48.117 12.646)">
      <g id="Group_1857" data-name="Group 1857">
        <path id="Path_3096" data-name="Path 3096" class="cls-2" d="M60,228v22.022h3.658l.038-6.936c.4.422.761.886,1.142,1.327,1.033,1.2,2.053,2.4,3.082,3.6l1.169,1.365c.163.19.339.49.566.605a1.032,1.032,0,0,0,.452.039h4.3a6.391,6.391,0,0,0-.588-.72q-.566-.667-1.141-1.327c-1.053-1.2-2.089-2.422-3.126-3.639-.626-.735-1.259-1.464-1.886-2.2A6.621,6.621,0,0,0,66.637,241c.742-.745,1.512-1.463,2.263-2.2.845-.828,1.663-1.689,2.527-2.5.487-.456.94-.951,1.433-1.4a3.258,3.258,0,0,0,.83-.878H69.654a1.261,1.261,0,0,0-.446.023c-.233.1-.463.434-.626.622-.348.4-.728.779-1.084,1.175-.6.667-1.228,1.312-1.838,1.971-.654.706-1.286,1.44-1.964,2.123V228H60m44.764,1.516v15.389a6.285,6.285,0,0,0,.281,2.464A4.453,4.453,0,0,0,108.158,250a7.709,7.709,0,0,0,2.225.032,6.386,6.386,0,0,0,1.471-.234c.137-.046.4-.088.489-.211a.494.494,0,0,0,.039-.282v-2.919c-.261.075-.5.219-.754.3a4.435,4.435,0,0,1-1.4.191,1.515,1.515,0,0,1-.943-.213c-.834-.583-.641-1.784-.641-2.668v-7.088h3.733v-2.957h-3.733v-4.435Z" transform="translate(-60 -228)"/>
        <path id="Path_3098" data-name="Path 3098" class="cls-2" d="M918.934,392.972h3.677V381.116c0-.2-.089-.688.06-.835.089-.088.274-.087.39-.106.35-.057.7-.079,1.05-.12a16.656,16.656,0,0,1,2.7-.066,12.916,12.916,0,0,1,1.8.151V378c0-.187.079-.608-.06-.752a1.207,1.207,0,0,0-.465-.224,6.392,6.392,0,0,0-1.351-.236,9.009,9.009,0,0,0-1.913.042A16.91,16.91,0,0,0,921,377.7a12.042,12.042,0,0,0-1.5.628c-.161.081-.426.16-.524.322a.638.638,0,0,0-.039.325v13.994Z" transform="translate(-886.35 -370.949)"/>
        <path id="Path_3111" data-name="Path 3111" class="cls-2" d="M493.157-600.644a13.425,13.425,0,0,0-4.768,1.137l-.221.124-.011,1.673c0,.923,0,1.677.015,1.677s.184-.109.383-.24a7.875,7.875,0,0,1,2.611-1.069,7.763,7.763,0,0,1,3.422-.116,3.316,3.316,0,0,1,1.613.8,2.721,2.721,0,0,1,.634,1.223,13.335,13.335,0,0,1,.071,2.169c-.019-.008-.233-.113-.48-.233a8.963,8.963,0,0,0-2.761-.78,14.581,14.581,0,0,0-2.626.019c-2.371.368-3.782,1.572-4.2,3.583a7.552,7.552,0,0,0,0,2.739,3.757,3.757,0,0,0,1.231,2.184,5.814,5.814,0,0,0,3.084,1.388,11.756,11.756,0,0,0,2.607.173c3.069-.071,4.937-.574,5.954-1.6a2.905,2.905,0,0,0,.777-1.7c.056-.405.056-8.153,0-8.648a4.489,4.489,0,0,0-1.264-2.81,4.3,4.3,0,0,0-1.3-.927A8.974,8.974,0,0,0,493.157-600.644Zm1.163,8.978a8.5,8.5,0,0,1,2.262.439l.345.116v1.474c0,.927-.015,1.55-.041,1.67-.146.687-.889.953-2.791,1a5.955,5.955,0,0,1-1.227-.038,4.34,4.34,0,0,1-1.347-.443,1.94,1.94,0,0,1-1.066-1.1,2.906,2.906,0,0,1-.079-1.422c.248-1.043,1.2-1.617,2.836-1.707.259-.015.51-.023.563-.019S494.073-591.677,494.32-591.666Z" transform="translate(-471.157 606.223)"/>
      </g>
    </g>
  </g>
</svg>