<svg xmlns="http://www.w3.org/2000/svg" xmlns:xlink="http://www.w3.org/1999/xlink" width="456" height="210" viewBox="0 0 456 210">
  <defs>
    <style>
      .cls-1 {
      clip-path: url(#clip-Owami_180px_1);
      }

      .cls-2 {
      fill: none;
      }

      .cls-3 {
      fill: #f5aa1b;
      }

      .cls-4 {
      fill: #87c669;
      }

      .cls-5 {
      fill: #fff;
      }
    </style>
    <clipPath id="clip-Owami_180px_1">
      <rect width="456" height="210"/>
    </clipPath>
  </defs>
  <g id="Owami_180px_1" class="cls-1">
    <path id="Path_69" data-name="Path 69" class="cls-2" d="M92.095,80.012c.008-1.722-11.214-.428-11.214-.428S92.088,81.707,92.095,80.012Z" transform="translate(213.647 0.882)"/>
    <g id="Group_1893" data-name="Group 1893" transform="translate(-23)">
      <g id="Group_1892" data-name="Group 1892" transform="translate(3048 -6130)">
        <g id="Group_1842" data-name="Group 1842" transform="translate(-2995.102 6274.134)">
          <path id="Wheel_2_4_" class="cls-3" d="M95.967,432.09a27.184,27.184,0,1,1-27.186,27.184A27.186,27.186,0,0,1,95.967,432.09Z" transform="translate(-68.781 -432.09)"/>
          <path id="Wheel_1_4_" class="cls-3" d="M330.159,432.09a27.2,27.2,0,1,1-27.178,27.184A27.188,27.188,0,0,1,330.159,432.09Z" transform="translate(-227.754 -432.09)"/>
        </g>
        <path id="Cart_4_" class="cls-4" d="M183.861,100.483c-6.184-.235-23.383-.4-23.383-.4-5.451-17.021-25.5-28.1-45.647-27.833-19.224.254-38.11,12.456-42.539,27.833H51.02c-2.669.08-9.433,2.209-14.09,6.767a19.6,19.6,0,0,0-5.191,11.194l.021,102.741c-.005,2.773.689,7.076,5.559,11.463a27.052,27.052,0,0,0,13.919,6.087l132.174.187c2.977,0,8.158-1.329,12.967-6.05a20.708,20.708,0,0,0,5.631-12.855l.1-100.588A18.122,18.122,0,0,0,198,108.185C193.633,103.323,190.044,100.718,183.861,100.483Zm-29.169-.4H78.154c4.6-11.511,20.382-23.119,36.677-23.26,16.788-.146,33.886,9.094,39.862,23.26Z" transform="translate(-3046.2 6068.753)"/>
      </g>
      <g id="XMLID_1_" transform="translate(-22 7.219)">
        <path id="XMLID_2_" class="cls-5" d="M192.448,230.578V216.286l19.5,25.933h38.519l-9.944-15.4L207.3,222.2l27.961-3.874L226.18,205.7l-34.072-4.425,32.311-4.244c1.808-2.58,4.863-6.855,4.863-6.855l4.45-6.048-25.589-3.417,31.139-4.223,11.19-15.288H210.7l-18.251,25.874V161.2H158.055s.155,26.642,0,55.766l-.155,25.256h34.548Z" transform="translate(-62.9 -100.417)"/>
      </g>
    </g>
    <g id="Group_1859" data-name="Group 1859" transform="translate(201.854 68.987)">
      <g id="Group_1857" data-name="Group 1857">
        <path id="Path_3096" data-name="Path 3096" class="cls-4" d="M60,228v78.7H73.139l.135-24.787c1.442,1.506,2.734,3.166,4.1,4.741,3.71,4.271,7.372,8.584,11.069,12.868l4.2,4.876c.586.68,1.217,1.751,2.032,2.163a3.726,3.726,0,0,0,1.625.139h15.441a22.852,22.852,0,0,0-2.11-2.574q-2.032-2.385-4.1-4.741c-3.781-4.3-7.5-8.654-11.227-13-2.248-2.627-4.522-5.231-6.772-7.856a23.709,23.709,0,0,0-3.694-4.063c2.664-2.664,5.431-5.228,8.127-7.858,3.035-2.961,5.973-6.036,9.075-8.926,1.748-1.629,3.376-3.4,5.147-5,1.006-.91,2.4-1.891,2.98-3.138H94.675a4.552,4.552,0,0,0-1.6.082c-.838.342-1.664,1.549-2.248,2.221-1.25,1.439-2.614,2.785-3.894,4.2-2.158,2.385-4.409,4.69-6.6,7.043-2.351,2.523-4.617,5.146-7.056,7.585V228H60m160.777,5.418V288.41c0,3.061-.163,5.91,1.009,8.8a15.972,15.972,0,0,0,11.181,9.391,27.829,27.829,0,0,0,7.991.114,23.038,23.038,0,0,0,5.282-.836c.492-.164,1.437-.313,1.757-.753a1.758,1.758,0,0,0,.14-1.008v-10.43c-.937.268-1.781.783-2.709,1.08a16.008,16.008,0,0,1-5.012.681,5.463,5.463,0,0,1-3.386-.762c-3-2.082-2.3-6.375-2.3-9.532V259.83h13.409V249.265H234.729V233.418Z" transform="translate(-60 -228)"/>
        <path id="Path_3098" data-name="Path 3098" class="cls-4" d="M918.94,435.3h13.274V392.5c0-.708-.32-2.485.217-3.015.322-.318.987-.313,1.409-.382,1.262-.208,2.527-.284,3.793-.434a60.153,60.153,0,0,1,9.752-.237,46.657,46.657,0,0,1,6.5.547v-7.721c0-.676.284-2.2-.217-2.714a4.356,4.356,0,0,0-1.68-.808,23.063,23.063,0,0,0-4.876-.852,32.53,32.53,0,0,0-6.908.151,61.056,61.056,0,0,0-13.816,3.139,43.5,43.5,0,0,0-5.418,2.269c-.582.291-1.539.579-1.892,1.162a2.305,2.305,0,0,0-.139,1.174V435.3Z" transform="translate(-802.048 -356.606)"/>
        <path id="Path_3111" data-name="Path 3111" class="cls-4" d="M509.981-600.568c-6.122.352-13.68,2.154-17.216,4.1l-.8.447-.041,6.041c-.014,3.332,0,6.055.054,6.055s.664-.393,1.382-.867a28.432,28.432,0,0,1,9.427-3.86,28.026,28.026,0,0,1,12.353-.42,11.971,11.971,0,0,1,5.824,2.9,9.824,9.824,0,0,1,2.289,4.416c.244,1.138.474,7.937.257,7.829-.068-.027-.84-.406-1.734-.84a32.357,32.357,0,0,0-9.969-2.817,52.631,52.631,0,0,0-9.481.068c-8.56,1.327-13.653,5.675-15.157,12.935a27.26,27.26,0,0,0-.014,9.888,13.562,13.562,0,0,0,4.443,7.883c2.736,2.546,5.987,4.009,11.134,5.012a42.453,42.453,0,0,0,9.414.623c11.08-.257,17.825-2.072,21.5-5.784a10.489,10.489,0,0,0,2.8-6.122c.2-1.463.2-29.433,0-31.221a16.206,16.206,0,0,0-4.565-10.145,15.515,15.515,0,0,0-4.7-3.346C522.4-600.162,517.295-600.988,509.981-600.568Zm4.2,32.413a30.709,30.709,0,0,1,8.168,1.585l1.246.42v5.323c0,3.346-.054,5.594-.149,6.027-.528,2.479-3.21,3.44-10.077,3.6a21.49,21.49,0,0,1-4.429-.135,15.676,15.676,0,0,1-4.863-1.6,7,7,0,0,1-3.847-3.969,10.493,10.493,0,0,1-.284-5.133c.894-3.765,4.321-5.838,10.24-6.163.935-.054,1.842-.081,2.032-.068S513.286-568.2,514.18-568.156Z" transform="translate(-430.947 619.897)"/>
      </g>
    </g>
  </g>
</svg>
