<svg xmlns="http://www.w3.org/2000/svg" xmlns:xlink="http://www.w3.org/1999/xlink" width="225" height="117" viewBox="0 0 225 117">
  <defs>
    <style>
      .cls-1 {
      clip-path: url(#clip-KKART-90px_1);
      }

      .cls-2 {
      fill: #87c669;
      }

      .cls-3 {
      fill: #f5aa1b;
      }

      .cls-4 {
      fill: #fff;
      }
    </style>
    <clipPath id="clip-KKART-90px_1">
      <rect width="225" height="117"/>
    </clipPath>
  </defs>
  <g id="KKART-90px_1" class="cls-1">
    <g id="Group_1900" data-name="Group 1900">
      <g id="Group_1859" data-name="Group 1859" transform="translate(102.124 40)">
        <g id="Group_1857" data-name="Group 1857">
          <path id="Path_3096" data-name="Path 3096" class="cls-2" d="M60,228v40.071h6.619l.068-12.621c.726.767,1.378,1.612,2.066,2.414,1.869,2.175,3.714,4.371,5.576,6.552l2.115,2.483c.3.346.613.892,1.024,1.1a1.858,1.858,0,0,0,.819.071h7.779A11.61,11.61,0,0,0,85,266.761q-1.024-1.214-2.065-2.414c-1.905-2.188-3.781-4.407-5.656-6.621-1.133-1.337-2.278-2.664-3.412-4a12.029,12.029,0,0,0-1.861-2.069c1.342-1.356,2.736-2.662,4.094-4,1.529-1.507,3.009-3.073,4.572-4.545.881-.829,1.7-1.73,2.593-2.546a5.913,5.913,0,0,0,1.5-1.6h-7.3a2.27,2.27,0,0,0-.807.042c-.422.174-.838.789-1.132,1.131-.63.733-1.317,1.418-1.962,2.138-1.087,1.215-2.221,2.388-3.326,3.586-1.184,1.285-2.326,2.62-3.555,3.862V228H60m81,2.759v28a11.5,11.5,0,0,0,.508,4.483,8.07,8.07,0,0,0,5.633,4.782,13.876,13.876,0,0,0,4.026.058,11.494,11.494,0,0,0,2.661-.426c.248-.083.724-.159.885-.383a.9.9,0,0,0,.07-.513V261.45c-.472.137-.9.4-1.365.55a7.985,7.985,0,0,1-2.525.347,2.729,2.729,0,0,1-1.706-.388c-1.509-1.06-1.16-3.246-1.16-4.854v-12.9h6.756v-5.38h-6.756v-8.069Z" transform="translate(-60 -228)"/>
          <path id="Path_3098" data-name="Path 3098" class="cls-2" d="M918.936,406.235h6.684V384.683c0-.356-.161-1.251.109-1.518.162-.16.5-.158.709-.192.636-.1,1.273-.143,1.91-.219a30.289,30.289,0,0,1,4.911-.12,23.5,23.5,0,0,1,3.274.275v-3.888c0-.34.143-1.105-.109-1.366a2.194,2.194,0,0,0-.846-.407,11.617,11.617,0,0,0-2.455-.429,16.38,16.38,0,0,0-3.478.076,30.741,30.741,0,0,0-6.957,1.58,21.882,21.882,0,0,0-2.728,1.142c-.293.146-.775.292-.953.585a1.16,1.16,0,0,0-.07.591v25.439Z" transform="translate(-860.038 -366.162)"/>
          <path id="Path_3111" data-name="Path 3111" class="cls-2" d="M498.429-600.62a24.405,24.405,0,0,0-8.669,2.067l-.4.225-.021,3.042c-.007,1.678,0,3.049.027,3.049s.334-.2.7-.437a14.317,14.317,0,0,1,4.747-1.944,14.112,14.112,0,0,1,6.22-.211,6.028,6.028,0,0,1,2.933,1.46,4.946,4.946,0,0,1,1.153,2.223,24.243,24.243,0,0,1,.13,3.942c-.034-.014-.423-.2-.873-.423a16.293,16.293,0,0,0-5.02-1.419,26.5,26.5,0,0,0-4.774.034c-4.31.668-6.875,2.858-7.632,6.513a13.725,13.725,0,0,0-.007,4.979,6.829,6.829,0,0,0,2.237,3.969,10.57,10.57,0,0,0,5.606,2.523,21.385,21.385,0,0,0,4.74.314c5.579-.13,8.975-1.044,10.824-2.912a5.281,5.281,0,0,0,1.412-3.083c.1-.737.1-14.82,0-15.721a8.16,8.16,0,0,0-2.3-5.108,7.812,7.812,0,0,0-2.367-1.685C504.683-600.416,502.112-600.832,498.429-600.62Zm2.114,16.321a15.465,15.465,0,0,1,4.113.8l.627.211v2.68c0,1.685-.027,2.817-.075,3.035-.266,1.248-1.616,1.732-5.074,1.814a10.819,10.819,0,0,1-2.23-.068,7.891,7.891,0,0,1-2.448-.8,3.526,3.526,0,0,1-1.937-2,5.284,5.284,0,0,1-.143-2.585c.45-1.9,2.176-2.94,5.156-3.1.471-.027.928-.041,1.023-.034S500.093-584.32,500.543-584.3Z" transform="translate(-458.612 610.8)"/>
        </g>
      </g>
      <g id="Group_1892" data-name="Group 1892" transform="translate(6 12)">
        <g id="Group_1842" data-name="Group 1842" transform="translate(9.605 66.058)">
          <path id="Wheel_2_4_" class="cls-3" d="M82.27,432.09a13.488,13.488,0,1,1-13.489,13.488A13.489,13.489,0,0,1,82.27,432.09Z" transform="translate(-68.781 -432.09)"/>
          <path id="Wheel_1_4_" class="cls-3" d="M316.466,432.09a13.5,13.5,0,1,1-13.485,13.488A13.49,13.49,0,0,1,316.466,432.09Z" transform="translate(-264.116 -432.09)"/>
        </g>
        <path id="Cart_4_" class="cls-2" d="M108.592,86.257c-3.124-.117-11.813-.2-11.813-.2-2.754-8.446-12.88-13.942-23.061-13.81-9.712.126-19.253,6.18-21.491,13.81H41.48a12.962,12.962,0,0,0-7.118,3.358,9.642,9.642,0,0,0-2.623,5.554l.011,50.977a7.284,7.284,0,0,0,2.808,5.688,13.8,13.8,0,0,0,7.032,3.02l66.775.093a9.919,9.919,0,0,0,6.551-3,10.177,10.177,0,0,0,2.845-6.378l.049-49.909a8.892,8.892,0,0,0-2.075-5.382C113.529,87.666,111.716,86.374,108.592,86.257Zm-14.736-.2H55.188c2.322-5.712,10.3-11.471,18.529-11.541,8.481-.073,17.119,4.512,20.138,11.541Z" transform="translate(-31.739 -72.247)"/>
      </g>
      <g id="XMLID_1_" transform="translate(26.36 40)">
        <path id="XMLID_2_" class="cls-4" d="M175.042,195.622v-7.091l9.676,12.867h19.112l-4.934-7.64-16.483-2.294,13.874-1.922-4.507-6.267-16.906-2.2,16.032-2.106c.9-1.28,2.413-3.4,2.413-3.4l2.208-3-12.7-1.7,15.45-2.1,5.552-7.586H184.1l-9.056,12.838V161.2H157.977s.077,13.219,0,27.67L157.9,201.4h17.142Z" transform="translate(-157.9 -161.197)"/>
      </g>
    </g>
  </g>
</svg>