<svg xmlns="http://www.w3.org/2000/svg" width="1613.085" height="728.79" viewBox="0 0 1613.085 728.79">
  <defs>
    <style>
      .cls-1 {
      fill: #87c669;
      }

      .cls-2 {
      fill: #f5aa1b;
      }

      .cls-3 {
      fill: #fff;
      }
    </style>
  </defs>
  <g id="Group_1961" data-name="Group 1961" transform="translate(-2 -3.21)">
    <g id="Group_1859" data-name="Group 1859" transform="translate(791 208.418)">
      <g id="Group_1857" data-name="Group 1857">
        <path id="Path_3096" data-name="Path 3096" class="cls-1" d="M60,228V574.45h57.547l.593-109.123c6.315,6.632,11.976,13.94,17.965,20.87,16.249,18.8,32.291,37.791,48.481,56.648l18.391,21.467c2.569,2.992,5.332,7.709,8.9,9.524,2.062,1.049,4.878.613,7.117.613h67.633c-2.568-4.127-6.107-7.631-9.243-11.33q-8.9-10.5-17.956-20.87c-16.563-18.919-32.87-38.1-49.173-57.245-9.847-11.563-19.808-23.029-29.663-34.585-4.985-5.846-9.925-13.424-16.179-17.889,11.667-11.727,23.788-23.017,35.6-34.594,13.293-13.033,26.162-26.572,39.749-39.294,7.657-7.169,14.787-14.96,22.544-22.015,4.406-4.008,10.5-8.324,13.052-13.816h-63.48c-2.15,0-4.989-.472-7.018.36-3.672,1.5-7.289,6.82-9.845,9.777-5.476,6.336-11.451,12.261-17.054,18.485-9.453,10.5-19.313,20.646-28.916,31.008-10.3,11.108-20.225,22.653-30.9,33.393V228H60m704.211,23.852v242.1c0,13.474-.712,26.017,4.42,38.759,8.235,20.423,27.409,36.744,48.974,41.342,10.922,2.329,23.962,1.556,35,.5,7.932-.758,15.5-1.116,23.138-3.679,2.154-.722,6.295-1.378,7.695-3.315.86-1.19.611-3.056.611-4.436V517.205c-4.106,1.18-7.8,3.448-11.865,4.753a69.778,69.778,0,0,1-21.951,3c-5.4,0-10.2-.124-14.832-3.353-13.123-9.164-10.086-28.066-10.086-41.966V368.13h58.734V321.619H825.318V251.852Z" transform="translate(-60 -228)"/>
        <path id="Path_3098" data-name="Path 3098" class="cls-1" d="M918.972,631.876h57.842V445.365c0-3.084-1.393-10.831.944-13.137,1.4-1.386,4.3-1.364,6.138-1.666,5.5-.9,11.013-1.239,16.526-1.892,14.177-1.678,28.272-1.658,42.5-1.035,9.456.414,18.988.648,28.331,2.384V396.377c0-2.945,1.24-9.566-.944-11.825-1.753-1.813-4.993-2.731-7.319-3.519-7.059-2.391-13.953-2.851-21.248-3.713-9.969-1.176-20.162-.3-30.1.659-20.617,2-40.607,7-60.2,13.677a189.538,189.538,0,0,0-23.609,9.886c-2.534,1.267-6.708,2.524-8.247,5.062-.883,1.456-.606,3.492-.607,5.118V631.876Z" transform="translate(-406.379 -285.415)"/>
        <path id="Path_3111" data-name="Path 3111" class="cls-1" d="M588.105-600.217c-26.678,1.535-59.612,9.385-75.017,17.884l-3.482,1.948-.177,26.324c-.059,14.52,0,26.383.236,26.383.177,0,2.892-1.712,6.02-3.777,11.155-7.437,23.963-12.69,41.08-16.821,19.064-4.663,36.948-5.253,53.828-1.83,10.034,2.066,19.241,6.669,25.38,12.631,4.309,4.309,8.44,12.218,9.975,19.241,1.062,4.958,2.066,34.587,1.121,34.115-.3-.118-3.659-1.771-7.555-3.659-12.218-5.961-27.622-10.329-43.44-12.277-9.385-1.18-32.875-1-41.316.3-37.3,5.784-59.494,24.73-66.046,56.366-2.656,12.69-2.656,30.4-.059,43.086,2.892,14.342,8.5,24.258,19.359,34.351,11.922,11.1,26.088,17.471,48.516,21.838,11.864,2.3,24.258,3.128,41.021,2.715,48.28-1.121,77.673-9.03,93.668-25.2,6.551-6.611,10.8-15.818,12.218-26.678.885-6.374.885-128.255,0-136.046-2.007-18.415-8.381-32.521-19.891-44.208-6.315-6.433-11.568-10.152-20.481-14.579C642.229-598.446,619.977-602.047,588.105-600.217Zm18.3,141.24a133.813,133.813,0,0,1,35.591,6.906l5.43,1.83v23.2c0,14.578-.236,24.376-.649,26.265-2.3,10.8-13.988,14.992-43.913,15.7-10.86.3-14.7.177-19.3-.59a68.316,68.316,0,0,1-21.189-6.965c-9.266-4.84-13.516-9.207-16.762-17.294-2.184-5.371-2.715-15.936-1.239-22.369,3.9-16.408,18.828-25.439,44.621-26.855,4.073-.236,8.027-.354,8.853-.3C598.67-459.331,602.507-459.154,606.4-458.977Z" transform="translate(-242.003 687.985)"/>
      </g>
    </g>
    <g id="Group_1959" data-name="Group 1959">
      <g id="Group_1924" data-name="Group 1924" transform="translate(2 3.21)">
        <g id="Group_1892" data-name="Group 1892">
          <path id="Subtraction_1" data-name="Subtraction 1" class="cls-2" d="M116.6,105.043a128.246,128.246,0,0,1-44.625-7.921,117.8,117.8,0,0,1-37.83-22.564,103.6,103.6,0,0,1-25.3-33.819A93.955,93.955,0,0,1,0,.846C0,.615,0,.386,0,.154H233.5V0c0,.236,0,.476,0,.713V.846A93.989,93.989,0,0,1,224.33,41.4,104.078,104.078,0,0,1,199.3,74.52a118.071,118.071,0,0,1-37.118,22.333,128.23,128.23,0,0,1-45.455,8.19Z" transform="translate(35.014 623.748)"/>
          <path id="Subtraction_2" data-name="Subtraction 2" class="cls-2" d="M116.6,164.941a128.243,128.243,0,0,1-44.623-7.921,117.825,117.825,0,0,1-37.831-22.563,103.635,103.635,0,0,1-25.3-33.821A93.96,93.96,0,0,1,0,60.744c0-.228,0-.461,0-.689H211.616V0C225.937,17.781,233.5,38.787,233.5,60.744a94,94,0,0,1-9.176,40.553A104.076,104.076,0,0,1,199.3,134.418a118.061,118.061,0,0,1-37.117,22.333,128.223,128.223,0,0,1-45.454,8.19Z" transform="translate(456.619 563.849)"/>
          <path id="Cart_4_" class="cls-1" d="M682.478,174.847c-26.452-.939-100.028-1.592-100.028-1.592C559.131,105.267,471.3,74.421,385.1,75.483c-82.237,1.014-160.943,36.352-179.888,97.772H114.219c-11.419.318-40.352,8.821-60.274,27.03C38.438,214.459,31.739,237.685,31.739,245l.089,410.372c-.022,11.076,2.948,28.263,23.779,45.788s52.256,24.311,59.543,24.311l565.407.749c12.735,0,34.9-5.308,55.469-24.167s24.09-46.12,24.09-51.344l.414-401.774c0-7.032-3.168-28.351-17.57-43.323C724.281,186.191,708.93,175.786,682.478,174.847Zm-116.762-1.592H223.274c19.663-45.978,79.384-84.366,167.564-84.554,75.83.685,149.314,27.969,174.878,84.554Z" transform="translate(-31.739 -75.457)"/>
        </g>
      </g>
      <g id="XMLID_1_" transform="translate(168 203)">
        <path id="XMLID_2_" class="cls-3" d="M306.283,459.193V397.807l83.759,111.384h165.44L512.771,443.06,370.089,423.207l120.094-16.639-39.018-54.245-146.343-19L443.6,315.09c7.765-11.082,20.886-29.441,20.886-29.441L483.6,259.673,373.694,245l133.743-18.136L555.5,161.2H384.674L306.283,272.329V161.2H158.568s.668,114.428,0,239.518L157.9,509.191H306.283Z" transform="translate(-157.9 -161.197)"/>
      </g>
    </g>
  </g>
</svg>