<?xml version="1.0" encoding="UTF-8"?>
<!DOCTYPE svg PUBLIC "-//W3C//DTD SVG 1.1//EN" "http://www.w3.org/Graphics/SVG/1.1/DTD/svg11.dtd">
<!-- Creator: CorelDRAW 2018 (64-Bit Evaluation Version) -->
<svg xmlns="http://www.w3.org/2000/svg" xml:space="preserve" width="11.9911mm" height="12.0305mm" version="1.1" style="shape-rendering:geometricPrecision; text-rendering:geometricPrecision; image-rendering:optimizeQuality; fill-rule:evenodd; clip-rule:evenodd"
viewBox="0 0 232.11 232.87"
 xmlns:xlink="http://www.w3.org/1999/xlink">
 <defs>
  <style type="text/css">
   <![CDATA[
    .str2 {stroke:#1D9CD3;stroke-width:1.64;stroke-miterlimit:22.9256}
    .str3 {stroke:#F56F45;stroke-width:1.64;stroke-miterlimit:22.9256}
    .str0 {stroke:#1D9CD3;stroke-width:3.87;stroke-miterlimit:22.9256}
    .str1 {stroke:#F56F45;stroke-width:3.87;stroke-miterlimit:22.9256}
    .fil0 {fill:#1D9CD3}
    .fil2 {fill:#1D9CD3}
    .fil1 {fill:#F56F45}
    .fil3 {fill:#F56F45}
   ]]>
  </style>
 </defs>
 <g id="Layer_x0020_1">
  <metadata id="CorelCorpID_0Corel-Layer"/>
  <g id="_1872429354144">
   <g>
    <path class="fil0 str0" d="M203.98 2.02c-52.52,0 -117.87,38.45 -117.87,112.96 0,80.91 55.57,115.96 117.87,115.96l-88.76 -113.35 88.76 -115.57z"/>
    <path class="fil1 str1" d="M28.14 1.93c26.03,0 58.43,19.06 58.43,56 0,40.11 -27.55,57.48 -58.43,57.48l44 -56.19 -44 -57.29z"/>
    <path class="fil1 str1" d="M28.14 117.34c26.03,0 58.43,19.06 58.43,55.99 0,40.11 -27.55,57.48 -58.43,57.48l44 -56.19 -44 -57.29z"/>
   </g>
   <polygon class="fil2 str2" points="224.62,7.94 213.72,1.2 231.29,1.2 231.29,21.2 "/>
   <polygon class="fil3 str3" points="7.49,7.94 18.4,1.2 0.82,1.2 0.82,21.2 "/>
   <polygon class="fil2 str2" points="224.62,224.94 213.72,231.67 231.29,231.67 231.29,211.67 "/>
   <polygon class="fil3 str3" points="7.49,224.94 18.4,231.67 0.82,231.67 0.82,211.67 "/>
  </g>
 </g>
</svg>
