<?xml version="1.0" encoding="UTF-8"?>
<!DOCTYPE svg PUBLIC "-//W3C//DTD SVG 1.1//EN" "http://www.w3.org/Graphics/SVG/1.1/DTD/svg11.dtd">
<!-- Creator: CorelDRAW 2018 (64-Bit Evaluation Version) -->
<svg xmlns="http://www.w3.org/2000/svg" xml:space="preserve" width="240px" height="240px" version="1.1" style="shape-rendering:geometricPrecision; text-rendering:geometricPrecision; image-rendering:optimizeQuality; fill-rule:evenodd; clip-rule:evenodd"
viewBox="0 0 81.09 81.09"
 xmlns:xlink="http://www.w3.org/1999/xlink">
 <defs>
  <style type="text/css">
   <![CDATA[
    .fil0 {fill:#1D9CD3}
    .fil1 {fill:#EE6E44}
   ]]>
  </style>
 </defs>
 <g id="Layer_x0020_1">
  <metadata id="CorelCorpID_0Corel-Layer"/>
  <g id="_2920020875456">
   <path class="fil0" d="M40.19 42.86c0,1.63 -0,3.95 0.34,5.46l1.23 5.87c0.94,2.65 2.56,7.28 3.95,9.41l2.7 3.46c0.41,0.52 0.51,0.93 1,1.39 1.23,1.16 2.35,2.68 3.81,3.59 0.87,0.54 0.7,0.61 1.32,1.05l1.33 1.05c1.03,0.84 3.58,2.07 4.8,2.59 1.23,0.52 2.2,1.14 3.42,1.54l5.64 1.59c6.34,1.38 7.08,0.55 11.35,1.22 -0.21,-1.05 -0.92,-1.22 -1.41,-1.96l-1.28 -1.7c-0.02,-0.04 -0.06,-0.09 -0.08,-0.12l-2.96 -3.79c-1.74,-2.76 -3.93,-4.79 -5.64,-7.52 -0.46,-0.73 -0.36,-0.6 -0.93,-1.27 -0.41,-0.48 -0.73,-0.81 -1.03,-1.16 -0.5,-0.6 -0.22,-0.65 -0.86,-1.33 -0.28,-0.29 -0.34,-0.28 -0.57,-0.64l-5.65 -7.44c-0.44,-0.83 -2.62,-3.05 -3.78,-5.01l-1.58 -1.83c-0.75,-0.7 -0.16,-0.5 -0.85,-1.32 -0.46,-0.54 -0.62,-0.51 -1.03,-1.17l-1.9 -2.47c-1.53,-2.02 -0.84,-1.56 1.1,-4l5.54 -7.61c0.59,-0.67 0.47,-0.74 0.89,-1.3l0.99 -1.18c0.95,-1.51 2.29,-2.81 3.25,-4.32 0.19,-0.3 0.36,-0.46 0.53,-0.67 0.69,-0.82 1.24,-1.71 1.96,-2.62 0.44,-0.56 0.48,-0.8 0.89,-1.3l1.96 -2.41c0.44,-0.73 0.76,-0.79 1.16,-1.42l2.81 -3.95c1,-1.62 3.75,-5.27 5.1,-6.67 0.23,-0.24 0,0.03 0.27,-0.33l1.57 -2.21c0.47,-0.67 1.34,-1.26 1.38,-2.1l-11.01 1.28c-1.41,0.38 -2.48,0.65 -3.71,1.27 -1.21,0.62 -2.57,0.83 -3.73,1.47 -1.68,0.92 -3.27,1.68 -4.79,2.77l-3.55 2.64c-0.48,0.45 -0.33,0.24 -0.82,0.57l-6.08 6.68c-1.29,1.52 -1.63,2.66 -1.95,3.04l-2.12 4.24c-1.45,3.4 -1.59,4.1 -2.42,7.72 -0.76,3.33 -0.58,7.32 -0.57,10.97z"/>
   <path class="fil1" d="M12.61 77.57l3.09 -4.06c0.35,-0.47 0.37,-0.62 0.75,-1.03l2.02 -2.55c0.2,-0.31 0.13,-0.22 0.43,-0.57l1.53 -2.04c0.41,-0.76 1.05,-1.23 1.58,-2 0.41,-0.6 1.14,-1.42 1.59,-2 0.4,-0.51 0.31,-0.58 0.72,-1.07 0.36,-0.43 0.73,-0.54 0.71,-1.3 -0.01,-0.65 -1.09,-1.8 -1.48,-2.32l-10.93 -14.54c-0.58,0.23 -1.19,1.48 -1.57,2l-3.17 4c-0.54,0.88 -1.06,1.38 -1.62,2.15l-0.7 1.11c-0.3,0.4 -0.59,0.56 -0.87,0.91 -0.57,0.7 -0.94,1.34 -1.62,2.15l-2.32 3.08c-0.36,0.45 -0.77,0.64 -0.74,1.24 0.04,0.83 -0.06,0.09 0.22,0.57l0.26 0.38c0.68,1.08 1.79,2.17 2.55,3.38l7.8 10.54c0.38,0.63 1.13,1.78 1.77,1.98z"/>
   <path class="fil1" d="M12.41 36.94c0.63,-0.25 1.27,-1.5 1.65,-1.99l5.31 -7.03c0.32,-0.47 0.47,-0.54 0.83,-0.95 0.33,-0.38 0.45,-0.66 0.78,-1.02 1.48,-1.63 1.57,-2.12 2.42,-3.15 2.67,-3.23 1.84,-2.28 -1.21,-6.72l-6.37 -8.35c-0.55,-0.71 -1.04,-1.41 -1.57,-2.22 -0.34,-0.51 -1.26,-1.79 -1.83,-2 -0.34,0.23 -0.16,0.11 -0.4,0.42l-3.48 4.7c-0.9,0.91 -2.39,3.36 -3.13,4.24l-2.36 3.01c-0.38,0.48 -0.38,0.32 -0.8,1.01 -1.4,2.3 -2.87,2.41 -1.93,3.83l0.89 1.33c0.03,0.03 0.06,0.08 0.09,0.11 1.78,2.35 4.94,6.31 6.36,8.59 0.39,0.63 0.4,0.51 0.83,0.93 0.64,0.63 0.28,0.45 0.74,1.05 0.34,0.46 0.59,0.53 0.86,0.92 0.24,0.35 0.53,0.8 0.72,1.08l1.2 1.58c0.03,0.03 0.06,0.08 0.08,0.12 0.03,0.03 0.06,0.09 0.08,0.12l0.25 0.38z"/>
   <path class="fil1" d="M18.8 40.85c-1.41,-0.03 -0.86,-0.41 -1.95,-0.34 -0.04,0.83 0.28,0.85 0.77,1.54l5.61 7.54c0.46,0.54 0.54,0.73 0.92,1.27 0.31,0.43 0.19,0.25 0.48,0.72 0.65,1.03 0.54,0.41 1.08,1.29l3.23 4.34c0.6,1.04 0.45,0.56 0.97,1.23 1.9,2.41 2.15,2.37 0.86,4.04 -0.36,0.47 -0.71,0.64 -1.04,1.12l-2.57 3.43c-0.03,0.03 -0.07,0.07 -0.09,0.1l-5.63 7.52c-0.13,0.16 -0.24,0.23 -0.46,0.54l-0.15 0.25c-0.02,0.04 -0.05,0.09 -0.07,0.13 -0.02,0.04 -0.05,0.09 -0.07,0.12 -0.02,0.03 -0.05,0.08 -0.08,0.12 -0.28,0.38 -0.6,0.58 -1.01,1.16 -0.73,1.05 -2.49,3.2 -2.55,3.77 2.85,0.24 5.4,-0.1 7.95,-0.97 0.05,-0.02 0.1,-0.03 0.15,-0.05l4.05 -2.14c1.86,-1.3 3.82,-3.14 5.1,-5.07 0.43,-0.65 1.48,-2.7 1.66,-3.3l1.29 -6.31c0.14,-2.03 -0.05,-5.13 -0.55,-7.02l-1.11 -3.9c-0.34,-1.16 -2.72,-3.76 -3.18,-4.58 -0.61,-1.07 -0.19,-0.51 -1.27,-1.15 -0.56,-0.34 -0.77,-0.78 -1.34,-1.26 -0.46,-0.39 -1.07,-0.74 -1.52,-1.06 -0.94,-0.67 -1.5,-0.68 -2.57,-1.24 -2.36,-1.26 -1.97,-0.89 -4.62,-1.57 -1.14,-0.29 -0.8,-0.27 -2.31,-0.3z"/>
   <path class="fil1" d="M16.99 40.08l3.61 0.03 5.07 -1.32c1.49,-0.45 2.12,-0.93 3.35,-1.66l1.5 -1.09c0.52,-0.56 0.74,-0.8 1.28,-1.3 2.58,-2.39 4.92,-6.33 5.07,-9.93 0.13,-3.03 0.37,-0.75 0.37,-4.77 -0,-1.45 -0.07,-3.39 -0.38,-4.64 -0.31,-1.24 -0.86,-2.7 -1.22,-3.74 -0.32,-0.93 -1.21,-2.24 -1.83,-3.14 -0.46,-0.67 -1.76,-2.18 -2.45,-2.73 -1.36,-1.08 -1.09,-1.09 -2.82,-2.19 -0.73,-0.46 -0.81,-0.67 -1.52,-1.05 -0.46,-0.24 -1.23,-0.64 -1.75,-0.83l-3.04 -1.12c-0.37,-0.11 -0.19,-0.06 -0.63,-0.13 -1.45,-0.23 -3.59,-0.14 -4.75,-0.46 0.07,0.96 1.05,1.6 1.68,2.42l0.9 1.3c0.3,0.44 0.61,0.9 0.88,1.32l4.16 5.6c0.81,1.29 1.48,1.91 2.35,3.02l4.66 6.33c0.41,1.13 -0.86,1.89 -1.38,2.52 -1.3,1.57 -1.24,1.73 -1.84,2.55l-9.89 13c-0.42,0.52 -1.09,1.04 -1.38,2.01z"/>
  </g>
 </g>
</svg>
