<?xml version="1.0" encoding="UTF-8"?>
<!DOCTYPE svg PUBLIC "-//W3C//DTD SVG 1.1//EN" "http://www.w3.org/Graphics/SVG/1.1/DTD/svg11.dtd">
<!-- Creator: CorelDRAW 2018 (64-Bit Evaluation Version) -->
<svg xmlns="http://www.w3.org/2000/svg" xml:space="preserve" width="23.8126mm" height="23.8125mm" version="1.1" style="shape-rendering:geometricPrecision; text-rendering:geometricPrecision; image-rendering:optimizeQuality; fill-rule:evenodd; clip-rule:evenodd"
viewBox="0 0 221.16 221.16"
 xmlns:xlink="http://www.w3.org/1999/xlink">
 <defs>
  <style type="text/css">
   <![CDATA[
    .fil0 {fill:#1D9CD3}
    .fil1 {fill:#EE6E44}
   ]]>
  </style>
 </defs>
 <g id="Layer_x0020_1">
  <metadata id="CorelCorpID_0Corel-Layer"/>
  <g id="_2920077202944">
   <path class="fil0" d="M109.63 116.9c0.01,4.44 -0,10.79 0.93,14.9l3.34 16.02c2.55,7.22 6.99,19.86 10.78,25.66l7.38 9.43c1.12,1.43 1.39,2.54 2.72,3.8 3.36,3.17 6.41,7.32 10.39,9.78 2.37,1.47 1.9,1.65 3.6,2.86l3.63 2.86c2.82,2.28 9.76,5.66 13.08,7.06 3.35,1.42 5.99,3.1 9.34,4.2l15.38 4.34c17.29,3.78 19.31,1.49 30.95,3.34 -0.57,-2.85 -2.52,-3.32 -3.86,-5.36l-3.49 -4.65c-0.07,-0.1 -0.15,-0.24 -0.22,-0.34l-8.07 -10.35c-4.75,-7.53 -10.71,-13.06 -15.38,-20.52 -1.25,-2 -0.99,-1.65 -2.53,-3.46 -1.12,-1.32 -1.98,-2.2 -2.8,-3.17 -1.37,-1.64 -0.59,-1.77 -2.35,-3.63 -0.76,-0.8 -0.94,-0.76 -1.56,-1.75l-15.41 -20.29c-1.2,-2.26 -7.15,-8.31 -10.31,-13.66l-4.3 -5.01c-2.05,-1.9 -0.44,-1.37 -2.33,-3.6 -1.25,-1.48 -1.68,-1.4 -2.8,-3.19l-5.19 -6.73c-4.16,-5.51 -2.29,-4.27 2.99,-10.92l15.12 -20.75c1.6,-1.82 1.28,-2.02 2.43,-3.56l2.7 -3.23c2.58,-4.11 6.25,-7.67 8.86,-11.77 0.52,-0.81 0.97,-1.26 1.45,-1.84 1.89,-2.25 3.39,-4.67 5.34,-7.16 1.19,-1.52 1.31,-2.18 2.42,-3.56l5.34 -6.58c1.2,-2 2.07,-2.17 3.15,-3.88l7.67 -10.77c2.73,-4.41 10.23,-14.38 13.91,-18.19 0.64,-0.66 0,0.08 0.74,-0.89l4.28 -6.03c1.29,-1.84 3.65,-3.44 3.77,-5.72l-30.02 3.49c-3.85,1.02 -6.77,1.77 -10.12,3.46 -3.31,1.68 -7,2.26 -10.18,4.01 -4.57,2.52 -8.92,4.59 -13.06,7.54l-9.68 7.2c-1.3,1.23 -0.9,0.66 -2.25,1.55l-16.57 18.21c-3.53,4.15 -4.46,7.26 -5.31,8.3l-5.78 11.56c-3.96,9.28 -4.33,11.17 -6.59,21.04 -2.08,9.07 -1.58,19.96 -1.56,29.93z"/>
   <path class="fil1" d="M34.39 211.58l8.42 -11.08c0.95,-1.28 1,-1.7 2.04,-2.81l5.5 -6.97c0.53,-0.86 0.37,-0.59 1.18,-1.56l4.18 -5.58c1.13,-2.06 2.86,-3.35 4.3,-5.46 1.11,-1.62 3.1,-3.87 4.35,-5.47 1.08,-1.38 0.85,-1.59 1.96,-2.93 0.97,-1.16 1.99,-1.47 1.95,-3.54 -0.04,-1.77 -2.98,-4.9 -4.04,-6.32l-29.82 -39.65c-1.57,0.64 -3.23,4.03 -4.28,5.46l-8.66 10.9c-1.46,2.41 -2.88,3.77 -4.42,5.86l-1.9 3.03c-0.81,1.09 -1.6,1.52 -2.38,2.49 -1.55,1.92 -2.56,3.67 -4.41,5.86l-6.32 8.4c-0.97,1.23 -2.09,1.74 -2.02,3.39 0.11,2.27 -0.16,0.23 0.59,1.56l0.7 1.03c1.85,2.94 4.89,5.91 6.97,9.23l21.28 28.75c1.04,1.73 3.09,4.85 4.83,5.41z"/>
   <path class="fil1" d="M33.85 100.74c1.72,-0.67 3.48,-4.09 4.51,-5.42l14.49 -19.16c0.89,-1.29 1.29,-1.47 2.25,-2.59 0.89,-1.03 1.22,-1.8 2.12,-2.79 4.04,-4.43 4.27,-5.79 6.59,-8.6 7.27,-8.82 5.03,-6.23 -3.31,-18.32l-17.37 -22.78c-1.51,-1.93 -2.85,-3.83 -4.29,-6.04 -0.91,-1.4 -3.43,-4.89 -4.98,-5.45 -0.94,0.63 -0.42,0.3 -1.1,1.15l-9.5 12.81c-2.46,2.48 -6.52,9.18 -8.55,11.56l-6.44 8.22c-1.04,1.31 -1.04,0.87 -2.18,2.74 -3.83,6.28 -7.84,6.59 -5.26,10.44l2.43 3.64c0.07,0.09 0.17,0.21 0.24,0.31 4.86,6.41 13.47,17.22 17.35,23.43 1.07,1.72 1.09,1.39 2.25,2.54 1.75,1.73 0.78,1.22 2.02,2.87 0.94,1.25 1.6,1.44 2.35,2.52 0.65,0.94 1.45,2.18 1.96,2.96l3.28 4.3c0.07,0.09 0.16,0.22 0.23,0.32 0.07,0.1 0.16,0.24 0.22,0.33l0.69 1.04z"/>
   <path class="fil1" d="M51.26 111.43c-3.86,-0.08 -2.34,-1.1 -5.31,-0.94 -0.12,2.25 0.78,2.31 2.1,4.2l15.29 20.58c1.25,1.46 1.47,2 2.52,3.46 0.85,1.19 0.52,0.69 1.31,1.95 1.77,2.82 1.48,1.11 2.95,3.52l8.81 11.84c1.65,2.83 1.22,1.52 2.65,3.34 5.17,6.57 5.87,6.45 2.33,11.02 -0.99,1.28 -1.94,1.73 -2.85,3.06l-7 9.37c-0.07,0.09 -0.18,0.2 -0.26,0.29l-15.35 20.51c-0.35,0.43 -0.67,0.63 -1.26,1.49l-0.41 0.69c-0.06,0.1 -0.13,0.25 -0.2,0.35 -0.06,0.1 -0.13,0.24 -0.2,0.34 -0.06,0.09 -0.15,0.23 -0.21,0.32 -0.77,1.04 -1.63,1.59 -2.74,3.18 -1.98,2.85 -6.81,8.71 -6.96,10.29 7.78,0.66 14.72,-0.29 21.69,-2.64 0.13,-0.05 0.28,-0.09 0.41,-0.14l11.05 -5.85c5.09,-3.56 10.41,-8.56 13.91,-13.82 1.19,-1.78 4.03,-7.36 4.54,-8.99l3.53 -17.21c0.38,-5.54 -0.14,-13.98 -1.51,-19.14l-3.03 -10.64c-0.93,-3.16 -7.41,-10.26 -8.66,-12.49 -1.65,-2.93 -0.52,-1.38 -3.46,-3.14 -1.53,-0.92 -2.11,-2.13 -3.65,-3.43 -1.26,-1.05 -2.91,-2.01 -4.13,-2.88 -2.57,-1.82 -4.1,-1.84 -7.02,-3.4 -6.43,-3.42 -5.36,-2.42 -12.59,-4.27 -3.12,-0.8 -2.18,-0.74 -6.29,-0.82z"/>
   <path class="fil1" d="M46.35 109.31l9.84 0.08 13.84 -3.59c4.07,-1.23 5.77,-2.54 9.13,-4.53l4.09 -2.99c1.43,-1.53 2.02,-2.19 3.5,-3.56 7.02,-6.53 13.41,-17.27 13.83,-27.09 0.36,-8.25 1.01,-2.06 1.01,-13 0,-3.95 -0.2,-9.24 -1.05,-12.67 -0.84,-3.39 -2.36,-7.35 -3.34,-10.21 -0.87,-2.53 -3.3,-6.1 -4.99,-8.56 -1.26,-1.83 -4.8,-5.94 -6.68,-7.43 -3.7,-2.94 -2.97,-2.97 -7.69,-5.97 -1.99,-1.27 -2.2,-1.84 -4.15,-2.86 -1.26,-0.66 -3.37,-1.76 -4.78,-2.28l-8.28 -3.05c-1,-0.3 -0.51,-0.17 -1.72,-0.37 -3.94,-0.64 -9.78,-0.38 -12.95,-1.24 0.2,2.62 2.85,4.36 4.58,6.59l2.45 3.54c0.83,1.19 1.66,2.46 2.41,3.59l11.34 15.27c2.22,3.51 4.05,5.22 6.41,8.24l12.72 17.27c1.12,3.07 -2.35,5.16 -3.77,6.87 -3.55,4.27 -3.38,4.73 -5.01,6.97l-26.97 35.47c-1.15,1.42 -2.96,2.84 -3.77,5.49z"/>
  </g>
 </g>
</svg>
