<?xml version="1.0" encoding="UTF-8"?>
<!DOCTYPE svg PUBLIC "-//W3C//DTD SVG 1.1//EN" "http://www.w3.org/Graphics/SVG/1.1/DTD/svg11.dtd">
<!-- Creator: CorelDRAW 2018 (64-Bit Evaluation Version) -->
<svg xmlns="http://www.w3.org/2000/svg" xml:space="preserve" width="240px" height="240px" version="1.1" style="shape-rendering:geometricPrecision; text-rendering:geometricPrecision; image-rendering:optimizeQuality; fill-rule:evenodd; clip-rule:evenodd"
viewBox="0 0 969.72 969.72"
 xmlns:xlink="http://www.w3.org/1999/xlink">
 <defs>
  <style type="text/css">
   <![CDATA[
    .fil0 {fill:#3D4852}
   ]]>
  </style>
 </defs>
 <g id="Layer_x0020_1">
  <metadata id="CorelCorpID_0Corel-Layer"/>
  <g id="_2920020816672">
   <path class="fil0" d="M480.66 512.57c0.03,19.46 -0.02,47.3 4.09,65.34l14.66 70.24c11.19,31.67 30.62,87.07 47.28,112.52l32.34 41.36c4.89,6.26 6.08,11.13 11.94,16.66 14.74,13.89 28.11,32.08 45.57,42.9 10.4,6.44 8.32,7.26 15.78,12.56l15.94 12.54c12.37,10.01 42.78,24.81 57.35,30.97 14.71,6.22 26.25,13.6 40.95,18.39l67.43 19.03c75.81,16.56 84.68,6.56 135.72,14.63 -2.48,-12.51 -11.04,-14.57 -16.9,-23.48l-15.33 -20.38c-0.29,-0.45 -0.66,-1.04 -0.97,-1.48l-35.38 -45.38c-20.83,-33 -46.97,-57.26 -67.43,-89.97 -5.48,-8.76 -4.32,-7.22 -11.08,-15.16 -4.92,-5.78 -8.69,-9.63 -12.27,-13.92 -5.99,-7.18 -2.57,-7.78 -10.29,-15.92 -3.34,-3.53 -4.12,-3.33 -6.82,-7.67l-67.57 -88.95c-5.28,-9.93 -31.36,-36.42 -45.19,-59.9l-18.87 -21.94c-8.98,-8.35 -1.94,-5.99 -10.21,-15.77 -5.49,-6.48 -7.4,-6.12 -12.27,-13.98l-22.78 -29.52c-18.25,-24.14 -10.03,-18.71 13.1,-47.87l66.3 -90.97c7.03,-7.97 5.59,-8.86 10.63,-15.59l11.85 -14.15c11.32,-18 27.39,-33.61 38.86,-51.62 2.26,-3.57 4.26,-5.55 6.37,-8.06 8.3,-9.86 14.89,-20.48 23.43,-31.39 5.21,-6.68 5.74,-9.58 10.62,-15.61l23.43 -28.86c5.28,-8.78 9.06,-9.5 13.83,-17.02l33.61 -47.24c11.96,-19.34 44.84,-63.05 60.97,-79.76 2.79,-2.9 0.02,0.35 3.26,-3.9l18.77 -26.45c5.65,-8.07 16,-15.09 16.51,-25.09l-131.61 15.29c-16.9,4.49 -29.68,7.74 -44.36,15.18 -14.52,7.35 -30.71,9.93 -44.65,17.59 -20.06,11.03 -39.13,20.1 -57.27,33.07l-42.44 31.55c-5.69,5.38 -3.97,2.91 -9.85,6.79l-72.67 79.83c-15.47,18.19 -19.54,31.83 -23.29,36.37l-25.35 50.68c-17.38,40.67 -18.99,49 -28.91,92.27 -9.12,39.79 -6.91,87.5 -6.82,131.22z"/>
   <path class="fil0" d="M150.8 927.69l36.9 -48.57c4.17,-5.63 4.37,-7.47 8.95,-12.32l24.1 -30.55c2.34,-3.76 1.6,-2.6 5.16,-6.86l18.32 -24.45c4.94,-9.03 12.53,-14.7 18.85,-23.97 4.85,-7.12 13.59,-16.97 19.06,-23.97 4.73,-6.05 3.71,-6.98 8.6,-12.84 4.25,-5.1 8.73,-6.47 8.54,-15.52 -0.17,-7.77 -13.08,-21.51 -17.71,-27.69l-130.76 -173.85c-6.89,2.81 -14.18,17.65 -18.79,23.94l-37.96 47.78c-6.41,10.57 -12.63,16.53 -19.36,25.68l-8.32 13.29c-3.55,4.76 -7.01,6.65 -10.43,10.9 -6.78,8.42 -11.23,16.08 -19.34,25.7l-27.7 36.82c-4.27,5.38 -9.18,7.62 -8.84,14.87 0.47,9.98 -0.69,1.02 2.6,6.86l3.09 4.5c8.13,12.88 21.44,25.91 30.55,40.48l93.32 126.06c4.57,7.57 13.55,21.25 21.18,23.71z"/>
   <path class="fil0" d="M148.4 441.7c7.53,-2.95 15.25,-17.93 19.76,-23.77l63.54 -84.02c3.88,-5.68 5.66,-6.46 9.88,-11.37 3.89,-4.54 5.35,-7.9 9.31,-12.23 17.73,-19.44 18.73,-25.39 28.9,-37.72 31.88,-38.68 22.04,-27.3 -14.52,-80.35l-76.17 -99.87c-6.63,-8.45 -12.49,-16.8 -18.83,-26.49 -4.01,-6.12 -15.05,-21.42 -21.86,-23.9 -4.11,2.75 -1.86,1.33 -4.84,5.03l-41.64 56.17c-10.77,10.89 -28.56,40.23 -37.47,50.68l-28.25 36.04c-4.58,5.76 -4.58,3.84 -9.56,12.03 -16.78,27.55 -34.38,28.87 -23.07,45.76l10.65 15.96c0.31,0.42 0.76,0.94 1.07,1.35 21.31,28.12 59.07,75.48 76.05,102.71 4.72,7.56 4.77,6.08 9.88,11.12 7.68,7.57 3.4,5.33 8.85,12.58 4.12,5.48 7.03,6.33 10.29,11.05 2.87,4.14 6.38,9.56 8.61,12.97l14.39 18.85c0.31,0.4 0.69,0.99 0.99,1.4 0.3,0.42 0.7,1.03 0.99,1.45l3.05 4.56z"/>
   <path class="fil0" d="M224.77 488.56c-16.91,-0.34 -10.25,-4.85 -23.29,-4.11 -0.53,9.87 3.4,10.12 9.22,18.41l67.03 90.23c5.5,6.4 6.46,8.76 11.03,15.17 3.71,5.2 2.27,3.05 5.73,8.57 7.75,12.36 6.47,4.85 12.92,15.43l38.61 51.93c7.22,12.38 5.33,6.65 11.64,14.66 22.67,28.8 25.75,28.29 10.23,48.31 -4.33,5.6 -8.5,7.61 -12.48,13.43l-30.71 41.07c-0.32,0.38 -0.81,0.89 -1.13,1.25l-67.28 89.92c-1.51,1.87 -2.92,2.77 -5.51,6.51l-1.81 3.01c-0.28,0.45 -0.58,1.09 -0.86,1.52 -0.27,0.43 -0.59,1.07 -0.87,1.49 -0.27,0.41 -0.64,1.01 -0.92,1.4 -3.37,4.58 -7.17,6.96 -12.02,13.93 -8.7,12.51 -29.83,38.21 -30.51,45.12 34.11,2.89 64.54,-1.25 95.1,-11.57 0.59,-0.2 1.23,-0.39 1.81,-0.59l48.45 -25.65c22.3,-15.61 45.65,-37.55 60.97,-60.57 5.2,-7.81 17.66,-32.25 19.89,-39.41l15.48 -75.48c1.66,-24.3 -0.59,-61.3 -6.61,-83.93l-13.27 -46.67c-4.08,-13.86 -32.5,-45 -37.99,-54.76 -7.24,-12.85 -2.3,-6.04 -15.15,-13.76 -6.73,-4.04 -9.24,-9.36 -16.01,-15.02 -5.51,-4.61 -12.78,-8.82 -18.13,-12.62 -11.25,-8 -17.99,-8.09 -30.78,-14.89 -28.2,-15.01 -23.51,-10.59 -55.22,-18.72 -13.67,-3.5 -9.55,-3.25 -27.57,-3.62z"/>
   <path class="fil0" d="M203.21 479.28l43.15 0.34 60.66 -15.75c17.84,-5.41 25.31,-11.13 40.05,-19.89l17.94 -13.09c6.26,-6.71 8.89,-9.59 15.34,-15.6 30.79,-28.62 58.8,-75.72 60.67,-118.77 1.56,-36.19 4.41,-9.02 4.41,-57 -0.01,-17.32 -0.88,-40.52 -4.6,-55.54 -3.69,-14.87 -10.34,-32.24 -14.64,-44.75 -3.8,-11.08 -14.46,-26.73 -21.89,-37.53 -5.51,-8.02 -21.05,-26.05 -29.27,-32.59 -16.21,-12.9 -13.03,-13.04 -33.73,-26.18 -8.74,-5.55 -9.64,-8.06 -18.2,-12.53 -5.54,-2.89 -14.77,-7.7 -20.96,-9.99l-36.3 -13.37c-4.37,-1.3 -2.26,-0.74 -7.55,-1.6 -17.3,-2.8 -42.87,-1.66 -56.79,-5.45 0.9,11.5 12.51,19.11 20.08,28.91l10.73 15.51c3.63,5.2 7.29,10.78 10.56,15.74l49.74 66.97c9.72,15.38 17.76,22.88 28.13,36.15l55.77 75.73c4.89,13.46 -10.29,22.63 -16.53,30.14 -15.56,18.72 -14.82,20.74 -21.97,30.54l-118.27 155.52c-5.06,6.25 -12.99,12.44 -16.53,24.08z"/>
  </g>
 </g>
</svg>
