<?xml version="1.0" encoding="UTF-8"?>
<!DOCTYPE svg PUBLIC "-//W3C//DTD SVG 1.1//EN" "http://www.w3.org/Graphics/SVG/1.1/DTD/svg11.dtd">
<!-- Creator: CorelDRAW 2018 (64-Bit Evaluation Version) -->
<svg xmlns="http://www.w3.org/2000/svg" xml:space="preserve" width="72.5893mm" height="11.9062mm" version="1.1" style="shape-rendering:geometricPrecision; text-rendering:geometricPrecision; image-rendering:optimizeQuality; fill-rule:evenodd; clip-rule:evenodd"
viewBox="0 0 6572.64 1078.05"
 xmlns:xlink="http://www.w3.org/1999/xlink">
 <defs>
  <style type="text/css">
   <![CDATA[
    .fil1 {fill:white}
    .fil0 {fill:white;fill-rule:nonzero}
   ]]>
  </style>
 </defs>
 <g id="Layer_x0020_1">
  <metadata id="CorelCorpID_0Corel-Layer"/>
  <g id="_2920020046208">
   <g>
    <path class="fil0" d="M1430.01 551.62c-45.96,40.79 -69.06,96.34 -69.06,166.38 0,70.05 22.12,125.6 66.11,166.88 44.24,41.29 98.07,61.93 161.23,61.93 63.41,0 116.5,-21.63 159.02,-64.88 43.25,-43.01 64.88,-98.06 64.88,-164.67 0,-66.85 -21.39,-121.16 -64.15,-163.43 -42.51,-42.28 -94.62,-63.16 -156.06,-62.67 -61.44,0 -115.52,20.15 -161.97,60.46zm-204.72 511.68l0 -961.31c-0.65,-76.08 51.42,-104 134.19,-101.87l0 478.02c46.94,-78.89 127.55,-118.22 241.84,-118.22 99.54,0 182.36,33.18 248.47,99.54 66.36,65.62 99.54,151.88 99.54,258.54 0,106.43 -34.41,193.18 -102.97,259.78 -68.82,66.85 -150.9,100.27 -246.51,100.27 -50.88,0 -98.31,-11.06 -142.55,-33.18 -44,-22.12 -76.67,-51.12 -97.82,-87.25 -0.14,87.67 -49.66,107.64 -134.19,105.68z"/>
    <path class="fil0" d="M2162.63 1063.3c-75.05,2.35 -132.36,-17.31 -134.19,-83.08l0 -605.56c88.49,-1.01 133.75,20.23 134.19,92.55l0 62.78c33.66,-113.3 97.32,-170.07 191.45,-170.07 54.32,0 94.13,8.85 119.69,26.29 -19.14,70.49 -56.71,109.48 -121.48,102 -0.3,-0.04 -0.61,0 -0.91,0 -60.71,0 -107.16,29 -139.85,87 -24.26,43.24 -45.01,97.7 -45.67,164.34l-3.23 323.75z"/>
    <path class="fil0" d="M2532.99 1063.31l0 -581.84c0.44,-78.62 50.81,-106.86 134.19,-106.81l0 596.64c-0.34,72.96 -48.41,93.55 -134.19,92z"/>
    <path class="fil0" d="M2533.98 182.97c-17.46,-16.96 -26.05,-37.6 -26.05,-61.93 0,-24.57 8.59,-44.97 26.05,-61.93 19.41,-16.71 41.29,-25.06 66.11,-25.06 24.83,0 46.7,8.1 65.37,24.33 18.92,16.46 28.27,37.36 28.27,62.67 0,25.32 -9.34,46.21 -28.27,62.68 -18.67,16.22 -40.55,24.33 -65.37,24.33 -24.82,0 -46.69,-8.36 -66.11,-25.07z"/>
    <path class="fil0" d="M3430.96 1063.3l0 -967.59c-0.37,-66.53 63.37,-95.38 134.19,-95.6l0 614.42 189.26 -191.01c58.55,-62.16 131.35,-82 231.25,-48.85l-295.17 297.38 365.7 391.26c-89.66,14.7 -168.26,7.88 -221.78,-47.79l-269.26 -288.66 0 238.72c-2.84,61.72 -54.83,95.66 -134.19,97.73z"/>
    <path class="fil0" d="M4412.68 359.92c106.17,0 193.18,37.11 261.25,111.09 -59.82,39.03 -126.62,63.22 -223.59,23.19 -0.39,-0.16 -0.84,-0.13 -1.27,-0.19 -12.63,-1.89 -25.75,-2.84 -39.33,-2.84 -64.64,0 -119.69,20.89 -164.91,62.91 -45.47,41.29 -68.33,96.1 -68.33,164.67 0,68.33 23.1,123.87 69.06,166.63 46.21,43.01 101.26,64.39 165.64,64.39 30.2,0 57.96,-4.9 83.23,-14.69 0.81,-0.32 1.71,-0.52 2.45,-0.98 67.9,-41.85 125.83,-20.81 178.52,33.37 -68.57,73.72 -155.32,110.59 -259.78,110.59 -104.7,0 -193.17,-33.18 -265.43,-99.54 -72,-67.34 -107.89,-153.85 -107.89,-259.78 0,-105.93 35.39,-192.19 105.92,-258.54 70.79,-66.36 158.77,-99.79 264.45,-100.28z"/>
    <path class="fil0" d="M3118.05 359.92c106.17,0 193.18,37.11 261.25,111.09 -45.13,59.71 -103.05,77.57 -179.56,34.62 -1.2,-0.68 -2.61,-0.96 -3.91,-1.42 -24.72,-8.69 -51.64,-13.04 -80.72,-13.04 -64.64,0 -119.69,20.89 -164.91,62.91 -45.47,41.29 -68.33,96.1 -68.33,164.67 0,68.33 23.1,123.87 69.06,166.63 46.21,43.01 101.26,64.39 165.64,64.39 28.13,0 54.14,-4.25 78,-12.75 0.96,-0.34 1.96,-0.63 2.89,-1.05 77.58,-34.81 136.16,-17.37 183.32,31.5 -68.57,73.72 -155.32,110.59 -259.78,110.59 -104.7,0 -193.17,-33.18 -265.43,-99.54 -72.01,-67.34 -107.89,-153.85 -107.89,-259.78 0,-105.93 35.39,-192.19 105.92,-258.54 70.79,-66.36 158.77,-99.79 264.45,-100.28z"/>
    <path class="fil0" d="M5408.15 717.02c0,30.48 -0.49,47.93 -1.48,52.84l-558.87 0c6.64,55.54 31.21,101.5 73.49,138.12 40.79,33.66 86.51,50.62 137.38,50.62 55.77,0 107.13,-11.18 148.51,-39.63 0.71,-0.49 1.48,-0.89 2.11,-1.47 55.79,-51.78 113.95,-52.02 173.55,-21.08 -28.26,58 -71.02,102.73 -128.28,134.2 -57.03,31.7 -119.94,47.43 -188.51,47.43 -98.56,0 -182.61,-33.18 -252.65,-99.78 -66.61,-66.61 -99.78,-153.85 -99.78,-261.25 0,-107.65 33.18,-193.91 99.28,-259.04 66.36,-64.88 150.17,-97.57 251.92,-98.06 101.75,0 183.83,32.93 246.26,98.55 64.64,65.37 97.08,151.65 97.08,258.55zm-201.04 -188.26c-38.35,-32.93 -86.02,-49.39 -142.55,-49.39 -56.77,0 -105.43,16.46 -146.23,49.39 -40.31,35.15 -63.9,80.87 -70.54,136.41l426.9 0c-6.64,-55.54 -29.25,-101.26 -67.58,-136.41z"/>
    <path class="fil0" d="M5614.98 691.95l0 371.35c-98.69,0.62 -134.19,-5.9 -134.19,-105.75l0 -582.89c83.23,-1.01 132.83,8.61 134.19,72.01l0 31.46c19.67,-38.34 49.16,-67.84 88.73,-87.98 39.32,-20.16 81.59,-30.23 126.57,-30.23 86.51,0 151.64,26.55 195.62,79.88 45.96,52.34 69.31,127.55 69.8,225.37l0 312.36c-0.15,60.72 -33.62,87.69 -134.19,85.78l0 -389.29c0,-58 -13.76,-102.73 -41.04,-133.94 -26.55,-32.69 -65.62,-48.9 -117.47,-48.9 -52.35,0 -96.84,16.95 -133.21,51.11 -36.62,33.92 -54.81,84.05 -54.81,149.67z"/>
    <path class="fil0" d="M6428.13 232.06l0 142.61 39.56 0c74.1,-0.99 103.82,34.86 104.95,119.44l-144.51 0 0 569.2c-84.11,0.84 -130.44,-20.41 -134.19,-112.53l0 -456.67 -25.18 0c-90.07,-0.94 -97.08,-57.86 -98.69,-119.44l123.88 0 0 -252.16c83.7,-1.78 129.63,23.39 134.19,109.55z"/>
   </g>
   <path class="fil1" d="M531.15 569.84c0.04,21.63 -0.02,52.58 4.52,72.64l16.2 78.09c12.37,35.21 33.85,96.8 52.24,125.09l35.74 45.98c5.41,6.96 6.72,12.38 13.2,18.52 16.28,15.45 31.06,35.67 50.35,47.7 11.49,7.16 9.19,8.07 17.45,13.95l17.6 13.95c13.67,11.13 47.28,27.58 63.37,34.43 16.25,6.92 29.01,15.12 45.25,20.45l74.51 21.15c83.77,18.4 93.57,7.29 149.98,16.26 -2.74,-13.91 -12.19,-16.21 -18.68,-26.1l-16.93 -22.65c-0.33,-0.5 -0.73,-1.16 -1.08,-1.65l-39.09 -50.45c-23.03,-36.69 -51.91,-63.67 -74.51,-100.03 -6.06,-9.74 -4.78,-8.02 -12.24,-16.85 -5.44,-6.43 -9.61,-10.7 -13.56,-15.47 -6.63,-7.99 -2.84,-8.65 -11.37,-17.7 -3.69,-3.92 -4.56,-3.7 -7.54,-8.53l-74.66 -98.88c-5.82,-11.04 -34.65,-40.49 -49.94,-66.59l-20.85 -24.39c-9.92,-9.28 -2.14,-6.66 -11.29,-17.53 -6.06,-7.21 -8.16,-6.81 -13.55,-15.55l-25.17 -32.81c-20.17,-26.84 -11.07,-20.8 14.47,-53.21l73.26 -101.13c7.77,-8.86 6.18,-9.85 11.74,-17.33l13.1 -15.73c12.51,-20.01 30.26,-37.37 42.94,-57.39 2.51,-3.96 4.71,-6.17 7.04,-8.96 9.16,-10.97 16.44,-22.76 25.88,-34.9 5.77,-7.42 6.36,-10.65 11.75,-17.35l25.89 -32.08c5.83,-9.76 10.01,-10.57 15.28,-18.91l37.14 -52.53c13.22,-21.5 49.56,-70.09 67.37,-88.67 3.09,-3.21 0.03,0.39 3.59,-4.34l20.75 -29.41c6.24,-8.97 17.67,-16.78 18.24,-27.89l-145.43 17c-18.68,4.99 -32.8,8.6 -49.03,16.88 -16.05,8.18 -33.94,11.04 -49.34,19.56 -22.17,12.26 -43.24,22.36 -63.28,36.76l-46.9 35.08c-6.28,5.99 -4.38,3.23 -10.88,7.55l-80.3 88.75c-17.1,20.23 -21.6,35.39 -25.74,40.44l-28.01 56.34c-19.21,45.22 -20.98,54.47 -31.94,102.58 -10.09,44.23 -7.64,97.27 -7.54,145.88z"/>
   <path class="fil1" d="M166.63 1031.33l40.78 -54c4.61,-6.26 4.84,-8.3 9.9,-13.71l26.63 -33.95c2.59,-4.19 1.77,-2.89 5.7,-7.62l20.24 -27.19c5.47,-10.03 13.86,-16.33 20.83,-26.64 5.36,-7.91 15.02,-18.87 21.07,-26.65 5.22,-6.73 4.1,-7.77 9.5,-14.27 4.7,-5.67 9.65,-7.19 9.43,-17.25 -0.19,-8.65 -14.45,-23.91 -19.58,-30.79l-144.5 -193.27c-7.61,3.12 -15.66,19.62 -20.75,26.61l-41.95 53.11c-7.09,11.75 -13.96,18.38 -21.4,28.55l-9.2 14.77c-3.93,5.3 -7.74,7.4 -11.54,12.12 -7.49,9.36 -12.4,17.87 -21.37,28.58l-30.61 40.94c-4.71,5.99 -10.14,8.47 -9.76,16.53 0.52,11.09 -0.76,1.13 2.87,7.62l3.42 5c8.98,14.32 23.7,28.8 33.76,45l103.11 140.15c5.05,8.41 14.98,23.62 23.41,26.36z"/>
   <path class="fil1" d="M163.99 491.05c8.32,-3.28 16.86,-19.93 21.84,-26.42l70.21 -93.41c4.29,-6.31 6.26,-7.18 10.92,-12.64 4.3,-5.04 5.91,-8.77 10.29,-13.6 19.59,-21.61 20.7,-28.21 31.94,-41.93 35.22,-43 24.35,-30.35 -16.05,-89.32l-84.17 -111.02c-7.32,-9.41 -13.8,-18.69 -20.81,-29.46 -4.42,-6.8 -16.63,-23.81 -24.16,-26.57 -4.55,3.06 -2.06,1.48 -5.34,5.6l-46.01 62.44c-11.9,12.1 -31.56,44.73 -41.42,56.34l-31.21 40.07c-5.05,6.4 -5.05,4.26 -10.57,13.37 -18.53,30.62 -37.98,32.1 -25.49,50.87l11.77 17.75c0.34,0.46 0.84,1.05 1.19,1.5 23.54,31.27 65.28,83.92 84.04,114.19 5.21,8.4 5.27,6.76 10.91,12.36 8.49,8.42 3.77,5.93 9.78,13.99 4.55,6.09 7.76,7.04 11.37,12.29 3.17,4.6 7.04,10.63 9.52,14.41l15.9 20.96c0.34,0.44 0.77,1.1 1.1,1.56 0.34,0.46 0.77,1.15 1.1,1.61l3.36 5.07z"/>
   <path class="fil1" d="M248.38 543.15c-18.68,-0.38 -11.33,-5.39 -25.73,-4.57 -0.59,10.97 3.77,11.25 10.2,20.46l74.07 100.31c6.08,7.12 7.13,9.74 12.19,16.87 4.09,5.78 2.51,3.39 6.33,9.52 8.55,13.75 7.14,5.4 14.27,17.17l42.67 57.72c7.98,13.77 5.89,7.41 12.86,16.31 25.04,32.02 28.45,31.45 11.31,53.7 -4.8,6.22 -9.4,8.46 -13.8,14.93l-33.94 45.65c-0.34,0.43 -0.9,0.98 -1.25,1.39l-74.35 99.97c-1.68,2.08 -3.23,3.08 -6.08,7.23l-2 3.35c-0.3,0.5 -0.63,1.21 -0.94,1.69 -0.3,0.48 -0.65,1.19 -0.96,1.65 -0.31,0.46 -0.71,1.13 -1.02,1.57 -3.72,5.09 -7.91,7.73 -13.28,15.48 -9.62,13.91 -32.97,42.48 -33.72,50.16 37.7,3.21 71.32,-1.39 105.09,-12.87 0.65,-0.22 1.37,-0.43 2,-0.66l53.54 -28.5c24.65,-17.35 50.44,-41.74 67.37,-67.34 5.75,-8.68 19.51,-35.86 21.98,-43.82l17.11 -83.91c1.84,-27.02 -0.66,-68.15 -7.3,-93.31l-14.66 -51.88c-4.52,-15.42 -35.91,-50.03 -41.99,-60.87 -8,-14.29 -2.54,-6.72 -16.73,-15.3 -7.43,-4.49 -10.21,-10.4 -17.69,-16.7 -6.09,-5.12 -14.12,-9.81 -20.03,-14.03 -12.44,-8.89 -19.89,-8.99 -34.02,-16.55 -31.17,-16.69 -25.98,-11.77 -61.02,-20.81 -15.11,-3.89 -10.56,-3.61 -30.47,-4.02z"/>
   <path class="fil1" d="M224.55 532.82l47.68 0.38 67.04 -17.51c19.7,-6.01 27.97,-12.38 44.25,-22.1l19.83 -14.56c6.91,-7.46 9.82,-10.66 16.96,-17.33 34.03,-31.83 64.97,-84.19 67.03,-132.05 1.73,-40.23 4.89,-10.03 4.88,-63.37 -0.01,-19.25 -0.97,-45.05 -5.08,-61.74 -4.07,-16.53 -11.44,-35.84 -16.18,-49.75 -4.19,-12.32 -15.98,-29.71 -24.18,-41.72 -6.09,-8.92 -23.27,-28.97 -32.35,-36.24 -17.91,-14.34 -14.41,-14.49 -37.27,-29.1 -9.66,-6.18 -10.65,-8.95 -20.12,-13.93 -6.11,-3.21 -16.32,-8.56 -23.16,-11.1l-40.11 -14.85c-4.84,-1.45 -2.5,-0.83 -8.35,-1.78 -19.11,-3.11 -47.38,-1.85 -62.76,-6.06 1,12.79 13.83,21.24 22.19,32.13l11.86 17.24c4.02,5.79 8.06,12 11.66,17.49l54.97 74.46c10.74,17.1 19.62,25.43 31.08,40.18l61.63 84.2c5.41,14.96 -11.37,25.15 -18.26,33.5 -17.19,20.81 -16.37,23.05 -24.28,33.95l-130.69 172.9c-5.59,6.94 -14.35,13.83 -18.27,26.77z"/>
  </g>
 </g>
</svg>
