<?xml version="1.0" encoding="UTF-8"?>
<!DOCTYPE svg PUBLIC "-//W3C//DTD SVG 1.1//EN" "http://www.w3.org/Graphics/SVG/1.1/DTD/svg11.dtd">
<!-- Creator: CorelDRAW 2018 (64-Bit Evaluation Version) -->
<svg xmlns="http://www.w3.org/2000/svg" xml:space="preserve" width="145.179mm" height="23.8126mm" version="1.1" style="shape-rendering:geometricPrecision; text-rendering:geometricPrecision; image-rendering:optimizeQuality; fill-rule:evenodd; clip-rule:evenodd"
viewBox="0 0 8038.48 1318.49"
 xmlns:xlink="http://www.w3.org/1999/xlink">
 <defs>
  <style type="text/css">
   <![CDATA[
    .fil1 {fill:white}
    .fil0 {fill:white;fill-rule:nonzero}
   ]]>
  </style>
 </defs>
 <g id="Layer_x0020_1">
  <metadata id="CorelCorpID_0Corel-Layer"/>
  <g id="_2920439543360">
   <g>
    <path class="fil0" d="M1748.94 674.65c-56.21,49.89 -84.47,117.83 -84.47,203.49 0,85.67 27.05,153.6 80.86,204.1 54.1,50.5 119.93,75.75 197.18,75.75 77.55,0 142.47,-26.45 194.47,-79.36 52.9,-52.6 79.36,-119.93 79.36,-201.38 0,-81.76 -26.15,-148.19 -78.45,-199.89 -52,-51.7 -115.73,-77.25 -190.87,-76.65 -75.15,0 -141.27,24.64 -198.08,73.95zm-250.39 625.81l0 -1175.72c-0.8,-93.04 62.89,-127.2 164.11,-124.6l0 584.63c57.41,-96.49 156,-144.58 295.77,-144.58 121.73,0 223.03,40.57 303.88,121.73 81.16,80.25 121.73,185.76 121.73,316.21 0,130.16 -42.08,236.26 -125.94,317.71 -84.17,81.76 -184.56,122.64 -301.49,122.64 -62.22,0 -120.23,-13.53 -174.34,-40.58 -53.8,-27.05 -93.78,-62.52 -119.63,-106.71 -0.17,107.22 -60.73,131.65 -164.11,129.25z"/>
    <path class="fil0" d="M2644.94 1300.45c-91.78,2.86 -161.87,-21.18 -164.11,-101.61l0 -740.62c108.22,-1.23 163.59,24.75 164.11,113.19l0 76.78c41.18,-138.57 119.03,-208 234.15,-208 66.43,0 115.12,10.82 146.39,32.16 -23.41,86.2 -69.36,133.88 -148.57,124.74 -0.37,-0.04 -0.75,-0.01 -1.12,-0.01 -74.24,0 -131.05,35.47 -171.03,106.41 -29.67,52.88 -55.05,119.48 -55.86,200.98l-3.96 395.97z"/>
    <path class="fil0" d="M3097.91 1300.45l0 -711.6c0.54,-96.15 62.13,-130.69 164.11,-130.63l0 729.72c-0.41,89.23 -59.2,114.41 -164.11,112.51z"/>
    <path class="fil0" d="M3099.11 223.78c-21.34,-20.74 -31.86,-45.99 -31.86,-75.75 0,-30.06 10.51,-55.01 31.86,-75.75 23.74,-20.44 50.5,-30.66 80.86,-30.66 30.36,0 57.11,9.92 79.95,29.76 23.14,20.14 34.57,45.69 34.57,76.65 0,30.96 -11.43,56.5 -34.57,76.65 -22.84,19.84 -49.59,29.76 -79.95,29.76 -30.36,0 -57.11,-10.22 -80.86,-30.66z"/>
    <path class="fil0" d="M4196.14 1300.45l0 -1183.4c-0.45,-81.37 77.51,-116.65 164.11,-116.92l0 751.46 231.47 -233.63c71.6,-76.02 160.64,-100.28 282.82,-59.74l-361 363.7 447.26 478.52c-109.65,17.98 -205.78,9.62 -271.24,-58.45l-329.32 -353.04 0 291.97c-3.47,75.47 -67.05,117 -164.11,119.52z"/>
    <path class="fil0" d="M5396.81 440.19c129.85,0 236.26,45.39 319.51,135.86 -73.16,47.73 -154.86,77.32 -273.46,28.37 -0.48,-0.19 -1.04,-0.16 -1.56,-0.23 -15.45,-2.32 -31.49,-3.48 -48.11,-3.48 -79.05,0 -146.38,25.55 -201.69,76.95 -55.61,50.5 -83.56,117.53 -83.56,201.39 0,83.56 28.25,151.49 84.47,203.79 56.51,52.61 123.84,78.75 202.59,78.75 36.93,0 70.88,-5.99 101.78,-17.97 1.01,-0.39 2.1,-0.63 3.01,-1.19 83.04,-51.19 153.89,-25.45 218.33,40.8 -83.86,90.17 -189.97,135.26 -317.71,135.26 -128.05,0 -236.26,-40.58 -324.62,-121.73 -88.07,-82.36 -131.96,-188.16 -131.96,-317.71 0,-129.55 43.28,-235.05 129.55,-316.21 86.57,-81.16 194.18,-122.03 323.43,-122.64z"/>
    <path class="fil0" d="M3813.44 440.19c129.85,0 236.26,45.39 319.51,135.86 -55.2,73.04 -126.04,94.88 -219.61,42.34 -1.47,-0.83 -3.19,-1.17 -4.79,-1.74 -30.23,-10.63 -63.15,-15.95 -98.72,-15.95 -79.05,0 -146.39,25.55 -201.69,76.95 -55.61,50.5 -83.56,117.53 -83.56,201.39 0,83.56 28.25,151.49 84.47,203.79 56.51,52.61 123.84,78.75 202.59,78.75 34.4,0 66.21,-5.19 95.38,-15.59 1.18,-0.42 2.39,-0.78 3.53,-1.29 94.88,-42.56 166.53,-21.23 224.21,38.53 -83.86,90.17 -189.97,135.26 -317.71,135.26 -128.05,0 -236.26,-40.58 -324.62,-121.73 -88.07,-82.36 -131.96,-188.16 -131.96,-317.71 0,-129.55 43.28,-235.05 129.55,-316.21 86.57,-81.16 194.17,-122.03 323.43,-122.64z"/>
    <path class="fil0" d="M6614.28 876.93c0,37.27 -0.6,58.61 -1.81,64.62l-683.52 0c8.12,67.93 38.18,124.14 89.88,168.93 49.89,41.18 105.81,61.92 168.02,61.92 68.2,0 131.02,-13.68 181.63,-48.48 0.86,-0.6 1.81,-1.09 2.57,-1.8 68.24,-63.33 139.37,-63.61 212.26,-25.77 -34.57,70.94 -86.87,125.64 -156.91,164.12 -69.73,38.77 -146.68,58.01 -230.55,58.01 -120.53,0 -223.33,-40.58 -308.99,-122.03 -81.45,-81.46 -122.03,-188.16 -122.03,-319.52 0,-131.66 40.58,-237.16 121.43,-316.81 81.16,-79.36 183.66,-119.33 308.1,-119.93 124.44,0 224.83,40.28 301.18,120.53 79.05,79.95 118.73,185.45 118.73,316.21zm-245.87 -230.24c-46.89,-40.28 -105.2,-60.42 -174.34,-60.42 -69.43,0 -128.95,20.14 -178.85,60.42 -49.3,42.98 -78.15,98.89 -86.27,166.82l522.11 0c-8.12,-67.93 -35.77,-123.84 -82.66,-166.82z"/>
    <path class="fil0" d="M6867.25 846.28l0 454.18c-120.69,0.75 -164.11,-7.22 -164.11,-129.34l0 -712.89c101.79,-1.24 162.45,10.54 164.11,88.08l0 38.47c24.05,-46.89 60.11,-82.97 108.51,-107.61 48.09,-24.64 99.79,-36.97 154.8,-36.97 105.81,0 185.46,32.46 239.26,97.69 56.21,64.02 84.76,156 85.36,275.63l0 382.01c-0.19,74.27 -41.12,107.26 -164.11,104.92l0 -476.12c0,-70.93 -16.83,-125.64 -50.2,-163.82 -32.46,-39.98 -80.25,-59.82 -143.68,-59.82 -64.02,0 -118.43,20.74 -162.91,62.52 -44.79,41.48 -67.03,102.8 -67.03,183.06z"/>
    <path class="fil0" d="M7861.74 283.81l0 174.41 48.39 0c90.63,-1.2 126.97,42.64 128.35,146.08l-176.74 0 0 696.15c-102.87,1.02 -159.53,-24.97 -164.11,-137.63l0 -558.52 -30.8 0c-110.16,-1.16 -118.73,-70.77 -120.7,-146.08l151.5 0 0 -308.4c102.37,-2.18 158.53,28.61 164.11,133.98z"/>
   </g>
   <path class="fil1" d="M649.61 696.93c0.04,26.46 -0.03,64.31 5.53,88.85l19.81 95.51c15.13,43.07 41.39,118.39 63.9,152.98l43.71 56.23c6.61,8.52 8.21,15.14 16.14,22.66 19.92,18.89 37.98,43.62 61.59,58.33 14.05,8.76 11.24,9.86 21.33,17.06l21.53 17.06c16.72,13.62 57.82,33.73 77.51,42.11 19.88,8.47 35.48,18.5 55.35,25.01l91.13 25.87c102.46,22.51 114.44,8.91 183.43,19.89 -3.36,-17.01 -14.91,-19.82 -22.85,-31.93l-20.71 -27.7c-0.4,-0.61 -0.9,-1.42 -1.31,-2.02l-47.81 -61.7c-28.16,-44.88 -63.48,-77.87 -91.13,-122.33 -7.41,-11.92 -5.84,-9.82 -14.97,-20.61 -6.66,-7.86 -11.74,-13.09 -16.58,-18.92 -8.11,-9.77 -3.48,-10.58 -13.91,-21.65 -4.52,-4.79 -5.58,-4.52 -9.22,-10.43l-91.32 -120.94c-7.13,-13.5 -42.39,-49.51 -61.08,-81.43l-25.51 -29.84c-12.14,-11.35 -2.61,-8.15 -13.8,-21.44 -7.41,-8.81 -9.98,-8.33 -16.57,-19.01l-30.79 -40.13c-24.66,-32.83 -13.54,-25.44 17.7,-65.08l89.6 -123.68c9.51,-10.82 7.56,-12.05 14.37,-21.2l16.02 -19.24c15.29,-24.48 37,-45.7 52.51,-70.19 3.07,-4.84 5.76,-7.54 8.62,-10.96 11.21,-13.42 20.12,-27.84 31.65,-42.68 7.05,-9.08 7.77,-13.02 14.36,-21.21l31.67 -39.23c7.14,-11.94 12.24,-12.93 18.69,-23.14l45.43 -64.23c16.17,-26.29 60.6,-85.73 82.4,-108.45 3.77,-3.94 0.03,0.48 4.4,-5.3l25.38 -35.97c7.64,-10.97 21.61,-20.52 22.31,-34.1l-177.87 20.78c-22.85,6.1 -40.12,10.53 -59.96,20.64 -19.63,10.01 -41.5,13.5 -60.34,23.92 -27.11,15 -52.88,27.34 -77.4,44.96l-57.37 42.9c-7.69,7.32 -5.35,3.96 -13.3,9.24l-98.23 108.54c-20.9,24.74 -26.41,43.28 -31.48,49.46l-34.25 68.91c-23.49,55.3 -25.66,66.62 -39.07,125.46 -12.33,54.1 -9.34,118.97 -9.22,178.41z"/>
   <path class="fil1" d="M203.8 1261.35l49.88 -66.05c5.64,-7.65 5.92,-10.15 12.1,-16.75l32.57 -41.53c3.16,-5.12 2.17,-3.54 6.97,-9.33l24.76 -33.25c6.69,-12.27 16.95,-19.98 25.47,-32.58 6.56,-9.68 18.37,-23.08 25.76,-32.6 6.4,-8.23 5.02,-9.5 11.63,-17.45 5.74,-6.93 11.79,-8.79 11.53,-21.1 -0.23,-10.57 -17.67,-29.24 -23.94,-37.65l-176.73 -236.37c-9.3,3.82 -19.16,24 -25.38,32.55l-51.31 64.96c-8.67,14.37 -17.07,22.48 -26.16,34.91l-11.26 18.07c-4.8,6.47 -9.47,9.04 -14.1,14.83 -9.16,11.45 -15.17,21.85 -26.13,34.94l-37.44 50.07c-5.76,7.31 -12.4,10.35 -11.94,20.22 0.64,13.56 -0.93,1.38 3.52,9.32l4.18 6.11c10.99,17.51 28.98,35.23 41.29,55.04l126.11 171.4c6.18,10.29 18.32,28.89 28.63,32.24z"/>
   <path class="fil1" d="M200.57 600.56c10.17,-4.01 20.61,-24.37 26.7,-32.31l85.86 -114.24c5.25,-7.71 7.66,-8.78 13.36,-15.46 5.27,-6.17 7.23,-10.73 12.58,-16.63 23.97,-26.43 25.31,-34.51 39.06,-51.28 43.08,-52.58 29.78,-37.11 -19.62,-109.24l-102.95 -135.79c-8.95,-11.49 -16.88,-22.85 -25.45,-36.02 -5.41,-8.32 -20.34,-29.12 -29.54,-32.5 -5.56,3.74 -2.52,1.81 -6.54,6.84l-56.27 76.37c-14.56,14.79 -38.61,54.7 -50.66,68.9l-38.17 49.01c-6.18,7.83 -6.18,5.22 -12.92,16.35 -22.67,37.46 -46.46,39.26 -31.17,62.21l14.4 21.71c0.42,0.56 1.03,1.28 1.45,1.83 28.79,38.24 79.84,102.63 102.78,139.66 6.37,10.28 6.44,8.28 13.35,15.12 10.38,10.29 4.6,7.25 11.96,17.1 5.56,7.45 9.49,8.6 13.91,15.03 3.87,5.62 8.62,13 11.63,17.64l19.45 25.63c0.42,0.55 0.94,1.34 1.34,1.9 0.42,0.57 0.94,1.41 1.33,1.97l4.12 6.21z"/>
   <path class="fil1" d="M303.78 664.28c-22.85,-0.47 -13.86,-6.58 -31.48,-5.6 -0.71,13.43 4.61,13.75 12.47,25.03l90.58 122.67c7.43,8.72 8.73,11.93 14.91,20.64 5.01,7.07 3.07,4.14 7.74,11.64 10.46,16.82 8.74,6.59 17.46,20.99l52.19 70.6c9.76,16.84 7.21,9.05 15.72,19.94 30.64,39.16 34.81,38.46 13.83,65.68 -5.86,7.61 -11.49,10.34 -16.87,18.26l-41.5 55.84c-0.42,0.52 -1.1,1.2 -1.52,1.7l-90.93 122.27c-2.05,2.55 -3.95,3.77 -7.45,8.85l-2.44 4.1c-0.37,0.6 -0.78,1.48 -1.15,2.07 -0.37,0.59 -0.8,1.45 -1.18,2.02 -0.37,0.55 -0.86,1.38 -1.25,1.91 -4.56,6.22 -9.68,9.46 -16.24,18.94 -11.77,17.01 -40.33,51.95 -41.24,61.34 46.11,3.93 87.22,-1.7 128.52,-15.72 0.79,-0.27 1.67,-0.53 2.45,-0.81l65.49 -34.87c30.14,-21.22 61.69,-51.05 82.4,-82.36 7.03,-10.62 23.86,-43.85 26.88,-53.59l20.93 -102.62c2.24,-33.04 -0.8,-83.35 -8.93,-114.11l-17.93 -63.46c-5.51,-18.85 -43.91,-61.18 -51.34,-74.44 -9.78,-17.48 -3.11,-8.22 -20.48,-18.72 -9.09,-5.49 -12.49,-12.72 -21.63,-20.42 -7.45,-6.27 -17.27,-11.99 -24.5,-17.16 -15.21,-10.87 -24.32,-10.99 -41.6,-20.24 -38.12,-20.4 -31.77,-14.4 -74.63,-25.45 -18.48,-4.76 -12.92,-4.42 -37.26,-4.92z"/>
   <path class="fil1" d="M274.64 651.66l58.31 0.47 81.99 -21.42c24.11,-7.35 34.21,-15.13 54.12,-27.03l24.25 -17.8c8.46,-9.13 12,-13.03 20.74,-21.2 41.62,-38.92 79.46,-102.96 81.99,-161.5 2.12,-49.2 5.97,-12.28 5.96,-77.51 0,-23.55 -1.18,-55.1 -6.21,-75.52 -4.98,-20.22 -13.99,-43.82 -19.78,-60.85 -5.14,-15.08 -19.55,-36.34 -29.59,-51.03 -7.45,-10.9 -28.45,-35.43 -39.56,-44.32 -21.9,-17.54 -17.62,-17.72 -45.59,-35.59 -11.82,-7.55 -13.03,-10.95 -24.6,-17.03 -7.48,-3.93 -19.96,-10.48 -28.33,-13.58l-49.06 -18.17c-5.91,-1.77 -3.05,-1.01 -10.2,-2.18 -23.38,-3.8 -57.94,-2.26 -76.75,-7.4 1.21,15.63 16.9,25.97 27.14,39.3l14.51 21.08c4.91,7.08 9.84,14.67 14.26,21.4l67.23 91.06c13.13,20.91 23.99,31.1 38.01,49.15l75.38 102.97c6.62,18.3 -13.91,30.77 -22.34,40.97 -21.03,25.45 -20.02,28.2 -29.69,41.53l-159.84 211.46c-6.84,8.48 -17.56,16.91 -22.35,32.73z"/>
  </g>
 </g>
</svg>
